<svg width="160" height="160" viewBox="0 0 160 160" fill="none" xmlns="http://www.w3.org/2000/svg">
<g clip-path="url(#clip0_2117_22835)">
<path d="M27.7128 71.8147C28.5795 70.5595 29.5002 69.3116 30.5108 68.1445C29.2701 68.7541 28.0167 69.3296 26.7777 69.9409C26.7418 70.1801 26.7058 70.4193 26.668 70.6584C26.6644 70.6782 26.6626 70.6962 26.659 70.7124C26.659 70.725 26.659 70.7376 26.6572 70.7519C26.6357 71.0846 26.6015 71.4155 26.5979 71.75C26.5979 71.856 26.5871 72.1761 26.5781 72.3578C26.6249 72.667 26.7238 72.9853 26.8281 73.2928C27.0852 72.7911 27.3801 72.3002 27.7146 71.8147H27.7128Z" fill="#EED3CA"/>
<path d="M112.829 178.276C112.804 177.568 112.942 176.84 113.048 176.144C113.079 175.946 113.113 175.75 113.147 175.554C113.158 175.487 113.167 175.426 113.174 175.378C113.39 172.961 113.108 170.539 113.181 168.118C113.201 167.453 113.392 166.849 113.708 166.336C111.831 156.018 109.31 145.738 105.42 136.081C101.29 125.828 95.0607 114.431 84.7533 109.804L84.2786 110.219C84.1384 110.054 84.1437 109.881 84.2786 109.701C84.8451 109.335 85.1957 108.588 85.3306 107.461C86.2243 107.797 86.8213 107.768 87.1252 107.373C92.9424 110.153 97.1431 114.967 100.761 120.386C105.956 128.171 109.695 137.006 112.487 145.896L113.266 146.705C113.18 146.214 113.341 146.151 113.588 146.167C113.228 145.441 113.144 144.614 113.284 143.815C109.092 130.383 103.732 116.134 91.7574 107.725C92.9856 107.605 93.9422 107.229 94.6291 106.596C94.7334 106.718 94.8431 106.828 94.9762 106.891C95.4024 107.096 97.7149 107.072 99.8745 106.92C99.8871 106.15 100.222 105.402 100.743 104.812C100.072 104.789 99.407 104.782 98.7704 104.782C101.033 103.17 103.295 102.066 105.089 99.8454C109.702 94.1433 108.405 89.2449 108.335 82.6688C108.332 82.3632 108.351 82.0557 108.35 81.7536L109.121 82.5286C109.116 80.6009 109.161 78.479 108.866 76.5783C108.929 75.7187 108.866 74.7621 108.673 73.7065C109.247 73.1725 109.569 72.6636 109.642 72.1781C109.865 72.0792 109.869 71.9928 109.642 71.9191C109.393 71.7663 109.22 71.7663 109.125 71.9191C108.896 71.3814 108.256 71.5343 108.105 71.6224L108.348 71.1423C108.58 70.5561 108.359 70.3007 107.747 70.3978C103.701 72.7643 99.389 73.1059 95.1776 70.7287L94.3702 70.8833C93.3542 70.9786 93.6132 71.6638 95.1434 72.9369L94.5698 72.8884C93.4927 71.9479 90.7055 71.0596 89.9718 72.6941L89.4161 72.259C86.0642 72.8902 84.8325 72.1079 85.7208 69.9087C85.6129 69.4322 83.3363 66.3015 82.7249 66.2242C82.5577 65.1542 82.038 64.1041 81.1659 63.0737C80.7145 62.2771 80.5419 61.3474 80.7739 60.4519C82.1351 56.877 82.5523 54.2301 80.3963 50.9573C80.9052 50.292 80.1805 49.4522 79.6194 50.1805L78.8894 50.2938C76.7711 52.3096 75.6813 54.64 75.1167 57.2385L75.2192 56.5498L74.7013 56.2602L75.2749 55.9995C75.6022 53.5449 76.9383 51.7665 78.7257 50.1463C78.2852 49.4036 78.1898 48.7869 78.4362 48.2959L78.0658 47.85C77.9866 47.0767 74.9261 48.9073 73.9568 49.5187C74.2733 48.8174 74.241 48.4326 73.4066 48.6268C72.815 48.082 72.4481 48.1539 72.1119 48.8858C71.4321 49.5727 70.6733 50.1751 69.8353 50.6912C69.4127 49.7237 68.4867 49.5763 67.0571 50.2506C66.9312 49.9863 66.755 49.8712 66.4169 49.9215C66.1112 49.855 65.8037 49.801 65.4944 49.7831C65.1887 49.7651 64.8902 49.7507 64.6133 49.8154C61.5509 50.5365 58.4814 51.3547 55.4388 52.2844C55.6366 53.8237 54.9227 55.5607 53.5327 56.2477C51.5654 57.2187 49.5173 58.0099 47.5464 58.9773C46.6455 59.4197 45.7734 59.8998 44.9462 60.4681C44.8635 60.5238 44.7538 60.585 44.6477 60.6497C44.6153 60.6874 44.5524 60.7468 44.4481 60.8331C44.1604 61.0759 43.8799 61.3276 43.6083 61.5902C43.3224 61.8689 43.0473 62.1584 42.7829 62.4569C42.6858 62.5666 42.5941 62.6781 42.5006 62.7896C42.3999 63.0287 42.3244 63.1474 42.2848 63.187C41.9845 63.6617 41.5584 64.1292 41.2796 64.5716C40.9308 65.1254 40.5909 65.6865 40.2511 66.2475C41.0567 68.0206 40.1755 70.1281 38.6021 71.1728C38.5338 71.2196 38.478 71.2538 38.4349 71.2808C38.2011 71.4893 37.9637 71.6907 37.7371 71.9083C37.2804 72.3453 36.847 72.8056 36.4298 73.2786C36.0091 73.7551 35.644 74.3359 35.1873 74.7765C35.9353 74.0572 35.1567 74.8268 34.9949 75.0516C34.8222 75.289 34.6532 75.5263 34.4878 75.7673C34.3349 75.9885 34.1821 76.2115 34.0364 76.438C33.9753 76.5315 33.7379 76.9218 33.6264 77.0854C33.5725 77.267 33.5365 77.4576 33.479 77.6374C33.4718 77.7507 33.4628 77.864 33.4628 77.9773C33.4466 78.934 33.5815 79.8852 33.7001 80.8365C34.9589 80.903 36.2087 80.9516 37.4153 80.9857C37.7839 85.7744 43.9967 88.9932 48.7063 89.2126L48.958 93.7657C50.224 94.217 51.1537 95.2959 51.4755 96.623C52.0078 96.6734 52.5365 96.7651 53.0418 96.9215C54.0488 97.2344 54.822 97.8494 55.3867 98.7251C55.9621 99.6171 56.0106 100.745 55.7823 101.75C55.7751 101.782 55.7661 101.814 55.7571 101.847C55.9351 101.895 54.8526 102.329 54.7033 102.438C52.9033 103.735 56.0628 103.949 55.5683 106.118C55.1151 108.108 56.1491 110.228 54.1998 109.577C53.8276 109.453 53.4536 109.372 53.0759 109.284C53.0634 109.284 53.0508 109.284 53.0364 109.284C52.8907 109.279 52.7451 109.268 52.5994 109.263C51.801 109.238 51.0188 109.313 50.2258 109.38C50.2186 109.38 50.2114 109.381 50.2024 109.383C50.0531 109.408 49.9039 109.43 49.7546 109.455C49.3608 109.522 48.9688 109.594 48.5768 109.667C47.8359 109.808 47.0987 109.968 46.356 110.095C45.9766 110.16 45.5936 110.2 45.2123 110.248C45.1926 110.252 45.144 110.259 45.0541 110.273C44.6639 110.333 44.2737 110.387 43.8853 110.451C43.8295 110.46 43.7738 110.471 43.7162 110.48C46.5718 110.408 49.5748 111.082 51.1393 112.532C53.1928 112.368 54.8742 112.456 56.899 112.981L57.7945 112.85C60.1142 111.136 63.8994 113.275 59.6412 114.177C58.7044 114.634 57.7046 115.395 57.87 116.429C56.1293 116.875 55.0702 119.631 54.457 121.314C53.182 124.814 52.9806 128.356 53.1766 132.037C53.2504 133.411 54.2376 140.028 55.892 140.431C56.0484 140.469 57.906 139.8 57.611 139.46L57.5319 138.806C54.8867 135.312 54.6566 130.198 55.5593 125.984C54.7087 131.445 56.9008 137.007 61.8027 139.719C62.067 141.435 62.4824 141.778 63.0471 140.753C63.4193 140.683 63.7052 140.426 63.9048 139.98C72.7125 139.284 76.593 136.38 78.5513 127.68L79.3065 123.001C85.5014 123.904 89.0601 119.018 86.5048 113.336C94.5303 118.243 99.6768 127.827 103.027 136.463L103.685 136.871L104.025 137.351C104.881 140.532 106.262 145.036 107.431 148.732L107.961 151.837C107.528 152.062 107.051 152.161 106.532 152.136L106.096 151.586C92.6781 150.609 78.9865 150.361 65.0233 150.843L59.6502 151.382L60.5997 148.437C60.7705 147.097 57.5103 149.667 58.1307 150.066L57.1615 151.147C53.851 158.316 50.4829 165.301 47.0555 172.098C46.5538 172.229 46.2769 172.475 46.2229 172.839C44.8347 172.294 39.0894 169.771 38.9743 168.438C38.8377 166.861 41.1502 161.524 41.8551 159.902C43.4519 156.48 44.9156 153.011 46.2517 149.496C48.0931 149.803 50.1466 149.94 52.051 149.746C52.9357 149.654 55.1205 149.124 55.2842 148.255L55.0234 147.71C53.3744 147.493 42.3064 146.148 41.7202 146.468C40.6143 147.07 41.0117 147.646 42.0834 147.737C41.9378 148.793 43.8673 148.865 44.6441 148.811C44.6873 148.903 44.6099 150.677 44.1244 150.613C41.945 154.567 40.2475 158.656 39.0319 162.878C39.5785 159.857 40.3715 156.892 41.4145 153.983L41.0477 153.43L40.6916 152.947L31.3607 153.864C30.8554 154.515 30.1415 155.006 29.3431 155.268C28.8791 157.588 29.0733 160.016 29.9185 162.229C30.0426 162.815 30.2152 162.902 30.4364 162.488L30.7151 163.146C30.2799 166.5 30.1936 169.796 30.4526 173.033C31.4596 174.912 31.6232 176.615 30.9453 178.14C31.839 180.121 31.7131 181.614 30.5677 182.617C30.4741 183.542 30.0857 184.164 29.4024 184.484L28.8054 184.568C26.0092 188.222 24.0815 192.06 25.4265 196.739C25.8096 198.069 27.1456 200.481 28.3666 198.974C29.0787 199.067 29.7279 198.609 30.3159 197.6C30.7493 197.755 31.1341 197.782 31.4722 197.679C31.7239 198.35 31.7958 198.348 31.99 197.679L32.587 197.293L33.1319 194.815L40.528 182.63C64.1997 180.922 88.517 180.501 111.95 181.051C112.104 180.38 112.458 179.8 112.942 179.35C112.876 178.992 112.838 178.629 112.825 178.273L112.829 178.276Z" fill="#EED3CA"/>
<path d="M133.355 120.922C134.188 125.083 135.769 129.653 138.694 132.897C139.843 134.17 141.228 135.612 143.032 135.579C159.913 131.787 154.301 117.953 149.701 106.27C145.999 96.8656 141.122 87.8853 137.583 78.4033L135.01 79.6837C135.391 78.4411 136.29 77.747 136.864 76.4936C137.302 75.5352 137.347 74.8734 137.596 73.9923L137.272 73.4528C136.076 73.336 134.889 73.4295 133.713 73.7352L127.241 73.9923V77.8747C126.851 77.9862 126.997 77.3676 126.725 77.3586L125.684 76.5476C124.305 74.0103 122.322 72.6419 119.736 72.4422C119.489 71.9621 118.968 71.6492 118.169 71.5036C116.582 70.4714 113.597 69.2198 112.604 70.644L112.23 70.8904C111.753 70.2125 110.236 71.1799 110.417 71.9262C110.407 72.4243 110.745 72.9493 111.433 73.5014C111.489 74.3466 111.755 74.8573 112.23 75.0317C112.967 74.9274 116.794 78.3404 117.688 79.0201C119.114 80.1063 121.388 81.1043 122.938 82.0124L130.086 106.74C130.129 106.912 130.102 107.017 130.034 107.078C130.273 107.646 131.796 109.847 131.775 110.421C132.059 110.965 132.217 111.57 132.196 112.181C132.151 113.481 132.165 114.781 132.248 116.081C132.285 116.691 132.338 117.301 132.402 117.91C132.431 118.185 132.469 118.46 132.496 118.736C132.498 118.763 132.499 118.782 132.501 118.8C132.503 118.815 132.505 118.827 132.508 118.843" fill="#EED3CA"/>
<path d="M28.1096 128.594C28.3074 129.252 28.5448 129.281 28.6275 128.594L29.2875 127.706C30.192 123.676 31.7978 118.69 34.0725 115.23C34.2182 115.007 37.7049 112.239 38.2066 111.899C38.3882 111.775 38.586 111.66 38.7964 111.554C38.1958 111.718 37.597 111.889 37.0036 112.077C36.2987 112.302 35.5956 112.54 34.9015 112.793C34.8547 112.811 34.6929 112.863 34.5239 112.923C34.2416 113.552 33.9502 114.18 33.6409 114.798C32.2617 117.564 30.4383 120.013 28.4855 122.396C27.8831 124.224 27.6493 125.783 28.0557 126.593C28.1366 126.755 28.2499 126.902 28.3704 127.044L28.1114 127.303C27.3706 127.564 27.3885 128.324 28.1114 128.598L28.1096 128.594Z" fill="#EED3CA"/>
<path d="M94.6314 106.598C96.2785 106.968 98.1289 107.272 100.181 107.511C102.612 107.878 104.473 109.031 105.761 110.998C105.834 111.573 105.489 112.264 104.725 113.068C105.034 113.541 104.629 114.976 103.948 114.878C104.013 115.132 104.192 115.206 104.466 115.137C104.362 114.765 104.595 114.549 105.165 114.488C110.968 108.845 120.686 109.825 128.147 110.771C129.087 110.89 130.871 111.14 131.383 111.775C132.23 119.304 132.87 126.995 135.192 134.243C135.395 134.878 135.206 134.896 136.043 134.804C136.738 134.67 136.81 134.848 136.301 135.322C136.141 138.313 138.905 142.736 141.996 143.213L142.254 144.119C141.506 144.31 140.491 144.648 139.833 144.657C135.512 144.714 132.113 145.437 127.465 145.473L124.395 145.157C124.052 145.141 123.703 145.175 123.36 145.157C123.318 145.155 117.58 145.486 117.244 145.473C115.793 145.418 113.446 145.072 112.872 144.384C108.74 130.712 102.997 115.555 90.4883 107.504C91.7956 107.087 93.2737 106.821 94.6278 106.599L94.6314 106.598Z" fill="#D52B1E"/>
<path d="M29.405 154.988C29.619 157.387 29.7881 159.829 29.9229 162.233C30.1765 163.05 30.2628 163.997 30.1819 165.08C30.6818 167.887 30.2682 171.645 28.8872 174.137L28.4664 174.612C21.8759 174.729 14.8898 173.382 8.69137 170.714L8.43783 169.998C7.71314 170.591 7.19705 169.676 7.14311 168.962C5.86637 168.027 6.65939 166.337 7.01004 164.819C7.59986 162.267 8.63024 159.642 9.73075 157.317C14.3989 151.692 22.5826 152.828 28.9123 154.481L29.4014 154.988H29.405Z" fill="#404040"/>
<path d="M76.7728 44.4942C77.4597 44.9869 77.0407 45.3843 76.3592 45.6037C70.4952 46.8534 64.4514 48.2345 58.627 49.9877C47.5608 53.318 36.2679 57.6427 28.1112 65.9739L22.8011 70.8884L22.5475 69.5973L20.6055 71.1492C21.287 69.5344 22.3336 67.9429 23.3514 66.5187C24.9877 64.2314 27.4135 62.1563 28.8881 60.0218C28.8089 59.4248 28.9816 59.0813 29.4059 58.986C29.5732 58.5185 29.922 58.1408 30.4417 58.2092C30.6989 57.0781 32.9916 55.5352 34.0651 55.8805C33.995 55.35 34.0525 55.1414 34.583 55.3626C34.2719 54.6523 35.3706 54.0139 35.8777 54.5858L36.0504 53.9132C38.3215 52.8685 40.6448 51.9478 43.0185 51.153L43.6424 51.4802C43.7288 51.2555 43.8151 51.2555 43.9014 51.4802C43.9158 51.2249 44.0021 51.1386 44.1603 51.2213C45.1152 50.0884 47.4133 49.4591 48.8195 49.9266L51.925 48.8908C52.0365 48.0744 53.7502 47.4235 54.2537 48.114C54.3077 47.4163 54.5612 47.4504 54.7716 48.114C55.1277 47.2041 57.3754 46.4129 58.1361 47.0782C59.7437 46.4668 61.5725 46.1845 63.3131 46.0424C63.9695 45.5785 65.1617 45.4131 65.7569 46.0047C69.1843 45.2332 72.6297 44.5661 76.0913 44.0015L76.7728 44.4906V44.4942Z" fill="#835840"/>
<path d="M18.5349 150.331C18.3461 151.5 15.9635 151.457 16.2404 150.025L15.9473 148.261C16.5263 141.16 17.5387 133.154 19.3117 126.265C20.013 126.366 19.7739 125.821 19.9087 125.453C21.8238 120.258 25.0678 113.638 28.6301 109.447C29.2972 108.4 31.0775 109.454 30.6315 110.66C26.7599 118.01 23.9062 124.645 22.1961 132.825L19.3207 149.171C19.1499 149.619 18.8873 150.005 18.5367 150.333L18.5349 150.331Z" fill="#50587F"/>
<path d="M140.704 68.492C136.956 72.7555 131.555 73.7554 126.21 71.4051C125.629 71.1821 125.025 70.9232 124.398 70.6283C123.815 71.1857 122.657 69.9413 123.103 69.3335C122.238 69.3893 120.866 68.3823 121.29 67.5227L120.621 67.4292C118.528 64.0378 117.086 59.9199 118.185 55.8775C117.987 55.7804 117.847 55.6347 117.895 55.4387C119.83 47.46 127.57 41.1231 135.824 44.3473C145.14 47.9869 146.129 61.0653 140.704 68.4884V68.492Z" fill="#8F2C28"/>
<path d="M113.267 146.707C115.09 153.001 116.709 161.665 116.631 168.185H115.337L114.802 167.259C114 153.868 109.651 140.272 103.458 128.362C99.7298 121.194 94.8854 113.638 88.1493 109.247C87.1297 108.628 86.7881 108.004 87.1261 107.375C89.5429 107.828 91.111 108.927 93.0818 110.606C102.454 118.596 109.877 135.003 113.269 146.707H113.267Z" fill="#717171"/>
<path d="M44.9363 18.6157C45.6016 18.1086 47.06 17.3497 46.4899 18.8746L46.3821 19.6065C39.3564 26.0225 33.532 35.3679 34.717 45.2509L34.325 46.0457C35.091 46.8279 33.6111 49.3238 32.5124 48.8923C32.3038 49.59 32.0449 49.59 31.7356 48.8923C31.1763 49.3598 30.8311 49.1152 30.5919 48.4715C30.4588 48.11 30.7411 43.1416 30.7987 42.4349C31.5252 33.6416 33.755 26.794 41.3111 21.4623C41.8865 20.9372 44.395 18.8656 44.9345 18.6157H44.9363Z" fill="#835840"/>
<path d="M140.703 68.041C141.514 65.7141 142.721 63.817 143.176 61.3264C146.495 43.1501 125.348 37.0379 118.643 54.1354C118.439 54.6551 118.387 55.2557 118.184 55.8778L117.826 58.8449C117.166 59.8843 117.006 59.0013 116.936 58.1652C116.688 55.1837 118.778 49.8826 120.836 47.7247C121.013 47.5395 121.291 47.5413 121.549 47.597C120.961 47.0342 122.448 45.5543 123.102 46.0452C122.71 45.2881 123.91 44.452 124.656 44.7505C124.492 44.0258 125.01 43.7668 126.21 43.9736C140.13 37.5792 150.554 56.8345 140.705 68.0392L140.703 68.041Z" fill="#BC584C"/>
<path d="M143.033 135.58C141.255 135.98 139.246 135.98 137.768 136.355C137.539 136.413 137.608 136.827 137.577 136.848L137.214 136.871C137.133 136.834 136.378 135.507 136.304 135.321C136.221 135.115 136.077 134.899 136.045 134.804C136.034 134.769 136.25 134.453 136.122 134.095C135.486 132.295 134.77 130.526 134.225 128.693L134.761 127.969C133.988 126.104 133.341 124.178 133.013 122.178C132.905 121.515 132.24 117.23 133.067 117.213L134.423 123.358C135.856 128.193 138.286 133.297 143.033 135.582V135.58Z" fill="black"/>
<path d="M27.8532 153.178C28.2237 153.106 28.5671 153.278 28.889 153.696C28.8746 154.152 29.3619 154.487 29.4069 154.99C27.0728 155.023 24.9041 153.897 22.5431 153.701C18.8442 153.395 15.352 153.843 12.144 155.717C11.3222 156.197 10.6766 157.067 9.73438 157.319C10.1839 156.37 10.7827 154.909 11.547 154.214C13.9116 151.119 18.2417 150.968 21.7752 151.349C23.1059 151.493 26.9919 151.98 27.7759 152.926C27.828 152.989 27.846 153.079 27.8532 153.178Z" fill="#717171"/>
<path d="M149.505 136.616L148.992 137.571C147.696 138.524 142.524 141.622 141.274 141.438C141.08 141.41 140.891 141.347 140.702 141.273C139.539 140.295 138.054 139.072 138.113 137.392C142.008 137.457 145.998 136.492 149.375 134.546C149.577 135.127 149.553 135.997 149.503 136.614L149.505 136.616Z" fill="black"/>
<path d="M110.679 36.9899C110.807 36.8784 110.918 36.7975 110.976 36.8263C113.283 37.9969 113.934 39.9912 113.785 42.4241C113.984 43.2639 114.096 44.1432 114.042 45.0136C114.644 45.0208 114.112 45.848 114.714 45.8587C114.33 46.7884 114.52 46.4593 113.008 46.5636C113.382 46.9179 113.224 47.0761 112.749 46.8226C112.256 46.5744 111.668 46.1321 111.713 45.5279L111.127 45.2617L110.503 41.3003C110.181 39.3078 108.642 38.5508 106.741 38.5508L106.277 38.0239C105.477 37.5132 105.871 36.5512 106.795 36.7292C107.46 35.938 110.124 36.0045 110.677 36.9881L110.679 36.9899Z" fill="#AD8F7E"/>
<path d="M149.507 136.616C149.139 141.056 146.229 144.954 141.561 142.1C141.043 141.784 140.984 141.505 140.707 141.275C143.879 140.205 146.738 138.452 149.507 136.618V136.616Z" fill="#8F2C28"/>
<path d="M18.5326 150.33L19.2789 149.802C21.8 149.917 24.2833 150.303 26.7289 150.962L27.3331 151.623C28.0362 151.722 28.8562 152.909 27.851 153.175C27.1515 152.641 20.6312 151.62 19.4317 151.607C17.1984 151.586 13.2099 152.691 11.543 154.209C12.363 152.183 13.8429 151.321 15.8245 150.598C16.114 150.165 15.8929 148.883 15.9432 148.259L16.7021 150.478C17.2469 150.864 18.0201 150.348 18.5326 150.33Z" fill="#EED3CA"/>
<path d="M123.621 71.6653C124.351 71.4135 124.658 71.7264 124.397 72.4421L125.692 73.2189C125.778 72.9942 125.865 72.996 125.951 73.2189C125.971 73.2315 125.912 73.5121 126.037 73.6433C126.221 73.8339 126.625 73.8969 126.703 74.1576C126.803 74.4939 126.264 76.569 126.726 77.3602C126.701 77.3602 126.514 77.6228 126.323 77.603C125.234 77.4879 123.73 74.4094 122.718 73.735C121.759 73.0967 120.409 73.388 119.738 72.4439C119.859 71.757 121.447 71.2445 121.81 71.926C122.294 71.998 122.725 71.9117 123.105 71.6671C123.045 71.374 123.218 71.374 123.622 71.6671L123.621 71.6653Z" fill="black"/>
<path d="M51.6659 15.7706L51.5184 16.4072C49.981 17.1607 48.5244 18.0813 47.1218 19.0596L46.4888 18.8762L46.0716 18.3421C45.6886 18.3367 45.3578 18.7611 45.061 18.8708C44.919 18.9229 44.9478 18.6118 44.9352 18.6172C44.8596 18.0616 45.2553 18.067 45.5717 17.844C46.6201 17.1031 47.7098 16.418 48.8175 15.7706L49.4631 15.6861C50.9988 14.8284 51.7324 14.8571 51.6659 15.7706Z" fill="#EED3CA"/>
<path d="M123.104 69.3349C123.379 69.61 124.323 70.5667 124.398 70.6296C125.058 70.8328 125.745 71.1853 126.211 71.6654C126.776 72.1653 126.337 72.7479 125.952 73.2172C125.893 73.1777 125.751 73.2586 125.693 73.2172L124.398 72.4404C124.165 72.2354 123.85 71.9009 123.622 71.6636C122.771 71.401 121.153 70.2789 121.55 69.3349C121.831 68.9105 122.348 68.9105 123.104 69.3349Z" fill="#D52B1E"/>
<path d="M113.786 42.4236C113.604 41.663 112.951 39.408 112.601 38.8218C112.489 38.6348 110.799 37.0506 110.68 36.9894C110.049 36.628 110.247 36.3313 110.939 36.4715C113.867 37.8741 114.665 38.8721 113.786 42.4236Z" fill="#EED3CA"/>
<path d="M133.715 73.7346L138.113 71.9238C138.495 72.8589 137.719 73.5584 137.597 73.9936L133.715 73.7346Z" fill="black"/>
<path d="M126.208 43.9756C125.952 44.0925 124.784 44.6661 124.654 44.7524L122.066 43.4577C122.707 43.2779 122.93 42.8086 123.987 42.9434C124.83 43.0513 125.334 43.9307 126.208 43.9738V43.9756Z" fill="#EED3CA"/>
<path d="M103.691 136.875L104.139 137.258C105.065 142.137 105.989 146.95 106.91 151.701L106.538 152.144L95.5487 151.356C92.4378 151.331 89.3197 151.423 86.2088 151.378C79.2731 151.277 72.2133 151.086 65.2434 151.356C64.3784 151.39 59.151 152.093 58.9136 151.883L59.4675 149.071C58.9154 148.86 55.6661 148.939 55.2884 148.261L41.4386 146.967L42.0877 147.743L41.7191 148.267C40.2661 148.376 40.4208 148.695 42.1866 149.225C43.3087 149.927 42.1273 152.775 41.0519 153.438L30.6996 154.474L29.8239 146.368C29.6692 146.179 29.8904 145.032 29.8275 144.816C29.1028 142.325 29.7825 135.356 30.117 132.478C30.8021 126.605 33.165 114.514 39.9191 112.47C42.014 111.835 42.9742 112.358 41.2659 113.802C46.7667 113.295 52.7799 114.307 58.1818 115.662L57.8761 116.435C53.6916 121.114 52.9741 128.913 54.0692 134.861C54.2275 135.717 55.2219 139.747 55.9736 139.963L57.6171 139.465C58.0091 138.33 59.5358 139.076 58.8219 140.16C57.1244 140.509 56.7899 141.265 57.8185 142.426C58.8687 143.106 59.2319 143.759 58.91 144.381L60.0106 145.176C60.2695 145.798 60.6795 145.879 61.2405 145.417L62.0066 145.316C68.1367 149.376 74.1625 143.787 75.5435 137.72L76.2539 136.618L76.0632 136.212C74.8225 138.355 65.1067 141.766 63.5279 141.259C63.2887 141.182 63.1448 140.979 63.0513 140.757C63.1233 140.328 63.2743 139.655 63.7401 139.504C64.4378 139.277 66.6154 139.306 67.7195 139.083C76.7879 137.26 77.8075 130.333 78.8415 122.381C81.404 123.02 85.1065 122.218 86.2807 119.598C87.4514 116.983 86.4821 114.775 85.5722 112.292C85.8977 111.961 90.0012 115.09 90.4921 115.521C95.4121 119.842 101.952 130.569 103.689 136.873L103.691 136.875Z" fill="#D52B1E"/>
<path d="M113.525 179.57L98.3948 178.784H79.4794C78.868 178.795 78.3015 179.052 77.6883 179.065C65.5683 179.318 53.4088 179.601 41.3086 180.474L44.8439 174.422C45.4661 174.47 45.7538 174.735 46.4119 174.467C47.7948 173.907 51.6627 166.535 52.5762 164.826C54.5471 161.136 56.2338 157.288 58.1309 153.561C61.695 152.766 65.2824 153.053 68.8879 152.929C79.0604 152.577 89.0207 152.71 99.1627 153.176C102.398 153.325 105.645 153.338 108.877 153.555C111.259 161.998 113.441 170.734 113.523 179.572L113.525 179.57Z" fill="#F7F0EF"/>
<path d="M28.6284 109.445C28.8028 109.239 28.7489 107.62 29.3926 107.528C30.9085 107.789 35.235 108.553 36.1018 107.214C36.3733 106.793 36.483 105.82 36.7132 105.624C36.8319 105.523 38.9861 104.914 39.3889 104.808C44.2783 103.531 49.7664 103.384 54.7691 102.718C54.5911 104.944 56.1124 106.5 57.1014 108.278C56.9449 108.652 56.6105 108.295 56.4019 108.203C50.6799 105.68 49.5596 105.042 43.0303 106.119C40.3941 106.554 37.677 107.967 36.5316 110.774C35.449 113.427 35.7799 111.26 34.0698 113.205C30.7413 116.993 28.6644 121.99 28.3694 127.043L28.1105 127.302C28.0943 127.731 28.1339 128.167 28.1105 128.596C28.5798 129.348 28.3083 130.565 28.1105 131.443C28.3335 132.459 28.3119 133.525 28.1105 134.548C28.2705 134.705 28.3964 134.865 28.4108 135.036C28.8712 140.447 29.0276 145.919 27.8659 151.168L27.8767 152.644C24.8665 152 21.6657 150.222 18.5332 150.335C20.6371 141.074 21.1658 130.85 24.7011 121.956C26.2458 118.068 28.4917 114.407 30.1353 110.553L30.0724 109.692L28.6284 109.451V109.445Z" fill="#242E5F"/>
<path d="M57.0995 53.8086C57.1211 55.1267 57.2343 56.4807 57.3908 57.788C57.8925 61.9797 58.9283 66.6281 59.1674 70.7622C59.2699 72.5334 59.4785 76.3061 56.6553 75.3494C55.0819 74.8172 54.1072 71.6973 52.9474 71.0283C52.3378 70.6759 49.2053 69.9116 48.4249 69.8595C45.9325 69.6886 43.6938 70.541 41.6384 71.8645C40.8706 72.359 40.4444 73.3246 38.5958 72.7115L34.9922 61.897C42.6742 58.9263 49.5793 55.3245 57.0959 53.8086H57.0995Z" fill="black"/>
<path d="M58.6556 148.259C58.625 148.892 58.3517 149.491 58.1377 150.07C57.9147 150.505 57.6001 150.707 57.1955 150.674C53.3599 157.193 49.9127 164.066 46.8539 171.293C46.8395 172.024 46.6309 172.541 46.2299 172.841C46.1418 172.859 46.0231 173.112 45.6239 173.096C44.7356 173.064 39.0173 169.924 38.6558 169.156C38.3969 168.608 38.4365 168.176 38.521 167.601C38.7224 166.238 39.9793 163.287 40.5296 161.838C42.1588 157.545 44.2986 153.435 45.9584 149.153C47.8178 149.065 49.6519 149.439 51.5311 149.288C53.0578 149.167 54.2104 148.484 55.2876 148.257C56.1597 148.074 57.6468 148.337 58.652 148.257L58.6556 148.259Z" fill="#404040"/>
<path d="M87.1281 107.375C87.8959 108.825 89.8398 109.614 91.1471 110.733C104.317 122.006 115.22 151.14 115.342 168.186C115.353 169.75 115.463 171.53 114.851 172.999C114.715 173.327 114.959 173.458 114.308 173.361C113.7 168.335 112.722 163.291 111.593 158.349C108.198 143.505 101.699 122.013 88.8688 112.752C87.6082 111.842 85.7524 110.515 84.2815 110.222C83.76 110.163 83.7816 109.904 84.2815 109.704C84.3157 109.197 84.7275 107.188 85.0457 106.967C85.7057 106.798 86.3279 107.226 87.1281 107.375Z" fill="#404040"/>
<path d="M37.4003 79.399C36.4922 79.6705 35.6614 79.7154 34.7138 79.6831C31.869 79.5878 26.7207 78.9908 24.0252 78.2067C21.6965 77.5288 20.4755 77.0055 21.5095 74.2489C22.4769 71.6666 29.4288 66.6046 31.9121 64.9826C32.4498 64.632 34.7767 62.645 35.246 62.7762C36.2405 65.1283 36.2944 68.3237 37.1647 70.7621C37.483 71.654 38.659 73.7723 38.7202 74.4053C38.8461 75.6748 37.0011 77.8039 37.3985 79.399H37.4003Z" fill="#371D0E"/>
<path d="M28.6279 128.595C29.3148 123.49 31.3504 119.345 33.6935 114.898C36.371 113.341 37.7323 110.587 40.9277 110.226C43.4758 109.938 48.0523 109.877 50.3018 111.175C50.7568 111.438 50.6687 111.924 51.2675 112.037C52.1576 112.206 53.0819 111.821 53.8227 111.87C54.8279 111.936 56.2341 112.537 57.1962 112.467C57.8256 112.422 58.4118 111.895 59.0555 111.792C60.032 111.639 61.778 111.562 61.9633 112.736C62.3139 114.946 60.2711 113.907 58.9854 115.216C58.7462 115.459 58.1241 116.155 57.8741 116.433C58.027 115.734 57.5253 115.917 57.0649 115.833C52.6377 115.034 48.5665 114.186 44.0152 114.094C43.3877 114.081 40.3253 115.029 40.8126 113.479C40.9331 113.096 41.8988 113.008 41.6956 112.549C36.9896 113.249 34.5009 117.642 33.0227 121.733C30.2984 129.269 30.0629 137.561 30.1798 145.415H29.4029C29.2591 145.333 29.1242 145.243 29.0127 145.128C28.146 144.221 28.5973 134.511 28.7034 132.499C28.7574 131.461 28.7196 130.407 28.6261 129.372C28.2305 129.201 28.2323 128.771 28.6261 128.595H28.6279Z" fill="#DD554B"/>
<path d="M82.2091 44.4938C83.6045 44.1287 89.5584 43.3321 90.2507 44.3211C90.641 44.8786 90.3299 45.2292 89.7149 45.2706C89.2977 45.7687 88.3087 46.452 87.6433 46.3064C87.9292 47.495 84.7212 47.9464 84.2789 47.0832C83.8491 47.4698 81.8711 48.5326 81.4323 48.1675C81.3316 48.083 81.2489 47.9751 81.1733 47.86C80.4702 48.5919 78.5731 48.7807 78.0678 47.86C77.7154 47.86 77.4169 48.2323 76.9475 48.2431C76.3451 48.93 74.0416 49.4155 73.4104 48.6369C72.9861 48.7268 72.5437 48.8077 72.1157 48.8958C71.9898 49.0541 71.8604 49.2051 71.7057 49.3274C70.8911 49.9855 67.5249 50.1438 66.4208 49.9298C52.6482 53.1126 39.6417 57.6226 28.1133 65.9735C28.1079 65.4628 28.464 65.256 28.7553 64.9341C38.8469 53.8229 60.6988 48.5398 74.9137 45.3551C75.3777 45.2508 76.9565 45.1879 76.7731 44.4956C78.3843 43.681 80.5763 43.7295 82.2091 44.4956V44.4938Z" fill="#5A321B"/>
<path d="M112.75 106.857H114.044L115.201 107.913C119.617 107.666 124.012 108.249 128.408 108.434C129.092 108.463 129.897 108.049 130.421 108.188C130.671 108.254 132.321 109.903 132.384 110.146C132.523 110.677 131.785 111.666 131.384 111.775C130.694 111.962 128.768 111.34 127.887 111.261C123.738 110.894 113.701 110.074 110.243 111.727C108.621 112.502 106.936 113.917 105.42 114.937C105.087 115.161 104.528 115.093 104.467 115.138C104.066 115.746 103.823 115.584 103.949 114.879C104.226 114.376 103.814 114.151 104.726 113.068L106.051 111.313L105.762 110.999C104.654 111.119 104.548 110.049 103.782 109.484C101.489 107.789 97.997 107.807 95.3338 107.309C94.8986 107.228 94.5066 107.168 94.6307 106.6C97.5618 106.12 99.3996 106.544 102.003 106.361C102.636 106.316 103.09 105.859 103.553 105.848C104.692 105.822 106.783 107.433 107.767 107.593C108.434 107.701 109.069 107.287 109.775 107.35C110.326 107.399 110.698 107.864 111.021 107.846C111.365 107.828 112.429 107.159 112.748 106.859L112.75 106.857Z" fill="#DD554B"/>
<path d="M110.162 69.595C109.646 69.9114 109.387 70.2567 109.385 70.6307C109.622 71.3626 108.923 71.6018 108.349 71.1486C108.108 70.6199 107.549 71.0353 107.218 71.181C106.126 71.6629 105.17 72.2959 103.961 72.5836C100.503 73.4072 97.4105 72.5692 94.3715 70.8897C93.7907 71.2385 92.7405 70.521 92.8179 69.8539C92.1687 69.6219 90.6312 68.5268 91.0053 67.7841C90.6924 67.7428 90.3507 67.6691 90.1637 67.4173C86.5457 62.5226 87.2218 55.7307 89.4714 50.4044L90.2284 49.9279C103.059 34.8912 119.707 50.5716 111.983 66.7717C111.663 68.1132 111.055 69.0537 110.16 69.5932L110.162 69.595Z" fill="#8F2C28"/>
<path d="M57.6197 139.463C56.3034 138.906 55.3989 135.953 55.0932 134.614C54.0071 129.85 54.7462 127.937 55.4906 123.486C55.5644 123.047 55.2443 122.592 55.3306 122.06C55.7694 119.372 58.3498 117.539 59.4971 115.333C59.9934 114.38 60.6335 114.873 60.7396 115.774C61.0346 118.264 59.5061 118.726 58.3372 120.382C54.6383 125.626 55.1184 133.608 60.0725 137.915C61.146 138.848 63.0881 139.177 62.2789 140.753C62.5361 140.765 62.7968 140.744 63.0557 140.754C64.6256 140.823 70.1551 139.156 71.8562 138.557C73.3344 138.037 75.4383 135.824 76.7006 135.376C78.2129 134.838 76.519 136.381 76.2565 136.615C75.967 137.448 75.5534 137.832 74.9132 138.37C72.892 140.073 64.1742 145.469 61.8168 145.317C61.5021 145.297 61.1856 145.146 60.986 144.896C60.5634 145.626 59.8729 145.453 58.9145 144.378C58.3588 143.579 58.0082 143.256 57.4381 142.765C57.3176 142.661 56.2639 140.758 56.6991 140.481L58.6537 139.715C58.6969 139.188 57.8877 139.573 57.6197 139.46V139.463Z" fill="black"/>
<path d="M58.9105 111.004L58.7828 111.518C57.2921 111.396 55.3122 111.477 53.8809 111.243C52.8073 111.067 51.1638 110.124 49.9086 109.779C46.929 108.957 44.0572 108.652 40.9948 109.258C39.9878 109.457 38.837 110.108 38.0781 110.225C37.1431 110.371 38.1267 109.089 38.4755 108.808C39.9033 107.655 46.5046 106.546 48.4287 106.578C51.7482 106.634 56.0711 109.445 58.9123 111.004H58.9105Z" fill="#404040"/>
<path d="M58.1347 150.071C56.1027 155.59 52.9918 160.983 50.406 166.28C49.7982 167.527 48.1205 172.179 47.1926 172.653C46.8599 172.824 46.5434 172.776 46.2287 172.842C46.0165 171.578 46.5362 170.677 46.9606 169.562C49.4385 163.029 53.7291 156.475 56.8292 150.188L58.1347 150.071Z" fill="#717171"/>
<path d="M82.7271 48.633C83.5975 48.0018 86.0862 47.1656 86.1995 48.7517C82.9087 54.9016 82.8422 62.6411 87.0519 68.4008L90.945 72.2849C91.1716 72.3587 87.1256 72.4863 86.9026 72.5852C86.0898 72.9808 84.1477 68.1436 84.5397 67.2661C84.2125 66.5738 83.7809 65.9696 83.245 65.4553C82.283 65.2503 81.0674 62.6447 80.9253 61.6647C80.8588 61.1989 80.9325 60.7476 81.0386 60.2962C82.0708 57.3202 83.1911 54.0312 80.5261 51.5227L80.3984 50.9653C80.1863 50.7801 80.0514 50.2802 79.6216 50.1884C79.2548 49.4817 79.6216 48.9513 80.3984 49.1527C80.9703 48.5916 82.1427 47.9119 82.7271 48.6348V48.633Z" fill="#BC584C"/>
<path d="M42.0871 147.744C42.364 147.778 43.0132 148.458 43.7307 147.99L43.9051 148.517L45.1908 148.005C45.2826 148.102 44.9984 150.4 44.9229 150.663C44.8546 150.902 44.468 150.857 44.3421 151.171C43.1481 154.124 41.5135 157.084 40.404 159.905C40.1235 160.619 39.4096 164.28 38.8521 164.3C38.3702 163.971 38.4511 163.676 38.4853 163.176C38.6543 160.7 40.2475 155.957 41.0513 153.437C41.438 152.223 41.9756 151.038 42.3461 149.817C40.8877 149.181 39.4042 148.688 37.8937 148.177C37.6239 148.086 36.9586 148.08 37.1726 147.618C37.6024 146.692 39.7099 147.951 40.4238 147.987C40.956 148.014 41.4973 147.67 42.0889 147.744H42.0871Z" fill="black"/>
<path d="M50.8872 96.248L55.0267 97.7981L44.5485 98.3214C41.1571 98.681 39.2132 98.5444 37.2118 101.596C36.5374 102.625 35.3344 106.243 34.9766 106.608C34.5666 107.025 33.1658 106.881 32.5112 106.859L30.6465 107.045C33.0093 98.53 43.5109 96.5555 50.4341 96.4387L50.889 96.2498L50.8872 96.248Z" fill="#404040"/>
<path d="M50.8875 96.249C51.0349 97.0654 50.4829 96.6878 49.9991 96.7705C45.8399 97.4862 41.3479 97.5851 37.6076 99.662C34.779 101.234 32.1338 103.793 30.9578 106.857C31.4721 106.871 31.9936 106.842 32.5097 106.857C31.5458 107.335 30.7168 106.902 29.9238 107.892C30.4561 104.553 34.0543 99.6531 36.9908 98.0113C40.9433 95.8031 46.5142 96.1034 50.8857 96.2472L50.8875 96.249Z" fill="#717171"/>
<path d="M55.0278 96.2459C51.1814 96.2765 49.1818 92.7502 48.2988 89.5206L52.4473 88.3428L55.0278 96.2441V96.2459Z" fill="black"/>
<path d="M92.7802 92.3181C92.0807 92.7442 91.3902 91.0323 90.7536 90.4192C90.207 89.8941 87.7308 88.5454 87.6643 88.3152C87.4755 87.6697 88.4645 86.6645 88.9302 86.2797C92.4907 83.3432 94.8662 86.7184 93.6739 90.5037C93.5804 90.7986 92.8989 92.2443 92.7802 92.3181Z" fill="black"/>
<path d="M103.691 136.876C104.563 136.768 104.322 136.841 104.542 137.438C105.311 139.541 105.822 142.112 106.47 144.318C106.728 145.2 107.313 146.023 107.496 146.656C108.009 148.427 108.212 150.585 108.608 152.4C107.734 152.293 107.025 153.146 106.536 152.142C106.065 151.17 105.799 149.188 105.583 148.05C104.894 144.43 104.66 140.398 103.689 136.874L103.691 136.876Z" fill="#DD554B"/>
<path d="M29.4055 145.413C29.8011 148.212 29.58 151.75 29.5008 154.37L28.2547 153.948C27.8986 153.84 27.8968 153.211 27.8519 153.176C27.9903 152.286 27.334 152.61 27.334 151.625C27.334 149.544 28.2565 146.814 28.3805 144.52C28.5532 141.303 28.1414 137.83 28.1108 134.547C28.1971 133.491 28.2834 132.456 28.3697 131.441C28.2241 130.877 28.1306 129.65 28.6287 129.372C29.5656 131.382 28.7024 133.846 28.6305 135.973C28.5064 139.665 28.9218 142.008 29.4037 145.415L29.4055 145.413Z" fill="black"/>
<path d="M83.2432 65.4539C83.9787 65.4539 84.3437 66.5724 84.5379 67.2647C83.7575 67.601 82.8081 66.0689 83.2432 65.4539C83.1857 65.9017 83.0131 66.1588 82.7253 66.2307C81.632 64.5278 79.841 62.9778 80.1988 60.73C80.5747 58.3599 81.9179 56.862 81.3173 54.055C81.0422 52.7693 79.6378 52.1974 80.3967 50.9639C80.4596 51.0196 80.7959 50.9801 81.0242 51.2318C82.3279 52.6668 82.8494 54.2996 82.693 56.2362C82.5653 57.8205 81.3551 60.115 81.4126 61.4403C81.4432 62.138 82.8206 64.6159 83.2414 65.4557L83.2432 65.4539Z" fill="#EED3CA"/>
<path d="M91.491 93.6271C87.8999 95.7059 86.0064 92.8305 87.1105 89.3726C88.0816 88.6641 92.1132 92.113 91.491 93.6271Z" fill="#DD554B"/>
<path d="M112.232 75.0293C111.259 75.763 110.175 76.6441 108.868 76.5811C108.846 76.4463 108.479 76.1586 108.427 75.8691C108.073 73.9126 107.659 73.1843 109.645 72.1809C109.627 71.4329 109.945 71.3681 110.421 71.922C111.891 72.8085 112.119 73.2688 112.234 75.0275L112.232 75.0293Z" fill="#371D0E"/>
<path d="M72.1131 48.8921C71.9422 51.1255 69.2036 50.4368 69.2629 53.0334C68.5418 53.2204 68.5976 52.3896 68.4681 51.9059L69.4122 51.228L69.2827 50.5608L68.6245 50.1904C68.0365 50.1796 66.6357 51.5714 66.4199 49.9279C68.3081 49.4909 70.2285 49.2787 72.1149 48.8921H72.1131Z" fill="#DD554B"/>
<path d="M84.2781 109.704C84.2673 109.874 84.2853 110.049 84.2781 110.221C83.9022 110.146 83.4041 110.358 82.9834 110.096C82.8647 110.022 81.4261 107.911 81.4297 107.771C81.4675 106.069 84.0587 105.222 83.9922 107.517C83.9868 107.717 82.9078 110.412 84.2781 109.704Z" fill="black"/>
<path d="M113.526 69.3357C114.161 69.9129 112.728 70.7041 112.231 70.8875C111.701 71.1195 111.07 71.5978 110.419 71.9233C110.151 72.0582 109.834 72.0851 109.642 72.1822V71.9233C109.419 71.7938 109.246 71.7938 109.124 71.9233C108.68 71.9503 108.011 72.3333 107.833 71.792C107.552 70.9379 108.112 71.2472 108.347 71.1483C108.709 70.9972 109.095 70.7401 109.383 70.6304C109.52 70.2276 109.71 69.9183 110.16 69.8536C110.647 69.1163 112.943 68.7189 113.524 69.3357H113.526Z" fill="black"/>
<path d="M71.0751 64.418C70.4097 64.5367 70.6111 64.3119 70.4421 63.9001C70.0807 63.0172 69.9854 62.0012 70.0429 61.0571L71.0751 64.418Z" fill="#AD8F7E"/>
<path d="M28.6271 128.595C28.5929 128.843 28.6541 129.12 28.6271 129.372C28.5588 130.019 28.4023 130.598 28.3681 131.442C28.2944 131.668 28.2081 131.665 28.1092 131.442C28.129 130.5 28.0571 129.536 28.1092 128.595H28.6271Z" fill="#AD8F7E"/>
<path d="M109.645 71.9236C109.472 71.9308 109.298 71.9129 109.127 71.9236L109.258 71.6665L109.643 71.9236H109.645Z" fill="#371D0E"/>
<path d="M117.666 70.369C118.103 70.1065 118.28 70.2234 118.485 70.5992C119.004 70.5776 119.508 70.5003 119.995 70.369C120.001 70.0364 120.26 70.0364 120.772 70.369C121.441 69.6695 123.198 71.1692 122.326 71.6638C122.531 72.1565 122.239 72.1439 121.808 71.9227C121.085 72.1079 120.508 72.4118 119.736 72.4406C117.656 72.5179 116.298 69.826 113.66 70.3726C113.088 70.4913 112.937 70.984 112.581 71.0901C112.428 71.1351 112.248 70.8797 112.23 70.8869L113.525 69.3351C114.829 69.2991 116.208 69.6444 117.666 70.3708V70.369Z" fill="#D52B1E"/>
<path d="M105.76 110.997C105.796 110.959 106.187 110.919 106.406 110.747C106.55 110.633 108.028 109.274 107.569 110.346C107.301 110.973 105.316 112.361 104.725 113.066C104.852 112.529 105.422 111.347 105.76 110.997Z" fill="#EED3CA"/>
<path d="M103.952 114.88L104.47 115.139C104.371 115.211 103.618 116.893 102.92 116.95C102.938 116.332 103.164 115.605 103.429 115.053C103.539 114.823 103.94 114.904 103.954 114.88H103.952Z" fill="#EED3CA"/>
<path d="M105.762 35.9542L104.922 36.1268C101.036 34.1686 96.6956 33.764 92.7359 35.6665C90.6158 35.2169 88.4831 34.8861 86.3378 34.6739C84.3958 35.1882 82.4573 35.7007 80.5224 36.2168C75.518 34.5084 70.4722 34.9436 66.1061 38.2074C61.74 37.0745 57.5682 38.6228 53.9699 41.1151L53.1571 41.1331C49.4564 39.6837 45.013 41.4316 42.607 44.4094C40.0445 43.9491 37.2483 44.6702 35.0149 46.0584L34.3226 46.0458C33.704 42.8342 34.132 39.1083 34.9718 35.9542C36.3995 30.5919 42.0298 22.1223 46.4893 18.8747C47.874 17.8659 50.1146 16.4489 51.6664 15.7692C51.6718 15.5175 51.7491 15.2963 51.9146 15.1075C52.3174 14.6453 57.2085 13.6779 58.1796 13.5089C64.4877 12.4048 71.4792 11.8203 77.87 12.2124C82.8961 12.5216 85.739 14.2569 89.6843 17.2096C89.0118 16.4867 88.0605 15.1452 89.2851 14.5734C89.571 14.4403 94.4334 16.7115 95.052 17.0226C99.0746 19.0492 100.447 19.7703 102.403 23.9583C104.092 27.5727 104.993 31.1026 105.982 35.003L105.764 35.9524L105.762 35.9542Z" fill="#5A321B"/>
<path d="M54.7714 48.1166C54.6815 46.7337 53.8723 43.3009 54.3866 42.1681C54.5287 41.857 56.0122 40.7924 56.4042 40.5623C59.0116 39.0446 62.6602 38.3738 65.6147 39.0841L66.1524 45.0021C64.8649 45.2466 64.4045 45.7249 63.1296 46.027C61.7503 46.5323 59.5169 46.7229 58.1359 47.0808C57.0947 47.3271 55.8648 47.8253 54.7714 48.1166Z" fill="#8F6852"/>
<path d="M53.219 41.9051C53.9797 43.3526 52.9475 46.4923 54.2548 48.1161C53.5697 48.3049 52.7497 48.6574 51.9261 48.8929L48.8206 49.9287C47.2831 50.407 45.6683 50.6858 44.1614 51.2234C44.0751 49.6338 43.9295 48.0352 43.7227 46.4276C44.3394 43.5882 50.5397 40.7812 53.2208 41.9069L53.219 41.9051Z" fill="#8F6852"/>
<path d="M42.617 45.1475C43.3129 46.908 42.3131 49.9506 43.642 51.4809C41.396 52.2811 37.8733 53.5129 35.8773 54.5864C34.9368 54.421 34.6167 51.979 34.5934 51.0295C34.5286 48.3124 36.4851 46.7246 38.8228 45.7535C39.7129 45.3849 41.9912 44.3114 42.617 45.1475Z" fill="#8F6852"/>
<path d="M42.0864 45.5294C39.3315 45.6211 34.9474 47.6315 35.0967 50.8252C35.1488 51.9203 35.566 53.5063 35.8735 54.587C35.7458 54.6553 34.7227 55.2703 34.5788 55.3638L34.1616 55.1786C33.6815 53.4254 33.3021 51.6757 33.0251 49.9296C31.5866 52.2871 30.6533 54.6068 30.9032 57.4911L30.4357 58.2104C30.3764 58.2536 30.3422 59.1239 29.3999 58.9873C29.3999 58.9531 29.1446 58.6924 29.1302 58.3615C28.9378 54.0835 28.0962 52.8284 31.3978 49.7282C31.7106 49.4351 32.2213 49.4801 31.7286 48.8957C31.8977 48.9604 32.2753 48.8489 32.5055 48.8957C32.7914 48.9532 33.2733 49.4297 33.7642 49.115C34.0717 46.7342 40.1317 43.8121 41.84 44.8784C42.0936 45.0367 42.009 45.3514 42.081 45.5312L42.0864 45.5294Z" fill="#AD8F7E"/>
<path d="M53.2202 41.9051C50.5247 41.9357 45.8134 43.5019 44.4036 45.9043C43.7166 47.0732 45.3027 49.8784 44.1608 51.2216C44.114 51.2378 44.0331 51.4338 43.9018 51.4806C43.7814 50.1679 43.4936 48.5225 43.1052 47.2782C43.0297 47.0336 42.5514 47.1595 42.5945 46.7171C42.8499 44.1259 46.4589 41.995 48.766 41.4645C50.0769 41.1642 52.5063 40.5528 53.2184 41.9051H53.2202Z" fill="#AD8F7E"/>
<path d="M34.0648 55.8793C32.9823 56.5591 31.4376 57.4977 30.4414 58.208C30.1897 55.6851 30.5997 51.3406 33.0291 49.9272C33.306 51.7542 33.7142 53.5794 34.2483 55.401L34.0648 55.8793Z" fill="#8F6852"/>
<path d="M34.583 55.3624C34.5452 55.3876 34.6783 55.4937 34.0651 55.8803C33.4087 53.9652 33.112 51.9566 33.0293 49.9282C33.139 49.8653 33.5076 49.6171 33.5436 49.6693C33.4141 51.6239 33.7971 53.5732 34.5812 55.3624H34.583Z" fill="#EED3CA"/>
<path d="M51.9239 48.8921L48.8184 49.9279C49.8146 49.6186 50.8468 49.1996 51.9239 48.8921Z" fill="#AD8F7E"/>
<path d="M128.282 68.8181C127.928 69.4097 127.025 68.9475 127.246 68.3002C126.39 68.1851 125.872 67.8398 125.692 67.2644C125.142 67.6366 124.518 67.1061 124.916 66.4876C124.883 66.4534 124.583 65.9553 124.398 65.7107C123.982 65.6802 123.551 65.5939 123.103 65.4518C120.69 60.7045 119.872 54.2939 123.362 49.4081C124.072 49.5771 124.748 49.106 125.387 47.9965L125.951 48.1152C125.617 47.4067 126.951 46.5291 127.505 47.0794C127.169 46.3871 128.1 45.9753 128.541 46.5615C129.14 45.1643 131.965 45.452 133.243 45.9609C141.955 49.4297 141.125 67.0558 131.997 69.2676C130.896 69.5337 128.863 69.9006 128.282 68.8163V68.8181Z" fill="#BFCEE2"/>
<path d="M127.762 69.5942C127.093 69.2364 127.589 68.5495 128.28 68.8174C139.125 70.9645 142.351 52.8402 134.475 47.2262C132.572 45.8704 130.727 45.8092 128.537 46.5627C127.834 46.872 127.458 45.9926 128.019 45.5269C135.019 42.6875 141.362 48.021 142.658 54.8273C144.343 63.6745 137.274 73.7373 127.76 69.5924L127.762 69.5942Z" fill="#F7F0EF"/>
<path d="M125.433 47.3407C126.046 47.3065 126.082 47.5888 125.951 48.1175C125.575 48.4394 124.162 50.4462 124.009 50.4408L123.361 49.4104C124.289 48.1103 124.35 48.2344 125.433 47.3407Z" fill="#EED3CA"/>
<path d="M123.104 69.3352C122.616 69.711 122.079 69.5096 121.55 69.3352C120.748 69.5564 119.757 68.4775 120.255 67.7834L121.291 67.5244C121.552 67.8661 122.676 68.9108 123.104 69.3352Z" fill="#EED3CA"/>
<path d="M125.691 67.2646C125.743 67.3041 126.513 67.412 126.934 67.6907C127.32 67.9479 127.216 68.2806 127.245 68.3003C127.914 68.6582 127.418 69.3451 126.727 69.0772C125.605 68.392 125.905 68.4802 125.173 67.7825C124.614 67.2951 125.067 66.8905 125.691 67.2646Z" fill="#D52B1E"/>
<path d="M127.503 47.0816C127.39 47.1409 126.021 48.0562 125.95 48.1174C125.579 48.0041 125.435 47.7182 125.432 47.3405C125.948 46.9144 126.009 46.7327 126.726 46.3048C127.381 45.9038 127.879 46.4109 127.503 47.0816Z" fill="#D52B1E"/>
<path d="M128.539 46.5626C128.485 46.5806 127.658 46.9996 127.503 47.0805L126.727 46.3037C127.171 46.0375 127.471 45.7498 128.021 45.5269L128.539 46.5626Z" fill="#EED3CA"/>
<path d="M125.689 67.2641L125.171 67.782C125.058 67.6741 124.286 67.5878 124.141 67.1347L124.912 66.4873C124.975 66.5538 125.64 67.2264 125.689 67.2641Z" fill="#EED3CA"/>
<path d="M124.396 65.712L123.749 66.4835C123.265 66.2857 123.262 65.6761 123.102 65.4531L123.749 64.6816C124.128 64.9118 124.184 65.4333 124.396 65.712Z" fill="#EED3CA"/>
<path d="M128.28 68.8182L127.762 69.595C127.291 69.39 127.189 69.3594 126.727 69.0771L127.244 68.3003C127.291 68.3327 128.223 68.8074 128.28 68.8182Z" fill="#EED3CA"/>
<path d="M122.328 45.5296C122.582 45.5403 122.929 45.8478 123.105 46.0474C122.776 46.3298 121.857 47.2594 121.551 47.5993L120.774 47.0814C119.949 46.4017 121.623 44.5639 122.328 45.5296Z" fill="#EED3CA"/>
<path d="M111.715 45.5297C111.606 46.2598 110.559 46.2921 110.421 45.5297C110.072 45.6124 109.64 45.4398 109.126 45.0118C108.772 45.375 108.615 45.2132 108.867 44.7528C108.385 44.3644 107.781 44.1055 107.054 43.976C106.653 44.3231 106.501 44.163 106.795 43.7171C107 41.8901 106.263 39.7754 106.278 38.0239C111.8 38.0275 110.795 41.4549 111.714 45.5279L111.715 45.5297Z" fill="#8F6852"/>
<path d="M105.761 43.458C105.99 43.5156 106.747 43.6954 106.797 43.717C106.842 43.7349 106.918 43.9148 107.056 43.9759C107.682 43.9525 108.448 44.3553 108.869 44.7527C108.934 44.8462 109.058 44.9164 109.128 45.0117C109.55 45.2203 110.333 45.6069 110.164 46.0475C110.888 45.6177 111.744 46.6139 111.717 47.3422C110.8 46.346 112.251 45.8119 112.753 46.8243C112.87 46.7865 112.945 46.5977 113.012 46.5653H116.117C116.195 46.4179 116.281 46.4215 116.376 46.5653H116.894C117.123 47.4429 115.197 51.0393 114.585 51.2875C114.334 51.3882 114.121 51.2317 114.026 51.0015C113.348 49.7284 112.595 48.4661 111.719 47.3404C114.053 50.2697 115.211 52.985 115.452 56.9231C115.528 58.1531 115.368 63.6052 114.736 64.1465C114.609 64.2562 114.461 64.3407 114.307 64.418C114.179 64.8011 114.179 64.8874 114.307 64.677C114.814 63.9343 115.4 64.4882 116.071 66.3421C116.772 67.1837 117.133 68.0091 117.153 68.8183L119.876 69.7012C120.234 69.926 120.501 70.3252 120 70.3701C119.741 70.5248 119.773 71.1739 118.835 71.1721C117.95 71.1721 118.038 70.6902 117.669 70.3701C116.186 69.6706 114.807 69.3254 113.528 69.3344C112.586 69.6131 111.162 69.8307 110.164 69.8523C109.937 69.7785 109.941 69.6922 110.164 69.5933C112.962 63.902 114.738 57.5183 111.938 51.3864C108.851 44.6233 101.37 42.5553 94.9776 46.2596C93.183 47.3008 91.9728 48.8976 90.2321 49.9262C89.3042 49.687 90.34 47.9841 91.0089 47.8565C90.9783 47.1749 91.8163 45.9575 92.5626 46.0457C92.6111 45.2436 93.2657 44.6305 94.1162 45.0099C94.8895 44.5423 96.4287 44.3841 96.9628 43.458L97.4627 42.906C98.7592 42.6794 101.149 42.4133 102.431 42.4996C103.442 42.5679 105.281 42.7621 105.763 43.458H105.761Z" fill="#BC584C"/>
<path d="M111.716 45.5292C112.207 45.6569 113.016 46.2251 112.752 46.8239C112.506 46.9031 112.02 46.761 111.714 46.8239C111.709 46.9948 111.714 47.1674 111.714 47.34C110.866 46.77 110.871 46.7089 110.161 46.0453C109.688 45.5328 109.72 45.4159 110.42 45.5274C110.779 45.6138 111.367 45.4375 111.714 45.5274L111.716 45.5292Z" fill="#D52B1E"/>
<path d="M121.034 45.0118C121.228 44.9363 122.527 44.7043 122.586 44.7546L122.329 45.5297C121.343 45.4847 121.101 46.6931 120.775 47.0815C115.638 53.226 115.429 61.3342 120.257 67.7826C120.782 68.4839 120.984 68.6943 121.552 69.3345C122.217 70.0879 123.03 71.0482 123.624 71.6632H123.106C122.989 72.3663 122.572 72.2943 122.329 71.6632C122.435 71.0122 121.369 70.827 120.775 70.3684C119.844 69.9872 119.153 69.4711 118.704 68.8166C116.886 67.8815 115.735 65.4449 115.122 63.5011C115.505 59.8507 115.663 56.5024 114.879 52.87C114.965 51.5537 117.427 46.3011 118.52 46.2382C118.675 46.2292 118.821 46.2256 118.964 46.3029C119.142 46.1537 120.865 45.0747 121.036 45.0082L121.034 45.0118Z" fill="#8F2C28"/>
<path d="M122.326 71.6647C122.544 71.627 122.857 71.6647 123.103 71.6647V72.9594L121.809 71.9237C121.907 71.8985 122.068 71.7115 122.326 71.6647Z" fill="#AD8F7E"/>
<path d="M125.693 73.2163C125.312 72.9483 125.058 73.0221 124.398 72.4395L125.693 73.2163Z" fill="#AD8F7E"/>
<path d="M116.374 46.5636H116.115L116.245 46.3101L116.374 46.5636Z" fill="#EED3CA"/>
<path d="M61.2417 145.413C60.5727 145.557 60.5152 145.395 60.9827 144.895C64.8543 144.708 73.3023 139.252 76.2532 136.614C75.2642 143.773 68.3446 150.556 61.2417 145.413Z" fill="#8F2C28"/>
<path d="M58.9121 144.379C59.9281 144.487 59.6296 144.962 60.9836 144.897C61.0322 145.053 61.2426 145.292 61.2426 145.415C61.2426 145.67 61.0664 146.645 60.5988 146.447C59.858 146.132 59.3167 144.96 58.9121 144.379Z" fill="#EED3CA"/>
<path d="M28.1135 134.546C28.1045 133.516 28.0919 132.471 28.1135 131.441H28.3724C28.3311 132.435 28.6188 133.761 28.1135 134.546Z" fill="#717171"/>
<path d="M88.9361 46.5644L89.0116 47.2009C84.0126 52.8222 83.8543 62.1837 88.3733 68.2257L88.4182 69.0762C88.5171 69.8818 87.5101 69.9718 87.1235 69.3352C83.0631 64.4225 82.3313 57.4436 84.4172 51.4897C84.8002 50.3982 85.3756 49.4271 85.8288 48.3752C85.6993 48.2619 83.1584 48.5532 82.7233 48.6323L82.4355 48.0551C83.1027 47.7907 83.7159 47.4653 84.2769 47.0787C85.5626 46.8287 86.3449 47.1632 87.6414 46.3018C88.2869 45.935 88.7185 46.0213 88.9361 46.5608V46.5644Z" fill="#EED3CA"/>
<path d="M94.1148 45.0106C93.9548 45.1077 92.6349 45.9816 92.5612 46.0463C92.1062 46.4168 91.9624 46.2711 92.3022 45.7874L91.9732 45.4853C91.3977 45.8521 90.9895 45.8665 90.7486 45.5284C90.1821 45.6615 89.8369 45.5752 89.7128 45.2695C89.6552 44.8253 90.3494 44.5628 89.5887 44.4927C87.3697 44.2877 84.4962 44.4675 82.207 44.4927C86.0804 42.9012 90.486 42.6369 94.113 45.0106H94.1148Z" fill="#D52B1E"/>
<path d="M84.2769 47.0809C84.4063 47.9279 82.975 47.7049 82.7232 48.6328C82.0579 48.755 81.2055 49.2891 80.3945 49.1507C80.5905 48.8881 80.765 48.1526 81.1714 47.8559C81.8673 47.7714 83.385 47.2535 84.2769 47.0791V47.0809Z" fill="#EED3CA"/>
<path d="M89.7141 45.27C90.0504 45.2592 90.5755 45.1549 90.7499 45.5289C91.0646 46.2536 89.4606 47.1113 88.9373 46.5647C88.5219 46.5503 87.8638 46.7247 87.6426 46.3057C88.477 45.7519 88.0562 45.3239 89.7141 45.27Z" fill="#EED3CA"/>
<path d="M102.138 46.5634C102.625 46.425 103.552 46.4753 103.433 47.0813C103.76 46.3782 104.634 46.8655 104.469 47.5992C104.979 46.9932 106.377 48.1782 106.022 48.8939L106.315 48.8688C106.299 49.2949 106.493 49.651 106.799 49.9279C107.711 50.2768 108.238 51.8142 108.094 52.7745L108.597 53.028C108.518 53.7887 108.783 53.9631 109.389 53.5513L110.079 54.1663C110.502 56.6245 111.088 60.1705 109.389 62.091C108.923 61.9526 108.491 62.0389 108.094 62.35C108.211 63.4091 107.972 65.3134 106.799 65.4555C107.101 66.0399 106.671 66.77 106.022 66.4913C106.218 67.2591 105.182 68.2733 104.469 67.786C104.977 68.3093 104.273 68.98 103.692 68.5628C103.647 69.2318 103.129 69.3181 102.138 68.8218C101.983 69.9978 99.3581 70.3826 99.2915 69.0807C98.9517 69.0501 98.5938 69.1185 98.2557 69.0807C97.808 69.6615 97.3746 69.4691 97.22 68.8218C96.2579 68.6312 95.74 68.2014 95.6663 67.5271C95.1053 68.0611 94.5209 67.4066 94.8895 66.7502C94.6216 66.4877 94.3662 66.2162 94.1126 65.9734C93.6811 66.0237 93.1578 66.0399 92.8179 65.7145C89.6711 60.692 89.547 54.8514 93.0769 49.9297C93.4491 49.588 93.6469 49.6887 93.958 49.9801C94.4183 48.9892 94.9884 48.4552 95.6663 48.376C95.8371 47.8294 96.355 47.4841 97.22 47.3403C97.2451 47.1371 97.3117 46.9069 97.4969 46.8404C98.5399 46.4573 101.698 45.4827 102.138 46.5652V46.5634Z" fill="#BFCEE2"/>
<path d="M105.763 46.3039C106.252 46.9153 105.121 48.014 104.468 47.5986C104.341 47.5123 103.645 47.1778 103.432 47.0807C103.105 46.6078 102.674 46.4352 102.138 46.5629C100.233 46.2751 98.2338 47.5141 97.2196 47.3397C96.6675 47.872 96.2486 47.5393 96.4428 46.8218C98.5341 45.5001 98.0486 45.8759 100.442 45.5181C100.838 45.4587 101.124 45.0541 101.499 45.0164C103.053 44.8563 104.528 45.7267 105.759 46.3057L105.763 46.3039Z" fill="#EED3CA"/>
<path d="M104.725 70.3697C102.423 71.267 100.943 71.2293 98.5137 70.6269L99.2887 69.0768C99.5674 69.102 99.8857 69.3717 100.438 69.3483C101.114 69.3196 101.567 68.9779 102.137 68.8179C103.175 68.9366 104.397 69.3286 104.725 70.3697Z" fill="#EED3CA"/>
<path d="M109.645 49.669C110.056 50.1869 110.315 50.703 110.421 51.2209C111.143 52.1901 110.646 52.5048 110.68 52.7727L110.089 52.8339C109.506 51.6956 109.013 51.3305 108.611 51.7387C108.875 52.5605 108.702 52.904 108.093 52.7745C107.507 51.9168 107.055 50.9062 106.798 49.9279C105.586 48.8742 107.039 47.2198 108.352 47.8582C109.087 48.4822 109.582 48.5649 109.646 49.669H109.645Z" fill="#D52B1E"/>
<path d="M106.022 66.4891C106.635 66.4549 106.671 66.7373 106.54 67.2659L107.058 68.0428C107.646 67.5626 108.088 68.2855 107.576 68.8196C106.953 69.2781 106.874 69.2638 106.281 69.5964C105.45 69.6648 104.066 68.6182 104.468 67.7856C104.761 67.5375 105.95 66.5682 106.022 66.4909V66.4891Z" fill="#D52B1E"/>
<path d="M107.056 47.0809C107.47 47.6851 107.125 48.2893 106.02 48.8917C105.945 48.8197 104.553 47.6563 104.467 47.597L105.762 46.3022C106.49 46.6439 106.511 46.7284 107.056 47.0791V47.0809Z" fill="#D52B1E"/>
<path d="M95.1498 47.8582C95.7289 47.3547 96.0148 47.7683 95.6677 48.3761C95.5526 48.4642 94.2633 50.6383 93.9828 50.7048L93.0801 49.928C93.9342 48.7376 94.2273 48.6674 95.1516 47.8582H95.1498Z" fill="#EED3CA"/>
<path d="M92.8203 69.8539C92.7052 69.8467 92.2862 70.156 92.0435 70.1129C91.2792 70.4635 89.6536 69.0232 90.2309 68.3021L91.0077 67.7842C91.4195 68.3524 92.7628 68.8937 92.8203 69.8539Z" fill="#EED3CA"/>
<path d="M106.279 69.5953C105.91 69.8021 105.652 69.7823 105.502 69.8543C105.179 70.2337 104.95 69.9586 104.725 69.5953C104.069 69.8327 103.289 69.2644 103.69 68.5595C103.74 68.538 104.215 67.9967 104.466 67.7827L106.279 69.5935V69.5953Z" fill="#EED3CA"/>
<path d="M110.163 66.2304C109.444 67.2104 109.21 67.1942 108.609 67.7822C108.115 68.3451 107.719 67.8793 108.091 67.2644C107.424 66.8616 108.683 65.1551 109.386 65.4536C110.001 65.0004 110.55 65.5884 110.163 66.2304Z" fill="#D52B1E"/>
<path d="M95.6674 67.5245C96.018 67.8283 97.3865 68.0711 97.2211 68.8192C97.5375 69.5025 97.0466 69.6949 96.4442 69.3371C95.68 68.9271 95.5793 68.9864 94.8906 68.3013C94.4374 67.6863 95.0254 67.1378 95.6674 67.5245Z" fill="#D52B1E"/>
<path d="M108.352 47.8579L106.647 48.6167C106.318 49.1166 106.69 49.5194 106.798 49.9276C106.207 49.8701 106.129 48.9962 106.021 48.8919L107.057 47.0811C107.51 47.3724 107.575 47.1997 108.352 47.8579Z" fill="#EED3CA"/>
<path d="M96.4451 46.8218C96.6789 46.9135 97.0367 47.3073 97.2219 47.3397C97.3316 48.2406 95.8769 48.2154 95.6683 48.3754L95.1504 47.8576C95.7402 47.3415 95.6863 47.3019 96.4451 46.8218Z" fill="#D52B1E"/>
<path d="M110.94 64.9349C110.638 65.5013 110.566 65.6793 110.163 66.2296L109.386 65.4528C108.793 64.9564 109.455 63.9261 110.163 64.158L110.94 64.9349Z" fill="#EED3CA"/>
<path d="M108.093 67.2642L108.611 67.7821C108.194 68.1921 108.424 68.1921 107.575 68.8179L107.058 68.0411C106.646 67.3829 107.523 66.8057 108.093 67.2642Z" fill="#EED3CA"/>
<path d="M95.6701 67.5229L94.8933 68.2998C94.6847 68.0912 94.2585 67.9851 94.1309 67.6236L94.8933 66.7461C95.1271 66.9745 95.4813 67.3593 95.6701 67.5229Z" fill="#EED3CA"/>
<path d="M94.115 65.971L93.8525 67.005H93.3436C93.2825 66.9582 92.9498 65.9171 92.8203 65.7121L93.7212 65.1924C94.0287 65.2571 94.0503 65.9117 94.1132 65.971H94.115Z" fill="#EED3CA"/>
<path d="M98.254 69.0766L97.612 70.08C97.1643 69.9578 96.7885 69.5208 96.4414 69.3356C96.677 69.2349 97.0168 68.8518 97.2182 68.8177C97.6732 68.7422 97.9897 69.0461 98.254 69.0766Z" fill="#EED3CA"/>
<path d="M110.679 50.7041L110.42 51.222C110.262 51.0098 109.687 50.821 109.503 50.4344C109.3 50.0064 109.649 49.7744 109.643 49.6701C110.532 49.6449 110.429 50.3211 110.679 50.7059V50.7041Z" fill="#EED3CA"/>
<path d="M105.504 69.8542C105.463 69.8739 105.778 70.0232 104.987 70.372C104.62 70.1293 104.235 69.8074 104.728 69.5952C104.895 69.6959 105.301 69.6761 105.504 69.8542Z" fill="#404040"/>
<path d="M103.692 68.5596C104.049 68.957 104.245 69.304 104.728 69.5953L104.987 70.3722C104.917 70.4027 104.804 70.3416 104.728 70.3722C103.982 69.6925 102.705 69.572 102.141 68.8203C102.572 68.6998 103.52 68.6387 103.694 68.5614L103.692 68.5596Z" fill="#DD554B"/>
<path d="M88.4217 69.0762C88.8119 68.0135 91.4966 70.2253 90.4932 70.887C90.13 70.8133 89.6067 70.9266 89.1985 70.887C89.096 71.1981 88.7507 71.1118 88.1627 70.6281C87.866 70.3709 87.5208 69.9448 87.127 69.5923V69.3334C87.5369 69.3999 88.098 69.06 88.4217 69.0744V69.0762Z" fill="#EED3CA"/>
<path d="M85.7012 70.3691C85.8684 70.4555 85.8684 70.5418 85.7012 70.6281V70.3691Z" fill="#EED3CA"/>
<path d="M90.7494 45.529C90.9814 45.4229 92.4919 44.9481 92.5602 45.0129C92.6394 45.3204 92.3463 45.5793 92.3031 45.7879C91.8446 46.4856 91.3267 47.0035 90.7494 47.3398C85.6335 53.4555 85.2397 62.0114 90.2315 68.2998C91.0911 69.3823 91.3392 69.3931 92.0441 70.1106C92.0981 70.1663 92.0999 70.5673 92.2905 70.7597C92.7383 71.2147 93.4288 71.2794 93.3371 71.9196C92.2492 71.9124 91.5479 71.1032 90.4905 70.8856C90.5391 70.3983 88.8775 69.0964 88.419 69.0748C83.9432 64.1117 83.4775 55.1009 86.7574 49.4293C87.1854 48.6884 88.3093 47.061 88.9368 46.5611C89.0178 46.4964 90.5822 45.6009 90.7494 45.5254V45.529Z" fill="#8F2C28"/>
<path d="M117.669 70.3696C116.079 70.6393 114.937 69.7905 113.527 69.3338C113.558 69.3248 113.66 68.949 113.962 68.859C115.09 68.5228 116.856 69.6611 117.669 70.3696Z" fill="#EED3CA"/>
<path d="M118.704 68.8178C119.531 68.9617 120.132 69.8734 120.776 70.3697C120.569 70.4165 120.112 70.3014 119.999 70.3697V69.859C118.65 69.8428 118.044 69.7907 117.152 68.8178C117.641 68.8736 118.244 68.7369 118.706 68.8178H118.704Z" fill="#EED3CA"/>
<path d="M76.7717 8.26521C76.9407 8.2778 77.1223 8.24363 77.2895 8.26521C79.843 8.5835 81.9056 9.76133 84.2846 10.459C89.8465 12.0882 95.8813 13.5987 100.844 16.8049C105.451 19.781 106.811 25.5281 108.221 30.5199C108.721 32.2894 109.118 34.0966 109.431 35.9074C110.064 35.9488 110.431 36.2275 110.94 36.4702L110.681 36.9881C109.675 36.4756 107.768 36.954 106.798 36.7292C106.502 36.6609 106.129 36.1322 105.763 35.9524C104.561 32.6976 104.155 29.0616 102.781 25.8644C102.254 24.638 100.256 21.0793 99.4076 20.1802C97.8863 18.5708 92.8513 16.6593 90.6791 15.708C90.4525 15.6091 89.0211 14.2749 89.2171 15.6091C89.2944 16.1324 91.2419 17.9378 91.1412 18.8657C88.3576 17.179 84.878 14.0321 81.7473 13.2499C75.556 11.7052 57.5811 13.1779 51.6649 15.7656C50.9367 14.9672 49.5269 16.4723 48.8184 15.7656C54.6104 12.3831 62.2349 9.13195 69.007 8.7795C70.9562 8.6788 72.8929 8.81367 74.8224 9.05463L74.9752 8.29039C75.0598 8.20767 76.4444 8.23464 76.7717 8.26161V8.26521Z" fill="#835840"/>
<path d="M70.5596 36.9894C72.0575 36.0489 77.5313 36.6423 78.6839 37.9244C79.8564 39.2317 80.0847 41.7475 79.8923 43.3676C79.2791 43.2939 78.6695 43.3245 78.0671 43.4576C77.2615 43.5349 76.4182 43.3712 75.6108 43.4594C72.7121 43.7776 69.8403 44.3872 66.9488 44.7415C66.8966 43.3838 66.0443 40.1812 66.555 39.0609C66.9344 38.2265 69.6101 36.984 70.5632 36.9876L70.5596 36.9894Z" fill="#8F6852"/>
<path d="M105.762 42.1643C105.76 42.5959 105.762 43.0275 105.762 43.4591C102.265 42.5672 100.261 43.2721 96.9616 43.4591C95.9349 43.5166 94.8829 43.4177 93.8543 43.4591C93.5936 41.2886 93.2843 38.8125 93.3382 36.7301C94.356 35.5073 97.8571 36.0037 99.4594 36.3058C102.738 36.9261 103.75 37.7947 103.953 41.2706C104.174 42.1356 104.399 42.3765 105.248 41.8748L105.762 42.1643Z" fill="#8F6852"/>
<path d="M82.7269 36.4721C86.0302 35.4291 90.5545 35.5496 91.7144 39.4769C91.9787 40.3706 92.4301 42.6471 91.7863 43.201C88.3445 42.8701 84.8991 42.9133 81.4322 42.9438L81.166 37.1644C81.229 36.9126 82.4032 36.5098 82.7269 36.4721Z" fill="#8F6852"/>
<path d="M105.764 42.1645C102.832 44.1066 103.561 39.6578 102.868 38.4602C101.716 36.4642 95.4022 36.2807 93.3396 36.7303C93.3486 36.385 93.2731 36.0811 93.595 35.8258C94.6973 34.9501 98.7379 34.7612 100.137 34.9806C100.986 35.1137 103.884 36.2771 104.481 36.8472C105.686 37.9962 105.771 40.5857 105.764 42.1645Z" fill="#AD8F7E"/>
<path d="M91.786 43.1992C91.144 40.34 91.7698 37.4952 88.2651 36.7562C86.9632 36.481 83.944 36.3318 82.7266 36.472C85.2171 34.2189 91.0577 33.4079 92.5718 37.1086C93.0375 38.2451 93.3864 41.9602 93.0393 43.0301C92.7696 43.8627 92.1258 43.2333 91.7842 43.201L91.786 43.1992Z" fill="#AD8F7E"/>
<path d="M70.5605 36.989C70.8698 35.4929 73.319 36.169 74.2667 35.9496C74.4951 35.8975 74.2541 35.4084 75.0723 35.4102C75.6333 35.4102 79.8286 36.7948 80.0767 37.0483C80.9111 37.8953 81.616 42.594 80.9399 43.5687L78.0663 43.459C78.354 43.432 79.0481 42.9393 79.62 43.1982C78.9726 39.992 79.7818 37.8917 75.7988 37.3145C74.5382 37.1311 71.8427 36.9944 70.5605 36.989Z" fill="#AD8F7E"/>
<path d="M129.827 65.7129C129.561 65.9125 126.128 64.0909 126.766 63.0623L133.828 50.687C135.072 49.7034 136.114 52.692 135.927 53.5588L129.827 65.7147V65.7129Z" fill="#DFE6F0"/>
<path d="M131.903 49.1527L125.547 61.8158L124.658 62.348C125.721 58.4765 127.936 53.3156 130.502 50.2083C130.684 49.9889 131.617 48.8488 131.903 49.1527Z" fill="#DFE6F0"/>
<path d="M136.309 67.7824L138.761 63.8983C140.236 60.4511 140.741 56.3889 139.547 52.7709C139.256 51.8862 136.898 48.3006 137.344 47.86C138.177 47.7323 138.535 48.0326 139.01 48.6512C141.549 51.9563 142.176 58.4551 140.828 62.3392C140.132 64.3442 138.422 67.1171 136.31 67.7824H136.309Z" fill="#8F2C28"/>
<path d="M107.057 43.9748C107.461 43.5702 108.483 43.9982 108.808 44.3039C108.934 44.4226 108.831 44.6995 108.869 44.7516C108.078 44.9243 107.533 44.1834 107.057 43.9748Z" fill="#EED3CA"/>
<path d="M110.422 45.5287L110.163 46.0466C109.627 45.5449 109.708 45.8146 109.127 45.0108C109.681 44.8328 110.121 45.4568 110.422 45.5287Z" fill="#EED3CA"/>
<path d="M114.304 64.6774C114.093 65.4201 113.831 65.9002 113.475 66.5655C113.239 67.0043 112.741 68.0796 112.23 68.1677L114.304 64.4185C114.282 64.4994 114.327 64.5983 114.304 64.6774Z" fill="#EED3CA"/>
<path d="M92.3017 45.7866C92.2783 45.8981 92.4024 46.0941 92.5606 46.0456C92.4689 46.1265 91.1778 47.6406 91.007 47.8564L90.748 47.3385C91.0951 46.9249 91.2839 45.7848 92.3017 45.7866Z" fill="#EED3CA"/>
<path d="M103.857 50.205C104.454 50.1043 106.156 52.2802 105.658 53.0372L97.8155 66.1966C96.7797 66.4933 95.0966 64.4253 95.5174 63.3752C96.6718 61.8737 102.971 50.3525 103.857 50.205Z" fill="#DFE6F0"/>
<path d="M108.608 51.7387C108.529 51.5391 107.725 49.2823 108.477 49.669L110.68 52.7727C111.227 57.0237 112.19 59.8972 110.162 64.159C110.128 64.2291 109.504 65.2631 109.385 65.4537C109.258 65.6587 108.177 67.1926 108.09 67.2645C107.902 67.4228 107.344 67.8112 107.055 68.0413C106.983 68.0971 106.075 68.3542 106.021 68.2985C105.952 67.8939 106.287 67.6062 106.537 67.2645C106.157 66.6981 106.668 66.1065 107.314 66.2287C107.118 65.4915 107.805 63.8371 108.608 63.9001C108.423 62.8031 108.682 62.1989 109.385 62.0892C110.148 59.1096 110.205 56.5076 109.385 53.5495C108.488 53.5945 108.416 52.467 108.608 51.7387Z" fill="#8F2C28"/>
<path d="M102.913 49.1534L95.6699 60.7968C96.4503 57.4809 98.628 53.426 100.852 50.8419C101.084 50.5722 102.62 48.8621 102.915 49.1534H102.913Z" fill="#DFE6F0"/>
<path d="M108.609 63.9013C108.1 65.0612 108.013 65.1781 107.314 66.23C106.674 66.7048 106.443 66.0826 106.796 65.4532C107.017 65.0504 107.893 62.8997 108.091 62.3477C108.763 62.2829 108.936 62.8008 108.609 63.8995V63.9013Z" fill="#D52B1E"/>
<path d="M109.385 53.5509L108.611 55.8778C108.597 54.9247 107.98 53.6876 108.092 52.7741C108.124 52.5097 108.525 52.0512 108.609 51.7383C108.838 52.3209 109.106 52.5385 109.386 53.5491L109.385 53.5509Z" fill="#EED3CA"/>
<path d="M109.385 62.0891C109.16 62.9684 108.904 63.2256 108.608 63.8999L108.09 62.348C108.345 61.6324 108.297 60.5282 108.611 59.7622L109.385 62.0891Z" fill="#EED3CA"/>
<path d="M107.316 66.2309C106.994 66.7164 106.809 66.8999 106.539 67.2667C106.169 67.1534 106.025 66.8675 106.021 66.4899C106.068 66.4413 106.766 65.5134 106.798 65.4541L107.316 66.2309Z" fill="#EED3CA"/>
<path d="M102.137 46.5631C102.423 46.1009 103.199 46.3491 103.689 46.3059L103.431 47.0809C103.234 46.991 102.227 46.5774 102.137 46.5631Z" fill="#AD8F7E"/>
<path d="M109.705 35.8967C110.872 36.1808 112.431 36.7526 113.276 37.6284C114.644 39.0472 114.171 43.0644 114.301 45.0136C117.946 45.5171 120.771 43.4762 124.184 42.5986C129.83 41.1493 134.849 40.5163 139.753 44.28C148.305 50.8435 148.097 64.4685 139.724 71.0752L138.379 77.2053C143.527 89.8828 150.533 102.339 154.489 115.459C156.381 121.733 157.208 127.012 152.614 132.353C152.258 132.767 151.161 133.482 151.11 133.565C150.904 133.917 151.105 135.523 151.021 136.196C150.695 138.782 149.809 142.053 147.516 143.561C145.149 145.119 135.978 145.955 132.803 146.19C126.428 146.66 119.888 146.559 113.522 146.194C114.123 149.467 114.952 152.691 115.511 155.978C116.392 161.159 117.719 168.292 116.184 173.307C115.894 174.251 114.812 176.082 114.808 176.85C114.803 178.08 115.252 179.966 115.331 181.259C116.083 193.613 117.142 205.934 118.415 218.234C118.291 220.457 116.577 220.836 114.882 221.611C115.558 226.405 115.263 231.291 115.596 236.114C116.072 243.014 117.21 249.901 117.662 256.82C117.887 260.276 118.406 265.434 118.19 268.732C117.98 271.959 116.646 272.769 113.524 272.993C113.289 277.951 113.218 282.921 113.015 287.883C112.925 290.112 112.832 292.357 112.756 294.612C112.576 299.976 111.663 307.267 112.228 312.461C112.271 312.858 112.301 313.221 112.564 313.547C113.004 314.093 115.132 315.753 115.847 316.341C119.712 319.524 129.305 325.42 130.988 329.668C131.641 331.315 132.54 335.643 131.398 337.058C129.742 339.108 116.527 339.105 113.639 338.992C106.549 338.711 96.8096 337.718 89.9638 336.007C86.8997 335.24 87.0363 334.777 86.8493 331.615C86.6335 327.976 86.6245 322.817 86.8619 319.186C87.0004 317.091 87.0723 313.815 89.7085 313.617L86.7468 273.236L77.1731 272.251C76.7613 272.355 76.6534 273.459 76.2578 273.909C74.9038 275.439 68.2431 274.454 66.1536 274.545C65.4865 287.683 62.2101 300.601 61.0952 313.624C63.3053 314.426 63.5013 316.625 63.7944 318.699C64.4669 323.448 64.751 328.63 64.8715 333.404C64.9416 336.219 65.1197 336.613 62.4709 337.495C52.6652 340.759 37.0782 341.658 27.0712 339.11C25.2747 338.654 22.1692 337.722 22.1512 335.489C22.0775 326.138 32.1619 321.592 37.0423 314.921C38.5762 312.826 37.8335 307.436 37.9306 304.682C38.2219 296.444 38.6139 288.091 39.2379 279.852C39.4267 277.356 39.8709 274.855 40.0183 272.35C39.9572 272.019 39.9356 271.861 39.5796 271.742C38.4827 271.375 36.3805 271.348 35.084 271.06C33.5969 270.731 29.5473 269.796 28.6122 268.732C28.2256 268.291 27.9954 267.421 27.9127 266.845C27.5495 264.276 28.2382 259.332 28.3587 256.559C28.8442 245.344 29.7901 234.215 31.1729 223.086C29.9501 222.57 28.3731 223.03 28.1177 221.354C28.0044 220.608 28.3983 219.648 27.6934 219.191C22.3059 217.502 16.7188 216.393 12.698 212.187C12.2431 211.712 11.9446 210.856 11.5238 210.514C10.6103 209.77 8.97211 209.369 7.77809 208.308C2.40322 203.532 4.12231 190.72 4.838 184.138C5.31992 179.713 6.09676 175.275 6.85561 170.891C6.81425 170.222 5.45659 169.465 5.09156 168.798C4.67077 168.028 5.28576 165.841 5.50154 164.877C6.34671 161.103 8.68799 155.726 11.5274 153.047C12.7196 151.921 14.2679 151.272 15.6453 150.436C16.8303 137.938 18.1664 123.15 24.7874 112.22C26.0516 110.134 28.3173 108.029 29.3603 106.182C30.5561 104.062 30.8978 102.053 32.6546 99.9006C37.4271 94.0492 42.2769 95.5633 48.6857 94.7038C49.6154 94.5797 48.3243 93.3012 48.0654 92.7311C47.641 91.7996 47.2382 90.8124 46.9612 89.8252C41.8651 89.5249 37.9414 86.0597 37.1286 81.0229C35.8159 80.8827 34.4672 81.0913 33.1527 80.987C30.0544 80.7424 24.64 80.2965 21.8941 79.0467C17.7474 77.1604 19.8136 72.0624 21.4985 69.081C23.4298 65.6662 26.3159 62.8879 28.8064 59.9029C28.409 58.9624 28.0026 57.7738 27.8714 56.7668C27.6844 55.33 27.5297 52.6704 28.1465 51.4027C28.5223 50.6295 29.8512 49.5685 29.9231 49.0165C29.9933 48.4824 29.657 47.8404 29.6444 47.229C29.461 38.0132 29.9627 32.6113 36.2529 25.6073C50.6494 9.57258 79.7032 1.50758 98.482 14.3774C106.141 19.6264 108.165 27.1717 109.696 35.9021L109.705 35.8967ZM31.4786 48.1156C32.9064 48.085 33.3362 46.7543 34.3216 45.9145C36.3122 44.2152 39.6173 43.3431 42.1888 43.9149C44.2423 41.3543 47.4737 39.9678 50.7717 40.0829C51.6456 40.1135 53.2694 40.6691 53.8071 40.5595C54.2944 40.4588 55.082 39.5596 55.6287 39.2683C57.5564 38.2451 59.9624 37.4018 62.1526 37.2525C63.3286 37.1734 65.1934 37.6212 65.9702 37.4647C66.5978 37.3388 67.5185 36.4164 68.2378 36.0891C71.0052 34.8267 74.1036 34.3502 77.1354 34.6883C78.0992 34.7962 79.9585 35.6773 80.5268 35.6773C81.5769 35.6791 85.0349 33.9007 87.2701 33.8755C89.0396 33.8557 91.3826 34.9238 92.6917 34.9274C93.6412 34.9292 95.5401 34.0391 96.8672 33.9186C98.901 33.7334 101.167 33.987 103.118 34.5894C104.684 35.0731 106.367 36.5584 108.05 35.3177C106.229 24.8448 102.683 17.1197 92.3716 12.9874C81.7676 8.73821 71.1671 8.77777 60.3328 12.1458C51.223 14.978 39.2379 22.838 34.2173 31.0631C31.1405 36.1017 31.0147 42.3649 31.4786 48.1192V48.1156ZM105.5 42.4224C105.549 40.9533 105.504 38.4699 104.591 37.2543C103.091 35.2601 95.8943 35.1828 93.7149 36.4613L93.8552 43.1992C97.5829 41.9693 101.649 41.3597 105.5 42.4224ZM81.6902 42.9403H92.1738C92.244 42.9403 92.4418 43.3449 92.6989 42.9547L92.0659 36.6411C88.6763 34.9904 84.5404 35.5209 81.282 37.2328L81.6902 42.9403ZM80.1024 37.2831C75.7543 35.3932 70.2536 35.9938 66.7273 39.2378L66.9359 44.4958L80.3685 42.9151L80.1042 37.2849L80.1024 37.2831ZM112.751 45.2708C112.977 45.0442 112.63 39.5111 112.249 38.9123C111.55 37.81 107.585 36.758 106.522 37.3694L106.849 43.1471C108.892 44.1109 110.284 45.7797 112.749 45.2708H112.751ZM65.6088 39.3528C62.7226 38.2595 57.3298 39.4571 55.1647 41.6528C53.7225 43.1129 54.913 45.7024 54.7727 47.5995L65.8893 45.0028L65.6088 39.3547V39.3528ZM53.7279 48.1084C53.5913 46.1771 52.7983 44.2548 53.4492 42.3145C51.1313 40.9281 46.6933 41.8128 44.7027 43.6146C42.3147 45.7779 43.6795 48.5543 44.1614 51.2229L53.7279 48.1084ZM129.253 43.2676C114.903 45.2078 114.941 70.6904 129.706 72.1811C149.224 74.1501 149.087 40.5864 129.253 43.2676ZM100.009 43.5301C81.8377 45.5333 86.2469 77.3294 104.582 72.1685C119.69 67.9157 115.968 41.7715 100.009 43.5301ZM89.7121 44.4958C74.8354 44.057 60.0037 47.0582 46.1646 52.3216C35.9418 56.2093 30.2216 59.2052 23.9117 68.3725C23.7139 68.6584 22.7608 69.9135 22.9371 70.1114C35.6235 58.6333 51.9153 52.7873 68.4356 49.2269C70.232 48.8402 72.2244 48.7108 73.9885 48.308C76.4322 47.7487 75.6302 47.7325 78.2862 47.7146C80.9422 47.6966 83.7906 47.0384 86.5256 46.6087L89.7139 44.494L89.7121 44.4958ZM122.067 45.0136C119.203 45.7617 117.23 48.2522 116.176 50.8956C115.063 53.6882 115.747 53.7332 115.865 56.2579C116.018 59.5127 115.017 61.9474 116.405 65.0332C117.595 67.6802 120.071 70.0089 122.713 71.1471L120.523 68.6782C114.792 61.5536 115.713 51.3919 122.067 45.01V45.0136ZM92.0426 45.2726C89.6905 46.1843 88.2663 47.229 86.9914 49.4049C82.9166 56.355 84.2779 68.0452 92.4292 71.4079L90.1239 68.7969C84.6807 61.6418 85.6409 51.48 92.0426 45.2726ZM42.3488 45.5279C39.0077 45.215 35.3627 45.8696 33.8756 49.2251C34.059 49.9893 34.3683 55.5818 34.9689 55.6159L43.0124 51.7426C42.8325 49.689 42.0233 47.6948 42.3488 45.5297V45.5279ZM116.631 46.5655L111.974 46.8262L114.434 50.7032L116.631 46.5655ZM85.3118 48.6353L79.8776 49.4121C79.6852 50.4766 80.7588 50.6007 81.3108 51.2103C83.0137 53.093 83.0838 55.3408 82.6091 57.7019C82.4113 58.6837 81.4331 60.8397 81.5679 61.5986C81.8287 63.0551 84.74 66.6318 85.5348 68.4642C86.0167 69.5737 86.3027 70.7335 86.6407 71.8862L89.7121 71.9168C89.1492 71.2137 88.1278 70.7551 87.5021 70.1185C82.12 64.6304 82.2063 55.2527 85.3118 48.6317V48.6353ZM75.2184 58.8563C75.0314 60.5269 75.2184 62.7944 75.2184 64.5495C75.2184 65.8604 74.1881 63.8374 74.1071 63.591C73.2566 60.9926 73.7745 57.9266 74.5693 55.3606C75.1285 53.5534 76.3333 50.6834 78.324 50.1853C77.5076 48.8762 76.657 48.6442 75.2958 49.3617C72.6398 50.7625 71.6112 57.3728 71.3379 60.1528C71.1832 61.7209 71.836 63.7133 70.6869 64.9361C69.2753 60.2787 69.9838 55.0459 72.1111 50.7068C70.2104 50.3741 69.59 52.0141 69.1315 53.5462C67.9878 57.3638 67.8062 62.0697 68.4877 65.9701C67.8152 66.6246 67.148 64.5782 67.0491 64.1754C66.2004 60.6851 66.9826 56.979 67.7091 53.5498C65.5296 54.3806 65.2311 57.5706 65.1107 59.6188C64.8463 64.1071 65.99 67.2846 67.6659 71.3215C68.4122 73.1198 70.6114 76.6515 70.9693 78.135C71.4404 80.0897 68.1479 92.2636 67.4322 95.0634C65.1035 104.188 62.3594 113.211 60.2015 122.384C59.6854 122.454 59.7772 122.432 59.6207 122.064C58.8942 120.359 59.9678 118.185 59.9444 116.433C55.5837 120.469 54.4994 127.656 55.323 133.347C55.5477 134.898 55.9362 137.915 57.4107 138.505C61.9584 140.328 70.5395 139.242 74.1557 135.683C78.0237 131.877 79.0774 120.949 79.8399 115.489C80.9655 107.441 81.55 99.3054 82.4976 91.2332C82.9795 87.1279 83.8157 83.0333 84.0171 78.91L82.467 79.0395C85.4952 75.6139 85.729 72.5174 83.7276 68.4606C82.7458 66.4682 79.7158 63.1487 79.9334 60.998C80.2139 58.2179 83.2007 53.539 79.2321 51.7623C77.236 51.8361 75.4073 57.1822 75.2184 58.8527V58.8563ZM32.7697 49.4121C28.472 50.7428 29.1607 54.92 29.9249 58.4679L34.0069 56.0187C33.1941 53.9112 32.8884 51.6598 32.7679 49.4121H32.7697ZM68.4895 50.9657C62.9744 52.4996 58.4195 51.2516 58.9158 58.5938C59.2053 62.8753 61.5682 70.7425 60.3921 74.5673C59.6153 77.092 56.9899 77.5452 55.0245 75.9412C52.649 74.0009 53.3593 71.9275 49.1785 71.4348C38.4251 70.1671 35.0121 84.1015 43.9816 87.4983C49.7862 89.6975 53.4978 86.3115 56.6914 81.9886C56.9072 81.6973 56.6878 81.3448 57.3567 81.4995C57.524 84.1321 55.4416 85.9465 53.9869 87.8508C53.7711 89.3972 56.3102 93.9755 56.5601 95.8816C56.9036 98.5034 55.8912 101.228 56.0746 103.332C56.2688 105.547 59.6297 108.651 61.3758 109.96C61.9602 110.08 61.6977 109.706 61.7912 109.357C64.4813 99.282 67.4897 89.2857 69.4857 79.0269C66.1249 73.1611 59.9965 58.583 65.6609 52.924C66.6086 51.9781 68.1065 52.6003 68.4877 50.9657H68.4895ZM56.5817 54.0677C49.3601 55.6231 42.802 59.2609 36.1666 62.3808C35.8501 62.8789 38.9879 72.28 39.7558 72.8374C40.565 72.717 41.1098 71.834 41.7428 71.4474C44.5013 69.7661 47.213 69.277 50.3815 69.9729C54.2944 70.8324 53.4222 71.9833 55.6736 74.2562C56.9917 75.5869 58.6605 75.8153 58.9176 73.6089C59.306 70.2912 57.8926 60.5952 57.078 57.1138C57.0295 56.907 56.6213 56.9934 56.5637 56.5402C56.5044 56.0799 56.6896 54.172 56.5817 54.0659V54.0677ZM37.1592 79.4153C36.7366 78.1368 38.6319 75.2902 38.6301 74.6411C38.6301 74.2742 37.4037 71.9581 37.1664 71.2838C36.2547 68.7159 35.3304 66.069 34.8413 63.3842C31.7789 65.3713 28.5403 67.3097 25.7818 69.7211C23.811 71.4438 18.5926 76.1588 23.196 77.7484C25.9814 78.7104 30.9355 79.2247 33.9422 79.4261C35.0067 79.498 36.0982 79.3973 37.1628 79.4153H37.1592ZM114.817 65.1968L114.285 65.3551L111.708 69.4586L109.645 71.4043C111.728 71.8448 111.057 70.7066 111.969 69.7193C113.934 67.5885 117.187 69.7787 117.41 69.5935L114.817 65.1986V65.1968ZM131.515 74.2526C130.235 74.3749 128.804 74.1645 127.503 74.2526C127.385 75.6121 127.838 77.1568 127.117 78.3921C126.131 77.2035 126.002 75.4395 126.469 73.9955L121.032 72.6972V73.7365C120.088 74.695 115.369 68.6782 113.127 70.8774C111.379 72.5911 113.963 74.2275 115.216 75.2794C118.23 77.8113 122.287 80.9258 126.209 81.4995C126.223 82.5083 124.936 82.395 124.268 82.5388C123.961 82.6054 123.783 82.3554 123.907 82.8913C126.95 92.9559 131.319 103.431 133.848 113.585C134.04 114.36 134.835 117.599 134.766 118.113C134.725 118.433 134.605 118.568 134.364 118.755L133.454 117.859C134.313 123.972 135.211 130.127 137.311 135.946C144.054 136.331 152.464 133.497 154.099 126.072C155.218 120.985 151.844 112.488 149.958 107.572C146.171 97.696 141.028 88.3183 137.338 78.3957L135.015 79.9476C134.664 78.6978 135.594 78.4569 136.005 77.707C136.468 76.8655 138.314 72.8392 137.856 72.1847C136.052 73.2097 133.58 74.0566 131.517 74.2544L131.515 74.2526ZM111.161 72.9975L108.867 72.9561C108.921 73.4992 108.637 75.7416 109.253 75.7937L111.974 74.7669L111.161 72.9975ZM102.526 74.5116C100.638 74.7364 98.3759 74.3461 96.4428 74.5116C96.4158 75.1302 98.5197 77.5865 97.3095 77.8904C95.3908 78.3724 94.7489 74.526 93.776 73.8139C93.2078 73.3985 87.2665 73.2888 86.8475 73.5891L85.8891 76.7719L82.7206 105.047C90.7928 106.239 101.717 104.294 105.624 96.2448C108.126 91.0929 107.971 79.8595 107.284 74.1448C107.257 73.9236 107.135 73.2366 106.892 73.1989C105.49 73.4201 103.896 74.3479 102.523 74.5116H102.526ZM99.0322 104.788H102.785C105.173 104.788 107.306 106.362 109.514 106.601C113.886 107.076 119.464 106.471 124.02 106.588C125.946 106.639 128.075 107.104 130.093 106.854L122.091 81.9256C118.807 80.5986 116.41 77.7322 113.402 75.907L109.118 77.5326C108.994 85.6318 110.3 94.9034 104.092 101.177L99.0322 104.788ZM54.7709 95.9877L52.4386 88.4855L48.6785 89.7713C48.3279 90.2208 50.5883 94.0061 51.1727 94.5401C52.034 95.3242 53.5877 95.9985 54.7691 95.9877H54.7709ZM54.2512 97.545C52.8558 97.4586 51.8074 96.5146 50.4318 96.315C47.578 95.9014 40.8923 96.5667 38.2093 97.6762C34.4618 99.2245 32.0594 103.1 30.9571 106.856L34.8053 106.565C35.7098 104.053 37.1825 99.8593 39.8727 98.8217C42.739 97.7176 49.9894 97.9298 53.3467 97.8003C53.6596 97.7877 54.3088 97.9945 54.2476 97.545H54.2512ZM54.7727 99.0932C51.8182 99.4583 48.8062 99.354 45.8446 99.6147C42.5754 99.9024 39.0275 99.7693 37.9486 103.492L54.0732 101.372C54.9957 101.111 54.7745 99.8467 54.7727 99.0914V99.0932ZM17.4993 150.332H22.5468C22.9946 150.332 25.602 151.092 26.244 151.294C26.7007 151.436 29.0312 152.52 29.1463 152.401C28.9053 149.616 28.5259 146.78 28.3731 143.989C27.8264 134.009 26.4849 122.308 33.0736 114.018C33.6275 113.323 35.9238 111.443 36.0101 111.262C36.4812 110.26 35.8788 109.856 37.0387 108.41C39.5346 105.299 48.6947 104.919 52.3199 106.074C53.7963 106.545 55.109 107.43 56.5817 107.892C56.2167 106.833 55.4327 106.031 54.9813 104.966C54.7979 104.533 54.5677 103.021 54.3537 102.961C49.414 103.459 44.0931 103.733 39.2865 104.963C38.8729 105.069 37.134 105.486 36.9722 105.624C36.7348 105.828 36.6143 106.894 36.2583 107.37C35.0552 108.983 31.4516 108.091 29.7991 108.417C29.1337 108.548 27.4344 111.075 26.9687 111.798C23.2553 117.584 20.9914 125.198 19.6517 131.912C18.4505 137.929 17.6413 144.203 17.4993 150.333V150.332ZM130.573 108.705L121.949 108.14C117.797 107.856 113.08 108.559 109 108.147C107.547 108 106.608 107.261 105.297 106.933C100.483 105.727 95.5653 106.867 90.7496 107.378C103.053 115.709 108.849 130.344 112.891 144.108C113.132 144.437 113.546 144.563 113.93 144.62C119.741 145.502 128.652 144.914 134.619 144.378C136.82 144.18 139.01 143.723 141.22 143.601L138.501 141.278C134.022 136.054 132.484 123.373 131.648 116.559C131.326 113.941 131.593 111.197 130.575 108.705H130.573ZM83.4777 106.885L82.467 106.599L80.6544 121.087C85.8459 121.067 86.0995 116.957 84.2743 113.067C83.7204 112.65 83.4489 116.266 82.467 115.912C82.1362 112.859 83.1324 109.886 83.4777 106.885ZM58.3943 111.255C55.3373 108.757 51.0072 106.728 47.0026 106.987C44.2064 107.169 39.7738 107.62 37.9486 109.836L41.4731 108.96C46.0729 107.527 49.7215 110.066 53.6668 110.94C55.0155 111.238 56.9863 111.188 58.3961 111.256L58.3943 111.255ZM114.819 172.844C115.464 170.033 115.344 167.282 115.078 164.437C113.531 147.947 105.506 118.383 90.4691 109.339C88.8058 108.34 87.1047 107.8 85.4431 106.863L84.5386 109.954C85.7884 110.474 87.1856 111.265 88.2987 112.028C104.635 123.211 111.377 153.622 114.369 172.137C114.407 172.369 114.479 172.914 114.819 172.845V172.844ZM48.8188 111.255C48.7289 110.76 48.2793 110.827 47.9251 110.728C37.0315 107.719 30.2972 118.127 29.6552 127.678C29.1481 135.227 30.013 145.408 30.7 153.051C30.7341 153.439 30.824 153.827 30.9967 154.174L42.8289 153.139C43.0753 151.874 43.9079 150.715 44.2334 149.488C44.3053 149.217 44.5552 149.186 44.1686 148.898C41.1224 148.42 37.6896 148.512 34.8431 147.354C36.8912 146.757 39.7522 146.852 41.9568 146.969C48.3279 147.309 54.9615 148.715 61.3812 148.012C61.7588 147.971 62.0411 147.96 62.2767 147.613C51.615 141.635 50.5145 122.52 59.3078 114.626C59.5344 114.423 61.4135 113.439 60.9837 113.069L53.8772 112.538L43.3846 112.806C42.8164 112.351 44.4779 111.965 44.6775 111.904C45.9758 111.505 47.4594 111.296 48.8188 111.253V111.255ZM108.351 152.141C105.982 142.017 102.17 131.29 96.2917 122.664C93.6699 118.818 90.4098 114.989 86.2217 112.806C85.8405 112.806 86.8223 115.381 86.8673 115.782C87.3996 120.56 84.8982 122.583 80.3649 122.79C79.892 124.804 79.669 126.874 79.2824 128.904C77.9607 135.836 77.3853 144.236 70.2662 147.837C67.175 149.402 63.5282 149.371 60.117 149.594L58.9104 151.878C59.083 152.006 62.5392 151.398 63.183 151.366C72.629 150.887 82.1991 151.094 91.6416 151.375C93.625 151.434 95.6192 151.304 97.6026 151.367L108.347 152.141H108.351ZM149.244 135.065C146.349 136.422 143.466 137.226 140.283 137.618C139.726 137.687 138.242 137.37 138.37 138.043C138.525 138.861 140.508 141.132 141.238 141.646C146.403 145.275 149.674 139.839 149.244 135.065ZM57.6211 140.238C63.1488 151.822 74.848 146.987 76.2524 135.84C71.6634 141.123 64.0749 141.751 57.6211 140.238ZM57.8782 149.557L46.2294 149.148C44.0481 154.401 41.1908 159.79 39.4968 165.206C39.166 166.266 38.4539 167.699 38.7776 168.78C39.157 170.045 44.4437 172.54 45.8482 173.014C46.6466 172.926 49.4446 167.645 49.9895 166.64C51.9621 163 54.0444 158.844 55.7707 155.082C56.1142 154.334 58.1839 149.868 57.8782 149.557ZM30.6982 173.877L28.9017 154.327C24.2875 151.585 16.8303 150.373 12.5775 154.338C9.96652 156.773 6.7603 163.802 6.64162 167.323C6.58228 169.083 9.89819 170.344 11.29 170.9C17.2655 173.284 24.3019 174.064 30.6982 173.877ZM113.526 179.312C113.037 170.65 111.105 162.155 108.883 153.809C101.086 152.975 66.5888 152.349 58.2037 153.763C55.9883 157.999 54.0876 162.439 51.8003 166.64C51.0216 168.069 47.9341 173.753 46.8498 174.37C46.0406 174.829 45.0893 174.435 44.5444 174.911C43.8935 175.48 42.3362 179.409 41.572 180.347C42.4729 180.326 43.3846 180.392 44.2873 180.347C63.8357 179.376 83.1899 178.508 102.776 179.067C106.36 179.17 109.946 179.249 113.528 179.313L113.526 179.312ZM41.8273 154.732L30.9949 156.061L32.8992 178.537L36.7905 171.829C36.0155 170.159 36.8085 168.339 37.2994 166.636C38.4791 162.543 40.4211 158.735 41.8273 154.734V154.732ZM43.3828 173.624L38.729 171.293C37.3965 173.856 36.0964 176.483 34.6273 178.97C32.714 182.207 30.1839 185.37 28.4216 188.551C27.4524 190.299 27.037 192.155 27.0676 194.181C27.073 194.546 27.4919 197.297 27.6178 197.404C27.8462 197.594 28.7219 197.414 29.0366 197.188C29.6984 196.715 32.865 191.664 33.5537 190.578C36.3518 186.154 39.2865 181.196 41.8759 176.643C42.1169 176.219 43.5446 173.84 43.3846 173.626L43.3828 173.624ZM30.6982 175.431C23.2661 176.071 15.4313 174.374 8.5747 171.551C8.28159 171.723 8.26361 171.919 8.19348 172.212C7.59467 174.739 7.2638 178.368 6.92214 181.034C6.12193 187.298 4.77147 197.378 6.54811 203.33C8.04422 208.34 16.5264 211.627 21.2359 210.87C21.9103 210.763 23.7193 208.966 23.3327 210.633C22.4066 214.632 17.0065 211.557 14.3919 211.791C15.3306 213.658 27.5459 217.909 28.1087 217.357C27.9901 210.899 29.22 204.514 30.4356 198.207C27.7257 200.306 25.8897 198.853 25.5535 195.717C25.1956 192.396 25.4672 190.547 27.0298 187.682C27.83 186.215 30.8672 182.536 31.1513 181.455C31.5541 179.928 30.6154 177.112 30.6964 175.435L30.6982 175.431ZM113.524 180.869C108.996 180.783 104.457 180.734 99.9277 180.619C90.586 180.382 81.3396 180.36 71.987 180.612C66.5852 180.757 61.1096 181.288 55.6664 181.115L40.3276 182.214L32.5845 195.301C31.02 203.856 29.3243 212.465 29.6768 221.221L52.5591 222.796C61.9908 223.073 71.4098 222.579 80.7713 222.257C91.0949 221.902 103.287 222.127 113.324 220.126C116.479 219.496 116.779 219.434 116.628 216.188C116.453 212.442 115.659 208.326 115.338 204.539C114.67 196.654 114.242 188.742 113.522 180.865L113.524 180.869ZM113.526 221.751C100.803 223.769 87.8977 223.359 75.1016 224.35L51.9261 224.343L56.4864 225.083L63.0535 225.634C63.7674 226.161 61.5969 226.403 61.383 226.42C55.9505 226.839 47.5151 225.846 41.9928 225.082C38.7002 224.625 35.9454 223.692 32.7715 223.043C31.315 237.829 29.4646 252.677 29.7901 267.557C32.1152 268.796 34.7999 269.321 37.3768 269.805C46.9037 271.598 57.6301 272.634 67.3153 272.997C68.5345 273.042 73.9741 273.179 74.6988 272.853C75.8406 272.341 76.5851 268.309 76.907 267.038C79.0379 258.604 80.4297 250.01 81.8323 241.426C82.2675 240.715 87.5362 239.473 88.6799 239.347C89.3326 239.892 85.5132 241.604 85.2363 241.722C84.8083 241.906 83.3608 242.091 83.2421 242.373C82.0265 252.019 79.9837 261.521 77.5525 270.913C87.4319 271.323 97.288 272.382 107.2 271.961C108.68 271.898 114.772 271.476 115.704 270.888C116.114 270.629 116.288 270.192 116.36 269.733C116.601 268.194 116.437 265.209 116.387 263.528C116.092 253.661 114.267 243.785 113.79 234.035C113.591 229.951 113.887 225.817 113.528 221.746L113.526 221.751ZM64.609 274.281C56.8676 274.198 49.2216 273.238 41.5738 272.215L39.7738 301.439L60.687 302.711L64.6072 274.281H64.609ZM111.974 273.245L102.539 273.776L88.162 273.249L90.4889 303.007L110.679 302.748L111.974 273.247V273.245ZM60.4677 304.299L39.7594 303.004L39.5022 312.838C43.604 311.204 47.7327 311.391 51.5791 313.57C52.6256 314.164 55.7096 317.075 56.3893 316.94L59.1046 314.451L60.4677 304.297V304.299ZM110.679 304.3C104.029 304.885 97.4192 304.775 90.7478 304.557L91.3197 313.692C92.2368 314.37 94.5349 317.755 95.3369 317.978C96.4914 318.296 98.1475 316.219 99.0538 315.577C100.96 314.23 104.585 312.322 106.926 312.322H110.679V304.3ZM63.0175 331.177C62.8449 327.472 62.7442 323.653 62.2731 319.959C62.1688 319.137 61.7858 315.881 61.2481 315.541C60.1943 314.874 57.6247 319.909 55.0406 318.389C53.1112 317.255 51.9837 315.399 49.5093 314.347C46.3139 312.988 41.2159 312.687 38.7218 315.426C41.9586 315.275 45.5263 316.19 48.2775 317.907C48.9788 318.346 51.8236 320.168 50.6422 321.008C49.7863 321.615 48.0384 319.686 47.2418 319.202C44.4923 317.526 37.8119 315.331 35.6163 318.531C37.9036 318.539 40.6135 318.738 42.7822 319.52C43.7424 319.868 47.9089 322.241 48.0528 323.067C48.22 324.027 47.774 324.48 46.8677 323.976C45.9614 323.471 44.9688 322.495 43.978 321.95C41.18 320.414 35.4239 318.94 32.892 321.374C31.3006 322.903 25.6038 328.616 24.8755 330.18C24.6004 330.77 24.4566 331.482 24.2444 332.103C24.3469 332.576 28.3857 333.289 29.1391 333.421C40.4427 335.406 52.1509 335.021 63.0157 331.178L63.0175 331.177ZM115.08 317.753C111.559 314.327 109.931 313.173 104.932 314.467C100.998 315.487 100.037 317.816 97.1926 319.152C92.8212 321.204 91.9203 314.034 89.4531 315.286C89.0414 315.604 88.8255 316.156 88.7392 316.651C88.5936 317.487 88.4731 319.058 88.4228 319.956C88.2322 323.29 88.536 326.8 88.4461 330.15C93.1269 330.973 97.8436 331.862 102.562 332.468C109.19 333.32 116.583 334.237 123.231 333.538C124.141 333.442 129.131 332.701 129.584 332.385C130.487 331.752 128.823 328.929 128.273 328.24C127.671 327.483 122.044 322.914 121.357 322.732C119.282 322.187 115.786 323.086 113.79 323.838C113.057 324.115 111.346 325.537 110.793 324.753C109.962 323.575 112.533 322.583 113.272 322.284C115.159 321.525 117.192 321.2 119.221 321.112C117.378 318.244 112.332 319.186 109.577 320.141C108.881 320.382 106.824 321.824 106.299 321.094C105.517 320.004 108.396 318.837 109.059 318.589C111.055 317.843 112.95 317.614 115.08 317.747V317.753ZM130.348 333.8C116.768 337.346 102.226 334.081 88.6799 331.73L88.7123 334.025C93.9918 335.194 99.4602 336.089 104.858 336.645C111.264 337.303 123.598 338.391 129.445 336.129C130.496 335.722 130.37 334.809 130.348 333.8ZM63.0517 333.023C50.5217 336.942 36.7797 337.325 24.1023 333.795C22.9676 337.071 26.4472 337.42 28.8334 337.864C36.0137 339.197 44.7962 339.227 52.016 338.161C55.6898 337.618 59.4607 336.593 63.0175 335.573L63.0535 333.023H63.0517Z" fill="black"/>
<path d="M108.608 108.929C108.694 109.365 108.39 109.613 108.194 109.936C107.406 111.229 104.688 115.667 103.826 116.439C103.538 116.696 103.384 117.05 102.916 116.949C102.217 116.149 106.072 109.976 107.067 109.327C107.568 108.999 108.003 108.857 108.609 108.931L108.608 108.929Z" fill="black"/>
<path d="M52.7007 79.9443C52.0461 80.0773 52.0515 79.858 51.7081 79.5163C51.2261 79.038 49.8469 77.0725 49.0791 77.2308C47.8131 77.8997 47.3636 79.4911 47.2665 80.8524C47.2557 81.0016 47.8437 83.4328 46.8816 83.048C45.2273 82.3863 46.1552 77.4861 47.2665 76.3245C45.9987 75.5279 43.3427 77.0078 43.127 75.5476C45.8369 74.5406 48.7878 75.0387 51.0139 76.8442C51.9868 77.6336 52.9326 78.5866 52.7007 79.9425V79.9443Z" fill="black"/>
<path d="M90.6824 84.1479C97.4221 83.042 95.7947 94.6477 90.303 95.6691C82.8925 97.0465 84.4516 85.1693 90.6824 84.1479ZM87.9131 88.4726C89.9074 89.0031 91.2254 90.555 92.432 92.1014C93.8275 90.6647 94.5396 87.6796 92.9643 86.1386C90.6051 83.8296 87.4492 87.8055 87.9113 88.4708L87.9131 88.4726ZM87.5139 89.2675C86.0628 90.9865 87.3611 94.5974 89.7797 94.128C93.4355 93.4195 88.9147 90.0749 87.5139 89.2675Z" fill="black"/>
<path d="M91.5253 97.5432C92.2392 98.2409 89.4286 100.293 87.2941 98.7966C86.5856 98.3003 85.8627 97.1476 87.1358 97.394C88.7578 97.7086 89.7702 98.0305 91.5235 97.5432H91.5253Z" fill="black"/>
<path d="M99.741 45.0738C115.594 42.6049 117.317 69.4523 103.016 71.1192C87.7019 72.9049 86.0709 47.2029 99.741 45.0738ZM100.523 46.6311C91.2785 47.7514 89.2807 61.9951 96.0618 67.5192C102.579 72.8275 108.468 64.4083 108.622 58.0875C108.727 53.779 105.794 45.9927 100.523 46.6311ZM106.797 67.5228C107.329 68.0443 109.485 64.7122 109.689 64.3346C112.152 59.7455 111.694 54.0326 108.478 49.9308L109.827 54.0182C110.791 58.6864 109.881 63.8059 106.799 67.5246L106.797 67.5228Z" fill="black"/>
<path d="M130.812 44.5677C144.516 43.1093 147.931 66.7307 134.405 70.4117C118.701 74.6842 114.971 46.2526 130.812 44.5677ZM130.026 46.3677C121.384 47.7325 119.564 61.7964 126.233 67.1137C132.033 71.737 137.839 65.3803 138.569 59.5648C139.226 54.3284 136.751 45.305 130.026 46.3677ZM137.082 67.004C137.658 67.5489 139.894 63.8931 140.112 63.4382C142.149 59.1926 141.905 53.9598 139.021 50.1871L140.121 54.2637C140.916 58.7233 139.855 63.4274 137.082 67.004Z" fill="black"/>
</g>
<defs>
<clipPath id="clip0_2117_22835">
<rect width="160" height="160" fill="white"/>
</clipPath>
</defs>
</svg>
