<svg width="160" height="160" viewBox="0 0 160 160" fill="none" xmlns="http://www.w3.org/2000/svg">
<g clip-path="url(#clip0_2117_22834)">
<path d="M130.716 106.748C131.037 105.526 131.253 104.24 131.595 103.019L131.471 102.516C126.986 100.569 123.214 97.1498 119.985 93.5718C117.349 92.7165 114.762 91.7667 112.222 90.724C108.317 88.2115 110.42 89.108 112.992 90.4404C113.415 90.5212 113.785 90.5913 113.825 90.076C113.97 89.236 112.875 88.3488 112.204 87.8548C109.655 86.3349 107.111 84.8164 104.571 83.2965L107.332 84.4795L107.684 84.1533C108.082 84.0343 108.036 83.9017 107.684 83.7142C107.624 83.2126 107.233 82.8849 106.505 82.7294C107.201 82.6486 107.594 82.3909 107.684 81.9595C108.051 82.4184 108.376 82.2186 108.562 81.7399C109.144 81.8604 109.317 81.6058 108.782 81.3009C108.218 81.1286 107.696 80.8405 107.077 80.8115C106.409 79.0979 106.121 77.3707 104.399 76.3645C104.391 76.0962 107.333 75.5839 107.852 75.4345C108.513 75.2455 109.074 74.9268 109.66 74.7195C110.355 74.2911 110.428 73.9999 109.879 73.8414L109.279 73.5898C106.161 74.5686 102.796 75.2165 99.5689 75.1571C98.8813 75.5199 98.0718 75.8141 97.5946 76.4727C97.6785 76.5749 97.7654 76.6587 97.8645 76.674C97.9072 76.6816 97.959 76.6892 98.02 76.6983C97.5962 76.7258 97.2181 76.7929 96.9376 76.9103C96.5823 77.2014 96.064 77.3295 95.8399 77.7884C96.9894 77.6435 102.206 77.485 101.779 79.4089C101.084 80.0935 100.208 79.4242 99.4378 79.348C98.1252 79.2169 96.8659 79.3144 95.6219 79.3251C95.5335 79.5888 95.3643 79.7428 95.1813 79.7901C95.0624 80.1926 95.2027 80.6956 95.6219 80.6423L95.9634 81.057L99.8342 80.9594C99.5155 80.9624 99.3524 81.0814 99.1817 81.3939C96.686 85.9492 99.3067 98.002 100.615 102.8C102.882 111.114 106.9 121.117 111.908 128.142C112.026 128.308 112.193 128.439 112.37 128.569C112.55 128.701 112.75 128.807 112.954 128.906C113.434 129.369 113.874 129.88 114.27 130.441C113.886 131.18 115.448 133.058 116.244 132.854C116.827 132.58 116.767 132.302 116.244 131.976C116.628 131.714 116.616 131.456 116.348 131.106C114.714 129.118 113.244 127.024 111.937 124.825L114.906 125.683L115.364 125.395L115.851 125.055C116.119 125.337 116.334 125.488 116.682 125.175C116.84 125.793 117.386 126.501 117.997 126.053C118.092 126.613 118.311 126.759 118.656 126.492C118.59 127.107 118.898 127.46 119.315 126.931C121.013 128.361 122.914 129.386 125.019 130.003C125.615 131.109 127.788 131.993 128.968 131.538C129.511 130.923 129.265 129.078 128.529 128.686C129.093 128.371 128.933 127.656 128.309 127.588L128.655 126.489C128.373 121.504 128.742 116.353 129.806 111.497L129.625 110.915C130.512 109.941 131.088 108.02 130.723 106.747L130.716 106.748ZM101.6 77.3371C101.375 77.2121 101.092 77.1023 100.775 77.0093C101.353 77.0505 101.807 77.0581 101.897 76.9911C102.01 76.9087 102.104 76.8035 102.196 76.6922C104.007 76.8035 106.553 80.6758 105.268 81.958C105.014 81.6043 104.58 81.4167 103.964 81.3924C103.784 79.8251 103.02 78.1314 101.6 77.3387V77.3371Z" fill="#D52B1E"/>
<path d="M49.7604 57.1677C49.6811 57.0077 49.6094 56.8445 49.5652 56.6753C49.521 56.5061 50.8275 54.4861 50.8565 54.3413C52.0289 48.5085 52.2118 44.3084 54.1662 38.6936C57.2138 29.9367 63.1945 28.5692 71.7852 29.8635C82.6444 31.4994 100.245 38.6113 106.654 47.8514C109.113 51.3959 108.546 54.4953 107.275 58.3371C116.467 63.1637 111.38 74.805 101.923 74.6601C101.067 75.0718 100.28 75.2379 99.562 75.1571L99.5376 75.6617C98.9156 76.0124 98.2723 76.27 97.5878 76.4728C97.3515 76.6481 94.5372 76.177 94.3329 76.2944C94.3847 76.6893 94.4274 77.3951 93.6438 77.5857L93.6377 78.8861C93.9197 79.5371 92.2413 80.4838 91.6635 80.2018C91.3936 80.493 90.9667 80.6561 90.3829 80.6896C88.9925 81.4519 87.7119 81.9595 86.0822 81.9382L85.7392 81.5174C85.5211 81.8147 85.2574 81.8117 84.9494 81.5098C84.4403 82.144 83.8259 82.2096 83.0667 82.2462L85.2909 82.5755L85.5211 83.0526C86.0197 83.0221 86.4679 83.42 86.1797 83.9308C87.1005 84.0954 86.8078 86.5971 86.6127 87.4265C85.2025 93.3996 80.0511 98.0417 74.479 100.353C70.3811 102.053 63.8698 102.727 62.6106 97.3542C59.5158 105.922 57.5522 114.854 56.2045 123.852C59.9564 122.335 63.8714 121.349 67.9495 120.894L72.5078 113.113L73.0185 113.11L73.2884 113.575C72.0718 115.931 70.9878 118.339 70.0381 120.801C70.0487 120.899 70.2378 121.041 70.6052 121.227L71.244 120.762C78.0372 120.141 84.9418 120.027 91.7549 120.535C93.7627 120.684 95.7446 120.954 97.1502 122.324C97.7112 121.989 98.0055 122.515 97.5893 122.983L96.92 123.274C87.936 122.117 78.208 122.253 69.0547 122.928L62.7752 133.726C62.077 134.457 61.3971 133.737 61.7782 132.915C63.2844 129.741 64.8714 126.584 66.5362 123.445C62.9216 123.324 59.0188 124.471 55.831 126.367C54.5855 133.293 53.7943 140.295 53.4665 147.323L56.8555 146.522L57.2214 146.895C57.6544 147.087 57.6254 147.191 57.4409 147.537C57.3144 147.775 53.1158 149.522 52.5274 149.715L51.9557 149.526C51.3184 148.511 51.2102 147.343 50.858 146.235C50.7452 145.549 50.5989 144.892 50.419 144.261C49.9006 142.776 49.7345 141.097 49.5835 139.509L49.9799 138.995C50.05 138.413 50.2513 138.437 50.419 138.995L50.8839 139.297C51.0135 140.67 51.2407 142.044 51.5578 143.393C53.2302 125.076 55.6054 104.789 64.8989 88.9769C63.9888 89.259 63.8394 88.2101 64.1229 88.2985C64.3455 88.3671 64.2205 88.8824 64.0208 88.1003C64.9507 87.6735 64.69 87.643 64.6794 86.5651C65.094 86.3807 65.5133 86.62 65.9371 87.2817C68.2193 86.0087 70.6357 85.0376 73.1877 84.3683C72.2822 84.1289 71.3675 84.1808 70.4421 84.5253C68.9602 83.5511 67.2375 83.4643 65.2739 84.2662C64.5955 84.5025 64.1778 84.3912 64.0208 83.9323C61.8194 83.8073 56.5399 81.3482 54.7349 79.9457C47.4446 74.2866 48.0377 65.3361 49.7619 57.1677H49.7604Z" fill="#EED3CA"/>
<path d="M131.373 107.407L132.468 107.628L137.078 84.8106L138.392 85.2481L137.075 80.6425L135.982 81.2996C133.767 73.3431 136.122 65.9294 137.266 58.1238C137.539 56.2593 137.531 54.2881 137.763 52.4785C138.112 49.7633 139.97 48.3973 142.498 49.8822C145.198 51.4692 144.704 55.5824 144.754 58.2656C147.209 58.0278 149.376 58.7595 151.534 59.8252C151.052 61.3832 152.006 61.4107 152.695 62.5007C153.348 63.5313 154.845 67.7039 154.859 68.9113C154.874 70.1767 154.897 70.323 155.048 71.5548C155.252 73.2166 154.603 73.7197 154.453 74.8783C154.374 75.4881 154.703 76.5126 154.603 77.438C154.142 81.7082 150.239 85.7878 146.949 88.2118L149.142 87.663C148.95 88.663 149.352 89.6921 149.37 90.6144C149.526 97.9337 149.07 105.489 148.486 112.784C148.357 114.415 148.494 116.106 148.209 117.772C147.27 123.262 143.768 125.916 138.299 126.247C137.763 126.644 138.929 127.115 137.295 127.151C136.991 127.034 136.708 126.826 136.444 126.528C135.807 126.584 135.287 126.5 134.883 126.273C133.556 126.365 132.229 124.941 131.594 123.727C130.416 121.474 128.925 114.653 129.959 112.374C129.995 112.295 130.123 112.258 130.277 112.232C129.847 111.476 129.92 111.11 130.497 111.135C129.599 110.401 131.145 109.551 131.462 110.817L131.765 109.032C131.122 108.566 130.549 107.912 131.375 107.406L131.373 107.407Z" fill="#EED3CA"/>
<path d="M121.503 91.3924C122.25 91.3025 122.864 92.3315 122.381 92.9276H121.762C119.919 91.4656 117.714 90.7887 115.15 90.8954C114.309 90.8573 113.868 90.5844 113.825 90.0752C113.909 89.7947 114.17 89.6011 114.607 89.4929C115.133 88.9242 110.174 86.1542 109.566 85.8173C109.369 85.3325 109.268 84.7257 109.877 84.5915L110.351 84.4985C113.847 86.4088 117.286 88.4501 120.669 90.6195L121.504 91.3924H121.503Z" fill="#D52B1E"/>
<path d="M33.9679 139.437C33.1173 138.65 31.7162 139.536 30.5393 139.627C22.9243 140.213 20.3585 133.872 18.1678 127.924C15.6843 121.179 13.9662 113.996 12.4691 106.969C12.87 106.558 14.3717 109.041 15.1004 108.395C11.3227 105.013 4.54766 99.3542 5.00654 93.6966C5.38615 89.0164 12.6139 89.7237 13.7604 93.939C14.1781 95.4758 14.1095 98.4044 12.4066 99.1285C11.0071 99.7231 9.40785 97.2854 10.0558 96.0002C9.90942 95.8706 7.5769 96.0307 7.42445 96.6542L9.17002 96.6664C9.20356 98.6254 10.9049 101.138 13.0194 99.7292C13.364 99.499 13.6948 98.8831 14.0089 98.7443C14.8885 98.3556 15.5898 98.9212 16.7134 97.9394C17.2226 97.4942 17.6921 96.3127 17.776 96.2594C17.9665 96.1374 18.5108 96.235 18.8401 96.1222C20.3768 95.5962 21.2946 94.6098 21.4851 92.9496C22.5386 92.8886 23.8344 93.0319 24.7537 92.3764C24.8589 91.8474 24.3268 92.0624 23.9899 92.0502C22.2032 91.9831 18.5428 91.7193 19.0566 89.0941C19.4438 87.1153 25.7081 87.2662 27.0634 88.5346C28.6397 90.0088 28.9431 96.395 28.6458 98.4653C28.3684 100.397 26.5618 102.063 25.1958 103.351C24.9168 103.615 22.9685 104.752 23.4381 105.211C24.5113 105.495 24.6683 104.199 25.6196 104.344C28.5056 111.014 32.1507 117.357 34.4085 124.298L35.0641 123.641C35.7211 123.49 35.9132 123.993 35.5031 124.519C35.2364 125.436 35.2973 126.058 35.8324 126.922C35.6175 127.131 35.5809 127.428 35.7227 127.809C36.6221 128.558 36.5657 130.747 36.4377 131.953C36.2105 134.089 35.0946 136.344 34.1097 138.21L34.186 138.56C34.5442 138.44 34.6677 138.781 34.4055 138.999C34.3415 139.265 34.1951 139.411 33.9664 139.438L33.9679 139.437Z" fill="#EED3CA"/>
<path d="M110.533 45.3203C111.653 45.9194 112.675 46.9667 113.385 47.9531C113.597 47.9988 113.806 48.0537 114.001 48.1376C114.844 48.4943 119.558 53.6228 119.759 54.5086C119.776 54.5863 119.765 54.6702 119.747 54.7555C119.934 54.7388 120.148 54.725 120.299 54.8409C121.197 55.5315 121.677 61.7821 121.116 62.8904L120.623 63.3127C121.36 63.9362 120.085 66.034 119.308 66.3846C119.305 68.0296 116.228 71.0252 114.739 71.7159L114.044 71.6503C113.941 72.5162 110.482 74.2542 110.127 74.0606C110.033 74.0087 109.952 73.9295 109.875 73.8441C107.288 74.8137 103.087 75.579 100.324 75.6019C99.9051 75.6049 99.4386 75.8046 99.5636 75.1598C102.039 73.8548 102.282 73.748 104.741 73.2358C112.42 71.6366 114.417 61.7805 106.785 58.5714C107.702 55.0177 108.822 52.5053 106.894 49.0721C100.991 38.5575 74.444 27.7288 62.9125 30.2854C58.4624 31.2718 56.0293 34.7843 54.5795 38.8456C52.686 44.1525 51.4283 52.3956 50.2544 57.9616C49.1415 57.5271 47.3837 55.6809 46.4675 54.8714C39.6605 48.8678 35.1906 39.2344 44.2767 32.8207C45.3332 31.3419 47.0727 30.7351 48.736 30.2077C63.9095 25.3886 81.0909 28.9804 95.2965 35.4947C100.794 38.0163 106.255 41.0165 110.53 45.3264L110.533 45.3203Z" fill="#371D0E"/>
<path d="M55.9036 94.4635C56.4021 94.1098 56.6552 94.1052 56.6644 94.4543C53.9156 99.9243 52.106 105.939 51.1364 112.015L49.5418 122.545C49.7339 122.608 49.7308 122.681 49.5418 122.765L49.3222 124.3C49.5037 124.687 49.6714 125.094 49.6851 125.526C49.7308 127.036 49.8009 131.633 49.403 132.691C49.3253 132.9 49.217 133.099 49.1027 133.295C49.4762 134.726 49.4351 136.725 49.278 138.233L48.8847 138.778C45.7198 140.756 42.2911 142.419 38.6689 143.372C38.2908 143.347 38.0347 142.925 37.6962 142.728C36.437 141.465 35.3484 140.076 34.4307 138.559L34.6258 138.123C34.231 137.269 35.3698 136.95 36.0711 136.905C37.9554 136.074 38.742 133.677 36.8044 132.438C36.629 132.154 36.0619 128.248 36.1671 128.052C36.2159 127.96 36.2952 127.883 36.3805 127.811C36.0208 126.919 35.6533 126.01 35.2768 125.084L35.5039 124.519C35.3576 124.123 35.1365 123.835 35.0649 123.641C33.9947 120.761 32.9549 117.93 31.7734 115.086L32.0631 114.58C35.4735 113.122 38.5317 111.008 41.2377 108.236C42.0381 107.564 42.9223 106.997 43.9102 106.635C44.3325 106.701 51.0572 104.106 50.3193 103.537C49.2552 103.784 48.3252 103.742 47.5324 103.409C47.2184 101.923 53.2372 94.9361 54.7556 94.6937C54.9172 94.6678 55.0819 94.6708 55.2496 94.683C55.4524 94.5275 55.7969 94.5397 55.9082 94.4635H55.9036Z" fill="#D52B1E"/>
<path d="M34.1094 138.211L38.2027 135.526L39.1495 142.327L37.6951 142.73L34.1094 138.211Z" fill="#8F2C28"/>
<path d="M134.884 126.275C135.925 125.889 137.137 125.814 137.297 127.153C136.654 127.168 135.998 127.094 135.359 127.191C134.524 128.324 135.102 129.226 135.112 130.326C135.199 139.207 136.924 155.444 131.813 162.694C131.362 162.717 131.069 163.083 130.935 163.792C130.141 164.63 129.61 165.386 128.397 165.752C128.558 167.124 128.225 168.55 128.084 169.934C126.66 170.574 126.464 169.594 127.494 166.995C127.468 166.929 126.209 167.446 126.195 167.515C125.569 170.538 125.522 174.474 125.577 177.572L125.232 178.27C124.804 178.693 123.799 179.243 123.477 178.49C123.168 178.311 122.843 178.112 122.657 177.798C120.878 174.771 118.954 167.246 118.956 163.726C118.956 163.356 119.132 163.011 119.308 162.694C119.042 161.513 118.971 160.343 119.088 159.185L118.765 158.563L118.869 152.823C118.253 152.611 118.262 152.161 118.869 151.945C118.337 151.641 118.454 150.811 118.869 150.41C118.256 150.105 118.181 148.867 118.869 148.655C118.26 147.853 118.187 147.342 118.649 147.12C119.052 146.504 120.308 147.079 120.184 147.778C121.087 147.876 121.648 147.264 121.867 145.946L122.378 145.804L122.184 145.275C122.407 144.754 122.325 144.126 121.939 143.391C121.782 143.464 121.535 143.539 121.466 143.435C120.93 142.621 118.478 138.329 118.346 137.668L118.648 137.247C118.587 136.704 119.311 136.471 119.669 136.632C119.916 134.812 120.035 132.981 119.98 131.14C120.058 130.588 120.552 130.432 121.02 130.643L125.851 133.126C127.45 134.234 128.487 133.707 128.959 131.542C128.757 130.505 128.671 129.69 128.52 128.69C128.52 128.048 129.254 128.075 129.399 128.69L129.905 129.054C130.684 134.344 132.977 129.62 133.692 127.257L134.006 126.933C133.814 126.871 133.817 126.798 134.006 126.714C134.097 126.266 134.455 126.023 134.884 126.275Z" fill="#242E5F"/>
<path d="M80.6939 8.46576C80.8387 8.47643 80.9881 8.45356 81.1329 8.46576C81.9547 8.36666 82.7596 8.36666 83.5463 8.46576C86.1883 8.39868 89.8014 9.41554 92.2513 10.4004C93.6889 10.9782 94.8719 11.1321 96.3492 11.7877C98.5872 12.7802 102.306 15.1127 104.172 16.6906C106.958 19.0459 113.348 26.7326 114.819 29.957C116.583 33.8232 116.218 39.6727 116.023 43.9033C115.997 44.4674 115.577 44.8714 115.578 45.3226C115.215 46.8075 112.77 45.2434 113.384 44.225C112.901 41.6653 112.867 39.1437 113.021 36.5277C113.419 32.5487 110.703 30.0652 107.837 27.7068C104.917 25.795 102.296 23.6149 99.9761 21.1635C99.2001 20.4409 98.1405 19.1649 99.7931 19.0277L105.277 22.5828C98.2671 15.0639 88.6168 11.4492 78.5732 10.1458L77.625 9.56189C77.8796 8.35142 78.9041 7.98553 80.6969 8.46423L80.6939 8.46576Z" fill="#835840"/>
<path d="M65.5565 13.5098L65.6998 14.0876C65.1876 14.6135 61.3321 20.2939 61.6202 20.675C62.3352 20.7391 62.9877 20.9098 63.5808 21.1873L63.9268 20.7939C64.8187 21.0851 65.7197 21.2925 66.6283 21.4159C70.2216 19.896 72.7935 20.5866 76.0011 22.6569C79.5151 21.6675 83.0078 22.8978 85.7916 25.1068C89.8636 24.4345 93.9904 25.8736 96.4891 29.2642C100.878 29.2215 104.636 31.8071 106.862 35.4294C110.551 36.8746 113.245 40.195 113.381 44.2228C113.716 45.0979 114.6 45.8601 115.575 45.3205C115.579 47.0066 117.99 49.4717 118.956 51.0435C121.311 54.8701 122.662 58.3384 121.717 62.8723C121.366 63.6376 121 63.784 120.619 63.3114C121.188 61.1023 120.961 56.7071 119.741 54.7557C119.333 53.3517 118.505 52.2769 117.596 51.103C115.466 48.3543 113.119 45.7626 110.606 43.363L110.527 42.6891C110.728 42.4528 111.079 42.3111 111.577 42.2623C111.852 41.0427 108.544 37.5759 107.237 37.2054C106.126 37.6155 106.452 38.2878 108.217 39.2269L109.65 40.7164C110.448 40.6341 111.402 42.3339 110.528 42.6907L109.419 42.2821C102.113 35.9538 93.0285 31.9992 84.174 28.4913L84.2015 28.8693C83.3157 29.098 82.3065 28.9882 81.1722 28.537C79.9465 28.4699 78.9815 28.1421 78.2772 27.5537C69.6301 25.4666 60.207 26.3325 51.4623 28.0385L50.636 27.7732C50.5232 27.2305 50.8906 27.3097 51.2321 27.1725C52.8756 26.5139 54.7812 25.9758 56.5436 25.7822C56.6426 24.4757 57.5467 23.0197 58.5544 22.1995C58.963 21.8672 59.7999 21.5669 60.0118 21.3534C60.4966 20.8641 62.0136 17.5604 62.7438 16.5161C63.4436 15.5145 64.4574 14.0007 65.555 13.5143L65.5565 13.5098Z" fill="#DEC8BF"/>
<path d="M64.021 88.1022L64.428 88.1403C64.3244 88.7014 64.7741 88.7852 64.8991 88.9788C61.6839 92.9594 60.077 94.9489 60.077 94.9489C53.0993 107.698 51.0046 123.741 50.8125 138.222L50.4192 138.997H49.9801L49.5075 138.549C49.5441 136.753 49.4099 135.001 49.1035 133.292C49.1493 130.254 49.0989 127.313 49.323 124.297L49.5426 122.762V122.543C50.8613 112.885 52.2501 103.166 56.5584 94.4519C57.1637 93.4899 57.8954 92.6895 58.7568 92.0477C58.8666 91.9242 59.0526 91.7596 59.1959 91.6086L59.4154 91.3891C60.8972 89.8935 62.1077 88.9758 64.0225 88.0977L64.021 88.1022Z" fill="#717171"/>
<path d="M117.772 149.747C118.409 149.252 118.931 150.158 118.431 150.626C118.482 151.103 118.629 151.542 118.87 151.941C118.883 152.232 118.856 152.528 118.87 152.819L118.765 158.89L118.431 159.183C118.681 162.178 118.818 165.357 118.845 168.417C118.845 168.555 118.783 168.697 118.713 168.844C118.643 168.99 118.539 169.136 118.431 169.274L118.822 172.867C118.714 175.62 118.728 178.541 119.527 181.121C119.419 182.006 119.6 183.06 119.527 183.973C119.458 185.147 116.866 183.694 117.113 182.875C115.252 181.304 114.619 179.348 114.7 177.004C115.007 168.151 115.34 159.079 116.366 150.522C116.555 149.804 117.17 149.223 117.771 149.749L117.772 149.747Z" fill="#DD554B"/>
<path d="M65.5569 146.017C66.2521 145.46 69.2143 145.882 67.7507 146.896L67.4535 147.37C65.0645 147.749 62.7244 148.455 60.4224 149.179C59.1402 149.582 53.0498 151.614 53.0284 152.953C53.3836 153.312 53.4629 153.634 53.2693 153.915C53.5757 153.921 53.7221 154.067 53.7084 154.354C53.8395 154.472 53.9645 154.649 53.8882 154.771C52.5863 156.811 51.5923 159.31 50.6867 161.636C50.0586 163.586 49.0357 164.406 47.3465 165.323C47.4578 165.89 45.1878 166.53 44.7746 166.416C44.2654 166.277 44.0566 166.025 44.2761 165.541C44.5871 164.521 44.7655 164.239 45.1542 163.347C47.406 161.042 48.7567 157.7 49.9397 154.745C49.8925 153.846 49.9794 153.058 50.1989 152.378C50.2965 150.937 50.6989 150.247 51.9536 149.525C53.1306 148.849 54.8792 148.242 56.1659 147.702C56.5028 147.56 57.3428 147.387 57.2193 146.893C57.2773 146.3 57.4892 146.319 57.6584 146.893L58.0975 146.673C58.1798 146.075 58.3017 146.135 58.5365 146.673L58.9756 146.453C59.3201 145.748 60.9651 145.827 61.3889 146.453C62.2426 146.027 63.6406 145.851 64.6803 146.014C64.8862 145.392 65.3481 145.4 65.5585 146.014L65.5569 146.017Z" fill="#DD554B"/>
<path d="M55.2485 94.684C52.2254 96.989 49.4843 99.9116 47.7906 103.351L50.6247 103.029L50.8533 103.801C50.8442 104.267 48.3577 105.504 47.7845 105.76C46.2279 106.452 44.3055 106.767 42.8465 107.623C41.2168 108.577 39.1755 110.813 37.4162 112.065C35.7895 113.222 33.7268 114.771 31.7739 115.088C31.5498 114.547 30.8958 113.933 31.1428 113.141C33.5896 111.969 36.3017 110.39 38.3583 108.62C39.366 107.752 39.3828 107.473 40.3158 106.354C41.1223 105.641 43.0279 105.103 43.6179 104.667C43.9472 104.424 43.8664 103.842 44.1226 103.522C44.4259 103.142 45.4474 102.493 45.9276 101.928C47.0207 100.642 47.8805 98.8855 49.1078 97.6492C49.8471 96.9037 53.3703 94.2266 54.2637 94.2571C54.5945 94.2693 54.8842 94.6855 55.2485 94.6855V94.684Z" fill="#DD554B"/>
<path d="M65.7753 27.3316C73.6053 26.9078 81.5694 29.0071 88.9069 31.6445C93.014 33.1218 97.2461 34.8369 100.656 37.4225C100.728 37.2334 100.801 37.2334 100.876 37.4225L101.096 37.642L101.753 37.5795C105.311 39.4486 108.096 41.9854 110.827 44.7859L110.747 45.321H110.528C95.8329 33.2514 69.2741 24.5997 50.6368 30.0743C48.3302 30.7511 46.2218 31.4402 44.2734 32.8154C44.99 31.303 46.0129 30.2663 47.3454 29.3059C53.227 27.8469 59.2092 27.0892 65.2905 27.0298L65.7738 27.3316H65.7753Z" fill="#DEC8BF"/>
<path d="M113.824 90.0764C115.568 90.642 115.281 90.4453 116.967 90.5978C119.158 90.7975 120.861 91.3113 122.38 92.9273C122.569 92.8343 122.634 92.9181 122.599 93.1468C124.122 94.4701 125.679 95.769 127.267 97.0419C127.962 97.2096 128.673 97.3743 129.4 97.5344C129.705 97.763 129.9 98.2265 130.289 98.5101C130.975 99.0101 132.354 99.2327 132.595 100.158C132.624 100.268 132.688 102.106 132.659 102.204C132.577 102.494 131.819 103.032 131.594 103.018C131.379 103.004 129.473 102.08 129.113 101.878C127.163 100.779 124.102 98.286 122.376 96.7675C121.599 96.0845 120.326 94.3496 119.731 93.9273C118.891 93.3313 114.658 92.3906 113.171 91.7107C112.261 91.2945 109.99 90.0246 109.545 89.1952C109.449 89.0168 109.288 88.6129 109.545 88.5351C110.442 88.4284 112.028 89.6114 112.947 89.9697C113.275 90.0977 113.626 90.0108 113.821 90.0733L113.824 90.0764Z" fill="#DD554B"/>
<path d="M107.679 84.151C107.781 84.2866 107.999 84.2135 108.337 83.9314C108.956 83.5015 109.767 83.8369 109.873 84.59L109.864 85.5749C110.922 85.9926 114.786 88.2595 115.055 89.191C115.256 89.8862 114.364 90.2186 113.821 90.0753C113.474 89.9838 112.958 89.0355 112.626 88.7474C110.139 86.6009 105.211 84.8217 103.395 82.8414C103.197 82.6249 102.991 82.5334 103.073 82.1782L107.679 84.151Z" fill="#DD554B"/>
<path d="M130.934 163.789C130.687 161.626 131.478 159.575 131.748 157.473C132.525 151.404 132.586 144.588 132.48 138.439C132.461 137.371 132.079 136.284 132.24 135.148C132.321 134.573 133.992 131.291 134.663 131.978C134.742 133.224 134.01 134.114 133.991 135.375C133.968 136.785 134.408 138.555 134.454 139.976C134.649 146.028 134.515 151.848 133.032 157.658C132.679 159.033 132.176 160.347 131.836 161.731C131.772 161.995 131.446 162.541 131.812 162.692C131.425 163.24 131.429 163.266 130.934 163.789Z" fill="#50587F"/>
<path d="M118.868 159.181C119.005 160.335 119.151 161.505 119.307 162.69C119.76 168.53 120.937 173.346 123.475 178.486C124.138 178.405 124.217 179.304 123.695 179.583C123.076 179.832 122.478 179.917 121.829 180.019C120.815 180.179 120.815 179.672 119.966 180.46C119.429 180.907 119.13 180.675 119.072 179.766C118.929 176.255 118.715 172.756 118.43 169.271C118.36 165.899 117.996 162.544 118.43 159.179C118.493 158.987 118.566 158.99 118.65 159.179C118.715 159.054 118.789 159.057 118.869 159.179L118.868 159.181Z" fill="black"/>
<path d="M14.4412 97.972C16.1181 93.2444 12.4151 88.6358 7.42073 89.8554C7.05637 88.2714 9.89351 86.939 11.0903 86.8338C13.6225 86.6112 16.7508 90.5308 17.0542 92.8374C17.3347 94.9686 17.2341 98.0223 14.4412 97.9735V97.972Z" fill="#EED3CA"/>
<path d="M20.0663 94.3849C19.7842 94.6959 18.2216 95.6197 17.9517 95.3408C18.2521 91.1864 15.1359 85.8079 10.4922 86.1265C10.4282 85.785 10.5273 85.6189 10.6996 85.349C11.9878 83.3382 17.0645 84.0974 18.6195 85.5686C20.7096 87.5444 17.6636 87.7563 17.9533 89.9485C18.2353 92.0874 22.0939 92.1545 20.0663 94.3864V94.3849Z" fill="#EED3CA"/>
<path d="M78.2837 27.5509L77.401 27.8802C73.4845 27.3939 69.6107 27.2109 65.7781 27.3329C63.1818 27.2673 60.8066 27.4975 58.2408 27.8024C55.2909 28.1531 52.1625 29.0114 49.4397 29.2004C48.7827 29.2461 47.9076 29.6593 47.3496 29.3071C48.5631 28.4321 49.1653 28.1089 50.6411 27.7719C57.8475 26.1194 69.3576 25.0491 76.4924 26.8206C77.1022 26.9716 77.7791 27.1667 78.2837 27.5524V27.5509Z" fill="#835840"/>
<path d="M23.8748 86.7825L20.2769 87.0203C19.2402 84.4744 17.3696 83.6039 14.7749 83.2654C14.4593 83.2243 14.13 83.4682 14.223 82.9483C18.0267 80.4344 23.4769 81.7073 23.8748 86.784V86.7825Z" fill="#EED3CA"/>
<path d="M64.0234 83.9322C65.8651 84.0374 67.2966 82.74 69.78 83.5495C70.1093 83.6562 70.2938 84.0618 70.524 84.1105C70.8381 84.1776 71.4067 83.7477 71.8366 83.7187C72.323 83.6852 72.7163 83.9428 73.1279 83.9337C73.9877 83.9154 74.9192 83.2919 75.869 83.4946C75.9681 84.0541 75.7821 83.8895 75.4315 84.0313C72.2925 85.2966 68.7815 85.8866 65.8483 87.8548L64.682 86.565L64.0234 83.9322Z" fill="black"/>
<path d="M65.7769 13.072C67.2496 12.0003 68.8443 11.0383 70.5624 10.1861C71.7729 9.67844 72.7181 10.0901 71.8003 11.2746C68.2345 13.7291 65.3836 17.2142 63.5816 21.1901C62.7462 21.1017 61.0494 21.6124 61.1637 20.4355C61.182 20.2419 62.7919 17.4459 63.0511 17.0404C63.827 15.8207 64.9049 14.534 65.5559 13.5126C65.6077 13.4318 65.6306 13.2855 65.7754 13.0736L65.7769 13.072Z" fill="#835840"/>
<path d="M129.4 97.5346C129.002 97.7099 127.639 97.7053 127.308 97.5636C126.43 97.187 123.609 94.513 122.809 93.6959C122.638 93.5221 122.648 93.1989 122.599 93.147C122.838 92.8132 123.184 92.8223 123.637 93.1745C121.372 88.206 116.321 85.0381 111.265 83.2651L110.753 82.6171C110.157 82.3961 110.361 81.9174 110.973 81.9585C116.327 83.7712 120.663 85.7897 123.789 90.7505C124.492 91.8649 125.491 94.5435 126.107 95.2341C126.659 95.8515 128.555 96.9034 129.4 97.5346Z" fill="#D52B1E"/>
<path d="M50.2009 152.38C50.143 153.237 50.4418 154.772 50.2619 155.383C50.1049 155.912 47.1275 161.826 46.7936 162.245C46.4734 162.646 45.6731 163.198 45.1562 163.349C45.8895 161.666 46.6564 159.989 47.5315 158.376C48.7755 156.083 49.646 156.001 49.7618 153.138C49.7786 152.715 49.5377 152.258 50.2009 152.38Z" fill="#EED3CA"/>
<path d="M49.9822 138.998C50.1331 140.629 50.1987 142.739 50.4213 144.264C50.3587 144.456 50.2856 144.453 50.2017 144.264C49.8114 142.733 49.0538 140.25 48.8861 138.779C48.6772 136.961 49.0797 135.044 49.1056 133.293C49.6605 133.556 49.6377 134.444 49.7276 134.975C49.97 136.407 49.8587 137.643 49.9837 138.998H49.9822Z" fill="black"/>
<path d="M120.405 65.9432C118.652 69.3917 117.021 70.9894 113.604 72.9636C113.149 72.706 113.295 72.2669 114.044 71.6479C116.06 70.3567 118.114 68.483 119.309 66.3822C119.773 65.8807 120.139 65.7343 120.407 65.9432H120.405Z" fill="#D52B1E"/>
<path d="M131.374 107.407C131.6 108.096 130.975 108.188 132.268 108.648C132.172 109.084 131.862 112.52 131.158 112.014L130.934 110.481C130.719 110.41 130.534 111.002 130.498 111.138C130.36 111.731 129.601 111.449 129.619 110.918C129.911 109.49 130.351 108.148 130.717 106.75C130.992 106.889 131.277 107.107 131.376 107.409L131.374 107.407Z" fill="#717171"/>
<path d="M80.6963 8.46403C80.2298 8.43201 78.9857 8.37256 78.6381 8.49147C78.1701 8.65154 78.3942 9.64096 77.6243 9.56168C77.5039 9.97178 77.3118 9.97331 77.1853 9.56168H72.5782C72.4471 8.92596 72.8907 9.16074 73.2733 9.06164C75.5921 8.4625 78.3424 7.88776 80.6947 8.46403H80.6963Z" fill="#DEC8BF"/>
<path d="M113.603 72.9627C112.043 73.8637 111.307 74.1274 109.654 74.7174L109.874 73.8393C111.083 73.3865 112.932 72.3575 114.042 71.6455L113.603 72.9612V72.9627Z" fill="#DD554B"/>
<path d="M121.722 62.8716C121.376 64.5318 121.055 64.666 120.407 65.9436L119.419 66.5976L119.311 66.3811C119.754 65.6021 120.408 64.1583 120.626 63.3092L121.724 62.8701L121.722 62.8716Z" fill="#DD554B"/>
<path d="M135.544 87.8824C135.922 87.8412 135.785 88.6386 135.77 88.8764C135.671 90.468 135.457 92.86 134.332 94.0201L135.542 87.8824H135.544Z" fill="#EED3CA"/>
<path d="M110.97 81.9574L110.751 82.616C110.543 83.5704 108.304 82.5688 108.557 81.7379L108.777 81.2988C109.528 81.529 110.167 81.6845 110.97 81.9574Z" fill="#DD554B"/>
<path d="M72.577 9.56112C74.1091 9.53977 75.6519 9.57636 77.1841 9.56112L76.6383 10.0139L71.8589 10.1648L71.2598 9.78065C71.4976 9.41171 72.1623 9.56721 72.5754 9.56112H72.577Z" fill="#835840"/>
<path d="M83.5461 8.46485C83.255 8.47247 82.9607 8.45722 82.6695 8.46637L83.2138 8.90543C82.5781 8.99538 81.6374 8.50601 81.1328 8.46332C81.6466 8.09896 82.9897 8.08829 83.5461 8.46332V8.46485Z" fill="#DEC8BF"/>
<path d="M50.8598 146.238C50.6418 145.552 50.4253 145.137 50.2012 144.264H50.4207C50.4527 144.48 51.2348 145.494 50.8598 146.238Z" fill="#404040"/>
<path d="M59.1953 91.6106C59.2671 91.5359 59.342 91.4643 59.4154 91.3911L59.1953 91.6106Z" fill="#DEC8BF"/>
<path d="M97.5893 122.982C97.9034 122.339 98.4461 122.549 98.687 123.202L99.2008 123.365C100.931 127.446 103.712 131.07 106.476 134.505L111.63 139.655C111.775 139.139 113.011 139.211 113.425 139.412C113.853 139.62 117.311 143.256 117.594 143.754C117.721 143.977 118.361 147.193 118.219 147.312L117.773 147.555C118.225 148.267 118.233 148.646 117.169 148.639C108.731 148.809 100.216 148.314 91.7474 147.771C82.928 146.768 74.3266 146.132 65.9448 145.864L65.5591 146.02C65.2679 146.026 64.9721 146.001 64.681 146.02C63.6062 145.882 61.9734 146.039 61.3895 146.459C60.5968 146.521 59.7689 146.393 58.9762 146.459C58.9716 146.666 58.8253 146.739 58.5371 146.678C58.4045 146.706 58.2353 146.654 58.0981 146.678C58.0828 146.936 57.8846 147.004 57.659 146.898C57.5309 146.879 57.3541 146.887 57.2199 146.898C56.7656 146.933 53.1144 148.143 53.0488 147.651C53.308 140.473 54.1084 133.189 55.4682 126.169C58.8771 123.754 63.2113 123.089 67.3123 122.768C65.9219 126.092 63.847 129.174 62.4491 132.491C62.3667 132.685 61.7935 133.718 62.2646 133.733L68.7758 122.537C74.9075 122.28 81.0269 121.938 87.1768 122.098C90.3402 122.181 94.5921 122.21 97.5893 122.986V122.982Z" fill="#F7F0EF"/>
<path d="M90.3487 83.713C90.5362 83.7572 90.6093 83.9752 90.5682 84.3716L90.9082 84.8076C88.5863 97.3575 93.3001 110.276 98.2487 121.747C98.2747 122.399 97.5978 122.899 97.1496 122.325C96.2028 122.404 94.7042 121.591 93.7453 121.543C86.1151 121.161 76.9679 120.603 70.603 121.227L70.4536 120.684C72.1611 118.141 73.7268 115.336 74.6095 112.383C75.794 108.422 74.2482 110.95 73.5621 112.956L73.0163 113.109L68.1943 121.34L60.8583 122.559L55.6855 124.515C57.0363 114.957 59.1233 105.48 62.488 96.4351C63.0673 96.3802 62.8432 96.4229 62.9194 96.7629C63.3432 98.6503 63.8158 99.7464 65.7154 100.553C72.7648 103.547 85.0357 94.7414 86.1532 87.5228C86.2782 86.7148 86.4977 84.585 86.1791 83.9279C86.1273 83.2084 87.2966 83.0376 87.4948 83.7084C88.6625 83.2998 89.6123 83.2998 90.3471 83.7084L90.3487 83.713Z" fill="#D52B1E"/>
<path d="M94.5168 79.3257L94.9559 79.5529C94.8339 80.056 95.0535 80.4188 95.6145 80.6429C96.5734 80.5697 100.023 80.3456 100.65 80.7634C100.993 80.9905 101.13 81.5622 101.098 81.9586L99.6774 81.3015C97.9379 85.4818 98.6681 90.9609 99.4136 95.382C101.327 106.72 106.439 119.46 112.947 128.908C113.427 129.374 113.865 129.885 114.262 130.443C114.953 131.448 115.386 131.946 116.237 132.856C116.766 132.655 117.132 133.021 117.334 133.954C117.807 134.148 117.834 134.68 117.334 134.832C117.215 136.061 116.778 136.646 116.019 136.587C116.36 137.451 114.311 138.563 113.531 138.854C112.584 139.206 111.654 139.503 110.973 138.561C110.529 138.872 110.242 138.595 110.534 138.122L110.314 137.683L109.826 137.777C108.895 136.558 107.884 135.475 106.364 135.05C104.169 132.542 99.5752 126.225 98.6849 123.203C98.0476 122.971 97.8876 122.339 98.2336 121.816C95.5566 113.935 92.7575 105.599 91.5669 97.0255C90.9403 92.5144 90.6217 87.8463 91.416 83.4206C91.2696 83.9344 90.9876 84.2515 90.5683 84.3719C90.3579 84.1905 90.3717 83.9618 90.3488 83.7133C89.9997 83.4846 89.9326 83.4023 90.3488 83.2742L89.9082 83.0745C90.0972 81.9845 90.6827 81.0271 91.666 80.2039C91.7514 79.9889 93.285 79.1397 93.6402 78.8882C94.0915 78.8074 94.4574 78.7815 94.5184 79.3273L94.5168 79.3257Z" fill="#404040"/>
<path d="M59.4137 59.3628C58.8786 62.4088 62.7997 64.4852 65.2206 65.2947C68.8078 66.493 76.3771 66.9503 78.9047 63.604C79.1913 63.2259 79.3499 62.1908 79.888 62.2411C81.2464 62.9241 82.4614 63.2153 82.6764 64.9517C83.2847 69.8896 78.019 71.2525 74.3998 72.7115L74.1177 72.6475C71.494 68.6609 66.8808 67.5937 62.8545 70.3683C62.3667 70.7052 61.891 71.5331 61.3346 71.3959C61.0419 71.3242 59.0874 69.8713 58.7566 69.5649C55.8341 66.8619 53.93 60.1708 59.4152 59.3628H59.4137Z" fill="black"/>
<path d="M64.8987 88.978C64.9368 89.0375 65.1121 89.042 65.1304 89.3012C65.1594 89.7083 62.3192 94.4754 61.8588 95.4816C56.6144 106.929 53.6126 130.102 51.9692 144.187C51.9021 144.759 52.2177 145.23 52.1735 145.797C51.5515 145.91 51.8137 145.648 51.6811 145.315C51.0438 143.727 50.5422 140.736 50.4203 138.998C49.7144 128.908 52.9281 110.529 56.6175 100.99C58.4179 96.3354 59.7427 94.2391 63.0311 90.5102C63.455 90.0299 64.2462 88.9048 64.8987 88.978Z" fill="black"/>
<path d="M105.909 58.2485C104.717 58.2561 103.752 57.7408 102.573 58.314C101.058 59.0504 99.332 63.5188 97.9828 60.3904C96.7525 57.5365 99.643 50.1777 99.9708 46.7185C100.07 45.6742 99.9586 44.6116 99.9998 43.5673C100.34 43.5048 100.509 43.5978 100.777 43.7747C102.329 44.7915 105.502 48.24 106.25 49.9292C107.459 52.6581 106.564 55.5135 105.907 58.25L105.909 58.2485Z" fill="black"/>
<path d="M98.6865 123.203C98.3404 123.056 97.9288 123.072 97.5888 122.983L97.1498 122.325C97.319 122.311 98.0203 121.892 98.0233 121.777C97.8404 121.593 97.6544 121.402 97.5461 121.16C93.3705 111.746 89.2908 99.8881 89.9006 89.5183C89.9875 88.0502 90.1781 85.7512 90.5684 84.3715C90.7757 83.6352 91.1889 82.5619 91.8825 82.1777C91.9877 83.6611 91.5045 85.2146 91.4374 86.6659C90.9648 96.7568 93.9803 107.73 97.0903 117.23C97.4089 118.205 98.2139 119.675 98.3816 120.564C98.5401 121.404 98.377 122.154 98.685 123.203H98.6865Z" fill="#717171"/>
<path d="M78.7218 62.2154C77.3756 65.6867 71.6952 65.7447 68.5532 65.2538C65.7069 64.8086 59.8146 63.2627 60.0768 59.5825C60.3131 59.334 63.9247 61.3159 64.5681 61.5614C69.3414 63.3801 73.793 63.0356 78.7218 62.2154Z" fill="white"/>
<path d="M73.2366 72.9627C70.1662 73.5298 66.9479 73.4673 63.9644 72.4749C62.696 72.0526 62.013 71.9397 63.475 70.772C65.184 69.4075 67.7818 69.2078 69.7866 69.9411C70.4452 70.182 73.8769 72.205 73.2366 72.9612V72.9627Z" fill="#DD554B"/>
<path d="M73.0178 113.111C73.5971 111.821 74.0057 110.39 75.1048 109.384C75.5774 109.185 75.4418 109.896 75.4402 110.156C75.4174 113.233 72.44 118.738 70.6044 121.228C70.3407 121.254 69.9123 121.597 69.5083 121.446C69.4885 121.272 69.5053 121.11 69.5464 120.939C69.9763 119.133 72.1305 115.085 73.0178 113.111Z" fill="#DD554B"/>
<path d="M91.6659 80.2029C91.6034 80.363 91.7604 80.706 91.5439 81.0689C91.3899 81.328 90.4752 82.0812 90.3837 82.3236C90.2724 82.6193 90.3639 82.97 90.3487 83.2749C89.4385 83.3862 88.4872 83.5325 87.4963 83.7139C87.0389 83.7398 86.6105 83.7688 86.1806 83.9335C86.0754 83.717 85.4717 83.5279 85.522 83.0553C84.8756 82.8815 85.0936 81.5643 85.7416 81.5201C85.8559 81.5369 87.8149 81.3341 88.0375 81.293C89.0086 81.1131 90.3197 79.7456 91.6659 80.2045V80.2029Z" fill="#242E5F"/>
<path d="M98.4391 72.7702C98.5916 73.0324 98.4041 73.3022 98.2577 73.5233C97.8827 74.0889 95.2895 76.3772 94.6202 76.9062C94.1003 77.3178 90.01 80.1321 89.6914 79.7632L89.728 78.9201C92.7069 77.4825 95.1797 74.8267 97.1433 72.1802L98.4376 72.7702H98.4391Z" fill="black"/>
<path d="M97.5884 76.4734C99.0474 76.4658 100.067 76.2463 101.663 76.1929C103.34 76.1777 105.258 80.021 105.539 81.451L105.266 81.9571C104.895 81.9937 103.744 81.9602 103.555 81.6919C103.182 77.844 100.496 76.6365 96.9298 76.911C96.9573 76.8881 96.8612 76.6152 96.9756 76.5161C97.1707 76.4048 97.3826 76.4734 97.5884 76.4719V76.4734Z" fill="#404040"/>
<path d="M85.7418 81.5194L85.5222 83.0546L82.5799 82.6186L82.4473 82.0667C82.554 81.7268 83.7355 81.7999 84.0465 81.6871C84.3819 81.5667 84.5542 81.1642 84.7981 81.1002C85.2707 80.9752 85.5268 81.4874 85.7418 81.5179V81.5194Z" fill="black"/>
<path d="M130.277 112.234C129.719 115.574 130.514 122.294 132.912 124.847C133.578 125.556 134.337 125.558 134.884 126.274C134.823 126.297 134.485 126.909 134.006 126.713C133.544 126.723 132.486 126.541 132.471 126.055C131.872 125.826 131.181 125.733 130.401 125.777C129.405 125.66 128.899 125.405 128.532 124.437C128.414 124.126 128.539 121.379 128.571 120.85C128.664 119.301 129.242 112.141 129.69 111.436C129.943 111.038 130.367 111.822 130.276 112.234H130.277Z" fill="black"/>
<path d="M152.434 74.5016C152.476 74.8782 151.677 74.7425 151.441 74.7272C148.51 74.5397 145.021 73.5686 142.19 75.1129C139.019 76.8418 141.283 81.5083 144.614 79.7307C145.278 79.3755 145.329 78.8221 146.376 78.8953C146.725 78.9197 150.178 80.1271 149.582 80.6424C148.413 80.6866 147.147 79.7673 145.972 79.9853C145.441 80.0829 145.271 80.586 144.816 80.8131C141.464 82.4886 137.919 78.2855 140.715 75.1755C143.361 72.2331 149.161 73.0457 152.434 74.5031V74.5016Z" fill="white"/>
<path d="M130.496 111.136C130.448 111.307 130.314 112.003 130.276 112.234L129.84 111.577C129.174 114.039 129.5 116.614 129.169 119.134C128.947 120.817 128.832 120.742 128.977 122.655C129.037 123.445 128.55 123.848 129.212 124.817C129.957 125.912 131.284 125.2 132.125 125.436C132.491 125.538 132.414 125.999 132.471 126.053C132.906 126.38 132.761 126.526 132.032 126.493C131.218 126.718 130.424 126.578 129.621 126.419C129.65 126.854 129.634 127.177 129.18 127.371C129.291 128.013 128.604 128.144 128.302 127.59C127.748 122.087 128.512 116.348 129.618 110.917L130.496 111.136Z" fill="#404040"/>
<path d="M152.873 69.6766C152.992 69.7971 153.035 70.1386 152.599 70.0623C150.088 69.6263 147.51 69.326 144.975 69.5608C145.065 68.5287 145.988 68.5378 146.847 68.5592C147.71 68.5805 152.445 69.2421 152.875 69.6751L152.873 69.6766Z" fill="white"/>
<path d="M152.654 65.0639L149.051 64.4068C148.513 62.5317 152.062 64.3565 152.654 65.0639Z" fill="white"/>
<path d="M117.993 126.054C118.222 126.567 118.441 126.713 118.652 126.493C118.923 126.655 119.178 126.856 119.31 126.933C121.007 128.367 122.908 129.39 125.015 130.004C126.282 130.634 127.584 131.194 128.964 131.54C128.988 131.666 129.252 131.72 129.151 132.242C129.031 132.869 128.287 134.22 127.556 134.174C126.043 134.078 122.1 131.399 120.41 130.881C120.435 132.9 120.483 134.912 119.98 136.879L118.652 137.243C118.454 137.19 118.46 137.116 118.652 137.023L118.217 136.255C118.295 134.296 118.191 132.386 117.909 130.521L117.556 130.662L117.107 130.494L116.923 126.868C116.577 126.649 116.464 126.451 116.677 126.054C116.1 125.603 116.1 125.31 116.677 125.176C117.147 125.458 117.583 125.81 117.993 126.054Z" fill="black"/>
<path d="M108.56 81.7378C108.677 81.7789 109.397 82.3308 109.886 82.5077C110.216 82.6266 110.582 82.5549 110.754 82.6159C113.724 83.6511 116.879 85.0384 119.312 87.1102C121.36 88.8527 123.805 91.3331 124.356 94.0224L122.601 93.1458C122.531 93.0711 122.453 93.0025 122.381 92.9263C122.156 92.3744 121.831 91.8835 121.503 91.3911C117.539 87.8252 112.832 85.0399 107.866 83.2059C107.359 82.7988 106.979 82.343 107.682 81.9573C107.894 81.907 108.124 81.5884 108.56 81.7378Z" fill="#50587F"/>
<path d="M115.36 125.396C115.881 124.826 116.572 125.421 116.675 126.055C116.823 126.151 117.121 126.518 117.337 126.648L117.554 130.662C117.932 130.952 117.932 131.537 117.554 132.417C117.622 132.632 117.549 132.705 117.334 132.636C116.909 133.138 116.331 132.489 116.236 131.978C116.124 131.152 114.261 129.199 113.645 128.317C113.113 127.557 111.529 125.398 111.408 124.628C111.353 124.284 111.373 124.265 111.704 124.331C112.785 124.546 114.351 124.971 115.36 125.395V125.396Z" fill="#F7F0EF"/>
<path d="M107.682 81.959C107.567 83.1009 109.035 83.0902 109.806 83.4546C113.451 85.1773 119.281 88.0312 121.504 91.3928C120.996 91.0559 120.472 90.7052 119.906 90.4674C116.375 88.9932 113.416 86.2902 109.876 84.5904C109.362 84.3434 108.859 84.1544 108.341 83.9318C108.044 84.4318 107.775 84.2474 107.682 83.7122C107.028 83.4485 106.409 83.1055 105.705 82.9424C105.717 82.3005 107.213 82.0688 107.682 81.9575V81.959Z" fill="#242E5F"/>
<path d="M105.267 81.9575C104.471 79.9757 104.077 77.9602 102.195 76.6918C102.592 76.6781 102.663 76.2269 103.595 76.7208C104.638 77.2742 106.873 81.1297 105.93 81.8615C105.723 81.9972 105.49 81.9347 105.267 81.9575Z" fill="#666666"/>
<path d="M125.011 130.004C124.312 129.965 123.28 129.892 122.648 129.632C122.456 129.552 121.61 128.601 121.27 128.368C120.645 127.938 119.444 127.881 119.307 126.932C121.04 127.935 123.167 129.086 125.011 130.004Z" fill="#DEC8BF"/>
<path d="M102.613 82.1554C101.587 82.7987 100.87 80.4433 101.651 80.2055C102.503 80.0119 103.174 81.8032 102.613 82.1554Z" fill="#242E5F"/>
<path d="M95.6137 79.3253V80.6409C95.2753 80.6668 94.9018 80.9291 94.5176 80.8589V79.3237C94.8713 79.3527 95.2554 79.3268 95.6137 79.3237V79.3253Z" fill="#DEC8BF"/>
<path d="M117.331 132.635C117.843 132.53 117.847 133.879 117.331 133.951C116.812 133.727 116.574 133.219 116.233 132.853C116.207 132.568 116.271 132.253 116.233 131.975C116.477 131.922 117.308 132.573 117.331 132.634V132.635Z" fill="#DEC8BF"/>
<path d="M116.677 125.176V126.054C116.468 125.92 115.624 125.506 115.361 125.395V124.519C115.996 124.372 116.278 124.935 116.677 125.176Z" fill="#DEC8BF"/>
<path d="M118.65 126.494L117.994 129.126V126.055C118.237 126.2 118.447 126.374 118.65 126.494Z" fill="#212492"/>
<path d="M129.4 128.687H128.522C128.473 128.367 128.353 128.088 128.303 127.589L129.181 127.37C129.815 127.521 129.978 128.348 129.4 128.685V128.687Z" fill="#DEC8BF"/>
<path d="M108.338 83.9319C108.152 84.5936 107.758 85.0769 107.68 84.1515C107.668 84.0066 107.687 83.8572 107.68 83.7124C107.86 83.7856 108.069 83.8161 108.338 83.9319Z" fill="#DEC8BF"/>
<path d="M112.945 128.907C113.5 128.886 113.906 129.925 114.261 130.442C113.718 130.092 113.308 129.435 112.945 128.907Z" fill="#DD554B"/>
<path d="M36.3793 127.809C36.9647 129.065 36.6796 130.861 37.0379 132.037C37.1034 132.252 37.6873 132.372 37.9632 132.918C38.8612 134.692 38.1599 136.132 36.5881 137.124C35.5926 137.752 35.7283 136.888 34.6245 138.121C34.5148 138.243 34.2388 138.313 34.1855 138.56C34.1032 138.511 33.7937 138.615 33.7464 138.56C33.5879 138.367 35.3472 134.68 35.5591 133.901C36.1796 131.625 36.3351 130.105 35.7207 127.811C35.2831 126.407 36.2771 126.58 36.3793 127.811V127.809Z" fill="black"/>
<path d="M21.2396 103.896C20.3142 102.936 20.2197 101.472 19.523 100.24C19.0808 99.4597 18.5076 98.8758 17.9512 98.1944C19.8553 97.7522 22.0598 103.218 21.2396 103.896Z" fill="white"/>
<path d="M36.3804 127.81C36.3057 127.649 35.9261 127.215 35.7248 127.151V127.81C35.4687 126.863 34.0707 125.218 35.5038 124.518C35.8514 125.462 36.7204 126.787 36.3819 127.81H36.3804Z" fill="#DD554B"/>
<path d="M84.2053 28.8679L80.6013 26.8769L75.1328 26.0948C75.4575 25.0307 75.8676 24.1724 77.072 24.0413C80.3025 23.6906 83.0344 24.5352 85.3212 26.8144L84.8654 27.8968L83.7677 27.7733L83.9842 28.1026C85.2496 28.4304 86.4555 28.9655 87.6461 29.4869C96.2841 33.2722 103.428 36.1612 110.532 42.6892C113.078 45.0294 116.783 49.0953 118.74 51.9217C119.327 52.7678 120.274 53.71 119.747 54.7543C119.657 54.6095 118.993 54.1933 118.757 53.8777C117.147 51.7403 115.318 49.7813 113.385 47.9534C112.796 47.1317 111.92 46.2551 110.752 45.3206L106.907 41.5961C105.242 39.942 102.881 39.0045 101.099 37.6415L100.879 37.422C100.813 37.3976 100.72 37.4479 100.659 37.422C95.7657 34.0589 90.0137 31.5876 84.4568 29.4076L84.2053 28.8648V28.8679Z" fill="#835840"/>
<path d="M113.384 47.9537C112.556 47.1716 111.371 46.0099 110.531 45.3208H110.751C111.638 45.6303 112.373 46.6151 113.054 47.2951C113.155 47.3957 113.821 47.8607 113.384 47.9537Z" fill="#DD554B"/>
<path d="M49.3221 124.301C49.374 123.821 49.1249 123.077 49.5421 122.766C49.7683 123.301 49.3419 124.043 49.3221 124.301Z" fill="#DEC8BF"/>
<path d="M65.5572 146.019C65.4352 145.354 65.8926 145.597 66.3148 145.58C74.7866 145.246 83.3514 146.76 91.7759 147.333C97.7475 147.74 104.225 148.059 110.194 148.222C112.715 148.29 115.252 148.152 117.772 148.213C117.781 147.995 117.765 147.774 117.772 147.554C118.257 147.286 118.621 147.652 118.87 148.652C118.896 149.146 118.826 149.711 118.87 150.406C118.804 150.788 118.688 150.963 118.431 150.626C118.461 150.162 118.039 150.033 117.772 149.748C104.195 149.932 89.5806 149.062 75.619 147.389C73.3231 147.213 71.018 147.127 68.7205 147.263L67.7525 146.897L67.7266 146.269C67.0055 146.037 66.3118 146.004 65.5587 146.019H65.5572Z" fill="#DEC8BF"/>
<path d="M117.771 136.364C118.146 135.931 118.438 136.151 118.649 137.023C118.656 137.095 118.635 137.172 118.649 137.243C118.719 137.615 121.48 142.498 121.94 143.385C122.228 144.149 122.375 144.954 122.379 145.798C122.112 146.542 121.711 148.262 120.722 148.204C120.281 148.178 120.252 147.804 120.185 147.772C120.26 147.298 120.016 146.928 119.457 146.663C119.002 144.208 117.819 143.772 118.986 146.707L118.65 147.114C118.778 147.695 118.838 148.044 118.87 148.649L117.772 147.551C117.803 146.522 117.885 145.04 117.339 144.146C117.089 143.735 113.442 139.868 113.16 139.756C112.894 139.65 112.339 139.856 111.63 139.654C110.961 139.316 110.741 138.95 110.971 138.557C112.705 139.279 114.818 137.799 116.017 136.582C116.536 136.384 117.046 136.311 117.553 136.363C117.615 136.171 117.688 136.174 117.772 136.363L117.771 136.364Z" fill="#717171"/>
<path d="M132.031 126.494C132.576 126.199 133.495 126.615 134.006 126.934C134.407 127.394 133.734 128.583 133.463 129.133C131.646 132.821 130.103 133.215 129.398 128.688C129.33 128.251 129.208 127.81 129.179 127.373C129.145 126.866 129.202 126.345 129.179 125.837C130.13 126.043 131.083 126.272 132.03 126.494H132.031Z" fill="#8F2C28"/>
<path d="M118.651 147.118C118.52 146.525 117.289 143.91 118.724 144.297C119.764 144.578 119.57 146.018 119.799 146.41C119.927 146.63 121.436 147.052 120.188 147.775C119.698 147.532 119.189 147.247 118.652 147.116L118.651 147.118Z" fill="black"/>
<path d="M119.09 159.182C119.028 159.374 118.955 159.371 118.871 159.182C118.784 159.08 118.711 159.08 118.651 159.182H118.432L118.871 152.82C118.973 154.915 118.979 157.073 119.09 159.182Z" fill="#DEC8BF"/>
<path d="M122.376 145.799C121.392 145.076 121.956 144.384 121.937 143.386C122.082 143.665 122.748 143.985 122.812 144.602C122.873 145.194 122.509 145.427 122.376 145.799Z" fill="#DEC8BF"/>
<path d="M119.308 162.692C118.953 161.674 118.872 160.315 118.869 159.183H119.089C119.145 160.262 119.22 161.556 119.308 162.692Z" fill="#717171"/>
<path d="M134.007 126.714V126.933C133.324 126.904 132.684 126.648 132.033 126.494L132.472 126.055C132.585 126.16 133.75 126.439 134.007 126.714Z" fill="#DEC8BF"/>
<path d="M118.871 151.941C118.09 151.97 118.034 151.138 118.432 150.625C118.493 150.546 118.761 150.493 118.871 150.406C118.903 150.913 118.846 151.433 118.871 151.941Z" fill="#371D0E"/>
<path d="M77.6233 9.56198C88.6898 11.1551 97.0396 13.7788 105.162 21.842C105.792 22.4671 106.571 23.0952 106.694 24.0373L99.6679 19.4378C99.3935 19.3479 99.2304 19.4927 99.3447 19.761C99.4499 20.008 101.802 22.4869 102.191 22.8391C105.658 25.978 110.603 28.2099 112.904 32.7485C113.844 34.6023 113.282 38.9883 113.373 41.2736C113.41 42.1822 113.969 43.3668 113.383 44.2266C112.157 41.0312 111.896 39.0707 108.756 36.8967C108.167 36.4896 107.009 36.0994 106.647 35.8234C106.185 35.4713 105.098 33.5656 104.272 32.8247C102.7 31.4145 100.026 30.7833 97.9483 30.3915C97.3034 30.2696 96.6631 30.4678 96.1493 30.2177C95.849 30.0714 94.9129 28.9997 94.5821 28.7085C92.8457 27.1778 91.065 25.4567 88.6974 25.3606C87.6562 25.3179 86.6332 25.7509 85.6774 25.5314C85.0401 25.385 84.6971 24.7478 84.1391 24.4383C82.3935 23.4717 80.3583 23.1851 78.3261 23.1927C77.5166 23.1958 76.4494 23.1577 76.0058 23.1074C75.2832 23.0235 73.065 21.2109 71.1288 20.9959C68.932 20.7535 67.9853 21.7978 66.5415 21.8649C65.7396 21.9015 64.61 21.2993 63.5824 21.191C63.4803 20.9136 62.7531 21.1346 63.0321 20.752C64.8249 18.3051 66.2183 15.4619 68.4045 13.3992C68.9518 12.8839 71.5313 11.1033 71.6731 10.745C71.7249 10.617 71.7889 10.2282 71.5862 10.219C70.3071 10.0712 67.6758 12.1384 66.5918 12.9022C66.4074 13.0318 65.9012 13.541 65.7747 13.073C66.508 11.9997 69.9656 9.92482 71.2599 9.78151C73.0909 9.57875 75.3807 9.61534 77.1827 9.56198C77.3214 9.55741 77.4891 9.54369 77.6218 9.56198H77.6233Z" fill="#5A321B"/>
<path d="M78.2826 27.551C80.0861 27.8148 82.475 28.3285 84.2054 28.8667C88.2301 30.1183 96.7217 34.265 100.155 36.6997C100.472 36.9238 100.557 37.0366 100.658 37.4223C99.5436 36.9513 98.5389 36.2302 97.4459 35.6981C88.1737 31.1947 76.1284 27.5953 65.7754 27.33L70.7209 26.8833C73.2151 27.2339 75.79 27.1852 78.2795 27.5495L78.2826 27.551Z" fill="#5A321B"/>
<path d="M72.7971 22.5051C73.3963 23.0845 74.4711 23.3741 75.1739 23.8604L74.9787 25.5633L68.6291 25.138L67.0588 25.1106C66.5237 22.5646 71.1034 21.6865 72.7971 22.5051Z" fill="#835840"/>
<path d="M89.2509 26.6744C89.2845 26.4671 89.3637 26.397 89.5269 26.4686C90.9492 27.0982 94.9511 29.3881 94.6066 31.1352C94.5807 31.2663 94.2788 31.2892 94.0776 31.28C93.1247 30.5269 85.9366 28.9063 85.6988 28.5313C85.4442 28.1304 85.5479 26.961 85.7567 26.7324C86.3833 26.0418 88.5816 26.5448 89.2509 26.6729V26.6744Z" fill="#835840"/>
<path d="M98.6855 31.0616C98.7404 30.8863 98.8304 30.8237 98.9782 30.8847C100.666 31.5814 104.25 34.0695 104.694 35.8852C104.834 36.4584 104.848 36.8974 104.169 36.7648C103.14 35.8791 100.18 34.4018 98.8319 33.6563C97.9477 33.1669 97.0101 32.7187 96.0664 32.3574L96.2829 30.8558C96.3957 30.746 98.4035 30.9594 98.684 31.0616H98.6855Z" fill="#835840"/>
<path d="M65.1189 22.5044C65.3613 22.7727 65.497 22.8733 65.7897 23.073L65.0762 24.875C63.1355 25.2683 61.1475 25.0503 59.1961 25.3568C58.507 24.4375 60.0727 23.3169 60.8944 22.8962C61.8655 22.3992 64.2987 21.7665 65.1189 22.5059V22.5044Z" fill="#835840"/>
<path d="M98.6848 31.062C98.5461 30.0604 100.496 31.1077 100.807 31.2434C102.851 32.1337 105.565 33.9967 105.685 36.4588C105.696 36.6722 105.531 37.6098 105.368 37.654C104.399 37.9162 104.432 36.9939 104.169 36.7667C104.775 36.1462 103.498 34.6995 103.075 34.2391C102.482 33.5911 99.4196 31.3303 98.6833 31.062H98.6848Z" fill="#AD8F7E"/>
<path d="M65.1186 22.5038C62.844 22.6913 60.0739 22.862 59.1958 25.3562C58.7537 25.4263 58.3756 26.0193 57.6621 25.5711C57.6865 22.6501 62.7982 20.5112 64.9036 21.9595C65.1521 22.1303 65.0743 22.455 65.1186 22.5038Z" fill="#AD8F7E"/>
<path d="M89.2525 26.6733C89.1168 25.9583 89.7754 26.2205 90.1367 26.3379C91.0636 26.6383 93.4892 27.9753 94.1996 28.6384C94.6051 29.018 95.8339 30.4892 95.8476 30.9405C95.8979 32.561 94.5883 32.6662 94.0807 31.2804C94.6066 30.5868 93.233 29.3809 92.7665 28.9738C92.3305 28.5942 89.6428 26.748 89.254 26.6733H89.2525Z" fill="#AD8F7E"/>
<path d="M110.53 42.6902C110.501 42.6612 110.502 42.1459 110.361 41.8822C110.141 41.4736 109.879 41.1108 109.652 40.7159C108.773 39.8668 107.958 38.978 107.276 37.9642L107.238 37.205C107.436 37.2248 107.668 36.9915 108.051 37.147C109.208 37.6181 112.55 41.2251 111.96 42.4661C111.726 42.957 110.704 42.8625 110.528 42.6887L110.53 42.6902Z" fill="#AD8F7E"/>
<path d="M68.631 25.1376L66.2192 25.3556C65.7344 22.1236 69.8262 21.4421 72.203 21.904C73.0689 22.0717 72.7365 22.4437 72.799 22.5047C71.0458 22.6373 67.4815 22.677 67.3138 24.9165L68.631 25.1376Z" fill="#AD8F7E"/>
<path d="M107.243 37.2038C108.167 38.3579 108.922 39.4372 109.657 40.7132C109.125 40.3535 106.434 38.5972 106.257 38.2999C106.037 37.9295 106.167 37.3989 106.147 36.9843C106.551 36.8394 106.973 37.1763 107.243 37.2038Z" fill="#835840"/>
<path d="M67.7519 146.896C74.5833 146.27 82.8904 147.922 89.8026 148.43C95.3427 148.835 100.933 148.732 106.464 149.319L117.642 149.299C117.901 149.34 117.732 149.704 117.772 149.749C117.372 149.761 117.104 149.989 116.919 150.322C116.323 151.401 116.404 155.754 116.235 157.316C115.53 163.796 115.076 170.083 115.128 176.634C115.134 177.445 115.335 179.676 115.599 180.332C115.959 181.225 117.084 181.854 117.113 182.876C115.216 181.6 110.477 180.611 108.126 180.126C100.111 178.474 91.911 177.975 84.0369 175.476C75.7526 172.848 69.2596 166.951 60.5119 165.326C60.4418 165.312 60.364 165.338 60.2924 165.326C59.3487 164.934 58.3242 164.814 57.318 164.701L57.2205 164.448C53.5525 163.948 50.8403 164.143 47.3477 165.326C47.5138 164.504 48.3615 164.44 48.8813 163.898C50.0918 162.64 50.9638 159.469 51.7657 157.789C52.2734 156.726 53.0402 155.81 53.3482 154.644L53.7095 154.357C54.5236 153.853 54.3772 153.706 53.2704 153.918C52.7902 153.365 52.2002 153.208 52.9594 152.179C53.868 150.947 58.7084 149.256 60.2909 148.762C62.2743 148.145 65.7746 147.078 67.7488 146.896H67.7519Z" fill="#D52B1E"/>
<path d="M53.2715 153.916C58.2399 151.169 64.2846 152.05 68.9604 155.013C69.2653 155.432 68.5594 155.174 68.4024 155.131C67.3032 154.827 66.2467 154.275 65.1673 153.979C61.2676 152.91 57.528 153.011 53.7105 154.357C53.0977 154.516 53.334 153.99 53.2715 153.918V153.916Z" fill="#DEC8BF"/>
<path d="M64.6815 146.018C63.7272 146.077 62.4664 146.371 61.3901 146.457C61.2636 145.763 61.7346 146.086 62.1432 146.013C62.907 145.877 63.9894 145.51 64.6815 146.018Z" fill="#DEC8BF"/>
<path d="M58.9781 146.458V146.895L58.5391 146.677C58.5635 146.672 58.5939 146.49 58.9781 146.458Z" fill="#EED3CA"/>
<path d="M58.0992 146.677V147.115C57.8492 147.208 57.6861 146.9 57.6602 146.897C57.7303 146.667 57.9209 146.708 58.0992 146.677Z" fill="#EED3CA"/>
<path d="M101.101 37.6443C101.018 37.5818 100.951 37.4995 100.881 37.4248C100.973 37.4583 101.047 37.5605 101.101 37.6443Z" fill="#5A321B"/>
<path d="M118.869 159.18H118.648L118.758 158.965L118.869 159.18Z" fill="#DD554B"/>
<path d="M81.5731 105.214C81.6783 104.903 81.9436 104.604 81.9939 104.25C82.3064 103.849 82.8034 104.169 82.8934 104.669C83.18 106.258 80.4816 112.04 79.5547 113.617C79.3641 113.941 77.5987 116.827 77.1855 116.4L77.6231 114.208C77.2115 114.094 77.4584 113.624 77.8426 113.769L78.2817 112.891C78.2146 112.676 78.1765 112.473 78.2436 112.316C79.1278 110.261 80.2194 108.064 81.2255 106.05C81.3018 105.898 81.4298 105.77 81.5716 105.651C81.5945 105.585 81.5503 105.497 81.5716 105.432C81.6722 105.345 81.6722 105.271 81.5716 105.212L81.5731 105.214Z" fill="#DD554B"/>
<path d="M81.5724 105.652C80.6927 108.152 79.4731 110.533 78.2809 112.892L77.8418 113.77C77.7732 113.895 77.6452 114.18 77.6223 114.209C77.5141 114.343 77.3967 114.454 77.3982 114.645C77.0857 114.669 76.8707 114.752 76.9835 114.342C77.104 113.901 77.7702 112.639 78.0217 112.087C78.8968 110.169 79.9533 108.091 80.9519 106.231C81.1165 105.925 81.0373 105.537 81.5693 105.653L81.5724 105.652Z" fill="#DEC8BF"/>
<path d="M90.3489 83.2758C90.3413 83.4176 90.3367 83.5746 90.3489 83.7148C89.451 83.2605 88.6582 83.7834 87.7801 83.8642C87.6246 83.878 87.5163 83.7148 87.498 83.7148C88.2771 83.0471 89.4083 83.3246 90.3504 83.2758H90.3489Z" fill="#DEC8BF"/>
<path d="M81.5732 105.432C81.5946 105.367 81.5503 105.278 81.5732 105.213L81.7887 105.323L81.5732 105.432Z" fill="#DEC8BF"/>
<path d="M117.772 136.365H117.553C116.925 136.176 116.851 135.663 117.333 134.829C117.319 134.566 117.356 134.319 117.333 133.951C117.31 133.584 117.416 132.866 117.333 132.636C117.412 132.568 117.49 132.5 117.553 132.416C117.861 130.37 118.167 131.622 118.097 133.021C118.381 134.076 118.374 135.035 118.248 136.11C118.23 136.264 117.974 136.336 117.772 136.366V136.365Z" fill="black"/>
<path d="M117.555 136.365L116.567 137.242L116.02 136.585C116.513 136.085 116.823 135.324 117.335 134.83C117.363 135.361 117.478 135.847 117.555 136.365Z" fill="#DEC8BF"/>
<path d="M110.531 138.121L110.311 137.682C110.476 137.885 110.488 138.063 110.531 138.121Z" fill="#717171"/>
<path d="M117.553 130.662C117.574 130.502 117.78 129.555 118.21 129.785C118.301 130.804 118.089 131.979 118.204 132.972C118.266 133.511 118.599 133.883 118.637 134.293C118.72 135.187 118.556 136.156 118.649 137.024L117.771 136.365C118.272 134.883 117.859 133.094 117.987 131.54C117.603 131.552 117.865 131.996 117.551 132.417C117.601 131.854 117.478 131.203 117.551 130.662H117.553Z" fill="#212492"/>
<path d="M77.8438 113.768L78.2828 112.89C78.1273 113.199 78.0328 113.426 77.8438 113.768Z" fill="#D52B1E"/>
<path d="M108.701 20.3885C116.071 27.8938 117.574 36.21 115.832 46.4762C120.425 52.3959 124.523 58.8812 120.519 66.3865C117.47 72.1019 110.787 75.2668 104.611 76.2577C105.103 76.9697 105.831 77.4576 106.235 78.2518C106.55 78.8723 106.723 80.2078 107.006 80.5523C107.212 80.8008 112.232 82.1455 113.164 82.5113C119.367 84.9521 123.849 88.9311 126.177 95.2762L132.909 99.5098C133.684 95.0902 135.089 90.7636 135.876 86.3501C136.484 82.9352 136.135 82.9535 135.609 79.8114C134.143 71.0363 136.048 65.673 137.268 57.2485C137.519 55.5059 137.452 51.28 138.494 50.1381C139.991 48.4992 142.9 49.3514 143.926 51.0909C145.147 53.1597 144.668 55.7605 144.756 58.0473C147.883 58.1129 151.309 58.8385 153.275 61.4851C154.236 62.7764 155.94 67.3423 155.959 68.9126C156.004 72.8885 156.28 77.674 154.451 81.4518C153.41 83.6014 151.675 85.2646 150.237 87.1276C150.543 89.4388 150.511 91.8079 150.47 94.145C150.338 101.554 150.364 110.305 149.363 117.609C148.513 123.818 144.237 127.152 138.076 127.383C137.129 127.418 135.65 126.822 135.268 127.646C134.926 128.381 135.076 131.714 135.097 132.758C135.269 141.622 136.64 151.008 133.63 159.573C132.675 162.294 131.129 164.515 128.56 165.91C128.359 172.533 127.77 180.038 119.846 181.328C119.785 184.424 119.571 187.671 116.051 188.612L112.132 221.219C111.789 221.984 109.936 222.086 109.11 222.145C107.341 222.274 105.445 222.063 103.661 222.138L94.7306 261.102C97.6013 266.437 101.195 271.814 103.994 277.286C104.55 278.376 105.538 280.346 105.692 281.51C105.899 283.068 105.325 287.424 103.891 288.229C98.6974 291.145 88.7454 285.145 84.0635 282.517C80.4961 280.515 74.0718 277.005 71.3703 274.148C69.704 272.386 69.8931 271.88 70.4526 269.706C70.9557 267.75 74.1282 258.708 75.3219 257.682C75.7549 257.31 76.3144 257.226 76.8297 257.048L82.2128 219.86L81.8636 219.56C79.7278 218.947 76.6147 218.723 74.6587 217.77C74.302 217.596 73.8416 217.357 73.7272 216.947C73.5733 216.4 73.4483 214.358 73.4513 213.695C73.4528 213.233 73.6693 212.803 73.68 212.382C73.8248 206.545 74.4118 200.755 74.7776 194.943C70.8002 199.113 66.7144 203.191 62.708 207.333C61.4335 208.652 59.2183 211.931 57.5063 212.222C55.4192 212.578 52.6919 211.443 50.649 210.96L54.6356 229.238L54.9649 229.565C57.7838 229.735 58.7351 233.236 59.5873 235.474C60.3206 237.401 61.8451 241.327 62.1775 243.198C62.525 245.157 61.1255 246.646 59.7154 247.777C54.1493 252.24 40.0688 260.239 32.9798 259.67C29.2157 259.368 28.365 256.577 28.7126 253.194C29.0648 249.765 35.1736 242.3 36.942 238.607C37.5427 237.351 37.9726 236.151 38.1494 234.755C35.8855 228.622 33.4447 222.53 31.3394 216.339C29.7005 211.518 26.9167 204.56 27.9351 199.544C28.0754 198.854 28.6989 197.511 28.6882 197.024C28.6715 196.166 27.4564 194.247 28.1028 192.91L40.5643 173.78C41.1985 171.94 41.54 170.351 42.8572 168.833C43.1605 168.482 43.8649 168.13 43.9716 167.958C44.0737 167.793 43.8039 166.651 43.8664 166.116C44.0402 164.61 46.6776 159.747 47.542 158.16C47.9719 157.368 49.1519 155.984 49.3882 155.399C49.748 154.504 49.4522 153.376 49.7617 152.263C50.1261 150.955 51.0164 150.31 51.7055 149.246C50.4752 145.939 49.533 142.52 49.1138 139.001C46.4535 139.949 41.4378 143.53 38.6967 143.402C37.2484 143.335 34.5836 140.183 33.3792 139.253C28.1592 140.407 23.8936 139.367 21.0747 134.681C16.4509 126.991 14.6717 115.991 12.4276 107.349C8.18642 103.652 0.763509 96.2549 5.55509 90.5029C5.75938 90.2574 6.21825 90.1385 6.28228 90.0288C6.50791 89.6415 6.43017 88.553 7.02321 87.806C7.5324 87.1642 9.02796 86.6763 9.13772 86.5193C9.70485 85.6991 9.29322 84.7539 10.8665 83.7523C11.9627 83.0541 12.6944 82.6333 13.8073 81.8665C16.0484 80.3206 20.5061 80.1346 22.6206 81.9595C23.8418 83.0114 24.7671 86.2952 25.0339 86.5193C25.2474 86.6992 26.1224 86.7251 26.5173 86.902C27.4686 87.3288 28.0525 87.9188 28.5312 88.8366C29.7112 91.099 30.3042 96.2244 29.7539 98.6911C29.2599 100.908 27.7781 102.045 26.5234 103.786L30.5908 112.232C30.7799 112.275 32.5925 111.294 32.9477 111.098C36.3551 109.218 39.2699 106.567 42.319 104.236C45.1302 102.086 46.9886 98.6499 50.3624 96.2641C52.8687 94.491 55.2958 94.0276 57.5307 92.6814C59.1177 91.7256 60.845 89.7803 62.5189 88.675C63.1791 88.239 63.8956 87.8136 64.6868 87.6566L63.8194 84.045C59.6681 82.8879 55.558 81.432 52.6217 78.1299C47.7829 72.6904 47.9948 65.3848 49.3135 58.6373C44.0981 54.7376 37.5564 48.5983 37.9207 41.4773C38.3476 33.1229 48.7586 27.0858 56.1342 25.6878C56.805 24.7944 57.1176 23.4269 57.8935 22.6204C58.4805 22.0122 59.4638 21.7972 59.9684 21.1843C61.2338 19.6491 62.2461 16.8273 63.8224 14.946C75.0124 1.58354 98.3011 9.787 108.714 20.3916L108.701 20.3885ZM114.699 45.3206C115.423 38.4557 115.435 32.4917 111.721 26.4729C104.628 14.9765 87.4846 6.99713 74.1496 10.1453C67.9691 11.6042 64.4963 15.4323 61.6119 20.8611C62.3375 21.0807 63.1044 20.9069 63.8575 21.0258C64.5786 21.1401 65.9339 21.8307 66.3272 21.8307C66.8074 21.8307 68.0103 21.0852 68.7588 20.9877C70.4434 20.7666 72.0518 20.9572 73.6068 21.5868C74.2044 21.8292 75.7381 22.9162 75.9912 22.9497C76.6925 23.0443 78.4167 22.6357 79.4976 22.715C80.92 22.8186 82.6076 23.3522 83.8333 24.0825C84.344 24.3874 85.4631 25.4774 85.6811 25.5399C86.1704 25.6802 88.3871 25.2609 89.3582 25.357C91.0977 25.5308 93.0506 26.4744 94.4013 27.5538C94.909 27.9593 95.8679 29.2247 96.2765 29.4076C98.5618 30.4321 100.306 29.6759 103.144 31.7539C104.788 32.9567 105.485 34.5483 106.648 35.5987C107.003 35.9204 108.134 36.3061 108.718 36.7101C110.824 38.1736 112.188 40.2134 113.176 42.5627C113.595 43.5582 113.356 44.7108 114.697 45.3175L114.699 45.3206ZM65.5528 22.9528C62.8635 21.7698 58.6619 22.0259 57.8829 25.3554L64.7631 24.8889L65.5528 22.9528ZM74.7624 25.5658L75.1176 24.0398C73.4452 22.8232 71.5228 22.0792 69.4205 22.3094C67.8487 22.4817 66.2556 23.0641 66.4354 24.9164L74.7624 25.5658ZM75.8692 25.7945C78.7262 25.9302 81.6929 27.2901 84.4218 27.6834C85.2115 27.7977 85.2999 27.0903 84.8609 26.5659C83.8242 25.3295 81.0617 24.2227 79.464 24.0672C77.9913 23.9239 75.7198 23.7852 75.8692 25.793V25.7945ZM113.604 46.4152C113.818 46.2063 110.327 42.9972 109.979 42.6938C102.513 36.1674 92.3341 31.1989 82.7631 28.6652C73.4193 26.1909 63.4093 25.2487 53.9328 27.5538C53.8779 27.9319 54.4512 27.7855 54.6951 27.7688C56.3157 27.6498 58.0841 27.194 59.7367 27.1041C75.4637 26.2473 94.5584 32.3073 107.311 41.4132L113.604 46.4167V46.4152ZM95.3938 31.7188C96.0951 30.9413 93.8815 28.8679 93.3113 28.4289C91.241 26.8373 88.4999 26.3875 85.9646 26.8952L85.9844 28.188L95.3938 31.7188ZM99.7844 75.3751C111.142 76.0687 127.296 65.8056 118.175 53.3655C105.529 36.1186 72.5 24.5063 51.9098 29.807C47.2859 30.9977 43.8405 32.2356 41.1558 36.3854C35.8077 44.6529 43.374 52.3822 49.6535 57.1677C51.2253 51.4522 52.2665 45.5371 54.0914 39.8887C55.7135 34.8685 57.8448 30.9703 63.5007 29.9915C75.1329 27.9807 98.4139 37.6416 105.7 46.9732C108.823 50.9735 108.448 53.6201 107.043 58.3415C115.967 63.0859 111.354 74.6722 101.971 74.1646L99.7844 75.3751ZM95.1788 68.7952C98.4383 71.3122 99.8485 73.4069 104.448 72.6919C111.86 71.5393 112.624 60.0033 104.718 59.3645C101.904 59.1373 102.399 60.482 100.888 61.8922C99.449 63.2368 97.7461 62.7139 96.8878 61.0506C95.2581 57.8949 98.6441 49.4932 98.9033 45.6468C98.9749 44.5736 99.1274 43.0506 98.3575 42.2487C97.6379 41.4986 94.8389 39.9558 93.7869 39.3597C86.2146 35.0621 72.8537 30.0952 64.1578 31.3057C55.6891 32.4856 54.4832 43.1847 52.7635 50.1869C50.4203 59.7243 46.4688 72.4617 56.055 79.2854C62.0265 83.5358 67.4416 82.7065 74.2319 83.0465C75.1832 83.0937 76.168 83.4474 77.1833 83.2766C77.2672 83.7493 76.973 83.7996 76.633 83.9307C75.6695 84.3057 73.5352 84.5313 72.465 84.5893C70.0836 84.7189 67.6993 84.3789 65.3378 84.1533C65.5893 86.0437 66.1473 87.8853 66.4019 89.7772C66.469 90.2757 67.1291 94.9255 66.3242 94.8966L65.228 92.2698C61.8985 98.5097 66.1961 101.051 72.1357 99.397C75.6924 98.406 81.3865 94.6176 83.2007 91.3764C84.001 89.9449 83.7693 88.1201 84.0147 86.4873C84.2084 85.2021 84.7999 83.4382 84.8639 82.2872C84.8837 81.9396 84.9051 81.9137 84.5377 81.961C83.6855 82.0723 81.5801 83.394 81.3499 81.961C86.9281 79.9151 92.6512 76.5322 96.182 71.6552C96.3878 70.9128 94.8617 69.7983 95.1743 68.7967L95.1788 68.7952ZM105.486 37.2025C105.643 36.4067 105.3 36.0545 104.917 35.4691C103.26 32.9354 99.6076 30.7751 96.5189 31.0876L96.3085 32.0283L105.485 37.2025H105.486ZM111.409 42.0307C110.505 39.7302 108.593 37.9953 106.367 36.9845L106.242 38.0791L111.409 42.0307ZM98.5221 61.0582C98.7767 61.3067 99.231 61.3814 99.5558 61.2351C100.077 61.0034 101.547 58.6007 102.574 58.0961C103.797 57.497 104.546 58.2379 105.719 57.9482C105.96 57.7775 106.777 53.8808 106.802 53.3228C106.974 49.4322 103.134 46.0005 100.33 43.7869C100.487 48.4565 98.1639 53.2298 97.8132 57.7195C97.74 58.6465 97.8285 60.3783 98.5237 61.0582H98.5221ZM143.645 58.2501C143.229 56.0837 144.287 52.2023 141.982 50.8394C140.747 50.1091 139.16 50.286 138.885 51.844C138.462 54.2558 138.509 57.3094 138.143 59.8783C137.253 66.1319 135.614 70.8868 136.451 77.4286C136.82 80.3099 137.943 82.6882 138.393 85.4659L137.3 84.8088L131.838 111.27L131.484 112.23L130.717 110.697C130.045 115.275 129.086 119.885 129.275 124.53C137.205 127.264 146.938 127.201 148.241 116.926C148.841 112.208 148.51 106.997 149.152 102.26L149.144 87.992L147.061 88.5424C145.974 88.4707 148.894 86.4781 149.033 86.3455C151.434 84.0435 154.522 80.0203 154.606 76.5596C154.641 75.1128 154.658 74.718 154.83 73.2743C155.003 71.8244 154.468 71.1125 154.436 70.2298C154.416 69.6688 154.862 69.091 154.805 68.3089C154.712 67.0801 154.042 66.6792 153.701 65.8849C153.213 64.7522 153.24 63.589 152.4 62.3587C150.461 59.517 145.325 58.7303 142.348 59.9118C140.547 60.6268 139.48 61.9623 140.154 63.9686C143.662 62.4776 147.667 62.5858 151.179 64.0189C151.565 64.1759 153.103 64.6592 152.655 65.2842C149.74 64.2506 142.903 62.9913 140.476 65.2781C139.404 66.2874 139.395 69.7755 140.901 69.6749C144.217 68.3272 148.461 68.2113 151.877 69.2434C152.251 69.3562 153.254 69.5483 153.094 70.1093C149.845 69.777 145.667 69.1138 142.515 70.1703C140.357 70.8945 139.125 72.7513 140.729 74.7058C141.137 74.8201 141.87 74.0411 142.415 73.7987C144.825 72.73 149.418 73.0745 151.842 74.1066C152.222 74.2682 152.733 74.3933 152.656 74.936C149.437 74.5671 146.247 73.7087 143.073 74.8963C139.18 76.3538 140.863 80.6529 143.945 79.9364C144.952 79.7032 144.886 78.7473 146.619 78.8799C147.052 78.9135 150.504 80.0233 149.803 80.6392C148.676 80.999 147.132 79.8831 146.188 79.9806C145.415 80.0614 144.852 81.4472 142.898 81.3039C141.175 81.1774 139.535 79.383 139.483 77.671C139.465 77.0429 139.922 76.2181 139.82 75.7867C139.672 75.1586 138.943 74.66 138.834 73.5106C138.69 71.9967 139.486 71.1902 139.489 70.6567C139.489 70.3411 138.478 69.03 138.393 68.0253C138.265 66.5191 139.189 65.4763 139.189 64.7369C139.189 64.2628 138.587 63.531 138.661 62.6056C138.863 60.0856 141.344 58.5214 143.647 58.2501H143.645ZM90.5702 78.8845C91.7288 78.7442 92.9073 77.9042 93.8403 77.2228C94.784 76.5337 97.2202 74.4634 97.926 73.631C98.0602 73.4724 98.3102 73.3398 98.2462 73.0822L97.1531 72.3062L94.7443 75.4955L90.5687 78.8845H90.5702ZM102.306 76.6938C101.228 76.5276 99.8088 76.8157 98.6868 76.6938L101.867 77.7914C103.815 79.1528 102.733 82.7568 105.928 81.5189C105.608 79.4806 104.613 77.0505 102.308 76.6938H102.306ZM101.538 79.3236C101.431 79.0583 101.105 78.7122 100.871 78.5659C99.7768 77.8859 95.9594 77.6283 94.8008 78.1817C94.415 78.3662 94.1544 78.7046 93.8616 78.9973L101.539 79.3236H101.538ZM91.6663 80.4243C89.8308 80.7429 88.0959 81.711 86.204 81.9793L86.1811 83.0556L90.3415 82.8269C90.1952 81.6957 91.1068 81.2155 91.6663 80.4243ZM100.879 81.7384C101.024 81.5677 100.801 81.0219 100.57 80.8435C99.7737 80.2322 94.0232 80.8024 92.857 81.2841C91.5535 81.8223 91.3203 83.5236 91.0733 84.7661C88.1508 99.5128 98.9322 128.956 111.083 138.12C112.243 138.995 112.802 138.629 113.976 137.945C114.731 137.504 117.467 135.171 117.303 134.315C111.946 128.813 108.131 121.91 105.166 114.86C101.737 106.709 97.3162 92.5808 98.7142 83.8514C98.7996 83.3148 99.1563 81.2353 99.7006 81.1042C100.278 80.9639 100.577 82.0967 100.881 81.7399L100.879 81.7384ZM102.414 81.9579L102.193 80.6438H101.978V81.9579H102.414ZM23.8753 86.5635C23.3463 85.286 22.5322 83.1212 21.2455 82.5037C19.2636 81.5539 16.3655 81.8146 14.4431 82.8391L18.2437 84.1898L20.5107 86.7556L23.8738 86.565L23.8753 86.5635ZM124.133 93.805C121.686 87.806 115.258 84.0938 109.217 82.5068C107.762 82.1256 107.36 81.9244 105.928 82.6196L111.119 84.9917C113.717 85.9842 116.242 88.7207 118.53 89.8672C119.286 90.2468 120.134 90.2681 120.919 90.7697C122.126 91.5411 122.689 93.279 124.134 93.805H124.133ZM116.018 89.6339C113.339 87.5956 110.041 85.5573 106.86 84.4231C105.86 84.0664 100.614 82.5022 100.097 83.2584C99.1365 90.8124 100.955 98.8512 103.234 106.038C104.756 110.834 107.206 117.383 109.761 121.669C110.372 122.695 110.734 123.289 112.068 123.417L110.752 122.211C110.718 122.044 110.955 122.076 111.075 122.106C114.955 123.105 119.977 127.184 123.767 129.16C124.349 129.464 128.517 131.551 128.74 131.316C127.805 127.107 127.881 122.344 128.305 118.046C128.877 112.247 130.379 106.145 132.415 100.71C129.488 98.4258 125.88 96.9242 122.965 94.6435C121.187 93.2531 120.916 91.6935 118.484 91.2255C117.17 90.9724 115.841 91.006 114.435 90.6675C112.635 90.233 110.945 89.3824 109.218 88.7543C109.214 88.3457 110.153 88.5286 110.4 88.5606C112.199 88.7954 114.133 89.7223 116.018 89.6324V89.6339ZM18.1721 95.1207C18.5501 95.5308 21.4391 93.43 20.2271 92.5168C18.8718 91.4954 17.0622 90.8718 18.0623 88.5408C18.5989 87.2892 20.0747 87.3608 18.4785 85.7098C16.9311 84.1075 11.3818 83.3346 10.4945 86.1275C11.9124 85.5177 13.5588 86.4355 14.6626 87.3319C16.8716 89.1262 18.1934 92.2972 18.1705 95.1222L18.1721 95.1207ZM89.9101 84.1533L86.3991 84.3743C87.5105 89.4052 82.9034 94.6404 79.1424 97.4059C75.5689 100.034 67.928 103.371 64.1349 99.7263C63.2599 98.8847 63.1897 97.7429 62.49 96.8769C59.1055 105.774 57.3356 115.159 55.6891 124.518C58.4439 122.899 61.4945 122.237 64.6091 121.702C65.4994 121.55 67.6596 121.556 68.1856 121.109L75.1069 109.163C75.5582 109.069 75.4789 109.378 75.4225 109.697C75.3372 110.169 74.8219 111.206 74.5947 111.723C73.1586 114.97 71.1447 117.967 69.7299 121.227C70.4419 121.344 71.1112 121.025 71.8033 120.999C78.9701 120.727 86.6003 120.538 93.7488 121.23C95.031 121.353 96.3329 121.608 97.5876 121.885C94.8008 115.831 92.3036 109.601 90.8568 103.06C89.4908 96.8922 88.7636 90.4053 89.9101 84.1533ZM14.6626 97.7535C16.8046 97.9166 17.2192 95.1512 17.05 93.5001C16.7924 90.9953 14.1183 87.2709 11.455 87.0148C10.4061 86.9142 7.41349 88.2207 7.64216 89.637C12.6792 88.6948 15.9844 92.9314 14.6626 97.7535ZM23.2182 105.431C22.5856 104.801 24.8845 103.428 25.3068 103.025C28.0418 100.423 28.9337 98.9533 28.6989 95.014C28.6181 93.6632 27.9153 89.9373 27.1347 88.8991C26.0325 87.4355 22.8249 87.6261 21.1891 87.9371C20.2561 88.114 18.9724 88.5027 19.0517 89.7299C19.1447 91.192 22.1526 91.9512 23.328 92.0488C23.7579 92.0853 25.0538 91.4268 25.191 92.375C24.9303 92.8842 22.2685 93.4361 21.6846 92.9254C21.5748 94.0489 20.8903 95.2853 19.9192 95.8799C19.2971 96.261 17.9358 96.354 17.7818 96.4851C17.6278 96.6162 17.4464 97.5934 16.7146 98.159C15.6139 99.0112 14.8455 98.5874 14.0071 98.9609C13.5482 99.1652 13.1244 100.054 12.2508 100.289C10.6394 100.723 8.81757 98.4365 9.17888 96.8724H7.20157V96.2198C8.27789 96.0842 9.18651 95.6344 10.2735 95.9973C9.60575 97.8374 11.7416 100.412 13.2234 98.1789C13.879 97.191 13.9247 95.546 13.7311 94.4026C12.9658 89.8778 4.63885 88.6094 5.23037 95.0063C5.71364 100.235 11.7614 105.266 15.5346 108.39C15.0315 109.069 14.344 108.579 13.786 108.28C15.28 114.345 16.7497 120.486 18.8261 126.384C19.91 129.464 21.6907 134.478 24.2107 136.577C28.0937 139.811 34.0881 138.425 37.5884 135.278C36.3429 129.98 34.614 124.728 32.5346 119.696C30.417 114.571 27.6272 109.692 25.6285 104.551C24.6711 104.635 24.3327 105.736 23.2182 105.428V105.431ZM64.9003 88.9799C64.5069 88.5454 59.5919 92.6494 59.0827 93.1418C54.1127 97.9517 51.7101 113.798 50.8899 120.708C50.2542 126.064 49.6138 132.206 50.2313 137.545C50.5057 139.917 51.0835 142.684 51.8503 144.921C52.6278 135.345 53.9069 125.785 55.7577 116.36C57.2792 108.613 59.197 100.179 62.8147 93.1418C63.1608 92.4695 65.2982 89.4174 64.9018 88.9799H64.9003ZM39.6709 141.847C40.0856 142.181 48.6488 138.073 48.8562 137.306C48.35 131.583 48.8699 125.747 49.5742 120.053C50.4798 112.726 51.9311 104.378 54.7058 97.5416C55.1311 96.4943 55.6616 95.4911 56.122 94.4636C51.0439 96.3936 47.5268 100.24 44.0585 104.227C45.0967 104.637 47.7036 103.167 48.4476 103.567C48.7555 103.733 48.6656 103.817 48.4415 104.001C46.792 105.364 43.9182 105.382 42.0324 105.93C40.5033 106.373 39.1739 108.463 37.8979 109.473C36.9679 110.207 31.4735 113.112 31.3561 113.477C31.2769 113.721 31.3363 113.981 31.4324 114.212C34.7314 121.775 38.5016 130.468 39.645 138.695C39.7776 139.652 39.9956 140.992 39.6709 141.847ZM98.4108 123.257C93.9013 122.051 89.1326 122.647 84.5437 122.096L68.9936 122.579L62.0433 134.389L61.6423 134.1L67.312 122.765C63.1974 123.262 58.9653 123.863 55.529 126.334C54.2149 133.363 53.5624 140.608 53.0532 147.772C66.1519 143.576 79.9305 146.465 93.2991 147.343C99.4841 147.749 105.983 148.101 112.167 148.221C114.017 148.256 115.94 148.336 117.746 147.971C117.864 147.831 117.509 144.646 117.344 144.361C117.091 143.922 113.665 140.3 113.284 140.083C112.598 139.693 112.023 139.993 111.349 139.824C110.488 139.606 106.806 135.735 106.029 134.834C103.019 131.343 100.571 127.314 98.4078 123.259L98.4108 123.257ZM117.287 126.756C115.511 125.431 113.537 124.985 111.41 124.521C112.223 125.782 112.981 127.102 113.865 128.317C114.258 128.86 116.96 132.301 117.228 132.415C117.699 132.615 117.566 131.901 117.563 131.641C117.545 130.099 117.159 128.364 117.289 126.756H117.287ZM134.008 126.933L129.182 126.056C129.473 127.942 129.337 130.023 130.493 131.656C131.214 132.106 131.935 131.153 132.342 130.644C132.713 130.179 134.371 127.294 134.008 126.934V126.933ZM134.005 130.662C133.204 131.22 132.766 132.342 131.894 132.827C129.897 133.937 127.557 132.023 125.592 131.508L118.431 127.591L118.914 135.992C119.844 137.818 122.956 141.321 123.053 143.273C123.105 144.299 122.19 147.682 121.277 148.105C120.097 148.653 119.69 146.909 118.87 146.459L119.873 180.002C126.912 178.826 126.858 171.865 127.424 166.205C126.006 166.407 124.601 165.479 124.087 164.166C123.233 161.989 123.308 155.024 123.468 152.482C123.485 152.22 123.812 149.285 124.133 149.749C124.148 150.926 124.502 152.219 124.572 153.371C124.727 155.926 124.537 158.667 124.822 161.239C125.085 163.619 125.489 165.837 128.452 164.486C130.674 163.473 132.146 160.309 132.801 158.087C135.429 149.177 133.633 139.801 134.005 130.663V130.662ZM121.062 146.677C121.141 145.654 122.078 144.364 121.904 143.331C121.791 142.657 119.897 139.571 119.4 138.797C118.859 137.954 118.237 137.179 117.666 136.367L114.267 139.327L121.062 146.677ZM38.5732 141.849C38.7333 141.239 38.2241 136.585 37.8064 136.589L34.6262 138.669C34.986 139.097 38.1769 142.282 38.5732 141.85V141.849ZM117.771 149.31C115.368 149.628 112.853 149.596 110.413 149.537C105.858 149.427 101.173 149.133 96.6028 148.868C84.3242 148.156 70.3672 145.489 58.3158 147.881C57.4087 148.061 54.0136 148.785 53.4221 149.13C52.9388 149.412 51.0271 152.296 50.9127 152.982C50.7633 153.876 51.0118 154.838 50.7603 155.682C50.556 156.365 49.0315 158.291 48.5528 159.178C47.3697 161.367 46.2538 163.659 45.3772 165.982C50.9204 163.29 56.2714 163.854 61.9976 165.487C70.4724 167.903 76.8236 173.204 85.1353 175.695C94.816 178.596 106.646 178.491 115.636 182.051C116.536 182.406 117.313 182.977 118.21 183.314L117.771 149.311V149.31ZM75.014 216.639C81.4551 218.173 88.0227 219.507 94.63 220.168C98.205 220.526 102.019 220.825 105.588 220.837C107.325 220.844 109.037 220.59 110.767 220.514L115.04 183.305C103.459 179.561 90.7974 180.017 79.522 175.166C75.2899 173.344 71.4923 170.586 67.2435 168.796C59.8754 165.695 48.7616 162.576 43.3526 170.429C42.441 171.754 42.4303 172.958 41.8281 174.39L29.5816 192.963C37.0045 194.369 43.4807 198.017 49.6611 202.174C52.7788 204.272 56.4742 206.635 58.4332 209.861L73.8873 193.943C74.3294 193.561 77.6803 192.352 77.845 192.529C78.4121 193.134 76.6071 193.594 76.3769 193.91C76.2061 194.145 76.1253 194.739 76.0933 195.053C75.6039 200.014 75.1679 205.65 74.985 210.619C74.9118 212.617 75.0383 214.642 75.0155 216.639H75.014ZM116.239 187.042C116.49 187.327 117.94 185.741 117.961 185.359L116.783 183.973C116.271 183.88 116.496 184.203 116.463 184.523C116.376 185.362 116.249 186.2 116.239 187.042ZM30.0191 194.285H29.3621V195.16L30.0176 194.285H30.0191ZM49.9447 203.975C44.1301 200.23 38.401 196.575 31.6214 194.764C31.1945 194.742 31.0482 195.152 30.8546 195.448C27.0158 201.322 30.5619 209.754 32.5925 215.732C33.9631 219.766 35.5257 223.758 37.0365 227.742C38.1738 228.425 46.9414 226.303 48.6671 225.763C49.6824 225.446 52.1613 225.039 51.9479 223.819L48.0116 205.575L48.1168 204.813L49.2144 205.685C49.7114 205.269 50.1337 204.653 49.9447 203.972V203.975ZM57.2212 210.955C57.6222 210.568 55.9178 208.653 55.5839 208.318C55.1402 207.873 51.3457 204.841 51.0835 205.034C51.0652 205.825 49.9355 206.78 49.809 207.388C49.7495 207.67 50.0697 209.16 50.2587 209.367C50.5545 209.692 56.9636 211.206 57.2227 210.955H57.2212ZM94.7352 254.612L102.175 222.272L83.3287 219.95L79.1973 251.168C79.3588 251.698 80.4961 251.997 81.0206 252.203C85.1856 253.833 90.2836 254.59 94.7337 254.612H94.7352ZM39.2349 233.771C42.1223 232.428 45.4458 232.874 48.2311 234.316C49.19 234.813 51.2222 236.632 51.9037 236.805C52.9175 237.063 54.3856 234.834 54.3887 233.884C54.3948 231.659 52.6187 228.227 52.3931 225.876C47.6762 227.808 42.5705 228.853 37.4771 229.169L39.2349 233.775V233.771ZM42.6529 246.149C41.3418 245.251 39.6175 244.449 38.0823 244.027C37.3338 243.821 36.0471 243.321 35.3946 243.867C33.4966 247.425 24.8617 257.197 34.8991 255.656C36.323 255.438 38.125 254.818 39.5063 254.34C47.0298 251.744 53.9572 246.972 60.0934 242.004L60.2001 241.658C59.2824 239.382 58.7397 236.854 57.828 234.592C57.6801 234.223 55.9772 230.142 55.2485 230.922C55.4131 232.825 56.308 233.63 55.3354 235.506C54.9878 236.179 53.3703 237.982 52.672 238.124C51.2222 238.42 49.0833 236.302 47.7951 235.631C45.9093 234.648 43.6789 234.162 41.5537 234.451C38.8065 234.826 39.2791 236.772 38.3537 238.819C39.8264 238.819 41.4744 239.353 42.819 239.949C43.6164 240.301 46.3346 241.597 46.0145 242.634C45.8391 242.967 45.6821 243.044 45.3116 242.949C44.8177 242.824 43.1819 241.501 42.2992 241.127C41.4332 240.76 38.2424 239.764 37.5213 240.184L36.3795 242.329C38.401 242.557 40.857 243.471 42.5888 244.568C43.1499 244.925 45.0037 246.356 43.4761 246.68C42.9654 246.788 42.8328 246.276 42.6513 246.152L42.6529 246.149ZM30.4582 256.81C30.7021 257.211 31.193 257.766 31.6138 257.957C34.4357 259.236 40.5414 256.915 43.3313 255.751C46.8011 254.301 59.104 247.735 60.598 244.718C60.7734 244.365 61.2551 243.152 60.409 243.647C59.5842 244.131 58.7457 245.024 57.9545 245.584C53.0303 249.056 47.4734 252.734 41.8632 254.941C38.4208 256.296 34.1064 257.929 30.4582 256.812V256.81ZM93.4134 260.751C93.5766 259.39 94.0492 257.935 94.2108 256.592C94.2382 256.363 94.3571 256.211 94.0888 256.033C88.8749 255.97 83.78 254.712 78.9427 252.859C78.7795 255.44 77.9685 258.335 77.848 260.868C77.7855 262.181 77.7261 263.012 79.2979 263.16C80.5449 263.276 83.0436 261.789 84.4782 261.358C87.419 260.475 90.3781 260.28 93.4134 260.751ZM94.223 262.808C92.3173 261.096 87.2315 262 84.9188 262.675C82.5771 263.356 79.496 265.802 77.287 263.62C75.6451 262 76.915 260.28 76.6406 258.345C75.9104 258.723 75.5155 259.844 75.1756 260.609C73.9956 263.259 73.1739 266.136 72.253 268.883C77.5142 273.141 83.2006 277.091 89.25 280.178C92.2121 281.69 100.219 285.508 103.306 284.572C105.352 283.951 103.637 279.638 102.971 278.304C102.58 277.524 99.9247 272.811 99.5542 272.507C98.641 271.757 95.8405 271.674 94.659 271.755C93.3052 271.848 91.337 272.613 90.2333 272.615C89.9147 272.615 89.6341 272.598 89.4954 272.252C89.1051 271.081 91.6435 270.83 92.4987 270.691C94.5645 270.355 96.4 270.391 98.4703 270.628C97.4992 267.009 93.8266 267.056 90.7394 267.614C90.0625 267.736 87.5913 268.735 87.265 268.305L87.105 267.7C87.3809 266.223 94.9242 265.575 96.278 266.46C95.6286 265.434 95.1148 263.606 94.2275 262.809L94.223 262.808ZM103.731 285.985H100.33C99.1395 285.985 94.6224 284.172 93.2717 283.61C85.5118 280.379 78.4655 275.45 71.8124 270.406C70.4175 272.26 73.1266 273.946 74.4834 274.975C79.0463 278.437 94.6407 287.566 99.9537 287.679C101.237 287.706 103.321 287.394 103.731 285.983V285.985Z" fill="black"/>
<path d="M58.4804 58.3196C60.8755 57.9172 63.0449 59.6993 65.2265 60.4631C67.7587 61.3504 71.3322 61.98 74.0123 61.7834C76.7031 61.5852 79.3161 60.1353 81.9017 61.9953C85.989 64.9345 83.3622 69.1742 80.1074 71.3863C73.4802 75.8898 61.8237 75.3577 56.6922 68.7763C54.2972 65.7044 53.6721 59.1261 58.4804 58.3181V58.3196ZM59.4165 59.585C52.8443 61.0165 57.2273 69.5782 61.5417 71.1744C62.4717 70.6485 62.993 69.8161 64.0251 69.345C67.7084 67.665 72.003 69.0248 74.2196 72.33C74.5901 72.577 76.3037 71.8376 76.8281 71.6165C77.9441 71.1455 80.0174 70.1042 80.9016 69.3282C83.4827 67.0597 83.2951 63.346 79.7277 62.4267C78.4349 66.0795 73.1875 66.5963 69.829 66.3935C67.094 66.2289 63.0647 64.997 60.9517 63.2042C59.9699 62.3703 58.7442 60.8946 59.418 59.585H59.4165ZM78.7216 62.2163C73.7699 63.3551 68.9097 63.439 64.1273 61.5608C62.7339 61.0135 61.5539 60.0256 60.0751 59.8015C60.348 62.9374 64.263 64.0686 66.876 64.7348C70.5821 65.68 76.4866 65.9788 78.7216 62.2148V62.2163ZM73.2363 72.7432C70.6157 69.406 65.8256 68.4699 62.708 71.7598C65.9491 73.2874 69.7589 73.5161 73.2363 72.7432Z" fill="black"/>
<path d="M80.475 50.366L78.5008 49.9285L78.6319 49.2516C81.5407 48.4848 84.4769 49.6998 86.8186 51.3737C88.0504 52.2549 90.0216 53.7612 89.8173 55.4229C89.1496 56.3284 85.7941 53.7855 84.794 53.3983C83.0667 52.7306 81.7571 52.7092 79.9201 52.7717C79.2127 52.7961 76.8009 53.7185 76.9564 52.2412C77.0707 51.1542 79.5207 50.331 80.4765 50.3645L80.475 50.366Z" fill="black"/>
<path d="M84.3789 41.6527C86.5819 41.3889 88.7055 41.7121 90.4557 43.133C91.3918 43.8937 92.9849 45.685 91.5137 46.6089C90.7881 46.7857 89.1675 45.1956 88.3092 44.842C86.338 44.0294 84.8775 44.2489 82.8925 44.7734C82.0891 44.9853 79.0721 46.6287 79.4181 44.3846C79.6453 42.9104 83.0922 41.8097 84.3805 41.6542L84.3789 41.6527Z" fill="black"/>
<path d="M58.7564 46.4156L57.2228 46.1976C56.7608 45.7906 58.4256 45.2006 58.7 45.1549C60.8938 44.789 62.9916 45.3668 64.7524 46.6763C65.5009 47.2328 68.0316 49.794 66.2815 50.3245C64.9094 50.7407 62.7126 48.6521 60.624 48.5988C59.5202 48.5713 56.6465 49.3946 56.0656 49.2391C54.0411 48.7009 57.828 46.2205 58.7564 46.4156Z" fill="black"/>
<path d="M61.7811 38.3625C63.7081 38.1765 65.6854 38.8549 67.1992 40.0608C68.207 40.8642 70.0638 42.9178 68.9509 44.2151C67.6886 45.6878 66.2312 42.7714 65.2296 42.0305C64.3042 41.3444 62.6455 40.7133 61.5006 40.7163C60.5935 40.7194 58.6345 41.5198 57.8737 41.0487C57.3356 40.7148 58.0719 39.98 58.3326 39.7391C59.1086 39.0211 60.7383 38.4616 61.7811 38.361V38.3625Z" fill="black"/>
<path d="M107.681 64.8453L104.612 64.4093C104.955 65.6853 105.543 66.8135 105.22 68.1993C105.103 68.7039 104.673 69.335 104.174 68.8868C104.013 67.5209 103.966 65.9033 102.932 64.8651C101.999 64.5938 99.1374 67.53 98.9088 67.2586C98.6328 63.6775 103.958 61.9472 106.705 63.301C107.411 63.6486 107.8 63.9901 107.681 64.8453Z" fill="black"/>
<path d="M66.2335 54.2974C66.1786 54.2654 66.0642 53.7836 66.1008 53.6357C66.3143 52.7713 70.1423 49.0744 71.0357 48.4966C71.7263 48.0499 72.4002 48.0956 71.9703 48.9905C71.6608 49.6369 67.8342 53.962 67.3067 54.1998C67.0491 54.3157 66.4454 54.4239 66.2335 54.2959V54.2974Z" fill="black"/>
<path d="M68.1911 76.6954C67.2825 78.4349 63.2974 77.6162 63.1465 75.5962C63.8478 75.77 64.2853 76.2914 65.0628 76.4194C66.098 76.5917 67.1743 76.2959 68.1911 76.6939V76.6954Z" fill="black"/>
<path d="M69.5082 155.448C66.5384 154.776 63.7729 153.376 60.6217 153.261C57.9996 153.163 55.6411 153.985 53.1653 154.576C52.6515 153.971 53.9169 153.451 54.4367 153.215C57.8776 151.652 62.3719 151.983 65.8356 153.309C67.0019 153.756 68.6834 154.553 69.5067 155.448H69.5082Z" fill="black"/>
<path d="M82.6694 103.899C80.9635 107.878 79.0776 111.814 76.8518 115.53C76.7771 115.653 76.6491 116.376 76.3076 115.963C76.1658 115.792 77.7925 112.365 78.0227 111.866C78.852 110.07 79.8414 108.026 80.7988 106.306C80.965 106.009 82.2349 103.487 82.6679 103.901L82.6694 103.899Z" fill="black"/>
<path d="M21.4623 104.115C21.072 104.201 21.0293 104.001 20.8403 103.753C20.2686 103.001 20.0185 101.386 19.5276 100.458C19.0032 99.4671 18.1327 98.9549 17.7363 97.9746C20.328 98.2246 21.6788 101.816 21.4638 104.115H21.4623Z" fill="black"/>
</g>
<defs>
<clipPath id="clip0_2117_22834">
<rect width="160" height="160" fill="white"/>
</clipPath>
</defs>
</svg>
