<svg width="160" height="160" viewBox="0 0 160 160" fill="none" xmlns="http://www.w3.org/2000/svg">
<g clip-path="url(#clip0_2117_24708)">
<path d="M107.355 125.068C107.497 124.601 107.432 124.475 107.162 124.683C104.763 127.686 102.654 130.898 100.838 134.32L96.1089 130.357C95.5836 127.49 95.2722 124.54 95.1733 121.509C94.0011 117.268 93.2833 113.005 93.0187 108.724C93.2914 106.88 93.5373 95.5228 92.1379 95.1914C91.6139 95.0671 91.2972 95.4654 91.4001 96.0401C91.5538 99.1677 91.5725 102.263 91.4589 105.325C89.3591 98.3818 86.8744 91.2912 83.0237 85.1389L83.1133 84.8716C84.5461 85.3581 86.0203 85.83 87.5374 86.2871L87.9223 86.0251C88.191 85.2713 86.4507 84.1125 85.8065 84.4867C83.3191 83.7275 80.7903 83.0485 78.2187 82.4511C77.9033 82.3936 77.5531 82.3428 77.2123 82.3442C77.2163 82.3442 77.2203 82.3428 77.223 82.3415C78.0998 82.1062 79.5406 81.4781 80.0351 80.8325L80.3385 81.1613C83.7121 81.184 88.767 83.2677 89.708 86.7923L90.0394 87.1799L90.113 87.6477L91.642 88.4457C94.1989 90.5214 96.6782 92.7053 99.0801 94.9962C99.457 95.305 99.9048 95.6258 100.044 95.0657C100.048 94.6888 99.7845 94.5311 99.5666 94.2932C97.2008 91.7216 93.7257 89.4628 91.6647 87.1893C91.2557 86.7375 91.0406 86.0451 90.6115 85.5493C88.1923 82.7505 84.9685 80.9448 81.3824 80.0599L84.4646 77.471C87.0455 74.4369 88.2939 70.5234 88.9234 66.6393C90.832 65.8868 92.9706 65.4979 94.5558 64.0945C95.3751 63.3687 97.6406 60.7049 98.3102 59.768C98.5067 59.4926 98.6818 59.2627 98.6965 58.9045C98.2701 58.8324 97.8197 59.0556 97.3452 59.5742C97.7863 56.2006 95.4125 52.2444 91.8291 52.5531C92.0991 46.1322 88.354 39.9438 82.6508 36.9405L87.814 38.928L88.3072 38.7101C88.775 38.7984 88.7844 38.6794 88.6628 38.2624C88.5679 37.9376 83.5891 35.4195 82.9556 35.5117C82.8126 35.5331 82.6736 35.5785 82.5346 35.6333C76.7445 33.1927 70.4104 32.6661 64.1806 32.9588C60.5745 33.1286 57.0567 33.5509 53.6764 34.8648C53.5334 34.802 53.3891 34.7458 53.238 34.7138C52.2129 34.4986 48.1911 36.307 47.0029 36.8911C45.7104 37.5259 41.9546 39.5415 41.1741 40.4637C40.9869 40.6856 40.8439 40.9222 40.7865 41.2109C40.606 41.517 40.6702 41.545 40.9789 41.4034L41.7528 41.3833C44.1386 39.9692 46.5859 38.6179 49.1508 37.5647C44.859 39.8596 40.7103 43.4416 39.3015 48.252C38.6199 50.579 38.7856 52.6667 38.9834 54.959C33.9766 55.9948 32.4823 61.6084 35.0151 65.6382C35.3426 65.8494 35.948 66.5979 36.3744 66.8759C38.8177 68.4598 41.0992 68.8554 43.8205 69.7215C44.7962 72.6259 45.8922 75.676 47.9104 78.039C48.5012 78.7314 49.2216 79.2005 49.8151 79.79C49.9741 79.9477 50.0917 79.957 50.0195 80.2564C49.4729 80.3486 48.9289 80.4689 48.3903 80.6146C48.5814 80.8178 48.7378 81.0704 48.85 81.3738C49.5397 81.2695 50.2588 81.2482 51.0126 81.3284L51.3682 81.0263L51.4256 81.4674C52.3893 81.8737 53.2728 82.3549 54.0774 82.9109C53.2086 83.0606 52.2891 83.1327 51.3174 83.1247L51.1757 83.527C51.1102 84.1378 52.0111 84.4346 52.523 84.2969C52.8464 84.6658 53.369 84.7848 54.0921 84.6551C54.0306 85.7578 53.8047 86.8311 53.4145 87.8763L53.6764 88.3347L53.218 88.9576C49.9086 97.3473 47.1539 105.855 45.2359 114.54C44.8951 115.982 44.438 117.312 43.8646 118.531C43.7243 118.715 43.5906 118.904 43.4797 119.103C43.3714 119.298 43.2712 119.493 43.2137 119.7C41.9693 124.202 40.7156 128.761 39.7453 133.309C39.1411 133.161 38.3886 133.164 37.4838 133.315C36.7219 127.688 37.457 121.978 38.3338 116.394C38.9099 112.469 39.5889 108.568 40.3721 104.686L40.2091 103.721L39.7466 103.807L38.4782 106.991L38.2603 106.957C38.3017 105.205 38.1307 98.3029 37.0721 97.3981C36.7152 97.092 35.809 98.1252 36.2127 98.5903C36.917 106.481 37.6081 114.546 35.6353 122.315L26.5251 132.551C25.6403 132.138 24.7969 131.47 23.9963 130.545C23.3802 129.933 22.8215 129.711 22.3176 129.878V130.071L22.0703 130.337C17.9082 127.216 12.7985 124.471 7.58579 123.198C7.42941 123.159 7.25699 123.178 7.07922 123.202C6.89745 123.226 6.71968 123.278 6.54192 123.338C0.659626 133.522 6.81191 138.005 14.3382 144.299C18.5498 147.821 23.9522 150.221 27.7962 154.002C28.3563 154.553 29.8211 155.721 29.9628 155.895C30.0898 156.047 30.1566 156.613 30.3611 156.939C31.4224 158.625 32.763 159.89 34.6288 160.653C35.4923 158.662 35.8411 156.464 35.5912 154.306C35.4014 153.921 34.5647 151.933 34.6395 151.789C34.6622 151.746 35.3185 151.191 35.3666 151.191C35.4749 151.193 35.3091 152.338 35.2396 152.52L35.5898 152.767C35.7248 152.897 35.9066 152.997 36.063 152.916C36.1325 152.88 36.6003 151.739 36.6858 151.52C36.746 151.367 36.746 151.199 36.7446 151.036C39.792 152.201 43.9381 151.789 42.524 147.433C43.9702 146.4 44.1092 144.285 42.9597 142.974C43.7978 141.503 44.0049 140.054 42.9597 138.604L44.0691 137.053C60.0573 136.762 76.0508 136.756 92.0069 137.342L92.8409 141.487C92.8824 141.724 93.0828 141.734 93.3074 141.613C94.0813 143.116 94.3646 144.855 94.3272 146.583C94.124 149.642 94.4381 152.583 95.0222 155.589C94.9955 159.194 95.2895 162.694 95.9364 166.168C96.0674 167.078 95.5488 167.966 94.6547 167.387C86.6338 166.759 78.4794 166.434 70.508 166.471C69.5697 166.475 68.6395 166.634 67.7199 166.811C67.5542 166.884 67.5515 166.948 67.7199 167.003C68.737 167.519 69.9079 167.654 71.2311 167.405L71.3754 167.581C71.5305 168.165 72.7842 168.326 73.379 168.348C80.4869 168.598 87.6069 168.746 94.7188 168.73C94.783 169.282 94.9541 169.604 95.2321 169.696L94.9982 170.496C95.8055 180.739 97.0725 191.296 98.5134 201.482L98.8876 201.626C99.2057 201.359 99.0935 200.948 99.0587 200.594C98.5602 195.459 98.0121 190.314 97.5417 185.179C97.0311 179.604 96.9202 173.984 95.9899 168.459C97.8117 168.048 96.6716 164.907 96.5807 163.444C96.4657 161.603 96.451 159.734 96.3748 157.889C97.3826 157.532 98.3557 157.038 99.0801 156.233C99.2993 155.776 99.3367 154.974 98.6951 155.08L98.2287 155.059C97.7956 155.589 97.2957 156.154 96.6061 156.329L95.4285 144.736C96.7785 143.094 96.8894 140.888 96.7157 138.852C96.3949 136.849 96.2412 134.853 96.2545 132.866C96.4711 132.834 99.318 135.413 99.449 135.746C99.4944 135.861 99.6962 135.865 99.85 135.845L100.042 136.037C99.5185 136.207 99.457 136.688 100.042 136.807C99.9048 138.041 99.997 139.325 100.322 140.663C100.316 142.188 100.544 143.596 101.003 144.885L100.81 136.424C102.114 136.525 103.634 134.657 104.082 133.538C104.487 132.978 104.012 132.8 103.401 132.943C103.011 132.815 106.965 126.347 107.394 125.783L107.354 125.076L107.355 125.068ZM29.2451 136.608C28.9109 136.695 28.8601 136.469 28.6677 136.322C28.2587 136.009 26.6615 134.456 26.731 134.027L29.8211 131.03L29.2451 136.607V136.608ZM92.9104 133.828C88.0199 117.11 81.3664 100.909 74.2852 84.9906C74.0606 84.4854 73.9978 84.1165 74.5939 84.1285L74.6487 83.7155C75.5817 83.4482 80.6099 84.3236 80.936 84.7059C82.0814 86.0492 82.8326 87.5261 83.5958 89.0992C86.2329 94.5324 88.5037 100.317 90.6623 106.006C90.8147 106.389 91.106 106.697 91.3881 106.989C91.3707 108.361 91.5685 109.765 91.9815 111.205C92.2047 113.767 92.6471 116.273 93.3114 118.722L92.9893 119.228L93.7645 124.997C94.0144 127.951 94.2484 131.155 92.9104 133.829V133.828Z" fill="#EED3CA"/>
<path d="M47.4076 84.0966C47.1443 84.1635 46.8824 84.2356 46.6244 84.3252C46.5536 84.3492 46.4827 84.3773 46.4119 84.404C46.3865 84.4161 46.3437 84.4361 46.2809 84.4655C46.2301 84.4949 46.1793 84.523 46.1285 84.5511C45.8011 84.8718 45.5044 85.2755 45.1715 85.7994C44.9724 85.881 44.7746 85.9678 44.5781 86.0547C44.4859 86.2084 44.3977 86.3661 44.3161 86.5279C44.2266 86.7056 44.1464 86.8874 44.0622 87.0692C44.3175 86.5212 44.0328 87.1494 43.9887 87.2616C43.8844 87.5316 43.7855 87.803 43.6866 88.0756L43.8323 87.9914C42.1282 91.9383 40.8196 96.1245 39.7611 100.335C39.7129 100.529 39.7196 100.737 39.7303 100.95C39.741 101.167 39.7784 101.384 39.8239 101.6C39.9923 101.443 40.1554 101.281 40.2984 101.103C40.4374 100.93 40.571 100.754 40.6579 100.561C42.3647 96.7554 43.8416 92.8887 44.9844 88.9778C45.769 86.4731 47.6028 84.7288 50.2145 84.1942L50.5981 83.713C50.3896 83.0875 49.1131 83.3027 48.4154 83.4577C48.1468 83.7625 47.7979 83.9937 47.4063 84.094L47.4076 84.0966Z" fill="#EED3CA"/>
<path d="M135.444 4.47146C135.474 4.63319 135.436 4.77086 135.317 4.87511C125.81 7.50684 116.254 10.2655 106.92 13.2568C106.566 13.8021 106.101 13.5883 105.887 13.0029C104.95 12.2223 102.645 13.2929 101.776 13.8957L102.17 13.9986C102.985 24.2569 103.806 34.5151 104.635 44.7774L106.632 44.3497L106.971 44.6705C107.355 44.744 107.737 44.8041 108.116 44.8522L108.151 40.4255L108.511 39.6703C108.566 39.5019 108.63 39.5046 108.703 39.6703C109.456 40.789 109.54 42.5493 109.249 43.8538C114.913 41.6939 120.858 40.0927 126.877 38.8523C134.573 37.2671 143.138 35.6646 150.942 34.8747C151.237 34.8453 151.539 34.868 151.844 34.8974C152.151 34.9281 152.456 34.9869 152.761 35.0538C153.055 34.3908 154.206 35.3906 153.531 35.8236C149.743 36.3823 145.924 36.9865 142.144 37.6147C131.054 39.4605 119.862 41.3344 109.314 45.2786L111.779 77.6198C115.278 78.9177 117.444 79.5659 118.46 83.4834C120.029 95.7973 122.033 108.119 122.556 120.549C122.764 125.503 123.005 129.514 118.904 133.052C118.377 133.506 116.792 134.171 116.562 134.426C116.402 134.604 115.779 134.453 116.06 135.23L120.628 190.169C120.309 191.86 114.984 192.375 114.68 190.163C113.507 174.261 112.196 158.376 111.013 142.475C110.838 140.128 111.248 136.707 111.267 134.463C110.997 134.391 109.916 134.582 110.068 134.209L109.136 133.877L108.706 134.491C107.983 134.328 107.294 134.134 106.59 133.914C106.265 133.721 106.178 133.54 106.1 133.219C105.415 130.433 107.503 125.896 108.725 123.319L108.515 123.144C108.457 123.259 108.393 123.256 108.322 123.144C108.111 122.59 108.282 121.964 108.836 121.261L107.558 104.478C107.282 104.072 107.101 103.624 106.975 103.142C106.509 103.381 105.667 102.539 105.314 102.151C104.759 101.542 103.861 100.211 104.282 99.4876L107.65 102.372C107.829 102.22 107.766 101.736 107.753 101.499C107.599 98.806 107.428 94.6399 106.967 92.091C106.859 91.4935 106.148 91.0311 106.031 90.1423C105.946 89.4927 106.545 87.6442 105.552 87.9636C105.382 88.0184 104.782 89.0008 104.099 89.204C102.666 89.6304 100.988 88.8057 100.815 87.2766C100.592 85.3079 101.958 81.7432 103.722 80.7501C104.379 80.3799 105.061 80.3612 105.43 80.15C106.406 79.5913 105.696 77.2763 105.63 76.3073C104.276 56.0394 102.427 35.7822 100.821 15.5277C100.942 14.2659 100.347 13.2047 101.524 12.388C103.279 11.1717 105.18 12.1515 106.986 11.8841C111.404 11.2306 117.99 8.24329 122.604 6.91874C126.381 5.83478 130.544 4.78823 134.45 4.33246C134.759 4.29637 135.249 4.11192 135.448 4.47013L135.444 4.47146Z" fill="#EED3CA"/>
<path d="M40.9816 41.4004C43.7149 39.7204 47.2301 37.8344 50.22 36.6917C50.9444 36.415 51.9389 35.8202 52.3331 36.7825C51.4122 36.6903 50.617 37.2463 49.8284 37.646C43.1442 41.0249 37.4784 47.1999 39.637 55.2487C35.7729 55.6471 33.5341 59.2411 34.3361 62.9528C34.4604 63.5275 34.7905 64.2226 34.9937 64.7959C35.0806 65.0419 35.4267 65.4495 35.0191 65.6353C33.8362 64.8708 32.3793 64.4738 31.1082 63.4861C26.7416 60.0979 26.7497 55.2153 29.7824 50.8781C30.4279 49.9546 31.2032 49.2609 31.7485 48.3239C33.76 45.8459 36.4519 43.948 39.1157 42.165L39.8294 42.169C39.9831 41.8081 40.61 41.3617 40.9842 41.3991L40.9816 41.4004Z" fill="#371D0E"/>
<path d="M88.3078 38.7079L88.9694 38.5568C90.6562 39.1529 92.2748 39.9121 93.6943 41.0161C94.6259 40.6392 95.8248 41.9892 96.3875 42.747C103.088 47.1537 104.324 52.6257 98.6957 58.9036C98.1932 59.4649 97.3405 60.0918 96.7737 60.6345C97.6987 56.8533 95.7219 52.8916 91.5798 52.746C91.4555 44.939 87.1557 38.7653 79.8433 36.1082C79.608 35.6538 80.4167 35.8596 80.6198 35.9104C82.6902 36.4196 86.2161 37.8778 88.3065 38.7079H88.3078Z" fill="#371D0E"/>
<path d="M90.4265 33.1301C90.1819 33.6461 88.6274 33.5111 88.5031 32.9377C87.9845 32.8588 87.9204 32.7599 88.3107 32.3603L87.8429 32.0355C87.3363 26.0316 83.1047 22.6794 78.0217 20.0423C72.8464 17.3585 66.7075 15.4592 60.872 15.5862L60.4149 15.2413C58.4474 15.1732 55.8959 15.5287 54.2586 16.5873L53.8777 17.15C47.1413 20.1092 41.2603 25.803 39.8249 33.1529C39.5642 34.2609 39.0523 34.8944 38.2905 35.0508C38.2758 35.6255 37.4324 35.5814 37.3281 35.0508C37.3896 34.5389 37.4618 34.019 37.5206 33.5124L37.8868 32.4351C38.3747 24.6669 45.4064 19.1829 52.1428 16.3935C55.1193 14.8337 60.7851 13.727 64.176 13.8834C66.1608 13.9756 67.8396 14.4046 69.9313 14.4608C74.8125 14.5918 78.4801 15.7439 82.5995 18.3529C86.7188 20.9619 88.8119 24.1563 90.1404 28.8932C90.492 30.1455 90.8568 31.8724 90.4278 33.1261L90.4265 33.1301Z" fill="#835840"/>
<path d="M136.214 4.4716C138.502 4.0185 141.217 4.34998 143.576 4.75095C145.793 5.12653 148.376 5.64913 150.259 6.77988C150.379 7.71816 149.79 8.19665 149.66 9.06811L148.911 9.08682C148.976 9.68828 148.893 10.1601 148.731 10.7335C148.18 12.6876 146.646 15.5171 145.835 17.5514C145.301 17.5019 145.173 16.9245 145.45 15.8205L145.327 14.9998C146.045 12.9549 146.627 10.8605 146.96 8.71792C147.273 8.60431 147.042 8.54149 146.266 8.5308C142.912 7.38669 139.549 6.75181 136.175 6.6235C129.038 7.79301 122.018 9.72169 115.117 12.4122C112.63 13.2169 110.103 13.8464 107.516 14.2086C107.405 14.2246 107.282 14.1752 107.151 14.1204C107.02 14.0656 106.899 13.9854 106.78 13.8985C106.733 14.1164 106.609 14.2661 106.407 14.3476L106.972 17.7452L107.432 18.1154C107.698 18.7463 107.858 21.2684 107.357 21.7843C107.153 22.7507 107.217 23.9683 107.55 25.4385C108.195 25.8208 108.266 28.1745 107.55 28.5154C107.427 28.8655 107.298 28.8014 107.165 28.3229C106.589 28.248 106.228 26.862 106.107 26.2686C105.487 22.331 104.712 18.4282 103.779 14.5601C103.232 14.2781 102.614 14.2393 101.998 14.2768L101.778 13.8972L101.666 13.5243C102.67 12.7825 106.16 11.3777 106.399 13.3184L106.726 12.9402L121.359 8.37041C125.159 7.18486 129.605 6.51925 133.032 5.03698C133.491 4.83783 134.947 4.52373 135.448 4.4716C135.699 4.44621 135.964 4.48631 136.218 4.4716H136.214Z" fill="#DD554B"/>
<path d="M39.4419 90.0634C40.9015 90.292 39.7613 91.4882 38.6146 91.8117C34.7211 94.4568 31.1457 97.547 27.8885 101.081C28.2106 101.609 27.5129 101.382 27.6573 101.208C28.4793 100.223 30.428 101.096 28.3643 103.183C26.4971 104.509 24.507 105.655 22.3925 106.62C19.44 110.579 16.1199 114.337 12.4323 117.896C11.6009 119.411 10.4729 120.326 9.04405 120.643C8.13384 121.033 7.02849 119.558 7.80638 118.729C11.4606 114.554 15.2404 110.421 19.1473 106.331L19.6244 105.447C20.5948 104.589 21.2069 103.848 22.7039 103.714C22.5061 103.292 22.3577 102.855 22.6919 102.455C24.4522 100.822 26.0467 99.0052 27.7949 97.3639C28.3175 96.8733 28.9564 96.5779 29.4349 96.0219C29.6528 95.7372 29.9094 95.5448 30.2048 95.4445C30.416 95.2333 30.579 95.2333 30.7822 94.8671C30.8798 94.676 31.0722 94.5477 31.3596 94.4822C31.4344 94.4488 31.4906 94.3218 31.5521 94.2897C33.4099 93.3381 35.0339 91.8197 36.9305 90.9149C37.7244 90.5366 38.8231 90.3669 39.4406 90.0581L39.4419 90.0634Z" fill="#DD554B"/>
<path d="M87.9244 86.0237C88.4055 85.4931 89.8998 86.5209 90.0402 87.1772C90.8782 87.6049 91.4797 87.8294 92.3324 88.4442C94.9802 90.3542 97.1454 93.0661 99.5633 94.8785C99.7344 95.0069 99.9937 95.0202 100.044 95.063C101.178 96.0053 103.489 98.2962 104.277 99.4871C104.626 100.014 104.809 100.888 105.152 101.401C105.51 101.938 106.413 102.504 106.971 103.141C108.33 106.227 105.063 104.407 103.724 103.03C101.814 101.274 99.8587 99.6114 97.8592 98.0449L96.5814 101.456C96.163 102.707 95.7139 103.077 95.2341 102.565C95.1419 102.476 95.0604 102.382 95.0176 102.273C94.8144 101.75 95.7955 97.7963 96.0026 96.9877C95.599 96.4236 95.476 95.7086 95.6338 94.8438C92.5997 92.0985 89.5697 89.452 85.711 87.9885C84.5054 87.4017 83.1407 86.1587 83.1113 84.8702C83.1648 84.8328 83.1995 84.6243 83.3145 84.5762C83.9066 84.3316 84.2167 84.8702 84.7406 85.068C85.7016 85.4316 87.0836 85.6642 87.9203 86.0237H87.9244Z" fill="#DD554B"/>
<path d="M47.9079 31.3989C47.9507 30.8763 49.1576 29.9287 49.6709 29.6293C52.0366 28.2499 54.6069 27.7794 57.2266 28.5092C60.6228 26.6273 63.153 26.0633 66.9248 27.3758C70.6298 25.9737 74.9443 26.2638 78.0813 28.8447C79.8763 28.4651 81.2075 28.3729 82.9878 29.0465C83.8058 29.3566 85.657 30.0744 85.4231 31.014L85.0876 31.2666C83.1041 29.9086 81.1647 29.5036 79.2655 30.053C79.2788 30.3617 79.0904 30.5381 78.6988 30.5823L78.9166 32.2236C80.9282 32.6018 82.9157 33.1578 84.7628 33.9424L85.0368 34.477C85.367 34.2084 85.7492 34.4156 86.1863 35.0986C86.487 34.6401 86.8105 34.4329 87.154 34.477C87.3959 34.5292 87.5763 34.8152 87.6966 35.3365L90.7868 36.9257C90.9111 37.1208 91.026 37.3146 91.002 37.5539L91.443 37.471C92.3907 39.4825 93.3891 38.6552 92.6192 36.8588L91.3562 34.5171L91.5794 34.0908C91.6328 34.1349 91.8908 34.1255 92.1568 34.3715C94.024 36.1023 93.2728 38.1847 93.9866 39.8581C94.3194 40.6387 96.4084 41.6184 96.3884 42.7465C95.5637 42.2038 94.5453 41.4567 93.6952 41.0156C88.9009 37.5432 83.7844 34.7805 78.0104 33.3222L77.3421 32.7448L77.0975 32.2998C77.9436 29.7456 75.8024 28.4277 73.6024 27.9251C72.9621 27.7794 71.5775 27.4694 71.1845 27.9358L70.8958 28.3007C70.3304 28.2606 67.9433 28.7445 67.807 29.1C67.688 29.4074 68.1264 31.006 68.4913 31.2051C69.4055 31.2198 71.3115 31.5179 71.5694 32.3586C71.1043 32.8785 68.5301 33.1204 68.5875 32.1661C68.5474 32.3158 68.4833 32.539 68.3656 32.551C67.8497 32.6005 64.4802 32.6032 64.2904 32.4227C64.2249 32.3612 64.1902 32.2677 64.1621 32.1661L63.8988 32.555L59.9759 32.8812L59.6405 32.551L59.5095 32.3252C56.3124 33.6684 53.1099 34.5372 49.9035 34.9288C44.9073 36.5635 40.403 39.81 36.2837 43.0165L35.7852 42.9376C36.2155 41.0771 35.2853 39.4211 36.2543 37.5405C36.9253 36.2387 37.0963 36.9297 37.3249 35.0518H38.2872C39.1894 34.719 40.1184 34.461 41.0767 34.2766C41.8786 33.079 42.5576 32.3145 43.9062 31.697C44.5959 31.3815 46.0301 30.8242 46.5607 31.3962C47.098 31.3695 47.0913 31.6582 46.6516 31.9643C44.8445 32.3973 43.3221 33.3824 42.7287 35.2108C42.5242 35.8417 42.1994 36.9537 43.0976 36.9738C44.4128 35.692 46.141 35.001 47.8545 34.3875L48.2915 34.6655L48.4265 34.2672C48.8168 34.3608 49.1563 34.3006 49.4464 34.0881L49.8233 33.5869L56.9192 31.6529C57.0047 30.0663 56.8884 30.0543 55.2899 30.0356L55.0252 29.664C52.9682 29.0946 49.8874 30.5074 48.7527 32.3666L48.2915 32.3572C48.1606 32.9133 47.7729 32.8544 47.5217 32.3572C46.6529 32.265 46.8828 30.8522 47.9066 31.3949L47.9079 31.3989Z" fill="#EED3CA"/>
<path d="M35.7846 42.9394C38.6596 40.432 46.3209 35.2794 49.9711 34.5216C50.5578 34.4 51.1433 34.543 51.7634 34.3893C54.7119 33.6635 57.5602 32.5261 60.5047 31.7803L59.6412 32.5528L59.3713 33.0113L53.6774 34.8611C48.442 36.199 45.0952 38.121 40.7874 41.2085C40.4707 41.5026 40.1499 41.8233 39.8251 42.1709C39.0673 42.6654 38.272 43.1038 37.5329 43.6304L31.7441 48.3258C33.0834 46.0269 33.6969 44.7598 35.7846 42.9407V42.9394Z" fill="#835840"/>
<path d="M144.487 21.2052C147.947 24.7846 151.577 28.2691 154.187 32.5689C154.464 33.0246 155.65 35.0054 155.647 35.3516C155.643 36.0506 154.576 35.7766 154.106 35.8234H153.913C153.791 35.8421 153.652 35.8047 153.529 35.8234C153.484 35.3142 152.792 35.1017 152.759 35.0536L152.323 34.8758C150.263 31.7428 147.992 28.797 145.51 26.0397C144.988 25.4903 142.765 22.463 142.982 21.8749L143.332 21.5902C143.63 20.9874 144.127 20.3164 144.487 21.2052Z" fill="#DD554B"/>
<path d="M100.046 136.801C100.678 139.426 100.924 142.218 101.008 144.879C101.107 148.03 101.281 153.788 99.0845 156.227C98.9723 156.089 98.6996 155.134 98.6996 155.074C98.598 154.629 98.5045 154.182 98.4376 153.73C98.3708 153.281 98.3093 152.833 98.2986 152.384C98.1823 147.276 98.0727 141.867 98.1476 136.951C98.4256 136.161 99.9266 135.923 100.047 136.801H100.046Z" fill="#50587F"/>
<path d="M36.5569 166.422L36.5742 166.822C34.0695 168.314 33.9452 166.368 34.2486 164.307C34.2152 163.998 34.29 163.649 34.2486 163.344C34.1764 162.955 34.2406 162.699 34.441 162.574C34.4624 161.857 34.5306 161.346 34.6335 160.651C34.9463 158.537 35.2911 156.423 35.5959 154.304C35.1829 153.932 34.9797 152.978 35.5959 152.765C35.6025 152.742 35.8418 152.685 35.8752 152.562C36.0744 151.814 35.9581 151.447 36.7507 151.034C38.0832 150.918 38.1247 151.961 38.1474 153.026C37.8881 156.946 37.5526 160.968 37.1369 164.897C37.0821 165.413 36.9859 166.131 36.5582 166.421L36.5569 166.422Z" fill="#DD554B"/>
<path d="M85.4232 31.0138C85.9111 30.5286 87.0525 31.6781 86.578 32.1673C87.0298 32.5522 87.6192 32.73 88.345 32.6966L88.5014 32.9358C88.9357 32.9639 90.0972 33.0187 90.4247 33.1283C90.549 33.1697 91.3483 33.9022 91.5795 34.0906C92.0299 35.1746 94.2447 37.9761 92.8399 38.9117C91.9163 39.5278 91.49 38.0015 91.0021 37.5524C90.3846 35.7279 89.2672 34.231 87.4508 34.1347L87.1541 34.4756C86.0127 36.447 85.9218 35.0436 85.0383 34.4756C83.9837 32.333 81.7971 31.1274 79.5583 30.4765L79.2669 30.0528C79.18 29.3618 80.8575 29.2749 81.2598 29.295C81.884 29.3244 84.7937 30.6342 85.4232 31.0152V31.0138Z" fill="#AD8F7E"/>
<path d="M10.7752 122.183C11.239 122.183 11.6881 122.377 12.1225 122.761C13.7932 123.835 15.3958 124.989 16.9328 126.223L17.6238 126.205C18.3656 126.561 20.5804 127.921 21.1003 128.449C21.2714 128.623 21.3195 128.878 21.3582 129.108C21.7298 129.389 22.0506 129.71 22.3206 130.071C22.4689 130.28 22.7376 130.987 22.2284 130.838C21.7632 130.7 19.7156 129.06 19.0339 128.644C15.1645 126.289 10.9824 124.358 6.54492 123.338C6.91783 122.694 7.22657 121.857 7.69972 121.222C8.55647 120.644 10.1764 121.484 10.7779 122.185L10.7752 122.183Z" fill="black"/>
<path d="M108.508 123.144L109.085 122.761C109.301 123.011 107.763 126.261 107.543 126.892C106.734 129.216 106.117 131.436 106.585 133.916C105.656 133.627 105.012 132.924 104.084 133.531C103.81 132.817 103.518 133.637 102.931 133.531C102.847 133.448 103.101 132.553 103.182 132.341C104.125 129.871 106.032 127.466 107.355 125.069C107.527 124.365 107.912 123.723 108.51 123.146L108.508 123.144Z" fill="black"/>
<path d="M19.623 105.45L19.4412 106.518C15.8766 110.228 12.4442 114.024 9.11749 117.932C8.05892 119.176 6.95224 119.214 9.04131 120.645C9.74569 120.405 11.1397 121.236 11.1571 121.991C11.3549 122.202 11.2266 122.267 10.7722 122.184C9.82855 121.78 8.70583 121.418 7.69404 121.221C6.42696 119.323 7.56439 118.419 8.74993 116.987C11.7733 113.338 16.176 108.496 19.623 105.45Z" fill="#EED3CA"/>
<path d="M52.1398 16.3981C47.1116 19.0312 39.5278 24.2652 38.3329 30.1956C38.1204 31.2515 38.4559 32.6282 37.5176 33.5157C38.5267 24.7076 42.6086 20.4707 50.5305 16.8098C50.8754 16.6507 51.7949 16.1174 52.1384 16.3981H52.1398Z" fill="#EED3CA"/>
<path d="M108.703 134.493C108.799 132.648 109.255 130.839 109.47 129.009C109.605 127.865 109.484 126.16 109.667 125.167C109.727 124.837 109.871 124.627 110.242 124.686C110.164 127.873 110.445 131.04 110.449 134.229C110.449 134.583 110.243 134.845 110.243 134.88C109.818 134.651 109.216 134.611 108.703 134.495V134.493Z" fill="black"/>
<path d="M150.256 6.77956C145.804 5.56595 140.869 4.2013 136.211 4.47129C136.104 3.88988 136.505 4.09838 136.875 4.08635C140.6 3.96205 145.29 4.25743 148.763 5.67421C149.391 5.93083 150.157 6.01905 150.254 6.77956H150.256Z" fill="#EED3CA"/>
<path d="M145.833 17.5515C145.355 18.7505 144.879 19.9748 144.486 21.2058C144.01 21.1483 143.781 21.1363 143.586 21.584L143.331 21.5894C143.237 21.5787 143.149 21.5613 143.074 21.5199C142.676 21.2966 144.649 16.632 144.975 15.9851L145.447 15.8193L145.832 17.5502L145.833 17.5515Z" fill="#EED3CA"/>
<path d="M30.2074 95.4483C29.9882 95.6675 29.9213 96.0591 29.4375 96.0257C29.5752 95.8666 29.4428 95.2825 30.2074 95.4483Z" fill="#EED3CA"/>
<path d="M31.3617 94.4867C31.2628 94.7527 31.0677 94.8703 30.7843 94.8717C30.8164 94.8128 30.7202 94.5776 30.8004 94.5068C30.9126 94.4092 31.2508 94.5362 31.3604 94.4867H31.3617Z" fill="#EED3CA"/>
<path d="M153.914 35.8229H154.107C153.992 35.8336 153.923 35.8215 153.914 35.8229Z" fill="#EED3CA"/>
<path d="M36.7483 151.034C37.4928 150.645 39.3333 151.393 40.4881 151.213C41.5132 151.053 42.4929 150.078 42.4836 149.013C42.4782 148.48 42.0238 147.845 42.1628 147.326C42.2604 146.967 42.9621 146.623 43.1439 146.177C43.3898 145.571 43.3604 144.573 43.1626 143.949C43.0289 143.528 42.5651 143.168 42.5397 143.025C42.513 142.878 43.4847 141.511 43.2775 140.18C43.196 139.65 42.4889 138.777 42.5504 138.463C42.6012 138.201 43.7908 137.22 43.7948 136.597C52.4678 136.771 61.0888 136.362 69.7512 136.409C74.6377 136.436 79.6606 136.656 84.5498 136.81C87.108 136.89 89.6742 136.886 92.2311 136.982C92.5706 137.075 93.3111 140.486 93.6105 140.884C93.8043 141.427 93.4942 142.805 93.283 143.565L93.3178 147.503C92.731 150.42 92.9769 153.127 93.4808 156.053C93.3071 159.873 93.7963 163.502 94.9484 166.938L94.657 167.383C88.9097 167.291 83.1758 167.146 77.4405 166.997C74.222 166.912 70.9648 166.858 67.7236 166.807C64.9756 166.848 62.1955 166.78 59.4515 166.614C56.7476 166.834 54.0544 166.834 51.3705 166.614C47.8299 166.594 38.8521 166.99 35.9744 167.638C35.8408 167.072 36.743 165.282 36.7563 164.778C36.8526 161.188 37.6077 157.611 37.7173 154.024C37.7467 153.051 38.0087 151.284 36.747 151.035L36.7483 151.034Z" fill="#D52B1E"/>
<path d="M85.4037 115.856C87.5917 122.578 90.5669 129.091 91.965 136.032C90.206 135.78 88.4431 135.917 86.6761 135.838C86.3059 135.822 85.937 135.658 85.528 135.641C71.6957 135.039 57.806 135.71 43.9884 135.431C43.3375 134.23 42.4634 133.354 40.9824 133.531L45.2287 117.006L55.884 116.213L85.405 115.856H85.4037Z" fill="#F7F0EF"/>
<path d="M74.0734 88.1403C74.5292 88.0454 74.3835 88.2031 74.5051 88.3889C75.4434 89.8244 76.915 93.6884 77.6274 95.4554C79.8955 101.081 83.0539 108.456 84.7166 114.142C84.7874 114.385 84.8863 114.614 84.8476 114.875L67.3304 115.37L57.1977 115.481L45.6016 115.836C48.0021 107.248 50.4694 98.6618 53.9712 90.4499C55.6353 98.0457 64.7427 100.901 70.7881 96.1063C71.8934 95.2295 74.0747 92.3051 74.0747 90.9297V88.1403H74.0734Z" fill="#D52B1E"/>
<path d="M83.1137 84.8689C84.3233 87.6851 87.4763 88.0954 89.83 89.5977C91.9846 90.9744 93.7542 92.8871 95.8085 94.3921L96.005 94.773C95.9903 95.5094 96.0317 96.2539 96.0037 96.9864C95.9475 97.3365 95.878 97.4141 95.7938 97.2176C95.4062 99.4804 95.048 101.826 94.6978 104.117C94.6858 104.2 94.8021 102.859 95.2338 102.564C95.6882 102.585 95.7337 102.293 95.9141 101.995C96.3846 101.217 97.4552 97.4448 97.8508 97.3793C100.718 99.6635 103.236 102.512 106.339 104.444L106.968 104.487V103.141C107.251 103.465 107.85 104.031 107.925 104.398L109.23 121.464C108.783 121.919 108.59 122.694 108.315 123.145C108.124 123.666 107.636 124.528 107.16 124.683C105.048 128.065 102.951 131.455 100.9 134.877L95.7938 130.564C95.6709 130.392 95.2739 128.372 95.2432 128.019C95.0627 125.891 95.1349 123.763 94.7901 121.565C94.2875 118.357 93.0258 114.616 92.7317 111.506C92.2412 106.321 93.7622 101.273 92.0955 95.9839C92.0327 95.7821 92.0461 95.4025 91.7707 95.4479C91.8429 99.3735 92.0608 103.271 91.7667 107.179C91.7547 107.196 91.3925 107.007 91.3845 106.987C91.2896 106.767 91.2307 105.881 91.0944 105.448C88.8984 98.47 86.4939 91.4395 82.7354 85.1456C82.6071 84.6925 83.0201 84.9317 83.1124 84.8676L83.1137 84.8689Z" fill="#D52B1E"/>
<path d="M52.523 84.2932C53.0483 84.1782 53.8436 84.4028 54.445 84.1021C54.6108 85.5763 54.0922 86.9476 53.6765 88.3323C52.6874 89.6836 51.5941 92.2418 50.7748 94.2534C47.8116 101.524 45.5822 108.888 44.5918 116.648C44.4889 117.367 44.2456 117.994 43.8647 118.53C42.8181 123.565 41.0806 128.483 39.9993 133.514L37.131 133.727C36.162 126.782 37.3983 119.753 38.5103 112.888C38.9902 109.926 39.482 106.609 40.2091 103.72C40.1463 103.571 40.0915 103.42 40.0634 103.265C40.0354 103.11 40.01 102.964 40.0487 102.84C41.3907 98.505 43.9743 91.7313 46.4242 87.8699C47.0324 86.9115 47.4721 86.3502 48.3903 85.6859C49.2939 85.031 51.4818 84.0058 52.523 84.2945V84.2932Z" fill="#404040"/>
<path d="M93.3125 118.723C93.8512 122.961 95.2532 129.542 93.4635 133.587C93.255 134.057 93.0198 134.693 92.568 133.989C91.6739 131.105 90.8425 128.21 89.8535 125.355C85.2957 112.188 80.0135 97.7584 73.9802 85.2533C73.8198 84.9205 73.8105 84.4527 73.6955 84.2362C73.5792 84.017 72.1291 83.8232 73.5939 83.5171C73.61 83.9969 74.2154 83.8379 74.6512 83.7162L76.243 84.2736C79.7663 84.8055 80.8396 86.0833 82.4287 89.1976C87.2485 98.6405 90.7957 108.525 93.3125 118.723Z" fill="#404040"/>
<path d="M74.6504 83.7162C74.6798 83.7082 74.7359 83.4088 75.1262 83.334C76.829 83.0105 79.1025 83.9902 80.8187 84.1894L81.2023 84.4313C83.3422 86.9468 84.2724 89.7857 85.5823 92.6941C87.6406 97.2638 89.8821 102.205 91.3897 106.987C92.5967 110.817 92.8159 114.797 93.3131 118.72C91.8615 116.47 91.6276 113.605 90.8631 111.072C88.885 104.517 84.6908 93.8034 81.2932 87.9412C79.3712 84.6251 78.4115 85.5099 75.2652 84.3511C74.9097 84.2201 74.629 84.1974 74.6517 83.7136L74.6504 83.7162Z" fill="#717171"/>
<path d="M99.8523 135.84L100.045 136.032C100.098 136.245 99.9926 136.586 100.045 136.802C97.941 136.193 98.5117 137.622 98.5144 138.814C98.5277 144.242 98.6868 149.703 98.6975 155.075C98.1455 155.838 97.4317 156.556 96.4935 156.803L96.2395 156.474L95.0312 144.592C97.4304 141.941 95.9628 137.337 95.8158 134.01C95.7864 133.339 95.8305 132.663 95.8158 131.993L99.6612 135.174C99.9285 135.34 99.7962 135.671 99.855 135.839L99.8523 135.84Z" fill="#242E5F"/>
<path d="M94.657 167.384C94.371 166.014 93.7588 164.983 93.5289 163.415C93.1761 161.018 93.275 158.695 93.1159 156.326C93.009 154.734 92.5706 152.88 92.5332 151.333C92.5011 149.971 92.878 148.764 92.9328 147.485C93.0157 145.575 92.5706 143.343 93.3097 141.61C93.3285 141.636 93.6586 141.593 93.8524 141.926C95.0941 144.058 94.6156 148.212 94.6771 150.532C94.7172 152.05 95.3066 154.117 95.4242 155.749C95.5619 157.657 95.4349 159.795 95.6207 161.707C95.745 162.984 96.6138 166.219 96.2409 167.142C95.9495 167.862 94.8856 168.486 94.6557 167.384H94.657Z" fill="#DD554B"/>
<path d="M42.9089 58.5196C42.814 57.7617 42.5226 56.6163 42.0334 56.0255C41.6284 55.5363 40.7195 55.3639 40.6006 55.1033C40.217 54.2599 40.1314 50.9812 40.237 49.9841C40.5471 47.0383 42.7445 43.7891 45.0207 41.978C44.1358 46.1348 44.7186 50.4065 44.4539 54.5847C44.4286 54.9789 43.9514 59.3937 42.9089 58.5196Z" fill="black"/>
<path d="M90.5902 52.9155C89.5797 53.1708 88.9368 54.1224 88.5933 55.054C88.4169 55.5325 88.5398 57.23 87.5361 56.7007C86.0511 54.5622 86.5724 51.6177 86.392 49.1838C86.1741 46.2393 85.9749 43.3002 85.2305 40.4412C85.4283 40.2233 86.682 41.572 86.8664 41.7845C89.4928 44.7891 90.5207 48.9913 90.5888 52.9155H90.5902Z" fill="black"/>
<path d="M73.8774 65.8294C73.2746 68.0254 71.6493 70.2615 69.5603 71.2265C67.6383 68.2793 63.5724 68.135 60.7923 69.9728C60.2296 69.7228 58.4105 66.2865 58.4867 65.7358C58.5388 65.3589 58.7513 65.5286 58.9679 65.6316C63.5216 67.8129 69.1967 67.452 73.8761 65.8294H73.8774Z" fill="black"/>
<path d="M31.1688 129.3C31.65 128.498 34.0358 125.974 34.819 125.159C34.9767 124.996 35.788 124.087 35.9778 124.3L35.5782 127.856L36.1876 133.984C34.4848 134.813 33.1897 136.193 31.7462 137.377L31.5069 137.266C31.6326 135.324 31.7128 133.352 31.7475 131.351C31.6887 130.762 31.4308 130.27 30.9763 129.874C31.0124 129.774 30.9376 129.578 30.9763 129.49L31.1688 129.297V129.3Z" fill="#242E5F"/>
<path d="M53.6784 88.3325C52.1373 93.4757 50.0255 98.4438 48.4323 103.572C47.0169 108.133 46.1187 114.171 44.3384 118.336C44.17 118.729 44.3665 118.863 43.8652 118.53C44.3678 116.113 44.6217 113.642 45.1136 111.219C46.7001 103.394 49.2757 95.7572 53.0061 88.7121C53.2119 88.3232 53.085 88.243 53.6771 88.3325H53.6784Z" fill="#717171"/>
<path d="M51.1774 83.5231C51.6492 83.7945 52.0088 83.7303 52.2694 84.2957L52.5247 84.2917C51.7575 84.4588 48.8437 85.7619 48.2289 86.2484C46.3283 87.7521 44.0053 93.621 43.0082 96.0309C41.9791 98.5196 40.863 101.137 40.2121 103.719L39.0306 106.289L38.4812 106.989C38.373 106.879 38.2861 106.764 38.2714 106.641C38.238 106.373 38.2834 105.979 38.3222 105.693C38.4892 104.443 38.9985 102.469 39.8285 101.604C40.8416 99.0315 42.0178 96.4893 42.9949 93.903C44.8166 89.082 44.5734 84.9626 50.6027 83.717C50.6334 83.173 50.8646 83.0634 51.1801 83.5245L51.1774 83.5231Z" fill="#717171"/>
<path d="M74.2643 64.099C74.1668 65.2565 72.7139 65.6868 71.7649 65.9261C68.8298 66.6665 65.2678 66.4941 62.3006 65.9608C60.8504 65.7002 57.7388 65.3032 58.1037 63.3291C59.709 63.4882 61.2514 64.0241 62.8432 64.2647C66.6338 64.8354 70.5032 64.8515 74.263 64.099H74.2643Z" fill="white"/>
<path d="M72.1477 31.3995C73.5124 31.7082 74.8717 32.0129 76.2243 32.3137L76.3794 32.5543C76.6427 32.0544 77.3203 32.1653 77.3417 32.7467C83.0997 34.2517 89.403 36.8353 93.6948 41.0175C92.0936 40.1875 90.0071 39.3842 88.3083 38.7092C88.7361 38.5595 88.0237 38.2762 87.9288 38.2227C86.2006 37.2711 84.4069 36.282 82.537 35.6311C79.1461 34.3546 75.6603 33.415 72.0823 32.8149L71.5717 32.3618L68.4935 31.2083C68.4628 31.1108 68.4427 31.0159 68.4588 30.929C68.6031 30.1631 71.6853 31.0854 72.1491 31.4008L72.1477 31.3995Z" fill="#835840"/>
<path d="M51.3712 81.0226C52.2841 81.6816 50.9889 82.4274 50.2578 82.6653C47.5125 83.2774 45.3312 84.7183 43.2822 86.679L41.5607 87.7537C40.7053 88.18 39.489 89.2119 38.5748 89.4819C38.3008 89.5634 38.2366 89.4591 38.2874 89.1945C38.4946 88.1012 43.3678 83.4552 44.4998 82.7094C46.1706 81.6094 49.4452 80.4038 51.3725 81.0213L51.3712 81.0226Z" fill="#50587F"/>
<path d="M71.5712 32.3619C73.5252 32.5758 75.7881 33.2253 77.7274 33.8054C79.3621 34.2946 81.0341 34.8306 82.5378 35.6325C73.9396 32.6426 62.457 32.6212 53.6797 34.8626C55.4974 34.2772 57.8378 32.9259 59.6435 32.5544C60.6072 32.3566 63.2042 32.1694 64.1652 32.1694H68.5906C68.6587 32.1694 70.8147 32.279 71.5725 32.3619H71.5712Z" fill="#5A321B"/>
<path d="M90.0392 87.177C89.3843 86.8429 88.4767 86.2615 87.9234 86.0236C87.3487 85.3486 86.5507 84.9316 85.8076 84.4852L80.9745 82.7583C79.9307 82.4963 78.7037 81.5447 80.0362 80.8309C82.4354 80.2041 87.6013 82.761 89.1571 84.695C89.7158 85.3887 90.1181 86.2615 90.0405 87.1784L90.0392 87.177Z" fill="#50587F"/>
<path d="M64.4546 83.5249V84.0996L54.8352 86.4079C55.1439 84.2761 53.234 82.0159 56.7973 82.8125C58.333 83.156 60.2657 83.8738 61.8228 83.835C62.2666 83.8243 64.2995 83.3645 64.4546 83.5249Z" fill="black"/>
<path d="M69.0707 71.5955C66.8761 72.4416 64.6186 72.5004 62.5268 71.3135C62.2769 71.1718 61.2932 70.6893 61.376 70.3512C63.4678 68.7366 68.095 68.762 69.0707 71.5969V71.5955Z" fill="#DD554B"/>
<path d="M51.3704 81.0229C51.6698 81.1192 54.3283 82.4451 54.4152 82.5934C54.5234 82.7765 54.4205 83.1027 54.4499 83.3299C54.3376 83.4488 51.6431 83.4448 51.178 83.5237C51.0296 83.5478 50.8131 83.6721 50.6006 83.7162C49.3188 83.6413 47.4115 83.8351 46.4344 84.7453C46.0762 85.0795 45.8183 85.836 45.3973 86.1127C44.6261 86.6179 42.5463 87.2634 41.5586 87.7566C43.2774 86.2169 45.2435 84.2334 47.3326 83.239C48.3284 82.7659 50.0846 82.4638 50.8625 81.9599C51.2435 81.714 51.4186 81.5001 51.3704 81.0243V81.0229Z" fill="#242E5F"/>
<path d="M31.748 137.378C31.7012 137.598 31.363 138.151 31.1719 138.254H30.5918C29.6763 137.771 30.0906 133.883 30.2349 132.885C30.3793 131.886 30.6319 130.837 30.9781 129.877C31.8469 129.789 32.0701 130.639 32.1316 131.32C32.2265 132.355 31.9672 136.351 31.7466 137.378H31.748Z" fill="#50587F"/>
<path d="M94.8495 133.148C94.9818 136.129 95.443 139.104 95.2438 142.099C95.2184 142.479 95.2211 143.297 94.6597 143.149L92.9102 135.577C93.958 135.204 94.0823 134.537 94.4485 133.601C94.5555 133.328 94.2628 133.04 94.8495 133.148Z" fill="#717171"/>
<path d="M80.0359 80.8301C79.8194 81.1869 79.7125 81.5318 80.0332 81.89C80.3353 82.2268 82.9323 82.986 83.6273 83.2974C84.3932 83.6396 85.0909 84.0539 85.8059 84.4843C84.6364 84.0459 83.0058 84.1595 81.9071 83.8614C80.0947 83.3709 78.0123 82.4687 75.9941 82.7534C75.4835 82.6919 75.5049 82.5155 75.9941 82.3685C77.3748 81.9595 78.7341 81.1696 80.0346 80.8301H80.0359Z" fill="#242E5F"/>
<path d="M34.8235 156.035C34.7647 156.53 34.7179 159.474 34.345 159.492C33.1394 158.797 31.883 157.928 31.1934 156.678L31.4513 156.256C32.5807 156.649 33.7462 156.393 34.8235 156.035Z" fill="#242E5F"/>
<path d="M35.5964 152.767C35.5737 152.843 35.6806 153.717 35.5964 154.305C34.5218 154.077 34.6835 152.33 34.0566 151.52C34.2665 151.064 34.7076 151.43 34.7984 151.383C34.904 151.329 34.8974 150.667 35.4975 150.845C36.0735 151.016 35.6378 152.34 35.595 152.767H35.5964Z" fill="black"/>
<path d="M73.1099 85.2525L69.7898 83.6686L69.457 83.138C70.1093 83.1915 70.8431 83.0592 71.4806 83.1327C72.9067 83.2984 72.6073 84.1806 73.1099 85.2525Z" fill="black"/>
<path d="M75.9964 82.3696V82.7546C75.6235 82.8067 74.7895 83.328 74.3644 83.3346C73.8472 82.4284 75.4631 82.5273 75.9964 82.3696Z" fill="#371D0E"/>
<path d="M108.509 123.145C108.197 123.82 107.711 124.422 107.355 125.068L107.162 124.683C107.518 124.114 108.091 123.513 108.317 123.145H108.509Z" fill="#AD8F7E"/>
<path d="M22.3198 129.878V130.07L21.3574 129.108C21.8252 128.766 22.567 129.343 22.3198 129.878Z" fill="#AD8F7E"/>
<path d="M100.044 136.033L99.8516 135.84C99.8556 135.853 100.005 135.877 100.044 136.033Z" fill="#50587F"/>
<path d="M30.9766 129.494C31.0113 129.412 31.1329 129.361 31.169 129.301L30.9766 129.494Z" fill="#50587F"/>
<path d="M106.78 13.8972C113.039 13.3586 121.297 9.59211 127.669 7.94945C130.376 7.25176 134.748 6.13438 137.467 6.19051C140.582 6.25467 144.252 7.92272 147.37 8.3237C147.096 10.91 146.301 13.3893 145.45 15.8206C145.046 16.974 143.274 20.782 143.334 21.5906C143.49 23.6823 147.568 27.6787 148.989 29.4965C150.398 31.2968 151.477 33.2349 152.761 35.054C148.62 35.495 144.518 36.1593 140.412 36.845C133.382 38.0198 125.743 39.2361 118.901 41.1127C115.616 42.0135 112.366 43.2699 109.089 44.0933C109.038 42.6163 108.883 41.1341 108.703 39.6692C108.485 38.8579 108.357 38.0239 108.318 37.1684C108.121 37.0107 107.929 37.0107 107.741 37.1684C107.397 39.5596 107.301 41.9895 107.318 44.3967L106.971 44.6693L104.279 45.2467L101.775 13.8959C102.569 13.8785 103.454 13.8104 104.094 14.3677C105.308 18.1115 105.61 22.176 106.449 26.0534C106.606 26.7739 107.046 27.672 107.163 28.3216C107.266 28.4072 107.329 28.47 107.366 28.605C107.576 29.3601 107.148 29.6756 107.366 28.6397C107.377 28.5876 107.453 28.5488 107.549 28.5141C107.71 27.1588 107.587 26.6816 107.549 25.4373C107.263 24.1582 107.199 22.9405 107.357 21.7831C107.243 20.3355 107.271 19.2275 106.972 17.7439L106.423 14.4599C106.356 14.1672 106.48 14.0042 106.78 13.8972Z" fill="#D52B1E"/>
<path d="M118.515 190.465C118.073 190.91 115.717 190.544 115.619 190.146L108.316 95.6401L112.164 95.6441C112.199 95.8299 112.139 96.0398 112.164 96.2175L112.357 96.41C112.381 96.5276 112.33 96.6813 112.357 96.7949C111.624 97.2748 111.504 97.6544 111.544 98.5418C113.039 117.349 114.65 136.74 116.379 156.714C117.398 167.949 118.111 179.199 118.515 190.464V190.465Z" fill="#5A321B"/>
<path d="M112.356 96.7944C112.821 98.8153 113.129 100.916 113.318 102.949C114.179 112.166 114.382 121.5 115.052 130.741C116.455 150.112 118.081 169.476 119.665 188.831C119.836 189.831 119.58 191.999 118.512 190.465C117.092 171.198 115.67 151.92 114.086 132.668C113.264 122.676 111.979 112.665 111.396 102.659C111.32 101.352 111.04 98.8274 111.215 97.6739C111.32 96.9842 111.624 96.6888 112.356 96.7957V96.7944Z" fill="#835840"/>
<path d="M109.665 77.7539C108.764 77.925 107.826 78.1816 107.066 78.7136L106.798 78.0239L104.273 46.6905C104.368 45.8016 107.521 45.5744 108.319 45.6319C108.357 46.1344 108.266 46.6731 108.319 47.1716C108.132 47.3253 107.886 47.4135 107.58 47.4389L107.541 49.393L110.029 77.4866L109.667 77.7539H109.665Z" fill="#5A321B"/>
<path d="M108.317 47.1707C109.253 55.9962 109.825 64.7548 110.436 73.615C110.481 74.2672 111.031 77.3868 110.636 77.6688C110.381 77.8519 109.933 77.7022 109.665 77.753L107.156 49.3908C107.263 48.4017 106.651 46.3621 108.319 47.1707H108.317Z" fill="#835840"/>
<path d="M107.739 37.1691C107.927 36.4287 108.221 36.97 108.317 37.5541C108.489 38.2758 108.553 38.9816 108.509 39.6699C108.597 41.4101 108.469 43.1864 108.481 44.932C108.275 45.5589 107.115 45.2501 106.97 44.6714C106.856 44.2196 106.943 42.6571 106.961 42.0664C106.996 40.9864 107.121 38.2157 107.35 37.2948C107.401 37.093 107.729 37.1865 107.738 37.1691H107.739Z" fill="#DD554B"/>
<path d="M113.321 102.949C113.114 102.355 113.43 101.756 114.042 101.637C114.829 101.484 115.481 102.264 116.398 101.989C116.871 102.385 114.123 103.228 113.911 103.248C113.741 103.264 113.341 103.006 113.321 102.95V102.949Z" fill="black"/>
<path d="M108.702 39.6697H108.51C108.479 39.0549 108.319 38.3465 108.317 37.5539C108.215 37.3775 108.215 37.2491 108.317 37.1689C108.462 37.9589 108.599 38.825 108.702 39.6697Z" fill="#AD8F7E"/>
<path d="M112.358 96.4112C112.266 96.3911 112.179 96.3094 112.166 96.2183C112.256 96.2451 112.34 96.3214 112.358 96.4112Z" fill="#835840"/>
<path d="M40.9812 41.401C40.6511 41.6041 40.1926 41.9316 39.8264 42.1708C39.4201 41.9396 40.5361 41.3903 40.7888 41.2085L40.9812 41.401Z" fill="#AD8F7E"/>
<path d="M88.3086 32.3618C88.0547 32.8349 86.7903 32.7721 86.5778 32.1693C86.3024 31.7363 85.8627 31.2818 85.423 31.0158C84.3738 29.8022 81.9265 29.3825 80.344 29.2863C79.5206 29.2368 78.4661 29.3331 78.0611 29.2462C77.7162 29.1727 76.8835 28.3828 76.4438 28.1636C73.8148 26.8524 71.5065 26.6546 68.6462 27.2253C68.0835 27.3376 67.5809 27.7345 67.0477 27.7586C65.7752 27.8161 64.2101 26.7989 62.2413 26.978C60.4035 27.1451 58.0458 28.8198 57.2318 28.896C56.6691 28.9481 55.0973 28.9014 54.4183 28.8933C53.0229 28.876 51.3041 29.1232 50.0824 29.8249C49.3206 30.2633 48.6483 31.1682 47.9065 31.4008C47.9065 31.4008 46.7918 31.8218 46.5592 31.4008C44.9767 31.6561 43.5091 32.0223 42.3289 33.2306C42.0015 33.566 41.6045 34.4736 41.2276 34.63C40.5085 34.928 39.1853 34.9267 38.3967 35.4519L38.2871 35.055C39.6785 33.5994 39.7199 31.6039 40.3989 29.7608C42.488 24.095 48.6469 18.7006 54.2552 16.5901C55.9193 15.5369 58.4067 15.1814 60.4115 15.2442C67.8483 14.4409 83.7228 20.2189 86.9961 27.4231C87.7967 29.1847 87.8849 30.5708 88.3086 32.3618Z" fill="#5A321B"/>
<path d="M60.4138 15.243C58.6174 15.4368 55.9309 15.9594 54.2575 16.589C54.1532 16.1279 54.4954 16.1933 54.7614 16.045C55.8881 15.4168 57.8449 15.1655 59.1654 15.0519C59.5276 15.0212 60.1625 14.9209 60.4138 15.2417V15.243Z" fill="#AD8F7E"/>
<path d="M88.307 32.3615C88.3471 32.534 88.5022 32.7278 88.4995 32.9389C87.9662 32.9055 87.4703 32.9804 86.9504 33.0419C86.6617 32.8507 86.6925 32.3535 86.5762 32.1704L88.307 32.3629V32.3615Z" fill="#EED3CA"/>
<path d="M106.779 13.8967L106.971 17.7434C106.768 16.737 106.049 15.1157 106.005 14.1854C105.981 13.6856 106.407 13.9288 106.779 13.8967Z" fill="#EED3CA"/>
<path d="M107.354 21.7826C107.452 23.0336 107.508 24.1644 107.547 25.4368C107.295 24.5172 107.082 23.3718 106.995 22.4255C106.96 22.0539 106.776 21.681 107.356 21.7826H107.354Z" fill="#EED3CA"/>
<path d="M107.547 28.5144C107.495 28.9488 107.83 30.0301 107.164 29.8603C107.104 29.3818 107.244 28.7737 107.164 28.3232L107.549 28.5157L107.547 28.5144Z" fill="#EED3CA"/>
<path d="M39.4408 90.0631C39.9861 89.7904 44.1897 87.1079 44.4423 87.3712C44.052 88.7265 43.3837 89.9802 42.9012 91.3101C41.6502 94.7478 40.7573 98.0812 39.8271 101.604C39.3499 103.407 38.7177 105.14 38.4798 106.99C38.433 107.349 38.7137 107.89 38.0962 107.758C37.8302 104.354 37.7955 100.883 36.9387 97.5653L36.5551 98.0598C37.2542 106.177 38.0788 114.496 35.9791 122.472L26.742 132.862C26.476 133.022 26.2488 132.986 25.9788 132.862C25.6139 132.692 24.2412 131.232 23.7574 130.846C23.311 130.489 22.7148 130.181 22.3192 129.88C22.0078 129.643 21.7378 129.389 21.3569 129.11C19.8158 127.983 18.4926 127.223 16.9315 126.224C15.4131 124.991 13.8092 123.836 12.1211 122.763C11.668 122.55 11.3472 122.295 11.1588 121.993C10.4397 121.461 9.73799 121.123 9.04297 120.647C9.43191 120.092 10.1737 119.942 10.6776 119.492C11.1775 119.044 11.7241 118.084 12.2147 117.567C14.8384 114.802 17.5463 112.114 20.0043 109.198C20.6284 108.456 21.5039 106.864 22.1401 106.332C23.8162 104.933 26.627 104.783 28.4795 102.476C29.4953 101.21 28.9032 100.903 27.6067 101.602C27.7858 101.157 27.2846 101.236 27.3207 101.126C29.5875 98.835 31.8504 96.5388 34.3471 94.4938C35.9644 93.1693 37.8797 91.5173 39.8258 90.8316L39.4408 90.0657V90.0631Z" fill="#D52B1E"/>
<path d="M96.004 96.9866C95.9358 98.6974 95.4894 100.805 95.2341 102.564C94.8225 105.408 94.4108 108.241 93.6931 111.026L93.5273 109.417C94.2838 105.502 94.6434 101.474 95.5616 97.5921C95.6418 97.2539 95.4574 96.8717 96.0027 96.9853L96.004 96.9866Z" fill="#EED3CA"/>
<path d="M66.5266 28.7514L66.7631 31.2054C63.8988 30.7884 60.961 31.4767 58.1074 31.7828L58.1475 29.5133C60.6563 27.9923 63.8213 27.3306 66.5279 28.7501L66.5266 28.7514Z" fill="#8F6852"/>
<path d="M71.1872 27.9379C72.0801 27.271 73.9473 28.3135 74.7719 28.9818C75.5231 29.59 76.9078 31.115 76.1887 31.9771C74.8749 32.0666 73.41 32.1709 72.0306 31.6964C71.9103 31.6817 71.7566 31.5654 71.508 31.536C70.7154 31.4411 69.423 31.2045 68.494 31.2072L67.7469 31.1885L67.3633 28.7305C68.474 28.3737 70.0124 27.8029 71.1886 27.9379H71.1872Z" fill="#8F6852"/>
<path d="M55.0262 29.6686C55.4419 29.6125 57.0351 29.7368 57.2502 30.0429L57.3157 31.9582L49.4473 34.0927C48.3353 31.8392 52.9157 29.6539 54.664 29.4107C54.8324 29.3866 54.9527 29.5123 55.0275 29.6686H55.0262Z" fill="#8F6852"/>
<path d="M79.2673 30.0533C80.644 30.1134 84.0069 31.9552 84.6939 33.1862C84.9251 33.6005 85.0975 33.9855 85.04 34.476C84.5201 34.1419 82.8387 33.634 82.153 33.4188C80.9675 33.0472 79.7432 32.7144 78.5082 32.5433L78.293 30.3607C78.3291 30.2337 79.123 30.0452 79.2687 30.0519L79.2673 30.0533Z" fill="#8F6852"/>
<path d="M77.3429 32.7452C77.0502 32.669 76.7027 32.6315 76.3806 32.5527C76.1052 32.399 75.8887 32.2212 76.1881 31.9753C75.7858 29.643 73.4949 28.2035 71.1866 27.9361C71.0383 27.6822 70.7054 27.3948 71.2788 27.3587C74.4586 27.1636 78.9401 28.8691 77.3429 32.7438V32.7452Z" fill="#AD8F7E"/>
<path d="M46.215 31.7547C46.1896 31.744 46.1642 31.7333 46.1374 31.7227C44.7447 32.1009 43.4362 32.9162 42.7465 34.2234C42.3055 35.0601 41.6626 36.7228 42.6289 37.3617C42.9417 37.4218 43.0499 36.9995 43.098 36.9781L44.1753 36.124C44.6164 34.3758 45.8273 33.4134 47.4486 32.7732L47.5235 32.3629L47.4165 31.8282C47.0169 31.8871 46.6159 31.8643 46.2163 31.7561L46.215 31.7547Z" fill="#AD8F7E"/>
<path d="M55.0255 29.6689C54.1514 29.7865 51.2002 31.1766 50.5092 31.7901C49.5522 32.6401 49.8276 33.0852 49.4466 34.093C49.3785 34.2748 49.3036 34.4592 49.2221 34.6357C48.9909 34.776 48.5445 34.6076 48.2918 34.6704C47.7839 34.4245 47.6062 32.4784 48.2918 32.3621C48.3212 32.2739 49.2729 31.0763 49.4426 30.916C50.3422 30.0672 52.9471 29.1276 54.1701 29.0862C54.6446 29.0701 55.0215 29.0621 55.0255 29.6689Z" fill="#AD8F7E"/>
<path d="M47.5217 32.362C47.765 32.3286 48.0417 32.3847 48.2916 32.362C48.1312 32.8512 48.4052 34.0661 48.2916 34.6703C46.7585 35.0498 44.6187 36.2795 43.0977 36.9785C43.9892 36.2782 44.0279 34.9376 44.7256 34.0862C45.156 33.5609 46.8588 32.4529 47.5217 32.362Z" fill="#8F6852"/>
<path d="M91.0014 37.5535C90.2783 36.8879 87.7562 35.9937 87.3432 35.5366C87.005 35.1637 87.2229 34.8175 87.1534 34.4767C87.0919 34.1746 86.7484 33.648 87.0558 33.3232C87.8805 34.0062 88.9016 33.9287 89.749 34.6705C90.309 35.161 91.3984 36.7489 91.0014 37.5549V37.5535Z" fill="#8F6852"/>
<path d="M12.1227 122.76C11.8273 122.616 11.143 122.34 10.7754 122.183L11.1603 121.99C11.5907 122.308 11.6936 122.338 12.1227 122.76Z" fill="#AD8F7E"/>
<path d="M36.7483 40.6307C36.7122 40.4396 36.5652 40.2631 36.5531 39.9664C36.473 37.9295 38.4431 35.7709 40.3918 35.3312C41.8153 35.009 41.1684 35.4929 41.3648 35.8217L41.2245 36.2935C39.8893 37.2438 38.8213 38.551 38.0234 40.2137C37.3631 40.9983 36.9367 41.1373 36.747 40.6307H36.7483Z" fill="#AD8F7E"/>
<path d="M41.3673 35.823C41.378 35.8404 41.6988 35.7455 41.7536 35.9513C41.8284 36.2294 41.7963 37.7023 41.6547 37.9375L37.0341 41.3979C36.5516 41.5329 36.7975 40.8847 36.7494 40.632C37.2453 40.7163 37.3108 40.5104 37.5687 40.2017C38.7569 38.7849 39.1953 36.6076 41.3659 35.8244L41.3673 35.823Z" fill="#8F6852"/>
<path d="M108.318 37.1691C108.318 37.2974 108.318 37.4257 108.318 37.554C108.169 37.3148 108.06 37.1023 107.74 37.1691C107.838 36.9993 107.545 36.1105 108.122 36.0156C108.275 36.3939 108.251 36.8029 108.318 37.1691Z" fill="#EED3CA"/>
<path d="M133.465 11.8213C134.974 11.3735 136.634 12.4321 136.122 14.0908C132.703 19.8448 129.843 26.521 126.245 32.1052C125.171 33.7706 124.431 34.3413 122.318 34.0419C120.797 33.8254 115.138 29.6793 114.088 28.4216C112.907 27.0035 113.412 24.5495 115.54 24.6484C117.167 24.7246 119.53 27.6852 121.077 28.5513C122.231 29.1968 122.816 29.4053 123.68 28.1944C124.756 26.6841 125.781 24.1405 126.756 22.423C128.316 19.6764 129.962 16.4966 131.713 13.913C132.061 13.3984 132.914 11.9857 133.466 11.8213H133.465Z" fill="white"/>
<path d="M112.015 77.7105C114.222 78.3534 116.728 79.2449 117.851 81.3981C118.902 83.4177 119.13 86.9088 119.448 89.2251C120.913 99.879 122.45 111.347 122.753 122.08C122.828 124.709 122.915 127.143 121.76 129.564C120.677 131.833 118.636 133.732 116.38 134.809L120.812 189.97C120.512 191.959 115.753 192.352 114.714 190.704L110.252 134.995C109.191 134.66 108.084 134.478 107.011 134.164C106.456 134.002 105.526 133.429 105.093 133.367C104.005 133.215 102.511 136.97 101.007 136.416C101.096 140.687 101.477 145.339 101.206 149.6C101.09 151.419 100.634 154.361 99.5461 155.826C98.6786 156.994 97.6641 157.46 96.4037 158.079L97.1763 167.094C97.1415 168.387 96.1872 168.426 96.1819 168.816C97.4196 179.625 98.2041 190.494 99.2761 201.327L99.0983 201.728L95.0257 203.086C95.0164 203.475 95.2155 203.836 95.2329 204.218C95.6366 213.181 96.218 222.128 96.4278 231.103C98.7267 233.542 101.123 235.908 103.608 238.158C106.269 240.566 108.445 241.204 108.87 245.399C109.176 248.419 109.1 249.624 106.047 250.415C100.142 251.946 87.1252 250.325 81.1908 248.452C80.4918 248.231 79.5936 248.046 79.1779 247.387C78.4254 246.196 78.535 241.919 78.5056 240.367C78.4682 238.388 78.1701 233.784 79.3677 232.202C79.5628 231.944 80.028 231.832 80.0494 231.691C80.0961 231.389 79.5655 229.388 79.4853 228.807C78.9253 224.698 78.3131 220.603 77.7531 216.497C77.2706 212.955 77.1423 208.142 76.3243 204.837C76.2842 204.674 76.2628 204.35 76.0583 204.302C74.818 204.35 69.6548 204.195 69.052 203.221L66.6635 190.074L61.92 203.123L55.9882 203.349L51.778 231.896C51.8502 232.186 52.5947 232.285 52.9007 232.493C54.0502 233.272 54.3777 236.881 54.4538 238.249C54.645 241.651 54.3723 245.144 54.3536 248.551C51.3436 249.977 47.807 250.723 44.511 251.212C40.1711 251.856 29.3021 252.813 25.5784 250.768C23.7379 249.758 24.1629 248.575 24.4904 246.776C25.2068 242.845 27.1087 241.625 29.3194 238.718C31.0116 236.494 32.8788 233.358 34.6257 231.383C34.8997 231.074 35.3247 231.012 35.604 230.718C36.132 225.008 35.9596 219.19 36.1614 213.438C36.2282 211.544 36.4795 209.578 36.5624 207.684C36.6546 205.576 36.7134 203.46 36.7589 201.35C36.6452 200.931 31.9351 200.783 32.5058 199.029C32.6662 189.463 32.8694 179.865 33.8652 170.365C33.9146 169.889 34.4198 168.178 34.3971 168.039C34.3637 167.848 33.9734 167.836 33.9052 167.727C33.4668 167.023 34.2782 161.959 34.2528 160.784C33.1127 159.879 31.5515 158.951 30.7001 157.75C30.3727 157.288 30.0332 156.15 29.7712 155.89C29.5507 155.671 28.4747 155.246 27.9989 154.873C27.2237 154.263 26.7171 153.311 26.0742 152.758C25.1426 151.956 23.2126 151.038 22.0658 150.227C18.695 147.842 15.419 145.392 12.3128 142.667C5.50559 136.696 1.19244 132.907 6.12576 123.59C6.48129 122.919 7.596 121.612 7.47571 120.98C7.40086 120.588 6.97717 120.224 6.92905 119.758C6.83549 118.854 8.50086 117.152 9.13707 116.407C13.5571 111.24 18.4597 106.392 23.2754 101.691C25.9914 99.041 28.5536 96.1419 31.5689 93.8256C32.8026 92.878 35.0133 91.782 35.9876 90.7421C36.7655 89.9121 37.49 88.3149 38.2959 87.2791C41.2631 83.4631 45.1459 81.2003 49.8306 80.0562C46.6308 77.3603 44.9481 73.6165 43.6289 69.7164C41.9929 69.155 40.0709 68.857 38.483 68.2261C34.7018 66.7238 29.5694 64.8713 27.5511 61.0754C23.8582 54.1292 30.8592 46.643 35.7551 42.4234C35.7551 40.2435 35.3087 39.1354 36.3953 37.0998C36.5664 36.779 37.0021 36.5692 37.0943 36.2604C37.3109 35.5414 37.2173 33.3641 37.379 32.3135C40.9036 9.31497 85.2847 6.52419 90.7955 29.774C91.0494 30.8459 91.0962 32.788 91.437 33.5552C91.7578 34.277 92.9179 34.9105 93.3456 35.8782C93.7453 36.779 93.8135 37.9352 93.9792 38.8989C99.784 42.2978 105.793 48.426 102.265 55.6368C100.944 58.3354 96.3904 63.0722 93.8736 64.751C92.3553 65.7628 90.4386 66.1517 88.9309 67.2143C88.3335 71.0703 86.8686 74.9103 84.277 77.8535L81.5757 80.0535C84.8744 80.7659 88.2105 82.5984 90.4186 85.1579C92.1067 87.116 92.8017 87.68 94.6595 89.3815C99.1304 93.4754 103.092 98.0639 107.545 102.175L106.769 92.0867C106.51 91.3102 105.938 90.7849 105.857 89.9041C105.82 89.4991 106.274 87.7562 105.625 88.0356C104.449 89.6555 102.377 90.1193 101.096 88.3336C99.7385 86.4384 101.71 81.9688 103.521 80.7418C104.089 80.3569 105.239 80.1564 105.527 79.8624C106.169 79.2075 105.503 76.4969 105.434 75.5345C104.036 56.1047 102.072 36.6855 100.816 17.2556C100.752 16.2679 100.45 13.7217 100.766 12.9785C101.447 11.3867 105.212 11.4468 106.631 11.932C119.16 8.31254 133.029 1.67107 146.34 4.82673C147.246 5.04192 150.776 5.87862 150.615 7.01472C149.548 9.45665 148.326 11.8277 147.283 14.2817C146.881 15.2307 144.569 20.7427 144.708 21.2533C144.811 21.6316 148.224 24.7765 148.819 25.4288C150.885 27.6996 154.084 31.4675 155.534 34.1032C156.357 35.6002 156.129 35.6429 154.533 35.9557C150.407 36.7657 145.801 37.0971 141.565 37.8029C130.688 39.6153 119.682 41.4517 109.37 45.4254L112.016 77.7065L112.015 77.7105ZM149.296 6.97462C134.924 1.94908 120.476 9.36442 106.793 13.1403C106.834 15.3029 108.426 29.2046 107.545 30.052C107.032 30.1041 107.237 30.0547 107.167 29.7647C106.854 28.4695 106.937 27.0474 106.777 25.7268C106.266 21.5033 105.767 17.297 105.454 13.0467C105.237 12.742 102.577 12.8783 102.16 13.4143L104.279 45.0565L107.934 44.6729C108.156 44.451 107.527 39.3038 107.539 38.411C107.549 37.6959 107.683 36.4583 108.029 35.8247C108.862 36.6587 108.977 43.8669 109.387 43.9097C114.255 42.4194 119.071 40.8048 124.056 39.7302C130.981 38.2372 138.564 36.9154 145.577 35.8555C148.465 35.4184 151.384 35.0816 154.298 34.861C154.478 34.7033 153.466 33.3173 153.302 33.07C150.589 29.0269 147.011 25.1575 143.391 21.9176L143.195 21.4712C144.851 16.4831 147.045 11.7075 149.298 6.97462H149.296ZM90.039 32.7452C88.0314 15.0021 66.5419 12.1859 52.6695 17.2155C44.5966 20.1413 38.3213 26.1372 38.4817 35.246L41.2511 34.4574C42.3578 32.6156 44.1635 31.537 46.2967 31.2309C46.8955 31.1453 47.6319 31.3231 48.1572 31.1681C48.3911 31.0986 49.6809 29.8796 50.2276 29.5842C51.2768 29.0188 52.7697 28.5938 53.9606 28.5083C54.9617 28.4361 56.5389 28.813 57.2232 28.7074C57.6055 28.6486 58.7149 27.8734 59.2615 27.6529C60.9603 26.9699 62.897 26.7801 64.7201 26.9979C65.4512 27.0848 66.4911 27.7331 66.8573 27.7317C67.3746 27.7317 69.3046 26.8723 70.3231 26.7868C72.1502 26.633 74.0655 27.0006 75.7416 27.7103C76.3764 27.979 77.7143 28.9681 78.0659 29.0549C79.2073 29.3329 80.8767 28.6379 82.8321 29.2768C84.7862 29.9157 85.7686 31.5837 86.8178 32.0248C87.6144 32.359 89.1354 32.395 90.039 32.7452ZM66.7597 31.013C66.3895 29.9344 66.9669 29.0509 65.7132 28.5029C63.4704 27.5219 60.28 28.3479 58.2872 29.6056L58.2938 31.5931C61.1154 31.3405 63.9128 30.8566 66.7584 31.0144L66.7597 31.013ZM77.3428 31.9767C77.4911 30.1643 77.3936 29.9103 75.8712 29.1178C73.4466 27.856 69.7804 27.6368 67.3812 28.9854L67.7221 31.0144L77.3428 31.9767ZM57.115 30.0801C55.062 29.4572 52.6842 29.6845 50.7863 30.719C49.2238 31.5717 48.8455 32.252 49.0621 34.0912C51.7205 33.2906 54.3469 32.2507 57.1404 31.9754L57.115 30.0801ZM86.1923 34.6672C86.0372 31.3418 81.4407 29.2621 78.5818 30.4263L78.5163 32.3416L86.1923 34.6659V34.6672ZM48.0717 32.5822C45.2622 31.9513 41.6628 33.8599 42.7147 37.1693L47.9086 34.575L48.0717 32.5822ZM88.6917 37.3645C76.8977 31.3926 61.9761 30.6628 49.5914 35.2954C46.0521 36.6186 42.2763 38.5166 39.4427 41.0147L46.1069 37.3899C56.2943 32.8081 69.2952 31.8016 80.0774 34.7247C82.788 35.4598 85.4278 36.6213 88.1063 37.47L88.6917 37.3658V37.3645ZM92.5397 37.9378C92.5303 35.0856 89.4241 33.6595 86.9622 33.324L87.3832 35.4024L92.5397 37.9378ZM42.9044 67.3667V64.3848C42.9044 63.778 43.4137 64.3286 43.5781 64.6721C44.3065 66.1905 44.6928 68.9559 45.3531 70.783C47.9447 77.9537 52.4423 81.9327 60.1503 82.9165C62.2327 83.1824 64.3338 83.0287 66.3748 83.5233C66.2371 83.9162 65.653 84.0338 65.2989 84.0806C64.2737 84.2156 62.1151 84.3372 61.0753 84.2985C59.2588 84.2303 57.1711 83.5781 55.4095 83.1383L55.8011 88.0342C55.8706 90.8397 54.9658 91.9237 57.0415 94.2948C61.1394 98.9755 69.5505 98.0933 72.2985 92.4249L72.1448 83.5219C71.0609 83.7692 69.6214 83.979 68.6871 83.2332L74.6469 81.6935C81.9834 79.4561 85.814 75.993 87.4433 68.3277C87.6746 67.2397 88.1958 61.8065 88.8841 61.4964L89.2691 61.6902V64.8633C93.6945 65.1212 97.3674 60.1131 95.2677 56.0766C94.3481 54.3083 91.0307 52.524 89.8692 54.7881C89.4134 55.6783 89.7636 57.0964 88.5714 57.7206C86.0305 59.0505 85.3583 54.0463 85.2313 52.4545C85.1364 51.2649 85.3208 49.9791 85.2366 48.7949C85.0802 46.6243 84.7728 40.5642 83.3133 39.0379C82.9003 38.6061 80.8219 37.6117 80.1643 37.3244C71.6155 33.598 60.4912 33.9789 52.0092 37.7093C50.7114 38.28 47.648 39.7663 46.8607 40.8329C44.7369 43.7119 46.0307 52.7097 45.3557 56.6393C45.1085 58.0774 43.534 61.2318 42.0905 59.0411C40.9958 57.3784 42.0103 55.4938 38.7103 56.535C31.9084 58.6829 36.2576 69.429 42.9044 67.364V67.3667ZM41.5585 35.822C39.7154 35.7525 37.1518 37.2268 36.8671 39.1314C36.7642 39.8198 37.0516 40.5121 36.9433 41.2085L41.5786 37.8496L41.5585 35.8234V35.822ZM96.9678 60.2507C102.013 55.8119 104.445 49.5527 98.5957 44.4844C94.1276 40.6123 87.6745 38.6222 82.1531 36.787L86.5799 39.9561C90.1592 43.2975 91.3274 47.7951 91.7872 52.5413C95.6686 52.814 97.8927 56.5738 96.9678 60.2507ZM48.8683 37.7481C47.513 38.0982 46.0708 38.7465 44.8238 39.3773C39.555 42.0385 28.7915 49.1598 27.9468 55.3949C27.2143 60.8134 30.497 63.4799 35.0133 65.4433C32.8373 61.1663 34.2902 55.8547 39.4333 55.0501C38.0326 49.5848 40.2847 44.6221 44.3399 41.0106C45.738 39.7663 47.386 38.8721 48.8656 37.7481H48.8683ZM90.3811 52.7084C90.5308 52.4491 90.2595 50.0981 90.1806 49.6276C89.646 46.4438 88.0434 42.8057 85.4251 40.8235C86.7202 43.0516 86.0666 55.5887 87.5315 56.507C87.7213 56.6259 87.9044 56.6099 88.1143 56.5938C88.3375 55.5513 88.5781 54.1947 89.3386 53.3914C89.5498 53.1682 90.325 52.806 90.3825 52.7057L90.3811 52.7084ZM43.4792 58.326C44.6928 55.5139 44.1194 52.3649 44.2437 49.375C44.2624 48.9205 44.4322 48.4995 44.4522 48.0451C44.5364 46.1378 44.4121 44.2532 44.8265 42.3633C42.3832 44.5379 40.1979 48.1226 40.2513 51.4988C40.258 51.9038 40.6202 54.585 40.7338 54.8229C40.933 55.2372 41.9114 55.4738 42.3284 56.114C42.7133 56.7048 42.7387 57.5147 43.0515 58.0828C43.1731 58.3033 43.0434 58.4076 43.4778 58.3274L43.4792 58.326ZM108.126 45.8237C106.876 45.7101 105.746 45.9613 104.585 46.381L106.972 78.5231C107.425 78.2946 107.865 78.042 108.359 77.8923C109.037 77.6878 110.572 77.6704 110.636 77.0756L108.126 45.8237ZM116.399 133.339C118.652 132.204 120.441 130.04 121.151 127.61C121.748 125.565 121.495 122.362 121.396 120.167C120.902 109.264 119.539 96.5202 117.718 85.7607C117.356 83.6208 117.037 81.5879 115.113 80.2861C114.271 79.7167 111.724 78.6848 110.731 78.7102C108.589 78.7664 105.136 80.3168 106.395 82.9472C108.509 81.9087 110.203 81.505 112.555 82.0758C112.813 82.1386 115.806 83.1958 115.242 83.7157C113.459 83.3415 111.823 82.7694 109.954 82.9499C108.298 83.1089 105.636 84.2811 106.01 86.306C106.309 87.922 107.991 86.552 109.012 86.4317C111.277 86.163 114.04 86.5145 115.816 88.0449C115.597 88.3523 115.53 88.3189 115.196 88.2895C112.988 88.0904 111.451 86.985 108.846 87.6132C106.909 88.0797 106.448 90.0712 108.107 91.1324C110.081 90.2997 112.371 90.2449 114.385 91.0188C114.96 91.2393 116.134 92.1014 114.954 91.9905C114.171 91.917 113.314 91.4933 112.449 91.4144C111.005 91.2835 108.12 91.1926 108.114 93.2389C108.107 95.2758 111.432 94.268 112.828 94.4993C114.025 94.6971 114.977 96.2074 114.857 97.3743L113.321 96.2208L113.734 100.71C114.063 101.552 117.085 101.486 117.166 101.897C117.379 102.977 113.918 102.306 113.894 102.48L116.399 133.342V133.339ZM54.2534 82.5676C53.1988 82.6745 51.8823 81.0867 51.0723 81.0292C50.6499 80.9998 49.4149 81.4061 48.9137 81.5491C45.2181 82.605 41.8031 84.8238 39.4467 87.8551C39.301 88.0436 38.5325 88.9618 38.6728 89.0995C40.1658 88.4218 41.5665 87.5624 43.0274 86.8193C43.6409 86.5079 44.5525 86.3341 45.0884 85.9946C45.6859 85.6164 45.9064 84.9294 46.4624 84.4843C47.9126 83.3241 49.2759 83.7024 50.8852 83.5206C52.0052 83.3936 53.1173 83.0982 54.2547 83.137L54.2507 82.5663L54.2534 82.5676ZM89.078 85.6377C87.5302 83.7251 82.351 80.7926 79.9571 81.0252C79.0616 81.1121 77.4591 82.3711 76.3818 82.3711C76.4112 82.6465 77.2305 82.7026 77.4617 82.7307C79.9304 83.0354 82.2293 83.427 84.6231 84.0338C86.1669 84.4255 87.6037 85.0684 89.078 85.6364V85.6377ZM104.854 81.5986C102.428 81.5518 100.384 89.9883 103.969 87.9246C105.19 87.2216 104.54 86.3314 104.673 85.3637C104.759 84.7489 105.414 84.1742 105.424 83.8133C105.439 83.3321 104.584 82.3163 104.854 81.5986ZM93.1158 134.107C94.3 130.419 94.3895 126.696 93.8562 122.888C92.6546 114.318 90.0122 104.627 86.918 96.5509C85.3369 92.4249 83.3988 88.1184 80.9155 84.4722C78.5698 83.9122 76.0917 83.5794 73.6886 83.9095C75.5237 88.2868 77.6609 92.5211 79.4118 96.9399C83.6474 107.63 88.1517 119.187 91.6308 130.115C91.9904 131.243 92.1307 132.843 92.6894 133.863C92.811 134.085 92.6827 134.188 93.1171 134.107H93.1158ZM54.2293 84.3199C52.3781 84.6754 49.8547 84.4255 48.1385 85.0042C46.5787 85.5308 45.5135 87.9554 44.8572 89.4176C41.7991 96.2341 39.9279 105.118 38.7049 112.503C37.6891 118.643 36.263 126.365 37.1358 132.473C37.1638 132.672 37.2627 133.497 37.4432 133.546L39.7047 133.315L39.9827 133.016C43.9109 116.904 48.4018 100.947 54.4111 85.4934L54.228 84.3212L54.2293 84.3199ZM98.0531 132.252C98.851 132.993 99.5915 133.904 100.522 134.496C100.688 134.602 100.784 134.832 101.011 134.597L109.038 121.465L107.687 104.251C103.206 99.9632 98.9753 94.9417 94.3722 90.8277C91.0681 87.8765 87.1573 85.6337 82.7279 84.8719C86.8138 91.5909 89.2517 99.1305 91.58 106.603C91.9142 106.649 91.7618 106.166 91.7698 105.934C91.854 103.688 91.8206 101.253 91.7792 98.9982C91.7565 97.7779 91.2753 96.5028 91.7725 95.2571C92.267 94.8855 92.9059 99.2268 92.9313 99.5769C93.1492 102.579 92.9367 106.14 92.9313 109.21C92.9233 114.045 94.6381 118.468 95.2048 123.271C95.4534 125.376 95.2262 127.812 95.6312 129.769C95.8223 130.694 97.334 131.588 98.0518 132.254L98.0531 132.252ZM38.4777 107.181C38.9869 103.453 40.1003 99.8389 41.0773 96.2195L44.1555 87.5651C36.7482 91.3757 30.0064 96.0537 24.4356 102.278L27.9949 100.836C28.186 101.408 26.9056 102.03 26.4164 102.336C24.8152 103.339 22.8223 103.977 21.3534 105.16C18.7257 107.277 14.7975 112.01 12.4064 114.68C11.8811 115.267 8.23221 119.246 8.28567 119.561C8.56368 119.92 8.89917 120.248 9.25069 120.533C12.9477 123.527 17.8409 126.077 21.7237 129.028C23.3436 130.259 24.8005 131.716 26.4271 132.941L35.306 123.148C35.5827 122.755 35.997 122.318 36.1266 121.852C36.5757 120.24 36.9874 116.538 37.1291 114.777C37.5234 109.885 36.7214 105.05 36.5463 100.169C36.5156 99.3257 36.3739 97.9931 36.8431 97.3756C37.3844 97.3716 37.8321 101.842 37.9003 102.469C38.0406 103.764 37.9778 105.223 38.1115 106.491C38.1315 106.676 38.1957 107.214 38.4764 107.181H38.4777ZM84.6525 114.874L74.4544 88.5261L73.8891 91.901C70.7949 100.574 57.8675 100.817 54.4111 92.3113L53.8724 90.6419C50.7929 98.8498 48.0944 107.178 45.7901 115.643C46.5881 115.624 47.394 115.677 48.1933 115.643C58.0145 115.207 67.7916 114.811 77.6221 114.675C79.9678 114.643 82.3242 114.628 84.6512 114.874H84.6525ZM108.318 95.642L115.908 190.088C116.954 190.708 118.389 190.593 119.382 189.891L119.472 188.446L112.081 95.8212L108.318 95.642ZM91.7725 135.84C91.7886 135.564 91.7845 135.293 91.7257 135.02C91.2552 132.824 90.19 129.857 89.4656 127.663C88.2105 123.853 86.608 120.172 85.3903 116.35L84.9426 116.028L58.3834 116.215L45.4239 117.011L41.1696 133.243C42.5716 133.441 43.4845 134.061 44.0552 135.364C57.1631 135.568 70.2963 135.103 83.4095 135.449C84.9773 135.491 86.8258 135.804 88.3963 135.85C89.519 135.884 90.6511 135.81 91.7712 135.842L91.7725 135.84ZM41.5545 142.572C43.5661 138.872 40.1645 138.514 37.2761 138.963C35.8326 139.188 34.4626 140.369 33.1888 141.028L32.9028 140.555C34.2514 138.827 36.9807 137.552 39.154 137.556C40.3877 137.559 41.2177 138.45 42.2241 137.178C43.9817 134.958 41.5398 134.422 39.7327 134.495C36.0919 134.643 34.3998 136.189 32.0327 138.721C31.5475 139.24 29.1697 142.464 28.7674 142.378C27.5565 142.119 30.0653 139.257 30.0118 139.027C27.9093 137.223 26.0034 135.204 24.0466 133.248C22.1928 131.396 21.2893 130.376 19.1106 128.758C15.8186 126.315 12.3061 124.13 8.91654 121.824C8.51958 121.784 8.21083 122.486 8.00499 122.777C5.6486 126.103 4.30534 130.205 6.06428 134.109C8.03172 138.474 18.4771 146.158 22.6459 149.076C23.8635 149.929 26.1785 151.062 27.1181 151.913C27.5364 152.293 27.8479 153.027 28.3772 153.54C29.7004 154.823 31.5395 155.478 33.3853 155.266C35.584 155.012 35.0868 153.127 35.4036 151.42L33.7676 151.991C32.7264 151.897 34.9692 150.024 35.4584 149.838C37.0048 149.255 41.7697 151.291 41.3366 148.679C40.9838 146.558 38.1462 146.435 36.4835 146.631C35.2646 146.776 34.2127 147.512 33.1688 147.745C32.6208 147.866 32.9322 147.288 33.2183 147.022C34.4132 145.915 36.9901 145.49 38.5579 145.669C39.9025 145.823 42.5716 147.596 42.1479 144.581C41.8659 142.572 38.6488 142.597 37.0596 142.785C36.0438 142.904 33.948 144.143 33.7729 144.112C33.2276 144.014 33.813 143.288 33.952 143.14C35.6615 141.317 39.4721 141.456 41.5558 142.572H41.5545ZM110.049 133.533L109.184 123.531L104.292 131.488C104.418 132.232 109.746 133.828 110.049 133.533ZM35.7845 124.492L31.2281 129.647L30.2537 137.327L30.8806 138.141C32.439 136.519 34.0309 134.974 35.9609 133.787C35.6802 130.705 35.3474 127.569 35.7845 124.491V124.492ZM29.0508 136.417L29.6282 131.417L26.9403 134.206L29.0521 136.418L29.0508 136.417ZM99.6022 135.317C99.3255 134.975 98.3191 134.386 97.9248 134.015C97.2177 133.348 96.5989 132.572 95.813 131.993C95.9319 133.836 96.3062 135.849 96.3864 137.668C96.4719 139.613 96.8569 143.115 95.281 144.344L96.3904 156.612C99.0622 155.807 99.5287 152.948 99.8267 150.529C100.113 148.216 99.8535 146.403 99.8428 144.213C99.8308 141.718 100.111 138.51 99.8508 136.123C99.8187 135.826 99.796 135.558 99.6009 135.316L99.6022 135.317ZM95.0404 142.763C95.142 141.622 95.261 140.559 95.2329 139.399C95.1968 137.921 94.9883 135.92 94.8333 134.414C94.8146 134.23 94.7477 133.689 94.4684 133.725C94.4109 134.591 93.9712 135.26 93.2053 135.65L93.1265 135.92C93.7907 137.895 93.9672 140.169 94.6328 142.116C94.7183 142.368 94.6876 142.703 95.0418 142.763H95.0404ZM92.1307 137.019C88.5647 136.976 85.0335 136.896 81.4715 136.809C72.4202 136.588 63.4049 136.668 54.3603 136.809C50.8638 136.864 47.3566 136.674 43.8641 136.894L42.7093 138.625C43.3228 139.637 43.6636 140.403 43.3963 141.62C43.2987 142.068 42.7173 142.853 42.7427 143.017C42.8269 143.554 43.5661 143.834 43.4966 145.173C43.4284 146.475 42.2027 147.259 42.188 147.473C42.1814 147.575 42.4888 148.045 42.5275 148.432C42.6318 149.485 42.5075 150.181 41.6547 150.84C40.0081 152.113 38.5686 150.883 36.7762 151.061L36.6907 151.267L35.02 166.421C39.1553 166.449 43.2987 166.39 47.4368 166.414C62.8609 166.502 78.3532 166.629 93.8028 167.184C94.4604 167.208 95.1193 167.509 95.8157 167.386L94.0714 144.411L92.1334 137.02L92.1307 137.019ZM34.4372 159.305L34.6297 156.228C33.6834 156.773 32.5981 156.593 31.5542 156.614C31.1198 156.994 33.9841 159.253 34.4372 159.306V159.305ZM95.0431 168.536C92.8324 168.491 90.6097 168.597 88.3976 168.546C82.3122 168.404 76.2348 168.091 70.1212 167.968C69.6668 167.959 69.2458 167.768 68.79 167.76L35.9783 167.67C35.4249 168.006 35.0801 170.273 35.02 170.945C34.2528 179.516 34.0242 188.117 33.8705 196.724C33.8398 198.433 32.8988 198.985 34.9758 199.643C40.6082 201.424 50.3305 202.197 56.2676 202.205C57.8701 202.208 59.4513 201.902 61.0606 201.98L66.1703 187.326L68.9718 186.616C69.4182 187.37 68.1431 187.46 67.956 188.101C67.833 188.524 67.8851 189.498 67.9199 189.982C68.2059 193.945 69.6949 198.249 70.0785 202.249L70.418 202.678C73.9091 203.174 77.5713 203.284 81.1026 203.167C81.5129 203.154 81.8778 202.986 82.2507 202.969C87.4433 202.732 92.7335 202.408 97.7377 200.95L95.0431 168.538V168.536ZM54.8321 203.352C49.1423 203.264 43.4872 202.637 37.903 201.62L37.1331 224.892L51.1498 226.019L54.8321 203.352ZM93.887 203.158C88.4765 203.952 83.0192 204.485 77.5339 204.311L80.4076 225.194C85.2206 225.373 90.047 224.864 94.8279 224.296L93.887 203.158ZM95.0418 225.662C90.1753 226.048 85.3141 226.59 80.4209 226.433C80.9689 228.042 80.7738 230.395 81.3672 231.928C81.5356 232.364 83.2625 234.625 83.6207 234.688C84.4574 234.26 85.0014 233.373 85.7165 232.785C88.4364 230.546 91.7712 229.89 95.2329 230.47C95.3465 230.201 95.0418 229.895 95.0418 229.797V225.662ZM37.1331 226.047V229.412C37.1331 229.521 36.8243 229.811 36.942 230.086C40.5988 228.704 45.6819 230.256 47.8752 233.484C48.1278 233.855 48.7306 235.546 49.1516 235.482C49.6502 235.356 50.3144 234.494 50.3987 234.021C50.6606 232.559 50.9667 229.37 50.9934 227.877C50.9974 227.651 50.9827 227.424 50.9854 227.2L37.1331 226.047ZM53.275 245.07C53.14 243.139 53.4608 234.586 52.2445 233.54C51.492 232.892 51.7392 234.078 51.6163 234.45C51.3891 235.138 50.2222 236.435 49.4965 236.582C47.3673 237.014 47.5451 235.062 46.4651 233.739C43.5687 230.184 36.4274 229.404 34.2461 234.124C35.9502 233.998 42.7775 235.728 43.1972 237.377C43.3027 237.79 42.9151 238.18 42.5008 238.073C41.9916 237.941 40.5026 236.896 39.7648 236.591C38.3895 236.024 34.5388 234.868 33.245 235.479C33.0552 235.569 32.5954 236.306 32.709 236.432C34.2581 236.657 35.8032 236.973 37.2641 237.552C37.9685 237.832 41.2284 239.339 40.9798 240.177C40.0428 241.039 38.7236 239.6 37.78 239.153C36.5691 238.58 33.0846 237.267 31.883 237.627C31.3684 237.781 27.3012 243.282 26.6516 244.131L26.0555 246.251C34.8021 249.008 44.5591 247.197 53.275 245.07ZM97.5425 234.124C96.3503 232.72 95.9814 231.825 93.9819 231.627C91.2312 231.354 88.4899 232.021 86.3821 233.835C85.3195 234.749 85.0535 236.051 83.3962 235.871C82.2654 235.748 81.2028 233.615 80.5172 232.783C79.9451 232.758 79.6751 235.783 79.643 236.329C79.4853 238.99 79.7299 241.685 79.9291 244.33C88.8988 246.243 98.426 248.147 107.547 246.241C107.64 244.164 106.9 242.551 105.435 241.144C102.434 238.261 100.535 237.713 96.4318 238.879C95.8624 239.041 93.474 240.453 93.772 238.923C93.9498 238.009 98.0611 237.153 99.0128 237.035C99.4846 236.976 99.9591 237.016 100.431 237.008C99.0622 234.681 95.6205 235.339 93.4553 236.094C92.8779 236.296 91.6749 237.297 91.282 236.435C91.0133 235.843 92.8311 235.11 93.2614 234.939C94.6221 234.4 96.0723 234.124 97.5452 234.122L97.5425 234.124ZM107.545 247.396C106.429 247.639 105.11 248.064 103.985 248.162C99.1157 248.584 93.6611 248.088 88.8213 247.364C85.8768 246.923 82.9604 246.204 80.0373 245.665L80.3554 247.02C87.4046 248.619 95.1848 250.186 102.457 249.711C104.133 249.601 105.992 249.211 107.515 248.517L107.545 247.395V247.396ZM53.2924 246.435C44.2878 248.44 34.6016 250.361 25.5904 247.397C25.5342 249.142 25.3137 249.389 26.9778 249.95C32.2613 251.736 45.2782 250.275 50.7462 248.6C51.9771 248.223 53.6826 248.063 53.291 246.434L53.2924 246.435Z" fill="black"/>
<path d="M57.2627 62.1885C61.7549 63.0479 66.4958 63.6641 71.0856 63.3246C72.4823 63.2217 73.8978 62.6589 75.2223 62.6509C75.3533 62.7485 75.519 62.8648 75.5378 63.0332C75.5632 63.2497 75.0539 65.4364 74.9363 65.8293C71.8889 76.0288 58.9281 75.4059 57.3522 65.1343C57.2199 64.2695 57.6169 63.3125 56.9727 62.6229L57.2614 62.1885H57.2627ZM74.0715 64.2909C68.8508 65.002 63.3522 64.9352 58.2972 63.3272C58.1435 64.2762 58.5979 64.6518 59.3772 65.0341C62.1626 66.4014 70.8918 66.8972 73.4407 65.1009C73.7628 64.8737 73.9512 64.6718 74.0715 64.2909ZM73.6866 66.0218C68.8909 67.8676 63.427 67.7593 58.6808 65.8293C59.0016 66.5885 60.1524 69.4969 60.9223 69.6453C63.7211 67.9331 67.7816 68.2191 69.741 71.0099C71.5882 69.8591 72.9074 68.032 73.6879 66.0205L73.6866 66.0218ZM68.4231 70.7052C66.8112 69.009 63.5192 69.2964 61.5665 70.2534C63.2265 72.2315 66.7177 72.6592 68.8736 71.3093C68.6677 71.1529 68.5915 70.8816 68.4231 70.7038V70.7052Z" fill="black"/>
<path d="M70.6288 53.6906C70.0487 52.1857 73.5545 51.7325 74.6465 51.5922C74.6973 51.2701 74.1787 51.3824 73.9675 51.3944C73.0039 51.4492 72.0095 51.7486 70.9923 51.5935C70.8747 50.6619 72.0455 50.3946 72.766 50.1942C75.2159 49.5112 78.0709 49.9095 80.3577 50.9814C81.4043 51.4719 83.2835 52.5519 82.8357 53.9152C82.4147 54.5033 77.6766 53.0919 76.6688 53.5156C74.696 53.136 72.6376 53.7548 70.6274 53.6893L70.6288 53.6906Z" fill="black"/>
<path d="M57.1421 52.559L59.0734 53.655C59.3688 54.0399 59.2539 54.7203 58.754 54.8192C58.2114 54.9261 55.6211 54.314 54.7443 54.2805C52.972 54.2124 51.221 54.6722 49.541 54.6895C49.2509 54.6922 48.7845 54.6989 48.6855 54.3634C48.8139 52.9613 50.2012 52.1781 51.3734 51.6956C53.8848 50.6611 57.3626 50.2842 59.7484 51.7825C60.0037 53.3463 58.0911 52.5403 57.1421 52.559Z" fill="black"/>
<path d="M73.4473 43.7585C76.4907 43.3455 80.6074 44.4014 82.1524 47.2631C81.8891 47.6106 81.9226 47.505 81.6205 47.4181C80.8386 47.1936 79.9591 46.5119 78.9794 46.2072C77.0828 45.6177 75.5938 45.5335 73.6384 45.8744C72.497 46.0735 70.1593 47.362 69.7129 45.9198C69.7236 44.9294 72.5986 43.8748 73.4473 43.7599V43.7585Z" fill="black"/>
<path d="M47.7165 47.9395C47.3597 47.4356 49.4514 46.0268 49.8952 45.7916C52.4788 44.4256 58.3357 43.7159 59.8367 46.8782C59.6576 47.1455 59.4771 47.1789 59.1724 47.1803C58.4119 47.1829 57.0178 46.6523 56.0822 46.5962C54.2203 46.4853 51.5993 46.9076 49.7896 47.4168C49.3472 47.5412 48.0734 48.4433 47.7165 47.9381V47.9395Z" fill="black"/>
<path d="M94.0797 55.6373C94.5488 56.3564 92.4464 56.7039 92.1577 57.2706C93.3579 57.9188 93.8418 59.5508 93.5023 60.8272C92.985 61.3044 91.8249 58.3278 91.484 58.3305C90.9253 58.7943 91.051 60.1496 90.0325 59.778C89.3188 58.3813 91.1526 55.8485 92.5292 55.5224C92.8527 55.4462 93.9447 55.4288 94.081 55.636L94.0797 55.6373Z" fill="black"/>
<path d="M41.5565 63.135C41.1903 63.5681 40.0302 61.0045 39.6359 61.0206C39.3472 61.5552 38.9195 64.4703 38.3835 64.4783C37.5802 63.2379 38.4837 61.5485 39.0398 60.371C38.8005 59.4474 36.3973 59.9486 36.5564 59.1961C38.8713 57.4185 41.8426 60.6958 41.5565 63.135Z" fill="black"/>
<path d="M70.8015 57.9418C70.5195 57.9124 70.1172 58.0314 69.8793 57.8991C69.7443 57.8229 68.3262 55.6977 68.103 55.3489C67.8036 54.8824 66.6461 53.1662 66.5953 52.7973C66.5231 52.2694 66.9883 51.8256 67.5256 52.0689C68.1604 52.3576 71.2947 57.4647 70.8015 57.9405V57.9418Z" fill="black"/>
<path d="M62.822 74.4824C63.9969 74.9783 65.014 75.0879 66.2784 75.0571C66.813 75.0451 67.4827 74.5493 67.9117 75.1561C66.5417 76.8335 63.9113 76.375 62.5293 74.9609L62.822 74.4824Z" fill="black"/>
<path d="M133.274 10.6675C135.507 10.1596 137.687 11.7608 137.286 14.0985L127.249 32.7238C123.906 37.9632 119.09 34.0096 115.731 31.2014C113.902 29.671 111.239 27.8185 112.705 25.1079C112.911 24.7283 113.66 23.9331 114.039 23.7486C117.203 22.2102 119.738 27.3494 122.556 27.8533C125.134 23.2688 127.481 18.5106 130.364 14.1052C130.939 13.2271 132.275 10.8947 133.274 10.6675ZM133.855 11.813C133.048 11.9774 132.34 13.2645 131.903 13.9127C130.231 16.3894 128.633 19.4114 127.139 22.0378C126.515 23.1351 123.856 28.5563 123.239 28.9092C121.332 29.9985 118.453 26.3296 116.964 25.3525C114.166 23.5174 112.473 26.4579 114.371 28.5216C115.234 29.4598 117.346 30.9715 118.453 31.7494C121.626 33.9775 123.947 35.6763 126.435 31.5289C129.749 26.0008 132.513 20.0877 135.784 14.5262C136.563 13.1375 135.416 11.4949 133.854 11.813H133.855Z" fill="black"/>
<path d="M93.6934 111.412C93.4127 111.691 93.3472 111.393 93.3111 111.128C93.2055 110.34 93.4261 109.097 93.5303 108.267C93.9059 105.286 94.5916 100.064 95.4871 97.3322C95.8105 96.3458 96.1915 96.7561 96.15 97.5995C96.0605 99.4199 95.6755 101.398 95.3948 103.206C94.9671 105.96 94.4352 108.733 93.692 111.412H93.6934Z" fill="black"/>
</g>
<defs>
<clipPath id="clip0_2117_24708">
<rect width="160" height="160" fill="white"/>
</clipPath>
</defs>
</svg>
