<svg width="160" height="160" viewBox="0 0 160 160" fill="none" xmlns="http://www.w3.org/2000/svg">
<g clip-path="url(#clip0_2117_24848)">
<path d="M108.531 37.2462L108.808 37.1288L111.061 37.9284C111.873 38.4854 112.738 38.9563 113.658 39.3411L113.692 39.5942L113.205 39.6268C111.735 39.1311 110.262 38.7607 108.787 38.5128L108.04 45.6467C110.757 46.1371 113.085 48.2203 113.659 50.953C115.944 50.1639 120.66 47.092 119.788 44.234C119.278 42.5604 117.116 41.3304 115.642 40.5855L115.571 40.3442L115.762 40.1916C116.989 40.6782 117.417 40.5751 117.043 39.8825L117.167 39.6868C118.506 40.7434 120.84 42.8187 121.013 44.6162C121.367 48.2881 116.46 50.8304 113.74 52.2653C113.96 57.9199 108.072 62.3132 102.809 59.7774C102.318 63.6137 101.002 67.3417 98.6738 70.4384C99.4395 71.9333 100.068 73.4868 100.602 75.0821C100.784 75.3039 101.126 75.09 101.356 75.0821C101.922 75.0626 102.468 74.9648 102.809 75.27C102.723 75.5935 102.904 75.8022 103.353 75.8987L103.371 76.1152L103.17 76.2913L102.101 76.3292C104.749 79.7311 106.382 83.8465 107.763 87.988C108.47 90.109 109.084 92.2691 109.683 94.4201C110.268 90.9347 110.965 87.3685 112.055 84.0513C112.129 83.823 112.52 82.7978 112.7 82.7639C113.088 82.6908 113.174 82.803 113.033 83.2726C112.252 86.6797 111.528 90.1364 110.916 93.5344C110.689 94.7919 110.457 96.0937 110.527 97.3577C111.321 100.765 112.012 104.248 112.597 107.803L129.851 102.708C127.055 97.6642 125.739 91.043 126.577 85.2514C126.714 84.3018 127.139 81.7529 127.658 81.1125C127.719 81.0355 127.792 80.9677 127.868 80.9025L127.838 80.7029C129.102 79.9855 129.367 79.3463 128.634 78.7854L128.618 78.5545C128.852 78.501 129.102 78.4502 129.33 78.3745C130.77 75.8009 131.999 73.0799 133.141 70.3562C133.614 69.2266 134.191 68.3944 133.596 67.1448C132.178 66.7065 131.218 66.79 130.613 65.2468C130.217 64.2411 130.196 63.4298 130.39 62.3784C129.383 61.5645 128.516 60.5901 128.737 59.1891C128.793 58.8304 129.2 58.0465 129.183 57.766C129.17 57.5573 128.891 57.1725 128.806 56.9155C128.228 55.1637 128.726 53.9715 129.887 52.6423C129.976 52.5405 130.199 52.4936 130.264 52.3618C130.413 52.0579 130.457 50.3452 130.641 49.7347C130.944 48.729 131.924 47.6385 132.843 47.1494C134.205 46.4241 135.742 46.7072 137.161 47.1037C137.221 45.348 137.169 42.4469 139.069 41.6421C141.16 40.7564 142.799 42.3987 142.979 44.4297C143.126 46.0928 142.784 47.889 143.114 49.5508C143.329 49.8978 143.712 50.0269 144.014 50.34C145.779 52.1662 145.683 56.9873 145.791 59.4526C145.95 63.0659 146.101 66.8056 145.58 70.4058C145.13 73.509 144.009 76.4648 143.194 79.4728C141.379 86.158 140.574 93.9897 133.827 97.6107C133.611 99.0312 133.475 102.693 131.853 103.241C131.59 103.329 131.3 103.307 131.057 103.383C127.468 104.506 123.901 105.712 120.276 106.729C120.147 106.911 120.826 108.08 120.94 108.346C121.697 110.089 122.412 111.963 122.772 113.838C122.89 114.457 123.32 116.371 122.332 116.484L122.144 116.204C122.298 113.184 121.544 109.769 119.515 107.503L119.517 107.284L119.024 107.257L114.859 108.458L116.659 117.927C116.878 118.213 120.639 116.475 121.132 116.029L121.488 116.016C121.6 115.767 121.776 115.843 122.019 116.243C122.156 116.291 122.26 116.371 122.332 116.486C122.332 117.178 122.889 118.697 123.083 119.49L122.956 119.529C122.632 118.961 122.245 118.453 121.795 118.003L121.77 117.8C121.612 117.729 121.463 117.605 121.321 117.429C119.907 118.273 118.414 118.87 116.841 119.22C117.653 125.507 118.48 131.824 119.32 138.172C119.298 139.111 119.352 139.408 119.479 139.066C121.046 138.782 122.62 138.243 123.787 137.116L124.117 137.047C124.428 137.078 124.668 137.625 124.492 137.892C123.116 139.464 121.106 139.875 119.157 140.349C119.071 140.998 118.915 141.787 118.485 142.304L118.388 141.986C118.886 140.081 118.693 138.083 118.471 136.143C117.76 131.185 116.971 126.198 116.105 121.184C115.789 120.118 115.582 119.053 115.481 117.988L115.244 117.836C114.808 114.88 114.284 111.911 113.669 108.927L112.836 109.177C113.609 112.805 113.843 116.475 113.848 120.107C114.434 123.164 114.941 126.218 115.373 129.268C115.67 131.931 115.848 135.072 113.887 137.166C114.092 139.449 114.38 141.721 114.752 143.985C114.803 144.201 116.8 142.877 116.895 142.721L117.171 142.774C117.437 142.689 117.734 143.235 117.546 143.431C117.521 143.456 117.501 143.644 117.366 143.764C116.62 144.43 115.724 144.867 114.821 145.278C114.807 145.457 114.821 145.635 114.837 145.813C115.003 147.779 115.858 150.22 115.865 152.114C115.867 152.948 114.984 152.878 114.354 153.007C114.464 153.462 114.747 153.842 114.892 154.301C115.209 155.306 115.335 156.878 115.297 157.939C115.286 158.269 115.2 158.788 115.106 159.109L114.914 158.897C114.867 157.489 114.798 156.026 114.221 154.719C113.925 154.516 113.814 154.32 113.886 154.132L113.667 154.105C113.637 153.892 113.565 153.744 113.452 153.66C109.669 155.878 105.462 157.497 101.307 158.51C100.876 158.644 100.229 158.445 100.645 157.973L106.94 155.498L108.537 155.073L108.769 154.842C109.754 154.682 110.695 154.427 111.59 154.08C111.147 154.271 110.825 154.252 110.625 154.024C107.283 154.663 103.958 154.965 100.436 154.839C98.8303 154.912 97.2128 154.996 95.6854 155.516C95.9162 155.542 96.0389 155.644 96.0532 155.824L96.005 156.017L87.2614 156.793L87.2171 157.987C87.2927 160.375 87.3618 162.83 87.4088 165.253C87.4545 165.759 87.2158 166.879 86.6927 166.146C86.5609 165.961 85.9726 163.756 86.0248 163.638C86.0574 163.563 86.1318 163.516 86.1983 163.475L86.0105 163.389V156.782L86.1983 156.67L86.1266 156.863L83.4981 157.032L83.3781 158.463C83.6677 160.765 83.7955 162.941 83.309 165.226C83.2281 166.472 83.4212 167.704 83.8921 168.923C83.9756 169.29 83.9821 169.634 83.5386 169.491C81.4724 167.654 81.8089 165.32 82.3007 162.838C82.3229 161.124 82.2811 159.405 82.1742 157.68C82.1415 157.358 82.2315 157.116 82.4442 156.953C82.4246 157.026 82.3946 157.133 82.3372 157.14C82.1115 157.169 80.5332 157.182 80.3727 157.14L80.2384 156.953C80.3167 157.165 80.1693 157.223 79.9762 157.237C79.3357 157.281 78.4931 157.323 77.9387 157.046C77.9243 156.799 78.4396 156.702 78.664 156.68L82.8538 156.339C79.1492 156.359 75.4081 156.617 71.6331 157.112C69.1208 157.307 66.5563 157.45 64.0844 156.902C63.4074 156.37 62.7291 156.521 62.9913 157.502L62.9209 157.609L62.4969 157.677C60.9029 157.198 59.2789 156.736 57.6054 156.693C57.274 157.663 57.334 158.729 57.5166 159.745L57.3823 160.049C57.394 160.229 57.2531 160.314 56.9623 160.301C56.7888 161.602 56.7366 162.928 56.8057 164.285C56.3961 167.385 56.1235 170.477 56.0257 173.609C55.5326 177.96 55.0356 182.31 54.5334 186.655L54.3795 187.087C54.386 180.506 55.0748 173.957 55.7987 167.431C56.0035 165.585 56.4888 163.408 56.5409 161.603C56.584 160.116 56.104 158.528 56.4353 157.014C55.6826 156.504 55.3122 156.385 55.1309 155.449C55.2756 155.196 56.117 154.984 56.3505 155.167C57.1592 155.177 57.9784 155.287 58.8093 155.493C68.7425 156.441 79.3188 156.113 89.4933 155.319C96.7602 154.753 103.708 153.775 110.898 152.652C111.449 152.566 112.009 152.545 112.567 152.537L112.763 152.505C113.12 153.236 113.733 152.785 113.885 152.143C114.924 152.225 115.083 151.794 115 150.843C114.919 149.92 114.808 149.001 114.633 148.086C113.317 141.54 112.225 134.948 111.357 128.314C111.312 128.388 111.276 128.328 111.252 128.221C110.937 128.043 110.844 127.209 110.818 126.811C110.718 126.475 110.768 126.256 110.971 126.155L110.877 125.874L110.677 125.7C110.554 124.441 110.316 123.184 109.973 121.965C109.798 121.347 109.579 120.863 109.281 120.335C108.664 117.726 108.02 115.141 107.347 112.578C107.26 112.468 107.154 112.362 107.029 112.261L106.719 111.91C106.456 111.273 105.445 108.723 105.478 108.286C105.484 108.201 105.504 108.119 105.527 108.036L105.141 107.257C102.528 99.3939 99.4812 91.7095 96.2528 84.0813C95.9489 83.3626 93.0139 76.6501 92.5482 76.6801C93.4992 85.584 81.535 90.0647 75.202 84.5796C74.4454 83.9235 73.2949 82.6073 73.0706 81.6381C73.0523 81.5599 73.1541 81.4921 73.2441 81.4673C73.4202 81.2716 73.7098 81.166 74.1128 81.1516C77.5578 80.0624 80.9402 78.3249 83.9638 76.4883L83.0468 76.6201C82.572 76.8757 82.0894 77.0153 81.5976 77.0388C81.3263 76.6566 81.1397 76.6579 80.7054 76.7935C79.8262 77.1288 79.3005 77.3088 78.4344 76.7661L76.9147 77.0296C76.256 76.7205 74.8211 76.2874 74.2263 76.8822C73.8232 77.2853 74.0163 80.0598 74.2446 80.5829L74.0646 80.8477C73.6889 81.0146 73.3484 81.196 73.0549 81.4686C71.8418 85.0101 70.8752 88.6116 70.1552 92.277L77.6439 96.2189C77.7965 96.2802 77.8604 96.3911 77.9165 96.5411C78.0626 96.939 77.3047 100.358 77.1208 100.949L76.903 100.997C76.9473 101.272 76.873 101.572 76.6799 101.896C76.346 103.644 75.9651 105.39 75.5346 107.136C74.8929 110.908 74.1272 114.837 73.0849 118.365L72.8645 118.597L71.1922 129.099C70.1343 139.313 63.1661 147.591 55.2796 153.54L55.0369 153.57C52.5807 155.463 49.3197 157.498 46.4277 158.618C43.6298 159.702 41.8688 159.636 38.9456 159.676C37.3203 159.698 34.8366 159.861 33.3079 159.675C32.4626 159.572 29.9711 157.63 29.2263 156.998C21.375 150.329 14.8959 137.702 14.215 127.417L14.1172 127.19V124.561L19.0988 85.5618C19.4105 84.5209 19.8723 84.8392 20.6354 84.8535C27.7862 84.9879 36.5428 81.5768 42.8367 78.3275C43.6519 77.9062 44.6003 77.1327 45.5055 77.0544C47.1165 77.2305 48.9127 76.8209 50.4871 76.9605C51.0728 77.0127 51.275 77.1679 51.6533 77.5775C52.3198 78.3001 52.929 79.2563 53.6242 80.0181C54.5543 81.0355 55.7752 82.2095 56.8162 83.1147C56.9949 83.27 57.5075 83.7396 57.6875 83.7122C59.502 82.456 61.2877 81.3538 63.26 80.3572C63.6631 80.1537 64.2762 79.9894 64.6414 79.7676C65.0262 79.5328 65.2375 79.0397 65.5936 78.7489C67.3142 77.3427 70.9874 76.9018 73.1475 76.6827L69.4247 75.3861C64.8018 73.3016 61.3243 69.3271 59.8137 64.4864C59.3637 64.5594 58.9802 64.7994 58.5276 64.922C54.1969 66.0882 49.9262 62.9537 48.9988 58.7365C48.8657 58.1326 48.8788 57.5704 48.7261 56.9912C45.3686 55.9555 39.4856 53.9206 39.8339 49.5064C39.9095 48.5555 40.58 47.105 41.0522 46.2663C41.2335 45.995 41.3379 46.1293 41.4735 46.3563C41.7749 46.5611 43.0349 45.6571 43.3089 45.4288C44.4124 44.4179 45.6112 43.5531 46.9052 42.8317L47.2482 42.8852L47.4361 42.7913C47.4622 42.7091 47.4935 42.7104 47.53 42.7913C49.1305 41.8665 51.0389 41.1125 52.8142 40.5294C66.4767 36.0475 81.4072 35.0365 95.6684 35.5635C99.2517 35.6966 103.381 35.8883 106.863 36.6827C107.434 36.8132 108.004 37.001 108.533 37.2514L108.531 37.2462Z" fill="#EED3CA"/>
<path d="M113.882 154.131C113.697 154.261 113.597 154.413 113.581 154.582C113.821 155.845 113.949 157.108 113.443 158.355C112.874 159.422 112.537 160.497 112.43 161.582C114.251 171.03 116.155 180.925 117.612 190.593L117.638 191.59C112.707 193.227 107.474 193.887 102.289 194.121C99.844 194.23 97.3265 194.333 94.8794 194.123C93.4302 193.999 91.9118 193.776 90.58 193.191C90.4026 193.044 89.903 190.865 89.8091 190.463C88.4551 184.677 87.6059 178.752 86.5728 172.907C86.728 172.749 89.1125 173.913 89.5104 174.052C89.5952 174.082 89.7778 174.226 89.7634 174.034C88.999 173.594 88.3873 172.916 87.6346 172.456C85.7484 171.304 83.107 171.01 80.9429 171.218C81.226 171.669 81.9434 171.751 82.4443 171.78L82.7391 171.806C83.51 172.549 84.2027 173.37 84.7414 174.3L84.697 174.595L84.7688 175.029L79.4637 193.824L79.3502 194.021C76.8079 194.597 74.0686 194.447 71.4598 194.267C68.0696 194.033 64.4863 193.69 61.22 192.786C60.3539 192.546 57.8768 191.801 57.3655 191.25C57.3029 191.182 57.2494 191.105 57.1985 191.024C57.1502 190.879 57.1046 190.733 57.0733 190.586C57.042 190.438 57.012 190.291 57.0094 190.143C56.9298 183.387 57.0759 176.761 57.8781 170.105C58.1873 166.789 58.019 163.454 57.3016 160.257L57.3863 160.043C57.2442 159.324 57.1476 158.569 57.1946 157.833C57.2102 157.585 57.3446 156.553 57.539 156.486C59.446 156.552 61.1287 157.061 62.9223 157.602C63.0541 157.367 63.8315 157.633 63.8602 157.884C64.322 157.937 64.7276 158.063 65.0798 158.26C65.1111 158.179 65.1424 158.179 65.1737 158.26L65.9799 158.338C67.7148 158.826 69.4653 159.26 71.2367 159.586L66.8238 158.284L66.7691 158.072C67.0495 157.996 67.3313 157.924 67.6156 157.867C67.9 157.809 68.1831 157.753 68.4687 157.726C71.0437 157.474 73.6264 157.242 76.2053 157.026C76.7818 156.977 77.361 157.007 77.9362 157.039C78.608 157.018 79.2863 157.065 79.9581 157.043C80.0807 157.039 80.2007 156.945 80.2359 156.945H82.4417C82.1417 158.72 82.6335 160.473 82.5395 162.252C82.4574 163.822 81.7334 165.958 82.3295 167.43C82.5721 168.028 83.2726 168.992 83.754 169.431C83.7344 168.455 83.1774 167.537 83.0939 166.57C82.97 165.14 83.4096 163.759 83.4761 162.346C83.5413 160.949 83.1944 159.636 83.1839 158.306C83.18 157.826 83.3587 157.348 83.2844 156.849L86.1945 156.662V163.468C86.1945 163.816 86.6941 165.757 86.8689 166.08C86.9028 166.142 86.9289 166.197 86.9915 166.236C87.0815 166.171 87.1142 166.113 87.1324 166.004C87.4533 164.148 86.8885 161.384 87.1363 159.428C87.0359 159.037 86.9394 156.74 87.1259 156.609L96.0481 155.818L96.3247 155.648C100.123 155.553 104.023 155.343 107.868 154.98C108.092 154.959 108.315 155.012 108.53 155.066L100.646 158.166C100.662 158.29 100.777 158.335 100.888 158.352C101.336 158.42 103.766 157.63 104.378 157.438C107.505 156.461 110.557 155.132 113.384 153.481C113.77 153.402 113.761 153.952 113.88 154.127L113.882 154.131Z" fill="#212492"/>
<path d="M89.291 5.70326C89.368 5.64326 89.4554 5.57804 89.5519 5.58456C90.3815 5.64457 91.8007 7.17334 92.346 7.80077C94.1383 10.3887 96.1927 12.4497 98.8238 14.2224C102.775 16.796 103.89 21.1319 104.738 25.4508C104.893 26.1617 105.144 26.9092 105.77 27.3344L105.808 27.5783C105.765 27.8184 104.66 27.8862 104.563 27.8105C102.8 25.3961 99.7434 24.8547 97.0158 25.7795C94.8296 24.3134 92.2195 23.9781 89.8663 25.0986C89.2415 25.37 88.9232 25.0282 88.541 24.5743L88.2905 24.6564C87.6853 24.3316 87.0344 24.1151 86.3522 24.0342L86.1943 23.8242L86.1004 23.7303C86.0143 23.9873 85.2317 24.0055 85.1625 23.7303C83.8738 23.7538 83.2046 23.9729 82.0632 24.526C81.7358 24.6851 81.2206 25.1443 80.8919 25.1443C80.4418 25.0373 80.0674 24.7151 79.6226 24.5299C77.7521 23.7525 75.8085 23.8334 73.9445 24.573C72.8814 24.9956 72.1718 25.64 71.3135 26.3613C70.8726 26.3509 70.4891 26.1004 70.0704 26.0117C67.708 25.5108 65.6366 25.8969 63.7622 27.4375C63.5469 27.6136 63.0343 28.2619 62.8504 28.3153C62.583 28.3936 61.8329 28.0845 61.4625 28.0505C59.3976 27.8601 56.9439 28.8749 55.6004 30.4454C55.4491 30.6215 55.1465 31.2203 55.0356 31.2881C54.7812 31.442 54.5164 31.2581 54.2855 31.2411C54.1942 31.0964 54.2086 30.9242 54.3312 30.7246C54.3964 27.6683 54.549 24.5704 54.7877 21.4306C56.5278 14.0228 63.2717 8.89648 70.0221 6.32678L70.2399 6.45591C74.268 5.29368 79.984 4.97149 84.1764 5.14237C85.6086 5.20107 87.9357 5.35759 89.2923 5.70457L89.291 5.70326Z" fill="#5A321B"/>
<path d="M108.532 37.247C103.84 36.0508 97.8551 35.8017 92.9961 35.6543C80.2832 35.2721 65.9072 36.6026 53.7447 40.4128C51.5976 41.0859 49.6149 42.0016 47.5291 42.7842C47.353 42.6407 47.3804 42.5572 47.5213 42.4177C48.784 41.1746 50.5815 39.9836 52.1077 39.0431C56.3562 36.4239 61.0873 34.7412 65.6424 33.3024C67.0277 33.2894 69.2752 32.675 70.7701 32.4702C73.2211 32.135 75.8443 31.8297 78.3122 31.7058C78.5535 31.6041 78.804 31.5036 79.0688 31.4853C81.2472 31.3353 83.6225 31.471 85.8074 31.6145C93.6901 32.1323 101.5 33.5189 108.527 36.9769C108.57 37.0617 108.57 37.1517 108.533 37.2444L108.532 37.247Z" fill="#5A321B"/>
<path d="M76.2468 109.349C76.2273 109.74 76.2038 110.132 76.1673 110.522C76.1307 110.913 76.0916 111.301 76.0277 111.686C74.7689 119.196 73.4619 126.747 72.0061 134.02C71.924 134.265 71.8053 134.49 71.6487 134.696C71.6761 134.782 71.7009 134.868 71.7113 134.956C71.7218 135.043 71.7296 135.125 71.71 135.201C69.7169 142.747 63.3578 151.012 56.8383 155.137L56.3518 155.162C56.0048 155.308 55.5065 155.445 55.1321 155.444C55.0069 154.804 55.0304 154.219 55.0382 153.567C59.6741 149.993 65.711 144.059 68.1007 138.703C68.9186 136.868 69.9178 134.879 70.3091 132.932C71.2691 128.166 71.8196 123.304 72.7027 118.522C73.2701 118.061 73.1423 117.122 73.3862 116.39C74.3763 113.416 74.7193 110.185 75.3546 107.093C75.4837 106.467 75.7146 105.864 75.8464 105.238C76.1294 103.896 76.1725 102.097 76.9069 100.995C77.1547 100.751 77.473 101.136 77.606 101.371C77.7782 101.675 77.7769 102.096 77.7365 102.442C77.4834 104.603 77.019 106.933 76.4973 109.047L76.2507 109.351L76.2468 109.349Z" fill="black"/>
<path d="M113.882 154.131C113.957 154.243 114.317 154.5 114.379 154.622C114.974 155.832 115.082 157.771 115.103 159.106C115.113 159.793 115.006 160.332 115.103 161.077C115.147 161.803 115.15 162.528 115.111 163.254C117.002 172.306 118.452 181.452 119.789 190.598L119.796 191.4C119.299 191.936 118.413 192.182 117.777 192.526C117.732 192.216 117.684 191.9 117.637 191.588C116.208 182.139 114.255 172.742 112.633 163.312C112.468 162.352 112.02 161.577 112.337 160.61C112.898 158.896 113.75 157.946 113.6 155.868C113.563 155.361 113.01 154.012 113.883 154.129L113.882 154.131Z" fill="#4D50A8"/>
<path d="M109.003 33.8674L109.211 33.7526C110.513 34.6866 111.784 35.6806 113.026 36.7306C114.345 37.4676 115.6 38.2972 116.793 39.2181C116.919 39.359 116.879 39.4595 117.169 39.6877C117.847 41.3013 116.437 40.4926 115.574 40.3452L115.362 40.456L113.774 39.8221L113.697 39.5951C113.146 39.1751 112.353 39.029 111.788 38.6403C110.968 38.0781 111.281 38.1798 110.246 37.8355C109.692 37.6502 109.085 37.388 108.535 37.2472C108.38 37.0372 108.022 36.9302 107.781 36.8271C103.968 35.2162 100.557 33.8896 96.4456 33.1448C90.7036 32.1065 84.1319 31.4151 78.3155 31.7073L77.752 31.6134V31.3329C78.562 31.1255 79.3786 31.1295 80.1925 31.0512C80.2264 30.7655 80.7404 30.6873 80.8499 30.9573C83.3075 30.7864 85.5381 30.9299 87.9825 31.0512C88.2278 30.7773 88.803 30.8555 89.0143 31.1451C89.1213 31.1021 89.2296 31.0642 89.3404 31.0368C89.4513 31.0095 89.557 30.986 89.6626 30.9899C92.7359 31.1086 95.7673 31.286 98.7793 31.9538C98.4675 31.8351 97.9392 31.4816 98.3984 31.2377C98.5353 30.986 98.911 31.0447 98.9619 31.3316C100.191 31.5912 101.423 31.826 102.66 32.0373L102.809 32.1769L103.009 32.1926C103.356 32.7221 103.577 32.6204 103.986 32.383C104.05 32.3452 104.146 32.4052 104.216 32.4587C104.258 32.2617 104.41 32.2147 104.675 32.3178C104.776 31.3538 104.862 30.3716 104.803 29.3985L104.967 29.1728L105.095 29.002C107.914 29.3072 108.197 30.6442 107.832 33.2687C108.046 33.5505 108.395 33.6757 108.878 33.6405L109.002 33.8661L109.003 33.8674Z" fill="#835840"/>
<path d="M89.2934 5.70371C89.1316 5.41413 87.8663 5.14934 87.7959 5.04107C87.4528 4.51669 88.7977 4.63409 89.0442 4.67583C90.2652 4.88193 91.4666 5.49892 92.484 5.98547C93.3984 6.62202 94.2358 7.3551 94.995 8.18341C95.3916 8.36081 95.5872 8.56691 95.5807 8.8017L95.6746 8.89562C95.8116 8.77431 95.8638 8.82909 95.7685 8.98954L98.6774 11.1483C98.7674 11.121 98.7987 11.1523 98.7713 11.2423C98.8574 11.3271 98.9226 11.3753 99.0531 11.4301C99.1339 11.3897 99.1626 11.4249 99.147 11.524L99.2409 11.6179C99.3661 11.6662 99.4888 11.7171 99.6061 11.7797C99.7235 11.8423 99.8357 11.9049 99.9296 11.9884C101.436 13.345 102.918 14.7316 104.326 16.1925L104.967 17.1565C105.674 17.9352 106.325 20.9015 106.563 22.0389C106.612 22.2241 106.505 22.3063 106.239 22.2881C106.48 23.4868 106.735 24.6947 107.001 25.913L107.126 25.9822C107.129 26.0017 107.21 26.0865 107.224 26.2091C107.283 26.7153 107.283 27.2827 107.332 27.7953C107.383 27.9675 107.87 28.2075 108.065 28.3288C108.308 28.4658 108.134 28.7658 107.878 28.7045C107.75 29.0958 107.026 28.7541 107.032 28.4227C106.684 28.1423 106.299 27.9297 105.878 27.7849L105.813 27.5775C104.503 26.8418 104.563 25.0195 104.19 23.7086C103.813 22.382 103.364 20.7293 102.905 19.4549C101.624 15.9003 98.0082 14.0624 95.3459 11.7145C93.461 10.0526 91.747 6.33114 89.2947 5.70371H89.2934Z" fill="#835840"/>
<path d="M70.2401 6.45295C68.9696 6.81949 66.5929 8.08217 65.3576 8.75133C60.7347 11.2532 55.2431 16.9965 54.8439 22.4555C54.6835 24.6548 54.6966 26.9023 54.5622 29.1211C54.5165 29.8672 54.7513 30.5977 54.2844 31.2369C53.73 31.1964 53.9061 31.3073 53.533 31.6125C53.516 31.8434 53.3073 31.8643 53.1573 31.7065C53.0321 31.8369 52.4464 31.533 52.4216 31.5056C52.3734 31.4534 52.4099 30.4177 52.4073 30.2051C52.4216 28.6111 52.5534 27.0053 52.689 25.4166C52.9943 20.7728 53.3478 18.3479 56.1784 14.5912C58.8407 11.0575 64.768 7.37778 69.04 6.23902C69.417 6.13858 70.1318 5.8764 70.2388 6.45295H70.2401Z" fill="#835840"/>
<path d="M102.997 75.269C104.9 75.2664 106.731 75.7125 108.543 76.2825L111.474 76.6517C112.622 76.8056 113.779 77.056 114.731 77.7174L116.311 77.6078C117.005 77.6195 117.862 77.673 118.042 78.5C120.785 78.4491 123.496 78.6631 126.212 78.9683C126.735 78.9826 127.191 78.9813 127.585 78.6487L128.149 78.5548C128.269 78.5209 128.486 78.5848 128.618 78.5548C129.364 78.9931 129.496 79.5148 128.856 80.1527C128.743 80.2649 127.965 80.8662 127.868 80.9014L127.663 81.161C126.527 81.3528 125.377 81.3436 124.212 81.1323C122.461 80.8271 120.715 80.6288 118.935 80.6001C117.038 79.9205 115.217 80.141 113.536 81.238C112.636 81.6632 112.166 80.9732 112.918 80.3079L113.752 79.5957C113.012 79.7966 112.284 80.0457 111.567 80.3445C111.045 80.5179 110.585 80.4201 110.188 80.0405C108.461 78.0043 106.189 76.7547 103.52 76.3164L103.374 76.1116C103.022 75.9303 102.224 75.7359 102.81 75.2664C102.832 75.2859 102.946 75.2494 102.998 75.2664L102.997 75.269Z" fill="#DD554B"/>
<path d="M65.6411 33.3037C65.6542 33.5476 65.5081 33.5437 65.3411 33.6142C64.2154 34.0903 62.834 34.3812 61.6509 34.8038C56.6588 36.5921 51.7516 38.9571 47.7405 42.4725C47.627 42.5716 47.5618 42.6264 47.5279 42.7855C47.5018 42.7947 47.464 42.7777 47.434 42.7855L47.2461 42.8794C45.5347 43.5982 44.6112 44.7069 43.2024 45.7348C42.7928 46.0335 41.971 46.6375 41.4728 46.5449C41.2184 46.4979 41.3071 46.2161 41.0527 46.2592C42.1106 44.3782 43.7255 43.5799 45.2778 42.1764C48.081 39.6406 49.3293 38.0505 52.9752 36.4513C57.3802 34.5194 60.8226 33.3494 65.6424 33.3037H65.6411Z" fill="#835840"/>
<path d="M121.767 117.797C122.404 117.939 122.72 119.046 123.08 119.487C123.088 119.517 123.072 119.55 123.08 119.58L123.174 119.768C123.91 122.841 124.593 126.032 124.983 129.172C125.029 129.538 124.987 130.119 125.051 130.41C125.067 130.481 125.23 130.467 125.227 130.511C125.124 133.007 126.258 135.866 124.488 137.888C124.396 137.636 124.18 137.28 124.112 137.043C123.848 136.827 123.707 136.508 123.689 136.083C123.088 131.055 121.962 126.019 120.463 121.225C120.227 120.508 120.144 119.797 120.213 119.091C120.509 118.836 120.669 118.545 120.693 118.219C120.803 117.822 121.554 117.38 121.765 117.797H121.767Z" fill="#50587F"/>
<path d="M74.5589 25.3243C75.0911 24.8886 76.2129 25.083 76.8925 25.2356C78.0991 25.5082 79.6161 26.0783 79.6214 27.504C79.6605 28.5149 79.7922 29.501 80.0179 30.465L79.9083 30.6763L72.3153 31.3259L71.8535 27.2692C71.984 26.7083 73.9706 25.4078 74.5602 25.3256L74.5589 25.3243Z" fill="#8F6852"/>
<path d="M115.478 117.985C116.724 122.138 117.211 126.534 117.838 130.881C118.301 134.092 119.503 139.248 118.481 142.301C118.372 142.623 118.183 142.893 117.967 143.147C117.802 143.339 117.587 143.382 117.543 143.428C117.472 143.335 117.172 142.808 117.167 142.77L116.974 142.679C116.811 137.124 116.284 131.554 115.393 125.967C115.132 123.805 114.963 121.54 114.873 119.437C114.854 118.995 114.847 117.756 115.477 117.986L115.478 117.985Z" fill="#50587F"/>
<path d="M87.6971 30.4872L81.5442 30.4925L81.2363 26.137L83.0038 25.0413L83.2256 24.8548C84.1791 24.7452 86.9745 24.9683 87.4519 25.8774C87.6632 27.311 87.7936 28.7667 87.8419 30.2459L87.6971 30.4885V30.4872Z" fill="#8F6852"/>
<path d="M69.2071 26.7325C69.5385 26.7403 70.8272 26.9895 70.972 27.2673L71.3516 31.4141L64.1382 32.648L63.9973 32.4393C64.0834 31.6071 64.0338 30.7553 63.8499 29.8853C63.8342 29.5735 63.8995 29.3361 64.0899 29.0831C64.5778 28.4348 68.4428 26.3568 69.0858 26.5486L69.2059 26.7338L69.2071 26.7325Z" fill="#8F6852"/>
<path d="M61.8874 29.0796L62.4378 29.3274L62.6296 33.0137L55.6953 34.9012C55.5518 34.1499 55.5909 33.3659 55.5988 32.6002C55.6001 32.4411 55.5388 32.1828 55.694 32.085C55.7762 32.0876 55.8375 32.1202 55.8753 32.188L55.8544 33.302C56.1544 35.5599 56.9227 33.3698 56.6566 32.3693C56.6462 32.0171 56.7493 31.8176 56.9554 31.5436C57.888 30.307 60.1225 29.4305 61.5861 28.9922L61.8874 29.0809V29.0796Z" fill="#8F6852"/>
<path d="M86.1021 23.7277L86.1961 23.8216C87.1783 23.9442 87.6674 24.1138 88.5427 24.5729C89.1675 25.1051 89.2875 25.2473 89.4258 26.0417C89.5863 26.9652 89.7702 29.848 89.4532 30.6633C89.371 30.8746 89.2602 31.1355 89.0123 31.1446C88.6562 31.1237 88.3066 31.0663 87.9805 31.0507C87.9857 30.8563 87.7262 30.615 87.6988 30.4872C87.464 29.3941 87.5801 27.7805 87.4157 26.5922C87.3283 25.9608 87.3283 25.7769 86.7152 25.5095C85.6378 25.0386 84.1638 25.0464 83.0054 25.0425C82.5854 24.9969 82.6598 24.6421 82.9155 24.436C83.4163 24.0303 84.2225 23.9651 84.8382 23.9155C85.0169 23.9012 85.2165 24.0212 85.1643 23.729C85.4447 23.7238 85.8439 23.6911 86.1021 23.729V23.7277Z" fill="#AD8F7E"/>
<path d="M128.146 78.5544C127.719 78.6757 127.478 79.0761 126.979 79.1231C125.325 79.2783 123.728 78.8244 122.096 78.7383C120.694 78.6639 119.276 78.8191 117.875 78.6535C117.776 77.8761 117.133 77.8408 116.465 77.7991C115.948 77.7665 115.031 77.9608 114.682 77.8969C114.536 77.8708 114.157 77.5565 113.904 77.4495C112.213 76.7334 110.244 76.7803 108.507 76.466C107.787 76.3355 106.897 75.9533 106.092 75.7825C105.153 75.5842 103.813 75.5438 102.994 75.2672C103.092 75.112 103.35 75.1733 103.509 75.172C106.425 75.1355 109.664 75.4694 112.428 76.3929C112.925 76.5586 113.89 77.1038 114.315 77.1417C114.71 77.1769 115.215 77.0138 115.71 77.053C116.568 77.1208 117.381 77.6282 118.247 77.7078L128.147 78.5544H128.146Z" fill="#EED3CA"/>
<path d="M80.8483 30.9577C80.5992 30.9747 80.4035 31.0308 80.1909 31.0516C80.2405 30.8338 79.9365 30.7281 79.9091 30.676C79.3821 29.6455 79.6991 27.6275 79.1565 26.5005C77.899 25.4909 76.155 25.1035 74.5597 25.3252C74.1997 24.8204 75.2289 24.5974 75.5732 24.5087C76.7916 24.1943 77.5416 24.2726 78.7143 24.6913C79.253 24.883 80.4831 25.3774 80.6396 25.9566C80.8587 26.7666 81.2266 29.4876 81.1314 30.2572C81.0922 30.5742 80.9213 30.6812 80.8483 30.959V30.9577Z" fill="#AD8F7E"/>
<path d="M104.964 17.1564C103.175 15.1828 101.206 13.4023 99.2393 11.6178L99.1454 11.5239C99.1128 11.4939 99.0841 11.46 99.0515 11.43C98.9367 11.4104 98.8128 11.3452 98.7697 11.2422C98.7436 11.2056 98.7032 11.1808 98.6758 11.1482L95.767 8.98942C95.7343 8.96203 95.707 8.9242 95.673 8.89551L95.5791 8.80159C95.3626 8.61375 95.0417 8.48983 94.8278 8.28634L92.4824 5.98535C95.4422 7.39804 98.1293 9.2764 100.555 11.4756C102.301 13.0579 104.197 14.8737 104.966 17.1564H104.964Z" fill="#EED3CA"/>
<path d="M54.4732 32.1776C54.5202 32.205 54.7302 32.1137 54.7602 32.2285L54.7106 35.2795L50.5299 37.0587C50.3956 36.94 50.3643 36.76 50.4334 36.5174C50.0564 34.2255 52.5022 32.8963 54.2632 32.0771L54.4719 32.1763L54.4732 32.1776Z" fill="#8F6852"/>
<path d="M64.1419 32.6485C63.9175 33.4664 63.3031 33.1468 63.0788 32.5376C62.8753 31.9846 62.8348 30.2719 62.8205 29.5975C62.8035 28.8318 63.9958 28.1209 64.6193 27.7269C66.0098 26.8491 67.8438 26.1016 69.4913 26.2647L69.2096 26.733C68.1778 26.7069 65.7228 28.083 64.8632 28.7222C64.2449 29.1827 63.9879 29.2088 64.0506 30.0644C64.1249 31.0949 64.4549 31.5032 64.1419 32.6472V32.6485Z" fill="#AD8F7E"/>
<path d="M61.889 29.0814C60.072 29.7584 58.1701 30.2462 56.9348 31.8715C56.6139 32.6776 57.3274 34.5456 56.0426 34.4177C55.543 34.269 55.6656 32.5485 55.6943 32.0854C55.7569 31.0654 56.2265 30.7614 57.0157 30.1679C57.8583 29.534 58.7949 29.0944 59.8228 28.8453C60.3407 28.72 61.8551 28.2531 61.8877 29.0801L61.889 29.0814Z" fill="#AD8F7E"/>
<path d="M53.5354 31.6152C53.5432 31.6204 53.4989 31.7808 53.5954 31.8043C53.795 31.8539 54.0546 31.7365 54.288 31.8487C54.4537 31.9282 54.4576 32.1682 54.4733 32.1787L52.0823 33.4948C51.6779 33.8209 50.7478 34.8527 50.6474 35.3445C50.5339 35.895 50.7309 36.4846 50.5326 37.0598C50.3526 37.5816 49.8804 37.6233 49.3965 37.4707C49.3378 37.2294 49.1408 36.9698 49.1317 36.7233C49.1225 36.4767 49.1943 35.6915 49.2295 35.4254C49.3795 34.2827 50.7726 32.9483 51.7522 32.4096C52.2688 32.1252 52.844 32.0508 53.161 31.7065C53.2275 31.6334 53.4767 31.5695 53.5367 31.6126L53.5354 31.6152Z" fill="#AD8F7E"/>
<path d="M116.791 39.219L113.005 36.9493C112.086 36.3115 109.825 34.1462 109.001 33.867C108.754 33.7535 108.874 33.5605 109.36 33.2892C109.823 31.5686 109.272 29.9485 107.805 28.9259L107.875 28.7028L108.063 28.3271C108.672 28.708 109.148 28.9454 109.603 29.5559C110.601 30.8969 109.842 32.6604 109.893 34.1475C111.925 35.4949 114.054 36.7667 115.897 38.3751C116.204 38.6425 116.522 38.9112 116.791 39.2177V39.219Z" fill="#EED3CA"/>
<path d="M106.564 22.0391C106.844 23.38 106.96 24.6335 107.127 25.9823C107.046 26.2028 106.866 25.9771 106.805 25.8819C106.6 25.561 106.451 24.0361 106.347 23.5248C106.271 23.1517 106.031 22.5804 106.003 22.2712C105.981 22.026 106.427 22.1447 106.564 22.0404V22.0391Z" fill="#EED3CA"/>
<path d="M52.408 30.2055C52.3975 29.535 52.4132 28.8607 52.408 28.1876L52.6884 25.417L52.4067 30.2055H52.408Z" fill="#5A321B"/>
<path d="M123.174 119.768L123.08 119.581C123.083 119.591 123.146 119.655 123.174 119.768Z" fill="#EED3CA"/>
<path d="M110.033 131.879C110.316 131.891 110.358 132.084 110.127 132.255C110.256 132.468 110.349 132.694 110.401 132.937L111.001 139.476C111.677 142.784 112.059 146.086 112.146 149.378L112.459 151.179C112.902 151.73 112.938 152.181 112.568 152.533C105.209 153.911 97.7507 154.858 90.2763 155.442C81.8237 156.104 73.2014 156.426 64.7488 156.101C61.9417 155.993 59.0641 155.925 56.3496 155.162C57.5353 154.662 59.4072 153.182 60.3868 152.3C65.1675 147.993 70.063 140.98 71.6479 134.695L71.777 134.498C80.0497 133.955 88.3706 133.456 96.7385 133.005L109.901 131.703L110.033 131.879Z" fill="#D52B1E"/>
<path d="M105.528 108.034C105.982 109.431 106.613 110.905 107.029 112.259L107.252 112.567C108.052 115.11 108.696 117.7 109.186 120.333C109.301 120.479 109.306 120.674 109.201 120.916C109.273 124.386 109.573 127.898 110.101 131.453L110.032 131.881L96.7514 133.195L77.1381 134.323L71.6465 134.697C72.3078 132.073 72.7148 129.311 73.2118 126.641C74.2827 120.89 75.2245 115.11 76.2446 109.35L76.3254 109.158C76.3254 109.158 86.0173 108.723 105.401 107.853L105.526 108.035L105.528 108.034Z" fill="#F7F0EF"/>
<path d="M20.0289 85.7847C23.9787 85.953 27.8946 85.0712 31.6435 83.9311C35.5163 82.7533 39.4348 81.1214 43.0233 79.2613C43.4564 79.037 44.5208 78.2908 44.8756 78.1995C44.9891 78.1708 45.0947 78.1552 45.2082 78.1943C50.9568 84.9042 57.8168 90.6815 65.4828 95.0943C66.8616 95.8887 68.2952 96.5866 69.6661 97.394L62.2101 134.693C60.6252 139.665 54.1305 145.569 50.0502 148.722C44.9017 152.7 39.1178 156.033 33.111 158.544C30.8713 157.357 28.7973 155.481 27.0637 153.616C20.4098 146.454 14.4408 133.982 15.1491 124.042L20.0289 85.7847Z" fill="#F5F5F5"/>
<path d="M105.531 108.033L76.2489 109.348C76.6324 107.18 77.4111 104.372 77.5611 102.258C77.6042 101.658 77.4737 101.259 76.9063 100.992C77.0198 100.822 77.7033 97.4008 77.7425 96.9912C77.7607 96.7968 77.7959 96.6025 77.6616 96.4342L69.9707 92.3866C70.486 88.6664 71.763 85.1027 72.873 81.5339C72.9135 81.4478 72.9865 81.4739 73.0583 81.466C73.0791 81.2756 73.1744 81.2821 73.2461 81.466C73.2422 81.736 73.3909 81.9604 73.5122 82.1861C75.3554 85.6284 79.583 87.1702 83.3345 86.7215C88.4022 86.1163 93.3499 81.8874 92.2998 76.3971C92.6116 76.0762 93.6082 77.9037 93.7229 78.1176C94.0582 78.7372 94.3634 79.4429 94.6621 80.0886C98.8806 89.2025 102.423 98.4835 105.532 108.034L105.531 108.033Z" fill="#D52B1E"/>
<path d="M103.369 76.114C104.847 76.2418 107.526 77.3206 108.669 78.2754C109.187 78.7085 110.298 80.1199 110.854 80.2255C111.655 80.3768 113.031 79.362 113.923 79.4011L114.022 79.5877C113.951 79.7585 112.114 80.9208 112.909 81.1764C113.338 81.3147 114.407 80.4486 114.792 80.3586C115.15 80.2751 116.561 79.9659 116.841 79.9607C117.278 79.9516 118.395 80.352 119.008 80.4212C119.744 80.5047 120.611 80.4512 121.342 80.5281C123.083 80.7134 126.292 81.4817 127.865 80.9025C125.927 86.085 126.259 91.8701 127.746 97.1229C128.181 98.6569 128.682 100.141 129.412 101.559C129.533 101.795 130.191 102.669 130.02 102.868L112.474 108.036C112.165 105.92 111.749 103.82 111.318 101.728C111.034 100.346 110.277 98.1117 110.311 96.8125C110.353 95.242 110.815 93.0832 111.095 91.4957C111.613 88.5712 112.336 85.6871 112.942 82.7822C112.385 83.3079 112.185 84.3057 111.958 85.0349C111 88.1185 110.361 91.4239 109.846 94.6119L109.57 94.608C107.849 88.8399 106.214 82.6061 102.79 77.5893C102.623 77.3441 101.696 76.2966 101.869 76.1179C102.358 76.1479 102.889 76.0762 103.371 76.1179L103.369 76.114Z" fill="#D52B1E"/>
<path d="M76.6227 97.3311L69.3323 134.211C65.9734 143.622 54.8832 154.77 45.4183 157.981C42.2799 159.046 39.0566 158.516 35.7969 158.636L35.8556 158.348C41.5089 155.683 46.9327 152.427 51.7969 148.494C55.9346 145.148 62.1397 139.22 63.4206 133.929L70.625 97.528L76.6227 97.3311Z" fill="#E5E5E5"/>
<path d="M93.7045 74.8945C94.2458 75.1906 94.8198 75.3146 95.4276 75.4424C101.273 77.1251 103.773 82.5345 105.696 87.8096C107.158 91.8246 108.605 95.8487 110.003 99.8872C110.127 100.245 110.177 100.622 110.222 100.995C111.059 106.157 112.508 111.679 112.761 116.903C112.865 119.054 112.771 120.117 111.347 121.787C111.146 122.023 110.946 122.283 110.602 122.208C107.881 111.519 104.45 100.852 100.225 90.6701C98.7317 87.07 97.156 83.2493 95.4759 79.7431C94.7415 78.2091 93.9706 76.4324 92.5762 75.4072L92.6375 75.1685C92.8944 74.9519 93.5062 74.9871 93.7058 74.8945H93.7045Z" fill="#404040"/>
<path d="M51.8338 42.1407L54.0096 49.6737C51.1633 50.5712 49.238 52.9791 48.8376 55.9271C47.0922 55.5593 45.2191 54.8379 43.6864 53.9053C36.0607 49.2602 45.54 44.4352 49.8746 42.7421C50.1772 42.6234 51.6603 42.0207 51.8338 42.142V42.1407Z" fill="#371D0E"/>
<path d="M113.695 39.595C114.235 39.7855 115.06 40.1077 115.572 40.3464C117.207 41.1056 119.906 42.7243 120.075 44.7123C120.298 47.3107 116.816 49.6404 114.79 50.6891C114.393 50.8952 113.965 51.1887 113.509 51.1404C113.008 48.3751 110.588 46.2163 107.836 45.8015L108.62 38.3193C108.752 38.2228 110.097 38.5763 110.374 38.6428C111.465 38.9063 112.639 39.222 113.694 39.5937L113.695 39.595Z" fill="#371D0E"/>
<path d="M121.764 117.798C121.541 117.748 121.049 117.937 120.928 118.136C120.807 118.334 120.869 118.575 120.776 118.734C120.589 119.05 120.307 118.847 120.355 119.627C120.44 121.013 121.498 123.905 121.87 125.438C122.281 127.131 122.707 128.84 123.049 130.549C123.457 132.594 123.568 135.151 124.111 137.045C122.843 138.41 121.032 138.997 119.231 139.297C118.738 133.558 117.649 127.877 116.99 122.152C116.874 121.145 116.736 120.129 116.707 119.122C118.302 118.737 119.826 118.021 121.27 117.25L121.582 117.276L121.766 117.798H121.764Z" fill="#242E5F"/>
<path d="M50.7665 77.9922C51.1447 78.454 51.4956 78.9548 51.8909 79.4023C54.8558 82.7572 58.3634 85.7326 61.9897 88.3584C66.0478 91.2972 70.4515 93.953 75.0157 96.0297L75.0274 96.2997L70.2819 96.4927C61.6923 92.5064 53.5579 86.2478 47.1976 79.2157C46.8949 78.8805 46.3927 78.3939 46.3066 77.9935H50.7652L50.7665 77.9922Z" fill="#F5F5F5"/>
<path d="M62.2637 87.3785C62.5141 87.3329 62.7385 87.252 62.9368 87.1333C63.4924 85.6215 64.1786 84.1644 64.8986 82.7296C66.1195 80.2942 67.9118 79.4764 70.3472 78.575C71.2746 78.288 72.1851 77.958 73.0786 77.585L73.4321 77.6163C73.4465 77.748 73.4256 77.8654 73.3878 77.9906C73.1413 78.832 72.5334 79.9616 72.2099 80.8538C70.9276 84.3862 69.8515 87.9877 69.0271 91.6596C68.8654 91.7535 68.7297 91.6857 68.5771 91.6257C67.6783 91.2748 65.5221 89.7291 64.6182 89.1082C64.1303 88.7729 62.5402 87.7503 62.2637 87.3798V87.3785Z" fill="#404040"/>
<path d="M106.839 45.6922C105.451 45.7039 104.782 46.767 103.936 47.624C102.505 49.0746 101.694 47.3658 101.333 46.0927C100.52 43.2282 100.289 40.0284 100.18 37.0596C102.682 37.1978 105.194 37.5618 107.648 38.0861C107.648 40.6311 107.225 43.1773 106.839 45.6922Z" fill="black"/>
<path d="M59.4485 39.8753C59.6128 41.1328 59.5254 42.4124 59.5385 43.6816C59.5646 46.2278 59.7368 49.0976 59.2176 51.6138C59.1119 52.1225 58.7911 53.6995 58.0919 53.5861C57.5923 52.279 57.3523 50.5937 56.0061 49.845C55.7765 49.7172 55.0656 49.5241 55.0304 49.485C54.8347 49.2684 54.2151 47.2401 54.0756 46.8005C53.5603 45.183 53.1507 43.5277 52.6877 41.8933C52.6837 41.7602 52.7529 41.7328 52.8494 41.6741C53.2277 41.4485 54.5504 41.1276 55.0604 40.9763C56.5005 40.5458 57.9732 40.1662 59.4498 39.874L59.4485 39.8753Z" fill="black"/>
<path d="M117.166 142.77C116.663 143.055 116.267 143.474 115.759 143.757C115.552 143.873 114.758 144.358 114.579 144.088C114.296 141.765 113.774 139.449 113.712 137.108C116.294 134.394 115.195 129.448 114.709 126.027C114.42 123.991 113.807 121.694 113.61 119.713C113.509 118.702 113.68 117.301 113.598 116.156C113.426 113.77 112.995 111.394 112.652 109.032L113.786 108.69C114.091 109.961 114.356 111.238 114.601 112.523C114.902 114.097 115.058 116.596 115.475 117.986C114.889 118.174 115.079 119.631 115.101 120.191C115.384 127.28 117.083 134.548 117.16 141.508C117.163 141.772 117.149 142.643 117.164 142.771L117.166 142.77Z" fill="#242E5F"/>
<path d="M111.255 128.218C111.539 128.164 111.419 128.357 111.455 128.529C111.973 131.045 112.192 133.43 112.597 135.935C113.074 138.902 113.736 141.854 114.231 144.815C114.534 146.619 115.143 149.342 115.202 151.074C115.232 151.95 114.921 152.499 113.978 152.25C113.995 152.852 113.263 153.335 112.783 152.881C112.769 152.867 112.575 152.552 112.571 152.533C112.52 152.29 112.689 152.02 112.65 151.847C112.628 151.75 112.399 151.562 112.314 151.334C112.202 151.034 111.966 149.495 111.925 149.094C111.855 148.399 111.96 147.648 111.912 146.947C111.74 144.445 111.073 141.753 110.788 139.246C110.522 136.916 110.445 134.601 110.129 132.253L110.356 132.185C111.611 132.767 111.536 131.735 111.428 130.831L111.082 128.342L111.255 128.217V128.218Z" fill="#DD554B"/>
<path d="M119.512 107.282C119.469 107.427 119.345 107.571 119.143 107.713C119.288 108.892 119.683 110.046 120.326 111.177C120.785 112.697 121.2 114.23 121.57 115.775L121.482 116.013C120.408 116.759 118.992 117.431 117.751 117.866C117.504 117.953 116.68 118.266 116.501 118.133L114.635 108.318L118.828 107.117C119.232 106.96 119.316 107.175 119.511 107.282H119.512Z" fill="#404040"/>
<path d="M88.6344 58.7454C88.7048 60.7282 88.1778 62.9118 86.8486 64.4223C85.8938 65.5075 86.0243 64.8579 85.0968 64.3036C82.5388 62.7722 79.3221 63.6514 77.4659 65.8323C77.2194 66.1219 77.3968 66.4193 76.815 66.2028C76.168 65.9615 74.9262 64.7862 74.4658 64.2344C73.627 63.2313 72.7452 61.4012 72.59 60.1007C72.5717 59.9468 72.573 59.9533 72.7257 59.9638C73.644 60.0277 73.4692 60.5742 73.944 61.1873C75.4702 63.1544 80.4465 62.7344 82.6288 62.2661C84.4237 61.88 87.18 61.0686 87.5074 58.9776L88.6344 58.7441V58.7454Z" fill="black"/>
<path d="M98.2073 75.4576L98.489 75.5515C98.5177 75.5606 98.5543 75.5424 98.583 75.5515C99.6748 76.0041 100.649 76.5924 101.492 77.4286C101.536 77.4807 101.611 77.5329 101.68 77.6164L101.774 77.7103C103.3 79.5939 105.589 82.2197 105.402 84.7281C107.698 90.474 109.841 96.3087 111.25 102.351C111.141 102.492 111.068 102.579 110.928 102.399C110.691 102.094 110.577 101.279 110.221 100.994C108.487 96.4887 107.085 91.8515 105.318 87.3578C103.19 81.951 101.281 77.5407 95.3702 75.6206C94.8223 75.4432 93.9131 75.4602 93.7031 74.8941C93.7253 74.8836 93.767 74.7389 93.8349 74.701C94.6632 74.2367 97.2616 75.1654 98.2086 75.4576H98.2073Z" fill="#717171"/>
<path d="M73.0585 81.4657C72.9359 80.9282 74.0147 80.8265 74.076 80.5656C73.8412 79.813 73.7773 79.1099 73.8099 78.322C73.8216 78.0324 73.8725 77.3828 73.9247 77.122C74.1112 76.1723 75.4522 76.3889 76.1605 76.5324C76.4383 76.5884 76.8101 76.8376 76.9327 76.8415C77.2966 76.8559 78.0206 76.5611 78.4536 76.578C78.845 76.5937 79.0798 76.9589 79.3902 76.9654C79.8833 76.9772 81.0155 76.3093 81.4499 76.5937C81.5542 76.6628 81.579 76.848 81.6651 76.8689C81.9951 76.9511 82.6382 76.5298 83.0008 76.4371C83.22 76.381 83.7665 76.3028 83.9909 76.2989C84.2309 76.295 84.1735 76.5728 84.0718 76.6863C84.0079 76.758 82.6369 77.5159 82.4139 77.6333C80.4611 78.6677 75.1691 81.4683 73.2464 81.4657C73.1851 81.4657 73.1185 81.4591 73.0585 81.4657Z" fill="black"/>
<path d="M113.035 121.084C113.275 122.952 113.633 124.815 113.867 126.684C114.137 128.831 114.786 132.982 114.046 134.91C113.938 135.193 113.776 135.46 113.646 135.732L113.335 135.571C112.701 131.532 111.72 127.564 110.871 123.568L110.897 123.262C111.244 123.112 111.518 122.862 111.77 122.587C112.091 122.235 112.485 121.39 112.709 121.18C112.825 121.07 112.877 121.066 113.035 121.084Z" fill="#717171"/>
<path d="M73.4326 77.6165C72.4022 78.1683 71.2203 78.4331 70.1246 78.8609C67.4806 79.8927 66.2766 80.4901 64.9369 83.0598C64.2391 84.3995 63.6547 85.8252 63.0977 87.2287C62.9138 87.4974 62.5368 87.5509 62.2642 87.3801C61.7398 86.677 62.4533 85.7887 62.3581 85.6908L61.702 85.9726L61.6172 85.64C62.0398 84.5964 62.5068 83.5738 63.0207 82.572L63.2973 82.4063C63.8673 81.7319 64.3434 80.8932 64.9382 80.2462C66.2088 78.8635 67.3527 78.3822 69.1163 77.8539C69.9825 77.5943 72.2913 76.9395 73.0844 77.1691C73.2644 77.2213 73.4131 77.4391 73.4326 77.6191V77.6165Z" fill="#717171"/>
<path d="M69.2765 46.5648C69.8687 46.4135 70.5952 46.5857 71.0401 47.0083C72.5349 48.4236 72.2753 52.826 69.9052 52.929C68.1195 53.0073 67.552 50.4141 67.7138 49.0406C67.7999 48.3075 68.4964 46.7644 69.2752 46.5648H69.2765Z" fill="black"/>
<path d="M86.9467 59.2158C86.9793 59.8341 86.241 60.3194 85.7558 60.605C83.2865 62.0568 78.284 62.4325 75.5708 61.629C74.8912 61.4281 73.8581 61.0277 74.0434 60.1524C78.3571 60.6872 82.7269 60.108 86.9467 59.2158Z" fill="white"/>
<path d="M110.877 125.872C110.969 125.907 111 126.001 110.971 126.153C110.932 126.74 111.168 127.605 111.253 128.218C111.368 129.05 111.804 131.427 111.609 132.095C111.425 132.729 110.529 132.593 110.127 132.255C110.105 132.088 110.043 131.947 110.033 131.88C109.62 128.728 109.15 125.534 109.002 122.35C108.973 121.72 108.903 120.885 109.188 120.332C109.214 120.249 109.246 120.251 109.282 120.332C109.663 120.381 109.893 121.096 110.007 121.437C110.396 122.596 110.807 124.653 110.877 125.87V125.872Z" fill="white"/>
<path d="M130.119 100.898C129.978 100.954 129.759 101.083 129.618 101.062C129.027 100.972 128.904 100.092 129.649 100.053C129.701 99.7698 129.326 99.7541 129.242 99.5624C128.979 98.9598 129.764 98.7445 129.743 98.6937C129.619 98.3962 129.411 98.6937 129.296 98.7223C128.803 98.8489 128.539 98.1993 128.621 97.7584C128.653 97.5927 128.809 97.5145 128.791 97.3097C128.762 96.994 128.3 96.1826 128.19 95.7405C127.385 92.5316 126.581 89.3162 127.033 85.9365C127.067 85.6847 127.085 85.3169 127.257 85.1277C127.485 85.0834 127.39 85.3103 127.397 85.4538C127.432 86.2273 127.282 87.0035 127.299 87.8057C127.357 90.558 128.503 97.7701 131.97 98.2528C132.227 98.288 132.532 98.0388 132.889 98.0728C133.004 98.0832 133.459 98.3336 133.484 98.3754C133.619 98.6089 132.841 99.2624 132.653 99.3954L132.447 99.7633C131.76 100.209 131.061 100.653 130.325 101.013L130.119 100.898Z" fill="black"/>
<path d="M77.9359 157.04C74.2287 157.429 70.4863 157.721 66.7674 158.074L66.603 158.281C66.1256 158.394 65.6495 158.346 65.1721 158.261C65.1408 158.261 65.1095 158.264 65.0782 158.261C64.7182 158.064 64.3112 157.939 63.8585 157.886C63.3355 157.811 63.3015 157.719 62.9207 157.604C62.6219 157.3 62.6728 156.77 63.0172 156.526C63.5794 156.129 63.7242 156.628 64.2107 156.736C68.621 157.716 75.0218 156.37 79.6747 156.196C80.5486 156.164 82.4674 156.061 83.241 156.195C83.3505 156.215 83.4079 156.246 83.4731 156.336L83.3205 156.464C81.7983 156.637 80.2604 156.696 78.7368 156.854C78.4733 156.881 78.1368 157.02 77.9372 157.04H77.9359Z" fill="black"/>
<path d="M81.764 64.3131C82.8389 64.2204 84.052 64.3992 84.9664 64.9966C85.8938 65.6031 85.556 65.7088 84.7551 66.1784C83.0241 67.1945 79.797 67.6498 77.976 66.7314C77.4503 66.4667 78.2173 65.8718 78.5434 65.5966C79.4382 64.8414 80.5979 64.4122 81.7653 64.3131H81.764Z" fill="#DD554B"/>
<path d="M96.0502 155.819C95.8832 155.804 95.5662 155.632 95.2988 155.726L95.3067 155.453C96.6607 154.914 98.1203 154.78 99.5656 154.69C101.848 154.548 104.239 154.686 106.513 154.505C107.661 154.413 109.736 153.795 110.648 153.838C110.824 153.846 110.773 154.031 110.844 154.04C111.016 154.061 111.754 153.779 111.817 153.849C111.993 154.334 111.115 154.454 110.712 154.572C110.035 154.771 109.229 154.953 108.533 155.068C105.37 155.595 101.934 155.636 98.7216 155.722C97.8438 155.745 96.9437 155.9 96.0502 155.819Z" fill="black"/>
<path d="M122.327 116.483C121.899 116.532 121.847 116.331 121.634 116.046C121.602 116.003 121.487 116.021 121.482 116.013C121.1 115.401 120.717 112.873 120.423 111.956C120.073 110.871 119.131 109.248 118.971 108.245C118.88 107.673 118.92 107.433 119.511 107.281C120.432 107.787 121.25 109.929 121.621 110.944C122.401 113.074 122.326 114.294 122.327 116.481V116.483Z" fill="#717171"/>
<path d="M61.7006 85.9716C61.6002 86.2795 61.5037 86.8038 61.0693 86.5586L58.7005 84.7024C58.5987 84.6176 58.5726 84.4624 58.6 84.3424C58.6105 84.2928 59.2561 83.7659 59.3644 83.6785C60.194 83.0054 62.4194 81.5523 63.3886 81.2262C63.549 81.1714 63.6912 81.0931 63.6768 81.3253C63.6638 81.5444 63.4003 82.1614 63.2985 82.4027C62.7585 83.6811 62.1689 84.5381 61.7032 85.9703L61.7006 85.9716Z" fill="#D52B1E"/>
<path d="M98.2061 71.236C98.3574 71.6887 99.6501 74.4853 99.4309 74.7058L96.9616 74.2192C96.7595 74.1292 96.4751 72.8457 96.5664 72.6435C96.6055 72.5587 97.7691 71.3926 97.8774 71.3208C97.9856 71.2491 98.0678 71.1969 98.2061 71.236Z" fill="#404040"/>
<path d="M132.652 99.3965C132.551 99.9391 132.198 102.024 131.714 102.261C130.962 102.629 130.353 101.444 130.117 100.899C130.685 100.674 132.136 99.763 132.652 99.3965Z" fill="#8F2C28"/>
<path d="M109.284 120.333H109.19C108.379 117.689 107.836 114.88 107.031 112.259C107.548 112.156 107.548 112.625 107.661 112.989C108.392 115.319 108.808 117.934 109.284 120.332V120.333Z" fill="#DD554B"/>
<path d="M110.877 125.871C111.26 125.824 110.977 126.075 110.971 126.154C110.847 126.109 110.884 125.974 110.877 125.871Z" fill="#EED3CA"/>
<path d="M98.4895 75.5512L98.207 75.457C98.3051 75.4871 98.398 75.5224 98.4895 75.5512Z" fill="#404040"/>
<path d="M47.4329 42.7871C47.3979 42.887 47.3032 42.8559 47.2461 42.8805C47.2928 42.8144 47.3616 42.8066 47.4329 42.7871Z" fill="#5A321B"/>
<path d="M101.772 77.7086L101.68 77.6162C101.707 77.6496 101.745 77.6753 101.772 77.7086Z" fill="#404040"/>
<path d="M66.7672 158.072L73.7119 160.137C70.8174 159.784 67.9373 159.161 65.1719 158.26C65.6728 158.272 66.2389 158.122 66.7672 158.072Z" fill="#EED3CA"/>
<path d="M65.079 158.259C64.7072 158.226 64.1933 158.059 63.8594 157.884C64.2181 157.935 65.0464 157.809 65.079 158.259Z" fill="#EED3CA"/>
<path d="M105.813 27.5766C106.071 27.6118 107.119 28.037 107.033 28.4218L106.864 28.581C106.633 28.5392 104.966 28.3762 104.965 28.6227C105.11 28.8784 105.11 29.0623 104.968 29.1732C105.088 30.0902 104.942 31.375 104.882 32.3064L105.905 32.7395C105.458 32.8269 104.581 32.3925 104.216 32.459L104.068 32.236C104.233 31.0646 104.407 29.7002 104.103 28.5445C103.629 26.7457 100.298 25.8743 98.6516 25.9826C98.2577 26.0087 98.1155 26.1013 97.835 26.3582C97.8494 26.4783 97.7855 26.563 97.6446 26.6139L97.8246 30.8989C98.1559 30.9224 98.3477 31.0359 98.3985 31.2407L98.4207 31.5511L99.9469 32.3677C98.0176 32.0025 96.0871 31.619 94.1292 31.4285C92.4269 31.2629 90.7207 31.2433 89.0145 31.1468C89.0341 30.9328 89.2219 30.8102 89.2754 30.6093C89.5219 29.6884 89.4528 26.0034 89.0002 25.1986C88.8828 24.9912 88.6049 24.8464 88.5449 24.5751C88.768 24.6925 88.9715 24.9025 89.1319 24.973C89.5637 25.1634 90.5303 24.5842 91.0951 24.4499C93.3139 23.9242 95.1649 24.3794 97.0432 25.6056C99.776 24.6351 102.937 25.2378 104.657 27.6614C105.05 27.6731 105.409 27.5231 105.814 27.5792L105.813 27.5766Z" fill="#EED3CA"/>
<path d="M93.8923 13.4939C93.7214 13.6543 92.9466 12.8052 92.8123 12.6512C92.2409 11.9886 90.0378 8.63103 90.0391 7.90578C90.0391 7.80403 90.0417 7.68533 90.1317 7.62141C90.4226 7.48314 90.5752 7.65924 90.7408 7.86925C91.4452 8.75756 92.5957 10.7885 93.1566 11.836C93.2584 12.0251 93.9615 13.4287 93.891 13.4939H93.8923Z" fill="#835840"/>
<path d="M86.1959 23.82C86.1523 23.8148 86.1125 23.7725 86.1035 23.7275C86.1472 23.734 86.1857 23.775 86.1959 23.82Z" fill="white"/>
<path d="M97.8314 26.3553C98.3493 26.3801 99.0915 26.5875 99.6511 26.7675C100.683 27.1001 102.911 28.0054 103.077 29.2224C103.164 29.8694 103.125 31.0199 103.003 31.6643L102.806 31.8951L102.773 32.0165C101.494 31.8469 100.224 31.6186 98.9584 31.3316C98.7602 31.2847 98.5749 31.2742 98.3949 31.2377C98.164 31.1895 97.941 31.0721 97.6436 31.1438L97.4492 26.5079C97.4623 26.4309 97.7792 26.3396 97.8314 26.3553Z" fill="#8F6852"/>
<path d="M104.214 32.46C104.101 32.4808 104.001 32.683 103.866 32.7222C103.424 32.8513 102.925 32.6348 102.805 32.1782C102.654 32.066 102.66 32.0217 102.805 31.8965C102.826 31.0564 102.996 30.1707 102.899 29.315C102.793 28.3863 101.368 27.6584 100.586 27.3101C99.7085 26.9175 98.9585 26.7962 98.0545 26.5523C97.9045 26.5118 97.8458 26.3618 97.8315 26.3579C97.7819 25.8883 98.2932 25.8296 98.6311 25.7957C100.32 25.6261 103.798 26.6397 104.282 28.4958C104.566 29.5876 104.438 31.3538 104.214 32.46Z" fill="#AD8F7E"/>
<path d="M107.031 28.4228C107.282 28.4815 107.545 28.788 107.877 28.7045C108.286 29.315 108.998 29.5367 109.331 30.2998C109.609 30.9351 109.902 32.8186 109.515 33.3939C109.319 33.6835 109.008 33.5752 109.002 33.8674C108.481 33.6913 107.918 33.9391 107.651 33.3078C107.633 32.5186 107.797 31.4816 107.693 30.7185C107.547 29.6476 105.825 29.2902 104.966 29.1741C104.936 28.9458 104.522 28.501 105.033 28.3484C105.362 28.2506 106.656 28.3354 107.031 28.4228Z" fill="#AD8F7E"/>
<path d="M102.807 31.8955C102.807 31.919 102.867 31.9803 102.872 32.0521C102.876 32.1134 102.806 32.1708 102.807 32.1773C101.499 32.0703 100.231 31.6307 98.959 31.332L102.807 31.8955Z" fill="#EED3CA"/>
<path d="M98.6764 11.1481C98.1299 10.9654 97.5625 10.5011 97.0916 10.1528C96.5933 9.78365 96.1876 9.34667 95.7676 8.98926C96.682 9.56842 97.9942 10.3289 98.6764 11.1481Z" fill="#5A321B"/>
<path d="M99.0559 11.4295C98.6597 11.5054 98.8127 11.2948 98.7734 11.2412C98.9631 11.2164 98.9788 11.3563 99.0559 11.4295Z" fill="#5A321B"/>
<path d="M99.2409 11.6159C99.2088 11.5863 99.1805 11.553 99.1484 11.5234L99.2409 11.6159Z" fill="#5A321B"/>
<path d="M95.6725 8.89321C95.6391 8.86497 95.6122 8.82902 95.5801 8.80078L95.6725 8.89321Z" fill="#5A321B"/>
<path d="M22.0954 104.279C22.0015 104.108 21.9467 103.925 21.9297 103.731C22.1932 99.7131 22.6237 95.732 23.2224 91.7875C23.0815 90.83 22.9746 89.7474 24.1903 89.523C30.3472 88.8512 36.538 86.6963 42.1848 83.9897C42.464 84.0405 42.7288 84.1632 42.9792 84.3614C43.2075 83.6296 43.878 83.2461 44.2067 84.1136C44.6202 84.1879 44.8771 84.488 44.9789 85.011C45.712 85.8628 46.5977 86.575 47.636 87.149C47.8421 87.3016 48.0404 87.4646 48.2178 87.6499C48.6365 88.0868 48.7552 88.7117 47.9973 88.3177L47.8147 88.5043C46.7046 88.2955 45.6572 87.8573 44.6724 87.1907C43.1592 97.2856 41.38 107.34 39.3347 117.351L36.8471 132.159C35.9888 137.239 35.0548 142.493 33.77 147.243L33.5456 147.461C33.4595 148.416 33.17 148.82 32.6769 148.673C32.686 146.612 32.8465 144.569 33.1347 142.502C33.8026 137.716 34.4822 132.926 35.1788 128.144C35.2727 127.501 35.4383 126.871 35.6105 126.245L35.7044 126.151C35.6223 126.128 35.6249 126.096 35.7044 126.057L35.7984 125.4C35.7149 125.383 35.7188 125.35 35.7984 125.306L35.8923 124.742C35.8088 124.725 35.8114 124.693 35.8923 124.648C36.2327 122.694 36.5132 120.723 36.7375 118.734C36.5497 118.712 36.5588 118.618 36.7375 118.546C36.7936 118.429 36.8249 118.304 36.8315 118.171C36.6502 118.118 36.6515 118.036 36.8315 117.983C36.8549 117.877 36.8941 117.817 36.9371 117.893L37.395 114.509C37.3702 114.286 37.3493 114.064 37.3428 113.841C37.3363 113.618 37.3311 113.398 37.3558 113.181C37.9376 107.971 38.9264 102.81 39.9647 97.6756C40.7343 93.8706 41.5887 90.0761 42.4535 86.2946C42.357 86.442 42.2892 86.5411 42.0896 86.4394L41.7765 86.8907C37.0715 89.7943 31.3816 91.6283 25.8065 92.4579C25.0864 100.634 24.112 108.766 22.882 116.852C21.9154 123.849 21.3258 130.839 23.5772 137.563C25.1438 142.241 27.8362 146.433 30.552 150.514C30.6498 150.705 30.7098 150.909 30.7346 151.124C30.9577 151.378 31.5003 152.074 30.8246 152.029C30.6537 152.018 29.8502 151.097 29.7367 150.953C28.8106 149.781 27.9236 148.583 27.0861 147.347C27.2322 147.701 27.4344 148.47 26.8852 148.12C26.0113 147.076 25.4673 146.493 24.7721 145.211C24.4264 144.575 23.9477 143.196 23.5877 142.735C23.4285 142.532 23.1963 142.499 23.0698 142.361C22.0576 141.254 21.4523 138.94 20.9736 137.605C19.8701 133.461 18.8004 129.12 19.4135 124.699C19.4239 124.626 19.4631 124.556 19.5048 124.484C19.5466 124.412 19.6027 124.341 19.66 124.274L19.754 123.053C19.5739 123 19.5726 122.917 19.754 122.865C19.8296 122.696 19.8609 122.508 19.8479 122.302C19.6574 122.28 19.6666 122.187 19.8479 122.114L19.8948 121.998C20.6984 116.621 21.5032 110.614 22.0067 105.027C21.9232 105.01 21.9258 104.978 22.0067 104.933L22.1006 104.276L22.0954 104.279Z" fill="#F7D5D2"/>
<path d="M87.1327 100.804C86.8836 100.577 87.1027 99.7944 87.2475 99.4683C89.1976 95.7364 90.956 91.8583 92.1573 87.7351L92.3882 87.379L92.4821 87.0972C92.4013 87.0659 92.4013 87.0346 92.4821 87.0033L92.5761 86.7215C92.4939 86.6954 92.4952 86.6641 92.5761 86.6276C92.7678 86.5702 92.7522 86.3889 92.7952 86.2363C93.0874 85.1914 93.24 84.114 93.5231 83.0692C94.0931 82.9152 94.1427 83.7174 94.1753 84.1375C94.5209 88.6038 91.736 96.0181 89.0867 99.6144C88.5884 100.29 88.1175 100.997 87.2775 101.274L87.134 100.805L87.1327 100.804Z" fill="#DD554B"/>
<path d="M92.5782 86.6299V86.7238L92.4843 87.0056C92.4777 87.0356 92.4908 87.0695 92.4843 87.0995L92.3903 87.3813C91.6299 90.1166 90.6711 92.8376 89.4971 95.4243C88.8736 96.7991 87.8757 98.3149 87.3696 99.6806C87.2274 100.064 87.2248 100.555 87.1335 100.806C87.1296 100.818 87.0018 100.874 86.9613 100.959C86.8257 101.25 86.6391 101.607 86.4617 101.871C86.3978 101.966 86.2726 102.164 86.2909 101.888C87.4257 97.857 89.2049 94.082 90.6085 90.1518C91.4355 87.8339 92.1125 85.4677 92.9538 83.1562C93.126 83.2215 93.0556 83.7067 93.0452 83.8593C92.9851 84.7189 92.7595 85.7781 92.5769 86.6299H92.5782Z" fill="#EED3CA"/>
<path d="M112.85 93.7633C112.828 93.1371 112.969 92.5123 113.1 91.9019C113.475 90.167 114.064 88.149 114.586 86.4403C114.867 85.5193 115.101 84.3258 115.758 83.624C115.443 85.8689 114.942 88.1151 114.303 90.2896C113.963 91.4492 113.637 92.8332 112.85 93.7633Z" fill="#EED3CA"/>
<path d="M62.4043 85.5029C62.4646 85.5337 62.4646 85.5645 62.4043 85.5954V85.5029Z" fill="#EED3CA"/>
<path d="M90.4191 25.6994L90.5079 25.5051C91.9414 25.4803 94.2255 25.8546 95.3147 26.8212C95.4621 26.9517 95.6525 30.2649 95.6655 30.7371L95.4868 30.861L90.0435 30.4853L89.7578 25.9473C89.7813 25.8533 90.3057 25.7098 90.4191 25.6981V25.6994Z" fill="#8F6852"/>
<path d="M95.4852 30.8639L95.1878 26.9363C94.4639 26.5736 93.6603 26.1093 92.862 25.9306C92.292 25.8027 90.9732 25.641 90.4175 25.701C90.2727 25.5014 90.3184 25.4819 90.4762 25.3384C91.1885 24.6862 93.8169 24.6601 94.7574 24.7866C95.3261 24.8636 96.6305 25.4166 96.8483 25.9814C97.0858 26.5958 97.0466 29.206 96.9905 29.9769C96.9136 31.0426 96.4153 31.9805 95.4852 30.8652V30.8639Z" fill="#AD8F7E"/>
<path d="M47.998 88.3183C48.3006 88.4761 48.6019 88.6418 48.8615 88.8648C53.5509 92.9059 58.1972 96.7487 63.7241 99.6328C64.0306 99.7176 64.2054 99.8767 64.2028 100.148L57.8959 131.644C56.8602 134.789 54.4275 137.414 52.0951 139.721C47.9223 143.851 42.702 147.801 37.6513 150.762C36.986 151.152 33.9611 152.906 33.3858 152.69C33.3349 152.67 33.2854 152.646 33.2371 152.619C33.1419 150.899 33.0441 149.115 33.5463 147.464C33.7015 146.353 34.205 144.982 34.4554 143.821C36.3077 135.249 37.496 126.686 39.0183 118.063C40.851 107.681 43.2212 97.384 44.5269 86.9121C45.5704 87.4013 46.8044 88.3613 47.9993 88.3196L47.998 88.3183Z" fill="#F2BFBB"/>
<path d="M42.0863 86.4414C42.0145 87.1236 41.9271 87.8058 41.7771 88.4763C39.977 96.5324 38.2434 104.44 36.8842 112.592C34.6902 125.746 33.1327 139.013 32.4609 152.321C32.3944 152.926 30.6882 151.43 30.73 151.125C27.058 145.641 23.5009 140.118 22.3282 133.477C21.7686 130.309 21.7164 126.222 22.0021 123.008C22.6021 116.266 23.8335 109.299 24.6174 102.53C25.0101 99.1464 25.374 95.751 25.6714 92.3661C30.0647 91.6225 34.6184 90.3129 38.6465 88.3993C39.7305 87.8841 41.1314 87.1549 42.085 86.4414H42.0863Z" fill="#F2BFBB"/>
<path d="M19.6528 124.274C19.3762 124.082 19.298 122.961 19.7467 123.053C19.9841 123.366 19.701 123.932 19.6528 124.274Z" fill="#D52B1E"/>
<path d="M26.2695 145.869C26.3299 145.9 26.3299 145.931 26.2695 145.962V145.869Z" fill="#EED3CA"/>
<path d="M35.6094 126.246C35.6184 126.174 35.7005 126.16 35.7018 126.153L35.6094 126.246Z" fill="#D52B1E"/>
<path d="M42.6953 85.7832C42.7556 85.814 42.7556 85.8448 42.6953 85.8756V85.7832Z" fill="#EED3CA"/>
<path d="M92.4824 87.0042L92.5766 86.7217C92.6446 86.859 92.4863 86.9898 92.4824 87.0042Z" fill="#D52B1E"/>
<path d="M85.3801 66.7088C88.0724 65.1435 89.8621 62.0742 89.7629 58.9345L90.419 59.1223C90.6251 58.2692 89.5842 57.2414 88.7729 57.257C88.1611 57.2688 88.3789 57.8583 88.3515 57.8936C88.242 58.0344 85.3201 58.7232 84.9 58.8119C81.2646 59.575 77.0839 59.8985 73.3859 59.5906C73.0624 59.5632 72.538 59.4041 72.2484 59.408C72.135 59.4093 72.0841 59.4589 72.0332 59.5515C72.1128 60.702 72.2863 61.6959 72.7585 62.7525C74.8925 67.5202 80.8681 69.3307 85.3801 66.7075V66.7088ZM74.252 60.3198C78.5227 60.5833 82.6916 60.3393 86.8528 59.3115C86.6923 59.8893 86.0949 60.265 85.6018 60.5481C83.1847 61.9373 78.5344 62.3129 75.8708 61.6125C75.2486 61.4494 74.252 61.1037 74.0877 60.3915C74.029 60.1385 74.1829 60.3159 74.252 60.3198ZM72.6828 60.1072C73.4407 59.9702 73.4642 60.7437 73.7642 61.1846C75.0151 63.016 79.5845 62.8699 81.5385 62.5842C83.0569 62.3625 86.6558 61.4351 87.3432 59.9415C87.4476 59.7158 87.4658 59.1928 87.6041 59.0754L88.5433 58.8419C88.5928 60.5167 88.1807 62.2934 87.2506 63.6982C87.0823 63.9526 86.4236 64.7861 86.1966 64.9035C85.9892 65.0105 85.8066 64.6596 85.6266 64.5304C82.8847 62.5764 78.9401 63.3865 77.1283 66.174C74.7307 65.1031 73.2359 62.6247 72.6841 60.1098L72.6828 60.1072ZM77.8457 66.4923C78.8449 65.2883 80.1872 64.5422 81.7668 64.4078C83.0621 64.297 84.5335 64.5787 85.444 65.5531C83.3569 67.1901 80.268 67.6245 77.8457 66.4923Z" fill="black"/>
<path d="M85.8314 47.5461C85.7492 47.97 86.0466 48.0196 86.3819 48.09C85.8497 48.4409 85.1427 49.1805 85.2587 49.8679C85.2705 49.9332 85.4335 50.2645 85.4596 50.2788C85.5509 50.3323 85.654 50.3023 85.7466 50.2749C88.2967 48.8335 91.6961 47.5578 94.6636 48.0666C95.2728 48.1709 96.722 48.9496 96.5133 47.8135C96.3085 46.6969 93.4884 46.0382 92.5322 45.9743C90.3277 45.8256 87.5819 46.153 85.8301 47.5461H85.8314Z" fill="black"/>
<path d="M71.3208 42.6907C72.2587 42.9686 73.5018 43.9899 74.3653 43.3925C75.2249 42.7977 74.6249 41.8337 73.9283 41.3967C72.47 40.481 70.5094 40.1797 68.8111 40.3715C67.9619 40.468 66.5101 40.9858 65.8761 41.5663C65.2722 42.1194 65.0856 43.0781 66.1474 42.9699C66.8049 42.9033 67.6462 42.4781 68.4119 42.4116C69.3655 42.3294 70.4064 42.4194 71.3221 42.6907H71.3208Z" fill="black"/>
<path d="M87.3693 42.1317C88.4298 41.1756 90.6108 39.8764 92.06 39.8764H94.7354C94.9558 39.2881 94.2762 38.9464 93.8223 38.7716C91.6569 37.9328 88.6855 38.675 86.8593 40.0251C86.0101 40.6525 84.5609 42.1109 85.3474 43.2118C85.9631 44.0727 86.9141 42.5439 87.3693 42.133V42.1317Z" fill="black"/>
<path d="M72.4912 49.126C72.3608 47.6886 71.2168 45.7489 69.5589 46.0019C66.1269 46.5263 66.29 54.0137 70.1928 53.5845C72.0595 53.3797 72.6295 50.6613 72.4899 49.126H72.4912ZM71.7933 50.7722C71.4385 52.254 69.9854 53.6863 68.6445 52.2227C67.5618 51.0409 67.5096 48.7125 68.4566 47.4355C68.604 47.2372 69.1441 46.7089 69.3671 46.6568C71.4725 46.1754 72.1612 49.233 71.792 50.7722H71.7933Z" fill="black"/>
<path d="M52.3619 54.8036C51.8884 54.8531 51.4019 55.2379 51.908 55.5392C52.2002 55.714 53.7042 55.8119 53.8098 56.1784C53.6077 56.8424 52.9281 58.752 53.4642 59.2868C53.6416 59.4629 54.0903 59.4642 54.2351 59.2112C54.5116 58.7272 54.4412 57.445 54.8508 56.8684C55.0738 56.7015 56.4291 59.0325 56.5831 59.2177C56.7474 59.4147 57.1126 59.8386 57.3905 59.6442C57.6722 58.9346 57.2209 58.0463 56.8596 57.4385C55.9426 55.8888 54.2521 54.6053 52.3619 54.8023V54.8036Z" fill="black"/>
<path d="M104.873 54.4786C105.442 54.763 105.61 53.9177 105.83 53.5551C106.135 53.0529 106.443 52.552 106.797 52.0824C107.41 52.6498 107.666 53.4533 107.887 54.2282L108.511 54.1238C108.943 53.0607 108.207 52.0028 107.705 51.0936C108.033 50.6606 109.642 50.0658 108.954 49.3601C108.447 48.8396 107.39 49.7501 106.987 50.1114C106.398 50.641 105.809 51.4224 105.421 52.1111C105.191 52.5181 104.288 54.1851 104.874 54.4773L104.873 54.4786Z" fill="black"/>
<path d="M76.5464 55.9004C77.1269 54.5739 77.7256 52.7124 78.1496 51.3089C78.2657 50.9267 78.7679 49.6445 78.4105 49.4018C78.2865 49.334 78.1339 49.3353 78.0022 49.3757C77.7791 49.4436 77.5313 50.0697 77.4243 50.3019C76.7747 51.7159 75.8694 54.0873 75.4729 55.5783C75.3829 55.9187 75.1898 56.28 75.4546 56.5853C75.9725 57.184 76.3716 56.3022 76.5477 55.9018L76.5464 55.9004Z" fill="black"/>
<path d="M83.8241 69.0932C83.438 69.1362 82.7089 69.5262 82.1819 69.6136C81.8975 69.6606 81.3627 69.7206 81.0744 69.7349C80.8944 69.7441 80.4287 69.5197 80.3752 69.7819C80.2435 70.4419 82.2836 70.4289 82.6658 70.3793C83.0637 70.3271 84.6068 69.748 84.2103 69.1793C84.0876 69.1245 83.9624 69.0762 83.8228 69.0919L83.8241 69.0932Z" fill="black"/>
<path d="M87.0463 50.7262C86.8558 50.8541 86.3158 51.3667 86.4828 51.6054C86.6693 51.8715 88.0272 51.1371 88.3755 51.0237C89.0355 50.8097 89.7334 50.6975 90.413 50.5736C90.4391 50.3245 90.4534 50.1588 90.1834 50.1093C89.4086 49.9645 87.7128 50.2736 87.045 50.7262H87.0463Z" fill="black"/>
<path d="M145.886 59.7317C145.797 57.2872 145.858 52.0265 144.106 50.246C143.866 50.002 143.304 49.7398 143.205 49.4568C142.649 47.1141 143.963 43.4004 141.707 41.7542C140.807 41.0968 139.371 41.1763 138.475 41.8064C137.12 42.7612 137.126 45.5096 137.061 47.011C134.824 46.2675 132.738 46.4175 131.245 48.3741C130.373 49.5168 130.292 50.8095 130.192 52.2026C128.982 53.2513 128.186 54.7932 128.545 56.4224C128.627 56.7941 129.073 57.5598 129.075 57.7581C129.079 58.0607 128.697 58.7768 128.64 59.1917C128.452 60.5665 129.261 61.6153 130.311 62.377C130.008 63.6554 130.273 65.8794 131.53 66.5786C132.146 66.9203 132.909 67.0129 133.574 67.2099L133.784 68.3695C132.492 71.3397 131.311 74.7077 129.696 77.5239C129.347 78.1331 129.339 78.3979 128.551 78.4253C127.014 78.4775 125.156 78.1135 123.593 77.9922C121.869 77.8579 119.844 77.8774 118.16 77.6061C117.364 77.4783 116.612 77.0478 115.793 76.9696C115.275 76.92 114.741 77.0961 114.326 77.0322C113.672 76.9317 112.258 76.1986 111.44 75.973C108.301 75.1068 104.397 74.9882 101.165 75.0873C101.029 75.0912 100.857 75.1055 100.739 75.0351C100.618 74.9621 99.8812 72.7563 99.7259 72.3884C99.4468 71.7271 99.1063 71.0906 98.7894 70.4488C100.998 67.3847 102.464 63.7454 102.807 59.9665C103.492 60.0734 104.135 60.4087 104.834 60.5209C106.472 60.7843 108.344 60.393 109.78 59.5738C112.319 58.1259 113.951 55.2301 113.802 52.2835C117.047 50.8095 123.014 47.2654 120.526 42.9451C119.946 41.9381 118.083 40.1967 117.167 39.358C114.98 37.3557 112.496 35.6548 109.959 34.1312C109.963 32.7759 110.558 31.0906 109.886 29.8371C109.343 28.8235 108.348 28.3748 107.419 27.7983C106.992 22.9315 106.285 17.4725 102.949 13.6818C99.9933 10.3243 93.2547 5.30749 88.8288 4.52484C81.5723 3.2426 71.6195 4.38135 64.8 7.16107C55.7747 10.8408 52.1419 16.8842 51.4714 26.4991L51.3618 31.8354C50.2674 32.635 48.7752 33.3198 48.4908 34.7847C48.2638 35.9522 48.4973 37.1848 48.286 38.3353C46.1455 40.0259 44.0897 41.9447 42.4226 44.1113C40.5599 46.5323 38.4441 49.9368 40.7738 52.7831C42.6561 55.084 45.985 56.2176 48.736 57.0707C48.7517 62.6118 54.4468 66.9386 59.7336 64.6076C61.415 69.7183 65.147 73.7842 70.1481 75.7865C70.8056 76.0499 71.5739 76.2078 72.1909 76.466C72.307 76.5143 72.4674 76.5169 72.4935 76.6787C70.5316 76.8208 68.2293 77.22 66.4527 78.1005C65.4379 78.604 65.2435 79.2249 64.5469 79.6684C64.0774 79.9671 63.3103 80.181 62.7925 80.4484C60.9793 81.3798 59.3149 82.4859 57.6152 83.6012C56.2599 82.4064 54.846 81.1619 53.6263 79.8275C52.948 79.0853 52.3884 78.2048 51.7493 77.4796C51.3592 77.0361 51.0931 76.9069 50.4879 76.8639C50.0274 76.8313 49.6648 76.9591 49.2682 76.9643C48.0551 76.9826 46.692 76.8639 45.5063 76.9565C44.5358 77.0322 43.774 77.7026 42.9313 78.1357C36.571 81.4007 27.864 84.8978 20.6348 84.7556C19.8978 84.7413 19.3461 84.3826 19.0369 85.4026L14.0188 125.07C13.5505 136.108 21.9001 151.915 30.7911 158.339C31.3585 158.749 32.6655 159.667 33.3178 159.756C35.1335 160 37.9485 159.694 39.8842 159.666C42.6365 159.624 43.7688 159.737 46.4272 158.71C49.4965 157.523 52.2749 155.643 54.9425 153.755V155.117C54.9425 155.162 55.056 155.739 55.0794 155.824C55.2321 156.363 55.8921 156.762 56.3578 157.007C55.9938 158.556 56.5143 160.16 56.4478 161.693C56.3317 164.345 55.703 167.433 55.4121 170.139C54.9073 174.835 54.5238 179.51 54.379 184.22C54.332 185.761 54.1846 187.36 54.2864 188.915C54.3216 189.448 54.3738 190.215 54.752 190.609C55.6664 191.56 57.5448 192.245 58.7044 192.87L55.793 226.74L54.3777 227.405C51.2614 230.574 47.9808 233.601 44.8515 236.746C42.994 238.613 42.1291 240.194 41.8943 242.894C41.8617 243.27 41.8095 244.315 41.9909 244.588C42.6731 245.62 45.6706 246.485 46.8707 246.747C53.8141 248.268 61.4789 247.191 67.9854 244.491C69.1985 243.987 71.1017 243.236 72.1856 242.59C72.5248 242.388 72.6239 241.85 72.6696 241.477C73.0127 238.61 72.877 234.156 72.5861 231.256C72.4635 230.029 72.3148 228.448 70.9386 228.021L70.8917 227.786L76.0598 195.253C76.7772 195.251 77.5416 195.231 78.2525 195.147C78.6517 195.1 79.5856 194.968 79.9326 194.856C80.0826 194.807 80.1387 194.695 80.2066 194.567L81.2462 190.068L85.7712 174.316C86.3608 177.596 86.8369 180.899 87.4578 184.177C87.8609 186.304 88.2861 188.549 88.7727 190.653C88.9266 191.32 89.2892 193.091 89.5853 193.596C89.9819 194.271 91.2668 194.593 91.9933 194.755C93.7804 195.154 95.7109 195.241 97.5397 195.262L105.335 229.293C105.327 229.512 104.898 229.644 104.738 229.811C103.956 230.618 104.241 234.021 104.307 235.199C104.428 237.372 104.59 240.626 105.081 242.687C105.28 243.525 105.743 243.591 106.465 243.836C108.353 244.48 110.694 245.008 112.658 245.434C118.794 246.76 126.597 248.09 132.607 245.765C133.324 245.487 133.486 245.044 133.577 244.295C134.03 240.562 132.954 239.127 130.399 236.701C127.822 234.252 125.22 231.797 122.609 229.378C122.122 228.925 120.619 227.828 120.428 227.334L115.392 193.428C115.417 193.305 116.929 192.914 117.213 192.814C118.247 192.446 119.359 192.032 120.119 191.214L120.177 190.982C119.368 183.206 117.67 175.553 116.35 167.857C115.963 165.606 115.211 162.464 115.1 160.28C115.027 158.843 115.479 157.46 115.286 155.777C115.179 154.843 114.958 153.891 114.442 153.102C114.842 153.009 115.712 152.923 115.927 152.564C116.129 152.227 115.894 152.035 115.858 151.731C115.607 149.658 115.225 147.608 114.903 145.541C114.911 145.425 114.915 145.344 115.003 145.258C115.087 145.176 115.97 144.834 116.219 144.691C117.171 144.141 118.27 143.157 118.748 142.153C119.02 141.585 119.077 140.951 119.321 140.379C121.4 139.94 124.336 139.143 125.221 136.987C126.087 134.875 125.299 130.5 124.938 128.191C124.333 124.325 123.538 120.463 122.426 116.716C122.437 116.504 122.969 116.175 123.054 115.763C123.207 115.023 122.778 113.399 122.579 112.619C122.071 110.618 121.254 108.723 120.357 106.872L132.176 103.201C133.557 102.334 133.713 99.099 133.884 97.6341C140.618 94.1305 141.393 86.3535 143.187 79.761C143.9 77.1404 144.85 74.5851 145.383 71.9136C146.182 67.9221 146.029 63.7845 145.883 59.7369L145.886 59.7317ZM138.669 43.3143C139.229 42.1768 140.801 42.1247 141.492 43.1904C141.658 43.446 141.944 44.1478 141.944 44.4296V48.9833L138.141 47.2954C137.876 46.8558 138.392 43.883 138.671 43.3156L138.669 43.3143ZM101.904 78.0966C104.676 81.9342 106.556 87.9214 107.899 92.4725C110.054 99.7734 111.843 108.196 112.567 115.781C112.786 118.083 113.045 119.199 111.65 121.154C111.562 121.277 110.854 122.275 110.691 122.118C108.993 115.073 106.783 108.158 104.404 101.322C101.48 92.9187 97.9597 84.513 93.9108 76.6122L92.6703 75.2725C93.6512 74.7925 94.5643 74.8642 95.6131 75.0025C98.4111 75.3703 100.215 75.7617 101.903 78.0979L101.904 78.0966ZM75.2745 95.0657C74.6536 94.7631 70.1416 92.5795 70.062 92.2952C70.6308 88.6193 71.8869 85.1026 72.9631 81.5598C73.1705 81.5272 73.1131 81.5598 73.1718 81.6798C75.4415 86.2909 80.4648 87.7623 85.2782 86.4148C89.0114 85.37 92.5777 82.0646 92.579 77.9453C92.579 77.5292 92.3781 76.9317 92.4368 76.4908C93.2117 77.2813 93.7139 78.3483 94.19 79.3371C96.3605 83.8438 98.4476 88.9232 100.318 93.58C102.069 97.9407 103.554 102.402 105.056 106.855L75.5902 108.411L77.8234 96.4602C77.6799 95.9801 75.7806 95.3136 75.2745 95.067V95.0657ZM105.438 108.072C108.06 115.745 110.057 123.618 111.535 131.599C109.814 131.909 108.064 131.978 106.326 132.162C94.9348 133.371 83.4846 133.823 72.0709 134.509C71.5139 134.543 70.889 134.617 70.3347 134.695L75.3124 109.446L105.438 108.071V108.072ZM110.966 123.566C110.969 123.263 111.635 122.941 111.908 122.631C112.271 122.218 112.565 121.624 112.895 121.178C112.984 121.235 113.004 121.416 113.023 121.518C113.558 124.18 114.742 132.169 114.097 134.49C114.063 134.61 113.614 135.86 113.412 135.636L110.966 123.567V123.566ZM99.3333 74.6125C98.6889 74.3855 97.6428 74.362 97.0545 74.1233C96.7584 74.0033 96.6932 73.0602 96.6566 72.7367L98.068 71.3266C98.2911 71.6854 99.4598 74.4873 99.3346 74.6112L99.3333 74.6125ZM117.497 41.5638C122.646 44.9618 118.647 48.4824 114.883 50.5016C114.69 50.6047 113.705 51.1395 113.601 51.0495C113.079 48.2489 110.658 46.1253 107.877 45.6949L108.775 38.3862C111.702 39.0919 114.962 39.8902 117.499 41.5651L117.497 41.5638ZM108.952 30.5845C109.302 31.4715 109.086 32.5763 108.903 33.4907L105.006 32.2776L105.069 28.7153C106.326 28.4009 108.467 29.357 108.952 30.5845ZM55.7473 15.4741C61.3028 6.4332 77.9629 4.25091 87.5426 5.52794C92.5881 6.20102 98.4502 10.533 101.87 14.1971C105.129 17.6877 105.824 23.0084 106.372 27.5778C105.806 27.4721 105.315 27.4526 104.747 27.5687C102.982 25.1164 99.7872 24.5437 97.0297 25.509C94.8226 23.8589 91.8759 23.7454 89.4314 24.9429C88.6357 24.4694 87.8961 24.0546 86.9843 23.8289C84.7003 23.2641 82.8258 23.8315 80.8914 25.0368C77.8795 23.1402 73.7327 23.6463 71.2999 26.2486C68.2019 25.1268 64.9683 25.7281 62.7599 28.2196C60.408 27.4591 57.2774 28.3631 55.6443 30.2049C55.4812 30.3875 54.992 31.1858 54.8786 31.225C54.6268 31.311 54.3372 31.1415 54.0646 31.1506C53.5833 31.1676 52.9845 31.341 52.5019 31.4258L52.4967 28.1831C52.7158 23.5419 53.2859 19.4787 55.746 15.4741H55.7473ZM104.023 28.6618L103.933 32.0846L97.738 31.0528L97.5502 26.5486C99.8812 25.749 102.849 26.3164 104.023 28.6631V28.6618ZM96.6123 26.7795V30.8636L90.2245 30.4462C89.9362 30.2401 90.0158 26.7247 89.8475 26.1182C89.8345 26.0438 89.8567 26.0138 89.9128 25.9708C90.1202 25.8116 91.3228 25.4294 91.6333 25.3655C92.6481 25.1568 93.646 25.1777 94.6413 25.4633C95.1148 25.599 96.611 26.2212 96.611 26.7782L96.6123 26.7795ZM89.0114 30.3953L81.5958 30.4893L81.3623 26.1703C83.5407 24.5111 86.4926 24.0559 88.7336 25.8364C88.9358 26.7065 88.877 27.6613 88.9175 28.5639C88.9436 29.1457 89.0897 29.781 89.0114 30.3953ZM80.5561 30.4814L72.457 31.2328L72.3044 31.0045L71.9548 27.3561C73.2566 25.4829 76.0272 24.6429 78.2212 25.0851C78.6517 25.1712 80.1413 25.6238 80.2626 26.0477L80.5561 30.4814ZM70.9908 28.4687C71.073 29.2644 71.2256 30.1201 71.2739 30.9132C71.2817 31.0502 71.3065 31.3071 71.1852 31.3854L63.6756 32.6442L63.4069 29.3388C64.2039 28.1765 65.9583 26.966 67.3775 26.8265C68.0206 26.7638 70.5251 26.7938 70.8864 27.3508C71.0795 27.6482 70.9543 28.1204 70.9895 28.4674L70.9908 28.4687ZM55.6925 32.2254C55.9743 30.8636 58.3679 29.494 59.6306 29.2175C60.1497 29.104 62.0777 28.92 62.3372 29.4275L62.5486 32.8724L55.8856 34.7691L55.6912 34.666C55.7917 33.9577 55.5556 32.8816 55.6912 32.2254H55.6925ZM49.7939 34.4925C49.9713 34.1912 50.6144 33.6773 50.9144 33.4542C52.0154 32.635 53.2572 32.1341 54.6607 32.2724V35.1356L49.6374 37.434C49.4469 37.4601 49.5161 37.4275 49.4991 37.297C49.4222 36.7165 49.5096 34.9791 49.7952 34.4925H49.7939ZM43.7753 44.2443C48.2443 38.651 53.1306 36.5678 59.8954 34.7404C72.3552 31.375 89.0205 30.3601 101.697 32.772C106.168 33.6225 108.823 34.5108 112.539 37.134C113.326 37.6896 114.114 38.2831 114.818 38.938C111.2 37.6388 107.406 36.8261 103.59 36.3226C91.9855 34.7938 79.133 35.3456 67.5784 37.1705C60.3102 38.3184 52.9611 40.0598 46.3033 43.2086L43.3018 44.9474C43.234 44.8822 43.697 44.3409 43.7727 44.2456L43.7753 44.2443ZM107.648 38.1827C107.406 40.6559 107.211 43.1486 106.741 45.5957C105.648 45.6518 104.872 46.351 104.166 47.1036C103.874 47.4154 103.74 47.8771 103.278 47.9998C102.739 48.1419 102.327 47.9085 102.014 47.4741C101.428 46.6614 101.049 44.4987 100.865 43.4604C100.496 41.3746 100.381 39.2471 100.179 37.1535C102.683 37.2814 105.19 37.6714 107.648 38.1814V38.1827ZM58.767 52.7622C58.6875 52.9565 58.3796 53.6922 58.1331 53.4887C58.0796 53.4444 57.8239 52.3852 57.7326 52.1504C57.2878 51.0025 56.9826 50.139 55.7864 49.5924C55.6051 49.5103 55.1838 49.4737 55.1199 49.3916C54.8133 48.9924 54.1742 46.7749 53.9772 46.1436C53.5415 44.7439 53.1985 43.3104 52.7928 41.9016C52.8215 41.7646 54.2955 41.3211 54.5655 41.2377C56.1373 40.7485 57.7509 40.3546 59.3514 39.9698C59.3462 40.2098 59.4336 40.4328 59.4493 40.6702C59.6332 43.4956 59.7793 50.2903 58.7657 52.7622H58.767ZM43.3122 53.5279C36.0101 48.5672 47.6038 43.5843 51.6162 42.2251L51.8249 42.3842L53.9055 49.6355C51.0631 50.4051 49.1352 52.9709 48.7465 55.838C46.889 55.3436 44.9102 54.6145 43.3122 53.5292V53.5279ZM65.9714 71.9815C62.3412 68.9761 61.4946 66.0803 60.2215 61.7731C60.121 61.4339 59.3149 59.1095 59.1975 59.0208C59.1088 58.9529 58.7201 58.8277 58.7866 59.0756C58.9471 60.5391 59.041 62.0157 59.444 63.4349C53.8963 66.0868 48.4047 60.2574 50.1813 54.6888C50.7827 52.8039 52.7576 50.7521 54.8133 50.5851C56.6787 50.4338 56.5521 53.6453 57.4404 54.4149C58.287 55.1493 59.1414 54.4605 59.5875 53.6779C60.8254 51.5073 60.6167 47.0175 60.5672 44.5261C60.5358 42.9151 60.498 41.3055 60.4863 39.6958C63.943 38.9341 67.4402 38.2871 70.9543 37.8227C79.5256 36.6892 88.2379 36.3239 96.8458 36.8705C97.6062 36.9187 98.3785 36.9357 99.1402 36.9696C99.3411 39.1858 99.3685 41.4438 99.7351 43.6508C100.069 45.6648 100.583 49.4646 103.322 49.1698C104.747 49.0159 105.148 47.0501 106.463 46.771C106.603 46.741 107.597 46.818 107.803 46.8467C110.902 47.2915 112.899 50.2094 112.659 53.2526C112.304 57.7477 107.024 61.1339 103.009 58.5903L103.091 55.6906C102.904 55.0958 103.052 53.0609 102.69 52.667C102.26 52.2 102.174 53.147 102.15 53.4431C101.932 56.1406 101.989 58.8042 101.465 61.4887C100.563 66.0998 97.9819 70.9692 93.8247 73.3733C91.9894 74.4351 89.8697 74.7873 87.9796 75.6912C88.3409 76.4321 89.3793 75.9417 90.0406 75.9273C89.9676 76.3617 90.1176 76.783 90.1384 77.19C90.1867 78.1253 90.0849 79.0788 90.1306 80.0141C90.1867 81.1763 90.6263 81.2037 89.7562 82.2603C86.5656 86.1383 79.7552 87.0005 75.9189 83.6221C75.6293 83.3664 74.6223 82.289 74.5714 81.9629C74.544 81.7868 74.668 81.4894 74.6549 81.2298C74.6445 81.0315 74.5662 80.8515 74.5545 80.6676C74.4814 79.4323 74.4488 78.1931 74.3666 76.9591C76.2046 77.2396 78.0908 77.3257 79.9548 77.2448C81.4027 77.1822 83.5941 76.9865 84.9494 76.5143C85.1268 76.453 86.2212 76.1152 85.7243 75.7825C85.4464 75.596 83.5172 75.8986 83.0463 75.9247C76.5972 76.2978 71.1891 76.303 65.9688 71.9802L65.9714 71.9815ZM64.7478 81.6511C65.5448 80.1928 66.1318 79.4297 67.7076 78.7918C69.432 78.0927 71.4878 77.7561 73.3375 77.6179C72.9592 78.7814 72.4426 79.8941 72.0226 81.0419C70.8643 84.2065 69.7581 87.7232 69.0433 91.0168C69.0016 91.2112 69.0224 91.4094 69.0211 91.6051L68.8033 91.5895C66.6132 90.3137 64.5104 88.8997 62.452 87.4245L62.3686 87.2575C63.2021 85.4313 63.7878 83.4108 64.7491 81.6511H64.7478ZM59.4023 83.8151C60.7315 82.8316 62.1351 81.9107 63.6704 81.278L61.2781 86.5309L58.6966 84.5143L59.4023 83.8138V83.8151ZM49.7365 78.09C50.0757 78.0848 50.317 77.8748 50.6614 78.0966C53.6681 81.8376 57.2943 85.0374 61.145 87.8862C65.4248 91.052 70.0803 93.9113 74.9301 96.1119L73.8553 96.3023C72.7231 96.0962 71.086 96.5958 70.0438 96.3519C69.6368 96.2567 68.2098 95.4401 67.735 95.1883C59.6971 90.9151 52.4302 84.8652 46.3998 78.0861C47.5099 78.0679 48.6239 78.107 49.7352 78.09H49.7365ZM33.0425 158.43C29.3693 156.188 26.3404 152.898 23.8411 149.426C19.1152 142.865 14.5054 132.339 15.2437 124.136L20.1431 85.9439L20.2592 85.8083C22.7324 86.0509 25.3073 85.6165 27.727 85.0817C33.7182 83.759 39.6533 81.3002 44.9702 78.287L45.2819 78.4083C51.9123 86.2753 60.2293 92.7374 69.432 97.3432L69.5638 97.5428L62.2355 134.247C60.6715 139.824 53.0511 146.406 48.4569 149.755C43.701 153.221 38.5002 156.209 33.0425 158.43ZM42.3235 158.546C40.1973 158.677 37.9367 158.442 35.7975 158.541L39.896 156.493C47.5868 152.392 59.5862 143.874 62.966 135.633C63.6469 133.971 63.8152 132.205 64.17 130.453C66.3823 119.534 68.5085 108.596 70.7051 97.6733C70.8382 97.4267 72.9787 97.5376 73.3883 97.5219C74.1684 97.492 74.9432 97.4424 75.735 97.428C76.0089 97.4228 76.2463 97.2611 76.5176 97.4346L69.2559 134.038C67.7793 140.028 60.9898 147.327 56.3004 151.214C52.8919 154.04 46.799 158.27 42.3222 158.544L42.3235 158.546ZM57.1952 223.323C58.2531 223.685 59.354 223.95 60.4602 224.14C63.6599 224.69 67.0214 224.794 70.2408 224.356C70.2486 224.524 70.246 224.691 70.229 224.859C70.1573 225.569 69.8194 227.973 69.569 228.518C69.4516 228.775 68.9024 229.468 68.6924 229.708C68.1093 230.374 66.6732 231.686 65.7327 231.448C65.1913 231.309 64.5039 229.948 64.0447 229.472C63.039 228.427 61.0276 227.422 59.6345 227.031C58.7305 226.777 57.8461 226.68 56.9122 226.608L57.1952 223.324V223.323ZM71.433 241.603C71.3195 241.741 70.529 242.101 70.3034 242.209C63.313 245.567 55.8125 247.157 48.0577 245.839C46.7846 245.623 44.2971 245.084 43.2718 244.337C42.8244 244.012 43.0279 243.062 43.1179 242.568C44.9049 243.362 46.8172 243.867 48.7452 244.213C55.4942 245.425 62.7129 243.829 68.9507 241.232C69.8612 240.853 70.7195 240.326 71.6469 240.033C71.4369 240.453 71.6991 241.279 71.4317 241.603H71.433ZM71.3404 230.06C71.6378 231.383 71.4408 232.833 71.6521 234.161L71.5908 238.728C67.7558 240.568 63.6156 242.248 59.388 242.929C55.3495 243.58 51.9188 243.72 47.8869 242.912C46.3229 242.599 44.7341 242.186 43.3018 241.48C43.5236 240.883 43.6344 240.233 43.9175 239.658C44.3753 238.725 47.279 235.866 48.1843 235.101C50.287 233.327 53.8676 233.622 56.0617 235.111C56.5378 235.433 57.2187 236.431 57.7666 235.955C58.424 235.383 57.1926 234.533 56.7556 234.227C54.9477 232.966 52.6897 232.59 50.5322 232.8C50.9875 232.395 51.6488 231.453 52.1341 231.166C53.6785 230.25 56.9565 231.038 58.3522 232.067C58.7775 232.38 59.2406 233.204 59.821 232.943C60.905 232.455 58.8701 231.037 58.4175 230.783C57.6896 230.373 55.8869 229.705 55.0834 229.705H53.6289C54.2329 228.968 55.0821 228.052 56.0643 227.87C58.4096 227.435 62.0203 228.802 63.5321 230.642C63.9104 231.101 64.1674 231.733 64.6578 232.144C66.287 233.505 68.5059 231.642 69.5807 230.407C69.9277 230.008 70.2042 229.479 70.5121 229.106C70.8825 228.659 71.2843 229.811 71.3404 230.06ZM70.4795 223.139C69.5077 223.428 68.4759 223.372 67.4728 223.416C64.6761 223.538 61.1215 223.398 58.4135 222.619C58.1227 222.536 57.3152 222.343 57.3113 221.983L59.7297 193.281C61.9511 193.944 64.243 194.375 66.5466 194.676C69.3381 195.04 72.1283 195.105 74.9328 195.253L70.4795 223.14V223.139ZM132.235 244.638C132.091 244.762 130.609 245.17 130.307 245.245C123.984 246.786 116.193 245.16 109.938 243.649C108.964 243.414 107.631 243.167 106.725 242.826C105.938 242.529 106.201 241.751 105.998 241.067C110.318 242.122 114.603 243.383 119.011 244.055C121.635 244.455 124.314 244.754 126.973 244.539C128.825 244.389 130.65 243.97 132.463 243.601C132.475 243.902 132.481 244.427 132.235 244.639V244.638ZM122.185 230.458C122.278 230.546 122.363 230.582 122.328 230.737C120.512 230.695 118.588 231.354 117.01 232.223C116.677 232.405 115.637 232.99 115.572 233.321C115.463 233.89 115.794 234.119 116.323 233.98C118.293 232.717 120.807 231.48 123.221 231.766C123.829 231.838 124.593 232.932 125.049 233.364C123.379 233.453 121.617 233.853 120.105 234.569C119.625 234.796 118.255 235.514 118.197 236.05C118.152 236.462 118.489 236.718 118.88 236.634C119.166 236.574 120.307 235.724 120.762 235.508C122.123 234.864 125.377 233.845 126.647 234.818C128.238 236.665 131.186 238.318 132.132 240.597C132.258 240.901 132.715 242.13 132.464 242.332C132.316 242.452 131.409 242.646 131.151 242.707C123.697 244.487 114.656 242.366 107.366 240.305C107.066 240.22 105.966 239.967 105.855 239.75L105.336 233.98C105.422 233.427 105.161 230.741 105.524 230.497C107.258 230.223 107.039 233.005 108.837 232.687C109.475 232.573 109.543 232.157 109.89 231.861C111.841 230.194 113.626 228.845 116.226 228.248C119.314 227.538 120.127 228.461 122.184 230.456L122.185 230.458ZM119.136 226.983C119.034 227.019 118.93 226.889 118.902 226.889C118.34 226.889 117.662 226.837 117.119 226.889C114.342 227.158 111.192 229.058 109.221 230.959C108.913 231.255 108.724 231.92 108.249 231.349C107.717 230.709 107.457 229.859 106.552 229.55L105.527 225.012C109.959 224.8 114.322 223.985 118.572 222.758L119.136 226.983ZM118.392 221.571C118.364 221.697 116.773 222.083 116.51 222.149C112.885 223.062 109.171 223.771 105.429 223.94L98.7698 195.344C99.8694 195.161 100.991 195.301 102.101 195.249C103.651 195.177 105.25 195.036 106.795 194.873C109.333 194.607 111.847 194.128 114.35 193.654L118.392 221.569V221.571ZM115.318 168.606C116.381 174.779 117.778 181.053 118.652 187.24C118.812 188.373 118.971 189.609 118.902 190.746C117.406 191.701 115.517 192.18 113.788 192.577C107.931 193.922 98.5089 194.848 92.652 193.72C92.2059 193.634 91.0333 193.386 90.7032 193.134C90.4424 192.935 89.901 190.416 89.7888 189.918C88.5288 184.327 87.677 178.641 86.6635 173.001C86.7808 172.882 89.3623 174.15 89.7354 174.292C89.8619 174.34 90.1176 174.476 90.2297 174.361C89.061 173.375 87.7461 172.148 86.2682 171.659C84.5633 171.095 82.531 170.967 80.7518 171.122C80.7205 171.282 80.834 171.358 80.937 171.454C81.4249 171.905 85.1712 172.365 85.1647 172.586C83.1637 179.566 80.8027 186.464 79.3208 193.584L79.2113 193.757C79.0691 193.877 78.3034 193.986 78.066 194.019C76.1067 194.288 74.1266 194.031 72.1687 193.933C67.3032 193.69 61.899 193.329 57.5083 191.042C57.1365 190.848 55.6208 189.984 55.5256 189.646C55.3795 188.195 55.3755 186.713 55.4082 185.248C55.4147 184.979 55.5034 184.754 55.5099 184.506C55.6847 178.589 56.2652 172.745 56.9252 166.863C57.113 165.195 57.5226 163.456 57.5696 161.783C57.6179 160.075 56.8913 158.279 57.567 156.615C57.6674 156.543 57.7744 156.572 57.8853 156.579C60.0519 156.724 61.745 157.446 63.7656 158.027C67.1154 158.993 70.4847 159.857 73.9505 160.33C74.2714 160.228 74.2166 160.163 73.9544 160.04C73.0622 159.623 71.2843 159.235 70.2616 158.946C68.3389 158.403 66.3157 157.986 64.423 157.37C64.2926 157.327 63.9756 157.289 63.9547 157.136C64.2274 157.1 64.4804 157.223 64.7478 157.233C69.9186 157.435 75.0763 157.238 80.2379 157.043C80.9449 157.015 81.6518 157.096 82.3484 156.949C82.381 157.221 82.2649 157.474 82.2506 157.742C82.171 159.25 82.5297 160.735 82.4462 162.256C82.3601 163.819 81.6558 166.12 82.2793 167.578C82.4032 167.869 83.3059 169.296 83.5146 169.44C83.6281 169.518 83.7063 169.551 83.8485 169.527C83.9137 168.517 83.2706 167.557 83.1885 166.574C83.0685 165.144 83.5015 163.763 83.572 162.35C83.6607 160.534 83.1037 158.759 83.3802 156.949L86.1012 156.759C86.276 159.577 85.6903 162.762 86.5447 165.469C86.6034 165.653 86.6961 166.044 86.7756 166.177C86.9713 166.505 87.193 166.35 87.2309 166.013C87.4591 164.034 87.1722 161.287 87.1278 159.253C87.1135 158.603 87.0535 157.602 87.1278 156.992C87.1396 156.891 87.1239 156.772 87.2204 156.709C95.0796 156.105 102.937 155.356 110.69 153.946L107.215 155.585L100.554 158.077C100.486 158.54 100.908 158.476 101.248 158.441C102.09 158.355 103.871 157.727 104.756 157.443C107.761 156.479 110.752 155.182 113.46 153.574C114.289 154.73 114.352 156.633 114.256 158.027C114.196 158.895 113.914 159.657 113.987 160.551C114.188 163.032 114.886 166.096 115.319 168.607L115.318 168.606ZM100.683 154.307C94.4848 155.065 88.247 155.515 82.0184 155.822C74.7658 156.178 67.0253 156.535 59.7858 155.716C58.5336 155.574 57.3022 155.323 56.0721 155.066C56.2117 154.525 55.7969 153.262 56.0617 152.858C61.6837 148.235 67.0136 142.683 69.8729 135.88L70.0216 135.747L72.7244 135.539L77.0446 135.449C77.2038 135.441 77.3551 135.364 77.5155 135.357C86.1247 134.907 94.9309 134.481 103.511 133.666C106.281 133.403 109.051 133.02 111.818 132.727L114.635 151.929C110.043 152.992 105.369 153.737 100.686 154.31L100.683 154.307ZM117.337 142.239C116.936 142.783 115.341 144.133 114.68 144.087L113.715 137.29C115.533 135.628 115.503 133.101 115.386 130.798C115.195 127.051 114.092 123.349 113.703 119.714C113.63 119.036 113.729 118.069 113.694 117.281C113.571 114.543 113.235 111.818 112.753 109.121L113.692 108.784C114.335 111.497 114.852 114.252 115.276 117.013C116.395 124.303 117.132 131.665 118.202 138.963C118.155 140.127 118.047 141.273 117.337 142.237V142.239ZM123.519 126.605C123.961 129.175 124.805 133.358 124.369 135.847C123.976 138.087 121.218 138.753 119.325 139.203L116.785 119.264C118.4 118.801 119.928 118.072 121.43 117.332C121.627 117.375 122.195 119.852 122.282 120.238C122.749 122.303 123.159 124.517 123.519 126.605ZM121.642 113.556C121.726 113.948 121.999 115.06 121.936 115.382C121.867 115.738 120.974 116.249 120.64 116.439C120.151 116.716 116.995 118.157 116.66 118.074L114.719 108.466L119.321 107.098C120.298 109.166 121.159 111.308 121.642 113.557V113.556ZM129.93 102.776L112.568 107.94C112.281 106.145 111.967 104.351 111.6 102.571C111.29 101.066 110.364 98.1716 110.405 96.811C110.495 93.8787 111.509 89.7502 112.144 86.8153C112.441 85.4417 112.86 84.0747 113.036 82.6868C112.894 82.6659 112.816 82.6868 112.702 82.7742C112.046 83.2673 111.106 88.3232 110.737 89.3511L109.659 94.6092C107.804 88.2815 106.058 81.4268 101.868 76.2104C105.347 76.2143 108.927 76.2769 112.241 77.4287C112.76 77.6087 113.574 78.0783 114.045 78.1592C114.6 78.2544 115.054 78.0522 115.607 78.0992C116.404 78.167 117.16 78.6118 117.976 78.7344C120.646 79.1323 123.95 79.221 126.694 79.4023C127.025 79.4245 128.053 79.3292 128.245 79.4466C128.374 79.5262 128.323 79.5784 128.295 79.688C128.224 79.9658 127.896 80.5058 127.771 80.8554C125.597 86.9196 126.219 96.0414 129.352 101.716C129.458 101.906 130.05 102.64 129.931 102.779L129.93 102.776ZM132.067 101.393C131.903 101.783 131.73 102.351 131.217 102.197C130.645 102.026 129.73 99.9625 129.559 99.356L132.651 98.3646C132.573 99.3468 132.447 100.48 132.067 101.393ZM144.856 66.6829C144.676 71.7088 143.078 75.9338 141.782 80.6937C140.59 85.0661 140.014 89.9172 137.06 93.5265C135.135 95.8784 132.249 97.6406 129.237 98.1689C129.083 98.1233 129.019 97.7437 128.966 97.5911C127.633 93.7157 127.201 88.6728 127.894 84.6408C128.11 83.3821 128.774 80.5006 129.567 79.5562C131.461 77.2996 132.65 73.9811 133.821 71.2314C134.011 70.784 134.224 70.2962 134.341 69.8266C135.059 70.8297 135.828 71.7584 137.066 72.1223C137.738 72.3193 139.589 72.4941 140.068 71.941C140.119 71.8823 140.19 71.8484 140.158 71.7519C140.094 71.4871 138.752 71.4453 138.463 71.3801C138.145 71.3084 137.485 71.0958 137.184 70.9705C135.716 70.3614 134.975 68.8078 134.619 67.3456C134.615 67.2321 135.352 67.1616 135.518 67.1082C136.361 66.8329 136.902 66.1977 137.15 65.3589C137.792 65.3759 138.319 65.7385 138.887 65.9798C139.272 65.5089 138.835 65.0902 138.463 64.8098C137.642 64.1889 135.784 63.6162 134.761 63.7245C134.468 63.7558 134.024 63.8536 134.064 64.2293C134.164 64.5698 135.688 64.6519 136.02 64.8593C135.917 66.3894 134.302 66.212 133.194 65.9498C132.047 65.6772 131.532 65.3798 131.359 64.1224C131.066 61.9857 132.415 61.2083 134.259 60.7817C136.117 60.3526 137.972 60.7204 139.817 60.4269C140.076 60.3865 140.506 60.3591 140.436 60.0173C140.37 59.7969 138.294 59.433 137.949 59.4069C135.568 59.2243 132.526 59.5504 130.818 61.3752C129.608 60.5013 129.411 59.013 130.439 57.899C131.519 56.7276 135.39 56.6363 136.923 56.6793C138.064 56.712 139.226 56.9494 140.369 56.7511C141.247 56.5998 139.953 56.0898 139.665 56.0011C137.485 55.3319 133.782 55.3971 131.596 56.0519C130.992 56.2332 130.458 56.5359 129.886 56.7824C129.197 55.5602 129.595 54.0014 130.803 53.2879C133.38 51.7643 137.664 53.2279 140.487 53.3974C141.301 53.447 141.231 53.1157 140.631 52.7818C138.99 51.8687 136.663 51.6743 134.819 51.5073C134.593 51.3508 134.691 49.582 133.961 49.9838C133.737 50.4325 133.962 50.9151 133.959 51.2934C133.955 51.6586 133.03 51.4956 132.708 51.5308C132.249 51.5817 131.789 51.716 131.336 51.7995C131.499 50.679 131.515 49.8416 132.271 48.935C133.551 47.401 134.936 47.628 136.705 48.0715C138.146 48.4341 142.321 50.0581 143.291 51.0586C144.125 51.9195 144.339 53.6988 144.474 54.8519C144.907 58.5538 144.988 62.9497 144.854 66.6842L144.856 66.6829Z" fill="black"/>
<path d="M58.7646 131.808L65.1707 99.734L64.8863 99.2605C57.8033 95.539 51.1338 90.4127 45.6956 84.5663C45.3265 84.1697 43.9947 82.3853 43.6112 82.3266C43.2159 82.2666 42.9042 82.7323 42.6394 82.9149C38.2578 85.9255 30.863 88.3921 25.5997 89.1526C25.1679 89.2152 23.12 89.3222 22.9622 89.4722C22.7443 89.8192 22.7326 90.2353 22.67 90.6344C20.9716 101.367 20.2698 112.438 18.6223 123.199C17.9675 130.749 20.3833 138.37 24.307 144.736C26.1136 147.669 29.0538 151.424 31.8622 153.421C32.3227 153.749 32.5014 153.925 33.1145 153.843C33.6767 153.768 35.2994 152.889 35.8929 152.585C39.8492 150.558 43.9151 147.799 47.3849 145.023C50.8677 142.237 57.6272 136.13 58.7646 131.81V131.808ZM32.3201 149.855C32.2783 150.625 32.4036 151.405 32.1844 152.159C29.8743 150.297 27.8746 148.012 26.2036 145.561C22.2473 139.76 19.3854 131.988 19.6502 124.882C21.1438 113.569 22.1117 102.113 23.7944 90.8144C23.8087 90.7166 23.827 90.5118 23.9457 90.4779C29.646 89.9157 35.1402 88.0243 40.3058 85.6476L42.4594 84.4697C39.634 95.5612 37.4295 106.812 35.7181 118.141C34.1345 128.623 32.8901 139.271 32.3201 149.854V149.855ZM43.5225 146.509C40.3579 148.777 37.0043 150.837 33.451 152.44C33.468 151.769 33.4275 151.09 33.4471 150.418C33.7484 139.786 35.3307 128.215 36.939 117.672C38.6557 106.414 40.7714 95.1503 43.8212 84.1893C49.5124 90.5288 56.341 95.9799 63.861 100.008L63.9484 100.187L57.5202 131.876C54.6022 137.82 48.8432 142.695 43.5225 146.508V146.509Z" fill="black"/>
<path d="M87.3379 100.587C89.2358 97.1057 90.8572 93.0685 91.9673 89.2583C92.5921 87.1139 93.196 84.8416 93.1399 82.5928L92.3886 84.3276C90.869 90.4467 87.647 96.1705 86.0752 102.233C86.0361 102.383 85.9865 102.524 86.01 102.683C86.5291 102.076 86.9544 101.293 87.3392 100.587H87.3379Z" fill="black"/>
<path d="M115.271 84.0304C114.448 85.777 113.213 90.4638 112.874 92.4282C112.798 92.8665 112.622 93.597 112.896 93.9505C113.326 93.9478 114.358 90.4768 114.512 89.9355C114.723 89.1906 116.081 83.7656 115.852 83.5321C115.505 83.4773 115.394 83.7695 115.271 84.0304Z" fill="black"/>
</g>
<defs>
<clipPath id="clip0_2117_24848">
<rect width="160" height="160" fill="white"/>
</clipPath>
</defs>
</svg>
