<svg width="160" height="160" viewBox="0 0 160 160" fill="none" xmlns="http://www.w3.org/2000/svg">
<g clip-path="url(#clip0_2117_24390)">
<path d="M91.6637 88.7041H85.785L85.6328 145.381H147.87V119.272C147.87 119.185 147.077 118.31 146.937 118.075C146.236 116.887 146.184 115.265 147.143 114.201C145.23 112.77 144.544 109.913 146.958 108.625C146.648 108.131 146.175 107.783 145.889 107.261C144.795 105.257 145.798 103.438 147.874 102.831L147.87 88.7041H137.125C137.137 89.5648 137.696 89.3986 138.273 89.7353C141.252 91.4765 138.138 96.1056 135.355 93.7699C134.343 92.9219 134.677 92.3443 134.468 91.3117C134.402 90.9863 134.058 90.3382 133.934 89.9198C133.816 89.524 133.743 89.1112 133.681 88.7041H126.686C126.701 89.5155 127.187 89.3845 127.767 89.7015C130.885 91.399 127.718 96.1254 124.914 93.7714C123.903 92.9219 124.237 92.3471 124.028 91.3131C123.966 91.006 123.634 90.3974 123.515 90.0016C123.389 89.5803 123.363 89.1267 123.239 88.7055H116.042C116.16 89.5775 116.479 89.3507 117.123 89.7029C119.891 91.2173 117.72 95.6027 114.691 94.0616C114.133 93.7784 113.532 93.0022 113.43 92.3823C113.274 91.4328 113.234 91.2201 112.972 90.3058C112.82 89.779 112.716 89.238 112.596 88.7055H105.602C105.709 89.6254 106.124 89.3479 106.77 89.717C108.245 90.558 108.339 92.7824 107.023 93.8277C105.488 95.0477 103.249 94.0954 102.974 92.195C102.821 91.13 102.736 90.9046 102.432 89.8973C102.331 89.5606 102.25 89.231 102.238 88.876L102.104 88.7055H95.2616C95.1602 89.6015 95.6194 89.3437 96.2055 89.6367C97.8326 90.4495 98.0199 92.7162 96.5816 93.8277C94.908 95.1223 92.7569 93.9996 92.5315 91.9837C92.4371 91.1328 92.4131 91.2258 92.1736 90.4242C92.0905 90.1452 91.7679 88.7393 91.6623 88.7041H91.6637Z" fill="white"/>
<path d="M143.634 107.389C143.493 106.964 143.089 106.759 142.654 106.748L90.4682 106.775C90.1076 106.858 89.9738 107.162 89.985 107.509L90.0343 141.941C90.1414 142.234 90.3569 142.309 90.6471 142.343C92.0277 142.506 93.9619 142.322 95.4172 142.337C105.077 142.436 114.73 142.344 124.406 142.337C130.275 142.331 136.572 142.63 142.451 142.341C143.282 142.3 143.623 142.371 143.715 141.382L143.633 107.389H143.634Z" fill="#BECDE1"/>
<path d="M40.3242 117.6C41.9062 117.173 43.7066 117.083 45.345 117.19C46.7298 117.28 48.4837 118.199 49.6431 117.138C50.4841 116.367 49.7558 115.259 48.8457 115.008C47.4468 114.623 44.3673 114.814 42.96 115.218C41.6513 115.594 40.775 116.277 40.3242 117.6Z" fill="#EED3CA"/>
<path d="M37.4844 122.163C37.9422 121.994 38.3465 121.685 38.803 121.506C42.0741 120.225 46.213 121.197 49.277 122.653C50.4575 121.946 50.4998 120.792 49.6489 119.778C48.1542 117.996 42.4587 117.928 40.3779 118.62C38.9509 119.093 37.7323 120.716 37.4844 122.162V122.163Z" fill="#EED3CA"/>
<path d="M36.5742 125.609C37.8083 125.008 38.9733 124.642 40.375 124.698C42.6248 124.789 44.0166 125.576 46.003 126.266C47.4342 126.764 49.8784 127.047 49.6502 124.848C49.5178 123.573 48.6796 123.29 47.6484 122.897C44.1448 121.56 37.5265 120.682 36.5742 125.607V125.609Z" fill="#EED3CA"/>
<path d="M35.4581 138.282H37.8403C38.2953 138.282 39.9745 137.488 40.3718 137.165C41.1227 136.554 42.3553 133.784 42.7737 132.774C42.9118 132.442 43.4541 131.158 43.4471 130.909C43.4415 130.707 42.8146 130.393 42.6216 130.4C42.2145 130.413 41.0072 131.12 40.6761 131.079C40.5028 131.058 40.5085 130.755 40.6409 130.641L41.5397 129.819L40.0238 129.052C40.0999 128.087 41.7989 128.724 42.4046 128.954C43.1541 129.237 45.0052 130.551 45.4503 130.571C47.138 130.644 47.2437 128.789 46.2575 127.735C45.1686 126.57 41.0325 125.921 39.4575 126.011C36.6851 126.17 36.2921 126.953 35.9667 129.514C35.7314 131.364 35.892 133.257 35.2552 135.039L34.8059 134.831C34.2649 133.046 34.641 131.112 34.834 129.293L34.7058 129.166C28.7666 131.481 22.4371 132.606 16.4795 134.863C14.9256 135.452 13.1478 136.138 11.7489 137.026C11.1995 137.374 10.1767 138.337 9.66115 138.487C9.20753 138.619 10.0697 137.629 10.1218 137.529L11.9433 135.752C11.4446 135.856 8.82295 137.026 8.71729 137.34C8.25241 141.096 9.13992 146.202 12.7238 148.203C15.3384 149.662 17.6966 148.863 20.2225 147.734L36.9796 139.099C36.7682 139.171 35.1679 138.544 35.4595 138.287L35.4581 138.282Z" fill="#EED3CA"/>
<path d="M55.6291 83.3323C55.8982 83.0759 60.509 84.8636 61.2275 85.0819C71.524 88.2262 84.507 86.4047 86.7202 74.0261C87.4048 70.1929 87.6697 65.6046 87.9627 61.6827C88.2303 58.1045 88.753 53.4261 88.5713 49.9239C88.4022 46.6782 87.016 45.4779 84.2323 44.1241C76.1687 40.205 63.7322 40.2346 54.9853 41.37C53.3766 41.5785 50.3337 42.0026 48.8925 42.5759C48.3797 42.7802 48.0163 43.9593 47.8754 44.4989C47.0428 47.6756 47.7176 52.8048 47.8219 56.214C47.8923 58.5257 48.5713 63.021 46.5568 64.572C44.3042 66.3062 43.6689 63.1379 42.8772 61.6672C39.5074 55.4053 29.7815 62.0194 33.7541 67.9544C36.2828 71.7313 41.1331 71.3791 44.6874 69.3956C45.2988 69.0547 46.13 68.3151 46.7385 68.1009C46.8653 68.0559 46.9625 67.953 47.0682 68.1207C47.3978 68.6433 46.2694 69.3223 45.9919 69.6942L45.9426 69.8548C47.6486 74.3388 49.7702 78.6397 51.7565 83.0012C52.2115 85.4806 51.2338 88.7193 51.8551 90.9127C53.223 95.7489 59.0383 100.251 64.0069 100.657C70.1688 101.16 72.8243 96.6688 69.9744 91.3424L68.8178 95.0333L68.5051 95.0939C68.2684 92.5497 69.0784 90.1548 69.518 87.6923C65.4946 87.5021 60.702 86.6823 57.1492 84.703C56.9477 84.5917 55.3305 83.6196 55.6319 83.3323H55.6291Z" fill="#EED3CA"/>
<path d="M84.5191 127.131V119.475C84.5191 119.216 84.0345 117.813 83.9148 117.444C81.5283 110.128 77.7599 101.893 74.3691 94.9535C74.0014 94.2012 72.587 91.4007 72.0447 90.9921C71.9728 90.9386 70.9839 90.4906 70.9374 90.5287C72.8519 94.0266 73.0547 98.5937 69.2455 100.849C65.6292 102.99 60.5592 101.51 57.2627 99.3897L54.1113 96.8638C58.239 106.17 58.2502 116.845 55.8356 126.621C56.3921 126.604 56.9556 126.643 57.512 126.625C65.2897 126.376 73.0702 126.747 80.8169 127.031C82.0496 127.076 83.2893 127.024 84.5205 127.128L84.5191 127.131Z" fill="#D52B1E"/>
<path d="M92.8295 146.597H85.2786C85.1349 146.597 84.5179 146.134 84.5179 146.04V128.296C84.4291 128.151 84.3164 128.157 84.1685 128.139C83.0373 128.006 81.5018 128.174 80.3071 128.149C72.6267 127.984 64.5813 127.371 56.8924 127.734C56.4261 127.757 55.9344 127.913 55.4371 127.85C53.6537 134.079 50.7657 140.248 46.9945 145.513C46.2296 146.581 45.6534 147.761 44.2235 147.912L42.1484 149.739L65.7182 149.635C72.6055 149.826 79.4971 150.105 86.3957 150.243C86.6352 150.248 86.8578 150.349 87.0973 150.353L92.9309 150.248L92.8295 146.597Z" fill="#F7F0EF"/>
<path d="M39.6166 139.097L32.446 142.772L31.5078 148.931C31.7135 148.937 31.9206 148.951 32.122 148.886C32.4939 148.768 34.9832 146.574 35.4622 146.145C36.3849 145.316 37.2682 144.436 38.1458 143.561C37.3414 141.792 38.8953 140.562 39.6166 139.098V139.097Z" fill="#F7F0EF"/>
<path d="M92.9317 151.362L84.9694 151.468C70.2551 150.633 55.4788 150.903 40.7264 150.903C37.2749 153.349 34.0207 156.111 30.2368 158.052L27.5645 175.827C27.6997 176.31 29.9481 176.942 30.4693 177.086C38.3794 179.267 49.3169 179.834 57.6017 180.263C67.3221 180.764 78.2356 181.1 87.9123 180.054C89.9818 179.832 92.116 179.554 94.0291 178.72C94.0446 178.205 94.0699 177.676 94.0516 177.161C93.8812 172.336 93.4599 167.491 93.2317 162.67L92.9317 151.361V151.362Z" fill="#D52B1E"/>
<path d="M45.3927 109.691C44.8644 106.527 44.2347 103.34 43.1655 100.312C42.5512 98.5704 40.6086 93.885 38.6307 93.4919C37.2191 93.2116 35.5977 94.0103 34.3087 94.5992C32.521 95.4163 30.7643 96.5066 29.2287 97.7308C24.1798 101.756 21.2045 107.703 18.0264 113.19C18.063 113.31 18.2447 113.221 18.3321 113.19C20.2945 112.494 23.0317 110.884 25.018 110.543C25.1575 110.519 25.752 110.505 25.628 110.755C23.8403 111.801 21.9582 112.727 20.0902 113.631C17.6249 114.823 16.488 114.737 14.968 117.329C12.8774 120.893 10.7981 125.675 9.0879 129.495C7.8792 132.194 6.59865 135.015 5.86328 137.877C8.80756 135.379 12.6633 133.962 16.3824 133.04C17.8672 132.672 19.3985 132.493 20.8636 132.148C23.7755 131.465 26.9804 130.464 29.8613 129.59C31.5968 129.063 33.3211 128.496 35.044 127.93C35.0356 126.457 35.5695 125.156 35.9189 123.787C36.3485 122.105 36.3894 120.902 37.546 119.433C37.8489 119.048 38.3137 118.738 38.5856 118.342C39.0688 117.635 39.3379 116.6 39.876 115.881C41.2777 114.013 43.6303 113.8 45.7984 113.644C45.2293 111.88 44.5404 110.133 43.7219 108.471C43.5148 108.05 42.5555 106.665 42.6625 106.306C42.6865 106.224 42.8048 106.116 42.9063 106.142L43.3613 106.602L45.3913 109.691H45.3927Z" fill="#D52B1E"/>
<path d="M90.9029 31.622C90.8536 28.365 90.0521 24.8995 88.6588 21.9538C85.2764 14.7988 75.5152 10.2049 67.9432 9.41878C62.9281 8.89896 59.3076 9.67235 54.6165 11.1924C47.3741 13.5394 40.3966 16.6569 35.721 22.9103C32.7837 26.8393 32.2047 31.6417 31.6074 36.3863C32.147 36.2906 32.6457 36.0835 33.1909 35.9933C33.5247 35.9384 33.9755 36.0637 34.2742 35.8862C34.4348 35.7904 34.9602 35.0044 35.1561 34.817C36.8057 33.2378 39.2823 32.1052 41.587 32.0249C41.9054 32.0136 42.6365 32.1559 42.7858 32.1164C42.9535 32.0714 45.0201 30.2428 45.4807 29.9371C47.0163 28.9172 48.6645 28.403 50.5072 28.2734C51.0946 28.2325 51.992 28.3847 52.5132 28.2523C52.7203 28.2001 53.1542 27.8409 53.3979 27.7169C57.5833 25.5968 61.2488 25.3855 65.5131 27.5606C69.4759 25.5926 73.5514 26.1208 76.9113 28.944C80.8375 28.0719 84.1438 28.0381 87.4487 30.5668C87.684 30.7471 88.1474 31.3416 88.339 31.3994C88.9265 31.5741 90.2 31.3388 90.9029 31.6234V31.622Z" fill="#5A321B"/>
<path d="M65.1312 28.7079C65.0622 28.6332 63.4957 27.9838 63.2562 27.8979C59.8639 26.6723 56.6745 27.054 53.6514 28.9868C53.3795 30.7929 53.9557 32.5608 53.9064 34.3612L60.1401 33.754L65.4609 33.6526C65.1665 32.7369 65.6398 29.2601 65.1312 28.7093V28.7079Z" fill="#8F6852"/>
<path d="M76.509 34.4623C76.4837 33.5312 76.4977 32.4972 76.4076 31.573C76.354 31.0208 76.2752 29.9093 75.9047 29.5402C75.2735 28.9133 73.0576 27.9061 72.1715 27.6976C70.1133 27.213 68.4284 27.768 66.4844 28.3879L66.5759 33.6495C69.895 33.8186 73.2196 33.9777 76.5076 34.4623H76.509Z" fill="#8F6852"/>
<path d="M52.2837 29.4924C50.079 29.391 48.0546 29.6347 46.1697 30.8307C45.7725 31.0829 44.0411 32.3733 43.865 32.6818C43.4748 33.3622 44.1454 35.3415 44.0749 36.1853L52.7908 34.461L52.2837 29.4924Z" fill="#8F6852"/>
<path d="M87.5574 36.8951C87.5109 36.457 87.6701 36.0626 87.6672 35.6273C87.6616 34.8172 87.57 33.2831 87.4503 32.4914C87.3291 31.6884 85.7246 30.7981 85.023 30.4586C83.7904 29.8613 82.4985 29.5443 81.125 29.4922L77.668 29.9937L77.7299 34.6609C81.0574 35.1525 84.3511 35.8921 87.5559 36.8951H87.5574Z" fill="#8F6852"/>
<path d="M94.1468 39.3271C93.8383 37.9198 94.1764 36.0462 93.4917 34.7614C92.6916 33.2597 90.3136 32.3694 88.6738 32.5342L88.7865 37.2901L94.1482 39.3271H94.1468Z" fill="#8F6852"/>
<path d="M42.6564 33.1431H41.1871C39.6557 33.1431 36.4833 34.8054 35.607 36.0775C35.1337 36.7635 35.414 38.1286 35.4619 38.9217L42.8649 36.4367L42.6578 33.1431H42.6564Z" fill="#8F6852"/>
<path d="M34.1388 36.9971C32.7286 37.1267 31.2241 37.5803 30.1337 38.5157C28.8785 39.592 29.056 40.3048 29.2223 41.8657L34.2247 39.4145L34.1402 36.9971H34.1388Z" fill="#8F6852"/>
<path d="M88.6736 67.0078C93.5831 64.9651 100.816 61.208 102.305 55.6519C104.428 47.7319 94.3495 42.7732 88.3215 40.7446C72.9619 35.5759 50.7249 36.3606 35.764 42.6266C31.6138 44.365 26.524 47.2248 24.0615 51.0974C19.6254 58.0749 25.9591 63.6352 31.8068 66.5006C31.1475 63.6916 32.452 60.9614 34.7398 59.3372C34.3299 57.6791 32.9099 55.5871 33.0268 53.8797C33.4522 47.6319 42.0216 43.3845 47.2157 41.8138C57.4234 38.7272 76.1795 38.1454 85.6336 43.5353C91.9574 47.1403 89.1216 52.2906 89.3808 58.3398L88.6736 67.0092V67.0078Z" fill="#371D0E"/>
<path d="M47.2146 43.0811C43.311 44.3024 39.0622 46.2451 36.3715 49.4204C35.298 50.6883 33.8428 53.2958 34.2697 54.9652C34.3936 55.447 35.5925 58.4814 35.8601 58.6519C36.2743 58.5885 36.704 58.3476 37.1576 58.2166C39.1932 57.6263 40.9626 57.9165 42.5996 59.3055C43.8956 60.4058 44.0943 62.34 45.0001 63.5952C45.3973 64.1446 46.0285 63.6233 46.2863 63.1909C46.9174 62.1357 46.7497 58.1109 46.7103 56.7121C46.606 52.9394 45.927 49.0724 46.5525 45.3083C46.6793 44.5419 46.8977 43.7882 47.2132 43.0811H47.2146Z" fill="black"/>
<path d="M45.0855 70.4551L42.4512 71.7215C43.8909 73.5191 44.8799 75.6674 46.4069 77.3974C46.6464 77.6678 48.2186 79.2766 48.5327 78.9709L45.0855 70.4551Z" fill="black"/>
<path d="M99.9237 45.7153L98.908 44.3488C96.5244 41.6975 93.6139 40.2648 90.3202 39.0491C74.5874 33.2394 53.6041 33.6128 37.8656 39.252C34.124 40.5931 30.3823 42.2498 27.3479 44.8517C25.5236 46.4168 23.7894 48.4299 22.8906 50.6825C26.1998 45.8533 31.591 42.9217 36.9541 40.8734C50.726 35.6132 69.1905 34.8186 83.5061 38.1602C89.4032 39.5365 95.2903 41.7426 99.9251 45.7153H99.9237Z" fill="#5A321B"/>
<path d="M73.8758 71.3678C70.1976 70.6986 66.4771 69.8858 63.0313 68.4277C63.0313 68.9025 62.6974 69.2983 63.1961 69.6294C63.7512 69.9971 65.3529 70.5789 66.046 70.8339C67.9732 71.5453 71.4161 72.6286 73.3673 71.8214C73.5645 71.7397 73.9082 71.6326 73.8744 71.3678H73.8758Z" fill="white"/>
<path d="M49.5443 81.1004C49.433 80.899 49.3809 80.6384 49.171 80.513C49.0639 80.4482 47.2889 79.8227 47.1833 79.8199C46.5099 79.803 45.2927 80.1876 44.5771 80.3411C41.0778 81.092 38.673 81.3131 36.5895 84.518C36.4092 84.7956 35.4371 86.5396 35.4695 86.7157C35.5174 86.9707 36.0654 87.058 36.2852 87.1172C37.2107 87.3651 38.1969 87.4088 39.1379 87.5821C39.9127 86.379 40.4917 85.0829 41.4102 83.9475C43.0444 81.9302 47.1494 81.6104 49.5443 81.1018V81.1004Z" fill="#404040"/>
<path d="M50.556 88.8028C50.6237 87.3194 50.8434 85.8176 50.718 84.3385L50.5095 84.2427C48.3049 84.3244 46.0227 84.4145 43.8673 84.8977C43.3742 85.009 41.9204 85.3781 41.588 85.6599C40.978 86.1769 40.4004 88.3914 39.8453 88.6816C39.7397 88.7366 39.5692 88.7859 39.4495 88.7985C38.886 88.8577 36.3319 88.3858 35.7078 88.1998C35.0838 88.0139 34.3935 87.68 34.2399 86.9799C31.0843 88.7943 28.0584 91.1117 25.9481 94.1461C23.3616 97.868 21.6359 102.559 20.2539 106.852C20.9653 105.905 21.5316 104.857 22.198 103.879C25.8466 98.5273 30.4476 94.2969 36.8165 92.4655C37.0405 91.2188 37.2377 90.2636 38.4563 89.6142C40.1834 88.6929 45.9593 87.9181 47.8512 88.3224C48.333 88.4252 49.0459 88.6929 49.3107 89.1169L50.5574 88.8014L50.556 88.8028Z" fill="#242E5F"/>
<path d="M84.5189 115.574V102.343C84.5189 101.695 83.5792 99.0534 83.3045 98.2856C82.4325 95.8443 81.0519 92.707 78.9459 91.087C78.1513 90.4756 73.1982 88.8682 72.2022 88.9034C72.0021 88.9104 71.0738 89.1246 71.0372 89.2654C70.9822 89.4697 71.1315 89.4091 71.2414 89.4613C71.8077 89.7317 72.3107 89.7176 72.7629 90.1741C74.6125 92.0449 76.6792 97.1586 77.847 99.6887C79.1332 102.477 80.318 105.312 81.5971 108.105L84.5189 115.575V115.574Z" fill="#404040"/>
<path d="M44.3772 131.491C43.4741 134.241 42.1401 136.933 40.744 139.467C40.4115 140.07 39.076 141.985 39.0972 142.489C39.1197 143.017 39.7903 143.62 40.1664 143.964C40.8807 144.618 43.4784 146.469 44.3518 146.58C44.4856 146.597 44.5448 146.608 44.6758 146.548C45.0872 146.359 47.3257 142.922 47.7215 142.291C56.8206 127.779 60.2551 107.099 50.1741 92.1802C49.7205 91.5096 48.5118 89.7078 47.8201 89.4655C46.4706 88.9936 42.5233 89.6219 41.0088 89.9501C39.6621 90.2417 38.1702 90.4192 38.0885 92.1013C38.0773 92.3281 38.0984 92.2224 38.2421 92.2506C41.1892 92.8352 42.6472 95.8767 43.7122 98.4406C45.6929 103.212 46.5114 108.634 47.1115 113.747C48.4625 113.765 49.9051 113.817 50.7433 115.031C51.6012 116.275 51.1758 117.602 49.9488 118.362V118.511C51.6068 119.494 51.9449 122.067 50.37 123.343C51.6773 125.715 50.2911 127.934 47.6173 127.841C49.0147 130.136 46.7284 132.414 44.3743 131.49L44.3772 131.491Z" fill="#404040"/>
<path d="M84.5172 127.131V119.475C84.5172 119.216 84.0325 117.813 83.9128 117.444C81.5264 110.128 77.758 101.893 74.3671 94.9535C73.9995 94.2012 72.5851 91.4007 72.0427 90.9921C71.9709 90.9386 70.9819 90.4906 70.9354 90.5287C72.8499 94.0266 73.0528 98.5937 69.2435 100.849C65.6273 102.99 60.5572 101.51 57.2607 99.3897L54.1094 96.8638C58.237 106.17 58.2483 116.845 55.8337 126.621C56.3901 126.604 56.9536 126.643 57.5101 126.625C65.2878 126.376 73.0683 126.747 80.815 127.031C82.0476 127.076 83.2873 127.024 84.5186 127.128L84.5172 127.131Z" fill="#D52B1E"/>
<path d="M84.5169 98.0329V94.6364C84.1154 94.311 83.6181 94.0053 83.1659 93.7574C83.0011 93.6672 82.6714 93.4277 82.4883 93.5221L84.5169 98.0329Z" fill="#D52B1E"/>
<path d="M7.48215 138.183C7.35113 138.048 6.29457 139.102 6.16778 139.25C4.08566 141.693 5.84096 143.546 8.29217 144.468C7.6033 142.474 7.19335 140.284 7.48074 138.183H7.48215Z" fill="#8F2C28"/>
<path d="M31.2001 143.457C27.6712 145.17 24.2691 147.193 20.6951 148.816C17.2761 150.368 14.1008 150.957 10.9297 148.424C11.0382 151.518 10.493 155.389 12.6498 157.906C14.012 159.498 17.0732 160.999 19.0412 161.754C19.4075 161.895 20.0837 162.279 20.4162 162.02C20.6092 161.751 20.6923 161.362 20.7515 161.037C21.1727 158.69 20.7909 155.954 21.0783 153.658C21.1093 153.41 21.1516 153.056 21.4023 152.966C21.5263 152.905 21.5164 152.839 21.6221 152.987C21.739 153.15 21.8573 153.914 21.8756 154.154C22.0447 156.261 22.2757 159.6 21.8306 161.607C21.5037 163.081 20.8543 163.579 19.3653 163.153C17.6931 162.674 15.8307 161.482 14.2755 160.69C14.6333 162.826 15.2827 165.312 16.5238 167.11C17.9283 169.143 23.028 171.375 25.4003 172.223C25.7356 172.343 26.3893 172.616 26.6992 172.652C26.9161 172.676 26.8837 172.397 26.9119 172.269C27.9093 167.828 28.1643 163.086 29.0757 158.611C29.1236 158.312 28.6278 158.561 28.4193 158.566C27.8854 158.576 27.5036 158.55 27.2289 158.023C26.74 157.082 26.926 154.277 27.2768 153.266C27.636 152.231 29.2758 151.226 30.0703 150.484L31.2015 143.454L31.2001 143.457Z" fill="#242E5F"/>
<path d="M43.0602 147.31C41.4993 146.589 40.1469 145.484 38.8537 144.373C37.111 146.146 35.298 147.855 33.3779 149.436C32.203 150.402 29.3136 152.25 28.5642 153.341C28.0148 154.141 28.0993 156.281 28.2035 157.251C28.4613 157.625 30.3209 156.685 30.6956 156.488C34.0724 154.71 38.2648 151.36 41.2809 148.928C41.8444 148.473 42.4685 148.016 42.994 147.521C43.0799 147.441 43.0869 147.452 43.0588 147.311L43.0602 147.31Z" fill="#404040"/>
<path d="M97.3911 87.4898V85.2091C97.3911 84.4483 96.8868 82.8325 96.4599 82.1859C94.861 79.76 93.3945 83.1946 93.0789 84.6484C92.5816 86.9362 92.6366 90.5214 94.7455 92.0077C95.9894 91.5174 94.5919 90.6567 94.3017 89.9227C93.7593 88.5548 93.61 84.6117 94.4694 83.403C94.7511 83.0072 95.1441 82.8057 95.6048 83.0438C96.6628 83.5932 96.767 86.4206 96.7839 87.4926H97.3925L97.3911 87.4898Z" fill="#B3B3B3"/>
<path d="M107.717 87.4756C108.147 86.1979 107.554 81.6646 105.952 81.4124C105.318 81.3124 104.963 81.5998 104.59 82.0661C103.017 84.0313 102.782 89.1549 104.285 91.1905C104.48 91.4525 105.169 92.2386 105.498 91.8991C106.065 91.3145 105.432 91.0088 105.156 90.6242C104.197 89.2887 104.149 86.4149 104.415 84.8314C104.53 84.144 104.876 82.7704 105.834 82.9437C107.063 83.1663 107.185 86.5191 107.225 87.4911L107.718 87.4756H107.717Z" fill="#B3B3B3"/>
<path d="M117.56 85.7145C117.611 86.2836 117.523 86.9133 117.56 87.4895L118.157 87.4783C118.376 86.3653 118.27 85.0496 118.016 83.9409C117.69 82.5124 116.543 80.2035 115.028 82.0673C113.441 84.0226 113.228 88.9222 114.6 91.0072C114.785 91.2861 115.538 92.1891 115.868 91.9595C116.472 91.1015 115.872 91.0705 115.488 90.524C114.558 89.1997 114.572 85.7751 114.973 84.2438C115.168 83.5014 115.644 82.5744 116.537 83.0872C117.153 83.4408 117.499 85.0383 117.559 85.7145H117.56Z" fill="#B3B3B3"/>
<path d="M128.204 85.7151C128.256 86.2828 128.166 86.9139 128.204 87.4901L128.807 87.4845C129.059 85.9405 128.822 83.116 127.749 81.9129C126.405 80.4055 125.246 82.4679 124.83 83.6597C124.147 85.6193 124.097 88.8326 125.044 90.702C125.212 91.0317 126.23 92.4122 126.589 91.8826C127.077 91.1655 126.526 91.0317 126.18 90.5809C125.182 89.2806 125.164 85.5925 125.64 84.064C126.07 82.6877 127.214 82.5299 127.777 83.9133C127.94 84.3148 128.164 85.2896 128.204 85.7165V85.7151Z" fill="#B3B3B3"/>
<path d="M138.646 85.8159C138.697 86.3498 138.61 86.9471 138.646 87.4895H139.253C139.425 86.3893 139.345 85.2116 139.122 84.1226C138.805 82.5688 137.63 80.1035 136.01 82.1659C134.733 83.7944 134.548 87.0669 134.926 89.0307C135.148 90.1844 135.661 91.4875 136.773 92.0256C137.788 91.2339 136.598 90.7831 136.264 90.0238C135.662 88.6517 135.499 84.6734 136.372 83.4408C136.74 82.9224 137.205 82.7519 137.731 83.1844C138.221 83.5873 138.587 85.1932 138.648 85.8159H138.646Z" fill="#B3B3B3"/>
<path d="M148.984 89.1104V98.9448C149.504 98.6306 150.099 98.4841 150.709 98.5391L150.658 89.7175L150.303 89.5161C150.269 91.3193 150.378 93.1422 150.2 94.9397C150.137 95.5892 149.858 97.9065 149.506 95.9399C149.127 93.824 149.361 91.5108 149.287 89.3653L148.984 89.1118V89.1104Z" fill="#BECDE1"/>
<path d="M148.984 120.135V145.279L149.29 145.22L149.593 126.522C150.024 126.456 150.062 126.577 150.1 126.978C150.313 129.252 150.137 131.682 150.197 133.98C150.683 137.379 149.911 141.378 150.299 144.727C150.316 144.879 150.31 144.983 150.457 145.076L150.709 144.924V121.301L150.102 120.845L149.999 123.43C149.992 123.563 149.892 123.713 149.748 123.683C149.418 123.614 149.424 121.116 149.365 120.721C149.331 120.498 149.289 120.097 148.987 120.136L148.984 120.135Z" fill="#BECDE1"/>
<path d="M149.97 99.7797C149.553 99.8755 148.998 100.6 148.979 101.026C148.955 101.594 149.513 102.545 149.902 102.948C150.381 103.447 151.384 103.616 152.063 103.928C152.893 104.31 153.651 104.872 154.461 105.289C155.102 104.586 154.933 103.365 154.516 102.59C153.939 101.518 151.233 99.4867 149.97 99.7783V99.7797Z" fill="#EED3CA"/>
<path d="M148.224 104.067C146.432 104.063 146.257 106.173 147.363 107.31C148.18 108.151 148.807 108.016 149.795 108.326C151.403 108.832 152.894 109.647 154.204 110.707C154.855 109.766 155.159 107.451 154.414 106.545C153.964 106 151.085 104.818 150.302 104.576C149.876 104.444 148.594 104.069 148.224 104.069V104.067Z" fill="#EED3CA"/>
<path d="M154.122 111.855C153.831 111.531 151.794 110.514 151.282 110.286C150.067 109.743 148.173 108.849 147.069 109.96C146.067 110.967 146.733 112.318 147.675 113.083C148.442 113.707 148.562 113.512 149.395 113.695C150.867 114.019 152.233 115.057 153.298 116.08C153.512 116.128 154.058 115.018 154.139 114.802C154.418 114.065 154.693 112.489 154.121 111.855H154.122Z" fill="#EED3CA"/>
<path d="M151.921 124.395C153.23 122.908 154.13 121.454 153.952 119.373C153.872 118.441 153.577 117.976 152.987 117.297C151.942 116.094 147.389 112.728 147.559 116.339C147.657 118.395 150.135 119.159 151.416 120.287C151.794 120.62 151.922 120.694 151.922 121.202V124.395H151.921Z" fill="#EED3CA"/>
<path d="M89.9884 32.0278C91.9254 32.1813 93.9399 33.3731 94.7527 35.1707C94.8499 36.1554 95.0063 37.1739 95.0556 38.1628C95.0796 38.6503 95.0401 39.1447 95.0556 39.6321C94.7894 39.4152 94.4315 39.4082 94.2442 39.3279C93.5102 39.2912 93.1087 38.7939 93.0397 37.8374L92.6115 35.3172C92.4354 34.6241 91.7789 34.231 91.1872 33.9084L88.5951 32.7786L88.5684 32.5363C88.6402 32.2729 88.6444 32.1475 88.8726 31.9277C89.1657 32.1912 89.6376 32.139 89.987 32.0292L89.9884 32.0278Z" fill="#AD8F7E"/>
<path d="M87.7601 36.4903C87.4783 36.4565 87.305 36.2226 87.2022 35.9831C86.8035 35.0604 86.8711 33.4291 86.2921 32.6345C85.5103 31.5611 83.4253 30.3637 82.1631 29.972C81.7123 29.8326 80.8868 29.9171 80.7656 29.3916C80.9995 29.3141 81.1601 29.0451 81.7292 28.9873C83.4746 28.8126 86.6457 30.2298 87.7107 31.6202C88.3123 32.4063 88.4123 34.9519 88.2601 35.9254C88.1784 36.4466 87.7882 36.4452 87.7586 36.4889L87.7601 36.4903Z" fill="#AD8F7E"/>
<path d="M69.9213 27.4664C69.717 26.2662 71.9653 26.8268 72.6359 27.0325C74.2391 27.5228 77.3256 29.8289 76.9706 31.7293C76.9002 32.104 76.6184 32.2674 76.61 32.3026C76.586 32.4111 76.6142 33.2197 76.61 33.4493C76.4029 33.4747 76.1493 33.0507 76.0817 32.9126C75.3449 31.4095 75.3196 30.715 73.9756 29.4443C73.1135 28.6286 71.0835 27.6129 69.9199 27.4678L69.9213 27.4664Z" fill="#AD8F7E"/>
<path d="M41.4374 33.0428C40.4668 33.1935 37.4507 35.4644 36.8238 36.2843C36.2434 37.0436 36.3659 38.0931 35.863 38.9229C35.4686 39.0426 35.1812 39.3849 34.8727 38.7468C34.5106 37.9987 35.0037 36.3266 35.5052 35.6757C36.2138 34.753 39.6427 32.5497 40.7781 32.5328C41.0571 32.5286 41.5205 32.6497 41.4374 33.0414V33.0428Z" fill="#AD8F7E"/>
<path d="M33.2258 36.8959C33.2639 37.1593 33.1765 37.1931 32.9948 37.3241C31.5874 38.3455 30.676 38.6512 30.0294 40.5417L29.78 41.7617C29.687 41.8124 29.5687 42.0026 29.3983 42.0434C28.3487 42.2984 28.2656 40.2571 28.7235 39.5373C29.5828 38.1877 31.1564 36.3817 32.9582 36.7113C33.1033 36.7381 33.2103 36.8916 33.2272 36.893L33.2258 36.8959Z" fill="#AD8F7E"/>
<path d="M43.767 34.8672C42.8316 35.0489 43.1232 33.357 43.3753 32.9034C43.6176 32.4667 45.3757 30.9847 45.8618 30.6255C46.6028 30.0789 48.1003 29.2308 48.9962 29.097C49.2737 29.0547 49.6499 28.9646 49.5442 29.3928C48.4778 29.6393 44.9799 32.5723 44.4558 33.5796C44.2966 33.8839 44.2361 34.2558 44.0543 34.6009C43.9769 34.7489 43.774 34.8503 43.767 34.8686V34.8672Z" fill="#AD8F7E"/>
<path d="M81.3749 36.2864C81.3214 35.9497 81.8482 36.0723 82.0102 36.1075C83.2344 36.3751 86.514 37.4782 87.5579 38.0093C89.926 38.7742 92.2237 39.6871 94.4509 40.7465C95.6103 41.2353 97.4191 42.0298 98.5052 42.6722C100.375 43.7795 102.417 47.3183 103.067 49.3638C102.851 49.3849 102.698 49.3835 102.505 49.268C101.589 48.7228 100.28 46.4941 99.4843 45.6489C97.8657 43.9288 94.1818 42.3412 91.987 41.3367C90.3599 40.5929 88.6581 39.7575 86.9521 39.225L85.9745 38.6305C84.6164 37.9825 83.1231 37.4402 81.813 36.709C81.6059 36.5935 81.4045 36.2948 81.3763 36.2836L81.3749 36.2864Z" fill="#835840"/>
<path d="M34.9493 87.692L29.5763 91.9999C25.9629 95.1555 23.4539 99.3958 21.2309 103.58C21.2027 103.633 21.1154 103.671 21.0647 103.712L20.9633 103.814C20.9548 103.845 20.9689 103.881 20.9633 103.915C20.5984 104.746 20.149 105.525 19.6165 106.255L19.3418 106.247C20.5561 102.401 23.0567 95.5852 25.8291 92.762C27.004 91.1476 28.7001 89.8516 30.3666 88.7401C31.481 87.9977 32.9193 87.0566 34.1534 86.5889C34.2928 86.5368 35.6565 87.5032 34.9507 87.692H34.9493Z" fill="#50587F"/>
<path d="M45.8983 79.8845C45.9448 79.8873 45.9899 79.8944 46.0279 79.9141C46.5379 80.1733 45.0545 80.9326 44.7474 80.9242C41.4777 81.7441 38.7405 83.1655 36.8852 86.1647C36.5471 86.7014 36.1399 87.0085 35.661 87.0832C34.8876 87.5283 34.2001 86.1196 34.7481 85.5617C34.951 85.4758 36.0808 83.3669 36.4048 82.9612C36.795 82.4738 37.5064 81.954 37.8896 81.506L38.1939 81.4045C38.2108 81.3905 38.177 81.3158 38.1939 81.3031C38.4461 81.2299 38.6827 81.1284 38.9039 80.9988C39.0842 80.9354 39.2533 80.8495 39.4111 80.796C40.2549 80.3987 41.1663 80.1282 42.1482 79.9845C42.2116 79.9733 42.2863 79.9944 42.3511 79.9845C43.1132 79.8648 43.9698 79.6098 44.7291 79.5746C45.1207 79.5563 45.725 79.4577 45.8997 79.8831L45.8983 79.8845Z" fill="#717171"/>
<path d="M50.6625 83.5342L50.5611 84.1428C50.1835 84.1625 49.5172 84.4316 49.0593 84.5161C46.7955 84.9345 44.488 85.3219 42.2227 85.6445L41.8438 85.3599C41.8621 85.343 41.8381 85.1035 42.0396 84.8979C42.1185 84.8161 42.8031 84.4513 42.8566 84.4485C42.9341 84.4442 43.1652 84.5879 43.4089 84.5527C44.3499 84.4189 45.2895 84.1681 46.2658 84.0554C47.3576 83.9286 49.8271 83.9808 50.6625 83.5356V83.5342Z" fill="#50587F"/>
<path d="M48.3316 89.6163C48.0795 90.0404 47.6949 90.1024 47.2398 90.1967C45.8846 90.4771 44.3153 90.4588 42.9235 90.6447C42.0162 90.7659 41.116 90.9476 40.2229 91.1378L41.233 92.2042C43.9378 96.3022 45.8903 101.536 45.8987 106.447C45.6311 106.249 45.5367 105.749 45.4423 105.432C44.6689 102.806 44.3702 99.9706 43.0432 97.4912C41.9641 95.4767 40.3553 92.6029 37.9266 92.2887C37.6688 92.2549 37.3617 92.4972 37.0814 92.1507C37.0898 92.0197 37.0617 91.8661 37.0814 91.7449L37.7886 90.78C39.8383 88.4147 45.0802 88.8007 47.8836 89.1021C48.2908 89.2613 48.2034 89.4741 48.333 89.6163H48.3316Z" fill="#717171"/>
<path d="M70.5082 89.1093C70.7139 88.974 71.6169 88.5726 72.0043 88.5078C73.5271 88.2542 78.0351 89.7615 79.1903 90.8406C80.0651 91.6577 81.1174 92.5255 81.8641 93.537C82.2599 94.0737 82.8728 94.9809 82.8953 95.6501C82.9052 95.9318 82.6502 95.7642 82.4896 95.8008C82.336 95.5796 81.7627 95.1655 81.5246 94.8894C80.3863 93.5694 79.1889 92.0648 77.4998 91.4126C75.691 90.7138 73.5891 90.3645 71.7732 89.639C71.4887 89.5136 70.4856 89.3967 70.5082 89.1079V89.1093Z" fill="#717171"/>
<path d="M61.8941 86.2509C61.9378 86.2298 61.9336 85.9466 62.3604 85.9734C62.9056 86.0086 63.8016 86.6524 64.2017 86.6778C64.4341 86.6919 64.5933 86.5115 64.8074 86.4791C65.6794 86.3481 67.2121 87.2032 68.1588 87.2779C68.7815 87.3258 69.5267 86.8792 69.962 87.5977C70.4353 88.3781 69.7056 88.5514 69.5619 88.9092C69.4802 89.1107 69.7592 89.5995 69.3224 89.8827L69.3182 90.0151C69.8395 90.1405 69.8592 90.8265 69.2647 90.8406C68.8787 90.8491 67.1135 90.0249 66.6402 89.8066C65.1976 89.1417 63.6311 88.2964 62.2491 87.5061C61.7645 87.2286 58.7864 85.4775 58.685 85.1901C58.6385 85.0577 58.6723 84.8929 58.6681 84.752C58.9555 84.4576 61.5039 86.4425 61.8913 86.2509H61.8941Z" fill="black"/>
<path d="M36.8758 93.369C37.1759 93.4309 37.0885 93.6916 36.9054 93.8775C33.1074 96.0977 29.4714 98.6348 26.8033 102.476C24.4056 105.831 22.0868 109.216 19.8469 112.632C19.8722 112.694 19.8892 112.748 19.8694 112.769C19.8455 112.796 19.6539 112.887 19.5919 112.914C19.3496 113.018 23.7167 111.125 24.3563 110.991C24.593 110.942 24.6916 110.939 24.7113 111.212C25.1818 111.398 24.631 111.99 24.3521 112.246C23.1011 113.265 21.7839 114.185 20.3991 115.007C19.0552 115.879 17.9592 117.096 17.1914 118.518C14.5247 123.46 11.9269 128.586 9.81944 133.721C9.27426 135.145 8.48959 136.272 7.17523 136.964C7.26539 137.234 6.95969 137.815 6.66808 137.775C6.09613 138.204 5.39598 138.788 4.84375 137.978C4.86065 137.95 4.84657 137.615 4.88883 137.468C5.78198 134.462 7.01181 131.64 8.28955 128.751L8.78261 127.951C10.3886 124.581 12.0495 121.304 13.7653 118.121L13.6625 117.902C13.9569 117.444 14.164 116.734 14.5937 116.147C15.0684 115.495 15.6672 115.092 16.0954 114.556C16.3757 114.247 16.7026 114.006 17.0745 113.835C16.9139 113.307 17.028 112.77 17.4126 112.225C17.4309 112.173 17.4844 112.107 17.514 112.022C17.9972 111.235 18.5368 110.492 19.1355 109.792L19.0566 109.57C19.1975 109.293 20.2864 107.493 20.4104 107.51C20.4597 107.516 20.5076 107.537 20.5555 107.562C20.7767 107.511 21.3078 106.589 21.5881 106.212C25.1987 101.341 28.9389 96.2752 34.7106 93.7888C35.2529 93.5549 36.3926 92.9435 36.8758 93.369Z" fill="#DD554B"/>
<path d="M97.4906 87.185C97.4568 86.8244 97.2539 86.6793 97.1581 86.3525C96.82 85.1959 96.6143 83.8196 95.9522 82.7926C95.3676 81.8854 94.983 81.9741 93.9434 82.0135C94.0969 81.5994 93.9335 81.3204 94.5801 81.0795C96.8609 80.2273 97.871 84.0266 97.9851 85.627C98.0161 86.0566 98.1612 87.2259 97.4906 87.185Z" fill="#E5E5E5"/>
<path d="M108.033 86.7791C108.04 86.5255 106.589 82.8558 106.354 82.5275C105.718 81.64 105.256 82.2007 104.383 82.0147C104.41 81.9485 104.359 81.7795 104.435 81.6146C104.611 81.2385 105.382 80.9399 105.777 80.9258C107.462 80.8638 108.389 83.7883 108.526 85.1196C108.574 85.5803 108.764 86.9946 108.031 86.7805L108.033 86.7791Z" fill="#E5E5E5"/>
<path d="M124.959 81.5069C125.391 81.3576 126.308 81.1378 126.749 81.1407C128.151 81.1505 129.041 83.1073 129.536 84.1821C129.605 84.3329 129.591 84.4977 129.823 84.447C129.957 85.388 129.929 86.3347 129.925 87.2856C129.916 87.2715 129.746 87.28 129.632 87.1264C129.422 86.8432 129.401 86.1642 129.113 85.8656L128.896 85.7684C128.413 84.1666 127.557 81.8831 125.496 82.324L125.363 82.1141C125.269 82.1085 125.169 82.1437 125.077 82.1C124.979 81.9155 124.953 81.7126 124.957 81.5055L124.959 81.5069Z" fill="#E5E5E5"/>
<path d="M114.621 82.3178C113.973 81.6895 115.227 80.9978 115.754 80.8667C116.527 80.6737 117.04 80.9809 117.626 81.4415L118.675 82.8249C118.68 82.8587 118.67 82.8939 118.675 82.9263C118.799 83.1489 118.901 83.3856 118.98 83.6363C119.307 84.9493 119.225 85.7818 119.284 87.0835C118.849 87.03 118.76 86.5285 118.473 86.2721L118.254 86.1467C117.868 84.8084 117.343 83.2602 116.336 82.2741C115.835 82.191 115.314 82.267 114.77 82.5009L114.621 82.3178Z" fill="#E5E5E5"/>
<path d="M142.497 107.969H91.207V110.909H142.497V107.969Z" fill="#D52B1E"/>
<path d="M71.8465 90.0229L71.9212 89.9849C72.5621 90.368 73.0777 90.9217 73.468 91.6458C73.5018 91.6796 73.5356 91.7134 73.5694 91.7472C73.7765 92.0106 73.9117 92.2811 73.9751 92.5586C74.0019 92.8094 73.9004 93.3081 73.9751 93.6744C73.9272 93.7152 73.9272 93.749 73.9751 93.7758C74.1892 94.6351 75.3655 96.4256 75.8107 97.2624C77.6252 100.672 79.3467 104.151 80.885 107.7C81.109 108.217 82.7685 112.046 82.5896 112.229L82.0839 112.026C80.916 108.849 78.4901 104.481 76.8306 101.414C75.4402 98.843 73.8751 96.0143 72.3339 93.5433C72.1902 93.3123 71.9282 92.8052 71.6436 92.7629C71.4126 92.1712 70.3279 91.1316 70.442 90.7047C70.4885 90.5286 70.6716 90.5047 70.7322 90.4314C70.8364 90.2948 70.9787 90.1779 71.1379 90.1271C71.3422 90.0778 71.6479 89.9736 71.8479 90.0257L71.8465 90.0229Z" fill="black"/>
<path d="M66.2716 8.40461C66.3618 8.38912 66.4773 8.41025 66.5759 8.40461C66.7422 8.39475 66.9169 8.39898 67.0831 8.40461C67.1845 8.40743 67.2859 8.40461 67.3874 8.40461C67.4648 8.32432 67.6776 8.37785 67.6917 8.50604C67.8255 8.51168 67.9635 8.49759 68.0974 8.50604C69.5343 8.692 70.9628 8.98924 72.2983 9.56401L76.9415 11.4348C77.281 11.1657 77.76 10.9206 77.8248 11.5264C82.3454 13.424 85.9377 16.3471 88.6355 20.3437C89.8611 22.161 90.426 23.7529 91.1078 25.742C91.2698 26.3745 91.3938 26.9225 91.5135 27.5663C91.3825 28.0594 91.4248 28.6116 91.6389 29.2258L91.6812 29.9119C91.6277 30.2176 91.7065 30.4838 91.9193 30.7092C91.9531 31.0769 91.977 31.4587 92.0207 31.825L91.8108 31.9447C91.2755 31.8179 90.7007 31.8785 90.0865 32.1236L89.9921 32.0278C89.8653 32.4843 88.8454 32.4307 88.8778 31.9264C88.5904 32.0475 88.4369 31.701 88.6749 31.5207C88.3904 31.3925 88.2255 31.115 88.1833 30.6867L87.4972 27.2015C86.7942 23.836 83.9613 21.5524 81.248 19.714L77.7839 17.4502C77.3711 17.2755 76.4104 16.5302 76.9894 16.133C77.4613 15.809 81.9862 18.0813 82.4314 18.3658C78.7841 14.9679 73.8606 12.1716 68.8919 11.2925C59.0532 9.55274 45.2306 13.6874 38.5644 21.265C35.4342 24.8221 35.02 28.8736 34.7989 33.4563C34.8566 34.6241 34.5692 35.5004 33.9381 36.0836L33.8057 36.3062C33.1253 36.3484 32.473 36.5147 31.8489 36.8049C31.3404 36.9584 30.8318 37.0514 30.5938 36.4893C30.6895 36.0456 30.6585 35.4257 30.6952 34.9679C30.7797 34.8594 30.8248 34.8016 30.7966 34.6636C30.8022 34.572 30.8093 34.4438 30.7966 34.3593C30.7234 34.2395 30.767 34.1818 30.898 34.1564C30.9051 34.0902 30.8882 34.0184 30.898 33.9536L31.0178 33.7155C31.3319 33.5704 31.6545 33.3718 31.7123 32.9984C30.8163 32.7702 31.1558 31.708 31.4052 31.1135C32.1476 24.8348 35.9484 20.007 40.9325 16.4119C41.1805 16.5119 41.2495 16.3429 41.3523 16.2936C43.5289 15.2553 45.5828 13.9438 47.7565 12.9464C53.6789 10.2318 60.3521 8.89345 66.8802 9.1104L65.9688 8.80611L66.0152 8.49759C66.0843 8.41166 66.1773 8.4187 66.2731 8.40321L66.2716 8.40461Z" fill="#835840"/>
<path d="M93.1342 151.971C93.3935 153.879 93.4794 156.224 93.64 158.208C94.126 164.203 94.3711 170.155 94.6585 176.15C94.6825 176.66 94.7247 177.699 94.6317 178.158C94.5388 178.618 94.1204 178.79 94.0006 179.047C93.8781 179.309 93.864 179.757 93.6414 180.057C93.5653 180.081 93.4287 180.042 93.3371 180.057C93.3146 180.187 93.2483 180.231 93.1342 180.159C93.0131 180.148 92.8159 180.187 92.7285 180.159C92.4242 180.059 92.2735 179.811 92.0185 179.652L91.8227 179.47C91.9692 176.872 92.0213 174.248 91.9805 171.594C91.6987 166.439 91.4226 161.3 91.1536 156.178C91.1282 155.31 91.0733 152.719 91.7509 152.004C92.1707 151.559 92.9046 151.333 93.1328 151.971H93.1342Z" fill="#DD554B"/>
<path d="M32.0043 144.209L31.7353 144.665C32.3213 144.257 32.9623 143.882 33.6343 143.566C34.2541 142.801 34.9035 142.06 35.6572 141.374C36.2813 140.807 37.1012 140.325 37.6858 139.803C37.9084 139.605 38.1859 139.115 37.6816 139.239C37.4083 139.306 36.5278 139.926 36.2348 140.126C36.0164 140.275 35.0655 141.087 34.9796 141.109C34.7472 141.17 34.6063 140.895 34.3414 140.96C33.9371 141.059 33.5694 141.571 33.3271 141.677C33.113 141.771 32.8933 141.691 32.6904 141.75C32.3579 141.848 31.1098 143.537 31.5282 143.937C31.6803 144.082 32.0748 143.965 32.0057 144.207L32.0043 144.209Z" fill="black"/>
<path d="M37.689 66.8029C37.1142 65.5139 37.5665 64.315 38.0849 63.1021C37.6721 62.5189 35.8858 63.2838 35.7773 62.6837C36.0366 61.8554 37.4002 61.7624 38.1328 61.8469C39.4683 62.0019 41.6645 63.4783 41.7462 64.9321C41.7645 65.2561 41.6955 65.6322 41.2912 65.5928C40.8869 65.5533 39.8613 63.6459 39.164 63.5614C38.5427 64.0657 38.53 66.4437 37.9947 66.7578C37.8975 66.8142 37.7961 66.817 37.689 66.8029Z" fill="black"/>
<path d="M63.0307 70.2534C63.1829 71.2184 63.4252 72.2059 63.9422 73.0484C66.3793 72.7427 69.3053 73.8429 70.7774 75.8363C71.4902 76.7998 71.162 77.2422 72.6637 76.4927C74.1767 75.7377 75.6235 73.733 75.6953 72.0129C75.6996 71.8974 75.7207 71.7932 75.5995 71.7227L75.0515 71.5931C73.5709 73.5809 70.4872 73.0695 68.3797 72.5553C66.4835 72.0932 64.6874 71.2607 63.0293 70.2534H63.0307Z" fill="black"/>
<path d="M64.244 67.8192L76.6142 70.8072C76.9086 72.3455 76.3916 74.2839 75.5182 75.5983C71.5497 81.5798 62.8493 77.1479 61.9252 70.8987C61.8195 70.1803 61.9801 69.2871 61.9139 68.7898C61.866 68.4264 61.4364 68.4377 61.766 67.9263C62.2098 67.2374 63.5861 66.8176 64.3017 67.2064L64.244 67.8178V67.8192ZM73.8742 71.3692C70.1959 70.7001 66.4754 69.8872 63.0296 68.4292C63.0296 68.9039 62.6958 69.2998 63.1945 69.6309C63.7495 69.9985 65.3513 70.5804 66.0444 70.8353C67.9715 71.5468 71.4145 72.6301 73.3656 71.8229C73.5628 71.7412 73.9066 71.6341 73.8728 71.3692H73.8742ZM63.0296 70.2535C63.1818 71.2185 63.4241 72.206 63.9411 73.0485C66.3782 72.7428 69.3042 73.843 70.7763 75.8364C71.4892 76.8 71.1609 77.2423 72.6627 76.4928C74.1756 75.7378 75.6224 73.7331 75.6943 72.013C75.6985 71.8975 75.7196 71.7933 75.5985 71.7228L75.0505 71.5932C73.5699 73.581 70.4861 73.0696 68.3786 72.5554C66.4825 72.0933 64.6863 71.2608 63.0282 70.2535H63.0296ZM70.2255 77.0451C69.2662 75.0348 66.6234 74.1797 64.5497 74.005C65.7894 75.8336 67.9574 77.155 70.2255 77.0451Z" fill="black"/>
<path d="M65.3286 51.4633C64.6298 52.11 63.5113 51.1619 62.7773 50.8844C61.4376 50.3772 59.8485 50.1645 58.4187 50.28C57.7129 50.3363 56.4366 50.8167 55.8871 50.7815C55.1391 50.7322 55.1307 49.9588 55.573 49.4629C57.3959 47.4231 62.6815 47.4527 64.7538 49.1107C65.4046 49.632 66.0949 50.7547 65.3286 51.4648V51.4633Z" fill="black"/>
<path d="M81.251 50.8133C82.6964 50.7978 85.1927 51.4021 85.852 52.8475C86.3578 53.9562 85.659 54.7437 84.5165 54.2844C83.2134 53.7604 82.8401 53.2997 81.2271 53.2152C80.4988 53.1771 78.7914 53.4871 78.2941 53.2081C78.025 53.056 77.918 52.7559 77.918 52.4587C77.918 51.2035 80.3086 50.8231 81.2496 50.8133H81.251Z" fill="black"/>
<path d="M59.8657 53.2413C62.3367 53.1159 63.2678 56.3786 63.134 58.3438C62.9889 60.4822 61.2872 63.466 58.7655 62.2981C55.4845 60.7795 56.2354 53.4258 59.8657 53.2413Z" fill="black"/>
<path d="M59.4528 54.155C58.4597 54.3592 57.5722 56.2047 57.4637 57.1331C57.289 58.6277 57.7497 61.6171 59.7346 61.5396C61.4392 61.472 62.2661 58.8475 62.221 57.4247C62.1731 55.9018 61.318 53.7704 59.4514 54.155H59.4528Z" fill="black"/>
<path d="M80.7329 55.8949C84.6901 55.8329 84.2379 64.7995 80.3103 64.7558C76.4813 64.7136 76.9025 55.954 80.7329 55.8949Z" fill="black"/>
<path d="M80.4352 56.69C78.3658 57.1154 77.7473 62.3277 79.5576 63.6041C81.1805 64.7494 82.4807 61.9925 82.5948 60.6739C82.7132 59.3159 82.4624 56.273 80.4352 56.6886V56.69Z" fill="black"/>
<path d="M74.5549 60.3304C74.8846 60.2375 75.0916 60.5587 75.2903 60.7756C76.2679 61.8406 77.8162 64.2989 78.5797 65.5963C78.7882 65.9513 79.4982 66.8811 78.9431 67.16C78.6558 67.3037 78.4881 67.2023 78.2796 67.0107C77.6288 66.4134 76.3017 64.2045 75.7594 63.348C75.4326 62.8338 74.476 61.4941 74.3267 61.0292C74.2309 60.7319 74.2492 60.4671 74.5563 60.329L74.5549 60.3304Z" fill="black"/>
<path d="M70.7048 80.7703C70.3075 81.2 69.1284 81.0971 68.6071 80.9464C68.1606 80.8168 66.9505 80.197 67.0984 79.6532C67.2407 79.1334 67.6703 79.6546 67.9662 79.7617C68.262 79.8687 68.7861 80.0237 69.0861 80.0617C69.42 80.104 71.4711 79.9434 70.7048 80.7703Z" fill="black"/>
<path d="M90.4668 106.775L142.652 106.748C143.088 106.759 143.492 106.964 143.633 107.389L143.715 141.382C143.623 142.371 143.282 142.3 142.451 142.341C136.572 142.63 130.275 142.331 124.406 142.337C114.73 142.346 105.076 142.437 95.4172 142.337C93.9605 142.322 92.0277 142.506 90.6471 142.343C90.3584 142.309 90.1428 142.234 90.0343 141.941L89.985 107.509C89.9738 107.162 90.1076 106.858 90.4682 106.775H90.4668ZM142.495 107.969H91.205V110.909H142.495V107.969ZM97.3894 112.127H91.2064V118.108H97.3894V112.127ZM104.991 118.108V112.279C104.991 112.024 104.395 112.228 104.234 112.232C102.403 112.282 100.593 112.132 98.7728 112.142L98.6052 112.279V118.108H104.991ZM112.29 112.127L106.35 112.132L106.107 112.279V118.108H112.29V112.127ZM119.688 112.127H113.505V118.108H119.688V112.127ZM127.089 112.228C125.415 112.231 123.746 112.067 122.068 112.122C121.721 112.134 121.448 112.293 121.07 112.134L120.906 112.279V118.108H127.089V112.228ZM134.386 112.127L128.455 112.122L128.203 112.279V118.108H134.386V112.127ZM142.495 118.108V112.279L142.342 112.127H135.602V118.108H142.495ZM97.3894 119.325H91.2064V125.51L97.3894 125.408V119.325ZM104.991 119.325H98.6052V125.408H104.991V119.325ZM112.29 119.325H106.259L106.107 119.477V125.408H112.29V119.325ZM119.688 125.256C119.48 123.733 119.688 121.22 119.688 119.579C119.688 119.554 119.772 119.518 119.767 119.477L119.638 119.325H113.505V125.408C115.599 125.644 117.685 125.298 119.79 125.408C119.841 125.372 119.693 125.286 119.688 125.258V125.256ZM127.089 119.325H120.906V125.408H127.089V119.325ZM134.386 119.325H128.355L128.203 119.477V125.408H134.386V119.325ZM142.495 119.325H135.602V125.408L142.393 125.51L142.495 119.324V119.325ZM97.3894 126.727L91.2064 126.625V132.708H97.3894V126.727ZM104.991 126.727H98.6052V132.708H104.991V126.727ZM112.29 126.727H106.107V132.556C106.195 132.701 106.308 132.696 106.456 132.714C107.513 132.838 109.102 132.717 110.208 132.714C110.902 132.713 111.597 132.707 112.29 132.71V126.728V126.727ZM113.505 126.727V132.708H119.538L119.748 132.608C119.808 132.536 119.688 132.48 119.688 132.455V126.879C119.688 126.858 119.841 126.765 119.79 126.728C117.685 126.837 115.6 126.486 113.505 126.728V126.727ZM127.089 126.727H120.906V132.708H127.089V126.727ZM134.386 126.727H128.203V132.556L128.552 132.714L134.386 132.708V126.727ZM135.603 126.727V132.708H142.395V126.624L135.603 126.725V126.727ZM97.3894 133.926H91.2064V141.124H97.3894V133.926ZM104.991 133.926H98.6052V141.124H104.991V133.926ZM112.29 133.926H106.107V141.124H112.29V133.926ZM119.79 133.926H113.505V141.124H119.688V134.179C119.688 134.148 119.828 134.035 119.79 133.926ZM127.089 133.926H120.906V141.124H127.089V133.926ZM134.386 133.926H128.203V141.124H134.386V133.926ZM142.393 133.926H135.602V141.124H142.495L142.393 133.926Z" fill="black"/>
<path d="M119.385 95.9531C119.511 95.5009 120.464 95.3629 120.595 96.1616C120.414 99.0016 120.857 102.181 120.607 104.982C120.532 105.813 119.907 105.999 119.399 105.369L116.751 99.3496V105.28C116.751 105.561 115.694 106.016 115.541 105.072C115.718 102.295 115.286 99.1918 115.53 96.4546C115.61 95.5545 116.317 95.391 116.772 96.1349L119.387 102.087V95.9531H119.385Z" fill="black"/>
<path d="M123.015 95.427C127.166 95.1889 127.559 104.194 124.119 105.556C123.694 105.725 122.503 105.774 122.12 105.588C121.892 105.477 121.835 105.012 121.814 104.78C121.634 102.826 121.614 98.4009 121.831 96.4751C121.931 95.5848 122.138 95.4777 123.015 95.427ZM123.034 96.6132V104.37C123.034 104.667 123.733 104.46 123.919 104.342C125.154 103.557 125.362 100.624 125.138 99.325C124.963 98.3107 124.32 96.4554 123.034 96.6132Z" fill="black"/>
<path d="M133.576 105.486C133.457 105.899 132.542 106.054 132.454 105.188C132.166 102.294 132.674 98.9076 132.47 95.9605C132.783 95.0434 134.26 95.2139 134.944 95.7013C136.861 97.0734 136.764 100.095 135.423 101.817L136.52 104.982C136.588 105.536 136.11 105.82 135.647 105.543C135.183 105.265 134.718 103.065 134.435 102.49L133.576 102.496V105.486ZM133.576 101.279C134.648 101.445 135.154 100.078 135.201 99.2049C135.261 98.1314 134.903 96.5184 133.576 96.5128V101.279Z" fill="black"/>
<path d="M131.423 105.609C130.275 106.646 130.206 102.951 129.963 102.894L128.3 102.942C128.116 103.075 128.006 105.261 127.706 105.668C127.583 105.833 127.245 105.877 127.062 105.823C126.758 105.664 126.638 105.315 126.696 104.993C127.43 102.355 127.441 98.9555 128.255 96.4071C128.595 95.3449 129.836 95.3914 130.188 96.5086C130.975 99.0133 130.912 102.413 131.631 105.008C131.65 105.16 131.519 105.523 131.425 105.609H131.423ZM129.829 101.784C129.654 100.636 129.533 99.4542 129.289 98.3188C129.264 98.2019 129.277 97.9159 129.12 97.9314L128.51 101.784H129.829Z" fill="black"/>
<path d="M100.951 102.913C100.831 102.991 100.616 104.816 100.504 105.154C100.239 105.964 99.3181 105.731 99.3223 104.992L100.904 96.3286C101.249 95.3368 102.543 95.6242 102.836 96.4892L104.249 104.966C104.201 105.418 103.756 105.809 103.332 105.526C102.889 105.232 102.884 103.541 102.717 102.996L100.951 102.914V102.913ZM102.458 101.785C102.267 100.658 102.193 99.3053 101.921 98.2135C101.896 98.1107 101.893 97.9078 101.75 97.9317L101.14 101.783H102.458V101.785Z" fill="black"/>
<path d="M96.045 95.8261C97.5918 95.5078 98.6724 96.7503 98.809 98.1872C98.8555 98.6831 98.8851 99.8594 98.0722 99.641C97.1974 99.4072 98.1244 96.7348 96.3324 97.0264C95.776 97.1166 95.1801 98.097 95.0829 98.6155C94.9575 99.2917 94.9702 102.026 95.0674 102.74C95.1716 103.501 95.9957 104.763 96.8875 104.479C98.0567 104.104 97.065 101.503 98.4315 101.909C99.264 102.156 98.6428 104.221 98.285 104.762C97.2284 106.356 95.159 105.758 94.3644 104.256C93.6882 102.976 93.7262 99.0085 94.1996 97.6336C94.4165 97.001 95.3773 95.9656 96.0436 95.829L96.045 95.8261Z" fill="black"/>
<path d="M111.073 97.0191V100.872H113.049C113.539 100.872 113.539 101.988 113.049 101.988H111.073V104.522H114.063C114.304 104.522 114.738 105.491 113.855 105.631C113.289 105.721 110.988 105.719 110.422 105.631C110.054 105.573 109.872 105.348 109.855 104.98L109.91 96.209C110.072 95.9667 110.347 95.8512 110.627 95.8104C111.106 95.7427 113.103 95.7258 113.537 95.823C114.313 95.9963 114.206 97.0177 113.558 97.0177H111.074L111.073 97.0191Z" fill="black"/>
<path d="M106.21 104.42H108.592C108.799 104.42 109.129 105.1 108.847 105.386C108.588 105.648 106.752 105.524 106.256 105.531C105.71 105.538 105.266 105.853 105.038 105.035L105.004 96.3703C105.153 95.3278 106.211 95.6983 106.211 96.1575V104.421L106.21 104.42Z" fill="black"/>
<path d="M70.2247 77.0445C69.2653 75.0342 66.6225 74.1791 64.5488 74.0044C65.7885 75.8329 67.9566 77.1543 70.2247 77.0445Z" fill="#DD554B"/>
<path d="M65.8668 8C73.0838 8.55927 80.3388 11.1274 85.7357 16.0594C90.1339 20.0786 92.0117 26.2094 92.1357 32.0641C93.3401 32.7685 94.408 33.6278 94.8884 34.9887L95.2842 39.9165C99.1371 42.2888 102.665 46.1389 103.625 50.6835C105.357 58.8767 97.8467 64.0553 91.4468 67.0953C91.0143 67.301 88.6166 68.2237 88.5208 68.4266C88.0193 71.5188 88.0869 74.9336 86.898 77.8553C84.6059 83.4861 79.1372 86.6487 73.3021 87.4742C72.5907 87.5742 71.3933 87.5207 70.7974 87.7067C70.5833 87.7729 70.6269 88.0124 70.6312 88.1983C72.223 87.377 74.0939 88.08 75.6984 88.5533C77.1621 88.9858 78.9597 89.5056 80.1106 90.527C80.4276 90.8087 80.8742 91.4624 81.1348 91.6328C81.4362 91.8301 82.0631 91.9892 82.4252 92.1667C83.131 92.5119 83.8494 92.8556 84.5172 93.2684V87.8447C84.5172 87.8194 84.8468 87.4897 84.8722 87.4897H91.613C91.5919 86.2345 91.7455 84.9681 92.0934 83.7622C92.5259 82.2605 93.5754 80.1065 95.4181 80.184C98.1567 80.2995 98.9512 85.4132 98.506 87.4897H102.053C101.905 85.4273 102.759 81.1137 104.964 80.3122C108.266 79.1119 109.497 85.3259 108.946 87.4897H112.493C112.309 85.3118 113.349 80.1276 116.194 80.1826C119.04 80.2375 119.713 85.3696 119.385 87.4897H123.135C122.977 85.4203 123.79 81.18 125.975 80.3432C127.984 79.5754 129.191 81.5913 129.673 83.2311C129.762 83.534 130.028 84.4553 130.028 84.7004V87.4883H133.575C133.361 85.2963 134.39 80.1248 137.276 80.1812C138.605 80.2065 139.51 81.5702 139.936 82.6958C140.115 83.1677 140.467 84.444 140.467 84.9019V87.4869H148.221C148.486 87.4869 149.952 88.1081 150.29 88.2561C150.628 88.404 151.728 88.8661 151.844 89.1351L151.94 98.8738C152.513 99.4034 153.279 99.75 153.894 100.266C155.236 101.391 156.201 102.682 155.949 104.545C155.893 104.955 155.457 105.712 155.467 105.881C155.479 106.085 155.732 106.416 155.804 106.671C156.083 107.662 156.048 108.98 155.803 109.975C155.705 110.368 155.204 111.296 155.188 111.483C155.178 111.605 155.505 112.384 155.543 112.712C155.712 114.19 155.152 115.542 154.354 116.745C154.912 118.133 155.209 119.475 155.052 120.985C154.833 123.083 152.874 124.879 151.927 126.681L151.875 145.386C151.797 145.526 151.733 145.737 151.623 145.844C151.065 146.382 148.161 146.42 147.315 146.605L93.9431 146.601C94.0304 148.036 94.0037 149.476 94.0403 150.914C94.2516 159.099 94.7165 167.27 95.0546 175.45C95.0954 176.432 95.5674 178.733 94.9067 179.451C94.246 180.169 93.2965 180.174 92.5386 180.625C92.771 184.335 92.4118 188.05 92.4188 191.775C92.4301 197.645 92.5935 203.536 92.6217 209.415C92.6245 209.956 92.8541 210.448 92.3681 210.977C91.9525 211.429 89.6182 211.715 88.9265 211.793C87.7911 211.921 86.6232 211.948 85.4808 211.996L85.2413 212.162C85.1821 212.865 85.268 213.578 85.2314 214.281C84.8468 221.781 84.3847 229.291 83.91 236.785L83.6987 242.364C87.4389 246.371 91.7652 249.782 95.7688 253.513C96.6704 254.676 97.6847 257.732 97.4678 259.166C97.3762 259.775 96.8648 260.01 96.345 260.273C92.1004 262.42 83.4662 261.462 78.823 260.628C74.6827 259.886 69.807 258.603 66.002 256.825C65.2173 256.459 64.4524 256.295 64.3467 255.337C64.0946 253.052 64.7708 248.122 65.2061 245.753C65.3906 244.748 65.6907 242.826 66.5261 242.208C66.8134 241.995 67.3333 241.934 67.3882 241.651L66.7796 211.486C66.2979 211.417 64.0692 211.269 63.8396 211.031C63.7847 210.973 63.7551 210.904 63.7396 210.827C63.3155 207.379 63.2493 203.903 63.1817 200.433L59.5922 211.241C59.3119 211.475 58.2286 211.398 57.8045 211.387C56.8874 211.363 55.7999 211.258 54.8701 211.18C54.0798 211.114 53.2796 210.956 52.4907 210.879L44.9906 241.86C44.9976 242.072 45.7936 242.44 45.9992 242.663C47.308 244.077 46.9882 247.24 46.9107 249.049C46.8149 251.284 46.6036 253.516 46.4064 255.743C46.3627 256.235 46.5275 257.119 46.2458 257.508C46.1063 257.7 44.5708 258.57 44.2439 258.749C37.6707 262.357 25.1709 265.194 17.9455 262.918C16.8945 262.587 14.8195 261.63 14.68 260.404C14.1503 255.751 17.575 252.899 20.1516 249.654C22.4929 246.706 24.9159 242.93 27.3545 240.231C27.6996 239.848 28.5322 239.338 28.6195 238.965C29.8184 228.306 32.1132 217.838 33.9488 207.291C32.0118 206.537 29.7493 206.206 27.8602 205.349C27.5404 205.204 27.3122 205.103 27.2601 204.738C27.184 204.214 27.3122 203.101 27.3531 202.514C27.656 198.179 28.1448 193.658 28.6829 189.345C29.1464 185.621 29.7846 181.933 30.3903 178.234C29.5437 178.059 27.1108 177.424 26.6431 176.76C26.1824 176.105 26.5459 174.785 26.6036 174.018L26.5008 173.87C23.4241 172.7 19.9628 171.444 17.2876 169.493C15.073 167.878 14.1489 165.307 13.5178 162.719C13.3501 162.029 13.1895 160.354 12.9388 159.851C12.8655 159.703 12.1964 159.2 11.9963 158.968C9.09714 155.6 9.90857 151.418 9.89871 147.278C9.59442 147.01 9.33521 146.3 9.06191 146.088C8.83088 145.907 8.32796 145.845 8.02649 145.703C2.85076 143.266 3.56218 140.544 5.23013 135.67C6.83047 130.995 9.45074 125.774 11.6582 121.315C12.5951 119.422 13.7544 116.71 15.1392 115.166C15.4309 114.84 16.0662 114.405 16.2536 114.152C18.1807 111.554 19.4613 104.971 20.8179 101.583C23.7791 94.1883 26.5346 90.4213 33.3036 86.1894C33.6417 85.9781 34.5025 85.6274 34.7236 85.4287C35.0815 85.1075 36.0084 83.2353 36.5818 82.5732C39.0879 79.6768 42.6366 79.7501 46.1063 78.8696L44.158 76.3085L41.4293 71.9921C38.2511 72.4105 35.3097 71.5597 33.1825 69.138C32.9402 68.8619 32.6373 68.2364 32.4217 68.0744C32.1428 67.8645 31.299 67.5814 30.9003 67.3658C27.4432 65.4837 24.4116 63.4453 22.4084 59.9432C18.4991 53.1122 22.5817 46.8292 28.149 42.7185C28.0518 41.7352 27.8067 40.5011 28.0081 39.5277C28.2152 38.5218 29.5141 37.5033 30.3298 36.9764C30.9947 31.8345 31.5427 26.5898 34.7124 22.3058C38.6118 17.0371 44.1932 13.7688 50.2382 11.474C54.4362 9.88067 58.9907 8.35923 63.4987 8.10566L63.7452 8.00141H65.8738L65.8668 8ZM90.9016 31.6232C90.8523 28.3662 90.0507 24.9007 88.6575 21.955C85.2751 14.8 75.5139 10.2061 67.9419 9.42001C62.9267 8.90019 59.3063 9.67358 54.6151 11.1936C47.3728 13.5406 40.3952 16.6581 35.7196 22.9115C32.7824 26.8405 32.2034 31.6429 31.6061 36.3876C32.1456 36.2918 32.6443 36.0847 33.1895 35.9945C33.5234 35.9396 33.9742 36.065 34.2728 35.8875C34.4334 35.7917 34.9589 35.0056 35.1547 34.8182C36.8044 33.239 39.2809 32.1064 41.5856 32.0261C41.904 32.0148 42.6352 32.1571 42.7845 32.1177C42.9521 32.0726 45.0187 30.244 45.4794 29.9384C47.0149 28.9184 48.6632 28.4042 50.5058 28.2746C51.0933 28.2338 51.9906 28.3859 52.5119 28.2535C52.719 28.2014 53.1528 27.8421 53.3966 27.7182C57.5819 25.598 61.2475 25.3867 65.5118 27.5618C69.4746 25.5938 73.5501 26.1221 76.9099 28.9452C80.8361 28.0732 84.1424 28.0394 87.4474 30.5681C87.6826 30.7484 88.1461 31.3429 88.3377 31.4006C88.9251 31.5753 90.1986 31.34 90.9016 31.6246V31.6232ZM65.1314 28.7085C65.0624 28.6339 63.4959 27.9844 63.2564 27.8985C59.8641 26.6729 56.6747 27.0547 53.6515 28.9874C53.3797 30.7935 53.9558 32.5614 53.9065 34.3618L60.1402 33.7546L65.4611 33.6532C65.1666 32.7375 65.64 29.2607 65.1314 28.7099V28.7085ZM76.5085 34.4632C76.4831 33.5321 76.4972 32.498 76.407 31.5739C76.3535 31.0217 76.2746 29.9102 75.9041 29.5411C75.273 28.9142 73.057 27.9069 72.1709 27.6984C70.1127 27.2138 68.4279 27.7689 66.4838 28.3887L66.5754 33.6504C69.8944 33.8194 73.219 33.9786 76.507 34.4632H76.5085ZM52.2836 29.4946C50.079 29.3932 48.0546 29.6369 46.1697 30.8329C45.7724 31.0851 44.0411 32.3755 43.865 32.684C43.4748 33.3644 44.1453 35.3437 44.0749 36.1875L52.7908 34.4632L52.2836 29.4946ZM87.5572 36.8961C87.5107 36.458 87.6699 36.0636 87.6671 35.6283C87.6615 34.8182 87.5699 33.2841 87.4502 32.4924C87.329 31.6894 85.7245 30.7991 85.0229 30.4596C83.7903 29.8623 82.4984 29.5453 81.1249 29.4932L77.6679 29.9947L77.7298 34.6619C81.0573 35.1535 84.3509 35.8931 87.5558 36.8961H87.5572ZM94.146 39.329C93.8374 37.9217 94.1755 36.0481 93.4909 34.7633C92.6907 33.2616 90.3128 32.3712 88.673 32.5361L88.7857 37.292L94.1474 39.329H94.146ZM42.6549 33.1446H41.1856C39.6542 33.1446 36.4818 34.807 35.6055 36.0791C35.1322 36.7651 35.4125 38.1302 35.4604 38.9233L42.8634 36.4383L42.6563 33.1446H42.6549ZM99.9232 45.7163L98.9075 44.3498C96.5239 41.6985 93.6134 40.2658 90.3198 39.0501C74.5869 33.2404 53.6036 33.6138 37.8651 39.253C34.1235 40.5941 30.3819 42.2508 27.3474 44.8527C25.5231 46.4178 23.7889 48.4309 22.8902 50.6835C26.1993 45.8543 31.5906 42.9227 36.9537 40.8744C50.7256 35.6142 69.19 34.8196 83.5057 38.1612C89.4027 39.5375 95.2899 41.7436 99.9246 45.7163H99.9232ZM34.139 36.9976C32.7288 37.1272 31.2243 37.5808 30.1339 38.5162C28.8787 39.5925 29.0563 40.3053 29.2225 41.8662L34.2249 39.415L34.1404 36.9976H34.139ZM88.6744 67.008C93.5839 64.9653 100.816 61.2082 102.305 55.6521C104.428 47.7322 94.3502 42.7734 88.3222 40.7448C72.9626 35.5761 50.7256 36.3608 35.7647 42.6269C31.6145 44.3653 26.5247 47.225 24.0622 51.0977C19.6261 58.0752 25.9598 63.6355 31.8075 66.5009C31.1482 63.6918 32.4527 60.9617 34.7405 59.3374C34.3306 57.6793 32.9106 55.5873 33.0275 53.8799C33.453 47.6322 42.0223 43.3848 47.2164 41.814C57.4242 38.7275 76.1802 38.1457 85.6343 43.5355C91.9582 47.1405 89.1224 52.2909 89.3816 58.34L88.6744 67.0094V67.008ZM55.6294 83.3325C55.8985 83.0761 60.5093 84.8638 61.2278 85.0822C71.5243 88.2265 84.5073 86.405 86.7205 74.0264C87.4051 70.1932 87.6699 65.6049 87.963 61.683C88.2306 58.1047 88.7533 53.4263 88.5715 49.9242C88.4025 46.6784 87.0163 45.4782 84.2326 44.1244C76.1689 40.2053 63.7325 40.2349 54.9856 41.3703C53.3768 41.5788 50.334 42.0028 48.8928 42.5762C48.38 42.7804 48.0166 43.9596 47.8757 44.4991C47.0431 47.6758 47.7179 52.8051 47.8222 56.2142C47.8926 58.526 48.5716 63.0213 46.5571 64.5723C44.3045 66.3064 43.6692 63.1382 42.8775 61.6675C39.5077 55.4056 29.7818 62.0196 33.7544 67.9547C36.2831 71.7315 41.1334 71.3793 44.6877 69.3958C45.2991 69.0549 46.1302 68.3153 46.7388 68.1012C46.8656 68.0561 46.9628 67.9533 47.0685 68.1209C47.3981 68.6436 46.2697 69.3226 45.9922 69.6945L45.9429 69.8551C47.6489 74.3391 49.7704 78.64 51.7568 83.0015C52.2118 85.4809 51.2341 88.7195 51.8554 90.9129C53.2233 95.7492 59.0386 100.252 64.0072 100.657C70.1691 101.16 72.8246 96.6691 69.9747 91.3426L68.8181 95.0335L68.5054 95.0941C68.2687 92.5499 69.0787 90.155 69.5183 87.6926C65.4949 87.5024 60.7023 86.6825 57.1495 84.7032C56.948 84.5919 55.3308 83.6199 55.6322 83.3325H55.6294ZM47.215 43.0819C43.3113 44.3033 39.0626 46.246 36.3719 49.4213C35.2984 50.6891 33.8432 53.2967 34.27 54.9661C34.394 55.4479 35.5928 58.4823 35.8605 58.6527C36.2747 58.5894 36.7043 58.3485 37.1579 58.2174C39.1936 57.6272 40.963 57.9174 42.5999 59.3064C43.896 60.4066 44.0946 62.3408 45.0004 63.596C45.3977 64.1454 46.0288 63.6242 46.2866 63.1917C46.9177 62.1366 46.7501 58.1118 46.7107 56.7129C46.6064 52.9403 45.9274 49.0733 46.5529 45.3091C46.6797 44.5428 46.898 43.7891 47.2136 43.0819H47.215ZM45.0864 70.4566L42.452 71.7231C43.8918 73.5206 44.8807 75.669 46.4078 77.3989C46.6473 77.6694 48.2194 79.2782 48.5336 78.9725L45.0864 70.4566ZM49.5465 81.1011C49.4352 80.8996 49.383 80.639 49.1731 80.5136C49.0661 80.4488 47.2911 79.8233 47.1854 79.8205C46.512 79.8036 45.2949 80.1882 44.5792 80.3418C41.0799 81.0926 38.6752 81.3138 36.5916 84.5187C36.4113 84.7962 35.4393 86.5402 35.4717 86.7163C35.5196 86.9713 36.0676 87.0586 36.2873 87.1178C37.2129 87.3657 38.199 87.4094 39.1401 87.5827C39.9149 86.3796 40.4347 84.9427 41.3546 83.8073C42.9888 81.7899 47.1516 81.611 49.5479 81.1025L49.5465 81.1011ZM97.3903 87.4897V85.209C97.3903 84.4482 96.886 82.8324 96.4591 82.1858C94.8602 79.7599 93.3937 83.1945 93.0781 84.6483C92.5808 86.9361 92.6358 90.5213 94.7447 92.0075C95.9886 91.5173 94.5911 90.6566 94.3009 89.9226C93.7585 88.5547 93.6092 84.6117 94.4686 83.403C94.7503 83.0071 95.1433 82.8056 95.604 83.0437C96.662 83.5931 96.7662 86.4205 96.7831 87.4925H97.3917L97.3903 87.4897ZM107.715 87.4756C108.145 86.1979 107.552 81.6646 105.95 81.4124C105.316 81.3124 104.961 81.5998 104.588 82.0661C103.015 84.0312 102.78 89.1549 104.283 91.1905C104.478 91.4525 105.167 92.2386 105.496 91.8991C106.063 91.3144 105.43 91.0088 105.154 90.6242C104.195 89.2887 104.147 86.4148 104.413 84.8314C104.528 84.144 104.874 82.7704 105.831 82.9437C107.061 83.1663 107.182 86.5191 107.223 87.4911L107.716 87.4756H107.715ZM117.561 85.7147C117.611 86.2838 117.524 86.9135 117.561 87.4897L118.158 87.4785C118.376 86.3655 118.271 85.0498 118.017 83.9411C117.69 82.5126 116.544 80.2037 115.029 82.0675C113.442 84.0228 113.229 88.9224 114.601 91.0073C114.785 91.2863 115.539 92.1893 115.869 91.9597C116.473 91.1017 115.873 91.0707 115.488 90.5242C114.559 89.1999 114.573 85.7753 114.974 84.244C115.169 83.5016 115.645 82.5746 116.538 83.0874C117.154 83.441 117.5 85.0385 117.559 85.7147H117.561ZM128.204 85.7147C128.256 86.2824 128.166 86.9135 128.204 87.4897L128.807 87.4841C129.059 85.9401 128.822 83.1156 127.749 81.9125C126.405 80.4052 125.245 82.4675 124.83 83.6593C124.147 85.6189 124.097 88.8322 125.044 90.7016C125.212 91.0313 126.23 92.4118 126.589 91.8822C127.077 91.1651 126.526 91.0313 126.179 90.5805C125.182 89.2802 125.164 85.5921 125.64 84.0636C126.07 82.6873 127.213 82.5295 127.777 83.9129C127.94 84.3144 128.164 85.2893 128.204 85.7161V85.7147ZM138.644 85.8161C138.695 86.35 138.607 86.9473 138.644 87.4897H139.251C139.423 86.3895 139.343 85.2118 139.12 84.1228C138.803 82.569 137.628 80.1037 136.008 82.1661C134.731 83.7946 134.546 87.0671 134.924 89.0309C135.146 90.1846 135.659 91.4877 136.77 92.0259C137.786 91.2341 136.596 90.7834 136.262 90.024C135.66 88.6519 135.497 84.6736 136.37 83.441C136.738 82.9226 137.203 82.7521 137.728 83.1846C138.219 83.5875 138.585 85.1935 138.645 85.8161H138.644ZM50.5593 83.2311L50.1564 82.3675C49.6056 82.0337 45.0624 83.117 44.196 83.4058L43.4635 83.7368C44.8624 83.5678 46.2613 83.3213 47.67 83.2325C48.242 83.1959 48.8238 83.2536 49.3957 83.2353C49.8 83.2226 50.1226 83.0254 50.5565 83.2311H50.5593ZM50.5565 88.8041C50.6242 87.3207 50.8439 85.8189 50.7185 84.3398L50.51 84.244C48.3054 84.3257 46.0232 84.4158 43.8678 84.899C43.3747 85.0103 41.9209 85.3794 41.5885 85.6612C40.9785 86.1782 40.4009 88.3927 39.8458 88.6829C39.7402 88.7379 39.5697 88.7872 39.45 88.7998C38.8865 88.859 36.3324 88.3871 35.7083 88.2011C35.0843 88.0152 34.394 87.6813 34.2404 86.9812C31.0848 88.7956 28.0589 91.113 25.9486 94.1474C23.3621 97.8693 21.6364 102.56 20.2544 106.853C20.9658 105.906 21.5321 104.858 22.1985 103.88C25.8471 98.5286 30.4481 94.2982 36.817 92.4668C37.041 91.2201 37.2129 90.1466 38.4315 89.4972C40.1586 88.5759 45.9598 87.9194 47.8517 88.3237C48.3335 88.4265 49.0464 88.6942 49.3112 89.1182L50.5579 88.8027L50.5565 88.8041ZM95.0588 85.4104C95.0025 86.0782 95.0997 86.8135 95.0588 87.4883H95.566C95.666 87.3911 95.4476 85.023 95.3138 84.7497C95.2913 84.7018 95.1814 84.6215 95.1617 84.6497C95.2589 84.9202 95.0757 85.223 95.0588 85.4104ZM105.499 85.309V87.4883H106.006C106.051 86.5318 105.933 85.5766 105.7 84.6497L105.499 85.3076V85.309ZM115.939 85.2075C115.869 85.933 115.991 86.7529 115.939 87.4883H116.446C116.463 86.5374 116.368 85.5752 116.141 84.6497C116.045 84.6441 115.943 85.1582 115.939 85.2061V85.2075ZM126.582 85.1061C126.501 85.8542 126.643 86.7262 126.582 87.4883H127.089C127.115 86.5346 126.964 85.5823 126.784 84.6497C126.681 84.6201 126.587 85.0624 126.582 85.1047V85.1061ZM137.023 85.0047C136.934 85.7781 137.089 86.698 137.023 87.4883H137.53C137.478 86.5402 137.397 85.5851 137.224 84.6497C137.117 84.6116 137.027 84.9624 137.023 85.0047ZM91.6623 88.7055H85.7836L85.6315 145.382H147.868V119.274C147.868 119.186 147.075 118.312 146.936 118.076C146.234 116.889 146.182 115.266 147.142 114.202C145.228 112.771 144.542 109.914 146.957 108.626C146.647 108.132 146.174 107.784 145.888 107.263C144.793 105.258 145.796 103.44 147.873 102.832L147.868 88.7055H137.124C137.135 89.5662 137.695 89.4 138.272 89.7367C141.25 91.4779 138.137 96.107 135.353 93.7713C134.342 92.9232 134.676 92.3456 134.467 91.313C134.401 90.9876 134.057 90.3396 133.933 89.9212C133.815 89.5254 133.742 89.1126 133.68 88.7055H126.685C126.699 89.5169 127.185 89.3859 127.766 89.7028C130.883 91.4004 127.716 96.1267 124.913 93.7727C123.901 92.9232 124.235 92.3485 124.027 91.3145C123.965 91.0073 123.632 90.3988 123.514 90.0029C123.387 89.5817 123.362 89.1281 123.238 88.7069H116.041C116.159 89.5789 116.477 89.3521 117.121 89.7043C119.889 91.2187 117.718 95.6041 114.69 94.0629C114.132 93.7798 113.53 93.0035 113.429 92.3837C113.272 91.4342 113.233 91.2215 112.971 90.3072C112.819 89.7803 112.715 89.2394 112.595 88.7069H105.6C105.708 89.6268 106.123 89.3493 106.768 89.7183C108.243 90.5594 108.338 92.7838 107.022 93.8291C105.486 95.049 103.248 94.0967 102.973 92.1963C102.82 91.1313 102.735 90.9059 102.431 89.8987C102.329 89.562 102.249 89.2323 102.236 88.8773L102.103 88.7069H95.2603C95.1588 89.6028 95.6181 89.345 96.2041 89.638C97.8312 90.4509 98.0186 92.7176 96.5803 93.8291C94.9067 95.1237 92.7555 94.0009 92.5301 91.985C92.4357 91.1341 92.4118 91.2271 92.1723 90.4255C92.0892 90.1466 91.7666 88.7407 91.6609 88.7055H91.6623ZM84.5172 115.574V102.343C84.5172 101.695 83.5775 99.0541 83.3028 98.2863C82.4308 95.845 81.0502 92.7077 78.9442 91.0876C78.1496 90.4763 73.1965 88.8689 72.2005 88.9041C72.0005 88.9111 71.0721 89.1253 71.0355 89.2661C70.9805 89.4704 71.1299 89.4098 71.2397 89.462C71.8061 89.7324 72.309 89.7183 72.7612 90.1748C74.6109 92.0456 76.6775 97.1593 77.8454 99.6894C79.1315 102.477 80.3163 105.313 81.5954 108.105L84.5172 115.576V115.574ZM148.983 89.1112V98.9456C149.503 98.6315 150.097 98.4849 150.707 98.5399L150.656 89.7183L150.301 89.5169C150.268 91.3201 150.376 93.143 150.199 94.9406C150.135 95.59 149.856 97.9074 149.504 95.9408C149.125 93.8248 149.359 91.5117 149.286 89.3661L148.983 89.1126V89.1112ZM44.3778 131.492C43.4748 134.242 42.1407 136.934 40.7446 139.468C40.4122 140.071 39.0767 141.986 39.0978 142.49C39.1203 143.018 39.7909 143.621 40.167 143.965C40.8813 144.618 43.479 146.47 44.3524 146.581C44.4862 146.598 44.5454 146.609 44.6764 146.548C45.0878 146.36 47.3263 142.922 47.7221 142.291C56.8212 127.78 60.2557 107.099 50.1748 92.1808C49.7211 91.5103 48.5124 89.7085 47.8207 89.4662C46.4712 88.9943 42.5239 89.6226 41.0095 89.9508C39.6627 90.2424 38.1708 90.4199 38.0891 92.1019C38.0779 92.3287 38.099 92.2231 38.2427 92.2513C41.1898 92.8359 42.6478 95.8774 43.7128 98.4413C45.6935 103.213 46.512 108.635 47.1121 113.747C48.4631 113.766 49.9057 113.818 50.7439 115.032C51.6018 116.276 51.1764 117.603 49.9494 118.362V118.512C51.6075 119.495 51.9456 122.067 50.3706 123.344C51.6779 125.716 50.2917 127.935 47.6179 127.842C49.0154 130.137 46.729 132.415 44.375 131.49L44.3778 131.492ZM84.5172 127.132V119.477C84.5172 119.217 84.0326 117.814 83.9128 117.445C81.5264 110.13 77.758 101.894 74.3671 94.9546C73.9995 94.2024 72.5851 91.4018 72.0427 90.9933C71.9709 90.9397 70.9819 90.4917 70.9354 90.5298C72.8499 94.0277 73.0528 98.5948 69.2435 100.85C65.6273 102.992 60.5572 101.511 57.2607 99.3908L54.1094 96.8649C58.237 106.171 58.2483 116.846 55.8337 126.622C56.3901 126.605 56.9536 126.644 57.5101 126.626C65.2878 126.377 73.0683 126.749 80.815 127.032C82.0476 127.077 83.2873 127.025 84.5186 127.129L84.5172 127.132ZM45.3907 109.693C44.8624 106.529 44.2327 103.342 43.1634 100.314C42.5492 98.5723 40.6066 93.8868 38.6287 93.4938C37.2171 93.2134 35.5956 94.0122 34.3066 94.601C32.5189 95.4181 30.7622 96.5085 29.2267 97.7327C24.1778 101.757 21.2025 107.705 18.0244 113.192C18.061 113.312 18.2427 113.223 18.3301 113.192C20.2924 112.496 23.0296 110.886 25.016 110.545C25.1554 110.521 25.7499 110.507 25.626 110.757C23.8383 111.803 21.9562 112.729 20.0882 113.633C17.6229 114.825 16.486 114.739 14.966 117.331C12.8754 120.895 10.7961 125.676 9.08587 129.497C7.87717 132.196 6.59661 135.016 5.86125 137.879C8.80553 135.381 12.6613 133.964 16.3804 133.041C17.8652 132.674 19.3965 132.495 20.8616 132.15C23.7734 131.466 26.9783 130.466 29.8592 129.591C31.5948 129.065 33.3191 128.498 35.042 127.932C35.0336 126.458 35.5675 125.158 35.9168 123.789C36.3465 122.107 36.3874 120.904 37.5439 119.434C37.8468 119.05 38.3117 118.74 38.5836 118.344C39.0668 117.637 39.3359 116.601 39.874 115.883C41.2757 114.015 43.6283 113.802 45.7964 113.646C45.2272 111.882 44.5384 110.135 43.7199 108.473C43.5128 108.052 42.5534 106.667 42.6605 106.308C42.6845 106.226 42.8028 106.118 42.9042 106.144L43.3592 106.604L45.3893 109.693H45.3907ZM84.5172 98.0341V94.6377C84.1157 94.3123 83.6184 94.0066 83.1662 93.7586C83.0014 93.6685 82.6717 93.429 82.4886 93.5234L84.5172 98.0341ZM149.968 99.7796C149.551 99.8754 148.995 100.599 148.977 101.026C148.953 101.594 149.511 102.545 149.9 102.948C150.379 103.447 151.382 103.616 152.061 103.928C152.891 104.31 153.649 104.872 154.459 105.289C155.1 104.586 154.931 103.365 154.514 102.59C153.937 101.518 151.231 99.4866 149.968 99.7782V99.7796ZM148.223 104.066C146.432 104.062 146.257 106.172 147.363 107.309C148.18 108.15 148.807 108.015 149.794 108.325C151.403 108.831 152.893 109.646 154.204 110.706C154.854 109.765 155.159 107.45 154.413 106.544C153.964 105.999 151.085 104.817 150.301 104.575C149.876 104.443 148.594 104.068 148.223 104.068V104.066ZM154.122 111.854C153.83 111.53 151.793 110.513 151.282 110.285C150.066 109.742 148.173 108.848 147.068 109.959C146.067 110.966 146.733 112.317 147.674 113.082C148.442 113.706 148.562 113.511 149.394 113.694C150.866 114.018 152.233 115.056 153.298 116.079C153.512 116.127 154.057 115.017 154.139 114.801C154.418 114.064 154.692 112.488 154.12 111.854H154.122ZM151.923 124.395C153.232 122.907 154.132 121.453 153.954 119.372C153.874 118.44 153.58 117.975 152.989 117.296C151.944 116.093 147.391 112.727 147.561 116.338C147.659 118.395 150.137 119.158 151.419 120.287C151.796 120.619 151.924 120.694 151.924 121.201V124.395H151.923ZM40.3234 117.602C41.9054 117.175 43.7058 117.085 45.3442 117.192C46.729 117.282 48.4829 118.2 49.6423 117.14C50.4833 116.369 49.755 115.26 48.8449 115.009C47.446 114.625 44.3665 114.815 42.9592 115.219C41.6504 115.596 40.7742 116.279 40.3234 117.602ZM37.4848 122.165C37.9426 121.995 38.3469 121.687 38.8034 121.508C42.0745 120.226 46.2134 121.198 49.2774 122.655C50.4579 121.948 50.5002 120.794 49.6493 119.78C48.1546 117.997 42.4591 117.93 40.3783 118.622C38.9513 119.095 37.7327 120.718 37.4848 122.163V122.165ZM148.983 120.136V145.281L149.288 145.221L149.591 126.523C150.022 126.457 150.06 126.578 150.099 126.98C150.311 129.253 150.135 131.683 150.196 133.981C150.682 137.38 149.91 141.38 150.297 144.728C150.314 144.88 150.308 144.985 150.455 145.078L150.707 144.926V121.302L150.1 120.846L149.997 123.431C149.99 123.565 149.89 123.714 149.746 123.685C149.417 123.616 149.422 121.118 149.363 120.722C149.329 120.499 149.287 120.098 148.986 120.137L148.983 120.136ZM36.5733 125.61C37.8074 125.01 38.9724 124.644 40.3741 124.7C42.6239 124.79 44.0157 125.578 46.0021 126.268C47.4333 126.765 49.8775 127.049 49.6493 124.85C49.5169 123.575 48.6787 123.291 47.6475 122.898C44.1439 121.562 37.5256 120.684 36.5733 125.609V125.61ZM35.4576 138.285H37.8398C38.2948 138.285 39.974 137.49 40.3713 137.168C41.1222 136.556 42.3548 133.787 42.7732 132.777C42.9113 132.444 43.4536 131.161 43.4466 130.911C43.441 130.71 42.8141 130.396 42.6211 130.403C42.2139 130.416 41.0066 131.123 40.6756 131.082C40.5023 131.061 40.5079 130.758 40.6404 130.644L41.5392 129.821L40.0233 129.055C40.0994 128.09 41.7984 128.726 42.4041 128.956C43.1536 129.239 45.0047 130.554 45.4498 130.573C47.1375 130.647 47.2432 128.791 46.257 127.737C45.1681 126.572 41.032 125.923 39.457 126.013C36.6846 126.172 36.2916 126.956 35.9662 129.517C35.7309 131.366 35.8915 133.26 35.2547 135.042L34.8053 134.833C34.2644 133.048 34.6405 131.114 34.8335 129.296L34.7053 129.169C28.766 131.483 22.4366 132.609 16.479 134.866C14.9251 135.455 13.1473 136.141 11.7484 137.028C11.199 137.376 10.1762 138.34 9.66063 138.489C9.20702 138.621 10.0692 137.631 10.1213 137.531L11.9428 135.755C11.4441 135.859 8.82243 137.028 8.71678 137.342C8.25189 141.098 9.1394 146.205 12.7233 148.205C15.3379 149.665 17.6961 148.866 20.222 147.736L36.979 139.102C36.7677 139.174 35.1674 138.547 35.459 138.289L35.4576 138.285ZM92.8288 146.599H85.2779C85.1342 146.599 84.5172 146.136 84.5172 146.041V128.298C84.4284 128.153 84.3157 128.159 84.1678 128.14C83.0366 128.008 81.501 128.176 80.3064 128.15C72.6259 127.985 64.5806 127.373 56.8917 127.736C56.4254 127.759 55.9337 127.915 55.4364 127.852C53.653 134.081 50.765 140.25 46.9938 145.514C46.2289 146.582 45.6527 147.763 44.2228 147.913L42.1477 149.741L65.7174 149.636C72.6048 149.828 79.4964 150.107 86.395 150.245C86.6345 150.249 86.8571 150.351 87.0966 150.355L92.9302 150.249L92.8288 146.599ZM7.48131 138.185C7.35029 138.049 6.29373 139.103 6.16694 139.251C4.08482 141.694 5.84012 143.548 8.29133 144.469C7.60246 142.476 7.19251 140.285 7.4799 138.185H7.48131ZM39.6134 139.098L32.4429 142.773L31.5046 148.932C31.7103 148.938 31.9174 148.952 32.1189 148.887C32.4908 148.769 34.98 146.575 35.459 146.146C36.3817 145.317 37.265 144.437 38.1427 143.562C37.3383 141.793 38.8921 140.563 39.6134 139.099V139.098ZM31.2004 143.458C27.6715 145.171 24.2693 147.194 20.6953 148.816C17.2763 150.369 14.101 150.958 10.9299 148.425C11.0384 151.518 10.4932 155.39 12.65 157.907C14.0123 159.499 17.0735 160.999 19.0415 161.754C19.4077 161.895 20.0839 162.28 20.4164 162.021C20.6094 161.752 20.6925 161.363 20.7517 161.037C21.1729 158.69 20.7911 155.955 21.0785 153.658C21.1095 153.41 21.1518 153.057 21.4025 152.967C21.5265 152.906 21.5166 152.84 21.6223 152.988C21.7392 153.151 21.8576 153.915 21.8759 154.154C22.0449 156.262 22.276 159.6 21.8308 161.608C21.504 163.081 20.8545 163.58 19.3655 163.153C17.6933 162.674 15.8309 161.483 14.2757 160.691C14.6335 162.826 15.2829 165.313 16.524 167.11C17.9286 169.143 23.0282 171.376 25.4006 172.224C25.7358 172.344 26.3895 172.617 26.6994 172.652C26.9164 172.676 26.884 172.397 26.9121 172.269C27.9095 167.829 28.1645 163.087 29.076 158.611C29.1239 158.313 28.628 158.562 28.4195 158.566C27.8856 158.576 27.5038 158.551 27.2291 158.024C26.7403 157.083 26.9262 154.278 27.277 153.267C27.6362 152.231 29.276 151.227 30.0705 150.484L31.2018 143.455L31.2004 143.458ZM43.0592 147.311C41.4983 146.589 40.1459 145.485 38.8527 144.373C37.1101 146.147 35.297 147.856 33.3769 149.436C32.202 150.403 29.3126 152.251 28.5632 153.341C28.0138 154.142 28.0983 156.281 28.2026 157.252C28.4604 157.625 30.3199 156.686 30.6946 156.489C34.0714 154.711 38.2638 151.361 41.2799 148.929C41.8434 148.474 42.4675 148.016 42.993 147.522C43.0789 147.442 43.0859 147.453 43.0578 147.312L43.0592 147.311ZM92.9302 151.364L84.968 151.469C70.2536 150.634 55.4773 150.904 40.7249 150.904C37.2735 153.35 34.0193 156.112 30.2354 158.054L27.563 175.828C27.6982 176.311 29.9466 176.943 30.4678 177.087C38.3779 179.268 49.3154 179.836 57.6003 180.264C67.3206 180.765 78.2342 181.101 87.9108 180.055C89.9803 179.833 92.1145 179.555 94.0276 178.721C94.0431 178.206 94.0685 177.677 94.0501 177.162C93.8797 172.337 93.4585 167.492 93.2303 162.671L92.9302 151.362V151.364ZM91.5102 180.767C89.9789 180.974 88.4391 181.23 86.898 181.374C78.5469 182.153 69.8338 181.888 61.4616 181.574C53.05 181.258 44.5694 180.722 36.2352 179.433C34.6504 179.188 33.0655 178.9 31.5061 178.537C30.8073 182.626 30.1762 186.744 29.693 190.869C29.3042 194.189 28.9464 197.565 28.6674 200.895C28.6294 201.353 28.3829 204.232 28.4773 204.379C33.3177 206.03 38.4131 207.255 43.4466 208.213C46.7177 208.836 50.2635 209.476 53.5642 209.855C55.2927 210.053 57.041 210.086 58.7695 210.273C60.777 203.512 63.1183 196.862 65.4104 190.197C65.578 189.783 66.1485 189.293 66.2133 189.977C66.4232 192.197 64.6665 195.151 64.2467 197.346L64.444 204.446L64.8581 210.064L70.2776 210.676C76.2239 210.907 82.3815 211.283 88.318 210.676C88.942 210.612 90.8875 210.408 91.3411 210.152C91.6482 209.978 91.413 209.714 91.4045 209.412C91.258 203.842 91.3299 198.254 91.313 192.675C91.3031 189.574 91.42 186.743 91.5158 183.659C91.5454 182.697 91.4862 181.726 91.5116 180.765L91.5102 180.767ZM51.3722 210.677C45.8316 209.997 40.3558 208.888 34.9519 207.534C34.1362 213.927 32.6697 220.205 31.623 226.562C31.1891 229.197 30.4298 232.69 30.2875 235.268C30.2776 235.434 30.2396 235.647 30.3889 235.773C30.5453 235.905 32.2513 236.229 32.6021 236.297C35.9126 236.929 39.9388 237.342 43.3099 237.448C43.6114 237.457 44.6961 237.508 44.8356 237.343L51.3722 210.677ZM84.2129 212.096L75.0349 212.1L67.9405 211.684L68.5955 237.601C73.2458 238.228 78.0059 238.659 82.6773 238.038L84.2115 212.096H84.2129ZM44.5792 238.56C39.7331 238.522 34.8194 238.107 30.1368 236.835L29.7803 238.762C33.9897 238.155 38.9358 240.576 41.1757 244.145C41.6349 244.876 41.8927 245.746 42.5013 246.365L42.7521 246.008L44.5792 238.56ZM82.5914 241.702V239.624C82.5914 239.572 82.752 239.411 82.6928 239.269C77.9637 239.78 73.1951 239.321 68.5025 238.76C68.7871 241.026 68.1856 243.314 69.2957 245.42C69.5971 245.992 69.986 246.548 70.5847 245.963C71.2214 245.341 71.7723 244.264 72.4062 243.629C74.8447 241.181 79.4274 240.52 82.5928 241.702H82.5914ZM26.8924 243.021C27.5559 242.987 28.2519 243.021 28.9196 243.021C30.3227 243.021 32.5978 244.484 33.4825 245.553C33.8065 245.945 34.8941 247.395 33.9657 247.665C33.305 247.858 32.8951 246.675 32.5161 246.216C31.0595 244.453 28.4857 243.85 26.3162 244.367C25.1202 244.652 25.0005 245.363 24.3088 246.262C26.9643 245.659 29.7578 246.561 31.5075 248.643C31.816 249.011 32.3119 249.475 32.0005 249.953C31.4525 250.794 30.596 249.333 30.241 248.998C28.1279 247.009 25.0033 246.659 22.6338 248.391C21.0799 250.943 16.2043 255 16.0014 257.988C15.9704 258.455 16.4578 258.66 16.841 258.853C20.6348 260.772 27.2207 260.251 31.3215 259.514C36.2042 258.636 41.0405 256.963 45.292 254.427C45.5653 254.119 45.4639 252.015 45.4949 251.487C45.5963 249.695 46.2444 245.097 45.3766 243.695C45.2399 243.476 45.0075 243.312 44.8342 243.122C44.6173 243.077 44.7004 243.212 44.6567 243.345C44.3665 244.239 44.0988 246.165 43.6917 246.844C43.4494 247.248 42.8986 247.526 42.4295 247.461C41.2095 247.292 40.4262 245.062 39.7585 244.143C37.5439 241.102 30.9313 237.929 27.9067 241.295C27.7067 241.517 26.7191 242.781 26.6417 242.971C26.5205 243.271 26.8769 243.021 26.8938 243.021H26.8924ZM84.3143 244.642C81.8321 241.091 75.535 241.934 72.9105 244.843C72.3498 245.465 71.3595 247.19 70.5579 247.355C68.456 247.789 67.7376 244.593 67.4883 243.078C67.0135 242.849 66.8304 243.68 66.7275 244.032C65.9076 246.823 65.9879 249.978 65.5653 252.848C69.4675 254.502 73.4754 255.932 77.6242 256.86C82.4942 257.95 88.0095 258.601 92.9499 257.688C93.9769 257.498 94.963 257.183 95.9646 256.902C95.8942 255.158 94.7306 254.105 93.5416 253.006C92.5822 252.12 89.3379 249.146 88.349 248.771C86.8867 248.216 84.7299 248.737 83.3676 249.422C82.914 249.65 81.6729 250.656 81.3489 250.608C81.1052 250.571 80.8868 250.305 80.8713 250.059C80.8347 249.471 82.211 248.696 82.6928 248.443C84.0044 247.748 85.5611 247.296 87.0529 247.379C87.3417 247.133 85.5427 246.139 85.368 246.075C83.7705 245.483 82.0307 245.911 80.5304 246.583C80.0021 246.82 78.9202 247.667 78.437 247.43C78.0412 247.237 78.1046 246.757 78.3877 246.466C79.0132 245.824 81.9688 244.642 82.8478 244.642H84.3171H84.3143ZM96.2746 258.026C90.6452 259.966 84.3693 259.466 78.6188 258.298C74.1277 257.387 69.7972 255.881 65.5625 254.174C65.609 254.502 65.447 255.099 65.6625 255.34C65.8752 255.579 68.6448 256.623 69.159 256.811C75.7308 259.207 87.8432 261.703 94.5517 259.699C95.4603 259.427 96.5746 259.213 96.2746 258.026ZM45.1878 255.898L41.9125 257.538C35.2294 260.514 24.3186 262.811 17.2876 260.335C16.903 260.2 16.3804 259.854 16.0451 259.754C15.807 259.682 15.869 260.172 15.8986 260.307C16.0761 261.152 18.8485 261.979 19.643 262.139C26.5726 263.521 37.1537 261.198 43.3677 257.879C43.7283 257.686 44.8159 257.14 45.0441 256.919C45.3047 256.667 45.1596 256.235 45.1906 255.901L45.1878 255.898Z" fill="black"/>
</g>
<defs>
<clipPath id="clip0_2117_24390">
<rect width="160" height="160" fill="white"/>
</clipPath>
</defs>
</svg>
