<svg width="200" height="200" viewBox="0 0 200 200" fill="none" xmlns="http://www.w3.org/2000/svg">
<g clip-path="url(#clip0_2223_19746)">
<path d="M87.3235 129.65C87.1231 129.775 86.9228 129.901 86.725 130.029C85.8781 129.781 85.2235 130.142 84.6491 130.711C81.9132 133.412 79.033 135.958 76.2276 138.584C68.5543 145.758 60.8756 152.924 53.1889 160.084C49.3041 163.531 45.7961 167.483 41.6041 170.55C39.4934 171.947 36.6319 169.938 37.3827 167.456C42.4029 146.295 47.2816 125.094 52.3046 103.939C52.6412 102.726 52.342 101.954 51.332 101.209C39.0472 92.1672 26.7704 83.1098 14.4936 74.0551C12.1344 71.6772 0.99577 66.6702 6.90039 63.2984C23.7219 62.2644 40.8319 63.2637 57.747 62.9271C58.6073 62.8816 59.7321 63.3465 60.0954 62.2644C66.0268 44.7027 71.6161 27.0074 77.462 9.40824C78.154 7.85325 78.349 5.33375 80.4383 5.19749C81.4429 5.14939 82.1242 5.65436 82.5704 6.54674C85.7819 12.6304 87.8098 19.4702 91.5235 25.2119C86.6823 29.4441 80.6842 32.8399 74.7501 35.6052C70.991 37.1869 70.3203 40.3397 72.2146 43.7248C73.5078 46.8722 77.5181 47.6871 76.9811 49.9448C76.4253 53.0414 77.7612 56.7499 81.1677 57.53C80.7536 55.633 80.6735 53.8483 81.7101 52.1864C82.3326 52.4376 82.3994 52.9292 82.4983 53.378C83.5162 58.1445 86.1052 62.3045 88.0208 66.729C89.6907 69.0294 86.1479 74.9501 90.6499 74.0738C91.6117 73.9322 92.1861 74.2662 92.6377 75.0704C93.9789 77.4563 95.4484 79.7594 97.177 81.8888C99.766 85.0763 104.391 87.1282 108.887 85.2286C109.347 85.0335 109.825 84.7797 110.362 85.0495C105.163 92.7069 101.572 101.869 97.5911 110.424C96.4049 112.874 96.1056 112.895 94.5774 110.704C92.0365 107.06 89.346 103.522 86.8827 99.8219C86.2601 98.6731 84.7853 98.5608 84.0693 97.4814C83.5563 96.907 83.046 96.3806 82.2926 96.0654C79.9788 94.9138 82.859 92.0523 81.6113 89.8C80.7002 87.0026 84.8014 87.8576 84.4807 84.3335C84.4888 82.18 84.3204 80.1334 82.5223 78.6159C81.1116 73.7879 79.017 75.2467 78.8139 73.1119C78.4826 70.6218 76.5215 70.5951 74.5124 71.2363C71.2074 70.8089 69.3932 73.0932 67.4295 75.1051C64.6455 78.02 63.8707 81.2022 65.2894 85.1564C67.0928 90.8019 69.1314 96.4287 71.5787 101.778C71.1619 103.18 72.2627 104.177 72.4791 105.35C73.1765 109.117 75.8269 111.73 77.6971 114.781C80.5105 119.369 83.6471 123.753 86.7464 128.154C87.0537 128.6 87.4518 129.025 87.3235 129.65Z" fill="#FFCE24"/>
<path d="M91.9644 24.9873C91.8976 25.2492 91.7053 25.316 91.4648 25.3106C91.4568 25.2679 91.4648 25.2011 91.4408 25.1877C90.5243 24.6641 90.527 24.6641 90.0755 23.6701C87.7083 18.4601 85.3384 13.2528 82.9659 8.04546C82.3915 6.9901 82.0254 5.29885 80.5586 5.39237C78.7285 5.34962 78.4987 7.5779 77.9189 8.89777C72.065 26.7481 66.2593 44.6144 60.384 62.4593C60.0768 63.3624 60.0314 63.3731 59.1123 63.3384C41.8633 63.3891 24.5742 63.1059 7.34396 63.4399C4.18592 64.2922 5.48708 67.5411 7.76076 68.7113C12.4978 72.2194 17.2429 75.7168 21.988 79.2142C31.9056 86.4922 41.7591 93.861 51.7061 101.099C52.6947 101.807 52.9645 102.507 52.6786 103.688C47.653 124.787 42.761 145.921 37.7995 167.036C36.974 169.24 38.7106 171.56 40.9469 170.542C43.4637 169.289 45.2164 166.871 47.3698 165.102C59.5905 153.715 71.8032 142.319 84.0132 130.922C84.8441 130.366 85.8701 128.423 86.7251 130.029C78.6056 138.392 69.5563 146.071 61.1241 154.198C55.3771 159.558 49.6275 164.92 43.8751 170.274C42.9587 171.127 41.9408 171.795 40.6904 172.089C37.885 172.815 35.3896 169.756 36.3594 166.932C37.7247 161.158 39.0766 155.379 40.4339 149.603C44.0755 133.951 47.8267 118.335 51.4122 102.67C40.0331 94.203 28.5899 85.8349 17.1814 77.4107C13.5371 74.7256 9.88749 72.0457 6.25655 69.3446C4.67219 68.185 3.40843 66.2586 4.29012 64.2762C4.86455 62.8868 6.0054 62.1922 7.45083 61.9757C24.625 61.8635 41.8125 61.9757 58.9947 61.9357C65.4738 43.3239 71.0364 24.3515 77.6036 5.77176C78.9556 3.01447 83.0434 3.637 83.8155 6.52254C86.4392 12.6543 89.8003 18.8823 91.9644 24.9873Z" fill="#C67A0F"/>
<path d="M132.26 61.2436C144.014 60.7119 156.004 60.8668 167.79 61.2302C171.103 61.81 171.348 65.9539 168.834 67.7013C167.653 68.4601 160.635 76.9644 160.154 75.0514L160.17 75.0701C159.598 73.9186 160.501 73.3174 161.137 72.6976C163.488 70.3517 166.09 68.2223 168.236 65.6841C169.719 63.576 166.892 62.6089 165.19 62.8653C154.861 62.8627 144.532 62.8707 134.2 62.852C133.321 63.055 131.291 62.5715 132.26 61.2436Z" fill="#C67A0F"/>
<path d="M35.2775 110.325C32.9157 112.064 28.2641 110.851 27.3477 114.343C26.9523 115.382 26.1561 121.648 25.3118 121.471C23.9412 118.519 25.3706 113.536 21.7103 112.107C19.848 111.23 17.545 111.428 15.8457 110.325C26.1935 107.717 22.9019 107.907 25.4267 99.0042C28.8225 107.778 24.4809 107.621 35.2775 110.325Z" fill="#C67A0F"/>
<path d="M76.2891 159.745C86.7758 156.982 83.2571 157.423 85.8941 148.454C89.3781 157.549 84.8628 156.798 95.7636 159.758C93.9709 160.825 91.8067 160.589 89.9338 161.495C86.5514 162.412 87.6708 168.482 85.9048 170.967C84.251 168.143 85.8994 163.007 82.2631 161.538C80.3395 160.605 78.1326 160.846 76.2891 159.745Z" fill="#C67A0F"/>
<path d="M166.285 37.406C164.842 38.3679 162.825 38.1408 161.228 38.8915C159.993 39.2362 158.764 39.8213 158.494 41.2427C157.877 43.618 157.629 46.239 156.683 48.4753C156.253 48.4459 156.263 48.128 156.221 47.9035C154.516 38.6591 155.985 40.0057 147.014 37.4381C148.932 36.4549 151.219 36.2411 153.234 35.4155C156.517 33.7002 154.925 28.9284 156.549 26.1658C156.934 26.3875 156.974 26.7322 157.046 27.0475C157.49 28.9605 157.923 30.8735 158.361 32.7865C158.727 36.6499 163.779 35.8858 166.285 37.406Z" fill="#C67A0F"/>
<path d="M48.4478 41.3252C47.2001 39.5324 47.5234 36.4224 46.8287 34.269C45.9711 30.6086 41.1833 31.7735 38.752 30.0475C48.5894 27.4906 45.9898 27.8887 48.1673 18.9622C48.5173 18.8767 48.6028 19.0584 48.6536 19.2802C50.9486 28.2173 48.7551 27.5414 58.2132 30.0689C47.7345 33.2483 51.5551 31.3861 48.4478 41.3252Z" fill="#C67A0F"/>
<path d="M178.12 79.2354C178.211 79.2141 178.299 79.19 178.39 79.1687C187.017 77.0366 184.001 75.527 186.168 68.4708C186.611 68.4467 186.606 68.7647 186.662 68.9891C188.903 77.6724 186.771 77.106 195.992 79.5534C196.042 79.8045 195.821 79.8874 195.639 79.9355C193.67 80.4645 191.647 80.8813 189.734 81.5813C187.3 83.0615 187.789 87.1199 186.814 89.6127C186.64 90.0696 186.755 90.6547 186.138 90.7616C183.758 80.6355 186.689 82.8263 176.613 79.5801C176.982 79.5 177.166 79.4599 177.353 79.4198C177.572 79.2007 177.88 79.3557 178.12 79.2354Z" fill="#C67A0F"/>
<path d="M179.138 78.9202C178.946 79.182 178.684 79.2328 178.385 79.1687C178.601 78.9709 178.839 78.856 179.138 78.9202Z" fill="#6A6969"/>
<path d="M131.525 61.6926C131.738 61.7006 131.952 61.7087 132.166 61.7167C132.332 62.8495 133.798 62.3365 134.592 62.4487C144.707 62.4487 154.823 62.4434 164.941 62.4487C166.904 62.2003 170.367 63.0606 168.801 65.6522C166.557 68.1557 164.027 70.4134 161.676 72.8233C161.053 73.502 160.15 74.0497 160.174 75.073C159.584 75.065 159.324 74.3302 158.894 73.9936C154.176 69.2164 146.887 69.016 140.614 68.113C139.748 68.1504 138.96 67.7897 138.145 67.6347C136.646 67.6694 135.441 66.3442 133.868 66.5927C133.165 65.9061 130.547 62.4167 131.525 61.6926Z" fill="#FFCE24"/>
<path d="M25.415 102.082C27.8116 108.689 24.9287 108.147 32.8425 110.354C25.8425 112.296 27.2932 111.775 25.6073 118.417C25.2707 118.452 25.3428 118.22 25.3241 118.089C24.4692 111.065 24.4131 112.339 18.2012 110.309C24.8325 108.727 24.5653 108.623 25.415 102.082Z" fill="#FFCE24"/>
<path d="M85.9221 151.438C87.9927 157.896 85.89 157.984 93.4965 159.729C85.7217 161.591 88.1877 161.444 85.89 167.905C85.1259 161.356 84.9576 161.115 78.4277 159.798C85.2969 157.989 84.9495 158.369 85.9221 151.438Z" fill="#FFCE24"/>
<path d="M156.559 45.4217C155.613 39.2766 155.902 38.6808 149.369 37.5025C149.463 37.1686 149.703 37.1739 149.901 37.1445C156.345 35.7098 155.498 35.17 156.54 29.3108C156.944 29.431 156.871 29.7677 156.925 29.9974C158.17 35.9502 157.734 35.7098 163.794 37.2621C163.85 37.58 163.623 37.5292 163.487 37.5667C156.66 39.111 158.368 39.4316 156.759 45.4137C156.695 45.4191 156.628 45.4191 156.559 45.4217Z" fill="#FFCE24"/>
<path d="M48.4499 38.3359C47.8915 36.9358 47.8194 35.64 47.651 34.1919C47.3411 30.7159 43.3869 31.0312 40.9102 30.0426C42.8953 29.6472 44.5304 29.1903 46.2965 28.3033C48.1614 27.3334 47.5468 24.5948 48.1346 22.8474C48.1827 22.5749 48.0732 22.2383 48.4526 22.0459C50.1759 28.5063 48.7438 28.3647 55.9202 30.0426C48.9308 31.7686 50.0637 31.6457 48.4499 38.3359Z" fill="#FFCE24"/>
<path d="M179.134 79.4575C185.76 78.1269 185.341 77.6941 186.281 71.4368C188.691 77.793 185.635 77.6567 193.957 79.5644C186.88 81.3171 187.983 81.1007 186.42 87.9405C185.095 83.019 186.548 81.122 180.395 80.0079C180.013 79.8289 179.049 80.1041 179.134 79.4575Z" fill="#FFCE24"/>
<path d="M179.131 79.457C179.217 79.5933 179.3 79.7296 179.382 79.8685C179.083 79.9647 178.909 79.8338 178.73 79.612C178.864 79.5586 178.998 79.5078 179.131 79.457Z" fill="#6A6969"/>
<path d="M180.189 79.2358C180.023 79.2759 179.855 79.316 179.689 79.3587C179.82 79.1744 179.994 79.1637 180.189 79.2358Z" fill="#6A6969"/>
<path d="M87.3273 129.65C82.4353 122.497 77.5513 115.34 72.8837 108.038C72.5444 107.525 72.3066 106.977 72.4642 106.352C72.6806 104.845 69.9982 103.498 71.4196 102.055C69.4344 97.4546 62.7657 83.3689 64.4997 78.9363C66.442 75.7676 70.0035 69.9163 74.3826 71.1187C76.886 69.4354 79.5231 71.2202 79.2826 73.9908C81.1903 74.6134 82.3525 76.2993 82.5021 78.3031C84.8319 79.6764 84.9387 82.6902 84.8025 85.0815C84.7036 86.9731 83.0231 87.6224 81.5616 88.464C82.104 90.3797 82.8494 92.5518 81.4414 94.3259C81.6471 94.7961 81.8475 95.2557 82.0425 95.7072C83.7792 95.7526 84.2013 97.8099 85.612 98.3817C86.2533 98.4298 86.5739 98.8279 86.9052 99.3035C89.9991 103.675 92.9594 108.051 96.227 112.31C101.367 103.373 103.462 92.8618 110.574 85.0842C100.726 89.148 95.9251 81.7818 91.7064 74.087C86.9025 75.9012 87.9632 72.0805 88.1689 68.8877C87.9926 65.9354 85.8178 63.4132 84.8158 60.6666C83.4452 57.9307 82.5368 55.1653 81.8689 52.1622C81.0887 54.2436 80.8723 56.1192 81.9116 58.0963C76.9501 57.4257 75.9803 52.4588 76.8379 48.6675C73.1535 46.6904 68.8814 41.5125 71.8096 37.4166C72.6833 36.3532 73.8348 35.5677 75.1119 35.0601C78.2433 33.8604 81.0914 32.1398 83.8834 30.3176C91.9067 25.5965 109.519 10.0413 116.46 22.7885C128.059 20.0472 131.417 35.6024 133.966 43.9091C134.952 49.7763 133.944 55.7211 131.788 61.217C131.874 68.3988 141.303 67.3862 146.333 68.5324C151.461 69.4808 158.057 70.7179 160.547 75.7248C166.842 83.799 173.802 91.3655 179.651 99.7951C182.779 103.565 184.935 108.064 184.171 113.069C182.394 122.284 179.592 131.381 175.886 140.011C177.751 146.45 179.458 153.071 181.307 159.534C181.641 160.57 181.355 160.934 180.481 161.364C178.539 162.312 176.655 163.272 174.697 164.204C173.431 171.96 172.854 179.797 171.836 187.585C171.325 193.829 169.613 200.207 171.058 206.424C172.854 216.243 176.618 225.506 179.557 235.004C180.725 238.755 181.916 242.493 183.447 246.116C184.209 247.671 183.936 248.425 182.595 249.517C185.432 253.509 186.015 258.505 187.599 263.042C188.109 264.912 183.808 266.545 182.408 267.044C176.762 268.923 143.191 278.421 150.098 264.247C150.932 262.93 152.187 262.131 153.555 261.49C156.911 259.852 160.139 258.043 162.837 255.411C161.76 255.133 161.386 254.249 161.01 253.397C158.383 247.46 155.669 241.563 153.149 235.581C146.881 220.825 140.106 206.207 138.452 190.107C134.062 196.039 130.038 202.106 125.785 208.118C123.746 211.169 122.739 214.498 122.215 218.129C120.599 228.936 119.055 239.757 117.943 250.629C118.031 252.657 115.71 252.261 115.881 253.824C116.439 256.771 116.241 259.782 116.669 262.743C116.589 264.33 116.166 264.869 114.582 265.382C107.587 267.082 100.237 267.02 93.0716 267.002C89.7025 266.526 77.6395 267.611 79.3066 261.976C79.7956 260.376 80.1563 258.473 81.925 257.829C86.9159 255.564 92.1739 253.958 96.951 251.222C96.3793 250.72 95.877 250.281 95.3159 249.79C95.7594 237.566 96.903 225.34 97.8114 213.133C99.524 195.966 109.794 181.322 116.11 165.634C112.621 163.13 114.411 160.004 115.159 156.536C116.487 152.747 116.666 148.649 117.799 144.852C120.628 137.569 116.38 130.35 114.713 123.248C114.144 123.219 114.04 123.665 113.818 123.932C111.542 126.692 109.655 129.773 106.976 132.196C99.0991 138.761 93.3949 137.935 87.3273 129.65Z" fill="black"/>
<path d="M105.734 133.037C109.202 129.791 111.741 126.008 114.674 122.235C116.512 127.312 117.61 132.65 119.267 137.796C119.521 138.418 119.526 139.046 119.368 139.677C118.556 142.618 118.025 145.685 117.044 148.558C116.755 148.186 116.47 147.818 116.181 147.446C118.134 146.637 108.818 136.27 107.848 134.264C107.402 133.652 106.913 133.288 106.132 133.491C106.002 133.344 105.868 133.192 105.734 133.037Z" fill="#FFCE24"/>
<path d="M106.133 133.497C107.501 131.854 108.481 135.1 109.379 135.878C111.367 138.595 113.357 141.307 115.342 144.027C115.818 145.085 118.313 146.816 116.184 147.452C112.574 143.054 109.205 138.293 106.133 133.497Z" fill="#C67A0F"/>
<path d="M160.158 75.0515C160.415 75.145 160.671 75.2359 160.928 75.3294C160.802 75.4576 160.674 75.5859 160.548 75.7141C160.308 75.5592 160.001 75.4416 160.158 75.0515Z" fill="#FFCE24"/>
<path d="M178.12 79.2354C177.917 79.5159 177.637 79.4731 177.354 79.4197C177.61 79.3583 177.864 79.2968 178.12 79.2354Z" fill="#6A6969"/>
<path d="M181.516 248.294C176.341 252.032 169.522 253.287 163.244 253.544C157.978 242.915 153.545 231.758 149.003 220.761C146.818 215.26 144.157 209.895 142.863 204.086C140.293 192.718 139.623 181.061 138.102 169.545C136.713 162.801 136.534 170.157 137.047 172.353C137.659 178.594 135.548 184.871 134.816 191.064C134.295 193.618 132.118 195.48 130.83 197.687C127.931 201.804 124.816 205.777 122.406 210.21C121.762 211.287 121.38 212.43 121.19 213.683C120.546 217.851 119.704 221.987 119.143 226.169C117.962 234.392 117.006 242.549 116.055 250.824C111.123 252.451 105.771 251.444 100.748 250.704C96.5616 249.862 96.3772 249.181 97.0104 245.05C97.2215 240.965 97.3604 236.872 97.8146 232.803C98.4024 220.483 99.2734 207.987 104.31 196.554C107.575 188.87 112.002 181.702 115.208 173.978C115.737 172.759 116.258 171.528 115.756 170.157C115.924 169.679 116.028 169.171 116.367 168.773C119.093 169.147 121.783 169.294 124.498 169.585C131.917 170.825 132.737 160.613 134.573 155.585C136.748 162.104 135.668 166.884 143.227 169.612C148.795 173.099 155.704 170.801 161.55 169.176C164.833 168.474 168.219 168.273 171.494 167.482C171.866 167.402 172.24 167.295 172.659 167.482C171.759 177.13 170.519 187.021 169.269 196.717C167.382 214.755 176.675 231.379 181.516 248.294Z" fill="black"/>
<path d="M178.405 160.672C169.577 165.31 159.727 169.334 149.662 169.903C140.725 170.191 138.232 160.3 136.479 153.33C134.703 145.859 132.245 138.573 130.257 131.156C129.84 129.676 129.549 128.161 129.701 126.612C130.345 119.294 132.458 112.211 134.452 105.168C135.09 102.91 135.742 100.655 136.429 98.4135C136.645 97.7108 136.589 97.2192 135.94 96.7624C135.098 96.1104 134.192 95.4184 133.514 94.5982C134.716 92.41 137.909 91.3172 137.829 88.4397C138.203 82.0274 138.173 75.6231 137.936 69.2081C138.219 69.1947 138.422 69.1867 138.625 69.176C140.11 72.1391 147.185 70.8699 150.226 72.1097C152.617 72.5799 148.818 75.1235 148.529 76.6758C144.273 82.2972 142.734 91.1542 147.177 97.0589C143.696 86.9996 145.43 81.477 151.976 73.3494C152.887 72.3929 153.125 72.3581 154.038 73.2505C163.232 83.0026 170.847 94.1333 179.653 104.238C180.737 105.547 181.659 106.971 182.592 108.387C183.155 111.516 182.634 114.698 181.79 117.733C179.631 124.707 178.1 131.961 175.039 138.603C170.876 138.838 165.85 135.821 162.567 133.409C161.749 132.161 163.17 130.531 163.277 129.166C164.242 124.985 165.482 120.819 166.053 116.568C165.987 114.158 163.032 113.082 161.682 111.334C158.65 109.047 153.739 102.838 150.37 102.33C154.474 107.011 159.454 111.051 163.985 115.377C165.856 116.646 163.243 121.72 163.114 123.854C162.47 126.638 161.851 129.428 160.873 132.116C160.745 132.492 160.63 132.853 160.798 133.23C161.103 134.721 159.922 136.03 159.561 137.537C151.286 140.655 152.577 142.162 151.166 149.859C150.701 152.881 150.685 157.396 154.81 157.332C155.358 157.316 155.778 157.508 156.224 157.8C156.975 158.286 157.771 158.724 158.725 158.657C161.816 160.087 161.795 159.718 165.1 159.176C172.18 158.056 170.63 145.907 174.611 141.285C175.039 141.528 175.028 141.881 175.047 142.22C174.753 143.639 175.095 145.018 175.332 146.396C176.073 150.685 177.261 154.871 178.333 159.082C178.477 159.603 178.787 160.127 178.405 160.672Z" fill="#D52B1E"/>
<path d="M120.926 140.703C120.737 134.646 117.779 128.69 116.446 122.772C114.469 115.27 112.334 107.802 110.99 100.153C110.546 98.0741 110.632 95.8004 109.729 93.858C107.99 94.4058 110.792 105.897 111.132 107.882C111.952 112.817 111.658 117.851 111.759 122.828C111.773 123.467 111.602 123.964 111.198 124.461C105.983 131.651 98.3471 140.62 90.3211 131.068C84.6382 123.526 79.4229 115.649 74.3145 107.711C76.9996 106.736 79.3267 105.315 81.6939 103.776C83.2409 103.474 85.1699 100.679 86.3321 102.79C86.6527 104.302 101.665 121.936 97.3532 113.408C102.635 104.348 105.865 88.5011 115.174 83.3632C115.994 82.9357 116.814 84.0312 116.553 84.8728C115.957 88.7896 115.31 92.6985 114.821 96.6287C114.356 98.5257 116.064 99.1295 117.098 100.359C115.722 104.97 115.927 105.814 117.856 110.124C120.09 115.326 122.452 120.552 125.741 125.18C128.896 129.62 129.695 135.127 131.344 140.211C132.158 143.861 133.85 147.502 134.157 151.184C132.76 155.48 132.174 160.017 130.312 164.172C128.8 168.375 125.914 169.018 122.043 167.25C119.045 165.97 115.847 164.746 116.897 160.813C118.482 154.174 119.288 147.275 120.926 140.703Z" fill="#D52B1E"/>
<path d="M120.082 58.9832C120.569 60.1535 122.591 59.4401 123.54 59.2264C124.94 58.8603 125.95 58.0241 127.034 57.0916C129.102 61.0245 130.684 65.2139 133.522 68.7086C133.901 69.2109 134.018 69.6704 133.826 70.2422C131.667 76.2858 128.071 84.0314 122.335 87.2883C120.833 87.5608 119.997 85.1695 118.896 84.2825C119.946 81.2661 120.793 78.1026 122.209 75.2305C122.362 74.6213 123.166 73.8652 122.805 73.2854C121.667 73.3709 120.304 75.8637 119.356 76.6866C116.345 80.2908 112.532 82.7249 108.161 84.3146C100.29 87.2108 95.5957 78.3591 92.4483 72.6361C91.3342 72.1285 90.5674 73.3789 89.4639 73.1117C88.951 71.5354 89.5361 69.7052 89.4159 68.03C87.9731 62.1921 83.5566 57.1477 83.2066 50.9438C82.8139 47.7991 92.7502 42.7093 95.5048 41.6353C100.961 38.902 102.085 43.2196 104.883 46.896C106.494 49.4529 113.483 57.7729 115.583 52.1381C115.027 47.906 119.749 44.7479 123.518 46.343C128.776 48.288 128.456 56.2794 123.144 57.8825C122.14 58.2699 121.015 58.4435 120.082 58.9832Z" fill="#EED3CA"/>
<path d="M74.5746 73.2908C73.2387 74.3382 68.4642 77.058 68.8944 78.8054C69.2658 79.102 69.589 78.6478 69.8188 78.3939C71.8226 76.513 74.6628 73.0904 77.6632 74.6187C75.8223 75.9466 71.3444 78.0867 71.7585 80.6409C74.1311 78.7065 79.488 71.6824 81.1979 77.9718C79.0926 78.7947 76.3032 79.7886 75.491 82.0249C75.7395 82.2226 75.8624 82.065 75.9906 81.9795C77.5483 80.9455 79.0925 79.7779 80.9922 79.5027C83.6533 79.102 83.5785 83.1498 83.4796 84.9559C83.2685 86.2223 82.0556 86.7834 80.8212 86.9303C79.472 85.8162 81.3823 84.4215 80.9521 83.0803C80.1078 83.5799 80.041 84.4589 79.4586 85.1242C78.6223 84.7662 78.6223 84.7662 78.096 84.9586C79.7605 88.1353 83.4422 92.9606 78.2456 94.8683C77.949 95.0526 77.7086 95.3011 77.8395 95.774C78.7425 96.1614 79.5013 95.4587 80.383 95.3278C83.4956 99.413 74.5559 99.6481 72.2261 99.8859C70.2142 97.2087 69.394 93.7114 68.1543 90.5934C67.4356 86.949 64.2508 82.391 66.089 78.8428C67.3501 76.871 72.3677 69.3633 74.5746 73.2908Z" fill="#EED3CA"/>
<path d="M154.55 148.253C154.454 149.365 153.708 150.385 154.023 151.593C155.327 151.216 155.83 148.171 156.556 146.99C156.781 146.268 156.463 145.05 155.61 144.868C155.092 145.408 155.594 146.217 155.119 146.8C154.555 146.8 153.973 146.8 153.468 146.8C152.776 145.846 153.604 144.019 153.85 142.931C154.908 140.374 158.127 139.776 160.374 138.616C163.575 141.341 167.38 143.017 170.973 145.24C170.527 148.045 168.876 158.035 165.24 157.623C165.336 157.338 165.437 157.033 165.555 156.683C163.941 156.814 162.803 159.488 160.615 157.877C160.844 157.129 161.79 156.811 161.641 155.82C160.08 156.672 158.533 158.072 156.928 156.512C157.147 155.801 158.322 155.579 158.028 154.698C157.561 154.674 157.275 155.018 156.941 155.24C155.578 156.231 152.701 156.223 152.442 154.155C152.354 152.48 151.662 147.422 154.55 148.253Z" fill="#EED3CA"/>
<path d="M135.857 90.0053C134.655 91.6725 132.528 92.6477 131.74 94.5874C131.98 94.908 132.226 95.2393 132.472 95.5707C132.063 96.3562 132.523 96.8932 133.057 97.3233C135.809 99.2016 132.224 105.235 131.972 108.157L131.983 108.136C130.658 113.434 129.405 118.938 128.39 124.325C128.016 124.226 128.146 123.918 128.122 123.715C127.684 118.249 127.671 112.705 128.32 107.257C129.202 96.0436 132.688 85.3377 135.724 74.5703C136.568 75.5936 136.13 76.7558 136.076 77.8727C135.881 81.9151 135.395 85.9522 135.857 90.0053Z" fill="#D52B1E"/>
<path d="M148.62 76.0851C148.724 74.7652 150.218 73.9423 150.848 72.8415C150.766 72.5049 150.53 72.5289 150.33 72.4835C148.235 71.9571 146.061 71.8556 143.928 71.5243C142.122 71.1316 138.702 71.7915 138.625 69.1812C154.685 71.1316 155.535 71.3159 165.516 83.9001C170.307 89.9544 175.29 95.8671 179.746 102.175C181.181 104.003 182.162 106.1 182.594 108.392C177.777 102.616 173.045 96.5751 168.228 90.7292C163.144 84.7684 158.773 78.1718 153.061 72.7721C151.637 73.269 149.716 76.1839 148.62 76.0851Z" fill="#FCA6A6"/>
<path d="M123.28 95.4531C124.087 95.1779 124.733 94.9963 125.505 95.0951C126.897 103.749 126.601 112.424 126.542 121.153C124.498 117.341 123.731 112.708 122.598 108.484C122.206 104.147 122.724 99.7628 123.28 95.4531Z" fill="#212492"/>
<path d="M124.022 119.657C121.89 116.029 120.177 112.136 118.545 108.251C116.979 105.448 117.431 103.207 118.547 100.316C118.809 98.8196 116.012 98.5471 116.284 96.944C116.557 94.0184 116.944 91.1088 117.361 88.1992C117.604 87.3549 117.31 86.1981 118.005 85.5916C118.363 85.8561 118.344 86.1981 118.326 86.5962C118.593 90.0802 118.435 93.5936 119.05 97.0429C120.046 104.692 121.906 112.203 124.26 119.545C124.145 119.51 124.065 119.542 124.022 119.657Z" fill="#D52B1E"/>
<path d="M115.747 170.157C118.777 170.75 106.463 191.905 105.365 194.916C102.297 201.206 101.287 208.259 99.1367 214.821C100.117 198.67 109.41 184.635 115.747 170.157Z" fill="#6A6969"/>
<path d="M173.43 140.217C172.957 142.196 172.642 142.41 170.568 142.039C167.111 141.392 163.405 140.038 161.252 137.125C161.511 136.358 161.784 135.648 162.136 134.894C165.703 137.189 169.369 139.062 173.43 140.217Z" fill="white"/>
<path d="M82.9018 97.6631C83.5671 98.1761 84.0079 98.8494 84.4461 99.52C83.1102 101.385 77.1548 105.433 74.2987 106.074C73.7429 105.232 73.0403 104.449 72.6582 103.442C76.5884 102.424 79.8907 100.426 82.9018 97.6631Z" fill="white"/>
<path d="M120.927 140.703C120.572 146.301 118.961 151.804 117.999 157.338C117.371 159.836 116.738 162.294 117.587 164.827C114.071 163.154 115.592 161.148 116.193 158.214C117.553 152.641 118.891 147.062 120.243 141.489C120.329 141.117 120.411 140.714 120.927 140.703Z" fill="#FCA6A6"/>
<path d="M178.406 160.672C177.837 157.356 173.313 144.302 175.058 142.22C176.789 148.087 178.392 153.992 179.878 159.932C179.434 160.327 178.962 160.575 178.406 160.672Z" fill="#FCA6A6"/>
<path d="M121.443 91.9452C120.949 85.9123 128.312 89.5887 127.265 91.5151C126.72 92.4662 126.233 93.7514 124.945 93.7808C123.155 94.1682 121.128 94.5395 121.443 91.9452Z" fill="#212492"/>
<path d="M96.4455 114.776C94.7302 114.591 92.6542 110.832 91.2195 109.59C89.1569 107.215 87.1103 104.834 85.5206 102.111C84.1339 102.515 83.2362 103.792 81.6973 103.776C83.0973 102.584 84.3797 101.467 85.8198 100.225C89.5603 104.879 92.6088 110.156 96.4455 114.776Z" fill="#FCA6A6"/>
<path d="M135.86 90.0051C134.665 89.6711 135.547 84.7069 135.314 83.4111C135.499 80.4614 135.902 77.5358 135.723 74.5701C136.028 72.5583 136.373 70.5117 135.713 68.5292C137.626 67.8051 136.466 79.4568 136.733 81.0893C136.418 83.8252 137.113 87.6245 135.86 90.0051Z" fill="#FCA6A6"/>
<path d="M131.971 108.158C132.224 105.176 133.403 102.344 133.98 99.4048C134.113 98.1009 132.321 97.5425 131.877 96.3937C131.583 95.8994 131.914 95.4505 132.473 95.5707C133.272 96.5272 135.345 97.1311 135.016 98.6006C134.001 101.78 133.266 105.085 131.971 108.158Z" fill="#FCA6A6"/>
<path d="M127.381 100.69C127.199 98.9131 127.023 97.1337 126.836 95.3596C126.643 94.0264 127.952 93.2916 128.529 92.1775C128.944 92.5916 129.157 93.0432 129 93.6443C128.441 94.5367 128.099 101.344 127.381 100.69Z" fill="white"/>
<path d="M113.51 33.6007C113.288 34.0229 112.869 34.0469 112.497 33.9641C111.119 33.2961 109.607 33.3897 108.169 33.1439C107.028 31.677 113.136 32.1125 113.51 33.6007Z" fill="white"/>
<path d="M90.2778 32.4921C88.6373 32.265 87.1465 32.5509 85.5407 32.6497C84.6163 31.434 90.5851 30.6726 90.2778 32.4921Z" fill="white"/>
<path d="M92.9241 31.1137C91.7325 31.2794 90.458 30.6301 89.2531 30.4645C88.7828 30.3282 89.1488 29.7778 89.4828 29.7725C90.4821 29.8232 92.9 29.7858 92.9241 31.1137Z" fill="white"/>
<path d="M115.465 32.6981C114.34 32.8584 113.25 32.0755 112.146 31.8297C111.927 31.7549 111.81 31.5786 111.954 31.266C112.889 31.1564 115.406 31.5011 115.465 32.6981Z" fill="white"/>
<path d="M119.504 87.6167C120.076 88.0201 120.378 88.2312 120.712 88.4663C120.49 89.2892 120.273 90.0828 120.041 90.9458C119.632 89.9144 119.637 88.9072 119.504 87.6167Z" fill="white"/>
<path d="M75.4473 72.0966C76.3957 71.2096 77.8038 71.8241 77.8679 73.0932C76.8606 72.981 75.8641 73.2455 75.4473 72.0966Z" fill="#EED3CA"/>
<path d="M95.0198 29.4168C94.6003 29.4488 91.4289 28.7969 92.5964 28.2358C93.4113 28.2893 94.9182 28.471 95.0198 29.4168Z" fill="white"/>
<path d="M121.984 95.5999C121.984 94.4724 120.758 95.3647 120.119 95.5651C120.36 97.2644 120.579 98.9877 120.958 100.692C120.993 101.008 120.814 101.414 121.394 101.617C121.394 101.245 121.394 100.965 121.394 100.684C121.583 98.9877 121.808 97.2965 121.984 95.5999Z" fill="white"/>
<path d="M124.257 119.547C124.449 119.758 124.636 119.97 124.401 120.279C124.029 120.213 124.024 119.932 124.021 119.654C124.102 119.62 124.179 119.582 124.257 119.547Z" fill="black"/>
<path d="M134.611 72.1228C134.507 72.4007 134.405 72.6785 134.301 72.9591C134.114 73.4854 132.674 76.9988 132.23 77.4985C130.504 80.9638 128.402 84.1539 125.513 86.7776C125.342 86.9326 125.081 87.0582 125.131 87.4028C126.9 88.2605 128.257 89.4842 129.641 90.9029C131.306 85.4765 132.682 80.0019 134.239 74.5461C134.6 74.0705 134.579 73.4854 134.71 72.9457C134.728 72.6839 134.75 72.422 134.769 72.1602C134.718 72.1469 134.664 72.1335 134.611 72.1228Z" fill="white"/>
<path d="M142.167 108.62C139.381 112.211 137.788 113.795 138.667 107.802C139.17 105.841 131.221 104.137 137.933 103.287C138.667 103.231 139.29 103.359 139.41 102.477C140.19 99.3594 140.444 97.0964 142.707 101.246C143.656 103.327 144.813 102.405 146.528 102.336C150.632 102.357 144.954 105.676 145.598 107.231C145.721 108.206 147.706 110.669 146.106 110.992C144.505 110.854 143.573 109.274 142.167 108.62Z" fill="black"/>
<path d="M148.622 76.0852C149.763 75.0994 150.709 73.7741 152.194 73.2932C151.89 74.8776 150.215 76.0639 149.373 77.4505C145.459 82.3907 144.679 89.316 146.984 95.1325C147.265 96.0569 147.858 96.8585 147.743 97.8604C141.892 93.3745 144.142 80.996 148.633 76.0772L148.622 76.0852Z" fill="black"/>
<path d="M149.825 144.005C146.943 144.117 134.708 143.297 133.854 140.537C136.565 140.719 139.205 141.694 141.904 142.129C144.479 142.848 147.554 142.656 149.825 144.005Z" fill="black"/>
<path d="M149.75 139.671C146.71 140.513 143.854 140.158 140.784 140.419C139.875 140.417 139.17 140.561 138.32 140.035C140.551 139.26 143.119 139.727 145.483 139.418C147.017 139.412 148.177 138.886 149.75 139.671Z" fill="black"/>
<path d="M148.63 76.0774C148.545 76.1762 148.457 76.2751 148.371 76.3766C148.457 76.2778 148.542 76.1762 148.63 76.0774Z" fill="black"/>
<path d="M104.613 70.1061C104.498 70.1596 104.381 70.2104 104.236 70.2771C104.135 75.5192 95.3447 78.8296 94.6367 72.4547C96.0928 70.5924 98.3932 69.5103 99.689 67.4557C101.899 67.2393 104.068 68.3935 104.613 70.1061Z" fill="black"/>
<path d="M120.133 51.2431C121.477 51.9538 123.198 51.903 123.986 53.2069C123.187 54.0325 121.069 52.6378 119.802 53.0145C119.217 54.0084 119.904 55.4752 119.035 56.2554C116.77 55.6275 118.72 49.9393 119.743 48.566C120.139 48.1224 120.66 47.0885 121.371 47.4064C121.916 48.0957 120.208 50.2198 120.133 51.2431Z" fill="black"/>
<path d="M93.7246 53.7064C93.607 54.1098 93.2276 54.1739 92.915 54.2193C90.5639 54.54 90.1765 57.0114 89.4017 58.8202C88.8807 60.5782 86.8661 59.7339 87.4513 58.1041C88.2181 55.5739 90.0856 52.496 93.1608 53.2655C93.3933 53.335 93.6605 53.4338 93.7246 53.7064Z" fill="black"/>
<path d="M91.4043 63.509C91.6875 56.8749 99.2513 57.4173 97.3837 59.3249C94.7093 59.6295 93.1249 61.8605 92.7161 64.3666C92.0802 65.5609 91.407 64.241 91.4043 63.509Z" fill="black"/>
<path d="M94.9407 61.6792C95.4804 62.4834 94.3769 63.472 94.0323 64.2201C92.6349 64.5033 94.4624 62.0506 94.9407 61.6792Z" fill="black"/>
<path d="M99.2891 76.8201C100.336 76.8362 100.994 76.227 101.937 75.9785C101.643 77.2503 100.152 78.0385 99.2891 76.8201Z" fill="black"/>
<path d="M145.804 103.899C144.616 105.376 143.408 106.343 144.439 108.182C143.883 108.441 143.354 107.519 142.86 107.3C141.591 106.277 141.166 108.187 140.159 108.54C140.234 106.09 140.167 106.271 138.094 104.895C138.513 104.633 138.762 104.559 139.205 104.569C140.854 104.681 140.405 102.614 141.121 101.665C141.596 101.93 141.794 102.424 142.051 102.873C142.785 104.724 144.124 103.979 145.804 103.899Z" fill="#FFCE24"/>
<path d="M96.9648 74.1484C99.6259 73.2267 100.908 70.7473 102.966 69.0747C104.51 71.7759 99.0088 77.3439 96.9648 74.1484Z" fill="white"/>
<path d="M95.5859 72.6254C96.8417 71.8399 97.9852 71.0944 98.8989 70.0631C99.6818 69.4166 99.9356 67.8322 101.25 68.4547C100.967 70.4559 98.9978 71.888 97.4081 72.97C96.5237 73.459 96.513 73.4617 95.5859 72.6254Z" fill="white"/>
</g>
<defs>
<clipPath id="clip0_2223_19746">
<rect width="200" height="200" fill="white"/>
</clipPath>
</defs>
</svg>
