<svg width="200" height="200" viewBox="0 0 200 200" fill="none" xmlns="http://www.w3.org/2000/svg">
<path d="M129.854 123.22C129.839 123.342 114.893 125.88 114.893 125.88L82.4763 130.701C82.4763 130.701 39.4836 164.444 39.3824 164.535C37.7325 166.021 37.6176 166.927 39.295 168.389C41.1422 170 43.0643 171.582 45.1501 172.853C49.8361 175.708 54.5884 178.467 59.4156 181.074C65.0047 184.091 70.6662 186.982 76.3676 189.783C80.8439 191.98 85.3151 194.224 90.1386 195.616C90.2597 195.651 90.3272 195.869 90.4208 196H94.6548C95.2318 195.678 95.7739 195.247 96.3908 195.049C101.254 193.49 106.043 191.736 110.584 189.383C114.774 187.212 118.897 184.909 123.085 182.734C126.677 180.868 130.352 179.164 133.928 177.269C137.469 175.392 140.935 173.371 144.427 171.399C148.828 168.913 153.462 166.813 157.39 163.54C159.442 161.83 161.62 160.264 162.87 157.776C163.917 155.692 163.27 153.644 161.341 152.751" fill="#AA9683"/>
<path d="M167.191 123.026C166.894 117.467 165.636 112.148 162.643 107.378C159.425 102.246 154.986 98.8751 148.765 98.3468C147.173 98.2119 145.56 98.3268 143.929 98.3268C143.922 98.2818 143.89 98.1807 143.89 98.0782C143.89 90.1436 143.889 82.2091 143.9 74.2745C143.9 73.9298 143.935 73.5538 144.075 73.2466C144.385 72.5647 144.793 72.1488 145.691 72.5084C147.575 73.2641 149.908 73.0655 150.77 70.6312C150.876 70.3302 151.399 69.9481 151.693 69.9781C153.19 70.1279 154.013 69.3136 154.569 68.1159C155.005 67.1767 155.651 66.8107 156.671 67.0006C158.101 67.2666 159.05 66.5509 159.665 65.3532C160.804 63.1338 160.693 60.9194 159.385 58.8187C158.107 56.7654 156.106 56.3183 154.012 57.5235C150.87 59.332 147.741 61.1679 144.584 62.9502C143.087 63.7957 142.224 64.9997 142.013 66.712C141.973 67.0318 141.743 67.4539 141.476 67.6013C139.503 68.6916 138.154 70.1592 138.333 72.7083C137.899 72.476 137.621 72.3361 137.352 72.18C124.639 64.8399 111.925 57.4985 99.2129 50.1547C98.225 49.5839 98.0326 47.0973 98.9731 46.4428C99.2678 46.238 99.8149 46.1805 100.162 46.3004C102.1 46.9661 104.411 46.8137 105.263 44.407C105.371 44.101 105.887 43.7076 106.176 43.7376C107.667 43.8874 108.514 43.1006 109.061 41.8904C109.514 40.8862 110.211 40.5765 111.26 40.7626C112.537 40.9899 113.407 40.3679 114.057 39.3138C115.368 37.1868 115.15 33.9757 113.543 32.0711C112.231 30.5149 110.488 30.1615 108.719 31.1681C105.384 33.0665 102.069 34.9999 98.7483 36.9233C97.5093 37.6414 96.7387 38.718 96.6138 40.1393C96.5463 40.9124 96.2066 41.3121 95.5634 41.6531C93.7262 42.626 92.7908 44.1335 92.812 46.2705C92.852 50.2546 92.8157 54.24 92.8107 58.2242C92.8107 58.5202 92.8107 58.8162 92.8107 59.1796C92.1625 59.006 91.6542 58.7512 91.1521 58.7625C90.2304 58.7824 89.1576 58.6888 88.4144 59.1109C78.5927 64.7 68.8159 70.3677 59.0316 76.023C57.298 77.0247 56.3288 79.254 58.2822 81.0163C56.0616 82.6212 54.7577 84.8444 54.1432 87.4534C53.7985 88.9184 53.5125 90.4384 53.505 91.9346C53.4488 102.619 53.4737 113.304 53.4637 123.989C53.4625 125.357 53.8434 126.968 53.2552 128.023C52.6906 129.035 51.1207 129.521 49.9454 130.15C47.9846 131.202 46.7769 132.814 46.2935 134.947C46.0537 136.004 45.8851 137.099 45.8689 138.18C45.8152 141.705 45.8289 145.232 45.8601 148.758C45.8664 149.435 45.6915 149.827 45.0708 150.177C41.6062 152.129 38.1691 154.131 34.7282 156.125C33.5617 156.8 32.9484 157.832 33.0034 159.177C33.0571 160.491 33.9863 161.479 35.214 162.003C36.6216 162.604 37.9605 163.366 39.3293 164.058C39.5779 164.182 39.8327 164.293 40.0725 164.431C44.2152 166.818 48.3468 169.226 52.5133 171.57C52.9542 171.819 53.7323 171.934 54.1332 171.713C57.5453 169.821 60.9225 167.865 64.2609 165.846C64.7081 165.577 65.109 164.857 65.1277 164.331C65.1652 163.279 64.9042 162.217 64.8105 161.155C64.793 160.952 64.9379 160.704 65.069 160.52C67.9678 156.426 68.8958 151.909 67.9828 146.996C67.3409 144.493 66.2717 142.231 64.3109 140.468C62.9083 139.206 61.2709 138.456 59.3313 138.168V119.579C60.4304 120.208 61.4845 120.81 62.5361 121.417C64.0311 122.278 65.5499 123.101 66.9999 124.031C67.397 124.286 67.7617 124.84 67.8404 125.307C68.922 131.746 71.1739 137.594 76.1297 142.118C83.4736 147.998 91.1234 147.176 98.9643 142.983C98.9643 145.907 98.7558 148.673 99.0243 151.394C99.2828 154.004 98.4735 155.553 96.0293 156.563C93.5439 157.59 92.3511 159.783 92.0027 162.368C91.7966 163.896 91.7916 165.455 91.7729 167.002C91.7391 169.736 91.7629 172.471 91.7629 175.381C91.1646 175.047 90.7113 174.804 90.2654 174.545C85.9965 172.08 81.7113 169.642 77.4724 167.127C76.4545 166.522 75.6639 166.545 74.6597 167.149C71.6135 168.984 68.5761 170.853 65.405 172.452C63.5628 173.381 62.8271 174.593 63.2156 176.525C63.308 176.982 63.579 177.564 63.9487 177.781C68.7747 180.62 73.6343 183.399 78.4753 186.212C78.8112 186.407 79.1222 186.714 79.337 187.039C80.1601 188.281 81.5589 188.927 82.9952 188.494C83.8208 188.245 84.5914 187.779 85.352 187.348C87.6076 186.072 89.8445 184.763 92.135 183.442C92.3024 183.92 92.4273 184.285 92.5584 184.647C95.3161 192.238 103.437 194.065 109.151 188.364C111.88 185.641 113.292 182.286 113.713 178.49C114.09 175.094 113.528 171.876 111.696 168.959C110.101 166.418 107.818 164.832 104.882 164.404C104.811 164.294 104.776 164.265 104.776 164.235C104.763 157.501 104.744 150.768 104.771 144.033C104.772 143.715 105.118 143.283 105.421 143.099C107.049 142.119 108.715 141.201 110.367 140.26C111.428 139.657 112.485 139.05 113.505 138.468C113.44 141.496 113.249 144.452 113.342 147.398C113.52 152.96 114.775 158.27 117.581 163.14C122.335 171.39 130.678 174.643 139.704 171.744C144.581 170.178 148.588 167.244 152.167 163.668C155.554 160.284 158.223 156.368 160.561 152.212C160.593 152.112 160.61 152.004 160.658 151.913C165.394 142.862 167.738 133.262 167.191 123.026ZM51.8114 140.63L51.5666 140.486C51.7714 138.624 50.9858 136.445 53.425 135.107C53.425 136.573 53.5836 137.915 53.3513 139.185C53.2489 139.742 52.3484 140.153 51.8114 140.63ZM60.4841 144.75C61.6581 146.943 61.7018 149.23 61.0262 151.573C60.6752 153.493 59.7597 155.125 58.497 156.588C58.1186 157.026 57.7751 157.144 57.2468 156.774C56.4475 156.214 55.5907 155.737 54.7576 155.225C52.4883 154.275 52.4846 154.274 52.9017 151.921C52.9704 151.531 53.094 151.15 53.2264 150.635C54.062 153.003 54.8963 153.492 57.288 153.137C57.7626 152.926 58.2372 152.714 58.7118 152.503C58.7156 152.501 58.7193 152.499 58.7231 152.498C58.7193 152.499 58.7156 152.5 58.7118 152.503C58.8992 151.887 59.2301 151.275 59.2501 150.653C59.3176 148.552 59.2764 146.448 59.2764 144.327C59.9046 143.835 60.2218 144.262 60.4841 144.75ZM82.6355 135.598C81.6763 134.24 80.8358 133.053 79.9965 131.864C80.0827 131.784 80.1688 131.703 80.255 131.623C81.3279 132.251 82.402 132.879 83.5385 133.545C83.2762 134.139 83.0264 134.708 82.6355 135.598ZM87.7737 136.25H84.1805C84.5164 135.567 84.7725 135.047 85.0735 134.435C86.0464 134.995 86.9581 135.521 87.8699 136.045C87.8374 136.114 87.8049 136.181 87.7737 136.25ZM92.7683 71.4243C92.7433 71.6916 92.2787 71.9676 91.964 72.15C84.0194 76.7524 76.0673 81.3435 68.1164 85.9359C65.2863 87.5708 62.4537 89.2007 59.4125 90.9542C59.9658 88.485 60.855 86.6041 62.9908 85.3839C72.7026 79.8323 82.3757 74.2108 92.0626 68.6155C92.2437 68.5105 92.4336 68.4244 92.8082 68.2333C92.807 69.3686 92.8632 70.4039 92.7683 71.4243ZM97.7366 166.657C97.1571 164.544 97.5692 162.856 98.9556 161.824C98.9556 163.082 99.0742 164.177 98.9044 165.223C98.8244 165.719 98.1925 166.125 97.7366 166.657ZM104.761 171.376C104.764 171.047 104.981 170.721 105.098 170.395C105.408 170.625 105.834 170.789 106.006 171.095C106.979 172.824 107.114 174.695 106.802 176.622C106.368 179.305 105.381 181.709 103.23 183.484C102.298 184.253 101.222 184.676 99.991 184.252C99.1879 183.976 98.6408 183.492 98.4373 182.579C97.9851 180.56 98.14 178.613 98.8869 176.444C99.3353 178.998 100.349 179.803 102.411 179.469C104.046 179.204 104.749 178.427 104.767 176.765C104.788 174.969 104.737 173.172 104.761 171.376ZM126.155 133.999C126.512 131.163 128.122 129.387 130.976 128.561C131.804 129.433 132.746 130.417 133.679 131.41C134.932 132.743 136.177 134.083 137.426 135.419C138.545 136.617 138.351 137.936 136.94 138.723C132.702 141.196 128.466 143.669 124.016 146.265C124.196 141.921 124.893 137.914 126.155 133.999ZM128.521 161.752C126.381 159.605 125.302 156.949 124.703 154.091C124.357 152.444 124.214 150.749 124.061 149.068C124.031 148.737 124.271 148.211 124.547 148.049C128.915 145.482 133.311 142.959 137.702 140.43C137.789 140.379 137.903 140.372 138.306 140.262C138.306 140.842 138.474 141.417 138.281 141.817C135.139 148.346 131.953 154.854 128.773 161.366C128.713 161.493 128.622 161.601 128.521 161.752ZM140.177 158.99C140.171 159.331 140.039 159.811 139.794 159.981C137.134 161.822 134.276 163.082 130.93 162.741C130.728 162.72 130.53 162.653 130.212 162.58C133.517 155.796 136.756 149.145 139.996 142.495C140.062 142.515 140.129 142.535 140.195 142.555C140.195 146.165 140.195 149.776 140.195 153.387C140.195 155.254 140.215 157.122 140.177 158.99ZM140.172 133.572C140.166 134.012 139.833 134.445 139.573 135.066C137.076 132.404 134.837 130.016 132.49 127.515C132.936 127.249 133.335 127.004 133.74 126.769C135.505 125.746 137.265 124.716 139.039 123.709C139.88 123.232 140.189 123.414 140.192 124.375C140.203 127.441 140.218 130.507 140.172 133.572ZM142.826 123.31C143.591 123.036 143.902 122.412 143.894 121.559C143.865 117.858 143.908 114.156 143.865 110.455C143.857 109.725 144.101 109.416 144.765 109.178C146.757 108.462 148.798 107.971 150.85 108.627C151.748 108.913 152.504 109.707 153.244 110.362C153.389 110.49 153.245 111.076 153.096 111.386C150.87 116.009 148.62 120.621 146.375 125.235C145.009 128.041 143.643 130.846 142.278 133.651C142.188 133.632 142.099 133.612 142.009 133.593C142.009 131.071 142.009 128.549 142.009 126.026C142.009 125.568 142.051 125.104 141.999 124.652C141.926 123.965 142.127 123.561 142.826 123.31ZM142.067 158.26C142.043 157.778 142.017 157.478 142.017 157.179C142.014 152.455 142.037 147.732 141.994 143.009C141.987 142.169 142.262 141.692 143.085 141.449C145.304 143.821 147.537 146.209 149.817 148.646C147.736 152.208 145.284 155.416 142.067 158.26ZM150.765 146.985C148.666 144.753 146.701 142.632 144.696 140.551C144.28 140.119 144.288 139.777 144.472 139.256C144.692 138.635 144.915 137.944 144.85 137.312C144.76 136.434 145.176 136.095 145.831 135.722C149.136 133.846 152.418 131.931 155.709 130.033C155.914 129.915 156.134 129.825 156.506 129.646C155.587 135.824 153.667 141.497 150.765 146.985ZM156.357 127.516C152.281 129.938 148.167 132.296 143.863 134.535C147.417 127.233 150.972 119.93 154.596 112.484C155.681 114.412 156.294 116.362 156.497 118.375C156.762 120.995 156.801 123.641 156.871 126.276C156.882 126.695 156.672 127.33 156.357 127.516Z" fill="black"/>
<path d="M138.27 76.2502C138.27 79.2677 138.27 82.2851 138.27 85.3825C137.81 85.2689 137.442 85.1814 137.074 85.0865C135.76 84.7456 134.569 84.8742 133.339 85.5923C124.82 90.5632 116.259 95.4641 107.735 100.426C106.962 100.876 106.411 100.895 105.649 100.427C103.488 99.1035 101.254 97.8945 99.0875 96.5794C98.7528 96.3758 98.4156 95.8475 98.4143 95.4691C98.3818 81.8255 98.3906 68.1807 98.3956 54.5359C98.3956 54.2199 98.4268 53.9039 98.443 53.5879C98.9264 53.3631 99.2399 53.7491 99.5933 53.9302C106.109 57.2824 112.36 61.1004 118.702 64.7574C124.955 68.3631 131.182 72.0088 137.413 75.652C137.71 75.8281 138.054 75.9505 138.27 76.2502Z" fill="#E2665B"/>
<path d="M98.9158 140.443C85.6032 132.755 72.438 125.152 59.1504 117.478C59.4701 117.206 59.6487 117.001 59.8723 116.871C70.918 110.499 81.9612 104.123 93.0257 97.7834C94.5382 96.9166 96.2468 97.1214 97.6968 97.8421C100.148 99.0623 102.469 100.545 104.863 101.927C102.315 104.032 102.042 105.298 103.75 107.254C101.084 109.236 99.8113 112.043 99.2905 115.216C99.0582 116.634 98.977 118.09 98.972 119.529C98.9432 126.298 98.9632 133.068 98.9657 139.837C98.9632 139.974 98.9432 140.11 98.9158 140.443Z" fill="#E2665B"/>
<path d="M92.7612 75.3868C92.7787 77.9247 92.8062 80.4626 92.8124 83.0004C92.8224 86.9858 92.8137 90.9713 92.8237 94.9579C92.8249 95.5012 92.8074 95.9296 92.2192 96.268C81.4032 102.485 70.6023 108.729 59.7976 114.965C59.6802 115.032 59.5491 115.077 59.4179 115.137C59.358 115.069 59.2793 115.02 59.2793 114.972C59.2793 108.132 59.2843 101.29 59.2893 94.4496C61.2789 93.1906 63.3596 92.0878 65.3817 90.8851C71.2493 87.3955 77.188 84.0308 83.0381 80.51C85.932 78.769 88.8245 77.0204 91.8882 75.5817C92.163 75.453 92.4115 75.1907 92.7612 75.3868Z" fill="#E2665B"/>
<path d="M127.828 107.866C125.187 110.846 122.77 113.99 120.801 117.464C117.654 123.019 115.461 128.923 114.214 135.185C114.123 135.645 113.842 136.222 113.469 136.447C110.757 138.083 108.001 139.644 105.257 141.227C105.143 141.292 105.011 141.327 104.899 141.372C104.832 141.282 104.764 141.23 104.764 141.18C104.767 134.49 104.776 127.799 104.784 121.109C111.777 117.081 118.591 112.756 125.543 108.659C126.03 108.373 126.522 108.098 127.023 107.84C127.279 107.709 127.576 107.449 127.828 107.866Z" fill="#E2665B"/>
<path d="M93.9942 65.0562C93.7194 65.3672 93.5021 65.7781 93.1611 65.9767C88.1079 68.9217 83.0384 71.8392 77.9714 74.7618C72.6608 77.8255 67.3466 80.8842 62.0398 83.9528C59.1459 85.6252 57.7846 88.2804 57.7371 91.4878C57.6247 98.9615 57.6809 106.438 57.6747 113.913C57.6697 120.435 57.6909 126.955 57.6684 133.478C57.6497 139.082 57.5623 144.686 57.5673 150.29C57.5685 151.291 57.0464 151.497 56.2871 151.545C55.4453 151.597 55.1943 151.057 55.193 150.326C55.1855 145.143 55.1743 139.96 55.193 134.778C55.1943 134.48 55.3978 134.131 55.6077 133.895C57.029 132.294 57.029 130.45 55.6326 128.844C55.3853 128.56 55.1942 128.117 55.1942 127.746C55.1867 115.581 55.1343 103.414 55.2667 91.2505C55.3029 87.9207 56.2484 84.7447 59.121 82.5703C59.6455 82.1731 60.2737 81.8946 60.8895 81.6485C61.1343 81.5511 61.5652 81.5848 61.755 81.7447C62.6567 82.5053 63.4798 82.2468 64.3741 81.7297C71.904 77.3659 79.4439 73.0183 86.9813 68.6657C88.9347 67.5379 90.8843 66.4051 92.8389 65.2798C93.1362 65.1087 93.4522 64.97 93.7582 64.8164C93.8368 64.8938 93.9155 64.975 93.9942 65.0562Z" fill="#848484"/>
<path d="M39.7382 160.869C41.202 159.974 42.6608 159.072 44.1295 158.185C45.9643 157.079 47.7965 155.967 49.6561 154.905C49.8922 154.771 50.3531 154.809 50.6054 154.953C54.6732 157.265 58.7261 159.603 62.7752 161.946C63.7606 162.517 63.7943 164.138 62.8289 164.705C60.2198 166.235 57.5995 167.748 54.9767 169.256C54.6782 169.427 54.3297 169.512 54.005 169.636C49.5575 166.954 45.1025 164.284 40.5438 161.793C40.1754 161.592 39.6408 161.494 39.7382 160.869Z" fill="#474747"/>
<path d="M76.8406 168.934C78.9264 170.093 81.0221 171.237 83.0954 172.416C85.5633 173.82 88.0138 175.256 90.6465 176.779C88.9692 177.748 87.423 178.62 85.8993 179.528C83.7886 180.786 81.6928 182.071 79.5908 183.345C79.1924 183.542 78.9164 183.246 78.6341 183.075C74.5688 180.627 70.4872 178.208 66.312 175.947C65.4439 175.478 65.4477 175.138 66.2945 174.634C69.4368 172.767 72.6142 170.958 75.759 169.094C76.0975 168.896 76.4372 168.699 76.8406 168.934Z" fill="#474747"/>
<path d="M139.497 91.3435C139.203 91.6495 138.962 92.0442 138.61 92.2478C131.082 96.6116 123.541 100.954 116.004 105.302C113.226 106.903 110.46 108.524 107.672 110.107C104.686 111.801 103.274 114.483 103.227 117.774C103.116 125.422 103.171 133.074 103.166 140.725C103.161 148.091 103.14 155.457 103.192 162.824C103.201 163.951 103.055 164.65 101.757 164.607C101.451 164.597 101.14 164.716 100.67 164.807C100.67 163.562 100.653 162.381 100.688 161.204C100.693 161.014 100.894 160.783 101.066 160.65C103.041 159.118 103.102 156.665 101.246 155.024C100.936 154.75 100.69 154.221 100.69 153.809C100.675 141.753 100.667 129.696 100.734 117.64C100.749 115.074 101.365 112.568 102.972 110.495C103.683 109.579 104.711 108.89 105.661 108.188C106.277 107.734 106.939 107.62 107.671 108.228C108.366 108.806 109.128 108.39 109.824 107.988C116.38 104.194 122.939 100.407 129.497 96.6178C132.426 94.9255 135.354 93.2319 138.284 91.5434C138.584 91.371 138.897 91.2224 139.203 91.0625C139.3 91.1562 139.399 91.2499 139.497 91.3435Z" fill="#848484"/>
<path d="M138.305 94.4858C138.305 95.6161 138.384 96.5641 138.264 97.4858C138.22 97.828 137.766 98.2002 137.41 98.4063C128.453 103.598 119.485 108.769 110.52 113.945C108.725 114.981 106.933 116.02 104.891 117.202C105.439 114.919 106.111 113.03 108.07 111.896C115.569 107.56 123.069 103.226 130.568 98.8909C132.762 97.622 134.957 96.3505 137.154 95.0854C137.475 94.903 137.809 94.7444 138.305 94.4858Z" fill="#E2665B"/>
<path d="M94.4881 81.2395C94.4881 76.9381 94.4919 72.6355 94.4844 68.3341C94.4831 67.7271 94.6517 67.2874 95.0477 66.7554C95.4748 66.1821 95.6184 65.2329 95.5397 64.4848C95.4011 63.1609 95.6771 61.7021 94.5993 60.5743C94.4457 60.4132 94.4919 60.0348 94.4919 59.7563C94.4994 55.2438 94.5456 50.7313 94.5081 46.2189C94.4956 44.7376 95.3387 43.8908 96.4053 43.164C97.1596 42.6494 97.979 42.2272 98.777 41.7789C99.3366 41.4641 99.9823 41.4266 100.218 42.0624C100.374 42.4845 100.255 43.1864 99.9773 43.5474C99.6363 43.992 99.0193 44.243 98.491 44.5228C97.4994 45.0474 96.9835 45.8779 96.8487 46.957C96.7662 47.619 96.7013 48.2896 96.7013 48.9553C96.6925 64.1176 96.6863 79.2799 96.715 94.4409C96.7163 95.3989 96.459 95.811 95.4748 95.7486C94.6055 95.6936 94.4819 95.1866 94.4856 94.4622C94.5019 90.0546 94.4944 85.6471 94.4944 81.2395C94.4919 81.2395 94.4881 81.2395 94.4881 81.2395Z" fill="#898989"/>
<path d="M156.773 103.751C155.734 103.256 154.735 102.642 153.651 102.29C149.763 101.027 145.967 101.548 142.255 103.08C138.731 104.535 135.748 106.796 132.917 109.294C129.818 112.028 127.079 115.069 124.885 118.583C121.901 123.362 119.074 128.224 117.31 133.612C116.744 135.342 116.37 137.133 115.875 138.886C115.773 139.25 115.523 139.573 115.342 139.914C116.111 133.764 117.682 127.838 120.376 122.24C123.931 114.854 128.618 108.378 135.602 103.842C139.398 101.377 143.522 99.8891 148.144 100.121C151.153 100.273 153.832 101.318 156.274 103.027C156.5 103.185 156.61 103.506 156.773 103.751Z" fill="#4F4F4F"/>
<path d="M138.756 88.0985C139.402 88.6693 139.231 89.0103 138.519 89.4162C133.112 92.5073 127.729 95.6372 122.336 98.7508C118.04 101.231 113.75 103.723 109.423 106.152C108.994 106.393 108.311 106.346 107.792 106.227C106.876 106.018 105.995 105.653 105.1 105.352C105.112 104.521 105.879 104.429 106.372 104.143C110.424 101.798 114.453 99.4153 118.507 97.0773C124.025 93.8949 129.524 90.6789 135.097 87.5927C136.291 86.932 137.324 87.2505 138.367 87.875L138.354 87.87C138.45 88.0148 138.656 87.9649 138.756 88.0985Z" fill="#474747"/>
<path d="M91.9937 60.8164C92.7855 61.2261 93.4812 61.7219 93.7372 62.7486C91.7077 63.9226 89.7069 65.0804 87.7048 66.2356C81.0679 70.0687 74.4309 73.8992 67.7928 77.731C66.4526 78.5041 65.1312 79.3109 63.7611 80.0266C63.4164 80.2064 62.8931 80.1864 62.4935 80.089C61.4818 79.8429 60.5039 79.452 59.491 79.2147C58.8128 79.0561 58.909 78.7551 59.1675 78.3267C59.8669 78.5615 60.4652 78.3155 61.0697 77.977C67.9501 74.1315 74.8044 70.2435 81.5275 66.1282C84.2277 64.4759 87.0741 63.077 89.7856 61.4409C90.4463 61.0437 91.2006 60.8202 91.9937 60.8164Z" fill="#474747"/>
<path d="M97.4777 141.742C93.9095 143.691 90.2375 144.881 86.2759 144.555C81.3388 144.148 77.4683 141.714 74.5157 137.758C72.0191 134.415 70.7214 130.577 69.8309 126.568C69.7822 126.348 69.8434 126.103 69.8621 125.676C71.0961 126.4 72.2289 127.016 73.2968 127.728C73.5653 127.906 73.6939 128.385 73.7689 128.749C74.5382 132.515 76.0732 135.932 78.7072 138.735C80.7455 140.904 83.2734 142.292 86.3071 142.728C89.5294 143.19 92.5156 142.49 95.412 141.193C96.23 140.827 96.822 141.059 97.4777 141.742Z" fill="#303030"/>
<path d="M158.511 61.2208C158.911 62.3611 158.647 63.4564 158.154 64.473C157.849 65.1 157.396 65.5434 156.468 65.3048C155.294 65.0026 154.245 65.416 153.579 66.5276C153.344 66.9197 153.173 67.3768 152.859 67.6853C152.536 68.0013 152.058 68.3922 151.673 68.3672C150.299 68.2773 149.623 68.9742 149.124 70.1283C148.628 71.2773 148.043 71.4971 146.915 71.0925C147.62 69.9884 147.995 68.8506 147.358 67.5654C146.688 66.2103 145.477 66.0317 143.934 66.0654C144.267 65.5958 144.473 65.306 144.679 65.0163C146.101 65.0363 147.211 64.227 148.369 63.585C150.307 62.5097 152.225 61.3956 154.113 60.2341C155.983 59.0838 157.214 59.451 158.511 61.2208Z" fill="#303030"/>
<path d="M138.269 76.2498C137.25 75.719 136.207 75.2269 135.216 74.6499C125.917 69.2469 116.64 63.8077 107.329 58.426C104.409 56.7387 101.406 55.195 98.4414 53.5863C98.4414 53.0305 98.4414 52.476 98.4414 51.7578C98.8486 51.9651 99.1833 52.1175 99.4993 52.3011C112.23 59.6512 124.954 67.0138 137.701 74.3376C138.628 74.8709 138.211 75.5779 138.269 76.2498Z" fill="#E38C84"/>
<path d="M139.986 99.4468C139.986 97.5721 139.981 95.7086 139.995 93.8452C139.996 93.6878 140.069 93.4668 140.186 93.3843C141.318 92.5813 141.103 91.4347 141.009 90.3107C140.906 89.058 140.931 87.7878 140.063 86.7162C139.883 86.4951 139.983 86.033 139.984 85.6821C139.993 81.3107 140.004 76.9394 140.023 72.5668C140.028 71.5102 140.209 70.5548 141.26 69.9515C142.292 69.3595 143.256 68.6513 144.269 68.0256C144.812 67.6896 145.471 67.6634 145.709 68.2991C145.868 68.7213 145.667 69.332 145.484 69.8041C145.392 70.0452 145.008 70.22 144.721 70.3349C142.632 71.1617 142.177 72.874 142.185 74.8749C142.199 78.5418 142.188 82.2087 142.188 85.8757C142.188 89.6138 142.188 93.3506 142.188 97.0887C142.188 99.1183 142.19 99.1183 139.986 99.4468Z" fill="#898989"/>
<path d="M113.148 35.8006C113.016 36.5525 112.982 37.3418 112.723 38.0475C112.452 38.7831 112.002 39.3152 110.96 39.0579C109.559 38.7107 108.472 39.3777 107.854 40.6553C107.345 41.7082 106.696 42.289 105.419 42.2103C104.301 42.1416 104.001 43.1882 103.589 44.0013C103.069 45.0241 102.499 45.2515 101.418 44.8418C102.068 43.8414 102.471 42.7948 101.988 41.5983C101.583 40.5978 100.835 40.0358 99.8134 39.791C99.6336 39.2427 100.101 39.1266 100.413 38.9655C103.477 37.3843 106.407 35.5683 109.382 33.8348C110.852 32.978 111.958 33.3077 112.711 34.8514C112.865 35.1624 113.051 35.4622 113.148 35.8006Z" fill="#303030"/>
<path d="M92.7624 75.3869C84.0097 80.4514 75.2583 85.5159 66.5044 90.5792C64.6198 91.6695 62.7376 92.7649 60.8367 93.8265C60.3558 94.095 59.8075 94.2449 59.2892 94.4484C59.0956 93.3131 59.7701 92.7336 60.6456 92.2316C64.9732 89.7449 69.2883 87.237 73.611 84.7404C79.7296 81.2071 85.8495 77.6775 91.9706 74.148C92.2054 74.0118 92.4552 73.9019 92.7624 73.7471C92.7624 74.3603 92.7624 74.8736 92.7624 75.3869Z" fill="#E38C84"/>
<path d="M49.724 151.571C49.107 150.92 48.4663 150.289 47.8868 149.606C47.7082 149.396 47.6245 149.043 47.6233 148.755C47.6033 144.948 47.5246 141.137 47.6295 137.333C47.6982 134.865 48.5637 132.723 50.9967 131.545C51.7561 131.178 52.4467 130.671 53.2024 130.295C53.5396 130.128 54.1578 129.937 54.3014 130.086C54.6299 130.432 54.9447 131.006 54.891 131.439C54.8323 131.914 54.4213 132.413 54.0367 132.762C53.6295 133.13 53.0862 133.362 52.5779 133.602C50.7032 134.491 49.9076 136.053 49.8914 138.032C49.8577 142.086 49.8826 146.14 49.8776 150.195C49.8776 150.652 49.8377 151.108 49.8152 151.565L49.724 151.571Z" fill="#848484"/>
<path d="M127.83 107.867C126.483 108.579 125.101 109.229 123.798 110.014C117.942 113.537 112.111 117.105 106.256 120.633C105.827 120.892 105.278 120.956 104.785 121.109C104.58 119.888 105.05 119.085 106.144 118.459C114.393 113.734 122.618 108.967 130.853 104.218C131.086 104.085 138.004 99.5848 138.255 99.4824C138.329 99.5736 135.186 101.91 131.827 104.178C130.58 105.319 127.801 107.913 127.801 107.913C127.801 107.913 127.826 107.676 127.823 107.849L127.83 107.867Z" fill="#E38C84"/>
<path d="M91.9949 60.8167C85.7639 64.3338 79.5316 67.8521 73.3006 71.3691C69.7485 73.3737 66.1965 75.3795 62.642 77.3816C61.9064 77.7962 61.1645 78.1972 60.4226 78.6006C59.9293 78.8691 59.4809 78.9066 59.1699 78.3258C59.5558 77.9798 59.8956 77.5527 60.334 77.2979C69.6574 71.9037 78.9995 66.5394 88.3192 61.1377C89.5332 60.4358 90.6985 60.1186 91.9949 60.8167Z" fill="#6B6B6B"/>
<path d="M138.367 87.8781C136.662 87.1313 135.265 87.7782 133.773 88.6562C128.652 91.6699 123.454 94.5513 118.302 97.5125C114.064 99.9467 109.85 102.421 105.63 104.885C105.43 105.003 105.276 105.196 105.099 105.355C104.491 105.398 104.263 105.116 104.599 104.605C104.84 104.238 105.189 103.892 105.569 103.672C114.65 98.4055 123.741 93.1575 132.831 87.9056C133.441 87.5534 134.036 87.17 134.67 86.864C135.881 86.277 137.66 86.7828 138.367 87.8781Z" fill="#6B6B6B"/>
<path d="M93.7117 170.946C93.7117 168.199 93.5893 165.328 93.7541 162.474C93.8665 160.516 94.9569 158.996 96.7816 158.083C97.5984 157.675 98.3628 157.161 99.1846 156.767C99.5206 156.605 100.124 156.448 100.294 156.613C100.605 156.914 100.879 157.487 100.812 157.887C100.73 158.369 100.352 158.877 99.9627 159.212C99.4918 159.615 98.8873 159.871 98.3203 160.151C96.7017 160.951 96.0235 162.347 95.8099 164.044C95.78 164.288 95.7612 164.541 95.7974 164.782C96.1759 167.24 95.4602 169.331 93.7117 170.946Z" fill="#848484"/>
<path d="M75.7539 129.14C76.9541 129.579 77.7148 130.217 78.1294 131.423C78.8713 133.58 80.0915 135.488 81.8288 137.007C84.7239 139.536 88.0798 140.104 91.7193 139.154C92.0777 139.06 92.7184 138.86 92.7184 138.86C92.7184 138.86 93.6551 139.292 94.0735 139.73C86.6772 143.558 78.0869 139.73 75.7539 129.14Z" fill="#848484"/>
<path d="M76.8383 168.933C75.5182 169.653 74.1843 170.35 72.8804 171.098C70.5324 172.444 68.2031 173.821 65.7789 175.234C70.425 177.963 75.0061 180.654 79.5885 183.345C79.4174 183.687 79.2463 184.028 79.0215 184.479C78.392 184.128 77.8163 183.817 77.2505 183.49C73.4999 181.323 69.7493 179.159 66.0049 176.983C64.3476 176.02 64.3701 175.135 66.0624 174.152C69.1373 172.366 72.2197 170.591 75.2884 168.794C75.8679 168.453 76.3775 168.267 76.8383 168.933Z" fill="#6B6B6B"/>
<path d="M59.2676 142.17C59.2676 141.423 59.2676 140.764 59.2676 139.876C59.8771 140.057 60.4041 140.163 60.8912 140.368C64.2234 141.764 65.7084 144.58 66.3579 147.878C67.156 151.931 66.1843 155.669 63.9399 159.115C63.3891 159.962 62.8683 160.285 62.1264 159.538C62.9295 158.212 63.8275 156.958 64.4894 155.59C65.8358 152.809 66.1643 149.854 65.27 146.885C64.5606 144.53 63.1393 142.769 60.4678 142.439C60.0906 142.391 59.7222 142.274 59.2676 142.17Z" fill="#303030"/>
<path d="M83.416 182.994C86.0338 181.488 88.6941 179.956 91.5042 178.339C91.6079 179.403 91.7228 180.285 91.759 181.17C91.7678 181.393 91.5754 181.721 91.3781 181.838C89.2162 183.13 87.0342 184.39 84.8985 185.635C84.4039 184.755 83.9518 183.949 83.416 182.994Z" fill="#474747"/>
<path d="M47.8683 152.214C48.3592 152.967 48.4091 153.708 47.5673 154.204C44.7097 155.887 41.8259 157.529 38.8871 159.223C38.6485 158.626 38.435 158.092 38.2227 157.556C38.8796 156.679 39.9287 156.364 40.8042 155.821C42.7913 154.587 44.8683 153.501 46.9054 152.349C47.2026 152.181 47.5049 151.944 47.8683 152.214Z" fill="#474747"/>
<path d="M113.147 35.7997C112.529 35.1053 111.949 34.366 111.267 33.7415C111.056 33.5491 110.478 33.5154 110.21 33.664C106.802 35.5637 103.419 37.5071 100.035 39.4504C99.9303 39.5104 99.8854 39.6752 99.8129 39.7901C99.4807 39.7339 99.1497 39.6777 98.4766 39.5628C98.9649 39.0707 99.2084 38.7011 99.5507 38.5C102.917 36.5241 106.299 34.577 109.676 32.6186C110.531 32.1228 111.406 32.1853 111.92 32.9871C112.466 33.8364 112.748 34.8555 113.147 35.7997Z" fill="#4F4F4F"/>
<path d="M39.7383 160.869C40.5252 161.375 41.2933 161.911 42.1014 162.38C45.842 164.554 49.5963 166.702 53.3319 168.881C53.608 169.042 53.7816 169.38 54.0039 169.636C53.6429 169.704 53.1796 169.953 52.936 169.814C48.2325 167.145 43.5539 164.431 38.8728 161.722C38.7916 161.675 38.7454 161.57 38.5918 161.377C39.0089 161.191 39.3736 161.03 39.7383 160.869Z" fill="#6B6B6B"/>
<path d="M47.869 152.214C46.053 153.197 44.2321 154.168 42.4248 155.166C41.0148 155.945 39.6222 156.757 38.2221 157.555C37.9274 157.313 37.6326 157.07 37.1992 156.714C39.0989 155.612 40.7825 154.631 42.4685 153.654C43.6825 152.951 44.8978 152.252 46.1167 151.556C47.1646 150.96 47.4281 151.062 47.869 152.214Z" fill="#6B6B6B"/>
<path d="M158.512 61.2198C156.831 59.3851 155.176 59.7411 153.264 61.0075C151.052 62.4725 148.669 63.684 146.317 64.923C145.877 65.154 145.23 64.9942 144.68 65.0141C147.787 63.1869 150.894 61.3597 154.002 59.5337C154.123 59.4625 154.25 59.4026 154.372 59.3339C156.592 58.0712 157.885 58.6607 158.512 61.2198Z" fill="#4F4F4F"/>
<path d="M63.011 146.308C63.2782 146.897 63.7066 147.467 63.7866 148.08C64.2599 151.732 63.513 155.068 61.0201 157.899C60.6017 158.375 60.1808 158.686 59.5801 157.992C61.0563 156.339 62.2791 154.465 62.63 152.244C62.9398 150.287 62.9098 148.276 63.0297 146.289L63.011 146.308Z" fill="#848484"/>
<path d="M51.5925 149.455C51.5925 147.879 51.7124 146.322 51.5587 144.794C51.4076 143.29 52.1395 142.443 53.3273 141.643C53.893 144.535 53.4072 147.114 51.5925 149.455Z" fill="#303030"/>
<path d="M37.0257 159.823C36.872 159.943 36.5735 160.36 36.2188 160.415C35.4532 160.534 34.6089 159.733 34.7426 158.994C34.8213 158.56 35.1959 157.973 35.5694 157.848C36.2113 157.632 37.0082 158.618 37.0257 159.823Z" fill="#848484"/>
<path d="M82.945 186.273C82.7927 186.394 82.4954 186.813 82.142 186.869C81.3776 186.99 80.5308 186.192 80.662 185.451C80.7394 185.018 81.1116 184.429 81.485 184.302C82.1245 184.084 82.9238 185.066 82.945 186.273Z" fill="#848484"/>
<path d="M157.872 104.389C157.504 104.175 157.134 103.962 156.766 103.748C157.134 103.96 157.504 104.175 157.872 104.389Z" fill="#4F4F4F"/>
<path d="M49.7246 151.571L49.8145 151.567C49.8308 151.731 49.8458 151.893 49.862 152.057C49.8158 152.058 49.7708 152.061 49.7246 152.062C49.7246 151.9 49.7246 151.736 49.7246 151.571Z" fill="#6B6B6B"/>
<path d="M138.758 88.1005C138.623 88.0239 138.489 87.9486 138.354 87.8721C138.489 87.9486 138.623 88.0252 138.758 88.1005Z" fill="#6B6B6B"/>
<path d="M63.0297 146.293C62.9689 146.211 62.9067 146.128 63.0031 146.256C62.9803 146.111 62.9955 146.209 63.0107 146.31L63.0297 146.293Z" fill="#848484"/>
<path d="M165.27 122.495C164.99 119.035 164.416 115.664 163.124 112.448C161.911 109.425 160.364 106.591 157.87 104.389C157.484 104.205 157.111 103.998 156.764 103.748L156.771 103.752C155.515 102.595 153.998 101.921 152.357 101.619C148.103 100.834 144.072 101.64 140.305 103.669C135.309 106.361 131.154 110.102 127.542 114.433C124.87 117.638 122.845 121.28 120.857 124.935C118.609 129.071 116.772 133.355 115.852 138.001C115.724 138.641 115.783 139.352 115.341 139.917C115.255 140.683 115.109 141.449 115.092 142.218C115.01 145.984 115.109 149.728 115.902 153.443C116.836 157.817 118.386 161.922 121.337 165.304C126.588 171.32 133.406 172.262 140.316 169.61C145.419 167.652 149.502 164.201 153.004 160.068C156.629 155.791 159.416 151 161.463 145.783C164.401 138.293 165.925 130.586 165.27 122.495ZM164.117 128.675C163.573 136.491 161.302 143.86 157.582 150.747C154.333 156.761 150.219 162.078 144.45 165.912C141.139 168.113 137.556 169.563 133.469 169.366C130.627 169.228 128.133 168.223 125.959 166.406C121.832 162.955 120.036 158.312 119.31 153.164C119.016 151.085 118.915 148.978 118.725 146.883C118.825 139.288 120.635 132.132 123.68 125.23C125.497 121.111 127.802 117.292 130.62 113.81C133.933 109.717 137.801 106.267 142.788 104.281C151.02 101.004 158.265 104.466 161.769 112.337C164.094 117.555 164.507 123.092 164.117 128.675Z" fill="#303030"/>
<path d="M110.566 170.473C108.242 166.091 103.302 164.834 99.1834 167.603C94.0826 171.031 91.5173 179.453 94.9544 185.695C97.2625 189.888 102.141 191.252 106.121 188.584C110.315 185.773 111.779 181.54 112.125 177.475C112.106 174.532 111.608 172.439 110.566 170.473ZM105.988 186.841C102.043 189.467 97.3924 187.39 96.6792 182.677C96.5593 181.88 96.4844 181.077 96.4082 180.436C96.5968 176.409 97.9169 173.067 100.801 170.418C104.53 166.992 109.655 168.556 110.859 173.487C112.069 178.44 109.973 184.187 105.988 186.841Z" fill="#303030"/>
<path d="M108.506 172.549C108.846 173.591 109.45 174.624 109.479 175.674C109.583 179.482 108.347 182.792 105.265 185.225C104.268 186.012 103.125 186.425 101.682 186.227C102.442 185.857 103.144 185.61 103.745 185.209C106.361 183.46 107.739 180.864 108.277 177.876C108.591 176.136 108.457 174.317 108.525 172.533L108.506 172.549Z" fill="#848484"/>
<path d="M103.083 171.184C103.083 173.103 103.139 175.024 103.027 176.936C103.009 177.243 102.258 177.678 101.808 177.731C101.487 177.77 100.823 177.295 100.793 177.002C100.667 175.75 100.46 174.405 100.795 173.243C101.044 172.372 102.077 171.725 102.762 170.979C102.869 171.047 102.977 171.116 103.083 171.184Z" fill="#898989"/>
<path d="M108.525 172.534C108.469 172.46 108.414 172.386 108.498 172.498C108.475 172.352 108.491 172.451 108.506 172.551L108.525 172.534Z" fill="#848484"/>
<path d="M162.175 121.099C161.944 117.527 160.885 114.113 159.007 111.006C155.684 105.503 150.136 103.561 144.079 105.736C140.799 106.914 137.953 108.789 135.516 111.221C125.643 121.072 121.208 133.226 120.568 144.996C120.576 151.587 121.282 156.069 123.346 160.273C126.259 166.203 131.881 168.802 138.076 166.98C141.412 166 144.357 164.226 146.814 161.802C158.167 150.605 163.203 136.964 162.175 121.099ZM146.559 160.403C144.114 162.836 141.254 164.716 137.863 165.62C132.482 167.054 127.777 165.034 125.056 160.166C123.282 156.993 122.473 153.544 122.292 149.958C121.754 139.276 124.761 129.522 130.248 120.467C132.714 116.396 135.757 112.799 139.635 109.98C141.909 108.327 144.382 107.077 147.209 106.686C152.004 106.022 155.588 107.967 158.099 111.963C160.647 116.014 161.247 120.569 161.287 127.082C160.645 138.755 156.291 150.72 146.559 160.403Z" fill="#848484"/>
<path d="M138.316 113.4C138.316 116.3 138.336 118.875 138.292 121.446C138.286 121.786 138.037 122.264 137.755 122.435C135.646 123.709 133.5 124.921 131.283 126.2C130.822 125.718 130.37 125.244 129.887 124.737C132.084 120.578 134.669 116.774 138.316 113.4Z" fill="#E2665B"/>
<path d="M143.028 137.79C143.024 138.402 142.633 139.346 141.737 140.032C140.849 140.711 140.063 140.44 139.742 139.376C139.396 138.231 140.142 136.391 141.186 135.807C142.236 135.218 143.015 135.847 143.028 137.79Z" fill="#474747"/>
<path d="M140 121.579C140 118.377 140 115.178 140 111.977C140.07 111.977 140.14 111.977 140.21 111.977C140.21 115.178 140.21 118.377 140.21 121.579C140.14 121.579 140.07 121.579 140 121.579Z" fill="#474747"/>
<path d="M158.588 117.569C158.539 117.388 158.357 117.242 158.237 117.081C158.157 117.111 158.078 117.142 157.998 117.172C159.208 120.668 158.443 128.904 158.368 129.447C157.476 135.934 155.159 141.902 152.383 147.818C150.569 151.683 145.898 157.473 142.552 160.25C142.392 160.382 142.278 160.57 142.174 160.772C140.403 161.802 137.796 163.625 136.115 163.876C136.168 164.017 136.22 164.158 136.273 164.299C137.929 163.627 140.284 163.164 142.465 161.047C149.641 156.879 158.408 142.809 159.377 127.887C159.689 124.404 159.493 120.958 158.588 117.569Z" fill="#848484"/>
<path d="M142.008 121.585C142.008 117.958 142.008 114.331 142.008 110.704C142.048 110.704 142.089 110.704 142.129 110.704C142.129 114.331 142.129 117.958 142.129 121.585C142.089 121.585 142.048 121.585 142.008 121.585Z" fill="#4F4F4F"/>
<path d="M130.529 87.8836C130.375 88.8553 130.264 89.8369 130.058 90.7986C129.572 93.0617 128.591 95.055 126.696 96.4838C125.238 97.5829 123.803 98.7207 122.272 99.7074C121.238 100.374 120.051 100.564 118.871 99.7324C117.396 100.813 115.916 101.881 114.457 102.978C114.221 103.156 114.036 103.442 113.909 103.715C113.375 104.861 112.873 106.021 112.368 107.157C112.576 107.081 112.983 106.994 113.327 106.796C117.285 104.522 121.245 102.25 125.174 99.926C125.935 99.4763 126.368 99.61 126.745 100.323C127.03 100.759 126.995 101.254 127 101.741C127.008 102.576 126.984 103.412 127.119 104.242C127.186 104.659 127.203 105.082 126.845 105.408C126.817 106.409 126.185 106.888 125.37 107.352C119.206 110.871 113.062 114.424 106.925 117.988C105.708 118.695 104.549 119.502 103.198 120.369C103.002 117.73 103.203 115.432 104.407 113.271C103.435 113.271 102.543 113.271 101.381 113.271C101.158 114.681 100.762 116.147 100.726 117.622C100.621 121.846 100.614 126.074 100.68 130.299C100.697 131.39 100.453 132.116 99.4659 132.571C99.316 132.64 99.2074 132.8 99.0787 132.917C98.5716 133.673 97.7436 134.025 97.0167 134.472C95.5154 135.395 94.3989 136.546 94.1803 138.382C94.1379 138.735 93.9767 139.048 93.7344 139.313C92.9526 143.739 92.1108 148.155 91.4064 152.593C90.7619 156.648 90.2773 160.73 89.6903 164.794C89.5654 165.662 89.3494 166.516 88.3677 166.92C88.1978 166.99 88.1716 167.507 88.1491 167.822C88.0055 169.804 87.8806 171.786 87.7507 173.769C87.5534 174.35 87.0938 174.651 86.5817 174.918C83.9576 176.286 81.2624 177.495 78.5222 178.611C75.9156 179.673 73.2516 179.692 70.5439 179.132C68.8591 178.842 67.2379 178.426 65.989 177.127C65.5331 176.653 65.1672 176.146 65.1072 175.488C64.9136 173.354 65.4094 171.422 66.8957 169.825C68.4019 168.207 70.3578 167.175 72.1276 165.906C72.9082 165.346 73.3316 164.884 72.8819 163.844C72.4435 162.831 72.6359 161.687 72.7196 160.6C72.9394 157.724 73.0643 154.841 73.3116 151.967C73.6126 148.462 73.8049 144.949 74.0809 141.442C74.327 138.319 74.5843 135.198 74.9802 132.089C75.2549 129.926 75.9793 127.917 77.0872 126.045C78.0076 124.646 78.702 123.108 79.6925 121.75C79.9173 121.442 80.0846 121.087 80.3919 120.845C80.4418 120.791 80.5055 120.751 80.5867 120.732C80.4506 120.691 80.4418 120.827 80.3569 120.857C77.9527 122.077 75.4997 123.204 73.2616 124.729C72.6896 125.119 72.2212 125.553 72.0439 126.243C70.8287 131.588 70.5077 137.051 69.9706 142.478C69.6971 145.234 69.7096 148.028 69.4823 150.8C69.4448 151.255 69.3624 151.715 69.3649 152.166C69.3711 153.495 68.929 154.48 67.5901 154.949C67.083 155.126 66.9706 155.571 67.0606 156.081C67.183 156.779 67.0943 157.491 67.1592 158.19C67.3628 160.344 66.5048 161.8 64.444 162.515C62.0685 163.553 59.683 164.558 57.1701 165.236C55.78 165.612 54.3662 165.858 52.9636 166.163C51.9944 166.374 51.1427 165.745 50.1897 165.716C49.569 165.697 48.9495 165.502 48.3338 165.369C47.0773 164.948 45.8321 164.512 45.4824 162.997C45.4824 162.08 45.4824 161.162 45.4824 160.245C45.5599 160.185 45.6947 160.137 45.7085 160.065C46.1369 157.78 47.7443 156.479 49.5515 155.278C50.748 154.484 52.0694 153.686 52.8862 152.563C53.6993 151.446 52.9736 149.903 53.0111 148.546C53.1173 144.676 53.0523 140.802 53.1672 136.932C53.2646 133.625 53.472 130.319 53.7118 127.019C54.0078 122.939 54.6135 118.899 55.8387 114.987C56.6418 112.424 58.1168 110.254 60.0502 108.379C63.9806 104.567 68.5718 101.703 73.3203 99.0742C76.2066 97.4755 79.1467 95.9718 82.0617 94.4256C83.4443 93.7187 83.9964 92.6945 83.7865 91.0621C83.6479 89.983 84.3573 88.9739 85.0954 88.1483C86.0959 87.0305 86.4905 85.7391 86.4118 84.2666C86.2857 81.8736 86.5804 79.4944 86.6292 77.1064C86.6354 76.7854 86.6791 76.4756 86.8714 76.2046C86.8752 75.7238 86.8789 75.2429 86.8827 74.7608C86.7653 74.5547 86.5954 74.6784 86.4431 74.6921C84.3698 75.6251 82.2628 76.4894 80.2358 77.5135C78.6683 78.3053 77.2795 78.0168 75.9906 77.0789C75.3711 76.628 74.9027 76.5993 74.2908 76.9415C73.956 77.1288 73.5901 77.2799 73.2204 77.3836C70.9685 78.0143 69.0776 78.9823 68.1572 81.409C67.8462 82.2295 66.8857 82.9565 66.0489 83.3936C64.2579 84.329 62.387 85.1384 60.4798 85.8028C59.8579 86.0201 59.0248 85.6292 58.2892 85.5168C58.2892 85.4019 58.2892 85.287 58.2892 85.1721C57.9794 85.5405 57.656 85.8977 57.3637 86.2799C56.2771 87.6987 54.892 87.8298 53.5944 86.6246C52.9861 86.0601 52.3229 85.543 51.7759 84.9248C49.2143 82.0297 49.6577 80.6047 51.0365 78.3865C52.5752 75.9136 54.611 74.1613 57.3749 73.2621C61.4303 71.9419 65.3457 70.3133 69.0114 68.1064C69.5872 67.7592 69.8919 67.4819 69.9194 66.6888C70.0193 63.7226 70.8711 63.4915 74.0397 62.3163C74.4981 62.1464 74.8053 62.0677 74.9864 61.5681C75.3961 60.4341 76.3166 59.8321 77.4531 59.661C78.4485 59.5111 79.1117 58.9853 79.6637 58.2109C81.707 55.3433 83.7328 52.4632 85.8148 49.6244C86.789 48.2955 87.8794 47.0516 88.9897 45.6777C87.3648 41.9196 87.3448 37.7506 87.0888 33.6103C86.9826 31.8968 86.6167 30.1994 86.4768 28.4859C86.2357 25.5383 86.0584 22.5846 85.9073 19.6308C85.8748 18.9913 85.6675 18.6154 85.1279 18.2857C84.451 17.8723 83.8428 17.3452 83.0534 16.7532C84.1038 16.0201 84.9818 15.4081 85.8098 14.8298C84.3948 13.5672 82.9847 12.3094 81.5759 11.0517C81.6308 10.9481 81.6871 10.8444 81.742 10.742C86.2844 11.2416 90.04 9.02471 93.938 7.30365C97.0304 5.93855 100.132 4.5597 103.524 4.16128C108.427 3.58551 112.87 4.42981 116.062 8.68374C116.196 8.86109 116.42 9.0297 116.633 9.07966C120.814 10.0663 122.849 12.588 122.845 17.0017C122.841 21.5454 121.831 25.9405 120.709 30.3143C120.468 31.2535 120.34 32.234 120.28 33.2032C120.146 35.3938 119.081 36.9625 117.295 38.154C116.84 38.4575 116.478 38.9471 116.172 39.4155C115.602 40.286 115.105 41.2027 114.597 42.067C114.932 42.4729 115.544 42.9313 115.757 43.532C116.191 44.7547 117.062 45.5765 117.925 46.437C118.475 46.9841 119.006 47.5536 119.589 48.062C124.109 51.9999 126.431 57.0794 127.338 62.907C127.646 64.8866 128.007 66.8575 128.344 68.8321C128.69 69.1418 128.715 69.5801 128.776 69.9898C129.357 73.914 130.355 77.772 130.696 81.7337C130.85 83.5147 130.963 85.302 130.787 87.0917C130.752 87.3765 130.695 87.6463 130.529 87.8836Z" fill="black"/>
<path d="M73.8114 181.41C73.5166 181.248 73.2369 181.05 72.9259 180.928C71.9055 180.527 70.6441 180.413 70.6328 178.883C73.2656 179.317 75.8884 179.484 78.4075 178.354C80.9104 177.231 83.4034 176.086 85.8825 174.913C86.5382 174.603 87.1277 174.154 87.7485 173.768C87.9345 174.333 88.0844 174.914 88.3142 175.462C88.8263 176.685 88.6664 177.479 87.435 177.93C85.1669 178.76 82.8488 179.467 80.5183 180.101C79.0008 180.514 77.4221 180.703 75.8759 181.019C75.731 181.049 75.6261 181.275 75.5025 181.41C74.9392 181.41 74.3759 181.41 73.8114 181.41Z" fill="#AA9683"/>
<path d="M130.537 87.5151C130.946 81.4926 129.422 76.0609 128.501 70.1909C128.43 69.74 128.338 68.832 128.338 68.832L131.506 70.6617C131.506 70.6617 132.909 77.6221 133.54 81.1517C133.823 82.7366 133.595 85.6492 133.595 85.6492C133.595 85.6492 131.422 87.2953 130.537 87.5151Z" fill="#A04841"/>
<path d="M86.6148 77.0752C86.6148 77.0752 86.7771 82.4569 86.6235 85.5781C86.5873 86.3012 86.2726 87.153 85.7955 87.685C84.3042 89.3499 83.5136 91.1309 84.3354 93.4202C83.5161 93.7812 82.7867 94.1022 82.0586 94.4232C82.5369 92.6384 83.049 90.8611 83.4812 89.0651C83.7747 87.8499 84.0919 86.6159 84.1593 85.377C84.2992 82.7817 84.3779 78.5652 84.3779 78.5652L86.6148 77.0752Z" fill="#A04841"/>
<path d="M126.846 105.406C126.812 103.712 126.78 102.018 126.746 100.323C127.749 99.9385 129.05 100.117 129.491 98.6733C129.586 98.3611 130.293 98.1525 130.748 98.0826C130.886 98.0613 131.28 98.6671 131.281 98.9856C131.285 100.033 131.179 101.083 131.074 102.128C131.048 102.391 130.935 102.744 130.74 102.876C129.461 103.748 128.149 104.568 126.846 105.406Z" fill="#A04841"/>
<path d="M93.7363 139.311C93.845 135.778 96.4491 134.335 99.0806 132.915C100.281 134.333 100.277 134.937 99.0556 136.156C98.5348 136.676 98.0053 137.186 97.4844 137.705C96.4466 138.738 95.1402 139.137 93.7363 139.311Z" fill="#A04841"/>
<path d="M86.4414 74.6895C86.5875 74.7119 86.7337 74.7357 86.881 74.7582C86.7337 74.7357 86.5875 74.7132 86.4414 74.6895Z" fill="#AA9683"/>
<path d="M92.5943 106.645C92.5943 106.267 92.5943 105.888 92.5943 105.51C92.5106 105.449 92.4269 105.387 92.342 105.326C91.8924 105.756 91.3778 106.133 91.0056 106.621C88.494 109.921 85.9586 113.206 83.5456 116.578C82.5352 117.989 80.9828 118.357 79.6264 119.111C76.9861 120.579 74.2759 121.927 71.6943 123.49C71.0012 123.909 70.3904 124.86 70.2143 125.67C69.6073 128.476 69.149 131.318 68.7493 134.163C68.4033 136.628 68.1798 139.112 67.9662 141.592C67.8188 143.307 67.8014 145.033 67.6902 146.752C67.574 148.538 67.373 150.319 67.2955 152.106C67.2655 152.79 66.9383 153.029 66.3838 153.181C63.8909 153.864 61.398 153.891 58.9263 153.117C57.8222 152.773 56.7206 152.381 55.684 151.875C55.2906 151.684 55.0833 151.112 54.791 150.713C55.0845 148.946 55.1732 147.154 55.3043 145.374C55.5291 142.322 55.6703 139.275 56.1436 136.237C56.9567 131.019 57.3514 125.742 58.097 120.511C58.3555 118.698 58.624 116.885 58.9575 115.082C59.2797 113.336 60.3214 112.071 61.4804 110.79C63.7985 108.228 66.8496 106.844 69.8172 105.328C73.0794 103.661 76.328 101.974 79.544 100.221C82.1069 98.8218 84.4137 97.1232 86.0648 94.6553C88.9661 94.8926 91.5827 96.0029 94.0443 97.4467C95.5806 98.3472 96.9694 99.4975 98.5043 100.592C96.2975 102.434 95.3058 104.764 95.3857 107.559C95.4169 108.644 95.8078 109.532 96.7021 110.192C97.6213 110.872 98.5318 111.567 99.4086 112.299C99.5972 112.457 99.7695 112.847 99.7071 113.059C98.8528 115.942 98.9477 118.9 98.9602 121.855C98.9715 124.463 98.9315 127.072 98.9802 129.678C98.9964 130.548 98.7516 131.116 97.986 131.583C96.7571 132.332 95.5306 133.118 94.439 134.047C93.7546 134.63 93.0277 135.434 92.8216 136.262C91.9523 139.767 91.1792 143.302 90.5498 146.859C89.8841 150.621 89.417 154.419 88.8712 158.203C88.5702 160.284 88.3154 162.373 87.9657 164.445C87.902 164.823 87.5498 165.33 87.2126 165.452C83.7505 166.714 80.2896 166.913 76.8937 165.189C74.9404 164.196 74.4358 163.054 74.728 160.896C74.9441 159.3 74.9728 157.677 75.0752 156.066C75.1702 154.559 75.2526 153.05 75.34 151.541C75.8946 150.359 75.7147 149.057 75.9183 147.816C76.7976 142.43 77.151 136.977 77.9503 131.581C78.1677 130.117 78.6423 128.815 79.4378 127.569C82.6177 122.581 86.0923 117.792 89.3745 112.874C90.3724 111.38 91.3066 109.845 92.0872 108.224C92.3245 107.727 92.6593 107.247 92.5943 106.645Z" fill="#333949"/>
<path d="M128.759 87.2049C128.745 90.7744 127.738 93.8631 124.613 95.9688C123.347 96.8219 122.128 97.7448 120.761 98.5504C120.89 95.6441 119.602 93.5384 117.609 91.8236C115.591 90.0875 113.343 89.2382 110.738 90.5634C110.363 89.2207 110.512 88.7549 111.67 88.0879C112.414 87.6583 112.967 87.2087 113.011 86.2382C113.025 85.931 113.522 85.4601 113.867 85.3852C114.956 85.1504 115.342 84.4747 115.268 83.478C115.076 80.8465 114.771 78.2212 114.644 75.5872C114.439 71.3645 114.343 67.1367 114.195 62.9115C114.179 62.4332 114.124 61.9574 114.081 61.4128C113.271 61.9549 113.009 62.9115 112.892 65.2071C112.823 66.5735 112.708 67.9373 112.613 69.2987C110.041 69.8695 107.477 69.6809 104.934 69.2113C100.699 68.4294 96.5112 67.4452 92.4959 65.8453C91.7515 65.5493 91.0433 65.1647 90.3177 64.82C90.0054 64.4265 90.2053 64.0131 90.274 63.6072C90.7373 60.8483 90.8472 58.0893 90.3052 55.3254C90.2702 55.1493 90.2278 54.9844 90.1178 54.8408C89.8731 53.9528 89.5084 54.4986 89.3348 54.8308C89.0937 55.2917 88.9126 55.8137 88.8389 56.3283C88.3144 59.9465 87.7861 63.5647 87.3389 67.193C87.1578 68.6567 87.1478 70.1442 87.1141 71.623C87.0929 72.5422 86.3647 72.782 85.7702 73.068C84.5063 73.6788 83.1799 74.1571 81.8985 74.7366C81.1354 75.0813 80.3673 75.451 79.6791 75.9219C78.7986 76.5251 78.0018 76.5464 77.1737 75.8969C79.1146 70.0955 78.4789 67.6313 74.5996 65.8803C75.1042 65.3045 75.7986 65.3982 76.4556 65.3445C76.9589 65.3033 77.5234 65.4831 77.9168 64.9948C77.9293 64.5701 77.5946 64.4777 77.3273 64.3254C77.0588 64.1718 76.6766 64.0793 76.7153 63.6897C76.7553 63.2925 77.1188 63.1189 77.451 63.0127C78.3265 62.7329 79.247 62.7117 80.1512 62.6043C80.6383 62.5456 81.1354 62.598 81.6212 62.5081C82.4156 63.0564 83.2111 63.6047 84.1928 64.2829C84.1254 62.4794 82.8489 61.8987 81.846 61.1106C81.7961 60.8857 81.896 60.6972 82.0009 60.5136C84.0992 56.8554 86.06 53.1135 88.5604 49.7039C89.1174 48.9445 89.2873 47.9354 90.1129 47.3608C91.0521 47.9691 92.0113 48.5486 92.9155 49.2043C93.1915 49.4041 93.4688 49.8063 93.4825 50.1273C93.5724 52.1606 93.9958 54.0989 94.9688 55.8937C95.2173 56.352 95.5483 56.7705 95.8805 57.1751C96.6286 58.0881 97.9013 58.2055 98.256 56.7567C98.3772 56.2608 98.7119 55.8162 98.9317 55.3841C99.0653 55.3591 99.1315 55.3366 99.199 55.3366C100.94 55.3416 101.572 56.4395 102.07 57.937C102.925 60.5023 103.116 60.5585 105.61 59.4981C109.961 57.6497 113.341 54.6972 115.537 50.4582C115.631 50.2746 115.756 50.106 115.868 49.9312C116.728 49.6689 117.17 50.3196 117.631 50.8079C121.007 54.3737 123.211 58.5564 124.214 63.3786C125.141 67.8349 125.769 72.3411 126.536 76.8236C126.685 77.6929 126.787 78.5822 127.102 79.404C128.069 81.9219 128.678 84.5059 128.759 87.2049Z" fill="#D32B1E"/>
<path d="M110.957 37.383C111.397 37.7951 111.836 38.2061 112.386 38.7206C110.944 40.6103 111.133 42.8771 111.163 45.1328C111.169 45.5899 110.998 46.1606 110.701 46.4916C108.259 49.2131 105.137 50.6531 101.469 51.34C103.129 48.8421 106.109 48.0153 107.723 45.716C107.665 45.6161 107.605 45.5174 107.546 45.4175C106.952 45.6398 106.356 45.8559 105.764 46.0857C103.387 47.0087 101.121 48.2614 98.4837 48.3788C96.5091 48.4675 94.6331 48.1677 92.8709 47.241C90.7402 46.1207 89.9621 44.0786 89.6186 41.9504C88.6669 36.0579 88.2473 30.1253 89.0616 24.1703C89.1702 23.3748 89.3938 22.5791 89.6923 21.8348C89.7959 21.5762 90.313 21.289 90.5978 21.3289C94.1798 21.826 97.7543 22.3793 101.33 22.9214C101.677 22.9738 102.029 23.0225 102.365 23.1212C103.18 23.3597 103.598 24.1354 103.263 24.9297C102.886 25.8227 102.408 26.672 101.972 27.54C103.843 28.4942 105.653 28.0158 107.85 25.8739C107.915 27.0017 107.943 27.9909 108.037 28.975C108.158 30.2327 108.219 31.5129 108.528 32.7269C108.694 33.3813 109.212 34.0733 109.768 34.4767C111.217 35.5283 112.712 34.8901 113.11 33.1628C113.174 32.888 113.214 32.6095 113.27 32.3335C113.63 30.5924 113.867 30.3601 115.36 30.2839C116.855 30.2078 117.989 30.9334 118.393 32.2273C118.82 33.5912 118.252 35.2498 116.959 36.2452C115.883 37.0733 114.676 37.4292 113.294 37.1794C112.583 37.0508 111.842 37.0832 111.116 37.0433C111.066 37.1582 111.011 37.2706 110.957 37.383Z" fill="#EACFC6"/>
<path d="M90.1011 77.5034C92.9425 78.5351 95.7664 79.6154 98.6315 80.5721C99.708 80.9318 100.877 81.0229 102.009 81.204C104.487 81.6 106.957 82.0958 109.452 82.3094C110.736 82.4193 112.065 82.0084 113.454 81.8235C113.524 82.6691 113.932 83.5833 112.566 84.0067C112.115 84.1466 111.613 84.7423 111.502 85.2169C111.297 86.09 110.807 86.582 110.117 87.0629C108.819 87.9671 108.448 89.7269 109.115 91.3455C109.234 91.6328 109.385 91.9063 109.557 92.2598C107.028 94.3943 104.806 96.8884 101.789 98.3647C101.442 98.5345 100.857 98.4071 100.452 98.2448C96.5757 96.6861 92.7164 95.0849 88.8447 93.5125C88.4263 93.3426 87.9654 93.2614 87.517 93.179C85.5911 92.8218 85.0503 91.363 86.3518 89.838C87.4771 88.5179 88.3413 87.1141 88.41 85.3281C88.982 83.4159 89.2593 81.4576 89.3917 79.468C89.4367 78.7748 89.2256 77.9231 90.1011 77.5034Z" fill="#D22B1E"/>
<path d="M89.0641 66.1821C96.6277 69.4744 104.385 71.2879 112.621 71.4053C112.84 74.2354 113.066 77.1629 113.299 80.1504C111.395 80.7974 109.423 80.6412 107.484 80.4239C102.379 79.8544 97.3896 78.7416 92.6223 76.7945C91.4358 76.3099 90.333 75.588 89.2601 74.8748C88.9392 74.6613 88.6657 74.0992 88.6781 73.7071C88.7568 71.2079 88.9229 68.7125 89.0641 66.1821Z" fill="#FCFCFC"/>
<path d="M102.679 111.623C101.666 111.468 101.468 110.789 101.615 109.946C101.903 108.273 102.234 106.607 102.546 104.943C101.508 104.796 100.946 106.069 100.117 110.585C99.9273 110.283 99.6088 109.997 99.5701 109.676C99.3552 107.917 99.8049 106.267 100.521 104.675C100.67 104.341 100.799 103.999 100.963 103.598C99.66 103.772 98.8557 105.463 98.2687 109.01C97.4418 108.764 97.1071 108.201 97.0946 107.364C97.0672 105.429 97.6766 103.744 99.1229 102.449C99.9585 101.701 100.84 100.958 101.817 100.422C105.32 98.5001 108.115 95.7087 111.027 93.0609C112.075 92.1067 113.014 91.1762 114.606 91.9381C116.321 92.7587 117.641 93.8365 117.785 95.8935C117.792 95.9984 117.777 96.1071 117.795 96.2108C118.067 97.8819 117.569 99.1283 115.955 99.8927C115.266 100.219 114.686 100.773 114.049 101.213C113.105 101.864 112.418 102.589 112.201 103.853C111.907 105.563 110.635 106.481 108.928 106.659C106.954 106.866 105.702 107.845 105.129 109.768C104.968 110.309 104.531 110.766 104.085 111.191C103.522 109.326 104.222 107.744 105.001 106.15C103.523 106.166 103.111 107.194 102.679 111.623Z" fill="#EACFC6"/>
<path d="M53.2529 78.2705C54.1534 76.5757 55.7021 75.6765 57.3932 75.0145C59.5863 74.1565 61.8207 73.4071 64.0226 72.5716C64.6746 72.3243 65.2866 71.9646 65.8998 71.6249C68.2066 70.3472 70.4947 69.0333 72.8215 67.7918C73.2037 67.5883 73.7795 67.5495 74.2066 67.6607C75.8427 68.0841 76.8119 69.8863 76.371 71.5412C76.2811 71.8796 76.1912 72.2181 76.0913 72.5541C75.6117 74.169 74.7062 75.3355 72.9751 75.7839C71.9247 76.0561 70.8706 76.4121 69.9139 76.9117C69.2133 77.2764 68.3765 77.8172 68.1005 78.4854C66.7179 81.8313 63.7903 83.0428 60.7366 84.1256C60.5056 84.2081 60.2096 84.1069 59.9436 84.0907C59.9748 83.7934 59.8923 83.38 60.056 83.2201C60.8016 82.4933 61.6309 81.8525 62.4027 81.1506C62.8374 80.7559 63.2183 80.3039 63.6242 79.878C63.553 79.7705 63.4806 79.6644 63.4094 79.557C63.0697 79.6394 62.6775 79.6407 62.3977 79.818C60.1971 81.2106 58.1126 82.7368 56.6763 84.9886C56.5114 85.2472 56.1805 85.462 55.882 85.5582C55.21 85.7768 54.7242 85.5307 55.1426 84.8088C55.9969 83.3351 56.981 81.9375 57.9028 80.5012C58.0714 80.2376 58.1938 79.9441 58.3374 79.6644C58.0002 79.6943 57.5918 79.6107 57.3382 79.773C55.7895 80.7585 55.0127 82.3646 54.1559 83.8996C54.0373 84.1107 53.9398 84.3342 53.8212 84.5753C53.2991 83.706 53.8262 82.6993 57.0572 78.4416C56.5014 78.4941 56.0556 78.4004 55.8857 78.5753C55.1351 79.3484 54.4357 80.1777 53.775 81.0307C53.4165 81.4941 53.1755 82.0474 52.882 82.5595C52.7683 82.4933 52.6547 82.4283 52.541 82.3621C53.499 80.7759 54.4569 79.1898 55.4536 77.5412C54.4169 77.159 54.1534 78.2293 53.5252 78.5578C53.3066 78.5853 53.2017 78.5016 53.2529 78.2705Z" fill="#EACFC6"/>
<path d="M86.5459 167.74C86.4597 169.303 86.386 170.866 86.2711 172.428C86.2561 172.626 86.0675 172.906 85.8877 172.983C82.4168 174.491 79.0097 176.205 75.4277 177.382C73.1109 178.144 70.623 177.386 68.3249 176.53C67.2633 176.136 66.8736 175.323 67.051 174.17C67.3108 172.489 67.9752 171.098 69.429 170.122C70.859 169.163 72.2466 168.137 73.6729 167.172C73.9377 166.993 74.3161 166.834 74.6121 166.876C76.5118 167.148 78.2865 167.773 79.8952 168.854C82.0122 170.278 83.2162 170.168 85.1633 168.45C85.5067 168.147 85.8727 167.87 86.2287 167.582C86.3361 167.635 86.441 167.688 86.5459 167.74Z" fill="#7C90C3"/>
<path d="M65.1096 155.405C65.1096 156.698 65.1396 157.99 65.0871 159.281C65.0746 159.573 64.8423 159.991 64.5925 160.119C61.0468 161.936 57.3986 163.569 53.4094 163.995C51.787 164.168 50.0847 163.658 48.4273 163.405C47.5318 163.267 47.1397 162.704 47.1921 161.757C47.2883 160.022 47.7991 158.55 49.2741 157.468C50.8878 156.286 52.4252 154.999 54.0189 153.786C54.23 153.625 54.6197 153.51 54.8482 153.593C56.5643 154.209 58.2628 154.814 59.5742 156.228C60.9968 157.762 61.7899 157.704 63.3049 156.297C63.7245 155.907 64.2054 155.585 64.6575 155.23C64.8086 155.289 64.9597 155.348 65.1096 155.405Z" fill="#7C90C3"/>
<path d="M86.0633 94.6553C85.4888 95.5033 85.0816 96.5736 84.3085 97.1557C82.2128 98.7281 80.0421 100.238 77.7553 101.507C73.7611 103.724 69.6446 105.722 65.6067 107.864C64.7574 108.315 63.9943 108.95 63.2512 109.572C62.4469 110.245 61.6913 110.982 60.9506 111.727C59.3282 113.361 59.1209 115.529 58.8099 117.64C58.3728 120.615 57.9569 123.592 57.581 126.576C57.2487 129.214 57.0002 131.863 56.6805 134.503C56.5044 135.961 56.2059 137.404 56.0547 138.863C55.8637 140.708 55.8149 142.568 55.6176 144.411C55.3915 146.517 55.0706 148.613 54.7908 150.712C54.7246 148.213 54.526 145.709 54.6209 143.216C54.8245 137.872 55.0593 132.524 55.5164 127.197C55.8062 123.82 56.4544 120.466 57.0589 117.124C57.7171 113.487 59.854 110.752 62.5917 108.38C67.5351 104.1 73.2153 101 78.9468 97.9725C80.9076 96.9371 82.881 95.9217 84.8643 94.9313C85.2215 94.7552 85.6611 94.7427 86.0633 94.6553Z" fill="#52596C"/>
<path d="M128.758 87.2049C128.51 85.9809 128.31 84.7444 127.999 83.5354C127.599 81.9805 126.995 80.4705 126.688 78.9006C126.043 75.6059 125.552 72.2799 124.969 68.9727C124.238 64.8311 123.608 60.6646 121.647 56.8541C120.41 54.4523 118.729 52.3978 116.873 50.4732C116.622 50.2134 116.208 50.1098 115.869 49.9336C116.099 49.1593 116.329 48.3862 116.617 47.417C119.397 50.1984 122.253 52.7138 123.739 56.3957C125.205 60.0264 125.77 63.852 126.394 67.67C127.161 72.3561 127.973 77.0372 128.622 81.7395C128.871 83.533 128.725 85.3814 128.758 87.2049Z" fill="#DD554B"/>
<path d="M104.205 58.4446C103.17 56.5062 102.307 54.8913 101.389 53.1728C101.507 53.1428 101.881 53.0279 102.263 52.9505C106.132 52.1711 109.504 50.5038 112.107 47.4551C112.669 46.7969 113.054 46.1225 112.787 45.1608C112.623 44.5725 112.757 43.9031 112.757 43.2661C114.223 43.4872 115.247 45.127 114.945 46.7469C114.244 50.4975 112.025 53.2714 109.088 55.4821C107.562 56.6286 105.816 57.4804 104.205 58.4446Z" fill="#F8F8F8"/>
<path d="M92.5934 106.646C92.5197 107.189 92.6009 107.825 92.3449 108.262C90.8874 110.745 89.4048 113.217 87.8274 115.625C84.8849 120.119 81.7912 124.516 78.9449 129.068C78.2692 130.148 78.2405 131.675 78.0569 133.016C77.3287 138.354 76.6568 143.701 75.9649 149.044C75.8799 149.703 75.8212 150.368 75.7013 151.021C75.6664 151.211 75.4628 151.369 75.3379 151.543C75.6139 147.335 76.0535 143.131 76.1297 138.92C76.2596 131.741 78.9998 125.632 83.2088 120.008C86.0327 116.235 88.7516 112.383 91.4956 108.551C91.9202 107.959 92.23 107.282 92.5934 106.646Z" fill="#52596C"/>
<path d="M125.329 104.717C125.016 105.111 124.78 105.637 124.375 105.878C121.54 107.569 118.669 109.202 115.811 110.854C112.314 112.876 108.818 114.901 105.32 116.919C105.242 116.964 105.134 116.953 104.941 116.984C105.415 114.761 106.243 112.886 108.306 111.741C110.394 110.582 112.43 109.33 114.505 108.147C114.953 107.891 115.473 107.583 115.955 107.59C119.367 107.639 122.502 106.93 125.04 104.402C125.136 104.507 125.232 104.612 125.329 104.717Z" fill="#333949"/>
<path d="M64.2447 162.294C64.5994 163.567 63.7213 163.956 62.8271 164.493C59.3175 166.604 55.477 167.353 51.4591 167.428C50.9046 167.438 50.3363 167.33 49.7943 167.196C48.5366 166.884 48.2218 166.43 48.2368 165.099C49.4908 165.361 50.736 165.769 52.0012 165.84C53.089 165.902 54.2493 165.736 55.2909 165.403C58.2996 164.44 61.2634 163.341 64.2447 162.294Z" fill="#AA9683"/>
<path d="M77.4214 125.978C76.8119 126.161 76.1574 126.255 75.6029 126.544C74.1416 127.305 72.9114 127.141 71.8848 125.941C72.1346 125.58 72.3032 125.076 72.6466 124.88C75.2345 123.399 77.856 121.979 80.4676 120.539C80.5425 120.558 80.585 120.603 80.5912 120.681C79.5346 122.445 78.478 124.211 77.4214 125.978Z" fill="#A04841"/>
<path d="M90.1149 47.3652C88.7673 49.5734 87.3997 51.7703 86.0783 53.9947C84.7919 56.1591 83.5542 58.3523 82.2878 60.5292C82.1654 60.739 81.9955 60.9214 81.8481 61.1162C81.3086 60.8827 80.7678 60.6478 80.1758 60.3918C83.1395 56.2615 86.0633 52.1675 89.0234 48.0971C89.2644 47.7649 89.7452 47.605 90.1149 47.3652Z" fill="#DD554B"/>
<path d="M81.6237 62.5123C80.5896 62.7046 79.5542 62.887 78.5226 63.0931C77.9581 63.2055 77.401 63.3554 76.8402 63.489C76.8315 63.5952 76.824 63.7013 76.8153 63.8075C77.11 63.9224 77.4535 63.9773 77.6883 64.1672C77.978 64.402 78.1791 64.748 78.4177 65.0465C78.0842 65.2475 77.7695 65.5698 77.4123 65.6272C76.4855 65.7746 75.5401 65.8058 74.6009 65.8845C73.6791 65.9394 72.7587 65.9944 71.6309 66.0618C71.8557 65.7009 72.0205 65.0902 72.3915 64.9128C73.2483 64.5044 74.2374 64.377 75.1105 63.9936C75.5851 63.785 76.1134 63.3604 76.3019 62.902C76.9189 61.4145 77.5896 60.9748 79.1221 61.4569C79.9814 61.728 80.7919 62.1551 81.6237 62.5123Z" fill="#DD554B"/>
<path d="M99.2393 53.0563C97.6869 53.2849 97.5433 54.7386 96.7627 55.7678C95.7011 53.9468 95.0728 52.1021 95.1153 50.0588C97.1474 49.4768 98.4263 51.2428 99.2393 53.0563Z" fill="#F8F8F8"/>
<path d="M90.1184 54.8447C90.3895 55.5441 90.8628 56.2348 90.894 56.9442C91.0102 59.5845 91.0801 62.2398 90.317 64.8226C89.5227 64.6465 89.153 64.2019 89.2467 63.3426C89.5577 60.5125 89.8312 57.6786 90.1184 54.8447Z" fill="#DD554B"/>
<path d="M90.1032 77.5032C89.9633 78.2026 89.7897 78.8983 89.6898 79.6027C89.495 80.979 89.395 82.3716 89.1477 83.738C89.0466 84.2938 88.6656 84.7983 88.4121 85.3266C88.4121 82.4553 88.4121 79.5852 88.4121 76.7139C88.5233 76.6776 88.6332 76.6427 88.7443 76.6064C89.1965 76.9062 89.6498 77.2047 90.1032 77.5032Z" fill="#DD554B"/>
<path d="M111.889 15.5704C112.37 15.6828 112.789 15.7802 113.211 15.8776C113.633 14.6636 115.025 13.9829 116.026 14.5574C116.236 14.6773 116.355 14.9546 116.516 15.1594C116.295 15.2806 116.068 15.5142 115.854 15.5017C114.922 15.448 114.285 15.6465 114.369 16.7756C114.379 16.903 114.143 17.1266 113.982 17.1753C113.417 17.3489 112.056 16.3647 111.889 15.5704Z" fill="white"/>
<path d="M119.074 105.652C120.61 104.688 122.146 103.724 123.684 102.76C123.747 102.87 123.812 102.981 123.876 103.091C122.577 104.478 121.061 105.482 119.062 105.641L119.074 105.652Z" fill="#D22B1E"/>
<path d="M91.4772 12.4004C92.9922 12.7301 94.506 13.0611 96.0209 13.3908C95.9947 13.5057 95.9672 13.6206 95.941 13.7355C94.3036 13.9104 92.7237 13.8205 91.3711 12.6914C91.4073 12.594 91.4423 12.4966 91.4772 12.4004Z" fill="white"/>
<path d="M104.967 8.62925C106.068 8.36322 107.27 8.79662 107.723 9.90944C106.767 9.5972 105.812 9.2837 104.857 8.97146C104.894 8.85656 104.93 8.7429 104.967 8.62925Z" fill="white"/>
<path d="M94.2695 12.1924C95.1988 12.1924 96.0018 12.1924 96.8661 12.1924C96.2454 13.234 95.1301 13.234 94.2695 12.1924Z" fill="white"/>
<path d="M98.3564 14.445C97.682 15.1844 96.8514 15.4404 95.7773 14.9658C96.5929 14.6848 97.4085 14.405 98.224 14.124C98.2678 14.2314 98.3127 14.3376 98.3564 14.445Z" fill="white"/>
<path d="M53.252 78.271C53.3431 78.3684 53.4331 78.4646 53.5242 78.562C52.9809 79.4375 52.4377 80.3143 51.8944 81.1898C51.7607 81.1036 51.6258 81.0187 51.4922 80.9325C52.0779 80.0458 52.665 79.159 53.252 78.271Z" fill="#AA9683"/>
<path d="M109.997 8.41256C109.492 8.16401 108.987 7.91423 108.42 7.63572C109.294 7.04746 109.723 7.20982 109.997 8.41256Z" fill="white"/>
<path d="M118.118 14.7544C117.511 14.3223 117.075 14.0112 116.525 13.6203C117.627 13.2644 118.079 13.5754 118.118 14.7544Z" fill="white"/>
<path d="M119.064 105.642C118.999 105.678 118.935 105.716 119.018 105.668C118.925 105.692 118.999 105.673 119.074 105.654L119.064 105.642Z" fill="#D22B1E"/>
<path d="M116.839 84.4367C116.584 84.2969 116.329 84.157 116.074 84.0183C116.273 83.8135 116.438 83.4913 116.676 83.4214C119.473 82.5958 122.208 82.612 124.753 84.2307C125.083 84.4405 125.252 84.9026 125.495 85.2473C125.119 85.3447 124.743 85.4421 124.366 85.5396C123.242 85.4434 122.297 84.7714 121.186 84.5853C119.735 84.3406 118.286 84.5154 116.839 84.4367Z" fill="black"/>
<path d="M116.838 84.4364C119.489 83.8294 122.012 84.0966 124.365 85.5379C124.097 85.6716 123.795 85.9601 123.562 85.9126C121.314 85.453 119.079 84.9372 116.838 84.4364Z" fill="#DD554B"/>
<path d="M123.269 87.6199C122.827 88.5079 122.049 88.1232 121.473 87.9658C120.437 87.6835 119.445 87.2277 118.454 86.7993C118.204 86.6919 118.029 86.4109 117.82 86.2085C118.126 86.0574 118.431 85.905 118.737 85.7539C120.313 86.2185 121.874 86.7169 123.269 87.6199Z" fill="#DD554B"/>
<path d="M123.269 87.6205C121.758 86.9985 120.248 86.3765 118.736 85.7545C118.961 85.6109 119.235 85.3011 119.402 85.3511C120.526 85.6833 121.654 86.0343 122.719 86.5139C123.01 86.6438 123.091 87.2383 123.269 87.6205Z" fill="black"/>
<path d="M82.3089 65.7451C81.7569 65.574 81.1761 65.4616 80.6591 65.2156C80.0608 64.9308 79.505 64.5474 78.958 64.1664C78.8219 64.0715 78.7319 63.8243 78.7344 63.6482C78.7357 63.5607 79.0254 63.3746 79.1291 63.4071C80.383 63.8017 81.6382 64.2089 82.49 65.2843C82.4301 65.4379 82.3689 65.5915 82.3089 65.7451Z" fill="black"/>
<path d="M97.8516 34.6356C97.8516 33.4991 98.4148 32.6623 99.2304 32.5911C100.116 32.5136 100.873 33.243 101.069 34.3646C101.075 34.3996 101.075 34.4346 101.08 34.4695C101.24 35.7085 100.553 36.8126 99.5938 36.8538C98.6321 36.895 97.8516 35.9008 97.8516 34.6356Z" fill="black"/>
<path d="M92.0938 39.2495C93.5887 39.2495 94.8927 39.272 96.1941 39.2333C96.5088 39.2245 96.8185 39.016 97.157 38.8886C96.7698 38.3578 96.4463 37.9156 96.0092 37.3174C97.5342 37.6046 98.7607 38.6 99.0954 39.533C98.4434 39.7815 97.7965 40.0014 97.172 40.2711C95.6907 40.9106 94.2195 40.8457 92.7994 40.1475C92.4734 39.9876 92.2973 39.5205 92.0938 39.2495Z" fill="black"/>
<path d="M92.1952 34.1023C91.1748 34.9391 90.5628 34.9241 89.9421 34.0461C89.194 32.9882 89.3563 31.3633 90.2618 30.85C90.8701 30.5053 91.7356 30.8125 91.9866 31.6731C92.2102 32.4399 92.1265 33.2979 92.179 34.1147L92.1952 34.1023Z" fill="black"/>
<path d="M102.555 31.8984C101.908 31.7722 101.548 31.706 101.19 31.6311C100.207 31.4288 99.215 31.2576 98.2458 30.9991C97.8687 30.8979 97.5464 30.5945 97.1992 30.3834C97.5015 30.0612 97.7488 29.5666 98.1172 29.4467C99.3874 29.0333 101.393 29.7851 102.159 30.8717C102.306 31.0828 102.354 31.3638 102.555 31.8984Z" fill="black"/>
<path d="M116.397 32.7434C116.505 33.1593 116.663 33.7788 116.822 34.3982C116.716 34.4782 116.61 34.5581 116.503 34.638C116.112 34.2646 115.722 33.8899 115.289 33.4778C115.136 33.6726 114.965 33.9823 114.709 34.1859C114.495 34.3558 114.184 34.4007 113.916 34.5007C113.902 34.2096 113.766 33.8362 113.896 33.6439C114.384 32.9282 114.887 32.1876 115.533 31.6268C115.855 31.3458 116.497 31.432 116.994 31.3521C116.828 31.738 116.663 32.1226 116.397 32.7434Z" fill="black"/>
<path d="M90.2893 27.2759C91.2047 27.8004 92.0365 28.2001 92.7622 28.7434C92.9545 28.887 92.8209 29.4703 92.8359 29.8512C92.4899 29.8549 92.1102 29.9524 91.8042 29.8437C91.1897 29.6264 90.6027 29.3192 90.0282 29.0032C89.6748 28.8083 89.3675 28.5286 89.0391 28.2875C89.4113 27.9865 89.7822 27.6855 90.2893 27.2759Z" fill="black"/>
<path d="M92.1793 34.1161C92.539 33.7826 92.8725 33.4154 93.2659 33.1282C93.5269 32.9371 93.8704 32.8596 94.1776 32.731C94.1652 33.0469 94.2601 33.4254 94.1214 33.6689C93.6906 34.4245 93.2072 35.1589 92.6639 35.8359C92.4803 36.0657 92.0557 36.1019 91.7422 36.2268C91.7672 35.8858 91.7522 35.5374 91.8259 35.2076C91.9095 34.8304 92.0719 34.4707 92.1993 34.1036C92.1956 34.1023 92.1793 34.1161 92.1793 34.1161Z" fill="black"/>
<path d="M91.4369 40.579C90.384 39.3088 90.5252 37.6227 91.4369 37.313C91.4369 38.3146 91.4369 39.3151 91.4369 40.579Z" fill="black"/>
<path d="M93.9961 41.7724C95.0215 41.675 95.8932 41.6563 96.5977 42.5231C95.4199 42.9764 94.4657 42.7179 93.9961 41.7724Z" fill="black"/>
<path d="M104.126 95.1803C103.077 95.0267 102.162 95.0167 101.33 94.747C97.6706 93.5617 94.2585 91.8469 91.0811 89.6762C90.649 89.3815 90.3318 88.9181 90.0957 88.3511C94.5507 90.7616 99.0344 92.9822 103.884 94.371C103.983 94.3998 103.997 94.7257 104.126 95.1803Z" fill="black"/>
<path d="M97.9238 91.2747C99.2127 90.7314 103.334 91.7618 103.65 92.706C101.553 92.7684 99.6811 92.2713 97.9238 91.2747Z" fill="black"/>
<path d="M110.964 108.176C109.564 108.981 108.164 109.788 106.637 110.667C107.135 108.366 108.248 108.341 110.964 108.176Z" fill="#848484"/>
</svg>
