<svg width="200" height="200" viewBox="0 0 200 200" fill="none" xmlns="http://www.w3.org/2000/svg">
<g clip-path="url(#clip0_2577_23950)">
<path d="M36.0413 388.02C36.1752 387.346 35.879 386.746 35.737 386.117C35.3028 384.153 34.8605 382.193 34.4304 380.229C33.9637 378.087 34.122 375.968 34.7509 373.883C35.2581 372.207 35.7816 370.535 36.3172 368.867C36.5769 368.056 36.6418 367.269 36.5728 366.396C36.2888 362.899 35.5828 359.462 35.1324 355.988C34.2599 349.297 33.1765 342.634 32.3691 335.939C31.7239 330.595 30.9489 325.263 30.6405 319.883C30.5066 317.55 30.3605 315.216 30.3077 312.883C30.2022 307.925 30.9042 303.051 32.0282 298.235C32.1459 297.736 32.3325 297.245 32.227 296.665C31.4926 296.149 30.5471 296.084 29.7356 295.707C29.5002 295.597 29.2608 295.488 29.0093 295.431C27.4389 295.066 26.8911 293.999 26.6883 292.481C25.9335 286.95 25.333 281.404 24.769 275.853C24.0548 268.817 23.2676 261.789 22.59 254.753C22.0746 249.392 21.1495 244.081 20.6463 238.721C20.3136 235.174 19.7414 231.632 20.0864 228.049C20.1229 227.655 19.92 227.456 19.5345 227.436C19.4696 227.432 19.4047 227.432 19.3397 227.436C16.5359 227.61 16.479 226.88 15.4281 225.026C13.3749 221.402 11.7477 217.588 10.4168 213.648C7.77119 205.821 5.95334 197.794 4.71168 189.638C4.0665 185.394 3.79463 181.125 4.172 176.832C4.42358 173.976 5.06064 171.192 5.77074 168.429C8.83837 156.487 12.3686 144.687 16.7509 133.159C18.0413 129.767 19.3763 126.383 21.5836 123.417C20.626 122.256 19.6197 121.246 18.9258 119.988C18.2482 118.767 17.8019 117.436 17.2013 115.877C16.8037 117.671 16.8605 118.815 17.3352 120.11C17.7166 121.148 18.2036 122.134 18.7919 123.072C19.0922 123.551 19.4939 123.989 19.5873 124.642C18.6012 124.756 17.7572 124.399 16.9335 124.05C14.0809 122.849 12.1738 120.751 11.131 117.849C10.1815 115.212 10.1734 112.501 10.5467 109.779C10.9727 106.654 12.0156 103.7 13.6305 101.022C14.9696 98.8026 14.6531 96.8508 13.383 94.8423C12.6891 93.7467 11.9831 92.6592 11.2811 91.5677C9.56064 88.8896 9.06155 85.964 9.36182 82.8193C9.72295 79.0294 10.8348 75.4545 12.255 71.9568C13.0097 70.0943 13.8375 68.2602 14.6368 66.418C15.4687 64.5069 15.9718 62.4902 16.548 60.4978C17.5543 57.0123 18.4633 53.4942 19.502 50.0168C20.0985 48.0244 20.4637 45.9875 20.9304 43.9667C21.7744 40.3229 23.1986 36.9347 25.5724 33.9969C27.4511 31.6678 29.7437 29.9392 32.6734 29.1277C33.4322 28.9167 34.191 28.7463 34.97 28.7747C35.8627 28.8071 36.3375 28.515 36.6743 27.5939C37.6481 24.9158 39.3321 22.7125 41.5598 20.9271C43.6617 19.2431 46.0354 18.0623 48.5918 17.2548C51.704 16.2729 54.9015 15.79 58.1599 15.6764C63.3091 15.4978 68.3853 16.0335 73.4169 17.1169C81.1833 18.7846 87.8136 22.5583 93.4742 28.0565C99.1834 33.5993 103.168 40.189 105.116 47.9473C105.733 50.4063 106.081 52.8977 106.138 55.446C106.24 59.8892 107.096 64.2066 108.776 68.3333C109.263 69.5303 109.932 70.6543 110.541 71.7945C111.243 73.1092 111.994 74.3995 112.683 75.7224C113.783 77.8283 114.29 80.0885 114.359 82.4622C114.453 85.7165 114.152 88.9464 113.726 92.1642C113.418 94.4974 113.349 96.8062 113.889 99.1272C114.335 101.059 115.179 102.779 116.287 104.402C117.321 105.916 118.725 106.675 120.543 106.719C121.05 106.731 121.554 106.772 122.024 106.796C122.154 107.166 122.012 107.36 121.805 107.535C119.448 109.523 116.757 110.083 113.795 109.349C112.2 108.951 110.78 108.176 109.474 107.186C109.068 106.877 108.764 106.423 108.228 106.293C108.127 106.184 107.968 105.969 107.932 105.985C107.757 106.07 107.782 106.257 107.847 106.419C107.867 106.472 107.907 106.516 107.936 106.561C108.309 107.969 109.023 109.174 110.026 110.233C110.882 111.138 110.801 111.625 109.802 112.465C106.13 115.549 101.841 116.997 97.1018 117.221C95.8763 117.277 94.6509 117.229 93.4539 117.229C93.1049 117.793 93.6202 117.971 93.8475 118.202C96.9394 121.351 100.076 124.455 103.152 127.62C107.587 132.185 112.221 136.539 116.936 140.808C117.082 140.938 117.22 141.072 117.366 141.202C118.389 142.102 118.393 142.102 119.066 141.019C119.65 140.082 120.214 139.136 120.799 138.203C124.203 132.758 127.604 127.312 131.02 121.871C132.018 120.28 133.102 118.738 134.068 117.123C134.806 115.89 135.829 115.488 137.184 115.703C137.314 115.723 137.444 115.727 137.569 115.744C139.103 115.926 139.095 115.918 139.801 114.672C140.349 113.707 140.751 112.7 140.966 111.597C141.238 110.193 141.777 108.854 142.41 107.579C143.416 105.559 144.999 104.224 147.243 103.692C149.158 103.238 151.09 103.157 153.041 103.242C156.348 103.388 159.651 103.538 162.958 103.664C163.997 103.704 165.036 103.68 166.071 103.688C167.357 103.7 168.505 104.09 169.418 105.015C170.453 106.058 170.908 107.299 170.425 108.744C169.938 110.205 168.789 110.87 167.341 111.057C166.765 111.13 166.176 111.069 165.592 111.089C165.409 111.097 165.215 111.142 165.202 111.398C165.19 111.641 165.377 111.726 165.539 111.779C166.829 112.209 168.128 112.619 169.418 113.037C170.157 113.276 170.806 113.021 171.48 112.737C173.216 112.01 174.981 111.373 176.787 110.846C178.077 110.469 179.234 110.688 180.285 111.455C181.823 112.57 182.107 114.388 180.95 115.873C180.585 116.344 180.252 116.778 180.102 117.371C180.009 117.736 179.814 118.117 179.559 118.389C177.704 120.369 176.04 122.569 173.541 123.847C173.139 124.054 172.75 124.293 172.38 124.561C169.195 126.849 165.653 127.718 161.749 127.434C159.181 127.247 156.823 126.35 154.409 125.628C153.731 125.425 153.07 125.178 152.315 124.922C152.019 125.79 152.352 126.667 151.877 127.418C151.43 128.128 151.118 128.923 150.741 129.678C147.409 136.357 143.684 142.817 139.858 149.224C137.362 153.403 135.066 157.692 132.777 161.981C132.225 163.016 131.572 163.978 130.882 164.923C128.314 168.453 124.804 170.04 120.499 170.048C117.565 170.052 114.85 169.22 112.351 167.763C109.608 166.165 106.942 164.424 104.243 162.748C103.7 162.411 103.16 162.07 102.665 161.758C102.145 161.949 102.296 162.326 102.308 162.602C102.369 163.702 102.446 164.805 102.555 165.901C102.86 168.944 102.815 172 102.705 175.047C102.494 180.951 102.344 186.855 102.214 192.759C102.154 195.506 102.401 198.2 102.823 200.895C103.61 205.894 104.426 210.885 105.217 215.884C105.319 216.521 105.343 217.174 105.4 217.819C105.521 219.15 104.994 220.075 103.72 220.55C103.111 220.777 102.527 221.057 101.918 221.285C101.439 221.467 101.172 221.759 101.188 222.295C101.204 222.749 101.188 223.204 101.192 223.658C101.204 230.345 101.224 237.033 100.965 243.716C100.798 247.996 100.628 252.277 100.462 256.554C100.267 261.549 100.084 266.54 99.8772 271.535C99.7352 274.907 99.6054 278.279 99.3781 281.647C99.1874 284.5 99.2036 287.356 99.1712 290.209C99.1631 290.858 99.1428 291.507 99.1671 292.156C99.2077 293.39 98.733 294.173 97.5319 294.709C95.9331 295.423 94.3506 296.174 92.6626 296.652C91.7172 296.924 91.0801 297.44 90.654 298.32C89.6964 300.304 88.6617 302.256 87.7163 304.244C82.1044 316.012 76.5981 327.824 71.7086 339.916C69.7365 344.789 68.2189 349.821 66.3768 354.734C66.1089 355.449 66.0886 356.065 66.4295 356.775C67.8659 359.754 69.3632 362.7 70.9011 365.629C72.1103 367.934 73.9768 369.427 76.1802 370.62C77.2068 371.176 78.2537 371.696 79.2803 372.239C81.1022 373.205 82.3682 374.581 82.5954 376.731C82.6198 376.979 82.774 377.214 82.8673 377.458C82.8308 377.713 82.7861 377.965 82.7618 378.225C82.6482 379.401 81.9218 380.079 80.8952 380.493C80.4773 380.659 80.031 380.761 79.5887 380.87C78.2212 381.211 76.8497 381.54 75.4863 381.872C75.5025 382.582 76.1031 382.733 76.4358 383.09C77.7343 384.486 78.7934 385.967 79.0328 387.963C79.2194 389.525 78.6148 390.572 77.4097 391.436C76.0503 392.41 74.5084 392.848 72.8853 393.064C69.1482 393.559 65.3907 393.619 61.6333 393.563C60.4565 393.546 59.3244 393.319 58.2289 392.869C55.7739 391.858 53.3028 390.88 50.8398 389.886C50.4786 389.74 50.1215 389.586 49.7645 389.436C49.4723 389.31 49.2532 389.448 49.1152 389.679C48.9529 389.955 48.7947 390.252 48.7135 390.56C48.4173 391.656 47.626 392.102 46.5873 392.272C44.9804 392.536 43.3655 392.65 41.7464 392.528C40.5859 392.439 39.4376 392.232 38.3501 391.761C37.3803 391.343 36.792 390.649 36.5404 389.631C36.4268 389.095 36.5282 388.462 36.0413 388.02ZM70.7428 114.185C70.7144 114.007 70.6739 113.97 70.6292 114.076C70.6252 114.084 70.7185 114.133 70.7672 114.161C70.8118 114.364 70.9214 114.51 71.1324 114.567C71.2379 115.5 71.7613 116.267 72.232 117.022C73.7658 119.497 75.1008 122.074 76.4196 124.666C76.6549 125.125 76.943 125.555 77.2068 126.001C79.9741 130.684 82.3804 135.533 84.0846 140.715C84.2226 141.133 84.324 141.595 84.7257 141.879L84.7298 141.843C84.7217 142.403 84.6283 142.991 85.1477 143.409L85.1356 143.397C85.1071 144.44 85.2005 145.454 85.8984 146.623C85.7199 145.365 86.15 144.338 85.5697 143.393C85.5697 142.683 85.6265 141.968 85.5576 141.267C85.237 137.927 84.8475 134.6 84.0116 131.337C83.2 128.164 83.1879 128.115 80.104 126.931C79.9823 126.886 79.8565 126.862 79.7307 126.829C79.6414 126.74 79.5603 126.643 79.4629 126.561C78.6148 125.851 78.4484 125.052 79.0328 124.07C79.2519 123.705 79.3087 123.246 79.4385 122.828C79.8889 122.349 79.7631 121.899 79.3411 121.497C77.9615 120.183 76.5819 118.872 75.044 117.74C74.1189 116.872 73.1978 115.999 72.2726 115.135C71.952 114.835 71.6599 114.473 71.1446 114.542C71.1202 114.307 70.9822 114.189 70.7428 114.185ZM127.612 165.231C127.863 165.207 127.997 165.065 128.022 164.817L128.013 164.838C129.373 163.953 130.075 162.557 130.813 161.202C133.471 156.308 136.149 151.423 139.002 146.639C142.353 141.019 145.624 135.354 148.687 129.572C148.898 129.17 149.118 128.773 149.3 128.359C149.609 127.657 149.475 127.495 148.497 127.332C148.432 127.32 148.367 127.332 148.302 127.332C148.071 127.223 147.852 127.085 147.612 127.012C143.112 125.579 139.075 123.36 135.65 120.077C135.114 119.562 134.989 119.59 134.473 120.292C132.586 122.84 130.984 125.575 129.328 128.274C126.386 133.066 123.481 137.874 120.543 142.666C119.768 143.932 119.09 144.172 117.622 143.839C117.37 143.782 117.114 143.754 116.859 143.713C116.408 143.251 115.978 142.772 115.503 142.334C114.221 141.153 112.902 140.009 111.632 138.816C106.406 133.902 101.403 128.765 96.3673 123.656C94.7402 122.005 93.2226 120.231 91.4047 118.767C90.1996 117.346 88.6008 116.506 86.9493 115.744C86.3285 115.455 85.7442 115.464 85.095 115.739C83.7072 116.328 82.2424 116.555 80.7289 116.527C79.4426 116.502 78.1644 116.49 76.8538 116.137C76.9633 116.936 77.5111 117.233 77.9615 117.557C79.1261 118.401 80.0796 119.464 81.1144 120.442C81.8934 121.177 82.072 122.029 81.7271 123.096C81.1103 124.991 81.1631 125.007 83.0093 125.961C83.2406 126.079 83.4881 126.172 83.7032 126.318C84.4214 126.797 84.888 127.401 85.168 128.278C86.6897 132.997 87.4241 137.878 87.7325 142.776C88.0733 148.132 88.2397 153.533 87.1401 158.865C86.9331 159.875 86.7627 160.91 86.7546 161.936C86.6897 169.715 86.9778 177.498 86.3691 185.268C86.1094 188.559 86.0161 191.866 85.8416 195.165C85.8335 195.36 85.797 195.551 85.7767 195.745C85.5819 197.677 85.3222 199.604 85.2126 201.54C85.0544 204.388 85.0382 207.249 85.2005 210.101C85.3344 212.443 85.8538 214.723 86.7424 216.89C87.4647 218.647 88.6414 219.921 90.6784 220.258C94.6063 220.907 98.4124 220.591 102.093 219.037C102.206 218.988 102.296 218.878 102.397 218.797C102.718 218.736 103.083 218.675 103.225 218.379C103.355 218.107 103.407 217.75 103.363 217.446C103.111 215.725 102.847 214.009 102.543 212.297C101.634 207.164 100.835 202.014 100.267 196.833C100.234 196.524 100.076 196.232 99.9787 195.932C100.214 193.043 100.356 190.15 100.332 187.248C100.315 185.378 100.364 183.507 100.393 181.637C100.401 181.121 100.356 180.59 100.47 180.095C100.798 178.626 100.729 177.149 100.673 175.668C100.709 174.572 100.815 173.468 100.766 172.377C100.673 170.186 100.62 167.991 100.474 165.799C100.194 161.612 99.9665 157.416 99.5526 153.241C99.2523 150.214 98.6964 147.223 97.7997 144.318C96.2578 139.311 94.5129 134.377 92.411 129.576C92.127 128.931 91.9647 128.217 91.4291 127.706C91.3966 127.45 91.3723 127.194 91.3276 126.943C91.3073 126.817 91.2505 126.695 91.2099 126.574C91.1126 126.29 91.1978 126.062 91.4493 125.924C91.7212 125.774 91.9931 125.896 92.1392 126.099C93.1577 127.511 94.3263 128.813 94.9349 130.501C95.5274 132.145 96.2334 133.744 96.8948 135.358C98.246 138.657 99.366 142.037 100.263 145.478C101.228 149.175 101.756 152.953 101.91 156.779C101.995 158.946 101.975 158.978 103.878 160.184C106.885 162.087 109.904 163.969 112.951 165.808C113.998 166.436 115.098 167.017 116.242 167.431C118.356 168.198 120.584 168.222 122.763 167.865C124.414 167.593 126.025 167.037 127.222 165.726C127.437 165.621 127.604 165.475 127.628 165.219L127.612 165.231ZM59.0445 368.182C59.1094 368.243 59.1743 368.299 59.2433 368.36C59.1905 368.291 59.1378 368.218 59.085 368.149C58.9552 368.019 58.8294 367.885 58.6996 367.756C58.4683 366.948 58.0016 366.376 57.1495 366.177C57.0846 366.12 57.0237 366.06 56.9588 366.003C57.0115 366.072 57.0643 366.141 57.117 366.21C57.3524 367.009 57.8069 367.597 58.659 367.796C58.7117 367.999 58.8416 368.129 59.0445 368.182ZM55.9281 364.676C55.9971 364.737 56.0661 364.798 56.1351 364.854C56.0783 364.781 56.0255 364.708 55.9687 364.635C55.9038 364.234 55.7252 363.897 55.36 363.702C55.2748 363.657 55.0922 363.674 55.0314 363.734C54.9705 363.799 54.9543 363.982 55.003 364.067C55.1977 364.436 55.5143 364.639 55.9281 364.676ZM59.8763 369.285C59.8073 369.225 59.7424 369.168 59.6734 369.107C59.7262 369.18 59.783 369.253 59.8357 369.326C59.8479 369.387 59.8519 369.452 59.8763 369.513C60.2253 370.369 60.9354 370.917 61.6049 371.489C61.6657 371.537 61.8646 371.509 61.9254 371.444C61.9904 371.379 62.0188 371.176 61.966 371.115C61.3452 370.422 60.8867 369.537 59.8763 369.285ZM83.6139 42.1164C83.5652 42.0758 83.5206 42.0353 83.4719 41.9947C83.5287 42.0271 83.5855 42.0596 83.6423 42.0921C85.1883 43.4636 87.0143 44.2913 88.9782 44.8554C89.3191 45.6629 88.613 45.9104 88.1707 46.166C86.0688 47.3833 83.7965 48.1583 81.3659 48.3166C76.9309 48.6006 72.5526 48.2598 68.2676 46.9978C65.2771 46.1173 62.384 44.9852 59.507 43.7882C59.0445 43.5975 58.6225 43.2242 58.0584 43.3784C58.0219 43.4392 57.9773 43.492 57.961 43.5528C57.8231 44.1209 57.7054 44.689 57.5593 45.253C56.2649 50.2156 54.0048 54.5736 49.7523 57.6656C49.2857 58.0023 49.0787 58.3635 49.1396 58.9681C49.4074 61.6867 49.3546 64.4135 49.241 67.1362C49.1517 69.2138 48.7784 71.2629 48.117 73.2431C47.9101 73.8558 47.6666 74.4645 47.2122 74.9514C46.36 75.8684 45.0291 75.9333 44.0877 75.0975C43.6049 74.6673 43.1544 74.1926 42.6432 73.8031C40.9795 72.5452 39.1049 71.9406 37.003 72.0907C33.282 72.3585 30.4416 75.5884 30.8474 79.2323C31.2167 82.5555 33.0507 84.8847 36.1021 86.1547C39.048 87.3801 41.8154 86.9338 44.2866 84.8765C44.9358 84.3369 45.5728 83.785 46.3885 83.4969C46.6765 83.3955 47.1067 83.7242 47.0417 84.0122C46.9849 84.2598 46.9159 84.5154 46.7902 84.7345C46.3722 85.4771 45.7839 86.0776 45.1711 86.666C44.3637 87.441 44.3637 87.4572 44.8059 88.5041C45.3375 89.762 45.9299 90.9793 46.782 92.0668C47.906 93.4951 48.9935 94.9518 50.0728 96.4086C50.9615 97.6056 51.8866 98.7823 52.6738 100.044C54.8488 103.526 55.4493 107.421 55.4128 111.43C55.3844 114.717 54.7676 117.886 52.9538 120.71C52.617 121.238 52.686 121.623 52.9863 122.118C54.2685 124.224 55.5792 126.314 56.7437 128.485C57.2631 129.455 57.9732 129.872 58.9674 130.136C62.3961 131.049 65.8776 131.203 69.3916 130.94C70.7591 130.838 72.0738 130.469 73.352 129.99C74.0783 129.718 74.7721 129.357 75.3727 128.842C75.9408 128.355 75.9895 128.18 75.6446 127.527C74.6423 125.636 73.6522 123.737 72.6256 121.859C71.9723 120.666 71.2663 119.497 70.5643 118.332C70.4466 118.138 70.3777 117.821 70.0368 117.866C69.8177 117.967 69.6067 118.069 69.3308 118.194C68.6369 115.703 68.0729 113.264 68.7221 110.7C68.9737 109.698 69.0995 108.659 69.2577 107.636C69.3754 106.881 69.3064 106.788 68.5557 106.533C68.3123 106.447 68.0526 106.399 67.8091 106.317C63.3335 104.824 59.361 102.377 55.4574 99.8048C55.2708 99.6831 55.2261 99.5127 55.2505 99.3139C55.283 99.0582 55.498 99.0298 55.6806 99.0217C56.9912 98.9649 58.2532 99.2652 59.5152 99.5736C60.9638 99.9266 62.4164 100.259 63.8853 100.515C67.4845 101.136 71.1121 101.176 74.7478 100.941C78.5296 100.698 82.1937 99.9266 85.7077 98.478C87.0954 97.9059 88.3898 97.1714 89.5544 96.2178C90.366 95.5524 91.0152 94.7814 91.5102 93.8319C92.2974 92.3265 92.9182 90.7724 93.3687 89.1412C94.517 84.9861 94.9349 80.7296 95.1784 76.4487C95.5071 70.6015 95.1906 64.7706 94.4602 58.9681C93.9327 54.7765 93.109 50.6457 91.8105 46.6164C91.5102 45.6913 91.1004 44.9649 90.1468 44.6403C89.9034 44.5592 89.664 44.4537 89.4246 44.3603C89.1689 44.1858 88.9295 43.9586 88.6495 43.8369C87.0143 43.1308 85.4318 42.2787 83.6139 42.1164ZM53.6477 127.422C53.6193 127.109 53.5097 126.841 53.2257 126.671C52.8321 125.563 52.1098 124.638 51.5052 123.648C51.2861 123.287 50.9696 123.108 50.5273 123.319C49.7726 123.684 49.0057 124.021 48.255 124.399C48.1008 124.476 47.9304 124.638 47.8817 124.792C47.6991 125.397 48.048 125.92 48.1982 126.472C48.3199 126.914 48.7216 126.992 49.0868 127.117C49.9998 127.434 50.929 127.722 51.8177 128.103C52.7428 128.501 52.9457 128.968 52.7185 129.97C52.5765 130.599 52.3979 131.224 52.1788 131.828C51.4078 133.946 51.3957 133.946 52.7712 135.622C52.8524 135.724 52.9416 135.817 53.0269 135.914C55.5629 138.759 57.9326 141.741 60.3105 144.72C60.9029 145.462 61.3289 146.375 62.1851 146.899L62.177 146.886C62.2947 147.053 62.4124 147.223 62.5341 147.39C62.8587 148.157 63.2888 148.85 63.865 149.455C64.1896 149.187 64.1166 148.94 64.0354 148.716C63.6337 147.629 63.2523 146.529 62.8019 145.462C60.4241 139.806 57.6892 134.328 54.7108 128.968C54.4024 128.412 54.163 127.795 53.6274 127.389L53.6477 127.422ZM8.42854 167.516C7.88887 167.759 8.06741 168.299 7.92945 168.713C7.36542 169.833 7.30456 171.079 7.04892 172.271C6.43621 175.128 6.00609 178.005 6.0913 180.943C6.13594 182.497 6.26173 184.043 6.37534 185.593C6.67155 189.614 7.46686 193.542 8.25 197.478C8.94387 200.972 9.83251 204.425 10.7942 207.858C12.2469 213.06 14.1499 218.083 16.6251 222.879C16.9497 223.512 17.3555 224.101 17.7207 224.713C17.9439 225.087 18.2807 225.225 18.6946 225.241C19.8064 225.281 20.8857 225.111 21.9651 224.855C24.7568 224.194 27.4552 223.313 29.8573 221.686C30.8677 221.329 31.594 220.591 32.3366 219.86C32.9452 219.264 33.1603 218.558 33.0386 217.738C32.9818 217.353 32.9168 216.967 32.8154 216.598C31.7644 212.857 30.9042 209.067 30.0196 205.285C28.8104 200.111 27.7189 194.918 26.6436 189.72C26.319 188.141 26.2257 186.51 25.6373 184.988C25.3776 182.639 25.5886 180.338 26.2622 178.062C26.7572 176.386 27.09 174.666 27.5485 172.978C28.6887 168.786 30.0075 164.647 31.5981 160.602C33.1644 156.621 34.7875 152.661 36.3984 148.696C37.0557 147.073 37.7374 145.462 38.4313 143.855C38.6585 143.328 38.8168 142.739 39.324 142.382C39.4132 142.322 39.5756 142.309 39.6851 142.342C39.7866 142.374 39.9164 142.48 39.9407 142.577C40.103 143.226 39.9489 143.851 39.7987 144.488C39.2022 147.02 38.2608 149.435 37.3032 151.845C34.7509 158.293 32.1215 164.712 30.1941 171.387C29.204 174.812 28.3113 178.257 27.6378 181.758C27.4917 182.529 27.4105 183.308 27.5566 184.079C27.9867 186.368 28.3965 188.665 28.8997 190.941C29.9912 195.875 31.1233 200.797 32.2636 205.719C32.86 208.308 33.5133 210.881 34.122 213.465C34.2883 214.179 34.5237 214.8 35.181 215.243C37.4412 216.764 39.6324 218.387 41.925 219.844C44.7694 221.654 47.8614 222.741 51.3023 222.555C51.9475 222.518 52.6008 222.555 53.25 222.559C56.131 222.587 58.7604 221.759 61.0977 220.104C63.2888 218.554 64.8876 216.643 65.0418 213.741C65.1026 212.589 65.2609 211.424 65.2933 210.26C65.3258 209.156 65.2487 208.032 65.4435 206.957C65.829 204.843 65.7721 202.696 65.975 200.57C66.2875 197.348 66.1739 194.098 66.3686 190.856C66.6932 185.487 66.3686 180.091 66.7866 174.714C66.9002 173.225 66.6121 171.736 66.5837 170.255C66.5106 166.688 66.324 163.129 66.1049 159.571C66.0237 158.248 65.7275 157.014 65.1473 155.834C64.145 153.789 62.9115 151.877 61.613 150.023C58.7482 145.929 55.6116 142.05 52.3127 138.296C51.4565 137.322 50.6166 136.336 49.7563 135.367C49.1396 134.669 48.9407 133.946 49.3871 133.054C49.7929 132.246 50.1013 131.386 50.4218 130.538C50.5435 130.209 50.4462 129.889 50.1053 129.714C49.7604 129.536 49.4155 129.337 49.0503 129.219C45.9056 128.225 46.567 128.03 45.8691 125.454C45.8204 125.267 45.8366 125.06 45.7798 124.877C45.4633 123.831 45.4105 122.702 44.8384 121.7C44.6396 121.729 44.4408 121.721 44.2744 121.79C41.2514 123.112 38.1026 123.709 34.7996 123.478C34.3573 123.445 33.8826 123.51 33.4646 123.652C31.663 124.261 29.7721 124.305 27.9177 124.569C27.1589 124.679 26.3717 124.642 25.5967 124.476C25.0327 124.358 24.4443 124.334 23.8641 124.301C23.5841 124.285 23.3893 124.472 23.2595 124.711C22.3749 125.506 21.8109 126.533 21.3118 127.576C20.5855 129.089 19.9078 130.631 19.2992 132.198C16.8808 138.406 14.7545 144.72 12.8149 151.094C11.3663 155.858 9.92178 160.618 8.67201 165.438C8.49347 166.128 8.25812 166.802 8.42449 167.528L8.42854 167.516ZM167.71 117.756C167.345 117.647 166.98 117.521 166.61 117.432C165.856 117.249 165.162 116.945 164.541 116.478C164.306 116.303 164.2 116.048 164.318 115.817C164.435 115.585 164.736 115.528 164.991 115.606C165.661 115.808 166.334 116.015 166.992 116.259C167.426 116.417 167.868 116.547 168.294 116.377C168.887 116.145 169.564 116.186 170.092 115.776C171.403 115.435 172.709 115.086 174.024 114.753C175.497 114.38 176.958 114.189 178.329 115.115C178.65 115.33 178.938 115.192 179.173 114.916C179.798 114.181 179.688 113.435 178.881 112.984C178.41 112.721 177.927 112.716 177.384 112.79C175.821 113.005 174.389 113.597 172.94 114.165C171.979 114.542 171.017 114.912 170.055 115.285C167.706 114.555 165.361 113.804 163.003 113.106C161.319 112.607 159.729 111.881 158.134 111.171C157.554 110.911 156.697 110.826 156.645 109.892C157.184 109.361 157.874 109.568 158.491 109.58C161.092 109.629 163.673 109.426 166.245 109.105C166.756 109.04 167.276 108.955 167.755 108.776C168.497 108.501 168.749 107.693 168.355 107.011C168.014 106.419 167.499 106.037 166.834 105.9C166.391 105.806 165.937 105.749 165.486 105.733C160.759 105.567 156.028 105.404 151.301 105.254C149.994 105.214 148.724 105.502 147.462 105.81C146.618 106.017 145.944 106.476 145.32 107.08C144.2 108.168 143.611 109.539 143.291 110.996C142.852 112.992 142.045 114.798 140.982 116.519C140.71 116.961 140.483 117.427 140.243 117.89C138.888 120.524 138.397 120.26 141.664 121.643C143.218 122.305 144.865 122.67 146.569 122.723C146.886 122.735 147.255 122.759 147.348 122.349C147.527 121.579 148.095 121.518 148.7 121.607C149.791 121.761 150.858 122.017 151.869 122.479C154.348 123.615 156.921 124.5 159.562 125.178C160.126 125.32 160.698 125.45 161.274 125.498C164.115 125.73 166.813 125.101 169.439 124.074C169.792 123.936 170.12 123.709 170.421 123.473C170.632 123.307 170.68 123.043 170.563 122.771C170.088 121.668 169.029 121.039 167.909 121.327C167.036 121.55 166.168 121.854 165.352 122.244C163.608 123.08 161.94 122.686 160.276 122.057C159.684 121.834 159.343 121.303 159.574 121.083C159.907 120.763 160.28 120.901 160.654 121.019C162.123 121.473 163.559 121.587 164.882 120.597C164.577 120.106 164.034 120.037 163.559 119.85C163.072 119.659 162.618 119.412 162.301 118.973C162.143 118.754 162.054 118.491 162.183 118.247C162.317 118 162.597 117.918 162.853 118.008C163.522 118.243 164.188 118.495 164.841 118.775C165.868 119.213 166.829 119.233 167.718 118.458C169.199 118.028 170.68 117.598 172.165 117.168C173.525 116.774 174.722 117.119 175.793 117.983C176.036 118.178 176.264 118.393 176.479 118.584C177.164 118.28 177.591 117.789 178.037 117.326C178.398 116.953 178.313 116.458 177.887 116.161C176.982 115.524 175.98 115.391 174.921 115.597C173.711 115.837 172.547 116.23 171.419 116.73C170.238 117.249 169.013 117.651 167.71 117.756ZM94.9146 293.548C95.1622 293.475 95.4097 293.402 95.6572 293.325C96.7974 292.96 97.329 292.23 97.187 290.992C97.1058 290.29 97.1667 289.568 97.1788 288.858C97.2275 285.879 97.2235 282.897 97.3493 279.922C97.4832 276.822 97.751 273.726 97.9417 270.626C98.0999 268.041 98.1365 265.453 98.2541 262.868C98.4692 258.149 98.4814 253.422 98.7329 248.698C98.8709 246.114 98.7411 243.509 98.9358 240.932C99.232 236.984 99.1834 233.04 99.1793 229.092C99.1915 227.537 99.2118 225.979 99.2118 224.425C99.2118 223.987 98.9926 223.707 98.526 223.638C95.9047 223.244 93.2753 222.875 90.6621 222.429C88.54 222.068 86.7465 221.163 85.5819 219.211C84.8759 218.026 84.3484 216.789 84.0237 215.458C83.4962 213.311 83.1919 211.136 83.1879 208.921C83.1879 208.19 82.9201 207.991 82.214 208.073C81.8934 208.109 81.581 208.198 81.2604 208.251C78.067 208.795 74.8736 209.31 71.6193 209.245C70.5156 209.225 69.416 209.189 68.3123 209.18C67.5657 209.176 67.31 209.355 67.2857 210.033C67.2248 211.652 66.9813 213.258 66.9083 214.869C66.8353 216.521 66.2469 217.904 65.2609 219.134C64.4493 220.144 63.5079 221.037 62.4286 221.78C58.237 224.661 53.5747 225.249 48.6729 224.6C46.4006 224.299 44.2825 223.5 42.2699 222.413C41.7018 222.108 41.1581 221.735 40.4926 221.65C40.0828 221.601 39.7541 221.646 39.5715 222.124C39.0156 223.589 38.1594 224.892 37.218 226.129C34.9254 229.144 32.1418 231.664 29.204 234.026C28.2951 234.756 27.3334 235.418 26.3677 236.071C25.8321 236.432 25.2559 236.744 24.5864 236.809C23.5922 236.903 22.8983 235.998 23.4745 235.194C23.9047 234.59 23.8479 234.172 23.5963 233.616C23.3041 232.967 23.0444 232.301 22.7523 231.652C22.6427 231.404 22.452 231.238 22.1112 231.34C22.1112 232.163 22.0422 233.007 22.1233 233.835C22.3546 236.152 22.6143 238.469 22.9308 240.778C23.4745 244.754 24.0629 248.719 24.4646 252.716C24.6148 254.197 24.7568 255.678 24.9029 257.159C25.1017 259.155 25.3086 261.152 25.5683 263.136C25.7874 264.807 25.8767 266.487 26.0309 268.163C26.3433 271.576 26.7451 274.98 27.1184 278.389C27.2117 279.225 27.3537 280.052 27.443 280.888C27.7514 283.785 28.0395 286.683 28.3519 289.576C28.4412 290.412 28.5954 291.239 28.7293 292.071C28.8388 292.757 29.1756 293.191 29.8776 293.479C31.7442 294.246 33.6716 294.818 35.6274 295.261C39.8555 296.222 44.1283 296.936 48.4538 297.338C51.6797 297.638 54.8975 297.967 58.1355 298.028C64.1653 298.142 70.1951 298.182 76.2045 297.586C80.1283 297.196 84.044 296.689 87.8989 295.784C90.301 295.22 92.687 294.636 94.9146 293.548ZM66.0886 380.026C66.0075 379.734 66.0075 379.661 65.971 379.62C61.9498 374.95 57.9448 370.271 53.8912 365.629C53.035 364.651 52.5886 363.625 52.5278 362.31C52.3168 357.632 52.6008 352.965 52.9457 348.307C53.4529 341.449 54.1062 334.608 54.6702 327.755C55.214 321.092 56.0093 314.462 56.9588 307.848C57.2915 305.539 57.6121 303.226 57.9164 300.909C58.0016 300.276 57.8271 300.105 57.1982 300.045C57.1333 300.041 57.0684 300.037 57.0034 300.037C53.6355 299.964 50.2798 299.655 46.8997 299.959C42.5499 300.349 38.2974 301.132 34.122 302.398C33.4281 302.609 33.0507 302.954 32.9493 303.725C32.6531 305.977 32.3853 308.233 32.3772 310.505C32.3528 315.504 32.649 320.491 33.2496 325.454C33.9191 330.993 34.5562 336.532 35.2663 342.066C35.7288 345.665 36.3253 349.248 36.8285 352.848C37.4574 357.344 38.0255 361.844 38.6747 366.34C38.7883 367.143 38.833 367.869 38.4353 368.592C38.2811 368.871 38.1919 369.192 38.0985 369.504C37.8713 370.292 37.9484 370.511 38.5814 370.994C38.7356 371.111 38.902 371.217 39.0602 371.33C44.9236 375.526 51.0913 379.231 57.4944 382.538C57.8961 382.745 58.3222 382.907 58.732 383.106C59.296 383.382 59.8235 383.382 60.3957 383.069C62.2663 382.047 64.1572 381.057 66.0886 380.026ZM59.1702 132.522C59.154 133.127 59.5111 133.537 59.7302 133.995C61.0368 136.75 62.3839 139.485 63.6662 142.248C66.2023 147.71 67.8619 153.403 68.1337 159.461C68.2798 162.768 68.6207 166.063 68.718 169.37C68.9291 176.577 68.6775 183.779 68.4056 190.982C68.2676 194.613 67.9917 198.237 67.7848 201.864C67.7036 203.289 67.6265 204.717 67.5859 206.141C67.5616 206.965 67.7361 207.147 68.6004 207.229C69.3754 207.302 70.1545 207.342 70.9336 207.334C73.4047 207.318 75.8596 207.095 78.2943 206.685C79.6374 206.458 80.9723 206.194 82.2992 205.894C83.1311 205.703 83.1716 205.585 83.2163 204.68C83.2893 203.256 83.3623 201.832 83.4435 200.408C83.6667 196.455 83.8817 192.503 84.1252 188.551C84.4255 183.759 84.6973 178.963 84.7501 174.158C84.8191 167.601 84.7135 161.048 84.3605 154.499C84.0562 148.883 83.2 143.413 80.9723 138.203C79.8281 135.521 78.7365 132.818 77.1987 130.27C76.939 130.392 76.6833 130.465 76.4845 130.611C74.5327 132.023 72.3051 132.624 69.9597 132.932C66.9732 133.326 64.007 133.192 61.049 132.668C60.4281 132.559 59.8114 132.327 59.1702 132.522ZM88.4142 298.077C88.1951 298.036 88.0652 297.975 87.9475 297.991C85.3263 298.426 82.6766 298.742 80.0918 299.335C74.6545 300.58 69.3226 302.203 64.1044 304.175C63.1549 304.536 61.9904 304.577 61.3411 305.466C60.7284 306.306 60.5134 307.365 60.2577 308.367C59.5638 311.065 58.8862 313.768 58.2613 316.482C57.9164 317.992 57.5918 319.522 57.4295 321.06C56.9182 325.896 56.4597 330.737 56.0336 335.578C55.6644 339.778 55.3601 343.977 55.0395 348.181C54.7717 351.675 54.5931 355.169 54.5079 358.674C54.4836 359.652 54.7879 360.387 55.4574 361.105C57.8474 363.665 60.1725 366.283 62.5219 368.88C62.8709 369.265 63.2239 369.646 63.5769 370.024C63.8691 370.336 64.2059 370.409 64.6279 370.275C66.3646 369.724 68.15 369.407 69.9597 369.225C70.3411 369.188 70.4588 368.888 70.264 368.518C70.1423 368.287 69.9962 368.072 69.8664 367.849C67.9511 364.534 66.3321 361.069 64.709 357.607C64.1247 356.362 63.9827 355.173 64.4818 353.862C66.324 349.017 67.7929 344.034 69.7568 339.234C75.251 325.787 81.2686 312.575 87.8583 299.627C88.0977 299.168 88.4304 298.746 88.4142 298.077ZM63.3091 391.781C65.3136 391.672 67.3181 391.591 69.3226 391.449C70.4831 391.367 71.6437 391.238 72.792 391.055C73.7496 390.901 74.6951 390.645 75.5634 390.191C77.0161 389.428 77.3488 388.499 76.6671 386.985C76.4034 386.401 76.0503 385.841 75.6486 385.342C74.8736 384.372 73.92 383.589 72.8001 383.037C71.8141 382.55 70.7875 382.128 69.8339 381.584C69.0061 381.114 68.3082 381.166 67.4926 381.633C65.5206 382.749 63.4917 383.767 61.5034 384.859C60.3389 385.5 59.1865 385.618 57.9732 385.033C57.6243 384.863 57.2469 384.749 56.906 384.567C53.7735 382.871 50.5963 381.256 47.5692 379.365C44.6558 377.543 41.8073 375.628 39.0075 373.643C38.5855 373.343 38.1513 373.059 37.6928 372.82C37.4412 372.686 37.1612 372.799 37.0598 373.075C36.3578 374.978 35.9195 376.914 36.2442 378.967C36.7838 382.363 37.851 385.638 38.5571 388.994C38.7031 389.688 39.1089 390.122 39.819 390.312C42.0061 390.901 44.1851 390.718 46.3641 390.3C46.9322 390.191 47.3095 389.57 47.3501 388.791C47.3745 388.3 46.9971 388.162 46.64 387.991C46.2343 387.797 45.8285 387.59 45.4511 387.342C45.2401 387.204 45.0494 386.961 45.2117 386.685C45.2929 386.547 45.4917 386.413 45.654 386.389C46.778 386.226 47.8371 386.466 48.8637 386.92C52.2397 388.413 55.6806 389.752 59.1337 391.063C60.4971 391.578 61.8646 391.854 63.3091 391.781ZM71.2622 371.27C70.0855 371.237 69.0589 371.347 68.0445 371.578C66.5999 371.911 65.1554 372.239 63.7068 372.556C63.2158 372.665 63.0372 372.986 63.3497 373.355C64.64 374.889 65.9466 376.407 67.2654 377.916C67.4723 378.151 67.7645 378.338 68.0526 378.468C69.0548 378.914 70.0165 379.442 71.0634 379.807C72.017 380.14 72.93 380.229 73.9079 380.01C75.5472 379.645 77.1946 379.316 78.8339 378.955C79.2722 378.858 79.7104 378.72 80.1283 378.553C80.5138 378.399 80.737 378.103 80.6842 377.644C80.5016 376.07 79.8646 374.82 78.3592 374.094C77.1378 373.501 75.9245 372.885 74.7681 372.179C73.6319 371.481 72.5039 370.925 71.2622 371.27ZM26.0958 233.73C29.1066 231.595 31.8943 229.274 34.2843 226.539C36.938 223.5 36.658 224.474 34.5886 221.276C34.5359 221.195 34.3898 221.171 34.2112 221.082C33.3632 222.116 32.3122 222.977 31.2532 223.825C29.8898 224.916 28.498 225.975 27.1549 227.091C26.1202 227.951 24.9272 228.637 24.1522 229.789C24.6919 231.031 25.2275 232.273 25.7712 233.51C25.7915 233.559 25.8686 233.579 26.0958 233.73ZM172.165 122.252C173.168 121.891 173.926 121.294 174.673 120.686C175.521 119.992 175.501 119.517 174.616 118.88C173.902 118.365 173.119 118.174 172.247 118.409C171.63 118.576 170.981 118.665 170.404 118.917C169.812 119.172 169.09 119.237 168.619 119.915C170.343 119.951 171.394 120.929 172.165 122.252ZM46.7658 38.3711C46.6522 38.3225 46.5305 38.221 46.429 38.2372C45.6662 38.363 45.2117 38.9473 44.7856 39.4911C43.1342 41.6011 42.1238 44.0154 41.5435 46.6205C41.503 46.8031 41.5273 47.0384 41.7464 47.0425C41.8966 47.0425 42.1157 46.9004 42.1928 46.7584C42.493 46.1904 42.769 45.6101 43.0206 45.0177C43.9822 42.7697 44.9114 40.5096 46.6684 38.7242C46.7415 38.6471 46.7334 38.4888 46.7658 38.3711ZM66.9732 31.2986C66.8028 31.4162 66.7216 31.6232 66.8109 31.7855C66.9245 32.0005 67.095 32.2359 67.3019 32.3373C69.1441 33.2503 71.0512 33.9969 73.0314 34.5528C73.1491 34.5853 73.2992 34.6056 73.4088 34.561C73.5751 34.492 73.7415 34.3905 73.8632 34.2607C74.0215 34.0822 73.8876 33.8955 73.778 33.7494C73.4128 33.2503 72.8366 33.088 72.297 32.9054C70.6576 32.3495 69.0061 31.8301 67.3547 31.3067C67.241 31.2702 67.1071 31.2986 66.9732 31.2986ZM33.9962 95.4956C33.9434 95.5199 33.8826 95.5321 33.842 95.5686C33.6472 95.7228 33.6919 95.9419 33.7933 96.0839C34.8605 97.6096 35.9033 99.1475 36.6459 100.868C36.7311 101.063 36.9786 101.318 37.2586 101.111C37.3803 101.018 37.4818 100.754 37.4412 100.608C36.9218 98.6322 35.8384 96.9888 34.3614 95.6011C34.2721 95.528 34.1179 95.528 33.9962 95.4956ZM43.0733 38.2656C43.0489 38.2088 43.0408 38.1236 43.0003 38.0993C42.9029 38.0465 42.7852 37.9816 42.6838 37.9938C42.5661 38.01 42.4281 38.0749 42.351 38.1642C40.8943 39.8644 40.2045 41.9257 39.6242 44.0357C39.608 44.0885 39.7419 44.2021 39.8271 44.2589C39.8596 44.2832 39.961 44.2508 40.0016 44.2102C40.099 44.129 40.2045 44.0398 40.2613 43.9302C41.2108 42.1083 42.1522 40.2823 43.0895 38.4564C43.1098 38.4077 43.0774 38.3265 43.0733 38.2656ZM41.3122 103.501C41.7667 101.241 41.0688 99.4194 39.5066 97.914C39.4619 97.8734 39.3929 97.8409 39.3321 97.8328C39.2104 97.8166 39.0602 97.7719 38.971 97.8247C38.7762 97.9383 38.764 98.1899 38.8695 98.3278C39.9448 99.7359 40.4601 101.391 40.9957 103.043C41.0526 103.209 41.2027 103.347 41.3122 103.501ZM72.4714 30.7995C72.3659 30.8766 72.1874 30.9577 72.0941 31.0997C71.9602 31.2986 72.1062 31.4974 72.2807 31.5583C73.6198 32.0371 74.8249 32.7796 76.0625 33.4573C76.2857 33.579 76.5373 33.652 76.7848 33.7088C76.8903 33.7332 77.0607 33.6926 77.1256 33.6155C77.2636 33.4613 77.2271 33.2828 77.0688 33.1286C75.8921 31.9803 74.4719 31.2702 72.9137 30.8035C72.8001 30.767 72.6621 30.7995 72.4714 30.7995ZM71.875 27.9347C71.737 28.0524 71.6071 28.1133 71.5625 28.2106C71.457 28.4379 71.6477 28.5758 71.806 28.6408C73.352 29.2697 74.902 29.8824 76.4561 30.4951C76.6549 30.5722 76.8822 30.5033 76.9349 30.3288C76.9796 30.1746 76.9146 29.9068 76.797 29.8053C75.3727 28.5718 73.6441 28.1498 71.875 27.9347ZM59.5273 304.451C60.3916 302.905 61.0408 301.753 61.6739 300.592C61.7185 300.511 61.6698 300.321 61.5968 300.252C61.1504 299.838 59.9818 300.158 59.8479 300.755C59.6044 301.81 59.3163 302.869 59.5273 304.451ZM47.7437 119.002C47.2243 119.038 46.5629 119.801 46.6563 120.373C46.7455 120.933 46.9525 121.473 47.127 122.017C47.2 122.24 47.6017 122.256 47.76 122.053C48.1657 121.546 48.4498 120.982 48.5472 120.337C48.6161 119.858 48.4457 119.456 48.0846 119.144C47.9953 119.067 47.8614 119.047 47.7437 119.002ZM38.1838 221.082C37.9606 220.964 37.7496 220.822 37.5183 220.729C37.2302 220.611 36.8406 220.465 36.7189 220.871C36.6215 221.203 36.9421 221.471 37.2383 221.597C37.6847 221.784 37.9606 221.516 38.1838 221.082Z" fill="black"/>
<path d="M157.826 100.547C155.627 100.713 153.521 100.413 151.464 99.7478C150.66 99.4881 149.869 99.1919 149.167 98.709C148.315 98.1206 147.795 97.3497 147.812 96.2784C147.82 95.8889 147.787 95.4993 147.816 95.1098C147.885 94.2861 147.629 93.6855 147 93.0728C145.397 91.5106 145.101 89.5994 145.913 87.5219C146.079 87.0958 146.278 86.7347 146.014 86.2478C144.817 84.0485 145.129 81.8289 146.201 79.723C146.635 78.8708 146.639 78.1851 146.335 77.3411C145.633 75.3731 144.72 73.5147 143.551 71.7901C142.386 70.0737 141.145 68.4101 139.785 66.8357C138.345 65.1639 136.99 63.4272 135.898 61.4957C128.542 48.4461 134.011 32.1788 147.272 26.0598C161.989 19.2712 179.429 27.7843 182.675 44.0395C183.929 50.3086 183.041 56.31 179.762 61.8731C178.772 63.553 177.559 65.0787 176.297 66.5598C174.653 68.4872 173.107 70.4876 171.756 72.6301C170.677 74.3384 169.89 76.1846 169.277 78.108C169.111 78.6314 169.098 79.1021 169.403 79.5891C169.89 80.3722 170.084 81.2608 170.247 82.1616C170.486 83.4763 170.397 84.7464 169.78 85.9515C169.541 86.4222 169.411 86.8239 169.654 87.392C170.596 89.5872 170.243 91.5918 168.469 93.2392C167.93 93.7383 167.767 94.282 167.804 94.9637C167.828 95.4182 167.796 95.8727 167.808 96.3271C167.832 97.3253 167.37 98.0557 166.583 98.6238C165.889 99.1269 165.11 99.4434 164.31 99.7072C162.192 100.401 160.025 100.73 157.826 100.547ZM135.326 53.847L135.31 53.8145C135.131 54.3501 135.367 54.8411 135.501 55.328C136.381 58.5661 138.004 61.4186 140.057 64.048C141.693 66.1378 143.303 68.2478 144.886 70.3781C146.326 72.3136 147.515 74.4317 148.161 76.7365C148.595 78.2784 149.479 79.025 150.855 79.447C151.411 79.6175 151.971 79.7919 152.543 79.8974C156.215 80.5954 159.887 80.567 163.539 79.7757C164.347 79.6012 165.207 79.4754 165.868 78.883C166.737 78.7572 167.199 78.2622 167.455 77.4101C168.323 74.521 169.772 71.924 171.574 69.5219C172.389 68.4344 173.266 67.3875 174.089 66.3041C175.501 64.4457 176.974 62.6319 178.094 60.5706C182.168 53.0476 182.343 45.4637 178.338 37.8799C173.671 29.0422 163.203 23.7388 152.592 26.3763C143.247 28.6973 137.464 34.792 135.156 44.1085C134.437 47.0138 134.279 50.0084 135.058 52.9745C134.997 53.3073 134.957 53.64 135.326 53.847ZM163.904 97.6783C165.783 97.2198 165.824 97.1711 165.852 95.4141C165.856 95.1544 165.872 94.8947 165.852 94.635C165.747 93.4664 166.043 92.5697 167.033 91.75C168.34 90.6666 168.404 89.4331 167.613 87.9033C167.552 87.7897 167.471 87.6883 167.398 87.5787C166.984 86.9579 166.996 86.3776 167.52 85.8136C168.798 84.434 168.652 82.8677 168.1 81.2527C167.893 80.6441 167.674 80.5183 167.09 80.7536C164.659 81.7478 162.135 82.255 159.514 82.3524C158.869 82.3767 158.228 82.5106 157.583 82.5958C154.551 82.324 151.512 82.1008 148.692 80.7942C148.635 80.7658 148.57 80.7455 148.51 80.7293C148.092 80.6116 147.755 80.7739 147.592 81.2C147.02 82.7297 146.83 84.2595 147.998 85.5945C148.68 86.3735 148.664 87.0674 148.112 87.8546C148.002 88.0129 147.933 88.1995 147.836 88.3659C147.394 89.1085 147.511 89.8429 147.808 90.6057C148.055 91.2387 148.485 91.7135 148.988 92.1193C149.605 92.6143 149.836 93.2311 149.784 93.998C149.763 94.3226 149.78 94.6472 149.784 94.9718C149.796 97.0413 149.885 97.163 151.894 97.8406C152.263 97.9664 152.632 98.0841 153.01 98.1734C155.562 98.7658 158.151 98.8104 160.739 98.5304C161.819 98.4249 162.927 98.2626 163.904 97.6783Z" fill="black"/>
<path d="M159.441 10.3524C159.441 11.7117 159.458 13.0711 159.433 14.4304C159.425 14.8768 159.377 15.3393 159.239 15.7613C159.113 16.1468 158.764 16.37 158.326 16.3335C157.977 16.301 157.701 16.0981 157.603 15.7735C157.494 15.4083 157.425 15.0147 157.425 14.6333C157.409 11.6549 157.413 8.67658 157.425 5.69822C157.425 5.31679 157.486 4.9232 157.595 4.558C157.693 4.23339 157.973 4.03456 158.322 4.0021C158.756 3.96152 159.121 4.16846 159.251 4.558C159.389 4.97595 159.433 5.44258 159.437 5.88893C159.454 7.37405 159.441 8.86323 159.441 10.3524Z" fill="#FADB90"/>
<path d="M181.707 10.8546C181.744 11.3415 181.472 11.7148 181.229 12.0881C180.137 13.7599 179.038 15.4276 177.942 17.0953C177.552 17.6877 177.183 18.2923 176.79 18.8807C176.574 19.2013 176.343 19.5137 176.079 19.7937C175.71 20.1873 175.235 20.2481 174.862 19.9966C174.464 19.7328 174.314 19.2784 174.497 18.8117C174.59 18.5723 174.708 18.337 174.846 18.126C176.428 15.6995 178.015 13.2729 179.614 10.8505C179.788 10.5867 180.011 10.3392 180.267 10.1566C180.535 9.96186 180.864 9.94157 181.184 10.0998C181.492 10.2581 181.651 10.5178 181.707 10.8546Z" fill="#FADB90"/>
<path d="M136.162 10.0172C136.507 10.0131 136.799 10.1511 137.01 10.4149C137.253 10.7151 137.473 11.0357 137.688 11.3603C139.079 13.4703 140.463 15.5844 141.851 17.6984C142.135 18.1286 142.476 18.5384 142.524 19.0821C142.565 19.5001 142.419 19.849 142.025 20.0479C141.713 20.2061 141.38 20.198 141.112 19.9789C140.865 19.776 140.634 19.5366 140.459 19.2728C138.852 16.8423 137.253 14.3995 135.655 11.9608C135.44 11.6322 135.277 11.2873 135.277 10.8774C135.281 10.4433 135.72 10.0091 136.162 10.0172Z" fill="#FADB90"/>
<path d="M187.693 30.7003C187.125 30.7368 186.63 30.0064 186.841 29.4627C186.991 29.0812 187.275 28.8297 187.595 28.6065C189.766 27.093 191.933 25.5754 194.108 24.07C194.315 23.9239 194.554 23.794 194.798 23.7332C195.195 23.6317 195.569 23.717 195.816 24.0862C196.06 24.4473 196.068 24.8369 195.796 25.1615C195.549 25.4537 195.248 25.7093 194.936 25.9284C192.931 27.3445 190.923 28.7485 188.91 30.1484C188.541 30.4081 188.168 30.6678 187.693 30.7003Z" fill="#FADB90"/>
<path d="M121.899 23.7013C121.984 23.7216 122.256 23.7338 122.471 23.8514C122.869 24.0624 123.242 24.3221 123.611 24.5778C125.409 25.8357 127.21 27.0895 128.996 28.3636C129.357 28.6233 129.706 28.9195 129.994 29.2604C130.27 29.585 130.25 29.9907 129.982 30.3316C129.722 30.6562 129.361 30.8226 128.955 30.64C128.602 30.4858 128.265 30.287 127.949 30.0678C125.985 28.7126 124.021 27.3532 122.069 25.9696C121.708 25.7139 121.363 25.3974 121.104 25.0403C120.742 24.5534 121.14 23.7581 121.899 23.7013Z" fill="#FADB90"/>
<path d="M23.255 124.716C23.3889 124.476 23.5836 124.29 23.8596 124.306C24.4398 124.338 25.0282 124.363 25.5922 124.48C26.3672 124.643 27.1544 124.683 27.9132 124.574C29.7676 124.306 31.6585 124.261 33.4601 123.657C33.8781 123.515 34.3569 123.45 34.7951 123.482C38.0981 123.713 41.2469 123.117 44.2699 121.794C44.4362 121.721 44.6351 121.733 44.8339 121.705C45.406 122.707 45.4588 123.835 45.7753 124.882C45.8321 125.065 45.8118 125.272 45.8645 125.458C46.5625 128.035 45.9011 128.23 49.0458 129.224C49.415 129.341 49.7559 129.536 50.1008 129.719C50.4376 129.893 50.539 130.214 50.4173 130.543C50.0967 131.391 49.7884 132.251 49.3826 133.058C48.9362 133.951 49.1351 134.673 49.7518 135.371C50.6121 136.341 51.452 137.327 52.3082 138.301C55.6071 142.054 58.7478 145.933 61.6085 150.028C62.9069 151.886 64.1405 153.793 65.1427 155.838C65.723 157.019 66.0192 158.253 66.1003 159.575C66.3195 163.134 66.5061 166.693 66.5792 170.259C66.6076 171.74 66.8957 173.23 66.7821 174.719C66.3641 180.095 66.6887 185.488 66.3641 190.86C66.1693 194.102 66.283 197.353 65.9705 200.575C65.7676 202.701 65.8244 204.843 65.439 206.961C65.2442 208.037 65.3213 209.161 65.2888 210.264C65.2563 211.429 65.0981 212.593 65.0372 213.746C64.883 216.647 63.2843 218.558 61.0931 220.108C58.7559 221.764 56.1265 222.596 53.2455 222.563C52.5963 222.555 51.9471 222.523 51.2978 222.559C47.8569 222.742 44.7649 221.654 41.9204 219.849C39.6238 218.388 37.4326 216.765 35.1765 215.247C34.5192 214.805 34.2838 214.188 34.1175 213.47C33.5129 210.885 32.8555 208.309 32.259 205.724C31.1229 200.802 29.9867 195.88 28.8952 190.946C28.392 188.669 27.9822 186.377 27.5521 184.084C27.406 183.313 27.4872 182.53 27.6332 181.763C28.3068 178.261 29.1995 174.816 30.1896 171.391C32.1211 164.717 34.7505 158.297 37.2987 151.85C38.2523 149.439 39.1977 147.025 39.7942 144.493C39.9443 143.856 40.0985 143.231 39.9362 142.582C39.9119 142.484 39.782 142.379 39.6806 142.346C39.571 142.314 39.4087 142.326 39.3194 142.387C38.8122 142.744 38.654 143.332 38.4268 143.86C37.7329 145.467 37.0512 147.082 36.3938 148.701C34.7829 152.665 33.1598 156.625 31.5936 160.606C30.0029 164.652 28.6842 168.79 27.544 172.982C27.0854 174.67 26.7527 176.391 26.2577 178.066C25.5841 180.343 25.3731 182.639 25.6328 184.993C25.2879 185.253 25.2189 185.618 25.1986 186.02C25.1499 186.997 25.4177 187.939 25.5192 188.892C25.7545 191.132 26.0548 193.364 26.2982 195.6C26.5945 198.298 27.2234 200.923 27.7955 203.561C28.603 207.286 29.7514 210.91 30.9322 214.529C31.1107 215.081 31.2284 215.653 31.4191 216.201C31.8857 217.556 31.4515 218.725 30.709 219.832C30.567 220.047 30.3762 220.23 30.2018 220.417C29.865 220.782 29.8488 221.232 29.8569 221.691C27.4547 223.318 24.7563 224.194 21.9646 224.86C20.8853 225.116 19.8059 225.286 18.6941 225.245C18.2802 225.229 17.9394 225.091 17.7202 224.718C17.355 224.105 16.9533 223.513 16.6247 222.884C14.1495 218.084 12.2464 213.06 10.7937 207.862C9.83611 204.429 8.94747 200.98 8.24954 197.483C7.4664 193.547 6.67109 189.619 6.37488 185.597C6.26126 184.047 6.13548 182.501 6.09084 180.947C6.00563 178.01 6.43575 175.129 7.04846 172.276C7.3041 171.083 7.36496 169.833 7.93304 168.717C8.51329 168.49 8.42402 167.987 8.43214 167.524L8.41997 167.549C8.82168 167.338 8.8298 166.92 8.95559 166.559C9.95378 163.698 10.952 160.833 11.9542 157.973C13.8979 152.422 15.8212 146.867 17.7933 141.328C18.7022 138.772 19.6923 136.244 20.6783 133.72C21.7374 131.013 22.622 128.238 23.9164 125.625C24.1071 125.219 23.9285 125.016 23.255 124.716Z" fill="#D52B1E"/>
<path d="M89.4217 44.3548C89.6611 44.4481 89.9005 44.5537 90.144 44.6348C91.1016 44.9594 91.5115 45.6858 91.8077 46.6109C93.1061 50.6402 93.9298 54.771 94.4574 58.9626C95.1877 64.7692 95.5043 70.596 95.1756 76.4432C94.9321 80.7241 94.5142 84.9806 93.3658 89.1357C92.9154 90.7669 92.2946 92.3251 91.5074 93.8264C91.0124 94.7719 90.3631 95.5469 89.5516 96.2123C88.387 97.1659 87.0926 97.9003 85.7049 98.4725C82.1949 99.9211 78.5268 100.688 74.745 100.936C71.1093 101.171 67.4817 101.126 63.8825 100.509C62.4136 100.258 60.9609 99.9251 59.5123 99.5681C58.2463 99.2597 56.9884 98.9594 55.6778 99.0162C55.4952 99.0243 55.2801 99.0527 55.2477 99.3084C55.2233 99.5113 55.268 99.6776 55.4546 99.7994C59.3581 102.376 63.3306 104.819 67.8063 106.312C68.0538 106.393 68.3095 106.442 68.5529 106.527C69.3036 106.787 69.3726 106.876 69.2549 107.631C69.0926 108.657 68.9709 109.692 68.7193 110.694C68.0741 113.259 68.6381 115.697 69.3279 118.189C69.6039 118.059 69.8149 117.962 70.034 117.86C70.3748 117.816 70.4438 118.132 70.5615 118.327C71.2635 119.491 71.9695 120.66 72.6228 121.853C73.6494 123.732 74.6395 125.631 75.6417 127.522C75.9866 128.175 75.938 128.349 75.3699 128.836C74.7693 129.352 74.0795 129.713 73.3491 129.985C72.071 130.463 70.7563 130.833 69.3888 130.934C65.8748 131.198 62.3933 131.044 58.9645 130.131C57.9704 129.867 57.2644 129.449 56.7409 128.479C55.5764 126.312 54.2657 124.219 52.9835 122.113C52.6832 121.618 52.6142 121.232 52.951 120.705C54.7648 117.881 55.3816 114.711 55.41 111.425C55.4465 107.412 54.8419 103.516 52.671 100.039C51.8838 98.7768 50.9546 97.6001 50.07 96.403C48.9866 94.9423 47.8992 93.4896 46.7792 92.0613C45.9271 90.9738 45.3306 89.7565 44.8031 88.4986C44.3608 87.4517 44.3608 87.4315 45.1683 86.6605C45.781 86.0721 46.3694 85.4716 46.7874 84.729C46.9131 84.5099 46.9821 84.2543 47.0389 84.0068C47.1039 83.7187 46.6737 83.39 46.3856 83.4914C45.57 83.7755 44.933 84.3314 44.2837 84.871C41.8126 86.9283 39.0452 87.3747 36.0993 86.1492C33.0439 84.8792 31.2098 82.55 30.8446 79.2268C30.4429 75.583 33.2792 72.353 37.0001 72.0852C39.102 71.9351 40.9767 72.5397 42.6404 73.7976C43.1557 74.1871 43.602 74.6619 44.0849 75.092C45.0263 75.9279 46.3572 75.8629 47.2093 74.9459C47.6598 74.459 47.9073 73.8503 48.1142 73.2376C48.7756 71.2574 49.1489 69.2123 49.2382 67.1307C49.3518 64.408 49.4046 61.6812 49.1368 58.9626C49.0759 58.358 49.2828 58.0009 49.7495 57.6601C54.006 54.5681 56.2662 50.2101 57.5565 45.2475C57.7026 44.6835 57.8203 44.1154 57.9582 43.5473C57.9745 43.4865 58.0191 43.4337 58.0556 43.3729C58.6156 43.2187 59.0416 43.592 59.5042 43.7827C62.3771 44.9797 65.2743 46.1118 68.2648 46.9923C72.5498 48.2543 76.928 48.5951 81.3631 48.3111C83.7937 48.1569 86.066 47.3778 88.1679 46.1605C88.6142 45.9049 89.3203 45.6573 88.9754 44.8499C89.2189 44.7687 89.3568 44.5942 89.4217 44.3548ZM81.1968 79.0848C77.8126 78.9711 74.5056 78.4193 71.2635 77.4373C70.736 77.275 70.3586 77.1208 70.6264 76.3904C70.7684 76.0009 70.1435 75.6276 69.681 75.7737C68.6462 76.1023 67.8266 76.7475 67.3397 77.697C67.0556 78.2489 66.8446 78.9549 67.6765 79.3566C67.9402 79.4865 68.0173 79.7178 68.0254 79.9896C68.0417 80.3792 68.0335 80.7728 68.0903 81.1542C68.4718 83.7471 69.5187 85.9788 71.6003 87.6546C74.8424 90.2597 80.02 90.2232 82.8523 86.0397C83.745 84.7209 84.2563 83.2682 84.3821 81.6939C84.447 80.9067 84.5281 80.1641 85.0069 79.4905C85.2788 79.1091 84.9826 78.7277 84.4794 78.8291C83.396 79.0482 82.3045 79.105 81.1968 79.0848ZM83.8708 66.7818C83.8424 68.4333 84.1711 69.5532 84.942 70.4621C86.1512 71.8986 88.0218 72.0122 89.369 70.7056C90.075 70.0198 90.5498 69.188 90.7567 68.206C90.9637 67.2281 91.0205 66.1569 92.1404 65.6659C92.2378 65.6213 92.2946 65.463 92.3474 65.3454C92.4813 65.0613 92.676 64.757 92.3839 64.4729C92.1445 64.2417 91.9213 64.4811 91.69 64.55C91.5074 64.6028 91.3126 64.6434 91.126 64.6271C91.0245 64.619 90.8987 64.5013 90.846 64.404C90.8014 64.3106 90.7973 64.1402 90.8541 64.0672C91.1625 63.6614 91.7103 63.4869 91.905 62.9635C91.9943 62.72 92.1282 62.4806 91.8726 62.2696C91.7225 62.1438 91.5601 62.1235 91.3654 62.2655C90.8014 62.6754 90.1968 62.7403 89.5353 62.4806C89.1783 62.3426 88.7725 62.3426 88.4073 62.2169C87.1372 61.7908 86.1228 62.2574 85.2666 63.142C84.2766 64.1605 83.8302 65.4143 83.8708 66.7818ZM59.1593 65.7836C58.2869 66.1285 57.8 65.5117 57.1873 65.4022C57.0858 65.3819 56.9316 65.4306 56.8627 65.5077C56.7896 65.5848 56.7369 65.7471 56.7653 65.8485C57.0006 66.6925 57.658 67.2444 58.1733 67.9017C58.6115 68.4576 59.0416 68.5266 59.6828 68.2994C60.7743 67.9098 61.882 67.5284 63.0182 67.2971C65.3879 66.8142 67.7576 66.514 69.896 68.1371C70.3586 68.4901 70.9023 68.3967 71.1336 68.0924C71.4664 67.6623 71.3325 67.1997 71.1052 66.8183C70.4925 65.7755 69.6079 65.0207 68.419 64.7367C67.4817 64.5135 66.5281 64.3553 65.538 64.5216C64.4546 64.7002 63.3469 64.7245 62.2756 64.9477C61.4113 65.1262 60.7499 64.8463 60.1291 64.3472C59.8329 64.1077 59.5935 63.7953 59.3297 63.5113C59.1877 63.3611 58.9848 63.2475 58.8347 63.3733C58.717 63.4748 58.6967 63.7101 58.6602 63.8886C58.5304 64.5866 59.0985 65.0938 59.1593 65.7836ZM64.7671 55.8544C63.5944 55.9436 62.304 56.0573 61.0867 56.5523C60.3645 56.8445 59.6462 57.1407 59.0295 57.6316C58.8185 57.8021 58.6683 58.0131 58.786 58.2971C58.9037 58.5893 59.1999 58.6339 59.4393 58.5933C60.0114 58.5 60.5795 58.362 61.1395 58.2038C63.5741 57.5221 65.887 57.7777 68.0579 59.1046C68.6097 59.4414 69.1656 59.7782 69.7215 60.1068C70.1882 60.3828 70.6751 60.4802 71.2107 60.3138C71.6855 60.1637 71.9208 59.6889 71.7017 59.2588C71.1864 58.2362 70.3667 57.5261 69.3807 56.9824C67.9808 56.2114 66.447 55.9964 64.7671 55.8544ZM37.4465 77.3724C37.5561 77.7295 37.3532 78.0095 37.2598 78.3097C37.0326 79.0523 36.781 79.7867 36.5781 80.5334C36.4199 81.1096 36.5984 81.6005 36.9717 81.6898C37.5479 81.8237 37.763 81.3692 37.9699 80.9797C38.1809 80.582 38.3351 80.1519 38.5177 79.7421C38.676 79.3891 38.8261 79.032 39.0128 78.6912C39.1913 78.3706 39.4591 78.2489 39.8121 78.4436C40.6764 78.9224 41.35 79.6082 41.9465 80.3873C42.1088 80.6023 42.3563 80.6957 42.6282 80.5902C42.9082 80.4887 42.9893 80.2331 43.034 79.9774C43.1151 79.5067 42.9609 79.0807 42.7012 78.6952C42.332 78.1555 41.8735 77.7011 41.3297 77.3399C39.7432 76.2849 38.0105 75.6114 36.0993 75.4693C35.8478 75.449 35.5759 75.4572 35.3365 75.5261C35.1782 75.5748 34.9753 75.7412 34.9469 75.8832C34.9185 76.0293 35.0322 76.2809 35.1661 76.3701C35.8721 76.8327 36.7932 76.8206 37.4465 77.3724ZM88.7563 54.0568C86.9952 54.142 85.4371 54.6817 84.0412 55.6799C83.6233 55.9802 83.2175 56.3251 83.1079 56.8647C83.0714 57.0352 83.1201 57.2462 83.1931 57.4085C83.3149 57.6763 83.5989 57.7534 83.8464 57.6925C84.1508 57.6195 84.4348 57.449 84.727 57.3233C85.433 57.0149 86.1269 56.67 86.8491 56.4062C88.3099 55.8665 89.7382 55.7773 91.0408 56.8444C91.1381 56.9256 91.2599 56.9784 91.3735 57.0433C91.6656 57.2096 91.9659 57.303 92.2581 57.0514C92.5583 56.7876 92.4853 56.4833 92.3311 56.183C91.5683 54.706 90.3307 54.0568 88.7563 54.0568ZM84.9988 73.7123C84.9826 73.6393 84.9785 73.4324 84.8852 73.2822C83.6314 71.3183 82.1909 69.5086 80.3974 67.9991C80.3487 67.9585 80.2838 67.9179 80.227 67.9139C80.1093 67.9058 79.9551 67.8855 79.878 67.9463C79.7928 68.0113 79.7319 68.1736 79.7441 68.2831C79.7684 68.4657 79.8171 68.6686 79.9267 68.8147C81.1481 70.4783 82.3735 72.1339 83.6192 73.7813C83.7653 73.9761 84.0087 74.11 84.2279 74.2358C84.4632 74.3738 84.9664 74.0897 84.9988 73.7123ZM75.451 92.5807C75.9866 92.5685 76.4857 92.4387 76.8915 92.0857C77.0822 91.9193 77.277 91.7123 77.1471 91.4161C77.0619 91.2214 76.8834 91.1483 76.6805 91.1645C75.6417 91.2376 74.6111 91.2376 73.6048 90.9008C73.3978 90.8318 73.2112 90.9008 73.1178 91.0793C72.9758 91.3431 73.0935 91.5987 73.3004 91.7651C73.9253 92.2682 74.676 92.459 75.451 92.5807ZM65.8424 67.9179C65.6598 67.9829 65.4204 68.06 65.181 68.1533C65.1282 68.1736 65.0633 68.2628 65.0714 68.3034C65.0917 68.4089 65.1323 68.5672 65.2012 68.5915C66.3699 68.9689 67.5425 69.33 68.7193 69.6912C68.9343 69.7561 69.1332 69.6546 69.1575 69.4639C69.1819 69.3016 69.1088 69.05 68.9871 68.9527C68.1025 68.2304 67.0353 68.0113 65.8424 67.9179Z" fill="#EED3CA"/>
<path d="M100.672 175.659C100.729 177.14 100.798 178.617 100.47 180.086C100.36 180.581 100.401 181.113 100.392 181.628C100.364 183.499 100.315 185.369 100.332 187.24C100.356 190.141 100.214 193.034 99.9786 195.924C99.9705 196.118 100.003 196.321 99.9461 196.5C99.2644 198.711 99.4267 201.004 99.6945 203.203C99.9339 205.175 99.9988 207.159 100.263 209.135C100.559 211.355 100.831 213.587 101.22 215.79C101.403 216.829 101.488 217.993 102.393 218.789C102.291 218.87 102.202 218.979 102.089 219.028C98.4082 220.586 94.6021 220.903 90.6742 220.25C88.6373 219.913 87.4605 218.639 86.7383 216.882C85.8496 214.715 85.3302 212.434 85.1963 210.093C85.034 207.241 85.0502 204.384 85.2085 201.531C85.318 199.596 85.5777 197.668 85.7725 195.737C85.7928 195.542 85.8293 195.351 85.8374 195.157C86.0079 191.858 86.1052 188.555 86.3649 185.26C86.9736 177.489 86.6855 169.707 86.7504 161.928C86.7585 160.902 86.9249 159.863 87.1359 158.856C88.2355 153.525 88.0692 148.124 87.7283 142.768C87.4199 137.87 86.6855 132.989 85.1639 128.269C84.8798 127.393 84.4132 126.788 83.699 126.31C83.484 126.168 83.2364 126.074 83.0052 125.952C81.1589 124.999 81.1061 124.983 81.7229 123.088C82.0678 122.025 81.8933 121.172 81.1102 120.434C80.0755 119.456 79.1179 118.393 77.9574 117.549C77.507 117.22 76.9592 116.928 76.8496 116.129C78.1603 116.482 79.4425 116.49 80.7247 116.518C82.2382 116.547 83.7031 116.319 85.0908 115.731C85.7441 115.455 86.3244 115.447 86.9452 115.735C88.5967 116.498 90.1954 117.334 91.4006 118.758C91.2951 119.586 91.6846 120.272 92.066 120.941C92.8979 122.402 93.8677 123.773 95.02 124.995C97.9903 128.135 101.167 131.073 104.028 134.332C107.055 137.773 110.46 140.84 114.217 143.51C115.179 144.196 115.925 144.249 116.846 143.709C117.102 143.75 117.358 143.778 117.609 143.835C119.082 144.168 119.756 143.928 120.531 142.662C123.469 137.87 126.374 133.057 129.316 128.269C130.971 125.571 132.574 122.84 134.461 120.288C134.98 119.59 135.102 119.557 135.638 120.073C139.067 123.356 143.104 125.579 147.6 127.007C147.839 127.085 148.062 127.223 148.29 127.328C147.58 128.484 146.829 129.621 146.172 130.805C143.875 134.94 141.651 139.112 139.322 143.226C138.458 144.752 137.667 146.31 136.835 147.844C135.475 150.347 134.047 152.814 132.732 155.342C131.507 157.7 130.2 160.009 128.882 162.314C128.443 163.085 127.843 163.835 128.001 164.829L128.009 164.809C127.79 164.866 127.66 165.012 127.599 165.223L127.624 165.195C127.392 165.288 127.271 165.47 127.214 165.702C126.017 167.012 124.402 167.568 122.755 167.84C120.571 168.197 118.348 168.173 116.234 167.406C115.089 166.992 113.986 166.412 112.943 165.783C109.896 163.945 106.877 162.062 103.87 160.159C101.967 158.954 101.987 158.921 101.902 156.755C101.748 152.932 101.22 149.15 100.254 145.454C99.3577 142.013 98.2378 138.633 96.8866 135.334C96.2252 133.719 95.5191 132.12 94.9267 130.477C94.3181 128.789 93.1494 127.486 92.131 126.074C91.9849 125.871 91.7089 125.75 91.4411 125.9C91.1896 126.038 91.1003 126.265 91.2017 126.549C91.2423 126.671 91.2991 126.792 91.3194 126.918C91.364 127.17 91.3884 127.429 91.4209 127.685C91.3925 128.464 91.4127 129.215 91.6562 129.986C92.2486 131.832 92.695 133.723 93.2874 135.569C94.5615 139.509 95.9046 143.425 97.1869 147.365C97.4466 148.164 97.8604 148.891 98.043 149.731C98.6395 152.449 99.0696 155.18 99.1832 157.96C99.1954 158.284 99.1467 158.633 99.2603 158.925C99.6661 159.997 99.5282 161.1 99.5687 162.2C99.6012 163.105 99.5525 164.026 99.6945 164.915C100.068 167.211 99.9988 169.544 100.323 171.845C100.457 172.799 100.356 173.789 100.36 174.763C100.368 175.103 100.425 175.412 100.672 175.659Z" fill="#D52B1E"/>
<path d="M59.1705 132.519C59.8156 132.328 60.4283 132.555 61.0492 132.665C64.0073 133.188 66.9734 133.322 69.9599 132.928C72.3053 132.62 74.5329 132.015 76.4847 130.607C76.6835 130.461 76.9392 130.388 77.1989 130.267C78.7327 132.815 79.8242 135.517 80.9726 138.199C83.2002 143.41 84.0564 148.879 84.3607 154.495C84.7138 161.048 84.8233 167.598 84.7503 174.155C84.6975 178.959 84.4257 183.751 84.1254 188.547C83.8779 192.5 83.6669 196.452 83.4437 200.404C83.3625 201.828 83.2895 203.253 83.2165 204.677C83.1718 205.586 83.1313 205.703 82.2994 205.89C80.9725 206.19 79.6376 206.458 78.2945 206.681C75.8598 207.091 73.4049 207.314 70.9338 207.331C70.1547 207.335 69.3756 207.298 68.6006 207.225C67.7363 207.144 67.5659 206.961 67.5861 206.138C67.6267 204.709 67.7038 203.285 67.785 201.861C67.9919 198.233 68.2679 194.606 68.4058 190.978C68.6777 183.78 68.9293 176.573 68.7183 169.367C68.6209 166.06 68.28 162.765 68.1339 159.458C67.8621 153.396 66.2025 147.707 63.6664 142.245C62.3842 139.482 61.037 136.743 59.7304 133.992C59.5113 133.533 59.1542 133.123 59.1705 132.519Z" fill="white"/>
<path d="M170.085 115.777C169.558 116.187 168.88 116.146 168.288 116.378C167.857 116.544 167.415 116.418 166.985 116.26C166.328 116.017 165.658 115.81 164.985 115.607C164.729 115.53 164.429 115.587 164.311 115.818C164.197 116.045 164.303 116.301 164.534 116.479C165.159 116.946 165.849 117.25 166.604 117.433C166.973 117.522 167.338 117.648 167.703 117.757C167.707 117.989 167.715 118.224 167.719 118.455C166.835 119.23 165.869 119.206 164.843 118.772C164.189 118.492 163.524 118.24 162.854 118.005C162.599 117.916 162.319 117.993 162.185 118.244C162.055 118.488 162.144 118.747 162.302 118.971C162.619 119.409 163.069 119.656 163.56 119.847C164.039 120.034 164.579 120.103 164.883 120.594C163.56 121.584 162.124 121.474 160.655 121.016C160.282 120.898 159.904 120.76 159.576 121.081C159.344 121.304 159.685 121.831 160.278 122.054C161.941 122.683 163.613 123.073 165.354 122.241C166.165 121.852 167.034 121.547 167.91 121.324C169.03 121.04 170.089 121.669 170.564 122.769C170.682 123.041 170.629 123.304 170.422 123.471C170.122 123.706 169.793 123.933 169.44 124.071C166.819 125.098 164.116 125.727 161.276 125.495C160.7 125.447 160.123 125.321 159.563 125.175C156.922 124.497 154.349 123.613 151.87 122.476C150.856 122.014 149.788 121.758 148.701 121.604C148.096 121.519 147.524 121.576 147.35 122.347C147.256 122.756 146.887 122.732 146.571 122.72C144.87 122.667 143.219 122.302 141.665 121.641C138.402 120.257 138.889 120.517 140.245 117.887C140.48 117.425 140.711 116.958 140.983 116.516C142.046 114.795 142.854 112.986 143.292 110.993C143.613 109.536 144.201 108.165 145.321 107.077C145.946 106.473 146.619 106.014 147.463 105.807C148.725 105.499 149.991 105.211 151.302 105.252C156.029 105.398 160.76 105.56 165.488 105.73C165.938 105.747 166.393 105.803 166.835 105.897C167.5 106.035 168.016 106.416 168.357 107.009C168.75 107.69 168.499 108.498 167.756 108.774C167.277 108.952 166.758 109.041 166.247 109.102C163.674 109.423 161.089 109.63 158.492 109.577C157.875 109.565 157.186 109.354 156.646 109.889C156.699 110.823 157.555 110.912 158.135 111.168C159.73 111.878 161.32 112.604 163.004 113.103C165.366 113.801 167.707 114.552 170.057 115.282C170.065 115.453 170.077 115.615 170.085 115.777ZM148.847 111.456C148.457 111.521 147.938 111.573 147.443 111.703C146.774 111.882 146.019 111.963 145.739 112.77C146.165 113.651 146.94 113.229 147.589 113.265C147.654 113.27 147.719 113.261 147.784 113.253C150.109 112.981 152.288 113.46 154.349 114.532C154.581 114.649 154.8 114.82 155.043 114.872C155.189 114.905 155.4 114.779 155.534 114.669C155.595 114.621 155.583 114.398 155.526 114.308C155.352 114.041 155.181 113.744 154.934 113.562C153.168 112.251 151.156 111.618 148.847 111.456Z" fill="#EED3CA"/>
<path d="M116.854 143.71C115.929 144.25 115.186 144.197 114.225 143.511C110.467 140.841 107.063 137.774 104.036 134.333C101.171 131.074 97.9979 128.141 95.0276 124.996C93.8752 123.774 92.9054 122.403 92.0736 120.942C91.6922 120.269 91.3027 119.587 91.4082 118.759C93.222 120.224 94.7395 121.993 96.3707 123.649C101.402 128.757 106.41 133.894 111.636 138.808C112.906 140.001 114.225 141.146 115.507 142.326C115.974 142.769 116.404 143.251 116.854 143.71Z" fill="#FCA6A6"/>
<path d="M23.2553 124.716C23.9289 125.017 24.1033 125.215 23.9086 125.609C22.6142 128.222 21.7296 130.998 20.6705 133.704C19.6804 136.228 18.6944 138.756 17.7855 141.312C15.8134 146.851 13.8901 152.406 11.9464 157.957C10.9442 160.818 9.94599 163.682 8.94779 166.543C8.822 166.9 8.81389 167.322 8.41217 167.533C8.24581 166.807 8.48116 166.133 8.6597 165.444C9.91353 160.627 11.3581 155.863 12.8026 151.1C14.7422 144.725 16.8684 138.411 19.2868 132.203C19.8955 130.637 20.5731 129.095 21.2995 127.581C21.8067 126.542 22.3707 125.512 23.2553 124.716Z" fill="#FCA6A6"/>
<path d="M62.1906 146.899C61.3344 146.376 60.9084 145.463 60.3159 144.72C57.9381 141.742 55.5684 138.76 53.0323 135.915C52.9471 135.818 52.8579 135.724 52.7767 135.623C51.4011 133.943 51.4133 133.947 52.1843 131.829C52.4034 131.224 52.5819 130.599 52.7239 129.971C52.9512 128.968 52.7483 128.502 51.8231 128.104C50.9345 127.723 50.0053 127.434 49.0923 127.118C48.7271 126.992 48.3213 126.915 48.2037 126.473C48.0535 125.921 47.7005 125.393 47.8872 124.793C47.9358 124.635 48.1063 124.476 48.2605 124.399C49.0111 124.026 49.778 123.685 50.5328 123.32C50.9751 123.109 51.2916 123.288 51.5107 123.649C52.1153 124.639 52.8376 125.56 53.2312 126.672C53.2799 126.976 53.3204 127.28 53.6532 127.422L53.6329 127.39C53.4868 128.331 53.852 129.175 54.1726 130.015C56.0797 134.966 58.5346 139.644 61.1924 144.225C61.6672 145.049 62.2717 145.852 62.1906 146.899Z" fill="#D52B1E"/>
<path d="M128.014 164.833C127.856 163.839 128.453 163.089 128.895 162.318C130.21 160.013 131.52 157.704 132.746 155.347C134.06 152.819 135.489 150.351 136.848 147.848C137.68 146.31 138.471 144.752 139.335 143.23C141.664 139.116 143.892 134.944 146.185 130.81C146.842 129.625 147.593 128.489 148.303 127.332C148.368 127.332 148.433 127.324 148.498 127.332C149.476 127.494 149.609 127.657 149.301 128.359C149.118 128.773 148.899 129.17 148.688 129.572C145.625 135.354 142.354 141.019 139.003 146.639C136.15 151.423 133.472 156.308 130.814 161.202C130.076 162.553 129.374 163.949 128.014 164.833Z" fill="#FCA6A6"/>
<path d="M71.1555 114.543C71.6708 114.474 71.963 114.835 72.2836 115.135C73.2087 115.999 74.1298 116.872 75.055 117.74C75.0306 118.199 75.0712 118.641 75.4242 118.986C76.7592 120.276 77.9441 121.721 79.4454 122.833C79.3156 123.251 79.2588 123.709 79.0397 124.074C78.4553 125.052 78.6217 125.856 79.4698 126.566C79.5672 126.647 79.6483 126.744 79.7376 126.834C79.6686 127.483 79.9608 127.966 80.4639 128.323C80.7764 128.546 81.1172 128.741 81.4702 128.895C82.0505 129.151 82.3994 129.548 82.5171 130.181C82.5861 130.559 82.7443 130.92 82.8296 131.293C83.3246 133.484 83.9251 135.663 84.2579 137.879C84.4567 139.197 84.9801 140.504 84.7286 141.884C84.3268 141.6 84.2254 141.137 84.0874 140.719C82.3832 135.541 79.977 130.688 77.2096 126.006C76.9459 125.559 76.6578 125.129 76.4224 124.671C75.1037 122.082 73.7687 119.501 72.2349 117.026C71.7682 116.271 71.2448 115.504 71.1352 114.571C71.1312 114.563 71.1555 114.543 71.1555 114.543Z" fill="#D52B1E"/>
<path d="M29.8555 221.686C29.8474 221.227 29.8636 220.777 30.2004 220.411C30.3749 220.221 30.5656 220.038 30.7076 219.827C31.4502 218.719 31.8844 217.551 31.4177 216.195C31.2311 215.648 31.1134 215.076 30.9308 214.524C29.75 210.908 28.5976 207.281 27.7942 203.556C27.2221 200.918 26.5972 198.293 26.2969 195.595C26.0494 193.359 25.7532 191.127 25.5178 188.887C25.4164 187.934 25.1486 186.992 25.1973 186.014C25.2176 185.613 25.2825 185.243 25.6314 184.988C26.2198 186.509 26.3091 188.14 26.6378 189.719C27.713 194.921 28.8086 200.115 30.0138 205.284C30.8984 209.07 31.7627 212.856 32.8095 216.597C32.915 216.971 32.9759 217.356 33.0327 217.737C33.1544 218.561 32.9353 219.263 32.3307 219.86C31.5922 220.59 30.8659 221.329 29.8555 221.686Z" fill="#FCA6A6"/>
<path d="M100.674 175.662C100.422 175.415 100.369 175.107 100.369 174.774C100.365 173.8 100.467 172.814 100.333 171.856C100.012 169.556 100.081 167.222 99.7039 164.926C99.5578 164.037 99.6105 163.116 99.5781 162.211C99.5416 161.116 99.6755 160.008 99.2697 158.937C99.1601 158.648 99.2088 158.295 99.1926 157.971C99.0749 155.191 98.6489 152.456 98.0524 149.742C97.8657 148.902 97.4559 148.171 97.1962 147.376C95.914 143.44 94.5709 139.52 93.2968 135.58C92.7003 133.734 92.2539 131.843 91.6655 129.997C91.418 129.226 91.4018 128.475 91.4302 127.696C91.9658 128.208 92.1322 128.922 92.4122 129.567C94.5181 134.367 96.2589 139.305 97.8008 144.309C98.6976 147.214 99.2535 150.208 99.5537 153.231C99.9676 157.411 100.195 161.603 100.475 165.79C100.621 167.985 100.674 170.176 100.767 172.368C100.816 173.463 100.71 174.567 100.674 175.662Z" fill="#FCA6A6"/>
<path d="M102.402 218.786C101.497 217.991 101.412 216.826 101.229 215.788C100.84 213.584 100.568 211.353 100.272 209.133C100.008 207.161 99.9431 205.173 99.7037 203.201C99.4359 200.997 99.2736 198.709 99.9553 196.497C100.012 196.319 99.9797 196.112 99.9878 195.921C100.089 196.221 100.243 196.514 100.28 196.822C100.844 202.004 101.647 207.153 102.556 212.286C102.861 213.998 103.124 215.715 103.376 217.435C103.421 217.735 103.368 218.097 103.238 218.368C103.088 218.665 102.723 218.73 102.402 218.786Z" fill="#FCA6A6"/>
<path d="M62.1887 146.9C62.2698 145.853 61.6652 145.049 61.1864 144.221C58.5327 139.64 56.0737 134.962 54.1666 130.011C53.846 129.175 53.4808 128.327 53.6269 127.386C54.1625 127.792 54.4019 128.409 54.7103 128.964C57.6887 134.325 60.4276 139.803 62.8014 145.459C63.2518 146.526 63.6332 147.626 64.0349 148.713C64.1161 148.936 64.1891 149.188 63.8645 149.452C63.2883 148.851 62.8582 148.157 62.5336 147.386C62.5214 147.143 62.4078 146.973 62.1765 146.883L62.1887 146.9Z" fill="#FCA6A6"/>
<path d="M84.7275 141.874C84.975 140.494 84.4556 139.192 84.2568 137.869C83.924 135.654 83.3235 133.475 82.8285 131.283C82.7432 130.906 82.585 130.549 82.516 130.172C82.4024 129.539 82.0494 129.141 81.4691 128.885C81.1161 128.731 80.7753 128.536 80.4628 128.313C79.9637 127.956 79.6675 127.473 79.7365 126.824C79.8623 126.856 79.9881 126.877 80.1098 126.925C83.1937 128.11 83.2058 128.159 84.0174 131.332C84.8533 134.594 85.2428 137.922 85.5634 141.261C85.6323 141.963 85.5755 142.677 85.5755 143.388C85.4295 143.388 85.2874 143.388 85.1414 143.388L85.1535 143.4C85.1211 142.848 85.3726 142.223 84.7356 141.833L84.7275 141.874Z" fill="#FCA6A6"/>
<path d="M172.166 122.247C171.395 120.925 170.344 119.947 168.615 119.906C169.082 119.232 169.808 119.164 170.401 118.908C170.981 118.656 171.63 118.567 172.243 118.401C173.111 118.165 173.894 118.356 174.613 118.871C175.497 119.508 175.521 119.983 174.669 120.677C173.927 121.29 173.168 121.886 172.166 122.247Z" fill="#EED3CA"/>
<path d="M167.727 118.451C167.723 118.22 167.715 117.985 167.711 117.753C169.013 117.648 170.239 117.246 171.428 116.723C172.556 116.224 173.72 115.83 174.93 115.591C175.989 115.38 176.991 115.518 177.896 116.155C178.318 116.455 178.403 116.946 178.046 117.319C177.6 117.782 177.174 118.277 176.488 118.577C176.273 118.386 176.045 118.171 175.802 117.977C174.727 117.108 173.53 116.767 172.174 117.161C170.689 117.591 169.208 118.021 167.727 118.451Z" fill="#EED3CA"/>
<path d="M170.083 115.776C170.071 115.613 170.059 115.451 170.051 115.285C171.012 114.911 171.978 114.542 172.936 114.165C174.38 113.597 175.813 113 177.379 112.789C177.923 112.716 178.402 112.72 178.876 112.984C179.68 113.434 179.793 114.185 179.168 114.915C178.933 115.191 178.645 115.329 178.324 115.114C176.953 114.189 175.492 114.38 174.019 114.753C172.705 115.086 171.394 115.435 170.083 115.776Z" fill="#EED3CA"/>
<path d="M46.7658 38.3657C46.7334 38.4874 46.7415 38.6457 46.6685 38.7187C44.9115 40.5041 43.9782 42.7643 43.0206 45.0122C42.769 45.6047 42.4931 46.1849 42.1928 46.753C42.1198 46.895 41.9007 47.037 41.7465 47.037C41.5273 47.033 41.503 46.7976 41.5436 46.615C42.1238 44.01 43.1342 41.5957 44.7857 39.4856C45.2117 38.9419 45.6622 38.3535 46.4291 38.2318C46.5305 38.2115 46.6522 38.317 46.7658 38.3657Z" fill="white"/>
<path d="M66.9724 31.2978C67.1063 31.2978 67.2402 31.2654 67.3539 31.3019C69.0053 31.8253 70.6568 32.3488 72.2962 32.9006C72.8358 33.0832 73.412 33.2455 73.7772 33.7446C73.8868 33.8907 74.0207 34.0814 73.8624 34.2559C73.7448 34.3858 73.5743 34.4913 73.408 34.5562C73.3025 34.6008 73.1523 34.5805 73.0306 34.5481C71.0504 33.9922 69.1433 33.2455 67.3011 32.3326C67.0942 32.2311 66.9237 31.9958 66.8101 31.7807C66.7209 31.6265 66.802 31.4155 66.9724 31.2978Z" fill="white"/>
<path d="M33.9959 95.4952C34.1176 95.5277 34.2718 95.5277 34.3529 95.6048C35.834 96.9925 36.9134 98.6359 37.4327 100.612C37.4733 100.758 37.3719 101.022 37.2502 101.115C36.9742 101.322 36.7227 101.062 36.6374 100.872C35.8949 99.1512 34.852 97.6134 33.7849 96.0877C33.6875 95.9456 33.6428 95.7225 33.8336 95.5723C33.8823 95.5318 33.9431 95.5196 33.9959 95.4952Z" fill="white"/>
<path d="M43.0735 38.2689C43.0816 38.3338 43.114 38.4109 43.0897 38.4596C42.1524 40.2856 41.211 42.1116 40.2615 43.9335C40.2047 44.043 40.0992 44.1323 40.0018 44.2135C39.9571 44.25 39.8597 44.2824 39.8273 44.2622C39.7421 44.2053 39.6082 44.0917 39.6244 44.039C40.2046 41.929 40.8945 39.8677 42.3512 38.1675C42.4283 38.0782 42.5662 38.0133 42.6839 37.9971C42.7854 37.9849 42.903 38.0457 43.0004 38.1026C43.041 38.1228 43.0491 38.2121 43.0735 38.2689Z" fill="white"/>
<path d="M41.3114 103.498C41.2019 103.344 41.0517 103.21 40.9949 103.04C40.4593 101.392 39.944 99.7328 38.8687 98.3248C38.7632 98.1868 38.7754 97.9352 38.9701 97.8216C39.0594 97.7689 39.2095 97.8135 39.3313 97.8297C39.3921 97.8379 39.4611 97.8703 39.5058 97.9109C41.068 99.4163 41.7659 101.234 41.3114 103.498Z" fill="white"/>
<path d="M72.4724 30.7972C72.6671 30.7972 72.8011 30.7648 72.9187 30.8013C74.4728 31.2679 75.8971 31.978 77.0738 33.1264C77.228 33.2765 77.2686 33.455 77.1306 33.6133C77.0617 33.6904 76.8953 33.731 76.7898 33.7066C76.5423 33.6498 76.2866 33.5768 76.0675 33.455C74.8299 32.7774 73.6288 32.0308 72.2857 31.556C72.1112 31.4952 71.9652 31.2963 72.0991 31.0975C72.1883 30.9555 72.3669 30.8743 72.4724 30.7972Z" fill="white"/>
<path d="M71.8741 27.9324C73.6432 28.1515 75.3718 28.5694 76.7961 29.803C76.9138 29.9044 76.9787 30.1722 76.934 30.3264C76.8854 30.5009 76.6541 30.5699 76.4552 30.4928C74.9052 29.8801 73.3511 29.2674 71.8051 28.6384C71.6468 28.5735 71.4561 28.4355 71.5616 28.2083C71.6063 28.1109 71.7361 28.05 71.8741 27.9324Z" fill="white"/>
<path d="M79.4472 122.829C77.9458 121.718 76.7569 120.273 75.426 118.983C75.0689 118.638 75.0324 118.195 75.0568 117.737C76.5946 118.869 77.9742 120.18 79.3539 121.494C79.7718 121.9 79.8935 122.355 79.4472 122.829Z" fill="#FCA6A6"/>
<path d="M89.4218 44.3526C89.3528 44.592 89.2149 44.7665 88.9795 44.8476C87.0156 44.2877 85.1896 43.4559 83.6436 42.0844L83.6152 42.1087C85.4331 42.271 87.0197 43.1231 88.6509 43.8251C88.9308 43.9509 89.1662 44.1781 89.4218 44.3526Z" fill="black"/>
<path d="M47.7422 119.001C47.8558 119.045 47.9937 119.066 48.083 119.143C48.4441 119.455 48.6146 119.861 48.5456 120.336C48.4482 120.981 48.1642 121.545 47.7584 122.052C47.6001 122.251 47.1984 122.239 47.1254 122.016C46.9509 121.472 46.744 120.932 46.6547 120.372C46.5654 119.8 47.2228 119.037 47.7422 119.001Z" fill="#D52B1E"/>
<path d="M85.1392 143.398C85.2852 143.398 85.4273 143.398 85.5733 143.398C86.1536 144.34 85.7275 145.366 85.902 146.628C85.2041 145.456 85.1108 144.441 85.1392 143.398Z" fill="#FCA6A6"/>
<path d="M84.733 141.835C85.37 142.225 85.1185 142.849 85.1509 143.401C84.6275 142.983 84.7249 142.399 84.733 141.835Z" fill="#FCA6A6"/>
<path d="M83.6383 42.0925C83.5831 42.0609 83.5279 42.0294 83.4727 41.9978C83.52 42.0372 83.5634 42.0767 83.6107 42.1161L83.6383 42.0925Z" fill="black"/>
<path d="M107.931 106.566C107.898 106.517 107.862 106.472 107.842 106.424C107.777 106.257 107.752 106.075 107.927 105.989C107.967 105.969 108.122 106.188 108.223 106.298C108.126 106.383 108.028 106.476 107.931 106.566Z" fill="white"/>
<path d="M62.1816 146.885C62.4129 146.974 62.5265 147.145 62.5387 147.388C62.417 147.222 62.2993 147.056 62.1816 146.885Z" fill="#FCA6A6"/>
<path d="M70.7422 114.185C70.9816 114.189 71.1236 114.306 71.1561 114.546L71.1358 114.566C70.9248 114.513 70.8152 114.367 70.7706 114.16L70.7422 114.185Z" fill="#FCA6A6"/>
<path d="M70.7631 114.158C70.7158 114.13 70.6251 114.083 70.629 114.075C70.6724 113.969 70.7119 114.008 70.7395 114.182C70.7395 114.178 70.7631 114.158 70.7631 114.158Z" fill="#FCA6A6"/>
<path d="M135.054 52.977C134.275 50.0148 134.433 47.0162 135.151 44.1109C137.46 34.7984 143.242 28.6997 152.587 26.3787C163.198 23.7412 173.663 29.0446 178.334 37.8823C182.338 45.4662 182.164 53.0541 178.09 60.573C176.974 62.6343 175.497 64.4481 174.085 66.3066C173.261 67.39 172.385 68.4368 171.569 69.5243C169.768 71.9265 168.319 74.5275 167.451 77.4125C167.195 78.2646 166.733 78.7597 165.864 78.8854C165.702 78.0414 165.726 77.2137 166.087 76.4102C166.193 76.1749 166.242 75.9152 166.311 75.6677C166.489 74.9901 166.367 74.7425 165.71 74.4869C165.349 74.3449 164.98 74.2029 164.602 74.1217C161.981 73.5415 159.327 73.5252 156.686 73.8295C155.651 73.9513 154.624 73.9432 153.598 74.0365C152.575 74.1298 151.82 73.7362 151.285 72.9247C150.384 71.5572 149.171 70.4738 148.035 69.3255C146.306 67.5726 144.529 65.8643 142.788 64.1235C142.285 63.6203 141.782 63.1091 141.356 62.5451C139.599 60.22 137.98 57.8016 136.499 55.2899C136.182 54.7543 135.971 54.0929 135.31 53.8169L135.326 53.8494C135.484 53.4842 135.366 53.2002 135.054 52.977ZM176.353 49.5279C176.118 47.9414 175.879 46.3548 175.651 44.7642C175.424 43.2101 174.803 41.7777 174.174 40.3737C173.383 38.6046 172.324 36.9815 170.835 35.6749C170.04 34.977 169.151 34.9202 168.311 35.2935C167.467 35.6668 166.911 36.3769 166.935 37.44C166.96 38.4179 167.366 39.1686 168.011 39.8503C168.627 40.5036 169.289 41.1122 169.792 41.8873C172.174 45.5392 173.606 49.4752 173.578 53.8818C173.578 54.2024 173.602 54.527 173.635 54.8435C173.663 55.091 174.032 55.2493 174.239 55.1154C174.978 54.6447 175.582 53.9995 175.733 53.1596C175.944 51.9625 176.418 50.7939 176.353 49.5279ZM165.349 33.0699C165.357 33.0699 165.361 33.0699 165.369 33.0699C165.369 32.8751 165.349 32.6803 165.373 32.4896C165.519 31.321 163.58 30.2051 162.569 30.5135C161.453 30.8543 160.768 31.6172 160.719 32.6844C160.654 34.1046 161.048 34.7295 162.257 35.2529C162.817 35.4964 163.389 35.4964 163.961 35.4314C164.667 35.3543 165.247 34.7579 165.345 34.0315C165.381 33.7191 165.349 33.3904 165.349 33.0699Z" fill="#FDF0B9"/>
<path d="M163.905 97.6804C162.931 98.2607 161.823 98.4271 160.74 98.5447C158.151 98.8247 155.562 98.7801 153.01 98.1876C152.633 98.0984 152.259 97.9807 151.894 97.8549C149.886 97.1773 149.796 97.0556 149.784 94.9861C149.78 94.6615 149.764 94.3369 149.784 94.0123C149.837 93.2494 149.606 92.6286 148.989 92.1336C148.486 91.7278 148.052 91.2571 147.808 90.62C147.512 89.8572 147.398 89.1227 147.837 88.3802C147.934 88.2138 148.003 88.0231 148.112 87.8689C148.664 87.0817 148.681 86.3878 147.999 85.6087C146.83 84.2738 147.021 82.744 147.593 81.2143C147.751 80.7882 148.092 80.6218 148.51 80.7436C148.571 80.7598 148.636 80.7801 148.693 80.8085C151.513 82.111 154.552 82.3382 157.583 82.6101C157.81 82.7156 158.038 82.9104 158.269 82.9144C160.338 82.9428 162.412 83.1985 164.465 82.7116C165.126 82.5533 165.394 82.8252 165.447 83.5393C165.528 84.5984 165.289 85.5885 164.822 86.5339C163.974 86.051 163.049 86.1768 162.156 86.258C158.602 86.5745 155.047 86.6394 151.493 86.2986C151.363 86.2864 151.233 86.2702 151.107 86.2823C150.774 86.3107 150.417 86.3757 150.324 86.7327C150.218 87.1304 150.563 87.2643 150.864 87.3941C151.472 87.6619 152.13 87.6538 152.771 87.7066C154.511 87.8446 156.252 87.9622 157.993 88.0921C158.561 88.7332 159.324 88.7859 160.103 88.7941C161.706 88.8103 163.305 88.8143 164.907 88.8549C165.601 88.8711 165.796 89.1024 165.828 89.8044C165.845 90.125 165.832 90.4455 165.816 90.7661C165.776 91.464 165.35 91.9591 164.863 92.377C164.404 92.7706 164.039 93.428 163.252 93.1764C163.012 92.3689 162.359 92.3608 161.698 92.3689C159.442 92.3973 157.185 92.4298 154.933 92.4582C153.903 92.4703 152.872 92.4663 151.841 92.4906C151.529 92.4987 151.152 92.5312 151.172 92.9694C151.184 93.2413 151.452 93.3874 151.708 93.4645C151.89 93.5213 152.089 93.5213 152.276 93.57C153.915 93.996 155.611 93.8134 157.267 94.0285C157.689 94.3369 158.147 94.6128 158.667 94.625C159.636 94.6493 160.582 94.8116 161.527 95.0023C162.262 95.1525 163.211 94.7305 163.698 95.4284C164.12 96.033 163.856 96.9135 163.905 97.6804Z" fill="#808080"/>
<path d="M135.304 53.816C135.965 54.0879 136.176 54.7493 136.493 55.289C137.974 57.8007 139.593 60.2191 141.35 62.5442C141.776 63.1082 142.279 63.6235 142.782 64.1226C144.523 65.8634 146.3 67.5717 148.029 69.3246C149.165 70.4729 150.378 71.5563 151.279 72.9238C151.815 73.7353 152.57 74.1289 153.592 74.0356C154.619 73.9423 155.645 73.9504 156.68 73.8287C159.322 73.5243 161.975 73.5406 164.597 74.1208C164.974 74.206 165.339 74.348 165.704 74.486C166.366 74.7416 166.483 74.9892 166.305 75.6668C166.24 75.9184 166.187 76.1781 166.082 76.4094C165.721 77.2128 165.7 78.0406 165.859 78.8846C165.197 79.477 164.341 79.6028 163.534 79.7773C159.882 80.5685 156.209 80.5969 152.537 79.899C151.965 79.7894 151.405 79.619 150.849 79.4486C149.474 79.0225 148.589 78.28 148.155 76.738C147.51 74.4333 146.321 72.3151 144.88 70.3796C143.298 68.2493 141.683 66.1393 140.052 64.0496C137.994 61.4202 136.375 58.5676 135.495 55.3296C135.365 54.8426 135.125 54.3476 135.304 53.816Z" fill="#FFCE24"/>
<path d="M163.245 93.1587C164.036 93.4103 164.402 92.757 164.856 92.3593C165.339 91.9414 165.769 91.4464 165.81 90.7484C165.826 90.4279 165.838 90.1073 165.822 89.7867C165.789 89.0848 165.595 88.8575 164.901 88.8372C163.298 88.7967 161.699 88.7926 160.096 88.7764C159.317 88.7683 158.554 88.7196 157.986 88.0744C158.709 87.7457 159.488 87.8269 160.247 87.766C161.135 87.697 162.032 87.6767 162.917 87.5672C163.481 87.4982 164.041 87.344 164.58 87.1655C164.84 87.0802 164.88 86.7922 164.816 86.5203C165.282 85.5748 165.526 84.5888 165.44 83.5257C165.384 82.8115 165.12 82.5437 164.458 82.6979C162.405 83.1849 160.328 82.9333 158.262 82.9008C158.031 82.8968 157.804 82.702 157.577 82.5965C158.218 82.5113 158.859 82.3774 159.508 82.353C162.129 82.2556 164.653 81.7484 167.084 80.7543C167.664 80.5149 167.887 80.6447 168.094 81.2534C168.646 82.8643 168.792 84.4346 167.514 85.8142C166.99 86.3783 166.978 86.9585 167.392 87.5794C167.465 87.6889 167.546 87.7904 167.607 87.904C168.398 89.4297 168.334 90.6673 167.027 91.7507C166.037 92.5703 165.741 93.4671 165.846 94.6357C165.871 94.8913 165.85 95.1551 165.846 95.4148C165.818 97.1718 165.777 97.2205 163.898 97.679C163.854 96.9121 164.118 96.0275 163.683 95.4107C163.197 94.7128 162.247 95.1348 161.513 94.9847C160.567 94.794 159.626 94.6316 158.652 94.6073C158.132 94.5951 157.674 94.3192 157.252 94.0108C158.015 93.9865 158.786 94.0027 159.545 93.9256C160.807 93.7998 162.101 93.8363 163.245 93.1587Z" fill="#CCCCCC"/>
<path d="M135.052 52.9761C135.365 53.1992 135.483 53.4873 135.324 53.8566C134.955 53.6456 134.996 53.3129 135.052 52.9761Z" fill="#FFCE24"/>
<path d="M81.1959 79.0886C82.2996 79.1089 83.3952 79.0521 84.4826 78.8289C84.9817 78.7275 85.282 79.1048 85.0101 79.4903C84.5313 80.1639 84.4502 80.9065 84.3853 81.6937C84.2595 83.2681 83.7482 84.7207 82.8555 86.0395C80.0232 90.223 74.8456 90.2595 71.6035 87.6544C69.5218 85.9827 68.4709 83.7469 68.0935 81.154C68.0367 80.7726 68.0448 80.379 68.0286 79.9894C68.0164 79.7176 67.9434 79.4863 67.6797 79.3564C66.8478 78.9507 67.0548 78.2487 67.3429 77.6968C67.8338 76.7473 68.6494 76.1021 69.6842 75.7735C70.1467 75.6274 70.7757 76.0007 70.6296 76.3902C70.3618 77.1206 70.7392 77.2748 71.2667 77.4371C74.5047 78.4232 77.8158 78.9791 81.1959 79.0886ZM69.2743 80.7036C69.8099 83.3127 70.9218 85.3375 72.9831 86.782C73.9569 87.4637 75.0687 87.8127 76.2495 87.9385C76.7081 87.9872 76.9799 87.6382 76.8176 87.1959C76.4808 86.2748 76.0142 85.4308 75.3528 84.6964C74.2978 83.5278 73.0399 82.6188 71.6968 81.8357C70.9989 81.4259 70.3212 80.9146 69.2743 80.7036ZM82.6607 80.6103C81.1553 80.5535 80.0029 80.5616 78.8586 80.452C75.7626 80.1558 72.7518 79.5025 69.8952 78.2324C69.6395 78.1188 69.4001 78.0823 69.2784 78.3988C69.181 78.6463 69.1648 78.9263 69.3393 79.1332C69.5016 79.324 69.7207 79.4782 69.9398 79.608C73.1495 81.5232 76.6228 82.2252 80.3316 81.8235C81.0985 81.7383 81.8086 81.503 82.6607 80.6103Z" fill="black"/>
<path d="M83.8697 66.782C83.8291 65.4145 84.2755 64.1566 85.2656 63.1382C86.1218 62.2536 87.1362 61.791 88.4062 62.213C88.7714 62.3347 89.1772 62.3347 89.5343 62.4767C90.1957 62.7364 90.8003 62.6715 91.3643 62.2617C91.5591 62.1197 91.7214 62.144 91.8715 62.2657C92.1272 62.4727 91.9933 62.7162 91.904 62.9596C91.7133 63.4871 91.1614 63.6616 90.853 64.0633C90.7962 64.1404 90.7962 64.3108 90.8449 64.4001C90.8936 64.5015 91.0235 64.6152 91.1249 64.6233C91.3116 64.6395 91.5063 64.603 91.6889 64.5462C91.9202 64.4772 92.1434 64.2378 92.3828 64.4691C92.679 64.7531 92.4802 65.0574 92.3463 65.3415C92.2935 65.4592 92.2367 65.6174 92.1393 65.662C91.0154 66.153 90.9585 67.2243 90.7557 68.2022C90.5487 69.1841 90.078 70.016 89.3679 70.7017C88.0208 72.0083 86.1502 71.8947 84.941 70.4583C84.1741 69.5534 83.8413 68.4335 83.8697 66.782Z" fill="black"/>
<path d="M59.1577 65.785C59.0969 65.0952 58.5288 64.588 58.6586 63.8941C58.6911 63.7115 58.7114 63.4761 58.8331 63.3788C58.9832 63.253 59.1861 63.3666 59.3281 63.5167C59.5919 63.7967 59.8272 64.1132 60.1275 64.3526C60.7483 64.8517 61.4098 65.1317 62.274 64.9532C63.3453 64.734 64.4571 64.7056 65.5365 64.5271C66.5225 64.3648 67.476 64.519 68.4174 64.7421C69.6063 65.0262 70.4909 65.7809 71.1036 66.8238C71.3309 67.2092 71.4648 67.6718 71.132 68.0979C70.9008 68.3981 70.357 68.4955 69.8944 68.1425C67.756 66.5194 65.3863 66.8197 63.0166 67.3026C61.8845 67.5339 60.7768 67.9153 59.6812 68.3048C59.0401 68.532 58.6099 68.4631 58.1717 67.9072C57.6564 67.2498 56.999 66.698 56.7637 65.854C56.7353 65.7525 56.788 65.5902 56.8611 65.5131C56.93 65.4401 57.0842 65.3914 57.1857 65.4076C57.7943 65.5131 58.2853 66.1339 59.1577 65.785Z" fill="black"/>
<path d="M64.7665 55.8547C66.4464 55.9968 67.9802 56.2118 69.3801 56.9828C70.3702 57.5265 71.1899 58.2326 71.7012 59.2592C71.9203 59.6933 71.6849 60.1681 71.2102 60.3142C70.6745 60.4805 70.1876 60.3831 69.721 60.1072C69.1651 59.7745 68.6092 59.4417 68.0573 59.105C65.8824 57.7821 63.5736 57.5225 61.1389 58.2041C60.579 58.3624 60.0109 58.5004 59.4388 58.5937C59.1993 58.6343 58.9031 58.5896 58.7855 58.2975C58.6678 58.0134 58.8179 57.8024 59.0289 57.632C59.6457 57.141 60.3639 56.8448 61.0862 56.5527C62.3035 56.0576 63.5939 55.944 64.7665 55.8547Z" fill="black"/>
<path d="M37.4451 77.3684C36.7918 76.8165 35.8747 76.8327 35.1687 76.3661C35.0389 76.2809 34.9212 76.0252 34.9496 75.8792C34.978 75.7371 35.1809 75.5667 35.3391 75.5221C35.5785 75.4531 35.8504 75.445 36.102 75.4653C38.0172 75.6073 39.7458 76.2809 41.3324 77.3359C41.8761 77.697 42.3346 78.1515 42.7039 78.6912C42.9636 79.0767 43.1218 79.4986 43.0366 79.9734C42.992 80.229 42.9068 80.4847 42.6308 80.5861C42.359 80.6876 42.1114 80.5942 41.9491 80.3832C41.3527 79.6041 40.6791 78.9224 39.8148 78.4396C39.4618 78.2448 39.1899 78.3665 39.0154 78.6871C38.8288 79.0239 38.6786 79.385 38.5204 79.7381C38.3337 80.1519 38.1836 80.578 37.9726 80.9756C37.7656 81.3652 37.5506 81.8197 36.9744 81.6857C36.6011 81.6005 36.4225 81.1055 36.5808 80.5293C36.7837 79.7827 37.0353 79.0482 37.2625 78.3057C37.3518 78.0014 37.5546 77.7254 37.4451 77.3684Z" fill="black"/>
<path d="M88.7566 54.0597C90.331 54.0597 91.5686 54.7089 92.3274 56.1778C92.4816 56.4781 92.5546 56.7865 92.2544 57.0462C91.9622 57.3018 91.6619 57.2044 91.3698 57.038C91.2562 56.9731 91.1385 56.9204 91.037 56.8392C89.7345 55.768 88.3062 55.8613 86.8454 56.401C86.1232 56.6688 85.4293 57.0096 84.7232 57.318C84.4311 57.4438 84.147 57.6142 83.8427 57.6873C83.5952 57.7482 83.3112 57.6711 83.1894 57.4032C83.1164 57.2409 83.0677 57.0299 83.1042 56.8595C83.2178 56.3198 83.6195 55.9749 84.0375 55.6747C85.4333 54.6846 86.9956 54.1449 88.7566 54.0597Z" fill="black"/>
<path d="M84.9967 73.713C84.9642 74.0903 84.4611 74.3744 84.2216 74.2364C84.0025 74.1106 83.7591 73.9767 83.613 73.782C82.3713 72.1345 81.1418 70.479 79.9205 68.8153C79.815 68.6692 79.7622 68.4664 79.7379 68.2838C79.7257 68.1742 79.7866 68.0159 79.8718 67.947C79.9489 67.8861 80.1031 67.9064 80.2207 67.9145C80.2816 67.9186 80.3425 67.9591 80.3912 67.9997C82.1847 69.5092 83.6252 71.3149 84.879 73.2829C84.9764 73.433 84.9764 73.6399 84.9967 73.713Z" fill="black"/>
<path d="M75.4481 92.581C74.6771 92.4593 73.9264 92.2645 73.3015 91.7654C73.0946 91.599 72.9769 91.3434 73.119 91.0796C73.2123 90.9052 73.3989 90.8321 73.6059 90.9011C74.6081 91.2338 75.6428 91.2379 76.6816 91.1649C76.8845 91.1486 77.063 91.2217 77.1483 91.4164C77.2781 91.7126 77.0833 91.9196 76.8926 92.086C76.4787 92.439 75.9837 92.5688 75.4481 92.581Z" fill="black"/>
<path d="M65.8417 67.918C67.0306 68.0113 68.1018 68.2304 68.9945 68.9527C69.1162 69.0501 69.1852 69.3016 69.1649 69.464C69.1365 69.6547 68.9377 69.7561 68.7267 69.6912C67.554 69.33 66.3773 68.9689 65.2087 68.5915C65.1397 68.5672 65.0991 68.409 65.0788 68.3034C65.0707 68.2588 65.1356 68.1736 65.1884 68.1533C65.4197 68.06 65.6631 67.9829 65.8417 67.918Z" fill="black"/>
<path d="M148.846 111.456C151.159 111.618 153.168 112.251 154.933 113.566C155.181 113.749 155.351 114.049 155.525 114.313C155.582 114.402 155.594 114.625 155.534 114.674C155.4 114.783 155.189 114.909 155.043 114.877C154.799 114.824 154.58 114.654 154.349 114.536C152.287 113.465 150.108 112.986 147.783 113.258C147.718 113.266 147.654 113.274 147.589 113.27C146.939 113.229 146.164 113.651 145.738 112.775C146.018 111.963 146.773 111.882 147.443 111.708C147.938 111.574 148.457 111.521 148.846 111.456Z" fill="black"/>
<path d="M176.352 49.5236C176.417 50.7896 175.942 51.9582 175.731 53.1593C175.585 53.9992 174.977 54.6444 174.238 55.1151C174.031 55.2449 173.662 55.0867 173.634 54.8432C173.597 54.5227 173.573 54.2021 173.577 53.8815C173.601 49.4749 172.173 45.5389 169.791 41.887C169.288 41.1119 168.626 40.5073 168.01 39.85C167.364 39.1683 166.959 38.4176 166.934 37.4397C166.91 36.3766 167.466 35.6665 168.31 35.2932C169.15 34.9239 170.039 34.9767 170.834 35.6746C172.323 36.9852 173.382 38.6083 174.173 40.3734C174.802 41.7774 175.423 43.2098 175.65 44.7639C175.882 46.3504 176.117 47.937 176.352 49.5236Z" fill="white"/>
<path d="M165.35 33.0644C165.35 33.3849 165.386 33.7136 165.342 34.0261C165.244 34.7524 164.664 35.3489 163.958 35.426C163.386 35.4909 162.814 35.4868 162.254 35.2474C161.044 34.724 160.651 34.1032 160.716 32.6789C160.764 31.6077 161.45 30.8448 162.566 30.508C163.576 30.1996 165.52 31.3155 165.37 32.4841C165.346 32.6748 165.366 32.8696 165.366 33.0644C165.362 33.0644 165.354 33.0644 165.35 33.0644Z" fill="white"/>
<path d="M164.822 86.5288C164.887 86.7966 164.847 87.0887 164.587 87.1739C164.047 87.3525 163.487 87.5067 162.923 87.5756C162.039 87.6811 161.142 87.7014 160.253 87.7745C159.495 87.8353 158.715 87.7542 157.993 88.0829C156.252 87.9571 154.512 87.8394 152.771 87.6974C152.13 87.6446 151.472 87.6527 150.864 87.3849C150.563 87.2551 150.219 87.1212 150.324 86.7235C150.417 86.3664 150.775 86.3015 151.107 86.2731C151.233 86.261 151.367 86.2772 151.493 86.2893C155.047 86.6302 158.602 86.5653 162.156 86.2488C163.045 86.1717 163.974 86.0459 164.822 86.5288Z" fill="black"/>
<path d="M163.247 93.157C162.102 93.8306 160.804 93.7941 159.55 93.9239C158.791 94.001 158.02 93.9848 157.258 94.0091C155.598 93.7941 153.906 93.9767 152.267 93.5506C152.08 93.5019 151.881 93.5019 151.698 93.4451C151.447 93.368 151.179 93.226 151.163 92.95C151.143 92.5118 151.52 92.4794 151.832 92.4712C152.863 92.4469 153.894 92.4509 154.924 92.4388C157.18 92.4104 159.437 92.3779 161.689 92.3495C162.354 92.3414 163.007 92.3495 163.247 93.157Z" fill="black"/>
<path d="M69.2754 80.699C70.3223 80.91 70.9999 81.4212 71.6938 81.827C73.0369 82.6102 74.2988 83.5191 75.3498 84.6877C76.0112 85.4222 76.4778 86.2662 76.8146 87.1873C76.9769 87.6295 76.7051 87.9785 76.2465 87.9298C75.0657 87.804 73.9539 87.4551 72.9801 86.7734C70.9228 85.3369 69.8151 83.3081 69.2754 80.699Z" fill="#EF6261"/>
<path d="M82.6612 80.6079C81.809 81.5006 81.0989 81.736 80.328 81.8212C76.6233 82.227 73.1499 81.525 69.9362 79.6057C69.7171 79.4758 69.502 79.3216 69.3356 79.1309C69.1571 78.924 69.1774 78.644 69.2748 78.3965C69.3965 78.08 69.64 78.1165 69.8915 78.2301C72.7482 79.4961 75.7631 80.1535 78.855 80.4497C80.0034 80.5592 81.1558 80.5511 82.6612 80.6079Z" fill="white"/>
</g>
<defs>
<clipPath id="clip0_2577_23950">
<rect width="200" height="200" fill="white"/>
</clipPath>
</defs>
</svg>
