<svg width="160" height="160" viewBox="0 0 160 160" fill="none" xmlns="http://www.w3.org/2000/svg">
<g clip-path="url(#clip0_2117_24563)">
<path d="M143.223 292.823C142.895 292.45 142.545 292.075 142.174 291.699L141.904 291.745L141.657 291.899L141.602 293.231C137.195 294.139 132.639 294.013 128.151 293.618C119.954 292.897 111.937 291.113 103.899 289.287C103.668 289.234 103.488 289.209 103.381 289.2C103.566 288.902 103.36 284.271 103.325 283.585C103.321 283.518 103.18 283.487 103.085 283.477C102.903 283.423 102.742 283.513 102.602 283.751C102.392 281.413 102.817 279.112 103.573 276.844L103.443 276.405L103.563 276.046C103.666 276.006 103.666 275.966 103.563 275.926C104.149 274.268 104.424 273.852 104.389 274.676L104.641 274.728L104.807 274.951C105.542 274.863 105.42 275.451 105.28 275.986L105.48 276.166C105.54 276.822 106.646 277.671 107.226 278.021C108.214 278.616 109.137 278.734 110.004 277.841C111.127 276.584 112.328 275.428 113.607 274.375L113.626 274.128C113.699 273.962 113.759 273.794 113.806 273.625C116.559 271.676 120.557 269.999 123.794 271.896C126.845 274.515 129.885 277.225 132.917 280.024C135.091 282.442 137.418 284.681 139.898 286.742C140.451 287.168 141.371 287.823 142.022 287.794C140.704 285.366 137.694 283.372 135.67 281.503C132.154 278.258 129.109 275.293 125.308 272.331C125.171 272.224 124.463 271.63 124.405 271.556C124.028 271.072 123.306 266.814 123.129 265.881C121.743 258.557 120.908 251.139 119.836 243.761C119.416 240.87 118.84 237.968 118.563 235.075C119.201 234.681 119.972 234.36 120.564 233.902C121.037 233.535 121.938 232.772 121.765 232.126C119.503 222.676 117.59 213.14 115.543 203.645C115.495 203.815 115.453 203.985 115.428 204.158C115.403 204.329 115.381 204.498 115.398 204.664C115.551 206.327 115.821 207.978 116.096 209.623C116.894 214.409 118.017 219.136 119.204 223.742C119.837 225.946 120.111 228.163 120.024 230.394L120.217 230.737C120.014 230.907 119.937 231.105 119.987 231.332C108.405 231.683 97.193 235.446 86.3955 239.552L78.6397 221.277C79.3393 221.337 82.2327 220.023 82.1328 219.403C82.1078 219.25 81.8146 219.113 81.6497 219.151C80.2038 219.41 78.743 219.593 77.2688 219.703C76.9473 219.771 76.2343 219.933 76.0594 220.223C72.9927 225.281 70.3042 230.52 67.7456 235.824L65.5201 239.895C62.4185 239.664 59.3218 239.372 56.2485 238.869C48.6626 237.626 41.16 235.877 33.6957 234.015C33.146 233.91 32.5913 233.857 32.0332 233.854L31.7867 233.735C30.9155 234.255 30.1276 233.324 30.1276 232.484C30.1276 231.791 30.2342 231.03 30.3558 230.339C31.83 221.923 33.3842 213.161 35.3098 204.873L35.3931 203.335C34.9866 200.676 35.0599 198.09 35.6113 195.576L35.508 195.134C35.8945 194.903 36.0228 194.526 36.0511 194.083C37.9051 194.795 39.7824 195.594 41.683 196.484C42.3393 196.825 42.9973 196.975 43.6553 196.932C43.6103 196.544 43.6103 196.151 43.6553 195.749C40.4853 195.089 42.4526 194.89 44.3932 195.055C48.2112 195.719 52.1024 195.919 56.0652 195.654C59.1036 195.671 59.4084 195.796 56.9797 196.031L56.7115 196.212L56.8432 196.46C72.4147 197.695 89.3322 197.368 105.247 195.223L105.477 195.373L105.81 195.501L108.549 194.418C110.038 193.887 111.668 193.667 113.138 194.378L113.502 194.295C113.363 194.055 112.926 193.432 112.899 193.269C112.863 193.047 113.141 193.132 113.213 192.869C113.296 192.561 113.281 192.154 113.269 191.831C113.041 185.283 112.981 178.717 112.666 172.177C112.383 166.305 112.105 160.395 111.345 154.558C111.355 154.36 112.546 154.923 112.665 154.976L112.923 154.851C113.224 153.599 114.502 153.858 115.465 154.142L115.75 154.102C116.924 153.317 118.052 152.476 119.136 151.578C118.05 153.066 116.684 154.325 115.037 155.359L114.822 155.816C114.762 156.092 114.957 156.074 115.135 156.156C118.808 157.848 123.522 159.197 127.273 157.063C131.016 154.936 132.784 151.718 133.767 147.617C133.941 147.32 134.604 147.049 134.951 146.824L134.833 146.507C133.79 146.248 133.585 145.641 133.925 144.677C134.01 144.155 133.911 143.752 133.633 143.467C133.21 143.046 132.819 142.571 132.461 142.045L131.591 141.532C130.885 141.219 127.473 139.701 130.403 140.314C130.983 139.814 133.205 140.752 133.455 141.252C133.428 141.612 133.528 141.79 133.753 141.788C134.413 141.55 135.126 141.58 135.892 141.878L136.03 141.668C136.18 141.234 136.07 140.937 135.67 140.709L135.284 140.292C133.104 139.441 130.77 138.682 128.438 138.77C127.931 138.743 127.821 138.26 127.771 137.831C127.493 134.204 127.198 130.663 126.469 127.093C125.919 124.399 123.739 123.525 121.33 124.609L122.239 113.312L122.131 111.698L122.323 111.473C121.531 109.244 122.797 108.73 123.659 110.823C124.333 112.577 124.99 114.353 125.629 116.151C126.99 117.956 128.173 119.874 129.174 121.899C130.608 125.276 132.324 128.479 134.325 131.509L134.711 131.597C133.865 129.144 132.466 126.926 131.334 124.606C128.553 118.897 125.842 113.187 122.544 107.748C122.231 106.258 123.079 104.597 122.274 103.224L113.384 92.6999C113.281 92.605 112.66 92.1602 112.606 92.1602H110.689C110.652 92.1602 110.239 91.7638 110.149 91.6805C109.956 92.0386 109.706 92.3485 109.401 92.6117C108.03 92.8948 108.853 93.4712 109.759 93.4778L112.883 93.6727C113.159 93.7943 113.253 94.0642 113.166 94.484L113.384 94.6772L113.409 94.8954C114.117 95.5884 114.788 96.3146 115.421 97.0742C115.298 97.3907 115.588 97.6606 115.901 97.554L116.021 97.6739C115.916 97.7239 115.913 97.7639 116.021 97.7938L116.141 97.9138C115.936 98.2086 116.326 98.5651 116.621 98.3935C116.667 98.5801 116.787 98.74 116.981 98.8733C116.851 99.1714 117.052 99.4463 117.34 99.2331L117.46 99.353C117.355 99.398 117.354 99.4396 117.46 99.4729L117.58 99.5929C117.417 99.906 117.652 100.154 117.94 99.9527C118.002 100.136 118.122 100.296 118.3 100.432C118.158 100.727 118.242 100.832 118.54 100.672C118.57 100.862 118.65 100.982 118.78 101.032C118.596 101.319 118.848 101.56 119.139 101.392L119.259 101.512L119.286 101.828C121.24 102.936 120.389 105.03 118.433 103.472L118.18 103.549L117.858 103.309L105.847 103.271L99.007 93.7843C99.0337 93.6677 99.1536 93.5262 99.3685 93.3596C99.5484 93.4129 99.665 93.4029 99.7299 93.2346C99.9931 93.4029 100.258 93.3329 100.186 93.0931C100.275 93.2496 100.458 93.2996 100.738 93.2396C102.177 93.4012 104.609 93.3063 106.118 93.2396C106.176 93.2363 106.2 93.0931 106.198 92.9998C106.15 92.7216 105.892 92.5434 105.424 92.4651C105.09 92.0753 104.829 91.9737 104.641 92.1602L104.469 91.9187L100.859 91.8687C100.501 90.4528 100.005 89.1119 99.3685 87.8459C99.535 87.7276 99.5367 87.5477 99.3735 87.3112C99.5234 87.088 99.5417 86.9064 99.4284 86.7681C99.615 87.1363 101.111 87.1663 101.226 86.7681L101.282 87.033C103.718 88.1774 106.131 89.3817 108.524 90.646L108.833 90.4828C106.278 88.4023 103.39 86.8914 100.206 85.9886C104.078 83.1351 107.327 79.2539 108.865 74.633C110.687 69.156 109.698 63.2026 109.686 57.534C111.787 57.0509 113.906 56.6145 115.963 55.9615C118.397 55.1902 123.329 53.3329 124.507 50.9642C125.008 49.9547 125.038 49.4617 124.766 48.4072C123.161 46.5383 121.07 45.4505 118.798 44.541L118.536 44.6909C118.112 44.2861 117.545 44.0763 116.994 43.8864C115.027 43.2117 112.686 42.8319 110.619 42.5388C95.8154 40.4349 79.6591 41.2711 64.8222 43.6931C58.2574 44.7642 51.5543 46.1401 45.2727 47.9841C40.9018 49.2668 36.0877 50.8576 32.5396 53.3562C32.7529 53.0181 32.7828 52.7666 32.6296 52.6033C31.9699 52.3051 31.177 53.1114 30.8322 53.6827C30.1992 55.5134 30.056 56.7877 31.1421 58.4685C33.0877 61.4768 38.4081 62.4147 41.6564 63.1426C41.9312 63.8922 42.0112 64.6285 42.3127 65.3914C43.2672 67.8017 45.2994 69.6441 47.5632 70.8068L49.762 71.7213C47.6948 73.2655 45.1978 74.3965 44.1933 76.9385C43.6103 78.4143 43.597 80.0201 43.3021 81.561C39.2527 83.7998 35.035 86.6515 32.2198 90.3729C29.3397 94.1791 27.4507 98.7333 26.1581 103.309L26.4296 103.049C29.7645 95.112 34.412 87.2812 42.2627 83.5316L42.4526 83.29C43.014 83.0735 43.542 83.2067 44.0384 83.6931C46.7253 85.5521 47.9196 84.3994 47.6331 81.4094L47.3649 81.1329L47.5648 80.9197C47.27 80.4616 47.3666 80.0068 47.853 79.5554L47.7248 79.3355C47.848 78.2911 48.9874 77.5815 49.7753 77.0118C51.3095 75.9007 53.0985 74.9912 54.7926 74.1816L55.5122 75.7374C53.3351 76.4554 51.2562 77.4299 49.2389 78.5143C49.0707 78.6042 48.8791 78.6525 48.8025 78.8558L49.0873 79.0073C50.9314 78.3377 52.8153 77.8446 54.7376 77.5281L54.9125 77.2966C55.2507 77.3632 55.4039 77.3433 55.7254 77.1617L56.0952 77.0817C56.8781 78.1661 57.8626 78.9341 59.0503 79.3821C56.0169 80.0568 53.0369 81.0396 50.265 82.4122C48.8358 83.1201 48.1329 84.4744 48.2361 86.0269C41.7796 88.1574 36.1593 92.8915 32.4264 98.5384C27.8355 105.483 26.5046 113.229 25.4251 121.321C25.4118 121.426 23.4995 120.843 23.4512 120.72L25.2919 111.257L25.0787 111.102L24.7022 111.386C24.1009 112.767 23.5079 114.152 22.9215 115.538C22.5467 117.328 22.2969 119.149 21.8321 120.92C20.6178 120.833 19.7782 121.504 19.027 122.369C18.3023 123.202 17.2346 124.856 17.2912 125.967L17.6244 125.955L19.495 123.523C20.8276 121.911 23.1114 122.004 24.9021 122.73L25.1986 122.61C25.2919 122.702 25.3602 122.809 25.3369 122.935C24.2958 128.437 24.3641 134.677 24.9954 140.426L25.2003 140.831C25.147 140.891 25.097 140.954 25.062 141.022C24.8471 141.437 25.6467 145 25.8233 145.731C26.9277 150.325 28.4668 155.184 32.7812 157.691C32.7445 158.792 32.7312 160.065 32.8811 161.216C33.0677 162.65 33.4391 164.206 35.2348 163.303C34.7085 169.062 34.1404 174.794 33.5308 180.499C29.1182 178.99 24.8505 176.533 20.7893 174.029C20.5661 173.893 20.3029 173.839 20.0497 173.794C19.7715 174.079 19.9131 174.884 20.0497 175.234C23.4812 177.97 28.3602 179.688 32.3164 181.602C32.7562 181.815 33.0677 182.236 33.5857 182.19L32.7545 192.181C32.9228 193.307 33.8639 193.31 34.7318 193.572C34.8451 193.605 34.9716 193.502 34.9 193.747C34.7085 194.407 34.3004 195.134 34.1254 195.851C33.4208 198.754 34.0538 202.156 33.8256 205.141C33.5308 208.979 32.0982 213.681 31.4519 217.629C30.6007 222.826 29.9744 228.075 29.3863 233.31C29.4063 233.749 29.7795 234.157 30.1493 234.357C31.5502 235.118 34.0105 235.294 35.548 235.886C35.6763 235.954 35.6413 236.137 35.6246 236.251L36.1194 236.444C42.0012 236.91 47.8247 237.793 53.3634 239.429C53.7498 239.542 55.5189 240.092 55.7004 240.32C55.917 240.592 56.1469 241.703 55.4389 241.471C52.3589 241.581 49.1906 241.568 45.9324 241.434C42.346 241.443 38.713 241.613 35.1965 242.207C34.9966 242.241 34.8251 242.366 34.6652 242.484C33.111 252.257 31.257 262.003 30.4491 271.891L28.7384 273.177L23.1614 281.922L23.4962 281.896C25.0654 279.914 26.5495 277.853 27.9455 275.714C29.3464 273.642 31.1571 272.191 33.5091 271.372L33.704 271.013L33.4691 270.787C32.9611 270.913 32.498 270.978 32.0766 270.982L33.031 263.028C38.3548 264.289 43.7169 265.288 49.1157 266.023L46.5504 276.872L46.7653 277.008C47.0485 277.235 48.1745 276.877 48.2028 276.529C48.4277 276.252 48.7875 276.252 49.2806 276.529L49.3072 276.842C49.9802 277.303 50.3966 277.975 50.5582 278.771L50.8381 278.926C50.9147 277.232 50.4899 275.318 48.566 274.963L57.0081 240.563L57.2179 240.47C58.0492 240.6 58.9353 240.838 59.7649 240.925C60.268 240.976 60.816 240.876 61.3191 240.928C62.5567 241.053 64.0609 241.414 65.2753 241.416C66.373 241.416 67.4741 239.142 67.9905 238.249C69.8178 235.088 71.2703 231.72 72.9811 228.498C74.2804 226.054 75.7229 223.641 77.1355 221.269C78.8779 225.045 80.2038 229.044 81.8113 232.891C83.0007 235.734 84.3832 238.506 85.5776 241.349C86.1473 241.986 87.2967 241.524 87.948 241.436C90.5316 241.083 93.1302 240.795 95.6988 240.342C95.8654 240.387 95.9487 240.861 96.007 241.046C96.4051 241.354 96.7815 240.765 96.6999 240.322C96.6583 240.088 95.9237 239.366 95.6471 239.489C95.0208 238.981 94.0897 238.929 93.3367 239.257C92.777 239.595 89.139 241.008 90.6299 239.354C91.6277 238.678 94.0264 237.963 95.2274 238.133L95.4073 237.93C95.6505 237.791 95.882 237.558 96.0986 237.232C98.3474 236.51 100.683 236.012 103.108 235.738C106.561 234.538 109.941 233.504 113.556 232.777C114.192 232.649 115.39 232.503 116.019 232.603C117.061 232.766 117.092 232.802 116.967 233.825C118.302 233.99 118.17 234.307 116.572 234.775C110.036 236.67 103.335 239.422 97.5861 243.272C97.4412 243.368 97.3162 243.493 97.1913 243.623C97.0664 243.755 96.9531 243.898 96.8448 244.045C99.4251 253.588 101.702 263.216 104.267 272.766L104.272 272.932C102.957 273.167 102.613 274.528 102.39 275.666C101.549 279.964 101.541 286.808 101.87 291.219C102.02 293.213 102.473 293.486 104.209 294.154C106.796 295.149 110.053 295.868 112.776 296.491C120.902 298.352 130.638 299.598 138.944 298.573C140.336 298.402 143.018 297.924 143.303 296.221C143.438 295.417 143.283 293.711 143.211 292.833L143.223 292.823Z" fill="#EED3CA"/>
<path d="M16.6954 137.83C17.0269 138.264 16.7387 139.607 16.3356 139.987L16.4022 140.237C15.0013 143.072 14.3383 146.845 14.0518 150.095C13.6987 154.112 13.8686 157.452 14.1701 161.438C14.1951 161.763 14.1318 162.088 14.0585 162.403C13.732 161.72 13.5488 161.177 13.4788 160.406L13.099 156.29C13.119 155.613 13.0707 154.927 13.099 154.252C13.2056 151.7 13.5887 148.982 13.9569 146.42C14.4066 143.298 15.0346 140.205 15.6143 137.11C16.0224 136.958 16.6571 137.401 16.6921 137.83H16.6954Z" fill="#EED3CA"/>
<path d="M84.1526 0.81452C86.0848 1.19265 87.9921 2.20876 89.6729 3.23154L90.0227 3.6913C97.2854 6.67801 105.223 10.9707 108.474 18.435C108.579 18.4733 108.579 18.5133 108.474 18.5549L108.594 18.9147L108.899 19.0963C109.639 21.1119 110.408 23.6122 110.771 25.7227C110.896 26.4506 111.02 28.0948 110.032 28.0248C109.767 28.3963 107.971 27.9265 108.474 27.4251L108.073 27.1103C107.473 25.4162 106.955 23.6955 106.515 21.9497C103.983 14.4188 96.2327 10.0029 89.5496 6.60805C88.2553 5.59193 87.2575 4.9223 85.6051 4.41757C79.8699 2.66185 73.5283 2.64187 67.6032 3.15825L67.1384 2.97169L63.9668 3.69296C63.8452 3.78791 63.7436 3.90618 63.6636 4.0511C63.557 4.25599 63.4138 4.43256 63.2322 4.57582C58.2566 7.45759 53.1793 10.5209 49.3764 14.9119C45.8566 18.9764 45.0387 23.3307 44.1042 28.4446C43.8577 29.5057 43.5595 30.5434 43.243 31.5695C43.1298 31.9377 42.6883 32.8988 42.3352 32.9421C42.2136 33.5268 41.1492 33.81 41.0176 33.182C41.0259 32.0659 41.0392 31.2864 41.2574 30.1853C41.3124 29.2641 41.469 28.3546 41.7272 27.4568C41.6173 27.2435 41.5006 27.0337 41.3774 26.8288C41.5839 24.6649 41.8071 22.8326 42.3352 20.7154C44.9504 14.074 50.664 9.49482 56.8307 6.17662L56.7124 5.97007C56.9806 5.67689 57.5036 5.44368 57.8668 5.26711C62.5259 3.01167 70.3667 0.221507 75.5222 0.454714C77.0547 0.368095 78.6239 0.474704 80.2297 0.772876C79.9682 0.631286 79.7483 0.4797 79.9565 0.214844C81.3624 0.266482 82.8099 0.353103 84.1509 0.81452H84.1526Z" fill="#835840"/>
<path d="M103.204 33.7781C103.349 33.4799 103.538 33.5915 103.563 33.898C103.925 33.4666 104.473 33.6598 104.881 33.898L105.126 33.7531C105.786 33.9613 106.462 34.1163 107.155 34.2179L107.278 34.4961C108.864 34.6876 110.396 35.4056 111.801 36.1801C112.247 36.6915 112.772 37.1613 113.475 37.2113C117.021 39.6683 120.413 42.5334 123.334 45.6434C124.067 46.318 124.524 47.4357 124.772 48.4002C123.744 48.0154 122.933 46.8077 122.003 46.3147C121.139 45.8549 119.455 45.0587 118.54 44.6839C117.286 43.8643 116.048 42.9515 114.827 41.9487C108.239 36.51 98.7611 35.7387 90.4539 35.7387C84.5538 35.3489 78.6253 34.9991 72.7052 34.7309C72.3554 34.7143 72.0189 34.6093 71.6907 34.4961L69.9017 34.3595C69.3803 34.3078 69.0155 34.1063 69.2387 33.5449L70.1332 33.4183C70.1549 33.3117 70.1966 33.3167 70.2532 33.4183C70.5197 33.315 70.8229 33.325 71.0927 33.4183C71.2393 33.0268 72.3254 32.7587 72.5303 33.1784C82.7398 32.6004 93.1358 32.5021 103.204 33.7781Z" fill="#835840"/>
<path d="M108.357 27.4226C108.347 27.6941 108.204 27.7574 107.959 27.764L105.595 27.7807C104.995 27.7524 104.657 27.894 104.284 28.2621L104.256 28.4237C104.474 29.4565 104.804 31.3754 104.837 32.8396C104.727 33.3027 104.715 33.4843 104.884 33.8957C104.447 33.8757 104.001 33.924 103.566 33.8957L103.446 33.5109C103.924 31.9485 103.891 29.9529 103.446 28.3904C102.503 25.0788 96.2167 23.8861 93.5032 25.6252C93.4815 25.8284 93.3166 25.9767 93.0051 26.0683C93.8997 27.6991 94.0379 29.4748 94.1595 31.3371L94.3194 32.3149L102.572 33.2494C102.71 33.3144 102.841 33.4093 102.966 33.5343C103.245 33.2894 103.406 33.466 103.206 33.7741C100.704 33.6492 98.2207 33.4127 95.7187 33.2927C88.0945 32.9296 80.1688 32.9729 72.5329 33.1745L72.6228 32.9263L79.3942 32.3616C79.4708 32.245 79.5791 32.155 79.7223 32.095L79.6307 31.8002C80.0588 30.5759 79.7207 28.8035 79.4708 27.5125C79.2526 26.3881 79.1443 25.9534 78.0599 25.4203C77.4935 25.1421 76.4524 24.6807 76.1276 25.2604L75.8877 25.472C73.9405 25.3753 72.0498 26.0933 70.3357 26.9595C69.6095 27.326 68.6933 27.809 68.8099 28.7485L69.173 32.3649C69.248 32.7314 69.213 33.0362 69.0714 33.2794C69.4079 33.0812 69.8527 33.1178 70.1359 33.4143L69.4162 33.6559L69.4196 34.0073L71.6933 34.4921L71.2936 34.7419C69.8477 34.8002 68.4101 34.9935 66.9876 35.2517L66.5411 35.0918C66.2113 34.8336 65.8615 34.707 65.4934 34.7103C59.3217 35.788 53.0751 37.2756 47.1866 39.0396L46.8901 38.9263C46.537 38.8081 46.6586 38.5499 47.01 38.5665L47.4331 38.2317C50.3899 37.0324 53.4349 36.0796 56.5649 35.3683L56.0885 30.8874C55.9235 30.6292 54.4677 30.5925 54.0995 30.7125L53.8397 30.5342C54.0062 29.5497 52.4871 30.341 52.014 30.5909C50.4265 31.4321 46.995 33.421 46.507 35.2084C46.412 36.4877 46.3271 37.772 46.2554 39.0613L46.0522 39.2861C45.9739 39.6126 45.5142 39.6843 45.3326 39.4061C45.2343 39.2412 45.2776 39.0996 45.4642 38.9813C45.2293 37.9252 45.191 36.8375 45.2027 35.7597L44.9728 35.33C44.8179 35.3799 44.7029 35.31 44.6263 35.1217C44.0033 34.8819 39.9522 37.5454 39.2409 38.1701C38.3614 38.9413 38.1731 39.4727 38.9627 40.4372C38.8494 41.2917 38.8028 42.1329 38.8195 42.9625C39.031 43.2423 39.0843 43.4955 38.9827 43.7221C39.2276 44.0286 38.3131 44.6549 38.0249 44.4417C37.9199 42.6443 37.4902 40.4455 37.9583 38.6815C38.3397 37.2456 40.1038 36.521 41.1282 35.6098C40.9833 34.8019 41.0149 33.989 41.0199 33.1728C41.5413 33.4227 41.8878 33.1811 42.3376 32.9329L42.5558 33.1295L42.5958 34.697C43.5319 34.3638 44.4831 34.0873 45.4509 33.8657C48.0012 30.6775 52.2322 28.3038 56.4149 29.3332C59.4566 26.4231 63.9942 25.2288 68.0953 26.5814C71.1786 24.1327 75.6879 22.8301 79.4142 24.5475C83.2904 22.5769 88.2227 22.4902 92.0273 24.6774C95.9019 22.85 101.374 23.0399 103.993 26.8429C105.37 26.7879 106.784 26.7463 108.134 27.0961L108.359 27.4176L108.357 27.4226Z" fill="#EED3CA"/>
<path d="M25.2021 122.606C25.2388 122.626 25.3587 122.569 25.4287 122.614C25.6019 122.839 25.1222 125.401 25.0855 125.904C24.7307 130.671 24.6741 136.077 25.2038 140.826L25.1405 141.159C24.8823 141.497 17.996 138.944 17.1398 138.344C16.9499 138.211 16.8084 138.031 16.6968 137.829C16.3336 137.624 15.9655 137.346 15.619 137.11C15.4924 137.023 15.4374 136.913 15.3791 136.87L15.3125 136.297C16.3486 131.864 17.6013 128.118 20.563 124.72C21.6108 123.517 22.407 123.359 23.9711 123.249C24.5075 123.17 24.9306 123.001 25.2038 122.606H25.2021Z" fill="#404040"/>
<path d="M122.134 111.697C121.949 110.908 121.311 109.052 122.787 109.299C123.407 109.402 124.106 111.231 124.35 111.819C124.866 113.065 125.314 115.171 125.945 116.217C126.578 117.264 127.468 118.234 128.146 119.41C130.088 122.775 132.437 128.985 134.716 131.598C134.952 131.87 135.31 132.756 135.494 133.157C136.556 135.488 137.791 138.581 138.31 141.068C138.347 141.695 138.074 142.576 137.353 142.268C137.081 142.617 136.058 142.081 136.035 141.668C135.908 141.353 135.792 141.028 135.675 140.708C135.189 140.124 134.821 139.436 134.571 138.643C131.386 132.631 128.249 126.593 125.158 120.529C123.095 118.006 122.331 114.877 122.134 111.699V111.697Z" fill="#DD554B"/>
<path d="M66.5397 35.0978C66.468 35.1744 66.3931 35.2477 66.3081 35.3076C66.2232 35.3676 66.1465 35.4176 66.0582 35.4409C62.6451 36.3504 59.3969 37.2283 56.012 38.2977C50.9514 39.8952 46.4172 41.336 42.526 45.2373C39.8258 47.7259 37.1106 49.9647 34.0889 52.0269C33.7774 52.2385 32.9512 52.6366 32.6313 52.6016C31.9867 52.8265 31.3804 53.2679 30.834 53.681C32.1982 49.7332 35.7147 47.596 38.0234 44.451C38.0601 44.4027 38.7797 43.903 38.9812 43.7314C38.9479 43.3866 39.6359 42.8286 39.9391 42.7719C41.335 41.2061 43.2256 40.25 45.0679 39.3305L45.3311 39.4154C45.5677 39.3321 45.7992 39.3021 46.0507 39.2955C46.2939 39.2289 46.4755 39.1022 46.6004 38.9124L46.8903 38.9357C47.7748 38.3776 52.2007 37.4248 53.5017 37.1C56.8899 36.2521 60.8427 35.2027 64.2609 34.678C64.9988 34.5647 66.3198 34.1133 66.5397 35.1011V35.0978Z" fill="#835840"/>
<path d="M42.4572 83.2853C43.8731 82.9588 43.6049 84.428 42.9419 85.2909C42.4955 85.8722 41.9241 86.3686 41.3678 86.8434C36.9818 89.8018 33.3654 93.2965 30.985 98.2139C28.9461 102.362 27.0688 106.576 25.3548 110.859L25.0849 111.095C24.4686 112.589 23.8472 114.214 22.9277 115.531C23.7639 111.533 24.7101 107.112 26.1627 103.304C28.0233 98.4288 30.8884 93.1649 34.3132 89.2221C35.7825 87.5313 39.5821 84.5746 41.5826 83.5485C41.9108 83.3802 42.0557 83.2653 42.4588 83.2853H42.4572Z" fill="#50587F"/>
<path d="M108.835 90.4787C109.353 90.9018 109.686 91.2499 110.153 91.678C110.268 92.1195 109.91 92.6109 109.545 92.8074C109.33 92.9224 108.903 92.8657 108.835 93.1156C109.183 93.079 109.506 93.2272 109.848 93.2405C110.481 93.2672 110.969 93.2988 111.535 93.3505C112.726 93.4588 113.616 93.0773 113.388 94.6748C113.619 95.1478 114.047 95.6476 114.672 96.1723L115.425 97.0735C115.65 97.2567 115.723 97.3083 115.905 97.5532L116.025 97.6731C116.04 97.7098 116.006 97.7681 116.025 97.7931L116.144 97.913C116.298 98.0746 116.449 98.1978 116.624 98.3927C116.689 98.576 116.809 98.7359 116.984 98.8725C117.166 99.0174 117.207 99.0924 117.344 99.2323L117.464 99.3522C117.484 99.3722 117.444 99.4522 117.464 99.4722L117.584 99.5921C117.672 99.6904 117.829 99.8336 117.943 99.9519C118.038 100.133 118.158 100.293 118.303 100.432C118.427 100.528 118.458 100.59 118.543 100.672C118.583 100.82 118.663 100.94 118.783 101.031C118.87 101.135 119.005 101.21 119.143 101.391L119.263 101.511C119.829 101.916 120.919 102.739 120.639 103.542C120.232 104.713 118.808 104.29 118.183 103.548C117.795 103.4 117.507 103.05 117.316 102.499C115.305 99.9786 113.209 97.5282 111.031 95.1445C107.456 94.7181 103.904 94.3916 100.376 94.1684C99.9133 94.1267 98.8222 93.8602 99.3719 93.3588L99.6734 92.8807L99.8333 92.9024C99.8733 93.3305 100.062 92.999 100.15 92.999H106.2L105.275 92.6658C105.169 92.4976 104.664 92.1961 104.642 92.1611L104.346 92.0479C103.546 90.2671 101.446 88.8929 99.6334 88.2233L99.3702 87.8468C99.3202 87.6752 99.1387 87.517 99.1387 87.3087C99.1387 87.1672 99.3436 86.769 99.4285 86.769H101.226C101.482 86.769 105.267 88.6947 105.842 88.9845C106.813 89.4759 107.792 90.2372 108.835 90.4854V90.4787Z" fill="#E68078"/>
<path d="M84.1523 0.813782C84.2939 0.638877 84.7021 0.808784 84.8936 0.852094C93.2274 2.73108 105.906 8.69451 109.285 17.085C110.7 20.5947 111.066 24.7908 111.348 28.5404C113.43 29.8414 114.088 31.4122 114.346 33.7793C114.098 34.264 113.793 33.8226 113.871 33.3828C113.823 32.1185 113.303 31.4422 112.37 30.656C111.667 29.7848 110.888 28.9985 110.03 28.2972L110.033 28.0257C110.506 27.7858 110.65 27.0379 110.623 26.5465C110.516 24.5376 109.2 20.9512 108.596 18.9156L108.476 18.5558C108.469 18.5159 108.484 18.4709 108.476 18.4359C105.213 10.9666 97.2436 6.63563 90.0242 3.69222C88.0802 2.66278 86.2645 1.54172 84.1523 0.815447V0.813782Z" fill="#EED3CA"/>
<path d="M108.478 27.4249C108.5 27.843 109.736 27.873 110.036 28.0245C110.784 28.3993 111.885 29.7786 112.488 30.4266C113.717 31.7475 113.8 31.2844 114.113 33.36C114.147 33.5832 113.964 33.8447 114.35 33.7781C114.367 33.9347 114.335 34.1012 114.35 34.2578L114.47 34.4977C114.52 35.0757 114.432 35.7104 114.47 36.2951C114.378 37.2879 113.55 37.4344 112.758 37.003C112.424 36.8214 111.563 36.2651 111.953 35.9369L111.62 35.6004C111.528 34.7359 111.388 33.8864 111.198 33.0518L110.329 32.189C109.596 30.5865 108.488 29.582 107.006 29.1756L104.522 28.6076C104.355 28.5809 104.305 28.4343 104.287 28.2644C104.31 28.2344 104.272 27.9796 104.395 27.8363C104.897 27.2483 107.62 27.7797 108.362 27.4249C108.397 27.3283 108.437 27.3299 108.482 27.4249H108.478Z" fill="#AD8F7E"/>
<path d="M25.2017 122.606C25.1967 122.853 25.3066 122.964 25.0518 123.123C23.9623 123.795 22.5814 123.332 21.4953 124.114C20.5375 124.8 18.0889 128.526 17.5958 129.682C16.6346 131.933 16.1499 134.55 15.377 136.873C15.1471 136.704 14.5474 136.577 14.4375 136.187C14.6007 134.445 15.1521 132.706 15.7318 131.055C16.1582 129.841 17.226 127.967 17.4842 126.924C17.5325 126.727 17.3126 126.322 17.2943 125.964C18.4503 124.725 19.2182 122.833 20.9256 122.226C22.1367 121.797 24.0673 122.001 25.2017 122.608V122.606Z" fill="#717171"/>
<path d="M136.033 141.665C136.576 141.91 136.597 142.002 137.35 142.265C137.805 142.073 138.568 142.928 138.308 143.344C138.292 143.371 138.312 143.677 138.198 143.891C137.557 145.097 136.059 146.103 134.953 146.821C134.457 146.567 133.866 146.531 133.627 145.931C133.386 145.321 133.671 145.022 133.711 144.465C133.729 144.205 133.537 143.709 133.634 143.466C133.761 142.996 133.779 142.585 133.579 142.072L133.754 141.788C133.651 141.497 134.285 141.352 134.43 141.345C134.512 141.342 135.956 141.635 136.031 141.668L136.033 141.665Z" fill="#8F2C28"/>
<path d="M56.7151 5.9663C56.9167 5.89634 58.0927 5.56319 58.1527 5.60816C57.0083 6.41939 55.6673 7.0757 54.448 7.83529C49.1109 11.1585 45.3513 14.5883 42.6777 20.3985C42.5961 20.5751 42.6127 20.7699 42.3379 20.7116C43.5972 15.6727 47.6317 11.7798 51.7661 8.8664C53.0704 7.9469 55.2509 6.47936 56.7168 5.96797L56.7151 5.9663Z" fill="#EED3CA"/>
<path d="M112.67 154.971C112.76 154.01 113.496 153.616 114.404 153.647C114.857 153.664 115.164 154.004 115.695 153.865C116.421 153.677 118.185 151.807 118.952 151.367L119.5 151.257C119.753 151.5 118.247 153.063 118.005 153.297C117.058 154.22 115.888 155.023 114.827 155.811C114.244 155.946 113.213 155.218 112.67 154.971Z" fill="black"/>
<path d="M111.949 35.9359C112.407 37.3151 113.66 37.4667 114.466 36.2957C114.466 36.3123 114.576 36.4322 114.591 36.5855C114.624 36.957 114.529 37.3418 114.611 37.7099C117.241 39.6472 120.358 41.7827 122.49 44.2697C122.808 44.6411 123.286 45.1542 123.331 45.6456C123.251 45.5723 123.043 45.5257 122.915 45.4074C118.584 41.4279 113.082 36.1091 107.275 34.4983C107.213 34.3934 107.182 34.2401 107.267 34.1918C107.725 33.9386 111.03 35.108 111.596 35.4878L111.947 35.9375L111.949 35.9359Z" fill="#EED3CA"/>
<path d="M79.958 0.213452C80.3361 0.819791 81.3239 0.718179 81.7554 1.2912C79.7881 0.873096 77.8225 0.689862 75.8153 0.578255C75.6603 0.569927 75.542 0.454989 75.5254 0.453323C75.6103 0.178472 75.8352 0.221782 76.0584 0.206791C77.2361 0.126834 78.7637 0.170143 79.9597 0.213452H79.958Z" fill="#EED3CA"/>
<path d="M41.2581 30.1827C40.9516 29.0883 41.2731 27.9222 41.378 26.8262C41.6362 26.8445 41.9527 27.106 41.9677 27.3576C42.0027 27.9589 41.3947 29.4981 41.2597 30.1827H41.2581Z" fill="#EED3CA"/>
<path d="M114.465 34.4978H114.227L114.347 34.2573C114.347 34.2707 114.449 34.2857 114.467 34.4978H114.465Z" fill="#EED3CA"/>
<path d="M16.4566 163.602C16.8081 164.004 16.8081 164.639 16.4566 165.042C15.4272 164.245 14.6309 163.597 14.0596 162.405C13.295 157.119 13.4016 151.579 14.3378 146.32C14.5327 145.229 15.5155 140.477 16.3367 139.989C16.4699 139.592 16.7265 139.482 17.1462 139.579C18.4106 139.872 17.9558 142.84 17.7926 143.745C16.3683 149.998 16.3517 156.37 16.6765 162.785C16.6515 163.069 16.5782 163.343 16.4583 163.602H16.4566Z" fill="#50587F"/>
<path d="M25.2027 140.825C25.6558 144.883 27.2815 151.832 29.9334 154.971C30.803 156 31.9007 156.768 32.9701 157.566C33.0434 158.805 32.8885 162.037 33.6548 162.995C34.3894 163.913 35.2106 162.715 35.5054 163L33.828 180.44L33.7147 180.69C33.6281 180.765 33.5382 180.732 33.4399 180.72C32.7886 180.648 30.6797 179.619 29.9518 179.284C26.5819 177.738 23.0288 175.971 20.0505 173.787C19.8189 172.088 19.674 169.613 19.2542 168.052C19.1393 167.626 19.0543 167.152 18.493 167.194V166.474C18.6978 166.268 21.0999 167.629 21.5263 167.814C23.0472 168.477 26.2821 169.768 27.8712 169.445C29.7435 169.063 30.9845 165.522 30.4731 163.838C29.5153 164.707 29.1422 167.677 27.9079 168.162C26.6735 168.647 23.4703 167.384 22.2476 166.856C20.2637 165.998 18.2348 164.819 16.4574 163.599C16.3391 158.702 16.0393 154.344 16.5923 149.409C16.8655 146.97 17.5934 144.315 17.76 141.946C17.8217 141.073 17.7117 139.169 16.3375 139.984L16.6973 137.827C19.1743 139.226 21.9194 140.134 24.6663 140.823C24.8229 140.863 25.0911 141.065 25.2043 140.823L25.2027 140.825Z" fill="#242E5F"/>
<path d="M108.839 158.688L109.023 158.872L108.729 160.361C108.78 170.495 109.203 180.896 110.409 191.071L110.876 192.732C107.706 193.541 104.369 193.918 101.109 194.289C84.1752 196.216 67.0311 195.983 50.0703 194.649C44.7615 194.231 39.4494 193.598 34.2755 192.35C33.954 192.185 34.0557 191.238 34.0673 190.869C34.0956 190.053 34.3072 189.129 34.3122 188.297L34.5254 188.141C35.1118 188.389 35.5065 187.806 35.7214 187.313C36.461 183.602 36.8825 179.817 36.9907 175.961C37.5388 171.735 37.9635 167.485 37.9269 163.223C37.9202 162.48 37.8269 161.587 37.054 162.348L36.8291 162.165C36.9741 161.207 37.3355 161.414 37.8519 160.851C38.1068 160.574 38.8047 159.511 39.0696 159.433C39.9874 159.403 40.882 159.581 41.8065 159.533C43.967 159.42 46.0042 158.609 48.0364 157.964C66.2616 158.973 84.6366 159.471 102.91 158.93C104.891 158.872 106.865 158.893 108.84 158.688H108.839Z" fill="#D52B1E"/>
<path d="M106.081 105.465C106.296 105.355 106.556 105.38 106.857 105.54C110.975 105.303 115.344 105.571 119.54 106.214L119.565 107.698C118.826 120.536 118.168 133.173 117.59 145.605L117.343 145.741L102.844 145.861L103.556 138.497L101.82 135.079C100.805 133.976 99.9758 136.838 99.5011 137.271C99.3945 137.367 99.3379 137.377 99.1929 137.361C98.5016 137.281 97.9286 133.453 96.6377 135.154C96.0929 135.872 95.6698 136.969 95.1868 137.754L94.8786 137.83C94.5121 137.326 93.1096 134.606 92.6065 134.594C92.4149 134.589 92.0451 134.824 91.8936 134.96C91.6254 135.205 89.3233 138.715 89.2433 139.021L88.7086 146.098L74.0898 146.338L75.5274 106.059L75.8789 105.876C80.663 106.407 85.7069 106.597 90.4677 105.911L90.8658 106.058C90.9124 108.678 90.391 111.871 90.6192 114.395C90.6576 114.816 90.7775 115.398 91.2955 115.406L91.5804 115.349L94.3406 112.591C94.4505 112.524 94.6287 112.496 94.7487 112.522C94.9369 112.564 95.9214 115.669 96.5827 115.866C96.6926 115.897 96.7959 115.907 96.9092 115.891C97.5472 115.799 98.8781 112.972 99.4328 112.886C99.6543 112.841 99.5877 112.951 99.6427 113.042C99.9059 113.479 100.487 115.236 100.775 115.413C101.851 116.074 102.276 113.848 102.789 113.37C102.899 113.267 102.984 113.199 103.144 113.252C103.482 113.364 103.824 115.854 104.698 115.772L105.236 115.221C105.563 111.971 105.754 108.706 106.083 105.458L106.081 105.465Z" fill="#D52B1E"/>
<path d="M47.2483 87.2416C47.4381 87.1649 47.738 86.98 47.9012 86.9934L48.6925 87.4348L48.5775 89.4454L49.4038 103.544L49.034 103.473C48.1311 100.823 46.5503 98.4205 44.5497 96.4732C44.2332 96.3916 44.4298 96.7481 44.3715 96.8314C44.3865 96.9646 44.3398 97.1179 44.2316 97.2878C44.8279 99.5449 45.6441 101.742 46.6786 103.881L46.5286 104.144C46.472 104.284 46.3454 104.292 46.1505 104.172L46.0489 104.384L45.9223 104.749C48.7358 113.284 51.481 122.607 51.4626 131.894C51.3644 133.3 51.6825 134.493 52.4171 135.472L52.3988 135.79C51.1861 136.072 49.2005 136.853 48.0245 136.878C47.3549 136.891 46.1988 136.368 45.4509 136.208C38.1748 134.653 29.7144 138.62 27.7738 146.096L27.3574 146.22C26.801 143.273 26.3212 140.296 26.153 137.293C26.093 136.205 25.9181 133.078 26.158 132.194L26.093 131.816C27.2241 126.329 28.3968 120.843 29.6095 115.36C31.66 105.971 36.9955 97.6859 45.0994 92.4721L46.8168 87.7196L47.2466 87.2416H47.2483Z" fill="#D52B1E"/>
<path d="M71.6912 34.4978C77.4214 34.4279 83.4982 35.1625 89.24 35.4623C91.3472 35.5723 93.5994 35.4307 95.7132 35.5789C100.424 35.9087 104.565 36.7233 109.016 38.2125C112.138 39.2569 115.614 42.3036 118.251 44.3225C118.393 44.4308 118.598 44.4308 118.539 44.6873C115.139 43.2931 110.175 42.6451 106.497 42.2903C87.8441 40.4896 68.8644 42.4285 50.7226 46.7828C45.6536 47.9989 38.5325 50.0627 34.0333 52.6214C33.6185 52.8579 32.8756 53.5275 32.5524 53.6575C31.9327 53.904 32.5057 52.7679 32.6323 52.598C32.9422 52.1783 33.5868 52.0583 34.1082 51.7368C39.5386 48.3837 43.9879 42.4019 49.9763 40.0415C50.7159 39.75 51.5488 39.5118 52.31 39.2603C56.5427 37.866 62.258 35.9337 66.5407 35.0958C68.1215 34.7877 70.0854 34.5162 71.6929 34.4962L71.6912 34.4978Z" fill="#5A321B"/>
<path d="M58.5103 80.7681C58.8501 80.873 59.4798 80.6448 59.8829 80.6431C60.4559 80.6398 60.9473 80.7631 61.507 80.7681C61.6036 82.2139 61.1989 83.6115 61.0423 85.0391C60.8907 86.4233 60.909 88.2207 60.6675 89.52L60.8507 89.7499C59.115 93.0098 58.7185 96.6112 58.6686 100.391C58.4603 108.133 58.0356 115.912 57.3076 123.52L57.0727 124.043C56.4514 126.63 55.9634 129.258 55.0472 131.764L54.6774 131.835C54.6241 128.152 54.0927 124.518 53.4414 120.905C53.1749 119.43 52.915 117.84 52.5602 116.392C52.2637 115.183 51.654 113.88 51.4558 112.702C50.9661 109.804 51.1043 106.552 50.6046 103.666L50.373 103.537C50.8794 98.3602 51.0477 93.1347 50.8794 87.8642C50.9327 85.0208 51.5557 84.0513 54.0727 82.8819C55.7335 82.4022 57.2143 81.6976 58.5136 80.7697L58.5103 80.7681Z" fill="#404040"/>
<path d="M82.9554 148.62C82.9155 148.413 82.6156 147.52 82.7155 147.422L96.9745 147.302C96.4698 149.353 97.7158 151.345 99.703 151.943C100.184 152.088 100.653 152.031 101.054 152.151C101.702 152.345 102.462 153.037 103.421 153.261C104.819 153.584 105.563 153.056 106.623 153.167C107.281 153.237 107.98 153.809 109.196 153.895C109.499 154.09 109.343 154.338 108.73 154.642C108.343 155.078 108.71 156.835 108.973 157.355L108.836 157.612C106.359 157.595 103.836 157.687 101.342 157.727C85.3108 157.98 69.1912 157.88 53.1765 157.137C52.5835 157.109 51.9539 156.912 51.3242 157.012V156.656L61.9301 152.689C62.12 152.661 62.285 152.701 62.4632 152.763C63.1861 153.014 64.697 154.322 65.6215 154.757C66.4743 155.156 67.6887 155.549 68.6398 155.454C69.0946 155.41 69.5527 155.091 69.9575 155.091C70.4622 155.091 71.3301 155.561 72.0014 155.578C73.0658 155.603 73.6005 155.003 74.3018 154.875C75.0764 154.735 75.5178 154.936 76.4506 154.518C77.3201 154.129 77.5117 153.504 77.9981 153.189C78.2713 153.012 78.9709 152.916 79.3574 152.751C81.1764 151.98 81.7161 151.273 82.7172 149.699C82.6173 149.509 82.6522 149.429 82.8155 149.341C82.7655 149.016 82.8122 148.776 82.9554 148.62Z" fill="#F7F0EF"/>
<path d="M71.8116 131.594C72.1664 130.866 72.6311 130.386 72.8827 129.49C73.4723 127.398 72.7394 123.821 69.9642 124.173C68.7616 124.326 67.8904 125.672 66.7793 125.96L68.6966 94.5537L69.0647 94.6287L74.2619 104.39C74.3752 104.618 74.3235 104.863 74.3285 105.103C74.6317 105.226 74.4768 105.504 74.3285 105.703L72.8893 144.662C72.5578 145.003 71.5867 143.369 71.3318 143.224L70.9687 143.081C70.1791 141.943 69.4628 140.604 69.1264 139.26L69.2963 138.908C69.0397 138.395 68.9198 137.917 68.9365 137.469C68.9548 137.149 68.9814 136.821 69.108 136.523C69.8226 134.849 70.7188 133.016 71.8116 131.595V131.594Z" fill="#AB2E1F"/>
<path d="M59.1101 117.091C60.1029 108.719 60.8908 100.294 61.6271 91.86C61.6554 91.5285 61.7087 90.8472 62.0935 91.092C62.1684 91.1403 62.6598 92.448 62.8048 92.7178C63.9058 94.7834 65.3884 96.9006 67.1974 98.3914L65.9397 119.428C65.8714 119.793 64.7454 119.828 64.3273 119.853C62.5732 119.955 60.8208 119.688 59.0684 119.712C58.7486 119.607 58.9685 118.542 58.9918 118.171C58.8852 118.149 58.8902 118.107 58.9918 118.051L59.1118 117.211C59.0068 117.181 59.0101 117.141 59.1118 117.091H59.1101Z" fill="#D52B1E"/>
<path d="M73.6092 93.3552C74.0256 93.8883 74.2422 94.0582 74.9884 94.1465C78.0235 94.5113 81.1501 94.5513 84.2035 94.5463C84.37 94.5862 84.5116 94.6695 84.6315 94.7945L90.3901 103.238L90.5017 103.665L75.2466 103.79L69.8995 93.6484L69.8945 93.3552C70.0245 93.222 73.0545 93.4519 73.6092 93.3552Z" fill="#D94034"/>
<path d="M54.9199 77.2928C55.2164 77.1179 55.9244 76.7298 56.2342 76.8681C56.3658 76.9264 57.2253 78.0308 57.5668 78.3006C58.0915 78.7187 58.7945 79.1435 59.4741 79.2118V79.5683C56.6923 80.0947 53.5756 81.1008 51.0054 82.3051C49.0548 83.2196 48.5834 83.9542 48.3968 86.168C41.0124 88.675 34.6476 94.5302 31.0145 101.383C27.718 107.603 26.537 114.486 25.6324 121.412C25.3826 121.785 23.5969 121.008 23.1621 120.979L25.0844 111.096C27.9012 104.27 30.7047 96.1443 35.9852 90.7755C37.8658 88.8632 41.4456 86.9876 42.9364 84.9037C43.4145 84.2357 43.4111 83.3346 42.4583 83.2863C43.2862 82.5566 43.3712 83.0414 43.9792 83.3795C44.4689 83.6511 45.7965 84.394 46.2763 84.4206C47.5739 84.4939 47.4756 81.9836 47.3707 81.1274L47.6555 81.0092C49.5462 81.2973 52.0381 79.9048 53.6606 78.907C54.0804 78.6488 55.5163 77.7592 54.9199 77.2912V77.2928Z" fill="#242E5F"/>
<path d="M47.2486 87.2414L45.268 92.6318C41.5683 94.9922 38.0752 98.4837 35.5283 102.068C29.3616 110.749 28.8602 122.214 26.16 132.194C25.8285 132.264 25.9285 132.03 25.8835 131.817C24.4693 125.159 27.6392 118.325 28.1989 111.756C28.5254 107.92 31.2389 102.898 33.3495 99.708L33.4694 99.5881C33.4877 99.5614 33.4511 99.4948 33.4694 99.4681L33.5893 99.3482C33.6276 99.2966 33.6793 99.2666 33.7093 99.2283L33.9491 98.8684C33.9808 98.8218 34.0341 98.7902 34.0691 98.7485C35.0452 97.4692 36.043 96.2299 37.0641 95.0322C37.3839 94.6974 37.6904 94.3959 38.0219 94.0727L38.3817 93.7129C40.0142 92.1654 41.7233 90.5096 43.6922 89.3769C44.3618 88.9921 45.5295 88.6207 46.0809 88.2026C46.564 87.8361 46.4041 87.5796 47.2469 87.2397L47.2486 87.2414Z" fill="#DD554B"/>
<path d="M85.1134 93.3555L96.9736 93.4171C98.796 95.7925 100.607 98.1928 102.346 100.63C102.641 101.043 104.193 103.09 104.173 103.363L103.967 103.647L92.0646 103.603C89.8125 100.485 87.647 97.3033 85.4715 94.1317C85.3682 93.9818 85.3799 93.7769 85.115 93.8352C84.7835 93.7419 84.7752 93.4454 85.115 93.3555H85.1134Z" fill="white"/>
<path d="M108.832 43.8474C108.97 43.7108 112.197 44.2755 112.688 44.3654C115.463 44.8752 121.662 46.3743 123.331 48.7031C124.818 50.7803 120.659 52.8075 119.218 53.4588C116.285 54.7864 112.915 55.6293 109.75 56.184L108.834 43.849L108.832 43.8474Z" fill="#371D0E"/>
<path d="M99.3683 93.3551C99.385 93.3651 99.3733 93.5816 99.5549 93.7032C100.245 94.1646 106.12 94.3029 107.456 94.4345C108.68 94.5544 109.933 94.7193 111.144 94.9409C113.279 97.3363 115.508 99.735 117.459 102.289C117.772 102.698 117.877 103.183 118.18 103.545L105.738 103.526L98.7903 93.8748L98.6504 93.3567C98.8103 93.3901 99.2934 93.3068 99.3683 93.3567V93.3551Z" fill="#DD554B"/>
<path d="M58.1517 46.4852C58.0018 48.0444 57.9752 49.6518 58.0268 51.2243C58.1051 53.618 58.8231 56.5514 58.7564 58.7752C58.7281 59.7097 57.9768 61.9901 56.7825 60.8607C56.3227 60.426 55.5781 58.8435 55.1334 58.1955C53.5992 55.9534 52.5431 54.6774 49.5864 54.8773C49.1166 54.909 47.1827 55.4287 47.0044 55.3038C46.5947 54.1594 46.1066 53.0233 45.7801 51.8506C45.6452 51.3676 45.1438 49.8434 45.3887 49.4752C45.6952 49.0138 54.8552 47.0549 56.1145 46.7817C56.7841 46.6368 57.4655 46.4602 58.1534 46.4835L58.1517 46.4852Z" fill="black"/>
<path d="M117.702 104.743C118.516 104.82 120.256 104.4 120.256 104.4L121.573 104.713C121.573 104.713 121.307 107.268 121.302 108.155C121.258 117.918 120.967 127.701 119.857 137.407C119.614 139.529 119.114 141.661 118.901 143.762C118.823 144.525 119.223 146.324 118.117 146.344C117.627 146.352 117.515 146.152 117.342 145.738L118.302 125.9C118.791 119.383 119.133 112.839 119.379 106.299C117.081 106.311 114.784 105.806 112.495 105.696C111.384 105.643 110.133 105.678 109.01 105.696C108.014 105.713 107.044 106.101 106.08 105.461C106.088 105.383 106.073 105.299 106.08 105.221C106.123 105.081 106.215 104.945 106.32 104.861C106.473 104.718 106.453 104.462 106.635 104.397C106.773 104.348 107.717 104.26 107.932 104.257C111.162 104.2 114.464 104.67 117.704 104.741L117.702 104.743Z" fill="#DD554B"/>
<path d="M135.676 140.706C133.785 139.923 131.791 139.257 129.743 139.03C128.578 138.9 127.695 139.447 127.53 137.768C127.187 134.311 127.074 130.786 126.298 127.373C125.87 125.494 124.92 124.178 122.81 124.417C122.192 124.487 121.675 124.868 121.061 124.883L122.138 111.697C122.455 113.051 123.141 116.554 123.607 117.599C124.036 118.558 125.1 119.879 125.675 120.925C127.079 123.48 128.27 126.244 129.624 128.842C131.613 132.659 134.22 136.688 135.678 140.708L135.676 140.706Z" fill="#D52B1E"/>
<path d="M44.2408 49.9737C44.4058 50.7699 44.5607 51.5778 44.7922 52.359C45.0238 53.1403 45.9716 55.3608 45.815 55.9954C45.7967 56.0687 44.7739 56.6201 44.5557 56.7966C42.9849 58.0643 41.9621 59.7967 41.7289 61.8189C39.047 61.3875 34.9825 60.5696 32.927 58.7139C29.154 55.3075 36.4134 52.7688 38.7422 51.8193C40.0881 51.2713 42.0853 50.3818 43.4346 50.042C43.7011 49.9753 43.9643 49.9104 44.2408 49.972V49.9737Z" fill="#371D0E"/>
<path d="M97.4449 136.636C97.6315 136.762 98.4477 139.204 99.094 139.373C99.7404 139.541 100.78 137.29 101.051 136.756C101.24 136.721 101.324 136.741 101.464 136.872C101.743 137.134 102.491 138.861 102.362 139.328L101.593 145.871L89.9023 146.102L90.4104 139.478C90.5054 139.008 92.1461 136.466 92.3777 136.404C92.4859 136.364 92.5659 136.389 92.6592 136.448C92.9907 136.657 93.9018 138.613 94.3366 139.088C95.6509 140.524 96.4088 137.547 97.0318 136.751C97.1001 136.626 97.365 136.581 97.4449 136.634V136.636Z" fill="white"/>
<path d="M110.873 192.732C110.455 192.509 110.216 191.553 110.168 191.1C109.46 184.452 108.832 177.801 108.711 171.091C108.654 168.004 108.522 164.856 108.471 161.753C108.464 161.333 108.444 160.84 108.479 160.43C108.504 160.123 108.719 158.909 108.837 158.689C108.857 158.653 109.485 158.251 109.525 158.241C110.098 158.106 110.701 158.22 110.939 158.803C111.018 160.788 111.351 162.765 111.471 164.744C111.749 169.318 111.444 173.951 111.712 178.527C111.911 181.918 112.412 185.326 112.549 188.718C112.577 189.416 112.662 191.713 112.459 192.221C112.237 192.774 111.362 192.994 110.873 192.732Z" fill="#DD554B"/>
<path d="M104.881 104.861L104.281 111.934C103.8 112.067 103.88 111.481 103.478 111.359C102.252 110.989 101.941 112.847 101.416 113.539C101.33 113.654 101.225 113.648 101.116 113.603C100.662 113.415 100.382 110.909 99.3391 111.112C98.6894 111.239 97.4151 113.981 96.912 113.979C96.7421 113.979 96.7122 113.889 96.6289 113.778C96.1558 113.146 95.6661 111.057 94.8648 110.978C93.9503 110.886 92.3112 113.514 91.9414 113.133L92.1213 105.102C92.1546 105.049 92.4461 104.863 92.4811 104.863H104.883L104.881 104.861Z" fill="white"/>
<path d="M58.0331 123.923C58.4112 123.991 58.2363 123.736 58.2746 123.512C58.4212 122.655 58.5794 121.794 58.6311 120.926H65.8205L65.3991 127.398C63.3902 129.392 61.1047 131.091 58.9892 132.973C57.6716 134.146 57.5767 134.795 55.5627 135.06C55.3678 135.085 54.8565 135.195 54.9148 134.892C54.9564 134.677 55.2962 134.237 55.4162 133.954C56.379 131.685 56.9137 129.64 57.5517 127.281C57.5533 126.47 57.63 125.657 57.7782 124.844L58.0314 124.644C58.118 124.523 58.1197 124.408 58.0314 124.284C57.7082 124.175 57.7066 124.036 58.0314 123.925L58.0331 123.923Z" fill="#F7F0EF"/>
<path d="M44.3753 96.8315C44.9833 97.0697 45.3198 97.831 45.6363 98.3874C46.3742 99.6833 47.5086 101.892 47.8501 103.305L47.97 103.545C47.9767 103.583 47.9667 103.625 47.97 103.665C48.1266 104.158 48.3515 105.382 47.6102 105.104C47.4936 105.147 47.2021 105.02 47.1321 105.164C49.3509 109.042 50.5436 113.562 51.6747 117.88C52.346 120.442 53.2555 123.564 53.5853 126.157C53.8501 128.233 53.6652 130.562 53.8418 132.734C53.9184 133.688 54.5698 135.527 53.1738 135.785C52.9273 135.83 52.6091 135.744 52.4026 135.792C51.6097 135.058 51.4231 134.263 51.3265 133.214C51.0417 130.17 51.1766 127.128 50.6885 124.142C49.8823 119.208 48.533 113.617 47.0438 108.848C46.7823 108.009 45.6579 105.415 45.6829 104.804C45.6946 104.531 45.7479 104.381 46.0527 104.386C46.0327 103.901 46.709 104.394 46.644 104.421C46.6257 104.429 46.3092 104.221 46.5308 104.146C45.9028 102.622 44.3203 99.1186 44.0438 97.7044C43.8622 96.7816 44.2487 97.0148 44.3753 96.8332V96.8315Z" fill="#DD554B"/>
<path d="M93.9776 72.738H94.6956C94.639 75.2599 93.851 77.6753 91.8754 79.3261C90.6911 80.3172 88.9537 81.2234 87.3995 81.2334C86.3518 77.7986 82.0458 76.6725 78.8359 77.1889C78.4227 77.2555 77.1784 77.692 76.9668 77.597C75.6242 76.1711 74.913 74.3971 74.8047 72.4381C74.853 72.08 75.7975 73.1094 75.9457 73.2144C79.4072 75.7097 87.8543 76.4759 91.7922 75.0467C92.8049 74.6786 94.0743 73.984 93.9776 72.738Z" fill="black"/>
<path d="M59.1119 117.091C59.1069 117.131 59.1169 117.171 59.1119 117.211L58.992 118.051C58.992 118.091 58.9936 118.131 58.992 118.171C58.7538 118.604 58.7354 119.105 58.5372 119.573C58.4623 119.75 58.1524 119.998 58.1524 120.028V122.305C58.1524 122.697 58.0575 123.436 58.0325 123.923C58.0258 124.043 58.0391 124.162 58.0325 124.282C58.1291 124.387 58.1191 124.532 58.0325 124.642C57.9625 125.813 57.8293 126.26 57.5527 127.279C57.4561 127.059 57.3878 126.824 57.3462 126.586C57.2179 125.863 57.0913 124.765 57.073 124.043C57.0164 121.69 57.4928 119.238 57.671 116.91C58.1341 110.873 58.1791 104.828 58.5089 98.8078C58.6721 95.8178 58.7171 94.5968 59.7066 91.735C59.9015 91.172 60.5961 89.9027 60.6677 89.5195L61.334 89.6311C61.6972 90.1442 60.4179 95.348 60.3096 96.4141C60.0581 98.8795 60.1996 101.38 60.073 103.848C59.8981 107.238 59.47 110.64 59.2302 114.035C59.1585 115.047 59.1186 116.075 59.1086 117.09L59.1119 117.091Z" fill="#717171"/>
<path d="M58.5103 80.7681C58.5453 81.0846 58.4237 81.1828 58.1922 81.3494C55.9717 82.9419 51.5874 82.9019 51.2009 86.4616C50.9211 89.0402 51.4075 92.1069 51.206 94.7388L50.6013 103.664C50.3681 104.204 50.498 105.473 50.1748 105.934C50.0866 106.059 50.0382 106.088 49.8833 106.061C49.5535 102.938 49.9866 99.7878 49.8883 96.6461C49.7717 92.9531 49.0821 89.3534 49.7634 85.6821C49.9133 85.0374 50.0832 84.4294 50.483 83.8847C52.0588 82.0357 53.6563 81.5077 55.9684 80.9213C57.1211 80.6298 57.3993 80.4249 58.5103 80.7681Z" fill="#717171"/>
<path d="M71.8131 131.596C70.8636 133.545 69.8259 135.497 68.938 137.469C68.913 137.851 69.033 138.33 69.2978 138.908C69.6443 140.687 70.4006 141.634 71.335 143.224C71.5583 143.604 71.6299 144.044 71.8814 144.415C72.1213 144.769 74.1918 146.463 73.0458 146.801C72.5927 146.934 72.2179 146.578 71.8764 146.339C70.144 145.132 67.8952 142.323 66.8042 140.506C66.491 139.984 65.1601 137.509 65.2483 137.069C65.2567 137.028 65.7164 136.411 65.7547 136.383C65.9296 136.258 66.1362 136.316 66.2678 136.238C66.3661 136.178 66.3727 135.94 66.6526 135.845C67.0873 135.695 67.5005 135.813 67.8003 136.152C68.3417 135.165 68.8497 134.131 69.596 133.275C69.7859 133.057 71.1385 131.667 71.2684 131.592C71.445 131.489 71.6799 131.357 71.8148 131.599L71.8131 131.596Z" fill="black"/>
<path d="M29.2759 145.262C28.9444 145.241 28.6445 145.274 28.318 145.141C28.1598 144.245 29.6973 144.674 29.8639 144.531C30.0388 143.803 30.3953 142.204 30.8983 141.671C31.0866 141.471 31.418 141.444 31.6779 141.253C32.3909 140.725 32.9572 139.545 33.7734 138.914C34.1915 138.591 34.5813 138.268 34.8479 138.911C36.0422 138.08 38.7974 136.207 40.2433 136.385C40.4582 136.412 40.5264 136.599 40.5431 136.825C40.5631 137.107 40.195 136.87 40.2999 137.233C41.6442 136.95 43.0434 136.877 44.3977 137.15C44.974 137.267 45.9418 137.412 45.8103 138.193C45.4621 138.221 45.1373 138.036 44.7875 138.06C44.5626 138.075 44.6725 138.293 44.441 138.323C42.1756 138.609 40.7413 138.541 38.4109 139.241C35.2576 140.187 33.5669 140.851 32.0494 143.905C31.8561 144.294 31.3298 145.887 31.0766 146.049C30.9516 146.128 30.8483 146.11 30.7134 146.105C30.8317 145.499 30.5618 145.336 29.9938 145.266C29.9072 145.597 29.3458 145.62 29.2742 145.266L29.2759 145.262Z" fill="black"/>
<path d="M77.5638 93.1148C76.4161 92.177 75.3999 91.0726 74.2655 90.1214C73.2694 89.2869 69.0334 86.3568 68.7219 85.4773C68.4637 84.7477 69.8263 85.7571 70.0112 85.6272L73.6709 88.439L73.7308 87.9593L74.0107 87.9792C74.6237 88.2791 75.943 89.5634 76.486 89.7083C76.7758 89.7866 77.119 89.6067 77.4921 89.6433C78.0069 89.695 78.7398 90.1714 79.2095 90.2097C79.5144 90.2347 79.8342 90.0898 80.2456 90.1281C81.6615 90.258 82.4495 90.941 84.2035 90.826C84.6599 90.7961 85.3795 90.3096 85.6577 91.1892C85.9426 92.092 85.2346 92.5201 84.6333 92.9932C84.535 93.3363 83.5155 93.348 83.4356 92.9932L82.4078 92.9033C81.1851 93.1315 80.114 92.9249 78.9697 92.4418C79.0063 92.825 78.938 93.0881 78.7631 93.2331C78.6482 93.6345 77.7054 93.4646 77.5654 93.1131L77.5638 93.1148Z" fill="black"/>
<path d="M93.2596 72.8552C93.4112 73.8663 92.1468 74.356 91.3423 74.5942C87.4927 75.7319 80.3066 74.6925 76.7635 72.7552C76.1722 72.4321 75.1744 71.9457 75.286 71.1777C76.6436 71.4026 77.9662 71.8424 79.3371 72.0989C83.0834 72.8002 86.993 73.08 90.8059 72.9801C91.5772 72.9601 92.4417 72.7419 93.2579 72.8552H93.2596Z" fill="white"/>
<path d="M96.8917 56.9557C97.5946 56.3244 98.5225 56.2927 99.287 56.8141C101.311 58.195 100.941 63.5771 98.3176 63.9602C95.4575 64.3783 95.0527 58.6065 96.8917 56.9557Z" fill="black"/>
<path d="M73.6954 56.7024C77.8498 55.9329 77.6116 64.7514 73.5738 63.8419C71.235 63.3139 71.0868 57.1872 73.6954 56.7024Z" fill="black"/>
<path d="M46.17 83.0457C45.6919 83.0707 44.7857 82.6726 44.7258 82.1546C44.5276 80.4755 44.944 77.567 45.9518 76.1745C46.6531 75.205 50.6392 72.15 51.7386 72.015C52.0318 71.9801 53.6793 71.9784 53.8408 72.075C54.0157 72.1816 54.3556 73.0895 54.0807 73.2777C51.9802 74.4471 49.4482 75.5298 47.6725 77.1756C45.9651 78.7597 46.2966 80.8886 46.1717 83.0457H46.17Z" fill="#404040"/>
<path d="M97.333 87.7217L97.5279 87.9282C97.4929 89.2192 97.8311 90.6718 98.3758 91.8511L98.2925 92.1576C95.2208 92.0976 92.1375 92.2009 89.0658 92.1576L89.0625 90.5352C90.7566 90.2137 92.4273 89.7672 94.0398 89.1626C95.1709 88.7378 96.222 88.1464 97.333 87.7217Z" fill="#404040"/>
<path d="M88.827 104.982L90.7376 105.145L90.8642 105.462C90.8692 105.662 90.8609 105.862 90.8642 106.062C90.1846 106.24 89.4783 106.383 88.7737 106.426C85.3572 106.638 78.8108 106.666 75.5275 106.062C75.1977 106 74.7296 105.667 74.3298 105.702C74.0966 105.482 74.3315 105.212 74.3298 105.102C76.3388 104.616 78.4376 104.592 80.5048 104.617C83.2667 104.651 86.0502 104.932 88.827 104.982Z" fill="#DD554B"/>
<path d="M106.079 147.898C107.098 147.535 107.483 146.787 108.896 146.702C109.211 146.682 110.796 146.772 111.028 146.842C111.313 146.929 111.313 147.3 111.418 147.307C111.491 147.312 112.509 146.841 112.79 146.761C113.905 146.442 113.97 146.659 114.898 146.689C115.297 146.702 115.899 146.489 116.325 146.461C116.828 146.427 118.024 146.268 117.624 147.062C115.924 147.5 114.235 147.755 112.644 148.531C111.906 148.891 109.857 150.469 109.376 150.537C109.082 150.579 109.189 150.357 109.251 150.17C109.389 149.754 109.737 149.567 109.849 149.331C109.939 149.139 109.895 148.903 109.97 148.735C110.102 148.445 110.388 148.231 110.392 147.898C108.944 148.187 107.32 148.931 106.629 150.307C106.442 150.68 106.369 151.76 105.838 151.413C105.389 150.639 106.169 150.031 106.082 149.536C106.067 149.444 105.861 149.452 105.801 149.311C105.511 148.625 106.054 148.396 106.079 147.897C104.432 148.483 103.719 148.376 102.188 149.579C101.813 149.874 100.935 151.18 100.617 150.179C100.294 149.164 102.429 147.802 103.241 147.515C103.862 147.297 106.127 146.856 106.079 147.897V147.898Z" fill="black"/>
<path d="M29.9973 145.262C30.3321 146.955 30.9184 148.632 31.6747 150.176L31.9296 150.484C32.0711 152.3 32.5209 154.092 33.2039 155.78L33.1122 156.17C29.3943 154.028 27.7535 149.285 29.2777 145.261C29.5109 145.276 29.7724 145.234 29.9973 145.261V145.262Z" fill="#8F2C28"/>
<path d="M86.667 81.4876H84.0917C82.8207 81.4876 80.0272 80.19 78.9612 79.4271C77.6902 78.5176 77.0938 78.0162 79.1727 77.8846C81.9812 77.708 85.939 78.2494 86.667 81.486V81.4876Z" fill="#DD554B"/>
<path d="M54.9189 77.2929C55.925 77.4512 54.8855 78.2824 54.4958 78.6072C53.3147 79.5933 49.4002 81.5289 47.916 81.3607C47.7128 81.3374 47.5462 81.2175 47.3696 81.1292C47.3063 80.6194 46.8832 80.5945 47.3413 79.8399C47.3763 79.7832 47.7011 79.3501 47.7278 79.3301C47.891 78.9587 48.5157 78.4906 48.8055 78.8504C49.7933 78.4723 54.0843 77.1613 54.9155 77.2912L54.9189 77.2929Z" fill="#50587F"/>
<path d="M31.6711 150.176C31.6628 149.917 31.5429 148.772 32.0343 149.034C32.569 149.319 32.9804 152.965 33.4635 153.686C34.3613 154.158 34.7545 155.317 35.4408 155.935C35.8439 156.298 36.4252 156.323 36.6768 156.856C37.1415 157.842 36.4435 158.762 35.3875 158.567C35.2125 158.717 35.1459 158.643 35.2675 158.447C34.9893 158.312 34.8727 158.197 34.6928 158.099C34.5479 158.02 34.2997 158.09 34.1015 157.934C33.8933 157.769 33.2569 156.496 33.1104 156.17C32.3508 154.474 31.7378 152.03 31.6728 150.176H31.6711Z" fill="black"/>
<path d="M84.632 92.9948C84.6619 93.0114 84.5453 93.2913 85.1117 93.3546C85.1034 93.5128 85.1234 93.6761 85.1117 93.8343C85.075 94.3024 84.9085 94.4457 84.632 94.7938C83.7758 94.7638 82.9079 94.8321 82.0517 94.7988C79.9112 94.7138 77.3509 94.6639 75.242 94.419C74.6207 94.3474 73.4813 94.2224 73.6096 93.3546C73.6945 93.3396 73.8428 93.1414 74.0344 93.1097C74.2626 93.0731 74.131 93.3346 74.3808 93.3646C75.4169 93.4912 76.598 93.1297 77.5641 93.1147C77.844 93.1114 78.3304 93.2446 78.7618 93.2346L79.2965 92.9798C80.6791 92.9398 82.0584 92.9448 83.4343 92.9948C83.6192 92.9814 84.5803 92.9648 84.632 92.9948Z" fill="#DD554B"/>
<path d="M60.4291 78.1302C58.5351 78.2801 57.3641 76.4677 56.5328 75.0169C56.298 74.6071 54.987 72.0235 55.1602 71.7819C55.6467 71.8019 56.9809 70.9924 57.3191 71.2289C57.9304 72.6964 58.4235 74.2289 59.1264 75.6582C59.2797 75.9713 60.564 78.0019 60.4291 78.1302Z" fill="black"/>
<path d="M104.639 92.1549L100.68 92.0999C100.22 90.689 99.782 89.2614 99.3672 87.8389C100.023 88.1887 100.761 88.3636 101.408 88.7334C102.017 89.0832 103.875 90.694 104.278 91.2554C104.529 91.6052 104.548 92.0083 104.638 92.1532L104.639 92.1549Z" fill="#D52B1E"/>
<path d="M82.9539 148.619C83.0038 148.874 83.1321 149.094 83.0555 149.374C82.9972 149.587 82.7573 149.63 82.7156 149.697L81.6379 149.219C81.5629 149.292 82.3092 151.096 81.3497 151.008C81.0466 150.918 80.9066 149.665 80.6834 149.274C80.4602 148.882 79.6956 148.324 79.2475 148.193C78.6762 148.024 76.1342 147.868 75.9443 147.541C75.6495 147.033 76.1142 146.978 76.5457 146.942C78.5163 146.775 81.4963 147.186 82.9555 148.619H82.9539Z" fill="black"/>
<path d="M133.756 141.786C133.852 142.223 134.111 142.839 133.934 143.229C133.874 143.362 133.644 143.442 133.636 143.465C132.876 143.602 132.903 142.832 132.56 142.444C131.973 141.786 129.247 140.805 129.11 140.564C129.055 140.469 129.052 140.179 129.08 140.07C129.193 139.631 130.233 140.112 130.441 140.074C130.576 140.049 130.662 139.872 130.924 139.871C131.334 139.871 133.241 140.572 133.519 140.883C133.797 141.195 133.676 141.42 133.757 141.786H133.756Z" fill="black"/>
<path d="M98.2907 92.1565C97.8193 91.5051 97.666 90.6623 97.5078 89.8827C97.3695 89.2047 97.133 88.3685 97.3329 87.7205C97.776 87.5523 98.0142 87.2258 98.5339 87.7772C99.0986 88.3785 99.8665 91.1303 99.5217 91.8866C99.2318 92.5196 98.6455 92.1615 98.2924 92.1548L98.2907 92.1565Z" fill="#717171"/>
<path d="M35.2656 158.448C35.3322 158.48 35.3638 158.558 35.3855 158.568C36.0651 158.88 36.7548 159.24 37.5427 159.168C37.8258 159.449 36.6498 160.512 36.4066 160.729C36.1351 160.972 34.7159 162.161 34.431 161.921C34.1762 160.7 34.0046 159.461 34.0679 158.208L35.2656 158.448Z" fill="#404040"/>
<path d="M109.553 153.892C109.966 154.002 110.206 154.162 110.273 154.372C110.256 154.967 110.736 156.964 110.493 157.35C109.81 157.838 109.485 157.614 108.835 157.609C108.447 156.952 108.091 155.11 108.539 154.495C108.77 154.177 109.21 154.275 109.195 153.892C109.313 153.901 109.435 153.889 109.555 153.892H109.553Z" fill="white"/>
<path d="M97.6011 149.309C96.7515 148.449 99.0919 146.832 99.8449 146.638C100.481 146.475 102.134 146.463 102.347 147.261C102.512 147.879 101.411 147.503 100.986 147.541C100.468 147.588 99.7216 147.946 99.3101 148.261C98.877 148.592 98.1791 149.892 97.6027 149.31L97.6011 149.309Z" fill="black"/>
<path d="M86.1895 92.1556L86.3011 90.8896L87.8636 90.7197L87.9868 92.1556H86.1895Z" fill="#D52B1E"/>
<path d="M37.0634 95.0317C37.1084 95.3033 36.9768 95.3982 36.8285 95.5764C35.9473 96.6359 34.8846 97.7553 34.0684 98.7481C34.7447 97.2938 35.979 96.1695 37.0634 95.0317Z" fill="#D52B1E"/>
<path d="M47.9672 103.665C48.1804 103.961 48.7185 105.903 48.5652 106.062C48.1405 106.127 47.7557 105.457 47.6074 105.104C48.0055 104.959 48.0005 104.034 47.9672 103.665Z" fill="#D52B1E"/>
<path d="M49.7656 85.6826C49.9755 84.5482 49.694 84.8131 50.4852 83.8853L49.7656 85.6826Z" fill="#404040"/>
<path d="M88.8262 104.984C89.5041 104.996 90.1871 104.976 90.8634 104.984C90.8667 105.144 90.8601 105.304 90.8634 105.464C90.2754 104.939 89.4725 105.259 88.8262 104.984Z" fill="#D52B1E"/>
<path d="M109.553 153.892C109.831 153.9 110.112 153.885 110.391 153.892C110.462 154.068 110.274 154.282 110.271 154.37C110.023 154.233 109.469 154.207 109.551 153.89L109.553 153.892Z" fill="#F7F0EF"/>
<path d="M118.299 100.428C118.179 100.333 117.842 100.426 117.939 99.9482C118.069 100.083 118.322 100.126 118.299 100.428Z" fill="#DD554B"/>
<path d="M106.321 104.862V105.222H106.08C106.125 104.627 106.207 104.967 106.321 104.862Z" fill="#D52B1E"/>
<path d="M118.78 101.029L118.551 101.019L118.539 100.668C118.748 100.872 118.726 100.966 118.78 101.029Z" fill="#DD554B"/>
<path d="M33.9514 98.8691L33.938 99.2181L33.7109 99.2298C33.7343 99.2014 33.7076 99.0645 33.7744 98.9927L33.9514 98.8691Z" fill="#D52B1E"/>
<path d="M116.981 98.8684C116.798 98.7218 116.513 98.8418 116.622 98.3887C116.751 98.5336 116.938 98.6185 116.981 98.8684Z" fill="#DD554B"/>
<path d="M47.9718 103.544L47.8516 103.304C47.8616 103.342 47.9518 103.416 47.9718 103.544Z" fill="#D52B1E"/>
<path d="M116.025 97.6725C115.981 97.6357 115.938 97.5973 115.904 97.5522C115.938 97.5923 116.006 97.6307 116.025 97.6725Z" fill="#DD554B"/>
<path d="M116.14 97.9117C116.103 97.8717 116.06 97.8466 116.02 97.7915L116.14 97.9117Z" fill="#DD554B"/>
<path d="M117.46 99.3492L117.34 99.229C117.38 99.2691 117.42 99.3092 117.46 99.3492Z" fill="#DD554B"/>
<path d="M33.4688 99.4698C33.5055 99.4181 33.5623 99.3863 33.589 99.3496L33.4688 99.4698Z" fill="#D52B1E"/>
<path d="M117.583 99.5885L117.463 99.4683C117.503 99.5083 117.545 99.5467 117.583 99.5885Z" fill="#DD554B"/>
<path d="M33.3496 99.7091C33.3813 99.6607 33.4431 99.6289 33.4698 99.5889L33.3496 99.7091Z" fill="#D52B1E"/>
<path d="M119.259 101.506C119.214 101.473 119.177 101.426 119.139 101.386C119.172 101.429 119.226 101.461 119.259 101.506Z" fill="#DD554B"/>
<path d="M108.477 27.4237H108.357C106.909 26.9273 105.385 27.1038 103.883 27.0439C101.236 23.2509 95.9254 23.1426 92.0092 24.905C88.2113 22.7479 83.2906 22.8378 79.4194 24.7768C75.6997 23.066 71.2255 24.4153 68.1288 26.8057C64.8206 25.7646 61.0426 26.2843 58.1625 28.2132C57.8527 28.4215 56.635 29.5292 56.5068 29.5642C56.2186 29.6408 55.5773 29.3676 55.2141 29.3443C52.0458 29.1327 49.219 30.4937 46.9453 32.5759C46.6771 32.8207 45.6643 34.0251 45.5677 34.0751C45.3361 34.1967 44.7381 34.235 44.4 34.3466C44.0935 34.4465 42.4643 35.1045 42.3344 34.9779C42.4044 34.3516 42.2361 33.537 42.3344 32.939C42.3727 32.7091 42.9774 31.6847 43.139 31.1666C44.7431 26.0411 44.5615 21.0938 47.7998 16.5296C51.646 11.1075 57.9893 7.29789 63.6629 4.04965L63.6945 3.78812C64.8306 3.46996 65.9783 3.19678 67.1377 2.97023C72.8229 2.27394 82.3827 2.46884 87.6266 4.94916C88.2646 5.25066 88.8509 5.90531 89.5072 6.30343C90.4717 6.88811 91.6294 7.30289 92.6189 7.86425C95.6772 9.59831 100.46 12.7649 102.785 15.3152C104.218 16.886 105.587 18.8433 106.376 20.8339C107.216 22.9527 107.494 25.3381 108.475 27.4253L108.477 27.4237Z" fill="#5A321B"/>
<path d="M108.475 18.4336C108.185 18.4969 108.227 18.287 108.137 18.1188C106.088 14.2609 104.172 12.0004 100.509 9.56176C98.2457 8.05424 95.5354 6.26355 93.1001 5.10751C92.0607 4.61444 91.0212 4.21965 90.0234 3.68994C90.7814 3.86318 91.5776 4.17801 92.2989 4.47119C97.8059 6.70498 106.953 12.3019 108.475 18.4353V18.4336Z" fill="#5A321B"/>
<path d="M67.1404 2.96973L63.6656 4.04914L63.4258 3.57107C64.6518 3.26623 65.8944 3.12298 67.1404 2.97139V2.96973Z" fill="#EED3CA"/>
<path d="M108.595 18.9144C108.451 18.8159 108.495 18.6856 108.475 18.5537C108.652 18.6205 108.563 18.8092 108.595 18.9144Z" fill="#5A321B"/>
<path d="M76.1247 25.2664C76.4379 24.8683 77.5256 25.7661 77.8321 26.1076C78.2819 26.6107 78.525 27.227 78.6733 27.8766C78.7866 29.3109 79.1531 30.6168 79.7711 31.7945L79.7211 32.0993C79.6828 32.2076 79.7511 32.4408 79.7211 32.5791L72.5316 33.1788C71.7887 33.1987 71.5188 33.3836 71.0941 33.4186C70.8242 33.3287 70.5244 33.317 70.2545 33.4186C70.2145 33.4186 70.1746 33.4186 70.1346 33.4186C69.7365 33.4103 69.3334 33.4253 68.9352 33.4186C69.0302 31.9294 68.6271 30.4003 68.5721 28.9277C68.5255 27.6801 68.9103 27.5451 69.9314 26.9205C71.4389 25.9977 74.3706 24.9832 76.1247 25.2664Z" fill="#8F6852"/>
<path d="M104.28 28.2631C105.771 28.8794 107.736 28.7112 108.957 29.8756C109.643 30.5302 109.988 31.3531 110.51 32.0394C110.71 32.3009 111.306 32.7207 111.404 32.9422C111.694 33.5886 111.681 35.136 111.947 35.9356C110.663 35.2493 109.284 34.7612 107.853 34.4564C107.678 34.4198 107.39 34.2698 107.275 34.4981C106.522 34.2898 105.474 34.2399 104.878 33.8984C104.19 33.5036 104.611 33.3953 104.593 32.739C104.581 32.3042 104.553 31.7545 104.518 31.3214C104.48 30.8534 103.937 28.438 104.07 28.2864C104.118 28.2314 104.27 28.2764 104.28 28.2631Z" fill="#8F6852"/>
<path d="M103.565 33.8967C103.372 33.8834 103.225 33.7784 103.205 33.7768C103.185 33.6469 103.002 33.5902 102.965 33.5369C102.467 33.2487 102.174 32.7223 102.086 31.9561C101.798 29.2309 100.82 27.6751 98.2413 26.5957C96.7321 26.2925 95.1846 26.1326 93.5971 26.1176C93.2573 25.991 93.134 25.7561 93.4988 25.6262C93.5105 24.8516 95.2246 24.7583 95.8509 24.6834C98.4895 24.3635 100.458 24.9582 102.546 26.5857C103.58 27.3936 103.752 28.4163 103.908 29.6573C104.105 31.1965 104.101 32.4292 103.563 33.8984L103.565 33.8967Z" fill="#AD8F7E"/>
<path d="M71.0915 33.4191C70.8216 33.4424 70.5268 33.4174 70.252 33.4191C70.4035 33.2203 70.9399 33.2203 71.0915 33.4191Z" fill="#EED3CA"/>
<path d="M91.8211 32.4591L80.9087 32.5274L79.8359 25.951C79.8809 25.7727 80.9753 25.3496 81.2135 25.2647C81.7466 25.0748 82.791 24.725 83.3124 24.6683L83.5039 24.4118C85.9509 24.3335 89.9088 25.7427 90.9816 28.0815C91.423 29.0426 91.8361 31.0582 91.976 32.1393L91.8211 32.4591Z" fill="#8F6852"/>
<path d="M64.3823 27.4236C64.8471 27.3403 67.5806 27.5769 67.8038 27.8967L67.9771 33.6569L57.6293 35.3427C57.4894 35.3143 57.5727 35.1161 57.5544 35.0961C57.5077 34.8013 57.5677 34.4598 57.7343 34.0733C57.7126 31.8312 58.0524 31.1249 59.8065 29.7457C60.3362 29.3276 63.9859 27.0671 64.2657 27.2887C64.3124 27.3253 64.349 27.3736 64.384 27.4253L64.3823 27.4236Z" fill="#8F6852"/>
<path d="M93.4972 25.626V25.8625C95.038 26.1124 96.7471 25.8442 98.2346 26.3406C99.1558 26.6488 100.368 27.6116 101.103 28.2662C102.104 29.1591 102.008 32.1458 102.964 33.5384L94.1269 32.5506C93.7371 31.0047 93.882 29.3123 93.4622 27.7598C93.3356 27.2917 92.7643 26.3289 92.7676 26.0441C92.7709 25.7592 93.2873 25.6993 93.4972 25.6276V25.626Z" fill="#8F6852"/>
<path d="M53.8386 30.5432C54.6199 30.3 55.5344 30.4183 56.3023 30.6548L56.8254 35.5688C53.4938 36.3717 50.2006 37.3312 47.009 38.5755L46.8008 38.384C46.8741 37.3712 47.2822 35.4389 47.8919 34.641C48.4599 33.8997 53.199 30.1951 53.6837 30.43C53.7404 30.4566 53.7903 30.4982 53.8386 30.5449V30.5432Z" fill="#8F6852"/>
<path d="M91.8224 32.4609C91.4142 31.1632 91.321 29.3975 90.7663 28.1832C89.7601 25.9794 85.594 24.4202 83.3153 24.6701C82.4358 24.4402 82.7323 24.0704 83.4319 23.8872C86.1071 23.1859 91.1727 24.3736 92.6852 26.8639C93.2816 27.8467 93.8613 30.4336 93.7397 31.563C93.6097 32.784 92.8251 33.4553 91.8224 32.4609Z" fill="#AD8F7E"/>
<path d="M44.9734 35.3365C45.0384 35.3748 45.3316 35.3065 45.4532 35.3365C45.4149 36.5658 45.4499 37.7835 45.6981 38.9912C45.6731 39.2177 45.4648 39.2827 45.3316 39.4143C44.7802 39.9573 43.4593 40.3304 42.703 40.8002C41.7285 41.4032 40.9873 42.3427 39.9412 42.7708L39.7812 42.5126C39.8845 41.2133 40.1627 40.0073 40.6175 38.8912C41.8934 37.7102 43.2094 36.5608 44.5637 35.4431L44.9734 35.3398V35.3365Z" fill="#8F6852"/>
<path d="M44.9723 35.3364C43.9096 36.6057 42.3954 37.4419 41.201 38.5763C39.8784 39.8306 40.5597 41.2215 39.94 42.769C39.6835 43.4087 39.3853 43.3854 38.9822 43.7285C38.7823 43.442 38.5291 43.0489 38.5075 42.6957C38.4775 42.216 38.8073 40.8118 38.724 40.4569C38.689 40.3054 38.4325 40.1621 38.3542 39.9839C37.7995 38.7262 39.1255 37.9566 39.975 37.3503C40.6763 36.8489 43.8762 34.7634 44.5475 34.855C44.9606 34.9116 44.944 35.3214 44.974 35.3381L44.9723 35.3364Z" fill="#AD8F7E"/>
<path d="M64.3833 27.4246C63.8319 27.5229 61.5215 28.9071 60.9185 29.2936C59.9957 29.8849 58.5764 30.7828 58.2083 31.8572C57.8601 32.875 58.2932 34.2059 57.5536 35.0988C56.3193 33.8311 56.3626 31.1643 57.4337 29.765C58.22 28.7389 61.8497 27.0681 63.139 26.9632C63.5687 26.9282 64.3083 26.8399 64.3833 27.4279V27.4246Z" fill="#AD8F7E"/>
<path d="M46.0504 39.2928C45.8905 38.5565 46.117 37.8069 46.1687 37.074C46.2686 35.6681 45.9654 35.1167 46.9466 33.8973C47.8144 32.8196 51.9139 30.0994 53.2082 29.8495C53.7862 29.7379 54.4608 30.0877 53.8378 30.5425C52.7684 30.8757 48.6823 33.9806 47.971 34.9218C47.4446 35.6181 47.1948 37.612 47.0099 38.5748C46.9899 38.6764 46.8866 38.8064 46.8899 38.9346C46.7883 38.9996 46.6917 39.3277 46.4419 39.396C46.2486 39.4493 46.1054 39.2928 46.0504 39.2928Z" fill="#AD8F7E"/>
<path d="M79.7225 32.1C78.2483 30.5508 79.0862 27.4491 77.4354 26.0566C77.2105 25.8667 76.3843 25.3086 76.1278 25.267L76.1211 24.724C77.0872 24.6307 78.9779 25.3519 79.3843 26.2648C79.7724 27.136 80.1889 30.4725 80.049 31.4087C79.984 31.8451 79.7658 31.9734 79.7208 32.1H79.7225Z" fill="#AD8F7E"/>
<path d="M46.5301 104.144C46.5801 104.266 46.7949 104.389 46.7117 104.5C46.5584 104.305 46.1719 104.435 46.052 104.384C46.007 104.365 45.6589 103.666 45.5723 103.546L46.5301 104.144Z" fill="#EED3CA"/>
<path d="M69.294 138.909L68.7109 137.86L68.7509 137.595C68.7826 137.522 68.9241 137.495 68.9341 137.47C69.1823 137.887 69.2023 138.44 69.294 138.909Z" fill="#EED3CA"/>
<path d="M58.9917 118.051C58.9984 117.786 58.8999 117.376 59.112 117.211C59.0819 117.475 59.2205 117.881 58.9917 118.051Z" fill="#EED3CA"/>
<path d="M58.0312 124.645C58.0379 124.525 58.0245 124.404 58.0312 124.284C58.2116 124.301 58.2116 124.628 58.0312 124.645Z" fill="#EED3CA"/>
<path d="M83.4361 92.9942C81.8403 93.1058 80.4161 93.1941 78.7637 93.2341L78.6504 92.4429L78.8353 92.1597C79.5982 92.3396 80.4544 92.791 81.234 92.8626C81.717 92.9076 82.0469 92.7294 82.4167 92.746C82.7865 92.7627 83.0547 93.0742 83.4361 92.9942Z" fill="#EED3CA"/>
<path d="M110.574 147.78C110.653 147.82 110.653 147.86 110.574 147.9V147.78Z" fill="#EED3CA"/>
<path d="M26.2709 299.323C24.1487 299.273 21.3436 299.053 19.2714 298.474C17.6939 298.032 16.3896 297.504 16.208 295.665C15.615 289.677 19.4313 286.828 22.5363 282.457C24.5685 279.595 26.3425 276.159 28.3814 273.44C28.9611 272.668 29.7324 272.493 30.1038 272.046C30.4353 271.648 30.6236 268.077 30.7218 267.269C31.9828 256.863 33.8751 246.567 35.391 236.202L35.311 236.011C33.7852 235.428 31.4181 235.244 30.0239 234.49C28.7662 233.81 29.3026 233.164 29.3876 232.126C29.7724 227.469 30.4587 222.741 31.2066 218.122C31.8879 213.919 33.3704 208.995 33.6869 204.899C33.8552 202.73 33.4504 200.507 33.5836 198.323C33.6819 196.729 34.0984 195.189 34.6614 193.707C32.8723 193.457 32.5808 192.974 32.6258 191.25C32.6941 188.686 33.1922 185.923 33.3421 183.336C33.3588 183.046 33.3671 182.743 33.3238 182.456C32.8257 182.43 32.6375 181.968 32.356 181.81C31.643 181.409 30.6635 181.149 29.9073 180.781C26.6807 179.213 19.4713 176.185 17.7905 173.123C16.5978 170.949 17.2641 168.224 17.2675 165.852C14.7588 164.248 13.6444 162.95 13.228 159.944C12.2602 152.951 13.9776 145.603 15.1353 138.733C15.117 138.109 13.4928 137.614 13.183 136.851C12.7916 135.887 13.3846 134.063 13.6594 133.073C14.4723 130.146 17.4657 122.522 20.1559 121.111C20.6373 120.858 21.5901 120.855 21.7567 120.547C22.7978 114.891 24.0355 109.306 25.7629 103.824C27.1305 99.4813 28.678 95.2386 31.2566 91.459C34.2266 87.1047 38.6076 83.9597 43.1784 81.4477C43.3883 79.8986 43.4799 78.3161 44.0696 76.8252C45.0308 74.3949 47.4878 73.1456 49.5183 71.728C45.6288 70.5986 42.1557 67.452 41.5893 63.2992C37.9513 62.523 31.8379 61.3836 30.4087 57.4008C29.5708 55.067 31.2099 52.0936 32.5742 50.2197C34.0167 48.2374 35.904 46.4617 37.7097 44.8092C38.0729 44.2579 37.6764 43.2501 37.6514 42.6021C37.6115 41.5577 37.5182 39.3722 37.8397 38.4643C38.3011 37.16 39.8752 36.4554 40.873 35.6259C40.848 30.7585 40.9413 25.8379 42.0291 21.0771C44.3045 11.1142 58.0354 4.03298 67.1338 1.59764C72.8091 0.0784591 78.7292 -0.577852 84.5311 0.616501C93.2697 2.41386 106.542 8.79041 109.704 17.7506C110.868 21.0504 111.287 24.95 111.466 28.4281C114.803 30.3737 114.656 34.1833 114.73 37.5998C118.215 40.2784 123.796 43.7831 124.929 48.314C125.784 51.7322 122.196 53.6211 119.577 54.7888C116.505 56.1598 113.197 56.926 109.926 57.6606L110.036 69.9373C109.438 76.4288 105.725 82.0857 100.567 85.877C101.615 86.3318 102.718 86.6416 103.761 87.1147C105.904 88.0875 108.232 89.6266 109.976 91.2058C110.167 91.379 110.357 91.7971 110.509 91.8721C111.058 92.142 112.494 91.6805 113.141 92.2352L122.489 103.263C123.282 104.557 122.402 106.224 122.665 107.642C126.755 114.823 130.579 122.172 134.098 129.652C135.397 132.413 138.817 139.799 138.775 142.568C138.75 144.232 136.611 146.038 135.304 146.887C134.967 147.106 134.194 147.359 133.991 147.612C133.674 148.005 133.055 150.515 132.737 151.272C131.667 153.8 129.585 156.024 127.168 157.33C122.929 159.62 118.038 157.635 114.023 155.851C113.387 155.568 112.361 154.928 111.765 154.753C111.501 154.676 111.573 154.995 111.585 155.173C111.7 156.965 112.045 158.866 112.188 160.685C113.004 171.061 113.302 181.454 113.382 191.858C113.384 192.106 113.51 192.341 113.5 192.564C113.485 192.896 113.156 193.226 113.171 193.394C113.182 193.534 114.37 195.348 114.57 195.827C115.564 198.206 115.306 200.4 115.579 202.85C115.982 206.467 117.32 211.381 118.1 215.075C119.296 220.741 120.648 226.374 121.888 232.031C122.057 234.028 118.714 234.751 118.673 235.483C120.127 243.343 120.918 251.314 122.157 259.208C122.722 262.808 123.303 267.076 124.233 270.559C124.321 270.89 124.345 271.248 124.591 271.518C125.182 272.168 126.187 272.641 126.866 273.197C130.081 275.833 132.991 278.831 136.035 281.648C138.249 283.697 141.462 285.711 142.598 288.627C143.484 290.903 143.319 293.5 143.572 295.9C143.331 298.317 140.028 298.657 138.134 298.848C129.682 299.708 120.208 298.429 111.975 296.49C109.444 295.893 105.503 295.074 103.243 293.956C101.362 293.027 101.857 291.436 101.772 289.673C101.572 285.524 101.487 281.236 102.022 277.105C102.223 275.554 102.368 273.455 104.026 272.817L104.045 272.544L95.7516 240.783L95.6017 240.62C93.1381 240.973 90.6577 241.206 88.1974 241.578C87.8276 241.634 87.3812 241.879 87.073 241.901C86.6599 241.929 85.6771 241.761 85.4022 241.433C82.4438 234.883 79.7686 228.215 77.1417 221.525C75.7508 223.999 74.2749 226.449 72.9457 228.956C71.05 232.534 69.3843 236.6 67.1871 239.979C66.5958 240.886 66.231 241.599 65.0349 241.553C63.3775 241.488 61.3386 241.226 59.6479 241.066C59.1465 241.018 57.5773 240.613 57.2658 240.722C57.1692 240.755 57.1159 240.813 57.0926 240.911L48.8071 274.593L48.8537 274.88C51.3823 275.649 51.0308 278.583 51.0742 280.695C51.1508 284.494 51.2024 289.149 50.4445 292.883C50.073 294.719 50.1763 295.204 48.4039 295.997C43.385 298.244 33.9268 299.246 28.4314 299.331C27.7168 299.343 26.9889 299.348 26.2743 299.331L26.2709 299.323ZM110.027 27.6669C109.681 24.6735 109.306 21.4802 108.353 18.6134C105.243 9.26515 90.3229 2.66872 81.1945 1.6676C69.6941 0.406614 51.1774 7.3995 45.0324 17.6073C43.8148 19.6312 43.4133 21.2253 43.0652 23.5508C42.5088 27.2704 42.4172 31.1 42.4472 34.8596C43.0119 34.6364 43.5782 34.4282 44.1529 34.23C44.5127 34.105 45.0341 34.09 45.3173 33.9551C45.7337 33.7552 47.3229 31.9495 47.9692 31.4531C50.4895 29.5192 53.3413 28.8862 56.4996 29.326C58.7583 27.0605 62.3397 25.8712 65.518 26.1044C66.1094 26.1477 67.7785 26.6657 68.1216 26.5675C68.3332 26.5075 69.5225 25.583 69.9273 25.3698C71.8496 24.3503 74.5848 23.6457 76.7619 23.8473C77.5065 23.9156 79.029 24.5419 79.4138 24.5419C79.6137 24.5419 80.5249 24.0555 80.8497 23.9489C84.6477 22.6929 88.5089 22.8678 92.1036 24.6651C96.0865 22.9377 101.289 23.136 104.032 26.8806C106.069 26.6591 108.088 27.1005 110.029 27.6652L110.027 27.6669ZM92.7733 32.3427C92.4484 30.9368 92.8316 27.2271 91.6905 26.2926C89.9548 24.8734 86.0136 24.5236 83.8614 24.8051C83.1718 24.895 80.2983 25.543 80.0052 26.111L81.0229 32.291L92.7749 32.3427H92.7733ZM103.318 33.4221C102.951 31.16 103.727 28.3015 101.75 26.6591C99.398 24.7051 95.5851 24.9417 92.8932 25.9911C93.0448 26.4342 93.3363 26.7857 93.4962 27.2438C94.0542 28.8362 93.9776 30.7952 94.2108 32.4643L103.318 33.4221ZM78.8458 26.0177C75.4876 24.5719 71.4032 25.8195 68.7346 28.0816L69.1677 33.3038L79.4738 32.4643L78.8458 26.0177ZM57.7855 35.2211L67.7368 33.4854L67.5569 28.02C64.7601 27.0222 60.9855 27.7835 58.6334 29.5358C58.3802 29.7241 57.4724 30.4953 57.4291 30.7285C57.3391 31.2066 57.5856 35.0778 57.7872 35.2228L57.7855 35.2211ZM113.144 36.5387V34.0817C113.144 30.6719 110.057 28.9795 107.061 28.5397C106.737 28.4931 104.152 28.2365 104.154 28.5714C104.604 30.1838 104.943 32.0045 104.637 33.6603C107.597 34.1433 110.707 34.6797 113.144 36.5387ZM56.2131 30.7968C52.3385 30.0006 48.9386 32.0761 46.5449 34.9446L46.6416 38.576C49.8648 37.1734 53.278 36.2306 56.7061 35.4576C56.3013 33.9401 56.1981 32.361 56.2131 30.7968ZM122.251 46.1285C121.834 45.6271 121.389 44.9625 120.938 44.5061C118.723 42.2706 113.304 38.0562 110.514 36.7136C106.424 34.743 97.594 34.245 92.9548 34.0201C80.2634 33.4054 65.4947 34.4265 53.2313 37.918C45.5355 40.1085 40.0601 43.6549 34.9013 49.7899C34.5814 50.1713 32.2493 53.1581 32.5025 53.4429C33.9651 52.2419 35.7691 51.5523 37.5048 50.836C52.1936 44.7676 71.8246 42.0174 87.686 41.5793C96.298 41.3428 107.475 41.4511 115.806 43.6465C118.048 44.2379 120.17 45.1274 122.251 46.1285ZM45.2023 35.461C45.0607 35.3127 42.7803 36.3305 42.4622 36.4937C41.7759 36.8452 39.9152 37.9879 39.5187 38.5826C38.8924 39.5188 39.2805 42.219 39.3339 43.3717C41.3411 41.8059 43.1085 40.0518 45.5122 39.0574C45.3406 37.8647 45.124 36.6753 45.2023 35.4593V35.461ZM107.375 43.8681C104.347 43.4167 101.275 43.3767 98.2253 43.2518C85.4022 42.722 72.5675 43.6432 59.9877 46.2385C59.288 46.5433 59.3264 48.8221 59.3347 49.5533C59.3513 50.9493 59.4729 52.6966 59.5812 54.1026C59.7611 56.4396 60.8705 59.5996 59.1615 61.5985C58.3069 62.598 56.7528 62.8428 55.8116 61.83C55.0637 61.0238 54.3107 59.2131 53.5661 58.2037C53.0714 57.5324 52.1069 56.288 51.2341 56.2464C46.51 56.0149 41.9857 58.9749 43.3717 64.2071C44.611 68.8845 50.5528 71.4182 55.0303 70.4137C56.7228 70.0339 57.9754 68.7796 59.7012 68.7246C59.8194 68.7213 60.0243 68.6597 60.0593 68.8546C60.1442 69.3226 58.9232 70.2688 58.5218 70.492C58.3652 70.7569 59.4746 73.3371 59.6778 73.7869C60.4308 75.4527 61.3852 76.9802 62.4047 78.491C62.7845 79.054 64.3153 80.8347 64.3403 81.3378C64.3486 81.5044 64.2121 81.8042 64.0538 81.8509L63.1143 81.3761C62.8211 81.3611 62.9494 84.4345 62.9377 84.7993C62.8595 87.3062 62.4797 88.6189 63.5108 91.0492C64.3536 93.0348 65.6246 94.8938 67.0672 96.4813C67.352 96.4846 67.2288 95.137 67.2487 94.8671C67.2837 94.3691 67.3237 93.2997 67.447 92.9065C67.5702 92.5101 68.0383 92.0753 68.4381 91.9804L84.8609 91.9271L84.9808 91.0892C79.3389 91.3107 73.4004 89.565 68.9345 86.1036C68.4314 85.7138 66.8956 84.4311 66.6457 83.9581C66.5691 83.8131 66.4825 83.7315 66.5291 83.5366C69.1527 84.0813 71.13 85.972 73.4337 87.118C84.9392 92.8416 101.144 88.1525 106.692 76.3039C109.163 71.0301 108.533 66.4109 108.343 60.8222C108.193 56.4213 108.097 52.022 107.748 47.6311C107.649 46.3784 107.427 45.1274 107.374 43.8698L107.375 43.8681ZM109.789 56.0798C113.261 55.2752 116.864 54.4973 120.055 52.8649C121.391 52.1819 124.521 50.4212 123.019 48.6588C121.348 46.6999 116.722 45.4256 114.225 44.8692C112.484 44.4811 110.715 44.2329 108.953 43.9714L109.792 56.0781L109.789 56.0798ZM58.0237 46.6099C53.816 47.5628 49.525 48.2957 45.4339 49.6799L47.1213 55.2419C48.4156 54.7938 49.9947 54.6089 51.3607 54.7755C53.0781 54.9854 54.4607 56.8661 55.3652 58.2003C55.6833 58.6701 56.7311 60.659 57.0659 60.8139C58.6001 61.5202 58.5534 58.3652 58.5018 57.5807C58.3369 55.1053 57.8388 52.5784 57.7789 50.0314C57.7522 48.8887 57.7456 47.7227 58.0237 46.6116V46.6099ZM44.1229 50.0847C42.2739 50.6611 40.4066 51.324 38.6109 52.0636C36.8769 52.7783 33.6019 54.0326 32.5009 55.5401C31.0167 57.574 33.5153 59.1082 35.1411 59.8511C37.1867 60.7873 39.4205 61.2337 41.606 61.7134C41.7742 59.0782 43.5233 57.0926 45.6688 55.7583L44.1229 50.0847ZM60.1809 78.0179L58.4835 74.743L57.1842 71.3049L55.3935 71.9129C55.1503 72.2511 57.1475 75.7658 57.5473 76.2789C58.2036 77.1218 59.0532 77.9346 60.1809 78.0196V78.0179ZM46.0419 82.9336V80.7165C46.0419 77.6231 48.1891 76.3255 50.5594 74.9263C51.7055 74.25 52.9315 73.7169 54.0742 73.039L53.6344 72.1345C53.0548 72.386 52.5883 72.1528 52.0869 72.1395C51.1141 72.1128 46.8031 75.2927 46.1618 76.1606C44.9991 77.7348 44.7509 80.4383 44.9025 82.3356L46.0419 82.9336ZM47.9592 78.9774C49.52 78.2845 50.9925 77.3783 52.5517 76.6803C53.0548 76.4554 54.9154 75.8908 55.152 75.6825C55.4168 75.4493 54.8554 74.6897 54.6689 74.4749L54.429 74.4715C52.2185 75.7891 49.49 76.8469 47.9592 78.9774ZM59.2214 79.3389C57.8955 79.0457 56.8993 78.1712 56.1464 77.0718C54.3091 77.5065 52.5317 78.3128 50.8326 79.154C50.3729 79.3822 47.8975 80.6282 47.7243 80.8397C47.058 81.646 48.2873 83.6965 46.8065 84.4761C45.8703 84.9692 43.953 83.5833 43.1285 83.0685C39.1923 85.4956 35.3727 88.2374 32.7141 92.0787C28.3748 98.3469 25.7812 108.287 24.2703 115.759C23.9339 117.422 23.7539 119.141 23.2809 120.758L23.3925 120.876C23.7306 120.906 25.2615 121.488 25.4447 121.226C25.9944 117.726 26.4508 114.19 27.287 110.745C29.0894 103.321 32.879 96.3463 38.7958 91.449C41.5477 89.1702 44.7926 87.113 48.2024 85.9953C48.4689 84.601 48.5322 83.5233 49.8132 82.6904C51.2124 81.7809 53.208 81.3728 54.7272 80.6532L59.2214 79.3389ZM61.1987 80.8964H58.9216C58.2819 80.8964 55.3252 82.0624 54.5173 82.3656C53.6611 82.6854 51.0542 83.6066 50.4778 84.078C50.2196 84.2895 50.088 84.6077 50.0014 84.9209C49.3318 87.3562 50.1896 92.5034 50.3529 95.2253C50.6827 100.752 50.7743 106.662 51.5539 112.126C51.922 114.701 53.0431 117.78 53.5512 120.558C54.2191 124.211 54.7472 127.891 54.8471 131.611C56.7261 126.375 57.3408 120.741 58.0071 115.231C59.1914 105.431 59.7012 95.5634 60.7789 85.7554C60.9505 84.1996 61.322 82.6554 61.3569 81.0979L61.197 80.8997L61.1987 80.8964ZM108.35 91.9254C108.102 91.524 107.679 91.2624 107.309 90.9892C105.698 89.7982 101.494 87.3845 99.5446 87.3662C99.3597 87.3645 99.3347 87.3379 99.3663 87.5444L100.861 91.9254H108.35ZM49.1552 103.074L48.3157 87.4895C41.3511 90.2463 35.276 95.8433 31.9179 102.551C26.9639 112.443 25.3914 130.09 26.6441 141.002C26.8356 142.676 27.2254 144.329 27.4686 145.993C27.6552 145.974 27.6502 145.81 27.6985 145.685C27.9 145.175 28.0166 144.61 28.2499 144.077C31.3532 136.989 40.8847 133.899 47.8942 136.764L53.3346 135.425C53.3679 129.903 52.8515 124.288 51.6139 118.896C50.6694 114.775 49.2635 110.649 47.3012 106.906C46.6399 105.643 45.8786 104.432 45.0824 103.251C45.4922 103.118 46.0102 103.559 46.3367 103.794C47.0247 104.287 47.8359 105.057 48.1991 105.828L48.4373 105.768C47.9259 103.789 47.2129 101.858 46.2218 100.073C45.8653 99.4297 44.1512 97.0809 44.1462 96.6345C44.1429 96.4263 44.3745 96.1764 44.601 96.2914C44.9008 96.4446 46.1152 97.8639 46.3967 98.2187C46.988 98.9649 47.4794 99.7845 47.9775 100.592L49.1535 103.069L49.1552 103.074ZM89.1785 91.9254H99.2431L97.8605 87.6061C95.9599 88.6422 93.9276 89.4951 91.8404 90.0931C91.434 90.2097 89.4001 90.5861 89.2935 90.6611C88.977 90.8843 89.3718 91.5873 89.1785 91.9254ZM87.741 90.9659L86.5016 91.0775C86.2851 91.2141 86.2968 91.6889 86.3018 91.9254H87.8593L87.741 90.9659ZM65.6912 119.617L67.0072 98.7017C65.9594 97.4591 64.7468 96.3114 63.8456 94.9121L61.8583 91.2075L58.9816 119.499L65.6912 119.619V119.617ZM83.3667 93.4829H70.0056L75.396 103.616C80.3367 103.711 85.2956 103.451 90.2563 103.552L83.3667 93.4829ZM96.7878 93.4829H85.3439L92.2569 103.531L104.037 103.433L96.7878 93.4829ZM112.124 93.4829H98.8833L105.894 103.313L106.246 103.441L120.452 103.313L112.124 93.4829ZM73.3604 128.249C73.547 120.43 73.9151 112.643 74.1933 104.82C72.4276 101.845 71.0417 98.1937 69.191 95.3186C69.0944 95.1686 68.9961 94.9721 68.8096 94.9221L66.8923 125.852C67.96 125.049 69.3876 123.675 70.8235 124.016C72.0994 124.32 72.7391 125.229 73.0623 126.45L73.3604 128.249ZM121.173 104.872L106.331 105.008C106.251 105.17 106.209 105.35 106.193 105.53C105.909 108.596 105.899 111.983 105.465 114.993C105.393 115.493 105.183 116.017 104.594 115.986C103.652 115.934 103.449 114.045 103.018 113.384C102.513 114.058 101.905 116.237 100.769 115.638C100.188 115.331 99.7761 113.614 99.423 113.026C98.8666 113.582 97.5307 116.136 96.7861 116.134C96.5645 116.134 96.1664 115.889 96.0232 115.708C95.4901 115.03 95.1103 113.585 94.6872 112.787C94.2891 112.498 90.771 117.746 90.4895 114.651C90.3462 113.072 90.5845 111.418 90.6194 109.856C90.6544 108.293 90.5345 106.687 90.7344 105.115L75.7558 105.235L74.1983 146.116L88.4456 145.983L89.1136 138.798C89.7382 138.049 91.364 134.872 92.0836 134.577C92.4334 134.434 92.8282 134.391 93.1364 134.662C93.6828 135.144 94.389 136.956 94.9321 137.604C95.0753 137.702 96.403 135.025 96.6029 134.816C97.7855 133.573 98.7567 136.481 99.1248 137.244C99.8994 136.729 100.687 133.621 101.945 134.962C102.188 135.22 103.721 138.284 103.784 138.633L103.078 145.758L117.945 145.586L121.173 104.877V104.872ZM104.637 104.992L92.2935 105.112L92.0553 113.024C92.7233 112.646 93.9676 110.815 94.6406 110.747C95.8599 110.622 96.2697 113.121 96.906 113.86C97.5357 113.291 98.5851 111.033 99.358 110.913C100.474 110.739 100.642 112.772 101.22 113.384C101.932 112.249 102.625 110.007 104.154 111.706L104.635 104.992H104.637ZM136.988 141.197C136.651 139.926 136.226 138.678 135.76 137.451C133.385 131.192 130.075 125.346 127.345 119.256L122.371 110.387L121.291 124.653C124.378 123.532 125.884 124.563 126.505 127.648C126.843 129.33 127.173 131.416 127.385 133.121C127.581 134.712 127.488 136.641 127.763 138.137C127.798 138.325 128.272 138.862 128.442 138.9C128.612 138.938 128.814 138.795 129.005 138.808C131.795 139.012 134.547 139.858 136.984 141.195L136.988 141.197ZM65.573 121.056L58.795 121.17C58.172 125.902 57.2275 130.648 55.1486 134.964C55.2269 135.039 57.0326 134.504 57.2458 134.366C58.107 133.809 59.4296 132.29 60.2992 131.546C61.9549 130.126 63.6957 128.812 65.2681 127.298L65.573 121.056ZM25.3131 122.857C23.584 122.466 21.5918 121.576 20.1126 122.989C18.4385 124.586 16.4529 129.492 15.695 131.756C15.4285 132.552 14.374 135.677 14.7088 136.283C14.9304 136.683 17.9571 138.26 18.5584 138.545C20.6123 139.515 22.7761 140.281 25.0099 140.722C25.0249 139.431 24.7584 138.115 24.7068 136.829C24.5785 133.626 24.7517 130.418 24.95 127.233C25.0416 125.777 25.0099 124.303 25.3114 122.86L25.3131 122.857ZM38.1928 141.077C37.5648 141.152 36.6986 141.077 36.0356 141.077C35.9923 141.077 35.8557 140.921 35.7358 140.956C35.929 140.477 36.3338 140.114 36.8152 139.939L44.8409 137.481C39.722 136.58 33.7919 138.454 30.8218 142.823C31.6913 147.289 33.5686 152.712 36.7519 156.062C39.5304 158.987 42.6587 158.291 46.1335 157.173L60.5374 151.863L57.7822 148.51C58.1303 148.475 58.4185 148.548 58.7284 148.701C60.2209 149.433 62.2914 151.252 63.8556 152.203C64.7151 152.726 65.7179 153.359 66.6507 153.722C66.9506 153.839 67.4087 154.015 67.7268 153.963C66.5341 152.987 64.8784 151.901 63.9505 150.669C63.8572 150.544 63.3509 149.739 63.8339 149.826C65.1732 150.755 66.4175 151.825 67.8101 152.682C68.5797 153.157 69.8956 154.025 70.7802 154.028C70.9151 154.028 71.1133 154.095 71.0817 153.905C70.392 153.669 69.7907 153.161 69.2277 152.702C68.6646 152.244 67.1904 150.98 66.8206 150.434C66.6757 150.219 66.5958 150.112 66.6474 149.827C66.9639 149.494 70.2588 152.116 70.7302 152.394C72.0128 153.149 73.4604 153.572 74.9629 153.532C75.3127 153.522 75.8024 153.294 76.1123 153.124L72.5575 151.885C71.693 151.51 68.4697 149.824 68.558 148.808C68.5697 148.678 68.628 148.555 68.7596 148.516C69.1577 148.401 70.7718 149.594 71.2399 149.847C73.9235 151.29 76.7453 152.782 79.6987 151.077C80.8447 150.414 82.5671 148.535 80.7215 147.675C78.481 147.509 75.979 147.875 73.7719 147.675C73.567 147.657 73.3688 147.665 73.1939 147.534C71.0517 145.073 68.8612 142.638 68.045 139.378C67.7984 138.395 67.6852 137.281 67.4853 136.28C67.327 136.115 65.1316 137.791 64.6102 137.597C64.3703 137.346 65.3031 136.14 65.5064 135.918C67.7984 133.426 72.5709 131.028 71.6247 126.921C71.0217 124.306 69.3409 125.747 68.0267 126.812C65.603 128.775 62.8261 131.216 60.5324 133.34C58.7717 134.97 56.9077 136.813 55.7383 138.915C55.6084 138.938 55.5118 138.913 55.4385 138.797C55.3868 138.715 55.2935 136.991 55.3219 136.861C55.3552 136.711 55.5168 136.571 55.62 136.456L55.4401 136.396C51.7221 137.462 47.9475 138.315 44.2112 139.31C42.5388 139.755 39.7036 140.894 38.1861 141.074L38.1928 141.077ZM120.215 137.96L119.425 146.702C119.217 147.046 118.852 147.149 118.476 147.19C116.059 147.465 111.776 146.289 110.41 149.071C109.364 151.198 111.333 152.683 113.33 152.709C119.019 152.789 125.054 146.814 126.15 141.44C126.512 139.665 126.277 136.645 126.069 134.799C125.895 133.263 125.131 127.543 124.576 126.462C123.866 125.079 121.446 125.749 121.11 127.045C120.926 127.749 120.868 129.2 120.815 129.986C120.698 131.736 120.698 133.125 120.971 134.862C121.081 135.558 122.124 139.756 121.891 139.994L121.441 139.906L120.215 137.957V137.96ZM72.7608 144.554L73.1805 128.967C72.6675 131.489 70.8285 133.483 68.8329 134.987L68.7962 135.139C69.1044 138.688 70.1988 142.025 72.7591 144.552L72.7608 144.554ZM97.3258 136.881C96.3463 137.672 96.0448 140.516 94.3274 139.463L92.4134 136.58L90.6444 139.246L90.1364 145.873L101.384 145.736L102.19 138.8L101.22 137.004C101.082 137.004 100.083 139.07 99.7328 139.348C98.5535 140.289 97.7472 137.626 97.3258 136.881ZM30.7035 163.915C30.7768 164.401 30.7035 165.181 30.7035 165.714C30.7035 165.899 30.2404 167.271 30.1255 167.533C28.7279 170.706 25.9194 169.68 23.3325 168.772C21.7284 168.209 20.2059 167.43 18.7233 166.612C18.6317 168.221 18.2286 171.192 19.2014 172.545C21.0304 175.085 27.6718 178.09 30.6619 179.421C31.0167 179.58 33.447 180.634 33.5803 180.517L35.3777 163.135C33.3171 164.549 33.0356 162.089 32.864 160.557C32.7591 159.62 32.7291 158.571 32.8424 157.641C30.9084 156.559 29.3059 154.86 28.3265 152.867C26.744 149.656 25.7612 145.949 25.3081 142.4C23.5907 142.025 21.8633 141.582 20.2192 140.959C18.9849 140.491 17.8122 139.781 16.5678 139.396C15.5651 145.72 14.0575 152.183 14.6505 158.638C14.7438 159.65 14.9004 161.225 15.3885 162.094C16.6711 164.373 23.2126 167.315 25.7679 167.894C26.1626 167.984 26.9139 168.176 27.282 168.161C29.1061 168.084 29.5508 163.64 30.5253 163.612C30.5853 163.642 30.7019 163.885 30.7069 163.913L30.7035 163.915ZM130.04 140.479C130.741 141.432 132.012 142.633 131.967 143.896C131.959 144.114 131.985 144.29 131.777 144.432L127.764 140.479C127.711 142.5 126.812 144.725 125.73 146.416C123.425 150.022 119.879 152.936 115.666 153.97L114.105 154.263C118.441 156.069 123.064 158.286 127.444 155.323C129.998 153.594 131.389 151.255 132.164 148.295C132.768 145.984 133.105 143.587 132.863 141.192L130.043 140.479H130.04ZM134.232 145.751C134.472 145.951 136.936 143.654 136.971 143.274C137.018 142.761 134.924 141.963 134.531 141.677C134.372 143.031 134.619 144.422 134.232 145.751ZM29.744 145.033C29.5208 144.775 29.2976 145.701 29.2626 145.811C27.6885 150.82 30.9401 155.799 35.7358 157.26C34.9579 156.262 34.145 155.293 33.457 154.207C31.7246 151.471 30.4303 148.193 29.744 145.033ZM101.64 147.312L98.5235 147.489C97.7339 148.876 98.8067 150.31 100.201 150.667C100.029 149.219 100.504 148.172 101.64 147.312ZM110.267 147.31H107.57C105.431 148.935 106.712 153.139 109.548 152.406C108.065 150.794 108.83 148.655 110.267 147.31ZM96.8477 147.432L82.9486 147.552C83.6082 149.927 81.7326 151.99 79.6753 152.847C79.2872 153.009 78.2661 153.204 78.0712 153.34C77.9413 153.432 77.5748 153.995 77.3183 154.205C76.1872 155.13 75.5109 154.89 74.2683 155.11C73.1839 155.301 72.969 155.874 71.3982 155.689C70.9351 155.634 70.2538 155.263 69.9256 155.253C69.6908 155.244 69.3093 155.524 68.9778 155.571C66.2343 155.956 64.237 154.028 62.0382 152.834L51.5539 156.9C52.1303 156.929 52.7183 156.867 53.2963 156.897C68.2449 157.646 83.3617 157.84 98.3403 157.617C100.579 157.583 102.821 157.648 105.06 157.626L110.387 157.262L110.147 154.025C109.429 154.057 108.796 154.167 108.08 153.995C107.587 153.877 106.836 153.335 106.499 153.324C105.645 153.292 104.758 153.665 103.647 153.515C102.536 153.365 101.852 152.704 100.944 152.384C100.144 152.101 99.488 152.161 98.6401 151.693C97.1542 150.872 96.3713 149.101 96.846 147.434L96.8477 147.432ZM105.715 147.792C103.779 147.734 101.23 148.017 101.648 150.602C101.867 151.948 104.635 152.338 105.715 151.986C105.603 151.588 105.33 151.238 105.265 150.819C105.1 149.762 105.265 148.743 105.715 147.792ZM110.509 158.699C106.906 159.142 103.286 159.097 99.6595 159.174C83.2401 159.524 66.6857 159.114 50.2946 158.341C49.7066 158.313 48.4123 158.116 48.0391 158.135C47.5711 158.156 45.7654 158.941 45.0841 159.119C43.0618 159.65 41.1462 159.855 39.0573 159.657C38.9874 159.674 38.4593 160.47 38.3161 160.62C37.9929 160.96 37.3466 161.426 37.1234 161.704C36.7819 162.126 36.5554 167.776 36.4571 168.83C35.7275 176.598 34.5914 184.33 34.1966 192.133C38.2095 193.147 42.3389 193.779 46.4633 194.187C65.8195 196.101 87.108 196.269 106.358 193.45C108.182 193.184 110.072 193.002 111.771 192.274C111.843 190.589 111.863 188.865 111.831 187.169C111.725 181.26 111.427 175.329 111.108 169.43C110.915 165.852 110.71 162.277 110.509 158.701V158.699ZM37.4132 159.421L34.1783 158.461L34.5381 161.818C34.8896 161.774 37.5465 159.552 37.4132 159.421ZM55.2669 199.099C54.9804 199.497 50.7127 198.922 49.9931 198.804C46.5383 198.235 42.9352 197.029 39.7303 195.646C38.5343 195.13 37.4599 194.325 36.1506 194.093L36.0406 194.183C34.3615 197.633 35.5459 201.521 35.2427 205.141C34.9229 208.97 33.5503 213.511 32.8973 217.419C32.1577 221.847 31.6363 226.329 31.0333 230.779C30.9834 231.142 30.5769 233.094 30.7185 233.257C40.5748 235.979 50.5978 238.12 60.7239 239.62L65.3714 239.964C65.6863 239.87 66.7973 237.738 67.0355 237.303C70.0955 231.706 72.5575 225.773 76.004 220.383C76.7986 219.468 78.3561 219.73 79.5204 219.585C80.1151 219.511 81.4044 219.117 81.8225 219.125C82.109 219.13 82.2056 219.5 82.089 219.7C82.0324 219.796 80.39 220.724 80.1551 220.819C79.8103 220.961 78.6359 221.13 78.6526 221.432L86.4817 239.725C97.1392 235.298 108.476 231.92 120.095 231.345C118.896 225.585 117.502 219.864 116.299 214.106C115.598 210.751 114.367 206.234 114.018 202.96C113.827 201.156 113.982 199.346 113.567 197.537C113.297 196.364 112.762 195.243 111.996 194.317C107.625 195.781 103.294 197.838 98.7683 198.798C98.1903 198.921 95.7783 199.495 95.4668 198.981L95.5334 198.558C98.6418 197.715 101.803 196.725 104.752 195.433C104.9 195.368 105.233 195.318 105.237 195.141C103.384 195.388 101.525 195.661 99.6645 195.857C83.8914 197.53 68.0083 197.315 52.2169 196.217C49.6 196.036 46.9747 195.776 44.3678 195.501C44.3395 195.669 44.5693 195.664 44.6943 195.709C47.5327 196.75 50.5544 197.2 53.4162 198.135C53.8277 198.27 54.7622 198.538 55.0753 198.753C55.2186 198.851 55.3135 198.892 55.2702 199.094L55.2669 199.099ZM119.614 232.909H118.294C118.284 233.121 118.226 233.642 118.573 233.61L119.612 232.909H119.614ZM116.857 233.027C110.985 233.797 105.147 234.965 99.483 236.685C99.0465 236.819 96.4296 237.565 96.378 237.773L103.812 265.382C104.34 265.393 104.883 265.428 105.413 265.396C108.038 265.24 111.275 264.719 113.902 264.299C116.349 263.907 118.776 263.384 121.17 262.755L116.857 233.027ZM55.7483 240.462L36.8202 236.509L33.1522 261.447L49.6416 264.509L55.7483 240.462ZM95.0487 238.181L93.4296 238.659L91.3357 239.499L95.2886 239.019L95.0487 238.181ZM46.52 277.024L49.2235 266.111L32.8624 262.878L31.9029 271.15C36.5487 269.829 42.3289 271.443 45.2523 275.356C45.5621 275.771 45.887 276.549 46.1602 276.845C46.2718 276.965 46.3284 277.065 46.5183 277.024H46.52ZM121.411 264.197C115.821 265.771 110.042 266.433 104.28 267.081C104.718 269.089 105.29 271.068 105.776 273.067C106.131 274.528 105.894 274.946 107.09 276.069C107.427 276.384 108.297 277.13 108.745 277.009C108.979 276.944 111.375 274.237 111.883 273.785C114.898 271.117 118.524 269.438 122.61 270.67L121.413 264.197H121.411ZM127.283 275.584C124.593 272.779 121.146 270.972 117.187 272.258C115.656 272.756 113.617 274.2 112.423 275.284C111.568 276.059 109.731 278.568 108.65 278.566C108.423 278.566 107.422 278.145 107.187 278.008C106.408 277.557 104.835 275.882 104.51 275.051C104.389 274.738 104.522 274.178 104.159 274.267C103.341 276.457 103.419 278.863 103.323 281.165C103.226 283.467 103.048 285.749 103.193 287.999C103.219 288.424 103.308 288.84 103.371 289.26C109.804 290.741 116.252 292.195 122.807 293.072C129.09 293.911 135.5 294.609 141.777 293.323C141.772 291.924 141.627 290.355 141.085 289.052C140.046 286.553 136.178 283.853 134.113 282.003C133.776 281.701 132.813 280.562 132.555 280.445C131.716 280.064 128.071 281.083 127.046 281.403C125.937 281.749 124.804 282.197 123.73 282.641C123.202 282.857 121.843 283.652 121.444 283.72C120.981 283.8 120.532 283.447 120.487 282.982C120.525 282.164 122.301 281.578 122.977 281.286C125.489 280.205 128.281 279.347 131.001 279.064C131.078 278.784 130.929 278.863 130.848 278.791C130.538 278.518 129.295 277.303 129.082 277.208C128.822 277.094 127.798 277.017 127.469 277.027C125.95 277.077 123.357 277.95 121.934 278.564C121.196 278.883 118.609 280.49 118.14 280.468C117.442 280.435 117.237 279.599 117.71 279.134C120.57 277.215 123.865 276.024 127.286 275.588L127.283 275.584ZM24.3903 282.457C23.9189 282.855 22.9627 284.543 22.4863 285.166C21.0754 287.011 18.735 289.329 18.182 291.529C18.1153 291.797 17.8405 292.962 17.9321 293.091C18.8883 293.498 19.951 293.704 20.9754 293.889C28.9261 295.314 39.2855 293.989 46.9714 291.561C47.4411 291.412 48.6072 291.109 48.9536 290.906C49.1002 290.819 49.1702 290.741 49.2235 290.576C49.3051 290.33 49.3817 289.192 49.4017 288.835C49.5733 285.581 49.8931 280.963 49.5033 277.815C49.4251 277.187 49.2085 276.444 48.5089 276.312C48.1891 276.387 47.7826 278.401 46.6932 278.574C44.9625 278.851 44.4611 276.675 43.5216 275.648C40.2167 272.035 33.5137 270.935 29.6291 274.21C29.2393 274.538 29.0494 275.311 28.6663 275.703C31.8995 275.329 35.3827 275.774 38.371 277.083C38.9091 277.32 39.8436 277.613 39.8186 278.276C39.7603 279.819 37.6398 278.439 36.9068 278.188C34.4115 277.328 30.9934 276.68 28.4264 277.44C26.8723 277.9 26.9139 278.776 26.0311 279.959C27.1721 279.857 28.2882 279.487 29.4409 279.414C31.4348 279.286 33.8285 279.54 35.6425 280.413C36.2572 280.71 38.1845 281.894 37.1067 282.645C36.4088 283.132 35.7924 282.231 35.2211 281.914C32.8307 280.595 26.5091 280.663 24.3919 282.454L24.3903 282.457ZM141.892 294.896C135.224 296.206 128.394 295.447 121.729 294.509C115.514 293.636 109.431 292.175 103.319 290.809C103.241 291.419 103.506 291.979 103.674 292.552C107.137 293.791 110.835 294.677 114.44 295.447C121.854 297.031 130.316 298.022 137.887 297.283C139.228 297.151 142.79 297.006 141.892 294.896ZM48.917 292.61C45.0841 293.773 41.1895 294.766 37.2133 295.347C32.0928 296.095 26.5774 296.381 21.4519 295.572C20.2692 295.385 19.0831 295.117 17.9388 294.769C17.6589 294.689 17.7472 295.127 17.7639 295.305C17.8338 296.013 17.9071 296.268 18.5218 296.585C21.9216 298.34 32.381 297.631 36.3805 297.149C39.5004 296.775 43.1584 296.142 46.1335 295.159C46.5699 295.014 48.1957 294.474 48.4356 294.224C48.7488 293.898 48.7038 293.022 48.9187 292.61H48.917Z" fill="black"/>
<path d="M73.7206 72.1446L72.8927 72.3728C72.1498 71.0652 74.9149 68.8164 75.9477 69.6159C76.2659 69.7792 75.9843 70.2673 76.0476 70.3539C76.2092 70.5754 79.8206 71.0918 80.3886 71.1701C85.0878 71.8181 90.1633 72.0296 94.8691 71.6648C95.2656 71.6348 96.4449 71.1934 96.4966 71.7281C96.5915 72.2445 95.732 72.2512 95.5854 72.4994C95.5388 72.5793 95.6787 73.9969 95.647 74.3617C95.4322 76.8154 93.8397 79.3473 91.8524 80.7549C85.0694 85.5573 73.8655 80.7466 73.7206 72.1462V72.1446ZM93.1317 72.9841C87.1833 73.3706 81.1199 73.0174 75.3996 71.305C75.2114 71.4849 76.1643 72.1795 76.2942 72.2662C79.5391 74.4233 88.914 76.0241 92.2839 73.9919C92.6587 73.7654 93.1017 73.4672 93.1317 72.9841ZM94.451 72.8642C93.938 73.0158 94.1145 73.6687 93.6764 74.1868C91.9557 76.2157 85.5975 76.0225 83.1438 75.726C80.397 75.3945 77.1554 74.6765 75.0998 72.7442C74.9682 74.4966 75.9877 76.0391 76.9805 77.3967C77.7651 77.3384 78.5046 77.0053 79.2959 76.942C82.3176 76.6954 85.6091 77.54 87.2416 80.2568C87.4048 80.5284 87.4398 81.1247 87.7946 81.133C88.256 81.143 89.9851 80.3518 90.4582 80.0769C93.0584 78.5694 94.5643 75.8992 94.451 72.8642ZM77.915 78.2596C79.3975 79.7371 81.6846 80.8982 83.7585 81.223C84.1766 81.288 86.3487 81.5611 86.422 81.193C85.0977 78.0247 80.8834 77.6649 77.915 78.2613V78.2596Z" fill="black"/>
<path d="M76.5965 63.8702C77.0396 63.9019 77.6409 64.4132 77.2528 64.8247C76.5615 65.5576 71.3743 65.461 70.9829 64.5115C70.728 63.8935 71.5659 64.0568 71.9224 63.9318C70.4682 62.4027 70.2116 59.8274 71.0828 57.9351C72.8769 54.0422 76.9064 55.09 77.6443 59.0462C77.9708 60.7985 77.596 62.4043 76.5965 63.8685V63.8702ZM73.9313 56.8257C71.5343 57.1705 71.2494 62.2827 73.3183 63.4954C75.3105 64.6631 76.6215 61.713 76.5998 60.1022C76.5815 58.7313 75.5554 56.5908 73.9313 56.8257Z" fill="black"/>
<path d="M100.2 63.9898C100.926 63.635 102.525 64.1381 101.581 64.9543C100.671 65.7389 97.165 65.3225 96.0039 65.011C94.3415 64.5679 94.07 63.8316 96.1255 63.9898C94.6697 62.2458 94.4414 59.6522 95.4609 57.6316C96.8535 54.8714 99.8119 54.9514 101.01 57.8448C101.864 59.9137 101.529 62.2108 100.2 63.9882V63.9898ZM97.8912 56.7088C95.2094 57.1519 95.2593 63.8183 98.1028 63.7616C99.7869 63.7283 100.521 61.1181 100.445 59.7321C100.368 58.3562 99.5403 56.4373 97.8929 56.7088H97.8912Z" fill="black"/>
<path d="M98.738 48.5604C100.344 48.3771 103.695 49.0734 104.502 50.6409C104.943 51.4988 104.492 52.2867 103.515 52.2367C102.196 52.1701 100.739 51.0907 99.0712 51.164C97.3021 51.2406 96.371 52.4399 95.055 52.7864C93.8756 53.0979 93.6108 52.305 94.1122 51.3639C94.8501 49.9746 97.2105 48.7336 98.7397 48.5604H98.738Z" fill="black"/>
<path d="M73.8201 49.5144C75.3276 49.4877 78.7374 50.169 79.1772 51.8798C79.8002 54.3084 76.6386 52.571 75.6391 52.3029C74.0933 51.8881 73.1405 51.7731 71.543 52.0413C70.8001 52.1663 69.679 52.666 69.076 52.696C68.9111 52.7043 68.7795 52.6926 68.6412 52.5927C67.6434 51.8714 69.6107 50.7021 70.1654 50.4222C71.2115 49.8925 72.6491 49.5327 73.8218 49.5127L73.8201 49.5144Z" fill="black"/>
<path d="M53.5825 64.9429C53.1277 65.2628 51.9584 63.627 51.6769 63.3288C51.3471 62.9807 50.9606 62.5426 50.5375 62.3127C50.3126 62.366 50.0228 63.7819 49.9978 64.0534C49.9311 64.7797 50.3726 66.8669 49.7562 67.1717C49.1399 67.4766 48.7851 66.5587 48.6435 66.1223C48.1554 64.6115 48.5136 62.8208 49.5147 61.5948C49.005 61.2949 46.6696 61.1983 46.5363 60.7952C46.4863 60.6453 46.4847 60.4021 46.573 60.2688C48.6935 59.306 51.1422 60.5786 52.5064 62.2544C52.8029 62.6192 54.0956 64.5781 53.5792 64.9413L53.5825 64.9429Z" fill="black"/>
<path d="M89.7398 60.4279C90.0296 60.4212 90.2628 60.6777 90.4294 60.8843C90.8709 61.4257 92.1968 63.9043 92.4733 64.5939C93.0413 66.0115 92.0369 66.7195 91.164 65.5451C90.8792 65.162 89.0768 61.4873 89.0652 61.1658C89.0485 60.7643 89.3317 60.4379 89.7398 60.4295V60.4279Z" fill="black"/>
<path d="M86.7219 84.3729C87.0517 84.4262 87.1117 84.681 86.9618 84.9725C86.5153 85.8354 82.9739 85.5322 82.9473 84.1347C83.1355 83.8648 84.3982 84.3729 84.6847 84.3729C85.2727 84.3729 86.1922 84.2862 86.7219 84.3729Z" fill="black"/>
</g>
<defs>
<clipPath id="clip0_2117_24563">
<rect width="160" height="160" fill="white"/>
</clipPath>
</defs>
</svg>
