<svg width="160" height="160" viewBox="0 0 160 160" fill="none" xmlns="http://www.w3.org/2000/svg">
<g clip-path="url(#clip0_2117_23190)">
<path d="M155.739 105.631C155.616 104.744 154.357 103.907 154.296 103.255C154.22 102.449 155.163 101.413 155.035 100.28C154.896 99.0479 154.072 98.2564 153.943 97.6381C153.849 97.1848 154.219 95.7523 154.13 94.896C153.928 92.9666 152.471 93.0103 151.787 91.7849C151.338 90.9837 151.77 89.5916 151.306 88.6366C149.917 85.7845 147.177 86.309 144.58 86.8609L144.529 86.2717C143.277 86.4902 142.005 86.6214 140.763 86.7654C139.601 86.9872 138.415 87.2704 137.222 87.5068L137.821 90.5871C133.703 90.401 131.378 92.052 130.25 95.9466C129.464 98.6659 129.025 102.002 129.836 104.746C130.048 105.463 131.009 106.911 130.726 107.358L115.572 121.564C114.533 120.353 113.41 119.199 112.513 117.872C111.653 116.599 111.158 114.977 110.436 113.891C109.816 112.959 108.5 112.603 107.666 111.536C106.634 110.214 105.794 108.153 104.835 106.68C102.542 103.156 100.065 99.8799 95.8857 98.5057C95.8857 97.9327 96.5704 98.5089 96.6999 98.5089C98.7637 98.5089 101.221 98.6854 103.223 98.5089C107.448 98.1366 113.015 95.6633 116.014 92.6623C122.733 85.9367 121.581 74.6124 123.028 65.8958C123.096 66.9026 123.217 67.9337 123.393 68.9713C123.544 67.9451 123.727 66.9172 123.934 65.8877C124.263 64.2432 124.645 62.6115 124.991 60.9702C125.333 59.3434 125.563 57.6988 125.911 56.0737C126.356 53.9953 126.956 51.9121 127.861 49.9826C128.337 48.9677 128.923 48.0127 129.446 47.0237C128.952 46.9346 128.46 46.755 127.968 46.4782C116.351 44.1149 103.974 45.2399 92.3765 47.1872C82.0315 48.924 71.0812 51.6531 61.4226 55.8066C56.6993 57.8381 51.2395 60.368 48.1219 64.4989C46.5793 64.8146 45.3896 66.765 44.8603 68.2251C44.8392 69.7645 44.9525 70.8652 46.0257 72.0678C49.6467 76.1242 58.428 77.2071 63.6175 77.7737C65.1261 77.9388 66.8127 77.1974 66.9924 79.4053C65.6861 79.1852 64.4398 78.685 63.1205 78.5037C61.3319 78.2577 59.3863 78.1379 57.6397 78.5684C57.9926 78.8404 58.2856 79.19 58.5025 79.585C61.4517 79.7565 64.2698 80.226 66.9552 80.9948L67.2255 80.8038L68.0057 82.8919C65.0079 81.9919 61.8013 81.372 59.4769 83.9425L55.6536 87.5553C54.8184 87.1086 54.2211 86.6489 53.8601 86.1778C53.8067 86.2458 53.7549 86.3138 53.7015 86.3818C53.5412 86.5874 53.3794 86.7897 53.2143 86.992C53.0686 87.1701 52.8986 87.3158 52.7157 87.4388C54.0106 88.5864 54.0705 89.1772 52.8954 89.2112C52.6914 89.1999 52.4891 89.1967 52.2851 89.195C52.4761 89.5835 52.5943 90.0335 52.6186 90.5466C52.6267 90.7312 52.6105 90.9206 52.5749 91.1083C53.3081 91.2297 54.0009 91.2929 54.6435 91.288L55.1049 92.0326C63.9266 96.5973 65.1147 107.917 63.8587 116.69C61.3254 116.347 59.6776 117.122 57.6818 118.587C53.8844 121.376 50.5693 125.16 47.6088 128.702C47.1475 129.123 46.5987 129.453 46.0225 129.722C45.2569 129.643 44.1788 129.502 43.4812 129.18C45.5628 127.537 47.6784 125.907 49.8296 124.291L49.9818 123.898C51.7898 124.812 53.2159 121.148 50.401 122.41C47.4631 124.359 44.556 126.339 41.678 128.349C35.6775 127.477 29.6609 126.773 23.6281 126.237L22.0208 124.861L21.5562 125.062L21.6194 124.481C20.632 123.343 14.7206 117.954 13.6506 117.829L12.9352 118.074C12.851 117.82 12.6211 117.664 12.3508 117.596C12.2569 117.71 12.2149 117.761 12.3427 117.595C12.3427 117.595 12.3395 117.595 12.3379 117.595C11.9769 118.037 11.5658 118.393 11.1174 118.637L13.3285 120.211C11.9494 122.015 11.8571 122.028 10.8746 119.989C10.7823 119.578 10.6545 119.217 10.4958 118.896C9.90178 119.069 9.25755 119.05 8.59065 118.796C9.22356 120.552 10.6156 122.673 11.0332 123.747C8.33815 127.511 5.92308 131.266 6.41192 136.125C6.54141 137.417 7.63564 139.193 7.56765 140.059C7.4592 141.443 5.66409 145.407 5.2141 147.278C4.76897 149.123 4.36753 151.122 4.3125 153.015L4.82562 152.777C5.45852 149.078 6.53008 145.585 8.0403 142.301C8.3786 142.168 8.68939 142.089 8.97428 142.063C12.8283 146.155 18.9307 146.119 24.1315 145.981L24.5832 145.562C25.4378 145.332 26.9804 145.279 27.9565 145.318C30.4363 145.789 31.8138 145.862 34.3972 145.258C37.5827 144.224 40.8185 143.494 44.1044 143.066C43.758 143.115 43.6803 143.333 43.69 143.699C43.6803 144.19 43.881 144.363 44.3504 144.313L49.153 143.487L44.3375 148.597C44.229 148.893 44.195 149.195 44.2371 149.499C45.9399 148.406 47.6493 147.323 49.3845 146.281C51.0614 145.272 53.2547 145.491 54.7666 146.66C55.5937 147.299 56.2218 148.157 56.5034 149.177C56.7041 149.904 56.7899 151.037 56.5034 151.754C55.8171 153.474 54.9705 154.855 53.6901 156.218C53.5461 156.372 53.3972 156.521 53.2483 156.668C53.3195 156.673 53.3907 156.674 53.4619 156.681C63.2517 157.801 73.8313 158.698 83.7489 158.374C83.7489 158.368 83.7489 158.363 83.7505 158.356C84.2022 154.452 84.4433 150.532 84.7897 146.618C85.1734 142.299 85.6703 137.967 86.5719 133.722C86.8309 132.506 87.132 131.302 87.4492 130.101C86.0458 128.293 86.1575 125.274 87.8911 123.73C88.0756 123.566 88.2585 123.401 88.4415 123.236C87.5269 122.828 86.5428 122.077 86.1737 121.238C85.0244 118.624 84.4919 115.897 84.6894 113.033C84.7671 111.9 85.0439 110.986 85.7302 110.097C86.3242 109.328 87.2436 108.541 88.2472 108.36C88.7264 108.273 89.2006 108.19 89.6749 108.119C89.1148 104.77 88.2909 101.117 87.2922 100.081C87.1433 99.9269 86.9717 99.7958 86.7936 99.6727C86.287 99.0107 84.9856 99.6776 84.984 100.492C83.2245 97.7854 81.3646 95.1469 79.4044 92.5781C81.936 94.0252 84.7282 95.2117 87.4282 96.1813L87.4719 96.4111C86.839 97.5507 86.8455 98.1722 87.4929 98.2742L88.0109 98.3729C88.8154 96.9501 90.0407 96.9161 91.6869 98.2742L91.5267 98.9848C92.8006 101.996 93.7491 105.139 94.4726 108.341C95.1509 108.569 95.8032 108.898 96.3875 109.317C95.7368 105.939 94.832 102.619 93.8414 99.3992C94.5617 99.574 95.0861 99.5093 95.4147 99.2066L95.6041 99.5044C100.86 101.783 105.8 107.279 105.855 113.168C107.793 113.742 109.296 114.65 110.279 116.501C111.234 118.491 112.383 120.348 113.728 122.066C112.804 122.355 112.369 122.732 112.422 123.197L111.588 123.246C106.485 127.427 102.804 133.416 101.579 139.913L101.938 140.667C102.027 140.868 102.105 140.871 102.171 140.667C103.746 140.595 104.788 140.46 104.021 138.612C103.808 135.099 108.683 128.814 110.939 126.146C107.692 129.986 102.425 139.136 108.272 142.655C108.66 143.003 109.376 143.819 109.394 144.162C108.848 144.369 108.359 144.714 107.924 145.2C106.618 146.169 104.073 147.925 103.714 145.276C103.62 144.292 103.338 143.532 102.87 142.998C102.995 142.339 102.131 141.731 101.705 142.299C101.179 143.17 101.15 144.282 101.616 145.632L97.7844 142.299L97.2778 142.53C96.8084 142.951 96.9265 143.427 97.2778 143.927C98.5889 145.243 102.045 148.573 103.911 148.592C105.491 148.61 108.238 146.979 109.505 146.019C109.986 145.654 110.737 144.575 111.189 144.44C112.016 144.194 113.541 144.471 114.575 144.332C117.985 143.874 120.755 140.899 123.026 138.573C129.35 132.095 134.816 124.54 141.048 117.969C141.778 117.222 143.062 117.524 143.905 117.32C148.99 116.088 156.575 111.675 155.738 105.629L155.739 105.631ZM69.9886 86.2458L68.2987 86.8512C67.1721 86.1115 61.9357 85.6081 61.5116 84.7664C61.1344 84.0185 61.4582 83.3274 62.274 83.172C62.9101 83.0506 65.521 83.5297 66.2996 83.7061C67.5557 83.991 70.6749 84.5737 69.9886 86.2442V86.2458Z" fill="#EED3CA"/>
<path d="M30.8789 152.314C31.078 152.918 31.1994 152.921 31.345 152.314L31.8954 152.162L37.7744 153.638C38.655 153.084 39.5307 152.526 40.4064 151.964C37.53 151.66 34.5063 150.878 31.8112 149.985C30.9808 149.925 30.0614 151.921 30.8789 152.314Z" fill="#EED3CA"/>
<path d="M96.1543 135.274C96.2207 135.194 96.2919 135.114 96.3712 135.034C96.3534 134.866 96.3404 134.701 96.3275 134.536C96.2692 134.782 96.2093 135.028 96.1543 135.274Z" fill="#EED3CA"/>
<path d="M24.5854 145.559C24.6323 145.452 24.6873 145.352 24.7666 145.279C25.1001 144.975 28.7518 146.757 29.1241 147.238C30.3559 148.835 27.8178 162.16 27.0053 162.576C26.8224 162.67 26.6297 162.644 26.4501 162.562C26.2105 162.801 25.6504 162.709 25.2361 163.562C24.6258 164.818 24.43 168.739 25.2684 169.857C25.5468 170.228 26.4679 170.331 26.9162 170.48C27.3161 170.422 27.3727 170.49 27.4358 170.812C27.7871 172.596 21.8385 180.782 18.7614 178.865C16.7396 178.156 15.2877 177.504 13.4019 176.536C13.2692 176.466 13.2724 176.389 13.4019 176.303L13.648 176.034C11.3899 174.627 9.44427 172.929 7.81103 170.945C7.71391 170.616 7.34485 169.631 7.34485 169.431V164.773C7.34485 164.69 7.63783 164.535 7.47758 164.203C7.20726 163.646 6.22149 162.557 5.71484 161.629C6.17455 155.92 7.82559 150.08 9.41513 144.463C9.2128 143.494 8.75634 142.772 8.04574 142.296L8.62523 141.134C11.568 144.552 15.524 145.253 19.8135 145.556C21.3156 145.661 23.1739 145.357 24.587 145.558L24.5854 145.559Z" fill="#242E5F"/>
<path d="M114.521 30.9547C114.824 31.3222 114.733 31.5375 114.287 31.6346L110.999 31.688C109.589 31.8045 107.746 31.9632 106.833 32.8195C106.718 33.2953 106.195 33.7 105.267 34.0335L106.252 38.0591L116.669 38.5722C117.014 38.8118 117.365 38.9753 117.783 38.8749C117.618 38.4524 117.579 37.9393 117.67 37.3323L117.15 34.8104C116.977 33.9412 117.757 33.1254 118.251 33.9833L118.91 34.2811C119.525 35.835 119.878 37.4521 119.963 39.1355C121.163 39.2812 122.338 39.5434 123.487 39.9206L123.843 40.5049C124.047 40.5713 124.044 40.649 123.843 40.738L123.516 41.1459C118.489 40.3204 113.249 39.5531 108.165 39.5224C107.165 40.1877 105.847 40.4531 104.209 40.3188C97.6646 40.369 91.1202 40.7963 84.7006 42.1349L84.202 42.6626C81.46 43.1515 78.7471 43.7779 76.0633 44.5419L75.3819 44.2311C74.0351 44.9935 72.0183 45.819 70.4886 45.3966C69.8298 44.8446 70.3624 44.2085 71.1879 44.4642C71.2348 43.9495 71.5731 43.6387 72.2012 43.5335L78.5739 41.7885L78.0397 38.399C77.1365 38.2712 76.5603 37.9636 76.3126 37.4764C71.8224 37.2773 67.4666 40.4369 69.9318 45.437L69.5563 45.8611L68.5705 46.7223C60.7572 49.6618 53.6981 54.3948 48.5378 61.0071L47.4225 61.7015C47.3578 61.2305 47.6071 60.9569 47.832 60.5976C49.2613 58.3233 51.4368 56.3194 53.2141 54.3122C53.1024 52.5981 51.9208 50.7333 52.0714 49.0078C52.1976 47.564 53.5249 46.6737 54.1805 45.5099C53.2206 41.6817 53.3744 38.467 54.1805 34.6809C54.4751 33.9493 55.1112 33.9023 55.2941 34.7473C54.5042 37.4877 54.365 40.1051 54.8798 42.6011C55.3945 42.5914 55.6421 43.1126 55.6211 44.1647C57.9488 43.404 59.9494 42.6691 61.8093 40.9646C63.7679 39.9999 65.8964 39.4334 68.1966 39.265C70.8593 36.1313 74.7279 35.4628 78.5788 36.0633C81.6397 33.4977 86.5523 31.8143 90.1037 34.2504C93.702 30.8447 99.6555 29.506 104.099 32.091C105.86 30.9661 113.04 29.2826 114.271 30.5873C114.371 30.6941 114.452 30.822 114.525 30.9547H114.521Z" fill="#EED3CA"/>
<path d="M54.6432 91.2847C54.4312 92.1199 53.7076 92.7075 52.4726 93.0474C50.187 93.881 47.9613 94.794 45.7583 96.008C34.4082 102.266 24.9309 109.47 14.6442 117.303C14.4046 117.486 14.1262 117.621 13.8397 117.748C13.5532 117.876 13.2456 117.98 12.9381 118.071C12.4088 117.965 11.6464 118.143 11.0734 118.071C10.693 118.695 9.91603 118.49 9.67485 117.837C9.53726 117.216 9.34626 116.63 9.44176 115.974C9.76064 115.749 10.0455 115.484 10.3741 115.275C17.2519 110.922 24.0066 106.387 30.7176 101.722C36.0722 97.9989 45.9202 90.2212 52.6701 90.5757C53.8452 90.6372 53.9003 90.9383 54.6416 91.283L54.6432 91.2847Z" fill="#DD554B"/>
<path d="M96.815 8.36033C97.0513 8.20979 97.4787 8.2713 97.5143 8.59342C97.7393 8.60799 97.9885 8.60799 98.2135 8.59342C103.189 9.49178 108.358 10.9276 113.1 12.4993C120.412 14.9224 122.855 19.8416 123.609 27.2292C123.606 27.383 123.622 27.5416 123.609 27.6954C123.853 27.8929 123.931 28.2798 123.842 28.8609C123.827 29.013 123.852 29.1733 123.842 29.327C124.072 29.3546 124.15 29.5877 124.075 30.0263C124.046 30.4099 124.107 30.8081 124.075 31.1918C124.562 31.7664 124.553 34.0228 123.376 33.0549C123.263 33.7816 122.511 33.7007 122.21 33.0549C121.497 32.7117 120.703 32.5806 119.828 32.6583L119.648 32.3556C119.76 31.87 120.244 31.6596 121.098 31.7243C120.305 25.6187 118.551 18.94 112.163 16.4553C107.157 14.5243 102.147 12.5608 97.1307 10.5666C96.0364 10.4517 95.1542 10.1036 94.4857 9.5274C93.4579 9.17938 93.6343 8.46231 94.7188 8.36195C95.3501 8.38137 96.2226 8.43803 96.815 8.36195V8.36033Z" fill="#835840"/>
<path d="M85.6305 9.99161L85.2064 10.6019C78.7237 12.9732 72.8365 17.1882 67.5111 21.5312C61.2306 26.6543 57.0027 31.1396 56.8117 39.7542C56.7113 40.4389 56.1691 42.9123 55.3549 42.9592C55.1639 42.9705 55.002 42.773 54.8757 42.5998C54.8547 42.5739 54.4856 42.5918 54.3092 42.3619C53.877 41.8018 54.1052 39.5729 54.1797 38.7571C54.3092 37.3278 54.7139 35.8645 54.8741 34.4466L54.1781 34.6797C54.7511 31.9878 55.8405 28.2163 57.9059 26.2933C64.3644 18.8749 72.4853 13.6158 81.5903 10.0321C82.513 9.6695 85.5334 8.62545 85.6305 9.98837V9.99161Z" fill="#835840"/>
<path d="M88.1948 158.135C89.2227 159.317 88.3535 163.653 88.2175 165.199C88.3761 165.704 89.8556 165.814 90.0158 166.918C89.8054 168.349 89.336 170.092 89.3409 171.528C89.3522 175.814 90.2457 180.887 90.7588 185.156C90.8284 185.732 90.7313 186.417 90.7588 187.019C90.1955 187.6 89.6096 187.697 88.8941 187.951C87.7287 187.349 87.1702 185.981 87.2188 183.848L86.7785 175.981C86.3754 173.373 86.0889 170.996 86.7769 168.446C85.2375 168.653 76.4643 168.592 76.2943 167.373C76.2765 167.248 76.2895 167.119 76.3122 166.988C76.0839 166.447 76.869 166.225 77.3546 166.14L84.0526 165.851C84.6548 165.871 84.9785 165.716 85.3994 165.358L85.0449 164.937C85.2359 163.969 86.5794 158.576 87.1022 158.231C87.392 158.04 87.863 158.049 88.1948 158.135Z" fill="#DD554B"/>
<path d="M123.84 40.7379C124.933 40.848 125.998 41.0601 127.035 41.3725L127.102 41.9018C127.518 41.3239 127.917 41.4307 128.034 42.1349C129.365 42.7629 131.184 44.2812 132.461 45.1634C132.727 47.2499 131.898 46.6202 130.829 47.0265L130.078 47.2094C123.377 43.849 115.996 41.6056 108.362 41.3369C100.944 41.0746 93.5466 41.6703 86.1751 42.4554C85.662 42.444 85.1699 42.3372 84.6973 42.1365C87.606 41.2025 90.8887 40.6457 93.9286 40.3009C98.3022 39.8056 103.278 40.1164 107.428 39.5919C107.873 39.5353 107.65 39.1452 108.097 39.0901C110.467 38.7907 121.155 40.1601 123.84 40.7396V40.7379Z" fill="#835840"/>
<path d="M49.5196 83.3643L51.5802 84.0959L51.6158 85.9266L51.0784 86.6194L43.2699 89.1478C37.5107 91.3346 32.8149 96.0919 28.7294 100.547L28.0851 100.602L26.0553 102.398L25.7559 102.233C26.8129 100.09 28.3927 97.8838 29.8527 95.964C34.9224 89.3032 41.253 85.1043 49.5212 83.3659L49.5196 83.3643Z" fill="#50587F"/>
<path d="M75.3811 44.2316C76.069 44.3093 75.891 44.8613 75.3617 45.1607L64.298 50.6108C57.8703 53.8514 52.5626 58.9486 48.121 64.4958C46.9442 65.6435 45.9617 67.008 44.8594 68.222C44.8934 65.6904 45.9487 63.6897 47.4217 61.7004C53.0822 54.057 60.6641 49.0407 69.5555 45.8616C69.5247 45.1996 70.0379 44.8661 70.4878 45.3954C72.0968 44.8645 73.7673 44.6217 75.3811 44.23V44.2316Z" fill="#835840"/>
<path d="M8.04427 142.297C9.67751 142.113 9.26637 143.385 9.85718 144.468C8.37933 149.86 6.90634 155.274 6.16984 160.815C6.11157 161.249 6.46768 161.76 5.71499 161.631C4.07689 158.635 3.80657 156.487 4.31646 153.013C4.54469 151.464 6.5567 143.238 7.45345 142.513C7.64931 142.356 7.80632 142.325 8.04427 142.299V142.297Z" fill="#50587F"/>
<path d="M56.5087 78.939C59.3575 79.4845 62.3424 79.3177 65.1767 79.9409C66.1317 80.1514 66.4344 80.2582 67.2259 80.8037C67.739 80.9445 67.2793 81.8267 67.0009 81.9481C66.054 82.3592 61.5266 82.3042 60.3644 82.0031C58.8978 80.8555 56.9846 81.1452 55.4128 81.9238L54.8771 81.7377L54.7395 81.558L53.4785 81.7377C54.5501 80.5317 54.8382 79.6512 56.5071 78.9422L56.5087 78.939Z" fill="#717171"/>
<path d="M96.5822 130.418C97.2183 130.763 97.5744 133.061 96.8153 133.33C97.589 133.553 97.5291 136.462 96.8153 136.825L97.2928 137.306C97.4045 137.89 97.8124 141.755 97.7314 141.975C97.644 142.212 97.5 142.398 97.2814 142.532C97.2863 142.998 97.2782 143.465 97.2814 143.929C96.5854 143.23 94.8729 141.849 94.7191 140.901C94.5896 140.109 94.9069 136.352 95.2354 135.701C95.4054 135.366 95.8327 135.357 95.8878 135.146C96.1192 134.262 95.768 132.37 95.9072 131.25C95.9558 130.86 96.0076 130.289 96.5822 130.418Z" fill="black"/>
<path d="M124.073 31.1883C125.003 31.0312 124.307 32.344 124.577 32.7827C124.638 32.8814 126.176 33.4803 126.621 33.8817C128.429 35.5085 127.822 39.8563 128.034 42.137C127.78 42.0172 127.379 42.0172 127.102 41.9039L126.783 41.462C127.533 38.7831 126.875 34.9128 123.787 34.0938C123.274 33.8364 123.01 33.571 123.374 33.053C124.452 32.8814 124.004 32.0267 124.073 31.1899V31.1883Z" fill="#EED3CA"/>
<path d="M88.7023 157.662C88.2135 157.676 87.6631 159.604 87.443 159.999C86.7275 161.289 85.9878 163.607 85.397 165.357C85.1412 165.77 84.5553 165.946 83.6375 165.888L71.0701 166.39C72.6726 166.54 74.288 166.619 75.8921 166.548L76.3097 166.989C76.6691 167.346 77.2648 167.426 77.7471 167.532C79.382 167.895 81.9589 168.141 83.6391 168.162C84.3254 168.17 86.7016 167.49 87.1613 168.138C87.4932 168.971 86.9121 169.802 86.8198 170.622C86.6207 172.427 87.1468 174.387 87.2585 176.192C87.4478 179.279 87.3847 183.96 88.2394 186.858C88.3462 187.222 88.9338 187.449 88.8917 187.954C83.1503 189.99 75.2625 190.979 69.1989 191.231C57.4813 191.719 39.5772 191.455 29.004 185.984C28.3193 185.629 26.945 184.898 26.8965 184.119C27.3513 179.232 27.8385 174.218 29.3714 169.561C36.56 165.796 43.1156 161.017 49.7586 156.401C53.1222 155.735 56.6866 156.716 60.1198 156.972C68.2293 157.576 76.4732 158.178 84.5714 157.896C85.2869 157.872 88.3608 157.273 88.7007 157.665L88.7023 157.662Z" fill="#D52B1E"/>
<path d="M54.6433 91.2847C64.5366 95.8817 65.4075 107.52 64.4298 117.141C63.4214 117.2 62.3352 117.028 61.3398 117.195C58.1526 117.732 52.1311 124.212 49.865 126.687C48.8161 127.831 47.7429 130.084 46.0239 129.719L45.9025 129.15C47.3544 127.473 48.6995 125.691 49.9848 123.895C50.4768 123.576 51.6358 123.389 51.6148 122.498C51.0288 121.934 42.9273 128.425 41.7279 128.799C35.6352 128.326 29.6607 126.871 23.547 126.685C23.1326 126.607 21.9655 125.439 21.5625 125.06C19.9535 123.551 14.8628 118.453 12.9414 118.072C15.7757 115.814 18.5647 113.509 21.488 111.359C29.4438 105.508 39.4909 98.4182 48.345 94.1853C50.438 93.185 52.832 92.7204 54.6465 91.2847H54.6433Z" fill="#D52B1E"/>
<path d="M88.4241 156.504C79.2138 157.21 69.9987 156.224 60.8143 155.577C58.3799 155.405 55.8903 155.499 53.4785 154.993C58.3734 150.633 62.8943 145.892 66.9815 140.772C68.7086 138.61 70.0635 136.085 72.1224 134.264C77.8655 134.01 83.636 134.723 89.3742 134.71L89.5604 134.991L89.3694 148.691L88.4257 156.503L88.4241 156.504Z" fill="#F7F0EF"/>
<path d="M130.832 47.0263C130.588 47.1202 130.241 47.6382 129.783 47.6365C129.484 47.6365 128.2 46.9891 127.617 46.8628C118.304 44.8314 107.318 45.61 97.8969 46.8272C83.8566 48.6401 58.3754 54.4868 48.1211 64.4967C48.1179 63.7602 48.8463 63.0706 49.2914 62.5219C57.4851 52.4375 63.6814 50.4304 74.7693 44.888C75.106 44.7197 75.5026 44.7828 75.3812 44.2308C78.1588 43.5591 81.9692 42.4098 84.7015 42.1347C93.724 41.225 103.612 40.1955 112.776 41.2039C116.262 41.5875 120.38 42.9229 123.792 43.933C126.131 44.6258 128.519 46.1619 130.834 47.0263H130.832Z" fill="#5A321B"/>
<path d="M95.416 99.2047C98.213 101.291 100.201 103.235 101.862 106.435C102.344 107.366 103.443 109.603 103.553 110.518C103.587 110.803 103.471 111.073 103.338 111.317C103.121 111.665 102.577 111.665 101.706 111.317L101.297 111.683C98.8492 111.074 99.0758 111.41 101.259 112.586C106.075 114.419 108.993 116.453 110.912 121.245C111.294 121.8 111.752 122.31 112.344 122.642L112.423 123.197C107.206 127.025 102.77 134.26 101.939 140.667C102.129 140.874 101.925 141.366 101.706 141.599C102.329 141.818 102.331 142.077 101.706 142.299C101.706 143.815 101.915 145.055 102.404 146.489C101.91 146.983 97.9978 142.835 97.2791 142.53C97.2629 140.685 96.8129 138.532 96.8129 136.823V133.328C96.8129 132.567 96.5491 131.452 96.5798 130.416C96.6365 128.517 96.9829 126.578 97.046 124.592C96.5572 123.611 96.5572 122.834 97.046 122.263C97.0411 116.656 96.4989 111.466 95.2557 106C94.775 103.884 93.5755 101.013 93.3198 99.0801C93.2308 98.4115 94.919 99.093 95.4144 99.2031L95.416 99.2047Z" fill="#D52B1E"/>
<path d="M87.9587 107.589C89.2989 116.036 89.6421 124.678 89.4899 133.228L73.0361 132.878C72.1895 131.57 73.5735 131.337 74.2129 130.534C75.7846 128.561 74.2469 127.376 74.4816 126.39C74.5787 125.986 75.4496 125.406 75.5952 124.464C75.8591 122.763 74.9283 122.29 74.9073 121.225C74.8798 119.922 75.7328 117.449 75.8429 115.858C75.987 113.76 75.9109 111.282 75.613 109.223C75.7571 109.075 77.9698 110.773 78.4085 110.967C80.6795 111.971 82.8841 111.882 85.0095 110.581C86.2623 109.813 86.6006 108.938 87.4277 107.884C87.5767 107.695 87.4213 107.457 87.9587 107.589Z" fill="#D52B1E"/>
<path d="M69.788 94.7796C73.9399 101.761 73.744 109.597 73.2406 117.389C73.239 118.284 73.4365 119.021 73.982 119.704C73.8865 119.922 74.2232 120.575 73.6372 120.398C72.81 120.149 71.0651 118.815 69.8495 118.36C68.4089 117.821 66.9132 117.418 65.3609 117.373C66.4924 113.169 66.099 108.537 65.2881 104.288C64.0061 97.5783 60.6684 93.4587 54.8768 90.0029C54.6938 89.2518 57.1866 89.3942 57.7726 89.4218C60.1892 89.5351 65.6571 90.5354 67.4603 92.1007C68.3474 92.8712 68.9463 93.9492 69.788 94.7812V94.7796Z" fill="#404040"/>
<path d="M68.6227 136.71C67.0348 138.994 65.3045 141.229 63.4915 143.34C60.7576 146.521 57.1609 150.491 53.9478 153.133C52.4085 154.401 51.3013 155.912 49.5127 154.299C48.9575 153.798 46.0406 150.097 46.018 149.614C45.9743 148.701 49.6924 145.223 50.56 144.389C52.7468 142.29 55.1246 140.184 57.4361 138.219C58.1629 137.602 60.811 135.19 61.4115 134.97C62.4685 134.583 63.4996 135.739 64.5793 136.208C66.041 136.846 67.017 137.118 68.6227 136.71Z" fill="#404040"/>
<path d="M91.6878 98.2723C91.5017 98.609 91.2346 98.7612 90.8882 98.7272C94.943 111.162 97.0035 124.707 94.0187 137.639C93.1608 140.564 92.3094 144.939 90.4058 147.354C90.4819 140.426 90.5418 124.456 90.5256 124.009C90.2148 115.704 89.9995 107.453 86.7962 99.6693C85.8476 99.3973 86.6861 97.8126 87.4955 98.2723C87.85 97.8013 88.389 97.3513 88.6641 96.7476C90.1323 96.7977 90.9821 96.9434 91.6894 98.2723H91.6878Z" fill="#404040"/>
<path d="M65.1255 76.1473C65.0025 76.6377 64.4716 76.6296 64.0799 76.6312C61.6551 76.641 57.0241 75.7588 54.5928 75.1453C49.6575 73.8989 43.3447 71.1779 48.5778 65.5417C50.5122 63.4585 54.7013 60.8281 57.2814 59.5672C57.7897 59.3195 59.5282 58.2285 59.5282 58.2285C59.5282 58.2285 60.6807 62.4403 60.6823 62.7495C60.6823 63.2367 60.0057 64.0946 59.8195 64.666C58.2737 69.433 60.5285 74.2421 65.1255 76.1473Z" fill="#371D0E"/>
<path d="M133.861 48.4251C131.447 51.1137 130.482 54.0856 129.667 57.5091C129.772 57.5512 129.871 57.5997 129.945 57.6726C130.081 57.8053 129.343 60.8921 128.967 61.2353C128.603 68.6261 131.329 77.8979 137.516 82.3897C138.066 82.7896 138.657 82.9887 139.152 83.3092C139.379 83.4565 139.568 83.2833 139.451 83.8288C130.936 85.844 125.711 76.064 124.573 69.0065C123.619 63.0903 123.815 60.6542 125.473 55.1798C126.517 53.0253 128.517 50.3853 130.688 49.1389C131.454 48.6986 133.143 47.954 133.859 48.4251H133.861Z" fill="#8F2C28"/>
<path d="M151.334 77.3091C150.871 79.02 148.258 81.5322 146.683 82.327C140.893 85.2471 135.53 80.3409 133.039 75.4508C130.451 70.3698 129.912 64.5199 130.365 58.908C129.92 57.7878 130.77 55.915 131.299 54.769C135.814 44.9938 145.264 44.034 150.294 54.1863C153.645 60.9459 153.587 69.4747 151.971 76.7021L151.334 77.3091Z" fill="#8F2C28"/>
<path d="M28.3152 162.563C28.4463 163.018 29.029 162.576 29.2556 162.455C34.9631 159.368 40.2821 155.203 45.6787 151.613L49.0423 155.434C44.5926 158.596 40.1671 161.89 35.5199 164.758C33.7572 165.846 31.3081 167.443 29.492 168.282C28.4835 168.748 27.399 169.29 26.253 169.052C25.8241 168.785 25.9066 164.943 26.1963 164.287C26.3809 163.869 27.1578 163.381 27.6175 163.029C27.4184 162.375 27.794 162.139 28.3168 162.563H28.3152Z" fill="#717171"/>
<path d="M78.1747 51.9199C78.1877 54.9323 78.1553 58.1097 77.6778 61.0881C77.5354 61.98 77.1388 64.2769 76.4023 64.7042C73.9144 66.1448 74.0051 62.3928 73.0112 60.9262C71.1157 58.1275 66.8764 58.639 64.1862 59.9469C63.3477 60.3548 62.5367 61.2435 61.8682 61.5915C61.5429 61.7615 61.5089 61.755 61.2887 61.4653L60.2706 58.5128C60.2091 58.2166 60.4211 58.1437 60.6105 58.0078C61.9281 57.0511 66.2969 55.5652 68.0354 54.9452C71.352 53.762 74.761 52.7892 78.1731 51.9215L78.1747 51.9199Z" fill="black"/>
<path d="M43.6922 143.695C44.1957 144.013 45.0519 143.734 45.6347 143.655C46.7726 143.501 48.3783 143.032 49.4062 142.999C49.7558 142.988 50.0779 142.836 49.9808 143.342L44.7331 148.828C44.3689 149.401 45.2753 150.228 44.9888 150.682C44.9127 150.801 42.9185 152.279 42.6968 152.363C42.2079 152.55 42.0299 152.553 41.5167 152.525C39.1324 152.399 34.6892 151.416 32.3551 150.711C31.8079 150.546 31.7141 150.884 31.8112 149.984C31.2398 149.498 31.468 148.211 31.9326 147.663C32.9572 146.455 41.431 143.788 42.6077 143.546C42.9719 143.472 43.3458 143.585 43.6922 143.694V143.695Z" fill="#F7F0EF"/>
<path d="M51.6124 85.9259L54.4062 88.4932C54.0711 90.2154 52.2598 89.5032 51.0329 89.657C46.5038 90.2235 42.0088 93.074 38.2098 95.4713C33.5528 98.4108 29.0562 101.672 24.7003 105.025C24.3458 104.722 24.7505 104.162 24.8185 103.861C26.463 102.441 26.7058 102.333 28.0801 100.599C30.6764 97.3279 36.6785 91.8843 40.3529 89.9241C43.6631 88.1581 48.082 87.2613 51.6124 85.9243V85.9259Z" fill="#242E5F"/>
<path d="M95.4176 99.2041C99.7298 100.162 103.508 104.594 105.316 108.524C105.882 109.755 106.638 111.666 106.133 112.945C110.936 113.503 111.26 119.094 114.278 121.937C114.426 122.565 112.7 122.995 112.425 123.198C109.868 122.11 109.244 118.008 107.42 116.438C104.982 114.34 100.818 113.523 98.4462 111.2C99.5161 110.706 100.63 110.995 101.706 111.318C103.087 111.768 103.631 111.768 103.338 111.318C102.121 107.757 100.72 104.429 97.8683 101.762C97.0347 100.981 95.45 100.449 95.416 99.2057L95.4176 99.2041Z" fill="#DD554B"/>
<path d="M129.666 57.5091L131.364 53.2665C140.467 37.5217 152.711 50.0599 153.867 63.2457C154.163 66.6222 153.898 74.0277 152.336 77.0206C152.072 77.5273 151.785 77.2845 151.335 77.3087C153.38 69.7528 153.193 58.6745 148.496 52.0784C142.667 43.8928 134.881 47.4782 131.49 55.489C131.001 56.6447 130.793 57.7535 130.365 58.906C130.095 59.636 129.689 61.1981 128.967 61.2353C128.998 60.6072 129.061 59.3803 129.208 58.8332C129.244 58.7021 129.545 58.0206 129.666 57.5075V57.5091Z" fill="#BC584C"/>
<path d="M24.5869 145.559C24.6581 144.376 25.5112 145.156 26.0421 145.045C28.9929 144.418 30.2442 145.511 31.8742 145.281C35.9548 144.705 40.3965 142.655 44.537 142.553C44.9563 142.544 45.7381 142.634 45.5552 143.228C44.898 143.246 44.3023 143.497 43.6905 143.696C41.4875 144.412 39.2181 144.972 37.0458 145.789C36.2187 146.1 32.3954 147.628 32.0894 148.17C31.926 148.46 32.0635 149.425 31.8078 149.986C31.3724 150.945 31.1506 150.914 30.8754 152.316C30.869 154.579 30.4659 157.173 29.71 159.303C29.464 160.364 29.124 161.375 28.7809 162.405C28.721 162.688 28.3649 162.525 28.3131 162.565C28.0913 162.732 27.8356 162.861 27.6138 163.031L26.4484 162.565C27.2707 161.74 28.6061 154.211 28.7744 152.662C28.8877 151.623 29.294 148.169 28.7744 147.544C28.3924 147.084 25.2295 145.655 24.582 145.561L24.5869 145.559Z" fill="black"/>
<path d="M91.6877 98.2723C94.1659 102.926 95.8671 112.402 96.5518 117.751C96.7363 119.192 96.6198 120.872 97.0471 122.264C97.0471 123.038 97.0714 123.821 97.0471 124.594L96.118 122.964C96.1358 127.604 95.6356 132.705 94.3682 137.18C94.3034 137.412 94.0363 137.575 94.0185 137.637C93.6203 137.397 93.7709 136.769 93.8114 136.386C94.1141 133.475 94.7971 130.387 94.9606 127.514C95.4397 119.106 93.7644 110.718 91.6229 102.646C91.4125 101.851 89.9654 98.4358 90.5271 98.0376L91.6893 98.2707L91.6877 98.2723Z" fill="#717171"/>
<path d="M102.173 140.667C102.469 140.047 103.419 139.979 104.036 139.966C103.403 139.039 103.469 138.043 103.73 136.983C104.363 134.403 108.643 127.574 110.671 125.753C111.127 125.343 111.818 124.733 112.424 124.595C112.696 124.885 109.761 128.328 109.389 128.896C107.571 131.679 104.701 138.097 106.954 141.127C107.331 141.635 108.102 141.876 108.581 142.305C109.123 142.789 109.418 143.71 110.326 143.697C110.491 144.396 109.868 144.149 109.394 144.16C108.758 145.012 103.709 143.974 103.139 143.568L102.87 142.996C102.542 142.886 102.058 142.465 101.705 142.297C101.705 142.066 101.692 141.829 101.705 141.598C101.87 141.277 102.025 140.967 102.171 140.665L102.173 140.667Z" fill="black"/>
<path d="M54.8763 81.7344C55.8071 80.9364 58.1574 80.5609 59.3131 80.9089C59.8683 81.0756 60.2131 81.592 61.071 81.7134C62.7787 81.9562 64.8603 81.5661 66.6149 81.749L67.2236 80.8021C67.2835 80.8441 67.6137 80.7147 67.7059 80.9477L68.852 83.5959C66.916 83.1184 63.7353 81.9902 61.8625 82.7817C61.1276 83.0925 59.6287 84.4149 58.957 85.0009C58.3128 85.561 56.2182 87.9825 55.6776 88.0359C55.0576 88.0974 52.9048 85.8879 52.8141 85.2923C52.7235 84.6966 54.3794 82.1585 54.8747 81.7344H54.8763Z" fill="#404040"/>
<path d="M31.3434 152.313C31.3936 151.983 31.1346 151.491 31.6769 151.625L40.4274 153.823L30.2897 160.462C29.6017 160.662 30.1456 159.584 30.178 159.301C30.1893 157.014 30.5859 154.472 31.3434 152.313Z" fill="#D52B1E"/>
<path d="M141.501 99.0203C141.613 99.085 141.846 99.3198 142.003 99.5318C142.16 99.7439 142.414 100.176 142.484 100.301C143.086 101.393 142.105 101.617 142.291 102.287C144.384 104.597 143.385 108.548 147.121 108.54C147.016 109.668 147.986 111.495 147.49 112.486C147.073 113.321 143.248 113.802 142.819 113.19L140.184 98.5784C140.174 98.3777 141.301 98.9038 141.5 99.0187L141.501 99.0203Z" fill="#212492"/>
<path d="M73.9811 119.703C73.0795 120.005 72.8691 118.524 72.814 117.956C72.5647 115.382 73.1798 111.923 73.0584 109.094C72.9872 107.459 72.7995 105.175 72.5227 103.573C72.0015 100.552 70.5187 97.7356 69.7871 94.7783C71.2601 96.2367 71.6712 96.8211 72.513 98.9237C74.826 104.696 76.4949 113.911 73.9811 119.701V119.703Z" fill="#717171"/>
<path d="M87.4957 98.2725C87.0166 98.907 86.8321 98.5946 86.7965 99.6694L85.5048 100.126L85.283 101.764C82.8631 98.4667 80.9029 94.7697 78.0653 91.7427C77.3661 90.9965 76.0436 90.5724 76.0808 89.4199C76.819 88.711 79.2971 92.1409 80.1016 92.5035C81.8449 93.2886 83.4798 94.0785 85.1891 94.8716C85.7783 95.1452 87.3015 95.4803 87.7288 95.825C88.4621 96.4142 87.1736 97.4243 87.4974 98.2709L87.4957 98.2725Z" fill="black"/>
<path d="M117.026 60.8148C120.129 60.5429 119.615 69.2514 116.291 68.9212C113.566 68.6508 114.198 61.0625 117.026 60.8148Z" fill="black"/>
<path d="M68.1565 87.3291L66.8438 90.1391C63.7262 89.4722 60.6977 88.1983 57.4425 88.488C57.0557 88.1109 58.9463 86.2866 59.3153 86.0535C61.282 84.8185 65.9665 86.8629 68.1565 87.3291Z" fill="#242E5F"/>
<path d="M123.607 58.6756L123.143 58.3308L123.248 47.484C123.47 47.1393 125.077 47.4954 125.52 47.5634C126.527 47.7171 127.537 47.9858 128.504 48.3079C128.878 48.5993 128.657 48.541 128.504 48.7757C128.07 49.4329 127.105 50.1953 126.543 51.0095C125.069 53.1445 123.845 56.0824 123.609 58.6756H123.607Z" fill="#371D0E"/>
<path d="M142.944 84.5285L143.368 87.5133C141.788 88.2223 140.438 89.7309 140.383 91.5179C139.571 91.581 139.245 91.4677 139.004 90.6827C138.823 90.0935 138.156 85.5256 138.321 85.2601L142.944 84.5269V84.5285Z" fill="#212492"/>
<path d="M21.5571 125.06C21.6267 125.127 22.1285 126.817 22.0217 126.924C21.1508 126.919 20.581 126.048 19.7636 125.574C18.4865 124.832 16.9342 124.156 15.5081 123.772C14.4916 123.5 12.1397 123.798 12.4569 122.404C12.5152 122.147 13.1756 122.171 13.4119 121.925C13.9072 121.409 13.2371 120.277 15.3284 120.682C16.8856 120.985 19.4285 123.809 20.8837 124.931C21.0942 125.094 21.5263 125.03 21.5587 125.06H21.5571Z" fill="black"/>
<path d="M109.396 144.161C108.977 145.535 105.445 147.487 104.202 147.199C103.294 146.011 102.899 144.478 102.873 142.995C104.365 143.495 107.855 144.193 109.396 144.161Z" fill="#8F2C28"/>
<path d="M56.7377 137.641C57.301 138.18 54.3501 139.709 54.1866 139.863C53.5262 140.485 53.1863 141.903 51.9059 142.243C51.0335 142.474 48.272 142.914 49.0457 141.377L47.1875 140.551C47.8803 140.002 48.8126 140.303 49.6058 140.175C52.262 139.75 54.3275 138.712 56.7377 137.641Z" fill="black"/>
<path d="M71.1851 77.076C71.3826 77.2734 71.0459 81.7798 70.7869 82.382C70.528 82.9841 69.8983 82.6653 69.5406 82.3286C69.0307 81.8478 67.221 77.1715 67.4589 76.8429C67.6402 76.7927 67.739 77.076 67.8053 77.076H71.1835H71.1851Z" fill="black"/>
<path d="M49.9848 123.897C50.1094 124.447 49.8861 124.663 49.6465 125.072C49.0249 126.136 46.9028 128.734 46.0239 129.719C45.8879 129.872 45.1563 130.466 44.9782 130.419C44.5315 129.012 43.3952 130.64 42.9824 129.133C42.9857 128.704 45.8588 126.725 46.4512 126.304C47.5649 125.512 48.842 124.638 49.9848 123.897Z" fill="black"/>
<path d="M125.472 55.1795C125.475 55.1536 125.242 55.0063 125.25 54.8266C125.281 54.1079 127.524 51.6297 128.034 50.8706L127.337 50.7524C128.376 49.8945 130.054 48.6789 131.288 48.0654C132.44 47.4924 133.73 47.0861 135.025 47.0278C135.254 48.0589 134.669 48.0719 133.862 48.4248C132.919 48.8359 131.817 49.0641 130.909 49.5497C128.679 50.7395 127.102 53.3245 125.474 55.1811L125.472 55.1795Z" fill="#BC584C"/>
<path d="M106.282 81.0674C108.236 81.6566 110.038 84.9134 106.927 85.2258C104.583 85.4605 104.847 82.0807 106.282 81.0674Z" fill="#DD554B"/>
<path d="M11.0747 118.072C11.4146 118.207 13.7908 119.835 13.8393 120.083C13.9624 120.716 12.2385 121.878 11.8905 122.495C10.7995 121.182 10.0484 119.516 9.67773 117.839C10.0711 117.941 10.7396 117.94 11.0763 118.072H11.0747Z" fill="#8F2C28"/>
<path d="M107.066 80.1072C109.292 79.2882 110.341 80.4439 109.751 82.6728L109.154 82.7893C108.973 82.0318 106.676 80.6964 107.066 80.1056V80.1072Z" fill="black"/>
<path d="M31.3465 152.313C30.9952 154.652 30.4578 156.948 30.181 159.301H29.7148C30.2458 157.017 30.4303 154.61 30.8803 152.313H31.3465Z" fill="#AD8F7E"/>
<path d="M102.173 140.667C102.07 140.884 102.288 141.491 101.707 141.599C101.735 141.088 101.914 140.861 101.94 140.667H102.173Z" fill="#AD8F7E"/>
<path d="M94.4839 9.52504C98.7783 10.0705 103.633 12.6879 107.707 14.3584C109.845 15.2357 111.801 15.5837 113.893 16.7913C119.839 20.2212 120.478 25.9255 121.742 32.1185L119.646 32.3532C119.499 32.9473 118.144 32.8923 117.782 32.5863C117.301 32.7514 116.746 32.5685 116.114 32.0376C115.245 31.8255 114.714 31.4646 114.52 30.9563C112.076 30.4302 109.321 30.6682 106.945 31.4193C106.278 31.6297 104.5 32.5701 104.152 32.5701C103.71 32.5701 102.292 31.6863 101.52 31.4921C97.6031 30.5031 93.1145 32.0748 90.1378 34.6598C87.5593 32.9813 84.1957 33.4313 81.507 34.6404C80.6848 35.0111 79.1502 36.3805 78.7019 36.51C78.1742 36.6605 75.8336 36.2154 74.7976 36.3174C73.179 36.4792 71.1168 37.3614 69.8056 38.3148C69.3492 38.6466 68.7325 39.5304 68.3828 39.6875C67.614 40.0339 64.9723 40.0678 63.4977 40.6263C61.6184 41.3369 60.7573 42.5137 59.3879 43.2728C58.2969 43.8766 56.5099 44.0061 55.4545 44.9304C55.011 44.5451 55.0628 42.8504 54.875 42.6027C55.6196 42.5849 55.8559 41.6412 56.0275 41.0763C56.6215 39.1015 56.6248 36.7107 57.0813 34.676C58.4409 28.6028 62.0036 25.5775 66.5214 21.7525C71.1864 17.803 79.7912 11.5937 85.6298 9.99283C86.0296 9.88276 87.7924 9.52666 88.0756 9.52666H91.5703C92.6791 9.52666 93.0984 9.35022 94.4823 9.52666L94.4839 9.52504Z" fill="#5A321B"/>
<path d="M117.783 38.8758C117.172 39.4731 107.334 38.5877 105.753 39.0037L104.754 33.8903C104.83 33.56 106.424 32.8753 106.834 32.8187C107.536 31.9948 109.887 32.0158 111.02 32.1308C112.794 32.3104 116.488 33.2072 116.734 35.237C116.687 36.6485 117.036 37.8625 117.784 38.8742L117.783 38.8758Z" fill="#8F6852"/>
<path d="M103.338 38.8749C99.5263 38.8684 95.7256 39.3993 91.9395 39.791L91.0137 35.5388L93.3187 33.7517C95.6868 32.4714 101.904 32.5555 103.078 35.5307C103.39 36.3238 103.934 38.3229 103.337 38.8749H103.338Z" fill="#8F6852"/>
<path d="M117.784 32.5847C118.998 32.711 120.415 32.7919 122.032 32.8292L122.211 33.0509C122.584 33.0396 123.038 33.1043 123.377 33.0509C123.692 33.8311 124.869 33.8991 125.589 34.4495C127.436 35.861 128.055 39.8915 127.104 41.9018C126.234 41.5474 124.702 40.9225 123.843 40.7364V40.5033C124.121 40.1326 124.581 40.1084 125.22 40.4337C125.406 40.2443 124.796 37.1672 124.604 36.8759C123.908 35.8221 120.028 34.6 118.684 34.4139L118.25 33.9817C117.995 34.061 117.69 33.9849 117.569 34.3572C117.617 35.5518 118.723 37.9555 117.784 38.8733C116.031 38.8199 116.601 35.8027 116.102 34.6146C115.703 33.6628 111.942 32.6511 110.908 32.588C109.969 32.5313 107.784 32.6867 106.834 32.8162C106.751 32.1623 106.769 32.2303 107.292 32.0004C109.318 31.1085 111.099 31.2105 113.245 31.1895C113.639 31.1862 114.281 31.3384 114.524 30.9531C115.581 31.1814 116.991 31.8547 117.786 32.5831L117.784 32.5847Z" fill="#AD8F7E"/>
<path d="M85.1664 34.9147C85.2246 34.7626 85.2845 34.6444 85.3444 34.6428C86.4645 34.6282 88.9929 35.3307 89.4559 36.3537C89.4623 37.8445 89.8961 38.9177 90.7589 39.5733C90.7508 39.7271 90.7718 39.8841 90.7605 40.0395L80.2569 41.5724L79.4492 37.4868C79.9024 36.4606 84.077 34.8759 85.1664 34.9164V34.9147Z" fill="#8F6852"/>
<path d="M76.3124 37.4767C76.6184 37.467 78.3649 37.8895 78.5268 38.1744L79.0901 42.1191C76.7543 42.9058 73.3389 43.3914 71.1861 44.4646L70.5936 44.8272C68.6674 41.5137 70.1048 40.0391 73.1204 38.3168C73.8812 37.8814 75.6763 36.8875 76.3108 37.4767H76.3124Z" fill="#8F6852"/>
<path d="M118.252 33.9833C119.319 33.6531 124.341 35.5826 125.015 36.6557C125.327 37.1559 126.015 41.188 125.8 41.4179C125.151 41.3968 123.503 40.6943 122.889 40.5244C121.439 40.123 120.95 39.6034 119.419 39.571C119.471 37.7014 119.118 35.6473 118.252 33.9817V33.9833Z" fill="#8F6852"/>
<path d="M67.9253 41.2042C68.4546 42.2046 68.4724 44.2101 68.8398 45.3723C68.5679 45.7495 63.0272 47.4232 62.1013 47.959C60.9213 48.1969 60.7546 45.1052 61.1301 44.2619C61.5946 43.2195 66.7323 40.6717 67.6663 40.9873C67.765 41.0213 67.8476 41.1055 67.9253 41.2042Z" fill="#8F6852"/>
<path d="M59.5358 44.6978C59.6232 46.1951 60.617 47.5208 60.6251 48.9047C58.9288 49.9747 56.8747 51.0883 55.3418 52.3849C54.4078 52.4885 53.9384 50.1511 53.9902 49.3596C54.1132 47.49 57.6581 44.2834 59.5358 44.6994V44.6978Z" fill="#8F6852"/>
<path d="M93.3184 33.7508C93.32 33.2166 93.6243 33.1389 94.0031 32.922C96.1705 31.6772 102.493 31.8699 103.901 34.2347C104.343 34.9761 105.311 38.173 104.677 38.8205C104.227 39.2624 103.723 38.8771 103.336 38.8755C103.061 37.8363 102.932 36.3326 102.522 35.3808C101.468 32.9366 95.5278 33.4821 93.3184 33.7508Z" fill="#AD8F7E"/>
<path d="M76.312 37.4764C75.8993 37.4894 73.4809 38.6208 72.9808 38.9203C72.602 39.1469 70.4718 40.7591 70.3699 40.9679C70.0235 41.6736 70.3213 43.0787 70.5609 43.8216C70.6839 44.2036 70.6094 44.5824 71.1873 44.4642C70.8166 44.6488 70.603 45.0097 70.488 45.3966C70.3423 45.4452 69.9636 45.7171 69.5557 45.8628L68.8499 42.9605C68.1911 40.0857 70.7907 38.3392 73.1588 37.4683C73.7594 37.2466 76.3622 36.2397 76.3136 37.478L76.312 37.4764Z" fill="#AD8F7E"/>
<path d="M67.924 41.2042C66.5498 41.5393 62.3639 43.2972 61.6177 44.3315C61.1531 44.9774 61.5173 47.3212 62.0984 47.959C61.8071 48.1273 61.5044 49.1681 60.7031 48.8897C60.5267 47.4135 59.2383 44.8899 60.2321 43.6452C61.124 42.5251 65.7275 40.3204 67.0969 40.5001C67.5453 40.5584 67.7314 40.84 67.924 41.2042Z" fill="#AD8F7E"/>
<path d="M55.3412 52.3846C55.0854 52.6015 54.6079 53.5112 53.9621 53.0644C53.8277 52.9705 53.0588 50.2107 53.0265 49.9145C52.7108 47.0316 56.9436 44.2378 59.5351 44.2329C59.5481 44.3867 59.5254 44.5437 59.5351 44.6975C57.7562 45.2446 54.1628 47.8215 54.4557 49.8772C54.5496 50.5393 55.0126 51.7614 55.3412 52.3846Z" fill="#AD8F7E"/>
<path d="M90.7569 39.5732C89.0767 40.2401 89.3471 37.0092 88.8971 36.1918C88.6397 35.894 85.5966 34.9308 85.166 34.9147C85.2081 34.2413 85.2761 34.3546 85.807 34.3675C86.9417 34.3934 89.0767 34.5877 89.9492 35.3744C90.663 36.0186 90.8152 38.5745 90.7585 39.5732H90.7569Z" fill="#AD8F7E"/>
<path d="M119.646 32.3529C120.571 32.3205 122.099 31.9822 122.209 33.0521C121.273 33.0829 118.633 33.235 117.929 33.0618C117.654 32.9939 117.817 32.6183 117.783 32.5859C118.395 32.3367 119.005 32.3755 119.648 32.3529H119.646Z" fill="#EED3CA"/>
<path d="M103.337 111.317C103.384 111.457 104.205 111.63 103.683 112.02C102.979 112.078 102.249 111.479 101.707 111.317H103.339H103.337Z" fill="#AD8F7E"/>
<path d="M140.089 48.9468C149.286 47.4722 152.286 63.1685 151.562 69.7354C149.85 85.2715 137.204 84.0381 133.741 69.8568C132.36 64.2028 132.418 50.177 140.089 48.9484V48.9468Z" fill="#EED3CA"/>
<path d="M138.985 77.7752C139.066 77.0597 138.91 76.8266 138.518 77.0759C138.193 76.5563 137.204 76.0399 137.353 75.2128C139.613 70.551 141.393 65.075 142.918 60.0118C143.083 59.4615 142.102 56.3196 141.997 56.5446L135.796 70.4863L135.255 70.5542C133.581 65.5979 133.481 57.9043 136.324 53.3364C138.025 50.6008 139.749 49.7591 142.368 52.1467C147.559 56.8813 148.983 72.2409 144.569 77.6538C142.216 80.5382 141.306 79.4246 138.983 77.7752H138.985Z" fill="#BFCEE2"/>
<path d="M137.355 75.2122C136.651 75.2932 136.005 75.0131 135.817 74.2847C135.668 73.7069 136.021 73.3427 135.977 73.0335C135.947 72.8166 135.404 72.836 135.293 72.5091C135.192 72.2209 135.197 70.9049 135.26 70.5553L141.787 55.8804C142.4 55.4174 143.045 57.8633 143.111 58.1611C143.255 58.7989 143.456 59.4593 143.37 60.1246C141.643 64.495 140.536 69.5501 138.634 73.8105C138.347 74.4515 138.151 75.12 137.357 75.2122H137.355Z" fill="#DFE6F0"/>
<path d="M142.016 50.2902C143.183 50.1349 144.327 50.949 145.154 51.692C150.716 56.684 151.992 69.6901 148.583 76.0693C148.091 76.9887 145.965 79.6482 144.928 79.632C144.644 79.6271 144.594 79.3811 144.811 79.0557C145.295 78.329 145.9 77.8757 146.41 76.9272C150.306 69.6755 148.578 55.7565 142.017 50.2919L142.016 50.2902Z" fill="#8F2C28"/>
<path d="M138.984 77.7755C138.192 77.2138 138.79 77.5116 138.518 77.0762L143.874 63.7998C143.929 64.3081 144.112 64.7095 144.063 65.2453C143.935 66.6228 142.364 70.8135 141.784 72.3043C141.051 74.1917 140.198 76.1632 138.984 77.7738V77.7755Z" fill="#DFE6F0"/>
<path d="M124.834 32.7602C125.128 33.0645 126.208 33.4158 126.763 33.9742C128.662 35.8778 127.794 39.6266 128.084 42.0886L133.753 45.8634C138.808 45.2629 142.931 44.0213 147.251 47.4983C155.538 54.1672 157.345 69.8748 151.987 78.7776C150.27 81.6313 147.662 83.7744 144.366 84.5498L144.578 86.8596C146.867 86.3513 149.727 85.6893 151.149 88.093C151.853 89.2844 151.743 90.5745 152.154 91.5133C152.646 92.6334 153.915 92.6383 154.26 95.0032C154.425 96.1362 153.863 97.2386 153.949 97.6626C154.012 97.9767 154.846 98.6678 155.006 99.6115C155.234 100.965 154.744 102.326 154.831 103.275C154.896 103.98 156.019 105.29 156 106.766C155.938 111.319 150.13 115.858 146.205 117.257C145.093 117.653 141.917 117.93 141.414 118.289C140.91 118.649 139.439 120.722 138.873 121.339C133.296 127.406 127.654 134.227 121.864 139.973C119.031 142.785 116.914 144.339 112.775 144.583C112.365 144.607 111.983 144.281 111.43 144.433C110.818 144.601 108.893 146.655 107.92 147.23C106.828 147.876 104.952 148.712 103.687 148.599C101.172 148.373 96.8745 143.685 95.0518 141.838C94.7119 141.495 94.8576 140.974 94.2538 141.135C93.4995 143.805 92.2645 146.33 90.5794 148.53L88.8895 163.842C89.8138 165.158 90.9534 166.021 90.9954 167.816C91.0213 168.917 90.2913 170.162 90.2865 171.063C90.28 172.175 90.6976 173.868 90.7543 175.029C90.9485 179.064 91.0035 183.109 91.2285 187.145C91.2026 187.986 90.7542 188.428 90.0534 188.775C91.1411 190.403 91.2933 192.119 91.0812 194.018C93.2859 202.483 97.0493 211.224 98.9787 219.683C99.1633 220.489 99.466 221.493 99.3915 222.312C99.1908 224.53 96.8809 224.389 96.6203 225.145C96.9343 229.985 95.5617 234.643 94.1389 239.203C91.5118 247.623 87.9232 255.765 85.4013 264.229C85.4822 265.069 91.7821 271.638 92.8521 272.63C94.9871 274.608 98.8055 276.764 99.6812 279.545C100.309 281.543 100.322 286.064 97.9865 286.842C95.1247 287.796 88.2906 286.687 85.1164 286.185C78.2937 285.109 71.5471 283.31 65.0141 281.125C65.3055 285.415 66.9808 288.589 61.6796 289.678C53.9019 291.276 42.6748 289.05 35.1836 286.491C33.8741 286.043 30.5558 284.908 29.5409 284.231C28.725 283.687 28.9678 280.46 29.0148 279.385C29.1281 276.806 29.4891 273.355 30.0135 270.834C30.2644 269.628 30.661 267.426 31.8264 266.822C32.4011 266.525 33.3156 266.683 33.628 266.062C36.9204 253.854 40.8424 241.843 44.6431 229.802C42.0079 228.957 38.9421 229.07 36.2875 228.087C35.496 227.795 35.0848 227.707 34.7222 226.857C34.099 225.4 33.458 222.56 32.9935 220.899C30.1689 210.787 27.4479 198.576 27.6033 188.062C27.6098 187.574 27.6616 187.145 27.8542 186.695L25.5557 184.759L25.7273 180.757C21.4588 180.068 16.9767 178.728 13.1647 176.662C9.40132 174.623 7.15621 172.051 7.1028 167.56C7.08985 166.513 7.55441 165.43 7.33751 164.316C7.25819 163.907 6.04581 162.652 5.67352 162.021C2.02988 155.872 5.11345 146.25 7.57546 140.069C7.38445 139.112 6.84381 138.317 6.57997 137.356C5.16525 132.199 8.25853 127.631 10.9973 123.549C9.98242 121.86 7.72599 118.629 8.32651 116.606C8.44792 116.195 12.7083 112.933 13.4237 112.386C16.2904 110.191 21.2015 107.401 23.5485 105.039C24.9989 103.579 26.378 100.694 27.6583 98.8993C33.4467 90.7817 37.7767 85.5533 48.0714 83.4345C49.075 83.2273 51.9368 83.1205 52.5438 82.7805C52.7607 82.6591 54.1318 80.4577 54.6335 79.9786C57.7738 76.9889 62.9665 78.5914 66.7574 79.1709L66.3625 78.0038C61.0014 77.4972 55.0981 77.188 50.1336 74.9462C43.1248 71.7816 43.5845 67.136 47.3236 61.2554C48.9115 58.7578 51.1243 56.4026 53.2237 54.3275C53.3677 53.8402 51.7782 50.2419 51.8591 49.0182C51.932 47.9126 53.4843 46.5287 54.1415 45.6999C51.6617 35.0652 55.5351 26.8877 63.4942 20.12C76.4306 9.11944 90.1553 5.39163 106.884 9.82356C116.634 12.407 121.865 15.0956 123.774 25.549C123.976 26.6529 124.494 32.409 124.834 32.7602ZM123.375 32.3507C122.191 25.6202 122.477 18.8671 115.993 14.9272C106.847 9.36871 90.9323 7.91676 80.9159 11.4471C67.9439 16.0182 52.144 28.0159 55.1483 43.6151C55.2098 43.9307 55.2146 44.842 55.6711 44.6785C56.6423 43.9388 58.1477 43.7802 59.1367 43.2492C60.532 42.4998 61.5226 41.3149 63.2708 40.627C64.8425 40.0086 67.332 40.0572 68.1559 39.6865C68.5881 39.4923 69.8814 38.0759 70.7361 37.6081C71.8611 36.993 73.5121 36.4119 74.7909 36.3051C75.7152 36.2274 78.0493 36.6078 78.4798 36.5091C78.6757 36.4637 80.5453 35.0442 81.1588 34.7512C84.2391 33.2782 87.2013 33.0839 90.3625 34.421C93.0965 31.9476 97.1658 30.753 100.835 31.25C101.832 31.3859 103.817 32.5012 104.157 32.5012C104.324 32.5012 106.596 31.4377 107.252 31.2565C109.829 30.5426 112.814 30.2885 115.405 31.1253C116.255 31.4005 117.229 32.2649 117.676 32.3523C119.092 32.6242 121.684 31.6288 123.377 32.3539L123.375 32.3507ZM117.784 39.1087C117.997 38.8998 117.446 34.7981 117.2 34.217C115.884 31.0914 107.274 31.7356 104.99 33.903L106.164 38.6117L117.783 39.1087H117.784ZM103.736 34.0519C103.581 33.8415 102.049 33.0613 101.701 32.9431C98.3928 31.8149 93.4121 33.2458 91.0262 35.7661L91.9456 39.5506L104.736 38.6409C104.316 37.5321 104.382 34.9292 103.736 34.0519ZM126.639 41.4379V36.6628C126.639 33.7654 120.533 32.9431 118.481 33.8706C119.071 35.6819 119.581 37.3702 119.447 39.311L126.639 41.4379ZM90.7591 39.8047C90.1505 38.0322 90.6992 36.1513 88.5949 35.3307C86.2398 34.4129 82.2125 35.2902 80.2928 36.917C78.6757 38.2864 80.3559 39.9164 80.2733 41.6726L90.7591 39.8063V39.8047ZM78.3763 37.9756C75.7103 37.2828 72.5183 37.7732 70.3768 39.5797C68.3405 41.2971 69.8183 42.4917 70.0239 44.6979L79.0415 41.8005L78.3763 37.9756ZM131.996 46.5594C132.327 46.111 129.839 44.6235 129.416 44.3677C119.173 38.1957 101.039 39.8484 89.5095 41.4703C79.1467 42.9287 62.9309 47.0402 55.2211 54.2417C51.8494 57.39 48.4437 61.3444 46.7247 65.6614C50.6516 61.38 55.9884 58.6348 61.2426 56.3039C78.3406 48.7155 110.776 42.4318 128.838 47.0385C129.182 47.126 129.429 47.4303 129.785 47.4902L131.996 46.5594ZM67.8921 41.2372C66.8238 40.5719 61.4158 42.7717 60.6858 43.8659C60.0415 44.8339 61.2588 47.0127 61.1697 48.1911L68.5962 45.3681L67.8921 41.2356V41.2372ZM60.2325 48.8822L59.3147 44.7967C58.5831 44.2658 55.2632 46.4833 54.6319 47.1324C52.6944 49.1283 53.6462 50.4718 54.292 52.8528H54.7598C56.3348 51.3135 58.1962 49.7547 60.2325 48.8806V48.8822ZM139.392 46.6177C138.254 46.7974 136.854 47.5905 135.956 48.306C127.149 55.3294 129.222 76.1909 138.832 81.7737C148.212 87.2238 153.45 75.0044 153.677 67.4193C153.907 59.7613 149.318 45.0508 139.394 46.6161L139.392 46.6177ZM121.732 47.2749C107.519 46.1628 93.2664 48.3821 79.4883 51.6744L79.3264 51.8282C79.3636 55.2129 79.4219 58.6445 78.8068 61.9822C78.4329 64.0136 77.6365 66.5161 75.0434 66.3494C72.2706 66.1713 73.1593 60.7827 70.1226 60.3182C66.0015 59.6885 61.6651 61.8284 60.7732 66.079C59.2937 73.1251 67.5133 78.1479 73.5866 74.6985C74.247 74.323 77.206 71.7023 77.7094 72.1847C76.9114 74.5123 74.6339 75.9465 72.4584 76.8319C72.4325 78.8067 72.5749 80.9142 72.0003 82.8971C71.5746 84.3636 67.8241 90.3819 67.905 90.9144C70.7021 93.2663 72.5215 96.8112 73.7533 100.248C74.6112 102.643 74.9544 105.882 76.4484 107.802C79.3005 111.463 84.9189 111.18 86.6072 106.585C87.4586 104.265 86.7367 103.25 86.0957 101.068C84.6599 102.287 83.9623 104.675 81.9746 105.215C81.6314 105.309 81.3481 105.397 81.4404 104.916L87.4959 96.1799C84.2488 95.055 80.9499 93.3877 78.1043 91.4744C77.6349 91.1588 73.8262 88.6644 74.451 88.0251C80.037 90.746 84.8283 94.1938 90.942 95.8773C102.459 99.0499 116.498 96.651 119.541 83.373C121.237 75.9772 121.802 65.7488 121.988 58.1006C122.021 56.7619 122.132 47.6407 121.732 47.2733V47.2749ZM134.792 47.2635C123.468 49.2545 122.796 64.7501 125.935 73.4699C127.877 78.8666 132.701 85.4077 139.217 83.7161C127.487 76.8999 125.303 56.7506 134.792 47.2635ZM123.375 47.4934V57.9759L125.352 52.6149C126.223 51.0755 127.293 49.7077 128.5 48.429L123.375 47.495V47.4934ZM78.1755 52.1536C72.1508 53.4841 66.3414 55.6321 60.702 58.0941C60.0658 58.5894 61.4045 60.7212 61.4045 61.4691C61.6052 61.6212 63.4731 60.0948 63.8891 59.8795C66.5842 58.4858 71.2282 57.9517 73.1528 60.786C74.1726 62.2865 73.8634 65.655 76.259 64.5575C77.1234 64.1609 77.5491 61.134 77.6818 60.1579C78.0379 57.5357 78.1108 54.7904 78.1771 52.152L78.1755 52.1536ZM59.3018 58.9067C53.5911 61.3606 39.2723 69.3909 51.728 74.0526C55.8475 75.5952 60.5336 76.1359 64.8943 76.3754L62.4566 74.7406C59.8311 72.3692 58.5281 68.9231 59.4135 65.4219C59.598 64.6951 60.4818 63.1719 60.4672 62.7769C60.4284 61.7345 59.2791 60.0899 59.3018 58.9067ZM136.857 85.4934C130.175 84.8832 126.138 78.716 124.188 72.8856L122.911 67.293C122.221 73.1219 122.095 79.8248 120.467 85.4659C117.974 94.1048 108.696 98.7229 100.194 98.7552C99.1519 98.7601 98.2649 98.4477 97.1577 98.5044C96.8939 98.5173 96.5184 98.3522 96.5815 98.7342C100.427 100.094 102.957 103.613 105.065 106.909C105.986 108.349 106.829 110.517 107.898 111.763C108.626 112.613 109.609 112.83 110.324 113.764C111.24 114.96 111.918 116.964 112.932 118.378C113.281 118.867 115.308 121.454 115.794 121.334L130.719 107.129C128.953 103.901 129.091 99.9061 130.015 96.4114C131.087 92.3582 133.178 90.3042 137.587 90.5874L136.856 85.4934H136.857ZM70.9514 77.0763C69.7601 77.4745 68.6545 77.3207 67.4583 77.0763C68.2094 78.3583 68.8423 82.235 70.3751 82.6608C70.9271 82.766 70.6536 82.4115 70.7248 82.091C71.0987 80.4238 70.9206 78.7743 70.9514 77.0747V77.0763ZM68.6237 83.3633L67.3045 80.8414C64.3019 79.9997 58.6527 78.6562 56.0386 80.6811C55.4235 81.1586 52.8271 84.5174 52.8643 85.1098C53.269 85.8415 54.8796 87.8082 55.7003 87.7855C56.2118 87.7709 58.4439 85.1875 59.0687 84.642C59.5349 84.2357 61.4352 82.6656 61.8544 82.5361C63.737 81.9534 66.7542 82.8582 68.6237 83.3633ZM69.323 84.9981C66.8934 84.4801 64.3699 83.3228 61.8674 84.0674C61.8075 84.6809 61.8545 84.4445 62.2138 84.5255C64.4249 85.0289 66.6716 85.4206 68.7468 86.3821L69.323 84.9965V84.9981ZM51.6147 84.2989C48.4615 84.574 45.3343 85.3882 42.4449 86.6589C35.3228 89.7894 31.0511 96.4341 26.9186 102.695L38.3545 95.1472C42.4433 92.6982 46.8364 89.7716 51.7296 89.4042C52.7866 89.3249 53.6899 90.1131 54.1674 88.6321C53.1055 87.52 50.739 86.0308 51.6147 84.2989ZM142.945 84.765L138.287 85.2296C138.073 85.4335 139.159 90.7719 139.35 91.0374C139.518 91.2721 139.842 91.3158 140.038 91.5149C140.473 89.4511 141.603 88.4459 143.143 87.1607L142.947 84.7634L142.945 84.765ZM67.9245 87.3274C66.2103 87.1251 61.419 85.16 60.0059 85.8172C59.7793 85.9224 57.3384 87.97 57.6734 88.2565C60.7813 88.195 63.8567 89.0772 66.7542 90.1229L67.9229 87.329L67.9245 87.3274ZM150.635 91.052C150.436 87.4812 148.217 87.397 145.27 88.1335C142.864 88.734 139.981 91.2155 142.83 93.1336C143.424 92.5201 144.316 92.0167 145.116 91.7075C145.391 91.6007 147.146 91.0536 147.257 91.0536H150.635V91.052ZM55.1094 89.6551C55.0188 90.0824 55.2389 90.1115 55.4995 90.3139C58.5928 92.7225 60.6696 93.4638 62.8969 97.1269C65.5224 101.445 66.6716 109.971 66.0679 114.936C65.9707 115.734 65.3119 116.342 65.6956 117.158C68.5493 117.532 71.2314 118.591 73.6287 120.17C73.9799 120.101 74.0722 118.945 74.145 118.584C75.5565 111.635 73.1706 96.2576 66.9792 91.8824C66.0533 91.2284 60.9464 89.6551 59.8878 89.6551H55.1111H55.1094ZM64.1789 117.121C65.4123 109.11 64.6467 99.3606 58.1412 93.7276C55.888 91.7771 54.169 90.5405 51.0611 90.8464C44.8632 91.4566 29.7432 102.494 24.0487 106.468C19.4614 109.668 14.8967 112.97 10.6105 116.559C15.248 119.032 19.5391 122.343 22.9723 126.326L41.7003 128.791C44.3987 127.129 46.7862 124.905 49.538 123.332C50.1806 122.964 50.8102 122.39 51.6131 122.498C51.8818 122.736 50.2291 124.266 49.9863 124.479C48.1087 126.14 45.7697 127.419 43.9276 129.136C44.9652 129.186 46.5742 130.043 47.4337 129.384C48.2365 128.769 49.5299 126.833 50.3311 125.986C52.84 123.335 58.4423 117.292 62.0519 116.954C62.8467 116.88 63.4181 117.215 64.1789 117.119V117.121ZM134.56 96.1783C136.446 95.8837 141.095 98.7472 142.264 96.7756C144.035 93.7827 138.296 91.7998 136.101 92.007C135.609 92.0539 134.538 92.3502 134.091 92.5638C130.771 94.1469 130.052 102.536 131.485 105.426C131.826 106.114 134.917 109.778 134.56 110.152L131.65 108.061C128.372 111.386 124.753 114.367 121.393 117.602C118.225 120.649 115.301 123.955 112.075 126.923L111.496 125.876C107.742 129.235 105.013 133.638 103.577 138.471L103.681 138.801C108.848 142.351 113.571 145.284 119.188 140.554C124.334 136.221 129.986 128.795 134.675 123.66C136.372 121.804 138.191 120.021 139.917 118.189L139.222 117.143C141.728 116.519 144.183 116.561 146.602 115.552C150.216 114.045 156.623 108.885 153.86 104.484C152.296 101.994 144.687 102.412 144.794 105.369C144.915 108.762 150.907 105.748 150.869 109.218L148.539 108.754C148.314 110.241 149.685 112.239 148.428 113.417C147.256 114.516 143.303 115.361 142.021 114.222C141.001 113.314 140.889 108.16 140.381 106.658C139.693 107.122 138.986 107.978 138.562 108.679C138.287 109.134 137.236 112.213 136.658 111.781C136.118 109.218 137.71 106.279 140.124 105.223L140.148 104.942C139.429 102.151 140.082 100.321 137.57 98.4105C137.238 98.158 134.054 96.6348 134.562 96.1783H134.56ZM152.709 96.8501C153.31 95.5179 152.444 92.8406 150.937 92.5007C149.575 92.1931 144.991 93.1385 144.114 94.2003C143.538 94.898 144.305 97.8051 142.485 98.6241L143.254 99.1761C145.956 96.9715 149.279 96.2835 152.707 96.8517L152.709 96.8501ZM90.9873 145.791C96.193 134.471 96.8405 121.58 94.6455 109.411C94.2813 107.397 92.3535 98.8605 91.2301 97.6853C90.6814 97.1107 89.762 97.0119 89.0093 96.8679C88.5804 96.9197 86.8112 99.5403 86.8484 99.9806C90.0777 106.614 90.1667 114.201 90.5276 121.447C90.9016 128.935 90.955 136.503 90.7688 144.054C90.7559 144.609 90.7122 145.587 90.989 145.791H90.9873ZM152.9 98.3409C152.329 97.8747 149.748 97.9799 148.916 98.0673C146.322 98.3409 142.192 100.186 143.882 103.396C144.867 103.077 145.516 102.32 146.545 101.986C149.096 101.159 151.218 101.622 153.662 102.465C154.078 101.389 153.794 99.0693 152.9 98.3409ZM98.2131 111.085H102.291C102.821 111.085 106.19 112.16 106.368 112.014C103.425 106.902 100.675 101.444 94.7799 99.2587C94.4432 99.134 93.4364 98.616 93.5481 99.3218C97.2484 110.858 98.3151 123.176 96.0473 135.124C95.8725 136.048 94.8964 138.796 94.9531 139.374C95.0713 140.603 100.682 145.456 102.056 146.26C102.2 145.618 101.763 144.968 101.711 144.276C101.34 139.23 102.922 134.866 105.572 130.671C107.618 127.432 110.651 123.992 114.055 122.262V121.919C113.147 120.91 112.194 119.834 111.439 118.707C110.737 117.657 109.461 114.68 108.778 114.146C106.994 112.75 101.582 112.716 99.0904 111.718C98.7537 111.583 98.3086 111.507 98.2115 111.083L98.2131 111.085ZM146.87 108.558C145.737 108.587 144.491 107.961 143.915 106.972C143.416 106.117 143.601 105.439 143.358 104.733C143.181 104.218 142.466 103.78 142.303 102.995C142.133 102.176 142.5 100.677 142.372 100.374C142.269 100.13 140.98 98.6047 140.619 98.9722L142.926 113.032C143.406 113.72 146.917 113.026 147.401 112.375L146.872 108.56L146.87 108.558ZM87.9604 107.825C87.6723 107.444 86.884 109.005 86.6817 109.223C83.4249 112.754 79.396 112.404 75.8479 109.453C76.1004 112.046 76.1117 114.631 75.8155 117.226C75.6828 118.391 74.9868 120.329 74.977 121.26C74.9689 121.975 75.9175 122.846 75.8365 123.984C75.7653 124.984 74.7326 126.032 74.6841 126.582C74.5999 127.509 75.2069 128.676 74.8103 129.963C74.4137 131.25 72.5944 131.289 73.0492 132.746L89.3606 133.212C89.4836 124.722 89.155 116.216 87.9604 107.821V107.825ZM13.0806 121.012C13.2845 120.76 13.7572 120.289 13.537 119.932C13.0449 119.565 9.95652 117.605 9.67649 117.841L11.7727 122.152C11.9248 122.258 12.9462 121.177 13.0806 121.01V121.012ZM66.2929 121.336C68.2288 120.891 70.6277 122.108 72.0974 123.333C72.494 123.663 73.6206 125.117 73.8618 125.059C75.9563 122.312 70.5904 119.85 68.5169 119.225C66.6506 118.663 62.9746 118.21 61.1034 118.591C58.6786 119.083 52.6393 125.572 50.7957 127.619C49.4036 129.165 48.0892 131.699 46.142 132.285L46.2569 130.886C40.2144 130.162 34.201 129.162 28.1698 128.353C25.2854 127.966 21.4766 128.11 18.7653 127.04C18.4837 126.928 18.1244 126.8 18.0645 126.462C18.8738 126.415 19.7058 126.519 20.5135 126.461C20.8599 126.435 21.1885 126.642 21.0898 126.114L14.9161 120.892C11.4878 125.264 6.20605 131.323 8.0562 137.28C10.7561 145.969 22.3734 144.232 29.3531 143.921C35.3584 143.652 41.3167 143.068 47.2831 142.28C47.513 142.249 48.1556 142.179 48.1151 141.838C47.466 141.935 46.0902 139.196 46.2553 139.041C48.298 139.423 49.1997 142.314 51.6827 141.555C51.9983 141.458 56.2085 137.811 56.7362 137.293C57.5034 136.538 58.3047 135.31 59.0655 134.497L57.204 134.734C60.6631 129.465 63.9879 136.296 67.5214 135.496C70.4868 134.826 66.4418 130.915 65.3427 130.088C64.4427 129.411 63.1024 128.965 62.3287 128.095C64.7065 127.619 67.0989 129.311 68.4829 131.14C69.3327 132.265 69.8232 135.23 71.1505 133.533C72.4131 131.917 70.5888 129.983 69.412 128.814C67.5295 126.946 65.7247 126.847 64.0186 125.599C63.8066 125.444 63.6042 125.591 63.7289 125.067C67.2398 124.224 71.2104 127.176 72.3515 130.42C74.4898 129.75 73.449 127.077 72.4454 125.782C70.6228 123.432 68.5299 123.306 66.5826 121.872C66.3722 121.716 66.1698 121.865 66.2912 121.339L66.2929 121.336ZM89.3606 134.842C85.0565 134.547 80.733 134.539 76.4193 134.387C75.2425 134.345 73.5332 133.8 72.3613 134.271C71.1359 134.763 68.1624 139.535 67.0892 140.88C63.0086 145.993 58.4811 150.64 53.7125 155.106C65.1922 155.666 76.7155 157.304 88.2097 156.404C89.4674 149.308 89.2942 142.037 89.3606 134.842ZM68.1559 136.941C67.3693 136.94 66.5972 137 65.8137 136.838C64.4994 136.566 63.0701 135.213 62.1053 134.938C61.8642 134.87 61.6845 134.871 61.4708 135.012C56.2376 139.685 50.4606 143.973 46.061 149.444C46.7813 150.546 49.4943 154.53 50.6209 154.839C51.4707 155.074 53.2706 153.483 53.9488 152.898C58.1072 149.318 61.937 144.638 65.5887 140.543L68.1576 136.94L68.1559 136.941ZM103.106 140.201V144.51C103.106 144.625 103.869 146.461 104.024 146.62C105.211 147.83 108.989 145.079 109.633 143.814L103.106 140.201ZM31.3457 145.326C27.4366 145.499 23.2475 145.786 19.3351 145.569C15.3079 145.346 11.1025 144.449 8.51429 141.132C6.28052 147.712 2.91206 157.296 8.27311 163.149C9.78818 164.802 15.3775 168.588 17.5044 168.844C19.0308 169.028 19.3966 168.035 19.8774 166.817C19.9794 166.56 20.7337 163.044 21.3261 163.726C21.6595 168.279 19.9049 172.078 14.8789 169.355L8.51267 165.589C8.2553 169.872 9.05654 172.471 12.7245 174.77C16.5154 177.146 21.6142 178.559 25.983 179.333L27.6146 170.247C23.7832 171.908 24.0924 164.417 25.5152 162.905C26.0898 162.295 28.3722 161.597 28.5454 161.218L31.3457 145.325V145.326ZM49.7516 143.232L32.9077 145.32L31.8102 150.446C34.18 151.021 36.5805 151.612 38.9907 152.006C39.6673 152.117 41.8444 152.573 42.3073 152.448C42.453 152.41 44.6755 150.809 44.7548 150.681C44.9506 150.368 44.3695 149.405 44.7467 148.589L49.7516 143.232ZM45.6774 151.673C40.4734 155.435 35.1787 159.116 29.638 162.371C28.8999 162.805 27.1889 163.391 26.6952 163.855C25.7548 164.739 25.7936 167.847 26.4395 168.991C27.2229 169.577 32.516 166.361 33.5115 165.78C38.7819 162.699 43.6573 158.991 48.7108 155.582C48.9908 155.307 48.7335 155.189 48.5943 154.988C47.9063 153.997 46.4382 152.735 45.6774 151.675V151.673ZM30.1819 160.233L40.195 153.827L31.5804 151.848L30.1819 160.233ZM88.1935 157.905C83.106 158.269 78.0137 158.151 72.9359 157.902C68.3016 157.673 63.5897 157.311 58.957 156.969C55.9641 156.749 52.955 155.87 49.9701 156.375C43.3093 161.155 36.5789 165.849 29.3758 169.794C28.0484 174.553 27.299 179.518 27.0222 184.458C33.683 188.716 42.2701 190.034 50.1029 190.513C60.2584 191.135 72.6818 191.005 82.6803 189.312C84.2197 189.052 88.5723 188.423 89.4933 187.274C90.199 186.394 89.6034 185.753 89.5823 184.819C89.482 180.299 88.8669 175.387 88.875 171.066C88.8782 169.334 90.1861 168.282 89.0919 166.442C88.6144 165.639 87.4586 165.195 87.4797 164.074L88.1935 157.907V157.905ZM38.3335 190.285L29.0164 187.488C29.0714 198.386 31.2906 209.452 34.2075 219.915C34.4325 220.723 35.7808 225.564 36.1499 225.676C37.4513 225.355 38.6718 224.756 39.9667 224.407C46.2731 222.709 53.1832 222.722 59.645 222.901C63.5233 223.01 67.1459 223.141 70.953 224.057L67.2268 197.969C67.8484 197.851 67.6315 198.103 67.795 198.435C69.268 201.42 69.6241 204.927 70.1825 208.171C70.9255 212.495 72.1006 218.288 72.3483 222.544C72.4211 223.806 72.3159 224.74 71.887 225.918C76.7365 224.269 81.6622 222.6 86.748 221.794C90.2573 221.239 94.2894 220.676 97.7453 221.493C97.8181 220.761 97.5753 220.088 97.3973 219.398C95.3189 211.344 91.303 202.312 89.7847 194.379C89.4852 192.815 90.314 190.952 88.8976 189.446C87.4198 189.697 85.9937 190.17 84.5126 190.439C78.8958 191.457 73.067 191.98 67.3547 192.153C58.4164 192.425 49.3405 191.279 40.5414 191.667C38.3837 191.763 33.9744 192.715 32.1534 192.148C31.8248 192.046 31.7423 192.287 31.8151 191.68L38.3367 190.282L38.3335 190.285ZM94.9482 222.43C88.5917 222.628 82.3258 223.953 76.3092 225.925L76.7171 229.939L70.121 253.394C70.0368 254.317 73.8861 255.582 74.6889 255.845C77.5443 256.777 82.0879 257.785 85.0614 257.844C85.466 257.852 85.8367 257.857 86.1119 257.497C87.9167 252.282 89.9676 247.122 91.6931 241.88C93.7488 235.634 96.2772 229.093 94.9482 222.429V222.43ZM97.5138 222.662L96.3516 222.427V223.591C96.7984 223.354 97.598 223.348 97.5138 222.66V222.662ZM52.7429 261.753C56.7767 251.821 61.4595 242.125 65.061 232.026C65.3249 230.951 66.1569 225.354 65.7247 224.74C64.9477 224.522 63.7807 224.334 62.9244 224.279C57.382 223.932 51.3217 224.355 45.7923 224.758C45.6143 225.677 45.9979 226.561 46.0319 227.424C46.2423 232.848 41.8104 242.915 40.1351 248.569C39.7903 249.731 38 255.388 38.0939 256.073C38.2736 257.374 42.6473 259.163 43.8677 259.637C45.1805 260.147 51.8527 262.31 52.7429 261.753ZM70.0207 225.224L66.9937 224.756V227.086C67.2511 227.349 70.5629 225.726 70.0207 225.224ZM44.3922 224.989C44.1445 224.742 38.3821 226.237 37.6375 226.736C38.374 227.319 44.3744 228.27 44.6269 228.02L44.3922 224.989ZM70.2537 228.716H75.3801L75.0256 226.381C73.4539 227.019 71.348 227.362 70.2537 228.716ZM75.147 230.114H69.9041C69.064 230.114 68.0782 228.863 68.6205 228.018C68.3194 228.285 67.1799 228.583 67.0455 228.771C66.5842 229.412 66.4321 234.177 65.5353 235.295L51.8429 267.522L51.9595 268.082L61.398 276.701C61.7832 273.205 62.0374 266.405 64.2307 263.574C64.8538 262.769 65.9934 262.824 66.2524 262.334L75.147 230.112V230.114ZM85.3981 259.232C82.3841 259.067 79.3604 258.608 76.4468 257.814C74.056 257.164 71.8773 256.079 69.5561 255.27C69.302 258.13 66.8367 262.03 67.8565 264.773C68.9701 267.769 70.6341 265.811 72.5215 265.108C76.1214 263.77 80.2151 263.103 83.9947 263.889L85.3964 259.231L85.3981 259.232ZM50.6581 266.89C50.8523 265.793 51.5192 264.835 51.8899 263.808C51.9757 263.571 52.2233 263.58 51.8559 263.302C47.7882 262.551 43.5958 261.353 39.9619 259.352C39.5783 259.14 37.5776 257.675 37.4044 257.834L34.8469 266.824C34.8048 267.852 36.5967 270.001 37.6407 269.851C39.0732 269.644 41.4964 268.104 43.1021 267.611C45.6888 266.816 47.9759 266.868 50.6565 266.892L50.6581 266.89ZM85.3155 266.301C83.1255 264.163 77.4552 265.063 74.6824 265.871C72.1152 266.618 69.3942 269.348 67.2268 266.567C66.6053 265.769 66.4693 264.731 65.9465 263.891C65.3913 264.135 65.1193 264.597 64.8571 265.129C64.1206 266.628 62.6023 273.771 63.0685 275.149C63.2174 275.588 65.3427 276.25 65.9384 276.471C71.7818 278.647 78.7696 280.452 84.9254 281.481C89.3509 282.221 94.2603 283.021 98.6599 282.036C98.6372 280.775 98.2714 279.459 97.5122 278.448C96.9781 277.736 91.1055 272.821 90.3836 272.53C89.469 272.162 87.6933 272.174 86.68 272.277C85.3576 272.412 83.1611 273.618 82.4391 273.627C81.7641 273.635 81.4922 272.824 81.9665 272.337C82.8956 271.384 87.4926 270.639 88.8912 270.877C89.2505 270.557 87.7613 269.529 87.4716 269.386C85.6651 268.504 83.4168 268.656 81.5424 269.237C80.7703 269.477 77.6511 271.625 78.0299 269.7C78.3228 268.216 84.6373 266.902 86.0957 267.382C86.1491 267.344 85.4191 266.405 85.3139 266.303L85.3155 266.301ZM33.8433 268.151C31.8297 266.455 31.3214 271.29 31.1466 272.425C30.7791 274.794 30.7953 277.219 30.4538 279.592C30.5752 280.12 33.9582 281.185 34.6623 281.421C41.2957 283.645 51.0692 286.117 58.0198 285.549C58.7223 285.491 63.669 284.443 63.8616 284.17C64.2679 283.595 63.5314 281.282 63.1381 280.672C62.7819 280.12 58.0894 275.489 57.607 275.254C56.1373 274.537 53.1962 274.799 51.6082 275.18C50.9413 275.34 47.4094 277.213 48.4664 275.068C49.0297 273.925 54.5073 273.145 55.8087 273.438C54.0897 271.081 50.4509 271.436 47.9387 272.211C47.2443 272.425 45.4443 273.681 44.9603 272.988C44.431 271.881 45.8441 271.513 46.66 271.165C48.4049 270.424 50.4104 270.102 52.3124 270.176C50.6694 267.776 47.3382 268.069 44.805 268.613C42.466 269.114 38.3205 271.806 36.247 270.984C35.0346 270.503 34.5167 268.721 33.8417 268.151H33.8433ZM98.4446 283.691C86.2786 284.597 74.1985 280.69 62.7998 276.936C62.557 279.04 64.2145 279.307 65.7684 279.905C70.8284 281.85 77.4326 283.343 82.792 284.315C87.5784 285.185 92.9378 286.158 97.7502 285.44L98.4446 283.692V283.691ZM63.962 285.787C52.7284 288.955 41.0221 285.008 30.4133 281.361C30.4489 281.946 30.2304 282.64 30.6416 283.11C30.8811 283.383 33.6507 284.4 34.2512 284.625C41.2261 287.25 52.5018 289.618 59.857 288.553C61.5064 288.314 64.4006 288.009 63.9603 285.787H63.962Z" fill="black"/>
<path d="M101.241 61.4673L99.1469 61.7036C99.4803 62.2054 100.544 62.6311 100.733 63.264C101.539 65.9494 97.1527 63.3935 96.2414 63.0908C95.0905 62.7104 93.467 62.3122 92.2691 62.1714C91.5326 62.084 88.1771 62.5048 88.1836 61.3556C88.1885 60.488 90.1276 59.949 90.8091 59.7725C93.2986 59.1299 98.603 58.8321 100.659 60.5382C100.947 60.7761 101.313 61.0399 101.241 61.4673Z" fill="black"/>
<path d="M103.049 57.92C101.931 59.0417 100.547 56.7853 99.7229 56.1184C96.7332 53.7034 92.549 53.1821 88.8131 53.0494L88.4473 52.7111C88.1559 51.8403 89.0915 51.5019 89.7778 51.2883C93.2126 50.2183 99.7326 51.8645 102.175 54.6001C102.794 55.2913 103.878 57.0912 103.051 57.92H103.049Z" fill="black"/>
<path d="M116.32 59.8894C122.574 58.4407 120.695 72.5523 115.293 69.6678C112.25 68.0427 113.12 60.6307 116.32 59.8894ZM117.705 68.1446C119.348 66.5599 119.538 60.8493 116.988 61.0079C114.439 61.1665 113.584 69.0996 116.72 68.6885C117.009 68.6497 117.49 68.3534 117.707 68.1446H117.705Z" fill="black"/>
<path d="M107.938 78.9939C112.585 78.2363 111.41 85.7777 107.182 86.1614C102.446 86.5919 103.823 79.664 107.938 78.9939ZM109.628 82.665L109.419 80.4312C109.084 80.0055 107.985 79.9651 107.528 80.2176L107.648 80.8035L109.628 82.6666V82.665ZM106.267 81.273C105.521 81.4364 104.23 85.925 107.545 84.8891C109.895 84.1558 106.847 81.1467 106.267 81.273Z" fill="black"/>
<path d="M71.8511 69.5871C70.4575 70.6036 69.5122 67.0959 68.3888 67.4148C66.5387 67.9393 67.0615 70.8059 65.943 71.9487C64.3276 69.9658 66.1194 67.8551 66.7475 65.9094C66.0434 65.2166 62.9128 65.4934 63.2706 64.3911C65.4962 61.9113 73.397 67.1445 71.8495 69.5887L71.8511 69.5871Z" fill="black"/>
<path d="M118.657 52.6733C121.676 52.2071 122.287 55.2308 120.683 55.4186C120.196 55.4752 119.753 55.1774 119.296 55.1758C118.21 55.1709 116.735 56.2441 115.847 56.8527C115.149 57.3302 114.111 58.4487 113.527 58.7288C112.446 59.2451 112.587 58.0521 112.838 57.3383C113.464 55.5594 116.792 52.9614 118.657 52.6733Z" fill="black"/>
<path d="M111.19 65.7344C111.976 66.4158 115.621 71.4434 116.202 72.4907C116.642 73.2839 116.639 73.5137 115.922 74.1758C115.671 74.3506 115.482 74.2891 115.226 74.1709C114.823 73.9831 110.554 67.6055 110.205 66.8351C109.627 65.5612 109.915 64.6256 111.192 65.7327L111.19 65.7344Z" fill="black"/>
<path d="M102.996 87.7905C103.289 87.7322 104.698 89.0158 105.378 89.1453C105.932 89.2505 109.69 88.022 107.654 89.8932C106.398 91.0473 103.771 90.764 102.9 89.2797C102.67 88.888 102.424 87.9038 102.994 87.7905H102.996Z" fill="black"/>
<path d="M140.327 48.7204C147.763 47.6553 151.475 59.3616 151.81 65.0706C152.15 70.8687 150.18 81.9405 142.363 81.0373C136.721 80.3849 133.54 71.241 132.957 66.4481C132.31 61.1243 133.532 49.6932 140.327 48.7204ZM144.811 79.404C149.573 77.3839 150.654 69.9251 150.4 65.3167C150.11 60.0689 147.794 52.0613 142.249 50.2921C145.486 52.9484 147.185 57.2006 147.964 61.2295C149.115 67.1717 148.911 74.5982 144.811 79.404ZM138.93 50.7972C138.153 50.9833 137.041 52.466 136.603 53.1475C132.695 59.2418 133.84 71.445 138.526 76.9517C140.575 79.3603 142.386 80.3785 144.576 77.4244C148.644 71.9355 147.404 59.9216 143.922 54.3194C143.063 52.9354 140.748 50.3617 138.929 50.7972H138.93Z" fill="black"/>
</g>
<defs>
<clipPath id="clip0_2117_23190">
<rect width="160" height="160" fill="white"/>
</clipPath>
</defs>
</svg>
