<svg width="300" height="200" viewBox="0 0 300 200" fill="none" xmlns="http://www.w3.org/2000/svg">
<path d="M69.0165 17.6994L168.881 7.84995C172.291 7.51419 175.561 9.56557 176.181 12.4358L205.838 149.579C206.014 150.394 202.61 155.002 200.607 155.211L101.161 165.494C97.7603 165.851 94.4929 163.803 93.8664 160.923L63.9762 23.5259C63.3476 20.6434 65.6037 18.0351 69.0165 17.6994Z" fill="#404040" stroke="black" stroke-miterlimit="10"/>
<path d="M73.0519 14.5895L170.05 5.03482C173.364 4.7093 176.552 6.76886 177.172 9.63709L206.749 146.422C207.37 149.29 205.193 151.896 201.891 152.242L105.182 162.36C101.878 162.706 98.692 160.65 98.0655 157.77L68.1855 20.3976C67.5591 17.5171 69.7374 14.917 73.0519 14.5895Z" fill="#CCCCCC"/>
<path d="M73.2821 15.31L169.308 5.84752C172.587 5.52405 175.748 7.57542 176.365 10.4314L205.796 146.536C206.414 149.39 204.263 151.982 200.991 152.324L105.25 162.339C101.979 162.681 98.8219 160.636 98.1995 157.768L68.471 21.0875C67.8466 18.2192 70.0003 15.6335 73.2821 15.31Z" fill="#B2B2B2"/>
<path d="M73.0519 14.5895L170.05 5.03482C173.364 4.7093 176.552 6.76886 177.172 9.63709L206.749 146.422C207.37 149.29 205.193 151.896 201.891 152.242L105.182 162.36C101.878 162.706 98.692 160.65 98.0655 157.77L68.1855 20.3976C67.5591 17.5171 69.7374 14.917 73.0519 14.5895Z" stroke="black" stroke-miterlimit="10"/>
<path d="M74.3684 17.0624L169.833 7.64699C172.152 7.4177 174.386 8.86103 174.82 10.8674L203.981 145.709C204.416 147.718 202.892 149.54 200.579 149.781L105.389 159.729C103.075 159.97 100.844 158.533 100.406 156.517L70.9618 21.1263C70.5236 19.1117 72.0489 17.2917 74.3684 17.0624Z" fill="#EDF5FD"/>
<mask id="mask0_2437_72296" style="mask-type:luminance" maskUnits="userSpaceOnUse" x="70" y="7" width="135" height="153">
<path d="M74.3684 17.0624L169.833 7.64699C172.152 7.4177 174.386 8.86103 174.82 10.8674L203.981 145.709C204.416 147.718 202.892 149.54 200.579 149.781L105.389 159.729C103.075 159.97 100.844 158.533 100.406 156.517L70.9618 21.1263C70.5236 19.1117 72.0489 17.2917 74.3684 17.0624Z" fill="white"/>
</mask>
<g mask="url(#mask0_2437_72296)">
<path d="M112.719 120.744L106.383 91.5809L124.282 89.7588L130.608 118.904L112.719 120.744Z" fill="#D52B1E"/>
<path d="M123.877 90.2442L130.014 118.521L113.122 120.259L106.976 91.964L123.877 90.2442ZM124.687 89.2759L105.789 91.1983L112.314 121.232L131.202 119.287L124.687 89.2759Z" fill="black"/>
</g>
<mask id="mask1_2437_72296" style="mask-type:luminance" maskUnits="userSpaceOnUse" x="70" y="7" width="135" height="153">
<path d="M74.3684 17.0624L169.833 7.64699C172.152 7.4177 174.386 8.86103 174.82 10.8674L203.981 145.709C204.416 147.718 202.892 149.54 200.579 149.781L105.389 159.729C103.075 159.97 100.844 158.533 100.406 156.517L70.9618 21.1263C70.5236 19.1117 72.0489 17.2917 74.3684 17.0624Z" fill="white"/>
</mask>
<g mask="url(#mask1_2437_72296)">
<path d="M136.604 118.285L126.691 72.5881L144.597 70.7783L154.495 116.443L136.604 118.285Z" fill="#D52B1E"/>
<path d="M144.191 71.2617L153.902 116.06L137.01 117.798L127.283 72.9692L144.191 71.2617ZM145.002 70.2954L126.098 72.2055L136.201 118.771L155.089 116.826L145.002 70.2954Z" fill="black"/>
</g>
<mask id="mask2_2437_72296" style="mask-type:luminance" maskUnits="userSpaceOnUse" x="70" y="7" width="135" height="153">
<path d="M74.3684 17.0624L169.833 7.64699C172.152 7.4177 174.386 8.86103 174.82 10.8674L203.981 145.709C204.416 147.718 202.892 149.54 200.579 149.781L105.389 159.729C103.075 159.97 100.844 158.533 100.406 156.517L70.9618 21.1263C70.5236 19.1117 72.0489 17.2917 74.3684 17.0624Z" fill="white"/>
</mask>
<g mask="url(#mask2_2437_72296)">
<path d="M160.489 115.827L146.41 50.8483L164.324 49.0508L178.38 113.984L160.489 115.827Z" fill="#D52B1E"/>
<path d="M163.918 49.5342L177.789 113.602L160.897 115.34L147.006 51.2293L163.918 49.5342ZM164.729 48.5679L145.816 50.4636L160.084 116.312L178.972 114.367L164.729 48.5679Z" fill="black"/>
</g>
<mask id="mask3_2437_72296" style="mask-type:luminance" maskUnits="userSpaceOnUse" x="70" y="7" width="135" height="153">
<path d="M74.3684 17.0624L169.833 7.64699C172.152 7.4177 174.386 8.86103 174.82 10.8674L203.981 145.709C204.416 147.718 202.892 149.54 200.579 149.781L105.389 159.729C103.075 159.97 100.844 158.533 100.406 156.517L70.9618 21.1263C70.5236 19.1117 72.0489 17.2917 74.3684 17.0624Z" fill="white"/>
</mask>
<g mask="url(#mask3_2437_72296)">
<path d="M88.8047 56.3965L104.411 128.199L185.491 119.829" stroke="black" stroke-miterlimit="10" stroke-linecap="round"/>
</g>
<mask id="mask4_2437_72296" style="mask-type:luminance" maskUnits="userSpaceOnUse" x="70" y="7" width="135" height="153">
<path d="M74.3684 17.0624L169.833 7.64699C172.152 7.4177 174.386 8.86103 174.82 10.8674L203.981 145.709C204.416 147.718 202.892 149.54 200.579 149.781L105.389 159.729C103.075 159.97 100.844 158.533 100.406 156.517L70.9618 21.1263C70.5236 19.1117 72.0489 17.2917 74.3684 17.0624Z" fill="white"/>
</mask>
<g mask="url(#mask4_2437_72296)">
<path opacity="0.45" d="M186.948 8.96332L100.156 160.965L78.9727 151.11L165.738 -0.941406L186.948 8.96332Z" fill="white"/>
</g>
<mask id="mask5_2437_72296" style="mask-type:luminance" maskUnits="userSpaceOnUse" x="70" y="7" width="135" height="153">
<path d="M74.3684 17.0624L169.833 7.64699C172.152 7.4177 174.386 8.86103 174.82 10.8674L203.981 145.709C204.416 147.718 202.892 149.54 200.579 149.781L105.389 159.729C103.075 159.97 100.844 158.533 100.406 156.517L70.9618 21.1263C70.5236 19.1117 72.0489 17.2917 74.3684 17.0624Z" fill="white"/>
</mask>
<g mask="url(#mask5_2437_72296)">
<path opacity="0.45" d="M194.065 12.286L107.264 164.272L102.66 162.132L189.454 10.1343L194.065 12.286Z" fill="white"/>
</g>
<path d="M74.3684 17.0624L169.833 7.64699C172.152 7.4177 174.386 8.86103 174.82 10.8674L203.981 145.709C204.416 147.718 202.892 149.54 200.579 149.781L105.389 159.729C103.075 159.97 100.844 158.533 100.406 156.517L70.9618 21.1263C70.5236 19.1117 72.0489 17.2917 74.3684 17.0624Z" stroke="black" stroke-miterlimit="10"/>
<path d="M223.579 137.584C223.456 138.759 223.864 140.008 223.292 141.068C222.469 142.033 221.878 144.557 220.651 144.786C217.026 144.594 213.4 144.338 209.782 144.035C208.898 143.951 208.738 143.789 208.665 142.878C208.521 140.939 208.401 139.105 208.19 137.146C199.517 134.224 191.162 126.995 190.698 117.318C190.632 115.649 191.902 114.321 192.506 112.836C192.78 111.792 193.748 111.936 194.61 112.044C210.9 114.458 201.864 111.379 208.028 119.633C211.25 123.365 217.339 125.257 221.538 122.043C222.899 115.361 203.178 110.257 198.737 103.978C194.321 99.4308 192.063 92.3595 195.312 86.5247C197.787 80.4382 202.257 75.971 208.613 74.0834C208.81 72.7895 208.39 71.4261 209.172 70.2694C210.038 69.3092 210.362 66.7726 211.842 66.8443C215.918 67.178 220 67.44 224.079 67.7553C224.887 67.8147 225.092 68.0194 225.123 68.8506C225.217 70.7505 225.186 72.6483 225.352 74.5461C234.54 76.9353 241.679 86.277 239.325 95.8787C238.852 97.3712 237.926 98.6876 237.243 100.092C236.948 100.641 236.827 100.702 236.223 100.596C233.101 100.035 229.979 99.4635 226.859 98.8944C225.878 98.8903 225.729 98.2454 225.974 97.404C227.033 92.3308 222.822 87.7244 218.064 86.6721C215.058 85.8307 208.206 86.9199 210.767 91.3235C212.032 93.7209 214.348 95.326 216.555 96.7898C223.221 101.216 231.088 104.571 235.349 111.706C238.389 116.208 238.045 122.223 235.31 126.784C233.005 132.023 229.094 135.917 223.579 137.584Z" fill="black"/>
<path d="M238.472 89.5916C238.849 91.4014 238.878 93.6247 238.292 95.3895C237.275 95.3424 229.927 94.0055 229.221 93.7475C231.09 84.1806 217.301 76.7879 210.834 84.5061C209.256 86.4162 208.787 89.0061 209.638 91.3318C212.994 100.475 234.56 104.26 236.134 118.44C237.111 126.092 230.201 131.925 223.165 133.01C222.381 133.014 222.291 133.581 222.379 134.255C222.407 136.048 222.499 137.795 222.489 139.598C218.982 139.631 215.395 139.218 211.897 138.886C211.448 137.545 211.923 132.492 210.803 132.116C202.536 129.503 194.536 122.7 193.93 113.571C194.188 113.34 194.482 113.432 194.769 113.483C197.246 113.915 199.74 114.259 202.213 114.722C202.989 114.867 203.484 115.244 203.798 115.995C206.023 122.665 217.195 128.65 222.518 122.604C227.132 118.151 224.09 112.781 219.095 110.345C211.77 105.996 202.717 102.928 198.563 94.9227C193.702 86.449 200.847 77.7685 209.151 75.8073C209.933 75.4183 211.499 75.711 211.473 74.4929C212.284 73.2134 211.569 70.2121 211.872 68.5599C212.167 68.2712 212.535 68.304 212.89 68.3593C215.993 68.8301 219.132 68.955 222.252 69.2683C223.054 69.3481 223.474 69.6245 223.437 70.4577C223.374 71.8662 223.58 73.2645 223.617 74.6669C223.638 75.4224 223.9 75.7643 224.62 75.9629C231.247 77.7645 236.341 83.1345 238.427 89.3786C238.429 89.3786 238.415 89.3193 238.472 89.5916Z" fill="#212492"/>
<path d="M195.821 88.0215C195.616 108.351 229.697 108.828 222.787 120.545C221.211 116.683 218.21 114.9 214.621 113.054C210.88 110.902 206.944 109.074 203.375 106.635C197.624 102.655 192.582 95.0703 195.821 88.0215Z" fill="#D6E3F2"/>
<path d="M209.619 141.419C209.128 133.627 209.353 137.474 203.317 133.811C197.603 130.613 192.729 125.18 191.849 118.5C191.66 116.864 191.687 115.944 192.88 114.784C194.342 123.796 201.985 130.323 210.307 133.123C210.331 135.95 211.721 139.034 209.619 141.419Z" fill="#D6E3F2"/>
<path d="M227.203 95.0416C226.32 87.7247 217.621 83.0507 211.074 86.4779C211.785 83.2104 216.856 81.7916 219.849 82.5676C225.098 83.3517 230.751 90.1056 227.203 95.0416Z" fill="#D6E3F2"/>
<path d="M211.797 140.014C215.206 140.258 218.594 140.497 221.999 140.741C222.017 140.86 222.07 140.972 222.038 141.036C221.52 141.928 221.096 142.839 220.49 143.683C217.044 143.597 213.734 143.247 210.262 143.02C210.542 141.945 211.146 140.913 211.797 140.014Z" fill="#D6E3F2"/>
<path d="M238.416 89.3338C235.711 83.0589 230.542 77.3245 223.497 75.9262C223.162 75.0827 223.549 74.1164 223.221 73.2341C223.07 72.104 223.285 70.8695 223.123 69.7475C221.948 69.3238 220.504 69.4343 219.243 69.3074C216.803 69.0208 214.338 68.8078 211.873 68.5581C211.859 68.3984 211.844 68.2387 211.832 68.1015C212.078 67.86 212.35 67.9378 212.602 67.9541C216.418 68.2305 220.175 68.4659 223.997 68.8017C224.316 70.9882 224.075 73.1931 224.398 75.3817C231.312 77.0481 237.059 82.2339 238.416 89.3338Z" fill="white"/>
<path d="M227.277 97.7604C227.73 96.8166 228.178 95.881 228.637 94.9229C231.697 95.2422 234.758 95.9117 237.78 96.5238C237.581 97.2322 236.912 98.5486 236.304 99.4269C233.321 99.0154 230.166 98.5547 227.277 97.7604Z" fill="#D6E3F2"/>
<path d="M235.948 122.418C236.855 111.666 228.588 106.611 220.592 101.249C217.171 99.0381 210.134 95.7235 209.637 91.3301C212.931 97.3798 222.086 100.838 227.618 105.069C233.037 108.802 238.213 115.543 235.948 122.418Z" fill="white"/>
<path d="M222.366 122.733C221.693 124.87 218.626 125.196 216.693 125.354C211.397 124.809 206.158 121.912 203.879 116.941C203.501 116.106 203.409 115.029 202.287 114.974C199.504 114.466 196.696 114.173 193.93 113.569C193.93 113.416 193.93 113.262 193.93 113.111C194.618 113.066 202.602 114.11 204.346 114.47C205.663 122.186 215.698 127.913 222.366 122.733Z" fill="white"/>
<path d="M211.472 74.4932C211.912 75.0357 211.627 75.5598 210.939 75.6499C209.17 75.9815 207.451 76.4688 205.852 77.3246C201.368 79.2531 198.156 83.2105 197.012 87.8353C197.278 80.4487 204.812 75.6437 211.472 74.4932Z" fill="white"/>
<path d="M231.563 130.998C229.608 133.569 226.721 135.535 223.605 136.311C223.403 135.697 223.376 135.168 223.503 134.081C226.197 133.404 228.832 132.597 231.092 130.904C231.236 130.822 231.588 130.713 231.563 130.998Z" fill="#D6E3F2"/>
<path d="M210.754 69.7617C210.754 71.1436 210.754 72.2799 210.754 73.4018C210.475 73.6741 210.164 73.6863 209.773 73.6659C209.56 72.1243 209.695 71.0658 210.754 69.7617Z" fill="#D6E3F2"/>
<path d="M222.763 122.364C222.681 122.444 222.598 122.522 222.516 122.602C222.6 122.522 222.681 122.444 222.763 122.364Z" fill="#CCCCCC"/>
<path d="M101.731 172.58C101.731 167.734 101.731 162.888 101.731 158.042C101.295 155.326 102.695 152.455 105.285 151.841C108.997 151.086 112.809 150.854 116.56 150.304C123.146 149.468 129.732 148.621 136.316 147.779C137.761 147.544 139.327 147.368 140.531 148.396C142.298 149.681 144.343 150.957 144.357 153.389C144.403 163.898 144.357 174.41 144.376 184.919C144.503 187.783 142.628 190.633 139.673 191.014C129.398 192.392 119.098 193.604 108.821 194.969C106.213 195.387 101.459 191.64 101.727 188.887C101.733 183.451 101.729 178.016 101.729 172.58C101.727 172.58 101.729 172.58 101.731 172.58Z" fill="black"/>
<path d="M113.083 171.147C108.217 172.06 109.579 179.715 114.639 178.034C115.125 180.585 116.218 183.062 119 183.676C119.086 184.315 119.172 184.956 119.26 185.611C117.059 187.249 114.799 188.743 112.582 190.349C111.384 191.153 110.758 192.312 110.326 193.671C107.365 194.617 104.614 192.947 104.997 189.632C104.991 179.217 105.007 168.797 104.993 158.384C104.794 156.908 105.928 154.992 107.941 154.495C115.559 153.278 123.256 152.511 130.907 151.491C133.796 151.127 136.687 150.758 139.573 150.377C141.866 149.862 143.557 152.021 143.338 154.187C143.203 164.889 143.569 175.622 143.187 186.309C142.665 189.839 139.014 190.166 136.105 190.412C134.502 187.018 130.34 186.43 127.281 184.837C127.12 184.194 127.191 183.584 127.208 182.954C130.416 181.56 131.208 178.849 132.029 175.741C136.175 176.042 137.467 169.384 133.071 168.868C133.358 166.956 133.607 164.841 134.439 163.071C135.21 161.812 135.966 160.356 135.665 158.827C134.862 159.013 134.074 159.404 133.284 158.696C134.127 157.426 134.733 155.821 134.381 154.296C130.272 157.105 127.099 154.865 122.603 155.592C120.554 155.637 119.317 157.179 118.132 158.605C111.691 160.741 112.776 165.691 113.083 171.147Z" fill="#EDF5FD"/>
<path d="M119.238 187.019C119.308 187.026 119.388 187.007 119.422 187.038C120.297 187.697 120.155 185.902 120.243 185.394C121.328 184.827 122.336 184.045 123.48 183.609C123.697 183.553 123.996 183.551 123.939 183.234C123.9 183.023 123.646 183.015 123.447 183.007C122.106 182.97 120.778 182.853 119.457 182.62C115.545 182.116 116.214 178.214 115.103 175.555C114.681 175.915 114.804 176.398 114.599 176.82C112.773 178.142 110.357 176.011 111.17 173.968C111.8 172.189 113.539 171.458 114.736 173.176C117.521 174.791 116.669 168.281 117.08 166.833C117.082 164.446 120.153 164.94 121.789 164.401C123.98 164.065 126.213 163.799 128.428 164.049C129.667 164.235 129.896 165.775 130.038 166.798C130.3 168.031 129.978 171.262 131.495 171.558C131.987 171.509 132.048 170.961 132.185 170.584C132.49 169.509 134.052 170.011 134.437 170.785C135.442 172.363 134.042 175.031 132.144 174.597C131.892 173.681 131.262 172.652 131.129 174.304C131.094 175.905 130.564 177.385 129.995 178.849C129.372 181.664 123.288 182.767 126.193 183.214C126.486 184.143 125.675 187.296 127.466 185.973C127.769 186.6 127.081 187.241 126.705 187.697C124.807 189.697 120.477 189.654 119.238 187.019Z" fill="#EED3CA"/>
<path d="M139.58 149.276C132.294 150.347 125.005 151.124 117.709 152.101C114.171 152.91 107.849 152.379 105.343 154.814C104.377 155.792 103.871 156.959 103.923 158.351C103.976 169.272 103.955 180.2 103.931 191.118C103.087 191.294 102.84 189.562 102.774 188.964C102.76 178.452 102.774 167.941 102.77 157.428C102.58 155.305 103.525 153.385 105.696 152.836C114.212 151.452 122.831 150.662 131.383 149.472C133.256 149.519 138.612 147.728 139.58 149.276Z" fill="#AFC0D4"/>
<path d="M118.217 187.675C120.743 191.354 126.952 190.852 128.658 186.618C130.824 187.478 133.655 188.236 134.845 190.389C127.348 191.847 119.328 192.42 111.637 193.522C111.776 191.415 116.474 188.897 118.217 187.675Z" fill="#D52B1E"/>
<path d="M126.049 159.432C125.302 160.042 124.729 160.507 124.19 160.947C123.32 160.73 125.142 158.72 126.049 159.432Z" fill="white"/>
<path d="M124.434 159.052C123.83 159.697 123.292 160.272 122.747 160.853C121.984 160.499 123.908 158.452 124.434 159.052Z" fill="white"/>
<path d="M117.411 162.393C116.963 162.837 116.621 163.177 116.297 163.496C115.716 163.41 116.776 161.987 117.411 162.393Z" fill="white"/>
<path d="M116.334 162.247C115.982 162.706 115.666 163.113 115.349 163.525C114.831 163.343 115.953 161.889 116.334 162.247Z" fill="white"/>
<path d="M122.707 179.737C119.059 179.875 117.409 175.655 120.433 175.205C122.566 175.436 124.787 175.706 126.773 174.703C127.944 174.408 128.562 175.747 128.198 176.716C127.488 179.017 124.886 179.588 122.707 179.737Z" fill="black"/>
<path d="M118.478 171.751C119.043 168.932 122.051 171.317 120.63 173.166C119.629 174.415 118.271 173.115 118.478 171.751Z" fill="black"/>
<path d="M128.54 171.02C128.757 172.378 127.261 173.499 126.421 172.234C125.162 170.279 128.143 168.289 128.54 171.02Z" fill="black"/>
<path d="M111.895 173.503C113.694 172.347 115.852 176.914 113.297 174.852C112.832 175.237 112.863 175.958 112.3 176.265C112.06 175.688 112.06 175.688 112.779 174.244C112.525 174.033 112.261 173.812 111.895 173.503Z" fill="black"/>
<path d="M132.925 172.177C131.293 173.985 132.098 170.814 133.332 170.811C134.108 170.75 134.153 171.438 133.455 171.723C134.241 172.9 133.707 173.825 132.925 172.177Z" fill="black"/>
<path d="M118.509 169.646C118.33 168.448 120.101 167.791 120.947 168.477C121.324 168.686 121.547 169.454 120.912 169.417C120.355 169.245 119.825 168.856 119.28 169.292C119.047 169.439 118.877 169.726 118.509 169.646Z" fill="black"/>
<path d="M127.414 167.538C128.039 167.54 128.737 167.824 128.721 168.483C128.684 168.606 128.444 168.819 128.282 168.692C127.302 167.963 126.862 169.046 126.202 168.721C125.895 168.056 126.886 167.579 127.414 167.538Z" fill="black"/>
<path d="M124.125 171.851C124.872 171.571 125.374 172.429 125.798 172.916C125.783 174.022 124.379 172.3 124.125 171.851Z" fill="black"/>
<path d="M123.129 180.399C123.497 180.448 125.033 179.973 124.63 180.671C124.171 180.867 123.272 181.027 123.129 180.399Z" fill="black"/>
<path d="M127.469 175.408C126.224 176.957 121.389 177.152 120.031 175.838C120.39 175.543 120.887 175.717 121.303 175.762C123.047 176.1 125.055 176.286 126.658 175.377C126.869 175.221 126.881 175.238 127.469 175.408Z" fill="white"/>
<path d="M122.164 178.923C123.153 178.194 124.22 178.102 125.544 178.433C124.512 179.113 123.343 179.074 122.164 178.923Z" fill="#EF6261"/>
<path d="M214.514 53.3671C214.508 43.4132 214.506 33.4614 214.512 23.5075C214.401 19.4683 211.76 18.289 208.2 17.7588C209.015 9.02512 201.045 6.76902 198.981 15.8794C198.621 15.9244 198.338 15.9531 198.113 15.691C199.071 6.92256 190.755 4.89576 188.909 13.9877C188.638 13.9365 188.434 13.8976 188.239 13.8608C188.88 5.11891 181.141 3.09415 178.959 12.0715C177.34 11.793 175.603 11.3406 174.258 12.5833C172.776 14.0102 170.301 14.8906 170.465 17.3207C170.534 27.4363 170.367 37.558 170.538 47.6695C170.921 52.1551 174.463 53.7356 178.457 54.143C181.667 54.7674 184.878 55.3898 188.088 56.0163C191.652 56.7123 195.216 57.4104 198.779 58.1086C202.261 58.3911 208.165 61.2552 210.878 58.5794C212.585 57.1689 214.7 55.8832 214.514 53.3671ZM184.945 13.1647C184.143 13.2138 183.457 12.9149 182.689 12.8474C183.133 9.30969 185.181 9.87269 184.945 13.1647ZM194.852 15.169C194.039 15.0236 193.304 14.9397 192.565 14.6838C193.161 10.9373 195.2 11.7623 194.852 15.169ZM204.902 17.0934C204.11 17.0156 203.385 16.8867 202.625 16.643C203.233 12.9989 205.205 13.7298 204.902 17.0934Z" fill="black"/>
<path d="M178.905 15.7912C180.319 24.2547 188.425 19.8162 183.085 16.8067C183.814 16.4791 188.036 17.6542 188.881 17.8139C190.396 25.9416 198.217 21.5707 193.096 18.684C195.037 18.7393 196.888 19.3801 198.859 19.6667C200.485 28.0667 208.22 23.5443 203.198 20.7108C203.378 20.5082 203.574 20.5982 203.732 20.6269C205.05 20.8746 206.359 21.1653 207.681 21.3885C209.475 21.6915 210.592 23.2904 210.834 24.8566C211.018 35.095 210.836 45.3519 210.895 55.5964C210.795 59.4453 206.959 58.784 204.436 58.1228C200.358 57.3325 196.28 56.5443 192.202 55.75C186.809 54.6997 181.417 53.6495 176.024 52.591C173.698 52.1345 171.999 50.3554 171.659 48.0154C171.303 37.6909 171.6 27.3235 171.537 16.9868C172.216 13.4696 176.55 15.5148 178.905 15.7912Z" fill="#EDF5FD"/>
<path d="M202.563 19.253C202.409 18.7985 202.391 18.3583 202.477 17.8711C205.042 18.0799 207.562 18.7903 210.105 19.2305C212.062 19.6338 213.27 21.0669 213.428 23.0753C213.506 33.1233 213.424 43.1775 213.465 53.2276C213.477 54.3699 213.133 55.5123 212.13 56.1367C211.526 46.1767 212.13 35.6701 211.919 25.53C211.919 23.8328 211.258 22.4161 209.958 21.3126C207.857 19.7751 204.94 20.1436 202.563 19.253Z" fill="#AFC0D4"/>
<path d="M196.855 13.054C197.122 13.8054 196.991 14.5711 197.015 15.3716C196.685 15.519 196.419 15.4964 196.127 15.3224C196.206 12.3825 194.225 8.67287 191.967 12.7183C190.974 15.2549 190.648 18.9891 193.514 20.3342C194.028 21.1715 193.009 21.5994 192.312 21.2698C188.419 19.3719 189.377 10.757 193.234 9.30957C195.019 10.6669 195.922 10.7304 196.855 13.054Z" fill="#212492"/>
<path d="M186.943 11.056C186.984 11.9015 187.261 12.6856 187.06 13.5291C186.745 13.5004 186.464 13.4738 186.131 13.4431C186.438 10.4377 183.95 6.98395 181.997 11.0068C181.156 13.2445 180.607 16.9849 183.207 18.2399C183.428 18.3218 183.602 18.461 183.654 18.7169C183.891 19.9637 182.243 19.6914 181.686 19.0936C178.869 16.5038 179.522 9.36493 183.009 7.70459C185.058 8.96162 185.705 8.62586 186.943 11.056Z" fill="#212492"/>
<path d="M204.638 13.0357C201.418 12.6794 201.006 17.6134 201.537 19.9043C201.758 20.8399 202.216 21.7386 203.197 22.0416C203.803 22.2115 203.875 23.2516 203.191 23.3498C197.788 23.487 199.745 9.13968 204.888 11.4736C204.679 12.0489 204.006 11.6128 203.709 11.9752C203.836 12.5218 204.872 12.2065 204.638 13.0357Z" fill="#212492"/>
<path d="M192.581 17.3596C192.352 16.854 192.325 16.3872 192.462 15.9102C193.187 15.9163 197.744 16.7741 198.768 17.0976C198.862 17.5521 198.87 18.0229 198.729 18.5491C196.649 18.1908 194.606 17.7916 192.581 17.3596Z" fill="#AFC0D4"/>
<path d="M182.537 15.351C182.459 14.8556 182.398 14.4113 182.555 13.9077C184.629 14.2373 186.65 14.6939 188.699 15.0562C188.84 15.5906 188.797 16.0615 188.744 16.5364C187.978 16.5037 183.614 15.6725 182.537 15.351Z" fill="#AFC0D4"/>
<path d="M204.64 13.0355C204.452 12.6281 203.973 12.6363 203.615 12.4561C202.953 12.2186 203.15 11.5287 203.727 11.5267C206.516 10.9207 207.367 14.7818 207.054 16.8537C205.744 15.9549 206.247 13.752 204.64 13.0355Z" fill="#BCBDDE"/>
<path d="M178.816 13.1603C178.824 13.7253 178.898 14.1737 178.73 14.6732C177.278 14.4091 176.017 14.1696 174.543 13.8789C175.491 12.2676 177.295 12.8532 178.816 13.1603Z" fill="#AFC0D4"/>
<path d="M186.945 11.0561C185.782 10.4255 185.594 8.65256 183.988 8.62595C183.454 8.56043 183.11 8.25129 183.008 7.70467C185.327 6.42922 186.848 9.13367 186.945 11.0561Z" fill="#BCBDDE"/>
<path d="M196.856 13.0538C195.752 12.4785 195.66 10.6052 194.2 10.38C193.59 10.2449 193.117 10.0033 193.232 9.3093C195.449 8.45763 196.989 11.2092 196.856 13.0538Z" fill="#BCBDDE"/>
<path d="M205.621 14C206.114 14.4115 207.05 16.6471 207.054 17.3145C206.69 17.5234 206.254 17.4292 206.127 17.0914C206.217 16.0145 205.75 15.0011 205.621 14Z" fill="#6A6969"/>
<path d="M207.066 31.8728C196.518 29.8398 185.969 27.766 175.421 25.7228C175.018 25.6409 174.348 25.5181 174.477 24.9755C174.6 24.5251 175.093 24.5476 175.462 24.6541C181.626 25.8497 187.789 27.0474 193.953 28.2471C198.35 29.1008 202.746 29.9729 207.146 30.8164C208.032 30.8942 208.057 31.9895 207.066 31.8728Z" fill="black"/>
<path d="M186.854 42.4224C189.39 42.9178 191.822 43.3907 194.296 43.8739C194.558 46.7053 194.488 49.6308 194.326 52.4765C191.827 52.2043 189.374 51.5205 186.884 51.0967C186.692 48.1486 186.796 45.3991 186.854 42.4224Z" fill="black"/>
<path d="M176.434 38.4712C176.434 35.5804 176.434 32.7736 176.434 29.9136C178.942 30.1531 181.47 30.8021 183.949 31.318C184.115 34.1187 184.097 37.0176 183.959 39.8265C181.48 39.6443 179.011 38.8806 176.434 38.4712Z" fill="black"/>
<path d="M183.977 50.4413C183.236 50.4311 177.858 49.4116 176.472 49.0287C176.275 46.2096 176.474 43.3721 176.424 40.4731C179.035 40.8048 181.348 41.4169 183.922 41.8653C184.184 44.6926 184.049 47.5936 183.977 50.4413Z" fill="black"/>
<path d="M186.866 31.8154C189.384 32.3068 191.843 32.7858 194.302 33.267C194.529 36.0942 194.468 39.0137 194.333 41.8553C191.78 41.5994 189.403 40.9524 186.876 40.4734C186.698 37.5928 186.754 34.7062 186.866 31.8154Z" fill="black"/>
<path d="M204.695 45.8942C204.863 48.7604 204.875 51.686 204.672 54.5419C202.183 54.0649 199.716 53.6145 197.263 53.1027C197.097 50.259 197.071 47.2966 197.294 44.4673C199.765 44.93 202.232 45.3927 204.695 45.8942Z" fill="black"/>
<path d="M197.248 42.4368C197.017 39.6464 197.254 36.8109 197.189 33.9795C197.561 33.8321 197.875 33.9529 198.182 34.0123C200.334 34.5098 202.606 34.7186 204.692 35.3717C204.838 36.1947 204.842 42.8647 204.698 43.7921C204.537 43.9825 204.338 43.8802 204.158 43.8454C201.867 43.3499 199.498 43.0674 197.248 42.4368Z" fill="black"/>
<path d="M193.25 51.2665C191.428 50.9061 189.677 50.5622 187.951 50.2203C187.816 49.3789 187.808 44.6558 187.929 43.8267C188.703 43.8246 192.31 44.5105 193.268 44.8421C193.387 45.6733 193.383 50.3984 193.25 51.2665Z" fill="white"/>
<path d="M182.838 38.6349C181.083 38.293 179.324 37.9532 177.527 37.6031C177.39 35.4699 177.408 33.3509 177.517 31.2279C178.299 31.2095 182.051 31.9117 182.895 32.227C183.036 33.267 183.005 37.9184 182.838 38.6349Z" fill="white"/>
<path d="M182.935 49.2562C181.076 48.8979 179.318 48.5601 177.526 48.2162C177.366 46.0665 177.469 43.966 177.481 41.8246C178.265 41.8061 182.065 42.5268 182.935 42.8502C182.935 44.9241 182.935 47.0103 182.935 49.2562Z" fill="white"/>
<path d="M193.273 34.235C193.388 35.0989 193.379 39.8138 193.253 40.6204C191.465 40.3338 189.692 39.9755 187.948 39.6152C187.813 38.7369 187.811 34.0057 187.932 33.2134C188.622 33.2134 192.466 33.9504 193.273 34.235Z" fill="white"/>
<path d="M203.664 53.2752C201.844 52.923 200.083 52.5811 198.337 52.2433C198.2 51.5166 198.171 47.0515 198.288 45.8558C198.953 45.8149 201.823 46.3206 203.635 46.7996C203.768 47.4896 203.797 51.9567 203.664 53.2752Z" fill="white"/>
<path d="M198.262 41.6156C198.262 39.4373 198.262 37.3531 198.262 35.1953C200.121 35.3284 201.822 35.83 203.652 36.1698C203.832 38.3502 203.808 40.465 203.654 42.6679C201.863 42.3178 200.104 41.9738 198.262 41.6156Z" fill="white"/>
<path d="M60.4497 36.8045C36.3082 37.0133 37.9542 2.64156 60.8284 5.32349C80.1895 7.05139 79.7494 35.8709 60.4497 36.8045Z" fill="black"/>
<path d="M49.742 30.4869C41.5714 21.0059 50.1945 4.15481 62.9265 6.9043C63.0084 7.58399 62.6726 8.08148 62.2161 8.52574C51.7607 7.11926 45.3731 19.0958 50.52 27.6862C51.1465 28.585 50.7964 30.0099 49.742 30.4869Z" fill="#FFCE24"/>
<path d="M70.886 11.7256C79.3556 21.1635 70.4909 38.4733 57.6688 35.4433C57.6135 34.6878 58.0496 34.1801 58.543 33.699C69.1438 35.2099 75.8282 22.8259 70.1572 14.1577C69.4652 13.3921 70.061 12.1862 70.886 11.7256Z" fill="#FFCE24"/>
<path d="M49.778 32.5255C39.8896 25.7695 43.5522 8.16496 55.5554 6.35107C45.2105 10.3863 42.1519 24.4183 49.8844 32.4088C49.8476 32.4457 49.8128 32.4846 49.778 32.5255Z" fill="#C67A0F"/>
<path d="M49.7422 30.4863C50.209 29.9458 50.4567 29.2846 50.7515 28.6499C51.161 28.6519 51.4025 28.9386 51.6052 29.2211C52.3566 30.2611 53.3208 31.0616 54.367 31.7781C55.3865 32.2552 54.9791 33.8213 53.9821 34.1243C52.287 33.2358 50.8375 32.0668 49.7422 30.4863Z" fill="#FDF0B9"/>
<path d="M62.2422 8.35737C62.4694 7.87217 62.6967 7.38901 62.926 6.90381C64.7317 7.22114 66.5149 7.8128 67.95 9.00227C67.9316 9.73314 67.3194 10.9267 66.4637 10.3842C65.3274 9.68196 64.1195 9.14762 62.8216 8.81392C62.5759 8.75045 62.322 8.65423 62.2422 8.35737Z" fill="#FDF0B9"/>
<path d="M67.1328 10.4541C67.4051 9.96885 67.6774 9.48569 67.9497 9.00049C68.8525 9.47955 69.5834 10.1654 70.2426 10.9352C70.0502 11.5043 69.7881 12.0284 69.3295 12.4338C68.3714 12.0243 67.618 11.3876 67.1328 10.4541Z" fill="#FFCE24"/>
<path d="M53.9805 34.1227C54.4104 33.6968 54.6663 33.1687 54.8649 32.6077C55.8353 32.3948 56.5375 32.8124 57.1005 33.5617C57.0432 34.2169 56.8221 34.7717 56.1649 35.0501C55.3706 34.8925 54.6643 34.5342 53.9805 34.1227Z" fill="#FFCE24"/>
<path d="M56.1641 35.0498C56.4568 34.5216 56.7516 33.9914 57.0444 33.4632C57.6135 33.2891 58.1499 33.2421 58.5143 33.8481C58.2339 34.3803 57.9513 34.9106 57.6709 35.4429C57.1447 35.3999 56.6349 35.2934 56.1641 35.0498Z" fill="#FDF0B9"/>
<path d="M69.2372 12.4049C69.53 11.8869 69.7409 11.3117 70.2424 10.937C70.4574 11.1991 70.6724 11.4632 70.8873 11.7252C70.5925 12.2473 70.2711 12.7509 69.8944 13.2197C69.4276 13.1481 69.186 12.8942 69.2372 12.4049Z" fill="#FDF0B9"/>
<path d="M50.2835 32.7899C50.2528 32.7797 50.2221 32.7715 50.1914 32.7612C50.218 32.7735 50.2467 32.7878 50.2733 32.8001L50.2835 32.7899Z" fill="#6A6969"/>
<path d="M50.2734 32.7998C50.2919 32.8141 50.3103 32.8284 50.3267 32.8407C50.3123 32.8244 50.298 32.8059 50.2837 32.7896L50.2734 32.7998Z" fill="#6A6969"/>
<path d="M69.2361 12.405C77.9084 22.7519 67.8317 38.9049 54.8663 32.6095C39.438 21.9412 54.8049 -1.41006 69.2361 12.405Z" fill="black"/>
<path d="M71.3949 21.4582C69.6056 41.286 43.3902 32.7468 50.8239 15.3286C56.46 4.26923 71.7471 9.77231 71.3949 21.4582Z" fill="#FFCE24"/>
<path d="M59.3493 24.6928C58.3768 26.5743 57.4515 28.4885 56.2436 30.2307C55.0009 29.465 51.9791 27.8907 52.1347 26.3327C53.5965 23.055 55.5127 19.9943 57.3266 16.9009C58.6676 19.288 56.8086 22.9219 59.3493 24.6928Z" fill="#FDF0B9"/>
<path d="M59.3495 24.6925C57.8918 24.5389 57.7587 23.1877 57.7301 21.9901C57.5213 19.5129 57.3452 17.0336 57.1712 14.5564C56.9235 13.066 58.4487 11.6882 59.8429 12.5644C61.669 13.1213 60.6147 19.3204 61.5749 20.9808C62.5125 20.9808 63.4358 20.8538 64.351 20.6573C64.9037 20.2847 65.4749 20.082 66.1137 20.4505C69.7865 19.5108 70.4621 22.9277 67.9972 23.589C66.6194 23.8142 65.2252 23.9473 63.8494 24.195C63.2557 24.5615 62.6436 24.7703 61.9598 24.4345C61.0897 24.5205 60.2196 24.6065 59.3495 24.6925Z" fill="black"/>
<path d="M61.5718 20.9793C61.449 20.9998 61.3262 21.0202 61.146 21.0509C60.3496 18.3076 61.32 15.0565 59.8398 12.565C60.1142 11.8648 60.4745 11.2158 60.9843 10.5894C62.7429 10.9292 64.3459 11.5741 65.7851 12.7206C64.6878 15.5949 62.7388 18.1254 61.5718 20.9793Z" fill="#FDF0B9"/>
<path d="M61.9602 24.4348C62.5907 24.355 63.2192 24.2752 63.8498 24.1953C62.6399 26.7237 61.2334 29.1681 59.7921 31.5737C59.2537 31.674 58.8401 31.4304 58.3672 31.1765C59.4215 28.8529 60.9324 26.7687 61.9602 24.4348Z" fill="#FDF0B9"/>
<path d="M66.1143 20.4485C65.5267 20.5181 64.9391 20.5877 64.3516 20.6553C65.3076 18.7452 66.4234 16.9395 67.5269 15.1133C68.0039 15.3917 68.0797 15.8319 68.309 16.2127C67.7111 17.6867 66.7018 18.9683 66.1143 20.4485Z" fill="#FDF0B9"/>
<path d="M59.7211 23.5892C58.808 23.7263 58.8305 22.7232 58.7588 22.0742C58.6319 20.4118 58.5193 18.7494 58.4026 17.087C58.3719 16.047 58.161 14.9947 58.247 13.9608C58.5705 12.8799 59.5491 13.492 59.4918 14.4174C60.5482 23.2595 57.7332 22.5942 67.122 21.4293C67.8426 21.1877 68.9195 21.7691 68.0187 22.4345C65.2897 23.018 62.4992 23.2698 59.7211 23.5892Z" fill="#C67A0F"/>
<path d="M99.2131 19.9678C113.89 19.6853 120.357 39.8796 108.61 48.3717C102.255 52.7406 93.6056 53.7622 87.7299 48.0974C82.0139 43.1368 80.7896 34.0469 84.8576 27.6799C87.8056 22.7848 93.7345 20.4141 99.2131 19.9678Z" fill="black"/>
<path d="M87.2179 45.997C77.4831 35.4085 88.2518 17.0301 102.251 23.0553C102.339 23.9028 101.543 24.8077 100.716 24.3389C88.737 20.7029 81.289 35.5211 88.2682 44.654C88.0593 45.2129 87.8526 45.7718 87.2179 45.997Z" fill="#FFCE24"/>
<path d="M108.718 28.5376C115.72 38.1803 107.187 53.6474 95.0078 50.6605C95.0529 48.5538 97.5219 49.1312 98.9365 48.9326C104.994 48.0359 108.854 42.3915 108.97 37.0686C109.015 35.007 108.706 33.0375 107.918 31.1376C107.425 30.2389 107.904 29.1006 108.718 28.5376Z" fill="#FFCE24"/>
<path d="M109.589 45.9435C115.59 36.3765 110.92 23.6404 99.7109 21.022C111.925 21.0199 118.37 37.6745 109.618 45.9762C109.618 45.9742 109.589 45.9435 109.589 45.9435Z" fill="#C67A0F"/>
<path d="M87.2188 45.9967C87.6262 45.6302 88.138 44.1664 88.701 45.0243C89.7226 46.1421 90.9284 47.0203 92.2264 47.784C93.3258 48.1402 93.2173 49.2744 92.3083 49.819C90.2897 48.9714 88.5638 47.7369 87.2188 45.9967Z" fill="#FDF0B9"/>
<path d="M101.535 24.3103C101.775 23.8906 102.012 23.4729 102.254 23.0532C104.01 23.7247 105.697 24.8057 106.891 26.2593C106.831 26.8693 106.211 27.9728 105.546 27.3607C104.356 26.3964 103.193 25.3933 101.814 24.6931C101.664 24.6173 101.562 24.4843 101.535 24.3103Z" fill="#FDF0B9"/>
<path d="M95.8809 49.2499C95.5902 49.7208 95.2994 50.1916 95.0087 50.6625C94.4887 50.5274 93.9708 50.3923 93.4508 50.2572C93.2952 49.5857 93.721 49.1926 94.1448 48.7975C94.7897 48.7033 95.4243 48.6398 95.8809 49.2499Z" fill="#FDF0B9"/>
<path d="M108.719 28.5373C108.408 29.0634 108.099 29.5916 107.788 30.1178C106.5 29.7349 106.693 27.7081 107.952 27.4297C108.21 27.7982 108.464 28.1688 108.719 28.5373Z" fill="#FDF0B9"/>
<path d="M107.954 27.4301C107.487 27.7823 107.333 28.3555 106.983 28.7916C105.446 28.2081 106.171 27.2315 106.887 26.2632C107.243 26.6501 107.598 27.0391 107.954 27.4301Z" fill="#FFCE24"/>
<path d="M94.1491 48.91C93.9178 49.3583 93.6864 49.8067 93.4551 50.255C93.0722 50.1097 92.6894 49.9643 92.3086 49.819C92.5399 49.3768 92.7713 48.9345 93.0006 48.4903C93.5083 48.2856 93.9157 48.3572 94.1491 48.91Z" fill="#FFCE24"/>
<path d="M109.408 46.1587C109.383 46.2017 109.357 46.2467 109.332 46.2897C109.24 46.1546 109.349 46.1771 109.424 46.173L109.408 46.1587Z" fill="#6A6969"/>
<path d="M109.617 45.9741C109.548 46.0355 109.478 46.0969 109.406 46.1583L109.423 46.1727C109.4 46.0396 109.447 45.9577 109.588 45.9434L109.617 45.9741Z" fill="#6A6969"/>
<path d="M94.1519 48.9101C79.129 43.9025 84.7652 19.5522 100.793 24.0848C115.241 29.1969 109.801 52.6198 94.1519 48.9101Z" fill="black"/>
<path d="M88.9682 43.8183C81.3319 34.9188 91.3021 19.6133 102.501 26.0315C112.221 31.4282 108.692 48.6765 97.0386 48.2199C93.7916 48.0889 90.6429 46.6128 88.9703 43.8203C89.523 43.4866 89.8117 43.9923 90.129 44.238C91.0544 44.9484 91.9634 45.6629 93.03 46.1727C94.5041 46.9547 94.3894 44.76 95.4151 44.3014C96.4367 44.9054 96.0764 46.2873 95.7488 47.1697C96.6762 47.9374 97.0857 47.0612 97.6917 46.4306C98.4451 46.2116 99.4871 46.3426 99.3274 45.2268C99.2005 42.766 102.282 42.9257 102.169 39.4085C103.266 37.6683 104.321 35.8994 105.363 34.1244C105.748 33.4693 105.762 32.9084 105.123 32.3105C103.772 33.803 103.158 35.8032 101.756 37.1872C98.9385 36.5402 102.787 33.0476 103.295 31.6431C103.942 30.5376 103.942 30.5028 103.006 29.5754C101.944 28.9203 100.279 26.353 99.1084 27.8639C96.9076 28.1648 99.2722 25.4542 95.7672 26.355C94.9217 26.3632 94.4959 26.7481 94.5266 27.6182C94.5675 28.5947 93.4988 28.9776 92.987 29.6634C91.513 31.2726 91.4618 33.5184 92.8581 35.2074C93.591 35.8196 93.896 36.6016 93.2081 37.3919C91.8119 39.5436 90.3563 41.6584 88.9682 43.8183Z" fill="#FFCE24"/>
<path d="M93.5469 36.3497C90.6602 34.0076 91.127 29.9642 94.3085 28.1749C94.3965 27.5198 93.9973 26.2156 95.0107 26.1972C96.7939 26.1522 98.4153 24.9934 98.2393 27.6672C99.9856 27.8719 101.39 28.57 102.211 30.13C102.682 30.8937 101.822 31.6 101.318 32.1016C100.082 33.7455 99.0234 31.4771 97.5186 31.5386C96.0528 31.2806 95.3526 33.0699 96.755 33.7148C98.7019 34.6668 100.473 35.2748 101.705 37.189C102.418 37.7316 102.663 38.4276 102.397 39.2936C102.467 41.2979 101.39 42.9972 99.6539 43.9614C99.5127 44.852 100.155 46.4264 98.8104 46.4694C96.6383 46.7355 95.7866 47.6097 95.7088 44.7066C95.6781 44.4651 95.5205 44.3852 95.2912 44.4159C93.0965 44.2133 90.089 41.7504 92.9307 39.7604C94.2757 38.6774 95.2441 40.9478 96.7509 40.5937C97.9854 40.653 98.5484 39.1933 97.3876 38.5955C96.2288 37.6722 94.4415 37.5391 93.5469 36.3497Z" fill="black"/>
<path d="M93.5465 36.3501C95.0471 37.255 97.0289 37.6215 98.1426 39.032C99.1294 41.1919 95.5446 41.2185 94.5189 40.0823C93.4953 38.7106 92.748 40.4631 91.968 41.151C91.577 42.8359 93.9702 43.9086 95.2907 44.4164C94.9181 45.3643 94.392 46.2528 93.8822 46.7707C92.2403 46.2425 90.842 45.18 89.5604 44.054C89.3925 43.9025 89.241 43.7121 88.9688 43.8186C89.9822 41.1223 92.1891 38.9153 93.5465 36.3501Z" fill="#FDF0B9"/>
<path d="M100.735 36.0755C99.603 34.9249 93.7519 33.6924 96.3008 31.551C97.5435 30.9122 99.0257 31.5694 99.9327 32.505C100.778 32.9677 101.452 31.4138 102.037 30.9532C102.33 29.4013 100.27 28.4575 99.1097 27.8659C99.296 27.5301 99.4167 27.1432 99.7566 26.9282C100.788 27.2783 103.311 29.3481 104.121 30.513C103.257 32.4866 101.83 34.2145 100.735 36.0755Z" fill="#FDF0B9"/>
<path d="M102.395 39.2939C102.299 38.5487 102.006 37.867 101.703 37.1893C102.805 35.4184 103.908 33.6496 104.981 31.9258C105.663 31.8725 105.687 32.9269 106.049 33.3916C104.776 35.3345 103.847 37.5148 102.395 39.2939Z" fill="#FDF0B9"/>
<path d="M95.8961 46.3633C96.3691 46.8096 97.0569 46.5782 97.6425 46.6171C97.2105 48.0605 96.4694 47.7943 95.3516 47.4442C95.3905 46.9918 95.6505 46.7113 95.8961 46.3633Z" fill="#FDF0B9"/>
<path d="M95.3961 28.8486C95.4186 28.3245 95.4411 27.8086 95.4637 27.2804C95.9652 27.0756 96.4402 27.0695 96.9684 27.1145C97.212 27.5629 97.0831 28.0911 97.3185 28.5906C98.7024 28.8404 100.091 29.1966 100.95 30.5151C100.842 30.8795 100.617 31.0965 100.277 31.2848C98.4506 29.6347 93.7235 29.905 94.7144 33.2134C95.4493 35.2729 97.8835 35.2975 99.4169 36.4788C102.42 38.2292 101.624 42.1784 98.508 43.3331C98.4588 43.9636 98.6943 44.6433 98.5161 45.3312C98.0084 45.5052 97.5089 45.6219 96.952 45.5032C96.6838 44.9136 96.952 44.2687 96.7678 43.6729C95.4473 43.2061 93.8402 43.0424 93.0479 41.6625C93.1564 41.2653 93.3877 41.0545 93.6969 40.8641C95.695 42.7394 100.903 41.9307 99.0198 38.479C97.8979 36.7531 95.6131 36.616 94.1166 35.3651C91.5738 33.5205 92.6589 29.8518 95.3961 28.8486Z" fill="#C67A0F"/>
<path d="M59.848 152.367C61.9035 146.625 63.9815 140.859 66.1024 135.135C66.6532 131.061 65.0727 126.836 64.7901 122.727C64.1371 116.45 62.1655 110.177 62.9763 103.841C64.0634 96.4315 64.6489 88.9365 65.8711 81.5478C66.4239 78.6796 68.3237 76.5013 70.631 74.8184C71.9699 73.9094 73.0161 72.593 74.5905 72.0669C76.2303 79.0788 77.6573 86.1563 79.2255 93.1764C79.5039 93.2419 79.5469 93.0986 79.592 92.9901C80.1468 91.4771 80.8203 89.9744 82.235 89.0818C85.3591 86.8503 88.9521 89.8762 89.3964 93.1764C89.7075 94.6484 89.5929 96.0917 89.2039 97.5432C87.9203 102.348 86.4728 107.106 85.0705 111.876C84.8002 113.256 83.8933 114.611 84.1533 116.038C85.2445 121.025 86.3234 126.017 87.4146 131.004C89.0749 138.411 90.6575 145.834 92.2523 153.256C92.5389 154.672 91.2799 155.833 91.1161 157.232C90.594 159.056 90.0679 160.882 89.4967 162.69C89.036 164.164 90.8868 164.978 91.0178 166.432C91.2184 167.21 91.2225 167.959 90.9687 168.743C90.0802 171.483 89.251 174.238 88.3686 176.98C87.6685 179.16 86.9212 181.324 86.2047 183.498C86.0654 183.922 85.8157 184.235 85.4758 184.514C77.9418 188.852 64.223 183.085 57.2152 179.154C53.9949 177.17 50.5227 174.873 49.0056 171.262C48.3485 169.327 50.5186 165.894 51.0222 163.822C52.2424 160.644 53.6734 157.551 55.2805 154.556C56.0278 152.654 58.0996 152.83 59.848 152.367Z" fill="black"/>
<path d="M71.6514 75.4243C75.6907 77.4081 75.5228 82.3564 76.5362 86.1623C76.135 86.6413 72.7406 84.7415 71.9422 84.5326C71.0884 85.2287 76.0756 87.2146 76.7471 87.3968C77.5845 90.6253 77.3674 94.0627 77.1852 97.3752C77.1013 99.7562 75.7521 101.748 74.751 103.832C73.9997 104.154 71.8705 104.062 71.7026 104.87C72.4458 105.237 73.2381 104.944 74.059 104.989C73.9751 105.814 73.4817 106.461 73.3159 107.171C75.0008 109.382 80.7025 90.8813 82.5839 90.2016C87.3704 86.9853 89.5078 94.6155 87.9867 98.1225C85.9066 105.521 83.411 112.812 81.6094 120.282C81.5275 120.755 81.1672 122.16 82.0639 121.654C82.8541 120.559 82.7231 119.207 83.4417 118.026C84.4387 122.381 85.3232 126.692 86.2792 131.047C87.1104 134.062 86.8545 137.275 85.8923 140.231C84.0416 140.906 82.1212 140.245 80.2316 140.319C79.687 140.597 80.4281 140.994 80.7229 141.097C83.2063 142.061 85.9107 141.631 88.3327 140.722C90.8058 148.727 90.5355 157.322 87.612 165.169C87.0163 170.06 67.606 162.071 64.7624 160.532C57.9388 156.623 59.0157 157.928 61.4703 151.147C63.4419 145.703 65.354 140.237 67.3071 134.785C67.5937 130.951 66.2712 127.003 65.9641 123.144C65.2947 117.563 64.0192 112.023 63.7797 106.41C64.5761 99.662 65.4973 92.9101 66.3183 86.1582C66.6725 81.7709 67.5835 77.8503 71.6514 75.4243Z" fill="#EED3CA"/>
<path d="M82.1394 169.724C78.745 169.794 75.6495 167.92 72.2838 168.072C74.7958 170.596 84.2808 171.44 87.8144 170.602C88.0458 170.92 87.8881 171.237 87.7858 171.534C86.1418 175.727 85.3679 180.374 83.3002 184.344C75.842 186.217 67.9047 182.978 61.122 179.995C57.9733 178.388 48.7401 173.479 50.2223 169.261C51.6739 165.165 53.1356 160.949 55.2607 157.18C56.0857 158.863 57.2015 160.368 58.7574 161.441C59.7483 162.049 61.6809 163.844 62.7926 163.482C61.9983 161.144 54.6445 159.289 58.0409 156.145C58.1433 156.13 58.2292 156.161 58.3029 156.235C57.4431 160.937 87.1265 171.737 88.4982 166.25C90.1995 168.408 83.507 169.593 82.1394 169.724Z" fill="#D52B1E"/>
<path d="M83.3008 184.344C84.8608 179.782 86.3082 175.182 87.815 170.602C88.2552 170.42 88.6872 170.209 89.2727 170.183C88.1569 174.292 86.6726 178.276 85.4218 182.345C85.174 183.498 84.435 184.155 83.3008 184.344Z" fill="#D52B1E"/>
<path d="M82.1406 169.724C83.4591 169.028 89.5026 168.484 88.4995 166.254C88.6121 165.814 88.7226 165.376 88.8598 164.837C93.2184 169.327 85.2852 170.277 82.1406 169.724Z" fill="#D52B1E"/>
<path d="M58.1457 156.224C57.6769 156.798 57.4005 157.469 57.1385 158.151C55.4392 156.267 56.5918 153.34 59.2717 153.571C58.9892 154.564 58.7394 155.485 58.1457 156.224Z" fill="#D52B1E"/>
<path d="M58.3945 155.907C58.4437 155.817 58.4908 155.727 58.5399 155.637C58.4928 155.725 58.4437 155.815 58.3945 155.907Z" fill="#9B1D1F"/>
<path d="M58.1445 156.224C58.2121 156.155 58.2817 156.087 58.3513 156.018C58.3349 156.091 58.3185 156.163 58.3042 156.237C58.251 156.233 58.1978 156.228 58.1445 156.224Z" fill="#9B1D1F"/>
<path d="M221.635 147.833C218.216 150.412 211.997 147.855 214.015 143.306C216.157 143.404 218.302 143.636 220.481 143.703C222.272 141.12 222.735 139.987 222.51 136.818C224.34 136.022 226.375 135.543 228.019 134.284C225.275 129.282 228.819 121.492 235.039 124.815C236.55 122.256 236.537 119.343 236.31 116.472C239.373 116.206 243.566 117.349 245.664 119.709C248.96 123.826 251.88 128.22 254.893 132.542C257.669 135.762 257.981 140.055 256.926 144.039C254.691 153 251.343 161.613 248.328 170.33C247.771 172.539 247.984 174.92 248.051 177.18C254.566 179.099 252.271 181.418 252.65 186.893C254.615 194.607 234.771 194.128 229.99 193.915C226.86 193.589 218.716 193.206 218.667 189.022C218.697 186.696 218.691 184.37 218.663 182.045C218.566 179.252 221.627 178.419 223.76 177.623C223.883 175.852 224.106 174.103 224.145 172.414C214.666 163.058 217.584 158.259 222.065 147.581C222.014 147.505 221.742 147.722 221.635 147.833Z" fill="black"/>
<path d="M229.97 137.14C231.841 139.132 233.534 141.271 235.34 143.323C235.733 143.883 236.448 144.459 236.108 145.204C234.003 151.076 230.322 156.503 229.534 162.788C229.307 165.087 229.688 167.292 230.75 169.356C230.945 169.71 231.847 171.366 232.007 170.332C231.006 167.36 230.083 164.258 230.928 161.124C232.259 155.774 235.035 150.998 237.007 145.869C237.291 146.115 237.531 146.322 237.774 146.533C239.877 145.579 231.258 137.279 230.273 135.813C227.202 132.793 227.116 125.278 232.55 125.145C234.165 125.132 235.152 126.541 236.165 127.597C239.856 131.751 243.648 135.872 248.162 139.152C248.731 139.615 252.302 141.67 252.163 140.182C250.416 139.044 248.412 138.29 246.895 136.804C245.282 135.211 243.265 133.913 242.039 131.983C240.7 130.058 240.133 126.95 237.406 126.69C236.652 123.691 237.574 120.651 237.551 117.57C243.04 117.944 244.833 120.002 247.771 124.287C250.164 127.644 252.551 131.008 254.889 134.405C259.017 140.585 253.065 152.009 251.254 158.679C249.829 162.813 248.262 166.938 247.022 171.122C246.811 173.018 247.12 174.961 246.835 176.867C239.521 175.61 232.247 175.747 224.966 177.281C224.846 175.573 225.106 173.942 225.181 172.246C225.21 171.882 225.091 171.634 224.811 171.403C222.649 169.618 221.103 167.366 219.91 164.856C217.336 159.805 220.391 154.419 222.457 149.759C224.539 145.294 226.819 140.944 229.97 137.14Z" fill="#EED3CA"/>
<path d="M250.28 186.166C240.842 183.226 228.919 183.427 219.864 187.511C219.71 185.65 219.874 183.828 219.79 181.969C219.772 181.234 220.036 180.687 220.613 180.296C222.677 178.88 225.176 178.327 227.6 177.901C234.833 176.832 243.094 176.073 249.406 180.485C251.06 181.5 250.456 183.531 250.556 185.165C250.548 185.517 250.591 185.894 250.28 186.166Z" fill="#D52B1E"/>
<path d="M237.095 185.525C248.955 184.954 260.319 190.04 240.788 192.588C236.573 193.084 232.307 193.117 228.089 192.611C226.064 192.429 216.399 190.91 221.376 188.078C226.234 185.818 231.807 185.488 237.097 185.505C237.095 185.511 237.095 185.517 237.095 185.525Z" fill="#9B1D1F"/>
<path d="M214.996 145.976C220.544 142.318 219.779 148.095 223.177 141.239C224.033 141.388 224.649 141.413 225.519 141.272C223.76 144.572 220.405 149.369 215.942 147.147C215.514 146.887 215.146 146.584 214.996 145.976Z" fill="#EED3CA"/>
<path d="M250.28 186.166C250.057 184.6 250.811 182.528 249.852 181.218C247.772 179.298 244.994 178.413 242.28 177.84C241.782 177.713 241.217 177.729 240.871 177.295C244.28 177.564 248.006 177.82 250.952 179.701C252.021 180.225 251.404 185.306 251.433 186.686C250.948 186.678 250.63 186.383 250.28 186.166Z" fill="#FCA6A6"/>
<path d="M228.889 135.707C229.03 135.876 229.128 135.995 229.265 136.159C228.242 138.102 226.174 140.921 223.668 140.08C223.523 139.748 223.56 139.402 223.617 139.003C225.701 138.462 227.347 137.209 228.889 135.707Z" fill="#EED3CA"/>
<path d="M238.636 128.224C238.882 128.572 239.078 128.849 239.322 129.192C238.97 129.283 238.867 129.049 238.734 128.916C238.585 128.767 238.374 128.615 238.636 128.224Z" fill="#EED3CA"/>
<path d="M220.403 123.927C217.995 122.475 218.358 118.649 220.741 117.345C221.899 118.377 222.565 119.902 222.831 121.417C223.048 122.774 221.435 123.39 220.403 123.927Z" fill="black"/>
<path d="M220.563 122.702C219.769 121.724 219.832 120.76 220.117 119.681C220.806 120.053 221.077 120.792 221.533 121.39C221.924 122.072 221.023 122.297 220.563 122.702Z" fill="#EED3CA"/>
</svg>
