<svg width="300" height="200" viewBox="0 0 300 200" fill="none" xmlns="http://www.w3.org/2000/svg">
<path d="M72.3978 89.363C56.4754 105.507 28.4012 99.6988 20.3363 78.4718C10.4636 53.1696 34.9285 27.9825 60.5482 36.958C82.2251 44.5837 88.7293 72.5821 72.7356 89.041C72.6119 89.1383 72.49 89.2352 72.3978 89.363Z" fill="#D52B1E" stroke="black" stroke-miterlimit="10"/>
<path d="M24.5792 77.1945C23.9017 75.4211 23.3099 73.539 23.0925 71.6462C22.9722 71.1318 22.9012 70.5692 22.8639 70.0598C20.7262 51.4387 38.4702 35.639 56.7169 40.2349C78.2061 45.3743 84.8778 72.8725 68.5777 87.5928C54.647 100.505 31.1958 95.0493 24.5792 77.1945Z" fill="white" stroke="black" stroke-miterlimit="10"/>
<path d="M53.658 59.8262C53.658 59.8262 62.737 56.452 67.112 54.8771C67.1686 54.8561 67.2997 54.9026 67.3206 54.9515C67.7983 56.1969 68.2447 57.4564 68.6585 58.7248C69.2169 60.4893 69.8201 62.2398 70.471 63.9718C70.5369 64.3412 70.9965 64.8659 70.6799 65.1725C66.5326 66.8498 58.1617 70.0207 58.1617 70.0207C58.1617 70.0207 61.9708 82.1383 62.8675 84.3666C62.9237 84.511 62.9242 84.6218 62.7354 84.6724C58.8258 86.0895 54.8939 87.4524 50.9757 88.8446C50.5155 89.0146 49.9799 86.1955 49.6692 85.7399C48.9469 83.3929 48.0044 81.1167 47.3329 78.7561C46.9653 78.0084 46.2855 74.2008 45.1678 74.8718C41.0816 76.4355 36.9555 77.9088 32.8913 79.5327C32.3462 79.6691 32.3518 78.3253 32.0793 77.9762C31.1525 75.3086 30.1772 72.6559 29.1914 70.008C29.1399 69.874 29.1401 69.7728 29.3099 69.7098C32.6028 68.452 35.8343 67.0453 39.0887 65.6948C39.8342 65.174 42.3238 64.8824 42.191 63.8422C40.7965 59.5453 39.2647 55.2658 37.7693 50.992C37.6959 50.7977 37.7786 50.6996 37.9552 50.6329C41.4887 49.2425 45.0011 47.7587 48.4802 46.2448C48.7533 46.088 48.8856 46.1245 48.9886 46.4218C50.7021 50.7694 53.658 59.8262 53.658 59.8262Z" fill="#D52B1E" stroke="black" stroke-miterlimit="10"/>
<path d="M38.8715 134.779C40.7266 139.611 47.0141 137.768 51.0413 137.989C61.3233 136.894 68.967 143.495 64.6301 153.947C64.1544 155.025 63.5627 156.037 62.8315 156.964C62.6643 157.175 62.6281 157.341 62.7732 157.588C63.3724 158.615 63.9483 159.655 64.535 160.689C64.7858 161.13 64.7478 161.289 64.3149 161.571C62.1615 162.977 60.0163 164.394 57.8615 165.795C56.8595 166.586 55.8468 163.575 55.2288 162.973C54.9718 162.562 54.9367 162.397 54.4498 162.558C50.274 163.681 45.6447 163.057 42.0811 160.544C41.3712 160.046 37.5575 156.953 38.8463 156.203C40.7992 154.851 42.7248 153.443 44.7062 152.137C45.9283 151.659 46.1853 155.218 50.6403 155.251C55.4357 155.819 60.2996 148.637 54.2486 146.584C51.2382 145.627 48.0732 146.78 44.982 146.637C32.1391 147.183 23.7799 137.752 33.3123 126.789C33.7207 126.275 31.8452 124.1 31.5578 123.328C31.1496 122.707 31.9016 122.366 32.3372 122.074C34.3667 120.733 36.3978 119.392 38.4278 118.053C38.7926 117.818 39.2877 117.52 39.566 118.031C40.242 119.157 40.9117 120.287 41.591 121.412C41.752 121.678 41.7588 121.684 42.0967 121.595C47.35 120.103 54.1301 121.383 56.6968 126.684C56.9434 127.331 57.6777 128.28 56.7615 128.71C54.8948 129.676 52.9942 130.576 51.1141 131.518C50.6668 131.787 50.116 132.063 49.824 131.441C47.117 125.656 37.4305 128.278 38.8715 134.779Z" fill="#D6E3F2"/>
<mask id="mask0_2392_61638" style="mask-type:luminance" maskUnits="userSpaceOnUse" x="29" y="117" width="37" height="49">
<path d="M38.8715 134.779C40.7266 139.611 47.0141 137.768 51.0413 137.989C61.3233 136.894 68.967 143.495 64.6301 153.947C64.1544 155.025 63.5627 156.037 62.8315 156.964C62.6643 157.175 62.6281 157.341 62.7732 157.588C63.3724 158.615 63.9483 159.655 64.535 160.689C64.7858 161.13 64.7478 161.289 64.3149 161.571C62.1615 162.977 60.0163 164.394 57.8615 165.795C56.8595 166.586 55.8468 163.575 55.2288 162.973C54.9718 162.562 54.9367 162.397 54.4498 162.558C50.274 163.681 45.6447 163.057 42.0811 160.544C41.3712 160.046 37.5575 156.953 38.8463 156.203C40.7992 154.851 42.7248 153.443 44.7062 152.137C45.9283 151.659 46.1853 155.218 50.6403 155.251C55.4357 155.819 60.2996 148.637 54.2486 146.584C51.2382 145.627 48.0732 146.78 44.982 146.637C32.1391 147.183 23.7799 137.752 33.3123 126.789C33.7207 126.275 31.8452 124.1 31.5578 123.328C31.1496 122.707 31.9016 122.366 32.3372 122.074C34.3667 120.733 36.3978 119.392 38.4278 118.053C38.7926 117.818 39.2877 117.52 39.566 118.031C40.242 119.157 40.9117 120.287 41.591 121.412C41.752 121.678 41.7588 121.684 42.0967 121.595C47.35 120.103 54.1301 121.383 56.6968 126.684C56.9434 127.331 57.6777 128.28 56.7615 128.71C54.8948 129.676 52.9942 130.576 51.1141 131.518C50.6668 131.787 50.116 132.063 49.824 131.441C47.117 125.656 37.4305 128.278 38.8715 134.779Z" fill="white"/>
</mask>
<g mask="url(#mask0_2392_61638)">
<path d="M38.3656 136.533C40.3213 141.379 46.8059 139.384 50.9718 139.521C61.5931 138.195 69.5445 144.708 65.142 155.369C64.6578 156.469 64.0548 157.507 63.3051 158.458C63.1342 158.675 63.0984 158.843 63.2507 159.09C63.8784 160.116 64.4807 161.155 65.096 162.188C65.3593 162.629 65.3201 162.79 64.8761 163.085C62.6621 164.552 60.4545 166.029 58.2374 167.492C57.2078 168.314 56.1383 165.292 55.4947 164.694C55.2252 164.283 55.1897 164.117 54.6849 164.291C50.377 165.516 45.586 164.984 41.8843 162.516C41.1465 162.028 37.1804 158.981 38.506 158.194C40.5154 156.786 42.4942 155.323 44.5316 153.958C45.7918 153.449 46.0847 157.041 50.6899 156.98C55.6527 157.452 60.6239 150.089 54.3524 148.141C51.2325 147.237 47.9707 148.469 44.7732 148.391C31.502 149.216 22.7856 139.855 32.5555 128.569C32.9746 128.041 31.0188 125.881 30.7146 125.107C30.2871 124.487 31.0627 124.127 31.5107 123.821C33.5979 122.422 35.6868 121.022 37.7766 119.626C38.1509 119.379 38.6621 119.069 38.9531 119.58C39.6605 120.703 40.3608 121.833 41.0732 122.955C41.2413 123.221 41.2481 123.226 41.5981 123.129C47.0158 121.509 54.0366 122.658 56.73 127.965C56.9897 128.613 57.7566 129.557 56.8115 130.013C54.8902 131.029 52.9314 131.978 50.9951 132.972C50.5349 133.253 49.9667 133.545 49.66 132.921C46.8163 127.133 36.8236 129.99 38.3656 136.533Z" fill="#212492"/>
</g>
<path d="M38.8715 134.779C40.7266 139.611 47.0141 137.768 51.0413 137.989C61.3233 136.894 68.967 143.495 64.6301 153.947C64.1544 155.025 63.5627 156.037 62.8315 156.964C62.6643 157.175 62.6281 157.341 62.7732 157.588C63.3724 158.615 63.9483 159.655 64.535 160.689C64.7858 161.13 64.7478 161.289 64.3149 161.571C62.1615 162.977 60.0163 164.394 57.8615 165.795C56.8595 166.586 55.8468 163.575 55.2288 162.973C54.9718 162.562 54.9367 162.397 54.4498 162.558C50.274 163.681 45.6447 163.057 42.0811 160.544C41.3712 160.046 37.5575 156.953 38.8463 156.203C40.7992 154.851 42.7248 153.443 44.7062 152.137C45.9283 151.659 46.1853 155.218 50.6403 155.251C55.4357 155.819 60.2996 148.637 54.2486 146.584C51.2382 145.627 48.0732 146.78 44.982 146.637C32.1391 147.183 23.7799 137.752 33.3123 126.789C33.7207 126.275 31.8452 124.1 31.5578 123.328C31.1496 122.707 31.9016 122.366 32.3372 122.074C34.3667 120.733 36.3978 119.392 38.4278 118.053C38.7926 117.818 39.2877 117.52 39.566 118.031C40.242 119.157 40.9117 120.287 41.591 121.412C41.752 121.678 41.7588 121.684 42.0967 121.595C47.35 120.103 54.1301 121.383 56.6968 126.684C56.9434 127.331 57.6777 128.28 56.7615 128.71C54.8948 129.676 52.9942 130.576 51.1141 131.518C50.6668 131.787 50.116 132.063 49.824 131.441C47.117 125.656 37.4305 128.278 38.8715 134.779Z" stroke="black" stroke-miterlimit="10"/>
<path d="M218.311 55.5007C219.67 51.2702 222.748 47.9282 225.057 44.205C227.638 40.3857 230.221 36.5686 232.781 32.7339C233.756 30.7968 234.292 31.8354 235.872 32.3889C238.423 33.5239 240.966 34.676 243.515 35.8201C250.369 38.4153 255.831 43.4114 261.821 47.4985C262.36 47.8899 262.419 48.256 262.041 48.8025C259.834 51.9673 257.634 55.1381 255.451 58.3192C248.004 68.6004 247.815 72.9869 234.096 75.705C231.784 76.0134 225.412 77.3852 223.661 76.2254C218.628 70.7297 216.441 62.7477 218.311 55.5007Z" fill="black"/>
<path d="M226.071 75.6944C225.47 75.6656 224.714 75.9729 224.223 75.5261C223.009 74.1853 221.975 72.714 221.132 71.1146C219.191 67.4238 218.253 63.202 218.613 59.0386C218.931 54.2605 221.901 50.516 224.482 46.7044C227.673 41.992 230.804 37.2247 234.057 32.5621C238.942 34.8671 244.116 36.7554 248.802 39.326C248.712 39.9886 249.184 40.2199 249.638 40.542C252.291 42.5328 254.922 44.5625 257.621 46.4957C258.278 46.9712 258.927 47.4585 259.584 47.9339C260.048 48.2704 260.059 48.3822 259.719 48.8455C255.146 55.088 250.871 61.537 246.687 68.0431C241.22 73.3577 233.083 73.7741 226.071 75.6944Z" fill="#212492"/>
<path d="M226.071 75.6943C232.929 73.5713 240.737 73.2842 246.346 68.2843C250.822 61.619 255.177 54.8491 259.921 48.3529C256.945 46.1141 253.9 43.9695 250.946 41.7015C250.343 41.2638 249.81 40.7202 249.138 40.3903C248.733 40.1902 248.636 39.9038 248.804 39.3282C252.999 42.2438 257.191 45.1821 261.27 48.2534C256.601 55.0654 251.912 61.878 247.141 68.6199C242.017 74.1116 233.238 75.2802 226.071 75.6943Z" fill="#D6E3F2"/>
<path d="M221.969 56.1577C222.894 52.5033 225.727 49.8331 227.632 46.6824C229.836 43.4661 232.035 40.2465 234.275 37.0536C234.572 36.6275 234.751 36.5721 235.224 36.7788C237.623 37.8319 240.02 38.8827 242.433 39.901C247.727 41.7571 251.775 45.8511 256.369 48.9339C256.842 49.2239 256.971 49.5329 256.561 50.1486C255.291 51.985 253.939 53.7685 252.643 55.5881C251.188 57.5891 249.729 59.5869 248.278 61.5907C246.558 63.7618 245.289 66.3863 243.025 68.0556C238.944 71.0298 233.761 71.9986 228.81 72.2029C227.708 72.0673 226.197 72.6175 225.401 71.6611C222.181 67.3162 220.512 61.4632 221.969 56.1577Z" fill="black"/>
<path d="M226.83 71.179C233.225 61.6157 239.605 52.0778 246.018 42.4884C249.292 44.8753 252.511 47.222 255.781 49.6056C251.875 55.0426 248.012 60.4912 244.011 65.8559C239.874 70.2758 232.624 71.5586 226.83 71.179Z" fill="#EDF5FD"/>
<path d="M235.01 37.687C238.378 39.1164 241.735 40.5548 245.137 42.0364C238.826 51.6649 232.396 61.2303 225.936 70.7623C222.219 65.8799 220.768 58.1787 224.462 52.8991C228.01 47.8467 231.429 42.7128 235.01 37.687Z" fill="#D6E3F2"/>
<path fill-rule="evenodd" clip-rule="evenodd" d="M281.754 143.245C281.754 143.245 281.753 143.245 281.753 143.245L281.754 143.245ZM282.61 143.707C282.475 143.918 282.259 144.053 282.007 144.104L281.963 144.113L281.918 144.113C281.147 144.127 280.38 144.078 279.629 144.019C279.44 144.004 279.252 143.988 279.065 143.973C278.505 143.927 277.957 143.881 277.405 143.856L277.347 143.853L277.29 143.837C277.144 143.795 276.805 143.771 276.288 143.757C276.136 143.753 275.973 143.75 275.803 143.747C275.436 143.74 275.039 143.732 274.661 143.714C274.111 143.688 273.544 143.638 273.107 143.52C272.891 143.462 272.662 143.376 272.479 143.235C272.281 143.084 272.112 142.846 272.118 142.524L272.119 142.501L272.121 142.478C272.149 142.236 272.254 142.021 272.442 141.869C272.615 141.729 272.813 141.679 272.964 141.659C273.117 141.638 273.269 141.642 273.386 141.648C273.436 141.65 273.477 141.653 273.513 141.655C273.577 141.659 273.624 141.661 273.672 141.661L273.692 141.661L273.712 141.663C274.878 141.753 276.062 141.833 277.249 141.913C278.774 142.017 280.304 142.12 281.81 142.246C282.322 142.28 282.662 142.659 282.733 143.065C282.769 143.27 282.741 143.503 282.61 143.707Z" fill="#D52B1E"/>
<path fill-rule="evenodd" clip-rule="evenodd" d="M231.784 93.9829L231.877 94.2238C232.383 95.5281 232.627 96.9461 232.813 98.3429C232.864 98.7239 232.911 99.1017 232.957 99.476C233.082 100.493 233.204 101.484 233.402 102.44C233.438 102.607 233.471 102.862 233.41 103.112C233.377 103.244 233.314 103.393 233.193 103.521C233.068 103.655 232.907 103.74 232.726 103.777L232.695 103.784L232.663 103.786C232.039 103.832 231.718 103.321 231.569 102.952C231.405 102.551 231.315 102.031 231.253 101.532C231.209 101.174 231.176 100.796 231.146 100.449C231.134 100.309 231.122 100.173 231.11 100.047C231.066 99.5726 231.021 99.2619 230.969 99.1208L230.927 99.0083L230.94 98.889C230.94 98.889 230.94 98.8889 230.94 98.8886L230.941 98.8872L230.941 98.8821C230.941 98.8775 230.941 98.8712 230.941 98.8631C230.941 98.8465 230.941 98.8248 230.939 98.7973C230.935 98.7417 230.927 98.6717 230.915 98.5864C230.891 98.4153 230.852 98.2045 230.804 97.9623C230.781 97.8456 230.756 97.7218 230.73 97.5934C230.65 97.1995 230.561 96.7614 230.494 96.3463C230.407 95.8084 230.343 95.2357 230.404 94.8024C230.434 94.5917 230.504 94.323 230.702 94.1244C230.938 93.8873 231.25 93.8482 231.533 93.9197L231.784 93.9829ZM232.617 102.791C232.626 102.793 232.63 102.797 232.63 102.798C232.63 102.799 232.625 102.798 232.617 102.791Z" fill="#D52B1E"/>
<path fill-rule="evenodd" clip-rule="evenodd" d="M261.604 161.512L261.718 161.65C262.977 163.177 264.12 164.85 265.243 166.493C265.716 167.185 266.186 167.873 266.659 168.541L266.691 168.587L266.713 168.638C266.828 168.916 266.861 169.229 266.715 169.508C266.569 169.789 266.302 169.923 266.06 169.959C265.615 170.025 265.087 169.794 264.857 169.286C263.438 167.276 262.02 165.266 260.608 163.252C260.377 162.984 260.205 162.575 260.259 162.189C260.29 161.967 260.405 161.723 260.658 161.574C260.896 161.433 261.173 161.427 261.429 161.478L261.604 161.512ZM265.812 169.1C265.812 169.1 265.812 169.099 265.812 169.097C265.812 169.099 265.812 169.1 265.812 169.1Z" fill="#D52B1E"/>
<path fill-rule="evenodd" clip-rule="evenodd" d="M212.758 103.278L212.923 103.453C213.643 104.215 214.279 105.04 214.886 105.863C215.045 106.078 215.201 106.292 215.357 106.505C215.802 107.114 216.24 107.713 216.705 108.295L216.745 108.345L216.771 108.402C216.807 108.482 216.891 108.599 217.042 108.776C217.077 108.817 217.115 108.861 217.156 108.908C217.27 109.039 217.401 109.19 217.511 109.335C217.659 109.531 217.825 109.784 217.891 110.071C217.964 110.394 217.903 110.737 217.641 111.03L217.62 111.054L217.596 111.074C217.423 111.226 217.214 111.259 217.037 111.233C216.877 111.21 216.736 111.14 216.628 111.072C216.409 110.936 216.178 110.719 215.955 110.48C215.499 109.992 214.964 109.288 214.438 108.563C214.095 108.088 213.747 107.591 213.423 107.13C213.251 106.885 213.087 106.65 212.933 106.434C212.71 106.118 212.51 105.841 212.341 105.62C212.166 105.391 212.046 105.25 211.978 105.187L211.97 105.18L211.962 105.172C211.708 104.914 211.516 104.527 211.565 104.13C211.591 103.919 211.688 103.708 211.873 103.549C212.053 103.393 212.281 103.318 212.518 103.298L212.758 103.278Z" fill="#D52B1E"/>
<path fill-rule="evenodd" clip-rule="evenodd" d="M262.896 127.401C262.896 127.401 262.896 127.401 262.897 127.401L262.896 127.401ZM263.069 127.616C263.069 127.616 263.069 127.616 263.069 127.613L263.069 127.616ZM268.446 121.245C268.608 121.422 268.689 121.651 268.706 121.891L268.719 122.077L268.608 122.226C267.707 123.431 266.699 124.581 265.706 125.715C265.106 126.4 264.512 127.078 263.951 127.757L263.944 127.766L263.943 127.766C263.936 127.775 263.927 127.785 263.918 127.795C263.822 127.908 263.648 128.112 263.44 128.242C263.316 128.319 263.147 128.393 262.944 128.395C262.75 128.397 262.572 128.332 262.418 128.221C262.256 128.129 262.14 127.98 262.093 127.796C262.048 127.617 262.077 127.446 262.112 127.322C262.182 127.073 262.339 126.796 262.516 126.53C262.88 125.983 263.45 125.302 264.045 124.627C264.457 124.16 264.892 123.683 265.292 123.245C265.472 123.048 265.645 122.859 265.805 122.682C266.065 122.394 266.291 122.14 266.467 121.932C266.652 121.713 266.754 121.576 266.79 121.512L266.801 121.493L266.813 121.474C267.048 121.132 267.449 120.916 267.857 120.954C268.069 120.974 268.283 121.066 268.446 121.245Z" fill="#D52B1E"/>
<path fill-rule="evenodd" clip-rule="evenodd" d="M252.095 105.17C252.244 105.41 252.251 105.69 252.197 105.947L252.164 106.108L252.041 106.217C251.236 106.935 250.352 107.571 249.471 108.179C249.263 108.323 249.055 108.466 248.849 108.607C248.182 109.064 247.527 109.512 246.9 109.987C246.753 110.12 246.568 110.245 246.38 110.344C246.188 110.444 245.955 110.537 245.724 110.564C245.513 110.59 245.129 110.574 244.909 110.225C244.716 109.92 244.783 109.551 244.882 109.261L244.927 109.127L245.036 109.036C246.103 108.152 247.272 107.34 248.42 106.543C249.097 106.072 249.767 105.607 250.403 105.136C250.676 104.895 251.093 104.732 251.477 104.784C251.693 104.814 251.939 104.921 252.095 105.17Z" fill="#D52B1E"/>
<path d="M257.317 147.382C258.519 144.956 258.919 142.355 259.253 139.707C259.542 138.738 260.49 138.457 261.318 139.064C262.869 140.332 263.072 142.565 263.018 144.445C262.78 150.661 256.295 153.039 257.317 147.382Z" fill="#EF6261" stroke="#D52B1E" stroke-miterlimit="10"/>
<path d="M254.362 155.019C251.92 154.349 254.267 150.909 256.183 151.579C258.442 152.475 256.154 155.657 254.362 155.019Z" fill="#EF6261" stroke="#D52B1E" stroke-miterlimit="10"/>
<path d="M211.591 159.038C211.591 159.038 203.572 135.468 213.494 117.09C219.397 106.158 228.397 105.158 235.668 107.106C238.892 107.97 241.595 109.875 243.489 112.614L243.506 112.638C246.174 116.249 247.46 120.747 247.329 126.007L247.304 126.994L248.291 126.97C250.801 126.91 253.259 127.195 255.595 127.821C263.013 129.808 268.596 135.119 269.821 141.353C270.977 147.244 266.739 158.965 253.825 163.764C234.245 171.039 211.591 159.038 211.591 159.038Z" fill="#D52B1E"/>
<path d="M211.591 159.038C211.591 159.038 203.572 135.468 213.494 117.09C219.397 106.158 228.397 105.158 235.668 107.106C238.892 107.97 241.595 109.875 243.489 112.614L243.506 112.638C246.174 116.249 247.46 120.747 247.329 126.007L247.304 126.994L248.291 126.97C250.801 126.91 253.259 127.195 255.595 127.821C263.013 129.808 268.596 135.119 269.821 141.353C270.977 147.244 266.739 158.965 253.825 163.764C234.245 171.039 211.591 159.038 211.591 159.038Z" stroke="black" stroke-miterlimit="10" stroke-linecap="round" stroke-linejoin="round"/>
<path fill-rule="evenodd" clip-rule="evenodd" d="M249.183 162.846C249.262 163.168 249.066 163.493 248.744 163.573C242.194 165.192 235.029 164.664 228.761 163.368C222.49 162.07 217.067 159.992 213.975 158.463C213.678 158.316 213.556 157.956 213.703 157.659C213.85 157.362 214.21 157.24 214.507 157.387C217.509 158.871 222.835 160.916 229.005 162.192C235.178 163.47 242.146 163.968 248.456 162.408C248.778 162.328 249.103 162.525 249.183 162.846Z" fill="#FCA6A6"/>
<path fill-rule="evenodd" clip-rule="evenodd" d="M266.917 140.274C267.326 140.207 267.711 140.485 267.778 140.894C268.435 144.927 267.617 154.217 258.991 159.083C258.63 159.286 258.173 159.159 257.969 158.798C257.766 158.437 257.893 157.98 258.254 157.776C266.116 153.341 266.9 144.836 266.297 141.135C266.231 140.726 266.508 140.34 266.917 140.274Z" fill="#FCA6A6"/>
<path d="M214.264 115.273L223.431 126.931L235.212 124.997L225.86 143.912L247.845 140.575L242.662 149.428L254.732 163.384" stroke="white" stroke-width="5" stroke-miterlimit="10" stroke-linecap="round" stroke-linejoin="round"/>
<path d="M173.849 198.644C173.849 198.644 86.534 193.251 83.1766 193.045C79.8192 192.837 76.2891 183.051 76.2891 183.051L107.033 9.62906C107.631 6.25121 110.898 3.61801 114.327 3.74986L202.85 7.12585C208.824 7.35426 212.851 12.3737 211.847 18.3402L182.618 191.688C181.927 195.786 178.002 198.9 173.849 198.644Z" fill="#6A6969"/>
<mask id="mask1_2392_61638" style="mask-type:luminance" maskUnits="userSpaceOnUse" x="76" y="3" width="137" height="196">
<path d="M173.849 198.644C173.849 198.644 86.534 193.251 83.1766 193.045C79.8192 192.837 76.2891 183.051 76.2891 183.051L107.033 9.62906C107.631 6.25121 110.898 3.61801 114.327 3.74986L202.85 7.12585C208.824 7.35426 212.851 12.3737 211.847 18.3402L182.618 191.688C181.927 195.786 178.002 198.9 173.849 198.644Z" fill="white"/>
</mask>
<g mask="url(#mask1_2392_61638)">
<path d="M186.021 203.043L58.6084 195.118L63.6 167.155L164.168 176.171L186.021 203.043Z" fill="#6A6969"/>
</g>
<path d="M173.849 198.644C173.849 198.644 86.534 193.251 83.1766 193.045C79.8192 192.837 76.2891 183.051 76.2891 183.051L107.033 9.62906C107.631 6.25121 110.898 3.61801 114.327 3.74986L202.85 7.12585C208.824 7.35426 212.851 12.3737 211.847 18.3402L182.618 191.688C181.927 195.786 178.002 198.9 173.849 198.644Z" stroke="black" stroke-width="2" stroke-miterlimit="10"/>
<path d="M204.233 7.84103L132.108 5.08341C131.727 5.06855 131.35 5.10384 130.979 5.17997L202.859 7.92831C207.726 8.114 210.909 12.7992 209.966 18.3905L183.298 180.338C183.298 180.343 182.78 186.156 182.78 186.156C182.78 186.156 184.182 179.357 184.228 179.075L211.357 18.2011C212.291 12.6655 209.102 8.02673 204.233 7.84103Z" fill="#CCCCCC"/>
<path d="M81.9598 188.698C78.0546 188.458 75.4288 185.156 76.1066 181.339L106.457 10.1657C107.387 4.91413 112.464 0.806489 117.774 1.00704L200.387 4.12863C205.696 4.32918 209.284 8.81936 208.385 14.1396L179.089 187.558C178.436 191.426 174.727 194.38 170.824 194.141L81.9598 188.698Z" fill="#404040" stroke="black" stroke-width="2" stroke-miterlimit="10"/>
<path d="M199.878 4.44657L117.263 1.32127C115.867 1.26928 114.489 1.51626 113.196 2.00279C113.913 1.87465 114.645 1.81895 115.382 1.8468L199.548 5.03709C204.955 5.24136 208.61 9.82811 207.691 15.2598L207.874 14.4576C208.775 9.13731 205.187 4.64713 199.878 4.44657Z" fill="#808080"/>
<path d="M171.355 190.986L82.5117 185.58C80.3613 185.45 78.9203 183.638 79.2917 181.532L109.611 10.2883C110.236 6.74892 113.646 3.9913 117.222 4.12686L199.851 7.28187C203.429 7.41929 205.838 10.4332 205.23 14.0171L175.901 187.366C175.541 189.494 173.506 191.116 171.355 190.986Z" fill="white"/>
<path d="M171.355 190.986L82.5117 185.58C80.3613 185.45 78.9203 183.638 79.2917 181.532L109.611 10.2883C110.236 6.74892 113.646 3.9913 117.222 4.12686L199.851 7.28187C203.429 7.41929 205.838 10.4332 205.23 14.0171L175.901 187.366C175.541 189.494 173.506 191.116 171.355 190.986Z" stroke="black" stroke-width="2" stroke-miterlimit="10"/>
<path d="M168.495 21.3503L143.333 20.3419C141.912 20.2844 140.96 19.0959 141.205 17.6846C141.45 16.2733 142.802 15.1758 144.223 15.2315L169.377 16.2232C170.798 16.2789 171.752 17.4729 171.509 18.8879C171.266 20.3048 169.918 21.4078 168.495 21.3503Z" fill="#404040"/>
<path d="M168.495 21.3503L143.333 20.3419C141.912 20.2844 140.96 19.0959 141.205 17.6846C141.45 16.2733 142.802 15.1758 144.223 15.2315L169.377 16.2232C170.798 16.2789 171.752 17.4729 171.509 18.8879C171.266 20.3048 169.918 21.4078 168.495 21.3503Z" stroke="black" stroke-width="2" stroke-miterlimit="10"/>
<path d="M97.5659 107.495C100.765 87.3711 104.307 67.2842 107.621 47.1749C108.346 43.4591 108.661 39.6226 109.638 35.9736C111.191 31.7935 115.79 31.918 119.515 32.3116C123.829 32.5363 128.143 32.7202 132.459 32.9096C147.522 33.5744 162.584 34.2967 177.65 34.9653C181.728 35.1565 185.804 35.3552 189.882 35.5465C193.631 35.0507 196.578 38.6105 195.694 42.2205C195.414 43.7971 195.169 45.3811 194.901 46.9614C192.183 62.9927 189.49 79.0296 186.798 95.0665C185.984 99.9689 185.137 104.868 184.315 109.77C183.891 112.325 183.797 115.209 181.539 116.903C178.93 119.233 175.401 118.398 172.23 118.262C170.896 118.229 169.569 118.173 168.243 118.037C159.123 117.432 150 116.86 140.88 116.26C131.714 115.679 122.548 115.094 113.384 114.498C109.948 114.268 106.513 114.054 103.077 113.848C99.5083 113.627 97.6086 110.689 97.5659 107.495Z" fill="black"/>
<path d="M159.769 80.7314C168.211 82.7277 172.363 70.9544 163.19 68.9767C163.778 66.4958 164.62 64.0929 165.104 61.5915C165.388 59.6993 165.307 57.7346 165.338 55.82C165.335 55.6603 165.372 55.5415 165.526 55.4523C168.283 53.8275 169.628 50.6762 169.327 47.5323C167.706 48.1136 166.14 48.8304 164.386 48.6614C166.272 46.8174 167.229 44.4534 166.917 41.824C158.701 44.8843 150.204 39.6847 141.881 41.0905C139.534 41.7534 136.644 42.94 135.946 45.5119C135.822 46.1173 135.528 46.3884 134.904 46.4813C123.913 48.5314 124.002 58.7039 124.611 67.727C114.24 68.8115 117.328 82.9802 127.177 79.8587C127.07 85.1195 129.688 90.6941 134.986 92.3636C135.677 92.4806 135.157 95.162 135.309 95.8584C130.113 98.629 124.553 100.705 119.851 104.265C117.066 106.664 115.202 109.912 113.863 113.295C113.762 113.529 113.647 113.617 113.4 113.598C110.83 113.398 108.256 113.268 105.683 113.13C100.286 113.357 97.5491 110.631 98.7877 105.156C99.4061 101.387 100.069 97.6263 100.708 93.8603C103.076 79.5912 105.501 65.3333 107.861 51.0643C111.571 29.9486 108.063 32.786 129.669 33.6978C145.413 34.2568 161.143 35.1463 176.885 35.7869C181.617 36.0747 186.359 36.1806 191.091 36.4833C196.862 37.2094 194.348 43.8666 193.863 47.6716C193.321 50.8526 192.788 54.0336 192.257 57.2165C189.278 74.9822 186.259 92.7424 183.314 110.514C182.64 119.624 175.669 117.477 169.017 117.219C168.694 117.197 168.627 117.145 168.575 116.835C167.65 111.882 165.351 106.855 161.093 103.933C158.451 101.986 155.717 100.191 152.867 98.564C149.539 96.3858 149.821 97.3923 150.022 93.3719C150.284 92.7907 152.306 92.5864 152.982 92.1797C157.784 90.4137 159.775 85.5429 159.769 80.7314Z" fill="#D6E3F2"/>
<path d="M159.836 79.7707C159.823 78.6193 159.927 77.5349 159.6 76.4671C159.286 76.5469 159.255 76.8069 159.223 77.052C158.954 79.4717 158.956 81.9136 158.449 84.3036C157.392 90.9107 149.989 93.0351 144.167 92.7844C138.245 92.6396 131.012 91.7259 128.96 85.1652C127.695 82.194 128.47 79.0205 127.877 75.9564C127.159 76.2257 127.525 77.2285 127.315 77.8264C127.17 78.987 127.454 78.7735 126.23 79.1764C124.074 79.8858 121.547 79.1189 120.134 77.3139C116.399 72.8163 122.526 66.4635 126.901 69.3734C129.32 75.5943 131.632 62.276 132.022 60.5788C132.245 59.9437 132.134 58.9409 132.899 58.7106C134.73 58.0514 136.739 58.1331 138.657 58.0013C142.622 57.9196 146.581 58.2018 150.512 58.7032C152.349 59.0412 154.313 59.017 156.007 59.8768C158.635 61.8508 157.506 68.1144 158.952 71.0781C159.65 72.2462 160.592 71.2638 160.913 70.2444C162.932 68.8683 166.514 70.82 167.234 73.1431C168.727 77.4309 163.806 81.1448 159.836 79.7707Z" fill="#EED3CA"/>
<path d="M132.939 98.0176C134.562 106.677 148.783 106.699 151.585 98.8049C159.73 103.739 165.973 106.816 167.704 117.052C164.354 117.005 160.996 116.625 157.608 116.457C157.296 115.28 157.483 111.05 156.473 110.738C156.235 112.682 156.642 114.509 156.718 116.394C145.998 115.713 135.268 115.033 124.551 114.314C124.86 112.703 125.549 111.178 125.474 109.527C124.62 109.161 124.072 113.536 123.658 114.272C120.661 114.129 117.721 113.897 114.717 113.696C117.682 104.467 125.043 101.999 132.939 98.0176Z" fill="#D52B1E"/>
<path d="M149.938 97.6754C150.224 97.8648 150.503 98.0487 150.793 98.2399C148.587 105.666 134.85 105.681 133.811 97.5584C134.241 97.3337 134.693 97.0997 135.201 96.8342C135.187 97.746 135.376 98.5408 135.582 99.3541C136.356 98.7617 135.874 97.1443 136.147 96.2437C140.609 95.7367 144.731 93.8222 149.177 93.3301C149.207 95.4619 148.958 97.5658 148.936 99.6939C148.928 99.9446 148.923 100.197 149.164 100.452C149.634 99.5268 149.747 98.7005 149.938 97.6754Z" fill="#EED3CA"/>
<path d="M144.534 49.3579C145.565 48.0952 150.003 47.3208 151.026 48.5538C148.865 48.5167 146.701 48.7804 144.605 49.4972C144.581 49.4508 144.558 49.4043 144.534 49.3579Z" fill="white"/>
<path d="M146.027 44.4881C144.807 44.8613 143.755 45.2327 142.952 46.2132C141.166 46.332 145.567 42.8131 146.027 44.4881Z" fill="white"/>
<path d="M132.609 54.022C132.212 52.8465 136.109 50.2913 135.523 51.7231C134.446 52.3841 133.617 53.2625 132.609 54.022Z" fill="white"/>
<path d="M149.199 47.2308C148.033 47.3292 146.778 47.1862 145.599 47.5985C145.456 47.6338 145.288 47.7025 145.197 47.5354C145.121 46.6217 148.895 46.3692 149.199 47.2308Z" fill="white"/>
<path d="M131.666 52.5413C132.176 51.7967 133.359 50.3854 134.323 50.6472C134.288 50.7196 134.269 50.8329 134.213 50.8589C133.231 51.2266 132.715 52.3278 131.747 52.6379C131.721 52.6044 131.693 52.5729 131.666 52.5413Z" fill="white"/>
<path d="M136.877 78.75C141.178 79.2384 145.46 79.7323 149.803 79.2068C149.723 87.6635 136.125 87.3385 136.877 78.75Z" fill="black"/>
<path d="M150.198 74.2498C150.003 72.3148 152.359 70.5656 153.708 72.4634C155.851 75.7985 150.651 78.7883 150.198 74.2498Z" fill="black"/>
<path d="M137.987 73.3567C138.139 75.3046 135.575 76.9499 134.379 74.9277C132.507 71.5814 137.558 68.7551 137.987 73.3567Z" fill="black"/>
<path d="M163.829 76.7024C163.584 75.7646 163.351 74.7247 162.549 74.1546C159.43 76.9847 161.548 72.6579 163.832 72.0692C164.28 71.9894 165.123 71.6681 165.37 72.2234C165.426 72.4128 165.288 72.6059 165.025 72.7266C164.451 73.0144 163.877 73.1797 163.34 73.5474C163.942 74.1602 165.16 76.3756 163.829 76.7024Z" fill="black"/>
<path d="M121.914 71.8678C123.615 71.6691 126.674 74.3729 126.007 76.1388C125.287 75.6932 125.008 74.9299 124.497 74.3357C123.849 75.0748 123.484 76.0163 122.637 76.5158C122.191 75.9791 123.458 74.1277 123.757 73.5186C123.417 72.9095 121.667 72.514 121.914 71.8678Z" fill="black"/>
<path d="M136.607 66.4327C138.236 66.1579 140.236 68.7261 138.31 68.559C137.558 68.0464 136.876 67.4541 135.9 67.6546C135.335 67.7252 134.791 67.8552 134.28 68.1114C134.093 68.2061 133.911 68.2693 133.768 68.0631C133.562 66.9322 135.719 66.442 136.607 66.4327Z" fill="black"/>
<path d="M155.291 68.5582C155.346 69.2973 154.661 68.8739 154.286 68.7736C153.146 68.3205 151.957 68.3744 150.787 68.677C149.883 68.7773 150.539 67.7151 151.025 67.587C152.323 66.9519 154.763 66.9241 155.291 68.5582Z" fill="black"/>
<path d="M148.884 76.7182C148.503 78.0162 146.176 73.7544 145.892 73.3087C146.089 72.0126 148.757 76.2539 148.884 76.7182Z" fill="black"/>
<path d="M141.467 86.2109C141.795 86.3484 143.701 86.2035 143.236 86.768C142.835 86.9203 141.249 86.9203 141.467 86.2109Z" fill="black"/>
<path d="M137.675 79.3848C141.652 80.0124 144.835 80.3708 148.785 79.914C145.721 82.4116 140.657 81.797 137.675 79.3848Z" fill="white"/>
<path d="M145.352 84.2274C144.26 84.9311 141.302 84.9813 139.829 83.7093C141.174 82.3425 144.117 82.5171 145.352 84.2274Z" fill="#EF6261"/>
<path d="M125.291 159.408L127.09 156.183L127.576 156.217L128.204 159.612L127.765 159.581L127.595 158.653L126.22 158.557L125.729 159.439L125.29 159.408L125.291 159.408ZM126.404 158.174L127.547 158.254L127.259 156.614L126.404 158.174Z" fill="#404040"/>
<path d="M128.724 159.649L129.141 157.281L129.559 157.311L129.499 157.654C129.549 157.592 129.614 157.534 129.692 157.481C129.771 157.428 129.863 157.389 129.968 157.36C130.073 157.332 130.189 157.322 130.318 157.331C130.47 157.342 130.603 157.381 130.72 157.449C130.836 157.516 130.923 157.616 130.977 157.747C131.031 157.878 131.041 158.043 131.006 158.241L130.733 159.789L130.305 159.759L130.571 158.253C130.603 158.069 130.578 157.928 130.495 157.831C130.413 157.734 130.293 157.681 130.137 157.67C130.028 157.663 129.925 157.673 129.823 157.701C129.723 157.728 129.636 157.774 129.566 157.841C129.495 157.906 129.45 157.991 129.431 158.097L129.152 159.679L128.724 159.649Z" fill="#404040"/>
<path d="M133.979 160.062C133.68 160.041 133.434 159.957 133.239 159.809C133.045 159.661 132.91 159.456 132.836 159.196C132.763 158.936 132.757 158.625 132.82 158.267C132.884 157.909 132.998 157.602 133.162 157.355C133.327 157.11 133.53 156.927 133.771 156.808C134.014 156.69 134.283 156.64 134.579 156.66C134.874 156.681 135.121 156.766 135.314 156.915C135.507 157.064 135.64 157.269 135.713 157.532C135.786 157.794 135.79 158.107 135.726 158.47C135.662 158.833 135.55 159.131 135.389 159.375C135.229 159.619 135.027 159.8 134.787 159.917C134.548 160.035 134.279 160.083 133.98 160.062M134.044 159.694C134.251 159.708 134.436 159.674 134.597 159.591C134.758 159.508 134.896 159.371 135.006 159.181C135.117 158.991 135.2 158.744 135.253 158.44C135.307 158.136 135.314 157.876 135.271 157.671C135.229 157.467 135.144 157.313 135.014 157.207C134.886 157.101 134.719 157.042 134.513 157.027C134.307 157.013 134.125 157.05 133.96 157.135C133.797 157.221 133.657 157.36 133.543 157.553C133.429 157.747 133.346 157.996 133.292 158.303C133.238 158.609 133.233 158.86 133.278 159.06C133.322 159.261 133.409 159.412 133.54 159.517C133.67 159.62 133.838 159.679 134.042 159.694" fill="#404040"/>
<path d="M137.404 160.301C137.102 160.28 136.857 160.195 136.668 160.044C136.48 159.894 136.351 159.686 136.284 159.423C136.217 159.161 136.215 158.849 136.278 158.489C136.342 158.129 136.451 157.828 136.607 157.585C136.763 157.341 136.958 157.161 137.195 157.043C137.431 156.925 137.7 156.878 138.004 156.9C138.239 156.916 138.441 156.979 138.606 157.089C138.771 157.2 138.896 157.34 138.978 157.508C139.062 157.678 139.095 157.859 139.081 158.055L138.625 158.023C138.622 157.892 138.597 157.771 138.545 157.661C138.493 157.552 138.417 157.461 138.316 157.39C138.214 157.32 138.085 157.278 137.927 157.267C137.724 157.253 137.545 157.288 137.388 157.373C137.231 157.457 137.1 157.594 136.994 157.784C136.888 157.973 136.808 158.222 136.754 158.527C136.672 158.988 136.694 159.331 136.815 159.559C136.937 159.785 137.151 159.911 137.457 159.932C137.615 159.943 137.755 159.92 137.88 159.862C138.005 159.805 138.112 159.723 138.2 159.617C138.29 159.511 138.357 159.397 138.405 159.27L138.862 159.302C138.82 159.441 138.758 159.574 138.675 159.701C138.592 159.827 138.49 159.937 138.368 160.033C138.247 160.128 138.105 160.2 137.943 160.25C137.782 160.298 137.602 160.317 137.402 160.303" fill="#404040"/>
<path d="M139.377 160.394L139.96 157.083L141.038 157.158C141.446 157.187 141.742 157.282 141.926 157.446C142.109 157.608 142.176 157.829 142.127 158.109C142.096 158.284 142.023 158.431 141.91 158.55C141.795 158.669 141.616 158.761 141.372 158.826C141.498 158.863 141.602 158.911 141.684 158.969C141.766 159.027 141.827 159.092 141.869 159.167C141.912 159.24 141.938 159.319 141.947 159.405C141.956 159.491 141.952 159.58 141.936 159.673C141.883 159.972 141.736 160.187 141.494 160.319C141.253 160.452 140.917 160.503 140.489 160.473L139.375 160.395L139.377 160.394ZM140.132 158.569L140.862 158.62C140.95 158.627 141.04 158.624 141.129 158.614C141.219 158.604 141.303 158.58 141.384 158.543C141.464 158.507 141.532 158.457 141.589 158.389C141.646 158.323 141.684 158.238 141.702 158.134C141.736 157.941 141.687 157.792 141.554 157.69C141.421 157.587 141.235 157.527 140.997 157.511L140.327 157.464L140.132 158.569ZM139.867 160.071L140.547 160.119C140.826 160.138 141.047 160.108 141.21 160.028C141.372 159.947 141.47 159.812 141.503 159.623C141.528 159.485 141.512 159.369 141.455 159.278C141.399 159.188 141.313 159.117 141.197 159.069C141.082 159.021 140.949 158.992 140.8 158.982L140.07 158.931L139.869 160.073L139.867 160.071Z" fill="#404040"/>
<path d="M143.731 160.744C143.43 160.723 143.185 160.637 142.995 160.486C142.807 160.336 142.679 160.129 142.612 159.866C142.545 159.603 142.543 159.291 142.606 158.931C142.669 158.572 142.778 158.27 142.935 158.028C143.091 157.783 143.286 157.603 143.523 157.485C143.758 157.368 144.028 157.321 144.331 157.342C144.567 157.358 144.769 157.422 144.934 157.532C145.099 157.642 145.224 157.782 145.306 157.95C145.389 158.12 145.422 158.302 145.409 158.498L144.952 158.466C144.95 158.334 144.924 158.213 144.872 158.104C144.821 157.994 144.744 157.904 144.644 157.832C144.541 157.763 144.412 157.721 144.254 157.71C144.051 157.695 143.873 157.731 143.716 157.815C143.559 157.9 143.427 158.037 143.321 158.226C143.215 158.416 143.135 158.664 143.081 158.969C143 159.43 143.021 159.774 143.143 160.001C143.265 160.228 143.478 160.353 143.784 160.375C143.943 160.386 144.083 160.363 144.208 160.304C144.333 160.247 144.439 160.165 144.528 160.059C144.617 159.954 144.684 159.839 144.732 159.713L145.189 159.745C145.148 159.883 145.085 160.016 145.003 160.143C144.92 160.269 144.817 160.38 144.696 160.476C144.575 160.57 144.432 160.642 144.271 160.692C144.11 160.74 143.93 160.759 143.73 160.745" fill="#404040"/>
<path d="M147.979 161.041C147.677 161.02 147.432 160.934 147.243 160.783C147.055 160.633 146.927 160.425 146.86 160.163C146.793 159.9 146.79 159.588 146.854 159.228C146.917 158.869 147.026 158.567 147.182 158.325C147.339 158.08 147.534 157.9 147.77 157.782C148.006 157.664 148.276 157.618 148.579 157.639C148.815 157.655 149.017 157.719 149.182 157.829C149.347 157.939 149.471 158.079 149.554 158.247C149.637 158.417 149.67 158.599 149.657 158.795L149.2 158.763C149.197 158.631 149.172 158.51 149.12 158.4C149.068 158.291 148.992 158.2 148.891 158.129C148.789 158.059 148.66 158.018 148.502 158.007C148.299 157.992 148.12 158.028 147.963 158.112C147.806 158.197 147.675 158.334 147.569 158.523C147.463 158.713 147.383 158.961 147.329 159.266C147.248 159.727 147.269 160.07 147.39 160.298C147.512 160.525 147.726 160.65 148.032 160.671C148.19 160.682 148.33 160.659 148.455 160.601C148.58 160.544 148.687 160.462 148.775 160.356C148.865 160.251 148.932 160.136 148.98 160.01L149.437 160.041C149.396 160.18 149.333 160.313 149.25 160.44C149.167 160.566 149.065 160.676 148.944 160.772C148.823 160.867 148.68 160.939 148.519 160.989C148.357 161.037 148.177 161.056 147.977 161.042" fill="#404040"/>
<path d="M150.802 161.239C150.581 161.223 150.397 161.163 150.248 161.057C150.1 160.951 149.996 160.805 149.937 160.617C149.878 160.429 149.871 160.204 149.917 159.941C149.961 159.694 150.042 159.48 150.16 159.3C150.278 159.12 150.427 158.985 150.61 158.893C150.792 158.801 151.001 158.764 151.237 158.78C151.458 158.796 151.641 158.856 151.787 158.963C151.933 159.071 152.033 159.219 152.092 159.41C152.15 159.601 152.155 159.829 152.109 160.094C152.066 160.336 151.987 160.546 151.871 160.722C151.755 160.899 151.608 161.034 151.428 161.126C151.249 161.218 151.04 161.255 150.801 161.238M150.863 160.904C151.004 160.914 151.132 160.887 151.243 160.822C151.354 160.756 151.448 160.659 151.523 160.528C151.599 160.398 151.652 160.24 151.685 160.054C151.715 159.885 151.719 159.732 151.697 159.593C151.675 159.454 151.622 159.343 151.539 159.256C151.456 159.17 151.334 159.121 151.177 159.11C151.033 159.1 150.902 159.127 150.79 159.191C150.677 159.254 150.583 159.352 150.507 159.483C150.431 159.613 150.378 159.772 150.344 159.961C150.315 160.127 150.311 160.279 150.333 160.419C150.355 160.558 150.408 160.671 150.494 160.757C150.58 160.844 150.703 160.893 150.861 160.904" fill="#404040"/>
<path d="M152.468 161.308L152.885 158.941L153.3 158.97L153.24 159.314C153.325 159.215 153.432 159.13 153.561 159.06C153.691 158.99 153.849 158.962 154.034 158.975C154.12 158.981 154.206 159.002 154.292 159.038C154.378 159.074 154.452 159.123 154.518 159.185C154.584 159.248 154.63 159.324 154.657 159.411C154.752 159.3 154.868 159.214 155.008 159.152C155.147 159.091 155.297 159.065 155.455 159.076C155.538 159.082 155.623 159.101 155.711 159.133C155.798 159.164 155.875 159.215 155.941 159.283C156.008 159.352 156.057 159.444 156.086 159.561C156.115 159.676 156.115 159.822 156.084 159.998L155.812 161.545L155.38 161.515L155.646 160.009C155.671 159.866 155.667 159.752 155.634 159.671C155.602 159.589 155.55 159.529 155.481 159.491C155.412 159.454 155.335 159.432 155.25 159.426C155.175 159.421 155.093 159.43 155.006 159.454C154.917 159.477 154.837 159.521 154.767 159.585C154.696 159.65 154.65 159.741 154.629 159.86L154.35 161.442L153.923 161.412L154.211 159.782C154.227 159.689 154.215 159.609 154.175 159.543C154.136 159.478 154.081 159.425 154.012 159.389C153.943 159.351 153.872 159.33 153.797 159.324C153.715 159.319 153.63 159.329 153.542 159.356C153.454 159.382 153.375 159.428 153.306 159.494C153.237 159.561 153.192 159.649 153.173 159.758L152.894 161.34L152.466 161.31L152.468 161.308Z" fill="#404040"/>
<path d="M156.364 162.327L156.912 159.222L157.336 159.251L157.268 159.664C157.305 159.618 157.349 159.569 157.402 159.518C157.456 159.469 157.519 159.422 157.591 159.381C157.663 159.34 157.745 159.308 157.836 159.285C157.927 159.261 158.028 159.253 158.137 159.261C158.328 159.274 158.491 159.329 158.622 159.426C158.753 159.522 158.843 159.662 158.894 159.845C158.945 160.028 158.945 160.256 158.897 160.529C158.849 160.801 158.769 161.024 158.657 161.206C158.545 161.387 158.405 161.522 158.237 161.609C158.07 161.696 157.879 161.732 157.667 161.717C157.561 161.71 157.468 161.688 157.392 161.653C157.315 161.618 157.248 161.573 157.197 161.521C157.144 161.469 157.103 161.413 157.071 161.356C157.04 161.299 157.015 161.243 156.997 161.191L156.791 162.357L156.363 162.327L156.364 162.327ZM157.646 161.383C157.845 161.397 158.019 161.333 158.171 161.194C158.322 161.054 158.426 160.827 158.481 160.513C158.529 160.243 158.51 160.024 158.423 159.857C158.336 159.69 158.185 159.599 157.964 159.583C157.743 159.568 157.558 159.637 157.415 159.791C157.271 159.945 157.177 160.153 157.13 160.417C157.1 160.587 157.099 160.742 157.125 160.885C157.151 161.027 157.208 161.143 157.293 161.233C157.379 161.322 157.497 161.372 157.645 161.383" fill="#404040"/>
<path d="M159.913 161.875C159.756 161.864 159.623 161.828 159.515 161.765C159.407 161.703 159.328 161.618 159.279 161.512C159.23 161.405 159.217 161.279 159.243 161.133C159.289 160.871 159.416 160.681 159.624 160.566C159.832 160.451 160.142 160.402 160.553 160.422L160.982 160.44L161.015 160.254C161.04 160.11 161.016 159.992 160.943 159.9C160.87 159.81 160.741 159.758 160.557 159.746C160.42 159.737 160.292 159.759 160.176 159.815C160.061 159.871 159.976 159.968 159.921 160.108L159.543 160.081C159.579 159.927 159.645 159.8 159.743 159.7C159.84 159.599 159.964 159.526 160.116 159.481C160.267 159.437 160.441 159.42 160.634 159.434C160.843 159.448 161.011 159.49 161.139 159.557C161.268 159.624 161.356 159.717 161.405 159.835C161.453 159.954 161.463 160.095 161.434 160.26L161.143 161.913L160.777 161.888L160.822 161.442C160.697 161.62 160.557 161.74 160.402 161.8C160.248 161.861 160.085 161.886 159.913 161.874M160.093 161.58C160.176 161.586 160.259 161.577 160.343 161.553C160.427 161.529 160.507 161.496 160.582 161.45C160.656 161.405 160.72 161.354 160.769 161.295C160.821 161.236 160.851 161.174 160.863 161.108L160.934 160.702L160.578 160.685C160.394 160.675 160.236 160.683 160.108 160.709C159.98 160.734 159.879 160.781 159.804 160.847C159.73 160.913 159.682 161.006 159.662 161.121C159.639 161.253 159.667 161.361 159.749 161.441C159.83 161.523 159.944 161.569 160.091 161.579" fill="#404040"/>
<path d="M161.801 161.961L162.218 159.594L162.636 159.623L162.575 159.967C162.626 159.904 162.69 159.846 162.769 159.794C162.848 159.741 162.94 159.701 163.044 159.673C163.149 159.644 163.266 159.634 163.394 159.643C163.546 159.654 163.68 159.693 163.797 159.761C163.913 159.829 164 159.929 164.054 160.06C164.108 160.19 164.118 160.355 164.083 160.554L163.81 162.102L163.382 162.072L163.647 160.565C163.68 160.381 163.655 160.241 163.572 160.144C163.489 160.047 163.37 159.994 163.213 159.983C163.104 159.975 163.001 159.986 162.9 160.013C162.8 160.04 162.713 160.087 162.642 160.153C162.572 160.219 162.527 160.303 162.508 160.41L162.229 161.991L161.801 161.961Z" fill="#404040"/>
<path d="M164.513 162.917C164.373 162.907 164.252 162.879 164.155 162.832L164.203 162.558L164.449 162.58C164.536 162.589 164.61 162.588 164.673 162.577C164.734 162.567 164.785 162.549 164.825 162.525C164.866 162.501 164.898 162.475 164.923 162.444C164.948 162.413 164.97 162.383 164.987 162.356L165.11 162.138L164.58 159.763L165.014 159.793L165.399 161.67L166.425 159.892L166.845 159.921L165.386 162.396C165.297 162.54 165.206 162.653 165.114 162.732C165.023 162.811 164.928 162.864 164.828 162.891C164.727 162.918 164.623 162.928 164.514 162.92" fill="#404040"/>
<path d="M132.08 138.776C132.08 138.776 131.973 139.325 132.157 139.848C132.157 139.848 132.977 139.645 134.041 139.689L133.569 142.366C133.03 142.636 132.552 142.674 132.059 142.639C130.572 142.535 129.924 140.659 130.287 138.597C130.651 136.535 131.866 135.204 133.001 135.283C133.997 135.353 134.973 136.296 135.274 137.446C135.274 137.446 136.053 136.559 136.435 135.55C135.608 134.933 134.466 134.671 133.484 134.602C131.052 134.432 128.898 135.923 128.399 138.753C127.9 141.583 129.377 143.365 131.428 143.508C132.323 143.571 133.057 143.343 133.645 142.971C133.923 143.084 134.49 143.343 134.959 143.755L135.779 139.105L134.342 139.004C133.186 138.924 132.079 138.776 132.079 138.776L132.08 138.776Z" fill="#212492"/>
<path d="M154.887 138.516C154.361 138.351 153.677 138.209 153.023 138.163C150.415 137.981 148.913 139.504 148.537 141.639C148.204 143.526 149.143 144.749 150.47 144.842C151.139 144.889 151.744 144.579 152.236 144.084L152.102 144.846L153.744 144.961L154.888 138.517L154.887 138.516ZM151.125 143.948C150.556 143.908 149.943 143.298 150.249 141.561C150.696 139.025 152.267 138.606 153.143 138.803L152.337 143.375C152.001 143.763 151.54 143.977 151.127 143.948L151.125 143.948Z" fill="#212492"/>
<path d="M140.881 137.312C140.157 137.261 139.547 137.745 139.024 138.373L139.212 137.306L137.566 137.191L136.41 143.747L138.083 143.864L138.912 139.162C139.185 138.72 139.595 138.502 139.973 138.529C140.528 138.568 140.821 139.039 140.902 139.74C141.676 138.948 141.947 137.997 141.947 137.997C141.699 137.548 141.265 137.337 140.881 137.31L140.881 137.312Z" fill="#212492"/>
<path d="M145.021 143.525C144.116 143.462 143.539 142.801 143.51 141.441C145.65 141.665 147.709 141.45 147.709 141.45C148.319 139.023 146.918 137.736 145.41 137.63C143.574 137.502 142.051 138.768 141.704 140.736C141.395 142.487 142.206 144.265 144.307 144.412C145.607 144.503 146.554 143.919 147.151 143.268L146.987 142.745C146.666 143.087 145.9 143.588 145.019 143.527L145.021 143.525ZM145.295 138.231C145.963 138.278 146.439 139.281 146.116 140.797C145.137 140.949 144.071 140.897 143.531 140.843C143.539 140.736 143.541 140.637 143.555 140.524C143.729 139.144 144.528 138.177 145.295 138.231Z" fill="#212492"/>
<path d="M155.498 143.709C155.316 144.742 155.838 145.216 156.686 145.275C157.264 145.316 157.997 145.137 158.449 144.547L158.296 144.058C158.071 144.341 157.722 144.503 157.478 144.486C157.235 144.469 157.075 144.289 157.155 143.92L157.971 139.292C158.741 139.346 159.176 139.503 159.176 139.503C159.437 139.158 159.557 138.672 159.557 138.672C159.557 138.672 158.954 138.687 158.088 138.626L158.47 136.461C157.61 136.942 156.663 137.107 156.663 137.107L156.416 138.509C155.97 138.475 155.689 138.452 155.689 138.452C155.689 138.452 155.618 138.828 155.66 139.155C155.66 139.155 155.962 139.15 156.3 139.174L155.501 143.708L155.498 143.709Z" fill="#212492"/>
<path d="M139.884 147.849C139.359 147.684 138.675 147.542 138.021 147.496C135.413 147.314 133.911 148.837 133.534 150.972C133.202 152.859 134.141 154.082 135.468 154.175C136.137 154.222 136.742 153.912 137.234 153.417L137.1 154.179L138.742 154.294L139.886 147.85L139.884 147.849ZM136.123 153.281C135.554 153.241 134.941 152.631 135.247 150.894C135.694 148.358 137.264 147.939 138.141 148.136L137.335 152.708C136.999 153.096 136.538 153.31 136.124 153.281L136.123 153.281Z" fill="#212492"/>
<path d="M142.12 148.945C142.177 148.618 142.631 148.375 143.178 148.413C144.066 148.475 144.802 149.221 145.118 149.841C145.786 149.248 146.018 148.473 146.018 148.473C145.37 148.146 144.482 147.948 143.618 147.887C142.252 147.792 140.939 148.263 140.737 149.406C140.382 151.418 144.257 152.174 144.036 153.427C143.958 153.871 143.601 154.164 142.952 154.118C142.026 154.053 141.124 153.038 140.897 152.323C140.141 152.907 139.806 153.659 139.806 153.659C140.587 154.2 141.532 154.601 142.737 154.685C144.173 154.785 145.115 154.107 145.311 152.994C145.723 150.658 141.923 150.053 142.118 148.946L142.12 148.945Z" fill="#212492"/>
<path d="M132.372 151.812C131.133 152.786 129.936 152.898 128.346 152.811L128.972 149.259C130.828 149.414 131.569 150.127 131.569 150.127C132.046 149.521 132.287 148.703 132.287 148.703C132.287 148.703 131.304 148.705 130.13 148.623L129.096 148.551L129.608 145.646C131.189 145.78 132.561 146.164 133.216 147.164C133.216 147.164 133.751 146.339 134.113 145.252L127.979 144.823L126.46 153.434L132.619 153.865C132.653 152.814 132.371 151.811 132.371 151.811L132.372 151.812Z" fill="#212492"/>
<path d="M167.315 156.291L168.141 151.592C168.371 150.286 167.548 149.56 166.424 149.481C165.46 149.414 164.73 149.92 164.197 150.551L164.391 149.45L162.745 149.335L161.589 155.891L163.262 156.008L164.083 151.349C164.464 150.802 164.993 150.483 165.513 150.519C166.062 150.557 166.582 150.889 166.419 151.813L165.65 156.175L167.314 156.291L167.315 156.291Z" fill="#212492"/>
<path d="M160.955 149.1C160.231 149.049 159.621 149.533 159.098 150.161L159.286 149.094L157.641 148.979L156.485 155.535L158.157 155.652L158.986 150.95C159.259 150.508 159.669 150.29 160.047 150.317C160.602 150.356 160.895 150.827 160.976 151.528C161.75 150.736 162.021 149.785 162.021 149.785C161.773 149.336 161.339 149.125 160.955 149.099L160.955 149.1Z" fill="#212492"/>
<path d="M153.407 154.338C152.502 154.274 151.925 153.613 151.896 152.254C154.036 152.478 156.095 152.262 156.095 152.262C156.706 149.835 155.305 148.548 153.797 148.443C151.96 148.314 150.437 149.581 150.09 151.548C149.781 153.299 150.592 155.078 152.693 155.225C153.993 155.316 154.94 154.731 155.537 154.081L155.374 153.558C155.052 153.899 154.286 154.401 153.405 154.339L153.407 154.338ZM153.682 149.044C154.349 149.09 154.825 150.093 154.502 151.609C153.523 151.762 152.457 151.709 151.917 151.655C151.925 151.548 151.927 151.45 151.941 151.336C152.115 149.956 152.914 148.99 153.682 149.044Z" fill="#212492"/>
<path d="M146.42 153.46C146.238 154.493 146.761 154.967 147.609 155.026C148.186 155.067 148.919 154.888 149.371 154.298L149.218 153.809C148.993 154.092 148.644 154.254 148.401 154.237C148.157 154.22 147.997 154.04 148.077 153.671L148.893 149.043C149.664 149.097 150.098 149.254 150.098 149.254C150.359 148.909 150.479 148.423 150.479 148.423C150.479 148.423 149.877 148.438 149.011 148.377L149.393 146.212C148.532 146.693 147.586 146.858 147.586 146.858L147.339 148.26C146.893 148.226 146.611 148.203 146.611 148.203C146.611 148.203 146.54 148.579 146.582 148.906C146.582 148.906 146.884 148.901 147.223 148.925L146.423 153.459L146.42 153.46Z" fill="#212492"/>
<path d="M121.352 157.6C121.359 157.602 120.991 157.615 120.699 157.702C120.699 157.702 120.296 157.374 119.773 157.073C119.49 156.404 119.156 155.335 119.216 154.053C119.276 152.741 119.564 151.805 119.412 150.565C119.631 150.814 119.921 151.233 119.985 151.763C121.198 150.746 122.101 149.259 122.443 147.324C122.892 144.776 122.096 143.119 121.417 142.161C121.925 141.98 122.478 141.879 123.377 142.331C123.377 142.331 123.721 141.936 123.865 141.428C124.01 140.912 123.902 140.51 123.902 140.51C123.902 140.51 123.608 140.672 123.175 140.641C122.742 140.611 122.655 140.393 122.669 140.234C122.688 140.033 122.899 139.804 123.361 139.799C123.821 139.796 124.034 140.099 124.034 140.099C124.034 140.099 124.63 139.557 124.695 138.684C124.695 138.684 124.989 138.396 125.099 137.889C125.099 137.889 124.442 137.264 122.66 137.006C122.66 137.006 122.531 136.693 122.359 136.448C122.359 136.448 122.136 136.289 121.869 136.221C121.869 136.221 122.17 135.968 122.236 135.594C122.384 134.756 121.276 133.752 119.465 133.626C118.199 133.537 117.335 133.832 117.335 133.832C117.335 133.832 118.421 134.033 118.655 134.679C118.655 134.679 117.715 134.181 116.569 134.499C115.706 134.74 114.97 134.715 114.531 134.348C114.531 134.348 114.563 135.299 115.297 135.657C115.297 135.657 114.318 135.755 113.49 136.767C112.798 137.61 112.364 138.225 111.362 138.453C111.362 138.453 111.959 138.962 112.884 138.9C112.884 138.9 111.873 139.703 111.509 141.221C111.225 142.402 110.704 143.282 109.874 143.644C109.874 143.644 110.659 143.998 111.625 143.767C111.367 144.737 110.376 145.443 109.108 145.355C107.841 145.266 107.492 145.034 106.155 144.953C104.495 144.851 103.359 145.227 101.811 145.631C99.6042 146.204 97.0606 145.578 97.4255 143.508C97.6368 142.31 98.8418 141.442 100.477 141.556C102.112 141.671 102.942 142.187 104.252 142.278C105.846 142.39 107.085 141.252 107.204 139.862C107.204 139.862 106.541 140.764 105.104 140.525C104.095 140.358 103.398 140.751 102.919 141.29C102.125 141.114 101.655 140.932 100.555 140.855C98.5126 140.712 96.8509 141.795 96.5357 143.583C96.2204 145.371 97.7721 146.669 99.8548 146.814C100.84 146.883 101.64 146.821 102.213 146.724C101.091 147.92 101.071 148.693 100.556 149.437C99.7951 150.539 99.018 150.814 97.9487 151.016C97.3077 151.136 96.8926 151.288 96.8926 151.288C96.1613 153.875 94.3816 155.799 94.3816 155.799C94.9255 156.152 95.2069 156.81 95.2759 157.311L98.9398 157.567C99.1877 157.378 99.4221 156.923 99.4221 156.923C99.4221 156.923 99.279 156.543 98.88 156.029C98.8872 156.031 98.5604 156.024 98.2272 156.131C98.2272 156.131 97.9285 155.896 97.5161 155.604C97.5834 155.359 97.7573 154.836 98.1351 154.219C98.5569 153.532 99.1668 153.108 99.1668 153.108C100.693 153.361 101.247 153.438 102.177 152.881C102.66 152.591 103.186 152.207 103.765 151.869C103.574 152.528 103.214 153.079 102.584 153.587C101.751 154.26 101.349 154.902 101.349 154.902C102.39 155.512 103.216 156.768 103.173 157.861L106.558 158.098C106.805 157.909 107.04 157.454 107.04 157.454C107.04 157.454 106.897 157.074 106.498 156.56C106.505 156.562 106.136 156.552 105.637 156.665C105.169 156.312 104.29 155.555 104.404 154.906C104.534 154.171 105.347 154.223 106.489 153.532C106.934 153.263 107.431 152.572 107.842 151.661C107.495 151.452 107.231 151.229 107.231 151.229C108.639 151.399 110.321 152.242 111.782 152.693C111.861 153.872 111.437 154.734 110.965 155.429C110.438 156.207 110.138 156.899 110.138 156.899C110.644 157.236 110.786 157.716 110.82 158.396L114.141 158.628C114.388 158.44 114.623 157.984 114.623 157.984C114.623 157.984 114.48 157.604 114.081 157.09C114.088 157.092 113.736 157.106 113.428 157.192C113.428 157.192 113.149 156.973 112.757 156.693C113.24 155.514 114.256 154.951 115.105 153.725C114.712 153.62 114.351 153.353 114.263 153.238C114.671 153.298 115.225 153.344 115.582 153.317C115.994 154.286 116.623 154.836 116.806 155.9C116.952 156.751 116.602 157.348 116.602 157.348C117.149 157.645 117.379 158.22 117.506 158.863L121.413 159.137C121.661 158.948 121.895 158.493 121.895 158.493C121.895 158.493 121.752 158.113 121.353 157.599L121.352 157.6ZM121.409 147.238C121.128 145.404 119.697 144.549 118.186 143.647L117.831 143.434C116.561 142.666 116.259 141.711 116.23 141.045C116.194 140.243 116.542 139.418 117.16 138.838C116.28 140.338 116.963 141.917 118.956 143.116C121.258 144.5 121.528 146.177 121.407 147.238L121.409 147.238ZM119.377 140.762L119.603 141.024C120.092 141.584 120.749 142.332 121.129 143.418C120.65 142.788 120.155 142.397 119.714 142.045C119.116 141.569 118.599 141.158 118.368 140.32C118.179 139.641 118.465 138.803 119.043 138.326C118.743 138.947 118.589 139.831 119.375 140.764L119.377 140.762ZM123.014 141.085C123.299 141.105 123.488 141.072 123.488 141.072C123.492 141.422 123.274 141.66 123.274 141.66C123.274 141.66 122.688 141.297 121.654 141.441C121.654 141.441 121.719 141.056 122.065 140.956C122.439 140.848 122.697 141.063 123.012 141.085L123.014 141.085ZM121.965 136.797C121.965 136.797 122.201 137.027 122.256 137.384C121.75 137.349 121.249 137.5 121.003 137.737C121.003 137.737 121.385 137.799 121.672 137.938C122.052 138.122 122.267 138.37 122.267 138.37C122.284 138.125 122.251 137.985 122.176 137.856C122.176 137.856 122.299 137.671 122.341 137.453C122.624 137.463 123.695 137.54 124.461 138.078C124.461 138.078 124.075 138.047 123.527 138.283C123.527 138.283 123.739 138.326 123.933 138.401C124.141 138.481 124.261 138.561 124.261 138.561C124.234 139.086 123.944 139.407 123.944 139.407C123.101 139.101 122.659 139.573 122.299 139.548C121.833 139.515 121.845 139.143 121.845 139.143C121.062 139.195 120.437 139.583 120.437 139.583C119.881 138.911 120.339 137.844 120.339 137.844C119.992 137.124 119.234 136.735 119.234 136.735C120.188 136.52 121.182 136.549 121.963 136.798L121.965 136.797ZM117.69 136.289C118.163 136.322 118.716 136.737 118.859 137.233C118.859 137.233 118.392 136.85 117.898 136.815C117.583 136.793 117.315 136.967 117.372 137.299C117.454 137.755 118.056 138.06 118.056 138.06C117.295 138.062 116.7 137.443 116.828 136.864C116.911 136.485 117.301 136.263 117.689 136.29L117.69 136.289ZM117.113 145.892C116.743 145.671 116.394 145.461 116.101 145.259C114.298 144.006 113.884 142.128 114.076 140.902C112.936 142.857 113.208 145.006 114.709 146.625C113.113 145.597 112.476 144.171 112.828 142.19C113.108 140.613 114.007 139.253 115.428 138.257C113.79 140.643 114.252 142.875 116.659 144.483C118.962 146.021 120.66 147.153 120.491 149.329C120.152 147.707 118.478 146.707 117.115 145.892L117.113 145.892Z" fill="#D52B1E"/>
</svg>
