<svg width="300" height="200" viewBox="0 0 300 200" fill="none" xmlns="http://www.w3.org/2000/svg">
<path d="M245 31.0192C219.091 22.8576 202.05 33.6266 182.408 49.2016C181.919 48.7667 184.642 46.6855 184.99 46.2071C194.926 37.3866 206.647 29.5817 220.011 27.5136C226.465 26.4806 239.804 27.1352 245 31.0192Z" fill="black"/>
<path d="M207.618 10.4708C198.678 11.9169 190.754 16.649 183.338 21.6464C174.383 27.3963 167.278 35.2446 161.672 44.226C165.201 33.0374 176.558 24.3104 186.55 18.0582C191.695 15.0354 201.81 9.34212 207.618 10.4708Z" fill="black"/>
<path d="M196.709 77.2618C196.676 76.9791 196.861 76.9334 197.018 76.8725C201.602 74.9544 206.414 73.6757 211.251 72.5666C221.304 70.3724 235.901 69.1655 244.382 75.7199C229.038 68.8175 212.19 73.2843 196.709 77.2618Z" fill="black"/>
<path d="M143.758 42.1603C142.886 33.0049 144.965 23.7908 148.307 15.2987C149.199 13.4241 151.63 6.63482 153.961 7.01538C146.933 17.3059 145.769 30.1996 143.971 42.1777C143.899 42.1733 143.829 42.1668 143.758 42.1603Z" fill="black"/>
<path d="M237.433 60.3015C232.518 60.3429 227.318 55.7043 225.938 51.1788C226.538 50.0458 228.18 49.7022 229.193 48.941C229.804 48.5974 230.087 48.691 230.524 49.2346C232.927 52.2226 236.291 56.5328 240.623 54.9758C242.678 54.9323 240.634 58.1138 240.571 59.1924C240.103 60.3211 238.468 60.2276 237.433 60.3015Z" fill="black"/>
<path d="M78.2442 51.6548C85.3358 52.5399 103.529 59.0182 105.645 66.1229C99.5364 60.5514 91.5989 56.5674 83.5678 53.9512C82.7871 53.5402 77.9398 52.3028 78.2442 51.6548Z" fill="black"/>
<path d="M223.513 87.1978C223.082 87.9263 221.223 91.5907 220.298 90.8317C217.043 88.2482 213.935 85.2711 209.721 84.4142C209.227 84.2185 209.092 83.627 209.373 83.1899C210.297 82.17 210.63 79.9214 212.226 79.9083C216.756 80.4172 221.062 83.4596 223.513 87.1978Z" fill="black"/>
<path d="M54.0007 46.3118C54.4378 44.8852 54.1573 41.5014 56.2319 41.6906C59.9528 41.5797 63.8215 42.045 67.0705 43.9914C67.6642 44.385 68.4318 44.7025 67.9925 45.5332C67.6294 46.5444 67.2879 47.5644 66.9313 48.5778C66.6094 49.4933 66.455 49.552 65.5808 49.1758C62.3079 47.7971 58.7915 46.7271 55.2055 46.9163C54.6988 46.9707 53.9746 47.0316 54.0007 46.3118Z" fill="black"/>
<path d="M158.188 25.6742C159.239 26.5789 160.098 27.7162 161.2 28.5926C161.596 28.9362 161.603 29.2624 161.281 29.6908C158.791 31.9655 156.322 35.0427 156.864 38.6374C156.888 39.2507 156.192 39.2746 155.766 39.0767C154.52 38.2656 151.88 38.1873 151.854 36.354C152.117 32.0743 154.611 28.0033 158.188 25.6742Z" fill="black"/>
<path d="M87.166 20.8202C87.4509 19.8895 86.9942 17.7496 88.1838 17.4191C89.8757 17.4147 91.6002 17.1646 93.279 17.3103C94.1445 17.7757 93.1377 20.4223 93.2834 21.3965C93.092 23.482 93.6705 25.4523 94.3098 27.4051C94.3446 27.8075 94.1598 28.1641 93.6813 28.1989C92.4831 28.2881 91.3892 28.736 90.3062 29.2123C89.0971 29.7407 88.9579 29.682 88.4708 28.4642C87.4835 25.9981 87.3552 23.4733 87.166 20.8202Z" fill="black"/>
<path d="M107.48 125.002C107.676 123.887 107.37 122.512 108.655 122.058C109.453 122.016 111.921 120.068 112.073 121.397C112.117 124.345 113.098 127.036 114.315 129.665C114.518 130.058 114.707 130.595 114.198 130.846C113.132 131.104 110.094 134.092 109.618 132.572C108.326 130.252 107.565 127.664 107.48 125.002Z" fill="black"/>
<path d="M187.525 37.0237C185.959 37.2194 178.402 35.571 179.598 33.2854C180.02 32.5982 180.673 27.8683 181.725 28.873C185.098 31.9153 191.283 30.156 190.122 32.5025C189.765 33.8791 189.504 35.2817 189.184 36.6648C188.976 37.389 188.071 36.9845 187.525 37.0237Z" fill="black"/>
<path d="M133.167 24.2537C132.61 25.0888 130.438 28.6944 129.363 27.2809C127.456 25.5672 125.038 23.8775 122.341 24.1798C121.458 24.245 121.484 23.1381 121.952 22.6314C122.874 21.5637 123.289 19.302 124.983 19.3955C128.126 19.7282 131.979 21.0396 133.167 24.2537Z" fill="black"/>
<path d="M112.021 97.2535C111.296 99.9718 110.009 102.457 108.428 104.776C107.908 106.091 104.886 102.599 104.064 102.192C103.172 101.566 103.918 100.689 104.381 100.031C105.553 98.3408 106.599 96.5793 107.243 94.6112C107.53 93.9741 107.758 93.8914 108.352 94.2742C109.437 95.2397 111.616 95.8225 112.021 97.2535Z" fill="black"/>
<path d="M177.312 48.7473C178.358 51.0025 178.673 53.4729 178.976 55.915C179.078 56.9045 179.002 57.0285 178.01 57.2742C171.806 59.1096 175.862 56.3652 172.745 50.2565C171.58 48.5777 176.394 48.8756 177.312 48.7473Z" fill="black"/>
<path d="M86.4536 64.5226C87.3648 65.2163 93.8866 69.2721 92.7667 70.2246C92.0686 70.7878 90.7921 73.4801 89.8461 72.7298C88.1063 71.1336 86.0056 69.981 84.3007 68.337C83.2307 67.3105 85.064 66.4472 85.5424 65.5925C85.8403 65.2098 85.9382 64.6966 86.4536 64.5226Z" fill="black"/>
<path d="M84.7559 79.6735C84.3666 80.7238 83.973 85.9474 82.2898 85.3037C81.0785 84.8101 77.9839 85.0123 78.5689 83.0529C80.8284 77.9272 77.6273 76.5376 83.762 78.5579C84.3884 78.6949 84.8581 78.7601 84.7559 79.6735Z" fill="black"/>
<path d="M199.043 93.139C196.859 92.6193 193.813 91.7559 193.158 89.3203C193.441 88.3743 194.583 87.811 195.209 87.0521C196.146 85.7886 197.921 89.0202 200.885 89.2376C201.746 89.329 201.587 90.2576 201.209 90.7795C200.537 91.5145 200.137 93.052 199.043 93.139Z" fill="black"/>
<path d="M106.967 35.0297C106.362 35.6212 103.237 35.482 102.343 35.3472C102.169 33.9684 102.23 32.5353 102.176 31.1413C102.191 30.1867 102.304 30.0779 103.272 30.091C107.615 30.1171 106.73 29.6147 106.967 35.0297Z" fill="black"/>
<path d="M129.329 47.9277C125.948 36.9499 111.943 24.3259 101.787 19.8853C111.856 28.1816 123.068 35.7973 128.942 47.9885C128.988 48.1886 129.073 48.3517 129.297 48.3974C129.414 48.2452 129.373 48.0995 129.329 47.9277Z" fill="black"/>
<path d="M232.219 52.9247C234.396 54.9885 237.014 57.0501 240.204 56.3107C240.072 57.2458 239.75 58.0395 239.476 58.8529C234.555 60.4382 229.857 56.3542 227.539 52.3419C229.931 50.3303 229.566 51.0849 231.714 52.3832C231.712 52.381 232.162 52.8486 232.219 52.9247Z" fill="#EA958E"/>
<path d="M231.712 52.3812C230.879 52.5095 230.353 51.5939 229.67 51.2373C228.892 51.5439 228.374 52.255 227.539 52.3398C227.317 52.0702 227.135 51.7853 227.228 51.3591C227.981 50.8284 228.8 50.3544 229.655 49.8716C230.371 50.7458 231.043 51.5635 231.712 52.3812Z" fill="#F2BFBB"/>
<path d="M210.514 83.5291C211.016 82.718 211.59 80.7195 212.721 80.9391C216.631 81.5328 219.71 84.2816 222.231 87.1522C221.828 88.0155 221.346 88.7962 220.746 89.4791C218.956 88.7244 217.66 87.0891 216.009 86.0518C214.369 84.7774 212.475 84.1446 210.514 83.5291Z" fill="#0D8157"/>
<path d="M65.2719 47.8688C62.0578 46.6075 58.7327 45.8203 55.3054 45.6833C55.2597 44.7743 55.4533 43.7239 55.8534 42.8171C58.6522 42.4626 61.4575 43.3412 64.015 44.4285C65.8482 45.1897 66.1505 45.9856 65.2719 47.8688Z" fill="#0479CE"/>
<path d="M65.2728 47.8689C65.3185 47.1099 65.362 46.3509 65.412 45.505C63.694 44.1806 61.1496 43.9349 59.2207 42.9062C61.9238 42.9171 64.6291 43.663 66.9212 45.1135C66.8277 46.14 66.2906 47.0794 65.9796 48.0211C65.6621 48.169 65.4729 47.9972 65.2728 47.8689Z" fill="#78A2D3"/>
<path d="M155.267 37.663C154.449 37.4869 153.736 37.0846 152.992 36.6518C153.047 33.1288 154.854 29.7168 157.526 27.4812C158.298 27.9292 159.36 28.9796 158.618 29.8494C157.061 32.2655 155.852 34.8468 155.267 37.663Z" fill="#0479CE"/>
<path d="M155.266 37.6632C155.572 34.5273 157.195 31.7502 158.745 29.1058C158.343 28.5709 157.934 28.025 157.525 27.4814C157.677 27.3465 157.832 27.2117 158.014 27.0508C158.88 27.7054 159.469 28.4926 160.287 29.2168C157.782 31.5676 155.803 34.1511 155.633 37.7002C155.485 37.8415 155.377 37.7349 155.266 37.6632Z" fill="#78A2D3"/>
<path d="M92.2887 27.3574C91.4123 27.677 90.5381 27.9989 89.6182 28.3338C88.3069 25.5828 88.1655 22.2534 88.483 19.2632C89.4051 19.0653 91.7798 18.9044 91.6602 20.2875C91.7711 22.2904 91.9777 24.2824 92.4192 26.2439C92.5062 26.6288 92.4475 26.9985 92.2887 27.3574Z" fill="#D52B1E"/>
<path d="M92.2881 27.3572C91.7988 24.8128 91.4639 22.3098 91.3008 19.711C90.4179 19.3935 89.4045 19.574 88.4824 19.2652C88.4933 19.0303 88.5063 18.7977 88.5194 18.5236C89.8264 18.3605 91.0877 18.2649 92.436 18.3279C92.0445 21.379 92.1402 24.2409 93.0927 27.1745C92.8122 27.2376 92.5512 27.2963 92.2881 27.3572Z" fill="#DD554B"/>
<path d="M110.278 131.285C108.864 128.762 108.255 126.092 108.716 123.206C109.347 122.86 109.951 122.621 110.586 122.451C111.004 122.923 110.795 123.517 110.895 124.05C111.132 125.315 111.406 126.577 111.819 127.792C112.133 128.714 112.076 129.486 111.319 130.156C110.937 130.496 110.813 131.081 110.278 131.285Z" fill="#78A2D3"/>
<path d="M110.277 131.285C110.506 130.585 111.017 130.041 111.528 129.532C112.448 128.775 110.058 124.402 110.586 122.449C110.706 122.397 110.825 122.345 111.008 122.267C111.356 125.048 112.18 127.495 113.2 130.095C112.322 130.593 111.43 131.098 110.49 131.629C110.41 131.502 110.345 131.394 110.277 131.285Z" fill="#BBD0E9"/>
<path d="M188.925 32.9897C188.548 33.8248 188.831 35.9973 187.622 35.9408C185.449 35.9386 183.279 35.4406 181.383 34.3533C181.411 33.5399 181.729 31.3914 182.84 31.6523C184.854 32.1612 186.933 32.383 188.925 32.9897Z" fill="#FFCE24"/>
<path d="M188.924 32.9897C186.671 33.0332 184.54 31.9893 182.313 31.8023C181.995 32.6743 181.689 33.5138 181.382 34.3532C181.065 34.2923 180.793 34.1553 180.584 33.9096C180.736 32.8831 181.315 31.039 181.732 30.2561C183.974 31.5587 186.51 31.898 189.03 32.3786C188.989 32.6134 188.956 32.8005 188.924 32.9897Z" fill="#FFEBA7"/>
<path d="M124.484 20.616C126.856 20.2137 131.395 22.1535 132.045 24.1216C131.558 24.9327 130.886 25.7243 130.064 26.4398C128.039 24.811 125.913 23.1974 123.205 22.9973C123.303 22.3188 123.399 22.1383 124.484 20.616Z" fill="#0D8157"/>
<path d="M108.068 103.195C107.979 103.334 107.892 103.471 107.772 103.658C106.698 102.999 105.769 102.253 104.854 101.412C105.832 99.7089 106.859 98.1888 107.722 96.4491C110.803 96.8449 108.731 101.388 108.068 103.195Z" fill="#D52B1E"/>
<path d="M108.068 103.194C108.334 101.329 109.023 99.541 109.158 97.6295C108.601 97.2859 108.366 96.6335 107.725 96.4486C107.794 96.1116 107.827 95.7614 108.127 95.4396C109.179 95.8745 110.058 96.5726 110.926 97.3228C110.291 99.4258 109.471 101.498 108.068 103.194Z" fill="#DD554B"/>
<path d="M177.68 54.5515C177.756 55.0626 177.83 55.5714 177.911 56.1216C177.139 56.5131 176.33 56.6088 175.471 56.7436C175.023 54.6842 174.914 52.6487 174.09 50.6806C176.769 49.1322 177.154 52.7987 177.68 54.5515Z" fill="#DD554B"/>
<path d="M177.682 54.5514C177.164 53.2901 176.679 52.0353 176.144 50.7783C175.468 50.5413 174.776 50.6892 174.094 50.6783C174.015 50.5 173.937 50.3216 173.846 50.1129C174.763 49.9041 175.681 49.7845 176.681 49.8497C177.197 51.3829 177.612 52.9291 177.682 54.5514Z" fill="#EA958E"/>
<path d="M91.4493 70.2439C91.0731 70.6962 90.8056 71.1464 90.3402 71.5335C88.7767 70.5744 87.3544 69.411 85.8604 68.3476C85.6212 68.1714 85.3102 68.0301 85.2559 67.6756C85.4037 67.5321 85.6103 67.4559 85.7278 67.2754L85.6843 67.2907C86.6781 66.5491 86.8608 66.5252 87.8546 67.2972C89.0789 68.2475 90.4185 69.0587 91.4493 70.2439Z" fill="#FFCE24"/>
<path d="M91.4489 70.2442C89.8679 69.1373 88.4 67.8042 86.7472 66.8191C86.358 66.9909 86.0209 67.1409 85.6816 67.2888C85.8252 66.7299 86.3145 66.4189 86.5798 65.9579C87.6301 66.4646 90.816 68.9502 91.6859 69.9354C91.612 70.0376 91.5293 70.1398 91.4489 70.2442Z" fill="#FFEBA7"/>
<path d="M85.7239 67.2755C85.5673 67.4081 85.4085 67.543 85.252 67.6756C85.3172 67.4342 85.4259 67.2429 85.7239 67.2755Z" fill="#EA958E"/>
<path d="M80.6133 79.584C80.6372 79.3513 80.6633 79.1187 80.6937 78.8142C81.6919 79.0882 82.6205 79.3448 83.573 79.6058C83.5774 80.9519 82.9097 82.235 82.6466 83.5572C82.5161 84.0095 82.4552 84.277 81.7854 84.0356C80.9025 82.6351 82.179 80.6953 80.6133 79.584Z" fill="#DD554B"/>
<path d="M80.6145 79.5844C82.5435 79.7627 81.517 82.6833 81.7867 84.0359C81.0582 84.0076 80.3797 83.7945 79.7012 83.4988C79.8317 82.1287 80.3884 80.9305 80.6145 79.5844Z" fill="#D52B1E"/>
<path d="M195.434 88.3764C195.575 88.235 195.716 88.0915 195.862 87.9436C197.241 88.944 198.519 89.6399 200.116 90.2705C199.979 90.8816 199.437 91.4057 199.117 91.9363C198.696 92.0429 198.35 91.8776 198.004 91.7232C197.948 90.0313 195.686 89.9943 195.434 88.3764Z" fill="#78A2D3"/>
<path d="M195.432 88.3765C196.18 89.3986 197.245 90.0227 198.239 90.7882C198.152 91.134 198.078 91.4275 198.004 91.7211C196.536 91.408 195.29 90.7164 194.242 89.5856C194.588 89.0789 195.027 88.744 195.432 88.3765Z" fill="#0479CE"/>
<path d="M105.987 34.2856C105.102 34.4291 104.279 34.3748 103.436 34.3422C103.16 33.3201 103.244 32.3045 103.238 31.2432C104.045 31.0127 104.819 31.1911 105.623 31.141C106.043 32.2023 105.847 33.1678 105.987 34.2856Z" fill="#78A2D3"/>
<path fill-rule="evenodd" clip-rule="evenodd" d="M196.223 172.237L167.153 154.315L87 174.386L114.156 194.699L196.223 172.237Z" fill="#D52B1E"/>
<path fill-rule="evenodd" clip-rule="evenodd" d="M116.43 83.2258L105.664 76.6549C125.283 68.2902 145.979 64.7069 167.632 67.2153L179.117 73.9054C156.268 71.9954 135.572 74.7434 116.43 83.2258Z" fill="white"/>
<path fill-rule="evenodd" clip-rule="evenodd" d="M116.309 83.2257L105.543 76.6548C125.162 68.2901 145.858 64.7068 167.511 67.2152L178.996 73.9053C156.267 71.9953 135.451 74.7433 116.309 83.2257ZM185.815 77.8487C185.815 72.7113 182.704 71.1572 182.704 71.1572C179.953 68.6488 166.675 62.4367 166.675 62.4367C154.472 60.8825 132.938 63.9893 132.938 63.9893C103.628 67.3358 94.1777 77.7296 94.1777 77.7296L95.2539 110.586L100.159 114.41L110.089 121.34C110.806 121.578 114.874 123.132 117.745 122.894H118.223C118.702 122.894 152.917 124.685 180.193 109.631C180.431 109.631 180.671 109.392 180.91 109.392C183.064 109.033 184.977 107.838 186.294 106.047C186.294 105.926 185.815 82.986 185.815 77.8487Z" fill="black"/>
<path fill-rule="evenodd" clip-rule="evenodd" d="M189.763 122.534C190.002 121.22 182.704 118.113 180.79 117.038C180.431 117.397 180.79 117.038 180.909 120.143L113.2 134.244L100.04 126.238C99.7998 126 100.04 123.25 100.04 123.012C98.4837 123.25 94.0582 124.803 92.8613 125.879V140.218L107.935 150.85C109.371 151.925 111.165 152.283 112.839 151.806L190.121 136.274L189.763 122.534Z" fill="#212492"/>
<path fill-rule="evenodd" clip-rule="evenodd" d="M189.763 122.534C190.002 121.22 182.704 118.113 180.79 117.038C180.431 117.397 180.79 117.038 180.909 120.143L113.2 134.244L100.04 126.238C99.7998 126 100.04 123.25 100.04 123.012C98.4837 123.25 94.0582 124.803 92.8613 125.879V140.218L107.935 150.85C109.371 151.925 111.165 152.283 112.839 151.806L190.121 136.274L189.763 122.534Z" stroke="black" stroke-width="1.234"/>
<path fill-rule="evenodd" clip-rule="evenodd" d="M196.223 172.237L167.153 154.315L87 174.386L114.156 194.699L196.223 172.237Z" stroke="black" stroke-width="1.234" stroke-linejoin="round"/>
<path d="M166.675 143.681L166.436 149.894" stroke="black" stroke-width="1.234" stroke-linecap="round" stroke-linejoin="round" stroke-dasharray="4.11 4.11"/>
<path d="M92.623 143.681L93.4597 170.087" stroke="black" stroke-width="1.234" stroke-linecap="round" stroke-linejoin="round" stroke-dasharray="4.11 4.11"/>
<path d="M190.242 139.022V165.428" stroke="black" stroke-width="1.234" stroke-linecap="round" stroke-linejoin="round" stroke-dasharray="4.11 4.11"/>
<path fill-rule="evenodd" clip-rule="evenodd" d="M180.672 109.391L180.911 120.144L113.319 134.481L100.041 126.238V114.768L108.415 120.861H108.534C108.774 120.861 113.68 123.131 117.746 122.654C120.257 122.773 122.651 122.773 125.164 122.654C128.752 122.654 133.537 122.176 138.92 121.698C150.046 120.383 166.197 117.278 180.672 109.391Z" fill="#D6E3F2"/>
<path fill-rule="evenodd" clip-rule="evenodd" d="M180.672 109.391L180.911 120.144L113.319 134.481L100.041 126.238V114.768L108.415 120.861H108.534C108.774 120.861 113.68 123.131 117.746 122.654C120.257 122.773 122.651 122.773 125.164 122.654C128.752 122.654 133.537 122.176 138.92 121.698C150.046 120.383 166.197 117.278 180.672 109.391Z" stroke="black" stroke-width="1.234"/>
<path fill-rule="evenodd" clip-rule="evenodd" d="M116.429 83.2257L105.662 76.6548C125.281 68.2901 145.977 64.7068 167.63 67.2152L179.115 73.9053C156.267 71.9953 135.57 74.7433 116.429 83.2257ZM185.815 77.8487C185.815 72.7113 182.704 71.1572 182.704 71.1572C179.953 68.6488 166.675 62.4367 166.675 62.4367C154.472 60.8825 132.938 63.9893 132.938 63.9893C103.628 67.3358 94.1777 77.7296 94.1777 77.7296L95.2539 110.586L100.159 114.41L110.089 121.34C110.806 121.578 114.874 123.132 117.745 122.894H118.223C118.702 122.894 152.917 124.685 180.193 109.631C180.431 109.631 180.671 109.392 180.91 109.392C183.064 109.033 184.977 107.838 186.294 106.047C186.294 105.926 185.815 82.986 185.815 77.8487Z" fill="#AFC0D4"/>
<path fill-rule="evenodd" clip-rule="evenodd" d="M116.429 83.2257L105.662 76.6548C125.281 68.2901 145.977 64.7068 167.63 67.2152L179.115 73.9053C156.267 71.9953 135.57 74.7433 116.429 83.2257ZM185.815 77.8487C185.815 72.7113 182.704 71.1572 182.704 71.1572C179.953 68.6488 166.675 62.4367 166.675 62.4367C154.472 60.8825 132.938 63.9893 132.938 63.9893C103.628 67.3358 94.1777 77.7296 94.1777 77.7296L95.2539 110.586L100.159 114.41L110.089 121.34C110.806 121.578 114.874 123.132 117.745 122.894H118.223C118.702 122.894 152.917 124.685 180.193 109.631C180.431 109.631 180.671 109.392 180.91 109.392C183.064 109.033 184.977 107.838 186.294 106.047C186.294 105.926 185.815 82.986 185.815 77.8487Z" stroke="black" stroke-width="1.234"/>
<path fill-rule="evenodd" clip-rule="evenodd" d="M120.857 175.105L134.614 178.928C140.477 174.03 150.884 165.905 157.225 162.558C158.66 161.723 161.054 161.245 159.496 162.201C151.841 167.218 144.902 173.193 138.801 180.002C137.247 181.676 134.854 182.512 132.581 182.034L116.43 177.495C115.234 177.135 118.943 174.746 120.857 175.105Z" fill="white"/>
<path d="M109.85 154.555L110.686 180.959" stroke="black" stroke-width="1.234" stroke-linecap="round" stroke-linejoin="round" stroke-dasharray="4.11 4.11"/>
<path fill-rule="evenodd" clip-rule="evenodd" d="M183.489 76.62C183.82 76.6141 184.093 76.8779 184.099 77.2092L184.599 105.209C184.605 105.541 184.341 105.814 184.01 105.82C183.679 105.826 183.405 105.562 183.399 105.231L182.899 77.2306C182.894 76.8993 183.157 76.6259 183.489 76.62Z" fill="#EDF5FD"/>
<path fill-rule="evenodd" clip-rule="evenodd" d="M182.553 119.996C182.676 119.749 182.977 119.649 183.224 119.773L187.671 121.996C188.179 122.25 188.5 122.77 188.5 123.338V133.72C188.5 133.996 188.276 134.22 188 134.22C187.724 134.22 187.5 133.996 187.5 133.72V123.338C187.5 123.148 187.393 122.975 187.224 122.891L182.777 120.667C182.53 120.544 182.429 120.243 182.553 119.996Z" fill="#BCBDDE"/>
</svg>
