<svg width="300" height="200" viewBox="0 0 300 200" fill="none" xmlns="http://www.w3.org/2000/svg">
<path d="M255.102 197.153C252.012 204.157 212.638 196.154 204.661 195.196C175.9 190.465 147.073 185.577 118.834 178.292C116.427 177.609 113.98 177.021 111.631 176.142C110.675 175.759 109.67 175.312 109.194 174.533C108.601 173.651 108.527 171.976 109.684 171.587C110.064 171.447 110.577 171.426 111.018 171.426C117.234 171.426 123.452 171.426 129.668 171.426C130.498 171.393 132.068 171.57 130.69 172.452C129.918 172.937 128.719 173.203 127.765 173.357C127.277 173.439 126.795 173.504 126.368 173.674C126.144 173.777 126.167 173.882 126.4 173.98C126.846 174.155 127.41 174.215 127.9 174.281C128.679 174.374 129.423 174.61 130.174 174.826C131.574 175.239 133.475 175.515 131.182 175.801C129.565 175.993 127.746 175.631 126.176 175.587C125.446 175.624 124.989 175.93 125.299 176.352C125.829 176.954 126.792 177.075 127.508 177.404C128.63 177.884 129.316 178.617 130.435 178.967C131.851 179.386 133.335 179.58 134.765 179.939C138.454 180.772 142.275 181.6 146.037 181.882C147.236 181.847 148.283 181.341 149.587 181.516C161.158 183.659 172.816 185.465 184.212 187.883C189.164 188.7 194.2 188.819 199.131 189.679C200.84 189.987 202.592 190.067 204.281 190.472C205.4 190.745 206.499 191.116 207.639 191.338C210.571 191.881 213.555 192.112 216.505 192.518C219.98 192.994 223.523 193.127 226.961 193.803C228.02 194.148 228.13 195.128 229.063 195.469C234.059 196.217 239.092 196.737 244.082 197.439C244.431 197.465 244.779 197.463 245.094 197.414C245.504 197.353 245.824 197.218 245.948 197.05C246.143 196.8 245.901 196.5 245.376 196.276C232.384 192.191 218.975 190.312 205.808 187.212C204.836 186.619 206.294 186.505 206.884 186.603C217.016 188.504 227.078 190.82 237.122 193.143C241.567 194.26 246.013 196.285 250.666 196.189C251.625 196.063 251.662 195.035 252.686 195.121C253.773 195.249 255 196.04 255.102 197.125V197.153Z" fill="#CCCCCC"/>
<path d="M252.628 166.611C252.77 134.155 252.53 101.525 252.637 69.0406C252.565 68.4318 252.068 68.2988 251.485 68.1962C250.79 68.0749 240.042 66.7174 236.434 66.153C237.861 58.3743 237.439 49.6836 232.94 42.9545L232.9 42.9382C230.034 38.1776 223.554 35.8895 218.721 39.1433L218.705 39.1806C211.115 43.9948 208.319 53.791 207.896 62.3628C204.834 61.9453 201.834 61.5371 198.804 61.1242C202.884 44.4869 189.493 20.7356 175.086 41.527C175.098 41.569 175.081 41.597 175.039 41.611C172.331 46.2642 170.904 51.6918 170.668 57.0518C170.472 57.2944 170.216 57.1824 169.992 57.1451C167.701 56.7602 165.383 56.5177 163.09 56.2051C163.874 48.9675 163.946 40.9323 159.85 34.4504L159.813 34.4341C155.244 26.1912 145.17 27.4857 140.622 35.1011L140.58 35.1198C137.265 39.885 135.661 45.7511 135.234 51.5076C135.187 52.2656 135.185 52.3426 134.445 52.226C133.258 52.0394 132.059 51.9601 130.872 51.7758C126.37 50.5933 124.241 51.9251 120.098 53.8097C119.993 53.8097 119.886 53.8074 119.781 53.8074C119.781 95.1429 119.781 136.481 119.781 177.816C120.437 177.924 241.768 198.186 241.768 198.186C243.284 198.253 244.866 199.091 246.335 198.543C248.152 197.882 249.978 197.25 251.802 196.614C252.465 196.427 252.684 195.695 252.626 195.084C252.63 185.593 252.63 176.102 252.628 166.611ZM157.76 55.524C152.039 54.7263 146.401 53.9403 140.773 53.1566C140.946 46.6911 142.63 38.6628 148.636 35.1711C158.003 32.1366 159.228 49.5973 157.76 55.524ZM193.533 60.4035C187.774 59.6128 182.046 58.8291 176.294 58.0384C176.455 51.6568 178.176 44.0437 183.791 40.2908C193.51 36.2627 195.15 54.2832 193.533 60.4035ZM231.037 65.5232C225.21 64.7302 219.435 63.9418 213.611 63.1488C213.713 56.4314 215.379 48.2142 221.457 44.3843C225.028 42.3341 228.657 45.7394 229.887 49.0538C232.065 54.2319 232.119 60.0793 231.037 65.5232Z" fill="black"/>
<path d="M121.182 54.7942C125.108 55.2957 129.045 55.7645 132.935 56.4596C131.827 57.5745 133.726 57.8334 134.554 57.6234C134.825 57.5721 135.107 57.5185 135.347 57.7261C136.063 63.2913 137.803 69.2367 142.412 72.824C142.988 73.3698 143.14 74.2468 143.597 74.8742C145.248 77.2813 148.759 77.3326 150.552 74.8835C153.218 71.5481 149.82 66.0576 145.68 67.7369C143.163 67.2005 141.369 61.3484 141.127 58.9599C141.5 58.6894 141.913 58.792 142.314 58.8526C146.216 59.4451 150.116 60.0608 154.021 60.6276C158.277 61.2434 162.527 61.9058 166.793 62.4423C168.113 62.5076 169.51 62.9997 170.763 62.412C171.428 68.0611 173.107 74.1745 177.784 77.8201C178.735 78.6388 178.756 80.0569 179.829 80.8219C181.403 82.2634 183.976 82.2354 185.553 80.7986C189.324 77.5145 185.837 71.0397 181.259 72.8823C178.654 72.1196 176.96 66.5707 176.638 63.9934C178.861 63.1933 182.271 64.5788 184.716 64.6511C192.518 65.5864 200.31 67.0325 208.124 67.674C208.894 73.1435 210.746 78.928 215.287 82.4243C215.847 82.8908 215.994 83.6815 216.367 84.2786C218.102 87.0636 221.967 87.1429 223.828 84.4442C226.541 80.8779 222.592 75.378 218.389 77.4399C215.889 75.4153 214.652 72.1056 214.123 69.0291C224.243 70.6851 234.749 71.6298 244.916 72.838C245.028 114.332 244.918 155.836 244.956 197.335C213.045 192.18 181.177 186.843 149.269 181.677C140.052 180.177 130.834 178.668 121.618 177.15C121.149 177.073 121.138 177.061 121.138 176.513C121.135 138.804 121.138 101.103 121.138 63.3939C121.147 63.3916 121.322 56.049 121.182 54.7942Z" fill="#EDF5FD"/>
<path d="M251.249 69.99C251.249 111.601 251.242 153.209 251.249 194.818C251.316 195.921 247.176 196.539 246.141 197.16C246.057 155.577 246.138 113.994 246.113 72.4111C246.113 71.8629 246.115 71.8629 246.598 71.6833C248.174 71.1212 249.644 70.5125 251.249 69.99Z" fill="#AFC0D4"/>
<path d="M235.31 65.472C235.303 65.6353 235.296 65.7963 235.289 65.9455C234.905 66.0458 233.144 65.8452 232.274 65.6143C233.104 60.2777 233.26 54.6215 231.313 49.4738C229.974 45.0702 225.206 40.5289 220.558 43.5471C211.356 49.6884 209.427 70.1486 217.22 77.9739C218.715 79.3431 220.446 79.9495 222.454 79.693C223.662 79.3944 224.033 82.9351 222.907 83.0587C218.808 83.9194 214.904 81.4516 212.807 78.0299C207.284 68.8168 208.119 56.5784 212.926 47.2347C216.637 39.6589 225.869 34.903 231.609 43.2695C231.352 43.4538 231.182 43.2578 231.037 43.1086C230.13 42.1733 229.062 41.4549 227.91 40.8764C225.489 39.5306 221.173 38.9801 219.664 41.8327C227.613 38.341 234.098 46.4556 234.646 53.8308C235.191 57.6863 234.963 61.6189 235.31 65.472Z" fill="#212492"/>
<path d="M197.016 60.8399C196.419 60.6067 194.821 60.9869 194.739 60.2172C195.318 56.252 195.404 52.1493 194.536 48.2191C191.033 33.1118 179.625 37.091 176.348 49.8355C174.417 57.4742 174.051 66.9346 179.494 73.2439C182.389 76.381 185.358 74.5477 185.682 75.6346C186.025 76.465 186.48 78.1957 185.391 78.5595C182.608 79.0563 179.744 78.247 177.71 76.2667C173.929 72.7191 172.455 67.4478 171.907 62.4377C171.203 54.505 172.889 46.0289 177.801 39.6264C182.678 33.0395 191.003 32.9229 194.889 40.48C194.448 40.8229 192.409 37.7021 191.544 37.2962C188.449 34.516 183.18 35.0221 181.053 38.6047C187.579 33.8979 194.233 38.691 196.129 45.5788C197.387 50.5305 197.846 55.8228 197.016 60.8399Z" fill="#212492"/>
<path d="M161.642 55.9928C160.735 55.9742 159.849 55.8039 158.909 55.6383C159.692 50.3623 159.711 44.8624 157.714 39.843C156.098 35.0055 150.92 31.2456 146.404 35.2364C138.544 42.1824 136.683 61.2455 144.566 68.6907C147.06 71.0045 149.726 69.472 150.029 70.4797C150.391 71.317 150.836 73.1387 149.656 73.3999C136.61 74.6337 134.884 55.1788 137.21 45.9447C138.773 36.5799 148.986 22.8908 157.845 33.7623C157.458 34.0375 155.258 31.831 154.374 31.5908C149.74 29.0904 143.885 32.2416 142.591 36.9461C155.629 21.4727 164.318 44.1767 161.642 55.9928Z" fill="#212492"/>
<path d="M249.43 69.3557C247.925 69.8012 246.374 70.9348 244.781 70.5943C240.301 69.9528 235.82 69.3021 231.33 68.726C225.606 67.9539 219.885 67.1726 214.161 66.3889C213.214 66.3632 213.799 65.0197 213.648 64.334C225.574 65.9737 237.485 67.6111 249.395 69.2484C249.406 69.2834 249.418 69.3208 249.43 69.3557Z" fill="#AFC0D4"/>
<path d="M207.983 65.5351C197.357 64.096 186.83 62.6336 176.276 61.1898C176.246 60.4994 176.218 59.8953 176.188 59.2166C183.266 60.1005 190.278 61.1828 197.345 62.1064C200.683 62.5566 204.023 63.0138 207.361 63.4663C208.317 63.4779 207.792 64.7981 207.983 65.5351Z" fill="#AFC0D4"/>
<path d="M140.746 56.2496C140.746 55.6175 140.746 55.0321 140.746 54.386C147.846 55.2723 154.925 56.3009 162.013 57.2735C164.726 57.6467 167.443 58.0059 170.156 58.3721C171.026 58.3605 170.478 59.7553 170.622 60.4107C160.661 59.0275 150.72 57.7214 140.746 56.2496Z" fill="#AFC0D4"/>
<path d="M235.308 65.4721C235.122 65.3438 235.024 65.2178 235.061 64.9846C235.021 61.248 234.898 57.5161 234.489 53.7982C233.972 47.0947 228.213 39.0478 220.721 41.6392C218.647 42.9407 219.387 41.1703 220.607 40.5149C224.105 38.3131 228.563 40.4986 231.231 43.0899C236.351 48.4172 236.479 58.5307 235.308 65.4721Z" fill="#BCBDDE"/>
<path d="M161.643 55.9931C163.684 46.6983 157.61 24.1949 145.043 34.5579C144.357 35.2763 141.43 39.2928 142.804 35.7708C146.473 29.3986 152.581 29.1467 157.846 33.7649C160.304 36.6688 161.776 42.3833 162.163 45.2079C162.226 45.5368 162.683 52.9586 161.643 55.9931Z" fill="#BCBDDE"/>
<path d="M197.019 60.8398C197.446 54.6355 197.567 47.8854 194.568 42.2386C191.622 37.0862 185.963 34.973 181.03 38.8985C179.887 38.1218 184.692 35.2856 185.567 35.4302C189.952 34.6768 192.24 37.8046 194.892 40.4799C195.879 42.0706 196.557 43.792 197.077 45.581C198.402 50.4908 198.696 55.9184 197.579 60.8795C197.427 60.8725 197.276 60.8678 197.124 60.8608C197.084 60.8981 197.054 60.8911 197.033 60.8398H197.019Z" fill="#BCBDDE"/>
<path d="M208.131 67.6739C206.23 67.7439 197.254 66.489 194.248 66.1181C190.045 65.4977 176.608 63.9886 176.608 63.9886C176.608 63.9886 176.433 62.9647 176.391 62.3652C176.934 62.4515 207.128 66.58 207.932 66.7572C208.242 67.0091 208.068 67.3683 208.131 67.6739Z" fill="white"/>
<path d="M123.25 53.7375C124.689 53.2944 126.058 52.2121 127.614 52.5177C129.944 52.9212 132.293 53.2081 134.635 53.5463C135.614 53.5299 135.062 54.7451 135.199 55.3749C132.202 55.3959 126.681 54.2367 123.283 53.8915C123.273 53.8402 123.262 53.7888 123.25 53.7375Z" fill="#AFC0D4"/>
<path d="M135.349 57.726C134.472 57.7726 133.234 58.0175 132.513 57.5184C132.448 57.0403 132.31 56.5761 132.937 56.4595C133.621 56.5528 134.297 56.6437 134.99 56.709C135.494 56.751 135.291 57.3808 135.349 57.726Z" fill="white"/>
<path d="M170.677 61.7611C170.677 61.6119 170.435 61.5652 170.264 61.5792C169.138 61.4183 161.156 60.3243 159.815 60.1401H159.817C159.043 60.0398 158.273 59.8998 157.497 59.8135C157.497 59.8135 154.217 59.3984 152.62 59.1511C152.629 59.1511 152.638 59.1488 152.648 59.1488C152.102 59.0578 151.551 58.9949 151.003 58.9179C150.707 58.8782 150.408 58.8572 150.117 58.7919C149.074 58.638 144.304 58.0292 144.314 58.0386C144.043 57.9896 143.777 57.9453 143.507 57.9126C142.662 57.733 141.809 57.6514 140.848 57.5208C140.955 58.0735 141.041 58.519 141.128 58.9645C148.256 59.7366 155.341 61.136 162.472 62.0177C164.018 62.0364 170.076 63.5968 170.764 62.4142C170.736 62.195 170.705 61.9781 170.677 61.7611Z" fill="white"/>
<path d="M207.935 66.7572C207.835 66.7362 207.737 66.7175 207.637 66.6965C207.737 66.7152 207.835 66.7362 207.935 66.7572Z" fill="#AFC0D4"/>
<path d="M197.031 60.8423C197.069 60.8166 197.099 60.8236 197.122 60.8633C197.092 60.8563 197.062 60.8493 197.031 60.8423Z" fill="#6A6969"/>
<path d="M244.577 71.7602C243.18 71.6133 218.78 68.2382 218.6 68.2172C218.6 68.2172 214.463 67.6365 214.348 67.6668C214.355 67.6575 214.073 67.5805 213.828 67.5315C213.889 67.8067 213.926 67.977 213.966 68.1473C213.987 68.1193 214.04 68.7397 214.129 69.0289C224.27 71.0442 234.655 71.8908 244.922 72.8378C244.908 72.446 245.172 71.7929 244.577 71.7602Z" fill="white"/>
<path d="M133.728 56.5738C133.67 56.5598 133.609 56.5482 133.551 56.5342C133.609 56.5482 133.667 56.5598 133.728 56.5738Z" fill="#AFC0D4"/>
<path d="M145.992 142.667C142.043 141.899 138.071 141.419 134.106 140.763C132.105 140.136 126.84 140.871 128.03 137.428C128.172 137.181 128.366 137.05 128.674 137.097C134.414 137.936 140.159 138.942 145.894 139.718C146.013 139.32 146.06 111.286 145.941 110.353C142.668 109.723 139.335 109.331 136.042 108.797C133.924 108.48 131.804 108.174 129.684 107.864C128.42 107.839 127.449 106.528 127.988 105.329C128.224 104.263 133.591 105.814 134.766 105.76C138.514 106.243 142.244 107.041 145.994 107.377C145.994 99.6331 145.994 91.8964 145.994 84.1526C145.701 82.7788 146.795 80.8126 148.108 82.3613C149.094 90.5202 148.159 99.071 148.472 107.356C148.488 107.776 148.521 107.825 148.95 107.888C150.517 108.123 152.087 108.347 153.654 108.583C161.253 109.674 168.817 110.955 176.417 112.023C176.577 103.752 176.379 95.479 176.491 87.2058C176.538 86.7113 176.934 86.2682 177.378 86.1585C178.791 85.9043 178.98 87.7003 178.915 88.7429C178.919 96.4096 178.915 104.076 178.917 111.743C178.917 112.394 178.95 112.434 179.584 112.529C183.715 113.145 187.846 113.754 191.976 114.372C196.842 115.095 201.705 115.844 206.573 116.56C206.955 116.611 207.028 116.543 207.046 116.147C207.06 107.92 207.016 99.6937 207.063 91.4695C207.179 89.7272 209.598 90.0467 209.521 91.7424C209.677 99.9829 209.535 108.23 209.579 116.473C209.591 116.937 209.624 116.979 210.071 117.049C213.68 117.619 217.293 118.157 220.906 118.694C225.207 119.387 229.559 119.844 233.83 120.7C235.108 121.012 235.325 123.643 233.729 123.552C225.797 122.302 217.85 121.124 209.908 119.944C208.959 129.197 209.908 139.681 209.579 149.337C209.668 150.252 212.873 150.047 213.761 150.399C219.063 151.229 224.365 152.059 229.666 152.887C231.523 153.284 236.036 153.072 234.581 156.095C233.743 156.958 232.213 155.938 231.129 156.008C225.787 155.194 220.451 154.338 215.112 153.494C213.437 153.233 211.76 152.976 210.083 152.724C209.631 152.657 209.579 152.708 209.579 153.198C209.5 162.705 209.729 172.233 209.493 181.733C209.096 183.335 206.99 181.833 207.079 180.688C206.988 171.475 207.074 162.259 207.044 153.046C207.044 152.675 207.121 152.22 206.619 152.176C204.795 151.896 202.974 151.602 201.152 151.315C193.863 150.161 186.574 149.002 179.29 147.821C178.152 156.811 179.386 167.346 178.854 176.828C178.756 177.53 178.287 177.789 177.646 177.49C176.972 177.178 176.559 176.648 176.512 175.888C176.386 166.677 176.505 157.459 176.463 148.246C176.463 147.516 176.638 147.411 175.649 147.262C166.756 145.871 157.864 144.474 148.968 143.094C148.525 143.026 148.483 143.068 148.467 143.499C148.467 152.603 148.467 161.704 148.465 170.808C148.497 171.692 148.458 173.322 147.144 172.704C145.801 172.139 146.022 170.549 145.99 169.343C145.99 160.449 145.992 151.563 145.992 142.667Z" stroke="black" stroke-width="3" stroke-miterlimit="10"/>
<path d="M145.992 142.667C142.043 141.899 138.071 141.419 134.106 140.763C132.105 140.136 126.84 140.871 128.03 137.428C128.172 137.181 128.366 137.05 128.674 137.097C134.414 137.936 140.159 138.942 145.894 139.718C146.013 139.32 146.06 111.286 145.941 110.353C142.668 109.723 139.335 109.331 136.042 108.797C133.924 108.48 131.804 108.174 129.684 107.864C128.42 107.839 127.449 106.528 127.988 105.329C128.224 104.263 133.591 105.814 134.766 105.76C138.514 106.243 142.244 107.041 145.994 107.377C145.994 99.6331 145.994 91.8964 145.994 84.1526C145.701 82.7788 146.795 80.8126 148.108 82.3613C149.094 90.5202 148.159 99.071 148.472 107.356C148.488 107.776 148.521 107.825 148.95 107.888C150.517 108.123 152.087 108.347 153.654 108.583C161.253 109.674 168.817 110.955 176.417 112.023C176.577 103.752 176.379 95.479 176.491 87.2058C176.538 86.7113 176.934 86.2682 177.378 86.1585C178.791 85.9043 178.98 87.7003 178.915 88.7429C178.919 96.4096 178.915 104.076 178.917 111.743C178.917 112.394 178.95 112.434 179.584 112.529C183.715 113.145 187.846 113.754 191.976 114.372C196.842 115.095 201.705 115.844 206.573 116.56C206.955 116.611 207.028 116.543 207.046 116.147C207.06 107.92 207.016 99.6937 207.063 91.4695C207.179 89.7272 209.598 90.0467 209.521 91.7424C209.677 99.9829 209.535 108.23 209.579 116.473C209.591 116.937 209.624 116.979 210.071 117.049C213.68 117.619 217.293 118.157 220.906 118.694C225.207 119.387 229.559 119.844 233.83 120.7C235.108 121.012 235.325 123.643 233.729 123.552C225.797 122.302 217.85 121.124 209.908 119.944C208.959 129.197 209.908 139.681 209.579 149.337C209.668 150.252 212.873 150.047 213.761 150.399C219.063 151.229 224.365 152.059 229.666 152.887C231.523 153.284 236.036 153.072 234.581 156.095C233.743 156.958 232.213 155.938 231.129 156.008C225.787 155.194 220.451 154.338 215.112 153.494C213.437 153.233 211.76 152.976 210.083 152.724C209.631 152.657 209.579 152.708 209.579 153.198C209.5 162.705 209.729 172.233 209.493 181.733C209.096 183.335 206.99 181.833 207.079 180.688C206.988 171.475 207.074 162.259 207.044 153.046C207.044 152.675 207.121 152.22 206.619 152.176C204.795 151.896 202.974 151.602 201.152 151.315C193.863 150.161 186.574 149.002 179.29 147.821C178.152 156.811 179.386 167.346 178.854 176.828C178.756 177.53 178.287 177.789 177.646 177.49C176.972 177.178 176.559 176.648 176.512 175.888C176.386 166.677 176.505 157.459 176.463 148.246C176.463 147.516 176.638 147.411 175.649 147.262C166.756 145.871 157.864 144.474 148.968 143.094C148.525 143.026 148.483 143.068 148.467 143.499C148.467 152.603 148.467 161.704 148.465 170.808C148.497 171.692 148.458 173.322 147.144 172.704C145.801 172.139 146.022 170.549 145.99 169.343C145.99 160.449 145.992 151.563 145.992 142.667Z" fill="#EDF5FD"/>
<path d="M176.467 129.764C176.467 134.445 176.465 139.128 176.47 143.81C176.47 144.507 176.498 144.61 175.693 144.477C166.781 143.077 157.882 141.596 148.966 140.225C148.506 140.152 148.478 140.12 148.469 139.655C148.469 130.256 148.469 120.854 148.469 111.454C148.469 110.693 148.471 110.684 149.203 110.794C156.796 111.941 164.39 113.075 171.987 114.183C172.768 114.474 176.677 114.458 176.465 115.33C176.467 120.138 176.465 124.952 176.467 129.764Z" fill="black"/>
<path d="M207.05 134.447C207.05 139.203 207.05 143.959 207.05 148.715C207.045 149.288 206.989 149.34 206.443 149.256C197.473 147.863 188.504 146.466 179.538 145.048C178.927 144.952 178.918 144.943 178.918 144.297C178.918 134.785 178.918 125.271 178.918 115.76C178.932 115.302 179.007 115.239 179.454 115.307C186.841 116.441 194.24 117.504 201.615 118.708C202.613 119.072 206.949 119.03 207.05 119.897C207.047 124.749 207.05 129.598 207.05 134.447Z" fill="black"/>
<path d="M149.602 112.03C158.015 113.257 166.388 114.547 174.785 115.858C175.326 115.942 175.335 115.944 175.335 116.485C175.298 125.379 175.41 134.27 175.293 143.161C166.703 141.825 158.169 140.498 149.602 139.166C149.602 130.13 149.602 121.134 149.602 112.03Z" fill="#EDF5FD"/>
<path d="M205.906 148.006C197.257 146.627 188.706 145.265 180.125 143.898C180.125 134.834 180.125 125.798 180.125 116.765C180.561 116.707 205.206 120.371 205.906 120.599C205.906 129.694 205.906 138.802 205.906 148.006Z" fill="white"/>
<path d="M197.489 131.879C202.665 135.765 199.124 142.671 193.291 142.965C189.065 143.625 183.52 140.246 184.451 135.525C185.076 133.514 187.999 133.398 188.472 135.48C189.058 137.713 191.773 138.68 193.876 138.207C194.917 138.011 196.286 137.034 195.677 135.833C194.987 134.412 193.501 134.072 192.134 133.654C189.505 132.707 190.142 128.555 192.939 129.022C196.545 128.31 194.096 124.014 191.192 125.038C190.38 125.248 189.671 125.651 189.109 126.281C186.723 128.744 183.539 125.425 184.957 123.046C191.887 115.578 204.379 122.183 197.489 131.879Z" fill="black"/>
<path d="M192.295 121.026C196.755 120.856 199.684 125.136 197.739 129.187C197.669 130.412 195.099 131.207 196.188 132.255C205.721 140.332 187.619 146.788 185.331 136.705C185.093 135.604 186.849 134.312 187.351 135.746C187.5 136.271 187.693 136.772 188.02 137.211C189.933 140.299 197.067 140.565 196.895 136.049C196.265 132.462 190.693 133.547 191.733 130.603C191.945 130.27 192.377 130.193 192.757 130.232C195.232 130.335 196.867 127.149 195.192 125.292C191.01 121.126 188.367 127.018 186.581 125.812C183.343 123.034 190.173 121.001 192.295 121.026Z" fill="#D52B1E"/>
<path d="M217.739 131.709C217.982 125.353 215.917 119.041 212.244 113.882C212.253 113.842 212.244 113.81 212.213 113.782C211.483 112.345 210.072 111.239 209.093 109.933L209.062 109.961L209.09 109.931C204.67 105.107 197.799 104.573 196.381 112.151C192.145 111.652 187.748 112.021 184.061 114.323C182.881 114.915 181.719 115.515 180.77 116.45C180.173 116.94 178.545 118.344 178.025 118.801C176.697 120.049 175.349 121.28 174.414 122.871C174.379 122.932 174.276 123.041 174.244 123.128C171.447 127.03 168.877 131.774 168.373 136.621C168.424 136.964 168.266 137.241 168.105 137.53C168.133 137.493 168.158 137.454 168.186 137.416C168.163 137.456 168.137 137.496 168.105 137.53C167.883 139.441 167.808 141.33 168.109 143.217C168.109 143.222 168.214 143.376 168.109 143.217C168.534 145.412 169.227 147.492 170.668 149.256C170.934 149.51 171.279 149.722 171.452 150.028C172.233 151.22 173.539 152.148 174.745 152.71C175.128 153.671 176.222 153.37 176.861 153.949C178.876 154.746 181.292 155.427 183.524 155.397C186.538 155.628 189.61 155.74 192.507 154.942C193.563 154.986 194.534 154.373 195.569 154.308C196.234 154.249 196.829 154.203 197.286 153.671C198.161 153.89 199.145 153.522 199.742 152.869C200.6 152.563 201.47 152.295 202.331 151.994C202.312 151.975 202.312 151.975 202.331 151.994C204.523 150.802 206.765 149.659 208.561 147.926C209.277 147.518 210.056 147.212 210.401 146.363C210.448 146.249 210.616 146.128 210.739 146.114C211.549 146.016 211.612 145.151 212.146 144.775C213.074 143.879 213.926 142.916 214.509 141.752C216.172 139.695 216.603 137.029 217.534 134.613C217.434 133.642 217.592 132.672 217.739 131.709ZM200.166 111.004C200.169 111.004 200.169 111.004 200.171 111.004C200.169 111.006 200.166 111.006 200.166 111.004ZM211.971 122.682C211.969 122.682 211.971 122.684 211.971 122.682C211.969 122.682 211.969 122.682 211.971 122.682ZM194.869 151.161C194.872 151.164 194.874 151.164 194.876 151.166C194.874 151.166 194.869 151.166 194.867 151.166C194.867 151.164 194.869 151.164 194.869 151.161ZM191.28 114.631C192.913 114.465 194.564 114.323 196.208 114.512C196.411 114.537 196.682 114.598 196.763 114.323C196.833 114.33 196.901 114.334 196.971 114.341C196.92 114.743 197.281 114.752 197.542 114.829C199.637 115.228 201.102 116.606 202.776 117.765C203.39 118.097 204.108 117.434 203.758 116.809C202.741 114.514 200.227 113.114 197.862 112.436C198.093 112.149 198.629 112.265 198.534 111.752C198.527 111.748 198.522 111.745 198.515 111.741C199.693 111.542 200.787 110.927 201.951 110.838C204.934 111.608 206.784 114.572 208.559 116.851C209.095 117.74 209.631 118.628 210.168 119.517H210.17C213.888 126.559 215.183 135.476 209.114 141.591C206.035 144.843 202.177 147.24 198.009 148.838C195.089 149.853 192.199 151.063 189.057 151.035C180.014 152.192 170.372 148.267 171.701 137.719C171.713 137.642 171.65 137.579 171.587 137.544C172.599 135.76 172.364 133.61 173.36 131.772C174.358 129.801 175.046 127.594 176.336 125.777C180.03 120.651 184.931 116.035 191.28 114.631Z" fill="#D52B1E"/>
<path d="M70.5057 182.512C70.8182 182.871 70.8275 183.347 70.8859 183.767C71.0818 185.873 73.6171 185.537 74.7927 186.803C77.2837 188.802 80.5398 193.276 83.8449 190.167C85.7389 190.54 87.4392 191.496 89.3472 191.17C91.9315 190.741 95.3789 189.626 94.4342 186.346C96.776 186.272 97.3871 189.15 95.3345 190.192C92.2697 192.007 88.6124 192.03 85.1627 192.31C80.9713 192.425 76.9012 191.079 73.1273 189.346C70.2468 188.233 64.0238 183.368 70.5057 182.512Z" fill="#CCCCCC"/>
<path d="M138.324 68.8495C137.31 65.2971 134.679 62.7804 132.307 60.0888C131.898 59.5477 131.269 59.0439 131.007 58.4281C130.951 57.887 130.59 57.5698 130.249 57.2292C126.655 53.5929 123.047 49.973 119.159 46.6469C115.289 43.2905 109.68 43.3232 104.823 42.8684C103.006 42.6631 101.054 43.0853 99.3305 42.6025C104.105 37.2985 102.197 29.2912 102.778 22.751C103.473 19.7585 103.114 16.6284 103.76 13.6591C104.665 10.9022 104.427 7.47351 101.567 5.97608C95.8691 2.67567 88.7995 -2.25512 82.1053 1.14792C76.4608 1.50711 72.6193 1.76602 68.6681 6.54753C65.482 10.5593 63.5834 15.7887 64.4184 20.9294C65.6523 24.0758 66.7788 27.2876 68.4395 30.2498C68.6425 30.5857 68.6588 30.9519 68.6518 31.3298C68.5748 33.6179 70.0886 35.4535 72.0432 36.4425C73.3423 37.5084 73.2257 39.7429 74.7185 40.7365C74.5156 42.1803 73.3563 42.5395 72.3394 43.2579C69.7387 45.1332 67.1754 47.0668 64.64 49.0307C59.1681 53.0915 56.3412 59.4077 53.197 65.2458C50.5147 70.4495 47.977 75.7232 45.6516 81.0971C41.8124 91.0007 55.9423 97.0767 61.8597 102.789C62.0883 105.224 60.4463 110.451 62.3519 111.96C62.928 112.522 63.8446 112.856 63.791 113.791C64.2038 124.082 65.5287 134.303 66.2214 144.572C66.7299 152.79 67.5392 161.007 68.4722 169.156C66.8278 170.843 63.1356 172.095 64.71 175.022C66.2447 177.782 68.8874 179.879 70.5038 182.51C70.3825 184.117 70.8653 185.388 72.5073 185.952C75.4415 186.981 76.995 189.927 79.8055 191.177C82.3992 192.553 83.2786 189.78 86.1965 191.121C89.168 192.259 96.3682 190.643 94.4323 186.346C93.7956 184.952 92.5197 184.093 91.2905 183.263C89.182 181.978 87.6916 180.049 86.1381 178.18C85.1678 177.392 85.625 176.249 85.4851 175.155C85.6203 173.518 84.797 171.589 85.7323 170.141C89.9727 164.65 93.9262 158.942 98.0196 153.34C100.604 149.841 104.189 146.102 103.669 141.428C102.463 131.56 100.578 121.763 98.4535 112.07C99.4867 111.65 100.947 111.953 101.504 110.903C101.901 108.023 101.101 105.037 101.192 102.105C101.003 87.2804 100.947 72.3551 99.2232 57.6304C103.065 57.6327 110.645 55.3749 113.666 57.2152C116.779 59.529 119.91 61.8195 123.03 64.1216C123.553 64.6464 124.131 64.9006 124.873 64.9753C124.584 67.3964 125.078 69.8081 125.361 72.2198C125.594 73.7453 127.77 74.7366 128.666 73.1762C129.204 72.3995 129.076 71.4082 129.232 70.5452C131.516 70.979 129.368 77.2113 133.608 76.2526C135.29 75.7045 136.99 75.1377 138.173 73.7243C139.733 72.6514 138.716 70.3376 138.324 68.8495ZM63.3128 90.175C62.3472 89.438 59.9145 86.7766 59.1937 85.6991C60.3926 84.0197 61.4352 82.0115 62.7134 80.5C63.2429 82.1071 63.6207 87.9988 63.3128 90.175ZM84.9579 148.099C84.7947 148.057 84.7503 148.087 84.7387 147.957C84.9952 144.442 85.2541 140.927 85.5294 137.185C86.523 139.156 87.421 140.936 88.368 142.814C87.2531 144.533 86.1778 146.38 84.9579 148.099Z" fill="black"/>
<path d="M101.659 145.799C95.6555 155.185 88.7981 164.258 81.8521 172.988C79.6223 169.893 76.9283 167.538 73.6932 165.532C79.0952 158.024 85.0616 150.753 89.7335 142.704C88.7911 140.616 87.0838 138.692 86.8086 136.383C86.5707 130.088 86.6826 123.786 86.9742 117.525C86.3118 117.187 86.2068 119.932 85.9899 120.383C85.1059 126.041 84.686 131.767 84.2335 137.475C83.9863 140.777 83.9467 144.096 83.5455 147.388C83.4802 148.773 83.6341 150.173 82.6428 151.313C81.3996 152.941 80.2544 154.644 79.0439 156.298C77.7004 158.131 76.3405 159.952 74.9667 161.762C74.1924 163.192 71.8762 164.55 72.2354 166.273C72.3847 166.656 72.1911 167.136 71.8389 167.169C70.9713 167.188 70.4255 168.041 69.6208 168.016C68.226 158.378 67.8201 148.624 66.9665 138.928C66.5396 131.242 65.2055 123.557 65.2031 115.876C68.4872 115.713 71.783 115.673 75.0554 115.935C78.2881 116.079 82.5985 116.606 83.7694 112.688C84.6581 109.726 84.0376 106.563 84.4785 103.531C87.492 103.538 90.4705 103.421 93.4304 102.864C93.8059 104.412 93.3884 106.001 93.8082 107.566C94.8135 112.797 97.3909 110.337 97.6451 114.164C98.7857 121.787 99.8866 129.418 101.043 137.043C101.428 139.98 102.907 142.867 101.659 145.799Z" fill="black"/>
<path d="M72.0801 44.9115C72.2527 44.7435 72.325 44.6549 72.6072 44.6362C72.8521 47.7734 73.202 50.9618 73.6801 54.1036C73.883 55.5777 74.121 57.0472 74.2889 58.5259C74.4009 59.8951 75.8353 59.7691 76.7636 60.2986C76.591 61.6374 75.5298 62.9716 76.0569 64.2964C76.9152 65.7472 77.468 67.3379 78.1374 68.8727C79.9311 73.0104 81.5498 77.2205 83.2222 81.4049C84.0292 88.036 83.2781 94.9168 83.2385 101.611C82.8326 105.182 83.6023 108.932 82.5737 112.396C80.7871 116.515 73.96 114.346 70.4334 114.183C67.9633 113.621 65.4139 113.105 63.492 111.339C61.7193 109.966 63.1771 105.737 62.9555 103.6C63.4873 103.957 63.4873 103.957 64.0308 104.872C62.2628 108.732 64.9125 108.837 67.9913 109.203C69.547 109.551 70.7366 108.771 72.0591 108.058C72.9337 107.797 73.3466 107.017 74.0533 106.502C74.8557 105.996 74.9653 104.995 75.4738 104.282C77.3957 100.251 71.5086 97.4101 68.7143 95.7284C67.4618 94.5226 66.4332 93.0088 64.9824 91.9429C63.9025 90.9399 65.0547 88.8547 64.6652 87.4296C64.5439 85.2418 64.285 83.0563 64.0215 80.8801C63.9188 79.8981 63.4757 78.8485 64.1381 77.9645C64.7818 76.5744 70.1138 69.6494 69.2322 69.0476C68.2479 69.5071 67.6624 70.5917 66.9977 71.415C63.8209 76.4554 60.3292 81.3163 57.374 86.4873C57.2107 86.9165 57.486 87.138 57.9291 87.0821C58.3723 86.9468 58.5192 87.3293 58.7012 87.5719C60.2919 89.7014 62.1252 91.586 64.2734 93.1558L64.2617 93.1441C64.3993 93.312 64.5509 93.4636 64.7212 93.5989L64.7049 93.5919C64.8168 93.7482 65.0314 93.7062 65.1597 93.8345L65.1457 93.8228C65.218 93.9068 65.2973 93.9861 65.3836 94.0584L65.372 94.0467C65.8524 94.5342 66.4962 94.8701 66.8554 95.4532C66.4939 98.3338 64.7189 100.664 62.2581 101.462C59.4499 99.4907 56.8562 97.1722 54.1436 95.066C50.2041 92.0525 44.7228 87.9567 46.5678 82.2912C51.4239 72.7305 56.532 63.2118 62.2092 54.0873C62.9882 52.8978 63.8932 51.9414 65.204 51.2044C67.8723 49.6393 70.1418 47.3302 72.0801 44.9115Z" fill="#D52B1E"/>
<path d="M101.637 28.6848C101.096 33.0488 101.907 38.4041 98.4366 41.7022C93.7717 46.0592 86.4922 45.6836 81.1485 42.8171C80.4348 42.5092 79.819 42.0847 79.012 42.0567C79.2523 42.8194 79.91 43.2789 80.4955 43.7384C82.2448 44.8416 83.6769 46.3041 85.27 47.6149C85.2023 48.8861 83.8682 50.2995 84.6915 51.4914C85.9347 50.3252 86.0793 48.4079 86.9143 46.9385C88.0013 48.6692 87.5348 51.5078 85.5359 52.3358C82.7976 53.4903 79.6185 51.9789 77.188 50.6517C75.6556 49.5182 75.5343 47.2557 74.732 45.6137C73.8457 42.3762 77.307 41.5389 75.7489 37.2029C75.9658 36.8367 76.346 36.8787 76.6446 36.7714C77.5589 36.4005 79.5741 35.3672 79.1683 34.1963C78.226 34.3713 77.5029 35.1457 76.6119 35.4862C72.0777 37.7557 66.769 30.7723 71.9564 28.1017C74.2025 27.0241 76.3414 28.1227 78.0884 29.5828C78.7694 30.0516 79.1216 29.9863 79.7677 29.4288C82.3334 27.0287 80.6401 23.3528 81.0109 20.26C81.1532 20.3509 81.2698 20.3836 81.3048 20.4536C82.2308 22.4058 83.6326 23.9056 85.5405 24.8782C85.095 27.9617 88.5167 23.6397 91.9781 25.7039C92.2393 25.7855 92.5472 25.55 92.4889 25.2864C91.9034 23.1615 88.9949 23.5861 87.3622 24.0642C84.8128 22.1143 84.7988 17.0995 88.1132 16.1456C92.104 15.77 95.9083 14.4895 99.7405 13.4446C101.315 15.9216 101.016 19.5556 101.494 22.4408C101.07 22.6437 100.706 22.3172 100.305 22.3009C99.295 22.2566 98.25 23.1499 98.1007 24.3044C99.3043 24.0176 100.195 22.8886 101.511 23.1242C101.658 24.9739 101.681 26.8281 101.637 28.6848Z" fill="#EED3CA"/>
<path d="M128.562 58.1249C126.412 59.1885 124.548 60.6206 123.641 62.9857C120.443 61.0731 117.686 58.4001 114.551 56.3476C112.844 55.1883 113.133 55.3656 111.227 55.3819C107.071 55.4566 102.982 56.0723 98.8443 56.4502C98.0723 54.7755 97.7131 52.1562 96.3859 50.9876C96.7125 56.2519 98.5388 61.6749 98.4688 67.1468C98.5714 70.7574 98.5971 74.375 98.877 77.9787C99.1919 83.6605 99.803 89.3633 99.628 95.0475C99.7657 99.7357 99.8403 104.426 100.162 109.107C100.192 109.558 100.213 110.005 99.8869 110.381C93.8739 112.788 94.7672 103.843 94.7043 100.242C94.604 94.0189 94.1958 87.8029 94.2191 81.573C94.4687 75.9075 95.6489 70.2676 95.5999 64.5578C95.6396 62.6568 95.5766 60.7512 95.5882 58.8503C95.6652 57.866 94.8325 57.4018 94.1771 56.8257C95.5696 55.2886 94.457 53.9172 93.8179 52.3404C92.9642 50.1992 91.9216 48.2097 90.7461 46.2224C92.8989 45.8119 94.9701 45.532 96.8501 44.3611C98.7604 43.1832 100.762 44.823 102.779 44.6643C105.142 44.9163 107.523 45.1402 109.888 45.1355C117.672 44.8579 121.8 52.3358 127.223 56.6788C127.704 57.0986 128.553 57.2479 128.562 58.1249Z" fill="#D52B1E"/>
<path d="M77.2461 52.0723C81.9623 54.4537 88.7287 55.5617 88.6914 48.3054C91.1101 54.3884 91.9148 61.3578 92.4256 67.9399C93.0274 79.0844 93.2327 90.2358 93.4566 101.39C92.2391 102.108 86.4173 102.777 84.4417 102.171C84.9362 81.9323 86.198 71.1564 77.2461 52.0723Z" fill="white"/>
<path d="M78.0838 173.607C79.7818 175.927 80.0967 178.857 81.0903 181.495C81.5778 183.615 83.3248 185.852 83.1895 187.979C77.6663 182.799 73.188 176.788 67.8047 171.503C68.4928 170.304 69.9622 169.553 71.0654 168.697C72.6095 167.719 72.8521 170.238 73.097 171.244C73.4469 173.649 76.2925 173.093 78.0838 173.607Z" fill="#D52B1E"/>
<path d="M69.9655 104.795C69.7603 105.821 70.9568 107.375 69.73 107.948C68.1929 108.303 66.3432 108.037 65.9654 106.229C66.7608 105.83 68.1019 107.738 68.3352 106.673C67.7404 104.599 65.6552 105.46 64.6289 103.619C66.3736 101.578 67.4722 99.323 67.9037 96.657C70.6093 98.1567 74.6234 99.8967 74.6724 103.447C74.0077 103.078 73.8654 102.28 73.1073 102.113C72.6502 103.167 74.9197 104.587 73.2566 105.544C72.8764 105.124 72.4473 103.715 71.7802 104.028C71.3977 104.974 73.0607 106.535 71.4676 106.994C71.0711 106.239 70.8635 105.411 69.9655 104.795Z" fill="#EED3CA"/>
<path d="M74.2586 47.9041C77.9812 57.5231 83.1942 67.1747 83.2455 77.6987C83.0053 77.7174 82.968 77.5028 82.905 77.3488C82.2892 75.8304 81.7061 74.298 81.0717 72.7889C79.9078 69.6028 78.0582 66.5613 77.0692 63.3752C77.6617 60.385 79.3154 59.6246 75.5251 58.4794C75.1776 54.934 74.177 51.482 74.2586 47.9041Z" fill="#D52B1E"/>
<path d="M81.4609 178.568C85.2931 177.397 84.6844 178.358 86.9818 180.998C88.4699 183.153 90.9983 184.156 92.7336 186.055C93.0112 186.36 92.9622 186.717 92.603 186.901C90.1703 188.413 87.1708 188.975 84.822 186.997C83.1356 184.471 82.5619 181.469 81.4609 178.568Z" fill="#D52B1E"/>
<path d="M72.0768 44.9116C70.8663 47.6219 67.9157 49.3433 65.7116 51.2792C64.6106 51.8763 63.5214 52.3405 62.9173 53.5067C56.9369 62.1414 52.9298 72.2479 47.1406 80.8546C50.7279 72.5161 54.7327 64.3222 59.4139 56.5389C62.4625 51.5917 67.4469 48.233 72.0768 44.9116Z" fill="#FCA6A6"/>
<path d="M99.8868 110.383C99.5486 98.777 99.1311 87.1964 98.485 75.6089C98.1585 71.9329 98.3777 68.2383 98.0232 64.5764C97.8809 60.6719 96.5234 56.905 96.5234 53.0051C99.0448 59.529 98.7253 66.7059 99.3294 73.5913C99.4833 78.8043 99.6816 84.015 100.01 89.2187C99.7399 96.2673 100.027 103.328 100.461 110.348C100.241 110.36 100.064 110.372 99.8868 110.383Z" fill="#FCA6A6"/>
<path d="M128.562 58.1249C123.519 54.337 119.855 48.5596 114.003 45.8469C111.507 45.4061 108.916 45.3804 106.371 45.2428C104.965 44.872 99.7608 45.3385 99.418 43.9763C104.976 44.0346 114.042 43.8037 118.371 47.538C121.98 50.941 126.089 54.1155 129.15 57.9407C128.961 58.0036 128.76 58.0643 128.562 58.1249Z" fill="#FCA6A6"/>
<path d="M101.658 145.799C102.328 140.899 100.075 136.145 99.8437 131.24C99.3189 127.058 98.5795 122.911 98.0477 118.729C98.015 117.229 97.131 115.601 97.6442 114.164C99.3259 120.102 99.9859 126.381 101.187 132.46C101.686 135.172 102.059 137.904 102.356 140.644C102.787 142.426 102.659 144.222 101.658 145.799Z" fill="#6A6969"/>
<path d="M93.8468 71.1654C93.3803 62.8759 92.375 54.5794 89.4805 46.7517C91.5004 48.8696 92.1651 51.7501 93.399 54.3322C93.6486 54.9036 93.6276 55.3538 93.2194 55.8716C92.473 56.8209 92.515 56.9048 93.3733 57.7049C94.0241 58.2227 94.5932 58.6425 94.4906 59.5825C94.3646 63.4544 94.7378 67.3542 93.8468 71.1654Z" fill="#D52B1E"/>
<path d="M65.8242 173.068C66.7619 170.703 69.2389 175.027 70.2629 175.748C72.1965 177.919 74.1371 180.086 76.0263 182.297C76.7657 183.732 83.1706 188.805 82.24 189.668C76.789 184.312 71.3218 178.561 65.8242 173.068Z" fill="#CCCCCC"/>
<path d="M79.875 174.239C82.1328 174.929 82.7672 174.085 84.0058 172.37C84.3906 173.378 84.5002 174.929 84.302 176.426C83.439 177.08 82.436 177.224 81.3701 177.126C80.3578 176.674 80.5258 175.239 79.875 174.239Z" fill="#6A6969"/>
<path d="M65.6953 174.472C66.0848 174.467 67.531 176.305 67.7549 176.543C70.5445 179.489 73.3131 182.454 76.1493 185.353C77.4882 186.818 79.3331 187.893 80.3687 189.586C79.5407 189.542 78.9646 188.805 78.3138 188.359C76.5295 186.785 74.7312 185.22 73.2198 183.363C71.0786 180.989 67.4843 176.947 66.8219 176.091C66.1618 175.232 65.6953 174.472 65.6953 174.472Z" fill="#808080"/>
<path d="M72.9805 167.741C73.1997 167.505 73.3933 167.295 73.5612 167.115C75.4202 167.58 76.0943 170.514 77.1719 171.976C77.0483 172.261 76.8383 172.196 76.6774 172.172C73.0364 172.13 74.8394 169.863 72.9805 167.741Z" fill="#6A6969"/>
<path d="M64.2661 93.1629C61.5138 92.0433 59.8881 89.2071 57.9219 87.0892C57.9825 86.9609 58.0432 86.835 58.1295 86.6577C60.0934 88.2881 61.6934 90.427 63.5757 92.1973C63.8509 92.4842 64.2405 92.6964 64.2661 93.1629Z" fill="#FCA6A6"/>
<path d="M101.507 23.1219C100.275 23.3599 99.2793 24.0059 98.2624 24.6847C96.1702 24.3488 100.068 20.7568 101.297 22.4829C101.32 22.5085 101.425 22.4549 101.49 22.4385C101.754 22.6601 101.656 22.891 101.507 23.1219Z" fill="black"/>
<path d="M85.5663 9.23912C84.8386 10.7062 84.0479 12.15 83.3132 13.6311C83.2082 13.7501 83.1662 13.7804 82.9633 13.7897C82.4572 12.8684 84.3418 8.81228 85.5663 9.23912Z" fill="white"/>
<path d="M85.187 188.793C87.7247 189.917 90.6356 189.593 92.9704 188.147C93.2223 188.448 92.9867 188.576 92.8164 188.681C90.5516 190.046 87.3142 190.706 85.082 188.987C85.117 188.924 85.152 188.858 85.187 188.793Z" fill="#CCCCCC"/>
<path d="M82.0023 8.1592C81.9463 8.57437 78.9677 12.5512 79.4319 10.41C79.8984 9.547 80.8804 7.84898 82.0023 8.1592Z" fill="white"/>
<path d="M101.391 7.96331C100.682 8.6817 99.3732 8.01229 98.6641 9.09455C97.0407 8.37849 101.143 6.55451 101.391 7.96331Z" fill="white"/>
<path d="M82.991 9.58894C82.4102 10.6036 82.1863 11.989 81.4213 12.7424C80.7845 12.3086 82.2073 8.86588 82.991 9.58894Z" fill="white"/>
<path d="M99.0591 6.35402C98.4783 6.89048 97.9325 7.27766 97.2468 7.66718C96.8643 6.87648 98.434 5.73825 99.0591 6.35402Z" fill="white"/>
<path d="M135.788 67.9025C136.411 68.1684 136.583 68.7469 136.982 69.4699C137.383 70.193 137.288 70.8764 137.801 71.6134C137.71 70.7551 137.819 70.1393 137.36 68.8425C136.642 66.8203 132.569 62.3956 130.071 59.1628C127.979 59.3588 126.411 62.0084 125.551 63.7788C126.46 64.9007 125.639 66.2745 125.929 67.5643C126.183 68.4576 126.017 73.6683 127.617 72.5557C128.462 71.6321 127.482 67.471 128.541 67.6809C128.863 68.3457 129.371 68.9824 129.975 69.4443C132.501 71.0886 130.843 75.3174 133.143 75.1121C133.493 73.2415 133.029 71.3149 132.343 69.5679C132.401 68.7259 133.206 69.4653 133.388 69.8594C134.281 71.3056 134.169 73.0875 134.44 74.7086C136.537 74.7086 134.748 70.5965 134.356 69.4792C134.286 69.2507 134.055 68.8588 134.255 68.6582C135.634 68.5976 136.075 73.2158 136.788 73.4397C137.288 71.8607 135.45 69.4349 135.788 67.9025Z" fill="#EED3CA"/>
<path d="M64.7136 93.6084C64.4127 93.6061 64.2471 93.4661 64.2541 93.1536C64.5224 93.1862 64.7509 93.2655 64.7136 93.6084Z" fill="#4D50A8"/>
<path d="M65.154 93.8439C65.0024 93.7623 64.8508 93.683 64.6992 93.6014C64.9278 93.5384 65.0514 93.6713 65.154 93.8439Z" fill="#4D50A8"/>
<path d="M65.3785 94.0679C65.2992 93.9886 65.2199 93.9116 65.1406 93.8323C65.2223 93.9116 65.2992 93.9909 65.3785 94.0679Z" fill="#4D50A8"/>
<path d="M65.5794 94.2824C65.5095 94.2078 65.4395 94.1308 65.3672 94.0562C65.4372 94.1308 65.5071 94.2078 65.5794 94.2824Z" fill="#4D50A8"/>
<path d="M69.6447 62.7033C69.2692 62.2998 69.2482 61.9266 69.1969 61.5581C68.854 57.355 68.0563 54.9736 64.0469 53.096C64.6207 52.8441 64.7816 52.8068 65.1431 52.928C69.085 54.0546 71.0745 59.0274 69.6447 62.7033Z" fill="black"/>
<path d="M90.1883 32.4658C92.6 32.909 94.9815 33.0723 97.4072 33.5574C97.7058 33.618 98.1279 33.709 98.1886 34.2501C98.2492 34.7889 96.6049 37.9237 95.0584 38.4975C92.0169 39.6288 88.2057 37.2403 90.1883 32.4658Z" fill="black"/>
<path d="M92.633 28.9225C92.5677 30.4946 89.4235 28.3558 88.0544 29.7342C87.5273 30.1121 85.7499 31.0264 86.2701 29.6153C87.301 27.656 91.8516 26.3545 92.633 28.9225Z" fill="black"/>
<path d="M75.0707 31.4208C74.4923 32.0435 74.6019 33.0115 73.9395 33.5596C72.9692 33.0605 73.6549 31.7286 73.7599 30.8843C69.5545 29.1839 74.6952 29.4988 76.0247 30.5041C76.7757 30.721 78.3711 32.6056 76.7431 32.5147C76.16 32.1998 75.7075 31.6797 75.0707 31.4208Z" fill="black"/>
<path d="M97.7772 28.3302C97.663 27.6654 97.9825 27.1803 98.428 26.7534C99.6315 25.2303 102.407 25.8438 100.746 27.1709C100.037 27.4975 99.3493 27.8544 98.7382 28.3512C98.393 28.6964 97.7842 28.3698 97.7772 28.3302Z" fill="black"/>
<path d="M97.5235 28.6101C97.5235 28.6101 98.5124 29.6527 98.5497 30.3595C98.3282 32.7152 94.5729 27.0637 96.18 27.2573C96.7701 27.4672 97.5235 28.6101 97.5235 28.6101Z" fill="black"/>
<path d="M93.8494 40.79C93.1264 40.7597 92.2843 40.5731 92.2773 39.885C92.7835 39.4768 93.6395 39.9456 94.2506 39.9526C94.885 40.2745 94.1713 40.748 93.8494 40.79Z" fill="black"/>
<path d="M90.5195 34.8167C91.8607 35.4068 93.8199 36.2418 93.9692 37.7649C92.1149 38.0657 90.6058 36.8272 90.5195 34.8167Z" fill="#EF6261"/>
<path d="M90.7385 33.2588C92.8027 33.9888 94.8506 34.4857 96.9825 34.5136C97.6192 36.4146 90.2044 34.453 90.7385 33.2588Z" fill="white"/>
</svg>
