<svg width="200" height="200" viewBox="0 0 200 200" fill="none" xmlns="http://www.w3.org/2000/svg">
<path d="M44.7859 176.066C44.0348 176.515 42.7042 176.774 41.8297 176.646L4.71819 171.156C3.84365 171.027 3.75513 170.575 4.52236 170.151L33.1192 154.379C33.8864 153.955 35.2358 153.552 36.1183 153.482L88.1855 149.345C89.068 149.276 89.1754 149.584 88.4242 150.033L44.7859 176.066Z" fill="#808080"/>
<path d="M11.2584 149.057C11.583 148.872 11.9505 148.662 12.4307 148.387C11.9908 148.141 11.591 147.943 11.2182 147.707C10.7165 147.388 10.7219 146.885 11.245 146.636C11.5454 146.492 11.8915 146.428 12.2215 146.358C16.1891 145.508 19.8938 143.985 23.5797 142.386C33.5269 138.069 43.0556 133.002 52.4233 127.65C54.1778 126.646 55.9751 125.709 57.7322 124.71C58.4378 124.309 59.1513 124.176 59.9642 124.245C67.1509 124.859 74.3377 125.455 81.5245 126.05C84.6819 126.312 87.8394 126.554 90.9968 126.808C91.3858 126.839 91.7775 126.864 92.1584 126.939C92.9659 127.101 93.2878 127.499 93.3012 128.285C93.3414 130.709 93.3119 133.136 93.4568 135.555C93.5346 136.846 93.1859 137.732 91.8982 138.215C91.7211 138.282 91.5736 138.421 91.3321 138.58C91.3321 140.722 91.2356 142.915 91.367 145.095C91.4502 146.471 90.852 147.216 89.7145 147.904C77.5703 155.254 65.4502 162.637 53.322 170.013C50.2799 171.861 47.2297 173.7 44.2011 175.57C43.4204 176.053 42.68 176.194 41.7304 176.027C31.2949 174.173 20.8488 172.373 10.408 170.549C8.41481 170.203 8.38799 170.11 8.13582 168.122C7.84073 165.811 7.49199 163.505 7.1352 161.202C6.8884 159.607 6.94205 159.478 8.38799 158.61C9.41812 157.992 10.4161 157.321 11.4408 156.695C12.09 156.297 12.2966 155.824 12.1544 155.051C11.8003 153.087 11.5589 151.102 11.2584 149.057Z" fill="black"/>
<path d="M9.60673 169.07C9.54771 168.594 9.49674 168.194 9.42699 167.639C14.6045 168.556 19.6344 169.683 24.8145 169.881C19.8034 168.284 14.5964 167.554 9.33042 166.72C9.26335 166.306 9.19897 165.911 9.11312 165.384C13.6012 166.001 17.8987 167.128 22.3573 167.208C20.289 166.306 18.0704 165.967 15.8707 165.577C13.628 165.176 11.3719 164.848 8.97899 164.465C8.91997 164.044 8.85291 163.564 8.76707 162.945C11.7689 163.25 14.5803 163.995 17.491 163.782C14.6742 162.737 11.6643 162.66 8.6544 162.187C8.54977 161.699 8.44515 161.209 8.29492 160.5C19.2079 162.031 29.9947 163.623 40.854 165.184C40.9049 165.672 40.9479 166.068 40.9962 166.527C39.0754 166.322 37.2539 166.119 35.4324 165.937C33.6806 165.762 31.9289 165.613 30.1557 165.618C33.6967 166.835 37.4417 166.928 41.1222 167.511C41.1813 167.899 41.2269 168.209 41.2939 168.661C39.0056 168.44 36.8032 168.225 34.6008 168.012C34.582 168.119 34.5632 168.227 34.5418 168.335C36.7066 169.021 39.0325 169.01 41.4039 169.563C41.5971 171.216 41.7929 172.896 42.0048 174.735C31.1294 172.837 20.458 170.97 9.60673 169.07Z" fill="#AFC0D4"/>
<path d="M25.4308 154.899C23.883 154.632 22.3378 154.334 20.7845 154.108C18.5714 153.787 16.3475 153.518 14.1289 153.233C13.579 153.161 13.0076 153.135 13.2329 152.257C17.8417 152.737 22.4209 153.646 27.0994 153.656C22.5148 152.439 17.8041 151.967 13.021 151.404C12.9593 151.07 12.9003 150.734 12.8037 150.2C23.2016 152.228 33.5968 153.156 44.051 154.283C44.051 154.74 44.051 155.223 44.051 155.754C42.1678 155.611 40.3463 155.469 38.5247 155.328C38.5006 155.436 38.4765 155.544 38.4523 155.652C38.9647 155.888 39.5307 155.983 40.0968 156.078C40.7674 156.191 41.4381 156.306 42.1087 156.417C42.7284 156.52 43.3481 156.622 44.0483 156.735C44.0483 158.448 44.0483 160.156 44.0483 162.056C34.026 160.772 24.0573 159.493 13.9787 158.202C13.8499 157.372 13.7239 156.561 13.579 155.626C16.7579 155.911 19.8081 156.645 22.9494 156.548C19.9073 155.644 16.7177 155.513 13.5629 154.897C13.4878 154.594 13.4127 154.285 13.2973 153.821C17.3856 154.293 21.3586 154.994 25.3799 155.22C25.3933 155.117 25.4121 155.01 25.4308 154.899Z" fill="#AFC0D4"/>
<path d="M43.4166 174.487C43.304 173.778 43.2235 173.278 43.1323 172.708C47.2984 170.425 51.5906 168.355 55.4053 165.568C55.349 165.461 55.2926 165.35 55.239 165.242C54.6193 165.507 53.9728 165.725 53.3853 166.044C51.1802 167.233 48.9938 168.447 46.8048 169.659C45.5922 170.332 44.3851 171.018 43.1752 171.698C42.8157 171.067 43.0008 170.725 43.5776 170.407C45.2194 169.495 46.8343 168.542 48.4412 167.579C49.0448 167.217 49.6028 166.786 50.0991 166.259C47.4969 167.04 45.3106 168.573 42.8318 169.924C42.6092 168.183 42.4053 166.591 42.1934 164.937C43.1484 164.323 43.8646 163.398 45.2059 163.499C45.5332 163.522 45.8927 163.185 46.2307 163C51.604 160.083 56.9773 157.161 62.3533 154.246C62.7637 154.023 63.1957 153.833 63.7617 153.555C64.1185 156.264 64.4565 158.83 64.8079 161.478C57.7124 165.794 50.6597 170.08 43.4166 174.487Z" fill="#AFC0D4"/>
<path d="M83.5258 129.642C82.1174 130.364 80.7064 131.083 79.3007 131.807C75.4001 133.815 71.505 135.834 67.5937 137.819C67.1967 138.019 66.6682 138.142 66.2282 138.089C60.8174 137.434 55.4092 136.738 50.001 136.055C48.8421 135.908 47.6805 135.772 46.5243 135.621C46.0602 135.562 45.6015 135.477 44.8691 135.359C45.4379 135.017 45.7517 134.814 46.079 134.635C50.2585 132.341 54.4515 130.066 58.6149 127.745C59.3366 127.341 60.0287 127.233 60.8335 127.305C65.9224 127.773 71.014 128.214 76.1057 128.666C78.5603 128.885 81.0149 129.111 83.4695 129.334C83.4856 129.437 83.507 129.54 83.5258 129.642Z" fill="#EDF5FD"/>
<path d="M21.8906 146.746C22.5613 146.474 22.9985 146.276 23.4519 146.114C28.168 144.45 32.6775 142.368 37.0287 139.966C37.5277 139.692 37.9622 139.643 38.5336 139.717C44.8539 140.542 51.1822 141.322 57.5079 142.121C58.031 142.188 58.5487 142.28 59.2757 142.393C58.7687 142.707 58.4307 142.945 58.0659 143.141C54.1143 145.259 50.1521 147.357 46.214 149.494C45.5434 149.859 44.8942 150.015 44.1323 149.925C40.6502 149.517 37.1548 149.193 33.6835 148.723C30.1156 148.241 26.5664 147.627 23.012 147.062C22.7249 147.018 22.454 146.908 21.8906 146.746Z" fill="#EDF5FD"/>
<path d="M79.8301 139.02C83.8836 136.968 87.937 134.916 92.0763 132.818C92.0763 133.322 92.0763 133.722 92.0763 134.141C89.9705 135.368 87.6956 136.295 85.7749 137.803C87.9639 137.215 89.8712 136.036 91.9315 135.178C92.2373 136.478 92.2453 136.491 91.2501 137.035C85.2034 140.327 79.1541 143.614 73.1048 146.901C72.8607 147.032 72.5978 147.13 72.1847 147.312C71.9084 144.819 71.6455 142.436 71.3691 139.932C78.1964 136.285 85.0076 132.644 91.8698 128.979C92.3097 131.637 92.2936 131.609 90.1127 132.787C86.8533 134.549 83.618 136.354 80.3774 138.149C80.1011 138.301 79.8543 138.501 79.5941 138.678C79.6746 138.791 79.7524 138.904 79.8301 139.02Z" fill="#3DB97E"/>
<path d="M64.6973 151.478C58.259 154.973 51.9656 158.386 45.5085 161.889C45.5085 160.854 45.5085 160.04 45.5085 159.066C48.4648 157.641 51.531 156.17 54.2512 154.138C51.1259 155.024 48.4084 156.724 45.4763 158.239C45.4763 157.636 45.4763 157.184 45.4763 156.652C46.8659 155.98 48.3011 155.315 49.7095 154.598C51.0428 153.917 52.4592 153.35 53.6208 152.41C53.5644 152.31 53.5081 152.21 53.4491 152.11C50.8228 153.35 48.1992 154.593 45.4736 155.882C45.4736 155.135 45.4736 154.542 45.4736 153.774C51.5739 150.512 57.7628 147.207 64.1367 143.797C64.5552 146.447 64.4318 148.946 64.6973 151.478Z" fill="#AFC0D4"/>
<path d="M89.8701 139.305C89.8701 140.207 89.8701 140.882 89.8701 141.67C88.3893 142.631 86.8334 143.643 85.2399 144.677C86.1279 144.86 86.1279 144.86 87.5121 144.028C88.2498 143.584 88.9849 143.139 89.7548 142.674C90.1947 143.373 89.7897 143.684 89.2612 143.997C86.9031 145.394 84.5559 146.804 82.2059 148.214C81.8813 148.409 81.5701 148.619 81.1677 148.879C81.8705 149.287 82.348 148.874 82.7773 148.643C84.808 147.541 86.8093 146.393 88.8185 145.255C89.1431 145.07 89.449 144.855 89.8889 144.572C89.9184 145.165 89.9399 145.61 89.9667 146.175C84.2447 149.654 78.5146 153.139 72.7067 156.673C72.2131 154.197 71.7517 151.876 71.2607 149.413C77.4013 146.077 83.5552 142.736 89.8701 139.305Z" fill="#3DB97E"/>
<path d="M70.9264 148.094C69.2578 148.996 67.7394 149.817 66.0064 150.752C65.8911 149.319 65.7945 148.048 65.6818 146.779C65.5772 145.621 65.4726 144.463 65.3304 143.307C65.215 142.378 64.7161 141.795 63.6672 141.669C61.5908 141.42 59.5225 141.117 57.4488 140.842C53.9265 140.377 50.4069 139.905 46.882 139.463C43.9847 139.098 41.0821 138.777 38.1822 138.425C37.5571 138.348 36.9375 138.225 36.0039 138.071C37.3774 137.365 38.5041 136.756 39.6657 136.214C39.9366 136.089 40.331 136.16 40.6583 136.202C45.4387 136.787 50.2191 137.378 54.9969 137.976C59.1469 138.495 63.297 139.024 67.447 139.548C67.5918 139.566 67.7421 139.558 67.8843 139.589C69.5931 139.953 70.1779 139.787 70.3362 142.023C70.4757 144.016 70.7171 146.004 70.9264 148.094Z" fill="#D52B1E"/>
<path d="M18.5629 147.038C19.1826 147.313 19.5689 147.562 19.9928 147.659C25.6317 148.961 31.3564 149.796 37.1053 150.476C39.5679 150.769 42.0413 150.99 44.504 151.278C45.2229 151.362 45.8131 151.195 46.4354 150.859C51.2266 148.273 56.0312 145.718 60.8358 143.155C61.4126 142.847 61.9866 142.385 62.7351 143.047C60.3154 144.341 57.9439 145.605 55.5752 146.871C52.3024 148.62 49.0322 150.369 45.7648 152.125C45.1639 152.449 44.5844 152.654 43.8413 152.595C34.4012 151.845 25.1273 150.204 15.9608 147.96C15.4457 147.834 14.9387 147.675 14.4344 147.513C14.3673 147.492 14.3351 147.367 14.2627 147.254C20.9263 145.387 27.0052 142.246 33.2155 139.393C33.8405 139.105 34.4253 138.776 35.1979 139.347C34.8277 139.588 34.5165 139.85 34.1571 140.012C30.8199 141.527 27.4854 143.05 24.124 144.516C22.6218 145.171 21.0578 145.695 19.5341 146.308C19.2524 146.419 19.0351 146.676 18.5629 147.038Z" fill="#78A2D3"/>
<path d="M69.5251 138.315C74.7562 135.628 79.9042 132.991 85.0414 130.333C85.7953 129.943 86.4874 129.45 87.15 129.039C87.0615 128.284 86.5571 128.315 86.144 128.274C84.4969 128.107 82.8444 127.955 81.1946 127.809C75.0299 127.267 68.8652 126.73 62.7005 126.193C62.0218 126.134 61.3324 126.137 60.6617 126.026C59.6933 125.867 58.867 126.091 58.022 126.561C53.0967 129.296 48.1499 131.997 43.2059 134.701C42.9 134.868 42.562 134.976 42.1328 134.904C42.9671 134.437 43.8068 133.975 44.6384 133.505C49.0406 131.019 53.4481 128.541 57.8396 126.037C58.4915 125.664 59.1058 125.472 59.8945 125.544C65.0827 126.011 70.2763 126.432 75.4698 126.859C79.4991 127.19 83.5311 127.501 87.5604 127.827C88.4618 127.899 89.3605 128.001 90.5972 128.122C90.0365 128.438 89.7655 128.6 89.4866 128.749C83.5767 131.907 77.6615 135.056 71.7651 138.235C71.0301 138.636 70.3701 138.792 69.5251 138.315Z" fill="#78A2D3"/>
<path d="M70.1396 150.021C70.5554 152.347 70.9014 154.412 71.3011 156.464C71.4353 157.152 71.2797 157.591 70.6278 157.961C69.139 158.806 67.6876 159.715 66.0566 160.698C65.6623 157.994 65.2947 155.488 64.9111 152.866C66.5851 151.957 68.251 151.05 70.1396 150.021Z" fill="#D52B1E"/>
<path d="M12.4258 157.539C12.8577 159.329 12.8523 159.362 14.5289 159.586C19.0545 160.187 23.5855 160.759 28.1138 161.34C32.7386 161.93 37.3662 162.516 42.101 163.117C41.6825 163.818 41.1138 163.923 40.4136 163.82C37.0979 163.33 33.7795 162.85 30.4611 162.37C24.2588 161.473 18.0539 160.582 11.8517 159.686C11.2266 159.596 10.6069 159.486 9.72168 159.342C10.6955 158.692 11.4976 158.158 12.4258 157.539Z" fill="#78A2D3"/>
<path d="M15.1777 149.319C15.6338 149.35 16.1596 149.384 16.6827 149.417C16.672 149.484 16.6612 149.55 16.6532 149.617C16.1381 149.512 15.6231 149.409 15.1777 149.319Z" fill="#78A2D3"/>
<path d="M65.5342 142.008C66.5536 141.219 67.6508 140.803 68.9438 140.333C68.1497 141.641 66.7279 142.321 65.5342 142.008Z" fill="black"/>
<path d="M70.7596 133.183C70.2794 132.998 69.7268 132.985 69.2171 132.903C69.1876 130.869 68.474 130.202 66.4057 130.179C65.0885 130.163 63.9591 130.705 62.827 131.249C61.5501 131.861 59.7045 131.771 58.2827 130.985C58.7494 130.838 59.1518 130.669 59.573 130.589C60.19 130.469 60.8338 130.451 61.4428 130.307C61.6601 130.256 61.9579 129.955 61.9552 129.77C61.9525 129.583 61.6574 129.318 61.4321 129.236C61.1772 129.146 60.858 129.21 60.5656 129.231C59.1331 129.328 57.8105 129.755 56.5873 130.476C56.3083 130.641 55.9998 130.808 55.6859 130.851C55.1038 130.931 54.3017 130.394 53.9824 131.142C53.6337 131.956 54.5377 131.912 55.0152 132.13C55.0528 132.148 55.0769 132.194 55.1091 132.228C55.4632 134.657 56.5819 135.333 59.0338 134.524C59.8547 134.254 60.6085 133.807 61.416 133.491C61.7996 133.342 62.2476 133.204 62.6446 133.247C63.7847 133.371 64.9168 133.586 66.3466 133.812C65.1502 134.688 64.171 135.235 62.9075 135.096C62.4729 135.05 62.0679 135.235 62.1242 135.69C62.1537 135.936 62.4729 136.252 62.7358 136.344C63.0819 136.468 63.5379 136.506 63.8786 136.393C64.788 136.093 65.7994 135.851 66.521 135.294C67.7067 134.377 68.8683 133.871 70.3599 134.416C70.4028 134.431 70.4672 134.449 70.502 134.431C70.8132 134.269 71.119 134.102 71.4275 133.936C71.2103 133.676 71.0439 133.291 70.7596 133.183ZM56.5846 132.364C57.3116 132.451 58.0171 132.523 58.7226 132.623C58.9533 132.657 59.1733 132.757 59.4469 132.839C57.5262 133.892 56.7831 133.779 56.5846 132.364ZM64.1925 132.143C65.5821 131.439 66.69 131.116 67.8704 131.961C67.3795 132.623 67.3795 132.623 64.1925 132.143Z" fill="black"/>
<path d="M49.2688 145.446C49.1535 145.336 48.9228 145.334 48.7699 145.29C48.558 143.687 48.0509 143.086 46.4601 142.825C45.7653 142.709 45.0008 142.753 44.3087 142.902C43.461 143.084 42.6642 143.467 41.8353 143.734C41.4275 143.865 40.9849 144.037 40.5798 143.993C39.5255 143.877 38.482 143.654 37.4331 143.474C37.4358 143.397 37.4385 143.32 37.4438 143.241C38.0125 143.128 38.5786 143.002 39.15 142.902C39.6409 142.817 40.223 142.755 40.1238 142.123C40.0326 141.546 39.4799 141.671 39.0561 141.746C38.2915 141.879 37.5136 141.985 36.7812 142.216C35.6545 142.573 34.6405 143.328 33.326 142.922C33.1624 142.871 32.7439 143.138 32.6849 143.328C32.6285 143.513 32.819 143.859 33.0094 144.001C33.2562 144.188 33.613 144.245 33.8947 144.347C34.0315 145.919 34.5949 146.561 36.1696 146.502C37.4626 146.453 38.761 146.155 40.0192 145.829C41.3551 145.482 44.035 145.644 45.4729 146.35C45.1805 146.494 44.9391 146.656 44.6708 146.731C44.0646 146.9 43.4315 146.985 42.8413 147.185C42.6133 147.262 42.2806 147.614 42.3235 147.745C42.4067 148.004 42.6803 148.279 42.9459 148.389C43.1793 148.484 43.528 148.415 43.7909 148.325C44.7513 147.999 45.7439 147.719 46.6345 147.262C47.4071 146.864 48.0697 146.358 49.0435 146.612C49.242 146.664 49.5532 146.325 49.8107 146.168C49.6337 145.922 49.4861 145.652 49.2688 145.446ZM35.0268 144.869C36.2045 144.311 37.0656 144.897 37.9589 144.995C37.0549 145.231 36.1428 145.472 35.0268 144.869ZM43.6943 144.499C45.1215 143.895 46.2455 143.718 47.5144 144.848C46.1436 145.087 45.0786 144.684 43.6943 144.499Z" fill="black"/>
<path d="M188.885 179.419C186.349 185.166 154.042 178.6 147.497 177.814C123.898 173.932 100.245 169.921 77.075 163.944C75.1 163.384 73.0924 162.901 71.1652 162.18C70.3806 161.866 69.5557 161.498 69.1653 160.859C68.6792 160.136 68.618 158.762 69.5672 158.442C69.8792 158.327 70.3002 158.31 70.6619 158.31C75.7622 158.31 80.8644 158.31 85.9646 158.31C86.6459 158.283 87.9339 158.429 86.8029 159.152C86.1694 159.55 85.1857 159.768 84.403 159.895C84.003 159.962 83.6068 160.015 83.2566 160.155C83.0729 160.239 83.092 160.325 83.2834 160.406C83.6489 160.549 84.1121 160.599 84.514 160.653C85.1532 160.729 85.7637 160.922 86.3799 161.1C87.5282 161.439 89.0879 161.665 87.2067 161.9C85.8804 162.057 84.3876 161.761 83.0997 161.724C82.5006 161.755 82.1255 162.006 82.3801 162.352C82.8145 162.846 83.6049 162.945 84.1924 163.215C85.113 163.609 85.6756 164.21 86.5943 164.497C87.7559 164.842 88.9731 165.001 90.1463 165.295C93.1739 165.979 96.3087 166.658 99.3956 166.89C100.379 166.861 101.239 166.446 102.308 166.589C111.803 168.348 121.368 169.829 130.719 171.814C134.782 172.484 138.914 172.581 142.959 173.287C144.362 173.54 145.799 173.605 147.185 173.938C148.104 174.162 149.005 174.466 149.941 174.648C152.347 175.094 154.794 175.284 157.215 175.617C160.067 176.007 162.974 176.116 165.795 176.671C166.664 176.954 166.754 177.758 167.519 178.037C171.618 178.652 175.748 179.079 179.842 179.655C180.129 179.676 180.414 179.674 180.673 179.634C181.009 179.584 181.272 179.473 181.373 179.335C181.534 179.13 181.335 178.883 180.904 178.7C170.244 175.349 159.242 173.806 148.439 171.263C147.64 170.777 148.837 170.683 149.321 170.763C157.634 172.323 165.89 174.223 174.131 176.129C177.779 177.046 181.427 178.707 185.245 178.629C186.031 178.525 186.062 177.682 186.902 177.752C187.794 177.858 188.8 178.506 188.885 179.396V179.419Z" fill="#B2B2B2"/>
<path d="M195.955 151.087C196.092 119.744 195.86 88.2324 195.964 56.8624C195.894 56.2745 195.415 56.1461 194.852 56.047C194.181 55.9299 183.806 54.6189 180.323 54.0739C181.701 46.5619 181.293 38.1693 176.95 31.6709L176.912 31.6552C174.145 27.0579 167.89 24.8482 163.225 27.9904L163.209 28.0264C155.882 32.6755 153.183 42.1358 152.775 50.4136C149.819 50.0104 146.924 49.6162 143.999 49.2176C147.937 33.1508 135.011 10.214 121.103 30.2924C121.115 30.333 121.099 30.36 121.058 30.3735C118.444 34.8672 117.066 40.1086 116.839 45.2848C116.65 45.519 116.402 45.4109 116.186 45.3749C113.975 45.0032 111.737 44.769 109.524 44.4671C110.28 37.4778 110.35 29.718 106.397 23.4585L106.36 23.4427C101.95 15.4825 92.2255 16.7326 87.835 24.0869L87.7945 24.1049C84.5951 28.7067 83.0461 34.3716 82.634 39.9307C82.589 40.6627 82.5868 40.7371 81.873 40.6244C80.727 40.4442 79.5697 40.3677 78.4237 40.1897C74.0783 39.0477 72.0227 40.3339 68.024 42.1539C67.9227 42.1539 67.8191 42.1516 67.7178 42.1516C67.7178 82.0696 67.7178 121.99 67.7178 161.908C68.3504 162.012 185.472 181.579 185.472 181.579C186.935 181.644 188.462 182.453 189.88 181.923C191.634 181.286 193.397 180.675 195.158 180.061C195.797 179.88 196.009 179.173 195.953 178.583C195.957 169.418 195.957 160.252 195.955 151.087ZM104.379 43.8094C98.8562 43.0391 93.4143 42.28 87.9814 41.5232C88.148 35.2794 89.7736 27.5264 95.5712 24.1545C104.613 21.224 105.795 38.0859 104.379 43.8094ZM138.911 48.5215C133.352 47.758 127.822 47.0011 122.27 46.2376C122.425 40.0748 124.087 32.7228 129.506 29.0986C138.888 25.2086 140.471 42.6111 138.911 48.5215ZM175.113 53.4657C169.488 52.6999 163.914 51.9385 158.292 51.1727C158.391 44.6856 159.998 36.7502 165.866 33.0517C169.313 31.0718 172.816 34.3604 174.003 37.5611C176.106 42.5615 176.157 48.2085 175.113 53.4657Z" fill="black"/>
<path d="M69.0692 43.1045C72.8585 43.5888 76.659 44.0415 80.4145 44.7127C79.3451 45.7894 81.1778 46.0394 81.9771 45.8367C82.2383 45.7872 82.5107 45.7354 82.7426 45.9358C83.4338 51.3102 85.1135 57.0517 89.5624 60.516C90.1186 61.0431 90.2649 61.89 90.7062 62.4959C92.3003 64.8204 95.6888 64.87 97.4202 62.5049C99.9937 59.2839 96.7132 53.9816 92.7168 55.6034C90.2874 55.0853 88.556 49.4339 88.3219 47.1274C88.6821 46.8661 89.0806 46.9652 89.4679 47.0238C93.2347 47.5959 96.9992 48.1905 100.768 48.7379C104.877 49.3325 108.979 49.9722 113.097 50.4903C114.372 50.5534 115.721 51.0286 116.93 50.461C117.571 55.9165 119.192 61.8202 123.707 65.3407C124.625 66.1314 124.645 67.5009 125.681 68.2397C127.201 69.6317 129.684 69.6046 131.206 68.2171C134.847 65.0457 131.481 58.7929 127.061 60.5723C124.546 59.8357 122.912 54.4771 122.601 51.9882C124.747 51.2156 128.039 52.5535 130.398 52.6234C137.929 53.5266 145.452 54.9231 152.994 55.5426C153.737 60.8246 155.525 66.4107 159.909 69.7871C160.449 70.2376 160.591 71.0012 160.951 71.5778C162.626 74.2672 166.357 74.3438 168.154 71.7377C170.772 68.2937 166.96 62.9824 162.903 64.9736C160.49 63.0185 159.296 59.8222 158.785 56.8512C168.554 58.4505 178.695 59.3627 188.51 60.5295C188.618 100.601 188.512 140.681 188.548 180.757C157.745 175.779 126.983 170.625 96.1819 165.636C87.2839 164.188 78.3859 162.73 69.4902 161.264C69.0376 161.19 69.0264 161.178 69.0264 160.649C69.0241 124.233 69.0264 87.8248 69.0264 51.4093C69.0354 51.407 69.2043 44.3163 69.0692 43.1045Z" fill="#EDF5FD"/>
<path d="M194.626 57.7793C194.626 97.9631 194.619 138.145 194.626 178.326C194.691 179.392 190.695 179.989 189.695 180.588C189.614 140.431 189.693 100.274 189.668 60.1173C189.668 59.588 189.67 59.588 190.136 59.4146C191.658 58.8717 193.077 58.2838 194.626 57.7793Z" fill="#AFC0D4"/>
<path d="M179.238 53.4163C179.231 53.5739 179.224 53.7293 179.218 53.8735C178.846 53.9704 177.146 53.7766 176.306 53.5537C177.108 48.4 177.259 42.9378 175.379 37.9667C174.086 33.714 169.484 29.3285 164.997 32.2432C156.115 38.1739 154.253 57.9324 161.775 65.4894C163.218 66.8116 164.889 67.3973 166.827 67.1495C167.994 66.8612 168.352 70.2804 167.264 70.3998C163.308 71.2309 159.539 68.8478 157.515 65.5435C152.184 56.6463 152.99 44.8276 157.63 35.8043C161.212 28.4883 170.124 23.8956 175.665 31.9751C175.417 32.1531 175.253 31.9639 175.113 31.8197C174.237 30.9165 173.206 30.2227 172.094 29.6641C169.757 28.3644 165.591 27.8328 164.135 30.5876C171.808 27.2157 178.067 35.052 178.596 42.1742C179.123 45.8976 178.902 49.6952 179.238 53.4163Z" fill="#212492"/>
<path d="M142.275 48.9431C141.699 48.7179 140.156 49.085 140.077 48.3417C140.636 44.5125 140.719 40.5505 139.882 36.7551C136.5 22.1659 125.488 26.0086 122.324 38.316C120.46 45.6928 120.107 54.8288 125.362 60.9217C128.156 63.9512 131.022 62.1808 131.335 63.2305C131.666 64.0323 132.105 65.7037 131.053 66.055C128.367 66.5348 125.603 65.7532 123.639 63.8409C119.989 60.4149 118.567 55.3243 118.037 50.4861C117.357 42.8254 118.985 34.64 123.727 28.457C128.435 22.0961 136.471 21.9835 140.222 29.2814C139.796 29.6125 137.828 26.5987 136.993 26.2068C134.005 23.5219 128.919 24.0107 126.866 27.4704C133.165 22.925 139.589 27.5538 141.419 34.2053C142.633 38.9873 143.076 44.0981 142.275 48.9431Z" fill="#212492"/>
<path d="M108.128 44.2618C107.253 44.2438 106.397 44.0793 105.49 43.9194C106.246 38.8243 106.264 33.5131 104.337 28.6658C102.777 23.9942 97.7782 20.3632 93.4193 24.2172C85.8317 30.925 84.035 49.3343 91.6451 56.5242C94.052 58.7586 96.6254 57.2787 96.9181 58.2518C97.2671 59.0604 97.6972 60.8196 96.5579 61.0719C83.9652 62.2634 82.2991 43.4757 84.5438 34.5582C86.0523 25.5146 95.9117 12.2949 104.463 22.7936C104.089 23.0594 101.966 20.9286 101.113 20.6966C96.6389 18.2819 90.9876 21.325 89.7381 25.8682C102.324 10.9254 110.711 32.8508 108.128 44.2618Z" fill="#212492"/>
<path d="M192.868 57.1664C191.416 57.5967 189.919 58.6913 188.381 58.3625C184.056 57.7431 179.731 57.1146 175.397 56.5583C169.871 55.8127 164.348 55.0581 158.823 54.3013C157.909 54.2765 158.474 52.9791 158.328 52.3169C169.84 53.9004 181.338 55.4816 192.835 57.0628C192.846 57.0966 192.857 57.1326 192.868 57.1664Z" fill="#AFC0D4"/>
<path d="M152.859 53.4764C142.601 52.0867 132.44 50.6744 122.252 49.2801C122.222 48.6134 122.195 48.03 122.166 47.3745C128.999 48.2282 135.767 49.2733 142.589 50.1653C145.811 50.6 149.036 51.0415 152.257 51.4785C153.181 51.4898 152.674 52.7646 152.859 53.4764Z" fill="#AFC0D4"/>
<path d="M87.957 44.5097C87.957 43.8993 87.957 43.3339 87.957 42.71C94.8106 43.5659 101.644 44.5592 108.486 45.4985C111.105 45.8589 113.728 46.2058 116.346 46.5594C117.186 46.5481 116.657 47.8951 116.797 48.5281C107.18 47.1923 97.5845 45.931 87.957 44.5097Z" fill="#AFC0D4"/>
<path d="M179.238 53.4155C179.058 53.2916 178.964 53.17 179 52.9447C178.961 49.3363 178.842 45.7323 178.448 42.1419C177.948 35.6684 172.389 27.8974 165.157 30.3999C163.156 31.6567 163.869 29.9471 165.047 29.3142C168.424 27.1879 172.727 29.2984 175.303 31.8009C180.245 36.9455 180.368 46.7122 179.238 53.4155Z" fill="#BCBDDE"/>
<path d="M108.128 44.2623C110.098 35.2862 104.235 13.5545 92.1039 23.5622C91.442 24.256 88.6164 28.1347 89.9425 24.7335C93.4841 18.5798 99.3808 18.3365 104.462 22.7964C106.836 25.6007 108.256 31.1192 108.63 33.8469C108.691 34.1645 109.132 41.3318 108.128 44.2623Z" fill="#BCBDDE"/>
<path d="M142.275 48.9428C142.687 42.9513 142.804 36.4326 139.908 30.9795C137.065 26.0038 131.602 23.963 126.841 27.7539C125.737 27.0039 130.375 24.2649 131.22 24.4045C135.453 23.677 137.661 26.6975 140.221 29.2811C141.174 30.8173 141.829 32.4796 142.331 34.2072C143.61 38.9486 143.893 44.1901 142.815 48.9811C142.669 48.9743 142.522 48.9698 142.376 48.9631C142.338 48.9991 142.308 48.9924 142.288 48.9428H142.275Z" fill="#BCBDDE"/>
<path d="M153.001 55.5421C151.166 55.6097 142.502 54.3979 139.6 54.0397C135.543 53.4406 122.572 51.9832 122.572 51.9832C122.572 51.9832 122.403 50.9944 122.362 50.4155C122.887 50.4989 152.033 54.4857 152.809 54.6569C153.109 54.9002 152.94 55.247 153.001 55.5421Z" fill="white"/>
<path d="M71.0664 42.0838C72.4556 41.6558 73.7772 40.6106 75.279 40.9057C77.5283 41.2954 79.7955 41.5724 82.056 41.8991C83.0017 41.8833 82.4681 43.0568 82.6009 43.665C79.7077 43.6852 74.3784 42.5658 71.0979 42.2324C71.0889 42.1829 71.0777 42.1333 71.0664 42.0838Z" fill="#AFC0D4"/>
<path d="M82.7448 45.9355C81.8982 45.9805 80.7027 46.217 80.007 45.735C79.9439 45.2733 79.8111 44.825 80.4167 44.7124C81.0764 44.8025 81.7294 44.8903 82.3981 44.9534C82.8844 44.994 82.6885 45.6021 82.7448 45.9355Z" fill="white"/>
<path d="M116.848 49.8323C116.848 49.6881 116.614 49.6431 116.45 49.6566C115.362 49.5012 107.658 48.4448 106.363 48.2668H106.365C105.618 48.17 104.875 48.0348 104.125 47.9515C104.125 47.9515 100.959 47.5505 99.4171 47.3118C99.4261 47.3118 99.4351 47.3095 99.4441 47.3095C98.9173 47.2217 98.3859 47.1609 97.8568 47.0865C97.5708 47.0482 97.2827 47.028 97.0012 46.9649C95.9948 46.8162 91.3904 46.2283 91.3995 46.2374C91.1383 46.19 90.8816 46.1473 90.6204 46.1157C89.8054 45.9423 88.9813 45.8634 88.0537 45.7373C88.1573 46.2711 88.2406 46.7013 88.3239 47.1316C95.2045 47.8771 102.045 49.2286 108.927 50.08C110.42 50.0981 116.267 51.605 116.932 50.463C116.905 50.2512 116.875 50.0417 116.848 49.8323Z" fill="white"/>
<path d="M152.813 54.6572C152.716 54.6369 152.621 54.6189 152.524 54.5986C152.621 54.6167 152.716 54.6369 152.813 54.6572Z" fill="#AFC0D4"/>
<path d="M142.289 48.9443C142.325 48.9195 142.354 48.9263 142.377 48.9646C142.348 48.9578 142.318 48.951 142.289 48.9443Z" fill="#6A6969"/>
<path d="M188.186 59.4885C186.837 59.3466 163.284 56.0873 163.11 56.067C163.11 56.067 159.116 55.5061 159.006 55.5354C159.013 55.5264 158.74 55.4521 158.504 55.4048C158.562 55.6706 158.598 55.835 158.637 55.9994C158.657 55.9724 158.709 56.5716 158.794 56.8509C168.584 58.797 178.608 59.6146 188.519 60.5291C188.505 60.1507 188.76 59.52 188.186 59.4885Z" fill="white"/>
<path d="M81.18 44.8225C81.1237 44.809 81.0651 44.7977 81.0088 44.7842C81.0651 44.7977 81.1214 44.809 81.18 44.8225Z" fill="#AFC0D4"/>
<path d="M94.2218 67.9486C94.967 67.9804 95.563 68.413 96.0014 68.9302L96.2402 69.2114L96.2843 69.5776C96.7712 73.6062 96.782 77.7122 96.7129 81.7699C96.6468 85.6556 96.5094 89.4732 96.6248 93.2426C97.1904 93.3267 97.7565 93.411 98.3243 93.4942C99.081 93.6051 99.8408 93.7166 100.6 93.8308H100.599C107.584 94.8346 114.27 95.9575 121.182 96.9525C121.233 93.4386 121.225 89.921 121.212 86.3925C121.197 82.4018 121.176 78.3952 121.23 74.3877L121.231 74.338L121.236 74.2883C121.33 73.2914 122.085 72.4296 123.021 72.1978L123.06 72.1882L123.099 72.1818C123.716 72.0708 124.323 72.1726 124.833 72.5255C125.31 72.8555 125.582 73.321 125.739 73.7202C126.035 74.4721 126.062 75.3377 126.031 75.9117C126.035 83.1744 126.031 90.4406 126.033 97.7017C129.882 98.2753 133.739 98.8447 137.591 99.4213H137.59C141.983 100.074 146.344 100.743 150.726 101.392C150.734 93.7786 150.698 86.137 150.741 78.5143L150.742 78.4766L150.744 78.439C150.793 77.7153 151.099 77.0768 151.644 76.6521C152.169 76.2431 152.806 76.1172 153.377 76.1866C154.512 76.3246 155.604 77.2753 155.576 78.7619L155.62 81.7499C155.693 88.5374 155.601 95.354 155.63 102.096C157.182 102.339 158.734 102.578 160.288 102.813L165.516 103.595L165.53 103.597C169.325 104.208 173.372 104.654 177.274 105.391L178.052 105.542L178.077 105.548L178.103 105.553C178.809 105.726 179.295 106.202 179.585 106.682C179.874 107.159 180.021 107.716 180.032 108.247C180.043 108.767 179.924 109.388 179.527 109.904C179.088 110.474 178.412 110.777 177.643 110.733L177.582 110.73L177.522 110.72C170.299 109.581 163.063 108.504 155.825 107.428C155.494 111.446 155.499 115.702 155.566 120.047C155.637 124.616 155.777 129.297 155.65 133.803C155.814 133.836 156.021 133.87 156.272 133.899C156.733 133.952 157.097 133.975 157.585 134.026C157.918 134.061 158.364 134.112 158.737 134.23L173.981 136.617L174.015 136.622L174.048 136.629C174.428 136.711 174.938 136.758 175.64 136.847C176.282 136.927 177.05 137.04 177.735 137.258C178.385 137.464 179.218 137.843 179.693 138.634C180.225 139.518 180.097 140.524 179.645 141.464L179.557 141.644L179.419 141.787C178.508 142.726 177.293 142.511 176.692 142.377C176.516 142.338 176.344 142.294 176.193 142.254C176.034 142.213 175.901 142.177 175.771 142.147C175.499 142.083 175.356 142.07 175.282 142.075L175.149 142.084L175.017 142.064C169.857 141.277 164.701 140.449 159.552 139.634C158.245 139.43 156.936 139.23 155.627 139.032C155.571 147.86 155.768 156.845 155.549 165.72L155.545 165.855L155.512 165.985C155.339 166.685 154.883 167.321 154.095 167.53C153.417 167.709 152.787 167.485 152.373 167.252C151.933 167.004 151.536 166.638 151.249 166.222C150.982 165.835 150.731 165.288 150.756 164.665C150.67 155.868 150.75 147.035 150.723 138.263C149.171 138.021 147.617 137.774 146.075 137.531H146.074C139.463 136.483 132.851 135.431 126.243 134.362C125.853 138.252 125.877 142.439 125.964 146.743C126.059 151.487 126.231 156.383 125.971 161.021L125.968 161.072L125.961 161.122C125.883 161.681 125.614 162.348 124.948 162.714C124.28 163.081 123.571 162.948 123.056 162.708V162.707C122.047 162.238 121.329 161.357 121.253 160.12L121.251 160.091L121.251 160.061C121.13 151.24 121.241 142.366 121.203 133.577C113.014 132.296 104.829 131.01 96.6392 129.737C96.6392 138.205 96.6398 146.671 96.6376 155.139C96.652 155.559 96.6626 156.374 96.4052 157.041C96.2635 157.409 95.9659 157.928 95.3524 158.189C94.7454 158.446 94.1378 158.321 93.6561 158.104V158.105C93.6517 158.103 93.6476 158.1 93.6432 158.098C93.6319 158.093 93.62 158.089 93.6088 158.084V158.082C92.4861 157.589 92.0484 156.64 91.8916 155.807C91.7551 155.083 91.7993 154.167 91.7883 153.758L91.7875 153.741V153.724C91.7875 149.43 91.7877 145.137 91.7883 140.844C91.7888 136.892 91.789 132.94 91.7891 128.986C88.3301 128.355 84.9139 127.929 81.346 127.339L81.2611 127.325L81.1785 127.299C80.8447 127.195 80.3097 127.134 79.5351 127.059C78.8295 126.991 77.9619 126.912 77.1842 126.734C76.4411 126.563 75.5144 126.248 74.8997 125.517C74.192 124.675 74.1386 123.601 74.5183 122.502L74.5568 122.392L74.6144 122.291C74.7527 122.05 74.9769 121.759 75.338 121.56C75.7146 121.352 76.1159 121.313 76.4806 121.367L76.4814 121.366C81.6304 122.119 86.6527 122.987 91.7354 123.706C91.7467 122.94 91.7577 121.888 91.7666 120.64C91.7852 118.037 91.7979 114.591 91.8035 111.128C91.8091 107.665 91.808 104.187 91.7979 101.519C91.7928 100.185 91.7857 99.0555 91.7763 98.233C91.7744 98.0723 91.7703 97.9238 91.7682 97.7883C88.9544 97.2868 86.1546 96.9454 83.233 96.4718C81.2083 96.1684 79.1835 95.8767 77.1505 95.5791C75.2536 95.4731 73.6629 93.5126 74.4734 91.5118C74.6709 90.8722 75.2064 90.5826 75.5359 90.4678C75.8897 90.3446 76.2732 90.3162 76.588 90.3131C77.2375 90.3069 78.032 90.412 78.7707 90.5327C79.5149 90.6542 80.3141 90.8112 80.9333 90.9229C81.2534 90.9807 81.5283 91.0273 81.7514 91.0575C81.8624 91.0726 81.9523 91.0825 82.0223 91.088C82.0567 91.0907 82.0831 91.0922 82.1024 91.0928C82.1186 91.0933 82.1269 91.0928 82.128 91.0928L82.2346 91.088L82.3412 91.1016C84.1757 91.338 86.01 91.6525 87.7987 91.9413C89.144 92.1585 90.4715 92.3621 91.7923 92.5175V71.5656C91.6324 70.5963 91.8973 69.4685 92.5247 68.7331C92.879 68.3178 93.4571 67.9162 94.2218 67.9486ZM153.18 150.645C153.176 153.436 153.174 156.224 153.183 159.014C153.2 156.225 153.192 153.437 153.18 150.645ZM76.7739 92.7755C76.7865 92.8013 76.8008 92.828 76.8188 92.854C76.9331 93.0188 77.1174 93.1194 77.3027 93.1232L77.3797 93.1248L77.4558 93.136C79.4988 93.4351 81.5506 93.7308 83.5976 94.0375L83.6056 94.0391L83.6128 94.0399C86.7087 94.5422 90.0327 94.9383 93.2033 95.5487L94.0791 95.7178L94.1921 96.6016C94.2093 96.7363 94.2157 96.9726 94.221 97.1905C94.2271 97.446 94.2322 97.7894 94.237 98.2049C94.2466 99.0368 94.2544 100.173 94.2594 101.509C94.2696 104.183 94.2707 107.666 94.265 111.132C94.2594 114.598 94.2468 118.048 94.2282 120.658C94.2189 121.962 94.2082 123.059 94.1961 123.843C94.1901 124.234 94.1838 124.552 94.1769 124.781C94.1735 124.894 94.17 124.993 94.1657 125.071C94.1636 125.109 94.1607 125.152 94.1569 125.193C94.155 125.213 94.1519 125.242 94.1472 125.275C94.1446 125.294 94.1337 125.373 94.1056 125.468L93.8043 126.477L92.761 126.335C87.4495 125.616 82.0362 124.68 76.7611 123.896C76.7673 123.912 76.7754 123.922 76.7843 123.932C76.86 124.022 77.1096 124.191 77.7346 124.335C78.325 124.47 79.0179 124.536 79.7723 124.609C80.419 124.671 81.1893 124.745 81.8051 124.92C85.5331 125.534 89.4527 126.015 93.2554 126.755L94.2514 126.948V127.963C94.2514 128.034 94.2506 128.104 94.2506 128.175C94.3028 127.981 94.4205 127.682 94.7137 127.44C95.0597 127.155 95.4376 127.123 95.6176 127.12C95.7974 127.117 95.9735 127.142 96.0791 127.158L96.0823 127.159C104.67 128.493 113.255 129.842 121.839 131.184H121.838C122.077 131.22 122.342 131.266 122.575 131.347C122.822 131.432 123.21 131.615 123.461 132.043C123.683 132.422 123.678 132.808 123.677 132.936C123.676 133.016 123.672 133.106 123.67 133.162C123.667 133.227 123.665 133.287 123.665 133.351C123.668 134.073 123.669 134.796 123.67 135.517C123.74 134.595 123.829 133.683 123.942 132.787L124.102 131.522L125.36 131.726C132.389 132.865 139.422 133.984 146.457 135.099H146.458C148.218 135.376 149.963 135.658 151.715 135.928C152.009 135.963 152.334 136.07 152.617 136.314C152.918 136.574 153.057 136.892 153.121 137.136C153.181 137.366 153.188 137.578 153.189 137.702C153.189 137.72 153.188 137.738 153.188 137.755C153.192 137.722 153.195 137.688 153.201 137.654C153.229 137.482 153.312 137.114 153.635 136.808C153.975 136.487 154.368 136.432 154.574 136.424C154.77 136.415 154.959 136.442 155.069 136.458L155.07 136.459C156.691 136.702 158.313 136.951 159.932 137.203H159.934C165.054 138.013 170.163 138.832 175.277 139.613C175.671 139.609 176.045 139.683 176.332 139.75C176.501 139.79 176.671 139.835 176.816 139.873C176.969 139.913 177.1 139.946 177.226 139.974C177.377 140.008 177.485 140.024 177.561 140.031C177.577 139.961 177.577 139.917 177.575 139.893C177.561 139.878 177.531 139.849 177.469 139.811C177.366 139.746 177.21 139.674 176.989 139.604C176.537 139.46 175.967 139.369 175.333 139.29C174.782 139.221 174.111 139.151 173.601 139.049V139.049C168.483 138.25 163.366 137.447 158.248 136.646L158.112 136.625L157.984 136.574C157.975 136.572 157.925 136.557 157.812 136.537C157.685 136.515 157.526 136.495 157.33 136.475C156.994 136.44 156.419 136.393 155.988 136.343C155.534 136.291 154.994 136.211 154.539 136.051C154.311 135.971 154.024 135.844 153.77 135.629C153.496 135.397 153.225 135.03 153.176 134.524L153.169 134.444L153.171 134.363C153.328 129.741 153.18 124.926 153.105 120.085C153.03 115.268 153.028 110.44 153.494 105.894L153.625 104.613L154.899 104.802C162.451 105.925 170.014 107.047 177.565 108.235C177.553 108.127 177.521 108.024 177.48 107.957C177.474 107.947 177.468 107.941 177.464 107.935C173.398 107.126 169.367 106.707 165.153 106.029V106.029C161.667 105.511 158.175 104.99 154.686 104.44V104.44C154.584 104.424 154.414 104.397 154.249 104.345C154.068 104.288 153.781 104.166 153.542 103.885C153.308 103.609 153.235 103.312 153.206 103.136C153.178 102.972 153.174 102.803 153.171 102.699L153.17 102.686V102.674C153.17 102.654 153.17 102.633 153.17 102.612C153.16 102.695 153.147 102.788 153.123 102.883C153.075 103.073 152.963 103.382 152.673 103.638C152.376 103.899 152.045 103.971 151.831 103.989C151.632 104.007 151.449 103.986 151.335 103.971L151.327 103.97L151.32 103.969C146.626 103.278 141.911 102.552 137.228 101.856H137.226C133.238 101.259 129.256 100.671 125.265 100.076H125.263C125.123 100.055 124.922 100.025 124.738 99.9702C124.541 99.9119 124.218 99.786 123.956 99.4758C123.731 99.2109 123.649 98.9248 123.613 98.7242L123.593 99.7827L122.218 99.5887C114.955 98.5673 107.462 97.3034 100.242 96.2658L100.234 96.265C99.48 96.1517 98.7251 96.0411 97.9677 95.9301C97.2125 95.8194 96.4546 95.7075 95.6969 95.5936V95.5944C95.5928 95.5791 95.4261 95.5531 95.2618 95.5014C95.0834 95.4453 94.806 95.3287 94.5711 95.0615C94.3872 94.8523 94.2992 94.6296 94.2538 94.4582V95.229L92.9133 95.1088C91.0569 94.9425 89.2148 94.6628 87.4061 94.3708C85.6096 94.0808 83.8578 93.7814 82.0984 93.5527C81.6494 93.5477 81.0325 93.4418 80.4966 93.3452C79.8183 93.2228 79.0952 93.0799 78.3741 92.9622C77.7358 92.8579 77.1841 92.788 76.7739 92.7755ZM153.183 90.4261C153.187 88.862 153.188 87.2988 153.183 85.7354C153.182 87.2989 153.182 88.8623 153.183 90.4261Z" fill="black"/>
<path d="M93.0213 127.963C89.2095 127.222 85.3752 126.758 81.5476 126.125C79.6158 125.519 74.5342 126.229 75.6824 122.904C75.8198 122.666 76.0066 122.54 76.3038 122.585C81.8448 123.395 87.3903 124.366 92.9268 125.116C93.0416 124.731 93.0866 97.6589 92.9718 96.7579C89.8129 96.1497 86.5955 95.7713 83.4164 95.2555C81.372 94.9492 79.3254 94.6541 77.2788 94.3545C76.0584 94.3297 75.1218 93.0638 75.6419 91.9061C75.8693 90.8767 81.05 92.3746 82.1848 92.3228C85.803 92.789 89.4031 93.5594 93.0236 93.8837C93.0236 86.4056 93.0236 78.9342 93.0236 71.456C92.7399 70.1293 93.7958 68.2305 95.0634 69.7261C96.0158 77.6052 95.113 85.8627 95.4147 93.8635C95.4304 94.2689 95.462 94.3162 95.8762 94.377C97.3893 94.6045 98.9045 94.8208 100.418 95.0483C107.753 96.1024 115.055 97.339 122.39 98.3706C122.545 90.3834 122.354 82.394 122.462 74.4045C122.507 73.927 122.89 73.499 123.318 73.3931C124.682 73.1476 124.864 74.882 124.801 75.8889C124.806 83.2927 124.801 90.6965 124.804 98.1003C124.804 98.7288 124.835 98.7671 125.448 98.8594C129.435 99.4541 133.422 100.042 137.41 100.639C142.107 101.337 146.801 102.06 151.5 102.752C151.869 102.801 151.939 102.736 151.957 102.353C151.97 94.4086 151.928 86.4641 151.973 78.522C152.085 76.8394 154.42 77.148 154.346 78.7855C154.497 86.7435 154.359 94.7081 154.402 102.668C154.413 103.117 154.445 103.157 154.877 103.225C158.36 103.774 161.848 104.295 165.335 104.813C169.487 105.482 173.688 105.923 177.811 106.75C179.045 107.052 179.254 109.592 177.714 109.505C170.057 108.297 162.386 107.16 154.72 106.02C153.803 114.955 154.72 125.08 154.402 134.405C154.488 135.288 157.581 135.09 158.439 135.43C163.557 136.232 168.674 137.034 173.792 137.834C175.584 138.217 179.941 138.012 178.536 140.931C177.728 141.764 176.251 140.78 175.204 140.847C170.048 140.061 164.896 139.235 159.743 138.419C158.126 138.167 156.507 137.919 154.888 137.676C154.452 137.611 154.402 137.66 154.402 138.133C154.326 147.314 154.546 156.516 154.319 165.69C153.936 167.237 151.903 165.787 151.988 164.681C151.901 155.784 151.984 146.884 151.955 137.987C151.955 137.629 152.029 137.189 151.545 137.147C149.784 136.876 148.026 136.593 146.267 136.316C139.231 135.201 132.195 134.081 125.164 132.941C124.065 141.622 125.256 151.797 124.743 160.953C124.648 161.631 124.196 161.881 123.577 161.593C122.926 161.291 122.527 160.779 122.482 160.045C122.361 151.15 122.476 142.248 122.435 133.351C122.435 132.646 122.604 132.545 121.649 132.401C113.064 131.058 104.482 129.709 95.8943 128.376C95.4665 128.31 95.4259 128.351 95.4102 128.768C95.4102 137.559 95.4102 146.348 95.4079 155.139C95.4394 155.993 95.4012 157.567 94.1336 156.971C92.8367 156.425 93.0506 154.889 93.0191 153.725C93.0191 145.136 93.0213 136.554 93.0213 127.963Z" fill="#EDF5FD"/>
<path d="M122.439 115.503C122.439 120.024 122.437 124.547 122.442 129.067C122.442 129.741 122.469 129.84 121.692 129.712C113.089 128.36 104.499 126.93 95.8917 125.605C95.4481 125.536 95.4211 125.504 95.4121 125.056C95.4121 115.978 95.4121 106.899 95.4121 97.8213C95.4121 97.087 95.4144 97.078 96.1213 97.1839C103.45 98.2921 110.781 99.3868 118.114 100.457C118.868 100.738 122.642 100.722 122.437 101.565C122.439 106.207 122.437 110.856 122.439 115.503Z" fill="black"/>
<path d="M151.958 120.026C151.958 124.619 151.958 129.211 151.958 133.804C151.954 134.358 151.9 134.408 151.373 134.327C142.714 132.982 134.056 131.633 125.402 130.263C124.812 130.171 124.803 130.162 124.803 129.538C124.803 120.352 124.803 111.165 124.803 101.979C124.816 101.538 124.888 101.477 125.321 101.542C132.451 102.637 139.593 103.664 146.712 104.826C147.676 105.178 151.861 105.137 151.958 105.975C151.956 110.66 151.958 115.343 151.958 120.026Z" fill="black"/>
<path d="M96.5039 98.3774C104.625 99.5622 112.708 100.808 120.813 102.074C121.336 102.155 121.345 102.157 121.345 102.68C121.309 111.268 121.417 119.855 121.304 128.441C113.012 127.15 104.774 125.869 96.5039 124.583C96.5039 115.857 96.5039 107.169 96.5039 98.3774Z" fill="#EDF5FD"/>
<path d="M150.853 133.119C142.504 131.788 134.25 130.473 125.967 129.153C125.967 120.4 125.967 111.674 125.967 102.95C126.388 102.894 150.177 106.432 150.853 106.653C150.853 115.435 150.853 124.231 150.853 133.119Z" fill="white"/>
<path d="M142.733 117.546C147.729 121.298 144.311 127.968 138.68 128.252C134.6 128.889 129.248 125.625 130.147 121.066C130.75 119.125 133.571 119.012 134.028 121.023C134.593 123.179 137.214 124.114 139.245 123.657C140.249 123.467 141.571 122.524 140.983 121.364C140.317 119.992 138.883 119.663 137.563 119.26C135.026 118.345 135.64 114.336 138.34 114.786C141.821 114.099 139.457 109.95 136.654 110.939C135.87 111.142 135.186 111.532 134.643 112.14C132.34 114.518 129.266 111.313 130.635 109.016C137.325 101.803 149.384 108.182 142.733 117.546Z" fill="black"/>
<path d="M137.717 107.065C142.022 106.901 144.85 111.034 142.972 114.947C142.904 116.129 140.423 116.897 141.475 117.909C150.677 125.709 133.203 131.944 130.994 122.206C130.764 121.143 132.46 119.895 132.944 121.281C133.088 121.787 133.275 122.272 133.59 122.695C135.436 125.677 142.324 125.934 142.157 121.573C141.549 118.109 136.17 119.156 137.174 116.314C137.379 115.992 137.796 115.917 138.163 115.956C140.552 116.055 142.13 112.978 140.513 111.185C136.476 107.162 133.925 112.852 132.201 111.687C129.076 109.005 135.668 107.041 137.717 107.065Z" fill="#D52B1E"/>
<path d="M162.277 117.381C162.511 111.243 160.518 105.148 156.972 100.166C156.981 100.127 156.972 100.096 156.943 100.069C156.238 98.6813 154.876 97.6136 153.93 96.3523L153.901 96.3793L153.928 96.35C149.661 91.6919 143.028 91.1761 141.66 98.4944C137.571 98.0123 133.327 98.3682 129.767 100.591C128.628 101.164 127.507 101.742 126.59 102.646C126.014 103.119 124.442 104.475 123.94 104.916C122.659 106.121 121.358 107.31 120.455 108.847C120.421 108.905 120.322 109.011 120.29 109.094C117.591 112.863 115.11 117.444 114.623 122.125C114.673 122.456 114.52 122.724 114.364 123.003C114.391 122.967 114.416 122.929 114.443 122.893C114.421 122.931 114.396 122.97 114.364 123.003C114.151 124.848 114.079 126.673 114.369 128.495C114.369 128.499 114.47 128.648 114.369 128.495C114.779 130.614 115.447 132.624 116.839 134.326C117.096 134.572 117.429 134.777 117.595 135.072C118.35 136.223 119.611 137.119 120.775 137.662C121.144 138.59 122.2 138.3 122.817 138.858C124.762 139.629 127.095 140.286 129.249 140.257C132.158 140.48 135.123 140.588 137.92 139.818C138.94 139.861 139.876 139.268 140.876 139.205C141.518 139.149 142.092 139.104 142.533 138.59C143.377 138.802 144.328 138.446 144.904 137.815C145.733 137.52 146.572 137.261 147.403 136.971C147.385 136.953 147.385 136.953 147.403 136.971C149.52 135.82 151.683 134.716 153.417 133.043C154.108 132.648 154.86 132.353 155.193 131.533C155.238 131.423 155.401 131.306 155.52 131.292C156.301 131.198 156.362 130.362 156.878 129.999C157.774 129.135 158.595 128.204 159.158 127.08C160.764 125.094 161.18 122.519 162.079 120.186C161.982 119.248 162.135 118.311 162.277 117.381ZM145.314 97.3861C145.316 97.3861 145.316 97.3861 145.318 97.3861C145.316 97.3884 145.314 97.3884 145.314 97.3861ZM156.709 108.664C156.706 108.664 156.709 108.666 156.709 108.664C156.706 108.664 156.706 108.664 156.709 108.664ZM140.201 136.167C140.203 136.169 140.205 136.169 140.207 136.171C140.205 136.171 140.201 136.171 140.198 136.171C140.198 136.169 140.201 136.169 140.201 136.167ZM136.736 100.889C138.312 100.729 139.906 100.591 141.493 100.774C141.689 100.799 141.95 100.857 142.029 100.591C142.096 100.598 142.162 100.603 142.229 100.609C142.18 100.997 142.529 101.006 142.781 101.08C144.803 101.465 146.217 102.797 147.833 103.916C148.425 104.236 149.119 103.596 148.781 102.993C147.799 100.776 145.372 99.4246 143.089 98.7691C143.312 98.4921 143.83 98.6047 143.738 98.1092C143.731 98.1047 143.726 98.1024 143.72 98.0979C144.857 97.9065 145.913 97.3118 147.036 97.2262C149.916 97.9695 151.701 100.832 153.415 103.033C153.933 103.891 154.45 104.749 154.968 105.608H154.971C158.559 112.408 159.809 121.019 153.951 126.925C150.979 130.065 147.255 132.38 143.231 133.923C140.412 134.903 137.623 136.072 134.59 136.045C125.861 137.162 116.553 133.371 117.836 123.186C117.848 123.111 117.787 123.051 117.726 123.017C118.703 121.294 118.476 119.217 119.437 117.442C120.401 115.539 121.065 113.408 122.31 111.653C125.876 106.702 130.607 102.245 136.736 100.889Z" fill="#D52B1E"/>
<path d="M70.7436 175.154C80.9487 175.154 89.2215 173.358 89.2215 171.142C89.2215 168.926 80.9487 167.13 70.7436 167.13C60.5385 167.13 52.2656 168.926 52.2656 171.142C52.2656 173.358 60.5385 175.154 70.7436 175.154Z" fill="#808080"/>
<path d="M73.378 161.865C63.5113 161.865 55.5117 163.526 55.5117 165.576V170.947C55.5117 172.879 63.5113 174.446 73.378 174.446C83.2447 174.446 91.2443 172.879 91.2443 170.947V165.576C91.2443 163.526 83.2447 161.865 73.378 161.865Z" fill="#FFCE24"/>
<path d="M73.3778 169.285C63.7847 169.285 55.9568 167.715 55.5303 165.745H55.5088V170.946C55.5088 172.879 63.5084 174.446 73.3751 174.446C83.2418 174.446 91.2414 172.879 91.2414 170.946V165.745H91.2199C90.7987 167.715 82.9708 169.285 73.3778 169.285Z" fill="#E8A000"/>
<mask id="mask0_2162_21329" style="mask-type:luminance" maskUnits="userSpaceOnUse" x="55" y="165" width="37" height="10">
<path d="M73.3778 169.285C63.7847 169.285 55.9568 167.715 55.5303 165.745H55.5088V170.946C55.5088 172.879 63.5084 174.446 73.3751 174.446C83.2418 174.446 91.2414 172.879 91.2414 170.946V165.745H91.2199C90.7987 167.715 82.9708 169.285 73.3778 169.285Z" fill="white"/>
</mask>
<g mask="url(#mask0_2162_21329)">
<path d="M91.193 174.215V166.795L66.2178 169.436C74.381 172.154 89.5701 168.867 89.5701 168.867L89.8893 174.218L91.193 174.215Z" fill="#E8A000"/>
</g>
<mask id="mask1_2162_21329" style="mask-type:luminance" maskUnits="userSpaceOnUse" x="55" y="165" width="37" height="10">
<path d="M73.3778 169.285C63.7847 169.285 55.9568 167.715 55.5303 165.745H55.5088V170.946C55.5088 172.879 63.5084 174.446 73.3751 174.446C83.2418 174.446 91.2414 172.879 91.2414 170.946V165.745H91.2199C90.7987 167.715 82.9708 169.285 73.3778 169.285Z" fill="white"/>
</mask>
<g mask="url(#mask1_2162_21329)">
<path d="M55.5107 165.745V170.394L70.8125 163.024L55.5107 165.745Z" fill="black"/>
</g>
<path d="M73.3776 163.177C77.2141 163.177 80.6955 163.38 83.2245 163.712C84.486 163.877 85.5275 164.077 86.2613 164.304C86.6252 164.417 86.9383 164.544 87.1684 164.691C87.3755 164.824 87.6387 165.052 87.6387 165.402C87.6387 165.751 87.3755 165.981 87.1684 166.113C86.9383 166.26 86.6253 166.387 86.2613 166.5C85.5275 166.727 84.486 166.926 83.2245 167.091C80.6955 167.423 77.2141 167.626 73.3776 167.626C69.5409 167.626 66.0596 167.423 63.5306 167.091C62.2693 166.926 61.2284 166.727 60.4946 166.5C60.1306 166.387 59.8177 166.26 59.5875 166.113C59.3804 165.981 59.1172 165.751 59.1172 165.402C59.1172 165.052 59.3804 164.823 59.5875 164.691C59.8177 164.544 60.1306 164.417 60.4946 164.304C61.2284 164.077 62.2692 163.877 63.5306 163.712C66.0596 163.38 69.5409 163.177 73.3776 163.177ZM73.3776 163.998C69.565 163.998 66.121 164.2 63.6372 164.526C62.3925 164.689 61.4052 164.881 60.7374 165.087C60.4005 165.192 60.1687 165.293 60.0298 165.382C60.0195 165.388 60.0111 165.396 60.0026 165.402C60.0111 165.407 60.0195 165.415 60.0298 165.422C60.1687 165.511 60.4005 165.611 60.7374 165.716C61.4052 165.923 62.3925 166.114 63.6372 166.277C66.121 166.603 69.565 166.805 73.3776 166.805C77.19 166.805 80.6341 166.603 83.1179 166.277C84.3628 166.114 85.3506 165.923 86.0185 165.716C86.3554 165.611 86.5872 165.511 86.7261 165.422C86.7362 165.415 86.7442 165.407 86.7525 165.402C86.7442 165.396 86.7362 165.388 86.7261 165.382C86.5872 165.293 86.3554 165.192 86.0185 165.087C85.3506 164.881 84.3628 164.689 83.1179 164.526C80.6341 164.2 77.19 163.998 73.3776 163.998Z" fill="black"/>
<path d="M55.1016 170.946V165.576H55.9221V170.946C55.9221 171.035 55.9665 171.171 56.1585 171.355C56.3507 171.539 56.6566 171.736 57.0879 171.936C57.9485 172.334 59.2201 172.704 60.8235 173.018C64.0237 173.645 68.4629 174.036 73.3779 174.036C78.2931 174.036 82.7322 173.645 85.9324 173.018C87.5359 172.704 88.8073 172.334 89.668 171.936C90.0993 171.736 90.4051 171.539 90.5974 171.355C90.7895 171.171 90.8338 171.035 90.8338 170.946V165.576H91.6543V170.946C91.6543 171.34 91.4487 171.676 91.1647 171.948C90.881 172.219 90.485 172.462 90.0125 172.68C89.0649 173.119 87.72 173.504 86.0902 173.824C82.824 174.464 78.3295 174.857 73.3779 174.857C68.4267 174.857 63.9326 174.464 60.6664 173.824C59.0367 173.504 57.691 173.119 56.7434 172.68C56.2709 172.461 55.8748 172.219 55.5911 171.948C55.3072 171.676 55.1016 171.34 55.1016 170.946Z" fill="black"/>
<path d="M90.8348 165.576C90.8348 165.464 90.7821 165.311 90.5904 165.116C90.3973 164.92 90.0905 164.712 89.6601 164.5C88.801 164.078 87.5316 163.686 85.9294 163.354C82.731 162.689 78.2932 162.275 73.3789 162.275C68.4647 162.275 64.0276 162.689 60.8293 163.354C59.2267 163.687 57.9569 164.078 57.0977 164.5C56.6674 164.712 56.3614 164.92 56.1682 165.116C55.9764 165.311 55.9231 165.464 55.923 165.576C55.923 165.689 55.9764 165.842 56.1682 166.036C56.3614 166.232 56.6673 166.442 57.0977 166.653C57.9569 167.075 59.2269 167.466 60.8293 167.799C64.0276 168.464 68.4647 168.878 73.3789 168.878C78.2932 168.878 82.731 168.464 85.9294 167.799C87.5315 167.466 88.801 167.075 89.6601 166.653C90.0905 166.442 90.3973 166.232 90.5904 166.036C90.782 165.842 90.8348 165.689 90.8348 165.576ZM91.6553 165.576C91.6553 165.976 91.4587 166.324 91.1745 166.612C90.8917 166.9 90.4959 167.157 90.0223 167.39C89.0733 167.856 87.7266 168.264 86.096 168.603C82.828 169.282 78.3319 169.698 73.3789 169.698C68.4262 169.698 63.9305 169.282 60.6626 168.603C59.0322 168.264 57.6853 167.856 56.7363 167.39C56.2627 167.157 55.8662 166.9 55.5833 166.612C55.2992 166.324 55.1025 165.976 55.1025 165.576C55.1026 165.177 55.2992 164.829 55.5833 164.54C55.8662 164.253 56.2627 163.997 56.7363 163.764C57.6853 163.298 59.0321 162.889 60.6626 162.55C63.9305 161.871 68.4262 161.455 73.3789 161.455C78.3319 161.455 82.828 161.871 86.096 162.55C87.7266 162.889 89.0733 163.298 90.0223 163.764C90.4958 163.996 90.8917 164.253 91.1745 164.54C91.4587 164.829 91.6553 165.177 91.6553 165.576Z" fill="black"/>
<path d="M71.1271 155.496C61.2604 155.496 53.2607 157.157 53.2607 159.208V164.578C53.2607 166.51 61.2604 168.078 71.1271 168.078C80.9938 168.078 88.9934 166.51 88.9934 164.578V159.208C88.9934 157.157 80.9938 155.496 71.1271 155.496Z" fill="#FFCE24"/>
<path d="M71.1268 162.916C61.5337 162.916 53.7058 161.346 53.2793 159.376H53.2578V164.578C53.2578 166.51 61.2574 168.077 71.1241 168.077C80.9908 168.077 88.9904 166.51 88.9904 164.578V159.376H88.9689C88.5451 161.346 80.7199 162.916 71.1268 162.916Z" fill="#E8A000"/>
<mask id="mask2_2162_21329" style="mask-type:luminance" maskUnits="userSpaceOnUse" x="53" y="159" width="36" height="10">
<path d="M71.1268 162.916C61.5337 162.916 53.7058 161.346 53.2793 159.376H53.2578V164.578C53.2578 166.51 61.2574 168.077 71.1241 168.077C80.9908 168.077 88.9904 166.51 88.9904 164.578V159.376H88.9689C88.5451 161.346 80.7199 162.916 71.1268 162.916Z" fill="white"/>
</mask>
<g mask="url(#mask2_2162_21329)">
<path d="M88.9421 167.847V160.426L63.9668 163.067C72.13 165.786 87.3191 162.498 87.3191 162.498L87.6383 167.85L88.9421 167.847Z" fill="#E8A000"/>
</g>
<path d="M71.1266 156.809C74.9631 156.809 78.4445 157.012 80.9735 157.343C82.2351 157.508 83.2765 157.708 84.0104 157.935C84.3742 158.048 84.6873 158.175 84.9174 158.322C85.1245 158.455 85.3877 158.684 85.3878 159.033C85.3878 159.382 85.1246 159.612 84.9174 159.744C84.6873 159.892 84.3743 160.019 84.0104 160.131C83.2765 160.359 82.2351 160.558 80.9735 160.723C78.4445 161.054 74.9631 161.257 71.1266 161.257C67.29 161.257 63.8086 161.054 61.2797 160.723C60.0183 160.558 58.9774 160.359 58.2436 160.131C57.8797 160.019 57.5667 159.892 57.3366 159.744C57.1294 159.612 56.8662 159.382 56.8662 159.033C56.8663 158.684 57.1294 158.455 57.3366 158.322C57.5667 158.175 57.8797 158.048 58.2436 157.935C58.9774 157.708 60.0182 157.508 61.2797 157.343C63.8086 157.012 67.29 156.809 71.1266 156.809ZM71.1266 157.629C67.3141 157.629 63.87 157.832 61.3862 158.157C60.1415 158.32 59.1543 158.512 58.4864 158.719C58.1495 158.823 57.9177 158.924 57.7789 159.013C57.7686 159.02 57.7601 159.027 57.7516 159.033C57.7601 159.039 57.7686 159.046 57.7789 159.053C57.9177 159.142 58.1495 159.243 58.4864 159.347C59.1543 159.554 60.1415 159.746 61.3862 159.909C63.87 160.234 67.3141 160.437 71.1266 160.437C74.9391 160.437 78.3831 160.234 80.8669 159.909C82.1118 159.746 83.0997 159.554 83.7676 159.347C84.1042 159.243 84.3354 159.142 84.4743 159.053C84.4845 159.046 84.4931 159.039 84.5015 159.033C84.4931 159.027 84.4845 159.019 84.4743 159.013C84.3354 158.924 84.1042 158.823 83.7676 158.719C83.0997 158.512 82.1118 158.32 80.8669 158.157C78.3831 157.832 74.939 157.629 71.1266 157.629Z" fill="black"/>
<path d="M52.8506 164.578V159.208H53.6711V164.578C53.6711 164.667 53.7155 164.803 53.9075 164.986C54.0997 165.17 54.4057 165.368 54.837 165.567C55.6976 165.966 56.9692 166.336 58.5725 166.65C61.7727 167.277 66.2119 167.667 71.127 167.667C76.0421 167.667 80.4812 167.277 83.6814 166.65C85.2849 166.336 86.5563 165.966 87.417 165.567C87.8484 165.368 88.1542 165.17 88.3465 164.986C88.5385 164.803 88.5828 164.667 88.5828 164.578V159.208H89.4034V164.578C89.4034 164.972 89.1977 165.308 88.9138 165.579C88.6301 165.851 88.2341 166.093 87.7615 166.312C86.8139 166.75 85.469 167.136 83.8393 167.455C80.573 168.095 76.0785 168.488 71.127 168.488C66.1757 168.488 61.6816 168.095 58.4155 167.455C56.7857 167.136 55.44 166.75 54.4924 166.312C54.0199 166.093 53.6238 165.851 53.3402 165.579C53.0562 165.308 52.8506 164.972 52.8506 164.578Z" fill="black"/>
<path d="M88.5828 159.208C88.5828 159.095 88.5301 158.942 88.3385 158.748C88.1454 158.552 87.8391 158.343 87.409 158.132C86.5498 157.71 85.2798 157.318 83.6774 156.985C80.4791 156.321 76.0413 155.906 71.127 155.906C66.2128 155.906 61.7756 156.321 58.5773 156.985C56.9748 157.318 55.705 157.71 54.8458 158.132C54.4154 158.343 54.1094 158.552 53.9163 158.748C53.7245 158.942 53.6711 159.095 53.6711 159.208C53.6711 159.32 53.7245 159.473 53.9163 159.668C54.1094 159.864 54.4154 160.073 54.8458 160.285C55.705 160.707 56.9749 161.098 58.5773 161.43C61.7756 162.095 66.2128 162.509 71.127 162.509C76.0413 162.509 80.4791 162.095 83.6774 161.43C85.2798 161.098 86.5499 160.707 87.409 160.285C87.8393 160.073 88.1453 159.864 88.3385 159.668C88.5301 159.473 88.5828 159.32 88.5828 159.208ZM89.4034 159.208C89.4034 159.607 89.2067 159.955 88.9226 160.244C88.6397 160.531 88.244 160.788 87.7703 161.021C86.8214 161.487 85.4746 161.895 83.8441 162.234C80.5761 162.913 76.0799 163.33 71.127 163.33C66.1743 163.329 61.6786 162.913 58.4107 162.234C56.7803 161.895 55.4334 161.487 54.4844 161.021C54.0107 160.788 53.6142 160.531 53.3314 160.244C53.0473 159.955 52.8506 159.607 52.8506 159.208C52.8506 158.808 53.0472 158.46 53.3314 158.172C53.6142 157.885 54.0107 157.628 54.4844 157.395C55.4334 156.929 56.7801 156.52 58.4107 156.181C61.6786 155.502 66.1743 155.086 71.127 155.086C76.0799 155.086 80.5761 155.502 83.8441 156.181C85.4747 156.52 86.8214 156.929 87.7703 157.395C88.2438 157.628 88.6398 157.885 88.9226 158.172C89.2067 158.46 89.4033 158.808 89.4034 159.208Z" fill="black"/>
<path d="M72.6046 149.127C62.7379 149.127 54.7383 150.789 54.7383 152.839V158.209C54.7383 160.142 62.7379 161.709 72.6046 161.709C82.4713 161.709 90.4709 160.142 90.4709 158.209V152.839C90.4709 150.789 82.4713 149.127 72.6046 149.127Z" fill="#FFCE24"/>
<path d="M72.6053 156.549C63.0122 156.549 55.1843 154.979 54.7578 153.009H54.7363V158.21C54.7363 160.142 62.7359 161.71 72.6027 161.71C82.4694 161.71 90.4689 160.142 90.4689 158.21V153.009H90.4475C90.0236 154.979 82.1984 156.549 72.6053 156.549Z" fill="#E8A000"/>
<mask id="mask3_2162_21329" style="mask-type:luminance" maskUnits="userSpaceOnUse" x="54" y="153" width="37" height="9">
<path d="M72.6053 156.549C63.0122 156.549 55.1843 154.979 54.7578 153.009H54.7363V158.21C54.7363 160.142 62.7359 161.71 72.6027 161.71C82.4694 161.71 90.4689 160.142 90.4689 158.21V153.009H90.4475C90.0236 154.979 82.1984 156.549 72.6053 156.549Z" fill="white"/>
</mask>
<g mask="url(#mask3_2162_21329)">
<path d="M90.4206 161.478V154.058L65.4453 156.698C73.6085 159.417 88.7976 156.129 88.7976 156.129L89.1168 161.481L90.4206 161.478Z" fill="#E8A000"/>
</g>
<mask id="mask4_2162_21329" style="mask-type:luminance" maskUnits="userSpaceOnUse" x="54" y="153" width="37" height="9">
<path d="M72.6053 156.549C63.0122 156.549 55.1843 154.979 54.7578 153.009H54.7363V158.21C54.7363 160.142 62.7359 161.71 72.6027 161.71C82.4694 161.71 90.4689 160.142 90.4689 158.21V153.009H90.4475C90.0236 154.979 82.1984 156.549 72.6053 156.549Z" fill="white"/>
</mask>
<g mask="url(#mask4_2162_21329)">
<path d="M72.3994 151.677L91.9182 156.887L91.8377 150.545L72.3994 151.677Z" fill="black"/>
</g>
<path d="M72.6051 150.44C76.4416 150.44 79.923 150.643 82.452 150.974C83.7136 151.14 84.755 151.339 85.4889 151.567C85.8527 151.679 86.1658 151.806 86.3959 151.954C86.603 152.086 86.8662 152.315 86.8663 152.664C86.8663 153.014 86.6031 153.243 86.3959 153.376C86.1658 153.523 85.8528 153.65 85.4889 153.763C84.755 153.99 83.7136 154.189 82.452 154.354C79.923 154.685 76.4417 154.889 72.6051 154.889C68.7685 154.889 65.2871 154.685 62.7582 154.354C61.4968 154.189 60.4559 153.99 59.7221 153.763C59.3582 153.65 59.0452 153.523 58.8151 153.376C58.6079 153.243 58.3447 153.014 58.3447 152.664C58.3448 152.315 58.608 152.086 58.8151 151.954C59.0452 151.806 59.3582 151.679 59.7221 151.567C60.4559 151.339 61.4967 151.14 62.7582 150.974C65.2871 150.643 68.7685 150.44 72.6051 150.44ZM72.6051 151.26C68.7926 151.26 65.3485 151.463 62.8647 151.788C61.62 151.952 60.6328 152.143 59.9649 152.35C59.628 152.455 59.3962 152.555 59.2574 152.644C59.2471 152.651 59.2386 152.658 59.2301 152.664C59.2386 152.67 59.2471 152.678 59.2574 152.684C59.3962 152.773 59.628 152.874 59.9649 152.978C60.6328 153.185 61.62 153.377 62.8647 153.54C65.3485 153.865 68.7926 154.068 72.6051 154.068C76.4176 154.068 79.8616 153.865 82.3455 153.54C83.5903 153.377 84.5782 153.185 85.2461 152.978C85.5829 152.874 85.8148 152.773 85.9536 152.684C85.9637 152.678 85.9717 152.67 85.9801 152.664C85.9717 152.659 85.9637 152.651 85.9536 152.644C85.8148 152.555 85.5829 152.455 85.2461 152.35C84.5782 152.143 83.5903 151.952 82.3455 151.788C79.8616 151.463 76.4176 151.26 72.6051 151.26Z" fill="black"/>
<path d="M54.3262 158.209V152.839H55.1467V158.209C55.1467 158.298 55.1911 158.434 55.3831 158.618C55.5753 158.802 55.8812 158.999 56.3125 159.199C57.1731 159.597 58.4447 159.967 60.0481 160.281C63.2483 160.908 67.6875 161.299 72.6026 161.299C77.5177 161.299 81.9568 160.908 85.157 160.281C86.7605 159.967 88.0319 159.597 88.8926 159.199C89.3239 158.999 89.6298 158.802 89.8221 158.618C90.0141 158.434 90.0584 158.298 90.0584 158.209V152.839H90.8789V158.209C90.8789 158.603 90.6733 158.939 90.3894 159.211C90.1057 159.482 89.7096 159.724 89.2371 159.943C88.2895 160.382 86.9446 160.767 85.3149 161.086C82.0486 161.726 77.5541 162.119 72.6026 162.119C67.6513 162.119 63.1572 161.726 59.8911 161.086C58.2613 160.767 56.9156 160.382 55.968 159.943C55.4955 159.724 55.0994 159.482 54.8158 159.211C54.5318 158.939 54.3262 158.603 54.3262 158.209Z" fill="black"/>
<path d="M90.0614 152.839C90.0613 152.726 90.0086 152.574 89.817 152.379C89.6238 152.183 89.3171 151.974 88.8867 151.763C88.0276 151.341 86.7582 150.949 85.1559 150.616C81.9576 149.952 77.5198 149.538 72.6055 149.538C67.6913 149.538 63.2541 149.952 60.0558 150.616C58.4533 150.949 57.1835 151.341 56.3243 151.763C55.894 151.974 55.5879 152.183 55.3948 152.379C55.203 152.574 55.1496 152.726 55.1496 152.839C55.1496 152.952 55.203 153.104 55.3948 153.299C55.5879 153.495 55.8939 153.705 56.3243 153.916C57.1835 154.338 58.4534 154.729 60.0558 155.062C63.2541 155.726 67.6913 156.14 72.6055 156.14C77.5198 156.14 81.9576 155.726 85.1559 155.062C86.758 154.729 88.0276 154.338 88.8867 153.916C89.3171 153.705 89.6238 153.495 89.817 153.299C90.0086 153.104 90.0614 152.952 90.0614 152.839ZM90.8819 152.839C90.8819 153.239 90.6852 153.587 90.4011 153.875C90.1183 154.162 89.7225 154.42 89.2489 154.652C88.2999 155.118 86.9532 155.527 85.3226 155.865C82.0546 156.544 77.5585 156.961 72.6055 156.961C67.6528 156.961 63.1571 156.544 59.8892 155.865C58.2588 155.527 56.9119 155.118 55.9629 154.652C55.4892 154.42 55.0927 154.162 54.8099 153.875C54.5258 153.587 54.3291 153.239 54.3291 152.839C54.3291 152.439 54.5257 152.091 54.8099 151.803C55.0927 151.516 55.4893 151.259 55.9629 151.027C56.9119 150.56 58.2587 150.151 59.8892 149.813C63.1571 149.134 67.6528 148.717 72.6055 148.717C77.5585 148.717 82.0546 149.134 85.3226 149.813C86.9532 150.151 88.2999 150.56 89.2489 151.027C89.7223 151.259 90.1183 151.516 90.4011 151.803C90.6852 152.091 90.8818 152.439 90.8819 152.839Z" fill="black"/>
<path d="M74.9786 142.758C65.1119 142.758 57.1123 144.42 57.1123 146.47V151.84C57.1123 153.772 65.1119 155.34 74.9786 155.34C84.8453 155.34 92.8449 153.772 92.8449 151.84V146.47C92.8449 144.42 84.8453 142.758 74.9786 142.758Z" fill="#FFCE24"/>
<path d="M74.9793 150.181C65.3863 150.181 57.5583 148.611 57.1318 146.642H57.1104V151.843C57.1104 153.775 65.1099 155.342 74.9766 155.342C84.8434 155.342 92.8429 153.775 92.8429 151.843V146.642H92.8215C92.3976 148.609 84.5724 150.181 74.9793 150.181Z" fill="#E8A000"/>
<mask id="mask5_2162_21329" style="mask-type:luminance" maskUnits="userSpaceOnUse" x="57" y="146" width="36" height="10">
<path d="M74.9793 150.181C65.3863 150.181 57.5583 148.611 57.1318 146.642H57.1104V151.843C57.1104 153.775 65.1099 155.342 74.9766 155.342C84.8434 155.342 92.8429 153.775 92.8429 151.843V146.642H92.8215C92.3976 148.609 84.5724 150.181 74.9793 150.181Z" fill="white"/>
</mask>
<g mask="url(#mask5_2162_21329)">
<path d="M92.7946 155.109V147.688L67.8193 150.329C75.9826 153.048 91.1716 149.76 91.1716 149.76L91.4908 155.112L92.7946 155.109Z" fill="#E8A000"/>
</g>
<mask id="mask6_2162_21329" style="mask-type:luminance" maskUnits="userSpaceOnUse" x="57" y="146" width="36" height="10">
<path d="M74.9793 150.181C65.3863 150.181 57.5583 148.611 57.1318 146.642H57.1104V151.843C57.1104 153.775 65.1099 155.342 74.9766 155.342C84.8434 155.342 92.8429 153.775 92.8429 151.843V146.642H92.8215C92.3976 148.609 84.5724 150.181 74.9793 150.181Z" fill="white"/>
</mask>
<g mask="url(#mask6_2162_21329)">
<path d="M57.1123 146.639V151.288L72.414 143.918L57.1123 146.639Z" fill="black"/>
</g>
<path d="M74.9781 144.071C78.8147 144.071 82.2961 144.274 84.8251 144.605C86.0866 144.771 87.1281 144.97 87.8619 145.197C88.2258 145.31 88.5389 145.437 88.769 145.584C88.9761 145.717 89.2393 145.946 89.2393 146.295C89.2393 146.644 88.9761 146.874 88.769 147.007C88.5388 147.154 88.2259 147.281 87.8619 147.394C87.1281 147.621 86.0866 147.82 84.8251 147.985C82.2961 148.316 78.8147 148.52 74.9781 148.52C71.1415 148.519 67.6602 148.316 65.1312 147.985C63.8699 147.82 62.829 147.621 62.0952 147.394C61.7312 147.281 61.4183 147.154 61.1881 147.007C60.9809 146.874 60.7178 146.645 60.7178 146.295C60.7178 145.946 60.981 145.717 61.1881 145.584C61.4183 145.437 61.7312 145.31 62.0952 145.197C62.829 144.97 63.8698 144.77 65.1312 144.605C67.6602 144.274 71.1415 144.071 74.9781 144.071ZM74.9781 144.891C71.1656 144.891 67.7216 145.094 65.2378 145.419C63.9931 145.582 63.0058 145.774 62.338 145.981C62.001 146.085 61.7693 146.186 61.6304 146.275C61.6201 146.282 61.6117 146.289 61.6032 146.295C61.6117 146.301 61.6201 146.309 61.6304 146.315C61.7693 146.404 62.001 146.505 62.338 146.609C63.0058 146.816 63.9931 147.008 65.2378 147.171C67.7216 147.496 71.1656 147.699 74.9781 147.699C78.7906 147.699 82.2347 147.496 84.7185 147.171C85.9634 147.008 86.9512 146.816 87.6191 146.609C87.956 146.505 88.1878 146.404 88.3267 146.315C88.3367 146.309 88.3448 146.301 88.3531 146.295C88.3448 146.289 88.3367 146.282 88.3267 146.275C88.1878 146.186 87.956 146.085 87.6191 145.981C86.9512 145.774 85.9634 145.582 84.7185 145.419C82.2347 145.094 78.7906 144.891 74.9781 144.891Z" fill="black"/>
<path d="M56.7012 151.84V146.47H57.5217V151.84C57.5217 151.929 57.5661 152.065 57.7581 152.249C57.9503 152.433 58.2563 152.63 58.6875 152.829C59.5481 153.228 60.8197 153.598 62.4231 153.912C65.6233 154.539 70.0625 154.93 74.9776 154.93C79.8927 154.93 84.3318 154.539 87.532 153.912C89.1355 153.598 90.4069 153.228 91.2676 152.829C91.6989 152.63 92.0047 152.433 92.1971 152.249C92.3891 152.065 92.4334 151.929 92.4334 151.84V146.47H93.2539V151.84C93.2539 152.234 93.0483 152.57 92.7644 152.842C92.4807 153.113 92.0847 153.355 91.6121 153.574C90.6645 154.013 89.3196 154.398 87.6899 154.717C84.4236 155.357 79.9291 155.75 74.9776 155.75C70.0263 155.75 65.5322 155.357 62.2661 154.717C60.6363 154.398 59.2906 154.013 58.343 153.574C57.8705 153.355 57.4744 153.113 57.1908 152.842C56.9068 152.57 56.7012 152.234 56.7012 151.84Z" fill="black"/>
<path d="M92.4334 146.47C92.4334 146.357 92.3807 146.205 92.189 146.01C91.996 145.814 91.6897 145.605 91.2596 145.394C90.4004 144.972 89.1304 144.58 87.528 144.247C84.3297 143.583 79.8919 143.169 74.9776 143.169C70.0634 143.169 65.6262 143.583 62.4279 144.247C60.8254 144.58 59.5555 144.972 58.6964 145.394C58.266 145.605 57.96 145.814 57.7669 146.01C57.5751 146.205 57.5217 146.357 57.5217 146.47C57.5217 146.583 57.5751 146.735 57.7669 146.93C57.96 147.126 58.2659 147.335 58.6964 147.547C59.5555 147.969 60.8255 148.36 62.4279 148.693C65.6262 149.357 70.0634 149.771 74.9776 149.771C79.8919 149.771 84.3297 149.357 87.528 148.693C89.1304 148.36 90.4004 147.969 91.2596 147.547C91.6899 147.335 91.9959 147.126 92.189 146.93C92.3807 146.735 92.4334 146.583 92.4334 146.47ZM93.2539 146.47C93.2539 146.87 93.0573 147.218 92.7732 147.506C92.4903 147.793 92.0946 148.051 91.6209 148.283C90.672 148.749 89.3252 149.158 87.6947 149.496C84.4267 150.175 79.9305 150.592 74.9776 150.592C70.0248 150.592 65.5292 150.175 62.2613 149.496C60.6309 149.158 59.284 148.749 58.335 148.283C57.8613 148.051 57.4648 147.793 57.1819 147.506C56.8978 147.218 56.7012 146.87 56.7012 146.47C56.7012 146.07 56.8978 145.722 57.1819 145.434C57.4648 145.147 57.8613 144.89 58.335 144.657C59.284 144.191 60.6307 143.782 62.2613 143.443C65.5292 142.765 70.0249 142.348 74.9776 142.348C79.9305 142.348 84.4267 142.765 87.6947 143.443C89.3253 143.782 90.6719 144.191 91.6209 144.657C92.0944 144.89 92.4904 145.147 92.7732 145.434C93.0573 145.722 93.2539 146.07 93.2539 146.47Z" fill="black"/>
<path d="M71.2315 136.392C61.3648 136.392 53.3652 138.053 53.3652 140.104V145.474C53.3652 147.406 61.3648 148.974 71.2315 148.974C81.0982 148.974 89.0979 147.406 89.0979 145.474V140.104C89.0979 138.053 81.0982 136.392 71.2315 136.392Z" fill="#FFCE24"/>
<path d="M71.2313 143.813C61.6382 143.813 53.8103 142.243 53.3838 140.273H53.3623V145.475C53.3623 147.407 61.3619 148.974 71.2286 148.974C81.0953 148.974 89.0949 147.407 89.0949 145.475V140.273H89.0734C88.6523 142.241 80.8244 143.813 71.2313 143.813Z" fill="#E8A000"/>
<mask id="mask7_2162_21329" style="mask-type:luminance" maskUnits="userSpaceOnUse" x="53" y="140" width="37" height="9">
<path d="M71.2313 143.813C61.6382 143.813 53.8103 142.243 53.3838 140.273H53.3623V145.475C53.3623 147.407 61.3619 148.974 71.2286 148.974C81.0953 148.974 89.0949 147.407 89.0949 145.475V140.273H89.0734C88.6523 142.241 80.8244 143.813 71.2313 143.813Z" fill="white"/>
</mask>
<g mask="url(#mask7_2162_21329)">
<path d="M89.0465 148.74V141.32L64.0713 143.961C72.2345 146.679 87.4236 143.392 87.4236 143.392L87.7428 148.743L89.0465 148.74Z" fill="#E8A000"/>
</g>
<mask id="mask8_2162_21329" style="mask-type:luminance" maskUnits="userSpaceOnUse" x="53" y="140" width="37" height="9">
<path d="M71.2313 143.813C61.6382 143.813 53.8103 142.243 53.3838 140.273H53.3623V145.475C53.3623 147.407 61.3619 148.974 71.2286 148.974C81.0953 148.974 89.0949 147.407 89.0949 145.475V140.273H89.0734C88.6523 142.241 80.8244 143.813 71.2313 143.813Z" fill="white"/>
</mask>
<g mask="url(#mask8_2162_21329)">
<path d="M71.0244 138.939L90.5459 144.148L90.4627 137.807L71.0244 138.939Z" fill="black"/>
</g>
<path d="M71.2311 137.702C75.0676 137.702 78.549 137.905 81.078 138.237C82.3395 138.402 83.381 138.601 84.1148 138.829C84.4787 138.941 84.7918 139.068 85.0219 139.216C85.229 139.348 85.4922 139.577 85.4922 139.927C85.4922 140.276 85.2291 140.505 85.0219 140.638C84.7918 140.785 84.4788 140.912 84.1148 141.025C83.381 141.252 82.3395 141.451 81.078 141.616C78.549 141.948 75.0676 142.151 71.2311 142.151C67.3944 142.151 63.9131 141.948 61.3842 141.616C60.1228 141.451 59.0819 141.252 58.3481 141.025C57.9842 140.912 57.6712 140.785 57.4411 140.638C57.2339 140.505 56.9707 140.276 56.9707 139.927C56.9708 139.577 57.2339 139.348 57.4411 139.216C57.6712 139.068 57.9841 138.941 58.3481 138.829C59.0819 138.602 60.1227 138.402 61.3842 138.237C63.9131 137.905 67.3944 137.702 71.2311 137.702ZM71.2311 138.523C67.4186 138.523 63.9745 138.725 61.4907 139.051C60.246 139.214 59.2588 139.406 58.5909 139.612C58.254 139.717 58.0222 139.818 57.8834 139.906C57.8731 139.913 57.8646 139.921 57.8561 139.927C57.8646 139.932 57.8731 139.94 57.8834 139.947C58.0222 140.035 58.254 140.136 58.5909 140.241C59.2588 140.447 60.246 140.639 61.4907 140.802C63.9745 141.128 67.4186 141.33 71.2311 141.33C75.0435 141.33 78.4876 141.128 80.9714 140.802C82.2163 140.639 83.2041 140.447 83.8721 140.241C84.2089 140.136 84.4407 140.035 84.5796 139.947C84.5897 139.94 84.5977 139.932 84.606 139.927C84.5977 139.921 84.5897 139.913 84.5796 139.906C84.4407 139.818 84.2089 139.717 83.8721 139.612C83.2042 139.406 82.2163 139.214 80.9714 139.051C78.4876 138.725 75.0435 138.523 71.2311 138.523Z" fill="black"/>
<path d="M52.9541 145.471V140.101H53.7746V145.471C53.7746 145.56 53.819 145.696 54.011 145.88C54.2032 146.064 54.5092 146.261 54.9405 146.461C55.8011 146.859 57.0727 147.229 58.676 147.543C61.8762 148.17 66.3154 148.561 71.2305 148.561C76.1456 148.561 80.5847 148.17 83.7849 147.543C85.3884 147.229 86.6598 146.859 87.5205 146.461C87.9519 146.261 88.2577 146.064 88.45 145.88C88.642 145.696 88.6864 145.56 88.6864 145.471V140.101H89.5069V145.471C89.5069 145.865 89.3013 146.201 89.0173 146.473C88.7336 146.744 88.3376 146.986 87.865 147.205C86.9174 147.644 85.5725 148.029 83.9428 148.349C80.6765 148.988 76.182 149.381 71.2305 149.381C66.2792 149.381 61.7852 148.988 58.519 148.349C56.8892 148.029 55.5435 147.644 54.5959 147.205C54.1234 146.986 53.7273 146.744 53.4437 146.473C53.1597 146.201 52.9541 145.865 52.9541 145.471Z" fill="black"/>
<path d="M88.6864 140.101C88.6863 139.989 88.6336 139.836 88.442 139.641C88.2488 139.445 87.9421 139.237 87.5117 139.025C86.6526 138.603 85.3832 138.211 83.7809 137.879C80.5826 137.214 76.1448 136.8 71.2305 136.8C66.3163 136.8 61.8791 137.214 58.6808 137.879C57.0783 138.211 55.8085 138.603 54.9493 139.025C54.519 139.237 54.2129 139.445 54.0198 139.641C53.828 139.836 53.7746 139.989 53.7746 140.101C53.7746 140.214 53.828 140.366 54.0198 140.561C54.2129 140.757 54.5189 140.967 54.9493 141.178C55.8085 141.6 57.0784 141.991 58.6808 142.324C61.8791 142.988 66.3163 143.403 71.2305 143.403C76.1448 143.403 80.5826 142.988 83.7809 142.324C85.383 141.991 86.6526 141.6 87.5117 141.178C87.9421 140.967 88.2488 140.757 88.442 140.561C88.6336 140.367 88.6864 140.214 88.6864 140.101ZM89.5069 140.101C89.5069 140.501 89.3102 140.849 89.0261 141.137C88.7433 141.424 88.3475 141.682 87.8739 141.915C86.9249 142.381 85.5782 142.789 83.9476 143.128C80.6796 143.807 76.1835 144.223 71.2305 144.223C66.2778 144.223 61.7821 143.807 58.5142 143.128C56.8838 142.789 55.5369 142.381 54.5879 141.915C54.1142 141.682 53.7177 141.424 53.4349 141.137C53.1508 140.849 52.9541 140.501 52.9541 140.101C52.9541 139.702 53.1507 139.354 53.4349 139.065C53.7177 138.778 54.1143 138.521 54.5879 138.289C55.5369 137.823 56.8837 137.414 58.5142 137.075C61.7821 136.396 66.2778 135.98 71.2305 135.979C76.1835 135.979 80.6796 136.396 83.9476 137.075C85.5782 137.414 86.9249 137.823 87.8739 138.289C88.3473 138.521 88.7433 138.778 89.0261 139.065C89.3102 139.354 89.5068 139.702 89.5069 140.101Z" fill="black"/>
<path d="M73.7071 130.024C63.8404 130.024 55.8408 131.686 55.8408 133.736V139.106C55.8408 141.039 63.8404 142.606 73.7071 142.606C83.5738 142.606 91.5734 141.039 91.5734 139.106V133.736C91.5734 131.686 83.5738 130.024 73.7071 130.024Z" fill="#FFCE24"/>
<path d="M73.7069 137.445C64.1138 137.445 56.2859 135.875 55.8594 133.905H55.8379V139.106C55.8379 141.039 63.8375 142.606 73.7042 142.606C83.5709 142.606 91.5705 141.039 91.5705 139.106V133.905H91.549C91.1278 135.875 83.3 137.445 73.7069 137.445Z" fill="#E8A000"/>
<mask id="mask9_2162_21329" style="mask-type:luminance" maskUnits="userSpaceOnUse" x="55" y="133" width="37" height="10">
<path d="M73.7069 137.445C64.1138 137.445 56.2859 135.875 55.8594 133.905H55.8379V139.106C55.8379 141.039 63.8375 142.606 73.7042 142.606C83.5709 142.606 91.5705 141.039 91.5705 139.106V133.905H91.549C91.1278 135.875 83.3 137.445 73.7069 137.445Z" fill="white"/>
</mask>
<g mask="url(#mask9_2162_21329)">
<path d="M91.5221 142.372V134.952L66.5469 137.592C74.7101 140.311 89.8992 137.024 89.8992 137.024L90.2184 142.375L91.5221 142.372Z" fill="#E8A000"/>
</g>
<g opacity="0.6">
<path d="M66.7839 137.156L75.0035 133.001C74.4911 132.991 73.9707 132.985 73.4449 132.985C71.2103 132.985 69.0937 133.077 67.1836 133.24L60.96 136.335C62.6098 136.684 64.5842 136.963 66.7839 137.156Z" fill="white"/>
<path d="M71.6602 137.418L79.6571 133.235C78.8899 133.17 78.0931 133.116 77.2642 133.076L69.0205 137.314C69.8789 137.362 70.7589 137.397 71.6602 137.418Z" fill="white"/>
<path d="M81.8442 132.091L84.39 130.757C83.73 130.655 83.0352 130.561 82.3109 130.48L79.5264 131.914C80.3446 131.965 81.1199 132.024 81.8442 132.091Z" fill="white"/>
<path d="M73.7072 131.744C74.9708 131.744 76.194 131.766 77.3583 131.809L80.3628 130.29C78.3052 130.118 76.0599 130.021 73.7072 130.021C73.6885 130.021 73.6723 130.021 73.6536 130.021L70.0615 131.806C71.2231 131.769 72.4437 131.744 73.7072 131.744Z" fill="white"/>
</g>
<path d="M73.7067 131.334C77.5432 131.334 81.0246 131.537 83.5536 131.868C84.8151 132.034 85.8566 132.233 86.5904 132.461C86.9543 132.573 87.2674 132.7 87.4975 132.848C87.7046 132.98 87.9678 133.209 87.9678 133.558C87.9678 133.908 87.7046 134.137 87.4975 134.27C87.2674 134.417 86.9544 134.544 86.5904 134.657C85.8566 134.884 84.8151 135.083 83.5536 135.248C81.0246 135.579 77.5432 135.783 73.7067 135.783C69.87 135.783 66.3887 135.579 63.8597 135.248C62.5984 135.083 61.5575 134.884 60.8237 134.657C60.4597 134.544 60.1468 134.417 59.9166 134.27C59.7095 134.137 59.4463 133.908 59.4463 133.558C59.4464 133.209 59.7095 132.98 59.9166 132.848C60.1468 132.7 60.4597 132.573 60.8237 132.461C61.5575 132.233 62.5983 132.034 63.8597 131.868C66.3887 131.537 69.87 131.334 73.7067 131.334ZM73.7067 132.154C69.8941 132.155 66.4501 132.357 63.9663 132.683C62.7216 132.846 61.7343 133.037 61.0665 133.244C60.7296 133.349 60.4978 133.449 60.3589 133.538C60.3486 133.545 60.3402 133.552 60.3317 133.558C60.3402 133.564 60.3486 133.572 60.3589 133.578C60.4978 133.667 60.7296 133.768 61.0665 133.872C61.7343 134.079 62.7216 134.271 63.9663 134.434C66.4501 134.759 69.8941 134.962 73.7067 134.962C77.5191 134.962 80.9632 134.759 83.447 134.434C84.6919 134.271 85.6797 134.079 86.3476 133.872C86.6845 133.768 86.9163 133.667 87.0552 133.578C87.0653 133.572 87.0733 133.564 87.0816 133.558C87.0733 133.553 87.0653 133.545 87.0552 133.538C86.9163 133.449 86.6845 133.349 86.3476 133.244C85.6797 133.037 84.6919 132.846 83.447 132.683C80.9632 132.357 77.5191 132.154 73.7067 132.154Z" fill="black"/>
<path d="M55.4307 139.104V133.733H56.2512V139.104C56.2512 139.193 56.2956 139.328 56.4876 139.512C56.6798 139.696 56.9857 139.893 57.417 140.093C58.2776 140.492 59.5492 140.862 61.1526 141.176C64.3528 141.803 68.792 142.193 73.707 142.193C78.6222 142.193 83.0613 141.803 86.2615 141.176C87.865 140.862 89.1364 140.492 89.9971 140.093C90.4284 139.893 90.7342 139.696 90.9265 139.512C91.1186 139.328 91.1629 139.193 91.1629 139.104V133.733H91.9834V139.104C91.9834 139.498 91.7778 139.833 91.4939 140.105C91.2102 140.377 90.8141 140.619 90.3416 140.838C89.394 141.276 88.0491 141.662 86.4193 141.981C83.1531 142.621 78.6586 143.014 73.707 143.014C68.7558 143.014 64.2617 142.621 60.9956 141.981C59.3658 141.662 58.0201 141.276 57.0725 140.838C56.6 140.619 56.2039 140.377 55.9202 140.105C55.6363 139.833 55.4307 139.498 55.4307 139.104Z" fill="black"/>
<path d="M91.1629 133.733C91.1629 133.62 91.1102 133.468 90.9185 133.273C90.7255 133.077 90.4192 132.868 89.989 132.657C89.1299 132.235 87.8599 131.843 86.2575 131.51C83.0592 130.846 78.6214 130.432 73.707 130.432C68.7929 130.432 64.3557 130.846 61.1574 131.51C59.5549 131.843 58.285 132.235 57.4259 132.657C56.9955 132.868 56.6895 133.077 56.4964 133.273C56.3046 133.468 56.2512 133.62 56.2512 133.733C56.2512 133.846 56.3046 133.998 56.4964 134.193C56.6895 134.389 56.9954 134.599 57.4259 134.81C58.285 135.232 59.555 135.623 61.1574 135.956C64.3557 136.62 68.7928 137.034 73.707 137.034C78.6214 137.034 83.0592 136.62 86.2575 135.956C87.8599 135.623 89.1299 135.232 89.989 134.81C90.4194 134.599 90.7254 134.389 90.9185 134.193C91.1101 133.998 91.1629 133.846 91.1629 133.733ZM91.9834 133.733C91.9834 134.133 91.7868 134.481 91.5027 134.769C91.2198 135.056 90.8241 135.314 90.3504 135.546C89.4015 136.012 88.0547 136.421 86.4242 136.76C83.1562 137.438 78.66 137.855 73.707 137.855C68.7543 137.855 64.2587 137.438 60.9907 136.76C59.3603 136.421 58.0134 136.012 57.0645 135.546C56.5908 135.314 56.1943 135.056 55.9114 134.769C55.6273 134.481 55.4307 134.133 55.4307 133.733C55.4307 133.333 55.6273 132.986 55.9114 132.697C56.1943 132.41 56.5908 132.153 57.0645 131.921C58.0135 131.455 59.3602 131.045 60.9907 130.707C64.2587 130.028 68.7544 129.611 73.707 129.611C78.66 129.611 83.1562 130.028 86.4242 130.707C88.0548 131.045 89.4014 131.455 90.3504 131.921C90.8239 132.153 91.2199 132.41 91.5027 132.697C91.7868 132.986 91.9834 133.333 91.9834 133.733Z" fill="black"/>
</svg>
