<svg width="300" height="200" viewBox="0 0 300 200" fill="none" xmlns="http://www.w3.org/2000/svg">
<path d="M196.915 135.284C196.915 140.972 192.292 146.151 186.64 146.792L15.1312 166.298C9.47926 166.942 4.85547 162.811 4.85547 157.124V56.3551C4.85547 50.6677 9.47926 45.4885 15.1312 44.8473L186.64 25.3418C192.292 24.6977 196.915 28.8281 196.915 34.5155V135.284Z" stroke="black" stroke-width="6" stroke-miterlimit="10"/>
<path d="M196.915 135.284C196.915 140.972 192.292 146.151 186.64 146.792L15.1312 166.298C9.47926 166.942 4.85547 162.811 4.85547 157.124V56.3551C4.85547 50.6677 9.47926 45.4885 15.1312 44.8473L186.64 25.3418C192.292 24.6977 196.915 28.8281 196.915 34.5155V135.284Z" fill="#CCCCCC"/>
<path d="M214.308 68.9442L8 92.2168L8.35759 71.0271L214.666 47.7546L214.308 68.9442Z" stroke="black" stroke-width="8" stroke-miterlimit="10"/>
<path d="M214.308 68.9442L8 92.2168L8.35759 71.0271L214.666 47.7546L214.308 68.9442Z" fill="#808080"/>
<path d="M188.526 139.184C223.584 139.184 252.005 109.832 252.005 73.6242C252.005 37.4162 223.584 8.0639 188.526 8.0639C153.467 8.0639 125.047 37.4162 125.047 73.6242C125.047 109.832 153.467 139.184 188.526 139.184Z" fill="black"/>
<path d="M102.716 138.257L30.0742 146.435V136.703L102.716 128.525V138.257Z" stroke="black" stroke-width="8" stroke-miterlimit="10"/>
<path d="M102.716 138.257L30.0742 146.435V136.703L102.716 128.525V138.257Z" fill="white"/>
<path d="M231.812 101.234C169.546 163.5 97.6452 106.053 120.049 45.2669C131.781 10.5073 175.147 -11.7814 208.725 6.60443C247.137 22.3814 254.736 69.1245 231.812 101.234Z" fill="black"/>
<g clip-path="url(#clip0_2435_72280)">
<path d="M298.907 165.704C298.504 162.663 297.206 160.081 295.013 157.881C281.353 144.172 267.722 130.433 254.082 116.704C252.902 115.521 251.712 114.337 250.532 113.144C249.42 112.03 248.142 111.638 246.627 112.196C246.106 112.391 245.555 112.528 245.064 112.792C244.395 113.154 243.933 113.017 243.431 112.489C241.238 110.211 239.015 107.952 236.812 105.693C235.514 104.363 234.206 103.043 232.908 101.704C232.466 101.254 232.466 101.087 232.829 100.579C233.016 100.325 233.223 100.1 233.41 99.8554C233.577 99.6305 233.744 99.4056 233.911 99.1807C233.075 98.506 232.289 97.7823 231.551 97.0001C229.8 99.8163 227.824 102.486 225.611 105.009C222.985 108.001 220.104 110.67 217.016 113.047C217.389 113.555 217.743 114.073 218.078 114.611C218.658 114.171 219.228 113.731 219.809 113.301C220.31 112.929 220.428 112.949 220.91 113.389C221.136 113.594 221.353 113.829 221.569 114.044C224.008 116.518 226.437 119.002 228.876 121.476C229.741 122.356 230.627 123.236 231.482 124.126C232.171 124.849 232.141 124.849 231.767 125.72C231.453 126.463 231.128 127.196 230.892 127.959C230.568 129.034 230.745 130.042 231.541 130.892C231.925 131.303 232.289 131.714 232.682 132.115C236.862 136.349 241.041 140.593 245.231 144.837C255.468 155.212 265.746 165.557 275.944 175.971C279.848 179.951 286.614 181.261 291.974 178.582C296.754 176.196 299.606 170.955 298.907 165.694V165.704ZM234.6 124.546C232.554 122.483 230.548 120.39 228.483 118.347C227.942 117.809 227.725 117.29 227.853 116.547C228.522 112.783 229.319 109.057 230.469 105.4C230.538 105.185 230.725 104.999 230.853 104.794C230.912 104.559 230.912 104.295 231.02 104.089C231.325 103.503 231.738 103.395 232.2 103.845C233.311 104.921 234.393 106.016 235.475 107.121C238.111 109.82 240.746 112.519 243.372 115.217C243.549 115.393 243.706 115.589 243.893 115.755C244.533 116.332 244.474 116.909 243.942 117.515C243.815 117.789 243.726 118.092 243.559 118.327C241.818 120.84 239.704 122.991 237.216 124.761C235.8 125.778 235.77 125.759 234.6 124.575V124.546ZM293.882 174.7C292.653 176.177 290.951 176.93 289.23 177.604C285.749 178.964 282.533 178.093 279.474 176.323C279.002 176.05 278.609 175.619 278.216 175.228C272.777 169.801 267.221 164.491 261.94 158.918C255.459 152.082 248.604 145.629 242.103 138.833C239.832 136.456 237.55 134.11 235.268 131.753C235.19 131.675 235.16 131.538 235.101 131.42C235.17 131.059 235.504 130.99 235.77 130.873C237.501 130.139 239.025 129.074 240.471 127.91C241.72 126.903 242.989 125.915 244.1 124.742C245.683 123.079 247.168 121.358 248.437 119.452C248.771 118.953 248.958 118.307 249.627 118.092C249.696 117.359 249.823 116.645 250.335 116.097C250.945 116.234 251.21 116.684 251.545 117.026C258.114 123.598 264.752 130.11 271.243 136.759C278.589 144.299 286.083 151.701 293.498 159.172C295.859 161.548 296.98 164.413 296.852 167.708C296.754 170.378 295.829 172.764 293.872 174.69L293.882 174.7Z" fill="black"/>
<path d="M293.878 174.7C292.649 176.177 290.948 176.93 289.217 177.604C285.735 178.964 282.529 178.103 279.461 176.323C278.989 176.05 278.596 175.619 278.202 175.228C272.764 169.801 267.207 164.491 261.926 158.918C255.445 152.082 248.591 145.638 242.09 138.833C239.828 136.466 237.537 134.119 235.265 131.753C235.186 131.675 235.157 131.538 235.098 131.42C235.166 131.059 235.501 130.99 235.766 130.873C237.497 130.139 239.022 129.074 240.467 127.91C241.716 126.903 242.985 125.915 244.096 124.742C245.68 123.079 247.165 121.358 248.433 119.451C248.758 118.953 248.954 118.307 249.623 118.092C250.203 118.806 250.754 119.569 251.384 120.234C253.046 121.974 254.639 123.793 256.34 125.495C263.087 132.222 269.686 139.087 276.383 145.873C276.904 146.401 277.425 146.929 277.966 147.447C283.238 152.581 288.115 158.116 293.416 163.22C295.206 164.941 295.481 167.229 295.226 169.547C295.068 170.945 294.714 172.324 294.046 173.605C293.898 173.918 293.947 174.328 293.898 174.69L293.878 174.7Z" fill="#404040"/>
<path d="M293.878 174.7C293.928 174.338 293.878 173.928 294.036 173.615C294.704 172.334 295.058 170.955 295.216 169.557C295.472 167.239 295.206 164.951 293.406 163.23C288.096 158.116 283.228 152.591 277.956 147.457C277.425 146.939 276.894 146.411 276.373 145.883C269.685 139.097 263.077 132.232 256.33 125.495C254.629 123.803 253.036 121.984 251.374 120.234C250.744 119.569 250.194 118.806 249.613 118.092C249.682 117.359 249.81 116.645 250.321 116.097C250.931 116.234 251.197 116.684 251.541 117.026C258.12 123.598 264.749 130.11 271.239 136.759C278.586 144.299 286.08 151.691 293.495 159.172C295.855 161.548 296.976 164.413 296.848 167.708C296.75 170.378 295.826 172.764 293.869 174.681L293.878 174.7Z" fill="#B2B2B2"/>
<path d="M243.941 117.476C243.814 117.75 243.725 118.053 243.558 118.298C241.817 120.811 239.703 122.962 237.215 124.732C235.789 125.749 235.759 125.729 234.599 124.546C232.553 122.483 230.547 120.38 228.482 118.347C227.941 117.809 227.724 117.29 227.852 116.547C228.521 112.783 229.317 109.047 230.468 105.4C230.537 105.175 230.724 104.989 230.852 104.794C231.107 104.794 231.324 104.882 231.491 105.087C232.219 105.996 232.878 106.974 233.684 107.796C236.654 110.827 239.683 113.8 242.673 116.811C243.037 117.163 243.42 117.437 243.941 117.486V117.476Z" fill="#B2B2B2"/>
<path d="M243.941 117.486C243.42 117.447 243.036 117.163 242.673 116.802C239.673 113.8 236.654 110.827 233.684 107.786C232.877 106.955 232.219 105.987 231.491 105.077C231.324 104.872 231.117 104.774 230.852 104.774C230.911 104.539 230.92 104.275 231.019 104.07C231.324 103.483 231.737 103.376 232.199 103.825C233.32 104.891 234.402 105.987 235.474 107.101C238.109 109.79 240.735 112.499 243.371 115.198C243.538 115.374 243.705 115.569 243.892 115.736C244.531 116.303 244.472 116.89 243.941 117.496V117.486Z" fill="white"/>
<path d="M245.692 119.256C245.623 118.738 245.859 118.307 246.075 117.867C246.528 116.938 246.675 116.029 245.967 115.12C245.692 114.768 245.849 114.406 246.252 114.24C246.646 114.073 247.049 113.927 247.462 113.809C248.032 113.653 248.396 113.985 248.357 114.601C248.347 114.787 248.357 114.983 248.298 115.139C247.649 116.645 247.059 118.19 245.761 119.305L245.702 119.246L245.692 119.256Z" fill="#3E3E3E"/>
</g>
<path d="M188.702 4.75787C249.286 6.59852 260.868 82.0238 216.116 115.014C194.868 131.662 161.916 132.912 141.799 113.767C101.275 75.453 135.033 4.75787 188.702 4.75787Z" fill="#D52B1E"/>
<path d="M136.667 111.583C88.6713 68.8467 137.084 -13.1789 197.796 3.67352C197.964 3.83897 197.964 4.00147 197.784 4.15805C141.093 -4.5193 99.145 67.0858 137.054 111.244C137.01 111.453 136.88 111.566 136.667 111.583Z" fill="#9B1D1F"/>
<path d="M235.844 60.8726C237.371 112.759 165.553 143.906 138.144 94.4209C128.188 75.2698 132.761 50.8834 146.6 34.8287C175.903 -0.713871 234.207 11.8486 235.844 60.8726Z" fill="black"/>
<path d="M139.193 93.1977C164.049 90.2728 188.881 87.5073 213.74 84.6592C217.832 84.4613 220.642 80.7297 220.232 76.7382C220.237 67.0977 220.232 57.4572 220.234 47.8196C220.435 44.8474 218.55 41.7422 215.365 41.6358C189.812 43.9817 164.356 47.5892 138.809 50.1714C148.839 25.1143 179.279 8.81732 205.27 18.5731C221.354 26.7363 229.426 45.9228 227.585 63.4016C225.174 91.4516 199.718 115.478 171.284 114.488C156.731 114.647 145.199 106.209 139.193 93.1977Z" fill="#D6E3F2"/>
<path d="M138.494 91.7766C132.593 79.7991 132.998 63.3573 138.201 51.6871C163.752 48.7946 189.308 45.6481 214.879 42.9832C218.099 42.8916 219.125 46.0381 218.927 48.7681C218.791 58.7749 219.243 68.8261 218.741 78.8123C218.362 81.5689 216.017 83.182 213.349 83.3179C208.282 83.897 203.212 84.4613 198.145 85.0433C178.261 87.2208 158.386 89.8267 138.494 91.7766Z" fill="white"/>
<path d="M164.648 115.371C212.532 122.754 249.791 63.1919 216.778 25.5191C216.934 25.203 217.114 25.203 217.274 25.33C221 28.2431 224.214 31.7649 226.814 35.7121C234.64 47.5626 236.283 62.8314 232.404 76.3689C225.056 104.416 192.967 125.517 164.648 115.371Z" fill="#9B1D1F"/>
<path d="M215.945 24.6091C215.904 24.5648 215.866 24.5175 215.824 24.4732C215.922 24.4791 215.928 24.5412 215.931 24.6239L215.945 24.6091Z" fill="#9B1D1F"/>
<path d="M199.227 65.3752C200.343 67.3104 201.451 69.2308 202.556 71.1483C202.899 72.3035 205.809 75.2137 204.291 75.9996C197.918 76.8268 199.185 77.338 195.956 71.9194C192.715 77.1873 194.629 77.6925 187.609 77.6452C186.779 77.3705 187.276 76.4959 187.562 75.9819C189.226 72.6787 190.927 69.4288 192.558 66.102C190.836 62.7457 188.735 59.5933 186.986 56.2577C186.655 55.454 187.417 55.0936 188.094 55.0699C189.728 54.9872 191.332 54.5825 192.963 54.7184C194.035 56.1395 194.748 57.856 195.793 59.3451C196.183 59.289 196.228 58.9758 196.34 58.7572C199.12 53.3652 197.992 53.4656 204.358 53.2441C206.444 53.2057 199.584 63.7532 199.227 65.3752Z" fill="black"/>
<path d="M172.499 79.0309C171.598 80.3516 168.416 79.8434 166.868 80.1241C165.795 79.935 166.38 78.7739 166.723 78.1623C168.36 74.9271 170.005 71.7451 171.636 68.5011C169.994 65.5082 168.221 62.5626 166.531 59.5933C166.079 58.9581 165.518 57.7615 166.667 57.5488C173.247 56.5915 171.622 56.5827 174.925 61.9392C178.216 56.6536 176.033 55.9534 183.011 55.6136C185.437 55.6874 182.343 59.2122 182.072 60.326C180.825 62.7605 179.578 65.195 178.296 67.6975C179.885 70.8026 181.82 73.7985 183.516 76.8653C184.146 77.9732 183.912 78.3957 182.677 78.5139C176.52 79.3766 178.089 79.0634 174.945 74.283C174.071 75.9257 173.323 77.4 172.499 79.0309Z" fill="black"/>
<path d="M157.338 70.1645C159.01 73.1899 160.724 76.0675 162.441 79.0516C162.786 79.5952 163.294 80.5141 162.405 80.8243C156.251 81.6368 157.238 82.204 154.144 76.8712C153.757 76.9332 153.713 77.2464 153.601 77.4621C151.007 82.6088 151.816 82.3281 145.875 82.4995C143.629 82.7388 150.383 72.3921 150.702 70.9031C150.253 69.3638 143.476 60.1694 145.538 60.0424C152.174 59.0615 150.658 58.8458 153.967 64.3234C157.306 59.0053 155.276 58.1515 162.464 58.0806C164.627 57.8767 157.734 68.6045 157.338 70.1645Z" fill="black"/>
<defs>
<clipPath id="clip0_2435_72280">
<rect width="82" height="83" fill="white" transform="translate(217.004 97.0001)"/>
</clipPath>
</defs>
</svg>
