<svg width="308" height="200" viewBox="0 0 308 200" fill="none" xmlns="http://www.w3.org/2000/svg">
<g clip-path="url(#clip0_2107_44884)">
<path d="M121.234 191.669L122.883 191.625C133.161 192.91 143.573 192.106 153.894 191.934C161.885 191.8 170.585 191.496 177.937 195.193C179.331 195.894 181.087 197.035 179.193 198.409C176.773 200.165 166.979 199.596 163.773 199.483C154.637 199.162 145.465 198.527 136.301 199.02C129.694 199.376 123.613 200.196 116.863 199.958C114.042 199.858 108.788 199.68 106.689 197.637C105.563 196.54 106.093 195.73 107.155 194.866C110.245 192.351 117.335 191.717 121.236 191.669H121.234Z" fill="#CCCCCC"/>
<path d="M175.876 97.0786C175.99 96.7046 175.938 96.6028 175.722 96.77C173.798 99.1782 172.107 101.754 170.65 104.497L166.858 101.32C166.437 99.0206 166.187 96.6553 166.108 94.2246C165.168 90.8239 164.593 87.4061 164.38 83.9733C164.599 82.4943 164.796 73.3877 163.674 73.1219C163.254 73.0222 163 73.3416 163.083 73.8024C163.206 76.3103 163.221 78.7925 163.13 81.2479C161.446 75.6801 159.454 69.9945 156.366 65.0612L156.438 64.8469C157.587 65.237 158.769 65.6153 159.985 65.9819L160.294 65.7718C160.509 65.1674 159.114 64.2382 158.597 64.5382C156.603 63.9295 154.575 63.385 152.513 62.906C152.26 62.8599 151.979 62.8192 151.706 62.8202C151.709 62.8202 151.712 62.8192 151.715 62.8181C152.418 62.6295 153.573 62.1257 153.97 61.6081L154.213 61.8717C156.918 61.89 160.971 63.5608 161.726 66.387L161.992 66.6978L162.05 67.0729L163.277 67.7128C165.327 69.3772 167.315 71.1284 169.241 72.9654C169.543 73.213 169.902 73.4702 170.014 73.0211C170.017 72.7189 169.806 72.5924 169.631 72.4017C167.734 70.3396 164.947 68.5284 163.295 66.7053C162.967 66.3431 162.794 65.7879 162.45 65.3903C160.51 63.146 157.925 61.6981 155.05 60.9886L157.521 58.9126C159.591 56.4798 160.592 53.3417 161.097 50.2272C162.627 49.6238 164.342 49.3119 165.613 48.1866C166.27 47.6046 168.087 45.4686 168.624 44.7173C168.781 44.4966 168.921 44.3122 168.933 44.025C168.591 43.9671 168.23 44.1461 167.85 44.5619C168.203 41.8569 166.3 38.6845 163.427 38.932C163.643 33.7834 160.64 28.8212 156.067 26.413L160.207 28.0067L160.603 27.832C160.978 27.9027 160.985 27.8073 160.888 27.4729C160.812 27.2125 156.819 25.1933 156.311 25.2673C156.197 25.2844 156.085 25.3209 155.974 25.3648C151.331 23.4078 146.252 22.9855 141.256 23.2202C138.365 23.3563 135.544 23.695 132.834 24.7485C132.719 24.6982 132.603 24.6532 132.482 24.6274C131.66 24.4549 128.435 25.905 127.482 26.3733C126.446 26.8824 123.434 28.4986 122.808 29.2381C122.658 29.416 122.544 29.6057 122.498 29.8372C122.353 30.0826 122.404 30.1051 122.652 29.9915L123.272 29.9755C125.186 28.8416 127.148 27.758 129.205 26.9135C125.763 28.7537 122.436 31.6259 121.307 35.4832C120.76 37.3491 120.893 39.0231 121.052 40.8612C117.037 41.6918 115.839 46.1931 117.87 49.4245C118.132 49.5938 118.618 50.194 118.96 50.4169C120.919 51.6869 122.748 52.0042 124.93 52.6986C125.713 55.0276 126.592 57.4733 128.21 59.3681C128.684 59.9233 129.261 60.2995 129.737 60.7721C129.865 60.8986 129.959 60.9061 129.901 61.1462C129.463 61.2201 129.027 61.3166 128.595 61.4334C128.748 61.5963 128.873 61.7989 128.963 62.0421C129.516 61.9585 130.093 61.9414 130.698 62.0057L130.983 61.7635L131.029 62.1172C131.801 62.443 132.51 62.8288 133.155 63.2747C132.458 63.3947 131.721 63.4526 130.942 63.4461L130.828 63.7687C130.776 64.2585 131.498 64.4964 131.909 64.3861C132.168 64.6819 132.587 64.7772 133.167 64.6733C133.118 65.5575 132.936 66.4181 132.623 67.2562L132.834 67.6238L132.466 68.1232C129.812 74.8506 127.603 81.6723 126.065 88.6365C125.792 89.7929 125.426 90.8593 124.966 91.8367C124.853 91.9846 124.746 92.1357 124.657 92.2954C124.57 92.4519 124.49 92.6084 124.444 92.7745C123.446 96.3841 122.441 100.04 121.663 103.687C121.178 103.568 120.575 103.57 119.849 103.691C119.238 99.1793 119.828 94.6008 120.531 90.123C120.993 86.9763 121.537 83.8479 122.165 80.7356L122.035 79.9618L121.664 80.0304L120.647 82.5833L120.472 82.5565C120.505 81.1514 120.368 75.6169 119.519 74.8913C119.233 74.6459 118.506 75.4743 118.83 75.8473C119.395 82.1749 119.949 88.6418 118.367 94.8708L111.062 103.079C110.353 102.748 109.676 102.212 109.034 101.471C108.54 100.98 108.092 100.802 107.688 100.936V101.09L107.49 101.303C104.152 98.8009 100.055 96.5996 95.8753 95.5793C95.7499 95.5482 95.6117 95.5632 95.4691 95.5825C95.3234 95.6018 95.1808 95.6436 95.0383 95.6918C90.3215 103.857 95.2548 107.452 101.29 112.499C104.667 115.323 108.999 117.248 112.081 120.28C112.53 120.721 113.705 121.658 113.819 121.797C113.92 121.92 113.974 122.373 114.138 122.634C114.989 123.987 116.064 125.001 117.56 125.613C118.252 124.016 118.532 122.254 118.332 120.523C118.18 120.214 117.509 118.621 117.569 118.505C117.587 118.471 118.113 118.026 118.152 118.026C118.238 118.027 118.106 118.945 118.05 119.091L118.331 119.29C118.439 119.393 118.585 119.474 118.71 119.409C118.766 119.38 119.141 118.465 119.209 118.29C119.258 118.166 119.258 118.032 119.257 117.902C121.7 118.835 125.025 118.505 123.891 115.012C125.05 114.184 125.162 112.488 124.24 111.437C124.912 110.257 125.078 109.095 124.24 107.932L125.13 106.689C137.95 106.455 150.775 106.451 163.569 106.921L164.238 110.244C164.271 110.435 164.432 110.442 164.612 110.346C165.233 111.55 165.46 112.945 165.43 114.331C165.267 116.784 165.519 119.142 165.987 121.552C165.966 124.442 166.201 127.249 166.72 130.035C166.825 130.765 166.409 131.476 165.692 131.012C159.261 130.509 152.722 130.248 146.33 130.278C145.578 130.281 144.832 130.409 144.094 130.55C143.962 130.609 143.959 130.661 144.094 130.705C144.91 131.118 145.849 131.227 146.91 131.027L147.026 131.168C147.15 131.636 148.155 131.766 148.632 131.783C154.332 131.983 160.041 132.102 165.744 132.089C165.795 132.532 165.932 132.79 166.155 132.864L165.968 133.505C166.615 141.719 167.631 150.184 168.786 158.352L169.087 158.467C169.342 158.253 169.252 157.924 169.224 157.64C168.824 153.522 168.385 149.397 168.007 145.279C167.598 140.809 167.509 136.302 166.763 131.872C168.224 131.543 167.31 129.024 167.237 127.851C167.145 126.375 167.133 124.875 167.072 123.396C167.88 123.11 168.66 122.714 169.241 122.069C169.417 121.702 169.447 121.059 168.932 121.144L168.558 121.128C168.211 121.552 167.81 122.005 167.257 122.146L166.313 112.849C167.395 111.533 167.484 109.764 167.345 108.132C167.088 106.525 166.964 104.925 166.975 103.331C167.149 103.305 169.432 105.374 169.537 105.641C169.573 105.733 169.735 105.736 169.858 105.72L170.013 105.874C169.592 106.011 169.543 106.396 170.013 106.492C169.902 107.481 169.976 108.511 170.237 109.584C170.232 110.807 170.414 111.935 170.783 112.969L170.628 106.184C171.674 106.266 172.892 104.767 173.251 103.87C173.576 103.421 173.196 103.279 172.706 103.393C172.393 103.29 175.563 98.1043 175.907 97.652L175.875 97.0851L175.876 97.0786ZM113.243 106.332C112.975 106.402 112.934 106.221 112.78 106.103C112.452 105.852 111.171 104.607 111.227 104.263L113.705 101.86L113.243 106.331V106.332ZM164.294 104.103C160.372 90.6975 155.037 77.7068 149.359 64.9423C149.179 64.5372 149.128 64.2414 149.606 64.251L149.65 63.9198C150.398 63.7055 154.43 64.4075 154.692 64.714C155.61 65.7911 156.213 66.9754 156.825 68.2368C158.939 72.5935 160.76 77.232 162.491 81.7934C162.613 82.101 162.847 82.3475 163.073 82.5822C163.059 83.6818 163.218 84.8082 163.549 85.9625C163.728 88.017 164.083 90.0265 164.615 91.99L164.357 92.3962L164.979 97.0218C165.179 99.3904 165.366 101.959 164.294 104.104V104.103Z" fill="#EED3CA"/>
<path d="M127.807 64.2254C127.596 64.279 127.386 64.3368 127.179 64.4086C127.122 64.4279 127.065 64.4504 127.008 64.4719C126.988 64.4815 126.954 64.4976 126.903 64.5212C126.863 64.5448 126.822 64.5673 126.781 64.5898C126.519 64.847 126.281 65.1707 126.014 65.5908C125.854 65.6562 125.695 65.7258 125.538 65.7955C125.464 65.9187 125.393 66.0452 125.328 66.1749C125.256 66.3174 125.192 66.4632 125.124 66.6089C125.329 66.1695 125.101 66.6732 125.065 66.7633C124.982 66.9798 124.902 67.1973 124.823 67.416L124.94 67.3484C123.573 70.5133 122.524 73.87 121.675 77.246C121.637 77.4014 121.642 77.5686 121.651 77.739C121.659 77.9137 121.689 78.0874 121.726 78.261C121.861 78.1345 121.991 78.0048 122.106 77.8623C122.218 77.723 122.325 77.5826 122.394 77.4272C123.763 74.3759 124.947 71.2753 125.864 68.1394C126.493 66.1309 127.963 64.7323 130.057 64.3036L130.365 63.9178C130.198 63.4162 129.174 63.5888 128.615 63.7131C128.399 63.9574 128.12 64.1429 127.806 64.2232L127.807 64.2254Z" fill="#EED3CA"/>
<path d="M198.401 0.376892C198.425 0.506573 198.395 0.616964 198.299 0.70056C190.676 2.81083 183.013 5.02292 175.529 7.42149C175.245 7.85876 174.872 7.68728 174.7 7.21785C173.949 6.59195 172.1 7.45042 171.404 7.93378L171.72 8.01631C172.374 16.242 173.032 24.4676 173.696 32.6965L175.297 32.3535L175.57 32.6108C175.877 32.6697 176.184 32.7179 176.488 32.7565L176.516 29.2069L176.804 28.6014C176.848 28.4663 176.9 28.4685 176.959 28.6014C177.562 29.4984 177.629 30.9099 177.396 31.9559C181.938 30.224 186.705 28.94 191.531 27.9454C197.702 26.6744 204.57 25.3893 210.828 24.7559C211.065 24.7323 211.307 24.7506 211.551 24.7741C211.798 24.7988 212.042 24.846 212.287 24.8995C212.522 24.368 213.445 25.1696 212.904 25.5169C209.867 25.9649 206.805 26.4493 203.774 26.953C194.88 28.4331 185.907 29.9357 177.448 33.0984L179.425 59.0315C182.231 60.0721 183.968 60.5919 184.782 63.7332C186.041 73.6072 187.647 83.4877 188.066 93.4549C188.233 97.4268 188.426 100.643 185.138 103.48C184.716 103.844 183.445 104.377 183.26 104.582C183.132 104.724 182.632 104.603 182.857 105.227L186.521 149.28C186.265 150.636 181.995 151.048 181.751 149.275C180.81 136.524 179.759 123.786 178.811 111.036C178.67 109.154 178.999 106.411 179.014 104.612C178.798 104.554 177.931 104.707 178.053 104.408L177.306 104.141L176.961 104.634C176.381 104.504 175.829 104.348 175.264 104.171C175.004 104.017 174.934 103.871 174.871 103.614C174.322 101.38 175.996 97.7419 176.976 95.6756L176.807 95.5352C176.761 95.6274 176.71 95.6252 176.653 95.5352C176.484 95.0915 176.621 94.5888 177.065 94.0251L176.04 80.5682C175.819 80.2424 175.674 79.8834 175.573 79.4965C175.199 79.6883 174.524 79.0131 174.241 78.7023C173.796 78.2136 173.076 77.1461 173.413 76.5663L176.114 78.8792C176.258 78.757 176.207 78.369 176.197 78.1793C176.073 76.0197 175.936 72.6791 175.566 70.6353C175.48 70.1562 174.909 69.7854 174.816 69.0727C174.748 68.5518 175.228 67.0696 174.431 67.3257C174.295 67.3697 173.814 68.1574 173.266 68.3203C172.117 68.6622 170.772 68.0009 170.633 66.7748C170.454 65.1962 171.549 62.3378 172.964 61.5415C173.491 61.2446 174.038 61.2296 174.334 61.0603C175.116 60.6123 174.547 58.756 174.495 57.979C173.409 41.727 171.926 25.4836 170.638 9.24238C170.735 8.23066 170.258 7.37969 171.202 6.72485C172.609 5.74956 174.133 6.53515 175.581 6.3208C179.125 5.79672 184.405 3.40136 188.105 2.33926C191.134 1.47008 194.472 0.630897 197.604 0.265431C197.851 0.236494 198.245 0.0885927 198.404 0.375821L198.401 0.376892Z" fill="#EED3CA"/>
<path d="M167.391 182.83C167.001 183.131 165.644 182.229 165.695 181.751C165.907 180.562 165.953 179.318 165.833 178.02L166.033 177.784C162.307 178.426 158.4 178.635 154.618 178.466C154.43 178.496 155.024 181.923 155.13 182.248C155.618 183.744 156.901 185.799 158.063 183.604C158.593 183.004 159.08 182.797 159.525 182.986C159.902 183.134 159.759 183.532 159.525 183.757C159.577 184.044 159.401 184.315 158.997 184.572C156.955 187.353 156.007 186.166 154.54 183.991C153.946 183.111 153.86 186.369 153.857 186.708C153.851 187.486 153.823 192.604 154.114 192.67C160.892 194.22 169.168 195.681 175.863 194.032C175.792 193.566 175.847 193.225 176.032 193.011C176.085 192.602 176.24 192.293 176.495 192.086C177.083 192.823 177.177 195.934 176.723 196.555C176.117 197.384 173.398 197.845 172.387 197.927C169.339 198.174 165.595 197.87 162.556 197.462C161.14 197.272 154.157 196.082 153.433 195.324C153.158 195.037 152.945 193.144 152.894 192.624C152.699 190.656 152.498 184.828 153.377 183.24C153.502 183.013 154.104 182.892 154.255 182.687C153.683 176.749 152.612 170.819 151.808 164.869L151.781 164.401C156.002 162.62 160.406 161.235 165.002 160.357C165.158 160.327 165.324 160.343 165.493 160.362C165.663 160.382 165.836 160.422 166.006 160.47C166.183 166.207 166.661 171.951 166.938 177.659C167.023 179.418 166.669 181.155 167.395 182.833L167.391 182.83Z" fill="#EED3CA"/>
<path d="M134.38 160.623C134.439 161.317 134.287 161.99 134.2 162.679C133.405 168.914 131.648 175.625 131.296 181.83C131.19 183.711 131.678 182.605 132.442 183.613C132.882 184.195 132.867 184.797 132.992 185.454L132.642 185.458C131.803 183.473 131.143 184.047 130.523 185.608C130.335 186.732 128.65 187.308 127.879 186.16C127.112 183.98 125.359 182.537 123.034 182.229L122.81 181.907C122.361 181.924 122.156 181.763 122.194 181.423L120.885 181.574L120.65 181.29C119.809 180.563 121.437 180.641 122.052 180.68C125.035 180.869 128.16 182.457 129.044 185.474C129.848 185.092 130.189 184.315 130.065 183.143C130.28 181.824 130.414 180.528 130.464 179.256L119.577 178.374L119.416 178.051L119.724 178.225V181.074L119.416 181.29C119.417 180.708 120.317 180.745 120.342 181.29C120.091 181.743 119.673 182.131 119.089 182.455C117.557 184.279 116.112 186.181 114.753 188.16C114.294 188.649 113.24 189.585 112.628 189.465C112.553 189.098 112.773 188.994 112.935 188.769C114.378 186.75 116.06 184.399 117.588 182.47C118.296 181.578 118.529 182.022 118.652 180.448C119.078 174.912 118.851 169.002 119.109 163.4C119.222 163.281 119.338 163.166 119.466 163.07C120.511 162.285 124.758 161.49 126.303 161.21C128.56 160.801 131.295 160.522 133.588 160.418C133.865 160.405 134.132 160.517 134.383 160.624L134.38 160.623Z" fill="#EED3CA"/>
<path d="M122.654 29.9903C124.846 28.6431 127.665 27.1308 130.062 26.2145C130.643 25.9926 131.44 25.5157 131.757 26.2874C131.018 26.2134 130.38 26.6593 129.748 26.9797C124.388 29.6891 119.845 34.6406 121.576 41.0946C118.478 41.414 116.682 44.2959 117.325 47.2722C117.425 47.733 117.69 48.2903 117.853 48.7501C117.922 48.9473 118.2 49.2742 117.873 49.4232C116.925 48.8101 115.756 48.4918 114.737 47.6998C111.236 44.9829 111.242 41.0678 113.674 37.59C114.192 36.8494 114.813 36.2932 115.251 35.5419C116.864 33.5549 119.022 32.033 121.158 30.6033L121.73 30.6065C121.854 30.3171 122.356 29.9592 122.656 29.9892L122.654 29.9903Z" fill="#371D0E"/>
<path d="M160.603 27.8299L161.133 27.7088C162.486 28.1868 163.784 28.7956 164.922 29.6809C165.669 29.3786 166.63 30.4611 167.081 31.0688C172.454 34.6023 173.445 38.99 168.932 44.024C168.529 44.4742 167.846 44.9768 167.391 45.412C168.133 42.38 166.548 39.2033 163.226 39.0865C163.127 32.8264 159.679 27.876 153.815 25.7454C153.627 25.381 154.275 25.5461 154.438 25.5868C156.098 25.9951 158.925 27.1644 160.602 27.8299H160.603Z" fill="#371D0E"/>
<path d="M162.302 23.3576C162.106 23.7713 160.859 23.663 160.76 23.2032C160.344 23.14 160.292 23.0607 160.605 22.7402L160.23 22.4798C159.824 17.6655 156.431 14.9776 152.355 12.863C148.205 10.7109 143.283 9.18799 138.603 9.28981L138.237 9.01329C136.659 8.95864 134.613 9.24372 133.3 10.0925L132.995 10.5438C127.593 12.9166 122.878 17.4822 121.727 23.3758C121.518 24.2643 121.107 24.7723 120.496 24.8977C120.484 25.3585 119.808 25.3231 119.725 24.8977C119.774 24.4872 119.832 24.0703 119.879 23.6641L120.173 22.8003C120.564 16.5713 126.202 12.1739 131.604 9.93714C133.991 8.68641 138.534 7.79901 141.253 7.9244C142.844 7.99835 144.191 8.34238 145.868 8.38739C149.782 8.49243 152.723 9.41627 156.026 11.5083C159.329 13.6004 161.007 16.1618 162.073 19.9601C162.355 20.9643 162.647 22.349 162.303 23.3543L162.302 23.3576Z" fill="#835840"/>
<path d="M199.017 0.376613C200.852 0.0132909 203.029 0.279086 204.92 0.60061C206.698 0.901771 208.769 1.32082 210.279 2.22752C210.375 2.97989 209.903 3.36357 209.799 4.06235L209.199 4.07736C209.25 4.55964 209.184 4.93797 209.054 5.39775C208.612 6.96464 207.382 9.23353 206.731 10.8647C206.304 10.8251 206.201 10.3621 206.423 9.47682L206.324 8.81877C206.9 7.17899 207.367 5.49957 207.634 3.78155C207.885 3.69046 207.699 3.64008 207.078 3.63151C204.388 2.7141 201.691 2.20501 198.986 2.10213C193.263 3.03991 187.634 4.58644 182.101 6.74386C180.106 7.38906 178.079 7.89385 176.006 8.18429C175.917 8.19715 175.818 8.1575 175.713 8.11356C175.608 8.06962 175.51 8.00531 175.415 7.93565C175.377 8.11034 175.278 8.23038 175.116 8.29576L175.569 11.0201L175.938 11.317C176.151 11.8229 176.28 13.8453 175.878 14.259C175.714 15.0338 175.765 16.0102 176.032 17.1891C176.55 17.4956 176.607 19.383 176.032 19.6563C175.934 19.9371 175.831 19.8856 175.724 19.5019C175.262 19.4419 174.972 18.3305 174.876 17.8547C174.379 14.6973 173.757 11.5678 173.009 8.46616C172.571 8.24002 172.074 8.20894 171.58 8.23895L171.404 7.93458L171.314 7.63556C172.119 7.04074 174.918 5.91433 175.11 7.47051L175.372 7.1672L187.106 3.5029C190.153 2.55226 193.717 2.01853 196.465 0.829964C196.834 0.670273 198.001 0.418411 198.403 0.376613C198.604 0.35625 198.817 0.388402 199.02 0.376613H199.017Z" fill="#DD554B"/>
<path d="M121.418 69.0092C122.589 69.1924 121.674 70.1517 120.755 70.411C117.633 72.532 114.766 75.0099 112.154 77.8436C112.412 78.2669 111.853 78.0847 111.969 77.9454C112.628 77.1555 114.19 77.8554 112.536 79.5294C111.038 80.5926 109.443 81.5111 107.747 82.2849C105.38 85.4594 102.717 88.4732 99.7604 91.3272C99.0938 92.5415 98.1892 93.2757 97.0435 93.5297C96.3136 93.8426 95.4273 92.6594 96.0511 91.9949C98.9812 88.6468 102.012 85.333 105.145 82.0534L105.527 81.345C106.306 80.6569 106.796 80.0621 107.997 79.9549C107.838 79.6163 107.719 79.2658 107.987 78.9453C109.399 77.6357 110.677 76.1792 112.079 74.8631C112.498 74.4697 113.01 74.2329 113.394 73.787C113.569 73.5587 113.775 73.4044 114.011 73.324C114.181 73.1547 114.312 73.1547 114.474 72.861C114.553 72.7078 114.707 72.6049 114.937 72.5524C114.997 72.5256 115.042 72.4238 115.092 72.398C116.581 71.6349 117.884 70.4174 119.404 69.6919C120.041 69.3886 120.922 69.2525 121.417 69.0049L121.418 69.0092Z" fill="#DD554B"/>
<path d="M137.464 130.547C139.665 130.426 141.905 130.479 144.097 130.701C144.919 130.758 145.776 130.825 146.627 130.87C146.684 130.874 147.442 131.002 147.028 131.164L146.814 131.486L143.093 132.062C135.18 132.653 127.265 133.311 119.348 134.039L118.334 133.94C118.212 134.424 117.271 134.385 117.1 133.94C117.178 133.245 117.1 132.294 117.408 131.626C117.325 131.449 117.287 131.354 117.384 131.18C117.791 130.447 129.193 130.349 130.983 130.7C133.109 130.391 135.312 130.449 137.463 130.546L137.464 130.547Z" fill="black"/>
<path d="M160.295 65.7704C160.681 65.3449 161.879 66.1691 161.991 66.6953C162.663 67.0383 163.146 67.2183 163.83 67.7113C165.953 69.2429 167.689 71.4174 169.628 72.8707C169.765 72.9736 169.973 72.9843 170.014 73.0186C170.922 73.7742 172.775 75.6112 173.408 76.5661C173.688 76.9884 173.834 77.6893 174.109 78.1008C174.396 78.5317 175.12 78.985 175.567 79.4963C176.657 81.9709 174.038 80.5112 172.964 79.4073C171.433 77.999 169.865 76.6658 168.261 75.4097L167.237 78.1448C166.901 79.1479 166.541 79.4448 166.156 79.0343C166.082 78.9625 166.017 78.8875 165.983 78.7996C165.82 78.3806 166.606 75.2103 166.773 74.5619C166.449 74.1097 166.35 73.5363 166.477 72.8429C164.044 70.6415 161.614 68.5194 158.52 67.3459C157.553 66.8754 156.459 65.8786 156.436 64.8455C156.478 64.8155 156.506 64.6483 156.598 64.6097C157.073 64.4136 157.322 64.8455 157.742 65.0041C158.513 65.2956 159.621 65.4821 160.292 65.7704H160.295Z" fill="#DD554B"/>
<path d="M166.157 132.86C166.84 136.037 166.734 139.919 167.102 143.251C167.591 147.691 168.363 152.133 168.914 156.554C168.956 156.889 169.137 158.269 169.088 158.462C168.983 158.876 168.312 158.83 168.007 158.925C167.449 159.082 166.922 158.792 167.39 158.307L167.043 158.127C166.098 151.748 165.286 145.307 164.609 138.805C163.764 139.921 161.701 142.472 162.672 139.168C163.609 137.243 164.443 135.324 165.06 133.3C165.273 132.809 165.816 132.224 166.155 132.859L166.157 132.86Z" fill="#4D50A8"/>
<path d="M128.209 21.969C128.243 21.5499 129.211 20.79 129.623 20.55C131.52 19.4439 133.581 19.0667 135.681 19.6518C138.405 18.1428 140.433 17.6905 143.458 18.743C146.429 17.6187 149.888 17.8513 152.404 19.9209C153.843 19.6165 154.911 19.5425 156.338 20.0827C156.994 20.3313 158.478 20.9069 158.291 21.6603L158.022 21.8629C156.431 20.774 154.876 20.4492 153.353 20.8897C153.364 21.1373 153.213 21.2788 152.899 21.3141L153.074 22.6302C154.687 22.9335 156.28 23.3794 157.761 24.0085L157.981 24.4372C158.246 24.2218 158.552 24.3879 158.903 24.9356C159.144 24.5679 159.403 24.4018 159.679 24.4372C159.873 24.479 160.018 24.7083 160.114 25.1263L162.592 26.4006C162.692 26.5571 162.784 26.7125 162.764 26.9044L163.118 26.8379C163.878 28.4509 164.679 27.7875 164.061 26.3471L163.048 24.4694L163.227 24.1275C163.27 24.1628 163.477 24.1553 163.69 24.3525C165.188 25.7404 164.585 27.4102 165.158 28.7521C165.424 29.378 167.1 30.1635 167.084 31.0681C166.422 30.633 165.606 30.0339 164.924 29.6802C161.08 26.8958 156.977 24.6805 152.347 23.5112L151.811 23.0482L151.615 22.6913C152.293 20.6432 150.576 19.5865 148.812 19.1835C148.299 19.0667 147.189 18.818 146.874 19.1921L146.642 19.4847C146.189 19.4525 144.275 19.8405 144.165 20.1256C144.07 20.3721 144.421 21.6539 144.714 21.8136C145.447 21.8254 146.975 22.0643 147.182 22.7385C146.809 23.1554 144.745 23.3494 144.791 22.5841C144.759 22.7042 144.708 22.8832 144.613 22.8928C144.2 22.9325 141.498 22.9346 141.345 22.7899C141.293 22.7406 141.265 22.6656 141.243 22.5841L141.031 22.896L137.886 23.1575L137.617 22.8928L137.512 22.7117C134.948 23.7888 132.38 24.4854 129.809 24.7994C125.803 26.1102 122.191 28.7135 118.888 31.2846L118.488 31.2214C118.833 29.7295 118.087 28.4016 118.864 26.8936C119.402 25.8498 119.54 26.4039 119.723 24.898H120.495C121.218 24.6312 121.963 24.4243 122.731 24.2764C123.374 23.3161 123.919 22.7031 125 22.208C125.553 21.955 126.703 21.5081 127.129 21.9668C127.56 21.9454 127.554 22.1769 127.202 22.4223C125.753 22.7696 124.532 23.5594 124.056 25.0256C123.892 25.5315 123.632 26.4231 124.352 26.4392C125.406 25.4114 126.792 24.8573 128.166 24.3654L128.517 24.5883L128.625 24.2689C128.938 24.344 129.21 24.2957 129.443 24.1253L129.745 23.7234L135.435 22.1726C135.503 20.9004 135.41 20.8908 134.128 20.8758L133.916 20.5778C132.267 20.1213 129.796 21.2541 128.886 22.7449L128.517 22.7374C128.412 23.1833 128.101 23.1361 127.899 22.7374C127.203 22.6635 127.387 21.5306 128.208 21.9657L128.209 21.969Z" fill="#EED3CA"/>
<path d="M133.454 192.392C133.44 193.618 133.258 194.883 133.204 196.109C130.253 197.365 126.979 198.019 123.793 198.386C120.84 198.728 112.795 199.231 110.36 197.821C108.672 196.844 109.49 194.684 110.006 193.163C110.282 192.674 110.59 192.52 110.932 192.7C111.218 192.911 111.2 193.373 110.875 194.085C117.606 196.125 125.329 194.856 132.237 193.14C132.143 192.665 132.239 192.364 132.53 192.238C132.824 191.99 133.223 192.129 133.456 192.392H133.454Z" fill="#EED3CA"/>
<path d="M118.335 133.939C118.436 134.007 118.531 134.081 118.611 134.168C119.787 135.451 119.257 143.559 118.946 145.744C118.953 149.527 118.812 153.27 118.522 156.971L118.181 157.072C118.13 157.261 118.019 157.454 118.005 157.669L117.563 157.689C117.189 157.567 116.83 157.42 116.483 157.226L116.288 157.082C116.214 153.721 116.337 150.361 116.477 146.923C116.99 142.626 117.197 138.349 117.1 134.092C117.106 134.042 117.095 133.988 117.1 133.938C117.502 133.909 117.938 133.981 118.335 133.938V133.939Z" fill="#4D50A8"/>
<path d="M134.379 160.314C134.4 160.394 134.37 160.522 134.379 160.622C131.857 160.989 129.308 161.024 126.787 161.438C124.178 161.867 121.614 162.589 119.106 163.398C119.108 163.347 119.104 163.295 119.106 163.244L119.26 163.09C119.281 162.681 119.24 162.264 119.26 161.856V161.702C119.323 160.573 119.392 159.438 119.415 158.309C120.659 158.705 123.312 158.538 124.869 158.793C126.151 159.003 126.319 159.235 127.662 159.226C128.903 159.219 133.163 159.025 133.977 159.558C134.282 159.759 134.297 160.005 134.379 160.314Z" fill="black"/>
<path d="M165.695 159.389V159.697C165.89 159.718 165.962 159.819 166.004 160.006C166.021 160.154 166 160.317 166.004 160.469C162.228 161.221 158.615 162.067 155.012 163.438C153.843 163.883 152.709 164.528 151.502 164.787C151.316 163.408 151.115 162.016 151.039 160.623C153.11 160.626 155.157 159.884 157.273 160.018C160.004 160.191 162.331 159.271 165.163 159.234C165.392 159.231 165.612 159.389 165.694 159.39L165.695 159.389Z" fill="black"/>
<path d="M165.695 181.75C165.927 181.822 167.113 182.622 167.392 182.829C167.79 183.124 168.276 183.694 168.627 184.063L168.935 184.371C169.149 184.602 169.376 184.796 169.553 184.989C170.394 185.736 171.217 186.507 172.021 187.303L172.175 187.457L172.33 187.611C173.644 188.656 175.709 189.82 176.34 191.467L176.494 191.776C176.51 191.867 176.489 191.983 176.494 192.085C176.509 192.391 176.486 192.704 176.494 193.011H176.031C175.751 193.036 175.514 192.872 175.321 192.518C173.414 191.143 171.543 189.69 169.706 188.161L169.552 187.767C169.095 187.753 168.735 187.427 168.626 186.995C168.499 186.949 168.371 186.898 168.272 186.805C167.974 186.526 167.296 185.805 167.391 185.453C166.965 185.31 166.605 185.104 166.311 184.835C164.873 182.759 161.99 183.205 159.889 183.925L159.523 183.756C159.335 183.515 159.434 183.252 159.523 182.984C159.526 182.838 159.547 182.681 159.647 182.565C159.959 182.201 162.178 181.498 162.764 181.384C163.61 181.22 165.253 180.949 165.694 181.751L165.695 181.75Z" fill="#717171"/>
<path d="M118.488 31.2224C120.793 29.2118 126.937 25.0802 129.863 24.4726C130.334 24.375 130.803 24.4897 131.301 24.3665C133.665 23.7845 135.949 22.8724 138.31 22.2744L137.618 22.8939L137.401 23.2615L132.835 24.7448C128.637 25.8176 125.954 27.3588 122.5 29.8345C122.245 30.0703 121.988 30.3275 121.728 30.6062C121.12 31.0027 120.482 31.3543 119.89 31.7765L115.248 35.5416C116.322 33.6982 116.814 32.6822 118.488 31.2235V31.2224Z" fill="#835840"/>
<path d="M205.65 13.7963C208.425 16.6665 211.336 19.4605 213.429 22.9083C213.651 23.2738 214.602 24.8621 214.599 25.1397C214.596 25.7002 213.741 25.4805 213.364 25.518H213.209C213.111 25.533 212.999 25.503 212.901 25.518C212.865 25.1097 212.31 24.9393 212.283 24.9007L211.934 24.7582C210.282 22.246 208.461 19.8839 206.471 17.6728C206.052 17.2324 204.27 14.8049 204.444 14.3333L204.724 14.105C204.963 13.6216 205.362 13.0836 205.65 13.7963Z" fill="#DD554B"/>
<path d="M170.014 106.486C170.521 108.591 170.718 110.83 170.786 112.964C170.865 115.49 171.005 120.107 169.244 122.063C169.154 121.953 168.935 121.186 168.935 121.138C168.854 120.781 168.778 120.423 168.725 120.061C168.671 119.701 168.622 119.342 168.613 118.982C168.52 114.886 168.432 110.548 168.492 106.606C168.715 105.973 169.919 105.782 170.015 106.486H170.014Z" fill="#50587F"/>
<path d="M120.649 181.288C120.987 181.272 122.343 180.973 122.499 181.136C122.551 181.19 122.354 181.798 122.808 181.905L122.624 182.215C121.155 182.367 119.714 183.363 119.147 184.74L118.797 184.835C118.764 185.196 118.598 185.502 118.179 185.453C118.343 185.83 118.189 186.292 117.716 186.841C117.599 187.056 117.393 187.262 117.099 187.458L117.066 187.859C115.332 189.669 113.427 191.318 111.362 192.771L110.928 192.702C110.68 192.878 110.3 193.08 110.002 193.165C110.577 191.466 111.328 190.67 112.625 189.463C113.2 188.928 113.976 188.557 114.625 187.84C116.565 185.699 117.547 182.534 120.338 181.289C120.385 180.995 120.506 181.013 120.647 181.289L120.649 181.288Z" fill="#717171"/>
<path d="M119.105 130.238L119.119 130.559C117.111 131.755 117.011 130.194 117.255 128.542C117.228 128.294 117.288 128.014 117.255 127.77C117.197 127.458 117.248 127.252 117.409 127.153C117.426 126.577 117.481 126.168 117.563 125.61C117.814 123.915 118.091 122.221 118.335 120.521C118.004 120.223 117.841 119.458 118.335 119.287C118.34 119.269 118.532 119.223 118.559 119.124C118.719 118.524 118.625 118.23 119.261 117.899C120.329 117.806 120.363 118.642 120.381 119.496C120.173 122.64 119.904 125.864 119.571 129.015C119.527 129.429 119.449 130.005 119.107 130.237L119.105 130.238Z" fill="#DD554B"/>
<path d="M158.291 21.661C158.682 21.272 159.597 22.1937 159.217 22.586C159.579 22.8946 160.052 23.0372 160.633 23.0104L160.759 23.2022C161.107 23.2247 162.039 23.2687 162.301 23.3565C162.401 23.3898 163.042 23.9771 163.227 24.1282C163.588 24.9974 165.364 27.2438 164.238 27.994C163.497 28.4881 163.155 27.2641 162.764 26.904C162.269 25.4411 161.373 24.2407 159.916 24.1636L159.679 24.4369C158.763 26.0177 158.69 24.8924 157.982 24.4369C157.136 22.7189 155.383 21.7521 153.588 21.2302L153.354 20.8904C153.285 20.3364 154.63 20.2667 154.952 20.2828C155.453 20.3063 157.786 21.3567 158.291 21.6621V21.661Z" fill="#AD8F7E"/>
<path d="M98.4331 94.7667C98.805 94.7667 99.1651 94.9221 99.5134 95.2297C100.853 96.0914 102.138 97.0163 103.371 98.0055L103.925 97.9916C104.52 98.2767 106.295 99.3677 106.712 99.7911C106.85 99.9304 106.888 100.135 106.919 100.319C107.217 100.545 107.474 100.802 107.691 101.091C107.81 101.259 108.025 101.826 107.617 101.706C107.244 101.596 105.602 100.281 105.055 99.9476C101.953 98.0591 98.5992 96.5105 95.041 95.6927C95.34 95.1761 95.5876 94.5052 95.967 93.9961C96.654 93.5321 97.953 94.2062 98.4352 94.7678L98.4331 94.7667Z" fill="black"/>
<path d="M116.483 157.229C116.369 157.166 116.129 157.264 116.042 156.979C115.824 156.233 116.028 155.513 116.027 154.845C116.018 147.906 116.361 140.994 117.1 134.095C117.492 135.508 117.445 137.033 117.415 138.496C117.339 142.136 116.771 145.794 116.631 149.434L116.483 157.228V157.229Z" fill="#EED3CA"/>
<path d="M132.992 185.452C133.026 185.635 132.964 185.876 132.992 186.069L133.146 186.532C133.337 188.346 133.475 190.571 133.455 192.392C133.1 192.559 132.839 192.435 132.529 192.238L132.205 191.898C131.831 189.756 131.385 187.721 130.866 185.794L130.522 185.606C130.04 184.69 131.068 184.564 131.221 183.749C132.364 183.852 132.521 184.624 132.991 185.452H132.992Z" fill="#717171"/>
<path d="M176.802 95.5376L177.264 95.23C177.438 95.4304 176.204 98.0369 176.029 98.5428C175.379 100.407 174.885 102.187 175.26 104.175C174.515 103.943 173.999 103.38 173.255 103.866C173.035 103.294 172.8 103.951 172.33 103.866C172.262 103.8 172.466 103.082 172.531 102.912C173.287 100.932 174.816 99.0025 175.877 97.0809C176.016 96.5161 176.324 96.0016 176.803 95.5386L176.802 95.5376Z" fill="black"/>
<path d="M105.528 81.3477L105.383 82.204C102.524 85.1792 99.7719 88.2229 97.1043 91.3567C96.2555 92.3545 95.3681 92.3845 97.0432 93.5324C97.608 93.3394 98.7259 94.0061 98.7398 94.6116C98.8984 94.7809 98.7955 94.8324 98.4311 94.7659C97.6745 94.4423 96.7742 94.1518 95.9629 93.9943C94.9469 92.4724 95.8589 91.7468 96.8096 90.599C99.2339 87.6731 102.764 83.7902 105.528 81.3477Z" fill="#EED3CA"/>
<path d="M131.602 9.9413C127.57 12.0526 121.489 16.2496 120.531 21.0049C120.36 21.8516 120.629 22.9555 119.877 23.6672C120.686 16.6044 123.959 13.2069 130.312 10.2714C130.588 10.1439 131.325 9.71623 131.601 9.9413H131.602Z" fill="#EED3CA"/>
<path d="M176.957 104.637C177.034 103.156 177.4 101.706 177.572 100.239C177.68 99.3217 177.583 97.9542 177.73 97.1579C177.778 96.8932 177.894 96.7249 178.191 96.7721C178.128 99.3282 178.354 101.867 178.357 104.424C178.357 104.708 178.192 104.918 178.192 104.946C177.851 104.763 177.369 104.731 176.957 104.638V104.637Z" fill="black"/>
<path d="M210.278 2.22841C206.708 1.25526 202.751 0.161009 199.016 0.377502C198.93 -0.0887081 199.252 0.0784855 199.549 0.0688398C202.536 -0.0308327 206.296 0.206022 209.081 1.34207C209.585 1.54785 210.199 1.61859 210.277 2.22841H210.278Z" fill="#EED3CA"/>
<path d="M206.731 10.8665C206.347 11.8279 205.966 12.8096 205.651 13.7967C205.269 13.7506 205.086 13.741 204.929 14.1L204.725 14.1043C204.65 14.0957 204.579 14.0818 204.519 14.0485C204.2 13.8696 205.781 10.1292 206.043 9.61044L206.421 9.47754L206.73 10.8655L206.731 10.8665Z" fill="#EED3CA"/>
<path d="M172.021 187.305C170.874 186.958 170.287 185.791 169.553 184.991C170.508 185.26 171.527 186.495 172.021 187.305Z" fill="#EED3CA"/>
<path d="M114.014 73.3272C113.838 73.503 113.784 73.817 113.396 73.7902C113.507 73.6627 113.401 73.1943 114.014 73.3272Z" fill="#EED3CA"/>
<path d="M114.941 72.5564C114.862 72.7697 114.705 72.864 114.478 72.8651C114.504 72.8179 114.427 72.6293 114.491 72.5725C114.581 72.4942 114.852 72.5961 114.94 72.5564H114.941Z" fill="#EED3CA"/>
<path d="M168.627 184.064C168.699 184.141 168.787 184.211 168.936 184.373L168.627 184.064Z" fill="#EED3CA"/>
<path d="M165.695 159.695C166.12 159.65 165.97 159.713 166.004 160.004L165.695 159.695Z" fill="#EED3CA"/>
<path d="M133.145 186.532L132.99 186.069C132.993 186.093 133.113 186.233 133.145 186.532Z" fill="#EED3CA"/>
<path d="M176.494 191.776L176.34 191.468C176.369 191.543 176.461 191.589 176.494 191.776Z" fill="#EED3CA"/>
<path d="M119.105 163.245C119.11 163.146 119.259 163.101 119.26 163.09L119.105 163.245Z" fill="#EED3CA"/>
<path d="M119.26 161.856C119.261 161.827 119.255 161.777 119.26 161.701V161.856Z" fill="#EED3CA"/>
<path d="M213.209 25.5162H213.363C213.271 25.5248 213.216 25.5151 213.209 25.5162Z" fill="#EED3CA"/>
<path d="M166.157 132.86C165.758 132.826 165.61 132.946 165.42 133.28C165.041 133.948 164.74 135.401 164.378 136.248C163.761 137.696 162.771 139.117 162.611 140.726L164.922 137.95C164.897 141.668 165.653 145.33 166.138 148.997C166.486 151.63 166.654 153.771 167.196 156.422C167.31 156.975 167.272 157.831 167.392 158.308C166.092 158.626 164.763 158.868 163.436 159.057C158.872 159.704 154.162 159.968 149.572 159.698C148.619 159.642 146.126 159.963 145.83 158.813C145.558 155.619 144.318 152.125 144.101 148.975C144.075 148.607 144.034 147.948 144.13 147.621C144.283 147.097 145.193 147.015 144.944 146.585C144.263 146.907 143.181 146.632 142.833 147.404C141.682 150.325 141.013 153.442 139.936 156.383C139.773 156.829 139.07 158.792 138.752 158.901C131.842 159.086 124.914 158.603 118.182 157.074C118.259 156.786 118.32 156.38 118.342 156.079C118.59 152.723 118.507 149.126 118.638 145.733C118.675 144.777 118.925 143.616 118.96 142.661C119.064 139.758 119.135 136.738 118.336 133.941C126.627 133.051 134.409 132.343 142.786 131.78C144.095 131.692 145.926 131.203 147.03 131.165C147.303 131.155 148.248 131.465 148.651 131.471C154.368 131.569 160.042 131.866 165.774 131.781C166.38 131.846 166.08 132.495 166.16 132.861L166.157 132.86Z" fill="#212492"/>
<path d="M119.26 117.899C119.857 117.588 121.333 118.188 122.259 118.043C123.081 117.914 123.867 117.133 123.859 116.279C123.855 115.851 123.49 115.342 123.602 114.926C123.68 114.638 124.243 114.363 124.389 114.005C124.586 113.519 124.562 112.719 124.404 112.218C124.296 111.881 123.925 111.592 123.904 111.478C123.883 111.36 124.662 110.263 124.496 109.196C124.43 108.771 123.863 108.072 123.913 107.82C123.953 107.61 124.907 106.823 124.911 106.324C131.865 106.463 138.778 106.135 145.724 106.172C149.642 106.194 153.67 106.371 157.59 106.494C159.642 106.558 161.699 106.555 163.75 106.632C164.022 106.706 164.616 109.441 164.856 109.761C165.011 110.196 164.762 111.301 164.593 111.911L164.621 115.068C164.151 117.408 164.348 119.578 164.752 121.924C164.612 124.987 165.005 127.897 165.929 130.652L165.695 131.009C161.086 130.935 156.489 130.819 151.89 130.699C149.309 130.632 146.697 130.588 144.098 130.547C141.895 130.58 139.665 130.526 137.465 130.393C135.297 130.569 133.137 130.569 130.985 130.393C128.146 130.377 120.947 130.694 118.64 131.214C118.533 130.759 119.256 129.324 119.267 128.92C119.344 126.042 119.949 123.174 120.037 120.297C120.061 119.517 120.271 118.1 119.259 117.901L119.26 117.899Z" fill="#D52B1E"/>
<path d="M158.274 89.6929C160.028 95.0827 162.414 100.305 163.535 105.871C162.125 105.668 160.711 105.779 159.294 105.715C158.997 105.703 158.702 105.571 158.374 105.557C147.282 105.075 136.144 105.613 125.065 105.389C124.543 104.426 123.842 103.723 122.654 103.866L126.059 90.6146L134.603 89.979L158.275 89.6929H158.274Z" fill="#F7F0EF"/>
<path d="M149.188 67.4667C149.553 67.3906 149.436 67.517 149.534 67.666C150.286 68.8171 151.466 71.9155 152.038 73.3323C153.856 77.8433 156.389 83.7572 157.722 88.3164C157.779 88.5115 157.858 88.6948 157.827 88.9037L143.781 89.3014L135.656 89.3903L126.357 89.6743C128.282 82.7884 130.261 75.9035 133.069 69.3186C134.403 75.4094 141.706 77.6986 146.553 73.8543C147.44 73.1512 149.189 70.8062 149.189 69.7034V67.4667H149.188Z" fill="#D52B1E"/>
<path d="M156.438 64.8448C157.408 67.1029 159.936 67.432 161.824 68.6366C163.551 69.7405 164.97 71.2742 166.618 72.481L166.775 72.7864C166.763 73.3769 166.797 73.9739 166.774 74.5612C166.729 74.842 166.673 74.9042 166.606 74.7466C166.295 76.5611 166.008 78.442 165.727 80.279C165.717 80.3454 165.811 79.2705 166.157 79.0336C166.521 79.0508 166.558 78.8161 166.702 78.5771C167.08 77.9533 167.938 74.9288 168.255 74.8763C170.554 76.7079 172.573 78.9918 175.062 80.5416L175.566 80.5759V79.4966C175.793 79.756 176.273 80.2104 176.333 80.5041L177.38 94.1892C177.021 94.5536 176.867 95.1752 176.646 95.5364C176.493 95.9544 176.102 96.6456 175.72 96.77C174.027 99.4815 172.345 102.201 170.7 104.944L166.606 101.486C166.507 101.347 166.189 99.728 166.164 99.445C166.02 97.7388 166.078 96.0326 165.801 94.2696C165.398 91.6974 164.386 88.6976 164.15 86.2036C163.757 82.0463 164.977 77.9983 163.64 73.7574C163.59 73.5956 163.601 73.2912 163.38 73.3276C163.438 76.4754 163.612 79.6006 163.377 82.7344C163.367 82.7483 163.077 82.5961 163.07 82.58C162.994 82.4043 162.947 81.6937 162.838 81.3464C161.077 75.7509 159.149 70.1135 156.135 65.0666C156.032 64.7033 156.363 64.8951 156.437 64.8437L156.438 64.8448Z" fill="#D52B1E"/>
<path d="M131.91 64.3832C132.331 64.2911 132.969 64.4711 133.451 64.23C133.584 65.4121 133.168 66.5117 132.835 67.6221C132.042 68.7056 131.165 70.7569 130.508 72.3699C128.132 78.2002 126.344 84.1045 125.55 90.327C125.468 90.9036 125.272 91.4063 124.967 91.836C124.128 95.8733 122.735 99.8173 121.868 103.851L119.568 104.022C118.791 98.453 119.782 92.8167 120.674 87.3122C121.058 84.9372 121.453 82.2771 122.036 79.9611C121.985 79.841 121.941 79.7199 121.919 79.5956C121.896 79.4713 121.876 79.3545 121.907 79.2548C122.983 75.7791 125.055 70.3475 127.019 67.2512C127.507 66.4828 127.86 66.0327 128.596 65.5C129.32 64.9748 131.075 64.1528 131.91 64.3843V64.3832Z" fill="#404040"/>
<path d="M164.616 91.9915C165.048 95.39 166.173 100.667 164.738 103.91C164.57 104.288 164.382 104.798 164.019 104.233C163.302 101.92 162.636 99.5988 161.843 97.3095C158.188 86.7518 153.952 75.1812 149.115 65.1539C148.986 64.8871 148.979 64.5119 148.886 64.3383C148.793 64.1626 147.63 64.0071 148.805 63.7617C148.818 64.1465 149.303 64.0189 149.653 63.9214L150.929 64.3683C153.754 64.7949 154.615 65.8195 155.889 68.3166C159.754 75.8885 162.598 83.8141 164.616 91.9915Z" fill="#404040"/>
<path d="M149.65 63.9201C149.674 63.9137 149.719 63.6736 150.032 63.6136C151.397 63.3542 153.22 64.1398 154.597 64.2995L154.904 64.4935C156.62 66.5105 157.366 68.7869 158.416 71.119C160.067 74.7833 161.864 78.7456 163.073 82.5803C164.041 85.6509 164.217 88.8425 164.615 91.9881C163.451 90.1843 163.264 87.8865 162.651 85.8556C161.065 80.5997 157.701 72.0086 154.977 67.3079C153.436 64.6489 152.666 65.3584 150.143 64.4292C149.858 64.3242 149.633 64.3059 149.651 63.918L149.65 63.9201Z" fill="#717171"/>
<path d="M169.86 105.717L170.014 105.872C170.057 106.042 169.972 106.315 170.014 106.489C168.327 106 168.785 107.146 168.787 108.102C168.798 112.454 168.925 116.833 168.934 121.141C168.491 121.753 167.919 122.328 167.167 122.527L166.963 122.263L165.994 112.735C167.918 110.61 166.741 106.918 166.623 104.25C166.6 103.712 166.635 103.17 166.623 102.633L169.707 105.184C169.921 105.316 169.815 105.582 169.862 105.716L169.86 105.717Z" fill="#242E5F"/>
<path d="M165.695 131.009C165.465 129.911 164.975 129.084 164.79 127.827C164.507 125.905 164.587 124.042 164.459 122.143C164.373 120.866 164.022 119.38 163.992 118.139C163.966 117.047 164.268 116.079 164.312 115.053C164.379 113.522 164.022 111.732 164.614 110.343C164.629 110.363 164.894 110.329 165.05 110.596C166.045 112.305 165.662 115.636 165.711 117.497C165.743 118.714 166.216 120.371 166.31 121.68C166.42 123.21 166.319 124.924 166.468 126.458C166.567 127.481 167.264 130.076 166.965 130.815C166.731 131.393 165.878 131.893 165.694 131.009H165.695Z" fill="#DD554B"/>
<path d="M124.199 43.7156C124.123 43.1079 123.89 42.1894 123.497 41.7157C123.173 41.3235 122.444 41.1852 122.348 40.9762C122.041 40.2999 121.972 37.671 122.057 36.8714C122.306 34.5093 124.067 31.9039 125.893 30.4517C125.183 33.7848 125.65 37.2101 125.438 40.5604C125.418 40.8765 125.035 44.4165 124.199 43.7156Z" fill="black"/>
<path d="M162.434 39.2228C161.624 39.4275 161.109 40.1906 160.833 40.9376C160.692 41.3213 160.79 42.6824 159.985 42.258C158.795 40.5432 159.213 38.1821 159.068 36.2305C158.893 33.8694 158.734 31.5127 158.137 29.2202C158.295 29.0455 159.301 30.1269 159.449 30.2973C161.555 32.7066 162.379 36.0762 162.433 39.2228H162.434Z" fill="black"/>
<path d="M149.033 49.5782C148.549 51.339 147.246 53.1321 145.571 53.9059C144.03 51.5427 140.769 51.4269 138.54 52.9006C138.089 52.7002 136.63 49.9447 136.691 49.5031C136.733 49.2009 136.904 49.337 137.077 49.4195C140.729 51.1686 145.279 50.8793 149.031 49.5782H149.033Z" fill="black"/>
<path d="M114.787 100.473C115.172 99.83 117.085 97.8066 117.714 97.1528C117.84 97.022 118.491 96.2933 118.643 96.4637L118.322 99.3156L118.811 104.23C117.446 104.894 116.407 106 115.25 106.95L115.058 106.861C115.158 105.303 115.223 103.723 115.251 102.118C115.203 101.646 114.997 101.251 114.632 100.934C114.661 100.854 114.601 100.696 114.632 100.625L114.787 100.471V100.473Z" fill="#242E5F"/>
<path d="M132.836 67.6223C131.6 71.7464 129.906 75.7301 128.629 79.8424C127.494 83.4992 126.774 88.3414 125.346 91.6809C125.211 91.996 125.369 92.1032 124.967 91.8363C125.37 89.8986 125.573 87.917 125.968 85.9739C127.24 79.6999 129.305 73.5759 132.296 67.9267C132.462 67.6148 132.36 67.5505 132.835 67.6223H132.836Z" fill="#717171"/>
<path d="M130.831 63.765C131.209 63.9825 131.497 63.9311 131.706 64.3844L131.911 64.3812C131.296 64.5152 128.96 65.5601 128.467 65.9502C126.942 67.156 125.08 71.862 124.28 73.7944C123.455 75.79 122.56 77.8884 122.038 79.959L121.091 82.02L120.65 82.5816C120.563 82.4927 120.494 82.4005 120.482 82.3019C120.455 82.0875 120.492 81.7714 120.523 81.542C120.657 80.5399 121.065 78.957 121.731 78.2635C122.543 76.2004 123.486 74.162 124.27 72.0881C125.73 68.2223 125.535 64.9192 130.37 63.9204C130.395 63.4842 130.58 63.3963 130.833 63.766L130.831 63.765Z" fill="#717171"/>
<path d="M149.342 48.1886C149.263 49.1167 148.098 49.4619 147.337 49.6537C144.984 50.2474 142.128 50.1092 139.748 49.6816C138.585 49.4726 136.09 49.1543 136.383 47.5713C137.67 47.6988 138.907 48.1286 140.183 48.3215C143.223 48.7791 146.326 48.792 149.34 48.1886H149.342Z" fill="white"/>
<path d="M147.646 21.9706C148.74 22.2182 149.83 22.4625 150.915 22.7037L151.039 22.8966C151.25 22.4958 151.794 22.5847 151.811 23.0509C156.428 24.2577 161.482 26.3294 164.924 29.6829C163.64 29.0173 161.967 28.3732 160.605 27.832C160.948 27.712 160.376 27.4847 160.3 27.4419C158.915 26.6788 157.476 25.8857 155.977 25.3638C153.258 24.3402 150.463 23.5868 147.594 23.1056L147.184 22.7423L144.716 21.8173C144.691 21.7391 144.675 21.663 144.688 21.5933C144.804 20.9792 147.275 21.7187 147.647 21.9717L147.646 21.9706Z" fill="#835840"/>
<path d="M130.985 61.7616C131.717 62.29 130.678 62.888 130.092 63.0788C127.89 63.5696 126.141 64.725 124.498 66.2972L123.118 67.1589C122.432 67.5008 121.457 68.3282 120.724 68.5447C120.504 68.6101 120.453 68.5265 120.493 68.3142C120.659 67.4376 124.567 63.7122 125.475 63.1141C126.814 62.2321 129.44 61.2654 130.986 61.7605L130.985 61.7616Z" fill="#50587F"/>
<path d="M147.182 22.7412C148.749 22.9127 150.564 23.4336 152.119 23.8987C153.43 24.291 154.77 24.7208 155.976 25.3638C149.082 22.9663 139.874 22.9492 132.836 24.7465C134.294 24.2771 136.17 23.1935 137.618 22.8956C138.391 22.737 140.473 22.5869 141.244 22.5869H144.792C144.847 22.5869 146.576 22.6748 147.183 22.7412H147.182Z" fill="#5A321B"/>
<path d="M161.992 66.6964C161.467 66.4284 160.74 65.9622 160.296 65.7714C159.835 65.2302 159.195 64.8958 158.599 64.5379L154.724 63.1532C153.887 62.9431 152.903 62.18 153.971 61.6077C155.895 61.1051 160.038 63.1553 161.285 64.7061C161.733 65.2624 162.056 65.9622 161.994 66.6974L161.992 66.6964Z" fill="#50587F"/>
<path d="M141.476 63.7674V64.2282L133.762 66.0791C134.01 64.3697 132.478 62.5573 135.336 63.1961C136.567 63.4715 138.117 64.0471 139.365 64.016C139.721 64.0074 141.351 63.6387 141.476 63.7674Z" fill="black"/>
<path d="M145.178 54.2018C143.418 54.8803 141.608 54.9274 139.931 53.9757C139.73 53.8621 138.941 53.4752 139.008 53.204C140.685 51.9094 144.396 51.9297 145.178 54.2029V54.2018Z" fill="#DD554B"/>
<path d="M130.985 61.7612C131.225 61.8384 133.357 62.9016 133.426 63.0205C133.513 63.1674 133.431 63.4289 133.454 63.6111C133.364 63.7065 131.204 63.7032 130.831 63.7665C130.712 63.7858 130.538 63.8854 130.368 63.9208C129.34 63.8608 127.81 64.0162 127.027 64.7461C126.74 65.014 126.533 65.6206 126.195 65.8424C125.577 66.2476 123.909 66.7652 123.117 67.1607C124.495 65.926 126.072 64.3356 127.747 63.5382C128.546 63.1588 129.954 62.9166 130.578 62.5125C130.883 62.3153 131.023 62.1438 130.985 61.7623V61.7612Z" fill="#242E5F"/>
<path d="M115.25 106.949C115.213 107.125 114.942 107.569 114.788 107.651H114.323C113.589 107.265 113.921 104.147 114.037 103.346C114.153 102.546 114.356 101.704 114.633 100.935C115.33 100.864 115.509 101.546 115.558 102.091C115.634 102.922 115.426 106.125 115.249 106.949H115.25Z" fill="#50587F"/>
<path d="M165.85 103.557C165.956 105.947 166.326 108.333 166.166 110.735C166.146 111.039 166.148 111.695 165.698 111.576L164.295 105.505C165.135 105.206 165.235 104.671 165.528 103.921C165.614 103.701 165.38 103.471 165.85 103.557Z" fill="#717171"/>
<path d="M153.971 61.606C153.798 61.8921 153.712 62.1686 153.969 62.4559C154.211 62.7259 156.294 63.3347 156.851 63.5844C157.465 63.8588 158.025 64.191 158.598 64.5361C157.66 64.1846 156.353 64.2757 155.472 64.0367C154.018 63.6433 152.349 62.9199 150.73 63.1482C150.321 63.0989 150.338 62.9574 150.73 62.8395C151.837 62.5116 152.927 61.8782 153.97 61.606H153.971Z" fill="#242E5F"/>
<path d="M117.718 121.911C117.67 122.307 117.633 124.668 117.334 124.682C116.367 124.125 115.36 123.428 114.807 122.426L115.013 122.087C115.919 122.403 116.854 122.198 117.718 121.911Z" fill="#242E5F"/>
<path d="M118.334 119.288C118.316 119.349 118.402 120.05 118.334 120.522C117.473 120.338 117.602 118.938 117.1 118.288C117.268 117.923 117.622 118.216 117.694 118.179C117.779 118.135 117.774 117.604 118.255 117.747C118.717 117.884 118.367 118.946 118.333 119.288H118.334Z" fill="black"/>
<path d="M148.417 65.1522L145.755 63.8821L145.488 63.4567C146.011 63.4995 146.6 63.3934 147.111 63.4524C148.254 63.5853 148.014 64.2926 148.417 65.1522Z" fill="black"/>
<path d="M144.097 130.548V130.703C141.885 130.549 139.698 130.533 137.464 130.548C137.329 130.504 137.331 130.453 137.464 130.394C139.67 130.421 141.938 130.514 144.097 130.548Z" fill="#8F6852"/>
<path d="M150.731 62.8394V63.148C150.432 63.1898 149.763 63.6078 149.423 63.6132C149.008 62.8865 150.304 62.9658 150.731 62.8394Z" fill="#371D0E"/>
<path d="M176.803 95.5376C176.552 96.0788 176.163 96.5622 175.877 97.0798L175.723 96.7712C176.008 96.3146 176.468 95.8334 176.649 95.5376H176.803Z" fill="#AD8F7E"/>
<path d="M107.69 100.936V101.09L106.918 100.318C107.293 100.044 107.888 100.507 107.69 100.936Z" fill="#AD8F7E"/>
<path d="M170.016 105.87L169.861 105.715C169.865 105.726 169.985 105.745 170.016 105.87Z" fill="#50587F"/>
<path d="M114.631 100.626C114.659 100.561 114.756 100.52 114.785 100.472L114.631 100.626Z" fill="#50587F"/>
<path d="M175.415 7.93572C180.434 7.50381 187.056 4.48362 192.165 3.16645C194.336 2.607 197.841 1.71101 200.022 1.75603C202.52 1.80747 205.463 3.14501 207.963 3.46654C207.743 5.54037 207.106 7.52846 206.423 9.47797C206.099 10.4029 204.678 13.4563 204.726 14.1047C204.852 15.782 208.122 18.9865 209.261 20.4441C210.39 21.8877 211.256 23.4418 212.285 24.9004C208.965 25.2541 205.676 25.7867 202.383 26.3365C196.746 27.2786 190.621 28.2539 185.135 29.7586C182.5 30.481 179.895 31.4884 177.267 32.1486C177.226 30.9644 177.102 29.7758 176.957 28.6011C176.783 27.9506 176.68 27.2818 176.649 26.5959C176.491 26.4694 176.337 26.4694 176.186 26.5959C175.91 28.5133 175.833 30.4617 175.847 32.3919L175.568 32.6106L173.41 33.0736L171.402 7.93465C172.039 7.92072 172.748 7.86606 173.262 8.31298C174.235 11.3149 174.477 14.5741 175.15 17.6833C175.276 18.2609 175.628 18.9811 175.723 19.502C175.805 19.5706 175.855 19.621 175.885 19.7292C176.054 20.3348 175.711 20.5877 175.885 19.7571C175.894 19.7153 175.955 19.6842 176.032 19.6563C176.161 18.5696 176.062 18.187 176.032 17.1892C175.803 16.1635 175.752 15.1872 175.878 14.259C175.787 13.0983 175.809 12.2099 175.569 11.0202L175.129 8.38693C175.075 8.15222 175.175 8.02146 175.415 7.93572Z" fill="#D52B1E"/>
<path d="M184.824 149.518C184.47 149.875 182.581 149.581 182.503 149.262L176.646 73.4819L179.732 73.4851C179.76 73.6341 179.712 73.8024 179.732 73.9449L179.886 74.0993C179.906 74.1936 179.865 74.3168 179.886 74.4079C179.299 74.7927 179.203 75.0971 179.235 75.8087C180.433 90.8892 181.726 106.438 183.111 122.454C183.929 131.463 184.5 140.484 184.824 149.517V149.518Z" fill="#5A321B"/>
<path d="M179.886 74.4067C180.259 76.0271 180.506 77.7119 180.658 79.3421C181.348 86.7328 181.511 94.2168 182.048 101.627C183.173 117.16 184.477 132.687 185.747 148.207C185.884 149.009 185.679 150.747 184.823 149.517C183.684 134.068 182.543 118.61 181.273 103.172C180.614 95.16 179.584 87.1326 179.117 79.1095C179.056 78.0613 178.831 76.0368 178.971 75.1119C179.056 74.5588 179.299 74.322 179.886 74.4077V74.4067Z" fill="#835840"/>
<path d="M177.728 59.139C177.005 59.2762 176.253 59.482 175.643 59.9085L175.429 59.3555L173.404 34.2305C173.48 33.5178 176.009 33.3356 176.648 33.3817C176.678 33.7847 176.606 34.2166 176.648 34.6163C176.498 34.7396 176.301 34.8103 176.056 34.8307L176.025 36.3976L178.019 58.9246L177.729 59.139H177.728Z" fill="#5A321B"/>
<path d="M176.647 34.6174C177.397 41.6941 177.856 48.7173 178.346 55.8219C178.382 56.3449 178.822 58.8464 178.506 59.0725C178.302 59.2193 177.943 59.0993 177.727 59.14L175.715 36.3976C175.801 35.6045 175.31 33.969 176.648 34.6174H176.647Z" fill="#835840"/>
<path d="M176.185 26.5964C176.335 26.0027 176.571 26.4367 176.648 26.9051C176.786 27.4838 176.838 28.0497 176.802 28.6017C176.873 29.9971 176.77 31.4214 176.78 32.8211C176.615 33.3238 175.684 33.0762 175.568 32.6122C175.476 32.2499 175.546 30.997 175.561 30.5233C175.589 29.6573 175.689 27.4356 175.873 26.6972C175.914 26.5353 176.176 26.6104 176.184 26.5964H176.185Z" fill="#DD554B"/>
<path d="M180.66 79.3415C180.494 78.8657 180.747 78.3856 181.238 78.2902C181.869 78.1669 182.392 78.7928 183.127 78.572C183.507 78.8893 181.303 79.5655 181.133 79.5816C180.997 79.5945 180.676 79.3876 180.66 79.3426V79.3415Z" fill="black"/>
<path d="M176.956 28.6024H176.802C176.778 28.1094 176.649 27.5414 176.648 26.9058C176.565 26.7644 176.565 26.6615 176.648 26.5972C176.764 27.2306 176.874 27.9251 176.956 28.6024Z" fill="#AD8F7E"/>
<path d="M179.889 74.0995C179.815 74.0834 179.745 74.0179 179.734 73.9448C179.806 73.9663 179.874 74.0276 179.889 74.0995Z" fill="#835840"/>
<path d="M159.524 183.754C160.237 183.355 162.625 182.92 163.441 183C164.879 183.141 165.662 183.714 166.773 184.528L166.311 184.835L166.188 185.157C164.69 185.302 161.456 187.193 165.13 185.545C166.016 185.155 166.77 185.124 167.391 185.452C167.836 185.915 168.563 186.256 168.626 186.994L168.562 187.344C167.085 187.778 163.173 189.393 167.335 187.851C168.177 187.502 168.915 187.473 169.552 187.766C170.582 188.63 171.73 189.479 172.801 190.301C173.705 190.993 175.535 191.871 176.031 193.01C176.181 193.355 176.37 194.202 175.924 194.369C175.21 194.636 172.917 194.957 172.095 195.013C168.818 195.239 165.041 194.831 161.783 194.375C159.169 194.01 156.563 193.444 153.977 192.925L153.665 192.466C153.649 189.893 153.377 187.342 153.678 184.776C153.726 184.363 153.871 183.848 154.117 183.518C154.662 183.175 154.981 184.277 155.293 184.669C157.546 187.487 157.841 184.699 159.522 183.757L159.524 183.754Z" fill="#404040"/>
<path d="M159.524 182.984C159.153 183.193 158.876 183.32 158.527 183.605C157.263 184.635 157.309 185.779 155.827 184.136C154.378 182.529 154.524 180.248 154.279 178.202C158.262 178.35 162.208 177.996 166.159 177.585C166.088 178.82 166.255 180.15 166.159 181.372C166.121 181.846 166.235 181.768 165.696 181.75C163.657 181.118 161.285 181.995 159.524 182.984Z" fill="#E5E5E5"/>
<path d="M176.186 195.169C176.42 196.424 175.466 196.577 174.493 196.795C169.728 197.86 159.949 196.682 155.172 195.28C154.154 194.981 153.809 195.061 153.969 193.781C156.247 194.004 158.451 194.637 160.706 194.99C164.384 195.568 168.693 196.059 172.403 195.785C172.956 195.745 176.051 195.034 176.186 195.17V195.169Z" fill="#717171"/>
<path d="M120.34 181.289C120.238 181.292 119.753 181.082 119.414 181.289V178.05L130.83 178.975C131.035 179.181 130.045 184 130.375 184.732C129.806 185.02 129.556 186.095 128.821 185.66C127.867 182.471 124.334 180.846 121.181 180.98C120.885 180.993 120.563 180.821 120.649 181.289C120.546 181.294 120.443 181.286 120.34 181.289Z" fill="#E5E5E5"/>
<path d="M122.653 29.9908C122.388 30.1537 122.021 30.4162 121.727 30.6081C121.401 30.4227 122.296 29.9822 122.499 29.8364L122.653 29.9908Z" fill="#AD8F7E"/>
<path d="M160.604 22.7404C160.401 23.1198 159.387 23.0694 159.216 22.5861C158.996 22.2388 158.643 21.8744 158.29 21.6611C157.449 20.688 155.487 20.3515 154.218 20.2743C153.558 20.2346 152.712 20.3118 152.387 20.2422C152.111 20.1832 151.443 19.5498 151.09 19.374C148.982 18.3227 147.131 18.164 144.838 18.6217C144.387 18.7117 143.984 19.03 143.556 19.0493C142.536 19.0954 141.281 18.2798 139.702 18.4234C138.228 18.5574 136.338 19.9003 135.685 19.9614C135.234 20.0032 133.974 19.9656 133.429 19.9592C132.31 19.9453 130.932 20.1435 129.952 20.7062C129.341 21.0578 128.802 21.7833 128.208 21.9698C128.208 21.9698 127.314 22.3074 127.127 21.9698C125.858 22.1745 124.681 22.4682 123.735 23.437C123.473 23.706 123.154 24.4338 122.852 24.5592C122.275 24.7982 121.214 24.7971 120.582 25.2183L120.494 24.9C121.61 23.7328 121.643 22.1327 122.188 20.6548C123.863 16.1116 128.801 11.7861 133.298 10.0938C134.633 9.24924 136.627 8.96416 138.235 9.01453C144.198 8.37041 156.927 13.0036 159.552 18.7803C160.194 20.1929 160.265 21.3043 160.604 22.7404Z" fill="#5A321B"/>
<path d="M138.235 9.01478C136.795 9.17018 134.64 9.58923 133.299 10.094C133.215 9.72427 133.489 9.77679 133.703 9.65783C134.606 9.1541 136.175 8.95262 137.234 8.86152C137.525 8.83687 138.034 8.75649 138.235 9.01371V9.01478Z" fill="#AD8F7E"/>
<path d="M160.603 22.7421C160.635 22.8804 160.759 23.0358 160.757 23.2051C160.329 23.1783 159.932 23.2383 159.515 23.2876C159.283 23.1344 159.308 22.7357 159.215 22.5889L160.603 22.7432V22.7421Z" fill="#EED3CA"/>
<path d="M175.414 7.93591L175.569 11.0204C175.406 10.2134 174.829 8.91334 174.794 8.1674C174.774 7.76657 175.116 7.96163 175.414 7.93591Z" fill="#EED3CA"/>
<path d="M175.876 14.2592C175.954 15.2623 175.999 16.169 176.03 17.1894C175.828 16.452 175.657 15.5335 175.587 14.7747C175.559 14.4768 175.412 14.1777 175.877 14.2592H175.876Z" fill="#EED3CA"/>
<path d="M176.031 19.6547C175.989 20.003 176.257 20.8701 175.723 20.734C175.675 20.3503 175.788 19.8626 175.723 19.5015L176.032 19.6558L176.031 19.6547Z" fill="#EED3CA"/>
<path d="M121.42 69.0105C121.857 68.7918 125.228 66.6408 125.43 66.852C125.117 67.9387 124.581 68.944 124.194 70.0104C123.191 72.7669 122.475 75.4399 121.729 78.265C121.347 79.7108 120.84 81.0998 120.649 82.5831C120.612 82.8714 120.837 83.3054 120.342 83.1993C120.128 80.4696 120.1 77.6863 119.413 75.0262L119.106 75.4227C119.666 81.9315 120.328 88.602 118.644 94.9982L111.237 103.329C111.024 103.457 110.842 103.429 110.625 103.329C110.332 103.193 109.232 102.022 108.844 101.713C108.486 101.427 108.008 101.179 107.691 100.938C107.441 100.748 107.224 100.544 106.919 100.32C105.683 99.417 104.622 98.8072 103.37 98.0066C102.153 97.0174 100.867 96.0914 99.5132 95.2308C99.1498 95.0603 98.8926 94.8556 98.7415 94.6134C98.1649 94.1869 97.6022 93.9157 97.0449 93.5342C97.3568 93.0894 97.9516 92.9694 98.3557 92.6082C98.7565 92.2492 99.1948 91.4796 99.5882 91.0649C101.692 88.8474 103.863 86.6921 105.834 84.3536C106.335 83.7588 107.037 82.4823 107.547 82.0558C108.891 80.9337 111.145 80.8136 112.63 78.9638C113.445 77.9488 112.97 77.7023 111.93 78.2629C112.074 77.906 111.672 77.9692 111.701 77.8813C113.519 76.0443 115.333 74.2031 117.335 72.5633C118.632 71.5012 120.168 70.1765 121.728 69.6267L121.42 69.0126V69.0105Z" fill="#D52B1E"/>
<path d="M137.464 130.393V130.547C135.298 130.561 133.147 130.646 130.984 130.702V130.393C133.142 130.406 135.307 130.367 137.464 130.393Z" fill="#AD8F7E"/>
<path d="M166.775 74.5614C166.72 75.9332 166.362 77.6234 166.158 79.0338C165.828 81.3145 165.497 83.5855 164.922 85.819L164.789 84.5286C165.396 81.3895 165.684 78.1593 166.42 75.0469C166.485 74.7757 166.337 74.4692 166.774 74.5603L166.775 74.5614Z" fill="#EED3CA"/>
<path d="M143.136 19.8473L143.325 21.8151C141.029 21.4807 138.673 22.0326 136.385 22.2781L136.417 20.4582C138.429 19.2386 140.966 18.7081 143.137 19.8463L143.136 19.8473Z" fill="#8F6852"/>
<path d="M146.875 19.1938C147.591 18.659 149.088 19.495 149.749 20.0309C150.352 20.5185 151.462 21.7414 150.885 22.4326C149.832 22.5044 148.657 22.588 147.551 22.2076C147.455 22.1958 147.331 22.1025 147.132 22.079C146.497 22.0029 145.46 21.8132 144.715 21.8153L144.116 21.8003L143.809 19.8294C144.699 19.5432 145.933 19.0856 146.876 19.1938H146.875Z" fill="#8F6852"/>
<path d="M133.916 20.5818C134.249 20.5368 135.527 20.6364 135.699 20.8819L135.752 22.4177L129.443 24.1293C128.551 22.3223 132.224 20.57 133.626 20.3749C133.761 20.3556 133.857 20.4564 133.917 20.5818H133.916Z" fill="#8F6852"/>
<path d="M153.354 20.8918C154.457 20.9401 157.154 22.4169 157.705 23.404C157.89 23.7363 158.029 24.0449 157.982 24.4382C157.566 24.1703 156.217 23.763 155.667 23.5905C154.717 23.2925 153.735 23.0257 152.745 22.8885L152.572 21.1383C152.601 21.0365 153.238 20.8854 153.355 20.8908L153.354 20.8918Z" fill="#8F6852"/>
<path d="M151.812 23.0499C151.577 22.9888 151.298 22.9588 151.04 22.8956C150.819 22.7723 150.646 22.6298 150.886 22.4326C150.563 20.5624 148.726 19.4081 146.875 19.1938C146.756 18.9901 146.489 18.7597 146.949 18.7308C149.499 18.5743 153.092 19.9418 151.812 23.0488V23.0499Z" fill="#AD8F7E"/>
<path d="M126.85 22.2557C126.83 22.2471 126.809 22.2386 126.788 22.23C125.671 22.5333 124.622 23.187 124.069 24.2352C123.715 24.9061 123.2 26.2394 123.974 26.7517C124.225 26.7999 124.312 26.4612 124.351 26.4441L125.214 25.7592C125.568 24.3574 126.539 23.5857 127.839 23.0724L127.899 22.7433L127.813 22.3146C127.493 22.3618 127.171 22.3436 126.851 22.2568L126.85 22.2557Z" fill="#AD8F7E"/>
<path d="M133.917 20.5823C133.216 20.6766 130.849 21.7913 130.295 22.2832C129.528 22.9648 129.749 23.3217 129.443 24.1298C129.388 24.2756 129.328 24.4235 129.263 24.5649C129.078 24.6775 128.72 24.5424 128.517 24.5928C128.11 24.3956 127.967 22.8351 128.517 22.7419C128.541 22.6712 129.304 21.7109 129.44 21.5823C130.161 20.9017 132.25 20.1483 133.231 20.115C133.611 20.1022 133.913 20.0957 133.917 20.5823Z" fill="#AD8F7E"/>
<path d="M127.899 22.7417C128.094 22.7149 128.316 22.7599 128.516 22.7417C128.388 23.1339 128.607 24.1081 128.516 24.5926C127.287 24.8969 125.571 25.883 124.352 26.4435C125.066 25.8819 125.097 24.8069 125.657 24.1242C126.002 23.703 127.367 22.8145 127.899 22.7417Z" fill="#8F6852"/>
<path d="M162.763 26.9038C162.183 26.3701 160.161 25.6531 159.83 25.2865C159.558 24.9875 159.733 24.7099 159.677 24.4366C159.628 24.1944 159.353 23.7722 159.599 23.5117C160.26 24.0594 161.079 23.9972 161.759 24.592C162.208 24.9854 163.081 26.2586 162.763 26.9049V26.9038Z" fill="#8F6852"/>
<path d="M122.809 181.905C124.433 181.956 126.426 183.063 127.35 184.383C127.723 184.916 127.924 185.962 128.406 186.271C129.474 186.953 129.799 185.96 130.522 185.607C130.78 185.482 130.999 185.414 131.293 185.453C131.338 187.635 132.496 190.156 132.527 192.239C132.532 192.554 132.842 193.154 132.597 193.339C126.997 194.859 120.835 195.748 115.02 195.321L110.471 194.392L110.929 192.702C112.116 191.86 113.854 190.502 114.942 189.543C115.683 188.889 116.315 187.965 117.099 187.459L117.466 187.187C119.105 187.653 120.678 188.351 122.185 189.279C122.744 189.082 118.221 186.932 117.891 187.16L117.717 186.842L117.409 186.611C117.77 186.305 117.927 185.809 118.18 185.454C118.282 185.393 118.386 185.337 118.496 185.302C119.588 184.946 122.915 186.652 124.07 187.276C123.639 186.325 120.088 185.204 119.007 185.141L118.797 184.838C119.184 183.296 121.272 181.86 122.808 181.907L122.809 181.905Z" fill="#404040"/>
<path d="M132.526 194.244L132.732 195.556C129.316 196.698 125.404 197.497 121.804 197.791C119.541 197.975 112.12 198.305 110.471 196.939C110.033 196.575 109.99 195.302 110.408 195.182C117.649 197.274 125.366 196.048 132.526 194.245V194.244Z" fill="#717171"/>
<path d="M169.551 187.765C168.868 187.835 168.175 187.934 167.512 188.118C166.786 188.319 164.976 189.46 165.083 188.235L168.625 186.993C169.088 186.957 169.297 187.552 169.551 187.765Z" fill="#EED3CA"/>
<path d="M166.311 184.835C167.448 184.809 167.012 185.058 167.391 185.453C166.686 185.482 165.901 185.626 165.231 185.838C164.841 185.961 162.879 187.147 163.081 186.164C163.185 185.656 165.741 184.849 166.311 184.835Z" fill="#EED3CA"/>
<path d="M118.797 184.835C119.697 184.75 121.966 185.557 122.815 185.985C123.074 186.116 124.922 187.083 124.198 187.536C123.831 187.764 123.101 187.052 122.709 186.863C121.275 186.167 119.751 185.722 118.18 185.452C118.39 185.156 118.391 184.873 118.797 184.835Z" fill="#EED3CA"/>
<path d="M117.718 186.84C118.563 186.797 121.912 188.246 122.355 188.913C122.718 189.456 122.365 189.758 121.795 189.474C120.287 188.723 118.911 187.581 117.101 187.458C116.872 186.984 117.28 186.863 117.718 186.84Z" fill="#EED3CA"/>
<path d="M99.5139 95.2272C99.2771 95.1114 98.7283 94.8907 98.4336 94.7642L98.7423 94.6099C99.0874 94.8649 99.1699 94.8885 99.5139 95.2272Z" fill="#AD8F7E"/>
<path d="M119.26 29.3731C119.231 29.2198 119.113 29.0784 119.103 28.8404C119.039 27.2071 120.619 25.4762 122.182 25.1236C123.323 24.8653 122.804 25.2533 122.962 25.5169L122.849 25.8953C121.779 26.6573 120.922 27.7055 120.282 29.0387C119.753 29.6678 119.411 29.7793 119.259 29.3731H119.26Z" fill="#AD8F7E"/>
<path d="M122.964 25.5179C122.972 25.5318 123.23 25.4557 123.274 25.6208C123.334 25.8437 123.308 27.0248 123.194 27.2134L119.489 29.9882C119.102 30.0964 119.299 29.5766 119.261 29.3741C119.659 29.4416 119.711 29.2765 119.918 29.029C120.871 27.8929 121.222 26.147 122.963 25.519L122.964 25.5179Z" fill="#8F6852"/>
<path d="M176.647 26.5963C176.647 26.6992 176.647 26.8021 176.647 26.905C176.528 26.7131 176.44 26.5427 176.184 26.5963C176.262 26.4602 176.027 25.7475 176.49 25.6714C176.612 25.9747 176.593 26.3026 176.647 26.5963Z" fill="#EED3CA"/>
<path d="M196.813 6.27108C198.023 5.91205 199.354 6.76087 198.943 8.09091C196.202 12.7048 193.908 18.0582 191.023 22.5359C190.162 23.8713 189.569 24.329 187.874 24.0889C186.654 23.9153 182.117 20.5907 181.275 19.5822C180.328 18.4451 180.733 16.4773 182.439 16.5566C183.744 16.6177 185.638 18.9916 186.88 19.6861C187.804 20.2038 188.274 20.371 188.966 19.4C189.829 18.1889 190.651 16.1494 191.433 14.7722C192.684 12.5697 194.003 10.0201 195.407 7.94837C195.687 7.53574 196.371 6.40291 196.814 6.27108H196.813Z" fill="white"/>
<path d="M179.613 59.1053C181.382 59.6208 183.392 60.3357 184.292 62.0623C185.136 63.6817 185.318 66.4811 185.573 68.3384C186.747 76.8813 187.98 86.0769 188.223 94.683C188.283 96.7911 188.353 98.7428 187.427 100.685C186.559 102.504 184.922 104.027 183.113 104.89L186.667 149.121C186.426 150.716 182.611 151.031 181.777 149.71L178.199 105.039C177.348 104.77 176.461 104.625 175.6 104.373C175.155 104.243 174.409 103.783 174.062 103.734C173.19 103.612 171.992 106.623 170.786 106.179C170.858 109.604 171.163 113.334 170.946 116.75C170.852 118.209 170.487 120.568 169.614 121.742C168.919 122.679 168.105 123.053 167.095 123.549L167.714 130.778C167.686 131.815 166.921 131.846 166.917 132.159C167.909 140.826 168.538 149.541 169.398 158.228L169.255 158.55L165.99 159.638C165.982 159.95 166.142 160.24 166.156 160.546C166.48 167.733 166.946 174.908 167.114 182.104C168.958 184.06 170.879 185.957 172.872 187.761C175.005 189.692 176.75 190.204 177.091 193.568C177.336 195.989 177.275 196.956 174.827 197.59C170.092 198.817 159.655 197.517 154.896 196.016C154.336 195.839 153.615 195.69 153.282 195.161C152.679 194.207 152.767 190.777 152.743 189.533C152.713 187.945 152.474 184.254 153.434 182.985C153.591 182.779 153.964 182.688 153.981 182.576C154.018 182.334 153.593 180.729 153.529 180.263C153.08 176.969 152.589 173.685 152.14 170.392C151.753 167.552 151.65 163.693 150.994 161.042C150.962 160.912 150.945 160.652 150.781 160.614C149.786 160.652 145.646 160.528 145.163 159.747L143.247 149.205L139.444 159.668L134.687 159.85L131.311 182.74C131.369 182.972 131.966 183.052 132.212 183.219C133.133 183.844 133.396 186.738 133.457 187.834C133.61 190.563 133.392 193.363 133.376 196.095C130.963 197.239 128.127 197.837 125.484 198.229C122.004 198.745 113.289 199.513 110.303 197.873C108.827 197.063 109.168 196.114 109.43 194.672C110.005 191.52 111.53 190.541 113.303 188.21C114.659 186.427 116.157 183.912 117.557 182.328C117.777 182.081 118.118 182.031 118.342 181.796C118.765 177.217 118.627 172.552 118.789 167.939C118.843 166.42 119.044 164.844 119.11 163.325C119.184 161.635 119.232 159.939 119.268 158.246C119.177 157.911 115.4 157.792 115.858 156.386C115.986 148.715 116.149 141.019 116.948 133.401C116.987 133.019 117.392 131.648 117.374 131.536C117.347 131.383 117.034 131.373 116.98 131.285C116.628 130.722 117.279 126.661 117.258 125.719C116.344 124.993 115.092 124.248 114.41 123.286C114.147 122.915 113.875 122.003 113.665 121.794C113.488 121.618 112.625 121.277 112.244 120.978C111.622 120.49 111.216 119.727 110.7 119.283C109.953 118.64 108.406 117.903 107.486 117.253C104.783 115.341 102.156 113.376 99.6657 111.191C94.2073 106.404 90.7487 103.365 94.7046 95.8941C94.9896 95.3561 95.8835 94.3079 95.787 93.801C95.727 93.487 95.3873 93.1954 95.3487 92.8214C95.2737 92.0969 96.6091 90.7315 97.1192 90.1345C100.663 85.9911 104.595 82.1039 108.456 78.3346C110.634 76.2093 112.689 73.8847 115.106 72.0274C116.096 71.2675 117.868 70.3887 118.65 69.5548C119.273 68.8893 119.854 67.6085 120.5 66.7779C122.88 63.7181 125.993 61.9036 129.75 60.9862C127.184 58.8245 125.835 55.8225 124.777 52.6952C123.465 52.245 121.924 52.006 120.651 51.5002C117.619 50.2955 113.503 48.8101 111.885 45.7663C108.923 40.1965 114.537 34.1936 118.463 30.8101C118.463 29.0621 118.105 28.1736 118.976 26.5413C119.114 26.2841 119.463 26.1158 119.537 25.8683C119.711 25.2917 119.636 23.5458 119.765 22.7034C122.591 4.26185 158.179 2.02404 162.598 20.6671C162.801 21.5266 162.839 23.0839 163.112 23.6991C163.369 24.2778 164.3 24.7858 164.643 25.5618C164.963 26.2841 165.018 27.2112 165.151 27.9839C169.805 30.7094 174.624 35.6233 171.794 41.4054C170.736 43.5693 167.084 47.3675 165.066 48.7136C163.848 49.525 162.312 49.8368 161.103 50.6889C160.624 53.7809 159.449 56.86 157.371 59.22L155.205 60.9841C157.85 61.5553 160.525 63.0247 162.296 65.0771C163.649 66.6472 164.206 67.0995 165.696 68.4638C169.281 71.7466 172.458 75.4259 176.029 78.7226L175.406 70.633C175.198 70.0103 174.74 69.5891 174.675 68.8829C174.645 68.5581 175.01 67.1606 174.489 67.3846C173.546 68.6835 171.884 69.0554 170.858 67.6236C169.769 66.1038 171.35 62.5199 172.802 61.536C173.257 61.2274 174.179 61.0666 174.411 60.8308C174.925 60.3057 174.391 58.1322 174.336 57.3605C173.215 41.7805 171.64 26.2091 170.633 10.6291C170.581 9.83708 170.339 7.7954 170.593 7.19951C171.139 5.92306 174.158 5.97129 175.296 6.36033C185.342 3.45804 196.463 -1.86747 207.136 0.662923C207.863 0.835474 210.694 1.50639 210.565 2.41737C209.709 4.37546 208.729 6.27674 207.893 8.24446C207.571 9.0054 205.716 13.4253 205.828 13.8347C205.91 14.138 208.648 16.6598 209.125 17.1828C210.781 19.0037 213.346 22.025 214.509 24.1385C215.169 25.3388 214.986 25.3731 213.706 25.6239C210.398 26.2734 206.705 26.5392 203.308 27.1051C194.586 28.5584 185.76 30.0309 177.492 33.2172L179.614 59.1021L179.613 59.1053ZM209.507 2.38522C197.983 -1.64455 186.397 4.3015 175.426 7.32919C175.459 9.06328 176.735 20.2105 176.029 20.89C175.617 20.9318 175.781 20.8922 175.726 20.6596C175.475 19.6211 175.541 18.4807 175.413 17.4218C175.003 14.0351 174.602 10.6623 174.352 7.25417C174.178 7.00981 172.045 7.11913 171.711 7.5489L173.41 32.9214L176.341 32.6139C176.519 32.4359 176.014 28.3086 176.024 27.5927C176.032 27.0193 176.139 26.0269 176.417 25.5189C177.085 26.1877 177.177 31.9676 177.506 32.0019C181.409 30.8069 185.271 29.5122 189.268 28.6505C194.821 27.4534 200.901 26.3934 206.524 25.5435C208.841 25.1931 211.181 24.923 213.518 24.7462C213.662 24.6197 212.851 23.5083 212.719 23.31C210.544 20.068 207.674 16.9653 204.772 14.3674L204.615 14.0094C205.943 10.0096 207.702 6.18028 209.508 2.38522H209.507ZM161.991 23.0496C160.381 8.82213 143.15 6.56396 132.026 10.5969C125.553 12.943 120.521 17.7509 120.649 25.0548L122.87 24.4225C123.758 22.9456 125.205 22.0807 126.916 21.8353C127.396 21.7667 127.987 21.9092 128.408 21.7849C128.595 21.7292 129.63 20.7518 130.068 20.5149C130.909 20.0615 132.106 19.7207 133.061 19.6521C133.864 19.5943 135.129 19.8965 135.678 19.8118C135.984 19.7647 136.874 19.1431 137.312 18.9662C138.674 18.4186 140.227 18.2664 141.689 18.4411C142.275 18.5107 143.109 19.0305 143.403 19.0295C143.817 19.0295 145.365 18.3403 146.182 18.2717C147.647 18.1485 149.183 18.4432 150.527 19.0123C151.036 19.2277 152.109 20.0208 152.39 20.0905C153.306 20.3134 154.644 19.7561 156.212 20.2684C157.779 20.7807 158.567 22.1182 159.408 22.4719C160.047 22.7398 161.267 22.7688 161.991 23.0496ZM143.324 21.6606C143.028 20.7957 143.491 20.0873 142.485 19.6479C140.687 18.8612 138.129 19.5235 136.531 20.532L136.536 22.1257C138.798 21.9232 141.042 21.5352 143.323 21.6617L143.324 21.6606ZM151.811 22.4333C151.93 20.98 151.851 20.7764 150.631 20.1409C148.686 19.1291 145.747 18.9534 143.823 20.0348L144.096 21.6617L151.811 22.4333ZM135.591 20.9125C133.945 20.4131 132.038 20.5953 130.516 21.4248C129.263 22.1086 128.96 22.6541 129.133 24.1288C131.265 23.4869 133.371 22.653 135.611 22.4323L135.591 20.9125ZM158.907 24.5908C158.782 21.9242 155.097 20.2566 152.804 21.1901L152.752 22.7259L158.907 24.5897V24.5908ZM128.339 22.9188C126.086 22.413 123.2 23.9434 124.044 26.5971L128.209 24.5168L128.339 22.9188ZM160.911 26.7535C151.454 21.965 139.489 21.3798 129.558 25.0945C126.72 26.1555 123.692 27.6774 121.42 29.6805L126.764 26.7739C134.933 23.1 145.358 22.2929 154.003 24.6368C156.177 25.2263 158.294 26.1576 160.441 26.8382L160.911 26.7546V26.7535ZM163.996 27.2133C163.989 24.9262 161.498 23.7827 159.524 23.5136L159.862 25.1802L163.996 27.2133ZM124.196 50.8111V48.42C124.196 47.9334 124.604 48.375 124.736 48.6504C125.32 49.8679 125.63 52.0854 126.159 53.5504C128.237 59.3004 131.844 62.491 138.025 63.2798C139.694 63.493 141.379 63.3698 143.016 63.7663C142.905 64.0814 142.437 64.1757 142.153 64.2132C141.331 64.3215 139.6 64.419 138.766 64.3879C137.31 64.3333 135.636 63.8103 134.223 63.4577L134.537 67.3835C134.593 69.6331 133.867 70.5023 135.532 72.4035C138.818 76.1568 145.562 75.4494 147.766 70.9042L147.643 63.7653C146.773 63.9635 145.619 64.1318 144.87 63.5338L149.649 62.2991C155.532 60.505 158.603 57.7281 159.91 51.5816C160.095 50.7092 160.513 46.3526 161.065 46.1039L161.374 46.2593V48.8037C164.922 49.0105 167.868 44.9947 166.184 41.758C165.446 40.3401 162.786 38.9093 161.855 40.7248C161.49 41.4386 161.77 42.5757 160.814 43.0763C158.777 44.1426 158.238 40.13 158.136 38.8536C158.06 37.8997 158.208 36.8687 158.14 35.9191C158.015 34.1786 157.768 29.3193 156.598 28.0954C156.267 27.7492 154.6 26.9518 154.073 26.7214C147.218 23.7334 138.298 24.0388 131.497 27.03C130.456 27.4877 128 28.6795 127.368 29.5347C125.665 31.8433 126.703 39.0583 126.161 42.2092C125.963 43.3624 124.701 45.8917 123.543 44.1351C122.665 42.8019 123.479 41.2907 120.833 42.1256C115.379 43.8479 118.866 52.4648 124.196 50.8089V50.8111ZM123.117 25.5167C121.639 25.461 119.583 26.6432 119.355 28.1704C119.272 28.7223 119.503 29.2775 119.416 29.8359L123.133 27.1426L123.117 25.5178V25.5167ZM167.547 45.1051C171.593 41.5458 173.542 36.5268 168.852 32.4627C165.27 29.3579 160.095 27.7621 155.668 26.2905L159.217 28.8317C162.088 31.511 163.024 35.1175 163.393 38.9232C166.505 39.1419 168.289 42.1567 167.547 45.1051ZM128.978 27.0611C127.891 27.3419 126.735 27.8617 125.735 28.3676C121.51 30.5014 112.879 36.2117 112.202 41.2114C111.615 45.5563 114.247 47.6944 117.868 49.2688C116.123 45.8392 117.288 41.5801 121.413 40.9349C120.289 36.5525 122.095 32.5731 125.347 29.6773C126.468 28.6795 127.789 27.9625 128.976 27.0611H128.978ZM162.266 39.0572C162.386 38.8493 162.168 36.9641 162.105 36.5868C161.676 34.0339 160.391 31.1166 158.291 29.5272C159.33 31.3138 158.806 41.3668 159.981 42.1031C160.133 42.1985 160.28 42.1856 160.448 42.1728C160.627 41.3368 160.82 40.249 161.43 39.6049C161.599 39.4259 162.22 39.1354 162.267 39.0551L162.266 39.0572ZM124.657 43.5617C125.63 41.3068 125.17 38.7818 125.27 36.3843C125.285 36.0199 125.421 35.6823 125.437 35.3179C125.504 33.7885 125.405 32.2773 125.737 30.7619C123.778 32.5056 122.026 35.38 122.068 38.0873C122.074 38.412 122.364 40.5619 122.455 40.7527C122.615 41.0849 123.4 41.2746 123.734 41.788C124.043 42.2617 124.063 42.9112 124.314 43.3667C124.411 43.5435 124.307 43.6271 124.656 43.5628L124.657 43.5617ZM176.494 33.5366C175.492 33.4455 174.586 33.647 173.655 33.9835L175.569 59.7569C175.932 59.5737 176.285 59.3711 176.682 59.2511C177.225 59.0871 178.455 59.0732 178.507 58.5962L176.494 33.5366ZM183.128 103.711C184.935 102.802 186.369 101.066 186.938 99.1179C187.417 97.4781 187.215 94.9092 187.135 93.1494C186.739 84.4071 185.646 74.188 184.186 65.5604C183.896 63.8446 183.639 62.2144 182.097 61.1706C181.422 60.714 179.379 59.8866 178.583 59.907C176.866 59.952 174.097 61.1952 175.106 63.3044C176.802 62.4717 178.16 62.148 180.046 62.6056C180.253 62.656 182.652 63.5038 182.2 63.9207C180.77 63.6206 179.459 63.1619 177.96 63.3066C176.632 63.4341 174.497 64.374 174.797 65.9977C175.038 67.2934 176.386 66.1949 177.205 66.0985C179.021 65.883 181.237 66.1649 182.661 67.3921C182.485 67.6386 182.432 67.6118 182.164 67.5882C180.393 67.4285 179.161 66.5422 177.072 67.0459C175.519 67.4199 175.149 69.0168 176.479 69.8678C178.062 69.2001 179.898 69.1562 181.513 69.7767C181.974 69.9535 182.916 70.6448 181.97 70.5558C181.342 70.4969 180.655 70.1572 179.961 70.0939C178.803 69.9889 176.49 69.916 176.484 71.5569C176.479 73.1902 179.146 72.3821 180.264 72.5675C181.225 72.7261 181.988 73.9372 181.891 74.8728L180.66 73.9479L180.991 77.5479C181.255 78.2231 183.678 78.1695 183.743 78.4996C183.914 79.3656 181.139 78.8276 181.12 78.9669L183.128 103.714V103.711ZM133.296 63C132.451 63.0858 131.395 61.8125 130.745 61.7664C130.407 61.7429 129.416 62.0687 129.014 62.1834C126.051 63.03 123.313 64.8091 121.423 67.2399C121.306 67.391 120.69 68.1273 120.803 68.2377C122 67.6943 123.123 67.0051 124.294 66.4093C124.786 66.1595 125.517 66.0202 125.947 65.748C126.426 65.4447 126.603 64.8938 127.049 64.5369C128.212 63.6066 129.305 63.9099 130.595 63.7642C131.493 63.6624 132.385 63.4255 133.297 63.4566L133.294 62.999L133.296 63ZM161.221 65.4618C159.979 63.9282 155.826 61.5768 153.907 61.7632C153.189 61.8329 151.904 62.8425 151.04 62.8425C151.064 63.0633 151.721 63.1083 151.906 63.1308C153.885 63.3751 155.729 63.6892 157.648 64.1757C158.886 64.4898 160.038 65.0053 161.221 65.4608V65.4618ZM173.87 62.223C171.925 62.1855 170.286 68.9504 173.161 67.2956C174.14 66.7319 173.619 66.0181 173.726 65.2421C173.794 64.7491 174.319 64.2883 174.328 63.9989C174.34 63.6131 173.654 62.7985 173.87 62.223ZM164.458 104.328C165.408 101.37 165.48 98.3848 165.052 95.3314C164.089 88.4594 161.97 80.6881 159.489 74.2126C158.221 70.9042 156.667 67.451 154.675 64.5273C152.794 64.0782 150.807 63.8113 148.88 64.0761C150.352 67.586 152.066 70.9813 153.47 74.5245C156.866 83.0964 160.478 92.3638 163.268 101.126C163.556 102.031 163.668 103.314 164.116 104.132C164.214 104.309 164.111 104.392 164.459 104.328H164.458ZM133.277 64.4051C131.792 64.6902 129.769 64.4898 128.393 64.9538C127.142 65.3761 126.288 67.3202 125.762 68.4927C123.31 73.9586 121.809 81.0826 120.828 87.004C120.014 91.9276 118.87 98.119 119.57 103.017C119.593 103.177 119.672 103.838 119.817 103.878L121.63 103.692L121.853 103.452C125.003 90.5332 128.604 77.7376 133.423 65.3461L133.276 64.4062L133.277 64.4051ZM168.417 102.84C169.057 103.434 169.651 104.165 170.397 104.64C170.53 104.724 170.607 104.909 170.789 104.72L177.226 94.19L176.143 80.387C172.549 76.9488 169.157 72.9223 165.466 69.6234C162.816 67.257 159.68 65.4586 156.129 64.8477C159.405 70.2354 161.36 76.2811 163.227 82.2733C163.495 82.3097 163.373 81.9228 163.379 81.7363C163.447 79.9358 163.42 77.9831 163.387 76.175C163.368 75.1965 162.983 74.1741 163.381 73.1752C163.778 72.8773 164.29 76.3583 164.31 76.6391C164.485 79.0462 164.315 81.9014 164.31 84.3632C164.304 88.2408 165.679 91.7872 166.133 95.638C166.333 97.326 166.151 99.2797 166.475 100.849C166.629 101.59 167.841 102.307 168.416 102.841L168.417 102.84ZM120.646 82.7363C121.055 79.7472 121.947 76.8492 122.731 73.9469L125.199 67.0073C119.259 70.0628 113.854 73.814 109.386 78.8051L112.241 77.6487C112.394 78.1074 111.367 78.6057 110.975 78.8512C109.691 79.6561 108.093 80.1673 106.915 81.1158C104.808 82.8134 101.658 86.6085 99.7407 88.7498C99.3195 89.2203 96.3936 92.4109 96.4365 92.6639C96.6594 92.9511 96.9284 93.2147 97.2103 93.443C100.175 95.8437 104.098 97.8886 107.212 100.255C108.511 101.242 109.679 102.41 110.983 103.392L118.103 95.5393C118.325 95.2243 118.657 94.8738 118.761 94.5008C119.121 93.2083 119.451 90.2396 119.565 88.827C119.881 84.9044 119.238 81.0279 119.098 77.1139C119.073 76.4376 118.959 75.3691 119.336 74.8739C119.77 74.8707 120.129 78.4557 120.183 78.9584C120.296 79.9969 120.245 81.1661 120.353 82.1832C120.369 82.3311 120.42 82.7631 120.645 82.7363H120.646ZM157.672 88.9052L149.495 67.7779L149.041 70.484C146.56 77.4386 136.194 77.6337 133.423 70.8131L132.991 69.4745C130.521 76.0561 128.357 82.7341 126.51 89.5215C127.15 89.5065 127.796 89.5494 128.437 89.5215C136.312 89.1721 144.152 88.8549 152.035 88.7455C153.916 88.7198 155.805 88.708 157.671 88.9052H157.672ZM176.648 73.4839L182.735 149.216C183.573 149.713 184.724 149.621 185.52 149.058L185.592 147.9L179.665 73.6275L176.648 73.4839ZM163.381 105.717C163.394 105.496 163.391 105.278 163.344 105.06C162.966 103.299 162.112 100.92 161.531 99.1597C160.525 96.1052 159.24 93.1536 158.264 90.0884L157.905 89.8302L136.608 89.9802L126.216 90.619L122.805 103.634C123.929 103.793 124.661 104.29 125.119 105.335C135.629 105.499 146.16 105.126 156.675 105.404C157.932 105.437 159.415 105.688 160.674 105.725C161.574 105.752 162.482 105.693 163.38 105.719L163.381 105.717ZM123.113 111.115C124.726 108.148 121.999 107.861 119.683 108.221C118.525 108.401 117.427 109.349 116.405 109.877L116.176 109.498C117.257 108.112 119.446 107.09 121.189 107.093C122.178 107.095 122.843 107.81 123.65 106.789C125.06 105.009 123.102 104.58 121.653 104.638C118.733 104.757 117.376 105.996 115.478 108.027C115.089 108.443 113.183 111.028 112.86 110.96C111.889 110.752 113.901 108.457 113.858 108.273C112.172 106.826 110.644 105.207 109.075 103.639C107.588 102.153 106.864 101.335 105.117 100.039C102.477 98.0794 99.6603 96.3271 96.9424 94.4783C96.6241 94.4462 96.3765 95.0088 96.2114 95.2425C94.3219 97.909 93.2448 101.198 94.6553 104.329C96.2329 107.829 104.609 113.991 107.951 116.33C108.928 117.014 110.784 117.923 111.537 118.605C111.873 118.91 112.123 119.498 112.547 119.91C113.608 120.939 115.083 121.464 116.563 121.293C118.326 121.09 117.927 119.579 118.181 118.21L116.869 118.668C116.035 118.593 117.833 117.09 118.225 116.941C119.465 116.474 123.286 118.106 122.939 116.012C122.656 114.311 120.38 114.212 119.047 114.37C118.07 114.486 117.226 115.076 116.389 115.263C115.95 115.36 116.2 114.896 116.429 114.683C117.387 113.795 119.453 113.455 120.711 113.598C121.789 113.722 123.929 115.144 123.589 112.726C123.363 111.115 120.783 111.135 119.509 111.285C118.695 111.381 117.014 112.374 116.874 112.35C116.436 112.271 116.906 111.69 117.017 111.571C118.388 110.109 121.444 110.22 123.114 111.115H123.113ZM178.036 103.867L177.343 95.8469L173.42 102.227C173.521 102.824 177.793 104.104 178.036 103.867ZM118.487 96.6175L114.833 100.751L114.052 106.91L114.554 107.562C115.804 106.261 117.081 105.022 118.628 104.07C118.403 101.599 118.136 99.0847 118.487 96.6165V96.6175ZM113.087 106.18L113.55 102.17L111.395 104.407L113.088 106.181L113.087 106.18ZM169.66 105.298C169.438 105.023 168.631 104.551 168.314 104.254C167.747 103.719 167.251 103.096 166.621 102.632C166.716 104.11 167.017 105.724 167.081 107.183C167.149 108.742 167.458 111.55 166.195 112.536L167.084 122.373C169.227 121.727 169.601 119.435 169.84 117.495C170.069 115.641 169.861 114.187 169.852 112.431C169.843 110.43 170.068 107.858 169.859 105.944C169.833 105.706 169.815 105.491 169.658 105.297L169.66 105.298ZM166.002 111.268C166.083 110.353 166.178 109.501 166.156 108.571C166.127 107.385 165.96 105.781 165.835 104.573C165.82 104.426 165.767 103.992 165.543 104.021C165.497 104.716 165.144 105.252 164.53 105.564L164.467 105.781C165 107.365 165.141 109.188 165.675 110.75C165.743 110.951 165.719 111.22 166.003 111.268H166.002ZM163.668 106.662C160.809 106.628 157.977 106.563 155.121 106.494C147.863 106.317 140.634 106.381 133.382 106.494C130.578 106.538 127.766 106.385 124.965 106.562L124.039 107.95C124.531 108.761 124.805 109.376 124.59 110.352C124.512 110.711 124.046 111.34 124.066 111.472C124.134 111.903 124.726 112.127 124.671 113.201C124.616 114.245 123.633 114.874 123.621 115.045C123.616 115.127 123.863 115.504 123.894 115.814C123.977 116.658 123.878 117.217 123.194 117.745C121.873 118.765 120.719 117.779 119.282 117.922L119.213 118.087L117.874 130.238C121.19 130.261 124.512 130.214 127.83 130.233C140.198 130.304 152.621 130.405 165.009 130.85C165.536 130.87 166.065 131.111 166.623 131.012L165.225 112.59L163.671 106.663L163.668 106.662ZM117.406 124.532L117.561 122.065C116.802 122.502 115.932 122.358 115.095 122.375C114.746 122.679 117.043 124.49 117.406 124.533V124.532ZM166.004 131.935C164.231 131.898 162.449 131.983 160.675 131.942C155.795 131.829 150.922 131.578 146.02 131.479C145.656 131.472 145.318 131.319 144.952 131.312L118.642 131.24C118.198 131.509 117.922 133.327 117.874 133.866C117.258 140.739 117.075 147.636 116.952 154.537C116.927 155.908 116.173 156.35 117.838 156.878C122.355 158.306 130.151 158.926 134.911 158.932C136.196 158.934 137.464 158.689 138.755 158.752L142.852 147.001L145.098 146.432C145.456 147.037 144.434 147.109 144.284 147.623C144.185 147.962 144.227 148.743 144.255 149.131C144.484 152.309 145.678 155.76 145.986 158.967L146.258 159.312C149.057 159.709 151.994 159.797 154.825 159.704C155.154 159.693 155.447 159.558 155.746 159.545C159.91 159.354 164.152 159.095 168.164 157.926L166.004 131.936V131.935ZM133.76 159.852C129.198 159.781 124.663 159.278 120.185 158.463L119.568 177.124L130.808 178.027L133.76 159.852ZM165.077 159.696C160.738 160.333 156.362 160.761 151.964 160.621L154.268 177.366C158.127 177.51 161.998 177.101 165.831 176.646L165.077 159.696ZM166.003 177.741C162.1 178.051 158.202 178.485 154.279 178.36C154.718 179.65 154.562 181.536 155.038 182.766C155.173 183.115 156.557 184.928 156.845 184.979C157.516 184.636 157.952 183.924 158.525 183.453C160.706 181.657 163.38 181.131 166.156 181.596C166.247 181.381 166.003 181.136 166.003 181.057V177.741ZM119.568 178.05V180.749C119.568 180.835 119.321 181.068 119.415 181.289C122.347 180.181 126.423 181.425 128.182 184.013C128.384 184.311 128.868 185.667 129.205 185.615C129.605 185.515 130.138 184.823 130.205 184.444C130.415 183.271 130.661 180.714 130.682 179.517C130.685 179.336 130.674 179.154 130.676 178.975L119.568 178.05ZM132.512 193.304C132.403 191.755 132.661 184.897 131.685 184.058C131.082 183.538 131.28 184.49 131.182 184.788C130.999 185.34 130.064 186.38 129.482 186.497C127.774 186.844 127.917 185.279 127.051 184.218C124.729 181.367 119.002 180.742 117.253 184.527C118.62 184.426 124.094 185.813 124.431 187.135C124.515 187.466 124.204 187.779 123.872 187.694C123.464 187.587 122.27 186.749 121.678 186.505C120.576 186.051 117.488 185.123 116.45 185.613C116.298 185.685 115.929 186.277 116.021 186.377C117.263 186.557 118.502 186.811 119.673 187.276C120.238 187.5 122.852 188.708 122.653 189.38C121.901 190.072 120.843 188.917 120.087 188.56C119.116 188.1 116.322 187.047 115.358 187.336C114.946 187.459 111.684 191.87 111.163 192.551L110.685 194.25C117.699 196.462 125.523 195.009 132.512 193.304ZM168.008 184.527C167.052 183.401 166.756 182.683 165.153 182.524C162.947 182.306 160.749 182.841 159.059 184.295C158.207 185.028 157.994 186.072 156.665 185.927C155.758 185.829 154.906 184.118 154.356 183.452C153.897 183.431 153.681 185.857 153.655 186.295C153.529 188.429 153.725 190.589 153.884 192.71C161.077 194.244 168.716 195.771 176.03 194.243C176.105 192.577 175.511 191.284 174.337 190.155C171.931 187.844 170.408 187.404 167.117 188.34C166.661 188.469 164.746 189.601 164.985 188.375C165.127 187.642 168.424 186.955 169.187 186.861C169.565 186.814 169.946 186.846 170.324 186.839C169.227 184.973 166.467 185.501 164.731 186.106C164.268 186.268 163.303 187.071 162.988 186.38C162.772 185.905 164.23 185.317 164.575 185.18C165.666 184.748 166.829 184.527 168.01 184.525L168.008 184.527ZM176.029 195.169C175.134 195.364 174.076 195.705 173.174 195.783C169.269 196.122 164.896 195.724 161.015 195.143C158.654 194.79 156.315 194.213 153.971 193.781L154.226 194.868C159.879 196.15 166.117 197.406 171.949 197.025C173.293 196.937 174.784 196.624 176.004 196.068L176.029 195.168V195.169ZM132.526 194.398C125.305 196.006 117.538 197.546 110.312 195.17C110.267 196.569 110.091 196.767 111.425 197.217C115.662 198.649 126.099 197.478 130.484 196.135C131.471 195.832 132.838 195.704 132.524 194.397L132.526 194.398Z" fill="black"/>
<path d="M135.709 46.6587C139.311 47.3478 143.113 47.8419 146.793 47.5697C147.913 47.4872 149.048 47.0359 150.11 47.0295C150.215 47.1077 150.348 47.201 150.363 47.336C150.384 47.5097 149.975 49.263 149.881 49.5781C147.437 57.7566 137.045 57.2572 135.781 49.0208C135.675 48.3274 135.993 47.56 135.477 47.007L135.708 46.6587H135.709ZM149.187 48.3445C145.001 48.9147 140.592 48.8611 136.539 47.5718C136.415 48.3328 136.78 48.6339 137.405 48.9404C139.638 50.0368 146.638 50.4345 148.682 48.994C148.94 48.8118 149.091 48.65 149.187 48.3445ZM148.879 49.7325C145.033 51.2125 140.652 51.1257 136.846 49.5781C137.103 50.1869 138.026 52.519 138.644 52.638C140.888 51.2651 144.144 51.4944 145.715 53.7322C147.196 52.8094 148.254 51.3444 148.88 49.7314L148.879 49.7325ZM144.658 53.4879C143.366 52.1278 140.726 52.3582 139.16 53.1256C140.491 54.7118 143.291 55.0548 145.019 53.9723C144.854 53.8469 144.793 53.6293 144.658 53.4868V53.4879Z" fill="black"/>
<path d="M146.427 39.8445C145.961 38.6377 148.773 38.2744 149.648 38.1619C149.689 37.9036 149.273 37.9936 149.104 38.0032C148.331 38.0472 147.534 38.2873 146.718 38.1629C146.624 37.4159 147.563 37.2016 148.14 37.0408C150.105 36.4931 152.394 36.8125 154.228 37.6721C155.067 38.0654 156.574 38.9314 156.215 40.0246C155.877 40.4961 152.078 39.3644 151.27 39.7041C149.688 39.3997 148.037 39.8959 146.425 39.8434L146.427 39.8445Z" fill="black"/>
<path d="M135.613 38.9367L137.162 39.8156C137.399 40.1242 137.306 40.6698 136.906 40.7491C136.47 40.8348 134.393 40.3439 133.69 40.3172C132.269 40.2625 130.865 40.6312 129.518 40.6451C129.285 40.6472 128.911 40.6526 128.832 40.3836C128.935 39.2593 130.047 38.6313 130.987 38.2444C133.001 37.4149 135.79 37.1126 137.703 38.3141C137.908 39.568 136.374 38.9217 135.613 38.9367Z" fill="black"/>
<path d="M148.688 31.8821C151.128 31.5509 154.429 32.3976 155.668 34.6922C155.457 34.9709 155.484 34.8862 155.242 34.8165C154.615 34.6365 153.909 34.0899 153.124 33.8455C151.603 33.3729 150.409 33.3054 148.841 33.5787C147.926 33.7384 146.051 34.7715 145.693 33.6151C145.702 32.8209 148.007 31.9753 148.688 31.8832V31.8821Z" fill="black"/>
<path d="M128.054 35.2347C127.768 34.8306 129.445 33.701 129.801 33.5124C131.873 32.417 136.569 31.8479 137.773 34.3837C137.629 34.598 137.484 34.6248 137.24 34.6259C136.63 34.628 135.512 34.2026 134.762 34.1576C133.269 34.0686 131.168 34.4073 129.716 34.8156C129.362 34.9153 128.34 35.6387 128.054 35.2336V35.2347Z" fill="black"/>
<path d="M165.231 41.4049C165.607 41.9815 163.921 42.2601 163.689 42.7146C164.652 43.2344 165.04 44.543 164.768 45.5665C164.353 45.9491 163.423 43.5623 163.149 43.5645C162.701 43.9363 162.802 45.0231 161.985 44.7251C161.413 43.6052 162.883 41.5742 163.987 41.3127C164.247 41.2516 165.122 41.2377 165.232 41.4038L165.231 41.4049Z" fill="black"/>
<path d="M123.115 47.4191C122.821 47.7664 121.891 45.7107 121.575 45.7236C121.343 46.1523 121.001 48.4898 120.571 48.4962C119.927 47.5016 120.651 46.1469 121.097 45.2027C120.905 44.4622 118.978 44.8641 119.106 44.2607C120.962 42.8352 123.344 45.4632 123.115 47.4191Z" fill="black"/>
<path d="M146.566 43.2534C146.34 43.2298 146.018 43.3252 145.827 43.2191C145.718 43.158 144.581 41.4539 144.402 41.1742C144.162 40.8001 143.234 39.424 143.193 39.1282C143.136 38.7049 143.509 38.3491 143.939 38.5441C144.448 38.7756 146.962 42.8708 146.566 43.2523V43.2534Z" fill="black"/>
<path d="M140.166 56.5176C141.108 56.9152 141.924 57.0031 142.938 56.9784C143.367 56.9688 143.904 56.5712 144.248 57.0577C143.149 58.4028 141.04 58.0352 139.932 56.9013L140.166 56.5176Z" fill="black"/>
<path d="M196.657 5.34708C198.448 4.93982 200.196 6.22377 199.875 8.09826L191.826 23.0331C189.145 27.2343 185.284 24.0641 182.591 21.8123C181.123 20.5852 178.989 19.0997 180.164 16.9262C180.329 16.6219 180.929 15.9842 181.234 15.8363C183.771 14.6027 185.804 18.7236 188.063 19.1276C190.13 15.4515 192.012 11.6361 194.324 8.10362C194.785 7.39948 195.857 5.52928 196.657 5.34708ZM197.124 6.26557C196.476 6.3974 195.908 7.42949 195.558 7.94929C194.217 9.93524 192.936 12.3585 191.738 14.4644C191.238 15.3443 189.106 19.6913 188.611 19.9743C187.081 20.8478 184.773 17.9058 183.579 17.1224C181.336 15.6509 179.978 18.0087 181.5 19.6635C182.192 20.4159 183.885 21.628 184.773 22.2518C187.317 24.0384 189.179 25.4005 191.173 22.0749C193.831 17.6422 196.048 12.9008 198.67 8.44122C199.295 7.32767 198.375 6.0105 197.123 6.26557H197.124Z" fill="black"/>
<path d="M164.921 86.1295C164.696 86.3535 164.643 86.1145 164.614 85.9023C164.53 85.27 164.706 84.2733 164.79 83.6077C165.091 81.2177 165.641 77.0304 166.359 74.8397C166.618 74.0488 166.924 74.3778 166.891 75.0541C166.819 76.5138 166.51 78.1 166.285 79.5501C165.942 81.7579 165.516 83.9817 164.92 86.1295H164.921Z" fill="black"/>
</g>
<defs>
<clipPath id="clip0_2107_44884">
<rect width="308" height="200" fill="white"/>
</clipPath>
</defs>
</svg>
