<svg width="300" height="200" viewBox="0 0 300 200" fill="none" xmlns="http://www.w3.org/2000/svg">
<path d="M90.2281 196.465C92.331 197.371 95.0369 198.215 97.0872 196.755C99.0125 196.917 101.214 196.897 103.008 197.761C105.663 200.77 81.3252 200.173 79.7135 199.255C73.9661 196.862 89.2018 196.878 90.2281 196.465Z" fill="#CCCCCC"/>
<path d="M90.2265 196.466C83.9463 191.267 70.8003 178.498 69.1031 170.788C67.5857 166.365 73.5238 163.109 76.7012 166.073C81.9333 169.773 88.3626 170.884 94.6056 171.619C94.4784 170.569 93.7504 169.683 94.6933 168.74C98.6316 163.988 102.594 159.256 106.734 154.677C115.806 144.597 127.062 136.942 137.872 128.896C139.585 126.916 139.475 125.414 142.486 124.35C141.922 123.568 141.881 122.704 141.843 121.838C141.694 118.368 141.521 114.902 141.396 111.433C140.957 105.953 140.582 100.499 140.471 94.9974C132.068 98.7274 123.47 106.88 116.426 96.2144C112.845 90.5723 110.609 84.2328 108.576 77.9087C108.004 76.4922 107.657 75.1348 108.675 73.8148C106.699 69.883 103.546 65.5763 103.96 61.0175C104.195 59.2413 105.723 58.5681 106.877 57.4804C107.703 55.9016 109.681 56.0748 110.835 54.8798C111.681 54.0772 113.034 54.2131 114.038 53.6474C117.124 52.4698 123.152 55.3775 122.485 59.193C125.138 60.1644 125.687 63.0634 124.136 65.2715C123.062 67.21 122.055 69.2822 120.15 70.5409C120.084 70.8588 120.156 71.0913 120.384 71.236C123.071 74.2643 124.296 78.446 126.939 81.5839C127.364 81.6124 127.581 81.2923 127.831 81.0752C129.995 79.1828 132.142 77.2706 134.307 75.3782C140.453 69.5585 145.896 62.1665 154.801 60.6929C154.864 60.114 154.98 59.5724 154.855 59.0176C146.437 54.9675 138.517 46.1699 143.51 36.5127C145.233 32.0854 148.632 28.4936 150.04 23.9763C150.343 22.3931 151.13 20.9985 151.983 19.6192C151.549 17.6435 154.623 14.2358 154.858 11.9158C153.939 6.10048 161.848 1.78501 166.942 3.0393C172.812 -2.97341 184.77 1.13155 190.864 5.10932C195.565 8.71432 199.642 13.7995 206.034 13.9332C205.051 15.6107 202.332 16.1721 200.492 16.5909C201.514 18.2005 204.922 19.2618 206.713 20.1082C205.926 21.095 204.869 21.6739 201.183 23.1518C202.286 24.9127 204.453 26.5902 204.444 28.7808C203.262 28.4102 202.12 28.1471 200.859 28.3181C201.821 31.0372 202.883 34.4098 201.214 37.0477C200.102 38.745 198.313 39.9708 197.372 41.7382C196.223 43.7775 193.826 44.9112 192.221 46.6106C195.142 53.1255 187.504 58.6251 181.658 55.645C179.112 57.4914 176.47 59.1207 173.365 60.1776C173.192 60.4627 173.001 60.9407 172.9 61.353C175.049 61.7214 176.913 62.4472 178.231 64.3001C186.432 64.5325 200.554 79.038 206.963 84.746C209.873 87.3488 210.086 91.3749 210.799 94.9667C211.689 100.609 212.967 106.238 213.13 111.959C212.785 112.24 212.437 112.525 212.055 112.836C211.476 116.706 215.022 127.409 209.033 127.855C207.674 127.993 206.606 129.17 205.135 128.727C203.997 128.699 202.9 129.396 201.813 128.668C199.115 130.074 195.986 127.085 197.346 124.383C196.094 121.857 196.287 118.39 198.55 116.553C199.672 115.665 200.784 115.402 200.576 113.685C200.021 113.31 199.168 113.167 199.058 112.393C198.561 109.314 198.058 106.236 197.528 103.163C197.052 101.133 196.749 98.8721 195.651 97.0915C192.188 94.1225 188.386 91.4977 184.456 89.1908C183.63 97.3086 184.241 105.488 185.735 113.496C185.772 115.454 187.397 118.202 186.268 119.879C184.963 121.572 183.41 122.969 181.671 124.201C184.496 133.521 184.978 143.301 186.86 152.796C191.57 154.432 196.76 154.85 201.635 156.094C204.575 156.938 207.863 156.662 210.682 157.723C211.987 157.339 213.307 157.21 214.638 157.146C216.116 157.089 216.989 155.554 218.491 155.379C222.791 154.434 223.015 160.372 224.256 163.155C225.366 166.74 226.403 170.345 227.072 174.042C227.635 178.059 228.955 182.182 227.852 186.217C227.282 189.848 222.34 192.264 219.927 188.854C217.331 182.991 213.463 177.919 209.273 173.086C208.514 173.413 207.843 173.757 206.972 173.592C203.828 173.294 200.67 173.285 197.519 173.119C191.831 172.593 186.101 172.531 180.441 171.722C174.137 171.474 169.778 167.235 166.539 162.227C162.866 157.208 159.743 151.835 156.472 146.564C142.729 152.158 129.884 160.181 119.303 170.654C115.578 174.314 111.986 178.116 108.328 181.846C107.635 182.697 106.78 182.158 105.806 182.164C106.278 185.741 100.169 189.455 99.4407 193.128C98.7281 194.709 97.7435 197.102 95.9805 197.613C93.9017 198.073 91.9479 197.843 90.2265 196.466Z" fill="black"/>
<path d="M248.92 21.1826C242.486 21.1716 236.11 20.0182 229.707 19.4612C222.619 18.4942 215.377 18.2815 208.34 17.4504C209.739 16.604 212.013 17.071 213.66 17.0096C217.436 17.207 221.209 17.4701 224.968 17.8824C232.961 18.8648 241.114 19.3077 248.977 20.9896C248.96 21.0532 248.94 21.119 248.92 21.1826Z" fill="black"/>
<path d="M246.433 101.854C245.232 102.372 242.537 101.67 241.079 101.697C237.208 101.344 233.349 100.892 229.494 100.407C226.542 100.037 223.591 99.6529 220.641 99.2669C219.31 98.8744 215.35 99.0915 214.809 97.9907C225.4 98.9424 236.004 99.9796 246.433 101.854Z" fill="black"/>
<path d="M239.402 30.3203C239.007 30.8882 236.038 30.2523 235.203 30.2984C227.979 29.441 220.732 28.8226 213.494 28.1209C213.182 28.0376 212.474 28.0222 212.737 27.5376C213.424 27.2854 214.279 27.4104 215.011 27.3885C223.138 27.9477 231.523 28.3336 239.402 30.3203Z" fill="black"/>
<path d="M238.691 88.7194C234.483 88.8378 230.299 88.2019 226.129 87.7085C222.118 87.0682 217.831 86.8818 214.07 85.3446C216.48 84.8381 219.096 85.8621 221.568 86.0113C224.309 86.3709 227.052 86.7086 229.795 87.0463C232.573 87.3884 235.354 87.726 238.097 88.2918C238.36 88.3444 238.36 88.3488 238.691 88.7194Z" fill="black"/>
<path d="M231.727 24.0486C225.252 24.3227 218.715 23.1211 212.231 22.8163C210.838 21.9742 213.91 22.2176 214.336 22.1519C217.493 22.154 220.633 22.4084 223.767 22.7724C226.416 23.2 229.227 23.0268 231.727 24.0486Z" fill="black"/>
<path d="M239.127 94.6926C237.542 95.1202 222.841 93.6401 218.918 92.4406C220.047 92.0283 221.225 92.3704 222.396 92.3814C227.985 93.0151 233.647 93.4098 239.127 94.6926Z" fill="black"/>
<path d="M209.363 92.9735C210.54 99.0871 211.589 105.269 212.071 111.477C208.85 113.865 204.622 114.057 200.956 112.623C199.57 112.52 199.364 106.238 198.879 104.758C198.142 101.936 198.03 97.9117 195.831 95.8702C193.281 93.8265 180.955 84.4259 178.435 85.2351C179.378 86.338 180.83 86.7788 182.027 87.6669C170.5 90.625 158.132 89.3707 146.852 85.8205C145.26 85.1473 142.403 84.325 142.857 82.1125C143.526 79.0579 144.324 76.0493 145.622 73.1921C145.874 72.2492 147.703 69.4358 147.234 68.7977C146.789 68.6069 146.587 69.2121 146.376 69.495C141.999 76.7467 141.074 85.2131 140.464 93.502C135.989 96.0588 126.952 102.311 121.961 99.8984C116.482 96.8351 114.447 90.2457 112.105 84.8053C111.412 82.516 110.035 80.1258 109.824 77.7882C113.861 78.0448 118.33 76.7269 120.609 73.2096C122.187 75.3476 123.093 77.9922 124.654 80.185C126.345 82.4348 127.507 84.996 129.259 87.1625C129.847 85.61 128.158 84.0794 127.656 82.63C128.799 81.6871 129.878 80.7113 131.051 79.878L131.033 79.8868C137.923 75.0231 143.153 68.0258 150.764 64.1862C151.652 63.8595 152.621 62.7148 153.582 63.035C150.865 67.4513 154.264 71.4115 158.823 72.0781C163.445 72.8478 168.596 71.622 171.804 68.0697C174.416 65.3703 172.521 62.3223 173.537 62.6008C174.278 63.149 175.993 64.23 175.725 65.2431C175.33 65.469 174.896 65.6576 174.589 65.9974C176.69 67.1136 179.624 65.4624 181.613 67.2035C187.292 71.4839 192.952 75.8169 198.166 80.6608C200.835 82.6695 204.126 85.0531 205.153 86.3095C206.804 88.3818 208.738 90.3158 209.363 92.9735Z" fill="#D52B1E"/>
<path d="M209.784 158.833C213.086 161.523 211.707 169.783 208.367 172.189C207.959 172.489 207.529 172.619 207.089 172.481C205.523 172.193 203.973 172.34 202.403 172.101C197.811 172.136 193.287 171.658 188.717 171.316C184.785 171.082 180.742 171.058 176.913 169.939C171.422 168.553 168.76 163.043 165.532 158.883C162.09 153.473 158.491 148.136 155.467 142.487C156.989 143.474 157.774 145.502 159.105 146.814C163.818 143.518 169.589 141.65 175.098 144.224C175.453 144.331 175.907 144.406 176.163 144.06C176.54 143.516 175.99 142.891 175.63 142.507C172.9 140.007 169.129 139.851 165.697 140.617C165.059 139.238 168.484 139.119 169.309 139.402C169.984 139.599 170.699 139.518 171.35 139.128C170.716 135.499 165.934 135.358 163.041 135.997C161.259 135.999 159.509 137.641 157.807 136.865C157.259 136.606 156.518 136.253 155.926 136.339C155.185 136.6 154.367 136.336 153.667 136.703C152.812 137.157 152.452 138.071 151.441 138.376C149.299 136.911 146.896 136.124 144.477 135.242C141.629 133.894 138.585 132.834 135.447 132.473C134.978 131.911 137.8 130.495 138.212 129.993C139.385 129.26 139.778 127.898 140.613 126.863C142.703 124.456 144.929 125.127 147.479 126.241C157.211 128.677 171.604 130.425 180.472 125.004C180.784 125.129 180.849 125.412 180.922 125.673C181.751 128.554 182.371 131.49 182.838 134.453C184.016 140.461 184.419 146.599 185.586 152.614C185.812 153.519 186.505 154.054 187.45 154.206C188.458 155.024 189.686 155.335 190.899 155.653C197.118 157.012 203.438 158.37 209.784 158.833Z" fill="black"/>
<path d="M178.12 49.3472C177.449 50.1147 178.313 50.9326 177.543 51.6804C176.074 53.9017 174.57 56.1033 173.153 58.3575C172.421 59.4956 170.307 64.2364 172.208 64.7934C170.618 70.6132 162.755 72.1898 157.599 70.6417C154.891 69.872 152.431 67.0564 154.325 64.2189C154.457 64.8548 153.966 66.6332 154.727 66.6442C155.518 65.1815 155.404 63.4953 155.742 61.855C159.211 61.5678 162.728 61.9274 166.173 61.7498C166.496 61.0678 164.461 61.1687 164.033 60.9472C156.13 59.239 147.826 55.1582 144.092 47.6149C139.734 39.2734 150.784 26.2875 155.371 19.3604C165.838 18.571 175.602 25.0376 182.391 32.4998C182.019 36.0543 178.692 39.2032 179.424 42.8828C179.799 44.1436 180.804 45.3694 182.24 44.8015C184.828 43.2205 188.222 43.602 190.31 45.865C196.259 53.6517 182.073 60.9231 178.12 49.3472Z" fill="#EED3CA"/>
<path d="M184.311 120.445C178.111 127.429 168.003 127.966 159.31 127.045C153.789 126.506 147.98 126.032 143.066 123.254C142.671 118.351 142.616 113.45 142.261 108.542C142.149 105.42 141.82 99.1309 141.82 99.1309C141.82 99.1309 148.267 102.924 161.692 103.473C168.978 103.771 176.188 103.041 182.96 100.361C183.017 104.098 182.808 107.83 183.438 111.56C183.716 114.125 184.008 116.693 184.49 119.232C184.574 119.658 184.541 120.066 184.311 120.445Z" fill="#D52B1E"/>
<path d="M130.209 136.277C131.016 134.882 132.948 134.135 134.145 133.01C135.36 134.181 131.292 135.933 131.264 137.22C138.042 139.283 144.057 142.932 147.521 149.316C139.625 153.335 132.104 157.984 125.301 163.711C118.997 168.74 113.699 174.809 108 180.48C105.774 175.566 101.911 171.362 96.7422 169.571C106.035 157.124 118.048 146.154 130.209 136.277Z" fill="black"/>
<path d="M183.303 88.5788C183.459 92.0523 183.027 95.563 182.95 99.1175C175.799 102.376 167.864 102.911 160.132 102.152C155.093 101.49 145.186 100.92 141.622 97.3589C141.298 94.8393 141.991 86.3948 142.539 84.5879C145.379 86.8838 149.041 87.6513 152.516 88.4758C162.614 90.9361 173.194 91.0216 183.303 88.5788Z" fill="white"/>
<path d="M153.117 18.5381C153.845 16.8562 154.746 15.4133 155.308 13.681C155.439 13.2885 155.689 13.0341 156.069 12.8675C164.13 9.30412 173.346 12.7578 180.091 17.6237C187.919 23.325 193.921 31.5349 196.292 40.9838C196.592 42.0254 195.303 42.4815 194.728 43.1284C193.649 43.92 192.827 45.0449 191.597 45.6063C191.018 45.0844 190.54 44.5493 190.292 43.7621C188.735 38.8524 185.801 34.5479 182.306 30.8113C174.905 23.075 164.167 16.5974 153.117 18.5381Z" fill="#BCBDDE"/>
<mask id="mask0_2437_72298" style="mask-type:luminance" maskUnits="userSpaceOnUse" x="153" y="11" width="44" height="35">
<path d="M153.117 18.5381C153.845 16.8562 154.746 15.4133 155.308 13.681C155.439 13.2885 155.689 13.0341 156.069 12.8675C164.13 9.30412 173.346 12.7578 180.091 17.6237C187.919 23.325 193.921 31.5349 196.292 40.9838C196.592 42.0254 195.303 42.4815 194.728 43.1284C193.649 43.92 192.827 45.0449 191.597 45.6063C191.018 45.0844 190.54 44.5493 190.292 43.7621C188.735 38.8524 185.801 34.5479 182.306 30.8113C174.905 23.075 164.167 16.5974 153.117 18.5381Z" fill="white"/>
</mask>
<g mask="url(#mask0_2437_72298)">
<path d="M188.007 46.4988C187.391 45.9133 186.718 45.1612 186.394 44.0319C185.161 39.7581 182.683 35.504 179.028 31.3881C171.625 23.233 162.702 18.5469 154.556 18.5469C153.482 18.5469 152.403 18.6259 151.348 18.7837L148.934 19.1434L149.962 16.9286C150.267 16.2708 150.594 15.6546 150.912 15.0603C151.414 14.1152 151.887 13.2227 152.232 12.2469C152.504 11.508 153.03 10.9685 153.76 10.6725C155.99 9.75589 158.4 9.29102 160.915 9.29102C168.678 9.29102 175.541 13.6372 178.942 16.2291C187.185 22.5685 192.889 31.274 195.009 40.7448C195.41 42.3478 194.132 43.2622 193.516 43.7051C193.347 43.8257 193.154 43.9639 193.071 44.0538L192.974 44.1569L192.858 44.238C192.507 44.4814 192.165 44.784 191.805 45.1041C191.148 45.6874 190.4 46.3497 189.428 46.7641L188.632 47.1018L188.007 46.4988Z" fill="#212492"/>
</g>
<path d="M76.3599 167.286C78.3971 168.408 80.3268 169.632 82.5174 170.321C83.4296 170.75 85.1268 170.586 85.1838 171.904C85.2014 172.382 85.4777 172.838 85.2474 173.347C85.1159 173.638 85.3417 173.879 85.5895 174.04C86.7736 174.237 86.3153 172.29 86.3373 171.575C86.9863 171.448 86.9863 171.448 87.835 171.792C88.2231 172.472 88.1244 173.184 87.9753 173.921C87.9819 174.167 88.2582 174.485 88.4862 174.526C89.4335 174.439 89.0849 172.952 89.1682 172.325C89.5476 171.884 90.1528 172.035 90.3743 172.437C90.8019 173.252 90.3699 174.347 90.9641 175.033C92.1943 175.568 91.5255 173.075 91.6505 172.41C96.7685 172.294 97.1523 175.439 98.0053 179.616C98.5293 182.581 101.974 182.633 104.378 182.681C105.895 183.159 100.477 189.038 99.7617 189.775C97.5382 187.898 94.863 186.725 92.3017 185.363C88.2034 183.269 84.8023 180.076 81.8946 176.548C81.0789 175.226 73.6781 167.998 76.3599 167.286Z" fill="#3E3E3E"/>
<path d="M97.9282 193.839C95.8319 190.273 91.8365 189.12 88.782 186.664C85.5936 184.39 83.0587 181.414 80.6225 178.379C79.1664 176.63 77.9078 174.715 76.3574 173.044C76.2653 172.941 76.1382 172.867 75.9759 173.016C80.1006 179.219 84.6814 185.497 91.2247 189.348C93.2685 190.26 100.27 195.19 95.1762 196.363C89.2885 196.915 86.0826 190.78 82.1947 187.381C77.4166 182.219 71.5749 176.954 70.029 169.827C69.7461 167.51 73.0331 168.887 73.3533 168.097C73.0485 167.093 71.5661 167.485 70.7263 167.464C71.8622 165.983 73.8489 165.576 75.215 166.492C72.4191 168.92 80.936 176.739 82.6135 179.002C85.5256 182.333 89.0254 185.131 93.036 187.021C95.1828 188.113 97.5554 188.966 99.1869 190.821C98.9303 191.876 98.5663 192.87 97.9282 193.839Z" fill="#CCCCCC"/>
<path d="M211.512 158.712C212.602 158.256 214.847 157.804 215.864 158.495C218.13 160.655 220.202 162.97 221.724 165.729C223.653 169.731 224.092 174.283 224.732 178.631C224.925 180.824 226.447 185.469 223.478 186.221C222.346 186.348 221.458 186.916 220.487 187.466C219.145 185.105 218.226 182.506 216.461 180.357C217.007 179.243 218.211 179.004 219.053 178.23C219.665 176.094 216.301 178.783 215.746 179.208C215.358 178.93 215.047 178.616 214.845 178.241C215.283 177.259 216.529 176.991 217.305 176.3C217.904 176.092 218.211 174.996 217.318 175.092C216.154 175.583 215.178 176.443 214.132 177.121C213.658 176.875 213.452 176.452 213.297 175.98C213.922 174.713 215.555 174.448 216.415 173.397C216.656 171.343 213.246 174.603 212.61 174.801C212.753 172.989 213.001 171.382 213.097 169.575C215.882 167.915 217.329 164.402 214.781 161.852C214.11 161.183 213.47 160.484 212.553 160.133C211.917 159.894 211.766 159.297 211.512 158.712Z" fill="#3E3E3E"/>
<path d="M109.349 65.041C108.93 63.1069 105.308 63.063 108.288 64.9489C107.08 68.0298 111.299 69.431 112.853 66.8171C113.233 66.8171 113.577 66.8171 113.941 66.8171C114.86 67.8719 114.722 69.2687 115.219 70.4901C115.901 69.352 115.838 68.5451 115.002 66.5452C115.809 65.2208 121.519 64.9072 121.278 63.8656C121.05 63.5718 120.552 63.6726 120.219 63.7231C119.085 63.8196 117.274 63.5345 117.353 62.0653C117.695 60.2606 120.55 60.7913 121.94 60.3483C122.758 60.2453 123.624 60.9557 123.861 61.8307C124.451 63.7121 121.307 68.4486 119.715 69.499C119.206 69.9945 117.868 70.4638 117.763 71.126C118.057 71.58 118.677 71.1085 119.112 71.08C121.094 75.8011 113.116 75.2222 110.312 75.0797C110.242 74.9021 110.169 74.7201 110.079 74.4898C110.45 74.3955 110.774 74.3122 111.213 74.2004C111.013 73.9833 110.91 73.7662 110.755 73.718C109.766 73.4066 109.239 72.6457 108.764 71.8036C107.218 68.8148 105.341 65.8216 104.928 62.4227C104.755 56.0065 113.226 59.8988 112.763 64.3349C112.568 67.7359 108.06 68.2118 109.349 65.041Z" fill="#EED3CA"/>
<path d="M210.955 113.533C210.941 116.235 213.058 126.688 209.152 126.754C209.22 125.776 209.22 125.776 208.97 125.508C208.13 126.732 207.157 128.043 205.475 127.64C205.639 127.219 205.573 126.102 205.019 126.8C204.534 127.699 203.389 128.311 202.416 127.703C203.302 125.55 202.181 126.096 201.328 127.401C199.929 129.025 197.118 126.738 198.311 124.923C198.837 125.065 198.837 125.065 199.19 125.899C200.429 126.013 199.699 122.96 199.833 122.114C199.458 121.789 199.118 121.366 198.684 121.138C197.962 121.596 199.311 122.831 198.795 123.714C197.677 123.719 197.811 122.298 197.644 121.522C197.291 119.066 199.006 117.362 200.793 115.987C204.115 115.079 207.65 114.645 210.955 113.533Z" fill="#EED3CA"/>
<path d="M209.361 92.9735C208.229 90.4079 206.46 88.2853 204.657 86.1429C203.802 85.2241 202.541 84.8206 201.657 83.915C201.339 83.6189 200.986 83.551 200.515 83.6058C198.326 83.8229 196.05 83.4764 193.901 83.0137C194.092 82.4874 194.566 82.6168 194.952 82.5708C196.324 82.4085 197.669 82.1322 198.993 81.6914C193.244 76.5515 187.204 71.6944 181.023 67.061C179.883 65.9251 175.968 67.3285 175.238 66.2584C178.503 65.0282 181.76 65.3725 184.553 67.5324C187.808 69.7932 190.989 72.1439 194.057 74.6569C197.829 77.7444 201.513 80.9305 204.999 84.3382C207.876 86.8248 208.968 89.2106 209.361 92.9735Z" fill="#FCA6A6"/>
<path d="M221.037 188.523C221.89 187.64 222.809 187.431 223.874 187.236C227.363 186.295 226.08 181.879 225.929 179.221C224.925 170.18 223.675 163.957 216.625 157.62C218.305 155.879 220.894 155.793 221.537 158.436C223.381 163.615 224.964 168.889 226.059 174.281C226.754 178.737 228.464 184.013 225.784 188.091C224.622 189.552 222.412 190.03 221.037 188.523Z" fill="#CCCCCC"/>
<path d="M130.209 136.277C122.464 143.397 114.178 150.05 106.966 157.776C103.488 161.639 100.288 165.755 96.7448 169.573C96.4356 169.564 96.1264 169.558 95.7383 169.547C105.124 156.973 116.879 144.652 130.209 136.277Z" fill="#6A6969"/>
<path d="M104.356 181.533C96.3892 182.452 100.463 176.141 96.2773 172.487C96.5207 171.983 96.8584 171.558 97.2575 171.106C102.023 172.268 103.463 177.187 104.356 181.533Z" fill="#EED3CA"/>
<path d="M153.578 63.0303C149.776 64.7911 146.145 67.1089 142.897 69.7491C140.937 71.9287 138.643 73.797 136.481 75.7793C134.67 77.095 133.137 79.1409 131.027 79.8843C138.619 73.6282 144.347 63.8241 154.596 61.8286C154.407 62.4141 153.982 62.7145 153.578 63.0303Z" fill="#FCA6A6"/>
<path d="M107.812 58.1955C107.942 57.6605 108.33 57.4149 108.74 57.189C111.56 55.4304 114.555 58.6056 115.343 61.2457C115.799 62.9956 115.882 65.7827 113.457 65.8046C114.209 62.0329 111.457 58.8534 107.812 58.1955Z" fill="#EED3CA"/>
<path d="M184.31 120.445C183.685 115.965 183.034 111.483 182.648 106.99C182.729 105.225 182.045 102.832 182.953 101.236C183.367 106.086 184.286 111.231 185.115 116.042C185.496 117.958 186.104 119.028 184.31 120.445Z" fill="#EF6261"/>
<path d="M209.783 158.833C208.588 159.767 202.262 157.907 200.321 157.793C198.106 157.304 187.927 156.129 187.449 154.204C192.194 155.162 196.918 156.234 201.659 157.214C204.235 157.85 206.891 157.962 209.498 158.438C209.698 158.471 209.746 158.657 209.783 158.833Z" fill="#6A6969"/>
<path d="M118.182 59.8312C117.123 60.4188 117.123 60.4188 116.241 61.5876C115.658 59.0132 113.761 56.9432 111.301 56.0376C113.684 53.472 118.327 56.6099 118.182 59.8312Z" fill="#EED3CA"/>
<path d="M121.354 59.3837C120.514 59.535 119.733 59.6754 118.891 59.8267C118.876 57.3685 117.185 55.509 115.008 54.6516C115.085 54.2876 115.411 54.4367 115.65 54.406C118.089 54.678 122.352 56.2831 121.354 59.3837Z" fill="#EED3CA"/>
<path d="M213.157 168.159C212.933 165.858 212.725 163.712 212.508 161.486C215.299 162.532 215.999 166.635 213.157 168.159Z" fill="#EED3CA"/>
<path d="M188.273 9.2495C187.97 9.45124 187.685 9.41835 187.426 9.3109C186.135 8.78463 184.793 8.64647 183.415 8.71884C182.747 8.80436 182.609 8.09388 183.28 7.95135C184.887 7.53033 187.523 7.52375 188.273 9.2495Z" fill="white"/>
<path d="M175.721 65.241C175.346 64.1599 174.217 63.4999 173.535 62.5986C175.05 62.6951 176.202 63.4056 177.088 64.6752C176.638 64.9559 176.184 65.1072 175.721 65.241Z" fill="#EF6261"/>
<path d="M186.497 10.4224C187.148 10.4267 189.049 10.782 188.479 11.6481C187.372 11.6745 186.26 11.135 185.109 11.2644C184.192 10.5781 186.063 10.4487 186.497 10.4224Z" fill="white"/>
<path d="M183.574 5.74744C184.157 5.66192 184.631 6.36363 183.87 6.4623C182.999 6.40967 181.723 7.52801 181.247 7.2276C180.993 6.16847 182.769 5.81981 183.574 5.74744Z" fill="white"/>
<path d="M117.164 64.1226C116.877 64.4822 116.579 64.6862 116.09 64.7234C116.175 64.1072 116.256 63.5283 116.357 62.8179C116.671 63.3748 116.811 63.5919 117.164 64.1226Z" fill="#EED3CA"/>
<path d="M158.944 137.873C158.218 137.994 157.736 138.134 157.242 137.744C157.784 137.334 158.255 137.371 158.944 137.873Z" fill="black"/>
<path d="M131.05 79.876C130.951 79.9461 130.853 80.0185 130.754 80.0887C130.853 80.0185 130.951 79.9483 131.05 79.876Z" fill="#EF6261"/>
<path d="M198.602 81.3711C199.003 81.3821 199.402 81.393 199.797 81.404C198.711 83.1473 187.589 83.6429 186.129 82.0618C188.192 81.6408 190.339 82.1649 192.451 82.0158C194.512 81.9785 196.567 81.6912 198.602 81.3711Z" fill="black"/>
<path d="M149.004 41.7012C148.864 41.631 148.746 41.5718 148.57 41.4841C148.974 40.4798 149.748 39.8965 150.73 39.4141C150.864 39.6509 150.96 39.8241 151.068 40.0171C154.21 41.1639 157.399 41.6157 159.802 41.1135C159.905 40.914 160.015 40.7056 160.126 40.4885C161.315 40.6771 162.493 42.2143 162.407 43.3677C161.982 43.6988 161.778 43.0498 161.422 43.3107C158.576 46.3982 154.394 47.5275 150.39 46.4574C148.351 45.8697 148.809 43.3239 149.004 41.7012Z" fill="black"/>
<path d="M161.934 37.9228C162.234 37.7824 162.388 37.7123 162.576 37.6246C163.874 30.6141 170.757 35.4559 165.359 39.5784C165.517 39.8525 165.666 40.1112 165.835 40.4007C165.139 40.7164 162.624 38.4885 161.934 37.9228Z" fill="black"/>
<path d="M155.043 31.3859C155.001 32.9888 153.208 35.4623 151.3 34.5041C149.396 33.3594 150.429 30.4364 152.056 29.4957C153.466 28.6383 155.109 29.4211 155.043 31.3859Z" fill="black"/>
<path d="M185.124 52.3073C184.812 50.893 186.029 49.5576 185.472 48.0423C184.613 47.7529 183.747 47.9568 182.9 48.1037C182.076 48.0489 182.797 47.2003 183.242 47.1213C187.549 45.5776 192.63 49.8689 186.766 48.1278C186.827 49.3931 186.567 52.0157 185.124 52.3073Z" fill="black"/>
<path d="M165.108 31.5133C163.665 31.5462 164.095 29.8906 165.147 29.7503C165.862 29.2985 172.43 28.0728 171.52 29.8248C169.39 30.2458 167.158 30.8642 165.108 31.5133Z" fill="black"/>
<path d="M176.941 33.6338C177.215 34.8201 176.325 36.0393 175.838 37.0985C174.156 39.2211 171.827 36.5788 174.338 34.0066C175.092 33.318 176.686 30.2503 177.572 30.4937C177.474 30.895 177.224 31.2941 177.039 31.6712C176.051 33.693 174.228 35.3354 174.603 36.5349C175.974 35.9845 175.597 34.1557 176.941 33.6338Z" fill="black"/>
<path d="M157.359 27.5987C157.431 28.3136 156.611 28.739 156.118 28.2807C155.64 27.8618 155.484 27.1974 155.247 26.6295C154.975 25.4761 154.131 24.7458 153.456 23.8424C153.261 23.0376 154.405 23.1363 154.85 23.4389C156.377 24.2481 156.846 26.09 157.359 27.5987Z" fill="black"/>
<path d="M176.943 33.6337C176.191 34.1709 175.267 37.9623 174.221 36.5896C174.134 34.741 176.223 33.2368 177.057 31.647C177.721 32.1097 177.006 33.0153 176.943 33.6337Z" fill="#BCBDDE"/>
<path d="M156.966 33.7257C156.677 34.6664 153.701 36.5325 152.714 37.0106C151.807 37.0566 152.265 36.2716 152.765 36.0041C153.806 35.5304 155.979 33.2038 156.966 33.7257Z" fill="black"/>
<path d="M150.962 47.9328C151.508 47.8955 154.093 48.2639 154.196 48.834C154.268 49.095 153.852 49.2835 153.273 49.2594C152.459 49.1739 150.922 49.016 150.962 47.9328Z" fill="black"/>
<path d="M151.131 41.0278C154.232 42.1286 157.469 41.8611 160.523 43.1C159.55 44.8631 157.469 44.1855 155.859 44.0342C154.114 43.5013 150.965 43.5255 151.131 41.0278Z" fill="white"/>
<path d="M157.766 45.0054C155.63 46.1193 153.166 46.2575 150.903 45.5886C150.736 44.7532 150.909 44.0274 151.326 43.3081C153.389 44.319 155.512 44.5295 157.766 45.0054Z" fill="white"/>
<path d="M54.6629 114.63C50.536 109.236 49.7181 101.206 52.5556 95.0547C115.233 109.185 178.382 123.129 240.919 137.973C245.008 141.303 245.796 149.035 243.383 153.634C242.452 155.5 241.028 156.905 239.371 158.114C238.765 158.885 237.849 158.543 237.055 158.328C176.349 143.538 115.158 129.85 54.6629 114.63Z" fill="#D6E3F2"/>
<path d="M54.6624 114.63C119.269 130.212 183.988 145.358 248.617 160.855C249.108 160.98 249.841 161.07 249.72 161.695C249.516 162.267 248.773 161.977 248.315 161.894C200.557 150.535 152.798 139.192 105.049 127.8C103.216 127.085 36.4137 112.444 54.6624 114.63Z" fill="black"/>
<path d="M52.7718 94.1817C51.9342 93.9427 51.0702 93.7804 50.2567 93.4756C49.8356 93.309 49.9606 92.5503 50.4277 92.5415C60.0147 94.5107 69.5469 96.9184 79.1207 99.0213C110.914 106.28 142.706 113.557 174.5 120.82C176.57 121.465 270.771 142.051 240.903 137.152C178.249 123.364 115.219 108.915 52.7718 94.1817Z" fill="black"/>
<path d="M52.7735 94.1816C115.495 108.404 178.253 122.715 240.902 137.152C240.909 137.426 240.915 137.698 240.922 137.972C203.993 129.786 167.151 121.158 130.263 112.786C104.408 106.687 78.2782 101.668 52.5586 95.0522C52.631 94.7627 52.7011 94.4733 52.7735 94.1816Z" fill="#E9E9F4"/>
</svg>
