<svg width="300" height="200" viewBox="0 0 300 200" fill="none" xmlns="http://www.w3.org/2000/svg">
<path d="M175.551 103.502C175.313 101.944 174.221 100.251 172.035 99.9427C169 99.4571 165.958 99.129 162.952 98.4901C162.274 81.3214 163.247 64.1268 166.03 47.1653C166.196 46.3667 165.479 46.0494 164.812 46.0213C162.218 45.6436 159.621 45.281 157.029 44.8903C149.992 43.8045 142.936 42.7123 135.919 41.5101C138.401 30.0247 134.447 24.4104 125.966 17.0845C113.231 7.0626 92.8631 18.4703 94.5467 34.5252C90.6701 33.9855 86.8474 33.1847 82.9837 32.548C81.4878 32.5998 78.3839 30.7456 77.9824 32.9861C73.0848 50.5326 77.2032 68.8798 75.1699 86.7004C67.2676 85.7895 59.4085 84.2397 51.5171 83.1367C46.8504 82.4697 45.3675 85.1052 46.2352 89.3057C46.9821 99.1139 47.8973 108.909 48.6938 118.715C49.3521 126.626 49.9975 134.537 50.6472 142.448C51.5171 150.387 50.25 160.348 61.0598 160.521C79.0293 163.284 96.9858 166.127 114.953 168.911C128.146 170.964 141.339 173.027 154.531 175.086C156.12 175.397 157.171 174.152 157.517 172.727C160.534 161.572 163.532 150.411 166.537 139.249C169.481 128.359 172.365 117.452 175.337 106.571C175.624 105.551 175.708 104.538 175.551 103.502ZM119.333 38.7644C116.063 38.2162 112.879 37.8903 109.751 37.1866C109.412 31.4838 116.464 26.6359 121.396 29.1721C122.866 32.6106 120.999 35.749 119.333 38.7644Z" fill="black"/>
<path d="M99.2765 91.7274C102.214 89.4999 105.277 83.6158 108.828 83.1927C119.797 85.362 130.834 87.1277 141.885 88.7984C144.283 89.161 145.66 90.8381 145.721 93.2729C147.059 120.03 150.731 146.922 152.104 173.53C120.723 168.788 89.3841 163.746 58.0168 158.909C51.2823 157.216 52.6335 148.429 51.8241 143.085C51.0794 134.453 50.4167 125.817 49.6483 117.187C49.1734 110.888 48.5669 104.603 48.0856 98.3066C47.7791 94.6263 47.4639 90.9461 47.1553 87.2658C46.989 85.8671 47.3344 84.8569 48.8432 84.4058C65.183 86.819 81.4775 89.5625 97.8217 91.9455C98.3138 91.9994 98.8534 92.2088 99.2765 91.7274Z" fill="#D52B1E"/>
<path d="M152.328 153.89C151.057 139.625 149.945 125.344 148.782 111.068C148.344 105.909 147.89 100.752 147.517 95.589C147.372 93.4305 147.4 91.1684 146.127 89.31C145.417 88.2156 144.469 87.5076 143.137 87.3026C140.308 86.8687 137.484 86.3831 134.657 85.9233C131.32 85.3794 127.985 84.8376 124.648 84.2979C120.05 83.5533 115.448 82.8366 110.855 82.0596C105.277 81.0818 102.603 87.2486 99.0847 90.4367C91.5256 89.3704 83.891 88.2609 76.3945 86.8881C78.0846 69.0028 74.3547 50.6642 79.043 33.0574C84.2817 33.7956 89.4793 34.7971 94.6856 35.7663C95.085 39.0407 97.5953 41.0373 99.7279 43.3016C100.766 44.2427 102.217 42.8828 103.376 42.7059C105.228 42.0497 107.08 41.3913 108.932 40.7351C110.477 40.3272 110.065 39.7811 109.877 38.473C112.75 38.7795 115.582 39.3494 118.408 39.7681C118.593 40.0013 118.494 40.148 118.41 40.297C117.074 42.749 115.623 45.1471 114.421 47.6682C112.247 52.3932 112.804 57.8024 114.252 62.659C114.822 64.3642 116.625 65.2881 117.704 66.6544C117.095 67.5674 115.293 66.9825 115.908 68.7524C116.527 71.4052 117.147 74.0602 117.766 76.713C117.894 77.2612 118.146 77.7318 118.55 78.1419C119.638 79.2514 120.715 80.3716 121.764 81.5156C122.174 81.9624 122.573 82.0423 123.139 81.8329C126.334 80.6307 129.571 79.5385 132.755 78.3167C133.899 77.7814 130.955 70.7836 130.804 69.2446C130.152 67.5674 128.529 66.5616 127.564 65.0571C128.211 64.5844 129.63 64.7441 129.556 63.7124C129.114 61.8301 128.844 59.9112 128.768 57.9794C128.518 52.091 133.223 47.8042 135.322 42.6627C145.203 43.9319 155.02 45.9242 164.936 47.0984C163.436 57.5563 161.947 68.0337 161.778 78.6168C161.359 88.4142 162.162 98.2397 161.545 108.018C160.731 118.795 158.627 129.421 156.356 139.974C155.557 143.756 154.571 147.494 153.522 151.214C153.166 151.943 153.017 154.235 152.328 153.89Z" fill="white"/>
<path d="M115.397 62.2835C110.711 48.8145 119.423 44.5665 122.807 33.4783C123.647 29.2844 121.257 24.6458 116.964 23.6162C109.832 21.598 103.445 28.4469 104.855 35.4426C102.496 36.4269 100.005 37.1715 97.5958 38.0436C97.2375 38.145 96.7065 38.4731 96.4906 38.0026C94.6473 32.7725 95.8841 26.7374 99.1542 22.3319C108.632 8.95135 131.266 13.4108 131.791 30.8515C132.279 39.6106 124.776 44.3701 123.783 52.3479C123.442 61.8 128.074 58.0766 115.397 62.2835Z" fill="#212492"/>
<path d="M160.795 156.152C159.709 160.499 158.481 164.81 157.328 169.14C156.838 170.463 156.404 175.656 154.205 173.431C153 168.628 153.272 163.472 152.688 158.544C161.121 140.449 165.563 120.451 167.916 100.605C170.672 101.713 174.529 101.192 173.873 105.46C169.383 122.309 163.981 139.001 160.795 156.152Z" fill="#D52B1E"/>
<path d="M128.029 62.0396C126.984 60.9841 125.83 60.1379 125.48 58.7112C125.057 56.503 124.815 54.2798 125.001 52.0328C125.333 48.89 127.146 46.1401 128.757 43.5002C132.704 37.8968 133.73 31.3673 131.899 24.8702C136.553 29.7592 136.633 38.4407 133.339 44.1564C129.57 50.5456 126.553 54.1999 128.029 62.0396Z" fill="#BCBDDE"/>
<path d="M152.104 173.53C150.245 154.363 148.929 135.236 147.016 116.058C146.669 110.504 146.133 104.985 145.706 99.4399C145.54 97.5318 145.596 95.5848 145.361 93.6832C145.678 92.2067 144.92 90.767 143.828 89.7525C142.466 88.7596 140.562 89.1179 138.98 88.6733C135.723 88.2222 132.487 87.6351 129.237 87.1451C124.777 86.4026 120.316 85.6751 115.869 84.8592C113.782 84.4599 111.701 84.039 109.616 83.6267C109.307 83.5663 109.009 83.4886 108.828 83.195C109.251 82.99 109.698 82.9943 110.143 83.0655C112.763 83.4843 115.383 83.9095 118.004 84.3326C121.68 84.9261 125.356 85.5197 129.03 86.1176C133.625 86.8666 138.214 87.6394 142.814 88.3581C144.979 88.6452 145.972 90.808 146.159 92.7615C148.495 119.725 150.39 146.726 152.918 173.671C152.624 173.619 152.365 173.576 152.104 173.53Z" fill="white"/>
<path d="M125.809 65.2515C126.584 67.9647 127.327 70.57 128.05 73.0998C127.894 73.5099 127.573 73.4861 127.327 73.5768C124.544 74.5093 121.814 75.7547 119.004 76.508C118.166 74.1553 117.814 71.5996 117.162 69.1756C117.074 68.7655 116.983 68.282 117.495 68.1352C120.273 67.125 122.967 66.1149 125.809 65.2515Z" fill="#212492"/>
<path d="M160.792 156.152C160.268 154.825 161.673 151.758 161.82 150.16C163.797 140.466 166.305 130.909 169.116 121.426C170.348 117.062 171.566 112.695 172.869 108.35C173.392 106.438 174.249 104.273 172.925 102.518C171.76 101.087 169.131 102.175 167.911 100.605C168.013 100.403 168.2 100.45 168.36 100.474C172.066 100.895 175.466 101.212 174.348 106.03C169.791 122.728 165.418 139.478 160.792 156.152Z" fill="white"/>
<path d="M99.2775 91.7275C99.2559 91.8937 99.2364 92.0578 99.2062 92.2844C95.8217 92.2995 92.4911 91.3843 89.1433 90.9181C83.7686 90.0849 78.3767 89.3079 73.0237 88.4035C64.9832 87.0307 56.7551 86.3658 48.8398 84.4038C51.5142 83.6181 54.4433 84.9736 57.1868 85.1182C59.7424 85.5111 62.2981 85.9082 64.8516 86.3054C76.3175 88.1768 87.8396 89.7245 99.2775 91.7275Z" fill="#BCBDDE"/>
<path d="M116.203 63.3908C118.774 62.3698 121.476 61.677 124.086 60.7553C125.795 60.2545 126.59 62.6634 127.747 63.5376C127.427 64.2089 126.421 63.9391 125.843 63.9002C123.702 63.557 121.52 63.8225 119.359 63.7491C118.362 63.4966 116.749 64.6233 116.203 63.3908Z" fill="black"/>
<path d="M131.302 75.5043C128.597 73.4581 128.366 69.8793 127.453 66.8271C128.386 67.6754 129.234 68.4806 129.745 69.6116C130.205 71.5672 131.129 73.5466 131.302 75.5043Z" fill="#BCBDDE"/>
<path d="M152.33 153.89C152.459 153.888 152.589 153.886 152.716 153.886C152.772 154.21 152.604 154.453 152.412 154.823C152.286 154.445 152.271 154.173 152.33 153.89Z" fill="#BCBDDE"/>
<path d="M120.438 27.4712C120.466 27.4906 120.492 27.51 120.52 27.5295C120.485 27.5165 120.453 27.5036 120.418 27.4928C120.416 27.4928 120.438 27.4712 120.438 27.4712Z" fill="black"/>
<path d="M130.371 38.0695C133.326 18.1099 117.057 9.35715 100.938 20.4302C114.059 6.25971 137.878 19.2495 130.371 38.0695Z" fill="#BCBDDE"/>
<path d="M116.164 63.3973C118.765 62.3741 121.467 61.6769 124.105 60.7509C125.804 60.2739 126.594 62.685 127.749 63.5527C127.369 64.2024 126.417 63.9369 125.815 63.898C123.708 63.5656 121.56 63.8225 119.436 63.7513C118.353 63.4922 116.87 64.6082 116.164 63.3973Z" fill="black"/>
<path d="M135.345 37.6787C134.801 33.9704 134.555 29.8758 132.409 26.6704H132.42C132.208 26.0639 131.882 25.5415 131.805 24.8486C134.675 27.2467 136.35 34.1021 135.345 37.6787Z" fill="white"/>
<path d="M127.489 73.3975C126.915 71.0879 126.397 68.7459 125.551 66.5184C123.498 66.4687 121.625 67.4746 119.574 67.4724C121.575 66.6802 123.602 65.9053 125.672 65.3247C126.071 66.0456 127.336 70.3 128.018 73.2054C127.848 73.268 127.669 73.3327 127.489 73.3975Z" fill="#BCBDDE"/>
<path d="M130.547 74.5847C130.178 72.2362 129.509 69.89 127.862 68.107L127.868 68.1135C127.614 67.725 127.631 67.4206 127.426 66.8486C130.141 68.8755 130.534 72.3852 131.343 75.4416C130.905 75.3531 130.743 74.9171 130.547 74.5847Z" fill="white"/>
<path d="M174.657 187.45C176.347 192.322 190.231 190.006 194.349 189.266C196.361 188.618 201.209 188.823 201.926 186.611C202.519 186.274 203.143 186.505 203.73 186.583C206.864 187.185 210.322 187.26 213.273 188.318C211.367 189.753 209.351 190.986 207.082 191.77C205.163 192.456 202.936 193.265 202.111 195.305C201.362 200.436 210.864 199.02 213.987 198.916C216.888 198.618 230.929 197.917 229.55 193.492C231.566 194.17 229.837 196.734 228.475 197.211C221.08 201.327 210.497 199.911 202.357 199.046C199.571 198.731 167.083 191.845 174.657 187.45Z" fill="#CCCCCC"/>
<path d="M251.396 76.0201C249.762 72.8622 248.091 69.7259 246.094 66.7774C240.651 58.5039 234.782 50.5088 227.572 43.675C227.54 42.4209 227.3 41.2554 227.561 40.025C229.502 38.7386 230.365 36.6038 231.503 34.6978C236.696 34.9094 240.137 27.5403 235.351 24.4709C236.685 21.0216 237.314 17.4363 237.836 13.7928C238.425 10.4601 235.798 7.7598 232.828 6.74746C231.339 1.69442 225.755 0.833181 221.215 0.682086C218.386 0.438176 215.556 0.559051 212.741 0.863399C207.142 1.40734 200.947 4.09899 196.06 0C195.715 2.54487 197.716 4.14216 198.614 6.28339C196.876 6.40426 195.4 6.09776 193.727 5.97688C194.219 7.58928 194.962 9.08296 195.866 10.4903C196.481 11.3839 196.598 12.3898 196.699 13.4259C196.909 15.5282 197.427 17.5507 197.681 19.6639C195.836 20.8921 193.844 22.0447 193.103 24.2788C192.87 25.1573 191.964 26.1631 191.003 25.7271C190.047 25.5329 189.691 25.358 188.896 26.0358C183.651 30.5686 172.023 36.0275 170.236 42.4663C168.926 47.3121 171.723 52.3004 176.64 53.9236C183.075 57.1613 189.932 59.4277 196.583 62.1474C193.587 77.4965 192.637 93.1974 192.117 108.814C192.097 109.809 192.041 110.554 192.807 111.264C192.73 112.637 192.453 113.954 192.19 115.272C190.04 126.853 187.243 138.409 186.55 150.193C186.373 155.194 186.472 160.204 186.202 165.205C186.079 168.963 186.069 172.732 186.09 176.494C186.101 177.141 186.231 177.729 186.876 178.059C186.921 178.082 186.928 178.177 186.954 178.24C184.612 180.383 181.452 181.687 178.589 183.082C176.742 183.872 174.78 185.242 174.657 187.45C174.279 188.489 175.052 188.91 175.732 189.279C182.833 192.398 193.181 189.95 200.535 188.236C201.448 187.986 201.884 187.396 202.046 186.63C202.007 186.624 201.966 186.619 201.927 186.613C201.508 184.031 201.094 181.609 200.647 178.978C201.241 178.424 201.331 177.601 201.4 176.777C201.72 172.822 202.061 168.868 202.437 164.918C203.054 159.304 203.129 153.586 204.532 148.092C205.515 144.57 206.661 141.237 208.005 137.811C209.424 151.98 210.989 166.116 212.657 180.256C213.063 181.957 212.597 186.827 214.414 187.319C214.155 187.828 213.717 188.078 213.272 188.32C213.138 188.303 213.005 188.284 212.869 188.266C210.796 189.827 208.541 191.038 206.065 191.86C204.712 192.309 203.464 192.98 202.532 194.109C200.308 196.566 203.406 199.253 205.968 199.251C213.656 199.348 222.062 199.523 229.042 195.903C229.927 195.288 230.08 194.507 229.552 193.494C228.544 191.491 228.671 189.227 228.116 187.066C228.682 186.529 229.165 185.991 229.088 185.147C229.159 177.137 229.014 169.125 229.042 161.115C228.813 145.47 230.195 129.831 231.924 114.299C234.337 112.119 233.059 106.759 233.683 103.634C235.2 103.025 236.366 102.257 237.467 101.102C238.54 101.162 239.515 100.955 240.338 100.195C242.043 98.6843 243.826 97.264 245.522 95.7445C248.652 92.4247 253.999 88.8502 254.135 83.9418C254.215 81.0214 252.736 78.4981 251.396 76.0201ZM189.14 41.0697C190.977 39.5545 192.928 38.1946 194.815 36.7398C196.019 35.939 196.03 35.5202 196.414 34.1129C196.773 34.1129 197.105 34.1129 197.485 34.1129C197.509 37.2729 198.094 40.3574 199.706 43.1117C196.768 42.9735 190.304 41.7281 189.14 41.0697ZM234.339 90.0525C234.115 86.5255 234.693 82.5647 235.004 78.9298C235.531 79.4241 238.162 82.8107 239.384 84.5548C237.829 86.4672 236.016 88.2286 234.339 90.0525Z" fill="black"/>
<path d="M194.589 112.229C201.08 114.487 207.922 115.477 214.752 115.92C220.105 116.071 225.531 116.077 230.733 114.778C227.597 137.809 227.796 160.991 227.929 184.28C228.89 188.355 218.667 187.34 216.384 186.768C214.583 186.293 214.389 186.291 214.26 184.18C212.775 171.84 211.706 159.519 210.592 147.127C209.789 139.875 209.731 132.536 208.507 125.331C208.427 123.762 207.786 125.337 207.342 123.168C206.517 122.529 206.906 124.839 206.988 125.173C207.188 128.096 207.417 130.997 207.668 133.894C207.933 134.561 207.752 135.137 207.499 135.776C206.258 139.02 205.151 142.318 204.007 145.599C201.393 153.916 201.762 162.736 200.65 171.249C200.469 173.15 200.307 175.078 200.175 176.99C200.184 177.325 200.165 177.744 199.791 177.864C197.836 178.264 195.774 178.598 193.778 178.449C192.189 178.182 187.594 178.326 187.328 176.321C187.33 172.697 187.328 169.071 187.335 165.447C187.706 161.725 187.484 157.935 187.542 154.184C187.542 153.609 187.434 153.007 187.917 152.532C188.369 138.925 192.761 125.616 194.589 112.229Z" fill="black"/>
<path d="M196.798 61.0143C190.275 58.4241 183.595 56.0821 177.223 53.0602C173.081 51.5903 170.054 47.3489 171.291 42.9153C172.604 37.8558 177.989 35.652 181.706 32.5632C184.067 30.9659 186.241 28.8808 188.687 27.5231C189.252 30.8407 190.923 34.3741 194.148 35.8462C193.401 36.9168 180.871 44.8882 183.504 45.2638C184.944 44.6982 187.392 41.7173 188.516 42.0649C191.378 43.0017 194.34 43.4981 197.301 43.9795C203.952 44.2795 200.466 47.269 209.952 48.331C207.155 56.5074 212.719 60.1336 220.471 57.1269C224.967 55.236 227.945 51.3054 228.833 46.5869C235.697 53.0279 240.946 60.9841 246.105 68.8151C248.516 73.6458 255.574 81.9776 252.008 87.212C248.486 91.8743 243.961 95.6474 239.571 99.4615C238.939 100.005 238.138 100.1 237.324 99.9471C234.235 99.3816 231.697 94.6869 233.829 92.0945C236.402 89.3381 239.502 86.7695 241.35 83.4713C241.432 82.5302 240.603 83.2706 240.255 83.5339C237.911 81.8783 233.568 73.389 231.056 73.1213C231.049 73.7408 231.705 74.0667 231.79 74.6452C221.936 75.8346 205.432 72.994 196.647 68.2841C197.187 65.2622 197.61 62.2792 198.467 59.3372C198.983 57.2391 200.327 55.277 200.304 53.0862C199.047 53.3171 197.271 59.6653 196.798 61.0143Z" fill="#D52B1E"/>
<path d="M233.098 88.0257C232.885 89.433 233.735 91.367 232.017 91.993C230.064 91.4836 228.058 90.8684 226.085 90.4043C223.215 89.2603 214.65 92.2326 219.405 95.5869C219.206 96.2927 218.885 97.0201 219.31 97.6957C219.718 98.585 219.088 99.6751 219.998 100.402C220.376 100.787 220.165 101.413 220.437 101.849C220.81 102.544 221.393 102.941 222.211 102.848C223.946 102.805 225.792 101.637 227.46 102.367C229.166 103.416 230.817 104.542 232.455 105.734C232.503 108.013 232.533 110.511 231.816 112.684C230.752 113.943 228.749 113.917 227.242 114.284C217 115.458 206.404 114.608 196.536 111.605C195.469 111.1 192.935 110.528 193.194 109.056C193.395 106.155 193.117 103.202 193.568 100.292C193.954 94.1601 194.084 87.9695 194.964 81.889C207.002 86.5989 220.175 88.5113 233.098 88.0257Z" fill="#D52B1E"/>
<path d="M227.467 32.4509C227.409 33.0294 227.959 33.0639 228.132 33.4676C227.584 36.2046 226.151 38.9869 226.354 41.8555C226.772 43.5974 226.235 45.689 227.506 47.1244C226.621 52.0954 222.185 56.2246 217.191 56.8398C214.497 57.2305 211.127 56.9736 210.441 53.7682C210.303 52.8984 210.055 51.75 210.586 51.027C210.938 51.7544 211.024 52.5919 211.572 53.2588C212.347 52.5271 211.734 51.7328 211.797 50.9687C214.147 49.339 216.621 47.7417 219.224 46.5437C219.837 46.0969 221.939 45.7127 221.877 44.9184C220.757 44.7026 219.556 45.417 218.453 45.6501C214.208 47.038 209.457 47.9058 205.192 46.1336C199.232 43.824 198.174 36.8715 198.824 31.2292C199.156 26.1978 199.141 21.121 199.959 16.1392C206.28 18.1617 213.09 18.5221 219.703 17.9739C224.143 17.0112 223.137 22.6168 223.388 25.397C223.515 27.1583 224.063 31.3177 226.61 30.396C228.931 29.2283 229.265 26.0704 231.894 25.3559C239.488 23.7414 236.68 35.4167 230.558 33.256C229.557 32.9452 228.536 32.3149 227.467 32.4509Z" fill="#EED3CA"/>
<path d="M194.977 80.5616C195.268 76.8101 195.71 73.1601 196.427 69.4669C207.677 74.6387 220.43 76.6828 232.774 75.8194C233.169 76.3568 234.069 77.0713 233.989 77.8699C233.75 80.8228 233.534 83.7044 233.301 86.6723C222.251 87.8854 205.098 85.2347 194.977 80.5616Z" fill="white"/>
<path d="M187.17 179.708C187.437 179.211 187.929 179.08 188.236 178.834C190.606 179.33 193.194 179.57 194.895 181.409C195.409 181.845 195.974 182.024 196.602 181.655C197.539 181.249 198.62 181.866 199.613 181.873C200.336 181.929 200.138 182.712 200.196 183.218C200.347 184.083 197.381 184.776 196.656 185.385C192.061 187.366 183.699 188.627 178.844 187.351C179.172 186.341 178.585 185.562 178.223 184.757C178.419 184.321 178.814 184.23 179.151 184.09C180.424 183.561 181.657 182.952 182.838 182.238C183.386 181.916 184.003 181.581 184.497 182.186C184.936 182.654 186.785 184.774 186.885 183.146C186.462 182.328 185.6 181.834 185.08 181.081C186.747 179.388 187.414 182.581 188.896 182.678C190.263 182.082 187.554 180.383 187.17 179.708Z" fill="#3E3E3E"/>
<path d="M205.602 196.095C205.585 195.322 205.557 194.668 205.102 194.079C206.766 192.782 209.067 192.523 210.845 191.316C212.184 190.621 212.656 192.855 213.887 192.98C214.118 192.898 214.262 192.711 214.398 192.512C214.077 191.675 213.155 191.146 212.615 190.429C212.917 189.974 212.917 189.974 213.625 189.568C214.588 189.846 215.177 190.794 215.989 191.344C216.71 191.968 217.347 191.21 216.641 190.563C216.041 189.933 215.277 189.46 214.748 188.771C214.975 188.394 215.296 188.1 215.672 187.882C217.869 188.251 220.073 188.469 221.959 189.736C222.38 189.967 222.814 190.019 223.242 189.775C224.586 189.406 226.037 189.82 227.453 189.568C227.509 190.259 228.066 191.141 227.384 191.621C223.76 194.269 219.604 195.717 215.143 196.095C211.959 196.149 208.76 196.749 205.602 196.095Z" fill="#3E3E3E"/>
<path d="M225.846 95.8825C224.525 94.9026 221.773 96.597 220.309 97.1496C219.783 95.7811 221.863 94.7752 222.934 94.3932C223.685 94.037 225 94.1924 225.418 93.4456C223.752 92.7764 221.79 94.1104 220.087 94.4061C219.776 94.473 219.444 94.4536 219.275 94.119C218.695 92.5369 221.14 91.8936 222.269 91.5698C225.522 90.6892 228.755 92.3145 231.885 93.0959C231.894 96.2171 233.178 99.2174 234.791 101.846C232.101 103.819 228.479 100.07 225.511 100.754C224.356 100.985 222.315 102.44 221.373 101.43C220.564 100.046 225.418 99.116 226.027 98.3454C225.451 97.4647 221.887 99.416 220.853 99.7117C220.579 99.6491 220.48 99.3707 220.458 99.0383C220.329 98.2094 221.188 97.8597 221.786 97.5273C222.897 96.9812 223.985 96.3725 225.244 96.1933C225.438 96.1394 225.736 96.066 225.846 95.8825Z" fill="#EED3CA"/>
<path d="M197.522 32.9084C196.586 33.3423 195.826 32.5523 194.99 33.4696C192.642 34.21 190.004 30.288 190 28.1317C196.078 25.3191 192.625 23.588 197.835 20.8834C198.528 22.5778 198.002 24.3759 198.038 26.1372C197.838 28.382 197.911 30.7003 197.522 32.9084Z" fill="#EED3CA"/>
<path d="M194.589 112.229C194.99 113.716 194.436 115.205 194.233 116.688C193.382 121.487 192.232 126.225 191.271 131.001C189.913 138.027 188.636 145.116 187.956 152.232C187.267 149.998 188.018 147.339 188.113 144.993C188.495 140.19 189.663 135.504 190.427 130.755C191.107 126.829 191.817 122.907 192.616 119.002C193.052 117.923 193.304 111.752 194.589 112.229Z" fill="#6A6969"/>
<path d="M208.008 124.472C209.135 120.144 210.024 138.681 210.283 139.238C210.885 148.472 212.122 157.67 212.4 166.955C211.291 162.712 211.405 158.168 210.814 153.808C209.614 144.06 209.012 134.235 208.008 124.472Z" fill="#6A6969"/>
<path d="M228.565 194.604C224.595 196.792 220.069 197.243 215.635 197.658C213.419 197.701 200.299 199.572 203.859 194.683C205.665 195.361 202.877 197.414 206.833 197.358C214.368 197.662 221.699 197.276 228.006 192.659C228.314 193.274 228.478 193.859 228.565 194.604Z" fill="#CCCCCC"/>
<path d="M200.417 184.845C200.823 185.372 201.138 186.468 200.467 186.794C198.803 187.362 197.05 187.597 195.332 187.94C191.05 188.679 186.754 189.445 182.39 189.294C180.313 189.292 178.254 188.929 176.35 188.091C174.986 187.569 176.273 185.95 177.009 185.37C178.725 186.488 176.26 188.346 178.874 188.644C186.215 189.738 193.866 188.18 200.417 184.845Z" fill="#CCCCCC"/>
<path d="M204.136 6.61155C204.282 6.59212 204.822 6.97849 205.111 7.07778C205.504 7.30874 209.243 8.69018 207.654 9.14562C206.778 9.27082 203.43 7.61525 204.121 6.61587L204.136 6.61155Z" fill="white"/>
<path d="M206.097 9.88167C207.239 9.76726 208.411 9.88382 209.56 9.86224C209.901 9.86656 210.086 9.98096 210.101 10.199C209.7 11.4746 207.356 10.7148 206.391 10.4494C206.171 10.3695 205.953 10.2227 206.097 9.88167Z" fill="white"/>
<path d="M231.505 13.7475C231.189 13.782 230.993 13.5662 230.818 13.3676C230.201 12.6618 229.508 12.0552 228.69 11.5912C228.232 11.3775 228.517 10.8357 228.96 11.0105C229.871 11.2307 232.064 12.7287 231.505 13.7475Z" fill="white"/>
<path d="M229.817 13.4862C229.42 14.0345 227.786 13.0135 227.995 12.4243C228.416 12.0055 229.845 12.9056 229.817 13.4862Z" fill="white"/>
<path d="M211.975 31.6306C211.744 29.934 213.773 28 215.004 29.8736C216.97 33.2322 212.357 36.5628 211.975 31.6306Z" fill="black"/>
<path d="M200.546 28.436C200.859 23.5751 205.48 26.8452 203.615 30.1693C202.411 32.1314 200.282 30.1628 200.546 28.436Z" fill="black"/>
<path d="M204.389 38.0284C206.369 38.417 208.443 38.1817 210.303 37.519C209.593 35.2915 212.041 37.5903 211.624 38.9048C211.361 39.725 210.891 38.9091 210.739 38.4839C209.634 39.153 204.255 39.8761 204.389 38.0284Z" fill="black"/>
<path d="M231.756 28.7425C228.652 32.1422 230.363 27.6244 232.336 27.0136C234.041 26.1415 235.378 27.6201 232.852 27.9504C232.854 28.6627 233.923 29.5066 233.236 30.083C232.654 30.0916 232.295 29.1095 231.756 28.7425Z" fill="black"/>
<path d="M217.312 27.903C215.484 27.277 213.073 26.9835 212.002 25.2178C211.586 24.648 212.287 24.0522 212.749 24.6199C213.576 25.8071 217.679 26.4352 217.312 27.903Z" fill="black"/>
<path d="M204.48 24.3004C203.124 24.391 202.693 22.6362 200.817 23.3247C199.144 23.1628 201.16 21.6325 201.965 21.8872C203.155 21.898 204.979 22.9038 204.48 24.3004Z" fill="black"/>
<path d="M203.306 33.1351C203.008 32.8739 203.051 32.6084 203.267 32.3429C203.731 32.0321 205.872 28.8569 206.051 30.3226C205.277 31.3371 204.396 32.4336 203.306 33.1351Z" fill="black"/>
<path d="M211.518 22.7764C210.807 23.342 210.887 24.2895 210.22 24.8205C209.871 23.8233 210.324 22.1116 211.518 22.7764Z" fill="black"/>
</svg>
