<svg width="200" height="200" viewBox="0 0 200 200" fill="none" xmlns="http://www.w3.org/2000/svg">
<path d="M129.212 123.704C129.197 123.826 114.351 126.347 114.351 126.347L82.1497 131.136C82.1497 131.136 39.4431 164.654 39.3426 164.745C37.7037 166.221 37.5895 167.12 39.2557 168.573C41.0906 170.174 43 171.744 45.0718 173.007C49.7267 175.843 54.4474 178.584 59.2425 181.173C64.7944 184.171 70.4182 187.043 76.0817 189.824C80.5282 192.006 84.9697 194.236 89.7611 195.619C89.8814 195.654 89.9484 195.87 90.0414 196H94.2472C94.8204 195.68 95.3588 195.252 95.9717 195.056C100.803 193.506 105.559 191.765 110.07 189.427C114.233 187.271 118.328 184.983 122.488 182.822C126.056 180.968 129.707 179.276 133.259 177.394C136.776 175.529 140.219 173.522 143.688 171.563C148.06 169.093 152.663 167.007 156.565 163.756C158.603 162.057 160.767 160.502 162.009 158.03C163.048 155.961 162.406 153.926 160.49 153.039" fill="#AA9683"/>
<path d="M166.298 123.511C166.003 117.989 164.753 112.705 161.781 107.967C158.584 102.869 154.175 99.5209 147.995 98.9961C146.413 98.8622 144.811 98.9763 143.191 98.9763C143.184 98.9316 143.153 98.8311 143.153 98.7294C143.153 90.8476 143.151 82.9658 143.163 75.084C143.163 74.7416 143.197 74.3682 143.336 74.063C143.644 73.3856 144.05 72.9724 144.942 73.3297C146.813 74.0803 149.13 73.883 149.986 71.465C150.092 71.166 150.611 70.7864 150.903 70.8162C152.39 70.9651 153.208 70.1562 153.76 68.9664C154.193 68.0334 154.835 67.6699 155.848 67.8585C157.269 68.1228 158.212 67.4119 158.822 66.2221C159.953 64.0175 159.843 61.8178 158.544 59.731C157.275 57.6914 155.287 57.2473 153.207 58.4445C150.085 60.2409 146.978 62.0647 143.841 63.8351C142.355 64.675 141.498 65.871 141.288 67.5719C141.248 67.8895 141.02 68.3088 140.754 68.4552C138.794 69.5383 137.454 70.9961 137.632 73.5282C137.201 73.2975 136.925 73.1585 136.658 73.0034C124.029 65.7122 111.4 58.4197 98.7724 51.1247C97.791 50.5577 97.6 48.0876 98.5342 47.4375C98.8269 47.2341 99.3703 47.177 99.7152 47.2961C101.641 47.9573 103.936 47.806 104.782 45.4153C104.89 45.1113 105.402 44.7205 105.689 44.7503C107.17 44.8991 108.011 44.1175 108.555 42.9153C109.005 41.9179 109.697 41.6102 110.74 41.7951C112.008 42.0209 112.872 41.403 113.517 40.3559C114.82 38.2431 114.603 35.0534 113.007 33.1614C111.704 31.6156 109.973 31.2645 108.215 32.2644C104.902 34.1502 101.61 36.0707 98.3108 37.9813C97.0801 38.6947 96.3146 39.7641 96.1906 41.176C96.1236 41.9439 95.7861 42.3409 95.1472 42.6796C93.3222 43.6461 92.393 45.1436 92.4141 47.2663C92.4538 51.224 92.4178 55.1828 92.4128 59.1405C92.4128 59.4345 92.4128 59.7286 92.4128 60.0896C91.7689 59.9171 91.264 59.664 90.7652 59.6752C89.8496 59.6951 88.7839 59.602 88.0458 60.0213C78.2893 65.5732 68.5776 71.2033 58.8584 76.8209C57.1364 77.8159 56.1736 80.0304 58.114 81.781C55.9081 83.3752 54.6129 85.5836 54.0025 88.1753C53.6601 89.6306 53.376 91.1404 53.3685 92.6267C53.3127 103.24 53.3375 113.854 53.3276 124.468C53.3264 125.826 53.7048 127.427 53.1204 128.475C52.5596 129.48 51.0001 129.963 49.8327 130.588C47.8849 131.632 46.6852 133.234 46.2051 135.353C45.9669 136.403 45.7994 137.491 45.7833 138.564C45.7299 142.066 45.7435 145.57 45.7746 149.072C45.7808 149.745 45.6071 150.134 44.9905 150.482C41.5489 152.421 38.1347 154.41 34.7167 156.39C33.558 157.061 32.9488 158.086 33.0034 159.422C33.0567 160.727 33.9798 161.708 35.1993 162.229C36.5975 162.826 37.9275 163.583 39.2872 164.27C39.5341 164.393 39.7872 164.503 40.0254 164.641C44.1406 167.012 48.2447 169.404 52.3835 171.733C52.8214 171.979 53.5943 172.094 53.9926 171.874C57.382 169.994 60.7367 168.052 64.053 166.047C64.4971 165.779 64.8954 165.064 64.914 164.542C64.9512 163.496 64.6919 162.441 64.5988 161.387C64.5815 161.185 64.7254 160.939 64.8557 160.755C67.7352 156.689 68.657 152.202 67.7501 147.322C67.1124 144.835 66.0504 142.589 64.1026 140.837C62.7093 139.584 61.0829 138.838 59.1561 138.553V120.087C60.2479 120.712 61.295 121.31 62.3396 121.913C63.8247 122.768 65.3333 123.586 66.7737 124.51C67.1682 124.763 67.5305 125.313 67.6086 125.777C68.683 132.173 70.9199 137.982 75.8428 142.476C83.1378 148.317 90.7367 147.5 98.5255 143.336C98.5255 146.24 98.3183 148.988 98.585 151.69C98.8418 154.283 98.0379 155.821 95.61 156.825C93.1411 157.845 91.9563 160.023 91.6101 162.592C91.4054 164.109 91.4005 165.658 91.3818 167.194C91.3484 169.91 91.3719 172.627 91.3719 175.518C90.7777 175.187 90.3273 174.945 89.8844 174.688C85.6439 172.239 81.3872 169.817 77.1765 167.318C76.1654 166.718 75.38 166.74 74.3826 167.341C71.3566 169.163 68.3394 171.02 65.1894 172.608C63.3594 173.532 62.6287 174.735 63.0145 176.654C63.1063 177.108 63.3756 177.686 63.7428 177.902C68.5366 180.722 73.364 183.483 78.1727 186.277C78.5065 186.47 78.8154 186.775 79.0288 187.098C79.8463 188.332 81.2359 188.974 82.6626 188.543C83.4827 188.296 84.2481 187.834 85.0037 187.406C87.2443 186.138 89.4663 184.837 91.7416 183.525C91.9079 184 92.0319 184.362 92.1622 184.722C94.9016 192.263 102.968 194.078 108.644 188.414C111.355 185.71 112.758 182.377 113.176 178.606C113.551 175.232 112.993 172.037 111.173 169.138C109.588 166.615 107.32 165.039 104.404 164.614C104.333 164.505 104.298 164.476 104.298 164.446C104.286 157.757 104.267 151.068 104.293 144.379C104.294 144.063 104.638 143.633 104.94 143.451C106.556 142.477 108.211 141.565 109.853 140.631C110.906 140.032 111.957 139.429 112.969 138.851C112.905 141.858 112.715 144.795 112.808 147.721C112.984 153.246 114.231 158.521 117.019 163.358C121.74 171.554 130.028 174.785 138.994 171.905C143.839 170.349 147.819 167.435 151.374 163.883C154.739 160.521 157.39 156.631 159.713 152.503C159.744 152.403 159.761 152.297 159.808 152.206C164.513 143.215 166.842 133.68 166.298 123.511ZM51.6862 140.998L51.4431 140.855C51.6465 139.006 50.8662 136.841 53.2891 135.512C53.2891 136.969 53.4467 138.301 53.2159 139.563C53.1142 140.116 52.2197 140.524 51.6862 140.998ZM60.3013 145.091C61.4675 147.27 61.5109 149.541 60.8397 151.869C60.4911 153.776 59.5817 155.397 58.3274 156.85C57.9515 157.285 57.6103 157.402 57.0855 157.035C56.2915 156.479 55.4404 156.005 54.6129 155.496C52.3586 154.552 52.3549 154.551 52.7693 152.214C52.8375 151.826 52.9604 151.448 53.0919 150.937C53.9219 153.289 54.7506 153.774 57.1264 153.422C57.5979 153.212 58.0693 153.001 58.5408 152.792C58.5445 152.79 58.5482 152.788 58.5519 152.787C58.5482 152.788 58.5445 152.789 58.5408 152.792C58.7269 152.18 59.0556 151.572 59.0755 150.954C59.1425 148.868 59.1016 146.777 59.1016 144.67C59.7256 144.182 60.0407 144.606 60.3013 145.091ZM82.3053 136C81.3525 134.651 80.5175 133.471 79.6838 132.29C79.7694 132.211 79.855 132.13 79.9406 132.051C81.0063 132.675 82.0733 133.299 83.2023 133.96C82.9417 134.551 82.6936 135.115 82.3053 136ZM87.4093 136.647H83.84C84.1737 135.969 84.428 135.452 84.727 134.845C85.6935 135.4 86.5992 135.923 87.5048 136.444C87.4726 136.512 87.4403 136.579 87.4093 136.647ZM92.3706 72.2528C92.3458 72.5183 91.8843 72.7925 91.5717 72.9736C83.6799 77.5454 75.7807 82.106 67.8828 86.6679C65.0715 88.2919 62.2577 89.9109 59.2368 91.6528C59.7864 89.2 60.6697 87.3316 62.7912 86.1195C72.4385 80.6049 82.0472 75.0207 91.6697 69.4626C91.8496 69.3584 92.0381 69.2728 92.4103 69.083C92.4091 70.2108 92.4649 71.2392 92.3706 72.2528ZM97.3059 166.852C96.7303 164.753 97.1397 163.077 98.5168 162.051C98.5168 163.301 98.6346 164.388 98.4659 165.428C98.3865 165.92 97.7587 166.323 97.3059 166.852ZM104.283 171.539C104.287 171.213 104.502 170.889 104.618 170.565C104.926 170.793 105.349 170.956 105.52 171.26C106.487 172.978 106.621 174.837 106.311 176.751C105.88 179.416 104.9 181.804 102.762 183.567C101.837 184.331 100.769 184.751 99.5453 184.33C98.7476 184.056 98.2041 183.575 98.0019 182.668C97.5528 180.663 97.7066 178.729 98.4485 176.574C98.8939 179.111 99.9013 179.911 101.95 179.578C103.574 179.315 104.272 178.544 104.289 176.892C104.311 175.108 104.26 173.323 104.283 171.539ZM125.536 134.412C125.89 131.594 127.49 129.83 130.324 129.01C131.147 129.876 132.082 130.853 133.009 131.84C134.254 133.163 135.49 134.495 136.731 135.822C137.843 137.012 137.65 138.322 136.248 139.104C132.039 141.56 127.831 144.017 123.41 146.596C123.589 142.281 124.281 138.3 125.536 134.412ZM127.885 161.98C125.76 159.847 124.688 157.208 124.093 154.37C123.749 152.733 123.608 151.05 123.455 149.38C123.425 149.051 123.663 148.529 123.938 148.368C128.277 145.818 132.643 143.312 137.005 140.8C137.092 140.749 137.205 140.741 137.606 140.632C137.606 141.209 137.772 141.78 137.581 142.177C134.459 148.663 131.295 155.128 128.136 161.597C128.076 161.722 127.986 161.83 127.885 161.98ZM139.464 159.236C139.458 159.574 139.327 160.052 139.083 160.221C136.441 162.049 133.602 163.301 130.278 162.962C130.077 162.941 129.882 162.874 129.565 162.802C132.848 156.063 136.066 149.457 139.284 142.85C139.35 142.87 139.416 142.89 139.482 142.91C139.482 146.497 139.482 150.083 139.482 153.67C139.482 155.525 139.501 157.381 139.464 159.236ZM139.459 133.987C139.453 134.424 139.122 134.854 138.864 135.471C136.384 132.827 134.159 130.455 131.828 127.97C132.271 127.706 132.668 127.463 133.07 127.229C134.823 126.213 136.571 125.19 138.334 124.19C139.169 123.716 139.475 123.897 139.479 124.851C139.49 127.897 139.505 130.943 139.459 133.987ZM142.096 123.793C142.855 123.521 143.164 122.901 143.156 122.053C143.128 118.377 143.17 114.7 143.128 111.024C143.119 110.298 143.362 109.992 144.021 109.755C146 109.044 148.027 108.557 150.066 109.208C150.958 109.492 151.709 110.281 152.444 110.931C152.588 111.059 152.445 111.641 152.297 111.948C150.085 116.541 147.851 121.122 145.62 125.706C144.264 128.492 142.907 131.279 141.551 134.065C141.462 134.047 141.374 134.027 141.284 134.008C141.284 131.502 141.284 128.997 141.284 126.491C141.284 126.036 141.325 125.576 141.274 125.127C141.201 124.444 141.401 124.042 142.096 123.793ZM141.341 158.511C141.318 158.032 141.292 157.734 141.292 157.437C141.289 152.745 141.312 148.052 141.269 143.362C141.262 142.527 141.535 142.053 142.352 141.812C144.557 144.168 146.775 146.54 149.039 148.961C146.973 152.499 144.537 155.686 141.341 158.511ZM149.981 147.311C147.897 145.093 145.944 142.987 143.953 140.92C143.54 140.491 143.547 140.151 143.731 139.633C143.949 139.017 144.17 138.329 144.105 137.702C144.016 136.83 144.429 136.493 145.081 136.122C148.363 134.259 151.624 132.357 154.893 130.471C155.096 130.355 155.315 130.265 155.684 130.087C154.771 136.224 152.864 141.859 149.981 147.311ZM155.537 127.971C151.487 130.377 147.401 132.719 143.125 134.944C146.656 127.69 150.187 120.436 153.787 113.039C154.864 114.955 155.473 116.891 155.676 118.891C155.939 121.494 155.977 124.122 156.047 126.739C156.058 127.156 155.849 127.787 155.537 127.971Z" fill="black"/>
<path d="M137.569 77.0462C137.569 80.0436 137.569 83.041 137.569 86.1178C137.112 86.0049 136.746 85.9181 136.381 85.8238C135.076 85.4851 133.893 85.6129 132.671 86.3262C124.208 91.264 115.705 96.1323 107.238 101.061C106.47 101.508 105.922 101.527 105.166 101.063C103.018 99.7475 100.8 98.5466 98.6473 97.2402C98.3148 97.0379 97.9798 96.5132 97.9786 96.1373C97.9463 82.5845 97.955 69.0304 97.96 55.4764C97.96 55.1625 97.991 54.8486 98.0072 54.5348C98.4873 54.3114 98.7987 54.6948 99.1498 54.8747C105.622 58.2046 111.832 61.9973 118.132 65.6299C124.342 69.2116 130.528 72.833 136.718 76.452C137.013 76.6269 137.354 76.7485 137.569 77.0462Z" fill="#E2665B"/>
<path d="M98.4774 140.812C85.2534 133.176 72.1758 125.623 58.9766 118C59.2942 117.73 59.4716 117.526 59.6936 117.397C70.6659 111.067 81.6357 104.734 92.6265 98.4363C94.1289 97.5753 95.8261 97.7788 97.2665 98.4946C99.7019 99.7067 102.007 101.179 104.385 102.553C101.854 104.643 101.583 105.901 103.28 107.844C100.631 109.813 99.3669 112.601 98.8496 115.753C98.6188 117.161 98.5382 118.608 98.5332 120.037C98.5047 126.761 98.5245 133.486 98.527 140.21C98.5245 140.346 98.5047 140.482 98.4774 140.812Z" fill="#E2665B"/>
<path d="M92.3646 76.1891C92.382 78.7101 92.4093 81.2311 92.4155 83.752C92.4254 87.7109 92.4167 91.6698 92.4267 95.63C92.4279 96.1697 92.4105 96.5952 91.8262 96.9314C81.0822 103.107 70.3531 109.309 59.6203 115.504C59.5037 115.571 59.3735 115.615 59.2432 115.675C59.1836 115.607 59.1055 115.558 59.1055 115.511C59.1055 108.716 59.1104 101.92 59.1154 95.125C61.0918 93.8744 63.1587 92.779 65.1673 91.5842C70.9958 88.1179 76.8951 84.7756 82.7062 81.2782C85.5808 79.5487 88.4541 77.8118 91.4974 76.3826C91.7704 76.2548 92.0172 75.9943 92.3646 76.1891Z" fill="#E2665B"/>
<path d="M127.198 108.451C124.574 111.411 122.173 114.534 120.218 117.986C117.092 123.504 114.913 129.369 113.675 135.589C113.584 136.046 113.305 136.619 112.934 136.842C110.241 138.467 107.503 140.018 104.777 141.59C104.664 141.655 104.533 141.689 104.421 141.734C104.355 141.645 104.287 141.594 104.287 141.544C104.291 134.898 104.3 128.252 104.307 121.606C111.253 117.605 118.022 113.308 124.928 109.239C125.412 108.955 125.9 108.682 126.398 108.425C126.652 108.295 126.947 108.037 127.198 108.451Z" fill="#E2665B"/>
<path d="M93.5895 65.9267C93.3165 66.2356 93.1007 66.6438 92.762 66.841C87.7423 69.7665 82.7065 72.6646 77.6733 75.5677C72.398 78.611 67.1191 81.6493 61.8476 84.6976C58.973 86.3588 57.6208 88.9964 57.5736 92.1824C57.462 99.6064 57.5178 107.033 57.5116 114.458C57.5066 120.937 57.5277 127.414 57.5054 133.893C57.4868 139.46 57.3999 145.026 57.4049 150.593C57.4061 151.588 56.8875 151.793 56.1332 151.84C55.297 151.892 55.0477 151.355 55.0464 150.629C55.039 145.48 55.0278 140.332 55.0464 135.184C55.0477 134.889 55.2499 134.542 55.4583 134.307C56.8702 132.717 56.8702 130.885 55.4831 129.29C55.2375 129.008 55.0476 128.568 55.0476 128.199C55.0402 116.116 54.9881 104.029 55.1196 91.9467C55.1556 88.6391 56.0948 85.4842 58.9482 83.3242C59.4693 82.9297 60.0934 82.653 60.705 82.4086C60.9482 82.3118 61.3762 82.3453 61.5648 82.5041C62.4605 83.2597 63.2781 83.0029 64.1664 82.4893C71.6462 78.1544 79.136 73.8358 86.6233 69.5121C88.5636 68.3918 90.5003 67.2666 92.4419 66.1488C92.7372 65.9788 93.051 65.8411 93.355 65.6885C93.4332 65.7654 93.5113 65.846 93.5895 65.9267Z" fill="#848484"/>
<path d="M39.6952 161.102C41.1492 160.213 42.5983 159.317 44.0573 158.436C45.8798 157.337 47.6998 156.233 49.5471 155.178C49.7816 155.044 50.2394 155.083 50.49 155.225C54.5308 157.522 58.5567 159.844 62.5788 162.172C63.5577 162.739 63.5912 164.349 62.6322 164.912C60.0405 166.432 57.4376 167.936 54.8323 169.433C54.5358 169.603 54.1896 169.688 53.867 169.81C49.4491 167.147 45.0237 164.494 40.4954 162.02C40.1294 161.821 39.5984 161.723 39.6952 161.102Z" fill="#474747"/>
<path d="M76.5494 169.113C78.6213 170.265 80.7031 171.401 82.7626 172.572C85.2141 173.967 87.6482 175.393 90.2635 176.906C88.5973 177.868 87.0614 178.734 85.5478 179.636C83.4512 180.886 81.3694 182.162 79.2814 183.428C78.8856 183.624 78.6114 183.33 78.331 183.16C74.2927 180.728 70.2383 178.325 66.0908 176.079C65.2286 175.613 65.2323 175.275 66.0735 174.776C69.1949 172.921 72.3511 171.123 75.4751 169.272C75.8113 169.075 76.1487 168.88 76.5494 169.113Z" fill="#474747"/>
<path d="M138.789 92.0399C138.497 92.3439 138.258 92.7359 137.908 92.9381C130.431 97.2729 122.94 101.587 115.453 105.905C112.693 107.496 109.945 109.106 107.176 110.678C104.21 112.362 102.808 115.025 102.761 118.294C102.65 125.892 102.705 133.492 102.7 141.092C102.695 148.41 102.674 155.727 102.726 163.044C102.735 164.165 102.59 164.858 101.3 164.816C100.997 164.806 100.688 164.924 100.221 165.015C100.221 163.778 100.204 162.605 100.239 161.435C100.243 161.247 100.443 161.017 100.614 160.886C102.576 159.363 102.637 156.927 100.793 155.297C100.485 155.025 100.241 154.499 100.241 154.089C100.226 142.114 100.217 130.138 100.284 118.162C100.299 115.612 100.911 113.123 102.508 111.064C103.214 110.155 104.235 109.47 105.179 108.772C105.79 108.321 106.448 108.208 107.175 108.812C107.866 109.387 108.623 108.973 109.314 108.574C115.826 104.805 122.342 101.043 128.856 97.2791C131.766 95.598 134.674 93.9158 137.584 92.2384C137.882 92.0672 138.193 91.9195 138.497 91.7607C138.594 91.8538 138.692 91.9468 138.789 92.0399Z" fill="#848484"/>
<path d="M137.606 95.1611C137.606 96.2839 137.684 97.2256 137.565 98.1412C137.522 98.4811 137.07 98.8508 136.717 99.0555C127.82 104.213 118.911 109.349 110.006 114.49C108.223 115.52 106.443 116.552 104.414 117.726C104.959 115.458 105.626 113.582 107.573 112.456C115.022 108.148 122.472 103.843 129.92 99.5369C132.1 98.2764 134.28 97.0134 136.462 95.7567C136.781 95.5755 137.114 95.4179 137.606 95.1611Z" fill="#E2665B"/>
<path d="M94.0799 82.0024C94.0799 77.7296 94.0836 73.4556 94.0762 69.1828C94.0749 68.5798 94.2424 68.1431 94.6357 67.6146C95.06 67.0452 95.2027 66.1023 95.1245 65.3591C94.9868 64.044 95.261 62.595 94.1903 61.4747C94.0377 61.3146 94.0836 60.9387 94.0836 60.662C94.0911 56.1796 94.137 51.6972 94.0998 47.2147C94.0874 45.7433 94.9248 44.9022 95.9843 44.1801C96.7336 43.669 97.5475 43.2496 98.3403 42.8042C98.8961 42.4916 99.5375 42.4544 99.772 43.0859C99.9271 43.5052 99.808 44.2024 99.5325 44.561C99.1938 45.0026 98.581 45.252 98.0562 45.5299C97.0711 46.051 96.5587 46.876 96.4247 47.9479C96.3428 48.6055 96.2783 49.2717 96.2783 49.933C96.2696 64.9944 96.2634 80.0558 96.292 95.116C96.2932 96.0675 96.0377 96.477 95.06 96.4149C94.1965 96.3603 94.0737 95.8566 94.0774 95.1371C94.0936 90.7588 94.0861 86.3806 94.0861 82.0024C94.0836 82.0024 94.0799 82.0024 94.0799 82.0024Z" fill="#898989"/>
<path d="M155.951 104.364C154.919 103.873 153.926 103.263 152.849 102.913C148.987 101.658 145.217 102.176 141.53 103.698C138.028 105.143 135.066 107.389 132.253 109.87C129.175 112.586 126.454 115.607 124.275 119.098C121.311 123.845 118.502 128.675 116.75 134.027C116.188 135.745 115.816 137.524 115.325 139.266C115.223 139.627 114.975 139.948 114.795 140.287C115.559 134.178 117.12 128.291 119.796 122.731C123.327 115.394 127.983 108.961 134.921 104.455C138.691 102.006 142.788 100.528 147.379 100.759C150.368 100.909 153.029 101.948 155.455 103.645C155.679 103.802 155.788 104.121 155.951 104.364Z" fill="#4F4F4F"/>
<path d="M138.052 88.8164C138.693 89.3833 138.523 89.722 137.816 90.1252C132.446 93.1958 127.098 96.3049 121.741 99.3978C117.473 101.862 113.212 104.337 108.914 106.75C108.487 106.989 107.809 106.942 107.294 106.824C106.383 106.617 105.509 106.254 104.619 105.955C104.632 105.13 105.393 105.038 105.883 104.754C109.908 102.425 113.91 100.058 117.937 97.7354C123.419 94.5742 128.881 91.3795 134.417 88.3139C135.603 87.6576 136.629 87.974 137.665 88.5943L137.652 88.5893C137.748 88.7332 137.953 88.6836 138.052 88.8164Z" fill="#474747"/>
<path d="M91.6041 61.7148C92.3907 62.1218 93.0817 62.6143 93.336 63.6342C91.32 64.8004 89.3325 65.9504 87.3437 67.098C80.751 70.9056 74.1582 74.7106 67.5642 78.5169C66.2329 79.2849 64.9204 80.0863 63.5594 80.7972C63.2169 80.9758 62.6971 80.956 62.3001 80.8592C61.2952 80.6148 60.3238 80.2265 59.3176 79.9908C58.6439 79.8332 58.7395 79.5342 58.9963 79.1087C59.691 79.3419 60.2853 79.0975 60.8858 78.7613C67.7205 74.9414 74.5291 71.0792 81.2075 66.9913C83.8898 65.35 86.7172 63.9604 89.4107 62.3352C90.067 61.9406 90.8163 61.7186 91.6041 61.7148Z" fill="#474747"/>
<path d="M97.0515 142.103C93.507 144.039 89.8595 145.221 85.9241 144.897C81.0199 144.493 77.1751 142.075 74.2423 138.146C71.7622 134.824 70.4732 131.012 69.5886 127.029C69.5402 126.811 69.601 126.568 69.6196 126.144C70.8454 126.863 71.9706 127.475 73.0314 128.182C73.2981 128.359 73.4259 128.835 73.5004 129.197C74.2646 132.937 75.7893 136.332 78.4059 139.116C80.4306 141.271 82.9417 142.649 85.9552 143.082C89.156 143.541 92.1224 142.846 94.9995 141.557C95.8121 141.194 96.4002 141.425 97.0515 142.103Z" fill="#303030"/>
<path d="M157.678 62.1165C158.075 63.2493 157.813 64.3373 157.323 65.3471C157.02 65.9699 156.57 66.4104 155.648 66.1734C154.482 65.8732 153.44 66.2839 152.779 67.388C152.546 67.7776 152.376 68.2317 152.063 68.5381C151.743 68.852 151.268 69.2403 150.886 69.2155C149.521 69.1262 148.848 69.8184 148.353 70.9648C147.861 72.1062 147.279 72.3245 146.159 71.9226C146.86 70.8258 147.232 69.6956 146.599 68.419C145.933 67.0729 144.731 66.8955 143.197 66.929C143.529 66.4625 143.733 66.1747 143.938 65.8868C145.35 65.9067 146.453 65.1027 147.603 64.465C149.528 63.3969 151.434 62.2902 153.308 61.1364C155.167 59.9938 156.389 60.3586 157.678 62.1165Z" fill="#303030"/>
<path d="M137.571 77.0458C136.558 76.5186 135.522 76.0297 134.537 75.4566C125.301 70.0895 116.085 64.6865 106.836 59.3406C103.936 57.6645 100.953 56.1311 98.0078 54.5331C98.0078 53.981 98.0078 53.4302 98.0078 52.7168C98.4123 52.9227 98.7448 53.0741 99.0586 53.2565C111.705 60.5577 124.344 67.8713 137.006 75.1464C137.927 75.6762 137.512 76.3784 137.571 77.0458Z" fill="#E38C84"/>
<path d="M139.277 100.089C139.277 98.2265 139.272 96.3754 139.286 94.5244C139.287 94.3681 139.359 94.1485 139.476 94.0666C140.6 93.2689 140.386 92.13 140.293 91.0134C140.19 89.769 140.215 88.5073 139.353 87.4428C139.174 87.2232 139.273 86.7642 139.275 86.4156C139.283 82.0733 139.295 77.7311 139.313 73.3876C139.318 72.338 139.498 71.3889 140.543 70.7897C141.567 70.2016 142.525 69.4981 143.531 68.8766C144.071 68.5428 144.725 68.5168 144.962 69.1483C145.119 69.5676 144.92 70.1743 144.739 70.6433C144.647 70.8827 144.266 71.0564 143.98 71.1705C141.905 71.9918 141.453 73.6928 141.461 75.6803C141.476 79.3228 141.464 82.9654 141.464 86.6079C141.464 90.3211 141.464 94.0331 141.464 97.7464C141.464 99.7624 141.466 99.7624 139.277 100.089Z" fill="#898989"/>
<path d="M112.616 36.8655C112.485 37.6124 112.451 38.3965 112.193 39.0974C111.924 39.8282 111.477 40.3567 110.443 40.1011C109.051 39.7562 107.971 40.4187 107.357 41.6879C106.851 42.7338 106.207 43.3107 104.938 43.2325C103.827 43.1643 103.53 44.2039 103.12 45.0116C102.604 46.0277 102.037 46.2535 100.964 45.8465C101.609 44.8528 102.01 43.8131 101.53 42.6246C101.128 41.6308 100.385 41.0725 99.3698 40.8294C99.1911 40.2847 99.6551 40.1694 99.9653 40.0093C103.009 38.4387 105.919 36.6348 108.874 34.9128C110.335 34.0617 111.434 34.3892 112.182 35.9227C112.335 36.2316 112.519 36.5293 112.616 36.8655Z" fill="#303030"/>
<path d="M92.3657 76.1885C83.6712 81.2193 74.978 86.2501 66.2824 91.2797C64.4102 92.3628 62.5406 93.4508 60.6523 94.5054C60.1747 94.7721 59.63 94.921 59.1152 95.1232C58.9229 93.9955 59.5928 93.4198 60.4625 92.9211C64.7613 90.451 69.0478 87.9598 73.3416 85.4797C79.4195 81.9699 85.4987 78.4639 91.5791 74.9578C91.8123 74.8226 92.0605 74.7134 92.3657 74.5596C92.3657 75.1687 92.3657 75.6786 92.3657 76.1885Z" fill="#E38C84"/>
<path d="M49.614 151.866C49.0012 151.22 48.3647 150.593 47.7891 149.915C47.6116 149.706 47.5285 149.355 47.5273 149.068C47.5074 145.287 47.4293 141.502 47.5335 137.723C47.6017 135.271 48.4615 133.144 50.8782 131.974C51.6326 131.609 52.3186 131.105 53.0692 130.732C53.4042 130.565 54.0183 130.376 54.161 130.525C54.4873 130.868 54.7999 131.438 54.7466 131.868C54.6883 132.34 54.2801 132.836 53.898 133.182C53.4935 133.548 52.9538 133.779 52.4489 134.017C50.5867 134.9 49.7964 136.451 49.7803 138.417C49.7468 142.445 49.7716 146.472 49.7666 150.499C49.7666 150.953 49.7269 151.406 49.7046 151.86L49.614 151.866Z" fill="#848484"/>
<path d="M127.199 108.452C125.862 109.16 124.489 109.806 123.195 110.585C117.377 114.085 111.586 117.629 105.77 121.134C105.343 121.391 104.798 121.454 104.308 121.607C104.105 120.394 104.571 119.596 105.658 118.974C113.853 114.281 122.022 109.545 130.203 104.829C130.434 104.696 137.306 100.226 137.555 100.124C137.629 100.215 134.507 102.536 131.171 104.789C129.931 105.922 127.171 108.498 127.171 108.498C127.171 108.498 127.196 108.263 127.193 108.435L127.199 108.452Z" fill="#E38C84"/>
<path d="M91.6027 61.7155C85.4131 65.2091 79.2223 68.704 73.0327 72.1977C69.5043 74.1889 65.9759 76.1814 62.4451 78.1701C61.7143 78.582 60.9774 78.9803 60.2405 79.381C59.7504 79.6478 59.305 79.685 58.9961 79.1081C59.3795 78.7644 59.7169 78.3401 60.1524 78.087C69.4138 72.7287 78.6938 67.4001 87.9515 62.0344C89.1574 61.3371 90.3149 61.022 91.6027 61.7155Z" fill="#6B6B6B"/>
<path d="M137.668 88.5968C135.975 87.8549 134.588 88.4975 133.105 89.3697C128.018 92.3634 122.855 95.2255 117.737 98.1671C113.528 100.585 109.342 103.043 105.15 105.491C104.951 105.607 104.797 105.8 104.622 105.957C104.018 106.001 103.791 105.72 104.125 105.213C104.364 104.848 104.712 104.504 105.089 104.286C114.11 99.0542 123.14 93.841 132.17 88.6241C132.775 88.2742 133.367 87.8933 133.996 87.5894C135.199 87.0063 136.966 87.5087 137.668 88.5968Z" fill="#6B6B6B"/>
<path d="M93.309 171.112C93.309 168.384 93.1875 165.531 93.3512 162.697C93.4629 160.751 94.546 159.241 96.3586 158.334C97.1699 157.929 97.9292 157.419 98.7455 157.027C99.0793 156.867 99.6785 156.71 99.8472 156.874C100.156 157.173 100.429 157.743 100.362 158.14C100.28 158.619 99.9055 159.123 99.5185 159.456C99.0507 159.857 98.4503 160.111 97.887 160.389C96.2791 161.183 95.6055 162.57 95.3933 164.256C95.3636 164.498 95.3449 164.75 95.3809 164.989C95.7568 167.431 95.0459 169.508 93.309 171.112Z" fill="#848484"/>
<path d="M75.4707 129.584C76.663 130.021 77.4185 130.655 77.8304 131.852C78.5673 133.994 79.7795 135.89 81.5052 137.399C84.381 139.911 87.7146 140.476 91.3298 139.531C91.6859 139.438 92.3223 139.24 92.3223 139.24C92.3223 139.24 93.2528 139.669 93.6685 140.103C86.3214 143.906 77.7882 140.103 75.4707 129.584Z" fill="#848484"/>
<path d="M76.5491 169.113C75.2377 169.828 73.9128 170.52 72.6175 171.263C70.2851 172.601 67.9713 173.968 65.5632 175.372C70.1784 178.083 74.7291 180.755 79.281 183.429C79.1111 183.769 78.9411 184.107 78.7178 184.555C78.0925 184.207 77.5205 183.898 76.9585 183.573C73.2329 181.42 69.5072 179.27 65.7878 177.109C64.1414 176.153 64.1638 175.273 65.8449 174.297C68.8993 172.522 71.9612 170.759 75.0095 168.974C75.5851 168.635 76.0913 168.451 76.5491 169.113Z" fill="#6B6B6B"/>
<path d="M59.0938 142.528C59.0938 141.786 59.0938 141.131 59.0938 140.249C59.6992 140.429 60.2227 140.534 60.7066 140.738C64.0166 142.125 65.4917 144.921 66.1369 148.198C66.9297 152.224 65.9644 155.937 63.735 159.36C63.1879 160.201 62.6705 160.522 61.9336 159.78C62.7313 158.463 63.6233 157.217 64.2809 155.859C65.6183 153.096 65.9446 150.161 65.0563 147.212C64.3516 144.872 62.9397 143.122 60.286 142.795C59.9113 142.748 59.5453 142.631 59.0938 142.528Z" fill="#303030"/>
<path d="M83.082 183.079C85.6824 181.583 88.325 180.062 91.1164 178.455C91.2194 179.512 91.3335 180.388 91.3695 181.268C91.3782 181.488 91.1872 181.815 90.9911 181.931C88.8436 183.214 86.6762 184.466 84.5547 185.703C84.0634 184.828 83.6143 184.028 83.082 183.079Z" fill="#474747"/>
<path d="M47.771 152.504C48.2585 153.253 48.3082 153.988 47.472 154.481C44.6334 156.153 41.7687 157.783 38.8495 159.467C38.6125 158.874 38.4004 158.343 38.1895 157.811C38.842 156.94 39.8842 156.627 40.7539 156.087C42.7277 154.862 44.7909 153.782 46.8144 152.638C47.1097 152.471 47.4099 152.236 47.771 152.504Z" fill="#474747"/>
<path d="M112.616 36.8653C112.001 36.1755 111.426 35.4411 110.748 34.8208C110.539 34.6297 109.964 34.5962 109.699 34.7438C106.313 36.6309 102.952 38.5613 99.5913 40.4917C99.4871 40.5513 99.4424 40.7151 99.3704 40.8292C99.0404 40.7734 98.7117 40.7175 98.043 40.6034C98.5281 40.1146 98.77 39.7474 99.1099 39.5476C102.453 37.5849 105.813 35.6507 109.168 33.7054C110.018 33.2129 110.886 33.2749 111.397 34.0714C111.939 34.9151 112.22 35.9274 112.616 36.8653Z" fill="#4F4F4F"/>
<path d="M39.6956 161.103C40.4772 161.605 41.2401 162.137 42.0428 162.604C45.7586 164.762 49.488 166.896 53.1987 169.061C53.4729 169.221 53.6453 169.556 53.8662 169.811C53.5076 169.879 53.0474 170.126 52.8054 169.988C48.1332 167.337 43.4857 164.641 38.8358 161.95C38.7552 161.903 38.7092 161.799 38.5566 161.607C38.971 161.423 39.3333 161.263 39.6956 161.103Z" fill="#6B6B6B"/>
<path d="M47.7707 152.505C45.9668 153.481 44.1579 154.445 42.3627 155.436C40.962 156.21 39.5787 157.017 38.188 157.81C37.8952 157.569 37.6024 157.328 37.1719 156.975C39.0589 155.879 40.7313 154.905 42.4061 153.935C43.612 153.237 44.8192 152.542 46.0301 151.851C47.071 151.259 47.3327 151.359 47.7707 152.505Z" fill="#6B6B6B"/>
<path d="M157.678 62.1166C156.008 60.2941 154.364 60.6477 152.464 61.9057C150.267 63.3609 147.9 64.5644 145.564 65.7951C145.127 66.0246 144.485 65.8658 143.938 65.8857C147.024 64.0706 150.111 62.2555 153.198 60.4417C153.318 60.371 153.445 60.3114 153.565 60.2432C155.771 58.9889 157.055 59.5745 157.678 62.1166Z" fill="#4F4F4F"/>
<path d="M62.8124 146.638C63.0779 147.223 63.5034 147.789 63.5828 148.398C64.053 152.026 63.3111 155.34 60.8348 158.152C60.4191 158.625 60.001 158.934 59.4043 158.244C60.8707 156.603 62.0853 154.74 62.4339 152.534C62.7416 150.59 62.7119 148.593 62.831 146.619L62.8124 146.638Z" fill="#848484"/>
<path d="M51.471 149.764C51.471 148.198 51.5901 146.653 51.4375 145.134C51.2874 143.64 52.0144 142.799 53.1943 142.004C53.7563 144.877 53.2737 147.439 51.471 149.764Z" fill="#303030"/>
<path d="M37.0006 160.062C36.848 160.182 36.5515 160.596 36.1992 160.651C35.4386 160.768 34.6 159.973 34.7327 159.239C34.8109 158.808 35.1831 158.225 35.554 158.101C36.1917 157.886 36.9832 158.865 37.0006 160.062Z" fill="#848484"/>
<path d="M82.6133 186.337C82.462 186.457 82.1667 186.873 81.8156 186.929C81.0564 187.049 80.2152 186.256 80.3455 185.52C80.4224 185.09 80.7921 184.506 81.163 184.379C81.7983 184.162 82.5923 185.138 82.6133 186.337Z" fill="#848484"/>
<path d="M157.043 104.998C156.677 104.786 156.309 104.573 155.943 104.361C156.309 104.572 156.677 104.786 157.043 104.998Z" fill="#4F4F4F"/>
<path d="M49.6152 151.866L49.7046 151.862C49.7207 152.025 49.7356 152.186 49.7517 152.349C49.7058 152.35 49.6611 152.352 49.6152 152.354C49.6152 152.192 49.6152 152.03 49.6152 151.866Z" fill="#6B6B6B"/>
<path d="M138.054 88.8177C137.92 88.7416 137.787 88.6669 137.652 88.5908C137.787 88.6669 137.92 88.7429 138.054 88.8177Z" fill="#6B6B6B"/>
<path d="M62.8319 146.623C62.7715 146.542 62.7098 146.46 62.8055 146.587C62.7828 146.442 62.7979 146.54 62.813 146.64L62.8319 146.623Z" fill="#848484"/>
<path d="M164.391 122.983C164.113 119.547 163.543 116.198 162.26 113.004C161.054 110 159.518 107.185 157.04 104.998C156.657 104.816 156.286 104.61 155.941 104.361L155.949 104.365C154.701 103.216 153.194 102.546 151.564 102.246C147.339 101.467 143.334 102.267 139.592 104.283C134.629 106.957 130.502 110.673 126.914 114.975C124.26 118.159 122.248 121.776 120.274 125.408C118.041 129.515 116.216 133.771 115.301 138.386C115.175 139.023 115.233 139.728 114.794 140.289C114.708 141.051 114.563 141.811 114.547 142.576C114.465 146.316 114.563 150.036 115.351 153.725C116.279 158.07 117.819 162.148 120.75 165.508C125.966 171.484 132.739 172.419 139.603 169.785C144.672 167.84 148.728 164.412 152.207 160.307C155.807 156.058 158.576 151.299 160.61 146.117C163.528 138.676 165.041 131.02 164.391 122.983ZM163.246 129.122C162.705 136.886 160.45 144.206 156.754 151.048C153.527 157.022 149.44 162.303 143.71 166.112C140.421 168.298 136.861 169.738 132.802 169.542C129.978 169.406 127.501 168.407 125.342 166.602C121.242 163.174 119.458 158.563 118.737 153.449C118.445 151.383 118.345 149.29 118.156 147.21C118.255 139.665 120.053 132.556 123.078 125.7C124.883 121.609 127.172 117.815 129.972 114.356C133.262 110.29 137.105 106.864 142.058 104.891C150.236 101.636 157.432 105.075 160.914 112.893C163.223 118.077 163.633 123.576 163.246 129.122Z" fill="#303030"/>
<path d="M110.052 170.644C107.743 166.29 102.836 165.042 98.7444 167.793C93.6776 171.198 91.1293 179.564 94.5436 185.765C96.8363 189.929 101.682 191.284 105.636 188.634C109.802 185.841 111.256 181.637 111.6 177.599C111.581 174.676 111.086 172.596 110.052 170.644ZM105.503 186.902C101.585 189.511 96.9653 187.448 96.2569 182.766C96.1378 181.974 96.0634 181.177 95.9877 180.54C96.175 176.54 97.4864 173.22 100.351 170.589C104.056 167.186 109.146 168.739 110.342 173.637C111.544 178.558 109.462 184.266 105.503 186.902Z" fill="#303030"/>
<path d="M108.005 172.705C108.343 173.739 108.943 174.765 108.972 175.809C109.075 179.591 107.848 182.879 104.786 185.296C103.796 186.077 102.661 186.488 101.227 186.291C101.982 185.924 102.679 185.678 103.276 185.28C105.875 183.543 107.244 180.964 107.778 177.996C108.09 176.268 107.957 174.46 108.024 172.688L108.005 172.705Z" fill="#848484"/>
<path d="M102.619 171.349C102.619 173.255 102.675 175.163 102.563 177.062C102.546 177.367 101.8 177.799 101.352 177.852C101.034 177.891 100.375 177.419 100.345 177.128C100.22 175.885 100.014 174.549 100.346 173.394C100.594 172.529 101.62 171.886 102.3 171.146C102.407 171.213 102.514 171.281 102.619 171.349Z" fill="#898989"/>
<path d="M108.024 172.69C107.969 172.616 107.915 172.542 107.998 172.653C107.975 172.508 107.99 172.607 108.005 172.706L108.024 172.69Z" fill="#848484"/>
<path d="M161.318 121.597C161.088 118.048 160.036 114.658 158.172 111.571C154.87 106.105 149.359 104.175 143.342 106.337C140.084 107.507 137.257 109.369 134.836 111.784C125.029 121.571 120.623 133.643 119.988 145.335C119.996 151.882 120.697 156.335 122.747 160.511C125.641 166.401 131.226 168.983 137.38 167.173C140.693 166.199 143.619 164.437 146.059 162.029C157.337 150.907 162.339 137.356 161.318 121.597ZM145.806 160.64C143.377 163.056 140.536 164.924 137.167 165.822C131.823 167.246 127.149 165.24 124.446 160.404C122.684 157.253 121.88 153.826 121.7 150.264C121.166 139.653 124.153 129.963 129.603 120.969C132.054 116.926 135.076 113.352 138.928 110.552C141.187 108.91 143.644 107.668 146.451 107.28C151.215 106.621 154.775 108.552 157.27 112.521C159.801 116.546 160.396 121.071 160.436 127.54C159.798 139.136 155.473 151.021 145.806 160.64Z" fill="#848484"/>
<path d="M137.615 113.949C137.615 116.83 137.635 119.387 137.592 121.941C137.586 122.279 137.339 122.754 137.058 122.924C134.963 124.189 132.831 125.393 130.629 126.663C130.171 126.184 129.722 125.714 129.242 125.211C131.424 121.079 133.993 117.3 137.615 113.949Z" fill="#E2665B"/>
<path d="M142.297 138.177C142.293 138.785 141.905 139.723 141.014 140.404C140.132 141.079 139.351 140.809 139.032 139.752C138.689 138.615 139.429 136.787 140.467 136.207C141.51 135.622 142.284 136.246 142.297 138.177Z" fill="#474747"/>
<path d="M139.291 122.073C139.291 118.893 139.291 115.715 139.291 112.535C139.36 112.535 139.43 112.535 139.499 112.535C139.499 115.715 139.499 118.893 139.499 122.073C139.43 122.073 139.36 122.073 139.291 122.073Z" fill="#474747"/>
<path d="M157.753 118.091C157.704 117.911 157.523 117.766 157.404 117.605C157.325 117.635 157.246 117.666 157.167 117.696C158.369 121.169 157.609 129.349 157.534 129.889C156.648 136.333 154.347 142.261 151.589 148.138C149.788 151.978 145.148 157.729 141.824 160.487C141.665 160.619 141.551 160.805 141.448 161.006C139.689 162.029 137.1 163.839 135.43 164.089C135.482 164.229 135.534 164.369 135.586 164.509C137.231 163.842 139.571 163.381 141.737 161.279C148.866 157.139 157.574 143.163 158.537 128.34C158.847 124.879 158.652 121.456 157.753 118.091Z" fill="#848484"/>
<path d="M141.285 122.079C141.285 118.476 141.285 114.873 141.285 111.271C141.325 111.271 141.366 111.271 141.406 111.271C141.406 114.873 141.406 118.476 141.406 122.079C141.366 122.079 141.325 122.079 141.285 122.079Z" fill="#4F4F4F"/>
<path d="M84.8158 78.0409C84.7625 77.6327 84.7091 77.2233 84.6372 76.6687C83.4834 77.1302 82.4003 77.4987 81.3755 77.9875C79.661 78.8064 78.0829 78.6587 76.5209 77.5955C76.2231 77.3933 75.6922 77.3262 75.3473 77.4379C73.4553 78.0508 71.5782 78.717 69.7172 79.4192C69.2966 79.578 68.8202 79.8758 68.6031 80.2467C67.0027 82.9873 64.4271 84.3967 61.6158 85.4971C61.2002 85.6596 60.6754 85.8619 60.2995 85.7403C59.2958 85.4177 58.7834 85.9884 58.1619 86.5777C56.6756 87.9883 55.6818 87.8742 53.801 87.2564C52.3854 86.7911 51.5691 85.8358 50.816 84.8322C49.9252 83.6461 49.1994 81.6871 50.1423 80.0284C51.3209 77.9515 52.7911 76.1514 54.9908 75.0944C56.1855 74.5199 57.3889 73.9182 58.6507 73.5348C63.0512 72.1999 66.8414 69.6516 70.8375 67.5153C71.0521 67.3999 71.2965 67.0438 71.273 66.8267C71.0621 64.8541 72.2717 63.7983 73.7394 62.9199C74.2753 62.5998 74.8733 62.3802 75.4527 62.1371C76.5383 61.6818 77.6784 61.3381 77.9017 59.8865C77.9625 59.4895 78.3769 59.1273 78.6746 58.791C80.9959 56.1795 83.3295 53.5791 85.6607 50.9725C85.4647 50.6524 85.3803 50.4638 85.2513 50.315C83.8059 48.6389 83.6558 46.665 83.8543 44.577C83.8965 44.1328 83.7662 43.5497 83.4896 43.2197C82.301 41.7992 81.7825 40.1864 81.8718 38.3639C81.9214 37.3515 81.9822 36.3367 82.1125 35.333C82.27 34.1109 82.1745 32.982 81.7651 31.7723C79.192 24.1573 81.6497 15.7618 87.7115 11.1752C89.4596 9.85264 91.2262 8.55119 93.014 7.28326C102.82 0.331933 117.336 4.91862 121.366 16.335C122.172 18.6166 122.433 21.0991 122.861 23.5034C123.691 28.1645 124.703 32.7562 126.906 37.0128C127.493 38.1468 127.685 39.4792 128.22 40.6454C128.694 41.6789 129.295 42.6888 130.012 43.5696C131.52 45.4194 132.156 47.4764 132.232 49.8584C132.289 51.645 132.627 53.4637 133.122 55.187C134.054 58.435 133.798 61.4076 131.68 64.1171C131.401 64.4744 131.141 64.9484 130.762 65.1097C129.154 65.7945 129.41 66.9967 129.717 68.2894C129.927 69.1703 130.03 70.076 130.181 70.9705C130.417 71.1057 130.5 71.3352 130.541 71.5809C131.359 76.4764 132.318 81.3534 132.458 86.3358C132.471 86.8234 132.489 87.3196 132.222 87.765C132.109 89.7798 131.449 91.5713 130.181 93.1668C129.737 93.7263 129.496 94.4546 129.199 95.122C128.235 97.2907 126.73 98.8018 124.348 99.3725C123.69 99.5301 123.015 99.8588 122.494 100.287C121.455 101.142 120.343 101.121 119.131 100.907C118.747 100.839 118.255 100.903 117.926 101.098C116.997 101.65 116.142 102.326 115.23 102.911C113.925 103.747 112.792 104.675 112.073 106.143C111.26 107.8 109.66 108.597 107.982 109.212C107.151 109.517 106.224 109.775 106.304 111.141C110.042 108.981 113.687 106.873 117.334 104.767C120.961 102.673 124.588 100.581 128.317 98.4296C128.355 98.9817 128.386 99.4445 128.418 99.9072C128.907 101.588 128.751 103.212 127.985 104.782C127.833 106.045 126.926 106.661 125.934 107.233C119.425 110.982 112.916 114.733 106.424 118.512C105.558 119.016 104.543 119.352 104.191 120.545C104.081 120.917 103.301 121.091 102.805 121.369C102.418 119.414 102.708 116.978 103.609 114.351C102.849 114.096 102.086 113.842 101.045 113.495C100.782 114.925 100.341 116.367 100.287 117.823C100.181 120.651 100.275 123.487 100.321 126.319C100.339 127.431 99.376 127.363 98.7669 127.729C98.4902 128.118 98.0808 128.299 97.6552 128.474C96.4915 128.953 95.3055 129.372 94.138 129.84C92.7014 130.415 92.2113 131.362 92.7299 132.812C93.411 134.716 93.5165 136.71 93.7658 138.682C93.8179 139.097 93.8093 139.523 93.5735 139.904C93.9122 143.554 94.246 147.206 94.5946 150.854C94.6889 151.837 94.2993 152.498 93.4644 153.02C90.8838 154.632 88.1879 155.88 84.8344 155.902C84.9399 157.253 84.8357 158.612 85.1818 159.845C86.1185 163.185 86.1284 166.458 85.0329 169.742C85.0218 169.775 85.0131 169.809 85.0007 169.841C84.6335 170.79 84.5243 172.047 83.8419 172.621C82.636 173.635 80.9922 173.946 79.3831 173.704C78.6362 173.593 78.1883 173.785 77.6449 174.278C76.9849 174.876 76.1487 175.279 75.3882 175.766C74.8783 176.414 74.0582 176.389 73.3883 176.694C71.0844 177.117 68.788 177.194 66.5089 176.548C66.2347 176.487 65.973 176.387 65.7186 176.272C62.8639 175.007 62.4297 174.023 63.2125 170.867C63.679 168.987 64.8489 167.523 66.4221 166.332C68.4282 164.813 70.304 163.125 72.1576 161.418C72.6712 160.946 72.9342 160.348 73.1166 159.701C73.4528 158.515 73.5098 157.286 73.6711 156.074C73.6947 155.901 73.6786 155.724 73.6476 155.55C73.5781 155.163 73.3647 154.901 72.9602 154.876C72.5818 154.854 72.5471 155.189 72.4553 155.445C71.8275 157.198 71.3263 158.992 71.1315 160.839C70.9703 162.365 70.0758 163.145 68.7508 163.567C67.9505 163.821 67.1119 163.988 66.267 163.9C65.1529 163.784 64.2857 164.16 63.607 165.031C63.5214 165.14 63.6207 164.998 63.5363 165.108C62.0612 167.051 60.0675 167.971 57.6706 168.11C55.4684 168.217 53.2961 168.102 51.2093 167.3C50.1535 166.866 49.0791 166.453 48.5469 165.314C48.5469 164.613 48.5469 163.912 48.5469 163.211C48.6312 163.16 48.7739 163.125 48.7925 163.057C49.362 160.959 50.9649 159.711 52.5107 158.376C54.4697 156.685 56.3865 154.937 58.2164 153.108C58.843 152.483 59.3268 151.59 59.5675 150.733C59.9682 149.303 59.5402 148.616 58.2562 147.915C55.167 146.228 52.7824 143.797 51.6125 140.5C51.0815 139.004 51.244 137.197 51.3582 135.55C51.7266 130.253 53.1038 125.147 54.5032 120.05C54.7811 119.039 55.0714 118.029 55.3146 117.009C56.8902 110.412 61.1406 105.695 66.2943 101.715C69.4443 99.2832 72.825 97.1505 76.1164 94.9037C76.6698 94.5253 76.9588 94.1829 76.9241 93.4038C76.8559 91.853 77.7665 90.7401 79.1064 90.0949C80.3284 89.5056 81.6534 89.1347 82.9003 88.5913C83.2353 88.4449 83.5119 88.0566 83.703 87.7154C84.0739 87.0541 84.3642 86.3482 84.688 85.6597C85.7376 84.192 84.9548 82.6337 84.9163 81.1114C84.9014 80.0892 84.3915 79.0818 84.8158 78.0409Z" fill="black"/>
<path d="M74.6297 179.045C71.7378 178.983 67.6871 179.609 66.4043 176.257C69.8769 177.268 73.4065 176.41 76.8803 175.99C79.7263 175.126 82.5649 174.111 85.339 172.963C86.1764 172.768 87.066 173.819 86.6106 174.591C86.0052 176.648 80.7957 177.917 78.8281 178.403C77.5118 178.912 76.0366 178.939 74.6297 179.045Z" fill="#333333"/>
<path d="M132.202 86.5636C132.202 86.5636 131.249 76.8692 130.184 70.9736C130.631 71.2168 132.851 72.4302 133.069 72.7192C133.288 73.0083 133.399 73.3867 133.461 73.8098C133.867 76.6198 134.303 79.4262 134.649 82.2437C134.783 83.3292 134.821 84.4259 134.876 85.6256C134.893 86.0102 132.202 86.5636 132.202 86.5636Z" fill="#A04841"/>
<path d="M93.5051 138.098C93.5051 138.098 93.1242 135.875 92.7409 133.891C92.5461 132.885 91.8761 131.942 92.4394 130.89C92.6453 130.506 92.953 130.058 93.3252 129.898C95.1192 129.127 98.6277 127.809 98.6277 127.809L98.4801 130.328C98.4801 130.328 97.701 130.861 97.1886 131.09C96.0856 131.585 95.1092 132.364 93.984 133.075C94.273 134.343 94.5944 135.652 94.8611 136.972C94.9641 137.479 95.082 138.93 95.082 138.93L93.5051 138.098Z" fill="#A04841"/>
<path d="M128.053 104.078C128.176 102.689 128.3 101.301 128.423 99.9128C129.516 99.553 132.339 98.0618 132.336 98.2603C132.312 99.4401 132.271 100.622 132.177 101.799C132.163 101.975 128.032 104.313 128.053 104.078Z" fill="#A04841"/>
<path d="M84.8852 78.7754C84.8852 78.7754 85.2735 82.1971 85.529 83.7528C85.6767 84.6498 85.4447 85.2292 84.7003 85.6634C84.441 83.8459 84.1395 82.0346 83.9398 80.2108C83.9125 79.9627 83.8281 79.428 83.8281 79.428L84.8852 78.7754Z" fill="#A04841"/>
<path d="M79.8346 95.5537C84.5888 97.1839 88.9496 99.6429 93.3564 102.001C94.066 102.381 94.7596 102.794 95.4903 103.128C96.1057 103.409 96.2918 103.713 96.0498 104.421C95.736 105.337 95.5561 106.313 95.432 107.278C95.298 108.32 95.5511 109.28 96.3315 110.073C96.6379 110.384 96.7731 110.869 97.0858 111.172C97.5423 111.613 98.0423 112.06 98.6093 112.319C99.18 112.579 99.5485 112.893 99.3524 113.49C98.1627 117.106 98.5634 120.838 98.5621 124.531C98.5621 125.624 98.2545 126.137 97.2235 126.487C95.4394 127.091 93.7224 127.894 91.9495 128.537C91.2758 128.782 90.5265 128.813 89.8156 128.961C89.7015 128.984 89.6072 129.106 89.3032 129.33C89.9546 129.575 90.4384 129.756 91.1418 130.02C90.8478 130.582 90.658 131.464 90.2635 131.568C89.7362 131.709 89.0489 131.245 88.1941 130.962C88.3306 131.377 88.3417 131.663 88.4893 131.814C88.8032 132.135 89.1469 132.488 89.5489 132.65C90.9371 133.212 91.4409 134.324 91.5637 135.69C92.0029 140.588 92.4185 145.49 92.875 150.386C92.9395 151.084 92.679 151.456 92.1269 151.831C89.4533 153.646 86.4485 154.234 83.2935 154.379C77.9811 154.621 73.2245 153.071 68.6688 150.381C66.4431 149.068 63.8638 148.328 61.3999 147.451C58.1866 146.307 55.5763 144.459 53.8258 141.489C53.7228 141.314 53.6658 141.111 53.5876 140.922C53.4945 140.804 53.466 140.655 53.5057 140.526C54.4436 137.456 54.2153 134.217 54.8989 131.103C55.8083 126.964 56.9472 122.888 57.9757 118.78C58.5551 116.466 59.1109 114.162 60.4012 112.105C61.849 109.796 63.7633 107.909 65.7211 106.057C69.6514 102.338 74.1624 99.3848 78.5816 96.3105C78.9835 96.0301 79.4091 95.7919 79.8346 95.5537Z" fill="#212492"/>
<path d="M115.16 85.2197C115.062 81.8985 114.981 78.5773 114.862 75.2573C114.767 72.5689 114.647 69.8817 114.49 67.1969C114.45 66.5121 114.244 65.8334 114.077 65.1622C114.031 64.9774 113.847 64.826 113.533 64.3918C113.409 65.4228 113.254 66.1274 113.252 66.8334C113.232 72.7177 113.241 78.6021 113.241 84.4952C112.325 85.0287 111.629 85.6428 111.45 86.8065C111.38 87.2717 110.727 87.7345 110.237 88.0322C107.915 89.4453 108.039 91.3807 109.042 93.2938C105.665 97.0058 100.958 98.9474 97.0515 102.169C91.0902 99.1162 85.3658 95.2565 78.6093 93.4067C78.541 92.4216 79.1614 91.8212 79.9765 91.4651C81.2866 90.8919 82.629 90.382 83.9862 89.9329C84.8733 89.6389 85.3162 89.1637 85.3026 88.1948C85.2839 86.871 86.3956 86.3388 87.2404 85.6341C87.7181 84.7421 87.3757 83.8041 87.3558 82.896C87.3236 81.4047 87.2392 79.9172 87.3782 78.4309C87.5829 77.818 87.9091 77.9967 88.2032 78.3366C88.7515 78.9693 89.2217 79.6653 89.7192 80.3378C91.5244 82.7781 93.3456 85.2048 95.4857 87.3697C96.0961 87.9863 96.7649 88.5335 97.6321 89.0644C97.5862 88.4962 97.25 88.2456 97.0142 87.9404C96.7723 87.6253 96.3269 87.4156 96.451 86.9008C96.9708 86.5311 97.2884 86.9392 97.6321 87.2159C98.7958 88.1551 99.9111 89.1625 101.198 89.8597C101.342 89.7915 101.387 89.7158 101.337 89.6637C100.067 88.3523 98.5948 87.2941 97.1048 86.2557C96.6966 85.9716 96.4671 86.2284 96.2351 86.5112C95.6123 86.7457 95.3505 86.2544 95.0552 85.8921C92.9176 83.2719 90.8656 80.5809 88.6783 77.9991C88.187 77.4185 87.532 76.9669 87.2156 76.2375C86.903 74.0837 87.2516 71.9944 87.7727 69.9089C88.5952 66.6162 89.6249 63.3807 90.4401 60.0855C90.5641 59.5868 90.785 59.0818 90.548 58.5732C90.2775 58.3002 89.9984 58.6253 89.7391 58.5174C89.651 58.2866 89.5642 58.0546 89.4761 57.8238C89.2416 57.9504 88.9054 58.0174 88.7888 58.2146C88.3806 58.9019 87.9861 59.6104 87.6958 60.3547C86.7082 62.8819 85.5383 65.3694 84.8845 67.9834C84.387 69.9759 84.5284 72.1371 84.4701 74.2251C84.454 74.8194 84.2902 75.0886 83.7542 75.2921C82.5508 75.7486 81.3983 76.359 80.1713 76.7287C79.5026 76.9297 78.7234 76.7647 77.7768 76.7647C79.0286 74.6345 79.1651 72.5999 78.4455 70.5429C77.7222 68.476 76.3265 67.043 74.1703 66.4376C73.9767 65.8942 74.4482 65.7875 74.7484 65.6175C76.0697 64.8707 77.3612 65.1523 78.6217 65.7987C79.3822 66.1882 80.139 66.522 80.9764 66.0146C81.5918 65.8905 81.9268 66.4848 82.5657 66.6547C81.7096 65.5592 80.8127 64.7206 79.5646 64.3273C79.1589 64.0121 78.35 64.0357 78.5857 63.1759C78.7147 63.1611 78.8438 63.1462 78.9728 63.1313C79.211 62.9278 79.4765 62.7926 79.7978 62.7901C80.84 63.1251 81.5223 64.0196 82.4627 64.5121C82.8076 64.6933 83.083 65.0704 83.5979 64.9265C83.588 64.4302 83.0793 64.1945 83.0111 63.7529C82.9888 62.8224 82.691 62.0581 81.8362 61.5582C81.1327 61.1463 81.4305 60.6053 81.763 60.1277C83.3014 57.9218 84.6723 55.6031 86.4154 53.5324C87.8992 51.7707 89.2962 49.9333 90.7453 48.1406C91.0641 48.0873 91.4574 47.8875 91.6906 48.0054C92.8916 48.6158 94.0516 49.3068 95.121 49.911C95.2351 51.3402 95.1495 52.8712 95.5118 54.2868C96.5961 58.531 100.974 61.0557 105.582 60.3672C108.397 59.9466 110.687 58.536 112.79 56.7718C114.285 55.5175 115.659 54.1168 117.146 52.7235C118.386 53.6491 119.833 54.02 121.413 53.9431C121.662 53.9307 122.016 54.0287 122.158 54.2074C123.131 55.4158 124.06 56.6589 125.003 57.8908C126.018 60.8634 126.256 63.9687 126.579 67.0617C127.126 72.3034 127.256 77.5761 128.268 82.788C128.874 85.9021 129.232 89.1513 128.565 92.3671C128.394 92.707 128.173 93.0308 128.059 93.3894C127.276 95.8496 125.77 97.4822 123.135 97.9834C122.554 98.0938 122.057 98.5988 121.493 98.8643C121.032 99.0814 120.529 99.2129 119.939 99.4189C120.464 94.7516 114.803 90.2183 110.207 91.7678C109.833 90.8758 110.004 90.1848 110.834 89.6165C111.435 89.2047 111.995 88.7171 112.514 88.2034C112.765 87.9541 113.01 87.5732 113.03 87.2382C113.078 86.4169 113.449 86.0187 114.246 85.974C114.845 86.2631 115.625 86.1241 116.085 86.747C116.224 87.3685 116.866 87.3697 117.252 87.6874C117.431 88.3412 117.852 88.7655 118.475 89.0223C119.542 89.4639 120.63 89.8436 121.729 90.1922C122.248 90.3572 122.674 90.3696 122.506 89.6066C122.41 88.9069 121.895 88.6066 121.347 88.2828C120.842 87.9851 120.116 88 119.873 87.3065C120.351 86.5906 120.91 87.1613 121.424 87.2295C121.976 87.3027 122.468 87.794 123.08 87.4566C123.477 87.3635 123.795 87.6997 124.192 87.696C123.81 86.1303 120.755 85.0646 118.007 85.5088C117.056 85.443 116.061 85.7978 115.16 85.2197Z" fill="#F2BFBB"/>
<path d="M107.24 44.1555C105.683 45.1108 104.422 45.9148 103.133 46.6691C101.1 47.8601 98.9496 48.597 96.5415 48.2397C93.7674 47.8278 91.7961 46.3043 90.5269 43.8454C89.0406 40.9683 88.4934 37.8233 88.1002 34.6646C87.8074 32.3074 87.7677 29.9204 87.5431 27.5532C87.3111 25.1042 88.2404 23.118 89.8135 21.3513C90.3916 20.7024 90.9772 20.0598 91.631 19.334C94.461 26.6153 99.6704 30.3968 107.003 31.331C107.55 32.491 107.994 33.7254 108.692 34.7936C109.066 35.3643 109.831 35.8631 110.502 36.0095C111.612 36.2502 112.455 35.373 112.425 34.2242C112.393 32.9699 112.527 31.8198 113.877 31.2615C115.111 30.7516 116.29 30.8236 117.294 31.7665C118.354 32.7627 118.51 34.022 118.082 35.3457C117.394 37.4648 115.218 38.5379 112.701 38.064C112.272 37.9833 111.832 37.9511 111.398 37.8952C111.346 37.9746 111.294 38.054 111.242 38.1334C111.591 38.5267 111.94 38.9188 112.098 39.0962C111.599 41.1916 110.974 43.127 110.702 45.112C110.146 49.1652 111.654 50.9853 115.928 51.4865C115.197 52.247 114.563 52.9082 113.927 53.5658C113.805 53.6911 113.65 53.7891 113.546 53.9268C112.188 55.7419 110.454 56.2133 108.231 55.7965C105.027 55.1972 101.84 54.6092 98.8615 53.2246C98.5451 53.077 98.1978 52.9492 97.9459 52.7222C97.5588 52.3723 97.2412 51.9455 96.8951 51.551C97.3219 51.2408 97.7375 50.9121 98.1792 50.623C98.761 50.2434 98.9719 50.6751 99.1816 51.113C99.4707 51.7172 99.7796 52.3115 100.079 52.907C100.32 52.7842 100.426 52.7569 100.427 52.7271C100.495 50.2235 102.618 49.3104 104.121 47.9097C105.085 47.0115 106.006 46.0661 106.921 45.1183C107.058 44.9681 107.067 44.6902 107.24 44.1555Z" fill="#EED3CA"/>
<path d="M56.1038 79.5569C55.0753 79.3609 54.6981 79.8212 52.2925 84.0332C51.9166 83.5444 52.032 83.1077 53.1709 81.1735C53.7143 80.2529 54.3247 79.3708 54.9177 78.4503C54.1076 78.2915 53.9364 78.3858 52.9079 79.712C52.4153 80.3472 51.9811 81.0296 51.4688 81.6499C52.0407 79.6351 53.7863 77.4913 55.6522 76.5968C57.2253 75.8425 58.8171 75.0906 60.4709 74.5497C63.3864 73.5944 66.024 72.1143 68.6504 70.5834C69.8886 69.8625 71.1416 69.1653 72.3934 68.4693C73.5559 67.8229 75.0881 68.2696 75.7183 69.4271C76.6898 71.2099 76.1923 74.4988 74.7221 75.8797C74.5546 76.0372 74.2941 76.1092 74.0646 76.1836C72.5373 76.6762 70.9717 77.0744 69.4903 77.6774C68.7236 77.99 67.8701 78.5185 67.4557 79.1947C65.9495 81.6474 63.663 82.9513 61.1048 83.9203C60.7947 84.0381 60.4014 83.9352 60.0466 83.9339C60.1942 83.589 60.2624 83.1635 60.5081 82.9154C60.9696 82.4501 61.5515 82.109 62.049 81.6772C62.4708 81.3112 62.843 80.8869 63.2189 80.5073C63.0353 80.2951 62.9856 80.1946 62.9447 80.1983C61.4795 80.3112 59.1049 82.2218 58.6868 83.6151C58.3146 84.8557 56.1844 86.3209 55.0418 86.0381C55.4624 83.9662 56.6782 82.3323 57.9883 80.7467C57.9312 80.6537 57.8742 80.5606 57.8171 80.4676C57.4065 80.6574 56.8444 80.738 56.6112 81.0569C55.6944 82.3174 54.8793 83.651 54.0332 84.9612C53.9426 85.1026 53.9004 85.2751 53.8136 85.4202C53.7888 85.4612 53.687 85.455 53.5195 85.4947C53.0828 84.3012 53.7763 83.3744 54.2751 82.4501C54.7999 81.4737 55.4562 80.5681 56.1038 79.5569Z" fill="#E9CFC6"/>
<path d="M102.967 112.549C103.335 110.75 103.685 109.034 104.054 107.223C103.536 106.805 103.157 107.254 102.981 107.735C102.503 109.033 102.116 110.365 101.659 111.795C100.535 112.112 100.133 111.786 100.47 110.46C100.777 109.254 101.234 108.086 101.623 106.901C101.736 106.557 101.841 106.209 101.789 105.786C100.125 107.052 99.8473 109.081 99.0111 111.015C98.0756 109.781 98.6984 108.715 99.0049 107.704C99.3336 106.615 99.8138 105.572 100.231 104.505C99.4627 104.362 99.2319 104.575 98.4875 106.218C98.1215 107.026 97.8027 107.853 97.3499 108.64C96.9764 106.573 97.2208 104.573 98.7369 103.064C99.8845 101.923 101.366 101.12 102.682 100.142C105.371 98.145 108.119 96.2183 110.697 94.0856C111.942 93.0547 113.042 93.1502 114.363 93.6253C115.793 94.1402 116.564 95.1997 116.562 96.6178C116.561 97.8411 116.204 99.0693 115.951 100.284C115.904 100.51 115.632 100.721 115.417 100.873C114.819 101.299 114.198 101.691 113.585 102.096C112.537 102.79 111.583 103.482 111.076 104.78C110.471 106.332 109.064 107.217 107.503 107.635C105.621 108.138 104.77 109.403 104.367 111.166C104.223 111.79 104.095 112.501 102.967 112.549Z" fill="#EED3CA"/>
<path d="M70.7679 154.114C70.3784 155.624 70.0571 156.824 69.7618 158.03C69.6377 158.538 69.5695 159.059 69.4677 159.574C69.0695 161.587 68.5968 161.943 66.3091 161.888C66.6776 161.166 67.0262 160.48 67.3748 159.795C67.3003 159.691 67.2259 159.587 67.1515 159.483C66.6217 159.767 65.9964 159.95 65.5796 160.352C64.4245 161.466 63.3117 162.633 62.2646 163.848C61.1343 165.162 59.761 165.908 58.0414 166.063C55.6817 166.275 53.3729 166.18 51.1695 165.163C50.4512 164.832 50.1993 164.45 50.4313 163.618C50.842 162.141 51.832 161.156 52.93 160.212C55.1917 158.267 55.2934 158.082 57.869 159.608C59.9582 160.846 61.5984 160.598 63.3985 159.241C65.2099 157.875 67.1093 156.625 68.9727 155.328C69.4777 154.974 69.9938 154.637 70.7679 154.114Z" fill="#D95E54"/>
<path d="M80.9759 169.805C80.5516 170.026 80.0851 170.192 79.7116 170.479C78.4375 171.453 77.2812 172.605 75.9264 173.44C72.7405 175.404 69.3622 175.6 65.8996 174.132C64.979 173.742 64.6999 173.141 64.9219 172.139C65.3822 170.059 66.5584 168.532 68.3151 167.427C68.5273 167.293 68.9962 167.356 69.2307 167.507C70.1401 168.09 71.0569 168.685 71.8671 169.394C72.6958 170.12 73.4811 170.232 74.4426 169.724C77.3755 168.173 80.3233 166.65 83.2648 165.115C83.5614 164.96 83.8517 164.794 84.4348 164.473C84.1668 165.858 83.972 166.945 83.7437 168.025C83.6209 168.605 83.4311 169.171 83.2884 169.748C82.8505 171.515 82.09 172.059 80.0665 171.965C80.4709 171.335 80.8505 170.742 81.2302 170.149C81.1458 170.033 81.0602 169.919 80.9759 169.805Z" fill="#D95E54"/>
<path d="M75.2304 158.494C77.9896 157.743 80.5937 157.034 83.1209 156.346C83.4385 158.406 83.7461 160.281 83.9955 162.163C84.0265 162.394 83.8106 162.783 83.5985 162.903C80.2053 164.823 76.7948 166.713 73.5083 168.541C72.223 167.622 71.1462 166.851 69.9961 166.03C70.8435 165.249 71.635 164.371 72.5692 163.692C74.352 162.394 75.1398 160.633 75.2304 158.494Z" fill="#EED3CA"/>
<path d="M79.8354 95.5543C78.7957 96.3495 77.7896 97.1944 76.709 97.9301C72.0529 101.105 67.5319 104.437 63.6053 108.519C61.1079 111.116 59.3276 114.042 58.5447 117.633C57.4741 122.541 56.0982 127.38 55.0077 132.285C54.5486 134.348 54.5151 136.503 54.2198 138.607C54.1094 139.392 53.8042 140.152 53.5871 140.922C53.3291 140.045 52.8105 139.154 52.8564 138.294C53.1231 133.295 53.932 128.374 55.355 123.562C56.2756 120.448 57.1167 117.309 58.1006 114.216C58.912 111.665 60.5918 109.634 62.361 107.678C65.7454 103.936 69.7787 101.004 73.9585 98.2452C75.1247 97.476 76.3219 96.7428 77.4186 95.8818C78.2126 95.2602 78.9595 95.1424 79.8354 95.5543Z" fill="#4D50A8"/>
<path d="M128.568 92.3646C128.508 91.6872 128.416 91.0111 128.398 90.3325C128.364 89.0918 128.48 87.84 128.347 86.6118C127.906 82.5449 127.356 78.4905 126.899 74.4262C126.377 69.7713 125.918 65.1102 125.413 60.454C125.32 59.5943 125.144 58.7445 125.006 57.8896C125.836 60.397 126.959 62.8485 127.439 65.4216C128.591 71.6025 129.483 77.8342 130.383 84.0598C130.596 85.5349 130.514 87.072 130.408 88.5683C130.302 90.0397 129.578 91.2902 128.568 92.3646Z" fill="#F9DFDD"/>
<path d="M56.4336 157.183C57.1681 156.451 57.9794 155.732 58.6829 154.921C59.524 153.951 60.261 152.892 61.0699 151.894C61.2336 151.691 61.5202 151.447 61.7435 151.453C63.5896 151.507 65.4444 151.531 67.2743 151.747C68.0224 151.835 68.7172 152.373 69.7407 152.846C66.6329 154.939 63.7559 156.896 60.8466 158.802C60.6146 158.953 60.1183 158.831 59.8007 158.7C58.6779 158.231 57.5799 157.704 56.4336 157.183Z" fill="#E9CFC6"/>
<path d="M126.982 101.184C126.709 102.584 126.508 103.706 126.256 104.816C126.21 105.018 125.986 105.227 125.791 105.34C121.714 107.709 117.63 110.065 113.543 112.426C112.829 111.681 112.139 110.962 111.398 110.189C116.468 107.259 121.595 104.296 126.982 101.184Z" fill="#EBBAB4"/>
<path d="M87.6591 77.9949C87.6467 80.2256 87.6492 82.4563 87.6057 84.6869C87.5995 85.0045 87.3688 85.3172 87.2422 85.6323C87.0636 83.589 86.9259 81.5419 86.6964 79.5035C86.2361 75.4106 85.5512 71.2992 86.684 67.2373C87.4172 64.6059 88.4655 62.0625 89.3761 59.4808C89.4903 59.157 89.6181 58.8369 89.7397 58.5156C90.0337 58.3245 90.3277 58.1334 90.6217 57.9424C90.7297 58.4175 91.0163 58.9362 90.9146 59.3617C90.4481 61.3219 89.8563 63.2511 89.3427 65.2002C88.6963 67.6517 87.9928 70.0932 87.4953 72.577C87.2534 73.7879 87.4234 75.0819 87.406 76.3386C87.3626 76.9093 87.8613 77.3994 87.6591 77.9949Z" fill="#F9DFDD"/>
<path d="M79.8402 62.9341C79.5511 62.9998 79.2621 63.0656 78.9718 63.1313C78.7844 61.454 79.6156 60.3411 80.7322 59.1402C83.077 56.6217 85.134 53.8364 87.4019 51.2435C88.3969 50.1058 89.6227 49.1679 90.743 48.1406C90.6139 48.4793 90.5532 48.8701 90.3435 49.1493C87.9267 52.3625 85.4839 55.5547 83.0584 58.7618C82.5187 59.4764 82.0225 60.2245 81.422 61.0756C82.7458 61.6289 83.4443 62.4837 83.1751 63.8732C82.36 63.9551 81.9158 63.2405 81.2595 62.9762C80.7806 62.7802 80.3303 62.4614 79.8402 62.9341Z" fill="#F9DFDD"/>
<path d="M104.449 117.661C104.942 115.111 105.952 113.213 108.186 112.026C109.914 111.108 111.002 111.409 111.892 113.385C109.471 114.776 107.043 116.171 104.449 117.661Z" fill="#212492"/>
<path d="M108.318 57.5458C105.243 59.7516 98.8455 58.8919 97.5391 54.6836C99.2636 55.2543 101.007 55.9218 102.801 56.4006C104.57 56.8733 106.39 57.155 108.318 57.5458Z" fill="white"/>
<path d="M81.1294 66.0419C80.4879 66.9389 79.7473 66.5878 78.9421 66.2863C78.0228 65.9414 77.0576 65.5419 76.106 65.5208C75.4683 65.5072 74.8157 66.1101 74.1706 66.4377C73.9671 66.4079 73.7637 66.3769 73.5602 66.3471C73.3468 66.2925 73.1061 66.2925 72.9746 66.0655C73.5639 65.4414 74.0738 64.7045 74.7624 64.2231C75.4844 63.7182 76.3988 63.4986 77.1866 63.0743C77.7163 62.7877 78.1431 62.8063 78.586 63.176C78.9384 63.5172 79.2895 63.8571 79.6418 64.1983C79.983 64.9365 81.004 65.1263 81.1294 66.0419Z" fill="#F9DFDD"/>
<path d="M115.98 86.9107C115.403 86.5968 114.825 86.2842 114.248 85.9703C114.552 85.7197 114.855 85.4691 115.159 85.2197C116.241 85.2346 117.324 85.2495 118.405 85.2632C119.227 85.9182 120.276 85.9604 121.207 86.319C121.914 86.5907 122.794 86.6254 123.12 87.5186C122.797 87.6055 122.465 87.7928 122.156 87.7606C121.415 87.6824 120.686 87.5 119.951 87.3598C119.634 87.6204 119.314 87.5124 118.994 87.3698C118.794 87.2569 118.582 87.2321 118.357 87.2817C118.023 87.3264 117.724 87.206 117.427 87.0832C117.082 86.912 116.726 86.9628 116.37 87.0398C116.222 87.0497 116.09 87.0125 115.98 86.9107Z" fill="#F9DFDD"/>
<path d="M104.037 15.0458C104.646 14.1414 105.107 14.0149 105.977 14.6116C106.22 14.7778 106.334 15.1314 106.507 15.3994C106.193 15.4652 105.881 15.5495 105.565 15.5855C105.451 15.5979 105.324 15.4937 105.156 15.423C104.873 16.418 104.203 16.4068 103.429 16.1066C103.408 16.2381 103.409 16.3473 103.372 16.4416C103.169 16.9477 102.957 17.4502 102.749 17.9526C102.251 17.5879 101.725 17.2554 101.274 16.8398C101.139 16.7157 101.215 16.3609 101.196 16.1115C101.431 16.1922 101.682 16.2455 101.897 16.3646C102.07 16.4614 102.201 16.6363 102.369 16.7951C102.599 14.6091 102.599 14.6091 104.037 15.0458Z" fill="white"/>
<path d="M57.7933 167.837C57.5192 168.71 56.9236 169.044 56.0143 169.108C54.4275 169.22 52.9834 168.948 51.7514 167.899C51.476 167.664 51.2862 167.329 51.0566 167.04C53.2501 167.745 55.4982 167.999 57.7933 167.837Z" fill="#333333"/>
<path d="M101.931 19.1988C100.072 18.9742 98.2982 16.7981 98.8043 15.7324C99.7931 16.8304 100.783 17.9271 101.931 19.1988Z" fill="white"/>
<path d="M88.1849 15.5534C87.8412 15.9392 87.6601 16.1439 87.4405 16.3908C87.5546 16.4256 87.639 16.438 87.7097 16.4752C87.9553 16.6054 88.1973 16.7444 88.4404 16.8809C88.2854 17.1414 88.1861 17.4999 87.9566 17.6315C87.7754 17.7344 87.4256 17.5831 87.1688 17.4938C87.0708 17.4603 86.9852 17.1811 86.9517 17.1923C86.3797 17.3771 85.9592 17.2953 86.3003 16.6129C86.6155 15.9827 87.0224 15.2755 88.1849 15.5534Z" fill="white"/>
<path d="M122.743 47.1656C122.732 47.1333 122.702 47.0887 122.713 47.0688C123.006 46.5329 124.689 45.9088 125.144 46.2091C125.35 46.3443 125.459 46.6309 125.612 46.848C125.388 46.9435 125.165 47.039 124.94 47.1333C124.754 47.2115 124.484 47.2326 124.393 47.3715C124.007 47.9633 123.65 47.8691 123.262 47.4001C123.036 47.4386 122.867 47.3517 122.743 47.1656Z" fill="white"/>
<path d="M129.835 55.0653C129.351 55.3916 128.508 54.7092 128.418 55.7141C128.186 55.6844 127.871 55.7365 127.74 55.605C127.516 55.3804 127.407 55.0405 127.111 54.4933C128.158 54.8891 129.156 53.574 129.835 55.0653Z" fill="white"/>
<path d="M122.743 47.1655C122.915 47.2437 123.087 47.3206 123.26 47.3988C123.21 47.7127 123.159 48.0253 123.11 48.3392C122.831 48.2002 122.524 48.0972 122.28 47.9136C122.007 47.7077 121.79 47.4285 121.672 46.9844C122.029 47.0439 122.386 47.1047 122.743 47.1655Z" fill="white"/>
<path d="M121.46 39.1975C121.616 38.9234 121.774 38.6492 121.931 38.375C122.343 38.7608 123.015 38.9904 122.812 39.8129C122.319 39.5834 121.877 39.3762 121.434 39.1702L121.46 39.1975Z" fill="white"/>
<path d="M121.432 39.1706C121.464 39.8021 121.251 40.0763 120.704 39.5788C120.411 39.3133 120.227 38.9275 119.994 38.5962C120.079 38.5143 120.162 38.4325 120.246 38.3506C120.65 38.6322 121.055 38.9151 121.459 39.1967L121.432 39.1706Z" fill="white"/>
<path d="M85.7852 29.8637C85.7852 28.2087 85.7852 26.5525 85.7852 24.8975C85.8199 24.8975 85.8559 24.8987 85.8906 24.8987C85.8906 26.5624 85.8906 28.2261 85.8906 29.891C85.8559 29.8811 85.8211 29.8724 85.7852 29.8637Z" fill="black"/>
<path d="M107.074 12.751C107.616 13.1529 108.082 13.4991 108.549 13.8452C107.39 14.1244 106.979 13.7782 107.074 12.751Z" fill="white"/>
<path d="M72.9727 66.0645C73.1674 66.1587 73.3635 66.2518 73.5582 66.3461C73.3635 66.2518 73.1687 66.1587 72.9727 66.0645Z" fill="#F2BFBB"/>
<path d="M68.9023 178.608C69.3291 178.732 69.7559 178.857 70.1814 178.981C69.7547 178.857 69.3279 178.732 68.9023 178.608Z" fill="#EED3CA"/>
<path d="M59.6605 121.19C59.6953 120.928 59.73 120.666 59.7772 120.321C63.8105 127.084 67.788 133.753 71.7643 140.42C71.6911 140.481 71.6179 140.541 71.5447 140.602C70.0807 138.75 68.618 136.896 67.154 135.044C67.0175 135.012 66.9146 134.929 66.829 134.822L66.8414 134.833C66.7061 134.721 66.7409 134.525 66.6255 134.404L66.6292 134.408C66.4071 134.25 66.3612 133.975 66.2062 133.772L66.2086 133.775C64.932 132.243 63.9978 130.488 63.0363 128.758C61.8862 126.688 60.8106 124.579 59.895 122.392C59.735 122.009 59.5303 121.631 59.6605 121.19Z" fill="black"/>
<path d="M59.661 121.189C61.7316 125.136 63.8035 129.081 65.8716 133.029C65.9982 133.27 66.0962 133.526 66.2078 133.775C66.0304 133.694 65.7935 133.66 65.6843 133.524C62.9946 130.142 60.8408 126.455 59.4637 122.344C59.3558 122.018 59.5878 121.577 59.661 121.189Z" fill="#4D50A8"/>
<path d="M65.5661 125.692C65.2572 125.301 64.9483 124.91 64.6406 124.52C65.1071 124.632 65.6096 124.671 66.0351 124.873C67.3825 125.512 68.7112 126.194 70.025 126.902C70.2694 127.033 70.4146 127.351 70.6044 127.583C70.3861 127.699 70.1664 127.815 69.9481 127.931C69.8278 128.009 69.6851 128.064 69.5561 128.003C68.1579 127.349 66.6418 126.899 65.5661 125.692Z" fill="black"/>
<path d="M65.5664 125.692C67.0266 126.438 68.4869 127.185 69.9471 127.93C69.8504 128.133 69.7685 128.5 69.6556 128.51C68.6593 128.594 65.884 126.648 65.5664 125.692Z" fill="#4D50A8"/>
<path d="M66.2051 133.772C66.3465 133.985 66.4867 134.196 66.6281 134.408C66.4879 134.196 66.3465 133.983 66.2051 133.772Z" fill="#4D50A8"/>
<path d="M66.8281 134.82C66.9366 134.895 67.0462 134.97 67.1547 135.043C67.0462 134.97 66.9378 134.895 66.8281 134.82Z" fill="#4D50A8"/>
<path d="M87.659 77.9954C87.5932 77.4396 86.7235 77.0078 87.4071 76.3379C89.0981 78.3167 90.8028 80.2856 92.4752 82.2793C93.4813 83.479 94.4267 84.7296 95.4304 85.933C95.6338 86.1762 95.9713 86.3077 96.2467 86.4913C96.2777 86.5161 96.3087 86.541 96.3398 86.5645C96.3857 86.6303 96.4167 86.7022 96.434 86.7804C96.4316 86.8201 96.4291 86.8598 96.4254 86.8995C97.0345 87.6637 97.6437 88.4279 98.2528 89.1922C98.1635 89.3001 98.0742 89.4081 97.9861 89.516C97.5258 89.2307 97.0234 88.9937 96.6102 88.65C93.7245 86.2581 91.6005 83.1999 89.3549 80.2497C88.7855 79.5015 88.2247 78.7472 87.659 77.9954Z" fill="black"/>
<path d="M99.1801 94.6908C97.9445 94.8917 87.4486 90.4577 87.0156 89.4912C91.2921 91.0532 95.6493 91.8596 99.1801 94.6908Z" fill="black"/>
<path d="M123.12 87.5182C121.814 87.0294 120.496 86.5692 119.209 86.0344C118.889 85.9017 118.67 85.527 118.404 85.264C120.485 84.795 122.296 85.4637 123.933 86.6709C124.32 86.9562 124.497 87.5244 124.77 87.9636C124.667 88.043 124.564 88.1224 124.46 88.2018C124.014 87.9736 123.567 87.7453 123.12 87.5182Z" fill="black"/>
<path d="M122.664 89.6148C122.705 89.8915 122.805 90.1806 122.753 90.4374C122.734 90.5304 122.311 90.6483 122.133 90.585C120.691 90.0739 119.248 89.5615 117.844 88.9585C117.436 88.7836 116.813 88.4846 117.238 87.7737C117.411 87.538 117.659 87.5455 117.902 87.5901C119.638 87.9127 121.272 88.4796 122.664 89.6148Z" fill="#F9DFDD"/>
<path d="M96.2471 86.4914C96.2471 86.2222 96.2471 85.953 96.2471 85.4443C98.4642 86.7929 100.355 88.2234 101.985 89.9814C101.921 90.098 101.855 90.2159 101.79 90.3325C101.334 90.1216 100.829 89.9777 100.432 89.6861C99.34 88.8809 98.3041 88.0013 97.2248 87.1812C97.0101 87.0187 96.695 86.9889 96.427 86.8984L96.4456 86.9095C96.3265 86.7842 96.36 86.5833 96.2285 86.4642L96.2471 86.4914Z" fill="black"/>
<path d="M122.664 89.6156C122.437 89.556 122.17 89.5535 121.99 89.4282C120.558 88.427 118.936 88.0002 117.238 87.7757C116.773 87.5548 115.947 87.8601 115.982 86.911C116.119 86.8886 116.258 86.8663 116.396 86.8427C116.747 86.7832 117.098 86.7484 117.445 86.8675C117.795 86.932 118.145 86.9966 118.494 87.0598C118.639 86.999 118.782 86.9941 118.917 87.0871C119.262 87.1777 119.607 87.2683 119.953 87.3588C120.656 87.7099 121.411 87.9891 122.041 88.4407C122.362 88.6727 122.463 89.2148 122.664 89.6156Z" fill="black"/>
<path d="M79.8409 62.9336C79.7925 62.0242 80.3334 62.1756 80.821 62.4423C81.6262 62.8827 82.3942 63.3914 83.1782 63.8715C83.4512 64.307 83.7241 64.7425 83.9971 65.1792C83.4835 65.0501 82.9041 65.0303 82.4674 64.7697C81.553 64.2238 80.7131 63.5527 79.8409 62.9336Z" fill="black"/>
<path d="M81.1313 66.0421C80.7815 65.7357 80.3919 65.4627 80.0942 65.1116C79.8808 64.861 79.789 64.5062 79.6426 64.1973C80.851 64.3188 82.6201 65.8523 83.0233 67.3683C82.2628 66.8349 81.6971 66.4379 81.1313 66.0421Z" fill="black"/>
<path d="M96.203 94.8114C95.5144 95.1799 94.4164 94.8499 93.7676 94.0819C94.4834 93.7383 95.4586 94.0298 96.203 94.8114Z" fill="black"/>
<path d="M96.7734 33.5195C97.3739 33.584 97.9607 33.6287 98.5426 33.7143C99.6294 33.8744 100.008 34.7192 100.181 35.6224C100.361 36.5542 100.18 37.4784 99.3093 38.0305C98.5612 38.5045 97.4273 37.9003 97.1729 36.8048C96.9285 35.7577 96.9025 34.6572 96.7734 33.5195Z" fill="black"/>
<path d="M89.2275 32.9404C89.0427 32.5348 88.8404 32.1353 88.6792 31.7197C88.6159 31.5559 88.6109 31.3487 88.6494 31.1788C88.6605 31.1329 88.9335 31.1217 89.0811 31.1378C89.4843 31.1813 89.9595 31.1304 90.2721 31.3276C90.885 31.7135 91.6989 32.1489 91.8899 32.7382C92.117 33.438 91.9507 34.4032 91.6319 35.1066C91.287 35.8659 90.1047 35.8274 89.6171 35.0756C89.2412 34.4962 89.1035 33.7618 88.8591 33.0968C88.9819 33.0434 89.1047 32.9926 89.2275 32.9404Z" fill="black"/>
<path d="M95.7326 38.3018C96.5539 38.7856 97.3913 39.2446 98.1866 39.7694C98.369 39.8898 98.4025 40.2359 98.5042 40.4778C98.271 40.5386 98.0278 40.5758 97.8082 40.6689C97.5501 40.7768 97.2908 40.9021 97.07 41.0721C95.3257 42.4157 92.5764 41.8773 91.5293 39.7285C91.8866 39.8724 92.26 39.9866 92.6 40.164C94.0478 40.9183 95.446 40.917 96.8752 39.9394C96.3753 39.4779 95.9224 39.061 95.4708 38.6442C95.5577 38.5288 95.6445 38.4147 95.7326 38.3018Z" fill="black"/>
<path d="M115.926 35.6924C115.5 35.2259 115.074 34.7594 114.655 34.3004C114.553 34.3537 114.482 34.3723 114.438 34.417C114.114 34.7495 114.013 35.5832 113.342 35.1167C113.144 34.9778 113.238 34.1527 113.439 33.7669C113.75 33.1689 114.197 32.5883 114.723 32.1727C115.152 31.834 115.791 31.6565 116.346 32.3798C115.872 32.7012 115.438 32.9965 115.026 33.2756C115.475 34.0299 115.894 34.7334 116.313 35.4368C116.186 35.5212 116.055 35.6068 115.926 35.6924Z" fill="black"/>
<path d="M101.312 32.8867C100.981 32.8867 100.762 32.9562 100.651 32.8756C99.5404 32.0902 98.3159 31.8545 96.981 31.9996C96.8172 32.017 96.5492 31.7949 96.4674 31.62C96.4066 31.4885 96.5554 31.0952 96.6336 31.089C97.6472 31.0072 98.6869 30.8248 99.6744 30.9736C100.537 31.1027 101.214 31.7255 101.312 32.8867Z" fill="black"/>
<path d="M92.5062 30.6726C92.2246 30.7347 91.9119 30.9071 91.6675 30.8376C90.7805 30.5833 89.9058 30.2768 89.0585 29.9146C88.9183 29.855 88.9381 29.4183 88.8848 29.1565C89.613 29.0858 90.3909 28.8253 91.0546 29.0015C91.6365 29.1553 92.0893 29.7967 92.598 30.2223C92.567 30.3724 92.5372 30.5225 92.5062 30.6726Z" fill="black"/>
<path d="M94.1767 33.7487C93.7052 34.632 93.3367 35.3417 92.9484 36.0402C92.7115 36.4657 92.4733 36.8999 92.1693 37.2758C92.0539 37.4185 91.7512 37.4483 91.5353 37.4446C91.4671 37.4433 91.3033 37.1034 91.353 37.0227C92.0366 35.9099 92.7475 34.8132 93.4658 33.7226C93.4943 33.678 93.663 33.7251 94.1767 33.7487Z" fill="black"/>
<path d="M93.5808 42.5439C94.4505 42.6308 95.3202 42.7176 96.1899 42.8045C96.2221 42.9223 96.2544 43.0389 96.2867 43.1568C95.7954 43.3007 95.2941 43.5836 94.8152 43.5513C94.3326 43.5191 93.8699 43.1754 93.3984 42.9682C93.4592 42.8268 93.52 42.6854 93.5808 42.5439Z" fill="black"/>
<path d="M117.444 86.8676C117.094 86.8589 116.744 86.8515 116.395 86.8428C116.744 86.8515 117.094 86.8601 117.444 86.8676Z" fill="#F2BFBB"/>
<path d="M118.919 87.088C118.777 87.0792 118.636 87.0693 118.494 87.0605C118.635 87.0693 118.777 87.0792 118.919 87.088Z" fill="#F2BFBB"/>
</svg>
