<svg width="80" height="80" viewBox="0 0 80 80" xmlns="http://www.w3.org/2000/svg"><g transform="translate(12)" fill="none" fill-rule="evenodd"><path d="M46.813 50.303H17.96a.765.765 0 01-.773-.773v-25.9a.765.765 0 01.773-.773h28.853a.765.765 0 01.774.774V49.53a.765.765 0 01-.774.773zm-28.079-1.547H46.04V24.404H18.734v24.352z" fill="#C5D1E4" fill-rule="nonzero"/><path d="M40.642 50.303a.774.774 0 01-.774-.773v-25.9a.774.774 0 011.547 0v25.9a.765.765 0 01-.773.773zm-6.145 0a.765.765 0 01-.774-.773v-25.9a.774.774 0 011.547 0v25.9a.765.765 0 01-.773.773z" fill="#C5D1E4" fill-rule="nonzero"/><path d="M46.813 30.224H17.96a.774.774 0 110-1.547h28.853a.774.774 0 110 1.547zm0 7.13H17.96a.774.774 0 010-1.547h28.853a.774.774 0 010 1.547zm0 7.13H17.96a.774.774 0 110-1.548h28.853a.774.774 0 010 1.548zM31.393 12.43H17.451a.703.703 0 010-1.397h13.942a.703.703 0 010 1.398zm0 4.133H17.451a.695.695 0 110-1.39h13.942a.695.695 0 110 1.39z" fill="#C5D1E4" fill-rule="nonzero"/><path d="M13.45 17.407h-2.558V3.763A2.778 2.778 0 0113.916.72h20.888c.404.036.783.21 1.073.492 5.934 5.908 11.833 11.833 17.75 17.723a2.95 2.95 0 01.949 2.312c-.07 4.81-.07 9.618-.07 14.427v19.534c0 2.224-1.108 3.358-3.297 3.358h-11.57c.546-.73.968-2.242 1.477-2.796a1.43 1.43 0 01.88-.342h7.753c1.759 0 2.497.158 2.497-1.644V21.178c0-1.002-.237-1.336-1.283-1.319-4.106.062-8.22 0-12.308 0-2.154 0-3.288-1.107-3.288-3.244V3.965c0-.88-.272-1.125-1.134-1.125H15.947c-1.758 0-2.532.738-2.532 2.505V17.39l.036.018z" fill="#C5D1E4" fill-rule="nonzero"/><path d="M52.035 21.16c0-1.002-.237-1.336-1.283-1.318-4.106.061-7.912 0-12.062 0-2.154 0-3.288-1.108-3.288-3.244V3.948c0-.88-.272-1.126-1.134-1.126H15.675c-1.565.088-2.224.835-2.224 2.497v12.044h0-2.559v-13.6A2.778 2.778 0 0113.916.72h20.897c.404.036.783.21 1.073.492 5.925 5.908 11.824 11.833 17.74 17.723.644.592.992 1.439.95 2.312-.07 4.81-.07 9.618-.07 14.427v19.534c0 2.224-1.108 3.358-3.297 3.358h-11.57c.546-.73.968-2.242 1.477-2.796a1.43 1.43 0 01.88-.342h7.49c1.802 0 2.496.158 2.496-1.644l.053-32.625z" stroke="#000" stroke-width="1.5" stroke-linecap="round" stroke-linejoin="round"/><path d="M26.101 58.567H13.916a3.015 3.015 0 01-3.015-2.919V36.44h2.558v17.45c0 1.662.721 1.503 2.392 1.512 2.373 0 4.747.08 7.112 0 1.072 0 1.758 1.17 2.259 2.04.211.325.501.633.88 1.125z" fill="#A0A0A0" fill-rule="nonzero"/><path d="M13.46 36.44v17.45c0 1.662.72 1.503 2.39 1.512 2.374 0 4.748.08 7.113 0 1.072 0 1.758 1.17 2.259 2.04.211.351.501.66.88 1.151h-12.45a2.796 2.796 0 01-2.75-2.918V36.44h2.557z" stroke="#000" stroke-width="1.5" stroke-linecap="round" stroke-linejoin="round"/><path d="M36.132 62.013V49.231a.791.791 0 00-.791-.8h-4.783a.8.8 0 00-.8.8v12.765h-3.156a.8.8 0 00-.65 1.257l6.338 8.984a.791.791 0 001.292 0c2.12-2.997 4.22-6.004 6.365-8.94a.8.8 0 00-.65-1.257l-3.165-.027z" fill="#ED1D24" fill-rule="nonzero"/><path d="M36.132 62.013V49.231a.791.791 0 00-.791-.8h-4.783a.8.8 0 00-.8.8v12.765h-3.156a.8.8 0 00-.65 1.257l6.338 8.984a.791.791 0 001.292 0c2.12-2.997 4.22-6.004 6.365-8.94a.8.8 0 00-.65-1.257l-3.165-.027z" stroke="#000" stroke-width="1.5" stroke-linecap="round" stroke-linejoin="round"/><path d="M32.334 76.914a.66.66 0 011.09.018c.067.105.1.227.097.352.088 1.758.097 1.89-.14 2.136a.668.668 0 01-1.108-.457v-1.636a.65.65 0 01.061-.386m3.965-2.681a.738.738 0 01.202-.203.703.703 0 01.58 0l1.89.739a.668.668 0 01-.307 1.3.668.668 0 01-.185-.07l-1.89-.738a.668.668 0 01-.325-.88l.061-.113-.026-.036zm-8.317-.141a.668.668 0 01.326-.229.65.65 0 01.29 0 .712.712 0 01.272.158.668.668 0 010 .932c-1.23 1.301-1.53 1.662-1.881 1.635a.668.668 0 01-.413-1.134l1.406-1.362z" fill="#000" fill-rule="nonzero"/><rect fill="#FAFAFA" fill-rule="nonzero" x=".642" y="20.633" width="22.321" height="13.029" rx="1.43"/><rect stroke="#000" stroke-linecap="round" stroke-linejoin="round" x=".642" y="20.633" width="22.321" height="13.029" rx="1.43"/><text fill="#FAFAFA" fill-rule="nonzero" font-family="Arial-BoldMT, Arial" font-size="9.63" font-weight="bold"><tspan x="3.068" y="31.611">3M</tspan> <tspan x="3.068" y="42.926">B</tspan></text><path d="M8.187 30.506l-.06-.17h-.31l-.06.17h-.1l.27-.73h.11l.27.73h-.12zm-.18-.51l-.06-.09a.76.76 0 010 .11l-.09.26h.26l-.11-.28zm1.171.422v-.308c0-.062 0-.106-.08-.106-.078 0-.131.07-.131.185v.229h-.088v-.308c0-.053 0-.106-.079-.106-.08 0-.132.08-.132.185v.229H8.58v-.475h.088v.097a.176.176 0 01.167-.106.123.123 0 01.132.106.167.167 0 01.158-.106c.088 0 .14.044.14.158v.326h-.087zm.69-.214h-.36c0 .15.06.21.18.21.05.01.1.01.15 0v.08a.48.48 0 01-.18 0c-.17 0-.26-.09-.26-.28a.25.25 0 01.25-.28c.15 0 .21.1.21.23m-.22-.2a.14.14 0 00-.13.13h.25a.12.12 0 00-.12-.13m.912.454v-.308c0-.062 0-.106-.08-.106-.079 0-.132.07-.132.185v.229h-.087v-.308c0-.053 0-.106-.07-.106-.071 0-.133.08-.133.185v.229H9.96v-.475h.08a.36.36 0 010 .097.176.176 0 01.158-.106c.105 0 .132.07.132.106a.185.185 0 01.167-.106c.088 0 .14.044.14.158v.326h-.088zm.47.102h-.18v-.78h.1v.36a.19.19 0 01.18-.12c.12 0 .19.09.19.25a.27.27 0 01-.28.31m.06-.48c-.09 0-.14.12-.14.21v.18h.09c.1 0 .17-.06.17-.22s0-.18-.12-.18m.722.154h-.37c0 .15.06.21.17.21a.38.38 0 00.16 0v.08a.52.52 0 01-.18 0c-.17 0-.26-.09-.26-.28a.25.25 0 01.24-.28.21.21 0 01.22.23m-.21-.2a.16.16 0 00-.14.13h.26a.12.12 0 00-.12-.13m.568.058c-.097 0-.15.053-.15.202v.194h-.088v-.475H12v.114a.15.15 0 01.158-.123l-.009.088zm.565.472c-.14 0-.24-.08-.24-.27a.27.27 0 01.27-.29c.13 0 .24.08.24.27a.27.27 0 01-.27.29m0-.48c-.08 0-.16.06-.16.2s.06.2.16.2.15-.07.15-.2-.05-.2-.15-.2m.639-.221h-.07c-.07 0-.106 0-.106.123h.132v.07h-.123v.405h-.088v-.404h-.097v-.07h.097c0-.132.061-.194.176-.194h.079v.07zm.475.633c-.097 0-.124 0-.124-.14v-.273h-.096v-.07h.096v-.15h.088v.176h.132v.07h-.132v.238c0 .079 0 .105.062.105h.07v.07h-.096m.545-.034v-.308c0-.062 0-.106-.088-.106s-.132.08-.132.185v.229h-.088v-.695h.088v.22a.325.325 0 010 .097.176.176 0 01.167-.106c.114 0 .14.07.14.15v.334h-.087zm.69-.214h-.35c0 .15.05.21.17.21.05.01.1.01.15 0v.08a.48.48 0 01-.18 0c-.17 0-.26-.09-.26-.28a.25.25 0 01.25-.28c.15 0 .21.1.21.23m-.22-.2a.14.14 0 00-.13.13h.29a.12.12 0 00-.12-.13m.814.553c-.22 0-.33-.15-.33-.37a.35.35 0 01.35-.38c.2 0 .33.12.33.37a.35.35 0 01-.35.38m0-.67c-.12 0-.23.1-.23.29 0 .19.07.29.23.29s.23-.09.23-.28c0-.19-.08-.3-.23-.3m.672.579c-.202 0-.29-.131-.29-.316a.299.299 0 01.317-.343h.15v.08h-.141c-.15 0-.211.113-.211.254 0 .14.07.246.22.246a.255.255 0 00.14 0v.08a.352.352 0 01-.176 0m.524.079h-.19v-.73h.22c.16 0 .24.07.24.18a.18.18 0 01-.14.17.17.17 0 01.15.17c0 .09 0 .22-.28.22m0-.66h-.1v.23h.07c.12 0 .18-.04.18-.12 0-.07 0-.12-.15-.12m0 .32h-.09v.26h.1c.12 0 .17-.06.17-.14 0-.08-.09-.12-.2-.12m.709.26a.281.281 0 01-.298-.316.299.299 0 01.316-.343h.15v.123h-.168c-.149 0-.21.114-.21.255 0 .14.07.246.22.246a.255.255 0 00.14 0v.08a.396.396 0 01-.176 0m1.02-.581a.571.571 0 00-.176 0 .237.237 0 00-.246.264.229.229 0 00.246.246c.035.01.07.01.105 0v-.237h.088v.299a.563.563 0 01-.21 0 .29.29 0 01-.317-.317.325.325 0 01.343-.343.668.668 0 01.184 0l-.017.088zm.439.132c-.096 0-.14.053-.14.202v.194h-.088v-.475h.079a.58.58 0 010 .114.158.158 0 01.167-.123l-.018.088zm.356.472c-.15 0-.25-.08-.25-.27a.27.27 0 01.27-.29c.14 0 .24.08.24.27a.27.27 0 01-.26.29m0-.48c-.08 0-.15.06-.15.2s.05.2.15.2c.1 0 .15-.07.15-.2s-.05-.2-.15-.2m.629.404v-.097a.176.176 0 01-.167.105.132.132 0 01-.14-.15v-.333h.087v.308c0 .07 0 .105.08.105.078 0 .131-.08.131-.185v-.228h.088v.475H20zm.463.013h-.09v.27h-.1v-.81h.09a.41.41 0 010 .11.17.17 0 01.18-.12c.12 0 .2.09.2.25a.27.27 0 01-.28.3m0-.47c-.09 0-.14.11-.14.21v.17h.09c.11 0 .17-.06.17-.22s0-.18-.12-.18" fill="#636466" fill-rule="nonzero"/><path d="M16.536 26.163a.37.37 0 00.343-.414v-.369l-.176.115c-.281.131-.43.202-.43.413a.255.255 0 00.29.263m.386.167c0-.131 0-.228-.061-.228-.062 0 0 0 0 0a.475.475 0 01-.448.255.413.413 0 01-.466-.405c0-.325.43-.457.677-.571.246-.114.272-.105.272-.343 0-.237-.07-.325-.299-.325-.228 0-.21.352-.457.352-.08 0-.14 0-.14-.132 0-.246.386-.334.676-.334.29 0 .501.061.501.298v.81a.88.88 0 00.106.588l-.36.035zm.967-.43v-1.1a.571.571 0 00.414-.184h-.414v-.519l-.263.07v.44h-.185v.176h.185v1.134c0 .229.088.387.334.387a.44.44 0 00.325-.15v-.158a.43.43 0 01-.228.088c-.15 0-.176-.096-.176-.22m-1.978 2.761v-1.099a.607.607 0 00.413-.185h-.413v-.518l-.273.07v.457h-.176v.176h.176v1.134c0 .229.088.387.334.387a.44.44 0 00.325-.15v-.158a.404.404 0 01-.228.088c-.15 0-.167-.097-.167-.22m-3.024-4.272a1.134 1.134 0 00-.765-.273.88.88 0 00-.88 1.011c0 .686.308 1.126 1.038 1.126.094.008.188.008.281 0a1.38 1.38 0 000-.378v-.185c.014-.12.014-.24 0-.36 0-.07-.087-.07-.184-.115h.554v.88c-.01.105-.01.21 0 .316a4.615 4.615 0 01-.8.061c-.8 0-1.319-.342-1.319-1.169 0-.826.642-1.292 1.494-1.292.185 0 .379 0 .572.044l.009.334zm.501.914c0-.264 0-.51-.097-.589h.317c.061 0 0 .185.061.185.062 0 .15-.238.387-.238.237 0 .21.053.21.141s0 .123-.13.123h-.256c-.193 0-.21.132-.21.29v.756a.88.88 0 00.06.396h-.413a.738.738 0 00.07-.396v-.668zm1.688-.114c.184 0 .281 0 .281-.14a.281.281 0 00-.29-.282c-.237 0-.343.22-.387.422h.396zm-.422.105c-.005.07-.005.141 0 .211 0 .334.158.668.554.668a.66.66 0 00.457-.175c0 .193-.317.369-.598.369-.492 0-.73-.43-.73-.88a.791.791 0 01.791-.878.527.527 0 01.58.474c0 .167-.122.167-.36.167l-.694.044zm-3.42 3.614h.457a.967.967 0 00.65-.211l-.043.36h-1.486a.95.95 0 00.088-.484v-1.38a.967.967 0 00-.08-.483h1.328v.29a.88.88 0 00-.562-.14h-.37v.878h.88c-.132.211-.58.211-.81.211H11.2l.044.959zm1.943 0a.36.36 0 00.343-.405v-.325l-.203.097c-.28.131-.43.21-.43.422 0 .21.123.254.29.254m.387.168c0-.132 0-.22-.062-.22a.457.457 0 01-.44.255.422.422 0 01-.474-.413c0-.317.43-.449.686-.563.254-.114.263-.114.263-.352 0-.237-.07-.316-.29-.316-.36 0-.21.351-.457.351a.123.123 0 01-.14-.131c0-.247.377-.335.667-.335.29 0 .502.062.502.3v.808a.985.985 0 00.105.59l-.36.026zm1.679-.528c0 .352-.343.528-.668.528a1.17 1.17 0 01-.422-.088.07.07 0 01-.062-.08v-.263c.123.184.211.299.466.299s.352-.106.352-.317c0-.448-.748-.378-.748-.879 0-.281.22-.396.572-.396.117-.012.235-.012.352 0h.043v.247c-.149-.176-.22-.211-.395-.211-.176 0-.281.061-.281.22 0 .439.782.386.782.879m2.004-.642c.185 0 .29 0 .29-.14a.281.281 0 00-.29-.273c-.237 0-.343.22-.386.413h.386zm-.404.114a1.442 1.442 0 000 .202c0 .343.158.668.554.668a.633.633 0 00.457-.175c0 .193-.325.378-.598.378-.501 0-.73-.44-.73-.88a.791.791 0 01.792-.879.51.51 0 01.571.466c0 .176-.123.176-.36.176l-.686.044zm1.389 0c0-.255 0-.51-.097-.589h.317c.07 0 0 .185.07.185s.14-.22.36-.22c.22 0 .212.053.212.14 0 .088 0 .124-.132.124h-.238c-.193 0-.21.131-.21.29v.756a.756.756 0 00.07.404h-.422a.756.756 0 00.07-.404v-.686zm1.407-.606v.184a.791.791 0 01.492-.22c.281 0 .457.132.457.475v.826a.88.88 0 00.062.396h-.343V28c0-.229 0-.484-.334-.484s-.352.255-.352.51v.59a.738.738 0 00.07.395h-.351a.738.738 0 00.07-.396v-.879c0-.15 0-.29-.08-.36l.309-.027z" fill="#034694" fill-rule="nonzero"/><path d="M10.224 28.571c.062.106.176.282.106.396-.07.114-.334.062-.572 0a2.119 2.119 0 00-.448 0 .22.22 0 01-.185-.132.29.29 0 01-.052-.193c0-.097 0 0-.115-.29a.88.88 0 00-.299-.396c-.079-.044-.07-.07-.061-.097.009-.026 0-.07 0-.246a.624.624 0 00-.132-.22 1.758 1.758 0 01-.475.194c.01.139.03.277.062.413.022.187.092.366.202.519 0 0 .176-.062.272-.062.097 0 .176.14.211.308.036.167 0 .22-.114.21h-.756c-.184 0-.15 0-.21-.113-.062-.115 0-.176-.045-.229a3.358 3.358 0 00-.246-.457c-.044-.062-.097-.062-.14-.123-.045-.062 0-.115 0-.167a.42.42 0 000-.15h-.273a2.101 2.101 0 01-.264 0 .958.958 0 01-.316.185c-.185.061-.396.105-.44.132-.044.026 0 .088 0 .255.037.1.087.194.15.281l.14-.053a.255.255 0 01.22 0c.1.108.153.25.15.396 0 .105-.159.07-.528.061-.155.01-.31.01-.466 0-.062 0-.088-.096-.097-.14-.008-.044 0-.062-.088-.282-.088-.22-.096-.263-.202-.325-.105-.061-.105-.061-.114-.132-.009-.07.088-.184.21-.237a.413.413 0 00.186-.193H5.37a.88.88 0 01-.5.228 2.171 2.171 0 00-.757.255c-.092.12-.163.253-.21.396l.158-.053c.105 0 .131 0 .22.176.087.176.052.316-.115.316a2.567 2.567 0 00-.466 0c-.316 0-.37.062-.43 0-.062-.061 0-.15 0-.22s.06-.123.105-.21l.167-.343c.062-.13.1-.27.114-.414 0-.052.114-.14.202-.131a.43.43 0 00.378-.238c.08-.105.167-.255.167-.255a1.26 1.26 0 01-.888.062.536.536 0 01-.395-.8 1.1 1.1 0 01.765-.396c.369-.053.589 0 .624-.123.035-.123-.08-.185 0-.352a.607.607 0 01.228-.307c.063-.05.1-.123.106-.202 0 0 .246.448.114.703-.237.44-.782.413-1.09.483-.308.07-.571.273-.571.466 0 .36.73.431.932.194a1.42 1.42 0 011.257-.624c.668 0 .879 0 1.336-.317l.158-.114c0-.125.018-.25.053-.37.062-.246.211-.474.193-.5-.017-.027-.114.105-.14.06.03-.209.121-.405.263-.562.147-.156.327-.276.528-.351 0 0-.176 0-.15-.053.027-.053.22-.167.66-.167.44 0 .36.097.527.132l.396.088c.088 0 .123.114.167.14.044.027.07 0 .255 0 .184 0 .264.062.272.115a.88.88 0 010 .334.211.211 0 01-.158.114.774.774 0 01-.351 0c-.23-.053-.3-.053-.3.193 0 .247.053.229.326.229a.642.642 0 00.378-.123c.053 0 .053.053.053.15a.325.325 0 01-.053.22h-.202a.677.677 0 01-.185.984c-.079 0-.061-.334-.15-.264-.087.07 0 .22-.114.396v.21c.044.36.114.716.211 1.064.059.243.173.469.334.66 0 .052.123 0 .247-.053.123-.053.149 0 .22.079m-2.084-4.246c.08-.01.16.016.22.07a.211.211 0 00-.238-.132.211.211 0 00-.246.334.255.255 0 00.229.159c0 .112.024.223.07.325.06.083.124.162.193.237a2.066 2.066 0 01-.158-.351 2.224 2.224 0 010-.282s-.176 0-.228-.114c-.053-.114-.044-.211.105-.246m-.281 2.55a.492.492 0 00.413.263.73.73 0 01-.43-.448 1.486 1.486 0 01-.098-.282c-.07 0-.087.308-.131.308-.044 0-.176-.114-.3-.378a1.468 1.468 0 01-.043-.545 1.055 1.055 0 000 .686.817.817 0 00.343.404c.079 0 0-.272.105-.246a.712.712 0 00.114.237m.756.123c.08.097.343.255.37.08 0 .114-.29-.088-.36-.22-.071-.132-.089-.255-.141-.264-.053-.009-.141.105-.141.325.079-.15.105-.22.15-.14.036.075.077.149.122.22m.528-2.55l.044-.088a.413.413 0 00-.167-.053.396.396 0 00-.22.053.466.466 0 01.202 0 .343.343 0 01.14.088m.678.37a.185.185 0 00.061-.177v-.132a.08.08 0 000-.096h-.114c-.114 0-.176 0-.132.044l.132.079a.484.484 0 010 .123c.01.055.01.112 0 .167m-1.292.607s0 .36.545.149c.152-.067.317-.1.483-.097.044 0-.088-.114-.474.044-.387.158-.554-.096-.554-.096" fill="#ED1D24" fill-rule="nonzero"/><path d="M9.38 25.108a.308.308 0 01.211-.176h.378l.14-.062a.545.545 0 01-.131.194c-.105.079-.202.07-.396 0a.308.308 0 00-.202 0" fill="#ED1D24" fill-rule="nonzero"/><path d="M13.45 17.407h-2.558V3.763A2.778 2.778 0 0113.916.72h20.888c.404.036.783.21 1.073.492 5.934 5.908 11.833 11.833 17.75 17.723a2.95 2.95 0 01.949 2.312c-.07 4.81-.07 9.618-.07 14.427v19.534c0 2.224-1.108 3.358-3.297 3.358h-11.57c.546-.73.968-2.242 1.477-2.796a1.43 1.43 0 01.88-.342h7.753c1.759 0 2.497.158 2.497-1.644V21.178c0-1.002-.237-1.336-1.283-1.319-4.106.062-8.22 0-12.308 0-2.154 0-3.288-1.107-3.288-3.244V3.965c0-.88-.272-1.125-1.134-1.125H15.947c-1.758 0-2.532.738-2.532 2.505V17.39l.036.018z" fill="#C5D1E4" fill-rule="nonzero"/><path d="M52.035 21.16c0-1.002-.237-1.336-1.283-1.318-4.106.061-7.912 0-12.062 0-2.154 0-3.288-1.108-3.288-3.244V4.826c0-.879-.272-1.125-1.134-1.125H15.675c-1.565.088-2.224.835-2.224 2.497v11.165h0-2.559v-13.6A2.778 2.778 0 0113.916.72h20.897c.404.036.783.21 1.073.492 5.925 5.908 11.824 11.833 17.74 17.723.644.592.992 1.439.95 2.312-.07 4.81-.07 9.618-.07 14.427v19.534c0 2.224-1.108 3.358-3.297 3.358h-11.57c1.24-2.312.968-2.242 1.477-2.796a1.43 1.43 0 01.88-.342h7.49c1.802 0 2.496-.721 2.496-2.524l.053-31.745z" stroke="#000" stroke-width="1.5" stroke-linecap="round" stroke-linejoin="round"/><path d="M26.101 58.567H13.916a3.015 3.015 0 01-3.015-2.919V36.44h2.558v17.45c0 1.662.721 1.503 2.392 1.512 2.373 0 4.747.08 7.112 0 1.072 0 1.758 1.17 2.259 2.04.211.325.501.633.88 1.125z" fill="#A0A0A0" fill-rule="nonzero"/><path d="M13.46 36.44v16.57c0 1.662.72 2.382 2.39 2.391 2.374 0 4.748.08 7.113 0a2.215 2.215 0 012.259 1.16c.346.653.64 1.332.88 2.031h-12.45a2.796 2.796 0 01-2.75-2.918V36.44h2.557z" stroke="#000" stroke-width="1.5" stroke-linecap="round" stroke-linejoin="round"/></g></svg>