<svg width="300" height="200" viewBox="0 0 300 200" fill="none" xmlns="http://www.w3.org/2000/svg">
<path d="M125.606 141.309C125.606 154.085 125.606 166.86 125.606 179.634C125.606 179.927 125.588 180.222 125.609 180.512C125.648 181.087 125.33 181.402 124.847 181.581C124.611 181.668 124.348 181.686 124.094 181.704C122.598 181.812 121.102 181.913 119.605 182.009C116.613 182.203 113.62 182.393 110.625 182.585C106.866 182.826 103.105 183.061 99.3458 183.308C95.2939 183.574 91.2443 183.853 87.1924 184.118C85.5862 184.223 83.9778 184.297 82.3717 184.402C79.5622 184.587 76.7526 184.786 73.943 184.976C73.5793 185.001 73.2132 185.033 72.8471 185.029C72.3415 185.022 72.1333 184.798 72.1242 184.276C72.1196 183.947 72.1447 183.617 72.1447 183.288C72.0807 169.011 72.0166 154.737 71.9503 140.46C71.9228 134.676 71.8862 128.895 71.8611 123.111C71.8565 122.271 71.8222 121.422 71.9205 120.592C72.0715 119.311 72.5383 118.116 73.1514 116.977C74.197 115.032 75.5171 113.28 76.9631 111.623C79.2075 109.049 81.6808 106.713 84.5155 104.796C85.5107 104.124 86.5769 103.545 87.6431 102.986C88.6223 102.472 89.6839 102.238 90.805 102.19C92.5575 102.112 94.3078 101.943 96.058 101.81C100.837 101.454 105.626 101.243 110.419 101.165C113.272 101.117 116.128 101.099 118.981 101.058C120.552 101.035 122.127 100.996 123.698 100.964C123.955 100.959 124.211 100.95 124.467 100.953C125.451 100.959 125.588 101.099 125.604 102.103C125.609 102.396 125.604 102.689 125.604 102.982C125.606 115.758 125.606 128.533 125.606 141.309Z" fill="black"/>
<path d="M227.897 55.8691C227.897 68.6083 227.897 81.3451 227.897 94.0842C227.897 94.377 227.902 94.6699 227.895 94.9628C227.874 95.8916 227.593 96.228 226.687 96.3103C225.63 96.4064 224.571 96.4613 223.514 96.5346C221.837 96.6489 220.157 96.7679 218.48 96.88C216.947 96.9807 215.414 97.0722 213.882 97.1752C212.095 97.2941 210.308 97.4246 208.519 97.5389C206.476 97.6671 204.428 97.77 202.385 97.905C199.939 98.0652 197.498 98.2573 195.052 98.4198C193.082 98.5502 191.11 98.6509 189.138 98.7744C186.109 98.9666 183.079 99.1679 180.05 99.3647C178.554 99.4631 177.058 99.5706 175.561 99.653C174.539 99.7079 174.436 99.5821 174.431 98.5662C174.401 91.0619 174.367 83.5598 174.337 76.0554C174.324 72.5046 174.317 68.9537 174.301 65.4029C174.255 56.1048 174.207 46.809 174.159 37.5109C174.154 36.6713 174.088 35.8339 174.241 34.9942C174.55 33.3057 175.275 31.798 176.186 30.3703C178.332 27.0094 181.02 24.1312 184.045 21.555C185.441 20.3653 186.907 19.274 188.504 18.3702C189.138 18.011 189.808 17.7113 190.469 17.4002C191.59 16.8694 192.801 16.8327 194.006 16.755C196.962 16.5628 199.914 16.3271 202.872 16.1578C205.21 16.0251 207.551 15.9267 209.891 15.881C215.378 15.7734 220.867 15.7071 226.353 15.6247C226.646 15.6202 226.939 15.6064 227.232 15.6247C227.625 15.6476 227.836 15.8398 227.877 16.2356C227.911 16.5628 227.902 16.8922 227.902 17.2217C227.902 25.9341 227.902 34.6442 227.902 43.3565C227.897 47.5228 227.897 51.696 227.897 55.8691Z" fill="black"/>
<path d="M172.512 6.52574C173.692 6.45939 174.857 6.39075 176.021 6.32669C176.275 6.31296 176.531 6.28093 176.781 6.3061C177.046 6.33127 177.213 6.57378 177.218 6.85291C177.222 7.15034 177.09 7.37227 176.804 7.41116C176.225 7.48666 175.641 7.52556 175.06 7.5736C174.52 7.61936 173.978 7.65826 173.331 7.71088C173.47 8.0655 173.559 8.3309 173.676 8.58029C174.873 11.1176 175.385 13.7807 175.111 16.5788C174.683 20.9556 172.731 24.5179 169.283 27.2359C167.265 28.826 164.964 29.8121 162.42 30.2171C162.138 30.2629 161.859 30.3338 161.514 30.407C161.507 30.693 161.495 30.9401 161.495 31.1872C161.498 35.5777 161.5 39.9659 161.502 44.3564C161.502 44.5394 161.511 44.7225 161.488 44.9032C161.445 45.2441 161.214 45.4546 160.912 45.4569C160.619 45.4592 160.358 45.235 160.328 44.9192C160.303 44.6653 160.315 44.409 160.315 44.1528C160.315 39.9087 160.315 35.6669 160.315 31.4228C160.315 31.1345 160.315 30.8486 160.315 30.5031C160.052 30.4665 159.848 30.4161 159.642 30.4116C153.062 30.304 147.031 25.8335 145.288 19.0864C143.135 10.7538 148.093 2.94515 155.501 0.691554C158.384 -0.184718 161.28 -0.23505 164.151 0.579448C167.254 1.4603 169.846 3.19225 171.871 5.73412C172.052 5.95605 172.235 6.18255 172.512 6.52574Z" fill="black"/>
<path d="M182.869 126.09C181.757 127.197 180.72 128.225 179.686 129.256C177.826 131.119 175.971 132.983 174.111 134.848C173.982 134.976 173.852 135.107 173.703 135.21C173.486 135.365 173.191 135.338 172.992 135.171C172.777 134.99 172.722 134.617 172.898 134.374C173.003 134.228 173.143 134.104 173.271 133.976C176.039 131.213 178.81 128.451 181.578 125.687C181.704 125.561 181.814 125.422 181.967 125.246C181.805 125.053 181.681 124.882 181.535 124.735C180.039 123.235 178.538 121.738 177.039 120.235C176.808 120.002 176.563 119.775 176.373 119.51C176.113 119.144 176.307 118.672 176.749 118.567C176.959 118.517 177.181 118.508 177.401 118.496C179.078 118.398 180.757 118.306 182.434 118.206C184.258 118.096 186.081 117.975 187.904 117.869C188.488 117.835 189.074 117.812 189.657 117.819C190.007 117.824 190.204 118.023 190.211 118.368C190.222 118.915 190.215 119.466 190.188 120.013C190.03 123.116 189.865 126.218 189.7 129.32C189.666 129.977 189.632 130.634 189.57 131.29C189.517 131.858 188.994 132.066 188.529 131.716C188.385 131.606 188.261 131.469 188.133 131.338C187.978 131.183 187.85 130.997 187.676 130.867C186.108 129.703 185.038 128.044 183.585 126.767C183.37 126.577 183.166 126.371 182.869 126.09Z" fill="black"/>
<path d="M140.461 166.563C140.985 166.364 141.2 166.062 141.447 165.815C143.959 163.307 146.464 160.795 148.972 158.283C149.722 157.533 150.468 156.778 151.221 156.029C151.402 155.851 151.592 155.677 151.8 155.531C152.029 155.371 152.31 155.425 152.495 155.627C152.669 155.814 152.713 156.123 152.553 156.334C152.376 156.565 152.175 156.78 151.969 156.986C150.393 158.567 148.814 160.145 147.238 161.722C145.245 163.715 143.252 165.705 141.262 167.698C141.106 167.853 140.96 168.016 140.802 168.169C140.523 168.439 140.404 168.762 140.411 169.153C140.429 169.995 140.427 170.837 140.424 171.679C140.424 171.896 140.415 172.118 140.372 172.329C140.317 172.585 140.056 172.754 139.797 172.74C139.534 172.727 139.296 172.539 139.258 172.281C139.23 172.102 139.235 171.917 139.235 171.734C139.237 166.391 139.239 161.047 139.242 155.705C139.242 155.448 139.237 155.192 139.262 154.938C139.29 154.659 139.498 154.46 139.754 154.43C140.058 154.394 140.342 154.586 140.385 154.906C140.424 155.194 140.418 155.49 140.418 155.78C140.42 159.001 140.415 162.221 140.418 165.442C140.415 165.765 140.44 166.087 140.461 166.563Z" fill="black"/>
<path d="M241.536 107.993C241.536 107.466 241.536 107.064 241.536 106.663C241.536 102.49 241.536 98.3193 241.536 94.1461C241.536 93.8532 241.529 93.5604 241.559 93.2698C241.593 92.9518 241.873 92.7344 242.165 92.7642C242.426 92.7894 242.641 92.9793 242.676 93.2561C242.705 93.5101 242.705 93.7663 242.705 94.0225C242.708 98.6716 242.708 103.318 242.708 107.967C242.708 108.15 242.717 108.333 242.703 108.516C242.673 108.931 242.511 109.114 242.113 109.175C241.898 109.21 241.676 109.212 241.456 109.226C238.61 109.404 235.764 109.578 232.918 109.759C231.238 109.866 229.561 109.988 227.882 110.095C227.372 110.127 226.859 110.143 226.347 110.139C226.079 110.136 225.86 109.896 225.834 109.654C225.809 109.42 225.992 109.146 226.237 109.063C226.34 109.029 226.45 109.004 226.557 108.995C227.321 108.935 228.088 108.873 228.854 108.825C231.19 108.677 233.526 108.53 235.862 108.386C237.432 108.29 239.001 108.198 240.571 108.1C240.852 108.08 241.136 108.038 241.536 107.993Z" fill="black"/>
<path d="M241.537 3.03668C240.19 3.10532 238.991 3.15108 237.797 3.22658C236.156 3.33183 234.518 3.46452 232.88 3.57663C231.022 3.70476 229.162 3.82373 227.302 3.94041C226.938 3.96329 226.572 3.96787 226.208 3.94499C225.931 3.92668 225.735 3.69332 225.716 3.44165C225.698 3.17396 225.842 2.93831 226.117 2.8628C226.325 2.80332 226.545 2.77358 226.76 2.75985C229.567 2.58597 232.377 2.42581 235.184 2.24735C237.298 2.11237 239.412 1.95908 241.524 1.81494C242.617 1.73944 242.704 1.81494 242.706 2.94288C242.716 7.11146 242.718 11.2778 242.72 15.4463C242.72 15.6271 242.704 15.8124 242.663 15.9863C242.606 16.2357 242.347 16.3912 242.073 16.3684C241.832 16.3478 241.638 16.2288 241.588 15.9977C241.535 15.7529 241.535 15.4921 241.535 15.2381C241.533 11.582 241.535 7.92596 241.537 4.26987C241.537 3.90838 241.537 3.54689 241.537 3.03668Z" fill="black"/>
<path d="M58.4535 199.983C58.1194 199.66 58.0279 199.354 58.0233 199.013C58.0188 198.72 58.0142 198.427 58.0142 198.136C58.0142 193.785 58.0142 189.435 58.0142 185.084C58.0142 184.864 58.0073 184.645 58.0165 184.425C58.0394 183.912 58.2293 183.64 58.5702 183.617C58.9522 183.592 59.1673 183.88 59.1948 184.468C59.2062 184.725 59.1993 184.981 59.1993 185.237C59.1993 189.332 59.197 193.428 59.2039 197.521C59.2039 197.914 59.1353 198.322 59.3183 198.77C59.5242 198.779 59.7324 198.809 59.9383 198.795C62.1622 198.653 64.3837 198.505 66.6076 198.356C69.122 198.187 71.6364 198.011 74.1509 197.841C74.295 197.832 74.4437 197.821 74.5878 197.839C74.8327 197.871 75.018 198.116 75.034 198.39C75.05 198.676 74.9013 198.942 74.6519 198.976C74.1829 199.04 73.7093 199.079 73.2357 199.109C70.2111 199.31 67.1842 199.507 64.1595 199.704C62.6289 199.802 61.0983 199.903 59.5654 199.99C59.1673 200.015 58.7669 199.987 58.4535 199.983Z" fill="black"/>
<path d="M161.525 113.385C161.827 113.399 162.077 113.435 162.322 113.419C164.399 113.284 166.477 113.133 168.556 112.998C170.16 112.893 171.766 112.808 173.37 112.71C174.317 112.651 175.267 112.584 176.214 112.522C176.397 112.511 176.58 112.488 176.761 112.493C177.129 112.502 177.294 112.657 177.301 113.033C177.303 113.204 177.232 113.378 177.191 113.566C175.932 113.797 174.688 113.797 173.452 113.884C171.668 114.007 169.881 114.133 168.096 114.25C166.602 114.348 165.106 114.433 163.61 114.527C163.026 114.563 162.445 114.618 161.862 114.657C161.608 114.673 161.349 114.687 161.095 114.669C160.672 114.639 160.434 114.419 160.361 113.991C160.324 113.776 160.322 113.554 160.322 113.335C160.32 108.654 160.32 103.973 160.322 99.2914C160.322 99.0741 160.329 98.8499 160.382 98.6417C160.441 98.4152 160.626 98.2847 160.862 98.2573C161.109 98.2275 161.402 98.4129 161.436 98.6623C161.482 98.9848 161.493 99.3166 161.493 99.6438C161.498 103.849 161.496 108.054 161.498 112.259C161.496 112.616 161.514 112.973 161.525 113.385Z" fill="black"/>
<path d="M139.237 193.297C139.237 192.867 139.237 192.506 139.237 192.144C139.237 187.935 139.237 183.727 139.237 179.517C139.237 179.225 139.232 178.932 139.26 178.641C139.285 178.369 139.507 178.158 139.754 178.131C140.047 178.097 140.328 178.305 140.374 178.625C140.411 178.877 140.408 179.135 140.411 179.392C140.413 184.041 140.404 188.687 140.42 193.336C140.424 194.517 140.223 194.51 139.253 194.572C137.757 194.668 136.263 194.785 134.766 194.881C132.321 195.039 129.875 195.183 127.429 195.336C126.553 195.391 125.679 195.466 124.802 195.521C124.548 195.537 124.29 195.535 124.036 195.51C123.78 195.485 123.544 195.238 123.514 195.013C123.487 194.794 123.677 194.503 123.926 194.435C124.137 194.377 124.354 194.341 124.571 194.325C126.505 194.199 128.44 194.082 130.374 193.956C133.183 193.776 135.995 193.59 138.804 193.405C138.912 193.4 139.013 193.355 139.237 193.297Z" fill="black"/>
<path d="M139.238 88.4492C138.622 88.4492 138.149 88.424 137.677 88.4538C134.431 88.6551 131.186 88.8656 127.942 89.0761C127.032 89.1355 126.121 89.2156 125.208 89.2728C124.771 89.3003 124.332 89.3049 123.895 89.2889C123.604 89.2774 123.424 89.0601 123.414 88.7878C123.405 88.5132 123.556 88.2753 123.819 88.2067C123.993 88.1609 124.179 88.1449 124.359 88.1357C127.093 87.9664 129.83 87.8063 132.564 87.6301C134.861 87.4814 137.158 87.3167 139.453 87.1611C139.597 87.1519 139.746 87.1496 139.887 87.1725C140.171 87.2137 140.363 87.3967 140.391 87.6713C140.416 87.9253 140.414 88.1815 140.414 88.4377C140.421 92.5331 140.425 96.6285 140.425 100.726C140.425 100.941 140.405 101.165 140.352 101.371C140.29 101.605 139.974 101.779 139.743 101.733C139.515 101.687 139.32 101.557 139.281 101.323C139.235 101.037 139.24 100.742 139.24 100.452C139.238 96.7955 139.24 93.1371 139.24 89.481C139.238 89.1516 139.238 88.8244 139.238 88.4492Z" fill="black"/>
<path d="M59.2442 93.8966C59.2282 94.2078 59.2008 94.4938 59.2008 94.7775C59.2008 98.5457 59.2053 102.314 59.2053 106.082C59.2053 106.334 59.1916 106.592 59.139 106.839C59.0864 107.082 58.7592 107.302 58.551 107.219C58.3657 107.146 58.1643 106.995 58.0774 106.823C57.9859 106.643 58.0065 106.398 58.0065 106.18C58.0042 102.01 58.0065 97.8387 58.0087 93.6679C58.0087 93.558 57.9996 93.4482 58.0065 93.3384C58.0362 92.8945 58.2375 92.6566 58.6768 92.6246C59.4433 92.5674 60.2097 92.5536 60.9762 92.5056C63.9665 92.3134 66.9591 92.1121 69.9494 91.9153C71.2992 91.8261 72.6491 91.7414 73.999 91.6568C74.1454 91.6476 74.2918 91.6408 74.436 91.6545C74.7174 91.6819 74.8867 91.8696 74.9164 92.1578C74.9508 92.5147 74.8043 92.755 74.4657 92.7847C73.411 92.8785 72.3517 92.9517 71.2947 93.0249C69.4346 93.1531 67.5745 93.2812 65.7144 93.3979C64.1083 93.4985 62.5022 93.5878 60.8961 93.6747C60.3539 93.7068 59.8116 93.7228 59.2442 93.8966Z" fill="black"/>
<path d="M169.482 139.282C169.331 139.502 169.219 139.73 169.047 139.907C168.231 140.744 167.4 141.568 166.572 142.394C163.55 145.418 160.525 148.443 157.503 151.467C157.374 151.595 157.253 151.735 157.109 151.847C156.851 152.046 156.528 152.037 156.301 151.845C156.061 151.639 156.054 151.259 156.29 150.959C156.359 150.875 156.439 150.797 156.517 150.722C160.369 146.873 164.222 143.025 168.077 139.177C168.231 139.023 168.391 138.866 168.572 138.749C168.771 138.623 169.011 138.628 169.182 138.792C169.308 138.909 169.368 139.087 169.482 139.282Z" fill="black"/>
<path d="M58.0114 169.084C58.0114 166.451 58.0092 163.818 58.0137 161.182C58.0137 160.891 58.0069 160.592 58.0686 160.31C58.1167 160.093 58.302 159.942 58.5468 159.917C58.8145 159.889 59.0868 160.045 59.1348 160.303C59.1874 160.587 59.2012 160.882 59.2034 161.17C59.2057 166.218 59.2034 171.267 59.2034 176.314C59.2034 176.68 59.2309 177.046 59.224 177.41C59.2126 177.957 58.9495 178.273 58.5605 178.234C58.2746 178.204 58 177.961 58 177.422C58.0092 174.642 58.0046 171.862 58.0046 169.082C58.0046 169.084 58.0069 169.084 58.0114 169.084Z" fill="black"/>
<path d="M58 145.354C58 142.755 58 140.158 58.0023 137.559C58.0023 137.266 58 136.971 58.0412 136.685C58.0869 136.363 58.3638 136.173 58.6681 136.205C58.9403 136.234 59.1257 136.399 59.16 136.708C59.1966 137.033 59.1966 137.365 59.1966 137.694C59.1989 142.56 59.1966 147.427 59.1989 152.296C59.1989 152.698 59.2172 153.101 59.2103 153.504C59.2057 153.719 59.1851 153.941 59.1325 154.149C59.073 154.384 58.89 154.503 58.6475 154.522C58.3775 154.542 58.103 154.382 58.0549 154.133C58.0092 153.883 58.0092 153.625 58.0069 153.371C58.0046 150.699 58.0046 148.029 58.0046 145.356C58.0046 145.354 58.0023 145.354 58 145.354Z" fill="black"/>
<path d="M58.0097 121.649C58.0097 119.016 58.0074 116.38 58.012 113.747C58.012 113.456 58.0051 113.156 58.0692 112.875C58.1173 112.66 58.3049 112.506 58.5497 112.481C58.8105 112.454 59.0805 112.614 59.1308 112.879C59.1834 113.163 59.1994 113.458 59.1994 113.747C59.2017 118.796 59.1994 123.843 59.1994 128.893C59.1994 129.259 59.2269 129.625 59.2177 129.988C59.2063 130.542 58.9501 130.84 58.5497 130.801C58.1996 130.766 58.0029 130.496 58.0029 129.988C57.9983 127.209 58.0006 124.429 58.0006 121.647C58.0029 121.649 58.0074 121.649 58.0097 121.649Z" fill="black"/>
<path d="M160.317 83.6469C160.317 81.0547 160.317 78.4625 160.319 75.8703C160.319 75.5797 160.319 75.2845 160.356 74.9963C160.388 74.7423 160.651 74.5387 160.891 74.5318C161.143 74.5272 161.399 74.708 161.445 74.9688C161.488 75.2182 161.497 75.4744 161.497 75.7284C161.497 80.6223 161.495 85.5138 161.493 90.4077C161.493 90.8447 161.497 91.2839 161.5 91.7209C161.5 91.904 161.516 92.087 161.497 92.2677C161.458 92.6452 161.177 92.9129 160.864 92.8901C160.589 92.8695 160.351 92.6178 160.319 92.2975C160.301 92.1167 160.312 91.9337 160.312 91.7507C160.312 89.0486 160.312 86.3466 160.312 83.6446C160.314 83.6469 160.317 83.6469 160.317 83.6469Z" fill="black"/>
<path d="M241.538 78.2815C241.538 75.6527 241.538 73.0239 241.54 70.3951C241.54 70.1045 241.54 69.8094 241.572 69.5211C241.602 69.2648 241.858 69.0498 242.094 69.0406C242.343 69.0315 242.62 69.2122 242.659 69.4662C242.705 69.7522 242.709 70.045 242.709 70.3356C242.712 75.4102 242.709 80.487 242.709 85.5616C242.709 85.8911 242.732 86.2183 242.721 86.5477C242.716 86.7262 242.719 86.9481 242.62 87.0717C242.499 87.2227 242.286 87.3554 242.096 87.3828C241.879 87.4149 241.655 87.2684 241.6 87.0351C241.543 86.7925 241.538 86.5317 241.538 86.2778C241.533 83.6123 241.536 80.9469 241.536 78.2815H241.538Z" fill="black"/>
<path d="M160.305 59.937C160.305 57.3746 160.303 54.8121 160.308 52.2519C160.308 51.9248 160.314 51.593 160.356 51.2681C160.388 51.0165 160.66 50.8289 160.909 50.8289C161.168 50.8289 161.415 51.0142 161.447 51.2842C161.486 51.609 161.49 51.9408 161.49 52.268C161.493 57.2099 161.493 62.1495 161.493 67.0914C161.493 67.494 161.516 67.8967 161.509 68.2994C161.506 68.4778 161.481 68.6677 161.417 68.8347C161.333 69.059 161.115 69.2008 160.898 69.1551C160.71 69.1162 160.47 68.9743 160.397 68.8142C160.296 68.5968 160.314 68.3177 160.314 68.066C160.31 65.3571 160.312 62.6482 160.312 59.9416C160.31 59.937 160.308 59.937 160.305 59.937Z" fill="black"/>
<path d="M242.713 30.9399C242.713 33.5756 242.713 36.2113 242.713 38.847C242.713 38.9934 242.729 39.1398 242.72 39.2863C242.692 39.6912 242.464 39.9543 242.143 39.9681C241.821 39.9841 241.562 39.721 241.532 39.3297C241.521 39.1833 241.532 39.0369 241.532 38.8904C241.535 33.6191 241.535 28.3477 241.539 23.0764C241.539 22.7469 241.539 22.4175 241.571 22.0903C241.596 21.8363 241.866 21.6213 242.1 21.619C242.354 21.6144 242.621 21.7974 242.663 22.0514C242.704 22.3008 242.711 22.5593 242.711 22.8133C242.711 25.5222 242.711 28.2311 242.713 30.9399C242.711 30.9399 242.711 30.9399 242.713 30.9399Z" fill="black"/>
<path d="M241.524 54.4416C241.524 51.8791 241.522 49.3167 241.526 46.7565C241.526 46.4293 241.533 46.0976 241.577 45.7727C241.611 45.5141 241.879 45.3288 242.13 45.338C242.398 45.3471 242.629 45.5256 242.666 45.7978C242.7 46.0495 242.705 46.3081 242.705 46.5643C242.711 51.9455 242.716 57.3244 242.716 62.7055C242.716 62.9206 242.725 63.1723 242.622 63.3416C242.526 63.5017 242.295 63.6344 242.105 63.6665C241.888 63.7008 241.659 63.5589 241.6 63.3256C241.538 63.083 241.535 62.8222 241.535 62.5683C241.531 59.8594 241.533 57.1505 241.533 54.4439C241.529 54.4416 241.526 54.4416 241.524 54.4416Z" fill="black"/>
<path d="M139.237 116.03C139.237 113.433 139.235 110.839 139.24 108.242C139.24 107.951 139.244 107.654 139.301 107.372C139.347 107.146 139.539 107.011 139.782 106.997C140.04 106.981 140.313 107.157 140.358 107.407C140.404 107.656 140.413 107.915 140.413 108.169C140.416 110.948 140.411 113.726 140.411 116.506C140.413 119.102 140.42 121.697 140.42 124.294C140.42 124.511 140.406 124.733 140.356 124.944C140.299 125.179 140.004 125.342 139.745 125.305C139.51 125.273 139.32 125.147 139.279 124.911C139.233 124.662 139.235 124.404 139.233 124.15C139.23 121.443 139.23 118.739 139.23 116.032C139.237 116.03 139.237 116.03 139.237 116.03Z" fill="black"/>
<path d="M140.427 139.881C140.427 142.588 140.427 145.295 140.425 147.999C140.425 148.18 140.423 148.365 140.39 148.543C140.333 148.855 140.061 149.054 139.759 149.029C139.507 149.008 139.283 148.804 139.253 148.534C139.228 148.317 139.235 148.097 139.235 147.878C139.233 142.648 139.231 137.417 139.231 132.189C139.231 131.86 139.228 131.531 139.263 131.203C139.29 130.929 139.523 130.73 139.773 130.711C140.075 130.689 140.34 130.892 140.379 131.219C140.413 131.508 140.413 131.803 140.416 132.093C140.418 134.69 140.418 137.287 140.418 139.884C140.418 139.881 140.423 139.881 140.427 139.881Z" fill="black"/>
<path d="M118.529 195.956C117.985 196.015 117.41 196.098 116.834 196.134C114.756 196.265 112.677 196.366 110.601 196.501C108.233 196.654 105.868 196.837 103.5 196.997C103.099 197.024 102.697 197.029 102.299 197.004C102.038 196.988 101.839 196.727 101.825 196.478C101.811 196.233 101.99 195.993 102.253 195.91C102.356 195.878 102.466 195.853 102.573 195.839C102.681 195.823 102.793 195.826 102.9 195.819C106.982 195.565 111.064 195.311 115.147 195.055C116.058 194.997 116.969 194.91 117.879 194.862C118.643 194.821 118.751 194.997 118.529 195.956Z" fill="black"/>
<path d="M184.139 6.94446C183.665 6.94446 183.189 6.95362 182.716 6.94218C182.283 6.93074 182.038 6.71567 182.043 6.39079C182.05 6.06819 182.292 5.82339 182.697 5.78678C183.462 5.71814 184.226 5.66781 184.99 5.61748C188.708 5.38182 192.426 5.14845 196.141 4.91508C196.798 4.8739 197.452 4.83272 198.109 4.80069C198.253 4.79383 198.402 4.80298 198.541 4.83958C198.772 4.89907 198.914 5.05465 198.932 5.30632C198.953 5.59231 198.811 5.8394 198.559 5.90118C198.349 5.95151 198.129 5.97439 197.912 5.98812C196.381 6.09336 194.851 6.1986 193.322 6.29698C190.261 6.49374 187.2 6.68822 184.139 6.88269C184.139 6.90328 184.139 6.92387 184.139 6.94446Z" fill="black"/>
<path d="M104.826 90.6797C104.206 90.7209 103.586 90.7667 102.966 90.7987C102.712 90.8124 102.453 90.8147 102.199 90.7941C101.916 90.7712 101.719 90.5585 101.701 90.2999C101.682 90.046 101.852 89.7829 102.099 89.7096C102.238 89.6685 102.385 89.6479 102.529 89.6387C104.606 89.506 106.686 89.3802 108.763 89.2429C110.44 89.1331 112.115 89.0095 113.792 88.8974C115.14 88.8059 116.49 88.7167 117.84 88.6389C118.322 88.6114 118.595 88.8448 118.592 89.2269C118.592 89.4671 118.503 89.6799 118.265 89.7394C117.949 89.8195 117.62 89.8629 117.293 89.8858C115.725 89.9911 114.156 90.078 112.589 90.1787C110.948 90.2839 109.308 90.3983 107.667 90.5036C106.72 90.5653 105.771 90.618 104.824 90.6729C104.826 90.6774 104.826 90.6774 104.826 90.6797Z" fill="black"/>
<path d="M219.166 3.37077C219.567 3.35018 219.967 3.31129 220.37 3.31357C220.66 3.31586 220.853 3.51491 220.887 3.7826C220.928 4.09604 220.747 4.38432 220.45 4.43923C220.271 4.47355 220.086 4.47354 219.905 4.48498C217.464 4.64285 215.021 4.79843 212.579 4.95858C210.321 5.10501 208.061 5.2583 205.803 5.40244C205.366 5.4299 204.926 5.44133 204.492 5.42303C204.194 5.4093 204.013 5.19195 204.004 4.92884C203.995 4.65429 204.139 4.42779 204.416 4.35228C204.624 4.29509 204.844 4.2745 205.061 4.26077C209.436 3.97707 213.808 3.69337 218.183 3.41653C218.51 3.39594 218.839 3.41424 219.169 3.41424C219.166 3.39594 219.166 3.38221 219.166 3.37077Z" fill="black"/>
<path d="M198.876 112.092C198.364 112.15 197.826 112.234 197.284 112.266C194.442 112.445 191.601 112.603 188.759 112.781C187.121 112.884 185.485 113.021 183.847 113.131C183.447 113.159 183.044 113.161 182.646 113.14C182.394 113.127 182.184 112.859 182.172 112.614C182.161 112.369 182.339 112.113 182.603 112.054C182.85 111.999 183.106 111.969 183.36 111.953C187 111.713 190.642 111.475 194.282 111.237C195.52 111.157 196.758 111.083 197.998 111.008C198.035 111.006 198.071 110.999 198.108 110.999C198.989 110.962 199.089 111.09 198.876 112.092Z" fill="black"/>
<path d="M220.874 110.505C220.341 110.752 219.751 110.731 219.174 110.77C216.008 110.983 212.841 111.182 209.675 111.383C208.291 111.472 206.909 111.559 205.525 111.637C205.197 111.656 204.866 111.656 204.543 111.617C204.307 111.587 204.175 111.39 204.138 111.157C204.099 110.905 204.278 110.633 204.52 110.566C204.66 110.528 204.806 110.507 204.95 110.498C207.062 110.358 209.172 110.228 211.283 110.084C212.956 109.972 214.628 109.841 216.301 109.727C217.575 109.64 218.849 109.564 220.122 109.487C220.886 109.443 221.007 109.606 220.874 110.505Z" fill="black"/>
<path d="M80.7001 92.3294C80.5765 92.3156 80.3088 92.3271 80.0777 92.2401C79.9382 92.1875 79.8078 91.9953 79.7597 91.8398C79.6888 91.6133 79.7986 91.3913 80.0183 91.2952C80.2127 91.2106 80.4347 91.1602 80.6474 91.1442C82.6516 91.007 84.6581 90.8811 86.6646 90.7484C88.3417 90.6386 90.0187 90.5219 91.6958 90.4121C93.0456 90.3229 94.3932 90.2382 95.7431 90.1536C95.8872 90.1444 96.0359 90.1444 96.1801 90.165C96.4455 90.2016 96.6308 90.4281 96.6377 90.6935C96.6468 90.9978 96.5141 91.2289 96.2487 91.2701C95.7797 91.341 95.3061 91.3959 94.8325 91.4256C91.9886 91.6018 89.1425 91.762 86.2986 91.9404C84.4751 92.0571 82.6539 92.1944 80.7001 92.3294Z" fill="black"/>
<path d="M96.6722 196.567C96.6837 196.706 96.7157 196.885 96.7088 197.061C96.6974 197.308 96.5532 197.468 96.3061 197.503C96.0888 197.532 95.8692 197.537 95.6518 197.551C93.174 197.706 90.6962 197.857 88.2184 198.02C86.0334 198.161 83.8484 198.319 81.6635 198.463C81.2631 198.491 80.8604 198.507 80.46 198.495C80.0894 198.484 79.8789 198.276 79.8675 197.978C79.8583 197.695 80.0642 197.443 80.3914 197.372C80.5676 197.333 80.7529 197.329 80.9336 197.317C83.6677 197.148 86.3995 196.985 89.1335 196.814C91.3185 196.677 93.5035 196.528 95.6907 196.384C96.0156 196.363 96.3473 196.288 96.6722 196.567Z" fill="black"/>
<path d="M124.381 180.448C124.097 180.506 123.956 180.551 123.814 180.561C122.244 180.657 120.675 180.741 119.105 180.844C117.426 180.952 115.751 181.082 114.072 181.19C112.029 181.32 109.983 181.43 107.94 181.565C105.46 181.73 102.98 181.917 100.5 182.08C98.4568 182.212 96.4114 182.32 94.3683 182.446C90.973 182.656 87.58 182.871 84.1848 183.093C80.682 183.322 77.1792 183.562 73.6787 183.793C73.6123 183.798 73.5414 183.761 73.4018 183.725C73.3881 183.425 73.3583 183.105 73.3583 182.782C73.3515 180.732 73.3538 178.682 73.3446 176.635C73.2874 165.691 73.2279 154.751 73.1639 143.808C73.125 137.111 73.0792 130.414 73.038 123.717C73.0335 122.985 73.0312 122.253 73.0563 121.523C73.093 120.395 73.4956 119.377 74.1088 118.451C74.8638 117.309 75.8407 116.369 76.9389 115.566C79.2543 113.872 81.8191 112.783 84.6858 112.452C85.7886 112.326 86.8754 112.383 87.9484 112.676C88.1589 112.733 88.3716 112.799 88.589 112.827C89.0237 112.882 89.3005 112.594 89.2273 112.166C89.1175 111.518 88.9551 110.88 88.8841 110.228C88.692 108.475 88.6988 106.725 88.9962 104.982C89.0077 104.908 89.0168 104.835 89.0374 104.767C89.3852 103.52 89.4493 103.513 90.5589 103.414C92.0895 103.279 93.6224 103.183 95.153 103.076C96.9033 102.952 98.6535 102.815 100.406 102.717C102.342 102.609 104.28 102.515 106.215 102.456C108.629 102.383 111.043 102.344 113.456 102.3C116.236 102.252 119.016 102.225 121.796 102.17C122.597 102.154 123.397 102.078 124.26 102.026C124.31 102.264 124.377 102.46 124.39 102.662C124.411 102.952 124.397 103.247 124.397 103.54C124.397 128.682 124.397 153.824 124.397 178.966C124.393 179.437 124.386 179.909 124.381 180.448Z" fill="white"/>
<path d="M76.8086 113.774C77.6322 112.804 78.4147 111.793 79.291 110.871C81.4325 108.612 83.7799 106.588 86.4476 104.963C86.88 104.7 87.2964 104.405 87.8821 104.277C87.9645 105.075 87.6716 105.798 87.6647 106.54C87.6579 107.343 87.6121 108.146 87.6236 108.946C87.635 109.704 87.6991 110.459 87.7425 111.232C87.5847 111.269 87.4817 111.324 87.3879 111.312C84.5006 110.926 81.8054 111.607 79.2132 112.811C78.4536 113.163 77.7375 113.602 77.0008 114.003C76.9024 113.955 76.836 113.882 76.8086 113.774Z" fill="white"/>
<path d="M76.9997 114.003C76.8899 114.028 76.7801 114.055 76.668 114.081C76.7137 113.978 76.7595 113.877 76.8075 113.774C76.8716 113.852 76.9357 113.927 76.9997 114.003Z" fill="white"/>
<path d="M175.682 98.4701C175.666 97.9622 175.644 97.5641 175.641 97.1683C175.621 92.4117 175.607 87.6529 175.582 82.8963C175.55 76.6022 175.511 70.3082 175.477 64.0118C175.431 55.4848 175.387 46.9577 175.344 38.4307C175.342 37.8816 175.392 37.3302 175.358 36.7857C175.234 34.8112 176.074 33.2234 177.382 31.8621C179.901 29.2401 182.997 27.6866 186.582 27.149C187.888 26.9522 189.211 26.9751 190.494 27.3846C190.6 27.4166 190.7 27.4624 190.808 27.4807C191.286 27.5631 191.659 27.2382 191.524 26.7943C191.009 25.1173 191.069 23.3991 191.066 21.6808C191.066 20.7588 191.236 19.8642 191.46 18.9742C191.604 18.4045 191.924 18.1231 192.535 18.0842C195.638 17.8829 198.735 17.6404 201.836 17.4413C204.025 17.3018 206.217 17.1942 208.409 17.0981C209.761 17.0387 211.115 17.0226 212.468 16.9975C215.943 16.9311 219.416 16.8694 222.891 16.803C224.097 16.7801 225.303 16.7458 226.563 16.7161C226.6 16.922 226.655 17.1256 226.666 17.3315C226.685 17.6221 226.671 17.9172 226.671 18.2101C226.671 43.3886 226.671 68.5671 226.669 93.7479C226.669 94.178 226.724 94.6173 226.611 95.0108C226.506 95.0749 226.447 95.1412 226.383 95.1435C209.53 96.2508 192.672 97.3559 175.682 98.4701Z" fill="white"/>
<path d="M178.922 28.6292C178.977 28.4965 179.004 28.3363 179.093 28.2334C180.935 26.1514 182.811 24.1014 184.964 22.3282C186.264 21.2575 187.611 20.2508 189.073 19.4066C189.414 19.2098 189.746 18.9742 190.233 18.9238C190.142 19.736 190.025 20.4888 189.977 21.2484C189.927 22.0148 189.922 22.7835 189.934 23.5523C189.945 24.3164 190 25.0783 190.039 25.9226C189.08 25.9065 188.144 25.8196 187.22 25.8951C186.278 25.9729 185.335 26.1491 184.42 26.3939C183.507 26.6387 182.617 26.9864 181.741 27.3525C180.871 27.714 180.059 28.1945 179.254 28.6864C179.13 28.7436 179.02 28.7253 178.922 28.6292Z" fill="white"/>
<path d="M178.923 28.6292C179.033 28.6475 179.143 28.6635 179.255 28.6818C179.127 28.7802 179.001 28.8762 178.873 28.9746C178.781 28.9746 178.742 28.9289 178.751 28.8374C178.809 28.7687 178.866 28.6978 178.923 28.6292Z" fill="#BCBDDE"/>
<path d="M178.875 28.9748C178.756 28.9886 178.637 29.0046 178.515 29.0183L178.504 29.0412C178.586 28.9748 178.669 28.9062 178.753 28.8398C178.799 28.8787 178.838 28.9245 178.875 28.9748Z" fill="#BCBDDE"/>
<path d="M178.513 29.0183L178.524 29.0755L178.504 29.0389L178.513 29.0183Z" fill="#BCBDDE"/>
<path d="M173.98 15.2175C174.028 22.4198 168.329 29.1783 160.063 29.2149C151.664 29.2538 145.997 22.4015 145.98 15.2609C145.964 7.39738 152.41 1.18112 159.962 1.19485C167.844 1.21086 174.039 7.63075 173.98 15.2175Z" fill="#D52B1E"/>
<path d="M188.208 129.668C187.952 129.455 187.726 129.286 187.524 129.092C182.649 124.335 178.837 120.446 178.375 119.739C178.547 119.677 178.698 119.583 178.855 119.574C179.292 119.551 179.732 119.565 180.169 119.56C180.388 119.558 180.624 119.601 180.823 119.535C181.642 119.256 182.484 119.363 183.319 119.343C184.044 119.325 184.772 119.389 185.488 119.155C185.754 119.068 186.067 119.132 186.36 119.121C187.048 119.096 187.742 119.192 188.421 118.961C188.73 118.856 189.025 119.077 189.055 119.395C189.082 119.681 189.121 119.999 189.03 120.26C188.856 120.761 188.881 121.267 188.877 121.775C188.87 122.395 188.879 123.017 188.872 123.637C188.865 124.182 188.904 124.724 188.712 125.262C188.618 125.525 188.661 125.838 188.659 126.131C188.652 126.898 188.65 127.664 188.657 128.433C188.655 128.845 188.62 129.236 188.208 129.668Z" fill="black"/>
<path d="M117.74 162.578C117.74 163.31 117.751 164.042 117.738 164.772C117.724 165.467 117.539 165.657 116.816 165.705C114.372 165.87 111.929 166.023 109.485 166.181C107.881 166.286 106.277 166.398 104.671 166.504C103.031 166.611 101.388 166.71 99.7477 166.815C97.5605 166.954 95.3709 167.099 93.1837 167.238C90.7768 167.391 88.3676 167.538 85.9607 167.689C84.7939 167.762 83.627 167.84 82.4602 167.915C82.3138 167.924 82.1674 167.936 82.0209 167.936C81.2957 167.938 81.1172 167.783 81.108 167.032C81.0897 165.643 81.0875 164.252 81.1103 162.864C81.1241 162.086 81.3849 161.832 82.1811 161.772C83.531 161.674 84.8808 161.608 86.2307 161.518C89.2942 161.317 92.3577 161.111 95.419 160.91C96.8787 160.814 98.3383 160.734 99.798 160.64C101.621 160.521 103.445 160.39 105.268 160.274C107.165 160.155 109.062 160.054 110.958 159.935C112.709 159.825 114.459 159.699 116.209 159.58C116.429 159.567 116.646 159.542 116.866 159.544C117.522 159.553 117.724 159.738 117.735 160.384C117.751 161.113 117.74 161.845 117.74 162.578Z" fill="black"/>
<path d="M117.741 151.003C117.741 151.735 117.752 152.465 117.736 153.197C117.723 153.84 117.542 154.034 116.883 154.082C114.513 154.252 112.145 154.407 109.774 154.565C106.02 154.815 102.263 155.069 98.5086 155.309C95.5915 155.496 92.6721 155.663 89.755 155.846C87.6044 155.981 85.4515 156.132 83.3008 156.274C82.8272 156.306 82.3513 156.341 81.8777 156.343C81.3652 156.343 81.1639 156.135 81.1113 155.615C81.0998 155.506 81.1021 155.396 81.1021 155.286C81.1021 154.007 81.0998 152.726 81.1044 151.447C81.1044 151.264 81.1113 151.081 81.1433 150.902C81.2097 150.545 81.4247 150.31 81.7839 150.239C82.0333 150.188 82.2896 150.159 82.5435 150.143C86.1172 149.914 89.6933 149.685 93.267 149.461C96.1841 149.278 99.1035 149.113 102.021 148.921C104.427 148.763 106.83 148.566 109.237 148.406C111.243 148.273 113.25 148.173 115.256 148.054C115.657 148.031 116.057 147.983 116.457 147.962C116.711 147.951 116.97 147.942 117.219 147.981C117.546 148.031 117.725 148.244 117.732 148.591C117.745 149.397 117.736 150.2 117.736 151.005C117.739 151.003 117.741 151.003 117.741 151.003Z" fill="black"/>
<path d="M117.738 139.47C117.738 140.202 117.752 140.934 117.734 141.664C117.722 142.201 117.546 142.396 117.034 142.462C116.526 142.526 116.016 142.57 115.505 142.604C112.405 142.81 109.307 143.013 106.207 143.213C104.274 143.336 102.341 143.444 100.407 143.567C97.3439 143.762 94.2803 143.961 91.2168 144.157C88.2631 144.347 85.3071 144.535 82.3534 144.725C82.2436 144.732 82.1338 144.748 82.0263 144.748C81.3811 144.755 81.1225 144.558 81.1134 143.938C81.0928 142.476 81.0905 141.012 81.118 139.55C81.1294 138.893 81.3834 138.673 82.0675 138.575C82.175 138.559 82.2848 138.552 82.3946 138.545C84.3645 138.429 86.3344 138.321 88.3043 138.195C90.018 138.085 91.7293 137.953 93.443 137.836C94.8661 137.74 96.2891 137.655 97.7099 137.564C99.57 137.44 101.428 137.307 103.288 137.191C105.368 137.06 107.447 136.953 109.527 136.82C111.861 136.671 114.194 136.504 116.528 136.347C116.709 136.335 116.896 136.308 117.073 136.337C117.45 136.399 117.743 136.573 117.738 137.058C117.729 137.863 117.736 138.666 117.736 139.472C117.736 139.47 117.738 139.47 117.738 139.47Z" fill="black"/>
<path d="M83.6352 124.223C83.1983 124.255 82.7613 124.291 82.3243 124.314C82.1435 124.324 81.9582 124.324 81.782 124.289C81.5464 124.246 81.3244 123.946 81.3496 123.724C81.3771 123.488 81.5098 123.305 81.7386 123.246C82.02 123.175 82.3105 123.129 82.6011 123.106C83.8389 123.015 85.0789 122.937 86.319 122.85C89.053 122.662 91.7848 122.473 94.5188 122.285C96.2325 122.168 97.9462 122.061 99.6598 121.944C100.57 121.882 101.481 121.802 102.392 121.745C102.682 121.727 102.977 121.727 103.266 121.759C103.506 121.786 103.643 121.962 103.68 122.203C103.716 122.447 103.611 122.665 103.403 122.749C103.174 122.843 102.911 122.871 102.659 122.889C100.255 123.061 97.8478 123.221 95.4432 123.388C92.8555 123.568 90.2679 123.752 87.6803 123.937C86.3327 124.033 84.9851 124.131 83.6375 124.23C83.6352 124.227 83.6352 124.225 83.6352 124.223Z" fill="black"/>
<path d="M83.6568 130.567C83.2198 130.602 82.7828 130.638 82.3458 130.666C82.1651 130.677 81.9798 130.679 81.8036 130.65C81.5565 130.608 81.3323 130.327 81.3529 130.103C81.3735 129.865 81.5062 129.68 81.7327 129.618C82.0118 129.54 82.3024 129.485 82.5906 129.464C83.9016 129.366 85.2149 129.286 86.5259 129.197C89.2599 129.011 91.9917 128.824 94.7257 128.641C96.3296 128.533 97.9334 128.433 99.5372 128.321C100.484 128.254 101.429 128.167 102.377 128.101C102.667 128.08 102.96 128.08 103.251 128.108C103.509 128.133 103.697 128.394 103.688 128.657C103.678 128.902 103.543 129.069 103.324 129.153C103.191 129.206 103.04 129.224 102.898 129.236C102.134 129.297 101.368 129.352 100.603 129.405C97.469 129.627 94.3368 129.851 91.2023 130.071C88.6879 130.245 86.1735 130.412 83.6591 130.581C83.6568 130.579 83.6568 130.572 83.6568 130.567Z" fill="black"/>
<path d="M220.044 54.0204C220.044 54.716 220.053 55.4092 220.042 56.1047C220.031 56.8849 219.864 57.0862 219.093 57.1412C217.416 57.2647 215.736 57.3585 214.059 57.4683C211.542 57.6354 209.028 57.8115 206.511 57.9763C204.578 58.1021 202.645 58.2165 200.711 58.34C197.685 58.5322 194.658 58.7244 191.631 58.9189C189.37 59.0653 187.11 59.23 184.849 59.3581C183.481 59.4359 183.406 59.3444 183.401 58.0037C183.397 56.9055 183.399 55.8096 183.401 54.7114C183.401 54.4918 183.392 54.2698 183.419 54.0548C183.486 53.5308 183.733 53.2792 184.275 53.2265C185.039 53.1533 185.806 53.1099 186.57 53.0618C190.29 52.8216 194.01 52.5791 197.73 52.3434C201.377 52.1146 205.026 51.8995 208.673 51.6662C211.993 51.4557 215.311 51.2292 218.628 51.0141C219.964 50.9272 220.028 50.9935 220.04 52.3731C220.049 52.9245 220.044 53.4736 220.044 54.0204Z" fill="black"/>
<path d="M220.047 65.6156C220.047 66.3477 220.059 67.0799 220.045 67.8097C220.031 68.4572 219.855 68.6791 219.212 68.7294C217.572 68.8576 215.931 68.9537 214.289 69.0635C212.612 69.1733 210.935 69.2854 209.257 69.3952C207.654 69.5005 206.048 69.6011 204.444 69.7087C202.584 69.8322 200.726 69.9649 198.866 70.0816C196.823 70.2074 194.78 70.3081 192.736 70.4408C190.293 70.601 187.852 70.784 185.411 70.9533C184.974 70.983 184.534 71.0059 184.095 70.9968C183.718 70.9899 183.484 70.7703 183.432 70.3973C183.399 70.1823 183.404 69.9603 183.404 69.7407C183.402 68.5693 183.404 67.4002 183.404 66.2287C183.404 66.0823 183.397 65.9359 183.411 65.7895C183.473 65.126 183.701 64.8766 184.367 64.8285C185.788 64.7279 187.213 64.6501 188.634 64.5563C192.354 64.3115 196.072 64.0552 199.792 63.815C202.673 63.6297 205.556 63.465 208.438 63.2796C211.248 63.1012 214.055 62.9067 216.863 62.7214C217.592 62.6733 218.322 62.6299 219.052 62.5887C219.162 62.5818 219.272 62.5887 219.379 62.6001C219.828 62.6505 220.031 62.8495 220.04 63.3094C220.056 64.0781 220.045 64.8446 220.045 65.6133C220.045 65.6156 220.047 65.6156 220.047 65.6156Z" fill="black"/>
<path d="M220.047 77.2109C220.047 77.9431 220.059 78.6729 220.045 79.405C220.031 80.0685 219.864 80.2516 219.228 80.3362C218.937 80.3751 218.647 80.4049 218.354 80.4232C215.51 80.5993 212.664 80.7686 209.82 80.9517C206.866 81.1416 203.915 81.3521 200.964 81.5442C199.433 81.6449 197.898 81.7204 196.367 81.8188C194.727 81.924 193.089 82.0522 191.446 82.1551C189.076 82.3061 186.705 82.4548 184.333 82.5853C183.642 82.6241 183.42 82.4022 183.411 81.6792C183.395 80.2905 183.406 78.8994 183.408 77.5107C183.408 77.4374 183.408 77.3642 183.42 77.291C183.493 76.7534 183.715 76.5154 184.262 76.4582C184.916 76.3896 185.573 76.3438 186.229 76.3026C189.037 76.1265 191.846 75.9595 194.654 75.7787C197.497 75.5957 200.341 75.3989 203.185 75.2159C206.942 74.9734 210.699 74.7377 214.455 74.4975C215.879 74.406 217.299 74.3122 218.722 74.2183C218.832 74.2115 218.94 74.184 219.05 74.1817C219.889 74.1589 220.088 74.502 220.056 75.1244C220.017 75.8199 220.045 76.5177 220.047 77.2109C220.045 77.2109 220.045 77.2109 220.047 77.2109Z" fill="black"/>
<path d="M188.005 38.7144C186.911 38.7899 185.82 38.8677 184.727 38.9363C184.509 38.9501 184.287 38.9523 184.074 38.918C183.827 38.8791 183.621 38.5886 183.647 38.3575C183.672 38.1173 183.814 37.9365 184.036 37.8793C184.317 37.8084 184.612 37.7832 184.903 37.7603C186.687 37.6299 188.472 37.5041 190.259 37.3805C193.1 37.1815 195.942 36.9893 198.786 36.7903C200.79 36.6507 202.792 36.502 204.796 36.3601C205.013 36.3441 205.235 36.3395 205.453 36.3624C205.778 36.3967 206.004 36.6644 205.984 36.9481C205.965 37.1998 205.784 37.4172 205.494 37.456C204.915 37.5315 204.334 37.5933 203.751 37.6345C200.838 37.845 197.923 38.0578 195.008 38.2545C192.677 38.4124 190.343 38.5497 188.01 38.6938C188.003 38.703 188.005 38.7075 188.005 38.7144Z" fill="black"/>
<path d="M185.121 45.3218C184.828 45.3218 184.535 45.3379 184.247 45.315C184.112 45.3035 183.968 45.2372 183.854 45.1571C183.57 44.9649 183.584 44.4845 183.874 44.3197C183.998 44.2511 184.144 44.2054 184.286 44.1848C184.648 44.1321 185.011 44.0818 185.375 44.0589C188.292 43.8644 191.209 43.6837 194.126 43.4824C197.664 43.2376 201.198 42.9722 204.733 42.7182C204.951 42.7022 205.172 42.693 205.39 42.7091C205.722 42.7319 205.966 42.963 205.989 43.2398C206.012 43.5258 205.806 43.7912 205.465 43.8347C204.886 43.9102 204.303 43.9628 203.72 44.004C200.841 44.2145 197.961 44.4227 195.08 44.6195C193.147 44.7522 191.214 44.862 189.281 44.9901C187.894 45.0816 186.51 45.1869 185.126 45.2852C185.121 45.2967 185.121 45.3104 185.121 45.3218Z" fill="black"/>
<path d="M157.24 17.954C156.771 17.9288 156.451 17.8991 156.128 17.8968C154.774 17.8922 153.421 17.9036 152.067 17.8922C151.705 17.8876 151.326 17.8739 150.987 17.7641C149.321 17.2264 148.727 15.0964 149.848 13.7076C150.424 12.9938 151.147 12.5408 152.108 12.5476C153.426 12.5568 154.741 12.5499 156.059 12.5385C156.416 12.5339 156.794 12.6277 157.187 12.328C157.203 12.0603 157.238 11.74 157.238 11.4197C157.24 10.0286 157.29 8.6353 157.212 7.24882C157.123 5.64042 158.62 4.59713 159.679 4.49417C161.328 4.33173 162.681 5.60838 162.642 7.26941C162.61 8.69478 162.598 10.1224 162.589 11.5478C162.587 11.8292 162.637 12.1129 162.669 12.4492C162.964 12.4859 163.209 12.5431 163.454 12.5385C164.952 12.5248 166.451 12.511 167.95 12.4676C169.62 12.4195 170.997 14.2018 170.567 15.8811C170.235 17.1784 169.299 17.9014 167.929 17.9059C166.575 17.9105 165.222 17.8991 163.868 17.8991C163.506 17.8991 163.145 17.9105 162.857 17.9174C162.539 18.2194 162.589 18.5237 162.587 18.8119C162.582 20.2396 162.598 21.6673 162.58 23.0949C162.575 23.4907 162.552 23.914 162.415 24.2778C161.825 25.845 159.864 26.3758 158.487 25.3531C157.672 24.7491 157.242 23.9323 157.242 22.9073C157.24 21.6627 157.24 20.4181 157.24 19.1734C157.24 18.8051 157.24 18.4436 157.24 17.954Z" fill="black"/>
<path d="M82.3516 166.728C82.3516 165.447 82.3516 164.284 82.3516 163.053C82.5758 163.008 82.7771 162.941 82.9807 162.928C84.6944 162.809 86.408 162.701 88.1217 162.587C89.8353 162.47 91.5467 162.344 93.2581 162.232C94.8253 162.129 96.3948 162.044 97.962 161.946C100.842 161.761 103.721 161.569 106.601 161.383C109.809 161.177 113.019 160.978 116.229 160.781C116.329 160.775 116.432 160.818 116.528 160.839C116.7 161.742 116.691 163.538 116.501 164.467C116.391 164.502 116.258 164.573 116.123 164.582C114.776 164.673 113.426 164.751 112.078 164.84C109.527 165.01 106.976 165.188 104.425 165.355C102.458 165.483 100.488 165.595 98.518 165.721C96.7311 165.835 94.9465 165.964 93.162 166.08C91.668 166.179 90.1717 166.261 88.6777 166.359C86.8908 166.478 85.1062 166.607 83.3216 166.725C83.0357 166.744 82.7497 166.728 82.3516 166.728Z" fill="#D6E3F2"/>
<path d="M82.3773 155.169C82.279 153.842 82.2858 152.655 82.3659 151.433C82.5489 151.394 82.6839 151.346 82.8212 151.337C93.9153 150.619 105.012 149.905 116.106 149.191C116.245 149.182 116.385 149.207 116.513 149.214C116.701 150.118 116.691 151.923 116.488 152.877C116.346 152.911 116.179 152.975 116.005 152.987C113.816 153.126 111.624 153.254 109.434 153.396C107.281 153.533 105.128 153.682 102.975 153.826C99.7998 154.037 96.6265 154.25 93.4508 154.451C90.4216 154.643 87.3924 154.822 84.3632 155.011C83.7478 155.05 83.1301 155.11 82.3773 155.169Z" fill="#D6E3F2"/>
<path d="M82.3682 143.478C82.2812 142.222 82.2881 141.035 82.3613 139.792C82.5947 139.765 82.7686 139.733 82.9424 139.724C94.0732 139.003 105.206 138.287 116.337 137.571C116.399 137.566 116.465 137.619 116.529 137.644C116.701 138.55 116.689 140.339 116.492 141.263C116.273 141.307 116.033 141.38 115.788 141.396C113.745 141.526 111.699 141.638 109.654 141.769C108.121 141.867 106.59 141.986 105.057 142.089C103.488 142.194 101.918 142.293 100.349 142.398C98.4888 142.522 96.6265 142.652 94.7664 142.769C93.0505 142.876 91.3345 142.961 89.6186 143.071C87.6487 143.197 85.6788 143.345 83.7066 143.473C83.3108 143.501 82.9081 143.478 82.3682 143.478Z" fill="#D6E3F2"/>
<path d="M184.638 58.1273C184.576 56.8347 184.601 55.6747 184.611 54.5765C184.72 54.4919 184.748 54.469 184.778 54.4484C184.807 54.4278 184.837 54.3912 184.867 54.3889C196.171 53.6476 207.476 52.9063 218.824 52.165C219.096 52.7828 218.95 53.4051 218.954 54.0045C218.959 54.6177 219.046 55.2446 218.831 55.9195C218.563 55.9653 218.284 56.0385 218.003 56.0545C213.99 56.3062 209.974 56.5418 205.964 56.7981C203.083 56.9811 200.203 57.1985 197.322 57.3861C194.476 57.5714 191.63 57.7384 188.786 57.9169C187.729 57.9832 186.672 58.061 185.613 58.1251C185.327 58.1411 185.041 58.1273 184.638 58.1273Z" fill="#D6E3F2"/>
<path d="M184.612 69.7409C184.598 68.4322 184.571 67.2722 184.63 66.0802C185.287 65.9064 185.909 65.8972 186.518 65.856C188.559 65.7188 190.604 65.6227 192.645 65.49C195.015 65.3367 197.383 65.1536 199.751 64.9958C201.719 64.8654 203.689 64.7533 205.659 64.6274C207.446 64.513 209.23 64.3849 211.017 64.2682C212.548 64.1698 214.08 64.0806 215.613 63.9868C216.67 63.9227 217.725 63.8564 218.81 63.79C219.102 64.4055 218.947 65.0324 218.949 65.6341C218.949 66.245 219.064 66.8741 218.8 67.5445C218.496 67.5834 218.178 67.6406 217.856 67.6612C214.209 67.9037 210.564 68.1417 206.917 68.375C204.256 68.5466 201.593 68.7045 198.93 68.8761C195.866 69.0728 192.805 69.2765 189.742 69.4778C188.355 69.567 186.971 69.6585 185.585 69.7409C185.305 69.7546 185.019 69.7409 184.612 69.7409Z" fill="#D6E3F2"/>
<path d="M218.855 75.376C219.034 76.7647 218.995 78.3526 218.78 79.119C218.658 79.151 218.521 79.2128 218.382 79.222C207.262 79.9358 196.143 80.645 185.024 81.3497C184.923 81.3566 184.82 81.3017 184.658 81.2582C184.562 80.0708 184.562 78.8879 184.66 77.6799C185.793 77.4534 186.886 77.4397 187.971 77.3665C191.032 77.1606 194.095 76.9684 197.157 76.7762C200.181 76.5863 203.208 76.4078 206.233 76.2156C209.514 76.0097 212.794 75.797 216.075 75.5819C216.986 75.5247 217.892 75.4492 218.855 75.376Z" fill="#D6E3F2"/>
<path d="M161.471 13.6961C162.519 13.6961 163.431 13.6961 164.344 13.6961C165.552 13.6938 166.76 13.6755 167.966 13.6938C168.819 13.7052 169.453 14.403 169.446 15.2679C169.44 16.1007 168.868 16.7138 167.991 16.7253C166.198 16.7504 164.406 16.7298 162.612 16.7344C162.255 16.7344 161.899 16.7596 161.482 16.7756C161.462 17.1188 161.434 17.4002 161.432 17.6839C161.427 19.3678 161.43 21.0517 161.43 22.7356C161.43 22.9919 161.446 23.2504 161.409 23.5021C161.281 24.4195 160.377 24.9229 159.519 24.5637C158.888 24.2983 158.558 23.7881 158.442 23.1406C158.391 22.8546 158.405 22.5572 158.405 22.2643C158.403 20.8367 158.405 19.409 158.405 17.9813C158.405 17.6176 158.405 17.2561 158.405 16.8397C158.151 16.7985 157.947 16.7367 157.744 16.7344C155.987 16.7276 154.232 16.7321 152.475 16.7276C152.182 16.7276 151.882 16.7459 151.601 16.6887C150.573 16.4827 150.152 15.4784 150.695 14.5723C150.999 14.0644 151.463 13.799 152.033 13.7144C152.285 13.6778 152.543 13.6915 152.8 13.6915C154.337 13.6892 155.872 13.6915 157.41 13.6892C157.696 13.6892 157.982 13.6801 158.339 13.6732C158.364 13.3689 158.4 13.1264 158.403 12.8816C158.407 11.0512 158.419 9.22091 158.393 7.39058C158.387 6.83461 158.526 6.37703 158.954 6.03155C159.453 5.62888 160.022 5.54652 160.604 5.81191C161.146 6.05901 161.439 6.49142 161.436 7.11374C161.43 8.90746 161.432 10.7012 161.434 12.4949C161.432 12.8587 161.455 13.2179 161.471 13.6961Z" fill="white"/>
</svg>
