<svg width="200" height="200" viewBox="0 0 200 200" fill="none" xmlns="http://www.w3.org/2000/svg">
<path d="M94.2384 70.0488C98.2439 71.1484 101.486 73.7234 105.042 75.6846C107.105 76.8224 108.141 78.7386 108.186 81.104C108.245 84.4193 108.23 87.6713 108.24 90.9966C110.345 89.7989 112.433 89.6076 114.482 90.92C125.724 97.4041 136.951 103.915 148.21 110.367C150.306 111.568 151.566 113.185 151.657 115.634C151.872 130.3 151.519 145.06 151.793 159.707C151.685 161.492 150.584 162.516 149.102 163.28C146.505 164.379 144.283 166.785 141.42 167.046C141.189 167.024 140.958 167.049 140.823 167.257C139.902 168.693 138.343 169.271 136.969 170.068C130.929 173.571 124.879 177.055 118.829 180.54C114.1 183.263 109.387 186.017 104.647 188.72C103.798 189.399 102.502 188.812 101.81 189.645C99.7543 192.272 96.2711 193.16 93.6162 195.058C90.1796 197.231 86.2755 195.233 83.3661 193.212C71.727 186.545 60.1345 179.793 48.5004 173.117C46.1599 171.793 44.9739 169.832 45.0853 167.122C45.0886 153.427 45.0853 139.734 45.0853 126.044C45.0504 122.582 48.695 121.399 51.1536 119.901C51.8672 119.523 52.11 119.031 52.1084 118.244C52.0867 111.4 52.115 104.557 52.0867 97.7119C52.0751 94.6362 53.311 92.3805 56.0141 90.8235C67.0527 84.4592 78.0863 78.0816 89.1216 71.7089C90.6803 70.789 92.362 69.9191 94.2384 70.0455" fill="black"/>
<path d="M45.1364 166.858C45.1015 166.872 45.0349 166.872 45 166.858V125.771C45.0466 125.755 45.0932 125.756 45.1397 125.773C45.1264 139.467 45.1913 153.165 45.1364 166.857" fill="#E9CFC6"/>
<path d="M49.0254 125.293C49.3531 125.73 49.591 126.314 50.0235 126.582C61.819 133.865 73.9355 140.613 85.9189 147.578C87.9566 148.586 89.69 150.389 89.6966 152.795C89.6068 166.275 89.9711 179.81 89.6018 193.266C89.3356 194.133 88.9314 194.361 88.1097 194C74.5759 186.273 60.6762 178.866 47.6331 170.389C46.497 169.208 46.4571 167.639 46.4571 166.097C46.5436 152.666 46.2891 139.221 46.5619 125.797C47.3237 125.339 48.1638 125.263 49.0254 125.293Z" fill="#DCA8A8"/>
<path d="M75.4279 126.986C62.0605 119.123 66.8595 125.038 65.9679 105.751C65.943 103.479 66.9527 101.867 68.834 100.772C80.4748 93.6909 92.8874 87.6077 104.001 79.7812C103.948 79.683 103.894 79.5866 103.841 79.4884C100.752 80.5031 98.0457 82.5358 95.1513 84.018C85.5716 89.9947 74.9705 94.6623 66.0195 101.507C65.0148 102.569 64.6621 103.936 64.6688 105.413C64.6555 110.552 64.7553 115.673 64.6405 120.81C59.6485 118.298 59.3957 116.204 53.7183 118.458C53.6751 110.894 53.3341 103.339 55.1772 95.9548C55.4383 95.5955 55.6779 95.8683 55.8775 96.013C58.6937 97.8262 61.3519 99.6776 64.6072 100.694C62.0422 98.7228 59.1977 97.2889 56.3632 95.7452C56.0954 95.6088 55.7943 95.5024 55.6978 95.1647C55.6646 94.7122 56.0338 94.5609 56.3166 94.3579C63.5243 89.0732 71.8698 85.6032 79.5 80.9539C83.958 78.4338 88.4942 76.0551 92.9839 73.5948C95.005 72.8862 98.5132 75.1285 100.273 76.1998C101.787 77.2727 103.394 78.2059 104.969 79.1857C105.377 79.4385 105.789 79.6864 105.706 80.2719C105.636 80.8059 105.538 82.5691 104.713 81.4663C104.626 81.2933 104.558 81.082 104.304 81.2816C103.706 82.8103 102.657 84.4471 103.259 86.1405C104.172 85.9825 103.916 84.3689 104.749 84.3423C105.247 85.006 104.269 85.9476 105.089 86.4466C105.503 86.7194 105.317 87.2816 105.611 87.6177C106.476 87.4879 106.077 86.257 106.89 86.1788C106.99 93.7108 106.992 101.271 106.887 108.803C97.6715 114.619 87.1186 118.468 77.9464 124.528C76.9283 125.163 76.0051 125.898 75.4279 126.985" fill="#E9CFC6"/>
<path d="M102.262 150.616C102.403 146.57 102.509 142.53 98.5222 140.455C91.7187 136.43 84.8687 132.544 78.0469 128.542C87.4104 123.136 96.6824 117.769 106.046 112.388C107.145 111.756 108.355 111.713 109.461 112.35C119.032 117.849 128.559 123.43 138.139 128.914C139.148 129.525 137.819 130.34 137.274 130.699C125.55 137.225 114.127 144.436 102.262 150.616Z" fill="#E9CFC6"/>
<path d="M49.0261 125.297C48.2043 125.465 47.3842 125.633 46.5625 125.801C46.9933 125.109 47.2645 124.164 47.8849 123.77C50.4683 122.128 53.1581 120.651 55.8079 119.114C57.3982 120.628 59.8468 120.914 61.8129 121.806C68.7878 125.721 75.4681 130.281 82.4978 134.165C87.8674 137.341 92.9992 140.895 98.3787 144.056C100.024 145.219 99.4117 149.208 99.5897 151.086C99.623 157.876 100.608 163.051 101.054 169.808C101.415 175.267 101.137 183.238 101.22 188.129C101.095 189.015 100.248 189.341 99.5082 189.779C96.6072 191.313 93.8725 193.493 90.7668 194.531C91.5769 180.765 90.8783 166.957 91.0862 153.163C91.0812 150.562 89.9767 148.461 87.7294 147.13C74.7994 139.946 62.3552 131.658 49.0261 125.296" fill="#E9CFC6"/>
<path d="M150.401 131.59C150.482 140.709 150.409 149.828 150.441 158.948C150.441 160.08 150.116 160.935 149.017 161.52C146.819 162.693 144.692 163.994 142.528 165.231C141.43 165.858 141.097 165.657 141.097 164.404C141.097 159.414 141.125 154.424 141.071 149.435C140.726 146.892 140.189 147.003 140.899 144.268C140.929 141.165 140.876 138.059 140.891 134.955C140.914 130.023 140.957 125.091 141.009 120.16C141.026 118.583 140.432 117.263 139.239 116.298C129.418 109.86 118.903 104.462 108.813 98.439C108.369 98.1845 108.201 97.9083 108.223 97.3977C108.272 96.1534 108.261 94.9058 108.272 93.6599C108.54 93.3888 108.89 93.4536 109.214 93.4487C110.62 93.4819 111.954 92.7667 113.198 93.7747C119.675 97.7587 125.993 102.11 132.958 105.221C138.076 107.676 143.005 110.516 147.894 113.398C148.563 113.804 148.822 114.3 148.869 115.075C149.25 120.584 149.978 126.105 150.399 131.59" fill="#E9CFC6"/>
<path d="M138.841 167.137C126.636 173.979 114.806 181.622 102.338 187.917C102.165 181.837 102.262 175.779 102.298 169.702C114.718 164.454 125.876 156.478 137.721 150.044C138.062 149.841 138.5 149.438 138.799 150.138C138.668 153.254 138.807 156.373 138.601 159.489C138.455 161.693 138.681 163.898 138.957 166.091C139.004 166.455 139.022 166.804 138.842 167.137" fill="#E9CFC6"/>
<path d="M138.177 146.653C126.206 153.485 114.477 160.776 102.297 167.206V151.989C111.968 147.353 120.866 141.292 130.316 136.223C132.615 135.965 134.656 134.962 136.642 133.864C137.079 133.683 137.479 133.106 137.969 133.45C138.412 133.76 138.237 134.375 138.207 134.858C138.034 138.783 137.618 142.767 138.177 146.651" fill="#E9CFC6"/>
<path d="M108.28 99.665C117.945 105.243 127.539 110.739 137.179 116.333C138.733 117.234 139.749 118.482 139.658 120.495C139.538 123.113 139.628 125.741 139.628 128.321C129.474 122.589 119.61 116.236 109.265 110.946C108.506 110.83 108.248 110.507 108.26 109.714C108.308 106.419 108.28 103.123 108.28 99.665Z" fill="#DCA8A8"/>
<path d="M106.891 86.1817C106.147 87.8236 105.439 88.9846 104.985 86.408C104.825 86.0686 104.988 85.7543 105.079 85.4432C105.449 84.1939 105.745 82.9314 105.923 81.6372C106.109 80.8471 105.622 80.1834 105.197 79.5979C102.869 78.1124 100.566 76.5804 98.1695 75.213C96.8753 74.6508 94.5315 73.2834 93.1575 73.7691C89.0671 75.9682 84.99 78.1939 80.9229 80.4362C72.7338 85.2885 63.9591 89.1992 56.1925 94.7069C55.9347 95.0196 55.567 95.3456 55.3774 95.7216C54.7752 98.4546 54.7137 101.354 53.7023 103.969C53.9868 100.05 52.1403 94.7135 56.437 92.4396C67.0098 86.3631 77.5544 80.2349 88.1089 74.1251C90.644 72.7644 93.4469 70.1811 96.3496 72.1157C99.1592 73.7192 101.977 75.3112 104.752 76.9729C107.957 78.8693 106.648 83.0927 106.893 86.1817" fill="#F2E0E0"/>
<path d="M150.401 131.595C149.232 126.139 149.243 120.303 148.609 114.711C148.578 114.386 148.345 113.956 148.075 113.801C144.454 111.728 140.828 109.664 137.167 107.664C130.596 104.496 124.345 100.733 118.044 97.0667C116.112 95.9388 114.239 94.7112 112.325 93.5551C111.051 93.1326 109.598 93.6583 108.274 93.6649C108.068 92.903 108.437 92.5404 109.058 92.093C110.756 90.8653 112.267 91.1431 113.968 92.1345C125.08 98.6037 136.223 105.02 147.365 111.439C149.37 112.292 150.378 113.658 150.408 115.897C150.431 121.13 150.408 126.363 150.399 131.596" fill="#F2E0E0"/>
<path d="M100.994 169.857C99.0628 162.039 99.8579 153.667 99.0645 145.646C99.0279 144.997 98.8 144.569 98.1895 144.195C90.6258 139.414 83.0072 134.727 75.2939 130.191C69.8295 126.977 64.7493 123.055 58.7243 120.915C57.6497 120.42 56.329 120.338 55.8066 119.116C57.2122 118.352 58.4249 118.71 59.749 119.508C72.7039 127.27 86.0846 134.369 98.9031 142.34C100.52 143.573 101.032 145.291 101.031 147.243C100.991 154.778 101.082 162.328 100.992 169.857" fill="#F2E0E0"/>
<path d="M75.4274 126.986C75.1596 125.26 82.1361 121.988 83.7064 120.923C91.3599 116.751 99.3061 113.098 106.886 108.807C106.915 109.437 106.943 110.066 106.966 110.585C96.7195 115.76 87.2063 121.876 77.2273 127.479C76.3806 127.973 75.9947 127.261 75.4274 126.988" fill="#DCA8A8"/>
<path d="M138.618 149.872C130.825 154.202 123.16 158.753 115.455 163.235C111.1 165.389 107.071 168.606 102.297 169.704V168.679C115.011 162.07 127.125 154.49 139.605 147.438C139.666 148.119 139.718 148.678 139.768 149.235C139.433 149.534 139.016 149.687 138.618 149.874" fill="#DCA8A8"/>
<path d="M138.18 146.655C138.003 145.83 137.682 145.007 137.679 144.182C137.716 140.527 137.679 137.059 138.045 133.386C136.017 134.414 132.438 136.645 130.318 136.227C133.436 134.411 136.375 132.691 139.471 130.751C139.75 135.242 139.589 139.737 139.602 144.233C139.594 145.278 139.208 146.174 138.18 146.657" fill="#F2E0E0"/>
<path d="M138.619 149.871C139.001 149.658 139.386 149.445 139.768 149.232C139.778 154.567 139.8 159.902 139.785 165.236C139.783 165.982 139.604 166.727 138.84 167.136C138.396 161.394 138.073 155.613 138.619 149.871Z" fill="#F2E0E0"/>
<path d="M55.3758 95.7229C55.2993 95.5732 55.2244 95.4218 55.1113 95.1973C58.6777 96.1654 61.8666 98.8236 65.097 100.7C65.0471 100.803 64.9955 100.906 64.9456 101.011C61.8765 100.055 59.2267 98.0484 56.3656 96.6029C55.9896 96.3916 55.7035 96.0207 55.3775 95.7229" fill="black"/>
<path d="M105.547 80.1898C106.535 80.1299 106.252 80.9018 106.174 81.3276C105.753 83.1574 105.522 85.0853 104.79 86.8203C104.699 86.7654 104.607 86.7105 104.516 86.6539C104.582 85.8888 104.649 85.1236 104.717 84.3584C104.447 83.8693 104.76 83.367 104.82 82.8746C104.976 82.4903 104.863 81.9996 105.276 81.7168L105.544 80.1898H105.547Z" fill="black"/>
<path d="M105.279 81.7155C105.216 82.2545 104.991 82.82 104.964 83.3157C104.683 84.4835 104.319 85.8608 103.194 86.4779C102.897 85.9473 102.832 85.4017 102.908 84.8078C103.86 83.7283 104.5 82.5422 104.219 81.0352C104.688 81.1067 105.036 81.2996 105.28 81.7155" fill="#F2E0E0"/>
<path d="M72.0912 108.1C70.9617 107.995 67.8594 105.286 67.6465 104.221C68.3152 104.184 71.83 107.255 72.0912 108.1Z" fill="black"/>
<path d="M104.217 81.0352C105.127 81.7504 103.826 84.4751 102.906 84.8078C103.162 83.4871 103.678 82.2611 104.217 81.0352Z" fill="black"/>
<path d="M69.8457 104.036C70.744 104.116 71.9699 104.988 72.434 105.874C71.6589 106.042 69.8956 104.79 69.8457 104.036Z" fill="black"/>
<path d="M104.963 83.3093C104.981 83.2128 104.999 83.1163 105.018 83.0215C104.999 83.118 104.981 83.2144 104.963 83.3093Z" fill="#E9CFC6"/>
<path d="M99.5898 151.079C99.6231 157.869 101.054 163.031 101.054 169.801C101.054 175.439 101.323 182.297 100.879 187.791" fill="#E9CFC6"/>
<path d="M154.504 43.8668C153.817 36.2366 153.811 28.4749 153.044 20.8248C152.889 19.7003 152.568 18.456 151.375 18.1633C150.821 18.0119 150.301 18.3213 149.893 17.9337C149.476 17.4979 149.589 16.4067 148.898 15.2356C148.647 14.8247 148.306 14.3923 147.95 14.0962C143.575 11.1602 138.785 8.72823 134.255 6.01017C133.264 5.4263 132.286 4.77755 131.203 4.37167C130.418 4.10552 129.483 3.82107 128.659 4.14378C127.365 4.76757 126.372 5.35477 125.989 6.79364C124.85 35.2984 125.93 63.9828 125.577 92.5458C125.584 93.0332 125.366 93.0198 125.129 92.6422C123.009 89.4867 120.886 86.3312 118.797 83.2172C118.645 82.9926 118.619 82.7597 118.735 82.5086C119.951 80.0334 120.407 77.1955 120.457 74.4176C120.505 73.2798 121.708 72.7192 122.328 72.0272C123.173 71.079 122.287 69.7233 121.535 68.9781C120.545 67.9019 120.33 67.1716 120.276 66.2251C120.244 65.6562 120.264 65.0041 120.216 64.1558C120.186 63.8564 120.302 63.552 120.602 63.4522C121.946 62.9947 122.877 62.0482 122.638 60.616C122.361 58.387 122.082 56.1264 121.427 53.9789C120.899 52.8444 119.675 52.8444 118.91 51.9145C114.167 42.0819 100.574 36.6807 91.1753 43.1532C89.9709 44.3209 89.5102 45.9661 89.0111 47.6345C86.2698 52.8361 85.5994 58.6465 87.8068 64.1824C88.3441 65.2404 87.5523 66.3183 87.5673 67.3829C87.8035 68.8667 88.5071 70.239 89.076 71.6296C89.7181 73.0885 90.1872 74.2379 92.1384 74.1082C92.4428 74.0982 92.7738 74.1747 92.9685 74.4176C93.7486 75.404 94.4938 76.3771 95.2557 77.3319C95.6616 77.816 96.1506 78.5097 95.7215 79.1235C95.0927 79.9269 94.1512 80.4359 93.3876 81.0996C91.3699 82.6749 89.3455 84.2751 87.4625 86.0118C84.7128 88.5369 82.2609 91.413 80.6357 94.7947C77.703 100.707 75.1563 106.835 72.1721 112.703C71.9775 113.146 71.9758 113.698 72.222 114.127C73.5162 116.298 76.0762 117.095 77.9426 118.649C81.0466 124.437 84.9374 129.827 88.0596 135.636C88.6552 136.735 89.4786 137.678 90.4783 138.492C92.4827 140.115 95.3272 141.155 97.6544 139.646C98.6208 138.841 101.267 143.539 103.751 143.041C103.902 143.02 104.069 143.016 104.18 143.136C105.225 145.834 104.26 147.153 107.203 148.379C108.196 148.803 108.886 148.948 108.986 150.189C109.202 151.596 110.167 152.453 110.631 153.607C110.884 154.171 110.89 154.863 110.889 155.475C111.087 160.025 111.348 164.568 111.619 169.111C112.058 171.975 111.396 175.711 112.81 178.261C112.983 178.504 113.234 178.689 113.267 179.061C113.404 180.036 113.011 181.058 112.95 182.034C112.906 182.473 112.95 182.926 112.82 183.351C112.712 183.736 112.303 183.972 112.14 184.32C112.041 184.534 111.995 184.78 111.963 185.013C111.747 186.392 112.379 187.555 113.53 188.257C117.897 191.15 122.361 193.911 127.312 195.623C130.579 195.967 134.142 194.719 135.632 192.572C136.95 190.998 136.534 187.981 134.91 186.257C133.495 184.76 131.936 183.243 130.241 182.072C129.81 181.851 129.303 181.776 128.935 181.44C128.182 180.791 127.655 179.916 126.949 179.219C126.131 178.369 125.978 177.2 126.049 176.084C125.79 165.481 126.049 154.745 125.104 144.187C125.093 143.984 125.153 143.818 125.254 143.851C125.346 143.866 125.445 144.054 125.484 144.154C125.846 145.096 125.935 146.12 126.801 146.704C127.094 146.902 127.43 147.1 127.526 147.463C127.911 154.324 127.926 161.231 128.052 168.108C128.079 168.763 127.994 169.52 128.39 170.077C128.566 170.333 128.955 170.46 128.982 170.776C128.826 172.095 128.826 173.449 128.08 174.534C127.127 175.996 127.363 177.614 128.766 178.551C131.873 180.309 135.07 181.876 138.282 183.44C145.181 187.104 154.609 183.679 148.85 176.031C147.661 174.499 146.062 173.382 144.633 172.082C144.472 171.944 144.302 171.825 144.099 171.751C143.083 171.536 142.271 170.821 141.631 170.174C141.543 170.092 141.459 169.994 141.426 169.881C141.388 169.756 141.413 169.611 141.448 169.478C141.731 168.523 141.854 167.554 141.884 166.579C141.939 164.034 141.486 161.485 141.596 158.937C141.32 151.666 141.967 144.295 140.799 137.093C140.446 135.837 139.884 134.702 139.192 133.663C135.419 128.035 127.635 125.291 122.488 121.14C122.212 120.906 122.092 120.523 122.029 120.147C121.917 119.492 121.643 118.865 121.15 118.456C120.685 118.041 120.177 117.792 119.815 117.216C119.239 115.97 118.983 114.583 117.947 113.587C117.508 113.222 117.413 112.683 117.463 112.134C117.466 108.992 114.808 107.698 115.277 104.474C115.287 104.168 115.46 103.884 115.798 104.105C116.01 104.221 116.188 104.383 116.361 104.553C117.172 105.359 118.145 105.863 119.209 106.224C124.735 107.866 130.431 108.63 136.165 108.971C137.332 109.029 138.119 110.123 139.124 110.584C142.552 111.82 147.022 112.495 150.151 110.258C151.001 109.593 151.35 108.405 152.209 107.715C152.944 107.152 153.19 106.271 153.04 105.401C153.007 104.93 153.012 104.365 152.919 103.889C152.503 101.76 150.931 102.222 148.652 102.756C147.819 102.987 147.666 102.663 147.513 101.904C146.768 99.8849 143.04 100.53 141.042 99.8882C139.174 99.6636 138.232 101.041 136.393 100.667C136.115 100.617 135.897 100.494 136.294 100.336C150.69 93.7567 146.656 68.2944 148.087 54.9536C148.426 54.0271 149.76 54.0088 150.424 53.0673C150.828 52.5616 150.815 51.68 150.82 51.0828C151.294 49.3911 153.89 49.243 154.473 46.9059L154.481 46.8776C154.616 45.8945 154.539 44.8632 154.506 43.8718M146.408 72.1686C145.621 80.045 145.566 88.7598 140.733 95.3969C139.365 97.1369 137.629 98.5092 135.479 99.1779C134.95 99.296 134.658 99.7135 134.214 100.071C134.065 100.166 133.902 100.184 133.734 100.144C131.038 99.3127 127.931 98.7072 125.116 97.6542C125.144 97.3431 125.559 96.6295 125.905 96.8275C127.042 97.438 129.14 99.2228 129.737 98.125C130.551 68.8434 129.153 39.3023 130.243 10.0257C130.269 8.54027 131.933 9.47679 132.658 9.88267C136.642 12.1749 140.636 14.4372 144.622 16.7261C145.613 17.2617 146.298 19.3593 145.4 20.1577C142.958 21.2656 140.45 22.1871 138.076 23.4331C134.962 24.9917 136.419 35.0572 136.178 39.4137C136.497 44.1729 136.093 49.2946 137.515 53.8458C138.663 55.3262 141.706 53.6927 143.461 53.8974L143.477 53.9173C143.875 56.2611 144.472 55.975 146.511 55.4144C147.293 60.4314 146.463 66.7341 146.407 72.1686" fill="black"/>
<path d="M140.633 166.722C140.901 171.573 133.011 171.152 129.882 169.347C129.576 169.116 129.455 168.648 129.456 168.256C129.204 161.271 129.352 154.265 128.793 147.295C128.768 146.997 128.728 146.734 128.557 146.491C128.106 145.824 127.227 145.568 127.061 144.768C126.983 144.495 127.081 144.284 127.385 144.392C128.302 144.678 129.21 145.34 130.227 145.029C130.371 144.946 130.245 144.831 130.145 144.755C128.367 143.457 125.973 142.963 124.37 141.474C124.175 141.296 123.997 141.102 123.847 140.879C121.334 136.828 118.088 133.445 114.545 130.28C113.774 129.626 113.072 128.899 112.316 128.223C111.639 127.64 110.909 127.067 110.037 126.821C109.79 126.768 109.577 126.843 109.464 126.949C109.084 127.287 109.505 127.996 110.209 128.794C111.378 130.117 112.729 131.136 113.818 132.314C117.792 135.914 121.262 140.35 122.603 145.538C122.809 146.328 122.966 147.139 123.069 147.964C123.931 157.442 123.303 167.067 124.711 176.468C124.885 178.05 120.916 179.06 118.963 179.022C116.585 179.015 114.02 178.521 113.466 176.42C112.736 169.415 112.671 162.347 112.1 155.326C112.03 154.295 112.055 153.157 111.441 152.27C111.11 151.834 110.575 151.422 110.408 150.851C110.064 149.93 110.19 148.9 109.58 148.228C109.179 147.769 108.559 147.676 108.013 147.431C107.353 147.163 106.745 146.783 106.489 146.438C105.812 145.611 106.06 144.587 105.366 142.882C105.333 142.792 105.307 142.704 105.297 142.626C105.06 141.85 109.129 141.358 109.721 139.488C110.305 137.674 109.495 136.156 108.001 135.085C104.666 132.437 101.554 129.707 98.2403 127.014C98.1372 126.924 98.0839 126.843 98.1255 126.78C102.001 125.372 105.99 124.812 109.686 122.954C110.422 122.604 110.877 122.48 111.797 121.976C113.211 121.342 119.251 117.509 119.74 120.389C119.789 120.625 119.649 120.811 119.429 120.891C118.143 121.373 116.931 121.999 115.825 122.802C115.731 122.866 115.628 122.964 115.588 123.059C115.495 123.3 115.808 123.286 115.958 123.236C116.608 123.052 117.258 122.859 117.909 122.676C118.142 122.613 118.381 122.623 118.611 122.694C123.069 124.027 127.108 126.568 131.063 129.014C134.324 130.93 136.568 134.064 138.431 137.278C138.559 137.497 138.64 137.732 138.68 137.983C140.254 147.396 139.304 157.219 140.631 166.687V166.721L140.633 166.722Z" fill="#343434"/>
<path d="M113.285 97.0033C108.72 101.2 100.864 103.123 94.769 103.627C94.6842 103.564 94.6808 103.434 94.6925 103.324C94.7823 102.601 94.8804 101.904 94.9636 101.223C95.0235 100.806 94.6476 100.676 94.428 101.042C92.174 104.845 91.0612 109.321 89.2397 113.362C88.6509 114.917 88.3847 116.991 87.1438 118.114C83.0168 119.866 76.7938 117.329 73.803 114.202C73.1226 113.503 73.6666 112.477 74.1839 111.758C78.6835 105.991 80.5216 98.5703 84.8283 92.695C85.8929 91.5023 87.0257 90.3745 88.1618 89.25C88.912 88.5098 89.6656 87.7712 90.4074 87.0227C91.3606 86.0612 92.2938 85.0781 93.1721 84.0468C93.2652 83.9353 93.375 83.8139 93.4981 83.7473C93.6595 83.6558 93.7876 83.739 93.8408 83.9237C95.0834 90.4294 108.953 94.4 108.81 85.7135C108.81 85.4224 108.903 85.2827 109.163 85.3276C111.541 85.7967 113.86 85.8017 116.049 84.7304C116.276 84.599 116.553 84.5608 116.743 84.7704C117.473 85.494 118.105 86.319 118.616 87.2073C120.118 90.3828 122.026 93.3238 123.984 96.2198C124.114 96.4244 124.367 96.318 124.22 96.5143C122.121 99.3072 119.05 102.17 115.505 102.686C115.276 102.704 115.203 102.596 115.193 102.416C114.88 99.4602 115.481 91.5373 113.015 90.2048C112.965 90.2098 112.937 90.263 112.929 90.3579C112.882 90.6739 113.087 91.1663 112.819 91.3376C111.728 91.7818 112.338 94.0923 112.601 95.0637C112.764 95.606 112.95 96.0735 113.118 96.3579C113.23 96.5409 113.373 96.7555 113.291 96.9784L113.281 97.0033H113.285Z" fill="#D52B1E"/>
<path d="M116.547 52.717C116.527 52.8035 116.441 52.8618 116.358 52.9067C115.893 53.1562 115.082 53.4506 115.193 53.8515C115.86 55.1224 117.778 54.6965 118.948 55.0708C119.769 55.2804 119.816 55.7112 120.132 56.8224C120.544 58.1083 120.777 59.4324 121.251 60.6916C121.291 60.7981 121.326 60.9162 121.321 61.0259C121.315 61.2805 121.085 61.525 120.947 61.7595C120.709 62.1305 120.52 61.9824 120.376 61.6447C119.751 60.1144 118.256 60.4903 116.998 60.6883C107.621 62.3534 98.1978 66.0628 90.9053 72.2642C90.7223 72.2791 90.6574 72.1061 90.5609 71.9365C88.6762 68.2187 89.152 67.4352 90.9984 63.8238C91.0965 63.6076 91.193 63.2333 90.8687 63.2766C90.3879 63.433 89.9371 63.7457 89.4264 63.9336C89.0854 64.0285 89.0289 63.5677 89.0505 63.3132C89.7209 58.8136 87.5218 53.9413 89.3982 49.6513C89.6211 49.4201 89.7924 50.3367 90.1317 50.152C90.2299 50.1088 90.2864 50.009 90.338 49.9108C91.1049 48.116 90.3114 45.9984 91.727 44.4714C92.5121 43.6247 93.5035 42.9876 94.5931 42.6249C103.118 39.9119 112.404 45.0868 116.547 52.6971L116.544 52.717H116.547Z" fill="#9A1D1F"/>
<path d="M107.34 64.6316C109.219 63.8864 111.197 63.3358 113.11 62.6588C113.232 62.6122 113.429 62.5806 113.501 62.6787C113.578 62.8118 113.451 62.9648 113.355 63.0613C113.024 63.3741 112.643 63.6585 112.48 64.0577C112.405 64.2324 112.373 64.447 112.486 64.5285C112.568 64.5933 112.674 64.585 112.777 64.5751C114.072 64.4021 115.229 63.4289 116.567 63.9563C116.894 64.1243 118.019 64.3455 117.866 63.7017C117.655 62.88 116.996 62.6055 116.211 62.2912C116.156 62.2529 115.866 62.1863 115.986 62.0999C116.44 61.9718 116.939 61.9302 117.377 61.8437C118.435 61.6607 118.626 61.7173 118.744 62.8185C118.917 64.3272 119.007 65.8476 119.17 67.3547C119.32 68.1498 119.899 68.7985 120.443 69.4839C120.843 70.0378 121.793 70.9211 121.186 71.5266C120.938 71.7528 120.429 71.8659 120.102 72.1121C119.719 72.3733 119.488 72.7891 119.391 73.2349C119.135 74.8568 119.175 76.5618 118.806 78.1737C117.49 85.3847 111.43 85.4379 105.743 82.6849C104.5 82.1427 103.254 81.5738 101.938 81.2078C101.674 81.1363 101.75 81.3392 101.857 81.4972C102.938 83.2921 104.815 84.7227 104.269 86.95C104.181 87.301 104.009 87.7485 104.194 88.0678C104.244 88.1427 104.327 88.1593 104.409 88.0928C105.029 87.2378 105.52 86.2647 106.094 85.3697C106.23 85.1003 106.478 85.1269 106.699 85.3132C107.32 85.7906 107.544 86.2613 107.421 86.8801C105.921 92.471 95.8968 87.9897 95.135 83.9009C94.9603 83.001 94.9353 82.6417 95.7338 82.1061C96.484 81.2594 97.0612 79.7856 97.2076 78.6478C97.2459 78.4215 97.4289 78.2652 97.6301 78.1571C98.5517 77.6614 98.9892 77.5083 99.0191 76.4753C99.0557 76.0495 98.8162 75.2594 99.5198 75.4207C101.629 75.7451 104.217 74.8119 104.773 72.5513C104.8 72.4348 104.813 72.2834 104.773 72.1803C104.72 72.0273 104.555 72.0356 104.399 72.147C104.051 72.3949 103.7 72.676 103.344 72.9355C101.872 74.0833 100.243 74.7304 98.5201 73.5543C97.5486 72.874 96.9564 71.801 97.2492 70.7248C97.8863 68.1564 100.53 68.7453 102.642 68.381C103.465 68.1298 103.935 69.0264 104.512 69.4672C104.984 69.8997 105.881 69.8714 106.11 69.2077C106.185 68.9798 106.164 68.7187 106.17 68.4808C106.223 67.1384 106.315 65.6679 107.311 64.6483L107.336 64.63L107.34 64.6316Z" fill="#EED3CA"/>
<path d="M117.572 117.761C109.556 121.336 100.523 126.735 91.5108 124.952C91.2812 124.789 91.1382 124.559 91.0267 124.31C90.3464 122.788 89.7043 121.242 89.0822 119.694C88.4817 118.242 89.5413 116.769 89.9804 115.425C90.1152 114.95 90.5393 114.599 91.05 114.697C98.9331 115.5 106.154 112.01 113.119 108.785C113.37 108.652 113.585 108.752 113.704 108.993C114.521 110.382 115.198 111.852 115.436 113.419C115.479 113.754 115.529 114.126 115.666 114.439C115.992 115.492 117.986 116.725 117.585 117.739L117.57 117.759L117.572 117.761Z" fill="#D52B1E"/>
<path d="M113.956 98.5057C114.017 98.5523 114.02 98.7269 114.019 98.8267C114.035 101.116 113.949 103.165 114.05 105.397C114.069 105.812 114.12 106.319 113.877 106.668C107.317 110.739 98.4955 114.225 90.6773 113.56C90.6274 113.503 90.6357 113.408 90.674 113.294C91.4608 111.273 92.2692 109.423 92.8914 107.528C93.1658 106.653 93.5035 105.67 94.3269 105.183C94.8509 104.835 95.7342 104.71 96.3863 104.665C102.702 104.145 108.656 101.986 113.942 98.499L113.956 98.5057Z" fill="white"/>
<path d="M146.238 102.923C146.171 102.994 146.058 103.001 145.96 103.004C144.927 103.022 143.816 102.793 142.869 103.202C142.705 103.269 142.567 103.388 142.79 103.482C144.762 104.308 148.705 104.23 150.792 103.555C151.072 103.485 151.458 103.438 151.611 103.716C151.751 103.924 151.689 104.149 151.445 104.198C149.906 104.563 148.153 104.485 146.767 105.221C146.637 105.306 146.642 105.396 146.764 105.464C148.068 106.143 152.326 104.102 151.717 106.476C151.686 106.499 151.642 106.476 151.594 106.424C150.566 105.085 147.66 106.645 145.92 106.98C145.834 107.005 145.731 107.03 145.819 107.109C147.234 107.89 148.725 106.853 150.225 107.023C150.649 107.048 150.616 107.354 150.563 107.737C150.538 107.933 150.55 108.297 150.368 108.382C150.244 108.422 150.092 108.292 149.987 108.209C149.445 107.71 148.83 107.79 148.154 107.984C147.486 108.194 146.818 108.309 146.125 108.4C145.983 108.454 144.891 108.45 145.29 108.755C146.008 109.282 147.93 108.75 149.044 108.831C149.26 108.834 149.345 108.951 149.202 109.182C149.044 109.48 148.841 109.769 148.489 109.829C145.443 110.591 140.077 110.716 137.861 108.266C137.508 107.835 136.908 107.667 136.352 107.642C130.64 107.249 124.716 106.765 119.335 104.851C119.302 104.769 119.395 104.629 119.463 104.546C120.699 102.919 122.018 101.442 123.221 99.802C123.537 99.3645 123.936 98.7823 124.532 98.8023C124.814 98.8122 125.244 98.9403 125.141 99.2713C124.66 100.507 123.342 102.362 123.974 103.335C124.274 103.814 125.001 103.887 125.515 104.001C126.152 104.147 126.782 104.305 127.418 104.453C127.908 104.563 128.581 104.836 128.978 104.416C129.266 104.155 129.351 103.495 129.555 103.029C129.607 102.961 129.602 102.954 129.697 102.908C129.943 102.851 130.211 103.011 130.454 103.042C130.923 103.152 131.525 103.222 132.02 103.155C133.701 102.966 133.726 101.284 135.658 101.815C137.947 102.71 139 100.92 141.103 101.123C142.51 101.411 143.919 101.584 145.341 101.806C145.787 101.89 146.303 101.926 146.311 102.52C146.324 102.651 146.326 102.79 146.256 102.903L146.241 102.921L146.238 102.923Z" fill="#EED3CA"/>
<path d="M127.843 96.4426C127.346 96.0817 126.977 95.7656 126.903 95.1285C127.813 65.7471 125.015 35.2113 127.956 6.37057C129.204 6.01625 130.583 6.24913 131.598 6.99103C134.517 9.10693 142.877 12.5819 146.703 15.8854C147.161 16.313 147.469 16.6989 147.58 17.0582C147.849 19.7629 148.307 22.4743 148.209 25.2057C148.209 26.0441 148.009 27.2068 146.91 27.0688C146.221 26.969 145.118 26.5415 144.942 25.8245C144.97 24.5803 146.474 25.9626 146.91 24.9579C147.084 24.6069 147.084 23.9781 147.083 23.5822C147.076 22.1101 147.074 20.6529 147.033 19.1857C147.024 18.7233 146.98 18.2342 146.836 17.7967C146.48 16.649 145.576 15.8239 144.561 15.2217C140.67 12.9578 136.776 10.7055 132.869 8.4715C131.977 7.88596 130.606 7.46344 129.773 8.22363C129.364 8.54302 129.024 9.17678 128.883 9.82885C126.827 38.4301 129.395 68.0693 128.247 96.6373C128.266 96.6689 127.93 96.5075 127.843 96.4443" fill="#B1B1B1"/>
<path d="M150.487 37.4517C150.555 40.0982 150.54 42.7531 150.57 45.4046C150.573 45.6891 150.567 46.0134 150.455 46.2746C150.184 46.925 149.492 47.2311 148.908 47.5588C147.988 48.0245 147.681 49.0193 147.795 50.0456C147.835 50.7892 147.885 51.4995 147.977 52.2414C148.065 52.945 148.028 53.3592 147.2 53.6337C146.999 53.6969 146.643 53.9347 146.558 53.6204C146.307 52.4842 146.235 50.004 145.884 49.4734C145.566 48.625 143.209 49.4268 142.015 49.6797C141.391 49.831 140.674 50.0972 140.568 49.1723C139.976 43.6131 139.041 37.7678 139.984 32.2717C140.022 32.0405 140.154 31.8925 140.382 31.8342C141.498 31.5498 142.472 31.282 143.314 31.0325C150.798 28.7419 148.235 28.6088 150.48 37.4234L150.484 37.4534L150.487 37.4517Z" fill="#B7CADE"/>
<path d="M90.9213 127.507C90.7133 127.847 90.2592 127.988 89.9798 128.244C89.7469 128.431 89.8351 128.607 90.1378 128.65C92.7627 128.901 94.3546 129.487 96.374 131.147C96.8831 131.485 97.452 132.376 96.9446 132.88C96.2759 133.449 95.6837 132.255 93.7608 132.02C92.8542 131.919 92.0108 132.007 91.1309 132.263C90.6568 132.464 90.7217 133.198 91.0427 133.532C91.8794 134.607 92.6978 135.713 93.6543 136.694C93.7591 136.786 93.8656 136.864 93.9571 136.921C94.3679 137.172 94.5775 137.054 94.9518 137.125C95.5473 137.243 96.1661 137.766 96.6352 138.177C96.7333 138.273 96.8731 138.383 96.8681 138.534C96.8531 138.621 96.7533 138.684 96.6685 138.721C95.9149 139.042 95.1215 139.1 94.3446 138.967C91.9792 138.531 89.8034 136.522 88.7505 134.334C88.2564 133.289 87.7874 132.218 87.2068 131.22C85.0161 127.843 82.659 124.596 80.6978 121.07C80.5547 120.822 80.6346 120.676 80.9373 120.641C83.0599 120.266 85.1225 119.904 87.2052 119.538C87.4547 119.485 87.6759 119.549 87.774 119.802C88.8021 122.223 89.8351 124.679 90.8564 127.093C90.9096 127.213 90.9678 127.366 90.9313 127.482L90.9229 127.506L90.9213 127.507Z" fill="#EED3CA"/>
<path d="M134.973 189.914C135.02 190.022 135.03 190.148 135.022 190.268C134.908 192.028 133.729 193.169 132.174 193.783C130.632 194.392 128.722 194.483 127.127 194.154C125.693 193.851 124.495 193.138 123.191 192.529C120.289 191.078 117.512 189.393 114.802 187.593C113.906 187.028 112.785 186.292 113.204 185.07C113.284 184.79 113.427 184.81 113.595 185.02C115.611 187.364 118.602 188.167 121.005 189.955C122.042 190.814 122.318 189.962 122.664 189.057C123.2 187.823 123.926 186.389 125.161 185.727C129.709 183.348 131.78 187.078 134.96 189.887L134.973 189.915V189.914Z" fill="#D8D8D8"/>
<path d="M145.669 21.3339C145.769 22.0209 145.679 22.7428 145.708 23.3583C145.734 23.6378 145.493 23.7093 145.247 23.726C143.199 23.9888 143.048 26.8965 144.932 27.7265C145.177 27.848 145.022 27.9411 144.854 28.0143C143.207 28.8926 139.553 29.8807 138.781 31.4044C138.576 31.7903 138.525 32.301 138.54 32.7468C138.6 36.6709 138.598 40.5933 138.723 44.514C138.899 46.1891 139.041 48.1403 139.28 49.6989C139.661 51.6684 141.153 51.1145 143.096 50.8966C143.595 50.8184 144.064 50.7353 144.555 50.6521C144.646 50.6405 144.726 50.6454 144.779 50.692C144.844 50.7403 144.869 50.8633 144.879 50.9548C144.994 52.0527 145.145 53.2105 145.248 54.3582C145.258 54.5179 145.109 54.6743 144.967 54.5795C144.789 54.3765 144.868 53.9823 144.773 53.6929C144.4 51.4655 142.755 52.7713 140.82 52.9743C140.313 53.0458 139.779 53.1356 139.278 53.1822C138.502 53.2454 138.382 52.9992 138.28 52.2922C137.489 43.6557 137.058 34.856 137.733 26.2045C137.755 25.8335 137.786 25.5042 138.014 25.248C139.192 23.8241 143.859 22.1723 145.658 21.3223L145.668 21.3339H145.669Z" fill="white"/>
<path d="M149.173 180.231C149.303 181.678 148.26 182.841 146.939 183.26C140.583 184.745 134.743 179.886 129.194 177.391C128.846 177.095 128.698 176.704 128.776 176.217C128.798 176.08 128.878 175.931 129.026 176.042C130.887 177.884 133.298 178.739 135.673 179.64C136.049 179.802 136.584 180.024 136.969 179.88C137.611 179.66 137.759 178.679 138.354 177.792C138.476 177.614 138.644 177.463 138.823 177.361C139.627 176.929 140.369 176.41 141.112 175.884C142.736 174.492 143.904 175.047 145.311 176.338C146.113 177.083 146.891 178.028 147.633 178.813C148.102 179.311 148.561 179.745 148.994 180.024C149.064 180.073 149.125 180.128 149.162 180.204L149.172 180.227L149.173 180.231Z" fill="#D8D8D8"/>
<path d="M114.484 179.466C114.554 179.428 114.689 179.465 114.78 179.493C116.299 179.955 117.783 180.203 119.233 180.192C121.106 180.18 122.931 179.726 124.716 178.759C124.797 178.721 124.874 178.698 124.945 178.703C125.059 178.708 125.155 178.796 125.228 178.884C126.033 179.871 126.865 180.862 127.683 181.883C127.825 182.066 127.672 182.199 127.489 182.278C124.847 183.568 122.956 185.608 121.582 188.244C121.47 188.466 121.269 188.467 121.071 188.356C118.894 187.301 116.728 186.272 114.883 184.713C113.829 183.71 114.02 182.228 114.234 180.799C114.294 180.411 114.346 180.01 114.386 179.648C114.394 179.583 114.417 179.513 114.466 179.478L114.482 179.468L114.484 179.466Z" fill="#EED3CA"/>
<path d="M128.147 96.5707C128.004 68.3072 127.207 39.5862 128.398 11.4873C128.774 38.1739 129.506 70.7824 128.159 96.594L128.147 96.5707Z" fill="#D8D8D8"/>
<path d="M124.742 176.789C122.517 166.033 124.534 154.637 121.961 143.899C120.096 138.31 115.354 134.148 111.323 129.975C110.698 129.198 108.399 127.621 109.239 126.591C109.527 126.313 109.991 126.727 110.152 126.995C111.195 128.577 112.473 129.976 113.825 131.319C116.972 134.438 120.584 137.309 122.522 141.394C125.027 146.306 124.202 152.035 124.531 157.381C124.185 163.844 125.003 170.336 124.744 176.79H124.741L124.742 176.789Z" fill="#525252"/>
<path d="M140.583 166.628C139.921 164.25 139.801 161.748 139.735 159.288C139.68 152.393 139.242 145.503 138.6 138.638C136.014 131.029 128.169 127.295 121.485 123.823C120.645 123.309 118.804 123.272 118.271 122.531C118.283 122.432 118.408 122.382 118.494 122.334C119.739 121.735 120.961 121.666 122.142 122.363C126.048 125.046 130.009 127.622 133.9 130.322C135.069 131.145 136.09 131.991 137.005 132.974C140.911 137.23 140.129 141.419 140.262 148.023C140.51 154.227 140.352 160.442 140.588 166.63H140.585L140.583 166.628Z" fill="#525252"/>
<path d="M136.313 178.667C136.244 178.687 136.163 178.667 136.075 178.627C134.228 177.691 132.43 176.884 130.664 175.933C129.486 175.147 129.742 173.665 129.957 172.291C130.015 171.944 130.05 171.608 130.086 171.282C130.115 171.095 130.248 171.064 130.439 171.12C134.034 172.221 136.98 172.16 140.278 170.588C140.363 170.601 140.443 170.651 140.51 170.709C140.88 171.04 141.256 171.381 141.652 171.739C141.865 171.92 141.857 172.073 141.606 172.226C139.252 173.797 137.84 176.139 136.338 178.659L136.316 178.667H136.313Z" fill="#EED3CA"/>
<path d="M93.8252 83.5463C89.9244 88.1241 84.7794 91.7969 82.2277 97.426C79.6144 102.245 77.8628 107.946 74.0918 111.951C78.7261 100.986 83.4986 88.8992 93.8984 82.3203C93.9949 82.3636 93.9467 82.648 93.9333 82.8692C93.9117 83.0871 93.92 83.3167 93.8369 83.5213L93.8252 83.5479V83.5463Z" fill="#DD554B"/>
<path d="M149.316 52.1827C149.291 52.1128 149.276 51.9997 149.273 51.9065C149.187 50.7355 148.563 49.1569 149.917 48.5963C151.46 47.871 152.044 46.4588 151.945 44.8685C151.935 39.2145 151.758 33.5887 151.186 27.9663C151.078 27.2144 150.797 26.4342 149.915 26.3727C149.651 26.3644 149.479 26.2147 149.501 25.9385C149.501 24.0322 149.498 22.1542 149.501 20.2712C149.494 20.0383 149.629 19.847 149.854 19.7871C150.175 19.6823 150.507 19.5659 150.872 19.4528C151.073 19.3962 151.243 19.4528 151.279 19.6989C152.617 28.0544 151.986 36.6345 153.127 45.0332C153.194 45.5788 153.179 46.334 153.024 46.823C152.35 48.9888 149.381 48.4349 149.379 51.6587C149.36 51.8766 149.398 52.0462 149.336 52.196C149.331 52.2026 149.325 52.201 149.318 52.1926L149.313 52.1843L149.316 52.1827Z" fill="white"/>
<path d="M104.593 134.184C104.683 134.167 104.799 134.254 104.879 134.314C106 135.172 107.163 136.032 108.356 136.959C108.509 137.088 108.434 137.193 108.291 137.253C107.917 137.416 107.512 137.626 107.11 137.85C105.726 138.599 103.936 139.803 102.557 138.725C100.76 137.408 99.0205 136.014 97.2506 134.631C97.1392 134.548 97.0344 134.44 97.1192 134.31C99.9603 132.328 97.6532 130.333 95.2744 128.944C95.1447 128.873 94.9833 128.755 95.1064 128.606C96.4804 127.422 97.3005 127.993 98.5398 129.051C99.6443 129.962 100.734 130.89 101.828 131.812C101.933 131.908 102.081 132.013 102.006 132.16C101.8 132.391 101.413 132.474 101.098 132.476C100.9 132.469 100.726 132.412 100.571 132.344C100.168 132.161 99.8173 131.865 99.6343 132.261C99.5478 132.545 99.804 132.803 100.004 132.975C100.433 133.352 101.088 133.259 101.541 133.559C101.669 133.662 101.71 133.838 101.74 133.998C101.925 135.189 103.733 135.676 104.325 134.512C104.39 134.402 104.462 134.221 104.573 134.189L104.593 134.184Z" fill="#525252"/>
<path d="M124.165 96.5317C121.05 92.9653 119.243 88.3592 116.485 84.5083C116.449 84.3187 116.763 84.1707 116.934 84.0276C117.186 83.828 117.453 83.6234 117.688 83.971C120.361 87.2513 122.402 91.0407 124.789 94.5455C125.27 95.2409 124.846 95.838 124.358 96.4069C124.314 96.4635 124.249 96.5267 124.184 96.5317H124.164H124.165Z" fill="#DD554B"/>
<path d="M116.731 52.6965C112.395 46.6399 108.552 44.1265 101.428 41.9424C101.151 41.8559 101.128 41.8059 101.408 41.8059C108.545 41.7644 114.115 46.4652 117.739 52.1892C117.999 52.5634 117.646 52.6034 117.279 52.6782C117.107 52.7082 116.923 52.7847 116.755 52.7098L116.73 52.6965H116.731Z" fill="#DD554B"/>
<path d="M149.186 180.111C149.128 180.146 148.993 180.053 148.921 180.001C147.088 178.742 145.565 177.125 143.931 175.613C143.67 175.369 143.337 175.156 142.978 175.162C142.662 175.152 142.321 175.33 142.033 175.533C141.336 176.014 140.662 176.528 139.921 176.936C139.787 177.007 138.408 177.731 138.615 177.333C139.609 175.696 141.824 172.741 143.568 172.978C143.901 173.018 144.212 173.216 144.46 173.459C146.386 175.352 149.264 177.119 149.198 180.105L149.186 180.113V180.111Z" fill="white"/>
<path d="M148.2 21.92C147.068 20.363 148.296 17.0178 146.668 16.0231C143.143 13.9754 139.663 11.8661 136.111 9.86503C134.855 9.11315 133.62 8.25979 132.312 7.58443C130.896 6.83589 129.394 6.37179 127.769 6.41837C127.575 6.37512 127.754 6.19713 127.831 6.11229C128.378 5.54839 128.972 5.31052 129.669 5.45025C130.043 5.52011 130.456 5.73136 130.802 5.92099C136.146 8.84366 141.394 11.941 146.696 14.9468C148.87 16.4789 148.21 19.518 148.205 21.9167L148.198 21.92H148.2Z" fill="#D8D8D8"/>
<path d="M150.514 37.4424C149.406 35.24 149.416 32.7315 148.825 30.2347C148.77 30.0201 148.636 29.937 148.424 29.9686C145.705 30.3744 143.096 31.5937 140.35 31.9114C140.242 31.9281 139.996 31.9481 140.12 31.7983C140.362 31.5139 140.653 31.2727 141 31.133C143.956 29.8671 146.651 28.8224 149.642 27.52C149.735 27.4767 149.886 27.4202 149.956 27.4717C150.033 27.5133 150.049 27.673 150.053 27.7778C150.199 31.1379 150.432 34.3051 150.52 37.4407H150.514V37.4424Z" fill="#D8D8D8"/>
<path d="M99.1586 75.4342C99.6959 76.725 99.1686 78.1872 97.6648 78.4101C97.4186 78.4667 97.1874 78.3635 97.1042 78.1173C96.1278 75.8767 94.2597 74.2515 92.9323 72.119C92.9223 72.0058 93.0238 71.9127 93.1186 71.8495C94.0385 71.2207 94.8386 70.6734 95.7336 70.0629C95.9698 69.8916 95.993 70.048 95.9614 70.2742C95.6637 72.7577 96.7316 74.3064 98.8558 75.2346C98.9573 75.2795 99.0638 75.3294 99.137 75.4092L99.1569 75.4325L99.1586 75.4342Z" fill="#B1B1B1"/>
<path d="M135.008 189.799C134.945 189.839 134.807 189.759 134.727 189.711C133.047 188.718 131.736 187.221 130.218 185.992C129.926 185.746 129.595 185.484 129.234 185.35C127.985 184.861 126.57 185.486 125.324 185.845C125.126 185.889 124.577 186.112 124.775 185.855C126.2 184.255 129.071 181.943 130.781 183.931C132.403 185.664 135.256 187.164 135.02 189.789L135.007 189.799H135.008Z" fill="white"/>
<path d="M107.312 64.6597C107.342 64.7013 107.295 64.816 107.27 64.8793C106.808 66.0703 106.61 67.3628 106.475 68.627C106.454 68.8915 106.498 69.1859 106.392 69.4371C106.134 70.0426 105.329 70.2139 104.753 69.9677C104.59 69.8995 104.442 69.7964 104.304 69.6883C103.547 69.0828 102.799 68.4873 102.228 67.7304C102.017 67.4277 101.535 67.4443 101.292 67.1565C101.259 67.0783 101.408 67.0068 101.488 66.9769C103.426 66.23 105.359 65.3151 107.302 64.6514L107.31 64.6597H107.312Z" fill="#B1B1B1"/>
<path d="M88.8088 51.2568C89.1115 55.0761 89.381 58.9869 89.5207 62.8194C89.4958 63.0806 89.1015 63.9539 88.9152 63.2985C87.6993 59.4177 87.1037 55.0595 88.8021 51.2568H88.8088Z" fill="#DD554B"/>
<path d="M117.702 117.779C117.623 117.738 117.564 117.638 117.517 117.555C116.945 116.537 116.067 115.872 115.597 114.839C115.408 114.448 115.32 113.962 115.263 113.526C115.012 111.964 113.892 110.482 113.48 108.892C113.38 108.571 113.656 108.416 113.924 108.235C114.044 108.151 114.19 108.117 114.312 108.226C115.266 109.313 116.098 110.487 116.165 111.921C116.058 113.42 116.363 113.754 117.317 114.992C117.826 115.698 118.306 116.485 118.43 117.433C118.432 117.725 118.118 117.748 117.91 117.801C117.846 117.813 117.782 117.813 117.725 117.789L117.703 117.778L117.702 117.779Z" fill="#DD554B"/>
<path d="M121.328 61.0068C120.102 59.538 120.164 55.4376 118.785 55.2147C117.845 55.1432 116.867 55.0151 115.935 54.8437C115.647 54.7839 115.37 54.6724 115.298 54.3846C115.258 54.2399 115.328 54.0935 115.483 54.0653C120.891 53.3999 120.425 53.3916 121.032 59.0556C121.1 59.6993 121.275 60.363 121.333 61.0035L121.328 61.0068Z" fill="#DD554B"/>
<path d="M129.481 100.259C129.496 100.327 129.456 100.422 129.423 100.493C129.023 101.357 128.646 102.177 128.252 103.027C128.185 103.201 128.03 103.299 127.847 103.243C127.056 103.065 126.226 102.875 125.269 102.659C125.179 102.639 125.064 102.606 125.028 102.526C124.976 102.435 125.059 102.257 125.118 102.147C126.26 99.9526 126.29 99.1159 128.658 99.8878C128.889 99.9626 129.143 100.054 129.336 100.127C129.403 100.154 129.454 100.187 129.474 100.237L129.481 100.257V100.259Z" fill="white"/>
<path d="M93.1101 133.232C96.3238 135.067 99.0502 137.873 102.039 140.102C102.252 140.267 102.419 140.468 102.543 140.703C102.658 140.919 102.82 141.164 102.73 141.32C102.663 141.438 102.509 141.435 102.377 141.347C99.318 138.795 96.2889 136.205 93.2415 133.642C93.1167 133.562 92.9221 133.287 93.0918 133.237L93.1101 133.234V133.232Z" fill="#525252"/>
<path d="M113.287 96.9884C112.013 95.5994 112 93.6815 111.98 91.9232C111.955 91.4325 112.06 90.9651 112.66 91.1863C112.833 91.2429 112.946 91.3344 112.963 91.5074C113.013 92.8631 114.063 96.2365 113.302 96.9951L113.287 96.9901V96.9884Z" fill="#DD554B"/>
<path d="M108.655 138.804C107.678 140.216 105.629 140.572 104.167 141.452C104.059 141.515 103.867 141.589 103.794 141.474C103.709 141.341 103.832 141.05 103.922 140.873C104.01 140.715 104.175 140.632 104.336 140.556C105.639 139.925 106.951 139.3 108.284 138.737C108.395 138.682 108.631 138.649 108.651 138.784V138.804H108.655Z" fill="#525252"/>
<path d="M119.851 120.711C119.78 120.638 119.733 120.553 119.697 120.457C119.169 119.029 118.038 119.575 116.721 119.75C116.548 119.753 116.689 119.673 116.772 119.625C118.411 118.66 120.655 118.153 120.781 120.536C120.785 120.646 120.695 120.736 120.568 120.738C120.342 120.736 120.079 120.809 119.871 120.726L119.85 120.711H119.851Z" fill="#525252"/>
<path d="M90.4637 64.7374C90.5053 64.769 90.4903 64.8871 90.4853 64.9503C90.3672 66.2495 89.7484 67.4771 89.3924 68.738C89.3741 68.7979 89.3458 68.911 89.2876 68.9093C89.2294 68.9044 89.1645 68.7879 89.1296 68.723C88.3029 67.1893 89.1429 65.624 90.452 64.7324L90.4637 64.7374Z" fill="#DD554B"/>
<path d="M130.227 101.582C130.444 100.159 131.885 100.948 132.753 101.164C132.797 101.176 132.87 101.194 132.881 101.236C132.404 102.165 131.501 102.079 130.479 101.733C130.378 101.703 130.305 101.676 130.235 101.607L130.227 101.582Z" fill="#EED3CA"/>
<path d="M102.316 132.266C103.028 132.756 103.672 133.398 104.36 133.941C104.482 134.029 104.488 134.127 104.332 134.18C103.421 134.528 102.571 134.235 101.795 133.728C101.727 133.685 101.654 133.635 101.626 133.563C101.552 133.214 101.882 132.924 102.048 132.647C102.135 132.542 102.17 132.302 102.296 132.266H102.316Z" fill="#525252"/>
<path d="M102.137 132.104C102.198 132.154 102.26 132.204 102.321 132.254L102.286 132.284C102.158 132.28 102.079 132.244 102.145 132.096L102.135 132.104H102.137Z" fill="#525252"/>
<path d="M116.126 150.47C115.008 150.867 111.942 151.037 111.198 150.2C111.132 150.112 111.172 150.052 111.28 150.014C112.484 149.668 114.683 149.808 115.961 150.087C116.132 150.111 116.219 150.312 116.136 150.453L116.124 150.47H116.126Z" fill="black"/>
<path d="M131.851 146.414C131.703 146.917 131.096 147.269 130.618 147.454C129.966 147.695 129.337 147.649 129.487 147.116C129.514 147.037 129.575 146.977 129.65 146.938C130.301 146.667 130.968 146.426 131.626 146.178C131.769 146.117 131.854 146.241 131.853 146.388V146.416L131.851 146.414Z" fill="black"/>
<path d="M115.712 152.201C115.258 153.044 114.198 153.39 113.375 152.846C113.296 152.791 113.303 152.746 113.391 152.71C114.166 152.433 114.847 152.192 115.511 151.961C115.642 151.911 115.713 152.061 115.715 152.174L115.712 152.201Z" fill="black"/>
<path d="M100.927 59.0803C98.4333 60.1316 95.9498 61.2345 93.4363 62.2376C93.255 62.3207 92.929 62.4022 92.8208 62.2409C92.7693 62.1261 92.8691 62.0629 92.9456 61.9847C95.7385 59.7174 99.1087 58.3534 102.469 57.1591C105.752 55.9464 109.166 55.0897 112.558 54.1965C112.81 54.0701 114.419 54.0634 113.785 54.4892C111.824 55.1696 109.83 55.7718 107.858 56.4255C107.514 56.5236 107.258 56.7731 106.922 56.9046C106.662 57.0077 106.393 57.0792 106.128 57.169C104.385 57.7562 102.707 58.5297 100.958 59.0704L100.928 59.0803H100.927Z" fill="black"/>
<path d="M100.986 59.0503C104.989 57.2853 109.179 55.9363 113.497 55.1395C113.632 55.1062 113.878 55.1012 113.915 55.2227C113.948 55.3158 113.845 55.4356 113.703 55.5171C111.892 56.5967 109.718 56.9111 107.758 57.5864C106.411 57.9407 105.062 58.3466 103.703 58.7126C102.833 58.9105 101.865 59.1451 100.986 59.0569V59.0503Z" fill="#DD554B"/>
<path d="M91.528 60.9296C91.4931 61.1874 91.5779 62.2121 91.1155 61.896C89.7032 60.3108 89.4022 55.0676 90.1757 53.0199C90.2988 52.9318 90.4135 53.143 90.4285 53.2728C90.6065 54.2342 90.9991 55.1475 90.9675 56.1189C91.0456 57.7225 91.533 59.2894 91.528 60.8996V60.9312V60.9296Z" fill="black"/>
<path d="M91.536 60.8313C91.2565 58.7536 90.8873 56.6411 90.7109 54.5568C90.7509 54.3954 90.9255 54.2474 91.0519 54.2108C91.3131 54.1891 91.2915 54.6067 91.3098 54.793C91.3796 56.7858 91.7722 58.8817 91.5393 60.8313H91.536Z" fill="#DD554B"/>
<path d="M92.5145 58.8737C91.9805 58.7789 91.0473 54.5637 92.1884 55.427C92.3764 55.5917 92.3947 55.8579 92.4612 56.0858C92.6642 56.9025 92.8854 57.9122 92.5261 58.8637L92.5145 58.8737Z" fill="black"/>
<path d="M93.8826 56.8538C93.7977 56.6459 93.7794 56.3615 93.6879 56.1269C93.5632 55.6046 93.124 54.6731 93.6763 54.3071C94.5047 54.2738 94.2019 56.067 94.35 56.7291C94.355 56.8904 94.1337 56.8455 93.9907 56.8755C93.9607 56.8755 93.9258 56.8755 93.8975 56.8638L93.8826 56.8538Z" fill="black"/>
<path d="M118.316 73.3556C118.369 73.4055 118.381 73.4804 118.381 73.5669C118.381 73.7765 118.372 74.0176 118.351 74.2572C117.922 79.5453 112.466 78.2278 112.629 73.1277C112.637 72.9281 112.667 72.7152 112.88 72.7002C114.555 72.8615 116.232 73.0712 118.09 73.2708C118.178 73.2841 118.251 73.304 118.299 73.3406L118.316 73.3556Z" fill="black"/>
<path d="M117.423 66.5079C117.762 67.2066 118.083 69.0746 116.751 68.4259C115.611 67.5709 114.527 67.5675 113.344 68.5456C113.161 68.6903 112.837 68.8866 112.631 68.722C112.16 66.7192 116.112 65.6013 117.408 66.4863L117.423 66.5062V66.5079Z" fill="black"/>
<path d="M100.597 70.8753C100.539 70.9085 100.503 70.9884 100.476 71.0566C100.308 71.5157 100.157 71.9665 99.9952 72.389C99.9652 72.4539 99.9187 72.5204 99.8538 72.5454C99.7041 72.6036 99.6242 72.4256 99.6259 72.2975C99.5926 71.7719 99.6891 71.1697 99.5826 70.6257C99.551 70.5692 99.4928 70.5442 99.4296 70.5376C99.0836 70.5259 98.5979 70.5409 98.0939 70.5309C97.9724 70.5243 97.9042 70.4977 97.9258 70.4444C99.1884 69.2684 101.669 69.5628 102.211 71.198C102.269 71.361 102.196 71.4292 102.048 71.3743C101.63 71.2163 101.229 71.0483 100.82 70.8886C100.755 70.8636 100.677 70.842 100.616 70.8669L100.596 70.8769L100.597 70.8753Z" fill="black"/>
<path d="M114.348 78.2149C114.366 78.1999 114.397 78.1982 114.437 78.2049C115.236 78.4012 116.054 78.4627 116.848 78.6773C116.924 78.7156 116.923 78.7987 116.894 78.8736C116.427 80.1145 114.424 79.5706 114.336 78.2282L114.348 78.2149Z" fill="black"/>
<path d="M91.4222 121.83C91.0446 121.599 90.499 121.622 90.2196 121.183C90.1148 121.025 90.1098 120.842 90.3709 120.885C93.1755 121.386 95.8503 121.336 98.6665 121.303C98.8695 121.323 99.0308 121.364 99.0175 121.574C98.8096 122.669 97.4023 122.733 95.7804 122.77C94.4397 122.742 92.3421 122.559 91.4389 121.843L91.4206 121.832L91.4222 121.83Z" fill="black"/>
<path d="M91.5365 121.869C93.8204 122.353 96.2157 122.894 98.4913 122.054C98.5895 122.019 98.829 121.929 98.8157 122.065C98.4231 123.747 90.244 123.8 91.5148 121.876L91.5348 121.869H91.5365Z" fill="#DD554B"/>
<path d="M100.119 120.009C99.8757 119.89 99.415 119.904 99.2919 119.681C99.2237 119.523 99.41 119.415 99.5563 119.4C101.373 119.105 103.198 118.801 105.011 118.513C105.222 118.483 105.362 118.658 105.207 118.836C104.31 119.583 103.236 119.967 102.095 120.048C101.449 120.187 100.762 120.346 100.147 120.02L100.117 120.009H100.119Z" fill="black"/>
<path d="M100.215 120.013C100.238 119.953 100.37 119.938 100.444 119.924C101.77 119.746 103.101 119.42 104.425 119.322C104.536 119.354 104.608 119.457 104.635 119.572C104.927 120.725 101.877 120.445 100.889 120.545C100.642 120.593 100.476 120.432 100.326 120.244C100.255 120.157 100.202 120.081 100.21 120.029L100.215 120.013Z" fill="#DD554B"/>
<path d="M138.278 104.514C139.888 103.828 142.438 104.189 142.743 106.335C142.754 106.412 142.769 106.563 142.733 106.595C142.688 106.653 142.56 106.525 142.506 106.473C141.267 105.267 140.129 104.79 138.494 104.835C138.311 104.853 138.143 104.712 138.263 104.534L138.278 104.514Z" fill="black"/>
<path d="M150.241 42.5266C150.188 43.345 150.446 44.3431 149.841 44.9768C147.7 46.8133 144.978 47.6716 142.205 48.1191C141.106 48.3353 140.91 47.8346 140.873 46.8366C140.775 45.3395 140.672 43.8474 140.534 42.3536C140.51 42.1074 140.49 41.8263 140.532 41.5834C140.633 40.8748 141.271 40.5571 141.931 40.3591C143.36 39.9083 144.409 39.5157 145.477 39.0733C150.9 36.7328 149.95 36.1406 150.245 42.5V42.5266H150.241Z" fill="black"/>
<path d="M141.6 34.9709C141.677 36.4763 141.61 37.9934 141.625 39.5421C141.614 39.6934 141.555 39.6702 141.486 39.5704C140.719 38.4392 140.662 35.3984 141.592 34.9609L141.6 34.9709Z" fill="#D8D8D8"/>
<path d="M105.131 137.718C104.953 137.641 104.751 137.349 104.552 137.207C104.048 136.765 103.459 136.244 103.767 135.782C104.264 135.214 104.825 136.068 105.367 136.121C105.755 136.252 106.234 135.983 106.571 136.287C106.902 136.565 106.744 137.061 106.413 137.272C106.062 137.508 105.769 137.545 105.34 137.691C105.277 137.71 105.214 137.726 105.154 137.721L105.129 137.718H105.131Z" fill="black"/>
<path d="M100.667 136.667C100.255 136.408 99.7539 136.11 99.3647 135.804C98.9771 135.526 98.8224 134.879 99.353 134.711C99.857 134.565 100.305 134.986 100.817 135.142C101.045 135.228 101.263 135.179 101.504 135.189C101.605 135.198 101.707 135.238 101.792 135.295C102.397 135.716 102.011 136.222 101.367 136.503C101.166 136.586 100.87 136.692 100.695 136.672L100.669 136.667H100.667Z" fill="black"/>
<path d="M101.681 133.629C101.853 133.574 102.06 133.715 102.24 133.745C102.917 133.956 103.611 134.106 104.323 134.106C104.526 134.143 104.474 134.382 104.487 134.547C104.522 134.925 104.238 135.201 103.902 135.315C102.831 135.805 101.304 134.953 101.663 133.642L101.68 133.627L101.681 133.629Z" fill="black"/>
<path d="M102.166 132.13C102.384 132.243 102.191 132.527 102.116 132.689C102.043 132.837 101.97 132.985 101.898 133.133C101.807 133.292 101.762 133.494 101.594 133.592C100.243 134.091 98.4498 131.945 99.8271 131.847C100.017 131.829 100.198 131.93 100.346 132.037C100.86 132.386 101.422 132.221 101.978 132.118C102.031 132.11 102.094 132.103 102.143 132.12L102.166 132.128V132.13Z" fill="black"/>
<path d="M113.822 74.8863C115.043 74.868 115.644 75.2922 115.787 76.3817C115.797 76.4483 115.805 76.5531 115.755 76.5947C114.902 76.7643 114.18 76.1156 113.826 75.1109C113.806 75.0444 113.761 74.9529 113.802 74.9013L113.821 74.888L113.822 74.8863Z" fill="#DD554B"/>
<path d="M113.465 73.6006C114.819 73.6705 116.155 73.8484 117.482 73.9616C117.59 73.9799 117.587 74.0181 117.502 74.0664C116.434 74.6369 113.797 74.4589 113.453 73.6072L113.465 73.6006Z" fill="white"/>
<path d="M113.784 74.8746C113.752 74.8482 113.721 74.8203 113.691 74.7939C113.713 74.7857 113.733 74.7758 113.754 74.7676C113.767 74.8005 113.782 74.8334 113.795 74.8663L113.785 74.8746" fill="#DD554B"/>
<path d="M148.881 39.1572C148.941 39.2021 148.946 39.3385 148.946 39.4283C148.934 40.8988 148.999 42.3443 148.903 43.7799C147.923 45.8326 144.554 46.2784 142.392 46.9138C142.161 46.9804 142.093 46.7758 142.088 46.5795C141.963 45.1539 141.833 43.7599 141.74 42.3743C141.667 41.9435 142.033 41.6607 142.404 41.5376C144.426 40.7541 146.472 39.9856 148.648 39.1638C148.74 39.1322 148.816 39.1206 148.864 39.1489L148.879 39.1589L148.881 39.1572Z" fill="white"/>
</svg>
