<svg width="200" height="200" viewBox="0 0 200 200" fill="none" xmlns="http://www.w3.org/2000/svg">
<path d="M94.4834 69.421C98.5089 70.526 101.767 73.1138 105.341 75.0848C107.414 76.2283 108.456 78.1541 108.501 80.5313C108.559 83.8631 108.544 87.1313 108.554 90.4731C110.671 89.2695 112.769 89.0772 114.828 90.3962C126.126 96.9126 137.408 103.456 148.724 109.94C150.831 111.147 152.096 112.772 152.188 115.233C152.404 129.973 152.049 144.806 152.325 159.526C152.217 161.319 151.11 162.349 149.62 163.117C147.011 164.222 144.777 166.639 141.9 166.901C141.668 166.88 141.436 166.905 141.3 167.114C140.374 168.556 138.808 169.138 137.427 169.939C131.357 173.46 125.277 176.96 119.197 180.462C114.444 183.199 109.708 185.967 104.943 188.684C104.091 189.366 102.789 188.776 102.093 189.614C100.027 192.253 96.5262 193.146 93.8582 195.053C90.4044 197.237 86.4808 195.229 83.5569 193.198C71.8598 186.497 60.2095 179.712 48.5174 173.003C46.1653 171.672 44.9733 169.702 45.0854 166.978C45.0887 153.215 45.0854 139.453 45.0854 125.695C45.0502 122.216 48.713 121.027 51.1838 119.521C51.901 119.142 52.1451 118.647 52.1434 117.856C52.1217 110.979 52.1501 104.101 52.1217 97.2219C52.11 94.1309 53.3521 91.864 56.0686 90.2992C67.1622 83.9032 78.2509 77.4938 89.3411 71.0894C90.9075 70.1649 92.5977 69.2906 94.4834 69.4176" fill="black"/>
<path d="M45.1371 166.713C45.102 166.726 45.0351 166.726 45 166.713V125.421C45.0468 125.404 45.0936 125.406 45.1404 125.423C45.1271 139.184 45.1923 152.951 45.1371 166.711" fill="#E9CFC6"/>
<path d="M49.0462 124.94C49.3755 125.38 49.6146 125.967 50.0492 126.236C61.9035 133.555 74.0804 140.337 86.1235 147.337C88.1714 148.35 89.9134 150.162 89.92 152.579C89.8298 166.127 90.1959 179.73 89.8248 193.252C89.5573 194.123 89.151 194.352 88.3252 193.99C74.724 186.224 60.755 178.78 47.6469 170.261C46.5051 169.074 46.465 167.498 46.465 165.948C46.5519 152.45 46.2962 138.938 46.5703 125.447C47.336 124.987 48.1802 124.91 49.0462 124.94Z" fill="#DCA8A8"/>
<path d="M75.5793 126.643C62.1453 118.74 66.9682 124.685 66.0722 105.301C66.0471 103.018 67.0619 101.398 68.9526 100.298C80.6514 93.1814 93.1259 87.0678 104.295 79.2023C104.241 79.1037 104.188 79.0067 104.134 78.9081C101.03 79.9279 98.3099 81.9707 95.4011 83.4602C85.7736 89.4668 75.1196 94.1577 66.124 101.037C65.1143 102.103 64.7599 103.478 64.7666 104.962C64.7532 110.126 64.8535 115.273 64.7382 120.436C59.7213 117.911 59.4672 115.807 53.7616 118.072C53.7181 110.47 53.3754 102.877 55.2277 95.4566C55.4901 95.0955 55.7309 95.3697 55.9315 95.5151C58.7617 97.3373 61.4331 99.1979 64.7047 100.219C62.1269 98.2384 59.2682 96.7973 56.4196 95.246C56.1505 95.1089 55.8479 95.0019 55.7509 94.6625C55.7175 94.2078 56.0886 94.0557 56.3728 93.8517C63.6164 88.5406 72.0035 85.0534 79.6717 80.3809C84.152 77.8482 88.7108 75.4576 93.2228 72.9852C95.254 72.273 98.7796 74.5265 100.548 75.6031C102.07 76.6814 103.685 77.6192 105.268 78.6038C105.677 78.8579 106.092 79.107 106.008 79.6955C105.938 80.2321 105.839 82.0042 105.01 80.8958C104.923 80.7219 104.855 80.5096 104.599 80.7102C103.999 82.2466 102.944 83.8915 103.549 85.5934C104.467 85.4346 104.209 83.813 105.047 83.7862C105.547 84.4532 104.564 85.3994 105.388 85.901C105.804 86.1751 105.617 86.7402 105.913 87.0779C106.782 86.9475 106.381 85.7104 107.198 85.6318C107.299 93.2014 107.3 100.799 107.195 108.369C97.9338 114.213 87.3283 118.082 78.1103 124.172C77.0872 124.811 76.1594 125.549 75.5793 126.641" fill="#E9CFC6"/>
<path d="M102.546 150.389C102.688 146.323 102.795 142.262 98.7883 140.178C91.9509 136.132 85.0667 132.227 78.2109 128.205C87.6211 122.772 96.9394 117.379 106.35 111.971C107.455 111.335 108.67 111.292 109.782 111.932C119.401 117.459 128.975 123.068 138.602 128.579C139.617 129.193 138.281 130.012 137.733 130.373C125.951 136.931 114.471 144.178 102.546 150.389Z" fill="#E9CFC6"/>
<path d="M49.0461 124.945C48.2203 125.114 47.3961 125.283 46.5703 125.452C47.0033 124.756 47.2758 123.807 47.8993 123.411C50.4955 121.761 53.1987 120.276 55.8618 118.731C57.46 120.253 59.9208 120.54 61.8968 121.436C68.9063 125.372 75.62 129.954 82.6848 133.857C88.0811 137.049 93.2384 140.621 98.6448 143.797C100.298 144.966 99.6829 148.975 99.8618 150.862C99.8953 157.686 100.885 162.887 101.333 169.678C101.696 175.164 101.417 183.175 101.5 188.09C101.375 188.981 100.524 189.309 99.7799 189.748C96.8644 191.29 94.1161 193.481 90.9949 194.524C91.8091 180.689 91.107 166.812 91.3159 152.95C91.3109 150.336 90.2009 148.224 87.9424 146.887C74.948 139.667 62.4417 131.338 49.0461 124.944" fill="#E9CFC6"/>
<path d="M150.927 131.269C151.009 140.434 150.936 149.598 150.968 158.764C150.968 159.901 150.642 160.76 149.537 161.349C147.328 162.527 145.19 163.835 143.015 165.078C141.912 165.709 141.577 165.506 141.577 164.247C141.577 159.232 141.606 154.217 141.551 149.204C141.205 146.647 140.665 146.759 141.378 144.011C141.409 140.892 141.355 137.771 141.37 134.651C141.394 129.694 141.437 124.738 141.489 119.783C141.506 118.198 140.909 116.871 139.71 115.901C129.84 109.431 119.273 104.007 109.132 97.9532C108.686 97.6974 108.517 97.4199 108.539 96.9067C108.589 95.6562 108.577 94.4025 108.589 93.1503C108.858 92.8778 109.209 92.943 109.535 92.938C110.948 92.9714 112.289 92.2526 113.539 93.2657C120.049 97.2695 126.398 101.643 133.398 104.769C138.542 107.236 143.495 110.09 148.408 112.987C149.08 113.395 149.341 113.893 149.388 114.672C149.771 120.209 150.503 125.757 150.926 131.269" fill="#E9CFC6"/>
<path d="M139.308 166.993C127.043 173.869 115.153 181.551 102.624 187.877C102.45 181.766 102.547 175.678 102.584 169.571C115.065 164.297 126.279 156.281 138.183 149.815C138.526 149.611 138.966 149.206 139.267 149.91C139.134 153.041 139.275 156.176 139.068 159.307C138.921 161.522 139.148 163.739 139.425 165.942C139.472 166.308 139.491 166.659 139.31 166.993" fill="#E9CFC6"/>
<path d="M138.641 146.407C126.61 153.273 114.822 160.6 102.582 167.063V151.77C112.301 147.111 121.244 141.019 130.741 135.925C133.051 135.666 135.102 134.658 137.098 133.555C137.538 133.372 137.939 132.792 138.432 133.138C138.877 133.449 138.701 134.068 138.671 134.553C138.498 138.498 138.08 142.502 138.641 146.405" fill="#E9CFC6"/>
<path d="M108.595 99.1855C118.307 104.791 127.95 110.314 137.638 115.936C139.199 116.842 140.22 118.096 140.129 120.119C140.008 122.75 140.098 125.392 140.098 127.984C129.894 122.224 119.981 115.839 109.584 110.523C108.822 110.406 108.563 110.082 108.575 109.284C108.623 105.973 108.595 102.661 108.595 99.1855Z" fill="#DCA8A8"/>
<path d="M107.2 85.6342C106.452 87.2842 105.74 88.4511 105.284 85.8616C105.123 85.5205 105.287 85.2046 105.379 84.892C105.75 83.6365 106.048 82.3677 106.227 81.067C106.414 80.273 105.924 79.606 105.498 79.0175C103.157 77.5246 100.844 75.985 98.4348 74.6108C97.1342 74.0458 94.7787 72.6716 93.3979 73.1597C89.2871 75.3698 85.1897 77.6065 81.1023 79.86C72.8724 84.7365 64.054 88.6667 56.2486 94.2018C55.9895 94.5161 55.6201 94.8438 55.4295 95.2216C54.8243 97.9683 54.7625 100.882 53.7461 103.51C54.0319 99.5715 52.1763 94.2085 56.4944 91.9233C67.1199 85.8164 77.717 79.6578 88.3242 73.5175C90.8719 72.15 93.6888 69.5538 96.6059 71.4981C99.4295 73.1096 102.261 74.7094 105.05 76.3795C108.271 78.2853 106.956 82.5298 107.201 85.6342" fill="#F2E0E0"/>
<path d="M150.928 131.273C149.752 125.79 149.764 119.925 149.127 114.305C149.095 113.979 148.861 113.546 148.59 113.391C144.951 111.308 141.307 109.233 137.627 107.224C131.024 104.039 124.742 100.258 118.409 96.573C116.468 95.4396 114.586 94.2059 112.662 93.044C111.381 92.6194 109.922 93.1477 108.591 93.1543C108.384 92.3887 108.755 92.0243 109.378 91.5746C111.085 90.3408 112.603 90.62 114.313 91.6164C125.48 98.1177 136.679 104.566 147.877 111.017C149.891 111.874 150.904 113.247 150.934 115.497C150.958 120.756 150.934 126.016 150.926 131.275" fill="#F2E0E0"/>
<path d="M101.272 169.727C99.3311 161.87 100.13 153.456 99.3328 145.395C99.296 144.743 99.067 144.314 98.4535 143.938C90.8521 139.133 83.1955 134.422 75.4437 129.863C69.9521 126.633 64.8466 122.691 58.7916 120.542C57.7117 120.043 56.3843 119.962 55.8594 118.733C57.272 117.966 58.4907 118.325 59.8214 119.127C72.8408 126.928 86.2883 134.063 99.1706 142.074C100.796 143.312 101.31 145.039 101.309 147C101.269 154.573 101.361 162.161 101.27 169.727" fill="#F2E0E0"/>
<path d="M75.5798 126.642C75.3107 124.907 82.3219 121.619 83.9 120.549C91.5917 116.356 99.5775 112.685 107.196 108.372C107.224 109.006 107.252 109.638 107.276 110.159C96.978 115.36 87.4174 121.507 77.3886 127.137C76.5377 127.634 76.1499 126.918 75.5798 126.644" fill="#DCA8A8"/>
<path d="M139.084 149.642C131.252 153.994 123.549 158.567 115.805 163.071C111.429 165.236 107.38 168.469 102.582 169.572V168.543C115.359 161.901 127.534 154.283 140.076 147.196C140.138 147.88 140.189 148.442 140.239 149.002C139.903 149.303 139.484 149.456 139.084 149.644" fill="#DCA8A8"/>
<path d="M138.643 146.409C138.466 145.58 138.143 144.753 138.14 143.923C138.176 140.251 138.14 136.765 138.507 133.074C136.47 134.107 132.872 136.349 130.742 135.929C133.875 134.104 136.829 132.375 139.94 130.426C140.221 134.939 140.059 139.456 140.072 143.975C140.064 145.025 139.676 145.926 138.643 146.411" fill="#F2E0E0"/>
<path d="M139.087 149.642C139.472 149.428 139.858 149.214 140.242 149C140.252 154.361 140.274 159.722 140.259 165.084C140.257 165.833 140.077 166.582 139.309 166.993C138.863 161.222 138.539 155.413 139.087 149.642Z" fill="#F2E0E0"/>
<path d="M55.4279 95.2236C55.351 95.0731 55.2758 94.921 55.1621 94.6953C58.7463 95.6683 61.951 98.3397 65.1975 100.225C65.1474 100.329 65.0955 100.433 65.0454 100.538C61.961 99.5768 59.298 97.5607 56.4226 96.1079C56.0448 95.8956 55.7572 95.5228 55.4296 95.2236" fill="black"/>
<path d="M105.849 79.6127C106.842 79.5525 106.558 80.3282 106.479 80.7561C106.056 82.595 105.824 84.5326 105.088 86.2762C104.996 86.221 104.904 86.1659 104.812 86.109C104.879 85.34 104.946 84.571 105.015 83.802C104.744 83.3105 105.058 82.8057 105.118 82.3108C105.276 81.9247 105.162 81.4315 105.576 81.1473L105.846 79.6127H105.849Z" fill="black"/>
<path d="M105.578 81.1466C105.514 81.6883 105.289 82.2567 105.262 82.7548C104.979 83.9284 104.613 85.3126 103.483 85.9328C103.184 85.3995 103.119 84.8512 103.196 84.2544C104.152 83.1694 104.795 81.9775 104.513 80.4629C104.984 80.5348 105.334 80.7287 105.58 81.1466" fill="#F2E0E0"/>
<path d="M72.2266 107.662C71.0915 107.557 67.9737 104.834 67.7598 103.764C68.4318 103.727 71.9642 106.813 72.2266 107.662Z" fill="black"/>
<path d="M104.513 80.4629C105.427 81.1817 104.12 83.92 103.195 84.2544C103.453 82.927 103.971 81.695 104.513 80.4629Z" fill="black"/>
<path d="M69.9688 103.578C70.8715 103.658 72.1036 104.534 72.57 105.425C71.7909 105.594 70.0189 104.335 69.9688 103.578Z" fill="black"/>
<path d="M105.262 82.7482C105.28 82.6512 105.298 82.5543 105.317 82.459C105.298 82.5559 105.28 82.6529 105.262 82.7482Z" fill="#E9CFC6"/>
<path d="M99.8613 150.854C99.8948 157.679 101.332 162.866 101.332 169.67C101.332 175.335 101.603 182.228 101.157 187.75" fill="#E9CFC6"/>
<path d="M155.288 44.1597C154.979 39.086 154.756 34.0056 154.435 28.9319C154.31 26.9074 154.211 24.8796 154.051 22.8585C153.879 20.9861 153.89 17.5841 151.137 18.2595C149.891 18.5654 151.165 15.2354 147.618 13.3797C143.397 10.8387 139.105 8.41636 134.844 5.94554C133.248 4.99433 131.609 3.86591 129.63 4.01302C127.686 4.92077 126.504 5.82016 126.432 8.08703C126.001 37.65 126.4 67.1778 126.275 96.7524C124.968 95.8697 125.141 94.4203 123.848 94.0241C120.593 93.5076 120.186 85.5368 116.517 82.3839C119.205 80.3978 120.319 77.5726 120.857 74.4598C120.969 73.8112 121.193 73.3782 121.756 72.9921C125.218 70.3708 120.153 68.129 121.457 67.151C119.372 61.9152 123.453 64.8123 123.356 61.0525C122.901 59.0398 123.015 53.9962 121.001 53.1519C119.971 52.8192 119.513 52.1372 119.081 51.2946C114.175 42.2205 102.296 37.7252 92.8937 42.4846C90.6386 43.6649 90.0986 45.9167 89.4282 48.1835C86.5596 53.3726 86.1934 59.2437 88.4135 64.7421C88.8548 65.8705 87.7582 67.0256 88.1343 68.1557C89.1374 70.4092 89.7776 75.4512 93.2298 74.393C93.534 75.0466 93.8968 75.5849 93.2565 76.1918C92.0595 77.479 94.1776 77.7598 95.1506 77.7582V78.8147C95.6906 78.6793 96.1469 78.5656 96.6652 78.4352C96.1252 81.0231 94.5304 82.2367 92.5477 83.6911C90.8475 85.2158 89.1909 86.7872 87.4974 88.3202C81.9723 92.8907 77.584 109.989 78.5737 116.915C79.0936 121.405 80.6767 125.601 82.1696 129.818C82.8282 131.677 84.2124 132.579 86.1918 132.623C87.3402 133.016 87.8083 135.144 88.4787 136.147C90.2089 139.492 95.1172 142.725 98.5593 140.094C100.184 141.119 102.488 144.405 104.559 143.708C105.709 145.649 105.718 145.617 107.262 146.074C110.35 146.986 113.428 147.936 116.338 148.819C116.637 149.984 117.652 150.582 117.36 151.714C116.602 154.389 115.786 157.052 115.175 159.762C114.528 162.629 114.076 165.541 113.565 168.438C113.053 170.87 116.514 171.435 116.005 172.935C115.559 174.724 115.654 176.666 114.68 178.31C113.754 179.791 112.953 181.3 113.274 183.121C111.895 183.42 111.813 184.572 111.492 185.551C111.219 186.382 111.896 186.71 112.376 187.076C117.801 191.374 124.036 193.608 130.8 194.759C135.894 194.524 135.289 192.165 135.951 188.032C137.728 188.429 139.659 188.424 141.484 188.537C142.228 188.554 142.957 188.27 143.261 187.415C144.826 183.021 141.636 177.042 137.079 175.852C136.69 175.745 136.157 175.752 135.836 175.509C134.714 174.229 133.547 172.985 134.4 171.026C134.625 170.508 134.741 170.175 135.376 170.167C140.575 169.668 141.862 164.665 142.183 160.611C143.198 152.662 143.82 144.676 144.005 136.665C144.077 134.166 143.255 131.964 141.178 130.363C137.148 127.255 132.84 124.637 128.059 122.84C127.669 122.693 127.475 122.515 127.362 122.061C126.972 120.509 126.053 119.384 124.461 118.901C121.333 118.01 121.3 116.984 119.665 114.556C118.964 113.209 118.075 111.793 117.655 110.359C117.724 109.534 117.933 108.724 118.09 107.883C121.059 110.024 122.525 110.021 124.265 108.08C128.047 108.523 131.688 108.951 135.331 109.374C136.528 109.513 137.832 109.3 138.681 110.512C141.954 112.395 145.948 112.585 149.594 111.684C151.129 111.29 151.74 109.662 152.672 108.54C153.628 107.923 154.066 107.062 153.86 105.944C154.213 101.475 151.434 103.112 148.524 103.332C148.185 101.604 147.748 101.209 146.053 100.977C144.788 100.803 143.514 100.668 142.257 100.44C139.998 99.8501 138.838 101.893 136.61 100.994C151.361 94.8884 147.633 68.9916 148.785 55.7548C148.73 53.6668 152.041 54.8153 151.59 51.3147C152.006 49.7082 154.778 49.4724 155.224 47.2022C155.233 47.1721 155.32 47.1638 155.37 47.1454V44.4706C155.288 44.382 155.288 44.2734 155.283 44.1614M147.506 62.9399C146.602 73.8212 147.912 86.5147 141.402 95.8731C140.012 97.6752 138.281 99.0142 136.05 99.6696C135.63 99.7933 135.306 100.236 134.761 100.674C132.342 99.9872 129.689 99.2633 127.064 98.4492C126.775 98.3589 126.646 97.7538 126.444 97.386L126.608 97.264C127.562 97.6602 130.327 100.072 130.66 98.2152C130.951 68.7994 130.112 39.2766 130.974 9.9109C131.178 8.67883 132.388 9.49796 133.136 9.81225C137.118 12.0925 141.086 14.3995 145.077 16.6664C146.536 17.4955 146.528 18.4066 146.463 19.9413C146.456 20.1085 146.117 20.3141 145.893 20.4127C143.758 21.3556 141.631 22.3185 139.468 23.1928C137.872 23.8381 137.241 24.9598 137.123 26.65C136.554 35.3781 136.812 44.1379 137.812 52.8209C137.99 56.1477 142.176 54.1048 144.261 54.0446C144.55 56.3266 144.605 56.3516 147.519 55.5993C147.519 58.0451 147.598 60.4942 147.503 62.9366" fill="black"/>
<path d="M94.1678 84.612C96.1054 89.0471 100.203 91.7102 103.23 95.2894L103.222 95.2777C103.309 95.378 103.279 95.5401 103.402 95.6204L103.406 95.5986C105.061 97.7652 106.417 100.129 107.906 102.408C108.831 104.282 111.124 105.818 111.101 107.998C110.872 108.222 110.584 108.128 110.313 108.147C107.383 108.802 110.563 112.189 111.52 109.188C112.228 109.166 112.015 109.785 112.182 110.139C111.943 111.952 111.816 113.787 111.432 115.569C111.101 117.112 111.238 118.309 112.575 119.339C113.025 119.685 113.277 120.456 113.364 121.069C113.483 122.791 115.187 123.354 116.278 124.478C112.069 126.95 108.026 129.323 103.839 131.783C102.468 130.65 100.865 129.366 99.3118 128.025C98.2786 127.134 97.1168 126.99 95.9917 127.566C95.1341 128.004 94.5272 127.943 93.8418 127.256C94.9703 125.651 94.539 124.097 93.688 122.458C92.8672 120.686 92.6883 118.585 91.8675 116.793C90.8829 114.747 93.8368 108.543 94.0709 105.691C94.2798 104.024 94.7228 100.898 93.9739 99.4186C93.8719 99.4369 93.7683 99.4553 93.6646 99.4737C93.2534 105.024 91.7739 110.281 90.1155 115.549C89.7728 115.761 89.4753 115.581 89.1744 115.44C88.9236 115.002 88.2917 114.914 88.1696 114.355C89.1058 113.603 87.5578 112.971 86.8791 113.185C87.1549 113.777 88.3836 113.627 88.1145 114.412C87.6447 114.601 87.1733 114.434 86.7303 114.342C85.8827 114.168 85.0769 114.355 84.2645 114.491C83.0659 114.541 84.1842 115.805 84.868 115.847C86.8807 116.465 90.0905 116.733 89.9183 119.54C89.8999 119.842 89.9567 120.175 90.1105 120.427C90.7943 121.546 91.2038 122.778 91.6669 123.99C91.9277 124.672 92.476 125.088 93.1313 125.371C92.9842 125.785 92.8371 126.201 92.6516 126.73C90.7007 123.654 86.3508 126.017 85.0268 128.55C84.2461 129.986 84.8195 129.837 85.4113 131.038C82.6579 131.613 80.8826 119.421 79.9314 117.069C79.7391 116.306 79.8561 115.467 79.831 114.663C81.2453 110.494 82.0578 106.161 83.2865 101.941C84.0472 98.7566 85.769 96.0133 87.312 93.168C88.0158 91.5765 89.3298 90.4531 90.3713 89.1207C92.5262 87.7031 93.3169 87.1547 94.1678 84.6104" fill="#D52B1E"/>
<path d="M117.252 53.0046C116.876 53.3373 115.175 53.7335 115.946 54.3754C116.476 54.9772 117.207 55.0324 117.929 55.1009C120.659 55.3534 120.249 55.5122 120.849 57.4163C121.259 58.7152 121.475 60.0727 122.025 61.3281C121.806 61.6642 121.587 62.0002 121.21 62.5786C120.451 56.2912 93.2156 69.0749 91.3784 72.7544C89.1583 68.3344 89.5378 68.0502 91.7478 63.7053C91.6876 63.6184 91.6274 63.5315 91.5673 63.4429C90.9955 63.7204 90.4238 63.9979 89.7651 64.3155C89.7116 64.1968 89.6297 64.018 89.5478 63.8408C90.3469 59.18 87.9898 54.1798 90.0025 49.7046C90.1898 50.0239 90.3218 50.2496 90.4539 50.4752C90.5492 50.4819 90.6428 50.487 90.7381 50.492C91.7244 48.6665 90.83 46.6269 92.0872 44.9351C93.2273 43.6278 94.6683 42.8689 96.3116 42.593C104.67 40.5552 113.119 45.7978 117.252 53.0029" fill="#9B1D1F"/>
<path d="M98.7756 75.263C101.191 76.6957 105.068 75.4687 105.452 72.4813C105.382 72.4144 105.312 72.3492 105.242 72.2824C104.637 72.7387 104.011 73.1684 103.431 73.6548C101.419 75.6041 97.1941 74.0644 97.821 71.0703C98.1553 69.7881 99.0798 69.1495 100.322 68.9138C102.375 68.424 103.814 69.7814 105.167 71.1573C105.613 70.6273 106.046 70.1141 106.623 69.4304C106.113 68.3204 106.016 66.9194 106.114 65.4818C109.971 64.1109 114.049 62.8254 118.138 62.1316C119.107 61.931 119.251 62.0213 119.383 63.0226C119.589 64.564 119.694 66.1203 119.91 67.66C120.04 69.2833 123.032 70.8514 120.764 72.1269C120.132 72.5365 119.799 73.0263 119.704 73.7986C119.391 80.0008 113.032 85.0293 107.021 82.4782C105.215 81.8681 103.747 80.8366 101.878 80.3083C102.552 81.8179 103.864 82.821 104.779 84.1851C105.217 85.021 105.053 86.1059 105.17 87.0304C105.269 87.0555 105.367 87.0789 105.466 87.1039C105.911 86.1159 106.355 85.128 106.792 84.1583C109.455 87.6957 104.416 91.0074 101.034 89.5079C98.7237 88.8425 94.2769 85.4222 95.9336 82.7725C96.4251 81.9667 96.9617 81.1693 97.3028 80.3C97.8461 78.5998 97.8795 76.8947 98.7739 75.2664" fill="#EED3CA"/>
<path d="M116.109 116.215C115.833 116.546 115.558 116.878 115.282 117.209C116.673 117.453 118.053 114.73 118.607 115.964C120.157 118.797 117.689 117.697 116.22 119.157C116.836 119.408 117.335 118.597 117.886 119.1C118.129 119.749 118.66 119.836 119.249 119.797C120.946 119.688 122.582 119.901 124.072 120.78C124.414 120.982 124.971 121.079 124.792 121.711C122.457 121.586 120.253 122.042 118.229 123.233C117.631 123.585 117.129 123.717 116.668 123.047C115.711 122.236 114.71 121.628 114.551 120.18C114.441 119.428 113.75 118.699 113.174 118.099C112.702 117.607 112.47 117.174 112.575 116.492C114.976 105.626 111.114 94.7244 108.369 84.2494C110.497 84.6757 112.455 84.3982 114.366 83.7061C115.432 84.9532 116.256 86.3558 116.972 87.8252C118.284 90.1439 118.527 93.1079 120.434 95.0454C120.62 95.689 119.714 95.8813 119.6 96.4631C119.675 96.8058 120.563 96.7757 120.807 97.1468C120.588 97.5162 120.371 97.884 120.152 98.2535C121.238 98.0228 122.238 97.558 123.251 97.1184C123.866 97.3591 124.475 97.6216 125.153 97.6182C125.08 97.7453 125.016 97.976 124.933 97.9827C120.862 98.327 118.491 102.304 120.086 106.111C120.564 107.363 121.802 107.172 122.973 107.567C121.394 109.177 119.889 107.463 118.607 106.49C118.475 106.385 118.463 106.019 118.518 105.805C119.55 101.736 119.057 97.8105 117.46 93.9755C116.405 91.8741 116.029 89.3381 114.516 87.5243C114.433 87.5644 114.347 87.6045 114.264 87.6447V88.6009C113.297 89.634 113.344 90.7959 113.829 92.0163C115.033 95.0488 115.752 98.2368 116.811 101.314C117.256 103.857 116.624 106.532 116.432 109.096C116.146 111.55 117.547 113.944 116.109 116.221" fill="#D52B1E"/>
<path d="M152.515 104.64C150.902 104.924 149.302 105.198 147.707 105.496C147.559 105.524 147.44 105.703 147.306 105.814C148.072 106.527 149.376 105.946 150.347 106.006C151.422 105.722 152.923 105.534 152.524 107.186C151.842 106.024 150.957 106.327 150.034 106.596C148.889 106.929 147.722 107.188 146.291 107.547C148.043 108.542 149.57 107.203 151.385 107.584C151.347 108.034 151.307 108.483 151.268 108.933C151.188 108.956 151.109 108.98 151.029 109.005C150.334 108.101 149.55 108.288 148.649 108.585C147.809 108.863 146.89 108.9 145.858 109.067C146.265 109.975 149.117 109.216 150.141 109.383C148.801 111.788 143.568 110.682 141.261 110.309C139.1 110.066 138.917 108.338 137.388 108.162C134.414 107.902 122.494 107.34 121.167 105.167C120.239 102.111 122.551 98.3827 125.982 99.5212C125.505 101.051 123.043 104.083 125.908 104.419C126.777 104.615 127.638 104.839 128.508 105.035C130.01 105.558 129.969 104.431 130.363 103.301C134.447 104.501 133.595 102.575 135.597 102.176C139.705 103.288 139.324 101.098 142.674 101.775C143.854 102.071 145.093 102.131 146.298 102.336C147.034 102.462 147.082 102.565 147.106 103.488C146.101 103.645 143.924 103.102 143.299 103.838C144.399 104.806 149.876 104.717 151.36 104.112C152.224 103.823 152.462 104.021 152.514 104.638" fill="#EED3CA"/>
<path d="M148.983 22.0515C148.99 23.2736 149.035 24.4956 148.991 25.716C148.945 27.055 148.251 27.5031 147.022 27.0383C146.283 26.7491 145.13 26.0837 146.011 25.2746C147.475 25.7661 147.89 25.4669 147.881 23.9339C147.873 22.2939 147.866 20.654 147.823 19.014C147.771 17.0815 146.539 15.9798 145.006 15.0954C141.154 12.8754 137.308 10.6503 133.458 8.42858C131.361 7.21824 129.723 8.05578 129.467 10.4681C127.802 39.0631 129.621 68.3518 128.802 96.9401C127.842 96.6543 127.565 96.0541 127.566 95.0277C128.269 65.6068 126.281 35.6929 128.332 6.50441C129.648 6.06809 130.952 6.18846 132.109 6.8839C136.592 9.5804 141.251 11.9643 145.731 14.6641C146.699 15.4298 148.326 15.8394 148.418 17.2637C148.578 18.8619 148.645 20.4717 148.983 22.0499" fill="#AFAFAF"/>
<path d="M151.313 37.6059C151.335 40.3844 151.363 43.1644 151.373 45.9429C151.422 46.869 150.586 47.2769 149.882 47.6631C148.86 48.1395 148.511 48.9754 148.585 50.0436C148.631 50.7107 148.653 51.3794 148.733 52.043C148.916 53.5225 148.927 53.5208 147.388 54.0658C146.468 48.6695 147.872 48.6728 142.143 50.0353C141.612 50.1523 141.408 49.9233 141.331 49.3917C140.758 43.7094 139.741 37.6945 140.823 32.0892C152.089 29.3492 148.74 27.2847 151.313 37.6059Z" fill="#B7CADE"/>
<path d="M126.209 181.36C124.852 183.305 123.536 185.187 122.155 187.165C120.134 186.443 117.964 185.374 116.003 184.408C114.699 183.754 114.164 182.574 114.631 181.212C115.151 179.786 116.152 178.485 116.481 176.986C116.603 176.335 116.894 175.949 117.484 175.715C119.643 174.872 121.53 173.682 123.966 174.08C123.409 177.601 123.77 178.851 126.213 181.36" fill="#EED3CA"/>
<path d="M134.423 189.568C134.112 191.253 134.208 193.405 131.912 193.221C129.539 193.375 127.268 192.798 125.033 192.092C123.199 191.588 110.942 186.825 113.226 184.516C113.413 184.377 113.888 184.346 114.037 184.481C116.382 186.612 119.502 187.226 122.148 188.799C122.71 189.125 123.016 188.849 123.281 188.374C123.878 187.313 124.49 186.26 125.095 185.203C126.1 184.473 127.534 183.876 128.766 184.319C130.975 185.636 133.119 187.363 134.423 189.568Z" fill="#E68078"/>
<path d="M146.48 21.4272V23.8328C143.949 24.0752 143.524 26.7466 145.97 28.0372C143.929 29.2325 139.244 29.9831 139.279 32.7247C139.012 38.5323 139.174 44.3717 140.135 50.1108C140.515 52.4712 143.985 50.7494 145.577 50.8012C146.047 53.1015 146.119 54.3035 145.694 55.0139C145.405 53.8655 145.749 52.2957 144.134 52.6418C143.257 52.7722 142.401 53.0513 141.521 53.1734C138.87 53.5445 139.142 53.7167 138.903 51.2074C138.084 43.1463 138.126 35.0418 138.352 26.9506C138.367 25.7753 138.768 24.896 139.945 24.3912C142.106 23.4667 144.228 22.4519 146.48 21.4238" fill="#FCFCFC"/>
<path d="M128.8 96.9499C128.394 69.4616 128.715 41.9666 128.637 14.4766C128.749 13.4117 128.408 12.1111 129.392 11.3906C129.488 40.0308 129.394 68.6709 129.427 97.3143C129.157 97.1572 128.978 97.0536 128.8 96.9499Z" fill="#E8E8E8"/>
<path d="M142.346 183.561C142.11 184.372 142.411 187.142 141.51 187.244C136.047 188.344 134.056 184.993 130.557 181.715C131.459 180.879 132.377 180.027 133.297 179.174C134.784 179.651 136.249 178.151 137.553 179.472C139.159 180.814 141.003 181.923 142.346 183.561Z" fill="#E68078"/>
<path d="M91.5175 128.163C91.0995 128.454 90.6833 128.743 90.267 129.034C90.2787 129.111 90.2887 129.188 90.3004 129.267C93.3029 129.462 94.9913 130.159 97.2298 132.09C97.5257 132.317 97.7447 133.088 97.5842 133.369C97.3184 133.832 96.7015 133.727 96.2618 133.384C94.7573 132.207 93.0889 132.662 91.4573 132.936C91.3536 132.953 91.1831 133.672 91.3219 133.862C95.9994 140.305 93.7291 135.79 97.5273 139.202C94.5383 140.883 90.7016 137.918 89.3893 135.223C88.8795 134.145 88.393 133.053 87.8162 132.01C87.5153 131.022 85.7115 129.937 86.3384 128.929C87.2261 127.404 91.1798 124.935 91.5175 128.163Z" fill="#EED3CA"/>
<path d="M141.294 157.596C140.669 149.339 142.73 140.659 139.818 132.704C139.574 132.152 139.026 131.634 138.489 131.328C134.174 128.865 129.865 126.386 125.222 124.557C124.918 124.439 124.716 124.062 124.465 123.805C124.692 123.644 124.92 123.486 125.147 123.325C130.757 124.706 135.443 128.133 140.162 131.299C141.846 132.431 142.645 134.126 142.613 136.079C142.483 143.266 142.095 150.451 141.293 157.594" fill="#9B1D1F"/>
<path d="M94.1671 84.6126C94.1287 86.495 92.9652 87.6986 91.5358 88.6097C90.0112 89.581 88.8761 90.9167 88.0319 92.4062C83.3728 99.0162 82.679 107.26 79.832 114.665C80.2734 106.671 82.6088 95.0108 88.4381 89.2383C90.0981 87.7103 91.7331 86.1573 93.3814 84.6176C93.6355 84.3802 93.903 83.9907 94.1671 84.6126Z" fill="#DD554B"/>
<path d="M108.32 88.3135C109.425 93.312 110.481 98.0881 111.538 102.866C111.456 102.893 111.374 102.919 111.294 102.946C108.357 98.5712 104.704 94.8148 100.949 90.9197C103.907 91.4864 106.451 91.0752 108.32 88.3151" fill="#E8E8E8"/>
<path d="M132.995 170.527C132.708 173.042 133.012 174.314 134.634 176.159C128.972 181.255 131.558 181.123 125.24 176.79C127.888 174.593 129.844 171.676 132.995 170.529" fill="#EED3CA"/>
<path d="M150.083 52.4544C150.083 51.3427 149.44 49.696 150.47 48.9036C152.138 48.1162 152.828 46.839 152.775 45.0285C152.721 40.2423 152.67 35.4578 152.213 30.6867C151.896 29.2825 152.521 26.2784 150.338 26.5509C150.338 24.6969 150.383 22.8714 150.316 21.0492C150.18 19.8004 151.065 19.8071 152.056 19.5312C153.33 28.0053 153.101 36.6832 153.98 45.2258C154.086 46.6451 153.843 47.8287 152.484 48.5542C151.172 49.3048 149.921 50.0889 150.322 51.8642C150.361 52.0531 150.254 52.2721 150.214 52.4761C150.17 52.4694 150.127 52.4627 150.083 52.4544Z" fill="#E8E8E8"/>
<path d="M105.096 134.705C106.369 135.711 107.645 136.716 109.019 137.801C102.269 141.255 104.965 140.397 97.6012 135.064C100.956 132.617 97.8553 130.815 95.5684 129.319C96.991 128.499 97.4089 128.065 98.8801 129.417C100.124 130.562 101.45 131.617 102.738 132.714C102.205 133.149 101.441 133.363 100.818 132.816C100.36 132.395 99.8931 133.035 100.381 133.414C100.848 134.105 101.757 133.847 102.275 134.29C102.23 135.87 104.509 136.571 104.93 134.869C104.967 134.795 105.022 134.742 105.096 134.707" fill="#404040"/>
<path d="M116.429 109.083C116.536 106.928 116.66 104.775 116.738 102.619C116.123 98.8005 114.415 95.1695 113.387 91.4315C112.955 90.0824 113.288 89.0359 114.261 88.5879C117.141 96.7075 119.052 100.377 116.429 109.083Z" fill="#DD554B"/>
<path d="M120.472 95.1519C118.742 94.5467 117.847 89.7555 116.799 88.047C116.107 86.5441 115.081 85.2034 114.365 83.7055C116.739 81.2949 119.546 90.9241 120.313 92.5038C121.363 95.7604 124.188 94.4615 123.727 96.3806C122.583 95.9811 121.759 96.7969 120.806 97.1463C120.507 97.0242 120.208 96.9022 119.909 96.7802C119.8 96.0864 121.243 95.7671 120.472 95.1536" fill="#DD554B"/>
<path d="M117.249 53.0072C112.915 46.5643 109.033 44.3276 101.756 42.0239C109.127 41.7999 114.829 46.7599 118.463 52.7431C118.002 52.8434 117.626 52.9253 117.249 53.0072Z" fill="#DD554B"/>
<path d="M93.1327 125.374C91.598 125.905 90.5331 121.231 89.7876 120.101C89.6521 118.175 89.4114 117.424 87.4973 116.844C86.5946 116.361 83.5369 116.294 83.6891 115.052C83.8613 114.695 84.199 114.658 84.53 114.638C86.4842 114.419 88.2178 115.382 90.1169 115.552C90.167 115.853 90.1369 116.197 90.279 116.445C91.1183 117.896 91.3072 119.526 91.69 121.112C92.0711 122.558 93.1043 123.814 93.1344 125.375" fill="#DD554B"/>
<path d="M148.983 22.0538C148.214 20.5409 148.466 18.7956 148.169 17.1656C148.12 16.8129 147.888 16.3582 147.6 16.1843C144.483 14.307 141.341 12.4697 138.199 10.6342C135.002 9.09451 132.092 6.08038 128.332 6.50667C129.166 5.46183 130.046 5.17597 131.256 5.81457C136.569 8.66654 141.726 11.8094 147.01 14.7115C149.794 16.1893 148.844 19.4927 148.985 22.0538" fill="#E8E8E8"/>
<path d="M151.314 37.6074C150.193 35.3038 150.208 32.6691 149.517 30.0478C146.588 30.4674 143.78 31.7981 140.824 32.0907C141.18 31.8098 141.498 31.4354 141.901 31.2649C144.95 29.9659 147.7 28.9445 150.794 27.582C150.977 31.0877 151.145 34.3475 151.314 37.6074Z" fill="#E8E8E8"/>
<path d="M134.424 189.567C132.808 187.755 131.113 186.013 129.051 184.701C127.709 183.882 126.336 184.747 125.098 185.202C126.009 184.498 128.018 180.77 129.127 182.183C130.962 184.443 135.126 186.193 134.426 189.567" fill="#EEAAA5"/>
<path d="M142.348 183.559C140.776 182.534 137.599 179.02 135.955 179.091C135.042 179.308 134.212 179.644 133.299 179.172C134.444 178.467 135.574 176.753 137.065 177.262C139.509 178.624 141.796 180.712 142.348 183.557" fill="#EEAAA5"/>
<path d="M110.997 108.054C109.325 103.46 105.649 99.9247 103.402 95.6016C107.048 99.7307 112.102 104.261 112.179 110.141C111.993 109.813 111.809 109.485 111.626 109.158C111.241 108.929 111.144 108.442 110.997 108.054Z" fill="#DD554B"/>
<path d="M89.339 51.5C89.553 54.8184 89.7971 58.1334 89.9609 61.4535C89.9994 62.2509 90.3421 63.1653 89.5497 63.8441C88.2056 59.8637 87.5887 55.4654 89.339 51.5Z" fill="#DD554B"/>
<path d="M124.789 121.706C122.888 118.864 117.336 121.187 117.744 119.008C117.866 118.367 118.775 118.466 118.949 117.819C118.744 117.04 118.854 116.114 117.935 115.672C118.035 115.515 118.134 115.358 118.386 114.962C119.319 116.187 119.349 117.513 120.596 118.342C121.816 119.143 122.97 119.994 124.448 120.362C125.041 120.51 125.491 121.244 126.006 121.711C125.952 121.798 125.899 121.886 125.845 121.973C125.494 121.883 125.141 121.794 124.79 121.704" fill="#DD554B"/>
<path d="M122.023 61.33C120.741 59.8789 120.83 55.3201 119.253 55.4739C118.404 55.4137 117.56 55.28 116.719 55.1429C116.304 55.076 115.88 54.9573 115.946 54.3756C122.791 53.4996 120.582 54.1081 122.025 61.3283" fill="#DD554B"/>
<path d="M130.172 100.717C129.691 101.792 129.254 102.769 128.8 103.782C127.857 103.563 126.892 103.339 125.672 103.056C127.295 100.241 126.673 99.3567 130.171 100.717" fill="#FCFCFC"/>
<path d="M103.02 142.093C99.8571 139.43 96.6942 136.765 93.5312 134.102C93.573 134.032 93.6148 133.962 93.655 133.892C96.9148 135.819 99.6882 138.591 102.732 140.868C103.017 141.098 103.115 141.56 103.301 141.914L103.02 142.091V142.093Z" fill="#404040"/>
<path d="M116.109 116.223C116.571 114.655 116.566 113.12 116.427 111.519C117.962 112.971 118.438 114.798 116.109 116.223Z" fill="#DD554B"/>
<path d="M104.33 142.075C104.455 141.819 104.514 141.426 104.715 141.329C106.159 140.64 107.632 140.012 109.272 139.45C108.755 140.669 105.754 141.445 104.526 142.234C104.46 142.18 104.395 142.128 104.33 142.075Z" fill="#404040"/>
<path d="M91.0136 65.0576C90.9735 66.507 90.1844 67.8561 89.8267 69.257C88.6782 67.602 89.611 66.0991 91.0136 65.0576Z" fill="#DD554B"/>
<path d="M130.951 102.115C131.274 100.533 132.625 101.526 133.633 101.707C133.019 102.595 132.352 102.693 130.951 102.115Z" fill="#EED3CA"/>
<path d="M102.736 132.714C103.522 133.379 104.308 134.043 105.093 134.706C104.087 135.265 103.064 134.842 102.213 134.238C102.255 133.71 102.726 133.32 102.686 132.765L102.736 132.712" fill="#404040"/>
<path d="M125.152 97.6075C124.367 98.0154 123.782 97.661 123.25 97.1077C123.461 96.9488 123.671 96.79 123.947 96.5811C124.323 96.9004 124.738 97.2548 125.152 97.6075Z" fill="#DD554B"/>
<path d="M128.177 180.488C126.88 180.939 126.828 179.707 126.178 179.388C126.221 179.321 126.263 179.254 126.305 179.188C126.883 179.59 127.463 179.992 128.177 180.488Z" fill="#E5928C"/>
<path d="M103.402 95.6239C103.341 95.5103 103.281 95.3949 103.223 95.2812C103.283 95.3949 103.343 95.5103 103.402 95.6239Z" fill="#DD554B"/>
<path d="M126.059 178.972C126.018 179.119 125.902 179.069 125.925 178.929C125.97 178.942 126.014 178.957 126.059 178.972Z" fill="#E5928C"/>
<path d="M103.231 95.2898C103.166 95.2363 103.102 95.1811 103.037 95.126C103.101 95.1811 103.166 95.2346 103.231 95.2898Z" fill="#DD554B"/>
<path d="M135.021 152.806C133.799 154.951 132.613 157.116 131.268 159.187C131.171 159.146 131.075 159.102 130.979 159.06C131.793 156.459 133.364 154.139 134.454 151.638C135.549 149.364 136.599 147.067 137.672 144.782C137.908 144.282 138.028 143.71 138.719 143.809C138.871 144.051 138.787 144.297 138.709 144.533C137.706 147.372 136.676 150.292 135.021 152.808" fill="black"/>
<path d="M130.805 153.943C130.223 155.606 124.216 161.456 123.029 161.566C123.549 160.349 130.109 153.878 130.805 153.943Z" fill="black"/>
<path d="M123.243 149.534C122.566 150.562 121.145 152.038 119.951 151.391C120.016 151.256 120.046 151.052 120.155 150.994C121.18 150.544 122.155 149.726 123.243 149.534Z" fill="black"/>
<path d="M97.3673 122.34C96.3325 122.104 95.1456 122.361 94.3398 121.52C98.7415 121.442 103.1 121.28 107.324 119.919C107.374 120.031 107.426 120.141 107.476 120.253C105.93 121.958 103.66 122.305 101.458 122.422C100.124 122.44 98.6462 122.831 97.369 122.34" fill="black"/>
<path d="M104.067 117.346C102.912 117.876 101.759 118.406 100.604 118.936C100.542 118.824 100.48 118.712 100.418 118.6C103.639 115.92 107.583 114.27 110.669 111.399C110.771 111.476 110.873 111.553 110.975 111.63C110.545 112.961 109.506 113.872 108.397 114.641C107.011 115.594 105.662 116.814 104.067 117.347" fill="black"/>
<path d="M104.068 117.347C106.263 115.772 108.661 114.448 110.578 112.527C112.352 112.512 108.691 115.592 108.188 115.849C107.143 116.287 105.031 118.616 104.068 117.347Z" fill="#DD554B"/>
<path d="M97.3652 122.336C100.409 122.333 103.439 122.209 106.351 121.173C107.954 123.468 98.2496 123.005 97.3652 122.336Z" fill="#DD554B"/>
<path d="M111.256 108.314C111.38 108.593 111.503 108.874 111.629 109.153C111.442 111.306 108.64 110.888 108.909 109.014C109.069 108.142 109.8 107.804 111 108.05L111.032 108.025C111.184 108.061 111.134 108.255 111.258 108.314" fill="black"/>
<path d="M108.185 115.849C108.643 115.495 109.099 115.14 109.557 114.784C110.947 115.078 111.09 116.337 110.58 116.946C109.711 118.161 107.857 117.277 108.185 115.849Z" fill="black"/>
<path d="M111.085 120.001C112.729 119.962 112.884 122.56 111.159 122.562C109.471 122.709 109.454 119.949 111.085 120.001Z" fill="black"/>
<path d="M89.2169 115.339C88.9979 116.011 88.595 115.61 88.2188 115.533C87.0085 115.287 85.7932 115.053 84.5711 114.866C84.1147 114.849 83.645 115.16 83.1719 114.929C84.7583 113.777 86.4685 114.04 88.1837 114.357L88.172 114.347C88.5214 114.678 88.8691 115.008 89.2185 115.339" fill="black"/>
<path d="M94.8281 104.361C94.9518 103.351 96.1154 100.517 96.8977 99.9873C97.7018 100.85 96.1388 104.314 94.8281 104.361Z" fill="black"/>
<path d="M88.1851 114.36C87.6034 113.976 86.8895 113.75 86.5234 113.12C86.7107 113.033 86.9213 112.844 87.0801 112.881C87.7923 113.061 88.5462 113.228 88.8304 113.997C88.6114 114.114 88.3924 114.231 88.1718 114.348L88.1835 114.358" fill="black"/>
<path d="M101.532 59.3331C98.8289 60.4114 96.1909 61.8457 93.4142 62.6565C93.3105 62.5361 93.2052 62.4141 93.1016 62.2937C96.1458 60.4749 99.1883 58.651 102.597 57.6112C106.109 56.4059 109.705 55.4447 113.278 54.4132C113.659 54.3029 114.112 54.4416 114.533 54.465C114.526 54.5452 114.518 54.6272 114.511 54.7074L108.03 56.8155C107.875 57.0428 107.557 57.0545 107.341 57.2117C105.374 57.8252 103.495 58.7497 101.534 59.3314" fill="black"/>
<path d="M107.922 56.8663C110.065 56.2929 112.242 55.8081 114.417 55.3584C114.455 55.442 114.492 55.5256 114.531 55.6108C112.653 56.8713 110.226 57.1689 108.106 57.9429C105.935 58.4093 103.76 59.414 101.531 59.3388C103.491 58.5681 105.451 57.7975 107.411 57.0251C107.543 56.8496 107.772 56.9833 107.922 56.8663Z" fill="#DD554B"/>
<path d="M92.0525 61.1655C92.029 61.4899 92.0073 61.8142 91.9839 62.1385C91.9103 62.1836 91.8385 62.2304 91.7649 62.2756C90.1534 60.8646 89.9945 55.2326 90.6599 53.2666C90.7385 53.2733 90.817 53.28 90.8956 53.2867C91.0327 54.4 91.5727 55.4248 91.4757 56.5415C91.6195 58.0895 92.0341 59.6041 92.0508 61.1655" fill="black"/>
<path d="M92.0521 61.1628C91.7679 59.0565 91.4854 56.9484 91.2012 54.8404C91.4302 54.6397 91.7645 54.1717 91.8197 54.8922C91.8782 56.9634 92.2778 59.1283 92.0521 61.1628Z" fill="#DD554B"/>
<path d="M93.0408 58.9558C92.4473 58.4108 91.9291 56.5385 92.2016 55.8397C92.4239 55.3766 92.7699 55.614 92.8853 55.94C93.0592 56.923 93.1946 57.9126 93.3417 58.8989C93.2414 58.9173 93.1394 58.9374 93.0391 58.9558" fill="black"/>
<path d="M94.4034 57.1512C94.2446 56.4056 94.0673 55.6617 93.9453 54.9094C94.8514 53.4567 95.0319 56.5778 94.7695 57.0994C94.6474 57.1161 94.5254 57.1328 94.4034 57.1495" fill="black"/>
<path d="M113.579 73.1084C115.111 73.2171 116.421 73.6183 117.837 73.4946C118.682 73.2154 118.732 73.7169 118.715 74.2719C118.565 79.7753 112.155 78.2323 113.579 73.1084Z" fill="black"/>
<path d="M118.441 66.6321C118.588 66.8277 118.051 67.3844 118.737 67.4596C117.64 70.9201 116.928 66.7725 114.442 68.705C114.245 68.8438 113.929 68.817 113.668 68.8655C113.7 66.4499 116.622 66.5903 118.439 66.6321" fill="black"/>
<path d="M118.038 64.7631C116.314 64.1797 115.035 64.382 113.531 65.4034C113.183 64.5491 113.87 64.2649 114.281 63.9206C115.378 62.762 118.357 63.0011 118.038 64.7631Z" fill="black"/>
<path d="M102.669 71.8097C102.1 71.5523 101.63 71.3399 101.099 71.1009C100.937 71.7746 100.754 72.3229 100.46 72.9231C100.375 72.908 100.29 72.8913 100.204 72.8763V70.8869H98.6113C99.3569 69.5562 102.692 69.9307 102.669 71.8097Z" fill="black"/>
<path d="M118.95 117.826C118.659 119.177 116.905 119.145 115.849 119.613L115.738 119.324C116.604 118.426 117.684 117.947 118.948 117.826" fill="black"/>
<path d="M120.473 95.1484C120.68 95.2003 120.889 95.2521 121.098 95.3039C120.734 96.0896 120.153 96.7433 119.288 96.999C119.217 96.011 120.018 95.6851 120.474 95.1484" fill="black"/>
<path d="M139.002 105.023C140.761 104.448 143.476 104.701 143.536 107.173C142.118 105.762 140.896 105.253 138.98 105.371C138.987 105.256 138.996 105.139 139.002 105.023Z" fill="black"/>
<path d="M151.031 42.6724C150.986 43.5183 151.277 44.6049 150.597 45.2535C148.296 47.0924 145.596 47.9701 142.728 48.378C142.049 48.475 141.68 48.1674 141.651 47.3733C141.594 45.7383 141.392 44.1101 141.308 42.4768C141.24 41.1494 141.355 41.0558 142.581 40.6078C151.894 37.7558 150.68 34.7517 151.065 42.6724C151.053 42.6724 151.043 42.6724 151.031 42.6724Z" fill="black"/>
<path d="M142.386 39.7524C141.389 38.0974 141.485 35.4912 142.386 35.1602V39.7524Z" fill="#E8E8E8"/>
<path d="M105.792 138.388C105.319 137.962 104.772 137.501 104.278 136.989C104.045 136.443 104.729 136.162 105.123 136.391C105.612 136.74 106.06 136.976 106.7 136.789C108.223 137.128 106.815 138.251 105.794 138.388" fill="black"/>
<path d="M101.19 137.343C100.704 136.979 100.124 136.583 99.6039 136.12C99.3548 135.605 99.9449 135.165 100.441 135.394C100.956 135.638 101.386 136.031 102.05 135.809C103.379 136.289 102.257 137.253 101.19 137.343Z" fill="black"/>
<path d="M102.216 134.24C103.137 134.493 104.041 134.852 105.031 134.765C105.489 136.765 101.714 136.424 102.216 134.24Z" fill="black"/>
<path d="M102.688 132.768C103.141 133.455 102.509 133.793 102.215 134.241C100.568 134.726 98.9732 132.33 100.645 132.48C101.26 133.181 101.991 132.82 102.688 132.768Z" fill="black"/>
<path d="M111.255 108.32C111.18 108.223 111.105 108.126 111.029 108.03C111.105 108.127 111.18 108.224 111.255 108.32Z" fill="#D52B1E"/>
<path d="M114.066 74.1104C115.417 74.2725 116.643 74.4179 117.848 74.5634C117.61 75.1368 115.156 74.9512 114.066 74.1104Z" fill="#E8E8E8"/>
<path d="M114.262 75.1045C115.497 75.4673 115.771 75.7046 116.094 76.6358C115.203 76.7896 114.742 76.4185 114.262 75.1045Z" fill="#DD554B"/>
<path d="M149.741 39.3066C149.741 40.8212 149.708 42.2907 149.758 43.7585C149.778 44.3252 149.539 44.6111 149.106 44.8802C147.237 46.0437 145.164 46.6339 142.9 47.1371C142.974 46.1591 142.033 42.0416 142.872 41.8811C145.1 41.0319 147.337 40.2027 149.741 39.3066Z" fill="#FCFCFC"/>
<path d="M141.295 157.595C140.523 162.385 140.902 168.498 134.523 168.896C130.582 169.132 127.861 172.504 123.855 172.581C120.754 172.743 117.127 172.046 115.236 169.473C114.851 168.756 114.846 167.677 115.035 166.838C116.184 161.724 117.424 156.632 118.665 151.54C119.156 149.176 115.691 149.14 119.758 147.941C119.743 147.856 119.73 147.769 119.715 147.684C118.111 147.657 116.573 147.684 115.054 147.078C112.392 146.289 109.708 145.57 107.071 144.701C106.511 144.517 106.122 143.817 105.56 143.26C107.334 142.065 110.472 141.764 110.445 139.45C110.472 138.399 110.558 137.382 109.672 136.618C108.099 135.318 106.727 134.233 105.15 132.817C108.084 130.512 111.404 129.014 114.551 127.053C117.347 125.314 121.742 121.982 125.149 123.323C124.701 123.851 124.847 124.184 125.469 124.43C129.728 126.11 133.679 128.405 137.707 130.552C139.304 131.403 140.292 132.549 140.655 134.328C141.256 137.282 141.811 140.266 141.688 143.265C141.646 148.055 141.559 152.829 141.297 157.594" fill="#531819"/>
<path d="M135.02 152.805C136.381 149.854 137.75 146.913 138.718 143.806C139.47 144.031 139.196 144.64 139.064 145.038C137.897 148.548 136.663 152.077 134.724 155.247C134.651 155.23 134.576 155.214 134.502 155.197C134.584 154.379 134.81 153.594 135.02 152.803" fill="#9B1D1F"/>
</svg>
