<svg width="80" height="80" viewBox="0 0 80 80" xmlns="http://www.w3.org/2000/svg"><g transform="translate(0 5)" fill="none" fill-rule="evenodd"><rect fill="#EDECEC" fill-rule="nonzero" x="12.792" y="65.558" width="46.669" height="4.354" rx="2.07"/><path fill="#636466" fill-rule="nonzero" d="M21.524 55.293l-2.51 10.265h34.232l-2.51-10.265z"/><path d="M57.718 70.594H14.543a2.434 2.434 0 01-2.434-2.383v-.843a2.434 2.434 0 012.434-2.526h43.175a2.434 2.434 0 012.434 2.425v.842a2.434 2.434 0 01-2.434 2.485zM14.543 66.24a1.061 1.061 0 00-1.07 1.061v.842a1.07 1.07 0 001.07 1.061h43.175a1.07 1.07 0 001.07-.993v-.843a1.061 1.061 0 00-1.07-1.06l-43.175-.068z" fill="#000" fill-rule="nonzero"/><path d="M53.246 66.24H19.015a.69.69 0 01-.53-.261.674.674 0 01-.127-.59l2.526-10.265a.674.674 0 01.657-.513h29.196a.674.674 0 01.657.513L53.92 65.39a.682.682 0 01-.657.843l-.017.008zm-33.355-1.398h32.488l-2.181-8.876H22.063l-2.172 8.876z" fill="#000" fill-rule="nonzero"/><rect fill="#929294" fill-rule="nonzero" x=".657" y=".968" width="70.939" height="59.377" rx="5.91"/><path d="M2.602 46.594a.295.295 0 01-.295-.295V5.12a.295.295 0 01.59 0v41.196a.295.295 0 01-.295.278zM67.899 6.919v36.267a2.22 2.22 0 01-2.22 2.22H6.649a2.22 2.22 0 01-2.22-2.22V6.92a2.22 2.22 0 012.22-2.22h59.03a2.22 2.22 0 012.22 2.22z" fill="#FFF" fill-rule="nonzero"/><path d="M22.796 4.379h43.419c.93 0 1.684.754 1.684 1.684v38.855H22.796V4.378z" fill="#EDECEC" fill-rule="nonzero"/><path d="M61.701 45.406V16.118c0-.963-.78-1.743-1.743-1.743H12.303a1.743 1.743 0 00-1.735 1.743v29.288h51.133z" fill="#FFF" fill-rule="nonzero"/><path d="M11.436 23.958h49.39v-7.84a.842.842 0 00-.843-.842h-47.68a.842.842 0 00-.842.842l-.025 7.84z" fill="#034694" fill-rule="nonzero"/><path d="M28.227 20.303h-13.07a.707.707 0 01-.706-.707.707.707 0 01.707-.7h13.07a.7.7 0 01.698.7.7.7 0 01-.699.707z" fill="#FFF" fill-rule="nonzero"/><path d="M11.436 45.474V16.118c0-.465.377-.842.842-.842h47.68c.465 0 .842.377.842.842v29.356h1.769V16.118a2.612 2.612 0 00-2.611-2.644H12.303a2.61 2.61 0 00-2.61 2.61v29.39h1.743z" fill="#000" fill-rule="nonzero"/><path d="M61.701 25.701H10.568a.842.842 0 01-.842-.842v-8.741a2.61 2.61 0 012.61-2.61h47.622a2.61 2.61 0 012.61 2.61v8.707a.842.842 0 01-.867.876zm-50.265-1.743h49.39v-7.84a.842.842 0 00-.843-.842h-47.68a.842.842 0 00-.842.842l-.025 7.84z" fill="#000" fill-rule="nonzero"/><path d="M21.895 45.474V24.825a.872.872 0 10-1.743 0v20.649h1.743zm10.442 0V24.825a.872.872 0 10-1.743 0v20.649h1.743zm10.324 0V24.825a.872.872 0 10-1.743 0v20.649h1.743zm10.316 0V24.825a.872.872 0 10-1.743 0v20.649h1.743z" fill="#000" fill-rule="nonzero"/><path d="M61.701 32.665H10.568a.872.872 0 110-1.743h51.133a.872.872 0 110 1.743zm0 6.973H10.568a.872.872 0 110-1.743h51.133a.872.872 0 110 1.743z" fill="#000" fill-rule="nonzero"/><path d="M.657 49.137v6.223a4.977 4.977 0 004.985 4.977h60.985a4.977 4.977 0 004.952-4.977v-6.223H.657z" fill="#B1B1B2" fill-rule="nonzero"/><path d="M66.03 46.088H6.29a2.526 2.526 0 01-2.526-2.526V6.568a2.526 2.526 0 012.527-2.526h59.738a2.526 2.526 0 012.527 2.526v36.969a2.527 2.527 0 01-2.527 2.551zM6.29 5.381c-.655 0-1.187.532-1.187 1.187v36.969c0 .656.532 1.187 1.188 1.187h59.738c.656 0 1.188-.531 1.188-1.187V6.568c0-.655-.532-1.187-1.188-1.187H6.291zm60.337 55.638H5.642A5.659 5.659 0 010 55.36v-6.223c0-.374.3-.678.674-.682h70.905a.69.69 0 01.682.682v6.223a5.667 5.667 0 01-5.634 5.659zM1.34 49.819v5.541a4.295 4.295 0 004.303 4.295h60.985a4.295 4.295 0 004.295-4.295v-5.541H1.34z" fill="#000" fill-rule="nonzero"/><path d="M66.627 61.019H5.642A5.659 5.659 0 010 55.36V5.945A5.659 5.659 0 015.659.286h60.968a5.667 5.667 0 015.66 5.66V55.36a5.667 5.667 0 01-5.66 5.659zM5.642 1.684A4.303 4.303 0 001.34 5.98v49.38a4.295 4.295 0 004.303 4.295h60.985a4.295 4.295 0 004.295-4.295V5.945a4.303 4.303 0 00-4.295-4.294l-60.985.033z" fill="#000" fill-rule="nonzero"/><path d="M59.419 9.566h-2.097a.53.53 0 010-1.052h2.097a.53.53 0 010 1.052zm5.238 1.044a.522.522 0 01-.37-.151l-2.098-2.097a.524.524 0 11.742-.74l2.096 2.096a.53.53 0 010 .74.522.522 0 01-.37.153z" fill="#034694" fill-rule="nonzero"/><path d="M62.56 10.61a.522.522 0 01-.37-.151.53.53 0 010-.741l2.096-2.097a.524.524 0 01.741.741l-2.096 2.097a.522.522 0 01-.371.152z" fill="#034694" fill-rule="nonzero"/><rect fill="#FFF" fill-rule="nonzero" x="33.331" y="51.604" width="6.602" height="6.602" rx="3.301"/><rect stroke="#000" stroke-width="1.5" stroke-linecap="round" stroke-linejoin="round" x="33.331" y="51.604" width="6.602" height="6.602" rx="3.301"/><path d="M65.154 38.316a11.79 11.79 0 1011.688 11.79c0-6.473-5.217-11.735-11.688-11.79h0z" stroke="#000" stroke-width="1.5" fill="#FFF" fill-rule="nonzero" stroke-linecap="round" stroke-linejoin="round"/><path d="M74.526 63.453a.716.716 0 010-.27.632.632 0 01.792-.42.598.598 0 01.286.193c1.188 1.238 1.255 1.305 1.238 1.633a.632.632 0 01-.716.548.665.665 0 01-.362-.177c-.11-.135-.59-.69-1.036-1.187a.657.657 0 01-.193-.32m1.549-3.84a.547.547 0 01.118-.245.657.657 0 01.514-.219l1.937.102a.64.64 0 01.554 1.043.64.64 0 01-.436.228.463.463 0 01-.186 0l-1.937-.093a.632.632 0 01-.564-.698v-.127.009zm-5.44 4.454a.699.699 0 01.076-.37.606.606 0 01.202-.185.615.615 0 01.295-.076c.345 0 .63.27.648.615 0 1.684.076 2.164-.185 2.383a.648.648 0 01-.901-.093.632.632 0 01-.143-.396l.008-1.878z" fill="#000" fill-rule="nonzero"/><path stroke="#000" stroke-width="3" stroke-linecap="round" stroke-linejoin="round" d="M70.552 53.575L68.69 55.46l-7.083-7.082 1.87-1.87zm-7.099-7.074l-1.878 1.87-.826-2.771z"/><path fill="#ED1D24" fill-rule="nonzero" d="M70.552 53.575L68.69 55.46l-7.083-7.082 1.87-1.87z"/><path fill="#FFF" fill-rule="nonzero" d="M63.453 46.501l-1.878 1.87-.826-2.771z"/><path stroke="#000" stroke-width="1.5" fill="#FFF" fill-rule="nonzero" stroke-linecap="round" stroke-linejoin="round" d="M61.575 48.371l1.878-1.87"/></g></svg>