<svg width="300" height="200" viewBox="0 0 300 200" fill="none" xmlns="http://www.w3.org/2000/svg">
<path d="M231.629 164.073C230.286 165.324 227.688 166.357 225.854 166.374L103.367 167.416C101.533 167.433 101.224 166.533 102.681 165.418L132.225 142.794C133.681 141.679 136.371 140.718 138.205 140.659L257.716 136.794C259.55 136.735 259.95 137.708 258.608 138.959L231.629 164.073Z" fill="#CCCCCC"/>
<path d="M42.252 184.396C41.4739 184.883 40.0955 185.163 39.1895 185.024L0.744006 179.083C-0.161967 178.944 -0.253674 178.455 0.541136 177.996L30.1659 160.927C30.9607 160.469 32.3586 160.032 33.2729 159.957L87.2116 155.48C88.1259 155.405 88.2371 155.739 87.4589 156.225L42.252 184.396Z" fill="#CCCCCC"/>
<path d="M99.5697 123.032C98.836 123.032 98.2441 123.032 97.6494 123.032C66.6768 123.032 35.7042 123.032 4.73435 123.029C4.28136 123.029 3.8117 123.06 3.38651 122.943C3.16696 122.885 2.88906 122.526 2.89461 122.309C2.90017 122.09 3.18363 121.745 3.40596 121.684C3.83115 121.57 4.30359 121.601 4.75658 121.601C35.7792 121.598 66.8018 121.598 97.8244 121.598C98.3664 121.598 98.9083 121.598 99.5725 121.598C99.5725 120.962 99.5725 120.47 99.5725 119.978C99.5725 93.4266 99.5697 66.8783 99.578 40.3272C99.578 39.021 99.5252 37.6871 99.7531 36.4143C100.212 33.8437 101.582 31.7205 103.527 30.0141C104.583 29.0887 105.728 28.2272 106.94 27.5241C115.76 22.4217 124.642 17.4333 133.432 12.2782C138.513 9.29903 143.99 8.02622 149.782 8.01788C180.904 7.98453 212.03 8.00121 243.152 8.04012C244.8 8.0429 246.498 8.24576 248.088 8.66818C252.849 9.93821 256.072 14.1235 256.325 19.1119C256.35 19.6149 256.342 20.1207 256.342 20.6265C256.342 45.8659 256.342 71.1025 256.342 96.3419C256.342 104.215 256.342 112.091 256.342 119.964C256.342 120.459 256.342 120.95 256.342 121.604C256.989 121.604 257.531 121.604 258.07 121.604C271.41 121.604 284.747 121.604 298.086 121.606C298.539 121.606 299.02 121.545 299.437 121.676C299.69 121.754 299.951 122.129 299.998 122.407C300.026 122.568 299.67 122.924 299.439 122.976C299.006 123.079 298.536 123.032 298.083 123.032C284.794 123.035 271.507 123.032 258.218 123.032C257.665 123.032 257.109 123.032 256.339 123.032C256.339 123.618 256.359 124.149 256.336 124.68C256.245 126.995 256.309 129.329 255.994 131.616C255.603 134.479 254.283 136.969 252.157 138.995C244.406 146.379 236.655 153.763 228.918 161.163C226.431 163.542 223.613 165.157 220.075 165.26C219.019 165.29 217.966 165.415 216.913 165.421C212.316 165.446 207.717 165.454 203.12 165.435C202.428 165.432 201.875 165.577 201.311 165.999C199.777 167.149 198.176 168.211 196.634 169.351C193.835 171.418 190.773 171.621 187.569 170.615C185.604 169.998 184.17 168.681 183.153 166.905C182.905 166.471 182.691 166.016 182.377 165.407C181.81 165.407 181.168 165.404 180.529 165.407C178.812 165.413 177.094 165.429 175.377 165.429C154.762 165.435 134.15 165.463 113.534 165.418C110.347 165.413 107.548 164.068 105.139 162.028C101.507 158.954 99.6086 154.997 99.5808 150.236C99.5336 141.757 99.5669 133.276 99.5669 124.797C99.5697 124.249 99.5697 123.71 99.5697 123.032Z" fill="black"/>
<path d="M231.279 156.386C232.288 152.871 231.921 149.28 231.921 145.717C231.941 110.084 231.941 74.4512 231.91 38.8153C231.91 37.3702 231.727 35.8751 231.327 34.4911C229.984 29.8418 225.919 26.7765 220.869 26.4541C219.913 26.393 218.952 26.3874 217.993 26.3874C183.285 26.3846 148.575 26.3874 113.867 26.3902C113.428 26.3902 112.986 26.3902 112.152 26.3902C112.672 25.9594 112.88 25.7288 113.139 25.5815C120.662 21.26 128.157 16.8886 135.733 12.6589C139.437 10.5912 143.508 9.51019 147.76 9.48518C159.177 9.41848 170.596 9.44905 182.015 9.44628C201.921 9.4435 221.825 9.43794 241.731 9.46295C243.441 9.46573 245.18 9.51297 246.85 9.827C251.344 10.6691 254.396 14.1512 254.832 18.7228C254.91 19.5259 254.943 20.3346 254.943 21.1405C254.949 46.6801 254.949 72.2196 254.949 97.7591C254.949 107.447 254.971 117.138 254.929 126.825C254.921 128.579 254.801 130.366 254.451 132.08C253.982 134.384 252.839 136.369 251.083 138.03C244.916 143.858 238.805 149.741 232.672 155.6C232.322 155.933 231.944 156.239 231.58 156.558C231.477 156.5 231.379 156.442 231.279 156.386Z" fill="#CCCCCC"/>
<path d="M254.95 97.7565C254.95 72.2169 254.95 46.6774 254.944 21.1379C254.944 20.3319 254.911 19.5232 254.833 18.7201C254.397 14.1485 251.346 10.6691 246.852 9.82432C245.182 9.51028 243.442 9.46304 241.733 9.46026C221.826 9.43525 201.923 9.44081 182.016 9.44359C170.597 9.44359 159.181 9.41302 147.762 9.4825C143.51 9.50751 139.438 10.5886 135.734 12.6562C128.158 16.8859 120.663 21.2574 113.14 25.5788C112.962 25.6816 112.807 25.8234 112.557 26.0429C119.802 21.8771 127.024 17.6724 134.319 13.5983C138.024 11.5307 142.095 10.4496 146.347 10.4246C157.764 10.3579 169.183 10.3885 180.602 10.3857C200.508 10.3829 220.412 10.3774 240.318 10.4024C242.027 10.4051 243.767 10.4524 245.437 10.7664C249.931 11.6085 252.982 15.0906 253.419 19.6622C253.497 20.4653 253.53 21.274 253.53 22.08C253.535 47.6195 253.535 73.159 253.535 98.6986C253.535 108.386 253.558 118.077 253.516 127.765C253.508 129.518 253.388 131.305 253.038 133.02C252.568 135.324 251.426 137.308 249.67 138.97C243.542 144.761 237.464 150.611 231.367 156.436C231.436 156.475 231.506 156.517 231.578 156.556C231.942 156.236 232.32 155.933 232.67 155.597C238.806 149.739 244.915 143.853 251.082 138.028C252.838 136.366 253.98 134.382 254.45 132.078C254.8 130.363 254.919 128.579 254.928 126.823C254.972 117.135 254.95 107.447 254.95 97.7565Z" fill="white"/>
<path d="M7.51906 155.169C7.85533 154.969 8.23606 154.741 8.73351 154.444C8.27774 154.177 7.86367 153.963 7.47738 153.707C6.95769 153.363 6.96325 152.818 7.50517 152.548C7.81642 152.393 8.17492 152.323 8.51674 152.248C12.627 151.328 16.4648 149.68 20.2833 147.949C30.588 143.277 40.4592 137.794 50.1637 132.003C51.9812 130.916 53.8432 129.902 55.6635 128.821C56.3943 128.387 57.1336 128.243 57.9756 128.318C65.4207 128.982 72.8658 129.627 80.3109 130.271C83.5819 130.555 86.8528 130.816 90.1238 131.091C90.5267 131.125 90.9325 131.152 91.3271 131.233C92.1636 131.408 92.4971 131.839 92.511 132.689C92.5527 135.313 92.5221 137.939 92.6722 140.557C92.7528 141.955 92.3915 142.913 91.0575 143.436C90.8741 143.508 90.7213 143.658 90.4711 143.83C90.4711 146.148 90.3711 148.521 90.5073 150.881C90.5934 152.37 89.9737 153.176 88.7954 153.921C76.2146 161.875 63.6588 169.865 51.0947 177.846C47.9432 179.847 44.7834 181.837 41.6459 183.86C40.8372 184.382 40.0702 184.535 39.0864 184.355C28.2758 182.348 17.4542 180.4 6.6381 178.427C4.57326 178.052 4.54547 177.952 4.28424 175.801C3.97854 173.3 3.61727 170.804 3.24765 168.311C2.99198 166.585 3.04756 166.446 4.54547 165.507C5.61263 164.837 6.64644 164.112 7.70804 163.434C8.38057 163.003 8.59456 162.492 8.44727 161.655C8.08043 159.529 7.83032 157.381 7.51906 155.169Z" fill="black"/>
<path d="M77.1409 59.7527C76.8518 57.8713 76.5823 55.9871 76.2655 54.1085C75.8375 51.5851 75.3234 51.0571 72.8639 50.5985C71.6772 50.3762 70.4767 50.2289 69.2845 50.0372C68.7175 49.9455 68.1534 49.826 67.5865 49.7176C67.5837 49.6147 67.5809 49.5119 67.5781 49.4091C67.8755 49.2979 68.1617 49.1367 68.4702 49.0867C69.9598 48.8422 71.4632 48.6699 72.9473 48.3947C75.2539 47.964 75.8375 47.372 76.2293 45.0988C76.5461 43.2674 76.8018 41.4249 77.0908 39.5907C77.1214 39.4017 77.1881 39.2183 77.3132 38.7514C77.5216 39.2183 77.6772 39.4378 77.7161 39.6741C78.0024 41.461 78.1997 43.2618 78.5471 45.0349C79.0001 47.3526 79.6087 47.889 81.8986 48.2586C83.2909 48.4809 84.6888 48.6587 86.0811 48.8811C86.4618 48.9422 86.8259 49.0923 87.2149 49.4619C86.8564 49.5731 86.5091 49.7287 86.1422 49.787C84.6999 50.0149 83.2548 50.2067 81.8097 50.4207C80.0394 50.6847 78.8305 51.5184 78.5804 53.4415C78.347 55.234 78.0329 57.0154 77.7411 58.7995C77.68 59.1664 77.5661 59.5221 77.4744 59.8834C77.366 59.8417 77.252 59.7972 77.1409 59.7527Z" fill="black"/>
<path d="M85.0401 80.7291C85.3375 82.6605 85.6098 84.5975 85.9378 86.5234C86.3407 88.8801 86.9215 89.4664 89.3115 89.9083C90.7483 90.1723 92.2018 90.3391 93.6413 90.5725C93.9581 90.6225 94.2638 90.7587 94.7807 90.9199C94.1165 91.4424 93.5274 91.4424 92.9632 91.5285C91.6682 91.7258 90.3704 91.8981 89.0837 92.1371C86.9799 92.5262 86.3463 93.1404 85.9711 95.2441C85.6348 97.1228 85.382 99.0181 85.0874 100.905C85.0568 101.094 84.9873 101.277 84.8567 101.75C84.6511 101.272 84.501 101.055 84.4621 100.819C84.1508 98.9347 83.8257 97.0533 83.5756 95.1607C83.3282 93.2932 82.1305 92.5012 80.4325 92.2316C78.9901 92.0037 77.5422 91.8175 76.0999 91.5897C75.7275 91.5313 75.3662 91.3951 75.0022 91.2978C74.9966 91.195 74.9911 91.0922 74.9883 90.9894C75.3885 90.8838 75.7803 90.742 76.1861 90.6781C77.6284 90.4502 79.0763 90.2557 80.5186 90.0362C82.1749 89.7805 83.3088 88.9773 83.5617 87.1932C83.8229 85.3535 84.1342 83.5193 84.4371 81.6851C84.4982 81.3183 84.6149 80.9625 84.7066 80.6013C84.8206 80.6402 84.9317 80.6846 85.0401 80.7291Z" fill="black"/>
<path d="M69.4309 73.7203C69.1085 73.8203 68.7944 73.9621 68.4637 74.0149C67.0214 74.24 65.5707 74.4178 64.1284 74.6513C61.9052 75.0098 61.1882 75.7018 60.7991 77.925C60.4767 79.7564 60.2266 81.6017 59.932 83.4387C59.8987 83.6499 59.7903 83.8499 59.429 84.0528C59.2762 83.0968 59.1233 82.1408 58.9677 81.1848C58.7732 79.9926 58.5703 78.8032 58.3841 77.611C58.1312 75.9991 57.1641 75.1404 55.5828 74.8986C54.2377 74.6958 52.8927 74.4873 51.5504 74.2706C50.9807 74.1788 50.4165 74.0621 49.8524 73.9537C49.8524 73.8481 49.8496 73.7397 49.8496 73.6341C50.1442 73.5258 50.4304 73.3701 50.7334 73.3201C52.323 73.0533 53.9154 72.8004 55.5133 72.567C57.1585 72.3252 58.1562 71.4526 58.4063 69.7657C58.6787 67.926 58.9816 66.089 59.2845 64.2548C59.3457 63.888 59.4596 63.5295 59.5513 63.1682C59.6513 63.1738 59.7514 63.1765 59.8514 63.1821C60.0571 64.5077 60.2627 65.8306 60.4712 67.1562C60.6046 68.001 60.7324 68.8486 60.8797 69.6907C61.1576 71.2775 62.1386 72.164 63.6977 72.428C65.14 72.6698 66.5879 72.8671 68.033 73.0978C68.5165 73.1756 68.9945 73.2923 69.4753 73.3896C69.4559 73.498 69.442 73.6091 69.4309 73.7203Z" fill="black"/>
<path d="M169.536 155.227C169.986 158.768 171.281 161.683 174.071 163.981C173.593 163.981 173.115 163.981 172.637 163.981C153.337 163.981 134.034 163.876 114.736 164.045C108.969 164.095 102.197 159.707 101.124 152.051C101.004 151.206 100.96 150.342 100.957 149.489C100.943 141.413 100.949 133.337 100.949 125.261C100.949 96.9478 100.949 68.632 100.952 40.319C100.952 39.363 100.907 38.3959 101.024 37.4482C101.41 34.2968 103.136 31.9346 105.632 30.1032C107.944 28.4052 110.556 27.7021 113.438 27.7076C135.315 27.7382 157.194 27.7243 179.071 27.7243C191.855 27.7243 204.638 27.7132 217.419 27.741C219.078 27.7437 220.776 27.7938 222.391 28.1245C227.176 29.1083 230.175 32.6849 230.511 37.5872C230.55 38.1402 230.542 38.696 230.542 39.2518C230.545 76.2022 230.542 113.15 230.547 150.1C230.547 151.97 230.489 153.827 229.972 155.647C228.585 160.522 225.151 163.604 220.095 163.843C214.971 164.084 209.827 163.895 204.374 163.895C204.83 163.512 205.061 163.289 205.316 163.106C209.082 160.388 212.864 157.692 216.613 154.952C218.239 153.766 219.973 152.646 220.862 150.734C221.26 149.878 221.621 148.955 221.738 148.03C221.969 146.182 222.13 144.311 222.13 142.452C222.152 109.945 222.146 77.4388 222.146 44.9322C222.146 43.7706 222.196 42.6089 222.138 41.4501C222.016 39.0906 220.946 37.312 218.742 36.3255C215.204 34.7414 211.789 34.7748 208.615 37.2259C207.937 37.7483 207.27 37.9262 206.406 37.9234C177.404 37.904 148.401 37.9179 119.402 37.9345C118.546 37.9345 117.673 37.9151 116.834 38.0568C113.563 38.6071 111.234 41.3611 111.123 44.746C111.098 45.5019 111.129 46.2606 111.129 47.0165C111.129 79.9789 111.123 112.939 111.148 145.901C111.148 147.096 111.265 148.341 111.609 149.478C112.582 152.704 115.731 155 119.246 155.202C120.002 155.247 120.761 155.225 121.519 155.225C136.929 155.225 152.339 155.227 167.752 155.227C168.299 155.227 168.85 155.227 169.536 155.227Z" fill="#B2B2B2"/>
<path d="M120.893 158.379C121.669 158.423 122.447 158.404 123.225 158.404C138.896 158.404 154.567 158.406 170.238 158.406C169.905 157.409 169.677 156.35 169.532 155.227C168.846 155.227 168.296 155.227 167.745 155.227C152.336 155.227 136.926 155.227 121.513 155.224C120.754 155.224 119.996 155.244 119.24 155.202C116.714 155.055 114.385 153.827 112.906 151.953C112.951 152.14 112.998 152.326 113.054 152.509C114.057 155.816 117.286 158.17 120.893 158.379Z" fill="white"/>
<path d="M102.301 155.147C102.179 154.28 102.132 153.396 102.132 152.518C102.118 144.233 102.123 135.949 102.123 127.665C102.123 98.6207 102.123 69.5768 102.126 40.5301C102.126 39.5491 102.082 38.557 102.198 37.5871C102.596 34.3522 104.366 31.9317 106.926 30.053C108.751 28.7108 110.761 27.9799 112.937 27.7131C110.249 27.7881 107.806 28.5023 105.628 30.1031C103.132 31.9372 101.406 34.2967 101.02 37.4481C100.903 38.393 100.948 39.3601 100.948 40.3189C100.945 68.6319 100.945 96.9477 100.945 125.261C100.945 133.337 100.942 141.413 100.953 149.489C100.953 150.345 101.001 151.206 101.12 152.051C101.356 153.735 101.868 155.261 102.585 156.617C102.468 156.142 102.373 155.653 102.301 155.147Z" fill="white"/>
<path d="M220.768 93.6657C220.768 110.118 220.771 126.57 220.759 143.022C220.759 144.281 220.623 145.54 220.59 146.799C220.52 149.322 219.32 151.195 217.325 152.64C213.851 155.158 210.388 157.69 206.914 160.207C203.563 162.636 200.225 165.085 196.837 167.458C195.734 168.231 194.533 168.917 193.288 169.426C191.577 170.126 190.312 169.709 189.106 168.303C188.264 167.322 187.739 166.171 187.527 164.915C187.336 163.776 187.197 162.614 187.197 161.461C187.18 132.142 187.2 102.82 187.161 73.5009C187.155 70.0076 187.183 66.5394 188.119 63.1489C188.386 62.1818 188.731 61.2286 189.114 60.3004C189.581 59.1693 190.304 58.23 191.265 57.4268C198.585 51.3074 205.875 45.149 213.203 39.0378C213.92 38.4403 214.784 37.929 215.665 37.6316C217.708 36.9424 219.709 37.9429 220.398 39.9716C220.668 40.7636 220.751 41.6501 220.751 42.495C220.771 59.5528 220.765 76.6107 220.765 93.6657H220.768Z" fill="#CCCCCC"/>
<path d="M119.774 145.637C120.06 146.943 120.994 146.715 121.822 146.715C137.132 146.718 152.441 146.715 167.749 146.715C168.296 146.715 168.843 146.715 169.491 146.715C169.491 149.099 169.491 151.387 169.491 153.832C168.957 153.832 168.466 153.832 167.974 153.832C152.211 153.835 136.445 153.832 120.682 153.841C119.04 153.841 117.461 153.621 116.025 152.765C113.868 151.481 112.687 149.6 112.581 147.076C112.565 146.673 112.576 146.268 112.576 145.865C112.576 112.852 112.576 79.8426 112.576 46.8302C112.576 46.0743 112.562 45.3156 112.595 44.5597C112.715 41.7584 114.788 39.6102 117.575 39.4212C118.732 39.3434 119.893 39.2934 121.055 39.2934C130.151 39.2823 139.244 39.2878 148.34 39.2878C148.887 39.2878 149.435 39.2878 150.065 39.2878C150.065 52.4244 150.065 65.4249 150.065 78.5031C148.62 78.4058 147.214 78.3641 145.822 78.2002C145.071 78.1112 144.441 78.2447 143.801 78.6087C135.87 83.1302 127.936 87.6462 119.993 92.151C119.321 92.5318 118.951 92.8986 119.437 93.6934C119.601 93.963 119.562 94.3687 119.576 94.7133C119.699 97.6369 119.801 100.56 119.929 103.484C119.985 104.793 120.316 105.101 121.691 105.224C123.234 105.363 124.773 105.502 126.599 105.668C126.229 105.982 126.088 106.155 125.907 106.249C125.112 106.658 124.943 107.305 125.026 108.147C125.246 110.354 125.337 112.577 125.624 114.775C125.757 115.792 125.426 116.379 124.648 116.915C123.859 117.457 123.153 118.119 122.378 118.683C121.705 119.169 121.455 119.686 121.544 120.589C121.802 123.196 121.858 125.825 122.064 128.44C122.125 129.224 121.889 129.793 121.358 130.319C120.749 130.922 120.174 131.564 119.568 132.169C118.996 132.742 118.793 133.37 118.873 134.212C119.154 137.072 119.315 139.945 119.579 142.805C119.651 143.586 119.493 144.122 118.843 144.617C117.517 145.626 116.258 146.721 114.977 147.785C114.705 148.01 114.385 148.213 114.207 148.499C114.074 148.713 114.024 149.216 114.138 149.291C114.377 149.45 114.791 149.53 115.055 149.433C115.416 149.3 115.713 148.98 116.025 148.727C117.228 147.735 118.429 146.743 119.774 145.637Z" fill="#808080"/>
<path d="M169.591 79.5481C163.51 79.4759 157.582 79.2841 151.607 78.6227C151.607 65.5222 151.607 52.5246 151.607 39.5353C152.711 39.2212 204.134 39.1712 205.638 39.4936C205.104 40.2356 204.512 40.494 203.584 40.3106C201.444 39.891 199.504 40.3995 197.768 41.7724C189.967 47.9419 182.135 54.067 174.348 60.2531C171.255 62.7098 169.582 65.9252 169.602 69.9437C169.616 72.6172 169.596 75.2934 169.593 77.9668C169.591 78.4587 169.591 78.9506 169.591 79.5481Z" fill="#404040"/>
<path d="M131.385 138.72C127.827 138.72 124.273 138.72 120.627 138.72C120.577 138.169 120.543 137.805 120.496 137.28C126.179 137.433 131.751 137.397 137.315 136.933C134.572 136.185 131.768 136.419 128.995 136.319C126.179 136.218 123.359 136.296 120.385 136.296C120.31 135.602 120.249 135.023 120.174 134.329C128.844 134.329 137.451 134.329 146.255 134.329C146.472 137.975 146.683 141.56 146.9 145.217C138.266 145.217 129.809 145.217 121.272 145.217C121.152 144.311 121.041 143.472 120.921 142.552C122.975 142.377 124.998 142.391 126.955 141.785C124.982 141.432 123.003 141.574 120.852 141.529C120.791 140.976 120.727 140.404 120.646 139.67C124.292 139.726 127.85 139.648 131.373 139.162C131.376 139.014 131.379 138.867 131.385 138.72Z" fill="#AFC0D4"/>
<path d="M148.92 121.401C148.92 124.688 148.92 127.754 148.92 131.036C140.425 130.841 132.04 130.466 123.62 130.207C123.575 129.61 123.539 129.163 123.5 128.648C125.784 128.493 128.027 128.337 130.273 128.184C130.284 128.068 130.298 127.948 130.309 127.831C129.972 127.762 129.636 127.637 129.3 127.634C127.382 127.615 125.465 127.626 123.375 127.626C123.339 126.95 123.308 126.325 123.269 125.553C125.131 125.553 126.885 125.553 128.639 125.553C130.456 125.553 132.274 125.58 134.091 125.55C135.809 125.519 137.548 125.653 139.235 125.275C139.232 125.169 139.23 125.061 139.227 124.955C139.057 124.93 138.888 124.891 138.718 124.886C134.983 124.777 131.248 124.683 127.513 124.558C126.251 124.516 124.995 124.366 123.733 124.313C123.117 124.285 123.144 123.91 123.158 123.393C123.483 123.354 123.814 123.288 124.145 123.282C127.074 123.221 130.003 123.168 132.932 123.113C133.377 123.104 133.885 123.221 134.041 122.407C130.406 122.407 126.785 122.407 123.069 122.407C123.005 121.823 122.955 121.403 122.889 120.806C131.62 121.003 140.224 121.201 148.92 121.401Z" fill="#AFC0D4"/>
<path d="M137.389 112.177C133.882 112.177 130.375 112.177 126.776 112.177C126.729 111.657 126.69 111.232 126.64 110.673C132.39 110.849 138.045 111.179 143.687 110.787C143.687 110.64 143.689 110.493 143.689 110.343C138.037 110.087 132.382 109.831 126.59 109.57C126.507 109.156 126.404 108.636 126.268 107.956C134.613 108.25 142.817 108.539 151.182 108.834C151.326 111.838 151.465 114.784 151.618 117.941C143.581 117.649 135.5 117.21 127.276 116.868C127.168 116.237 127.046 115.662 126.976 115.081C126.912 114.542 126.901 113.994 126.862 113.347C130.417 113.108 133.918 113.08 137.373 112.577C137.378 112.447 137.384 112.313 137.389 112.177Z" fill="#AFC0D4"/>
<path d="M121.388 103.784C121.271 102.409 121.163 101.122 121.032 99.5907C125.465 100.071 129.725 100.533 133.985 100.997C134.01 100.891 134.033 100.786 134.058 100.68C133.769 100.566 133.488 100.391 133.188 100.344C130.548 99.9325 127.902 99.5407 125.259 99.1488C124.061 98.9709 122.861 98.8181 121.669 98.6236C121.143 98.5374 121.149 98.5041 120.966 97.6592C126.507 98.1039 132.018 98.5458 137.529 98.9876C137.545 98.8542 137.562 98.7208 137.579 98.5874C134.891 97.8982 132.115 97.6898 129.369 97.3397C126.615 96.9895 123.856 96.7005 120.996 96.3697C120.957 96.0085 120.916 95.6416 120.871 95.2581C121.088 95.1886 121.232 95.0942 121.363 95.1081C124.57 95.4582 127.774 95.8056 130.979 96.178C136.086 96.7699 141.194 97.3813 146.302 97.9844C146.447 98.0011 146.586 98.0511 146.822 98.1067C146.966 100.705 147.114 103.301 147.269 106.102C138.613 105.327 130.053 104.56 121.388 103.784Z" fill="#AFC0D4"/>
<path d="M164.052 83.5999C163.554 84.0279 163.304 84.2669 163.034 84.4726C158.994 87.5684 154.933 90.6421 150.921 93.7741C150.176 94.3549 149.478 94.5244 148.567 94.4021C143.92 93.788 139.268 93.2155 134.616 92.643C132.879 92.429 131.134 92.2595 129.113 92.0399C129.53 91.6842 129.741 91.4452 130.003 91.2924C134.916 88.4216 139.827 85.5508 144.762 82.7218C145.198 82.4716 145.807 82.391 146.321 82.4244C151.201 82.7273 156.078 83.0719 160.956 83.3998C161.895 83.4638 162.834 83.5221 164.052 83.5999Z" fill="#EDF5FD"/>
<path d="M121.43 93.0181C121.802 92.7819 122.166 92.5318 122.547 92.315C129.647 88.2687 136.762 84.2474 143.843 80.1649C144.874 79.5702 145.88 79.4452 147.008 79.5508C151.23 79.9454 155.448 80.3511 159.675 80.6624C162.179 80.8486 164.697 80.8653 167.373 80.9653C166.512 82.0686 165.583 82.4521 164.311 82.3243C160.945 81.988 157.571 81.7296 154.198 81.4767C151.53 81.2766 148.856 81.1015 146.183 80.9848C145.613 80.9598 144.968 81.1209 144.463 81.3933C139.405 84.1279 134.249 86.6902 129.481 89.9305C128.608 90.5225 127.624 90.9505 126.743 91.5313C126.413 91.7508 126.224 92.1844 125.968 92.5206C126.315 92.7624 126.638 93.1682 127.01 93.221C128.958 93.4933 130.92 93.6684 132.874 93.8879C137.887 94.4549 142.901 95.0273 148.011 95.6082C147.772 96.403 147.358 96.7476 146.513 96.642C140.655 95.9 134.791 95.2052 128.933 94.4521C126.443 94.1325 123.967 93.7156 121.485 93.3405C121.469 93.2349 121.449 93.1265 121.43 93.0181Z" fill="#78A2D3"/>
<path d="M160.764 145.3C160.659 141.652 160.556 138.15 160.453 134.593C163.566 134.593 166.509 134.593 169.521 134.593C169.521 138.139 169.521 141.596 169.521 145.162C168.101 145.448 166.653 145.256 165.219 145.292C163.81 145.328 162.398 145.3 160.764 145.3Z" fill="#AFC0D4"/>
<path d="M152.533 108.87C155.587 108.987 158.53 109.098 161.64 109.214C161.76 112.285 161.879 115.278 162.004 118.427C159.006 118.299 156.165 118.177 153.209 118.049C152.589 115.017 152.683 112.021 152.533 108.87Z" fill="#D52B1E"/>
<path d="M169.528 103.487C169.528 103.859 169.528 104.143 169.528 104.507C168.022 104.401 166.579 104.251 165.134 104.218C163.781 104.187 162.411 103.904 161.046 104.479C163.847 104.829 166.651 105.179 169.519 105.538C169.519 106.321 169.519 107.058 169.519 107.967C166.262 107.986 163.053 107.394 159.645 107.264C159.234 104.437 159.462 101.655 159.393 98.8374C162.864 98.8374 166.16 98.8374 169.525 98.8374C169.525 100.127 169.525 101.311 169.525 102.564C167.53 102.564 165.59 102.564 163.653 102.564C164.495 103.367 165.565 103.025 166.518 103.214C167.499 103.409 168.513 103.403 169.528 103.487Z" fill="#AFC0D4"/>
<path d="M162.098 121.901C164.615 121.901 167.011 121.901 169.498 121.901C169.498 125.247 169.498 128.484 169.498 131.789C167.139 131.697 164.841 131.605 162.42 131.511C162.312 128.298 162.206 125.158 162.098 121.901Z" fill="#AFC0D4"/>
<path d="M169.524 109.517C169.524 112.702 169.524 115.701 169.524 118.797C167.504 118.694 165.555 118.597 163.621 118.497C163.277 117.632 162.879 110.579 163.102 109.24C165.194 109.328 167.292 109.42 169.524 109.517Z" fill="#AFC0D4"/>
<path d="M123.717 119.377C124.495 118.722 125.054 118.249 125.587 117.799C126.093 117.966 126.538 118.221 126.993 118.244C131.582 118.474 136.175 118.669 140.766 118.869C143.44 118.986 146.116 119.088 148.789 119.216C149.165 119.233 149.537 119.347 149.912 119.416C149.921 119.528 149.929 119.639 149.934 119.75C149.504 119.844 149.073 120.019 148.642 120.017C147.128 120.011 145.613 119.939 144.098 119.9C137.584 119.742 131.067 119.586 124.553 119.427C124.373 119.425 124.192 119.408 123.717 119.377Z" fill="#78A2D3"/>
<path d="M146.746 132.458C145.773 133.064 126.298 133.109 121.018 132.681C121.49 132.139 121.896 131.669 122.235 131.277C122.821 131.397 123.296 131.564 123.774 131.58C129.827 131.8 135.877 131.992 141.93 132.206C143.536 132.267 145.14 132.375 146.746 132.458Z" fill="#78A2D3"/>
<path d="M169.538 90.8143C169.538 92.3511 169.538 93.5851 169.538 94.969C167.835 95.2747 166.117 95.1552 164.283 94.8968C165.956 93.5989 167.629 92.2983 169.538 90.8143Z" fill="#EDF5FD"/>
<path d="M128.439 106.694C128.97 105.919 129.49 105.913 130.126 105.974C133.325 106.288 136.529 106.549 139.734 106.825C139.856 106.836 139.984 106.805 140.106 106.847C136.274 107.13 132.458 106.599 128.439 106.694Z" fill="#78A2D3"/>
<path d="M169.523 96.4502C169.712 97.2284 169.354 97.3479 168.809 97.3423C166.841 97.3256 164.874 97.3284 162.906 97.3256C162.462 97.3256 162.02 97.3256 161.467 97.3256C161.736 96.7031 162.1 96.4474 162.662 96.4474C164.921 96.4502 167.181 96.4502 169.523 96.4502Z" fill="#78A2D3"/>
<path d="M169.252 120.361C167.323 120.361 165.397 120.361 163.469 120.361C164.519 119.919 167.551 119.953 169.252 120.361Z" fill="#78A2D3"/>
<path d="M5.80622 176.826C5.74509 176.312 5.69228 175.879 5.62003 175.278C10.9836 176.27 16.1943 177.49 21.5607 177.704C16.3694 175.976 10.9753 175.187 5.51998 174.283C5.45051 173.836 5.38381 173.408 5.29488 172.838C9.94424 173.505 14.3963 174.725 19.0151 174.811C16.8724 173.836 14.5742 173.469 12.2953 173.047C9.97203 172.613 7.63485 172.257 5.15593 171.843C5.09479 171.388 5.02531 170.868 4.93638 170.198C8.04615 170.529 10.9586 171.335 13.9739 171.104C11.0559 169.973 7.93776 169.89 4.81966 169.378C4.71128 168.85 4.60289 168.32 4.44727 167.552C15.7525 169.209 26.9271 170.932 38.1767 172.621C38.2295 173.15 38.2739 173.577 38.324 174.075C36.3342 173.853 34.4472 173.633 32.5602 173.436C30.7455 173.247 28.9308 173.086 27.0938 173.091C30.7622 174.408 34.6417 174.508 38.4546 175.139C38.5157 175.559 38.563 175.895 38.6325 176.384C36.2619 176.145 33.9803 175.912 31.6987 175.681C31.6792 175.798 31.6598 175.915 31.6376 176.031C33.8803 176.773 36.2897 176.762 38.7464 177.36C38.9465 179.149 39.1494 180.967 39.3689 182.957C28.1026 180.903 17.0475 178.883 5.80622 176.826Z" fill="#AFC0D4"/>
<path d="M22.2002 161.491C20.5966 161.202 18.9959 160.88 17.3868 160.635C15.0941 160.288 12.7903 159.996 10.492 159.688C9.92229 159.61 9.33035 159.582 9.56379 158.632C14.3382 159.151 19.0821 160.135 23.9287 160.146C19.1793 158.829 14.2993 158.318 9.34425 157.709C9.28033 157.348 9.21919 156.984 9.11914 156.406C19.8908 158.601 30.6596 159.604 41.4896 160.824C41.4896 161.319 41.4896 161.841 41.4896 162.417C39.5387 162.261 37.6517 162.108 35.7647 161.955C35.7397 162.072 35.7147 162.189 35.6897 162.306C36.2205 162.561 36.8069 162.664 37.3933 162.767C38.088 162.889 38.7828 163.014 39.4776 163.134C40.1195 163.245 40.7615 163.356 41.4868 163.478C41.4868 165.332 41.4868 167.18 41.4868 169.237C31.1043 167.847 20.7773 166.463 10.3364 165.065C10.203 164.168 10.0724 163.289 9.92229 162.278C13.2155 162.586 16.3753 163.381 19.6295 163.275C16.4781 162.297 13.1738 162.156 9.90561 161.489C9.8278 161.161 9.74999 160.827 9.63049 160.324C13.8658 160.835 17.9816 161.594 22.1474 161.839C22.1613 161.728 22.1807 161.611 22.2002 161.491Z" fill="#AFC0D4"/>
<path d="M40.8317 182.69C40.715 181.923 40.6316 181.381 40.5371 180.764C44.853 178.293 49.2995 176.054 53.2513 173.038C53.193 172.922 53.1346 172.802 53.079 172.685C52.437 172.972 51.7673 173.208 51.1587 173.552C48.8743 174.839 46.6094 176.154 44.3417 177.465C43.0855 178.193 41.8349 178.935 40.5816 179.672C40.2092 178.988 40.401 178.619 40.9984 178.274C42.6992 177.287 44.3722 176.256 46.0369 175.214C46.6622 174.822 47.2402 174.356 47.7543 173.786C45.0586 174.631 42.7937 176.29 40.2259 177.752C39.9952 175.867 39.784 174.144 39.5645 172.355C40.5538 171.69 41.2958 170.69 42.6853 170.798C43.0244 170.823 43.3968 170.459 43.7469 170.259C49.3134 167.102 54.8798 163.94 60.4491 160.785C60.8743 160.544 61.3217 160.338 61.9081 160.038C62.2777 162.97 62.6278 165.746 62.9919 168.611C55.6413 173.283 48.3352 177.921 40.8317 182.69Z" fill="#AFC0D4"/>
<path d="M82.3841 134.159C80.9251 134.94 79.4633 135.718 78.0071 136.502C73.9663 138.675 69.9312 140.86 65.8793 143.008C65.468 143.225 64.9205 143.358 64.4647 143.3C58.8594 142.591 53.2568 141.838 47.6542 141.099C46.4537 140.94 45.2503 140.793 44.0526 140.629C43.5718 140.565 43.0966 140.473 42.3379 140.345C42.9271 139.976 43.2522 139.756 43.5912 139.562C47.921 137.08 52.2647 134.618 56.5778 132.106C57.3254 131.669 58.0423 131.552 58.8761 131.63C64.1479 132.136 69.4226 132.614 74.6972 133.103C77.2401 133.339 79.7829 133.584 82.3257 133.826C82.3424 133.937 82.3647 134.048 82.3841 134.159Z" fill="#EDF5FD"/>
<path d="M18.5332 152.668C19.228 152.373 19.681 152.159 20.1506 151.984C25.0362 150.183 29.7078 147.929 34.2154 145.331C34.7323 145.034 35.1825 144.981 35.7745 145.061C42.3219 145.954 48.8777 146.798 55.4307 147.663C55.9727 147.735 56.509 147.835 57.2621 147.957C56.7369 148.296 56.3867 148.555 56.0088 148.766C51.9152 151.059 47.8106 153.329 43.7309 155.641C43.0362 156.036 42.3636 156.205 41.5744 156.108C37.9671 155.666 34.346 155.316 30.7499 154.808C27.0538 154.285 23.3771 153.621 19.6949 153.01C19.3975 152.962 19.1168 152.843 18.5332 152.668Z" fill="#EDF5FD"/>
<path d="M78.5542 144.308C82.7534 142.088 86.9525 139.867 91.2406 137.597C91.2406 138.142 91.2406 138.575 91.2406 139.028C89.059 140.357 86.7024 141.36 84.7126 142.991C86.9803 142.355 88.9562 141.079 91.0905 140.151C91.4074 141.557 91.4157 141.571 90.3847 142.16C84.1207 145.723 77.8539 149.28 71.5871 152.837C71.3342 152.979 71.0619 153.085 70.6339 153.282C70.3477 150.583 70.0753 148.005 69.7891 145.295C76.8618 141.349 83.9178 137.408 91.0266 133.442C91.4824 136.319 91.4657 136.288 89.2063 137.564C85.8298 139.47 82.4782 141.424 79.1211 143.366C78.8349 143.53 78.5792 143.747 78.3097 143.939C78.393 144.061 78.4736 144.183 78.5542 144.308Z" fill="#BBD0E9"/>
<path d="M62.8776 157.79C56.2079 161.572 49.6882 165.265 42.999 169.056C42.999 167.936 42.999 167.055 42.999 166.002C46.0615 164.459 49.238 162.867 52.056 160.669C48.8184 161.627 46.0032 163.467 42.9657 165.107C42.9657 164.454 42.9657 163.965 42.9657 163.389C44.4052 162.661 45.892 161.941 47.351 161.166C48.7322 160.43 50.1996 159.816 51.4029 158.798C51.3445 158.69 51.2862 158.582 51.225 158.473C48.5043 159.816 45.7864 161.161 42.9629 162.556C42.9629 161.747 42.9629 161.105 42.9629 160.274C49.2825 156.745 55.6938 153.168 62.2968 149.477C62.7303 152.345 62.6025 155.049 62.8776 157.79Z" fill="#AFC0D4"/>
<path d="M88.9561 144.617C88.9561 145.592 88.9561 146.323 88.9561 147.176C87.422 148.216 85.8102 149.311 84.1594 150.431C85.0793 150.628 85.0793 150.628 86.5133 149.728C87.2775 149.247 88.039 148.766 88.8366 148.263C89.2923 149.019 88.8727 149.355 88.3252 149.694C85.8824 151.206 83.4507 152.732 81.0163 154.257C80.68 154.469 80.3576 154.697 79.9408 154.977C80.6689 155.419 81.1636 154.972 81.6082 154.722C83.712 153.529 85.7852 152.287 87.8667 151.056C88.2029 150.856 88.5197 150.622 88.9755 150.317C89.0061 150.959 89.0283 151.439 89.0561 152.051C83.1284 155.816 77.1923 159.588 71.1757 163.412C70.6643 160.733 70.1863 158.22 69.6777 155.555C76.039 151.945 82.4142 148.33 88.9561 144.617Z" fill="#BBD0E9"/>
<path d="M69.3301 154.127C67.6015 155.102 66.0286 155.992 64.2333 157.003C64.1138 155.452 64.0138 154.077 63.8971 152.704C63.7887 151.451 63.6803 150.197 63.533 148.947C63.4135 147.941 62.8966 147.31 61.81 147.174C59.659 146.904 57.5163 146.576 55.3681 146.279C51.7192 145.776 48.0731 145.264 44.4214 144.786C41.42 144.392 38.4131 144.044 35.4089 143.664C34.7614 143.58 34.1195 143.447 33.1523 143.28C34.5752 142.516 35.7424 141.857 36.9458 141.271C37.2264 141.135 37.635 141.213 37.974 141.257C42.9263 141.891 47.8786 142.53 52.8281 143.177C57.1273 143.739 61.4265 144.311 65.7257 144.878C65.8757 144.898 66.0314 144.889 66.1787 144.923C67.9489 145.317 68.5548 145.137 68.7187 147.557C68.8632 149.714 69.1133 151.865 69.3301 154.127Z" fill="#D52B1E"/>
<path d="M15.0857 152.985C15.7277 153.282 16.1278 153.552 16.5669 153.657C22.4085 155.066 28.339 155.969 34.2945 156.706C36.8457 157.023 39.408 157.262 41.9592 157.573C42.704 157.665 43.3154 157.484 43.9601 157.12C48.9235 154.321 53.9008 151.556 58.8781 148.783C59.4756 148.449 60.0703 147.949 60.8456 148.666C58.3389 150.067 55.8822 151.434 53.4283 152.804C50.0379 154.697 46.6502 156.589 43.2653 158.49C42.6428 158.84 42.0425 159.062 41.2727 158.999C31.4932 158.187 21.886 156.411 12.39 153.982C11.8564 153.846 11.3312 153.674 10.8087 153.499C10.7392 153.477 10.7059 153.34 10.6309 153.218C17.534 151.198 23.8314 147.799 30.2649 144.711C30.9124 144.4 31.5183 144.044 32.3186 144.661C31.9351 144.923 31.6127 145.206 31.2403 145.381C27.7832 147.021 24.3288 148.669 20.8467 150.256C19.2904 150.964 17.6702 151.531 16.0917 152.195C15.7999 152.315 15.5748 152.593 15.0857 152.985Z" fill="#78A2D3"/>
<path d="M67.8809 143.544C73.3 140.637 78.633 137.783 83.9549 134.907C84.7358 134.484 85.4528 133.951 86.1393 133.506C86.0476 132.689 85.5251 132.722 85.0971 132.678C83.3908 132.497 81.6789 132.333 79.9698 132.175C73.5835 131.589 67.1972 131.008 60.8109 130.427C60.1078 130.363 59.3936 130.366 58.6988 130.246C57.6956 130.074 56.8397 130.316 55.9643 130.824C50.8619 133.784 45.7373 136.708 40.6155 139.634C40.2987 139.815 39.9486 139.931 39.5039 139.854C40.3682 139.348 41.238 138.848 42.0995 138.339C46.66 135.649 51.226 132.967 55.7753 130.257C56.4506 129.854 57.087 129.646 57.904 129.724C63.2787 130.23 68.659 130.685 74.0392 131.147C78.2134 131.505 82.3903 131.842 86.5645 132.194C87.4982 132.272 88.4292 132.383 89.7104 132.514C89.1295 132.856 88.8488 133.031 88.5598 133.192C82.4376 136.61 76.3097 140.017 70.2014 143.458C69.4399 143.891 68.7563 144.061 67.8809 143.544Z" fill="#78A2D3"/>
<path d="M68.516 156.211C68.9467 158.729 69.3052 160.963 69.7193 163.184C69.8583 163.928 69.6971 164.404 69.0218 164.804C67.4794 165.718 65.9759 166.702 64.2863 167.766C63.8777 164.84 63.497 162.128 63.0996 159.29C64.8337 158.306 66.5595 157.325 68.516 156.211Z" fill="#D52B1E"/>
<path d="M8.72707 164.348C9.1745 166.285 9.16894 166.321 10.9059 166.563C15.5941 167.213 20.288 167.833 24.979 168.461C29.7701 169.1 34.564 169.734 39.469 170.384C39.0355 171.143 38.4463 171.257 37.721 171.146C34.2861 170.615 30.8484 170.095 27.4107 169.576C20.9855 168.606 14.5575 167.641 8.13235 166.671C7.48483 166.574 6.84287 166.455 5.92578 166.299C6.93458 165.596 7.76552 165.018 8.72707 164.348Z" fill="#78A2D3"/>
<path d="M11.5801 155.452C12.0525 155.486 12.5972 155.522 13.1391 155.558C13.128 155.63 13.1169 155.703 13.1086 155.775C12.575 155.661 12.0414 155.55 11.5801 155.452Z" fill="#78A2D3"/>
<path d="M83.0725 49.3842C82.3833 49.5009 81.6941 49.6093 81.0077 49.7344C79.0623 50.0845 78.2036 50.9071 77.7979 52.8302C77.6784 53.3972 77.5922 53.9724 77.4005 54.5227C76.3027 50.3986 76.0387 50.1484 71.9785 49.6232C72.3759 49.4342 72.5899 49.2675 72.8206 49.2341C75.9637 48.7978 76.7807 47.978 77.142 44.8516C77.1809 44.5014 77.2115 44.1512 77.3866 43.765C77.5005 44.3152 77.6311 44.8599 77.7256 45.4129C78.1313 47.7862 78.9317 48.6061 81.305 49.0229C81.8886 49.1258 82.4806 49.1813 83.067 49.2591C83.067 49.3036 83.0697 49.3425 83.0725 49.3842Z" fill="#FFCE24"/>
<path d="M84.6734 86.1538C85.2904 87.4127 85.1959 88.944 86.3881 89.6943C87.4414 90.3557 88.742 90.6225 90.0676 91.1144C89.673 91.1728 89.3312 91.2311 88.9865 91.27C86.6132 91.548 85.7267 92.3316 85.2237 94.666C85.0709 95.3775 85.0014 96.1084 84.8569 97.0727C84.6818 96.1723 84.5484 95.4942 84.4178 94.8133C84.0232 92.7152 83.1728 91.8759 81.0746 91.5118C80.4354 91.4007 79.7962 91.3006 78.793 91.1367C79.8573 90.9644 80.5604 90.831 81.2691 90.7365C83.1394 90.4919 84.0732 89.333 84.4039 87.5711C84.49 87.0987 84.5817 86.6262 84.6734 86.1538Z" fill="#FFCE24"/>
<path d="M54.6582 73.5924C55.9477 73.295 57.5206 73.4256 58.296 72.2028C58.9657 71.144 59.2548 69.8462 59.7494 68.5595C59.8856 69.1792 60.019 69.7378 60.1329 70.2964C60.4553 71.9083 61.4085 72.8754 63.0454 73.1394C63.8374 73.2672 64.6295 73.3895 65.6994 73.5563C64.7017 73.7202 63.968 73.8536 63.2344 73.962C61.4752 74.2177 60.4192 75.1987 60.119 76.9606C59.9773 77.7999 59.8495 78.6447 59.6966 79.5896C59.5605 78.9504 59.4159 78.3835 59.3187 77.8082C58.8657 75.1403 58.0209 74.34 55.2696 73.9926C55.0723 73.9676 54.8777 73.9231 54.6832 73.887C54.6721 73.7897 54.6665 73.6924 54.6582 73.5924Z" fill="#FFCE24"/>
<path d="M63.7441 147.541C64.8002 146.687 65.9368 146.237 67.2763 145.729C66.4537 147.143 64.9808 147.88 63.7441 147.541Z" fill="black"/>
<path d="M155.359 85.7621C154.967 85.2563 154.445 84.8534 154.223 84.6421C154.061 83.978 154.036 83.5444 153.831 83.2276C153.767 83.1276 153.128 83.2193 152.925 83.411C152.28 84.0113 151.591 83.9585 150.813 83.8112C149.648 83.5916 148.495 83.6861 147.419 84.2336C145.769 85.0757 145.566 86.1595 146.764 87.5852C146.814 87.6435 146.8 87.7547 146.825 87.902C146.035 88.4772 145.224 89.0664 144.31 89.7361C143.759 89.2971 143.356 88.908 142.89 88.6273C142.589 88.4467 142.067 88.241 141.864 88.3772C141.403 88.6829 141.597 89.1942 141.892 89.5694C142.195 89.9529 142.559 90.2892 142.945 90.6949C142.498 91.0812 142.045 91.398 141.697 91.8038C141.547 91.9788 141.497 92.4291 141.62 92.593C141.75 92.7681 142.134 92.7876 142.412 92.8126C142.537 92.8237 142.709 92.7125 142.801 92.6041C143.896 91.348 145.213 91.4203 146.616 91.9455C146.802 92.015 147.005 92.0539 147.205 92.0845C148.951 92.3373 150.629 92.1345 152.197 91.2841C152.875 90.9172 153.531 90.4893 153.569 89.6166C153.614 88.6523 152.894 88.2049 152.183 87.8103C151.671 87.5268 151.116 87.3212 150.601 87.0877C150.615 86.9738 150.604 86.9071 150.632 86.8876C152.608 85.2841 152.7 84.9284 154.523 86.6097C154.687 86.7598 155.067 86.6736 155.348 86.6959C155.354 86.3763 155.506 85.9511 155.359 85.7621ZM150.118 85.1702C148.853 86.7292 148.531 86.8515 147.347 86.1067C148.128 85.0951 149.081 85.0757 150.118 85.1702ZM152.091 89.5777C150.274 90.8756 148.345 91.1035 146.194 90.3225C148.306 88.0076 149.843 87.788 152.091 89.5777Z" fill="black"/>
<path d="M69.1584 137.992C68.661 137.791 68.0885 137.778 67.5605 137.689C67.5299 135.488 66.7907 134.765 64.648 134.74C63.2835 134.723 62.1135 135.31 60.9408 135.899C59.6179 136.56 57.7059 136.463 56.233 135.613C56.7166 135.454 57.1334 135.271 57.5698 135.185C58.2089 135.054 58.8759 135.035 59.5068 134.879C59.7319 134.823 60.0403 134.498 60.0376 134.298C60.0348 134.095 59.7291 133.809 59.4956 133.72C59.2316 133.623 58.9009 133.692 58.598 133.715C57.114 133.82 55.7439 134.282 54.4767 135.062C54.1876 135.24 53.8681 135.421 53.5429 135.468C52.9398 135.554 52.1089 134.974 51.7782 135.782C51.4169 136.663 52.3535 136.616 52.8481 136.852C52.887 136.872 52.9121 136.922 52.9454 136.958C53.3122 139.587 54.4711 140.318 57.0112 139.442C57.8616 139.15 58.6425 138.667 59.479 138.325C59.8764 138.164 60.3405 138.014 60.7518 138.061C61.9329 138.194 63.1056 138.428 64.5869 138.672C63.3474 139.62 62.3331 140.212 61.0241 140.062C60.5739 140.012 60.1543 140.212 60.2126 140.704C60.2432 140.971 60.5739 141.313 60.8463 141.413C61.2048 141.546 61.6772 141.588 62.0301 141.465C62.9722 141.14 64.02 140.879 64.7675 140.276C65.9959 139.284 67.1992 138.736 68.7443 139.326C68.7888 139.342 68.8555 139.362 68.8916 139.342C69.214 139.167 69.5308 138.986 69.8504 138.806C69.6253 138.525 69.453 138.108 69.1584 137.992ZM54.4739 137.105C55.227 137.2 55.9579 137.277 56.6888 137.386C56.9278 137.422 57.1557 137.53 57.4391 137.619C55.4493 138.759 54.6795 138.636 54.4739 137.105ZM62.3553 136.866C63.7948 136.105 64.9426 135.754 66.1654 136.669C65.6568 137.386 65.6568 137.386 62.3553 136.866Z" fill="black"/>
<path d="M46.8956 151.262C46.7761 151.142 46.5371 151.139 46.3787 151.092C46.1592 149.358 45.6339 148.708 43.9859 148.424C43.2662 148.299 42.4741 148.346 41.7571 148.508C40.879 148.705 40.0536 149.119 39.1948 149.408C38.7724 149.55 38.3139 149.736 37.8942 149.689C36.8021 149.564 35.721 149.322 34.6344 149.127C34.6372 149.044 34.64 148.961 34.6455 148.874C35.2347 148.752 35.8211 148.616 36.413 148.508C36.9216 148.416 37.5246 148.349 37.4218 147.666C37.3273 147.04 36.7548 147.176 36.3157 147.257C35.5237 147.402 34.7178 147.515 33.9591 147.766C32.7919 148.152 31.7414 148.969 30.3797 148.53C30.2102 148.474 29.7766 148.763 29.7155 148.969C29.6571 149.169 29.8544 149.544 30.0517 149.697C30.3074 149.9 30.677 149.961 30.9688 150.072C31.1106 151.773 31.6942 152.468 33.3255 152.404C34.665 152.351 36.01 152.029 37.3134 151.676C38.6974 151.301 41.4737 151.476 42.9632 152.24C42.6603 152.396 42.4102 152.571 42.1323 152.651C41.5042 152.835 40.8484 152.926 40.237 153.143C40.0008 153.226 39.6562 153.607 39.7006 153.749C39.7868 154.03 40.0703 154.327 40.3454 154.446C40.5872 154.549 40.9484 154.474 41.2208 154.377C42.2157 154.024 43.2439 153.721 44.1666 153.226C44.967 152.796 45.6534 152.248 46.6622 152.523C46.8678 152.579 47.1902 152.212 47.457 152.043C47.2736 151.776 47.1207 151.484 46.8956 151.262ZM32.1416 150.636C33.3616 150.033 34.2537 150.667 35.1791 150.773C34.2426 151.028 33.2977 151.289 32.1416 150.636ZM41.1207 150.236C42.5992 149.583 43.7636 149.391 45.0781 150.614C43.658 150.873 42.5547 150.436 41.1207 150.236Z" fill="black"/>
<path d="M189.638 59.6306C197.536 53.1109 205.401 46.5496 213.307 40.0382C214.08 39.4018 215.011 38.8571 215.961 38.5403C217.609 37.9901 219.235 38.4486 220.258 39.6214C219.466 37.8289 217.581 36.9785 215.661 37.6288C214.78 37.9261 213.919 38.4375 213.199 39.035C205.871 45.1461 198.584 51.3045 191.261 57.424C190.399 58.1438 189.733 58.9719 189.266 59.9529C189.388 59.8418 189.51 59.7362 189.638 59.6306Z" fill="white"/>
<path d="M184.526 61.512C183.795 63.7241 183.27 65.9807 183.231 68.3207C183.198 70.4355 183.22 72.5532 183.22 74.6708C183.22 103.128 183.22 131.586 183.223 160.043C183.223 160.899 183.195 161.764 183.29 162.614C183.579 165.24 184.551 167.477 187.039 168.781C187.219 168.714 187.314 168.584 187.319 168.392C186.055 166.063 185.727 163.537 185.727 160.936C185.719 131.216 185.696 101.497 185.727 71.7806C185.73 69.474 185.955 67.1451 186.313 64.8607C186.619 62.9071 187.164 61.109 188.042 59.4749L185.455 59.3221C185.09 60.0141 184.782 60.745 184.526 61.512Z" fill="#B2B2B2"/>
<path d="M191.836 55.0091C198.572 49.7011 205.028 44.0346 211.595 38.5126C212.231 37.9791 212.856 37.4316 213.601 36.7896C211.745 36.7646 210.441 37.5983 209.207 38.5932C202.607 43.9179 196.018 49.2537 189.407 54.5617C187.731 55.9067 186.405 57.488 185.449 59.325L188.037 59.4778C188.929 57.8187 190.16 56.3292 191.836 55.0091Z" fill="white"/>
<path d="M182.07 65.8807C182.948 53.9613 195.434 49.1563 203.002 41.639C201.334 41.4917 200.014 41.8168 198.847 42.7367C190.76 49.1119 182.659 55.4676 174.591 61.8677C172.732 63.2072 171.796 65.0859 171.34 67.1452L182.031 67.726C182.045 67.109 182.056 66.4949 182.07 65.8807Z" fill="#B2B2B2"/>
<path d="M171.339 67.1452C170.953 68.896 170.911 70.7774 170.945 72.5727C170.931 99.6046 170.939 126.634 170.939 153.666C171.095 161.227 174.735 163.731 181.947 163.973C181.727 131.892 181.397 99.788 182.033 67.726L171.339 67.1452Z" fill="#808080"/>
<path d="M149.179 96.8394C148.446 97.398 148.16 98.0899 148.201 98.9125C148.318 101.319 148.499 103.723 148.663 106.227C151.864 106.51 154.943 106.783 158.12 107.066C158.12 106.627 158.12 106.385 158.12 106.141C158.12 103.973 158.128 101.808 158.114 99.6407C158.109 98.9348 158.22 98.3095 158.525 97.7676L149.21 96.8227C149.199 96.8255 149.188 96.8338 149.179 96.8394Z" fill="#D52B1E"/>
<path d="M159.562 96.6949C160.66 95.9862 161.654 95.1219 162.694 94.3215C165 92.5429 167.307 90.7588 169.566 89.0163C169.566 86.4957 169.566 84.0807 169.566 81.3767C169.119 81.6602 168.869 81.7963 168.644 81.9686C162.166 86.9209 155.702 91.8871 149.207 96.8199L158.522 97.7648C158.75 97.3591 159.087 97.0033 159.562 96.6949Z" fill="#9B1D1F"/>
<path d="M160.814 122.79C160.794 122.354 160.783 121.931 160.839 121.526L150.381 121.595C150.331 121.834 150.301 122.09 150.298 122.362C150.262 124.63 150.237 126.895 150.223 129.162C150.22 129.757 150.27 130.352 150.306 131.122C153.888 131.244 157.382 131.366 161 131.491C161 130.974 161.008 130.583 161 130.191C160.944 127.726 160.928 125.255 160.814 122.79Z" fill="#D52B1E"/>
<path d="M161.605 120.006C161.561 119.892 161.517 119.781 161.475 119.667C160.116 119.667 158.754 119.694 157.398 119.658C156.039 119.622 154.68 119.511 153.321 119.461C151.729 119.403 150.673 120.186 150.381 121.595L160.838 121.526C160.913 120.976 161.116 120.461 161.605 120.006Z" fill="#9B1D1F"/>
<path d="M160.091 121.376C158.977 122.276 153.911 122.398 152.029 121.57C153.313 120.823 158.668 120.692 160.091 121.376Z" fill="black"/>
<path d="M157.582 98.1012C155.834 98.707 151.724 98.3902 150.662 97.637C151.877 97.1007 156.265 97.3564 157.582 98.1012Z" fill="black"/>
<path d="M159.001 132.85C155.908 132.736 152.737 132.595 149.566 132.511C148.499 132.484 147.865 133.062 147.782 134.129C147.782 134.143 147.782 134.159 147.779 134.173H159.04C159.026 133.734 159.015 133.295 159.001 132.85Z" fill="#9B1D1F"/>
<path d="M147.78 134.173C147.705 135.154 147.724 136.149 147.777 137.133C147.922 139.792 148.105 142.449 148.283 145.214C152.026 145.214 155.634 145.214 159.355 145.214C159.249 141.504 159.146 137.861 159.041 134.17H147.78V134.173Z" fill="#D52B1E"/>
<path d="M158.374 133.859C155.303 134.198 149.809 134.106 148.75 133.734C149.834 133.15 156.517 133.164 158.374 133.859Z" fill="black"/>
<path d="M248.785 13.8261C248.443 14.243 248.262 14.5459 248.007 14.7571C243.199 18.7673 238.383 22.7691 233.567 26.7682C233.375 26.9266 233.164 27.1156 232.936 27.1656C232.725 27.2101 232.405 27.1545 232.271 27.0128C232.133 26.8683 232.063 26.5264 232.138 26.3375C232.241 26.0762 232.48 25.8483 232.708 25.6594C237.477 21.6798 242.248 17.7085 247.031 13.7455C247.29 13.5316 247.631 13.3092 247.943 13.2953C248.179 13.287 248.434 13.5955 248.785 13.8261Z" fill="white"/>
<path d="M249.339 13.9262C248.998 14.3431 248.817 14.646 248.561 14.8572C243.753 18.8674 238.937 22.8692 234.121 26.8683C233.929 27.0267 233.718 27.2157 233.49 27.2657C233.279 27.3101 232.96 27.2546 232.826 27.1128C232.687 26.9683 232.618 26.6265 232.693 26.4375C232.796 26.1763 233.035 25.9484 233.262 25.7594C238.031 21.7798 242.803 17.8085 247.586 13.8456C247.844 13.6316 248.186 13.4093 248.497 13.3954C248.736 13.3898 248.992 13.6955 249.339 13.9262Z" fill="black"/>
<path d="M75.0757 192.242C85.6477 192.242 94.2179 190.381 94.2179 188.087C94.2179 185.792 85.6477 183.932 75.0757 183.932C64.5038 183.932 55.9336 185.792 55.9336 188.087C55.9336 190.381 64.5038 192.242 75.0757 192.242Z" fill="#CCCCCC"/>
<path d="M118.863 187.064C129.435 187.064 138.005 185.204 138.005 182.91C138.005 180.615 129.435 178.755 118.863 178.755C108.291 178.755 99.7207 180.615 99.7207 182.91C99.7207 185.204 108.291 187.064 118.863 187.064Z" fill="#B2B2B2"/>
<path d="M261.515 178.355C272.087 178.355 280.657 176.494 280.657 174.2C280.657 171.905 272.087 170.045 261.515 170.045C250.943 170.045 242.373 171.905 242.373 174.2C242.373 176.494 250.943 178.355 261.515 178.355Z" fill="#CCCCCC"/>
<path d="M78.3167 177.56C68.0953 177.513 59.7998 179.194 59.7887 181.314L59.7637 186.875C59.7553 188.876 68.0342 190.538 78.2555 190.585C88.4769 190.632 96.7724 189.048 96.7807 187.05L96.8057 181.489C96.8196 179.366 88.5408 177.607 78.3167 177.56Z" fill="#FFCE24"/>
<path d="M78.2805 185.244C68.3426 185.197 60.2417 183.532 59.8109 181.489H59.7887L59.7637 186.875C59.7553 188.876 68.0342 190.538 78.2555 190.585C88.4769 190.632 96.7724 189.048 96.7807 187.05L96.8057 181.664H96.7835C96.3361 183.702 88.2212 185.291 78.2805 185.244Z" fill="#E8A000"/>
<mask id="mask0_2435_64391" style="mask-type:luminance" maskUnits="userSpaceOnUse" x="59" y="181" width="38" height="10">
<path d="M78.2805 185.244C68.3426 185.197 60.2417 183.532 59.8109 181.489H59.7887L59.7637 186.875C59.7553 188.876 68.0342 190.538 78.2555 190.585C88.4769 190.632 96.7724 189.048 96.7807 187.05L96.8057 181.664H96.7835C96.3361 183.702 88.2212 185.291 78.2805 185.244Z" fill="white"/>
</mask>
<g mask="url(#mask0_2435_64391)">
<path d="M96.7141 190.435L96.7502 182.751L70.8633 185.366C79.3061 188.22 95.055 184.888 95.055 184.888L95.3607 190.43L96.7141 190.435Z" fill="#EDB333"/>
</g>
<mask id="mask1_2435_64391" style="mask-type:luminance" maskUnits="userSpaceOnUse" x="59" y="181" width="38" height="10">
<path d="M78.2805 185.244C68.3426 185.197 60.2417 183.532 59.8109 181.489H59.7887L59.7637 186.875C59.7553 188.876 68.0342 190.538 78.2555 190.585C88.4769 190.632 96.7724 189.048 96.7807 187.05L96.8057 181.664H96.7835C96.3361 183.702 88.2212 185.291 78.2805 185.244Z" fill="white"/>
</mask>
<g mask="url(#mask1_2435_64391)">
<path d="M59.7879 181.489L59.7656 186.303L75.6535 178.747L59.7879 181.489Z" fill="black"/>
</g>
<path d="M92.6506 181.287C92.6555 180.25 86.2355 179.379 78.3112 179.342C70.3868 179.304 63.9589 180.116 63.9541 181.153C63.9492 182.191 70.3693 183.062 78.2936 183.099C86.2179 183.136 92.6458 182.325 92.6506 181.287Z" stroke="black" stroke-miterlimit="10"/>
<path d="M59.7906 181.314L59.7656 186.875C59.7573 188.876 68.0361 190.538 78.2575 190.585C88.4788 190.632 96.7743 189.048 96.7827 187.05L96.8077 181.489" stroke="black" stroke-miterlimit="10"/>
<path d="M96.8124 181.487C96.8223 179.364 88.5438 177.605 78.3218 177.557C68.0998 177.509 59.8052 179.191 59.7953 181.314C59.7854 183.436 68.0639 185.196 78.2859 185.244C88.5079 185.291 96.8024 183.609 96.8124 181.487Z" stroke="black" stroke-miterlimit="10"/>
<path d="M75.8034 170.965C65.5821 170.965 57.2949 172.685 57.2949 174.809V180.369C57.2949 182.37 65.5821 183.993 75.8034 183.993C86.0248 183.993 94.312 182.37 94.312 180.369V174.809C94.3147 172.685 86.0276 170.965 75.8034 170.965Z" fill="#FFCE24"/>
<path d="M75.8043 178.649C65.8664 178.649 57.7571 177.023 57.3152 174.984H57.293V180.369C57.293 182.37 65.5801 183.993 75.8015 183.993C86.0229 183.993 94.31 182.37 94.31 180.369V174.984H94.2878C93.8515 177.023 85.745 178.649 75.8043 178.649Z" fill="#E8A000"/>
<mask id="mask2_2435_64391" style="mask-type:luminance" maskUnits="userSpaceOnUse" x="57" y="174" width="38" height="10">
<path d="M75.8043 178.649C65.8664 178.649 57.7571 177.023 57.3152 174.984H57.293V180.369C57.293 182.37 65.5801 183.993 75.8015 183.993C86.0229 183.993 94.31 182.37 94.31 180.369V174.984H94.2878C93.8515 177.023 85.745 178.649 75.8043 178.649Z" fill="white"/>
</mask>
<g mask="url(#mask2_2435_64391)">
<path d="M94.2617 183.752V176.067L68.3887 178.802C76.8453 181.617 92.5804 178.213 92.5804 178.213L92.9111 183.754L94.2617 183.752Z" fill="#EDB333"/>
</g>
<path d="M75.8034 176.504C83.7277 176.504 90.1516 175.663 90.1516 174.625C90.1516 173.587 83.7277 172.746 75.8034 172.746C67.879 172.746 61.4551 173.587 61.4551 174.625C61.4551 175.663 67.879 176.504 75.8034 176.504Z" stroke="black" stroke-miterlimit="10"/>
<path d="M57.2949 174.806V180.367C57.2949 182.368 65.5821 183.991 75.8034 183.991C86.0248 183.991 94.312 182.368 94.312 180.367V174.806" stroke="black" stroke-miterlimit="10"/>
<path d="M75.8034 178.649C86.0254 178.649 94.312 176.929 94.312 174.806C94.312 172.683 86.0254 170.962 75.8034 170.962C65.5815 170.962 57.2949 172.683 57.2949 174.806C57.2949 176.929 65.5815 178.649 75.8034 178.649Z" stroke="black" stroke-miterlimit="10"/>
<path d="M77.614 164.37C67.3926 164.37 59.1055 166.09 59.1055 168.214V173.775C59.1055 175.775 67.3926 177.398 77.614 177.398C87.8354 177.398 96.1225 175.775 96.1225 173.775V168.211C96.1225 166.09 87.8381 164.37 77.614 164.37Z" fill="#FFCE24"/>
<path d="M77.614 172.054C67.6761 172.054 59.5668 170.429 59.1277 168.389H59.1055V173.775C59.1055 175.776 67.3926 177.399 77.614 177.399C87.8354 177.399 96.1225 175.776 96.1225 173.775V168.389H96.1003C95.6612 170.429 87.5547 172.054 77.614 172.054Z" fill="#E8A000"/>
<mask id="mask3_2435_64391" style="mask-type:luminance" maskUnits="userSpaceOnUse" x="59" y="168" width="38" height="10">
<path d="M77.614 172.054C67.6761 172.054 59.5668 170.429 59.1277 168.389H59.1055V173.775C59.1055 175.776 67.3926 177.399 77.614 177.399C87.8354 177.399 96.1225 175.776 96.1225 173.775V168.389H96.1003C95.6612 170.429 87.5547 172.054 77.614 172.054Z" fill="white"/>
</mask>
<g mask="url(#mask3_2435_64391)">
<path d="M96.0703 177.157V169.473L70.1973 172.207C78.6539 175.022 94.389 171.618 94.389 171.618L94.7197 177.16L96.0703 177.157Z" fill="#EDB333"/>
</g>
<mask id="mask4_2435_64391" style="mask-type:luminance" maskUnits="userSpaceOnUse" x="59" y="168" width="38" height="10">
<path d="M77.614 172.054C67.6761 172.054 59.5668 170.429 59.1277 168.389H59.1055V173.775C59.1055 175.776 67.3926 177.399 77.614 177.399C87.8354 177.399 96.1225 175.776 96.1225 173.775V168.389H96.1003C95.6612 170.429 87.5547 172.054 77.614 172.054Z" fill="white"/>
</mask>
<g mask="url(#mask4_2435_64391)">
<path d="M77.4004 167.01L97.6236 172.405L97.5374 165.835L77.4004 167.01Z" fill="black"/>
</g>
<path d="M77.6139 169.909C85.5382 169.909 91.9622 169.068 91.9622 168.03C91.9622 166.993 85.5382 166.152 77.6139 166.152C69.6896 166.152 63.2656 166.993 63.2656 168.03C63.2656 169.068 69.6896 169.909 77.6139 169.909Z" stroke="black" stroke-miterlimit="10"/>
<path d="M59.1055 168.211V173.772C59.1055 175.773 67.3926 177.396 77.614 177.396C87.8354 177.396 96.1225 175.773 96.1225 173.772V168.211" stroke="black" stroke-miterlimit="10"/>
<path d="M77.614 172.054C87.836 172.054 96.1225 170.334 96.1225 168.211C96.1225 166.088 87.836 164.368 77.614 164.368C67.392 164.368 59.1055 166.088 59.1055 168.211C59.1055 170.334 67.392 172.054 77.614 172.054Z" stroke="black" stroke-miterlimit="10"/>
<path d="M79.7937 157.776C69.5723 157.776 61.2852 159.496 61.2852 161.619V167.18C61.2852 169.181 69.5723 170.804 79.7937 170.804C90.015 170.804 98.3022 169.181 98.3022 167.18V161.619C98.305 159.496 90.0178 157.776 79.7937 157.776Z" fill="#FFCE24"/>
<path d="M79.7945 165.46C69.8566 165.46 61.7473 163.834 61.3054 161.794H61.2832V167.18C61.2832 169.181 69.5704 170.804 79.7917 170.804C90.0131 170.804 98.3003 169.181 98.3003 167.18V161.794H98.278C97.8417 163.834 89.7352 165.46 79.7945 165.46Z" fill="#E8A000"/>
<mask id="mask5_2435_64391" style="mask-type:luminance" maskUnits="userSpaceOnUse" x="61" y="161" width="38" height="10">
<path d="M79.7945 165.46C69.8566 165.46 61.7473 163.834 61.3054 161.794H61.2832V167.18C61.2832 169.181 69.5704 170.804 79.7917 170.804C90.0131 170.804 98.3003 169.181 98.3003 167.18V161.794H98.278C97.8417 163.834 89.7352 165.46 79.7945 165.46Z" fill="white"/>
</mask>
<g mask="url(#mask5_2435_64391)">
<path d="M98.2539 170.565V162.881L72.3809 165.615C80.8375 168.431 96.5725 165.026 96.5725 165.026L96.9033 170.568L98.2539 170.565Z" fill="#EDB333"/>
</g>
<mask id="mask6_2435_64391" style="mask-type:luminance" maskUnits="userSpaceOnUse" x="61" y="161" width="38" height="10">
<path d="M79.7945 165.46C69.8566 165.46 61.7473 163.834 61.3054 161.794H61.2832V167.18C61.2832 169.181 69.5704 170.804 79.7917 170.804C90.0131 170.804 98.3003 169.181 98.3003 167.18V161.794H98.278C97.8417 163.834 89.7352 165.46 79.7945 165.46Z" fill="white"/>
</mask>
<g mask="url(#mask6_2435_64391)">
<path d="M61.2852 161.794V166.607L77.1397 158.976L61.2852 161.794Z" fill="black"/>
</g>
<path d="M79.7936 163.314C87.7179 163.314 94.1419 162.473 94.1419 161.436C94.1419 160.398 87.7179 159.557 79.7936 159.557C71.8693 159.557 65.4453 160.398 65.4453 161.436C65.4453 162.473 71.8693 163.314 79.7936 163.314Z" stroke="black" stroke-miterlimit="10"/>
<path d="M61.2852 161.619V167.18C61.2852 169.181 69.5723 170.804 79.7937 170.804C90.015 170.804 98.3022 169.181 98.3022 167.18V161.619" stroke="black" stroke-miterlimit="10"/>
<path d="M79.7937 165.463C90.0156 165.463 98.3022 163.742 98.3022 161.619C98.3022 159.497 90.0156 157.776 79.7937 157.776C69.5717 157.776 61.2852 159.497 61.2852 161.619C61.2852 163.742 69.5717 165.463 79.7937 165.463Z" stroke="black" stroke-miterlimit="10"/>
<path d="M75.9148 151.181C65.6934 151.181 57.4062 152.901 57.4062 155.024V160.585C57.4062 162.586 65.6934 164.209 75.9148 164.209C86.1361 164.209 94.4233 162.586 94.4233 160.585V155.024C94.4233 152.901 86.1361 151.181 75.9148 151.181Z" fill="#FFCE24"/>
<path d="M75.9148 158.865C65.9769 158.865 57.8676 157.239 57.4285 155.2H57.4062V160.585C57.4062 162.586 65.6934 164.209 75.9148 164.209C86.1361 164.209 94.4233 162.586 94.4233 160.585V155.2H94.4011C93.9592 157.239 85.8527 158.865 75.9148 158.865Z" fill="#E8A000"/>
<mask id="mask7_2435_64391" style="mask-type:luminance" maskUnits="userSpaceOnUse" x="57" y="155" width="38" height="10">
<path d="M75.9148 158.865C65.9769 158.865 57.8676 157.239 57.4285 155.2H57.4062V160.585C57.4062 162.586 65.6934 164.209 75.9148 164.209C86.1361 164.209 94.4233 162.586 94.4233 160.585V155.2H94.4011C93.9592 157.239 85.8527 158.865 75.9148 158.865Z" fill="white"/>
</mask>
<g mask="url(#mask7_2435_64391)">
<path d="M94.3711 163.97V156.286L68.498 159.021C76.9547 161.836 92.6897 158.432 92.6897 158.432L93.0205 163.973L94.3711 163.97Z" fill="#EDB333"/>
</g>
<mask id="mask8_2435_64391" style="mask-type:luminance" maskUnits="userSpaceOnUse" x="57" y="155" width="38" height="10">
<path d="M75.9148 158.865C65.9769 158.865 57.8676 157.239 57.4285 155.2H57.4062V160.585C57.4062 162.586 65.6934 164.209 75.9148 164.209C86.1361 164.209 94.4233 162.586 94.4233 160.585V155.2H94.4011C93.9592 157.239 85.8527 158.865 75.9148 158.865Z" fill="white"/>
</mask>
<g mask="url(#mask8_2435_64391)">
<path d="M75.7012 153.821L95.9216 159.215L95.8354 152.646L75.7012 153.821Z" fill="black"/>
</g>
<path d="M75.9166 156.723C83.841 156.723 90.2649 155.881 90.2649 154.844C90.2649 153.806 83.841 152.965 75.9166 152.965C67.9923 152.965 61.5684 153.806 61.5684 154.844C61.5684 155.881 67.9923 156.723 75.9166 156.723Z" stroke="black" stroke-miterlimit="10"/>
<path d="M57.4043 155.024V160.585C57.4043 162.586 65.6914 164.209 75.9128 164.209C86.1342 164.209 94.4213 162.586 94.4213 160.585V155.024" stroke="black" stroke-miterlimit="10"/>
<path d="M75.9148 158.868C86.1367 158.868 94.4233 157.147 94.4233 155.024C94.4233 152.902 86.1367 151.181 75.9148 151.181C65.6928 151.181 57.4062 152.902 57.4062 155.024C57.4062 157.147 65.6928 158.868 75.9148 158.868Z" stroke="black" stroke-miterlimit="10"/>
<path d="M78.7585 144.586C68.5372 144.586 60.25 146.307 60.25 148.43V153.991C60.25 155.992 68.5372 157.615 78.7585 157.615C88.9799 157.615 97.267 155.992 97.267 153.991V148.43C97.267 146.307 88.9799 144.586 78.7585 144.586Z" fill="#FFCE24"/>
<path d="M78.7594 152.27C68.8214 152.27 60.7122 150.645 60.2703 148.605H60.248V153.991C60.248 155.992 68.5352 157.615 78.7566 157.615C88.9779 157.615 97.2651 155.992 97.2651 153.991V148.605H97.2429C96.8038 150.645 88.6973 152.27 78.7594 152.27Z" fill="#E8A000"/>
<mask id="mask9_2435_64391" style="mask-type:luminance" maskUnits="userSpaceOnUse" x="60" y="148" width="38" height="10">
<path d="M78.7594 152.27C68.8214 152.27 60.7122 150.645 60.2703 148.605H60.248V153.991C60.248 155.992 68.5352 157.615 78.7566 157.615C88.9779 157.615 97.2651 155.992 97.2651 153.991V148.605H97.2429C96.8038 150.645 88.6973 152.27 78.7594 152.27Z" fill="white"/>
</mask>
<g mask="url(#mask9_2435_64391)">
<path d="M97.2148 157.376V149.691L71.3418 152.426C79.7985 155.241 95.5335 151.837 95.5335 151.837L95.8642 157.378L97.2148 157.376Z" fill="#EDB333"/>
</g>
<path d="M78.7604 150.128C86.6847 150.128 93.1087 149.287 93.1087 148.249C93.1087 147.212 86.6847 146.37 78.7604 146.37C70.8361 146.37 64.4121 147.212 64.4121 148.249C64.4121 149.287 70.8361 150.128 78.7604 150.128Z" stroke="black" stroke-miterlimit="10"/>
<path d="M60.248 148.43V153.991C60.248 155.992 68.5352 157.614 78.7566 157.614C88.9779 157.614 97.2651 155.992 97.2651 153.991V148.43" stroke="black" stroke-miterlimit="10"/>
<path d="M78.7585 152.273C88.9805 152.273 97.267 150.552 97.267 148.43C97.267 146.307 88.9805 144.586 78.7585 144.586C68.5365 144.586 60.25 146.307 60.25 148.43C60.25 150.552 68.5365 152.273 78.7585 152.273Z" stroke="black" stroke-miterlimit="10"/>
<path d="M75.9226 137.992C65.7012 137.992 57.4141 139.712 57.4141 141.835V147.396C57.4141 149.397 65.7012 151.02 75.9226 151.02C86.1439 151.02 94.4311 149.397 94.4311 147.396V141.835C94.4311 139.712 86.1467 137.992 75.9226 137.992Z" fill="#FFCE24"/>
<path d="M75.9215 145.676C65.9835 145.676 57.8743 144.05 57.4324 142.01H57.4102V147.396C57.4102 149.397 65.6973 151.02 75.9187 151.02C86.1401 151.02 94.4272 149.397 94.4272 147.396V142.01H94.405C93.9687 144.05 85.8621 145.676 75.9215 145.676Z" fill="#E8A000"/>
<mask id="mask10_2435_64391" style="mask-type:luminance" maskUnits="userSpaceOnUse" x="57" y="142" width="38" height="10">
<path d="M75.9215 145.676C65.9835 145.676 57.8743 144.05 57.4324 142.01H57.4102V147.396C57.4102 149.397 65.6973 151.02 75.9187 151.02C86.1401 151.02 94.4272 149.397 94.4272 147.396V142.01H94.405C93.9687 144.05 85.8621 145.676 75.9215 145.676Z" fill="white"/>
</mask>
<g mask="url(#mask10_2435_64391)">
<path d="M94.3769 150.781V143.097L68.5039 145.831C76.9606 148.646 92.6956 145.242 92.6956 145.242L93.0263 150.784L94.3769 150.781Z" fill="#EDB333"/>
</g>
<mask id="mask11_2435_64391" style="mask-type:luminance" maskUnits="userSpaceOnUse" x="57" y="142" width="38" height="10">
<path d="M75.9215 145.676C65.9835 145.676 57.8743 144.05 57.4324 142.01H57.4102V147.396C57.4102 149.397 65.6973 151.02 75.9187 151.02C86.1401 151.02 94.4272 149.397 94.4272 147.396V142.01H94.405C93.9687 144.05 85.8621 145.676 75.9215 145.676Z" fill="white"/>
</mask>
<g mask="url(#mask11_2435_64391)">
<path d="M57.4141 142.01V146.823L73.2658 139.192L57.4141 142.01Z" fill="black"/>
</g>
<path d="M75.9225 143.533C83.8468 143.533 90.2708 142.692 90.2708 141.654C90.2708 140.617 83.8468 139.776 75.9225 139.776C67.9982 139.776 61.5742 140.617 61.5742 141.654C61.5742 142.692 67.9982 143.533 75.9225 143.533Z" stroke="black" stroke-miterlimit="10"/>
<path d="M57.4141 141.835V147.396C57.4141 149.397 65.7012 151.02 75.9226 151.02C86.1439 151.02 94.4311 149.397 94.4311 147.396V141.835" stroke="black" stroke-miterlimit="10"/>
<path d="M75.9226 145.678C86.1446 145.678 94.4311 143.958 94.4311 141.835C94.4311 139.712 86.1446 137.992 75.9226 137.992C65.7006 137.992 57.4141 139.712 57.4141 141.835C57.4141 143.958 65.7006 145.678 75.9226 145.678Z" stroke="black" stroke-miterlimit="10"/>
<path d="M73.5886 131.4C63.3672 131.4 55.0801 133.12 55.0801 135.243V140.804C55.0801 142.805 63.3672 144.428 73.5886 144.428C83.81 144.428 92.0971 142.805 92.0971 140.804V135.243C92.0971 133.117 83.81 131.4 73.5886 131.4Z" fill="#FFCE24"/>
<path d="M73.5894 139.084C63.6515 139.084 55.5422 137.458 55.1004 135.418H55.0781V140.804C55.0781 142.805 63.3653 144.428 73.5866 144.428C83.808 144.428 92.0952 142.805 92.0952 140.804V135.418H92.0729C91.6366 137.455 83.5301 139.084 73.5894 139.084Z" fill="#E8A000"/>
<mask id="mask12_2435_64391" style="mask-type:luminance" maskUnits="userSpaceOnUse" x="55" y="135" width="38" height="10">
<path d="M73.5894 139.084C63.6515 139.084 55.5422 137.458 55.1004 135.418H55.0781V140.804C55.0781 142.805 63.3653 144.428 73.5866 144.428C83.808 144.428 92.0952 142.805 92.0952 140.804V135.418H92.0729C91.6366 137.455 83.5301 139.084 73.5894 139.084Z" fill="white"/>
</mask>
<g mask="url(#mask12_2435_64391)">
<path d="M92.0449 144.186V136.502L66.1719 139.236C74.6285 142.052 90.3636 138.647 90.3636 138.647L90.6943 144.189L92.0449 144.186Z" fill="#EDB333"/>
</g>
<path d="M73.5885 136.938C81.5128 136.938 87.9368 136.097 87.9368 135.06C87.9368 134.022 81.5128 133.181 73.5885 133.181C65.6642 133.181 59.2402 134.022 59.2402 135.06C59.2402 136.097 65.6642 136.938 73.5885 136.938Z" stroke="black" stroke-miterlimit="10"/>
<path d="M55.0801 135.24V140.801C55.0801 142.802 63.3672 144.425 73.5886 144.425C83.81 144.425 92.0971 142.802 92.0971 140.801V135.24" stroke="black" stroke-miterlimit="10"/>
<path d="M73.5886 139.084C83.8106 139.084 92.0971 137.363 92.0971 135.24C92.0971 133.118 83.8106 131.397 73.5886 131.397C63.3666 131.397 55.0801 133.118 55.0801 135.24C55.0801 137.363 63.3666 139.084 73.5886 139.084Z" stroke="black" stroke-miterlimit="10"/>
<path d="M75.1199 124.805C64.8985 124.805 56.6113 126.525 56.6113 128.649V134.209C56.6113 136.21 64.8985 137.833 75.1199 137.833C85.3412 137.833 93.6284 136.21 93.6284 134.209V128.649C93.6284 126.525 85.3412 124.805 75.1199 124.805Z" fill="#FFCE24"/>
<path d="M75.1199 132.489C65.1819 132.489 57.0726 130.863 56.6336 128.824H56.6113V134.209C56.6113 136.21 64.8985 137.833 75.1199 137.833C85.3412 137.833 93.6284 136.21 93.6284 134.209V128.824H93.6061C93.167 130.861 85.0605 132.489 75.1199 132.489Z" fill="#E8A000"/>
<mask id="mask13_2435_64391" style="mask-type:luminance" maskUnits="userSpaceOnUse" x="56" y="128" width="38" height="10">
<path d="M75.1199 132.489C65.1819 132.489 57.0726 130.863 56.6336 128.824H56.6113V134.209C56.6113 136.21 64.8985 137.833 75.1199 137.833C85.3412 137.833 93.6284 136.21 93.6284 134.209V128.824H93.6061C93.167 130.861 85.0605 132.489 75.1199 132.489Z" fill="white"/>
</mask>
<g mask="url(#mask13_2435_64391)">
<path d="M93.5761 137.591V129.907L67.7031 132.642C76.1598 135.457 91.8948 132.053 91.8948 132.053L92.2255 137.594L93.5761 137.591Z" fill="#EDB333"/>
</g>
<mask id="mask14_2435_64391" style="mask-type:luminance" maskUnits="userSpaceOnUse" x="56" y="128" width="38" height="10">
<path d="M75.1199 132.489C65.1819 132.489 57.0726 130.863 56.6336 128.824H56.6113V134.209C56.6113 136.21 64.8985 137.833 75.1199 137.833C85.3412 137.833 93.6284 136.21 93.6284 134.209V128.824H93.6061C93.167 130.861 85.0605 132.489 75.1199 132.489Z" fill="white"/>
</mask>
<g mask="url(#mask14_2435_64391)">
<path d="M74.9062 127.442L95.1294 132.837L95.0433 126.27L74.9062 127.442Z" fill="black"/>
</g>
<path d="M75.1198 130.344C83.0441 130.344 89.468 129.503 89.468 128.465C89.468 127.428 83.0441 126.586 75.1198 126.586C67.1954 126.586 60.7715 127.428 60.7715 128.465C60.7715 129.503 67.1954 130.344 75.1198 130.344Z" stroke="black" stroke-miterlimit="10"/>
<path d="M56.6113 128.646V134.207C56.6113 136.207 64.8985 137.83 75.1199 137.83C85.3412 137.83 93.6284 136.207 93.6284 134.207V128.646" stroke="black" stroke-miterlimit="10"/>
<path d="M75.1199 132.489C85.3418 132.489 93.6284 130.768 93.6284 128.646C93.6284 126.523 85.3418 124.802 75.1199 124.802C64.8979 124.802 56.6113 126.523 56.6113 128.646C56.6113 130.768 64.8979 132.489 75.1199 132.489Z" stroke="black" stroke-miterlimit="10"/>
<path d="M77.5788 118.21C67.3575 118.21 59.0703 119.93 59.0703 122.054V127.615C59.0703 129.615 67.3575 131.238 77.5788 131.238C87.8002 131.238 96.0874 129.615 96.0874 127.615V122.051C96.0874 119.93 87.803 118.21 77.5788 118.21Z" fill="#FFCE24"/>
<path d="M77.5797 125.894C67.6417 125.894 59.5325 124.269 59.0906 122.229H59.0684V127.614C59.0684 129.615 67.3555 131.238 77.5769 131.238C87.7983 131.238 96.0854 129.615 96.0854 127.614V122.229H96.0632C95.6269 124.269 87.5203 125.894 77.5797 125.894Z" fill="#E8A000"/>
<mask id="mask15_2435_64391" style="mask-type:luminance" maskUnits="userSpaceOnUse" x="59" y="122" width="38" height="10">
<path d="M77.5797 125.894C67.6417 125.894 59.5325 124.269 59.0906 122.229H59.0684V127.614C59.0684 129.615 67.3555 131.238 77.5769 131.238C87.7983 131.238 96.0854 129.615 96.0854 127.614V122.229H96.0632C95.6269 124.269 87.5203 125.894 77.5797 125.894Z" fill="white"/>
</mask>
<g mask="url(#mask15_2435_64391)">
<path d="M96.0351 130.996V123.312L70.1621 126.047C78.6188 128.862 94.3538 125.458 94.3538 125.458L94.6845 130.999L96.0351 130.996Z" fill="#EDB333"/>
</g>
<mask id="mask16_2435_64391" style="mask-type:luminance" maskUnits="userSpaceOnUse" x="59" y="122" width="38" height="10">
<path d="M77.5797 125.894C67.6417 125.894 59.5325 124.269 59.0906 122.229H59.0684V127.614C59.0684 129.615 67.3555 131.238 77.5769 131.238C87.7983 131.238 96.0854 129.615 96.0854 127.614V122.229H96.0632C95.6269 124.269 87.5203 125.894 77.5797 125.894Z" fill="white"/>
</mask>
<g mask="url(#mask16_2435_64391)">
<path d="M59.0703 122.226V127.039L74.922 119.408L59.0703 122.226Z" fill="black"/>
</g>
<path d="M77.5787 123.749C85.5031 123.749 91.927 122.908 91.927 121.87C91.927 120.833 85.5031 119.992 77.5787 119.992C69.6544 119.992 63.2305 120.833 63.2305 121.87C63.2305 122.908 69.6544 123.749 77.5787 123.749Z" stroke="black" stroke-miterlimit="10"/>
<path d="M59.0703 122.051V127.612C59.0703 129.613 67.3575 131.236 77.5788 131.236C87.8002 131.236 96.0874 129.613 96.0874 127.612V122.051" stroke="black" stroke-miterlimit="10"/>
<path d="M77.5788 125.894C87.8008 125.894 96.0874 124.174 96.0874 122.051C96.0874 119.928 87.8008 118.207 77.5788 118.207C67.3569 118.207 59.0703 119.928 59.0703 122.051C59.0703 124.174 67.3569 125.894 77.5788 125.894Z" stroke="black" stroke-miterlimit="10"/>
<path d="M73.698 111.616C63.4766 111.616 55.1895 113.336 55.1895 115.459V121.02C55.1895 123.021 63.4766 124.644 73.698 124.644C83.9193 124.644 92.2065 123.021 92.2065 121.02V115.459C92.2093 113.336 83.9221 111.616 73.698 111.616Z" fill="#FFCE24"/>
<path d="M73.698 119.3C63.7601 119.3 55.6508 117.674 55.2117 115.634H55.1895V121.02C55.1895 123.021 63.4766 124.644 73.698 124.644C83.9193 124.644 92.2065 123.021 92.2065 121.02V115.631H92.1843C91.7452 117.674 83.6387 119.3 73.698 119.3Z" fill="#E8A000"/>
<mask id="mask17_2435_64391" style="mask-type:luminance" maskUnits="userSpaceOnUse" x="55" y="115" width="38" height="10">
<path d="M73.698 119.3C63.7601 119.3 55.6508 117.674 55.2117 115.634H55.1895V121.02C55.1895 123.021 63.4766 124.644 73.698 124.644C83.9193 124.644 92.2065 123.021 92.2065 121.02V115.631H92.1843C91.7452 117.674 83.6387 119.3 73.698 119.3Z" fill="white"/>
</mask>
<g mask="url(#mask17_2435_64391)">
<path d="M92.1562 124.402V116.718L66.2832 119.453C74.7399 122.268 90.4749 118.863 90.4749 118.863L90.8056 124.405L92.1562 124.402Z" fill="#EDB333"/>
</g>
<mask id="mask18_2435_64391" style="mask-type:luminance" maskUnits="userSpaceOnUse" x="55" y="115" width="38" height="10">
<path d="M73.698 119.3C63.7601 119.3 55.6508 117.674 55.2117 115.634H55.1895V121.02C55.1895 123.021 63.4766 124.644 73.698 124.644C83.9193 124.644 92.2065 123.021 92.2065 121.02V115.631H92.1843C91.7452 117.674 83.6387 119.3 73.698 119.3Z" fill="white"/>
</mask>
<g mask="url(#mask18_2435_64391)">
<path d="M73.4844 114.253L93.7076 119.65L93.6214 113.08L73.4844 114.253Z" fill="black"/>
</g>
<path d="M73.6979 117.154C81.6222 117.154 88.0462 116.313 88.0462 115.276C88.0462 114.238 81.6222 113.397 73.6979 113.397C65.7735 113.397 59.3496 114.238 59.3496 115.276C59.3496 116.313 65.7735 117.154 73.6979 117.154Z" stroke="black" stroke-miterlimit="10"/>
<path d="M55.1895 115.456V121.017C55.1895 123.018 63.4766 124.641 73.698 124.641C83.9193 124.641 92.2065 123.018 92.2065 121.017V115.456" stroke="black" stroke-miterlimit="10"/>
<path d="M73.698 119.3C83.9199 119.3 92.2065 117.579 92.2065 115.456C92.2065 113.333 83.9199 111.613 73.698 111.613C63.476 111.613 55.1895 113.333 55.1895 115.456C55.1895 117.579 63.476 119.3 73.698 119.3Z" stroke="black" stroke-miterlimit="10"/>
<path d="M76.2624 105.021C66.0411 105.021 57.7539 106.741 57.7539 108.864V114.425C57.7539 116.426 66.0411 118.049 76.2624 118.049C86.4838 118.049 94.771 116.426 94.771 114.425V108.864C94.7737 106.741 86.4866 105.021 76.2624 105.021Z" fill="#FFCE24"/>
<path d="M76.2632 112.705C66.3253 112.705 58.2161 111.079 57.7742 109.039H57.752V114.425C57.752 116.426 66.0391 118.049 76.2605 118.049C86.4818 118.049 94.769 116.426 94.769 114.425V109.039H94.7468C94.3104 111.079 86.2039 112.705 76.2632 112.705Z" fill="#E8A000"/>
<mask id="mask19_2435_64391" style="mask-type:luminance" maskUnits="userSpaceOnUse" x="57" y="109" width="38" height="10">
<path d="M76.2632 112.705C66.3253 112.705 58.2161 111.079 57.7742 109.039H57.752V114.425C57.752 116.426 66.0391 118.049 76.2605 118.049C86.4818 118.049 94.769 116.426 94.769 114.425V109.039H94.7468C94.3104 111.079 86.2039 112.705 76.2632 112.705Z" fill="white"/>
</mask>
<g mask="url(#mask19_2435_64391)">
<path d="M94.7207 117.807V110.123L68.8477 112.858C77.3043 115.673 93.0394 112.269 93.0394 112.269L93.3701 117.81L94.7207 117.807Z" fill="#EDB333"/>
</g>
<g opacity="0.6">
<path d="M69.0939 112.405L77.6089 108.103C77.0781 108.092 76.539 108.086 75.9943 108.086C73.6793 108.086 71.4867 108.181 69.508 108.35L63.0605 111.555C64.7669 111.916 66.8123 112.208 69.0939 112.405Z" fill="white"/>
<path d="M74.1467 112.68L82.4311 108.347C81.6363 108.281 80.8109 108.225 79.9521 108.183L71.4121 112.572C72.3014 112.622 73.2129 112.658 74.1467 112.68Z" fill="white"/>
<path d="M84.6921 107.164L87.3294 105.782C86.6458 105.677 85.926 105.579 85.1757 105.496L82.291 106.98C83.1414 107.03 83.9446 107.091 84.6921 107.164Z" fill="white"/>
<path d="M76.2631 106.805C77.572 106.805 78.8393 106.827 80.0454 106.872L83.1579 105.299C81.0264 105.121 78.7003 105.021 76.2631 105.021C76.2436 105.021 76.2269 105.021 76.2075 105.021L72.4863 106.869C73.6897 106.827 74.9569 106.805 76.2631 106.805Z" fill="white"/>
</g>
<path d="M76.2623 110.56C84.1867 110.56 90.6106 109.718 90.6106 108.681C90.6106 107.643 84.1867 106.802 76.2623 106.802C68.338 106.802 61.9141 107.643 61.9141 108.681C61.9141 109.718 68.338 110.56 76.2623 110.56Z" stroke="black" stroke-miterlimit="10"/>
<path d="M57.7539 108.861V114.422C57.7539 116.423 66.0411 118.046 76.2624 118.046C86.4838 118.046 94.771 116.423 94.771 114.422V108.861" stroke="black" stroke-miterlimit="10"/>
<path d="M76.2624 112.705C86.4844 112.705 94.771 110.984 94.771 108.862C94.771 106.739 86.4844 105.018 76.2624 105.018C66.0405 105.018 57.7539 106.739 57.7539 108.862C57.7539 110.984 66.0405 112.705 76.2624 112.705Z" stroke="black" stroke-miterlimit="10"/>
<path d="M264.245 164.593C254.023 164.593 245.736 166.313 245.736 168.436V173.997C245.736 175.998 254.023 177.621 264.245 177.621C274.466 177.621 282.753 175.998 282.753 173.997V168.436C282.753 166.313 274.466 164.593 264.245 164.593Z" fill="#FFCE24"/>
<path d="M264.244 172.277C254.306 172.277 246.197 170.651 245.755 168.611H245.732V173.997C245.732 175.998 254.02 177.621 264.241 177.621C274.462 177.621 282.749 175.998 282.749 173.997V168.611H282.727C282.291 170.651 274.182 172.277 264.244 172.277Z" fill="#E8A000"/>
<mask id="mask20_2435_64391" style="mask-type:luminance" maskUnits="userSpaceOnUse" x="245" y="168" width="38" height="10">
<path d="M264.244 172.277C254.306 172.277 246.197 170.651 245.755 168.611H245.732V173.997C245.732 175.998 254.02 177.621 264.241 177.621C274.462 177.621 282.749 175.998 282.749 173.997V168.611H282.727C282.291 170.651 274.182 172.277 264.244 172.277Z" fill="white"/>
</mask>
<g mask="url(#mask20_2435_64391)">
<path d="M282.699 177.382V169.698L256.826 172.432C265.283 175.248 281.018 171.843 281.018 171.843L281.349 177.385L282.699 177.382Z" fill="#EDB333"/>
</g>
<mask id="mask21_2435_64391" style="mask-type:luminance" maskUnits="userSpaceOnUse" x="245" y="168" width="38" height="10">
<path d="M264.244 172.277C254.306 172.277 246.197 170.651 245.755 168.611H245.732V173.997C245.732 175.998 254.02 177.621 264.241 177.621C274.462 177.621 282.749 175.998 282.749 173.997V168.611H282.727C282.291 170.651 274.182 172.277 264.244 172.277Z" fill="white"/>
</mask>
<g mask="url(#mask21_2435_64391)">
<path d="M245.734 168.611V173.425L261.586 165.793L245.734 168.611Z" fill="black"/>
</g>
<path d="M264.245 170.134C272.169 170.134 278.593 169.293 278.593 168.255C278.593 167.218 272.169 166.377 264.245 166.377C256.32 166.377 249.896 167.218 249.896 168.255C249.896 169.293 256.32 170.134 264.245 170.134Z" stroke="black" stroke-miterlimit="10"/>
<path d="M245.736 168.436V173.997C245.736 175.998 254.023 177.621 264.245 177.621C274.466 177.621 282.753 175.998 282.753 173.997V168.436" stroke="black" stroke-miterlimit="10"/>
<path d="M264.245 172.28C274.467 172.28 282.753 170.559 282.753 168.436C282.753 166.314 274.467 164.593 264.245 164.593C254.023 164.593 245.736 166.314 245.736 168.436C245.736 170.559 254.023 172.28 264.245 172.28Z" stroke="black" stroke-miterlimit="10"/>
<path d="M261.911 157.998C251.69 157.998 243.402 159.718 243.402 161.842V167.402C243.402 169.403 251.69 171.026 261.911 171.026C272.132 171.026 280.419 169.403 280.419 167.402V161.842C280.419 159.718 272.132 157.998 261.911 157.998Z" fill="#FFCE24"/>
<path d="M261.912 165.682C251.974 165.682 243.865 164.056 243.423 162.017H243.4V167.402C243.4 169.403 251.688 171.026 261.909 171.026C272.13 171.026 280.417 169.403 280.417 167.402V162.017H280.395C279.956 164.056 271.85 165.682 261.912 165.682Z" fill="#E8A000"/>
<mask id="mask22_2435_64391" style="mask-type:luminance" maskUnits="userSpaceOnUse" x="243" y="162" width="38" height="10">
<path d="M261.912 165.682C251.974 165.682 243.865 164.056 243.423 162.017H243.4V167.402C243.4 169.403 251.688 171.026 261.909 171.026C272.13 171.026 280.417 169.403 280.417 167.402V162.017H280.395C279.956 164.056 271.85 165.682 261.912 165.682Z" fill="white"/>
</mask>
<g mask="url(#mask22_2435_64391)">
<path d="M280.367 170.787V163.103L254.494 165.838C262.951 168.653 278.686 165.249 278.686 165.249L279.017 170.79L280.367 170.787Z" fill="#EDB333"/>
</g>
<path d="M261.913 163.54C269.837 163.54 276.261 162.698 276.261 161.661C276.261 160.623 269.837 159.782 261.913 159.782C253.988 159.782 247.564 160.623 247.564 161.661C247.564 162.698 253.988 163.54 261.913 163.54Z" stroke="black" stroke-miterlimit="10"/>
<path d="M243.402 161.842V167.402C243.402 169.403 251.69 171.026 261.911 171.026C272.132 171.026 280.419 169.403 280.419 167.402V161.842" stroke="black" stroke-miterlimit="10"/>
<path d="M261.911 165.685C272.133 165.685 280.419 163.964 280.419 161.842C280.419 159.719 272.133 157.998 261.911 157.998C251.689 157.998 243.402 159.719 243.402 161.842C243.402 163.964 251.689 165.685 261.911 165.685Z" stroke="black" stroke-miterlimit="10"/>
<path d="M263.444 151.403C253.223 151.403 244.936 153.124 244.936 155.247V160.808C244.936 162.809 253.223 164.432 263.444 164.432C273.665 164.432 281.953 162.809 281.953 160.808V155.247C281.953 153.124 273.665 151.403 263.444 151.403Z" fill="#FFCE24"/>
<path d="M263.443 159.087C253.505 159.087 245.396 157.462 244.954 155.422H244.932V160.808C244.932 162.809 253.219 164.432 263.44 164.432C273.662 164.432 281.949 162.809 281.949 160.808V155.422H281.926C281.487 157.462 273.381 159.087 263.443 159.087Z" fill="#E8A000"/>
<mask id="mask23_2435_64391" style="mask-type:luminance" maskUnits="userSpaceOnUse" x="244" y="155" width="38" height="10">
<path d="M263.443 159.087C253.505 159.087 245.396 157.462 244.954 155.422H244.932V160.808C244.932 162.809 253.219 164.432 263.44 164.432C273.662 164.432 281.949 162.809 281.949 160.808V155.422H281.926C281.487 157.462 273.381 159.087 263.443 159.087Z" fill="white"/>
</mask>
<g mask="url(#mask23_2435_64391)">
<path d="M281.898 164.192V156.508L256.025 159.243C264.482 162.058 280.217 158.654 280.217 158.654L280.548 164.195L281.898 164.192Z" fill="#EDB333"/>
</g>
<mask id="mask24_2435_64391" style="mask-type:luminance" maskUnits="userSpaceOnUse" x="244" y="155" width="38" height="10">
<path d="M263.443 159.087C253.505 159.087 245.396 157.462 244.954 155.422H244.932V160.808C244.932 162.809 253.219 164.432 263.44 164.432C273.662 164.432 281.949 162.809 281.949 160.808V155.422H281.926C281.487 157.462 273.381 159.087 263.443 159.087Z" fill="white"/>
</mask>
<g mask="url(#mask24_2435_64391)">
<path d="M263.229 154.043L283.449 159.438L283.366 152.871L263.229 154.043Z" fill="black"/>
</g>
<path d="M263.444 156.945C271.368 156.945 277.792 156.104 277.792 155.066C277.792 154.029 271.368 153.188 263.444 153.188C255.52 153.188 249.096 154.029 249.096 155.066C249.096 156.104 255.52 156.945 263.444 156.945Z" stroke="black" stroke-miterlimit="10"/>
<path d="M244.932 155.247V160.808C244.932 162.809 253.219 164.432 263.44 164.432C273.662 164.432 281.949 162.809 281.949 160.808V155.247" stroke="black" stroke-miterlimit="10"/>
<path d="M263.444 159.09C273.666 159.09 281.953 157.369 281.953 155.247C281.953 153.124 273.666 151.403 263.444 151.403C253.222 151.403 244.936 153.124 244.936 155.247C244.936 157.369 253.222 159.09 263.444 159.09Z" stroke="black" stroke-miterlimit="10"/>
<path d="M265.901 144.809C255.68 144.809 247.393 146.529 247.393 148.652V154.213C247.393 156.214 255.68 157.837 265.901 157.837C276.122 157.837 284.41 156.214 284.41 154.213V148.652C284.41 146.529 276.122 144.809 265.901 144.809Z" fill="#FFCE24"/>
<path d="M265.902 152.495C255.964 152.495 247.855 150.87 247.413 148.83H247.391V154.216C247.391 156.217 255.678 157.84 265.899 157.84C276.121 157.84 284.408 156.217 284.408 154.216V148.83H284.385C283.946 150.867 275.84 152.495 265.902 152.495Z" fill="#E8A000"/>
<mask id="mask25_2435_64391" style="mask-type:luminance" maskUnits="userSpaceOnUse" x="247" y="148" width="38" height="10">
<path d="M265.902 152.495C255.964 152.495 247.855 150.87 247.413 148.83H247.391V154.216C247.391 156.217 255.678 157.84 265.899 157.84C276.121 157.84 284.408 156.217 284.408 154.216V148.83H284.385C283.946 150.867 275.84 152.495 265.902 152.495Z" fill="white"/>
</mask>
<g mask="url(#mask25_2435_64391)">
<path d="M284.357 157.598V149.914L258.484 152.648C266.941 155.464 282.676 152.059 282.676 152.059L283.007 157.601L284.357 157.598Z" fill="#EDB333"/>
</g>
<mask id="mask26_2435_64391" style="mask-type:luminance" maskUnits="userSpaceOnUse" x="247" y="148" width="38" height="10">
<path d="M265.902 152.495C255.964 152.495 247.855 150.87 247.413 148.83H247.391V154.216C247.391 156.217 255.678 157.84 265.899 157.84C276.121 157.84 284.408 156.217 284.408 154.216V148.83H284.385C283.946 150.867 275.84 152.495 265.902 152.495Z" fill="white"/>
</mask>
<g mask="url(#mask26_2435_64391)">
<path d="M247.393 148.827V153.641L263.244 146.009L247.393 148.827Z" fill="black"/>
</g>
<path d="M265.903 150.35C273.827 150.35 280.251 149.509 280.251 148.471C280.251 147.434 273.827 146.593 265.903 146.593C257.979 146.593 251.555 147.434 251.555 148.471C251.555 149.509 257.979 150.35 265.903 150.35Z" stroke="black" stroke-miterlimit="10"/>
<path d="M247.393 148.652V154.213C247.393 156.214 255.68 157.837 265.901 157.837C276.122 157.837 284.41 156.214 284.41 154.213V148.652" stroke="black" stroke-miterlimit="10"/>
<path d="M265.901 152.495C276.123 152.495 284.41 150.775 284.41 148.652C284.41 146.529 276.123 144.809 265.901 144.809C255.679 144.809 247.393 146.529 247.393 148.652C247.393 150.775 255.679 152.495 265.901 152.495Z" stroke="black" stroke-miterlimit="10"/>
<path d="M262.02 138.217C251.799 138.217 243.512 139.937 243.512 142.06V147.621C243.512 149.622 251.799 151.245 262.02 151.245C272.242 151.245 280.529 149.622 280.529 147.621V142.06C280.529 139.937 272.242 138.217 262.02 138.217Z" fill="#FFCE24"/>
<path d="M262.021 145.901C252.083 145.901 243.974 144.275 243.532 142.235H243.51V147.621C243.51 149.622 251.797 151.245 262.018 151.245C272.24 151.245 280.527 149.622 280.527 147.621V142.235H280.505C280.068 144.272 271.959 145.901 262.021 145.901Z" fill="#E8A000"/>
<mask id="mask27_2435_64391" style="mask-type:luminance" maskUnits="userSpaceOnUse" x="243" y="142" width="38" height="10">
<path d="M262.021 145.901C252.083 145.901 243.974 144.275 243.532 142.235H243.51V147.621C243.51 149.622 251.797 151.245 262.018 151.245C272.24 151.245 280.527 149.622 280.527 147.621V142.235H280.505C280.068 144.272 271.959 145.901 262.021 145.901Z" fill="white"/>
</mask>
<g mask="url(#mask27_2435_64391)">
<path d="M280.477 151.003V143.319L254.604 146.054C263.06 148.869 278.795 145.464 278.795 145.464L279.126 151.006L280.477 151.003Z" fill="#EDB333"/>
</g>
<mask id="mask28_2435_64391" style="mask-type:luminance" maskUnits="userSpaceOnUse" x="243" y="142" width="38" height="10">
<path d="M262.021 145.901C252.083 145.901 243.974 144.275 243.532 142.235H243.51V147.621C243.51 149.622 251.797 151.245 262.018 151.245C272.24 151.245 280.527 149.622 280.527 147.621V142.235H280.505C280.068 144.272 271.959 145.901 262.021 145.901Z" fill="white"/>
</mask>
<g mask="url(#mask28_2435_64391)">
<path d="M261.807 140.854L282.03 146.248L281.944 139.681L261.807 140.854Z" fill="black"/>
</g>
<path d="M262.02 143.755C269.944 143.755 276.368 142.914 276.368 141.877C276.368 140.839 269.944 139.998 262.02 139.998C254.096 139.998 247.672 140.839 247.672 141.877C247.672 142.914 254.096 143.755 262.02 143.755Z" stroke="black" stroke-miterlimit="10"/>
<path d="M243.512 142.057V147.618C243.512 149.619 251.799 151.242 262.02 151.242C272.242 151.242 280.529 149.619 280.529 147.618V142.057" stroke="black" stroke-miterlimit="10"/>
<path d="M262.022 145.901C272.244 145.901 280.531 144.18 280.531 142.057C280.531 139.935 272.244 138.214 262.022 138.214C251.8 138.214 243.514 139.935 243.514 142.057C243.514 144.18 251.8 145.901 262.022 145.901Z" stroke="black" stroke-miterlimit="10"/>
<path d="M264.585 131.622C254.363 131.622 246.076 133.342 246.076 135.466V141.027C246.076 143.027 254.363 144.65 264.585 144.65C274.806 144.65 283.093 143.027 283.093 141.027V135.466C283.093 133.342 274.806 131.622 264.585 131.622Z" fill="#FFCE24"/>
<path d="M264.586 139.306C254.648 139.306 246.538 137.68 246.096 135.641H246.074V141.026C246.074 143.027 254.361 144.65 264.583 144.65C274.804 144.65 283.091 143.027 283.091 141.026V135.641H283.069C282.633 137.68 274.523 139.306 264.586 139.306Z" fill="#E8A000"/>
<mask id="mask29_2435_64391" style="mask-type:luminance" maskUnits="userSpaceOnUse" x="246" y="135" width="38" height="10">
<path d="M264.586 139.306C254.648 139.306 246.538 137.68 246.096 135.641H246.074V141.026C246.074 143.027 254.361 144.65 264.583 144.65C274.804 144.65 283.091 143.027 283.091 141.026V135.641H283.069C282.633 137.68 274.523 139.306 264.586 139.306Z" fill="white"/>
</mask>
<g mask="url(#mask29_2435_64391)">
<path d="M283.041 144.408V136.724L257.168 139.459C265.625 142.274 281.36 138.87 281.36 138.87L281.69 144.411L283.041 144.408Z" fill="#EDB333"/>
</g>
<g opacity="0.6">
<path d="M257.412 139.006L265.927 134.704C265.396 134.693 264.857 134.687 264.313 134.687C261.998 134.687 259.805 134.782 257.826 134.951L251.379 138.156C253.088 138.517 255.133 138.806 257.412 139.006Z" fill="white"/>
<path d="M262.465 139.278L270.749 134.946C269.955 134.879 269.129 134.824 268.271 134.782L259.73 139.17C260.62 139.22 261.531 139.256 262.465 139.278Z" fill="white"/>
<path d="M273.014 133.762L275.652 132.381C274.968 132.275 274.248 132.178 273.498 132.095L270.613 133.579C271.461 133.631 272.264 133.693 273.014 133.762Z" fill="white"/>
<path d="M264.585 133.404C265.894 133.404 267.162 133.426 268.368 133.47L271.48 131.897C269.349 131.719 267.023 131.619 264.585 131.619C264.566 131.619 264.549 131.619 264.53 131.619L260.809 133.468C262.012 133.429 263.276 133.404 264.585 133.404Z" fill="white"/>
</g>
<path d="M264.585 137.161C272.509 137.161 278.933 136.32 278.933 135.282C278.933 134.245 272.509 133.403 264.585 133.403C256.66 133.403 250.236 134.245 250.236 135.282C250.236 136.32 256.66 137.161 264.585 137.161Z" stroke="black" stroke-miterlimit="10"/>
<path d="M246.076 135.463V141.024C246.076 143.024 254.363 144.647 264.585 144.647C274.806 144.647 283.093 143.024 283.093 141.024V135.463" stroke="black" stroke-miterlimit="10"/>
<path d="M264.585 139.306C274.807 139.306 283.093 137.585 283.093 135.463C283.093 133.34 274.807 131.619 264.585 131.619C254.363 131.619 246.076 133.34 246.076 135.463C246.076 137.585 254.363 139.306 264.585 139.306Z" stroke="black" stroke-miterlimit="10"/>
<path d="M120.989 173.758C110.768 173.758 102.48 175.478 102.48 177.601V183.162C102.48 185.163 110.768 186.786 120.989 186.786C131.21 186.786 139.498 185.163 139.498 183.162V177.601C139.5 175.478 131.213 173.758 120.989 173.758Z" fill="#FFCE24"/>
<path d="M120.99 181.442C111.052 181.442 102.943 179.816 102.501 177.777H102.479V183.162C102.479 185.163 110.766 186.786 120.987 186.786C131.208 186.786 139.496 185.163 139.496 183.162V177.777H139.479C139.037 179.816 130.931 181.442 120.99 181.442Z" fill="#E8A000"/>
<mask id="mask30_2435_64391" style="mask-type:luminance" maskUnits="userSpaceOnUse" x="102" y="177" width="38" height="10">
<path d="M120.99 181.442C111.052 181.442 102.943 179.816 102.501 177.777H102.479V183.162C102.479 185.163 110.766 186.786 120.987 186.786C131.208 186.786 139.496 185.163 139.496 183.162V177.777H139.479C139.037 179.816 130.931 181.442 120.99 181.442Z" fill="white"/>
</mask>
<g mask="url(#mask30_2435_64391)">
<path d="M139.449 186.547V178.863L113.576 181.598C122.033 184.413 137.768 181.009 137.768 181.009L138.099 186.55L139.449 186.547Z" fill="#EDB333"/>
</g>
<g opacity="0.6">
<path d="M113.82 181.142L122.335 176.84C121.805 176.829 121.266 176.823 120.721 176.823C118.406 176.823 116.213 176.918 114.235 177.087L107.787 180.292C109.493 180.653 111.539 180.945 113.82 181.142Z" fill="white"/>
<path d="M118.873 181.417L127.158 177.085C126.363 177.018 125.537 176.962 124.679 176.921L116.139 181.309C117.028 181.359 117.939 181.395 118.873 181.417Z" fill="white"/>
<path d="M129.419 175.901L132.056 174.52C131.372 174.414 130.653 174.317 129.902 174.233L127.018 175.717C127.868 175.767 128.671 175.828 129.419 175.901Z" fill="white"/>
<path d="M120.99 175.542C122.299 175.542 123.566 175.564 124.772 175.609L127.884 174.036C125.753 173.858 123.427 173.758 120.99 173.758C120.97 173.758 120.954 173.758 120.934 173.758L117.213 175.606C118.416 175.564 119.683 175.542 120.99 175.542Z" fill="white"/>
</g>
<path d="M120.989 179.297C128.913 179.297 135.337 178.456 135.337 177.418C135.337 176.381 128.913 175.539 120.989 175.539C113.065 175.539 106.641 176.381 106.641 177.418C106.641 178.456 113.065 179.297 120.989 179.297Z" stroke="black" stroke-miterlimit="10"/>
<path d="M102.48 177.602V183.162C102.48 185.163 110.768 186.786 120.989 186.786C131.21 186.786 139.498 185.163 139.498 183.162V177.602" stroke="black" stroke-miterlimit="10"/>
<path d="M120.989 181.445C131.211 181.445 139.498 179.724 139.498 177.601C139.498 175.479 131.211 173.758 120.989 173.758C110.767 173.758 102.48 175.479 102.48 177.601C102.48 179.724 110.767 181.445 120.989 181.445Z" stroke="black" stroke-miterlimit="10"/>
</svg>
