<svg width="300" height="200" viewBox="0 0 300 200" fill="none" xmlns="http://www.w3.org/2000/svg">
<path d="M137.096 196.828C137.033 197.8 136.958 199.088 138.198 199.224C140.194 199.606 142.226 199.448 144.229 199.222C146.004 198.996 147.979 199.2 149.293 197.761C150.901 197.756 154.116 198.557 154.576 196.453C156.716 196.433 161.764 198.022 156.922 199.227C150.498 200.08 144.005 200.041 137.537 199.961C131.161 200.008 130.009 197.612 137.096 196.828Z" fill="#CCCCCC"/>
<path d="M207.048 35.0038C209.15 36.7347 204.501 38.0209 203.213 38.6438C200.786 39.6581 199.377 42.6954 196.586 42.7818C196.843 43.7979 197.398 44.7681 196.632 45.7475C195.118 47.9506 193.57 50.1298 191.944 52.2521C187.15 58.459 182.593 64.8424 177.952 71.1633C176.335 73.4344 174.803 75.7698 173.105 77.9839C170.275 83.4504 169.169 89.8007 167.506 95.7283C165.966 101.527 166.598 104.282 168.566 109.813C170.42 116.731 172.228 116.297 165.641 119.145C166.01 125.28 164.99 131.351 164.492 137.45C164.108 141.13 163.719 144.811 163.318 148.489C163.238 149.213 163.212 149.246 162.771 149.932C170.868 153.107 178.007 158.461 185.792 162.382C188.188 163.988 192.189 163.713 193.804 166.089C194.853 167.726 195.389 169.618 196.448 171.254C197.1 172.29 197.069 172.725 196.246 173.607C195.707 174.184 195.081 174.679 194.473 175.188C194.193 175.421 194.112 175.408 193.379 175.456C193.221 176.939 192.902 178.611 191.455 179.368C189.495 180.709 187.52 182.054 185.258 182.854C183.407 183.521 182.643 181.169 182.988 179.734C183.36 178.302 183.834 176.924 183.485 175.416C183.099 173.427 182.693 171.43 181.827 169.589C181.732 169.363 181.57 169.22 181.324 169.137C178.305 168.071 175.253 167.13 172.157 166.316C164.627 164.271 157.317 161.572 149.894 159.191C149.984 163.709 150.719 168.257 151.018 172.788C151.575 177.029 151.395 181.494 152.356 185.626C154.857 189.527 155.573 190.237 154.658 194.988C154.418 196.089 155.107 197.553 153.587 197.908C151.884 198.558 149.91 197.54 148.394 198.729C147.873 199.143 147.207 199.251 146.564 199.288C144.604 199.4 142.663 199.756 140.692 199.733C138.88 199.815 135.896 199.325 137.094 196.831C137.539 194.817 139.633 193.904 140.536 192.127C141.138 190.808 143.876 187.717 143.419 186.56C141.001 175.919 138.107 165.343 136.295 154.586C135.687 154.353 135.02 154.314 134.435 153.915C132.221 143.339 131.286 132.56 129.876 121.855C129.092 121.486 127.3 121.547 127.659 120.303C129.167 112.942 130.431 105.485 130.248 97.9535C130.334 95.3112 130.512 92.6726 130.711 90.0377C130.812 88.4171 131.117 86.8332 131.651 85.3026C131.843 84.7587 131.824 84.3103 131.554 83.8069C126.35 73.6696 121.911 63.1776 117.797 52.5553C116.45 49.1119 115.129 45.6574 113.837 42.192C113.714 41.7914 113.622 41.3871 113.955 40.9719C110.853 39.6783 107.612 38.7963 104.503 37.5891C103.56 37.0489 103.9 35.454 104.927 35.2316C105.265 35.1471 105.618 35.1177 106.03 35.0534C105.767 34.7153 105.383 34.6363 105.054 34.4048C103.891 33.6312 104.797 31.9205 106.026 31.8966C106.697 29.4197 108.093 30.2521 109.797 30.8842C109.855 30.559 109.398 30.2539 109.31 29.9232C108.667 28.6388 110.398 27.8175 111.395 28.4275C112.49 28.7472 114.699 32.1263 115.511 31.4832C115.438 30.4175 114.701 28.7527 116.086 28.2934C116.729 28.0527 117.391 28.2897 117.736 28.9291C118.594 31.5806 120.735 34.2817 119.579 37.1279C120.768 37.3429 122.102 37.2786 122.617 38.642C123.127 39.8271 123.686 40.9921 124.224 42.1644C126.192 46.3906 127.975 50.7086 130.299 54.7565C130.771 54.4938 130.187 51.6347 130.279 50.8979C130.169 48.9263 130.18 46.962 130.713 45.04C131.457 42.723 132.962 40.1469 135.523 39.6397C138.198 34.1255 144.754 31.5953 150.636 32.4369C158.712 33.3556 164.331 39.3053 166.957 46.6827C170.275 51.0541 172.721 50.6719 171.572 57.3198C171.965 57.6211 174.001 54.8117 174.501 54.4295C178.836 49.5602 183.249 44.7589 187.527 39.84C189.01 37.85 191.117 40.0991 191.56 37.7802C191.992 35.1545 192.198 32.4626 192.852 29.8846C193.497 28.343 195.812 28.9585 195.595 30.6067C195.685 31.2535 195.331 32.3964 195.744 32.8705C197.168 31.5218 198.471 29.9967 199.91 28.6498C201.034 27.6944 202.447 28.6921 202.265 30.0776C203.607 29.0284 205.433 29.6237 204.772 31.4997C205.444 31.7092 206.218 31.2958 206.618 32.1594C207.267 33.3556 205.889 34.131 205.286 34.9817C205.6 34.866 205.903 34.7998 206.201 34.7447C206.694 34.6584 206.953 34.9248 207.048 35.0038Z" fill="black"/>
<path d="M169.411 81.6295C169.952 81.5119 170.246 81.0617 170.767 80.8376C168.801 87.8659 165.961 94.8501 165.643 102.213C165.766 103.609 166.001 105.006 165.747 106.408C165.641 107.062 165.841 107.688 166.062 108.3C166.927 111.154 167.563 114.252 167.602 117.183C163.348 119.268 158.787 120.586 154.129 121.403C150.822 122.092 146.947 122.149 146.557 117.877C145.914 111.025 146.153 104.054 147.011 97.2388C148.233 92.0185 151.202 87.4745 154.504 83.3273C155.57 81.9639 156.606 80.5766 157.637 79.1838C158.646 78.1016 157.633 77.644 156.812 76.9164C159.599 74.6233 158.987 75.0146 159.507 71.5161C160.197 71.5326 160.856 71.6741 161.507 71.5675C161.613 70.8215 160.261 70.0516 160.332 68.9822L160.373 68.9418C163.805 71.0531 168.851 69.7742 171.016 66.4447C170.637 65.9376 170.04 65.7079 169.762 65.1125C171.122 65.3624 172.599 65.7299 173.865 64.9784C173.887 64.7138 173.674 64.6862 173.531 64.6219C172.039 63.9623 171.451 62.6981 171.302 61.1914C170.81 59.1389 172.531 58.2367 173.669 56.776C177.934 51.8589 182.351 47.0815 186.654 42.1993C187.52 41.4515 188.041 40.0054 189.26 39.8566C191.022 39.6894 192.727 40.5989 194.052 41.7069C194.759 42.5779 194.963 43.6436 195.217 44.6928C195.303 46.0047 192.85 48.9594 192.11 50.2732L192.115 50.2603C191.917 50.7013 176.497 71.2423 169.411 81.6295Z" fill="#D52B1E"/>
<path d="M162.268 148.851C157.518 152.965 141.504 155.042 135.371 153.353C133.094 143.418 132.24 133.086 130.992 123.009C135.104 120.88 136.178 118.763 136.317 114.217C139.231 114.268 142.01 114.294 144.929 114.169C145.021 116.264 143.402 120.734 146.326 121.265C149.973 123.112 150.756 122.938 154.767 122.221C158.139 121.997 161.479 121.412 164.82 121.019C164.972 121.604 164.993 122.168 164.791 122.735C162.986 128.9 162.391 135.407 161.987 141.81C161.95 143.44 161.86 145.088 161.577 146.711C161.432 147.527 161.555 148.293 162.268 148.851Z" fill="black" stroke="black" stroke-miterlimit="10"/>
<path d="M149.916 42.7046C154.57 44.1837 154.258 49.9019 157.903 50.749C160.029 50.4532 157.874 48.3695 158.98 47.4324C159.956 46.4126 161.411 46.1168 162.701 46.6919C167.045 49.1559 164.246 55.0799 158.978 52.8419C158.399 53.327 159.476 53.7275 159.816 53.9958C156.384 59.1462 153.4 63.7142 157.391 69.6602C156.193 71.9846 154.723 74.1914 153.434 76.4735C153.124 77.0009 152.718 77.4088 152.135 77.6017C150.083 78.2448 146.816 79.2977 145.041 77.6679C145.324 77.0229 145.708 76.4221 146.188 75.7624C146.29 76.1336 146.366 76.4055 146.436 76.6573C147.433 77.192 146.68 72.8629 146.851 72.2235C149.037 70.4448 151.119 68.4511 153.326 66.6853C153.703 66.3583 153.686 66.3381 153.918 65.7721C153.447 65.706 153.17 65.9357 152.835 66.2094C150.546 67.9183 147.996 68.9748 145.144 69.2266C140.117 69.7374 136.905 66.9316 135.734 62.1689C134.832 58.821 132.55 53.4133 133.807 50.1316C134.691 48.7002 135.324 47.2082 135.914 45.6225C140.82 44.5917 145.985 45.1484 150.851 44.2591C150.682 43.6766 150.208 43.3936 149.873 43.0004C149.861 42.8957 149.873 42.7983 149.916 42.7046Z" fill="#EED3CA"/>
<path d="M135.668 76.7199C135.791 77.2729 134.76 78.0153 135.692 78.2652C137.138 78.6014 138.608 78.5831 140.107 78.3699C140.405 78.6419 140.556 78.9965 140.592 79.4687C137.45 81.172 137.761 81.6038 137.096 84.9131C136.054 89.086 136.166 93.3379 136.23 97.6045C136.436 102.062 135.324 106.531 135.464 111.014C135.376 114.382 136.001 120.073 131.723 120.972C131.054 120.984 128.46 120.988 128.671 120.038C129.819 115.038 130.332 109.917 131.045 104.844C131.15 100.212 131.115 95.5686 131.583 90.951C131.637 88.9188 132.103 86.9362 132.715 85.0105C133.287 82.9489 134.681 80.9387 134.571 78.7631C133.893 78.7043 132.949 82.3664 132.397 83.0095C125.24 70.1748 120.202 55.8279 114.725 42.0836C114.572 41.729 114.78 41.3946 114.976 41.1098C116.226 39.5332 118.056 38.0063 120.189 38.6549C120.808 38.7486 121.068 39.2723 121.33 39.7758C123.059 43.0943 124.877 46.3686 126.512 49.7367L126.505 49.7275C126.595 49.8341 126.565 50.0013 126.688 50.0913L126.681 50.0785C126.771 50.185 126.743 50.3522 126.867 50.4441L126.857 50.4313C126.947 50.5397 126.92 50.7069 127.043 50.7987L127.032 50.7822C127.124 50.8961 127.096 51.0872 127.269 51.1497C128.307 53.0864 129.316 55.0396 130.343 56.98C130.657 60.7505 127.414 64.9583 129.931 68.6258C130.67 69.9598 131.993 70.772 132.969 71.8947C134.189 73.6991 133.669 76.5196 131.534 76.9275C132.677 78.0043 134.453 77.3685 135.668 76.7217C135.67 76.7217 135.668 76.7199 135.668 76.7199Z" fill="#D52B1E"/>
<path d="M190.626 165.115C191.073 168.174 189.711 171.109 188.963 174.023C187.317 173.968 185.867 174.554 184.438 175.394C183.848 173.405 183.513 169.176 181.547 168.248C177.654 166.84 173.674 165.745 169.696 164.602C164.389 163.195 159.233 161.306 154.037 159.549C151.588 158.54 148.681 158.266 146.648 156.464C146.682 156.209 146.885 156.188 147.025 156.118C150.075 154.687 153.234 153.456 156.497 152.609C158.046 152.146 159.569 151.619 161.014 150.885C161.341 150.72 161.646 150.67 162.021 150.746C172.182 154.097 180.237 162.226 190.626 165.115Z" fill="#EED3CA"/>
<path d="M141.546 192.307C144.154 187.311 145.166 188.807 143.523 182.995C141.57 174.396 139.466 165.839 137.566 157.228C139.735 156.251 142.026 155.121 144.374 154.845C145.223 156.92 146.937 158.033 148.944 158.84C149.258 164.446 149.881 170.017 150.35 175.61C150.594 178.508 150.84 181.404 151.085 184.302C151.147 185.702 152.138 186.819 152.762 188C151.75 189.399 148.167 192.214 146.27 193.096C144.859 192.414 143.301 192.223 141.546 192.307Z" fill="#EED3CA"/>
<path d="M145.018 113.113C142.104 113.456 139.273 113.469 136.414 113.293C136.182 109.502 136.698 105.895 136.978 102.15C137.336 97.9131 137.573 93.6373 138.743 89.5251C139.868 85.5249 142.336 82.1109 144.452 78.5903C146.724 79.9574 149.522 79.3033 151.942 78.7171C152.041 78.9303 151.883 79.0515 151.806 79.1838C151.249 80.1503 150.705 81.126 150.117 82.0723C148.5 84.6779 147.512 87.5112 146.95 90.5118C145.439 97.9701 145.59 105.583 145.018 113.113Z" fill="white"/>
<path d="M195.789 41.9716C195.154 41.1851 192.956 39.8714 192.895 38.9563C192.228 37.6701 192.497 37.5249 192.682 36.0458C192.899 35.3769 193.268 28.1777 194.615 30.2743C194.871 36.3581 194.672 32.1283 196.934 36.3379C197.945 35.7481 196.828 34.3792 196.24 33.7985C197.665 32.2183 199.044 30.5315 200.697 29.1902C201.346 28.9182 201.419 29.9307 201.01 30.2412C200.3 31.0295 199.696 31.8968 199.119 32.7843C199.001 33.058 198.524 33.4016 198.81 33.6938C198.948 33.804 199.097 33.76 199.214 33.6718C200.677 32.6409 201.961 31.3621 203.477 30.4158C204.385 30.2008 203.992 31.4484 203.529 31.7516C202.948 32.233 198.239 36.6062 201.526 34.9084C202.816 34.1072 204.012 33.1205 205.366 32.4388C207.939 32.7549 200.778 36.246 201.897 37.0031C203.04 37.0233 205.745 35.4026 206.546 35.8179C206.245 37.106 202.491 37.5139 201.486 38.677C200.387 39.6049 199.257 40.4979 198.141 41.4093C197.432 41.9734 196.679 41.7254 195.789 41.9716Z" fill="#EED3CA"/>
<path d="M153.328 189.004C154.989 191.17 153.62 193.831 153.625 196.262C153.811 197.109 150.787 197.138 150.358 196.837C151.064 195.813 152.201 195.02 152.609 193.799C152.093 193.331 149.087 196.853 148.442 197.36C147.784 198.41 139.324 198.917 138.156 198.312C137.415 196.352 139.367 195.141 140.44 193.823C141.827 192.557 144.196 193.285 145.772 193.866C147.527 194.369 151.849 190.143 153.328 189.004Z" fill="#D52B1E"/>
<path d="M113.374 33.2785C112.476 32.1558 111.504 31.2223 110.563 30.1511C110.357 29.9232 110.067 29.7248 110.102 29.3353C111.238 28.1923 114.218 33.1498 116.504 33.2674C116.752 32.097 116.123 30.7979 116.109 29.5833C116.597 28.4239 117.156 29.8148 117.336 30.3753C118.146 32.6115 119.905 34.9726 118.442 37.3043C116.768 37.7159 115.032 38.3278 113.545 39.241C113.093 39.513 112.704 39.513 112.226 39.3384C110.041 38.5667 107.875 37.727 105.622 37.1794C104.768 37.0838 104.481 35.9685 105.554 35.9997C106.381 35.8123 109.725 36.7678 109.887 36.2037C108.722 35.1949 107.142 34.6253 105.788 33.8573C105.137 33.5522 105.631 32.7382 106.173 32.8705C107.983 33.4016 109.681 34.6823 111.592 34.7172C112.27 33.6294 106.684 32.7566 106.973 31.7515C107.66 29.44 111.899 34.2192 113.374 33.2785Z" fill="#EED3CA"/>
<path d="M191.63 165.58C193.758 166.059 194.57 170.581 195.965 172.352C195.572 173.29 194.726 173.76 193.993 174.372C192.942 174.8 193.969 171.151 193.058 170.892C192.257 172.621 192.841 174.987 192.283 176.902C191.834 178.864 186.57 181.409 184.69 182.161C182.917 181.009 184.426 178.749 184.523 177.135C184.982 175.485 187.253 175.044 188.769 174.975C190.186 175.085 190.037 173.328 190.423 172.367C190.991 170.114 191.671 167.93 191.63 165.58Z" fill="#D52B1E"/>
<path d="M152.574 84.1413C150.884 86.6807 149.145 89.1631 147.784 91.9193C147.591 91.8329 147.661 91.6676 147.683 91.5592C148.229 88.6192 149.01 85.694 150.586 83.1215C153.072 78.8807 155.612 74.6857 158.022 70.3989C158.423 70.579 158.693 70.7921 158.585 71.2644C157.873 72.4569 157.995 73.914 157.374 75.1157C156.868 75.8746 155.518 76.0896 155.652 77.1847C155.626 77.3004 155.599 77.4346 155.667 77.5264C156.372 78.4893 155.869 79.2041 155.286 80.0125C154.454 81.1701 153.73 82.4068 152.96 83.6085L152.966 83.5974C152.842 83.6893 152.642 84.0733 152.574 84.1413Z" fill="#D52B1E"/>
<path d="M162.268 148.851C160.985 149.02 161.334 147.181 161.356 146.336C161.667 144.586 161.658 142.789 161.77 141.011C161.807 137.694 162.395 134.39 162.83 131.096C163.459 128.329 163.218 125.181 164.793 122.735C164.295 131.46 163.356 140.186 162.268 148.851Z" fill="#6A6969"/>
<path d="M141.119 78.1237C142.717 77.4218 143.704 75.9702 145.194 75.136C145.404 75.2811 145.312 75.4153 145.24 75.5329C143.798 77.9528 142.295 80.336 140.821 82.7357C138.995 85.525 137.98 88.634 137.113 91.8294C137.047 88.9262 137.877 86.0799 138.317 83.2245C138.513 82.0246 138.554 81.7509 139.623 81.0986C141.077 80.1467 142.043 80.0935 141.119 78.1237Z" fill="#D52B1E"/>
<path d="M167.6 117.185C167.074 115.332 167.067 113.364 166.659 111.483C166.424 109.531 165.097 107.672 165.595 105.684C165.715 105.151 165.527 104.546 165.834 104.047C166.869 107.639 168.069 111.182 169.118 114.772C169.72 116.477 168.943 116.536 167.6 117.185Z" fill="#FCA6A6"/>
<path d="M126.514 49.7346C124.381 46.4989 122.834 42.8295 120.915 39.4393C120.388 38.4783 119.107 38.8311 118.203 38.6253C122.196 36.7401 122.212 40.4499 123.655 43.0702C124.552 45.3064 125.832 47.4396 126.514 49.7346Z" fill="#FCA6A6"/>
<path d="M192.105 50.2804C192.824 48.4466 194.14 46.8811 195.086 45.1465C194.9 43.9319 194.393 42.8552 194.048 41.7141C195.176 42.4932 196.791 44.0716 195.753 45.4956C194.479 47.0244 193.546 48.9353 192.105 50.2804Z" fill="#FCA6A6"/>
<path d="M152.957 83.6103C153.501 81.8665 154.932 80.2312 155.93 78.7116C155.919 78.0722 154.986 77.7433 155.649 77.1865C156.07 77.6422 156.7 77.9656 156.988 78.4985C155.662 80.1742 154.471 82.0834 152.957 83.6103Z" fill="#FCA6A6"/>
<path d="M142.651 39.478C141.888 38.0815 147.735 38.7246 146.243 39.8823C145.042 39.8051 143.877 39.241 142.651 39.478Z" fill="white"/>
<path d="M157.371 75.1157C157.522 74.2154 157.694 71.5841 158.582 71.2644C158.233 72.5304 158.819 74.502 157.371 75.1157Z" fill="#FCA6A6"/>
<path d="M162.798 58.1265C162.512 59.4568 162.466 60.4931 162.227 61.7812C161.34 61.467 162.007 58.2459 162.798 58.1265Z" fill="white"/>
<path d="M161.322 59.3704C160.6 60.5335 161.032 61.4871 160.905 62.6833C160.146 62.45 160.04 59.1223 161.322 59.3704Z" fill="white"/>
<path d="M133.035 47.4343C132.846 47.065 133.568 43.9909 134.036 44.9831C133.77 45.4701 133.65 47.5813 133.035 47.4343Z" fill="white"/>
<path d="M145.648 37.7748C146.223 37.7674 148.053 38.0467 147.54 38.9471C147.037 38.7248 145.392 38.5355 145.648 37.7748Z" fill="white"/>
<path d="M133.074 44.2866C132.923 44.9849 132.916 45.6592 132.339 46.1939C132.258 45.4203 132.434 44.5806 133.074 44.2866Z" fill="white"/>
<path d="M141.882 64.7707C141.25 64.6255 140.391 64.6384 139.741 64.3205C137.858 63.3962 137.025 59.5045 139.585 58.9477C141.472 58.5913 143.107 57.6799 144.653 56.5903C145.821 55.2728 147.717 53.8194 149.053 55.824C150.549 58.2587 149.261 61.4099 147.043 62.9111C145.507 64.0247 143.796 64.6237 141.882 64.7707Z" fill="black"/>
<path d="M149.063 47.8862C149.561 48.3474 149.398 48.8564 149.363 49.3433C149.712 49.4224 149.808 49.1706 150.017 48.9722C151.087 48.522 150.254 50.3282 149.76 50.5359C149.424 50.7398 149.018 50.4807 148.681 50.3797C147.39 49.9387 145.92 50.6094 145.412 51.6255C145.287 51.8552 145.106 52.2024 144.795 52.1326C143.972 51.0503 145.598 49.5436 146.645 49.2533C147.634 49.0218 148.538 48.8785 149.063 47.8862Z" fill="black"/>
<path d="M148.542 46.6847C147.353 47.7559 146.46 46.0489 144.261 49.0862C143.226 49.3747 144.163 47.6714 144.522 47.3884C145.45 46.3852 146.837 45.6042 148.204 46.1573C148.456 46.2418 148.57 46.4035 148.542 46.6847Z" fill="black"/>
<path d="M161.214 48.5955C161.831 49.0843 162.851 49.257 162.241 50.172C161.794 49.8799 161.39 49.4665 160.736 49.4977C160.488 50.0949 159.394 51.9856 159.477 50.172C159.885 47.4507 163.543 45.8136 161.214 48.5955Z" fill="black"/>
<path d="M137.289 51.0723C137.53 51.087 138.232 51.1752 138.516 51.3976C138.899 51.5629 138.75 52.1417 138.322 52.0829C136.971 51.8753 135.628 51.8238 134.805 53.1358C133.73 53.5033 134.92 50.8151 137.289 51.0723Z" fill="black"/>
<path d="M139.983 56.7795C139.707 56.5388 139.707 56.2264 139.777 55.9508C140.071 55.3206 140.22 53.1376 140.893 53.0476C141.403 53.5805 140.644 55.157 140.602 55.8975C140.516 56.254 140.396 56.6362 139.983 56.7795Z" fill="black"/>
<path d="M144.234 65.5334C144.843 64.9179 145.793 65.0685 146.511 64.5779C148.032 64.5687 145.533 66.1453 144.234 65.5334Z" fill="black"/>
<path d="M145.887 51.9048C145.909 51.4289 147.353 50.4054 147.237 51.291C146.835 51.4987 146.357 52.1951 145.887 51.9048Z" fill="black"/>
<path d="M138.984 54.8963C138.62 55.385 137.74 55.3979 137.203 55.1462C137.791 54.7089 138.414 54.0143 138.984 54.8963Z" fill="black"/>
<path d="M136.203 54.0399C135.707 54.457 135.42 54.2861 134.919 54.0197C134.766 53.9572 134.634 53.9645 134.614 54.1097C134.61 54.4368 134.928 54.6977 135.145 54.9733C135.343 55.2048 135.268 55.4639 134.939 55.4492C134.823 55.451 134.665 55.4308 134.595 55.5245C134.463 55.9692 135.361 56.3165 135.733 56.3128C135.927 56.3165 136.095 56.2228 136.19 56.0445C136.383 55.5576 136.649 54.9696 137.157 54.7896C137.373 54.6903 137.555 54.5433 137.774 54.4496C138.16 54.2934 138.588 54.3706 138.998 54.4698C139.321 54.5635 139.645 54.4276 139.588 54.0491C139.363 52.7628 136.984 53.2736 136.227 54.0178L136.203 54.0399Z" fill="black"/>
<path d="M117.198 37.0747C116.904 37.0269 116.706 37.0545 116.592 36.9681C115.605 36.1688 114.471 36.1064 113.293 36.1376C113.02 35.8491 113.433 35.636 113.677 35.5662C115.045 35.0994 116.729 35.6176 117.198 37.0747Z" fill="black"/>
<path d="M139.332 59.646C145.57 58.72 145.794 54.5912 147.99 55.611C147.037 57.3841 140.833 62.3526 139.332 59.646Z" fill="white"/>
<path d="M148.99 58.6023C148.944 60.5592 147.018 62.7678 144.891 63.3374C144.699 61.1509 146.89 58.9165 148.99 58.6023Z" fill="#EF6261"/>
<path d="M148.577 37.2013C147.695 37.1719 146.992 36.6115 146.086 36.5894C144.675 35.9665 148.497 35.9022 148.577 37.2013Z" fill="white"/>
<path d="M230.385 20.2949C208.493 13.3989 194.095 22.498 177.499 35.6579C177.085 35.2904 179.386 33.532 179.68 33.1277C188.075 25.675 197.979 19.0803 209.27 17.3329C214.724 16.4601 225.995 17.0132 230.385 20.2949Z" fill="black"/>
<path d="M198.799 2.93264C191.245 4.15456 184.549 8.15288 178.283 12.3754C170.717 17.2336 164.714 23.865 159.977 31.4538C162.959 22 172.554 14.6263 180.997 9.34356C185.345 6.78948 193.891 1.979 198.799 2.93264Z" fill="black"/>
<path d="M189.581 59.3669C189.554 59.128 189.71 59.0894 189.842 59.038C193.716 57.4173 197.782 56.3369 201.868 55.3998C210.363 53.5458 222.696 52.526 229.862 58.0641C216.897 52.232 202.662 56.0062 189.581 59.3669Z" fill="black"/>
<path d="M144.84 29.7083C144.103 21.9725 145.86 14.1872 148.684 7.0119C149.437 5.42801 151.492 -0.308558 153.461 0.0129984C147.523 8.70788 146.54 19.6022 145.02 29.723C144.96 29.7193 144.901 29.7138 144.84 29.7083Z" fill="black"/>
<path d="M223.99 45.0365C219.838 45.0714 215.444 41.1521 214.277 37.3283C214.784 36.371 216.172 36.0807 217.028 35.4376C217.544 35.1473 217.783 35.2263 218.153 35.6856C220.183 38.2103 223.025 41.8522 226.686 40.5366C228.422 40.4998 226.695 43.188 226.642 44.0994C226.247 45.053 224.865 44.974 223.99 45.0365Z" fill="black"/>
<path d="M89.4843 37.7307C95.4762 38.4786 110.848 43.9524 112.636 49.9554C107.475 45.2478 100.768 41.8815 93.9824 39.6711C93.3227 39.3238 89.227 38.2783 89.4843 37.7307Z" fill="black"/>
<path d="M212.225 67.7622C211.862 68.3778 210.291 71.4739 209.51 70.8326C206.759 68.6497 204.133 66.1342 200.572 65.4103C200.155 65.2449 200.041 64.7451 200.278 64.3758C201.059 63.514 201.34 61.6141 202.689 61.603C206.516 62.033 210.155 64.6036 212.225 67.7622Z" fill="black"/>
<path d="M69.0006 33.2159C69.3699 32.0105 69.1329 29.1514 70.8858 29.3113C74.0297 29.2175 77.2986 29.6108 80.0437 31.2553C80.5454 31.5879 81.194 31.8561 80.8228 32.5581C80.516 33.4125 80.2275 34.2742 79.9262 35.1305C79.6542 35.9041 79.5237 35.9537 78.7851 35.6358C76.0197 34.4709 73.0485 33.5668 70.0185 33.7267C69.5904 33.7726 68.9785 33.8241 69.0006 33.2159Z" fill="black"/>
<path d="M157.032 15.7786C157.92 16.5429 158.646 17.5039 159.577 18.2444C159.912 18.5348 159.917 18.8104 159.645 19.1724C157.541 21.0944 155.456 23.6944 155.913 26.7317C155.933 27.2499 155.345 27.2701 154.985 27.1029C153.932 26.4175 151.702 26.3513 151.68 24.8024C151.902 21.1862 154.01 17.7465 157.032 15.7786Z" fill="black"/>
<path d="M97.0234 11.6772C97.2641 10.8908 96.8783 9.08275 97.8834 8.80345C99.3129 8.79978 100.77 8.58847 102.189 8.71158C102.92 9.1048 102.069 11.341 102.192 12.1642C102.031 13.9263 102.519 15.591 103.06 17.2411C103.089 17.581 102.933 17.8824 102.528 17.9118C101.516 17.9871 100.592 18.3656 99.6767 18.768C98.6551 19.2145 98.5375 19.1649 98.1259 18.1359C97.2917 16.0523 97.1833 13.919 97.0234 11.6772Z" fill="black"/>
<path d="M114.188 99.7047C114.353 98.7621 114.094 97.6008 115.18 97.2168C115.854 97.1818 117.94 95.5355 118.068 96.6582C118.105 99.1498 118.934 101.423 119.963 103.644C120.134 103.977 120.293 104.431 119.863 104.642C118.963 104.861 116.396 107.385 115.994 106.101C114.902 104.14 114.259 101.954 114.188 99.7047Z" fill="black"/>
<path d="M181.821 25.3682C180.498 25.5336 174.113 24.1408 175.124 22.2096C175.48 21.6289 176.031 17.6325 176.921 18.4814C179.771 21.052 184.996 19.5655 184.015 21.5481C183.714 22.7112 183.493 23.8964 183.223 25.065C183.047 25.6769 182.282 25.3351 181.821 25.3682Z" fill="black"/>
<path d="M135.892 14.5785C135.421 15.2841 133.586 18.3306 132.678 17.1362C131.066 15.6883 129.023 14.2606 126.745 14.516C125.999 14.5711 126.021 13.6358 126.416 13.2077C127.195 12.3055 127.546 10.3946 128.977 10.4736C131.632 10.7547 134.888 11.8627 135.892 14.5785Z" fill="black"/>
<path d="M118.025 76.2587C117.413 78.5556 116.325 80.6558 114.989 82.6145C114.55 83.7262 111.996 80.7752 111.302 80.4316C110.548 79.9024 111.178 79.1619 111.57 78.6052C112.56 77.1775 113.444 75.6891 113.988 74.0262C114.231 73.4878 114.423 73.418 114.925 73.7414C115.842 74.5572 117.683 75.0497 118.025 76.2587Z" fill="black"/>
<path d="M173.191 35.2739C174.075 37.1794 174.341 39.2667 174.597 41.3302C174.683 42.1663 174.619 42.271 173.781 42.4786C168.539 44.0294 171.966 41.7106 169.333 36.5491C168.348 35.1306 172.416 35.3823 173.191 35.2739Z" fill="black"/>
<path d="M96.4221 48.6028C97.192 49.1889 102.703 52.6158 101.756 53.4206C101.166 53.8965 100.088 56.1713 99.2885 55.5374C97.8186 54.1887 96.0436 53.2148 94.603 51.8257C93.699 50.9584 95.248 50.2289 95.6522 49.5068C95.9039 49.1834 95.9866 48.7498 96.4221 48.6028Z" fill="black"/>
<path d="M94.9844 61.4046C94.6555 62.2921 94.323 66.7057 92.9008 66.1618C91.8773 65.7447 89.2626 65.9155 89.7569 64.26C91.666 59.9291 88.9612 58.7549 94.1447 60.4619C94.6739 60.5777 95.0708 60.6328 94.9844 61.4046Z" fill="black"/>
<path d="M191.55 72.7822C189.705 72.343 187.131 71.6136 186.578 69.5556C186.817 68.7563 187.782 68.2804 188.311 67.6391C189.103 66.5716 190.602 69.302 193.107 69.4858C193.834 69.563 193.7 70.3475 193.38 70.7885C192.813 71.4096 192.475 72.7087 191.55 72.7822Z" fill="black"/>
<path d="M113.755 23.6833C113.244 24.1831 110.604 24.0655 109.849 23.9515C109.702 22.7866 109.753 21.5757 109.707 20.3979C109.72 19.5912 109.815 19.4994 110.633 19.5104C114.303 19.5324 113.555 19.108 113.755 23.6833Z" fill="black"/>
<path d="M132.65 34.5813C129.793 25.3058 117.96 14.6393 109.379 10.8872C117.886 17.8971 127.36 24.3319 132.323 34.6328C132.362 34.8018 132.434 34.9396 132.623 34.9782C132.722 34.8496 132.687 34.7265 132.65 34.5813Z" fill="black"/>
<path d="M219.583 38.8036C221.422 40.5474 223.635 42.2893 226.33 41.6646C226.218 42.4547 225.946 43.1253 225.715 43.8126C221.557 45.1521 217.588 41.7013 215.629 38.3112C217.65 36.6115 217.341 37.2491 219.157 38.3461C219.155 38.3443 219.535 38.7393 219.583 38.8036Z" fill="#D52B1E"/>
<path d="M219.158 38.3443C218.454 38.4527 218.009 37.6791 217.432 37.3778C216.774 37.6369 216.337 38.2377 215.632 38.3094C215.444 38.0816 215.29 37.8408 215.369 37.4807C216.005 37.0324 216.697 36.6318 217.419 36.2239C218.024 36.9625 218.592 37.6534 219.158 38.3443Z" fill="#FCA6A6"/>
<path d="M201.246 64.6623C201.671 63.9769 202.156 62.2883 203.111 62.4739C206.415 62.9755 209.017 65.2981 211.146 67.7235C210.806 68.453 210.399 69.1126 209.891 69.6896C208.379 69.052 207.284 67.6702 205.889 66.7938C204.504 65.717 202.903 65.1823 201.246 64.6623Z" fill="#3DB97E"/>
<path d="M78.5243 34.5316C75.8085 33.4659 72.9991 32.8007 70.1032 32.685C70.0646 31.9169 70.2282 31.0294 70.5663 30.2632C72.9311 29.9637 75.3014 30.706 77.4623 31.6248C79.0112 32.2679 79.2666 32.9404 78.5243 34.5316Z" fill="#0479CE"/>
<path d="M78.5238 34.5317C78.5624 33.8904 78.5992 33.2492 78.6414 32.5344C77.1898 31.4154 75.04 31.2077 73.4102 30.3386C75.6941 30.3478 77.9799 30.9781 79.9166 32.2036C79.8376 33.0709 79.3838 33.8647 79.121 34.6603C78.8527 34.7853 78.6929 34.6401 78.5238 34.5317Z" fill="#78A2D3"/>
<path d="M154.563 25.9084C153.872 25.7596 153.269 25.4197 152.641 25.054C152.687 22.0773 154.213 19.1943 156.472 17.3054C157.124 17.6839 158.021 18.5714 157.394 19.3064C156.079 21.3478 155.057 23.5289 154.563 25.9084Z" fill="#0479CE"/>
<path d="M154.562 25.9085C154.822 23.2589 156.192 20.9124 157.502 18.6781C157.163 18.226 156.817 17.7648 156.472 17.3055C156.6 17.1915 156.731 17.0776 156.885 16.9417C157.616 17.4947 158.114 18.1599 158.805 18.7718C156.688 20.7581 155.016 22.941 154.873 25.9397C154.748 26.0592 154.656 25.9691 154.562 25.9085Z" fill="#78A2D3"/>
<path d="M101.352 17.2007C100.612 17.4708 99.873 17.7427 99.0958 18.0257C97.9878 15.7013 97.8683 12.8881 98.1366 10.3616C98.9157 10.1944 100.922 10.0584 100.821 11.2271C100.915 12.9194 101.089 14.6025 101.462 16.2599C101.536 16.5851 101.486 16.8975 101.352 17.2007Z" fill="#D52B1E"/>
<path d="M101.352 17.2006C100.939 15.0508 100.656 12.9359 100.518 10.7401C99.7721 10.4718 98.9158 10.6243 98.1367 10.3634C98.1459 10.165 98.1569 9.96836 98.168 9.73684C99.2723 9.59903 100.338 9.51819 101.477 9.57147C101.146 12.1494 101.227 14.5675 102.032 17.0463C101.795 17.0996 101.575 17.1492 101.352 17.2006Z" fill="#FCA6A6"/>
<path d="M116.549 105.013C115.355 102.882 114.84 100.625 115.23 98.1869C115.763 97.8948 116.273 97.6926 116.81 97.5493C117.163 97.948 116.986 98.4497 117.071 98.8999C117.271 99.9693 117.503 101.035 117.852 102.062C118.116 102.841 118.069 103.494 117.429 104.059C117.106 104.346 117.001 104.84 116.549 105.013Z" fill="#78A2D3"/>
<path d="M116.551 105.013C116.744 104.421 117.176 103.962 117.607 103.532C118.385 102.893 116.365 99.1975 116.812 97.5474C116.913 97.5033 117.014 97.4592 117.168 97.3931C117.462 99.7432 118.159 101.81 119.02 104.008C118.278 104.429 117.525 104.855 116.731 105.303C116.663 105.197 116.608 105.105 116.551 105.013Z" fill="#BBD0E9"/>
<path d="M183.001 21.9598C182.683 22.6654 182.922 24.501 181.901 24.4532C180.065 24.4514 178.231 24.0306 176.629 23.1119C176.653 22.4246 176.921 20.6092 177.86 20.8297C179.562 21.2597 181.318 21.4471 183.001 21.9598Z" fill="#FFCE24"/>
<path d="M183.004 21.9596C181.1 21.9963 179.299 21.1144 177.418 20.9563C177.15 21.6932 176.89 22.4024 176.631 23.1117C176.363 23.0602 176.133 22.9445 175.957 22.7368C176.086 21.8696 176.574 20.3114 176.927 19.6499C178.822 20.7505 180.964 21.0372 183.094 21.4433C183.059 21.6417 183.031 21.7997 183.004 21.9596Z" fill="#FADB90"/>
<path d="M128.553 11.5046C130.558 11.1647 134.393 12.8037 134.942 14.4666C134.53 15.152 133.963 15.8208 133.268 16.4253C131.557 15.0491 129.76 13.6857 127.473 13.5166C127.555 12.9433 127.636 12.7908 128.553 11.5046Z" fill="#3DB97E"/>
<path d="M114.685 81.2784C114.609 81.396 114.536 81.5118 114.435 81.6698C113.527 81.1131 112.742 80.4828 111.969 79.7717C112.796 78.333 113.663 77.0486 114.392 75.5786C116.996 75.913 115.245 79.7515 114.685 81.2784Z" fill="#D52B1E"/>
<path d="M114.685 81.2785C114.909 79.7019 115.491 78.1915 115.605 76.5764C115.135 76.2861 114.937 75.7348 114.395 75.5787C114.453 75.2939 114.481 74.998 114.734 74.7261C115.624 75.0936 116.366 75.6834 117.099 76.3173C116.563 78.0941 115.87 79.8453 114.685 81.2785Z" fill="#FCA6A6"/>
<path d="M173.502 40.1781C173.567 40.6099 173.629 41.0398 173.697 41.5047C173.045 41.8355 172.361 41.9163 171.636 42.0302C171.257 40.2901 171.165 38.5703 170.469 36.9074C172.733 35.5991 173.058 38.6971 173.502 40.1781Z" fill="#D52B1E"/>
<path d="M173.503 40.1781C173.066 39.1124 172.656 38.0522 172.204 36.9901C171.632 36.7898 171.048 36.9148 170.471 36.9056C170.405 36.7549 170.339 36.6042 170.262 36.4278C171.037 36.2514 171.813 36.1504 172.658 36.2055C173.093 37.5009 173.444 38.8074 173.503 40.1781Z" fill="#FCA6A6"/>
<path d="M100.643 53.4372C100.325 53.8194 100.099 54.1998 99.7062 54.5268C98.385 53.7165 97.1833 52.7335 95.921 51.8349C95.7189 51.6861 95.4561 51.5667 95.4102 51.2672C95.5351 51.1459 95.7097 51.0816 95.8089 50.9291L95.7721 50.9419C96.6119 50.3154 96.7662 50.2951 97.6059 50.9474C98.6404 51.7504 99.7723 52.4358 100.643 53.4372Z" fill="#FFCE24"/>
<path d="M100.642 53.4373C99.3066 52.5021 98.0664 51.3757 96.6699 50.5433C96.341 50.6885 96.0562 50.8153 95.7695 50.9402C95.8908 50.468 96.3042 50.2052 96.5284 49.8157C97.4159 50.2438 100.108 52.344 100.843 53.1764C100.78 53.2628 100.71 53.3491 100.642 53.4373Z" fill="#FADB90"/>
<path d="M95.805 50.9291C95.6727 51.0412 95.5385 51.1551 95.4062 51.2672C95.4614 51.0632 95.5532 50.9015 95.805 50.9291Z" fill="#EF6261"/>
<path d="M91.4883 61.3292C91.5085 61.1326 91.5305 60.936 91.5563 60.6787C92.3997 60.9102 93.1843 61.127 93.9891 61.3475C93.9927 62.4849 93.4286 63.569 93.2063 64.6862C93.0961 65.0684 93.0446 65.2944 92.4787 65.0905C91.7327 63.9071 92.8113 62.2681 91.4883 61.3292Z" fill="#FCA6A6"/>
<path d="M91.4866 61.3291C93.1164 61.4798 92.2491 63.9475 92.477 65.0904C91.8614 65.0665 91.2881 64.8864 90.7148 64.6365C90.8251 63.4789 91.2955 62.4665 91.4866 61.3291Z" fill="#D52B1E"/>
<path d="M188.504 68.758C188.623 68.6386 188.743 68.5173 188.866 68.3923C190.031 69.2376 191.111 69.8256 192.46 70.3584C192.344 70.8748 191.887 71.3176 191.617 71.7659C191.26 71.856 190.968 71.7163 190.676 71.5858C190.628 70.1563 188.717 70.1251 188.504 68.758Z" fill="#78A2D3"/>
<path d="M188.501 68.7581C189.133 69.6217 190.034 70.149 190.873 70.7958C190.8 71.088 190.737 71.336 190.675 71.5841C189.435 71.3195 188.382 70.7352 187.496 69.7797C187.788 69.3516 188.159 69.0686 188.501 68.7581Z" fill="#0479CE"/>
<path d="M112.926 23.0547C112.179 23.176 111.484 23.13 110.771 23.1025C110.538 22.2389 110.609 21.3808 110.604 20.4841C111.286 20.2893 111.94 20.44 112.62 20.3977C112.974 21.2944 112.809 22.1102 112.926 23.0547Z" fill="#78A2D3"/>
</svg>
