<svg width="300" height="200" viewBox="0 0 300 200" fill="none" xmlns="http://www.w3.org/2000/svg">
<path d="M142.205 109.99C127.358 114.89 110.815 115.371 95.7696 111.078C84.2994 106.82 88.38 90.298 100.708 91.6693C97.5553 83.3701 105.805 74.2973 114.343 75.8601C115.926 69.8774 119.243 65.6725 126.005 66.0158C132.047 43.916 154.324 34.861 169.382 54.9028C177.748 53.6656 184.932 61.6452 185.293 69.609C193.753 68.9835 201.162 76.9986 200.89 85.2703C206.093 85.7557 210.596 89.562 211.298 94.7968C212.123 99.8068 209.558 103.509 205.489 106.202C200.45 110.869 193.824 113.321 187.231 114.846C172.292 117.974 155.964 116.899 142.205 109.99Z" fill="#78A2D3"/>
<path d="M92.4579 95.523C94.7093 93.1039 98.7149 91.7108 101.777 93.1789C103.604 95.0041 108.311 96.0597 110.084 93.7156C104.644 93.6406 101.268 86.2648 103.226 81.6436C103.214 81.5923 103.234 81.5627 103.285 81.5528C103.326 81.4758 103.378 81.4088 103.441 81.3515L103.439 81.3535C105.852 78.0188 110.24 76.0101 114.339 76.9592C114.536 77.8195 113.936 78.5417 114.682 79.2264C115.759 76.8487 115.436 73.9698 116.977 71.7085C118.828 68.5336 122.022 66.6552 125.69 67.1564C125.592 68.0088 125.41 68.9046 125.704 69.757C126.239 70.0096 126.261 69.2736 126.377 68.946C126.774 67.1268 127.271 65.3331 127.896 63.5809C129.309 59.6286 131.253 55.9683 133.984 52.756C145.322 39.0403 162.917 44.4528 170.689 58.7979C170.843 59.0662 170.952 59.5793 171.364 59.4135C171.682 59.2853 171.459 58.8413 171.413 58.5493C171.297 57.5291 170.591 56.8938 170.172 55.9683C176.437 54.8969 182.094 60.8184 183.777 66.4342C184.235 68.0403 184.377 69.6505 184.048 71.2981C183.916 71.9532 183.931 71.9571 184.107 72.6261C184.685 72.1091 184.829 71.381 185.2 70.7298C189.381 70.0175 193.734 72.4623 196.254 75.6569L196.246 75.647C199.642 81.4897 198.902 88.9326 191.806 91.6516C194.454 92.3442 196.779 90.6926 198.72 89.1358C198.752 89.0549 198.809 89.0056 198.892 88.9839C199.699 88.2005 200.165 87.3106 200.755 86.3161C202.908 86.4818 204.999 87.2119 206.651 88.7333L206.647 88.7293C214.253 101.472 192.775 109.223 183.369 110.977C171.992 113.051 159.973 112.938 149.065 108.751C145.531 107.062 145.705 108.104 147.115 104.764C140.58 107.477 133.8 109.655 126.62 110.243C116.829 111.269 88.0774 111.391 92.2606 95.744L92.2566 95.748C92.3355 95.6789 92.4164 95.6177 92.4579 95.523Z" fill="white"/>
<path d="M92.2682 95.7401C90.8041 100.146 93.8349 104.923 97.8326 106.802C105.642 110.121 114.216 110.515 122.582 110.316C131.081 109.793 139.712 108.151 147.316 104.15C148.088 104.6 146.442 106.474 146.233 107.141C159.276 113.438 174.821 113.083 188.596 109.489C193.635 107.698 198.925 106.015 203.055 102.402C207.528 98.8222 209.484 94.0333 206.654 88.7234C211.952 92.5159 211.57 101.269 205.905 104.566C200.399 109.724 193.282 112.623 185.948 114.085C171.875 116.788 156.61 115.837 143.605 109.515C143.873 109.144 144.363 109.006 144.509 108.463C140.029 109.168 135.7 111.328 131.038 111.802C126.002 112.69 120.881 112.927 115.775 112.915C109.157 112.755 102.42 112.127 96.0883 110.111C90.22 108.274 87.7318 100.152 92.2682 95.7401Z" fill="#AFC0D4"/>
<path d="M103.225 81.6455C103.342 82.1664 103.101 82.638 102.996 83.1215C102.734 84.2718 102.925 85.4321 103.131 86.5667C103.975 89.8224 106.524 93.9938 110.402 93.3229C110.538 93.3229 110.68 93.5833 110.591 93.684C108.721 96.0084 104.946 95.594 102.673 94.0135C102.766 94.0234 102.86 94.0332 102.955 94.0431C103.142 93.6248 102.572 92.8 102.381 92.3659C100.23 89.1022 100.777 84.5639 103.225 81.6455Z" fill="#AFC0D4"/>
<path d="M198.709 89.1476C197.488 91.1188 193.378 92.9302 191.18 91.6536C191.284 91.3241 191.533 91.2629 191.77 91.2175C195.594 90.4401 197.658 86.5213 198.09 82.9399C198.167 81.5054 197.77 79.9821 197.33 78.6206C197.01 77.6301 196.188 76.7066 196.253 75.6431C199.315 78.8179 201.253 84.3093 198.605 88.3051C198.421 88.6287 198.007 89.0805 198.709 89.1476Z" fill="#AFC0D4"/>
<path d="M181.057 12.3428C180.794 13.4676 182.41 20.3481 180.822 19.8232C179.393 19.322 177.493 19.0616 177.1 17.3271C176.396 15.0205 175.788 12.7355 175.141 10.3953C172.225 9.0693 168.744 8.77529 166.086 6.99152C164.482 4.55857 168.847 3.29178 170.646 3.16747C172.582 3.20299 174.344 4.23497 176.213 4.67302C177.761 3.60354 180.001 -0.703943 181.883 0.0991485C182.58 0.50168 184.279 0.584554 183.979 1.68954C183.415 3.34308 182.554 4.85258 181.911 6.48047C183.105 7.09216 184.273 7.27172 185.54 7.74923C186.724 6.72514 187.949 4.95913 189.727 5.63396C190.516 5.96349 192.219 6.16081 191.554 7.38616C190.372 9.43039 189.127 11.4411 187.921 13.4754C187.649 14.3239 186.945 14.3022 186.24 13.9786C184.496 13.4478 182.841 12.7631 181.057 12.3428Z" fill="black"/>
<path d="M179.43 18.2762C176.989 18.4064 177.096 10.0282 175.271 8.64697C175.178 8.70025 175.071 8.7259 175.03 8.79102C174.58 9.43428 173.722 8.7042 173.13 8.62527C171.281 8.00766 169.436 7.38807 167.587 6.77046C167.319 6.68167 167.036 6.61655 166.906 6.32255C168.274 5.71678 169.866 4.52694 171.395 5.09127C173.771 5.75032 185.565 10.6873 186.615 8.84035C187.619 8.12408 189.061 6.06406 190.251 7.53409C189.154 9.35338 188.211 11.3226 186.938 13.0117C186.206 12.9485 183.26 12.0409 181.482 11.3285C181.094 10.9201 180.953 9.56254 180.15 10.2019C178.966 10.0124 180.184 17.3922 179.43 18.2762Z" fill="#D52B1E"/>
<path d="M190.253 7.53419C189.9 7.40791 189.548 7.28163 189.175 7.14745C185.126 10.125 186.466 10.2612 181.45 8.64511C177.772 7.58747 174.252 6.49037 170.647 5.09927C169.376 5.19596 168.214 6.26346 166.906 6.32463C166.014 4.97101 171.062 3.73579 172.005 4.40668C174.639 5.27883 177.279 6.12731 179.917 6.98565C181.251 7.18889 185.369 9.3377 186.176 8.52671C187.986 6.92448 187.98 5.7741 190.531 7.033C190.424 7.23032 190.338 7.38226 190.253 7.53419Z" fill="#FCA6A6"/>
<path d="M180.488 6.0622C179.46 5.8195 178.468 5.47419 177.438 5.06574C178.304 3.78711 179.476 2.65449 180.583 1.5791C183.454 1.65211 181.382 4.83488 180.488 6.0622Z" fill="#D52B1E"/>
<path d="M179.433 18.2762C179.624 17.6763 178.679 7.85967 180.155 10.2019C179.914 13.0196 180.352 15.7623 180.536 18.5722C180.078 18.6195 179.746 18.4794 179.433 18.2762Z" fill="#FCA6A6"/>
<path d="M180.488 6.06219C180.911 4.81711 181.619 3.70225 182.016 2.45124C181.556 2.10396 181.11 1.77641 180.583 1.57909C180.749 1.35809 180.916 1.1371 181.08 0.920044C181.806 0.975293 182.377 1.27719 182.955 1.6008C182.617 3.08859 181.658 4.45799 181.086 5.89645C180.948 6.18453 180.932 6.17664 180.488 6.06219Z" fill="#FCA6A6"/>
<path d="M114.932 20.0206C118.679 20.7289 120.737 24.7326 119.23 28.1896C117.12 33.5863 106.899 32.6411 102.175 31.984C91.9955 34.4663 87.8833 22.5936 98.2051 19.4424C96.6542 6.77844 117.742 7.3408 114.932 20.0206Z" fill="#78A2D3"/>
<path d="M93.3477 25.4587C93.541 22.8837 95.9977 21.0289 98.3339 20.4961C98.8549 20.6204 98.9811 21.1354 99.4172 21.3998C99.3481 18.2052 98.4089 16.0229 101.094 13.4025C104.863 8.96871 114.51 11.3267 114.21 18.0711C114.149 19.3576 113.543 20.577 113.445 21.8557C114.08 22.0549 114.173 21.4886 114.451 21.2124C118.885 21.1335 118.924 26.1 115.625 28.233C112.379 30.4075 108.853 30.739 105.134 29.7662C104.512 29.6044 104.398 29.1802 104.441 28.5389C100.52 30.1904 95.4708 29.4544 93.3477 25.4587Z" fill="white"/>
<path d="M93.3485 25.4587C96.1149 29.2019 100.677 30.0267 104.862 28.1344C104.975 28.6454 104.793 28.8053 104.536 29.2275C109.217 31.3467 118.688 29.3203 117.644 22.7969C119.055 24.2886 118.957 26.7196 117.974 28.4363C115.555 32.3669 106.782 31.5737 102.739 31.0448C100.101 30.9284 97.3797 31.9328 95.1322 29.9241C93.7826 28.8625 92.9104 27.1872 93.3485 25.4587Z" fill="#AFC0D4"/>
<path d="M200.404 38.4363C204.514 42.0591 197.795 45.1235 194.591 45.3543C192.002 46.191 175.737 45.3899 182.249 40.4569C178.876 37.6135 180.856 31.4729 185.396 31.54C186.126 24.3595 197.184 25.1784 196.789 32.3905C200.372 32.3391 202.614 35.2654 200.404 38.4363Z" fill="#78A2D3"/>
<path d="M181.621 36.2618C182.215 31.317 186.376 33.4994 186.477 31.8064C187.166 24.5864 198.208 27.1772 195.285 34.2788C195.834 34.8944 196.166 33.8072 196.552 33.4737C197.377 33.4007 198.348 33.4717 199.066 34.0183C200.007 36.3566 198.249 38.2094 196.369 39.559C197.444 39.5689 198.302 39.8748 199.173 39.6538C200.069 40.3957 198.056 41.5401 197.464 41.7966C193.567 43.4245 188.62 44.0698 185.216 41.0902C185.587 40.2694 186.588 40.7923 187.132 40.1648C184.979 39.4959 182.424 38.5863 181.621 36.2618Z" fill="white"/>
<path d="M181.62 36.2618C183.115 38.3811 185.254 39.7386 187.904 39.934C187.265 40.891 186.235 40.67 185.262 41.0311C188.332 43.241 192.411 43.3436 195.906 42.14C196.936 41.7473 199.392 40.9975 199.169 39.6518C199.309 39.6853 199.394 39.561 199.424 39.4446C199.52 39.269 199.674 39.2631 199.822 39.344C200.685 39.8136 200.815 40.7311 200.456 41.4533C199.144 43.4462 196.448 44.0047 194.242 44.3796C192.579 44.9183 180.712 44.7032 181.977 41.9486C183.246 40.6325 184.151 41.6664 184.512 40.9798C183.102 39.6952 181.144 38.4955 181.62 36.2618Z" fill="#AFC0D4"/>
<path d="M198.883 39.7603C198.268 39.9379 196.395 40.0642 195.949 39.5393C197.92 38.3416 199.485 36.4454 199.065 34.0164C201.642 35.3423 199.501 37.9706 198.311 39.4703C198.441 39.7564 198.698 39.6834 198.883 39.7603Z" fill="#AFC0D4"/>
<path d="M199.424 39.4446C199.347 39.5156 199.27 39.5866 199.195 39.6597C199.27 39.5886 199.347 39.5156 199.424 39.4446Z" fill="white"/>
<path d="M157.144 195.148C157.478 196.225 157.054 198.066 158.425 198.441C160.329 198.699 163.182 199.181 163.691 196.714C166.272 196.993 168.384 198.658 170.911 198.936C173.405 198.918 178.544 200.323 177.658 196.13C182.37 196.781 184.069 198.833 178.141 199.723C169.185 200.457 160.238 199.281 151.314 199.694C142.227 199.865 133.168 200.179 124.087 199.867C115.5 199.491 117.459 196.146 124.646 195.548C123.965 197.758 123.849 199.084 126.56 199.268C129.239 199.467 134.293 200.069 136.278 198.015C136.982 197.105 138.148 197.805 139.103 197.608C140.814 197.486 140.82 196.61 141.027 195.163C145.83 194.374 150.972 195.106 155.885 194.871C156.32 194.873 156.775 194.822 157.144 195.148Z" fill="#CCCCCC"/>
<path d="M124.643 195.548C127.194 191.132 131.382 186.872 131.19 181.489C131.439 170.763 131.38 159.991 131.893 149.279C131.2 148.758 130.762 148.527 130.687 147.558C130.219 144.47 129.91 141.362 129.531 138.262C128.187 129.894 127.737 121.492 128.976 113.071C127.877 112.222 127.861 111.968 128.108 110.908C128.416 109.008 128.941 107.157 129.424 105.296C130.379 100.88 132.092 96.5549 132.544 92.0619C132.406 89.0291 132.475 85.9568 132.202 82.9359C132.007 82.8214 131.932 82.9181 131.869 83.0306C130.253 85.6687 129.039 88.664 126.932 90.9451C123.278 94.8046 116.912 92.7348 115.967 87.5788C114.526 80.9548 113.088 74.3288 111.654 67.7028C111.263 66.3906 111.906 65.3586 112.956 64.5832C112.545 59.5515 109.432 54.7566 110.081 49.6796C110.925 47.1796 112.232 42.288 115.669 43.0161C116.9 41.998 118.461 42.7478 119.724 43.3318C120.71 43.8192 121.123 44.6164 121.083 45.7155C122.159 47.2052 124.675 47.2368 124.645 49.4764C124.495 51.3983 124.773 54.439 122.567 55.2144C122.532 57.085 123.493 59.443 121.168 60.3289C121.151 61.1636 121.409 61.945 121.529 62.7737C122.315 63.1052 123.037 63.5058 123.122 64.4411C123.499 66.065 123.508 67.8488 124.14 69.3701C125.914 66.1676 127.664 63.0066 129.446 59.7883C127.731 59.6008 126.36 58.8096 125.399 57.4165C125.596 57.1777 125.797 57.2804 125.949 57.3238C126.516 57.4875 127.074 57.4205 127.636 57.3297C128.37 57.2133 128.696 56.9114 128.83 56.1931C129.471 53.4622 127.26 51.3904 126.715 48.8785C126.164 46.4021 126.581 43.8824 127.585 41.5796C128.893 38.5606 128.716 35.2082 129.061 31.9978C129.623 26.7234 129.008 19.9613 134.13 16.747C134.766 16.2063 135.76 16.0563 136.109 15.2394C141.253 5.26098 158.112 7.67815 165.032 14.537C170.255 20.2079 170.855 28.6295 175.838 34.4584C181.597 41.7848 171.611 49.7053 181.106 55.1335C179.666 55.9248 178.02 55.4828 176.54 55.096C176.169 55.7511 178.277 56.3687 178.75 56.5937C176.854 59.1667 172.6 59.6719 169.587 60.0369C170.338 63.8195 171.749 67.537 172.752 71.2901C173.434 73.5869 174.074 75.8975 175.005 78.1114C175.267 78.9914 175.508 79.9011 176.286 80.4713C180.68 84.4532 184.94 88.5792 189.512 92.3677C190.285 93.2813 190.244 93.97 191.59 94.408C193.782 95.2861 195.96 96.1977 198.285 96.7167C200.295 97.2139 205.595 98.53 202.265 101.143C203.727 102.593 208.847 107.09 204.196 107.678C204.757 109.138 203.681 110.357 202.178 110.332C201.738 111.206 200.619 111.575 199.755 111.007C198.34 112.777 196.406 111.79 196.089 109.767C195.797 108.508 194.962 107.684 193.958 106.985C190.933 105.732 186.854 104.998 185.848 101.356C185.769 101.075 185.717 100.799 185.356 100.691C184.163 101.547 183.728 101.575 182.586 100.606C178.04 97.3205 173.649 93.8437 169.472 90.0986C169.194 90.2169 169.281 90.4301 169.296 90.5938C169.752 95.3019 170.208 100.01 170.865 104.694C171.171 106.912 171.497 109.128 171.828 111.34C171.919 112.092 171.909 112.092 171.126 112.51C171.905 120.65 170.255 128.665 169.37 136.735C168.89 140.328 168.338 143.908 168.034 147.526C168.008 149.038 168.15 149.403 166.479 149.744C166.297 161.339 166.506 172.9 166.12 184.492C166.076 186.59 169.754 189.043 171.039 190.852C172.296 192.217 173.789 193.253 175.417 194.116C176.353 194.579 177.369 195.017 177.647 196.13C179.837 201.115 169.729 199.41 167.495 198.192C166.605 197.729 165.626 197.448 164.644 197.214C163.27 196.852 163.539 198.982 161.554 198.839C159.934 198.83 157.317 199.317 157.146 197.062C156.711 193.979 155.745 190.988 157.12 187.961C157.515 186.988 157.465 185.952 157.215 184.895C155.362 174.401 152.157 164.007 152.001 153.296C152.045 152.173 151.926 152.092 150.845 152.085C149.782 152.317 145.669 151.388 145.94 152.963C145.245 162.838 142.057 172.369 141.354 182.286C140.881 187.136 142.828 190.345 141.269 195.416C140.918 197.545 140.48 197.95 138.272 197.89C136.555 197.561 135.794 199.354 134.174 199.433C131.332 199.781 121.139 200.947 124.643 195.548Z" fill="black"/>
<path d="M168.17 137.384C167.788 140.82 167.192 144.237 167.052 147.692C167.239 148.979 165.54 148.813 164.699 149.133C154.593 151.163 143.756 151.773 133.778 148.805C133.045 148.405 131.781 148.337 131.654 147.343C131.497 146.033 131.289 144.728 131.126 143.418C129.955 134.284 129.075 124.744 130.51 115.669C133.529 115.867 136.556 115.78 139.581 115.853C145.917 115.405 145.775 107.24 147.324 102.65C151.455 103.333 155.631 103.528 159.81 103.544C159.656 107.036 157.916 113.201 162.72 114.156C165.199 114.614 167.898 113.846 170.25 114.138C169.526 121.847 169.009 129.653 168.17 137.384Z" fill="black"/>
<path d="M133.407 93.8792C134.001 89.5402 132.857 84.984 133.186 80.7239C134.85 77.2116 137.677 73.9342 138.194 70.041C137.113 70.5837 137.024 72.0399 136.345 72.9633C134.648 76.0928 132.853 79.1671 131.124 82.2788C128.859 85.6431 127.626 90.8484 123.2 91.8587C120.147 92.5947 117.422 90.0118 116.906 87.1269C115.643 80.862 114.001 74.6327 112.945 68.35C115.485 68.3599 117.953 68.2395 120.315 67.1681C120.386 67.2194 120.443 67.2075 120.489 67.1345L120.475 67.1444C121.839 66.6452 121.951 66.7063 122.253 68.0738C123.263 72.0774 123.861 76.3651 125.134 80.2188C125.311 80.4477 125.171 80.8916 125.672 80.9469C125.945 79.6466 125.497 78.216 125.447 76.8801C125.469 74.7984 124.135 72.5904 124.713 70.5994C126.495 67.1917 128.309 63.7998 130.177 60.4395C130.722 59.4391 130.712 59.4331 131.924 58.8787C132.188 59.3029 131.365 59.7646 131.15 60.1869C131.56 60.99 132.851 60.915 133.618 61.2544C136.626 62.1877 139.759 62.2528 142.798 61.4655C142.881 61.5346 142.969 61.5721 142.969 61.6135C143.104 62.8961 144.591 62.4344 145.483 62.9178C145.099 63.6913 143.883 64.3306 144.57 65.2837C145.983 67.3042 146.999 69.5556 148.289 71.6472C149.844 74.5952 151.458 78.0897 151.034 81.4935C148.814 90.5721 147.003 99.7534 144.753 108.816C143.877 112.78 141.614 116.058 137.103 114.621C134.384 114.016 131.545 113.538 129.175 111.977C130.548 106.016 133.005 100.071 133.407 93.8792Z" fill="#D52B1E"/>
<path d="M153.639 24.1424C156.685 24.5805 157.721 27.1279 158.564 29.7167C159.122 32.0332 163.406 35.8849 162.927 31.0545C166.244 28.5624 171.228 32.643 168.546 36.2342C167.449 37.7417 165.93 38.3692 164.075 38.0554C163.315 38.0673 162.114 37.2109 161.514 37.7121C161.668 38.2251 162.266 38.3021 162.587 38.7184C160.608 41.6131 159.002 44.784 158.878 48.3555C158.637 51.7869 157.913 57.9137 153.246 57.3059C154.221 59.0285 156.482 59.4587 158.321 59.0206C158.209 59.3995 157.917 59.435 157.678 59.51C157.433 59.587 157.173 59.6185 157.135 59.9402C157.153 60.6998 158.465 60.6328 159.01 60.9347C159.515 62.1482 159.75 63.4169 160.04 64.7409C157.165 66.209 153.651 66.3077 150.572 65.4414C149.207 64.8929 149.314 62.5369 148.656 61.3194C148.291 60.5775 148.712 59.8395 148.568 59.0996C148.317 58.0045 148.057 56.8955 147.861 55.7925C150.334 53.0024 153.927 51.8935 156.549 49.3796C152.037 50.6267 147.875 52.4696 143.009 52.0197C138.341 52.0553 135.908 47.3452 135.057 43.3476C134.562 41.1612 134.244 38.9434 133.946 36.7235C133.938 34.9832 132.873 31.7195 133.713 30.3323C135.365 28.2881 136.336 25.94 136.857 23.365C141.896 27.3173 150.081 28.5249 156.314 26.5695C155.436 25.7091 154.365 25.1468 153.576 24.2174C153.599 24.1937 153.619 24.1681 153.639 24.1424Z" fill="#EED3CA"/>
<path d="M187.793 93.5714C186.295 95.1677 184.823 96.7423 183.993 98.8122C183.833 99.1753 183.718 99.5758 183.377 99.9034C178.756 96.6022 174.291 93.1097 170.042 89.3389C169.557 88.9245 169.348 88.4865 169.48 87.7742C169.837 85.4517 169.981 83.074 170.137 80.7298C170.313 77.48 170.624 74.1354 169.904 70.9408C168.985 68.2119 168.882 64.7844 166.81 62.6534C166.08 63.0184 166.279 64.1471 166.5 64.7844C167.505 68.4408 168.843 72.1168 168.87 75.9448C169.148 82.6537 167.797 89.329 168.531 96.0201C168.961 100.742 169.172 105.486 169.809 110.184C169.904 110.788 169.953 111.376 169.539 111.895C166.388 112.976 160.555 115.01 160.441 109.761C160.372 105.044 161.457 100.385 161.802 95.6847C162.24 91.1404 162.331 86.5725 162.564 82.0164C162.495 80.4871 163.558 79.2716 163.71 77.77C164.196 74.8458 164.081 71.8702 164.046 68.9163C164.004 67.1819 164.026 65.4474 164.018 63.713C164.079 62.8093 163.992 62.0121 163.331 61.3235C165.22 61.2426 166.64 60.0172 168.483 60.2007C169.888 64.5141 170.978 68.9518 172.307 73.2948C173.584 77.1051 174.456 81.5862 177.852 84.0922C180.928 86.8803 183.815 89.8677 186.98 92.5592C187.318 92.8394 187.702 93.0939 187.793 93.5714Z" fill="#D52B1E"/>
<path d="M171.59 192.876C170.082 194.413 168.237 193.768 166.564 192.967C163.774 191.75 160.931 190.597 158.208 189.242C158.089 187.985 158.971 186.759 158.691 185.499C157.971 181.945 157.187 178.401 156.554 174.831C155.311 167.933 153.196 161.064 153.243 154.012C157.106 152.27 161.199 150.976 165.311 150.068C165.639 161.497 165.295 173.073 165.126 184.555C165.045 187.107 170.074 190.578 171.59 192.876Z" fill="#EED3CA"/>
<path d="M132.7 152.588C136.605 151.552 140.652 151.157 144.689 151.69C145.051 156.601 143.346 161.335 142.474 166.114C141.649 170.354 141.043 174.636 140.487 178.92C140.12 181.71 139.63 184.532 140.23 187.322C138.328 189.364 135.934 191.497 134.94 192.058C132.769 191.56 130.81 191.385 128.562 191.535C133.213 183.48 132.061 182.661 132.355 173.772C132.505 166.708 132.535 159.654 132.7 152.588Z" fill="#EED3CA"/>
<path d="M150.162 66.4123C153.73 67.2667 156.621 67.1444 160.243 65.8894C162.073 72.9653 161.891 80.2444 161.356 87.4821C161.151 92.4763 160.77 97.4763 159.979 102.411C157.86 102.818 148.998 102.246 147.445 101.598C148.909 93.672 151.577 85.9174 152.589 77.9101C152.783 73.9085 151.072 70.2364 150.162 66.4123Z" fill="white"/>
<path d="M119.714 60.2698C120.776 60.9999 120.597 64.1136 121.037 65.4297C119.259 67.1957 116.832 66.6708 114.687 66.1953C113.556 65.996 113.7 61.355 113.088 60.1869C112.218 56.9667 110.756 53.6359 110.975 50.2696C111.206 48.6516 114.073 41.1633 115.906 44.8236C115.281 46.2601 113.325 47.9511 113.779 49.504C114.766 48.8864 115.034 47.3532 115.75 46.414C116.307 45.088 118.179 44.2178 118.925 45.9029C117.903 47.1697 115.918 48.9239 116.078 50.6465C117.503 49.8572 119.318 44.4171 121.177 47.4105C120.141 48.7345 118.604 50.1276 118.621 51.9172C119.849 51.0767 120.308 49.4211 121.374 48.3714C122.305 46.9704 123.736 48.6832 123.698 49.7921C123.521 50.7945 123.519 54.4587 122.094 54.1963C121.514 53.113 122.795 51.8738 122.933 50.7373C122.773 49.798 121.149 52.7144 120.835 52.9532C120.472 53.411 120.273 54.1805 121.149 53.7602C121.63 55.1 121.753 56.4931 121.822 57.896C121.905 59.1983 120.591 59.4568 119.714 60.2698Z" fill="#EED3CA"/>
<path d="M190.171 99.9231C191.477 102.147 194.843 102.259 196.891 101.02C197.791 100.369 200.816 101.079 201.58 101.857C202.237 102.451 206.639 106.271 204.532 106.644C202.87 106.202 200.889 102.038 198.951 102.984C200.342 104.357 201.974 105.527 202.949 107.297C203.204 107.828 203.74 108.775 203.006 109.142C202.592 109.385 202.361 109.387 202.063 109.097C200.554 107.621 199.786 105.251 197.831 104.298C197.349 104.671 198.065 105.083 198.296 105.363C199.561 106.62 200.477 108.295 201.321 109.84C200.185 112.094 197.764 105.626 196.211 105.48C196.059 105.693 196.254 105.819 196.343 105.955C197.112 107.181 198.067 108.301 198.657 109.629C199.188 110.488 198.261 111.628 197.493 110.72C196.795 109.373 196.611 107.78 195.277 106.855C192.744 104.647 187.99 104.949 186.793 101.263C186.856 100.639 186.508 100.266 186.066 99.9685C186.422 98.3031 187.878 95.4163 189.151 93.8595C192.606 96.5943 197.187 97.1725 201.234 98.6484C201.917 98.7945 202.884 99.6627 201.899 100.15C200.633 100.476 199.283 99.8679 197.992 99.783C197.428 99.6686 196.951 99.9271 196.491 100.215C194.395 101.583 192.296 100.381 190.171 99.9231Z" fill="#EED3CA"/>
<path d="M125.305 197.959C124.991 195.905 126.652 194.605 127.544 192.983C129.537 191.815 132.27 192.494 134.429 193.032C136.396 193.358 138.687 189.767 140.348 188.752C141.315 191.183 140.259 193.928 139.78 196.385C138.949 196.756 138.564 196.779 137.836 196.487C141.175 191.045 137.248 195.337 135.879 197.139C133.779 199.206 128.016 198.65 125.305 197.959Z" fill="#D52B1E"/>
<path d="M172.496 193.575C173.557 194.169 174.615 194.796 175.682 195.384C176.519 195.844 176.803 196.355 176.72 197.3C176.302 198.784 173.332 197.952 172.125 198.06C169.196 198.2 166.795 196.16 163.91 195.818C162.862 195.505 162.754 196.706 162.387 197.425C161.639 197.703 158.283 198.228 158.397 196.933C158.431 194.672 157.028 192.399 157.839 190.201C160.69 191.296 163.405 192.713 166.217 193.912C168.533 195.079 170.361 195.225 172.496 193.575Z" fill="#D52B1E"/>
<path d="M150.984 73.21C151.255 73.4862 151.186 73.867 151.241 74.1926C151.365 74.9207 151.6 75.6429 151.482 76.6098C150.205 72.1957 147.577 68.6361 145.355 64.6621C145.661 64.007 147.624 62.5409 146.326 62.0436C145.659 61.8049 142.772 61.8108 144.238 60.6565C145.075 60.0843 145.771 59.2318 146.687 58.8333C148.263 63.5216 149.212 68.5236 150.984 73.21Z" fill="#D52B1E"/>
<path d="M168.407 87.636C168.374 82.8233 168.954 77.9436 168.374 73.1409C167.866 70.8796 167.399 68.6065 166.675 66.3985C166.594 65.5026 165.183 63.2611 166.515 62.9651C167.87 66.9431 169.372 71.0552 169.368 75.2976C169.352 79.4156 168.983 83.5949 168.407 87.636Z" fill="#FCA6A6"/>
<path d="M187.79 93.5714C184.548 90.8227 181.553 87.8037 178.451 84.9149C177.364 83.6521 175.031 82.5392 175.031 80.7476C179.704 84.5973 183.855 89.0922 188.561 92.9577C188.388 93.2892 188.151 93.5003 187.79 93.5714Z" fill="#FCA6A6"/>
<path d="M169.543 111.896C169.419 108.072 168.801 104.236 168.592 100.412C168.497 98.822 168.401 97.2198 168.217 95.6353C168.324 94.3804 167.98 92.9814 168.359 91.8014C169.146 98.3307 169.867 104.854 170.832 111.362C170.455 111.693 170.005 111.808 169.543 111.896Z" fill="#FCA6A6"/>
<path d="M168.171 137.384C167.967 137.171 168.023 136.915 168.058 136.668C168.277 135.192 168.273 133.667 168.405 132.171C168.735 129.72 168.719 127.22 169.133 124.783C169.301 122.425 169.441 120.099 169.682 117.749C169.966 116.593 169.293 115.054 170.25 114.138C170.907 121.946 169.153 129.673 168.171 137.384Z" fill="#6A6969"/>
<path d="M130.511 115.669C130.037 121.731 130.333 127.937 130.006 133.963C129.114 127.931 128.978 121.806 129.629 115.744C129.954 115.561 130.235 115.626 130.511 115.669Z" fill="#6A6969"/>
<path d="M133.408 93.8792C133.963 96.7975 132.518 99.7534 132.021 102.616C131.099 105.74 130.517 109 129.172 111.977C128.834 111.589 129.03 111.105 129.111 110.657C129.704 108.283 130.302 105.91 130.91 103.54C131.737 100.318 132.575 97.0974 133.408 93.8792Z" fill="#FCA6A6"/>
<path d="M162.509 72.6693C161.741 68.8255 161.268 64.9343 160.113 61.1418C161.268 61.1813 162.842 61.864 162.635 63.2315C162.71 66.0571 162.485 68.8886 162.791 71.7123C162.83 72.0556 162.805 72.4108 162.509 72.6693Z" fill="#D52B1E"/>
<path d="M125.127 80.2148C123.363 76.1322 122.9 71.3926 121.716 67.0693C121.274 67.095 120.871 67.1167 120.469 67.1404C120.913 66.5464 121.663 66.3787 122.312 65.9407C123.535 70.5718 124.013 75.5126 125.127 80.2148Z" fill="#FCA6A6"/>
<path d="M150.985 73.2099C149.874 71.1736 149.386 68.7939 148.652 66.5819C148.402 65.035 146.817 61.8246 147.364 60.5302C148.804 64.6837 149.935 68.9478 150.985 73.2099Z" fill="#FCA6A6"/>
<path d="M142.656 18.4834C143.049 17.7138 149.523 19.9929 147.414 20.4566C146.119 19.8903 144.805 19.3871 143.446 18.9925C143.165 18.9037 142.798 18.9175 142.656 18.4834Z" fill="white"/>
<path d="M173.074 40.9857C172.938 39.3578 172.492 38.2903 172.141 36.7058C173.202 36.9663 174.4 40.5437 173.074 40.9857Z" fill="white"/>
<path d="M149.242 17.1061C148.097 16.9601 147.227 16.3622 146.055 16.4135C145.862 16.4056 145.672 16.3721 145.605 16.1491C145.556 15.9873 145.751 15.8255 146.069 15.8117C147.265 15.7367 148.833 15.6775 149.242 17.1061Z" fill="white"/>
<path d="M119.933 45.6168C119.187 44.3422 118.121 43.8863 116.698 44.1014C115.374 42.4558 121.292 44.2257 119.933 45.6168Z" fill="#EED3CA"/>
<path d="M134.82 22.6902C134.549 23.8563 133.967 24.6634 133.512 25.7309C133.476 25.8019 133.33 25.8966 133.296 25.8769C132.576 25.3343 133.94 22.7612 134.82 22.6902Z" fill="white"/>
<path d="M145.828 17.3409C146.316 17.4416 149.196 18.1302 148.261 18.8919C147.908 18.8465 144.814 17.7829 145.828 17.3409Z" fill="white"/>
<path d="M174.067 37.1104C174.651 37.7201 175.176 39.4762 174.521 40.0188C174.089 39.1684 173.941 38.0555 174.067 37.1104Z" fill="white"/>
<path d="M133.575 22.3153C132.953 22.8481 133.021 23.9255 132.348 24.2747C131.941 23.8071 132.786 21.4846 133.575 22.3153Z" fill="white"/>
<path d="M163.092 64.2201C163.011 63.4664 163.419 62.2173 162.352 62.0693C162.344 65.6073 162.289 69.161 162.506 72.6693C162.583 73.2889 162.721 76.1382 162.762 76.9393C162.784 76.9255 162.806 76.9117 162.827 76.8979C163.185 75.1279 163.11 67.7778 163.092 64.2201ZM162.737 74.5281C162.754 74.5399 162.766 74.5557 162.774 74.5755C162.762 74.5577 162.748 74.5439 162.737 74.5281Z" fill="#FCA6A6"/>
<path d="M140.25 41.0705C143.498 40.8791 146.16 39.117 149.163 38.2666C154.037 46.0015 141.152 50.2992 140.25 41.0705Z" fill="black"/>
<path d="M152.087 31.1099C152.397 31.6209 152.026 31.9426 152.038 32.3471C152.462 33.0633 153.192 32.2563 153.762 32.0353C154.522 33.2034 152.784 33.9552 151.831 33.5921C150.039 32.9114 148.413 34.0223 146.773 34.5787C146.108 34.557 146.46 33.8013 146.712 33.4955C148.681 31.1434 150.398 32.8936 152.087 31.1099Z" fill="black"/>
<path d="M135.73 36.6427C135.063 36.5223 134.518 36.3388 134.273 35.6344C134.794 35.4726 135.138 35.6087 135.655 35.3325C135.217 34.7523 134.504 34.4051 134.627 33.4777C135.797 34.4564 136.432 34.4327 137.79 33.9315C139.094 33.6178 140.544 34.0795 141.251 35.2437C141.395 37.2583 137.999 33.1541 135.73 36.6427Z" fill="black"/>
<path d="M165.97 32.7338C167.221 34.3913 167.333 34.6498 167.185 35.5417C166.293 35.1174 166.208 33.7599 165.04 33.5606C164.563 33.8013 164.314 34.3341 163.866 34.6123C162.58 34.5452 164.987 32.1695 165.462 31.9288C167.061 30.8435 168.416 32.1892 165.97 32.7338Z" fill="black"/>
<path d="M152.595 29.5589C148.13 28.4697 147.187 31.0842 145.934 30.5179C146.352 28.4934 151.407 27.5817 152.674 29.3833C152.648 29.4444 152.621 29.5017 152.595 29.5589Z" fill="black"/>
<path d="M140.463 31.6643C138.585 31.5755 137.63 30.7547 135.722 31.9346C135.432 32.0392 135.021 32.5661 134.739 32.2484C134.632 32.0057 134.753 31.6841 134.95 31.5025C136.083 29.9654 139.842 29.5589 140.463 31.6643Z" fill="black"/>
<path d="M140.555 38.9C140.377 37.576 141.468 36.3861 141.841 35.143C141.91 34.705 142.763 34.3458 142.761 34.9556C142.234 36.1809 141.877 38.3514 140.555 38.9Z" fill="black"/>
<path d="M146.716 47.7459C146.333 47.8051 145.54 47.1895 146.306 47.1086C146.939 47.2447 147.533 46.639 148.097 46.8146C148.354 47.4815 147.231 47.6966 146.716 47.7459Z" fill="black"/>
<path d="M149.39 41.5165C149.599 43.683 147.077 45.8832 144.867 45.4135C145.601 43.5923 147.468 41.9585 149.39 41.5165Z" fill="#EF6261"/>
<path d="M141.324 41.6329C144.029 41.1435 146.624 40.6206 148.816 38.9493C150.466 40.2339 142.299 43.1227 141.324 41.6329Z" fill="white"/>
</svg>
