<svg width="300" height="200" viewBox="0 0 300 200" fill="none" xmlns="http://www.w3.org/2000/svg">
<path d="M175.982 22.1628C174.762 21.9579 173.462 21.6432 172.235 21.4066C171.179 21.0472 172.593 19.8105 172.822 19.2238C175.351 15.8938 178.774 13.3739 182.238 11.0961C184.672 9.49623 187.293 8.11987 189.237 5.89797C193.901 0.657019 190.064 -0.551714 195.653 1.79498C197.927 2.57721 190.951 10.2375 189.656 10.8502C185.477 14.4448 179.668 16.5512 176.973 21.591C176.707 22.1218 176.589 22.1795 175.982 22.1628Z" fill="black"/>
<path d="M86.1008 113.475C84.717 113.971 84.3129 110.469 83.7616 109.521C83.4524 108.61 83.9683 108.022 84.9107 108.264C87.5014 108.862 90.1349 108.102 92.625 107.4C98.0615 106.096 101.101 97.9721 102.373 99.4937C104.243 100.926 105.47 100.937 103.459 103.191C99.3596 108.754 93.0943 112.915 86.1046 113.483C86.1008 113.479 86.1008 113.477 86.1008 113.475Z" fill="black"/>
<path d="M114.348 142.974C114.22 148.659 109.204 152.192 104.987 155.159C103.646 156.127 102.661 157.364 102.047 158.893C101.719 159.47 101.905 160.666 101.02 160.664C100.182 160.467 96.8914 161.191 97.3961 159.779C98.21 153.663 102.974 152.309 107.055 148.793C108.649 147.374 109.653 145.559 110.346 143.563C110.545 142.989 110.582 142.915 111.134 142.915C112.171 142.915 113.206 142.952 114.348 142.974Z" fill="black"/>
<path d="M171.302 143.673C166.192 143.675 171.567 142.353 170.676 136.562C169.972 132.424 170.056 128.176 172.077 124.395C172.816 122.579 175.165 123.996 176.616 123.937C177.413 124.08 177.18 124.86 176.789 125.233C174.331 127.932 174.338 131.53 174.852 134.938C175.176 137.521 175.381 140.226 174.247 142.654C173.723 143.962 172.531 143.634 171.302 143.673Z" fill="black"/>
<path d="M205.626 91.4795C205.423 86.7954 211.102 84.2476 213.911 81.2155C215.684 79.4722 216.632 77.0771 217.375 74.749C217.455 74.4101 217.671 74.0171 218.075 74.073C219.025 74.2536 220.083 74.1344 220.941 74.6187C221.837 75.1271 220.807 76.3005 220.655 77.0194C219.392 80.7573 216.54 83.4393 213.683 86.0094C212.294 87.2945 211.156 88.7789 210.251 90.4365C209.554 91.7141 206.926 91.418 205.626 91.4795Z" fill="black"/>
<path d="M72.9707 137.668C71.1492 137.659 70.6314 137.644 71.084 135.633C71.775 131.599 72.2145 128.218 76.3995 126.443C79.9288 124.596 79.9716 119.604 81.1711 120.107C82.6424 120.893 84.9072 119.75 84.2125 122.154C82.7542 128.885 76.9843 127.859 75.5725 132.843C74.3396 136.016 76.6919 138.069 72.9725 137.707C72.9707 137.696 72.9707 137.683 72.9707 137.668Z" fill="black"/>
<path d="M217.883 36.2986C219.125 35.3283 220.786 36.3433 222.111 36.6953C222.762 39.461 223.869 42.0182 225.389 44.4096C227.193 47.4864 230.117 49.8386 231.3 53.2786C231.611 54.6214 229.045 54.208 228.225 54.5209C227.264 54.6475 227.16 54.5972 226.819 53.7163C225.863 51.1759 224.027 49.1626 222.2 47.2144C219.505 44.2736 218.173 40.2209 217.883 36.2986Z" fill="black"/>
<path d="M62.7305 103.349C69.3367 106.152 66.312 104.915 63.2781 108.905C61.5572 111.285 60.5552 114.19 60.1697 117.079C59.8512 118.282 57.6181 117.52 56.6683 117.61C55.4502 117.451 56.2678 115.684 56.2771 114.879C57.2773 110.603 59.1267 106.01 62.7305 103.349Z" fill="black"/>
<path d="M98.0813 114.475C103.199 121.499 107.993 114.431 111.593 121.81C112.113 122.812 109.548 124.305 108.956 125.119C107.829 126.147 107.472 124.384 107.174 123.575C105.991 121.005 102.624 122.737 100.536 121.543C98.7574 120.97 97.6008 119.465 96.3157 118.204C95.9637 117.845 95.9898 117.614 96.2077 117.256C96.8819 116.375 97.0868 115.038 98.0813 114.475Z" fill="black"/>
<path d="M105.481 30.851C104.749 30.4134 103.939 29.4784 102.57 27.5042C103.822 26.1558 105.995 25.6306 107.821 25.625C111.035 25.7107 113.926 27.7091 117.189 26.8971C118.437 26.6885 118.299 26.7052 119.169 27.4875C120.051 28.4019 122.418 29.4766 120.098 30.3575C114.125 33.3374 109.908 26.9175 105.481 30.851Z" fill="black"/>
<path d="M94.9141 39.2861C92.4371 36.3751 88.8425 38.4089 85.7732 38.8447C84.6427 39.2935 77.9025 38.1425 79.7705 36.3322C80.4633 35.8201 81.158 35.3079 81.8285 34.7659C83.0261 33.9073 86.0265 35.6226 88.3583 34.5853C91.5822 33.5702 95.2438 33.5497 97.9127 35.8461C98.4323 36.1125 95.3574 39.2153 94.9141 39.2861Z" fill="black"/>
<path d="M171.609 2.45606C171.691 3.18614 171.726 4.29244 170.643 4.00748C168.21 3.55863 165.495 3.41522 163.208 4.48241C157.352 7.42322 159.319 9.25029 156.646 5.65389C156.233 5.28327 156.598 4.71894 156.903 4.40977C160.153 1.01824 164.817 -0.605816 169.484 0.206214C171.326 0.358936 171.615 0.561943 171.6 2.45792C171.602 2.45606 171.605 2.45606 171.609 2.45606Z" fill="black"/>
<path d="M86.0531 75.766C85.6601 74.1792 91.8249 74.8367 93.9592 72.1324C94.8439 71.5532 97.3489 68.0071 98.146 68.5509C98.9786 69.2288 100.759 70.2271 100.012 71.4768C97.3415 74.995 93.7339 77.7402 89.2994 78.4629C88.3086 78.4834 87.4053 76.9599 86.4927 76.4756C86.1276 76.1888 86.0587 76.1311 86.0531 75.766Z" fill="black"/>
<path d="M93.2535 61.7157C88.5377 60.9483 86.0495 56.1693 84.7607 52.0048C84.6191 51.4647 84.3155 50.5614 85.0922 50.4068C86.2022 50.1312 87.2098 49.6265 88.2006 49.0771C89.6552 47.8683 88.9084 52.0272 91.8175 55.0686C93.8848 57.974 97.1833 56.9385 96.0863 58.5532C95.278 59.3615 94.4268 61.7827 93.2535 61.7157Z" fill="black"/>
<path d="M202.07 128.87C202.812 127.213 202.637 125.415 202.687 123.661C202.89 122.689 205.259 122.748 206.116 122.348C208.334 121.476 207.209 126.559 206.766 127.563C206.242 128.818 205.417 129.794 204.171 130.392C202.557 131.021 200.674 132.355 198.953 131.396C198.161 131.01 195.187 127.896 196.785 127.404C197.643 127.354 199.64 126.14 200.089 127.123C200.577 127.874 201.035 128.814 202.07 128.87Z" fill="black"/>
<path d="M214.094 116.995C209.319 116.178 206.858 111.399 205.568 107.173C205.417 106.616 205.208 105.863 205.962 105.677C207.203 105.327 208.324 104.729 209.466 104.15C210.036 104.001 209.976 104.865 210.116 105.217C210.628 107.478 211.686 109.443 213.342 111.069C216.685 114.235 218.99 111.06 215.01 116.532C214.805 116.829 214.573 117.012 214.094 116.995Z" fill="black"/>
<path d="M80.8725 94.5711C79.6339 94.1689 78.5202 93.5226 77.3264 93.0123C76.6149 92.7646 76.7676 92.1146 77.2146 91.6806C79.7233 88.7007 79.0286 84.1786 81.9322 81.4222C82.3066 81.0907 82.6846 80.5022 83.2601 80.7257C83.953 81.2062 87.8679 81.6774 86.3984 82.9085C83.1037 85.2756 85.3703 91.0306 80.8725 94.5711Z" fill="black"/>
<path d="M121.481 20.2163C119.643 19.6613 118.298 14.9661 118.285 13.139C118.153 11.4349 118.01 9.57985 116.585 8.41396C115.898 7.9651 116.024 7.27413 116.849 7.13817C118.066 7.02829 119.664 5.67801 120.669 6.73961C123.726 9.68229 122.684 14.398 125.091 17.6685C125.538 18.1322 125.545 18.7897 124.821 18.9517C123.72 19.3615 122.593 19.855 121.481 20.2163Z" fill="black"/>
<path d="M222.129 143.125C219.408 143.181 216.615 143.485 214.102 144.586C212.811 145.018 213.439 141.375 213.191 140.591C213.238 139.285 216.145 138.974 217.183 138.603C218.155 138.281 225.908 137.248 225.487 138.844C224.348 141.997 226.283 143.733 222.129 143.125Z" fill="black"/>
<path d="M213.864 48.2835C213.878 49.3507 215.358 52.5075 214.097 52.8223C211.104 53.2488 209.421 55.9028 206.849 57.1674C206.458 57.3834 206.139 57.2773 205.971 56.875C205.819 56.0071 203.766 52.854 204.865 52.5187C207.763 51.0362 210.156 47.153 213.864 48.2835Z" fill="black"/>
<path d="M192.091 90.3899C193.421 90.5314 198.606 90.4532 198.176 91.6117C197.576 92.5354 197.265 95.4092 195.954 95.2267C194.648 95.1 193.343 95.1503 192.048 95.3571C191.376 95.4651 190.703 95.575 190.074 95.873C189.69 96.0555 189.491 95.927 189.362 95.4949C188.491 90.8872 186.209 90.7885 192.091 90.3899Z" fill="black"/>
<path d="M186.525 112.749C186.599 115.323 185.247 117.537 184.057 119.714C183.502 120.899 181.958 119.874 180.96 119.91C178.496 119.273 183.843 116.312 182.401 111.814C182.207 110.717 184.403 111.158 185.104 110.903C186.428 110.618 186.5 111.747 186.525 112.749Z" fill="black"/>
<path d="M187.427 78.6825C185.645 78.6527 184.064 78.5484 182.507 77.8593C181.607 77.403 183.213 75.3599 183.343 74.5777C183.607 74.0003 183.781 73.6074 184.513 73.8141C192.147 76.036 193.687 69.8564 192.085 77.6321C191.437 78.6751 188.508 78.6267 187.427 78.6825Z" fill="black"/>
<path d="M62.3789 88.9746C62.8836 87.818 63.2412 86.7098 63.7981 85.6389C64.7349 84.5773 68.5306 87.0395 72.2313 85.0467C73.6561 84.8474 72.371 88.2817 72.3468 89.09C71.6521 90.7327 63.2617 90.5819 62.3789 88.9746Z" fill="black"/>
<path d="M95.7437 139.946C94.7846 139.859 91.4154 140.123 91.6612 138.685C91.8456 137.963 91.2887 135.646 92.2386 135.603C94.8404 135.877 97.5093 135.895 99.9715 134.901C101.491 134.418 100.925 137.052 101.236 137.914C101.806 139.752 96.9394 139.985 95.7437 139.946Z" fill="black"/>
<path d="M194.37 121.882C193.459 121.383 192.787 120.413 192.001 119.72C191.788 119.506 191.801 119.215 191.952 118.971C193.686 116.956 196.092 115.671 198.445 114.5C199.398 113.913 200.251 116.824 200.827 117.442C200.95 117.658 200.914 117.856 200.691 117.973C199.584 118.558 198.651 119.411 197.504 119.938C196.64 120.335 195.845 120.873 195.139 121.521C194.94 121.707 194.74 121.888 194.37 121.882Z" fill="black"/>
<path d="M174.752 164.629C174.789 165.94 173.1 165.795 172.255 166.322C170.997 167.037 170.658 165.447 170.457 164.536C169.787 160.124 166.427 159.839 171.739 157.911C172.201 157.666 172.737 157.744 172.845 158.327C173.612 160.37 174.335 162.487 174.752 164.629Z" fill="black"/>
<path d="M193.429 53.4743C192.044 53.1949 185.592 50.8929 186.473 49.1255C187.095 48.5034 188.095 45.8438 189.013 46.1828C190.552 47.548 192.289 48.5332 194.239 49.1664C194.673 49.3676 195.61 49.4607 195.362 50.1368C194.835 50.8427 194.312 53.601 193.429 53.4743Z" fill="black"/>
<path d="M182.538 145.517C182.482 146.249 183.056 148.009 181.868 148.176C180.421 148.312 178.972 148.422 177.523 148.532C176.8 148.573 176.524 147.94 176.692 147.308C177.048 146.293 176.672 142.544 178.091 142.732C182.348 143.408 182.967 141.654 182.538 145.517Z" fill="black"/>
<path d="M185.891 164.922C186.243 163.231 186.303 159.021 188.141 158.524C188.929 158.55 190.618 157.537 190.73 158.82C188.832 162.337 191.069 164.803 189.186 165.266C188.1 165.412 185.861 166.926 185.891 164.922Z" fill="black"/>
<path d="M209.378 30.2438C208.761 30.3071 208.068 30.3369 207.968 29.5808C207.685 28.0014 207.413 26.4146 207.161 24.8315C207.085 23.8314 210.626 24.1778 211.449 23.9282C212.114 23.8761 212.276 24.0139 212.46 24.6695C212.831 26.016 213.222 27.3589 213.566 28.711C213.695 29.3629 213.574 29.577 212.903 29.7018C211.736 29.9197 210.56 30.1041 209.389 30.3015C209.385 30.2829 209.381 30.2643 209.378 30.2438Z" fill="black"/>
<path d="M76.4102 154.181C76.4306 153.62 76.6076 153.155 77.1793 153.067C78.3415 152.825 79.5018 152.577 80.6677 152.348C82.0608 151.81 82.0571 155.595 82.4687 156.515C82.9846 157.731 78.917 158.107 78.0622 158.327C77.2408 158.349 76.6877 154.926 76.4102 154.181Z" fill="black"/>
<path d="M241.637 83.8174C240.432 83.2772 239.423 82.2715 238.305 81.5563C237.713 81.1298 237.657 80.8709 238.08 80.3197C238.771 79.72 240.3 76.6953 241.157 77.1535C242.339 77.9394 243.425 78.8781 244.554 79.7386C245.07 80.0664 244.735 80.4836 244.455 80.8709C243.481 81.7873 242.906 83.3275 241.637 83.8174Z" fill="black"/>
<path d="M74.3164 74.7939C75.2253 74.6151 79.3339 72.4397 79.5592 73.4734C79.9354 74.589 81.593 76.647 79.7641 77.1816C78.2387 77.7421 76.6817 78.3046 75.0893 78.6231C74.3741 78.6976 74.3537 75.5053 74.3164 74.7939Z" fill="black"/>
<path d="M198.886 61.5667C199.828 62.1906 199.983 63.5669 200.355 64.5764C200.868 65.8652 196.085 66.5599 195.111 67.0553C193.984 67.2993 194.39 64.9135 194.114 64.1983C193.908 63.3025 194.455 63.0324 195.219 62.8313C196.454 62.4141 197.621 61.9168 198.886 61.5667Z" fill="black"/>
<path d="M99.7835 14.1187C94.7847 15.8042 95.1796 17.406 94.6953 11.5579C94.7288 10.3696 97.2878 10.1405 98.2209 9.79224C98.8486 9.66373 99.2155 9.90213 99.3216 10.5186C99.4651 11.7143 99.8022 12.9286 99.7835 14.1187Z" fill="black"/>
<path d="M194.656 3.58652C190.948 11.7236 180.423 13.7015 176.015 21.2333C175.356 21.1867 174.672 21.0042 173.992 20.8124C175.458 16.7541 180.971 13.7499 184.226 11.0401L184.221 11.0494C184.31 10.9823 190.048 6.62232 190.106 6.53479L190.067 6.53106C190.985 5.84568 191.591 4.88465 192.274 3.99813C193.159 2.85085 193.377 2.79684 194.656 3.58652Z" fill="#EF6261"/>
<path d="M184.226 11.042C183.194 12.6251 181.106 13.3924 179.707 14.6794C177.461 16.4096 175.478 18.3875 173.991 20.8143C173.693 20.8199 173.407 20.7845 173.094 20.6094C175.377 16.7951 180.363 13.1093 184.226 11.042Z" fill="#F2BFBB"/>
<path d="M194.654 3.58649C194.127 3.64795 193.697 3.32202 193.177 3.18792C192.35 3.99809 191.186 6.47888 190.065 6.53289C189.989 6.31684 190.173 6.21627 190.268 6.08031C191.317 4.71327 192.142 3.25497 192.803 1.65698C193.632 1.88048 194.309 2.28277 195.129 2.55469C195.097 2.98864 194.989 3.33878 194.654 3.58649Z" fill="#F2BFBB"/>
<path d="M103.168 101.904C99.2099 107.513 93.0303 111.868 86.0591 112.41C85.5935 111.801 84.9901 110.175 84.9062 109.346C89.5195 109.799 94.889 108.648 98.1353 105.066C99.2919 103.98 100.704 103.192 101.637 101.853C102.086 101.216 102.32 101.263 103.168 101.904Z" fill="#F2BFBB"/>
<path d="M103.169 101.904C102.798 101.935 102.502 101.732 102.193 101.54C101.146 102.764 100.101 104.206 98.5312 104.714C99.6431 103.299 100.852 101.876 102.033 100.52C102.56 100.747 102.915 101.177 103.413 101.531C103.318 101.674 103.243 101.79 103.169 101.904Z" fill="#FBEAE8"/>
<path d="M111.307 143.948C111.963 143.948 112.577 143.948 113.224 143.948C112.71 147.943 109.322 150.711 106.264 152.952C103.734 154.613 101.431 156.576 100.641 159.621C99.9779 159.737 99.3409 159.625 98.6406 159.584C99.5625 151.84 108.441 152.858 111.307 143.948Z" fill="#F2BFBB"/>
<path d="M173.085 124.408C173.992 124.451 174.798 124.626 175.675 124.799C174.129 127.477 173.014 130.422 173.623 133.593C173.982 136.437 174.562 139.499 173.303 142.205C172.885 143.308 171.595 142.526 170.691 142.552C173.722 135.528 169.131 132.396 173.085 124.408Z" fill="#0D8157"/>
<path d="M216.222 82.0405C213.807 84.689 210.894 86.909 209.231 90.1757C208.396 90.3974 207.579 90.4477 206.75 90.3974C208.542 84.5809 215.533 84.4059 218.208 75.8777C219.769 76.0341 216.731 81.2974 216.222 82.0405Z" fill="#FFCE24"/>
<path d="M216.223 82.0406C216.455 80.9212 219.437 76.4625 218.206 75.8777C218.266 75.6561 218.325 75.4345 218.387 75.211C218.959 75.1812 219.46 75.2184 219.966 75.3618C220.149 75.6226 220.007 75.8144 219.931 75.9876C218.921 78.1071 218.165 80.5785 216.223 82.0406Z" fill="#FFEBA7"/>
<path d="M74.0347 136.54C73.381 136.769 73.1966 136.763 72.2505 136.493C71.9451 134.817 72.8353 133.057 73.0979 131.388C74.4389 126.637 78.8213 128.792 81.3002 121.208C81.9334 121.323 82.5834 121.381 83.1831 121.553C83.2949 124.426 80.341 126.926 77.9645 128.17C74.9492 129.745 73.8839 133.353 74.0347 136.54Z" fill="#0D8157"/>
<path d="M229.847 53.3141C229.215 53.478 228.573 53.5599 227.902 53.6139C226.776 50.9674 225.053 48.7343 223.041 46.7042C220.738 44.2067 219.378 40.8226 218.957 37.4758C220.091 37.2262 220.885 37.6527 221.101 38.6901C221.676 41.4745 223.2 43.7411 224.878 45.9667C226.293 48.0918 229.39 50.9003 229.847 53.3141Z" fill="#EF6261"/>
<path d="M229.845 53.314C227.083 48.0116 221.676 44.1601 220.673 37.9805C220.101 37.7551 219.555 37.5279 218.955 37.4757C218.866 37.2224 218.741 36.971 218.916 36.7065C218.961 36.7512 219.009 36.7531 219.058 36.714C219.812 36.9691 220.63 37.0232 221.373 37.3901C222.466 41.765 224.733 45.7469 227.703 49.1198C228.093 49.5854 231.004 53.2675 229.845 53.314Z" fill="#F2BFBB"/>
<path d="M57.1719 115.74C57.7399 111.713 59.7029 107.919 62.4184 104.919C63.1988 104.027 64.3088 105.209 65.0631 105.643C63.616 106.718 62.4817 108.012 61.5431 109.549C61.3382 109.59 61.3605 109.802 61.2618 109.923L61.2749 109.914C59.4646 111.588 59.5633 114.684 57.1719 115.74Z" fill="#0479CE"/>
<path d="M57.1727 115.74C58.8173 114.635 59.2959 112.739 60.1769 111.071C60.4748 110.678 60.7077 109.922 61.2757 109.914C60.3091 112.088 59.6405 114.341 59.1208 116.662C58.441 116.766 57.8041 116.734 57.1783 116.613C56.9678 116.304 57.1355 116.023 57.1727 115.74Z" fill="#78A2D3"/>
<path d="M109.912 122.968C109.558 123.486 109.078 123.868 108.56 124.315C106.357 118.183 102.118 124.061 97.3516 117.988C97.5322 117.403 98.2642 116.339 98.903 117.008C101.969 120.746 108.709 117.68 109.912 122.968Z" fill="#D52B1E"/>
<path d="M109.912 122.968C106.692 117.029 103.501 121.959 98.458 116.863C98.0687 117.237 97.7223 117.604 97.3517 117.988C96.7836 117.507 97.8173 116.511 98.0668 115.928C100.538 118.737 103.334 119.176 106.9 119.01C108.616 119.049 109.752 120.454 110.506 121.849C110.841 122.352 110.225 122.67 109.912 122.968Z" fill="#EF6261"/>
<path d="M111.948 27.4967C113.851 28.0684 115.82 28.0796 117.753 27.7127C118.306 27.6959 119.647 29.0183 119.904 29.4764C115.041 32.3204 110.199 26.4816 105.602 29.5211C104.609 28.6514 104.701 28.0126 105.852 27.4743C107.839 26.5487 109.932 27.0553 111.948 27.4967Z" fill="#EF6261"/>
<path d="M111.949 27.4968C109.647 27.3739 107.232 26.6643 105.148 28.1133C105.123 28.6478 105.423 29.065 105.606 29.5195C105.127 30.0316 104.274 28.1282 103.848 27.7818C106.138 25.9994 109.439 26.411 111.949 27.4968Z" fill="#F2BFBB"/>
<path d="M94.8671 37.8892C90.5368 34.5424 84.9495 40.357 80.582 36.8649C81.3475 36.4123 82.0254 35.3191 82.9771 35.388C84.6664 35.8108 86.3817 35.9188 88.1026 35.6226C89.4008 35.604 90.6616 35.198 91.9765 35.2855C93.2728 35.3098 96.9642 36.2093 94.8671 37.8892Z" fill="#EF6261"/>
<path d="M94.866 37.8893C95.0411 37.5224 95.2161 37.1555 95.4061 36.7588C93.3406 34.807 90.5526 35.9673 88.1016 35.6208C90.8431 34.7101 94.3706 34.1923 96.6912 36.2429C96.369 36.6545 95.4136 38.286 94.866 37.8893Z" fill="#F2BFBB"/>
<path d="M158.564 6.32254C158.1 6.01337 157.953 5.50492 157.594 5.19203C160.257 1.8005 166.085 0.26211 170.426 1.47643C170.482 1.96067 170.689 2.30895 170.547 2.77084C165.228 2.19161 162.717 2.97943 158.564 6.32254Z" fill="#0D8157"/>
<path d="M93.1269 76.1347C90.5828 77.3118 89.5417 78.2039 87.4297 75.8088C92.6669 74.8906 93.8999 73.8886 97.5223 70.1208C98.3604 70.7541 98.3995 70.9962 97.6974 71.7114C96.3508 73.084 94.9838 74.4343 93.6205 75.7883L93.6298 75.7734C93.5553 75.8516 93.3802 75.928 93.1269 76.1347Z" fill="#FFCE24"/>
<path d="M93.6172 75.7885C93.6898 75.6171 93.8519 75.3266 94.0362 75.1441C95.407 73.7509 96.7964 72.436 98.1392 71.0094C97.9195 70.6947 97.7202 70.4078 97.519 70.1229C97.6475 69.9757 97.7779 69.8286 97.9362 69.6479C98.3981 70.0074 98.7687 70.3724 99.1133 70.8325C97.614 72.7359 95.8931 74.8218 93.6172 75.7885Z" fill="#FFEBA7"/>
<path d="M94.1447 59.678C93.9137 60.017 93.6828 60.3578 93.4407 60.7135C88.9689 60.0207 86.7787 55.3478 85.5625 51.4609C88.589 49.8275 87.9874 55.9811 94.1447 59.678Z" fill="#06438F"/>
<path d="M94.1438 59.6782C91.7524 58.7954 90.0892 56.3779 88.7241 54.3013C87.3924 52.4109 88.2771 51.1649 85.5635 51.4611C85.5095 50.8371 87.6867 50.4665 88.2473 50.0996C89.2698 53.6308 91.3445 57.1564 95.0266 58.341C94.8013 58.8531 94.4548 59.2554 94.1438 59.6782Z" fill="#0479CE"/>
<path d="M202.605 130.11C203.606 128.036 203.652 125.983 203.691 123.961C204.401 123.61 205.559 123.329 206.325 123.322C206.816 126.147 205.647 129.229 202.605 130.11Z" fill="#EF6261"/>
<path d="M201.591 129.96C200.265 132.066 198.086 129.772 197.445 128.228C198.004 127.872 198.613 127.833 199.237 127.734C199.891 128.693 200.571 129.323 201.591 129.96Z" fill="#EF6261"/>
<path d="M214.97 114.913C214.759 115.265 214.551 115.617 214.359 115.937C209.919 115.516 207.527 110.51 206.406 106.686C209.505 105.172 208.559 110.875 214.97 114.913Z" fill="#06438F"/>
<path d="M214.968 114.913C211.807 113.475 209.721 110.178 208.351 107.092C208.028 106.359 207.034 106.798 206.406 106.685C206.782 105.977 208.289 105.845 209.077 105.399C210.15 108.873 212.141 112.473 215.84 113.607C215.694 114.147 215.294 114.507 214.968 114.913Z" fill="#0479CE"/>
<path d="M83.9721 84.0577C83.1042 87.2891 83.216 90.8427 80.7724 93.4557C79.7667 93.2806 78.8988 92.7573 78.0234 92.2246C78.9603 90.5856 79.8747 88.9895 80.2006 87.0842C80.3571 85.5477 82.4598 81.3181 83.9721 84.0577Z" fill="#06438F"/>
<path d="M83.9743 84.0577C83.7322 83.6517 83.2591 83.5734 82.9071 83.3239C82.0988 83.4207 81.609 84.4972 80.8789 84.8846C81.2626 83.6014 82.0038 82.5603 82.9928 81.6719C83.7881 81.8246 84.4641 82.1915 85.2668 82.4485C84.8422 83.0538 84.4939 83.62 83.9743 84.0577Z" fill="#0479CE"/>
<path d="M121.743 10.3435C122.462 12.6157 122.505 15.1356 123.799 17.1917C123.971 17.4618 124.192 17.7169 124.183 18.0764C123.449 18.6761 122.397 18.8381 121.51 19.2795C118.942 16.5752 119.681 12.7423 118.633 9.45508C119.646 7.90365 121.101 9.25766 121.743 10.3435Z" fill="#06438F"/>
<path d="M121.741 10.3437C120.407 9.36402 120.342 8.31545 118.63 9.45341C118.284 8.98221 117.939 8.51101 117.574 8.0156C118.034 7.65242 118.563 7.66546 119.077 7.4699C119.863 7.21102 119.921 7.16073 120.487 7.91689C121.037 8.65069 121.511 9.43665 121.741 10.3437Z" fill="#0479CE"/>
<path d="M222.643 142.122C219.847 142.153 217.109 142.427 214.426 143.25C214.122 142.455 214.346 141.628 214.282 140.749C216.504 139.468 219.21 139.348 221.725 139.324C222.667 139.35 222.827 139.49 222.952 140.453C222.991 140.907 223.367 142.096 222.643 142.122Z" fill="#F2BFBB"/>
<path d="M222.851 142.053C222.763 141.267 222.676 140.483 222.585 139.667C221.026 139.466 219.506 139.656 217.945 139.574C220.035 139.088 222.201 138.737 224.332 139.184C224.177 140.185 224.028 141.146 223.875 142.127C223.535 142.313 223.192 142.203 222.849 142.127C222.849 142.129 222.851 142.053 222.851 142.053Z" fill="#FBEAE8"/>
<path d="M212.496 52.312C210.384 53.0179 209.03 54.8766 207.13 55.9121C206.279 56.1971 206.059 53.9212 205.676 53.3848C206.713 52.1705 208.272 51.3603 209.408 50.1869C210.457 49.9635 211.954 48.9372 212.261 50.6116C212.407 51.1591 212.813 51.6937 212.496 52.312Z" fill="#06438F"/>
<path d="M212.492 52.3122C211.813 50.1722 212.312 49.2615 209.702 50.3156C209.62 50.3361 209.505 50.2318 209.406 50.1871C210.697 49.2522 212.01 48.8368 213.116 49.0417C213.338 49.9915 213.554 50.96 213.69 51.9676C213.295 52.1781 212.911 52.2991 212.492 52.3122Z" fill="#0479CE"/>
<path d="M195.367 94.1093C193.635 94.1149 191.966 94.3197 190.275 94.6792C189.983 93.6791 189.698 92.7311 189.387 91.7235C191.041 91.2448 192.827 91.5745 194.505 91.8166C195.952 91.9917 195.93 93.0328 195.367 94.1093Z" fill="#0479CE"/>
<path d="M195.369 94.1093C195.378 93.5002 195.648 92.9564 195.522 92.3362C194.613 91.8333 193.454 91.9656 192.516 91.4795C193.933 91.4664 195.33 91.6322 196.704 91.9116C196.723 92.4461 196.485 93.1203 195.939 94.1093C195.766 94.1093 195.566 94.1093 195.369 94.1093Z" fill="#78A2D3"/>
<path d="M184.61 116.259C184.365 117.265 183.679 118.178 183.273 119.13C182.67 119.288 182.169 119.053 181.582 118.979C182.701 116.965 183.968 114.939 183.694 112.514C184.819 112.237 184.795 115.537 184.61 116.259Z" fill="#D52B1E"/>
<path d="M184.612 116.259C184.305 115.399 184.597 112.696 183.696 112.516C183.476 111.847 184.848 112.037 185.254 111.938C185.593 113.121 185.303 115.008 184.612 116.259Z" fill="#EF6261"/>
<path d="M183.254 77.284C183.543 76.3434 183.913 75.5742 184.26 74.751C186.748 75.0192 189.143 75.6972 191.62 74.7119C191.529 75.3712 191.646 77.148 190.94 77.3398C188.409 77.9675 185.792 77.9507 183.254 77.284Z" fill="#D52B1E"/>
<path d="M114.27 55.0631C114.05 55.5845 113.647 56.3333 113.275 56.499C112.902 56.6648 110.783 55.2065 109.312 55.3685C107.946 55.4411 105.492 55.2512 105.224 55.2102C104.955 55.1692 104.752 55.2195 104.641 54.7837C104.652 54.1374 105.129 52.2042 105.728 52.6959C107.276 53.9586 111.813 52.4519 114.27 55.0631Z" stroke="black" stroke-width="2"/>
<path d="M114.268 55.0631C113.294 54.8433 112.536 53.8395 111.47 53.7929C110.139 53.4502 108.019 53.9885 107.012 53.1857C109.498 53.7184 112.607 52.044 114.629 54.0574C114.847 54.2995 114.441 54.7614 114.268 55.0631Z" stroke="black" stroke-width="2"/>
<path d="M114.27 55.0631C114.05 55.5845 113.647 56.3333 113.275 56.499C112.902 56.6648 110.783 55.2065 109.312 55.3685C107.946 55.4411 105.492 55.2512 105.224 55.2102C104.955 55.1692 104.752 55.2195 104.641 54.7837C104.652 54.1374 105.129 52.2042 105.728 52.6959C107.276 53.9586 111.813 52.4519 114.27 55.0631Z" fill="#06438F"/>
<path d="M114.268 55.0631C113.294 54.8433 112.536 53.8395 111.47 53.7929C110.139 53.4502 108.019 53.9885 107.012 53.1857C109.498 53.7184 112.607 52.044 114.629 54.0574C114.847 54.2995 114.441 54.7614 114.268 55.0631Z" fill="#0479CE"/>
<path d="M64.4499 86.2498C66.9158 86.6483 69.3221 87.1195 71.76 86.3112C71.8774 87.1083 71.5887 87.9055 71.5198 88.6579C69.7057 89.5966 64.923 89.4867 63.4609 88.7231C63.7291 87.926 64.0867 87.1549 64.4499 86.2498Z" fill="#D52B1E"/>
<path d="M99.6303 138.469C97.4401 139.205 94.367 139.311 92.6499 138.693C92.7393 138.039 92.4301 137.024 92.9367 136.543C94.7172 137.525 100.124 135.493 99.6303 138.469Z" fill="#0479CE"/>
<path d="M99.6312 138.469C99.4747 138.022 99.3201 137.575 99.1544 137.104C97.1262 136.812 94.7664 137.54 92.9375 136.541C95.2898 136.718 97.6327 136.635 99.9087 135.985C100.162 136.609 100.238 137.121 100.236 138.175C100.097 138.387 99.8677 138.436 99.6312 138.469Z" fill="#78A2D3"/>
<path d="M194.521 120.798C194.061 120.336 193.441 119.811 193.07 119.262C194.482 117.839 196.149 116.755 197.983 115.986C199.468 117.621 196.667 118.483 195.901 119.718C195.57 119.943 194.685 120.655 194.521 120.798Z" fill="#F2BFBB"/>
<path d="M195.887 119.718C196.185 118.597 197.501 117.956 198.297 117.176C198.189 116.764 198.088 116.375 197.986 115.986C198.153 115.878 198.323 115.771 198.518 115.645C199.088 116.207 199.26 116.889 199.66 117.567C198.533 118.383 197.192 119.249 195.887 119.718Z" fill="#FBEAE8"/>
<path d="M172.955 164.922C172.611 165.076 172.266 165.233 171.871 165.411C171.178 163.573 170.897 161.644 169.949 159.88C170.344 159.547 170.763 159.353 171.221 159.234C172.098 161.036 172.866 162.877 172.955 164.922Z" fill="#FFCE24"/>
<path d="M172.955 164.922C172.569 162.968 171.655 161.165 171.219 159.234C171.403 159.152 171.588 159.07 171.763 158.992C172.353 159.832 173.534 163.354 173.664 164.627C173.487 164.86 173.208 164.86 172.955 164.922Z" fill="#F2BFBB"/>
<path d="M193.882 51.1014C193.698 51.5615 193.558 52.042 193.255 52.4722C191.504 52.055 188.74 50.9431 187.613 49.578C187.885 48.6132 188.641 48.2184 189.44 48.6635C190.88 49.5575 192.284 50.5092 193.882 51.1014Z" fill="#06438F"/>
<path d="M193.881 51.1016C192.119 51.0382 190.693 49.6041 189.218 48.766C188.534 48.2464 188.104 49.213 187.614 49.5781C187.536 49.5408 187.458 49.5017 187.348 49.4477C187.659 48.6692 188.303 48.0602 188.78 47.3003C190.49 48.5463 192.33 49.4328 194.308 50.1294C194.337 50.5484 194.045 50.7961 193.881 51.1016Z" fill="#0479CE"/>
<path d="M180.135 147.249C179.405 147.323 178.682 147.476 177.952 147.441C177.773 146.878 177.868 145.712 178.2 144.213C178.865 144.034 180.697 144.131 180.645 145.04C180.55 145.792 180.582 146.577 180.135 147.249Z" fill="#EF6261"/>
<path d="M180.134 147.249C180.073 146.359 180.44 145.584 180.449 144.693C179.68 144.53 178.938 144.371 178.199 144.213C178.024 143.334 180.901 144.135 181.533 144.021C181.641 145.098 181.486 146.062 181.537 147.143C181.062 147.342 180.596 147.275 180.134 147.249Z" fill="#F2BFBB"/>
<path d="M187.953 160.118C187.882 159.347 188.758 159.431 189.294 159.303C189.322 159.401 189.385 159.496 189.361 159.552C188.726 161.04 188.802 162.657 188.94 164.223C188.638 164.486 188.314 164.508 187.998 164.557C187.15 163.145 188.376 161.605 187.953 160.118Z" fill="#F2BFBB"/>
<path d="M187.954 160.118C188.918 160.15 187.618 163.564 188 164.557C187.712 164.711 187.412 164.804 187.099 164.778C186.965 163.286 187.397 161.536 187.954 160.118Z" fill="#EF6261"/>
<path d="M211.627 28.955C210.785 29.2456 209.912 29.2772 209.006 29.3406C208.513 28.2995 208.565 27.1727 208.336 26.0701C208.798 25.6343 210.532 25.286 210.893 25.8317C211.24 26.8486 211.925 27.7891 211.627 28.955Z" fill="#EF6261"/>
<path d="M211.627 28.955C210.554 25.8856 211.742 25.3772 208.336 26.07C208.174 25.8056 208.136 25.5225 208.192 25.2319C208.965 24.9973 210.854 24.7998 211.589 24.8836C211.99 26.1352 212.303 27.424 212.599 28.7296C212.271 28.9699 211.953 28.9792 211.627 28.955Z" fill="#F2BFBB"/>
<path d="M77.5859 154.306C78.0273 153.734 79.7706 153.738 80.5249 153.44C80.8992 154.047 81.0743 154.691 81.3649 156.474C79.2398 157.632 80.4672 155.174 79.0238 154.971C78.5097 154.857 77.8709 154.943 77.5859 154.306Z" fill="#78A2D3"/>
<path d="M77.5859 154.306C79.7874 155.147 79.9773 154.004 80.2921 156.759C79.7631 157.045 79.1672 157.083 78.6159 157.23C78.1856 156.626 77.7517 155.38 77.5859 154.306Z" fill="#0479CE"/>
<path d="M243.193 80.9493C242.713 81.549 242.231 82.1468 241.737 82.7633C240.757 82.3331 240.078 81.6272 239.223 81.0405C239.42 80.0925 240.206 79.6418 240.884 79.1092C241.418 78.8354 242.862 80.4799 243.193 80.9493Z" fill="#EF6261"/>
<path d="M243.194 80.9493C242.371 80.5265 241.84 79.7461 241.078 79.165C240.385 79.7387 239.761 80.3458 239.223 81.0424C238.998 80.9921 238.884 80.8226 239.055 80.6122C239.767 79.8243 240.264 78.7553 241.1 78.137C242.009 78.7311 242.806 79.5115 243.704 80.1912C243.596 80.5395 243.428 80.7649 243.194 80.9493Z" fill="#F2BFBB"/>
<path d="M239.053 80.6104C239.066 80.6755 239.04 80.7146 238.977 80.7314C239.003 80.6923 239.027 80.6513 239.053 80.6104Z" fill="#EF6261"/>
<path d="M75.4487 77.5688C75.3835 76.7848 75.1675 76.1031 75.242 75.3525C76.3539 74.8459 77.5365 74.5815 78.6987 74.1438C79.1885 74.7584 79.3822 75.4531 79.5741 76.159C78.4733 76.8593 77.1063 77.0492 75.892 77.5428C75.7877 77.5763 75.6648 77.5577 75.4487 77.5688Z" fill="#0479CE"/>
<path d="M195.287 66.1539C195.138 65.286 195 64.5745 194.996 63.8388C196.225 63.3378 197.311 62.8778 198.602 62.6897C198.965 63.2913 199.213 63.9375 199.405 64.662C198.123 65.366 196.734 65.638 195.287 66.1539Z" fill="#0479CE"/>
<path d="M98.8913 13.5787C97.8949 13.9325 96.9264 14.2752 95.9598 14.6179C95.6767 13.8543 95.5538 12.4668 95.686 11.5449C96.5111 11.1649 97.3995 10.8855 98.3828 10.7161C98.6901 11.6585 98.7814 12.5916 98.8913 13.5787Z" fill="#D52B1E"/>
<path d="M149.678 195.516C151.203 196.188 152.477 197.524 154.26 197.444C156.116 197.278 162.86 198.766 161.821 195.408C163.082 195.529 170.388 196.5 166.138 197.989C160.836 198.654 155.444 198.647 150.129 198.233C145.294 198.736 140.567 200.217 135.654 199.973C133.134 199.865 130.59 199.902 128.126 199.282C124.499 197.837 128.817 196.797 130.461 196.628C130.267 198.366 130.295 198.893 132.156 199.243C134.86 199.545 138.183 200.046 140.513 198.368C142.504 198.369 144.368 198.88 144.651 196.345C145.512 196.382 146.277 196.414 147.095 196.457C148.428 196.436 147.657 194.609 149.678 195.516Z" fill="#CCCCCC"/>
<path d="M203.163 21.1345C203.137 20.9706 203.035 20.7769 202.904 20.68C202.159 19.5607 202.981 18.9033 201.2 17.9664C201.075 16.4579 200.122 15.6924 198.855 15.2994C197.52 12.2655 194.937 14.0609 193.479 15.9122C192.197 15.6309 191 16.0574 190.253 17.1414C188.824 19.2944 186.885 22.1588 188.545 24.6713C186.995 27.7313 186.45 25.5541 185.092 27.2713C179.218 33.6465 173.383 40.3178 166.253 45.3017C164.096 40.0756 166.173 34.2219 164.789 28.8264C161.942 19.1025 146.865 12.001 138.614 19.2646C133.914 18.7431 130.509 22.7977 128.941 26.7963C127.322 30.8286 125.639 34.8664 122.951 38.3175C121.681 40.4705 120.681 42.9587 120.843 45.4917C120.845 48.7659 122.944 51.3658 124.016 54.3197C124.542 55.9791 123.964 58.9442 121.873 59.0317C121.567 59.0019 121.24 59.069 120.979 59.2124C120.85 59.8847 122.122 60.2535 122.571 60.3913C123.622 60.7154 125.465 60.1399 125.618 60.1436C125.59 60.2553 125.11 60.7061 124.862 60.7377C124.063 61.1251 123.989 61.3058 124.545 61.9707C119.519 68.7202 114.632 75.7305 111.268 83.4634C109.303 87.9053 110.705 92.6471 112.952 96.6831C114.635 99.8604 116.643 102.9 119.15 105.483C119.891 106.375 120.971 105.705 121.888 105.567C122.795 106.53 123.834 107.264 124.568 108.34C125.229 109.527 125.909 109.663 127.045 110.124C126.665 112.372 125.058 113.644 127.857 114.781C126.68 121.172 127.38 127.669 128.565 133.997C129.909 140.525 130.716 147.308 132.785 153.616C133.239 153.756 133.751 153.767 134.225 154.032C134.083 164.475 135.357 174.832 136.094 185.228C135.923 188.346 134.424 191.214 132.452 193.585C131.651 194.512 130.908 195.47 130.466 196.626C129.041 199.252 132.513 199.764 134.347 199.686C135.979 199.757 137.67 199.965 139.203 199.321C140.929 198.194 143.967 199.437 144.634 197.306C144.792 196.783 145.126 196.613 145.643 196.667C146.574 196.689 147.813 196.889 148.223 195.807C148.351 195.561 148.26 195.222 148.549 195.045C150.298 195.818 151.879 197.611 154.089 197.708C156.483 197.522 163.866 199.289 161.631 194.725C160.74 192.864 157.677 191.532 156.118 190.039C154.814 188.77 152.544 185.274 152.722 183.451C153.892 174.74 155.917 166.186 157.637 157.576C157.803 156.349 158.645 155.36 159.597 154.637C160.061 154.475 160.195 154.138 160.284 153.695C163.07 139.996 166.978 126.263 166.533 112.171C167.598 111.151 169.485 110.357 168.775 108.618C167.62 103.906 166.298 99.2346 165.374 94.4686C164.543 90.6655 165.022 86.8214 165.411 82.9996C165.89 77.8648 165.458 72.6891 163.798 67.7946C173.506 58.702 182.371 48.8217 189.787 37.7681C190.996 35.792 193.063 33.9891 193.294 31.6164C193.734 31.1936 194.009 30.5771 194.678 30.5548C195.786 30.5138 196.686 29.8545 197.539 29.2101C199.157 27.8989 200.852 26.6734 202.405 25.2878C203.69 24.2429 203.45 22.5704 203.163 21.1345ZM127.164 99.7021C125.061 96.0592 122.864 92.4907 121.225 88.6C122.67 86.1807 124.193 83.8191 125.879 81.4575C126.607 86.5271 128.045 91.4589 129.328 96.4354C128.287 97.2902 128.004 98.7355 127.164 99.7021ZM144.757 186.101C144.723 186.574 144.589 187.02 144.228 187.437C144.444 185.651 144.36 183.673 144.835 181.967C144.915 183.278 144.889 184.757 144.757 186.101Z" fill="black"/>
<path d="M200.044 4.00928C199.605 5.03363 198.489 11.7236 197.616 11.3995C196.575 11.3231 198.988 5.13606 199.059 4.06143C199.104 3.30527 200.11 3.12834 200.044 4.00928Z" fill="black"/>
<path d="M208.244 8.64488C206.611 10.5483 204.458 12.2059 202.517 13.8411C200.142 13.9287 205.808 9.97467 206.179 9.39359C206.689 9.04531 207.959 7.3244 208.244 8.64488Z" fill="black"/>
<path d="M206.886 19.4899C206.428 19.4787 205.636 19.786 205.469 19.1751C205.429 18.9628 205.543 18.7393 205.752 18.6797C207.975 18.3352 210.248 18.2774 212.488 18.0428C212.825 17.9869 213.285 18.0502 213.33 18.4637C213.637 19.4024 207.808 19.2292 206.888 19.4936C206.886 19.4918 206.886 19.4899 206.886 19.4899Z" fill="black"/>
<path d="M161.368 144.068C160.787 147.265 160.027 150.411 159.343 153.589C153.521 154.635 147.457 154.073 141.562 153.851C139.048 153.622 136.526 153.438 134.038 153.009C132.813 152.756 133.029 150.491 132.597 149.5C130.505 138.672 127.378 127.715 128.484 116.602C131.239 116.205 133.975 115.805 136.755 115.771C141.333 116.025 146.23 116.932 148.26 111.657C148.776 112.466 148.688 113.451 149.157 114.291C149.947 116.151 152.136 115.362 153.639 116.094C155.413 116.725 157.322 116.271 159.053 115.688C161.127 115.051 163.325 114.619 165.489 114.566C165.694 114.708 165.679 114.889 165.674 115.066C163.673 124.54 163.096 134.47 161.368 144.068Z" fill="black"/>
<path d="M125.62 98.9889C125.862 99.1379 125.692 99.3707 125.472 99.4191C122.876 100.335 121.254 102.354 119.583 104.384C115.974 100.903 110.668 92.4237 111.325 87.274C111.757 83.4616 113.832 80.0831 115.715 76.8219C118.818 72.0243 121.565 66.8727 125.322 62.563C126.916 63.4961 128.246 64.7327 130.147 65.055C131.946 65.7906 133.68 66.0402 135.483 65.2188C135.964 65.759 135.964 65.759 135.764 66.4294C136.988 67.3551 136.91 69.1766 137.552 70.4784C138.018 71.2979 139.247 70.9403 140.067 71.1526C140.126 72.2794 138.497 73.4267 139.588 74.4119C142.411 77.552 145.274 80.6716 147.759 84.093C148.202 84.8286 148.859 85.5773 148.844 86.4806C148.846 88.4474 148.887 90.4141 148.82 92.379C148.288 98.5773 149.671 107.364 146.555 112.747C143.67 116.773 137.347 114.44 133.19 114.242C131.337 113.967 129.497 113.626 127.657 113.285C126.629 113.201 127.981 110.655 128 109.975C128.529 108.689 129.484 107.608 129.996 106.299C130.266 105.191 131.321 105.396 132.209 105.48C133.373 105.64 134.097 105.202 134.422 104.077C134.531 103.349 135.358 102.956 135.245 102.159C135.194 101.788 135.466 101.576 135.669 101.315C136.532 100.144 135.254 99.1081 134.228 98.6387C135.787 97.6498 134.658 95.6178 133.081 95.6402C132.086 95.5098 131.194 95.8171 130.179 95.7687C128.698 90.0882 126.737 84.3798 126.866 78.4404C126.944 76.1272 127.301 73.8234 127.599 71.5307C127.631 70.836 128.059 68.1522 127.462 67.9455C127.238 68.0051 127.249 68.2044 127.221 68.3757C126.981 69.8117 126.75 71.2476 126.497 72.6817C125.914 75.6262 125.046 78.5093 124.377 81.4352C123.668 84.1861 120.652 86.11 120.423 88.9819C119.859 90.1925 124.131 99.0373 125.62 98.9889Z" fill="#D52B1E"/>
<path d="M179.41 50.241C174.239 55.8116 169.166 61.6057 163.489 66.6362C162.839 65.4852 162.871 63.7587 161.664 63.0025C160.938 67.925 164.583 72.555 164.592 77.5259C164.761 81.0795 164.171 84.5809 164.011 88.1158C163.73 90.118 164.223 92.1499 164.011 94.1372C163.893 94.9771 163.888 95.8041 164.123 96.6105C165.214 101.082 166.028 105.63 167.633 109.944C165.097 112.236 158.807 115.52 155.384 115.431C150.003 115.2 148.949 108.364 149.528 104.081C149.901 97.7671 149.391 91.3565 149.979 85.0856C151.286 80.5096 152.411 75.8907 153.417 71.242C153.879 70.0426 152.991 69.6925 152.039 69.2231C152.342 68.6085 153.3 68.4465 153.007 67.5935C152.445 65.5783 151.776 63.5817 151.199 61.5759C151.363 61.3989 151.508 61.4548 151.642 61.5107C153.963 62.3302 156.555 62.5071 158.829 61.4362C158.854 61.4604 158.878 61.4846 158.9 61.5088C158.746 62.3544 157.939 62.5835 157.611 63.3638C160.435 63.3862 163.046 61.2313 164.218 58.7412C165.024 56.5659 164.177 53.9882 165.991 52.1779C168.16 48.8516 165.564 46.7247 167.631 45.529C172.392 41.7202 177.026 37.7346 180.952 33.0487C182.496 31.3184 184.107 29.646 185.667 27.9306C186.161 27.2788 186.954 27.5079 187.649 27.5544C188.644 28.6253 192.544 31 191.309 32.5868C187.407 38.3026 183.587 44.093 179.762 49.8461L179.767 49.8406C179.611 49.9411 179.48 50.064 179.41 50.241Z" fill="#D52B1E"/>
<path d="M162.433 44.6742C162.55 44.5456 162.636 44.6146 162.69 44.73C164.335 48.1402 159.787 51.1089 157.071 48.4549C157.129 47.7751 157.334 47.1102 157.216 46.4565C156.734 46.138 156.661 46.965 156.477 47.2369C155.672 49.1031 154.696 50.8705 153.426 52.4648C152.435 53.7052 151.314 54.8059 149.942 55.6291C148.91 56.3182 147.662 56.4691 146.55 56.9626C145.593 57.8622 147.837 57.4916 148.284 57.3705C148.627 59.2516 146.062 62.0173 144.399 62.4774C142.447 62.6655 140.611 62.1347 139.069 60.9129C138.486 60.4901 138.551 59.7042 138.301 59.0542C140.02 58.3166 141.79 57.3053 143.674 57.1898C144.03 57.1898 144.397 57.2383 144.671 56.9533C143.909 56.1208 142.557 56.4076 141.538 56.1096C133.381 54.8841 131.466 48.9001 132.191 41.5545C131.814 41.6067 131.814 41.6067 131.317 42.9346C125.139 44.3911 125.147 34.3487 131.483 36.4943C131.751 37.1498 131.639 37.8445 131.714 38.5225C132.924 41.5471 134.494 36.6693 134.947 35.5537C135.087 35.2129 135.308 34.9466 135.632 34.7566C137.78 33.5069 138.989 31.488 140.121 29.3555C143.578 35.0229 150.396 36.9543 156.445 37.6918C156.566 37.7067 156.766 37.77 156.903 37.5465C157.041 37.323 156.071 35.3991 155.818 34.5499C158.287 35.7269 157.25 40.0664 157.328 42.3424C157.295 44.3818 158.82 44.2495 159.442 42.5156C160.742 42.5174 161.902 43.2736 162.528 44.4115C162.591 44.527 162.593 44.6295 162.454 44.6946C162.102 44.825 161.832 44.581 161.53 44.486C160.442 44.1396 159.181 44.6295 158.563 45.678C159.073 45.8438 159.509 45.231 160.003 45.5495C160.435 45.827 160.442 46.3411 160.623 46.7582C160.58 45.4731 161.241 44.8455 162.433 44.6742Z" fill="#EED3CA"/>
<path d="M135.075 156.064C138.61 155.202 142.165 154.565 145.801 155.04C145.762 164.685 144.331 174.279 143.637 183.895C143.489 185.465 143.212 187.029 143.545 188.595C143.7 189.668 143.717 189.696 142.99 190.415C142.039 191.356 141.046 192.255 139.856 192.885C138.187 192.173 136.542 192.073 134.727 192.134C135.909 189.674 137.274 187.124 136.978 184.314C136.744 180.691 136.386 177.08 136.041 173.467C135.524 167.676 135.295 161.873 135.075 156.064Z" fill="#EED3CA"/>
<path d="M145.555 187.139C146.026 182.509 145.56 177.864 145.741 173.223C145.801 167.842 146.568 162.493 146.747 157.114C148.361 156.043 154.688 154.758 157.262 154.995C155.429 164.125 153.178 173.21 151.921 182.457C151.339 185.235 153.856 188.942 155.699 190.918C154.703 191.335 153.967 191.674 153.014 192.151C150.418 190.664 147.888 189.067 145.555 187.139Z" fill="#EED3CA"/>
<path d="M192.365 21.3729C192.658 21.0302 192.864 20.788 193.071 20.5459C194.002 20.9855 194.239 21.276 194.568 22.4121C194.108 23.0584 193.336 23.4979 193.011 24.3863C193.79 24.472 194.403 23.0286 195.708 22.8423C196.492 22.6375 196.857 23.7791 197.774 23.7307C198.064 25.2747 199.562 25.7087 200.722 24.7011C201.104 24.4794 201.871 24.2969 201.56 23.7084C200.97 22.8926 200.186 24.2112 199.524 24.3416C199.21 24.4645 198.832 24.2503 198.759 23.9263C198.526 22.3283 200.841 21.5423 202.076 21.2071C204.028 24.716 198.683 26.5635 196.712 28.6737C195.44 29.7837 194.082 29.2231 192.708 28.9512C191.328 28.0274 189.76 27.5059 188.312 26.7051C188.508 26.2339 188.819 25.8502 189.108 25.4479C189.369 25.6323 189.599 25.7925 189.877 25.9899C190.019 24.9897 189.275 24.269 188.97 23.3806C188.383 21.425 189.974 19.3949 190.926 17.7671C192.002 15.9364 194.14 17.0873 195.718 17.458C196.828 17.6293 196.563 19.3987 195.442 19.2199C194.768 19.1118 194.142 18.7915 193.49 18.5978C192.099 18.311 192.062 20.3411 192.365 21.3729Z" fill="#EED3CA"/>
<path d="M122.152 104.613C122.743 103.228 124.378 101.172 125.427 100.481C125.669 100.749 125.916 101.026 126.168 101.306C126.164 102.027 125.333 102.405 125.63 103.148C128.226 101.848 128.015 97.5995 130.865 96.6813C131.832 96.5491 133.936 96.0257 133.966 97.525C133.672 97.7429 133.335 97.6256 133.016 97.6423C131.964 97.7503 130.288 97.9589 129.939 99.1118C130.01 99.6072 131.444 98.5158 132.908 99.2031C133.575 99.516 135.411 99.8065 134.811 100.859C134.323 101.287 133.033 100.289 132.293 100.343C131.528 100.235 129.986 100.134 129.861 101.133C130.085 101.309 130.26 101.207 130.414 101.155C131.344 100.781 134.949 101.09 134.052 102.665C133.459 103.204 132.55 102.5 131.852 102.474C131.191 102.366 129.509 102.278 129.44 103.118C129.587 103.295 129.77 103.211 129.928 103.151C130.822 102.87 133.223 102.798 133.478 103.867C133.221 105.204 131.425 104.256 130.5 104.561C129.194 104.645 128.578 107.556 127.676 108.575C127.384 109.063 126.969 109.216 126.285 108.88C125.406 108.528 125.326 107.489 124.644 106.956C123.814 106.189 122.998 105.411 122.152 104.613Z" fill="#EED3CA"/>
<path d="M147.125 195.554C146.351 195.559 145.671 195.606 144.95 195.472C145.023 193.907 145.259 192.41 144.795 190.868C144.583 189.933 144.766 189.048 145.211 188.195C145.578 188.171 145.773 188.43 146.002 188.595C147.993 190.113 150.049 191.527 152.201 192.81C153.679 193.576 155.138 191.896 156.603 191.644C157.805 192.348 158.822 193.352 159.978 194.136C160.712 194.622 160.813 195.38 160.965 196.19C158.937 197.14 156.484 196.509 154.301 196.611C152.128 196.42 150.491 194.714 148.628 193.736C147.5 193.136 147.438 194.838 147.125 195.554Z" fill="#D52B1E"/>
<path d="M143.445 197.228C142.813 197.563 142.234 197.515 141.541 197.513C142.057 196.591 142.901 195.954 142.918 194.879C141.929 195.17 141.484 196.289 140.742 196.954C138.628 199.291 134.203 198.787 131.434 198.064C130.966 196.399 132.512 195.118 133.404 193.922C134.792 192.361 137.63 192.966 139.332 193.743C140.621 194.253 142.718 191.678 143.817 190.977C144.687 193.026 143.881 195.162 143.445 197.228Z" fill="#D52B1E"/>
<path d="M140.142 73.6651C141.094 70.5027 142.917 70.1861 138.43 70.0483C137.903 69.0146 137.611 68.007 137.363 66.8839C137.743 66.6437 138.11 66.4127 138.505 66.165C141.299 69.2921 143.351 73.1586 145.683 76.6674C146.849 78.7143 148.074 80.8412 148.454 83.1935C145.681 80.0813 143.044 76.7307 140.142 73.6651Z" fill="#D52B1E"/>
<path d="M148.893 81.1297C148.008 78.7961 146.799 76.6226 145.46 74.5236C144.663 72.3203 144.577 69.8768 143.836 67.6139C144.426 67.1706 145.587 67.1576 145.929 67.9063C146.794 69.5657 147.447 71.3257 148.174 73.0485C149.462 75.5591 149.09 78.3789 149.025 81.0943C148.978 81.1055 148.935 81.1167 148.893 81.1297Z" fill="#212492"/>
<path d="M161.367 144.068C161.738 138.054 163.004 132.06 163.649 126.041C164.079 122.61 164.669 119.2 165.122 115.773C165.168 115.44 165.265 115.123 165.677 115.067C165.599 124.488 163.559 133.8 161.678 142.999C161.47 143.319 161.65 143.762 161.367 144.068Z" fill="#6A6969"/>
<path d="M151.721 67.9976C151.282 68.3142 150.874 68.6625 150.479 69.0331C150.46 70.43 152.509 70.3685 152.116 71.7281C151.28 74.3821 151.159 78.2877 150.097 80.6381C150.006 74.0972 149.565 67.5916 149.768 61.0432C150.114 61.1531 150.101 61.3878 150.105 61.6113C150.69 63.5594 151.045 65.5708 151.738 67.4873C151.803 67.6624 151.826 67.8319 151.721 67.9976Z" fill="#D52B1E"/>
<path d="M179.762 49.8498C183.246 43.7019 187.634 37.8258 191.555 31.8473C190.707 30.4822 189.51 29.387 188.269 28.3794C187.996 28.1858 187.657 27.9809 187.651 27.5581C189.642 28.128 191.389 29.4448 192.177 31.3817C192.728 33.1231 190.398 34.9427 189.635 36.4457C186.336 40.9045 183.187 45.4991 179.762 49.8498Z" fill="#FCA6A6"/>
<path d="M167.633 109.946C165.819 106.739 165.335 102.915 164.562 99.3465C163.862 97.1116 163.393 94.8785 164.048 92.5635C165.03 97.7299 166.3 102.883 167.624 107.992C167.697 108.62 168.376 109.519 167.633 109.946Z" fill="#FCA6A6"/>
<path d="M145.499 66.3923C143.448 66.7424 142.612 67.0087 141.742 64.811C142.202 63.3695 142.919 63.3565 144.273 63.4049C144.875 63.3285 145.236 63.7755 145.547 64.215C146.303 65.1686 146.214 65.4238 145.499 66.3923Z" fill="#212492"/>
<path d="M125.622 98.989C125.423 99.0393 125.223 99.0895 124.963 99.1547C124.046 98.4358 118.926 89.3191 120.431 88.9783C122.012 92.3959 123.702 95.7557 125.622 98.989Z" fill="#FCA6A6"/>
<path d="M194.676 20.0618C196.469 20.5497 197.982 18.989 197.052 17.2867C198.071 15.6794 200.125 16.1636 200.218 18.0633C198.872 18.6742 197.564 19.449 196.624 20.613C195.97 21.5201 194.981 20.9948 194.676 20.0618Z" fill="#EED3CA"/>
<path d="M201.636 20.4192C200.157 20.7452 199.012 21.4808 198.081 22.5704C197.392 23.2111 196.444 21.8738 197.083 21.2722C198.012 20.0859 201.7 17.1525 201.636 20.4192Z" fill="#EED3CA"/>
<path d="M164.534 76.4589C163.735 74.1811 163.214 71.7934 162.411 69.5045C161.93 67.601 160.904 65.6305 161.495 63.6433C162.707 67.845 164.504 72.0299 164.534 76.4589Z" fill="#FCA6A6"/>
<path d="M148.764 59.842C149.023 61.6617 148.552 64.1033 147.503 65.543C146.933 64.7068 146.367 63.878 145.766 62.9952C146.835 61.9392 147.84 61.1122 148.764 59.842Z" fill="white"/>
<path d="M148.777 71.8789C147.886 70.2474 147.354 68.4501 146.312 66.8931C146.411 66.6622 146.517 66.4703 146.659 66.2841C146.977 66.312 147.054 66.6919 147.246 66.8838C148.158 67.0626 148.188 66.0513 148.691 65.5447C148.827 66.2505 148.92 70.5137 148.777 71.8789Z" fill="white"/>
<path d="M143.915 71.9592C142.668 70.6238 141.762 68.8265 140.652 67.3571C140.878 66.9082 141.084 66.4966 141.328 66.0105C143.398 67.8581 143.446 69.3517 143.915 71.9592Z" fill="white"/>
<path d="M140.092 66.4574C139.625 65.8987 139.433 65.6696 138.98 65.1891C139.267 64.1926 139.234 63.1646 139.109 62.0415C139.949 62.468 140.705 62.8517 141.517 63.2633C140.929 64.364 140.569 65.2412 140.092 66.4574Z" fill="white"/>
<path d="M197.906 15.5043C197.339 15.9457 196.853 16.3238 196.302 16.754C195.762 16.5864 195.177 16.4039 194.523 16.2027C195.229 15.0201 197.133 13.6028 197.906 15.5043Z" fill="#EED3CA"/>
<path d="M150.988 77.377C150.903 75.2184 151.588 73.179 152.005 71.0782C151.54 70.6051 150.48 70.5399 150.651 69.6553C151.296 69.944 151.942 70.2308 152.56 70.6498C152.102 72.8997 151.666 75.2017 150.988 77.377Z" fill="#FCA6A6"/>
<path d="M151.724 67.9975C150.888 65.9749 150.342 63.7679 150.109 61.613C150.998 63.4718 151.339 65.5763 152.005 67.5319C152.084 67.7889 151.948 67.9193 151.724 67.9975Z" fill="#FCA6A6"/>
<path d="M147.426 25.9489C148.387 25.7906 149.804 27.7723 150.436 28.4856C150.724 28.7128 150.916 29.6571 150.298 29.2231C149.379 28.1131 148.173 27.1632 147.426 25.9489Z" fill="white"/>
<path d="M152.534 27.5657C151.716 26.627 150.949 25.7442 150.141 24.8149C150.742 24.3269 153.068 26.9585 152.534 27.5657Z" fill="white"/>
<path d="M135.688 28.7074C135.658 28.1505 136.966 26.3774 137.888 26.6922C137.871 27.0423 136.046 28.6887 135.688 28.7074Z" fill="white"/>
<path d="M130.217 55.1096C129.523 54.765 129.271 53.0553 128.832 52.3289C128.767 52.1706 128.705 52.0011 128.91 51.8037C129.625 52.7927 130.331 53.8692 130.217 55.1096Z" fill="white"/>
<path d="M136.835 25.7217C136.824 26.0383 134.987 27.7462 134.73 27.6456C134.796 26.9006 136.019 25.718 136.835 25.7217Z" fill="white"/>
<path d="M150.211 26.6885C151.062 26.8375 151.31 27.7203 151.708 28.3684C151.522 29.335 150.393 27.0926 150.211 26.6885Z" fill="white"/>
<path d="M130.73 53.4294C131.63 53.4443 131.803 55.1057 131.464 55.5098C131.002 55.074 131.036 54.1465 130.73 53.4294Z" fill="white"/>
<path d="M161.598 143.207C161.624 143.138 161.652 143.069 161.678 143C161.65 143.069 161.624 143.138 161.598 143.207Z" fill="#212492"/>
<path d="M158.828 61.4399C158.864 61.4101 158.899 61.3784 158.934 61.3486C158.923 61.4026 158.91 61.4567 158.899 61.5107C158.875 61.4883 158.85 61.4641 158.828 61.4399Z" fill="#212492"/>
<path d="M158.09 69.4558C157.282 69.8507 157.135 70.605 156.537 71.1805C155.144 72.08 155.565 69.1988 155.423 68.4725C152.844 66.908 151.87 66.7497 155.401 65.6993C155.909 59.7338 157.088 65.3026 158.738 65.0549C159.278 65.0381 160.431 64.5371 160.461 65.4162C160.474 66.3455 159.234 66.9937 159.673 67.9286C161.122 70.6962 160.865 71.3835 158.09 69.4558Z" fill="black"/>
<path d="M139.314 46.1957C139.187 46.1138 139.07 46.0374 138.906 45.9312C139.288 45.3837 139.795 45.1918 140.471 45.2384C141.542 46.9239 144.825 47.5646 146.505 48.4623C144.406 53.6176 137.379 51.7272 139.314 46.1957Z" fill="black"/>
<path d="M136.598 41.0666C135.777 40.5171 135.505 39.9919 135.672 39.3755C135.976 39.3065 135.996 39.6846 136.231 39.7349C136.423 39.7759 136.611 39.8467 136.816 39.9081C136.978 37.5018 137.09 39.8485 139.162 39.7498C140.459 39.8969 141.664 40.7052 142.276 41.8693C142.498 42.4243 141.787 42.9868 141.328 42.5249C140.243 41.1839 138.233 39.9379 136.598 41.0666Z" fill="black"/>
<path d="M155.027 44.2011C155.162 44.5811 155.008 44.8008 154.814 44.9908C154.064 45.8401 153.352 45.0523 152.752 44.5271C151.665 43.7169 150.367 43.4599 149.048 43.8119C148.867 43.8547 148.689 43.8789 148.588 43.6759C148.422 43.1358 149.102 42.8192 149.521 42.6907C151.151 42.0109 152.566 43.5642 154.151 43.0799C154.421 43.458 153.92 43.6796 153.712 43.9665C154.011 44.65 154.546 44.2346 155.027 44.2011Z" fill="black"/>
<path d="M162.432 44.6741C162.205 45.6351 161.617 45.0186 160.98 45.2719C160.991 45.7152 161.276 47.708 160.38 47.0524C160.237 46.5496 160.304 45.9666 159.905 45.5681C159.385 45.5308 159.076 46.015 158.586 46.0672C157.016 45.6761 160.607 43.0929 162.447 44.6927C162.447 44.6946 162.432 44.6741 162.432 44.6741Z" fill="black"/>
<path d="M137.516 36.9114C139.272 35.7027 142.023 36.6097 143.166 38.3418C143.386 38.6063 143.408 39.4053 142.917 39.2786C140.611 36.9394 140.229 37.6322 137.516 36.9114Z" fill="black"/>
<path d="M155.466 41.6867C154.163 40.4817 152.606 40.2601 150.894 40.3476C150.629 40.3402 150.341 40.3718 150.199 40.0757C150.512 39.0942 153.134 39.4425 154.008 39.6865C154.706 39.9118 156.152 40.8393 155.466 41.6867Z" fill="black"/>
<path d="M130.21 39.111C129.594 39.2917 129.191 39.7312 128.688 40.2155C128.515 39.3159 129.117 38.9807 129.499 38.4852C129.348 38.1928 128.992 38.1407 128.769 37.9321C127.929 36.5204 131.151 38.0438 131.203 39.0347C131.417 39.4034 131.562 40.7723 130.83 40.1484C130.622 39.8132 130.482 39.4072 130.21 39.111Z" fill="black"/>
<path d="M147.633 46.2833C147.702 46.8234 147.136 47.1065 146.851 46.49C146.529 45.2944 146.093 44.0111 146.039 42.7838C146.92 41.6514 147.579 45.719 147.633 46.2833Z" fill="black"/>
<path d="M141.187 52.7757C140.513 52.7217 139.671 52.4684 139.656 51.7122C139.761 51.7029 139.904 51.6452 139.962 51.6918C140.381 52.0289 140.872 52.0698 141.377 52.0996C142.09 52.1332 141.912 52.8744 141.187 52.7757Z" fill="black"/>
<path d="M158.865 68.7948C157.597 67.8058 157.392 68.4837 156.578 69.5602C156.131 67.7779 156.636 68.1355 154.969 67.0608C155.002 66.8038 155.187 66.8467 155.31 66.7982C156.68 66.6958 156.103 65.528 156.52 64.6545C157.518 65.4777 157.47 66.4574 159.008 66.0179C159.109 66.3419 158.91 66.5244 158.779 66.6995C158.228 67.3551 158.729 68.0144 158.975 68.6737C158.938 68.7147 158.9 68.7538 158.865 68.7948Z" fill="#FFCE24"/>
<path d="M142.197 50.6937C140.439 50.6937 139.506 48.9933 139.642 47.3804C140.543 47.6784 141.098 48.5891 141.817 49.1888C142.171 49.552 142.21 49.8686 142.197 50.6937Z" fill="#EF6261"/>
<path d="M140.066 46.0598C141.664 47.0972 143.19 48.0564 145.101 48.5574C143.653 49.4104 140.638 47.3971 140.066 46.0598Z" fill="white"/>
</svg>
