<svg width="300" height="200" viewBox="0 0 300 200" fill="none" xmlns="http://www.w3.org/2000/svg">
<path d="M175.891 194.055C174.474 193.344 172.864 193.565 171.393 193.074C171.503 193.924 171.826 195.188 170.765 195.548C167.941 196.646 164.836 196.622 161.872 196.278C159.23 196.177 158.133 194.434 155.907 193.213C155.626 192.939 155.31 192.73 154.932 192.628C154.738 192.913 154.725 193.169 154.823 193.437C155.696 194.608 156.346 195.77 156.021 197.274C155.745 199.218 152.884 198.546 151.451 198.863C148.208 198.812 144.904 199.682 142.246 197.342C140.41 198.082 138.372 198.19 136.514 197.483C135.368 196.918 135.771 195.232 135.438 194.177C133.376 194.831 131.011 194.664 129.019 195.635C126.479 198.367 139.689 198.755 141.202 198.937C145.282 199.405 149.354 200.346 153.479 199.869C159.494 198.983 165.604 198.823 171.537 197.412C172.739 197.116 178.294 195.899 175.891 194.055Z" fill="#CCCCCC"/>
<path d="M112.114 31.0828C111.01 31.5847 110.983 32.7101 111.004 33.7481C111.021 36.7878 111.004 39.8276 111.108 42.8674C111.219 48.6123 111.669 54.3401 112.298 60.0509C112.709 64.6343 117.072 68.0866 121.606 67.6912C125.113 67.3033 128.579 66.5676 132.1 66.2597C132.487 71.9096 132.594 77.5081 133.086 83.1428C133.174 84.2587 133.01 85.3157 132.678 86.3689C131.202 91.1576 129.579 95.9102 128.421 100.788C127.45 103.326 130.012 103.522 131.588 104.67C129.672 112.677 131.162 120.791 132.708 128.72C133.565 133.231 134.708 137.674 135.942 142.096C136.193 143.292 136.702 143.476 137.824 143.731C134.024 156.953 136.624 170.845 136.05 184.329C134.345 188.489 134.558 189.862 135.438 194.177C134.83 198.367 137.976 198.506 141.181 197.888C142.008 197.644 142.641 197.757 143.285 198.283C144.118 198.964 145.082 199.239 146.169 199.194C149.019 199.12 151.891 199.329 154.711 198.793C157.178 198.388 156.463 194.878 155.157 193.544C155.081 193.367 154.931 193.19 155.171 193.017C157.127 194.006 158.672 195.924 160.881 196.401C163.235 196.768 173.86 197.648 171.394 193.072C170.668 190.818 168.022 190.573 166.423 189.19C164.222 187.249 162.3 185.067 160.758 182.558C160.492 182.124 160.37 181.702 160.433 181.183C160.758 178.499 161.009 175.803 161.366 173.123C162.144 166.659 163.45 160.293 164.716 153.913C165.37 150.48 166.05 147.052 166.573 143.598C166.564 142.896 167.339 142.577 167.275 141.879C167.596 130.486 168.1 119.072 167.746 107.683C169.109 107.309 172.461 107.748 172.656 105.967C172.883 102.634 172.514 99.2846 172.392 95.9748C173.134 95.895 174.191 96.682 174.607 95.7828C175.398 92.6442 175.371 89.3193 176.114 86.1655C182.749 88.7034 189.945 85.8556 188.078 77.8446C186.661 73.7992 183.831 70.4115 181.751 66.6912C179.417 62.8302 176.863 59.0243 174.765 55.0568C176.407 55.1082 178.711 55.3249 179.468 53.4885C175.535 54.2489 173.713 50.1731 173.824 46.8539C173.875 41.3827 178.725 39.4949 177.122 33.1093C176.23 29.0202 175.706 24.9063 175.978 20.7164C176.449 15.768 175.088 10.7949 171.428 7.2989C164.472 -0.280549 147.665 -4.32026 142.599 7.17153C135.379 9.96226 134.208 18.2508 133.046 24.9691C132.543 27.9271 130.273 30.2216 129.68 33.193C129.012 35.6016 129.029 37.9969 129.858 40.3675C130.837 42.3902 133.02 50.1921 128.406 48.3956C128.254 49.2111 128.988 49.5495 129.503 50.002C129.406 50.0799 129.364 50.1408 129.313 50.1484C128.041 50.2738 126.79 50.7073 125.513 50.5837C125.032 44.9946 124.509 39.4284 123.727 33.8735C123.345 31.5391 123.758 31.0524 121.268 30.311M150.958 172.938C150.829 176.237 151.545 179.699 150.798 182.915C150.236 184.518 149.23 186.069 149.095 187.776C148.882 187.894 148.802 187.746 148.722 187.63C147.798 186.312 146.875 184.991 145.956 183.67C145.243 182.442 145.867 180.898 145.869 179.554C146.067 177.773 146.251 175.99 146.511 174.216C148.099 164.34 150.101 154.538 152.013 144.721C152.329 144.721 152.53 144.721 152.773 144.721C150.585 153.987 150.583 163.477 150.958 172.938Z" fill="black"/>
<path d="M133.953 85.5324C134.259 79.7456 133.237 73.9056 133.22 68.0865C134.862 67.1341 136.548 66.3129 138.225 65.4289C138.584 65.1494 140.869 64.6152 140.044 64.1058C133.843 64.6304 127.712 66.0714 121.511 66.7482C114.183 66.5999 113.141 61.4804 112.787 55.3515C112.099 47.9811 111.966 40.5633 111.934 33.1644C113.521 33.2728 115.103 33.7785 116.747 33.6131C118.218 33.7385 119.593 34.4761 121.123 34.1948C121.728 34.1073 122.053 34.4267 122.135 34.9818C123.462 41.0271 123.197 47.3063 124.817 53.2907C125.043 53.8573 124.731 54.8971 125.444 55.0929C126.066 54.1519 125.625 52.7699 125.76 51.6634C126.933 51.3289 128.142 51.327 129.343 51.1103C131.142 50.884 132.837 50.2054 134.668 50.2643C136.493 52.7014 141.658 54.7241 144.673 54.3572C144.882 53.3459 144.19 52.2014 144.837 51.2433C146.173 53.1254 145.548 55.6062 145.814 57.7829C145.801 58.8418 147.021 58.9977 147.639 59.6364C147.327 60.4995 146.306 61.1287 146.991 62.0907C149.07 65.5962 150.833 69.4097 151.445 73.4684C151.817 75.5215 151.719 77.5822 151.219 79.6049C150.481 83.2606 149.897 86.9411 149.35 90.6272C149.084 93.1879 148.816 95.7524 148.608 98.3188C148.236 101.001 148.823 105.252 145.666 106.332C140.168 107.417 134.451 105.178 129.744 102.452C131.069 96.8379 133.638 91.3876 133.953 85.5324Z" fill="#D52B1E"/>
<path d="M165.368 142.358C158.475 144.121 151.154 143.7 144.088 143.425C142.548 143.318 141.014 143.115 139.478 142.948C138.55 142.75 137.126 143.048 136.877 141.828C135.478 136.226 133.809 130.606 133.053 124.892C132.271 120.268 132.264 115.62 132.564 110.959C132.42 109.29 133.246 107.377 132.342 105.875C132.328 105.63 132.315 105.387 132.598 105.166C136.583 106.613 145.181 109.894 148.215 105.613C149.791 102.551 149.466 98.9043 149.877 95.5642C151.502 95.2962 153.128 95.9482 154.768 96.0148C156.806 96.3094 158.857 96.3379 160.909 96.4197C160.895 102.06 158.812 107.206 166.69 107.742C167.163 108.837 166.254 109.866 166.372 110.995C166.458 116.162 166.277 121.323 166.144 126.487C165.788 131.737 166.247 137.229 165.368 142.358Z" fill="black"/>
<path d="M149.527 190.476C148.343 190.972 147.063 191.306 145.932 191.955C145.429 192.211 145.02 192.173 144.581 191.869C141.807 189.972 139.071 187.98 136.617 185.683C137.484 183.185 136.999 180.474 137.07 177.872C136.994 167.578 135.828 157.082 138.033 146.94C142.18 145.562 146.683 144.109 151.057 144.792C149.105 154.457 147.075 164.121 145.565 173.868C144.301 184.866 143.396 181.558 149.527 190.476Z" fill="#EED3CA"/>
<path d="M151.328 184.126C152.834 180.621 151.686 176.733 151.925 173.028C151.912 164.926 151.423 156.77 152.925 148.761C153.138 146.655 163.32 144.41 165.63 143.488C163.692 154.913 160.926 166.186 159.793 177.752C159.735 179.202 159.238 180.759 159.556 182.174C160.849 184.858 162.9 187.038 164.884 189.211C164.776 189.445 164.603 189.419 164.464 189.447C163.151 189.457 161.223 190.93 160.227 190.337C157.225 188.335 154.009 186.559 151.328 184.126Z" fill="#EED3CA"/>
<path d="M151.56 59.3532C153.78 59.6289 155.923 59.7962 158.096 59.3589C159.396 62.6306 160.626 66.2692 159.833 69.8203C158.248 70.4629 156.297 71.4248 156.989 73.4741C156.501 74.7668 156.499 74.8714 156.965 76.0443C156.411 76.9625 156.362 77.9017 157.126 78.8218C156.531 79.8978 156.794 81.2 157.928 81.7741C157.714 85.1865 156.832 88.4905 156.505 91.8857C156.271 92.9845 160.419 93.129 161.35 93.5453C161.407 94.127 161.356 94.6536 161.191 95.1802C157.56 95.7429 153.699 94.8837 150.043 94.4578C150.419 86.2662 152.857 78.299 153.756 70.1606C153.915 66.4403 152.638 62.8701 151.56 59.3532Z" fill="white"/>
<path d="M118.886 33.3964C117.484 33.3964 116.081 32.9686 114.724 32.5542C114.108 32.366 113.526 32.1892 112.988 32.0656C112.601 31.9782 112.308 31.6569 112.257 31.2615C111.785 27.621 112.279 24.0318 112.757 20.5605C112.884 19.6347 113.015 18.6804 113.125 17.7413C112.798 15.1483 112.456 13.0343 112.051 11.0991C112.04 11.0439 112.032 10.9888 112.032 10.9318C112.006 10.0687 112.511 9.37291 113.352 9.11437C113.374 9.10677 113.397 9.10106 113.418 9.09726C113.551 9.06684 113.684 9.05164 113.815 9.05164C115.526 9.05164 116.135 11.2625 116.671 13.213C116.806 13.7054 116.946 14.2111 117.07 14.538C117.42 14.1331 117.699 13.8518 117.977 13.6807C119.283 12.4108 120.707 11.7055 122.452 11.4641C122.627 11.4393 122.805 11.4279 122.984 11.4279C124.068 11.4279 125.001 11.8519 125.482 12.5629C125.862 13.1256 125.923 13.808 125.655 14.4905C126.476 15.0019 126.978 15.7794 127.047 16.7413C127.064 16.9733 126.993 17.2014 126.855 17.3839C126.99 17.5151 127.108 17.6653 127.201 17.8401C127.446 18.2964 127.598 19.0473 126.942 20.0396C126.915 20.0796 126.887 20.1176 126.855 20.1518C126.862 20.1613 126.868 20.1708 126.876 20.1822C127.193 20.6499 127.476 21.4407 127.028 22.5623C127.016 22.5908 127.003 22.6194 126.99 22.646C126.935 22.7505 126.881 22.8608 126.826 22.973C126.402 23.8398 125.762 25.1477 124.315 25.1496C124.121 25.1496 123.921 25.123 123.718 25.0717C123.562 26.9138 123.119 29.0392 121.228 29.965C121.319 30.5144 121.237 31.0505 121.171 31.4934C121.127 31.7767 121.087 32.0447 121.089 32.2804C121.093 32.7082 120.807 33.0865 120.395 33.2025C119.929 33.3298 119.422 33.3964 118.886 33.3964Z" fill="black"/>
<path d="M116.342 15.2338C115.88 15.8612 115.504 16.4771 115.38 17.1919C115.814 18.0949 117.817 14.7643 118.549 14.4468C119.722 13.2739 120.998 12.6218 122.579 12.4032C123.859 12.2264 125.26 12.9146 124.764 14.1502C123.11 13.9563 120.458 13.713 119.64 15.481C119.84 15.8327 120.264 15.4468 120.513 15.3365C122.129 14.3841 125.931 14.4677 126.096 16.8041C124.602 16.7243 122.986 16.3669 121.61 17.2128C121.365 17.3915 120.749 17.7147 121.028 18.0721C121.218 18.2109 121.502 18.1139 121.688 17.9922C122.456 17.5569 123.292 17.4428 124.155 17.4961C125.332 17.4733 127.197 17.9276 126.148 19.5093C124.334 18.323 121.152 19.7165 122.329 20.2621C123.83 19.4104 127.064 19.899 126.144 22.2031C125.652 23.1536 125.176 24.5451 123.836 24.1117C123.693 23.8551 123.75 23.6174 123.79 23.319C124.285 22.9825 125.201 22.7201 125.053 21.8913C124.427 21.9122 123.952 22.2259 123.37 22.3951C122.77 22.5871 122.893 23.3285 122.844 23.8246C122.728 26.0489 122.595 28.8605 119.954 29.3871C120.657 30.2102 120.131 31.2672 120.139 32.2824C117.979 32.8869 115.348 31.6246 113.202 31.136C112.618 26.6249 113.57 22.1897 114.086 17.7337C113.799 15.443 113.458 13.1579 112.985 10.8995C112.972 10.4603 113.217 10.1467 113.633 10.0193C115.226 9.65618 115.681 14.04 116.342 15.2338Z" fill="#EED3CA"/>
<path d="M183.859 77.2039C188.036 76.6849 178.303 74.7136 177.789 74.379C177.643 71.5236 178.839 68.6531 178.618 65.7768C178.649 65.7445 178.679 65.7121 178.71 65.6798C178.995 65.6779 179.143 65.8775 179.265 66.0885C181.405 69.8203 183.871 73.3391 186.348 76.8503L186.338 76.8427C186.39 76.9188 186.454 76.9834 186.53 77.0347L186.521 77.0233C188.458 80.2228 186.741 85.04 182.905 85.7871C179.208 86.6407 173.252 84.0001 169.746 82.5382C170.965 80.0935 171.643 77.3693 171.862 74.6242C172.322 74.3372 172.748 74.5938 173.166 74.7288C176.643 75.9473 180.2 76.8313 183.859 77.2039Z" fill="#D52B1E"/>
<path d="M167.773 82.3063C168.157 83.1124 168.157 83.1124 169.041 83.466C171.393 84.3462 172.79 86.6825 174.708 88.2699C174.503 90.5588 174.174 92.8305 173.796 95.0965C168.372 94.1232 162.863 92.916 157.504 91.6119C157.985 88.2604 158.506 84.8994 159.057 81.5554C159.177 80.9376 159.403 80.6924 160.025 80.6581C160.973 80.681 162.011 80.4623 162.899 80.8673C164.488 81.5687 165.979 82.582 167.773 82.3063Z" fill="#AFC0D4"/>
<path d="M138.856 194.523C139.459 195.43 140.36 195.945 141.063 196.671C140.236 197.112 136.873 197.367 136.7 196.066C136.596 192.932 134.754 189.746 136.265 186.727C138.913 188.763 141.384 191.044 144.238 192.816C145.909 193.901 147.92 191.675 149.757 191.495C151.099 191.225 152.057 192.878 153.154 193.477C154.262 194.338 155.479 195.46 155.057 197.009C155.129 198.323 147.753 197.897 146.572 198C143.59 198.18 141.675 195.135 138.856 194.523Z" fill="#D52B1E"/>
<path d="M171.213 106.123C159.377 108.564 161.464 102.705 162.314 93.8894C165.333 94.1993 168.338 95.0757 171.323 95.7334C171.342 95.9064 171.359 96.0528 171.376 96.1992C171.04 96.5452 171.127 96.9957 171.12 97.4025C171.072 99.8777 171.068 102.351 171.416 104.811C171.477 105.269 171.481 105.716 171.213 106.123Z" fill="#D52B1E"/>
<path d="M170.787 74.457C170.806 76.6888 169.491 78.47 168.407 80.2931C167.133 82.4375 164.886 80.5213 163.238 79.932C161.727 79.4909 159.408 79.1924 158.315 80.5745C157.432 80.1411 158.043 79.1867 158.645 78.9016C159.075 78.5423 161.949 77.9321 161.413 77.3484C160.385 76.8713 159.126 77.645 158.117 77.9587C157.934 78.0271 157.756 77.934 157.676 77.7477C157.164 76.0671 160.655 75.4797 161.803 75.0558C161.729 73.8049 158.699 75.1622 157.976 75.3371C156.406 73.8981 160.581 72.9285 161.503 72.5882C161.51 71.4989 158.586 72.7707 157.98 72.9057C157.94 71.3488 160.069 70.6644 161.379 70.8127C162.176 70.8431 167.827 72.4114 164.907 70.3944C164.599 69.3679 164.021 68.3147 164.027 67.2026C164.198 66.3471 165.096 66.984 165.263 67.5239C166.151 69.3869 166.805 71.4077 168.46 72.7612C169.255 73.3239 169.711 74.3828 170.787 74.457Z" fill="#EED3CA"/>
<path d="M163.754 70.1587C162.752 69.9819 161.925 69.8374 161.127 69.6968C160.952 69.4002 160.977 69.1284 161.019 68.8584C161.408 66.8471 161.52 64.7427 162.062 62.7884C167.279 63.8682 172.484 65.1875 177.658 66.4726C177.649 67.4745 176.793 73.535 176.563 74.2079C174.531 73.8905 172.189 72.056 170.239 72.8829C168.043 71.4172 167.013 69.0979 166.045 66.7388C165.497 65.2027 162.941 65.3833 162.92 67.1171C162.963 68.2254 163.397 69.0029 163.754 70.1587Z" fill="#AFC0D4"/>
<path d="M167.742 62.9804C166.372 62.7447 165.02 62.412 163.672 62.0736C162.929 61.99 163.214 61.163 163.165 60.6326C163.226 59.6593 162.1 59.7258 161.684 58.9996C162.623 57.8495 161.825 57.1138 161.195 56.0549C162.99 55.7431 164.44 57.1176 166.172 57.264C168.779 57.5948 171.733 57.3134 173.925 55.7355C174.297 55.9998 174.375 56.3895 174.503 56.7507C174.482 57.5757 174.89 58.2506 175.282 58.9274C176.398 60.8607 177.411 62.8492 178.529 64.7826C178.7 65.062 178.957 65.4727 178.624 65.7768C176.176 64.8605 173.514 64.5278 170.993 63.815C170.419 63.5925 169.497 63.7294 169.279 63.0222C168.832 61.8987 168.701 60.4444 167.632 59.7296C166.851 60.1726 167.408 61.2447 167.573 61.8816C167.659 62.2428 167.988 62.5679 167.742 62.9804Z" fill="#D52B1E"/>
<path d="M153.792 192.734C150.758 190.763 148.747 188.825 150.964 185.221C152.534 186.046 160.092 192.369 161.332 191.483C162.908 190.835 164.68 190.048 166.406 190.434C167.429 190.966 168.48 191.453 169.449 192.076C170.172 192.502 170.447 193.19 170.561 193.97C170.723 194.835 169.674 194.901 169.082 195.095C166.44 195.684 163.683 195.593 161.022 195.186C158.52 194.325 156.575 192.232 154.159 191.114C152.422 190.474 154.61 192.105 153.792 192.734Z" fill="#D52B1E"/>
<path d="M146.661 53.8478C147.499 54.7736 148.849 54.728 149.227 55.7754C151.016 61.0641 153.755 66.8281 152.398 72.4799C151.326 68.617 149.913 64.9023 147.795 61.4671C150.155 57.7981 147.062 59.4825 146.727 57.2373C146.864 56.0378 146.396 55.0873 146.661 53.8478Z" fill="#D52B1E"/>
<path d="M165.367 142.358C165.472 135.138 165.92 127.945 165.913 120.717C166.546 118.227 165.228 109.885 166.81 108.968C167.198 113.175 166.884 117.39 166.681 121.595C166.576 128.433 166.734 135.264 166.228 142.09C165.93 142.183 165.649 142.271 165.367 142.358Z" fill="#6A6969"/>
<path d="M124.821 53.2927C123.169 49.9677 123.439 45.928 123.022 42.2894C122.807 40.0652 122.307 37.8809 121.954 35.6757C121.893 35.2081 122.024 34.7252 121.572 34.3773C120.165 34.6568 118.334 34.5446 117.203 33.634C119.028 33.442 120.853 33.288 122.583 32.7196C123.674 39.5253 124.167 46.4394 124.821 53.2927Z" fill="#FCA6A6"/>
<path d="M178.694 65.7065C178.25 63.9803 173.584 57.6708 174.497 56.7526C177.223 61.0565 179.78 65.4783 182.502 69.7918C183.679 71.7746 184.804 73.7916 186.015 75.7554C186.209 76.0899 186.458 76.4207 186.344 76.8523C183.247 73.5939 181.236 69.3736 178.694 65.7065Z" fill="#FCA6A6"/>
<path d="M133.955 85.5324C134.453 88.7338 132.948 91.8838 132.22 94.973C131.44 97.4709 130.819 100.072 129.744 102.45C129.195 102.125 129.127 102.03 129.254 101.452C130.642 96.106 132.201 90.7641 133.955 85.5324Z" fill="#FCA6A6"/>
<path d="M132.338 105.879C133.397 105.961 133.041 107.267 133.013 107.97C132.484 113.588 132.631 119.276 133.049 124.893C131.631 118.746 131.011 112.118 132.338 105.879Z" fill="#6A6969"/>
<path d="M162.147 60.9652C162.162 61.1687 162.175 61.3721 162.192 61.6021C160.839 61.72 160.993 62.8397 160.803 63.8567C160.681 63.9119 160.679 63.9119 160.628 63.832C159.685 60.6459 158.305 57.4787 157.594 54.2812C158.447 54.5892 159.651 55.1956 160.056 56.0492C160.006 56.9027 160.626 57.5282 160.824 58.2981C159.63 59.3551 161.16 60.5451 162.147 60.9652Z" fill="#D52B1E"/>
<path d="M183.863 77.2039C179.694 77.51 175.808 75.6584 171.863 74.6261C171.842 74.4265 171.822 74.2288 171.797 74.0102C175.757 75.0311 179.895 76.0709 183.863 77.2039Z" fill="#FCA6A6"/>
<path d="M171.215 106.123C171.251 104.976 170.048 95.9768 171.377 96.1992C171.513 97.3227 172.405 106.229 171.215 106.123Z" fill="#FCA6A6"/>
<path d="M161.862 9.40334C161.602 9.66188 161.38 9.55542 161.167 9.43376C160.235 8.68285 157.671 8.35777 157.27 7.51941C158.543 7.55933 161.302 8.18667 161.862 9.40334Z" fill="white"/>
<path d="M148.005 10.8652C147.98 10.9641 147.988 11.0877 147.935 11.1257C147.009 11.7835 146.355 12.6921 145.653 13.559C145.42 13.8043 145.302 14.0666 144.906 14.078C145.003 13.1123 146.9 10.4432 148.005 10.8652Z" fill="white"/>
<path d="M143.966 42.7609C143.415 41.6583 143.153 40.4778 142.59 39.3752C142.807 37.7745 144.882 42.375 143.966 42.7609Z" fill="white"/>
<path d="M170.779 18.8401C170.809 17.4315 169.893 16.4619 168.798 15.7053C168.715 15.6426 168.616 15.538 168.502 15.7205C169.116 16.6596 169.867 17.5227 170.441 18.536C169.88 18.8819 169.524 18.7736 167.787 18.6025C166.047 18.4314 158.093 16.0931 153.189 13.7643C151.957 15.8042 150.561 17.6672 148.527 18.9694C148.24 19.1576 148.143 19.4142 148.084 19.7222C147.605 21.6442 147.484 23.8684 146.335 25.5166C144.849 26.7561 144.206 25.0945 143.786 23.9254C143.087 22.8437 141.353 23.1973 140.385 23.7353C136.509 25.8721 138.747 32.3831 143.043 31.0714C144.01 30.8395 144.839 30.0392 145.834 30.043C145.623 30.7577 144.969 31.0239 144.558 31.5505C146.21 36.7669 149.522 41.6165 149.035 47.3386C148.86 50.0609 148.489 53.3858 151.223 54.9314C150.824 55.0587 150.457 55.1747 150.052 55.304C150.535 56.3952 150.603 58.2297 152.035 58.416C153.9 58.5833 155.962 58.954 157.744 58.3171C157.514 57.2925 157.131 56.2925 156.833 55.285C156.413 54.266 156.428 53.057 155.552 52.2737C155.377 52.6007 155.215 52.9068 154.999 53.3155C154.289 51.4221 155.675 49.1636 156.118 47.2797C153.915 45.7322 151.132 44.5897 149.544 42.4054C170.406 50.2054 171.414 35.2803 170.779 18.8401Z" fill="#EED3CA"/>
<path d="M174.031 33.6207C174.514 34.7899 174.989 35.94 174.863 37.2042C174.32 37.9608 174.312 36.3468 174.204 36.037C174.164 35.3678 173.344 34.0333 174.031 33.6207Z" fill="white"/>
<path d="M145.714 10.7131C144.718 11.5857 144.355 12.4108 143.4 13.2377C143.174 12.3994 144.796 10.3139 145.714 10.7131Z" fill="white"/>
<path d="M167.742 62.9804C167.614 62.2941 166.464 60.4387 167.325 60.0794C167.643 61.0489 167.962 62.0185 168.268 62.9519C168.044 63.2142 167.897 63.0298 167.742 62.9804Z" fill="#FCA6A6"/>
<path d="M161.238 6.36168C160.381 6.00809 159.548 5.66591 158.664 5.30091C158.98 4.67166 161.82 5.6659 161.238 6.36168Z" fill="white"/>
<path d="M173.319 37.6718C172.81 37.6832 172.593 35.5522 172.874 35.2176C173.369 35.7575 173.534 36.9399 173.319 37.6718Z" fill="white"/>
<path d="M160.824 58.2981C160.324 57.8248 159.53 56.6613 160.056 56.0492C160.509 56.6062 160.837 57.2354 161.183 57.897C161.052 58.0434 160.938 58.1708 160.824 58.2981Z" fill="#FCA6A6"/>
<path d="M145.023 40.7971C145.818 41.202 146.153 42.797 145.944 43.3217C145.295 42.797 145.215 41.7686 145.023 40.7971Z" fill="white"/>
<path d="M173.774 55.5435C172.934 55.1082 172.373 54.6633 171.934 53.9999C172.869 54.1234 173.228 54.4067 173.774 55.5435Z" fill="#FCA6A6"/>
<path d="M162.147 60.9653C161.377 61.0451 160.408 60.338 160.438 59.5338C160.906 59.9901 162.212 60.2353 162.147 60.9653Z" fill="#FCA6A6"/>
<path d="M161.139 7.4453C160.492 7.73236 159.006 7.40728 158.711 6.77423C159.572 6.82176 160.266 7.0841 161.139 7.4453Z" fill="white"/>
<path d="M154.655 27.8929C157.693 28.9632 160.856 29.3434 163.997 29.8395C164.447 32.1664 163.324 34.5313 161.269 35.689C156.166 38.4227 151.819 31.9687 154.655 27.8929Z" fill="black"/>
<path d="M151.285 23.5186C151.154 22.973 150.498 22.6992 150.572 21.9731C151.061 22.167 151.414 22.5662 151.979 22.4863C152.07 22.0662 151.745 21.5966 152.112 21.1499C153.445 22.9236 154.196 21.6309 156.03 22.108C157.129 22.2392 159.11 23.6992 158.129 24.8246C157.779 24.9691 157.502 24.6668 157.292 24.4235C155.783 22.7297 153.283 23.6079 151.285 23.5186Z" fill="black"/>
<path d="M163.747 25.9747C163.784 24.3303 166.525 24.3246 167.696 24.7162C168.494 25.1288 168.821 25.1174 169.496 24.5318C169.989 25.0204 169.378 25.4843 169.451 25.9462C169.694 26.2998 170.025 25.893 170.327 26.085C170.557 26.9785 169.392 27.9518 168.753 27.1154C168.561 26.8473 168.35 26.5774 168.097 26.3701C166.858 25.2771 165.194 25.912 163.727 25.9538L163.747 25.9747Z" fill="black"/>
<path d="M159.178 20.3571C158.784 22.1251 156.976 17.8744 152.68 19.2659C149.612 19.0758 157.655 15.7509 159.178 20.3571Z" fill="black"/>
<path d="M142.35 26.7503C141.772 27.2579 141.297 27.7218 141.056 28.3738C140.997 28.5335 140.828 28.5981 140.681 28.5126C140.259 27.7997 141.063 26.9442 141.225 26.1895C137.493 24.7694 142.282 24.7333 143.523 26.3226C144.115 26.7104 144.333 27.9385 143.343 27.4613C142.991 27.2161 142.727 27.0032 142.35 26.7503Z" fill="black"/>
<path d="M168.018 20.6651C168.87 20.6841 170.345 21.0396 170.562 22.1175C170.621 22.5072 170.311 22.762 169.944 22.6213C168.993 21.9844 167.978 21.6974 166.847 21.8134C163.053 22.2582 166.165 20.437 168.018 20.6651Z" fill="black"/>
<path d="M163.726 25.9557C163.623 26.4785 164.277 26.8568 164.271 27.4062C164.308 27.737 163.941 27.9746 163.65 27.8111C162.792 26.9975 162.437 25.7143 161.8 24.7143C161.69 24.5033 161.602 24.2619 161.83 24.0185C162.754 23.9976 163.002 25.8531 163.745 25.9728C163.745 25.9747 163.726 25.9557 163.726 25.9557Z" fill="black"/>
<path d="M156.359 37.0806C157.574 37.5369 158.479 37.5654 159.648 37.5901C159.905 38.9075 156.361 38.2098 156.359 37.0806Z" fill="black"/>
<path d="M155.078 32.7576C157.133 33.02 158.975 33.3755 160.378 34.7822C160.365 35.1073 160.158 35.1415 159.998 35.1872C157.962 35.786 155.852 34.7651 155.078 32.7576Z" fill="#EF6261"/>
<path d="M162.921 30.7558C162.626 32.6531 155.854 30.2616 154.655 29.5677C154.528 29.2312 154.605 28.9651 154.83 28.6989C157.379 29.984 160.105 30.5106 162.921 30.7558Z" fill="white"/>
</svg>
