<svg width="308" height="200" viewBox="0 0 308 200" fill="none" xmlns="http://www.w3.org/2000/svg">
<g clip-path="url(#clip0_2441_72299)">
<path d="M147.028 191.437C146.709 193.849 147.034 194.05 149.371 194.612C148.114 197.397 149.61 198.185 152.269 198.547C155.315 198.879 161.996 199.542 164.018 197.035C167.206 197.418 169.943 198.388 170.212 194.224C182.186 196.589 169.859 198.762 165.277 199.126C162.106 199.411 158.966 200.34 155.757 199.869C150.998 199.681 149.948 198.562 146.109 196.403C139.713 194.527 142.251 192.777 147.028 191.437Z" fill="#CCCCCC"/>
<path d="M115.925 29.0113C116.16 29.6196 116.355 30.2376 116.425 30.9007C115.63 31.3955 114.65 31.7827 115.03 32.8585C115.505 34.7713 115.963 36.6899 116.475 38.5929C117.937 43.5021 118.857 48.6068 120.967 53.3067C122.335 56.5162 125.786 57.8344 129.053 58.515C133.109 59.3208 137.127 59.9956 141.246 60.4885C139.172 65.0319 139.224 69.851 139.471 74.7152C139.561 80.5964 139.846 86.4639 140.585 92.304C140.682 96.1159 139.366 99.83 138.662 103.554C138.154 105.06 139.071 105.322 140.258 105.985C140.74 118.835 141.157 131.773 143.214 144.495C144.015 145.035 144.967 145.035 145.702 145.385C148.471 156.94 152.406 168.175 155.735 179.583C156.647 182.321 151.446 187.586 149.141 188.967C148.167 189.567 147.42 190.36 147.027 191.435C145.455 194.79 149.123 193.833 148.78 195.625C148.505 197.199 149.013 197.944 150.573 198.455C153.981 199.235 161.167 199.875 163.938 197.592C165.145 197.074 166.603 197.958 167.92 197.635C169.723 197.344 170.623 196.018 170.209 194.222C171.044 190.913 171.382 189.102 169.498 186.049C169.024 185.065 169.418 183.952 169.438 182.912C169.653 180.578 169.876 178.245 170.099 175.912C170.852 165.976 172.689 156.031 171.601 146.058C174.645 145.595 173.968 143.433 174.5 141.143C174.956 138.62 175.428 136.101 175.898 133.58C177.546 124.163 179.896 114.831 180.173 105.248C181.335 104.759 183.108 104.788 182.279 103.135C181.713 101.346 180.988 99.4506 180.574 97.6434C181 97.2288 181.335 96.9002 181.727 96.5188C182.55 97.0547 183.492 96.6674 184.215 96.0377C186.715 94.0799 189.251 92.1632 191.638 90.0665C197.674 85.2317 202.706 80.6257 198.036 72.7222C193.271 66.0841 189.014 58.9375 183.885 52.6339C185.403 52.1586 185.594 52.1879 185.249 50.547C185.351 50.1402 185.817 50.7445 186.036 50.8365C187.709 52.1214 191.004 52.9664 192.273 50.7817C189.14 50.3671 187.462 47.4157 188.134 44.5426C188.638 41.29 190.831 38.3191 190.255 34.9238C189.809 31.3114 187.211 28.3639 187.034 24.6694C186.018 18.2132 186.644 10.8123 182.114 5.51006C177 0.20389 165.522 -2.22134 159.392 2.58805C154.42 2.19688 151.579 6.97302 149.477 10.6461C146.928 15.6726 142.461 19.7779 141.031 25.2913C139.794 29.3556 143.77 33.3533 141.9 37.2865C141.21 38.5695 138.583 42.3384 137.103 40.5214C136.977 40.4119 136.925 40.1596 136.662 40.2847C136.409 42.9271 139.234 44.0243 141.481 43.3221C141.137 44.1475 140.204 44.214 139.76 44.8223C137.013 44.8829 134.334 45.1235 131.581 45.1645C130.224 41.515 129.037 37.8713 127.754 34.206C127.023 32.7274 126.668 29.1932 124.951 28.7727M178.086 87.4613C177.058 85.0048 178.508 82.4486 178.815 79.9647C179.372 77.4866 179.635 75.1944 180.406 72.7281C182.347 75.1161 184.219 77.2832 185.805 79.6322C185.038 80.7274 179.054 86.7964 178.086 87.4613Z" fill="black"/>
<path d="M172.909 144.18C172.449 145.368 168.71 145.372 167.463 145.659C159.961 146.436 152.301 145.819 144.976 144.12C143.514 143.825 143.976 141.118 143.556 139.958C143.235 137.364 142.741 134.769 142.777 132.152C142.181 124.102 142.157 115.874 142.004 107.867C152.134 105.68 150.116 103.043 149.978 94.6119C153.068 94.9131 156.122 95.0246 159.244 94.9502C159.831 97.8234 157.377 103.839 160.612 105.461C162.841 108.26 165.823 107.71 169.062 107.403C172.134 107.219 175.224 107.387 178.302 107.354C178.545 107.356 178.826 107.27 179.007 107.53C178.108 109.005 177.959 110.679 177.79 112.318C176.877 122.96 172.612 133.609 172.909 144.18Z" fill="black"/>
<path d="M180.181 104.121C175.137 105.594 169.895 106.742 164.599 106.591C161.849 106.695 161.104 103.881 161.1 101.7C161.089 96.8552 161.112 92.0107 160.748 87.1758C160.762 84.7115 160.652 82.2276 160.786 79.7711C162.266 73.2679 164.774 67.0386 167.69 61.0283C168.501 59.7649 167.126 59.9272 166.838 58.9258C169.772 57.2614 168.806 55.0102 168.947 52.2075C169.603 52.4637 169.559 53.3556 170.344 53.424C172.439 53.7116 174.676 54.181 176.68 53.2813C178.282 52.583 180.101 53.428 181.794 53.0231C182.432 52.939 182.918 53.1229 183.288 53.6001C183.537 54.6973 184.284 55.5403 184.86 56.4654C187.88 61.3256 190.806 66.2582 194.492 70.6745C196.99 74.2087 200.157 79.11 197.46 83.2407C193.496 87.8349 188.304 91.3574 183.625 95.2417C181.571 96.8846 178.461 92.838 177.979 91.0503C177.282 89.3018 178.694 88.4295 179.796 87.3108C182.119 84.9364 184.501 82.6187 186.719 80.1544C188.149 78.49 186.727 79.2723 186.067 78.2338C184.511 76.4598 178.89 68.2962 177.137 68.3275C177.378 69.1861 177.918 69.988 178.053 70.9072C178.372 72.4093 179.107 73.9466 178.75 75.4937C178.103 78.58 177.302 81.6428 176.738 84.7408C176.549 85.9378 177.161 87.0018 177.045 88.2026C175.26 87.3245 172.902 84.0152 171.186 86.8023C169.533 86.6438 167.766 86.503 166.152 86.9666C164.672 87.4653 164.957 89.7947 166.549 89.8729C167.292 89.9218 167.921 89.8886 168.702 89.9238C168.563 90.266 168.294 90.3208 168.077 90.3932C167.366 90.6318 166.766 91.0484 166.168 91.4689C165.114 92.2336 165.354 93.8648 166.628 94.2931C166.796 94.9327 166.989 95.6074 167.77 95.8578C168.531 99.7518 172.643 94.9972 175.109 96.6831C176.543 97.2405 177.926 97.9388 179.515 97.974C179.563 98.15 179.603 98.2947 179.643 98.4414C178.625 100.29 180.79 102.259 180.181 104.121Z" fill="#D52B1E"/>
<path d="M141.468 94.784C141.868 90.9173 140.898 87.0897 140.787 83.227C140.741 76.98 139.695 70.5082 141.02 64.361C142.077 60.1169 144.737 56.3147 145.261 51.9669C144.631 52.3053 144.524 52.982 144.217 53.555C143.221 55.6771 141.514 57.4413 140.02 59.2465C137.087 59.2054 134.205 58.3664 131.302 57.9557C127.946 57.2516 123.76 56.655 122.057 53.3614C120.74 50.5568 119.971 47.5213 119.147 44.5504C118.292 40.6798 116.641 36.8053 116.258 32.9191C118.232 32.7665 120.185 32.526 122.081 31.9255C123.246 31.949 125.071 31.2664 125.485 32.788C126.4 35.5458 127.436 38.2644 128.408 41.0045C129.286 42.5965 129.928 46.5923 132.336 46.0955C134.316 45.8393 136.308 45.9566 138.295 45.9058C139.151 45.9801 140.165 45.4736 140.892 46.0623C142.139 47.1712 143.58 47.9927 145.145 48.5775C148.245 50.0502 150.353 47.7717 152.612 49.2385C151.359 51.2296 149.548 52.7845 148.064 54.5995C147.311 55.4581 148.48 56.0253 149.028 56.6609C148.117 58.0926 145.94 58.6969 145.845 60.5921C145.315 66.4948 146.004 72.4014 147.586 78.1105C147.833 82.3488 148.072 86.5812 148.416 90.8136C148.831 93.9997 148.98 97.2131 149.253 100.415C149.494 103.108 147.96 105.752 145.01 105.795C143.593 105.831 139.422 105.709 140.46 103.525C140.904 100.669 141.956 97.661 141.468 94.784Z" fill="#D52B1E"/>
<path d="M164.405 55.8355C162.632 60.5882 160.216 65.1825 159.722 70.2813C158.997 78.1183 160.385 85.9788 159.503 93.8119C157.104 94.0955 151.815 94.3498 149.748 93.2858C148.867 86.2585 148.678 79.1608 148.505 72.0865C148.363 66.0567 151.036 60.3868 153.576 55.02C156.983 56.6042 160.826 56.2306 164.405 55.8355Z" fill="white"/>
<path d="M169.005 187.269C166.706 189.638 163.686 191.109 160.959 192.961C159.393 192.1 157.779 191.345 155.964 191.195C155.821 190.929 156.046 190.841 156.18 190.735C157.536 189.669 158.753 188.468 159.827 187.136C160.439 186.17 161.512 185.259 161.53 184.062C161.453 182.47 161.445 180.872 161.333 179.284C160.915 169.229 159.897 159.168 159.13 149.144C160.359 148.237 161.986 148.151 163.391 147.554C165.722 146.657 168.14 146.688 170.606 146.275C171.905 156.51 169.538 166.858 168.979 177.101C168.839 178.689 168.708 180.277 168.566 181.865C168.385 183.739 167.961 185.548 169.005 187.269Z" fill="#EED3CA"/>
<path d="M156.863 188.879C155.566 188.087 154.237 187.67 152.731 187.52C154.219 185.057 157.271 182.701 156.807 179.595C153.677 168.892 150.263 158.276 147.141 147.574C150.612 146.557 154.323 146.563 157.96 146.973C158.576 155.231 159.379 163.475 159.909 171.74C160.17 175.795 160.361 179.853 160.522 183.913C160.273 185.99 158.253 187.355 156.863 188.879Z" fill="#EED3CA"/>
<path d="M122.026 31.419C120.867 31.419 119.636 31.2234 118.548 31.0493C118.024 30.9652 117.53 30.887 117.094 30.8381C116.701 30.7931 116.369 30.5271 116.251 30.1594L115.998 29.3712C115.954 29.2363 115.942 29.0974 115.96 28.9644C113.6 28.0686 112.719 25.6884 111.982 23.6993C111.785 23.1673 111.598 22.6647 111.389 22.1816C111.381 22.164 111.375 22.1464 111.367 22.1288C111.024 21.1861 110.598 20.2825 110.149 19.3222C109.711 18.3931 109.261 17.4328 108.894 16.4412C108.863 16.3591 108.845 16.273 108.837 16.187C108.775 15.4164 109.04 14.9626 109.273 14.7162C109.542 14.4326 109.908 14.2761 110.301 14.2761C110.723 14.2761 111.128 14.456 111.46 14.7748C111.283 14.0316 111.269 13.3686 111.56 12.8347C111.799 12.3985 112.217 12.1012 112.741 11.9976C112.807 11.9839 112.873 11.978 112.942 11.978C112.97 11.978 113 11.98 113.028 11.9819C113.422 12.0152 113.749 12.1853 114.034 12.4611C114.03 11.8646 114.227 11.2328 114.954 10.8104C114.978 10.7967 115.002 10.7849 115.026 10.7732C115.227 10.6774 115.442 10.6304 115.669 10.6304C116.327 10.6304 116.964 11.0529 117.295 11.7061C117.313 11.7413 117.331 11.7746 117.347 11.8098C117.365 11.3404 117.476 10.9668 117.709 10.6774C117.96 10.3644 118.339 10.1865 118.749 10.1865C118.968 10.1865 119.195 10.2373 119.423 10.3371C120.401 10.7634 121.217 12.201 122.401 18.0704C122.496 17.8044 122.582 17.5013 122.676 17.159C122.861 16.494 123.052 15.8056 123.411 15.1817C123.476 15.0702 123.564 14.9704 123.666 14.8922C124.09 14.5695 124.494 14.4111 124.895 14.4111C125.319 14.4111 125.706 14.589 125.984 14.9137C126.706 15.7606 126.672 17.5091 125.845 21.8413C125.781 22.1816 125.718 22.5023 125.706 22.6079C125.704 22.6236 125.702 22.6412 125.698 22.6568C125.469 23.9829 124.751 25.0351 124.058 25.9642C124.194 26.0795 124.301 26.2301 124.359 26.4081C124.717 27.4995 124.955 28.5498 125.231 29.8113C125.325 30.2435 125.11 30.6836 124.706 30.885C123.996 31.2449 123.118 31.419 122.026 31.419Z" fill="black"/>
<path d="M121.615 19.2596C120.535 19.772 117.589 21.9097 118.603 23.1712C118.942 23.0539 119.151 22.7801 119.324 22.4867C119.936 21.4462 120.826 20.7049 121.93 20.2062C123.621 19.3847 123.446 17.1179 124.29 15.6628C126.661 13.8536 124.82 21.5909 124.713 22.4984C124.398 24.3232 122.952 25.5749 122.043 27.0907C122.643 27.4193 122.9 26.7543 123.406 26.7074C123.765 27.8007 124.012 28.9155 124.253 30.0166C122.408 30.9398 119.292 30.0988 117.213 29.866C117.127 29.5961 117.043 29.338 116.96 29.0778C117.336 28.851 117.978 29.0778 117.956 28.3463C114.053 28.2544 113.555 24.6537 112.318 21.8002C111.611 19.86 110.555 18.0372 109.842 16.1107C109.754 15.0193 110.637 14.9978 111.055 15.9014C111.573 16.3571 113.531 21.0159 114.115 19.3534C114.201 18.043 111.055 13.3334 112.944 12.9579C114.258 13.0674 115.113 18.9212 116.4 18.4929C116.565 18.3481 116.701 18.0606 116.583 17.8396C116.011 16.5742 115.802 15.2012 115.348 13.8986C115.207 13.2023 114.657 12.1227 115.47 11.6533C115.76 11.5164 116.179 11.7061 116.398 12.1384C117.127 13.5348 117.499 15.0663 117.968 16.5566C118.179 17.9315 119.549 17.9355 119.227 16.4471C119.231 15.7097 117.41 10.5268 119.019 11.2289C120.139 11.7198 121.145 16.8206 121.615 19.2596Z" fill="#EED3CA"/>
<path d="M165.121 196.299C165.814 195.324 166.597 194.903 167.212 193.98C166.79 192.775 163.832 196.155 163.232 196.569C160.71 198.621 153.188 198.126 150.206 196.966C149.252 196.01 150.802 194.449 151.686 193.896C152.917 193.34 153.929 191.954 155.36 192.053C157.111 192.175 158.734 192.802 160.218 193.696C161.68 194.35 163.479 192.21 164.838 191.662C166.443 190.716 167.951 189.62 169.364 188.427C170.971 189.695 168.993 193.878 168.846 195.721C168.324 197.027 166.354 196.247 165.121 196.299Z" fill="#D52B1E"/>
<path d="M168.82 95.4646C170.131 94.5415 171.354 93.8784 172.848 93.3816C172.452 92.6658 170.537 93.5929 169.99 93.9527C169.34 94.2676 168.713 95.2514 167.926 94.8622C166.711 93.9215 170.751 92.4565 171.466 92.1808C172.017 92.0791 172.689 91.3984 171.665 91.4904C170.27 91.6605 169.103 92.4428 167.868 93.0276C167.117 93.4403 165.958 93.2291 166.788 92.2668C168.227 91.197 169.994 90.5066 171.81 90.3012C172.253 90.2895 172.597 90.1702 172.89 89.8162C171.043 88.7678 168.711 89.0906 166.643 88.8871C164.673 87.2951 170.288 87.6237 171.039 87.8193C173.01 88.14 174.834 88.9263 176.775 89.4739C176.908 92.1104 177.952 94.5864 179.404 96.8141C178.217 97.1407 176.982 96.3447 175.876 95.9672C172.442 93.9919 168.468 98.3944 168.82 95.4646Z" fill="#EED3CA"/>
<path d="M148.936 55.1764C150.552 53.2832 152.106 51.4604 153.719 49.571C154.064 49.4478 154.42 49.796 154.94 49.6532C151.723 56.9132 147.59 63.9092 147.347 72.0259C146.422 68.4429 146.98 64.8128 146.823 61.1691C146.739 59.4636 148.552 58.7654 149.562 57.6662C151.114 56.4966 149.948 56.1563 148.936 55.1764Z" fill="#D52B1E"/>
<path d="M167.26 57.2516C166.155 58.2765 165.111 58.3156 165.587 60.068C166.88 61.4918 164.503 64.3395 164.181 66.0509L164.191 66.0333C163.109 69.1274 161.76 72.245 160.844 75.4389C160.764 75.5836 160.752 75.8007 160.529 75.7831C159.971 67.9344 163.408 60.6939 166.434 53.6216C166.995 53.8641 167.918 54.2279 167.878 54.9203C167.454 55.3114 167.709 55.8473 167.575 56.305C167.478 56.6257 167.43 56.9563 167.26 57.2516Z" fill="#D52B1E"/>
<path d="M172.91 144.18C171.436 143.926 172.886 140.586 172.82 139.524C173.344 135.041 174.187 130.609 175.045 126.175C175.944 122.381 176.689 118.571 177.223 114.712C177.801 112.5 177.179 109.142 179.006 107.532C178.88 115.062 176.771 122.408 175.555 129.815C174.645 134.593 173.89 139.43 172.91 144.18Z" fill="#6A6969"/>
<path d="M198.605 80.0761C198.159 78.132 197.414 76.272 196.639 74.4394C196.416 73.3148 195.627 72.5266 194.934 71.6739C193.601 70.0056 192.298 68.3079 191.071 66.5652C188.936 63.4613 186.959 60.2596 184.957 57.0736C184.557 56.125 182.842 54.533 183.294 53.5981C187.884 58.6363 190.985 64.8148 195.107 70.2207C197.328 73.0997 199.364 76.319 198.605 80.0761Z" fill="#FCA6A6"/>
<path d="M155.906 189.646C154.331 191.077 152.522 192.231 150.717 193.358C149.934 194.041 148.954 193.342 148.054 193.231C147.406 190.866 150.016 189.374 151.823 188.47C153.064 188.441 155.171 188.621 155.906 189.646Z" fill="#D52B1E"/>
<path d="M142.004 107.865C142.928 115.893 142.444 124.063 142.777 132.15C142.426 131.276 142.631 130.21 142.428 129.308C141.775 122.285 141.697 115.197 141.273 108.168C141.482 107.841 141.753 107.878 142.004 107.865Z" fill="#6A6969"/>
<path d="M130.791 45.761C129.674 45.3816 128.99 42.6767 128.373 41.6323C127.132 38.4736 126.166 35.2289 124.915 32.0683C124.066 31.9587 123.09 32.3128 122.363 31.8883C123.401 31.5343 124.369 30.8967 125.44 30.7188C127.405 35.6474 128.715 40.8578 130.791 45.761Z" fill="#FCA6A6"/>
<path d="M141.469 94.784C142.844 95.7267 140.646 103.036 140.459 104.878C140.043 104.923 139.867 104.573 139.531 104.375C140.158 101.17 140.935 98.0033 141.469 94.784Z" fill="#FCA6A6"/>
<path d="M180.182 104.121C179.929 102.836 179.651 101.559 179.214 100.319C178.919 99.5934 178.834 98.8756 179.643 98.4434C180.278 100.159 180.943 101.948 181.296 103.73C180.991 104.002 180.613 104.125 180.182 104.121Z" fill="#FCA6A6"/>
<path d="M164.176 66.0529C164.539 64.3004 165.381 62.6986 165.945 60.9833C165.638 60.5765 164.688 59.9272 165.559 59.6143C166.031 59.7629 166.375 60.0758 166.73 60.4553C165.995 62.3505 165.166 64.2691 164.176 66.0529Z" fill="#FCA6A6"/>
<path d="M168.581 10.5111C167.244 10.2099 166.393 8.8213 165.276 8.06244C165.009 7.81992 164.784 7.67518 164.971 7.26837C166.489 8.04484 167.979 8.88976 168.581 10.5111Z" fill="white"/>
<path d="M176.748 38.6712C176.045 39.9248 175.678 41.1785 175.063 42.4557C174.383 42.086 175.927 38.1724 176.748 38.6712Z" fill="white"/>
<path d="M171.18 9.25742C170.903 9.14203 170.732 9.12051 170.644 9.02468C170.054 8.34405 169.24 7.94506 168.521 7.44437C168.24 6.20046 171.425 8.49269 171.18 9.25742Z" fill="white"/>
<path d="M173.699 41.9453C173.199 41.3487 173.785 40.1811 174.064 39.5102C175.285 38.2077 174.099 41.648 173.699 41.9453Z" fill="white"/>
<path d="M174.782 87.833C173.838 87.6237 173.106 87.3499 172.387 87.1328C172.525 85.9495 174.28 87.2814 174.782 87.833Z" fill="#EED3CA"/>
<path d="M169.695 9.73073C169.404 9.84026 167.398 8.21692 168.275 8.17194C168.847 8.49856 169.761 9.02468 169.695 9.73073Z" fill="white"/>
<path d="M167.258 57.2516C167.161 56.5651 167.453 55.9177 167.471 55.241C167.477 55.0141 167.687 54.9652 167.874 54.9202C167.774 55.7065 168.165 56.8272 167.258 57.2516Z" fill="#FCA6A6"/>
<path d="M163.984 66.6122C164.012 66.4049 163.956 66.1702 164.191 66.0333C164.121 66.2269 164.053 66.4186 163.984 66.6122Z" fill="#D52B1E"/>
<path d="M178.589 25.8859C178.165 26.5861 177.84 27.2217 177.398 27.8672C176.059 29.4612 174.402 26.811 174.547 25.5045C174.282 23.9672 175.356 18.3364 173.96 17.1942C173.928 17.1668 173.802 17.0534 173.774 17.0201C173.539 16.7385 173.213 16.2789 173.045 16.138L172.689 15.874C172.647 15.8544 172.605 15.8349 172.565 15.8153C172.587 15.8544 172.629 15.9346 172.629 15.9346C172.629 15.9346 172.786 16.1987 172.894 16.3043C173.003 16.4099 173.288 16.8148 173.485 17.069C174.641 19.4121 165.208 16.1146 164.194 15.9288C161.065 15.0056 158.517 13.304 156.204 11.0783C151.571 16.2358 152.489 10.9844 149.79 20.4683C149.79 20.478 149.71 20.6854 149.71 20.7714C149.041 26.1343 146.142 32.7919 150.495 37.3041C152.75 39.6119 156.111 40.6309 159.322 40.6407C160.848 40.7404 162.509 40.316 163.969 40.6622C164.009 41.0475 163.748 41.1492 163.505 41.1883C161.288 41.8787 159.298 43.1872 157.266 44.2766C157.234 45.0257 157.469 52.5967 155.812 50.2086C155.16 51.5327 154.537 52.7571 154.013 54.046C157.061 55.6263 160.913 55.3798 164.212 54.7462C165.264 54.6288 165.366 53.469 165.738 52.7082C161.063 44.5817 170.183 37.8556 175.563 32.8369C175.179 32.3578 173.705 30.797 174.509 30.3608C176.346 32.5279 179.199 34.4309 182.177 32.1993C185.581 29.5746 182.37 24.9804 178.589 25.8859Z" fill="#EED3CA"/>
<path d="M161.839 27.3743C164.029 26.3612 164.622 29.9756 163.009 28.6534C161.361 30.3218 159.244 31.018 156.907 30.6425C155.606 30.3961 153.847 29.8954 153.371 28.5713C153.596 28.364 153.791 28.5107 153.978 28.6221C156.437 30.1809 160.034 29.8719 162.136 27.9083C162.058 27.7655 161.973 27.6149 161.839 27.3743Z" fill="black"/>
<path d="M168.892 22.2598C169.313 22.7135 168.902 23.1047 168.711 23.5252C169.243 23.7638 169.697 23.5878 170.113 23.4763C170.649 23.9242 169.685 24.9549 169.167 25.1818C167.386 23.8636 165.305 22.6294 163.026 23.5937C162.836 23.6347 162.631 23.6523 162.516 23.4548C162.476 22.4847 164.073 22.2383 164.86 22.1346C166.348 22.027 167.556 22.9267 168.892 22.2598Z" fill="black"/>
<path d="M163.413 19.7016C162.871 18.8234 164.088 18.4088 164.718 18.1662C166.353 17.7301 168.204 17.9511 169.513 19.0405C169.756 19.373 170.306 19.946 169.903 20.3333C169.73 20.4839 169.541 20.3959 169.389 20.2688C167.714 18.8371 165.365 18.8195 163.413 19.7016Z" fill="black"/>
<path d="M178.972 29.3907C178.436 29.8406 176.615 31.0082 177.219 29.467C179.171 26.6232 183.863 28.3776 180.291 29.1091C180.448 29.8191 180.87 30.8733 180.277 31.4189C180.103 31.4796 180.012 31.3153 179.96 31.1549C179.739 30.4762 179.613 29.8895 178.972 29.3907Z" fill="black"/>
<path d="M154.069 16.1811C155.33 16.271 157.033 16.7796 157.424 18.0841C157.44 18.3481 157.173 18.575 156.916 18.487C155.36 17.601 153.844 16.8734 152.045 17.6127C151.013 16.8754 153.445 16.1048 154.069 16.1811Z" fill="black"/>
<path d="M155.192 25.6336C154.945 25.3324 154.931 25.0938 155.21 24.8356C155.766 24.5246 158.214 21.1313 158.359 22.8016C157.65 23.7834 156.527 24.5403 155.664 25.4243C155.56 25.5221 155.387 25.5515 155.192 25.6336Z" fill="black"/>
<path d="M155.668 32.1328C156.843 32.4751 157.523 32.434 158.688 32.4633C158.373 33.8344 155.762 33.3826 155.668 32.1328Z" fill="black"/>
<path d="M149.793 20.4683C150.803 20.3314 150.39 21.1567 151.558 20.7264C151.412 20.3842 151.052 19.3945 151.721 19.4708C152.333 19.9969 152.922 20.4546 153.799 20.4937C155.217 20.3098 157.689 23.0637 155.827 23.0108C154.484 21.6515 152.795 21.409 150.988 21.9527C150.54 21.5811 150.245 21.1489 149.978 20.6756C149.882 20.7108 149.797 20.7421 149.711 20.7753C149.739 20.6717 149.765 20.57 149.793 20.4683Z" fill="black"/>
</g>
<defs>
<clipPath id="clip0_2441_72299">
<rect width="308" height="200" fill="white"/>
</clipPath>
</defs>
</svg>
