<svg width="300" height="200" viewBox="0 0 300 200" fill="none" xmlns="http://www.w3.org/2000/svg">
<path d="M147.22 193.786C147.058 194.672 146.594 195.881 147.696 196.325C149.886 197.288 152.319 197.094 154.654 197.077C155.09 199.565 160.193 199.178 162.151 199.165C163.962 199.214 165.124 198.276 166.435 197.143C167.39 197.576 168.383 197.565 169.403 197.428C170.852 197.323 171.363 196.983 171.518 195.494C173.673 195.775 175.986 195.683 177.981 196.639C179.588 198.216 176.073 198.916 174.984 199.123C170.089 199.858 165.104 200.069 160.164 199.981C156.428 199.927 152.915 198.532 149.313 197.692C147.471 197.188 145.398 197.143 143.798 195.999C142.506 194.39 146.136 193.695 147.22 193.786Z" fill="#CCCCCC"/>
<path d="M188.116 126.698C186.927 126.393 186.276 125.218 185.421 124.422C185.001 124.058 185.141 123.492 185.683 123.378C187.871 122.459 189.816 121.168 191.562 119.565C192.031 119.223 192.66 118.399 193.248 118.959C194.03 119.688 194.772 120.468 195.681 121.05C195.988 121.237 195.995 121.536 195.719 121.774C193.419 123.745 191.016 125.667 188.116 126.698Z" fill="black"/>
<path d="M192.793 119.903C191.901 120.636 188.969 122.781 188.349 123.194C187.829 123.563 186.407 123.845 186.643 124.287C187.065 124.831 187.491 125.371 188.113 125.685C190.528 124.663 192.566 123.134 194.45 121.385C193.932 120.845 193.414 120.332 192.793 119.903Z" fill="#D6E3F2"/>
<path d="M199.563 109.556C199.723 107.628 197.128 106.332 195.412 104.206C192.922 101.769 190.631 99.007 188.378 96.3539C184.108 89.9639 181.346 82.7811 177.204 76.3256C177.742 75.9092 178.462 75.8619 178.995 75.38C178.679 74.7253 178.135 74.1507 178.302 73.2542C179.61 74.5708 182.039 75.2291 183.592 74.2071C175.347 70.6557 188.667 61.5816 183.861 52.013C181.377 45.9812 182.812 38.3983 177.831 33.4813C173.176 28.4442 158.979 23.6417 154.753 31.1755C144.297 32.4047 145.79 45.1229 143.257 52.5895C141.837 46.4668 140.813 39.8694 139.762 33.6249C144.028 31.6919 148.203 33.5194 142.288 28.6515C140.48 27.7222 138.238 29.1479 136.562 29.908C135.905 30.2408 135.601 30.8372 136.131 31.4701C129.355 32.6193 122.661 33.7558 115.97 34.8924C115.166 33.7104 113.897 32.9703 112.513 33.5358C111.623 33.8486 110.654 33.5504 109.829 34.1213C109.209 34.3905 108.408 34.1941 107.832 34.6196C107.505 34.8287 107.183 34.9615 106.792 35.0015C105.959 35.0306 105.493 35.6688 105.066 36.3144C100.742 36.5981 96.4086 36.7635 92.077 36.9618C88.3656 37.4727 81.3027 35.6379 81.7446 41.4697C80.6208 42.5771 80.3808 43.8918 80.6717 45.4048C81.1209 47.7451 81.4864 50.1 81.8828 52.4512C82.4465 55.8045 83.0012 59.1613 83.5685 62.5145C83.8777 64.2457 83.9649 66.3369 85.8143 67.1424C88.5383 68.2553 91.5751 66.8151 94.3901 66.6369C100.953 65.5731 107.507 64.4348 114.08 63.4401C117.292 66.6806 120.085 70.5666 124.62 71.994C129.63 73.9234 134.803 75.5782 139.737 77.6058C137.02 84.5195 138.904 91.8569 139.271 99.007C139.6 102.473 138.631 105.879 138.2 109.298C137.764 113.567 135.954 114.566 140.833 116.522C138.647 127.142 136.142 137.729 135.236 148.556C135.496 148.772 135.78 149.009 136.105 149.28C135.874 155.248 140.017 160.079 142.499 165.2C146.383 172.147 150.291 179.099 154.668 185.739C153.644 187.451 152.262 188.809 150.985 190.316C149.945 191.713 148.221 192.37 147.225 193.79C145.041 197.454 151.184 197.414 153.415 197.317C154.937 197.187 154.584 198.829 157.265 199.18C160.09 199.412 163.687 200.158 165.893 197.916C166.606 197.057 168.423 198.321 170.503 197.459C171.463 197.217 171.754 196.537 171.521 195.495C172.225 191.917 173.4 190.015 171.143 186.672C168.953 182.183 168.655 177.002 167.448 172.192C166.14 166.224 165.859 159.945 163.267 154.331C163.113 153.668 161.831 151.869 162.787 151.544C163.224 151.344 163.436 150.973 163.651 150.598C166.182 146.352 168.373 141.92 170.61 137.514C174.491 129.891 177.933 121.919 175.88 113.222C176.256 112.765 176.973 112.493 176.858 111.84C176.285 110.11 175.345 108.507 174.702 106.797C173.212 103.053 172.629 99.0798 173.33 95.0937C173.341 94.9864 173.327 94.8555 173.527 94.8428C177.824 101.202 183.146 106.79 188.716 112.047C189.947 113.198 191.186 114.346 192.371 115.542C193.086 116.379 193.875 115.662 194.65 115.518M140.446 61.7908C139.864 61.7308 139.622 61.6435 138.94 61.5253C139.442 61.2743 141.391 61.1216 140.446 61.7908Z" fill="black"/>
<path d="M118.32 103.697C119.637 101.922 120.929 100.129 122.588 98.647C123.308 98.3069 123.779 96.2194 124.637 97.3013C127.616 101.969 126.103 100.287 123.295 104.548C124.892 105.697 117.22 115.779 116.211 117.55C116.987 118.361 118.329 118.348 117.542 119.785C116.398 122.814 116.292 122.783 113.93 120.616C113.485 121.15 113.074 121.547 112.325 121.196C110.584 120.963 108.933 120.394 107.282 119.837C104.554 118.994 102.03 117.752 99.6155 116.231C98.6717 116.964 97.6315 120.572 96.2241 119.206C93.0636 115.762 91.8525 116.964 95.5076 113.258C86.1172 103.911 85.448 108.758 95.3839 100.311C95.2585 98.9925 96.4495 98.196 97.0405 97.1359C97.3806 96.4394 98.0407 96.1284 98.6208 96.8067C99.5027 96.3194 101.052 92.6661 101.998 93.759C106.38 98.5015 111.826 102.597 118.32 103.697Z" fill="black"/>
<path d="M177.136 24.1745C174.561 24.9582 171.731 26.2802 169.031 25.691C168.074 24.9 167.847 23.5035 167.216 22.4615C166.932 22.0378 167.131 21.3868 167.709 21.5214C169.336 21.7487 170.893 21.7578 172.524 21.3559C159.031 9.10685 162.395 14.9786 170.136 7.14293C180.043 -5.61526 168.613 0.225577 191.554 12.8237C193.523 13.8439 195.547 14.7058 197.722 15.175C198.164 15.2223 198.55 15.4059 198.386 15.9333C197.157 21.0267 194.556 25.8711 190.801 29.5425C190.054 30.5608 186.566 28.3751 185.386 28.1405C182.533 27.0331 179.845 25.5928 177.136 24.1745Z" fill="black"/>
<path d="M191.164 70.6648C194.59 65.2968 196.894 59.2468 198.192 53.0023C198.751 50.2891 199.12 47.5615 199.045 44.7847C199.032 44.4501 199.003 44.0119 199.4 43.8955C205.182 47.7852 208.443 55.1571 214.826 58.5485C215.315 58.8031 215.375 58.9668 215.255 59.5432C213.851 66.7224 212.487 73.9598 212.467 81.2954C212.385 82.0846 211.46 81.9191 210.881 81.8628C203.34 80.6462 196.108 76.4184 191.164 70.6648Z" fill="black"/>
<path d="M204.105 133.383C205.57 133.383 211.062 133.781 211.537 135.19C211.378 136.229 212.304 140.493 210.407 139.786C209.502 139.207 208.636 138.558 207.565 138.309C204.459 137.429 201.015 136.656 197.927 138.007C196.085 138.802 194.289 139.689 192.583 140.744C192.014 141.095 191.725 141.159 191.292 140.502C191.004 139.782 189.568 138.475 190.135 137.785C194.21 134.987 199.117 133.208 204.105 133.383Z" fill="black"/>
<path d="M195.289 97.1286C197.142 91.8933 203.561 90.8877 208.349 89.7966C211.628 89.062 212.297 86.0706 213.253 86.6107C213.89 87.1035 216.889 87.6836 216.296 88.6601C213.784 93.348 209.635 93.4044 205.001 94.4209C202.486 95.0028 200.428 96.4267 198.82 98.4106C198.335 98.927 195.953 97.4177 195.289 97.1286Z" fill="black"/>
<path d="M88.1721 122.689C86.2063 116.511 79.3544 116.993 76.494 111.305C76.0376 110.321 74.732 109.145 75.8321 108.148C76.6268 107.701 78.5616 104.615 79.1326 106.461C79.8254 111.56 85.1262 112.962 88.7012 115.638C89.7577 116.595 91.9544 118.433 90.9579 119.961C90.276 120.572 89.0413 122.854 88.1721 122.689Z" fill="black"/>
<path d="M71.0577 65.5404C67.2444 63.5474 68.7446 56.8828 68.1354 53.2787C67.8536 50.9947 66.6006 48.9417 65.2932 47.0941C65.015 46.7395 64.9895 46.3831 65.3859 46.0431C66.1133 45.483 66.597 44.5756 67.4953 44.2628C68.0809 44.0228 68.3609 44.7283 68.63 45.1084C70.7612 48.5816 71.505 51.0656 71.6032 55.1426C71.8978 62.5582 75.0473 60.156 71.0577 65.5404Z" fill="black"/>
<path d="M232.474 119.288C226.965 131.164 224.304 122.994 218.385 130.341C218.074 130.852 217.56 130.642 217.207 130.302C216.669 129.442 214.503 129.353 215.048 128.126C216.214 125.811 218.578 124.314 221.075 123.803C223.799 123.609 226.261 122.909 227.55 120.314C228.378 119.494 228.185 116.779 229.798 117.579C230.638 118.179 232.118 118.237 232.474 119.288Z" fill="black"/>
<path d="M239.21 142.982C237.264 147.358 233.364 151.005 228.863 152.68C228.081 152.749 227.208 151.285 226.659 150.74C225.243 149.247 225.103 149.063 227.256 148.556C230.925 147.727 233.624 144.581 235.44 141.462C235.693 140.82 236.428 141.224 236.886 141.384C237.613 141.884 239.019 142.017 239.21 142.982Z" fill="black"/>
<path d="M144.362 7.86119C141.047 8.41945 142.645 6.98106 142.658 4.91349C143.707 3.18233 150.395 5.71179 151.907 6.6592C152.989 7.43022 156.245 9.49778 155.434 10.9998C154.692 11.9272 154.363 13.4274 153.294 13.9839C152.75 14.1239 152.536 13.5093 152.445 13.0965C151.717 9.43232 147.668 7.93574 144.362 7.86119Z" fill="black"/>
<path d="M120.254 23.3598C119.297 23.1052 119.272 21.9469 118.451 21.4522C117.962 21.0776 118.315 20.5267 118.662 20.1884C121.888 16.7479 126.609 15.3641 131.237 16.1697C131.824 16.286 132.703 16.2079 132.799 16.9734C133.461 20.6449 132.952 19.5974 129.975 19.4738C126.033 19.041 123.143 20.9576 120.254 23.3598Z" fill="black"/>
<path d="M197.396 168.635C192.323 167.271 190.35 167.557 185.647 169.872C184.378 170.463 184.12 168.459 183.649 167.668C183.394 167.04 183.63 166.624 184.209 166.293C185.925 165.515 187.596 164.631 189.469 164.24C191.202 163.878 192.932 163.896 194.668 164.142C195.308 164.338 196.274 164.155 196.625 164.836C196.781 165.933 199.28 168.202 197.396 168.635Z" fill="black"/>
<path d="M113.102 86.427C114.076 82.7719 116.173 79.4642 118.863 76.7965C119.541 76.0964 119.999 77.3766 120.461 77.7367C120.95 78.2313 121.461 78.7059 121.97 79.1787C122.507 79.6769 122.509 80.0279 122.001 80.568C120.421 82.2482 119.101 84.1121 118.095 86.1888C117.692 87.0216 117.257 87.8417 117.071 88.7673C116.991 89.1656 116.639 89.291 116.253 89.0601C115.488 88.4 112.933 87.498 113.102 86.427Z" fill="black"/>
<path d="M187.73 147.532C186.373 150.689 183.093 153.222 179.718 153.957C178.16 154.211 177.456 152.186 176.397 151.347C175.926 150.927 175.985 150.213 176.703 150.14C179.44 150.18 182.073 148.603 183.649 146.417C183.889 145.537 187.146 147.161 187.73 147.532Z" fill="black"/>
<path d="M116.533 144.652C116.7 146.923 118.27 148.76 119.617 150.494C120.433 151.395 119.257 152.189 118.795 152.942C117.897 154.364 117.651 155.062 116.366 153.402C114.853 151.531 113.669 149.345 113.278 146.948C113.242 145.67 115.071 144.863 115.791 143.89C116.366 143.452 116.704 144.021 116.533 144.652Z" fill="black"/>
<path d="M68.1844 74.4362C68.1899 74.6981 68.0644 74.8763 67.8953 75.0527C66.9261 76.0601 66.115 77.1875 65.4331 78.4077C63.922 81.9555 64.6821 79.7442 60.4561 79.1223C58.2339 78.324 64.7985 71.994 65.8568 71.2157C66.0223 71.103 66.3151 71.1212 66.4115 71.283C66.9843 72.3359 67.7153 73.3488 68.1844 74.4362Z" fill="black"/>
<path d="M77.1652 100.762C76.0105 100.685 75.9832 98.0014 75.0522 96.9958C74.4066 95.381 71.4389 94.9373 72.0463 94.1135C72.7991 93.3134 73.2683 91.0131 74.6794 91.6186C76.0541 92.3278 77.1543 93.4971 77.918 94.8246C78.4672 95.8465 78.94 96.9103 79.4128 97.9705C79.6528 98.5087 79.5692 98.7033 79.1182 99.1052C78.4727 99.6471 77.8908 100.34 77.1652 100.762Z" fill="black"/>
<path d="M186.66 52.9422C186.244 52.9458 186.047 52.8204 186.004 52.5058C185.882 51.6329 185.598 50.8165 185.229 50.0218C185.076 49.6799 185.418 49.4217 185.715 49.3308C187.515 48.5689 189.159 47.5214 190.824 46.514C191.488 46.1867 192.301 45.2775 192.95 46.0958C193.316 46.6904 195.532 47.9742 194.725 48.6125C192.203 50.2873 189.675 52.3058 186.66 52.9422Z" fill="black"/>
<path d="M83.4876 89.3784C83.5222 87.4908 83.8259 85.6087 84.315 83.7921C84.6042 83.1647 85.457 83.5866 85.9916 83.5593C86.7372 83.8067 88.2229 83.3775 88.4774 84.2958C88.3538 86.3707 87.4518 88.3673 87.6301 90.4803C87.6628 91.1186 87.4955 91.3423 86.8918 91.455C84.2805 91.8023 83.424 92.7243 83.4876 89.3784Z" fill="black"/>
<path d="M196.017 41.3497C195.659 40.3877 195.699 39.4021 195.319 38.4474C195.145 38.0037 195.163 37.4509 195.657 37.2473C197.852 36.5654 200.216 35.8962 202.513 35.8325C203.508 35.9816 202.847 38.8166 202.989 39.6531C202.962 40.2313 202.76 40.4314 202.196 40.4786C200.073 40.5314 198.129 41.3133 196.017 41.3497Z" fill="black"/>
<path d="M100.573 131.435C100.686 130.624 100.989 129.775 101.193 128.971C101.431 128.124 101.658 128.026 102.433 128.271C104.317 128.835 106.212 129.389 108.018 130.177C108.75 130.55 108.818 130.764 108.518 131.553C108.058 132.339 108.267 134.048 107.057 134.034C105.319 133.61 103.724 132.683 101.915 132.484C101.267 132.372 100.462 132.321 100.573 131.435Z" fill="black"/>
<path d="M99.64 146.661C98.4162 146.328 96.0286 147.016 95.9922 145.432C96.4941 143.562 97.2687 141.751 97.9197 139.924C98.5071 138.873 100.038 139.727 101 139.669C101.96 139.691 102.157 140.26 101.789 141.071C101.369 142.524 101.029 143.997 100.791 145.492C100.782 146.388 100.178 146.756 99.64 146.661Z" fill="black"/>
<path d="M97.1856 89.6856C96.0727 89.4292 94.8216 88.9273 93.6415 88.8182C92.5813 88.6782 92.354 88.3636 92.5231 87.2998C92.8414 86.4961 92.7068 83.8084 93.736 83.8466C95.2944 84.1321 96.8474 84.5722 98.3749 84.9977C99.2532 85.3432 98.6913 86.3506 98.5895 87.018C98.2021 87.8344 98.4531 89.8929 97.1856 89.6856Z" fill="black"/>
<path d="M233.478 99.7617C233.329 100.715 233.732 102.997 232.185 102.702C231.136 102.477 230.088 102.233 229.033 102.035C228.155 101.833 228.059 101.689 228.162 100.762C228.746 96.1521 228.17 96.7377 232.663 97.5287C233.934 97.5778 233.434 98.9089 233.46 99.7599C233.465 99.7617 233.472 99.7617 233.478 99.7617Z" fill="black"/>
<path d="M201.047 102.08C201.511 101.056 203.207 97.3686 204.451 97.6959C205.184 98.3105 208.122 98.8706 207.102 100.156C204.82 102.049 205.453 103.953 204.516 103.691C203.271 103.4 202.022 102.915 201.047 102.08Z" fill="black"/>
<path d="M141.918 117.882C145.879 116.995 147.121 116.584 147.01 112.158C150.294 112.422 153.498 112.06 156.729 111.4C157.36 113.247 156.362 116.604 159.059 117.053C159.592 117.151 160.023 117.342 160.47 117.63C162.307 118.83 164.438 117.85 166.367 117.457C169.184 116.919 172.003 116.366 174.75 115.566C175.358 123.554 171.623 131.393 168.82 138.782L168.826 138.769C167.198 142.475 165.249 146.143 163.125 149.605C156.064 145.681 144.055 145.232 136.287 147.052C136.228 146.394 136.663 143.404 136.896 142.071C137.028 141.92 136.908 141.699 137.045 141.549L137.036 141.564C138.801 133.712 140.376 125.733 141.918 117.882Z" fill="black"/>
<path d="M128.453 58.2139C127.762 58.5848 128.261 59.4522 128.244 60.0996C115.161 62.4872 101.955 64.3693 88.8351 66.6169C87.2257 66.9497 85.1436 66.3369 84.8636 64.4784C83.7852 57.6793 82.2377 50.891 81.5977 44.0464C81.8668 41.6115 85.6801 41.6806 87.6203 41.2242C92.6574 40.3659 97.6763 39.4185 102.686 38.4201C104.186 37.8346 104.588 39.4694 106.221 39.1693C106.903 39.8312 107.521 40.2695 108.5 39.9149C109.485 39.9422 110.409 40.2204 111.122 39.2966C113.064 39.0329 113.295 38.4056 114.035 36.6726C114.413 36.3435 114.899 36.358 115.348 36.2853C118.325 35.7797 121.354 35.2451 124.249 34.5596C124.797 35.4452 124.167 37.3491 125.306 37.6873C125.564 37.8364 125.555 38.0874 125.555 38.3347C125.142 39.8585 125.328 41.7588 126.335 42.9644C126.611 44.7392 125.444 45.8357 127.026 47.6815C127.366 49.5235 126.235 51.1601 127.881 52.8931C128.024 53.155 128.026 53.4241 127.932 53.6987C126.893 56.1318 129.234 57.8447 128.453 58.2139Z" fill="#EDF5FD"/>
<path d="M196.766 107.879C193.757 104.899 190.822 101.831 188.012 98.6688C183.128 92.0497 179.376 84.6559 176.505 76.9857C175.99 76.1438 173.892 77.0748 172.939 76.7547C169.608 76.4893 168.033 77.113 165.711 74.1835C165.711 74.5635 165.689 74.9308 165.716 75.2945C165.747 75.6819 166.078 76.0201 165.92 76.5184C165.553 76.3838 165.218 76.262 164.847 76.1274C164.236 77.233 165.078 80.3807 163.867 80.7026C163.238 80.9281 162.478 80.8444 161.988 81.3609C162.819 82.4083 163.874 82.7683 162.663 84.1067C162.63 84.154 159.877 88.7419 158.815 90.5531C157.731 92.5916 156.708 94.8628 156.777 97.2141C157.124 101.02 157.586 104.815 158.042 108.61C158.737 113.249 159.223 119.134 165.523 116.74C168.806 115.671 172.414 114.851 175.096 112.565C175.15 111.514 174.352 110.627 174.061 109.641C172.486 106.317 172.104 102.697 172.128 99.0416C172.526 97.2704 171.059 92.3806 171.979 91.7896C174.441 94.0336 176.027 97.0286 178.178 99.5507C182.57 104.806 187.376 109.761 192.546 114.242C193.902 112.218 195.431 110.376 197.29 108.803C197.406 108.33 197.021 108.123 196.766 107.879Z" fill="#D52B1E"/>
<path d="M162.095 150.133C161.301 151.8 161.69 153.024 162.437 154.591C163.39 156.663 164.027 158.832 164.463 161.061C165.581 166.911 166.536 172.792 167.807 178.613C168.489 181.761 169.065 184.963 170.738 187.765C169.404 190.269 166.581 191.853 164.254 193.348C162.73 192.611 161.355 192.169 159.704 191.902C159.591 191.7 159.79 191.566 159.908 191.418C160.977 190.076 161.91 188.629 162.648 187.08C163.019 186.418 162.686 185.719 162.412 185.087C160.913 182.033 159.61 178.895 158.333 175.745C156.533 171.305 154.725 166.866 152.896 162.436C151.463 158.485 148.937 154.782 148.783 150.48C148.757 149.314 148.783 149.227 149.87 148.823C151.299 148.292 152.792 148.085 154.305 147.983C157.024 147.883 159.717 148.861 162.095 150.133Z" fill="#EED3CA"/>
<path d="M138.268 70.3592C139.035 72.0577 141.33 72.2904 142.803 71.3576C143.249 71.8449 142.423 72.3923 141.997 72.5468C141.016 73.1815 143.589 73.8943 144.08 73.8543C144.931 73.8834 145.702 73.8543 146.564 73.8979C145.78 75.3636 144.381 75.66 145.569 77.4984C144.929 78.484 143.467 78.7732 143.179 80.0043C142.179 84.2176 142.177 88.5982 142.492 92.8934C143.209 97.7904 144.18 102.657 145.2 107.508C145.583 109.727 146.142 111.967 145.942 114.231C145.542 117.701 141.29 115.777 139.368 114.738C139.002 114.304 139.199 113.784 139.284 113.32C139.772 109.972 140.035 106.554 140.055 103.189C140.665 96.8721 138.957 90.5749 139.166 84.2576C139.31 80.528 141.501 77.1093 141.337 73.3869C140.659 73.6652 140.546 75.6545 140.021 76.4947C134.487 74.7617 129.05 72.665 123.633 70.5756C120.182 69.0863 117.736 65.9786 115.25 63.2982C119.547 62.9054 123.822 62.5709 128.13 62.3054C130.589 62.1199 133.038 61.7762 135.506 61.7689C137.288 61.9671 139.035 62.4217 140.806 62.7127C141.608 65.2549 142.143 70.5502 138.277 70.3465L138.268 70.3592Z" fill="#D52B1E"/>
<path d="M156.751 110.361C153.543 111.132 150.068 111.803 146.802 111.094C143.705 94.6719 140.777 91.0768 149.657 75.4401C153.37 77.3822 157.202 77.3858 161.169 76.3184C160.135 78.8951 158.76 81.3955 157.691 83.9904C153.761 92.3789 157.107 101.577 156.751 110.361Z" fill="white"/>
<path d="M156.772 191.333C155.269 190.769 153.8 190.587 152.245 190.435C157.404 183.659 155.726 187.111 150.685 177.646C146.568 170.63 142.544 163.555 138.751 156.357C137.687 154.42 137.047 152.333 136.941 150.118C140.251 148.094 144.292 146.439 148.207 147.178C147.594 150.378 147.985 153.584 149.378 156.53C153.673 166.253 157.177 176.324 161.807 185.9C162.614 187.662 158.048 190.375 156.772 191.333Z" fill="#EED3CA"/>
<path d="M127.761 53.6951C127.587 52.0385 127.821 50.3619 126.969 48.8326C126.743 47.1796 127.147 45.4794 126.227 43.9664C126.032 42.1789 126.27 40.3768 125.465 38.6948C125.412 38.3602 125.357 38.0256 125.305 37.691C125.994 36.8527 125.265 35.6071 125.307 34.6142C128.56 33.6795 132.024 33.5049 135.355 32.8212C136.783 32.5903 137.772 33.054 138.403 34.3596C140.029 40.2786 140.794 46.4759 141.949 52.5186C142.905 54.7662 141.214 55.9791 140.783 58.0594C137.017 58.9613 133.119 59.3177 129.28 60.0269C128.876 59.4014 129.309 58.4231 128.452 58.2194C128.396 56.661 128.462 55.139 127.761 53.6951Z" fill="#212492"/>
<path d="M200.769 124.631C200.459 124.631 200.132 124.52 199.77 124.294C199.625 124.203 199.507 124.072 199.432 123.916C199.177 123.385 198.947 122.84 198.721 122.314C198.103 120.865 197.521 119.497 196.517 118.404C196.503 118.388 196.488 118.372 196.475 118.355C196.357 118.206 196.232 118.057 196.106 117.908C195.437 117.11 194.679 116.206 194.559 114.931C194.54 114.887 194.491 114.798 194.455 114.733C194.402 114.638 194.342 114.531 194.286 114.409C194.195 114.213 194.179 113.989 194.239 113.78C194.793 111.84 196.241 109.721 197.605 108.854C197.755 108.759 197.925 108.712 198.092 108.712C198.326 108.712 198.559 108.803 198.736 108.979C199.925 110.17 201.565 110.627 203.304 111.111C204.802 111.529 206.351 111.96 207.719 112.893C207.757 112.92 207.793 112.949 207.828 112.98C208.004 113.145 208.499 113.451 208.933 113.722C210.454 114.664 212.025 115.638 211.75 116.944C211.714 117.119 211.627 117.279 211.501 117.402C212.001 118.066 212.241 118.824 211.912 119.688C211.828 119.906 211.665 120.083 211.459 120.183C211.543 120.51 211.552 120.841 211.456 121.147C211.259 121.77 210.699 122.145 209.959 122.145C209.788 122.145 209.604 122.125 209.408 122.087C209.259 122.378 208.972 122.696 208.413 122.883C208.321 122.914 208.222 122.93 208.124 122.93C208.121 122.93 208.117 122.93 208.111 122.93C206.926 122.914 206.038 122.156 205.257 121.488C204.706 121.017 204.184 120.57 203.647 120.436C203.271 120.363 202.854 120.155 202.374 119.914C202.096 119.774 201.683 119.566 201.376 119.457C201.431 119.821 201.552 120.357 201.643 120.752C202.029 122.445 202.24 123.516 201.709 124.182C201.48 124.471 201.145 124.631 200.769 124.631Z" fill="black"/>
<path d="M195.113 114.029C195.597 112.334 196.901 110.378 198.092 109.621C200.536 112.069 204.407 111.734 207.206 113.644C207.97 114.36 211.07 115.76 210.861 116.759C210.09 116.548 207.59 114.115 206.813 114.684C207.559 115.92 211.799 117.435 211.063 119.364C210.065 118.504 207.28 115.815 206.033 116.048C206.135 116.339 206.404 116.537 206.655 116.702C207.804 117.408 208.746 118.364 209.757 119.239C210.625 119.845 211.232 121.527 209.568 121.19C208.773 119.561 207.146 118.135 205.218 117.63C204.98 117.899 205.258 118.062 205.451 118.184C206.242 118.608 210.041 121.377 208.128 122.021C206.529 121.999 205.471 119.932 203.84 119.544C203.04 119.412 200.918 117.759 200.505 118.833C200.059 119.564 202.283 124.794 200.254 123.523C199.318 121.568 198.692 119.426 197.188 117.79C196.475 116.891 195.57 116.04 195.464 114.829C195.442 114.564 195.242 114.311 195.113 114.029Z" fill="#EED3CA"/>
<path d="M171.186 188.933C172.384 190.131 170.633 194.593 170.344 196.297C169.426 196.572 168.297 196.845 167.375 196.428C168.013 195.626 168.991 194.966 169.075 193.877C168.857 193.717 168.749 193.912 168.633 194.013C167.078 195.264 165.758 196.836 164.027 197.845C161.825 198.647 159.335 198.349 157.062 197.954C153.593 197.31 157.448 193.775 158.828 192.759C163.394 192.779 163.287 195.321 165.485 193.741C167.546 192.302 169.549 190.88 171.186 188.933Z" fill="#D52B1E"/>
<path d="M197.293 108.801C194.278 105.588 191.11 102.5 188.182 99.2089C186.109 96.8977 184.809 94.0136 183.109 91.4296C180.439 86.8508 177.932 82.1155 176.508 76.9857C177.764 78.2623 178.437 80.1025 179.306 81.6718C181.561 86.3962 184.073 90.9877 186.744 95.4884C189.982 100.2 194.303 104.024 198.151 108.219C197.922 108.539 197.618 108.685 197.293 108.801Z" fill="#FCA6A6"/>
<path d="M158.516 191.644C157.314 193.095 155.432 194.039 154.948 195.959C153.077 196.534 149.34 196.201 147.898 195.341C147.594 193.95 148.985 193.244 149.904 192.508C150.555 192.126 151.013 191.269 151.829 191.306C153.231 191.333 154.597 191.558 155.93 191.989C156.439 192.209 157.014 192.315 157.501 191.959C157.75 191.868 158.492 191.117 158.516 191.644Z" fill="#D52B1E"/>
<path d="M158.351 89.3929C157.733 90.4658 157.394 91.6278 156.68 92.6443C156.794 86.0652 160.424 80.3716 163.137 74.5526C163.826 74.8617 164.039 75.4782 163.884 76.1419C163.23 77.3221 163.753 78.715 163.235 79.917C161.939 80.3116 160.142 80.1625 160.92 82.0737C161.71 82.9575 161.3 83.7085 160.771 84.5522C159.88 85.9724 159.258 87.5399 158.522 89.0438L158.531 89.0274C158.409 89.1183 158.444 89.2856 158.351 89.3929Z" fill="#D52B1E"/>
<path d="M168.82 138.784C170.49 133.365 172.906 128.122 174.136 122.554C174.37 120.236 174.507 117.892 174.75 115.568C174.932 115.506 175.116 115.444 175.365 115.359C175.554 117.512 175.381 119.679 175.381 121.843C174.559 127.828 171.65 133.525 168.82 138.784Z" fill="#6A6969"/>
<path d="M145.924 76.1746C147.092 74.8781 148.068 72.9851 149.876 72.6978C149.89 73.4415 148.956 74.4671 148.677 75.2363C146.554 79.1641 144.848 83.3338 143.215 87.4417C143.415 85.1486 143.428 82.8283 143.98 80.5843C144.422 78.6513 147.765 78.6186 145.924 76.1746Z" fill="#D52B1E"/>
<path d="M103.961 38.3838C99.0625 39.4603 94.1291 40.3477 89.1902 41.2133C86.1789 42.0716 80.9818 41.206 81.7255 45.7648C80.278 41.8988 84.2513 41.0642 87.1608 40.7005C92.7107 39.8222 98.2533 38.6875 103.809 37.9437C103.852 38.0728 103.907 38.2292 103.961 38.3838Z" fill="white"/>
<path d="M142.297 54.4715C141.15 50.72 140.828 46.6322 140.012 42.7589C139.281 40.0021 139.161 37.0617 138.18 34.3868C137.777 33.6467 137.008 32.8266 136.104 32.9375C132.518 33.5448 128.923 34.2413 125.309 34.6105C125.291 34.5304 125.271 34.4504 125.242 34.3177C128.172 33.6449 131.181 33.2921 134.142 32.7429C136.011 32.3756 138.506 31.9464 138.931 34.5468C139.933 41.1605 141.745 47.9142 142.297 54.4715Z" fill="#EDF5FD"/>
<path d="M141.918 117.882C141.752 121.667 140.63 125.393 139.948 129.12C138.99 133.25 138.443 137.594 137.035 141.566C137.557 136.765 138.686 132.045 139.505 127.286C139.956 126.102 140.901 117.284 141.918 117.882Z" fill="#6A6969"/>
<path d="M95.1701 38.3784C91.0186 39.2658 86.8144 39.6258 82.7083 40.7533C82.5665 38.793 85.3578 38.2893 86.9271 38.2875C89.2965 38.2911 91.6714 38.1311 94.0427 37.9947C94.4409 37.9729 94.9355 37.8456 95.1701 38.3784Z" fill="#EDF5FD"/>
<path d="M140.611 59.1595C140.611 59.6342 140.611 59.9724 140.611 60.2906C137.738 60.8943 134.694 60.6961 131.759 61.1035C128.488 60.6379 140.21 59.2577 140.611 59.1595Z" fill="#212492"/>
<path d="M175.099 112.564C173.903 109.252 171.409 105.661 172.341 102.068C173.004 104.408 173.539 106.79 174.624 108.983C174.97 109.718 175.31 110.456 175.639 111.198C176.047 111.913 175.723 112.209 175.099 112.564Z" fill="#FCA6A6"/>
<path d="M140.055 103.189C140.531 106.994 139.847 110.887 139.316 114.669C137.922 114.324 138.565 112.934 138.66 111.96C139.151 109.039 139.689 106.128 140.055 103.189Z" fill="#FCA6A6"/>
<path d="M95.1687 38.3783C94.2049 38.1146 93.0993 38.1964 92.1028 38.3892C90.7899 38.5019 89.4533 38.3219 88.1313 38.5601C86.6893 38.8383 85.0036 38.0946 83.8434 39.3148C83.5888 39.5548 83.287 39.8367 82.8633 39.7948C83.9743 37.1072 87.7494 38.3455 90.0643 37.9127C93.2393 37.84 96.4179 37.5254 99.5893 37.6C98.1364 38.0455 96.618 38.02 95.1687 38.3783Z" fill="white"/>
<path d="M139.522 32.321C138.802 31.7828 137.935 31.3427 137.289 30.7517C137.876 30.2898 139.522 29.4643 140.662 29.5334C142.337 30.5499 142.341 30.8445 140.686 31.7773C140.313 31.9883 139.984 32.2992 139.522 32.321Z" fill="#EF6261"/>
<path d="M114.94 35.0306C114.479 35.1379 114.091 35.2288 113.713 35.3161C113.126 36.0435 113.011 36.96 112.565 37.751C110.476 39.7604 111.782 35.5416 112.393 34.8142C112.926 33.8486 114.426 34.0941 114.94 35.0306Z" fill="#EED3CA"/>
<path d="M110.694 38.471C108.219 40.7896 109.601 36.3798 110.036 35.3233C110.301 34.5814 111.034 34.6469 111.749 34.5414C111.11 35.9107 110.517 36.9308 110.694 38.471Z" fill="#EED3CA"/>
<path d="M124.25 34.5614C122.92 35.4815 121.096 35.3288 119.567 35.7925C117.73 36.1362 115.903 36.5344 114.035 36.6744C113.863 36.1689 114.441 36.0525 114.81 36.0052C117.943 35.6106 121.145 34.6669 124.25 34.5614Z" fill="#D6E3F2"/>
<path d="M139.523 32.3211C140.32 31.8247 141.058 31.3319 141.907 30.9046C141.546 30.2699 140.94 30.0263 140.498 29.4825C140.776 29.4098 141.055 29.3371 141.3 29.2716C142.338 29.8262 143.197 30.5791 143.777 31.4428C142.655 31.9283 141.378 32.0902 140.205 32.4721C139.934 32.5484 139.698 32.6157 139.523 32.3211Z" fill="#EF6261"/>
<path d="M109.462 35.1451C109.031 36.2707 108.562 37.2454 108.56 38.4511C108.569 38.8748 108.295 39.1548 107.896 39.2112C106.396 39.133 107.765 36.7054 107.982 35.8998C108.238 35.2561 108.698 35.0506 109.462 35.1451Z" fill="#EED3CA"/>
<path d="M158.52 89.0419C158.954 86.9198 160.294 85.045 161.333 83.1538C161.04 82.6937 160.414 82.2227 160.813 81.6554C161.265 82.1609 161.916 82.5155 162.227 83.1156C161.036 85.1013 159.898 87.1889 158.52 89.0419Z" fill="#FCA6A6"/>
<path d="M164.546 38.8129C164.191 39.2203 161.122 36.4417 160.656 36.0016C161.011 35.2179 164.526 38.1292 164.546 38.8129Z" fill="white"/>
<path d="M106.547 38.222C104.34 38.7766 106.036 35.5362 107.265 35.8307C107.255 36.6563 106.638 37.3655 106.547 38.222Z" fill="#EED3CA"/>
<path d="M172.107 64.6167C172.136 65.2113 171.801 65.4168 171.659 65.7096C171.037 66.6261 170.885 67.6862 170.366 68.6518C169.688 67.488 171.039 65.3641 172.107 64.6167Z" fill="white"/>
<path d="M166.968 37.0308C166.084 36.5235 165.457 35.5688 164.486 35.1124C164.064 33.8067 167.877 36.2925 166.968 37.0308Z" fill="white"/>
<path d="M152.533 37.4491C151.5 37.9073 150.975 39.1602 149.982 39.2984C149.785 38.4801 151.035 37.8091 151.611 37.3763C151.933 37.1981 151.966 37.209 152.533 37.4491Z" fill="white"/>
<path d="M163.236 79.9169C163.334 78.7313 162.913 76.9874 163.885 76.1418C163.669 76.9965 164.04 79.6078 163.236 79.9169Z" fill="#FCA6A6"/>
<path d="M165.799 37.6837C165.43 38.3693 164.391 36.8181 163.958 36.5963C163.313 35.2452 165.919 37.0855 165.799 37.6837Z" fill="white"/>
<path d="M169.627 65.935C169.114 66.8351 168.934 67.8116 168.585 68.7681C168.009 68.348 168.82 65.5858 169.627 65.935Z" fill="white"/>
<path d="M149.676 38.0874C149.456 37.931 149.494 37.7692 149.6 37.5691C150.936 35.7707 152.651 35.9889 149.676 38.0874Z" fill="white"/>
<path d="M130.054 60.7797C129.31 60.9033 128.568 61.0361 127.824 61.1634C127.17 61.1888 126.535 61.307 125.926 61.5543C126.95 61.4743 130.119 61.4598 130.35 61.007C130.392 60.887 130.214 60.7633 130.054 60.7797Z" fill="#BCBDDE"/>
<path d="M172.667 55.6408C171.802 59.5249 169.411 56.9428 169.336 54.3933C169.191 52.0639 169.449 49.7472 169.702 47.4341C169.807 46.5049 168.772 46.0412 168.26 45.4138C167.974 45.0629 167.598 44.8447 167.174 44.6683C167.372 45.0774 167.592 45.4557 167.923 45.7612C167.929 45.7539 167.936 45.7484 167.941 45.7412C168.118 46.2158 169.2 47.0777 169.152 47.4705C163.67 47.8596 157.56 45.632 154.485 40.875C153.394 42.117 152.128 43.0917 150.564 43.6354C148.689 45.0138 148.349 51.5547 147.926 53.9823C146.886 60.1432 150.299 67.6752 157.334 67.5297C159.122 67.5697 160.829 67.0115 162.582 66.7642C162.691 66.746 162.817 66.8351 163.152 66.9478C160.117 68.5972 156.563 68.7317 153.27 69.6864C152.999 70.3356 153.039 73.5251 152.094 73.1378C151.904 72.5559 152.414 71.3448 152.021 71.043C151.263 72.1358 150.697 73.3197 150.095 74.5344C153.601 76.7129 158.236 76.491 161.96 75.0017C162.286 74.2689 162.888 73.6652 162.673 72.8159C161.644 67.6025 166.578 64.3129 169.596 60.9288C169.411 60.4996 168.761 59.925 169.183 59.4904C169.369 59.3777 169.562 59.5759 169.687 59.7032C170.967 61.3288 173.206 62.2417 175.064 60.987C178.016 59.174 175.801 54.9607 172.667 55.6408Z" fill="#EED3CA"/>
<path d="M158.514 191.644C158.447 191.584 158.38 191.522 158.312 191.462C158.494 191.171 158.776 191.015 159.205 190.76C158.989 191.215 158.787 191.457 158.514 191.644Z" fill="#D52B1E"/>
<path d="M95.5117 38.3201C95.7663 37.9509 96.1518 38.12 96.5228 38.1401C96.1864 38.2001 95.8499 38.2601 95.5117 38.3201Z" fill="#D6E3F2"/>
<path d="M137.045 141.551C137.032 141.737 137.08 141.937 136.896 142.073C136.9 141.886 136.84 141.68 137.045 141.551Z" fill="#4D50A8"/>
<path d="M158.352 89.393C158.412 89.2711 158.472 89.1493 158.532 89.0256C158.472 89.1475 158.412 89.2711 158.352 89.393Z" fill="#4D50A8"/>
<path d="M168.649 139.187C168.647 139.024 168.647 138.858 168.825 138.771C168.851 138.945 168.785 139.08 168.649 139.187Z" fill="#4D50A8"/>
<path d="M143.084 71.1212L143.095 71.1703L143.055 71.163L143.084 71.1212Z" fill="black"/>
<path d="M119.445 110.947C117.417 114.226 115.226 117.364 112.809 120.377C103.424 118.964 95.7633 112.773 89.2188 106.283C89.8152 105.653 92.161 104.15 92.161 104.162L92.1537 104.171C95.2651 102.542 97.5072 99.649 100 97.2395C101.1 96.1266 101.219 96.1394 102.452 97.0868C107.654 100.822 112.986 105.313 119.501 106.308C120.601 106.41 120.736 106.654 120.48 107.721C120.216 108.821 119.89 109.905 119.445 110.947Z" fill="#D6E3F2"/>
<path d="M119.443 110.947C119.583 109.523 120.287 108.187 120.409 106.779C115.543 106.144 111.346 103.571 107.323 100.873C105.916 100.013 104.645 98.9579 103.277 98.0414C102.504 97.7014 101.697 96.1084 100.804 96.7467C98.7475 98.4888 94.2796 104.017 91.9102 104.351C95.4816 101.693 98.8839 98.3651 101.419 94.7028C108.002 101.127 113.182 104.271 122.558 105.488C121.918 107.481 120.529 109.17 119.443 110.947Z" fill="white"/>
<path d="M124.558 101.296C123.718 102.358 122.87 103.413 122.052 104.493C121.15 104.431 120.317 104.21 119.43 104.015C120.092 102.549 121.579 101.715 122.581 100.489C123.547 99.3198 124.047 100.356 124.558 101.296Z" fill="#78A2D3"/>
<path d="M98.1746 116.413C97.8 117.051 97.4418 117.701 96.929 118.235C96.3489 117.921 95.2796 116.962 94.625 116.179C96.2543 114.166 96.6144 114.287 98.1746 116.413Z" fill="#EF6261"/>
<path d="M124.558 101.296C124.016 101.027 123.867 100.496 123.47 100.034C122.27 100.724 121.532 102.409 120.246 102.804C121.403 101.189 122.719 99.8671 124.17 98.4706C124.63 99.1125 124.929 99.7908 125.31 100.427C125.094 100.778 124.85 101.058 124.558 101.296Z" fill="#D6E3F2"/>
<path d="M98.1771 116.413C96.0186 114.689 97.1187 114.204 94.6275 116.18C93.9146 115.824 96.0113 114.353 96.2877 113.853C97.1115 114.455 97.897 115.029 98.6917 115.611C98.5953 115.953 98.4207 116.204 98.1771 116.413Z" fill="#EF6261"/>
<path d="M116.351 119.945C116.347 120.305 116.182 120.601 116.006 120.892C115.407 120.61 115.191 120.414 114.684 119.704C114.931 118.635 116.009 119.39 116.351 119.945Z" fill="#EF6261"/>
<path d="M116.348 119.945C115.834 119.879 115.526 119.381 115.062 119.174C115.193 118.959 115.326 118.746 115.473 118.504C115.948 118.67 116.321 118.91 116.695 119.184C116.672 119.497 116.601 119.759 116.348 119.945Z" fill="#EF6261"/>
<path d="M197.246 16.7734C195.913 21.2959 193.512 25.8474 189.937 28.9661C180.314 25.571 171.218 20.2648 164.383 12.6219C166.696 11.1308 169.362 10.4089 171.497 8.62316C172.835 7.63574 174.024 6.48467 175.186 5.29905C176.114 4.35164 176.368 4.36618 177.368 5.20631C183.309 10.1488 189.317 15.7169 197.246 16.7734Z" fill="#D6E3F2"/>
<path d="M197.245 16.7734C191.791 16.6225 187.122 13.3093 182.975 10.0706C181.704 9.39236 176.722 4.24072 175.951 4.85717C173.745 7.11749 171.394 9.25962 168.59 10.7471C168.042 10.9671 166.817 11.8654 166.348 11.489C170.503 8.91593 172.854 5.40997 175.198 1.24756C181.21 7.80486 188.684 13.6712 197.398 15.9842C197.472 16.3061 197.392 16.5461 197.245 16.7734Z" fill="white"/>
<path d="M175.941 23.5016C173.904 24.2945 172.02 24.7473 169.873 24.8855C168.983 24.8582 168.94 23.4743 168.574 22.767C170.193 22.6179 171.771 22.7288 173.349 22.2433C174.268 22.0432 175.122 23.0616 175.941 23.5016Z" fill="#D52B1E"/>
<path d="M211.806 74.9199C211.675 76.9402 211.634 78.935 211.514 80.9589C204.174 80.1188 197.375 75.8473 192.234 70.6938C196.591 63.7165 199.154 55.6553 199.95 47.4869C200.426 46.4976 200.736 46.4431 201.474 47.3014C202.554 48.5579 203.489 49.9272 204.405 51.3074C214.643 67.5934 211.943 54.6133 211.806 74.9199Z" fill="#D6E3F2"/>
<path d="M211.804 74.9198C211.282 74.1725 211.585 72.1358 211.6 71.1739C211.807 67.9534 211.798 64.8257 212.006 61.6034C208.923 58.8703 206.747 55.2643 204.484 51.8565C203.302 50.1872 202.297 48.3488 200.795 46.9395C200.271 46.5376 200.347 47.4177 199.949 47.4868C200.031 46.8867 199.916 46.1575 200.106 45.6211C205.155 49.7744 208.429 56.0917 214.371 59.314C213.486 64.5038 212.36 69.6736 211.804 74.9198Z" fill="white"/>
<path d="M191.652 137.983C197.19 134.507 204.311 133.257 210.54 135.494C210.631 136.54 210.615 137.545 210.522 138.624C206.534 136.543 201.436 135.287 197.133 137.205C195.724 137.633 194.271 137.902 192.954 138.616C192.158 139.029 191.792 138.829 191.652 137.983Z" fill="#EF6261"/>
<path d="M191.652 137.984C191.763 138.302 192.003 138.502 192.274 138.704C193.647 138.1 195.213 137.085 196.726 137.343C195.136 138.149 193.647 138.938 192.039 139.786C191.623 139.426 191.399 138.855 191.121 138.398C191.201 138.105 191.43 138.049 191.652 137.984Z" fill="#FFCBCB"/>
<path d="M198.224 97.494C197.645 97.2249 197.1 96.9703 196.523 96.703C197.722 94.4918 200.082 93.2025 202.359 92.3315C206.158 91.064 210.722 91.235 213.269 87.6417C213.862 87.9745 214.551 88.0818 215.012 88.611C211.133 95.0992 203.992 90.6185 198.224 97.494Z" fill="#EF6261"/>
<path d="M76.2812 109.065C76.9086 108.33 77.5596 107.774 78.2343 107.119C80.1127 114.48 87.3919 113.566 90.296 119.25C89.9541 119.981 89.3358 120.448 88.6739 121.056C85.8353 115.049 79.8854 116.519 76.2812 109.065Z" fill="#0D8157"/>
<path d="M70.2609 52.2094C70.7192 55.2353 70.6155 58.403 71.8848 61.2452C72.5885 62.4018 71.3811 63.1364 70.841 64.0893C68.5207 61.5707 69.6772 56.6373 69.1899 53.3732C69.1171 51.0492 67.7206 49.1253 66.6641 47.145C67.2132 46.5068 67.5496 47.0359 67.7897 47.4178C68.8262 48.9089 69.6445 50.5237 70.2609 52.2094Z" fill="#FFCE24"/>
<path d="M70.2624 52.2094C69.2404 50.451 68.5294 48.4525 67.1546 46.9378C66.9801 47.0123 66.8237 47.0796 66.6673 47.1469C66.5436 46.9596 66.42 46.7705 66.2891 46.5741C66.6382 46.0958 66.9837 45.6812 67.5111 45.4285C68.7694 47.4815 70.2151 49.7145 70.2624 52.2094Z" fill="#FFEBA7"/>
<path d="M217.74 129.41C217.166 129.106 216.596 128.78 216.078 128.368C217.147 125.964 220.099 124.84 222.579 124.634C226.154 124.631 228.333 121.643 229.587 118.681C230.169 118.688 230.615 119.07 231.08 119.337C231.12 120.448 228.985 122.978 228.278 124.007C225.114 127.187 222.752 123.731 217.74 129.41Z" fill="#0D8157"/>
<path d="M237.534 144.012C235.724 147.323 232.6 149.849 229.2 151.407C228.225 151.749 227.638 150.389 227.203 149.669C230.096 148.885 232.882 147.23 235.01 145.119C235.641 144.53 236.63 143.586 237.534 144.012Z" fill="#0479CE"/>
<path d="M237.536 144.012C235.019 144.212 234.068 147.478 231.555 147.676C233.544 146.179 234.799 144.063 236.357 142.199C236.941 142.435 237.519 142.686 238.076 143.051C238.008 143.448 237.812 143.752 237.536 144.012Z" fill="#BCBDDE"/>
<path d="M152.991 11.1672C150.869 7.85031 147.175 6.82289 143.426 6.932C143.475 6.35373 143.599 5.83366 143.728 5.28085C145.459 5.2663 147.132 5.72819 148.737 6.3501C149.696 7.20658 155.166 9.79059 152.991 11.1672Z" fill="#0479CE"/>
<path d="M152.99 11.1672C153.135 10.8871 153.281 10.6089 153.439 10.3089C152.312 8.52679 149.968 7.93216 148.738 6.35193C151.213 7.12477 153.71 8.93048 154.539 10.5671C154.314 11.1744 153.934 11.7091 153.495 12.2982C153.21 11.9273 153.101 11.5472 152.99 11.1672Z" fill="#BCBDDE"/>
<path d="M131.72 17.3244C131.982 17.7063 132 18.0427 131.954 18.3736C131.743 18.5991 131.498 18.5173 131.274 18.5173C126.392 18.1809 124.117 18.9192 120.369 22.0633C119.909 21.7959 119.703 21.3068 119.391 20.9485C122.196 17.4226 127.426 16.2842 131.72 17.3244Z" fill="#0D8157"/>
<path d="M191.783 164.984C194.407 164.926 195.862 164.626 196.809 167.502C191.972 166.266 190.245 166.713 185.737 168.646C185.231 167.773 185.311 167.395 186.204 167.048C188.052 166.328 189.832 165.424 191.783 164.984Z" fill="#FFCE24"/>
<path d="M191.785 164.984C189.872 165.808 187.921 166.537 185.994 167.326C185.306 167.49 185.677 168.122 185.737 168.644C185.586 168.71 185.435 168.777 185.268 168.85C184.932 168.397 184.775 167.91 184.59 167.406C186.687 166.093 189.258 165.015 191.785 164.984Z" fill="#FFEBA7"/>
<path d="M120.546 80.688C118.809 82.8828 117.284 85.1923 116.236 87.8017C115.447 87.5708 114.867 86.9507 114.23 86.5125C114.37 85.4232 115.116 83.5993 115.894 82.39C116.047 82.3155 116.022 82.1427 116.096 82.0264L116.083 82.0336C117.666 80.3934 118.167 77.9258 120.546 80.688Z" fill="#EF6261"/>
<path d="M120.546 80.688C119.77 80.3716 118.657 78.9859 117.946 79.9933C117.304 80.5898 116.962 81.8409 116.082 82.03C116.822 80.4298 117.893 79.0659 119.208 77.8694C119.886 78.5549 120.548 79.2259 121.239 79.9224C121.068 80.2534 120.837 80.4952 120.546 80.688Z" fill="#FFCBCB"/>
<path d="M179.816 152.818C179.628 152.886 179.441 152.953 179.208 153.037C178.652 152.484 178.181 151.878 177.695 151.258C180.425 150.654 182.561 149.272 184.442 147.234C185.107 147.41 185.771 147.65 186.504 147.929C186.071 148.592 185.66 149.141 184.949 149.345C183.232 149.356 181.954 150.429 180.518 151.131C179.101 151.835 180.05 152.038 179.816 152.818Z" fill="#EF6261"/>
<path d="M179.814 152.818C179.641 152.426 179.466 152.031 179.277 151.6C180.347 150.898 181.538 150.456 182.569 149.685C183.432 149.209 184.529 149.203 185.493 149.101C184.14 150.913 182.076 152.431 179.814 152.818Z" fill="#D52B1E"/>
<path d="M190.139 122.074C191.009 121.667 191.889 121.19 192.882 121.687C193.122 121.808 193.482 121.812 193.434 122.229C191.843 123.66 190.125 124.853 188.11 125.687C187.488 125.374 187.063 124.833 186.641 124.289L190.139 122.074Z" fill="#D6E3F2"/>
<path d="M117.139 152.598C115.79 151.084 114.677 149.223 114.352 147.205C114.703 146.779 115.09 146.416 115.741 146.367C116.143 148.394 117.996 150.498 117.139 152.598Z" fill="#D52B1E"/>
<path d="M117.139 152.598C117.291 150.413 116.144 148.607 115.695 146.567C115.171 146.397 114.971 147.287 114.351 147.205C113.973 146.617 115.238 145.832 115.689 145.439C116.033 147.754 117.462 149.46 118.826 151.274C118.491 151.909 118.022 152.411 117.602 152.92C117.304 152.975 117.217 152.793 117.139 152.598Z" fill="#EF6261"/>
<path d="M66.6015 74.9363C65.5922 76.2455 64.7739 77.6712 63.9666 79.115C62.9846 78.8605 62.1445 78.4259 61.168 78.1858C61.3862 77.4821 62.6536 75.8455 62.7627 75.7527L62.8828 75.5982C63.0428 75.4545 63.2537 75.3818 63.4028 75.2236L63.3901 75.2327C64.5903 74.0961 65.6232 72.7323 66.6015 74.9363Z" fill="#0479CE"/>
<path d="M66.6019 74.9363C66.2091 74.5454 65.8418 74.178 65.4381 73.7853C64.6235 74.158 64.2052 74.9909 63.3924 75.2327C63.3906 75.1546 63.3542 75.0418 63.3924 75.0036C64.2543 74.2526 64.9526 73.2034 65.9237 72.6396C66.4092 73.1379 66.6783 73.7998 67.0856 74.4326C66.9093 74.6181 66.7547 74.7781 66.6019 74.9363Z" fill="#BCBDDE"/>
<path d="M77.0523 95.4901C77.6524 96.3448 78.0033 97.3213 78.447 98.2651C78.1143 98.7433 77.7669 99.1379 77.2123 99.3943C76.5213 97.3522 75.5884 95.3501 73.6445 94.2336C74.0773 93.2571 76.5031 95.0519 77.0523 95.4901Z" fill="#D52B1E"/>
<path d="M77.0531 95.4902C76.0675 95.3283 74.4709 93.6936 73.6471 94.2355C72.8997 93.8772 73.9835 93.1535 74.1345 92.6843C75.1528 93.0062 76.3875 94.2027 77.0531 95.4902Z" fill="#EF6261"/>
<path d="M192.757 48.6671C191.044 50.0146 189.145 51.2711 187.036 51.8839C186.711 51.3329 186.585 50.7492 186.441 50.1273C187.933 49.229 189.5 48.5216 191.118 47.8961C192.006 47.5451 192.384 47.7361 192.757 48.6671Z" fill="#EF6261"/>
<path d="M192.759 48.667C192.482 48.3851 192.206 48.1015 191.939 47.8287C190.984 48.1051 190.169 48.6288 189.211 48.6979C190.167 47.9542 191.262 47.3814 192.357 46.854C192.719 47.2286 193.095 47.6178 193.482 48.0196C193.293 48.3506 193.037 48.5197 192.759 48.667Z" fill="#EF6261"/>
<path d="M86.4523 90.524C85.8268 90.6113 85.2612 90.7895 84.6175 90.7567C84.3702 88.9656 84.5484 87.0871 85.0776 85.3596C87.3597 84.1212 86.3814 89.3384 86.4523 90.524Z" fill="#EF6261"/>
<path d="M86.4555 90.524C86.3991 89.2038 86.1627 87.9073 86.2645 86.5725C86.35 85.5233 86.1354 85.2978 85.0807 85.3596C85.0589 85.0668 85.0825 84.785 85.2989 84.514C85.9809 84.5159 86.6573 84.6286 87.3138 84.7668C87.4593 86.0634 86.9283 87.8836 86.861 88.6146C86.7937 89.3456 86.9137 90.1476 86.4555 90.524Z" fill="#FFCBCB"/>
<path d="M201.115 39.5531C199.682 39.764 198.251 40.2405 196.82 40.3023C196.665 39.5713 196.449 38.8348 196.336 38.0438C196.767 37.8765 197.151 37.6928 197.594 37.7056C199.251 37.7165 202.042 36.6272 201.115 39.5531Z" fill="#BCBDDE"/>
<path d="M201.116 39.553C201.034 38.9856 200.951 38.4165 200.861 37.8055C199.8 37.4581 198.601 38.251 197.594 37.7073C199.025 37.3763 200.44 36.9017 201.918 36.8799C202.005 37.7218 201.942 38.5492 201.954 39.3621C201.687 39.5821 201.405 39.5875 201.116 39.553Z" fill="#D6E3F2"/>
<path d="M107.387 131.779C107.323 132.177 107.216 132.561 107.014 132.972C105.246 132.412 103.599 131.561 101.697 131.384C101.542 130.864 101.768 130.45 101.906 130.022C103.841 130.271 105.677 130.828 107.387 131.779Z" fill="#FFCE24"/>
<path d="M107.387 131.779C105.58 131.123 103.732 130.604 101.906 130.022C101.957 129.831 102.01 129.641 102.055 129.473C102.392 129.297 102.665 129.461 102.93 129.531C104.516 129.95 106.089 130.408 107.551 131.061C107.634 131.388 107.5 131.581 107.387 131.779Z" fill="#FFEBA7"/>
<path d="M99.7413 145.526C98.8958 145.575 97.8411 145.457 97.1719 145.255C97.2683 144.383 98.3611 141.248 98.8648 140.424C99.494 140.509 100.154 140.498 100.849 140.678C100.511 142.346 100.052 143.852 99.7413 145.526Z" fill="#0479CE"/>
<path d="M97.6197 86.7544C97.4088 87.3618 97.456 88.1328 97.0778 88.6401C96.0213 88.3437 94.9393 88.0382 93.8664 87.7818C93.6828 87.1017 94.0901 86.5689 94.3411 86.0107C94.8502 85.196 96.956 86.3853 97.6197 86.7544Z" fill="#EF6261"/>
<path d="M97.6199 86.7544C96.5398 86.6907 95.6542 85.8779 94.5577 85.8961C94.3213 86.5435 94.094 87.1635 93.8667 87.7818C93.7557 87.7727 93.6466 87.7618 93.5393 87.7527C93.5284 87.0526 93.8303 85.687 94.1449 85.0287C95.3632 85.1687 96.5361 85.5342 97.7218 85.9088C97.84 86.227 97.7381 86.4907 97.6199 86.7544Z" fill="#EF6261"/>
<path d="M232.264 101.456C231.607 101.787 230.107 101.1 229.292 101.065C229.176 100.36 229.278 99.4161 229.618 98.0087C229.952 97.9232 230.271 98.0923 230.6 98.1487C230.829 98.3851 230.845 98.6906 230.754 98.9579C230.205 100.353 232.067 100.342 232.264 101.456Z" fill="#BCBDDE"/>
<path d="M232.265 101.456C230.646 99.9689 230.148 100.631 230.601 98.1487C231.196 98.2051 231.787 98.2742 232.376 98.4833C232.643 99.4743 232.367 100.469 232.265 101.456Z" fill="#0479CE"/>
<path d="M206.088 99.6872C205.266 100.615 204.7 101.446 204.195 102.562C203.504 102.548 202.971 102.137 202.395 101.844C202.636 100.778 203.602 99.3689 204.493 98.7925C205.002 99.0616 205.54 99.3216 206.088 99.6872Z" fill="#EF6261"/>
<path d="M106.802 53.6932C104.278 55.1097 101.934 56.7936 99.4715 58.3138C98.866 58.9157 98.1622 58.7066 97.7604 58.0065C97.2894 57.0737 92.8651 52.6912 93.9362 52.2111C94.7126 51.702 95.46 50.6455 96.4874 51.0219C97.6512 51.1328 98.9078 51.9165 100.039 51.582C101.201 50.7255 102.661 50.1308 103.665 49.1343C100.946 47.6759 99.4842 47.5177 103.121 45.672C104.769 45.4283 106.545 45.9139 108.222 45.9502C111.051 45.672 112.992 42.0133 116.072 42.5425C118.442 42.6807 121.28 43.4844 118.534 45.9866C116.361 47.5614 114.085 48.9307 111.824 50.4018C111.206 51.9256 111.908 57.1027 110.551 57.6446C105.98 60.2559 107.845 58.1902 106.802 53.6932Z" fill="black"/>
<path d="M94.3711 56.2246C94.3384 56.4901 94.0747 56.7355 93.8365 56.8737C92.0962 58.023 90.4378 59.3232 88.6412 60.3779C86.1117 60.3015 92.9 56.6083 93.32 56.09C93.6583 55.83 94.2802 55.5572 94.3711 56.2246Z" fill="black"/>
<path d="M93.1739 54.7043C93.1176 54.9025 92.8921 55.1062 92.7011 55.2208C91.6228 55.8718 90.6463 56.7846 89.4898 57.2702C87.6095 56.8465 91.8992 54.848 92.3338 54.3588C92.6484 54.0824 93.1848 54.1952 93.1739 54.7043Z" fill="black"/>
<path d="M125.469 38.6929C126.469 39.1638 126.081 41.0205 126.407 41.977C126.456 42.3316 126.447 42.6807 126.111 42.9189C125.065 42.5098 125.44 40.5059 125.076 39.5457C125.012 39.1693 125.078 38.8583 125.469 38.6929Z" fill="black"/>
<path d="M126.973 48.8325C127.358 48.8598 127.526 49.1235 127.58 49.4526C127.566 50.4618 128.431 52.153 127.669 52.9167C127.338 52.8204 127.12 52.6222 127.066 52.2694C127.098 51.3201 126.16 49.4635 126.973 48.8325Z" fill="black"/>
<path d="M127.763 53.6951C128.108 53.766 128.286 53.9478 128.332 54.3297C128.241 55.2844 129.245 57.0337 128.383 57.6447C128.032 57.512 127.815 57.3029 127.77 56.8901C127.85 56.0609 126.901 54.1151 127.763 53.6951Z" fill="black"/>
<path d="M126.229 43.9646C126.591 44.0228 126.775 44.2501 126.828 44.5974C126.793 45.5448 127.648 46.9959 126.859 47.7033C125.804 47.3633 126.231 45.7412 125.907 44.8665C125.857 44.5174 125.851 44.1701 126.229 43.9646Z" fill="black"/>
<path d="M162.528 84.6722C163.368 84.1558 164.106 84.7904 164.999 84.5777C166.723 81.43 167.083 81.7864 167.887 85.0832C173.668 85.9724 167.852 86.9108 168.154 88.8747C168.727 92.4334 166.983 90.1621 165.626 89.0056C164.808 89.2947 164.144 89.8021 163.37 90.153C161.728 90.3458 163.452 87.9418 163.73 87.269C163.31 86.4252 162.344 85.6851 162.537 84.6632C162.535 84.6632 162.528 84.6722 162.528 84.6722Z" fill="black"/>
<path d="M155.007 58.0648C155.78 57.9775 156.738 57.9066 157.68 57.752C158.929 57.5684 160.075 56.7737 161.353 56.7755C164.828 57.392 162.299 62.2508 159.822 62.6091C158.291 63.0164 156.74 63.1619 155.162 62.9855C153.239 62.88 151.143 61.4144 151.701 59.2686C152.105 57.6829 153.676 57.9848 155.007 58.0648Z" fill="black"/>
<path d="M159.949 54.2297C159.964 52.9349 162.199 52.8622 163.13 53.2477C163.872 53.6623 164.395 53.2313 165.117 53.055C165.201 53.4914 164.915 53.7551 164.821 54.066C165.146 54.5061 165.585 54.1697 166.014 54.2442C166.09 54.9625 165.366 55.2862 164.754 55.4153C163.553 54.5661 162.126 53.6569 160.609 54.2242C160.386 54.297 160.169 54.3933 159.949 54.2297Z" fill="black"/>
<path d="M163.183 49.4108C164.805 49.0562 167.433 51.642 166.025 51.7457C164.178 50.2437 162.785 50.5419 160.626 50.7601C159.899 49.9727 162.425 49.3235 163.183 49.4108Z" fill="black"/>
<path d="M150.375 49.8291C150.635 50.3419 150.893 50.7874 151.555 50.751C152.522 50.6128 154.646 51.8257 153.988 52.9004C152.919 53.1423 152.875 51.3802 149.935 51.7039C149.514 51.3366 149.089 50.9383 149.311 50.3437C149.569 50.5165 149.769 50.6492 149.982 50.7892C150.171 50.4656 149.895 50.0255 150.375 49.8291Z" fill="black"/>
<path d="M151.625 47.4487C153.398 47.0632 156.071 50.0982 154.264 49.8545C153.271 49.1271 152.398 48.2252 151.062 48.327C149.319 48.2197 150.767 47.3505 151.625 47.4487Z" fill="black"/>
<path d="M173.458 58.3266C172.958 58.3703 172.663 58.7867 172.181 58.8485C171.001 58.3193 174.182 56.6682 175 57.1574C176.133 57.4865 174.845 57.9411 174.342 58.0211C174.342 58.5066 174.436 58.9613 174.369 59.4159C174.276 59.7396 173.913 59.8778 173.834 59.4722C173.722 59.0831 173.694 58.663 173.458 58.3266Z" fill="black"/>
<path d="M153.115 55.7644C152.188 55.0461 154.874 53.4695 155.317 52.8131C157.038 52.3621 153.654 55.748 153.115 55.7644Z" fill="black"/>
<path d="M157.184 64.7694C156.856 64.7148 156.036 64.5657 156 64.0365C156.464 63.8056 157.197 64.1184 157.738 64.1256C157.835 64.142 157.969 64.3238 157.968 64.4257C157.851 64.7639 157.567 64.7966 157.184 64.7694Z" fill="black"/>
<path d="M138.269 70.3593C138.247 70.332 138.225 70.3047 138.203 70.2774C138.258 70.2702 138.27 70.3011 138.281 70.3465C138.279 70.3465 138.269 70.3593 138.269 70.3593Z" fill="black"/>
<path d="M137.268 40.5459C138.316 40.635 137.799 41.5515 137.001 41.5479C134.377 41.9661 131.758 42.5989 129.118 42.8444C128.349 42.5425 129.011 41.8715 129.594 41.8952C132.144 41.4188 134.717 41.006 137.268 40.5459Z" fill="white"/>
<path d="M128.747 38.7857C128.436 38.7802 128.198 38.7529 128.148 38.4329C128.136 37.4691 132.067 37.4164 132.967 37.0545C133.769 37.0854 137.001 35.8434 137.157 36.7472C137.506 37.6546 129.814 38.4565 128.747 38.7857Z" fill="white"/>
<path d="M109.03 115.729C108.417 115.708 108.436 115.102 108.816 114.835C111.474 112.618 113.418 109.761 115.404 106.97C115.618 106.699 115.866 106.281 116.269 106.468C117.242 107.099 110.152 115.448 109.03 115.729Z" fill="black"/>
<path d="M108.232 102.699C107.541 104.013 100.932 112.042 99.7341 111.127C99.5086 110.823 99.7959 110.514 100.038 110.331C102.647 108.181 104.88 105.67 107.013 103.062C107.282 102.648 107.981 101.753 108.232 102.699Z" fill="black"/>
<path d="M104.382 113.764C102.7 113.562 107.332 109.938 107.67 109.228C108.827 107.961 109.898 106.621 110.86 105.197C111.076 104.926 111.398 104.364 111.789 104.702C112.207 105.981 105.77 113.004 104.382 113.764Z" fill="black"/>
<path d="M104.367 99.9435C103.65 101.425 97.3496 108.561 95.8639 107.494C95.713 107.219 95.9475 106.924 96.2058 106.797C98.8698 105.073 101.097 102.88 103.054 100.398C103.363 100.011 104.063 98.9779 104.367 99.9435Z" fill="black"/>
<path d="M171.831 16.4825C171.478 16.2879 171.091 15.9879 171.511 15.6278C172.253 15.0514 172.793 14.2913 173.408 13.5966C175.152 11.7091 176.43 9.49786 177.779 7.33209C180.509 6.41741 172.766 16.3698 171.831 16.4825Z" fill="black"/>
<path d="M175.455 18.8682C175.129 18.67 174.786 18.3518 175.207 18.0154C176.844 16.6079 177.97 14.744 179.168 12.9765C179.73 12.1327 180.219 11.2417 180.765 10.387C181.09 9.92513 181.723 10.2797 181.483 10.7834C179.735 13.5747 178.233 16.9971 175.455 18.8682Z" fill="black"/>
<path d="M188.71 15.3623C187.985 16.6006 184.049 24.7891 182.693 23.7926C182.538 23.5926 182.617 23.3307 182.778 23.1616C184.288 21.385 185.499 19.4083 186.641 17.3862C187.088 16.8861 187.93 14.1239 188.71 15.3623Z" fill="black"/>
<path d="M178.867 21.2577C177.394 20.9541 180.5 18.3264 180.82 17.6609C181.896 16.3934 182.784 14.9968 183.662 13.5912C183.906 13.2657 184.219 12.4728 184.71 12.8674C185.219 13.5348 182.215 17.2553 181.665 18.0591C180.698 19.0592 180.038 20.5249 178.867 21.2577Z" fill="black"/>
<path d="M198.06 69.1918C200.586 71.0757 203.377 72.605 206.372 73.6415C206.905 73.8543 207.499 73.9579 207.987 74.2689C208.558 74.969 207.547 75.1454 207.041 74.858C206.001 74.7071 195.818 70.2483 198.06 69.1918Z" fill="black"/>
<path d="M199.094 64.5039C201.962 66.4405 204.753 68.5972 208.05 69.801C209.572 72.0468 204.393 69.1846 203.895 68.8082C203.273 68.259 197.443 65.1713 199.094 64.5039Z" fill="black"/>
<path d="M202.313 54.9025C204.288 55.9553 205.861 57.712 207.523 59.2013C208.401 60.0996 209.448 60.776 210.434 61.538C210.854 61.9162 210.376 62.5963 209.885 62.2417C207.508 60.6615 205.577 58.5594 203.44 56.6882C203.087 56.2645 201.016 55.3243 202.313 54.9025Z" fill="black"/>
<path d="M208.549 65.995C207.847 66.055 197.586 59.9941 200.991 60.3232C203.097 61.9744 205.299 63.471 207.721 64.622C208.138 64.8221 208.565 65.0094 208.998 65.1712C209.5 65.4967 209.282 66.0986 208.549 65.995Z" fill="black"/>
<path d="M115.654 43.5045C114.815 44.2064 113.139 44.6373 113.642 45.8484C113.801 46.0976 114.063 46.2048 114.408 46.0939C115.515 45.6593 116.414 44.8156 117.416 44.1882C117.758 43.9245 118.219 43.6427 118.565 44.0573C118.963 44.5046 118.159 45.0665 117.85 45.352C115.903 46.6976 113.961 48.0342 111.919 49.2344C111.757 49.0562 111.609 48.8961 111.415 48.6834C111.057 49.0962 111.009 49.5726 110.922 50.0763C110.693 52.3112 110.511 54.466 110.291 56.7191C109.695 57.0882 109.062 57.421 108.369 57.6556C108.129 57.4046 108.129 57.1064 108.107 56.8264C107.974 55.0861 107.653 53.3713 107.367 51.6529C107.334 51.4583 107.305 51.2474 107.029 51.2019C106.618 51.582 106.8 52.1275 106.634 52.6439C104.043 54.3133 101.41 56.0044 98.784 57.6756C98.1257 57.0591 95.2726 53.4295 94.918 52.7731C95.8399 51.1437 97.8638 52.4876 99.275 52.633C100.555 53.0095 105.045 49.238 106.667 48.4815C108.554 47.5614 114.183 43.0226 115.654 43.5045Z" fill="#D52B1E"/>
<path d="M102.219 47.3323C102.946 46.9159 103.279 46.4268 104.072 46.5104C105.137 46.6577 106.228 46.6304 107.274 46.8741C104.494 49.0235 105.072 48.8453 102.219 47.3323Z" fill="#D52B1E"/>
<path d="M167.229 89.2766C165.809 87.8327 165.986 87.7036 164.231 88.6347C164.096 88.411 164.269 88.2819 164.322 88.1328C165.142 87.1126 164.138 86.5089 163.762 85.5088C166.082 85.8488 165.284 85.3833 166.509 83.834C167.195 85.5524 166.666 86.067 168.873 86.258C167.857 87.5782 166.984 87.2217 167.229 89.2766Z" fill="#FFCE24"/>
<path d="M161.983 57.5557C162.054 57.7175 161.803 57.8939 161.652 57.9903C159.623 59.2686 155.444 60.2724 153.444 59.1522C152.127 58.3158 154.679 58.5485 155.119 58.5831C156.399 58.6776 157.737 58.5922 158.927 58.0975C159.756 57.7757 161.163 56.9647 161.974 57.5411L161.983 57.5557Z" fill="white"/>
<path d="M156.734 62.3963C158.064 60.8906 159.988 60.1832 161.917 60.145C161.615 61.9344 158.286 62.5072 156.734 62.3963Z" fill="#EF6261"/>
</svg>
