<svg width="300" height="200" viewBox="0 0 300 200" fill="none" xmlns="http://www.w3.org/2000/svg">
<path d="M142.91 200C150.409 200 156.489 198.54 156.489 196.74C156.489 194.94 150.409 193.48 142.91 193.48C135.411 193.48 129.332 194.94 129.332 196.74C129.332 198.54 135.411 200 142.91 200Z" fill="#CCCCCC"/>
<path d="M187.432 11.2087C187.589 11.0746 187.644 11.0444 187.676 10.9972C188.551 9.51072 190.626 10.7838 190.279 12.1758C190.063 13.0257 189.784 13.8605 189.523 14.6992C189.563 14.7275 189.604 14.7558 189.644 14.7842C190.305 14.006 191.391 12.8652 192.347 13.6943C192.891 14.1439 192.925 15.0429 192.451 15.7078C190.534 18.2538 188.891 20.9774 187.247 23.7048C186.664 24.8607 185.663 25.6521 184.739 26.5039C184.458 27.3104 183.689 28.1528 183.729 29.0046C182.04 40.9605 174.899 52.2534 170.492 63.586C169.344 66.1679 168.199 68.7537 166.964 71.294C166.65 71.9381 166.692 72.4235 166.902 73.0374C168.454 77.0321 168.176 81.2705 167.5 85.4144C167.072 89.3638 166.58 93.3227 166.463 97.2948C166.599 101.73 167.472 106.157 168.192 110.526C168.46 111.321 168.105 111.876 167.481 112.235C166.733 112.667 166.665 113.276 166.601 114.059C166.386 116.738 166.18 119.429 165.731 122.075C164.104 131.493 162.285 140.876 160.453 150.256C160.344 150.83 160.06 151.26 159.509 151.432C158.293 151.838 156.989 152.093 155.792 152.515C154.202 154.001 152.228 154.806 150.262 155.612C149.315 156.207 145.451 157.019 145.381 157.867C144.89 162.225 144.395 166.582 143.872 170.936C143.311 175.716 142.652 180.491 142.095 185.268C142.501 187.4 144.397 189.077 145.838 190.63C148.369 192.428 151.062 191.99 151.937 195.741C152.868 198.338 145.041 197.552 143.736 197.312C142.323 196.927 141.014 196.366 139.635 195.828C139.632 196.765 139.749 197.363 138.625 197.327C137.735 197.384 136.844 197.426 135.952 197.433C134.099 197.467 134.387 194.934 133.703 193.72C133.07 192.043 133.164 190.352 133.793 188.701C135.418 184.828 133.684 180.336 133.635 176.266C133.149 171.557 132.711 166.852 132.271 162.14C130.807 162.98 128.01 163.445 127.119 164.735C124.795 168.752 124.185 173.282 124.112 177.85C124.085 179.341 123.105 180.727 121.545 180.587C117.886 180.54 116.349 176.574 116.12 173.448C116.054 171.183 116.793 168.964 117.046 166.728C114.534 167.353 114.279 164.856 113.782 163.052C113.538 161.482 116.194 160.755 117.076 159.637C119.32 157.631 122.536 158.884 124.871 157.021C127.173 155.44 129.553 153.971 131.912 152.471C132.692 152.003 132.481 151.019 132.736 150.239C131.546 149.751 130.396 149.175 130.445 147.719C130.22 143.972 129.969 140.224 129.744 136.477C129.238 127.421 128.157 118.065 131.965 109.5C130.771 108.763 128.803 108.081 129.689 106.37C131.391 101.242 135.21 95.253 133.727 89.7643C132.468 86.2625 132.156 82.1676 129.623 79.293C120.251 68.8538 110.885 58.3617 100.77 48.6516C99.8656 47.3426 101.692 46.1414 100.287 45.1498C99.7749 44.806 99.5124 44.026 98.8702 43.9183C96.632 43.873 95.0965 41.8445 93.2153 40.8604C91.8006 39.9557 90.3519 39.1001 88.907 38.2445C87.0503 36.8865 88.244 34.4348 90.6805 35.8174C90.5087 35.2017 89.9024 34.8806 89.485 34.4367C87.6887 32.3232 90.3576 30.1455 92.0763 32.5555C92.1141 32.5177 92.1519 32.48 92.1916 32.4422C91.6023 31.5073 90.6163 29.8206 91.8232 29.0745C93.0283 28.3984 93.9292 29.0689 94.6281 29.9396C94.3976 29.0141 93.9443 28.0603 94.9321 27.488C95.6385 26.9912 96.2581 27.0158 96.8738 27.6428C98.211 29.2124 98.9363 31.2183 100.053 32.9427C100.096 32.9333 100.139 32.9238 100.183 32.9144C100.209 31.5979 99.4368 29.0821 101.184 28.8309C102.157 28.6722 102.946 29.2464 103.15 30.3457C103.762 32.9408 103.845 35.6682 104.331 38.2464C104.941 38.83 105.598 40.5979 106.484 40.4959C107.287 40.3693 108.167 39.6705 108.873 40.3882C114.734 45.758 120.508 51.2316 126.399 56.5674C126.44 56.5466 126.484 56.5258 126.525 56.505C125.064 51.0767 121.777 46.0035 121.989 40.2296C122.134 36.0365 124.508 35.8571 125.358 33.1203C127.547 25.9373 136.33 23.6273 142.99 22.8926C150.641 22.5205 157.501 28.2548 159.299 35.5398C160.569 39.2172 160.81 43.3101 163.651 46.2415C167.308 39.7385 171.055 33.3677 174.732 26.8873C175.178 26.1073 175.771 25.7522 176.638 25.7503C177.382 25.4878 177.433 24.2771 177.855 23.6311C176.032 21.0888 176.532 17.708 175.987 14.7615C175.698 12.4005 178.85 12.1361 179.211 14.363C179.371 15.177 179.641 15.9703 179.862 16.773C179.917 16.773 179.972 16.7711 180.028 16.7711C180.659 14.7029 181.294 12.6347 181.94 10.5722C182.125 9.23308 185.037 8.8591 184.648 10.2549C185.017 8.93088 187.459 7.82595 187.432 11.2087Z" fill="black"/>
<path d="M159.497 150.137C155.689 149.007 151.74 148.966 147.834 148.482C142.364 148.006 136.915 147.555 131.426 147.993C131.16 135.155 127.72 121.624 132.99 109.379C133.541 108.125 133.549 108.157 134.901 108.406C139.364 109.409 143.323 111.84 147.707 113.104C151.609 114.22 152.625 109.064 154.28 106.601C154.333 106.602 154.386 106.604 154.441 106.604C153.94 115.572 158.443 116.205 165.847 113.37C164.642 125.766 161.818 137.918 159.497 150.137Z" fill="black"/>
<path d="M130.509 106.806C130.742 106.177 130.985 105.507 131.238 104.84C132.19 102.332 133.222 99.8501 134.066 97.306C134.559 95.8214 134.789 94.2443 135.074 92.6974C135.26 91.6982 135.001 90.7255 134.706 89.766C133.896 87.1312 133.129 84.4813 132.292 81.854C131.79 80.2731 130.728 79.0322 129.642 77.8139C128.615 76.6618 127.648 75.4549 126.594 74.3273C119.857 67.1179 113.112 59.916 106.346 52.7349C105.36 51.6886 104.242 50.7669 103.19 49.7828C102.801 49.4202 102.45 49.0141 102.036 48.6817C101.326 48.1113 101.351 47.4559 101.694 46.7155C102.671 44.6095 104.227 43.0286 106.156 41.7915C106.584 41.5176 107.07 41.3325 107.534 41.1134C107.865 40.9566 108.127 41.0265 108.409 41.2872C111.569 44.2147 114.738 47.131 117.911 50.0453C120.605 52.5177 123.296 54.9901 126.012 57.4361C126.53 57.9026 126.707 58.4069 126.745 59.085C126.826 60.5374 126.991 61.9861 127.162 63.431C127.414 65.5559 128.632 67.0348 130.407 68.1114C131.429 68.7309 132.377 69.4278 133.004 70.4761C133.788 71.785 133.866 73.1241 133.15 74.4859C132.929 74.9071 132.695 75.3227 132.464 75.742C132.702 76.0971 133.018 76.0121 133.295 75.8817C134.644 75.249 135.647 74.2895 136.059 72.8163C136.215 72.2572 136.319 71.6849 136.474 70.9993C136.723 71.9626 137.118 72.7917 136.636 73.7134C137.806 73.9269 138.822 73.6379 139.787 73.0599C140.809 72.4461 141.846 71.8549 142.871 71.2486C143.06 71.1372 143.236 70.9993 143.489 70.8236C143.58 71.2713 143.663 71.6925 143.75 72.1137C143.878 72.7294 144.152 72.9258 144.771 72.8238C145.191 72.7539 145.604 72.6595 146.128 72.5537C145.99 73.058 145.903 73.5019 145.746 73.9212C145.451 74.705 145.674 75.2698 146.29 75.827C148.428 77.7611 150.574 79.6895 152.617 81.7199C153.815 82.9117 154.801 84.3151 155.926 85.5824C156.62 86.3625 156.612 87.2256 156.487 88.17C155.993 91.923 155.452 95.6722 155.069 99.4384C154.625 103.796 153.091 107.704 150.6 111.268C149.977 112.161 149.015 112.567 147.903 112.188C145.912 111.509 143.952 110.735 141.989 109.976C140.297 109.32 138.644 108.548 136.924 107.987C135.634 107.566 134.264 107.377 132.921 107.126C132.149 106.982 131.365 106.916 130.509 106.806Z" fill="#D52B1E"/>
<path d="M166.18 60.479C166.068 60.0748 165.999 59.7461 165.887 59.4307C165.768 59.0926 165.645 58.747 165.458 58.4448C165.292 58.1747 165.149 57.7516 164.703 57.8914C164.27 58.0255 164.365 58.4429 164.37 58.7696C164.399 60.5167 163.94 62.1184 162.992 63.586C162.672 64.0808 162.255 64.451 161.679 64.5927C160.916 64.7816 160.153 64.9667 159.38 65.1027C158.423 65.2708 157.458 65.3879 156.496 65.5276C156.445 65.5352 156.394 65.539 156.343 65.5427C154.77 65.6334 153.869 65.0573 153.317 63.5973C153.28 63.4953 153.293 63.3631 153.316 63.2536C153.546 62.1996 153.769 61.1457 154.031 60.1012C154.08 59.9086 154.262 59.7008 154.439 59.6007C156.57 58.3957 158.213 56.7694 159.048 54.416C159.526 53.0675 159.511 51.683 159.307 50.2985C158.842 47.1424 158.202 44.0184 157.233 40.9794C156.53 38.7771 155.722 36.5993 154.262 34.7502C153.795 34.1591 153.319 33.5584 152.753 33.0711C152.399 32.767 151.886 32.5857 151.415 32.4913C149.94 32.1929 148.452 31.9492 146.964 31.7207C146.784 31.6923 146.569 31.8925 146.369 31.9889C146.465 32.1815 146.512 32.4573 146.669 32.5555C147.479 33.0617 148.32 33.5207 149.132 34.0759C144.85 35.8268 140.496 36.0044 136.071 34.8428C136.071 35.6682 136.105 36.4728 136.064 37.2736C135.979 38.9414 135.506 40.5147 134.728 41.9842C134.311 42.7737 134.335 43.4782 134.613 44.3319C135.189 46.1017 135.654 47.9149 136.054 49.7338C136.241 50.5837 136.254 51.5017 135.756 52.3894C135.606 52.261 135.472 52.1816 135.391 52.0664C134.615 50.9577 133.487 50.9256 132.341 51.1428C130.08 51.5678 128.692 53.432 128.899 55.6664C129.081 57.608 131.013 59.2229 133.155 59.2702C134.622 59.3023 135.822 58.7659 136.817 57.6779C138.562 59.1436 140.496 60.2655 142.521 61.2552C144.283 62.1165 145.169 63.6143 145.413 65.6749C145.137 65.2216 144.967 64.8552 144.716 64.5549C144.435 64.2168 144.108 63.9014 143.749 63.6521C143.6 63.5482 143.264 63.5671 143.107 63.6729C142.993 63.7484 142.988 64.0657 143.02 64.2622C143.209 65.4237 143.537 66.574 143.602 67.7394C143.685 69.2372 142.975 70.3817 141.552 70.9937C140.844 71.2978 140.177 71.6453 139.548 72.11C139.055 72.4745 138.434 72.6671 137.937 72.9014C137.595 71.8078 137.327 70.7992 136.957 69.8302C136.742 69.2674 136.377 68.7574 136.043 68.2493C135.979 68.1511 135.665 68.0793 135.606 68.1379C135.465 68.2739 135.325 68.5024 135.335 68.6838C135.355 69.0898 135.499 69.4903 135.54 69.8963C135.678 71.2921 135.27 72.5482 134.598 73.7249C134.537 72.9372 134.573 72.1496 134.401 71.4111C134.001 69.6867 132.864 68.4495 131.368 67.626C129.143 66.4002 128.063 64.5436 127.891 62.0712C127.764 60.2599 127.623 58.4485 127.472 56.6391C127.379 55.5153 126.88 54.5161 126.471 53.4887C125.179 50.2608 123.941 47.0121 123.205 43.601C122.895 42.1674 122.763 40.7131 123.048 39.2625C123.392 37.5097 124.157 36.0006 125.717 34.9901C126.066 34.7635 126.287 34.5047 126.212 33.9777C126.148 33.5358 126.325 33.0296 126.497 32.5895C127.128 30.967 128.22 29.7016 129.561 28.6004C131.026 27.3954 132.66 26.5077 134.415 25.8504C137.135 24.8323 139.926 24.0258 142.84 23.854C146.799 23.6198 150.21 25.0231 153.291 27.4483C156.103 29.6638 157.524 32.6726 158.459 35.9949C158.923 37.6438 159.403 39.2889 159.805 40.9529C160.449 43.6199 161.857 45.8146 163.751 47.7581C164.669 48.6988 165.506 49.7262 166.316 50.7632C167.047 51.6962 167.255 52.8503 167.394 53.993C167.655 56.1121 167.457 58.169 166.416 60.0842C166.354 60.1938 166.286 60.3014 166.18 60.479Z" fill="black"/>
<path d="M157.718 69.6564C159.406 68.2588 158.447 67.7488 157.367 66.3114C162.309 65.7203 163.885 65.5257 165.297 60.4336C165.373 61.3742 165.447 62.3167 165.528 63.3442C169.566 58.1841 169.543 51.2863 164.344 46.9686C167.83 40.5922 171.491 34.3271 175.081 28.0111C175.461 27.1479 175.994 26.5832 176.998 26.6606C179.463 26.6814 183.928 28.0829 182.831 31.2843C177.909 44.7701 172.133 57.9499 166.081 70.9635C165.5 69.8472 164.925 68.7479 164.353 67.6487C164.279 67.6732 164.204 67.6997 164.13 67.7242C164.585 69.8831 165.643 71.8927 166.236 74.0233C167.152 76.9433 167.36 79.9219 166.863 82.9628C166.232 87.0066 166.062 91.1147 165.637 95.1831C165.326 100.266 166.442 105.318 167.199 110.32C167.564 112.167 164.278 112.886 162.972 113.364C160.581 113.969 156.732 114.815 155.924 111.661C154.955 108.013 155.261 104.236 155.827 100.547C156.671 95.8404 156.626 90.8786 157.767 86.2794C160.079 82.1997 160.079 77.3966 159.867 72.8503C159.822 70.6178 160.169 70.259 157.718 69.6564Z" fill="#D52B1E"/>
<path d="M154.101 36.2878C154.165 36.3293 154.222 36.4313 154.258 36.5125C154.735 37.5343 155.279 38.5392 155.71 39.5761C156.932 42.9494 157.646 46.5041 158.377 50.0153C159.854 57.3834 151.662 61.2912 145.382 60.0352C144.666 59.9559 144.6 60.3185 145.218 60.6358C147.082 61.5197 149.143 61.244 151.081 60.8096C151.636 60.6887 152.203 60.5376 152.754 60.4205C152.854 60.4054 152.924 60.4205 152.949 60.479C152.879 61.3139 152.578 62.2148 152.431 63.0836C152.246 63.9544 152.074 64.8251 151.891 65.6996C151.823 66.1113 151.515 66.3852 151.122 66.5136C149.413 67.169 147.974 66.3512 146.682 65.3275C146.202 64.9384 146.128 64.3246 145.938 63.7485C145.429 62.1978 144.221 60.9928 142.751 60.3185C141.055 59.5479 139.506 58.6186 138.003 57.5363C137.432 57.1624 137.174 56.6959 137.408 56.0235C137.427 55.9271 137.442 55.7968 137.364 55.7307C136.97 55.5418 136.735 56.0952 136.562 56.3691C134.809 59.6197 129.711 58.6167 129.83 54.894C129.902 53.6398 130.863 52.6123 132.025 52.21C132.743 51.9758 133.657 51.8512 134.335 52.278C134.76 52.5746 135.024 53.1072 135.546 53.2564C136.981 53.5341 137.21 51.1637 137.064 50.1607C136.649 48.1152 136.029 46.1093 135.444 44.1016C135.257 43.5841 135.241 43.0288 135.515 42.5377C136.12 41.2628 136.634 39.9425 136.798 38.5335C136.885 37.8252 136.924 37.1188 136.981 36.4068C136.99 36.3067 137.011 36.2217 137.06 36.1726C141.665 36.7486 146.217 36.7033 150.605 34.5199C150.675 34.4859 150.731 34.45 150.763 34.4103C150.826 34.3348 150.771 34.2498 150.705 34.1894C150.323 33.8513 149.912 33.5774 149.572 33.2393C149.511 33.0995 149.749 33.1392 149.844 33.126C151.617 33.1373 152.784 34.1214 153.678 35.5436C153.933 35.9421 153.664 35.9686 153.324 35.876C152.203 35.5814 151.266 36.131 150.546 36.9564C150.37 37.1925 149.83 37.7629 150.117 38.0443C150.208 38.1104 150.357 38.0802 150.471 38.0009C151.557 37.0149 151.942 36.4124 153.551 36.4294C153.759 36.4049 153.959 36.2273 154.084 36.2802L154.101 36.2878Z" fill="#EED3CA"/>
<path d="M145.396 191.465C144.558 191.818 143.84 192.205 143.075 192.411C142.627 192.53 142.066 192.458 141.619 192.298C140.572 191.925 139.543 191.491 138.544 191.004C137.239 190.365 135.97 189.653 134.661 188.96C134.785 188.565 134.878 188.201 135.016 187.855C135.473 186.709 135.507 185.524 135.388 184.318C135.008 180.464 134.647 176.608 134.262 172.755C134.017 170.282 133.688 167.817 133.495 165.341C133.255 162.249 133.051 159.152 132.957 156.052C132.889 153.818 133.274 151.612 133.847 149.447C134.054 148.658 134.062 148.614 134.889 148.646C137.184 148.735 139.479 148.86 141.772 148.984C142.882 149.045 143.991 149.141 145.141 149.222C145.07 150.161 145.007 151.058 144.934 151.956C144.739 154.347 144.565 156.74 144.335 159.129C144.118 161.379 143.851 163.624 143.581 165.868C143.266 168.488 142.924 171.104 142.592 173.72C142.231 176.557 141.866 179.394 141.504 182.232C141.387 183.15 141.264 184.066 141.16 184.986C141.088 185.619 141.252 186.191 141.594 186.739C142.652 188.431 143.838 190.018 145.396 191.465Z" fill="#EED3CA"/>
<path d="M182.933 25.8315C183.218 26.1318 183.434 26.3603 183.666 26.604C183.477 27.0214 183.267 27.4898 183.033 28.0054C181.588 26.6738 179.868 25.9807 177.864 25.7389C178.096 25.2214 178.313 24.7322 178.53 24.2487C178.842 24.328 179.114 24.396 179.388 24.464C179.412 24.4206 179.437 24.3771 179.462 24.3337C178.347 22.9417 177.582 21.4306 177.444 19.6363C177.497 18.2122 176.256 14.6613 177.388 13.7982C178.323 13.8359 178.455 15.007 178.644 15.7247C179.097 17.9553 181.139 19.2189 182.45 20.9868C183.054 20.1652 181.921 18.7505 181.263 18.1933C180.869 17.8665 180.738 17.5965 180.912 17.0525C181.617 14.9352 182.136 12.7159 182.839 10.6137C183.241 10.2001 183.98 10.0678 183.802 10.8536C183.772 12.034 182.399 14.9257 183.381 15.6605C183.694 15.7965 183.847 15.5018 183.947 15.2242C184.576 13.6641 185.015 11.9831 185.766 10.489C186.977 9.55599 186.461 11.6676 186.323 12.2513C186.327 13.0502 185.079 15.7379 185.891 16.0344C186.257 16.1572 186.388 15.8777 186.518 15.5925C187.1 14.3157 187.681 13.037 188.297 11.7772C188.613 11.0519 189.517 11.3182 189.351 12.0945C189.321 13.5734 187.459 16.1534 188.054 17.2829C188.718 17.7211 190.169 15.2808 190.821 14.8596C191.412 13.9493 192.33 14.4819 191.527 15.3394C190.388 16.9656 189.253 18.5899 188.235 20.2955C186.626 22.3184 185.959 25.5689 182.933 25.8315Z" fill="#EED3CA"/>
<path d="M102.619 39.7555C103.227 40.0067 103.441 39.5628 103.718 39.202C104.256 39.8405 104.783 40.4656 105.352 41.1399C103.828 42.2222 102.523 43.5103 101.471 45.0931C101.006 44.6096 100.583 44.1657 100.128 43.6897C100.405 43.4858 100.468 43.1647 100.63 42.8814C100.003 42.7019 99.3778 42.9569 98.7564 42.9437C96.7108 42.6793 95.2697 40.8377 93.4905 39.9066C92.0853 38.881 90.2702 38.337 89.0953 37.0356C88.6836 35.2961 91.8548 37.8081 92.4687 37.9687C92.8181 38.1481 93.2204 38.1972 93.4754 37.793C94.1591 36.4728 89.8735 34.5632 89.9151 32.937C90.3778 30.8783 93.787 36.384 94.8391 36.0837C95.0412 35.8023 95.3774 35.3716 95.0582 35.0411C94.1856 33.5395 92.8974 32.1796 92.2647 30.578C92.2005 29.9736 92.8766 29.4598 93.3545 29.9679C94.5104 30.9878 95.9364 34.2856 97.2321 34.346C97.5759 32.9125 95.7041 30.374 95.3188 28.8271C95.1979 28.2604 95.6607 28.0583 96.114 28.2076C97.336 29.6336 98.0103 31.5903 99.0548 33.1807C99.3891 33.957 100.894 35.0411 101.072 33.6056C101.263 32.784 100.492 29.9226 101.414 29.7771C101.797 29.728 102.05 29.9377 102.122 30.3003C102.574 33.4262 103.964 36.6938 102.619 39.7555Z" fill="#EED3CA"/>
<path d="M132.168 153.389C132.107 154.332 131.988 155.251 132 156.171C132.019 157.679 132.109 159.186 132.194 160.691C132.215 161.067 132.134 161.267 131.75 161.413C130.249 161.989 128.759 162.597 127.276 163.222C127.044 163.32 126.804 163.53 126.685 163.753C125.266 166.399 123.925 169.077 123.634 172.135C123.604 172.454 123.523 172.77 123.455 173.142C122.441 172.913 121.441 172.7 120.452 172.449C120.348 172.422 120.229 172.171 120.235 172.027C120.306 170.418 120.42 168.809 120.482 167.2C120.565 165.058 120.614 162.916 120.678 160.774C120.682 160.653 120.678 160.534 120.68 160.413C120.705 159.38 120.839 159.224 121.838 159.076C122.261 159.014 122.705 159.014 123.107 158.885C123.653 158.712 124.212 158.51 124.692 158.204C127.134 156.647 129.552 155.051 131.979 153.472C132.036 153.438 132.1 153.419 132.168 153.389Z" fill="#EED3CA"/>
<path d="M119.903 159.212C119.769 162.357 119.648 165.317 119.512 168.276C119.454 169.561 119.361 170.843 119.289 172.126C119.242 172.989 119.367 173.166 120.222 173.376C121.153 173.605 122.088 173.822 123.029 174.013C123.361 174.08 123.424 174.228 123.399 174.541C123.32 175.548 123.288 176.559 123.205 177.565C123.171 177.985 123.137 178.442 122.95 178.802C122.54 179.596 121.903 179.83 120.934 179.579C119.661 179.248 118.639 178.564 118.179 177.269C117.79 176.177 117.402 175.082 117.11 173.962C116.798 172.77 117.13 171.584 117.327 170.401C117.54 169.119 117.722 167.832 117.909 166.546C117.935 166.363 117.924 166.167 117.897 165.981C117.842 165.6 117.572 165.475 117.227 165.655C116.237 166.167 115.748 166.034 115.313 165.031C115.056 164.44 114.903 163.802 114.73 163.179C114.635 162.835 114.762 162.601 115.085 162.37C116.171 161.592 117.198 160.729 118.292 159.962C118.747 159.641 119.318 159.478 119.903 159.212Z" fill="#D52B1E"/>
<path d="M151.02 196.283C150.517 196.368 150.051 196.511 149.584 196.515C147.803 196.53 145.988 196.702 144.246 196.43C142.718 196.192 141.262 195.463 139.793 194.902C139.062 194.625 138.338 194.46 137.373 194.596C137.67 194.842 137.84 195.044 138.057 195.15C138.811 195.518 138.816 195.507 138.744 196.46C137.794 196.5 136.829 196.555 135.862 196.564C135.738 196.566 135.543 196.355 135.496 196.207C135.05 194.785 134.563 193.372 134.232 191.924C134.085 191.278 134.268 190.556 134.306 189.761C135.624 190.477 136.771 191.168 137.974 191.735C139.254 192.337 140.577 192.864 141.91 193.344C142.547 193.573 143.232 193.455 143.865 193.163C144.518 192.86 145.168 192.549 145.841 192.296C146.107 192.196 146.456 192.158 146.721 192.239C147.423 192.456 148.109 192.736 148.785 193.025C149.917 193.508 150.517 194.432 150.833 195.576C150.887 195.769 150.936 195.966 151.02 196.283Z" fill="#D52B1E"/>
<path d="M156.387 150.365C155.911 151.193 155.361 151.848 154.657 152.279C153.452 153.019 152.203 153.712 150.913 154.286C149.166 155.063 147.36 155.709 145.496 156.445C145.7 153.995 145.895 151.652 146.095 149.221C149.538 149.604 152.915 149.98 156.387 150.365Z" fill="#EED3CA"/>
<path d="M151.41 70.7727C151.837 70.6367 152.29 70.4932 152.81 70.3289C153.044 70.7349 153.303 71.1542 153.535 71.5868C154.863 74.0611 156.019 76.6166 156.931 79.2722C157.146 79.8973 157.127 80.6188 157.127 81.2969C157.126 82.2998 157.046 83.3009 156.993 84.4266C156.206 82.9703 155.562 81.6048 154.757 80.3412C153.894 78.9869 153.435 77.5099 153.016 75.9895C152.534 74.2462 151.956 72.5312 151.41 70.7727Z" fill="#212492"/>
<path d="M155.793 83.8695C153.369 81.042 149.726 77.6989 147.019 75.2076C146.615 74.8356 146.532 74.5201 146.689 74.0158C146.868 73.4322 146.987 72.8202 147.053 72.2121C147.11 71.6964 146.897 71.5113 146.373 71.5812C145.801 71.6587 145.236 71.8022 144.67 71.9174C144.196 70.6406 144.092 69.3808 144.588 68.104C144.902 68.5479 145.193 69.0257 145.55 69.445C146.334 70.3649 147.208 71.2129 147.947 72.1648C150.455 75.4022 154.227 80.8267 154.81 81.8391C155.394 82.8571 155.723 83.6939 155.793 83.8695Z" fill="#D52B1E"/>
<path d="M158.878 71.0465C158.929 75.0375 159.422 79.0284 158.073 82.8966C158.296 80.3506 157.807 77.8914 157.193 75.4473C156.439 72.4423 155.693 69.4373 154.941 66.4153C155.34 66.4323 155.791 66.4455 156.241 66.4814C156.322 66.4871 156.409 66.5796 156.469 66.6514C156.906 67.1765 157.336 67.7072 157.86 68.3494C157.514 68.6497 157.17 68.9084 156.874 69.2125C156.415 69.6828 156.498 70.121 157.104 70.3798C157.669 70.6216 158.256 70.8142 158.878 71.0465Z" fill="#D52B1E"/>
<path d="M149.066 69.0313C149.204 68.7499 149.301 68.5686 149.384 68.3835C149.597 67.9056 149.873 67.5732 150.481 67.5524C150.914 67.5392 151.34 67.3428 151.765 67.2144C152.245 67.0689 152.851 67.4674 152.878 67.9831C152.959 69.5489 151.584 70.2156 150.379 69.7982C149.926 69.6395 149.531 69.309 149.066 69.0313Z" fill="#212492"/>
<path d="M151.986 75.9178C151.44 75.2057 150.896 74.4917 150.349 73.7816C149.605 72.8202 148.858 71.8626 148.112 70.9031C148.103 70.8918 148.109 70.871 148.233 70.9258C148.439 70.5952 148.643 70.2666 148.828 69.9719C149.276 70.2042 149.761 70.4479 150.235 70.7104C150.343 70.7709 150.454 70.888 150.49 71.0013C151.004 72.5954 151.507 74.1933 152.007 75.7912C152.02 75.8309 151.99 75.8838 151.979 75.9291L151.986 75.9178Z" fill="white"/>
<path d="M147.805 69.7433C147.638 69.6526 147.47 69.5676 147.308 69.4732C146.05 68.7423 146.052 68.7423 146.316 67.3332C146.375 67.0159 146.418 66.6967 146.471 66.3586C147.223 66.7609 147.992 67.1746 148.77 67.592C148.462 68.2795 148.137 69.0048 147.805 69.7433Z" fill="white"/>
<path d="M153.613 69.0293C153.998 69.1237 154.33 69.2049 154.784 69.3164C155.093 70.6706 155.439 72.176 155.785 73.6813C155.743 73.6927 155.702 73.704 155.66 73.7153C155.125 72.7162 154.593 71.717 154.056 70.7216C153.951 70.5271 153.832 70.3382 153.715 70.1493C153.354 69.577 153.354 69.577 153.613 69.0293Z" fill="white"/>
<path d="M153.874 67.5542C153.554 67.2218 153.237 66.8875 152.918 66.5532C153.035 66.1414 153.154 65.7202 153.318 65.1404C153.588 66.0111 153.823 66.7628 154.055 67.5146C153.995 67.5278 153.934 67.541 153.874 67.5542Z" fill="white"/>
<path d="M130.911 107.708C131.492 107.787 132.074 107.866 132.731 107.955C132.588 108.223 132.475 108.437 132.342 108.684C131.836 108.408 131.353 108.142 130.867 107.878C130.88 107.821 130.896 107.764 130.911 107.708Z" fill="black"/>
<path d="M158.548 150.913C157.987 151.075 157.424 151.24 156.805 151.419C157.377 150.441 157.028 150.437 158.548 150.913Z" fill="black"/>
<path d="M151.977 75.9291C152.005 75.9479 152.035 75.9649 152.058 75.9895C152.063 75.9952 152.037 76.0292 152.026 76.0499C152.012 76.0065 152.001 75.9631 151.988 75.9177C151.986 75.9177 151.977 75.9291 151.977 75.9291Z" fill="white"/>
<path d="M126.514 56.6296C126.5 56.6429 126.491 56.6542 126.48 56.6655C126.468 56.6429 126.455 56.6221 126.449 56.5994C126.447 56.59 126.468 56.5768 126.48 56.5654C126.491 56.5862 126.502 56.6089 126.514 56.6296Z" fill="white"/>
<path d="M145.008 48.6892C145.828 48.5004 146.651 48.3625 147.441 48.1188C149.182 47.5824 150.91 47.0026 152.637 46.4152C153.277 46.1961 153.303 46.2074 153.451 46.8666C153.566 47.3803 153.828 47.862 153.932 48.3757C154.595 51.6508 151.607 54.2479 148.353 53.2411C146.481 52.6613 145.233 51.0917 145.081 49.1312C145.072 49.0028 145.04 48.8762 145.008 48.6892Z" fill="black"/>
<path d="M143.964 42.0994C144.17 42.1409 144.296 42.4223 144.372 42.6056C144.432 42.7737 144.457 42.9569 144.472 43.1495C144.476 43.3176 144.568 43.4102 144.731 43.329C145.091 43.1703 145.356 42.9002 145.582 42.53C145.639 42.4318 145.741 42.3336 145.801 42.4903C146.015 43.0891 145.979 43.7917 145.643 44.3508C145.441 44.6398 145.078 44.6681 144.746 44.6398C142.846 44.5019 141.482 45.4633 140.436 46.9667C140.296 47.1499 140.084 47.3124 139.848 47.2991C139.708 47.267 139.65 47.0139 139.631 46.8345C139.614 46.6003 139.708 46.3547 139.814 46.1413C140.487 44.8513 141.44 43.8672 142.838 43.4385C143.029 43.3762 143.227 43.2912 143.369 43.1571C143.614 42.9361 143.748 42.6074 143.854 42.2486C143.871 42.2014 143.899 42.1239 143.943 42.1069L143.964 42.0994Z" fill="black"/>
<path d="M153.833 38.3823C154.063 38.4277 154.19 38.7487 154.258 38.9546C154.354 39.1756 154.273 39.5552 154.469 39.6988C154.666 39.6818 154.779 39.253 154.906 39.1001C154.959 39.0207 155.013 38.9829 155.068 39.0151C155.429 39.457 155.457 40.0954 155.393 40.63C155.355 41.0833 154.93 41.2098 154.536 41.1078C153.21 40.8528 152.006 41.5554 151.107 42.4772C150.932 42.5999 150.699 42.8417 150.484 42.8039C150.38 42.7586 150.318 42.5225 150.288 42.3601C150.263 42.1957 150.312 42.0314 150.373 41.8765C150.811 40.7527 151.619 40.0048 152.777 39.7158C152.985 39.661 153.234 39.5779 153.383 39.4344C153.635 39.2153 153.667 38.8583 153.733 38.5221C153.746 38.4749 153.769 38.4031 153.814 38.3861L153.833 38.3823Z" fill="black"/>
<path d="M142.966 41.0191C141.808 41.0248 140.717 41.3553 139.838 42.0825C139.387 42.4111 139.062 42.9532 138.652 43.3687C138.104 43.6634 138.229 42.6926 138.397 42.3979C139.183 40.6281 141.667 39.4363 143.536 39.9293C143.818 40.0162 144.188 40.2901 144.209 40.5923C144.012 41.0172 143.419 41.0342 143.002 41.021L142.966 41.0191Z" fill="black"/>
<path d="M132.184 54.1969C131.848 54.008 131.362 54.2083 131.043 54.0062C130.918 53.7889 131.323 53.5906 131.506 53.5245C132.579 53.2053 133.64 53.2884 134.611 53.8418C134.832 53.9552 135.115 54.2253 135.077 54.4746C134.917 54.7598 134.477 54.6861 134.21 54.6087C133.897 54.5728 133.389 54.1421 133.179 54.5445C132.99 54.9203 132.826 55.3113 132.871 55.7419C132.875 55.8288 132.877 55.9176 132.854 55.9988C132.805 56.2349 132.541 56.2122 132.456 56.012C132.284 55.4964 132.278 54.9109 132.256 54.3877C132.25 54.3291 132.24 54.2593 132.203 54.2158L132.184 54.1969Z" fill="black"/>
<path d="M153.796 35.9667C153.9 36.0309 154.077 36.2066 153.977 36.3161C153.818 36.4672 153.571 36.573 153.342 36.539C152.508 36.4559 151.86 36.8544 151.276 37.3852C150.953 37.659 150.702 38.0217 150.324 38.2238C149.894 38.424 149.739 38.0292 149.869 37.6723C150.243 36.709 151.563 35.7193 152.572 35.6626C152.967 35.6418 153.41 35.8118 153.767 35.9497L153.796 35.9667Z" fill="black"/>
<path d="M152.987 54.0081C152.783 54.996 151.184 55.2812 150.339 55.0281C150.166 54.9771 149.975 54.8203 149.926 54.6484C149.937 54.5162 150.141 54.5011 150.247 54.4539C151.048 54.2405 151.892 54.1045 152.672 53.874C152.785 53.8381 152.959 53.8627 152.984 53.9836L152.987 54.0081Z" fill="black"/>
<path d="M149.114 42.7661C149.224 42.7586 149.333 42.8341 149.426 42.8927C150.134 43.3762 150.865 43.8427 151.551 44.3584C151.927 44.7078 151.66 45.044 151.216 44.8079C150.523 44.3659 149.843 43.8862 149.18 43.4046C148.976 43.2856 148.776 42.8587 149.086 42.7699L149.114 42.7661Z" fill="black"/>
<path d="M144.164 44.7776C144.319 44.7908 144.489 44.8248 144.621 44.8701C144.944 45.0193 144.966 45.3744 144.572 45.4462C144.054 45.535 143.525 45.6086 143.004 45.6596C142.883 45.6691 142.713 45.6294 142.645 45.535C142.566 45.2781 142.889 45.1553 143.093 45.0949C143.435 44.9872 143.795 44.8437 144.13 44.7795L144.164 44.7776Z" fill="black"/>
<path d="M153.621 41.6838C153.561 41.8274 153.404 42.0276 153.243 42.0918C152.854 42.2674 152.442 42.4299 152.036 42.5715C151.855 42.649 151.562 42.5224 151.693 42.2996C151.71 42.2674 151.732 42.241 151.759 42.2183C152.257 41.901 152.892 41.5573 153.615 41.6649L153.621 41.6838Z" fill="black"/>
<path d="M146.008 50.3269C148.718 50.4572 151.226 50.0662 153.234 48.0112C153.48 49.0576 153.314 50.0605 152.7 51.0049C151.978 50.8349 151.276 50.6177 150.558 50.512C149.442 50.3476 148.344 50.4931 147.288 50.9067C146.418 51.2486 146.416 51.2467 146.008 50.3269Z" fill="black"/>
<path d="M152.747 47.42C152.49 47.6882 152.271 48.0074 151.972 48.2133C150.716 49.084 149.302 49.5581 147.795 49.7658C147.19 49.8508 146.571 50.017 145.998 49.6638C145.808 49.5467 145.672 49.3446 145.547 49.1237C148.074 49.0292 150.365 48.2548 152.579 47.1782C152.634 47.2594 152.69 47.3407 152.747 47.42Z" fill="white"/>
<path d="M146.941 51.5677C148.66 50.9067 150.347 51.0653 152.015 51.6641C151.168 52.8181 148.571 53.1146 146.941 51.5677Z" fill="#EF6261"/>
<path d="M134.856 97.8765C134.125 100.902 133.256 104.191 131.579 106.82C131.313 106.82 131.046 106.82 130.774 106.82C130.584 105.732 131.785 104.079 132.074 102.929C133.662 99.2043 135.064 95.2341 135.2 91.1562" fill="#FCA6A6"/>
<path d="M165.882 75.4569C165.591 74.301 163.416 68.3514 164.273 67.9888C168.453 78.3732 167.267 80.2638 166.084 90.9448C165.493 90.669 165.676 90.1175 165.72 89.6944C165.918 86.2777 166.706 78.7377 165.882 75.4569Z" fill="#FCA6A6"/>
<path d="M173.57 54.5615C175.338 48.1322 177.954 41.8993 180.207 35.6097C180.823 33.9476 181.367 32.2571 182.007 30.6045C182.293 29.4542 180.674 28.7969 179.93 28.1812C179.369 27.709 178.372 27.5182 178.094 26.8213C179.918 26.9459 181.652 27.7185 182.808 29.1558C183.781 30.7726 182.359 32.8332 181.945 34.4821C179.178 41.1778 176.696 48.0264 173.57 54.5615Z" fill="#FCA6A6"/>
<path d="M125.19 56.7072C123.173 56.3389 120.478 53.2054 118.863 51.7964C116.581 49.4827 114.048 47.4428 111.565 45.3538C107.545 42.1788 108.801 41.5499 103.945 44.026C104.657 42.6775 106.27 41.786 107.653 41.191C108.722 40.8869 109.392 42.2846 110.197 42.7965C115.114 47.5184 120.321 51.9475 125.19 56.7072Z" fill="#FCA6A6"/>
<path d="M159.625 150.057C160.135 142.255 161.623 134.481 162.828 126.735C163.325 124.657 163.941 115.707 165.801 115.24C164.521 126.941 162.02 138.57 159.625 150.057Z" fill="#6A6969"/>
<path d="M133.675 110.446C133.186 113.262 132.079 115.988 131.665 118.851C131.004 121.677 130.912 124.64 130.404 127.453C129.898 121.92 130.691 116.222 132.529 110.985C132.691 110.393 133.158 110.361 133.675 110.446Z" fill="#6A6969"/>
<path d="M166.865 111.67C166.238 109.086 166.034 106.274 165.492 103.622C165.198 101.518 164.348 99.0532 165.606 97.155C165.917 100.685 166.359 104.202 166.867 107.709C166.797 108.799 168.052 111.104 166.865 111.67Z" fill="#FCA6A6"/>
<path d="M162.783 114.377C160.12 114.139 157.57 113.882 156.756 113.7C156.126 113.561 155.449 112.614 154.824 111.407C155.848 114.875 158.677 115.457 162.783 114.377Z" fill="black"/>
<path d="M134.901 108.406C133.549 108.157 133.541 108.125 132.989 109.379C132.942 109.488 132.897 109.598 132.852 109.708L140.835 110.448C138.905 109.632 136.956 108.867 134.901 108.406Z" fill="black"/>
<path d="M154.44 106.604C154.387 106.602 154.334 106.601 154.28 106.601C153.981 107.044 153.703 107.579 153.426 108.146C153.819 109.203 154.304 110.397 154.827 111.407C154.466 110.184 154.329 108.601 154.44 106.604Z" fill="black"/>
<path d="M165.845 113.37C164.761 113.785 163.739 114.125 162.785 114.377C163.773 114.465 164.776 114.55 165.713 114.628C165.758 114.207 165.805 113.789 165.845 113.37Z" fill="black"/>
<path d="M134.889 148.648C134.064 148.616 134.056 148.66 133.847 149.449C133.686 150.057 133.543 150.667 133.418 151.281L141.033 148.947C138.986 148.835 136.939 148.728 134.889 148.648Z" fill="black"/>
<path d="M146.097 149.221C146.016 150.19 145.939 151.143 145.859 152.095L153.32 150.023C150.906 149.757 148.517 149.491 146.097 149.221Z" fill="black"/>
<path d="M158.518 77.3626C158.384 75.4757 158.289 73.6833 158.344 71.7454C157.917 71.3544 157.101 71.158 157.09 70.478C157.715 70.6763 158.338 70.8728 158.977 71.0749C158.965 73.298 159.696 81.4177 158.18 82.5208C158.146 81.5858 158.535 77.8688 158.518 77.3626Z" fill="#FCA6A6"/>
<path d="M141.543 27.1535C142.438 26.5642 144.722 26.4679 145.283 27.4727C145.183 27.5086 145.062 27.5993 144.986 27.571C143.828 27.0289 142.744 27.3556 141.543 27.1535Z" fill="white"/>
<path d="M144.947 29.2652C144.257 29.0405 143.594 28.8251 142.805 28.5683C143.213 28.0186 145.466 28.5702 144.947 29.2652Z" fill="white"/>
<path d="M140.758 29.6826C141.279 29.1349 143.853 29.1387 144.08 30.0018C143.527 30.2568 142.994 29.8451 142.422 29.8621C141.857 29.7223 141.317 29.8451 140.758 29.6826Z" fill="white"/>
<path d="M132.269 36.9714C131.759 37.7874 131.831 38.6619 131.47 39.5288C130.968 38.745 131.309 37.3001 132.11 36.8354C132.161 36.8827 132.216 36.9261 132.269 36.9714Z" fill="white"/>
<path d="M130.209 39.9728C129.941 38.8187 130.077 38.2162 130.678 37.8838C130.699 37.9726 130.761 38.0764 130.731 38.1369C130.387 38.6412 130.793 39.7461 130.209 39.9728Z" fill="white"/>
<path d="M164.471 52.6917C163.848 51.7926 163.436 51.2902 162.656 50.6311C163.204 50.0871 164.962 51.9551 164.471 52.6917Z" fill="white"/>
<path d="M164.459 50.7103C163.896 50.546 163.501 49.9133 163.008 49.5714C162.78 49.4297 162.927 49.1483 163.169 49.2295C163.679 49.511 164.712 50.0039 164.459 50.7103Z" fill="white"/>
<path d="M120.853 123.392C120.5 125.141 119.984 126.856 119.134 128.433C118.547 129.523 117.802 130.507 117.066 131.498C115.239 133.965 114.41 136.532 114.238 139.605C114.244 139.501 117.117 139.306 117.145 138.779C117.315 135.706 118.144 133.14 119.973 130.673C120.707 129.679 121.451 128.697 122.041 127.607C122.891 126.03 123.406 124.317 123.76 122.566C123.773 122.498 122.373 122.802 122.266 122.834C122.035 122.899 120.913 123.097 120.853 123.392Z" stroke="black" stroke-width="2" stroke-linecap="round" stroke-linejoin="round"/>
<path d="M120.853 123.392C120.5 125.141 119.984 126.856 119.134 128.433C118.547 129.523 117.802 130.507 117.066 131.498C115.239 133.965 114.41 136.532 114.238 139.605C114.244 139.501 117.117 139.306 117.145 138.779C117.315 135.706 118.144 133.14 119.973 130.673C120.707 129.679 121.451 128.697 122.041 127.607C122.891 126.03 123.406 124.317 123.76 122.566C123.773 122.498 122.373 122.802 122.266 122.834C122.035 122.899 120.913 123.097 120.853 123.392Z" fill="#F2BFBB"/>
<path d="M219.31 60.513C218.552 63.7182 217.808 66.8592 217.066 70.0002C216.79 71.5641 216.246 73.0808 214.686 73.706C213.872 73.9119 211.088 75.676 210.642 74.7675C210.349 71.1089 211.029 67.3862 211.069 63.7031C208.157 64.6588 205.357 65.8601 202.487 66.931C201.523 67.3069 201.418 67.3314 200.819 66.3927C198.851 63.3159 196.862 60.2523 194.882 57.185C194.533 56.7015 194.369 56.2123 195.069 55.9743C199.721 53.5888 199.993 55.5361 203.835 57.9329C205.679 57.2114 207.53 56.4861 209.382 55.7608C208.623 53.5246 207.123 51.4904 206.105 49.3239C205.816 48.7913 205.342 48.0339 206.155 47.7242C207.798 46.8856 209.889 45.911 211.415 47.4975C213.262 49.2144 214.973 51.0503 216.803 52.7879C222.468 50.8878 227.158 47.3672 232.599 52.3365C233.931 53.7701 232.712 55.5115 231.096 55.9705C227.169 57.5042 223.221 58.9453 219.31 60.513Z" fill="black"/>
<path d="M101.498 85.6147C102.491 85.22 103.394 86.1342 104.312 86.4156C104.65 86.5742 104.745 86.7914 104.682 87.1503C103.779 89.9759 102.454 92.622 100.674 95.0038C98.3417 97.8993 95.2385 100.281 91.6932 101.461C91.0605 101.662 90.9793 101.66 90.6091 101.167C90.118 100.188 86.8278 97.293 89.3946 97.1098C91.6177 97.1381 93.5291 95.8839 95.4368 94.9131C98.9329 93.0602 100.055 89.0164 101.498 85.6147Z" fill="black"/>
<path d="M171.806 109.932C173.559 102.527 167.972 101.14 169.585 92.4179C169.906 90.8257 172.099 91.4792 173.283 91.1789C175.397 90.973 171.908 94.4314 173.631 98.479C174.358 100.923 178.356 108.012 175.102 109.487C174.005 109.602 172.89 110.329 171.806 109.932Z" fill="black"/>
<path d="M190.352 56.1593C188.867 52.6179 192.622 48.9631 194.337 46.1035C195.952 43.8823 196.078 41.1285 196.214 38.488C196.458 37.6041 197.839 38.0177 198.551 37.7722C199.21 37.7477 199.894 37.8799 199.746 38.6901C199.663 42.4261 198.464 45.7749 196.315 48.8139C192.613 54.4689 196.256 54.4273 190.352 56.1593Z" fill="black"/>
<path d="M90.1325 108.45C90.7199 108.495 92.0836 107.806 92.212 108.88C92.7579 111.61 91.6095 114.433 89.6849 116.377C88.2664 117.608 87.4354 119.159 87.5676 121.052C87.6016 122.139 87.7319 123.209 88.1399 124.238C88.4704 125.073 88.2759 125.379 87.3825 125.571C86.5193 125.577 84.7703 126.661 84.5512 125.339C82.9609 114.658 85.235 118.929 88.104 112.441C89.1088 109.723 87.5751 108.012 90.1325 108.45Z" fill="black"/>
<path d="M141.829 15.243C140.539 15.0768 139.693 13.1124 138.919 12.1473C138.79 11.8545 138.957 11.5486 139.257 11.5542C141.616 11.3427 143.877 10.4927 145.762 9.07616C148.094 7.3895 150.195 5.44407 152.021 3.21156C152.214 2.95846 152.467 2.62415 152.826 2.78281C153.678 3.27388 156.222 4.12949 155.021 5.35341C151.706 9.76367 147.222 13.7112 141.829 15.243Z" fill="black"/>
<path d="M70.0345 110.573C69.3035 111.402 68.0966 111.209 67.1182 111.485C66.1927 111.672 66.238 110.397 66.1172 109.778C65.7394 105.668 66.2135 101.286 68.4479 97.7273C69.1411 97.2873 70.4235 97.8992 71.2263 98.0352C74.169 98.2864 71.8118 99.6577 71.1564 101.065C69.6775 103.985 69.5774 107.383 70.0345 110.573Z" fill="black"/>
<path d="M113.367 0.81484C115.337 -0.579067 118.962 0.151884 121.228 0.55419C122.569 0.924388 126.549 2.48073 126.075 4.20328C125.712 5.10233 125.178 9.05551 123.906 6.74178C122.254 3.1078 117.738 2.64505 114.368 3.88219C112.882 4.15606 113.843 1.65912 113.367 0.81484Z" fill="black"/>
<path d="M97.4241 23.2137C96.7479 22.8341 96.3475 22.1182 95.6411 21.765C95.252 21.5346 95.1708 21.2589 95.32 20.8509C96.374 18.8658 97.8151 17.1338 99.719 15.8967C100.899 15.0732 106.364 13.1995 107.28 14.4461C107.446 15.2186 108.862 17.1225 107.391 17.2112C101.732 17.5531 100.773 19.3342 97.4241 23.2137Z" fill="black"/>
<path d="M92.9744 60.9607C91.7411 64.725 89.1025 68.1135 85.4194 69.7416C84.39 69.9323 83.4249 68.8123 82.4106 68.5706C80.248 67.2088 84.5846 66.2814 85.3948 65.5485C88.0467 64.6117 89.4783 58.4354 90.6607 59.0965C91.4634 59.6443 92.897 59.7916 92.9744 60.9607Z" fill="black"/>
<path d="M220.343 97.1568C220.357 97.7291 220.16 97.9728 219.646 98.0351C218.168 98.2164 216.759 98.6622 215.382 99.191C210.888 100.519 211.453 103.945 209.685 98.0804C209.356 96.8187 211.587 96.1029 212.429 95.489C214.558 94.3142 216.878 93.6343 219.284 93.3283C220.415 92.9978 219.924 96.424 220.343 97.1568Z" fill="black"/>
<path d="M211.877 115.946C209.053 116.675 206.216 117.159 203.517 118.292C202.057 118.66 201.948 116.328 201.349 115.431C200.146 113.734 208.802 112.344 209.952 112.165C210.687 112.242 212.47 111.049 212.375 112.382C212.243 113.576 212.171 114.775 211.877 115.946Z" fill="black"/>
<path d="M124.896 110.306C126.094 109.589 128.43 114.093 126.97 114.358C124.466 113.942 121.281 114.152 119.749 116.466C119.634 116.747 119.336 116.989 119.037 116.811C118.282 116.32 117.749 115.544 117.126 114.902C116.767 114.488 116.792 114.346 117.105 113.865C118.805 111.198 121.829 110.603 124.896 110.306Z" fill="black"/>
<path d="M100.853 78.069C100.307 74.8014 100.919 71.1391 103.029 68.5024C103.971 67.3597 105.63 68.5062 106.855 68.5496C107.647 68.5911 107.862 69.4279 107.18 69.8491C105.269 71.4791 104.375 74.1196 104.494 76.5882C104.679 77.4664 101.671 77.8971 100.853 78.069Z" fill="black"/>
<path d="M109.792 103.123C109.654 101.726 111.547 93.3284 113.553 94.2841C114.306 94.5863 116.766 94.2841 116.048 95.6194C112.091 103.105 116.443 103.943 109.792 103.123Z" fill="black"/>
<path d="M175.707 149.164C175.718 147.249 176.013 145.392 176.787 143.619C177.037 143.044 177.384 142.761 177.992 142.716C178.621 142.838 181.292 141.871 180.909 143.071C178.572 145.483 180.639 150.524 178.91 150.818C176.48 151.449 175.516 152.618 175.707 149.164Z" fill="black"/>
<path d="M183.711 59.0606C183.469 59.8596 183.911 61.4046 182.789 61.5122C181.063 61.8541 179.276 62.3131 177.841 63.3708C177.199 64.1792 176.003 60.6755 175.208 60.2033C173.976 58.6356 179.552 57.8405 180.54 57.6459C181.433 57.5194 182.338 57.4646 183.241 57.4004C184.2 57.3097 183.67 58.5053 183.688 59.0587C183.694 59.0587 183.704 59.0606 183.711 59.0606Z" fill="black"/>
<path d="M179.486 81.4592C179.392 82.5207 179.212 86.4588 178.124 86.4871C177.229 86.3455 175.329 87.3125 175.346 85.8147C176.198 83.6087 176.585 81.1476 175.251 79.0341C175.055 78.22 177.106 78.05 177.667 77.6893C179.252 77.1642 179.409 80.3996 179.486 81.4592Z" fill="black"/>
<path d="M190.372 77.863C190.984 78.1388 191.356 78.7224 191.847 79.1625C192.24 79.7027 193.413 80.2637 192.827 81.0135C191.418 82.4168 189.783 83.6087 188.71 85.3142C187.9 85.8638 186.721 84.5077 185.924 84.2131C184.145 83.3971 189.388 78.4278 190.372 77.863Z" fill="black"/>
<path d="M168.867 24.3054C168.318 23.5159 168.176 22.5791 167.63 21.782C167.367 21.3797 167.216 20.8131 167.664 20.4788C169.477 19.406 171.43 18.1216 173.51 17.7495C174.386 18.0593 174.263 20.1955 174.63 21.036C174.747 21.5856 174.762 22.0464 174.146 22.1938C172.295 22.6905 170.705 23.8313 168.867 24.3054Z" fill="black"/>
<path d="M182.471 128.11C182.025 128.884 181.104 129.237 180.428 129.791C180.033 130.063 179.708 130.027 179.383 129.679C178.293 128.095 177.434 126.361 176.066 124.971C175.247 123.773 177.524 122.955 178.18 122.204C178.635 121.803 178.983 122.315 179.224 122.685C180.282 124.502 181.81 126.102 182.471 128.11Z" fill="black"/>
<path d="M117.737 23.344C119.088 23.7841 120.276 24.5925 121.381 25.45C121.902 25.9732 121.876 26.179 121.228 26.5171C120.049 27.1234 118.84 27.6825 117.743 28.4285C116.627 29.2275 114.968 27.4955 113.637 27.4048C111.391 26.4567 116.721 23.4573 117.737 23.344Z" fill="black"/>
<path d="M172.395 131.162C171.415 132.535 169.662 133.357 168.574 134.719C168.044 135.274 167.628 135.476 166.92 134.73C166.34 133.835 164.172 132.973 165.133 131.753C166.535 130.669 168.064 129.73 169.547 128.758C169.847 128.605 170.142 128.618 170.38 128.862C171.041 129.63 171.933 130.259 172.395 131.162Z" fill="black"/>
<path d="M189.488 97.374C189.254 96.0499 191.728 96.0632 192.616 95.5947C193.069 95.4588 193.436 95.6646 193.472 96.1255C193.562 97.6044 194.182 98.919 194.671 100.281C194.99 101.429 191.91 102.064 191.065 102.479C190.765 102.587 190.3 102.528 190.28 102.139C190.238 100.519 189.639 98.97 189.488 97.374Z" fill="black"/>
<path d="M180.499 112.771C179.911 112.783 179.681 112.633 179.602 112.173C179.384 110.898 179.182 109.619 179.01 108.338C178.646 107.001 182.216 107.362 183.141 106.837C184.12 106.595 184.033 109.375 184.541 110.067C184.913 111.107 184.771 111.368 183.71 111.721C182.671 112.052 181.53 112.49 180.499 112.771Z" fill="black"/>
<path d="M196.932 90.4895C195.712 89.8322 195.329 88.2287 194.241 87.3523C193.672 86.78 193.434 86.3153 194.273 85.5258C194.972 85.0933 196.111 83.2518 196.897 83.5615C198.018 84.7042 198.965 86.0792 199.864 87.4033C200.325 88.2872 197.592 89.9229 196.932 90.4895Z" fill="black"/>
<path d="M191.711 121.467C191.826 120.94 191.581 119.773 192.272 119.444C193.048 119.116 195.011 117.703 194.778 119.491C193.858 123.779 198.123 123.843 193.154 126.204C191.622 126.752 191.955 122.466 191.711 121.467Z" fill="black"/>
<path d="M93.7682 139.089C93.9268 138.219 96.08 137.794 96.8242 137.225C97.4173 136.798 97.9952 137.014 98.2389 137.69C98.7451 138.645 99.3098 139.577 99.7782 140.549C100.088 141.541 97.1189 142.491 96.3615 142.948C95.9308 143.43 93.5831 139.522 93.7682 139.089Z" fill="black"/>
<path d="M117.019 121.061C117.423 122.644 117.658 124.293 117.448 125.928C117.291 126.743 115.051 126.622 114.32 126.777C113.062 126.661 114.45 123.698 113.412 122.491C113.334 122.349 113.359 122.151 113.34 122C114.356 121.327 115.833 120.946 117.019 121.061Z" fill="black"/>
<path d="M231.985 54.2234C231.186 55.3416 229.562 55.3831 228.398 55.9837C225.492 57.0584 222.628 58.2748 219.695 59.2702C219.508 59.0398 219.347 58.8433 219.196 58.6582C218.43 59.3495 217.874 60.2637 217.595 61.2647C216.82 64.1753 215.832 67.033 215.181 69.9662C214.741 72.0514 213.3 72.9826 211.628 73.7967L211.66 73.7778C211.619 73.7834 211.577 73.7891 211.536 73.7948C211.111 72.5595 213.167 59.952 210.98 61.6236C210.164 62.4018 209.564 63.3518 208.402 63.6559C206.213 64.4246 204.09 65.3671 201.888 66.0924C199.787 63.3197 198.088 60.1976 196.129 57.3002C198.142 55.0167 200.313 57.593 202.133 58.7394C202.998 59.4364 203.888 59.5082 204.921 59.1266C210.606 57.0282 216.252 54.8278 221.882 52.5896C225.201 50.7689 228.383 51.7812 231.436 53.5982C231.687 53.7286 232.014 53.8268 231.985 54.2234Z" fill="#D52B1E"/>
<path d="M231.985 54.2234C229.585 52.8332 226.706 51.1352 223.867 52.0664C220.052 53.5623 216.246 55.0771 212.42 56.5428C209.83 57.5325 207.237 58.5109 204.642 59.4798C202.487 60.2976 200.211 57.3247 198.288 56.3898C197.563 56.6958 196.845 56.9961 196.129 57.2983C196.018 57.1283 195.906 56.9583 195.789 56.7751C196.803 56.2349 198.135 55.3302 199.255 55.944C200.549 56.7732 201.792 57.6911 203.031 58.5977C203.473 58.932 203.882 58.9642 204.375 58.7677C210.69 56.2802 217.023 53.8381 223.327 51.326C226.249 50.1606 228.88 50.8141 231.366 52.4951C231.861 52.8729 232.531 53.6057 231.985 54.2234Z" fill="#FCA6A6"/>
<path d="M214.972 53.5227C213.478 54.1403 212.037 54.7598 210.507 55.3132C209.179 53.3338 208.144 51.0938 207.051 48.967C208.524 47.9206 209.623 47.915 210.864 49.0539C212.175 50.257 213.397 51.5508 214.649 52.8144C214.84 53.0071 215.033 53.2111 214.972 53.5227Z" fill="#D52B1E"/>
<path d="M211.629 73.7947C212.621 72.7898 214.283 72.3781 214.691 70.8973C215.308 68.5798 215.971 66.2736 216.617 63.9636C217.199 62.6528 217.176 59.7744 218.661 59.3003C217.711 63.21 216.795 67.1311 215.813 71.0333C215.376 72.8578 213.208 73.3942 211.629 73.7947Z" fill="#FCA6A6"/>
<path d="M214.97 53.5227C213.403 51.8474 211.816 50.1381 210.029 48.6932C209.132 47.9698 208.021 48.8122 207.047 48.967C206.858 48.5666 206.852 48.5081 207.109 48.3947C208.83 47.4749 210.029 47.235 211.427 48.8329C212.84 50.2873 214.387 51.6415 215.705 53.1771C215.512 53.4528 215.235 53.4717 214.97 53.5227Z" fill="#FCA6A6"/>
<path d="M211.535 73.7929C211.577 73.7929 211.62 73.7872 211.66 73.7759C211.63 73.8741 211.596 73.9308 211.535 73.7929Z" fill="#EF6261"/>
<path d="M103.585 87.5431C101.577 93.3303 97.2687 98.734 91.2454 100.511C90.641 99.7483 90.0555 98.9984 89.5625 98.0956C94.0596 97.4213 98.6304 94.9168 100.493 90.5972L100.48 90.6029C102.125 89.141 101.932 86.3815 103.585 87.5431Z" fill="#F2BFBB"/>
<path d="M103.584 87.5432C103.263 87.5186 102.942 87.4922 102.643 87.4695C101.991 88.5008 101.693 90.1667 100.48 90.603C100.956 89.2317 101.642 87.9323 102.197 86.5894C102.654 86.7329 104.046 86.8916 103.584 87.5432Z" fill="#EED3CA"/>
<path d="M100.493 90.5972C100.501 90.7615 100.486 90.9126 100.301 90.9806C100.365 90.8522 100.429 90.7237 100.493 90.5972Z" fill="#EED3CA"/>
<path d="M175.192 108.514C174.45 108.769 173.817 108.929 173.135 108.914C173.813 102.221 168.991 99.7708 170.514 92.4179C171.086 92.212 172.255 92.0911 172.865 92.1875C170.429 98.8699 176.161 102.515 175.192 108.514Z" fill="#0D8157"/>
<path d="M197.005 45.671C195.518 48.4116 193.715 51.0106 193.108 54.127C192.374 54.569 191.777 54.7711 190.957 54.858C191.339 49.0028 197.094 47.6297 197.199 39.5477C198.911 39.4004 197.216 44.7286 197.005 45.671Z" fill="#FFCE24"/>
<path d="M197.004 45.6712C197.236 43.6993 197.776 41.7803 197.697 39.7725C197.516 39.6913 197.357 39.6214 197.198 39.5497C197.198 39.3457 197.198 39.1417 197.198 38.932C197.699 38.7243 198.173 38.7337 198.698 38.7602C198.647 41.1022 198.324 43.6577 197.004 45.6712Z" fill="#FFEBA7"/>
<path d="M91.385 109.258C92.1801 116.468 84.304 115.544 87.1277 124.561C86.6423 124.844 86.155 124.929 85.6394 124.876C84.848 123.154 85.137 120.978 85.1011 119.087C86.1626 115.085 89.1581 116.386 89.5245 109.392C90.095 109.226 90.6918 109.285 91.385 109.258Z" fill="#0D8157"/>
<path d="M153.788 5.41201C150.718 9.38408 146.505 12.85 141.645 14.2986C141.141 13.7603 140.748 13.1484 140.336 12.4439C144.589 11.5977 148.225 9.01766 151.385 6.16374C152.035 5.57822 153.034 4.14465 153.788 5.41201Z" fill="#D52B1E"/>
<path d="M153.787 5.41207C153.519 5.28364 153.252 5.15331 152.937 5.00221C150.863 6.7361 148.991 9.17827 146.332 9.94699C148.697 8.09789 150.837 6.05992 152.775 3.76318C153.341 3.99172 153.8 4.35437 154.235 4.74345C154.18 5.04943 154.006 5.24586 153.787 5.41207Z" fill="#EF6261"/>
<path d="M67.0315 109.666C66.4629 105.989 67.5584 100.84 69.0751 98.6528C69.8533 98.5282 69.8986 98.5357 71.268 99.0476C69.6644 101.473 68.6029 104.361 68.2629 107.311C68.1477 108.216 68.0098 109.181 67.0315 109.666Z" fill="#0479CE"/>
<path d="M67.032 109.666C68.6261 107.698 67.7157 104.859 69.3495 102.857C68.8206 105.271 68.9434 107.696 68.9793 110.152C68.4315 110.405 67.846 110.45 67.2322 110.543C67.0754 110.25 66.9961 109.974 67.032 109.666Z" fill="#78A2D3"/>
<path d="M123.897 4.77173C121.449 2.19546 117.84 1.90082 114.563 2.81875C114.374 2.27101 114.512 1.74027 114.406 1.19819C116.008 0.792111 117.523 0.909214 119.039 1.14153C120.176 1.72894 125.586 2.96041 123.897 4.77173Z" fill="#0479CE"/>
<path d="M123.897 4.77174C125.019 2.80365 119.985 2.31446 119.039 1.13965C121.256 1.30397 123.264 2.17091 124.962 3.5856C125.527 4.15034 124.805 5.0305 124.732 5.68401C124.261 5.67835 124.169 5.05883 123.897 4.77174Z" fill="#78A2D3"/>
<path d="M96.3086 21.0454C97.5117 17.6513 103.102 14.6085 106.517 15.1298C106.714 15.4301 106.95 15.7399 106.812 16.1875C102.266 16.807 99.9671 18.1405 97.4003 21.9577C97.0018 21.6536 96.59 21.4213 96.3086 21.0454Z" fill="#0D8157"/>
<path d="M88.0913 66.895C87.2867 67.6807 86.3593 68.2814 85.3148 68.7649C84.5385 68.6516 83.8812 68.2285 83.2164 67.8772C83.1635 67.6241 83.3467 67.6108 83.4695 67.5523C87.1129 66.2717 88.7297 63.9278 90.388 60.6111C91.2247 60.8245 91.4344 61.155 91.0604 61.8501C90.1651 63.5122 89.3643 65.2291 88.2235 66.7496L88.2159 66.6948C88.1385 66.7401 88.0516 66.7779 88.0913 66.895Z" fill="#FFCE24"/>
<path d="M88.2266 66.7515C88.9443 64.9817 90.0964 63.38 90.9766 61.6745C91.3846 61.1173 90.8066 60.8623 90.3911 60.6149C90.4572 60.4581 90.5233 60.3013 90.6064 60.103C91.1617 60.2088 91.5376 60.5488 91.9871 60.8359C91.1504 62.9928 90.053 65.2575 88.2266 66.7515Z" fill="#FFEBA7"/>
<path d="M218.348 97.291C215.892 97.9275 213.556 98.7755 211.386 100.109C211.036 99.3592 210.781 98.6414 210.672 97.8236C211.635 96.9302 212.818 96.3768 213.983 95.8536L213.968 95.8631C215.107 95.6931 216.814 94.3521 217.802 95.2417C218.246 95.8215 218.727 96.4618 218.348 97.291Z" fill="#F2BFBB"/>
<path d="M218.347 97.291C217.895 93.7364 216.263 95.7536 213.965 95.865C215.493 94.9131 217.191 94.5788 218.955 94.2898C219.212 95.2172 219.172 96.1502 219.421 97.0965C219.014 97.1626 218.738 97.2627 218.347 97.291Z" fill="#EED3CA"/>
<path d="M213.978 95.8555C213.899 96.0425 213.731 96.0444 213.566 96.05C213.702 95.9858 213.84 95.9197 213.978 95.8555Z" fill="#EED3CA"/>
<path d="M210.004 115.359C207.69 115.897 205.473 116.664 203.204 117.376C202.887 116.634 202.581 115.916 202.262 115.172C204.319 114.095 206.729 113.855 209.008 113.561C210.312 113.321 210.568 114.384 210.004 115.359Z" fill="#BBD0E9"/>
<path d="M210.006 115.359C209.957 114.83 210.046 114.292 209.931 113.712C208.518 113.821 207.239 114.101 205.84 114.008C207.638 113.33 209.466 113.183 211.38 112.977C211.395 113.699 211.236 114.392 211.193 115.104C210.779 115.279 210.39 115.308 210.006 115.359Z" fill="white"/>
<path d="M125.245 113.213C122.956 113.334 120.568 113.789 119.027 115.648C118.655 115.234 118.317 114.86 117.988 114.496C118.53 113.085 120.168 112.114 121.904 111.806C123.326 111.58 125.279 111.115 125.245 113.213Z" fill="#0479CE"/>
<path d="M125.242 113.213C124.975 112.751 124.822 112.269 124.469 111.853C123.629 111.838 122.763 111.821 121.898 111.806C124.001 111.122 125.795 110.501 126.343 113.266C125.933 113.4 125.589 113.279 125.242 113.213Z" fill="#78A2D3"/>
<path d="M103.682 69.3468C103.788 69.2052 103.892 69.0635 104.028 68.8784C104.702 69.0503 105.365 69.2184 106.126 69.411C104.396 71.3886 103.558 73.7911 103.567 76.3768C102.91 76.6223 102.313 76.8868 101.633 76.9925C101.55 76.2786 101.474 75.4324 101.93 74.8752C103.284 73.8119 103.507 72.1403 104.189 70.7162C104.642 69.9871 103.711 69.9399 103.682 69.3468Z" fill="#EF6261"/>
<path d="M103.68 69.3467C103.984 69.6375 104.836 69.8283 104.636 70.3591C103.714 72.1534 103.404 74.197 101.65 75.4342C101.617 73.2734 102.277 71.0315 103.68 69.3467Z" fill="#D52B1E"/>
<path d="M111.066 101.123C111.389 99.0665 112.005 97.106 112.993 95.2361C113.643 95.1511 114.24 95.2946 114.829 95.5005C114.196 97.0096 113.663 98.5546 113.121 100.098C112.88 100.778 111.918 101.218 111.066 101.123Z" fill="#BBD0E9"/>
<path d="M111.067 101.123C111.694 100.793 112.624 100.761 112.92 100.028C113.553 98.5263 113.932 96.8661 114.83 95.5005C115.077 95.5798 114.873 95.831 114.831 95.9991C113.813 98.0371 113.332 100.215 112.846 102.421C112.161 102.421 111.517 102.379 110.863 102.211C110.841 101.794 110.92 101.454 111.067 101.123Z" fill="white"/>
<path d="M176.705 149.753C176.609 148.544 176.624 143.077 178.736 144.217C179.159 144.521 178.845 144.946 178.747 145.283C178.288 146.778 178.269 148.947 176.705 149.753Z" fill="#D52B1E"/>
<path d="M176.705 149.753C178.06 148.272 178.288 146.282 178.802 144.414C178.394 144.157 177.962 144.349 177.565 144.263C177.665 143.377 178.842 143.656 179.535 143.549C178.587 145.583 178.615 147.708 178.666 149.899C178.05 150.174 177.427 150.256 176.811 150.409C176.588 150.218 176.677 149.98 176.705 149.753Z" fill="#EF6261"/>
<path d="M181.937 60.6753C180.45 60.9851 179.09 61.7463 177.685 62.1882C177.204 61.429 176.711 60.6546 176.184 59.8273C177.502 59.0586 183.164 57.5551 181.937 60.6753Z" fill="#0479CE"/>
<path d="M181.937 60.6755C181.867 60.1749 181.916 59.6555 181.637 59.1286C180.613 58.9737 179.519 59.0776 178.48 59.0417C179.88 58.6677 181.212 58.4713 182.681 58.3806C182.745 59.0813 182.97 60.8133 181.937 60.6755Z" fill="#78A2D3"/>
<path d="M167.61 31.8737C166.449 33.5321 164.414 35.5002 163.262 36.08C162.803 35.6305 162.72 35.4945 162.359 34.5992C163 33.7814 163.969 33.1996 164.686 32.4271L164.677 32.4366C165.672 31.9096 166.698 30.2645 167.61 31.8737Z" stroke="black" stroke-width="2" stroke-linecap="round" stroke-linejoin="round"/>
<path d="M167.609 31.8736C166.304 30.544 165.968 32.2646 164.676 32.4384C165.358 31.7244 166.039 31.0086 166.744 30.272C167.258 30.5213 167.686 30.8254 168.111 31.2466C167.936 31.4638 167.771 31.6697 167.609 31.8736Z" stroke="black" stroke-width="2" stroke-linecap="round" stroke-linejoin="round"/>
<path d="M167.61 31.8737C166.449 33.5321 164.414 35.5002 163.262 36.08C162.803 35.6305 162.72 35.4945 162.359 34.5992C163 33.7814 163.969 33.1996 164.686 32.4271L164.677 32.4366C165.672 31.9096 166.698 30.2645 167.61 31.8737Z" fill="#EF6261"/>
<path d="M167.609 31.8736C166.304 30.544 165.968 32.2646 164.676 32.4384C165.358 31.7244 166.039 31.0086 166.744 30.272C167.258 30.5213 167.686 30.8254 168.111 31.2466C167.936 31.4638 167.771 31.6697 167.609 31.8736Z" fill="#F2BFBB"/>
<path d="M178.43 82.6059C178.434 83.605 178.186 84.5532 177.905 85.4938C177.432 85.677 177 85.7336 176.579 85.6713C176.365 85.439 176.496 85.2426 176.554 85.0537C177.157 83.2216 177.287 81.2327 176.55 79.4195C177.429 78.7112 178.307 81.9882 178.43 82.6059Z" fill="#D52B1E"/>
<path d="M178.428 82.6058C177.916 81.8767 177.431 79.4516 176.549 79.4195C176.403 78.9152 177.455 78.8887 177.818 78.6318C178.547 79.8104 178.587 81.2591 178.428 82.6058Z" fill="#EF6261"/>
<path d="M188.802 83.6068C188.768 83.654 188.734 83.7031 188.702 83.7503C188.568 83.7749 188.459 83.824 188.476 83.9921L188.521 83.9808C188.262 83.9543 188.357 84.2055 188.264 84.3094L188.276 84.2981C187.692 84.4284 187.12 83.7768 186.617 83.5218C186.936 82.4962 188.54 80.5772 189.9 79.5762C191.883 80.5092 189.122 82.3375 188.802 83.6068Z" fill="#F2BFBB"/>
<path d="M188.805 83.6068C188.839 82.3621 190.061 81.5253 190.539 80.4091C190.325 80.1295 190.114 79.8538 189.9 79.5761C190.055 79.408 190.212 79.2399 190.399 79.0378C190.971 79.5214 191.43 80.0238 191.902 80.598C190.826 81.582 189.813 82.5661 188.805 83.6068Z" fill="#EED3CA"/>
<path d="M188.266 84.3096C188.262 84.1302 188.277 83.9658 188.523 83.9809C188.436 84.0905 188.351 84.2 188.266 84.3096Z" fill="#EED3CA"/>
<path d="M187.91 84.2793C188.033 84.285 188.154 84.2925 188.277 84.2982C188.142 84.5324 188.025 84.4153 187.91 84.2793Z" fill="#EED3CA"/>
<path d="M188.477 83.9922C188.552 83.911 188.628 83.8317 188.701 83.7505C188.628 83.8298 188.552 83.911 188.477 83.9922Z" fill="#EED3CA"/>
<path d="M172.866 21.5498C171.797 22.1882 170.525 22.7775 169.328 23.1533C169.028 22.5149 168.707 21.8255 168.406 21.1739C169.156 20.4543 170.21 20.3863 171.12 19.9613C172.208 19.2172 173.353 20.3863 172.866 21.5498Z" fill="#78A2D3"/>
<path d="M172.867 21.5497C172.834 20.9736 172.566 20.4769 172.375 19.9782C171.322 19.7761 170.438 20.6771 169.352 20.6261C170.379 19.7913 171.816 19.4532 172.936 18.8525C173.397 19.0225 173.46 20.6979 173.707 21.2796C173.405 21.3778 173.135 21.4628 172.867 21.5497Z" fill="white"/>
<path d="M180.88 128.267C180.614 128.503 180.349 128.743 179.964 128.905C179.029 127.343 178.126 125.845 176.961 124.44C177.172 124.074 177.482 123.851 177.813 123.647C178.402 123.905 178.67 124.472 178.986 124.959C179.675 126.025 180.567 126.982 180.88 128.267Z" fill="#FFCE24"/>
<path d="M180.882 128.267C179.956 126.663 178.942 125.116 177.812 123.647C177.973 123.52 178.132 123.396 178.283 123.277C179.082 123.994 180.833 126.559 181.394 127.812C181.337 128.089 181.086 128.153 180.882 128.267Z" fill="#FFEBA7"/>
<path d="M116.655 27.6127C115.897 27.2765 115.14 26.9384 114.379 26.6003C115.046 25.7579 117.023 23.9485 118.3 25.3178C119.28 25.8958 117.114 27.2066 116.655 27.6127Z" fill="#EF6261"/>
<path d="M116.656 27.6127C117.03 26.7514 118.118 26.453 118.43 25.6162C117.931 25.2989 117.38 25.0439 116.828 24.7852C117.115 24.6284 117.402 24.4716 117.691 24.313C118.679 24.6379 119.467 25.229 120.319 25.8334C119.797 26.1508 116.968 28.0981 116.656 27.6127Z" fill="#F2BFBB"/>
<path d="M167.71 134.156C167.132 133.578 166.584 133.03 166.016 132.46C167.066 131.349 168.548 130.524 169.855 129.725C170.394 130.067 170.8 130.573 171.236 131.1C170.069 132.11 168.939 133.091 167.71 134.156Z" fill="#0479CE"/>
<path d="M192.958 100.643C192.443 100.94 191.906 101.18 191.264 101.348C191.004 100.137 190.662 99.0002 190.535 97.8179C191.638 97.5308 192.314 97.8368 192.584 98.8605C192.737 99.4422 193.151 99.9843 192.958 100.643Z" fill="#0479CE"/>
<path d="M192.956 100.643C192.61 99.8237 192.34 99.038 192.136 98.1598C191.575 98.0408 191.054 97.9293 190.533 97.8179C190.493 97.6498 190.451 97.4817 190.398 97.2607C191.12 97.0284 191.798 96.8093 192.514 96.5789C192.92 97.8311 193.165 99.0645 193.662 100.275C193.488 100.54 193.224 100.596 192.956 100.643Z" fill="#78A2D3"/>
<path d="M182.512 111.068C181.887 111.332 181.258 111.579 180.552 111.715C180.329 110.671 180.089 109.719 180.059 108.729C181.898 107.732 183.149 109.149 182.512 111.068Z" fill="#EF6261"/>
<path d="M182.509 111.068C182.396 110.335 182.283 109.602 182.16 108.805C181.478 108.642 180.76 108.792 180.056 108.729C179.841 108.068 182.362 108.123 182.904 107.902C183.314 108.767 183.407 109.736 183.703 110.686C183.322 110.903 182.914 110.979 182.509 111.068Z" fill="#F2BFBB"/>
<path d="M198.247 88.2173C197.902 88.6782 197.388 88.9332 196.963 89.3732C196.213 88.4459 195.682 87.5147 194.902 86.6308C195.331 86.1246 196.483 85.099 197.035 85.8809C197.541 86.6024 198.089 87.3126 198.247 88.2173Z" fill="#EF6261"/>
<path d="M198.245 88.2174C196.352 85.4806 197.438 85.1935 194.902 86.6308C194.701 85.9981 196.152 85.2407 196.63 84.7458C197.519 85.6033 198.158 86.6119 198.849 87.5733C198.766 87.9284 198.5 88.0663 198.245 88.2174Z" fill="#F2BFBB"/>
<path d="M192.67 120.674C192.554 120.119 193.21 119.915 193.695 119.816C193.659 121.384 194.086 122.744 194.594 124.215C194.462 124.484 194.175 124.58 193.899 124.689C192.811 123.894 193.455 121.802 192.67 120.674Z" fill="#F2BFBB"/>
<path d="M192.669 120.674C192.809 120.712 192.948 120.749 193.135 120.802C193.43 122.085 193.458 123.467 193.896 124.691C193.675 124.833 193.453 124.976 193.194 125.143C192.572 123.713 192.652 122.189 192.669 120.674Z" fill="#EF6261"/>
<path d="M94.9707 139.579C94.9386 139.499 94.9065 139.42 94.8555 139.293C95.6657 138.88 96.4609 138.472 97.2466 138.071C97.7453 138.61 98.242 139.454 98.7425 140.6C98.5272 140.904 98.1872 141.014 97.8454 141.122C97.2108 140 96.0945 139.783 94.9707 139.579Z" fill="#78A2D3"/>
<path d="M94.9727 139.578C95.6299 139.578 96.2872 139.578 96.9653 139.578C97.3978 140.017 97.5603 140.606 97.8455 141.121C97.4129 141.38 96.9804 141.639 96.5687 141.885C96.0115 141.395 95.3107 140.37 94.9727 139.578Z" fill="#0479CE"/>
<path d="M114.473 122.498C115.003 122.088 115.606 122.1 116.174 122.013C116.603 123.001 116.707 124.359 116.441 125.515C115.927 125.681 115.383 125.785 114.777 125.783C114.775 124.661 114.788 123.596 114.473 122.498Z" fill="#EF6261"/>
<path opacity="0.3" d="M121.665 131.013C80.0689 127.6 141.291 86.8555 196.113 65.7372L194.194 64.0298C133.612 85.3634 51.0556 138.479 122.732 134.426L121.665 131.013Z" fill="white"/>
<path d="M122.734 134.426C115.877 134.942 95.5902 136.505 94.3776 127.269C93.7449 119.892 104.785 111.028 110.085 106.769C123.88 96.1652 139.179 87.6903 154.769 80.0484C167.558 73.8967 180.685 68.3796 194.197 64.0298C180.964 69.137 168.039 74.9355 155.402 81.3271C139.179 89.5829 107.896 106.552 97.7038 120.967C95.6072 124.051 94.1321 128.063 97.6584 130.711C103.283 134.849 115.781 134.534 122.734 134.426Z" fill="black"/>
<path d="M121.666 131.013C112.944 130.662 103.113 127.762 109.606 117.304C111.015 115.064 112.781 113.068 114.625 111.183C118.312 107.445 122.429 104.185 126.645 101.082C137.224 93.4322 148.577 86.9387 160.212 81.0571C171.845 75.2151 183.825 70.0135 196.114 65.7373C172.306 76.0027 148.883 87.5336 127.582 102.385C121.375 106.912 115.018 111.615 110.536 117.909C103.993 127.509 113.843 130.089 121.666 131.013Z" fill="black"/>
</svg>
