<svg width="300" height="200" viewBox="0 0 300 200" fill="none" xmlns="http://www.w3.org/2000/svg">
<path d="M130.098 196.894L130.094 196.906C130.662 196.22 131.276 195.455 132.263 195.499C130.036 199.299 138.457 199.277 140.621 199.178C142.09 199.152 143.385 198.03 144.549 197.366C145.988 197.525 147.198 197.858 148.553 197.83C149.663 197.902 149.655 196.664 150.002 195.883C150.914 195.79 152.096 196.698 151.261 197.581C150.141 198.542 148.521 198.645 147.13 198.958C143.387 199.269 131.645 201.071 130.098 196.894Z" fill="#CCCCCC"/>
<path d="M151.412 189.368C151.39 189.241 151.428 189.107 151.559 189.07C152.956 188.802 153.411 187.698 153.977 186.588C154.092 186.857 154.337 186.939 154.587 187.003C155.372 187.126 157.618 187.661 156.591 188.759C155.037 189.59 153.118 189.273 151.412 189.368Z" fill="#CCCCCC"/>
<path d="M151.412 189.368C151.533 191.541 150.547 193.528 150.021 195.6C150.084 197.199 149.682 198.131 147.98 198.089C147.171 198.099 146.374 197.978 145.598 197.794C143.569 197.388 142.679 199.807 139.352 199.373C137.258 199.399 129.537 199.112 132.264 195.499C133.133 194.315 134.356 193.52 135.612 192.808C138.085 191.202 139.869 188.613 141.632 186.279C142.388 184.573 141.088 180.779 141.062 178.702C140.568 176.098 140.789 173.218 139.811 170.77C135.267 164.357 126.359 156.22 127.012 147.945C125.643 146.823 126.592 144.992 126.795 143.529C128.619 136.365 130.578 129.232 132.824 122.189C132.477 121.693 131.636 122.181 131.969 121.125C132.792 117.236 133.838 113.38 134.139 109.404C134.207 108.753 134.087 108.121 133.902 107.505C133.067 104.958 132.477 102.361 131.494 99.8679C130.173 101.899 129.394 104.304 127.21 105.674C124.194 107.842 120.687 107.029 118.421 104.629C114.82 100.877 111.28 97.0659 107.657 93.3387C106.758 92.5318 107.199 91.5222 107.372 90.4564C105.686 88.1623 104.155 85.7196 102.77 83.2228C101.74 81.878 101.977 80.2964 102.719 78.8814C103.727 77.2295 104.502 74.3513 106.906 74.6845C108.291 73.3618 111.465 74.8169 111.101 76.806C111.459 77.4964 112.187 77.6108 112.558 78.223C113.116 79.7223 113.771 81.9743 112.398 83.2027C113.054 84.134 113.108 85.1054 112.725 86.1772C114.497 86.0829 115.463 87.7669 116.713 88.7785C118.291 90.3159 119.806 91.8414 121.556 93.2223C123.455 89.0334 124.778 84.419 126.275 80.0094C126.07 79.8588 125.876 79.7143 125.683 79.5738C125.725 79.4895 125.745 79.4012 125.779 79.3952C126.851 79.0901 126.735 77.5767 127.259 76.7498C127.471 73.3216 121.735 71.8404 122.07 67.2581C121.803 63.9142 123.646 60.6346 122.917 57.3569C122.175 55.2033 121.193 53.1319 120.84 50.8639C120.025 47.3193 121.526 43.8791 123.062 40.7399C124.079 38.8613 125.416 36.7498 127.592 36.1316C127.899 36.0633 128.078 35.8666 128.27 35.6398C134.759 28.5045 148.915 30.628 153.096 39.341C154.69 42.4661 155.455 45.9264 157.099 49.0254C158.293 51.735 161.576 53.0998 161.968 56.249C163.102 59.9682 159.947 66.9269 165.922 67.0895C165.506 68.1854 164.643 68.7173 162.476 69.1588C165.807 71.7942 167.431 75.6559 169.29 79.353C177.792 74.7005 188.181 79.8689 189.672 89.4208C190.702 97.0378 188.833 105.193 184.976 111.794C186.666 113.097 188.028 114.996 185.319 116.093C184.191 125.954 195.643 127.219 196.412 136.673C196.944 140.695 197.285 144.934 196.583 148.93C196.217 149.875 195.368 149.269 195.748 148.448C196.362 143.89 196.097 139.083 194.999 134.599C192.502 126.735 184.327 126.701 184.265 116.547C180.939 117.826 181.471 115.267 181.802 112.968C176.973 112.17 172.608 110.275 168.884 107.182C168.804 107.194 168.762 107.162 168.766 107.077C168.385 106.594 167.716 106.333 167.548 105.725C167.54 106.222 170.179 111.539 171.179 113.797C172.381 115.702 170.211 115.746 169.202 116.876C171.209 126.256 163.939 135.021 159.69 142.838C157.903 145.731 156.089 148.607 154.327 151.515C153.751 152.575 152.902 153.017 151.78 153.298C152.177 157.818 152.34 162.362 151.615 166.868C151.396 168.71 151.392 168.706 152.263 170.324C152.703 171.143 153.14 171.964 153.556 172.797C155.011 174.76 157.644 173.553 158.817 177.11C159.128 178.487 160.454 179.994 159.628 181.369C158.973 182.441 156.968 184.428 156.047 182.66C155.565 183.025 154.664 184.755 153.981 186.598C153.841 188.388 152.815 188.763 151.412 189.368Z" fill="black"/>
<path d="M102.496 90.3341C99.5721 89.4871 95.8027 79.1423 97.3663 76.9104C98.4481 80.8524 99.3814 85.1798 101.88 88.6882C102.161 89.2342 102.563 89.6657 102.496 90.3341Z" fill="black"/>
<path d="M96.4854 84.7683C97.513 87.1849 98.4203 89.6537 100.058 91.7371C100.327 92.0903 100.59 92.4496 100.676 92.8831C99.1428 93.7923 95.1828 85.3905 96.4854 84.7683Z" fill="black"/>
<path d="M153.672 150.65C151.466 147.268 147.293 146.447 143.544 145.98C138.167 145.482 132.744 145.179 127.391 146.018C128.603 138.682 131.074 131.464 133.177 124.307C135.712 123.849 138.237 123.564 140.75 123.018C142.173 122.538 142.868 118.795 143.753 117.494C144.327 118.96 144.122 122.163 145.995 122.305C147.155 122.089 147.869 123.265 149.064 123.112C155.713 123.247 161.574 119.295 168.107 118.831C167.304 125.144 164.898 130.916 162.138 136.568L162.144 136.556C161.941 136.705 156.558 146.397 153.672 150.65Z" fill="black"/>
<path d="M170.051 115.024C164.502 118.703 157.963 120.722 151.494 122.079C150.213 122.197 148.431 122.538 147.505 121.447C146.343 119.594 145.689 117.485 145.173 115.375C143.911 110.072 142.62 104.657 141.352 99.3842C142.841 95.6369 144.772 92.2048 146.64 88.5959C147.02 89.5654 147.078 90.4204 147.564 91.3156C149.071 93.8406 152.14 94.9947 154.667 96.2511C154.841 97.1423 154.851 97.7545 155.789 98.2402C158.822 100.095 161.716 102.174 164.835 103.89C166.047 104.577 165.732 104.197 166.382 105.691C166.892 109.085 168.735 111.953 170.051 115.024Z" fill="#D52B1E"/>
<path d="M121.304 94.3542C121.619 94.5088 121.924 94.7175 122.299 94.4987C123.981 89.7258 125.593 85.0191 127.193 80.1859C128.58 80.194 129.625 79.3991 130.408 78.2571C130.585 78.5481 130.506 78.805 130.53 79.0439C130.729 80.5392 133.686 79.4493 134.623 79.1864C134.86 79.4031 134.761 79.6239 134.711 79.8347C134.304 81.8258 133.409 83.3793 135.165 84.997C135.922 86.685 133.423 86.7633 135.145 90.0329C136.536 93.4611 138.714 96.4697 140.42 99.7414C141.224 102.618 141.77 105.608 142.541 108.51C142.808 110.231 143.571 111.933 143.541 113.673C143.145 116.593 142.172 119.632 140.482 122.051C138.906 122.243 134.21 121.597 133.059 121.019C135.615 108.506 135.837 109.5 131.735 97.3067C130.699 94.1314 130.179 90.7795 130.673 87.4517C130.914 85.6493 131.074 83.9011 130.864 82.0726C130.322 82.5684 130.452 83.2709 130.264 83.9172C129.844 86.3498 129.489 88.7885 129.569 91.2713C129.605 92.3993 129.804 93.5032 130.029 94.5991C130.318 96.6403 129.814 98.6796 129.744 100.723C128.367 105.428 122.474 108.035 118.893 103.784C115.764 100.281 112.227 97.102 109.289 93.453C111.368 92.4776 112.914 91.1007 114.126 89.1457C114.644 89.0233 114.859 89.4548 115.134 89.7298C116.655 90.9642 119.399 94.4144 121.304 94.3542Z" fill="#D52B1E"/>
<path d="M138.336 191.937C139.659 189.801 141.716 188.392 142.703 186.054C142.896 181.734 141.638 177.275 141.3 172.917C140.445 165.093 138.721 157.348 138.844 149.454C142.667 147.298 148.006 146.58 151.561 149.641C151.246 150.871 150.577 151.911 150.846 153.253C151.196 156.543 151.34 159.847 151.093 163.15C150.463 169.24 149.644 175.316 149.383 181.439C149.377 182.744 149.092 184.081 149.369 185.367C149.62 186.469 150.074 187.539 150.164 188.665C147.85 190.353 145.419 191.891 142.794 193.143C141.409 192.501 139.992 192.023 138.336 191.937Z" fill="#EED3CA"/>
<path d="M175.219 99.5508C175.629 102.562 172.907 105.572 169.826 104.91C165.091 103.589 161.043 100.466 156.961 97.8387C159.415 96.4077 160.939 94.3403 161.762 91.6407C162.705 91.3979 165.569 93.8686 166.739 94.3483C167.612 94.8541 168.493 95.2736 169.521 95.2917C169.866 95.38 170.822 96.0785 170.77 95.366C168.52 92.8029 164.965 91.6086 162.181 89.6577C158.5 87.6566 158.869 81.3843 156.186 78.2392C155.584 78.4961 156.692 80.1801 156.539 80.8825L156.543 80.8785C155.397 80.4149 154.311 80.6939 153.322 81.4104C151.628 80.8444 151.363 82.133 150.174 82.7552C149.789 82.8576 149.55 83.1667 149.333 83.5039C148.737 84.3147 148.153 82.691 147.684 82.3176C149.319 79.873 149.624 80.8203 149.669 77.625C150.528 77.8658 151.124 78.6305 152.067 78.5001C151.832 77.6872 151.208 77.0529 151.383 76.1196C153.843 78.3355 153.97 76.9064 156.477 75.8346C157.007 75.5617 157.442 75.1642 157.751 74.6865C158.93 72.9965 160.694 71.8625 161.866 70.1504C162.163 70.1123 162.354 70.2628 162.51 70.4796C162.874 71.6618 163.588 72.6594 164.246 73.679C169.25 81.6794 171.601 90.9262 175.219 99.5508Z" fill="#D52B1E"/>
<path d="M127.852 149.57C130.609 146.901 134.559 145.99 138.307 146.566C136.934 154.068 139.288 161.575 139.792 169.067C135.601 163.813 128.528 156.362 127.852 149.57Z" fill="#EED3CA"/>
<path d="M150.901 83.6283C151.111 85.1577 151.222 87.1407 152.484 88.1824C153.086 87.9918 151.665 84.6519 151.786 83.7628C151.33 81.023 154.024 82.6629 154.899 83.837C154.654 84.0217 154.429 83.9073 154.229 83.9414C152.972 84.407 155.678 85.0674 156.075 85.3203C156.336 83.841 155.144 82.9398 154.283 81.9784C156.34 79.8428 157.799 85.0714 158.626 86.4563C159.08 87.5201 159.164 88.624 158.935 89.756C158.873 90.0631 158.751 90.3762 158.945 90.7496C159.696 90.7676 160.091 91.3918 160.617 91.8234C160.162 93.8546 157.93 94.9685 156.262 95.8778C153.351 94.4868 149.427 93.4752 148.113 90.2297C147.75 88.9231 147.049 87.2391 147.657 85.9726C147.88 86.0107 147.824 86.2054 147.834 86.3419C148.004 87.8693 148.183 89.7741 149.379 90.8379C149.606 90.4726 149.452 90.1675 149.343 89.8785C149.076 88.899 147.481 84.68 149.201 84.678C149.024 85.25 149.765 91.0245 150.748 89.5132C150.863 88.2728 148.878 83.6002 150.901 83.6283Z" fill="#EED3CA"/>
<path d="M106.662 80.4289C107.72 80.9929 109.629 76.2661 110.713 77.8839C110.241 79.1303 108.479 79.9613 108.639 81.4606C109.167 81.2719 109.342 80.9307 109.603 80.5012C111.822 77.2516 112.194 78.6346 112.226 81.7235C112.296 82.3156 111.383 82.7191 111.238 82.0206C111.262 81.575 111.401 81.1555 111.447 80.6858C110.961 80.8404 110.839 81.019 110.317 82.2935C110.528 82.9318 111.142 83.3252 111.624 83.7587C113.011 84.8787 111.024 86.1934 111.69 87.3013C112.085 87.7971 112.509 88.2808 112.882 88.7886C111.963 89.8022 110.415 90.4184 108.643 90.4766C106.638 88.1122 105.107 85.3986 103.569 82.7211C102.841 81.4505 102.682 81.3723 103.368 79.6562C104.131 78.3295 105.41 74.0523 107.389 76.1116C106.445 77.2777 105.191 78.3776 105.058 79.9532C106.578 79.2909 107.27 75.0659 109.358 76.9546C108.364 78.0565 107.282 79.032 106.662 80.4289Z" fill="#EED3CA"/>
<path d="M148.62 196.926C147.741 197.045 146.741 196.922 146.014 196.621C146.145 195.969 146.821 195.672 147.082 195.1C146.432 194.739 144.118 196.71 143.297 197.055C140.411 199.196 136.204 198.458 133.081 197.217C131.836 195.933 136.495 193.004 137.637 192.812C139.042 192.762 140.376 193.061 141.651 193.643C142.813 194.173 142.813 194.177 143.961 193.605C146.269 192.505 148.297 191.088 150.442 189.699C150.535 192.167 149.256 194.566 148.62 196.926Z" fill="#D52B1E"/>
<path d="M156.703 175.623C158.106 176.821 158.196 178.523 158.922 180.077C159.294 181.207 157.999 182.018 157.102 182.449C155.994 181.763 156.825 181.235 156.526 180.33C155.641 180.185 153.834 185.139 153.17 186.076C152.612 187.116 152.582 187.957 151.149 188.163C150.207 186.475 150.117 184.665 150.29 183.429C150.952 183.567 151.452 183.828 151.849 183.107C153.449 180.542 155.448 178.431 156.703 175.623Z" fill="#D52B1E"/>
<path d="M148.267 79.9372C147.79 81.0592 145.863 82.0948 146.846 83.4798C147.039 83.817 147.408 84.0839 147.316 84.5495C147.141 85.248 146.539 85.7458 146.543 86.4844C146.048 88.2587 144.857 89.7942 144.103 91.4781C143.061 93.3066 142.357 95.2475 141.156 96.9797C142.092 89.4409 146.208 82.6408 147.802 75.2124C148.563 75.6078 148.362 79.0279 148.267 79.9372Z" fill="#D52B1E"/>
<path d="M151.309 170.473C152.804 172.951 152.657 174.33 155.819 175.143C154.903 177.915 152.633 180.131 151.01 182.535C150.795 182.415 150.58 182.293 150.355 182.168C150.285 178.29 150.711 174.28 151.309 170.473Z" fill="#EED3CA"/>
<path d="M175.22 99.5507C171.84 92.8027 169.961 85.4064 166.742 78.6003C165.923 76.9745 164.963 75.419 164.052 73.8414C163.538 72.7836 162.32 71.6937 162.513 70.4814C168.191 75.5374 173.492 91.9135 175.22 99.5507Z" fill="#FCA6A6"/>
<path d="M140.396 94.7155C139.718 93.5313 139.501 92.0782 139.111 90.7635C139.009 87.7087 139.73 84.5715 140.185 81.5488C140.663 81.4003 141.104 81.4545 141.596 81.5067C141.921 84.0236 141.783 86.6148 141.919 89.1578C141.761 91.0666 140.996 92.9031 140.396 94.7155Z" fill="#212492"/>
<path d="M136.441 78.2652C136.824 84.6177 137.689 91.0204 140.162 96.9515C138.779 95.392 137.826 93.3668 136.846 91.4961C136.389 90.4725 135.983 89.4268 135.534 88.4011C135.176 87.6164 135.919 86.9901 136.16 86.2896C137.115 84.706 134.641 83.9112 135.006 82.4119C135.341 81.6572 135.648 78.1748 136.441 78.2652Z" fill="#D52B1E"/>
<path d="M162.137 136.568C163.744 131.932 166.193 127.516 167.235 122.665C167.43 121.344 167.12 119.913 168.106 118.831C168.258 118.839 168.409 118.847 168.622 118.857C168.983 122.286 167.903 125.557 166.464 128.606C165.073 131.237 163.993 134.302 162.137 136.568Z" fill="#6A6969"/>
<path d="M142.84 77.6711C144.403 76.6534 145.764 75.5435 147.029 74.1807C146.722 76.8642 145.588 79.3691 144.213 80.2041C143.759 79.3671 143.308 78.5341 142.84 77.6711Z" fill="white"/>
<path d="M121.304 94.3542C120.345 95.8254 115.333 89.7759 114.129 89.1437C114.231 88.7804 114.332 88.4171 114.458 87.9675C116.828 89.9947 118.952 92.2949 121.304 94.3542Z" fill="#FCA6A6"/>
<path d="M144.953 80.8443C144.963 80.9969 145.023 81.1655 144.977 81.2979C144.243 83.1826 143.735 85.2199 142.856 87.0182C142.44 85.5089 142.733 83.2489 142.555 81.4364C142.759 81.2237 143.02 80.9507 143.281 80.6777C144.05 81.4164 144.104 81.4204 144.991 80.8283C144.989 80.8283 144.953 80.8443 144.953 80.8443Z" fill="white"/>
<path d="M170.051 115.024C169.004 114.195 168.789 112.675 168.147 111.543C167.456 109.608 166.061 107.834 166.378 105.688C167.845 108.258 168.871 111.064 170.144 113.737C170.326 114.149 170.659 114.819 170.051 115.024Z" fill="#EF6261"/>
<path d="M126.273 59.2175C126.625 59.1894 127.02 59.1612 127.359 59.1372C127.582 58.6414 126.661 58.531 126.795 57.953C127.189 57.7101 127.709 58.5129 128.606 57.9269C129.003 57.4853 132.094 57.2284 131.02 58.2219C132.188 59.2556 131.376 59.5426 130.244 59.1693C129.204 58.8461 128.449 59.4443 127.787 60.1809C127.211 60.1688 126.888 59.6229 126.352 59.6349C126.324 59.4924 126.3 59.3539 126.273 59.2175Z" fill="black"/>
<path d="M169.521 95.2916C167.791 96.1126 163.664 92.3793 161.762 91.6407C161.762 91.3577 161.762 91.0767 161.762 90.8418C162.077 90.6251 162.251 90.8157 162.432 90.9221C164.776 92.4014 167.297 93.6358 169.521 95.2916Z" fill="#FCA6A6"/>
<path d="M142.079 80.6174C139.679 80.776 138.535 80.5331 140.066 78.0222C140.598 78.0222 141.166 78.0222 141.817 78.0222C142.316 78.3915 142.617 78.9776 142.9 79.652C142.613 79.9892 142.33 80.3224 142.079 80.6174Z" fill="#212492"/>
<path d="M137.559 81.7376C138.496 82.0888 138.496 82.0888 138.986 81.1013C139.73 81.2679 138.958 82.8816 139.01 83.4637C138.807 84.5676 138.741 85.7298 138.446 86.8096C138.317 86.8618 138.309 86.8678 138.279 86.7654C137.966 85.0473 137.733 83.5259 137.559 81.7376Z" fill="white"/>
<path d="M138.187 76.6355C138.641 76.8141 138.823 77.2196 139.189 77.4163C138.775 78.4961 138.516 79.2428 138.175 80.3688C137.609 79.6402 137.724 78.7631 137.505 77.914C137.406 77.346 137.601 76.9165 138.187 76.6355Z" fill="white"/>
<path d="M135.672 43.534C134.473 43.5019 133.602 42.98 132.494 42.6609C132.324 42.6007 132.117 42.5264 132.191 42.2093C133.353 42.1651 134.865 42.5103 135.672 43.534Z" fill="white"/>
<path d="M148.269 79.937C147.884 78.536 148.147 77.0548 148.092 75.6177C148.839 76.6152 148.464 78.0624 148.685 79.2506C148.705 79.5637 148.536 79.7845 148.269 79.937Z" fill="#FCA6A6"/>
<path d="M147.317 84.5496C147.115 83.9515 145.527 82.7633 146.655 82.4521C146.992 83.2128 148.177 83.7046 147.317 84.5496Z" fill="#FCA6A6"/>
<path d="M157.699 58.9386C157.388 58.196 157.061 57.5898 156.684 57.0038C156.684 55.675 158.53 58.3305 157.699 58.9386Z" fill="white"/>
<path d="M158.916 58.7721C157.198 55.9962 158.934 55.9179 159.123 58.5292C159.117 58.6015 159.013 58.6637 158.916 58.7721Z" fill="white"/>
<path d="M136.674 42.9939C135.755 42.6447 135.045 42.3456 134.254 41.892C134.83 41.4123 136.532 42.2854 136.674 42.9939Z" fill="white"/>
<path d="M134.398 40.3145C135.555 40.3265 136.365 40.6757 136.729 41.2939C136.026 41.3923 135.205 40.746 134.475 40.5613C134.443 40.5473 134.441 40.4529 134.398 40.3145Z" fill="white"/>
<path d="M124.868 45.5129C124.978 46.1191 124.157 46.9219 123.92 47.5843C123.254 47.2672 124.312 45.6213 124.868 45.5129Z" fill="white"/>
<path d="M123.238 46.4382C123.26 45.8662 123.517 45.0633 124.133 45.2861C124.085 45.7598 123.702 46.2094 123.238 46.4382Z" fill="white"/>
<path d="M148.769 52.8168C148.799 56.2189 146.878 54.6352 145.608 52.9252C144.287 51.5985 144.084 49.2582 142.434 48.3389C142.416 48.4192 142.422 48.4252 142.434 48.3389C141.698 47.8853 141.698 47.8853 141.144 47.8752C141.577 48.1582 141.963 48.4091 142.348 48.66C142.189 49.0474 141.856 49.2883 141.437 49.4288C136.961 51.6165 131.65 51.3255 127.381 48.8226C126.875 50.1553 126.144 51.3496 125.374 52.5237C125.012 54.7095 126.028 57.0217 126.277 59.2155C126.715 59.3841 127.13 59.4102 127.461 59.087C127.507 58.7438 127.242 58.5652 127.246 58.1979C128.744 58.782 130.512 56.4898 131.142 58.9044C130.809 59.1533 130.466 58.9606 130.133 58.9164C128.716 58.4387 128.107 60.3315 126.901 59.6531C126.737 59.5607 126.54 59.5246 126.351 59.629C127.303 62.7079 127.812 66.0518 129.631 68.7815C132.429 72.5227 137.868 72.5589 141.666 70.4012C141.965 70.339 144.074 68.9782 144.901 68.7212C144.893 68.7172 144.885 68.7132 144.879 68.7092C145.12 68.5306 145.363 68.3519 145.652 68.1392C145.606 68.5647 145.606 68.5647 145.204 68.8858C143.089 70.9712 140.433 72.597 138.514 74.8611C139.897 79.8608 145.624 75.2585 146.884 72.4023C147.446 70.1363 147.478 67.7137 148.359 65.4858C148.819 63.571 149.823 61.7184 150.033 59.7895C149.66 59.5969 149.116 59.7153 148.879 59.2095C149.291 58.8442 149.778 58.8823 150.252 58.8763C156.542 58.515 154.242 49.0514 148.769 52.8168Z" fill="#EED3CA"/>
<path d="M144.989 80.8284L144.998 80.8745C144.965 80.8525 144.929 80.8484 144.989 80.8284Z" fill="white"/>
<path d="M156.539 80.8844C156.569 80.9085 156.599 80.9346 156.629 80.9587C156.569 80.9687 156.559 80.9286 156.543 80.8784L156.539 80.8844Z" fill="#212492"/>
<path d="M138.36 60.3958C142.902 66.1241 134.08 71.5915 132.328 64.2755C134.654 63.4727 136.383 61.7947 138.36 60.3958Z" fill="black"/>
<path d="M139.924 54.1094C140.363 54.3743 140.068 54.8319 140.211 55.1611C140.787 55.2956 140.815 54.6513 141.216 54.4767C141.847 54.9744 141.365 56.0844 140.606 56.0764C139.261 55.968 137.854 56.1105 136.863 57.1321C135.663 58.1999 136.02 57.3047 135.719 56.4136C136.656 54.8701 138.856 55.4722 139.924 54.1094Z" fill="black"/>
<path d="M150.87 55.1912C150.349 55.7632 150.24 56.9534 149.455 56.9755C149.102 56.8571 149.186 56.4135 149.263 56.1386C150.013 53.2523 153.721 51.9918 151.671 54.2117C151.966 54.8139 153.128 55.9398 152.382 56.5038C152.167 56.5681 152.019 56.4577 151.902 56.2891C151.579 55.8295 151.434 55.4642 150.87 55.1912Z" fill="black"/>
<path d="M139.689 51.9699C137.724 52.1545 136.53 52.7205 135.309 54.272C134.807 54.6414 134.609 53.9308 134.846 53.5635C135.62 51.9618 138.274 50.2498 139.689 51.9699Z" fill="black"/>
<path d="M130.8 55.7814C129.495 55.8677 128.443 54.9424 127.315 55.9379C127.046 56.1246 126.519 56.6645 126.264 56.3334C126.111 56.1527 126.171 55.966 126.28 55.8035C127.229 54.1757 129.937 53.9087 130.8 55.7814Z" fill="black"/>
<path d="M132.893 58.8181C132.483 59.5627 132.1 62.3848 131.347 62.4871C130.522 62.0375 132.208 59.4784 132.341 58.6435C132.588 58.2059 132.793 58.4809 132.893 58.8181Z" fill="black"/>
<path d="M136.785 68.3037C137.124 68.1733 138.521 67.4106 138.226 68.2054C137.779 68.4924 137.118 69.0825 136.785 68.3037Z" fill="black"/>
<path d="M136.682 66.8426C136.3 65.1165 137.489 63.4807 138.821 62.3928C139.443 64.141 138.596 66.5556 136.682 66.8426Z" fill="#EF6261"/>
<path d="M138.219 61.2146C139.419 62.1901 134.072 65.552 132.984 64.8736C133.021 64.7592 133.027 64.6187 133.073 64.6046C135.142 63.9945 136.641 62.5393 138.219 61.2146Z" fill="white"/>
<path d="M107.754 75.1401C108.47 74.7146 110.106 75.4873 110.213 76.3062C110.084 76.2821 109.98 76.2962 109.932 76.25C109.35 75.4271 108.242 75.9991 107.754 75.1401Z" fill="#EED3CA"/>
<path d="M212.913 116.772C215.881 105.301 206.239 102.69 213.682 86.2855C210.679 84.5132 212.102 83.6923 213.958 81.9481C204.894 70.5577 204.166 46.5464 222.069 43.9793C234.813 41.9602 244.748 56.5781 238.273 67.7196C233.528 75.1681 225.899 81.9582 216.957 83.4033C216.51 85.4526 218.019 87.4998 214.555 86.6388C207.283 101.927 216.75 105.173 213.868 117.137C216.829 118.369 220.03 118.668 223.217 118.488C225.11 118.837 223.163 121.043 222.926 122.091C221.768 123.757 214.252 121.34 212.455 120.688C211.496 121.525 210.029 126.336 208.754 125.88C208.084 125.234 211.227 121.462 211.488 120.232C209.84 119.11 207.891 118.383 206.604 116.82C206.074 116.386 207.198 114.235 207.566 113.781C207.754 113.603 208.007 113.586 208.162 113.781C209.404 115.26 211.138 116.148 212.913 116.772Z" fill="black"/>
<path d="M182.677 41.8398C183.544 43.8188 185.166 44.9147 182.209 45.7477C181.908 59.6189 192.717 58.8342 194.078 69.6305C194.224 71.1158 194.507 72.6492 194.146 74.1244C194.086 74.3332 193.909 74.4235 193.694 74.3914C193.152 74.299 193.363 73.6247 193.341 73.2333C193.775 58.9787 181.674 62.0917 181.218 46.0608C177.294 46.4562 177.83 44.8826 179.4 42.1288C165.629 35.0959 150.565 16.3092 166.205 3.31504C174.898 -3.6537 189.128 0.938607 192.026 11.7349C194.674 21.9211 188.632 33.7953 182.677 41.8398Z" fill="black"/>
<path d="M111.335 152.264C109.882 158.428 115.646 161.605 115.554 167.259C115.472 172.881 112.736 179.163 116.397 184.221C117.043 185.377 118.33 186.22 118.653 187.521C118.755 188.055 118.171 188.398 117.854 187.87C117.655 187.226 117.141 186.813 116.74 186.319C111.919 181.241 113.938 174.194 114.584 168.02C114.958 161.75 109.129 159.514 110.412 152.224C106.811 151.722 107.056 150.706 108.866 147.993C103.493 143.015 98.8846 136.771 97.5258 129.435C95.7676 121.003 101.099 111.463 109.848 109.909C119.412 107.67 128.022 116.354 127.344 125.794C126.513 135.213 119.711 143.009 112.71 148.82C112.906 150.602 113.689 151.973 111.335 152.264Z" fill="black"/>
<path d="M97.3857 56.9936C95.228 56.1647 94.5978 55.2033 96.1934 53.2684C92.7773 49.1879 89.6843 44.5595 89.1243 39.1382C88.4941 34.3593 88.6727 29.1187 91.6533 25.0964C99.6477 13.6678 117.79 22.4992 114.605 35.698C112.718 43.7265 107.026 50.5869 99.6377 54.1897C99.5734 55.4281 100.045 57.1903 98.2588 57.1883C97.4379 62.0937 94.4011 66.0939 92.2876 70.4715C89.2408 76.7779 86.4689 84.3387 88.8193 91.2733C88.9417 91.4499 88.8454 91.6587 88.6868 91.7851C88.0666 92.1625 87.6411 91.2312 87.5588 90.7254C85.5978 82.1549 89.315 73.6748 93.3975 66.3067C94.9631 63.3181 96.9321 60.4077 97.3857 56.9936Z" fill="black"/>
<path d="M173.61 175.514C182.383 181.743 187.74 176.982 196.347 182.411C196.889 182.716 196.997 182.919 196.851 183.505C196.006 188.723 193.362 184.866 190.408 184.027C186.323 182.419 181.741 183.549 177.671 181.853C176.372 181.237 171.601 179.322 172.344 177.59C172.843 176.837 172.733 176.01 173.61 175.514Z" fill="black"/>
<path d="M90.5374 194.982C92.4442 191.612 92.6088 194.333 97.0967 192.406C99.6538 191.403 102.315 190.419 105.099 190.917C107.821 191.188 110.504 192.24 113.258 191.85C114.918 191.636 114.575 193.597 114.673 194.695C114.846 195.361 114.44 195.628 113.902 195.792C109.176 196.876 104.621 193.143 99.9549 195.094C96.7475 195.945 94.4654 197.623 90.8806 196.834C89.8189 196.583 89.2428 195.728 90.5374 194.982Z" fill="black"/>
<path d="M170.656 154.913C171.368 154.534 172.127 154.13 172.855 153.741C174.256 154.02 174.684 156.063 175.832 156.906C177.956 159.259 180.926 160.146 183.917 160.816C186.871 161.488 188.354 164.176 189.609 166.673C190.247 167.931 188.11 168.066 187.379 168.568C185.781 169.489 185.994 165.159 182.652 164.058C178.231 162.452 173.383 160.965 171.001 156.523C170.718 156.057 170.457 155.575 170.656 154.913Z" fill="black"/>
<path d="M86.9064 150.853C86.7418 149.169 88.3094 142.164 90.3065 142.957C90.9829 143.499 92.6769 143.744 92.424 144.842C91.5409 147.296 90.6557 149.855 90.8705 152.505C91.0692 157.848 98.1062 158.859 95.7879 161.015C95.1577 161.641 94.8586 163.727 93.7086 162.839C90.0957 159.981 86.9987 155.55 86.9064 150.853Z" fill="black"/>
<path d="M120.984 18.0916C121.101 16.0423 120.942 13.409 122.279 11.6869C122.933 11.2373 123.479 12.297 124.047 12.5238C125.183 13.13 123.931 15.9279 124.176 17.1904C124.116 19.3501 124.278 21.4816 124.924 23.563C126.05 28.4383 131.048 30.0741 128.704 31.1459C126.179 31.8284 126.261 31.7641 124.627 29.763C121.954 26.4553 120.974 22.3025 120.984 18.0916Z" fill="black"/>
<path d="M139.336 4.73801C145.124 5.67133 150.118 9.40056 153.118 14.3963C153.295 14.6351 153.44 15.0807 153.092 15.2313C152.143 15.3657 150.848 17.5916 150.088 16.4837C147.298 11.6546 142.216 8.2545 136.588 8.01565C136.172 7.97952 135.434 8.1421 135.353 7.58612C135.317 7.31115 135.454 7.08434 135.703 6.96191C136.77 6.54443 137.595 5.77369 138.44 5.04109C138.639 4.87249 138.83 4.69988 139.336 4.73801Z" fill="black"/>
<path d="M198.925 62.0596C202.139 60.3114 199.923 59.9561 204.298 61.3571C205.015 61.9472 203.244 63.1173 202.935 63.6974C201.888 64.7712 200.176 64.141 198.907 63.872C192.713 62.9648 194.222 55.2374 195.24 50.8317C195.581 48.6861 197.512 50.7213 198.638 51.0746C199.22 51.3757 199.288 51.5202 199.039 52.1504C198.048 55.2173 197.091 59.1613 198.925 62.0596Z" fill="black"/>
<path d="M184.91 73.8093C190.736 72.88 187.372 74.3071 191.619 76.6715C194.518 78.1768 198.161 78.2671 200.509 80.768C203.411 83.4977 202.729 83.3913 199.469 84.9388C198.614 85.4607 197.482 82.7932 195.853 82.3998C191.892 80.6697 187.35 79.3109 185.14 75.2565C184.866 74.8069 184.721 74.3352 184.91 73.8093Z" fill="black"/>
<path d="M84.247 25.6042C84.1989 30.04 81.4612 33.8756 77.7339 36.0814C76.5838 36.6976 75.0163 35.9128 73.7297 35.8928C71.5741 35.0638 78.3882 33.7371 80.1144 28.1111C80.9453 25.827 80.8149 23.4907 79.7631 21.301C79.3477 19.7615 81.8345 20.6185 82.6674 20.5423C84.0303 20.9397 84.0042 24.3518 84.247 25.6042Z" fill="black"/>
<path d="M200.499 109.012C200.603 112.844 199.03 116.489 195.983 118.859C195.025 119.829 194.002 118.944 193.062 118.444C192.392 118.056 190.913 117.141 192.159 116.527C196.693 113.757 196.868 107.882 195.367 103.314C195.329 101.634 198.056 102.76 199.094 102.489C199.784 102.465 200.142 102.854 200.093 103.459C200.049 105.315 200.423 107.156 200.499 109.012Z" fill="black"/>
<path d="M110.095 6.13715C113.535 6.13715 115.934 8.85479 118.645 10.5689C119.773 11.2694 118.673 11.8976 117.905 12.2067C116.279 12.9273 113.692 9.55327 112.251 8.69824C109.605 5.80998 106.448 11.2272 105.362 13.3528C104.91 14.3724 103.23 14.6895 102.392 14.0533C101.452 13.138 103.461 11.1409 103.937 10.2377C105.386 8.2928 107.494 6.03478 110.095 6.13715Z" fill="black"/>
<path d="M207.036 83.1103C207.018 86.8535 205.866 89.9244 204.553 93.2402C203.831 94.4806 203.766 96.8149 202.054 97.0196C201.306 96.855 199.519 97.1541 199.567 96.0482C200.274 94.3321 201.105 92.6622 201.779 90.934C203.044 87.6102 203.939 83.9412 203.032 80.4127C202.921 79.9129 202.628 78.9073 203.467 78.9896C206.466 80.3203 206.996 79.3429 207.036 83.1103Z" fill="black"/>
<path d="M93.0156 110.124C91.149 108.621 88.7966 107.937 86.7112 106.803C84.2565 105.669 80.3968 101.082 80.9668 98.3365C85.8763 94.9766 82.5625 100.757 88.7766 103.78C90.878 104.862 93.2304 105.468 95.1833 106.831C95.7995 107.342 95.7031 107.662 95.3399 108.041C94.5631 108.731 93.9549 109.665 93.0156 110.124Z" fill="black"/>
<path d="M181.62 150.614C180.387 150.63 179.267 150.295 178.161 149.859C178.061 143.511 184.711 140.364 184.528 136.233C184.494 135.727 184.313 134.414 185.178 134.76C185.798 135.324 187.107 135.099 187.207 136.1C187.434 138.043 187.171 140.119 185.822 141.62C183.753 144.251 181.732 147.174 181.62 150.614Z" fill="black"/>
<path d="M202.387 133.164C208.067 130.942 204.404 134.073 209.207 139.318C210.261 140.412 211.507 141.034 213.041 141.016C213.617 140.994 214.963 141.317 214.385 142.104C213.518 142.973 213.004 145.034 211.477 144.56C206.704 142.993 202.387 138.356 202.387 133.164Z" fill="black"/>
<path d="M116.984 55.3256C116.01 59.8256 113.146 63.4986 110.42 67.0813C109.559 68.2294 108.076 66.6658 107.223 66.156C106.784 65.7887 106.725 65.3532 107.095 64.8875C108.458 63.1915 109.941 61.5858 111.272 59.8637C112.662 58.1075 113.19 55.9859 113.511 53.8102C113.634 53.3847 114.031 53.2322 114.427 53.4429C115.236 54.0772 116.753 54.2016 116.984 55.3256Z" fill="black"/>
<path d="M90.9021 113.006C95.3559 115.431 91.5423 114.506 91.3055 120.218C90.9201 124.07 94.1376 125.005 92.9594 125.685C89.8142 126.679 89.5974 126.647 88.4092 123.431C87.4518 120.238 88.4413 117.079 89.758 114.144C90.027 113.5 90.0932 113.472 90.9021 113.006Z" fill="black"/>
<path d="M217.091 39.5476C215.999 40.4789 214.446 40.0574 213.125 40.2802C212.368 40.3083 212.208 40.1397 211.995 39.389C211.331 36.8942 210.719 34.3471 210.652 31.758C210.672 31.1377 211.082 30.8106 211.678 31.0053C212.607 31.2843 213.567 31.2762 214.518 31.3987C215.074 31.4689 215.239 31.6295 215.295 32.1875C215.496 34.7425 216.367 37.1009 217.091 39.5476Z" fill="black"/>
<path d="M59.6853 117.249C59.7355 115.969 59.7315 114.688 59.4585 113.43C59.4605 112.812 58.3867 111.26 59.5187 111.274C60.6247 111.628 62.5415 111.174 62.9851 112.515C63.3182 113.932 63.3684 115.363 63.3323 116.804C63.0975 117.731 63.7718 120.344 62.4431 120.348C59.4104 120.429 59.4826 120.096 59.6853 117.249Z" fill="black"/>
<path d="M79.0558 60.4419C77.7974 61.5217 71.782 61.044 71.9406 58.8884C72.3159 58.216 72.2999 55.7472 73.3697 56.1266C78.5902 58.8402 80.5732 53.168 79.0558 60.4419Z" fill="black"/>
<path d="M82.7799 115.598C83.1773 117.589 81.2966 117.523 79.9318 118.147C77.8323 118.715 80.1706 114.779 78.009 111.541C77.8504 110.542 79.8415 110.447 80.5078 110.006C82.3082 110.205 82.81 114.05 82.7799 115.598Z" fill="black"/>
<path d="M72.2606 80.5934C70.3378 80.3706 68.71 79.4393 67.01 78.6024C66.2493 78.1829 66.1469 77.8176 66.5283 77.0408C67.0341 76.4226 67.2348 74.3994 68.2484 74.7005C72.1763 78.0665 75.9618 74.7366 72.2606 80.5934Z" fill="black"/>
<path d="M79.7896 140.478C75.8115 141.062 79.4123 138.214 78.0213 134.754C77.915 134.224 78.0555 134.041 78.5914 134.031C79.4986 134.204 81.022 133.515 81.5037 134.523C82.1721 136.261 82.1058 138.114 81.8008 139.916C81.6562 140.811 80.4239 140.325 79.7876 140.438C79.7896 140.452 79.7896 140.466 79.7896 140.478Z" fill="black"/>
<path d="M136.76 20.1909C135.881 19.9782 131.783 18.816 132.764 17.5495C133.733 16.9133 133.912 14.8499 135.233 15.0185C136.008 15.5424 139.496 16.2409 138.834 17.403C138.217 18.2079 137.902 20.1728 136.76 20.1909Z" fill="black"/>
<path d="M98.9336 195.297C103.339 192.621 108.028 195.923 112.682 195.634C113.437 195.528 114.627 195.74 114.675 194.695C118.389 196.88 111.924 197.059 110.501 196.664C106.585 196.68 102.837 195.172 98.9336 195.297Z" fill="#B2B2B2"/>
<path d="M90.5372 194.982C90.3606 195.277 90.184 195.572 89.9592 195.945C90.0515 196.146 90.1679 196.397 90.2823 196.65C87.2134 196.732 87.3961 194.552 90.5372 194.982Z" fill="#B2B2B2"/>
<path d="M169.27 107.509C169.322 107.551 169.374 107.593 169.424 107.635C169.372 107.593 169.322 107.551 169.27 107.509Z" fill="#4D50A8"/>
<path d="M168.898 105.767C173.581 107.003 177.401 102.579 175.996 98.1135C174.36 92.0159 172.094 86.1229 169.796 80.2802C176.116 76.3743 184.978 79.3509 187.723 86.2654C190.054 91.6405 188.928 97.7623 187.563 103.258C186.439 106.337 185.762 111.461 181.911 111.935C177.162 111.338 172.276 109.179 168.898 105.767Z" fill="#212492"/>
<path d="M182.451 114.983C182.333 111.64 184.075 111.613 185.833 113.992C186.61 114.795 183.599 115.788 183.071 115.822C183.481 115.018 184.42 114.949 185.125 114.55C185.269 114.437 185.301 114.098 185.044 114.05C184.013 113.817 183.284 114.411 182.451 114.983Z" fill="#4D50A8"/>
<path d="M208.669 63.0511C208.544 57.0157 210.605 50.3319 216.137 47.1245C229.88 38.52 245.794 55.0125 236.696 68.4543C232.176 74.861 225.597 80.5412 217.819 82.3476C212.314 83.4656 208.177 67.3303 208.669 63.0511Z" fill="#D52B1E"/>
<path d="M221.473 121.657C220.634 121.824 219.811 121.613 219.004 121.468C216.937 120.983 214.803 120.802 212.906 119.748C213.063 119.224 213.245 118.733 213.49 118.271C213.836 118.191 214.105 118.233 214.337 118.44C215.999 119.283 217.83 119.419 219.626 119.69C220.806 119.782 222.227 120.13 221.473 121.657Z" fill="#D52B1E"/>
<path d="M212.58 117.794C212.381 118.349 212.261 118.847 211.88 119.263C210.595 118.793 209.469 117.932 208.295 117.234C207.159 116.555 207.211 116.073 207.92 115.024C209.423 116.097 210.882 116.959 212.58 117.794Z" fill="#D52B1E"/>
<path d="M221.471 121.657C221.397 120.706 221.61 120.188 220.498 120.096C218.443 119.584 216.052 119.869 214.336 118.44C217.148 119.208 219.988 119.642 222.91 119.471C222.635 120.254 222.443 121.685 221.471 121.657Z" fill="#EF6261"/>
<path d="M212.852 84.3487C213.319 83.7244 213.897 83.2568 214.917 82.6687C215.204 82.8032 215.519 82.9497 215.798 83.0802C216.065 83.885 216.069 83.9131 215.945 84.8384C215.272 84.5935 214.556 84.0938 213.873 84.5634C213.739 84.6437 213.739 84.8926 213.889 84.9628C214.463 85.2458 215.138 85.2599 215.569 85.8259C214.465 85.8078 213.416 85.2398 212.852 84.3487Z" fill="#D52B1E"/>
<path d="M176.228 0.918459C183.614 0.914445 190.37 6.49425 191.548 13.8183C192.538 22.7941 188.345 31.7098 183.526 39.0498C182.356 40.6977 181.619 42.2813 179.365 40.9626C173.534 37.5907 167.989 33.3697 164.324 27.6293C156.197 16.6884 162.017 1.29781 176.228 0.918459Z" fill="#212492"/>
<path d="M182.888 44.3948C181.958 44.8183 180.967 45.2218 179.949 45.1495C180.331 44.6718 180.567 44.5554 181.848 44.1961C181.836 43.315 180.092 43.7646 179.578 44.0958C179.526 43.4314 180.048 42.9577 180.278 42.3797C181.758 42.0846 182.53 43.0641 182.888 44.3948Z" fill="#212492"/>
<path d="M126.306 125.453C126.184 134.017 118.968 142.212 112.74 147.517C111.923 148.147 110.912 147.204 109.97 147.334C109.768 147.326 109.525 147.214 109.38 147.07C105.292 143.288 101.731 138.834 99.7159 133.592C96.1914 125.77 98.901 115.439 107.054 111.798C116.279 107.318 127.2 115.363 126.306 125.453Z" fill="#212492"/>
<path d="M108.434 150.692C108.982 149.161 109.756 147.569 111.559 148.617C111.723 149.014 111.948 149.434 111.779 149.992C111.091 150.02 110.102 149.588 109.602 150.148C109.536 150.331 109.72 150.407 109.879 150.459C110.567 150.714 111.135 150.793 111.802 151.172C110.571 151.204 109.495 151.353 108.434 150.692Z" fill="#212492"/>
<path d="M99.2135 53.2442C98.4287 52.8729 97.9229 52.7424 97.0277 52.6561C93.8886 49.1517 91.0987 44.9568 90.2818 40.238C87.9856 31.214 92.315 20.0443 103.005 20.8071C106.855 21.1483 109.849 23.0149 111.975 26.2383C118.068 36.0893 108.344 49.1437 99.2135 53.2442Z" fill="#D52B1E"/>
<path d="M96.8209 55.6789C96.4556 55.5786 96.0341 55.2253 96.2729 54.862C96.6001 54.4144 96.7848 53.6417 97.413 53.5754C98.3182 53.7099 98.9023 53.9146 98.6554 55.0587C98.1396 55.0587 97.6137 55.0587 97.0437 55.0587C97.0055 55.3196 97.1782 55.7411 96.8209 55.6789Z" fill="#D52B1E"/>
<path d="M96.8203 55.6791C96.8946 55.6148 96.9688 55.5486 97.0431 55.4844C97.4184 55.6871 97.868 55.7594 98.2654 56.1608C97.6533 56.1588 97.2117 55.9962 96.8203 55.6791Z" fill="#D52B1E"/>
<path d="M194.462 184.952C187.336 180.161 179.76 184.133 173.234 178.206C173.277 177.67 173.543 177.273 173.786 176.813C177.791 179.22 181.584 180.319 186.283 180.333C189.089 180.107 191.423 181.698 193.88 182.798C195.058 183.33 195.152 183.81 194.462 184.952Z" fill="#D52B1E"/>
<path d="M194.461 184.952C194.533 184.486 194.604 184.019 194.68 183.531C192.968 182.371 190.8 181.959 189.227 180.633C191.597 180.936 193.777 182.054 195.852 183.29C195.804 183.988 195.603 184.633 195.272 185.229C194.917 185.281 194.682 185.135 194.461 184.952Z" fill="#EF6261"/>
<path d="M112.656 194.624C108.423 195.052 104.292 192.027 100.119 193.749C97.3172 194.831 94.3386 196.786 91.2617 195.859C91.4504 195.174 91.8398 194.385 92.4921 194.14C93.9493 194.207 95.3663 194.014 96.7351 193.514C99.1557 192.697 101.522 191.521 104.145 191.836C106.44 192.511 108.822 192.802 111.196 193.014C112.441 192.976 112.722 193.322 112.656 194.624Z" fill="#0D8157"/>
<path d="M112.659 194.624C112.49 194.177 112.319 193.729 112.139 193.253C110.055 193.02 105.728 193.065 104.148 191.834C107.316 191.832 110.306 193.177 113.516 192.832C113.809 193.307 113.706 193.93 113.714 194.423C113.351 194.747 113.01 194.72 112.659 194.624Z" fill="#27B380"/>
<path d="M185.893 165.4C181.999 160.906 174.96 162.669 171.508 155.537C171.969 155.182 172.459 154.909 173.031 154.702C174.942 157.892 177.923 160.427 181.608 161.212C183.691 161.418 185.048 162.916 185.923 164.678C186.059 164.897 186.053 165.166 185.893 165.4Z" fill="#FFCE24"/>
<path d="M185.893 165.401C185.672 163.949 184.351 162.833 183.414 161.766C186.065 162.013 187.593 164.642 188.617 166.86C188.169 167.263 187.631 167.422 187.065 167.618C186.668 166.864 186.28 166.133 185.893 165.401Z" fill="#FFEBA7"/>
<path d="M93.1663 161.071C88.2047 156.993 85.9668 149.343 89.9168 143.856C90.4888 143.96 90.9083 144.368 91.4362 144.659C90.1476 148.689 88.6443 153.603 91.8376 157.167L91.8316 157.155C92.2109 158.43 94.6616 159.839 93.1663 161.071Z" fill="#D52B1E"/>
<path d="M93.1668 161.071C93.2912 160.714 93.4157 160.357 93.522 160.056C92.946 159.036 91.8641 158.319 91.832 157.153C92.94 158.191 94.1362 159.07 95.2341 160.126C94.6039 160.943 94.1182 162.514 93.1668 161.071Z" fill="#EF6261"/>
<path d="M91.8369 157.167C91.7526 157.095 91.6683 157.023 91.582 156.95C91.6663 157.023 91.7526 157.095 91.8369 157.167Z" fill="#EF6261"/>
<path d="M124.591 25.5881C125.492 27.3684 126.728 28.8296 128.111 30.2828C126.16 31.4309 125.125 28.647 124.165 27.4106C121.859 23.3381 121.405 18.3404 122.323 13.8043C123.204 13.7501 123.127 14.4405 123.063 14.9182C122.772 17.9671 122.846 21.1925 124.031 24.0466L124.011 24.0286C124.177 24.5564 124.113 24.713 124.591 25.5881Z" fill="#F2BFBB"/>
<path d="M124.028 24.0446C122.74 22.0255 122.73 19.077 122.637 16.6925C122.395 15.7873 123.436 14.298 122.32 13.8023C122.358 13.4269 122.409 13.0556 122.647 12.6582C122.999 12.893 123.306 13.0998 123.633 13.3206C123.099 16.9133 123.081 20.5141 124.028 24.0446Z" fill="#FBEAE8"/>
<path d="M150.31 14.822C147.292 10.7315 142.76 7.68263 137.657 7.0825C137.577 6.84767 137.748 6.79146 137.864 6.69713C138.424 6.31778 138.876 5.55106 139.638 5.7297C141.947 6.21943 145.068 7.70069 146.304 8.54569C148.691 10.1775 149.538 11.8354 150.878 13.7622C151.334 14.4185 151.143 14.7196 150.31 14.822Z" fill="#0D8157"/>
<path d="M150.311 14.8218C150.933 14.6371 151.122 14.3421 150.658 13.8102C149.292 11.9355 147.848 10.101 146.148 8.53345C148.39 9.30017 150.807 12.6019 152.11 14.6391C151.704 15.0345 151.313 15.3838 150.823 15.6347C150.506 15.4259 150.402 15.1289 150.311 14.8218Z" fill="#27B380"/>
<path d="M197.085 56.6183C197.064 58.5552 196.9 60.4941 197.821 62.3005C194.02 62.1238 195.403 53.8204 196.117 51.3596C198.536 52.1063 196.697 54.8199 197.085 56.6183Z" fill="#FFCE24"/>
<path d="M197.077 56.8109C196.88 55.432 196.998 53.7521 197.245 52.3631C196.832 51.9978 196.474 51.6807 196.117 51.3636C196.153 51.2452 196.189 51.1267 196.23 50.9983C196.91 51.1067 197.474 51.48 198.1 51.8674C197.58 53.4169 197.193 55.1831 197.077 56.8109Z" fill="#FFEBA7"/>
<path d="M202.68 62.6075C201.927 63.8479 200.601 63.2658 199.398 63.1033C200.057 62.473 200.677 62.172 201.325 61.606C201.847 61.8448 202.263 62.2262 202.68 62.6075Z" fill="#FFCE24"/>
<path d="M202.683 62.6075C202.117 62.4289 201.555 62.2442 201.328 61.606C201.924 61.3229 202.516 61.7725 203.12 61.8849C203.131 62.2522 202.878 62.4128 202.683 62.6075Z" fill="#FFEBA7"/>
<path d="M198.686 83.2046C194.87 79.7222 188.341 79.7804 185.906 74.7124C186.394 74.319 187.217 74.5659 187.917 74.4114C189.401 76.7718 191.883 78.1788 194.569 78.7889C195.902 78.9575 203.234 82.7951 198.686 83.2046Z" fill="#0D8157"/>
<path d="M198.689 83.2048C199.138 82.978 199.588 82.7532 200.088 82.5003C199.216 80.8404 197.137 80.6076 196.035 79.2407C198.109 79.887 199.937 81.1053 201.161 82.9399C200.607 83.4738 199.923 83.6584 199.327 83.9555C198.972 83.7768 198.803 83.5119 198.689 83.2048Z" fill="#27B380"/>
<path d="M82.5973 28.9461C81.9992 31.4229 78.1957 36.1998 75.3516 35.2445C79.5404 32.3763 82.6836 27.7579 81.2806 22.4832C83.1031 21.2508 82.792 28.0329 82.5973 28.9461Z" fill="#D52B1E"/>
<path d="M82.5948 28.9459C82.5245 26.983 82.3419 25.0381 82.1713 23.0771C82.2235 22.5472 81.7056 22.495 81.2781 22.483C81.1517 22.1599 81.0272 21.8387 80.8867 21.4774C81.3724 21.2285 81.806 21.4172 82.3178 21.363C83.4799 23.6813 83.5843 26.5354 82.5948 28.9459Z" fill="#EF6261"/>
<path d="M198.541 114.124C197.842 115.748 196.696 117.015 195.343 118.119C194.643 118.634 193.818 117.615 193.192 117.414C193.099 117.091 193.298 116.997 193.422 116.866C196.935 113.942 197.832 109.291 196.784 104.99C197.69 104.693 198.28 104.926 198.4 105.835C198.763 108.587 199.153 111.351 198.541 114.124Z" fill="#0479CE"/>
<path d="M198.543 114.124C198.475 111.182 198.683 108.109 197.973 105.253C197.598 105.104 197.212 104.964 196.787 104.988C196.566 104.466 196.341 103.946 196.379 103.296C197.307 103.346 198.19 103.394 199.115 103.446C199.438 106.937 200.197 110.883 198.543 114.124Z" fill="#78A2D3"/>
<path d="M108.438 7.79901C106.688 9.29633 105.387 11.165 104.337 13.2062C103.984 13.2965 103.643 13.5013 103.195 13.3347C104.321 11.0345 105.951 8.6982 108.285 7.52002C108.392 7.58425 108.444 7.67457 108.438 7.79901Z" fill="#FFCE24"/>
<path d="M114.215 8.61989C113.725 8.21445 113.188 7.89331 112.461 7.6665C113.107 8.19036 114.213 9.04139 114.213 9.01931C114.623 9.69972 116.483 10.8378 116.788 11.2573C117.128 11.5403 117.469 11.5684 117.81 11.1669C116.66 10.2477 115.425 9.45686 114.215 8.61989Z" fill="#FFCE24"/>
<path d="M205.57 87.1927C205.004 90.0669 203.733 92.7224 202.631 95.4159C202.438 96.3472 201.561 96.0181 200.893 95.8876C200.756 95.5364 200.961 95.2975 201.076 95.0526C202.976 90.934 204.717 86.4581 204.253 81.8438C205.939 81.8799 205.678 86.0126 205.57 87.1927Z" fill="#D52B1E"/>
<path d="M205.567 87.1928C205.349 85.4606 205.726 83.0561 204.251 81.8438C204.08 81.336 203.99 80.8141 203.93 80.2C204.584 80.4207 205.148 80.6094 205.704 80.7981C206.607 82.7771 205.901 85.1355 205.567 87.1928Z" fill="#EF6261"/>
<path d="M88.7837 104.954C90.6664 105.692 92.6835 106.275 94.3414 107.467C94.1247 108.065 94.0002 108.207 93.1271 108.868C88.6191 106.513 83.3143 105.06 81.9414 99.4262C83.3083 98.0834 84.1412 103.29 88.3702 104.761L88.3542 104.755C88.4626 104.896 88.6532 104.859 88.7837 104.954Z" fill="#0D8157"/>
<path d="M88.371 104.761C86.7834 104.711 85.557 103.214 84.5314 102.128C83.9313 101.379 83.3371 100.628 82.9437 99.7393C82.739 99.2776 82.3276 99.37 81.9422 99.4262C81.8619 99.2596 81.7836 99.091 81.6953 98.9043C82.1228 98.4748 82.6888 98.4808 83.1866 98.1958C84.0477 101.044 85.8922 103.202 88.371 104.761Z" fill="#27B380"/>
<path d="M185.233 140.785C183.26 143.433 181.199 146.226 180.691 149.57C180.147 149.416 179.045 149.691 179.208 148.832C179.752 144.856 182.873 141.991 185.032 138.808C185.548 139.42 185.265 140.115 185.233 140.785Z" fill="#D52B1E"/>
<path d="M185.232 140.785C184.6 139.226 185.591 137.674 185.463 136.076C185.808 135.956 186.041 136.119 186.318 136.301C186.517 137.915 186.374 139.466 185.232 140.785Z" fill="#EF6261"/>
<path d="M207.022 138.096C208.427 140.269 210.466 142.038 213.186 142.02C212.987 142.676 212.545 143.085 212.168 143.679C207.794 142.72 204.144 138.626 203.383 134.244C205.538 133.124 205.322 136.117 206.478 137.104L206.462 137.098C206.534 137.233 206.488 137.435 206.689 137.494L206.654 137.469C206.66 137.586 206.757 137.64 206.819 137.718C206.931 137.819 206.897 138.001 207.022 138.096Z" fill="#F2BFBB"/>
<path d="M206.475 137.102C205.718 137.108 205.24 134.99 204.738 134.324C204.333 134.17 203.847 134.294 203.38 134.24C203.058 133.425 204.449 133.561 204.961 133.294C205.553 134.549 205.893 135.852 206.475 137.102Z" fill="#FBEAE8"/>
<path d="M207.021 138.096C206.953 137.969 206.885 137.845 206.816 137.718C206.885 137.843 206.953 137.969 207.021 138.096Z" fill="#EED3CA"/>
<path d="M206.685 137.493C206.457 137.449 206.44 137.283 206.459 137.098C206.535 137.228 206.609 137.361 206.685 137.493Z" fill="#EED3CA"/>
<path d="M206.813 137.71C206.759 137.63 206.707 137.55 206.652 137.467C206.705 137.55 206.759 137.63 206.813 137.71Z" fill="#EED3CA"/>
<path d="M113.027 61.899C111.995 63.5007 110.789 64.9198 109.62 66.4492C108.918 66.3529 108.412 65.9314 107.828 65.4958C110.379 62.3567 113.5 59.5286 114.183 55.3478C116.894 55.2354 113.482 60.3114 113.205 61.6261L113.213 61.612C113.121 61.6903 113.043 61.7746 113.027 61.899Z" fill="#0479CE"/>
<path d="M113.207 61.6279C113.46 59.6991 114.694 57.9348 115.146 56.0341C114.899 55.6266 114.52 55.5203 114.182 55.3517C114.16 55.0687 114.108 54.7816 114.377 54.4946C114.943 54.7515 115.515 55.0105 116.043 55.3657C115.63 57.6559 114.415 59.6991 113.207 61.6279Z" fill="#78A2D3"/>
<path d="M90.6922 117.607C90.2547 120.116 90.1041 122.886 91.77 125.005C89.7348 126.488 89.1226 122.637 88.9982 121.228C88.7694 118.887 89.6304 116.591 90.5979 114.498C91.8925 115.074 90.7303 116.617 90.6922 117.607Z" fill="#F2BFBB"/>
<path d="M90.692 117.607C90.5635 116.762 90.8566 115.967 90.987 115.13C90.8626 114.929 90.7301 114.713 90.5977 114.496C90.6518 114.355 90.706 114.215 90.7582 114.078C91.4226 114.287 91.4226 114.287 91.9685 114.811C91.543 115.74 91.1175 116.674 90.692 117.607Z" fill="#FBEAE8"/>
<path d="M215.305 39.0679C214.608 39.3991 213.874 39.2726 213.099 39.2746C212.24 37.2394 211.776 34.8971 211.668 32.7013C214.885 32.1473 214.37 35.9288 215.291 37.8897C215.431 38.2811 215.618 38.6705 215.305 39.0679Z" fill="#0D8157"/>
<path d="M215.302 39.0681C215.031 37.3781 214.13 35.8045 214.122 34.0543C213.945 33.0005 212.446 33.125 211.665 32.7015C211.607 32.4927 211.547 32.282 211.484 32.0612C212.476 31.8504 213.363 32.28 214.373 32.4024C214.601 34.6484 215.344 36.786 215.868 38.9356C215.679 39.1584 215.485 39.0741 215.302 39.0681Z" fill="#27B380"/>
<path d="M62.1869 119.357C61.7152 119.357 61.2435 119.357 60.7939 119.357C60.537 119.148 60.6012 118.877 60.6012 118.632C60.6012 116.95 60.6715 115.268 60.4688 113.594C63.2647 112.798 61.9641 117.813 62.1869 119.357Z" fill="#212492"/>
<path d="M62.1895 119.357C61.8865 117.571 62.1895 115.696 61.7259 113.954C61.3465 113.711 60.917 113.625 60.4714 113.592C60.3289 113.209 60.1643 112.828 60.2828 112.408C60.921 112.334 61.3325 112.398 62.047 112.673C62.6993 114.775 62.5669 117.215 62.1895 119.357Z" fill="#4D50A8"/>
<path d="M78.0916 60.0565C76.2811 60.0284 74.284 60.3536 72.8008 59.053C72.873 58.4408 73.1259 57.8627 73.3547 57.2566C74.8199 57.7122 76.9475 57.8065 78.4609 57.7162" fill="#FFCE24"/>
<path d="M81.6548 116.515C81.145 116.84 80.591 117.041 79.9307 117.183C80.027 115.317 79.9387 113.53 79.168 111.85C80.1976 111.489 80.5509 111.624 80.8038 112.591C81.143 113.888 81.5685 115.166 81.6548 116.515Z" fill="#FFCE24"/>
<path d="M81.6545 116.515C81.1467 115.026 80.7754 113.494 80.4161 111.965C79.9866 111.774 79.5691 111.895 79.1677 111.852C78.8265 111.25 80.1873 111.186 80.5366 110.929C81.6565 111.856 82.3048 115.321 81.6545 116.515Z" fill="#FFEBA7"/>
<path d="M70.6177 77.0508C71.27 77.3157 72.0427 77.3258 72.5907 77.7834C72.4221 78.4377 72.0668 78.9897 71.7015 79.5677C70.2644 79.1101 68.8253 78.5943 67.5508 77.7954C67.7635 75.6197 69.297 76.9263 70.6177 77.0508Z" fill="#0D8157"/>
<path d="M70.6148 77.0508C69.9445 77.4503 69.0694 76.5852 68.2926 76.6414C68.0277 77.0529 67.7888 77.4242 67.55 77.7955C67.4616 77.7674 67.3753 77.7393 67.2971 77.7132C67.285 77.0689 67.8631 76.5069 68.1079 75.8506C69.0031 76.1798 69.7217 76.7237 70.6148 77.0508Z" fill="#27B380"/>
<path d="M80.8327 139.408C80.2285 139.671 79.6063 139.611 78.9219 139.549C79.1487 138.176 79.2169 136.911 79.1386 135.544C81.3324 134.274 80.7464 138.214 80.8327 139.408Z" fill="#0479CE"/>
<path d="M80.8362 139.408C80.513 138.152 80.6576 136.753 80.216 135.541C79.8085 135.286 79.4814 135.567 79.1402 135.545C79.1 135.392 79.0579 135.242 79.0117 135.067C79.5175 134.702 80.0554 134.87 80.5713 134.868C81.3279 136.179 81.2697 138.039 80.8362 139.408Z" fill="#78A2D3"/>
<path d="M136.909 18.8362C136.72 19.2337 136.616 19.3119 136.285 19.1775C135.42 18.778 134.523 18.5352 133.758 17.9371C134.105 17.4333 134.705 15.9119 135.357 16.1547C136.708 16.9917 137.83 16.9817 136.909 18.8362Z" fill="#212492"/>
<path d="M136.909 18.8361C137.437 16.5881 136.528 17.4973 135.355 16.1545C136.251 16.3272 136.991 16.841 137.852 17.2143C137.569 17.8305 137.32 18.3784 136.909 18.8361Z" fill="#4D50A8"/>
<path d="M184.673 88.3891C184.994 89.8864 182.911 90.6371 182.277 89.202C182.062 88.5677 181.807 87.9475 181.582 87.3193C181.303 85.7216 179.017 85.1355 179.088 83.5258C179.2 82.6688 180.262 82.7029 180.9 82.9418C183.064 83.8229 184.304 86.1953 184.673 88.3891Z" fill="#AFC0D4"/>
<path d="M183.324 92.8951C183.999 89.8502 186.373 94.3141 183.961 94.1535C183.379 93.9849 183.284 93.5434 183.324 92.8951Z" fill="#AFC0D4"/>
<path d="M234.945 58.9405C235.023 59.9039 234.758 60.9416 234.748 61.9432C234.848 62.8403 234.559 63.9683 233.504 63.9262C230.902 63.7636 233.104 58.4247 232.337 56.6022C232.269 55.5986 231.737 54.7195 231.655 53.728C231.537 53.0355 232.454 52.5639 232.988 52.9292C234.832 54.2579 234.925 56.835 234.945 58.9405Z" fill="#FCA6A6"/>
<path d="M233.013 66.6158C233.065 68.1633 231.064 69.5101 230.536 67.6234C230.476 66.1903 232.532 64.5565 233.013 66.6158Z" fill="#FCA6A6"/>
<path d="M177.301 5.18164C178.945 5.16759 180.433 5.7055 181.84 6.50233C183.074 7.29113 184.377 8.27261 184.963 9.65151C185.434 11.2893 183.606 11.761 182.701 10.5567C180.995 8.38903 178.273 7.5641 175.71 6.90977C175.092 6.76727 175.106 5.88012 175.483 5.58507C175.987 5.11942 176.661 5.16558 177.301 5.18164Z" fill="#AFC0D4"/>
<path d="M121.371 124.232C120.309 124.188 119.99 123.197 119.747 122.338C119.324 120.969 118.561 119.805 117.642 118.721C117.17 117.922 115.733 116.8 116.528 115.853C116.819 115.636 117.126 115.495 117.503 115.688C119.39 116.419 125.054 123.271 121.371 124.232Z" fill="#AFC0D4"/>
<path d="M122.055 128.698C122.296 129.7 121.019 131.205 120.293 129.908C119.996 129.047 120.329 128.118 120.782 127.375C121.561 126.595 122.258 127.968 122.079 128.698C122.071 128.698 122.063 128.698 122.055 128.698Z" fill="#AFC0D4"/>
<path d="M110.084 34.2167C109.883 34.61 109.211 34.4254 108.972 34.0661C108.864 33.9096 108.828 33.7109 108.814 33.5242C108.717 32.2637 108.81 30.9792 108.416 29.7588C108.302 29.0483 107.832 28.386 107.678 27.6815C107.609 27.3503 107.662 26.8666 108.055 26.8264C109.887 26.9087 111.08 32.2497 110.084 34.2167Z" fill="#FCA6A6"/>
<path d="M109.54 37.2375C109.536 37.8537 108.984 39.1724 108.097 38.8111C107.357 38.2993 108.234 37.2937 108.42 36.6635C108.83 36.1015 109.639 36.3524 109.54 37.2375Z" fill="#FCA6A6"/>
<path d="M127.646 191.27C127.012 191.166 126.416 190.789 125.844 190.574C126.151 189.733 128.684 189.673 129.509 189.855C130.506 190.04 131.492 190.317 132.461 190.616C133.623 191.013 133.581 189.992 133.607 189.157C134.627 189.351 135.994 190.305 134.432 190.983C132.228 191.696 129.77 190.483 127.646 191.27Z" fill="#B2B2B2"/>
<path d="M119.492 197.21C119.51 196.441 119.273 195.644 119.548 194.901C119.624 194.857 119.694 194.801 119.753 194.735C122.151 195.542 125.08 196.218 127.293 194.685C127.261 194.488 127.067 194.516 126.942 194.452C125.943 194.121 124.945 193.779 124.018 193.255C122.601 192.581 122.5 191.094 122.362 189.717C122.001 187.68 124.186 186.811 125.846 186.606C128.12 186.261 130.384 186.678 132.61 187.12C133.64 187.236 133.407 188.408 133.608 189.155C134.334 189.982 133.331 191.184 132.377 190.821C130.384 190.335 128.452 189.5 126.4 190.417C126.846 190.795 127.396 190.829 127.649 191.27C130.467 192.069 130.298 194.48 130.099 196.908L130.172 196.92L130.103 196.896C129.349 198.131 128.223 198.857 126.86 199.152C125.23 199.714 118.647 200.066 119.492 197.21Z" fill="black"/>
<path d="M132.551 189.632C129.896 188.852 127.023 188.318 124.603 190.078C121.343 188.613 125.602 187.326 127.216 187.421C128.988 187.368 130.712 187.69 132.433 188.079C132.537 188.573 132.677 189.026 132.551 189.632Z" fill="#F2BFBB"/>
<path d="M128.241 193.958C126.652 193.177 123.217 193 123.47 190.646C125.182 191.401 127.426 191.834 128.809 193.117C128.731 193.486 128.57 193.779 128.241 193.958Z" fill="#F2BFBB"/>
<path d="M119.491 197.209C119.587 198.448 119.671 198.57 120.898 198.889C123.882 199.656 127.294 199.435 129.721 197.374C130.98 200.878 115.288 200.927 119.491 197.209Z" fill="#B2B2B2"/>
<path d="M128.438 197.075C126.204 198.723 122.931 198.755 120.436 197.753C120.363 197.161 120.329 196.577 120.349 195.951C125.333 197.51 128.938 194.921 128.438 197.075Z" fill="#F2BFBB"/>
<path d="M128.438 197.075C128.382 195.383 126.66 197.274 125.789 196.429C126.929 195.941 128.153 195.64 128.996 194.662C129.251 194.719 129.207 194.901 129.213 195.048C129.223 195.814 129.392 196.822 128.438 197.075Z" fill="#EED3CA"/>
</svg>
