<svg width="300" height="200" viewBox="0 0 300 200" fill="none" xmlns="http://www.w3.org/2000/svg">
<path d="M232.705 98.1577C235.667 98.5758 237.146 100.868 237.468 102.979C237.681 104.382 237.567 105.753 237.178 107.136C233.153 121.873 229.247 136.646 225.259 151.395C221.19 166.513 217.129 181.631 213.042 196.739C212.574 198.669 211.15 200.356 208.998 199.935C191.13 197.146 173.261 194.351 155.392 191.571C131.057 187.799 106.736 183.949 82.3975 180.207C67.7564 179.973 69.4725 166.481 68.2943 155.728C67.4143 145.013 66.5402 134.298 65.6485 123.584C64.5697 110.302 63.3302 97.0351 62.3186 83.7505C61.1434 78.0613 63.1518 74.4916 69.4725 75.395C80.161 76.8889 90.8056 78.988 101.509 80.2218C104.263 56.085 98.6845 31.235 105.318 7.46951C105.862 4.43488 110.066 6.9462 112.092 6.87603C121.596 8.50444 202.85 22.1223 212.381 23.5928C215.892 24.122 219.409 24.6131 222.923 25.1248C223.827 25.1628 224.797 25.5925 224.572 26.6742C220.804 49.6474 219.485 72.9363 220.403 96.1902C224.476 97.0555 228.595 97.4999 232.705 98.1577Z" fill="black"/>
<path d="M134.158 87.0309C138.137 84.0138 142.285 76.0442 147.095 75.4712C161.952 78.4093 176.9 80.8008 191.869 83.0636C195.117 83.5548 196.982 85.8264 197.064 89.1241C198.876 125.364 203.849 161.789 205.709 197.827C163.206 191.404 120.759 184.575 78.2745 178.023C69.1531 175.731 70.9832 163.829 69.8869 156.591C68.8783 144.899 67.9807 133.202 66.94 121.514C66.2968 112.983 65.4753 104.47 64.8233 95.9418C64.4082 90.9572 63.9813 85.9725 63.5633 80.9879C63.3382 79.0935 63.8059 77.7252 65.8495 77.1142C87.9807 80.3827 110.05 84.0986 132.188 87.3261C132.854 87.3992 133.585 87.6828 134.158 87.0309Z" fill="#D52B1E"/>
<path d="M201.212 113.226C202.788 132.562 204.293 151.904 206.015 171.226C206.948 171.694 207.149 168.589 207.632 167.601C209.053 162.563 210.389 157.5 211.47 152.378C214.546 138.085 217.396 123.692 218.499 109.095C219.335 95.8512 218.247 82.5432 218.814 69.2733C219.042 54.9392 221.06 40.7483 223.092 26.5838C209.661 24.9934 196.365 22.295 182.981 20.5759C175.929 19.2632 113.851 8.56601 106.755 7.56616C100.405 31.4135 105.457 56.2519 103.168 80.4763C113.321 82.3357 123.662 83.8384 133.9 85.2826C138.666 80.9645 142.288 72.612 149.842 73.9363C156.064 74.9888 162.297 75.9594 168.524 76.968C173.043 77.6989 177.56 78.4327 182.08 79.1695C185.91 79.7922 189.734 80.45 193.567 81.0376C195.371 81.3153 196.654 82.2743 197.616 83.7565C199.341 86.2737 199.303 89.3375 199.499 92.2611C200.004 99.2542 200.618 106.239 201.212 113.226Z" fill="white"/>
<path d="M217.481 174.29C216.01 180.178 214.347 186.016 212.786 191.88C212.122 193.673 211.534 200.707 208.555 197.692C206.924 191.188 207.292 184.203 206.5 177.529C217.922 153.021 223.939 125.934 227.126 99.0552C230.859 100.555 236.083 99.8504 235.195 105.63C229.114 128.451 221.796 151.059 217.481 174.29Z" fill="#D52B1E"/>
<path d="M205.708 197.827C203.191 171.866 201.407 145.961 198.817 119.985C198.346 112.463 197.621 104.987 197.042 97.4766C196.817 94.8922 196.893 92.2552 196.575 89.6795C197.004 87.6798 195.978 85.7299 194.499 84.3558C192.654 83.011 190.076 83.4963 187.933 82.894C183.521 82.283 179.139 81.4878 174.736 80.8241C168.696 79.8184 162.653 78.8332 156.63 77.7281C153.803 77.1873 150.985 76.6172 148.161 76.0588C147.743 75.9769 147.339 75.8717 147.094 75.4741C147.667 75.1963 148.272 75.2022 148.874 75.2987C152.423 75.8658 155.973 76.4418 159.522 77.0148C164.501 77.8188 169.479 78.6227 174.455 79.4325C180.679 80.447 186.895 81.4936 193.125 82.4672C196.057 82.856 197.402 85.7854 197.656 88.4312C200.82 124.952 203.387 161.523 206.81 198.017C206.412 197.947 206.062 197.889 205.708 197.827Z" fill="white"/>
<path d="M217.478 174.29C216.768 172.492 218.671 168.337 218.87 166.174C221.548 153.044 224.945 140.099 228.752 127.256C230.421 121.344 232.07 115.43 233.836 109.545C234.543 106.955 235.704 104.022 233.912 101.646C232.333 99.7073 228.772 101.181 227.12 99.0553C227.258 98.7805 227.512 98.8448 227.728 98.877C232.748 99.4471 237.353 99.8768 235.838 106.402C229.667 129.019 223.744 151.705 217.478 174.29Z" fill="white"/>
<path d="M134.158 87.0309C134.129 87.256 134.103 87.4782 134.062 87.7852C129.477 87.8057 124.966 86.5661 120.432 85.9346C113.152 84.8061 105.849 83.7536 98.5991 82.5287C87.7089 80.6693 76.5644 79.7689 65.8438 77.1114C69.466 76.0472 73.4333 77.8832 77.1491 78.079C80.6105 78.6111 84.072 79.1491 87.5306 79.687C103.06 82.2217 118.666 84.3179 134.158 87.0309Z" fill="white"/>
<path d="M162.819 0C162.857 0.0263119 162.893 0.0526249 162.931 0.0789368C162.884 0.0613956 162.84 0.0438549 162.793 0.0292372C162.79 0.0292372 162.819 0 162.819 0Z" fill="black"/>
</svg>
