<svg width="300" height="200" viewBox="0 0 300 200" fill="none" xmlns="http://www.w3.org/2000/svg">
<path d="M24.7963 165.141C24.6014 164.408 24.1695 163.779 23.7698 163.169C23.0048 162.002 22.5409 160.706 21.9906 159.453C21.1861 157.617 20.6038 155.692 20.1793 153.735C19.7574 151.786 19.3107 149.844 19.0516 147.857C18.8739 146.505 18.8887 145.118 18.447 143.798C18.3631 143.546 18.3977 143.253 18.3977 142.976C18.3952 140.849 18.3952 138.724 18.3952 136.597C18.3952 136.205 18.447 135.823 18.5161 135.433C18.8122 133.7 19.0565 131.958 19.3181 130.218C20.2854 129.789 21.2478 129.342 22.225 128.93C27.8562 126.556 33.4899 124.19 39.1236 121.823C41.8874 120.664 44.6487 119.501 47.4149 118.349C48.0318 118.092 48.0392 118.11 48.212 118.736C48.2416 118.85 48.2613 118.966 48.3033 119.074C48.3551 119.213 48.5871 119.23 48.708 119.134C48.9399 118.944 49.0214 118.682 49.0732 118.411C49.1694 117.907 49.2287 117.396 49.3323 116.896C50.1145 113.132 51.3706 109.525 52.9326 106.023C53.9271 103.79 54.9931 101.589 55.9827 99.3529C56.6687 97.8008 57.2708 96.2091 57.5422 94.5237C57.9321 92.1103 58.2874 89.6896 58.6403 87.2712C59.1413 83.8363 59.6101 80.3963 60.1259 76.9638C60.3134 75.7201 60.5281 74.4813 60.9106 73.2672C61.377 71.7842 62.327 70.8317 63.7509 70.3307C66.1864 69.472 68.3358 70.0766 70.2211 71.7324C71.3093 72.6873 71.8399 73.9261 71.8991 75.3894C72.0225 78.4716 71.7806 81.5389 71.5561 84.6086C71.4524 86.0251 71.3019 87.4366 71.2106 88.853C71.0058 92.0018 70.8528 95.1554 70.6208 98.3042C70.5147 99.7354 70.5394 101.144 70.875 102.536C71.3735 104.607 71.8917 106.672 72.4074 108.737C72.4444 108.888 72.5135 109.036 72.6048 109.162C72.664 109.246 72.7825 109.32 72.8812 109.332C73.012 109.349 73.0786 109.224 73.0934 109.105C73.1132 108.95 73.1107 108.789 73.1132 108.631C73.1453 107.087 73.0194 105.562 72.5629 104.071C72.2396 103.015 71.9978 101.939 71.8793 100.834C71.8251 100.328 71.978 100.046 72.4518 99.8193C75.3513 98.4349 78.3619 97.4232 81.5402 96.8951C83.5958 96.5521 85.639 96.5793 87.6576 97.0012C92.1734 97.9464 96.4054 99.6392 100.336 102.065C100.603 102.228 100.869 102.413 101.077 102.645C101.763 103.41 102.38 104.229 102.804 105.177C103.855 107.531 103.989 109.897 102.895 112.279C102.666 112.782 102.394 113.261 101.982 113.648C100.287 115.25 98.5153 116.755 96.5856 118.065C95.1988 119.01 93.7034 119.689 92.0081 119.859C90.0043 120.062 87.9957 120.18 85.982 120.121C84.3633 120.074 82.7568 119.916 81.1553 119.677C80.0054 119.504 79.1984 118.865 78.6555 117.888C78.1645 117.002 77.9991 116.042 78.1571 115.028C78.4137 113.374 79.3958 112.239 80.7703 111.415C81.444 111.013 82.172 110.692 82.8925 110.378C84.1634 109.826 85.4934 109.451 86.8531 109.201C87.8599 109.016 88.7113 108.577 89.4368 107.864C89.9155 107.395 90.409 106.941 90.8976 106.482C91.7465 105.685 92.3609 104.73 92.7903 103.654C92.8199 103.58 92.8569 103.508 92.8742 103.432C92.8792 103.407 92.8421 103.355 92.8125 103.343C92.7459 103.311 92.6546 103.259 92.6028 103.281C92.4621 103.346 92.3067 103.417 92.2104 103.533C91.3221 104.574 90.1425 105.226 89.0271 105.966C88.81 106.109 88.6175 106.344 88.2671 106.24C87.623 105.263 87.1492 104.18 86.8605 103.03C86.6384 102.144 86.325 101.3 85.95 100.476C85.8809 100.325 85.8957 100.034 85.5995 100.145C85.4441 100.202 85.3997 100.377 85.3824 100.537C85.3133 101.132 85.3651 101.722 85.4836 102.304C85.5946 102.845 85.7649 103.375 85.8537 103.918C86.0585 105.162 86.2337 106.408 86.4139 107.657C86.4386 107.822 86.3596 107.965 86.1893 108.022C86.0018 108.084 85.8118 108.14 85.6193 108.177C84.4891 108.394 83.4083 108.767 82.3521 109.206C80.9653 109.781 79.6673 110.497 78.5297 111.523C76.7086 113.164 76.2397 116.755 77.7721 118.934C78.0633 119.348 78.6506 119.63 78.6383 120.148C78.6284 120.634 78.3273 121.11 78.1669 121.596C78.0806 121.858 77.9967 122.122 77.9424 122.393C77.3575 125.315 77.9004 127.882 80.2941 129.866C80.3558 129.915 80.4175 129.964 80.4767 130.016C80.7259 130.243 80.7383 130.354 80.5088 130.594C80.2645 130.85 80.0054 131.094 79.7561 131.349C78.6309 132.501 78.0806 133.905 77.9473 135.489C77.8708 136.383 78.0781 137.207 78.5272 137.984C79.0726 138.929 79.8153 139.667 80.7457 140.232C81.2071 140.514 81.2046 140.541 81.0146 141.091C80.4693 142.683 80.415 144.259 81.1528 145.809C81.3305 146.182 81.3502 146.562 81.3527 146.962C81.3601 147.62 81.1479 148.06 80.4495 148.294C78.9196 148.81 77.4168 149.412 75.9016 149.975C72.8837 151.1 69.7473 151.677 66.5467 151.882C64.7651 151.996 63.0032 151.744 61.298 151.191C61.0266 151.102 60.6194 151.112 60.5503 150.737C60.5034 150.471 60.881 150.436 60.9821 150.224C60.9994 150.189 61.0216 150.157 61.0389 150.12C61.1105 149.967 61.1031 149.822 61.0043 149.678C60.9229 149.56 60.7995 149.555 60.6885 149.582C60.269 149.683 59.8445 149.782 59.4349 149.915C57.8581 150.431 56.3553 151.115 54.8525 151.818C52.7105 152.82 50.5291 153.735 48.3625 154.685C40.8904 157.97 33.4183 161.254 25.9487 164.544C25.5514 164.719 25.1788 164.941 24.7963 165.141ZM74.7566 120.311C74.7566 119.758 74.7616 119.208 74.7517 118.655C74.7492 118.541 74.7073 118.421 74.6505 118.322C74.6283 118.285 74.4926 118.265 74.4506 118.297C74.2779 118.423 74.2656 118.633 74.2211 118.823C73.8584 120.397 73.5055 121.976 73.1304 123.548C72.3112 126.966 70.5147 129.777 67.8126 132.008C65.8459 133.631 63.5806 134.737 61.2314 135.684C60.5009 135.978 59.7557 136.237 59.0179 136.516C58.8353 136.585 58.6527 136.666 58.4824 136.765C58.4306 136.795 58.4084 136.893 58.3936 136.963C58.3738 137.054 58.4256 137.116 58.5243 137.123C58.6403 137.133 58.7612 137.145 58.8748 137.133C61.5719 136.802 64.1136 136 66.4258 134.559C71.6992 131.277 74.5271 126.544 74.7566 120.311Z" fill="#EED3CA"/>
<path d="M209.474 132.738C209.321 132.457 209.022 132.491 208.773 132.434C204.926 131.571 201.076 130.707 197.227 129.851C191.684 128.617 186.139 127.388 180.597 126.159C177.441 125.458 174.272 124.797 171.126 124.057C169.424 123.657 167.815 123.857 166.302 124.644C162.956 126.386 161.078 129.135 160.908 132.943C160.774 135.978 160.727 139.018 160.616 142.056C160.542 144.069 160.357 146.073 159.772 148.015C159.439 149.118 158.943 150.13 158.215 151.043C157.428 152.028 156.695 153.052 155.849 153.994C155.185 154.732 154.465 155.398 153.749 156.075C144.769 164.556 135.777 173.027 126.785 181.499C126.499 181.77 126.21 182.042 125.899 182.284C125.66 182.471 125.339 182.444 125.134 182.271C124.895 182.069 124.853 181.699 125.07 181.417C125.213 181.23 125.386 181.067 125.558 180.904C128.944 177.706 132.33 174.508 135.718 171.315C141.892 165.494 148.068 159.677 154.238 153.849C155.767 152.403 157.08 150.786 158.033 148.894C158.319 148.326 158.561 147.746 158.702 147.127C158.966 145.972 159.19 144.81 159.257 143.625C159.395 141.103 159.523 138.581 159.634 136.059C159.694 134.68 159.713 133.298 159.743 131.916C159.763 130.993 160 130.112 160.352 129.278C161.744 125.996 164.123 123.78 167.585 122.825C168.812 122.487 170.06 122.472 171.329 122.773C174.628 123.553 177.942 124.271 181.251 125.012C181.328 125.029 181.406 125.039 181.485 125.049C181.774 125.086 181.944 124.957 181.957 124.683C181.967 124.486 181.977 124.286 181.954 124.091C181.779 122.643 181.587 121.194 181.419 119.746C181.369 119.326 181.145 119.158 180.767 119.03C179.716 118.667 178.62 118.504 177.542 118.282C169.47 116.617 161.394 114.971 153.32 113.32C148.182 112.269 143.042 111.222 137.904 110.174C133.191 109.211 128.475 108.254 123.759 107.289C119.898 106.499 116.036 105.705 112.174 104.91C111.214 104.713 110.942 104.375 110.92 103.36C110.915 103.163 110.92 102.966 110.92 102.768C110.92 70.8661 110.92 38.9667 110.92 7.06471C110.92 5.01161 110.824 5.43852 112.393 4.50081C114.052 3.51127 115.712 2.51927 117.361 1.50999C117.719 1.29037 118.054 1.21141 118.476 1.2805C124.433 2.2503 130.39 3.20775 136.352 4.16027C141.063 4.9129 145.778 5.6458 150.489 6.3935C156.254 7.30901 162.018 8.23932 167.783 9.15482C172.533 9.90992 177.288 10.6453 182.038 11.4029C189.671 12.6194 197.303 13.8458 204.936 15.0649C209.957 15.8693 214.982 16.6738 220.006 17.4733C227.367 18.6455 234.73 19.8127 242.091 20.9799C246.844 21.7325 251.597 22.4802 256.349 23.2328C257.361 23.3932 258.373 23.5536 259.385 23.7165C259.58 23.7486 259.775 23.7807 259.965 23.8325C260.68 24.0324 260.88 24.2693 260.915 24.9873C260.934 25.3822 260.92 25.777 260.92 26.1718C260.92 59.89 260.922 93.6057 260.922 127.324C260.922 127.995 260.917 128.666 260.939 129.337C260.954 129.772 260.823 130.085 260.431 130.317C258.494 131.46 256.567 132.619 254.637 133.772C254.324 133.959 254.017 134.021 253.63 133.932C251.399 133.434 249.161 132.962 246.921 132.499C241.59 131.395 236.26 130.297 230.93 129.204C229.657 128.943 228.378 128.693 227.103 128.449C226.733 128.378 226.577 128.498 226.587 128.871C226.597 129.303 226.609 129.742 226.683 130.164C227.196 133.014 227.322 135.889 227.229 138.774C227.192 139.916 227.048 141.056 226.789 142.174C226.372 143.973 225.407 145.429 223.966 146.567C223.051 147.29 222.032 147.571 220.862 147.285C218.987 146.828 217.101 146.406 215.216 145.984C212.368 145.348 209.518 144.721 206.668 144.094C206.475 144.052 206.281 144.018 206.086 143.998C205.841 143.971 205.733 144.101 205.73 144.336C205.728 144.731 205.723 145.126 205.725 145.52C205.74 147.929 205.735 150.337 205.469 152.736C205.219 154.986 204.76 157.175 203.665 159.186C203.268 159.914 202.764 160.571 202.283 161.244C200.731 163.418 198.712 165.133 196.79 166.942C190.581 172.783 184.355 178.607 178.137 184.435C172.868 189.376 167.6 194.313 162.331 199.254C162.159 199.417 161.993 199.587 161.808 199.735C161.687 199.831 161.547 199.918 161.404 199.962C161.169 200.034 160.925 200.016 160.757 199.804C160.599 199.602 160.56 199.352 160.71 199.143C160.893 198.889 161.107 198.657 161.335 198.442C163.114 196.764 164.9 195.091 166.684 193.415C175.953 184.722 185.222 176.028 194.495 167.337C196.222 165.718 197.969 164.119 199.704 162.51C199.791 162.429 199.877 162.347 199.953 162.256C202.123 159.764 203.665 156.975 204.079 153.639C204.326 151.64 204.474 149.632 204.511 147.618C204.546 145.723 204.548 143.828 204.561 141.932C204.57 140.21 204.918 138.569 205.688 137.019C206.458 135.467 207.534 134.184 208.963 133.197C209.141 133.071 209.382 132.997 209.474 132.738ZM112.179 6.57364C112.179 6.99314 112.179 7.46447 112.179 7.93333C112.179 25.856 112.179 43.7811 112.179 61.7037C112.179 75.1673 112.179 88.6284 112.179 102.092C112.179 102.487 112.179 102.882 112.193 103.276C112.198 103.444 112.305 103.575 112.462 103.627C112.648 103.689 112.842 103.723 113.035 103.763C115.431 104.251 117.827 104.735 120.223 105.228C125.941 106.403 131.656 107.585 137.371 108.757C144.789 110.277 152.207 111.79 159.624 113.31C165.922 114.601 172.219 115.899 178.517 117.194C179.213 117.337 179.904 117.493 180.597 117.641C181.046 117.737 181.135 117.653 181.11 117.155C181.105 117.036 181.088 116.918 181.078 116.802C180.832 114.129 180.644 111.454 180.533 108.772C180.395 105.406 180.563 102.065 181.17 98.7507C181.809 95.2467 182.806 91.8487 184.094 88.5297C184.965 86.2841 185.858 84.0509 187.112 81.983C187.726 80.9712 188.395 79.9965 189.12 79.0588C189.587 78.4567 190.12 78.2469 190.872 78.4295C191.983 78.6985 193.111 78.9033 194.231 79.1304C199.527 80.2013 204.822 81.2747 210.118 82.3408C215.453 83.4142 220.79 84.4827 226.125 85.5562C228.408 86.0151 230.691 86.4667 232.966 86.9479C233.857 87.1355 234.19 87.9596 233.76 88.7567C233.178 89.8326 232.598 90.9085 232.026 91.9893C230.084 95.6686 228.561 99.5009 227.675 103.585C227.221 105.673 226.918 107.777 226.617 109.885C226.15 113.135 225.926 116.399 226.056 119.684C226.143 121.853 226.227 124.022 226.32 126.189C226.353 126.959 226.385 126.983 227.088 127.144C227.241 127.178 227.399 127.198 227.554 127.23C230.375 127.805 233.198 128.378 236.018 128.955C241.196 130.016 246.37 131.085 251.55 132.133C252.085 132.242 252.604 132.484 253.174 132.395C253.521 131.854 253.329 131.252 253.331 130.685C253.344 105.063 253.344 79.4413 253.344 53.8195C253.344 45.8046 253.344 37.7921 253.341 29.7771C253.341 28.8591 253.329 28.8591 252.48 28.7012C252.364 28.679 252.246 28.6666 252.13 28.6494C247.69 27.9411 243.251 27.2329 238.812 26.5296C234.215 25.8017 229.615 25.0836 225.018 24.3482C220.304 23.5956 215.593 22.8281 210.883 22.0755C206.52 21.3796 202.157 20.6961 197.794 20.0002C192.768 19.1982 187.746 18.3839 182.719 17.5868C177.421 16.7478 172.123 15.9286 166.825 15.0871C161.021 14.1642 155.22 13.224 149.416 12.3011C142.832 11.2548 136.248 10.2208 129.665 9.17456C124.095 8.28867 118.526 7.39291 112.956 6.50455C112.717 6.46013 112.482 6.38857 112.179 6.57364ZM181.772 108.392C181.868 110.127 181.949 111.861 182.068 113.594C182.315 117.214 182.909 120.802 183.126 124.427C183.188 125.439 183.22 125.443 184.296 125.68C187.415 126.371 190.534 127.055 193.654 127.741C200.235 129.192 206.816 130.65 213.402 132.091C215.574 132.568 216.966 133.846 217.548 135.99C217.95 137.476 218.241 138.986 218.518 140.499C218.73 141.663 218.979 142.821 219.448 143.916C219.697 144.499 219.983 145.064 220.447 145.508C221.195 146.226 221.935 146.325 222.809 145.799C223.11 145.619 223.391 145.392 223.648 145.15C224.716 144.146 225.375 142.917 225.622 141.466C226.17 138.246 226.14 135.013 225.704 131.795C225.368 129.33 225.05 126.867 224.919 124.387C224.823 122.576 224.835 120.757 224.798 118.944C224.739 116.059 224.904 113.192 225.286 110.329C225.625 107.785 225.965 105.248 226.567 102.751C227.187 100.177 227.9 97.6304 229.069 95.2442C230.024 93.2972 231.034 91.3774 232.021 89.4452C232.164 89.1639 232.332 88.8974 232.475 88.6161C232.625 88.3199 232.561 88.1793 232.26 88.1102C231.838 88.0115 231.414 87.9202 230.989 87.8338C228.169 87.2662 225.346 86.7061 222.525 86.136C217.23 85.0675 211.936 83.9941 206.641 82.9207C202.468 82.0743 198.298 81.2254 194.125 80.3814C192.965 80.147 191.803 79.9299 190.643 79.693C190.337 79.6313 190.103 79.7078 189.917 79.9521C189.774 80.1421 189.636 80.3321 189.498 80.5246C188.232 82.2988 187.196 84.2014 186.376 86.2175C185.843 87.5327 185.352 88.8653 184.856 90.1954C182.663 96.0659 181.505 102.107 181.772 108.392ZM254.637 80.4283C254.639 97.0851 254.637 113.742 254.639 130.401C254.639 130.835 254.647 131.27 254.669 131.701C254.679 131.911 254.896 132.032 255.093 131.956C255.167 131.928 255.244 131.906 255.313 131.867C256.567 131.119 257.818 130.366 259.076 129.626C259.412 129.429 259.609 129.16 259.631 128.777C259.659 128.306 259.681 127.832 259.681 127.358C259.683 109.438 259.683 91.518 259.683 73.5979C259.683 58.244 259.683 42.8878 259.681 27.534C259.681 27.0997 259.671 26.6678 259.644 26.2335C259.631 26.0287 259.454 25.9843 259.298 26.0386C259.076 26.1126 258.864 26.2212 258.659 26.3347C257.766 26.8381 256.88 27.3563 255.984 27.8572C254.427 28.7283 254.644 28.336 254.644 30.1003C254.634 46.878 254.637 63.6532 254.637 80.4283ZM258.208 24.8812C257.921 24.8146 257.694 24.7455 257.462 24.7085C255.826 24.4445 254.19 24.1878 252.554 23.9287C247.801 23.1786 243.049 22.4309 238.298 21.6757C234.052 21.0021 229.807 20.3161 225.563 19.6375C222.797 19.1957 220.03 18.7565 217.264 18.3148C213.721 17.7472 210.177 17.1747 206.633 16.6121C203.322 16.0865 200.01 15.5781 196.699 15.0525C193.932 14.6158 191.169 14.1642 188.402 13.7225C185.752 13.3005 183.102 12.8933 180.451 12.4689C176.752 11.8767 173.053 11.2696 169.354 10.6798C165.537 10.0728 161.717 9.48302 157.902 8.87597C152.254 7.97774 146.605 7.06717 140.957 6.16894C136.749 5.50021 132.539 4.85121 128.334 4.18001C125.141 3.67167 121.951 3.14852 118.76 2.62044C118.39 2.55875 118.071 2.6007 117.746 2.79812C116.633 3.47426 115.505 4.12572 114.39 4.79692C114.259 4.87589 114.148 4.99434 114.052 5.11279C114.02 5.15227 114.044 5.30033 114.081 5.31514C114.219 5.37683 114.37 5.41877 114.52 5.44345C117.714 5.95179 120.909 6.45026 124.102 6.96107C129.361 7.80007 134.62 8.64895 139.878 9.48549C143.967 10.1369 148.058 10.7711 152.15 11.4201C155.498 11.9507 158.847 12.496 162.196 13.029C166.793 13.7595 171.393 14.4776 175.99 15.2129C179.65 15.7978 183.307 16.4097 186.969 16.9921C190.823 17.6066 194.683 18.1939 198.539 18.8059C203.798 19.6399 209.057 20.4913 214.315 21.3278C216.963 21.7498 219.616 22.1446 222.264 22.569C225.923 23.1563 229.58 23.7659 233.24 24.3532C237.563 25.0441 241.889 25.7227 246.215 26.4063C248.436 26.7567 250.659 27.0972 252.875 27.4748C253.539 27.5883 254.099 27.4772 254.671 27.1268C255.646 26.5296 256.655 25.9892 257.65 25.4192C257.842 25.3106 258.089 25.2465 258.208 24.8812ZM217.972 145.281C218.471 145.353 218.602 145.172 218.426 144.8C218.056 144.008 217.782 143.186 217.592 142.337C217.395 141.451 217.247 140.555 217.054 139.67C216.795 138.475 216.571 137.269 216.228 136.096C215.626 134.036 213.691 132.945 211.601 133.419C211.139 133.523 210.695 133.683 210.276 133.917C208.114 135.122 206.853 137 206.165 139.327C205.925 140.131 205.945 140.965 205.799 141.779C205.671 142.505 205.733 142.586 206.431 142.762C206.584 142.799 206.742 142.816 206.897 142.848C208.862 143.277 210.828 143.709 212.793 144.141C214.564 144.533 216.336 144.923 217.972 145.281Z" fill="black"/>
<path d="M24.7955 165.141C25.178 164.941 25.5506 164.721 25.943 164.546C33.4126 161.257 40.8847 157.972 48.3568 154.688C50.5209 153.735 52.7048 152.822 54.8467 151.82C56.3495 151.117 57.8523 150.434 59.4292 149.918C59.8388 149.782 60.2632 149.686 60.6827 149.585C60.7938 149.558 60.9172 149.56 60.9986 149.681C61.0973 149.824 61.1047 149.97 61.0332 150.123C61.0159 150.157 60.9937 150.192 60.9764 150.226C60.8728 150.439 60.4952 150.473 60.5446 150.74C60.6112 151.115 61.0183 151.107 61.2923 151.194C62.9974 151.746 64.7593 151.998 66.541 151.885C69.7415 151.68 72.8779 151.1 75.8959 149.977C77.411 149.412 78.9138 148.812 80.4438 148.297C81.1421 148.062 81.3544 147.623 81.347 146.964C81.342 146.567 81.3223 146.184 81.1471 145.812C80.4093 144.262 80.4635 142.685 81.0089 141.093C81.1964 140.543 81.2014 140.514 80.7399 140.235C79.8096 139.667 79.0668 138.932 78.5215 137.987C78.0724 137.209 77.8676 136.383 77.9416 135.492C78.0748 133.908 78.6251 132.504 79.7504 131.351C79.9996 131.097 80.2587 130.855 80.503 130.596C80.73 130.357 80.7202 130.246 80.4709 130.019C80.4117 129.964 80.35 129.917 80.2883 129.868C77.8947 127.884 77.3518 125.318 77.9366 122.396C77.9909 122.127 78.0748 121.86 78.1612 121.599C78.3241 121.115 78.6227 120.637 78.6325 120.15C78.6424 119.632 78.0551 119.351 77.7664 118.936C76.2364 116.757 76.7028 113.167 78.524 111.526C79.6615 110.499 80.9571 109.786 82.3464 109.209C83.4025 108.772 84.4858 108.397 85.6135 108.18C85.806 108.143 85.9985 108.086 86.1836 108.024C86.3539 107.968 86.4328 107.827 86.4081 107.659C86.228 106.413 86.0528 105.164 85.848 103.921C85.7591 103.378 85.5864 102.847 85.4778 102.307C85.3594 101.724 85.3076 101.135 85.3767 100.54C85.3939 100.379 85.4383 100.204 85.5938 100.148C85.8924 100.039 85.8776 100.328 85.9442 100.478C86.3218 101.302 86.6327 102.146 86.8548 103.032C87.1435 104.182 87.6173 105.265 88.2614 106.243C88.6118 106.346 88.8042 106.112 89.0214 105.969C90.1343 105.228 91.3163 104.575 92.2047 103.536C92.3009 103.422 92.4564 103.348 92.597 103.284C92.6489 103.262 92.7377 103.314 92.8068 103.346C92.8364 103.36 92.8734 103.41 92.8685 103.434C92.8512 103.511 92.8142 103.583 92.7846 103.657C92.3527 104.732 91.7383 105.687 90.8919 106.484C90.4033 106.943 89.9098 107.398 89.431 107.866C88.7055 108.58 87.8567 109.019 86.8474 109.204C85.4877 109.453 84.1576 109.826 82.8868 110.381C82.1638 110.694 81.4383 111.015 80.7646 111.417C79.3901 112.242 78.408 113.377 78.1513 115.03C77.9934 116.044 78.1563 117.004 78.6498 117.89C79.1927 118.87 79.9996 119.506 81.1495 119.679C82.7511 119.918 84.36 120.076 85.9763 120.123C87.9899 120.18 89.9986 120.062 92.0023 119.862C93.6976 119.691 95.193 119.013 96.5798 118.068C98.5096 116.755 100.281 115.25 101.977 113.651C102.389 113.261 102.66 112.782 102.89 112.281C103.983 109.902 103.847 107.533 102.798 105.179C102.376 104.232 101.757 103.412 101.071 102.647C100.866 102.418 100.597 102.233 100.331 102.067C96.3997 99.6416 92.1677 97.9488 87.6518 97.0037C85.6333 96.5817 83.5876 96.5546 81.5345 96.8976C78.3562 97.4257 75.3456 98.4399 72.4461 99.8218C71.9723 100.046 71.8193 100.33 71.8736 100.836C71.992 101.939 72.2339 103.017 72.5571 104.074C73.0137 105.564 73.137 107.087 73.1074 108.634C73.105 108.792 73.105 108.95 73.0877 109.108C73.0729 109.226 73.0087 109.352 72.8755 109.335C72.7743 109.322 72.6583 109.248 72.5991 109.164C72.5103 109.041 72.4412 108.89 72.4017 108.74C71.8859 106.674 71.3677 104.609 70.8693 102.539C70.5337 101.144 70.509 99.7379 70.6151 98.3066C70.8495 95.1579 71 92.0067 71.2049 88.8555C71.2962 87.4391 71.4467 86.0275 71.5503 84.6111C71.7774 81.5438 72.0192 78.4765 71.8933 75.3919C71.8341 73.9311 71.3036 72.6898 70.2153 71.7348C68.33 70.079 66.1807 69.4745 63.7451 70.3332C62.3213 70.8341 61.3688 71.7842 60.9048 73.2697C60.5248 74.4838 60.3077 75.7201 60.1201 76.9663C59.6068 80.3988 59.1355 83.8387 58.6346 87.2737C58.2817 89.692 57.9264 92.1128 57.5365 94.5262C57.265 96.2116 56.6629 97.8032 55.9769 99.3554C54.9874 101.591 53.9238 103.792 52.9269 106.025C51.3648 109.527 50.1088 113.135 49.3266 116.898C49.2229 117.399 49.1637 117.91 49.0675 118.413C49.0156 118.685 48.9342 118.949 48.7022 119.136C48.5813 119.235 48.3494 119.215 48.2975 119.077C48.2556 118.968 48.2383 118.852 48.2062 118.739C48.036 118.112 48.0286 118.095 47.4092 118.351C44.6429 119.504 41.8791 120.664 39.1178 121.826C33.4842 124.192 27.8505 126.559 22.2193 128.933C21.2421 129.345 20.2822 129.789 19.3124 130.221C18.9052 130.367 18.503 130.524 18.0909 130.655C17.9083 130.714 17.7084 130.751 17.5184 130.744C17.2568 130.734 17.0939 130.552 17.0224 130.31C16.9607 130.102 17.0298 129.893 17.1902 129.777C17.4419 129.597 17.7207 129.441 18.007 129.32C19.7097 128.595 21.4198 127.879 23.1274 127.163C30.6858 123.99 38.2467 120.819 45.8052 117.643C46.4221 117.384 47.0292 117.095 47.651 116.849C47.9841 116.715 48.1174 116.493 48.1914 116.15C49.0082 112.316 50.3186 108.646 51.9448 105.083C52.6974 103.432 53.4944 101.803 54.2668 100.165C54.4346 99.8095 54.5876 99.4442 54.7579 99.0889C55.6438 97.2209 56.1694 95.2591 56.4507 93.206C57.0676 88.7124 57.7364 84.2262 58.4273 79.7424C58.7703 77.5215 59.1725 75.3105 59.6192 73.1093C59.9227 71.6041 60.8283 70.464 62.1337 69.6719C63.8833 68.6083 65.7809 68.4553 67.7304 68.9414C69.512 69.3881 70.9704 70.3529 72.0414 71.8681C72.794 72.9317 73.1815 74.1112 73.1568 75.4191C73.0926 78.6147 73.063 81.8103 72.7866 84.9985C72.4806 88.5372 72.2684 92.0807 72.0809 95.6268C72.0389 96.4139 71.9674 97.2011 71.9353 97.9883C71.918 98.4448 72.1006 98.5682 72.5053 98.3782C73.8971 97.7169 75.3357 97.1814 76.804 96.7125C79.7973 95.7576 82.8448 95.2221 86.0059 95.4861C87.9085 95.644 89.7395 96.1055 91.5433 96.6854C94.5539 97.6552 97.372 99.0445 100.165 100.535C104.654 102.931 106.211 109.312 103.699 113.505C103.637 113.606 103.588 113.715 103.516 113.811C103.28 114.124 103.376 114.396 103.603 114.662C103.78 114.872 103.956 115.087 104.121 115.309C104.903 116.36 105.496 117.488 105.846 118.776C106.473 121.076 105.996 123.146 104.758 125.098C104.464 125.562 104.119 126.001 103.758 126.416C103.465 126.754 103.371 127.035 103.625 127.46C104.116 128.274 104.375 129.187 104.642 130.1C105.133 131.768 104.908 133.377 104.343 134.971C104.114 135.615 103.689 136.138 103.255 136.652C103.053 136.889 103.03 137.128 103.173 137.407C103.892 138.808 103.729 140.24 103.27 141.663C102.682 143.482 101.579 144.963 100.106 146.147C98.2208 147.662 96.1184 148.835 93.8926 149.77C92.444 150.379 90.9067 150.493 89.3595 150.352C87.6148 150.194 85.9393 149.775 84.4217 148.854C84.2539 148.753 84.0713 148.674 83.8936 148.588C83.6295 148.462 83.3902 148.487 83.1064 148.598C81.0903 149.39 79.057 150.145 77.0384 150.935C73.6651 152.257 70.1487 152.909 66.5508 153.16C65.887 153.207 65.2109 153.138 64.5471 153.064C62.7383 152.867 60.9369 152.613 59.3527 151.621C59.022 151.413 58.7654 151.517 58.4717 151.648C56.0213 152.731 53.566 153.807 51.1131 154.885C43.7867 158.103 36.4626 161.321 29.1361 164.541C28.1984 164.953 27.2632 165.373 26.3255 165.787C26.1453 165.866 25.9652 165.948 25.7801 166.014C25.4741 166.125 25.1657 166.182 24.8942 165.926C24.6598 165.689 24.7511 165.41 24.7955 165.141ZM87.6913 121.446C86.3119 121.377 85.2903 121.318 84.2662 121.276C83.9528 121.263 83.6271 121.246 83.3285 121.32C81.9886 121.653 80.693 122.12 79.4444 122.712C79.1162 122.867 78.9731 123.109 78.9755 123.457C78.978 124.007 78.9533 124.563 78.9953 125.11C79.1804 127.647 81.4703 129.651 83.3408 129.989C84.814 130.258 86.2872 130.52 87.7604 130.769C89.6309 131.085 91.5187 131.178 93.4089 131.181C94.3491 131.183 95.3065 131.127 96.1727 130.68C98.9019 129.276 101.283 127.428 103.228 125.039C103.933 124.173 104.425 123.188 104.713 122.107C104.886 121.458 104.982 120.802 104.886 120.121C104.632 118.31 103.867 116.74 102.668 115.373C102.421 115.092 102.31 115.094 101.986 115.368C101.836 115.496 101.693 115.63 101.55 115.765C100.207 117.051 98.7094 118.142 97.1869 119.193C95.6767 120.237 94.0258 120.967 92.1677 121.118C90.5612 121.251 88.9498 121.357 87.6913 121.446ZM88.0269 140.543C90.3268 140.686 91.8567 140.536 93.3818 140.331C94.0456 140.242 94.6995 140.072 95.3164 139.803C96.4737 139.299 97.6385 138.813 98.7736 138.268C99.5164 137.91 100.252 137.508 100.925 137.034C102.248 136.101 103.267 134.929 103.558 133.256C103.778 131.983 103.684 130.749 103.233 129.532C102.443 127.393 102.623 127.721 101.118 128.938C99.8248 129.982 98.4849 130.941 97.0068 131.709C96.2961 132.079 95.5459 132.299 94.7538 132.375C94.243 132.425 93.7297 132.449 93.2189 132.454C90.9634 132.469 88.7327 132.215 86.5143 131.83C86.0898 131.756 85.6481 131.667 85.2261 131.704C83.6493 131.842 82.107 132.156 80.6264 132.735C80.0687 132.953 79.7134 133.335 79.5283 133.89C79.3778 134.339 79.2643 134.794 79.205 135.27C79.0866 136.227 79.3408 137.054 79.9256 137.811C80.7029 138.823 81.7171 139.467 82.9386 139.768C84.856 140.24 86.8054 140.521 88.0269 140.543ZM89.2805 141.878C87.6 141.525 85.9121 141.861 84.2539 142.428C83.5012 142.688 82.8177 143.07 82.2427 143.628C81.996 143.867 81.917 144.121 82.0108 144.474C82.2649 145.429 82.7955 146.199 83.5654 146.784C85.5 148.257 87.679 149.066 90.1294 149.084C91.2768 149.091 92.4194 149.027 93.4879 148.558C95.4768 147.685 97.367 146.631 99.1018 145.321C100.247 144.454 101.167 143.386 101.794 142.078C102.243 141.14 102.515 140.168 102.453 139.114C102.433 138.754 102.364 138.414 102.191 138.095C102.122 137.969 102.001 137.964 101.895 137.994C101.784 138.024 101.676 138.083 101.579 138.147C100.067 139.161 98.3911 139.852 96.7477 140.61C94.3886 141.701 91.8938 141.868 89.2805 141.878Z" fill="black"/>
<path d="M167.628 142.108C167.774 142.135 168.008 142.169 168.237 142.224C174.831 143.798 181.427 145.372 188.018 146.952C190.089 147.448 192.154 147.949 194.222 148.459C194.563 148.543 194.906 148.652 195.224 148.797C195.453 148.904 195.55 149.138 195.495 149.395C195.441 149.651 195.251 149.789 195.009 149.854C194.686 149.937 194.385 149.807 194.081 149.733C191.742 149.177 189.403 148.622 187.063 148.062C181.852 146.813 176.637 145.565 171.426 144.316C170.276 144.04 169.123 143.773 167.973 143.497C167.744 143.443 167.512 143.386 167.29 143.304C166.947 143.176 166.764 142.878 166.824 142.576C166.88 142.27 167.154 142.09 167.628 142.108Z" fill="black"/>
<path d="M197.437 137.666C197.299 137.641 197.065 137.609 196.835 137.562C193.825 136.933 190.816 136.304 187.806 135.67C182.715 134.599 177.622 133.523 172.531 132.447C171.798 132.291 171.065 132.133 170.335 131.968C170.145 131.926 169.947 131.874 169.785 131.773C169.572 131.645 169.459 131.428 169.501 131.169C169.543 130.905 169.802 130.685 170.096 130.687C170.33 130.69 170.567 130.719 170.796 130.766C172.803 131.183 174.809 131.608 176.815 132.027C183.49 133.431 190.163 134.833 196.838 136.24C197.146 136.304 197.457 136.37 197.756 136.467C198.111 136.58 198.291 136.869 198.237 137.177C198.18 137.501 197.928 137.676 197.437 137.666Z" fill="black"/>
<path d="M157.162 160.721C157.379 160.773 157.725 160.847 158.065 160.941C161.528 161.871 164.99 162.806 168.452 163.734C173.131 164.99 177.809 166.244 182.488 167.5C182.905 167.611 183.322 167.734 183.724 167.892C184.013 168.006 184.154 168.309 184.102 168.556C184.038 168.859 183.727 169.091 183.391 169.045C183.12 169.007 182.851 168.936 182.584 168.864C177.525 167.5 172.469 166.128 167.411 164.766C164.254 163.917 161.091 163.088 157.935 162.236C157.52 162.125 157.078 162.078 156.711 161.824C156.494 161.674 156.405 161.469 156.442 161.215C156.479 160.955 156.753 160.736 157.162 160.721Z" fill="black"/>
<path d="M164.395 152.245C164.656 152.311 164.923 152.376 165.189 152.445C172.555 154.34 179.924 156.238 187.29 158.13C188.052 158.328 188.819 158.51 189.584 158.703C189.851 158.769 190.122 158.831 190.382 158.925C190.828 159.088 191.035 159.376 190.961 159.695C190.88 160.05 190.589 160.213 190.12 160.149C189.925 160.122 189.735 160.065 189.545 160.016C186.3 159.186 183.053 158.36 179.81 157.528C174.885 156.265 169.962 154.996 165.036 153.73C164.73 153.651 164.422 153.577 164.128 153.469C163.99 153.417 163.852 153.306 163.768 153.185C163.622 152.975 163.637 152.743 163.768 152.516C163.906 152.27 164.153 152.287 164.395 152.245Z" fill="black"/>
<path d="M148.162 170.518C148.32 170.55 148.592 170.594 148.858 170.663C156.483 172.615 164.111 174.57 171.736 176.527C172.345 176.682 172.957 176.84 173.559 177.023C174.009 177.161 174.233 177.457 174.179 177.77C174.115 178.145 173.747 178.36 173.249 178.242C171.719 177.872 170.194 177.477 168.669 177.087C162.605 175.537 156.542 173.985 150.479 172.433C149.754 172.248 149.033 172.048 148.313 171.853C148.123 171.801 147.928 171.764 147.748 171.688C147.439 171.559 147.316 171.248 147.41 170.903C147.479 170.629 147.688 170.501 148.162 170.518Z" fill="black"/>
<path d="M163.273 187.917C163.058 187.858 162.718 187.767 162.377 187.663C156.312 185.808 150.246 183.947 144.181 182.091C142.863 181.687 141.545 181.284 140.227 180.88C139.926 180.786 139.623 180.7 139.332 180.581C138.919 180.413 138.749 180.085 138.87 179.752C138.976 179.456 139.265 179.303 139.645 179.374C139.877 179.416 140.104 179.49 140.329 179.559C143.532 180.537 146.735 181.514 149.938 182.498C154.194 183.804 158.449 185.117 162.703 186.427C163.041 186.531 163.384 186.629 163.71 186.765C164.072 186.916 164.225 187.204 164.154 187.505C164.082 187.797 163.801 187.957 163.273 187.917Z" fill="black"/>
<path d="M267.016 20.8342C266.572 20.812 266.318 20.3974 266.441 20.047C266.547 19.7385 266.769 19.514 266.979 19.2795C269.161 16.8464 271.342 14.4133 273.521 11.9777C274.466 10.9216 275.406 9.86048 276.351 8.80432C276.534 8.59951 276.717 8.38975 276.924 8.20961C277.19 7.97519 277.546 7.97765 277.79 8.17753C278.032 8.37741 278.076 8.73522 277.867 9.02888C277.706 9.25343 277.519 9.45578 277.336 9.6606C274.214 13.1548 271.093 16.649 267.969 20.1383C267.786 20.3431 267.586 20.5381 267.372 20.7034C267.253 20.7922 267.083 20.812 267.016 20.8342Z" fill="#D52B1E"/>
<path d="M266.294 0.698149C266.227 0.875821 266.143 1.13739 266.032 1.38663C265.188 3.29166 264.34 5.1967 263.491 7.09927C262.514 9.29055 261.534 11.4818 260.552 13.6707C260.423 13.9569 260.298 14.2481 260.127 14.5097C259.927 14.8206 259.572 14.9045 259.311 14.749C259.069 14.6059 258.94 14.332 259.019 14.0408C259.079 13.8138 259.17 13.5942 259.264 13.3795C260.562 10.4701 261.862 7.56072 263.163 4.65381C263.725 3.39777 264.285 2.13927 264.858 0.88816C264.971 0.641394 265.102 0.39216 265.272 0.182409C265.433 -0.0100691 265.682 -0.0470865 265.921 0.0565554C266.156 0.15773 266.282 0.347741 266.294 0.698149Z" fill="#D52B1E"/>
<path d="M269.23 27.2157C272.046 27.4452 274.637 27.6574 277.225 27.8647C278.676 27.9807 280.13 28.0893 281.583 28.1978C281.896 28.2201 282.212 28.2176 282.508 28.3508C282.782 28.4742 282.945 28.7358 282.896 29.0097C282.849 29.2713 282.676 29.4416 282.427 29.4786C282.158 29.518 281.879 29.523 281.605 29.5032C279.759 29.37 277.914 29.2343 276.07 29.0837C273.99 28.9159 271.912 28.7333 269.835 28.5507C269.403 28.5137 268.971 28.4693 268.546 28.3903C268.268 28.3385 268.075 28.0325 268.1 27.7759C268.124 27.5069 268.356 27.2453 268.63 27.2231C268.904 27.1984 269.181 27.2157 269.23 27.2157Z" fill="#D52B1E"/>
<path d="M74.7539 120.311C74.5269 126.544 71.699 131.277 66.4231 134.562C64.1085 136.003 61.5692 136.805 58.8721 137.135C58.7561 137.15 58.6376 137.135 58.5217 137.125C58.4229 137.118 58.3711 137.056 58.3909 136.965C58.4057 136.894 58.4279 136.797 58.4797 136.768C58.65 136.671 58.8301 136.588 59.0152 136.518C59.753 136.237 60.4983 135.981 61.2287 135.687C63.5779 134.742 65.8432 133.636 67.8099 132.01C70.512 129.779 72.3085 126.969 73.1278 123.551C73.5053 121.979 73.8557 120.4 74.2185 118.825C74.2629 118.635 74.2752 118.426 74.448 118.3C74.4899 118.27 74.6256 118.287 74.6478 118.324C74.7046 118.423 74.7465 118.544 74.749 118.658C74.7589 119.208 74.7539 119.758 74.7539 120.311Z" fill="black"/>
<path d="M112.179 6.57357C112.483 6.38849 112.717 6.46006 112.949 6.49707C118.519 7.3879 124.088 8.28366 129.658 9.16709C136.241 10.2134 142.825 11.2473 149.409 12.2936C155.213 13.2165 161.014 14.1592 166.818 15.0796C172.114 15.9211 177.414 16.7403 182.713 17.5794C187.739 18.3764 192.761 19.1907 197.787 19.9927C202.15 20.6886 206.513 21.3721 210.876 22.068C215.589 22.8207 220.3 23.5881 225.011 24.3407C229.608 25.0736 234.208 25.7917 238.805 26.5222C243.244 27.2254 247.684 27.9361 252.123 28.6419C252.239 28.6616 252.357 28.674 252.473 28.6937C253.325 28.8516 253.335 28.8516 253.335 29.7696C253.337 37.7846 253.337 45.7971 253.337 53.812C253.337 79.4338 253.337 105.056 253.325 130.677C253.325 131.245 253.517 131.847 253.167 132.387C252.599 132.476 252.079 132.234 251.543 132.126C246.363 131.077 241.189 130.009 236.012 128.947C233.191 128.37 230.37 127.798 227.547 127.223C227.392 127.19 227.237 127.171 227.081 127.136C226.378 126.976 226.348 126.949 226.314 126.181C226.22 124.012 226.136 121.843 226.05 119.676C225.919 116.392 226.143 113.127 226.61 109.877C226.913 107.77 227.217 105.665 227.668 103.577C228.554 99.4934 230.077 95.6612 232.019 91.9819C232.589 90.901 233.171 89.8251 233.754 88.7492C234.183 87.9522 233.85 87.1304 232.959 86.9404C230.681 86.4592 228.399 86.0052 226.119 85.5487C220.784 84.4752 215.446 83.4092 210.111 82.3333C204.815 81.2673 199.52 80.1938 194.224 79.1229C193.104 78.8959 191.976 78.691 190.866 78.4221C190.113 78.2394 189.58 78.4517 189.114 79.0513C188.388 79.989 187.719 80.9638 187.105 81.9755C185.849 84.0434 184.958 86.2742 184.087 88.5222C182.799 91.8412 181.802 95.2392 181.163 98.7433C180.558 102.06 180.39 105.399 180.526 108.764C180.635 111.447 180.825 114.122 181.071 116.794C181.081 116.913 181.099 117.029 181.104 117.147C181.128 117.646 181.039 117.729 180.59 117.633C179.897 117.485 179.203 117.33 178.51 117.187C172.213 115.891 165.918 114.593 159.618 113.302C152.2 111.782 144.782 110.272 137.364 108.75C131.647 107.578 125.932 106.396 120.216 105.221C117.82 104.73 115.424 104.244 113.028 103.755C112.836 103.716 112.641 103.681 112.456 103.619C112.298 103.568 112.194 103.437 112.187 103.269C112.172 102.874 112.172 102.479 112.172 102.084C112.172 88.6209 112.172 75.1598 112.172 61.6962C112.172 43.7736 112.172 25.8485 112.172 7.92585C112.179 7.46193 112.179 6.99307 112.179 6.57357ZM173.873 66.9203C173.871 66.9203 173.868 66.9203 173.863 66.9203C173.863 57.0126 173.863 47.1049 173.863 37.1973C173.863 36.763 173.859 36.3287 173.878 35.8943C173.96 34.2361 173.59 32.6814 172.795 31.2329C171.601 29.0564 169.745 27.6548 167.477 26.7541C166.335 26.3001 165.135 26.0508 163.931 25.8361C160.632 25.2488 157.325 24.6986 154.021 24.131C149.513 23.3561 145.007 22.5788 140.498 21.8065C137.273 21.2537 134.045 20.7059 130.818 20.1507C129.719 19.9606 128.619 19.9409 127.521 20.121C124.212 20.6639 122.21 23.2328 122.04 25.9398C121.978 26.9244 121.931 27.909 121.931 28.8936C121.924 47.6824 121.927 66.4712 121.927 85.26C121.927 85.8917 121.924 86.5234 121.941 87.1551C121.993 88.996 122.373 90.7579 123.269 92.3816C124.377 94.3854 125.976 95.7303 128.291 96.1424C129.455 96.3496 130.603 96.6482 131.758 96.9049C137.298 98.1436 142.838 99.3873 148.377 100.626C154.189 101.924 160.003 103.217 165.811 104.523C166.473 104.671 167.134 104.735 167.808 104.722C169.663 104.685 171.156 103.916 172.294 102.462C173.197 101.31 173.661 99.982 173.784 98.5335C173.841 97.8648 173.861 97.1936 173.861 96.5224C173.876 86.6567 173.873 76.7885 173.873 66.9203ZM233.574 48.5905C233.65 48.5905 233.729 48.5929 233.805 48.5905C234.126 48.5806 234.351 48.4103 234.413 48.1315C234.484 47.8156 234.311 47.5072 233.968 47.4011C233.667 47.3073 233.359 47.2407 233.05 47.1814C231.155 46.8187 229.258 46.4683 227.362 46.1031C222.565 45.1752 217.771 44.2375 212.973 43.3097C207.559 42.2634 202.143 41.2245 196.729 40.1782C194.562 39.7587 192.401 39.3269 190.234 38.9C189.962 38.8457 189.684 38.7939 189.417 38.8876C189.178 38.9715 189.027 39.1714 189.012 39.4231C189 39.6255 189.091 39.8352 189.279 39.9166C189.563 40.0425 189.866 40.1437 190.17 40.2078C191.404 40.462 192.642 40.7014 193.879 40.9407C200.958 42.3053 208.041 43.665 215.12 45.0321C220.302 46.034 225.482 47.0482 230.664 48.0525C231.631 48.2401 232.601 48.4103 233.574 48.5905ZM232.594 68.0036C232.7 68.0036 232.779 68.0061 232.858 68.0036C233.196 67.9937 233.418 67.8432 233.49 67.5767C233.571 67.2756 233.401 66.945 233.068 66.8314C232.809 66.7426 232.537 66.6859 232.266 66.6316C225.467 65.2719 218.671 63.9122 211.87 62.5599C204.761 61.146 197.652 59.7394 190.542 58.3328C190.313 58.2884 190.074 58.2514 189.844 58.2662C189.59 58.281 189.412 58.4439 189.343 58.698C189.269 58.9744 189.395 59.3001 189.637 59.4062C189.814 59.4827 190.009 59.5272 190.199 59.5666C190.972 59.7246 191.744 59.8726 192.517 60.0281C199.739 61.4766 206.96 62.9301 214.185 64.3737C220.095 65.5532 226.008 66.7155 231.92 67.8851C232.155 67.9271 232.387 67.9666 232.594 68.0036Z" fill="white"/>
<path d="M181.773 108.392C181.504 102.107 182.664 96.066 184.852 90.1979C185.348 88.8678 185.839 87.5353 186.372 86.22C187.192 84.2015 188.228 82.3014 189.494 80.5271C189.632 80.3346 189.773 80.1446 189.914 79.9546C190.099 79.7103 190.333 79.6338 190.639 79.6955C191.799 79.9324 192.961 80.1471 194.121 80.384C198.294 81.2279 202.467 82.0768 206.637 82.9232C211.932 83.9967 217.226 85.0676 222.521 86.1386C225.342 86.7086 228.165 87.2688 230.985 87.8363C231.41 87.9227 231.834 88.014 232.256 88.1127C232.56 88.1818 232.621 88.3249 232.471 88.6186C232.328 88.8999 232.16 89.1664 232.017 89.4477C231.03 91.3774 230.02 93.2997 229.065 95.2467C227.896 97.633 227.183 100.18 226.563 102.753C225.961 105.251 225.621 107.787 225.283 110.332C224.9 113.197 224.737 116.064 224.794 118.946C224.831 120.762 224.819 122.579 224.915 124.39C225.046 126.87 225.364 129.333 225.7 131.798C226.136 135.013 226.168 138.248 225.618 141.469C225.371 142.92 224.713 144.148 223.644 145.153C223.387 145.395 223.106 145.619 222.805 145.802C221.931 146.327 221.191 146.229 220.443 145.511C219.98 145.064 219.693 144.501 219.444 143.919C218.978 142.823 218.726 141.666 218.514 140.501C218.237 138.989 217.949 137.478 217.544 135.993C216.962 133.846 215.57 132.568 213.398 132.094C206.815 130.653 200.233 129.194 193.65 127.743C190.53 127.055 187.411 126.374 184.292 125.683C183.216 125.446 183.184 125.441 183.122 124.429C182.905 120.804 182.311 117.219 182.064 113.596C181.95 111.859 181.871 110.124 181.773 108.392ZM220.431 96.4732C220.873 96.4756 221.088 96.3399 221.174 96.0635C221.27 95.76 221.117 95.4219 220.784 95.3035C220.488 95.1974 220.177 95.1332 219.871 95.0666C217.559 94.5804 215.247 94.0918 212.934 93.6156C206.494 92.2831 200.051 90.953 193.608 89.6254C192.954 89.4897 192.295 89.3589 191.636 89.2577C191.337 89.2133 191.073 89.4181 190.994 89.6747C190.903 89.9783 191.063 90.341 191.377 90.4422C191.712 90.5508 192.063 90.6223 192.411 90.6939C194.918 91.2096 197.428 91.718 199.935 92.2386C206.489 93.5983 213.043 94.9654 219.599 96.3276C219.908 96.3893 220.219 96.4361 220.431 96.4732ZM188.492 108.328C188.453 108.33 188.374 108.33 188.295 108.338C188.023 108.365 187.764 108.604 187.732 108.866C187.702 109.127 187.816 109.342 188.036 109.458C188.24 109.567 188.475 109.631 188.702 109.685C189.659 109.917 190.619 110.142 191.579 110.364C197.299 111.681 203.022 112.999 208.742 114.314C211.047 114.845 213.351 115.373 215.656 115.896C215.883 115.948 216.123 116.005 216.35 115.982C216.586 115.958 216.786 115.81 216.838 115.538C216.885 115.284 216.828 115.045 216.596 114.926C216.355 114.803 216.088 114.717 215.822 114.655C213.213 114.04 210.605 113.431 207.994 112.826C201.776 111.388 195.557 109.952 189.336 108.513C189.07 108.449 188.798 108.394 188.492 108.328ZM188.342 119.575C187.846 119.546 187.522 119.763 187.485 120.103C187.453 120.402 187.648 120.683 188.006 120.799C188.268 120.886 188.539 120.94 188.808 120.999C193.805 122.1 198.802 123.2 203.799 124.301C207.607 125.14 211.412 125.979 215.219 126.816C215.525 126.882 215.836 126.936 216.147 126.949C216.426 126.959 216.688 126.695 216.702 126.433C216.717 126.179 216.624 125.944 216.394 125.843C216.11 125.717 215.802 125.636 215.496 125.569C212.458 124.903 209.42 124.249 206.383 123.578C200.964 122.379 195.547 121.167 190.128 119.96C189.511 119.82 188.894 119.694 188.342 119.575ZM217.411 106.364C217.931 106.383 218.19 106.223 218.257 105.914C218.336 105.557 218.151 105.285 217.707 105.145C217.445 105.063 217.174 105.001 216.905 104.942C215.288 104.589 213.67 104.244 212.056 103.886C204.863 102.302 197.669 100.718 190.476 99.1308C190.284 99.0889 190.094 99.0346 189.899 99.0148C189.455 98.9704 189.139 99.1777 189.097 99.5232C189.057 99.839 189.232 100.096 189.605 100.219C189.867 100.305 190.136 100.37 190.405 100.429C192.058 100.792 193.714 101.147 195.37 101.512C202.526 103.086 209.682 104.663 216.836 106.238C217.065 106.287 217.295 106.336 217.411 106.364Z" fill="white"/>
<path d="M254.638 80.4284C254.638 63.6532 254.636 46.878 254.643 30.1004C254.643 28.336 254.426 28.7284 255.983 27.8573C256.879 27.3563 257.765 26.8381 258.658 26.3347C258.863 26.2187 259.078 26.1126 259.297 26.0386C259.453 25.9843 259.63 26.0312 259.643 26.2335C259.67 26.6654 259.68 27.0997 259.68 27.534C259.682 42.8878 259.682 58.2441 259.682 73.5979C259.682 91.5181 259.682 109.438 259.68 127.358C259.68 127.832 259.657 128.304 259.63 128.777C259.608 129.16 259.413 129.429 259.075 129.626C257.817 130.366 256.568 131.119 255.312 131.867C255.245 131.906 255.166 131.928 255.092 131.956C254.895 132.03 254.678 131.911 254.668 131.701C254.648 131.267 254.638 130.833 254.638 130.401C254.638 113.742 254.638 97.0851 254.638 80.4284Z" fill="#AFC0D4"/>
<path d="M258.208 24.8812C258.087 25.2488 257.84 25.3105 257.643 25.4241C256.651 25.9941 255.641 26.5345 254.664 27.1317C254.094 27.4821 253.532 27.5931 252.868 27.4796C250.652 27.1021 248.428 26.7615 246.208 26.4111C241.882 25.7276 237.556 25.0514 233.233 24.358C229.573 23.7732 225.916 23.1612 222.256 22.5739C219.609 22.1495 216.956 21.7546 214.308 21.3327C209.05 20.4961 203.791 19.6472 198.532 18.8107C194.678 18.1987 190.818 17.6114 186.961 16.997C183.299 16.4146 179.645 15.8026 175.983 15.2178C171.386 14.4824 166.786 13.7643 162.189 13.0339C158.84 12.5009 155.491 11.958 152.143 11.425C148.054 10.776 143.96 10.1393 139.871 9.49035C134.612 8.65381 129.354 7.80493 124.095 6.96593C120.902 6.45759 117.706 5.95665 114.513 5.44831C114.363 5.42364 114.212 5.38169 114.074 5.31999C114.04 5.30519 114.015 5.15713 114.044 5.11765C114.141 4.9992 114.252 4.87829 114.383 4.80179C115.5 4.13305 116.626 3.47912 117.739 2.80298C118.064 2.60557 118.383 2.56362 118.753 2.62531C121.943 3.15339 125.134 3.67653 128.327 4.18487C132.535 4.85608 136.745 5.50507 140.949 6.17381C146.598 7.07204 152.246 7.98261 157.895 8.88084C161.712 9.48788 165.532 10.0752 169.347 10.6847C173.049 11.2745 176.745 11.8815 180.444 12.4738C183.092 12.8982 185.745 13.3054 188.395 13.7273C191.161 14.1666 193.925 14.6182 196.691 15.0574C200.003 15.5805 203.315 16.0913 206.626 16.617C210.172 17.1796 213.713 17.7521 217.257 18.3196C220.023 18.7614 222.789 19.2006 225.556 19.6423C229.8 20.3209 234.044 21.0045 238.291 21.6806C243.042 22.4357 247.797 23.1834 252.547 23.9336C254.183 24.1927 255.819 24.4493 257.455 24.7134C257.697 24.7454 257.924 24.8145 258.208 24.8812Z" fill="#AFC0D4"/>
<path d="M217.973 145.281C216.337 144.921 214.565 144.531 212.793 144.144C210.829 143.712 208.862 143.28 206.898 142.85C206.745 142.816 206.585 142.801 206.432 142.764C205.733 142.589 205.671 142.507 205.8 141.782C205.945 140.968 205.928 140.134 206.165 139.329C206.853 137.002 208.114 135.122 210.276 133.92C210.693 133.688 211.14 133.528 211.601 133.422C213.691 132.95 215.624 134.041 216.228 136.099C216.571 137.271 216.796 138.478 217.055 139.672C217.247 140.558 217.395 141.454 217.593 142.34C217.78 143.189 218.057 144.01 218.427 144.802C218.602 145.173 218.469 145.353 217.973 145.281Z" fill="#B2B2B2"/>
<path d="M87.69 121.446C88.9485 121.355 90.5574 121.251 92.1688 121.12C94.027 120.97 95.6754 120.242 97.188 119.195C98.7106 118.142 100.208 117.053 101.551 115.768C101.694 115.632 101.837 115.496 101.988 115.37C102.308 115.097 102.422 115.094 102.669 115.375C103.868 116.742 104.633 118.309 104.887 120.123C104.983 120.804 104.887 121.461 104.714 122.11C104.426 123.188 103.935 124.175 103.229 125.041C101.284 127.43 98.9031 129.276 96.1738 130.682C95.3077 131.129 94.3502 131.186 93.41 131.183C91.5198 131.181 89.6296 131.087 87.7616 130.771C86.2859 130.522 84.8127 130.26 83.342 129.991C81.474 129.651 79.1815 127.65 78.9964 125.113C78.9569 124.565 78.9792 124.01 78.9767 123.459C78.9742 123.114 79.1198 122.87 79.4455 122.714C80.6942 122.122 81.9897 121.656 83.3296 121.322C83.6282 121.248 83.9564 121.266 84.2674 121.278C85.289 121.317 86.3106 121.377 87.69 121.446Z" fill="#EED3CA"/>
<path d="M88.0286 140.543C86.8071 140.523 84.8576 140.24 82.9378 139.763C81.7163 139.46 80.7021 138.818 79.9247 137.806C79.3399 137.046 79.0857 136.222 79.2042 135.265C79.2634 134.791 79.3769 134.334 79.5275 133.885C79.7125 133.33 80.0679 132.948 80.6256 132.73C82.1086 132.153 83.6509 131.837 85.2253 131.699C85.6473 131.662 86.089 131.751 86.5134 131.825C88.7318 132.212 90.9626 132.466 93.2181 132.449C93.7313 132.447 94.2446 132.42 94.7529 132.37C95.5451 132.296 96.2952 132.074 97.0059 131.704C98.484 130.936 99.824 129.979 101.117 128.933C102.622 127.716 102.445 127.39 103.232 129.527C103.681 130.746 103.777 131.98 103.558 133.251C103.266 134.922 102.247 136.096 100.925 137.029C100.251 137.505 99.5155 137.905 98.7728 138.263C97.6376 138.811 96.4729 139.297 95.3156 139.798C94.6962 140.067 94.0447 140.237 93.3809 140.326C91.8584 140.536 90.3284 140.686 88.0286 140.543Z" fill="#EED3CA"/>
<path d="M89.2817 141.878C91.8925 141.868 94.3873 141.7 96.7439 140.615C98.3874 139.857 100.063 139.166 101.576 138.152C101.672 138.088 101.78 138.029 101.891 137.999C102 137.969 102.118 137.974 102.188 138.1C102.36 138.418 102.429 138.759 102.449 139.119C102.511 140.173 102.239 141.145 101.79 142.083C101.166 143.391 100.246 144.459 99.0981 145.325C97.3633 146.636 95.4731 147.689 93.4841 148.563C92.4156 149.032 91.2756 149.096 90.1256 149.089C87.6752 149.071 85.4963 148.262 83.5617 146.789C82.7917 146.204 82.2612 145.434 82.007 144.479C81.9133 144.124 81.9922 143.869 82.239 143.633C82.8164 143.075 83.4975 142.69 84.2501 142.433C85.9158 141.861 87.6012 141.525 89.2817 141.878Z" fill="#EED3CA"/>
<path d="M173.875 66.9204C173.875 76.7886 173.877 86.6568 173.872 96.525C173.872 97.1962 173.853 97.8674 173.796 98.5361C173.672 99.9822 173.206 101.312 172.305 102.465C171.168 103.918 169.672 104.688 167.819 104.725C167.148 104.737 166.484 104.673 165.823 104.525C160.014 103.22 154.2 101.927 148.389 100.629C142.849 99.3899 137.309 98.1487 131.769 96.9075C130.614 96.6483 129.467 96.3522 128.302 96.1449C125.985 95.7328 124.386 94.388 123.28 92.3842C122.385 90.7605 122.005 88.9986 121.953 87.1577C121.935 86.526 121.938 85.8943 121.938 85.2626C121.938 66.4738 121.935 47.685 121.943 28.8962C121.943 27.9116 121.992 26.9245 122.051 25.9424C122.222 23.2354 124.223 20.6665 127.532 20.1236C128.633 19.9435 129.731 19.9657 130.829 20.1532C134.054 20.7085 137.282 21.2538 140.51 21.809C145.018 22.5814 149.524 23.3587 154.032 24.1336C157.337 24.7012 160.641 25.2539 163.942 25.8387C165.144 26.0534 166.346 26.3027 167.488 26.7567C169.759 27.6574 171.614 29.059 172.806 31.2355C173.601 32.6865 173.969 34.2387 173.89 35.8969C173.867 36.3313 173.875 36.7656 173.875 37.1999C173.875 47.1075 173.875 57.0152 173.875 66.9229C173.87 66.9204 173.872 66.9204 173.875 66.9204ZM133.232 81.4673C133.047 81.4426 132.971 81.5709 132.899 81.7067C132.746 81.8843 132.569 82.0472 132.448 82.2446C131.13 84.3643 130.019 86.5901 129.296 88.9789C128.749 90.7852 128.369 92.6433 127.917 94.4768C127.91 94.5114 127.932 94.5508 127.939 94.5878C128.001 94.6347 128.055 94.7038 128.124 94.726C129.667 95.2245 131.278 95.4145 132.842 95.8167C133.087 95.8784 133.185 95.6786 133.213 95.4663C133.292 94.8025 133.373 94.1363 133.435 93.47C133.743 90.1658 134.372 86.9159 135.155 83.6956C135.219 83.4291 135.322 83.17 135.424 82.9133C135.446 82.8541 135.535 82.7924 135.599 82.785C135.735 82.7702 135.814 82.8739 135.823 82.9948C135.885 83.9029 135.856 84.8085 135.757 85.7117C135.688 86.3385 135.621 86.9652 135.564 87.5945C135.542 87.8511 135.651 88.0559 135.897 88.1621C136.186 88.2854 136.472 88.4261 136.773 88.5149C137.719 88.7962 138.666 89.0652 139.616 89.3268C142.355 90.077 145.107 90.763 147.915 91.2072C150.289 91.5822 152.665 91.9499 155.042 92.2929C156.137 92.4509 157.245 92.4533 158.351 92.4212C158.716 92.4114 158.832 92.2806 158.852 91.908C158.866 91.5921 158.857 91.2763 158.857 90.9604C158.854 89.7364 158.844 88.5149 158.849 87.291C158.852 86.7481 158.896 86.2101 159.182 85.5809C159.636 86.8789 159.95 88.0905 160.002 89.3539C160.053 90.6149 160.051 91.8784 160.081 93.1418C160.103 94.0869 160.216 95.0394 160.152 95.9771C160.034 97.7119 160.09 99.4492 160.036 101.184C160.014 101.872 160.061 101.922 160.712 102.072C162.44 102.472 164.169 102.862 165.902 103.247C166.247 103.323 166.6 103.378 166.951 103.425C167.17 103.454 167.373 103.289 167.331 103.091C167.158 102.289 167.212 101.443 166.886 100.671C166.874 100.476 166.886 100.276 166.849 100.083C166.289 97.0703 165.87 94.0302 165.149 91.0443C164.651 88.9789 164.16 86.9159 163.316 84.9516C162.876 83.93 162.343 82.9701 161.561 82.173C160.818 81.4155 160.068 80.6604 159.274 79.9595C158.121 78.9478 156.929 77.9805 155.747 77.0057C155.619 76.8996 155.461 76.6924 155.259 76.9317C155.197 77.028 155.106 77.1193 155.076 77.2254C154.605 78.896 153.477 80.0262 151.969 80.7295C149.479 81.8893 146.938 81.8473 144.46 80.6653C143.387 80.152 142.484 79.3944 141.862 78.3383C141.558 77.8225 141.413 77.2525 141.196 76.7072C141.203 76.4727 141.228 76.2358 141.21 76.0014C141.183 75.6115 141.013 75.5128 140.667 75.7028C138.809 76.7343 136.996 77.8374 135.335 79.1724C134.693 79.6881 134.113 80.2828 133.519 80.8528C133.353 81.0108 133.176 81.1835 133.195 81.4525L133.232 81.4673ZM143.162 77.9509C145.341 80.6604 149.862 81.1144 152.507 78.8886C153.29 78.2322 153.81 77.4228 153.946 76.3938C153.978 76.1569 153.998 75.9175 153.84 75.7152C153.692 75.5227 153.494 75.3993 153.262 75.3697C153.122 75.4881 153.127 75.6461 153.114 75.8015C153.058 76.5517 152.845 77.2673 152.633 77.9829C152.589 78.1335 152.369 78.1384 152.253 78.0175C152.056 77.8077 151.937 77.5659 151.927 77.2797C151.918 76.9663 151.918 76.6504 151.92 76.3345C151.925 75.5128 151.997 74.6911 151.92 73.894C151.686 73.7904 151.493 73.8447 151.303 73.899C149.637 74.3802 147.935 74.6911 146.225 74.9477C145.603 75.0415 144.978 75.1131 144.357 75.2093C144.098 75.2488 143.949 75.4092 143.94 75.6905C143.92 76.2803 143.905 76.8725 143.676 77.4327C143.582 77.6646 143.392 77.6671 143.187 77.6227C143.091 76.8083 142.999 75.9965 142.896 75.1822C142.883 75.0884 142.844 74.9304 142.674 74.9946C142.612 75.0193 142.526 75.0785 142.516 75.1328C142.326 76.1667 142.35 77.1489 143.162 77.9509ZM167.279 44.366C167.279 44.8595 167.086 45.2839 166.889 45.7133C166.294 47.0039 165.351 48.0132 164.229 48.8349C163.693 49.2273 163.476 49.664 163.409 50.2884C163.187 52.3266 162.953 54.3649 162.669 56.3958C162.553 57.2176 162.63 57.8591 163.506 58.1725C165.213 59.4557 165.798 61.6421 164.875 63.4385C164.054 65.0376 162.637 65.694 160.912 65.8124C160.646 65.8297 160.32 65.6545 160.125 65.884C159.96 66.0789 159.91 66.3775 159.817 66.6317C159.777 66.7427 159.762 66.8636 159.725 66.9747C158.736 69.9507 156.89 72.1321 153.897 73.2426C153.749 73.2969 153.598 73.3487 153.457 73.4202C153.277 73.5115 153.277 73.6744 153.396 73.8003C153.526 73.9434 153.689 74.0618 153.85 74.1679C155.824 75.4832 157.665 76.9712 159.481 78.4888C160.419 79.2735 161.297 80.1273 162.181 80.9738C163.074 81.83 163.76 82.8442 164.251 83.9769C164.611 84.806 164.939 85.6549 165.228 86.5112C166.087 89.0578 166.603 91.6957 167.111 94.3263C167.629 96.9987 168.056 99.6885 168.522 102.368C168.557 102.563 168.574 102.761 168.619 102.953C168.683 103.23 168.873 103.323 169.154 103.227C170.331 102.82 171.192 102.038 171.772 100.954C172.281 100.004 172.552 98.9778 172.562 97.8896C172.572 96.9025 172.592 95.9179 172.592 94.9309C172.594 75.6263 172.594 56.3243 172.592 37.0197C172.592 36.4275 172.587 35.8352 172.579 35.243C172.555 33.565 171.992 32.077 170.963 30.7642C169.912 29.4218 168.537 28.5359 166.963 27.919C165.778 27.4551 164.532 27.233 163.296 27.0183C158.089 26.1077 152.877 25.244 147.668 24.3532C141.993 23.3834 136.319 22.4062 130.649 21.4216C129.864 21.2859 129.077 21.2341 128.29 21.3081C125.013 21.6092 123.275 23.9658 123.258 26.5741C123.253 27.2453 123.233 27.9165 123.233 28.5853C123.233 47.9293 123.233 67.2708 123.233 86.6148C123.233 87.0097 123.221 87.4069 123.258 87.7993C123.47 90.0621 124.087 92.1375 126.017 93.5835C126.079 93.6304 126.126 93.6995 126.182 93.7513C126.547 94.0795 126.713 94.0474 126.829 93.6032C127.036 92.8013 127.273 92.0042 127.421 91.1899C127.924 88.4409 129.018 85.9214 130.271 83.4464C131.458 81.107 133.084 79.1798 135.221 77.6671C137.385 76.1371 139.678 74.8317 142.049 73.6571C142.262 73.551 142.484 73.4671 142.688 73.3511C142.987 73.1833 143.012 72.7515 142.733 72.564C142.538 72.4332 142.318 72.3369 142.111 72.2209C140.996 71.5843 140.088 70.7305 139.365 69.6645C138.489 68.3763 137.904 66.9648 137.492 65.4719C137.381 65.0672 137.247 64.6674 137.134 64.2948C134.525 64.2751 132.855 63.1202 132.327 61.0079C132.092 60.0677 132.119 59.13 132.492 58.2194C132.956 57.0892 133.849 56.418 134.908 55.9837C134.989 55.6037 134.851 55.3076 134.794 55.0016C134.281 52.2699 134.081 49.5258 134.419 46.7571C134.555 45.6491 134.817 44.5782 135.374 43.6059C136.221 42.1303 137.39 41.0864 139.177 40.9458C139.522 40.9186 139.735 40.7903 139.907 40.4646C140.927 38.5324 142.56 37.6539 144.732 37.644C146.6 37.6366 148.433 37.8883 150.247 38.2758C153.563 38.984 156.865 39.749 160.172 40.5065C161.665 40.8495 163.136 40.8693 164.611 40.4177C165.097 40.2672 165.608 40.1956 166.112 40.0969C166.339 40.0525 166.484 40.2055 166.435 40.4498C166.398 40.6398 166.363 40.8471 166.26 41.0001C165.976 41.4245 165.687 41.8539 165.342 42.229C164.915 42.6904 164.429 43.0976 163.967 43.5294C163.733 43.749 163.772 43.9168 164.093 44.0205C164.621 44.1908 165.154 44.3141 165.719 44.2771C166.237 44.2401 166.751 44.2253 167.279 44.366ZM133.462 60.2775C133.472 60.7044 133.748 61.4373 134.298 62.0394C134.913 62.7081 135.665 63.098 136.608 63.0116C137.03 62.9721 137.129 62.8808 137.163 62.4169C137.2 61.9456 137.22 61.4718 137.262 61.0005C137.272 60.8944 137.307 60.7685 137.462 60.7587C137.598 60.7513 137.687 60.8228 137.731 60.9363C137.993 61.6026 138.101 62.3034 138.192 63.0092C138.427 64.8303 139.002 66.5429 139.885 68.1493C140.771 69.7632 142.047 70.9649 143.782 71.609C146.526 72.6306 149.339 73.1142 152.248 72.4307C154.718 71.8483 156.623 70.5059 157.813 68.2184C158.516 66.8686 158.884 65.425 159.049 63.9247C159.093 63.5298 159.168 63.1473 159.291 62.7723C159.355 62.5773 159.454 62.3651 159.651 62.3404C159.868 62.3133 159.957 62.5329 160.034 62.7229C160.184 63.0931 160.256 63.4756 160.285 63.8728C160.33 64.4231 160.485 64.5589 161.008 64.5218C161.282 64.5021 161.561 64.4676 161.825 64.3985C163.047 64.0801 163.972 62.9697 164.036 61.7655C164.103 60.5588 163.202 59.2287 162.04 58.8166C161.154 58.5032 160.429 58.787 159.982 59.6285C159.908 59.7667 159.851 59.9147 159.772 60.0529C159.676 60.2182 159.432 60.2503 159.256 60.1467C158.842 59.8974 158.706 59.4952 158.644 59.0535C158.469 57.8049 158.309 56.5537 158.119 55.3076C157.931 54.0614 157.773 52.8103 157.391 51.5987C157.156 50.8559 156.688 50.4882 155.925 50.4685C155.451 50.4562 154.98 50.4438 154.506 50.4315C153.403 50.4043 152.295 50.4191 151.195 50.3377C148.322 50.128 145.467 49.7751 142.624 49.3186C142.042 49.2248 141.447 49.2026 140.857 49.1705C140.167 49.1335 139.764 49.4888 139.562 50.1378C139.394 50.6684 139.298 51.2088 139.221 51.7566C138.982 53.4741 138.735 55.1916 138.491 56.9091C138.429 57.3409 138.321 57.7629 138.106 58.1454C137.77 58.7426 137.112 58.8437 136.62 58.3625C136.426 58.1725 136.277 57.9332 136.122 57.7062C135.809 57.2472 135.638 57.1731 135.165 57.3212C134.121 57.6395 133.445 58.6537 133.462 60.2775ZM158.743 101.613C158.768 101.295 158.79 101.1 158.792 100.905C158.827 98.8544 158.859 96.8063 158.891 94.7556C158.894 94.5582 158.889 94.3608 158.889 94.1634C158.891 93.8698 158.738 93.739 158.452 93.739C156.12 93.7365 153.815 93.4231 151.515 93.0826C149.023 92.7124 146.533 92.3176 144.075 91.7426C141.235 91.0788 138.422 90.3213 135.665 89.3613C135.327 89.2429 135.207 89.3046 135.167 89.6278C134.92 91.6612 134.678 93.697 134.444 95.7328C134.402 96.0981 134.491 96.214 134.873 96.3029C135.754 96.5102 136.64 96.7026 137.524 96.9C143.056 98.1363 148.591 99.3776 154.126 100.611C155.626 100.942 157.124 101.26 158.743 101.613ZM153.788 42.4264C153.697 42.4264 153.541 42.414 153.388 42.4313C153.28 42.4436 153.142 42.4856 153.154 42.6287C153.161 42.7324 153.198 42.8878 153.27 42.9224C154.232 43.3912 155.256 43.5516 156.317 43.4875C156.438 43.4801 156.606 43.3369 156.562 43.1543C156.537 43.0556 156.458 42.9224 156.372 42.8903C155.565 42.5695 154.696 42.5843 153.788 42.4264ZM156.058 44.361C156.058 44.3438 156.058 44.3265 156.058 44.3067C155.671 44.3067 155.281 44.2944 154.896 44.3166C154.812 44.3215 154.689 44.4474 154.669 44.5362C154.649 44.6251 154.711 44.7682 154.785 44.8299C154.898 44.9237 155.049 44.9928 155.195 45.0273C155.77 45.1606 156.349 45.1433 156.929 45.0495C157.043 45.0322 157.164 45.0076 157.262 44.9533C157.401 44.8768 157.507 44.7386 157.462 44.5806C157.438 44.4918 157.307 44.3758 157.216 44.3709C156.833 44.3487 156.446 44.361 156.058 44.361ZM159.474 45.3506C159.434 45.3456 159.39 45.3259 159.358 45.3407C158.662 45.6689 157.968 45.9996 157.282 46.3475C157.25 46.3648 157.262 46.5918 157.324 46.6485C157.43 46.7448 157.603 46.8608 157.724 46.8386C158.523 46.693 159.148 46.2537 159.634 45.6146C159.659 45.5825 159.599 45.4789 159.565 45.4147C159.55 45.3851 159.506 45.3728 159.474 45.3506ZM139.17 44.4721C139.13 44.4128 139.1 44.3141 139.051 44.3043C138.439 44.1809 137.455 44.7559 137.274 45.3432C137.257 45.4024 137.307 45.4912 137.344 45.5578C137.413 45.6837 137.553 45.7034 137.637 45.6294C138.081 45.242 138.597 44.9755 139.098 44.6794C139.147 44.6497 139.147 44.5412 139.17 44.4721ZM138.703 46.4067C139.036 46.2784 139.389 46.1451 139.74 46.0045C139.841 45.965 139.962 45.8984 139.902 45.7701C139.858 45.6763 139.757 45.5603 139.668 45.548C139.221 45.4863 138.849 45.6541 138.555 45.9872C138.516 46.0316 138.508 46.1328 138.528 46.1945C138.545 46.2611 138.617 46.3105 138.703 46.4067Z" fill="black"/>
<path d="M233.574 48.5906C232.602 48.4129 231.632 48.2426 230.665 48.0551C225.482 47.0507 220.303 46.0365 215.121 45.0347C208.041 43.6676 200.959 42.3079 193.879 40.9433C192.643 40.7039 191.404 40.4645 190.17 40.2104C189.864 40.1462 189.563 40.045 189.279 39.9192C189.092 39.8353 189 39.628 189.013 39.4257C189.03 39.174 189.178 38.9765 189.418 38.8902C189.684 38.7964 189.963 38.8482 190.234 38.9025C192.398 39.3294 194.563 39.7613 196.729 40.1808C202.143 41.2271 207.56 42.2659 212.974 43.3122C217.771 44.2401 222.566 45.1778 227.363 46.1056C229.258 46.4733 231.156 46.8213 233.051 47.184C233.359 47.2432 233.67 47.3098 233.969 47.4036C234.312 47.5122 234.482 47.8182 234.413 48.1341C234.351 48.4129 234.129 48.5807 233.806 48.593C233.729 48.593 233.65 48.5906 233.574 48.5906Z" fill="black"/>
<path d="M232.594 68.0038C232.386 67.9668 232.154 67.9273 231.922 67.8804C226.01 66.7107 220.097 65.546 214.187 64.3689C206.964 62.9278 199.742 61.4719 192.519 60.0234C191.746 59.8679 190.972 59.7198 190.202 59.5619C190.012 59.5224 189.817 59.478 189.639 59.4015C189.397 59.2979 189.271 58.9697 189.345 58.6933C189.414 58.4391 189.592 58.2762 189.846 58.2614C190.078 58.2491 190.315 58.2837 190.545 58.3281C197.654 59.7346 204.766 61.1412 211.873 62.5552C218.671 63.9075 225.469 65.2671 232.268 66.6268C232.537 66.6811 232.811 66.7379 233.07 66.8267C233.403 66.9402 233.573 67.2709 233.492 67.5719C233.42 67.8409 233.198 67.989 232.86 67.9988C232.779 68.0062 232.7 68.0038 232.594 68.0038Z" fill="black"/>
<path d="M220.431 96.4732C220.221 96.4362 219.908 96.3918 219.599 96.3276C213.045 94.9654 206.491 93.5984 199.935 92.2387C197.427 91.718 194.918 91.2121 192.411 90.6939C192.063 90.6224 191.715 90.5508 191.377 90.4422C191.063 90.341 190.903 89.9783 190.994 89.6748C191.071 89.4206 191.335 89.2133 191.636 89.2577C192.297 89.3589 192.954 89.4897 193.607 89.6254C200.051 90.953 206.491 92.2831 212.934 93.6156C215.249 94.0944 217.559 94.5805 219.871 95.0666C220.179 95.1308 220.49 95.1974 220.784 95.3035C221.115 95.422 221.268 95.76 221.174 96.0636C221.085 96.3399 220.873 96.4757 220.431 96.4732Z" fill="black"/>
<path d="M188.493 108.328C188.799 108.395 189.071 108.449 189.34 108.511C195.558 109.947 201.779 111.383 207.998 112.824C210.609 113.429 213.217 114.038 215.825 114.653C216.092 114.714 216.358 114.801 216.6 114.924C216.832 115.042 216.889 115.282 216.842 115.536C216.793 115.807 216.593 115.955 216.353 115.98C216.126 116.002 215.887 115.946 215.66 115.894C213.355 115.371 211.05 114.84 208.746 114.312C203.025 112.997 197.303 111.679 191.583 110.361C190.623 110.139 189.663 109.915 188.706 109.683C188.479 109.628 188.244 109.562 188.039 109.456C187.817 109.34 187.704 109.125 187.736 108.863C187.765 108.602 188.025 108.362 188.298 108.335C188.375 108.328 188.454 108.328 188.493 108.328Z" fill="black"/>
<path d="M188.343 119.575C188.895 119.694 189.512 119.82 190.127 119.958C195.546 121.165 200.962 122.376 206.381 123.576C209.416 124.247 212.457 124.901 215.494 125.567C215.8 125.634 216.109 125.715 216.393 125.841C216.622 125.942 216.716 126.179 216.701 126.431C216.686 126.692 216.425 126.959 216.146 126.946C215.835 126.934 215.521 126.88 215.218 126.813C211.41 125.979 207.605 125.138 203.798 124.299C198.801 123.198 193.804 122.097 188.807 120.997C188.538 120.938 188.266 120.881 188.005 120.797C187.647 120.681 187.452 120.4 187.484 120.101C187.523 119.763 187.849 119.543 188.343 119.575Z" fill="black"/>
<path d="M217.411 106.364C217.295 106.339 217.066 106.29 216.834 106.238C209.678 104.663 202.521 103.087 195.368 101.512C193.714 101.149 192.058 100.792 190.403 100.429C190.134 100.37 189.862 100.308 189.603 100.219C189.23 100.096 189.058 99.8391 189.095 99.5232C189.137 99.1802 189.453 98.9729 189.897 99.0149C190.092 99.0346 190.282 99.0865 190.474 99.1309C197.667 100.715 204.861 102.302 212.054 103.886C213.67 104.241 215.287 104.587 216.903 104.942C217.172 105.001 217.443 105.063 217.705 105.145C218.149 105.283 218.334 105.554 218.255 105.914C218.191 106.22 217.932 106.381 217.411 106.364Z" fill="black"/>
<path d="M167.28 44.366C166.752 44.2253 166.238 44.2401 165.73 44.2747C165.165 44.3117 164.632 44.1858 164.104 44.018C163.783 43.9144 163.741 43.7466 163.978 43.527C164.439 43.0976 164.925 42.688 165.352 42.2265C165.698 41.8539 165.987 41.4221 166.27 40.9976C166.374 40.8446 166.409 40.6349 166.446 40.4473C166.495 40.203 166.349 40.0476 166.122 40.0945C165.621 40.1932 165.111 40.2672 164.622 40.4153C163.146 40.8693 161.676 40.8471 160.183 40.5041C156.878 39.7465 153.574 38.9815 150.258 38.2733C148.444 37.8859 146.61 37.6342 144.742 37.6416C142.573 37.6515 140.937 38.53 139.918 40.4621C139.745 40.7879 139.533 40.9162 139.188 40.9433C137.401 41.084 136.231 42.1303 135.385 43.6035C134.827 44.5733 134.566 45.6467 134.43 46.7547C134.092 49.5234 134.289 52.2674 134.805 54.9991C134.862 55.3051 135 55.6013 134.919 55.9813C133.86 56.4156 132.967 57.0868 132.503 58.217C132.13 59.1275 132.103 60.0653 132.337 61.0054C132.866 63.1178 134.534 64.2726 137.145 64.2924C137.258 64.665 137.389 65.0648 137.502 65.4694C137.914 66.9624 138.499 68.3714 139.375 69.662C140.101 70.728 141.006 71.5818 142.122 72.2185C142.327 72.3345 142.546 72.4307 142.744 72.5615C143.022 72.7491 142.998 73.1809 142.699 73.3487C142.494 73.4647 142.272 73.551 142.06 73.6547C139.689 74.8293 137.396 76.1322 135.232 77.6646C133.093 79.1773 131.466 81.1046 130.282 83.4439C129.028 85.919 127.935 88.4385 127.432 91.1874C127.284 92.0018 127.047 92.7988 126.84 93.6008C126.724 94.045 126.558 94.0771 126.193 93.7489C126.134 93.6971 126.089 93.628 126.028 93.5811C124.098 92.135 123.481 90.0597 123.269 87.7969C123.232 87.4045 123.244 87.0072 123.244 86.6124C123.242 67.2684 123.242 47.9268 123.244 28.5828C123.244 27.9116 123.264 27.2404 123.269 26.5717C123.286 23.9609 125.023 21.6067 128.3 21.3057C129.085 21.2341 129.875 21.2835 130.659 21.4192C136.333 22.4038 142.006 23.381 147.679 24.3508C152.888 25.2416 158.102 26.1053 163.307 27.0158C164.545 27.233 165.789 27.4526 166.974 27.9165C168.548 28.5335 169.922 29.4193 170.974 30.7618C172.003 32.0746 172.565 33.5626 172.59 35.2406C172.6 35.8328 172.602 36.425 172.602 37.0173C172.602 56.3218 172.602 75.6239 172.602 94.9284C172.602 95.9155 172.583 96.9001 172.573 97.8871C172.56 98.9729 172.291 99.9995 171.783 100.952C171.203 102.033 170.342 102.818 169.165 103.225C168.881 103.323 168.694 103.227 168.629 102.951C168.585 102.758 168.565 102.561 168.533 102.366C168.067 99.6836 167.64 96.9938 167.122 94.3238C166.611 91.6933 166.098 89.0578 165.239 86.5087C164.95 85.6525 164.622 84.8036 164.262 83.9744C163.771 82.8418 163.085 81.8276 162.191 80.9713C161.308 80.1249 160.429 79.2711 159.492 78.4864C157.675 76.9663 155.835 75.4783 153.86 74.1655C153.698 74.0569 153.537 73.9385 153.406 73.7978C153.29 73.672 153.29 73.5091 153.468 73.4178C153.609 73.3462 153.759 73.2944 153.907 73.2401C156.901 72.1297 158.746 69.9483 159.736 66.9723C159.773 66.8612 159.788 66.7403 159.827 66.6292C159.921 66.3751 159.968 66.0765 160.136 65.8815C160.331 65.6521 160.656 65.8273 160.923 65.81C162.648 65.694 164.064 65.0376 164.886 63.4361C165.809 61.6396 165.224 59.4533 163.516 58.1701C162.64 57.8567 162.564 57.2126 162.68 56.3934C162.966 54.3625 163.198 52.3242 163.42 50.2859C163.489 49.6616 163.704 49.2248 164.239 48.8325C165.362 48.0132 166.305 47.0015 166.9 45.7109C167.087 45.284 167.28 44.8595 167.28 44.366Z" fill="#D6E3F2"/>
<path d="M141.192 76.7096C141.409 77.2549 141.554 77.825 141.858 78.3407C142.48 79.3969 143.383 80.1544 144.456 80.6677C146.934 81.8522 149.476 81.8917 151.965 80.7319C153.473 80.0286 154.601 78.8984 155.072 77.2278C155.102 77.1217 155.193 77.0329 155.255 76.9341C155.561 77.9656 155.919 78.9527 156.943 79.5301C157.209 79.6807 157.409 79.9521 157.631 80.1742C158.635 81.1761 159.623 82.1977 160.649 83.1798C161.236 83.7424 161.609 84.4087 161.903 85.1515C162.325 86.2126 162.68 87.2934 162.998 88.389C163.304 89.4452 163.716 90.4717 163.998 91.5328C164.674 94.077 165.293 96.6335 165.952 99.1826C166.061 99.5996 166.236 99.9969 166.399 100.399C166.483 100.606 166.678 100.658 166.885 100.668C167.211 101.443 167.156 102.287 167.329 103.089C167.371 103.286 167.169 103.452 166.949 103.422C166.599 103.375 166.246 103.321 165.9 103.244C164.17 102.859 162.438 102.47 160.711 102.07C160.059 101.919 160.015 101.87 160.035 101.181C160.089 99.4466 160.032 97.7094 160.151 95.9746C160.215 95.0345 160.101 94.0844 160.079 93.1393C160.049 91.8758 160.052 90.6124 160 89.3514C159.948 88.088 159.635 86.8764 159.181 85.5784C158.895 86.2076 158.85 86.748 158.848 87.2885C158.843 88.5124 158.853 89.7339 158.855 90.9579C158.855 91.2737 158.867 91.5896 158.85 91.9055C158.83 92.2781 158.714 92.4089 158.349 92.4187C157.244 92.4508 156.136 92.4483 155.04 92.2904C152.661 91.9474 150.287 91.5797 147.913 91.2046C145.105 90.7629 142.354 90.0745 139.615 89.3243C138.665 89.0652 137.717 88.7962 136.772 88.5124C136.471 88.4236 136.185 88.2829 135.896 88.1595C135.649 88.0534 135.541 87.8486 135.563 87.592C135.62 86.9627 135.684 86.3359 135.755 85.7092C135.856 84.806 135.886 83.9004 135.822 82.9923C135.815 82.8713 135.736 82.7677 135.597 82.7825C135.533 82.7899 135.444 82.8516 135.422 82.9108C135.321 83.1675 135.217 83.4266 135.153 83.6931C134.371 86.9134 133.739 90.1608 133.433 93.4675C133.372 94.1338 133.29 94.8 133.211 95.4638C133.186 95.6761 133.085 95.8784 132.841 95.8142C131.277 95.412 129.665 95.222 128.123 94.7235C128.054 94.7013 127.999 94.6322 127.938 94.5853C127.93 94.5483 127.908 94.5064 127.916 94.4743C128.367 92.6384 128.747 90.7827 129.295 88.9763C130.018 86.5901 131.128 84.3618 132.446 82.2421C132.57 82.0447 132.747 81.8818 132.898 81.7041C133.048 81.677 133.164 81.6079 133.228 81.4648L133.189 81.4549C133.339 81.4278 133.517 81.445 133.636 81.3661C134.647 80.7023 135.652 80.0311 136.649 79.3475C138.105 78.3604 139.568 77.3981 141.192 76.7096Z" fill="#D52B1E"/>
<path d="M133.461 60.2774C133.444 58.6536 134.12 57.6394 135.169 57.3137C135.643 57.1656 135.813 57.2397 136.126 57.6987C136.282 57.9257 136.43 58.165 136.625 58.3551C137.116 58.8363 137.772 58.7351 138.11 58.1379C138.325 57.7554 138.434 57.3335 138.495 56.9016C138.74 55.1841 138.986 53.4666 139.226 51.7491C139.302 51.2013 139.398 50.6609 139.566 50.1303C139.771 49.4838 140.173 49.126 140.862 49.163C141.452 49.1951 142.046 49.2173 142.629 49.3111C145.471 49.7701 148.329 50.1205 151.199 50.3302C152.299 50.4117 153.407 50.3944 154.51 50.424C154.984 50.4363 155.456 50.4462 155.929 50.461C156.692 50.4832 157.163 50.8509 157.395 51.5912C157.778 52.8028 157.933 54.0539 158.123 55.3001C158.311 56.5463 158.473 57.7974 158.649 59.046C158.71 59.4877 158.846 59.8899 159.261 60.1392C159.436 60.2428 159.68 60.2107 159.776 60.0454C159.855 59.9097 159.912 59.7616 159.986 59.621C160.433 58.7795 161.158 58.4957 162.044 58.8091C163.206 59.2212 164.107 60.5513 164.041 61.758C163.974 62.9647 163.051 64.0726 161.83 64.391C161.563 64.4601 161.287 64.4946 161.013 64.5143C160.49 64.5514 160.334 64.4181 160.29 63.8654C160.258 63.4681 160.186 63.0856 160.038 62.7154C159.962 62.5254 159.873 62.3058 159.656 62.3329C159.458 62.3576 159.359 62.5674 159.295 62.7648C159.172 63.1399 159.098 63.5199 159.053 63.9172C158.888 65.4175 158.52 66.8611 157.817 68.2109C156.625 70.4984 154.72 71.8408 152.253 72.4232C149.341 73.1092 146.53 72.6231 143.786 71.6015C142.051 70.9549 140.775 69.7557 139.89 68.1418C139.006 66.5354 138.431 64.8253 138.197 63.0017C138.105 62.2959 137.997 61.5951 137.735 60.9288C137.691 60.8153 137.602 60.7438 137.466 60.7512C137.311 60.761 137.276 60.8844 137.266 60.993C137.224 61.4643 137.205 61.9381 137.168 62.4094C137.133 62.8734 137.034 62.9671 136.612 63.0041C135.667 63.0905 134.915 62.7006 134.303 62.0319C133.748 61.4372 133.471 60.7043 133.461 60.2774ZM154.323 56.0231C154.676 56.0231 155.031 56.0404 155.384 56.0157C155.611 56.0009 155.878 55.9762 155.954 55.6974C156.023 55.4408 155.868 55.2335 155.692 55.078C155.52 54.925 155.317 54.772 155.1 54.7079C153.634 54.2711 152.223 54.4117 150.895 55.1866C150.73 55.2828 150.589 55.4334 150.456 55.5765C150.241 55.8109 150.202 56.1243 150.343 56.3316C150.493 56.5537 150.72 56.6178 150.962 56.5759C151.231 56.529 151.492 56.4402 151.757 56.3637C152.596 56.1268 153.452 56.0133 154.323 56.0231ZM148.26 67.3497C148.867 67.367 149.434 67.2263 149.972 66.9697C150.515 66.7106 150.95 66.3207 151.283 65.8197C151.394 65.6544 151.483 65.4669 151.315 65.2892C151.112 65.0745 150.895 65.1362 150.688 65.2867C150.624 65.3336 150.565 65.383 150.503 65.4323C149.861 65.9505 149.109 66.1183 148.307 66.1405C147.507 66.1628 146.747 65.9949 146.029 65.6519C145.711 65.5014 145.41 65.3139 145.104 65.1411C144.933 65.0449 144.768 64.9388 144.6 64.8376C144.482 64.7661 144.371 64.8006 144.287 64.8894C144.201 64.9832 144.198 65.1017 144.27 65.2053C145.239 66.602 146.626 67.209 148.26 67.3497ZM153.035 58.1675C152.551 58.1823 151.729 58.4093 151.019 58.9646C150.802 59.1348 150.599 59.3224 150.488 59.5864C150.407 59.7789 150.394 59.9738 150.523 60.1441C150.656 60.3169 150.853 60.3711 151.051 60.2946C151.344 60.1836 151.623 60.0331 151.914 59.9171C152.914 59.5173 153.901 59.4729 154.866 60.0355C155.001 60.1145 155.145 60.1836 155.285 60.2502C155.391 60.2996 155.497 60.3539 155.611 60.3859C155.808 60.4402 156.033 60.4427 156.134 60.2502C156.196 60.1342 156.181 59.922 156.112 59.8011C155.525 58.7721 154.666 58.1601 153.035 58.1675ZM143.105 54.202C142.574 54.1971 142.101 54.2168 141.649 54.3772C141.466 54.4413 141.279 54.5228 141.123 54.6363C140.961 54.7547 140.862 54.9373 140.936 55.1496C140.99 55.3026 141.106 55.4259 141.276 55.4383C141.629 55.4654 141.982 55.4802 142.335 55.4901C143.307 55.5148 144.203 55.7393 144.933 56.4352C145.074 56.5709 145.232 56.6943 145.397 56.798C145.738 57.0151 146.073 57.0127 146.266 56.8128C146.466 56.608 146.481 56.2847 146.293 55.9343C146.219 55.7961 146.128 55.6678 146.034 55.5419C145.296 54.5228 144.265 54.1576 143.105 54.202ZM142.219 59.1225C142.621 59.2064 143.009 59.2632 143.384 59.3742C144.065 59.5741 144.687 59.9023 145.286 60.2798C145.654 60.5118 145.992 60.497 146.14 60.2897C146.333 60.0158 146.194 59.7641 146.051 59.5297C145.95 59.3643 145.834 59.2015 145.696 59.0657C145.237 58.6191 144.674 58.3279 144.082 58.1256C143.334 57.8689 142.562 57.7752 141.77 57.9973C141.338 58.1182 140.98 58.3353 140.692 58.6685C140.561 58.819 140.484 59.0041 140.585 59.2064C140.692 59.4186 140.877 59.4285 141.084 59.3791C141.461 59.2903 141.844 59.2064 142.219 59.1225ZM160.366 61.6346C160.376 61.8542 160.401 62.1084 160.665 62.1947C160.879 62.2638 161.025 62.1034 161.139 61.9381C161.183 61.874 161.203 61.7925 161.252 61.7333C161.368 61.5926 161.509 61.5556 161.625 61.7259C161.755 61.9184 161.844 62.1405 161.987 62.3231C162.044 62.3946 162.202 62.4489 162.289 62.4218C162.38 62.3946 162.483 62.2712 162.506 62.1725C162.614 61.679 162.422 61.2472 162.155 60.8548C161.97 60.5834 161.933 60.3711 162.252 60.1885C162.496 60.0479 162.565 59.8431 162.417 59.6012C162.279 59.3717 162.047 59.3323 161.802 59.3816C161.565 59.4285 161.375 59.5617 161.203 59.7271C160.66 60.2453 160.423 60.8894 160.366 61.6346ZM134.389 60.7832C134.431 60.9486 134.443 61.0695 134.49 61.1756C134.554 61.3212 134.665 61.4372 134.836 61.4544C135.016 61.4717 135.134 61.3557 135.211 61.2176C135.285 61.0818 135.314 60.9239 135.374 60.7783C135.524 60.4032 135.527 60.4057 135.961 60.6179C135.996 60.6352 136.025 60.6623 136.06 60.6845C136.195 60.7709 136.348 60.8425 136.489 60.7314C136.664 60.5908 136.667 60.381 136.595 60.191C136.336 59.4902 135.855 58.9942 135.169 58.7079C135.031 58.6512 134.863 58.6487 134.707 58.6462C134.468 58.6413 134.266 59.0016 134.443 59.1521C134.828 59.4778 134.777 59.774 134.554 60.1565C134.438 60.344 134.434 60.5982 134.389 60.7832ZM147.505 60.7215C147.441 60.6426 147.386 60.5143 147.297 60.4847C147.204 60.4526 147.046 60.4772 146.974 60.5439C146.31 61.1312 145.925 61.9134 145.526 62.6809C145.454 62.8166 145.405 62.9795 145.4 63.13C145.397 63.2287 145.466 63.3694 145.55 63.4212C145.632 63.4705 145.77 63.4458 145.879 63.4212C145.948 63.4064 146.014 63.3397 146.064 63.2805C146.621 62.6118 147.075 61.8764 147.446 61.0892C147.492 60.9905 147.483 60.8622 147.505 60.7215ZM147.754 69.1511C148.05 69.1387 148.331 69.1338 148.556 68.9537C148.64 68.8871 148.714 68.7735 148.734 68.6724C148.771 68.4774 148.603 68.3812 148.46 68.3639C147.84 68.2874 147.206 68.3343 146.611 68.0875C146.491 68.0382 146.37 68.09 146.308 68.1862C146.209 68.3392 146.286 68.4873 146.397 68.6057C146.767 69.0006 147.248 69.1387 147.754 69.1511Z" fill="#EED3CA"/>
<path d="M158.743 101.613C157.124 101.26 155.626 100.942 154.133 100.609C148.598 99.3749 143.066 98.1361 137.531 96.8974C136.647 96.7 135.761 96.5075 134.88 96.3002C134.498 96.2089 134.409 96.0954 134.451 95.7302C134.685 93.6943 134.927 91.661 135.174 89.6252C135.213 89.3019 135.332 89.2402 135.672 89.3587C138.429 90.321 141.242 91.0762 144.082 91.74C146.538 92.3149 149.027 92.7097 151.522 93.0799C153.822 93.4204 156.124 93.7338 158.459 93.7363C158.743 93.7363 158.896 93.8671 158.896 94.1607C158.893 94.3581 158.901 94.5556 158.898 94.753C158.866 96.8036 158.834 98.8518 158.799 100.902C158.789 101.1 158.765 101.295 158.743 101.613Z" fill="white"/>
<path d="M143.193 77.625C143.397 77.6694 143.585 77.6645 143.681 77.435C143.911 76.8773 143.923 76.2826 143.945 75.6928C143.955 75.409 144.106 75.2511 144.362 75.2116C144.984 75.1154 145.608 75.0438 146.23 74.9501C147.943 74.6934 149.643 74.3825 151.309 73.9013C151.496 73.847 151.689 73.7927 151.926 73.8964C152.002 74.6934 151.931 75.5152 151.926 76.3369C151.923 76.6528 151.923 76.9661 151.933 77.282C151.941 77.5707 152.059 77.8101 152.259 78.0198C152.375 78.1408 152.594 78.1358 152.639 77.9853C152.851 77.2697 153.061 76.5516 153.12 75.8039C153.132 75.6484 153.127 75.4905 153.268 75.372C153.5 75.4016 153.697 75.525 153.846 75.7175C154.003 75.9199 153.984 76.1592 153.952 76.3961C153.816 77.4251 153.293 78.2345 152.513 78.8909C149.868 81.1168 145.347 80.6627 143.168 77.9532C143.173 77.8422 143.183 77.7336 143.193 77.625Z" fill="#EED3CA"/>
<path d="M166.88 100.673C166.673 100.663 166.478 100.609 166.394 100.404C166.234 100.004 166.056 99.6045 165.947 99.1875C165.288 96.6384 164.669 94.0819 163.993 91.5377C163.712 90.4766 163.3 89.4501 162.994 88.3939C162.675 87.2983 162.32 86.2174 161.898 85.1564C161.604 84.4136 161.229 83.7473 160.644 83.1847C159.62 82.2026 158.633 81.181 157.626 80.1791C157.404 79.957 157.204 79.6855 156.938 79.535C155.914 78.9576 155.556 77.9705 155.25 76.939C155.45 76.7021 155.61 76.907 155.739 77.0131C156.923 77.9878 158.115 78.9551 159.265 79.9669C160.062 80.6677 160.81 81.4228 161.552 82.1804C162.335 82.9774 162.868 83.9349 163.307 84.9589C164.151 86.9207 164.642 88.9862 165.14 91.0516C165.861 94.035 166.28 97.0752 166.841 100.091C166.878 100.276 166.868 100.476 166.88 100.673Z" fill="#FCA6A6"/>
<path d="M141.191 76.7095C139.567 77.4004 138.101 78.3603 136.653 79.3499C135.656 80.0309 134.651 80.7046 133.64 81.3684C133.521 81.4449 133.343 81.4301 133.193 81.4573C133.173 81.1883 133.351 81.0155 133.516 80.8576C134.113 80.2876 134.691 79.6929 135.332 79.1771C136.991 77.8421 138.804 76.7391 140.665 75.7076C141.01 75.5151 141.178 75.6163 141.208 76.0062C141.223 76.2357 141.198 76.4726 141.191 76.7095Z" fill="#FCA6A6"/>
<path d="M153.787 42.4262C154.695 42.5817 155.564 42.5669 156.371 42.8877C156.457 42.9222 156.536 43.053 156.561 43.1517C156.603 43.3343 156.437 43.4774 156.316 43.4848C155.258 43.5515 154.231 43.3911 153.269 42.9197C153.197 42.8852 153.16 42.7297 153.153 42.6261C153.143 42.4805 153.279 42.441 153.387 42.4287C153.54 42.4139 153.696 42.4262 153.787 42.4262Z" fill="white"/>
<path d="M156.059 44.3612C156.446 44.3612 156.833 44.3488 157.218 44.371C157.307 44.376 157.438 44.492 157.465 44.5808C157.51 44.7387 157.403 44.8769 157.265 44.9534C157.167 45.0077 157.046 45.0299 156.932 45.0497C156.352 45.141 155.772 45.1582 155.197 45.0274C155.052 44.9929 154.904 44.9238 154.788 44.83C154.714 44.7683 154.652 44.6252 154.672 44.5364C154.691 44.4475 154.815 44.3217 154.899 44.3168C155.286 44.2945 155.674 44.3069 156.061 44.3069C156.059 44.3266 156.059 44.3439 156.059 44.3612Z" fill="white"/>
<path d="M159.473 45.3507C159.506 45.3704 159.55 45.3852 159.565 45.4148C159.597 45.479 159.659 45.5826 159.634 45.6147C159.145 46.2538 158.521 46.6931 157.724 46.8387C157.603 46.8609 157.43 46.7474 157.324 46.6487C157.265 46.5944 157.25 46.3649 157.282 46.3476C157.968 45.9997 158.664 45.6715 159.357 45.3408C159.387 45.3285 159.434 45.3482 159.473 45.3507Z" fill="white"/>
<path d="M143.191 77.6249C143.181 77.7335 143.172 77.8421 143.162 77.9506C142.35 77.1486 142.323 76.1665 142.52 75.135C142.53 75.0807 142.616 75.0215 142.678 74.9968C142.848 74.9327 142.888 75.0906 142.9 75.1844C143.006 75.9987 143.098 76.8106 143.191 77.6249Z" fill="#EED3CA"/>
<path d="M139.168 44.4719C139.146 44.5435 139.146 44.652 139.097 44.6792C138.596 44.9753 138.077 45.2418 137.636 45.6292C137.552 45.7033 137.411 45.6835 137.342 45.5577C137.308 45.491 137.256 45.4022 137.273 45.343C137.453 44.7557 138.438 44.1807 139.05 44.3041C139.099 44.314 139.131 44.4127 139.168 44.4719Z" fill="white"/>
<path d="M138.704 46.4067C138.617 46.308 138.548 46.2611 138.526 46.197C138.506 46.1353 138.514 46.0341 138.553 45.9897C138.847 45.6565 139.22 45.4887 139.666 45.5504C139.755 45.5628 139.856 45.6788 139.901 45.7725C139.962 45.9008 139.839 45.9675 139.738 46.007C139.39 46.1476 139.034 46.2809 138.704 46.4067Z" fill="white"/>
<path d="M133.233 81.4673C133.169 81.6104 133.05 81.6795 132.902 81.7067C132.971 81.5709 133.048 81.4426 133.233 81.4673Z" fill="#FCA6A6"/>
<path d="M154.323 56.0231C153.452 56.0107 152.596 56.1267 151.759 56.3636C151.495 56.4376 151.233 56.5289 150.964 56.5758C150.723 56.6178 150.496 56.5536 150.345 56.3315C150.204 56.1242 150.241 55.8108 150.459 55.5764C150.592 55.4333 150.733 55.2828 150.898 55.1865C152.228 54.4117 153.637 54.2686 155.103 54.7078C155.317 54.772 155.522 54.925 155.695 55.0779C155.87 55.2334 156.026 55.4407 155.957 55.6973C155.88 55.9762 155.614 55.9984 155.387 56.0157C155.031 56.0428 154.676 56.0231 154.323 56.0231Z" fill="black"/>
<path d="M148.258 67.3498C146.625 67.2067 145.238 66.5996 144.27 65.2054C144.199 65.1017 144.199 64.9833 144.288 64.8895C144.372 64.7982 144.483 64.7661 144.601 64.8377C144.769 64.9389 144.934 65.0425 145.105 65.1412C145.41 65.3164 145.712 65.5015 146.03 65.652C146.748 65.995 147.508 66.1628 148.308 66.1406C149.11 66.1184 149.862 65.9506 150.504 65.4324C150.565 65.3831 150.625 65.3337 150.689 65.2868C150.899 65.1363 151.116 65.0746 151.316 65.2893C151.483 65.4694 151.395 65.6545 151.284 65.8198C150.953 66.3208 150.519 66.7107 149.973 66.9698C149.433 67.2264 148.865 67.3671 148.258 67.3498Z" fill="black"/>
<path d="M153.036 58.1674C154.667 58.16 155.526 58.772 156.116 59.801C156.185 59.9195 156.2 60.1317 156.138 60.2501C156.037 60.4426 155.812 60.4401 155.615 60.3859C155.502 60.3562 155.395 60.3019 155.289 60.2501C155.146 60.1835 155.006 60.1144 154.87 60.0354C153.907 59.4753 152.918 59.5197 151.918 59.917C151.627 60.033 151.348 60.1835 151.055 60.2945C150.857 60.3686 150.66 60.3168 150.527 60.144C150.396 59.9737 150.411 59.7788 150.492 59.5863C150.603 59.3223 150.803 59.1347 151.023 58.9645C151.731 58.4093 152.553 58.1822 153.036 58.1674Z" fill="black"/>
<path d="M143.106 54.2019C144.263 54.1575 145.297 54.5227 146.037 55.5394C146.129 55.6653 146.222 55.796 146.296 55.9318C146.484 56.2822 146.469 56.6054 146.269 56.8103C146.074 57.0101 145.739 57.0126 145.401 56.7954C145.235 56.6893 145.077 56.566 144.937 56.4327C144.209 55.7368 143.31 55.5123 142.338 55.4876C141.985 55.4777 141.632 55.4654 141.28 55.4358C141.109 55.4234 140.993 55.3 140.939 55.1471C140.865 54.9348 140.964 54.7522 141.127 54.6338C141.282 54.5203 141.467 54.4413 141.652 54.3747C142.101 54.2167 142.575 54.197 143.106 54.2019Z" fill="black"/>
<path d="M142.218 59.1226C141.84 59.2065 141.46 59.2904 141.08 59.3792C140.875 59.4286 140.69 59.4212 140.582 59.2065C140.481 59.0042 140.557 58.8191 140.688 58.6686C140.977 58.3354 141.334 58.1183 141.766 57.9974C142.556 57.7753 143.331 57.869 144.078 58.1257C144.671 58.328 145.233 58.6192 145.692 59.0659C145.83 59.2016 145.946 59.3644 146.048 59.5298C146.191 59.7642 146.329 60.0159 146.136 60.2898C145.988 60.4996 145.653 60.5144 145.283 60.2799C144.683 59.8999 144.059 59.5742 143.38 59.3743C143.01 59.2633 142.62 59.2065 142.218 59.1226Z" fill="black"/>
<path d="M160.367 61.6345C160.424 60.8893 160.661 60.2452 161.196 59.7295C161.369 59.5642 161.559 59.4309 161.796 59.384C162.04 59.3347 162.272 59.3742 162.41 59.6036C162.558 59.8455 162.487 60.0503 162.245 60.1909C161.927 60.3736 161.964 60.5858 162.149 60.8572C162.418 61.2496 162.608 61.6814 162.499 62.175C162.477 62.2737 162.373 62.3946 162.282 62.4242C162.198 62.4513 162.038 62.397 161.981 62.3255C161.84 62.1429 161.749 61.9208 161.618 61.7283C161.505 61.558 161.364 61.5951 161.246 61.7357C161.196 61.7949 161.177 61.8764 161.132 61.9405C161.016 62.1034 160.873 62.2663 160.658 62.1972C160.402 62.1083 160.377 61.8566 160.367 61.6345Z" fill="black"/>
<path d="M134.39 60.7833C134.435 60.5983 134.442 60.3441 134.553 60.1516C134.775 59.7691 134.827 59.473 134.442 59.1473C134.265 58.9967 134.469 58.6365 134.706 58.6414C134.862 58.6439 135.027 58.6463 135.168 58.7031C135.854 58.9893 136.335 59.4878 136.594 60.1862C136.666 60.3762 136.663 60.5884 136.488 60.7266C136.347 60.8376 136.194 60.7661 136.059 60.6797C136.026 60.6575 135.994 60.6303 135.96 60.6131C135.528 60.4008 135.525 60.3984 135.372 60.7735C135.313 60.9191 135.284 61.077 135.21 61.2127C135.133 61.3509 135.015 61.4669 134.835 61.4496C134.664 61.4348 134.553 61.3164 134.489 61.1708C134.445 61.0696 134.43 60.9487 134.39 60.7833Z" fill="black"/>
<path d="M147.503 60.7216C147.481 60.8623 147.491 60.9906 147.444 61.0893C147.072 61.8765 146.618 62.6118 146.062 63.2806C146.013 63.3398 145.946 63.404 145.877 63.4212C145.771 63.4459 145.63 63.4706 145.549 63.4212C145.468 63.3719 145.396 63.2288 145.398 63.1301C145.403 62.9771 145.453 62.8167 145.524 62.6809C145.922 61.911 146.307 61.1288 146.973 60.5439C147.047 60.4798 147.202 60.4551 147.296 60.4847C147.385 60.5143 147.439 60.6427 147.503 60.7216Z" fill="black"/>
<path d="M147.756 69.1512C147.247 69.1388 146.769 69.0006 146.396 68.6033C146.285 68.4849 146.209 68.3368 146.307 68.1839C146.369 68.0876 146.49 68.0358 146.611 68.0851C147.205 68.3319 147.842 68.285 148.459 68.3615C148.602 68.3788 148.77 68.475 148.733 68.67C148.713 68.7736 148.639 68.8847 148.555 68.9513C148.333 69.1364 148.052 69.1388 147.756 69.1512Z" fill="black"/>
</svg>
