<svg width="300" height="200" viewBox="0 0 300 200" fill="none" xmlns="http://www.w3.org/2000/svg">
<g clip-path="url(#clip0_2435_66175)">
<path d="M209.96 167.99C207.478 169.489 206.348 169.793 203.372 169.752C199.376 169.681 195.855 168.365 192.919 165.57C190.508 163.272 188.258 160.831 186.19 158.219C181.216 151.931 176.676 145.328 171.944 138.868C167.525 132.833 163.318 126.636 158.748 120.712C157.335 118.87 156.7 118.94 159.272 117.138C162.057 115.194 164.741 113.108 167.233 110.779C167.666 110.374 168.211 110.09 168.706 109.746C168.827 109.503 168.998 109.321 169.271 109.27L169.22 109.291C170.057 108.015 171.288 107.124 172.297 106.01C172.862 105.392 173.256 105.422 173.79 106.04C175.596 108.167 177.443 110.263 179.178 112.43C183.789 118.191 188.349 124.014 192.96 129.785C196.017 133.613 199.013 137.491 202.464 140.995C202.615 141.146 202.716 141.369 202.837 141.552C203.14 141.764 203.432 142.007 203.765 142.179C204.25 142.432 204.845 142.554 204.623 141.592C204.29 140.174 204.936 139.466 205.854 138.737C207.821 137.197 207.982 137.116 209.95 135.577V133.785C209.879 133.744 209.819 133.694 209.758 133.643C209.718 133.643 209.677 133.623 209.627 133.613C209.566 133.623 209.506 133.643 209.445 133.653C207.549 135.02 206.923 135.03 204.804 136.711C202.807 138.311 203.18 138.453 201.303 136.418C201.152 136.256 201.021 136.063 200.87 135.891C197.167 131.304 193.414 126.748 189.762 122.12C185.786 117.067 181.791 112.035 177.584 107.174C176.545 105.969 175.496 104.774 174.446 103.59C173.861 102.942 173.044 102.334 172.277 102.729C171.097 103.337 170.622 102.658 170.047 101.939C169.472 101.23 168.938 100.501 168.322 99.833C167.787 99.2457 167.717 98.6583 168.009 97.9597C168.625 96.4914 168.988 94.9523 169.361 93.403C170.522 88.5527 171.682 83.6923 173.104 78.9028C173.296 78.2547 173.478 77.5864 173.538 76.9181C173.75 74.2753 171.641 72.4323 169.059 72.969C167.656 73.2627 166.546 73.9917 165.871 75.2878C165.487 76.0169 165.154 76.7865 164.801 77.5459C164.105 79.0547 163.429 80.5735 162.723 82.0823C162.672 82.1836 162.491 82.2342 162.359 82.2747C162.168 82.3354 162.097 82.2342 162.067 82.0317C161.916 80.8368 161.684 79.6318 161.613 78.437C161.32 73.2222 161.068 68.0073 160.796 62.7925C160.775 62.3369 160.776 61.8812 160.705 61.4357C160.18 58.4485 157.668 56.96 154.853 57.9726C154.641 58.0435 154.429 58.1245 154.137 58.2156C153.279 57.2334 152.301 56.3828 150.858 56.5955C150.051 56.717 149.657 56.3423 149.244 55.6943C148.336 54.2767 147.024 53.416 145.279 53.5071C144.572 53.5375 144.189 53.3046 143.826 52.7173C142.847 51.1174 141.404 50.2668 139.508 50.2972C138.953 50.2972 138.519 50.1149 138.035 49.8517C135.976 48.7074 134.08 49.1125 132.637 50.9351C132.445 51.168 132.264 51.4212 132.143 51.6946C131.81 52.4439 131.366 52.859 130.448 52.8084C129.096 52.7375 128.208 53.578 127.572 54.6918C126.997 55.7044 126.816 56.7879 126.916 57.9726C127.219 61.5268 127.148 65.0911 127.017 68.6453C127.007 69.0807 127.128 69.5667 126.594 69.9009C126.21 69.7591 125.797 69.5769 125.363 69.4655C123.042 68.8377 121.115 70.0933 120.742 72.483C120.58 73.4753 120.591 74.4676 121.065 75.3688C121.519 76.2599 121.731 77.2219 121.963 78.1737C123.022 82.6696 123.91 87.1959 124.384 91.793C124.889 96.5724 124.767 97.1192 122.437 101.281C122.366 101.413 122.275 101.544 122.225 101.676C121.963 102.314 121.519 102.638 120.812 102.486C119.763 102.253 119.087 102.78 118.522 103.569C117.957 104.369 117.362 105.159 116.787 105.949C111.288 113.543 105.588 120.996 100.412 128.823C99.4437 130.281 98.4853 131.719 97.5167 133.167C97.1838 133.663 96.7903 133.836 96.1749 133.562L91.0799 131.547C91.0193 131.567 90.9588 131.588 90.8983 131.578C90.8579 131.578 90.8175 131.578 90.7772 131.578C90.7469 131.578 90.7167 131.598 90.6763 131.608C90.6763 131.608 90.6561 131.618 90.646 131.628C90.5956 131.669 90.4947 131.709 90.4543 131.729C90.4342 131.74 90.414 131.76 90.3837 131.78C90.3736 131.79 90.3635 131.8 90.3434 131.81C90.2929 131.861 90.2425 131.912 90.192 131.962C90.192 131.962 90.1819 131.983 90.1718 131.993C90.1517 132.013 90.1416 132.043 90.1416 132.043C90.1214 132.074 90.1113 132.104 90.0911 132.134C90.0709 132.205 90.0508 132.266 90.0306 132.337C90.0205 132.377 90.0104 132.428 90.0003 132.469C90.0003 132.509 90.0003 132.61 90.0003 132.509C89.9801 132.408 90.0003 132.519 90.0003 132.56C90.0003 132.61 90.0003 132.651 89.9902 132.702V133.309C91.4532 133.977 92.4419 134.423 93.925 135.041C94.8935 135.456 95.8419 135.901 96.8105 136.337C98.0514 136.185 98.8081 135.344 99.4236 134.372C105.659 124.672 112.6 115.467 119.239 106.05C119.319 105.929 119.42 105.807 119.491 105.676C119.945 104.744 120.722 104.633 121.589 104.886C123.032 105.311 124.515 105.595 125.837 106.354C129.479 107.63 132.546 109.756 134.988 112.764C135.321 113.169 135.563 113.645 135.805 114.11C136.027 114.536 136.027 114.981 135.825 115.417C133.817 119.983 131.81 124.56 129.802 129.127C129.751 129.238 129.59 129.289 129.469 129.37C129.529 129.897 129.348 130.322 128.954 130.686C128.087 132.529 127.29 134.413 126.362 136.215C122.437 143.81 118.452 151.374 114.527 158.968C111.662 164.497 106.9 167.069 100.987 168.031C98.1624 168.486 95.4283 168.122 92.684 167.666C91.6247 167.484 91.4229 167.454 90.3837 167.221V169.023C90.3837 169.023 90.4342 169.094 90.4644 169.134C90.6057 169.226 90.7267 169.317 90.8478 169.428C93.6223 170.076 95.7612 170.501 98.7173 170.4C103.187 170.238 107.364 169.145 111.046 166.492C113.094 165.023 114.739 163.211 115.909 160.912C118.29 156.275 120.823 151.698 123.264 147.09C127.239 139.607 131.124 132.084 134.453 124.287C135.522 121.776 136.602 119.285 137.702 116.794C138.317 115.396 138.519 114.019 137.611 112.693C137.117 111.964 137.197 111.295 137.581 110.587C138.014 109.787 138.468 109.007 138.862 108.187C139.155 107.589 139.609 107.255 140.254 107.174C141.687 106.992 143.069 106.607 144.371 106C144.865 105.767 145.248 105.888 145.601 106.212C146.318 106.881 146.994 107.62 147.73 108.258C149.274 109.584 150.838 111.002 152.946 111.255C154.379 111.427 155.307 112.035 155.882 113.321C156.124 113.857 156.689 114.222 156.77 114.951C156.528 115.174 156.225 115.396 155.993 115.68C154.672 117.351 154.651 118.627 155.933 120.388C157.012 121.857 158.122 123.284 159.181 124.763C165.517 133.623 171.843 142.483 178.179 151.343C181.529 156.021 185.03 160.588 188.944 164.801C190.75 166.745 192.637 168.618 195.008 169.874C199.578 172.284 204.25 172.79 209.001 170.825C209.173 170.593 209.385 170.39 209.637 170.238C209.728 170.025 209.829 169.813 209.98 169.631L209.96 168.041V167.99ZM142.746 104.309C141.677 104.673 140.567 104.947 139.457 105.119C138.63 105.25 138.055 105.584 137.641 106.283C137.379 106.739 137.086 107.184 136.794 107.63C136.279 108.389 136.239 108.379 135.341 107.994C131.81 106.465 128.278 104.957 124.747 103.438C124.011 103.124 123.92 102.962 124.253 102.273C124.778 101.18 125.302 100.086 125.877 99.033C126.513 97.8787 126.775 96.6838 126.765 95.3472C126.745 92.0664 126.19 88.8565 125.625 85.6567C125.07 82.5278 124.283 79.4496 123.567 76.3511C123.395 75.622 123.123 74.9132 122.85 74.2044C122.558 73.4247 122.649 72.726 123.103 72.0476C123.668 71.2172 124.818 71.1464 125.403 71.9767C126.281 73.2323 126.886 74.6195 126.866 76.1992C126.846 77.7889 126.816 79.3787 126.805 80.9685C126.805 81.495 126.805 82.0215 126.886 82.5481C126.906 82.7101 127.138 82.9531 127.31 82.9835C127.491 83.0139 127.734 82.862 127.905 82.7405C128.016 82.6696 128.087 82.4975 128.127 82.3658C128.581 81.009 129.065 79.6622 129.055 78.1838C129.015 71.7438 129.025 65.3139 129.015 58.8738C129.015 58.0435 128.954 57.203 129.237 56.4031C129.419 55.8867 129.661 55.4411 130.155 55.1576C130.68 54.864 131.557 55.2791 131.517 55.8563C131.224 60.099 132.072 64.3013 131.8 68.544C131.719 69.7591 131.88 70.9641 132.183 72.1387C132.233 72.3412 132.455 72.5032 132.708 72.4526C132.839 72.4222 132.98 72.3412 133.071 72.2298C133.454 71.8045 133.454 71.2577 133.484 70.7312C133.666 66.7214 133.918 62.7115 133.333 58.7219C133.071 56.9499 133.434 55.269 133.787 53.5679C133.938 52.7882 134.372 52.1705 135.028 51.7452C135.422 51.4921 135.845 51.3807 136.319 51.5022C136.773 51.6136 137.157 52.0794 137.016 52.4945C136.077 55.2994 136.33 58.1751 136.531 61.0509C136.683 63.1773 136.622 65.2936 136.43 67.4099C136.309 68.787 136.471 70.1338 136.703 71.4704C136.753 71.7539 136.925 72.0273 137.086 72.2703C137.157 72.3716 137.338 72.4222 137.48 72.4425C137.732 72.483 137.903 72.3311 138.004 72.1184C138.075 71.9868 138.085 71.8248 138.136 71.683C138.418 70.6502 138.499 69.5971 138.539 68.5339C138.67 64.8278 138.66 61.1218 138.337 57.4157C138.236 56.2006 138.257 54.9956 138.468 53.7906C138.66 52.6869 139.427 52.2616 140.446 52.6565C141.939 53.2337 142.787 54.9045 142.312 56.5246C142.01 57.5574 141.899 58.6105 141.919 59.6636C142 63.5216 142.101 67.3795 142.212 71.2476C142.222 71.845 142.302 72.4526 142.433 73.0399C142.524 73.4146 142.807 73.7183 143.241 73.6778C143.654 73.6373 143.937 73.3639 144.028 72.969C144.108 72.6045 144.139 72.2298 144.128 71.8552C144.048 67.9972 143.947 64.1393 143.846 60.2712C143.806 58.8941 143.886 57.5473 144.724 56.3626C145.188 55.7044 145.803 55.5424 146.459 56.0284C146.812 56.2917 147.155 56.6157 147.387 56.9904C147.882 57.76 148.134 58.6105 148.215 59.5522C148.85 66.9543 149.112 74.3664 148.558 83.5607C148.487 86.0213 148.386 90.2539 148.245 94.4966C148.204 95.7016 148.134 96.9167 147.972 98.1116C147.539 101.281 145.672 103.306 142.716 104.329L142.746 104.309ZM157.022 110.597C157.073 109.868 156.8 109.645 156.195 109.564C155.6 109.483 155.005 109.311 154.409 109.331C153.138 109.351 152.058 108.865 151.029 108.197C149.506 107.205 148.215 105.939 146.792 104.481C149.304 102.233 150.051 99.4684 150.263 96.5522C150.485 93.5347 150.555 90.4969 150.646 87.4693C150.777 83.6113 150.858 79.7432 150.989 75.8853C151.09 73.1513 150.949 70.4376 150.777 67.7137C150.616 65.0708 150.414 62.428 150.222 59.7851C150.192 59.4105 150.152 59.0156 150.515 58.7523C150.868 58.489 151.594 58.6004 151.968 58.9953C152.563 59.6231 152.926 60.3117 152.805 61.2433C152.291 65.162 152.381 69.1009 152.371 73.0399C152.371 73.7892 152.462 74.5487 152.563 75.298C152.613 75.6625 152.734 76.0372 152.886 76.3713C153.047 76.7358 153.34 76.9586 153.774 76.8979C154.117 76.8574 154.318 76.6042 154.389 76.3106C154.51 75.7941 154.571 75.2676 154.611 74.741C154.914 71.4096 154.813 68.0782 154.661 64.7468C154.601 63.4305 154.894 62.1951 155.156 60.9496C155.277 60.3927 155.63 59.9978 156.185 59.8459C156.851 59.6535 157.386 59.9573 157.779 60.4534C158.051 60.7977 158.294 61.2129 158.394 61.6382C158.586 62.3672 158.738 63.1165 158.768 63.8659C158.959 68.1795 159.091 72.4931 159.292 76.8067C159.413 79.3787 159.504 81.9608 160.382 84.4214C160.564 84.9378 160.443 85.3023 160.059 85.6162C159.474 86.0922 158.879 86.5579 158.283 87.0237C156.437 88.4717 154.682 90.0109 153.239 91.8943C152.644 92.6841 152.089 93.5043 151.756 94.4359C151.604 94.851 151.564 95.3168 151.544 95.7624C151.544 95.9547 151.665 96.2383 151.816 96.3294C151.958 96.4104 152.291 96.3497 152.412 96.2281C152.845 95.8029 153.269 95.3674 153.612 94.8713C155.499 92.1677 157.789 89.8995 160.432 87.9553C160.614 87.8237 160.776 87.6617 160.957 87.5199C162.602 86.163 163.974 84.6239 164.761 82.5582C165.517 80.5837 166.526 78.7104 167.404 76.7763C167.848 75.7941 168.554 75.2068 169.644 75.1258C170.744 75.0347 171.551 75.865 171.319 76.9687C171.076 78.1535 170.754 79.3179 170.451 80.4925C169.26 85.1099 168.07 89.7273 166.869 94.3346C166.314 96.461 165.447 98.4862 164.488 100.461C164.327 100.805 164.125 101.119 163.974 101.473C163.681 102.111 163.691 102.881 163.974 102.942C164.488 103.043 164.801 102.648 165.174 102.405C165.679 102.081 166.193 101.757 166.789 101.372C167.717 102.466 168.655 103.549 169.553 104.653C169.987 105.19 169.947 105.463 169.402 106.02C168.272 107.164 166.97 108.065 165.548 108.784C163.187 109.989 160.705 110.88 158.152 111.559C157.204 111.812 156.911 111.63 156.982 110.597H157.022Z" fill="black"/>
<path d="M181.487 30.9567C181.447 31.6858 181.104 32.0908 180.771 32.506C179.661 33.9337 178.541 35.3513 177.421 36.769C174.718 40.2016 172.014 43.6343 169.3 47.0569C168.876 47.5834 168.422 48.0897 167.928 48.5454C167.635 48.8086 167.231 48.8289 166.878 48.6061C166.444 48.3428 166.283 47.9479 166.364 47.4518C166.495 46.7531 167.009 46.267 167.423 45.7405C170.864 41.356 174.314 36.9816 177.764 32.5971C178.279 31.9491 178.783 31.2807 179.298 30.6428C179.54 30.3492 179.853 30.1568 180.246 30.0859C180.872 29.9846 181.518 30.5112 181.477 30.9466L181.487 30.9567Z" fill="black"/>
<path d="M177.867 61.304C177.211 61.2331 176.808 61.061 176.636 60.5648C176.455 60.0585 176.666 59.6433 177.05 59.3801C177.484 59.0864 177.958 58.8637 178.442 58.651C183.82 56.3221 189.207 54.0032 194.595 51.6743C195.008 51.492 195.432 51.33 195.866 51.2085C196.411 51.0566 196.976 51.33 197.208 51.7958C197.44 52.2413 197.268 52.8691 196.764 53.1628C196.179 53.4969 195.563 53.7906 194.948 54.0539C189.772 56.2816 184.586 58.5093 179.411 60.7369C178.856 60.9698 178.291 61.1521 177.877 61.304H177.867Z" fill="black"/>
<path d="M200.456 81.0595C197.863 80.8874 195.392 80.7254 192.92 80.5431C189.701 80.3102 186.483 80.0773 183.264 79.8343C182.891 79.8039 182.518 79.7837 182.155 79.7027C181.66 79.5913 181.408 79.2267 181.348 78.7407C181.277 78.2547 181.701 77.6775 182.225 77.5965C182.599 77.5357 182.972 77.5458 183.345 77.5661C189.187 77.9813 195.028 78.3964 200.87 78.8116C201.395 78.8521 201.909 78.8622 202.353 79.2369C202.908 79.7128 202.807 80.6545 202.141 80.9279C201.556 81.1709 200.951 81.0595 200.477 81.0696L200.456 81.0595Z" fill="black"/>
<path d="M127.238 44.9306C127.198 45.5585 127.057 45.8926 126.663 46.0647C126.3 46.2268 125.896 46.2673 125.594 46.004C125.311 45.7711 125.069 45.4673 124.898 45.1433C122.254 40.1512 119.621 35.1491 116.988 30.1368C116.846 29.8735 116.746 29.5798 116.695 29.2862C116.614 28.8001 116.786 28.3951 117.23 28.1318C117.694 27.8584 118.118 28.0002 118.451 28.3546C118.703 28.6179 118.915 28.952 119.086 29.2761C121.669 34.1365 124.232 39.007 126.804 43.8776C127.016 44.2826 127.238 44.6876 127.238 44.9306Z" fill="black"/>
<path d="M117.554 60.0281C117.564 60.7065 117.029 61.2027 116.495 61.1824C116.02 61.1723 115.627 60.9698 115.234 60.7369C114.073 60.0382 112.893 59.3497 111.733 58.6611C108.676 56.8587 105.619 55.0664 102.582 53.2539C102.067 52.9501 101.563 52.6058 101.129 52.2008C100.766 51.8565 100.806 51.3705 101.048 50.9452C101.26 50.5807 101.654 50.4591 102.027 50.53C102.451 50.6212 102.884 50.8034 103.268 51.0262C107.566 53.5475 111.844 56.079 116.131 58.6105C116.515 58.8332 116.898 59.0965 117.221 59.4003C117.423 59.6028 117.504 59.9167 117.564 60.0281H117.554Z" fill="black"/>
<path d="M97.1833 72.9183C97.3447 72.9588 97.6373 73.0398 97.9299 73.1209C102.339 74.3866 106.758 75.6523 111.167 76.9282C111.52 77.0294 111.893 77.1408 112.206 77.3231C112.65 77.5762 112.791 78.0116 112.65 78.4977C112.509 78.9939 112.125 79.2369 111.631 79.2268C111.268 79.2268 110.884 79.1457 110.531 79.0445C106.042 77.7788 101.552 76.513 97.0622 75.227C96.7091 75.1258 96.3358 74.984 96.0533 74.7714C95.6699 74.4777 95.5287 74.0423 95.7304 73.5664C95.8919 73.2019 96.1643 72.9588 96.588 72.9285C96.7394 72.9183 96.8907 72.9285 97.1732 72.9285L97.1833 72.9183Z" fill="black"/>
<path d="M132.334 114.08C130.821 111.802 129.086 109.776 126.856 108.187C126.22 107.731 125.726 107.184 125.847 106.313C124.525 105.554 123.032 105.27 121.599 104.845C120.722 104.592 119.955 104.703 119.501 105.635C119.43 105.767 119.339 105.888 119.249 106.01C112.6 115.417 105.659 124.621 99.4236 134.332C98.8081 135.294 98.0514 136.134 96.8105 136.296C96.6995 136.58 96.5986 136.904 96.2657 136.944C95.287 137.116 94.3286 137.137 93.4004 136.661C91.9879 135.932 91.4935 135.729 89.9902 135.233L90.3736 167.19C91.5944 167.474 91.4532 167.413 92.684 167.626C95.4283 168.091 98.1624 168.456 100.987 168C106.9 167.038 111.662 164.466 114.527 158.938C118.462 151.343 122.437 143.779 126.362 136.185C127.3 134.372 128.097 132.499 128.954 130.656C129.419 130.15 129.449 129.37 129.469 129.319L129.449 129.37C129.398 128.692 129.479 128.044 129.691 127.375C130.73 124.013 131.689 120.621 132.758 117.26C133.131 116.085 133.03 115.153 132.324 114.1L132.334 114.08Z" fill="#212492"/>
<path d="M209.96 135.577C208.598 136.63 207.236 137.693 205.874 138.757C204.956 139.476 204.179 140.235 204.643 141.612C204.815 142.118 204.573 142.544 204.088 142.291C203.766 142.119 203.16 141.784 202.847 141.572C201.556 141.764 200.648 140.924 199.881 140.174C197.833 138.18 195.644 136.316 193.929 133.977C192.99 132.712 191.881 131.567 190.841 130.372C188.42 127.588 186.099 124.712 183.759 121.867C182.467 120.297 181.055 118.829 179.733 117.28C178.613 115.963 177.544 114.596 176.434 113.27C175.334 111.933 174.235 110.587 173.074 109.301C172.227 108.349 172.176 108.359 170.966 108.906C170.411 109.159 169.876 109.382 169.251 109.311C169.15 109.554 168.958 109.695 168.706 109.766C168.211 110.111 167.667 110.394 167.233 110.799C164.741 113.118 162.047 115.204 159.273 117.158C156.7 118.961 157.325 118.89 158.748 120.733C163.318 126.666 167.525 132.853 171.944 138.888C176.676 145.359 181.216 151.961 186.19 158.239C188.259 160.851 190.508 163.302 192.92 165.59C195.856 168.385 200.093 170.076 204.088 170.137C206.459 170.177 208.124 169.165 209.95 168V135.587L209.96 135.577Z" fill="#D52B1E"/>
<path d="M148.578 83.5404C148.507 86.001 148.406 90.2336 148.265 94.4764C148.225 95.6814 148.154 96.8965 147.993 98.0913C147.559 101.271 145.692 103.286 142.736 104.309C141.677 104.673 140.557 104.947 139.447 105.119C138.62 105.25 138.045 105.574 137.631 106.283C137.369 106.739 137.076 107.184 136.784 107.63C136.269 108.389 136.239 108.379 135.331 107.994C131.81 106.465 128.268 104.957 124.737 103.438C124.001 103.124 123.91 102.962 124.243 102.273C124.768 101.18 125.282 100.086 125.867 99.033C126.503 97.8787 126.755 96.6838 126.755 95.3472C126.735 92.0664 126.18 88.8565 125.615 85.6567C125.06 82.5278 124.273 79.4496 123.557 76.3511C123.385 75.6119 123.103 74.9132 122.84 74.2044C122.548 73.4247 122.639 72.726 123.093 72.0476C123.658 71.2173 124.808 71.1464 125.393 71.9767C126.271 73.2323 126.876 74.6195 126.856 76.1992C126.836 77.7889 126.806 79.3787 126.795 80.9685C126.795 81.495 126.795 82.0317 126.876 82.5481C126.896 82.7202 127.128 82.9531 127.3 82.9835C127.481 83.0139 127.724 82.862 127.895 82.7405C128.006 82.6696 128.077 82.4975 128.117 82.3658C128.571 80.9988 129.055 79.6622 129.045 78.1839C129.005 71.7438 129.015 65.3139 129.005 58.8738C129.005 58.0435 128.944 57.203 129.217 56.4031C129.388 55.8968 129.641 55.4411 130.135 55.1576C130.66 54.864 131.537 55.269 131.497 55.8563C131.204 60.099 132.052 64.3114 131.779 68.544C131.699 69.7591 131.85 70.9641 132.163 72.1387C132.223 72.3412 132.435 72.5032 132.687 72.4526C132.819 72.4222 132.96 72.3412 133.051 72.2298C133.434 71.8046 133.434 71.2578 133.464 70.7312C133.646 66.7214 133.898 62.7115 133.313 58.7219C133.051 56.9398 133.414 55.269 133.757 53.5679C133.908 52.7882 134.342 52.1705 135.008 51.7452C135.391 51.4921 135.825 51.3807 136.299 51.5022C136.753 51.6136 137.137 52.0794 136.996 52.4945C136.057 55.2994 136.309 58.1751 136.511 61.0509C136.663 63.1773 136.592 65.2936 136.41 67.4099C136.289 68.787 136.451 70.1338 136.683 71.4704C136.733 71.7539 136.905 72.0172 137.066 72.2703C137.137 72.3716 137.318 72.4222 137.46 72.4425C137.712 72.483 137.883 72.3311 137.984 72.1185C138.055 71.9868 138.065 71.8248 138.115 71.683C138.398 70.6603 138.479 69.5971 138.519 68.5339C138.65 64.8177 138.64 61.1116 138.317 57.4157C138.216 56.2006 138.247 54.9956 138.448 53.7906C138.64 52.6869 139.407 52.2616 140.426 52.6565C141.919 53.2337 142.766 54.9146 142.292 56.5246C141.99 57.5575 141.879 58.6105 141.899 59.6636C141.969 63.5216 142.08 67.3795 142.191 71.2476C142.212 71.8451 142.292 72.4526 142.423 73.0399C142.504 73.4146 142.797 73.7183 143.231 73.6778C143.644 73.6373 143.927 73.3741 144.018 72.969C144.098 72.6045 144.129 72.2298 144.118 71.8552C144.028 67.9972 143.937 64.1393 143.836 60.2712C143.806 58.8941 143.876 57.5473 144.714 56.3626C145.178 55.7044 145.793 55.5424 146.449 56.0284C146.802 56.2917 147.145 56.6157 147.377 56.9904C147.872 57.76 148.134 58.6105 148.205 59.5523C148.84 66.9543 149.102 74.3664 148.548 83.5607L148.578 83.5404Z" fill="#EED3CA"/>
<path d="M146.801 104.481C149.313 102.233 150.06 99.4684 150.272 96.5521C150.494 93.5346 150.554 90.4968 150.655 87.4692C150.786 83.6113 150.867 79.7432 150.998 75.8852C151.099 73.1512 150.958 70.4375 150.786 67.7136C150.625 65.0708 150.423 62.4279 150.231 59.7851C150.201 59.4104 150.161 59.0256 150.524 58.7624C150.877 58.4991 151.604 58.6105 151.977 59.0054C152.562 59.6332 152.935 60.3218 152.814 61.2533C152.3 65.172 152.39 69.111 152.38 73.05C152.38 73.7993 152.471 74.5587 152.572 75.308C152.623 75.6726 152.744 76.0371 152.895 76.3814C153.056 76.7459 153.359 76.9687 153.783 76.9079C154.136 76.8674 154.328 76.6143 154.398 76.3206C154.519 75.8042 154.58 75.2777 154.63 74.7511C154.933 71.4197 154.832 68.0883 154.681 64.7569C154.62 63.4405 154.913 62.2052 155.175 60.9597C155.296 60.4028 155.649 60.0078 156.204 59.856C156.87 59.6636 157.405 59.9673 157.798 60.4635C158.071 60.8078 158.313 61.223 158.414 61.6482C158.605 62.3773 158.757 63.1266 158.787 63.8759C158.979 68.1896 159.12 72.5032 159.312 76.8168C159.433 79.3888 159.523 81.9709 160.401 84.4314C160.583 84.9479 160.462 85.3124 160.078 85.6263C159.493 86.1022 158.898 86.568 158.303 87.0338C156.456 88.4818 154.701 90.0209 153.258 91.9043C152.663 92.6942 152.108 93.5042 151.775 94.4459C151.634 94.8611 151.583 95.3269 151.563 95.7724C151.563 95.9648 151.684 96.2483 151.836 96.3395C151.987 96.4205 152.31 96.3597 152.431 96.2382C152.865 95.8129 153.288 95.3775 153.631 94.8813C155.518 92.1879 157.808 89.9095 160.452 87.9654C160.633 87.8337 160.795 87.6717 160.966 87.53C162.611 86.163 163.973 84.6238 164.78 82.5683C165.537 80.5937 166.546 78.7205 167.423 76.7864C167.867 75.8042 168.563 75.2169 169.663 75.1359C170.773 75.0448 171.56 75.8751 171.338 76.9788C171.096 78.1635 170.773 79.328 170.47 80.5026C169.28 85.12 168.089 89.7374 166.889 94.3447C166.334 96.4711 165.466 98.4963 164.508 100.471C164.346 100.815 164.144 101.139 163.993 101.483C163.71 102.121 163.71 102.891 163.993 102.952C164.508 103.053 164.82 102.658 165.194 102.415C165.708 102.091 166.213 101.767 166.808 101.382C167.736 102.476 168.674 103.549 169.582 104.663C170.016 105.2 169.976 105.483 169.431 106.03C168.301 107.174 167.01 108.065 165.577 108.794C163.216 109.999 160.734 110.89 158.182 111.569C157.243 111.822 156.951 111.64 157.021 110.617C157.072 109.898 156.799 109.675 156.194 109.584C155.599 109.503 155.004 109.331 154.408 109.351C153.137 109.371 152.047 108.885 151.028 108.217C149.505 107.225 148.203 105.959 146.791 104.501L146.801 104.481Z" fill="#EED3CA"/>
<path d="M93.9348 135.01C92.6131 134.453 91.3015 133.866 90 133.269V133.593C90 133.593 90 133.643 90 133.663V135.233C91.1602 135.648 92.3003 136.114 93.4101 136.681C94.3383 137.157 95.2968 137.137 96.2754 136.964C96.6185 136.904 96.7093 136.58 96.8202 136.306C95.8618 135.871 94.9033 135.425 93.9348 135.02V135.01Z" fill="#BCBDDE"/>
<path d="M202.867 141.541C201.576 141.734 200.668 140.893 199.901 140.144C197.853 138.149 195.663 136.286 193.948 133.947C193.01 132.681 191.9 131.537 190.861 130.342C188.44 127.558 186.119 124.692 183.778 121.836C182.487 120.267 181.074 118.799 179.753 117.249C178.633 115.933 177.563 114.566 176.464 113.24C175.354 111.903 174.264 110.556 173.104 109.27C172.257 108.318 172.206 108.329 170.985 108.875C170.42 109.129 169.886 109.351 169.25 109.28C170.087 108.005 171.318 107.113 172.327 106C172.882 105.382 173.286 105.412 173.82 106.03C175.626 108.156 177.473 110.242 179.208 112.419C183.819 118.191 188.379 124.003 192.99 129.775C196.047 133.603 199.043 137.491 202.494 140.985C202.645 141.147 202.746 141.359 202.867 141.541Z" fill="#FCA6A6"/>
<path d="M129.458 129.35C129.408 128.671 129.499 128.023 129.701 127.355C130.74 123.983 131.698 120.591 132.768 117.239C133.141 116.065 133.04 115.143 132.334 114.08C130.83 111.802 129.085 109.777 126.855 108.187C126.22 107.731 125.725 107.184 125.846 106.313C129.499 107.589 132.556 109.716 134.997 112.723C135.32 113.128 135.572 113.604 135.815 114.07C136.036 114.495 136.026 114.941 135.835 115.386C133.827 119.953 131.819 124.53 129.811 129.097C129.761 129.208 129.579 129.269 129.458 129.35Z" fill="#BCBDDE"/>
</g>
<defs>
<clipPath id="clip0_2435_66175">
<rect x="90" y="28" width="120" height="144" rx="16" fill="white"/>
</clipPath>
</defs>
</svg>
