<svg width="300" height="200" viewBox="0 0 300 200" fill="none" xmlns="http://www.w3.org/2000/svg">
<path d="M139.225 198.766C139.152 200.816 132.75 199.692 127.25 199.692C121.751 199.692 115.474 199.559 115.407 197.509C115.334 195.257 121.553 194.864 127.051 194.864C132.553 194.864 139.292 196.914 139.225 198.766Z" fill="#CCCCCC"/>
<path d="M108.595 196.252C108.595 196.891 107.02 197.576 105.321 197.576C103.622 197.576 101.98 196.561 101.98 195.921C101.98 195.281 103.589 195.921 105.288 195.921C106.987 195.921 108.595 195.612 108.595 196.252Z" fill="#B2B2B2"/>
<path d="M104.625 192.018C104.625 192.747 102.462 193.737 99.8894 193.737C97.3173 193.737 95.5625 193.34 95.5625 192.614C95.5625 191.887 97.3573 191.687 99.9294 191.687C102.499 191.687 104.625 191.29 104.625 192.018Z" fill="#B2B2B2"/>
<path d="M129.968 94.6086C130.068 94.6419 130.168 94.6774 130.268 94.7085C132.798 95.4549 134.146 97.2163 134.502 99.7574C134.67 100.97 134.764 102.207 134.759 103.431C134.746 108.294 134.673 113.156 134.653 118.018C134.65 118.564 134.777 119.138 134.961 119.655C135.303 120.617 135.355 121.576 135.208 122.574C135.141 123.022 135.155 123.482 135.115 123.935C135.088 124.253 135.026 124.568 134.992 124.886C134.95 125.27 134.815 125.681 134.899 126.037C135.486 128.527 136.123 131.006 136.736 133.489C136.92 134.24 137.28 134.904 137.896 135.353C140.017 136.892 140.73 139.251 141.565 141.536C141.783 142.134 141.738 142.747 141.438 143.353C141.298 143.635 141.363 144.018 141.314 144.351C141.15 145.503 141.063 146.676 140.785 147.8C140.497 148.975 139.699 149.388 138.502 149.202C138.462 149.195 138.415 149.169 138.384 149.182C137.542 149.559 136.707 149.417 135.868 149.164C135.379 149.015 134.879 148.895 134.386 148.766C134.262 148.733 134.124 148.667 134.008 148.691C133.406 148.818 132.869 148.769 132.52 148.189C132.136 147.551 132.072 146.885 132.531 146.261C133.02 145.601 133.3 144.884 133.178 144.066C133.129 143.733 132.982 143.384 132.787 143.109C132.482 142.685 132.098 142.32 131.747 141.932C130.539 140.601 130.383 139.024 130.67 137.34C130.703 137.149 130.752 136.93 130.694 136.756C130.015 134.691 129.317 132.632 128.62 130.572C128.589 130.484 128.54 130.401 128.429 130.175C128.311 131.423 128.211 132.523 128.1 133.622C127.942 135.186 127.787 136.747 127.609 138.309C127.582 138.538 127.516 138.846 127.354 138.962C126.894 139.295 126.954 139.706 127.003 140.175C127.329 143.402 127.66 146.63 127.94 149.862C128.113 151.87 128.235 153.884 128.313 155.899C128.404 158.216 128.444 160.537 128.455 162.856C128.458 163.615 128.32 164.379 128.202 165.132C128.033 166.225 127.363 167.04 126.598 167.771C126.265 168.089 126.21 168.391 126.274 168.833C126.892 173.038 127.489 177.245 128.073 181.454C128.267 182.851 128.409 184.255 128.56 185.657C128.622 186.243 128.722 186.863 127.927 187.105C127.962 187.231 127.969 187.336 128.02 187.409C129.815 190.057 132.054 192.167 135.132 193.26C136.232 193.649 136.96 194.342 137.196 195.559C137.462 196.929 137.269 197.378 135.803 198.189C134.435 198.946 132.896 199.095 131.359 199.202C129.022 199.364 126.734 198.942 124.435 198.66C122.816 198.46 121.199 198.229 119.584 197.982C118.46 197.809 118.102 197.402 118.153 196.283C118.187 195.545 118.344 194.812 118.449 194.077C118.462 193.977 118.502 193.88 118.502 193.782C118.507 192.231 118.504 190.681 118.504 189.075C117.525 189.095 117.3 188.433 117.023 187.678C115.67 184.017 114.877 180.212 114.011 176.319C113.744 176.483 113.531 176.614 113.318 176.743C111.61 177.769 109.908 178.811 108.184 179.81C107.82 180.021 107.372 180.084 106.863 180.243C106.863 180.748 106.861 181.383 106.863 182.018C106.885 186.578 106.914 191.139 106.912 195.699C106.912 195.959 106.698 196.318 106.474 196.461C105.721 196.938 104.884 196.863 104.084 196.574C103.622 196.407 103.471 196.012 103.471 195.505C103.467 192.58 103.431 189.655 103.409 186.727C103.407 186.465 103.409 186.205 103.276 185.925C103.196 186.39 103.082 186.852 103.047 187.32C102.976 188.224 102.938 189.131 102.909 190.039C102.862 191.514 102.149 192.471 100.87 192.742C99.3085 193.073 97.9935 192.553 97.4404 191.174C96.8585 189.724 96.3187 188.224 96.0122 186.698C95.3191 183.224 94.735 179.728 94.213 176.225C94.0841 175.366 94.2485 174.411 94.4951 173.562C94.755 172.662 95.2259 172.467 96.1699 172.571C97.2294 172.689 98.2823 172.867 99.3418 172.976C99.7549 173.018 100.181 172.942 100.712 172.913C100.435 172.049 100.981 171.576 101.527 171.176C102.951 170.13 103.349 168.806 103.3 167.032C103.136 161.083 103.169 155.128 103.127 149.175C103.127 149.035 103.162 148.866 103.1 148.758C102.276 147.272 102.445 145.59 102.172 144.002C101.801 141.838 101.576 139.653 101.261 137.478C101.234 137.296 101.028 137.007 100.883 136.996C100.199 136.938 99.8771 136.599 99.7505 135.661C99.6883 135.206 99.7194 134.735 99.7372 134.271C99.8105 132.316 99.9615 130.361 99.9526 128.407C99.946 127.247 99.675 126.09 99.5617 124.928C99.535 124.653 99.5728 124.233 99.7483 124.102C100.515 123.531 100.455 122.698 100.552 121.919C101.214 116.581 101.81 111.237 102.547 105.91C102.934 103.125 103.42 100.335 104.117 97.6117C105.201 93.3714 108.187 91.1279 112.423 90.4838C113.731 90.2839 114.957 90.7614 116.176 91.2212C116.772 91.4456 117.447 91.4589 118.109 91.57C118.109 91.3634 118.122 91.2967 118.107 91.2901C116.758 90.617 115.997 89.3887 115.228 88.187C114.986 87.8072 114.706 87.6428 114.28 87.5695C112.005 87.1875 110.486 85.3194 110.648 83.0316C110.692 82.4118 110.981 81.8077 111.168 81.1613C109.786 78.1671 108.469 75.0663 109.175 71.5367C109.515 69.8397 110.517 68.5514 111.914 67.6229C112.871 66.9877 113.547 66.3546 113.684 65.0952C113.824 63.8246 114.768 62.9273 115.794 62.1876C117.474 60.9815 119.402 60.3773 121.401 60.0685C124.706 59.5554 128.027 59.1423 131.343 58.7114C133.462 58.4359 135.577 58.1494 137.582 57.3542C137.707 57.3053 137.844 57.2854 138.036 57.2387C138.102 58.9735 137.387 60.4084 136.554 61.9077C137.825 62.0343 138.96 61.6079 140.239 61.4324C140.172 61.7967 140.166 62.1787 140.03 62.5097C139.626 63.4959 139.164 64.4577 138.746 65.4372C138.651 65.6616 138.566 65.9437 138.615 66.1702C139.306 69.3422 139.211 72.4497 137.962 75.4883C137.871 75.7082 137.947 76.0036 137.967 76.2613C138.151 78.5291 138.469 80.7948 138.495 83.0627C138.529 85.8148 137.793 88.4536 136.636 90.9413C136.141 92.0053 135.172 92.6961 134.142 93.2536C132.902 93.9245 131.574 94.3087 130.179 94.4664C130.11 94.4753 130.044 94.4909 129.975 94.5042C129.972 94.5397 129.97 94.5753 129.968 94.6086Z" fill="black"/>
<path d="M121.951 92.2607C123.208 94.0488 125.114 94.2843 127.006 94.5375C126.402 95.6681 125.827 96.7454 125.231 97.8582C126.2 98.2403 126.235 97.3451 126.664 97.0697C126.829 98.187 126.344 99.4131 125.385 99.9306C124.963 100.157 124.372 100.239 123.894 100.159C122.544 99.9306 121.393 99.231 120.718 98.0448C119.916 96.6366 119.287 95.1284 118.601 93.6557C118.543 93.5313 118.572 93.3447 118.612 93.2026C118.721 92.8161 118.85 92.434 118.985 92.0542C119.325 91.1035 119.503 90.2061 118.832 89.2688C118.492 88.7979 118.383 88.1537 118.201 87.5784C118.028 87.0275 117.817 86.4656 118.399 85.9814C118.521 85.8792 118.521 85.6304 118.577 85.4483C118.537 85.3972 118.497 85.3461 118.455 85.295C118.001 85.4971 117.504 85.6393 117.1 85.9147C115.449 87.0453 113.135 86.5944 112.142 84.8929C111.567 83.9067 111.515 82.8827 112.175 81.9254C112.855 80.9414 113.848 80.6371 115.029 80.7082C115.847 80.757 116.267 81.1724 116.524 81.8743C116.635 82.1764 116.769 82.4718 116.877 82.7739C117.06 83.2715 117.315 83.7068 117.897 83.7668C118.548 83.8334 119.176 83.7157 119.567 83.1382C119.856 82.7095 120.12 82.2364 120.276 81.7455C120.873 79.8552 120.958 77.9028 120.78 75.9503C120.611 74.0978 121.358 72.734 123.155 72.172C124.516 71.7455 125.927 71.4745 127.324 71.1636C129.567 70.6638 131.815 70.1884 134.063 69.7087C134.965 69.5154 135.167 69.6487 135.516 70.5238C136.404 72.7584 136.711 75.1262 137.008 77.4763C137.275 79.5887 137.45 81.741 137.366 83.8623C137.273 86.1502 136.826 88.4269 135.622 90.4571C134.929 91.6255 133.821 92.2941 132.588 92.7405C129.301 93.9289 126.047 93.609 122.824 92.4473C122.544 92.3496 122.242 92.3229 121.951 92.2607Z" fill="#EED3CA"/>
<path d="M136.919 58.8514C136.442 59.7532 136.002 60.655 135.496 61.5168C135.067 62.2454 135.205 62.7119 136.066 62.8274C136.775 62.9229 137.506 62.8607 138.225 62.854C138.399 62.8518 138.572 62.8029 138.894 62.7518C138.559 63.436 138.281 64.0224 137.986 64.6021C137.757 65.0508 137.499 65.484 137.27 65.9326C137.057 66.3502 136.957 66.7434 137.561 66.9389C137.65 66.9677 137.755 67.0855 137.77 67.1787C138.121 69.2267 138.141 71.2614 137.488 73.4004C137.335 72.7474 137.23 72.2143 137.084 71.6945C136.935 71.1725 136.753 70.6594 136.566 70.1485C136.109 68.898 135.356 68.4026 134.038 68.6803C130.376 69.4466 126.711 70.2152 123.074 71.097C120.684 71.6767 119.509 73.4848 119.694 75.917C119.827 77.674 119.705 79.4177 119.292 81.1303C119.13 81.8077 118.952 82.5252 118.012 82.6696C117.399 81.6211 117.25 80.1574 115.776 79.7575C114.456 79.4021 113.221 79.6154 112.028 80.4328C111.664 79.5621 111.235 78.7424 110.973 77.8717C110.422 76.0459 109.84 74.2245 110.14 72.2476C110.358 70.8016 111.067 69.6954 112.117 68.7558C112.328 68.5692 112.544 68.3715 112.79 68.2449C113.927 67.6563 114.698 66.9255 114.734 65.4662C114.76 64.4378 115.605 63.6892 116.455 63.0917C117.992 62.01 119.747 61.4658 121.566 61.1792C124.689 60.6839 127.83 60.2952 130.96 59.8332C132.903 59.54 134.838 59.1934 136.919 58.8514Z" fill="black"/>
<path d="M120.198 142.831C120.438 144.2 120.64 145.526 120.904 146.836C121.517 149.855 122.161 152.869 122.815 155.983C117.974 155.328 113.583 156.494 109.352 158.651C109.294 158.549 109.216 158.44 109.165 158.322C108.479 156.754 107.903 155.126 107.073 153.638C106.548 152.698 106.757 151.792 106.648 150.872C107.126 151.134 107.559 151.465 108.05 151.621C108.741 151.838 109.474 151.927 110.189 152.065C110.267 152.081 110.362 152.087 110.429 152.054C111.231 151.65 112.157 151.725 112.954 151.479C114.125 151.119 115.458 150.73 115.973 149.328C116.018 149.211 116.184 149.113 116.317 149.057C117.09 148.731 117.537 148.187 117.408 147.369C117.201 146.061 116.873 144.77 116.571 143.478C116.402 142.758 115.7 142.8 115.138 142.578C115.011 141.17 114.885 139.753 114.751 138.256C115.851 138.364 116.866 138.469 117.881 138.564C120.371 138.8 122.859 139.044 125.351 139.253C125.791 139.291 125.938 139.453 125.971 139.862C126.135 141.81 126.328 143.755 126.493 145.703C126.688 148.033 126.93 150.361 127.033 152.696C127.19 156.301 127.288 159.913 127.326 163.52C127.339 164.735 127.037 165.93 125.911 166.832C125.707 165.794 125.507 164.806 125.316 163.817C124.265 158.4 123.234 152.978 122.153 147.567C121.868 146.148 121.428 144.759 121.058 143.356C120.969 143.029 120.833 142.745 120.198 142.831Z" fill="black"/>
<path d="M129.944 113.031C129.489 115.504 129.023 118.054 128.532 120.721C124.06 120.137 119.622 119.56 115.264 118.991C114.265 116.939 114.54 114.808 114.693 112.687C114.731 112.165 114.771 111.645 114.811 111.103C119.836 111.743 124.853 112.383 129.944 113.031Z" fill="white"/>
<path d="M106.493 128.693C107.664 128.615 108.879 128.493 110.096 128.469C110.96 128.451 111.824 128.567 112.69 128.624C113.092 128.651 113.27 128.831 113.283 129.271C113.346 131.145 113.423 133.018 113.537 134.89C113.683 137.32 113.87 139.746 114.039 142.176C114.043 142.252 114.039 142.329 114.039 142.309C111.891 142.485 109.776 142.656 107.633 142.831C107.484 142.178 107.615 141.443 108.128 140.85C108.514 140.404 108.505 139.968 108.406 139.453C107.739 135.959 107.086 132.463 106.431 128.966C106.424 128.929 106.446 128.886 106.493 128.693Z" fill="#EED3CA"/>
<path d="M128.351 189.541C127.74 190.039 127.173 190.483 126.625 190.952C126.354 191.183 126.101 191.487 126.425 191.825C126.734 192.149 127.047 191.934 127.329 191.705C127.869 191.265 128.413 190.83 128.977 190.377C129.295 190.719 129.539 190.981 129.819 191.281C129.339 191.783 128.864 192.271 128.397 192.769C128.153 193.029 127.909 193.335 128.253 193.653C128.579 193.955 128.89 193.742 129.144 193.477C129.617 192.984 130.085 192.482 130.534 192.007C131.789 192.756 133.026 193.495 134.221 194.206C134.188 194.615 134.108 195.074 134.126 195.532C134.146 196.021 133.893 196.158 133.486 196.223C131.745 196.492 130.001 196.572 128.246 196.343C127.647 196.265 127.042 196.172 126.443 196.176C125.483 196.183 124.643 195.892 123.806 195.445C122.529 194.764 121.205 194.168 119.917 193.509C119.766 193.431 119.608 193.198 119.601 193.029C119.546 191.903 119.521 190.772 119.508 189.644C119.501 189.017 119.737 188.842 120.281 189.148C120.763 189.419 121.194 189.799 121.609 190.172C122.578 191.05 123.18 190.987 123.788 189.824C124.364 188.72 125.114 187.913 126.434 187.796C126.805 187.762 127.08 187.789 127.309 188.142C127.622 188.635 128.002 189.082 128.351 189.541Z" fill="#3E3E3E"/>
<path d="M110.226 164.231C111.774 167.391 112.66 170.586 113.416 173.82C113.755 175.268 113.753 175.281 112.505 176.039C110.906 177.012 109.295 177.969 107.689 178.933C107.292 179.173 106.952 179.028 106.843 178.564C106.812 178.429 106.825 178.282 106.823 178.142C106.805 174.733 106.785 171.321 106.79 167.911C106.79 167.709 106.959 167.465 107.118 167.311C107.945 166.514 108.798 165.743 109.631 164.95C109.835 164.759 109.993 164.517 110.226 164.231Z" fill="black"/>
<path d="M105.543 148.136C105.543 148.278 105.543 148.415 105.543 148.553C105.63 163.644 105.716 178.737 105.803 193.828C105.805 194.15 105.816 194.475 105.821 194.797C105.832 195.739 105.587 195.921 104.554 195.645C104.554 194.286 104.563 192.9 104.552 191.514C104.532 188.609 104.499 185.703 104.477 182.798C104.395 171.727 104.315 160.654 104.235 149.584C104.228 148.413 104.346 148.289 105.543 148.136Z" fill="#CCCCCC"/>
<path d="M103.326 178.311C103.326 179.475 103.326 180.614 103.326 181.807C102.708 181.738 102.131 181.667 101.556 181.612C101.242 181.581 100.907 181.581 100.845 181.983C100.778 182.403 101.087 182.547 101.429 182.602C101.94 182.687 102.453 182.749 103.017 182.829C102.833 183.384 102.671 183.875 102.482 184.442C101.995 184.373 101.502 184.306 101.011 184.233C100.68 184.182 100.383 184.213 100.312 184.604C100.241 184.99 100.512 185.146 100.831 185.215C101.262 185.306 101.7 185.375 102.135 185.452C102.022 186.863 101.913 188.278 101.789 189.69C101.78 189.779 101.667 189.877 101.578 189.937C100.942 190.377 99.7252 190.272 99.4831 189.246C99.0966 187.602 98.6391 185.974 98.3237 184.317C97.9927 182.578 97.8239 180.81 97.5307 179.064C97.3774 178.149 97.4907 177.307 97.8816 176.481C98.0949 176.025 98.2881 175.559 98.4925 175.101C98.8723 174.255 100.012 173.682 100.854 174C101.036 174.069 101.078 174.517 101.171 174.795C101.182 174.826 101.102 174.888 101.067 174.935C99.9407 176.412 100.42 177.385 102.155 178.022C102.511 178.151 102.895 178.207 103.326 178.311Z" fill="#3E3E3E"/>
<path d="M105.762 146.892C105.058 147.083 104.423 147.254 103.743 147.438C103.546 145.994 103.344 144.524 103.141 143.053C102.633 139.344 102.122 135.637 101.618 131.927C101.311 129.675 101.007 127.42 100.711 125.166C100.638 124.608 101.06 124.202 101.742 124.126C102.391 124.055 102.677 124.266 102.768 124.917C103.417 129.622 104.059 134.328 104.707 139.033C105.054 141.545 105.411 144.055 105.76 146.565C105.776 146.679 105.762 146.798 105.762 146.892Z" fill="#CCCCCC"/>
<path d="M113.654 162.003C112.828 162.407 112.004 162.811 111.129 163.24C110.693 162.136 110.234 160.974 109.723 159.679C110.727 159.237 111.695 158.757 112.701 158.375C115.338 157.376 118.043 156.729 120.895 156.814C122.875 156.872 122.899 156.856 123.254 158.797C123.388 159.528 123.523 160.261 123.645 160.93C121.675 160.93 119.718 160.93 117.746 160.93C116.795 158.968 116.018 158.433 114.794 158.915C113.65 159.364 113.243 160.47 113.654 162.003Z" fill="white"/>
<path d="M114.556 128.071C111.14 127.005 107.779 127.238 104.354 128.14C104.241 127.369 104.09 126.545 104.028 125.715C104.017 125.555 104.328 125.273 104.539 125.208C106.362 124.646 108.237 124.375 110.145 124.422C110.869 124.44 111.595 124.508 112.313 124.604C113.825 124.808 114.201 125.19 114.427 126.707C114.496 127.167 114.516 127.629 114.556 128.071Z" fill="#735254"/>
<path d="M106.891 146.636C106.831 146.23 106.777 145.877 106.729 145.524C106.68 145.166 106.633 144.806 106.582 144.415C109.321 143.584 112.091 143.245 114.934 143.609C115.442 143.673 115.72 143.893 115.805 144.424C115.929 145.195 116.12 145.955 116.289 146.734C113.172 146.188 110.056 146.214 106.891 146.636Z" fill="#735254"/>
<path d="M120.707 168.085C122.018 168.085 123.161 168.073 124.303 168.089C124.814 168.096 125.107 168.3 125.194 168.895C125.432 170.546 125.754 172.18 126.051 173.869C124.579 173.869 123.164 173.869 121.691 173.869C121.564 173.14 121.307 172.385 121.64 171.499C122.095 170.281 121.742 169.131 120.707 168.085Z" fill="black"/>
<path d="M120.689 170.748C120.627 171.372 120.398 172.105 119.574 172.474C118.875 172.787 117.933 172.585 117.397 172.04C116.842 171.476 116.689 170.543 117.089 169.739C117.284 169.346 117.298 169.031 117.146 168.606C116.278 166.165 115.454 163.706 114.616 161.252C114.439 160.734 114.634 160.337 115.05 160.048C115.605 159.664 116.189 159.964 116.485 160.812C116.911 162.047 117.297 163.296 117.706 164.537C118.095 165.721 118.468 166.909 118.901 168.078C119.001 168.347 119.272 168.611 119.534 168.749C120.349 169.182 120.692 169.664 120.689 170.748Z" fill="#CCCCCC"/>
<path d="M127.474 186.145C126.518 186.372 125.677 186.587 124.828 186.772C122.958 187.178 121.09 187.589 119.213 187.953C118.358 188.12 118.302 188.04 118.067 187.243C117.94 186.818 117.811 186.398 117.66 185.905C120.821 185.123 124.011 184.675 127.305 184.535C127.371 185.163 127.431 185.73 127.474 186.145Z" fill="white"/>
<path d="M116.648 182.98C117.635 182.656 118.581 182.345 119.5 182.043C120.367 183.262 121.089 183.644 121.964 183.389C122.792 183.146 123.183 182.565 123.272 181.298C124.283 181.298 125.302 181.292 126.324 181.303C126.793 181.307 127.037 181.503 127.013 182.043C126.99 182.518 127.099 183 127.142 183.373C123.839 183.808 120.578 184.239 117.226 184.684C117.07 184.226 116.873 183.646 116.648 182.98Z" fill="white"/>
<path d="M109.967 163.235C108.906 164.237 107.897 165.186 106.758 166.261C106.758 162.574 106.758 159.055 106.758 155.343C107.866 158.069 108.917 160.654 109.967 163.235Z" fill="white"/>
<path d="M101.361 191.216C100.175 192.123 98.8062 191.785 98.3353 190.497C97.8045 189.044 97.2936 187.565 96.9937 186.054C96.3229 182.66 95.7876 179.237 95.2034 175.825C95.1656 175.608 95.1568 175.383 95.1612 175.164C95.1834 173.793 95.4366 173.555 96.7738 173.64C97.1514 173.664 97.5313 173.7 97.9866 173.735C97.8111 174.111 97.689 174.422 97.529 174.713C96.6072 176.383 96.163 178.107 96.5561 180.046C97.1137 182.805 97.5446 185.59 98.031 188.364C98.0443 188.444 98.0732 188.52 98.0932 188.598C98.5064 190.232 99.1794 191.567 101.361 191.216Z" fill="#CCCCCC"/>
<path d="M119.4 194.386C120.999 195.201 122.458 195.963 123.935 196.683C124.357 196.887 124.833 197.045 125.297 197.085C127.263 197.256 129.231 197.422 131.201 197.491C132.138 197.525 133.087 197.365 134.024 197.24C134.83 197.131 135.241 196.489 135.215 195.543C135.208 195.292 135.27 195.041 135.301 194.79C135.39 194.777 135.477 194.764 135.566 194.75C135.739 195.221 135.985 195.681 136.065 196.167C136.152 196.703 135.794 197.025 135.31 197.271C133.571 198.153 131.699 198.306 129.83 198.131C126.605 197.829 123.393 197.378 120.177 196.976C119.237 196.858 119.229 196.834 119.257 195.899C119.273 195.441 119.342 194.986 119.4 194.386Z" fill="#CCCCCC"/>
<path d="M108.255 147.491C110.319 147.491 112.367 147.491 114.406 147.491C114.888 148.889 114.57 149.719 113.473 149.961C113.569 148.86 113.504 148.602 112.973 148.189C112.813 148.973 112.66 149.73 112.489 150.566C112.174 150.463 111.974 150.399 111.785 150.339C111.834 149.666 112.027 149.02 111.649 148.442C111.581 148.435 111.512 148.429 111.443 148.422C111.381 148.673 111.33 148.929 111.252 149.173C111.094 149.664 110.952 150.164 110.748 150.637C110.614 150.945 110.35 151.088 110.052 150.879C110.137 150.204 110.234 149.559 110.281 148.913C110.292 148.762 110.132 148.6 110.052 148.442C109.926 148.575 109.75 148.689 109.686 148.846C109.53 149.233 109.461 149.659 109.29 150.039C108.995 150.701 108.649 150.834 108.06 150.428C107.642 150.141 107.318 149.71 106.989 149.313C106.892 149.195 106.854 148.951 106.907 148.811C106.963 148.66 107.16 148.56 107.294 148.438C107.396 148.569 107.549 148.684 107.589 148.833C107.638 149.02 107.545 149.248 107.605 149.428C107.665 149.606 107.838 149.744 107.96 149.899C108.091 149.75 108.329 149.604 108.333 149.451C108.353 148.855 108.295 148.256 108.255 147.491Z" fill="#EED3CA"/>
<path d="M115.055 175.83C114.613 174.073 114.164 172.318 113.74 170.557C113.704 170.408 113.773 170.121 113.88 170.066C114.566 169.71 115.277 169.404 115.943 169.095C115.903 169.897 115.79 170.61 115.852 171.305C115.934 172.227 116.474 172.953 117.312 173.32C117.92 173.587 118 174.006 118.025 174.473C117.012 174.935 116.048 175.377 115.055 175.83Z" fill="black"/>
<path d="M119.043 173.784C119.543 173.631 119.963 173.5 120.442 173.353C120.676 174.522 120.918 175.697 121.142 176.876C121.42 178.32 121.691 179.764 121.946 181.21C122.019 181.625 122.23 182.129 121.604 182.323C121.186 182.451 120.711 182.056 120.578 181.43C120.2 179.657 119.854 177.878 119.498 176.103C119.345 175.335 119.196 174.568 119.043 173.784Z" fill="#CCCCCC"/>
<path d="M118.708 163.998C118.513 163.393 118.304 162.749 118.066 162.023C118.544 161.974 118.957 161.89 119.368 161.896C120.534 161.914 121.703 161.932 122.864 162.018C123.83 162.09 123.884 162.181 124.05 163.093C124.104 163.384 124.144 163.678 124.195 164C122.371 163.998 120.587 163.998 118.708 163.998Z" fill="white"/>
<path d="M124.812 167.072C123.126 167.072 121.487 167.072 119.735 167.072C119.557 166.547 119.337 165.89 119.086 165.144C119.646 165.086 120.154 164.995 120.663 164.99C121.765 164.979 122.869 165.017 123.97 165.03C124.35 165.035 124.479 165.266 124.535 165.597C124.612 166.072 124.71 166.543 124.812 167.072Z" fill="white"/>
<path d="M121.906 175.057C123.25 174.824 124.538 174.684 125.833 174.961C125.993 174.995 126.202 175.208 126.231 175.368C126.351 176.014 126.409 176.674 126.489 177.316C125.116 177.316 123.761 177.316 122.353 177.316C122.202 176.538 122.06 175.823 121.906 175.057Z" fill="white"/>
<path d="M102.14 118.047C102.611 118.014 102.727 118.176 102.796 118.556C102.976 119.517 103.235 120.466 103.493 121.412C103.553 121.634 103.677 121.907 103.857 122.018C104.644 122.5 104.435 123.287 104.575 123.998C104.313 124.086 104.088 124.162 103.822 124.253C103.398 123.311 102.662 122.898 101.527 123.027C101.736 121.332 101.936 119.697 102.14 118.047Z" fill="#212492"/>
<path d="M122.52 178.207C123.826 178.28 125.023 178.327 126.216 178.433C126.389 178.449 126.624 178.733 126.675 178.933C126.784 179.355 126.789 179.806 126.84 180.286C125.545 180.286 124.254 180.286 122.928 180.286C122.806 179.662 122.684 179.037 122.52 178.207Z" fill="white"/>
<path d="M115.749 178.902C115.7 178.704 115.651 178.509 115.607 178.315C115.289 176.927 115.285 176.914 116.562 176.243C117.073 175.974 117.617 175.77 118.237 175.497C118.401 176.312 118.55 177.043 118.695 177.749C117.702 178.138 116.753 178.509 115.749 178.902Z" fill="white"/>
<path d="M119.358 181.032C118.362 181.339 117.423 181.627 116.417 181.938C116.29 181.37 116.148 180.792 116.048 180.206C116.032 180.112 116.197 179.937 116.314 179.881C117.13 179.497 117.956 179.135 118.878 178.722C119.053 179.559 119.202 180.275 119.358 181.032Z" fill="white"/>
<path d="M106.585 136.357C106.222 136.332 105.867 136.31 105.461 136.283C105.17 134.166 104.881 132.07 104.59 129.962C105.198 130.019 105.554 130.199 105.649 130.868C105.911 132.687 106.262 134.495 106.585 136.357Z" fill="#212492"/>
<path d="M115.806 168.082C114.942 168.429 114.16 168.742 113.352 169.066C113.128 168.416 112.892 167.738 112.621 166.954C113.387 166.632 114.158 166.308 115.051 165.934C115.313 166.681 115.56 167.38 115.806 168.082Z" fill="white"/>
<path d="M106.415 143.231C106.144 141.281 105.873 139.328 105.602 137.383C105.657 137.356 105.693 137.325 105.728 137.325C106.785 137.325 106.792 137.325 107.054 138.325C107.176 138.791 107.281 139.262 107.37 139.735C107.396 139.875 107.392 140.068 107.314 140.175C106.683 141.052 106.423 142.012 106.601 143.085C106.608 143.127 106.559 143.178 106.537 143.222C106.497 143.227 106.457 143.229 106.415 143.231Z" fill="black"/>
<path d="M111.504 164.266C112.332 163.826 113.137 163.402 114.018 162.933C114.274 163.669 114.5 164.32 114.731 164.981C113.883 165.317 113.07 165.639 112.204 165.983C111.984 165.443 111.759 164.895 111.504 164.266Z" fill="white"/>
<path d="M103.301 170.823C103.301 172.647 103.301 174.286 103.301 176.014C102.548 174.97 102.022 173.902 101.733 172.727C101.7 172.591 101.8 172.376 101.904 172.258C102.311 171.814 102.744 171.392 103.301 170.823Z" fill="black"/>
<path d="M103.382 108.149C103.215 111.103 103.777 114.106 102.829 117.043C102.398 117.116 102.256 116.95 102.307 116.521C102.598 114.084 102.873 111.645 103.164 109.209C103.204 108.851 103.306 108.502 103.382 108.149Z" fill="white"/>
<path d="M117.799 89.7151C117.488 89.3997 117.157 89.0998 116.873 88.76C116.602 88.4379 116.38 88.0736 116.138 87.7271C116.115 87.696 116.109 87.6538 116.082 87.5783C116.375 87.4672 116.668 87.354 117.011 87.2229C117.273 88.0647 117.53 88.8933 117.788 89.724L117.799 89.7151Z" fill="black"/>
<path d="M121.555 188.704C122.225 188.557 122.792 188.435 123.441 188.295C123.161 188.791 122.921 189.217 122.645 189.708C122.259 189.353 121.93 189.051 121.555 188.704Z" fill="black"/>
<path d="M102.627 177.005C101.579 176.794 101.359 176.481 101.766 175.721C102.052 176.15 102.321 176.547 102.627 177.005Z" fill="#EED3CA"/>
<path d="M117.785 89.7263C117.812 89.744 117.841 89.7618 117.867 89.7796C117.852 89.7885 117.834 89.7974 117.818 89.8062C117.812 89.7774 117.805 89.7463 117.798 89.7174C117.798 89.7152 117.785 89.7263 117.785 89.7263Z" fill="white"/>
<path d="M105.477 115.746C106.301 115.926 107.003 116.174 107.718 116.212C108.82 116.272 109.93 116.188 111.036 116.168C111.196 116.166 111.367 116.148 111.509 116.203C111.64 116.254 111.843 116.408 111.829 116.485C111.805 116.625 111.669 116.803 111.536 116.856C111.281 116.959 110.996 117.01 110.719 117.041C109.288 117.203 107.864 117.19 106.485 116.721C106.172 116.614 105.868 116.432 105.614 116.219C105.494 116.121 105.505 115.864 105.477 115.746Z" fill="black"/>
<path d="M106.039 119.513C108.154 119.533 110.004 118.658 111.921 118.078C111.963 118.149 112.005 118.22 112.047 118.291C111.872 118.476 111.725 118.709 111.514 118.833C110.064 119.689 108.465 120.035 106.801 120.091C106.486 120.104 106.037 120.126 106.039 119.513Z" fill="black"/>
<path d="M117.484 99.8707C116.869 98.167 116.256 96.4633 115.641 94.7596C115.729 94.7285 115.816 94.6974 115.903 94.6641C116.756 96.2812 117.373 97.9849 117.709 99.7885C117.635 99.8151 117.56 99.844 117.484 99.8707Z" fill="black"/>
<path d="M134.754 85.0373C134.749 86.8521 133.739 88.3536 132.264 88.7623C130.442 89.2688 128.534 88.0404 128.092 86.0746C128.066 85.9569 128.046 85.8392 128.021 85.7215C127.772 84.5509 127.892 84.3954 129.076 84.3976C130.671 84.3998 132.239 84.2177 133.781 83.789C134.478 83.5958 134.703 83.7757 134.752 84.4954C134.765 84.6753 134.754 84.8574 134.754 85.0373Z" fill="black"/>
<path d="M115.069 83.5845C114.922 83.9422 114.822 84.2887 114.642 84.5841C114.529 84.7729 114.296 84.8906 114.116 85.0395C114.036 84.8395 113.874 84.6308 113.894 84.4419C113.943 83.9755 114.076 83.5157 114.183 83.0137C113.909 82.9137 113.625 82.8271 113.356 82.7005C113.245 82.6472 113.085 82.4739 113.108 82.4162C113.156 82.2896 113.29 82.1474 113.419 82.1074C114.296 81.8387 116.175 82.7383 116.51 83.589C116.557 83.7089 116.533 83.9266 116.451 84.011C116.364 84.0999 116.142 84.1443 116.024 84.0976C115.731 83.9799 115.462 83.8 115.069 83.5845Z" fill="black"/>
<path d="M124.219 78.8868C124.099 78.8135 123.925 78.7069 123.75 78.6003C123.881 78.4226 123.977 78.1738 124.152 78.0783C125.212 77.5119 126.284 76.9721 127.366 76.4501C127.522 76.3746 127.739 76.4346 127.93 76.4301C127.926 76.579 127.986 76.7811 127.91 76.8677C126.957 77.9628 125.778 78.6647 124.219 78.8868Z" fill="black"/>
<path d="M135.545 76.4745C134.827 76.1569 134.201 75.9081 133.605 75.5949C133.468 75.5216 133.441 75.2351 133.363 75.0463C133.557 75.0041 133.763 74.8975 133.941 74.9308C134.492 75.033 135.034 75.1907 135.578 75.3284C135.891 75.4061 136.391 75.3462 136.32 75.8126C136.286 76.0503 135.855 76.2258 135.545 76.4745Z" fill="black"/>
<path d="M134.387 81.7344C134.316 81.8344 134.256 82.0009 134.151 82.0365C134.023 82.0787 133.8 82.0676 133.714 81.9832C133.136 81.4234 132.574 80.8459 132.032 80.2528C131.952 80.1662 131.968 79.9419 132.019 79.813C132.043 79.7531 132.312 79.702 132.374 79.7553C133.025 80.315 133.658 80.8948 134.289 81.4767C134.342 81.5234 134.347 81.6233 134.387 81.7344Z" fill="black"/>
<path d="M131.876 90.4037C131.66 90.3726 131.494 90.3748 131.349 90.3171C131.256 90.2815 131.138 90.1594 131.141 90.0794C131.143 90.0017 131.274 89.8839 131.367 89.8595C131.731 89.7618 132.098 89.6685 132.471 89.624C132.618 89.6063 132.782 89.7129 132.938 89.7618C132.838 89.9106 132.769 90.126 132.629 90.1949C132.385 90.3148 132.098 90.3459 131.876 90.4037Z" fill="black"/>
<path d="M120.229 170.563C120.231 171.381 119.647 171.976 118.83 171.987C118.014 171.998 117.41 171.401 117.41 170.588C117.412 169.768 118.008 169.155 118.805 169.153C119.609 169.153 120.227 169.766 120.229 170.563Z" fill="black"/>
<path d="M116.218 161.017C115.851 161.261 115.647 161.499 115.445 161.499C115.296 161.499 115.018 161.17 115.036 161.014C115.054 160.839 115.323 160.588 115.511 160.559C115.671 160.535 115.871 160.779 116.218 161.017Z" fill="black"/>
<path d="M122.013 181.252C121.699 181.501 121.515 181.761 121.348 181.747C121.166 181.734 120.844 181.443 120.864 181.325C120.902 181.119 121.128 180.861 121.328 180.799C121.462 180.759 121.688 181.025 122.013 181.252Z" fill="black"/>
<path d="M132.75 87.7428C131.136 88.7201 129.381 87.9471 128.75 85.9947C130.183 86.3501 131.949 85.8947 132.75 87.7428Z" fill="#EF6261"/>
<path d="M133.774 84.382C133.536 84.6219 133.341 84.9506 133.052 85.0861C131.637 85.7503 130.129 85.6503 128.596 85.5526C128.579 85.3394 128.563 85.1506 128.543 84.9284C130.358 85.1372 132.09 84.9529 133.783 84.3976L133.774 84.382Z" fill="white"/>
<path d="M133.474 87.3164C133.016 86.8322 132.676 86.4723 132.363 86.1392C132.97 85.8171 133.596 85.4839 134.356 85.0797C134.054 85.8438 133.776 86.5479 133.474 87.3164Z" fill="black"/>
<path d="M133.785 84.3976C133.802 84.3709 133.82 84.3443 133.838 84.3198C133.845 84.3443 133.851 84.3687 133.856 84.3931C133.829 84.3887 133.8 84.3865 133.773 84.382C133.776 84.382 133.785 84.3976 133.785 84.3976Z" fill="white"/>
<path d="M127.895 80.5771C127.753 80.0574 127.36 79.6065 127.047 79.0734C127.06 79.06 127.109 79.0067 127.154 78.9512C127.227 78.8601 127.291 78.7646 127.36 78.6691C127.325 78.6158 127.291 78.5603 127.256 78.507C126.874 78.6935 126.492 78.8757 126.112 79.0667C124.915 79.6709 124.475 80.9636 125.077 82.1631C125.363 82.7339 125.796 83.1271 126.489 83.0982C127.182 83.0693 127.629 82.6562 127.804 82.0432C127.94 81.5811 128.02 81.0303 127.895 80.5771Z" fill="black"/>
<path d="M135.633 77.4497C135.709 77.3053 135.784 77.1632 135.933 76.8788C134.33 77.4142 133.739 78.296 133.912 79.6731C134.005 80.415 134.552 81.0725 135.129 81.1325C135.76 81.1991 136.264 80.8371 136.515 80.1396C136.902 79.0601 136.577 78.0827 135.633 77.4497Z" fill="black"/>
<path d="M130.79 61.3146C130.892 61.4656 130.128 62.132 129.171 62.5385C128.693 62.7406 128.189 62.8539 127.814 62.8939C127.436 62.9361 127.179 62.9183 127.154 62.8206C127.13 62.7229 127.354 62.594 127.701 62.4608C128.047 62.3253 128.502 62.1787 128.94 61.9965C129.815 61.6345 130.681 61.1458 130.79 61.3146Z" fill="white"/>
<path d="M132.13 62.0677C132.183 62.1499 132.052 62.3209 131.825 62.5297C131.597 62.7385 131.286 62.9895 130.924 63.2183C130.744 63.3316 130.542 63.4337 130.344 63.5004C130.146 63.567 129.962 63.6048 129.802 63.6248C129.484 63.6603 129.269 63.6314 129.244 63.5337C129.22 63.4337 129.402 63.3182 129.675 63.1938C129.955 63.0672 130.284 62.9273 130.608 62.7185C130.939 62.5142 131.295 62.2942 131.579 62.1676C131.865 62.0366 132.079 61.9877 132.13 62.0677Z" fill="white"/>
<path d="M118.247 70.9326C118.292 71.0193 118.154 71.1681 117.936 71.3502C117.719 71.5346 117.43 71.7478 117.208 71.9944C116.981 72.2387 116.79 72.5475 116.615 72.7785C116.441 73.0095 116.288 73.1494 116.197 73.105C116.106 73.0606 116.124 72.8584 116.213 72.5763C116.304 72.2987 116.47 71.9189 116.768 71.5968C117.063 71.2747 117.436 71.0748 117.714 70.9704C117.998 70.8682 118.205 70.8482 118.247 70.9326Z" fill="white"/>
<path d="M135.322 64.973C135.313 65.0707 135.045 65.1129 134.654 65.1595C134.265 65.204 133.752 65.2639 133.243 65.3528C132.735 65.4394 132.23 65.5527 131.846 65.6393C131.462 65.7237 131.193 65.7682 131.146 65.6749C131.102 65.586 131.315 65.3994 131.688 65.2173C132.059 65.0307 132.59 64.8619 133.137 64.7708C133.683 64.6775 134.241 64.6687 134.654 64.722C135.067 64.7753 135.331 64.8797 135.322 64.973Z" fill="white"/>
<path d="M116.173 70.2329C116.231 70.3106 116.118 70.4817 115.933 70.6949C115.749 70.9104 115.498 71.168 115.318 71.4479C115.134 71.7256 114.996 72.061 114.858 72.3164C114.723 72.5718 114.596 72.734 114.498 72.7051C114.403 72.6762 114.385 72.4719 114.429 72.1809C114.476 71.8921 114.58 71.4923 114.823 71.1258C115.062 70.7593 115.4 70.5039 115.658 70.3573C115.915 70.2107 116.118 70.1574 116.173 70.2329Z" fill="white"/>
<path d="M127.987 121.621C127.958 121.616 127.929 121.612 127.898 121.608C125.437 121.325 122.974 121.05 120.515 120.759C118.873 120.566 117.238 120.341 115.597 120.15C115.355 120.122 114.962 120.106 114.875 120.239C114.351 121.046 113.622 121.801 113.962 122.911C114.015 123.082 114.04 123.274 114.027 123.451C113.995 123.873 114.171 124.126 114.502 124.397C114.826 124.664 115.182 125.066 115.242 125.453C115.426 126.641 115.497 127.847 115.57 129.049C115.604 129.602 115.31 130.024 114.788 130.226C114.464 130.353 114.389 130.546 114.409 130.87C114.471 131.876 114.493 132.885 114.553 133.891C114.615 134.968 114.7 136.046 114.777 137.143C118.7 137.56 122.543 137.971 126.496 138.391C126.612 137.281 126.725 136.172 126.841 135.066C126.443 133.009 127.234 127.347 127.987 121.621Z" fill="#212492"/>
<path d="M127.988 121.621C127.235 127.347 126.444 133.009 126.84 135.064C127.304 130.575 127.764 126.119 128.226 121.656C128.161 121.647 128.077 121.634 127.988 121.621Z" fill="#BCBDDE"/>
<path d="M131.293 102.625C131.242 103.143 130.354 107.423 129.527 111.854C129.745 111.872 129.963 111.89 130.18 111.905C130.807 108.511 131.284 105.29 131.644 101.914C131.504 101.985 131.34 102.167 131.293 102.625Z" fill="#BCBDDE"/>
<path d="M105.473 122.816C105.473 122.985 105.462 123.065 105.475 123.143C105.509 123.336 105.553 123.529 105.609 123.791C107.326 123.427 109.038 123.311 110.764 123.411L110.218 123.012C108.641 123.207 107.066 123.131 105.473 122.816Z" fill="black"/>
<path d="M112.907 122.396C112.007 122.694 111.112 122.896 110.215 123.009L110.761 123.409C111.503 123.451 112.249 123.531 112.996 123.656C112.965 123.189 112.938 122.812 112.907 122.396Z" fill="#EED3CA"/>
<path d="M133.761 125.719C133.756 125.701 133.752 125.684 133.747 125.666C132.239 126.086 130.791 126.51 129.334 126.885C128.694 127.05 128.623 127.383 128.819 127.943C128.947 128.311 129.074 128.678 129.203 129.046C130.433 127.667 131.986 126.53 133.761 125.719Z" fill="black"/>
<path d="M138.375 140.47C138.537 140.479 138.746 140.655 138.832 140.81C139.088 141.263 139.319 141.736 139.507 142.221C139.661 142.618 139.907 142.903 140.298 142.703C140.471 142.614 140.602 142.13 140.52 141.914C139.745 139.879 139.256 137.696 137.368 136.252C136.5 135.588 135.871 134.684 135.607 133.576C135.283 132.205 134.943 130.837 134.621 129.464C134.336 128.254 134.063 127.039 133.761 125.719C131.986 126.528 130.434 127.667 129.203 129.047C129.989 131.301 130.771 133.558 131.518 135.826C131.682 136.323 131.766 136.905 131.678 137.414C131.402 138.989 131.642 140.381 132.806 141.541C133.19 141.923 133.601 142.278 133.983 142.663C134.103 142.783 134.25 142.962 134.241 143.105C134.163 144.333 134.403 145.628 133.501 146.692C133.25 146.99 133.184 147.336 133.617 147.791C133.841 147.503 134.119 147.274 134.225 146.985C134.559 146.072 134.821 145.133 135.132 144.211C135.165 144.109 135.323 144.046 135.425 143.966C135.483 144.062 135.587 144.155 135.591 144.251C135.602 144.531 135.622 144.826 135.551 145.09C135.367 145.761 135.116 146.412 134.923 147.081C134.723 147.774 134.885 148.005 135.571 148.091C135.851 146.707 136.875 144.402 137.262 144.333C137.275 144.451 137.293 144.568 137.302 144.684C137.375 145.663 136.991 146.528 136.651 147.412C136.558 147.654 136.642 148.085 136.813 148.271C136.96 148.429 137.353 148.353 137.482 148.367C137.626 147.634 137.697 147.063 137.855 146.516C138.015 145.959 138.248 145.421 138.479 144.888C138.557 144.711 138.728 144.573 138.854 144.417C138.932 144.624 139.025 144.826 139.083 145.037C139.108 145.126 139.065 145.237 139.041 145.333C138.859 146.03 138.621 146.719 138.519 147.427C138.483 147.68 138.774 147.982 138.917 148.26C139.172 148.1 139.565 148 139.663 147.774C140.196 146.539 140.258 145.215 140.298 143.84C139.259 143.958 138.734 143.436 138.455 142.569C138.381 142.341 138.244 142.132 138.175 141.903C138.061 141.534 137.85 141.368 137.451 141.312C136.347 141.161 135.474 140.63 135.003 139.58C134.903 139.357 134.925 139.084 134.874 138.711C135.105 138.833 135.183 138.858 135.238 138.909C136.149 139.708 137.102 140.395 138.375 140.47Z" fill="#EED3CA"/>
<path d="M116.961 95.5569C117.101 95.8923 117.259 96.2099 117.458 96.4898C117.458 96.4898 117.299 96.1388 116.961 95.5569Z" fill="#FCA6A6"/>
<path d="M133.346 99.3109C132.831 96.8786 131.01 95.708 128.322 95.3549C127.867 95.246 127.689 95.3504 127.718 95.8391C128.964 96.2078 131.216 96.9697 132.045 97.8582C132.407 98.2469 132.873 98.7711 133.346 99.3109Z" fill="#BCBDDE"/>
<path d="M117.317 92.9447C117.159 92.5027 116.979 92.2894 116.473 92.4916C117.135 93.7488 117.539 95.0526 117.454 96.492L117.603 93.7532C117.51 93.4822 117.414 93.2135 117.317 92.9447Z" fill="#BCBDDE"/>
<path d="M115.404 93.2582C116.112 94.1733 116.623 94.9796 116.959 95.5571C116.312 94.0067 116.081 92.072 114.218 91.6655C112.965 91.4523 111.806 91.5589 110.73 91.9165C112.301 91.9121 114.524 92.1209 115.404 93.2582Z" fill="#BCBDDE"/>
<path d="M132.966 119.433C133.26 121.072 133.797 121.808 134.15 122.247C134.112 121.652 134.021 120.919 133.879 120.017C133.164 114.999 133.617 109.817 133.617 104.691C133.231 108.238 132.609 115.073 132.966 119.433Z" fill="#BCBDDE"/>
<path d="M132.966 119.433C132.609 115.073 133.231 108.238 133.615 104.688C133.615 103.378 133.586 102.072 133.499 100.775C133.495 100.242 133.439 99.7574 133.346 99.3109C132.875 98.7711 132.409 98.2469 132.045 97.8582C131.216 96.9697 128.964 96.2079 127.718 95.8391C127.718 95.8569 127.718 95.8724 127.72 95.8924C128.782 102.645 121.491 102.923 119.03 97.3873C118.477 96.2101 118.04 94.9795 117.604 93.7489L117.456 96.4877C117.256 96.2078 117.098 95.8902 116.958 95.5548C116.623 94.9773 116.112 94.1732 115.403 93.2558C114.524 92.1164 112.298 91.9076 110.73 91.9142C109.619 92.2829 108.6 92.9204 107.662 93.7489C103.08 98.0226 104.766 104.8 104.448 110.386C104.441 112.618 104.621 114.848 104.019 117.061C103.811 118.091 104.079 119.326 104.379 120.357C104.33 122.736 110.314 122.027 111.796 121.568C115.003 120.699 113.506 117.854 113.437 115.546C113.859 110.641 113.937 105.675 114.697 100.815C114.759 100.824 114.823 100.832 114.886 100.841C115.739 103.842 114.826 106.865 114.921 109.951C119.788 110.566 124.601 111.454 129.523 111.854C130.35 107.421 131.238 103.143 131.289 102.625C131.336 102.167 131.5 101.985 131.64 101.914C131.654 101.785 131.669 101.657 131.682 101.525C131.758 101.525 131.836 101.525 131.911 101.523C132.475 103.007 132.253 104.76 132.149 106.306C131.243 112.016 130.212 117.54 129.215 123.265C130.543 122.438 131.756 121.739 132.371 120.33C133.251 121.363 131.072 122.803 130.361 123.307C129.264 123.844 128.766 124.691 128.91 125.812C132.922 124.753 134.341 125.448 134.144 122.247C133.797 121.807 133.26 121.072 132.966 119.433Z" fill="#212492"/>
<path d="M130.172 124.824C130.003 124.688 129.894 124.602 129.785 124.515C129.881 124.429 129.961 124.313 130.072 124.262C130.767 123.955 131.462 123.644 132.175 123.382C132.353 123.316 132.595 123.418 132.806 123.442C132.699 123.613 132.633 123.878 132.482 123.942C131.731 124.264 130.958 124.531 130.172 124.824Z" fill="black"/>
<path d="M199.234 192.944C200.822 193.54 201.815 193.871 201.748 195.392C201.682 196.914 198.041 199.601 192.817 199.759C186.266 199.957 184.083 198.104 182.43 197.773C180.776 197.442 176.013 197.045 172.837 196.78C169.661 196.516 165.427 195.523 166.486 194.466C167.546 193.409 169.067 192.085 171.184 192.151C173.301 192.218 181.506 191.423 183.887 192.616C183.885 192.613 198.234 192.569 199.234 192.944Z" fill="#CCCCCC"/>
<path d="M207.004 45.0153C206.993 44.7777 206.951 44.5333 206.886 44.3045C204.376 35.3708 199.436 27.9674 192.586 21.7969C186.413 16.2394 179.297 12.3011 171.436 9.67121C166.502 8.02084 161.449 6.92578 156.26 6.52151C153.828 6.33271 151.385 6.29495 148.946 6.18167C148.55 6.1639 148.157 6.11281 147.88 6.08616C147.578 4.61126 147.258 3.24077 147.029 1.85472C146.882 0.970676 146.494 0.337626 145.656 0C145.534 0 145.414 0 145.292 0C144.286 0.530873 144.03 1.45268 143.919 2.49666C143.779 3.83161 143.562 5.15768 143.391 6.39491C140.867 6.80805 138.368 7.13458 135.905 7.63879C127.08 9.44909 118.917 12.8453 111.665 18.2251C101.034 26.1083 94.0216 36.2948 92.0314 49.5999C91.9181 50.3574 92.0914 50.5817 92.8821 50.6128C95.1811 50.7017 97.4845 50.7261 99.779 50.8838C103.32 51.1259 106.865 51.3703 110.39 51.7745C114.335 52.2254 118.257 52.8629 122.191 53.3938C122.869 53.4849 123.524 53.6403 124.261 53.4404C126.34 52.8762 128.437 52.3298 130.561 51.9833C134.239 51.3791 137.94 50.9038 141.638 50.4262C143.068 50.2419 144.517 50.1997 145.989 50.0908C146.156 52.7852 146.323 55.3973 146.476 58.0117C146.758 62.8229 147.033 67.6341 147.302 72.4452C147.313 72.6296 147.278 72.8984 147.158 72.9917C146.705 73.3471 146.702 73.8135 146.733 74.3044C146.762 74.7464 146.778 75.1929 146.842 75.6305C146.907 76.0747 146.753 76.3035 146.338 76.5056C145.352 76.9832 144.432 77.5807 143.848 78.5514C143.411 79.2777 143.582 82.4674 144.028 83.196C144.188 83.4558 144.312 83.7735 144.332 84.0711C144.41 85.1751 144.568 86.2301 145.345 87.1031C146.118 87.9716 146.862 88.8623 147.653 89.7841C146.922 90.2461 146.685 90.9858 146.9 91.8787C147.906 96.0502 148.89 100.231 150.481 104.229C151.02 105.588 151.542 106.992 152.324 108.214C153.826 110.566 156.429 111.434 158.852 110.55C160.345 110.006 161.816 109.389 163.282 108.776C164.988 108.06 166.68 107.312 168.415 106.561C168.415 106.781 168.424 106.956 168.413 107.132C168.279 109.549 168.059 111.963 168.024 114.38C167.957 119.06 167.92 123.742 168.008 128.42C168.097 133.034 168.362 137.645 168.533 142.256C168.55 142.711 168.715 143.02 169.146 143.091C169.612 143.167 169.705 143.442 169.736 143.842C169.972 146.774 170.174 149.713 170.476 152.638C170.887 156.625 171.278 160.619 171.853 164.584C172.824 171.281 173.917 177.96 174.994 184.641C175.159 185.659 175.003 186.887 176.371 187.402C175.967 187.864 175.663 188.34 175.245 188.666C174.072 189.577 172.88 190.47 171.638 191.285C170.896 191.772 170.214 192.216 169.941 193.14C169.461 194.764 169.925 195.572 171.591 195.81C173.584 196.094 175.601 196.119 177.557 195.717C180.019 195.212 182.435 194.484 184.87 193.855C185.076 193.802 185.287 193.773 185.627 193.706C185.285 194.162 185.012 194.459 184.814 194.801C183.828 196.487 184.39 197.904 186.287 198.209C187.711 198.435 189.174 198.415 190.623 198.489C192.062 198.562 193.377 198.151 194.572 197.371C196.038 196.412 197.493 195.439 198.93 194.439C199.428 194.093 199.599 193.569 199.503 192.942C199.299 191.629 199.152 190.306 198.93 188.997C198.821 188.353 198.757 187.762 199.159 187.183C199.294 186.987 199.35 186.692 199.337 186.447C199.214 184.173 199.077 181.9 198.932 179.628C198.712 176.208 198.406 172.791 198.277 169.368C198.104 164.71 198.05 160.05 197.966 155.39C197.888 151.012 197.835 146.634 197.777 142.258C197.773 141.918 197.833 141.576 197.868 141.234C197.902 140.917 198.035 140.735 198.364 140.577C198.628 140.45 198.93 140.057 198.928 139.786C198.919 139.051 198.757 138.318 198.657 137.583C198.364 135.428 198.07 133.273 197.777 131.121C197.722 130.712 197.775 130.415 198.253 130.255C198.626 130.13 199.034 129.879 198.832 129.362C198.632 128.844 198.892 128.713 199.319 128.664C199.479 128.647 199.641 128.631 199.799 128.604C201.671 128.291 203.27 127.594 203.999 125.648C204.503 124.304 204.743 122.916 204.599 121.497C204.468 120.197 204.305 118.884 203.988 117.62C202.735 112.641 201.587 107.634 199.956 102.754C199.081 100.131 197.966 97.6695 196.1 95.5682C194.468 93.729 192.517 92.303 190.434 91.0724C189.31 90.4083 188.761 89.6886 189.159 88.4025C189.177 88.347 189.148 88.2603 189.179 88.2248C189.321 88.0693 189.452 87.8827 189.632 87.7917C190.232 87.4829 190.974 87.3363 191.436 86.8943C192.215 86.1524 192.811 85.2217 193.51 84.3932C193.695 84.1733 193.957 83.9223 194.217 83.8756C197.413 83.287 198.937 80.0085 197.311 77.2009C197.217 77.0387 197.209 76.7322 197.297 76.57C198.872 73.7358 199.914 70.686 200.945 67.6341C201.471 66.077 201.447 64.5399 200.403 63.145C199.479 61.91 198.301 61.0437 196.802 60.6305C196.553 60.5617 196.351 60.5239 196.291 60.1641C196.027 58.5692 195.158 57.3276 193.708 56.6523C192.422 56.0526 191.067 55.4773 189.683 55.233C185.429 54.4777 181.209 54.7754 177.08 56.1081C174.688 56.8811 172.409 57.8807 170.392 59.4133C169.161 60.3484 168.326 61.5346 168.222 63.0983C168.164 63.9757 168.159 64.8997 168.379 65.7394C168.708 66.9944 169.234 68.2005 169.716 69.4133C170.043 70.2373 170.223 71.0436 170.039 71.9432C169.434 74.8952 169.148 77.885 169.175 80.8948C169.186 81.9943 169.188 83.1626 169.539 84.18C170.383 86.63 172.038 88.4336 174.508 89.3821C175.276 89.6775 176.076 89.8952 176.853 90.1728C177.029 90.235 177.171 90.4016 177.457 90.6171C176.944 90.757 176.64 90.8614 176.327 90.9236C174.106 91.3678 171.951 91.9942 169.921 93.0382C166.407 94.8418 162.873 96.601 159.343 98.3736C159.139 98.4758 158.91 98.5268 158.668 98.609C157.7 95.4793 156.765 92.4185 155.798 89.3665C155.676 88.98 155.434 88.6113 155.176 88.2914C154.979 88.0471 154.668 87.8939 154.448 87.7295C154.561 87.3297 154.712 87.0254 154.728 86.7166C154.83 84.6442 154.968 82.5696 154.956 80.4972C154.952 79.7486 154.69 78.9379 154.33 78.2715C153.624 76.9632 152.771 75.7326 151.962 74.4799C151.825 74.2644 151.602 74.1045 151.42 73.9179C151.005 73.4848 150.585 73.0516 150.181 72.6074C150.125 72.5474 150.141 72.4164 150.136 72.3186C149.974 69.1778 149.814 66.0348 149.65 62.8917C149.506 60.153 149.352 57.4142 149.21 54.6754C149.13 53.1095 149.064 51.5413 148.99 49.9531C149.152 49.9376 149.27 49.9131 149.388 49.9131C153.564 49.9465 157.749 49.8532 161.918 50.0553C165.416 50.2241 168.897 50.7417 172.386 51.0926C172.979 51.1526 173.615 51.277 174.174 51.1392C178.719 50.0153 183.317 49.1646 187.939 48.4449C191.782 47.8474 195.636 47.3054 199.492 46.799C201.629 46.5191 203.783 46.3436 205.931 46.1659C206.911 46.0815 207.051 45.9905 207.004 45.0153ZM186.867 186.923C186.749 188.542 188.173 188.62 189.274 189.246C188.381 190.486 187.508 191.694 186.653 192.876C186.505 191.096 186.387 189.382 186.198 187.671C186.142 187.147 186.231 186.898 186.867 186.923Z" fill="black"/>
<path d="M178.387 90.468C178.493 90.9811 178.658 91.5498 178.687 92.0851C180.226 91.7741 181.772 91.2854 183.24 90.5835C181.676 90.8456 179.942 90.5213 178.387 90.468Z" fill="black"/>
<path d="M194.086 76.47C192.085 76.0302 192.84 79.12 191.19 79.331C190.083 79.4109 189.715 78.2004 189.633 77.323C189.335 63.6358 190.372 70.4061 175.912 65.7238C175.672 67.2053 175.283 68.7424 176.314 70.1751C176.143 70.255 175.988 70.3284 175.917 70.3617C176.354 71.0525 177.269 71.5945 176.743 72.4985C176.507 72.4274 176.194 72.4296 176.052 72.2764C175.237 71.3879 174.271 70.9192 173.049 70.9814C172.896 70.9903 172.731 70.8126 172.571 70.7237C172.758 70.1262 173.569 70.0662 173.96 69.9241C173.409 69.0623 172.845 68.1804 172.212 67.1875C171.081 71.8832 170.195 76.5789 170.266 81.4189C170.104 89.3642 178.955 89.5686 184.848 89.713C184.908 89.7152 184.968 89.7152 185.028 89.7174C185.032 89.7841 185.037 89.8507 185.041 89.9196C184.486 90.2816 183.877 90.4815 183.24 90.5904C181.769 91.2923 180.226 91.7809 178.686 92.0919C178.722 92.7183 178.573 93.298 177.931 93.689C177.996 94.442 178.655 94.8174 179.382 95.0195C183.131 96.2656 187.436 93.7467 187.931 89.8085C187.5 86.7965 191.767 83.4203 190.69 82.594C190.381 82.3274 190.132 81.9898 190.474 81.4567C195.899 85.8214 199.837 77.7917 194.086 76.47Z" fill="#EED3CA"/>
<path d="M201.434 99.3665C201.272 99.2377 201.028 99.1421 200.999 99C200.957 98.8001 201.008 98.5046 201.139 98.3603C201.363 98.1115 201.676 97.9449 201.958 97.7517C202.838 97.1475 203.718 96.5455 204.599 95.9414C204.937 95.7103 205.317 95.5282 205.608 95.9369C205.899 96.3478 205.612 96.6344 205.261 96.8698C204.193 97.5873 203.131 98.3203 202.063 99.04C201.883 99.1599 201.676 99.2421 201.434 99.3665Z" fill="black"/>
<path d="M198.617 96.7854C198.695 96.5278 198.728 96.3701 198.788 96.2212C199.281 95.0107 199.779 93.8001 200.274 92.5895C200.423 92.2253 200.638 91.9098 201.085 92.0986C201.491 92.2697 201.454 92.6251 201.309 92.9738C200.792 94.2399 200.296 95.5171 199.739 96.7654C199.646 96.9765 199.308 97.1475 199.057 97.1941C198.935 97.2186 198.75 96.9165 198.617 96.7854Z" fill="black"/>
<path d="M205.916 102.694C204.701 102.578 203.435 102.458 202.171 102.341C201.791 102.305 201.503 102.101 201.627 101.725C201.696 101.519 202.051 101.259 202.264 101.27C203.613 101.341 204.957 101.474 206.3 101.603C206.669 101.639 207.009 101.81 206.936 102.247C206.842 102.809 206.36 102.692 205.916 102.694Z" fill="black"/>
<path d="M177.892 42.4209C175.909 41.7501 173.963 41.0282 171.981 40.4352C168.301 39.3357 164.523 38.7293 160.702 38.3517C156.431 37.9296 152.155 37.8586 147.881 38.1518C138.699 38.7781 129.8 40.6129 121.435 44.6066C121.364 44.6399 121.289 44.6599 121.098 44.7266C121.346 43.5338 121.544 42.4098 121.82 41.3059C124.15 32.0012 128.061 23.4495 134.014 15.884C136.209 13.0941 138.696 10.6086 141.735 8.7072C143.126 7.83648 144.609 7.52551 146.233 7.3567C149.198 7.05017 151.56 8.42288 153.921 9.79116C158.616 12.5099 162.555 16.1483 166.122 20.1932C170.051 24.6489 173.376 29.5134 175.755 34.9798C176.77 37.3144 177.586 39.7133 177.894 42.2588C177.899 42.3188 177.892 42.3787 177.892 42.4209Z" fill="white"/>
<path d="M205.628 44.1447C196.956 40.9705 188.102 41.0705 179.106 42.6076C178.966 41.8346 178.851 41.0238 178.671 40.2286C177.7 35.9528 175.828 32.0568 173.54 28.3562C169.193 21.3305 163.802 15.2488 157.027 10.4665C155.55 9.42471 153.924 8.59175 152.367 7.66772C152.238 7.58997 152.096 7.53222 151.996 7.33453C153.231 7.40339 154.468 7.43449 155.699 7.54555C160.859 8.01201 165.914 9.00712 170.834 10.6442C180.026 13.7006 188.142 18.4984 194.846 25.5486C199.784 30.744 203.426 36.7191 205.528 43.5982C205.574 43.7515 205.619 43.907 205.656 44.0647C205.659 44.0936 205.632 44.1336 205.628 44.1447Z" fill="#D52B1E"/>
<path d="M93.3633 48.3738C94.2873 42.7919 96.3419 37.6431 99.3495 32.8697C104.043 25.4175 110.409 19.7311 118.046 15.4308C124.736 11.6614 131.91 9.27583 139.496 8.11413C139.874 8.05638 140.249 8.00306 140.638 7.94531C140.638 8.01417 140.651 8.0697 140.635 8.08081C136.759 10.6641 133.747 14.0981 131.126 17.8831C125.64 25.8062 121.968 34.5067 120.116 43.9691C120.04 44.3601 119.98 44.7554 119.914 45.153C118.508 44.9331 117.141 44.691 115.767 44.5089C112.337 44.0558 108.899 43.9247 105.445 44.2712C103.312 44.4845 101.215 44.8487 99.1673 45.4907C97.0905 46.1437 95.1603 47.0677 93.4943 48.4982C93.4299 48.4738 93.3877 48.4338 93.3633 48.3738Z" fill="#D52B1E"/>
<path d="M174.528 68.647C173.717 67.8207 173.331 66.8345 173.389 65.6772C173.395 65.5373 173.464 65.3862 173.433 65.2596C173.369 65.0108 173.253 64.7754 173.16 64.5355C172.911 64.6488 172.529 64.6954 172.436 64.8865C171.876 66.0193 171.383 67.1832 170.872 68.3382C170.816 68.4648 170.783 68.6003 170.732 68.7492C169.759 67.3254 169.13 64.8909 169.313 63.2516C169.455 61.9655 170.132 61.006 171.147 60.2485C173.111 58.7825 175.323 57.823 177.647 57.1077C181.769 55.8394 185.956 55.5529 190.188 56.4658C191.125 56.6679 192.042 57.03 192.915 57.432C194.548 58.1828 195.434 59.4556 195.345 61.3103C195.341 61.3903 195.334 61.4724 195.334 61.5524C195.332 61.9211 195.181 62.3942 195.732 62.4786C196.283 62.5631 196.283 62.0766 196.36 61.7145C198.902 62.0744 200.743 64.6421 200.006 67.1321C199.115 70.1419 197.924 73.0583 196.432 75.8349C196.385 75.9215 196.314 75.9926 196.238 76.0925C195.217 75.3973 194.088 75.1929 192.933 75.4906C191.629 75.8282 191.618 77.1943 190.898 78.1361C190.807 77.5386 190.659 76.9455 190.636 76.3458C190.565 74.5532 190.559 72.7563 190.49 70.9615C190.468 70.3418 190.37 69.7198 190.257 69.1068C190.043 67.9629 189.29 67.2809 188.191 67.0899C186.645 66.8234 185.059 66.759 183.524 66.4458C181.258 65.9837 179.019 65.3796 176.772 64.822C176.545 64.7665 176.332 64.6266 176.132 64.4977C175.636 64.1757 175.341 64.2534 175.106 64.8198C174.597 66.0393 174.528 67.3231 174.528 68.647Z" fill="black"/>
<path d="M197.518 119.648C196.003 119.888 194.551 120.117 193.1 120.346C191.31 120.63 189.517 120.903 187.729 121.201C187.032 121.317 186.77 121.843 186.679 122.509C185.308 121.505 184.269 120.264 183.36 118.9C183.271 118.767 183.18 118.631 183.078 118.507C182.501 117.805 181.614 117.66 180.924 118.154C180.188 118.678 180.022 119.62 180.541 120.406C180.87 120.906 181.219 121.39 181.594 121.932C181.414 121.981 181.323 122.016 181.23 122.03C180.046 122.205 179.988 122.143 179.964 120.95C179.846 115.099 179.717 109.251 179.597 103.4C179.58 102.589 179.593 102.614 180.413 102.567C183.454 102.392 186.494 102.194 189.535 102.01C191.99 101.861 194.446 101.719 196.97 101.57C197.15 107.605 197.332 113.585 197.518 119.648Z" fill="#EDF5FD"/>
<path d="M184.956 95.8191C184.394 97.1096 183.83 98.4001 183.272 99.6929C183.192 99.8772 183.132 100.07 183.079 100.264C182.797 101.27 182.799 101.281 181.78 101.374C181.078 101.439 180.369 101.45 179.667 101.516C178.801 101.599 178.468 101.967 178.486 102.851C178.543 105.837 178.619 108.822 178.681 111.807C178.743 114.773 178.797 117.738 178.852 120.703C178.854 120.803 178.841 120.901 178.837 120.979C178.419 121.192 178.004 121.356 177.639 121.599C176.771 122.172 176.449 123.078 176.806 124.022C176.94 124.373 176.926 124.648 176.793 124.984C176.535 125.635 176.644 126.239 177.097 126.794C177.217 126.938 177.284 127.181 177.271 127.369C177.231 127.998 177.41 128.52 177.877 128.944C177.964 129.022 178.081 129.12 178.095 129.217C178.208 130.064 178.803 130.381 179.527 130.55C179.714 132.278 179.714 132.278 181.562 132.185C181.629 132.971 181.693 133.762 181.76 134.542C180.529 134.915 177.466 135.401 173.941 135.184C173.532 128.351 173.428 121.514 173.634 114.673C173.714 112.032 173.777 109.386 174.023 106.759C174.327 103.522 175.118 100.37 176.133 97.2806C176.415 96.421 176.731 95.5725 177.028 94.7195C179.205 96.9097 181.74 96.6276 184.345 95.8813C184.518 95.8324 184.685 95.7591 184.856 95.6969C184.907 95.7235 184.94 95.7635 184.956 95.8191Z" fill="white"/>
<path d="M126.582 43.778C125.36 46.559 124.127 49.3378 122.926 52.1276C122.773 52.483 122.557 52.4342 122.304 52.3942C120.174 52.0654 118.048 51.6967 115.913 51.4035C113.119 51.0215 110.323 50.615 107.515 50.3684C103.097 49.9797 98.67 49.7132 94.2031 49.3911C94.4497 49.1845 94.7118 48.9313 95.0072 48.7203C97.2706 47.101 99.8584 46.288 102.555 45.7883C108.152 44.7509 113.723 45.093 119.265 46.2147C120.012 46.3658 120.64 46.2303 121.298 45.9304C122.819 45.2374 124.35 44.5666 125.88 43.8936C126.08 43.8069 126.3 43.7669 126.511 43.707C126.551 43.7159 126.573 43.7403 126.582 43.778Z" fill="#B2B2B2"/>
<path d="M149.606 91.3368C149.371 89.9774 148.789 89.1045 147.925 88.3248C147.143 87.6185 146.43 86.7811 145.888 85.8815C145.148 84.6532 145.333 83.7291 146.805 83.1805C147.178 83.0405 147.578 82.9561 147.974 82.8962C148.587 82.8007 149.08 83.1783 149.195 83.7869C149.286 84.2689 148.991 84.5265 148.516 84.3822C147.812 84.1667 146.814 85.0996 146.983 85.8215C147.005 85.9148 147.054 86.0547 147.119 86.0747C147.625 86.228 147.601 86.6745 147.707 87.061C148.043 88.2738 148.969 88.7646 150.348 88.4803C151.696 88.2027 152.187 87.4919 152.054 86.1703C151.801 83.6669 151.603 81.1569 151.345 78.6536C151.308 78.2849 151.11 77.914 150.919 77.5808C150.581 76.9944 150.146 76.4613 149.844 75.8593C149.662 75.4951 149.7 75.0286 150.135 74.7998C150.59 74.5621 150.897 74.8442 151.132 75.2107C151.961 76.4968 152.876 77.7363 153.571 79.0912C153.918 79.7665 153.975 80.6527 153.96 81.439C153.924 83.1272 153.758 84.8153 153.638 86.5012C153.629 86.6389 153.622 86.8188 153.538 86.901C152.756 87.654 153.111 88.5092 153.34 89.3222C153.485 89.8375 153.351 90.1129 152.869 90.2706C151.812 90.6171 150.75 90.9637 149.606 91.3368Z" fill="#EED3CA"/>
<path d="M170.977 193.253C171.27 192.955 171.445 192.716 171.676 192.553C172.849 191.738 174.029 190.936 175.221 190.154C175.379 190.05 175.643 190.021 175.828 190.068C176.154 190.15 176.452 190.381 176.778 190.434C177.032 190.474 177.311 190.341 177.58 190.283C177.465 190.037 177.407 189.728 177.22 189.561C176.992 189.355 176.656 189.268 176.316 188.951C176.567 188.886 176.832 188.735 177.063 188.777C177.409 188.84 177.72 189.091 178.069 189.157C178.318 189.206 178.6 189.086 178.866 189.042C178.764 188.793 178.704 188.511 178.546 188.304C178.429 188.151 178.182 188.093 178.102 188.051C179.075 188.051 180.148 188.04 181.221 188.064C181.367 188.069 181.521 188.244 181.652 188.362C182.449 189.088 182.987 189.091 183.693 188.251C184.08 187.791 184.488 187.48 185.184 187.502C185.29 188.495 185.399 189.506 185.51 190.552C180.832 192.167 176.196 193.804 170.977 193.253Z" fill="#D52B1E"/>
<path d="M149.04 72.3763C148.796 72.3763 148.621 72.3763 148.394 72.3763C147.759 61.3879 147.126 50.4062 146.488 39.3933C146.799 39.36 147.035 39.3334 147.341 39.3C147.908 50.324 148.472 61.3124 149.04 72.3763Z" fill="#CCCCCC"/>
<path d="M176.045 94.3843C173.93 99.5976 172.802 105.013 172.687 110.637C172.638 110.63 172.589 110.624 172.542 110.617C172.542 109.849 172.56 109.08 172.538 108.311C172.516 107.527 172.436 106.743 172.418 105.959C172.389 104.551 172.373 103.14 172.389 101.732C172.391 101.474 172.529 101.188 172.684 100.973C173.051 100.468 173.48 100.011 173.862 99.5176C174.359 98.8779 174.373 98.5847 173.851 97.9716C173.526 97.5896 173.468 97.303 173.811 96.8921C174.512 96.0481 175.165 95.164 175.839 94.2977C175.907 94.3244 175.976 94.3555 176.045 94.3843Z" fill="#D52B1E"/>
<path d="M170.922 194.251C176.011 194.859 180.749 193.431 185.442 191.734C185.58 192.209 185.478 192.451 185.056 192.591C181.126 193.902 177.19 195.161 172.966 194.928C172.426 194.897 171.886 194.804 171.353 194.708C171.182 194.677 171.031 194.539 170.871 194.453C170.889 194.384 170.907 194.317 170.922 194.251Z" fill="#CCCCCC"/>
<path d="M180.649 130.79C182.079 130.588 183.519 130.437 184.936 130.164C185.793 129.999 186.608 129.624 187.455 129.389C187.706 129.32 188.001 129.382 188.272 129.417C188.783 129.482 189.298 129.66 189.803 129.633C191.391 129.548 192.974 129.393 194.56 129.26C195.616 129.171 196.673 129.073 197.728 128.98C197.748 129.038 197.768 129.093 197.788 129.151C197.628 129.22 197.475 129.333 197.308 129.351C195.989 129.509 194.667 129.648 193.348 129.791C190.447 130.104 187.544 130.413 184.64 130.724C183.419 130.855 182.199 130.995 180.975 131.106C180.829 131.119 180.669 130.963 180.516 130.888C180.56 130.852 180.604 130.821 180.649 130.79Z" fill="#AFC0D4"/>
<path d="M185.523 196.567C192.012 197.089 192.012 197.089 198.409 193.053C198.367 194.017 193.875 196.956 191.872 197.336C189.391 197.802 185.879 197.403 185.523 196.567Z" fill="#CCCCCC"/>
<path d="M145.357 83.0117C144.564 82.4741 144.906 81.7233 145.579 81.4701C146.347 81.1814 147.105 80.8637 147.88 80.5927C148.88 80.2418 149.482 81.1369 149.486 81.9854C149.486 82.1098 149.12 82.3764 149.046 82.3386C147.856 81.7211 146.829 82.3009 145.786 82.7451C145.637 82.8073 145.51 82.9139 145.357 83.0117Z" fill="#EED3CA"/>
<path d="M149.051 79.8707C147.518 79.6531 146.224 80.2683 144.809 80.7481C144.982 80.5104 145.104 80.1839 145.337 80.0507C146.117 79.6042 146.91 79.1533 147.749 78.8379C148.722 78.4736 149.036 78.7601 149.051 79.8707Z" fill="#EED3CA"/>
<path d="M148.82 76.3969C148.515 76.348 148.211 76.2969 147.896 76.2458C147.84 75.5661 147.76 74.9286 147.758 74.2911C147.756 74.1023 147.936 73.7891 148.093 73.7425C148.586 73.5981 149.111 73.5537 149.686 73.5759C148.651 74.3467 148.5 75.3062 148.806 76.4057L148.82 76.3969Z" fill="#6A6969"/>
<path d="M144.73 79.2044C145.37 77.8917 147.154 76.961 148.189 77.3786C148.4 77.463 148.575 77.6385 148.82 77.8095C148.013 77.9894 147.327 78.0805 146.685 78.3004C146.034 78.5247 145.428 78.8757 144.73 79.2044Z" fill="#EED3CA"/>
<path d="M150.92 85.7414C150.092 85.8636 149.37 85.9724 148.604 86.0857C148.597 85.9946 148.584 85.8125 148.57 85.6081C150.623 85.5526 150.161 83.9289 150.278 82.6694C150.378 82.6872 150.478 82.7072 150.581 82.725C150.694 83.7401 150.807 84.7529 150.92 85.7414Z" fill="#6A6969"/>
<path d="M190.055 86.4124C190.672 85.4772 191.292 84.5421 191.949 83.5492C192.12 83.6047 192.358 83.6825 192.68 83.7891C192.056 84.8353 191.345 85.726 190.383 86.4012C190.312 86.4523 190.172 86.4035 190.064 86.4035C190.128 86.4523 190.046 86.379 190.104 86.4346C190.115 86.4434 190.099 86.4368 190.055 86.4124Z" fill="black"/>
<path d="M149.896 77.9094C150.476 78.7979 150.327 79.8041 150.409 80.7748C150.356 80.7837 150.302 80.7926 150.247 80.8037C150.078 79.8508 149.909 78.8956 149.738 77.9427C149.792 77.9316 149.845 77.9205 149.896 77.9094Z" fill="#6A6969"/>
<path d="M149.156 87.112C149.676 87.0498 150.194 86.9899 150.713 86.9277C150.727 87.0321 150.74 87.1342 150.753 87.2386C150.238 87.3097 149.723 87.3808 149.207 87.4519C149.19 87.3386 149.174 87.2253 149.156 87.112Z" fill="#6A6969"/>
<path d="M124.244 52.2209C124.213 52.2409 124.182 52.2587 124.151 52.2787C124.144 52.2276 124.136 52.1787 124.129 52.1276C124.167 52.1587 124.207 52.1898 124.244 52.2209Z" fill="white"/>
<path d="M148.805 76.4079C148.831 76.4234 148.858 76.439 148.885 76.4523C148.86 76.4612 148.836 76.4701 148.814 76.4767C148.816 76.4501 148.818 76.4234 148.82 76.3945C148.82 76.3968 148.805 76.4079 148.805 76.4079Z" fill="white"/>
<path d="M93.4949 48.4938C93.4504 48.5094 93.4038 48.5272 93.3594 48.5427C93.3616 48.4872 93.3638 48.4294 93.366 48.3739C93.4082 48.4139 93.4527 48.4539 93.4949 48.4938Z" fill="white"/>
<path d="M126.512 43.7092C126.534 43.6848 126.556 43.6582 126.581 43.6337C126.583 43.6826 126.583 43.7315 126.585 43.7803C126.556 43.7581 126.532 43.7337 126.512 43.7092Z" fill="white"/>
<path d="M184.852 95.7036C184.9 95.6969 184.947 95.6903 184.996 95.6836C184.983 95.728 184.967 95.7747 184.954 95.8191C184.918 95.7813 184.885 95.7413 184.852 95.7036Z" fill="white"/>
<path d="M190.062 86.4012L190.073 86.4279C190.073 86.4279 190.057 86.4101 190.055 86.4101C190.053 86.4101 190.062 86.4012 190.062 86.4012Z" fill="white"/>
<path d="M174.589 79.6219C174.828 79.7108 175.082 79.7752 175.306 79.8951C176.699 80.6304 178.142 80.8903 179.664 80.3549C179.944 80.2572 180.199 80.0884 180.464 79.9551C180.386 79.7485 180.324 79.5797 180.246 79.3709C180.881 79.1932 181.323 79.4109 181.634 79.8729C181.741 80.0306 181.705 80.2839 181.734 80.4927C181.581 80.5126 181.421 80.5149 181.272 80.5593C181.15 80.597 181.03 80.6681 180.928 80.7481C179.302 82.0275 176.601 81.9831 175.048 80.6259C174.806 80.4149 174.64 80.1173 174.438 79.8596C174.489 79.7819 174.537 79.7019 174.589 79.6219Z" fill="black"/>
<path d="M183.052 74.9573C184.205 75.0462 185.449 75.8725 185.818 76.9231C185.893 77.1364 185.793 77.4118 185.773 77.6583C185.54 77.6006 185.307 77.5495 185.078 77.4851C185.027 77.4695 184.98 77.4118 184.947 77.3629C184.05 76.1324 182.87 75.9813 181.504 76.4211C181.153 76.5344 180.618 76.8187 180.438 76.3145C180.234 75.7436 180.871 75.6837 181.226 75.5437C181.82 75.3061 182.441 75.1484 183.052 74.9573Z" fill="black"/>
<path d="M183.303 71.4944C184.609 71.59 185.587 72.1564 186.307 73.167C186.433 73.3447 186.395 73.6379 186.433 73.88C186.178 73.8578 185.827 73.9378 185.68 73.8001C184.443 72.6339 182.966 72.6806 181.44 72.8627C181.227 72.8872 180.996 72.7561 180.773 72.6961C180.931 72.5051 181.053 72.2163 181.255 72.1386C181.924 71.8832 182.619 71.7032 183.303 71.4944Z" fill="black"/>
<path d="M193.823 79.3133C193.447 79.6087 193.147 79.8686 192.819 80.0907C192.674 80.1884 192.474 80.204 192.299 80.2573C192.283 80.0752 192.192 79.8486 192.268 79.7176C192.912 78.6203 193.905 77.9761 195.122 77.6918C195.326 77.6452 195.651 77.7873 195.811 77.9472C196.064 78.2049 196.046 78.4959 195.611 78.6047C195.324 78.6758 195.036 78.7469 194.771 78.8113C194.869 79.26 194.998 79.6442 195.022 80.0352C195.036 80.2307 194.862 80.4372 194.776 80.6371C194.636 80.5083 194.465 80.4017 194.36 80.2484C194.176 79.9774 194.027 79.6753 193.823 79.3133Z" fill="black"/>
<path d="M174.057 72.7562C175.09 72.8584 176.165 73.7091 176.32 74.6709C176.358 74.9086 176.216 75.1774 176.154 75.4328C175.916 75.3262 175.552 75.284 175.461 75.1041C174.863 73.9179 173.99 73.6069 172.773 74.0978C172.62 74.16 172.389 74.0312 172.195 73.989C172.295 73.8135 172.353 73.5603 172.504 73.4759C173.002 73.2027 173.535 72.9917 174.057 72.7562Z" fill="black"/>
<path d="M177.643 75.0041C177.95 75.7815 176.239 77.7562 175.289 77.7251C175.198 77.2164 176.89 75.2595 177.643 75.0041Z" fill="black"/>
<path d="M178.513 83.3004C178.195 83.4936 177.977 83.7002 177.722 83.7668C177.195 83.9001 176.191 83.3648 176.025 82.8628C175.98 82.7295 176.234 82.3608 176.247 82.3675C176.958 82.6384 177.662 82.9383 178.513 83.3004Z" fill="black"/>
<path d="M186.637 112.658C188.514 110.684 190.278 108.827 192.044 106.972C192.223 106.783 192.412 106.599 192.605 106.423C193.143 105.935 193.554 105.946 194.06 106.47C194.58 107.008 195.095 107.545 195.606 108.089C196.091 108.602 196.099 109.02 195.613 109.504C192.828 112.283 190.036 115.053 187.25 117.832C186.848 118.234 186.502 118.287 186.068 117.854C184.5 116.286 182.91 114.737 181.331 113.178C180.997 112.849 180.995 112.496 181.317 112.167C181.966 111.506 182.617 110.841 183.292 110.208C183.661 109.862 184.06 109.906 184.409 110.282C185.089 111.004 185.764 111.723 186.637 112.658Z" fill="black"/>
<path d="M193.215 107.19C193.812 107.818 194.268 108.3 194.668 108.72C191.98 111.441 189.317 114.135 186.642 116.843C185.239 115.408 183.846 113.984 182.453 112.558C182.86 112.176 183.326 111.741 183.897 111.206C184.483 111.823 185.123 112.512 185.781 113.182C186.358 113.769 186.722 113.762 187.318 113.178C189.146 111.383 190.972 109.586 192.791 107.783C192.951 107.627 193.053 107.421 193.215 107.19Z" fill="#D52B1E"/>
<path d="M148.438 39.1335C151.065 39.1335 153.586 39.0691 156.105 39.1491C159.859 39.269 163.588 39.6666 167.269 40.4418C167.5 40.4907 167.78 40.6284 167.902 40.815C169.766 43.6537 171.389 46.6235 172.742 49.7399C172.773 49.811 172.778 49.8909 172.769 49.8509C168.833 49.5155 164.888 49.0446 160.927 48.8758C156.963 48.707 152.982 48.8381 148.942 48.8381C148.775 45.6173 148.611 42.4676 148.438 39.1335Z" fill="#9B1D1F"/>
<path d="M145.386 39.4446C144.371 39.569 143.398 39.6868 142.43 39.8089L145.928 48.8271C145.748 45.7107 145.571 42.621 145.386 39.4446Z" fill="black"/>
<path d="M142.43 39.809C142.345 39.8201 142.263 39.829 142.179 39.8401C137.59 40.4243 133.096 41.4372 128.702 42.8854C128.478 42.9587 128.214 43.1409 128.12 43.3408C126.774 46.2617 125.455 49.1959 124.129 52.1257C124.151 52.1768 124.189 52.2079 124.244 52.219C124.44 52.1768 124.638 52.1435 124.833 52.0924C130.584 50.6042 136.437 49.7579 142.347 49.2603C143.527 49.1604 144.706 49.0649 145.937 48.9627C145.935 48.916 145.932 48.8694 145.928 48.825L142.43 39.809Z" fill="#9B1D1F"/>
<path d="M183.961 101.206C184.443 101.206 184.823 101.206 185.265 101.206C184.767 100.193 184.849 99.944 185.809 99.3865C185.949 99.3065 186.082 99.2133 186.229 99.1511C186.273 99.1311 186.313 99.1111 186.353 99.0911L186.571 95.1729C185.518 97.0898 184.616 99.0778 183.961 101.206Z" fill="#D52B1E"/>
<path d="M186.569 95.1729L186.352 99.0911C186.674 98.9179 186.842 98.6669 186.865 98.2426C186.898 97.6651 187.047 97.0943 187.147 96.519C187.342 95.4017 187.54 94.2822 187.735 93.1649C187.331 93.8268 186.942 94.4954 186.569 95.1729Z" fill="#FCA6A6"/>
<path d="M198.926 120.424C198.56 120.559 198.189 120.686 197.809 120.75C196.005 121.061 194.188 121.308 192.378 121.585C191.15 121.774 189.923 121.976 188.664 122.178C188.722 122.352 188.775 122.525 188.824 122.698C191.594 122.42 198.209 121.734 198.902 121.439C199.182 121.319 199.128 120.917 198.926 120.424Z" fill="#FCA6A6"/>
<path d="M198.102 102.669C198.273 108.262 198.442 113.856 198.613 119.471C198.92 119.526 199.215 119.56 199.495 119.642C199.61 119.675 199.737 119.804 199.77 119.917C199.79 119.984 199.662 120.155 199.566 120.188C199.353 120.264 199.142 120.346 198.929 120.426C199.131 120.919 199.184 121.321 198.902 121.441C198.209 121.739 191.596 122.423 188.824 122.7C189.375 124.642 189.36 126.585 189.22 128.618C189.451 128.618 189.651 128.638 189.844 128.616C193.164 128.238 196.49 127.878 199.806 127.465C201.179 127.294 202.38 126.794 202.925 125.344C203.207 124.593 203.4 123.833 203.487 123.06C203.044 120.957 202.58 118.975 202.414 118.307C202.074 116.947 199.291 107.852 198.102 102.669Z" fill="#D52B1E"/>
<path d="M203.485 121.252C203.174 118.707 202.59 116.223 201.877 113.762C200.802 110.05 199.778 106.325 198.721 102.609C198.583 102.125 198.376 101.661 198.201 101.188C198.154 101.199 198.105 101.212 198.059 101.223C198.074 101.705 198.087 102.187 198.103 102.669C199.294 107.851 202.077 116.947 202.414 118.304C202.581 118.973 203.045 120.952 203.487 123.058C203.554 122.465 203.561 121.865 203.485 121.252Z" fill="#FCA6A6"/>
<path d="M193.633 96.1012C194.555 97.274 195.921 98.8777 196.989 100.497C197.329 100.537 197.669 100.615 198.009 100.752C196.614 97.0141 193.548 94.1021 189.073 91.3922C189.035 91.6277 188.995 91.8609 188.957 92.0941C190.179 92.9759 192.618 94.8107 193.633 96.1012Z" fill="#FCA6A6"/>
<path d="M193.632 96.1013C192.617 94.8086 190.178 92.976 188.958 92.0964C188.607 94.2355 188.25 96.3279 187.952 98.4247C187.839 99.2155 187.577 99.7974 186.806 100.102C186.575 100.193 186.37 100.355 186.153 100.484C186.146 100.548 186.139 100.613 186.133 100.675C186.435 100.81 186.741 101.077 187.035 101.061C189.269 100.955 191.502 100.737 193.738 100.666C194.816 100.633 195.9 100.368 196.988 100.497C195.92 98.8778 194.553 97.2763 193.632 96.1013Z" fill="#D52B1E"/>
<path d="M196.634 130.539C196.39 130.566 196.141 130.592 195.895 130.617L196.936 139.919C197.236 139.853 197.532 139.786 197.811 139.733C197.414 136.612 197.027 133.602 196.634 130.539Z" fill="#FCA6A6"/>
<path d="M185.818 131.694C184.743 131.81 183.664 131.923 182.582 132.038C182.64 132.8 182.671 133.504 182.753 134.202C182.929 135.679 183.08 137.163 183.335 138.629C183.562 139.93 184.499 140.743 185.803 140.899C186.343 140.963 186.896 141.017 187.433 140.968C190.123 140.726 192.811 140.468 195.496 140.175C195.987 140.121 196.469 140.021 196.938 139.917L196.069 132.174L185.818 131.694Z" fill="#D52B1E"/>
<path d="M196.934 130.388C193.613 130.741 189.213 131.332 185.816 131.694L196.851 132.145L196.934 130.388Z" fill="black"/>
<path d="M172.944 142.152C172.462 142.8 171.762 143.28 170.738 143.478C170.787 144.118 170.838 144.755 170.892 145.395C171.713 144.644 172.458 143.562 172.944 142.152Z" fill="black"/>
<path d="M197.169 188.871C196.805 189.153 196.492 189.499 196.123 189.777C195.559 190.201 195.25 190.166 194.733 189.717C194.622 189.622 194.471 189.508 194.34 189.513C193.711 189.528 193.085 189.579 192.367 189.624C192.529 189.746 192.676 189.839 192.8 189.93C194.371 190.515 196.359 190.939 198.231 191.096C198.109 190.27 197.978 189.437 197.84 188.564C197.563 188.686 197.336 188.742 197.169 188.871Z" fill="black"/>
<path d="M193.056 190.17C193.173 190.339 193.271 190.703 193.185 190.792C193.045 190.936 192.725 191.007 192.518 190.956C192.258 190.894 192.054 190.637 191.796 190.534C191.339 190.352 190.866 190.201 190.388 190.079C189.924 189.961 189.684 190.226 189.591 190.681C190.033 190.799 190.504 190.865 190.917 191.054C191.13 191.152 191.243 191.467 191.401 191.683C191.154 191.794 190.903 192.009 190.666 191.994C190.23 191.967 189.806 191.803 189.375 191.698C189.051 191.621 188.844 191.723 188.618 192.003C187.867 192.922 187.065 193.8 186.285 194.695C186.092 194.917 185.917 195.15 185.652 195.477C187.9 196.016 190.001 195.999 192.063 195.394C194.388 194.712 196.261 193.213 198.173 191.805C198.249 191.749 198.309 191.601 198.296 191.505C198.276 191.367 198.256 191.23 198.236 191.094C196.363 190.934 194.375 190.512 192.805 189.928C192.902 190.006 192.991 190.079 193.056 190.17Z" fill="#D52B1E"/>
<path d="M176.332 91.9255C175.081 92.2942 173.773 92.5385 172.589 93.0605C170.528 93.969 168.542 95.0507 166.523 96.0569C164.055 97.2875 161.585 98.5114 159.102 99.7442C159.102 99.8153 159.106 99.8974 159.11 99.9818C162.058 99.6398 168.748 95.977 170.799 95.2218C171.814 94.8486 173.464 94.2466 175.026 93.6802C175.476 93.136 175.947 92.6074 176.409 92.0698C176.387 92.0232 176.358 91.9743 176.332 91.9255Z" fill="#FCA6A6"/>
<path d="M168.409 105.444C168.536 105.391 168.629 105.142 168.654 104.971C168.845 103.669 169.091 102.381 169.407 101.11L165.875 106.508C166.719 106.152 167.565 105.797 168.409 105.444Z" fill="black"/>
<path d="M159.113 99.9841C159.119 100.12 159.122 100.264 159.09 100.402C159.051 100.568 158.915 100.753 158.771 100.833C158.704 100.87 158.464 100.704 158.382 100.577C158.229 100.344 158.082 100.1 157.975 99.8419C156.68 99.0045 154.79 93.7224 153.875 90.9748C152.089 91.9544 150.197 92.4297 148.093 92.2898C148.093 92.3742 148.084 92.4164 148.095 92.4519C149.262 97.1454 150.574 101.797 152.478 106.255C153.253 108.072 154.486 109.484 156.558 109.717C157.376 109.809 158.295 109.584 159.079 109.278C161.356 108.385 163.617 107.447 165.874 106.503L169.406 101.106C169.681 99.9952 170.006 98.8979 170.397 97.8184C170.481 97.5829 170.623 97.3697 170.816 96.9965C170.896 97.3342 170.978 97.503 170.967 97.6651C170.91 98.4625 170.939 99.2888 170.736 100.053C169.866 103.325 169.466 106.661 169.308 110.026C169.166 113.007 169.022 115.992 169.044 118.976C169.084 124.118 169.239 129.258 169.375 134.4C169.441 136.856 169.57 139.313 169.69 141.77C169.697 141.921 169.835 142.136 169.966 142.196C170.883 142.614 171.891 142.138 172.413 141.043C172.884 140.053 172.958 138.993 172.922 137.911C172.76 133.114 172.609 128.316 172.456 123.52C172.402 121.852 172.402 120.182 172.28 118.52C172.122 116.372 171.791 114.233 171.676 112.083C171.487 108.542 171.401 104.995 171.307 101.45C171.298 101.121 171.489 100.748 171.687 100.464C172.1 99.8708 172.58 99.3244 173.042 98.7446C172.955 98.6225 172.878 98.507 172.795 98.3959C172.176 97.5629 172.149 97.3564 172.769 96.5256C173.455 95.606 174.181 94.7131 174.908 93.8224C174.948 93.7735 174.99 93.7269 175.03 93.678C173.468 94.2444 171.816 94.8464 170.803 95.2195C168.751 95.9792 162.06 99.642 159.113 99.9841Z" fill="#D52B1E"/>
<path d="M157.977 99.8442C157.955 99.7887 157.93 99.7332 157.913 99.6776C157.049 96.9966 156.205 94.3089 155.354 91.6257C155.218 91.1992 155.076 90.775 154.934 90.3374C154.585 90.5706 154.234 90.7839 153.879 90.9793C154.79 93.7248 156.682 99.0068 157.977 99.8442Z" fill="#FCA6A6"/>
<path d="M182.365 119.315C182.132 119.038 181.905 118.742 181.519 119.015C180.43 119.882 184.024 122.041 182.227 122.843C181.119 122.949 179.255 123.62 178.844 122.101C176.299 123.442 178.48 124.035 179.711 124.908C179.215 125.561 178.613 125.182 177.932 125.064C177.054 126.35 179.098 126.414 179.811 126.908C179.502 127.481 179.02 127.325 178.422 127.363C178.129 128.467 179.642 128.207 180.306 128.396C180.308 128.489 180.31 128.582 180.313 128.673C179.953 128.793 179.591 128.913 179.113 129.073C181.341 130.064 183.887 129.204 186.279 128.6C187.216 127.376 187.847 125.621 188.065 123.656C185.242 124.1 184.107 120.966 182.365 119.315Z" fill="#EED3CA"/>
<path d="M186.281 128.602C186.908 128.444 187.525 128.302 188.123 128.216C188.123 126.596 188.123 125.146 188.123 123.649C188.105 123.651 188.085 123.653 188.067 123.655C187.849 125.623 187.221 127.378 186.281 128.602Z" fill="black"/>
<path d="M196.644 141.634L196.784 141.587C196.786 141.414 196.784 141.243 196.786 141.07C193.15 141.523 189.649 142.043 186.015 142.032C185.944 142.032 185.877 142.03 185.809 142.027C188.416 143.011 192.346 143.156 196.595 143.158C196.624 142.192 196.644 141.634 196.644 141.634Z" fill="black"/>
<path d="M196.595 143.16C192.345 143.158 188.416 143.014 185.808 142.03C182.501 141.925 182.001 138.429 181.764 135.708C179.191 136.219 176.61 136.361 174.047 136.168C173.996 138.165 174.074 140.63 172.945 142.154C172.459 143.564 171.715 144.646 170.891 145.397C171.979 158.731 174 171.969 176.184 185.164C176.828 188.2 183.632 186.65 185.822 186.134C184.778 172.431 181.144 159.162 179.162 145.592C179.875 145.47 179.973 145.901 180.06 146.292C181.444 151.952 182.377 157.698 183.407 163.429C184.869 171.065 186.39 178.691 187.834 186.33C188.494 188.984 192.514 188.562 194.62 188.311C195.548 187.998 196.968 187.911 197.734 187.212C197.494 184.173 196.91 176.47 196.519 168.853C196.106 160.815 196.457 147.614 196.595 143.16Z" fill="black"/>
<path d="M197.298 172.187C196.976 162.505 196.747 152.798 196.781 143.109L196.596 143.111C196.459 147.52 196.105 160.786 196.519 168.851C196.909 176.467 197.494 184.168 197.734 187.209C197.942 187.018 198.104 186.783 198.193 186.483C198.289 181.716 197.387 176.956 197.298 172.187Z" fill="#6A6969"/>
<path d="M179.248 43.747C178.68 43.8625 178.025 43.7181 177.447 43.5582C176.792 43.3783 176.194 43.0029 175.546 42.7852C173.527 42.1055 171.499 41.4614 169.473 40.8039C169.446 40.8661 169.417 40.9261 169.391 40.9883C169.411 41.0438 169.424 41.1038 169.453 41.1526C171.157 43.8758 172.671 46.699 173.911 49.6644C174.062 50.0242 174.26 50.002 174.568 49.9353C176.969 49.4089 179.362 48.8492 181.776 48.396C186.407 47.5275 191.045 46.7123 195.714 46.1193L193.024 42.7564C188.4 42.5031 183.804 42.8208 179.248 43.747Z" fill="#B2B2B2"/>
<path d="M204.883 45.2086C204.787 45.1175 204.763 45.0797 204.727 45.0664C204.505 44.9731 204.281 44.8821 204.054 44.7976C200.656 43.5338 197.108 43.0118 193.517 42.783C193.352 42.7719 193.188 42.7652 193.023 42.7563L195.713 46.1193C198.257 45.7972 200.809 45.5373 203.377 45.3752C203.863 45.3463 204.345 45.2708 204.883 45.2086Z" fill="#9B1D1F"/>
<path d="M146.73 6.2573C146.73 6.12625 146.746 6.02407 146.728 5.93078C146.44 4.45367 146.153 2.97433 145.842 1.50166C145.813 1.36394 145.615 1.26399 145.495 1.14404C145.46 1.18847 145.416 1.23289 145.371 1.27509L146.262 6.2884C146.415 6.27729 146.571 6.26841 146.73 6.2573Z" fill="#CCCCCC"/>
<path d="M145.185 1.54159C144.943 3.1431 144.723 4.74904 144.492 6.40385C145.079 6.36387 145.656 6.32611 146.262 6.28613L145.372 1.27283C145.283 1.35945 145.199 1.44608 145.185 1.54159Z" fill="#6A6969"/>
<path d="M147.378 39.3928L147.156 39.4042L148.83 72.1845L149.052 72.1732L147.378 39.3928Z" fill="white"/>
<path d="M176.94 59.0001C176.915 58.9112 177.097 58.778 177.406 58.6714C177.713 58.5647 178.159 58.4892 178.61 58.5381C179.063 58.5825 179.487 58.7558 179.761 58.9201C180.036 59.0867 180.194 59.24 180.156 59.3333C180.118 59.4288 179.896 59.411 179.596 59.3399C179.296 59.2689 178.925 59.1667 178.552 59.1267C177.806 59.0356 176.993 59.1978 176.94 59.0001Z" fill="white"/>
<path d="M192.522 65.1197C192.558 65.0464 192.755 65.0664 193.022 65.1752C193.288 65.2819 193.626 65.4906 193.902 65.7838C194.179 66.0748 194.364 66.4302 194.455 66.699C194.546 66.9678 194.566 67.161 194.488 67.2032C194.41 67.2454 194.27 67.1055 194.11 66.8878C193.948 66.6679 193.757 66.3858 193.528 66.1415C193.08 65.6439 192.444 65.2774 192.522 65.1197Z" fill="white"/>
<path d="M194.666 65.1908C194.719 65.1308 194.903 65.1997 195.134 65.3751C195.363 65.5484 195.636 65.8372 195.825 66.1903C196.016 66.5435 196.103 66.9367 196.12 67.2188C196.138 67.5031 196.107 67.6941 196.02 67.7141C195.934 67.7341 195.836 67.563 195.738 67.3098C195.641 67.0544 195.53 66.7345 195.372 66.4391C195.065 65.8416 194.548 65.3241 194.666 65.1908Z" fill="white"/>
<path d="M175.786 62.312C175.735 62.2165 175.915 62.0122 176.25 61.8056C176.581 61.5968 177.083 61.3902 177.625 61.3147C178.167 61.237 178.709 61.3103 179.08 61.4191C179.453 61.5279 179.684 61.6568 179.671 61.7745C179.655 61.8944 179.391 61.9389 179.02 61.9477C178.647 61.9544 178.18 61.9455 177.725 62.0077C176.812 62.1166 175.897 62.5253 175.786 62.312Z" fill="white"/>
<path d="M177.064 60.5551C177.031 60.4929 177.149 60.3619 177.364 60.2308C177.579 60.0976 177.904 59.9687 178.255 59.9287C178.606 59.8865 178.954 59.9399 179.19 60.0176C179.428 60.0953 179.574 60.182 179.563 60.2575C179.552 60.3352 179.381 60.3597 179.141 60.3597C178.901 60.3597 178.601 60.3463 178.31 60.3797C177.726 60.4374 177.135 60.6951 177.064 60.5551Z" fill="white"/>
</svg>
