<svg width="200" height="200" viewBox="0 0 200 200" fill="none" xmlns="http://www.w3.org/2000/svg">
<path d="M195.882 133.771C195.841 133.168 195.786 132.507 195.371 132.037C194.89 131.235 189.691 128.798 189.572 128.42C189.743 126.657 189.923 124.881 189.844 123.105C189.507 115.433 183.013 111.614 177.225 107.652C170.292 102.908 162.857 98.2443 155.72 93.786C147.717 88.7886 139.552 83.63 130.486 80.7716C130.563 78.2432 127.138 76.956 125.183 76.039C122.346 74.7076 118.832 73.1384 115.66 73.3532C114.83 73.4089 113.456 73.9249 112.85 73.9192C112.125 73.9134 111.58 73.3322 110.339 73.5048C109.514 73.6199 109.257 74.2146 108.534 74.3124L102.988 70.938L102.951 63.3105C103.199 60.7073 103.214 58.081 103.379 55.4586C103.559 52.5848 103.997 49.7111 103.941 46.8258C104.369 47.0426 104.891 47.0349 105.311 46.7932C105.576 46.2753 105.677 45.7247 105.625 45.1415C107.047 45.3218 110.304 46.5995 110.989 44.8211C111.611 43.2058 111.561 39.8698 111.663 38.055C111.931 33.2725 112.165 28.1005 111.801 23.318C111.73 22.3837 111.672 20.5766 110.955 19.9531C110.469 19.5311 109.125 18.946 108.484 18.6333C108.108 18.4491 106.788 18.0251 106.604 17.8448C106.295 17.5455 106.548 16.2833 106.468 15.8056C107.908 16.0147 109.817 18.5776 111.164 16.9221C112.117 15.7499 111.384 14.7658 110.385 14.0618C107.124 11.7674 101.741 8.78428 98.1399 6.93688C96.9083 6.30573 95.4657 5.59977 94.1228 6.47647C93.3535 6.97909 92.4327 8.51187 92.4327 9.41735V64.5076L89.5168 62.9326C87.3145 58.2594 83.7674 53.7608 80.4985 49.7034C78.7796 47.5702 76.6463 44.8806 74.751 42.9584C73.2585 41.4448 71.4053 40.3244 69.8975 38.8204C70.1986 35.5515 70.1795 32.2154 70.1219 28.9196C70.0759 26.2953 70.001 23.552 69.8418 20.92C69.6692 18.0769 69.7823 15.2339 67.0525 13.6033C67.2789 10.1732 65.0996 4.49477 60.7564 6.37095C43.1705 17.041 24.8385 26.5447 7.28141 37.2531C5.45511 38.3677 4.31751 38.6439 4.14677 41.0669C4.02399 65.8658 4.02399 91.8177 4.14677 116.58C4.1084 117.856 4.682 119.007 5.47429 119.955C45.5666 143.472 86.0023 166.481 126.208 189.83L127.664 190.409H128.646L129.983 189.991C151.699 177.74 173.224 165.117 194.826 152.652C195.39 151.999 195.724 151.182 195.882 150.338C195.603 144.92 196.248 139.142 195.887 133.769L195.882 133.771ZM101.135 46.3405C100.797 52.6462 99.9604 58.95 99.7206 65.2769C99.6746 66.4682 99.7667 67.671 99.7264 68.8604L96.1678 66.9094L96.0949 11.963C96.4076 10.0466 96.7011 10.0715 98.2761 10.8696C99.9355 11.7098 101.58 12.8877 103.235 13.7702V16.5077C103.085 16.6746 99.9106 15.0708 98.961 15.2454C98.1399 15.395 97.879 17.0276 97.7792 17.7182C97.0733 22.6082 97.2133 28.2866 96.9179 33.2801C96.8009 35.2676 95.8436 39.0679 97.127 40.6525C97.6219 41.2625 99.3255 42.0625 99.5135 42.4769C99.8664 43.25 99.1547 44.0077 100.077 44.8595C100.862 45.5827 101.207 44.9804 101.135 46.3405Z" fill="black"/>
<path d="M4.14004 41.0703H4V116.584H4.14004V41.0703Z" fill="#C7C8DC"/>
<path d="M188.155 130.199C187.783 130.519 187.399 130.834 186.96 131.058C177.22 136.046 167.64 141.327 158.173 147.015C148.684 152.623 139.165 158.176 129.621 163.692C129.326 163.863 128.735 163.638 128.459 163.479C126.155 162.151 126.519 158.098 126.748 155.813C126.976 153.164 125.65 150.902 123.105 150.211C122.445 149.925 122.184 149.571 122.324 149.147C122.213 149.091 122.124 149.018 122.059 148.928C115.157 145.392 107.405 141.166 100.257 137.247C99.0443 136.581 97.8396 136.002 96.6099 135.465L96.4967 135.674C96.4372 135.965 96.2646 135.992 96.0094 135.879C89.3047 132.313 82.7496 128.679 76.346 124.975C75.7052 124.812 75.264 124.543 75.0204 124.165C72.8469 122.471 70.5755 120.9 68.2063 119.454L68.143 119.112C67.7075 118.696 68.4039 117.84 68.7377 117.44C71.0052 114.725 73.7274 112.337 76.5474 110.144C80.317 107.312 84.0195 104.452 87.6529 101.567C95.9768 96.2222 104.329 91.8943 113.48 88.0921L114.163 88.0461C117.881 89.1472 122.56 87.7871 124.106 83.9887L124.428 83.7412C125.698 83.2252 128.793 81.8324 130.093 81.9264C131.755 82.0453 136.923 84.4721 138.655 85.3066C148.408 89.9951 158.393 96.8495 167.508 102.773C173.18 106.461 180.29 110.554 185.139 115.18C189.513 119.352 189.151 124.587 188.153 130.203L188.155 130.199Z" fill="#C7C8DC"/>
<path d="M128.223 171.602L128.39 171.694C128.263 176.498 128.255 181.332 128.365 186.194C128.121 186.807 128.167 187.277 128.503 187.604C128.829 187.778 128.929 188.678 128.783 189.008C128.526 189.056 128.487 189.179 128.031 189.136C126.339 188.979 121.015 185.399 119.193 184.352C82.3195 163.158 45.5537 141.781 8.65553 120.631C8.69965 114.749 8.51741 108.848 8.63251 102.968C8.76296 102.669 8.93177 102.721 9.17925 102.847C48.1244 125.294 87.5069 148.108 127.331 171.284C127.76 171.184 128.058 171.292 128.221 171.602H128.223Z" fill="#7C5D5D"/>
<path d="M68.0056 37.9816C64.0653 36.3222 61.5484 34.8239 56.9884 35.1769C52.5128 35.5222 43.7112 39.7925 45.9672 45.4211C45.7044 46.0867 45.0637 45.352 45.1097 44.8225C45.3745 42.9962 44.7011 43.3338 44.2445 44.7765C43.7937 46.2018 45.1558 48.7264 45.902 49.9561L45.8291 50.334C40.5536 53.3171 34.9442 56.1909 30.3228 60.1619C29.2351 61.0981 27.4337 62.5925 27.3014 64.0888C26.605 64.8869 26.1196 65.6447 25.6362 66.6384L23.3418 71.9926C21.2201 72.9115 19.2576 75.4188 20.4009 77.7803L20.2839 78.1257C18.7262 79.0503 16.0309 80.9246 14.4866 81.525C14.2142 81.6305 14.0875 81.6114 13.8266 81.6344C13.4487 81.4656 13.5753 81.1318 13.9667 81.0723C14.264 80.5754 14.6631 80.0958 15.1638 79.6316C15.8851 78.3386 16.3282 76.8998 16.4932 75.3171C16.0289 74.991 15.8966 73.4333 16.3532 73.0707L16.5105 72.969C16.6256 73.4813 16.6256 73.439 16.5105 72.8424C16.804 66.2509 16.7004 59.6555 16.2131 53.1387C15.699 52.404 15.6011 51.3987 15.8026 50.6103C15.7834 50.7868 15.7316 50.7407 15.651 50.4722L15.5052 50.3321C15.3556 49.0986 15.0544 47.9994 14.4444 46.9136C14.2161 46.5069 12.9653 45.0105 12.7044 45.8412L12.8905 46.3611C12.3974 57.2479 12.4799 68.7639 12.7255 79.9385L13.4353 81.337L13.2684 81.6325C11.8373 81.4579 11.4133 80.303 11.3059 79.0331C10.8953 74.2006 11.2886 68.1405 11.2963 63.1699C11.304 58.679 11.2618 54.0806 11.4498 49.5667C11.515 48.007 11.1946 46.6066 11.937 45.141C12.5241 43.9803 13.1629 44.0302 14.1125 43.4566C14.4213 43.6063 14.3369 43.8019 14.1393 44.0302C12.8233 45.3942 14.5422 45.2925 15.5033 44.6671L64.7904 16.1062C65.859 15.9988 66.3021 17.4529 66.4728 18.2798C67.4551 23.0354 67.5625 28.1556 67.3399 33.0129C67.1769 34.7472 67.4666 36.2972 68.2051 37.6669L68.0114 37.9835L68.0056 37.9816Z" fill="#8585A7"/>
<path d="M128.643 171.603L128.765 171.342C129.918 170.791 131.117 170.237 132.368 169.681C152.149 158.385 171.927 146.946 191.706 135.361C192.636 134.44 193.45 133.997 193.987 134.639L194.437 150.188L194.192 151.393C193.979 151.698 193.929 151.951 193.444 152.118C172.033 164.315 150.842 176.913 129.343 188.943C129.166 189.039 128.95 188.978 128.783 189.008C128.497 188.811 128.389 187.805 128.503 187.604C128.739 182.444 128.714 177.256 128.432 172.04L128.643 171.603Z" fill="#916B6B"/>
<path d="M87.6574 101.564C87.6689 101.883 87.4636 101.939 87.2814 102.1C81.6451 107.074 74.3956 111.337 69.4788 117.002C68.9359 117.627 68.3469 118.283 68.1474 119.11C67.7273 119.192 67.6083 119.34 67.7867 119.549C70.0946 121.249 72.5309 122.885 75.0248 124.163C77.3192 124.779 81.9674 127.944 84.3347 129.241C88.1082 131.307 91.9756 133.519 95.7932 135.47C96.0215 135.587 96.2345 135.693 96.5011 135.673L97.1956 135.811C104.823 140.629 112.97 144.784 121.312 148.48C121.688 148.647 122.023 148.872 122.328 149.148C123.029 150.268 124.222 150.113 125.141 150.898C128.588 153.844 126.069 157.861 127.14 161.111C127.445 162.036 128.379 163.664 129.522 163.438C143.578 155.41 157.406 146.975 171.5 139.017C176.964 135.934 182.447 132.78 188.158 130.198C188.119 130.411 188.171 130.639 188.094 130.902C187.757 132.074 186.755 132.057 185.957 132.84C167.911 142.785 150.463 153.885 132.388 163.768C130.272 164.925 129.043 165.953 126.555 164.921L65.6976 129.77C65.101 128.9 65.7168 123.603 65.9681 122.333C66.8487 117.886 69.2735 115.377 72.4983 112.44C76.9336 108.404 82.6043 104.81 87.6593 101.564H87.6574Z" fill="#A8A9C3"/>
<path d="M75.0245 64.2288C75.3237 64.2538 75.6038 64.3459 75.8628 64.5051C79.0262 64.3344 82.1052 65.1631 85.002 66.6038C87.5976 67.8546 90.1509 69.1131 92.6659 70.3792L92.71 70.6842L92.781 71.1082C94.6112 70.8569 96.4509 70.8722 98.2945 71.066C98.5841 71.1753 98.8546 71.8583 98.6877 72.0923C97.9933 72.5201 96.7425 72.5527 96.5008 73.4908C97.7957 73.2088 99.3035 72.6122 100.272 73.8611C100.432 74.4289 99.6143 74.3196 99.2287 74.4654C97.0283 75.2941 95.7545 77.6518 96.4298 79.9462C96.7175 80.9226 98.0911 81.9873 96.1229 81.2353C93.1916 80.1169 93.4505 77.2892 92.1748 75.0773C90.7264 72.5661 87.5573 71.1139 85.2245 69.537C84.8197 69.2627 84.0236 68.4416 83.6553 68.2997C83.1277 68.0963 83.6956 69.184 83.7282 69.28C84.4917 70.477 85.3818 71.6185 86.5194 72.4798C89.3241 74.2505 91.1964 76.1785 92.1499 79.3841C92.1595 79.5126 92.4491 79.9174 92.2765 80.2128C85.9094 81.8281 79.9106 85.5018 75.0954 89.9083C74.729 89.2695 74.5007 88.5847 74.0998 87.9593C73.5013 87.0269 72.3809 86.154 71.9128 85.2351C70.9537 83.3513 70.4702 80.9744 69.4362 79.01C69.3269 78.8028 68.1528 76.6907 67.8689 76.9995L69.8314 83.0348C69.2693 82.6012 68.807 82.0353 68.1931 81.6555C67.9802 81.5231 67.1342 80.9552 67.161 81.4233C67.184 81.8262 68.2353 82.9139 68.5691 83.3149L68.7091 83.5949C68.7513 83.6448 68.807 83.6851 68.8492 83.735C70.4012 86.0869 72.0855 88.2854 73.9022 90.3323C73.9099 90.4723 73.9022 90.6143 73.9022 90.7543C72.0126 90.5241 70.3052 91.2071 68.8607 92.3792C68.7302 92.4847 67.7001 93.4727 68.3542 93.277C68.6919 93.1773 69.2329 92.7667 69.6511 92.6094C70.4472 92.3102 71.3201 92.0876 72.145 91.8747L70.9537 92.9298C71.2011 93.0334 71.6711 93.0372 71.9359 92.9989C72.2198 93.1504 72.4692 93.1888 72.6821 93.1178C75.4177 91.844 77.7256 90.8522 80.7892 91.161C81.0539 91.0095 81.217 90.9366 81.4798 91.1745C81.5201 91.1687 81.7024 91.3394 81.8194 91.3068L82.04 91.0958C82.0707 90.7946 81.8693 90.5817 81.7618 90.3323C82.1628 90.1078 83.0107 90.2709 83.4462 90.4723C84.0677 91.2781 85.6562 94.7887 83.8682 94.9633C83.7263 94.0943 83.3349 93.137 82.8265 92.4195C82.7095 92.2526 82.8227 92.0761 82.464 92.1567C82.5925 93.9005 83.308 95.8783 81.9095 97.2864C77.2133 99.577 72.9584 103.98 67.491 100.883C64.6671 99.2854 62.954 95.9685 62.3919 92.8588C60.8495 87.3224 59.3206 81.2948 60.1455 75.5953C60.8418 73.4409 61.8068 71.5398 63.236 69.773C63.4489 69.5102 64.4964 68.1251 64.7899 68.5203C65.0124 68.8214 65.1371 69.3644 65.4824 69.7653C66.7946 71.2904 70.0443 72.1268 71.9896 71.9273C76.5457 71.4592 77.3476 67.0105 74.0422 64.2941C74.3127 64.1387 74.7175 64.2576 75.0245 64.225V64.2288Z" fill="#F2BFB9"/>
<path d="M11.8618 84.5812L12.186 84.2494C13.245 83.576 18.7623 87.1922 18.862 87.5643C18.8908 87.6737 18.7335 87.7734 18.5992 87.8099L18.4553 87.9442C16.9647 87.2094 15.453 86.4478 13.9241 85.6613C23.7788 91.7215 33.8599 97.5649 44.1693 103.191C47.5303 105.194 51.0448 107.218 54.2504 109.004C55.0581 108.553 55.2154 109.603 55.0926 110.266C53.9358 113.424 53.6922 117.927 53.8226 121.29C53.8457 121.857 53.9723 122.707 54.0874 123.273C54.1238 123.459 54.0874 123.536 53.9013 123.457L14.0622 100.414C12.4508 99.6079 11.505 98.2286 11.3151 96.4234C11.083 94.1923 11.0484 87.4895 11.528 85.4445C11.6086 85.0973 11.7352 84.8844 11.858 84.5812H11.8618Z" fill="#B2C1E0"/>
<path d="M46.8102 51.1754C46.9215 51.1716 47.0922 51.185 47.1076 51.2617C47.5699 53.6961 47.9133 56.3032 48.1032 58.7396L47.9133 58.8566C46.0371 58.5151 46.722 59.5127 48.0802 59.8465C48.4984 60.0594 49.0336 60.5448 48.4945 60.8594L48.1972 61.0934C46.298 60.8344 44.3585 60.6023 42.4593 60.7174L43.0828 61.2603C47.0116 62.0008 50.7851 63.1212 54.4051 64.6213C55.7153 65.805 57.1465 66.4323 58.6984 66.5071C60.3578 66.0141 61.6278 66.1944 61.7122 68.1838C58.1901 72.1126 56.0913 76.7455 55.8093 82.1323C55.4966 83.9663 54.8885 85.8885 53.8296 87.3887C53.1812 87.7551 52.6709 88.0333 52.0052 88.3709L51.7174 88.2654C51.6196 87.0837 51.5755 85.902 51.5831 84.7222L51.3222 84.5533C51.4661 84.0603 51.4585 83.6479 51.3011 83.3198C51.0402 83.4695 50.812 83.2527 50.6144 82.6733C50.3419 82.6023 50.1501 82.4892 50.0388 82.3376C49.7434 82.3223 49.7242 82.1707 49.7089 81.9213L49.4768 82.1266C49.5861 82.1534 49.7357 82.1956 49.753 82.2877C49.8413 82.7347 49.8202 85.079 49.7568 85.5739L49.4768 85.7754C49.9026 86.0094 49.6475 87.335 49.1967 87.5307C48.953 88.1657 48.6691 87.665 48.4945 87.2506L48.1934 87.0415C47.8058 85.0713 46.5819 83.2488 45.3944 81.6412C40.8364 75.4813 35.5972 69.3463 30.2488 63.9499C29.7711 63.8732 29.2973 63.9384 28.8234 64.1417L28.5645 63.9499C29.1419 62.1447 33.9896 58.8086 35.6778 57.6595C39.2096 55.2558 42.9965 53.0976 46.8102 51.1773V51.1754Z" fill="#FEFEFE"/>
<path d="M92.2883 81.4941L92.6413 81.5479C94.1184 83.589 96.9653 84.6614 99.3134 83.543C100.117 83.401 100.626 83.5295 101.391 83.7252L106.843 84.2643C109.191 84.4389 111.138 85.3309 112.752 87.0076L112.5 87.2493C101.264 91.9839 91.2543 97.4014 81.2384 104.342C76.7456 107.456 69.9986 112.127 67.05 116.681C66.5954 117.381 66.323 118.225 65.7609 118.83C65.5153 118.534 65.4137 118.116 65.4559 117.575C64.56 116.787 63.5145 116.136 62.3212 115.626C60.4719 114.277 58.5727 113.038 56.6217 111.906C56.2265 111.872 55.9503 111.747 55.793 111.532C56.5622 108.637 59.2346 106.272 61.481 104.379C62.1064 103.851 65.0645 101.497 65.617 101.344C66.1695 101.19 67.0021 102.004 67.5316 102.253C70.131 103.479 73.1678 103.302 75.7327 102.065C76.9969 101.457 82.6254 98.3356 83.2259 97.4877C83.4311 97.198 83.598 96.5784 83.763 96.4115C84.3213 95.8494 85.9998 95.5943 85.8368 94.2744C87.2737 94.3703 88.5954 94.1094 89.8846 93.4783C90.7785 93.0409 92.4322 91.5829 93.1286 91.3777C93.5046 91.2664 93.9688 91.4697 94.4427 91.4467C95.4229 91.3988 96.4742 91.1494 96.8253 90.171C97.2377 89.02 97.5178 87.7769 96.902 86.6373C96.7908 86.4302 96.5663 86.3151 96.4416 86.1155C96.1519 85.6551 96.3399 85.3693 95.6167 84.9741C94.0513 84.1185 90.7901 84.4657 89.2035 85.2158C87.8377 85.8604 84.5591 88.4195 83.4829 88.6248C82.9515 88.7265 82.4278 88.4617 81.835 88.5116C81.2154 88.5615 80.7205 88.9835 80.1373 89.0622C79.345 89.1696 78.4875 89.0296 77.6932 89.2137C79.8898 87.2781 82.5391 85.5995 85.1289 84.2298C87.5614 82.9444 89.5987 82.0735 92.2902 81.4961L92.2883 81.4941Z" fill="#F5EFEF"/>
<path d="M9.33539 44.0187L9.6903 44.0245C10.074 44.7381 10.331 45.4844 10.4596 46.2632C9.69989 49.747 10.1929 55.6748 10.1795 59.4559C10.0471 62.581 9.95887 65.8998 10.1795 68.9999C10.1891 72.7139 10.1641 76.4337 10.1872 80.1496C10.4922 81.0608 10.9948 81.9279 11.8619 82.4018C11.4149 83.0943 10.8452 83.8482 10.5919 84.6424C9.86678 86.9119 10.0126 93.8353 10.1737 96.4443C10.2121 97.0524 10.4634 97.6222 10.4672 98.2361C9.37568 99.0437 7.96183 99.2816 7.51293 100.72C7.56281 100.885 7.47073 100.976 7.35179 101.073C7.25395 102.414 7.30766 103.512 7.51293 104.371C7.5513 109.514 7.48415 114.665 7.51293 119.81C6.07414 119.398 5.40079 117.907 5.26266 116.518V41.5517C5.20127 41.3215 5.3816 41.0951 5.40846 40.9301C5.53699 40.558 5.88998 40.1378 6.25064 40.51C6.57676 40.2971 7.50717 41.0778 7.74505 41.3867C8.37236 42.2039 8.92869 43.0653 9.33923 44.0187H9.33539Z" fill="#686880"/>
<path d="M65.1983 13.2782C64.6842 13.33 64.1797 13.3607 63.6828 13.5161L12.5176 42.9173C11.2515 43.8688 10.7853 44.7551 10.4573 46.261C10.0774 46.3435 10.1887 46.0672 10.1081 45.8447C9.88173 45.2059 9.77047 44.5498 9.33307 44.0146C8.78825 42.9019 8.18205 41.7701 7.3418 40.8512L7.36865 40.5058C7.89813 40.08 8.55038 39.7654 9.3254 39.5639C11.7368 38.3841 14.1636 37.0796 16.598 35.6754C31.6822 26.9812 46.6936 18.1068 61.6992 9.15754C63.138 8.31537 65.9561 12.672 65.394 13.1612C65.3384 13.2111 65.2693 13.2456 65.1964 13.2763L65.1983 13.2782Z" fill="#9999AF"/>
<path d="M124.291 167.392C124.226 167.356 123.992 167.405 123.886 167.311L8.77538 100.861C8.63342 100.657 9.3931 100.16 9.57151 100.045C9.74992 99.9302 10.9758 99.3029 11.0813 99.3086L12.3532 100.721L54.383 124.94C55.5187 127.045 58.3752 128.376 60.472 129.517C62.2887 130.507 63.691 131.386 65.8933 131.255L125.649 165.821L127.8 166.548C127.894 166.613 127.993 166.732 127.945 166.807C127.757 167.104 124.763 167.91 124.289 167.39L124.291 167.392Z" fill="#8B6767"/>
<path d="M73.197 51.0361C73.337 51.0822 74.2847 50.9 74.4612 50.8271C75.2266 50.5182 74.8142 49.9926 74.1792 50.334L73.8972 48.5096C74.16 48.454 74.2368 48.6401 74.3768 48.8012C75.7293 50.3475 77.1776 53.4706 77.5076 55.4964C78.1637 59.5308 76.5638 61.2995 73.1049 62.9474C72.4431 63.262 68.5833 64.6701 68.4241 65.0039C68.2898 65.2859 68.6523 65.2053 68.7713 65.213C70.024 65.2974 71.2844 65.2859 72.4738 65.7943L72.9169 68.1597C73.2507 68.2019 73.1414 68.1654 73.2123 67.9659C73.4713 67.2388 73.4195 66.2547 73.619 65.4931C76.3201 68.2019 74.4401 71.0027 70.8834 70.8243C69.6979 70.7648 66.4846 69.7231 65.9167 68.6335C65.7191 68.2537 65.675 67.1045 65.7556 66.6806C65.8208 66.3314 66.145 66.3909 66.1834 66.2355C66.4289 65.2648 65.9167 63.4347 65.3662 62.5867C64.8962 61.8635 63.9159 61.4549 63.935 60.5782C63.7048 60.3422 62.3274 61.9076 61.9284 62.1493C59.0029 63.92 55.7397 60.8372 58.107 58.75C59.2254 57.7639 60.4954 58.0248 61.8382 58.255C62.8224 58.4219 64.1288 59.3849 63.6569 57.4915C64.0655 57.739 64.3456 57.3304 64.7791 57.3495C64.359 56.1122 63.2885 55.3449 62.6152 54.2514C61.796 52.9239 61.2877 51.393 61.1131 49.841L61.1668 49.6626C63.16 47.7576 67.4323 44.5098 70.3117 44.8705C70.5631 44.9012 72.14 45.5573 71.7966 45.8393C71.3285 45.774 69.6768 46.056 69.8475 46.7255C70.0413 47.491 72.2627 46.6488 72.8383 46.7064L73.4809 47.4564C73.527 47.7634 73.4349 47.6214 73.2776 47.6694C72.7807 47.819 70.941 48.0339 70.9467 48.7187C70.9506 49.0986 71.411 49.0103 71.5836 49.2137C71.7083 49.3595 71.7678 49.747 72.0038 50.0559C72.1112 50.1959 73.126 51.0112 73.2008 51.0342C72.8421 50.8923 70.7798 50.171 70.6743 50.6851C70.5611 51.2414 73.3581 51.8284 73.8435 52.0107L74.1159 51.8802C74.4535 51.4697 73.5845 51.1858 73.1989 51.0342L73.197 51.0361Z" fill="#E5D0C7"/>
<path d="M11.8613 84.5811C12.0224 84.1821 12.4809 83.1365 12.8473 82.9696C13.4094 82.7145 14.4645 82.8603 15.0727 82.5284L23.3678 77.8418C23.4157 77.8782 23.7016 78.7952 23.7898 78.964L23.6594 79.2902C21.0983 80.305 21.5415 82.2867 23.0129 84.1379C27.2026 89.4096 35.7356 95.5408 41.6902 98.5929C45.0378 100.308 47.4281 101.44 51.0942 100.39C54.1636 99.5118 57.2215 98.1402 60.1297 96.736C60.4942 96.4405 60.6822 96.5748 60.9642 96.8108C61.6031 98.5105 62.6121 99.4543 63.9914 99.6404L64.354 99.8783C64.4308 99.9761 64.9104 100.247 64.9123 100.369C61.4669 103.138 56.6767 105.933 55.0902 110.264C54.8599 110.028 54.977 109.668 54.7966 109.365C54.6489 109.119 54.365 109.111 54.248 109L53.0106 108.244C41.9895 101.785 30.7439 95.159 19.6461 88.6039L18.5967 87.8059C18.6658 87.4932 18.4241 87.5085 18.2495 87.3877C17.1368 86.6146 13.9773 84.5293 12.7514 84.4449C12.4368 84.4238 12.1644 84.56 11.8594 84.5772L11.8613 84.5811Z" fill="#DDE5F4"/>
<path d="M51.0214 38.4037C54.2731 37.4253 57.3214 37.3544 60.715 37.7054C61.3596 37.7726 64.5095 38.2042 64.4155 39.1864C64.3887 39.4761 63.4564 40.0382 63.2338 39.666L63.205 39.8463C60.2469 41.3235 57.3041 43.0309 54.7833 45.237C54.1579 45.7837 53.5537 46.3842 53.1374 47.0959C55.5238 45.2063 58.0983 43.2189 60.8474 41.7743C63.5101 40.2492 66.9248 39.6123 69.2691 41.9892C69.6719 42.3978 70.5659 43.3858 70.2513 43.8807C68.7434 43.6927 67.6077 44.1013 66.2265 44.6979C61.4248 46.7755 57.0432 51.9418 55.3704 56.8605C54.9963 57.9636 54.4956 59.3314 55.4356 60.3078C55.8212 60.7088 56.2854 60.5975 56.3545 61.2824C54.438 61.4224 52.5388 59.0244 51.6084 57.5377C49.6996 54.4836 50.9792 52.241 51.5816 49.0738C51.2804 48.763 50.4209 50.1385 50.2943 50.3821C49.9586 51.0324 49.6843 51.8458 49.7553 52.5825C49.3083 52.1221 48.9841 51.1859 48.7711 50.549C48.4316 49.5265 48.0575 48.1107 48.0575 47.0384C48.0575 46.3401 48.8421 42.5513 48.6311 42.3364C48.1975 42.2271 47.9213 42.7469 47.764 43.0827C47.4762 43.6965 47.3688 44.4792 47.2249 45.1411C47.0254 45.1756 47.0331 44.8974 46.987 44.7497C46.7204 43.8903 46.5669 43.2093 46.8777 42.3364C47.3822 40.9226 49.7342 39.1634 51.0156 38.4037H51.0214Z" fill="#981A1D"/>
<path d="M25.4762 73.7731C26.7366 74.2162 27.9011 75.0354 28.9734 75.82C31.5652 77.7173 34.4332 80.1172 36.9117 82.1986C39.6013 84.4546 41.8592 87.1001 44.4222 89.2852C45.2567 89.9969 46.3252 90.4669 47.0945 91.1038C47.4686 91.4146 49.1088 93.7933 49.4771 93.4231C49.5826 92.5502 48.633 92.0303 48.6407 91.1843C52.3451 89.8434 55.7733 87.7735 59.0211 85.5635L61.1332 92.9224C60.1721 93.4557 59.163 93.9123 58.1789 94.4053L57.8662 94.3171L56.8054 90.2347C54.6165 91.4644 52.3163 92.4639 49.903 93.2332C50.0776 93.6322 50.1217 93.9756 50.0392 94.2653C50.1006 95.2878 50.4651 97.3769 49.9011 98.2325C49.7035 98.5337 48.3741 98.5126 48.0172 98.4627C46.9794 98.3188 42.3887 95.8364 41.1955 95.1803C34.9991 91.7714 28.9447 86.0412 25.5453 79.8103C24.8796 78.5921 23.6039 76.2248 23.6538 74.8954C23.7497 74.3736 24.3923 74.3467 24.3559 74.8954C24.6398 75.3596 24.7799 75.4517 24.7779 75.1754C24.3386 74.8493 24.9448 73.4911 25.4801 73.7712L25.4762 73.7731Z" fill="#E0E4EA"/>
<path d="M189.278 130.619L189.704 130.488C190.299 130.742 192.378 131.808 192.716 132.293C192.775 132.38 192.635 132.526 192.507 132.585C171.151 145.022 149.706 157.346 128.277 169.639C127.736 169.692 125.515 168.242 124.865 167.874C124.619 167.736 124.402 167.457 124.291 167.394C125.404 167.398 126.457 166.993 127.529 166.765C127.69 166.73 127.784 166.556 127.802 166.552C128.314 166.437 129.229 166.548 129.801 166.375C148.186 155.723 167.123 145.624 185.303 134.574C186.299 133.97 188.666 132.75 189.067 131.741C189.223 131.348 189.2 130.983 189.28 130.619H189.278Z" fill="#9D7E7E"/>
<path d="M6.10612 39.3853C24.7528 28.5541 43.3861 17.6366 62.192 7.11039C62.8423 6.97802 63.3258 7.34827 63.7958 7.73386C65.3995 9.04604 65.8235 11.3174 65.9002 13.2799C65.67 13.2972 65.4283 13.255 65.1981 13.2799C65.3899 12.1845 63.1991 9.47383 62.309 9.34914C62.1402 9.32612 61.979 9.34722 61.8237 9.41245C53.9909 13.9398 46.2924 18.7013 38.4827 23.2709C30.0897 28.1819 21.4724 33.4057 12.9375 38.0079C11.1611 38.9671 9.36161 40.0778 7.36841 40.5094C7.03269 40.7704 6.34207 40.4135 6.1042 40.0893C5.70901 39.9646 5.89701 39.6634 6.1042 39.3872L6.10612 39.3853Z" fill="#B4B4CE"/>
<path d="M64.4959 14.5426C66.4853 14.1263 67.9912 15.5996 68.3883 17.4586C68.7356 19.0892 68.632 20.9615 68.701 22.619C68.9197 27.862 68.9965 32.7251 68.7068 37.9833C68.678 38.2174 68.4881 38.2001 68.2847 38.1234C68.1696 38.0793 68.0891 38.0179 68.0047 37.9833C67.9567 37.6246 67.6498 37.4711 67.5347 37.1201C66.6695 34.4842 67.2354 31.5683 67.1683 28.7847C67.0973 25.8304 66.9323 22.6094 66.4393 19.6896C66.2915 18.8225 65.9712 16.2922 64.8566 16.3689L15.6328 44.9145C15.0688 45.2252 13.4439 45.9024 13.3902 44.7917C13.3537 44.0627 13.9811 44.0876 14.1077 43.4584C16.5977 41.9486 19.082 40.4101 21.6872 39.1075C21.8714 39.0538 22.0037 39.0001 22.1092 38.8274C22.1994 38.7852 22.2761 38.7354 22.3893 38.6874C22.7481 38.5378 23.0761 38.3498 23.3715 38.1253C23.4406 38.0984 23.548 38.0294 23.6516 37.9853C37.1398 30.1199 50.7546 22.3063 64.4979 14.5465L64.4959 14.5426Z" fill="#A5A6C8"/>
<path d="M65.7593 118.828C65.6788 119.56 65.1953 120.583 65.0112 121.379C64.3647 124.193 64.1767 127.186 64.4951 130.056C64.3704 130.184 63.2213 129.762 62.9969 129.661C61.8554 129.143 56.9674 126.325 56.1847 125.565C55.6859 125.082 55.4806 124.521 55.3253 123.858C54.5732 120.671 54.9473 114.715 55.7953 111.528C56.3804 111.44 56.8063 111.651 57.2954 111.923C59.0738 112.909 60.9077 114.435 62.6842 115.516C63.4439 115.981 65.5637 116.781 65.7306 117.523C65.8015 117.842 65.7977 118.492 65.7593 118.828Z" fill="#DAD5D5"/>
<path d="M12.7052 45.8429C12.7129 45.7316 12.7608 45.5724 12.8395 45.5762C14.5641 45.6568 15.3334 49.461 15.5905 50.8019C15.5943 50.8211 15.4619 50.4662 15.6518 50.4739C16.1046 50.3952 15.8878 50.7022 15.9281 50.9631C16.0394 51.6863 16.1199 52.4153 16.2139 53.1404C16.3712 57.5278 16.4288 61.9995 16.3885 66.5519L16.2139 67.4573C16.1238 68.8865 16.0029 70.9488 16.354 72.0883C16.6187 72.3646 16.5919 72.7789 16.354 73.0705C16.354 73.9587 16.4365 74.4498 16.494 75.3169C16.1429 77.5634 15.2567 79.3244 13.9675 81.0721C13.9598 81.2505 13.8582 81.4519 13.8275 81.6342C13.6644 81.6476 13.4246 81.6534 13.2654 81.6342L12.452 79.9901C12.1086 71.0677 12.2621 62.011 12.429 53.0771C12.4731 50.6715 12.1968 48.1987 12.7033 45.8429H12.7052Z" fill="#696989"/>
<path d="M64.3565 99.8801C62.0525 100.168 61.6611 98.3166 60.6233 96.803C58.8353 97.7123 57.0129 98.5833 55.1271 99.2835C53.6768 99.8225 50.546 101.004 49.1245 101.142C44.3822 101.603 34.7404 94.8923 30.9631 91.936C28.7647 90.2153 22.1424 84.7517 21.6072 82.2041C21.2676 80.5869 22.2709 79.3361 23.7903 78.9678C28.0012 87.0173 34.186 92.7936 42.1742 97.0063C43.4211 97.6643 46.644 99.4638 47.8603 99.6C50.0933 99.8494 52.2937 98.5353 54.2984 97.6145C56.6676 96.5248 58.9965 95.2951 61.3293 94.1268C61.8683 95.2932 62.2424 96.5095 62.8774 97.6356C63.2783 98.3454 63.8596 99.2374 64.3545 99.8782L64.3565 99.8801Z" fill="#B2C1E0"/>
<path d="M46.8119 51.1767C47.0459 51.0597 47.3912 50.4708 47.7231 50.8967C47.9111 51.1384 48.4079 52.7671 48.6113 53.2352C49.0717 54.2979 49.3288 55.0077 49.7163 56.059C50.7522 58.8599 52.9852 62.0444 56.1601 62.3897C56.3788 62.4127 56.6129 62.2362 56.8201 62.2842C57.0733 62.3417 57.9557 63.4832 58.9092 63.7115C59.6746 63.8956 61.0098 63.6251 61.3666 63.7671C62.3047 64.1412 63.2927 65.86 62.9531 66.894C63.2524 67.2048 64.8792 65.578 64.4034 67.0475C62.3239 68.6877 60.6472 71.1548 59.6036 73.5815C58.4238 76.3191 58.0459 78.7286 58.3222 81.7001C58.3605 82.1068 58.7941 84.2976 58.725 84.4166C57.1519 85.5216 55.5002 86.4443 53.8293 87.3862C54.071 86.2256 54.7501 85.207 55.0839 84.0789C55.7362 81.8786 55.7803 79.494 56.2848 77.2783C56.9237 74.4736 58.4085 72.1178 60.0314 69.7966C60.3787 69.2997 61.2822 68.4115 61.4875 68.0125C61.6371 67.719 60.7796 66.5775 60.4669 66.4931C60.1082 66.3972 59.6497 66.7176 59.2353 66.754C57.8541 66.8729 56.9697 66.7272 55.834 65.9425C54.9477 65.3306 54.7808 65.0716 53.6854 64.5805C50.3417 63.0841 46.5279 62.428 42.9885 61.5207C42.6816 61.3921 42.3861 61.066 42.461 60.7149C46.2459 60.924 50.3033 61.5705 53.7833 63.1513C52.2984 62.0616 50.3877 61.5955 48.619 61.1638L48.4962 60.855C48.5864 59.6713 45.9658 60.0186 46.6008 58.7486C46.8963 58.1597 47.8382 58.7122 47.9341 58.6086L46.8119 51.171V51.1767Z" fill="#E0E4EA"/>
<path d="M104.812 44.1909C104.398 44.6034 105 45.8119 104.217 45.8407L104.497 42.332C105.721 42.5353 108.495 43.7171 109.092 42.0845C109.769 40.2275 109.746 36.197 109.832 34.1232C109.926 31.8711 110.22 28.9033 109.825 26.6895C109.752 26.277 109.103 25.6114 108.754 25.3735C107.743 24.679 102.05 22.2791 100.906 22.1353C100.419 22.0739 99.642 22.0508 99.406 22.5765C99.1413 24.3989 98.867 26.2502 98.7423 28.0899C98.5619 30.7622 98.2991 34.4551 98.4622 37.0699C98.5005 37.6991 98.6195 39.0727 98.9015 39.5791C99.5019 40.663 101.317 40.6381 100.987 42.1229L100.709 44.0183L100.434 41.7315C99.2199 40.6803 97.5452 40.3925 97.4685 38.478C97.4032 36.8378 97.9308 34.4666 98.0382 32.7209C98.1552 30.8121 98.2128 28.886 98.326 26.9734C98.4085 25.5788 98.5581 16.6851 99.1643 16.2305C101.902 17.1973 104.72 18.1047 107.354 19.3383C108.605 19.9234 110.412 20.4797 110.638 21.9492C111.2 25.6037 110.78 30.6529 110.667 34.4014C110.611 36.2315 110.667 38.0483 110.531 39.8803C110.471 40.6841 110.23 43.8092 109.944 44.3463C109.752 44.707 109.034 44.613 108.632 44.588C107.801 44.5381 105.359 43.6499 104.81 44.1948L104.812 44.1909Z" fill="#F8F8F8"/>
<path d="M128.502 170.761C128.882 170.936 128.876 171.152 128.502 171.323C128.63 171.594 128.492 171.68 128.222 171.603L127.232 171.54C93.2515 151.938 59.3863 132.132 25.4309 112.488C20.069 109.386 14.7091 106.221 9.28963 103.222C9.08052 103.107 8.87717 102.994 8.63354 102.967C8.63929 102.708 8.5664 102.34 8.7026 102.127L126.493 170.174C127.138 170.416 127.792 170.836 128.504 170.761H128.502Z" fill="#9D7E7E"/>
<path d="M128.502 170.761C129.244 170.684 130.264 169.794 130.982 169.521L194.154 133.037L194.611 133.003C194.594 133.458 194.739 133.876 194.759 134.33C194.952 138.898 194.81 143.809 194.751 148.375C194.734 149.643 194.949 150.309 194.191 151.391L193.702 134.549C173.856 145.772 154.402 157.714 134.491 168.819C132.657 169.842 131.446 170.601 129.443 171.209C129.198 171.284 129.037 171.708 128.642 171.601C128.365 171.712 128.292 171.526 128.502 171.321C128.473 171.152 128.521 170.939 128.502 170.759V170.761Z" fill="#AB9090"/>
<path d="M28.5626 63.9489C29.0307 63.7378 29.4662 63.5479 30.0014 63.6745C30.1434 63.7091 30.1932 63.922 30.247 63.9489C31.4268 65.1191 32.7639 66.4792 33.3356 68.0197C37.0764 73.8611 41.0244 79.5818 45.1816 85.1815L46.0046 85.8606L45.6075 84.2837L45.8281 84.0209L46.1312 83.973L48.2894 87.3397L48.4946 87.2495L48.6807 87.2534C48.8188 87.5009 48.8764 87.5987 49.1968 87.5296C49.5804 88.1742 49.8241 86.745 49.9142 86.1868C50.1003 85.0338 50.0313 83.8579 49.826 82.7126L50.0389 82.3366C51.0633 82.1006 50.9118 82.9524 51.3031 83.3188C51.3607 83.3437 51.4125 83.3706 51.4432 83.4147C51.5122 83.5125 51.2686 84.8458 51.2187 85.101C51.2379 84.8554 51.3166 84.7461 51.5832 84.7211L51.8633 85.9163L52.0053 88.3699C50.695 89.0356 48.838 90.4571 47.3398 89.8758C45.0243 88.978 40.3415 83.3802 38.6763 81.2757C35.6971 77.508 32.5471 73.0132 30.2239 68.8139C29.5065 67.5171 28.0945 65.4126 28.5645 63.9469L28.5626 63.9489Z" fill="#E0E4EA"/>
<path d="M100.849 75.739C100.59 76.3222 100.166 76.8133 99.9381 77.4234C99.6446 78.2099 99.259 79.1154 100.076 79.6679C100.732 80.113 104.349 80.7921 105.127 80.6444C105.906 80.4966 105.701 79.5144 106.041 79.313C106.223 79.2056 107.545 79.1902 108.038 79.0636C108.557 78.9293 109.382 78.3289 109.651 78.2886C110.242 78.1984 112.068 78.8833 112.868 78.9466C114.121 79.0464 114.311 78.5514 115.339 78.2234C116.791 77.7591 118.431 77.7227 119.872 77.1337C120.937 77.3582 121.096 77.9644 120.039 78.4305C119.592 78.6281 117.614 78.9351 118.535 79.737C118.773 79.9442 121.002 80.2607 121.42 80.2319C122.236 80.1763 122.966 79.4895 123.488 79.5528C124.737 79.7043 124.281 81.5364 124.014 81.3484C123.329 79.7869 121.589 80.8784 120.361 80.9283L120.425 81.3561C121.478 82.0064 123.118 80.3374 123.569 81.9604L122.817 82.6203C122.512 82.6203 122.381 82.0985 122.12 81.9067C121.276 81.2851 120.169 82.0985 119.239 82.1925C119.437 83.5027 122.159 81.5652 121.911 83.238C121.775 84.1588 121.328 83.1594 121.205 83.1018C120.415 82.72 119.222 83.4625 118.393 83.5219C118.027 83.7541 118.499 84.1166 118.754 84.1569C119.383 84.2586 120.219 83.6946 120.921 83.8749C120.478 86.035 117.294 85.2101 115.761 84.7535C114.176 84.2816 111.744 82.8294 110.426 82.651C106.637 82.1369 102.772 82.0314 98.9866 81.4578C96.1417 79.7619 97.3924 74.8739 100.851 75.7333L100.849 75.739Z" fill="#E5D0C7"/>
<path d="M85.4114 64.2295C84.1606 63.7039 82.3285 63.1361 80.9876 62.9672C79.0999 62.7313 77.2045 63.0632 75.3053 63.1054C76.3432 62.1634 77.546 61.6014 78.1369 60.2547C79.4778 57.1987 78.3901 53.2027 76.8208 50.4325C76.1743 49.293 74.9907 48.307 75.1634 46.966L74.6876 47.2423C73.7495 46.5843 74.2636 45.9665 74.1831 45.0706C74.1409 44.6045 73.8761 44.1997 73.8301 43.7412C75.3801 45.3258 76.8477 47.0063 78.2481 48.7252C80.9377 52.0248 86.6008 58.8696 88.0779 62.5471L88.0683 62.8752L86.3974 63.6636C86.0579 63.9897 85.7279 64.1797 85.4114 64.2315V64.2295Z" fill="#F8F8F8"/>
<path d="M108.568 26.7529C108.664 26.9217 108.796 26.9351 108.842 27.2459C109.063 28.723 108.871 30.2673 108.842 31.7292C108.777 35.0211 108.674 38.2862 108.123 41.5359L107.918 41.7508C106.788 42.1287 104.551 40.782 103.883 41.2232C103.183 41.6549 103.339 44.9027 103.093 45.1406L101.825 44.6245C101.8 43.4754 102.353 41.5858 101.869 40.5403C101.562 39.8785 100.116 39.7423 99.7627 38.7159C99.2505 37.2253 99.6572 33.1526 99.7244 31.3838C100.166 29.8069 100.603 27.2977 100.829 25.3275C100.829 24.9592 101.019 24.8901 101.315 24.8211C101.61 24.752 106.87 26.0258 107.534 26.2292C107.824 26.3174 108.163 26.4479 108.434 26.5841C108.507 26.6205 108.559 26.657 108.566 26.751L108.568 26.7529Z" fill="#B2C1E0"/>
<path d="M108.851 15.1051C108.757 15.2547 108.831 15.6652 108.421 15.4676C105.208 13.7353 102.067 11.5541 98.8385 9.88705C96.3082 8.58063 95.1246 9.25974 95.0958 12.1565C94.8176 12.7282 94.6718 13.3728 94.6622 14.0902L94.6737 65.4569L94.3937 65.6314C93.9754 65.6257 93.5208 65.4972 93.5438 65.008V9.9753C93.5975 9.39595 93.8028 8.57104 94.1136 8.08569C95.044 7.36821 96.3389 7.89194 97.3019 8.30823C100.726 10.2611 104.225 12.2639 107.803 14.3185L108.853 15.1031L108.851 15.1051Z" fill="#B2B2B2"/>
<path d="M95.095 86.1248H92.9195C92.5934 86.1248 91.7992 86.4566 92.3862 86.8C93.2725 87.318 94.5674 86.566 95.5496 87.0053C95.8988 87.1607 96.2479 87.5635 95.6034 87.5156C95.0336 87.4734 93.261 87.1262 92.9157 87.6652C92.7737 87.788 92.8562 87.9434 92.9848 88.024C93.4605 88.3251 95.5688 87.9357 96.0772 88.6513H93.0596C92.555 88.6513 92.674 89.3534 92.9195 89.3534H95.6571L95.5765 90.0709C94.7842 90.4335 94.061 90.1841 93.3397 90.1821C92.3095 90.1783 90.2952 92.0046 89.2036 92.5149C88.0871 93.0367 86.9438 93.265 85.7102 93.1249C85.4052 91.8914 84.9659 90.6867 84.1621 89.6814L84.2906 89.4263C87.6689 87.6384 90.4506 84.661 94.6269 85.8236C94.8168 85.8773 95.0547 85.8811 95.0969 86.1248H95.095Z" fill="#E5D0C7"/>
<path d="M51.0215 38.4037C55.9095 35.5031 61.421 35.6834 66.3206 38.4747C65.935 38.6895 65.0909 38.7528 64.7801 39.0368C63.913 39.8291 66.2573 39.2574 66.3954 39.2478C66.9 39.2113 67.7191 39.1883 68.2064 39.2574C69.6183 39.4569 71.4177 41.8395 72.1928 42.9906C72.6417 43.6582 73.269 44.4159 72.9908 45.2792C72.1429 44.3986 71.4561 44.0265 70.2533 43.8768C69.9291 43.2553 69.3804 42.4285 68.8529 41.9777C68.6322 41.7897 67.1513 40.8324 66.9479 40.794C66.3858 40.6885 64.784 40.7422 64.1643 40.8055C62.9941 40.9225 61.9831 41.5249 60.8494 41.7705L60.928 41.3695C61.7625 40.8381 62.5318 40.2703 63.2358 39.6641L64.2181 39.1749C64.1413 39.0195 63.0325 38.3807 62.8195 38.327C60.9184 37.8435 57.003 37.6958 55.0271 37.8416C53.8741 37.926 52.8459 38.3538 51.7831 38.5322C51.5663 38.5687 51.1577 38.6262 51.0234 38.4018L51.0215 38.4037Z" fill="#B33639"/>
<path d="M95.0946 12.1562V65.9823C95.0716 66.1703 94.2102 65.9746 94.3925 65.6331L94.3867 14.0459C94.6304 13.4166 94.2313 12.2694 95.0946 12.1562Z" fill="#E0E4EA"/>
<path d="M50.0399 94.2652C49.8117 93.8643 49.5239 93.4864 49.6179 93.0029C52.2499 92.5713 54.5904 90.8447 56.973 89.7666L58.1796 94.4072C55.8469 95.5774 53.5333 96.8474 51.0931 97.7778C51.0797 96.8339 51.0509 96.0033 50.6557 95.1266C50.4984 94.7774 50.1685 94.4935 50.0399 94.2691V94.2652Z" fill="#FEFEFE"/>
<path d="M23.6523 74.8965C23.6868 73.9661 24.0686 73.5287 24.6306 72.8572C25.1429 72.2453 28.5883 69.1528 29.1811 69.2948L36.2829 80.2296C33.9406 78.5491 31.6711 76.3621 29.1676 74.9233C28.3811 74.4725 26.2555 73.2812 25.4747 73.7723C25.1851 73.9545 24.834 74.7929 24.7726 75.1765C24.6402 75.3281 24.5002 75.2341 24.3506 74.8965C24.059 74.7718 24.0168 74.7372 23.6484 74.8965H23.6523Z" fill="#F8F8F8"/>
<path d="M92.2891 81.4946C92.6593 81.4159 93.3365 80.9996 93.8391 81.1339C94.0636 81.1934 94.9978 82.0087 95.4218 82.2216C96.5843 82.8067 97.6816 83.0907 98.9248 82.5209C102.597 83.3074 106.804 83.1098 110.433 83.7736C111.348 83.9405 113.445 85.0819 114.469 85.4925C114.868 85.6517 115.3 85.8052 115.73 85.8474C115.716 86.0507 115.515 86.0622 115.383 86.1294C114.556 86.5553 113.407 86.868 112.501 87.2478C112.524 86.9006 112.284 86.891 112.083 86.7529C111.509 86.3596 110.905 85.8397 110.387 85.5021C108.808 84.47 103.443 84.211 101.359 84.0038C100.945 83.9616 100.488 83.7583 100.074 83.7391C99.1933 83.6969 98.4106 84.2705 97.5454 84.3069C95.7172 84.3836 93.1466 83.154 92.2891 81.4946Z" fill="#DAD5D5"/>
<path d="M27.3005 64.0889C27.1528 65.7732 27.9815 66.811 28.6913 68.2326C26.9916 69.2627 22.8959 72.1672 22.5621 74.1585C22.4144 75.0428 22.5736 75.8716 22.7501 76.7233C21.9655 77.2509 21.0907 77.6461 20.2831 78.1257C18.9997 76.1996 20.3214 73.6942 21.9636 72.4377C22.2878 72.1902 23.0091 71.9638 23.0551 71.9159C23.2681 71.7029 24.9697 67.2676 25.4512 66.3814C25.879 65.5948 26.3893 64.2788 27.3005 64.0889Z" fill="#696989"/>
<path d="M75.0254 64.2286C78.5341 63.8469 81.099 63.7452 84.4658 65.1034C86.271 65.8324 87.7922 67.0467 89.4785 67.9503C89.8583 68.1536 94.2725 70.0567 94.1133 70.262C93.7124 70.2735 93.0601 70.7128 92.711 70.684C92.4673 70.6648 91.0995 69.8533 90.7005 69.6768C86.4916 67.8275 82.6452 65.1897 78.0411 64.7907C77.4387 64.7389 75.7716 64.9308 75.388 64.6622C75.2172 64.5413 75.4551 64.1212 75.0254 64.2286Z" fill="#F5DDDA"/>
<path d="M101.831 70.1242C101.715 70.2432 100.998 69.8442 100.921 69.7022C100.76 69.4068 100.823 65.4165 100.845 64.7144C100.879 63.5595 101.077 62.2301 101.13 61.0695C101.351 56.2927 101.464 51.0497 102.114 46.3305C102.141 46.1425 102.034 46.083 102.324 46.1214C103.143 46.2308 102.985 46.9482 102.96 47.6024C102.805 51.7653 102.166 56.0318 101.967 60.2215C101.811 63.5116 101.829 66.817 101.831 70.1223V70.1242Z" fill="#E0E4EA"/>
<path d="M124.431 83.7383C123.243 88.0642 117.31 89.7044 113.482 88.0892C116.022 87.0341 116.483 86.7214 119.293 86.3895C121.384 86.1439 121.365 85.0831 122.698 84.3215C123.251 84.0049 123.918 83.9455 124.431 83.7383Z" fill="#A5A6C8"/>
<path d="M98.6061 69.7043C98.6752 69.7465 98.6733 69.7945 98.6061 69.8443C97.8215 69.6276 96.2503 70.1398 95.6192 69.9556C95.3736 69.8846 94.8154 69.2976 94.4931 69.1154C92.5498 68.02 90.2113 67.4867 88.5039 65.9846C88.9988 65.5683 89.3173 64.9966 89.49 64.377L89.8046 64.3981C92.757 66.1342 95.6614 67.9643 98.608 69.7043H98.6061Z" fill="#DDE5F4"/>
<path d="M98.6055 69.7041C101.736 71.5553 104.951 73.28 108.011 75.2502C108.017 75.4689 107.747 75.7355 107.543 75.7182C107.34 75.701 106.066 75.0929 105.623 74.9682C104.81 74.7399 103.438 74.3389 102.636 74.5077C102.248 74.5902 101.897 75.0219 101.412 74.8972C101.408 74.0627 101.581 73.5428 100.919 72.9327C100.67 72.7044 99.8735 72.363 99.7949 72.2325C99.6587 72.0081 99.7527 71.4191 99.6203 71.0048C99.4361 70.4273 98.9604 70.2604 98.6055 69.8441V69.7041Z" fill="#E0E4EA"/>
<path d="M99.7265 31.3862C99.834 28.616 99.9644 25.8593 100.289 23.1064C102.092 23.6091 103.864 24.2901 105.576 25.0459C106.178 25.3126 108.183 26.149 108.53 26.5154C108.597 26.5864 108.547 26.7168 108.568 26.7533L101.129 25.0689C101.008 27.0506 100.546 29.0208 100.045 30.9411C99.9817 31.1848 100.131 31.4687 99.7246 31.3862H99.7265Z" fill="#DDE5F4"/>
<path d="M106.185 76.3017C106.29 76.4437 104.496 78.9011 104.775 79.5208L100.715 78.8206C100.654 77.9439 101.793 76.0101 102.538 75.6706C103.322 75.3138 105.321 76.1272 106.185 76.3017Z" fill="#E0E4EA"/>
<path d="M45.9682 45.421C46.1658 45.914 46.9101 46.5873 47.0291 46.9576C47.2362 47.6098 46.9696 48.5671 47.2458 49.2827C47.2305 49.9004 46.2713 50.0826 45.8281 50.3339C45.7034 50.1133 45.4944 49.9579 45.3792 49.7297C44.8632 48.7167 43.7947 46.4089 43.8561 45.3462C43.8906 44.7419 44.3606 43.1208 45.1855 43.3242C45.7898 43.4738 44.8632 45.5783 45.9682 45.421Z" fill="#696989"/>
<path d="M62.3917 92.8622C62.1769 92.726 62.15 92.4843 62.0733 92.2694C60.2335 87.0859 58.4111 80.9682 60.1453 75.5986C60.4273 75.7425 60.2374 76.0917 60.2182 76.3008C59.7079 81.6051 61.4325 87.5578 62.3917 92.8641V92.8622Z" fill="#F5DDDA"/>
<path d="M92.1483 79.3882C91.8471 79.4496 91.6572 78.9835 91.5632 78.7801C91.3003 78.2084 91.1354 77.5562 90.8438 76.9711C89.1805 73.6235 84.9831 73.0806 83.7266 69.2803C85.8329 71.8029 89.5354 72.6835 91.1891 75.6416C91.9756 77.0459 92.0351 77.8267 92.1483 79.3844V79.3882Z" fill="#F5DDDA"/>
<path d="M94.1113 8.08563C94.5526 7.39501 95.3046 7.10342 96.1141 7.278L109.13 14.5448C109.192 14.8288 108.956 14.9343 108.85 15.105C105.812 13.4552 102.794 11.7593 99.7725 10.0769C97.8982 9.03331 96.4671 7.67893 94.1113 8.08755V8.08563Z" fill="#E0E4EA"/>
<path d="M81.4815 91.1783C81.1975 91.2148 81.046 91.4277 80.716 91.4661C79.6628 91.5927 78.5425 91.3299 77.4318 91.5486C75.7608 91.8785 73.8597 93.1888 72.137 93.5609L71.9375 93.0027C72.3864 92.9394 73.0022 92.6478 73.4358 92.4655C75.8107 91.4661 79.3137 88.5482 81.4815 91.1783Z" fill="#F5DDDA"/>
<path d="M64.4947 14.543C64.5695 14.8825 64.322 14.8346 64.1244 14.9382C53.3815 20.6108 42.861 27.2024 32.3042 33.2338C29.4842 34.8452 26.5394 36.7176 23.6484 37.9818C23.8844 37.6652 24.3352 37.4561 24.6767 37.2566C36.3635 30.4099 48.104 23.5459 59.9078 16.9045C61.1279 16.2177 63.2228 14.8096 64.4947 14.543Z" fill="#8585A7"/>
<path d="M68.8477 83.7383C70.1234 85.2154 73.8009 88.446 73.9007 90.3356C73.563 90.3855 73.4805 90.2512 73.2772 90.0459C71.5391 88.2906 69.9929 85.9195 68.8477 83.7383Z" fill="#F5DDDA"/>
<path d="M88.0767 62.5449C88.2436 62.9612 88.5525 63.2816 88.4968 63.8667C88.4719 64.118 88.0671 64.916 87.8523 65.058C87.1616 65.5127 86.095 64.5189 85.4102 64.2312C85.8149 63.3583 87.2614 63.036 88.0767 62.5468V62.5449Z" fill="#E0E4EA"/>
<path d="M111.236 74.4768L108.846 77.4887C108.101 77.9318 107.355 78.2388 106.465 78.1237C106.632 77.4139 107.226 77.577 107.714 77.3391C109.049 76.6907 109.381 74.2658 111.236 74.4768Z" fill="#DAD5D5"/>
<path d="M189.277 130.618C189.329 130.386 189.421 130.159 189.419 129.916C189.529 129.902 189.632 129.92 189.742 129.943C189.968 129.991 193.066 131.779 193.214 131.947C193.321 132.07 193.392 132.109 193.348 132.3C193.321 132.337 192.633 132.51 192.506 132.582C192.542 132.254 191.952 132.051 191.706 131.907C190.929 131.454 190.118 130.931 189.277 130.616V130.618Z" fill="#AB9090"/>
<path d="M105.342 17.2092L104.359 16.8581V14.5426C104.568 14.4275 105.342 14.9589 105.342 15.0337V17.2092Z" fill="#9999AF"/>
<path d="M10.1764 69.001L9.88867 66.5512C10.0517 64.4391 10.0076 62.3423 10.0326 60.2263C10.0364 59.9884 9.94238 59.6028 10.1745 59.457C10.163 62.6358 10.1649 65.8222 10.1745 69.001H10.1764Z" fill="#8585A7"/>
<path d="M83.4452 90.4759C82.839 90.6504 82.3345 90.6063 81.7609 90.3358C81.6937 90.1766 81.3542 89.9828 81.4846 89.6414C82.2654 89.2443 82.9906 89.8869 83.4452 90.4759Z" fill="#F5DDDA"/>
<path d="M7.50806 104.371C7.08217 104.449 7.23756 104.156 7.22797 103.885C7.17425 102.545 7.17809 101.215 7.08984 99.8799C7.38144 99.8971 7.1685 100.413 7.22605 100.63C7.26634 100.778 7.50038 100.709 7.50806 100.722C7.60781 100.876 7.50422 103.849 7.50806 104.371Z" fill="#8585A7"/>
<path d="M6.10643 40.0878C6.42296 40.1665 6.50353 40.2816 6.24646 40.508L5.4043 40.9281C5.50022 40.3353 5.44267 39.7425 6.10643 39.3838C6.13137 39.6044 6.06998 39.8787 6.10643 40.0859V40.0878Z" fill="#9999AF"/>
<path d="M23.3709 38.123C23.4495 38.6084 22.6611 38.57 22.3887 38.6851C22.5728 38.3034 23.0237 38.2593 23.3709 38.123Z" fill="#8585A7"/>
<path d="M68.7072 37.9814C68.7015 38.0735 68.713 38.1695 68.7072 38.2615C68.4674 38.3575 68.3811 38.1579 68.2871 38.1215L68.7092 37.9814H68.7072Z" fill="#8585A7"/>
<path d="M22.1076 38.8242V39.1043H21.6855C21.7393 39.0774 21.8505 38.9432 22.1076 38.8242Z" fill="#8585A7"/>
<path d="M68.7067 83.599L68.5664 83.3184C68.6664 83.4395 68.6875 83.576 68.7067 83.599Z" fill="#F5DDDA"/>
<path d="M124.993 82.1941C125.442 80.9798 125.85 79.4777 124.438 78.7468C123.122 78.0658 122.439 78.67 121.271 79.2436C121.843 78.2998 122.43 77.3483 121.333 76.5195C119.951 75.474 118.933 76.3296 117.553 76.6519C116.746 76.8418 115.896 76.8956 115.104 77.1507C114.612 77.308 113.726 77.9085 113.394 77.943C113.112 77.9737 110.987 77.544 110.597 77.4269C110.496 77.3962 110.285 77.4634 110.394 77.214C110.496 76.9838 111.704 75.6812 111.948 75.5393C113.181 74.8122 115.919 74.3575 117.338 74.4784C119.629 74.6741 125.939 77.4346 127.98 78.7142C128.734 79.1861 129.933 80.0916 129.054 80.997L124.991 82.196L124.993 82.1941Z" fill="#F5EFEF"/>
<path d="M96.5 135.671C96.383 135.588 96.2679 135.205 95.9399 135.249C95.9053 134.999 96.2583 135.107 96.3964 135.143C97.3652 135.398 98.4069 135.987 99.3105 136.442C102.925 138.265 106.401 140.432 109.973 142.343C113.505 144.233 117.261 145.919 120.737 147.86C120.971 147.991 122.247 148.687 122.3 148.76C122.389 148.881 122.298 149.101 122.327 149.147C116.38 146.961 110.637 143.851 105.108 140.751C102.355 139.206 99.0476 137.468 96.5 135.673V135.671Z" fill="black"/>
<path d="M158.82 119.953C157.745 115.784 154.868 112.047 151.493 109.277L151.24 108.724C152.288 108.644 153.446 109.632 154.254 110.272C156.777 112.271 159.884 116.333 160.209 119.619C160.414 121.702 158.806 120.906 158.82 119.955V119.953Z" fill="#A5A6C8"/>
<path d="M151.239 108.722C154.038 110.847 156.584 113.902 158.099 117.09C158.673 118.297 158.836 118.694 158.819 119.95C157.15 117.886 156.135 115.388 154.464 113.286C153.04 111.494 151.241 110.046 149.628 108.438C149.131 106.949 150.775 108.369 151.239 108.722Z" fill="black"/>
<path d="M152.646 113.917C153.499 113.075 153.987 114.429 154.311 115.129C155.093 116.829 156.124 120.708 155.842 122.515C155.807 122.732 155.243 124.372 155.157 124.426L154.19 124.163L153.952 123.946C154.198 120.731 153.685 117.195 152.486 114.199L152.646 113.917Z" fill="#A8A9C3"/>
<path d="M152.645 113.917C153.725 115.612 154.694 122.265 154.189 124.163C154.116 124.435 154.335 124.491 153.769 124.445C153.048 120.875 153.038 117.155 151.807 113.696L152.152 113.358C152.351 113.52 152.509 113.704 152.647 113.919L152.645 113.917Z" fill="black"/>
<path d="M68.1456 119.11C69.4692 119.708 71.9938 121.577 73.2427 122.503C73.8336 122.942 74.7429 123.497 75.023 124.161C74.3112 123.969 74.1328 124.011 73.3847 123.623C71.4011 122.597 69.4769 120.949 67.5873 119.737C67.2267 119.156 67.5048 118.818 68.1456 119.108V119.11Z" fill="black"/>
<path d="M150.82 119.111C151.666 118.932 151.771 119.538 151.88 120.227C152.084 121.514 151.844 124.026 150.827 124.943C150.44 125.29 149.968 125.558 149.839 124.866L149.697 124.511C150.353 122.899 150.616 121.127 150.562 119.393L150.823 119.113L150.82 119.111Z" fill="#A5A6C8"/>
<path d="M150.821 119.11C150.976 120.733 150.579 123.398 149.838 124.865C149.693 125.155 149.522 125.554 149.136 125.427C148.785 125.088 150.466 119.711 150.282 118.784C150.635 118.27 150.776 118.659 150.819 119.112L150.821 119.11Z" fill="black"/>
<path d="M128.642 171.603C129.337 175.39 128.748 182.137 128.775 186.277C128.777 186.674 129.018 187.202 128.786 187.511C128.69 187.639 128.508 187.591 128.5 187.605C127.541 187.658 128.069 186.668 128.086 186.137C128.224 181.702 127.754 176.871 128.074 172.511C128.094 172.259 128.145 171.832 128.22 171.603C128.264 171.465 128.366 171.373 128.5 171.323C128.516 171.408 128.625 171.517 128.64 171.603H128.642Z" fill="black"/>
<path d="M16.2123 53.1406C16.5116 55.4369 16.8319 57.762 16.9202 60.0832C17.089 64.5435 16.8837 69.0498 16.6324 73.4928L16.3523 73.0726C16.3523 72.7465 16.36 72.4166 16.3523 72.0904C16.0607 70.5845 16.1279 68.9903 16.2123 67.4594C16.1509 62.9512 16.0147 58.4104 16.0703 53.9137C16.0742 53.6759 15.9802 53.2903 16.2123 53.1445V53.1406Z" fill="black"/>
<path d="M13.9651 81.0725C13.9651 81.0476 13.7771 80.9478 13.8768 80.6543C14.0092 80.2687 14.8974 79.3364 15.1871 78.7148C15.5343 77.9743 15.7031 77.1763 15.966 76.4051C16.083 76.0636 16.1885 75.5111 16.4916 75.3154C16.6412 77.5369 15.9871 79.9138 13.9651 81.0706V81.0725Z" fill="black"/>
<path d="M15.6522 50.4743C15.6445 50.6297 15.7481 50.9328 15.5141 50.8944C15.0441 49.2753 14.5817 47.073 13.1986 45.9757C12.9876 45.8088 12.7669 45.8798 12.7036 45.8433C12.6403 45.8069 12.3372 45.358 12.4236 45.2832C13.1947 45.1316 13.7799 45.6611 14.2499 46.1925C15.2129 47.2783 15.7136 49.0432 15.6503 50.4762L15.6522 50.4743Z" fill="black"/>
<path d="M18.5995 87.8094C30.0139 94.1247 41.0484 101.177 52.4724 107.484C53.1304 107.924 53.6925 108.474 54.2508 109.004L51.9602 108.137C40.1833 100.9 27.7771 94.6369 16.0308 87.3605C14.9738 86.7063 13.863 86.1116 12.9863 85.2119C12.9959 85.0814 13.2223 85.1332 13.3259 85.1524C14.1719 85.3001 17.6154 87.2645 18.5995 87.8094Z" fill="black"/>
<path d="M15.7893 92.1604C14.197 90.6296 13.3126 88.4579 12.5645 86.4053C13.9649 87.9496 14.9624 90.2305 15.7893 92.1604Z" fill="black"/>
<path d="M14.1738 87.8115C15.252 88.3755 16.1344 89.4959 16.5622 90.6124C15.5896 89.9006 14.6707 88.9069 14.1738 87.8115Z" fill="black"/>
<path d="M12.4922 86.125C12.585 86.1714 12.585 86.2198 12.4922 86.2662V86.125Z" fill="black"/>
<path d="M48.4958 87.247C48.513 87.5252 48.4862 87.811 48.4958 88.0891L45.8311 84.0183L45.3362 83.6116C42.19 79.3202 38.8827 75.1362 35.4488 71.0597C34.6891 70.089 33.9333 69.0933 33.3386 68.0171C32.2797 66.6915 31.1881 65.364 30.25 63.9463C31.1516 64.3837 31.5257 64.8441 32.2183 65.5558C36.3562 69.8108 40.78 75.1708 44.4211 79.8823C45.8043 81.6722 48.3615 84.9891 48.4977 87.2451L48.4958 87.247Z" fill="black"/>
<path d="M48.4943 60.86C49.8928 61.1055 53.0888 62.0782 54.1132 63.0316C54.2647 63.1736 54.4374 63.2868 54.3894 63.5265C54.1362 63.7472 52.2696 62.7956 51.8322 62.6479C50.1652 62.0858 48.452 61.7386 46.7178 61.447C45.3155 61.2091 43.7674 61.2245 42.4609 60.7219C42.553 60.2922 43.9861 60.4207 44.3621 60.436C45.5208 60.4821 47.3605 60.6643 48.4962 60.8638L48.4943 60.86Z" fill="black"/>
<path d="M49.1975 87.5295C49.2513 87.0346 49.4776 86.1253 49.4776 85.7742V82.1254C49.4776 81.9355 49.1899 81.4118 49.3376 81.0722C49.9956 80.9053 49.938 81.8511 50.0378 82.3364C50.4637 84.3814 50.4694 86.7871 49.3357 88.5846C48.8388 88.8052 49.1784 87.6907 49.1956 87.5295H49.1975Z" fill="black"/>
<path d="M51.3017 83.3187C51.3305 83.3475 51.5511 83.2343 51.5895 83.4012C51.6375 83.6065 51.6125 84.4621 51.5818 84.723C51.5492 85.0089 51.1828 86.415 51.0293 86.6011C50.8989 86.7603 50.7646 86.6778 50.5996 86.6874L51.2998 83.3187H51.3017Z" fill="black"/>
<path d="M7.36773 40.5079C8.13508 41.0815 9.2113 43.046 9.33215 44.0167C8.66647 43.2033 8.19455 42.3649 7.57875 41.6283C7.20659 41.1832 6.46609 40.7823 6.24356 40.5079C6.1534 40.3967 6.12845 40.2259 6.10352 40.0878C6.44307 40.0437 7.10299 40.3123 7.36773 40.5079Z" fill="black"/>
<path d="M68.7047 49.4926L68.8485 50.3348L69.4087 50.0547C69.754 50.7127 68.626 51.2729 68.6049 51.5261C68.5934 51.6661 69.3243 53.0205 68.9886 53.5634C69.3723 53.408 69.284 52.5735 69.8307 52.9342C69.9535 53.8492 68.979 55.0176 68.0064 54.8257C67.8395 54.2847 68.4533 54.3672 68.4994 53.9874C67.8644 54.3308 67.1066 54.0795 66.5944 53.6401C66.4179 53.4886 66.3163 53.151 66.1781 53.0742C65.9096 52.9227 65.3398 53.1203 65.3379 52.6579C65.4818 52.0824 65.8808 51.6201 66.3201 51.246C66.8937 50.7568 67.826 50.5343 68.1848 50.2024C68.5013 49.9108 68.2442 49.4044 68.7047 49.4926Z" fill="black"/>
<path d="M76.1439 53.0006C76.1823 53.0256 76.2974 53.6356 76.2993 53.7718C76.3166 55.4408 74.1488 56.2657 72.7867 56.588C72.4625 56.6647 72.1614 56.6053 71.8755 56.659C71.5245 56.7242 71.16 57.2019 70.736 56.799C70.3024 55.8245 71.4976 54.6447 71.8755 55.9568C73.4294 55.6652 75.5531 55.0034 75.6567 53.1407C75.7238 52.9795 76.0672 52.9488 76.1458 53.0006H76.1439Z" fill="black"/>
<path d="M63.3922 51.4371C62.7323 51.0188 64.384 49.0525 64.7754 48.7187C65.3279 48.2468 66.2199 47.6482 66.9566 48.0856C67.2597 48.5038 65.6329 49.5551 65.3394 49.8448C64.9384 50.2419 64.0253 51.8399 63.3922 51.439V51.4371Z" fill="black"/>
<path d="M61.5479 60.4382L60.1455 60.018C60.1897 62.063 59.4914 61.3302 59.2842 59.8972L58.1274 60.0084C57.5193 59.5365 58.254 59.1509 58.7048 59.0704C59.7887 58.8766 61.7858 58.8689 61.5479 60.4401V60.4382Z" fill="black"/>
<path d="M64.9171 58.0534C65.272 58.0477 67.434 57.921 67.3016 58.5426C67.058 58.8822 66.4058 59.0797 66.0048 59.0126C65.7746 58.9742 64.5795 58.3891 64.9171 58.0553V58.0534Z" fill="black"/>
<path d="M74.7443 57.352C74.6407 56.6709 75.5731 56.7016 75.8647 56.1568C76.444 56.0398 76.2867 56.458 76.068 56.7822C75.763 57.2388 75.2891 57.4191 74.7443 57.352Z" fill="black"/>
<path d="M63.2333 39.666C63.5767 39.8061 63.2064 40.0382 63.0798 40.1456C62.4448 40.6866 61.547 41.2679 60.8468 41.7724C58.6042 43.3877 56.3789 45.0298 54.1248 46.6297C53.8888 46.7966 52.5076 48.176 52.734 47.3434C53.3421 45.1104 60.8391 40.3701 63.2333 39.666Z" fill="black"/>
<path d="M35.8636 86.5451C36.1264 86.2458 34.8487 84.69 34.5974 84.3754C33.5481 83.0594 32.2474 81.9371 31.0945 80.7209C31.0388 80.5463 31.129 80.4389 31.3016 80.5137C31.5395 80.6153 32.587 81.8297 32.915 82.129C37.0146 85.8468 41.3194 89.5128 45.9025 92.5822L49.3364 95.8818C48.8491 96.2329 48.4769 96.3039 48.2774 96.9389C47.0381 96.6396 45.7893 96.3097 44.5999 95.8512C42.7813 95.1471 40.4523 93.2882 38.8869 92.0201C34.6646 88.5997 31.3074 84.3025 28.0059 80.0207L28.213 79.8135C30.2408 81.7299 32.0978 83.9457 34.3327 85.6242C34.5092 85.7566 35.7504 86.6755 35.8636 86.547V86.5451Z" fill="#FEFEFE"/>
<path d="M24.7736 75.1766C25.2628 75.6869 26.9165 78.8177 27.2848 79.6138C27.3558 79.7673 27.5591 80.101 27.3711 80.2296C25.9803 78.7236 24.7871 76.9242 24.3535 74.8965C24.4398 74.9329 24.7142 75.1133 24.7756 75.1766H24.7736Z" fill="black"/>
<path d="M28.0003 79.6686C27.8372 79.8317 27.444 79.3175 27.5092 79.1104C27.7087 79.3252 28.0732 79.3022 28.0003 79.6686Z" fill="#FEFEFE"/>
<path d="M27.2305 78.6865C27.3233 78.7329 27.3233 78.7813 27.2305 78.8277V78.6865Z" fill="#FEFEFE"/>
<path d="M16.3539 72.089C15.928 72.1676 16.0834 71.8741 16.0738 71.6036C16.0297 70.4929 16.0604 69.3419 16.0719 68.2273C16.0738 67.9894 15.9818 67.6038 16.2139 67.458C16.235 69.0081 16.3213 70.5447 16.3539 72.089Z" fill="#8585A7"/>
<path d="M51.3022 60.5807C51.0567 60.6094 50.8361 60.5749 50.5982 60.5135C49.9517 60.3447 48.5973 60.0358 48.0736 59.8095C47.8472 59.7116 47.6017 59.6253 47.6535 59.3184C48.7988 59.3414 50.815 59.3222 51.3022 60.5807Z" fill="black"/>
<path d="M45.83 84.0188L46.5302 86.6854C45.853 86.0178 44.9322 85.4825 44.3644 84.7114C40.6197 79.6296 36.9038 73.8591 33.4488 68.5375C33.3682 68.4147 33.0306 68.1058 33.3375 68.0176C37.556 73.2951 42.116 78.3807 45.83 84.0188Z" fill="#F8F8F8"/>
<path d="M117.974 82.0544C117.354 82.1925 117.187 81.6477 116.76 81.3753C115.662 80.677 115.002 81.1144 113.976 80.9302C113.374 80.8228 113.604 80.4986 114.07 80.324C115.47 79.806 118.068 80.1609 117.974 82.0525V82.0544Z" fill="black"/>
<path d="M100.377 31.4033C100.889 31.2306 102.717 32.3145 103.377 32.5754C104.177 32.892 107.74 33.926 108.016 34.3941C108.246 34.7835 108.171 36.2453 108.146 36.7882C108.108 37.5978 108.004 39.1152 107.864 39.8749C107.67 40.9262 105.729 40.2355 105.029 40.0475C103.949 39.7579 102.564 39.261 101.597 38.7066C101.309 38.5416 100.279 37.8548 100.137 37.64C99.7686 37.0798 100.091 34.1044 100.145 33.2776C100.173 32.8459 99.9816 31.5357 100.377 31.4033Z" fill="black"/>
<path d="M107.168 29.2792C107.387 29.2735 107.506 29.2236 107.655 29.4231C108.181 30.1252 107.617 32.3333 107.588 33.21H107.168V29.2792Z" fill="#DDE5F4"/>
<path d="M107.147 35.0537L106.886 39.2454C106.518 39.6118 101.701 37.8987 101.2 37.1409C100.809 35.6964 101.137 34.2518 101.133 32.7881L107.149 35.0537H107.147Z" fill="#F8F8F8"/>
<path d="M143.33 92.5068L145.148 92.7665C149.594 95.2597 154.119 97.8376 158.592 100.385C160.406 101.418 162.28 102.497 163.986 103.53C164.819 104.034 165.716 104.611 165.479 105.712C165.644 106.801 165.644 108.134 165.479 109.223C165.396 109.994 164.992 110.437 164.404 110.883L120.955 136.035C119.423 136.712 117.719 136.839 116.137 136.26C115.251 135.935 114.502 135.248 113.611 134.927V182.754C113.835 183.012 114.129 183.175 114.41 183.358C115.672 184.182 118.242 185.243 119.21 186.132C119.477 186.377 119.637 186.657 119.75 186.998C119.389 187.908 119.916 190.124 119.57 190.83C119.462 191.05 119.065 191.126 118.929 191.313C118.762 191.542 118.785 191.877 118.638 192.146C118.236 192.887 116.347 193.691 115.572 194.06H114.45C112.823 193.281 111.867 191.454 112.326 189.662L112.059 189.36L104.498 184.986C104.062 184.863 102.796 185.982 102.257 186.128C100.399 186.629 98.7982 184.882 98.6232 183.158C98.577 182.708 98.7713 181.973 98.7271 181.796C98.679 181.611 98.3923 181.519 98.3288 181.205C98.2423 180.769 98.2884 177.416 98.4558 177.158C99.1638 176.854 100.174 175.927 100.92 175.927C101.874 175.927 102.963 177.156 103.935 177.344V129.165C103.731 129.147 103.544 129.063 103.371 128.961C101.442 127.833 98.5809 126.458 96.8783 125.209C96.3358 124.811 95.774 124.157 95.6759 123.465C95.5778 122.772 95.5855 120.973 95.6624 120.246C95.7298 119.619 96.0376 119.101 96.432 118.628C111.209 110.127 125.92 101.495 140.729 93.0628L142.765 92.5029H143.325L143.33 92.5068Z" fill="black"/>
<path d="M165.621 109.223H165.48C165.571 108.384 165.569 106.551 165.48 105.712H165.621V109.223Z" fill="#BFBFBF"/>
<path d="M105.059 134.927C105.068 134.6 105.051 134.269 105.059 133.942L109.895 134.083L110.245 134.293V183.524L105.282 180.839L105.057 180.435C105.168 180.227 105.374 180.164 105.676 180.248C105.68 178.276 105.697 176.239 105.73 174.138C105.565 166.662 105.626 159.161 105.911 151.637C106.128 145.887 106.007 140.289 105.551 134.843C105.391 135 105.228 135.027 105.057 134.924L105.059 134.927Z" fill="#D7D7D7"/>
<path d="M112.489 134.786V183.106L111.369 183.668V134.786H112.489Z" fill="#BFBFBF"/>
<path d="M105.058 180.438C105.379 165.288 104.629 150.071 105.058 134.927L105.549 134.367C105.655 134.454 105.737 134.556 105.793 134.681C105.912 134.948 106.024 136.524 106.045 136.957C106.638 148.869 105.714 161.397 105.887 173.345C106.295 175.25 105.87 177.218 105.893 179.109C105.903 179.846 106.443 180.852 105.058 180.436V180.438Z" fill="#FEFEFE"/>
<path d="M116.414 190.41C116.297 190.535 115.379 189.973 115.198 189.873C109.993 186.991 104.962 183.777 99.7368 180.924C99.1885 180.472 99.5483 179.537 99.4521 178.892C99.5694 178.767 100.487 179.329 100.668 179.429C105.874 182.311 110.904 185.525 116.13 188.376C116.676 188.83 116.318 189.763 116.414 190.408V190.41Z" fill="#BFBFBF"/>
<path d="M118.098 186.762C118.321 187.004 117.151 187.554 116.932 187.574L112.303 184.913L112.072 184.515C112.572 184.371 112.898 183.893 113.479 184.153L118.1 186.762H118.098Z" fill="#BFBFBF"/>
<path d="M103.939 180.017C102.85 179.344 101.542 178.788 100.503 178.053C100.288 177.901 99.9587 177.81 100.016 177.491L101.032 177.087C101.544 177.631 103.425 178.257 103.802 178.68C104.08 178.99 103.895 179.609 103.939 180.017Z" fill="#BFBFBF"/>
<path d="M118.518 188.164V190.271L117.537 190.552C117.612 189.547 117.106 188.268 118.518 188.164Z" fill="#ABABAB"/>
<path d="M152.022 98.407C152.398 99.3074 153.479 99.9653 154.362 100.491C157.155 101.978 159.923 103.505 162.667 105.073C163.105 105.354 163.779 105.825 163.625 106.412C163.471 106.999 158.777 109.836 157.965 110.319C154.385 112.237 150.909 114.305 147.536 116.525C147.476 116.587 147.446 116.749 147.311 116.785C138.606 121.381 130.393 126.985 121.696 131.579C119.478 132.751 118.333 133.297 115.901 132.141L97.4904 121.443C97.0383 120.923 97.1595 120.25 97.702 119.827C112.692 111.171 128.113 102.264 142.769 93.7707C143.063 93.7572 143.348 93.7649 143.642 93.8073C145.36 94.0574 150.199 97.3701 152.021 98.407H152.022Z" fill="#D2D2D2"/>
<path d="M163.656 108.802C164.065 108.877 163.981 109.508 163.796 109.785C162.942 110.433 162.005 110.945 161.087 111.495C147.519 119.614 133.615 127.22 119.958 135.179C118.583 135.675 117.356 135.537 116.04 134.954L97.7231 124.371C97.0979 123.911 96.6477 123.403 96.7901 122.568L115.661 133.367C117.767 134.315 119.887 134.007 121.836 132.845C135.545 124.471 149.916 117.022 163.658 108.802H163.656Z" fill="#ABABAB"/>
<path d="M142.77 93.7705C142.822 94.1014 142.385 94.2207 142.162 94.3534C127.497 103.084 112.611 111.469 97.8608 120.055C97.3971 120.371 97.4856 120.952 97.4914 121.44C96.6007 120.927 96.6353 119.94 97.4414 119.355C111.431 111.548 125.083 103.126 139.08 95.3384C140.379 94.615 141.123 93.8397 142.77 93.7686V93.7705Z" fill="#D7D7D7"/>
<path d="M147.537 116.526C149.68 114.354 156.033 111.356 159.02 109.421C159.555 109.075 163.293 106.58 163.37 106.324C163.468 105.999 162.96 105.62 162.724 105.452C159.772 103.374 155.544 101.937 152.677 99.6461C152.32 99.3614 151.633 98.9247 152.023 98.4053C155.985 100.658 160.042 102.82 163.934 105.223C164.738 105.908 164.353 106.88 163.564 107.368L147.539 116.524L147.537 116.526Z" fill="#D7D7D7"/>
<path d="M163.658 108.802C163.698 108.777 163.929 108.119 164.358 108.24C164.347 108.727 164.477 109.345 164.073 109.708C163.993 109.781 163.839 109.755 163.798 109.783C163.533 109.585 163.691 109.108 163.658 108.8V108.802Z" fill="#D7D7D7"/>
</svg>
