<svg width="200" height="200" viewBox="0 0 200 200" fill="none" xmlns="http://www.w3.org/2000/svg">
<path d="M195.89 133.893C195.85 133.291 195.794 132.629 195.378 132.158C194.894 131.359 189.701 128.924 189.58 128.539C190.126 123.587 190.27 118.665 186.48 114.935C183.941 112.436 180.197 109.785 177.232 107.755C170.299 103.007 162.865 98.3394 155.725 93.8779C147.72 88.8758 139.555 83.714 130.489 80.8531C130.566 78.3213 127.142 77.0342 125.187 76.1165C122.349 74.7851 118.834 73.2133 115.664 73.4288C114.833 73.4846 113.461 74.0002 112.853 73.9963C112.128 73.9906 111.583 73.4096 110.34 73.5808C109.526 73.6943 109.04 74.4927 108.536 74.3907L102.987 71.0104C102.862 65.8275 103.056 60.6791 103.38 55.5192C103.56 52.643 103.999 49.7668 103.941 46.879C104.37 47.0964 104.892 47.0868 105.311 46.8463L105.625 45.1937C107.047 45.3726 110.304 46.6539 110.989 44.8724C111.61 43.2563 111.56 39.9164 111.662 38.1003C111.929 33.3136 112.164 28.1383 111.799 23.3497C111.739 22.5686 111.635 20.7544 111.158 20.1984C110.336 19.2403 107.753 18.488 106.602 17.8743L106.467 15.8331C107.908 16.0428 109.817 18.6073 111.164 16.9508C112.118 15.7792 111.383 14.7922 110.384 14.09C107.123 11.7929 101.74 8.80698 98.1389 6.96004C96.9057 6.32707 95.4647 5.621 94.1199 6.49829C93.3503 7.00236 92.4288 8.5357 92.4288 9.44186V64.5769L89.516 62.9955C85.8856 55.5904 80.01 49.3204 74.6058 43.1505L69.8922 38.8698C70.1924 35.5973 70.175 32.2593 70.1173 28.9617C70.0712 26.3356 69.9961 23.5902 69.8364 20.9545C69.6633 18.1109 69.7768 15.2636 67.0468 13.6321C67.1103 10.6539 66.0618 6.80996 62.8123 6H61.8292L60.4382 6.24819L4.92607 38.4696C4.14689 39.0911 3.99105 40.2165 4.13727 41.1169C4.01414 65.9352 4.01414 91.9078 4.13727 116.691C4.09879 117.969 4.67211 119.119 5.46476 120.068C45.5588 143.603 85.9953 166.632 126.205 190L127.661 190.579H128.644L131.407 189.48L194.826 152.79C195.39 152.135 195.725 151.32 195.881 150.473C195.602 145.052 196.248 139.268 195.886 133.891L195.89 133.893ZM101.14 46.3922C100.802 52.7026 99.9647 59.0111 99.7261 65.3446C99.6819 66.5355 99.7723 67.7418 99.7319 68.9326L96.1746 66.9799L96.1015 11.9891C96.4208 10.0517 96.7037 10.1114 98.2832 10.8944C99.982 11.7371 101.562 12.9106 103.243 13.7976V16.5372C103.093 16.7046 99.9185 15.1 98.9681 15.2732C98.1466 15.4233 97.8869 17.0566 97.7868 17.7473C97.0807 22.6417 97.2212 28.3249 96.9249 33.3213C96.8076 35.3106 95.8494 39.1122 97.1346 40.6994C97.6291 41.3093 99.3336 42.1097 99.5222 42.5252C99.8742 43.3005 99.1624 44.0566 100.088 44.9108C100.873 45.6362 101.217 45.0321 101.144 46.3942L101.14 46.3922Z" fill="black"/>
<path d="M68.7104 38.0293C68.7046 38.1216 68.7162 38.2159 68.7104 38.3083C68.4699 38.4044 68.3833 38.2044 68.2891 38.1697L68.7104 38.0293Z" fill="#8585A7"/>
<path d="M94.8193 83.6812C97.203 84.4834 99.9984 85.1972 102.571 85.8455C104.677 86.3765 106.74 86.8036 108.821 87.1903C109.337 87.3423 110.942 87.8195 110.261 88.3178C99.7734 92.9101 90.5637 97.9699 81.1596 104.498C76.7174 107.58 69.9529 112.278 67.0536 116.79C66.6015 117.492 66.3245 118.334 65.7646 118.94C65.5184 118.644 65.4164 118.227 65.4606 117.684C64.5641 116.895 63.5194 116.245 62.3266 115.733C60.4777 114.383 58.5789 113.142 56.6261 112.011C56.2298 111.976 55.9547 111.851 55.7988 111.635C56.5087 109.021 58.3345 107.301 60.2892 105.523C62.9192 103.13 65.9435 101.216 68.8621 99.2012L69.1372 99.1878C72.6022 101.779 75.7073 99.9246 78.9645 98.2239C81.2693 97.0195 83.528 95.6555 85.8039 94.3915C87.2796 94.428 88.5667 94.2164 89.8922 93.5661C90.7849 93.1294 92.4414 91.6692 93.1359 91.4652C93.5515 91.3421 93.8939 91.5768 94.323 91.5537C95.2137 91.5037 96.4566 91.2748 96.7932 90.3609C97.203 89.247 97.5359 87.9368 96.9568 86.8132C96.8182 86.5439 96.5893 86.4246 96.4489 86.1976C96.1583 85.7359 96.3469 85.4511 95.6254 85.0548C93.9709 84.1506 90.6752 84.5719 89.0245 85.3896C86.3522 86.7151 84.0436 89.1046 80.9288 89.4374L87.1026 85.8552C88.2838 85.2626 92.2721 83.3406 93.3668 83.2637C93.917 83.2252 94.3499 83.5773 94.8251 83.6812H94.8193Z" fill="#F5EFEF"/>
<path d="M11.8613 84.6642C12.0229 84.2659 12.4808 83.2174 12.8483 83.0519C13.4101 82.7961 14.4663 82.9423 15.0742 82.6114L23.3701 77.9209C23.4182 77.9575 23.7048 78.8751 23.7933 79.0444L23.6567 79.3754C20.1957 80.8414 22.362 83.6522 24.1666 85.5761C29.1245 90.863 37.8186 97.3426 44.558 99.9899C48.8059 101.66 51.0184 100.792 55.0336 99.1165C56.919 98.3296 58.7852 97.5158 60.6379 96.6654L61.0304 96.9694C62.0962 99.3012 63.1178 100.223 65.7574 99.4705L66.046 99.6956C62.3117 102.645 56.8036 105.71 55.0971 110.371C54.8662 110.135 54.9836 109.773 54.8027 109.471C54.6546 109.225 54.3718 109.217 54.2544 109.107L53.0154 108.351C41.9934 101.887 30.7463 95.2552 19.6493 88.6947L18.6007 87.8963C18.67 87.5846 18.4276 87.5981 18.2544 87.4769C17.1501 86.7093 13.968 84.6161 12.7559 84.5314C12.4404 84.5102 12.1692 84.6469 11.8633 84.6642H11.8613Z" fill="#E0E4EB"/>
<path d="M65.7623 118.941C65.6853 119.708 65.2063 120.678 65.0139 121.494C64.354 124.299 64.1904 127.317 64.4983 130.178C64.3732 130.307 63.2227 129.884 62.9995 129.784C61.8567 129.266 56.9701 126.444 56.187 125.686C55.6887 125.201 55.4829 124.641 55.327 123.977C54.5786 120.809 54.9365 114.802 55.7965 111.638C56.3813 111.549 56.8084 111.761 57.2971 112.032C59.0767 113.019 60.9102 114.545 62.6859 115.63C63.4459 116.093 65.566 116.896 65.7334 117.638C65.8065 117.963 65.7988 118.6 65.7623 118.943V118.941Z" fill="#CDCDCD"/>
<path d="M23.7926 79.0469C28.5793 88.2046 36.9136 95.3827 46.4831 99.2555C47.7375 99.7634 48.9149 99.8712 50.2462 99.5499L61.4702 94.2111C61.6395 94.2418 62.2763 96.7294 63.1075 97.2296C63.6135 97.5355 64.8101 97.4971 65.4181 97.4547C65.8702 97.424 66.7494 97.1046 67.0669 97.1892C67.2804 97.247 68.0577 98.0916 68.1442 98.3474C68.0961 98.5802 66.3781 99.6172 66.0453 99.698C65.5412 99.8192 64.2137 100.025 63.7212 99.9866C61.728 99.8269 61.6453 98.1993 60.6276 96.8987C58.8383 97.8087 57.0164 98.6803 55.131 99.3825C53.6861 99.9212 50.6733 101.062 49.2554 101.229C45.1671 101.71 37.2214 96.5928 33.8565 94.1956C31.1111 92.239 22.3805 85.4188 21.6436 82.3964C21.2358 80.7207 22.2112 79.4509 23.7926 79.0507V79.0469Z" fill="#B2C1E0"/>
<path d="M87.66 101.662C87.6715 101.98 87.4657 102.037 87.2829 102.197C81.6459 107.174 74.3966 111.441 69.4792 117.111C68.9366 117.736 68.3479 118.392 68.1478 119.22C67.7284 119.302 67.6072 119.449 67.7861 119.658C70.0948 121.359 72.5305 122.996 75.0258 124.276C77.319 124.891 81.9691 128.06 84.3355 129.357C88.1083 131.425 91.9772 133.639 95.7942 135.59C96.0232 135.707 96.2348 135.813 96.5022 135.794L97.1967 135.932C104.825 140.754 112.973 144.911 121.313 148.611C121.688 148.778 122.025 149.003 122.329 149.28C123.029 150.402 124.222 150.246 125.141 151.031C128.589 153.981 126.069 158 127.14 161.253C127.446 162.178 128.379 163.808 129.524 163.583C143.58 155.549 157.409 147.106 171.505 139.143C176.969 136.058 182.452 132.902 188.162 130.319C188.124 130.532 188.176 130.759 188.099 131.025C187.762 132.196 186.76 132.181 185.962 132.964C167.913 142.918 150.466 154.025 132.389 163.916C130.272 165.074 129.043 166.103 126.555 165.07L65.6949 129.891C65.0946 129.012 65.716 123.725 65.968 122.45C66.8569 117.982 69.256 115.497 72.4939 112.546C76.9285 108.505 82.6021 104.91 87.6561 101.66L87.66 101.662Z" fill="#A8A9C3"/>
<path d="M124.438 83.8213C124.118 85.7375 121.985 87.8749 120.18 88.481C119.412 88.7388 118.246 89.0543 117.448 89.2582C116.067 89.6103 114.456 89.4064 113.15 88.858C112.938 88.7695 112.717 88.7676 112.786 88.456C113.352 88.2193 114.089 87.696 114.714 87.6441C115.212 87.6017 116.272 88.0058 116.921 88.0404C117.914 88.0923 119.376 87.8538 120.159 87.1958C121.19 86.3281 122.427 84.7582 123.601 84.0387C123.987 83.8001 124.262 83.9002 124.438 83.8213Z" fill="#A8A9C3"/>
<path d="M188.165 130.318C187.794 130.639 187.409 130.953 186.971 131.178C177.23 136.169 167.649 141.455 158.183 147.148C148.695 152.76 139.173 158.318 129.631 163.838C129.336 164.009 128.744 163.784 128.469 163.624C126.164 162.295 126.529 158.239 126.758 155.952C126.985 153.301 125.66 151.036 123.115 150.346C122.455 150.061 122.193 149.705 122.333 149.28C122.222 149.224 122.133 149.151 122.07 149.061C115.167 145.523 107.416 141.292 100.266 137.369C99.0543 136.703 97.848 136.122 96.6205 135.586L96.507 135.793C96.4474 136.084 96.2742 136.111 96.0203 135.997C89.3155 132.428 82.7608 128.79 76.3561 125.085C75.7154 124.923 75.273 124.652 75.0305 124.273C72.8565 122.578 70.5844 121.006 68.2161 119.558L68.1526 119.217C67.7178 118.8 68.4123 117.943 68.7471 117.543C71.0134 114.827 73.7377 112.437 76.5581 110.242C80.329 107.408 84.0305 104.545 87.6648 101.658C95.7355 96.4708 103.924 92.1613 112.791 88.4539C116.754 90.1373 122.749 88.3539 124.128 83.9809L124.442 83.8173C125.631 83.2863 128.89 81.9127 130.106 82.0012C131.766 82.1185 136.936 84.5503 138.669 85.3834C148.435 90.0815 158.399 96.9287 167.524 102.864C173.197 106.554 180.306 110.652 185.156 115.281C189.531 119.456 189.168 124.696 188.171 130.314L188.165 130.318Z" fill="#C7C8DC"/>
<path d="M96.5017 135.796C96.3863 135.713 96.2708 135.33 95.9418 135.373C95.9072 135.124 96.2612 135.23 96.3997 135.267C97.3694 135.523 98.4102 136.111 99.3125 136.565C102.926 138.389 106.402 140.557 109.975 142.472C113.503 144.361 117.266 146.054 120.741 147.993C120.974 148.124 122.251 148.821 122.305 148.894C122.393 149.015 122.303 149.236 122.332 149.282C116.385 147.095 110.64 143.982 105.113 140.879C102.36 139.334 99.0528 137.593 96.5055 135.798L96.5017 135.796Z" fill="black"/>
<path d="M158.828 120.063C157.753 115.892 154.875 112.152 151.502 109.38L151.248 108.826C152.297 108.745 153.455 109.734 154.263 110.375C156.785 112.376 159.894 116.439 160.219 119.729C160.425 121.814 158.817 121.018 158.83 120.063H158.828Z" fill="#A8A9C3"/>
<path d="M151.248 108.826C154.047 110.954 156.593 114.009 158.109 117.201C158.682 118.409 158.846 118.806 158.828 120.064C157.16 117.998 156.145 115.498 154.475 113.394C153.053 111.601 151.252 110.152 149.638 108.542C149.14 107.051 150.785 108.472 151.248 108.826Z" fill="black"/>
<path d="M152.79 114.023C153.446 113.074 154.139 114.84 154.358 115.333C155.116 117.037 156.126 120.827 155.843 122.628C155.809 122.845 155.245 124.487 155.159 124.54L154.193 124.277L153.952 124.069C154.179 120.839 153.65 117.347 152.607 114.284L152.79 114.021V114.023Z" fill="#A8A9C3"/>
<path d="M152.792 114.024C153.702 115.715 154.675 122.473 154.196 124.278C154.123 124.551 154.342 124.607 153.777 124.559C153.055 120.986 153.046 117.264 151.814 113.801L152.161 113.462C152.245 113.641 152.753 113.945 152.794 114.024H152.792Z" fill="black"/>
<path d="M68.1469 119.221C69.4705 119.82 71.9966 121.69 73.2452 122.619C73.8358 123.057 74.7439 123.613 75.0267 124.279C74.3149 124.089 74.1359 124.129 73.3876 123.74C71.404 122.713 69.4801 121.062 67.5889 119.85C67.2292 119.269 67.5062 118.931 68.1469 119.221Z" fill="black"/>
<path d="M150.827 119.222C151.673 119.043 151.777 119.649 151.887 120.338C152.091 121.625 151.85 124.14 150.832 125.057C150.446 125.406 149.972 125.673 149.844 124.98L149.701 124.624C150.357 123.012 150.619 121.236 150.565 119.501L150.825 119.22L150.827 119.222Z" fill="#A8A9C3"/>
<path d="M150.825 119.221C150.981 120.845 150.583 123.512 149.842 124.981C149.696 125.272 149.527 125.67 149.142 125.543C148.792 125.203 150.471 119.822 150.289 118.894C150.643 118.379 150.783 118.769 150.827 119.221H150.825Z" fill="black"/>
<path d="M11.8619 84.6643L12.1852 84.3315C13.2433 83.662 18.763 87.2789 18.8611 87.6483C18.8899 87.756 18.7322 87.8561 18.5994 87.8945L18.4571 88.0292C16.966 87.2943 15.4558 86.5324 13.9263 85.7456C23.7805 91.8116 33.8636 97.6583 44.1719 103.29C47.5329 105.294 51.0479 107.32 54.2531 109.107C55.0611 108.655 55.2189 109.708 55.0958 110.371C53.9395 113.532 53.6952 118.038 53.826 121.405C53.8491 121.974 53.9761 122.823 54.0896 123.39C54.1261 123.577 54.0896 123.654 53.903 123.575L14.0629 100.511C12.4507 99.7054 11.5041 98.3259 11.3156 96.5175C11.0828 94.2857 11.0481 87.5771 11.5291 85.5282C11.6099 85.1819 11.7369 84.9683 11.86 84.6643H11.8619Z" fill="#B2C1E0"/>
<path d="M18.6003 87.8972C30.0147 94.2191 41.0502 101.274 52.4743 107.588C53.1323 108.027 53.6941 108.579 54.2539 109.108L51.9626 108.241C40.1845 100.997 27.7792 94.7309 16.0319 87.447C14.9756 86.791 13.8636 86.1965 12.9863 85.2961C12.9959 85.1653 13.221 85.2172 13.3269 85.2365C14.1734 85.3846 17.6172 87.3508 18.6003 87.8953V87.8972Z" fill="black"/>
<path d="M15.7889 92.2504C14.1959 90.717 13.3109 88.545 12.5625 86.4902C13.9766 88.0351 14.9404 90.3169 15.7889 92.2504Z" fill="black"/>
<path d="M14.1758 87.8984C15.2551 88.4621 16.1362 89.5838 16.5653 90.7016C15.5918 89.9897 14.6741 88.9951 14.1758 87.8984Z" fill="black"/>
<path d="M12.4922 86.21C12.5824 86.256 12.5824 86.3041 12.4922 86.3501V86.21Z" fill="black"/>
<path d="M88.0806 62.6113C88.2672 63.0769 88.6 63.4059 88.4769 64.0504C88.3961 64.4737 87.7477 65.5241 87.2495 65.3548C86.832 65.2144 85.9508 64.5295 85.4141 64.2967C85.8181 63.4232 87.2648 63.1 88.0806 62.6113Z" fill="#E0E4EB"/>
<path d="M51.025 38.451C54.2764 37.4736 57.3258 37.4024 60.7176 37.7526C61.3621 37.8199 64.5116 38.2509 64.4192 39.2359C64.3923 39.5245 63.4611 40.0882 63.2379 39.715L63.2091 39.8939C60.252 41.3715 57.3066 43.0818 54.7862 45.2885C54.161 45.8349 53.5569 46.4351 53.1413 47.1489C55.5289 45.2577 58.1011 43.2684 60.8504 41.8236C63.5131 40.2979 66.928 39.6592 69.2713 42.039C69.6734 42.4469 70.568 43.4358 70.2544 43.9322C65.4754 43.3338 59.5806 49.1363 57.2816 52.9341C55.9079 55.2024 54.438 58.2575 55.2345 60.9298C54.1129 60.8952 53.2356 59.7062 52.5738 58.8885C50.7384 56.6203 50.2651 55.3178 50.8057 52.355C51.0039 51.268 51.5426 50.2368 51.5849 49.1325C51.2828 48.8208 50.4248 50.1983 50.2978 50.4426C49.9611 51.0929 49.6879 51.9086 49.7591 52.6436C49.2993 52.151 48.9549 51.1737 48.7394 50.5042C48.4181 49.5076 48.0622 48.134 48.0622 47.095C48.0622 46.3967 48.8472 42.6027 48.6356 42.3892C48.2027 42.2815 47.9256 42.8009 47.7698 43.1357C47.4812 43.7494 47.3735 44.5324 47.2311 45.1962C47.031 45.2308 47.0387 44.9518 46.9945 44.8056C46.8906 44.4708 46.6924 43.7398 46.6828 43.4204C46.6155 41.4811 49.5148 39.3514 51.0231 38.4548L51.025 38.451Z" fill="#8E2A26"/>
<path d="M73.7643 92.1105C73.9951 90.8676 73.2006 90.0288 72.7561 88.9745C72.4579 88.2684 71.925 87.1487 71.748 86.4581C71.7038 86.283 71.6172 86.1541 71.7826 85.9963C76.627 82.3294 81.9427 79.2992 87.17 76.2402L87.4547 76.3672L91.9432 82.5622C88.2204 83.9974 84.6035 85.7385 81.2117 87.8394C78.7664 89.3555 76.6078 91.5929 73.7604 92.1124L73.7643 92.1105Z" fill="#F5EFEF"/>
<path d="M88.082 62.6114L88.0724 62.9385L86.4005 63.7292C86.06 64.0563 85.731 64.2448 85.4135 64.2968C84.1322 63.7369 82.2391 63.1925 80.8501 63.0347C78.9993 62.825 77.1658 63.1386 75.3073 63.1713C76.4828 62.219 77.6564 61.3898 78.4183 60.0353C81.3445 54.835 76.6906 50.5659 74.0664 46.4988L74.1857 44.4902C74.4685 44.6672 74.734 44.9443 74.9591 45.1905C78.526 49.0922 86.2235 57.9768 88.082 62.6114Z" fill="#FEFEFE"/>
<path d="M108.013 75.2547L106.406 77.3613C105.086 76.8419 102.78 75.8261 101.377 76.1281C101.073 76.1935 100.833 76.4898 100.509 76.4994C100.052 76.5148 99.3974 76.0935 98.901 76.0858C98.724 75.8799 99.459 74.2965 98.6856 73.4212L88.8506 66.4066L88.6582 65.9391L89.4913 64.4404L89.8049 64.4616L108.013 75.2527V75.2547Z" fill="#E0E4EB"/>
<path d="M51.0254 38.4506C55.914 35.5493 61.424 35.7283 66.3242 38.5218C65.9394 38.7372 65.0948 38.7988 64.7832 39.0855C63.9174 39.8781 66.2607 39.3067 66.3973 39.2971C66.9033 39.2605 67.7209 39.2374 68.2077 39.3067C69.6179 39.5068 71.4187 41.8924 72.194 43.0429C72.6442 43.7105 73.2695 44.4685 72.9924 45.3343C72.1459 44.4531 71.4572 44.0818 70.2547 43.9298C69.9315 43.3084 69.3813 42.4811 68.8541 42.0309C68.6329 41.8424 67.1515 40.8843 66.9495 40.8477C66.3877 40.7439 64.7851 40.7958 64.1656 40.8593C62.9958 40.9766 61.9839 41.5788 60.8507 41.8251L60.9296 41.4249C61.7646 40.8939 62.5322 40.3244 63.2383 39.7184L64.2195 39.2278C64.1425 39.072 63.0343 38.4333 62.8208 38.3794C60.918 37.8965 57.0029 37.7483 55.0271 37.8946C53.8747 37.9792 52.8454 38.4063 51.7834 38.5852C51.566 38.6218 51.1581 38.6795 51.0234 38.4544L51.0254 38.4506Z" fill="#A55451"/>
<path d="M111.242 74.5521L107.666 79.0483C106.919 79.5427 106.121 79.8621 105.207 79.7467C105.384 79.0079 106.052 79.183 106.571 78.9348C107.954 78.2768 109.036 74.3136 111.242 74.5502V74.5521Z" fill="#E0E4EB"/>
<path d="M124.158 82.5577C124.431 79.9181 121.788 79.491 120.014 80.8705C120.081 80.4818 120.527 80.1817 120.616 79.7912C120.964 78.2694 119.562 77.5133 118.226 77.6806C117.357 77.7884 114.744 78.4887 113.848 78.7754C113.357 78.9331 112.47 79.5334 112.137 79.568C111.854 79.5988 109.73 79.1678 109.34 79.0524C109.232 79.0197 109.036 79.1005 109.138 78.8388C109.24 78.5772 110.606 76.9611 110.889 76.6571C112.393 75.043 115.015 74.3965 117.205 74.5543C119.396 74.7121 126.605 77.7172 128.411 79.0716C129 79.5122 129.583 80.072 129.281 80.8743L124.156 82.5577H124.158Z" fill="#F5EFEF"/>
<path d="M63.2367 39.7139C63.581 39.8543 63.2097 40.0852 63.0828 40.1929C62.4479 40.7335 61.5513 41.3165 60.8491 41.8205C58.6058 43.4366 56.3818 45.0796 54.127 46.6822C53.8904 46.8496 52.509 48.229 52.736 47.3979C53.344 45.1623 60.8414 40.418 63.2367 39.7139Z" fill="black"/>
<path d="M71.6588 90.7049C68.5479 91.5014 65.5812 93.2253 63.4476 95.6186C63.2668 95.6186 62.7704 94.2603 62.6723 94.0083C60.9138 89.4121 58.6571 82.0339 59.6556 77.2184C60.304 74.0921 62.1413 71.0523 64.0113 68.5109L66.0564 70.3944C69.1077 72.7569 76.5513 72.9858 76.0087 67.5989C75.8664 66.1868 74.9333 65.2922 74.0444 64.2975L78.1789 64.009C86.0861 63.6011 91.0844 70.3251 97.3967 73.8362L97.4852 74.1267C96.0461 74.7405 94.6763 76.1814 93.6239 77.3569C93.0121 78.0399 92.4311 79.0346 91.8501 79.656C91.7539 79.7599 91.7251 79.9388 91.5211 79.8888C89.7338 77.5936 88.112 75.1637 86.3112 72.88C85.4955 71.8469 84.5547 70.5656 83.6601 69.6325C83.3215 69.2785 81.7381 67.8067 81.411 67.6682C80.9358 67.4681 81.4149 68.5339 81.4822 68.6513C81.4303 69.1996 81.5496 69.5074 81.8093 70.0077C82.4827 71.3024 83.7948 73.286 84.8029 74.3364C85.3358 74.8924 85.5243 75.081 86.2535 74.8309C86.2939 74.9021 86.7037 75.0483 86.5171 75.3753C81.3322 78.3651 76.0434 81.2682 71.3029 84.9429C70.9989 84.9948 71.1413 84.8813 71.0816 84.7486C70.8508 84.2291 70.6853 83.6635 70.4179 83.1613C70.2505 82.8497 68.8557 80.566 68.4267 81.0104C68.3382 81.351 68.5498 81.703 68.5671 81.9936C69.1019 84.9948 70.1255 87.7498 71.6415 90.2586L71.655 90.703L71.6588 90.7049Z" fill="#D52B1E"/>
<path d="M95.0999 86.2095H92.7836C92.4507 86.2095 91.7966 86.6154 92.4911 86.9233C93.4377 87.3427 94.6074 86.7078 95.554 87.0887C95.8772 87.2195 96.2639 87.6409 95.6271 87.5793C95.0634 87.5254 93.2453 87.2388 92.9202 87.7505C92.7797 87.8737 92.8605 88.0295 92.9894 88.1103C93.4646 88.4104 95.5732 88.0218 96.0831 88.7375H93.0645C92.5604 88.7375 92.6797 89.4397 92.924 89.4397H95.4501L95.654 90.1362C94.7998 90.5363 93.7186 90.1573 92.9548 90.3151C91.0809 90.7037 88.5106 94.1225 85.7767 93.2452C82.3003 94.6458 78.9431 97.2969 75.4974 98.6917C72.1382 100.052 70.1662 99.1112 67.9345 96.4658C67.0668 95.4384 66.8725 95.4423 67.7941 94.3553C68.0788 94.0205 69.0023 93.1028 69.312 92.8566C69.541 92.6738 71.6303 91.7888 71.7939 91.8908C72.3499 92.6315 72.6096 93.8185 73.7985 93.4818C77.098 92.0812 80.865 91.0904 84.1029 89.6071C87.6852 87.966 90.1478 84.6608 94.6267 85.9094C94.8171 85.9632 95.0557 85.9671 95.0961 86.2114L95.0999 86.2095Z" fill="#E5D0C8"/>
<path d="M94.8193 83.6816C99.4405 84.6974 104.466 84.8533 109.174 85.3996L113.066 87.1234C112.129 87.5101 111.188 87.9103 110.259 88.3163C110.334 87.9757 110.085 88.0258 109.889 87.9199C108.452 87.1542 107.04 87.21 105.485 86.8426C102.161 86.0576 98.4594 85.1188 95.2349 84.0298C95.0079 83.9529 94.7385 84.0548 94.8193 83.6797V83.6816Z" fill="#E5D0C8"/>
<path d="M104.925 77.923C105.031 78.0654 103.236 80.5241 103.515 81.1455L99.4555 80.4452C99.394 79.5679 100.535 77.6325 101.277 77.2939C102.06 76.936 104.061 77.7518 104.925 77.9249V77.923Z" fill="#E0E4EB"/>
<path d="M86.2565 74.8319C85.5889 76.0439 84.3807 74.2662 83.8747 73.6333C83.3091 72.9291 81.2852 70.001 81.2044 69.2699C81.1755 69.0044 81.1832 68.7466 81.4852 68.6504C82.6896 70.7282 84.9771 72.5848 86.2584 74.8319H86.2565Z" fill="#DD554B"/>
<path d="M71.6582 90.7046C70.6981 89.658 70.171 88.3016 69.69 86.9838C69.0474 85.2215 68.6723 83.8728 68.5703 81.9951L72.2084 90.4968C72.0718 90.7681 71.839 90.6584 71.6582 90.7046Z" fill="#DD554B"/>
<path d="M66.1837 96.1824L64.5003 96.3228C64.3233 96.165 65.2795 95.3358 65.4295 95.2089C65.695 95.1608 66.2741 96.0785 66.1837 96.1824Z" fill="#981A1D"/>
<path d="M73.2024 51.0926C73.3428 51.1388 74.2894 50.956 74.4683 50.8829C75.234 50.5732 74.8223 50.048 74.1874 50.3904C74.3548 49.7613 73.9277 49.1803 73.9027 48.6339C73.8892 48.3549 73.9296 48.4107 74.1836 48.4242C76.3114 52.2239 80.3708 55.8658 76.8501 60.2908C74.7434 62.9381 71.2323 63.4845 68.433 65.0717L69.6316 65.5546C70.5955 65.5392 71.5805 65.6373 72.479 66.0067L72.9253 68.2288C73.2601 68.2711 73.1485 68.2346 73.2197 68.0345C73.4775 67.3072 73.4255 66.3222 73.6256 65.5603C74.8165 66.7224 75.5611 68.6386 74.1201 69.918C71.7922 71.9842 67.1979 70.4143 65.4106 68.223C65.3991 66.9936 66.0397 65.797 65.4048 64.583C65.0585 63.9173 63.6368 62.5822 63.6618 61.9896C63.6791 61.601 64.0754 61.1219 63.9369 60.6429C63.6829 60.3832 62.4766 61.8472 62.1823 62.0473C60.497 63.1997 58.2152 62.8746 56.9839 61.2085C55.5218 59.2288 57.4437 57.0779 59.6254 57.5819C60.3565 57.7513 60.9067 58.567 61.9341 58.1476C62.9615 57.7282 62.6498 56.5026 62.3189 55.7273C61.9534 54.8712 59.6177 52.1065 59.7486 51.4755C59.8371 51.0426 62.1842 48.7551 62.671 48.3492C64.3775 46.9235 68.4003 44.4148 70.6474 45.0054C70.8533 45.0593 72.0654 45.6634 71.7941 45.8923C71.3266 45.8269 69.674 46.1097 69.8452 46.7793C70.0356 47.5277 72.1192 46.7427 72.7426 46.7658L73.6199 47.8586C73.0754 47.722 70.9341 48.0683 70.9456 48.7724C70.9322 49.1495 71.3727 49.0379 71.5247 49.2207C71.6671 49.3919 71.7537 49.8036 72.0038 50.1114C72.1211 50.2557 73.1216 51.0657 73.2005 51.0926C72.8407 50.9503 70.7802 50.2288 70.6744 50.7444C70.5551 51.3293 73.3717 51.8891 73.845 52.0719L74.1182 51.9411C74.4548 51.5294 73.5872 51.2465 73.2024 51.0946V51.0926Z" fill="#E5D0C8"/>
<path d="M68.2892 50.3906C67.8871 51.3583 68.7336 51.4719 68.926 52.2126C69.0472 52.6801 68.978 53.1495 68.9934 53.6209C69.3762 53.465 69.2896 52.63 69.836 52.9917C69.9592 53.9075 68.9818 55.0772 68.0103 54.8848C67.8429 54.3423 68.4566 54.427 68.5028 54.046C67.7582 54.4347 67.1233 54.0826 66.5346 53.6228C66.3788 53.4996 66.3172 53.2091 66.1826 53.1322C65.9151 52.9802 65.3437 53.1803 65.3418 52.7166C65.7343 51.4988 67.0348 50.5542 68.2892 50.3926V50.3906Z" fill="black"/>
<path d="M76.1497 53.0584C76.1881 53.0834 76.3036 53.6952 76.3036 53.8299C76.3209 55.5018 74.1527 56.3252 72.7905 56.6484C72.4654 56.7254 72.1653 56.6658 71.8786 56.7196C71.5285 56.785 71.1629 57.2641 70.7397 56.8601C70.3068 55.8846 71.5015 54.7034 71.8786 56.0174C73.4331 55.7269 75.5552 55.0631 75.661 53.1989C75.7283 53.0373 76.0708 53.0084 76.1497 53.0584Z" fill="black"/>
<path d="M63.3981 51.4943C62.7382 51.0768 64.3889 49.1067 64.7814 48.7739C65.3355 48.3006 66.2263 47.7022 66.9631 48.139C67.2652 48.5584 65.6375 49.6088 65.3451 49.8993C64.943 50.2957 64.0311 51.8963 63.3981 51.4943Z" fill="black"/>
<path d="M60.9894 60.502L59.5869 60.0807C59.6292 62.1277 58.9328 61.3928 58.7269 59.9595L57.5706 60.0711C56.9627 59.5997 57.6976 59.213 58.1478 59.1322C59.231 58.9379 61.228 58.9302 60.9913 60.502H60.9894Z" fill="black"/>
<path d="M64.0297 57.7102C64.4529 57.5774 65.2282 57.9988 65.7035 58.1027C65.9247 58.1508 67.4273 58.0526 67.3041 58.6048C66.3345 59.5494 64.5991 58.9761 63.7969 58.043L64.0277 57.7102H64.0297Z" fill="black"/>
<path d="M74.7483 57.4121C74.6444 56.7311 75.5775 56.7599 75.868 56.2155C76.4471 56.0981 76.2893 56.5175 76.0719 56.8427C75.766 57.2986 75.2927 57.4795 74.7483 57.4121Z" fill="black"/>
<path d="M99.4492 77.3615C99.6108 77.5924 97.6272 80.2974 98.568 81.1593C99.1471 81.6884 103.072 82.4233 103.866 82.2713C104.661 82.1193 104.442 81.1401 104.78 80.9381C104.961 80.8303 106.285 80.8169 106.777 80.688C107.297 80.5533 108.122 79.953 108.39 79.9126C108.98 79.8222 110.806 80.5071 111.606 80.5706C112.859 80.6707 113.049 80.1762 114.077 79.8472C115.529 79.3836 117.17 79.3451 118.609 78.7583C118.994 78.6967 119.662 79.2066 119.46 79.6048C119.236 80.0454 117.263 80.4359 117.153 80.6072C117.055 80.7611 117.112 81.2247 117.274 81.3633C117.513 81.571 119.741 81.8865 120.158 81.8596C120.987 81.8038 122.351 80.6591 122.9 81.5268C123.088 81.8231 123.146 82.7946 122.751 82.9774C122.063 81.4133 120.327 82.5099 119.1 82.558L119.163 82.987C120.012 83.5238 120.98 82.6369 121.774 82.9024C122.526 83.1544 122.215 84.0663 121.555 84.251C121.249 84.251 121.12 83.7297 120.858 83.5373C120.014 82.9158 118.907 83.7297 117.978 83.8239C118.176 85.136 120.899 83.1967 120.651 84.8705C120.514 85.7921 120.068 84.7916 119.944 84.7339C119.154 84.353 117.961 85.0956 117.132 85.1553C116.766 85.388 117.238 85.7497 117.493 85.7921C118.123 85.8921 118.959 85.3303 119.66 85.5093C119.31 87.5217 116.36 86.9156 114.921 86.5289C113.103 86.0402 110.583 84.4646 109.046 84.2626C106.502 83.9278 103.893 83.8432 101.342 83.543C98.7162 83.2333 95.7591 83.1082 93.4043 81.9193C93.537 81.015 95.636 75.9513 96.5499 76.1091C97.2675 77.0152 98.4064 77.0402 99.4453 77.3654L99.4492 77.3615Z" fill="#E5D0C8"/>
<path d="M112.365 82.5578C112.192 81.8114 113.741 81.694 114.258 81.7036C114.941 81.7171 116.222 82.15 116.557 82.7868C116.665 82.9907 116.946 83.7122 116.501 83.6872C115.995 83.6602 115.199 82.5578 114.539 82.5578H112.363H112.365Z" fill="black"/>
<path d="M50.0413 94.3574C49.8124 93.9553 49.5257 93.5782 49.62 93.0934C52.2519 92.6605 54.5933 90.9328 56.977 89.8535L58.1833 94.4978C55.8496 95.6695 53.537 96.9392 51.0956 97.8704C51.0822 96.9258 51.0533 96.0946 50.657 95.2173C50.4992 94.8691 50.1683 94.5825 50.0413 94.3574Z" fill="#FEFEFE"/>
<path d="M23.6523 74.9722C23.687 74.041 24.0698 73.6043 24.6316 72.9309C25.1434 72.3191 28.5891 69.2236 29.1835 69.364L36.2847 80.3071C33.9433 78.6257 31.6731 76.4363 29.1701 74.9972C28.3832 74.5451 26.2573 73.3522 25.4781 73.8467C25.1876 74.0294 24.8375 74.8664 24.7759 75.2511C24.6432 75.4031 24.5027 75.3089 24.3546 74.9702C24.0621 74.8452 24.0217 74.8106 23.6523 74.9702V74.9722Z" fill="#FEFEFE"/>
<path d="M25.4757 73.8486C26.7359 74.2911 27.8998 75.1106 28.9733 75.8975C31.5668 77.7964 34.4334 80.1994 36.9133 82.281C39.6029 84.5397 41.8615 87.185 44.4242 89.3725C45.2591 90.0843 46.3269 90.5557 47.0965 91.1925C47.4716 91.5042 49.1108 93.8841 49.4783 93.5127C49.5841 92.6393 48.6356 92.1179 48.6413 91.2714C52.3506 89.9189 55.7732 87.8661 59.0227 85.6478L61.1351 93.0125C60.1732 93.5455 59.1631 94.0033 58.182 94.4978L57.8684 94.4093L56.8064 90.3248C54.617 91.5561 52.316 92.5565 49.9034 93.3261C50.0766 93.7243 50.1228 94.0688 50.04 94.3593C50.1016 95.3828 50.4671 97.474 49.9015 98.3302C49.7033 98.6303 48.3759 98.6111 48.018 98.561C46.9791 98.4168 42.3887 95.933 41.1959 95.275C34.999 91.862 28.9445 86.1288 25.545 79.8935C24.8793 78.6737 23.6038 76.3054 23.6538 74.9741C23.748 74.4527 24.3925 74.4238 24.356 74.9741C24.6388 75.4377 24.7793 75.532 24.7773 75.2549C24.3368 74.9279 24.9447 73.5696 25.4795 73.8505L25.4757 73.8486Z" fill="#E0E4EB"/>
<path d="M35.863 86.631C36.1266 86.3328 34.8472 84.7744 34.5971 84.4589C33.5486 83.143 32.248 82.0194 31.0937 80.7996C31.0379 80.6246 31.1283 80.5188 31.3015 80.5919C31.54 80.6938 32.5866 81.9078 32.9156 82.208C37.0154 85.9288 41.3211 89.5976 45.9039 92.6701L49.338 95.9734C48.8493 96.3236 48.4799 96.3948 48.2779 97.0297C47.0389 96.7314 45.7884 96.4006 44.5994 95.9407C42.7794 95.2366 40.4515 93.3743 38.8855 92.1064C34.6625 88.6838 31.3053 84.382 28.0039 80.0974L28.2117 79.8896C30.2395 81.8078 32.098 84.0241 34.3316 85.7056C34.5086 85.8383 35.7495 86.758 35.863 86.6291V86.631Z" fill="#FEFEFE"/>
<path d="M24.7768 75.2535C25.2655 75.7653 26.92 78.8974 27.2875 79.6939C27.3587 79.8478 27.5607 80.1806 27.3741 80.3095C25.9831 78.8031 24.7883 77.0024 24.3555 74.9727C24.442 75.0092 24.7152 75.19 24.7768 75.2535Z" fill="black"/>
<path d="M28.0037 79.7474C27.8401 79.9109 27.4457 79.3953 27.5112 79.1895C27.7112 79.4049 28.0749 79.3818 28.0037 79.7474Z" fill="#FEFEFE"/>
<path d="M27.2305 78.7656C27.3207 78.8117 27.3207 78.8597 27.2305 78.9058V78.7656Z" fill="#FEFEFE"/>
<path d="M46.8126 51.233C46.9242 51.2292 47.0954 51.2426 47.1089 51.3196C47.284 52.245 48.369 58.5073 48.1093 58.7824C48.015 58.8805 47.8958 58.9305 47.7611 58.944C45.9238 58.5631 47.03 59.6789 48.1228 59.9271C48.5441 60.156 49.0097 60.6082 48.496 60.9256L48.1978 61.1603C46.2951 60.8852 44.3654 60.6909 42.4607 60.7852C43.4015 61.7067 44.579 62.3551 45.993 62.7264C48.2093 63.2901 50.2833 64.1 52.213 65.1582C53.8829 67.109 56.0608 68.3326 58.5445 69.0925C59.2737 69.3042 59.1505 69.7024 58.8735 70.3412C57.3113 73.7638 55.7683 77.2537 55.4297 81.0534C55.5279 82.5695 55.4259 84.0374 55.0757 85.5515C55.0911 86.1556 54.9565 86.6577 54.6736 87.056C53.7925 87.5716 52.9133 87.9987 52.0071 88.4604C51.68 88.4297 51.6262 88.243 51.6146 87.9525L51.5858 84.8089L51.3261 84.6396C51.4703 84.1451 51.4627 83.7334 51.3049 83.4044C51.0432 83.5545 50.8143 83.3371 50.6181 82.7561C50.3449 82.6849 50.1544 82.5733 50.0428 82.4213C49.7446 82.4079 49.7273 82.252 49.71 82.0019L49.481 82.2097C49.5907 82.2366 49.7388 82.2789 49.7562 82.3713C49.8427 82.8196 49.8235 85.1648 49.76 85.6592L49.4791 85.8613C49.9043 86.096 49.6503 87.4215 49.1982 87.6178C48.9539 88.2546 48.6711 87.7505 48.496 87.3369L48.194 87.1272C47.8053 85.1571 46.5836 83.3294 45.3947 81.721C40.835 75.5607 35.5905 69.4158 30.2478 64.0173C29.7707 63.9423 29.2955 64.0058 28.8222 64.2097L28.5625 64.0173C29.1416 62.2108 33.9879 58.8728 35.6771 57.7223C39.1555 55.354 43.0321 53.0857 46.8107 51.2349L46.8126 51.233Z" fill="#FEFEFE"/>
<path d="M28.5643 64.0153C29.0319 63.8036 29.4686 63.6132 30.0034 63.7421C30.1458 63.7767 30.1958 63.9903 30.2478 64.0153C31.4271 65.1869 32.7642 66.5491 33.3356 68.0882C37.0757 73.9349 41.0254 79.6604 45.181 85.2647L46.0045 85.9439L45.6062 84.3644L45.8275 84.1027L46.1315 84.0546L48.2901 87.4234L48.4959 87.3349L48.6825 87.3387C48.8211 87.5869 48.8788 87.685 49.1981 87.6157C49.5791 88.2622 49.8253 86.8308 49.9158 86.2709C50.1024 85.1166 50.0389 83.9392 49.8292 82.7925L50.0408 82.4174C51.0663 82.1827 50.9143 83.0349 51.3048 83.4005C51.3625 83.4255 51.4145 83.4524 51.4453 83.4967C51.5145 83.5948 51.2702 84.93 51.2202 85.1839C51.2394 84.9377 51.3164 84.828 51.5857 84.8049C52.1148 85.965 51.6415 87.281 52.007 88.4565C50.6988 89.1241 48.8384 90.5439 47.3416 89.9648C45.0271 89.0664 40.3424 83.464 38.6783 81.3573C35.6982 77.5865 32.5487 73.0865 30.2266 68.8847C29.509 67.586 28.0968 65.4794 28.5663 64.0134L28.5643 64.0153Z" fill="#E0E4EB"/>
<path d="M48.4982 87.3333C48.5155 87.6122 48.4886 87.897 48.4982 88.176L45.8317 84.1031L45.3372 83.6971C42.1917 79.401 38.8826 75.2146 35.4503 71.134C34.6904 70.1625 33.9343 69.1659 33.3398 68.0885C32.2797 66.761 31.1889 65.4335 30.252 64.0156C31.1523 64.4523 31.5275 64.9141 32.2201 65.6279C36.3661 69.8931 40.768 75.2473 44.4234 79.9647C45.8067 81.752 48.3654 85.0804 48.5001 87.3333H48.4982Z" fill="black"/>
<path d="M49.2018 87.6143C49.2557 87.1199 49.4827 86.2099 49.4827 85.8578V82.2063C49.4827 82.0177 49.1941 81.4906 49.3423 81.152C49.9637 80.9692 49.9368 81.9177 50.0426 82.4179C50.4755 84.4553 50.4678 86.8813 49.3403 88.6706C48.8421 88.8918 49.1826 87.7759 49.1999 87.6163L49.2018 87.6143Z" fill="black"/>
<path d="M51.3057 83.4011C51.3346 83.43 51.5558 83.3165 51.5943 83.4819C51.6424 83.6878 51.6174 84.5439 51.5866 84.8056C51.5539 85.0903 51.1865 86.4986 51.0345 86.6852C50.9036 86.8449 50.7709 86.7622 50.6035 86.7718L51.3038 83.4011H51.3057Z" fill="black"/>
<path d="M45.8304 84.1034L46.5307 86.7718C45.8535 86.1042 44.9339 85.5694 44.3644 84.796C40.6205 79.7111 36.9036 73.9356 33.4482 68.6083C33.3694 68.4852 33.0307 68.1754 33.3366 68.0869C37.5558 73.3699 42.1173 78.4586 45.8304 84.1014V84.1034Z" fill="#FEFEFE"/>
<path d="M46.8117 51.2335C47.0329 51.1238 47.4581 50.5948 47.7217 50.9526C47.9333 51.2393 48.3989 52.7957 48.6105 53.294C49.7668 55.999 50.3151 58.2095 52.3698 60.4894C53.1817 61.3897 54.0686 61.9323 55.3037 62.0477C55.55 62.0708 55.7635 61.8399 56.0694 61.9727C56.2753 62.0631 56.9718 62.8692 57.4373 63.1444C58.3031 63.658 59.0111 63.6272 59.821 63.9908C61.3294 64.67 62.7107 66.6516 64.6385 65.9821C64.702 66.2245 64.5384 66.263 64.4288 66.4034C61.314 70.4378 58.3166 74.2395 58.1684 79.6783L58.7244 84.5015C57.3796 85.3673 56.0521 86.2427 54.6708 87.0526C54.6573 85.5654 55.1248 84.0994 55.2383 82.62C55.2672 82.2448 55.071 81.9158 55.0921 81.6445C55.3018 79.0146 55.8828 76.8233 56.8102 74.3722C57.4335 72.7254 58.3339 71.1458 58.8783 69.499C56.966 68.8679 55.044 68.1272 53.4818 66.8209C52.8585 66.2995 52.2909 65.4473 51.5906 65.0625C49.2415 63.7715 45.5515 63.2232 43.2024 61.7976C42.8792 61.6014 42.3694 61.2089 42.4598 60.7856C46.4115 60.9857 50.1843 61.7995 53.7819 63.2232C52.2967 62.1324 50.3863 61.6649 48.6182 61.2339L48.497 60.9261C48.5778 59.8795 46.6096 60.0584 46.525 59.1638C46.4288 58.1461 47.8737 58.7444 47.9352 58.679L46.8136 51.2354L46.8117 51.2335Z" fill="#E0E4EB"/>
<path d="M48.4981 60.9262C49.8968 61.1705 53.0924 62.1459 54.1159 63.1001C54.2679 63.2425 54.4391 63.356 54.393 63.5946C54.139 63.8158 52.2747 62.8616 51.8342 62.7134C48.7944 61.6938 46.126 61.6534 43.1055 61.0531C42.8611 61.005 42.6687 60.9108 42.4609 60.7857C42.5533 60.3567 43.9866 60.4837 44.3617 60.4991C45.5199 60.5452 47.3592 60.7261 48.4962 60.9262H48.4981Z" fill="black"/>
<path d="M51.3046 60.6429C51.0584 60.6718 50.839 60.6372 50.6005 60.5756C49.954 60.4082 48.5996 60.0985 48.0763 59.8715C47.8512 59.7733 47.605 59.6868 47.655 59.3809C48.8016 59.4039 50.8159 59.3847 51.3027 60.6429H51.3046Z" fill="black"/>
<path d="M104.818 44.2408C104.404 44.6545 105.006 45.8627 104.223 45.8935L104.504 42.3823C105.728 42.5863 108.502 43.7695 109.099 42.1341C109.776 40.2757 109.753 36.2413 109.839 34.1654C109.934 31.9106 110.228 28.942 109.832 26.7257C109.758 26.312 109.11 25.6483 108.762 25.4078C107.752 24.7133 102.057 22.3103 100.912 22.166C100.426 22.1044 99.6484 22.0814 99.4137 22.6085C99.1501 24.4324 98.875 26.2851 98.7499 28.1262C98.571 30.8005 98.3074 34.4963 98.469 37.1128C98.5075 37.7419 98.6268 39.1175 98.9077 39.6235C99.5079 40.7066 101.324 40.6835 100.993 42.1688L100.716 44.0658L100.441 41.7763C99.2251 40.7239 97.5513 40.4354 97.4763 38.5191C97.4109 36.8781 97.938 34.504 98.0458 32.7571C98.1631 30.8466 98.2209 28.9189 98.3344 27.0046C98.4171 25.6079 98.5672 16.7079 99.1732 16.252C101.911 17.2197 104.729 18.1278 107.363 19.3629C108.614 19.9497 110.422 20.5057 110.647 21.9756C111.211 25.6329 110.788 30.685 110.676 34.4386C110.62 36.2701 110.676 38.0882 110.54 39.9217C110.48 40.7259 110.238 43.8541 109.953 44.3909C109.76 44.7526 109.043 44.6583 108.641 44.6333C107.81 44.5833 105.368 43.6944 104.82 44.2408H104.818Z" fill="#F5EFEF"/>
<path d="M108.856 15.1305C108.762 15.2806 108.837 15.6923 108.427 15.4942L98.8442 9.90909C96.5817 8.4046 94.9118 9.5878 95.1003 12.1812C94.8213 12.7526 94.677 13.399 94.6674 14.1167L94.679 65.5251L94.3981 65.7002C93.9787 65.6944 93.5246 65.5675 93.5477 65.0769V9.99952C93.6016 9.42042 93.8074 8.59507 94.1172 8.10832C95.0464 7.39071 96.3431 7.914 97.307 8.33149C100.732 10.2862 104.231 12.2909 107.808 14.3456L108.856 15.1305Z" fill="#A8A9C3"/>
<path d="M95.1007 12.1816V66.0508C95.0776 66.2393 94.2157 66.0431 94.3985 65.7006L94.3927 14.0709C94.6351 13.4418 94.2369 12.2932 95.1007 12.1797V12.1816Z" fill="#E0E4EB"/>
<path d="M101.837 70.194C101.722 70.3133 101.004 69.9132 100.927 69.7727C100.766 69.4784 100.829 65.4843 100.85 64.7821C100.885 63.6259 101.081 62.2964 101.135 61.1344C101.356 56.3535 101.47 51.1071 102.12 46.3839C102.145 46.1953 102.039 46.1357 102.33 46.1742C103.15 46.2838 102.992 47.0034 102.967 47.6575C102.811 51.8247 102.172 56.0938 101.974 60.2879C101.818 63.5816 101.836 66.8888 101.839 70.196L101.837 70.194Z" fill="#E0E4EB"/>
<path d="M94.1172 8.10785C94.5578 7.41524 95.3119 7.12473 96.12 7.29981L109.137 14.5721C109.199 14.8569 108.962 14.9627 108.856 15.132C105.818 13.4813 102.8 11.7844 99.7773 10.0991C97.9034 9.0544 96.472 7.69805 94.1172 8.10785Z" fill="#E0E4EB"/>
<path d="M105.346 17.2375L104.363 16.8854V14.5671C104.571 14.4516 105.346 14.9846 105.346 15.0596V17.2375Z" fill="#A8A9C3"/>
<path d="M108.576 26.7889C108.672 26.9582 108.803 26.9698 108.851 27.2834C109.078 28.809 108.886 30.402 108.851 31.9103C108.778 35.1579 108.674 38.3785 108.132 41.5856L107.926 41.8011C106.797 42.1782 104.559 40.8315 103.891 41.272C103.191 41.703 103.345 44.9544 103.101 45.191L101.833 44.6754C101.808 43.5249 102.36 41.6337 101.877 40.5871C101.571 39.9234 100.124 39.7887 99.7724 38.7613C99.2606 37.2684 99.6666 33.1936 99.7339 31.4236C100.176 29.846 100.613 27.3334 100.838 25.3633C100.838 24.9939 101.027 24.9266 101.325 24.8554C101.623 24.7842 106.881 26.0617 107.545 26.2656C107.835 26.3541 108.174 26.4849 108.443 26.6215C108.517 26.6581 108.568 26.6946 108.576 26.7889Z" fill="#B2C1E0"/>
<path d="M99.7344 31.4259C99.8421 28.6535 99.9729 25.8946 100.296 23.1377C102.099 23.6398 103.873 24.3228 105.583 25.0789C106.187 25.3463 108.19 26.1832 108.538 26.5507C108.605 26.6219 108.555 26.7527 108.577 26.7892L101.137 25.102C101.016 27.0855 100.554 29.0575 100.054 30.9795C99.9903 31.2238 100.14 31.5086 99.7344 31.4239V31.4259Z" fill="#E0E4EB"/>
<path d="M107.17 29.3193C107.387 29.3135 107.509 29.2635 107.659 29.4636C108.184 30.1658 107.62 32.3764 107.591 33.2537H107.172V29.3193H107.17Z" fill="#E0E4EB"/>
<path d="M100.385 31.4434C100.897 31.2703 102.726 32.3554 103.386 32.617C104.187 32.9344 107.748 33.9676 108.025 34.437C108.256 34.8256 108.181 36.2897 108.154 36.8323C108.115 37.6422 108.013 39.1602 107.873 39.922C107.678 40.9744 105.737 40.2837 105.037 40.0952C103.958 39.8047 102.572 39.3083 101.605 38.7542C101.316 38.5888 100.287 37.9019 100.144 37.6865C99.777 37.1266 100.098 34.1484 100.152 33.3211C100.181 32.8883 99.9886 31.5781 100.383 31.4453L100.385 31.4434Z" fill="black"/>
<path d="M107.154 35.0964L106.895 39.2925C106.527 39.6599 101.71 37.9438 101.208 37.1858C100.817 35.739 101.144 34.2942 101.14 32.8301L107.156 35.0964H107.154Z" fill="#FEFEFE"/>
<path d="M128.228 171.757L128.395 171.849C128.268 176.657 128.261 181.494 128.372 186.36C128.128 186.973 128.174 187.445 128.509 187.77C128.836 187.943 128.934 188.845 128.79 189.174C128.549 189.215 128.495 189.345 128.037 189.303C126.344 189.145 121.023 185.563 119.199 184.515C82.3256 163.304 45.5542 141.91 8.65766 120.743C8.70191 114.856 8.51914 108.951 8.63458 103.066C8.7654 102.766 8.9347 102.818 9.18096 102.947C48.1283 125.412 87.5124 148.243 127.339 171.438C127.77 171.338 128.066 171.445 128.23 171.757H128.228Z" fill="#7C5D5D"/>
<path d="M128.647 171.757L128.77 171.495C129.923 170.943 131.123 170.389 132.372 169.831C152.153 158.526 171.933 147.077 191.713 135.484C192.644 134.562 193.456 134.12 193.994 134.762L194.444 150.323L194.198 151.527C193.985 151.831 193.937 152.085 193.45 152.253L129.459 189.078C129.244 189.188 128.997 189.138 128.786 189.172C128.499 188.974 128.393 187.968 128.505 187.768C128.739 182.604 128.716 177.411 128.434 172.192L128.645 171.753L128.647 171.757Z" fill="#916B6B"/>
<path d="M192.518 132.706C171.316 145.061 150.007 157.241 128.796 169.585L128.031 169.791L8.77596 100.957C8.72209 100.742 8.81059 100.732 8.9241 100.619C9.16651 100.373 10.9827 99.3086 11.1462 99.426L12.3544 100.821L54.3877 125.06C55.5247 127.167 58.3817 128.5 60.4769 129.643C62.293 130.634 63.6975 131.513 65.8984 131.382L125.657 165.976C127.305 166.834 129.143 166.899 130.851 166.166C148.784 155.329 167.415 145.586 185.313 134.699C186.307 134.093 188.676 132.873 189.076 131.863C189.232 131.469 189.207 131.105 189.288 130.741L189.713 130.61C190.307 130.862 192.387 131.93 192.726 132.417C192.785 132.504 192.645 132.65 192.516 132.709L192.518 132.706Z" fill="#916B6B"/>
<path d="M128.51 170.915C128.889 171.088 128.885 171.307 128.51 171.476C128.637 171.748 128.5 171.834 128.229 171.757L127.24 171.694C93.2582 152.076 59.3918 132.254 25.4331 112.595C20.0693 109.49 14.7112 106.322 9.29158 103.322C9.08188 103.207 8.87795 103.093 8.63553 103.066C8.64131 102.808 8.5682 102.437 8.70479 102.224L126.501 170.326C127.146 170.566 127.8 170.988 128.512 170.913L128.51 170.915Z" fill="#916B6B"/>
<path d="M128.511 170.914C129.253 170.837 130.275 169.946 130.991 169.673L194.166 133.16L194.624 133.125C194.606 133.579 194.753 133.998 194.772 134.452C194.964 139.024 194.824 143.939 194.764 148.508C194.747 149.776 194.962 150.444 194.204 151.527L193.716 134.672C173.869 145.904 154.414 157.855 134.502 168.969C132.666 169.993 131.456 170.753 129.453 171.362C129.209 171.438 129.048 171.863 128.651 171.755C128.374 171.865 128.303 171.68 128.511 171.474C128.482 171.305 128.53 171.091 128.511 170.912V170.914Z" fill="#A78989"/>
<path d="M189.287 130.739C189.339 130.506 189.431 130.279 189.429 130.037C189.539 130.023 189.643 130.041 189.751 130.064C189.978 130.112 193.075 131.901 193.223 132.07C193.331 132.194 193.402 132.232 193.358 132.425C193.331 132.461 192.642 132.634 192.515 132.707C192.552 132.378 191.961 132.176 191.715 132.032C190.938 131.58 190.126 131.055 189.287 130.741V130.739Z" fill="#A78989"/>
<path d="M128.648 171.757C129.343 175.547 128.754 182.3 128.781 186.443C128.783 186.841 129.025 187.368 128.792 187.676C128.696 187.805 128.513 187.757 128.508 187.77C127.549 187.824 128.077 186.833 128.092 186.3C128.231 181.862 127.759 177.027 128.08 172.664C128.1 172.412 128.152 171.984 128.227 171.755C128.271 171.617 128.373 171.525 128.508 171.475C128.523 171.559 128.633 171.669 128.648 171.755V171.757Z" fill="black"/>
<path d="M4.14044 41.1191H4V116.694H4.14044V41.1191Z" fill="#C7C8DC"/>
<path d="M68.0095 38.0295C64.0886 36.3769 61.5279 34.859 56.9932 35.2226C52.5086 35.5823 43.7126 39.8361 45.9712 45.475C45.7096 46.1407 45.067 45.4058 45.1132 44.8748C45.3768 43.0471 44.7034 43.3837 44.2474 44.8286C43.7915 46.2734 45.1594 48.7822 45.9039 50.0135L45.8308 50.3925C40.5555 53.3784 34.9454 56.2527 30.3242 60.2294C29.2353 61.1663 27.4345 62.6631 27.3017 64.1599C26.6053 64.9583 26.1185 65.7164 25.6356 66.711L23.3404 72.0691C21.2184 72.9887 19.256 75.4975 20.4007 77.86L20.2834 78.2063C18.725 79.1317 16.0296 81.0075 14.4867 81.6097C14.2135 81.7155 14.0884 81.6963 13.8268 81.7193C13.4478 81.552 13.5767 81.2153 13.9672 81.1576C14.2635 80.6612 14.6637 80.1802 15.1639 79.7166C15.8853 78.4218 16.3298 76.9827 16.4933 75.3993C16.0296 75.0742 15.8969 73.5139 16.3528 73.1522L16.5106 73.0503C16.626 73.5639 16.626 73.5216 16.5106 72.9233C16.803 66.3262 16.6991 59.7253 16.2124 53.2033C15.6987 52.4684 15.6006 51.4622 15.8026 50.6734C15.7834 50.8504 15.7333 50.8042 15.6525 50.5349L15.5063 50.3944C15.3563 49.1612 15.0542 48.0607 14.4443 46.9737C14.2154 46.5678 12.9649 45.0691 12.7051 45.9002L12.8898 46.4216C12.3954 57.3185 12.48 68.8427 12.7244 80.0263L13.4324 81.425L13.265 81.7213C12.0106 81.5674 11.4334 80.5727 11.3007 79.4011C11.445 69.4891 11.0371 59.5156 11.445 49.6287C11.5104 48.0357 11.191 46.7082 11.9336 45.2018C12.5281 43.9917 13.1168 44.1071 14.1057 43.5127C14.4136 43.6627 14.3308 43.857 14.1327 44.086C12.8167 45.4519 14.5348 45.35 15.4967 44.7228L64.787 16.1375C65.8547 16.0298 66.2991 17.4862 66.4684 18.3115C67.4496 23.0712 67.5574 28.1946 67.3361 33.0563C67.1745 34.7916 67.4631 36.3442 68.2019 37.714L68.0076 38.0315L68.0095 38.0295Z" fill="#8585A7"/>
<path d="M9.33405 44.0682L9.68806 44.074C10.0728 44.7878 10.3287 45.5343 10.4576 46.3154C9.6996 49.8015 10.1902 55.7348 10.1767 59.5191C10.044 62.6454 9.95547 65.968 10.1767 69.0712C10.1863 72.7882 10.1613 76.5109 10.1844 80.2298C10.4884 81.1418 10.9925 82.0094 11.8582 82.4846C11.4119 83.1792 10.8424 83.9333 10.5884 84.726C9.86313 86.9962 10.0093 93.9261 10.169 96.5387C10.2056 97.1467 10.4595 97.7181 10.4615 98.3318C9.37061 99.1398 7.95462 99.3765 7.50635 100.819C7.55637 100.985 7.46403 101.075 7.34474 101.171C7.24663 102.512 7.30049 103.613 7.50635 104.471C7.54483 109.619 7.47749 114.773 7.50635 119.922C6.06728 119.508 5.39392 118.017 5.25539 116.626V41.598C5.19191 41.369 5.3766 41.1362 5.40161 40.9766C5.51704 40.5956 5.88835 40.1897 6.24427 40.5552C6.57134 40.3417 7.50058 41.1228 7.73915 41.4344C8.36634 42.2521 8.92234 43.114 9.33213 44.0682H9.33405Z" fill="#686880"/>
<path d="M65.2011 13.305C64.6874 13.3569 64.1833 13.3877 63.6851 13.5435L12.5171 42.9696C11.2512 43.9219 10.7856 44.8088 10.4566 46.3152C10.0776 46.398 10.1872 46.1228 10.1084 45.8977C9.88134 45.2571 9.76976 44.601 9.33303 44.0662C8.78857 42.9523 8.18254 41.821 7.3418 40.8995L7.36873 40.5532C7.96514 40.0933 8.68083 39.7451 9.5158 39.5085C26.9579 29.8544 44.3191 19.7616 61.6015 9.22631C63.0348 8.20857 65.9899 12.6797 65.3993 13.1876C65.3435 13.2357 65.2742 13.2703 65.2011 13.3011V13.305Z" fill="#8585A7"/>
<path d="M6.10644 39.4336C24.7529 28.5924 43.3897 17.6685 62.1958 7.13136C62.846 7.00053 63.3289 7.36992 63.8003 7.7547C65.4087 9.07064 65.8396 11.3351 65.905 13.3052C65.6742 13.3225 65.4317 13.2801 65.2028 13.3052C65.401 12.1816 63.1212 9.3727 62.1881 9.36116C62.0265 9.35924 61.8745 9.41118 61.7302 9.48044C53.9365 14.0074 46.264 18.7498 38.4856 23.3036C30.388 28.0461 22.1344 32.9885 13.9213 37.4905C11.8397 38.6313 9.67527 40.0031 7.37044 40.5572C7.03568 40.8188 6.345 40.461 6.10644 40.1358C5.7005 40.0012 5.87557 39.7107 6.10644 39.4336Z" fill="#A8A9C3"/>
<path d="M64.5005 14.5693C66.4898 14.1518 67.9962 15.6274 68.3925 17.4878C68.7407 19.1193 68.6368 20.9951 68.7061 22.6516C68.9254 27.898 69.0024 32.7655 68.7119 38.0274C68.683 38.2621 68.4925 38.2448 68.2905 38.1678C68.1751 38.1236 68.0943 38.0639 68.0097 38.0274C67.9616 37.6695 67.6557 37.5156 67.5402 37.1635C66.6745 34.5259 67.242 31.6073 67.1727 28.8215C67.1016 25.8645 66.9361 22.6419 66.4436 19.7195C66.2974 18.8499 65.9761 16.32 64.8602 16.397L15.6335 44.9649C15.0698 45.2766 13.4441 45.9538 13.3902 44.8418C13.3537 44.1126 13.9808 44.1377 14.1078 43.5066C16.605 42.006 19.0811 40.4572 21.688 39.1528C21.8727 39.099 22.0054 39.0451 22.1093 38.872C22.1997 38.8296 22.2767 38.7796 22.3902 38.7315C22.75 38.5814 23.077 38.3948 23.3733 38.1697C23.4426 38.1428 23.5503 38.0735 23.6542 38.0293C37.1426 30.1567 50.7581 22.338 64.5024 14.5712L64.5005 14.5693Z" fill="#A8A9C3"/>
<path d="M12.7027 45.8935C12.7104 45.7819 12.7585 45.6222 12.8373 45.626C14.5612 45.7068 15.3326 49.5142 15.5885 50.8571C15.5924 50.8764 15.4596 50.5204 15.6501 50.5301C16.1041 50.4512 15.8848 50.759 15.9252 51.0207C16.0368 51.746 16.1157 52.4732 16.2119 53.1985C16.3696 57.5908 16.4273 62.0638 16.385 66.6215L16.2119 67.5277C16.1214 68.9591 16.0002 71.0234 16.3523 72.1624C16.6178 72.4375 16.5909 72.8531 16.3523 73.1455C16.3523 74.0343 16.435 74.5268 16.4927 75.3926C16.1407 77.6416 15.2557 79.4039 13.9667 81.1528C13.959 81.3317 13.857 81.5317 13.8262 81.7145C13.6627 81.728 13.4222 81.7338 13.2644 81.7145L12.4526 80.0696C12.1082 71.1408 12.2621 62.0773 12.4295 53.135C12.4737 50.7263 12.1967 48.2522 12.7046 45.8954L12.7027 45.8935Z" fill="#686880"/>
<path d="M27.3013 64.1552C27.1532 65.8406 27.9824 66.8795 28.6923 68.3012C26.9935 69.3517 22.8995 72.2298 22.5628 74.2326C22.4146 75.1176 22.5743 75.9468 22.7513 76.7991C21.9664 77.3282 21.0929 77.7226 20.2829 78.2016C18.9997 76.2739 20.3214 73.767 21.9644 72.5088C22.2896 72.2606 23.0091 72.0336 23.0572 71.9855C23.2708 71.7719 24.9715 67.3335 25.4525 66.4466C25.8796 65.6597 26.3894 64.3419 27.3013 64.1533V64.1552Z" fill="#686880"/>
<path d="M45.9724 45.4728C46.1705 45.9672 46.9151 46.6406 47.0324 47.01C47.2402 47.6622 46.9728 48.6222 47.2479 49.3379C47.2325 49.9554 46.2744 50.1382 45.83 50.3903C45.7069 50.169 45.4972 50.0151 45.3798 49.7861C44.8642 48.7723 43.7945 46.4617 43.8561 45.3997C43.8907 44.7936 44.3601 43.1737 45.1855 43.3757C45.7896 43.5239 44.8642 45.6325 45.9685 45.4728H45.9724Z" fill="#686880"/>
<path d="M64.4986 14.5693C64.5736 14.9079 64.3274 14.8598 64.1292 14.9657C53.3861 20.6431 42.8644 27.2401 32.3079 33.2773C29.4875 34.8915 26.5439 36.7634 23.6504 38.0294C23.8851 37.7138 24.3372 37.5041 24.6797 37.3021C36.3674 30.4492 48.1089 23.5809 59.912 16.9338C61.1337 16.247 63.2269 14.8368 64.4986 14.5693Z" fill="#8585A7"/>
<path d="M10.1773 69.0736L9.89062 66.6226C10.0522 64.5102 10.0099 62.4112 10.0349 60.293C10.0388 60.0544 9.94449 59.6677 10.1773 59.5215C10.1657 62.7036 10.1677 65.8915 10.1773 69.0736Z" fill="#8585A7"/>
<path d="M7.50925 104.471C7.08407 104.55 7.23991 104.255 7.22836 103.986C7.1745 102.645 7.17834 101.314 7.08984 99.9766C7.38035 99.9939 7.16872 100.509 7.22644 100.727C7.26684 100.875 7.50156 100.806 7.50925 100.819C7.60929 100.971 7.5054 103.949 7.50925 104.471Z" fill="#8585A7"/>
<path d="M6.10652 40.1358C6.42204 40.2147 6.50477 40.3301 6.24696 40.5571L5.4043 40.9785C5.49857 40.3513 5.39468 39.7818 6.10652 39.4336C6.13153 39.6548 6.06996 39.928 6.10652 40.1358Z" fill="#8585A7"/>
<path d="M23.3718 38.1689C23.4507 38.6557 22.6619 38.6153 22.3887 38.7307C22.5734 38.3479 23.0236 38.3036 23.3718 38.1689Z" fill="#8585A7"/>
<path d="M22.1069 38.8721V39.153H21.6855C21.7394 39.126 21.851 38.9914 22.1069 38.8721Z" fill="#8585A7"/>
<path d="M16.2127 53.1992C16.5129 55.4982 16.8322 57.8242 16.9207 60.1464C17.09 64.6098 16.8842 69.1214 16.6322 73.5656L16.3532 73.1443C16.3532 72.8172 16.3609 72.4882 16.3532 72.1611C16.0627 70.6547 16.1281 69.0598 16.2127 67.5265C16.1512 63.0149 16.0146 58.4707 16.0704 53.9688C16.0742 53.7302 15.98 53.3435 16.2127 53.1973V53.1992Z" fill="black"/>
<path d="M13.9674 81.1527C13.9674 81.1277 13.7788 81.0277 13.8789 80.7352C14.0097 80.3485 14.8985 79.4155 15.189 78.794C15.5354 78.0533 15.7047 77.2549 15.9682 76.4834C16.0856 76.141 16.1914 75.5888 16.4935 75.3926C16.6416 77.6166 15.9894 79.9946 13.9674 81.1527Z" fill="black"/>
<path d="M15.6513 50.531C15.6436 50.6868 15.7475 50.9889 15.5128 50.9523C15.0414 49.3324 14.5797 47.1276 13.1983 46.0291C12.9867 45.8617 12.7654 45.9329 12.7039 45.8963C12.6423 45.8598 12.3383 45.4115 12.423 45.3345C13.1945 45.1845 13.7793 45.7116 14.2507 46.2445C15.2146 47.3315 15.7148 49.0977 15.6513 50.531Z" fill="black"/>
<path d="M7.36946 40.557C8.13518 41.1303 9.21256 43.0966 9.33377 44.0681C8.6681 43.2543 8.19674 42.4155 7.58109 41.6787C7.20978 41.2342 6.46908 40.8321 6.24591 40.557C6.15549 40.4454 6.13048 40.2742 6.10547 40.1357C6.446 40.0914 7.10589 40.3608 7.36946 40.557Z" fill="black"/>
<path d="M16.3548 72.163C15.9296 72.2418 16.0855 71.9475 16.0739 71.6782C16.0297 70.5661 16.0604 69.4137 16.072 68.2979C16.0739 68.0612 15.9816 67.6726 16.2143 67.5264C16.2355 69.077 16.3221 70.6142 16.3548 72.1611V72.163Z" fill="#8585A7"/>
<path d="M143.391 92.6708L145.209 92.9306C149.656 95.4239 154.181 98.002 158.654 100.549C160.468 101.582 162.342 102.662 164.048 103.695C164.881 104.199 165.778 104.776 165.541 105.876C165.707 106.965 165.707 108.299 165.541 109.388C165.458 110.159 165.054 110.602 164.466 111.048L121.015 136.201C119.483 136.878 117.779 137.005 116.197 136.426C115.31 136.101 114.562 135.414 113.671 135.093V182.923C113.894 183.181 114.189 183.344 114.469 183.527C115.732 184.35 118.302 185.412 119.27 186.301C119.537 186.546 119.697 186.826 119.81 187.167C119.448 188.077 119.976 190.293 119.629 190.999C119.522 191.219 119.125 191.296 118.989 191.482C118.821 191.711 118.844 192.046 118.698 192.315C118.296 193.056 116.407 193.86 115.631 194.23H114.51C112.882 193.45 111.926 191.623 112.386 189.832L112.118 189.529L104.558 185.155C104.121 185.031 102.855 186.151 102.316 186.297C100.458 186.798 98.857 185.051 98.6819 183.327C98.6358 182.877 98.8301 182.142 98.7858 181.965C98.7377 181.78 98.4511 181.688 98.3876 181.374C98.301 180.937 98.3472 177.584 98.5145 177.326C99.2225 177.022 100.233 176.095 100.979 176.095C101.933 176.095 103.022 177.324 103.994 177.513V129.331C103.79 129.313 103.603 129.229 103.43 129.127C101.5 127.999 98.6396 126.624 96.937 125.375C96.3944 124.977 95.8326 124.323 95.7345 123.63C95.6364 122.938 95.6441 121.139 95.721 120.412C95.7884 119.784 96.0962 119.267 96.4906 118.794C111.268 110.292 125.98 101.659 140.79 93.2269L142.826 92.667H143.386L143.391 92.6708Z" fill="black"/>
<path d="M165.683 109.388H165.543C165.633 108.549 165.631 106.716 165.543 105.877H165.683V109.388Z" fill="#BFBFBF"/>
<path d="M105.119 135.092C105.129 134.765 105.112 134.434 105.119 134.107L109.956 134.248L110.306 134.458V183.692L105.342 181.006L105.117 180.602C105.229 180.394 105.435 180.331 105.737 180.416C105.741 178.444 105.758 176.406 105.791 174.305C105.625 166.829 105.687 159.328 105.972 151.803C106.189 146.053 106.068 140.454 105.612 135.008C105.452 135.166 105.289 135.192 105.117 135.089L105.119 135.092Z" fill="#D7D7D7"/>
<path d="M112.549 134.952V183.275L111.43 183.836V134.952H112.549Z" fill="#BFBFBF"/>
<path d="M105.121 180.606C105.442 165.455 104.692 150.237 105.121 135.092L105.611 134.532C105.717 134.619 105.8 134.721 105.856 134.846C105.975 135.113 106.086 136.689 106.108 137.122C106.7 149.035 105.777 161.563 105.95 173.512C106.358 175.417 105.933 177.385 105.956 179.276C105.965 180.013 106.506 181.019 105.121 180.604V180.606Z" fill="#FEFEFE"/>
<path d="M116.474 190.577C116.356 190.703 115.439 190.141 115.258 190.041C110.052 187.159 105.021 183.944 99.7954 181.091C99.2471 180.639 99.6069 179.704 99.5107 179.059C99.628 178.934 100.546 179.496 100.727 179.596C105.933 182.478 110.964 185.693 116.189 188.544C116.735 188.998 116.377 189.931 116.474 190.576V190.577Z" fill="#BFBFBF"/>
<path d="M118.157 186.931C118.38 187.173 117.21 187.724 116.991 187.743L112.362 185.082L112.131 184.684C112.631 184.54 112.956 184.062 113.537 184.322L118.158 186.931H118.157Z" fill="#BFBFBF"/>
<path d="M103.998 180.185C102.909 179.512 101.601 178.956 100.562 178.221C100.346 178.069 100.017 177.978 100.075 177.659L101.091 177.255C101.603 177.799 103.484 178.425 103.861 178.848C104.138 179.158 103.954 179.777 103.998 180.185Z" fill="#BFBFBF"/>
<path d="M118.579 188.333V190.44L117.597 190.721C117.672 189.716 117.166 188.437 118.579 188.333Z" fill="#ABABAB"/>
<path d="M152.084 98.5713C152.459 99.4717 153.54 100.13 154.423 100.655C157.217 102.142 159.985 103.67 162.729 105.238C163.167 105.519 163.841 105.99 163.687 106.577C163.533 107.163 158.839 110.001 158.027 110.484C154.446 112.402 150.97 114.47 147.597 116.691C147.538 116.752 147.507 116.914 147.372 116.95C138.667 121.547 130.453 127.151 121.756 131.745C119.537 132.917 118.393 133.463 115.961 132.307L97.549 121.608C97.0969 121.089 97.2181 120.415 97.7606 119.992C112.752 111.336 128.174 102.429 142.83 93.9348C143.124 93.9213 143.409 93.929 143.703 93.9713C145.421 94.2214 150.26 97.5344 152.082 98.5713H152.084Z" fill="#D2D2D2"/>
<path d="M163.72 108.967C164.129 109.042 164.045 109.673 163.86 109.95C163.006 110.598 162.069 111.11 161.151 111.66C147.582 119.779 133.678 127.386 120.02 135.345C118.645 135.842 117.417 135.703 116.101 135.12L97.7837 124.537C97.1585 124.077 96.7083 123.569 96.8506 122.734L115.722 133.533C117.829 134.482 119.949 134.174 121.898 133.012C135.608 124.637 149.979 117.188 163.721 108.967H163.72Z" fill="#ABABAB"/>
<path d="M142.831 93.9355C142.883 94.2664 142.446 94.3857 142.223 94.5185C127.557 103.249 112.67 111.635 97.9194 120.222C97.4558 120.537 97.5443 121.118 97.55 121.607C96.6593 121.093 96.6939 120.106 97.5 119.521C111.491 111.714 125.143 103.291 139.141 95.5035C140.439 94.7801 141.184 94.0048 142.831 93.9336V93.9355Z" fill="#D7D7D7"/>
<path d="M147.6 116.691C149.743 114.518 156.096 111.521 159.083 109.586C159.618 109.239 163.356 106.744 163.433 106.488C163.531 106.163 163.024 105.784 162.787 105.617C159.836 103.539 155.607 102.102 152.74 99.8103C152.382 99.5255 151.696 99.0888 152.086 98.5693C156.047 100.822 160.105 102.985 163.997 105.388C164.801 106.073 164.416 107.044 163.628 107.533L147.602 116.689L147.6 116.691Z" fill="#D7D7D7"/>
<path d="M163.72 108.967C163.761 108.942 163.992 108.284 164.421 108.406C164.409 108.892 164.54 109.51 164.136 109.873C164.055 109.947 163.901 109.92 163.861 109.948C163.595 109.75 163.753 109.273 163.72 108.965V108.967Z" fill="#D7D7D7"/>
</svg>
