<svg width="200" height="200" viewBox="0 0 200 200" fill="none" xmlns="http://www.w3.org/2000/svg">
<path d="M195.922 119.913C195.523 117.429 190.036 112.869 189.786 110.784C189.934 103.559 190.817 96.026 190.356 88.8059C190.26 87.2687 189.898 85.645 189.44 84.1791C190.44 83.3164 192.848 81.6927 192.782 80.2548C191.043 76.1243 189.221 71.9988 187.094 68.0541C184.638 63.4986 182.663 60.1112 178.494 56.9224C177.53 56.1843 177.466 55.996 176.692 55.2809C176.242 54.8635 175.608 54.782 175.173 54.4741C174.608 54.072 174.076 53.2627 173.493 52.802C171.455 51.1885 168.169 50.4607 171.096 47.5696C176.303 50.6006 184.714 45.5794 181.075 39.4536C181.869 37.8935 183.088 36.5218 183.928 34.9312C186.287 30.4596 187.766 23.9318 183.928 19.8445C183.536 19.4271 181.999 18.427 181.874 18.175C181.64 17.7016 181.846 16.8287 181.759 16.2408C180.851 10.1431 174.269 7.93401 168.854 7.73805C162.082 7.49373 155.531 10.1838 148.789 9.00035C148.275 8.90873 145.058 7.97728 144.923 8.1198C144.786 9.44828 145.208 10.7717 145.888 11.9016C146.061 12.1892 147.687 13.9402 147.529 14.075C146.44 14.1005 145.412 13.6042 144.452 13.141C143.702 13.1232 143.982 14.9836 144.137 15.513C144.465 16.6277 145.473 17.6278 146.412 18.2692C145.254 19.7656 144.223 21.3053 144.167 23.2853C144.152 23.8121 144.356 26.3444 145.183 26.1688C146.109 25.1152 147.066 23.8071 148.458 23.3846C148.43 23.7333 148.252 24.0463 148.255 24.4051C148.283 29.7114 147.171 34.4476 146.598 39.6725C146.399 41.4896 146.387 43.2405 146.608 45.0551C146.547 45.2562 144.967 45.3885 144.641 45.3554C142.732 45.1595 142.427 43.7394 141.381 42.4694C140.839 41.8128 140.095 41.2504 139.528 40.6014C140.121 39.9168 140.668 39.8175 141.022 38.9344C144.292 30.709 143.45 15.8896 136.077 9.98271C132.86 7.40464 129.358 7.91619 125.564 7H124.632C109.843 7.51663 108.171 22.5906 108.052 34.3127C108.039 35.4707 108.047 39.8125 108.975 40.5607C109.968 41.3623 110.989 40.4309 111.513 39.5809L112.029 40.0262C109.762 42.589 107.774 45.5259 107.675 49.0024C106.988 49.8702 106.787 50.9162 107.072 52.1403C107.021 52.3287 106.087 53.8378 105.998 53.8887C105.412 54.2196 99.6964 53.7971 99.671 52.036C103.705 49.29 104.87 45.1111 104.262 40.3571C108.963 39.418 106.983 35.5878 104.428 33.422C105.336 32.5923 105.901 31.1952 104.137 31.5005C104.153 31.0348 104.267 30.5818 104.43 30.1466C106.359 26.4538 109.66 17.2563 106.321 13.9351C104.534 12.1587 98.7904 10.3797 96.3014 9.66206C90.1807 7.90093 83.7038 6.35357 77.4889 8.63133C64.1659 13.5126 63.5526 29.1871 63.5984 41.1613C63.1403 44.9584 62.018 48.6206 60.2365 52.1505C58.7808 55.7491 57.9104 59.8364 59.2185 63.5902C59.4679 63.7276 61.0178 68.4766 60.6462 68.2679C56.7498 65.1783 53.1996 62.7224 47.822 62.4984C42.6506 62.2846 37.6803 64.3613 34.8121 68.6624C23.0746 75.3124 27.1772 93.4505 38.4133 98.3012C35.7996 98.5939 32.8728 98.7517 30.2871 98.2605C29.236 97.6548 27.8897 96.9091 26.8209 97.6904C23.716 95.914 20.6773 94.0206 17.7124 92.005C17.7276 91.1931 17.7047 90.0555 17.5571 89.1418C17.2466 87.228 16.7758 85.1437 14.3377 85.3422C13.3121 85.4262 12.7013 86.1489 12.3984 87.0779C10.818 85.5483 7.44336 83.151 6.39992 86.4492C4.6846 86.7317 4.31049 88.05 4.32067 89.6203L4 90.5823V91.5138C5.03835 92.5139 4.01018 92.9873 4.19342 94.0155C4.56499 96.1024 7.04379 95.6952 8.29084 96.0642C9.74402 96.4943 11.7087 98.3521 13.5259 98.4616L22.5758 105.325C22.5758 106.389 22.8838 107.84 23.8534 108.423C24.4489 108.781 25.0954 108.692 25.5865 108.924C27.5996 109.881 29.3251 110.163 31.5087 110.82C34.8732 111.835 38.1384 113.215 41.5105 114.223L43.6508 129.767C43.4778 131.417 43.8544 138.097 44.679 139.163C44.8902 139.436 45.3127 139.548 45.4196 139.726C45.6486 140.1 45.4527 140.95 45.5367 141.472C45.7504 142.803 46.1144 144.012 46.2569 145.406C46.4579 147.358 46.2772 149.807 46.6717 151.692C46.8702 152.642 47.8882 153.527 48.8706 153.591L49.0258 153.807C49.573 158.253 50.0006 162.715 50.5655 167.158C51.0058 170.617 52.0467 174.814 52.2121 178.17C52.3496 181.006 50.3899 185.566 49.517 188.315C48.1529 192.621 52.9756 191.71 55.4646 192.046C55.7522 192.084 55.9838 192.371 56.3986 192.422C57.4675 192.552 58.0351 192.063 58.5822 191.236C59.2261 190.262 62.4277 184.37 62.6008 183.525C63.0538 181.301 62.0383 180.476 61.6108 178.644C61.0509 176.246 61.4504 173.381 61.3486 170.902C61.1399 165.911 60.2823 159.956 60.5877 155.077C60.6233 154.502 60.8244 153.935 60.8116 153.347C61.5649 153.062 62.8603 152.489 63.1174 151.652C63.3261 150.972 63.125 150.196 63.2014 149.504C63.3744 147.921 63.6035 146.323 63.8529 144.752C64.3415 144.762 66.5328 147.475 67.1054 148.015C68.9352 149.735 69.9252 150.835 72.203 148.862L75.2748 151.759L80.0924 169.095C80.4487 171.704 78.8708 173.658 81.2555 175.75C82.0546 176.45 88.0531 180.451 88.893 180.771C89.3612 180.95 89.743 181.11 90.2673 181.049C91.018 180.96 91.3896 180.278 92.0538 180.122C91.6874 181.433 91.8579 181.784 92.7003 182.741C96.7799 187.373 109.07 195.685 114.854 190.356C117.023 188.361 116.827 183.983 114.954 181.8C118.567 181.367 122.248 179.361 121.82 175.208C121.611 173.185 118.262 168.866 116.358 168.199C115.503 167.899 114.707 168.199 113.953 167.812C113.518 167.588 111.447 165.809 111.808 165.16C112.001 164.606 114.898 164.827 115.821 163.865C116.33 163.336 117.254 160.607 117.565 159.742C118.407 157.388 119.092 154.919 119.845 152.527C122.013 145.64 124.062 138.685 125.94 131.722C130.02 136.682 133.382 142.202 137.09 147.442C136.963 150.394 136.062 153.517 136.93 156.383C136.868 157.976 135.822 160.745 135.835 162.162C135.84 162.85 136.578 163.394 136.538 163.623C135.698 164.257 133.944 167.311 133.102 167.461C131.845 167.688 132.066 167.286 130.878 168.214C128.312 170.222 125.454 174.101 125.197 177.427C124.894 181.344 129.317 183.853 132.756 184.197C138.087 184.731 141.536 182.904 145.303 179.476C147.967 177.051 154.696 170.823 149.224 168.001L149.486 165.972C152.164 163.801 155.294 162.16 157.862 159.829C159.702 158.157 161.148 156.675 159.343 154.26C158.338 152.911 157.59 153.609 157.058 153.288C156.976 153.24 156.455 151.893 156.251 151.583C156.022 151.229 155.057 150.206 155.007 150.02C154.907 149.651 155.21 149.058 155.126 148.435C154.958 147.157 153.739 145.419 153.35 144.139L154.505 139.158C155.826 137.736 156.91 136.682 157.012 134.595C162.046 128.497 166.953 122.209 171.404 115.663C172.786 113.63 174.234 111.469 174.845 109.051C175.163 107.797 175.089 106.402 175.354 105.277C175.522 104.562 176.211 104.195 176.484 103.427C177.349 100.984 177.402 98.2631 177.316 95.6952L177.883 87.2331C179.128 87.5258 179.797 87.1237 180.105 88.6405C180.792 92.038 180.746 97.6446 180.869 101.279C180.958 103.9 181.352 107.97 181.052 110.413C180.762 112.777 176.825 115.655 176.758 117.674C176.685 119.906 178.952 120.186 180.589 119.254C181.189 118.913 182.228 117.6 182.915 118.032C183.113 118.157 184.862 121.629 185.119 122.16C185.587 123.13 185.595 124.303 186.643 124.917C187.661 125.512 187.982 125.016 188.796 125.036C189.466 125.054 190.041 125.321 190.814 125.194C191.382 125.1 191.624 124.665 192.023 124.543C192.802 124.306 193.38 124.614 194.082 123.81C194.388 123.461 194.469 122.975 194.744 122.608C195.556 121.519 196.222 121.723 195.93 119.908L195.922 119.913ZM65.6217 82.9524C67.0647 83.4844 68.6425 82.8379 69.9965 82.9473C70.9127 83.0212 72.0554 83.6829 73.0683 83.6956V91.7937C73.0683 91.8497 73.3253 92.0558 73.2541 92.2569C71.9943 92.0508 70.788 91.9515 69.5333 92.2569C70.2891 88.3809 68.3397 85.4414 65.6217 82.9524ZM95.1205 167.66C95.4565 168.072 95.9477 167.95 95.9858 168.673C96.0036 169.036 95.0467 172.286 94.8457 172.767C94.7744 172.94 94.7693 173.121 94.5683 173.236C92.7537 171.602 90.6592 170.123 89.3613 168.021C88.7963 164.799 88.0175 161.6 87.4627 158.378C86.5236 152.927 86.6916 147.626 83.6121 142.869C83.2329 142.281 81.8332 140.744 81.7059 140.293C81.5787 139.84 82.0953 139.387 82.1793 138.881C82.5381 136.697 80.7516 136.382 79.4206 135.333C78.1964 134.371 74.3051 131.162 73.6205 129.966C73.3304 129.459 73.2159 128.383 72.9181 127.688C72.5567 126.851 71.2028 124.848 71.0679 124.326C70.8134 123.341 71.2868 122.825 70.4698 121.761C70.2942 121.532 69.8565 121.478 69.7522 121.176C69.6758 120.954 69.5511 118.562 69.5282 118.05C69.3806 114.788 69.7318 111.525 69.7216 108.267C71.4166 108.468 72.5186 106.906 74.0048 106.407C72.5847 111.723 71.073 117.798 73.7223 122.977C75.8881 127.212 82.2786 131.76 86.2335 134.481C90.6236 137.502 95.3776 139.876 100.037 142.444C99.7066 143.452 99.8568 144.141 100.406 145.002C97.9938 151.664 96.1055 158.49 94.3163 165.346C94.1102 166.301 94.5632 166.97 95.1282 167.66H95.1205ZM117.392 116.017C117.315 116.21 117.491 116.335 117.096 116.271C113.287 112.51 109.548 108.677 105.743 104.913C105.418 104.59 104.72 104.257 104.519 103.905C104.193 103.338 104.402 102.607 104.26 101.93C104.145 101.381 103.552 100.772 103.588 100.368C103.639 99.7977 104.855 99.309 105.043 98.2682C105.4 96.2907 105.145 94.0816 105.461 92.0762C106.079 92.0278 106.021 92.7914 106.306 93.1858C107.41 94.7154 108.848 94.5779 109.917 95.3465C110.146 95.5119 110.24 95.8937 110.477 96.0896C111.187 96.6699 113.238 97.2807 114.208 97.5708C115.419 97.9322 116.682 98.1613 117.913 98.4259C117.913 99.3778 117.982 100.35 117.939 101.302C117.908 101.953 117.799 103.434 117.656 103.999C117.173 105.934 112.46 109.252 114.381 111.171C114.615 111.405 114.979 111.413 115.218 111.637C115.954 112.324 116.618 112.953 117.371 113.579C117.575 113.747 117.86 113.8 118.104 113.874C118.193 113.996 117.514 115.706 117.389 116.024L117.392 116.017ZM125.754 106.035L125.38 98.7771L128.915 98.403L129.292 103.114L125.754 106.038V106.035ZM145.483 63.2187C145.593 63.4782 145.297 63.7735 145.297 63.8702V72.5257L140.269 63.6869C141.943 63.1194 143.737 63.2136 145.483 63.2212V63.2187ZM140.648 124.835C140.393 123.764 138.77 122.125 138.627 121.16C138.556 120.669 139.251 119.875 138.795 119.081L145.768 115.719L140.65 124.835H140.648Z" fill="black"/>
<path d="M151.256 159.834C151.417 159.241 151.076 158.391 151.124 157.902C151.167 157.467 152.114 156.182 152.317 155.403C152.615 154.27 152.414 153.637 152.401 152.509L154.137 151.084C154.893 151.934 155.763 153.209 155.893 154.357C156.16 156.693 153.05 158.783 151.256 159.831V159.834Z" fill="#E4CFC6"/>
<path d="M147.138 46.4847L147.263 47.3932C146.453 48.4036 145.802 47.6146 145.112 46.9275C145.031 46.4847 145.311 46.7035 145.57 46.6475C145.886 46.5763 146.965 46.332 147.14 46.4872L147.138 46.4847Z" fill="#D52B1E"/>
<path d="M69.9016 103.521C69.8558 103.223 69.2094 101.732 69.0159 101.434C68.8989 101.253 69.0363 101.098 68.5986 101.195C68.54 102.709 68.6724 104.246 68.6062 105.763C68.4891 108.455 68.283 111.023 68.2346 113.767C68.1939 116.047 67.9598 119.154 68.2244 121.394C68.3848 122.743 69.5199 122.458 69.6929 123.104C69.7922 123.476 69.4893 123.896 69.6013 124.468C69.7769 125.367 72.3753 128.688 71.8689 129.49C67.7918 131.195 63.5722 133.638 59.1719 134.302C54.7131 134.974 49.4043 134.59 45.9788 138.051L43.0953 114.596C43.2404 114.451 46.1467 115.138 46.7194 115.161C47.0986 115.177 47.7119 115.337 47.5617 114.785C44.8335 113.283 41.9348 112.805 39.0437 111.853C35.4298 110.662 31.8897 109.364 28.2122 108.351C27.7389 108.221 27.1993 108.328 26.7565 108.145C26.4842 108.033 26.4359 107.613 26.1177 107.473C25.4739 107.185 24.4737 107.623 24.293 106.687C26.9499 105.656 27.7516 101.706 27.833 99.1458C28.9961 98.7997 29.2277 100.23 30.1566 100.281C30.5638 100.304 31.0066 100.08 31.4546 100.07C34.4245 100.006 36.9034 100.047 39.8632 99.7642C41.1458 99.6421 41.1535 101.004 42.001 101.823C44.0828 103.844 47.5185 103.793 49.4247 101.564C49.0913 104.032 50.323 105.992 52.27 107.376C57.7188 111.255 66.9062 107.56 63.5926 100.197C64.9414 99.2145 66.3284 98.2143 67.3948 96.9113C68.1074 96.0435 68.9727 93.8217 69.8532 93.6003C70.3495 93.4756 71.0443 93.5265 71.5787 93.3738C70.5429 94.4707 70.1841 95.9849 70.0925 97.4661C71.7747 95.9417 72.3397 93.5825 74.8516 93.0099C75.1392 92.9437 75.1544 92.9971 75.1137 93.2745L73.999 95.9773C74.3782 96.0435 74.4927 95.9366 74.7472 95.7024C75.3046 95.1909 77.0199 92.3507 77.2591 92.2565L78.5927 93.5265L79.5853 93.9286C78.9007 92.6027 77.6002 90.3911 79.2111 89.2764C79.3613 92.4016 83.1075 94.2925 85.9146 93.3713C86.0902 94.4656 84.8585 94.5801 84.4207 95.1349C84.1459 95.481 84.0772 96.0842 83.7616 96.5245C81.2319 100.059 77.1395 102.551 73.5002 104.88C72.411 105.577 71.1436 106.496 69.9041 106.776C69.7947 105.768 70.0543 104.485 69.9041 103.518L69.9016 103.521Z" fill="#FCFCFC"/>
<path d="M70.8327 131.725C71.9881 131.849 72.9908 132.501 73.8409 133.682L76.3197 136.654C76.9483 137.158 77.4751 137.688 77.9052 138.24C77.3835 138.543 76.0092 139.729 75.4824 140.192C72.9527 142.414 71.0083 145.053 69.2523 147.908L64.7018 143.521C64.6458 143.2 66.4451 141.721 66.552 141.128C66.6029 140.843 66.5469 140.805 66.2695 140.846C65.8573 140.904 63.4166 142.38 63.1036 142.709C62.4113 143.432 62.0092 147.542 61.8973 148.761C61.8438 149.344 61.9303 149.944 61.8947 150.527C58.543 149.791 54.3081 149.308 50.9411 150.092C50.0249 150.306 49.2131 150.815 48.3045 150.899L48.1467 150.799C48.2333 147.442 47.9762 144.124 47.373 140.846C48.5132 139.222 51.3865 137.023 53.28 136.42C55.0055 135.87 57.3519 136.041 59.1716 135.797C63.2054 135.252 67.0687 133.236 70.8302 131.725H70.8327Z" fill="#612927"/>
<path d="M95.0314 176.027L93.5451 175.098C93.3924 175.887 94.0262 176.187 94.4741 176.681C94.6115 177.017 94.2018 177.035 94.016 176.951C93.6979 176.808 93.3008 175.574 92.4279 175.841C92.3567 176.701 93.5172 176.959 93.3568 177.887L92.7969 177.763C92.7282 176.936 91.9927 176.182 91.1249 176.213C91.1809 177.129 92.2523 177.613 92.0538 178.631L91.331 178.608C91.2241 177.534 90.3639 176.808 89.262 176.956C88.9871 177.188 90.2621 178.091 90.3486 178.391C90.4352 178.692 90.3817 179.626 89.9211 179.562L82.3854 174.8C80.6854 173.462 81.5405 172.426 81.6245 170.716C81.7848 167.456 78.2778 156.191 77.0639 152.567C76.3131 150.325 75.3027 150.101 73.987 148.368C73.7503 146.597 76.5116 141.937 77.7204 140.565C78.0055 140.242 78.9497 139.15 79.39 139.43C80.9322 141.764 83.2253 144.156 84.0931 146.841C85.19 150.241 85.3452 154.754 85.9662 158.373C86.3912 160.844 87.2005 166.748 88.048 168.764C88.6359 170.163 92.3312 173.368 93.6368 174.531C94.1483 174.986 95.1383 175.172 95.0289 176.022L95.0314 176.027Z" fill="#E6D1C8"/>
<path d="M59.4755 151.456C59.6435 152.486 59.3101 153.56 59.2795 154.52C59.1268 159.635 59.6486 164.69 59.8522 169.785C59.9336 171.793 59.5493 178.555 60.3332 179.924C60.4019 180.046 60.6767 180.084 60.7683 180.275C61.0737 180.919 61.4071 181.932 61.3435 182.639C61.2239 183.973 58.6484 187.823 57.8823 189.238C57.6431 189.681 57.3606 191.152 56.592 190.921C55.9914 190.74 56.3528 188.294 56.6786 187.757C55.0829 187.64 55.4137 189.663 54.724 190.547C54.2837 189.684 54.7317 188.824 54.8182 187.943C53.7264 187.607 54.0751 188.93 53.3294 188.872L53.5152 188.131C52.3317 188.042 52.6015 189.529 52.5837 190.363C51.9093 190.404 51.9653 189.625 52.034 189.165C52.1027 188.704 52.6779 188.315 52.1154 187.946L50.7233 189.246C50.9854 188.584 51.3239 188.096 51.5606 187.386C52.1001 185.765 53.7264 179.993 53.7162 178.542C53.6907 175.322 52.4972 170.546 52.0518 167.161C51.5148 163.079 51.0592 158.986 50.5273 154.907C50.6648 154.118 54.4492 152.357 55.3297 152.061C56.6989 151.603 58.0172 151.333 59.4755 151.458V151.456Z" fill="#E6D1C8"/>
<path d="M8.55965 93.5629L8.84469 93.0946C8.84469 92.4838 6.09103 91.8501 5.49805 91.5014L5.5973 90.9542C6.47278 90.4071 9.14246 92.3896 9.58274 91.42C9.70235 91.1578 8.01757 90.1526 7.78089 89.8752L6.04776 88.9055C6.38878 86.7907 10.1477 90.7252 10.7 90.2111L8.09648 86.951C7.91324 86.5056 8.74289 86.6736 8.89304 86.7143C9.45803 86.8695 12.4688 89.3407 12.5426 89.7734C11.8401 90.6488 11.0614 93.0564 12.7462 93.1887C12.7589 92.6899 12.68 92.1809 12.8301 91.6897C13.0312 91.0382 14.0288 90.6412 14.1968 89.893C14.3368 89.2695 13.927 87.0044 14.6727 87.0706C15.3446 87.1291 15.5864 88.1191 15.678 88.6765C15.9961 90.6005 15.9732 92.4481 15.3548 94.306C16.1488 94.1151 16.3499 93.1277 17.35 93.7079L26.5043 99.8311C26.7105 100.48 25.1733 104.794 24.5447 104.903L14.7821 97.7646C14.3037 97.2098 14.9298 96.7339 14.9807 96.1715C14.6905 96.1002 14.8763 96.4336 14.6625 96.5354C12.1532 97.7341 10.4837 95.0873 8.47313 94.5808C7.55185 94.3493 5.8238 94.9015 5.86198 93.5629H8.5622H8.55965Z" fill="#E4CFC6"/>
<path d="M86.8417 78.2978C87.2692 78.3741 87.1369 78.2698 87.2565 78.0585C87.7477 77.178 87.992 75.7502 88.7504 74.9944C88.9031 74.8417 89.2263 74.7399 89.4478 74.7602C89.804 75.142 87.6688 78.397 87.9615 79.2267C88.216 79.2369 88.3229 79.2878 88.529 79.1045C88.8802 78.789 89.5292 77.3561 90.0942 76.8013C90.313 76.5875 91.6822 75.3609 91.6924 76.1625C91.7052 77.2925 89.5725 78.7457 89.6386 80.1607C90.5141 80.6137 92.6646 77.776 93.1736 78.3003C93.2271 79.6466 91.751 80.3897 90.9722 81.4026C90.2367 82.3621 89.0838 85.1234 88.1905 85.5102C87.7986 85.6808 86.5439 85.6858 86.4727 86.0345C86.6228 86.8693 87.2133 86.4341 86.9384 87.4215C86.773 88.0145 84.7701 92.1527 84.485 92.2417C82.6832 92.1196 80.1306 90.7275 80.8432 88.5871C80.9424 88.2894 82.869 84.9554 83.0344 84.8129C83.4899 84.4134 84.0422 85.1209 84.6097 85.0012C84.3629 84.0113 83.4212 83.5582 82.958 82.6522C82.7544 82.2527 81.5914 78.794 81.6321 78.5828C81.8841 77.3001 83.0598 80.0156 83.2049 80.1683C83.7801 80.7766 84.7955 80.9445 85.447 81.4637L86.7475 83.1358C87.1878 82.9271 87.0733 81.6724 86.946 81.2652C86.7119 80.5144 85.6608 80.1352 85.4496 79.7866C85.1671 79.3234 85.8364 74.5108 86.3811 74.3887C87.2616 74.6075 86.6508 75.8342 86.6432 76.5265C86.6355 77.1551 86.8112 77.6895 86.8442 78.2978H86.8417Z" fill="#E4CFC6"/>
<path d="M70.832 131.724C71.313 131.531 72.3997 130.749 72.8451 131.014C72.9062 131.05 73.0055 131.393 73.148 131.541C74.7895 133.233 76.6193 135.01 78.4797 136.458C78.7291 136.651 80.2765 137.402 79.9533 137.682C79.3654 137.634 78.4135 137.947 77.9071 138.242C77.505 138.221 77.2657 138.015 76.9705 137.781C75.2756 136.42 73.9216 133.931 72.1427 132.556C71.6897 132.208 71.1069 132.246 70.832 131.727V131.724Z" fill="#7F4745"/>
<path d="M48.3054 150.898C48.2647 150.9 48.2876 151.246 48.0203 150.905C47.7786 148.793 47.7913 146.599 47.5597 144.477C47.4375 143.354 47.0227 142.263 47.0354 141.156C47.1042 140.921 47.3358 140.901 47.3739 140.845C48.0763 140.82 48.0611 142.433 48.1171 142.988C48.2825 144.632 48.453 146.943 48.453 148.572C48.453 149.254 48.1527 150.137 48.3054 150.898Z" fill="#7F4745"/>
<path d="M62.8267 81.2746C62.3406 81.1041 61.8494 80.9921 61.3379 81.0888V80.9031C61.455 80.5799 62.0327 80.2566 62.3406 80.3533L62.8267 81.2746Z" fill="#E1ADAD"/>
<path d="M61.3376 80.9037C61.5005 80.9571 61.498 81.0182 61.3376 81.0894C61.3656 81.2345 61.358 81.3999 61.2409 81.5017C59.7521 82.7717 59.4442 84.9374 61.4114 82.2627C61.7728 82.0082 62.7577 81.7868 63.2006 81.8351C63.4729 82.3696 64.3509 83.5759 64.3178 84.0696C63.8784 84.2681 63.8784 84.2681 64.3178 84.0696C66.0331 84.8204 67.4889 86.9302 67.952 88.7193C69.4383 94.4633 64.1346 99.281 58.925 100.365C57.4845 100.665 55.9957 100.579 54.596 100.877C53.4533 101.121 52.9468 101.513 54.3669 101.93C55.1813 102.17 55.8125 102.035 56.548 102.17C57.2835 102.304 58.0673 102.849 58.8028 103.037L59.2915 105.104C60.9686 104.615 59.5078 100.93 61.5998 101.197C63.2871 101.414 62.941 104.06 62.236 105.167C60.1008 108.524 54.1252 107.972 51.8474 105.005C50.5698 103.343 51.9874 102.452 51.6514 100.732C51.5318 100.118 50.7149 99.8536 50.5749 99.3853C50.4095 98.8305 50.7225 98.375 50.7251 97.8456C49.0988 98.3648 48.5313 101.126 46.7854 101.63C42.9094 102.747 40.1736 97.8329 43.4057 95.83C45.2814 94.6669 46.0169 97.021 47.8594 97.0948C50.6462 97.2068 47.8034 92.071 47.6405 90.9563L50.8243 89.101C51.4656 88.9025 50.6818 90.3659 50.9134 90.5873C51.1628 90.5593 51.4911 90.6535 51.7125 90.5899C51.8652 90.5466 53.3973 88.6633 53.9088 88.2765C54.4764 87.8464 56.3266 87.1668 56.4131 87.0574C57.0137 86.271 54.7894 86.271 54.4535 86.215C55.1813 85.6297 57.9325 83.2679 57.991 82.4815C58.0114 82.1914 57.7925 81.942 57.8052 81.6544C58.3371 81.5068 58.9759 83.0567 59.3933 82.4026C59.6707 81.9649 59.4569 80.0104 59.2966 79.4199C59.7089 79.6388 59.8412 80.5957 60.228 80.8146C60.5614 81.0029 60.9839 80.8935 61.3427 80.9087L61.3376 80.9037Z" fill="#E4CFC6"/>
<path d="M62.825 81.2744C62.9013 81.3024 63.0591 81.226 63.1609 81.3126C63.2856 81.4576 63.1558 81.7528 63.1991 81.8317C62.8683 82.4171 62.1404 82.2568 61.611 82.5723C61.1835 82.8268 60.8119 83.6539 60.5905 83.7863C59.0788 84.6898 59.6998 81.3966 61.3362 81.0886C61.8197 80.4473 62.3822 80.6992 62.825 81.2744Z" fill="black"/>
<path d="M56.3108 88.1641L56.125 88.9072L57.3364 89.2788C57.4891 89.5358 57.5044 90.1619 57.3415 90.4062C57.2677 90.5156 55.4379 91.2231 54.9492 91.5514C54.2061 92.0477 53.7404 92.9257 52.959 92.8214C52.5289 90.7727 54.5471 88.7621 56.3082 88.1666L56.3108 88.1641Z" fill="black"/>
<path d="M64.317 84.0659C64.2763 84.6665 63.2456 84.9541 62.7391 85.374C62.2327 85.7939 61.5099 87.1707 60.9551 86.7788C59.9422 85.6285 61.9756 82.5465 63.2685 82.801C64.0701 82.9588 63.5255 83.8317 63.5713 83.8801C63.5968 83.9081 64.0727 83.959 64.3195 84.0684L64.317 84.0659Z" fill="black"/>
<path d="M46.8192 98.5857L45.3304 98.4025C46.356 101.309 44.5745 100.864 44.3963 98.4025C43.7219 98.1658 43.6838 99.026 43.3555 99.1304C42.312 99.4638 42.821 97.9571 43.5591 97.471C44.6 96.7839 46.9413 97.0206 46.8192 98.5883V98.5857Z" fill="black"/>
<path d="M61.1281 88.3748L60.0363 88.2654C59.4357 87.6062 60.2374 87.3746 60.8711 87.4026C61.9578 87.4561 62.3471 88.2934 61.9959 89.2834C61.1968 89.8611 61.1128 88.9831 61.1306 88.3748H61.1281Z" fill="black"/>
<path d="M63.9426 96.54C64.2862 97.2501 62.3953 98.0314 62.268 97.3748C62.1739 96.8861 63.6271 96.6266 63.9426 96.54Z" fill="black"/>
<path d="M63.5158 89.6879C65.7351 89.016 66.015 91.6119 65.5289 93.1898C64.5847 96.2565 61.4162 97.6893 58.5022 96.2998C56.6266 95.4065 55.7562 92.9251 58.1307 92.1209C59.4922 91.6603 60.8029 91.4999 62.1517 90.7441C62.6226 90.4794 63.2766 89.7592 63.5158 89.6879Z" fill="black"/>
<path d="M64.3147 90.7693C64.045 91.9222 62.9023 92.4108 62.0828 93.098C61.9886 93.5382 62.4569 93.4059 62.6936 93.3372C63.3884 93.1361 63.8948 92.337 64.6838 92.3497C64.0093 95.3477 60.6601 96.6762 58.1737 94.77C58.6343 94.7013 60.2097 94.5384 60.2224 93.8411L57.9879 93.5586C57.9497 93.3372 57.9879 93.2227 58.1788 93.1005C58.4842 92.902 60.7925 92.533 61.5738 92.2148C62.1311 91.9883 62.6554 91.7033 63.1593 91.3775C63.6047 91.09 63.5258 90.553 64.3147 90.7718V90.7693Z" fill="#F7F7F7"/>
<path d="M51.6555 78.8547C50.8563 78.9488 50.5968 78.0225 49.9834 77.74L49.622 79.1499L48.3088 79.043L48.0009 80.173L46.9091 79.7938L46.7207 79.9719C46.8531 81.219 45.97 81.0586 45.7409 81.3182C45.4839 81.6083 45.7562 83.8428 44.6619 82.9699C44.3921 82.7561 43.5268 79.9821 43.4759 79.5011C43.4275 79.0481 43.7253 79.2593 44.0231 79.2339L44.9571 81.8374V79.6029L46.0743 79.9745C46.1023 78.9565 46.7284 78.9234 47.5631 79.2313L48.1307 78.1981L49.2377 78.2973C49.2785 77.8901 49.0494 76.9943 49.5431 76.8289C50.3423 76.2537 51.8642 78.6587 51.658 78.8547H51.6555Z" fill="#F7F7F7"/>
<path d="M32.6672 81.4612V82.95C33.2831 82.4995 32.8962 81.5579 33.9702 81.8327L34.3443 83.8814L33.7692 83.7746L33.4154 83.1409L32.825 84.5966C31.7179 85.2812 31.8833 82.8762 31.9444 82.3214C32.0106 81.7386 32.036 81.2957 32.6646 81.4637L32.6672 81.4612Z" fill="#F7F7F7"/>
<path d="M57.5992 70.8691L57.6144 71.4086H56.6804V72.3401C56.0824 72.3681 55.581 72.2917 55.3825 71.6835C55.2553 71.0752 56.0773 71.6427 56.1205 71.5969C56.1307 70.6171 56.7975 70.4924 57.5966 70.8665L57.5992 70.8691Z" fill="#F7F7F7"/>
<path d="M53.8895 76.8057C53.6553 77.0474 52.6246 75.9429 52.4465 75.7444C52.2683 75.5459 52.108 75.6299 52.2174 75.1311C52.5508 74.7926 54.2279 76.457 53.892 76.8057H53.8895Z" fill="#F7F7F7"/>
<path d="M114.954 185.897C114.89 188.406 113.668 190.152 111.09 190.503C106.357 191.147 100.519 187.49 96.9938 184.589C96.2685 183.991 93.9245 182.006 93.5326 181.341C93.1407 180.677 93.7286 180.222 94.1969 179.756C94.8967 180.72 95.6195 181.665 96.5204 182.454C97.7496 183.53 99.6686 184.115 99.9689 185.897C100.717 185.882 103.349 181.067 104.901 180.682C105.738 179.893 107.087 179.952 108.161 180.12L114.539 185.095L114.954 185.894V185.897Z" fill="#DB9790"/>
<path d="M104.528 171.004C104.391 171.818 103.869 172.581 104.042 173.429C104.218 174.284 106.91 177.32 106.762 177.514C104.103 178.549 102.146 180.835 100.537 183.113L100.006 183.265C98.9265 182.55 94.6891 179.514 95.305 178.079C95.4959 177.638 96.3586 176.969 96.5113 176.109C96.7225 174.936 96.0379 174.64 96.0125 174.113C95.9794 173.437 96.4553 172.396 96.5113 171.68L104.525 171.001L104.528 171.004Z" fill="#E5D0C8"/>
<path d="M120.164 176.961C119.609 179.122 115.474 181.087 113.412 180.084C112.336 179.562 110.585 176.796 109.272 176.76C108.511 176.74 108.172 177.346 107.77 176.035C107.411 174.862 109.468 172.861 110.3 172.121C112.303 170.757 114.542 170.828 116.479 172.299C116.996 172.691 119.874 175.913 120.078 176.363L120.167 176.959L120.164 176.961Z" fill="#DB9790"/>
<path d="M105.831 107.15C105.595 107.409 105.483 107.75 105.648 108.096C105.849 108.521 106.127 108.873 106.427 109.232C107.137 110.074 107.913 110.86 108.692 111.649C113.084 115.772 117.256 119.849 120.999 124.672C123.109 127.387 123.137 130.021 122.788 133.343C122.369 137.333 121.539 141.311 120.35 145.126C119.561 149.033 117.963 153.731 116.675 157.556C116.37 158.459 115.09 162.501 114.568 162.895L110.298 163.557C110.216 163.48 110.715 161.849 110.807 161.554C112.519 155.881 115.08 150.061 116.541 144.39C117.347 141.263 117.991 138.249 117.09 135.078C114.981 127.637 102.961 118.129 96.8042 113.477C96.2723 113.074 96.0458 112.377 95.2162 112.553C95.1653 112.599 95.5317 113.408 95.5877 113.482C95.8499 114.935 96.2825 115.887 97.2649 117.014C100.487 120.707 104.154 124.166 107.855 127.487C109.43 128.932 110.87 130.525 112.262 132.101C115.225 135.458 114.897 138.664 114.052 142.963C112.497 148.928 110.998 154.863 109.552 160.765C108.666 163.386 107.74 166 106.91 168.642C106.697 169.016 106.101 169.207 105.691 169.285C103.251 169.761 100.586 169.252 98.377 168.122C97.443 167.644 95.6285 166.575 95.8168 165.379C97.4888 158.973 99.3976 152.649 101.352 146.33C101.551 145.686 102.067 145.266 101.881 144.525C101.769 144.072 101.037 143.683 101.177 143.082L104.617 143.642C104.958 143.133 104.286 142.739 103.912 142.487C102.291 141.395 99.1736 140.275 97.2623 139.27C93.2209 137.14 89.2685 134.837 85.558 132.172C80.4731 128.52 74.019 124.168 73.6245 117.297C73.5024 115.166 74.2455 109.728 75.0955 107.789C75.2406 107.455 75.3195 107.369 75.6656 107.241C77.0374 106.73 81.5903 105.651 83.0435 105.498C84.4967 105.345 86.1815 105.577 87.6856 105.485C92.801 105.177 98.0538 104.276 102.373 101.383C103.36 102.144 102.78 103.752 103.134 104.541C103.21 104.712 105.422 106.748 105.829 107.152L105.831 107.15Z" fill="#333B64"/>
<path d="M109.556 160.765C109.207 160.584 109.403 160.113 109.452 159.828C110.594 153.099 113.618 145.981 114.185 139.428C114.539 135.34 113.427 133.913 110.864 131.07C106.873 126.644 101.768 122.847 97.9177 118.325C96.8488 117.07 94.9095 115.189 95.5941 113.481C97.8922 116.49 102.906 120.103 105.835 122.88C111.159 127.929 117.461 133.358 115.643 141.443C114.284 147.493 111.572 154.799 109.556 160.765Z" fill="#4F5886"/>
<path d="M105.83 107.149C109.951 111.234 114.356 115.296 118.308 119.523C121.418 122.852 125.465 126.814 124.546 131.729C123.9 135.18 122.23 139.585 121.146 143.034C120.93 143.723 120.724 144.512 120.352 145.125C121.042 141.71 122.701 133.642 122.584 130.512C122.441 126.715 121.474 125.832 119.23 123.071C117.97 121.521 116.596 119.963 115.234 118.502C113.57 116.713 105.629 109.671 105.281 108.165C105.171 107.699 105.077 106.935 105.83 107.149Z" fill="#4F5886"/>
<path d="M110.299 165.046C109.988 166.665 111.592 167.39 112.521 168.316C112.673 168.469 112.785 168.482 112.719 168.767C110.843 169.484 109.344 170.894 107.97 172.304L106.486 174.165L105.453 173.292L106.016 170.721C106.54 170.574 107.624 170.306 107.962 169.876C108.502 169.187 109.383 165.232 109.576 165.069L110.299 165.046Z" fill="#E4CFC6"/>
<path d="M104.9 180.682C105.437 179.56 107.769 178.417 108.957 178.297C109.558 178.236 110.324 178.995 110.792 179.445C112.413 181.003 115.012 183.594 114.953 185.897L108.013 180.456C107.486 180.257 105.532 180.527 104.9 180.682Z" fill="#E1ADAD"/>
<path d="M120.166 176.961C117.557 174.604 116.694 171.112 112.439 171.563L110.299 172.12C111.686 170.883 114.508 168.791 116.427 169.807C117.216 170.224 119.619 173.174 120.01 174.042C120.491 175.108 120.441 175.882 120.163 176.961H120.166Z" fill="#E1ADAD"/>
<path d="M109.74 62.8472L107.228 65.8197L105.459 62.4756L109.74 62.8472Z" fill="#F4EDEC"/>
<path d="M83.864 17.6099C83.9174 17.6811 85.1314 16.3425 85.167 17.4216H85.3477C85.4495 16.8388 86.0603 16.345 86.6533 16.3069C86.8034 16.4596 85.1721 19.3277 84.8616 19.4474C84.7496 19.4906 84.4264 19.5492 84.4188 19.3761L84.6045 17.9815L83.9276 18.7017L83.3906 18.5413L83.1132 16.8617C82.7034 16.4952 81.0899 19.539 80.6955 19.0936C80.4486 18.605 82.2174 16.3247 82.4159 16.2407C83.4339 15.803 83.897 16.6835 83.8614 17.6073L83.864 17.6099Z" fill="#F7F7F7"/>
<path d="M70.6438 53.1666L70.089 54.6554C73.5451 52.4184 72.013 54.7929 72.3235 55.2128L73.9065 54.0981C74.7412 54.2228 73.5603 55.1924 73.3389 55.3935C72.0919 56.5234 70.9237 56.9434 71.5753 54.6554C71.3029 54.3831 69.8243 56.1137 69.2542 55.9559C68.4297 55.7294 70.033 52.5838 70.6438 53.1641V53.1666Z" fill="#F7F7F7"/>
<path d="M76.7883 53.9125C77.1294 54.3121 76.0121 56.0197 75.3021 55.7729C75.0094 55.2563 76.5695 53.6555 76.7883 53.9125Z" fill="#F4EDEC"/>
<path d="M80.696 16.3064C80.7826 17.0724 80.2507 18.0344 79.3955 17.981C79.2149 17.813 80.4034 15.9755 80.696 16.3064Z" fill="#D9D9D9"/>
<path d="M87.4022 19.0992C87.1783 18.8396 88.0359 17.0734 88.2395 17.0556C88.7434 17.0124 88.1097 18.4961 88.0003 18.6742C87.8425 18.9236 87.7712 19.173 87.4048 19.0992H87.4022Z" fill="#F4EDEC"/>
<path d="M97.0809 52.7944C99.6768 55.9069 101.815 59.4266 103.489 63.3586C104.072 64.4275 104.774 65.5524 105.645 66.3821C106.462 66.9954 105.665 67.8887 104.904 68.0567L99.3205 59.3986L98.5723 59.1238C98.5265 59.6073 98.7988 59.9993 98.9438 60.4268C98.9922 63.664 101.262 67.4688 103.039 70.2937C102.652 70.7722 100.901 73.1059 100.374 73.055C98.7988 72.406 97.1904 71.808 95.6532 71.0699C94.8744 70.6958 92.5203 69.5989 91.9833 69.1561C91.5812 68.8252 91.5634 68.1788 90.9297 67.7894C90.2553 67.3746 89.6394 67.6367 89.2602 67.4128C89.0693 67.2983 88.9268 66.7333 88.7054 66.4762C87.1555 64.6795 85.1908 63.5851 82.8214 63.239C82.2182 63.1499 78.6578 62.9082 78.6553 63.6844C78.9225 63.9669 79.3958 64.0432 79.7674 64.1501C83.0352 65.3895 86.1528 66.9674 87.9724 70.1537C88.8606 70.9096 89.9117 71.4975 91.1206 71.9149C93.2736 73.4368 95.5616 74.6049 97.9895 75.4193L98.384 75.8774C97.7859 79.3818 97.31 82.9194 97.4525 86.4874L90.5658 84.9961C91.0111 84.174 91.342 83.2782 91.8993 82.5173C92.8766 81.1888 95.1569 79.8807 94.5512 77.9287C94.2967 77.1092 93.3271 77.1193 93.1973 76.9666C93.0522 76.7961 93.3805 74.9078 91.8713 74.4598C91.4031 74.3199 90.805 74.6151 90.7516 74.5744C90.6294 74.4802 90.7948 73.6938 89.6801 73.4978C88.853 73.3528 88.3211 73.8465 88.0768 73.8007C87.8528 73.7574 87.5601 73.2383 87.0791 73.1237C83.9539 72.3882 84.5596 76.6053 84.043 78.4809L83.1217 77.2644C82.5007 76.7554 81.7779 76.6816 81.0806 77.1015C79.1922 78.2391 81.4522 81.4865 81.4395 83.1357L77.7162 83.5098C78.4898 84.566 80.2942 84.1817 81.4395 84.6271C81.5387 84.767 79.9227 87.5283 79.7801 87.6658C79.5409 87.8948 79.065 87.8083 78.7316 87.9661C77.5024 88.5514 77.2021 89.4549 76.7898 90.679L74.5527 91.5138L74.7309 75.9614C75.0414 71.3193 75.0999 67.4204 77.566 63.3459C78.3244 62.0938 80.5335 58.658 82.0375 58.7853C84.9897 59.0347 88.0513 61.6306 90.0084 63.6768C90.6574 64.3563 91.9044 66.3719 92.7468 66.5399C93.6554 66.7206 94.4672 65.1681 94.9202 64.5039C95.3732 63.8396 97.6103 60.2919 97.6103 59.7727C97.6103 59.1314 96.3734 56.706 95.9917 56.0189C95.3478 54.8635 94.5741 53.8022 93.7266 52.7944C94.9686 52.8988 95.8822 52.5196 97.0784 52.7944H97.0809Z" fill="#D37F7F"/>
<path d="M103.968 82.9502L104.057 84.0267C102.828 88.9742 102.296 94.2092 102.479 99.1439C100.67 100.885 98.5956 101.908 96.1906 102.628C90.4848 104.336 84.3005 104.282 78.4648 103.333C81.104 101.796 82.9135 99.91 84.7611 97.5304C85.1301 97.0545 85.321 96.3801 85.6442 95.9932C85.9522 95.6217 86.4586 95.4868 86.8098 94.9243C87.9729 93.064 86.4637 92.4226 86.6902 91.2799C86.7335 91.061 88.3775 87.3632 88.5099 87.1825C88.6957 86.9305 89.2454 86.727 89.4515 86.3936L98.8043 87.946C99.662 87.7042 100.56 84.7546 100.845 83.9224C101.861 83.6806 103.032 83.4083 103.968 82.9502Z" fill="#D58080"/>
<path d="M119.98 49.4451L116.849 52.919C116.412 53.5247 116.012 54.9626 117.185 54.8404C117.422 53.7588 118.399 52.6925 119.14 51.8603C119.542 51.4098 120.565 50.2976 121 49.9973C121.158 49.8904 121.186 49.7377 121.466 49.8141L121.817 51.0891C120.081 51.9544 118.646 53.5094 118.31 55.4741L118.766 55.7668C119.796 54.7335 120.496 53.4458 121.652 52.5092C122.14 52.1122 122.67 51.5625 123.329 51.6745C123.627 53.5985 119.376 54.8277 120.008 56.7644C120.267 57.5636 121.412 56.4463 121.837 56.2325C122.196 56.0518 125.072 54.5096 124.818 55.6726C123.405 57.4643 121.496 57.4134 120.672 59.7192C119.776 62.2234 120.107 64.4757 117.473 66.0129C117.104 66.2292 116.697 66.2547 116.394 66.4226C115.447 66.9495 112.874 70.9069 111.968 72.0496C110.214 74.2637 108.278 76.8978 106.397 78.9491C104.397 81.1327 102.076 82.7716 98.9453 82.3873C99.0344 81.5042 99.0598 80.5931 99.154 79.71C99.2227 79.0814 99.7877 75.1748 99.9608 74.9331C100.091 74.7524 100.803 74.6913 101.172 74.4673C101.689 74.1543 103.089 72.6019 103.603 72.0598C105.598 69.9551 111.808 63.3101 112.678 61.0298C114.116 57.2607 113.943 53.9675 116.905 50.7379C117.801 49.7606 118.636 48.4805 119.98 49.44V49.4451Z" fill="#E5D0C8"/>
<path d="M102.108 55.4015L106.63 55.7323L107.315 55.1139L108.714 53.167L112.135 57.3917L111.135 60.7943C109.094 61.993 106.694 61.4636 104.538 60.8808C104.098 60.27 101.815 55.6789 102.11 55.3989L102.108 55.4015Z" fill="#E4D0C7"/>
<path d="M98.3841 75.8777C95.6432 75.4069 93.396 73.6686 91.0622 72.3096C90.2325 71.8261 89.0262 71.4672 88.3009 70.976C87.5094 70.439 87.1658 69.4847 86.5652 68.8026C85.5625 67.6675 84.3816 66.7208 83.0582 65.9802C81.9639 65.3694 80.5514 65.0742 79.7676 64.1504C82.6358 64.975 85.1019 64.4354 87.3134 67.1229C87.6774 67.5658 88.0286 68.5252 88.446 68.7823C89.0415 69.1538 89.8483 68.8332 90.202 69.0749C90.3572 69.1793 90.4285 69.6806 90.6474 69.9326C91.3269 70.7241 95.605 72.6506 96.8317 73.2436C97.2567 73.4497 98.3256 73.7195 98.575 73.9206C99.0102 74.2718 98.4732 75.3763 98.3892 75.8751L98.3841 75.8777Z" fill="#E1ADAD"/>
<path d="M103.968 82.9496C104.255 82.8071 104.467 82.3134 104.897 82.3923C104.713 85.7109 104.263 89.0347 103.968 92.3533C103.846 93.7404 103.968 97.1583 103.497 98.2093C103.352 98.5351 102.744 98.8914 102.479 99.1459C102.163 98.9525 102.133 98.642 102.102 98.3111C101.939 96.5576 102.148 94.3155 102.293 92.5366C102.558 89.3172 103.069 86.0443 103.968 82.9496Z" fill="#E1ADAD"/>
<path d="M97.082 52.7939C98.2553 53.0612 99.1613 53.9952 99.8433 54.9674C102.093 58.1791 103.574 62.9484 105.646 66.3841C104.697 66.0482 104.022 64.9488 103.521 64.1344C101.897 61.5003 100.902 58.5482 99.0977 55.8988C98.4181 54.9012 97.166 54.0079 97.0846 52.7939H97.082Z" fill="#E1ADAD"/>
<path d="M103.039 70.2917C102.683 70.2815 102.507 70.0703 102.296 69.8234C101.298 68.6578 98.5573 62.7204 98.5548 61.2596C98.5548 60.9109 98.537 60.5495 98.9442 60.4248C100.016 63.5806 102.159 66.1866 103.897 68.9836C104.207 69.6733 103.329 69.9329 103.042 70.2892L103.039 70.2917Z" fill="#E1ADAD"/>
<path d="M86.8447 50.9323C86.8982 51.711 87.8933 51.8154 88.4252 52.2353C88.728 52.4745 90.7767 54.3247 90.8454 54.4749C91.1814 55.2053 90.2321 57.2133 90.568 58.1931C91.9067 57.1293 92.1561 55.3478 92.8916 53.9124C93.8587 55.162 96.3731 58.7403 95.882 60.252C94.8843 61.438 94.2481 63.1813 93.2504 64.3214C93.0672 64.5301 92.9654 64.7821 92.6167 64.7083C90.1914 61.0409 87.1985 58.9184 83.0196 57.6383C82.8822 57.5976 82.6099 57.7121 82.7498 57.3583C82.9433 56.8646 83.9104 56.0171 84.2692 55.3402C84.9538 54.0448 84.9411 52.4058 85.4552 51.314C85.6639 50.8712 86.5724 49.9066 86.9389 49.2602C89.8478 44.1499 89.8809 38.1539 90.6037 32.4455C93.9299 28.5899 96.8185 24.3372 99.2235 19.8428C102.703 23.4388 101.875 29.3355 102.606 33.9598L105.283 37.4413C105.403 38.5535 102.809 38.5229 102.522 39.5206C102.234 40.5182 102.583 42.8901 102.479 44.1321C102.099 48.652 98.7502 51.2122 94.3804 51.4871C91.7998 51.6474 89.4457 50.6345 86.8447 50.9323Z" fill="#E5D0C8"/>
<path d="M101.923 31.9462C102.236 32.4221 101.458 32.8471 100.992 32.6893C100.776 32.8827 102.173 34.2188 101.244 34.5293C100.646 34.7278 99.7755 34.0611 99.04 33.9923C98.1238 33.9058 96.6782 34.6031 96.4161 33.6259C96.1183 32.5162 99.2945 31.5746 100.157 31.5772C100.379 31.5772 101.875 31.8749 101.926 31.9487L101.923 31.9462Z" fill="black"/>
<path d="M101.364 29.3373C100.56 29.2075 99.8449 28.6679 99.0051 28.6603C98.3307 28.6552 96.142 29.8539 96.1445 28.8715C97.1142 26.8025 101.535 26.4436 101.362 29.3373H101.364Z" fill="black"/>
<path d="M98.943 45.9048C98.943 47.1086 96.5125 46.7803 96.7085 45.8158C96.8332 45.2126 98.4747 46.1899 98.943 45.9048Z" fill="black"/>
<path d="M95.7108 39.5918C96.8153 39.8565 101.582 40.1542 102.025 41.0679C102.445 41.9357 101.333 43.8699 100.498 44.3865C97.3752 46.3156 93.741 42.6407 95.7108 39.5918Z" fill="black"/>
<path d="M100.992 41.4395C100.641 42.5644 96.7345 41.4522 96.2687 41.0832C96.0346 40.8974 96.1797 40.5768 96.1542 40.3223C97.7066 40.872 99.3227 41.4013 100.992 41.4395Z" fill="#F4EDEC"/>
<path d="M98.9437 43.8576C97.9715 43.7838 96.9332 43.2952 96.5234 42.3713C97.5211 42.3255 98.9183 42.6487 98.9437 43.8576Z" fill="#DD554B"/>
<path d="M124.259 99.5178C124.264 101.04 124.259 102.564 124.251 104.086C124.251 104.48 124.45 104.844 124.445 105.196C124.391 108.776 121.294 109.731 119.507 112.36L118.675 112.548C118.446 112.003 119.853 110.957 119.701 110.688C119.281 109.952 118.016 111.917 117.746 111.617L118.489 109.942C117.499 109.744 117.25 110.772 116.632 111.245C116.329 110.174 117.306 109.777 117.372 108.825C117.001 108.466 115.881 109.919 115.603 110.125C115.384 110.011 115.537 109.573 115.614 109.39C115.962 108.555 117.573 106.924 118.159 105.979C119.217 104.277 119.383 103.259 119.26 101.215L124.261 99.5127L124.259 99.5178Z" fill="#E4CFC6"/>
<path d="M135.428 97.8428L135.24 98.6775L130.588 101.935C130.59 101.485 130.463 100.945 130.86 100.627L135.426 97.8428H135.428Z" fill="#E4CFC6"/>
<path d="M140.831 94.4941C140.872 94.9293 140.436 95.166 140.149 95.3925C139.589 95.8277 137.812 97.0137 137.214 97.2987C136.988 97.4056 136.833 97.5405 136.553 97.4718L136.578 96.5683L140.833 94.4967L140.831 94.4941Z" fill="#D9D9D9"/>
<path d="M115.887 22.2618C116.309 22.1269 116.355 21.1369 116.907 21.1343C117.498 21.1318 117.622 22.2032 117.561 22.6359C117.755 22.87 118.587 21.7706 118.989 21.7324C119.493 21.6866 119.676 22.417 119.61 22.8217C119.841 23.0863 120.669 21.6866 121.521 21.9182C121.984 22.0455 123.076 23.7786 122.771 24.1247C122.168 24.2647 121.409 22.6384 121.19 22.6384L119.862 23.9236C119.261 23.7786 118.974 23.2161 119.05 22.6359C118.292 22.7071 118.119 23.8244 117.205 23.5521L116.724 22.0785C114.813 26.2319 115.22 20.2207 115.795 20.2207C116.441 20.7577 115.744 21.5823 115.889 22.2643L115.887 22.2618Z" fill="#F7F7F7"/>
<path d="M125.567 22.637C126.226 22.0746 126.802 22.1077 127.334 22.8203C128.067 21.6394 128.611 22.3342 129.375 22.2629C129.705 22.2324 129.98 21.7743 130.403 21.8939C130.642 22.1408 129.912 22.9806 129.655 23.1002C128.904 23.4489 128.619 22.8661 128.443 22.8661C128.209 22.8661 127.909 23.8255 126.998 23.5379C126.73 23.454 126.557 23.0595 126.374 23.029C126.173 22.9933 125.481 23.655 125.02 23.3649L124.908 22.0771L125.466 22.0848L125.565 22.637H125.567Z" fill="#F7F7F7"/>
<path d="M132.638 23.0078C132.101 23.4939 131.052 21.0533 131.149 20.9616C131.966 20.5773 132.742 22.9111 132.638 23.0078Z" fill="#F4EDEC"/>
<path d="M137.106 19.6566C136.638 19.906 135.541 19.0051 135.617 18.6361C135.772 17.8929 137.409 19.0458 137.106 19.6566Z" fill="#F4EDEC"/>
<path d="M138.594 19.0992C138.195 19.2111 138.083 18.9643 137.846 18.8243C137.711 18.7454 137.029 18.2695 137.108 18.0786C137.467 17.2057 138.716 18.5622 138.594 19.0992Z" fill="#F7F7F7"/>
<path d="M138.597 41.8108C138.406 42.1518 138.383 42.2689 138.462 42.6201C138.641 43.4116 139.829 46.659 140.239 47.2622C140.918 47.8144 141.728 48.214 142.664 48.4558L142.692 48.8859C141.677 50.5019 140.056 52.4056 138.226 52.9807C138.529 51.8482 136.686 44.9742 135.894 44.791C134.994 44.5823 135.752 46.402 135.803 46.6514L135.749 46.8881C135.696 51.4843 135.859 56.2154 136.233 61.084L135.991 61.5446C132.924 63.8275 125.208 63.3007 121.47 63.2192C121.256 63.0003 122.108 59.8547 122.426 59.4297C122.979 58.6942 124.579 58.114 125.384 57.1723C126.778 55.5359 126.262 53.8715 124.076 53.7239C125.05 52.8408 124.966 51.7032 124.233 50.6826C123.834 50.1253 123.411 50.166 123.047 49.8224C122.605 49.4025 122.353 48.723 121.658 48.4227C122.292 47.7228 123.388 47.1324 124.348 47.2164C124.908 47.2673 126.557 48.9902 127.751 49.2167C131.988 50.0184 134.451 45.4552 134.502 41.8159C135.754 42.4801 136.918 41.9279 138.142 41.4443C138.493 41.4443 138.529 41.7752 138.597 41.8159V41.8108Z" fill="#7C84CD"/>
<path d="M114.77 50.9311L114.393 46.2764C113.749 46.536 113.775 47.4343 113.676 48.068C113.411 49.7477 113.469 51.4707 113.467 53.1631C112.309 53.3947 108.868 52.0891 108.81 50.8166C108.782 50.2414 109.326 50.0964 109.476 49.6357C109.667 49.0428 109.494 48.3531 109.604 47.7143C109.805 46.5232 112.479 41.3111 113.574 41.0693C114.154 41.3009 114.348 42.128 114.778 42.6396C115.058 42.9755 115.465 43.3776 115.791 43.6728C116.142 43.991 116.969 44.3295 117.101 44.5967C117.338 45.0828 117.129 46.0575 117.239 46.6937C117.312 47.1213 117.697 47.6227 117.722 47.8899C117.765 48.3378 116.837 48.7425 116.534 49.0555C115.946 49.6637 115.546 50.4832 114.775 50.926L114.77 50.9311Z" fill="#7C84CD"/>
<path d="M135.805 46.6513C136.553 50.3008 137.436 54.9683 137.487 58.6662C137.502 59.8089 136.873 60.8879 135.993 61.5445C135.514 60.0608 135.7 58.5007 135.629 56.9763C135.476 53.7747 135.308 50.5222 135.436 47.2952C135.451 46.9364 135.245 46.5495 135.807 46.6513H135.805Z" fill="#A5ABDB"/>
<path d="M130.964 42.3697V44.0443C131.358 44.2861 132.72 43.5633 132.638 44.1334C132.407 45.7698 130.391 48.0603 128.642 47.9611C128.072 47.928 126.558 47.2612 126.212 46.8387C126.103 46.7038 126.008 46.5079 126.232 46.457C127.37 46.0243 128.286 45.014 129.101 44.136C129.602 43.5964 129.928 42.525 130.961 42.3672L130.964 42.3697Z" fill="#A5ABDB"/>
<path d="M138.596 41.8105C139.217 42.1643 139.388 42.2788 139.894 42.8387C140.604 43.6251 141.352 45.287 141.938 45.8214C142.449 46.2872 143.129 46.1803 143.421 46.5722C143.953 47.2848 143.063 48.2926 142.691 48.8831C141.821 48.4046 140.518 48.2977 139.925 47.4604C139.739 47.1983 138.128 42.9507 138.069 42.602C137.99 42.1261 138.018 41.8284 138.594 41.8105H138.596Z" fill="#A5ABDB"/>
<path d="M121.097 46.8395C119.649 48.2494 118.124 47.0634 118.491 45.1623C119.692 45.0936 119.885 46.674 121.097 46.8395Z" fill="#7C85CE"/>
<path d="M145.299 82.0217C144.35 80.5813 142.306 76.5704 141.761 74.9467C140.738 72.6842 139.672 70.4268 138.565 68.1719L137.852 67.3143C137.542 66.4642 136.934 65.6804 137.107 64.7082C137.404 64.4613 137.814 63.8073 137.855 63.4052C138.14 63.1914 138.86 64.1763 139.013 64.385C141.285 67.5204 144.026 73.267 145.889 76.8681C146.582 78.2042 147.521 79.8458 148.063 81.2099C148.712 82.8386 148.401 83.3298 147.253 84.6227C147.108 84.6201 146.322 83.0524 146.123 82.7776C145.897 82.4645 145.393 82.1617 145.299 82.0192V82.0217Z" fill="#A5ABDB"/>
<path d="M140.086 93.0039C139.231 90.8407 138.218 88.5985 137.757 86.3029C137.579 85.4198 137.159 84.3255 138.04 83.6943L141.343 91.6398C141.325 92.4822 140.521 92.6679 140.086 93.0039Z" fill="#A5ABDB"/>
<path d="M112.16 89.0945C112.181 88.8909 112.099 88.6389 112.346 88.5371L112.16 89.0945Z" fill="#7C85CE"/>
<path d="M135.898 63.4053C136.018 63.4664 136.018 63.53 135.898 63.5911V63.4053Z" fill="#7C85CE"/>
<path d="M136.27 63.2188C136.389 63.2798 136.389 63.3434 136.27 63.4045V63.2188Z" fill="#7C85CE"/>
<path d="M108.067 83.8814C108.054 83.6345 108.077 83.3826 108.067 83.1382H107.696L107.51 83.5098V79.8807C108.92 78.1933 110.345 76.4882 111.678 74.7423C112.684 73.4266 116.048 68.4232 117.02 67.7971C118.435 66.886 120.204 66.6086 120.756 64.5522C125.765 64.7711 130.751 64.9747 135.619 63.5928C135.362 64.0865 134.591 64.229 134.084 64.3843C131.081 65.303 127.569 65.3157 124.449 65.4532C124.38 65.8629 124.62 65.8985 124.923 66.0003C127.564 66.8936 134.922 66.517 137.108 64.7075C137.393 64.8907 137.551 65.2343 137.579 65.7382C138.019 66.4228 138.111 66.9471 137.854 67.3135C138.014 67.3746 138.014 67.4382 137.854 67.4993C137.291 68.3137 140.699 76.7605 141.215 76.5467C141.086 75.8774 141.144 75.3429 141.391 74.9434C141.452 74.4802 141.557 74.5464 141.763 74.9434L142.185 75.0248C143.096 77.3026 144.236 79.5218 145.491 81.6291L145.298 82.0159L145.112 82.5733C144.901 82.7896 144.567 82.6954 144.117 82.2933C143.605 82.3824 145.789 87.4622 146.214 87.933L146.043 88.3453C145.221 89.5389 143.73 90.5263 142.328 90.9437L138.581 83.52C138.286 83.3902 138.21 83.5683 138.039 83.6905C137.82 84.7085 137.894 85.4923 138.187 86.5307C138.742 88.4878 139.358 90.4092 140.195 92.2696L140.086 93C133.425 98.1384 119.751 98.4565 112.162 95.2345L111.869 94.9673C112.518 92.5521 112.923 90.0428 113.142 87.5512C112.943 88.0221 112.679 88.2257 112.348 88.1595C111.818 87.7447 112.618 86.2151 111.79 86.2966L109.553 93.5574C109.291 93.7915 107.945 92.9135 107.693 92.6259C107.622 90.8419 107.856 89.0222 108.395 87.1695C108.861 85.7468 108.752 84.65 108.065 83.8763L108.067 83.8814Z" fill="#7C85CE"/>
<path d="M145.114 82.5792C145.236 82.7803 146.562 85.8495 146.59 86.0353C146.658 86.4578 146.653 87.2442 146.562 87.6616C146.457 88.1375 146.183 88.1477 146.043 88.3513C145.391 87.5012 143.375 82.9432 143.709 82.2153C143.775 82.0728 143.973 81.9379 144.111 81.8463C144.243 81.8234 145.06 82.4978 145.111 82.5818L145.114 82.5792Z" fill="#A5ABDB"/>
<path d="M112.348 88.1618L112.89 87.154L113.465 87.042C113.78 87.3448 112.61 94.2952 112.162 95.2343C112.05 95.1859 111.783 95.275 111.602 95.1478L111.424 94.7864C111.582 92.8827 111.968 90.9816 112.159 89.0907L112.345 88.5333V88.1618H112.348Z" fill="#A5ABDB"/>
<path d="M107.693 92.6316C107.163 92.031 107.281 91.27 107.314 90.4836C107.403 88.3178 108.192 86.1063 108.064 83.8845C108.38 83.8565 108.757 83.9532 108.904 84.2561C109.441 85.358 107.879 91.1046 107.693 92.6341V92.6316Z" fill="#A5ABDB"/>
<path d="M131.522 67.4999L131.879 67.7086C132.545 70.9076 133.65 74.1474 134.81 77.2522L134.686 77.9267C134.836 79.0694 134.113 80.0644 133.194 78.9523C132.647 78.2906 131.601 74.6564 131.286 73.6002C130.81 72.0045 128.756 67.393 131.522 67.4999Z" fill="#A5ABDB"/>
<path d="M135.058 67.6852L135.483 67.8812C136.173 69.8586 136.921 71.8208 137.728 73.7627L137.478 74.2004L137.664 74.572C137.829 74.6229 137.827 74.6839 137.664 74.7577L138.781 79.9699C138.527 79.98 138.42 80.0309 138.214 79.8477C137.771 79.4481 136.453 76.5087 136.173 75.7859C135.516 74.091 134.475 70.8105 134.333 69.0544C134.289 68.5149 134.21 67.4867 135.061 67.6852H135.058Z" fill="#A5ABDB"/>
<path d="M141.39 74.9466C141.568 75.5472 141.624 76.0893 141.576 76.7179C141.555 76.9953 141.721 77.2575 141.298 77.1786C140.497 76.4431 139.998 75.4276 139.552 74.4554C138.926 73.0837 137.728 69.8948 137.517 68.4773C137.458 68.0803 137.366 67.6731 137.85 67.5C138.12 67.7061 138.377 67.9377 138.54 68.2406C139.379 69.8007 140.492 72.198 141.169 73.8879C141.433 74.3129 141.504 74.6667 141.385 74.9466H141.39Z" fill="#A5ABDB"/>
<path d="M115.698 86.4912C115.388 87.8426 115.431 89.4281 115.006 90.7388C114.904 91.0493 115.09 91.23 114.584 91.1434C114.518 89.6114 114.696 88.0691 115.123 86.6007L115.698 86.4938V86.4912Z" fill="black"/>
<path d="M137.666 74.5747L137.48 74.2031C137.486 74.2235 137.598 74.3431 137.666 74.5747Z" fill="#7C85CE"/>
<path d="M141.763 74.9468H141.391C141.126 74.051 140.19 72.809 139.742 71.8496C139.075 70.4269 138.408 68.9712 137.854 67.5002C137.833 67.4467 137.874 67.3678 137.854 67.3144C138.497 66.9556 139.19 68.5309 139.439 68.9865C140.574 71.0479 141.047 72.8141 141.763 74.9468Z" fill="black"/>
<path d="M131.523 67.5C132.243 67.528 132.282 67.4898 132.679 68.1133C133.597 69.5487 135.926 77.4 135.997 79.1306C136.013 79.5098 136.173 80.1231 135.621 79.973C135.455 79.2324 134.974 78.6089 134.687 77.9268C133.549 75.2291 132.419 71.4346 131.653 68.5791C131.556 68.2202 131.472 67.8792 131.523 67.5025V67.5Z" fill="black"/>
<path d="M135.059 67.6853C135.005 67.4155 135.094 67.0465 135.059 66.7563C135.428 66.708 135.695 67.0694 135.883 67.3264C136.415 68.0543 137.1 70.0597 137.43 70.9912C137.67 71.6631 139.029 75.7936 138.779 76.0633C138.087 76.0964 138.146 75.1192 137.662 74.7603C137.647 74.7018 137.68 74.6305 137.662 74.5745L137.476 74.203C136.891 72.2866 135.387 69.3853 135.056 67.6878L135.059 67.6853Z" fill="black"/>
<path d="M118.583 31.9437C118.718 31.903 118.879 31.646 118.863 31.478V28.5945L119.874 31.0275L120.439 31.2082C120.688 31.165 121.429 28.6632 121.284 28.2204C121.777 28.1746 121.584 28.2128 121.653 28.4978C122.062 30.2437 121.693 30.9486 124.075 30.829L123.89 31.9437C125.666 31.7554 127.236 31.6434 128.982 32.1448C129.196 32.1015 129.265 31.562 129.214 31.3787C129.076 30.885 128.644 30.9894 128.544 30.6432L131.894 30.0833C131.871 32.3764 131.944 34.7814 131.705 37.0617C131.621 37.8659 131.553 39.2376 131.15 39.8561C128.336 44.18 118.8 46.2567 115.662 41.3805C114.31 39.2809 115.053 38.4105 114.952 36.3211C114.863 34.5218 113.985 32.3815 114.211 30.544C114.292 29.8823 115.219 30.7985 115.7 30.6432C115.735 30.9588 115.28 30.7985 115.165 31.1293C115.084 31.3711 115.158 31.6841 115.143 31.9437H118.586H118.583Z" fill="#E4CFC6"/>
<path d="M128.721 35.0997C127.619 35.456 126.634 35.0056 125.471 35.1074C125.119 35.1379 123.631 35.8022 123.689 35.0132C123.842 34.6824 124.061 33.7076 124.262 33.5244C125.066 32.8042 129.1 33.3183 128.721 35.0972V35.0997Z" fill="black"/>
<path d="M119.579 35.0818C118.803 35.6061 118.34 34.8604 117.64 34.7484C116.925 34.6339 116.06 34.807 115.324 34.7357C115.187 34.5932 115.65 33.0611 115.787 32.8728C116.352 32.0991 120.417 33.3767 119.579 35.0818Z" fill="black"/>
<path d="M121.654 34.7378C121.81 35.2799 121.323 35.7176 121.283 36.1503C121.232 36.6898 121.787 37.3082 120.85 37.5016C119.259 36.901 120.008 34.5189 121.654 34.7378Z" fill="black"/>
<path d="M124.585 37.5727C125.367 37.4506 126.229 37.4378 126.642 38.2191C127.619 40.0744 124.517 42.6805 122.85 42.9095C120.745 43.1997 116.757 42.174 117.599 39.3338C117.994 38.0054 120.837 38.5703 121.913 38.438C122.868 38.3209 123.723 37.7076 124.585 37.5727Z" fill="black"/>
<path d="M124.074 40.8811C123.252 41.614 121.593 41.9627 120.539 41.6217C120.788 41.2934 121.603 40.8149 121.974 40.736C122.672 40.5884 123.405 40.6877 124.074 40.8811Z" fill="#DD554B"/>
<path d="M138.967 171.747C140.706 173.368 141.823 175.063 142.037 177.522C142.966 178.247 142.793 176.641 143.248 175.934C143.905 174.916 145.824 173.803 146.702 172.872C147.3 172.238 148.664 169.706 148.827 169.599C149.343 169.258 149.812 170.123 149.913 170.576C150.201 171.846 149.343 172.953 148.641 173.882C144.452 179.428 136.743 185.503 129.531 181.647C128.823 181.268 127.668 180.555 127.609 179.751C127.462 179.619 127.347 179.453 127.289 179.262C127.121 178.713 128.243 174.992 128.592 174.315C129.322 172.905 131.475 170.635 133.012 170.406C135.033 170.503 137.018 170.951 138.965 171.745L138.967 171.747Z" fill="#D9D9D9"/>
<path d="M147.886 167.299C147.695 170.432 145.193 172.361 142.956 174.163C142.653 174.231 141.462 172.165 141.109 171.745C139.599 169.956 137.329 168.429 135.057 167.836L137.283 164.761L137.762 164.481L147.886 167.299Z" fill="#E4D0C7"/>
<path d="M148.075 48.7071C148.759 50.486 150.508 51.5269 151.635 52.8859C149.103 56.1563 144.967 59.6225 141.287 55.5811L144.557 48.5137C145.196 48.5926 145.438 49.211 146.135 49.2721C146.97 49.3459 147.337 48.8572 148.075 48.7096V48.7071Z" fill="#E5D0C8"/>
<path d="M138.968 171.747C138.029 172.253 136.802 171.316 135.81 171.087C135.006 170.904 132.965 170.596 132.27 170.912C132.163 170.96 130.677 172.291 130.491 172.482C130.142 172.841 129.325 173.811 129.066 174.223C128.541 175.055 127.544 178.791 127.612 179.751C125.94 179.033 126.719 176.478 127.205 175.154C127.574 174.149 128.422 172.861 129.109 172.032C129.424 171.65 131.857 169.156 132.087 169.051C133.988 168.191 137.604 170.472 138.971 171.747H138.968Z" fill="#F7F7F7"/>
<path d="M150.884 162.997C150.68 161.346 152.999 160.597 154.136 159.643C155.528 158.475 157.457 156.579 157.213 154.619C157.676 154.153 159.437 155.841 158.514 157.134C157.534 158.503 154.696 160.539 153.251 161.549C153.004 161.722 150.996 163.124 150.884 162.997Z" fill="#D9D9D9"/>
<path d="M153.114 146.99C153.778 148.361 154.078 149.858 152.373 150.525C152.551 149.451 152.592 148.346 152.75 147.269C152.788 147.015 152.821 146.707 153.114 146.99Z" fill="#323232"/>
<path d="M173.223 18.3535L171.177 17.9819L171.149 19.0711C170.352 19.5725 169.746 18.9337 168.942 18.9134L169.115 19.9135C168.886 20.7228 165.451 19.5674 165.405 19.374C165.163 18.3356 167.736 19.3791 167.822 19.2824C166.988 16.3887 169.739 18.3127 170.057 17.9819C170.085 17.6689 169.988 17.2769 170.082 16.9843C170.421 15.9357 173.849 17.7732 173.22 18.3535H173.223Z" fill="#D9D9D9"/>
<path d="M177.905 26.0114L177.378 26.7062L176.019 26.5459C176.07 27.3806 175.872 27.5995 175.039 27.4341C174.591 27.345 173.411 26.9047 173.876 26.355L175.263 26.5383C175.363 25.1105 176.533 25.8817 177.027 25.7697C177.279 25.7111 177.409 24.9756 177.999 24.9146C178.511 24.8611 179.852 25.6933 179.743 26.2609C179.282 26.9862 178.414 25.7111 177.908 26.0114H177.905Z" fill="#D9D9D9"/>
<path d="M181.413 26.5436C181.041 26.938 179.764 25.0827 179.55 24.7773C179.374 24.5279 179.209 24.4974 179.55 24.2149C180.479 23.5481 181.749 26.1873 181.413 26.5436Z" fill="#D9D9D9"/>
<path d="M175.828 16.8647C175.502 17.2032 173.975 15.7474 174.342 15.1901C174.667 14.8516 176.194 16.3073 175.828 16.8647Z" fill="#E4CFC6"/>
<path d="M174.34 17.6073C174.149 17.8058 172.767 16.9863 172.854 16.5868C173.037 15.7469 174.869 17.0525 174.34 17.6073Z" fill="#E4CFC6"/>
<path d="M151.441 109.384C151.456 108.89 151.711 108.409 151.627 107.895L150.421 108.638C149.336 107.435 149.542 106.595 150.634 105.49C152.444 106.129 154.177 107.089 156.086 107.44C156.264 107.473 157.643 107.75 157.396 107.246L150.795 103.981C150.059 103.068 150.309 102.09 151.187 101.408C155.559 103.538 160.145 105.411 164.993 106.167C167.976 106.633 171.071 106.809 173.967 105.849C173.796 108.552 172.73 110.911 171.328 113.166C167.772 118.877 162.563 125.39 158.328 130.696C157.574 131.64 156.233 132.839 155.64 133.78C155.287 134.343 155.36 134.951 155.167 135.633C154.666 136.343 153.561 135.094 154.05 134.516C154.233 134.18 154.246 134.104 154.088 134.292C154.223 133.938 151.222 131.246 151.204 131.449C151.634 131.925 151.652 132.266 151.258 132.467C151.523 132.569 151.578 132.783 151.428 133.111C151.866 134.025 152.454 134.839 153.197 135.559L153.118 136.005C152.833 136.504 153.07 136.867 153.118 137.308C152.965 137.506 152.711 137.588 152.347 137.552C151.787 139.481 151.403 141.484 151.189 143.563C150.339 146.202 149.759 148.875 149.448 151.58C150.054 153.321 150.041 154.947 149.408 156.456C149.285 158.897 149.097 161.35 148.843 163.819L148.463 164.486C146.42 164.615 138.523 164.343 137.568 162.246C137.627 160.839 137.886 159.355 138.085 157.922C138.187 157.179 138.551 156.81 138.401 155.838C137.925 152.776 138.174 150.623 138.411 147.544L138.553 147.238C139.538 140.799 140.89 134.218 142.613 127.494C144.229 123.682 146.155 120.015 148.395 116.495C149.71 114.204 150.812 111.848 151.444 109.379L151.441 109.384Z" fill="#323232"/>
<path d="M151.442 109.384C151.392 111.046 151.356 111.199 150.671 112.802C148.625 117.592 144.82 122.522 143.062 127.344C142.069 130.067 141.624 133.712 140.965 136.603C140.138 140.232 139.336 143.144 138.779 146.897C138.728 147.246 139.013 147.653 138.412 147.546C138.959 140.487 139.664 130.383 142.848 124.15C145.413 119.127 148.75 114.345 151.442 109.382V109.384Z" fill="#515151"/>
<path d="M153.117 137.308C153.424 140.115 151.455 145.638 151.093 148.967C150.854 151.158 151.327 154.08 150.546 155.866C150.297 156.434 149.635 157.134 149.582 157.709C149.531 158.256 149.795 159.175 149.772 159.933C149.752 160.582 149.302 164.226 148.983 164.453C148.818 164.545 148.635 164.476 148.462 164.486C148.441 162.453 148.805 160.445 149.019 158.434C149.09 157.77 148.945 157.07 149.037 156.406C149.121 155.797 149.569 155.268 149.592 154.711C149.63 153.779 149.111 152.4 149.067 151.499C148.976 149.534 150.368 145.612 150.824 143.485C151.2 141.731 151.31 139.657 151.707 138.039C151.913 137.191 152.297 136.949 153.117 137.308Z" fill="#515151"/>
<path d="M154.049 134.515C154.207 134.655 154.467 135.61 155.166 135.633C155.001 136.21 154.815 136.727 154.329 137.119C154.123 136.457 153.372 136.243 153.12 136.007C152.578 135.495 151.092 133.777 151.061 133.121C151.046 132.826 151.255 132.579 151.26 132.472C152.14 132.179 153.683 133.732 154.052 134.52L154.049 134.515Z" fill="#515151"/>
<path d="M151.254 132.467C151.277 131.923 150.592 131.564 150.696 130.979C151.188 130.5 154.096 133.351 154.338 133.944C154.478 134.285 154.577 134.608 154.046 134.514C154.002 134.475 153.743 134.473 153.585 134.33C152.872 133.699 152.088 132.903 151.254 132.465V132.467Z" fill="black"/>
<path d="M139.898 97.285C140.489 96.7048 141.12 96.5291 141.583 96.0838C141.967 95.7148 142.369 94.4117 142.772 94.4983C144.841 96.9567 147.243 99.1963 150.137 100.637C149.915 101.38 149.063 101.899 149.205 102.869C148.055 102.881 147.388 101.459 146.228 101.566C145.581 102.215 148.849 104.648 149.567 104.747C149.74 104.996 148.511 106.666 148.513 107.208C148.518 108.157 149.376 109 149.735 109.817L147.225 113.453L137.29 118.225C136.857 118.719 137.201 119.442 137.29 119.994C137.015 120.266 134.05 117.617 133.195 118.134C133.113 118.485 133.393 118.574 133.566 118.785C134.572 120.012 136.208 120.961 137.376 122.048L140.043 126.631C138.282 132.474 137.857 138.689 137.287 144.754C134.2 140.875 131.528 136.681 128.616 132.67C128.09 131.945 126.703 130.566 126.407 129.853C126.191 129.329 126.163 128.402 125.937 127.718C125.201 125.501 123.679 123.376 122.206 121.582C121.613 120.862 118.945 118.327 118.77 117.945C118.472 117.291 118.77 117.085 118.859 116.645C121.193 113.214 124.063 110.224 127.469 107.674C131.721 104.355 136.03 100.912 139.893 97.285H139.898Z" fill="#323232"/>
<path d="M139.898 97.2858C139.463 97.7133 139.328 98.146 139.074 98.4106C134.877 102.75 129.161 106.466 124.631 110.593C122.577 112.467 120.699 114.569 118.861 116.645C119.671 112.696 128.222 105.786 131.54 103.167C134.18 101.083 137.01 99.0011 139.898 97.2832V97.2858Z" fill="#515151"/>
<path d="M135.988 117.203C135.624 117.519 133.069 116.437 133.384 115.529C133.916 115.198 136.375 116.867 135.988 117.203Z" fill="black"/>
<path d="M194.442 120.369C193.516 119.559 192.823 118.063 191.467 117.949C191.009 118.427 193.503 120.567 193.5 121.578C193.5 122.079 192.597 123.486 191.948 122.988C191.752 122.837 191.844 122.041 191.754 121.659C191.464 120.42 190.719 118.511 189.232 118.506C189.347 119.621 190.159 120.28 190.451 121.473C190.744 122.667 191.205 124.448 189.418 123.715C189.82 122.634 189.538 121.753 189.136 120.743C189.008 120.42 187.901 118.144 187.372 118.692C187.367 119.621 187.998 120.374 188.214 121.29C188.359 121.909 188.728 123.843 187.657 123.723C187.003 123.649 186.173 121.097 185.792 120.361C185.468 119.735 183.86 116.773 183.46 116.551C181.753 115.605 179.831 118.722 178.556 118.297C178.322 118.218 178.274 118.071 178.238 117.847C178.098 116.941 180.602 114.263 181.195 113.352C181.608 112.716 181.865 111.945 182.341 111.334L182.351 102.022C181.882 97.9526 181.969 93.8552 181.631 89.773L188.209 84.9961C188.777 86.5689 188.973 88.4318 189.054 90.1064C189.319 95.568 188.782 101.419 188.489 106.87C188.431 107.98 188.169 110.349 188.344 111.293C188.558 112.441 192.197 116.577 193.108 117.885C193.612 118.608 194.348 119.498 194.442 120.366V120.369Z" fill="#E4D0C7"/>
<path d="M194.539 120.555C194.659 120.616 194.659 120.679 194.539 120.74V120.555Z" fill="#E4D0C7"/>
<path d="M173.584 79.051C173.996 80.5119 174.628 81.9065 175.182 83.3164C175.676 84.5737 176.623 86.0116 176.572 87.3222C176.559 87.6709 176.356 89.1902 176.216 89.3862C170.988 92.5089 164.079 91.4171 158.604 89.4676C158.062 89.2742 156.082 88.5642 155.779 88.2919C155.26 87.8261 153.604 84.8434 153.084 84.0061C152.919 83.7389 152.797 83.4488 152.738 83.1408C152.423 83.0747 152.008 83.1459 152.028 83.5608C152.084 84.6067 153.672 86.3373 153.957 87.4113L149.229 84.7874L149.241 84.3879C151.316 81.4942 147.653 77.9287 146.633 75.175L146.791 71.9658C154.146 77.5673 164.359 80.8503 173.587 79.051H173.584Z" fill="#F4EDEC"/>
<path d="M189.605 82.0201C188.139 83.3078 186.515 84.2953 184.675 85.0028C182.835 85.7103 178.662 87.021 177.466 84.9443C175.903 82.2313 174.852 78.1695 173.442 75.1919C172.709 73.6445 172.19 72.4051 170.709 71.41C170.48 73.4918 172.299 75.2301 172.77 77.1744C172.935 77.8641 171.093 78.0575 170.52 78.1059C164.206 78.6556 151.537 75.1817 147.272 70.2724C145.954 68.7556 146.86 65.325 146.786 63.3119C146.768 62.8207 146.503 60.1358 146.134 60.0543C145.508 59.9144 145.409 61.2021 145.46 61.6093L145.18 61.8893C143.943 61.5406 138.693 62.808 138.049 61.9045C138.084 61.1232 138.685 60.8051 138.787 59.9653C138.985 58.3237 138.606 56.4863 138.599 54.8422C141.032 57.0563 142.233 59.1229 145.948 58.7488C148.481 58.4943 151.58 55.5955 152.968 53.5723L154.609 53.9133C152.212 62.6222 160.099 64.5819 166.392 60.5761C168.019 59.5428 170.795 57.2803 171.36 55.3996L171.803 55.2392C172.854 56.5066 174.007 57.6112 175.264 58.5528C178.631 59.5352 180.219 61.7264 181.619 64.8211C184.174 69.9009 186.755 75.0774 189.188 80.3506C189.305 80.6051 189.379 80.8799 189.45 81.1573C189.521 81.4347 189.567 81.7274 189.605 82.0175V82.0201Z" fill="#D52B1E"/>
<path d="M189.606 82.0204C187.7 78.2717 186.025 74.4109 184.119 70.6596C182.968 68.3972 180.367 62.7855 178.968 61.1058C177.782 59.6831 175.697 59.3854 174.354 58.459C173.346 57.7642 172.537 56.0616 171.363 55.3999C171.582 54.6746 171.483 53.8933 171.641 53.168C172.732 53.8144 173.481 55.0385 174.433 55.7766C175.705 56.7615 177.112 57.665 178.421 58.6753C181.732 61.2279 184.246 65.6791 186.165 69.3591C188.002 72.8814 189.478 76.5869 191.206 80.16C191.339 80.6919 190.015 81.6616 189.603 82.023L189.606 82.0204Z" fill="#DD554B"/>
<path d="M173.968 104.172C169.362 106.783 158.749 103.302 154.168 101.167C149.9 99.1791 145.708 96.4661 143.25 92.3534C144.879 91.3965 147.859 89.6863 148.243 87.6478C148.36 87.0268 147.912 86.4898 148.185 85.9248C149.556 86.6349 150.832 87.5103 152.18 88.2585C153.023 88.7243 155.166 89.4929 155.713 89.9382C156.509 90.5872 157.97 93.1984 158.891 94.2062C159.276 94.6261 160.004 95.6186 160.561 95.3285L157.583 90.7679C162.961 92.4731 169.196 93.7481 174.711 91.8826L175.072 92.0786L174.416 102.915C174.401 103.366 174.22 103.801 173.968 104.17V104.172Z" fill="#D52B1E"/>
<path d="M173.967 104.172L174.713 91.8851C174.853 91.8368 176.148 91.0682 176.199 91.1394C176.156 93.0303 175.947 94.9238 175.82 96.8097C175.759 97.7157 175.917 98.7108 175.825 99.6091C175.708 100.787 175.001 103.584 173.965 104.172H173.967Z" fill="#DD554B"/>
<path d="M164.472 98.0281C164.115 98.0917 163.968 97.9721 163.716 97.7634C163.388 97.4885 160.318 93.5184 160.237 93.2384C160.145 92.9203 160.191 92.5844 160.191 92.2611C160.578 92.1772 160.614 92.4622 160.789 92.6836C161.285 93.3097 164.958 97.542 164.469 98.0306L164.472 98.0281Z" fill="black"/>
<path d="M162.049 25.9905C162.182 27.4462 161.108 28.4871 160.006 29.2506C161.064 31.1517 163.004 30.8539 164.533 29.6781C164.917 29.3829 165.885 28.0366 166.147 28.2224C166.702 30.1439 167.753 31.7294 169.221 33.063C169.875 33.656 170.598 33.5771 170.791 34.8419C171.043 36.4885 168.562 41.2044 170.056 42.0926C171.809 43.136 173.138 40.1202 174.28 39.4229C176.044 38.3438 179.808 39.0106 180.399 41.2476C181.419 45.116 176.143 48.0936 172.845 46.5666C171.501 45.9457 171.074 44.8564 170.147 44.0522C169.913 43.8486 169.834 43.8079 169.504 43.8588C169.127 44.7215 170.259 45.8057 170.244 46.3758C170.231 46.8568 168.788 47.9817 168.615 48.8317C168.435 49.7173 168.468 52.9647 168.842 53.7333C169.239 54.5503 170.028 54.5579 169.549 55.7235C169.061 56.9069 165.806 59.2687 164.602 59.8973C159.657 62.483 154.323 61.1723 155.73 54.6546L156.949 57.6297C157.018 57.7798 156.987 58.159 157.308 58.0038C157.873 57.7289 157.407 56.5608 157.629 56.1816C157.753 55.9704 161.212 53.8249 161.744 53.5043C162.543 53.0207 163.39 52.924 164.195 52.2318C164.582 51.8984 166.503 49.6283 166.152 49.2592C164.752 49.8471 163.734 50.9746 162.309 51.6515C156.198 54.5528 149.566 51.7101 148.182 44.9837C147.482 41.5861 148.843 33.9385 149.426 30.205C149.846 27.4996 150.271 24.6467 151.442 22.1577C151.796 21.9338 152.791 22.8296 153.183 23.0408C155.967 24.5475 158.932 25.4458 162.054 25.9905H162.049Z" fill="#E4D0C7"/>
<path d="M165.915 36.9237C165.167 37.6771 163.645 36.0152 162.925 35.6334C162.5 35.4095 161.774 35.0913 161.316 35.0074C160.555 34.8674 158.232 35.2008 158.54 33.9359C158.746 33.0961 160.876 33.0248 161.563 33.0859C163.266 33.2361 166.824 34.7554 165.912 36.9263L165.915 36.9237Z" fill="black"/>
<path d="M153.726 32.8182C153.39 32.5459 152.817 31.5636 152.443 31.22C151.545 30.3929 150.977 30.2682 149.786 30.062C149.534 27.9421 151.667 28.1507 152.99 28.9982C153.856 29.553 155.09 31.3676 154.991 32.4136C154.914 33.2178 154.268 33.2636 153.726 32.8208V32.8182Z" fill="black"/>
<path d="M163.719 40.6823C162.831 40.7663 162.167 40.0613 161.319 39.8424C160.614 39.6592 158.123 39.817 158.4 38.827C158.596 38.1297 159.469 38.5292 159.342 37.5214L159.563 37.3636C161.398 37.2389 164.625 38.3918 163.719 40.6823Z" fill="black"/>
<path d="M178.603 42.5404C178.133 42.8763 177.005 41.7336 176.758 41.9958C176.773 42.8203 176.539 45.0345 175.453 44.6934L175.638 42.1815L173.406 43.1105C173.119 40.8353 178.12 39.5322 178.728 41.8023C178.774 41.9754 178.69 42.4768 178.603 42.5378V42.5404Z" fill="black"/>
<path d="M150.142 33.6224C150.709 33.0217 154.522 35.442 153.033 36.8061C152.529 37.2337 151.238 36.0655 150.643 35.8136C150.114 35.5896 149.083 35.8034 149.414 34.8541C149.508 34.5844 149.923 34.5564 150.045 34.3579C150.193 34.1186 150.101 33.6656 150.144 33.6224H150.142Z" fill="black"/>
<path d="M154.918 38.031C154.037 38.3797 152.207 40.9934 151.525 41.0697C151.212 41.1054 151.06 41.0265 150.879 40.7796C150.909 40.4284 151.144 40.2019 151.342 39.9423C151.566 39.6496 154.231 37.1454 154.419 37.0512C154.946 36.7865 155.378 37.6569 154.918 38.0285V38.031Z" fill="black"/>
<path d="M160.006 43.4845C160.978 47.928 155.514 51.7709 152.183 48.2359C150.86 46.8337 151.015 45.8411 151.089 44.136C151.104 43.8077 150.679 43.062 151.183 42.9398C151.389 42.8889 154.104 43.4412 154.702 43.4845C156.464 43.6143 158.245 43.4717 160.006 43.4845Z" fill="black"/>
<path d="M159.072 44.6012C159.141 45.0084 158.904 45.0491 158.598 45.1509C156.888 45.721 153.885 45.7388 152.557 44.418C154.707 44.7285 156.929 45.1229 159.072 44.6038V44.6012Z" fill="#D9D9D9"/>
<path d="M157.773 47.0252C157.513 48.0788 154.05 48.6997 153.864 47.8574C153.686 47.0506 157.233 46.9132 157.773 47.0252Z" fill="#DD554B"/>
</svg>
