<svg width="308" height="200" viewBox="0 0 308 200" fill="none" xmlns="http://www.w3.org/2000/svg">
<path d="M206.745 68.5536C206.659 67.9308 205.774 67.3432 205.731 66.8851C205.678 66.3191 206.34 65.5917 206.251 64.7961C206.153 63.9312 205.574 63.3754 205.483 62.9412C205.417 62.623 205.678 61.6171 205.615 61.0158C205.473 59.661 204.45 59.6917 203.969 58.8313C203.655 58.2687 203.958 57.2913 203.632 56.6207C202.657 54.618 200.732 54.9863 198.909 55.3738L198.873 54.9601C197.994 55.1136 197.101 55.2056 196.229 55.3068C195.413 55.4625 194.58 55.6614 193.743 55.8273L194.163 57.9903C191.272 57.8595 189.639 59.0189 188.847 61.7535C188.295 63.6629 187.987 66.0054 188.556 67.9319C188.705 68.4354 189.38 69.4527 189.181 69.7664L178.541 79.741C177.811 78.8908 177.022 78.0805 176.393 77.1485C175.789 76.2551 175.441 75.1163 174.934 74.3536C174.499 73.6989 173.575 73.4489 172.99 72.6999C172.265 71.7713 171.675 70.3244 171.002 69.2901C169.391 66.8158 167.652 64.5154 164.718 63.5504C164.718 63.1481 165.198 63.5527 165.289 63.5527C166.739 63.5527 168.464 63.6766 169.87 63.5527C172.836 63.2913 176.745 61.5546 178.851 59.4474C183.569 54.7249 182.76 46.7733 183.776 40.6528C183.824 41.3598 183.909 42.0838 184.033 42.8123C184.138 42.0918 184.267 41.37 184.412 40.6472C184.643 39.4924 184.911 38.3467 185.155 37.1942C185.394 36.052 185.556 34.8972 185.8 33.7561C186.113 32.2967 186.534 30.8339 187.17 29.4791C187.504 28.7665 187.915 28.0959 188.282 27.4015C187.936 27.3389 187.59 27.2128 187.245 27.0184C179.087 25.359 170.397 26.1489 162.254 27.5162C154.99 28.7358 147.301 30.6521 140.519 33.5685C137.202 34.9949 133.369 36.7714 131.18 39.672C130.096 39.8936 129.261 41.2632 128.889 42.2884C128.875 43.3693 128.954 44.1421 129.708 44.9866C132.25 47.8349 138.416 48.5953 142.06 48.9931C143.119 49.109 144.304 48.5885 144.43 50.1388C143.513 49.9842 142.637 49.633 141.711 49.5057C140.455 49.3329 139.089 49.2488 137.863 49.5511C138.11 49.7421 138.316 49.9876 138.468 50.2649C140.539 50.3854 142.518 50.715 144.404 51.2549L144.593 51.1208L145.141 52.5869C143.036 51.955 140.785 51.5197 139.153 53.3246L136.468 55.8614C135.882 55.5477 135.462 55.225 135.209 54.8942C135.171 54.9419 135.135 54.9897 135.097 55.0374C134.985 55.1818 134.871 55.3238 134.755 55.4659C134.653 55.5909 134.534 55.6932 134.405 55.7796C135.314 56.5854 135.356 57.0003 134.531 57.0242C134.388 57.0162 134.246 57.0139 134.103 57.0128C134.237 57.2856 134.32 57.6015 134.337 57.9618C134.343 58.0914 134.331 58.2244 134.306 58.3562C134.821 58.4415 135.308 58.4858 135.759 58.4824L136.083 59.0052C142.277 62.2104 143.111 70.1585 142.229 76.3188C140.451 76.0778 139.294 76.6222 137.892 77.6508C135.226 79.6092 132.898 82.2665 130.819 84.7533C130.495 85.0488 130.11 85.2807 129.705 85.4694C129.168 85.4137 128.411 85.3148 127.921 85.0886C129.383 83.935 130.868 82.7904 132.379 81.6561L132.485 81.38C133.755 82.0221 134.756 79.4489 132.78 80.3354C130.717 81.7039 128.676 83.0939 126.655 84.5056C122.441 83.8929 118.217 83.3985 113.981 83.0223L112.852 82.0562L112.526 82.1972L112.57 81.7891C111.877 80.9901 107.726 77.2064 106.975 77.1189L106.473 77.2905C106.413 77.1121 106.252 77.003 106.062 76.9552C105.996 77.0348 105.967 77.0712 106.057 76.9541C106.057 76.9541 106.054 76.9541 106.053 76.9541C105.8 77.2644 105.511 77.5144 105.196 77.6861L106.749 78.7908C105.78 80.0581 105.716 80.0672 105.026 78.6351C104.961 78.3464 104.871 78.093 104.76 77.8679C104.343 77.9895 103.89 77.9759 103.422 77.7975C103.866 79.0306 104.844 80.5196 105.137 81.2743C103.245 83.9168 101.549 86.5537 101.892 89.9657C101.983 90.8727 102.751 92.1195 102.704 92.7276C102.627 93.6994 101.367 96.4828 101.051 97.7967C100.738 99.0924 100.457 100.496 100.418 101.825L100.778 101.658C101.223 99.0606 101.975 96.6079 103.036 94.3017C103.273 94.2085 103.491 94.1529 103.691 94.1347C106.398 97.0079 110.682 96.9829 114.334 96.8863L114.651 96.592C115.251 96.4306 116.335 96.3931 117.02 96.4203C118.761 96.7511 119.728 96.8022 121.542 96.3783C123.779 95.652 126.051 95.1394 128.359 94.8393C128.115 94.8734 128.061 95.0269 128.068 95.2838C128.061 95.6281 128.202 95.7498 128.531 95.7145L131.904 95.1349L128.522 98.723C128.446 98.931 128.422 99.1424 128.452 99.3561C129.647 98.5889 130.848 97.8286 132.066 97.0966C133.244 96.3885 134.784 96.542 135.845 97.3626C136.426 97.8115 136.867 98.4139 137.065 99.1299C137.206 99.6403 137.266 100.436 137.065 100.939C136.583 102.148 135.988 103.117 135.089 104.074C134.988 104.182 134.884 104.287 134.779 104.39C134.829 104.393 134.879 104.395 134.929 104.399C141.803 105.186 149.232 105.815 156.196 105.588C156.196 105.583 156.196 105.58 156.197 105.576C156.514 102.834 156.683 100.081 156.926 97.333C157.196 94.3006 157.545 91.2591 158.178 88.2779C158.36 87.4243 158.571 86.5787 158.794 85.7353C157.808 84.4658 157.887 82.3461 159.104 81.2617C159.234 81.147 159.362 81.031 159.491 80.9151C158.848 80.6287 158.157 80.1013 157.898 79.5126C157.091 77.677 156.717 75.7618 156.856 73.7512C156.911 72.9556 157.105 72.3134 157.587 71.6895C158.004 71.1496 158.65 70.5972 159.354 70.4699C159.691 70.4085 160.024 70.3506 160.357 70.3006C159.963 67.949 159.385 65.3837 158.684 64.6563C158.579 64.5483 158.459 64.4563 158.334 64.3699C157.978 63.905 157.064 64.3733 157.063 64.945C155.827 63.0446 154.521 61.192 153.145 59.3882C154.923 60.4044 156.883 61.2375 158.779 61.9183L158.81 62.0797C158.365 62.8798 158.37 63.3163 158.825 63.3879L159.188 63.4572C159.753 62.4582 160.614 62.4343 161.769 63.3879L161.657 63.8868C162.551 66.0009 163.217 68.2081 163.725 70.4563C164.202 70.6165 164.66 70.8473 165.07 71.1416C164.613 68.7696 163.978 66.4385 163.282 64.1778C163.788 64.3006 164.156 64.2551 164.387 64.0425L164.52 64.2517C168.21 65.852 171.679 69.7107 171.718 73.8456C173.078 74.249 174.134 74.8867 174.824 76.1858C175.495 77.5838 176.302 78.8874 177.246 80.0933C176.597 80.2968 176.291 80.5616 176.329 80.8878L175.744 80.9219C172.16 83.8577 169.575 88.0631 168.715 92.6253L168.967 93.1549C169.03 93.2959 169.084 93.2981 169.131 93.1549C170.237 93.1038 170.969 93.0094 170.43 91.7115C170.28 89.2451 173.703 84.8317 175.288 82.9587C173.008 85.6546 169.309 92.0797 173.415 94.5507C173.688 94.795 174.19 95.3679 174.202 95.6088C173.819 95.7543 173.476 95.9964 173.17 96.3374C172.253 97.0182 170.467 98.2514 170.214 96.3908C170.148 95.6997 169.951 95.1667 169.622 94.7916C169.71 94.329 169.103 93.9017 168.804 94.3006C168.434 94.9121 168.414 95.6929 168.741 96.6408L166.051 94.3006L165.695 94.4631C165.366 94.7587 165.449 95.0928 165.695 95.444C166.616 96.3681 169.042 98.706 170.353 98.7196C171.462 98.7321 173.391 97.5865 174.281 96.9125C174.618 96.6567 175.146 95.8986 175.463 95.8043C176.044 95.6315 177.114 95.8259 177.841 95.7282C180.235 95.4065 182.18 93.3175 183.775 91.6842C188.215 87.1356 192.054 81.8312 196.429 77.2167C196.942 76.6927 197.843 76.9041 198.435 76.7609C202.005 75.8959 207.331 72.7976 206.744 68.5525L206.745 68.5536ZM146.534 54.9419L145.347 55.367C144.556 54.8476 140.879 54.4941 140.581 53.9031C140.316 53.378 140.544 52.8927 141.117 52.7836C141.563 52.6983 143.397 53.0348 143.943 53.1586C144.825 53.3587 147.015 53.7679 146.534 54.9408V54.9419Z" fill="#EED3CA"/>
<path d="M136.635 186.83C136.604 186.792 136.573 186.755 136.547 186.724C136.491 186.722 136.386 186.692 136.321 186.622C136.254 186.605 136.187 186.589 136.12 186.573C136.112 186.573 136.105 186.573 136.097 186.573C136.011 186.573 135.925 186.568 135.839 186.57C135.749 186.572 135.66 186.578 135.571 186.582C135.542 186.582 135.519 186.585 135.498 186.589C135.486 186.601 135.473 186.61 135.463 186.617C135.862 186.647 136.257 186.714 136.637 186.83H136.635Z" fill="#EED3CA"/>
<path d="M149.992 157.106C148.079 164.337 145.644 171.454 143.948 178.752C142.342 178.995 141.961 180.436 141.567 181.802C141.553 181.848 141.542 181.893 141.529 181.939C142.394 181.735 143.318 181.684 144.222 181.688C146.367 181.698 148.492 181.795 150.622 182.059C151.87 182.214 153.114 182.395 154.356 182.594C154.934 182.686 155.512 182.782 156.089 182.878C156.225 182.9 156.363 182.921 156.499 182.944C157.715 183.085 158.935 183.205 160.151 183.352C159.137 182.249 158.163 181.111 157.221 179.953L163.523 162.046C164.329 158.837 165.532 155.692 165.2 152.307C165.977 151.826 166.362 151.921 166.803 151.122C166.239 150.78 165.762 150.275 165.437 149.688C165.358 149.693 165.28 149.71 165.207 149.744C165.185 149.659 165.157 149.576 165.11 149.508C164.571 148.721 157.166 150.034 152.286 151.299C152.269 151.33 152.253 151.36 152.234 151.39C151.877 151.927 151.537 152.476 151.214 153.036C150.852 154.018 150.068 156.083 150.155 156.123C150.614 156.337 150.468 156.975 149.991 157.103L149.992 157.106Z" fill="#EED3CA"/>
<path d="M120.101 183.671C122.547 183.549 124.994 183.456 127.437 183.296C128.151 183.249 128.865 183.195 129.576 183.127C129.896 183.096 130.215 183.063 130.535 183.026C130.712 183.005 130.889 182.983 131.066 182.962C131.08 182.961 131.105 182.956 131.132 182.953C132.046 182.814 132.95 182.612 133.86 182.447C133.808 182.321 133.783 182.194 133.795 182.065C137.089 173.806 141.138 165.827 143.993 157.405L144.293 155.005L145.575 154.491C145.567 154.575 145.565 154.653 145.566 154.728C145.652 154.578 145.735 154.427 145.819 154.276C145.915 153.932 146.032 153.591 146.167 153.253C145.639 152.741 145.394 151.945 145.512 151.207C140.991 150.42 136.349 150.366 131.796 150.733C129.281 150.935 126.626 151.265 124.254 152.13C124.099 152.717 123.775 153.232 123.343 153.641C126.658 152.153 130.333 151.45 133.877 152.03C137.102 151.812 140.288 151.88 143.435 152.234L143.645 152.522L137.883 153.119C134.913 153.503 131.883 154.215 129.449 156.039C129.404 155.353 129.217 154.892 128.89 154.655L128.699 154.303C127.815 154.126 126.987 154.155 126.109 154.328C125.685 153.977 124.41 154.358 124.146 154.819C125.288 155.092 126.517 155.31 127.684 155.452C128.035 155.495 128.958 155.293 128.888 155.712C126.05 164.2 123.414 172.745 121.012 181.372C120.728 181.837 120.037 181.481 119.479 181.965C119.17 182.233 118.907 182.946 118.691 183.832C119.156 183.742 119.634 183.697 120.103 183.673L120.101 183.671Z" fill="#EED3CA"/>
<path d="M172.35 195.651C169.988 198.019 160.597 197.865 157.264 197.84C154.517 197.819 151.69 197.73 148.922 197.675C148.427 197.665 147.999 197.451 147.457 197.496C146.831 197.549 145.114 198.609 144.259 198.889C137.796 201.002 123.985 199.865 117.559 197.463C116.496 197.066 112.718 195.457 112.851 194.158C113.634 192.832 115.938 192.315 117.375 192.127C118.348 192 119.839 192.383 120.55 191.54C121.123 190.86 120.625 190.762 121.938 190.637C125.374 190.312 127.806 190.806 131.09 190.969C139.569 191.386 149.043 190.109 157.593 189.811C158.86 189.766 161.472 189.72 162.632 190.02C163.028 190.122 163.427 190.692 164.022 190.77C164.543 190.838 164.773 190.552 165.145 190.523C165.949 190.463 168.832 191.433 169.681 191.803C171.043 192.398 174.109 193.884 172.349 195.651H172.35Z" fill="#CCCCCC"/>
<path d="M119.073 101.333C119.213 101.757 119.298 101.759 119.4 101.333L119.787 101.226L123.915 102.262C124.533 101.874 125.148 101.482 125.763 101.087C123.743 100.874 121.62 100.325 119.728 99.6972C119.145 99.6552 118.499 101.057 119.073 101.333Z" fill="#EED3CA"/>
<path d="M164.906 89.3684C164.953 89.3127 165.003 89.2559 165.059 89.2002C165.046 89.082 165.037 88.966 165.028 88.8501C164.987 89.0229 164.945 89.1956 164.906 89.3684Z" fill="#EED3CA"/>
<path d="M161.512 133.597C161.398 133.342 161.282 133.088 161.162 132.836C161.026 132.836 160.889 132.836 160.754 132.836C161.662 135.942 162.595 139.062 163.566 142.152C163.398 140.922 163.278 139.684 163.194 138.442C162.659 136.819 162.146 135.181 161.512 133.599V133.597Z" fill="#EED3CA"/>
<path d="M114.655 96.5898C114.688 96.5148 114.726 96.4444 114.782 96.3932C115.016 96.1795 117.58 97.4309 117.842 97.7685C118.706 98.8903 116.924 108.247 116.354 108.539C116.225 108.605 116.09 108.586 115.964 108.528C115.796 108.697 115.402 108.632 115.111 109.231C114.683 110.113 114.545 112.866 115.134 113.651C115.33 113.911 115.976 113.984 116.291 114.089C116.572 114.048 116.612 114.095 116.656 114.322C116.903 115.574 112.726 121.322 110.565 119.976C109.146 119.478 108.126 119.02 106.802 118.341C106.709 118.292 106.711 118.237 106.802 118.177L106.975 117.988C105.389 117.001 104.023 115.808 102.876 114.415C102.808 114.184 102.549 113.492 102.549 113.352V110.081C102.549 110.023 102.755 109.914 102.642 109.681C102.452 109.29 101.76 108.525 101.404 107.874C101.727 103.865 102.886 99.7643 104.003 95.8204C103.86 95.1396 103.54 94.6326 103.041 94.2985L103.448 93.4824C105.514 95.8829 108.292 96.375 111.304 96.5876C112.359 96.6614 113.663 96.4478 114.656 96.5887L114.655 96.5898Z" fill="#242E5F"/>
<path d="M177.804 16.1182C178.016 16.3762 177.952 16.5274 177.639 16.5955L175.33 16.6331C174.34 16.7149 173.046 16.8263 172.405 17.4275C172.324 17.7617 171.957 18.0458 171.306 18.28L171.997 21.1066L179.312 21.4669C179.554 21.6351 179.801 21.7499 180.094 21.6795C179.978 21.3828 179.951 21.0225 180.014 20.5963L179.649 18.8255C179.528 18.2152 180.076 17.6423 180.422 18.2447L180.885 18.4539C181.317 19.545 181.565 20.6804 181.625 21.8625C182.467 21.9648 183.292 22.1489 184.099 22.4137L184.349 22.824C184.492 22.8706 184.49 22.9252 184.349 22.9877L184.12 23.2741C180.589 22.6944 176.91 22.1557 173.34 22.1341C172.638 22.6012 171.713 22.7876 170.562 22.6933C165.967 22.7285 161.372 23.0286 156.864 23.9685L156.514 24.3391C154.589 24.6823 152.684 25.1222 150.8 25.6586L150.321 25.4404C149.375 25.9758 147.959 26.5554 146.885 26.2588C146.423 25.8712 146.797 25.4245 147.376 25.6041C147.409 25.2427 147.647 25.0244 148.088 24.9506L152.562 23.7253L152.187 21.3453C151.553 21.2555 151.149 21.0396 150.975 20.6975C147.822 20.5577 144.763 22.7763 146.494 26.2872L146.231 26.585L145.538 27.1896C140.052 29.2537 135.095 32.577 131.472 37.2199L130.689 37.7075C130.643 37.3768 130.819 37.1847 130.977 36.9324C131.98 35.3355 133.508 33.9284 134.756 32.519C134.677 31.3154 133.848 30.0061 133.953 28.7945C134.042 27.7806 134.974 27.1555 135.434 26.3383C134.76 23.6503 134.868 21.3931 135.434 18.7346C135.641 18.2209 136.088 18.1879 136.216 18.7812C135.661 20.7054 135.564 22.5433 135.925 24.2959C136.287 24.2891 136.461 24.655 136.446 25.3938C138.08 24.8596 139.485 24.3436 140.791 23.1468C142.166 22.4694 143.661 22.0716 145.276 21.9534C147.145 19.753 149.862 19.2836 152.566 19.7052C154.715 17.9038 158.165 16.7217 160.658 18.4323C163.185 16.0409 167.365 15.1009 170.485 16.9161C171.722 16.1261 176.764 14.9441 177.627 15.8602C177.698 15.9352 177.755 16.025 177.806 16.1182H177.804Z" fill="#EED3CA"/>
<path d="M135.759 58.4797C135.61 59.0662 135.102 59.4787 134.235 59.7174C132.63 60.3028 131.067 60.9438 129.52 61.7962C121.551 66.1902 114.896 71.2492 107.673 76.7491C107.505 76.8775 107.309 76.9719 107.108 77.0616C106.907 77.1514 106.691 77.2242 106.475 77.2878C106.103 77.2139 105.568 77.339 105.166 77.2878C104.899 77.7265 104.353 77.5822 104.184 77.1242C104.087 76.6877 103.953 76.2763 104.02 75.816C104.244 75.658 104.444 75.4716 104.675 75.325C109.504 72.2687 114.247 69.084 118.959 65.8084C122.719 63.1942 129.634 57.733 134.374 57.9819C135.199 58.0251 135.237 58.2365 135.758 58.4785L135.759 58.4797Z" fill="#DD554B"/>
<path d="M165.371 0.252595C165.537 0.146893 165.837 0.190084 165.862 0.416263C166.02 0.426492 166.195 0.426492 166.353 0.416263C169.847 1.04707 173.476 2.05521 176.806 3.15883C181.94 4.8603 183.655 8.31436 184.185 13.5017C184.183 13.6097 184.194 13.7211 184.185 13.8291C184.356 13.9677 184.411 14.2394 184.348 14.6474C184.338 14.7542 184.355 14.8668 184.348 14.9747C184.51 14.9941 184.564 15.1577 184.512 15.4657C184.492 15.7351 184.535 16.0147 184.512 16.2841C184.854 16.6876 184.847 18.2719 184.021 17.5923C183.942 18.1026 183.414 18.0458 183.203 17.5923C182.702 17.3513 182.145 17.2593 181.53 17.3138L181.404 17.1013C181.482 16.7603 181.822 16.6125 182.422 16.658C181.865 12.3708 180.633 7.68129 176.148 5.93664C172.633 4.5807 169.115 3.20202 165.593 1.80176C164.824 1.72106 164.205 1.4767 163.735 1.07207C163.014 0.827708 163.138 0.324201 163.899 0.253733C164.342 0.267372 164.955 0.307152 165.371 0.253733V0.252595Z" fill="#835840"/>
<path d="M157.517 1.39776L157.219 1.82625C152.667 3.49134 148.533 6.451 144.794 9.50045C140.384 13.0977 137.415 16.2472 137.281 22.2961C137.211 22.7768 136.83 24.5135 136.258 24.5465C136.124 24.5545 136.01 24.4158 135.922 24.2942C135.907 24.276 135.648 24.2885 135.524 24.1271C135.22 23.7339 135.381 22.1688 135.433 21.5959C135.524 20.5923 135.808 19.5649 135.92 18.5692L135.432 18.7329C135.834 16.8428 136.599 14.1945 138.049 12.8443C142.584 7.63531 148.286 3.94256 154.68 1.42617C155.328 1.17158 157.448 0.438482 157.517 1.39548V1.39776Z" fill="#835840"/>
<path d="M128.889 154.654C128.368 154.42 128.483 153.722 129.052 153.673C128.698 153.397 129.269 153.293 129.242 153.314C129.066 153.44 128.865 153.584 128.725 153.347C128.118 154.049 127.246 154.376 126.107 154.328C125.48 154.542 124.819 154.787 124.145 154.819C123.727 154.719 122.815 154.574 122.512 154.404C122.192 154.223 122.265 153.942 122.182 153.838C123.577 153.123 125.199 152.465 126.728 152.085C127.77 151.827 130.93 151.38 131.922 151.464C132.833 151.542 132.938 151.72 134.2 151.704C136.711 151.672 139.953 151.489 142.383 151.713C142.656 151.738 143.417 151.849 143.607 151.962C143.83 152.095 144.345 152.939 143.865 152.995C143.787 153.005 143.56 152.832 143.373 152.855C138.648 153.43 133.374 153.413 129.443 156.439C129.03 156.503 128.907 155.045 128.89 154.655L128.889 154.654Z" fill="black"/>
<path d="M159.317 105.421C160.039 106.25 159.429 109.295 159.333 110.381C159.445 110.735 160.484 110.812 160.596 111.588C160.448 112.592 160.119 113.816 160.122 114.825C160.13 117.834 160.758 121.396 161.118 124.393C161.167 124.798 161.099 125.279 161.118 125.702C160.722 126.11 160.311 126.178 159.809 126.356C158.99 125.934 158.598 124.973 158.632 123.475L158.323 117.951C158.04 116.12 157.839 114.451 158.322 112.661C157.241 112.806 151.081 112.763 150.961 111.907C150.949 111.819 150.958 111.729 150.974 111.637C150.814 111.257 151.365 111.101 151.706 111.041L156.409 110.839C156.832 110.852 157.059 110.743 157.355 110.492L157.106 110.196C157.24 109.517 158.183 105.73 158.55 105.488C158.754 105.353 159.084 105.36 159.317 105.421Z" fill="#DD554B"/>
<path d="M184.346 22.9875C185.113 23.0648 185.861 23.2137 186.59 23.433L186.636 23.8047C186.928 23.3989 187.209 23.474 187.291 23.9684C188.225 24.4094 189.503 25.4755 190.4 26.0949C190.586 27.56 190.004 27.1178 189.254 27.4031L188.726 27.5316C184.021 25.172 178.838 23.5967 173.478 23.408C168.269 23.2239 163.075 23.6422 157.899 24.1934C157.539 24.1855 157.193 24.1105 156.861 23.9695C158.904 23.3137 161.209 22.9227 163.343 22.6806C166.414 22.3328 169.908 22.5511 172.822 22.1828C173.135 22.143 172.978 21.8691 173.292 21.8305C174.956 21.6202 182.461 22.5817 184.346 22.9886V22.9875Z" fill="#835840"/>
<path d="M166.842 149.091C167.035 150.029 167.345 150.093 166.842 151.054C166.326 150.776 165.783 149.861 165.207 149.746C164.051 148.759 163.302 147.219 162.774 145.612C161.197 140.822 159.756 135.959 158.361 131.144L158.524 130.648C159.423 129.846 159.796 128.92 159.64 127.869L159.972 127.664C160.399 127.871 160.763 127.756 160.917 128.435C161.136 129.391 160.663 129.949 160.49 130.814C162.261 135.829 163.43 141.085 165.163 146.109C165.573 147.299 165.901 148.184 166.842 149.091Z" fill="#4D50A8"/>
<path d="M132.161 52.9194L133.608 53.4332L133.633 54.7186L133.255 55.2051L127.772 56.9804C123.728 58.516 120.431 61.8564 117.563 64.9842L117.11 65.0229L115.685 66.2845L115.475 66.1686C116.217 64.6637 117.326 63.1146 118.351 61.7666C121.911 57.0895 126.356 54.1413 132.162 52.9206L132.161 52.9194Z" fill="#50587F"/>
<path d="M150.32 25.4401C150.803 25.4947 150.678 25.8822 150.306 26.0925L142.538 29.9194C138.025 32.1948 134.298 35.7739 131.179 39.669C130.353 40.4748 129.663 41.4329 128.889 42.2854C128.913 40.5078 129.654 39.1029 130.688 37.7061C134.662 32.3391 139.986 28.8169 146.229 26.5846C146.208 26.1198 146.568 25.8856 146.884 26.2573C148.014 25.8845 149.187 25.714 150.32 25.439V25.4401Z" fill="#835840"/>
<path d="M103.039 94.2997C104.185 94.1702 103.897 95.0635 104.312 95.8239C103.274 99.6098 102.24 103.412 101.722 107.302C101.682 107.607 101.932 107.966 101.403 107.875C100.253 105.771 100.063 104.263 100.421 101.824C100.581 100.736 101.994 94.9601 102.624 94.4509C102.761 94.3407 102.872 94.3191 103.039 94.3009V94.2997Z" fill="#50587F"/>
<path d="M116.291 114.088C116.745 112.93 117.338 113.334 117.278 114.49C117.158 116.8 116.071 119.13 115.636 121.285C113.862 121.076 112.228 120.56 110.564 119.977C113.441 119.883 115.245 116.982 116.262 114.611C116.403 114.282 116.28 114.113 116.291 114.09V114.088Z" fill="black"/>
<path d="M137.069 49.811C139.069 50.1941 141.165 50.077 143.155 50.5146C143.826 50.6623 144.039 50.7374 144.594 51.1204C144.955 51.2193 144.632 51.8387 144.436 51.9239C143.771 52.2126 140.592 52.174 139.776 51.9626C138.747 51.1567 137.403 51.3602 136.3 51.9069L135.923 51.7762L135.827 51.65L134.941 51.7762C135.694 50.9294 135.896 50.3111 137.068 49.8133L137.069 49.811Z" fill="#717171"/>
<path d="M165.208 85.957C165.655 86.1991 165.905 87.813 165.372 88.0017C165.915 88.1585 165.873 90.201 165.372 90.4556L165.707 90.7931C165.785 91.2034 166.072 93.9176 166.015 94.0722C165.954 94.2381 165.852 94.3688 165.699 94.4632C165.702 94.7905 165.697 95.1178 165.699 95.444C165.21 94.953 164.008 93.9835 163.9 93.3175C163.809 92.7617 164.032 90.1237 164.262 89.6668C164.382 89.4315 164.682 89.4247 164.72 89.2769C164.883 88.6564 164.636 87.3277 164.734 86.5412C164.768 86.2673 164.804 85.8661 165.208 85.957Z" fill="black"/>
<path d="M184.51 16.2816C185.163 16.1713 184.674 17.0931 184.864 17.4011C184.907 17.4704 185.987 17.891 186.299 18.1728C187.569 19.3151 187.142 22.368 187.291 23.9694C187.113 23.8853 186.831 23.8853 186.637 23.8057L186.413 23.4954C186.939 21.6144 186.478 18.8968 184.309 18.3217C183.949 18.141 183.763 17.9546 184.019 17.5909C184.776 17.4704 184.461 16.8703 184.51 16.2827V16.2816Z" fill="#EED3CA"/>
<path d="M106.802 118.178V118.341C105.36 117.6 104.934 117.556 103.857 116.215L106.802 118.178Z" fill="#50587F"/>
<path d="M147.21 150.89C147.162 151.103 147.313 151.863 147.126 151.874C143.158 150.951 138.928 150.741 134.852 150.884C132.297 150.974 129.238 151.22 126.73 151.761C125.281 152.073 123.925 152.616 122.509 153.018C120.419 145.561 118.352 137.974 117.765 130.2C117.656 128.754 117.551 127.297 117.765 125.868L124.307 127.996C124.54 128.225 124.295 128.294 124.065 128.321C122.803 128.469 121.442 128.453 120.25 128.934C120.004 129.034 119.807 128.836 119.891 129.301C121.621 129.471 123.335 129.056 125.046 128.976C133.838 128.564 142.834 129.753 151.709 128.808C154.309 128.532 157.057 128.042 159.576 127.343C159.889 127.351 159.924 127.641 159.973 127.665C159.944 128.21 160.057 128.771 159.898 129.309C159.674 130.07 158.532 130.58 158.693 131.465C160.514 136.445 161.586 141.959 163.61 146.845C164.109 148.049 164.443 148.48 165.289 149.419C165.508 149.662 165.75 149.78 165.207 149.747C164.608 149.626 162.884 149.709 162.182 149.748C157.217 150.022 152.362 151.603 147.703 153.18C147.684 152.826 147.974 152.636 148.022 152.273C148.36 149.706 146.333 137.709 145.412 135.026C144.962 134.999 144.429 133.198 144.782 132.843C144.627 132.719 145.306 133.558 145.244 133.682L144.831 134.364L144.14 135.949C144.389 140.4 145.154 145.433 146.369 149.782C146.528 150.35 146.682 150.644 147.211 150.89H147.21Z" fill="#212492"/>
<path d="M159.675 105.087C159.332 105.097 158.946 106.45 158.791 106.728C158.289 107.634 157.769 109.261 157.354 110.49C157.175 110.78 156.763 110.904 156.119 110.863L147.295 111.215C148.42 111.321 149.554 111.376 150.68 111.326L150.974 111.636C151.226 111.887 151.644 111.942 151.983 112.017C153.131 112.272 154.94 112.445 156.12 112.46C156.602 112.465 158.271 111.988 158.593 112.443C158.826 113.028 158.418 113.611 158.354 114.187C158.214 115.454 158.583 116.831 158.662 118.098C158.795 120.266 158.75 123.553 159.35 125.587C159.425 125.843 159.838 126.002 159.808 126.357C155.777 127.786 150.238 128.481 145.981 128.658C137.753 129 125.181 128.815 117.757 124.973C117.276 124.724 116.311 124.211 116.277 123.664C116.597 120.233 116.939 116.712 118.015 113.442C123.063 110.798 127.666 107.443 132.33 104.201C134.692 103.734 137.195 104.423 139.606 104.602C145.3 105.026 151.089 105.449 156.775 105.251C157.277 105.234 159.436 104.814 159.674 105.089L159.675 105.087Z" fill="#D52B1E"/>
<path d="M135.76 58.479C142.707 61.7069 143.318 69.8789 142.632 76.6347C141.924 76.6757 141.161 76.5552 140.462 76.6723C138.224 77.0496 133.996 81.5993 132.405 83.3372C131.669 84.1407 130.915 85.7229 129.708 85.466L129.623 85.067C130.642 83.8895 131.587 82.6382 132.489 81.3766C132.835 81.1527 133.648 81.022 133.634 80.3957C133.222 80.0002 127.534 84.5578 126.691 84.8204C122.413 84.4885 118.218 83.4667 113.925 83.336C113.634 83.2815 112.815 82.4609 112.532 82.1949C111.402 81.1356 107.828 77.5554 106.479 77.2883C108.469 75.7028 110.427 74.0843 112.48 72.5749C118.066 68.4661 125.121 63.4879 131.338 60.5158C132.807 59.8133 134.488 59.4872 135.763 58.479H135.76Z" fill="#D52B1E"/>
<path d="M159.479 104.273C153.012 104.769 146.541 104.077 140.092 103.622C138.383 103.501 136.635 103.567 134.941 103.212C138.378 100.151 141.553 96.8218 144.423 93.2268C145.635 91.7083 146.587 89.9353 148.033 88.6566C152.065 88.4782 156.117 88.9794 160.146 88.9703L160.277 89.1669L160.143 98.787L159.48 104.272L159.479 104.273Z" fill="#F7F0EF"/>
<path d="M120.166 182.488C121.65 182.029 121.829 184.684 123.572 184.759C124.603 184.804 126.946 183.437 128.145 183.108C130.117 182.566 132.482 182.229 134.037 183.77C134.203 183.934 134.394 183.98 134.124 184.18C133.126 184.192 129.857 184.592 129.213 185.321C128.913 185.661 128.938 186.283 129.485 186.087C131.826 185.245 134.571 184.134 136.66 186.221L136.498 186.543C136.306 186.412 136.083 186.354 135.851 186.374C135.179 186.432 131.135 186.96 131.342 187.936C131.46 188.495 132.914 187.704 133.304 187.611C134.417 187.342 136.9 187.123 137.894 187.603C138.359 187.827 141.384 190.809 141.719 191.304C141.992 191.707 142.61 193.563 142.395 193.911C137.308 195.997 131.361 194.737 126.201 193.406C124.77 193.038 123.294 192.616 121.891 192.154C121.342 191.973 118.904 191.245 118.771 190.858C118.803 189.365 118.893 187.813 119.093 186.325C119.187 185.624 119.522 182.691 120.167 182.491L120.166 182.488Z" fill="#404040"/>
<path d="M189.257 27.4032C189.085 27.4691 188.842 27.8328 188.52 27.8317C188.31 27.8317 187.409 27.3771 186.999 27.2884C180.46 25.862 172.746 26.4087 166.131 27.2634C156.272 28.5364 138.38 32.6417 131.18 39.6703C131.177 39.1532 131.689 38.669 132.001 38.2837C137.755 31.2028 142.106 29.7934 149.891 25.9018C150.128 25.7836 150.406 25.8279 150.321 25.4403C152.271 24.9687 154.947 24.1617 156.865 23.9685C163.201 23.3297 170.144 22.6068 176.578 23.3149C179.026 23.5843 181.918 24.522 184.314 25.2312C185.956 25.7177 187.632 26.7963 189.258 27.4032H189.257Z" fill="#5A321B"/>
<path d="M155.308 182.293C154.778 182.364 152.279 183.277 152.275 183.843L152.533 184.254C153.269 184.053 153.805 183.563 154.57 183.352C156.147 182.916 159.25 182.737 159.971 184.581C159.19 184.389 155.216 185.224 154.921 185.746C154.673 186.183 155.091 186.42 155.555 186.307C157.257 185.895 158.918 184.919 160.822 185.613C161.233 185.763 165.102 188.934 165.54 189.401C166.316 190.228 166.848 191.43 166.661 192.579C163.308 193.069 159.831 192.633 156.506 192.055C151.375 191.16 146.318 189.626 141.479 187.746C141.482 186.492 142.337 179.947 143.541 179.682C144.124 179.555 144.252 182.035 145.829 182.285C147.084 182.484 148.031 181.582 149.131 181.187C150.816 180.582 154.974 179.925 156.579 180.694C156.978 180.884 157.892 181.831 158.007 182.292C157.155 182.372 156.132 182.18 155.307 182.292L155.308 182.293Z" fill="#404040"/>
<path d="M164.388 64.0412C166.352 65.5062 167.748 66.8712 168.914 69.1183C169.253 69.7718 170.025 71.3426 170.102 71.9847C170.126 72.1848 170.044 72.3746 169.951 72.5462C169.798 72.7906 169.417 72.7906 168.805 72.5462L168.518 72.8031C166.799 72.3757 166.958 72.611 168.491 73.4373C171.873 74.7239 173.922 76.1526 175.269 79.5168C175.537 79.9067 175.859 80.2647 176.275 80.4977L176.33 80.8876C172.667 83.5756 169.552 88.6561 168.969 93.1547C169.102 93.3002 168.958 93.6457 168.805 93.8094C169.243 93.9628 169.244 94.1446 168.805 94.3004C168.805 95.3653 168.952 96.236 169.295 97.243C168.948 97.5896 166.201 94.6766 165.697 94.4629C165.685 93.1672 165.369 91.6555 165.369 90.4553V88.0014C165.369 87.4672 165.184 86.6841 165.206 85.9567C165.245 84.6235 165.489 83.2619 165.533 81.8673C165.19 81.1785 165.19 80.633 165.533 80.2318C165.529 76.2946 165.149 72.6508 164.276 68.8125C163.938 67.327 163.096 65.3107 162.916 63.9536C162.854 63.4842 164.039 63.9627 164.387 64.04L164.388 64.0412Z" fill="#D52B1E"/>
<path d="M159.152 69.9279C160.093 75.8586 160.334 81.9268 160.227 87.9302L148.674 87.6847C148.079 86.7664 149.051 86.6027 149.5 86.039C150.603 84.6535 149.524 83.8215 149.688 83.1293C149.757 82.8452 150.368 82.4383 150.47 81.7768C150.656 80.5822 150.002 80.2504 149.987 79.5025C149.968 78.5875 150.567 76.8508 150.644 75.7336C150.746 74.2606 150.692 72.5205 150.483 71.0747C150.584 70.9713 152.138 72.1636 152.446 72.3C154.04 73.0046 155.588 72.9421 157.081 72.0283C157.961 71.4896 158.198 70.8747 158.779 70.1348C158.883 70.0018 158.774 69.8347 159.152 69.9279Z" fill="#D52B1E"/>
<path d="M146.395 60.9341C149.31 65.8362 149.173 71.3384 148.819 76.8099C148.818 77.4384 148.957 77.9555 149.34 78.4352C149.273 78.5886 149.509 79.0466 149.098 78.9228C148.517 78.7477 147.292 77.8112 146.438 77.4918C145.426 77.1133 144.376 76.8303 143.286 76.7985C144.081 73.8468 143.805 70.5939 143.235 67.6104C142.335 62.8992 139.991 60.0066 135.925 57.58C135.796 57.0527 137.547 57.1527 137.958 57.172C139.655 57.2516 143.494 57.954 144.76 59.053C145.383 59.5941 145.804 60.351 146.395 60.9352V60.9341Z" fill="#404040"/>
<path d="M145.574 90.3747C144.459 91.9784 143.244 93.548 141.971 95.0301C140.051 97.2635 137.526 100.052 135.27 101.906C134.189 102.796 133.411 103.858 132.155 102.725C131.765 102.374 129.717 99.7742 129.701 99.4355C129.671 98.7945 132.281 96.352 132.891 95.7666C134.426 94.2925 136.096 92.8138 137.719 91.434C138.229 91.0009 140.089 89.3074 140.51 89.1528C141.252 88.8812 141.977 89.6927 142.735 90.0223C143.761 90.4701 144.446 90.6611 145.574 90.3747Z" fill="#404040"/>
<path d="M161.77 63.3856C161.639 63.622 161.451 63.7288 161.208 63.705C164.055 72.4362 165.502 81.9471 163.406 91.0272C162.804 93.081 162.206 96.1532 160.869 97.849C160.923 92.9844 160.965 81.7709 160.953 81.4572C160.735 75.6254 160.584 69.8323 158.335 64.3665C157.669 64.1755 158.258 63.0628 158.826 63.3856C159.075 63.0549 159.453 62.7389 159.646 62.3149C160.677 62.3502 161.274 62.4525 161.771 63.3856H161.77Z" fill="#404040"/>
<path d="M143.121 47.8505C143.034 48.1949 142.661 48.1892 142.386 48.1903C140.684 48.1972 137.432 47.5777 135.725 47.147C132.259 46.2718 127.827 44.3612 131.501 40.4036C132.86 38.9409 135.801 37.0939 137.613 36.2085C137.97 36.0346 139.19 35.2686 139.19 35.2686C139.19 35.2686 140 38.2259 140.001 38.443C140.001 38.7851 139.526 39.3875 139.395 39.7887C138.309 43.136 139.893 46.5128 143.121 47.8505Z" fill="#371D0E"/>
<path d="M191.383 28.386C189.688 30.2739 189.011 32.3607 188.438 34.7645C188.512 34.7941 188.581 34.8282 188.633 34.8793C188.729 34.9725 188.211 37.14 187.947 37.3809C187.691 42.5706 189.605 49.0809 193.949 52.2349C194.336 52.5157 194.75 52.6555 195.098 52.8805C195.257 52.9839 195.39 52.8623 195.308 53.2453C189.329 54.6604 185.66 47.7932 184.861 42.8377C184.192 38.6835 184.329 36.9729 185.493 33.129C186.226 31.6162 187.631 29.7625 189.155 28.8873C189.693 28.5781 190.879 28.0553 191.382 28.386H191.383Z" fill="#8F2C28"/>
<path d="M203.651 48.6664C203.326 49.8677 201.491 51.6317 200.386 52.1898C196.32 54.2402 192.554 50.7952 190.805 47.3616C188.988 43.7939 188.609 39.6862 188.928 35.7457C188.615 34.9592 189.212 33.6442 189.583 32.8395C192.753 25.9757 199.389 25.3017 202.921 32.4303C205.274 37.1767 205.233 43.1653 204.099 48.2402L203.651 48.6664Z" fill="#8F2C28"/>
<path d="M117.272 108.53C117.364 108.849 117.774 108.539 117.933 108.454C121.94 106.286 125.675 103.362 129.465 100.841L131.826 103.524C128.702 105.744 125.594 108.057 122.331 110.071C121.094 110.835 119.374 111.957 118.099 112.545C117.391 112.873 116.629 113.253 115.824 113.086C115.523 112.899 115.581 110.201 115.785 109.74C115.914 109.447 116.46 109.104 116.783 108.857C116.643 108.398 116.906 108.232 117.274 108.53H117.272Z" fill="#717171"/>
<path d="M157.519 176.408L156.271 179.666C153.911 179.29 151.347 179.538 149.086 180.326C147.77 180.784 145.913 182.464 145.075 180.589C144.146 178.508 145.919 175.59 146.234 173.463C149.792 175.168 153.57 176.134 157.52 176.408H157.519Z" fill="#E5E5E5"/>
<path d="M133.96 179.187L132.876 181.98C131.555 181.7 130.163 181.73 128.851 182.011C127.513 182.297 124.509 184.001 123.569 183.944C122.524 183.88 121.75 182.281 121.892 181.271C122.151 179.435 123.364 177.168 123.656 175.262C123.773 175.174 125.606 176.477 125.94 176.655C128.323 177.925 131.307 178.747 133.96 179.188V179.187Z" fill="#E5E5E5"/>
<path d="M152.282 30.8398C152.292 32.955 152.269 35.1861 151.934 37.2774C151.833 37.9037 151.555 39.5165 151.038 39.8166C149.291 40.8281 149.355 38.1935 148.657 37.1638C147.326 35.1986 144.349 35.5578 142.46 36.4761C141.871 36.7626 141.302 37.3866 140.833 37.6309C140.604 37.7503 140.58 37.7457 140.426 37.5423L139.711 35.4691C139.668 35.2611 139.816 35.21 139.949 35.1145C140.875 34.4428 143.942 33.3994 145.163 32.9641C147.492 32.1333 149.885 31.4502 152.281 30.841L152.282 30.8398Z" fill="black"/>
<path d="M128.07 95.2808C128.424 95.5036 129.025 95.3081 129.434 95.2524C130.233 95.1445 131.361 94.8149 132.083 94.7921C132.328 94.7842 132.554 94.6773 132.486 95.0331L128.801 98.8849C128.546 99.2873 129.182 99.8681 128.981 100.186C128.927 100.27 127.527 101.308 127.371 101.367C127.028 101.498 126.903 101.5 126.543 101.481C124.869 101.392 121.749 100.702 120.11 100.207C119.726 100.091 119.66 100.328 119.728 99.6965C119.327 99.3555 119.487 98.4519 119.813 98.0666C120.533 97.2187 126.483 95.3456 127.309 95.1763C127.565 95.124 127.827 95.2036 128.07 95.2797V95.2808Z" fill="#F7F0EF"/>
<path d="M133.632 54.7179L135.594 56.5206C135.359 57.7299 134.087 57.2298 133.226 57.3378C130.045 57.7356 126.889 59.7371 124.222 61.4204C120.952 63.4844 117.794 65.7746 114.736 68.1285C114.487 67.9159 114.771 67.5227 114.819 67.3113C115.973 66.3145 116.144 66.2383 117.109 65.021C118.932 62.724 123.146 58.9017 125.726 57.5253C128.051 56.2853 131.154 55.6556 133.632 54.7168V54.7179Z" fill="#242E5F"/>
<path d="M164.388 64.0405C167.416 64.7134 170.068 67.8253 171.338 70.585C171.736 71.4488 172.267 72.7911 171.912 73.689C175.284 74.0811 175.512 78.0068 177.631 80.0027C177.735 80.4437 176.523 80.746 176.33 80.8881C174.534 80.1243 174.097 77.2442 172.816 76.1417C171.104 74.6687 168.179 74.0947 166.514 72.4637C167.266 72.1171 168.048 72.3194 168.803 72.5467C169.773 72.8627 170.155 72.8627 169.949 72.5467C169.094 70.0462 168.111 67.7094 166.109 65.8363C165.523 65.2885 164.411 64.9146 164.387 64.0417L164.388 64.0405Z" fill="#DD554B"/>
<path d="M166.515 193.416C166.515 194.317 166.468 194.937 165.456 195.054C160.532 195.622 147.274 192.809 142.635 190.715C141.67 190.278 141.331 189.988 141.488 188.836C141.687 188.638 145.193 190.005 145.778 190.188C149.285 191.278 152.883 192.241 156.508 192.874C159.75 193.44 163.26 194.04 166.517 193.416H166.515Z" fill="#717171"/>
<path d="M188.438 34.7633L189.631 31.7843C196.023 20.7288 204.62 29.5328 205.431 38.7913C205.639 41.1622 205.453 46.3621 204.356 48.4636C204.171 48.8194 203.97 48.6489 203.654 48.666C205.089 43.3604 204.958 35.5816 201.66 30.9501C197.567 25.2024 192.1 27.7199 189.719 33.3448C189.376 34.1564 189.229 34.9349 188.929 35.7442C188.739 36.2568 188.454 37.3536 187.947 37.3797C187.969 36.9387 188.013 36.0772 188.117 35.693C188.142 35.601 188.353 35.1225 188.438 34.7622V34.7633Z" fill="#BC584C"/>
<path d="M114.654 96.5896C114.704 95.7588 115.303 96.3066 115.676 96.2282C117.748 95.7883 118.626 96.5555 119.771 96.3941C122.636 95.9895 125.755 94.5506 128.662 94.479C128.957 94.4722 129.505 94.5358 129.377 94.9529C128.916 94.9654 128.497 95.1416 128.068 95.2814C126.521 95.7838 124.927 96.177 123.402 96.751C122.821 96.9692 120.137 98.0422 119.922 98.4229C119.807 98.6264 119.904 99.3038 119.724 99.6982C119.418 100.371 119.263 100.349 119.069 101.334C119.065 102.923 118.782 104.745 118.251 106.24C118.078 106.985 117.84 107.695 117.599 108.418C117.557 108.617 117.307 108.502 117.27 108.531C117.115 108.648 116.935 108.739 116.779 108.858L115.961 108.531C116.538 107.951 117.476 102.665 117.594 101.577C117.674 100.847 117.959 98.4218 117.594 97.9831C117.326 97.6603 115.105 96.6567 114.65 96.5907L114.654 96.5896Z" fill="black"/>
<path d="M142.302 194.888L142.276 196.332C141.866 196.506 141.464 196.689 141.028 196.802C135.628 198.201 125.678 196.181 120.5 194.031C119.17 193.478 118.463 193.516 118.745 191.779C122.412 193.15 126.167 194.416 130.029 195.134C134.176 195.907 138.242 196.346 142.301 194.887L142.302 194.888Z" fill="#717171"/>
<path d="M150.319 153.179C150.452 152.283 151.88 152.003 152.638 151.819C152.878 151.761 153.149 151.873 153.423 151.8C154.343 151.552 157.386 150.38 158.055 150.591C158.282 150.663 158.417 150.984 158.603 151.022C158.732 151.049 160.013 150.628 160.4 150.581C161.359 150.465 163.057 150.289 163.964 150.414C164.137 150.438 164.688 150.513 164.55 150.805C164.388 151.149 161.384 151.671 160.704 151.868C158.099 152.62 154.468 154.155 152.228 155.661C151.533 156.128 150.925 157.089 149.991 157.105C150.07 156.803 150.077 156.429 150.154 156.124C150.282 155.618 150.524 155.84 150.482 154.98C149.971 154.86 149.74 153.345 150.318 153.181L150.319 153.179Z" fill="black"/>
<path d="M161.77 63.3865C163.511 66.6542 164.705 73.3077 165.186 77.0641C165.315 78.0757 165.234 79.2554 165.534 80.2329C165.534 80.7762 165.551 81.3263 165.534 81.8684L164.881 80.7239C164.894 83.9825 164.543 87.5638 163.653 90.7065C163.607 90.869 163.42 90.9838 163.407 91.027C163.128 90.8588 163.233 90.4178 163.262 90.1484C163.474 88.1048 163.954 85.9363 164.069 83.9188C164.405 78.0154 163.229 72.1257 161.725 66.4575C161.577 65.8995 160.561 63.5013 160.956 63.2217L161.772 63.3853L161.77 63.3865Z" fill="#717171"/>
<path d="M144.92 134.044C145.133 134.437 145.219 134.467 145.411 135.025C144.586 135.968 145.365 137.25 145.529 138.26C146.097 141.711 146.519 145.191 147.088 148.641C147.182 149.214 147.625 149.979 147.473 150.573C147.434 150.722 147.219 150.848 147.21 150.89C146.277 151.464 146.002 149.623 145.818 148.93C144.916 145.534 144.394 141.439 143.898 137.928C143.529 135.313 143.882 136.193 144.593 134.044C144.629 133.643 144.811 133.652 144.92 134.044Z" fill="#4D50A8"/>
<path d="M169.133 93.1547C169.341 92.7194 170.008 92.6717 170.441 92.6626C169.997 92.0113 170.044 91.3123 170.227 90.5679C170.671 88.7562 173.676 83.9609 175.1 82.6823C175.421 82.3947 175.906 81.9662 176.331 81.8696C176.522 82.0731 174.462 84.4906 174.2 84.8895C172.924 86.8433 170.909 91.3499 172.491 93.4775C172.756 93.8344 173.297 94.0038 173.633 94.305C174.014 94.6448 174.221 95.2915 174.858 95.2824C174.974 95.7734 174.537 95.5995 174.204 95.6075C173.757 96.2053 170.212 95.4768 169.812 95.1915L169.623 94.7903C169.392 94.713 169.053 94.4175 168.805 94.2993C168.805 94.1367 168.796 93.9708 168.805 93.8083C168.921 93.5832 169.03 93.365 169.132 93.1536L169.133 93.1547Z" fill="black"/>
<path d="M135.923 51.7745C136.577 51.2142 138.227 50.9505 139.039 51.1949C139.428 51.3119 139.67 51.6745 140.273 51.7597C141.472 51.9302 142.934 51.6563 144.166 51.7847L144.593 51.1198C144.635 51.1494 144.867 51.0585 144.932 51.2221L145.736 53.0816C144.377 52.7463 142.144 51.9541 140.829 52.5099C140.313 52.7281 139.26 53.6567 138.788 54.0681C138.336 54.4614 136.865 56.1617 136.486 56.1992C136.05 56.2424 134.539 54.691 134.475 54.2727C134.412 53.8545 135.574 52.0723 135.922 51.7745H135.923Z" fill="#404040"/>
<path d="M119.399 101.332C119.434 101.1 119.252 100.754 119.633 100.848L125.778 102.392L118.659 107.053C118.176 107.194 118.558 106.437 118.581 106.238C118.589 104.632 118.867 102.848 119.399 101.332Z" fill="#D52B1E"/>
<path d="M196.747 63.9123C196.826 63.9578 196.99 64.1226 197.1 64.2715C197.21 64.4204 197.389 64.7239 197.437 64.8114C197.86 65.5786 197.171 65.7354 197.302 66.206C198.772 67.8279 198.07 70.6022 200.694 70.5966C200.62 71.3888 201.301 72.672 200.953 73.3675C200.66 73.954 197.974 74.2916 197.673 73.862L195.822 63.602C195.815 63.4611 196.607 63.8305 196.746 63.9112L196.747 63.9123Z" fill="#212492"/>
<path d="M149.337 78.4337C148.704 78.6462 148.557 77.6063 148.518 77.2073C148.343 75.4002 148.775 72.9713 148.69 70.9845C148.64 69.8366 148.508 68.2329 148.313 67.1077C147.947 64.9868 146.906 63.0092 146.393 60.9326C147.427 61.9567 147.716 62.367 148.307 63.8434C149.931 67.8964 151.103 74.367 149.337 78.4326V78.4337Z" fill="#717171"/>
<path d="M158.826 63.387C158.49 63.8326 158.36 63.6132 158.335 64.3679L157.428 64.6884L157.273 65.8386C155.573 63.5234 154.197 60.9275 152.205 58.8021C151.714 58.2781 150.785 57.9803 150.811 57.1711C151.329 56.6732 153.069 59.0817 153.634 59.3363C154.858 59.8875 156.006 60.4421 157.207 60.9991C157.62 61.1912 158.69 61.4264 158.99 61.6685C159.505 62.0822 158.6 62.7915 158.827 63.3859L158.826 63.387Z" fill="black"/>
<path d="M179.563 37.084C181.741 36.893 181.38 43.0078 179.047 42.776C177.133 42.5862 177.577 37.2579 179.563 37.084Z" fill="black"/>
<path d="M145.247 55.7024L144.325 57.6755C142.136 57.2072 140.01 56.3127 137.724 56.5161C137.452 56.2513 138.78 54.9704 139.039 54.8067C140.42 53.9395 143.709 55.375 145.247 55.7024Z" fill="#242E5F"/>
<path d="M184.184 35.5814L183.857 35.3394L183.931 27.7231C184.087 27.481 185.216 27.7311 185.527 27.7788C186.234 27.8868 186.943 28.0755 187.622 28.3016C187.884 28.5062 187.73 28.4653 187.622 28.6301C187.317 29.0916 186.64 29.6269 186.245 30.1986C185.21 31.6978 184.351 33.7606 184.185 35.5814H184.184Z" fill="#371D0E"/>
<path d="M197.76 53.7355L198.058 55.8314C196.949 56.3292 196.001 57.3885 195.962 58.6433C195.392 58.6876 195.163 58.608 194.994 58.0568C194.867 57.6431 194.398 54.4356 194.514 54.2492L197.76 53.7344V53.7355Z" fill="#212492"/>
<path d="M112.528 82.1952C112.576 82.2418 112.929 83.4284 112.854 83.5034C112.242 83.5 111.842 82.8885 111.268 82.5555C110.371 82.0349 109.281 81.5598 108.28 81.2905C107.566 81.0995 105.915 81.3086 106.138 80.3301C106.179 80.1493 106.642 80.1664 106.808 79.9936C107.156 79.6311 106.686 78.8366 108.154 79.1207C109.247 79.3333 111.033 81.3166 112.055 82.1043C112.202 82.2191 112.506 82.1736 112.529 82.1952H112.528Z" fill="black"/>
<path d="M174.205 95.6064C173.911 96.5714 171.431 97.9421 170.558 97.7398C169.921 96.9055 169.643 95.8292 169.625 94.7881C170.673 95.1393 173.123 95.6292 174.205 95.6064Z" fill="#8F2C28"/>
<path d="M137.231 91.0288C137.627 91.4073 135.555 92.4814 135.44 92.5893C134.976 93.0258 134.738 94.0214 133.839 94.2601C133.226 94.4226 131.287 94.7318 131.83 93.652L130.525 93.0724C131.012 92.6871 131.667 92.8985 132.223 92.8087C134.089 92.5098 135.539 91.7812 137.231 91.0288Z" fill="black"/>
<path d="M147.374 48.5033C147.512 48.642 147.276 51.8062 147.094 52.229C146.912 52.6518 146.47 52.4279 146.219 52.1915C145.861 51.8539 144.59 48.5704 144.757 48.3396C144.885 48.3044 144.954 48.5033 145 48.5033H147.373H147.374Z" fill="black"/>
<path d="M132.487 81.3789C132.575 81.7653 132.418 81.9165 132.25 82.2041C131.813 82.9508 130.323 84.775 129.706 85.4672C129.61 85.574 129.097 85.9911 128.972 85.9582C128.658 84.9705 127.86 86.1139 127.57 85.0557C127.573 84.7545 129.59 83.3645 130.006 83.069C130.788 82.5132 131.685 81.8995 132.487 81.3789Z" fill="black"/>
<path d="M185.494 33.1291C185.496 33.1109 185.332 33.0075 185.338 32.8813C185.36 32.3767 186.935 30.6366 187.293 30.1035L186.803 30.0205C187.533 29.4182 188.711 28.5646 189.577 28.1338C190.387 27.7315 191.293 27.4462 192.202 27.4053C192.362 28.1293 191.952 28.1384 191.385 28.3861C190.723 28.6748 189.949 28.8351 189.312 29.1761C187.745 30.0115 186.638 31.8266 185.495 33.1302L185.494 33.1291Z" fill="#BC584C"/>
<path d="M172.018 51.3052C173.39 51.7189 174.655 54.0057 172.47 54.2251C170.824 54.3899 171.01 52.0167 172.018 51.3052Z" fill="#DD554B"/>
<path d="M105.166 77.2887C105.405 77.383 107.074 78.5264 107.108 78.7003C107.194 79.1447 105.984 79.9608 105.739 80.3938C104.973 79.472 104.446 78.3025 104.186 77.125C104.462 77.1966 104.931 77.1955 105.168 77.2887H105.166Z" fill="#8F2C28"/>
<path d="M150.321 153.18C150.242 153.706 150.456 154.394 150.484 154.979C150.211 155.165 149.903 155.138 149.593 155.149C149.079 155.168 146.745 155.283 146.56 154.895C146.481 154.562 146.696 154.674 146.881 154.573C147.971 153.978 149.109 153.473 150.322 153.18H150.321Z" fill="#242E5F"/>
<path d="M144.43 153.998V152.036L146.719 152.61C146.831 153.117 144.522 154.099 144.43 153.997V153.998Z" fill="#242E5F"/>
<path d="M172.568 50.6303C174.131 50.0552 174.868 50.8667 174.454 52.4318L174.035 52.5136C173.907 51.9817 172.294 51.044 172.568 50.6292V50.6303Z" fill="black"/>
<path d="M128.723 153.342C128.948 153.307 128.995 153.463 129.05 153.669C128.899 154.052 128.868 154.233 128.887 154.65L126.105 154.323C126.979 154.024 127.84 153.627 128.723 153.342Z" fill="#242E5F"/>
<path d="M119.402 101.333C119.155 102.975 118.778 104.587 118.583 106.24H118.256C118.629 104.636 118.758 102.946 119.074 101.333H119.402Z" fill="#AD8F7E"/>
<path d="M164.877 150.563C165.17 150.535 166.124 150.477 166.023 150.97L165.128 151.545C164.79 151.317 164.873 150.911 164.877 150.563Z" fill="#242E5F"/>
<path d="M169.134 93.1558C169.061 93.3081 169.215 93.7343 168.807 93.8104C168.826 93.4513 168.952 93.2922 168.97 93.1558H169.134Z" fill="#AD8F7E"/>
<path d="M163.734 1.07052C166.749 1.45355 170.158 3.2914 173.019 4.46435C174.52 5.08038 175.893 5.32475 177.363 6.17263C181.537 8.58105 181.986 12.5864 182.874 16.9349L181.402 17.0997C181.299 17.5169 180.347 17.4782 180.093 17.2634C179.755 17.3793 179.365 17.2509 178.922 16.8781C178.312 16.7292 177.939 16.4757 177.803 16.1189C176.086 15.7495 174.152 15.9165 172.483 16.4439C172.015 16.5917 170.767 17.252 170.523 17.252C170.212 17.252 169.217 16.6315 168.675 16.4951C165.924 15.8006 162.772 16.9042 160.682 18.7194C158.872 17.5407 156.51 17.8567 154.622 18.7057C154.045 18.966 152.967 19.9275 152.652 20.0185C152.282 20.1242 150.638 19.8116 149.911 19.8832C148.774 19.9969 147.326 20.6163 146.406 21.2858C146.085 21.5188 145.652 22.1393 145.407 22.2496C144.867 22.4928 143.012 22.5167 141.976 22.9088C140.657 23.4077 140.052 24.234 139.091 24.7671C138.325 25.191 137.07 25.282 136.329 25.931C136.017 25.6605 136.054 24.4705 135.922 24.2966C136.445 24.2841 136.611 23.6214 136.731 23.2248C137.148 21.8381 137.151 20.1594 137.471 18.7307C138.426 14.4663 140.927 12.342 144.1 9.65626C147.375 6.883 153.417 2.52307 157.517 1.39899C157.798 1.32171 159.035 1.07166 159.234 1.07166H161.688C162.467 1.07166 162.761 0.947775 163.733 1.07166L163.734 1.07052Z" fill="#5A321B"/>
<path d="M180.094 21.6797C179.665 22.0991 172.757 21.4774 171.647 21.7695L170.945 18.179C170.999 17.9472 172.118 17.4664 172.406 17.4266C172.899 16.8481 174.549 16.8629 175.345 16.9436C176.591 17.0697 179.184 17.6994 179.357 19.1247C179.324 20.1158 179.57 20.9682 180.095 21.6786L180.094 21.6797Z" fill="#8F6852"/>
<path d="M169.951 21.6797C167.274 21.6751 164.605 22.0479 161.947 22.323L161.297 19.3372L162.915 18.0824C164.578 17.1834 168.944 17.2425 169.768 19.3315C169.987 19.8884 170.369 21.2921 169.95 21.6797H169.951Z" fill="#8F6852"/>
<path d="M180.094 17.2629C180.946 17.3515 181.941 17.4083 183.076 17.4345L183.202 17.5902C183.464 17.5822 183.783 17.6277 184.021 17.5902C184.242 18.138 185.069 18.1858 185.574 18.5722C186.871 19.5633 187.305 22.3934 186.638 23.805C186.027 23.5561 184.952 23.1174 184.348 22.9867V22.823C184.544 22.5627 184.866 22.5457 185.315 22.7741C185.446 22.6412 185.017 20.4805 184.882 20.2759C184.394 19.536 181.669 18.6779 180.726 18.5472L180.421 18.2437C180.242 18.2994 180.028 18.246 179.943 18.5074C179.977 19.3462 180.753 21.034 180.094 21.6785C178.863 21.641 179.263 19.5224 178.913 18.6881C178.632 18.0198 175.992 17.3095 175.266 17.2651C174.606 17.2254 173.072 17.3345 172.405 17.4254C172.347 16.9662 172.359 17.014 172.727 16.8526C174.15 16.2263 175.4 16.2979 176.907 16.2831C177.183 16.2809 177.634 16.3877 177.805 16.1172C178.547 16.2774 179.537 16.7503 180.095 17.2617L180.094 17.2629Z" fill="#AD8F7E"/>
<path d="M157.19 18.8981C157.231 18.7913 157.273 18.7083 157.315 18.7072C158.102 18.697 159.877 19.1902 160.202 19.9086C160.207 20.9553 160.511 21.7089 161.117 22.1692C161.111 22.2772 161.126 22.3874 161.118 22.4965L153.743 23.5729L153.176 20.7042C153.494 19.9836 156.425 18.8709 157.19 18.8993V18.8981Z" fill="#8F6852"/>
<path d="M150.974 20.697C151.188 20.6902 152.415 20.9868 152.528 21.1869L152.924 23.9567C151.284 24.5091 148.886 24.8501 147.374 25.6036L146.958 25.8582C145.606 23.5316 146.615 22.4962 148.732 21.2869C149.266 20.9812 150.527 20.2833 150.972 20.697H150.974Z" fill="#8F6852"/>
<path d="M180.422 18.2451C181.171 18.0132 184.698 19.368 185.171 20.1216C185.39 20.4728 185.873 23.304 185.722 23.4654C185.266 23.4506 184.109 22.9574 183.678 22.838C182.66 22.5561 182.317 22.1913 181.241 22.1686C181.278 20.8558 181.03 19.4135 180.422 18.2439V18.2451Z" fill="#8F6852"/>
<path d="M145.084 23.3157C145.456 24.0181 145.469 25.4263 145.727 26.2424C145.536 26.5072 141.645 27.6824 140.995 28.0587C140.167 28.2257 140.049 26.0549 140.313 25.4627C140.639 24.7307 144.247 22.9418 144.903 23.1634C144.972 23.1873 145.03 23.2464 145.084 23.3157Z" fill="#8F6852"/>
<path d="M139.195 25.7679C139.257 26.8192 139.955 27.7501 139.96 28.7219C138.769 29.4731 137.327 30.2551 136.251 31.1655C135.595 31.2382 135.265 29.597 135.302 29.0412C135.388 27.7285 137.877 25.4769 139.195 25.769V25.7679Z" fill="#8F6852"/>
<path d="M162.916 18.0798C162.917 17.7047 163.131 17.6501 163.397 17.4978C164.919 16.6238 169.358 16.759 170.347 18.4196C170.657 18.9401 171.337 21.1849 170.891 21.6395C170.575 21.9498 170.222 21.6793 169.95 21.6782C169.757 20.9485 169.666 19.8926 169.379 19.2243C168.639 17.5081 164.467 17.8911 162.916 18.0798Z" fill="#AD8F7E"/>
<path d="M150.975 20.6963C150.685 20.7054 148.987 21.4999 148.636 21.7102C148.37 21.8693 146.874 23.0013 146.802 23.1479C146.559 23.6435 146.768 24.63 146.936 25.1517C147.023 25.42 146.97 25.6859 147.376 25.6029C147.116 25.7325 146.966 25.986 146.885 26.2576C146.783 26.2917 146.517 26.4827 146.231 26.585L145.735 24.5471C145.272 22.5285 147.098 21.3021 148.761 20.6906C149.182 20.5349 151.01 19.828 150.976 20.6975L150.975 20.6963Z" fill="#AD8F7E"/>
<path d="M145.085 23.3147C144.12 23.5499 141.18 24.7843 140.657 25.5105C140.33 25.964 140.586 27.6098 140.994 28.0576C140.789 28.1758 140.577 28.9066 140.014 28.7112C139.89 27.6746 138.986 25.9027 139.684 25.0286C140.31 24.2421 143.542 22.6941 144.504 22.8203C144.819 22.8612 144.949 23.0589 145.085 23.3147Z" fill="#AD8F7E"/>
<path d="M136.25 31.1657C136.071 31.318 135.735 31.9568 135.282 31.6431C135.188 31.5772 134.648 29.6393 134.625 29.4313C134.403 27.407 137.376 25.4453 139.195 25.4419C139.204 25.5499 139.188 25.6601 139.195 25.7681C137.946 26.1523 135.423 27.9617 135.629 29.4052C135.695 29.87 136.02 30.7281 136.25 31.1657Z" fill="#AD8F7E"/>
<path d="M161.117 22.1697C159.937 22.638 160.127 20.3693 159.811 19.7954C159.631 19.5862 157.494 18.91 157.191 18.8986C157.221 18.4258 157.269 18.5054 157.641 18.5144C158.438 18.5326 159.937 18.669 160.55 19.2214C161.051 19.6738 161.158 21.4684 161.118 22.1697H161.117Z" fill="#AD8F7E"/>
<path d="M181.403 17.0983C182.052 17.0756 183.125 16.838 183.202 17.5893C182.545 17.6109 180.691 17.7177 180.197 17.5961C180.004 17.5484 180.118 17.2847 180.094 17.262C180.524 17.0869 180.953 17.1142 181.404 17.0983H181.403Z" fill="#EED3CA"/>
<path d="M128.725 153.344C128.938 153.274 129.145 153.162 129.379 153.182C129.438 153.23 129.103 153.541 129.052 153.671H128.725V153.344Z" fill="#AD8F7E"/>
<path d="M169.951 72.5459C169.984 72.6436 170.56 72.7653 170.194 73.0392C169.7 73.0801 169.187 72.6596 168.807 72.5459H169.952H169.951Z" fill="#AD8F7E"/>
<path d="M195.757 28.7513C202.215 27.7159 204.321 38.7373 203.813 43.3484C202.611 54.2573 193.732 53.3913 191.299 43.4337C190.33 39.4636 190.371 29.6151 195.757 28.7525V28.7513Z" fill="#EED3CA"/>
<path d="M194.982 48.9931C195.039 48.4907 194.929 48.327 194.654 48.5021C194.426 48.1372 193.731 47.7747 193.836 47.1939C195.423 43.9205 196.673 40.0755 197.744 36.5202C197.86 36.1338 197.171 33.9277 197.097 34.0857L192.743 43.8751L192.363 43.9228C191.188 40.4426 191.117 35.0404 193.113 31.833C194.308 29.9122 195.518 29.3211 197.357 30.9976C201.002 34.3221 202.002 45.1071 198.903 48.9078C197.25 50.9332 196.612 50.1512 194.981 48.9931H194.982Z" fill="#BFCEE2"/>
<path d="M193.837 47.1936C193.342 47.2504 192.889 47.0538 192.757 46.5423C192.652 46.1366 192.9 45.8809 192.869 45.6638C192.848 45.5115 192.467 45.5251 192.389 45.2955C192.318 45.0932 192.322 44.1692 192.366 43.9237L196.949 33.6194C197.379 33.2944 197.832 35.0117 197.878 35.2209C197.98 35.6687 198.12 36.1324 198.06 36.5995C196.848 39.6683 196.07 43.2178 194.735 46.2093C194.533 46.6594 194.396 47.1288 193.838 47.1936H193.837Z" fill="#DFE6F0"/>
<path d="M197.107 29.6947C197.927 29.5856 198.73 30.1573 199.311 30.6789C203.217 34.1842 204.112 43.3166 201.719 47.7959C201.373 48.4414 199.881 50.3088 199.152 50.2975C198.953 50.2941 198.918 50.1213 199.07 49.8929C199.41 49.3825 199.835 49.0643 200.193 48.3982C202.929 43.3064 201.715 33.5329 197.109 29.6958L197.107 29.6947Z" fill="#8F2C28"/>
<path d="M194.982 48.9944C194.426 48.6 194.845 48.8091 194.654 48.5034L198.415 39.1812C198.454 39.538 198.582 39.8199 198.548 40.1961C198.458 41.1633 197.355 44.106 196.948 45.1527C196.433 46.478 195.834 47.8624 194.982 48.9933V48.9944Z" fill="#DFE6F0"/>
<path d="M185.045 17.3858C185.252 17.5995 186.01 17.8461 186.4 18.2382C187.733 19.5749 187.124 22.2072 187.327 23.9359L191.307 26.5864C194.857 26.1648 197.752 25.293 200.785 27.7344C206.605 32.4171 207.873 43.4465 204.111 49.6977C202.905 51.7015 201.074 53.2063 198.76 53.7507L198.909 55.3726C200.516 55.0157 202.524 54.5509 203.522 56.2387C204.017 57.0752 203.939 57.9811 204.228 58.6403C204.573 59.4268 205.465 59.4302 205.707 61.0907C205.823 61.8863 205.428 62.6604 205.488 62.9581C205.533 63.1786 206.118 63.664 206.231 64.3266C206.391 65.2768 206.046 66.2326 206.108 66.8987C206.153 67.3942 206.942 68.3137 206.928 69.3503C206.885 72.5475 202.807 75.7345 200.051 76.7165C199.27 76.9949 197.04 77.1893 196.687 77.4416C196.333 77.6939 195.3 79.1499 194.902 79.5829C190.987 83.8428 187.025 88.6324 182.959 92.6672C180.97 94.6415 179.483 95.7326 176.577 95.9042C176.29 95.9213 176.021 95.6917 175.633 95.7985C175.203 95.9167 173.852 97.359 173.169 97.7625C172.401 98.216 171.084 98.8036 170.196 98.7241C168.43 98.565 165.413 95.2734 164.133 93.9766C163.894 93.7356 163.996 93.3696 163.572 93.4833C163.043 95.3575 162.176 97.1306 160.992 98.6752L159.806 109.427C160.455 110.351 161.255 110.957 161.285 112.218C161.303 112.99 160.79 113.864 160.787 114.498C160.782 115.278 161.075 116.467 161.115 117.282C161.252 120.116 161.29 122.956 161.448 125.789C161.43 126.381 161.115 126.691 160.623 126.934C161.387 128.077 161.494 129.282 161.345 130.615C162.893 136.56 165.535 142.697 166.89 148.637C167.02 149.203 167.232 149.908 167.18 150.483C167.039 152.04 165.417 151.941 165.234 152.472C165.455 155.87 164.491 159.141 163.492 162.343C161.647 168.256 159.127 173.973 157.357 179.916C157.413 180.506 161.837 185.118 162.588 185.815C164.087 187.203 166.769 188.717 167.383 190.67C167.824 192.073 167.834 195.247 166.193 195.794C164.184 196.463 159.385 195.685 157.156 195.332C152.366 194.576 147.629 193.314 143.041 191.779C143.246 194.791 144.422 197.02 140.7 197.785C135.239 198.907 127.355 197.344 122.095 195.547C121.176 195.232 118.846 194.436 118.133 193.96C117.56 193.579 117.731 191.312 117.764 190.558C117.843 188.747 118.097 186.324 118.465 184.553C118.641 183.706 118.92 182.16 119.738 181.737C120.142 181.527 120.784 181.639 121.003 181.202C123.315 172.63 126.069 164.197 128.737 155.742C126.887 155.149 124.734 155.228 122.87 154.538C122.315 154.332 122.026 154.271 121.771 153.674C121.334 152.651 120.884 150.657 120.557 149.491C118.574 142.39 116.664 133.816 116.773 126.434C116.777 126.091 116.814 125.789 116.949 125.474L115.335 124.114L115.455 121.305C112.458 120.82 109.311 119.879 106.634 118.429C103.992 116.997 102.415 115.191 102.378 112.038C102.369 111.303 102.695 110.542 102.543 109.76C102.487 109.473 101.636 108.592 101.374 108.149C98.8159 103.831 100.981 97.0749 102.71 92.7343C102.576 92.0626 102.196 91.5045 102.011 90.8294C101.017 87.2082 103.189 84.0008 105.113 81.1343C104.4 79.9489 102.815 77.6803 103.237 76.2596C103.322 75.9709 106.314 73.6806 106.816 73.2965C108.829 71.7553 112.278 69.7958 113.926 68.1375C114.944 67.1123 115.912 65.087 116.811 63.8265C120.876 58.1265 123.916 54.4554 131.145 52.9676C131.849 52.8221 133.859 52.7471 134.285 52.5084C134.437 52.4232 135.4 50.8774 135.752 50.541C137.957 48.4417 141.604 49.5669 144.265 49.9738L143.988 49.1544C140.224 48.7986 136.079 48.5815 132.593 47.0074C127.671 44.7854 127.994 41.5234 130.62 37.3942C131.735 35.6404 133.288 33.9867 134.762 32.5296C134.864 32.1875 133.748 29.6609 133.804 28.8016C133.855 28.0253 134.945 27.0536 135.407 26.4716C133.666 19.0043 136.386 13.2623 141.974 8.51024C151.058 0.786035 160.695 -1.83151 172.441 1.28045C179.287 3.09443 182.96 4.98229 184.3 12.3223C184.442 13.0975 184.806 17.1392 185.045 17.3858ZM184.021 17.0982C183.189 12.3723 183.39 7.63052 178.837 4.86409C172.415 0.961066 161.24 -0.0584467 154.207 2.42044C145.099 5.63014 134.004 14.0545 136.114 25.0077C136.157 25.2293 136.16 25.8692 136.481 25.7544C137.163 25.235 138.22 25.1236 138.914 24.7508C139.894 24.2246 140.59 23.3926 141.817 22.9096C142.921 22.4754 144.669 22.5095 145.247 22.2492C145.551 22.1128 146.459 21.1183 147.059 20.7899C147.849 20.358 149.008 19.9499 149.906 19.8749C150.555 19.8204 152.194 20.0875 152.497 20.0181C152.634 19.9863 153.947 18.9895 154.378 18.7838C156.54 17.7495 158.62 17.6131 160.84 18.5519C162.76 16.8152 165.617 15.9764 168.194 16.3254C168.894 16.4208 170.287 17.2039 170.526 17.2039C170.643 17.2039 172.239 16.4572 172.699 16.3299C174.509 15.8287 176.605 15.6502 178.424 16.2379C179.021 16.4311 179.705 17.038 180.019 17.0994C181.013 17.2903 182.833 16.5913 184.022 17.1005L184.021 17.0982ZM180.095 21.8435C180.244 21.6968 179.857 18.8168 179.685 18.4087C178.761 16.214 172.715 16.6663 171.111 18.1882L171.935 21.4945L180.094 21.8435H180.095ZM170.231 18.2928C170.121 18.145 169.046 17.5972 168.802 17.5142C166.479 16.722 162.981 17.7268 161.306 19.4964L161.952 22.1538L170.933 21.515C170.637 20.7364 170.684 18.9088 170.231 18.2928ZM186.312 23.479V20.1261C186.312 18.0916 182.025 17.5142 180.584 18.1655C180.999 19.4373 181.357 20.6228 181.262 21.9855L186.312 23.479ZM161.119 22.3322C160.691 21.0876 161.077 19.7669 159.599 19.1907C157.945 18.5462 155.117 19.1623 153.769 20.3045C152.634 21.2661 153.814 22.4106 153.756 23.6438L161.119 22.3333V22.3322ZM152.424 21.0479C150.552 20.5614 148.311 20.9058 146.807 22.1742C145.377 23.3801 146.415 24.2189 146.559 25.7681L152.891 23.7336L152.424 21.0479ZM190.074 27.0752C190.306 26.7603 188.559 25.7158 188.262 25.5362C181.07 21.2024 168.337 22.3629 160.241 23.5017C152.965 24.5258 141.579 27.4127 136.165 32.4694C133.798 34.68 131.406 37.4567 130.199 40.4879C132.956 37.4817 136.704 35.554 140.393 33.9174C152.399 28.5891 175.174 24.1769 187.857 27.4116C188.098 27.4729 188.272 27.6866 188.522 27.7287L190.074 27.0752ZM145.062 23.3381C144.312 22.8709 140.515 24.4156 140.002 25.1839C139.55 25.8636 140.404 27.3934 140.342 28.2208L145.557 26.2386L145.062 23.3369V23.3381ZM139.684 28.7061L139.039 25.8374C138.526 25.4646 136.195 27.0217 135.751 27.4775C134.391 28.8789 135.059 29.8223 135.513 31.4942H135.841C136.947 30.4133 138.254 29.3188 139.684 28.705V28.7061ZM195.267 27.1161C194.468 27.2422 193.485 27.7992 192.854 28.3015C186.67 33.2331 188.126 47.8814 194.874 51.8015C201.46 55.6283 205.138 47.0483 205.297 41.7223C205.459 36.3451 202.237 26.0159 195.268 27.1149L195.267 27.1161ZM182.867 27.5775C172.887 26.7967 162.879 28.3549 153.205 30.6667L153.091 30.7747C153.117 33.1513 153.158 35.5609 152.726 37.9045C152.464 39.3309 151.904 41.0881 150.084 40.971C148.137 40.846 148.761 37.0623 146.628 36.7361C143.735 36.294 140.69 37.7965 140.063 40.7812C139.025 45.7287 144.796 49.2555 149.061 46.8335C149.524 46.5698 151.602 44.7297 151.956 45.0684C151.395 46.7028 149.796 47.7098 148.268 48.3315C148.25 49.7181 148.35 51.1979 147.947 52.5903C147.648 53.62 145.014 57.8458 145.071 58.2197C147.035 59.8712 148.313 62.3603 149.178 64.7733C149.78 66.4554 150.021 68.7297 151.07 70.0777C153.073 72.6486 157.018 72.4497 158.203 69.223C158.801 67.5943 158.294 66.8816 157.844 65.3495C156.836 66.2054 156.346 67.8818 154.95 68.2614C154.709 68.3274 154.511 68.3887 154.575 68.0512L158.827 61.917C156.547 61.1271 154.231 59.9564 152.233 58.613C151.903 58.3914 149.229 56.6399 149.668 56.1909C153.59 58.1015 156.954 60.5225 161.247 61.7045C169.334 63.9322 179.191 62.2478 181.328 52.9244C182.519 47.7314 182.916 40.5493 183.047 35.179C183.069 34.239 183.148 27.8344 182.867 27.5764V27.5775ZM192.037 27.5696C184.085 28.9676 183.614 39.848 185.818 45.9708C187.182 49.7602 190.569 54.3531 195.144 53.1654C186.908 48.3792 185.374 34.2311 192.037 27.5696ZM184.021 27.731V35.0915L185.408 31.3271C186.02 30.2462 186.771 29.2858 187.619 28.3879L184.021 27.7321V27.731ZM152.283 31.0032C148.052 31.9374 143.973 33.4457 140.013 35.1744C139.567 35.5222 140.507 37.0191 140.507 37.5442C140.648 37.651 141.959 36.5792 142.251 36.4281C144.144 35.4495 147.405 35.0744 148.756 37.0646C149.472 38.1182 149.255 40.4834 150.937 39.7128C151.544 39.4343 151.843 37.3089 151.936 36.6236C152.186 34.7823 152.237 32.8547 152.284 31.002L152.283 31.0032ZM139.03 35.745C135.02 37.468 124.966 43.1066 133.712 46.38C136.605 47.4631 139.895 47.8428 142.957 48.011L141.246 46.863C139.402 45.1979 138.487 42.7782 139.109 40.3197C139.238 39.8094 139.859 38.7399 139.849 38.4626C139.821 37.7306 139.014 36.5758 139.03 35.745ZM193.487 54.4133C188.795 53.9848 185.961 49.6545 184.591 45.5605L183.695 41.6336C183.21 45.7264 183.122 50.433 181.978 54.394C180.228 60.4599 173.713 63.7026 167.744 63.7253C167.012 63.7287 166.389 63.5094 165.612 63.5492C165.426 63.5583 165.163 63.4423 165.207 63.7106C167.907 64.6653 169.684 67.1362 171.164 69.4503C171.81 70.4619 172.403 71.9837 173.153 72.8589C173.664 73.4556 174.354 73.6079 174.856 74.2637C175.5 75.1036 175.976 76.5107 176.687 77.5041C176.933 77.8474 178.356 79.6636 178.697 79.5795L189.177 69.6049C187.937 67.3385 188.034 64.5334 188.683 62.0796C189.435 59.2336 190.904 57.7913 194 57.9902L193.486 54.4133H193.487ZM147.21 48.5031C146.374 48.7827 145.597 48.6747 144.758 48.5031C145.285 49.4033 145.729 52.1254 146.806 52.4243C147.193 52.4982 147.001 52.2493 147.051 52.0242C147.314 50.8536 147.189 49.6954 147.21 48.502V48.5031ZM145.576 52.9176L144.65 51.1468C142.541 50.5558 138.575 49.6124 136.739 51.0343C136.307 51.3696 134.484 53.728 134.51 54.144C134.794 54.6577 135.925 56.0386 136.501 56.0227C136.861 56.0125 138.428 54.1985 138.867 53.8155C139.194 53.5302 140.528 52.4277 140.823 52.3368C142.145 51.9276 144.263 52.563 145.576 52.9176ZM146.067 54.0655C144.361 53.7018 142.589 52.8892 140.832 53.412C140.79 53.8428 140.823 53.6768 141.075 53.7337C142.628 54.0871 144.205 54.3622 145.662 55.0373L146.067 54.0644V54.0655ZM133.633 53.5745C131.419 53.7677 129.223 54.3395 127.194 55.2317C122.193 57.4298 119.194 62.0955 116.292 66.4918L124.322 61.1919C127.193 59.4722 130.278 57.4173 133.713 57.1593C134.456 57.1036 135.09 57.6571 135.425 56.6172C134.679 55.8363 133.018 54.7907 133.633 53.5745ZM197.762 53.9019L194.491 54.2281C194.341 54.3713 195.103 58.1197 195.238 58.3061C195.356 58.4709 195.583 58.5016 195.721 58.6414C196.026 57.1923 196.82 56.4865 197.901 55.584L197.763 53.9007L197.762 53.9019ZM145.085 55.7011C143.881 55.559 140.517 54.1792 139.525 54.6406C139.366 54.7145 137.652 56.1523 137.887 56.3535C140.069 56.3103 142.229 56.9297 144.263 57.664L145.084 55.7022L145.085 55.7011ZM203.162 58.3163C203.022 55.8091 201.464 55.75 199.394 56.2671C197.705 56.6888 195.681 58.4311 197.681 59.778C198.098 59.3472 198.725 58.9937 199.286 58.7767C199.479 58.7016 200.711 58.3175 200.79 58.3175H203.162V58.3163ZM136.087 57.3355C136.023 57.6355 136.178 57.656 136.36 57.7981C138.533 59.4893 139.991 60.0098 141.555 62.5819C143.398 65.6143 144.205 71.6007 143.781 75.0866C143.713 75.6469 143.25 76.0743 143.52 76.6471C145.524 76.9097 147.407 77.653 149.09 78.7623C149.337 78.7134 149.402 77.9019 149.453 77.6485C150.444 72.7691 148.769 61.9716 144.421 58.8994C143.771 58.4402 140.185 57.3355 139.442 57.3355H136.088H136.087ZM142.455 76.621C143.321 70.996 142.783 64.1504 138.215 60.1951C136.633 58.8255 135.426 57.9572 133.244 58.172C128.892 58.6005 118.275 66.3508 114.277 69.1411C111.056 71.3882 107.851 73.7068 104.841 76.2266C108.097 77.9633 111.11 80.2876 113.521 83.0847L126.671 84.8157C128.566 83.6485 130.242 82.0868 132.174 80.982C132.626 80.724 133.068 80.3206 133.632 80.3967C133.82 80.5638 132.66 81.6379 132.489 81.7879C131.171 82.954 129.529 83.8519 128.235 85.0578C128.964 85.0931 130.093 85.6943 130.697 85.2317C131.261 84.7998 132.169 83.4405 132.731 82.846C134.493 80.9843 138.427 76.7415 140.961 76.5039C141.519 76.4516 141.921 76.6869 142.455 76.6198V76.621ZM191.874 61.9159C193.199 61.709 196.463 63.7197 197.283 62.3353C198.527 60.2338 194.498 58.8414 192.956 58.9869C192.611 59.0199 191.859 59.2279 191.545 59.3779C189.214 60.4895 188.709 66.3804 189.715 68.4092C189.955 68.8922 192.125 71.4655 191.874 71.728L189.831 70.2595C187.529 72.5941 184.988 74.6877 182.628 76.9585C180.404 79.0987 178.351 81.4196 176.086 83.5041L175.679 82.7688C173.044 85.1272 171.127 88.2187 170.119 91.6125L170.192 91.8443C173.82 94.3369 177.136 96.3963 181.08 93.0753C184.694 90.0326 188.662 84.818 191.955 81.2128C193.146 79.9091 194.424 78.6577 195.635 77.3711L195.148 76.6369C196.907 76.1982 198.631 76.2277 200.329 75.5196C202.867 74.4615 207.366 70.8381 205.426 67.7477C204.328 65.9996 198.985 66.2929 199.06 68.3694C199.145 70.7517 203.353 68.6354 203.326 71.0722L201.69 70.746C201.532 71.7905 202.495 73.1931 201.612 74.0205C200.789 74.7922 198.013 75.3855 197.113 74.5854C196.397 73.9477 196.318 70.3289 195.962 69.2741C195.479 69.6003 194.982 70.2016 194.684 70.6937C194.491 71.0131 193.753 73.1749 193.347 72.8714C192.968 71.0722 194.086 69.0082 195.781 68.2671L195.798 68.0694C195.293 66.1099 195.751 64.8244 193.987 63.4832C193.754 63.3059 191.519 62.2364 191.876 61.9159H191.874ZM204.618 62.3876C205.039 61.4522 204.431 59.5723 203.373 59.3336C202.417 59.1176 199.199 59.7814 198.583 60.527C198.178 61.0169 198.717 63.0582 197.439 63.6333L197.979 64.0209C199.876 62.4728 202.209 61.9898 204.617 62.3887L204.618 62.3876ZM161.279 96.7521C164.934 88.804 165.389 79.7523 163.848 71.2075C163.592 69.7935 162.238 63.7992 161.449 62.9741C161.064 62.5706 160.418 62.5012 159.89 62.4001C159.589 62.4365 158.347 64.2766 158.373 64.5857C160.64 69.2434 160.703 74.5706 160.956 79.6591C161.219 84.9169 161.256 90.2304 161.125 95.5325C161.116 95.9224 161.086 96.6089 161.28 96.7521H161.279ZM204.752 63.4344C204.351 63.107 202.539 63.1809 201.955 63.2423C200.133 63.4344 197.233 64.7301 198.42 66.9839C199.111 66.76 199.567 66.2281 200.29 65.9939C202.081 65.4132 203.571 65.7382 205.287 66.3304C205.579 65.5746 205.379 63.9458 204.752 63.4344ZM166.353 72.3827H169.216C169.588 72.3827 171.954 73.1374 172.079 73.0351C170.012 69.4457 168.081 65.6132 163.942 64.0788C163.705 63.9913 162.999 63.6276 163.077 64.1231C165.675 72.2235 166.424 80.8729 164.832 89.262C164.709 89.911 164.024 91.8409 164.063 92.2467C164.146 93.1094 168.086 96.5168 169.051 97.0817C169.152 96.6305 168.845 96.1747 168.809 95.6883C168.548 92.1455 169.659 89.0813 171.519 86.1353C172.956 83.861 175.086 81.4458 177.476 80.2308V79.9898C176.839 79.2817 176.169 78.5259 175.64 77.7348C175.146 76.9972 174.251 74.907 173.771 74.5319C172.519 73.5522 168.718 73.5283 166.969 72.8271C166.732 72.7327 166.42 72.6793 166.351 72.3815L166.353 72.3827ZM200.518 70.6085C199.723 70.6289 198.847 70.1891 198.443 69.4946C198.093 68.8945 198.222 68.4183 198.052 67.9227C197.928 67.5613 197.426 67.2533 197.311 66.702C197.191 66.1269 197.449 65.0745 197.36 64.8619C197.287 64.6903 196.382 63.6196 196.129 63.8776L197.748 73.75C198.086 74.233 200.551 73.7454 200.891 73.2885L200.519 70.6096L200.518 70.6085ZM159.153 70.0936C158.951 69.8265 158.398 70.9222 158.256 71.0756C155.969 73.5545 153.14 73.309 150.648 71.237C150.826 73.0578 150.834 74.8729 150.626 76.6949C150.533 77.5132 150.044 78.8737 150.037 79.5272C150.031 80.0296 150.697 80.6411 150.64 81.4401C150.59 82.1425 149.865 82.8779 149.831 83.2643C149.772 83.9156 150.198 84.735 149.92 85.6386C149.641 86.5422 148.364 86.5695 148.683 87.5924L160.137 87.9197C160.223 81.9584 159.992 75.9856 159.153 70.0913V70.0936ZM106.575 79.3533C106.718 79.176 107.05 78.8453 106.896 78.5952C106.55 78.3372 104.382 76.9608 104.185 77.1268L105.657 80.1535C105.764 80.2285 106.481 79.4693 106.575 79.3522V79.3533ZM143.939 79.5806C145.299 79.2681 146.983 80.1228 148.015 80.9832C148.293 81.215 149.085 82.2357 149.254 82.1948C150.725 80.266 146.957 78.5373 145.501 78.0985C144.19 77.7041 141.609 77.3859 140.295 77.653C138.593 77.9985 134.352 82.5551 133.058 83.9929C132.08 85.0783 131.157 86.857 129.79 87.2685L129.871 86.2865C125.628 85.7784 121.405 85.076 117.17 84.5077C115.145 84.2361 112.471 84.3372 110.567 83.5859C110.369 83.5075 110.117 83.4177 110.075 83.1802C110.643 83.1472 111.227 83.22 111.794 83.1791C112.038 83.1609 112.268 83.3064 112.199 82.9358L107.864 79.2692C105.457 82.3391 101.748 86.5933 103.047 90.776C104.943 96.8771 113.1 95.6576 118.001 95.4394C122.218 95.2507 126.402 94.8404 130.591 94.2869C130.753 94.2653 131.204 94.2164 131.175 93.9766C130.72 94.0448 129.754 92.1217 129.869 92.0126C131.304 92.2808 131.937 94.3107 133.68 93.7777C133.902 93.7095 136.858 91.1488 137.229 90.7851C137.768 90.2554 138.33 89.3927 138.864 88.8222L137.557 88.9881C139.986 85.2886 142.321 90.0849 144.802 89.5234C146.884 89.0529 144.044 86.3069 143.272 85.7261C142.64 85.251 141.699 84.9373 141.156 84.327C142.825 83.9928 144.505 85.1806 145.477 86.4649C146.074 87.2548 146.418 89.337 147.35 88.1448C148.237 87.0105 146.956 85.6523 146.129 84.8316C144.808 83.52 143.54 83.4507 142.342 82.5744C142.193 82.4653 142.051 82.5687 142.139 82.2005C144.604 81.6083 147.392 83.6814 148.193 85.9591C149.695 85.4886 148.964 83.6121 148.259 82.7028C146.98 81.0525 145.51 80.9639 144.143 79.9569C143.995 79.8477 143.853 79.9523 143.938 79.5829L143.939 79.5806ZM160.137 89.0643C157.114 88.8574 154.079 88.8517 151.05 88.7449C150.223 88.7153 149.023 88.3323 148.2 88.6631C147.34 89.0086 145.252 92.3592 144.498 93.3037C141.633 96.8942 138.454 100.157 135.106 103.293C143.166 103.686 151.258 104.837 159.329 104.205C160.212 99.2219 160.09 94.1164 160.137 89.0643ZM145.247 90.5384C144.695 90.5373 144.153 90.5793 143.603 90.4657C142.68 90.2747 141.676 89.3245 140.999 89.1313C140.83 89.0836 140.703 89.0847 140.553 89.1836C136.879 92.4649 132.822 95.4757 129.733 99.3174C130.239 100.091 132.144 102.888 132.935 103.106C133.532 103.27 134.795 102.153 135.272 101.743C138.192 99.2287 140.881 95.9429 143.445 93.0673L145.249 90.5373L145.247 90.5384ZM169.788 92.8275V95.8531C169.788 95.9338 170.324 97.2227 170.433 97.334C171.266 98.1842 173.919 96.252 174.371 95.3643L169.788 92.8275ZM119.4 96.4259C116.656 96.5475 113.714 96.7487 110.967 96.5964C108.139 96.4396 105.186 95.8099 103.369 93.481C101.801 98.1012 99.4353 104.831 103.2 108.941C104.263 110.101 108.188 112.76 109.682 112.939C110.753 113.069 111.01 112.371 111.348 111.516C111.419 111.336 111.949 108.867 112.365 109.345C112.599 112.543 111.367 115.21 107.838 113.298L103.368 110.654C103.187 113.661 103.75 115.486 106.325 117.1C108.987 118.769 112.567 119.761 115.635 120.304L116.781 113.925C114.09 115.091 114.307 109.831 115.306 108.769C115.71 108.341 117.313 107.851 117.434 107.585L119.4 96.4248V96.4259ZM132.325 94.9552L120.497 96.4214L119.727 100.021C121.391 100.424 123.076 100.839 124.769 101.117C125.244 101.194 126.772 101.514 127.097 101.427C127.2 101.4 128.76 100.276 128.816 100.186C128.953 99.9664 128.545 99.2901 128.81 98.7172L132.325 94.9552ZM129.464 100.882C125.81 103.524 122.092 106.108 118.201 108.394C117.683 108.699 116.482 109.11 116.135 109.436C115.475 110.057 115.502 112.239 115.955 113.043C116.506 113.454 120.222 111.196 120.921 110.788C124.622 108.625 128.045 106.021 131.594 103.627C131.79 103.434 131.61 103.351 131.512 103.21C131.029 102.515 129.998 101.628 129.464 100.884V100.882ZM118.583 106.893L125.614 102.395L119.565 101.005L118.583 106.893ZM159.317 105.258C155.745 105.514 152.169 105.431 148.604 105.256C145.35 105.096 142.041 104.841 138.788 104.601C136.687 104.447 134.574 103.83 132.478 104.184C127.801 107.541 123.075 110.837 118.017 113.606C117.085 116.948 116.559 120.434 116.365 123.903C121.042 126.893 127.071 127.818 132.571 128.155C139.702 128.591 148.425 128.5 155.446 127.311C156.527 127.128 159.583 126.687 160.23 125.88C160.725 125.262 160.307 124.812 160.292 124.156C160.222 120.983 159.79 117.533 159.796 114.5C159.798 113.284 160.716 112.545 159.948 111.253C159.613 110.689 158.801 110.377 158.816 109.59L159.317 105.259V105.258ZM124.307 127.994L117.765 126.03C117.804 133.683 119.362 141.453 121.41 148.8C121.568 149.367 122.515 152.766 122.774 152.845C123.688 152.62 124.545 152.199 125.454 151.954C129.882 150.761 134.734 150.77 139.271 150.897C141.995 150.973 144.538 151.065 147.211 151.708L144.595 133.39C145.031 133.307 144.879 133.484 144.994 133.717C146.028 135.813 146.278 138.276 146.67 140.554C147.192 143.589 148.017 147.657 148.191 150.645C148.242 151.532 148.168 152.188 147.867 153.015C151.272 151.857 154.731 150.685 158.302 150.119C160.766 149.729 163.597 149.334 166.024 149.908C166.075 149.394 165.905 148.921 165.78 148.437C164.32 142.781 161.501 136.439 160.434 130.869C160.224 129.771 160.806 128.463 159.812 127.406C158.774 127.582 157.773 127.914 156.733 128.102C152.789 128.817 148.696 129.184 144.685 129.306C138.409 129.497 132.036 128.692 125.857 128.965C124.342 129.032 121.246 129.7 119.968 129.303C119.737 129.231 119.679 129.4 119.73 128.974L124.309 127.992L124.307 127.994ZM164.06 150.566C159.597 150.704 155.197 151.635 150.972 153.02L151.259 155.838L146.627 172.307C146.568 172.955 149.271 173.844 149.835 174.028C151.84 174.683 155.03 175.391 157.118 175.432C157.402 175.438 157.662 175.441 157.855 175.189C159.123 171.527 160.563 167.903 161.774 164.223C163.218 159.837 164.993 155.244 164.06 150.565V150.566ZM165.862 150.728L165.045 150.564V151.381C165.359 151.215 165.921 151.21 165.862 150.727V150.728ZM134.425 178.177C137.257 171.203 140.545 164.395 143.074 157.303C143.26 156.549 143.844 152.618 143.54 152.188C142.995 152.034 142.175 151.902 141.574 151.864C137.682 151.621 133.427 151.917 129.544 152.2C129.419 152.846 129.689 153.466 129.713 154.072C129.86 157.881 126.748 164.949 125.572 168.919C125.33 169.735 124.073 173.708 124.139 174.189C124.265 175.102 127.336 176.358 128.193 176.691C129.115 177.049 133.8 178.568 134.425 178.177ZM146.557 152.528L144.431 152.199V153.835C144.612 154.02 146.938 152.88 146.557 152.528ZM128.561 152.363C128.387 152.189 124.341 153.239 123.818 153.589C124.335 153.998 128.549 154.667 128.726 154.49L128.561 152.363ZM146.72 154.979H150.32L150.071 153.34C148.967 153.788 147.489 154.029 146.72 154.979ZM150.156 155.961H146.475C145.885 155.961 145.193 155.083 145.574 154.489C145.362 154.677 144.562 154.886 144.468 155.018C144.144 155.468 144.037 158.814 143.407 159.599L133.793 182.228L133.875 182.621L140.502 188.673C140.773 186.218 140.951 181.443 142.491 179.455C142.929 178.891 143.729 178.929 143.911 178.585L150.156 155.96V155.961ZM157.354 176.407C155.238 176.291 153.115 175.968 151.069 175.411C149.39 174.955 147.86 174.193 146.231 173.625C146.052 175.633 144.321 178.371 145.037 180.298C145.819 182.401 146.988 181.026 148.313 180.533C150.841 179.593 153.715 179.125 156.369 179.677L157.353 176.406L157.354 176.407ZM132.961 181.784C133.097 181.014 133.566 180.341 133.826 179.62C133.886 179.453 134.06 179.46 133.802 179.264C130.946 178.737 128.002 177.896 125.45 176.491C125.181 176.342 123.776 175.314 123.655 175.425L121.859 181.738C121.829 182.459 123.088 183.969 123.821 183.863C124.826 183.718 126.528 182.637 127.655 182.29C129.472 181.732 131.078 181.768 132.96 181.785L132.961 181.784ZM157.296 181.371C155.759 179.869 151.777 180.501 149.83 181.068C148.027 181.593 146.117 183.51 144.595 181.557C144.159 180.997 144.063 180.268 143.696 179.678C143.306 179.85 143.115 180.174 142.931 180.548C142.414 181.6 141.348 186.616 141.675 187.583C141.78 187.891 143.272 188.356 143.69 188.512C147.793 190.039 152.7 191.307 157.022 192.029C160.13 192.549 163.577 193.11 166.666 192.419C166.65 191.534 166.393 190.61 165.86 189.899C165.485 189.399 161.362 185.949 160.855 185.744C160.213 185.486 158.966 185.494 158.254 185.567C157.326 185.661 155.784 186.508 155.277 186.515C154.803 186.52 154.612 185.951 154.945 185.609C155.597 184.939 158.825 184.417 159.807 184.584C160.059 184.359 159.014 183.637 158.81 183.537C157.542 182.917 155.963 183.024 154.647 183.432C154.105 183.601 151.915 185.109 152.181 183.757C152.386 182.715 156.82 181.792 157.844 182.13C157.882 182.103 157.369 181.443 157.295 181.372L157.296 181.371ZM121.154 182.67C119.74 181.479 119.383 184.874 119.261 185.67C119.003 187.334 119.014 189.037 118.774 190.703C118.859 191.074 121.235 191.821 121.729 191.987C126.387 193.549 133.25 195.285 138.13 194.886C138.623 194.845 142.097 194.109 142.232 193.917C142.517 193.514 142 191.89 141.724 191.461C141.474 191.074 138.179 187.822 137.84 187.657C136.808 187.153 134.743 187.338 133.628 187.605C133.16 187.717 130.68 189.032 131.422 187.526C131.818 186.724 135.664 186.176 136.578 186.382C135.371 184.727 132.816 184.976 131.052 185.52C130.564 185.67 129.3 186.552 128.96 186.066C128.589 185.288 129.581 185.03 130.154 184.786C131.379 184.265 132.787 184.039 134.123 184.092C132.969 182.406 130.63 182.612 128.851 182.994C127.209 183.346 124.298 185.236 122.842 184.659C121.991 184.321 121.627 183.07 121.153 182.67H121.154ZM166.515 193.581C157.973 194.217 149.49 191.474 141.486 188.838C141.316 190.315 142.48 190.503 143.571 190.922C147.124 192.289 151.761 193.336 155.524 194.02C158.885 194.63 162.648 195.313 166.028 194.809L166.515 193.582V193.581ZM142.303 195.053C134.415 197.277 126.195 194.506 118.746 191.945C118.771 192.356 118.617 192.843 118.906 193.173C119.074 193.365 121.019 194.079 121.441 194.237C126.338 196.08 134.256 197.743 139.42 196.995C140.578 196.827 142.611 196.613 142.301 195.053H142.303Z" fill="black"/>
<path d="M168.477 37.5425L167.007 37.7084C167.241 38.0608 167.988 38.3597 168.121 38.8041C168.687 40.6897 165.606 38.895 164.966 38.6825C164.158 38.4154 163.018 38.1358 162.177 38.0369C161.66 37.9755 159.304 38.2711 159.309 37.4641C159.312 36.8549 160.674 36.4764 161.152 36.3525C162.9 35.9013 166.625 35.6922 168.068 36.8901C168.271 37.0572 168.527 37.2424 168.477 37.5425Z" fill="black"/>
<path d="M169.749 35.0512C168.963 35.8389 167.991 34.2545 167.413 33.7862C165.314 32.0904 162.376 31.7245 159.752 31.6313L159.495 31.3937C159.291 30.7822 159.948 30.5447 160.43 30.3947C162.842 29.6434 167.42 30.7993 169.135 32.7201C169.569 33.2054 170.33 34.4693 169.75 35.0512H169.749Z" fill="black"/>
<path d="M179.065 36.4353C183.457 35.4181 182.137 45.3268 178.344 43.3014C176.208 42.1603 176.818 36.9559 179.065 36.4353ZM180.038 42.2319C181.192 41.1192 181.325 37.1093 179.534 37.2207C177.744 37.3321 177.144 42.9025 179.346 42.6138C179.549 42.5865 179.887 42.3785 180.039 42.2319H180.038Z" fill="black"/>
<path d="M173.182 49.8505C176.445 49.3186 175.62 54.6139 172.651 54.8833C169.326 55.1856 170.293 50.3211 173.182 49.8505ZM174.369 52.4283L174.222 50.8598C173.987 50.5609 173.215 50.5325 172.894 50.7098L172.979 51.1212L174.369 52.4294V52.4283ZM172.009 51.4508C171.485 51.5656 170.578 54.7173 172.906 53.9899C174.556 53.4751 172.416 51.3622 172.009 51.4508Z" fill="black"/>
<path d="M147.842 43.2441C146.863 43.9579 146.199 41.4949 145.411 41.7188C144.112 42.0871 144.479 44.1 143.693 44.9024C142.559 43.5101 143.817 42.028 144.258 40.6618C143.764 40.1754 141.566 40.3697 141.817 39.5957C143.38 37.8545 148.927 41.529 147.841 43.2453L147.842 43.2441Z" fill="black"/>
<path d="M180.709 31.3692C182.828 31.0419 183.258 33.165 182.132 33.2969C181.789 33.3366 181.478 33.1275 181.158 33.1264C180.395 33.123 179.359 33.8765 178.736 34.3039C178.246 34.6392 177.517 35.4245 177.107 35.6212C176.348 35.9837 176.446 35.1461 176.623 34.6448C177.062 33.3957 179.399 31.5715 180.709 31.3692Z" fill="black"/>
<path d="M175.464 40.5401C176.016 41.0186 178.575 44.5488 178.983 45.2842C179.292 45.8411 179.29 46.0025 178.787 46.4674C178.61 46.5901 178.477 46.547 178.298 46.464C178.015 46.3321 175.018 41.854 174.772 41.313C174.366 40.4185 174.569 39.7616 175.466 40.539L175.464 40.5401Z" fill="black"/>
<path d="M169.709 56.0267C169.915 55.9858 170.905 56.8871 171.382 56.9781C171.771 57.0519 174.41 56.1893 172.98 57.5032C172.098 58.3135 170.254 58.1146 169.642 57.0724C169.481 56.7973 169.308 56.1063 169.708 56.0267H169.709Z" fill="black"/>
<path d="M121.526 131.753C121.436 131.318 121.636 131.471 121.848 131.347C123.699 130.259 128.173 129.13 130.286 129.294C130.578 129.317 130.814 129.248 131.011 129.547L121.526 131.754V131.753Z" fill="black"/>
<path d="M144.757 110.985L157.844 110.577C157.896 110.898 157.528 110.952 157.321 111.032C155.185 111.869 147.58 111.889 145.33 111.31C145.104 111.252 144.82 111.315 144.756 110.985H144.757Z" fill="black"/>
<path d="M195.923 28.5927C201.144 27.8448 203.75 36.0646 203.986 40.0733C204.224 44.1445 202.841 51.9188 197.352 51.2845C193.39 50.8265 191.157 44.406 190.748 41.0405C190.293 37.3023 191.151 29.2758 195.923 28.5927ZM199.071 50.1377C202.415 48.7193 203.174 43.4819 202.996 40.2461C202.792 36.5613 201.166 30.9386 197.272 29.6963C199.545 31.5615 200.738 34.5473 201.285 37.3762C202.093 41.5486 201.95 46.7632 199.071 50.1377ZM194.942 30.0509C194.396 30.1816 193.615 31.2228 193.307 31.7013C190.564 35.9805 191.367 44.5492 194.658 48.4158C196.097 50.107 197.368 50.822 198.906 48.7477C201.762 44.8935 200.892 36.4578 198.447 32.5241C197.843 31.5524 196.218 29.7452 194.941 30.0509H194.942Z" fill="black"/>
</svg>
