<svg width="300" height="200" viewBox="0 0 300 200" fill="none" xmlns="http://www.w3.org/2000/svg">
<path d="M140.578 192.453C139.634 195.81 142.148 195.645 144.627 195.82C148.298 196.093 151.887 195.395 155.405 194.554C154.08 197.922 156.043 198.787 159.045 199.025C162.284 199.404 165.528 199.121 168.765 198.842C171.067 198.64 173.355 198.308 175.62 197.836C177.745 197.679 178.12 196.908 178.187 194.861C180.349 195.307 182.789 194.982 184.728 196.156C185.928 197.812 182.71 198.156 181.674 198.445C175.618 199.434 169.482 199.892 163.35 200C160.711 200.008 158.129 199.715 155.589 198.999C152.727 198.349 150.129 196.771 147.17 196.594C143.377 196.364 139.315 196.629 135.74 195.206C133.762 193.188 139.423 192.701 140.578 192.453Z" fill="#CCCCCC"/>
<path d="M116.793 35.3965C116.842 35.6304 116.897 35.8937 116.952 36.1512C115.73 36.5226 115.544 37.3716 115.92 38.48C116.563 41.0034 117.225 43.5229 117.857 46.0483C119.176 50.9025 120.25 55.9218 122.531 60.4321C124.179 63.1756 127.903 62.926 130.692 63.2444C134.26 63.5451 137.888 63.6355 141.422 63.9971C140.453 74.2165 141.035 84.4969 140.828 94.7458C140.896 99.9026 140.584 105.046 140.464 110.201C140.392 111.309 141.954 111.354 142.634 111.816C141.385 123.004 139.618 134.173 139.999 145.456C140.071 150.182 141.358 154.769 142.431 159.34C144.481 168.074 146.507 176.761 148.565 185.502C146.847 187.049 145.179 188.68 143.146 189.812C142.063 190.455 141.041 191.225 140.578 192.451C137.329 198.432 152.273 195.501 154.785 195.112C154.682 197.266 154.803 198.512 157.141 198.966C163.447 200.216 170.019 199.094 176.288 198.001C178.055 197.628 178.673 196.649 178.186 194.863C178.108 192.693 178.21 190.529 177.897 188.373C178.689 188.004 179.453 187.511 179.402 186.518C179.443 185.05 179.656 183.572 179.653 182.1C179.584 177.796 179.459 173.49 179.498 169.184C180.217 150.113 178.783 130.655 181.091 111.787C182.088 111.38 184.145 111.331 183.967 109.847C183.789 107.774 183.406 105.686 183.064 103.668C183.59 103.36 184.223 103.554 184.727 103.157C184.454 101.449 184.18 99.7513 183.904 98.0396C192.22 96.7641 192.533 91.4166 191.675 84.2237C190.492 74.9005 188.795 65.5517 185.671 56.6745C184.354 52.2016 179.907 51.5687 176.298 49.629C174.373 48.8822 172.834 47.5085 170.891 46.8069C170.762 45.2189 170.533 43.6742 170.486 42.0824C172.672 41.3041 173.567 38.877 174.386 36.9C178.783 36.5148 181.533 30.6681 177.479 27.6946C179.178 19.8964 184.42 10.4238 173.944 6.86666C173.254 3.10906 169.562 0.212249 165.832 0C158.353 0.393054 150.887 2.8182 144.558 6.84308C141.52 8.80049 137.87 12.7743 140.701 16.3687C141.293 17.371 142.474 18.0825 142.74 19.24C143.138 21.6868 143.352 24.1768 144.114 26.5469C144.505 35.5655 143.549 46.2586 155.468 47.1371C155.665 47.5517 155.823 47.9507 155.817 48.4282C154.795 48.7486 153.845 48.4047 152.875 48.1295C151.265 47.707 149.615 47.5596 147.963 47.4436C146.489 47.2058 145.269 47.986 143.911 48.3752C140.026 48.8842 136.146 49.8098 132.219 49.7843C130.46 46.3333 129.222 42.5894 127.817 38.9674C126.996 37.5976 126.976 34.0012 124.701 34.974C124.312 34.2704 124.118 33.5216 123.952 32.7611M158.355 154.301C157.508 151.165 158.251 148.042 158.799 144.929C160.403 153.342 160.66 163.599 161.895 172.612C160.445 166.594 159.67 160.39 158.355 154.301ZM163.682 188.867C163.336 188.348 163.158 187.772 162.91 186.404C162.653 185.321 162.235 184.299 162.087 183.195C162.302 183.063 162.528 182.924 162.749 182.788C163.173 183.885 163.023 185.219 163.234 186.402C163.447 187.54 163.074 187.878 164.342 188.273C164.206 188.599 163.944 188.727 163.682 188.867Z" fill="black"/>
<path d="M177.518 187.349C173.544 188.47 169.122 188.379 165.113 187.444C164.391 187.21 164.284 187.066 164.217 186.314C163.809 181.41 163.275 176.521 162.737 171.631C161.664 160.435 160.519 149.245 159.358 138.057C158.967 133.813 158.505 129.576 158.069 125.337C157.704 123.317 158.112 120.851 156.932 119.135C156.709 119.204 156.719 119.347 156.715 119.463C156.562 121.226 156.914 122.957 157.047 124.714C157.497 129.802 158.056 134.881 158.572 139.961C158.23 143.092 157.596 146.212 157.02 149.319C156.631 154.991 158.675 160.518 159.543 166.079C160.532 171.287 161.57 176.495 162.526 181.699C160.22 183.342 150.967 187.008 149.222 183.969C147.576 176.822 145.858 169.69 144.194 162.546C143.115 157.937 141.985 153.34 141.176 148.675C141.842 140.56 142.611 132.432 143.557 124.335C143.75 121.31 144.552 118.186 144.043 115.195C143.684 115.503 143.723 115.924 143.672 116.289C143.267 119.117 142.978 121.959 142.538 124.783C142.486 125.121 142.589 125.575 142.067 125.675C142.151 122.045 143.002 118.467 143.195 114.843C143.244 113.85 143.244 113.85 144.237 113.658C145.742 113.381 147.255 113.141 148.641 112.463C150.193 111.688 150.956 109.843 151.104 108.167C151.327 107.043 150.917 105.922 151.184 104.816C153.737 105.368 156.312 105.525 158.914 105.506C159.399 105.51 159.833 105.435 159.887 106.068C159.897 107.349 160.806 107.231 161.801 107.202C162.325 108.021 162.116 109.155 162.364 110.083C162.454 111.35 163.445 111.928 164.336 112.669C165.457 113.748 166.807 114.057 168.305 113.878C172.148 113.255 176.044 113.591 179.711 114.945C178.601 127.159 176.957 139.361 177.95 151.664C177.981 159.993 177.111 168.353 177.485 176.69C177.662 179.921 177.416 183.158 177.766 186.379C177.807 186.73 177.77 187.07 177.518 187.349Z" fill="black"/>
<path d="M130.805 49.2794C130.805 49.2794 131.274 50.8065 132.144 50.7475C133.423 50.8281 134.689 50.6374 135.954 50.4841C139.238 49.9299 142.728 49.9673 145.818 48.6997C148.467 48.5051 150.953 49.3639 153.487 49.9044C153.786 49.9673 154.099 50.0518 154.234 50.3898C152.838 52.3924 151.581 54.4953 150.424 56.6433C149.697 58.3295 148.903 59.5028 150.043 61.2047C150.269 61.7471 150.226 61.9083 149.755 62.2325C149.169 62.657 148.277 62.8693 148.23 63.7379C147.824 66.6053 147.853 69.4942 147.922 72.3832C148.234 76.5102 148.788 80.6059 149.74 84.6386C149.833 89.9389 149.65 95.257 149.935 100.559C150.043 107.053 151.933 114.469 142.434 110.663C142.131 107.198 143.044 103.543 142.702 99.9952C142.206 93.1738 142.466 86.2187 141.883 79.4621C141.733 72.505 142.127 65.5715 143.001 58.6774C142.702 58.4946 142.577 58.6636 142.515 58.8346C141.996 60.2319 141.187 61.4779 140.466 62.7651C135.843 62.7003 131.069 62.3662 126.44 61.7373C124.434 61.2892 123.819 60.9767 122.808 58.756C121.799 56.4704 121.135 54.0256 120.415 51.6338C119.178 47.0705 117.888 42.5189 116.746 37.93C119 37.0043 121.582 37.1183 123.997 36.7764C125.296 36.6447 125.318 36.6526 125.777 37.8533C127.103 41.1982 128.522 44.5313 130.074 47.7662L130.064 47.7544C130.221 47.9195 130.805 49.2794 130.805 49.2794Z" fill="#D52B1E"/>
<path d="M173.49 28.4257C179.894 26.3641 180.048 35.6991 173.963 35.8957C172.811 35.9821 171.842 35.2864 170.745 35.3159C170.751 35.8288 171.289 35.935 171.539 36.3162C171.158 38.5409 169.387 40.4865 169.533 42.7761C169.541 44.537 170.249 46.4865 169.799 48.1688C168.423 50.1341 167.446 52.4354 165.846 54.2159C163.413 56.4367 157.47 57.3604 156.633 53.2117C156.821 52.9326 157.441 53.3119 157.386 52.8049C157.376 51.9716 157.343 51.1167 157.23 50.2932C159.896 48.3692 162.255 46.2074 165.066 44.5566C165.85 44.0437 166.544 43.686 167.16 42.9156C164.154 43.7705 161.421 45.3958 158.252 45.8006C148.169 47.7207 144.867 39.3821 145.266 30.7624C145.311 26.7119 145.159 22.6438 145.688 18.619C145.724 18.2908 145.726 17.9134 146.15 17.6854C146.687 19.7215 148.171 22.2803 150.652 21.5197C149.354 20.1302 149.006 18.7526 149.575 16.9367C151.57 15.6809 167.467 15.4274 168.087 17.992C169.054 21.3723 168.349 25.1142 170.032 28.294C171.019 30.106 172.653 30.8744 173.49 28.4257Z" fill="#EED3CA"/>
<path d="M185.016 85.8217C185.364 85.5642 185.364 85.5642 185.547 85.183C184.285 84.8842 183.071 85.6782 181.794 85.7018C180.703 81.7378 180.394 77.6068 179.423 73.6075C178.788 72.0392 176.256 73.8689 174.982 73.3697C174.264 70.8777 174.962 67.8768 173.59 65.658C173.142 66.7703 173.557 67.9672 173.506 69.1365C173.535 70.6694 173.836 72.167 173.901 73.6861C170.061 74.4624 166.269 74.9832 162.383 75.6612C163.356 72.5777 165.36 69.9069 166.879 67.0651C167.751 66.0117 166.537 65.318 166.097 64.4277C168.105 63.5512 168.431 64.0838 168.875 61.5781C169.78 57.1326 170.349 52.6164 171.369 48.1946C171.811 48.0413 172.022 48.3734 172.294 48.5542C173.936 51.2073 178.84 52.3629 181.603 53.8723C185.995 55.7432 187.242 72.8587 188.88 77.9685C194.317 98.6136 188.339 96.9648 170.443 97.9179C171.142 95.3434 170.943 92.7414 169.942 90.2711C170.177 89.88 170.597 89.9547 170.947 89.8918C175.695 88.8777 180.6 87.8086 185.016 85.8217Z" fill="#D52B1E"/>
<path d="M155.982 54.7212C158.283 57.5571 161.669 57.5296 164.908 56.1028C165.084 56.2954 164.914 56.4487 164.844 56.602C163.997 58.4218 163.205 60.2652 162.515 62.1519C160.951 66.6661 160.22 71.369 159.624 76.1053C158.668 76.6281 155.773 76.1682 155.693 77.479C156.152 81.8636 156.713 86.2029 157.216 90.6365C155.98 91.0296 155.634 92.5094 156.354 93.5392C155.66 94.9071 156.448 95.5536 156.543 96.7996C156.348 97.7606 157.138 98.2932 157.525 99.0381C157.697 99.8969 158.209 100.496 159.016 100.895C159.212 102.065 159.407 103.236 159.612 104.46C156.809 104.604 153.809 104.643 151.125 103.708C150.612 96.6247 150.638 89.4692 150.888 82.3667C151.13 72.9471 152.09 63.4057 155.982 54.7212Z" fill="white"/>
<path d="M156.77 77.6579C163.973 76.4395 171.173 75.221 178.429 73.9907C179.35 77.9272 179.981 81.9619 180.663 85.9533C177.033 86.8711 173.341 87.5255 169.681 88.3215C168.977 88.4649 168.385 88.7145 167.959 89.3277C167.736 89.65 167.56 89.6933 167.243 89.4967C166.387 88.9641 165.41 88.9091 164.468 88.7126C163.005 88.6811 161.152 87.3821 159.903 88.4119C158.451 90.1905 160.638 90.9766 161.989 91.6212C161.041 92.313 158.376 92.4839 158.22 90.8999C157.792 86.4761 157.045 82.0896 156.77 77.6579Z" fill="#AFC0D4"/>
<path d="M118.144 37.5622C117.735 37.5622 117.358 37.3028 117.221 36.8999L116.803 35.6756C116.738 35.4869 116.734 35.2884 116.781 35.1076C115.806 34.8639 114.76 34.5593 114.291 33.7437C113.188 31.8315 111.552 28.8895 110.266 26.3602C107.717 21.3527 107.805 20.5764 108.229 19.9632C108.258 19.9219 108.29 19.8826 108.323 19.8473C108.786 19.3599 109.267 19.2577 109.588 19.2577C109.834 19.2577 110.063 19.3127 110.278 19.4129C110.194 18.9432 110.192 18.4716 110.313 17.996C110.6 16.8718 111.406 16.7834 111.646 16.7834C112.227 16.7834 112.754 17.1293 113.427 18.0707C113.067 16.634 113.423 15.7516 114.484 15.447C114.643 15.3979 114.805 15.3723 114.967 15.3723C115.522 15.3723 116.015 15.6632 116.318 16.1683C116.451 16.3825 116.57 16.5987 116.682 16.8188C116.733 16.1152 116.983 15.559 117.571 15.2741C117.604 15.2584 117.636 15.2446 117.671 15.2328C117.898 15.1522 118.122 15.111 118.339 15.111C119.694 15.111 120.124 16.5083 120.331 17.1784C120.361 17.2747 120.388 17.3651 120.417 17.4477C120.425 17.4693 120.431 17.4909 120.437 17.5125C120.671 18.3831 120.894 19.2439 121.117 20.0988C121.463 21.4313 121.819 22.803 122.212 24.1846C122.538 23.8662 122.888 23.538 123.264 23.1863C123.696 22.7657 124.008 22.1781 124.339 21.5531C124.409 21.4234 124.477 21.2917 124.548 21.162C124.835 20.6137 125.449 20.26 126.116 20.26C126.903 20.26 127.525 20.7847 127.627 21.5354C127.633 21.5806 127.636 21.6258 127.635 21.671C127.627 23.5302 126.909 25.181 126.215 26.7768C125.693 27.9776 125.201 29.1135 125.013 30.2927C125.013 30.2986 125.011 30.3064 125.009 30.3123C124.749 31.7607 124.235 32.4348 123.766 32.8692C123.938 32.989 124.069 33.162 124.135 33.3624L124.64 34.8698C124.804 35.3572 124.565 35.8898 124.094 36.0883C122.677 36.6897 121.264 36.9609 119.897 37.2242C119.393 37.3205 118.873 37.4207 118.355 37.5367C118.285 37.5544 118.214 37.5622 118.144 37.5622Z" fill="black"/>
<path d="M121.41 24.9414C120.56 25.6411 118.304 29.151 119.692 29.8133C120.644 26.9951 121.821 25.8828 123.93 23.9018C124.591 23.2592 124.974 22.4219 125.41 21.624C125.646 21.1583 126.575 21.0541 126.657 21.6653C126.645 24.6388 124.515 27.1976 124.049 30.1376C123.627 32.49 122.581 32.1225 122.009 33.3331C122.325 33.7124 122.806 33.4196 123.211 33.6771C123.361 34.1271 123.529 34.6263 123.717 35.1844C121.893 35.9587 120.079 36.1454 118.146 36.5778C117.997 36.1435 117.868 35.7681 117.728 35.3534C120.208 34.1586 115.827 34.4455 115.137 33.2486C113.171 29.8369 108.469 21.3332 109.031 20.5235C110.809 18.6486 112.406 26.7298 113.394 24.1317C112.899 22.1881 110.811 19.9988 111.261 18.2379C111.797 16.1409 114.316 21.6476 114.786 22.4868C115.114 23.0744 116.171 23.7996 116.078 22.7659C116.003 21.9483 114.934 19.6155 114.445 18.0925C114.297 17.5186 113.968 16.6106 114.766 16.3886C115.032 16.3001 115.307 16.3787 115.485 16.6814C116.545 18.3774 116.774 20.5196 117.894 22.1586C118.445 22.5458 118.678 21.9444 118.564 21.3725C118.355 20.3191 117.032 16.6283 117.997 16.1606C119.029 15.7951 119.25 17.0646 119.495 17.7721C120.142 20.1914 120.705 22.5163 121.41 24.9414Z" fill="#EED3CA"/>
<path d="M182.411 110.287C178.145 111.761 173.62 112.38 169.147 112.846C164.411 113.467 164.139 110.879 163.676 106.948C166.025 106.109 168.653 106.08 171.106 105.539C173.135 105.291 175.154 104.647 177.207 104.765C178.757 104.922 180.282 105.242 181.803 105.574C182.2 105.667 182.301 106.133 182.293 106.488C182.106 107.754 182.819 109.096 182.411 110.287Z" fill="#D52B1E"/>
<path d="M160.966 106.225C160.588 104.519 160.383 102.872 160.066 101.266C160.346 101.015 160.643 101.097 160.905 101.117C163.728 101.048 166.308 99.2873 169.1 99.0554C173.83 98.6231 178.489 99.2696 183.166 100.036C183.393 100.797 183.509 101.563 183.577 102.355C176.113 103.982 168.546 104.806 160.966 106.225Z" fill="#AFC0D4"/>
<path d="M164.116 189.759C164.775 189.331 165.141 188.599 165.907 188.708C167.963 189.063 170.061 189.038 172.024 189.865C172.452 190.007 172.888 190.042 173.31 189.898C174.528 189.781 175.587 190.879 176.719 191.268C177.597 191.734 177.077 193.652 177.132 194.552C170.419 196.417 163.063 197.457 156.193 195.928C156.096 194.287 159.454 193.2 160.59 192.206C160.969 191.962 161.471 191.636 161.855 192.049C164.163 194.8 164.849 193.35 162.523 191.249C163.571 188.786 165.162 193.668 166.263 192.842C166.802 192.111 164.623 190.488 164.116 189.759Z" fill="#D52B1E"/>
<path d="M141.745 192.933C141.438 191.512 145.107 189.855 146.165 189.048C146.98 189.317 147.523 190.016 148.256 190.423C148.528 190.565 148.817 190.335 148.819 190.017C148.694 189.197 147.627 188.971 147.15 188.374C147.191 188.01 147.406 187.859 147.744 187.731C148.331 187.947 149.222 189.018 149.832 188.468C149.965 188.289 149.947 188.051 149.756 187.874C148.327 186.941 148.254 186.86 149.718 185.846C150.827 186.151 151.955 186.084 153.071 186.021C155.913 185.986 158.689 186.674 161.527 186.774C162.45 186.756 162.349 188.818 162.691 189.549C156.427 192.33 148.579 194.092 141.745 192.933Z" fill="#D52B1E"/>
<path d="M157.193 91.7093C158.499 93.2088 160.373 93.1931 162.136 92.6978C165.272 92.3736 163.362 91.2298 161.738 90.4044C161.136 90.2 159.687 89.3451 160.983 88.9717C162.52 89.2114 164.046 89.5829 165.579 89.8698C166.973 90.2118 167.325 91.33 168.996 90.9035C170.177 91.8154 168.818 98.0296 167.508 98.3834C165.563 98.8609 159.175 101.848 158.573 98.7666C159.417 98.9179 162.404 99.2422 162.463 98.1102C161.921 97.4754 156.806 99.3857 157.607 96.4299C158.072 96.8524 163.3 97.6503 161.859 96.253C160.371 96.2707 158.923 96.1783 157.584 95.4571C156.982 95.1682 156.956 95.1191 157.14 94.3113C158.241 94.6061 161.482 95.8698 162.068 94.5255C162.05 93.8632 159.196 94.3565 158.352 93.818C157.535 93.6058 156.301 92.5269 157.193 91.7093Z" fill="#EED3CA"/>
<path d="M177.516 187.349C176.971 176.348 177.141 165.283 177.651 154.264C177.634 148.117 177.137 142.154 177.53 135.944C178.052 130.865 177.927 125.447 179.281 120.575C178.388 137.142 178.926 153.743 178.492 170.326C178.107 172.647 179.647 187.843 177.516 187.349Z" fill="#6A6969"/>
<path d="M166.155 66.2494C164.974 68.4898 163.678 70.5809 162.482 72.8036C161.772 73.7273 161.827 75.3191 160.715 75.836C161.411 66.499 164.709 57.5039 169.928 49.7568C170.033 51.4843 169.25 53.1823 169.05 54.9137C168.52 57.555 168.348 60.2828 167.465 62.8377C164.691 63.728 163.823 63.6513 166.155 66.2494Z" fill="#D52B1E"/>
<path d="M149.791 80.0004C148.957 74.6332 148.372 69.1363 149.246 63.7358C153.21 61.6899 149.993 61.3755 150.659 58.6988C151.971 55.6231 153.605 52.3568 155.955 50.0005C156.105 50.3248 155.734 50.4623 155.81 50.7846C155.925 50.8593 156.096 50.9713 156.281 51.0932C155.499 54.0332 153.844 56.7866 153.058 59.7758C150.927 66.2926 150.262 73.1435 149.94 79.963C149.891 79.9748 149.84 79.9866 149.791 80.0004Z" fill="#D52B1E"/>
<path d="M190.792 90.7466C190.407 84.5265 188.693 78.6346 187.473 72.5305C186.146 66.8764 185.671 60.8686 183.168 55.58C182.283 53.2256 172.098 51.3036 172.292 48.5581C173.938 49.5211 175.615 50.4192 177.353 51.2034C180.049 52.585 183.641 53.3023 184.65 56.5646C187.06 63.6101 188.667 70.9661 189.885 78.3104C190.325 82.4355 191.474 86.594 190.792 90.7466Z" fill="#FCA6A6"/>
<path d="M142.063 125.677C142.962 122.151 142.81 118.25 143.726 114.705C145.314 113.599 144.037 121.086 144.104 121.882C143.365 128.079 142.753 134.295 142.118 140.507C141.951 142.571 141.828 144.626 141.545 146.668C141.291 147.205 141.822 148.201 141.191 148.49C140.454 140.881 141.269 133.245 142.063 125.677Z" fill="#6A6969"/>
<path d="M141.883 79.4619C142.739 80.2598 142.329 85.116 142.456 86.5526C142.665 88.9149 142.632 91.3125 142.63 93.7003C143.207 99.3131 143.169 105.058 142.434 110.663C142.143 110.558 141.852 110.456 141.543 110.346C141.817 100.066 141.924 89.7639 141.883 79.4619Z" fill="#FCA6A6"/>
<path d="M177.086 195.704C177.149 196.407 177.11 196.529 176.656 196.637C175.808 196.84 174.954 197.03 174.092 197.17C170.114 197.669 159.11 199.595 156.176 197.132C158.43 196.934 161.034 197.913 163.432 197.681C168.061 197.561 172.565 196.659 177.086 195.704Z" fill="#CCCCCC"/>
<path d="M185.016 85.8213C184.482 86.7135 182.631 86.8629 181.689 87.3424C177.854 88.5825 173.938 89.7538 169.939 90.2726C169.712 90.0781 169.595 89.8324 169.606 89.4728C174.644 87.9575 180.029 87.5586 185.016 85.8213Z" fill="#FCA6A6"/>
<path d="M130.072 47.7678C127.928 44.4642 126.729 40.4924 125.093 36.8841C123.782 36.9961 122.468 37.5248 121.211 36.9981C122.607 36.5068 124.083 36.1334 125.543 35.8838C127.179 39.7632 128.604 43.8078 130.072 47.7678Z" fill="#FCA6A6"/>
<path d="M158.321 192.365C157.244 194.01 141.993 196.291 141.434 194.023C144.499 194.179 147.554 194.521 150.617 193.923C153.028 193.579 155.426 193.151 157.75 192.412C157.921 192.367 158.087 192.225 158.321 192.365Z" fill="#CCCCCC"/>
<path d="M154.232 50.3894C151.495 49.5227 148.584 49.1925 145.816 48.7012C148.684 47.7225 151.841 49.0687 154.73 49.6013C154.725 49.9413 154.498 50.1752 154.232 50.3894Z" fill="#FCA6A6"/>
<path d="M157.252 8.04791C155.391 8.78882 154.214 10.3669 152.457 11.0292C152.49 10.0997 156.461 7.16157 157.252 8.04791Z" fill="white"/>
<path d="M182.414 110.287C182.183 108.756 181.888 107.247 182.058 105.698C182.895 105.448 182.903 109.32 183.014 110.043C182.799 110.13 182.606 110.208 182.414 110.287Z" fill="#BCBDDE"/>
<path d="M169.781 11.6736C170.139 10.9367 171.322 12.0785 171.648 12.4656C171.98 12.7172 172.973 15.1325 171.955 14.4761C171.519 13.3166 170.792 12.3851 169.781 11.6736Z" fill="white"/>
<path d="M172.348 11.8271C173.597 12.5602 174.191 13.9359 173.896 15.3705C173.286 15.3627 173.321 13.2952 172.559 12.6427C172.404 12.4266 172.154 12.2241 172.348 11.8271Z" fill="white"/>
<path d="M151.73 9.86196C152.628 8.87736 153.374 7.70409 154.704 7.70606C154.113 8.57274 152.896 9.11909 152.084 9.85803C152.045 9.88554 151.969 9.86196 151.73 9.86196Z" fill="white"/>
<path d="M152.004 7.79046C152.063 7.34041 154.674 5.39872 154.676 6.23593C153.851 6.81568 153.011 7.5841 152.004 7.79046Z" fill="white"/>
<path d="M161.104 34.7777C160.852 34.6028 160.631 34.4514 160.385 34.2805C158.995 37.0849 153.603 38.5962 151.598 35.9234C153.705 36.3302 155.638 36.3204 157.55 35.2729C158.16 34.8661 159.501 34.3001 159.147 33.3961C159.27 32.3407 162.238 33.9503 161.104 34.7777Z" fill="black"/>
<path d="M165.532 24.1317C165.241 24.4127 164.961 24.3086 164.637 24.169C162.492 23.2395 160.616 24.6132 158.678 25.3168C156.436 24.7233 161.996 21.8284 163.497 22.5359C164.388 22.6971 165.389 23.1019 165.532 24.1317Z" fill="black"/>
<path d="M152.091 25.5052C150.758 25.0099 149.268 24.0018 147.796 24.6935C145.634 25.2418 148.054 22.858 149.409 23.1646C150.621 23.2609 152.357 23.424 152.91 24.6817C153.067 25.179 152.754 25.5642 152.091 25.5052Z" fill="black"/>
<path d="M163.152 26.7886C163.703 26.7964 164.927 26.8043 165.212 27.5825C165.339 27.9402 165.11 28.3097 164.737 28.3215C162.896 28.0306 161.07 28.0798 159.301 28.6969C159.092 28.7774 158.877 28.8423 158.701 28.6399C158.409 27.1639 161.932 26.7886 163.152 26.7886Z" fill="black"/>
<path d="M149.752 27.0578C150.864 27.1364 152.207 27.5078 152.927 28.4826C153.286 28.9837 152.706 29.7345 152.127 29.5203C150.9 28.8874 149.648 27.9716 148.2 28.5239C146.077 29.2864 147.719 26.875 149.752 27.0578Z" fill="black"/>
<path d="M174.525 31.7822C173.935 32.022 172.623 33.3289 172.686 32.0869C173.303 31.0885 174.404 30.438 175.436 29.927C176.109 29.4082 177.747 30.0705 176.629 30.7839C176.345 30.892 176.019 30.9175 175.788 31.2084C175.929 31.6958 176.928 33.8654 175.714 33.3938C175.399 32.7885 175.106 32.2578 174.525 31.7822Z" fill="black"/>
<path d="M154.743 28.7815C154.674 29.5106 152.93 34.5967 152.113 32.5863C152.328 31.1811 153.284 29.9685 153.816 28.6577C154.088 28.0878 154.746 28.0485 154.743 28.7815Z" fill="black"/>
</svg>
