<svg width="300" height="200" viewBox="0 0 300 200" fill="none" xmlns="http://www.w3.org/2000/svg">
<path d="M109.074 194.695C108.813 196.191 109.703 196.867 111.038 197.235C116.489 199.36 122.32 198.143 127.761 196.635C129.623 195.97 133.154 195.929 132.68 193.223C133.792 192.6 135.045 192.676 136.235 192.613C139.819 192.425 143.408 192.322 146.998 192.402C147.476 192.413 147.982 192.322 148.386 192.697C148.464 193.809 148.843 194.813 149.974 195.207C153.609 196.755 157.264 198.254 161.177 198.975C163.963 199.434 166.936 199.686 169.643 198.711C171.38 198.098 170.417 195.222 169.908 193.984C171.715 194.177 178.601 195.683 175.855 198.307C173.136 199.897 169.748 199.552 166.717 199.987C162.611 200.099 158.54 199.488 154.497 198.834C147.8 197.802 140.942 198.591 134.186 198.349C126.641 198.665 119.173 200.404 111.586 199.589C105.27 199.356 97.2335 196.049 109.074 194.695Z" fill="#CCCCCC"/>
<path d="M196.872 14.2687C196.665 12.4273 195.977 10.6811 195.307 8.96913C194.862 8.05698 194.715 7.0382 193.908 6.34885C191.605 3.67335 189.349 2.92497 186.747 5.91849C186.157 4.41982 186.031 2.82595 185.489 1.31777C184.512 -0.967359 180.736 -0.078064 181.414 2.43367C182.569 6.3717 181.773 10.4069 181.353 14.3944C180.856 16.8414 182.204 19.2103 181.699 21.5983C180.939 21.823 180.322 22.0134 180.261 22.9141C180.092 24.2433 179.894 25.5668 179.742 26.8978C179.368 31.569 178.527 36.1374 178.134 40.8143C173.279 44.0687 167.699 46.1538 162.55 48.9055C162.255 48.7513 161.744 48.7798 161.643 48.4466C163.401 46.2681 164.521 43.7716 164.271 40.9209C164.039 36.1393 162.973 31.4529 161.982 26.8045C162.338 23.5977 162.184 20.3586 162.217 17.1346C162.485 12.5625 159.747 9.9803 155.201 10.2564C152.492 4.55503 145.979 4.51694 141.102 7.3962C133.788 11.3133 126.786 16.5957 122.573 23.8739C120.643 27.6386 122.92 30.2989 125.297 33.0029C126.331 35.547 127.26 38.1654 128.444 40.6391C126.167 44.24 129.633 48.4409 133.504 48.3723C134.708 49.9167 135.962 51.6876 138.051 51.8C137.76 55.38 138.221 54.8621 135.119 56.5207C133.413 57.5204 131.718 58.543 130.012 59.5428C127.82 60.9272 125.19 61.8488 123.727 64.1149C117.75 72.031 110.904 79.471 106.597 88.501C103.792 94.987 107.436 98.6527 112.153 102.577C113.848 103.846 123.552 112.916 124.952 111.038C126.481 111.905 127.193 113.666 128.934 114.214C128.5 116.033 128.035 117.762 127.734 119.588C127.456 120.817 128.987 120.78 129.734 121.241C128.418 134.674 124.624 147.747 122.711 161.103C121.52 168.774 120.446 176.467 119.106 184.113C118.986 184.72 119.03 185.308 119.409 185.863C117.891 187.316 116.139 188.515 114.318 189.565C111.95 190.719 109.626 191.855 109.072 194.691C107.379 198.195 117.106 198.951 119.294 198.627C123.291 198.132 127.182 197.203 131.002 195.976C132.679 195.437 132.91 194.954 132.908 193.215C132.908 193.209 132.91 193.204 132.91 193.198C132.832 193.205 132.754 193.213 132.678 193.221C132.577 191.349 132.495 189.582 132.342 187.691C133.02 187.241 133.196 186.798 133.338 186.021C134.026 184.29 134.397 182.463 134.953 180.694C138.773 170.461 142.262 160.064 146.164 149.887C146.501 152.029 146.16 154.271 146.303 156.459C146.337 161.332 146.802 166.18 147.121 171.038C147.407 175.869 147.868 180.685 148.38 185.497C148.43 185.977 148.388 186.501 148.95 186.769C148.561 188.748 148.544 190.703 148.384 192.693C148.314 192.691 148.243 192.691 148.173 192.689C148.112 194.16 148.906 195.051 150.184 195.599C156.203 198.044 162.967 200.996 169.527 199.017C171.605 198.507 170.978 195.197 169.908 193.981C167.067 192.076 164.898 189.334 162.815 186.678C163.27 186.101 163.807 185.573 163.771 184.785C163.852 182.473 163.957 180.161 164.05 177.849C164.17 174.077 164.372 170.309 164.618 166.542C165.507 151.9 166.111 137.241 166.804 122.593C169.971 122.119 168.465 119.061 168.516 116.877C168.225 112.226 167.95 107.576 167.686 102.926C167.126 97.4511 167.766 91.982 167.754 86.4996C167.703 80.7754 167.794 75.0473 167.358 69.3364C174.419 64.1968 181.905 59.558 188.41 53.7005C191.611 50.4099 190.746 45.3026 191.394 41.1075C191.47 38.6681 192.955 22.8589 190.897 22.5485C190.99 22.16 191.074 21.8096 191.156 21.465C193.498 19.8254 196.741 17.3365 196.872 14.2687ZM128.93 102.448C128.77 101.686 128.755 101.7 128.286 101.241C125.639 98.6756 123.059 96.002 120.7 93.1741C121.263 91.9211 124.51 87.8974 126.245 86.2883C127.631 90.9309 128.328 95.823 129.297 100.587C129.328 101.227 129.478 102.018 128.93 102.448Z" fill="black"/>
<path d="M130.45 124.709C130.397 123.677 130.61 122.671 130.713 121.607C134.297 122.626 137.789 123.913 141.486 124.537C147.522 125.432 147.648 117.623 147.69 113.466C151.437 113.584 155.252 113.715 159.009 113.771C159.121 113.828 159.275 114.009 159.252 114.093C159.108 115.881 159.65 117.64 159.862 119.404C160.774 122.507 162.537 123.536 165.662 122.932C164.165 132.853 164.979 143.043 164.28 153.037C163.973 163.398 163.061 173.732 162.798 184.097C163.164 187.854 153.709 187.474 151.327 186.811C148.853 186.401 149.352 184.421 149.086 182.488C148.642 178.655 148.32 174.814 148.162 170.958C147.764 165.38 147.269 159.803 147.254 154.21C147.581 147.728 149.973 141.504 150.925 135.087C151.475 132.254 152.869 129.553 152.938 126.645C152.681 126.567 152.587 126.699 152.532 126.838C151.689 128.7 151.159 130.667 150.567 132.619C149.424 136.214 148.181 139.777 147.016 143.365C143.862 153.433 140.097 163.303 136.563 173.243C135.348 176.461 134.076 179.651 133.248 182.995C132.93 184.073 132.537 185.128 132.238 186.211C131.989 186.998 130.911 186.883 130.252 187.015C126.945 187.152 123.452 186.925 120.506 185.272C119.524 184.703 120.424 183.366 120.417 182.488C123.953 163.611 128.35 143.626 130.944 124.699C130.73 124.616 130.597 124.764 130.45 124.709Z" fill="black"/>
<path d="M127.183 102.242C125.136 104.263 124.081 106.921 123.03 109.509C119.412 107.848 116.393 104.644 113.202 102.198C108.075 97.95 104.295 94.1415 108.306 87.4004C108.397 87.3604 108.47 87.2975 108.527 87.2157L108.515 87.2233C114.459 79.3282 121.261 72.0615 126.749 63.8331C127.088 63.2637 127.562 62.8905 128.165 62.601C130.694 61.3899 133.145 60.0398 135.417 58.3831C135.714 58.166 135.965 57.7661 136.443 57.9565C135.95 62.0869 136.655 66.2001 137.081 70.3019C136.977 71.9453 139.606 71.6654 139.13 72.7527C138.74 73.5068 137.753 74.2609 138.279 75.1769C139.041 76.6336 139.799 78.0923 140.536 79.5605C142.552 83.5214 144.506 87.5108 146.256 91.5974C146.984 96.7104 146.685 102.069 146.675 107.258C146.338 111.746 147.199 116.423 145.835 120.769C145.18 122.391 143.779 123.962 141.861 123.536C137.439 122.717 133.134 121.361 128.891 119.895C128.619 118.343 129.137 116.61 130.249 115.45C131.498 114.264 132.471 112.847 133.433 111.421C135.044 111.657 136.775 111.811 137.123 109.776C138.271 109.279 138.169 108.313 138.641 107.374C140.185 104.722 136.476 103.756 134.564 103.248C135.571 102.505 136.954 103.471 137.837 102.596C139.273 101.185 138.062 99.4868 136.314 99.2754C134.215 98.8584 132.241 99.7362 130.702 101.098C129.973 101.098 129.716 96.1467 129.35 95.2155C128.923 93.1018 128.375 91.0128 127.931 88.9028C127.895 86.0674 130.841 82.9787 130.578 80.067C130.035 79.8214 129.104 81.5143 128.64 81.8666C126.177 84.841 123.517 87.646 121.101 90.6586C119.097 92.6581 119.669 94.8156 121.415 96.737C123.096 98.8146 124.943 100.74 127.183 102.242Z" fill="#D52B1E"/>
<path d="M178.156 42.0387C178.681 41.6826 179.1 41.317 179.094 40.6162C179.256 38.2016 179.637 35.806 179.995 33.4142C180.241 31.5576 180.595 29.7009 180.679 27.8309C180.814 27.1339 180.757 23.0302 181.703 23.4587C183.891 23.8129 185.929 24.7098 188.119 25.0316C189.711 25.2582 189.842 25.403 190.069 27.0102C190.267 34.334 190.293 41.7264 189.638 49.0026C189.349 50.9202 188.564 52.6436 186.95 53.7804C184.019 56.3055 180.858 58.5297 177.721 60.7805C174.239 63.1818 170.916 65.8364 167.301 68.0301C166.922 67.196 166.837 66.2934 166.271 65.4764C166.14 65.7602 166.065 65.863 166.105 66.1258C166.679 70.3838 166.694 74.6817 166.677 78.9701C166.701 85.7588 166.877 92.538 166.191 99.2868C166.134 106.296 166.383 113.312 167.054 120.291C167.099 120.689 167.118 121.081 166.846 121.422C159.111 124.905 160.486 114.527 160.206 109.92C160.073 103.16 159.875 96.3085 160.084 89.5902C161.975 83.1786 162.095 76.4032 161.177 69.8163C161.063 69.0051 160.911 68.1996 160.766 67.394C160.695 66.3143 157.862 66.6342 158.574 65.4612C159.3 64.8328 159.911 64.0368 159.162 63.1513C157.275 59.9007 154.655 57.2005 152.02 54.5612C152.197 53.9042 152.168 53.1368 152.996 53.0796C154.236 52.8759 155.419 52.4855 156.559 51.979C157.727 51.461 158.875 50.8973 159.856 50.0576C160.126 49.8271 160.41 49.69 160.764 49.7148C162.63 50.9907 164.42 50.5032 166.223 49.5263C170.281 47.3268 174.265 45.0131 177.975 42.252L177.965 42.2634C178.045 42.2043 178.108 42.1301 178.156 42.0387Z" fill="#D52B1E"/>
<path d="M143.686 52.4913C145.958 53.849 148.287 54.8126 150.64 56.0199C150.581 57.3967 150.063 58.6954 150.212 60.095C150.223 60.2988 150.155 60.5406 150.397 60.6606C151.174 60.573 150.945 59.0134 151.297 58.4078C153.893 65.1071 141.845 65.1318 139.66 60.6549C138.118 57.1662 138.501 56.1227 138.994 52.4913C139.39 50.427 137.463 49.4025 136.831 47.4868C137.307 46.967 139.169 45.3122 138.381 44.6704C133.479 51.1468 124.836 44.3467 130.6 39.9478C135.821 37.0705 135.182 43.2746 137.646 41.2656C141.235 38.2911 134.189 28.0671 136.697 25.9895C138.219 27.8519 140.435 29.6057 142.981 29.2325C144.311 29.0097 145.419 27.9243 145.274 26.5589C142.852 28.0804 140.843 26.4713 140.354 23.9767C144.362 21.107 152.425 19.6883 157.399 19.4331C159.558 20.1815 161.495 29.5924 162.102 32.0546C162.835 37.1733 164.909 43.2327 161.042 47.5668C157.741 51.4382 152.362 52.754 147.451 52.5408C146.363 52.6493 144.53 51.8895 143.686 52.4913Z" fill="#EED3CA"/>
<path d="M140.901 63.3132C144.595 65.4708 150.876 65.705 152.656 61.0224C161.957 76.527 158.154 95.4307 159.228 112.651C155.37 112.739 151.533 112.723 147.673 112.457C147.587 95.0308 148.804 79.6214 140.773 63.4484C140.817 63.4027 140.859 63.357 140.901 63.3132Z" fill="white"/>
<path d="M186.549 10.5649C186.309 12.1302 187.145 12.3854 187.335 13.5717C187.28 14.1925 187.478 14.7219 188.038 15.0494C188.301 15.2037 188.385 15.4589 188.518 15.695C189.323 17.2565 191.829 17.9363 192.888 16.3082C195.341 16.8813 192.578 14.3011 191.709 14.6971C191.641 15.0323 192.187 15.2741 191.991 15.636C191.452 16.5748 190.323 16.3044 189.668 15.615C189.264 15.0075 190.055 14.2668 190.47 13.8631C191.78 12.6158 195.712 11.5856 195.882 14.2382C195.503 17.6164 192.083 19.6597 189.481 21.3754C189.259 21.9677 188.697 22.0019 188.213 22.1143C186.353 22.4209 184.433 23.3406 182.567 22.598C182.544 21.6458 182.763 20.728 182.834 19.7835C182.514 17.9858 182.076 16.2225 182.346 14.3753C182.558 11.6522 183.051 8.9253 182.944 6.18886C183.114 4.90348 181.67 1.91949 182.733 1.19587C183.357 0.778831 184.178 0.974971 184.54 1.63766C185.26 3.23915 185.374 5.06344 185.797 6.76396C185.848 8.1198 185.185 9.57847 186.549 10.5649Z" fill="#EED3CA"/>
<path d="M116.378 189.608C117.528 189.936 118.265 190.829 119.274 191.351C121.417 191.318 117.979 189.3 117.498 188.909C118.505 187.02 120.308 189.755 121.558 189.942C123.077 189.346 119.785 187.864 119.303 187.426C119.518 186.984 119.87 186.75 120.213 186.457C122.82 187.626 125.89 187.533 128.141 189.408C128.699 189.791 129.316 189.174 129.898 189.536C132.01 190.065 131.528 190.334 131.578 192.263C131.509 193.23 129.152 193.352 128.367 193.779C123.835 194.832 119.027 196.212 114.378 195.235C113.2 194.965 111.994 194.746 110.848 194.352C109.191 192.739 115.239 190.368 116.378 189.608Z" fill="#D52B1E"/>
<path d="M161.823 187.182C163.067 188.458 163.72 188.854 161.534 189.317C160.909 189.582 159.209 190.204 159.485 191.035C159.66 191.273 160.001 191.255 160.227 191.113C161.355 190.336 162.604 189.921 164.009 189.82C164.272 189.974 164.483 190.21 164.624 190.499C164.15 191.088 160.372 191.669 162.075 192.819C163.112 192.158 164.198 191.688 165.498 191.65C166.689 192.983 168.616 193.803 169.374 195.46C169.318 197.581 161.656 196.429 160.195 195.94C156.725 195.035 153.368 193.746 150.104 192.278C149.661 192.093 149.396 191.838 149.453 191.32C149.424 190.758 149.468 190.161 150.1 190.147C154.042 189.205 157.94 188.431 161.823 187.182Z" fill="#D52B1E"/>
<path d="M137.65 57.8823C141.362 67.9425 146.328 77.9057 146.374 88.8667C146.137 88.9162 146.099 88.741 146.042 88.6191C145.054 86.4654 144.079 84.3002 143.009 82.1846C141.819 79.8556 140.607 77.5382 139.391 75.2245C138.863 74.2971 139.981 73.5487 140.308 72.7375C141.066 71.5721 139.242 71.2617 138.532 70.7856C137.696 70.1039 137.915 66.6914 137.566 65.4365C137.311 62.9495 136.974 60.394 137.484 57.9223C137.538 57.9089 137.593 57.8956 137.65 57.8823Z" fill="#D52B1E"/>
<path d="M127.494 103.364C128.006 103.564 128.404 104.139 128.911 103.693C130.019 102.836 131.12 101.972 132.236 101.126C133.142 100.081 138.133 99.4525 137.293 101.69C136.932 102.288 136.086 101.913 135.507 101.995C133.982 101.955 132.316 103.166 131.55 104.335C131.718 104.546 131.965 104.506 132.188 104.409C133.178 104.11 134.167 104.105 135.151 104.428C136.124 104.775 138.973 105.432 137.657 106.854C136.825 105.978 131.788 104.617 131.442 106.096C131.643 106.489 132.108 106.224 132.443 106.224C133.546 106.017 137.309 106.578 137.379 107.871C137.097 110.12 134.336 107.289 131.691 107.881C131.217 107.925 131.194 108.61 131.746 108.606C133.003 108.566 134.233 108.787 135.408 109.231C136.774 110.132 135.393 110.93 134.279 110.575C128.865 109.463 132.426 110.707 129.952 112.914C128.227 114.001 127.186 111.272 125.931 110.547C124.86 109.823 126.323 104.032 127.494 103.364Z" fill="#EED3CA"/>
<path d="M136.448 57.9584C134.022 59.6894 131.474 61.209 128.813 62.5515C128.132 62.9095 127.349 63.0847 127 63.835C123.514 69.2793 119.21 74.1447 115.171 79.1739C112.816 81.7295 111.172 84.9724 108.52 87.2233C112.499 78.8826 119.218 71.8215 124.752 64.4158C125.837 62.7991 127.699 62.1231 129.305 61.1576C131.757 59.7427 134.09 58.0746 136.613 56.8044C136.783 57.2424 136.522 57.589 136.448 57.9584Z" fill="#FCA6A6"/>
<path d="M130.45 124.709C130.631 124.292 130.783 124.061 131.274 123.943C130.358 134.283 127.78 144.386 125.891 154.579C124.794 161.025 123.84 167.492 122.406 173.883C122.046 175.572 121.673 177.257 121.313 178.946C121.233 179.291 121.239 179.679 120.875 179.895C123.29 161.796 126.984 143.913 130.236 125.96C130.2 125.891 130.212 125.836 130.28 125.794C130.387 125.48 130.33 125.147 130.442 124.84C130.431 124.795 130.434 124.751 130.45 124.709Z" fill="#6A6969"/>
<path d="M160.728 76.5803C160.808 79.2311 160.749 82.1789 160.029 84.6677C159.54 77.4239 158.357 69.9211 155.025 63.319C153.958 61.27 153.016 59.1524 151.757 57.2043C151.422 56.6845 151.45 56.614 152.003 56.0123C152.353 56.1341 152.57 56.4103 152.757 56.7245C154.017 59.6075 156.584 61.7232 157.915 64.6139C157.298 65.4156 156.735 65.9602 157.687 66.7943C158.23 67.9006 159.898 67.954 159.93 69.3631C160.212 71.7644 160.465 74.1733 160.728 76.5803Z" fill="#D52B1E"/>
<path d="M189.637 49.0026C189.281 48.3723 189.708 47.6373 189.666 46.9612C189.679 45.2817 189.641 43.6231 189.847 41.9625C189.555 36.522 190.488 30.8168 189.407 25.5077C187.828 25.2202 185.933 25.2925 184.707 24.1385C186.764 24.2795 188.763 24.5251 190.827 24.4623C191.153 32.6354 190.648 40.8923 189.637 49.0026Z" fill="#FCA6A6"/>
<path d="M166.841 121.422C166.331 116.57 166.247 111.636 165.956 106.759C165.866 104.194 165.923 101.595 165.936 99.0221C165.948 98.3766 165.971 97.6834 166.413 97.1216C166.599 102.707 167.062 108.281 167.357 113.864C167.376 116.117 167.761 118.341 167.864 120.59C167.963 121.245 167.389 121.433 166.841 121.422Z" fill="#FCA6A6"/>
<path d="M177.975 42.252C174.892 45.3007 170.679 47.144 166.958 49.3549C165.543 49.9947 163.786 51.2953 162.22 50.6117C161.767 50.2328 160.876 50.4251 160.766 49.7148C161.116 49.532 161.485 49.532 161.815 49.7205C163.336 50.3508 164.728 48.6865 166.134 48.2428C170.129 46.3557 174.038 44.1657 177.975 42.252Z" fill="#FCA6A6"/>
<path d="M164.277 153.035C164.18 146.157 164.475 139.32 164.466 132.446C164.851 129.483 164.352 126.179 165.7 123.443C165.289 133.293 165.131 143.22 164.277 153.035Z" fill="#6A6969"/>
<path d="M110.109 195.218C113.324 195.993 116.582 197.012 119.926 196.464C123.837 195.995 127.711 195.026 131.454 193.996C131.679 195.174 125.092 196.026 123.934 196.549C119.64 197.66 115.04 197.848 110.862 196.18C110.407 196.012 109.98 195.875 110.109 195.218Z" fill="#CCCCCC"/>
<path d="M149.579 193.061C155.688 195.883 162.669 198.753 169.46 197.155C169.991 198.006 167.799 198.162 167.293 198.309C163.555 198.635 159.805 197.839 156.292 196.627C155.239 196.056 148.665 194.386 149.579 193.061Z" fill="#CCCCCC"/>
<path d="M193.172 7.13152C190.539 6.5412 188.665 7.67614 187.138 9.72133C185.517 8.39215 187.58 6.34506 188.686 5.39102C190.32 4.08659 192.245 5.75473 193.172 7.13152Z" fill="#EED3CA"/>
<path d="M195.154 11.9074C192.74 11.4313 190.506 12.2007 189.011 14.1506C188.742 14.4344 188.316 14.1202 188.337 13.7755C188.293 12.2692 189.784 11.3704 190.851 10.5459C192.273 9.52136 194.937 9.93078 195.154 11.9074Z" fill="#EED3CA"/>
<path d="M187.851 12.1321C186.035 9.56327 193.336 4.86163 194.558 9.77846C191.999 8.34073 189.365 9.98412 187.851 12.1321Z" fill="#EED3CA"/>
<path d="M127.185 102.242C125.671 102.158 118.739 95.0631 119.846 93.6292C122.319 96.4551 124.776 99.3477 127.516 101.882C127.415 101.991 127.299 102.117 127.185 102.242Z" fill="#FCA6A6"/>
<path d="M157.918 64.6119C156.262 62.5515 154.921 60.2188 153.226 58.1679C152.996 57.7318 152.413 57.2252 152.76 56.7244C154.889 58.6554 156.637 60.9919 158.153 63.4332C158.526 64.0578 158.535 64.0521 157.918 64.6119Z" fill="#FCA6A6"/>
<path d="M160.729 76.5803C160.065 73.9619 160.046 71.174 159.509 68.5328C158.821 67.9596 157.553 67.8359 157.69 66.7904C158.356 67.0722 159.023 67.3541 159.762 67.6683C160.603 70.4656 160.581 73.6591 160.729 76.5803Z" fill="#FCA6A6"/>
<path d="M137.855 17.7421C136.634 17.3574 138.239 12.1987 139.172 13.0271C138.352 14.4991 138.384 16.2148 137.855 17.7421Z" fill="white"/>
<path d="M136.771 12.5492C136.114 13.6061 135.814 15.2704 134.89 16.0378C134.61 15.3694 135.924 12.0141 136.771 12.5492Z" fill="white"/>
<path d="M156.927 12.8367C157.532 12.9071 158.134 13.0861 158.635 13.4994C159.191 13.9678 159.056 14.6134 158.288 14.1201C157.904 13.8631 155.523 13.1699 156.927 12.8367Z" fill="white"/>
<path d="M136.163 16.63C135.626 16.2987 136.353 13.7412 137.029 14.0726C136.835 14.8914 136.656 15.815 136.163 16.63Z" fill="white"/>
<path d="M157.375 11.9246C157.64 12.0236 158.034 12.1512 158.409 12.3245C158.687 12.513 158.662 13.0043 158.169 12.8577C157.684 12.7339 155.905 12.134 157.375 11.9246Z" fill="white"/>
<path d="M130.439 124.84C130.454 125.109 130.53 125.389 130.298 125.613C130.277 125.343 130.241 125.071 130.439 124.84Z" fill="#6A6969"/>
<path d="M178.157 42.0387C178.092 42.113 178.03 42.1872 177.965 42.2634C178.028 42.1891 178.092 42.1149 178.157 42.0387Z" fill="#FCA6A6"/>
<path d="M130.279 125.794C130.283 125.853 130.267 125.909 130.235 125.96C130.229 125.891 130.193 125.823 130.279 125.794Z" fill="#6A6969"/>
<path d="M148.213 40.043C150.897 40.5724 153.534 39.7764 156.177 39.7136C157.84 42.53 155.002 46.1252 151.862 45.394C149.423 45.0893 147.263 42.4557 148.213 40.043Z" fill="black"/>
<path d="M148.575 35.5775C148.062 39.2927 143.686 37.3409 144.509 34.1131C145.419 31.5119 148.656 32.8334 148.575 35.5775Z" fill="black"/>
<path d="M156.372 32.2584C156.812 27.9814 161.572 31.4947 159.453 34.3702C158.124 35.8993 156.185 33.8351 156.372 32.2584Z" fill="black"/>
<path d="M132.207 41.9569C131.834 41.5474 131.068 41.9873 130.832 41.4751C131.582 40.363 134.031 41.3342 134.938 42.014C135.303 42.1625 135.73 43.0918 135.073 43.0537C134.452 42.8252 133.974 42.2653 133.279 42.2463C132.86 42.8823 132.995 43.5983 132.805 44.2858C131.946 44.9961 132.173 42.4405 132.207 41.9569Z" fill="black"/>
<path d="M147.298 30.874C144.585 30.1408 144.652 31.3748 142.778 31.8014C142.38 30.6797 144.404 29.6781 145.343 29.541C145.998 29.2154 148.801 30.3275 147.298 30.874Z" fill="black"/>
<path d="M159.172 27.9852C157.79 27.6138 156.578 28.147 155.525 29.0325C153.764 29.2344 156.866 25.502 159.33 27.2577C159.781 27.4958 159.722 28.0156 159.172 27.9852Z" fill="black"/>
<path d="M154.044 33.8503C154.645 33.8903 158.437 36.762 156.831 36.9848C156.422 36.6763 152.61 34.077 154.044 33.8503Z" fill="black"/>
<path d="M152.634 46.6528C153.312 46.6109 153.971 46.4909 154.62 46.291C155.159 46.4223 154.631 47.1079 154.304 47.1822C153.824 47.405 152.451 47.4316 152.634 46.6528Z" fill="black"/>
<path d="M186.982 15.3751C185.969 16.5386 185.674 18.142 185.476 19.6445C185.426 19.972 185.462 20.3186 185.154 20.6137C183.728 19.9948 185.868 13.7812 186.982 15.3751Z" fill="black"/>
<path d="M154.078 44.3752C151.982 45.2379 149.725 44.2629 148.836 42.1548C150.746 42.789 153.052 42.1206 154.078 44.3752Z" fill="#EF6261"/>
<path d="M148.6 40.6733C151.058 41.2694 153.237 41.1132 155.701 40.4048C154.541 42.3282 151.037 42.014 149.087 41.654C148.598 41.5112 148.565 41.4541 148.6 40.6733Z" fill="white"/>
</svg>
