<svg width="300" height="200" viewBox="0 0 300 200" fill="none" xmlns="http://www.w3.org/2000/svg">
<path d="M141.042 93.5566C140.893 93.6501 140.744 93.7436 140.597 93.8391C139.966 93.6541 139.479 93.9226 139.051 94.3464C137.014 96.3576 134.869 98.2535 132.78 100.209C127.067 105.551 121.35 110.886 115.626 116.218C112.734 118.784 110.122 121.726 107 124.01C105.429 125.05 103.298 123.554 103.857 121.706C107.595 105.95 111.228 90.1647 114.968 74.4128C115.218 73.5096 114.995 72.9347 114.244 72.3797C105.096 65.6476 95.9552 58.9037 86.814 52.1617C85.0574 50.3911 76.7637 46.663 81.1602 44.1524C93.6853 43.3826 106.425 44.1266 119.02 43.8759C119.661 43.8421 120.498 44.1883 120.769 43.3826C125.185 30.3064 129.347 17.1308 133.7 4.02676C134.215 2.86894 134.36 0.992964 135.916 0.891506C136.664 0.855697 137.171 1.23169 137.503 1.89614C139.894 6.42595 141.404 11.5187 144.17 15.7939C140.565 18.9451 136.099 21.4736 131.68 23.5326C128.881 24.7103 128.382 27.0578 129.792 29.5783C130.755 31.9218 133.741 32.5285 133.341 34.2096C132.928 36.5152 133.922 39.2765 136.459 39.8574C136.15 38.4449 136.091 37.116 136.863 35.8786C137.326 36.0656 137.376 36.4317 137.45 36.7659C138.208 40.3149 140.135 43.4124 141.562 46.7068C142.805 48.4197 140.167 52.8281 143.519 52.1756C144.235 52.0702 144.663 52.3188 144.999 52.9176C145.998 54.6941 147.092 56.409 148.379 57.9945C150.307 60.3678 153.75 61.8957 157.099 60.4812C157.441 60.336 157.797 60.147 158.197 60.3479C154.325 66.0495 151.652 72.8711 148.688 79.241C147.804 81.0653 147.581 81.0812 146.444 79.4499C144.552 76.7364 142.548 74.1025 140.714 71.3472C140.251 70.4918 139.152 70.4082 138.619 69.6045C138.237 69.1768 137.857 68.7849 137.296 68.5501C135.574 67.6927 137.718 65.5621 136.789 63.885C136.111 61.8022 139.164 62.4388 138.926 59.8148C138.932 58.2114 138.806 56.6875 137.467 55.5575C136.417 51.9627 134.857 53.0489 134.706 51.4594C134.46 49.6053 132.999 49.5854 131.503 50.0629C129.042 49.7446 127.692 51.4455 126.229 52.9435C124.157 55.1139 123.58 57.4832 124.636 60.4275C125.979 64.6311 127.497 68.8207 129.319 72.8034C129.009 73.8478 129.828 74.5899 129.989 75.4632C130.509 78.2682 132.482 80.2138 133.875 82.4857C135.969 85.9015 138.305 89.166 140.613 92.4425C140.841 92.7747 141.138 93.0911 141.042 93.5566Z" fill="#FFCE24"/>
<path d="M144.497 15.6268C144.448 15.8218 144.304 15.8715 144.125 15.8675C144.119 15.8357 144.125 15.786 144.107 15.776C143.425 15.3861 143.427 15.3861 143.091 14.646C141.328 10.7668 139.564 6.88947 137.797 3.01218C137.369 2.22638 137.097 0.967104 136.005 1.03673C134.642 1.0049 134.471 2.66404 134.039 3.64679C129.68 16.9378 125.358 30.2408 120.983 43.5278C120.754 44.2002 120.72 44.2082 120.036 44.1823C107.193 44.2201 94.3194 44.0092 81.4899 44.2579C79.1384 44.8925 80.1073 47.3116 81.8002 48.1829C85.3274 50.795 88.8605 53.3991 92.3936 56.0032C99.7782 61.4222 107.115 66.9089 114.521 72.2981C115.258 72.8253 115.458 73.3465 115.246 74.2258C111.504 89.9359 107.861 105.672 104.167 121.394C103.552 123.035 104.845 124.762 106.51 124.004C108.384 123.071 109.689 121.271 111.293 119.954C120.392 111.475 129.486 102.99 138.577 94.5035C139.196 94.0897 139.96 92.6435 140.596 93.8391C134.55 100.066 127.812 105.783 121.534 111.835C117.255 115.826 112.974 119.818 108.691 123.805C108.008 124.44 107.25 124.937 106.319 125.156C104.23 125.697 102.372 123.419 103.094 121.316C104.111 117.017 105.118 112.714 106.128 108.413C108.84 96.7595 111.633 85.1316 114.303 73.4679C105.83 67.1635 97.3094 60.9328 88.8148 54.6603C86.1012 52.661 83.3838 50.6657 80.6802 48.6544C79.5005 47.791 78.5595 46.3567 79.216 44.8806C79.6437 43.8461 80.4932 43.3288 81.5695 43.1677C94.3572 43.0842 107.155 43.1677 119.948 43.1379C124.773 29.2799 128.915 15.1533 133.804 1.31922C134.811 -0.733811 137.855 -0.270286 138.43 1.87824C140.383 6.44385 142.886 11.0811 144.497 15.6268Z" fill="#C67A0F"/>
<path d="M174.5 42.6226C183.251 42.2268 192.179 42.3421 200.954 42.6127C203.421 43.0444 203.604 46.1299 201.732 47.431C200.853 47.9959 195.627 54.3281 195.269 52.9037L195.281 52.9177C194.855 52.0602 195.527 51.6126 196.001 51.1511C197.751 49.4044 199.689 47.8189 201.286 45.929C202.391 44.3594 200.286 43.6392 199.019 43.8302C191.328 43.8282 183.637 43.8342 175.944 43.8202C175.289 43.9714 173.777 43.6114 174.5 42.6226Z" fill="#C67A0F"/>
<path d="M102.289 79.1675C100.53 80.4626 97.0669 79.5594 96.3846 82.1595C96.0901 82.9334 95.4973 87.5985 94.8687 87.4672C93.8481 85.2689 94.9124 81.5587 92.187 80.4944C90.8004 79.8419 89.0856 79.9891 87.8203 79.1675C95.5252 77.2259 93.0743 77.3671 94.9542 70.7385C97.4827 77.2716 94.25 77.1543 102.289 79.1675Z" fill="#C67A0F"/>
<path d="M132.824 115.965C140.633 113.908 138.013 114.236 139.976 107.558C142.57 114.33 139.208 113.771 147.325 115.975C145.99 116.769 144.379 116.594 142.984 117.268C140.465 117.95 141.299 122.47 139.984 124.32C138.753 122.218 139.98 118.394 137.272 117.3C135.84 116.606 134.197 116.785 132.824 115.965Z" fill="#C67A0F"/>
<path d="M199.838 24.8734C198.763 25.5896 197.261 25.4205 196.072 25.9795C195.153 26.2362 194.238 26.6718 194.037 27.7302C193.577 29.4987 193.392 31.4503 192.688 33.1154C192.368 33.0935 192.376 32.8568 192.344 32.6897C191.074 25.8065 192.169 26.8091 185.488 24.8973C186.917 24.1652 188.62 24.0061 190.12 23.3914C192.564 22.1142 191.379 18.5612 192.588 16.5042C192.875 16.6693 192.905 16.9259 192.958 17.1606C193.289 18.585 193.611 20.0094 193.937 21.4338C194.21 24.3105 197.972 23.7415 199.838 24.8734Z" fill="#C67A0F"/>
<path d="M112.094 27.7919C111.165 26.457 111.406 24.1414 110.889 22.5379C110.25 19.8125 106.685 20.6799 104.875 19.3947C112.2 17.4909 110.264 17.7873 111.886 11.1408C112.146 11.0771 112.21 11.2124 112.248 11.3775C113.956 18.032 112.323 17.5287 119.366 19.4106C111.563 21.778 114.408 20.3914 112.094 27.7919Z" fill="#C67A0F"/>
<path d="M208.645 56.0191C208.713 56.0032 208.779 55.9853 208.846 55.9693C215.27 54.3818 213.024 53.2578 214.637 48.0039C214.968 47.986 214.964 48.2227 215.005 48.3898C216.675 54.8553 215.087 54.4335 221.952 56.2558C221.99 56.4428 221.825 56.5045 221.69 56.5403C220.224 56.9342 218.718 57.2445 217.293 57.7657C215.481 58.8679 215.845 61.8897 215.119 63.7458C214.99 64.086 215.075 64.5217 214.616 64.6012C212.843 57.0615 215.025 58.6928 207.523 56.2757C207.798 56.216 207.935 56.1862 208.074 56.1563C208.238 55.9932 208.466 56.1086 208.645 56.0191Z" fill="#C67A0F"/>
<path d="M209.409 55.7843C209.265 55.9792 209.07 56.017 208.848 55.9693C209.009 55.8221 209.186 55.7365 209.409 55.7843Z" fill="#6A6969"/>
<path d="M173.954 42.9568C174.113 42.9628 174.272 42.9687 174.431 42.9747C174.555 43.8182 175.647 43.4362 176.238 43.5198C183.769 43.5198 191.301 43.5158 198.835 43.5198C200.297 43.3348 202.875 43.9753 201.71 45.905C200.039 47.7691 198.155 49.4501 196.404 51.2445C195.94 51.7498 195.268 52.1576 195.286 52.9196C194.846 52.9136 194.653 52.3665 194.333 52.1159C190.82 48.5589 185.393 48.4097 180.722 47.7373C180.077 47.7651 179.49 47.4965 178.883 47.3812C177.767 47.407 176.87 46.4203 175.699 46.6053C175.175 46.094 173.226 43.4959 173.954 42.9568Z" fill="#FFCE24"/>
<path d="M94.9455 73.0303C96.73 77.95 94.5835 77.5462 100.476 79.1894C95.2638 80.6357 96.3441 80.2477 95.0888 85.1933C94.8381 85.2192 94.8918 85.0461 94.8779 84.9486C94.2413 79.7186 94.1995 80.6675 89.5742 79.1556C94.5118 77.9778 94.3129 77.9003 94.9455 73.0303Z" fill="#FFCE24"/>
<path d="M139.994 109.78C141.536 114.588 139.97 114.654 145.634 115.953C139.845 117.34 141.681 117.23 139.97 122.041C139.401 117.165 139.276 116.986 134.414 116.005C139.529 114.658 139.27 114.94 139.994 109.78Z" fill="#FFCE24"/>
<path d="M192.596 30.8416C191.891 26.2661 192.106 25.8224 187.242 24.9451C187.312 24.6965 187.491 24.7004 187.638 24.6786C192.436 23.6103 191.806 23.2084 192.582 18.8457C192.882 18.9352 192.828 19.1859 192.868 19.357C193.795 23.7893 193.471 23.6103 197.983 24.7661C198.025 25.0028 197.856 24.965 197.754 24.9929C192.671 26.1427 193.942 26.3815 192.745 30.8357C192.697 30.8396 192.647 30.8396 192.596 30.8416Z" fill="#FFCE24"/>
<path d="M112.098 25.5657C111.683 24.5233 111.629 23.5585 111.504 22.4802C111.273 19.892 108.329 20.1268 106.484 19.3907C107.962 19.0963 109.18 18.7561 110.495 18.0956C111.884 17.3735 111.426 15.3344 111.864 14.0333C111.899 13.8304 111.818 13.5798 112.1 13.4365C113.384 18.2468 112.317 18.1414 117.661 19.3907C112.456 20.6759 113.3 20.5843 112.098 25.5657Z" fill="#FFCE24"/>
<path d="M209.402 56.1843C214.336 55.1936 214.024 54.8713 214.724 50.2122C216.518 54.9449 214.243 54.8434 220.439 56.2638C215.17 57.5689 215.991 57.4077 214.827 62.5005C213.841 58.8361 214.923 57.4236 210.341 56.5941C210.057 56.4608 209.339 56.6657 209.402 56.1843Z" fill="#FFCE24"/>
<path d="M209.404 56.1841C209.468 56.2855 209.529 56.387 209.591 56.4904C209.368 56.5621 209.239 56.4646 209.105 56.2995C209.205 56.2597 209.304 56.2219 209.404 56.1841Z" fill="#6A6969"/>
<path d="M210.188 56.0192C210.065 56.049 209.94 56.0788 209.816 56.1107C209.914 55.9734 210.043 55.9654 210.188 56.0192Z" fill="#6A6969"/>
<path d="M135.068 192.078C134.099 196.618 148.027 195.269 150.975 195.452C153.106 195.124 163.397 195.621 162.621 192.49C163.54 191.939 164.547 192.152 165.502 192.245C169.856 192.673 174.195 193.168 178.588 193.192C181.401 193.208 184.224 193.377 187.039 193.53C187.385 193.548 187.745 193.53 188.013 193.817C187.54 195.221 186.605 197.662 188.483 198.359C190.924 199.423 193.621 199.101 196.198 198.92C200.779 198.281 213.35 196.803 215.701 192.872C221.29 194.342 218.003 197.151 214.231 197.989C209.019 199.218 203.638 199.668 198.296 199.922C189.525 200.38 180.925 198.699 172.236 197.857C164.873 196.938 157.455 197.426 150.06 197.014C144.213 196.664 138.343 196.306 132.558 195.311C129.05 194.046 133.419 192.305 135.068 192.078Z" fill="#CCCCCC"/>
<path d="M141.041 93.5565C137.399 88.2309 133.762 82.9014 130.287 77.4644C130.034 77.0825 129.857 76.6746 129.974 76.2091C130.136 75.0871 128.138 74.0845 129.197 73.0102C127.718 69.5845 122.753 59.0965 124.044 55.7961C125.49 53.4367 128.142 49.08 131.403 49.9752C133.267 48.7219 135.23 50.0508 135.051 52.1138C136.472 52.5773 137.337 53.8326 137.449 55.3247C139.183 56.3472 139.263 58.5912 139.161 60.3717C139.088 61.7802 137.836 62.2636 136.748 62.8903C137.152 64.3166 137.707 65.934 136.659 67.2549C136.812 67.6051 136.961 67.9473 137.106 68.2835C138.399 68.3173 138.714 69.8491 139.764 70.2748C140.242 70.3106 140.48 70.607 140.727 70.9612C143.031 74.2158 145.235 77.4744 147.668 80.6454C151.495 73.991 153.055 66.1648 158.351 60.3737C151.018 63.3995 147.443 57.9148 144.302 52.1854C140.725 53.5362 141.515 50.6914 141.668 48.3141C141.537 46.1159 139.917 44.2379 139.171 42.1928C138.151 40.1557 137.474 38.0967 136.977 35.8606C136.396 37.4103 136.235 38.8069 137.009 40.279C133.315 39.7797 132.592 36.0814 133.231 33.2585C130.488 31.7864 127.307 27.931 129.487 24.8813C130.138 24.0895 130.995 23.5046 131.946 23.1266C134.277 22.2334 136.398 20.9523 138.477 19.5955C144.451 16.0803 157.565 4.49814 162.733 13.9894C171.369 11.9483 173.87 23.5305 175.768 29.7155C176.502 34.0841 175.752 38.5105 174.146 42.6026C174.21 47.9501 181.231 47.1961 184.977 48.0495C188.794 48.7558 193.706 49.6768 195.56 53.4049C200.247 59.4168 205.429 65.0507 209.784 71.3272C212.114 74.1342 213.719 77.4843 213.15 81.2104C211.827 88.0718 209.74 94.8456 206.981 101.271C208.37 106.066 209.641 110.995 211.018 115.808C211.266 116.579 211.053 116.85 210.403 117.17C208.957 117.877 207.554 118.591 206.096 119.285C205.153 125.06 204.723 130.895 203.965 136.694C203.585 141.343 202.31 146.092 203.386 150.721C204.723 158.032 207.526 164.929 209.715 172.001C210.584 174.795 211.471 177.578 212.611 180.275C213.178 181.433 212.975 181.994 211.976 182.808C214.089 185.78 214.523 189.5 215.703 192.878C216.083 194.271 212.88 195.486 211.837 195.858C207.634 197.257 182.637 204.329 187.78 193.775C188.4 192.794 189.335 192.2 190.354 191.722C192.853 190.503 195.256 189.156 197.265 187.196C196.463 186.989 196.185 186.331 195.904 185.696C193.949 181.276 191.928 176.885 190.052 172.431C185.384 161.444 180.339 150.56 179.108 138.572C175.839 142.988 172.843 147.506 169.676 151.982C168.158 154.254 167.408 156.733 167.019 159.437C165.815 167.484 164.665 175.541 163.838 183.635C163.903 185.145 162.174 184.851 162.302 186.015C162.718 188.209 162.57 190.451 162.889 192.655C162.829 193.837 162.515 194.239 161.335 194.621C156.127 195.886 150.654 195.84 145.318 195.826C142.81 195.472 133.828 196.28 135.069 192.084C135.433 190.893 135.702 189.476 137.019 188.997C140.735 187.31 144.65 186.114 148.207 184.077C147.781 183.703 147.407 183.377 146.99 183.011C147.32 173.909 148.171 164.806 148.848 155.716C150.123 142.935 157.77 132.031 162.473 120.349C159.875 118.485 161.208 116.158 161.765 113.576C162.753 110.755 162.887 107.703 163.73 104.876C165.837 99.453 162.674 94.0777 161.432 88.7899C161.009 88.768 160.931 89.1003 160.766 89.2992C159.071 91.3542 157.667 93.648 155.671 95.4523C149.807 100.34 145.559 99.7255 141.041 93.5565Z" fill="black"/>
<path d="M154.75 96.0789C157.332 93.6618 159.222 90.8449 161.406 88.0359C162.775 91.8157 163.593 95.7905 164.826 99.622C165.015 100.086 165.019 100.553 164.902 101.023C164.297 103.213 163.901 105.497 163.171 107.635C162.956 107.359 162.743 107.084 162.528 106.808C163.983 106.205 157.046 98.4861 156.324 96.9921C155.991 96.5365 155.627 96.2659 155.046 96.4171C154.949 96.3077 154.849 96.1943 154.75 96.0789Z" fill="#FFCE24"/>
<path d="M155.047 96.4212C156.065 95.1977 156.796 97.6148 157.464 98.1937C158.944 100.217 160.426 102.236 161.904 104.261C162.258 105.049 164.116 106.338 162.531 106.812C159.843 103.537 157.335 99.9921 155.047 96.4212Z" fill="#C67A0F"/>
<path d="M195.27 52.9036C195.461 52.9732 195.652 53.0408 195.843 53.1105C195.75 53.2059 195.654 53.3014 195.561 53.3969C195.382 53.2815 195.153 53.194 195.27 52.9036Z" fill="#FFCE24"/>
<path d="M208.645 56.019C208.494 56.2279 208.285 56.1961 208.074 56.1563C208.265 56.1106 208.454 56.0648 208.645 56.019Z" fill="#6A6969"/>
<path d="M211.171 181.897C207.318 184.68 202.241 185.615 197.566 185.806C193.645 177.892 190.345 169.584 186.963 161.396C185.335 157.3 183.354 153.305 182.391 148.981C180.477 140.516 179.978 131.836 178.846 123.262C177.812 118.241 177.678 123.717 178.06 125.353C178.516 130 176.944 134.673 176.399 139.284C176.011 141.186 174.39 142.573 173.431 144.216C171.273 147.282 168.953 150.24 167.159 153.54C166.679 154.342 166.395 155.193 166.253 156.126C165.774 159.23 165.147 162.309 164.729 165.423C163.85 171.546 163.138 177.62 162.43 183.781C158.757 184.992 154.773 184.242 151.033 183.691C147.915 183.064 147.778 182.557 148.25 179.482C148.407 176.44 148.51 173.392 148.848 170.362C149.286 161.189 149.935 151.885 153.684 143.373C156.116 137.651 159.412 132.314 161.799 126.562C162.193 125.655 162.581 124.738 162.207 123.717C162.332 123.361 162.41 122.983 162.663 122.687C164.692 122.965 166.695 123.075 168.716 123.292C174.241 124.215 174.851 116.611 176.218 112.867C177.837 117.722 177.034 121.28 182.662 123.312C186.808 125.908 191.952 124.197 196.305 122.987C198.75 122.464 201.27 122.315 203.709 121.726C203.986 121.666 204.264 121.587 204.577 121.726C203.906 128.91 202.983 136.274 202.052 143.494C200.648 156.924 207.567 169.302 211.171 181.897Z" fill="black"/>
<path d="M208.857 116.655C202.284 120.109 194.95 123.105 187.456 123.528C180.801 123.743 178.945 116.379 177.64 111.188C176.317 105.626 174.487 100.201 173.007 94.6786C172.696 93.5765 172.48 92.4485 172.593 91.2946C173.072 85.8457 174.646 80.5719 176.13 75.3279C176.606 73.6469 177.091 71.9679 177.602 70.2988C177.763 69.7756 177.722 69.4095 177.238 69.0693C176.612 68.5839 175.937 68.0687 175.432 67.458C176.327 65.8287 178.704 65.015 178.645 62.8724C178.923 58.0979 178.901 53.3294 178.724 48.5529C178.935 48.543 179.086 48.537 179.238 48.5291C180.344 50.7353 185.611 49.7903 187.875 50.7134C189.656 51.0635 186.827 52.9574 186.612 54.1132C183.443 58.2989 182.297 64.8937 185.606 69.2902C183.013 61.8002 184.304 57.6881 189.178 51.6365C189.857 50.9243 190.034 50.8984 190.714 51.5628C197.56 58.8241 203.229 67.1118 209.786 74.6356C210.594 75.6104 211.28 76.6707 211.975 77.7251C212.394 80.0547 212.007 82.424 211.378 84.6839C209.77 89.8762 208.631 95.2774 206.351 100.223C203.251 100.398 199.509 98.152 197.064 96.3556C196.456 95.4266 197.514 94.213 197.593 93.1965C198.312 90.0831 199.235 86.9817 199.66 83.8166C199.611 82.0222 197.41 81.2204 196.406 79.9194C194.148 78.2165 190.491 73.5932 187.983 73.2152C191.039 76.7006 194.747 79.7085 198.121 82.9293C199.513 83.8743 197.568 87.6521 197.472 89.2416C196.993 91.3145 196.531 93.3914 195.803 95.3928C195.708 95.6733 195.622 95.9418 195.747 96.2223C195.974 97.3324 195.095 98.3072 194.826 99.4292C188.665 101.751 189.626 102.873 188.576 108.604C188.23 110.854 188.218 114.216 191.289 114.168C191.697 114.157 192.009 114.3 192.342 114.517C192.901 114.879 193.493 115.205 194.204 115.155C196.505 116.22 196.489 115.945 198.95 115.541C204.222 114.708 203.068 105.662 206.032 102.22C206.351 102.401 206.343 102.664 206.357 102.917C206.138 103.973 206.393 104.999 206.57 106.026C207.121 109.219 208.006 112.336 208.804 115.472C208.911 115.859 209.142 116.249 208.857 116.655Z" fill="#D52B1E"/>
<path d="M166.058 101.786C165.917 97.2765 163.715 92.8422 162.722 88.4357C161.25 82.8496 159.66 77.2893 158.66 71.5937C158.329 70.0459 158.393 68.353 157.721 66.9067C156.426 67.3145 158.512 75.8708 158.765 77.3489C159.376 81.0233 159.157 84.7713 159.233 88.4775C159.243 88.953 159.115 89.323 158.815 89.693C154.932 95.0464 149.246 101.725 143.27 94.6127C139.038 88.9967 135.155 83.1321 131.352 77.2216C133.351 76.4955 135.084 75.4371 136.846 74.2913C137.998 74.0665 139.434 71.9856 140.3 73.5572C140.538 74.6832 151.717 87.8131 148.506 81.463C152.439 74.717 154.844 62.918 161.775 59.0924C162.386 58.7741 162.997 59.5898 162.802 60.2164C162.358 63.1329 161.877 66.0433 161.512 68.9697C161.166 70.3821 162.438 70.8318 163.207 71.7469C162.183 75.1805 162.336 75.8092 163.772 79.018C165.436 82.8913 167.194 86.7826 169.643 90.2281C171.992 93.5345 172.587 97.6346 173.815 101.42C174.422 104.138 175.681 106.849 175.91 109.591C174.869 112.79 174.433 116.168 173.047 119.261C171.921 122.39 169.772 122.87 166.89 121.553C164.658 120.6 162.276 119.689 163.058 116.76C164.238 111.817 164.839 106.68 166.058 101.786Z" fill="#D52B1E"/>
<path d="M165.431 40.9395C165.793 41.8108 167.299 41.2797 168.005 41.1205C169.047 40.848 169.799 40.2253 170.607 39.531C172.147 42.4594 173.324 45.5787 175.437 48.1808C175.72 48.5548 175.807 48.897 175.664 49.3227C174.057 53.8227 171.379 59.5899 167.108 62.0149C165.99 62.2179 165.367 60.4374 164.547 59.7769C165.329 57.5309 165.96 55.1755 167.014 53.0369C167.128 52.5833 167.726 52.0203 167.458 51.5886C166.61 51.6523 165.596 53.5084 164.89 54.1211C162.647 56.8048 159.809 58.6171 156.554 59.8008C150.693 61.9572 147.198 55.3664 144.855 51.1052C144.025 50.7272 143.454 51.6583 142.632 51.4593C142.25 50.2856 142.686 48.9229 142.597 47.6755C141.522 43.3287 138.234 39.5728 137.973 34.9535C137.681 32.612 145.079 28.8222 147.13 28.0225C151.193 25.9874 152.03 29.2022 154.113 31.9396C155.313 33.8434 160.517 40.0383 162.081 35.8427C161.667 32.6916 165.182 30.3401 167.989 31.5278C171.904 32.976 171.665 38.9263 167.71 40.1199C166.962 40.4083 166.125 40.5376 165.431 40.9395Z" fill="#EED3CA"/>
<path d="M131.543 51.5926C130.548 52.3724 126.993 54.3976 127.313 55.6987C127.59 55.9195 127.83 55.5813 128.002 55.3923C129.494 53.9918 131.608 51.4434 133.842 52.5813C132.472 53.57 129.137 55.1635 129.446 57.0654C131.212 55.6251 135.201 50.395 136.474 55.078C134.907 55.6907 132.83 56.4308 132.225 58.0959C132.41 58.2431 132.501 58.1257 132.597 58.062C133.757 57.2922 134.907 56.4228 136.321 56.2179C138.303 55.9195 138.247 58.9334 138.173 60.2782C138.016 61.2212 137.113 61.6389 136.194 61.7483C135.189 60.9188 136.612 59.8803 136.291 58.8817C135.663 59.2537 135.613 59.9082 135.179 60.4035C134.557 60.137 134.557 60.137 134.165 60.2802C135.404 62.6456 138.145 66.2384 134.276 67.6588C134.055 67.796 133.876 67.9811 133.974 68.3332C134.646 68.6216 135.211 68.0984 135.868 68.001C138.185 71.0427 131.529 71.2178 129.794 71.3948C128.296 69.4015 127.685 66.7974 126.762 64.4758C126.227 61.7623 123.856 58.3684 125.224 55.7265C126.163 54.2584 129.899 48.6682 131.543 51.5926Z" fill="#EED3CA"/>
<path d="M212.664 186.329C214.475 192.466 214.757 190.912 207.963 193.437C204.852 194.438 201.621 194.937 198.424 195.58C195.289 196.168 191.977 196.511 188.877 195.669C188.404 193.457 191.762 192.816 193.162 191.82C195.428 190.65 197.368 188.989 199.23 187.268C201.05 186.235 204.713 186.056 206.696 186.804C208.391 187.503 208.604 186.042 209.903 185.975C210.89 186.074 211.699 185.788 212.664 186.329Z" fill="#D52B1E"/>
<path d="M191.092 107.409C191.02 108.236 190.465 108.996 190.7 109.895C191.671 109.615 192.045 107.347 192.586 106.468C192.753 105.93 192.516 105.023 191.882 104.888C191.496 105.29 191.87 105.893 191.516 106.326C191.096 106.326 190.662 106.326 190.286 106.326C189.771 105.616 190.388 104.255 190.571 103.446C191.359 101.542 193.756 101.096 195.429 100.233C197.812 102.262 200.645 103.509 203.321 105.165C202.989 107.253 201.759 114.692 199.052 114.385C199.123 114.172 199.199 113.946 199.286 113.685C198.085 113.783 197.237 115.774 195.608 114.574C195.779 114.017 196.483 113.781 196.372 113.042C195.21 113.677 194.058 114.72 192.863 113.558C193.026 113.029 193.901 112.863 193.682 112.207C193.334 112.189 193.121 112.446 192.873 112.611C191.858 113.349 189.715 113.343 189.522 111.803C189.457 110.556 188.942 106.79 191.092 107.409Z" fill="#EED3CA"/>
<path d="M136.563 191.684C136.277 190.94 136.862 190.318 137.449 190.013C139.909 189.001 142.398 188.042 144.823 186.944C148.832 184.924 149.622 184.015 154.046 186.07C157.07 187.962 157.627 186.293 160.696 188.266C161.625 188.652 161.222 189.782 161.313 190.574C161.068 191.694 158.405 191.444 157.438 191.738C150.559 192.573 143.417 192.635 136.563 191.684Z" fill="#D52B1E"/>
<path d="M177.179 64.038C176.284 65.2794 174.7 66.0055 174.113 67.4498C174.292 67.6885 174.475 67.9352 174.658 68.1819C174.354 68.7668 174.696 69.1666 175.094 69.4869C177.143 70.8855 174.473 75.3775 174.286 77.5538L174.294 77.5379C173.308 81.4829 172.375 85.581 171.619 89.5915C171.34 89.5179 171.438 89.2892 171.42 89.138C171.093 85.0677 171.084 80.9398 171.567 76.8834C172.223 68.534 174.82 60.5626 177.079 52.5454C177.708 53.3073 177.382 54.1727 177.342 55.0043C177.197 58.0142 176.835 61.0201 177.179 64.038Z" fill="#D52B1E"/>
<path d="M186.681 53.6735C186.758 52.6908 187.87 52.078 188.34 51.2584C188.278 51.0077 188.103 51.0256 187.954 50.9918C186.394 50.5999 184.775 50.5243 183.187 50.2776C181.842 49.9852 179.296 50.4766 179.238 48.533C191.196 49.9852 191.829 50.1225 199.261 59.4924C202.828 64.0003 206.538 68.4028 209.857 73.0997C210.925 74.4605 211.655 76.0221 211.977 77.729C208.391 73.428 204.867 68.93 201.281 64.5773C197.495 60.139 194.24 55.2272 189.987 51.2067C188.927 51.5767 187.496 53.7471 186.681 53.6735Z" fill="#FCA6A6"/>
<path d="M167.809 68.0945C168.41 67.8896 168.891 67.7543 169.466 67.8279C170.502 74.2715 170.282 80.731 170.238 87.2303C168.716 84.3914 168.145 80.9419 167.302 77.7967C167.009 74.5679 167.395 71.3033 167.809 68.0945Z" fill="#212492"/>
<path d="M168.365 86.1162C166.777 83.4147 165.502 80.5161 164.287 77.6236C163.121 75.5367 163.457 73.8677 164.289 71.7152C164.484 70.6011 162.401 70.3982 162.604 69.2046C162.807 67.0262 163.095 64.8598 163.405 62.6933C163.587 62.0647 163.368 61.2033 163.885 60.7517C164.152 60.9487 164.138 61.2033 164.124 61.4997C164.323 64.0939 164.205 66.7099 164.663 69.2782C165.405 74.9738 166.789 80.5659 168.542 86.0327C168.457 86.0068 168.397 86.0307 168.365 86.1162Z" fill="#D52B1E"/>
<path d="M211.173 181.897C208.587 175.549 206.37 168.92 204.409 162.313C203.422 158.062 201.134 153.703 201.988 149.275C204.246 160.165 208.109 170.752 211.871 181.224C211.722 181.586 211.477 181.773 211.173 181.897Z" fill="#6A6969"/>
<path d="M162.204 123.717C164.46 124.159 155.291 139.911 154.473 142.153C152.189 146.836 151.437 152.088 149.836 156.974C150.566 144.948 157.485 134.498 162.204 123.717Z" fill="#6A6969"/>
<path d="M161.369 192.323C163.498 194.931 135.525 195.166 136.383 192.9C144.69 193.612 153.131 193.801 161.369 192.323Z" fill="#CCCCCC"/>
<path d="M188.645 196.743C193.172 197.74 197.617 196.851 202.077 196.005C205.982 195.19 209.901 194.235 213.516 192.5C214.218 192.003 214.777 192.568 214.142 193.21C212.067 195.45 188.764 200.627 188.645 196.743Z" fill="#CCCCCC"/>
<path d="M205.153 101.425C204.801 102.899 204.567 103.058 203.023 102.781C200.449 102.3 197.689 101.291 196.086 99.1228C196.279 98.5519 196.482 98.0227 196.744 97.4617C199.4 99.1705 202.13 100.565 205.153 101.425Z" fill="white"/>
<path d="M137.748 69.7397C138.244 70.1217 138.572 70.623 138.898 71.1224C137.904 72.5109 133.469 75.5248 131.343 76.0023C130.929 75.3756 130.406 74.7928 130.121 74.0428C133.047 73.2848 135.506 71.7968 137.748 69.7397Z" fill="white"/>
<path d="M166.058 101.787C165.794 105.954 164.594 110.052 163.878 114.172C163.41 116.033 162.939 117.863 163.571 119.749C160.953 118.503 162.085 117.009 162.533 114.825C163.546 110.675 164.542 106.521 165.549 102.371C165.613 102.095 165.674 101.795 166.058 101.787Z" fill="#FCA6A6"/>
<path d="M208.855 116.655C208.432 114.186 205.064 104.466 206.363 102.917C207.652 107.285 208.845 111.682 209.952 116.104C209.621 116.399 209.269 116.584 208.855 116.655Z" fill="#FCA6A6"/>
<path d="M166.442 65.4823C166.074 60.9903 171.557 63.7277 170.777 65.1621C170.371 65.8703 170.009 66.8272 169.05 66.8491C167.717 67.1375 166.208 67.414 166.442 65.4823Z" fill="#212492"/>
<path d="M147.833 82.4816C146.556 82.3443 145.01 79.5453 143.942 78.6202C142.406 76.8517 140.882 75.0791 139.698 73.052C138.666 73.3524 137.997 74.3033 136.852 74.2913C137.894 73.4041 138.849 72.5725 139.921 71.6475C142.706 75.113 144.976 79.042 147.833 82.4816Z" fill="#FCA6A6"/>
<path d="M177.178 64.0381C176.289 63.7894 176.945 60.0932 176.772 59.1283C176.909 56.9321 177.21 54.7537 177.076 52.5455C177.303 51.0475 177.56 49.5236 177.068 48.0475C178.493 47.5084 177.629 56.1841 177.828 57.3996C177.594 59.4367 178.111 62.2656 177.178 64.0381Z" fill="#FCA6A6"/>
<path d="M174.284 77.5539C174.473 75.3337 175.35 73.225 175.78 71.0367C175.879 70.0659 174.545 69.6501 174.214 68.7946C173.995 68.4266 174.242 68.0924 174.658 68.1819C175.253 68.8941 176.797 69.3437 176.552 70.4379C175.796 72.8052 175.249 75.2661 174.284 77.5539Z" fill="#FCA6A6"/>
<path d="M170.865 71.9937C170.73 70.6707 170.599 69.3458 170.46 68.0249C170.316 67.0322 171.291 66.4851 171.721 65.6555C172.029 65.9639 172.188 66.3001 172.071 66.7477C171.655 67.4121 171.401 72.4811 170.865 71.9937Z" fill="white"/>
<path d="M160.535 22.0403C160.37 22.3547 160.058 22.3726 159.781 22.3109C158.755 21.8136 157.629 21.8832 156.559 21.7002C155.709 20.608 160.257 20.9323 160.535 22.0403Z" fill="white"/>
<path d="M143.236 21.2148C142.015 21.0457 140.905 21.2586 139.709 21.3322C139.021 20.427 143.465 19.86 143.236 21.2148Z" fill="white"/>
<path d="M145.213 20.1884C144.325 20.3117 143.376 19.8283 142.479 19.7049C142.129 19.6035 142.402 19.1937 142.65 19.1897C143.394 19.2275 145.195 19.1996 145.213 20.1884Z" fill="white"/>
<path d="M161.993 21.3679C161.156 21.4873 160.344 20.9044 159.523 20.7214C159.359 20.6657 159.272 20.5344 159.379 20.3016C160.076 20.2201 161.95 20.4767 161.993 21.3679Z" fill="white"/>
<path d="M165 62.2595C165.426 62.5599 165.651 62.7171 165.899 62.8921C165.734 63.5049 165.573 64.0957 165.4 64.7383C165.095 63.9704 165.099 63.2204 165 62.2595Z" fill="white"/>
<path d="M132.195 50.7034C132.902 50.043 133.95 50.5005 133.998 51.4455C133.248 51.3619 132.506 51.5589 132.195 50.7034Z" fill="#EED3CA"/>
<path d="M146.769 18.9252C146.457 18.9491 144.095 18.4637 144.965 18.0459C145.571 18.0857 146.693 18.221 146.769 18.9252Z" fill="white"/>
<path d="M166.846 68.2038C166.846 67.3643 165.932 68.0288 165.457 68.178C165.636 69.4432 165.799 70.7264 166.082 71.9956C166.108 72.2303 165.974 72.5327 166.406 72.6839C166.406 72.4074 166.406 72.1985 166.406 71.9896C166.547 70.7264 166.714 69.4671 166.846 68.2038Z" fill="white"/>
<path d="M168.542 86.0347C168.685 86.1918 168.825 86.349 168.65 86.5798C168.373 86.53 168.369 86.3211 168.367 86.1142C168.427 86.0884 168.485 86.0605 168.542 86.0347Z" fill="black"/>
<path d="M176.251 50.7231C176.173 50.93 176.097 51.1369 176.02 51.3458C175.881 51.7377 174.808 54.3538 174.478 54.7258C173.193 57.306 171.627 59.6813 169.477 61.6349C169.349 61.7502 169.154 61.8437 169.192 62.1004C170.509 62.739 171.52 63.6501 172.55 64.7065C173.79 60.666 174.814 56.5898 175.974 52.5275C176.243 52.1734 176.227 51.7377 176.324 51.3359C176.338 51.1409 176.354 50.946 176.368 50.751C176.33 50.7411 176.29 50.7311 176.251 50.7231Z" fill="white"/>
<path d="M181.879 77.8981C179.804 80.5718 178.618 81.7515 179.273 77.2893C179.647 75.8291 173.729 74.5599 178.726 73.9273C179.273 73.8855 179.737 73.981 179.826 73.3245C180.407 71.0029 180.596 69.3179 182.281 72.4074C182.987 73.9571 183.849 73.2708 185.126 73.2191C188.181 73.235 183.954 75.7058 184.433 76.8636C184.525 77.5897 186.003 79.4239 184.811 79.6646C183.62 79.5612 182.925 78.3855 181.879 77.8981Z" fill="black"/>
<path d="M186.682 53.6734C187.532 52.9393 188.236 51.9526 189.342 51.5945C189.115 52.7742 187.868 53.6575 187.241 54.6899C184.327 58.3683 183.746 63.5248 185.463 67.8556C185.671 68.544 186.113 69.1408 186.028 69.8868C181.671 66.5466 183.346 57.3299 186.69 53.6674L186.682 53.6734Z" fill="black"/>
<path d="M187.576 104.245C185.43 104.329 176.32 103.718 175.684 101.663C177.703 101.798 179.668 102.524 181.678 102.849C183.595 103.384 185.885 103.241 187.576 104.245Z" fill="black"/>
<path d="M187.522 101.019C185.258 101.645 183.132 101.381 180.846 101.576C180.17 101.574 179.644 101.681 179.012 101.289C180.673 100.712 182.585 101.06 184.345 100.83C185.487 100.826 186.351 100.434 187.522 101.019Z" fill="black"/>
<path d="M186.689 53.6675C186.625 53.7411 186.56 53.8147 186.496 53.8903C186.56 53.8167 186.623 53.7411 186.689 53.6675Z" fill="black"/>
<path d="M153.913 49.2214C153.827 49.2612 153.74 49.299 153.632 49.3487C153.557 53.2518 147.012 55.7167 146.484 50.97C147.569 49.5834 149.281 48.7777 150.246 47.2479C151.891 47.0868 153.507 47.9462 153.913 49.2214Z" fill="black"/>
<path d="M165.471 35.1764C166.472 35.7055 167.753 35.6677 168.34 36.6385C167.745 37.2533 166.168 36.2148 165.225 36.4953C164.789 37.2354 165.3 38.3275 164.654 38.9084C162.967 38.4409 164.419 34.2055 165.181 33.183C165.475 32.8528 165.863 32.0829 166.392 32.3196C166.798 32.8329 165.527 34.4144 165.471 35.1764Z" fill="black"/>
<path d="M145.808 37.0105C145.721 37.3109 145.438 37.3587 145.205 37.3925C143.455 37.6312 143.166 39.4714 142.589 40.8182C142.202 42.1272 140.702 41.4986 141.137 40.2851C141.708 38.4011 143.099 36.1094 145.388 36.6823C145.562 36.734 145.76 36.8076 145.808 37.0105Z" fill="black"/>
<path d="M144.078 44.3094C144.289 39.3698 149.921 39.7736 148.53 41.1941C146.539 41.4208 145.359 43.082 145.055 44.948C144.581 45.8373 144.08 44.8545 144.078 44.3094Z" fill="black"/>
<path d="M146.71 42.9468C147.111 43.5456 146.29 44.2816 146.033 44.8387C144.993 45.0495 146.353 43.2233 146.71 42.9468Z" fill="black"/>
<path d="M149.949 54.2206C150.729 54.2326 151.218 53.779 151.921 53.594C151.702 54.5409 150.592 55.1278 149.949 54.2206Z" fill="black"/>
<path d="M184.581 74.3828C183.696 75.483 182.797 76.2031 183.565 77.5718C183.151 77.7648 182.757 77.0784 182.389 76.9153C181.444 76.1534 181.128 77.5758 180.378 77.8384C180.433 76.0141 180.384 76.1494 178.84 75.1249C179.152 74.9299 179.337 74.8742 179.667 74.8822C180.895 74.9657 180.561 73.426 181.094 72.7197C181.448 72.9167 181.595 73.2847 181.786 73.6189C182.333 74.9976 183.33 74.4425 184.581 74.3828Z" fill="#FFCE24"/>
<path d="M148.219 52.2312C150.2 51.5449 151.155 49.6987 152.687 48.4534C153.837 50.4646 149.741 54.6105 148.219 52.2312Z" fill="white"/>
<path d="M147.191 51.0973C148.126 50.5124 148.978 49.9574 149.658 49.1895C150.241 48.708 150.43 47.5283 151.409 47.9919C151.198 49.4819 149.732 50.5482 148.548 51.3539C147.89 51.718 147.882 51.72 147.191 51.0973Z" fill="white"/>
</svg>
