<svg width="300" height="200" viewBox="0 0 300 200" fill="none" xmlns="http://www.w3.org/2000/svg">
<path d="M162.308 197.55C160.625 196.259 162.055 194.076 162.99 192.643C158.777 192.811 154.05 194.045 150.34 191.53C148.962 190.302 149.027 188.182 150.477 186.99C153.655 184.708 157.183 182.926 160.04 180.182C160.164 180.075 160.356 180.002 160.337 179.727C158.467 179.206 156.685 179.05 156.605 176.716C155.91 171.425 155.259 166.128 154.67 160.822C153.026 146.279 150.766 131.883 149.362 117.307C148.453 117.224 147.237 117.244 147.388 115.984C147.442 114.54 147.512 113.097 147.569 111.652C147.713 107.19 147.438 102.734 147.252 98.2752C145.285 96.5798 144.363 94.3198 143.87 91.7849C140.97 93.0745 138.437 91.7074 136.234 89.7851C133.078 87.2096 130.039 84.5013 127.209 81.568C125.571 79.8688 123.967 78.1365 122.35 76.4189C121.72 75.8433 121.444 75.1681 121.737 74.3305C120.966 73.5372 120.171 72.4635 119.043 72.1812C116.584 71.8713 114.084 72.0576 111.64 71.6111C109.321 71.2883 107.618 69.6076 105.729 68.3771C104.471 67.4436 102.521 66.5525 103.107 64.6504C103.021 63.3498 103.071 61.6451 104.843 61.7429C107.234 57.5328 110.574 64.7113 115.28 61.6838C114.891 60.195 112.758 58.9737 113.356 57.2045C113.666 56.1234 114.802 55.6935 115.763 56.2839C117.772 58.2265 120.167 59.7246 122.405 61.4052C123.759 62.3849 124.764 63.6228 125.283 65.2242C125.619 66.3514 126.667 67.01 127.357 67.9214C128.912 67.1816 130.722 69.8585 132.078 70.5872C134.391 72.3399 136.618 74.2069 138.983 75.8857C143.016 68.1815 145.125 58.6084 152.486 53.2361C154.438 51.8857 156.495 50.6385 158.502 49.3785C158.552 48.3177 158.146 46.292 157.662 45.1887C140.525 40.084 151.868 23.5354 153.53 11.9716C153.733 10.3094 152.606 8.75232 152.851 7.03658C152.796 2.63101 157.201 0.61455 161.015 0.13857C168.173 -0.568019 175.287 1.55913 182.09 3.54053C186.943 4.97954 191.034 9.76885 189.631 15.0249C198.622 21.3916 191.455 27.6624 186.529 33.6674C188.424 37.5952 184.441 41.4731 180.482 40.7149C178.284 42.2351 176.718 45.5559 173.787 45.6241C173.545 46.6093 173.375 47.5797 173.246 48.5889C178.344 52.4705 184.291 55.7673 187.289 61.6746C190.878 69.8917 194.025 78.2804 196.711 86.8314C198.342 91.4196 197.519 98.0354 192.108 99.5039C189.83 100.139 187.442 99.7437 185.129 100.039C185.409 104.874 186.334 109.682 187.046 114.486C186.308 115.195 185.284 115.305 184.435 115.798C183.753 132.992 184.092 150.314 184.157 167.543C184.299 171.168 184.354 174.797 184.457 178.424C184.363 179.812 184.922 181.446 184.138 182.664C184.71 184.985 185.005 187.383 185.334 189.776C186.16 191.259 185.856 192.718 184.409 193.554C178.109 196.93 169.126 202.236 162.308 197.55Z" fill="black"/>
<path d="M162.824 197.927C169.261 200.864 176.203 197.524 182.037 194.645C184.559 193.119 186.018 193.207 185.334 189.772C187.645 190.173 191.621 191.512 190.16 194.55C188.404 196.962 185.33 197.805 182.612 198.635C178.461 199.766 174.152 200.375 169.881 199.749C168.506 199.938 163.199 199.294 162.824 197.927Z" fill="#CCCCCC"/>
<path d="M150.475 186.988C146.245 194.556 159.539 192.759 163.533 192.226C162.609 193.715 161.314 195.371 161.95 197.207C159.703 196.087 157.805 193.997 155.163 193.687C152.469 193.087 149.669 192.562 147.117 191.53C143.859 189.302 148.547 187.509 150.475 186.988Z" fill="#CCCCCC"/>
<path d="M183.568 181.319C183.583 181.579 183.516 181.774 183.223 181.846C181.116 182.429 179.002 182.902 176.812 183.023C175.072 182.839 169.093 182.994 168.466 181.276C167.313 172.679 165.957 164.108 164.798 155.507C163.791 145.379 162.427 135.285 161.378 125.162C160.953 122.62 160.957 119.975 160.302 117.488C159.509 116.766 159.885 120.185 159.946 120.523C161.317 133.566 162.841 146.606 164.394 159.63C164.942 164.101 165.822 168.519 166.386 172.985C166.331 173.86 167.584 178.804 166.615 178.622C164.318 178.872 157.651 179.917 157.518 176.531C156.87 171.275 156.221 166.019 155.586 160.763C154.142 146.709 151.734 132.813 150.469 118.733C154.967 114.958 155.286 114.128 155.647 108.391C157.889 108.551 160.082 108.544 162.339 108.398C162.77 113.523 164.339 117.825 169.941 118.932C171.641 119.373 173.318 118.864 175.019 118.775C177.769 118.661 180.494 118.41 183.254 118.405C183.509 128.758 181.889 139.169 182.234 149.576C182.337 156.614 182.64 163.66 182.771 170.69C183.062 174.223 182.544 177.88 183.568 181.319Z" fill="black"/>
<path d="M196.296 93.189C196.072 97.1536 192.023 99.2937 188.39 98.9745C183.793 99.0225 179.258 98.9505 174.703 98.2034C176.02 95.5135 176.227 92.5193 175.698 89.5804C175.993 89.2538 176.397 89.2668 176.766 89.3092C179.493 89.621 182.227 89.3959 184.957 89.4752C186.11 89.5213 187.448 89.9438 188.481 89.2409C190.104 88.2963 184.566 88.2318 184.057 88.1654C181.753 83.0753 180.349 77.5942 178.387 72.3547C177.972 71.5227 177.725 70.3567 176.982 69.7977C176.71 70.4877 177.223 71.3363 177.34 72.0559C178.983 77.454 181.004 82.7285 182.802 88.0676C180.69 88.1045 178.576 87.7337 176.456 87.6525C175.364 87.6193 174.227 87.3425 173.482 88.3554C169.886 87.1968 166.497 85.0309 162.634 85.0678C161.824 81.7747 165.399 76.5924 166.383 73.2089C167.396 70.6298 168.362 68.034 169.538 65.5231C169.995 64.621 169.189 63.9753 168.759 63.265C169.567 62.4422 170.844 62.3057 170.98 60.9903C171.742 57.7691 172.27 54.4317 173.235 51.2862C173.526 51.1718 173.762 51.312 173.963 51.4836C177.703 54.69 182.764 56.6548 184.909 61.374C189.831 70.5394 192.466 80.5977 196.012 90.3165C196.381 91.25 196.263 92.2259 196.296 93.189Z" fill="#D52B1E"/>
<path d="M176.139 36.8168C176.053 37.5732 176.053 37.5732 176.966 38.9661C175.802 41.3238 173.505 43.1853 172.767 45.7183C172.468 47.0872 172.444 48.5557 171.893 49.8527C171.411 50.7991 170.745 51.6459 170.238 52.5721C168.561 55.4704 164.989 57.4684 161.633 57.1474C159.543 56.9647 157.75 54.8265 158.977 52.8285C159.329 52.7363 159.167 53.2417 159.53 53.1993C160.037 52.2953 159.416 49.6737 159.397 48.5022C161.604 47.6997 163.823 46.6629 166.173 46.4212C167.136 46.2496 168.448 46.4304 169.153 45.6648C168.895 45.1667 167.524 45.5449 166.98 45.4859C161.724 45.7312 155.96 44.4989 151.925 40.9677C147.047 36.5179 149.763 29.5553 151.163 24.1295C152.468 19.9343 153.855 15.656 156.261 11.9459C156.558 12.016 156.442 12.2374 156.443 12.3813C156.405 15.1283 158.681 17.8145 161.578 17.1356C159.685 15.4475 159.491 12.896 161.222 10.97C163.817 11.0456 166.376 12.2024 168.802 13.1008C171.597 14.2834 174.409 15.453 176.977 17.0931C179.811 19.5044 176.887 24.7291 176.531 27.8396C176.117 29.4077 175.783 34.6656 178.591 33.3945C179.327 32.9905 179.641 32.0644 180.373 31.7267C182.412 31.3485 184.357 32.2986 185.283 33.52C187.79 36.7817 183.886 40.7371 180.278 39.7206C178.46 39.4494 177.462 37.9237 176.139 36.8168Z" fill="#EED3CA"/>
<path d="M156.814 52.561C156.101 54.4723 151.152 61.195 152.747 62.7761C153.017 63.0547 152.98 63.3665 152.764 63.6598C151.177 65.1007 151.659 67.3256 151.823 69.2424C152.037 70.5468 152.168 71.8658 152.345 73.1776C152.609 75.9209 153.762 78.5425 153.945 81.2692C153.686 81.4758 153.412 81.402 153.153 81.4076C151.249 81.3633 149.375 81.5478 147.478 81.5681C147.244 77.0038 147.584 72.4304 148.108 67.8957C148.292 65.4678 149.159 63.1137 149.192 60.684C148.117 61.0714 147.44 66.0065 147.235 67.2795C146.822 70.3383 146.405 73.3953 145.99 76.4541C145.755 78.1126 145.421 79.7601 145.294 81.4316C145.265 81.854 145.141 82.1677 144.719 82.3282C144.196 82.5385 143.722 82.8835 143.674 83.5052C143.444 85.4755 143.565 87.4496 143.56 89.4217C143.604 90.0047 143.923 90.6929 143.189 90.9585C140.614 92.2463 138.348 90.2427 136.424 88.7207C131.797 84.9073 127.452 80.7342 123.477 76.2493C125.801 74.7475 127.41 72.4027 128.792 70.0615C129.192 69.9361 129.367 70.2756 129.605 70.4674C133.118 73.3418 136.623 76.2437 140.527 78.5775L140.514 78.572C140.999 78.7971 141.459 79.1771 142.032 79.0793C141.761 78.3174 141.058 77.6385 140.416 77.1072C140.127 76.9061 139.839 76.6127 139.973 76.2364C141.66 72.1223 143.532 68.0414 145.469 64.0565L145.46 64.0712C145.578 63.9753 145.551 63.8074 145.647 63.7022L145.635 63.7133C147.342 61.2559 148.703 58.4093 150.938 56.3854C152.615 55.2914 154.201 54.072 155.823 52.9005C156.103 52.6938 156.354 52.2824 156.814 52.561Z" fill="#D52B1E"/>
<path d="M185.329 114.32C178.929 116.783 167.967 121.925 164.231 113.198C163.245 110.171 163.227 106.928 163.006 103.778C162.88 101.517 162.902 99.2455 162.655 96.9929C162.646 96.8638 162.589 96.7014 162.79 96.5723C164.017 98.4005 166.105 99.3783 167.577 97.1977C168.645 97.3305 169.597 98.0371 170.725 97.9098C171.411 97.9043 172.213 97.5187 172.715 98.1441C174.437 99.7842 176.971 99.1127 179.058 99.9207C180.523 100.441 182.093 100.64 183.558 101.17C184.275 105.105 184.565 109.127 185.438 113.053C185.519 113.481 185.65 113.923 185.329 114.32Z" fill="#D52B1E"/>
<path d="M161.114 84.7466C160.922 84.2079 161.117 83.6969 160.99 83.1988C159.503 81.6251 157.075 81.8041 155.075 81.4923C154.839 72.8342 155.271 64.191 157.942 55.8613C160.368 59.3408 165.01 58.2228 168.056 56.2617C168.233 56.3779 168.13 56.5218 168.074 56.638C165.733 61.6948 163.946 67.0099 162.986 72.5058C162.291 76.3358 161.789 80.199 161.501 84.0806C161.472 84.3832 161.494 84.671 161.114 84.7466Z" fill="white"/>
<path d="M144.439 84.3906C149.671 85.7447 154.953 85.7669 160.15 84.3611C159.768 88.691 160.582 96.2624 155.776 98.2346C145.621 100.989 144 92.4177 144.439 84.3906Z" fill="#78A2D3"/>
<path d="M112.567 65.5452C110.2 64.7095 107.916 63.5011 105.806 62.0898C105.664 61.5806 106.285 61.3426 106.645 61.2503C108.136 61.4533 109.405 62.5621 110.824 63.0694C112.491 63.8369 114.36 63.1266 115.925 62.4255C117.358 61.6488 115.264 60.2375 114.881 59.339C114.587 58.8538 114.181 58.3391 114.189 57.7469C114.15 57.092 114.967 56.675 115.429 57.1898C117.644 59.1878 120.183 60.7744 122.487 62.6635C123.839 63.7133 124.302 65.3681 125 66.8588C125.094 67.0654 125.166 67.3218 125.491 67.2831C126.334 67.9731 127.037 68.8992 127.839 69.6796C127.131 72.0281 124.361 72.7569 122.26 73.4432C121.823 73.0816 121.079 72.6812 121.017 72.0909C121.061 71.7699 120.897 71.5595 120.633 71.4747C117.532 70.7626 114.253 71.3566 111.163 70.5264C109.602 70.1316 108.313 69.2774 107.355 67.9602C106.706 67.2333 105.7 65.6984 107.435 65.7223C109.44 66.4308 110.39 69.4859 112.872 68.9675C112.824 68.5616 112.615 68.4159 112.259 68.3273C110.776 67.927 109.82 66.7223 108.767 65.7076C108.117 64.9567 107.335 65.143 106.536 64.8589C105.806 64.2261 104.983 63.8092 104.023 63.7502C103.653 62.5953 105.02 62.3683 105.787 62.8314C106.741 63.4513 111.877 66.6448 112.567 65.5452Z" fill="#EED3CA"/>
<path d="M169.843 187.009C170.229 186.527 170.537 186.143 170.871 185.728C172.02 185.815 173.081 186.256 174.145 186.665C174.38 186.76 174.542 186.653 174.686 186.488C175.178 185.498 172.394 185.184 171.786 184.87C171.939 183.723 172.81 183.636 173.693 183.786C175.523 184.068 177.544 183.83 179.119 185C179.687 185.54 180.357 185.308 181.036 185.256C181.953 185.457 182.866 185.677 183.803 185.894C184.047 187.315 184.261 188.697 184.368 190.104C181.58 191.798 178.721 193.272 175.623 194.303C171.671 195.696 167.03 197.351 163.172 194.835C163.698 193.182 165.177 192.254 166.264 191.01C167.203 190.34 168.579 187.649 169.729 188.084C170.369 188.149 173.725 189.916 172.71 188.145C171.8 187.582 170.789 187.545 169.843 187.009Z" fill="#D52B1E"/>
<path d="M161.219 180.443C162.433 179.118 165.619 180.057 166.95 180.859C167.802 181.328 167.492 182.629 168.75 182.863C169.21 183.136 171.46 183.184 171.075 183.887C169.986 185.392 168.715 186.746 167.544 188.18C166.012 189.497 162.173 189.257 160.138 189.637C157.087 189.82 153.539 190.37 150.977 188.372C151.263 186.658 154.565 185.909 155.808 184.695C156.757 184.075 157.62 183.022 158.843 183.475C159.743 183.649 160.413 184.444 161.291 184.629C162.893 184.003 159.485 182.736 158.978 182.442C160.293 180.339 161.454 181.625 162.907 182.73C163.061 182.83 163.232 182.87 163.391 182.715C163.937 181.623 161.924 180.972 161.219 180.443Z" fill="#D52B1E"/>
<path d="M148.195 98.8213C151.881 99.9061 152.381 99.6939 154.414 99.5482C154.693 102.116 154.422 104.764 154.619 107.354C154.809 111.881 154.175 116.997 148.409 116.29C148.478 110.486 148.548 104.638 148.195 98.8213Z" fill="#D52B1E"/>
<path d="M163.281 93.9509C162.619 92.9381 164.021 91.726 164.875 91.2684C165.302 90.9013 166.975 90.7297 166.91 90.2704C166.608 89.7556 165.552 90.2925 165.001 89.9844C161.385 88.8701 162.994 91.1319 160.662 92.237C160.461 91.2592 160.828 90.2501 160.835 89.252C161.189 87.5344 163.473 87.658 164.809 88.0436C165.364 88.0325 166.704 88.9199 166.929 88.1986C166.91 87.9809 166.643 87.8038 166.466 87.7097C164.717 86.9791 162.628 86.4146 161.018 87.7484C160.802 87.3278 160.972 86.9533 160.955 86.5197C165.206 84.6232 170.004 88.7465 174.168 89.4014C175.875 89.573 173.415 96.2238 172.161 96.5559C170.074 97.8639 167.942 95.9932 165.931 95.4028C165.314 95.0781 164.575 96.3013 165.421 96.3843C165.864 96.3529 166.22 96.5116 166.595 96.7108C165.462 99.4339 161.51 95.0265 164.593 93.7646C165.178 93.2443 167.547 93.1059 167.525 92.606C166.934 91.5175 163.944 93.3937 163.281 93.9509Z" fill="#EED3CA"/>
<path d="M155.538 107.389C155.497 104.681 155.459 102.037 155.418 99.3452C157.296 98.8821 158.752 97.5243 159.497 95.7513C160.272 95.7753 160.942 95.7458 161.727 95.6204C161.905 99.5112 162.08 103.385 162.257 107.28C160.139 107.904 157.73 107.773 155.538 107.389Z" fill="white"/>
<path d="M196.295 93.1888C195.933 89.8827 194.43 86.8534 193.465 83.6784C190.841 75.5628 188.081 67.4471 183.873 59.992C181.277 56.114 176.72 54.2359 173.237 51.286C173.217 50.8358 173.3 50.4078 173.512 49.9558C185.567 57.9497 186.227 60.5879 191.194 73.6699C192.598 77.4482 193.889 81.2727 195.179 85.0916C196.025 87.6578 196.942 90.4879 196.295 93.1888Z" fill="#FCA6A6"/>
<path d="M183.567 181.319C182.229 180.254 182.797 175.915 182.641 174.174C182.427 169.692 182.447 165.172 182.29 160.675C182.056 154.055 181.718 147.373 182.107 140.735C182.211 136.568 182.082 132.278 183.107 128.216C183.233 145.916 182.978 163.654 183.567 181.319Z" fill="#6A6969"/>
<path d="M169.204 61.741C168.197 62.2262 166.835 63.2077 167.722 64.4198C168.182 64.9732 168.114 65.523 167.861 66.1411C166.101 70.1039 165.223 74.3987 163.191 78.2343C163.959 69.3087 166.617 60.3241 171.298 52.679C171.562 52.9243 171.473 53.2195 171.396 53.4999C170.525 56.2027 170.091 59.0678 169.204 61.741Z" fill="#D52B1E"/>
<path d="M158.035 52.5518C155.272 60.3999 154.107 68.4473 154.093 76.8046C153.154 73.8952 152.991 70.8825 152.606 67.8735C152.395 66.2149 152.584 65.0508 153.783 63.8258C154.556 62.7115 152.768 62.2189 153.517 61.0179C154.792 58.0919 156.214 55.166 158.046 52.5591L158.035 52.5518Z" fill="#D52B1E"/>
<path d="M184.443 191.219C184.642 191.962 184.651 192.01 184.183 192.298C181.244 194.22 177.984 195.558 174.74 196.877C171.292 198.013 167.337 198.84 163.869 197.388C163.293 197.106 162.406 196.7 162.92 195.912C165.706 197.017 168.802 197.552 171.707 196.563C176.124 195.181 180.485 193.656 184.443 191.219Z" fill="#CCCCCC"/>
<path d="M165.813 189.929C165.256 192.283 149.292 193.039 150.692 189.44C155.432 191.925 160.74 190.325 165.813 189.929Z" fill="#CCCCCC"/>
<path d="M156.811 52.561C154.783 53.6679 153.058 55.3578 151.057 56.5588C150.68 56.8079 150.354 57.092 150.101 57.4591C148.539 59.4571 147.365 61.9348 145.633 63.7096C147.885 58.1067 152.433 53.4244 157.868 50.9688L157.855 50.9578C157.597 51.5537 157.211 52.0665 156.802 52.5647L156.811 52.561Z" fill="#FCA6A6"/>
<path d="M140.526 78.5756C136.135 76.6016 132.578 72.9985 128.789 70.0596C128.837 69.8383 128.789 69.5818 129.09 69.3992C132.198 71.7034 135.169 74.2328 138.268 76.5628C138.989 77.2436 140.034 77.7233 140.526 78.5756Z" fill="#FCA6A6"/>
<path d="M185.329 114.32C184.869 109.929 183.488 105.61 183.561 101.172C183.788 101.207 184.015 101.244 184.198 101.273C184.901 105.472 185.408 109.889 185.932 114.113C185.757 114.173 185.543 114.246 185.329 114.32Z" fill="#FCA6A6"/>
<path d="M188.48 89.2408C188.408 90.4216 185.653 89.7168 184.831 89.7519C181.777 89.7703 178.743 89.7131 175.697 89.5803C175.529 89.3036 175.422 89.0084 175.387 88.6744C179.672 88.5416 184.12 89.3663 188.48 89.2408Z" fill="#FCA6A6"/>
<path d="M159.816 83.376C159.329 83.7579 158.95 83.7764 158.48 83.5956C157.288 83.1344 156.019 83.0384 154.757 82.9388C151.565 82.806 148.396 82.8207 145.287 83.6989C145.182 83.6454 144.985 83.5439 144.789 83.4425C147.248 81.8097 157.082 81.9702 159.816 83.376Z" fill="#AFC0D4"/>
<path d="M157.842 84.0051C154.093 84.5586 150.485 84.5604 146.859 83.9369C149.606 83.2358 152.529 83.6159 155.346 83.555C156.213 83.6546 157.045 83.5458 157.842 84.0051Z" fill="#A88579"/>
<path d="M169.207 61.7409C169.493 58.8334 170.491 56.0163 171.251 53.1991C171.329 52.4852 171.557 51.88 172.153 51.3376C171.875 53.5275 171.15 55.6436 170.716 57.8169C170.196 59.0271 170.594 61.1875 169.207 61.7409Z" fill="#FCA6A6"/>
<path d="M165.141 73.6442C165.559 70.8031 167.063 67.9988 167.961 65.226C167.703 64.5268 166.508 63.7058 167.581 63.1855C167.899 63.9087 168.886 64.536 168.592 65.3865C167.41 68.1224 166.404 70.9525 165.141 73.6442Z" fill="#FCA6A6"/>
<path d="M162.232 94.0669C161.518 94.8418 161.114 94.9709 159.965 94.8049C160.007 94.2477 160.201 93.733 160.36 93.2847C160.778 93.1242 161.135 93.0006 161.481 92.853C161.815 92.7091 161.991 92.2885 162.472 92.27C162.243 92.912 162.188 93.3843 162.232 94.0669Z" fill="white"/>
<path d="M105.98 67.449C104.989 66.6003 103.36 66.1299 104.13 64.6134C104.855 64.5894 105.203 64.7444 105.973 65.4399C105.742 66.1742 105.779 66.6151 105.98 67.449Z" fill="#EED3CA"/>
<path d="M165.386 5.90748C165.15 6.0975 164.995 6.15101 164.731 6.04031C163.296 5.44442 161.825 6.02002 160.39 5.91486C160.241 4.81347 165.021 4.73229 165.386 5.90748Z" fill="white"/>
<path d="M184.957 17.2682C185.784 16.3199 188.556 20.2883 186.839 19.7329C186.267 18.8806 185.558 18.0892 184.957 17.2682Z" fill="white"/>
<path d="M187.803 17.6741C188.679 18.5541 189.533 19.8344 188.967 20.993C188.598 20.8454 187.557 18.0025 187.803 17.6741Z" fill="white"/>
<path d="M165.719 3.44103C165.453 3.54988 161.269 4.01479 162.418 3.2713C163.505 3.04991 164.735 2.73813 165.719 3.44103Z" fill="white"/>
<path d="M166.262 5.03684C166.169 5.05344 166.051 5.11248 165.961 5.08296C165.101 4.75088 164.153 4.81176 163.303 4.49259C162.886 3.62366 166.562 4.19188 166.262 5.03684Z" fill="white"/>
<path d="M154.361 30.0774C157.095 30.76 159.822 30.6493 162.453 31.533C162.071 39.4346 151.418 37.61 154.361 30.0774Z" fill="black"/>
<path d="M163.32 27.035C163.373 26.013 163.759 25.1366 164.622 24.4854C167.439 22.9394 168.255 27.214 166.222 28.7157C165.148 29.7599 163.224 28.9223 163.32 27.035Z" fill="black"/>
<path d="M152.84 23.5649C152.886 21.9986 153.609 20.4471 155.199 20.3235C157.314 20.4028 157.022 23.3712 155.976 24.5464C154.866 26.0279 152.871 25.3619 152.84 23.5649Z" fill="black"/>
<path d="M181.068 34.6378C180.319 34.7097 179.313 35.8296 178.824 35.5897C178.668 35.468 178.704 35.2189 178.955 34.9772C180.167 33.8057 181.612 33.2578 183.3 33.4441C183.8 33.5272 184.752 33.7965 184.595 34.4625C183.817 34.695 183.09 34.0898 182.276 34.3758C182.355 34.8204 183.191 36.8055 182.175 36.5454C181.927 35.8259 181.832 35.0806 181.068 34.6378Z" fill="black"/>
<path d="M166.294 20.6942C167.49 20.6813 169.986 22.0262 169.261 23.2936C169.012 23.3453 168.892 23.1534 168.772 22.9966C168.052 22.0612 167.104 21.5521 165.931 21.4524C165.597 21.4746 165.233 21.2052 165.534 20.9137C165.801 20.8086 166.087 20.7495 166.294 20.6942Z" fill="black"/>
<path d="M154.898 17.4565C155.695 16.2628 157.773 17.1262 158.262 18.2165C158.45 18.5302 158.363 19.2478 157.867 18.925C157.107 17.9121 156.158 17.5782 154.898 17.4565Z" fill="black"/>
<path d="M158.494 24.4319C157.986 25.4964 156.671 25.9115 155.785 26.6346C155.219 26.9962 154.774 26.5978 155.366 26.1255C156.099 25.7842 157.833 23.7326 158.494 24.4319Z" fill="black"/>
<path d="M156.67 37.3721C157.302 37.527 157.966 37.5455 158.548 37.7779C159.011 38.2595 158.136 38.3037 157.826 38.2189C157.491 38.0362 156.269 37.9477 156.67 37.3721Z" fill="black"/>
<path d="M117.743 65.2574C117.391 64.5232 118.813 64.5103 119.263 64.4605C120.911 64.276 123.287 65.6043 122.767 67.51C122.427 67.3237 122.293 67.1484 122.126 66.8385C121.309 65.0748 119.387 65.1836 117.743 65.2574Z" fill="black"/>
<path d="M161.811 31.8153C161.778 32.4315 161.767 32.4794 161.398 32.4923C160.695 32.5163 159.988 32.5422 159.289 32.4979C157.953 32.199 155.439 32.7414 155.258 30.843C157.461 31.3153 159.545 31.664 161.811 31.8153Z" fill="white"/>
<path d="M156.387 35.636C157.121 34.2948 159.458 33.7967 160.722 34.4239C160.18 35.8482 157.615 36.6581 156.387 35.636Z" fill="#EF6261"/>
</svg>
