<svg width="300" height="200" viewBox="0 0 300 200" fill="none" xmlns="http://www.w3.org/2000/svg">
<path d="M90.4518 26.9403C89.8593 27.5881 87.4036 27.4433 86.413 27.7805C83.443 28.3253 84.9061 32.4117 83.6144 34.2939C82.2504 27.1499 83.8945 28.6835 77 27.1251C77.2172 26.5098 80.151 26.5593 80.9359 26.2697C83.6811 25.8163 82.9019 22.1795 83.5268 20.1487C83.5497 19.9982 83.6049 19.8496 83.8716 19.9049C84.8966 25.1191 83.523 26.1364 89.6402 26.6393C89.9355 26.6812 90.2441 26.6812 90.4518 26.9403Z" fill="#C67A0F"/>
<path d="M209.051 31.7164C209.483 31.2211 210.032 31.3545 210.6 31.223C216.511 30.8306 214.476 28.7236 215.812 24.2961C216.934 26.1555 215.665 29.9409 218.311 30.6572C219.666 31.1087 221.329 30.8382 222.552 31.5088C222.489 31.7888 222.251 31.7888 222.049 31.8193C215.071 32.4747 217.448 33.3834 215.837 38.8967C214.126 32.0174 216.488 33.1548 209.051 31.7164Z" fill="#C67A0F"/>
<path d="M166.394 18.4914C165.331 13.3343 166.655 12.1722 160.517 11.6959C160.25 11.6578 159.964 11.6654 159.793 11.3987C160.336 10.7986 162.633 10.8806 163.55 10.6005C166.743 10.2671 165.443 6.12356 166.531 4.04321C167.51 5.95211 166.383 9.68607 168.943 10.3814C170.374 10.7777 171.909 10.6272 173.262 11.2597C172.565 11.7931 171.576 11.6159 170.747 11.8331C166.105 11.9855 167.657 15.3537 166.56 18.4933C166.505 18.4933 166.449 18.4933 166.394 18.4914Z" fill="#C67A0F"/>
<path d="M94.0624 80.3781C92.5517 73.5217 94.5292 74.5847 87.3984 73.1807C87.7661 72.4758 90.136 72.6435 90.9857 72.3482C94.2967 72.0986 93.1118 68.1189 94.0262 65.9223C94.6035 65.8214 94.7063 69.7458 94.9807 70.4221C95.5065 73.1654 99.1147 71.8586 100.801 72.9978C100.248 73.5846 98.3774 73.4074 97.5144 73.6817C96.5428 73.8779 95.2798 74.0761 95.0912 75.2439C94.6016 76.9547 94.7216 78.7283 94.0624 80.3781Z" fill="#C67A0F"/>
<path d="M199.119 77.6269C195.545 78.8271 193.244 77.1278 192.912 82.1553C192.636 83.0621 192.935 84.1633 192.232 84.8701C191.219 78.3413 192.194 78.8538 185.645 77.7832C185.907 77.0726 187.456 77.3316 188.117 77.1088C189.977 76.9392 191.51 76.5353 191.628 74.3826C191.987 73.0262 191.754 71.5345 192.482 70.3171C193.591 75.7714 192.133 76.6801 198.473 77.2707C198.7 77.3069 198.972 77.284 199.119 77.6269Z" fill="#C67A0F"/>
<path d="M87.6052 27.0052C84.4885 27.27 84.0618 28.1463 83.6884 31.1354C83.4331 28.2797 82.8044 27.2986 79.8516 27.1385C83.1169 26.386 83.2559 26.3784 83.6922 22.873C84.0446 25.6888 84.5743 26.8051 87.5995 26.8928C87.6014 26.9309 87.6033 26.969 87.6052 27.0052Z" fill="#FFCE24"/>
<path d="M215.847 35.8142C215.411 32.4613 215.16 32.2003 211.961 31.625C215.097 31.3468 215.514 30.4572 215.853 27.4414C216.272 30.7086 216.615 31.0192 219.77 31.5754C216.596 31.8364 216.167 32.7261 215.847 35.8142Z" fill="#FFCE24"/>
<path d="M166.488 15.4794C166.192 12.3608 165.546 11.6445 162.355 11.3949C165.588 11.0958 166.12 10.4462 166.505 7.31616C166.836 10.1566 167.541 11.1778 170.502 11.1949C167.059 12.0046 167.076 11.8922 166.488 15.4794Z" fill="#FFCE24"/>
<path d="M90.7656 72.9653C93.4689 72.933 93.9623 71.1498 94.0709 68.7837C94.4424 71.9671 94.9587 72.6872 98.2031 73.0015C94.9759 73.2702 94.4215 74.0398 94.0938 77.1927C93.869 75.0743 93.4556 73.3292 91.0019 73.2625C90.9123 73.173 90.7847 73.112 90.7656 72.9653Z" fill="#FFCE24"/>
<path d="M196.241 77.6252C193.85 77.107 192.681 76.9489 192.519 74.1579C192.528 73.695 192.522 73.695 192.317 73.3635C192.136 73.6455 192.178 73.9236 192.229 74.2037C192.256 74.1999 192.187 75.3162 191.987 75.6363C191.562 77.61 189.84 77.1356 188.457 77.7605C190.758 77.8119 192.14 78.5377 192.206 80.9991C192.191 81.6525 192.191 81.6525 192.42 81.965C192.576 81.6449 192.536 81.3287 192.517 81.0124C192.644 78.4387 193.82 77.789 196.241 77.6252Z" fill="#FFCE24"/>
<path d="M170.054 193.239C170.282 194.311 171.138 194.749 172.088 195.109C175.116 196.458 178.108 197.961 181.402 198.527C184.755 199.264 188.217 199.274 191.505 198.234C192.749 197.716 192.181 195.976 192.097 194.94C193.658 195.199 199.59 196.794 197.555 198.773C194.17 200.463 189.518 199.897 185.79 199.95C181.957 199.811 178.217 198.864 174.43 198.371C167.75 198.007 161.085 197.344 154.386 197.418C138.913 197.603 123.509 195.894 108.064 196.138C103.382 195.833 98.5179 195.555 94.0848 193.93C91.1547 192.061 96.6623 191.023 98.0378 191.059C97.1919 197.176 114.039 195.433 117.727 194.622C119.22 194.344 120.733 194.142 122.181 193.658C123.223 193.469 122.928 192.755 123.078 191.947C131.102 191.029 140.043 192.279 148.258 192.239C155.484 192.743 162.976 192.027 170.054 193.239Z" fill="#CCCCCC"/>
<path d="M99.666 35.8562C99.6412 39.7369 98.9478 43.6042 98.944 47.4963C98.6868 50.8911 99.3155 54.3526 98.8982 57.7037C96.9913 55.4119 97.5037 37.6641 99.666 35.8562Z" fill="black"/>
<path d="M191.18 59.723C191.827 57.8979 193.127 56.8711 194.102 55.2956C195.79 52.878 197.026 50.2566 197.552 47.3323C197.813 46.6465 197.577 44.7643 198.322 44.5852C198.472 50.3043 195.9 56.3891 191.18 59.723Z" fill="black"/>
<path d="M95.8351 56.3987C94.3225 56.1587 93.2004 44.3948 95.0159 44.3948C94.2596 48.4202 95.3893 52.4076 95.8351 56.3987Z" fill="black"/>
<path d="M196.316 57.3341C197.334 54.9604 198.991 52.8724 200.033 50.491C201.011 50.1215 200.29 51.9237 200.151 52.3333C199.33 54.2898 198.151 56.1167 196.478 57.4427C196.423 57.4065 196.37 57.3703 196.316 57.3341Z" fill="black"/>
<path d="M199.252 3.47161C197.92 2.3419 196.747 4.23555 196.632 3.53448C197.095 1.76085 194.657 0.653993 193.677 2.22378C193.207 2.86008 193.192 3.55543 192.62 4.14601C192.628 2.21235 193.519 -0.205199 190.547 0.0138857C188.45 0.440624 189.406 2.74958 188.576 4.12505C188.566 1.96278 186.545 0.274881 185.009 2.33237C184.771 2.71529 184.762 3.14203 184.792 3.57067C184.939 6.33876 185.329 9.09732 185.244 11.8711C183.481 11.5587 183.565 8.8668 181.799 8.44387C179.856 7.85139 178.949 10.3013 179.969 11.6939C181.445 13.9724 182.314 16.8548 184.522 18.5427C184.522 18.8875 184.522 19.1885 184.522 19.5429C182.687 19.9258 182.969 21.4556 182.649 22.9244C181.965 23.3588 181.599 23.9055 181.544 24.7209C180.702 28.9292 179.868 33.1395 178.989 37.3402C178.734 38.6242 178.545 39.9215 178.244 41.1941C177.829 42.9411 178.199 42.5582 176.741 43.7698C173.207 46.6046 169.792 49.6317 165.932 52.0245C165.663 52.1884 165.404 52.3027 165.08 52.2836C162.169 52.3008 159.717 54.2173 157.262 55.5546C156.405 56.2271 155.463 56.7663 154.505 57.3035C154.28 57.0482 154.338 56.8196 154.397 56.5396C155.328 56.3395 156.13 55.9585 156.867 55.3584C156.873 55.3603 156.877 55.3641 156.883 55.366C157.73 54.5221 158.414 53.4762 159.066 52.4665C163.278 53.2552 165.827 48.2277 163.057 45.1281C165.858 39.9463 170.049 32.9528 162.442 29.7294C159.184 14.9878 136.921 15.3765 127.682 23.9817C126.039 25.5248 124.632 28.0319 125.771 30.2571C126.179 31.282 127.142 32.0212 127.23 33.1452C127.514 34.8559 127.792 36.5686 128.097 38.2756C127.611 47.5552 124.919 57.3435 136.815 60.2964C137.308 60.5288 138.535 60.2011 138.262 61.087C135.637 60.8451 132.974 59.6449 130.341 60.1935C129.869 60.3421 129.455 60.3021 129.009 60.1592C124.834 58.7857 120.825 56.993 116.619 55.6861C116.369 50.0871 116.468 44.4785 116.207 38.8795C116.116 37.6716 115.893 36.4752 115.864 35.2655C115.811 34.332 114.933 33.9053 114.312 33.33C114.369 32.867 114.422 32.4231 114.47 32.0383C115.885 31.0896 116.472 30.5562 117.207 29.5274C118.781 26.9575 121.088 24.4389 121.662 21.448C121.686 19.842 119.638 18.9313 118.472 20.0325C117.413 21.0212 116.638 22.3719 115.367 23.1016C115.083 20.0477 115.438 16.9748 115.407 13.9153C115.251 11.7968 111.847 11.6863 111.721 13.9305C111.496 15.0393 111.65 16.3328 111.147 17.3254C110.57 16.0261 110.544 14.5992 110.159 13.2409C109.816 11.4329 107.274 11.4082 106.754 13.0923C106.36 14.2506 107.164 15.3727 106.987 16.5386C106.324 15.8565 106.23 14.9726 105.331 14.5535C103.098 13.559 102.338 16.2871 103.304 17.8874C103.036 18.2722 102.695 17.6549 102.315 17.6892C101.115 17.5063 100.456 18.5008 100.41 19.3105C100.904 21.3356 102.428 23.0616 103.323 24.9552C104.655 27.2585 103.779 30.5828 106.07 32.3355C106.044 32.6136 106.021 32.8765 106 33.0994C103.739 33.9339 104.722 34.9436 104.028 36.6448C102.607 44.3566 103.015 52.5941 103.441 60.4678C103.7 64.1789 104.983 68.0825 108.316 70.1057C113.519 73.2014 119.41 74.9331 124.894 77.4574C124.414 86.697 125.824 95.91 125.392 105.157C125.03 110.474 124.803 115.805 124.052 121.086C123.776 123.227 123.616 124.793 125.975 125.652C122.485 132.606 119.343 139.71 116.426 146.92C114.232 153.081 113.136 159.587 111.624 165.941C110.471 171.018 109.639 176.163 108.459 181.231C108.111 182.204 109.002 182.204 109.332 182.843C106.84 184.954 103.883 186.539 100.873 187.805C99.4959 188.465 98.4462 189.421 98.0938 190.983C97.5661 191.617 97.7375 192.303 98.0785 192.938C100.216 196.306 109.892 196.032 113.533 195.511C116.35 195.23 119.141 194.769 121.879 194.045C123.136 193.711 123.306 193.408 123.304 192.088C123.302 192.05 123.3 192.002 123.296 191.951C123.226 191.951 123.153 191.949 123.083 191.947C122.646 189.973 122.688 187.891 122.504 185.874C122.519 185.542 122.627 185.38 122.989 185.34C124.232 185.051 124.052 183.228 124.552 182.264C126.72 173.839 129.846 165.758 133.243 157.762C137.603 149.868 142.591 142.306 147.186 134.545C147.481 134.572 147.5 134.776 147.565 134.928C148.356 136.774 149.133 138.626 149.937 140.466C152.945 147.153 156.06 153.805 158.919 160.555C162.204 168.715 165.633 176.815 169.028 184.927C169.254 185.493 169.513 185.965 170.15 186.076C169.95 188.493 170.022 190.863 170.056 193.235C169.99 193.233 169.923 193.231 169.856 193.229C169.862 193.269 169.868 193.309 169.875 193.345C170.03 194.069 170.378 194.647 171.091 194.944C177.202 197.885 183.992 200.634 190.854 198.708C195.064 197.083 190.641 192.538 188.848 190.577C187.335 188.672 185.709 186.786 184.369 184.763C184.756 184.188 185.044 183.721 184.769 183.02C183.167 176.96 181.614 170.881 180.029 164.813C176.252 150.662 172.502 136.286 169.712 122.013C174.217 121.204 173.08 120.364 172.535 116.7C171.493 110.762 170.595 104.801 169.898 98.8114C169.138 91.0444 170.489 83.2355 170.876 75.4742C171.106 73.7025 172.849 72.5899 173.825 71.1897C177.197 67.5014 180.376 63.6455 183.807 60.0106C189.78 54.0782 192.767 49.2736 193.068 40.6702C193.428 35.4789 194.706 30.1123 194.584 25.0009C193.75 23.8407 195.158 22.2348 193.744 21.3165C193.653 20.1106 194.64 19.421 195.047 18.3789C195.937 16.0794 196.392 13.6333 197.156 11.2939C197.804 9.81744 198.457 8.3429 199.111 6.86837C199.616 5.81867 200.431 4.36319 199.252 3.47161Z" fill="black"/>
<path d="M127.198 125.545C127.522 123.33 133.576 121.568 135.555 120.541C138.156 119.685 141.871 119.767 142.917 116.656C143.48 118.251 144.538 119.64 146.372 119.71C149.765 120.095 153.181 119.883 156.576 119.683C160.447 119.649 164.341 120.398 167.986 121.684C169.163 122.2 168.969 124.498 169.464 125.612C169.643 131.79 170.889 137.778 172.592 143.697C174.825 152.798 177.159 161.877 179.797 170.873C180.795 174.477 181.679 178.118 182.544 181.759C182.737 182.566 182.954 183.351 183.613 183.923C181.445 185.003 178.805 184.982 176.408 185.188C174.301 185.365 172.226 185.331 170.106 185.155C163.634 169.612 157.376 153.986 150.204 138.748C149.933 138.096 143.545 122.808 144.505 127.856C144.414 130.508 144.749 133.171 144.82 135.844C144.854 136.425 144.692 136.919 144.391 137.393C140.821 143.091 137.346 148.848 133.875 154.607C131.532 158.74 130.063 163.291 128.194 167.644C125.971 172.959 124.792 178.644 122.873 184.054C118.442 183.155 114.049 181.98 109.559 181.299C111.567 170.913 113.529 160.397 116.47 150.256L116.465 150.266C119.909 142.043 125.154 134.215 127.198 125.545Z" fill="black"/>
<path d="M170.595 118.668C162.396 117.453 154.105 119.642 145.936 118.567C144.236 118.247 143.991 116.464 143.745 115.037C143.328 112.214 142.935 109.383 142.634 106.546C142.533 100.896 141.379 94.8871 143.111 89.4195C145.32 85.3197 147.65 81.2886 149.893 77.2079C150.883 75.3924 151.941 73.6092 152.886 71.7689C153.484 70.7954 152.405 70.2734 151.861 69.5819C152.444 68.6903 153.352 68.1454 154.133 67.4443C156.105 65.5069 155.017 60.9194 154.97 58.2981C156.037 57.5189 163.503 52.1865 163.543 55.2271C163.965 57.797 163.43 60.7461 165.049 62.9484C165.122 60.186 164.819 57.5646 165.381 54.8708C165.472 54.4574 165.455 54.1393 164.916 54.1374C164.575 53.8916 164.482 53.5925 164.714 53.2229C168.153 53.1181 175.381 45.8312 178.473 43.5203C178.745 43.2917 178.899 43.0117 178.966 42.6726C179.404 40.5008 179.841 38.3271 180.279 36.1553C180.86 33.332 181.405 30.4991 181.959 27.6701C182.529 24.6124 182.302 23.4008 185.887 22.9797C187.901 22.412 189.682 23.3474 191.303 24.4543C192.145 24.9229 192.502 25.6373 192.427 26.5708C191.696 34.8198 191.989 43.4041 189.436 51.3559L189.444 51.3407C187.96 54.5603 185.091 56.9435 182.795 59.6068C177.867 65.2116 172.456 70.5249 168.385 76.8059C169.048 77.1069 169.283 76.3449 169.837 76.3544C169.338 83.7099 168.492 91.0636 168.3 98.4419C168.315 104.813 169.665 111.09 170.69 117.35C170.769 117.792 170.942 118.255 170.595 118.668Z" fill="#D52B1E"/>
<path d="M137.919 62.5216C136.738 65.0878 135.534 67.6558 134.631 70.3401C134.132 71.807 135.328 71.988 136.041 72.9272C135.246 73.9788 134.004 75.0723 134.726 76.4954C136.243 81.5172 138.283 86.3656 141.318 90.6692C141.903 91.9094 141.122 93.3725 141.238 94.6966C141.228 96.7902 141.194 98.903 141.329 100.989C142.95 124.57 144.332 114.721 124.993 122.911C125.492 116.557 126.239 110.103 126.477 103.685C126.698 96.1082 125.687 88.547 125.807 80.9762C125.807 77.9947 126.26 75.0418 126.548 72.0813C126.605 71.7022 127.075 69.5019 126.214 70.1401C125.902 70.7325 125.822 71.4241 125.365 71.9404C124.656 72.569 123.147 75.701 122.269 75.2495C118.169 73.5425 114.043 71.8908 110.04 69.9629C105.929 68.1702 104.529 63.6456 104.376 59.4811C104.127 55.1623 103.946 50.8473 104.091 46.5247C104.11 44.6424 104.331 42.7621 104.409 40.8799C104.675 39.6911 104.117 38.0032 105.15 37.1726C107.409 35.6524 110.433 35.2637 112.795 36.763C113.711 37.1821 114.117 37.887 114.163 38.8434C114.506 44.4138 114.892 49.9881 115.548 55.5319C115.567 57.2407 117.925 56.9664 119.084 57.5913C122.067 59.2773 125.376 60.5556 128.424 61.9939C128.211 62.6531 127.559 63.2246 127.925 63.9638C129.617 62.1959 130.392 60.8756 133.235 61.632C134.724 62.173 136.532 61.7939 137.919 62.5216Z" fill="#D52B1E"/>
<path d="M155.589 49.7423C155.745 50.0985 155.865 50.3728 156.018 50.7196C155.145 52.7218 153.352 54.5983 153.393 56.8882C153.368 57.6883 153.598 58.5875 153.072 59.2696C151.002 62.211 147.759 64.2933 144.225 64.9601C142.804 65.1944 140.005 65.2344 139.861 63.3426C142.73 61.8948 145.532 60.2545 148.531 59.0886C149.003 58.8485 149.71 58.7171 149.792 58.096C146.515 58.3837 143.421 59.9592 140.044 59.6754C130.4 59.2562 127.464 53.0647 128.676 44.2194C128.903 41.3751 129.653 32.0021 131.549 30.3733C131.974 32.648 134.214 35.9476 136.841 34.8293C136.856 34.2939 136.138 34.1968 135.82 33.8558C133.989 32.4632 135.106 29.7294 136.433 28.3749C141.038 27.2299 149.495 27.9253 152.871 31.6687C155.692 34.7054 152.848 41.5009 154.469 45.2482C155.903 47.8296 157.603 43.8994 159.536 44.4804C165.743 45.1853 163.348 54.2649 157.58 50.731C156.915 50.3805 156.391 49.6622 155.589 49.7423Z" fill="#EED3CA"/>
<path d="M114.265 23.1892C113.026 23.694 111.742 24.0217 111.287 25.5439C112.017 25.4638 112.548 24.9628 113.194 24.6561C114.227 23.7797 115.754 24.4751 116.669 23.5588C117.471 22.6424 118.338 21.7775 119.107 20.8383C119.974 20.0134 121.073 21.1926 120.553 22.1395C119.49 24.4046 115.989 30.7924 113.539 31.16C112.348 31.3467 111.881 31.9678 113.436 32.0783C113.569 32.3374 113.518 32.5812 113.331 32.8727C111.517 32.2516 109.643 31.9449 107.73 31.8363C105.229 31.6744 105.395 28.6396 104.97 26.7936C104.572 24.3932 102.84 22.5072 101.794 20.3639C101.302 19.8153 101.316 18.236 102.365 18.7884C103.507 19.5162 103.973 20.8288 104.876 21.768C107.033 22.5624 104.293 18.1788 104.168 17.413C103.703 16.7081 103.629 14.8792 104.913 15.4641C106.138 16.6204 106.515 18.4684 107.372 19.9029C107.488 20.6783 108.763 21.2346 108.614 20.0782C108.422 17.9235 107.9 15.8127 107.667 13.6695C107.673 13.3437 107.825 13.0865 108.123 12.9303C109.791 12.3378 109.658 16.4185 110.094 17.4454C110.418 18.3141 110.264 20.1677 111.432 20.2687C112.992 20.0496 111.662 13.157 113.527 13.2542C114.516 13.2713 114.507 14.3686 114.486 15.104C114.406 17.8073 114.385 20.4897 114.265 23.1892Z" fill="#EED3CA"/>
<path d="M188.592 14.8412C189.527 13.9916 187.05 12.6485 186.355 12.378C186.172 9.71657 185.976 7.1447 185.797 4.49855C185.805 3.82986 185.525 2.57822 186.431 2.46011C186.793 2.41439 187.167 2.61632 187.329 2.96114C187.753 4.60523 187.9 6.3198 188.136 8.00009C188.154 8.30109 188.344 8.63257 188.67 8.62876C189.47 8.39253 189.161 6.67986 189.432 5.96927C189.8 4.94433 189.626 1.05987 190.794 1.01415C191.219 1.00081 191.828 1.12083 191.811 1.66378C191.752 3.88511 191.295 6.07786 191.118 8.29156C192.131 11.3054 193.652 3.08878 194.585 2.66776C197.605 1.09226 192.796 9.66513 194.366 9.86516C195.681 9.79277 197.001 3.44122 198.534 4.20707C199.757 4.79574 196.658 9.45938 196.38 10.6634C195.231 13.7668 195.124 17.3883 192.773 19.9049C192.954 20.0612 192.983 20.4155 192.874 20.7051C191.122 20.1659 189.592 19.1277 187.753 18.8095C186.46 18.3694 185.037 17.8798 184.145 16.8111C183.461 15.5518 179.343 10.4005 180.952 9.45176C182.225 9.05169 182.735 10.8844 183.379 11.6578C183.85 12.4999 184.753 12.8238 185.605 13.1495C186.708 13.5248 187.641 14.1992 188.592 14.8412Z" fill="#EED3CA"/>
<path d="M108.9 192.747C107.485 192.637 97.1346 192.444 99.8055 189.859C100.318 189.225 101.006 188.836 101.747 188.535C105.006 187.219 107.961 185.306 110.644 183.05C112.419 182.29 114.964 183.273 116.342 184.534C116.953 185.037 117.669 185.635 118.517 185.533C119.616 185.47 120.359 186.538 121.262 187.024C122.002 187.832 121.577 189.469 121.792 190.537C121.815 191.069 121.727 191.132 121.175 191.242C119.626 191.556 118.07 191.81 116.5 191.991C114.021 192.355 111.358 192.648 108.9 192.747Z" fill="#D52B1E"/>
<path d="M191.064 195.321C184.198 197.712 177.17 194.616 170.98 191.699C170.98 191.01 170.98 190.377 170.98 189.726C174.882 187.644 179.064 185.946 183.447 185.186C185.206 187.308 186.758 189.604 188.545 191.707C189.425 192.865 190.854 193.795 191.064 195.321Z" fill="#D52B1E"/>
<path d="M183.613 183.923C182.291 184.123 182.091 180.067 181.626 179.072C181.049 176.748 180.487 174.422 179.896 172.102C177.879 164.921 175.724 157.774 174.01 150.51C172.242 142.285 168.971 134.031 169.464 125.61C172.107 137.639 174.836 149.645 178.203 161.496C180.024 168.532 181.838 175.569 183.678 182.599C183.748 183.043 184.141 183.645 183.613 183.923Z" fill="#6A6969"/>
<path d="M141.988 87.9201C141.365 85.6092 140.984 83.3326 140.487 81.0008C140.253 77.404 141.171 73.8587 141.542 70.2676C142.432 69.8561 143.337 70.0104 144.255 70.0009C144.598 73.1843 144.756 76.4915 144.398 79.6882C143.562 82.4411 142.783 85.1482 141.988 87.9201Z" fill="#212492"/>
<path d="M149.768 75.1693C147.863 78.9832 145.707 82.6143 143.598 86.3273C145.707 77.5544 149.12 68.9816 153.394 61.0088C154.022 61.5346 153.314 64.6151 153.521 65.7467C153.594 67.5794 150.858 67.9623 150.637 69.635C150.391 70.0941 150.681 70.4561 150.896 70.7933C151.816 72.1726 150.336 73.4547 149.947 74.7635L149.953 74.7501C149.82 74.8568 149.85 75.0378 149.768 75.1693Z" fill="#D52B1E"/>
<path d="M135.477 71.0886C136.151 68.932 137.001 66.8993 137.947 64.8914C137.485 72.5726 139.411 80.1092 140.773 87.6057C139.651 87.2342 134.743 75.6132 135.81 74.8968C137.593 72.7193 138.066 72.7593 135.477 71.0886Z" fill="#D52B1E"/>
<path d="M189.434 51.3596C190.867 44.9376 191.549 38.4012 191.821 31.8496C192.006 30.0436 191.97 28.2224 192.166 26.4144C192.345 24.4294 189.669 24.2998 188.688 22.9929C190.562 23.1529 193.732 23.9378 193.673 26.2639C193.321 29.1311 193.046 32.0097 192.715 34.8787C191.743 40.352 192.401 46.4673 189.434 51.3596Z" fill="#FCA6A6"/>
<path d="M170.595 118.668C169.595 111.795 167.89 104.925 168.054 97.9484C168.309 95.5327 168.294 93.0999 168.589 90.6938C168.504 89.7108 168.755 87.3618 168.938 87.198C167.884 97.895 170.43 108.44 171.866 118.969C171.369 119.001 170.982 118.838 170.595 118.668Z" fill="#FCA6A6"/>
<path d="M127.2 125.545C127.32 125.633 127.44 125.723 127.596 125.839C124.676 134.286 120.641 142.392 116.469 150.268C116.671 148.366 117.696 146.57 118.355 144.775C121.111 138.289 123.935 131.779 127.2 125.545Z" fill="#6A6969"/>
<path d="M115.547 55.5318C114.345 50.8129 114.595 45.7987 113.983 40.9827C114.006 36.8334 113.669 37.7021 110.445 35.8027C116.724 35.7951 115.193 39.9901 115.391 44.488C115.372 48.1705 115.528 51.8512 115.547 55.5318Z" fill="#FCA6A6"/>
<path d="M171.196 192.856C177.401 195.778 184.238 198.523 191.13 196.38C192.458 198.38 184.326 198.213 183.297 197.9C181.235 197.529 179.149 197.171 177.216 196.344C175.482 195.599 173.764 194.818 172.04 194.046C171.523 193.795 170.916 193.635 171.196 192.856Z" fill="#CCCCCC"/>
<path d="M99.1523 192.147C106.439 194.917 114.368 193.435 121.823 192.21C122.335 193.107 120.887 192.976 120.39 193.193C118.171 193.544 115.969 193.989 113.726 194.197C109.594 194.643 105.363 194.765 101.339 193.57C100.532 193.205 99.379 193.222 99.1523 192.147Z" fill="#CCCCCC"/>
<path d="M105.232 35.8219C105.215 35.3857 105.316 35.0427 105.37 34.6065C108.065 32.9052 112.011 32.6804 114.535 34.8027C114.929 35.1628 114.948 35.2275 114.969 35.98C111.931 34.2864 108.372 34.5398 105.232 35.8219Z" fill="white"/>
<path d="M183.947 20.9261C186.919 19.8325 192.12 20.907 193.48 22.5339C193.459 22.8102 193.436 23.134 193.408 23.5036C190.413 21.7757 187.066 21.5128 183.747 22.3587C183.722 21.8824 183.793 21.4157 183.947 20.9261Z" fill="white"/>
<path d="M143.163 66.025C144.584 65.7926 145.832 67.7872 144.68 68.8617C143.817 69.2751 142.695 69.0274 141.746 69.2351C140.469 69.3589 140.71 67.6005 141.352 66.9756C141.927 66.1507 142.14 66.0422 143.163 66.025Z" fill="#212492"/>
<path d="M164.717 53.2249C164.69 53.9031 165.332 54.4403 165.039 55.1147C164.555 57.296 164.54 59.4926 164.797 61.7006C164.835 62.0263 164.907 62.3635 164.7 62.6683C163.286 61.5043 163.492 56.4902 163.261 54.526C162.225 54.406 161.335 54.9985 160.301 54.989C161.615 54.1069 163.126 53.3144 164.717 53.2249Z" fill="#FCA6A6"/>
<path d="M147.894 70.0581C147.065 72.0032 146.524 74.0188 145.581 75.8115C145.513 73.9007 145.345 72.0756 145.244 70.1763C145.158 69.5304 145.657 69.2599 146.04 68.7627C146.583 69.8105 146.515 70.5077 147.894 70.0581Z" fill="white"/>
<path d="M128.422 61.9919C127.457 61.8166 126.554 61.4471 125.671 61.0432C123.536 59.9306 121.134 59.1781 119.227 57.6921C122.484 58.7818 125.7 60.0392 128.885 61.2623C128.891 61.6071 128.641 61.7919 128.422 61.9919Z" fill="#FCA6A6"/>
<path d="M153.245 66.787C153.415 64.4533 152.708 61.7709 154.087 59.7439C154.466 60.8889 154.664 66.4707 153.245 66.787Z" fill="#FCA6A6"/>
<path d="M140.356 69.5837C141.078 70.683 139.882 74.3064 139.85 75.8496C139.825 76.0134 139.874 76.2287 139.589 76.3011C139.282 74.4874 139.143 72.6643 139 70.7973C139.922 70.7382 139.985 70.4067 140.356 69.5837Z" fill="white"/>
<path d="M137.923 62.5216C135.979 62.3559 134.025 62.1254 132.131 61.6529C131.266 61.5443 130.449 62.0682 129.586 62.1254C130.78 59.784 135.962 61.8187 138.119 62.0549C138.239 62.3083 138.037 62.394 137.923 62.5216Z" fill="#FCA6A6"/>
<path d="M141.018 65.8574C140.03 67.2214 140.03 67.2214 139.254 69.5361C138.553 69.4961 138.974 65.3373 139.049 64.5981C139.712 65.1563 140.23 65.5012 141.018 65.8574Z" fill="white"/>
<path d="M136.336 25.2144C136.505 24.2561 140.96 20.9813 141.299 22.1853C140.163 22.7473 139.098 23.4236 138.068 24.1609C137.563 24.4905 137.247 25.1172 136.336 25.2144Z" fill="white"/>
<path d="M149.947 74.7635C149.825 73.4337 151.63 72.3212 150.782 71.0543C150.504 70.6752 150.279 70.2427 150.149 69.7017C150.355 69.6731 150.496 69.6541 150.637 69.635C151.079 70.1684 151.521 70.7038 151.984 71.2639C151.393 72.4583 150.784 73.7309 149.947 74.7635Z" fill="#FCA6A6"/>
<path d="M169.243 119.558C170.238 119.596 171.116 119.84 172.006 120.194C171.324 120.819 170.71 120.844 169.859 120.977C169.62 120.579 168.999 120.354 169.243 119.558Z" fill="black"/>
<path d="M139.844 24.4809C139.922 24.0598 143.507 21.7852 143.17 22.9054C142.101 23.5055 141.052 24.1532 139.844 24.4809Z" fill="white"/>
<path d="M159.25 31.1162C160.404 31.4439 161.648 32.7508 161.132 33.9472C160.974 33.8195 160.816 33.7681 160.768 33.5776C160.616 32.5145 159.774 31.9335 159.25 31.1162Z" fill="white"/>
<path d="M139.762 21.2307C139.225 21.667 137.904 22.4195 137.369 22.6062C137.245 21.8803 139.141 20.9716 139.762 21.2307Z" fill="white"/>
<path d="M161.697 32.2136C162.512 32.3355 162.842 33.4538 162.737 34.2273C162.731 34.574 162.295 34.5912 162.24 34.2635C162.333 33.5091 161.662 32.8747 161.697 32.2136Z" fill="white"/>
<path d="M151.318 62.6815C151.091 62.6777 150.984 62.8205 150.861 62.9844C149.18 64.3751 147.209 65.0857 145.18 65.8744C146.031 66.8479 146.78 67.8709 147.27 69.1378C149.274 67.6614 150.07 65.3467 151.131 63.2054C151.308 63.0796 151.417 62.931 151.318 62.6815Z" fill="white"/>
<path d="M116.472 150.256C116.476 150.422 116.437 150.567 116.281 150.655C116.298 150.5 116.262 150.319 116.472 150.256Z" fill="#212492"/>
<path d="M156.675 74.1082C152.781 72.2774 153.416 71.8697 157.016 70.4847C157.352 69.616 157.079 66.1392 158.685 67.2956C159.558 67.9205 160.177 69.5246 161.373 69.3474C162.069 69.2864 164.669 68.2272 164.568 69.4636C164.189 70.9705 162.17 72.1517 163.242 73.7824C164.886 77.2154 164.597 77.8498 161.051 76.0399C160.19 75.6761 160.181 75.6951 159.609 76.4038C159.133 76.9963 158.632 77.5678 158.136 78.1451C155.911 80.4293 156.959 75.1446 156.675 74.1082Z" fill="black"/>
<path d="M173.45 49.3669C174.082 49.8299 173.044 51.3311 172.945 52.0036C171.567 55.5032 170.487 59.2162 168.586 62.453C169.441 57.9722 171.474 53.541 173.45 49.3669Z" fill="black"/>
<path d="M164.695 62.6701C164.093 59.8163 164.291 56.9778 164.966 54.1563C165.21 53.781 165.983 53.5277 165.741 54.2383C164.971 57.3169 165.377 60.506 165.293 63.6379C164.773 63.8208 164.88 62.9673 164.695 62.6701Z" fill="black"/>
<path d="M123.465 66.6976C121.196 64.8782 119.908 62.0587 118.441 59.5878C117.089 55.589 123.499 66.1013 123.606 66.5432C123.56 66.5947 123.513 66.6461 123.465 66.6976Z" fill="black"/>
<path d="M135.762 46.6484C138.425 46.4465 141.075 45.955 143.74 45.835C149.271 47.5248 141.972 56.2901 136.011 53.141C132.799 52.1236 130.561 45.8369 135.756 46.5779C135.756 46.6008 135.758 46.6256 135.762 46.6484Z" fill="black"/>
<path d="M144.799 40.4263C146.973 40.1881 149.029 43.3239 146.929 42.6552C145.567 41.3331 143.954 41.6703 142.294 42.0208C141.006 41.2397 144.218 40.3043 144.799 40.4263Z" fill="black"/>
<path d="M145.429 36.8296C147.092 36.5172 149.435 38.9614 148.019 38.9976C146.535 37.3554 144.535 38.0526 142.628 38.1727C141.717 37.3401 144.889 36.7629 145.429 36.8296Z" fill="black"/>
<path d="M159.993 46.656C160.193 47.5152 160.372 48.323 159.882 49.0984C159.775 49.2603 159.514 49.2069 159.476 49.026C159.396 48.3001 159.575 47.4105 158.859 46.9589C158.316 46.9856 157.958 47.3476 157.56 47.5629C156.6 46.5989 160 45.2634 160.852 45.7988C161.345 45.9073 162.225 46.5703 161.284 46.7703C160.833 46.7284 160.478 46.6103 159.993 46.656Z" fill="black"/>
<path d="M135.686 41.6514C134.235 41.6171 132.686 40.2302 131.404 41.5561C131.154 41.7161 130.941 41.7237 130.828 41.5732C130.586 39.3043 135.915 39.3919 135.665 41.6761L135.686 41.6514Z" fill="black"/>
<path d="M133.094 36.22C134.155 36.3171 135.102 36.5838 135.805 37.3973C136.089 37.6297 136.22 38.2775 135.678 38.1746C134.5 37.6526 133.231 36.8544 131.896 37.3116C131.599 37.3802 131.21 37.5783 131.023 37.2201C131.151 36.4086 132.433 36.2524 133.094 36.22Z" fill="black"/>
<path d="M135.666 41.6743C136.26 41.2323 136.87 40.095 137.614 40.1274C137.818 40.8894 135.812 42.564 135.365 43.3565C135.052 43.9052 134.094 44.0157 134.488 43.225C134.892 42.705 135.298 42.1849 135.687 41.6515L135.666 41.6743Z" fill="black"/>
<path d="M137.656 54.7392C138.491 54.5678 139.047 54.9373 139.851 54.7068C141.644 55.0326 138.258 56.1776 137.656 54.7392Z" fill="black"/>
<path d="M163.174 69.9989C162.496 71.5363 161.21 71.9764 162.229 73.7253C162.416 74.3806 163.05 75.036 162.854 75.7161C159.349 74.3406 160.414 73.8948 157.895 76.882C157.672 76.8096 157.691 76.6458 157.693 76.501C157.701 73.2795 158.244 73.8701 155.441 72.2755C158.634 70.7362 157.55 71.824 158.373 68.4463C160.678 70.7762 159.977 70.5019 163.174 69.9989Z" fill="#FFCE24"/>
<path d="M144.585 48.4982C144.471 50.7081 141.857 52.998 139.404 53.0685C139.213 50.5766 142.05 47.8752 144.585 48.4982Z" fill="#EF6261"/>
<path d="M144.399 46.9C143.195 47.7115 134.388 48.8603 133.727 47.6315C133.883 46.9952 134.662 47.0981 135.176 47.1152C137.563 47.3038 139.903 47.0124 142.221 46.4694C142.993 46.2351 143.829 46.1779 144.399 46.9Z" fill="white"/>
</svg>
