<svg width="300" height="200" viewBox="0 0 300 200" fill="none" xmlns="http://www.w3.org/2000/svg">
<g clip-path="url(#clip0_2441_72312)">
<path d="M120.92 88.1486C139.673 88.1486 154.876 72.9462 154.876 54.1931C154.876 35.4401 139.673 20.2377 120.92 20.2377C102.167 20.2377 86.9648 35.4401 86.9648 54.1931C86.9648 72.9462 102.167 88.1486 120.92 88.1486Z" fill="#3DB97E"/>
<mask id="mask0_2441_72312" style="mask-type:luminance" maskUnits="userSpaceOnUse" x="86" y="20" width="69" height="69">
<path d="M120.92 88.1486C139.673 88.1486 154.876 72.9462 154.876 54.1931C154.876 35.4401 139.673 20.2377 120.92 20.2377C102.167 20.2377 86.9648 35.4401 86.9648 54.1931C86.9648 72.9462 102.167 88.1486 120.92 88.1486Z" fill="white"/>
</mask>
<g mask="url(#mask0_2441_72312)">
<path d="M146.342 50.1443C140.764 50.5 135.302 50.8425 129.8 51.1383C129.257 51.1813 128.718 51.2038 128.194 51.2038C124.793 51.2038 121.963 50.3128 119.782 48.557C116.57 45.7567 114.326 45.1053 112.343 44.5306C109.895 43.8212 100.29 34.8119 100.129 25.9468L97.6622 23.1278C97.6622 23.1278 90.5118 33.9191 88.6436 38.1944C88.5575 38.4059 87.0395 40.0063 86.9253 40.2815C85.5551 43.5722 84.3533 48.2275 85.1245 49.9833L84.4844 51.9506L93.9298 49.4629C93.9953 49.4611 94.0589 49.4611 94.1244 49.4611C97.5275 49.4611 100.006 51.784 102.653 54.5769C104.685 56.8699 103.609 59.2827 102.467 61.8378C102.147 62.5566 101.816 63.2978 101.563 64.0297L101.548 64.0709L101.541 64.114C101.342 65.2258 102.565 66.1973 103.748 67.1351C104.384 67.6387 105.041 68.1609 105.298 68.5746L105.322 68.6139L105.352 68.6495C107.252 70.8059 107.087 74.1827 106.911 77.7579C106.793 80.167 107.089 85.3614 107.667 87.4691L117.586 90.64C119.795 88.4238 119.827 82.9823 121.356 80.8633C124.789 76.1032 127.5 72.3445 135.378 70.862L135.798 70.7834L135.833 70.3585C136.136 66.8076 136.926 63.9623 138.321 61.4054L138.34 61.3717L138.353 61.3361C139.91 57.2555 142.791 53.742 146.684 51.1776L148.449 50.0133L146.342 50.1443Z" fill="#D6E3F2" stroke="black" stroke-width="2" stroke-miterlimit="10" stroke-linecap="round" stroke-linejoin="round"/>
<path d="M146.342 50.1443C140.764 50.5 135.302 50.8425 129.8 51.1383C129.257 51.1813 128.718 51.2038 128.194 51.2038C124.793 51.2038 121.963 50.3128 119.782 48.557C116.57 45.7567 114.326 45.1053 112.343 44.5306C109.895 43.8212 100.29 34.8119 100.129 25.9468L97.6622 23.1278C97.6622 23.1278 90.5118 33.9191 88.6436 38.1944C88.5575 38.4059 87.0395 40.0063 86.9253 40.2815C85.5551 43.5722 84.3533 48.2275 85.1245 49.9833L84.4844 51.9506L93.9298 49.4629C93.9953 49.4611 94.0589 49.4611 94.1244 49.4611C97.5275 49.4611 100.006 51.784 102.653 54.5769C104.685 56.8699 103.609 59.2827 102.467 61.8378C102.147 62.5566 101.816 63.2978 101.563 64.0297L101.548 64.0709L101.541 64.114C101.342 65.2258 102.565 66.1973 103.748 67.1351C104.384 67.6387 105.041 68.1609 105.298 68.5746L105.322 68.6139L105.352 68.6495C107.252 70.8059 107.087 74.1827 106.911 77.7579C106.793 80.167 107.089 85.3614 107.667 87.4691L117.586 90.64C119.795 88.4238 119.827 82.9823 121.356 80.8633C124.789 76.1032 127.5 72.3445 135.378 70.862L135.798 70.7834L135.833 70.3585C136.136 66.8076 136.926 63.9623 138.321 61.4054L138.34 61.3717L138.353 61.3361C139.91 57.2555 142.791 53.742 146.684 51.1776L148.449 50.0133L146.342 50.1443Z" fill="#D6E3F2"/>
</g>
<path opacity="0.3" d="M148.428 96.8864C156.296 96.8864 162.673 86.8456 162.673 74.4597C162.673 62.0737 156.296 52.033 148.428 52.033C140.561 52.033 134.184 62.0737 134.184 74.4597C134.184 86.8456 140.561 96.8864 148.428 96.8864Z" fill="black"/>
<path d="M120.92 88.1486C139.673 88.1486 154.876 72.9462 154.876 54.1931C154.876 35.4401 139.673 20.2377 120.92 20.2377C102.167 20.2377 86.9648 35.4401 86.9648 54.1931C86.9648 72.9462 102.167 88.1486 120.92 88.1486Z" stroke="black" stroke-miterlimit="10"/>
<path fill-rule="evenodd" clip-rule="evenodd" d="M145.189 12.3985C145.257 12.6661 145.096 12.9383 144.828 13.0064C137.65 14.8334 128.778 19.7127 119.945 26.0308C111.12 32.3422 102.375 40.0594 95.4551 47.5193C88.517 54.9986 83.4732 62.1558 81.9641 67.3479C81.2097 69.9436 81.3754 71.9136 82.4505 73.2136C83.5342 74.5237 85.6789 75.3239 89.302 75.2327C89.5781 75.2258 89.8075 75.4439 89.8144 75.72C89.8214 75.996 89.6032 76.2254 89.3272 76.2324C85.6038 76.3261 83.0611 75.5207 81.68 73.8509C80.2904 72.1709 80.214 69.7864 81.0039 67.0688C82.5834 61.6344 87.7731 54.3301 94.722 46.8392C101.689 39.329 110.485 31.5673 119.363 25.2175C128.232 18.8744 137.224 13.91 144.581 12.0373C144.849 11.9692 145.121 12.1309 145.189 12.3985Z" fill="black"/>
<path d="M155.368 11.7057C154.2 11.6889 149.253 14.2496 149.028 13.0871C147.791 11.0056 146.539 8.92787 145.343 6.82577C144.912 5.64089 146.722 5.54355 147.467 5.21785C149.013 4.83037 150.054 6.44579 151.099 7.3293C152.263 6.95868 153.407 6.63484 154.577 6.17811C154.049 4.40172 152.624 2.84246 152.654 0.970608C153.723 0.321074 155.413 -0.639188 156.432 0.601852C157.586 1.91964 158.753 3.18314 159.951 4.47098C161.942 3.97681 163.855 2.81251 165.942 3.13447C167.476 3.40964 170.776 4.47098 169.692 6.53376C168.533 7.82535 166.5 7.84032 164.969 8.52729C163.663 8.9522 162.356 9.37524 161.01 9.81326C159.911 12.1418 159.919 17.4579 157.265 18.2572C156.546 18.3377 155.131 19.4383 154.87 18.2834C154.925 16.0615 155.235 13.9557 155.368 11.7057Z" fill="black"/>
<path d="M155.899 17.6077C155.797 15.0114 156.721 12.3104 156.081 9.77773C155.576 9.88068 155.789 10.6051 155.209 10.7006C153.395 11.2153 151.587 12.0183 149.769 12.3815C148.537 10.6219 147.547 8.67146 146.387 6.81084C147.94 5.51926 148.878 6.41213 150.016 7.60825C150.761 8.34576 150.662 8.54979 152.049 8.09119C156.508 6.8464 160.836 4.69564 165.399 4.00867C166.348 4.0068 170.358 5.25345 168.349 6.35785C166.062 7.17211 163.758 7.88715 161.425 8.68082C161.26 8.53856 161.107 8.40753 160.909 8.23719C159.544 9.42582 159.074 14.0568 158.327 15.9979C158.118 17.136 156.972 17.5553 155.899 17.6077Z" fill="#D52B1E"/>
<path d="M155.492 5.86739C154.702 4.49906 154.18 3.04276 153.465 1.66133C154.092 1.17652 155.015 0.590625 155.636 1.2177C156.677 2.42692 157.851 3.49387 158.79 4.78545C157.654 5.27026 156.651 5.60158 155.492 5.86739Z" fill="#D52B1E"/>
<path fill-rule="evenodd" clip-rule="evenodd" d="M138.543 69.3364C139.028 69.3948 139.378 69.4454 139.636 69.5116C139.865 69.5702 140.072 69.6509 140.272 69.7802C140.437 69.8863 140.575 70.0125 140.666 70.0966C140.673 70.1025 140.679 70.1082 140.685 70.1136C140.94 70.348 141.056 70.6982 140.991 71.0389C140.926 71.3796 140.689 71.6622 140.364 71.7855C139.549 72.0954 138.753 72.1852 138.023 72.2163C137.706 72.2298 137.389 72.2325 137.089 72.235C137.047 72.2354 137.005 72.2357 136.964 72.2361C136.629 72.2392 136.314 72.244 136.003 72.263C129.722 72.9415 124.063 77.585 121.731 83.4565C121.137 85.6404 121.035 88.3721 121.69 90.707C122.344 93.0378 123.704 94.8455 125.965 95.503C125.973 95.5047 125.985 95.5074 126.006 95.5118L126.014 95.5137C126.041 95.5194 126.083 95.5283 126.125 95.5385C126.22 95.5612 126.374 95.6027 126.537 95.687C126.939 95.8935 127.228 96.2662 127.321 96.7772C127.387 97.14 127.247 97.5096 126.959 97.7389C125.913 98.5691 124.793 98.704 123.794 98.6597C123.352 98.6401 122.909 98.5839 122.51 98.5334C122.471 98.5285 122.432 98.5236 122.394 98.5188C121.949 98.4628 121.555 98.4175 121.174 98.4123C120.875 98.4082 120.594 98.2708 120.407 98.0376C120.311 97.9176 120.214 97.8058 120.104 97.6785C120.062 97.6297 120.018 97.5787 119.971 97.524C119.898 97.4389 119.82 97.3475 119.742 97.2505C119.749 97.4915 119.763 97.7506 119.777 98.0196L119.781 98.0926C119.802 98.5022 119.83 99.0138 119.783 99.3981C119.824 102.798 121.073 105.694 123.41 108.194C132.546 117.151 147.303 116.679 159.349 113.653C160.26 113.403 161.16 113.113 162.085 112.815C162.156 112.792 162.227 112.769 162.299 112.746C163.294 112.425 164.317 112.099 165.364 111.829C165.4 111.82 165.433 111.81 165.483 111.794C165.507 111.787 165.534 111.779 165.568 111.768C165.658 111.741 165.788 111.704 165.933 111.678C166.243 111.623 166.665 111.618 167.1 111.858C167.507 112.082 167.706 112.557 167.58 113.004C167.45 113.467 167.214 113.828 166.971 114.112C177.074 112.841 187.116 110.897 196.073 106.183C196.082 106.178 196.091 106.173 196.1 106.169C199.983 104.274 203.853 101.227 206.124 97.6001C208.297 94.131 208.994 90.1809 206.921 86.0914C206.916 86.0942 206.912 86.0971 206.907 86.0999C206.647 86.2985 206.392 86.5201 206.113 86.7653L206.049 86.8223C205.781 87.058 205.488 87.3159 205.182 87.5552C204.518 88.0731 203.713 88.5675 202.669 88.7309C202.668 88.731 202.667 88.7312 202.666 88.7314C202.171 88.8465 201.132 89.0881 200.259 88.3614C199.87 88.0376 199.784 87.4739 200.059 87.049C204.89 79.5904 202.206 68.7013 194.316 64.4149C194.276 64.4054 194.237 64.3935 194.198 64.3791C194.196 64.3785 194.193 64.3779 194.189 64.3771L194.172 64.3735C194.151 64.369 194.117 64.3618 194.08 64.3524C193.972 64.3255 193.783 64.2697 193.59 64.1317C192.296 63.5956 190.93 63.2217 189.532 63.0058L189.508 63.0017C189.473 62.9955 189.431 62.9893 189.368 62.9804L189.353 62.9782C189.298 62.9704 189.229 62.9606 189.16 62.949C189.015 62.9249 188.796 62.8829 188.579 62.7914C188.359 62.6984 188.055 62.5191 187.854 62.1706C187.644 61.8077 187.635 61.4174 187.708 61.0844C187.784 60.7325 188.044 60.4489 188.388 60.342C188.769 60.2232 189.134 60.1873 189.465 60.1886C188.332 57.3543 186.011 55.1192 183.122 53.5809C179.775 51.7995 175.759 51.0093 172.234 51.311L172.225 51.3118C169.745 51.5016 167.371 52.1906 165.208 53.384C165.17 53.4051 165.13 53.4237 165.089 53.4396C165.08 53.4452 165.066 53.4542 165.045 53.4679C165.038 53.4727 165.028 53.4793 165.016 53.4873C164.955 53.528 164.839 53.605 164.733 53.6637C164.608 53.7329 164.358 53.8581 164.041 53.8692C163.656 53.8829 163.296 53.725 163.036 53.4307C162.942 53.3246 162.872 53.1999 162.83 53.0647C162.679 52.5785 162.883 52.1743 162.991 51.9985C163.116 51.7948 163.281 51.6204 163.424 51.4853C163.717 51.2088 164.103 50.928 164.461 50.684C164.467 50.6799 164.473 50.6758 164.479 50.6716C158.239 48.7781 151.761 49.8237 146.84 53.0024C141.643 56.3589 138.174 62.0944 138.543 69.3364ZM167.669 50.1637C167.595 49.8483 167.372 49.5872 167.069 49.4655C159.677 46.4928 151.705 47.4785 145.754 51.3224C139.803 55.1662 135.883 61.8673 136.6 70.2405C136.359 70.2447 136.109 70.2523 135.856 70.2683C135.841 70.2692 135.827 70.2704 135.813 70.2719C128.699 71.0299 122.421 76.2419 119.851 82.7733C119.838 82.8059 119.827 82.8392 119.817 82.873C119.128 85.3661 118.992 88.4963 119.764 91.2474C120.375 93.4235 121.584 95.4411 123.602 96.6436C123.334 96.6215 123.055 96.5863 122.749 96.5476C122.714 96.5433 122.679 96.5389 122.644 96.5344C122.34 96.4963 122.011 96.4562 121.671 96.4327C121.645 96.4029 121.62 96.3738 121.595 96.3454C121.558 96.3023 121.522 96.2609 121.489 96.2221C121.353 96.0637 121.24 95.9262 121.145 95.792C121.126 95.7624 121.105 95.7337 121.083 95.7058L121.082 95.7045C121.029 95.5826 120.952 95.4706 120.853 95.3763C120.555 95.0915 120.238 94.8439 119.903 94.6987C119.551 94.5464 119.058 94.462 118.582 94.7363C118.158 94.9812 117.977 95.3877 117.894 95.6454C117.805 95.9237 117.768 96.2243 117.752 96.4901C117.72 96.9967 117.751 97.5866 117.777 98.0659L117.78 98.1375C117.81 98.7052 117.819 99.0303 117.796 99.1652C117.786 99.223 117.782 99.2814 117.782 99.34C117.81 103.318 119.284 106.717 121.965 109.576C121.974 109.586 121.984 109.596 121.994 109.606C131.937 119.372 147.684 118.648 159.847 115.59L159.868 115.585C160.827 115.322 161.771 115.017 162.69 114.721C162.764 114.697 162.838 114.673 162.912 114.649C163.309 114.522 163.702 114.396 164.093 114.274C164.06 114.331 164.029 114.39 164 114.451C163.825 114.817 163.89 115.253 164.163 115.553C164.963 116.434 165.974 116.27 166.395 116.202C166.437 116.195 166.474 116.189 166.503 116.186C176.892 114.91 187.492 112.956 196.991 107.959C201.11 105.947 205.302 102.681 207.819 98.6618C210.361 94.6036 211.21 89.7284 208.464 84.7328C208.454 84.7105 208.446 84.6913 208.433 84.6609C208.421 84.6329 208.405 84.5954 208.38 84.5374C208.335 84.4369 208.262 84.2764 208.149 84.1171C208.031 83.9499 207.856 83.761 207.596 83.6249C207.333 83.4865 207.047 83.4368 206.765 83.4511C206.462 83.4663 206.183 83.6182 206.005 83.8641C205.88 84.0374 205.81 84.2091 205.769 84.3229C205.749 84.3801 205.731 84.4349 205.719 84.472C205.717 84.4809 205.714 84.4889 205.712 84.4962C205.381 84.7476 205.072 85.0172 204.792 85.264L204.736 85.3132C204.459 85.5574 204.209 85.7775 203.951 85.9786C203.482 86.3445 203.047 86.5985 202.561 86.715C206.882 78.3252 203.656 67.0588 195.065 62.5473C194.942 62.483 194.809 62.4452 194.673 62.4353C194.64 62.4142 194.607 62.3948 194.572 62.3772L194.564 62.3734C194.535 62.359 194.506 62.346 194.476 62.3346C193.63 61.9771 192.76 61.6832 191.873 61.4511C191.888 61.3323 191.881 61.2103 191.851 61.091C190.815 56.8912 187.749 53.7786 184.061 51.8155C180.377 49.8544 175.978 48.9842 172.068 49.3179C170.565 49.4333 169.092 49.7145 167.669 50.1637Z" fill="#78A2D3"/>
<path fill-rule="evenodd" clip-rule="evenodd" d="M206.53 82.7981C206.88 82.6633 207.275 82.7347 207.555 82.9832C214.717 89.3427 212.788 99.5397 206.347 105.356C194.68 115.963 177.698 118.825 162.645 117.714C162.299 117.689 162 117.487 161.841 117.197C150.258 121.167 136.92 122.495 125.487 116.61C120.841 114.393 117.283 110.609 115.715 106.206C114.135 101.771 114.595 96.7576 117.917 92.2345C118.12 91.958 118.45 91.8049 118.792 91.8287C119.134 91.8526 119.44 92.0501 119.603 92.352C119.9 92.9033 120.133 93.4972 120.343 94.0306C120.35 94.0487 120.357 94.0667 120.364 94.0847C120.587 94.6535 120.789 95.1599 121.04 95.6194C121.206 95.9231 121.203 96.291 121.032 96.592C120.861 96.8929 120.547 97.0842 120.201 97.0976C120.129 97.1004 120.06 97.0993 119.993 97.0949C119.392 102.816 121.93 107.094 125.959 110.092C130.335 113.348 136.459 115.066 142.113 115.279C146.423 115.326 150.619 115.35 154.711 114.463C154.728 114.459 154.745 114.456 154.762 114.453C157.443 114.018 160.02 113.201 162.679 112.359C163.097 112.226 163.517 112.093 163.94 111.961C163.988 111.946 164.037 111.934 164.087 111.927C164.231 111.905 164.402 111.856 164.63 111.78C164.69 111.76 164.76 111.736 164.835 111.709C165.006 111.65 165.204 111.582 165.383 111.528C165.914 111.368 166.693 111.195 167.489 111.542C167.931 111.734 168.172 112.214 168.064 112.683C167.975 113.07 167.824 113.403 167.642 113.691C177.265 112.817 187.011 110.413 195.655 106.128L195.662 106.125C199.761 104.129 203.805 100.974 206.071 97.2441C208.301 93.5737 208.813 89.3728 205.975 84.9916C205.85 84.7992 205.795 84.5699 205.82 84.3419C205.844 84.1136 205.868 83.8846 205.897 83.6237C205.937 83.2516 206.181 82.933 206.53 82.7981ZM118.178 95.6277C116.532 98.9539 116.484 102.407 117.599 105.535C118.972 109.39 122.132 112.797 126.361 114.811C126.37 114.815 126.38 114.82 126.389 114.825C137.524 120.563 150.769 119.096 162.391 114.882C162.757 114.749 163.166 114.841 163.441 115.117C163.616 115.293 163.764 115.517 163.832 115.79C164.12 115.807 164.408 115.823 164.697 115.838C164.443 115.749 164.229 115.559 164.114 115.303C163.944 114.923 164.027 114.477 164.322 114.184C164.442 114.065 164.565 113.952 164.685 113.846C164.615 113.862 164.544 113.877 164.472 113.89C164.083 114.012 163.692 114.136 163.3 114.26C160.658 115.098 157.936 115.961 155.109 116.423C150.767 117.36 146.354 117.325 142.078 117.279C142.069 117.279 142.061 117.278 142.052 117.278C136.102 117.056 129.549 115.256 124.765 111.696C119.974 108.131 116.951 102.779 118.178 95.6277ZM165.42 115.871C179.48 116.449 194.562 113.368 205.003 103.875L205.006 103.873C208.839 100.412 210.744 95.4569 209.926 90.9542C209.963 93.5566 209.145 96.0362 207.78 98.2826C205.256 102.437 200.864 105.815 196.541 107.922C186.911 112.694 176.006 115.178 165.42 115.871Z" fill="#78A2D3"/>
<path fill-rule="evenodd" clip-rule="evenodd" d="M194.018 62.6868C194.29 62.4753 194.651 62.4182 194.974 62.5357C203.848 65.7583 207.809 75.7435 206.859 84.4046C207.087 84.539 207.252 84.7586 207.319 85.0159C207.389 85.2876 207.342 85.5762 207.189 85.8114C206.506 86.86 205.458 87.8516 204.241 88.4574C203.018 89.0662 201.533 89.3239 200.089 88.7093C199.732 88.5576 199.496 88.2136 199.481 87.8264C199.454 87.0951 199.803 86.5634 200.05 86.2339C200.113 86.1498 200.177 86.069 200.232 86.0004L200.235 85.9965C200.291 85.9259 200.338 85.8673 200.382 85.8092C200.472 85.6901 200.522 85.6105 200.55 85.5481C200.564 85.5179 200.579 85.4885 200.596 85.4599C201.91 83.2093 202.427 80.5834 202.286 77.9308L202.285 77.914C202.143 74.0107 200.439 70.1715 197.747 67.3109C196.744 66.2966 195.666 65.4295 194.46 64.7393C194.27 64.6315 193.713 64.3106 193.638 63.5769C193.603 63.2346 193.747 62.8983 194.018 62.6868ZM203.986 75.2316C204.15 76.0885 204.251 76.9582 204.284 77.8329C204.44 80.79 203.87 83.7989 202.346 86.4297C202.232 86.6644 202.094 86.8616 201.977 87.0162C201.966 87.0304 201.955 87.0444 201.945 87.0583C202.4 87.0387 202.873 86.904 203.35 86.667C203.967 86.3597 204.541 85.9002 205.003 85.3831C204.787 84.9715 204.835 84.5245 204.858 84.3046C204.859 84.2919 204.86 84.2799 204.862 84.2688L204.863 84.2568L204.863 84.2568C205.204 81.2445 204.9 78.1168 203.986 75.2316Z" fill="#78A2D3"/>
<path fill-rule="evenodd" clip-rule="evenodd" d="M121.087 82.1842C121.562 82.3345 121.853 82.8107 121.772 83.3016C121.369 85.7213 121.335 88.6184 122.088 90.9987C122.828 93.3374 124.281 95.0828 126.87 95.5624C127.015 95.5893 127.152 95.648 127.272 95.7342C127.566 95.946 127.946 96.3801 127.841 97.0087C127.758 97.5079 127.403 97.8115 127.217 97.9487C126.799 98.2593 126.189 98.4823 125.648 98.6327C125.078 98.7915 124.442 98.9072 123.887 98.9458C123.611 98.965 123.325 98.9673 123.063 98.9358C122.897 98.9159 122.636 98.8722 122.384 98.7393C122.331 98.7246 122.282 98.7108 122.236 98.6978C121.869 98.5943 121.691 98.5442 121.483 98.5648L121.478 98.5653L121.478 98.5653C121.145 98.5964 120.901 98.4627 120.801 98.3987C120.692 98.3292 120.614 98.253 120.581 98.2205C120.554 98.1931 120.522 98.1584 120.511 98.147C120.297 97.949 120.179 97.6665 120.19 97.3736C120.196 97.2427 120.226 97.1159 120.279 96.9995C120.252 96.8623 120.195 96.6671 120.108 96.4213C120.018 96.1634 119.912 95.8973 119.81 95.6422C119.803 95.6241 119.796 95.606 119.789 95.588L119.78 95.5668C119.701 95.3669 119.607 95.1303 119.548 94.9392C117.827 91.0423 118.085 86.4435 119.884 82.704C120.1 82.2556 120.613 82.034 121.087 82.1842ZM121.416 94.2182C121.432 94.2586 121.446 94.3001 121.457 94.3424C121.473 94.4021 121.531 94.5559 121.647 94.8492C121.655 94.8688 121.663 94.8888 121.671 94.9092C121.77 95.1576 121.89 95.4597 121.995 95.7575C122.09 96.0279 122.189 96.3391 122.246 96.6357C122.496 96.6855 122.718 96.7511 122.888 96.8016C122.949 96.8195 123.003 96.8355 123.049 96.8482C123.134 96.8711 123.214 96.9049 123.289 96.9485C123.293 96.949 123.297 96.9495 123.301 96.9501C123.395 96.9613 123.544 96.9648 123.748 96.9506C123.956 96.9362 124.189 96.9056 124.43 96.8619C123.141 96.2424 122.154 95.3171 121.416 94.2182ZM126.046 96.3258C126.046 96.3258 126.042 96.3304 126.03 96.3394C126.039 96.3302 126.045 96.3257 126.046 96.3258ZM123.238 96.9389C123.239 96.9387 123.244 96.9397 123.253 96.9426C123.243 96.9405 123.238 96.9391 123.238 96.9389Z" fill="#78A2D3"/>
<path d="M194.547 63.4419L194.6 63.4326C203.158 67.9269 206.082 79.5904 200.899 87.5926C201.367 87.982 201.938 87.8734 202.48 87.748C204.126 87.5065 205.108 86.2 206.349 85.2678C206.675 85.0918 206.63 84.7062 206.816 84.4498C207.336 84.4236 207.418 84.8766 207.577 85.1948C212.674 94.4343 204.545 103.161 196.539 107.067C187.204 111.981 176.75 113.92 166.382 115.193C165.887 115.255 165.369 115.393 164.903 114.881C165.298 114.051 166.34 113.718 166.617 112.734C166.271 112.543 165.934 112.715 165.614 112.797C163.585 113.321 161.623 114.066 159.604 114.62C147.495 117.664 132.235 118.263 122.694 108.892C120.173 106.203 118.808 103.041 118.782 99.3329C118.968 98.2435 118.05 94.0861 120.164 96.1002L120.107 96.1264L120.165 96.1058C120.124 96.2331 120.224 96.2762 120.302 96.3305L120.295 96.3211C120.559 96.7048 120.894 97.0455 121.188 97.4124C122.96 97.4367 124.767 98.2023 126.337 96.9557C126.26 96.5326 125.938 96.5289 125.706 96.469C120.291 94.9116 119.486 87.8247 120.781 83.1395C123.228 76.923 129.208 71.9813 135.919 71.2663C137.308 71.1783 138.665 71.3618 140.009 70.8507C139.582 70.4595 139.582 70.4595 137.604 70.2349C136.174 54.1987 152.519 44.6916 166.696 50.3932C166.294 50.7657 163.611 52.2071 163.785 52.7686C164.055 53.0737 164.442 52.602 164.725 52.5084C167.018 51.2431 169.532 50.5149 172.149 50.3146C179.586 49.6782 188.982 53.6353 190.88 61.3305C190.173 61.2762 189.443 61.0609 188.685 61.2968C188.544 61.9426 189.246 61.9388 189.684 62.0175C191.212 62.2533 192.707 62.6689 194.124 63.2716L194.117 63.2679C194.231 63.4026 194.407 63.3802 194.547 63.4419Z" fill="white"/>
<path d="M120.162 96.0983C119.728 96.1152 119.546 95.898 119.196 95.6116C116.722 109.241 130.482 115.846 142.089 116.279C146.389 116.326 150.7 116.356 154.923 115.44C158.114 114.922 161.165 113.877 164.239 112.915C165.165 112.773 166.184 112.063 167.09 112.458C166.833 113.57 165.826 114.1 165.027 114.894C175.612 114.238 186.51 111.777 196.1 107.024C204.523 102.921 212.974 93.9569 206.814 84.4479C206.838 84.2195 206.863 83.9911 206.891 83.731C213.469 89.5711 211.827 99.0615 205.676 104.615C194.295 114.963 177.636 117.817 162.719 116.717C162.678 116.415 163.074 116.166 162.732 115.822C150.988 120.081 137.421 121.634 125.931 115.713C117.049 111.485 112.484 101.323 118.723 92.8263C119.269 93.8409 119.591 95.0519 120.162 96.0983Z" fill="#AFC0D4"/>
<path d="M206.351 85.2659C205.164 87.0891 202.68 88.725 200.48 87.7891C200.452 87.0366 201.167 86.6024 201.459 85.9641C202.888 83.5175 203.434 80.691 203.285 77.8776C203.133 73.7109 201.317 69.6415 198.466 66.6166C197.409 65.5459 196.258 64.6155 194.955 63.8705C194.79 63.777 194.653 63.6777 194.633 63.4756C202.957 66.4986 206.805 75.9815 205.856 84.3692C205.8 84.9252 205.843 84.9963 206.351 85.2659Z" fill="#AFC0D4"/>
<path d="M120.785 83.1376C119.95 88.1579 120.585 95.4151 126.687 96.5457C127.764 97.3206 123.427 98.3445 122.786 97.8129C122.333 97.6894 121.877 97.5209 121.384 97.5696C121.324 97.5752 121.253 97.4666 121.19 97.4123C121.615 97.1035 120.63 95.1324 120.49 94.5952C118.869 90.9788 119.091 86.6585 120.785 83.1376Z" fill="#AFC0D4"/>
<path d="M130.678 190.829C131.182 188.431 131.53 186.112 132.567 183.847C132.427 183.52 132.172 183.076 132.343 182.668C134.841 173.67 137.741 164.792 140.35 155.835C141.535 145.671 142.759 135.508 144.208 125.372C143.662 125.019 142.683 124.944 142.965 124.12C143.154 123.212 143.345 122.304 143.536 121.396C144.203 118.54 144.667 115.646 145.071 112.743C145.816 108.499 144.732 104.215 144.564 99.96C144.171 95.0894 143.559 90.2469 142.978 85.3988C135.558 81.8779 128.784 77.202 122.188 72.3445C118.715 69.9654 119.55 65.4149 119.853 61.8041C120.58 55.3462 122.085 49.0137 123.326 42.6438C123.453 41.7209 123.601 41.6535 124.458 41.2904C125.488 36.5209 124.2 28.1724 129.106 25.7409C130.562 24.8443 133.071 23.9832 134.19 25.7765C134.679 26.5757 135.817 26.6487 136.195 27.6015C136.316 27.8112 136.421 27.9984 136.676 28.0976C137.728 28.4139 137.591 29.7167 138.473 30.2165C138.845 30.443 139.027 30.8361 139.1 31.2647C139.252 33.335 138.77 37.1835 136.081 37.1555C135.708 38.7016 135.59 40.6165 133.769 41.18C133.737 41.4701 133.709 41.7284 133.683 41.968C136.144 43.7388 134.738 44.5568 134.705 47.11C134.08 52.4111 133.097 57.6822 133.056 63.0301C137.79 64.522 142.636 65.5815 147.428 66.8674C147.789 66.961 148.126 66.9648 148.476 66.8375C151.842 66.1898 155.174 68.904 158.286 69.9466C158.768 69.591 159.219 69.2578 159.726 68.8853C159.761 68.6195 159.805 68.3013 159.851 67.9419C158.213 67.633 157.201 66.4219 156.106 65.3044C151.817 66.0719 148.963 62.141 150.66 58.4048C149.313 55.8927 148.738 53.0662 147.787 50.4269C145.429 47.0052 146.563 42.4285 149.223 39.5327C152.184 36.1334 156.362 34.1867 160.471 32.5357C165.315 30.8305 175.914 26.0853 177.269 34.0707C179.772 34.3327 183.085 35.5681 183.118 38.5257C183.229 42.9695 183.175 47.4694 182.284 51.8383C182.222 55.4192 182.611 59.0131 182.493 62.6015C182.46 65.2876 180.85 67.5563 178.963 69.2952C179.693 69.6565 180.981 68.9527 181.844 69.2634C182.415 69.46 182.963 69.3514 183.519 69.2185C187.289 68.3069 191.091 67.5413 194.81 66.4332C193.927 62.1859 193.024 57.9125 192.311 53.6203C192.137 51.2693 190.501 48.5588 192.455 46.6027C192.326 46.2059 192.197 45.8128 192.058 45.3935C189.724 45.182 188.951 42.9582 188.642 40.9422C186.288 40.9085 185.252 38.5182 185.288 36.4404C185.52 35.1039 185.391 33.3706 186.551 32.4459C187.396 31.4145 187.364 29.6961 189.02 29.4172C190.86 26.0366 195.564 28.8107 197.968 30.1772C201.249 32.7735 199.825 39.9726 200.834 43.7949C200.925 44.2404 201.081 44.6485 201.509 44.9068C202.861 46.8854 203.329 49.4704 204.184 51.7166C205.487 55.7636 206.537 59.8798 207.552 64.0072C207.926 66.0101 209.001 67.9793 208.649 70.0496C208.377 73.3478 205.865 75.6483 203.218 77.3255C197.451 80.8521 191.265 83.6093 185.292 86.7522C185.069 90.451 185.477 94.1872 185.299 97.9084C185.091 101.023 184.588 104.196 185.294 107.285C186.544 113.475 188.094 119.596 189.597 125.728C190.153 127.845 188.558 127.785 187.332 128.53C187.212 129.915 188.453 131.677 188.8 133.096C190.55 137.296 191.791 141.678 193.019 146.054C196.56 158.145 201.086 169.951 203.059 182.455C203.217 183.231 203.26 183.993 202.908 184.688C204.216 186.296 205.787 187.823 207.593 188.894C209.36 190.148 211.951 190.769 212.799 192.941C213.158 193.654 213.13 194.431 213.285 195.196C213.592 196.097 213.375 196.679 212.492 196.913C205.862 198.871 198.883 197.787 192.214 196.638C190.801 196.368 189.492 195.704 189.442 194.079C189.18 191.533 189.696 188.899 189.226 186.387C182.871 169.518 175.68 153.02 167.035 137.225C164.108 144.411 161.804 151.981 159.355 159.388C156.102 168.195 151.542 176.476 148.021 185.184C147.8 186.346 146.091 188.001 146.556 188.892C147.523 191.172 149.187 193.135 149.416 195.704C149.607 197.547 149.073 198.41 147.237 198.569C142.378 198.991 137.681 198.573 133.582 195.522C132.024 194.431 129.121 193.126 130.678 190.829Z" fill="black"/>
<path d="M130.68 190.829C130.545 191.816 130.238 192.976 131.273 193.592C132.72 194.545 134.139 195.543 135.608 196.46C138.839 198.313 142.764 198.511 146.411 198.38C150.955 198.573 148.801 193.899 147.683 191.466C147.962 191.011 148.41 191.119 148.812 191.157C151.758 191.426 154.707 191.673 157.645 192.016C167.819 192.321 178.039 192.579 188.207 192.181C188.675 192.168 189.173 192.087 189.581 192.437C189.873 193.783 189.476 195.647 191.208 196.035C193.857 196.741 196.625 196.984 199.332 197.394C203.549 197.91 207.837 197.774 211.974 196.767C213.152 196.578 213.03 196.241 213.286 195.191C214.657 195.393 220.321 195.726 218.281 197.759C214.378 198.917 210.159 198.706 206.123 199.071C189.497 199.133 172.882 199.595 156.272 199.986C153.883 199.719 151.515 200.048 149.119 199.994C143.358 199.61 137.596 198.869 131.894 197.963C122.179 196.404 117.754 192.965 130.68 190.829Z" fill="#CCCCCC"/>
<path d="M202.047 183.894C199.061 186.571 194.535 186.436 190.782 185.97C190.275 185.919 190.134 185.392 189.969 184.993C189.078 182.709 188.199 180.42 187.3 178.14C184.899 172.5 183.081 166.622 180.466 161.076C176.47 152.129 170.723 143.415 167.623 134.324C168.977 124.399 157.262 162.77 156.579 163.146C153.996 168.642 151.55 174.2 149.026 179.722C148.231 180.983 146.239 187.422 145.109 187.252C141.616 187.46 137.939 186.831 135.002 184.839C133.75 183.915 132.971 183.256 133.63 181.61C136.028 172.788 139.171 164.165 141.363 155.294C142.563 146.157 143.562 136.991 144.901 127.871C146.192 127.546 147.456 128.064 148.751 128.111C152.27 128.362 155.765 128.794 159.215 129.519C165.212 130.419 166.582 131.065 169.233 124.974C169.81 126.816 169.362 129.541 171.698 130.138C172.872 130.488 173.873 131.274 175.167 131.19C178.882 131.055 182.504 130.155 186.025 129.021C186.346 129.245 186.377 129.577 186.437 129.895C186.104 130.979 186.503 131.984 186.866 132.95C190.239 141.923 192.966 151.103 195.63 160.305C197.944 168.094 200.572 175.97 202.047 183.894Z" fill="black"/>
<path d="M131.959 62.5603C131.944 63.0938 132.04 63.6685 132.513 63.9979L132.5 63.9829C137.238 66.3134 142.413 67.195 147.439 68.6027C148.008 68.8367 148.557 68.7711 149.088 68.5278C149.789 68.2077 150.451 68.2695 151.164 68.5428C153.379 69.5405 155.756 70.1526 158.008 70.9462C157.648 73.3516 157.458 75.7513 157.482 78.1847C157.426 80.9756 157.248 81.4661 160.022 82.6248C159.956 83.819 158.526 84.8317 159.359 86.0409C160.651 88.1954 161.87 90.3967 163.345 92.4352C165.641 95.4938 167.925 98.5636 170.13 101.691C170.454 102.275 171.167 102.714 171.118 103.436C170.656 110.001 171.152 116.934 168.767 123.18C167.839 125.273 167.081 128.725 164.417 129.047C157.48 128.53 150.367 126.836 144.049 124.077C144.839 120.026 145.725 115.963 146.161 111.854C146.709 107.184 145.571 102.509 145.425 97.8373C145.24 95.2167 144.791 92.6261 144.516 90.0148C144.282 88.332 144.173 86.6212 143.842 84.9608C143.823 84.242 143.037 84.3506 142.563 84.0567C135.471 80.5264 128.844 76.0901 122.538 71.3094C119.191 68.8236 120.977 62.3207 121.297 58.6687C122.242 53.3134 123.193 47.9524 124.313 42.6344C126.357 41.3765 129.247 41.4907 131.433 42.2582L131.422 42.2451C132.534 42.9021 133.43 43.7688 133.204 45.2176C132.691 50.9754 131.418 56.7707 131.959 62.5603Z" fill="#D52B1E"/>
<path d="M207.602 68.3274C208.442 74.6 201.048 77.2843 196.588 79.8506C192.808 81.6588 189.166 83.8339 185.355 85.5073C184.838 83.1507 185.871 79.5417 184.301 77.6717C183.938 78.7462 183.82 79.8244 183.799 80.9419C183.895 89.676 183.573 98.41 183.606 107.144C184.46 113.357 186.487 119.684 188.091 125.838C188.617 127.046 187.255 127.506 186.347 127.766C184.099 128.588 181.802 129.256 179.449 129.707C175.275 130.522 172.175 130.894 171.484 125.75C170.906 122.467 170.981 119.126 171.451 115.841C171.812 111.296 171.847 106.682 172.351 102.18C174.612 96.8077 176.523 91.2783 177.837 85.5953C178 84.4235 176.643 83.8133 176.158 82.8512C177.551 81.9639 177.991 81.4754 177.231 79.8731C176.057 77.215 174.938 74.6131 173.609 72.0113C174.575 71.4141 175.754 71.3112 176.827 70.9686C178.745 70.4408 180.664 70.1151 182.641 70.3453C184.773 69.8886 186.907 69.4412 189.031 68.947C189.737 68.5801 198.158 67.3073 196.636 66.3639C195.105 65.9783 194.982 61.2911 194.48 59.8161C193.941 56.0069 192.588 52.091 192.53 48.3098C193.456 46.7899 195.043 45.6424 196.803 45.2924C198.246 45.2793 200.21 45.3935 200.779 46.9864C203.411 53.9872 204.768 61.3903 207.602 68.3274Z" fill="#D52B1E"/>
<path d="M162.997 48.4203C161.977 47.3346 162.331 46.0393 163.005 44.948C164.431 42.4509 167.494 42.4603 170.021 42.0841C172.579 41.7602 175.149 41.734 177.72 41.9175C180.96 42.9152 180.982 51.0484 181.343 53.9198C181.504 59.5691 182.938 66.8637 176.488 69.5479C172.067 71.8484 167.374 70.3622 162.85 69.4993C163.061 70.0496 163.69 70.248 164.158 70.5232C166.614 71.6088 168.918 73.024 171.226 74.3773C171.25 76.9755 167.705 76.3203 166.114 75.7288C164.034 74.8958 162.23 73.5687 160.935 71.7212C159.495 70.2106 161.829 67.9831 160.379 66.4931C159.632 65.7144 158.965 64.8533 158.52 63.8556C158.718 63.1949 159.491 62.7381 159.22 61.849C158.439 62.2758 157.971 63.0919 157.208 63.573C155.076 65.2614 151.918 64.2057 151.28 61.5607C150.57 58.5845 153.256 56.3776 155.849 56.9859C157.38 59.9191 159.437 58.3842 159.473 55.655C159.637 52.1079 157.855 48.4091 159.156 44.9667C159.643 46.9621 160.616 49.7568 163.211 49.3731C163.419 49.3394 163.602 49.2813 163.639 49.0024C164.143 48.4596 165.161 48.4615 165.859 48.2387C167.026 47.7446 169.073 49.6164 169.551 48.7984C169.701 48.3829 169.3 48.1096 169.004 47.9093C167.125 46.7094 164.719 47.0988 162.997 48.4203Z" fill="#EED3CA"/>
<path d="M190.042 29.6268C191.208 27.4704 195.406 29.8982 196.966 30.7275C200.088 32.2979 199.049 40.6932 199.771 44.0083C197.46 43.7181 195.21 43.8679 193.018 44.7383C192.226 44.0083 190.809 44.4762 190.377 43.2277C189.362 41.3858 189.472 39.3193 190.369 37.4905C189.733 37.4381 189.28 37.2191 188.761 36.9196C187.908 37.0094 188.881 37.7712 189.145 38.0988C188.988 38.6697 189.201 39.9463 188.291 39.8509C187.661 39.7741 187.138 39.5271 186.908 38.8775C186.565 37.8667 186.03 36.8522 186.371 35.7646C186.85 34.4506 188.999 35.3453 190.055 35.3809C190.946 35.5063 191.646 36.0398 192.306 36.5995C192.539 36.7099 192.774 36.4591 192.673 36.2438C191.327 34.3776 188.711 34.4749 186.618 34.5311C186.792 31.2684 191.593 33.3087 193.229 34.3214C193.454 34.4656 193.776 34.722 194.004 34.4581C194.156 34.1305 193.746 33.8946 193.525 33.7243C191.867 32.5918 190.036 32.0733 188.02 32.1744C187.977 28.8032 192.861 30.8117 194.16 32.2998C194.538 32.5675 194.796 33.4248 195.341 33.2058C195.539 33.0935 195.597 32.8651 195.44 32.6686C194.242 30.7574 192.123 30.0087 190.042 29.6268Z" fill="#EED3CA"/>
<path d="M133.274 26.3193C132.191 26.7536 129.823 27.478 129.695 28.7546C130.367 28.8725 131.215 27.9591 131.857 27.6764C132.997 27.0568 134.66 26.5945 135.337 28.1556C133.722 28.5262 131.945 29.0316 131.017 30.5198C131.447 30.6489 131.665 30.3794 131.992 30.1828C133.332 29.3779 136.638 27.4761 136.964 30.1716C135.637 30.5179 134.319 30.9091 133.304 31.9218C133.654 32.7884 138.16 29.625 138.186 31.4426C138.351 32.4646 137.821 36.315 136.376 35.9388C135.545 35.1526 136.988 34.5293 137.185 33.8105C136.801 33.3294 136.389 34.6135 135.584 34.2204C134.751 36.0286 135.569 39.0517 133.593 40.1636C132.844 40.3264 132.876 40.8955 132.625 41.4458C130.407 40.5099 128.162 39.8098 125.738 39.5964C125.757 37.2846 126.199 34.9692 126.39 32.6574C126.592 30.6339 126.85 28.4682 128.632 27.2103C129.804 26.3923 132.121 24.8218 133.274 26.3193Z" fill="#EED3CA"/>
<path d="M211.896 193.813C205 195.582 197.554 194.723 190.737 193.089C190.664 191.958 190.379 190.85 190.567 189.674C193.756 188.561 196.94 187.34 200.173 186.191C201.143 185.891 202.367 184.704 202.885 186.256C201.938 186.511 197.904 187.518 198.805 188.909C198.956 189.034 199.179 189.036 199.377 188.86C200.435 187.883 201.82 187.501 203.204 187.263C203.99 187.1 204.523 187.857 205.032 188.298C204.75 188.967 203.142 188.866 202.485 189.251C201.933 189.496 201.32 189.766 200.866 190.176C200.574 190.543 200.991 191.237 201.468 190.883C203.039 189.992 205.184 189.043 206.966 189.622C208.527 190.913 211.741 191.503 211.896 193.813Z" fill="#D52B1E"/>
<path d="M132.387 187.303C133.396 187.069 134.154 187.51 135.043 187.587C137.267 187.387 139.363 187.699 141.552 188.222C140.93 188.722 139.154 188.461 139.199 189.438C139.455 189.996 140.221 189.598 140.661 189.504C142.214 189.182 144.764 188.585 145.748 190.197C144.754 190.155 139.079 190.189 139.412 191.636C139.814 192.186 140.691 191.548 141.245 191.522C142.531 191.202 143.841 191.161 145.157 191.192C146.817 190.957 148.26 194.5 147.875 195.816C145.887 196.209 143.86 195.75 141.84 195.702C138.351 195.629 135.507 193.324 132.574 191.711C131.966 191.396 131.621 191.132 131.788 190.395C131.97 189.354 132.183 188.364 132.387 187.303Z" fill="#D52B1E"/>
<path d="M170.302 97.5809C170.758 98.4569 170.749 99.4939 170.76 100.454C170.549 100.555 170.492 100.394 170.412 100.282C168.377 97.4031 166.24 94.599 164.139 91.7669C162.737 89.7921 161.521 87.6956 160.31 85.5973C159.875 84.594 161.101 83.7104 161.245 82.7277C161.476 81.5747 159.72 81.4698 159.005 80.942C157.968 80.7847 158.689 71.8728 159.136 70.8639C160.15 74.9333 163.407 83.031 163.407 83.031C163.497 83.1414 163.471 83.3099 163.595 83.4035L163.585 83.3885C165.676 88.1561 167.368 93.2794 170.302 97.5809Z" fill="#D52B1E"/>
<path d="M202.045 183.894C198.437 170.14 194.386 156.507 190.112 142.938C189.781 141.021 184.862 130.252 186.434 129.895C189.833 137.586 191.851 145.768 194.348 153.77C197.692 163.339 200.409 173.091 202.264 183.061C202.317 183.36 202.45 183.8 202.045 183.894Z" fill="#6A6969"/>
<path d="M188.032 126.963C186.741 121.318 184.845 115.856 183.959 110.102C183.853 110.029 183.71 109.928 183.613 109.86C182.986 105.162 183.386 100.336 183.504 95.6042C183.514 90.7 183.512 85.7976 183.536 80.8933C183.68 80.2176 183.358 78.3345 184.158 78.2053C184.283 84.3656 184.143 90.5334 184.221 96.6974C184.313 100.128 183.476 103.588 184.276 106.978C185.313 112.501 186.602 117.971 188.01 123.413C188.225 124.283 188.425 125.157 188.615 126.033C188.761 126.699 188.747 126.703 188.032 126.963Z" fill="#FCA6A6"/>
<path d="M168.094 81.8141C168.683 81.6307 169.833 81.5053 170.37 81.5558C171.282 84.051 171.463 86.8794 171.98 89.5075C172.191 91.7294 171.53 93.9812 170.991 96.1282C170.003 94.6476 169.509 92.7832 168.579 91.2165C168.5 88.1204 168.489 84.9326 168.094 81.8141Z" fill="#404040"/>
<path d="M176.007 81.5204C175.94 81.8629 175.612 81.9378 175.386 82.11C173.641 83.6786 176.932 84.9927 176.37 86.6492C175.852 88.6353 175.264 90.6007 174.72 92.5774L174.729 92.5624C174.508 92.8938 174.534 93.3093 174.362 93.6575L174.371 93.6406C173.722 95.9112 172.937 98.1967 171.944 100.409C171.187 96.7142 173.016 93.2887 173.306 89.6367C173.849 85.4924 174.525 81.2845 174.18 77.1065C174.405 77.0728 174.506 77.2301 174.572 77.391C174.942 78.7481 176.041 80.1445 176.007 81.5204Z" fill="#D52B1E"/>
<path d="M207.603 68.3275C205.009 63.3091 204.004 57.5943 202.31 52.2277C201.686 50.7134 201.031 46.8517 199.798 46.0356C198.974 45.7754 198.167 45.446 197.276 45.4909C197.091 45.5002 196.919 45.4591 196.805 45.2906C197.933 44.7983 199.07 44.8863 200.206 45.2569C201.314 45.6743 201.389 47.1475 201.883 48.089C204.245 54.6929 206.022 61.5083 207.603 68.3275Z" fill="#FCA6A6"/>
<path d="M190.781 194.343C193.065 194.281 195.598 195.125 197.945 195.329C202.66 195.883 207.43 195.876 212.083 194.828C212.706 196.173 210.909 195.915 210.147 196.19C206.134 197.087 201.996 196.844 197.952 196.288C196.445 195.741 190.897 196.046 190.781 194.343Z" fill="#CCCCCC"/>
<path d="M157.169 70.6168C154.869 70.716 152.815 69.2428 150.661 68.5933C150.129 68.3537 149.611 68.539 149.124 68.788C147.733 69.4132 146.344 68.2695 144.92 68.144C140.725 67.1164 136.161 66.334 132.5 63.9829C137.455 65.3625 142.486 66.5586 147.477 67.8502C148.467 68.1946 149.337 67.3017 150.348 67.7584C152.68 68.5222 155.075 69.3439 157.169 70.6168Z" fill="#FCA6A6"/>
<path d="M131.957 62.5602C131.107 60.4993 131.725 57.1244 131.914 54.8763C132.088 52.6525 132.29 50.4325 132.631 48.2256C132.781 47.0763 132.736 45.8989 133.002 44.7664C133.262 43.6582 131.961 43.0611 131.422 42.245C135.171 42.9694 133.973 44.787 133.683 47.6285C132.962 52.5889 132.268 57.553 131.957 62.5602Z" fill="#FCA6A6"/>
<path d="M166.301 76.8968C165.476 78.0798 164.959 79.1954 164.499 80.5563C163.716 80.1707 163.078 79.7851 162.79 78.9259C162.223 76.9735 161.255 75.2308 160.871 73.2261C162.466 74.9257 164.225 76.1069 166.301 76.8968Z" fill="white"/>
<path d="M165.879 79.6747C166.781 76.9755 167.487 77.0653 170.034 77.1608C170.987 78.0143 171.588 80.5937 169.718 80.6424C167.887 80.897 167.277 81.0935 165.879 79.6747Z" fill="#404040"/>
<path d="M167.453 88.7176C166.261 86.3591 165.042 84.0212 163.996 81.5746C165.372 81.6046 165.027 81.6514 165.625 80.693C166.152 81.161 167.028 81.4118 167.148 82.1867C167.485 84.3506 167.635 86.507 167.453 88.7176Z" fill="white"/>
<path d="M148.03 196.877C147.51 198.244 140.204 197.244 138.789 196.782C138.021 196.864 130.732 192.922 131.692 192.319C138.757 196.402 139.58 197.072 148.03 196.877Z" fill="#CCCCCC"/>
<path d="M172.469 80.0472C171.999 78.9577 171.543 77.9001 171.082 76.8351C172.044 75.8935 172.07 75.2122 172.469 73.7952C173.087 75.2646 173.098 76.9661 173.278 78.5516C173.313 79.2254 173.034 79.6784 172.469 80.0472Z" fill="white"/>
<path d="M171.572 80.8633C172.064 81.4735 172.635 81.1909 173.277 80.8876C173.139 82.9485 172.895 84.929 172.699 86.988C171.991 85.6159 172.059 83.9724 171.63 82.4824C171.606 81.9471 171.055 81.2976 171.572 80.8633Z" fill="white"/>
<path d="M174.719 92.5774C174.917 90.2956 175.849 88.1542 176.338 85.9098C175.879 85.0469 174.298 84.2476 174.927 83.1807C175.595 83.9013 176.913 84.7979 176.798 85.8537C176.205 88.1074 175.677 90.479 174.719 92.5774Z" fill="#FCA6A6"/>
<path d="M176.009 81.5203C175.372 80.0696 174.913 78.4879 174.18 77.1065C174.069 76.4644 173.959 75.8224 173.82 75.0212C174.942 76.6984 175.424 78.4973 176.297 80.2793C176.493 80.809 176.847 81.2957 176.009 81.5203Z" fill="#FCA6A6"/>
<path d="M160.414 37.571C160.218 36.7905 161.876 34.1474 162.711 34.3683C162.354 35.308 161.478 36.096 161.068 37.0694C160.899 37.3015 160.766 37.6347 160.414 37.571Z" fill="white"/>
<path d="M163.249 38.5163C163.046 37.3165 164.287 35.7703 164.971 35.3304C164.849 36.3618 163.868 37.47 163.441 38.5145C163.426 38.5369 163.331 38.5163 163.249 38.5163Z" fill="white"/>
<path d="M163.288 35.9444C162.742 36.8803 162.472 37.9267 161.828 38.6698C161.358 38.2168 162.569 35.7741 163.288 35.9444Z" fill="white"/>
<path d="M132.513 63.9979C132.449 63.9417 132.384 63.8855 132.32 63.8275C132.384 63.8855 132.448 63.9417 132.513 63.9979Z" fill="black"/>
<path d="M131.434 42.2581C131.376 42.2113 131.32 42.1646 131.262 42.1196C131.32 42.1664 131.378 42.2113 131.434 42.2581Z" fill="black"/>
<path d="M168.554 56.473C171.279 56.4955 173.977 56.9859 176.696 56.9597C177.423 57.0889 177.267 59.1105 177.294 59.7581C176.157 66.6728 165.828 63.1949 168.554 56.473Z" fill="black"/>
<path d="M167.121 51.0615C168.122 51.1083 170.389 51.5913 169.945 52.8604C168.233 53.5511 167.888 50.953 163.991 53.3377C163.424 53.3939 163.63 52.6994 163.929 52.4766C164.841 51.5875 165.919 51.0765 167.121 51.0615Z" fill="black"/>
<path d="M177.473 46.2602C178.444 46.2097 180.236 47.0033 179.773 48.1003C178.244 48.1601 178.225 46.5298 175.575 48.2481C173.343 49.506 174.991 46.2059 177.473 46.2602Z" fill="black"/>
<path d="M175.439 53.0344C175.085 51.0783 178.628 49.9458 179.708 51.4807C180.066 51.8289 179.89 52.7068 179.287 52.4578C177.934 51.3946 176.714 52.5964 175.428 53.0194L175.439 53.0344Z" fill="black"/>
<path d="M155.214 60.4845C154.499 60.8495 154.623 61.4971 154.277 62.0624C153.232 62.7644 153.928 60.5313 154.101 60.1251C153.799 59.659 153.187 59.7432 152.743 59.5073C152.264 59.2303 152.874 58.8728 153.198 58.9814C156.528 59.1891 158.527 62.6333 155.214 60.4845Z" fill="black"/>
<path d="M175.446 53.2927C175.779 53.6297 176.502 54.0153 176.369 54.618C176.303 54.8464 175.976 54.895 175.807 54.7472C175.304 54.1126 173.503 53.2029 173.694 52.3849C173.782 52.2071 174.093 52.2539 174.401 52.486C174.656 52.5983 174.961 52.894 175.171 53.0737C175.27 53.158 175.395 53.2403 175.446 53.2927Z" fill="black"/>
<path d="M171.698 64.5819C172.153 64.7485 174.935 64.6156 174.194 65.3625C173.537 65.5197 171.56 65.574 171.698 64.5819Z" fill="black"/>
<path d="M176.322 57.7421C175.057 59.5803 170.727 58.6181 168.891 57.8376C168.915 57.5849 168.937 57.364 168.964 57.0907C171.378 57.5755 173.756 57.8001 176.322 57.7421Z" fill="white"/>
<path d="M169.523 60.6622C171.167 60.49 173.303 60.84 174.377 62.2739C172.741 63.3839 170.345 62.2963 169.523 60.6622Z" fill="#EF6261"/>
</g>
<defs>
<clipPath id="clip0_2441_72312">
<rect width="300" height="200" fill="white"/>
</clipPath>
</defs>
</svg>
