<svg width="300" height="200" viewBox="0 0 300 200" fill="none" xmlns="http://www.w3.org/2000/svg">
<path d="M219.817 63.7045C216.606 68.0912 215.495 73.6183 214.953 78.9422C210.371 77.5595 206.348 81.0331 205.257 85.3451C204.939 85.4439 204.687 85.3526 204.445 85.2408C202.701 84.447 200.962 84.6053 199.236 85.2818C195.649 86.5527 193.873 89.8622 192.075 92.9575C191.814 92.2084 191.917 91.7201 192.668 89.9442C190.996 88.5951 188.244 88.6622 186.334 89.5492C186.062 89.6833 185.657 89.825 185.452 89.5082C184.61 87.9317 183.261 86.9403 181.655 86.2676C177.533 84.5886 171.67 84.6836 168.726 88.4572C168.083 89.4094 167.404 88.4479 168.06 87.7416C169.179 86.1502 170.936 85.3545 172.727 84.7526C173.049 80.3976 172.734 75.8787 172.84 71.4697C172.658 70.4913 173.237 70.2491 174.115 70.3553C176.517 70.2659 178.932 70.5323 181.308 70.2509C181.347 63.084 181.304 55.9096 181.325 48.7426C181.319 48.0065 181.969 47.809 182.594 47.8817C187.452 47.8817 192.31 47.8817 197.166 47.8836C198.895 48.1128 201.325 47.373 202.766 48.3643C203.016 55.8388 202.77 63.3877 202.854 70.892C206.996 71.1417 211.174 71.0112 215.333 71.0261C216.004 69.1161 216.783 67.26 217.627 65.4208C217.56 65.3313 217.512 65.2289 217.417 65.1636C215.244 66.1811 212.851 66.414 210.594 65.5251C211.644 62.6628 214.485 60.6521 217.499 60.5329C217.463 60.2329 217.269 60.1919 217.117 60.1229C215.484 59.2489 213.589 58.7514 212.091 57.6929C214.437 55.3226 219.981 55.1772 221.928 58.1663C223.739 56.2804 226.037 54.4207 228.83 54.6405C227.737 56.8916 226.689 58.8725 225.217 60.8944C227.791 61.3938 230.422 63.3915 230.137 66.2407C228.283 65.9463 226.378 65.9239 224.569 65.2773C224.906 67.3775 224.684 69.5055 223.663 71.3578C221.775 71.2572 221.077 68.4322 220.663 66.906C220.383 66.9843 220.385 67.1892 220.342 67.3495C219.288 71.1063 218.51 74.9469 218.371 78.8546C218.257 79.7361 219.282 79.9019 219.791 80.3901C220.514 80.9883 221.151 81.5362 221.846 82.1921C223.62 79.0168 226.018 76.2961 228.844 74.0319C228.823 73.7953 228.665 73.7897 228.521 73.7804C226.891 73.8139 225.23 73.6425 223.717 73.0387C224.848 70.7969 227.002 69.2298 229.499 69.69C229.505 68.8925 227.243 67.4613 227.722 66.6451C229.803 66.6768 231.203 66.8594 233.159 68.1247C233.307 65.9109 234.067 63.5722 235.949 62.2119C237.714 64.5785 236.996 67.7855 235.917 70.2919C238.202 70.8659 239.676 72.789 241.795 73.6015C240.082 75.0121 236.929 75.3979 234.749 74.1959C235.127 76.6446 235.271 79.5758 232.72 80.8914C231.531 79.5423 231.206 77.8875 231.206 76.2104C230.932 76.1116 230.86 76.2253 230.789 76.3091C228.558 78.8397 226.674 81.6368 224.945 84.5252C223.708 86.0868 224.5 87.3111 224.664 89.0796C227.533 87.6875 232.188 87.5552 233.646 90.9431C233.776 91.3735 233.217 91.6829 232.906 91.3512C230.972 88.0155 226.013 88.6808 223.607 91.1424C223.609 89.6982 223.879 88.2932 223.311 86.9012C222.996 83.9867 228.143 78.2266 230.016 75.8209C233.726 71.3243 231.477 77.3042 233.048 79.0093C235.053 76.898 231.628 71.4715 234.391 72.7201C235.901 73.4207 237.389 74.1885 239.104 73.4971C238.055 72.6343 237.095 71.8405 235.85 71.4622C232.848 70.933 236.97 67.4445 235.558 64.2412C234.535 65.6984 234.302 67.1911 234.363 68.8496C234.596 70.195 233.521 70.6143 232.749 69.4832C232.041 68.6688 231.007 67.998 229.917 68.1117C230.521 68.8981 233.463 71.5852 230.731 71.2013C228.953 70.6311 226.987 70.482 225.771 72.2225C226.85 73.0294 228.432 72.4256 229.704 72.6157C230.273 72.6027 231.719 72.871 231.067 73.6816C227.077 76.0818 224.019 79.8199 222.077 84.0165C220.976 82.6804 219.873 81.4244 218.333 80.5858C217.674 80.2075 217.361 79.6746 217.407 78.9012C217.802 73.7599 218.43 68.0297 221.186 63.6989C221.729 63.9132 221.639 64.4052 221.658 64.8357C221.814 66.4345 221.807 68.3688 223.132 69.4906C223.657 68.1638 223.644 66.837 223.352 65.4916C222.996 64.6679 222.646 62.7709 224.142 63.6803C225.478 64.463 227.042 64.9251 228.571 64.7108C228.161 63.2144 226.181 61.923 224.487 62.0516C223.643 62.3274 222.783 61.8 223.48 60.9503C224.876 59.4558 225.877 58.0638 226.773 56.0754C224.91 56.8003 223.562 57.9035 222.64 59.48C222.224 60.4583 221.317 60.4434 221.17 59.3421C220.188 56.7276 216.873 56.8413 214.493 57.6109C216.116 58.4197 219.817 59.685 220.238 61.3304C219.114 62.7262 215.615 59.8974 212.402 64.7723C214.948 65.4599 217.148 63.7996 219.357 62.851C220.156 62.3591 220.721 63.3244 219.817 63.7045Z" fill="black"/>
<path d="M219.819 63.7045C219.956 63.4511 220.094 63.1977 220.266 62.879C217.502 63.5368 215.029 66.101 211.945 64.9568C213.352 62.4597 215.969 61.0901 218.805 61.4963C219.185 61.4907 219.783 61.6994 220.063 61.3957C219.399 59.6813 215.516 58.5576 213.962 57.5681C216.591 56.3102 221.151 56.4966 221.613 60.054C221.995 60.2496 222.131 59.849 222.275 59.6067C223.272 57.7134 225.094 56.1705 227.163 55.7531C226.432 57.7395 225.109 59.5825 223.618 61.1162C223.141 61.6435 223.419 61.9901 224.08 61.8671C226.246 61.5634 228.502 62.9517 229.054 65.0742C227.049 65.2177 225.111 64.64 223.426 63.5965C222.869 63.8573 223.339 64.4872 223.428 64.8972C224.041 66.578 223.97 68.4583 223.145 69.9975C221.79 68.995 221.58 66.9694 221.462 65.3873C221.397 64.8208 221.511 64.2971 221.192 63.7809C221.024 64.0064 220.909 64.1667 220.791 64.3251C220.474 64.107 220.16 63.8853 219.819 63.7045Z" fill="#0D8157"/>
<path d="M199.716 28.3337C203.888 32.1054 192.43 33.6297 190.177 33.1359C188.887 33.1899 187.793 32.4389 186.565 32.3197C180.76 32.862 178.094 25.7006 185.261 25.559C184.338 19.8847 193.03 18.4721 193.892 24.1576C196.639 23.4178 200.789 24.8713 199.716 28.3337Z" fill="#78A2D3"/>
<path d="M231.065 73.6797C231.078 73.1151 231.057 73.0387 230.616 73.0089C228.855 72.8169 227.027 73.0592 225.309 72.5784C225.491 71.6411 226.76 70.8864 227.675 70.6385C229.058 70.1521 230.346 71.2218 231.7 71.0075C231.505 69.5726 229.807 69.0098 229.285 67.6923C231.11 67.7073 232.453 68.5551 233.538 69.9509C234.79 70.7876 233.335 65.6723 235.638 63.8014C236.484 65.2903 235.99 67.2936 235.459 68.8626C235.342 69.5279 234.294 70.6366 235.234 71.0559C236.913 71.3522 238.498 72.4685 239.626 73.648C236.816 74.8034 235.852 73.3163 233.484 72.7032C233.407 74.9152 234.922 77.5781 233.064 79.5087C231.667 78.5807 232.42 75.6625 231.939 74.2369C231.443 74.399 231.029 74.235 231.065 73.6797Z" fill="#0D8157"/>
<path d="M208.836 72.0473C208.836 74.2667 208.836 76.4973 208.836 78.7764C206.801 80.0472 205.496 81.9275 204.628 84.1842C200.163 82.7176 195.787 85.3917 193.262 88.9994C190.948 87.8049 188.583 87.6782 186.105 88.5373C183.255 84.719 178.28 83.9717 173.841 84.3985C173.612 81.4039 173.782 72.3529 173.877 71.3504C176.292 71.2237 178.733 71.3094 181.153 71.3038C182.264 71.3187 182.26 71.2013 182.259 70.2379C182.273 63.1306 182.191 56.0176 182.285 48.9122C183.095 48.7855 192.886 48.7855 193.704 48.9122C193.795 56.3736 193.698 63.8461 193.741 71.3075C193.747 72.0622 194.535 71.9355 195.064 71.9374C199.647 72.0399 204.292 71.7454 208.836 72.0473Z" fill="#EDF5FD"/>
<path d="M194.713 48.8581C197.13 48.7314 199.466 48.9233 201.77 48.8767C202.141 56.1033 201.945 63.6374 201.841 70.9124C201.076 71.0242 195.529 71.0168 194.798 70.9012C194.56 63.6337 194.793 56.271 194.713 48.8581Z" fill="#AFC0D4"/>
<path d="M214.096 77.8111C212.672 77.6918 212.51 77.4812 209.892 78.1651C209.765 77.5446 209.728 73.4356 209.841 72.0958C211.535 71.902 213.278 72.0063 214.988 72.0473C214.731 74.0151 214.263 75.8078 214.096 77.8111Z" fill="#AFC0D4"/>
<path d="M217.418 65.1636C217.67 64.9418 217.761 65.1785 217.629 65.4208C217.558 65.335 217.487 65.2493 217.418 65.1636Z" fill="white"/>
<path d="M182.058 27.9014C182.745 26.4367 184.793 26.3565 186.178 26.6901C186.452 26.759 186.718 26.9566 187.078 26.7702C183.301 21.5357 192.961 18.8225 193.116 25.231C194.625 24.9403 196.103 24.6608 197.499 25.4099V25.408C198.514 26.8224 197.113 27.9051 196.052 28.6635C196.107 29.2598 196.904 29.2636 196.93 29.8543C195.577 31.0842 192.568 30.6947 190.827 30.4767C189.746 30.4562 190.125 28.8983 188.975 29.4387C186.823 30.637 184.624 30.3723 182.682 28.9915C182.304 28.7399 181.983 28.425 182.058 27.9014Z" fill="white"/>
<path d="M182.057 27.9013C182.821 29.3828 184.703 29.8859 186.246 30.0033C187.539 30.4059 190.23 27.605 190.197 29.9791C192.241 30.7841 194.84 30.6034 196.896 29.8356C196.432 29.4014 195.823 29.3008 195.552 28.7119C195.603 28.4287 195.839 28.3933 196.02 28.3206C197.194 27.7988 197.997 26.6845 197.498 25.4061C199.352 26.036 199.026 27.6759 198.364 29.066C198.465 29.2822 198.618 29.1648 198.748 29.1741C200.599 29.353 199.236 30.5829 198.288 30.9519C195.277 32.2283 191.751 32.6346 188.557 31.878C188.529 31.6153 188.51 31.4215 188.493 31.2631C187.433 31.0376 186.375 31.6208 185.275 31.3357C183.727 31.1158 181.196 29.7648 182.057 27.9013Z" fill="#AFC0D4"/>
<path d="M186.199 60.4826C185.401 60.4285 184.06 60.8031 184.071 59.5993C184.261 58.6936 183.465 56.3382 184.846 56.3568C185.679 56.5264 188.245 55.8555 188.366 56.9289C188.126 59.3663 189.428 60.8124 186.199 60.4751C186.199 60.477 186.199 60.4788 186.199 60.4826Z" fill="black"/>
<path d="M186.278 50.9695C189.366 50.6732 188.168 51.9422 188.375 54.3107C188.401 55.7064 185.781 54.9051 184.855 55.084C183.44 54.9387 184.27 52.6093 184.08 51.6198C184.117 50.567 185.583 51.0757 186.278 50.9657C186.278 50.9676 186.278 50.9695 186.278 50.9695Z" fill="black"/>
<path d="M199.186 78.0421C196.092 78.426 197.311 76.6315 197.104 74.4829C197.309 73.4132 199.689 74.1176 200.548 73.9275C202.046 73.8903 201.206 76.4078 201.388 77.3769C201.277 78.4334 199.907 77.9359 199.186 78.0421C199.186 78.0403 199.186 78.0403 199.186 78.0421Z" fill="black"/>
<path d="M187.411 57.322C187.411 58.086 187.411 58.7588 187.411 59.4743C186.622 59.5992 185.873 59.5787 185.072 59.4892C184.992 58.7476 184.964 58.0544 185.092 57.322C185.858 57.322 186.589 57.322 187.411 57.322Z" fill="#78A2D3"/>
<path d="M185.129 51.9496C185.852 51.8583 186.582 51.8974 187.357 51.9365C187.527 52.6484 187.439 53.3453 187.417 54.033C186.744 54.1988 185.885 54.2044 185.127 54.0572C184.974 53.3807 184.972 52.6689 185.129 51.9496Z" fill="#78A2D3"/>
<path d="M200.417 74.891C200.493 75.6457 200.48 76.3184 200.432 77.0452C199.651 77.1905 198.896 77.1328 198.091 77.0862C197.981 76.3557 198.004 75.6588 198.078 74.9096C198.848 74.8146 199.582 74.8575 200.417 74.891Z" fill="#78A2D3"/>
<path d="M69.7008 73.4748C73.2694 76.2513 75.4329 80.4349 75.5112 84.9594C75.5 85.4346 75.4851 85.4309 74.9782 85.6303C73.1855 86.4017 73.9011 88.5261 74.3875 89.9237C73.8564 90.5834 73.3421 89.3032 73.0495 88.923C71.5568 89.4411 70.3661 90.9207 70.7835 92.5177C70.899 92.8494 71.0984 93.3693 70.6791 93.5519C70.0735 93.7718 69.9207 92.8718 69.8052 92.4599C69.4287 90.4138 70.9587 88.6696 72.7774 87.9503C72.7998 86.6775 73.3588 85.3489 74.4881 84.6724C74.7024 81.9368 72.6656 77.28 70.6046 75.6569C70.4276 75.7314 70.4704 75.901 70.4537 76.037C70.4369 76.9408 68.9219 82.3915 67.6547 80.4181C66.5869 78.5844 65.9198 76.5588 65.808 74.4382C65.3403 74.2574 64.921 74.8836 64.498 75.0569C63.7936 75.506 60.2585 77.5912 60.1318 76.0352C60.8809 74.0506 61.8406 72.1032 63.5904 70.8081C63.4395 70.5715 63.2252 70.5715 63.0389 70.5323C61.2611 70.1093 59.3436 69.6528 58 68.339C60.4263 66.8352 63.4656 66.155 66.1863 67.2265C66.5198 64.6083 68.0721 60.8534 71.3258 61.5783C70.8767 62.8622 70.4387 64.0791 70.2617 65.3798C70.5785 65.4748 70.7462 65.2717 70.9382 65.1673C72.3768 64.4182 74.7863 63.7232 76.0292 65.076C74.3987 65.9836 73.6812 67.6644 72.5519 69.1328C74.3334 69.608 76.5417 70.1708 77.2591 72.0921C75.7105 72.079 74.3837 72.7163 72.9116 73.3089C72.8333 73.512 73.0812 73.6052 73.2135 73.7375C74.9465 75.4091 76.2286 77.3601 77.1734 79.5833C79.1748 77.921 81.0121 77.3378 83.5744 77.2017C83.6285 66.7327 83.5651 56.2524 83.5987 45.7834C83.4515 44.2814 86.7107 45.1498 87.7021 44.9337C89.2935 45.1181 91.1756 44.5274 92.6216 45.2132C95.8865 48.1333 99.1625 51.0421 102.431 53.9585C103.046 54.3536 103.242 54.9443 103.148 55.6524C103.148 59.2172 103.148 62.7914 103.148 66.3544C106.916 66.8128 110.86 66.3003 114.693 66.5296C115.336 66.5594 115.14 67.3402 115.172 67.78C115.172 74.7773 115.172 81.7561 115.172 88.7572C117.935 87.9112 120.975 87.5031 123.641 88.8951C123.99 89.0442 124.511 89.3982 124.239 89.7989C124.025 90.1157 123.639 89.9778 123.362 89.8119C121.448 88.8019 119.42 88.6976 117.363 89.1616C114.609 89.7691 111.916 91.504 110.847 94.2191C110.707 94.5526 110.643 95.0707 110.176 95.0446C109.797 95.052 109.626 94.7222 109.538 94.4035C108.232 90.0523 102.897 88.5205 98.9687 90.0989C98.0351 90.4511 97.9549 90.4157 97.6344 89.4634C96.9859 87.1602 94.6603 85.7011 92.3123 86.1502C91.6154 86.1874 90.2942 87.1229 90.1153 85.9676C91.2445 80.6827 85.2031 76.8793 80.5258 78.6776C79.3052 79.0745 78.2989 79.8013 77.5293 80.8392C77.3523 81.0778 77.2069 81.3703 76.8305 81.266C76.5081 81.1765 76.4932 80.8728 76.428 80.6231C75.854 78.3925 74.5738 76.5793 73.0364 74.9283C72.347 74.1885 71.6258 73.4729 70.7145 72.9977C70.4611 72.8803 70.0437 72.9045 70.0847 72.4964C69.9114 71.6299 73.7539 72.5523 74.7415 71.2237C73.7166 70.318 72.3637 70.5044 71.1357 70.2472C70.3568 70.2025 70.1089 69.5316 70.7816 69.0751C71.814 68.0632 72.9489 66.96 73.4613 65.6164C71.391 65.6239 70.2543 67.1259 68.9796 68.4881C68.2808 66.5761 69.3822 64.9586 69.5238 63.0952C67.3472 64.64 67.5895 66.9768 67.377 69.2279C64.7663 67.7855 63.3482 67.4576 60.4598 68.4974C61.7549 69.0769 62.9979 69.3434 64.2576 69.5708C64.8576 69.6788 65.713 69.6472 65.862 70.2994C66.0148 70.9702 65.1614 71.1547 64.6806 71.4529C63.3687 72.2654 62.5413 73.4282 61.891 74.9842C63.596 74.4251 64.5781 73.4151 66.0167 72.6958C67.7851 71.738 66.2273 76.0613 68.2585 78.9888C70.4779 75.6588 68.2622 72.7517 69.7008 73.4748Z" fill="black"/>
<path d="M103.984 4.76251C105.74 4.35441 107.331 3.56243 109.096 3.26054C111.017 3.07047 116.235 4.54076 114.334 7.172C111.632 8.8864 108.181 9.25164 105.233 10.5244C104.079 12.9991 104.078 18.7517 101.236 19.5772C100.451 19.7226 98.7219 20.8854 98.6809 19.4169C98.7946 17.1789 99.0387 14.9073 99.1971 12.686C98.966 12.4792 98.7759 12.6115 98.5896 12.673C97.0056 13.1892 95.4142 13.6867 93.8396 14.2327C92.5612 14.6744 92.6395 14.4284 92.1475 13.6122C90.981 11.6742 89.82 9.73056 88.661 7.78881C87.651 6.43778 89.2554 6.15453 90.2766 5.76134C92.0786 4.98986 93.3513 6.76017 94.5384 7.82235C95.2745 7.71427 97.6877 6.92043 98.2933 6.58127C97.6653 4.88923 96.687 3.32204 96.1783 1.58714C96.0739 0.547314 97.7324 0.46532 98.4368 0.0814424C99.1412 -0.125404 99.7599 0.0609447 100.28 0.649805C101.48 2.04928 102.823 3.32949 103.984 4.76251Z" fill="black"/>
<path d="M69.702 73.4747C69.5846 73.4747 69.4653 73.4747 69.3237 73.4747C69.3069 73.5437 69.2417 73.6592 69.2715 73.6965C69.5957 74.0971 69.6312 74.576 69.6293 75.0493C69.5753 76.5886 69.2696 78.2471 68.2615 79.4379C66.8918 77.4719 66.6291 75.0549 66.7484 72.7144C64.8141 73.2362 63.5786 74.9748 61.5567 75.4332C61.9033 73.061 63.9774 71.546 65.9247 70.3925C64.0034 69.3993 61.7803 69.7142 59.9336 68.5588C60.5262 67.8861 62.7102 67.6923 63.6661 67.6364C65.0954 67.5358 66.0477 68.3557 67.2235 69.0061C67.1956 66.6637 67.3801 63.5368 69.9479 62.5752C69.7765 64.4685 68.692 66.2425 68.8839 68.1656C69.1038 68.2551 69.1858 68.1116 69.2752 68.0017C70.302 66.414 72.0481 65.1841 74.0625 65.3201C73.2333 66.9227 72.0239 68.311 70.6561 69.485C70.5461 69.5856 70.4436 69.6974 70.5424 69.9397C72.1767 70.1465 74.1017 70.1298 75.3726 71.3373C73.7793 72.2541 72.1003 72.5243 70.3113 72.2895C70.0579 72.6734 70.5238 72.774 70.712 72.9995C70.2703 73.0032 69.7877 72.9194 69.702 73.4747Z" fill="#0D8157"/>
<path d="M68.7014 24.9646C67.1901 18.4182 77.2641 15.0173 80.3668 20.7792C83.3558 19.2772 85.7318 21.4911 85.2696 23.7775C86.9728 24.9459 86.1324 27.2623 84.9062 28.4903C82.3402 30.8756 78.6282 31.498 75.2366 31.3451C73.9247 31.2669 72.6352 31.0489 71.409 30.5569C69.6816 30.4451 67.9597 30.7507 66.4242 29.6736C63.2842 27.702 65.7049 24.8118 68.7014 24.9646Z" fill="#78A2D3"/>
<path d="M84.6464 77.4384C84.6297 76.5513 84.3557 48.1947 84.6688 46.7133C86.9795 48.4854 89.0592 50.5632 91.2916 52.4453C92.2364 53.5876 94.2862 54.3237 94.3887 55.9114C94.3701 59.2489 94.3794 62.5864 94.3813 65.922C94.3794 66.509 94.3049 67.3681 95.0801 67.4408C98.9803 67.5414 102.914 67.4016 106.813 67.4967C107.224 74.7512 106.818 82.248 106.958 89.6535C103.995 88.3509 101.613 88.3192 98.5592 89.0945C97.2492 85.7737 94.7502 84.6314 91.245 85.3582C91.3867 81.3349 88.5318 78.1689 84.6464 77.4384Z" fill="#EDF5FD"/>
<path d="M102.11 55.4082C102.24 56.271 102.231 65.704 102.099 66.4643C99.8682 66.5817 97.6674 66.4811 95.4107 66.5109C95.2076 62.8473 95.3194 59.1315 95.3641 55.4567C96.0499 55.3356 100.861 55.302 102.11 55.4082Z" fill="#AFC0D4"/>
<path d="M85.5827 45.8952C87.3362 46.0834 91.2589 45.3734 92.4627 46.3387C95.3977 49.0407 98.4501 51.5751 101.346 54.3218C99.4042 54.5417 97.4494 54.333 95.4927 54.4187C95.1014 54.4225 94.8163 54.2864 94.5367 54.0386C91.5403 51.3682 88.4786 48.7724 85.5156 46.0647C85.538 46.007 85.5603 45.9511 85.5827 45.8952Z" fill="#AFC0D4"/>
<path d="M113.491 5.75573C114.52 6.93345 110.783 7.4105 110.085 7.82792C108.845 8.23975 107.606 8.64599 106.365 9.05037C105.676 9.27399 105.674 9.2684 105.115 8.82116C104.822 8.81184 104.753 9.0895 104.586 9.24231C103.905 9.24976 103.76 9.72868 103.605 10.2691C102.709 12.9898 102.033 15.8521 101.058 18.5131C100.624 18.6324 100.292 18.9156 99.815 18.815C99.6212 16.0477 100.702 13.1258 99.938 10.4238C99.5896 10.3567 99.3622 10.5523 99.1945 10.8039C98.5926 11.704 98.7156 11.54 97.4857 11.9593C96.0881 12.4121 94.6849 12.9246 93.2668 13.301C92.7767 12.7345 90.807 9.50879 89.7578 7.57076C91.8431 5.97935 92.3928 9.58146 94.4724 9.40816C98.8516 8.54537 103.21 7.20179 107.317 5.39608C109.183 4.63019 111.369 5.00661 113.249 5.58243L113.234 5.57497C113.301 5.66442 113.379 5.73523 113.491 5.75573Z" fill="#D52B1E"/>
<path d="M113.249 5.58426C111.401 5.57122 109.427 4.79601 107.631 5.51904C104.258 7.17009 100.604 8.03661 97.0257 9.12115C95.9263 9.43422 94.866 9.75101 93.7367 9.63175C91.931 8.96648 91.9888 6.7303 89.7544 7.5726C89.6985 7.45147 89.6426 7.33035 89.5625 7.16077C91.7782 5.91037 92.2236 6.96697 93.7591 8.4708C94.1783 8.95158 94.5976 8.99816 95.1846 8.80063C98.2873 7.75522 101.403 6.74708 104.515 5.72775C107.325 4.79228 110.709 3.22509 113.249 5.58426Z" fill="#FCA6A6"/>
<path d="M102.546 5.22657C101.523 5.63653 100.506 5.98687 99.4454 6.31298C98.4559 5.12594 98.0963 3.56061 97.418 2.18536C99.3467 0.603266 100.748 3.75814 102.231 4.63212C102.414 4.77933 102.602 4.94518 102.546 5.22657Z" fill="#D52B1E"/>
<path d="M101.059 18.5151C101.454 15.9062 102.417 13.4166 103.209 10.9083C103.412 10.2263 103.449 8.50815 104.588 9.24422C103.623 11.8624 103.114 14.626 102.311 17.2982C102.134 17.915 101.8 18.4424 101.059 18.5151Z" fill="#FCA6A6"/>
<path d="M102.548 5.22653C101.285 4.08235 100.068 2.95867 98.7839 1.82381C98.3255 1.94494 97.8727 2.06607 97.4198 2.18533C97.3527 2.0288 97.2875 1.87226 97.2148 1.70082C97.8037 1.32999 98.6944 0.662863 99.3113 1.11383C100.446 2.4779 101.864 3.68171 102.848 5.12777C102.748 5.16131 102.649 5.19485 102.548 5.22653Z" fill="#FCA6A6"/>
<path d="M66.1953 26.8653C67.1476 25.4864 68.9626 26.2802 70.3173 25.8162C66.6295 20.1903 76.9234 15.7049 79.549 21.4221C80.1919 23.1272 81.3752 20.6264 82.8325 21.3028C84.9606 22.011 84.1369 23.3191 84.1369 24.9422C84.6214 24.9404 84.9624 24.5323 85.2066 25.1938C84.0288 28.4176 77.7508 29.5301 74.7152 28.9096C73.3194 28.4512 73.9828 27.9834 74.0816 26.9231C71.7541 27.2343 69.5738 28.6245 67.1643 27.7561C66.7003 27.6219 66.2344 27.4691 66.1953 26.8653Z" fill="white"/>
<path d="M66.1944 26.8652C68.4361 28.971 71.7457 27.0143 74.2726 26.5279C75.3534 26.8708 73.1806 27.9759 74.1813 28.4324C77.133 29.7145 83.4465 28.0038 85.2056 25.1956C85.31 30.2791 76.246 31.1419 72.5694 29.9176C72.6066 29.6679 72.642 29.4313 72.6812 29.176C70.9425 29.312 69.2598 30.0332 67.5603 29.1815C66.7273 28.9113 65.2906 27.7262 66.1944 26.8652Z" fill="#AFC0D4"/>
<path d="M101.962 74.4008C98.8129 74.8034 99.9105 73.0684 99.7558 70.8621C99.8937 69.7514 102.406 70.4614 103.259 70.2863C104.653 70.2173 103.882 72.7032 104.049 73.6033C104.096 74.74 102.704 74.33 101.962 74.4046C101.962 74.4027 101.962 74.4008 101.962 74.4008Z" fill="black"/>
<path d="M101.889 75.6737C105.068 75.3531 103.832 76.6781 104.03 79.1304C103.957 80.3436 101.359 79.6037 100.483 79.7808C99.1697 79.6634 99.9095 77.2148 99.7474 76.283C99.8518 75.2711 101.201 75.7873 101.889 75.6718V75.6737Z" fill="black"/>
<path d="M88.9417 65.54C86.0384 65.922 86.9533 64.3082 86.8266 62.2603C86.7111 60.8012 89.4392 61.6118 90.3747 61.4366C91.7257 61.4012 90.9617 63.8908 91.1313 64.7834C91.1704 65.9481 89.6852 65.4394 88.9417 65.54Z" fill="black"/>
<path d="M88.967 56.0493C89.6733 56.1518 91.1082 55.6505 91.1324 56.737C90.9535 57.6463 91.7436 60.2142 90.3534 60.1527C89.377 59.9589 86.9004 60.7863 86.8371 59.3514C87.0048 57.1115 85.8923 55.7065 88.967 56.0419C88.967 56.0437 88.967 56.0475 88.967 56.0493Z" fill="black"/>
<path d="M100.707 73.4486C100.707 72.5877 100.668 72.0566 100.731 71.2814C101.49 71.1454 102.2 71.2479 102.936 71.218C103.124 71.8833 103.137 72.4666 102.986 73.3983C102.2 73.5139 101.564 73.4207 100.707 73.4486Z" fill="#78A2D3"/>
<path d="M103.045 78.8378C102.24 78.8658 101.538 78.8807 100.804 78.8285C100.567 78.085 100.748 77.4365 100.716 76.6687C101.499 76.5364 102.227 76.6091 103.006 76.6166C103.155 77.3508 103.088 78.0477 103.045 78.8378Z" fill="#78A2D3"/>
<path d="M90.1463 64.5766C89.3338 64.5766 88.6276 64.5766 87.9325 64.5766C87.7666 63.9243 87.7536 63.2572 87.8896 62.4093C88.6108 62.2733 89.3413 62.3553 90.1183 62.3609C90.2432 63.1156 90.2022 63.8107 90.1463 64.5766Z" fill="#78A2D3"/>
<path d="M87.8458 56.9922C88.6508 56.9643 89.3571 56.9605 90.0447 56.9941C90.2236 57.637 90.2385 58.2464 90.1043 59.1818C89.3869 59.3011 88.6564 59.2321 87.87 59.2228C87.7414 58.483 87.7917 57.7842 87.8458 56.9922Z" fill="#78A2D3"/>
<path d="M107.936 67.5451C108.666 67.4221 113.193 67.4072 114.108 67.519C114.333 74.6785 114.208 82.071 114.178 89.2976C112.503 90.2628 111.171 91.5337 110.161 93.2127C109.561 92.1114 108.871 91.1946 107.966 90.4846C107.878 89.3982 107.731 71.6448 107.936 67.5451Z" fill="#AFC0D4"/>
<path d="M145.038 191.407C145.228 192.257 145.243 193.183 146.138 193.612C148.897 195.194 151.555 196.97 154.514 198.166C157.268 199.338 160.466 199.217 163.192 198.03C164.89 197.119 163.82 194.538 163.095 193.237C165.253 193.632 168.939 196.181 166.813 198.541C164.67 200.287 161.679 199.979 159.085 199.979C152.926 199.644 147.036 196.578 140.832 197.264C133.878 197.009 127.07 199.018 120.11 198.522C112.835 198.237 112.435 194.316 119.536 192.702C118.741 194.171 118.068 196.293 120.192 196.815C124.003 197.873 128.289 197.987 132.037 196.617C134.567 195.579 137.133 194.629 139.561 193.36C140.383 192.937 140.033 191.828 140.217 191.079C141.471 190.628 143.734 190.88 145.038 191.407Z" fill="#CCCCCC"/>
<path d="M119.534 192.702C122.441 191.098 124.968 188.819 126.85 186.092C126.407 185.511 125.772 186.148 125.747 185.028C124.924 178.378 124.137 171.723 123.312 165.072C122.013 153.1 120.401 141.192 117.878 129.409C117.537 127.779 116.983 126.187 116.937 124.506C116.918 124.104 116.784 123.77 116.585 123.424C115.776 121.989 114.965 120.643 114.479 119.041C111.861 118.292 112.969 115.852 113.504 113.873C114.883 108.521 116.553 103.208 117.649 97.7988C117.486 87.1676 115.66 76.037 119.49 65.8307C121.245 61.9323 124.681 59.1148 127.199 55.7027C127.201 54.9666 127.024 54.1579 126.841 53.31C115.673 51.1484 115.481 44.7473 116.335 34.9212C116.877 31.019 115.99 27.1523 115.513 23.2912C114.233 20.4028 113.849 17.2348 116.598 15.0024C124.471 8.56592 150.882 6.24402 150.949 20.8817C160.207 22.9352 154.655 32.4968 151.663 37.5543C153.582 40.8638 150.601 44.5703 147.038 44.4156C145.647 46.1505 145.062 48.9998 142.53 49.4153C142.5 49.8477 142.474 50.2595 142.444 50.6881C144.006 52.1323 146.324 51.9366 148.409 52.3503C148.914 50.088 148.435 47.0636 150.174 45.3734C151.739 43.9833 154.08 44.6374 154.819 46.6611C155.405 48.8563 154.827 51.2229 155.14 53.4591C162.907 55.4418 165.084 63.7008 167.765 70.2491C169.114 74.4922 171.524 78.5472 171.872 83.0288C172.288 92.6332 160.941 96.541 155.649 88.3957C155.136 88.4646 155.257 90.125 155.112 90.5871C154.885 93.4029 154.439 96.2279 154.801 99.0492C155.2 104.634 155.822 110.202 156.476 115.761C156.312 121.187 158.904 121.415 153.7 122.313C155.295 140.374 157.039 158.427 157.81 176.553C157.993 178.955 158.265 181.352 158.405 183.759C158.513 184.345 158.168 184.682 157.751 185.058C158.962 187.673 160.662 190.037 162.329 192.378C163.628 193.563 164.89 195.615 164.157 197.421C158.554 202.167 151.111 196.839 145.944 193.777C143.916 192.171 145.159 189.011 144.76 186.773C144.377 186.174 143.663 185.901 143.585 185.084C142.494 180.019 141.3 174.962 140.208 169.908C140.931 177.37 140.079 184.866 140.405 192.322C139.839 194.527 135.452 195.155 133.611 196.267C129.439 198.194 124.661 198.367 120.278 197.115C118.213 196.828 117.923 193.846 119.534 192.702Z" fill="black"/>
<path d="M163.795 42.3546C161.895 44.0429 159.403 45.2523 157.262 46.6928C156.47 46.8419 156.517 45.8673 157.156 45.6623C159.012 44.4734 160.866 43.2845 162.726 42.1012C163.098 41.7956 163.812 41.6279 163.795 42.3546Z" fill="black"/>
<path d="M163.579 50.5185C162.925 50.2278 155.212 50.0414 157.321 48.7836C159.548 48.9699 161.796 49.324 164.009 49.6631C164.589 49.952 164.136 50.6955 163.579 50.5185Z" fill="black"/>
<path d="M158.251 37.5002C157.381 39.5314 156.253 41.4358 155.221 43.3888C154.651 44.0484 154.09 43.1298 154.586 42.6042C155.443 40.9737 156.298 39.3432 157.159 37.7163C157.386 37.1629 157.897 36.8312 158.251 37.5002Z" fill="black"/>
<path d="M157.233 181.946C157.349 182.61 157.445 183.294 157.401 183.963C153.828 186.022 149.408 186.07 145.456 185.392C144.332 185.058 144.591 183.361 144.198 182.442C143.277 177.955 142.348 173.473 141.12 169.058C138.455 158.025 135.919 146.959 133.571 135.849C132.322 131.519 132.208 126.646 129.829 122.756C129.653 123.03 129.683 123.256 129.737 123.476C130.647 127.018 131.377 130.604 132.186 134.168C133.23 138.9 134.228 143.642 135.263 148.376C136.444 154.937 139.06 161.31 139.154 168.015C139.178 173.318 139.168 178.624 139.181 183.927C139.312 184.93 137.536 184.825 136.867 185.105C133.612 185.642 130.265 185.515 127.013 185.062C126.249 184.546 126.579 182.587 126.294 181.685C124.767 169.36 123.359 157.018 121.775 144.703C120.66 138.836 119.63 132.944 118.292 127.126C117.813 125.283 117.55 123.42 117.962 121.528C119.509 121.901 120.839 122.786 122.246 123.493C125.88 124.926 126.879 120.123 127.374 117.55C127.464 116.43 127.988 115.983 128.269 117.369C129.706 122.492 135.546 122.574 139.906 123.077C144.273 124.176 148.819 124.631 153.064 125.453C152.394 127.111 152.833 128.815 152.928 130.488C153.256 136.25 153.685 142.008 154.177 147.757C155.043 159.167 155.862 170.59 157.233 181.946Z" fill="black"/>
<path d="M154.736 120.984C149.628 122.384 134.172 123.479 130.499 119.365C127.803 116.499 128.425 108.339 127.864 104.302C127.602 99.1536 127.562 94.0029 127.52 88.8541C127.997 84.8122 129.551 81.0181 131.522 77.4757C132.899 75.0718 134.377 72.7312 135.879 70.4056C136.556 69.5559 135.687 68.9353 135.212 68.2179C135.488 67.8452 135.896 67.6905 136.244 67.5153C138.516 66.2239 138.428 63.1772 139.474 61.0081C139.874 61.3286 139.932 61.7795 140.296 62.046C138.471 63.8033 138.745 66.2053 139.901 68.2421C140.357 69.6621 139.394 70.2919 140.609 72.0678C141.006 73.1822 142.439 73.5008 142.591 74.7065C143.141 77.5017 146.346 79.3056 148.946 77.8409C150.96 80.6753 152.714 83.6624 154.488 86.6738C154.667 86.9701 154.726 87.2478 154.635 87.6018C154.13 90.343 153.96 93.1475 153.646 95.9185C152.505 102.99 154.272 110.126 154.629 117.209C154.605 118.448 155.256 119.829 154.736 120.984Z" fill="#D52B1E"/>
<path d="M119.119 25.0074C119.546 27.5101 121.814 29.504 124.402 29.0437C124.244 28.6245 123.938 28.4195 123.683 28.1903C122.377 26.8467 122.69 24.5267 123.53 23.0023C125.014 20.7941 136.245 24.0552 138.61 25.0727C142.269 26.3846 142.398 27.812 142.167 31.4327C142.016 33.5832 141.509 35.784 142.044 37.9177C142.221 38.568 142.583 39.1159 143.181 39.4625C144.742 40.4147 144.944 37.4835 145.534 36.5722C148.687 34.8541 153.383 38.909 150.418 42.0546C148.234 44.4026 145.821 43.2808 143.363 42.2577C142.911 42.7198 143.716 43.1037 143.982 43.4354C143.57 45.461 142.1 47.1009 141.64 49.1023C141.699 51.4111 140.836 52.4882 139.111 53.9082C136.772 56.0251 127.796 62.6759 128.165 55.6021C130.142 54.8325 132.136 54.1542 134.134 53.4461C135.063 53.0622 136.329 53.1218 137.059 52.4062C136.733 51.9366 134.396 52.5106 133.725 52.5031C128.508 53.0734 122.123 52.3 118.6 48.014C115.351 43.2062 117.558 30.5457 118.993 25.0074C119.034 25.0037 119.077 25.0056 119.119 25.0074Z" fill="#EED3CA"/>
<path d="M124.351 61.5895C123.909 63.3188 123.149 64.9475 122.606 66.6451C122.113 67.8695 123.424 68.3502 123.954 69.282C123.387 70.5119 122.064 71.6915 122.45 73.1431C123.7 78.877 125.692 84.5253 126.604 90.2983C126.611 94.9682 126.676 99.6362 126.861 104.304C127.232 107.487 127.273 110.631 126.863 113.815C126.699 116.592 126.279 119.432 124.943 121.903C123.106 124.359 120.661 121.048 119.146 119.823C118.326 119.037 116.712 118.616 116.93 117.205C117.135 115.239 118.311 113.596 118.632 111.687C118.851 108.771 118.779 105.851 118.766 102.933C118.596 97.51 118.343 92.0388 118.244 86.6347C118.27 80.4032 119.207 74.2277 120.532 68.1564C120.907 65.8252 122.336 63.9953 123.615 62.0833C123.784 61.8299 123.913 61.4665 124.351 61.5895Z" fill="#D52B1E"/>
<path d="M157.871 79.2106C157.671 78.9497 158.119 78.6534 157.755 78.441C156.76 78.5304 155.94 79.9616 154.817 80.1833C152.612 81.0349 150.495 79.3932 149.804 77.308C150.083 76.9968 150.354 76.6912 150.665 76.3446C150.965 76.6818 151.231 76.9837 151.477 77.2614C152.338 77.1254 151.017 75.1482 150.888 74.6339C150.178 72.9027 147.739 74.4047 146.519 74.878C145.505 75.9886 148.896 74.8799 149.28 74.7979C149.808 74.6786 150.152 75.0513 149.979 75.5712C149.53 76.6576 148.214 77.2502 147.104 77.4179C144.83 77.7384 142.137 74.3152 144.172 72.5337C146.235 70.6404 149.53 71.0187 151.515 69.1161C151.192 69.0397 151.051 69.0136 150.771 69.0882C148.019 70.0982 144.377 70.1522 142.695 72.8971C141.809 72.3157 141.068 71.2927 140.932 70.2286C140.69 66.4401 148.376 66.9768 150.583 64.9549C149.049 64.4872 142.115 66.6246 140.796 67.7781C136.771 61.2559 146.58 61.9212 150.298 60.2646C149.856 59.3421 142.726 61.1106 141.634 61.5336C140.438 61.9007 140.125 59.2993 140.175 58.4738C140.19 56.5637 142.07 55.5854 143.912 55.5798C146.582 55.2779 149.288 55.2182 151.9 55.9152C156.149 56.9345 157.927 64.9475 159.669 68.6074C160.014 69.8317 160.959 70.7578 161.348 71.9337C161.883 74.7494 159.969 77.5036 157.871 79.2106Z" fill="#EED3CA"/>
<path d="M167.628 77.4906C168.7 77.6583 167.798 76.4731 167.518 76.0892C165.377 73.6723 163.517 70.9647 161.076 68.8366C160.012 67.8135 159.846 66.2277 159.203 64.9437C158.37 62.9088 157.569 60.859 156.527 58.9191C156.015 57.911 155.158 57.091 155.148 55.9021C154.796 53.8802 157.183 56.4388 157.942 56.5637C160.237 57.7265 161.343 59.78 162.254 62.0255C164.85 67.9346 167.6 73.7822 169.965 79.7957C173.433 87.5292 165.847 95.4825 158.462 90.1101C157.772 89.6107 157.235 88.9939 156.753 88.31C155.366 86.139 153.637 84.0202 152.75 81.6126L152.763 81.5996C158.001 83.4873 162.582 77.9564 162.427 73.0182C162.865 72.9306 163.057 73.2921 163.301 73.5251C164.667 74.7885 165.858 76.2998 167.438 77.308L167.423 77.2986C167.479 77.375 167.55 77.4365 167.628 77.4906Z" fill="#D52B1E"/>
<path d="M158.646 188.862C157.156 189.283 155.575 189.745 154.476 190.91C154.353 191.059 154.374 191.249 154.504 191.402C155.002 191.877 155.631 191.003 156.125 190.828C157.104 190.304 158.799 189.398 159.733 190.33C160.685 192.076 162.265 193.384 162.949 195.274C158.898 197.318 155.27 195.721 151.565 193.794C149.834 192.874 148.017 192.078 146.31 191.128C145.611 190.296 146.031 188.986 145.993 187.922C147.494 187.324 148.088 188.653 149.079 187.645C151.338 186.217 154.381 186.616 156.835 185.492C157.145 185.766 157.297 186.091 157.35 186.489C155.57 186.687 153.993 187.244 152.57 188.338C152.257 188.558 152.18 188.791 152.298 189.013C152.853 189.752 154.388 188.04 155.192 187.962C156.502 187.464 158.376 186.896 158.646 188.862Z" fill="#D52B1E"/>
<path d="M124.71 190.131C125.8 190.125 128.686 191.841 129.117 190.979C129.21 189.963 126.273 189.887 125.628 189.233C126.75 186.642 129.545 188.975 131.426 189.234C133.308 188.232 128.133 187.203 127.473 187.073C127.756 186.292 127.842 186.217 128.534 186.219C130.531 186.279 132.622 186.422 134.424 187.352C134.948 187.622 135.453 187.721 136.051 187.557C137.042 187.335 138.062 187.581 139.068 187.729C139.347 188.558 139.126 189.497 139.17 190.339C133.675 193.423 127.114 196.185 120.813 194.173C119.52 193.884 120.714 193.082 121.305 192.756C122.582 192.026 123.603 191.09 124.71 190.131Z" fill="#D52B1E"/>
<path d="M157.232 181.946C155.363 171.274 154.955 160.263 154.016 149.477C153.584 144.14 153.174 138.786 152.812 133.442C152.68 131.619 152.671 129.769 152.456 127.942C152.24 127.05 152.488 126.167 153.062 125.453C153.893 136.334 155.216 147.177 155.833 158.075C156.286 166.036 156.72 174 157.232 181.946Z" fill="#6A6969"/>
<path d="M136.314 66.2463C135.669 67.0457 133.899 67.0997 134.135 68.3632C134.031 68.5346 134.057 68.7098 134.152 68.8663C135.183 70.8248 132.861 72.5411 132.197 74.2853L132.207 74.2742C132.128 74.3114 132.127 74.4344 132.177 74.4605C130.407 77.2166 129.013 80.2392 127.773 83.2133C128.489 73.9518 133.358 65.3835 139.003 58.1904C139.239 58.7644 139.239 58.7644 138.936 59.6477C137.847 61.7609 137.328 64.1051 136.314 66.2463Z" fill="#D52B1E"/>
<path d="M154.206 55.9207C152.719 54.9238 151.057 54.8604 149.359 54.4784C149.471 51.8174 149.229 48.8265 150.489 46.4319C151.387 45.1927 153.073 45.3231 153.793 46.6741C154.421 48.1221 153.988 49.8067 154.139 51.3478C154.126 52.874 154.307 54.4001 154.206 55.9207Z" fill="#EED3CA"/>
<path d="M130.919 64.3474C130.975 66.2612 131.1 68.2477 130.483 70.0795C129.047 73.2735 127.925 76.5309 127.125 79.9448C126.123 76.4899 126.926 73.1934 127.394 69.7869C127.647 68.1098 128.093 66.4737 128.579 64.8487C128.883 63.9375 130.12 64.2878 130.919 64.3474Z" fill="#404040"/>
<path d="M170.826 84.296C169.838 78.7969 167.142 73.7543 164.952 68.6148C163.363 65.4208 162.211 62.0255 160.46 58.9191C159.157 57.1898 156.908 56.4574 155.234 55.1232C155.234 54.9778 155.234 54.8325 155.234 54.6238C162.15 56.1332 164.052 63.9896 166.52 69.6658C168.033 74.4531 171.283 79.1416 170.826 84.296Z" fill="#FCA6A6"/>
<path d="M154.736 120.984C154.171 116.083 153.879 111.167 153.336 106.294C153.303 102.877 152.2 99.1386 153.646 95.9204C154.263 104.161 155.129 112.425 155.945 120.64C155.571 120.973 155.15 120.966 154.736 120.984Z" fill="#FCA6A6"/>
<path d="M125.721 62.2789C126.024 66.3655 125.324 70.5304 125.564 74.6599C125.614 77.7607 126.494 81.5604 126.425 84.7432C125.244 80.8765 124.349 76.9576 123.406 73.0294C123.755 72.0771 124.591 71.2162 124.508 70.1484C125.365 68.8831 124.463 68.5663 123.766 67.5041C123.66 67.2023 123.749 66.9115 123.88 66.6525C124.489 65.4375 124.904 64.1555 125.262 62.851C125.328 62.6069 125.382 62.3162 125.721 62.2789Z" fill="#D52B1E"/>
<path d="M142.013 52.738C139.377 56.0214 136.835 59.4018 134.407 62.8548C133.95 61.4907 133.432 60.4397 132.629 59.2471C136.164 57.7694 139.132 55.2704 141.741 52.4901C141.876 52.5237 141.965 52.6075 142.013 52.738Z" fill="white"/>
<path d="M119.803 194.815C126.317 197.247 133.24 194.676 139.051 191.575C139.289 191.882 139.181 192.164 139.108 192.508C134.263 194.959 129.021 197.361 123.451 196.571C122.443 196.386 119.287 196.431 119.803 194.815Z" fill="#CCCCCC"/>
<path d="M128.597 63.4977C127.757 62.3722 128.418 60.969 129.121 59.9888C129.7 59.3216 130.775 59.7092 131.577 59.5471C132.248 60.1602 132.6 60.6932 133.03 61.7777C132.182 63.712 130.349 63.3523 128.597 63.4977Z" fill="#404040"/>
<path d="M146.296 192.184C151.51 194.61 156.92 198.917 162.909 196.446C163.763 198.101 158.027 198.136 157.067 197.924C153.357 197.178 150.256 194.834 146.977 193.073C146.701 192.836 145.972 192.669 146.296 192.184Z" fill="#CCCCCC"/>
<path d="M117.82 103.607C117.827 107.276 118.342 111.169 116.653 114.544C116.392 115.34 115.49 115.196 114.838 115.375C114.633 115.086 114.767 114.799 114.859 114.524C115.943 111.246 116.635 107.869 117.371 104.504C117.443 104.179 117.393 103.766 117.82 103.607Z" fill="#D52B1E"/>
<path d="M117.82 103.607C116.909 107.552 116.18 111.548 114.839 115.377C114.635 115.494 114.443 115.653 114.121 115.515C115.247 110.899 116.428 106.24 117.794 101.69C117.856 102.334 117.897 102.97 117.82 103.607Z" fill="#FCA6A6"/>
<path d="M148.391 53.5057C148.514 54.02 148.355 54.5343 147.742 54.4449C145.836 54.4524 143.948 54.7319 142.062 54.825C142.443 54.1449 142.761 53.1181 143.609 53.0305C145.169 53.4274 146.891 53.0193 148.391 53.5057Z" fill="#D52B1E"/>
<path d="M116.918 121.964C116.05 121.072 115.653 119.717 115.31 118.51C115.126 117.829 115.457 117.462 115.871 116.942C115.942 118.314 116.383 119.084 117.509 119.857C117.313 120.558 117.121 121.24 116.918 121.964Z" fill="#EED3CA"/>
<path d="M167.438 77.308C165.378 76.5775 164.156 74.3226 162.427 73.0182C162.378 72.5412 162.33 72.0641 162.281 71.5871C162.376 71.4883 162.464 71.4864 162.544 71.6038C164.113 73.5586 165.822 75.3942 167.438 77.308Z" fill="#FCA6A6"/>
<path d="M127.43 57.8849C127.823 58.3862 128.168 58.8278 128.494 59.2434C127.763 60.5497 127.389 61.6044 126.861 63.0523C126.327 61.5597 126.929 59.1297 127.43 57.8849Z" fill="white"/>
<path d="M131.965 67.0308C131.631 66.2109 131.926 65.1654 131.831 64.2952C132.375 63.8424 132.871 63.4305 133.402 62.9889C133.521 63.328 133.629 63.6318 133.741 63.9467C133.152 64.9679 132.565 65.9872 131.965 67.0308Z" fill="white"/>
<path d="M126.62 65.076C127.416 65.0723 127.317 64.3325 127.571 63.7883C128.428 63.9039 126.656 68.1004 126.561 68.9464C126.402 67.6849 126.579 66.4382 126.62 65.076Z" fill="white"/>
<path d="M125.719 62.279C125.145 64.0493 124.593 65.8308 123.762 67.5024C123.229 67.2918 123.608 66.7122 123.716 66.3339C124.295 64.7202 124.877 63.1064 125.46 61.4945C125.508 61.3957 125.646 61.2336 125.747 61.3715C125.739 61.6752 125.73 61.9771 125.719 62.279Z" fill="#FCA6A6"/>
<path d="M129.565 15.5689C127.771 16.4783 126.55 17.2516 125.067 18.4778C124.627 17.1808 128.397 15.1813 129.565 15.5689Z" fill="white"/>
<path d="M132.199 74.2835C132.613 72.9008 133.55 71.7286 134.195 70.441C134.599 69.8391 134.003 69.2893 133.848 68.7117C133.778 68.4936 133.942 68.3967 134.139 68.3613C134.484 68.8347 134.83 69.3098 135.199 69.8186C134.175 71.2963 133.397 72.9511 132.199 74.2835Z" fill="#FCA6A6"/>
<path d="M136.316 66.2463C136.87 63.9934 137.628 61.5839 138.94 59.6459C138.18 61.2876 137.524 65.2624 136.316 66.2463Z" fill="#FCA6A6"/>
<path d="M148.391 53.5057C146.639 53.5374 144.896 53.6213 143.191 53.1424C143.499 52.1678 144.662 52.7957 145.379 52.8051C145.949 53.0231 148.409 52.8964 148.391 53.5057Z" fill="#FCA6A6"/>
<path d="M147.27 23.8874C148.352 23.142 150.967 26.2839 149.508 26.2913C148.732 25.4136 148.341 24.5956 147.27 23.8874Z" fill="white"/>
<path d="M128.542 12.9507C127.954 13.2991 125.009 14.3371 124.27 14.4601C124.709 13.6346 127.713 12.5127 128.542 12.9507Z" fill="white"/>
<path d="M127.33 14.9893C126.911 15.3564 124.556 17.0354 124.168 16.836C124.399 16.1913 126.831 14.2272 127.33 14.9893Z" fill="white"/>
<path d="M149.961 24.2732C151.098 23.3639 152.438 27.5157 150.922 26.3156C150.615 25.6187 150.568 24.8248 149.961 24.2732Z" fill="white"/>
<path d="M124.505 70.1466C124.585 70.1764 124.667 70.2081 124.796 70.2547C124.546 71.2405 124.222 72.3586 123.405 73.0276C122.824 72.0399 124.173 71.056 124.505 70.1466Z" fill="#FCA6A6"/>
<path d="M125.215 59.6011C125.215 59.6067 125.215 59.6104 125.215 59.616C125.217 59.6141 125.22 59.6123 125.222 59.6085L125.215 59.6011Z" fill="#FCA6A6"/>
<path d="M125.215 59.616C125.04 59.7855 124.864 59.9551 124.689 60.1247C123.827 60.9856 123.137 62.0702 122.302 62.9926C120.692 64.7238 120.072 67.0382 119.332 69.2222C117.778 75.5748 117.845 82.2554 118.251 88.7534C118.657 87.7527 118.309 86.5004 118.43 85.4103C118.626 81.6423 119.093 77.8781 119.643 74.1325C120.249 69.6657 121.165 64.953 124.348 61.5894L124.337 61.5838C124.533 61.1943 124.933 60.6912 124.96 60.3874C125.127 60.162 125.241 59.916 125.215 59.616Z" fill="#FCA6A6"/>
<path d="M152.752 81.6126C152.724 81.5865 152.696 81.5586 152.668 81.5325C152.726 81.5176 152.744 81.553 152.765 81.6014C152.765 81.5996 152.752 81.6126 152.752 81.6126Z" fill="#212492"/>
<path d="M125.22 59.6086C125.233 59.5825 125.244 59.5583 125.256 59.5322C125.241 59.5546 125.226 59.5788 125.211 59.6012C125.213 59.6012 125.22 59.6086 125.22 59.6086Z" fill="#212492"/>
<path d="M138.033 71.4808C139.366 71.5982 139.271 74.3674 139.779 75.4053C142.563 75.9308 143.79 75.4463 141.037 78.0496C139.936 79.164 143.214 87.0912 137.787 80.3342C135.011 82.8257 133.421 84.7451 134.953 79.3466C135.348 78.1447 134.09 77.2893 133.716 76.2364C133.227 75.0792 134.839 75.3382 135.531 75.3289C136.863 75.1519 136.72 72.0306 138.033 71.4808Z" fill="black"/>
<path d="M120.307 35.7728C120.165 33.8721 122.554 32.0086 123.6 34.2783C124.925 37.3046 120.762 39.9209 120.307 35.7728Z" fill="black"/>
<path d="M136.012 32.9198C136.668 32.5545 140.386 34.5261 139.079 35.128C137.782 34.7479 136.636 33.8236 135.179 34.1571C134.065 34.3137 132.934 34.4758 131.838 34.7013C130.248 33.9167 135.241 32.6999 136.012 32.9198Z" fill="black"/>
<path d="M123.018 44.054C124.972 45.4498 127.904 45.051 129.644 43.4596C129.631 43.3794 129.642 43.3068 129.611 43.2732C129.486 43.1297 129.204 43.0515 129.368 42.7887C129.706 42.3974 130.294 42.8502 130.68 42.9713C131.504 43.3049 131.513 44.8181 130.464 43.8919C128.768 45.5579 126.623 46.2231 124.341 45.4461C123.914 45.3193 122.376 44.5833 123.018 44.054Z" fill="black"/>
<path d="M133.537 36.4939C134.739 36.4771 136.593 36.8927 137.137 38.199C137.351 38.6257 136.822 39.073 136.429 38.799C135.143 37.94 133.669 37.5263 132.12 37.7014C131.683 37.6884 131.01 37.9977 130.727 37.5524C130.9 36.5871 132.517 36.5554 133.537 36.4939Z" fill="black"/>
<path d="M148.206 40.6365C147.431 40.5097 147.439 39.5743 146.729 39.2687C146.324 39.6488 144.627 41.4471 145.217 39.7047C145.993 38.458 148.49 36.3504 149.658 38.0854C149.173 38.6761 148.368 38.1618 147.798 38.6668C147.858 39.3357 148.549 39.9153 148.206 40.6365Z" fill="black"/>
<path d="M125.37 32.2861C125.262 33.257 124.334 32.711 123.871 32.3551C122.112 30.7618 120.918 31.8687 120.426 31.1755C121.085 29.4723 125.045 30.7711 125.37 32.2861Z" fill="black"/>
<path d="M126.381 36.4083C126.289 37.0419 123.509 41.5217 123.09 39.8017C123.628 38.6091 124.737 37.6885 125.511 36.6263C125.751 36.3654 126.036 36.1399 126.381 36.4083Z" fill="black"/>
<path d="M134.108 38.7041C133.173 39.1886 132.504 38.7805 131.562 38.7376C130.383 37.9158 133.812 38.3351 134.108 38.7041Z" fill="black"/>
<path d="M123.92 117.909C122.112 116.752 121.061 114.773 119.503 113.32C119.354 113.158 119.026 112.85 119.272 112.653C120.226 112.14 124.061 116.922 123.92 117.909Z" fill="black"/>
<path d="M135.888 79.4715C136.321 78.4894 135.355 77.7496 135.862 77.2185C136.856 76.4787 137.452 74.8109 138.574 74.4252C138.726 74.9991 138.881 75.5731 139.034 76.147C138.691 76.8086 136.563 79.7007 135.888 79.4715Z" fill="#FDF0B9"/>
<path d="M140.042 76.5291C140.342 76.4918 140.622 76.5477 140.918 76.6017C140.961 76.9148 140.754 77.0713 140.584 77.1962C139.11 78.2174 140.13 79.8572 140.048 81.3797C139.155 80.7443 138.73 79.8591 137.996 79.0895C138.38 77.9975 139.226 77.2763 140.042 76.5291Z" fill="#FFCE24"/>
<path d="M138.574 74.4251C137.6 75.5301 136.651 76.6575 135.699 77.7849C135.433 77.2669 134.909 76.8439 134.844 76.2532C135.71 75.9587 136.739 76.7377 136.983 75.4798C137.361 74.7866 137.564 73.3238 138.176 72.9287C138.383 73.402 138.47 73.9164 138.574 74.4251Z" fill="#FFCE24"/>
<path d="M135.887 79.4714C137.106 78.5564 137.961 77.2296 139.033 76.1488C139.208 76.2494 139.381 76.3482 139.557 76.4488C138.651 78.2527 137.041 79.4304 135.714 80.9268C135.602 80.4292 135.602 80.4292 135.887 79.4714Z" fill="#FFCE24"/>
<path d="M137.379 79.2049C137.815 78.1223 138.87 77.3862 139.555 76.4489C139.718 76.4768 139.88 76.5029 140.04 76.5308C139.365 77.3899 138.691 78.249 137.998 79.0931C137.791 79.1285 137.586 79.1658 137.379 79.2049Z" fill="#FDF0B9"/>
</svg>
