<svg width="300" height="200" viewBox="0 0 300 200" fill="none" xmlns="http://www.w3.org/2000/svg">
<path d="M259.503 164.535C243.22 159.796 226.451 155.743 210.401 150.691C220.118 141.04 211.693 124.075 208.615 112.849C204.218 100.527 192.503 69.9225 179.33 66.5912C182.756 61.1743 183.443 54.95 179.138 49.8169C176.915 46.218 173.438 43.881 169.848 41.8416C162.069 36.231 166.256 26.4885 153.411 24.689C148.698 23.877 145.246 20.5941 141.83 17.5143C136.874 13.4078 132.475 8.53772 127.03 5.0726C108.821 -6.15559 81.8291 2.01351 73.8445 22.1167C65.9684 25.132 65.5855 38.6257 65.4563 45.8443C65.6731 53.1482 68.6238 60.3184 72.7949 66.2566C75.7594 70.4808 80.7748 72.8108 85.8479 73.173C86.3277 73.203 86.6784 73.3599 87.0106 73.6967C93.0688 79.4019 98.8778 85.5847 106.101 89.8342C94.6376 98.414 95.2697 105.03 92.2221 118.035C80.9317 115.013 69.7035 111.742 58.4199 108.696C57.6932 108.551 57.4418 109.603 58.1339 109.806C69.3943 113.121 80.8947 115.846 92.0537 119.392C91.8115 120.453 91.8184 121.532 91.3778 122.518C81.663 119.851 69.9296 119.781 61.7328 126.379C58.03 129.219 57.5963 133.993 57.3518 138.323C57.3472 145.08 63.7491 149.189 69.2721 151.639C59.6219 157.12 49.8263 162.299 40.2177 167.836C39.6178 168.385 40.393 168.902 40.9144 169.034C64.6973 179.228 88.4663 189.458 112.238 199.682C113.204 200.411 113.883 199.735 114.649 199.161C116.889 197.735 119.133 196.316 121.376 194.895C137.935 184.91 153.778 173.385 170.711 164.184C182.147 161.455 193.656 159.003 204.956 155.748C207.323 155.042 209.679 154.283 211.723 152.82C211.953 152.656 212.186 152.61 212.452 152.684C228.079 157.026 243.695 161.404 259.335 165.707C259.842 165.832 260.56 166.101 260.737 165.414C260.76 164.752 259.99 164.71 259.503 164.535ZM126.004 127.45C125.764 126.446 125.533 125.487 125.295 124.495C128.269 121.703 125.321 116.026 121.311 117.516C113.705 120.194 116.439 118.995 116.831 112.683C119.385 111.628 121.932 110.576 124.55 109.495C126.793 115.977 128.421 122.873 132.595 128.477C132.777 128.728 133.056 128.945 133.024 129.402C130.668 128.746 128.338 128.098 126.004 127.45ZM178.077 66.2589C177.69 66.1298 177.316 66.0052 176.855 65.8529C177.501 64.674 177.967 63.5551 178.331 62.2794C178.405 62.284 178.481 62.2886 178.555 62.2932C178.737 63.5621 178.663 65.0732 178.077 66.2589Z" fill="black"/>
<path d="M92.9778 93.5808C92.3041 93.4816 91.0214 93.8 90.9176 92.8564C90.883 92.4734 91.1022 92.1712 91.5267 92.0674C92.5325 91.8921 93.5707 92.1459 94.5834 92.1805C94.941 92.2243 95.5316 92.4296 95.4578 92.8241C95.1256 93.6639 93.7391 93.4055 92.9801 93.5439C92.9778 93.5577 92.9778 93.5693 92.9778 93.5808Z" fill="black"/>
<path d="M89.4785 89.5251C89.6585 88.8123 89.3239 86.9344 90.279 86.8975C90.692 86.9874 90.7427 87.3335 90.7635 87.6703C90.7658 88.8676 91.1188 90.1273 90.7335 91.2854C90.5397 91.8206 89.8453 91.6683 89.5985 91.2646C89.3263 90.7455 89.4901 90.095 89.4924 89.5275C89.4877 89.5251 89.4831 89.5251 89.4785 89.5251Z" fill="black"/>
<path d="M79.9377 85.1396C79.6955 85.1281 79.2895 85.135 78.8926 85.0842C77.9791 84.9804 77.9698 83.7669 78.8857 83.6285C79.8639 83.4832 80.8628 83.6585 81.8387 83.7531C84.4387 84.5928 81.0451 85.2549 79.9377 85.1396Z" fill="black"/>
<path d="M90.7966 95.9872C90.6697 96.767 90.7574 97.6459 90.4621 98.3772C90.0676 98.8963 89.4816 98.4418 89.5001 97.8905C89.5277 96.6954 89.2117 95.4243 89.5162 94.2685C90.6789 92.9812 90.9742 95.1198 90.7643 95.9826C90.7735 95.9849 90.7851 95.9849 90.7966 95.9872Z" fill="black"/>
<path d="M87.4183 93.5554C82.4744 93.1655 85.4965 91.6406 88.4011 91.9751C89.0447 92.0143 89.4 92.3373 89.3631 92.7918C89.3423 93.6246 88.0827 93.53 87.4229 93.5115C87.4206 93.5277 87.4183 93.5415 87.4183 93.5554Z" fill="black"/>
<path d="M76.6094 87.435C76.7363 86.9644 76.4663 85.4625 77.3891 85.4648C77.6914 85.4579 77.9405 85.6378 78.0282 85.9677C78.0812 86.7521 78.2727 90.1065 77.3545 90.2057C76.3902 89.9496 76.877 88.397 76.6094 87.435Z" fill="black"/>
<path d="M78.1848 81.0332C78.1317 81.7484 78.4685 83.2064 77.3912 83.2064C77.1143 83.1695 76.9182 83.0103 76.8329 82.745C76.6668 81.5661 76.9528 80.3411 76.9736 79.1484C76.9574 78.8254 77.2181 78.4978 77.5204 78.4747C78.4247 78.8369 78.0556 80.2419 78.1363 81.0332C78.1548 81.0332 78.1686 81.0332 78.1848 81.0332Z" fill="black"/>
<path d="M74.7759 85.1419C73.95 84.9804 73.0641 85.0588 72.3097 84.6851C71.1516 83.4093 75.5718 83.5178 76.1785 83.6493C76.4808 83.7508 76.6469 84.0069 76.6469 84.3206C76.6353 85.2803 75.4242 85.0035 74.7759 85.1419Z" fill="black"/>
<path d="M213.762 140.87C212.874 150.825 202.433 155.743 193.737 157.517C186.417 159.026 179.113 161.458 171.789 162.505C173.888 156.44 171.182 149.429 166.005 145.788C166.012 145.221 166.517 145.232 166.859 145.094C174.349 142.028 181.953 139.266 189.55 136.475C192.466 135.255 195.901 134.237 197.892 131.658C197.738 131.148 197.244 131.455 196.914 131.533C194.012 132.495 191.11 133.46 188.205 134.422C187.778 134.523 187.615 134.078 187.518 133.73C183.635 123.454 179.178 113.407 175.316 103.12C175.062 102.539 173.738 99.3253 173.175 100.186C175.496 108.281 179.632 115.825 181.96 123.895C182.546 127.914 183.554 131.884 183.896 135.921C180.624 137.31 177.203 138.376 173.881 139.652C172.321 140.125 170.824 141.227 169.138 140.884C166.459 140.162 162.775 140.711 160.95 138.293C159.215 136.189 159.218 134.336 159.582 131.759C159.824 127.722 160.523 123.717 161.022 119.703C161.594 115.585 162.055 111.451 162.621 107.331C162.937 105.21 158.572 103.868 157.462 102.232C158.636 100.996 162.325 100.735 161.672 98.5156C159.737 92.4689 157.506 86.5284 155.4 80.5486C156.389 80.3248 157.464 80.664 158.302 79.7965C156.731 78.7399 155.063 77.5449 154.297 75.7916L154.301 75.787C157.377 77.3442 161.024 78.1216 164.224 76.4052C166.056 75.8931 167.994 75.7477 169.629 74.645C176.308 71.0438 174.428 64.1135 177.761 68.0423C187.227 72.2503 190.84 83.1555 196.386 91.2393C205.044 106.514 210.537 123.648 213.762 140.87Z" fill="#D52B1E"/>
<path d="M42.168 168.242C50.5355 163.061 59.6112 158.546 68.1933 153.6C79.0177 158.768 93.012 157.104 101.368 148.213C104.127 146.028 104.582 142.967 105.041 139.721C105.359 139.546 105.532 139.744 105.726 139.813C108.619 140.891 112.79 140.773 114.075 137.414C115.545 137.395 117.053 137.622 118.354 136.756C118.68 136.546 118.996 136.662 119.31 136.759C131.394 140.482 143.487 144.134 155.564 147.881C153.077 149.002 150.348 149.473 147.783 150.419C144.936 151.307 142.241 152.666 139.33 153.346C136.716 153.831 133.433 154.809 134.409 158.191C132.692 160.166 129.52 162.092 130.321 165.229C130.791 167.08 132.695 167.555 132.695 167.555C132.695 167.555 133.184 169.244 133.858 169.779C135.828 171.345 137.648 170.487 137.648 170.487C137.648 170.487 137.802 171.601 139.011 172.054C140.225 172.508 141.436 172.054 141.436 172.054C141.164 172.591 142.823 174.312 144.721 173.62C146.624 172.926 150.498 170.997 153.271 169.707C154.54 169.108 157.548 169.629 158.928 169.481C144.045 179.434 128.318 188.922 113.182 198.702C112.068 198.388 46.7428 170.365 42.168 168.242Z" fill="white"/>
<path d="M109.938 52.2667C112.102 50.4003 114.989 50.4119 117.275 48.7162C121.194 50.2873 125.508 54.1308 129.889 53.2472C131.068 52.8619 132.044 51.7568 131.525 50.4649C127.559 43.0802 134.344 31.6767 142.654 37.3957C146.668 40.6394 147.317 46.6676 144.564 50.9379C142.834 54.1308 139.773 54.3661 136.637 55.2173C136.4 56.0663 138.52 55.7872 139.074 55.8541C140.499 63.2296 144.013 70.0837 148.671 75.9342C149.28 76.9032 150.597 77.5491 150.512 78.8111C150.364 85.8151 150.717 92.8123 151.059 99.8048C146.779 101.729 141.704 102.199 137.191 100.822C136.095 100.559 136.485 95.5115 136.171 94.2634C136.455 92.3047 137.177 90.3599 137.491 88.4197C137.957 88.4474 138.432 89.0403 139.023 88.5305C138.199 87.4277 137.067 86.7495 135.918 86.0228C136.884 82.7307 137.925 79.4755 138.465 76.075C138.582 74.5477 138.882 73.1035 139.542 71.7078C139.985 70.4413 140.502 69.3731 140.536 67.9751C136.425 74.82 133.682 82.9175 126.703 87.5892C114.029 96.7596 101.786 86.5557 92.7052 77.5168C89.2054 73.6342 80.5726 67.7213 81.2924 62.2422C86.7808 62.6205 92.5921 62.4729 98.0459 60.9733C103.465 59.3746 111.11 57.1875 114.195 52.1375C112.746 52.1998 111.394 52.4143 109.938 52.2667Z" fill="#EED3CA"/>
<path d="M137.004 169.078C135.359 169.848 133.131 168.242 134.317 166.328C137.129 162.159 141.704 159.766 145.125 156.241C144.105 156.202 143.533 156.957 142.71 157.406C139.212 159.82 135.842 162.484 133.253 165.894C127.243 163.988 139.025 155.995 141.12 154.447C147.866 150.781 155.682 149.676 162.808 146.928C163.706 146.517 164.534 146.291 165.404 146.919C170.02 149.68 169.614 155.245 169.316 160.325C166.054 165.898 159.278 166.302 153.615 167.686C150.069 168.722 144.827 172.859 143.512 172.503C141.856 172.058 141.946 171.025 142.624 170.146C145.12 167.714 148.226 165.935 151.001 163.829C151.315 163.601 151.698 163.402 151.799 162.883C151.354 162.759 151.019 162.846 150.65 163.077C147.331 165.31 142.993 166.902 140.936 170.503C139.872 170.75 139.118 170.335 138.506 169.537C137.493 167.843 141.344 165.555 142.435 164.489C142.823 164.06 151.324 158.313 147.891 159.573C144.539 162.08 138.135 164.911 137.004 169.078Z" fill="#EED3CA"/>
<path d="M98.4898 99.625C99.7356 97.1911 101.616 95.1609 103.699 93.4099C105 92.6901 106.447 90.0232 107.997 90.6092C111.695 91.8481 111.224 91.502 112.782 95.0779C114.874 99.4889 118.053 104.29 123.244 105.102C123.149 106.352 123.542 108.848 122.088 109.333C120.727 109.767 119.497 110.424 118.118 110.828C116.893 108.807 116.706 106.02 114.733 104.507C114.616 105.845 115.183 106.966 115.349 108.267C115.912 111.34 115.453 114.374 115.008 117.437C111.887 116.531 111.058 115.571 107.397 116.342C106.864 116.438 106.398 116.291 105.916 116.053C102.313 114.138 98.1737 115.373 94.7109 116.962C94.9878 114.055 95.696 111.054 96.4596 108.172C97.2209 105.339 97.3179 102.345 98.4898 99.625Z" fill="#D52B1E"/>
<path d="M136.977 101.93C141.63 103.356 146.484 102.652 151.031 101.275C152.277 113.751 152.06 127.365 159.444 138.247C156.817 138.046 154.304 137.174 151.753 136.537C149.268 135.425 147.494 133.005 145.653 131.04C140.017 123.563 138.019 111.114 136.977 101.93Z" fill="white"/>
<path d="M167.771 141.882C165.64 143.343 160.696 143.548 160.483 146.508C157.556 148.229 154.488 146.056 151.532 145.407C141.015 142.148 130.467 139.012 119.961 135.713C120.538 135.091 121.532 135.054 122.063 134.405C122.427 133.808 123.004 133.494 123.548 133.13C125.112 132.112 125.625 130.423 126.019 128.693C129.081 129.715 132.414 129.985 135.199 131.54C138.228 134.412 142.387 135.58 146.298 136.742C148.358 137.07 150.374 138.551 152.476 138.071C152.718 137.972 153.06 138.041 153.336 138.106C155.805 138.858 158.582 138.999 160.871 140.143C163.033 141.202 165.4 141.338 167.771 141.882Z" fill="white"/>
<path d="M79.9063 122.056C86.1906 121.941 92.7286 123.505 98.0624 126.949C104.455 130.841 106.935 138.535 100.153 143.477C95.4117 147.064 89.2451 148.176 83.4176 148.206C73.9981 148.734 53.2097 141.569 60.7213 129.196C65.2061 123.562 73.0245 121.998 79.9063 122.056Z" fill="#D52B1E"/>
<path d="M159.397 99.7013C154.856 101.928 155.036 102.696 159.06 105.589C160.342 106.359 160.73 107.411 160.573 108.839C160.137 112.789 159.816 116.75 159.457 120.707C159.044 124.898 158.587 129.074 158.236 133.289C154.024 126.329 153.774 117.537 152.928 109.58C152.208 99.4614 151.463 89.2875 151.696 79.1528C152.96 79.4966 154.229 80.0572 154.469 81.4668C154.598 81.9628 154.794 82.4403 154.958 82.9248C155.196 83.1601 154.919 83.5384 155.193 83.7645L155.186 83.7484C156.797 88.6162 157.692 93.6847 159.344 98.5386C159.461 98.9146 159.671 99.2999 159.397 99.7013Z" fill="#D52B1E"/>
<path d="M147.589 135.716C142.786 134.846 137.485 132.943 134.386 128.903C129.043 121.941 126.891 113.133 124.623 104.811C124.911 104.624 125.172 104.454 125.527 104.223C124.704 103.884 124.233 103.528 123.668 102.926C122.591 102.444 121.758 101.768 121.121 100.82C121.306 100.163 123.467 102.643 125.368 102.536C131.011 102.76 128.033 97.5095 132.582 102.906C132.626 103.427 132.31 103.718 132.116 104.064C131.56 105.314 130.231 106.523 130.792 107.988C131.41 109.566 131.971 111.165 132.578 112.745C136.034 121.255 139.872 130.239 147.589 135.716Z" fill="#D52B1E"/>
<path d="M103.325 142.026C102.374 150.942 88.4675 153.175 81.2097 152.834C73.0775 152.571 58.0774 148.024 58.6818 138.007C66.5141 151.286 93.1507 153.54 103.325 142.026Z" fill="#9B1D1F"/>
<path d="M97.5542 122.381C98.2279 123.459 99.3052 123.489 100.339 124.162C99.4206 124.711 98.4701 124.831 97.5681 125.203C95.967 124.292 94.2529 123.835 92.7188 122.737C92.9679 117.461 99.5705 115.58 103.984 116.529C107.484 117.112 106.935 121.369 110.365 120.78C113.198 120.45 116.792 122.727 113.83 125.387C112.494 126.347 110.755 126.017 109.212 126.135C105.13 126.564 100.814 121.911 97.5542 122.381Z" fill="#EED3CA"/>
<path d="M213.761 140.87C211.062 128.839 207.493 116.78 203.156 105.144C199.811 97.9343 196.099 90.8887 191.796 84.2007C188.74 79.8174 186.536 74.4167 182.262 71.0992C180.88 70.0587 179.122 69.3736 177.984 68.0863C178.194 67.9409 178.407 67.7956 178.693 67.5972C194.002 70.0241 214.73 126.442 213.761 140.87Z" fill="#FCA6A6"/>
<path d="M143.025 129.794C137.843 123.498 134.996 115.566 132.034 108.05C131.508 106.539 132.892 105.217 133.529 103.948C134.496 102.195 132.133 101.307 131.418 99.9919C132.851 98.7807 133.928 97.5003 135.077 96.0562C136.371 107.388 137.562 119.419 143.177 129.637C143.126 129.69 143.075 129.741 143.025 129.794Z" fill="#D52B1E"/>
<path d="M113.279 127.134C114.654 129.752 113.353 133.028 113.221 135.854C112.97 139.728 108.042 139.896 105.361 138.323C105.583 135.917 105.244 133.69 104.254 131.512C105.147 130.823 106.111 131.03 107.128 131.346C107.184 132.082 106.995 132.848 107.237 133.522C108.508 133.926 108.39 128.28 109.53 127.411C110.767 127.3 112.031 127.141 113.279 127.134Z" fill="#EED3CA"/>
<path d="M197.434 132.221C196.602 134.865 186.887 137.557 184.095 138.814C178.046 141.059 171.894 143.188 166.004 145.788C165.275 145.539 164.546 145.29 163.738 145.013C174.646 140.035 186.407 136.897 197.434 132.221Z" fill="#FCA6A6"/>
<path d="M114.516 136.161C114.207 132.994 115.898 129.669 114.336 126.626C114.76 126.172 115.18 125.722 115.623 125.247C119.264 124.931 118.842 130.832 118.874 133.27C118.904 135.633 116.59 136.731 114.516 136.161Z" fill="#EED3CA"/>
<path d="M124.681 123.201C122.362 121.971 121.961 122.342 119.652 122.732C118.565 122.58 117.631 122.949 116.795 123.627C116.611 123.777 116.489 124.063 116.113 123.969C116.092 122.813 115.773 121.881 115.137 120.864C117.25 119.915 119.564 119.389 121.76 118.628C124.362 117.735 126.494 121.353 124.681 123.201Z" fill="#6A6969"/>
<path d="M117.586 124.421C121.907 120.681 123.974 133.843 120.018 134.147C119.946 130.807 120.456 126.756 117.586 124.421Z" fill="#EED3CA"/>
<path d="M106.082 129.538C105.279 129.828 104.426 130.151 103.51 130.334C102.146 128.795 100.663 127.383 99.0664 126.123C99.0641 125.733 102.169 124.845 102.469 125.283C103.346 125.786 104.437 126.038 105.189 126.714C105.713 127.535 106.384 128.527 106.082 129.538Z" fill="#6A6969"/>
<path d="M159.159 124.289C158.643 123.44 159.189 122.421 159.155 121.498C159.328 116.815 160.138 112.171 160.276 107.467C160.23 105.958 156.14 104.761 156.07 102.846C157.189 104.004 161.522 106.105 161.393 107.529C160.82 113.13 160.048 118.734 159.159 124.289Z" fill="#FCA6A6"/>
<path d="M159.395 99.7012C157.822 94.4436 156.223 89.1305 155.188 83.7483C157.423 88.5999 158.775 93.9337 160.554 98.9907C160.217 99.4128 159.838 99.6089 159.395 99.7012Z" fill="#FCA6A6"/>
<path d="M107.535 117.604C110.502 116.734 112.938 117.398 115.181 119.468C113.148 120.372 111.18 119.479 109.053 119.671C108.569 119.011 108.077 118.342 107.535 117.604Z" fill="#EED3CA"/>
<path d="M121.418 123.498C125.264 122.626 125.727 129.944 123.319 131.672C123.201 128.936 123.024 125.964 121.418 123.498Z" fill="#EED3CA"/>
<path d="M87.5125 45.6899C88.5945 45.706 90.7839 45.5007 91.6467 45.9713C92.1312 46.2758 91.7182 46.6242 91.3283 46.8064C89.2474 47.6001 86.892 47.2632 84.7303 46.9264C84.2158 46.8018 82.8501 46.5619 82.7578 46.0151C83.0785 45.3346 86.5367 45.7591 87.4641 45.6899H87.5125Z" fill="white"/>
<path d="M110.505 8.39221C112.17 8.5514 113.972 8.75441 115.342 9.74181C115.811 10.5562 114.595 10.4662 114.115 10.3324C112.131 9.96789 110.14 9.32885 108.11 9.7395C107.665 9.79718 107.136 9.99096 106.77 9.63338C106.936 8.55139 109.566 8.61599 110.505 8.39221Z" fill="white"/>
<path d="M110.43 5.80383C111.332 6.12681 112.854 5.92379 113.447 6.89735C113.627 7.25494 113.362 7.68635 112.96 7.66558C111.567 7.32415 110.185 6.99194 108.736 7.00809C108.169 6.99655 107.908 6.85352 107.95 6.62282C108.372 5.7277 109.537 6.06452 110.43 5.80383Z" fill="white"/>
<path d="M151.156 31.8361C151.957 30.7242 156.409 32.369 155.999 33.8386C155.955 34.0947 155.613 34.2377 155.38 34.1385C154.042 33.1857 152.612 32.5974 151.156 31.8361Z" fill="white"/>
<path d="M152.222 34.953C154.035 34.9276 156.257 38.5981 154.148 38.1782C153.274 37.4146 152.773 36.2934 151.73 35.6774C151.405 35.3337 151.793 34.9645 152.222 34.953Z" fill="white"/>
<path d="M89.4687 41.9825C90.0962 41.9709 92.3502 42.0748 91.1367 42.9837C90.0063 43.4059 88.7097 43.0091 87.5124 42.9837C87.2425 42.9768 86.8295 42.8407 86.7349 42.5985C86.5965 42.2316 87.6554 42.0909 88.5113 42.0286C88.9104 42.0009 89.1827 41.9871 89.4341 41.9825H89.4687Z" fill="white"/>
<path d="M109.892 11.3062C110.907 11.5876 112.638 11.2369 113.226 12.3305C113.452 12.7896 112.843 12.8772 112.515 12.7688C111.528 12.4873 109.694 12.6258 109.119 11.8298C108.831 11.3431 109.583 11.3108 109.862 11.3062H109.892Z" fill="white"/>
<path d="M110.271 14.3054C110.952 14.46 113.22 14.4577 112.745 15.6435C112.085 16.3264 110.472 15.3343 109.533 15.1775C109.452 15.1567 109.374 15.1313 109.3 15.0898C108.509 14.5615 109.72 14.317 110.232 14.3054H110.271Z" fill="white"/>
<path d="M89.6523 40.3928C89.1817 40.3144 88.3812 40.439 88.0443 40.0606C87.8067 39.5208 88.7918 39.2924 89.1794 39.2993C89.9499 39.3547 91.0873 38.9279 91.6663 39.4354C91.8094 39.5692 91.7632 39.823 91.6732 39.9568C91.2418 40.5382 90.2706 40.259 89.6754 40.3882L89.6523 40.3928Z" fill="white"/>
<path d="M138.404 154.873C137.472 155.625 136.542 156.38 135.483 157.236C135.239 155.618 137.036 154.853 138.386 154.901L138.404 154.873Z" fill="#EED3CA"/>
<path d="M95.6315 108.011C95.0155 111.066 94.0858 114.072 93.6959 117.163C93.6036 117.373 93.3914 117.569 93.6267 117.839C94.035 117.85 94.2173 117.56 94.3811 117.246C94.3534 117.244 94.3257 117.239 94.3003 117.237C95.6084 116.741 97.7239 103.268 98.4922 99.6251C96.8496 102.082 96.3766 105.183 95.6315 108.011Z" fill="#FCA6A6"/>
<path d="M138.383 154.901L138.367 154.843C138.388 154.862 138.411 154.878 138.383 154.901Z" fill="#EED3CA"/>
<path d="M120.927 188.692C120.865 189.626 120.004 189.195 119.478 189.005C104.151 182.585 88.8599 176.077 73.5437 169.627C69.4972 167.857 65.3492 166.288 61.3581 164.406C60.9059 164.124 61.1828 163.331 61.7595 163.451C62.0802 163.52 62.3986 163.621 62.7008 163.748C81.9643 172.24 102.084 179.678 120.927 188.692Z" fill="black"/>
<path d="M72.3372 155.828C85.4179 161.132 98.3556 166.81 111.388 172.243C117.804 174.951 124.224 177.653 130.64 180.361C131.06 180.578 131.777 180.742 131.623 181.353C131.63 182.809 123.25 178.268 122.042 178.038C105.616 171.084 89.1784 164.161 72.7433 157.229C72.0442 157.028 71.3614 156.313 72.3372 155.828Z" fill="black"/>
<path d="M127.43 164.38C127.834 165.582 126.341 165.354 125.728 164.96C120.906 162.925 116.084 160.883 111.263 158.848C107.255 157.157 103.248 155.469 99.2409 153.778C98.821 153.572 98.062 153.422 98.2696 152.806C98.475 152.093 99.3332 152.582 99.8015 152.716C109.023 156.59 118.218 160.482 127.43 164.38Z" fill="black"/>
<path d="M111.789 70.5616C111.365 70.4185 110.866 70.7646 110.506 70.2593C110.758 70.0332 111.014 69.8002 111.261 69.5788C111.051 69.092 110.202 69.5096 109.828 68.7944C109.913 68.6929 109.953 68.6006 110.003 68.5937C110.698 68.4991 111.249 68.2315 111.568 67.5417C112.624 65.9591 114.857 65.9522 116.576 66.5358C116.442 66.7388 116.352 66.8773 116.219 67.0803C121.857 71.6804 115.323 76.0499 111.789 70.5616Z" fill="black"/>
<path d="M93.8296 76.5045C93.3497 76.4169 92.8791 76.6752 92.4777 76.2185C92.7268 75.9901 92.9714 75.7663 93.2621 75.4987C92.7845 75.2103 92.1039 75.4964 91.9102 74.7904C92.45 74.532 93.0383 74.4236 93.2597 73.7823C93.9795 72.232 96.0051 72.0958 97.5023 72.5665C97.4839 72.7326 97.4677 72.8941 97.447 73.0948C103.295 77.2405 97.8715 81.8152 93.8296 76.5045Z" fill="black"/>
<path d="M112.182 80.2395C114.528 80.491 116.321 81.3999 117.38 83.4647C118.402 84.9596 116.701 86.6437 115.16 86.7014C111.43 87.4258 106.347 81.0862 112.182 80.2395Z" fill="black"/>
<path d="M136.701 44.2224C138.242 44.8176 140.332 44.55 141.091 46.1811C139.592 46.5386 138.191 45.7173 136.685 45.7289C136.101 47.3991 137.564 48.9195 137.102 50.5482C133.852 49.1086 134.68 43.7495 135.917 41.0572C136.12 40.5566 136.999 39.0778 137.488 39.9498C137.386 41.4102 136.8 42.7598 136.701 44.2224Z" fill="black"/>
<path d="M114.692 62.9806C114.163 63.3797 113.665 63.5205 113.035 63.5828C111.102 63.7535 109.623 64.8285 108.168 66.0028C107.263 66.2381 107.579 64.9808 108.006 64.6301C109.349 62.7753 111.573 62.0809 113.785 62.3831C114.113 62.4062 114.447 62.4962 114.692 62.9806Z" fill="black"/>
<path d="M96.2853 69.9756C94.8918 71.1129 92.3034 70.0033 90.5339 71.9481C89.4289 72.1003 90.3378 70.5016 90.79 70.2063C92.2388 69.0182 94.9726 68.2869 96.2853 69.9756Z" fill="black"/>
<path d="M102.484 74.2113C103.197 70.0772 104.794 78.3039 104.328 79.1644C102.89 80.8232 102.747 74.9219 102.484 74.2113Z" fill="black"/>
<path d="M116.422 88.15C117.458 87.9331 118.424 87.7947 118.983 86.7796C120.245 85.6123 120.166 87.94 119.264 88.2953C118.477 88.7475 116.803 89.405 116.422 88.15Z" fill="black"/>
<path d="M84.0376 145.422C77.8779 145.295 71.5267 144.04 66.4121 140.443C58.0331 134.38 63.3046 126.857 71.6421 124.972C81.0708 122.695 94.2876 123.856 100.648 131.999C106.01 141.804 91.2055 145.544 84.0376 145.422Z" fill="black"/>
<path d="M115.439 85.5154C114.724 84.4865 114.541 83.2915 114.931 82.1195C116.456 82.4656 117.577 85.1255 115.439 85.5154Z" fill="#EF6261"/>
<path d="M86.7907 141.88C85.6095 142.533 84.426 143.188 83.2448 143.841C82.6819 143.299 82.6727 142.575 82.6773 141.885C82.6934 138.311 82.292 134.758 82.2182 131.19C82.2021 130.398 81.9229 129.997 81.0924 129.884C78.8431 129.577 76.6145 129.738 74.379 130.008C73.4954 130.114 73.3801 130.719 73.3801 131.441C73.3801 134.535 73.3916 137.628 73.3731 140.722C73.3708 141.294 73.4954 141.917 72.9925 142.383C53.6044 135.231 69.6842 126.862 81.8698 128.105C98.9993 128.857 109.609 141.892 85.7825 144.173C85.6326 143.82 85.9256 143.781 86.0894 143.691C88.1818 142.524 90.2789 141.368 92.3736 140.205C93.361 139.366 99.2323 137.13 98.651 136.013C98.2842 135.451 97.6174 136.013 97.1791 136.196C94.2285 137.781 91.3516 139.518 88.3548 141.017C87.552 140.014 87.7573 138.768 87.5981 137.631C87.1114 135.49 87.4251 133.003 86.5115 131.04C86.0986 131.196 86.2093 131.536 86.237 131.794C86.53 134.689 86.6707 137.598 86.9891 140.494C87.0421 140.98 87.0767 141.449 86.7907 141.88Z" fill="#D6E3F2"/>
<path d="M72.9922 142.383C73.1075 138.247 72.983 134.131 73.0568 129.992C74.3233 129.406 82.2479 128.709 82.5432 130.234C82.6747 132.823 82.6493 135.455 82.9561 138.023C83.1199 139.947 82.8223 141.922 83.2468 143.839C81.4889 144.828 75.0154 143.158 72.9922 142.383Z" fill="white"/>
<path d="M63.6914 132.045C67.8325 121.302 98.3518 123.593 100.444 135.026C93.987 125.431 71.8305 124.059 63.6914 132.045Z" fill="#9B1D1F"/>
<path d="M86.7914 141.88C86.5284 139.702 86.4384 137.139 86.1454 135.093C86.2008 133.506 85.661 131.962 85.9724 130.366C86.7107 130.354 87.262 130.943 87.2113 131.642C87.5896 134.765 87.9241 137.898 88.3532 141.017C87.8342 141.306 87.3128 141.592 86.7914 141.88Z" fill="white"/>
</svg>
