<svg width="300" height="200" viewBox="0 0 300 200" fill="none" xmlns="http://www.w3.org/2000/svg">
<path d="M152.551 56.0446C150.902 57.5551 149.114 58.3756 147.149 58.8382C143.585 59.6784 140.182 59.1427 136.916 57.5808C136.092 57.1873 135.303 56.7188 134.435 56.2522C134.322 56.3866 134.172 56.5349 134.057 56.7049C131.734 60.1589 128.857 63.0533 125.392 65.3605C121.268 68.1047 116.74 69.7872 111.823 70.3486C104.249 71.2126 97.2264 69.5756 90.89 65.3388C84.0473 60.7638 79.7097 54.3858 77.7939 46.3827C77.1652 43.7591 76.9121 41.0782 77.0268 38.3815C77.3431 30.9082 79.937 24.3206 84.9014 18.7176C88.8773 14.2317 93.7863 11.1791 99.5455 9.4986C101.463 8.93909 103.423 8.54961 105.404 8.38749C110.099 8.00197 114.692 8.57334 119.093 10.2855C127.642 13.6109 133.66 19.546 137.116 28.0533C138.12 30.5247 138.733 33.0988 139.053 35.75C139.316 37.9268 139.324 40.1055 139.152 42.2823C139.004 44.1743 138.66 46.0426 138.1 47.8596C137.92 48.4408 138.013 48.8857 138.377 49.3483C139.047 50.2004 139.818 50.9438 140.674 51.5982C143.138 53.4764 145.856 54.8544 148.844 55.6867C149.761 55.9418 150.696 56.0861 151.653 56.0466C151.89 56.0367 152.131 56.0446 152.551 56.0446Z" fill="black"/>
<path d="M149.442 56.8611C149.08 57.2367 148.744 57.3218 148.43 57.4384C145.735 58.4408 143.001 58.5218 140.229 57.7864C138.347 57.2862 136.617 56.4538 134.99 55.3961C134.727 55.2241 134.464 55.0501 134.205 54.8801C133.841 55.0659 133.734 55.4178 133.551 55.7006C130.342 60.663 126.063 64.3957 120.698 66.867C117.364 68.4032 113.861 69.2632 110.192 69.5341C100.138 70.2794 90.2746 65.7005 84.2802 57.8911C81.1347 53.7927 79.126 49.202 78.3391 44.1031C77.2695 37.1696 78.4696 30.6176 81.9295 24.5203C85.3399 18.51 90.2865 14.1882 96.6605 11.531C99.3573 10.406 102.167 9.70024 105.091 9.42938C106.86 9.26528 108.63 9.20795 110.393 9.33053C112.572 9.48078 114.721 9.87817 116.815 10.5207C121.49 11.9541 125.615 14.3384 129.122 17.7548C133.774 22.2862 136.674 27.7627 137.843 34.1466C138.586 38.2134 138.46 42.2684 137.519 46.2937C137.36 46.9699 137.165 47.6381 136.967 48.3044C136.87 48.6306 136.9 48.8995 137.091 49.196C137.803 50.2972 138.689 51.2383 139.705 52.0509C142.331 54.1466 145.247 55.6867 148.491 56.5863C148.76 56.6634 149.027 56.7425 149.442 56.8611Z" fill="#212492"/>
<path d="M135.814 50.8436C136.018 50.0174 136.234 49.1951 136.425 48.3671C137.123 45.3221 137.354 42.2408 137.119 39.1138C136.877 35.8971 136.186 32.7967 135.006 29.8166C133.362 25.6707 130.968 22.0667 127.804 19.0141C124.82 16.135 121.405 14.002 117.578 12.5921C115.419 11.7965 113.197 11.2794 110.914 11.0352C108.573 10.7853 106.238 10.8311 103.904 11.1096C103.267 11.1859 102.634 11.329 102 11.4416C102.002 11.3252 102.004 11.2108 102.005 11.0944C103.613 10.6174 105.25 10.3064 106.916 10.1481C108.23 10.0221 109.543 9.95535 110.86 10.0336C117.268 10.4094 122.956 12.7065 127.872 17.0031C132.18 20.7674 135.129 25.4876 136.793 31.0739C137.543 33.5904 137.942 36.1699 137.992 38.8085C138.038 41.2258 137.898 43.6222 137.396 45.986C137.048 47.6249 136.597 49.2314 135.977 50.7825C135.946 50.8626 135.878 50.9275 135.827 51C135.866 50.9428 135.862 50.8912 135.814 50.8436Z" fill="#BCBDDE"/>
<path d="M102.478 33.5062C102.381 31.2958 102.289 29.0855 102.186 26.8751C102.122 25.5169 102.033 24.1606 101.974 22.8044C101.935 21.8573 101.861 20.9064 101.921 19.9633C102.039 18.0456 102.923 16.5311 104.538 15.4695C107.909 13.2532 112.488 15.1492 113.338 19.0974C113.52 19.9435 113.502 20.7917 113.471 21.6438C113.388 23.8225 113.297 26.0013 113.22 28.182C113.109 31.3097 113.006 34.4374 112.901 37.5651C112.862 38.7652 112.824 39.9672 112.789 41.1673C112.737 42.9052 112.718 44.645 112.631 46.3808C112.542 48.1582 111.958 49.7201 110.462 50.8193C108.807 52.0352 106.589 51.972 105.017 50.6473C103.819 49.6371 103.198 48.3421 103.131 46.7644C103.044 44.6806 102.911 42.5987 102.81 40.5149C102.716 38.5576 102.635 36.6003 102.553 34.641C102.538 34.2634 102.551 33.8838 102.551 33.5042C102.524 33.5042 102.502 33.5042 102.478 33.5062Z" fill="black"/>
<path d="M107.76 64.5677C104.745 64.5341 102.285 62.039 102.305 59.0319C102.327 56.0604 104.725 53.5614 107.817 53.5554C110.958 53.5475 113.37 56.2245 113.325 59.1406C113.279 62.1438 110.763 64.6013 107.76 64.5677Z" fill="black"/>
<path d="M112.016 33.2314C111.962 35.0325 111.915 36.8336 111.855 38.6367C111.798 40.4378 111.727 42.2389 111.67 44.04C111.648 44.7359 111.648 45.4319 111.63 46.1258C111.61 46.9246 111.428 47.6897 111.102 48.4192C111.013 48.6209 110.912 48.8206 110.788 49.0025C109.374 51.0744 106.622 51.2563 105.013 49.1606C104.443 48.4192 104.153 47.5612 104.115 46.6102C104.028 44.4295 103.914 42.2528 103.813 40.0721C103.718 38.0199 103.633 35.9657 103.536 33.9135C103.435 31.7981 103.324 29.6826 103.222 27.5671C103.184 26.7783 103.152 25.9875 103.123 25.1986C103.061 23.5557 102.99 21.9147 102.947 20.2718C102.887 18.0713 104.683 15.602 107.66 15.5703C110.143 15.5446 112.221 17.4802 112.401 19.9594C112.433 20.4003 112.435 20.8451 112.421 21.288C112.32 24.1646 112.207 27.0393 112.108 29.9139C112.071 31.0191 112.059 32.1262 112.035 33.2334C112.029 33.2314 112.023 33.2314 112.016 33.2314Z" fill="white"/>
<path d="M107.828 63.5456C105.355 63.5852 103.31 61.4875 103.32 59.034C103.328 56.958 104.993 54.5658 107.891 54.5856C110.333 54.6034 112.302 56.6121 112.288 59.0953C112.278 61.5626 110.293 63.5397 107.828 63.5456Z" fill="white"/>
<path d="M163.169 191.185C160.31 194.67 159.43 196.564 164.681 197.563C168.564 198.375 172.68 198.765 176.215 196.626C179.183 199.564 183.969 199.401 187.834 198.747C193.256 197.537 191.83 195.568 189.8 191.721C191.771 192.148 196.512 194.409 195.047 196.958C193.099 199.168 187.647 199.884 184.756 199.989C180.343 200.064 175.931 199.757 171.545 199.291C167.844 199 164.102 198.771 160.579 197.496C155.055 195.386 159.523 191.758 163.169 191.185Z" fill="#CCCCCC"/>
<path d="M213.736 20.0463C210.824 17.9822 208.019 15.7679 205.009 13.8383C204.559 13.5496 204.155 13.3144 203.643 13.5714C200.514 11.6813 197.742 2.43457 194.104 2.69357C191.961 2.85371 191.166 3.85213 189.845 5.31318C189.735 5.38831 189.723 5.59787 189.644 5.73429C189.282 6.41242 188.556 6.62792 188.349 7.47015C181.925 4.71215 171.994 3.3717 167.595 10.0957C164.592 11.0269 161.757 12.3515 160.255 15.3013C157.574 19.5757 157.989 24.9019 156.006 29.376C152.538 34.8861 151.142 38.3954 154.246 44.5757C154.762 45.7678 154.579 46.9916 154.094 48.164C152.864 51.2324 153.588 54.8742 155.986 57.1676C154.157 60.3091 153.424 63.8481 152.669 67.3435C150.482 77.7508 149.041 88.2668 148.487 98.8876C148.297 102.992 148.015 107.1 148.291 111.207C148.22 112.211 148.926 112.62 149.822 112.782C149.897 116.258 148.525 119.864 149.76 123.235C150.875 125.977 152.708 128.498 155.211 130.103C156.52 130.784 157.645 129.552 158.853 129.101C159.616 133.227 159.978 137.423 160.692 141.564C160.804 142.891 162.52 142.757 163.485 143.18C163.214 152.587 164.578 161.885 166.407 171.086C167.064 174.728 167.453 178.407 167.742 182.09C168.011 185.43 165.025 188.617 163.167 191.185C157.722 195.957 161.907 197.622 167.036 198.225C169.928 198.757 172.754 198.63 175.433 197.282C175.964 197.013 176.372 197.092 176.803 197.478C179.086 200.05 192.196 200.52 191.801 195.789C191.652 193.929 190.527 192.579 189.422 191.183C188.021 188.413 185.241 185.892 185.355 182.602C187.354 169.678 191.125 156.869 190.595 143.682C191.739 143.199 193.73 143.549 194.06 142.059C194.491 140.345 194.833 138.605 195.219 136.879C197.164 126.505 199.228 115.981 198.997 105.398C200.516 105.149 201.937 104.639 203.469 104.483C203.881 104.451 204.055 104.188 204.015 103.749C202.74 97.7587 200.626 91.9639 199.776 85.8706C198.722 78.6681 200.761 71.4598 199.683 64.2257C204.454 58.6069 209.557 53.166 214.155 47.3831C217.518 43.0138 222.066 38.9648 223.317 33.4072C224.804 26.7366 218.277 23.34 213.736 20.0463ZM157.623 55.6808C157.588 55.5009 157.548 55.3862 157.546 55.2716C157.544 54.8702 157.558 54.4709 157.566 54.0695C157.627 54.0656 157.688 54.0596 157.75 54.0557C157.926 54.4214 158.102 54.7892 158.28 55.1589C158.187 55.4792 157.947 55.576 157.623 55.6808ZM203.564 36.5488C203.461 36.6476 203.384 36.8197 203.123 36.7485C203.104 36.2997 203.179 35.841 203.232 35.3863C203.442 33.5654 203.224 31.7999 202.613 30.0719C202 28.34 201.176 26.7109 200.31 25.0957C199.744 24.0419 199.252 22.9466 198.728 21.8711C198.657 21.7722 198.568 21.6833 198.517 21.5765C198.26 21.0447 198.007 20.5109 197.765 19.9731C197.692 19.809 197.655 19.6291 197.603 19.465C198.153 19.1408 198.448 19.4867 198.778 19.8288C198.867 20.323 198.436 20.847 198.786 21.3551C200.079 22.5116 201.374 23.6663 202.663 24.8248C204.659 26.618 206.654 28.4152 208.649 30.2123C208.788 30.3369 208.906 30.4812 209.062 30.6433C207.362 32.7627 205.488 34.6785 203.564 36.5488Z" fill="black"/>
<path d="M202.639 6.78613C202.623 6.91662 202.633 7.02141 202.593 7.10049C202.542 7.20527 202.467 7.34169 202.374 7.36739C202.283 7.39309 202.099 7.32785 202.06 7.24877C201.888 6.91662 201.727 6.57459 201.613 6.21872C201.142 4.75767 200.407 3.44885 199.359 2.32983C198.908 1.84941 198.394 1.43027 197.902 0.987409C197.738 0.841106 197.538 0.728414 197.398 0.564317C197.313 0.46151 197.253 0.271712 197.287 0.151111C197.336 -0.0268245 197.534 -0.0189164 197.684 0.0305102C197.862 0.0898221 198.04 0.162973 198.2 0.259849C200.401 1.59041 201.88 3.46862 202.512 5.98147C202.585 6.25233 202.603 6.539 202.639 6.78613Z" fill="black"/>
<path d="M204.769 6.51332C204.771 7.16378 204.557 7.67781 204.342 7.58687C203.926 7.41091 203.936 6.98979 203.897 6.62206C203.756 5.3172 203.292 4.11712 202.709 2.95659C202.61 2.76086 202.495 2.56908 202.416 2.36544C202.392 2.30218 202.446 2.17169 202.505 2.12622C202.566 2.07877 202.687 2.07284 202.766 2.09656C202.849 2.12226 202.926 2.19542 202.983 2.26461C203.932 3.43899 204.579 4.75176 204.751 6.27014C204.759 6.36504 204.765 6.45994 204.769 6.51332Z" fill="black"/>
<path d="M193.416 140.606C191.575 145.647 167.546 143.047 162.293 141.853C159.838 136.501 160.427 128.976 158.987 122.921C159.088 119.716 156.613 109.787 159.088 108.372C165.215 107.525 175.174 108.348 173.392 99.3225C177.263 99.8089 181.093 100.001 184.982 99.7061C184.31 107.185 193.288 106.031 198.313 106.733C197.05 117.721 194.729 129.326 193.416 140.606Z" fill="black"/>
<path d="M199.084 70.1766C198.758 74.5973 198.487 79.026 198.549 83.4625C199.13 87.5965 199.322 91.7721 200.118 95.8824C200.684 98.1422 201.237 100.406 201.799 102.668C201.888 103.026 202.082 103.385 201.823 103.753C197.7 104.722 193.329 105.633 189.102 104.918C187.491 104.485 186.904 103.352 187.038 101.857C187.321 98.6206 188.12 95.4573 188.497 92.2308C189.486 86.088 189.126 79.8089 190.284 73.6978C191.346 68.6128 192.216 63.2589 190.735 58.1699C190.443 57.2328 189.278 57.2664 188.657 56.5903C190.534 54.5262 189.248 54.7971 188.153 52.992C192.687 52.7192 197.293 51.9916 201.358 49.8544C202.329 49.2633 199.751 48.1482 200.097 46.8671L200.091 46.873C201.633 48.0849 203.689 48.7789 205.472 47.6381C205.314 47.3178 205.17 47.0924 204.879 46.9125C202.457 45.3032 202.08 42.0391 202.568 39.3918C203.691 37.1735 206.067 35.665 207.625 33.6978C211.344 29.6745 210.379 30.6532 206.828 27.304C204.533 25.234 202.204 23.1957 199.96 21.0684C199.076 20.1233 201.309 16.9482 202.176 16.2977L202.167 16.3036C203.675 15.1194 204.132 15.0581 205.577 16.1653C210.814 20.4476 216.91 23.7097 221.741 28.4547L221.73 28.4448C221.828 28.5614 221.801 28.7493 221.951 28.8343C224.217 34.3028 219.412 39.2732 216.318 43.3143C211.061 49.6962 205.753 55.9971 200.168 62.0984C199.039 60.7342 198.173 59.2296 197.182 57.7706C196.399 56.8473 196.247 55.0798 195.029 54.6705C194.602 54.9631 194.913 55.3131 194.996 55.6017C196.437 60.4515 199.059 64.9967 199.084 70.1766Z" fill="#D52B1E"/>
<path d="M155.88 59.3839C156.048 58.769 156.33 58.2155 156.765 57.6856C157.111 57.8576 157.44 58.0217 157.758 58.1799C158.011 57.998 157.805 57.824 157.786 57.6599C157.695 56.9383 157.849 56.5864 158.444 56.2344C159.021 55.8845 159.411 56.6892 159.802 56.9976C160.787 58.1087 162.366 57.5769 163.671 57.7093C164.998 57.8576 166.297 57.31 167.576 57.391C166.417 59.6488 165.136 59.6429 167.695 61.5013C167.115 63.1008 164.929 64.113 165.664 66.0703C166.88 70.922 169.456 75.3388 170.538 80.1964C171.526 86.179 171.963 92.219 172.343 98.2648C172.331 100.837 173.104 104.862 169.949 105.849C166.224 106.731 162.228 106.663 158.517 105.778C158.312 101.054 159.545 96.1177 159.294 91.2818C159.34 88.5713 159.695 85.8054 159.312 83.0751C158.837 77.9505 158.347 72.6124 160.413 67.7548C160.939 66.0585 161.862 64.3345 161.876 62.5512C161.576 62.5274 161.512 62.7291 161.441 62.8932C160.34 65.4752 159.136 68.0336 158.462 70.7698C157.181 76.0802 158.669 81.5369 158.515 86.8987C158.345 90.7441 158.112 94.5816 157.44 98.3815C157.056 100.683 156.651 102.984 156.475 105.313C156.368 105.977 156.862 106.329 157.41 106.616C157.323 108.235 157.238 109.837 157.151 111.497C154.794 112.15 152.187 112.075 149.767 111.76C148.586 111.776 149.227 104.204 149.239 103.059C150.488 88.3637 152.91 73.7967 155.88 59.3839Z" fill="#D52B1E"/>
<path d="M185.25 98.6287C182.079 99.1249 175.124 98.9173 173.315 98.257C173.151 97.7726 173.194 97.2289 173.153 96.701C173.03 95.1569 172.929 93.6109 172.818 92.0668C172.743 90.9952 172.674 89.9217 172.589 88.8501C172.457 87.1815 172.297 85.5168 172.02 83.862C171.765 82.3357 171.565 80.7975 171.431 79.2554C171.225 76.8948 171.104 74.5263 170.93 72.1617C170.752 69.7181 170.92 67.2942 171.306 64.8822C171.589 63.1048 171.909 61.3314 172.213 59.556C172.229 59.463 172.265 59.3761 172.304 59.2456C176.834 60.3092 181.245 59.8367 185.602 58.1799C185.737 58.6129 185.865 59.0301 185.998 59.4453C186.553 61.191 187.13 62.9308 187.658 64.6845C188.4 67.1499 188.827 69.6706 188.805 72.2507C188.787 74.3385 188.761 76.4243 188.686 78.5101C188.637 79.8683 188.489 81.2206 188.396 82.5769C188.348 83.2708 188.307 83.9668 188.291 84.6607C188.247 86.6872 187.977 88.6939 187.729 90.7026C187.688 91.0466 187.609 91.3887 187.506 91.7188C186.796 93.9786 186.077 96.2344 185.357 98.4903C185.349 98.5239 185.319 98.5436 185.25 98.6287Z" fill="white"/>
<path d="M178.144 146.543C179.053 146.122 180.034 145.879 181.001 145.6C182.304 145.222 183.63 144.922 184.929 144.528C186.333 144.103 187.78 143.99 189.223 143.836C189.34 143.824 189.461 143.848 189.631 143.858C189.682 144.323 189.771 144.756 189.771 145.191C189.773 146.296 189.743 147.403 189.712 148.508C189.688 149.36 189.688 150.218 189.599 151.064C189.374 153.202 189.121 155.335 188.844 157.466C188.622 159.158 188.379 160.849 188.092 162.529C187.482 166.11 186.926 169.698 186.107 173.243C185.425 176.199 184.886 179.186 184.451 182.191C184.312 183.15 184.421 184.083 184.822 184.971C185.317 186.066 185.799 187.166 186.432 188.192C186.623 188.504 186.865 188.803 186.967 189.267C185.425 188.941 183.929 188.751 182.41 188.899C180.918 189.046 179.488 189.398 178.207 190.285C177.772 189.566 177.551 188.844 177.381 188.115C177.055 186.729 176.853 185.331 176.886 183.892C176.952 180.983 176.948 178.073 176.968 175.165C176.973 174.218 176.944 173.269 176.973 172.322C177.064 169.51 177.177 166.699 177.28 163.888C177.363 161.614 177.434 159.338 177.535 157.065C177.608 155.424 177.741 153.785 177.814 152.142C177.867 150.942 177.875 149.74 177.891 148.54C177.899 147.869 177.952 147.213 178.144 146.543Z" fill="#EED3CA"/>
<path d="M174.146 190.123C171.562 188.714 168.81 188.569 165.861 189.231C166.084 188.846 166.242 188.579 166.392 188.308C166.964 187.29 167.539 186.272 168.101 185.248C168.454 184.601 168.613 183.891 168.721 183.17C168.741 183.045 168.761 182.917 168.747 182.794C168.541 180.752 168.431 178.702 168.174 176.661C167.768 173.431 167.227 170.222 166.667 167.017C166.363 165.273 165.999 163.542 165.702 161.798C165.22 158.961 164.923 156.1 164.696 153.231C164.524 151.056 164.4 148.88 164.384 146.697C164.382 146.385 164.384 146.07 164.384 145.748C164.836 145.483 165.307 145.416 165.756 145.291C167.46 144.813 169.188 144.437 170.944 144.194C171.163 144.164 171.384 144.131 171.604 144.137C173.279 144.194 174.951 144.259 176.624 144.326C176.715 144.33 176.804 144.37 176.934 144.404C176.952 144.582 176.984 144.763 176.985 144.945C177.015 148.043 176.94 151.139 176.766 154.234C176.547 158.114 176.333 161.997 176.29 165.886C176.266 168.004 176.1 170.117 176.031 172.235C175.987 173.593 175.999 174.953 175.991 176.311C175.975 179 175.961 181.687 175.948 184.376C175.94 185.849 175.619 187.26 175.127 188.638C174.856 189.405 174.627 189.716 174.146 190.123Z" fill="#EED3CA"/>
<path d="M176.971 189.884C178.041 193.081 179.186 189.759 182.345 189.85C184.425 189.785 187.416 189.593 188.668 191.596C189.089 192.907 191.538 195.598 190.346 196.762C188.104 198.134 185.392 198.251 182.833 198.16C180.68 197.94 177.343 197.681 176.774 195.137C176.772 193.433 176.791 191.729 176.807 190.024C176.807 190.005 176.847 189.987 176.971 189.884Z" fill="#D52B1E"/>
<path d="M175.747 189.763C175.88 190.481 175.894 194.18 175.765 195.639C171.862 198.373 166.34 197.345 162.185 195.704C160.631 195.259 164.454 190.975 165.142 190.544C170.733 188.128 173.667 192.035 174.921 190.746C175.257 190.473 175.36 189.955 175.747 189.763Z" fill="#D52B1E"/>
<path d="M150.657 113.988C151.667 113.646 152.565 113.344 153.462 113.043C153.581 113.004 153.702 112.952 153.826 112.939C154.92 112.824 156.013 112.715 157.156 112.603C157.205 113.168 157.262 113.696 157.296 114.226C157.345 115.015 157.377 115.803 157.422 116.592C157.46 117.241 157.264 117.838 157.051 118.437C156.918 118.811 156.661 119.085 156.383 119.342C156.023 119.673 155.92 120.048 156.011 120.536C156.167 121.375 156.258 122.225 156.386 123.067C156.472 123.617 156.385 124.131 156.145 124.633C155.841 125.276 155.076 125.141 154.842 124.716C154.662 124.388 154.52 124.03 154.405 123.672C154.214 123.071 154.046 122.462 153.886 121.851C153.662 120.999 153.13 120.331 152.616 119.651C152.557 119.572 152.413 119.558 152.211 119.475C152.239 119.712 152.225 119.868 152.276 119.999C152.816 121.351 153.253 122.733 153.601 124.147C153.787 124.906 154.174 125.497 154.88 125.936C155.696 126.444 156.211 127.27 156.675 128.103C156.802 128.33 156.829 128.571 156.736 128.832C156.553 129.346 156.193 129.514 155.696 129.277C155.499 129.182 155.307 129.064 155.135 128.927C152.899 127.189 151.373 124.947 150.434 122.29C150.155 121.501 150.113 120.683 150.18 119.854C150.299 118.437 150.418 117.019 150.534 115.602C150.576 115.076 150.613 114.544 150.657 113.988Z" fill="#EED3CA"/>
<path d="M202.863 14.113C201.228 15.4871 200.115 17.1221 199.216 18.9351C198.87 18.7532 198.585 18.5199 198.269 18.4606C197.944 18.3993 197.589 18.508 197.217 18.5436C197.118 18.3697 197.007 18.2174 196.936 18.0474C196.434 16.8532 195.898 15.671 195.457 14.4531C194.993 13.17 194.233 12.1043 193.282 11.1613C192.881 10.7619 192.426 10.4179 191.99 10.0541C191.606 9.73582 191.185 9.46298 190.78 9.05769C191.129 8.8066 191.483 8.91138 191.758 8.80858C192.377 9.17433 192.569 9.92364 193.273 10.2004C193.273 10.0205 193.328 9.8406 193.263 9.73582C192.952 9.22574 192.626 8.72159 192.27 8.24314C192.092 8.00391 191.79 7.9446 191.495 7.96239C191.181 7.98216 190.867 8.01577 190.552 8.05532C190.056 8.11858 189.694 7.94065 189.469 7.50174C189.546 7.15971 189.769 7.01736 190.095 6.95607C190.267 7.06085 190.443 7.19727 190.641 7.28228C191.078 7.4701 191.515 7.61245 192.013 7.4622C192.337 7.36334 192.693 7.3673 192.988 7.32973C193.7 7.8497 193.905 8.77497 194.823 9.13479C194.787 8.90941 194.791 8.75717 194.74 8.62471C194.467 7.94262 194.046 7.35148 193.583 6.78802C193.364 6.52111 193.081 6.41435 192.745 6.44401C192.399 6.47564 192.055 6.51914 191.711 6.55868C191.209 6.61799 190.863 6.4104 190.615 5.90032C190.789 5.74018 190.963 5.58003 191.098 5.45943C191.244 5.47525 191.323 5.45943 191.363 5.49304C191.986 5.99324 192.691 6.02092 193.433 5.87857C193.68 5.83112 193.927 5.7896 194.186 5.74215C194.815 6.30364 195.101 7.18145 195.989 7.67572C195.971 7.43847 195.985 7.3238 195.954 7.22495C195.712 6.49146 195.258 5.88648 194.777 5.29731C194.558 5.02843 194.291 4.91574 193.941 4.99482C193.571 5.07786 193.196 5.13717 192.824 5.21032C192.533 5.26766 192.26 5.22614 191.997 5.08774C191.701 4.92958 191.653 4.56778 191.93 4.4017C192.701 3.93512 193.547 3.6781 194.441 3.63263C194.993 3.60495 195.396 3.95884 195.71 4.36216C196.294 5.10949 196.901 5.84694 197.393 6.6516C198.65 8.70181 200.062 10.6433 201.418 12.6243C201.683 13.0098 202.049 13.3262 202.375 13.6682C202.507 13.8007 202.652 13.9193 202.863 14.113Z" fill="#EED3CA"/>
<path d="M183.529 51.2087C183.753 52.6382 183.83 54.0577 184.21 55.4317C184.437 55.4713 184.613 55.5009 184.824 55.5385C184.975 56.0446 185.127 56.5527 185.289 57.1043C181.718 58.9648 176.376 59.5005 172.551 58.1838C172.689 57.0549 172.671 55.4021 173.771 54.8109C177.033 53.5713 180.109 51.9719 183.529 51.2087Z" fill="#EED3CA"/>
<path d="M167.191 59.6942C167.8 58.7828 168.37 57.9109 168.965 57.0588C169.103 56.8611 169.313 56.6851 169.528 56.5704C170.28 56.175 171.092 55.9338 171.974 55.6333C171.954 55.918 171.96 56.1315 171.921 56.3371C171.458 58.7828 170.962 61.2225 170.529 63.674C170.321 64.8523 170.252 66.0524 170.072 67.2367C169.841 68.7472 169.936 70.2616 169.944 71.776C169.947 72.6894 170.052 73.6008 170.106 74.5143C170.117 74.7238 170.108 74.9354 170.108 75.143C169.882 75.1607 169.855 75.0085 169.813 74.9057C168.793 72.3217 167.775 69.7396 166.942 67.0864C166.792 66.606 166.66 66.1177 166.535 65.6293C166.436 65.2458 166.472 64.886 166.733 64.5558C167.124 64.0615 167.5 63.5534 167.875 63.0473C168.138 62.6934 168.423 62.3494 168.641 61.9678C168.961 61.4103 168.85 61.0406 168.31 60.6906C167.919 60.4356 167.5 60.2142 167.191 59.6942Z" fill="#D52B1E"/>
<path d="M155.881 59.3838C156.178 59.6744 156.089 60.0362 156.024 60.3664C155.49 63.0829 154.942 65.7954 154.398 68.5079C153.499 72.8496 152.704 77.2129 152.069 81.6C150.628 88.6503 150.689 96.0722 149.234 103.061C149.64 93.9033 150.316 84.6922 152.075 75.6748C153.086 70.2062 153.797 64.5756 155.881 59.3838Z" fill="#FCA6A6"/>
<path d="M190.573 64.3108C190.537 64.9375 190.502 65.5643 190.466 66.191C190.462 66.2543 190.438 66.3156 190.438 66.3788C190.456 67.6165 190.173 68.8185 190.027 70.0384C189.993 70.3152 190.003 70.6038 189.715 70.7995C189.582 68.7572 189.236 66.7703 188.689 64.8288C188.277 63.3737 187.751 61.9502 187.299 60.5069C186.593 58.2511 185.901 55.9913 185.213 53.7296C185.132 53.4646 185.11 53.1839 185.051 52.8419C185.721 52.7687 186.33 52.5335 186.82 53.1365C187.095 53.6999 187.524 54.1566 187.87 54.6707C188.032 54.9138 188.333 55.1195 188.173 55.4872C188.095 55.6196 188.044 55.7798 187.937 55.8806C187.477 56.3156 187.433 56.7861 187.767 57.3081C187.896 57.4465 188.006 57.6283 188.169 57.7054C189.754 58.4548 189.893 59.9929 190.201 61.4283C190.401 62.3772 190.45 63.35 190.573 64.3108Z" fill="#D52B1E"/>
<path d="M193.418 140.606C193.379 133.121 195.607 125.57 196.303 118.063C196.732 115.108 196.924 112.13 197.246 109.164C197.351 108.53 197.44 108.423 198.159 108.364C197.669 119.204 195.773 130.026 193.418 140.606Z" fill="#6A6969"/>
<path d="M221.738 28.4547C221.491 28.4764 221.317 28.34 221.167 28.172C220.123 27.0174 218.879 26.098 217.62 25.1985C216.979 24.7418 216.343 24.2772 215.698 23.8224C213.096 21.9897 210.489 20.1649 207.966 18.2214C206.918 17.4148 205.807 16.6892 204.765 15.8766C204.283 15.501 203.871 15.5287 203.375 15.7916C202.99 15.9952 202.569 16.1356 202.165 16.3037C202.161 16.2424 202.128 16.1613 202.155 16.1257C202.683 15.414 203.288 14.7892 204.121 14.3721C204.324 14.4848 204.524 14.5737 204.698 14.6963C206.034 15.6453 207.369 16.5943 208.695 17.5532C211.936 19.898 215.172 22.2487 218.413 24.5974C219.411 25.321 220.354 26.104 221.07 27.1241C221.357 27.5354 221.647 27.9446 221.738 28.4547Z" fill="#FCA6A6"/>
<path d="M201.824 103.751C200.572 98.6445 198.785 93.5496 199.155 88.2234C199.946 91.2859 200.527 94.4116 201.436 97.4523C201.826 99.4847 202.882 101.446 202.888 103.51C202.557 103.637 202.2 103.729 201.824 103.751Z" fill="#FCA6A6"/>
<path d="M159.322 90.3545C159.891 95.4731 159.047 100.679 158.517 105.78C157.477 105.762 157.335 105.447 157.499 104.579C158.242 99.8523 158.905 95.1113 159.322 90.3545Z" fill="#FCA6A6"/>
<path d="M199.087 70.1767C198.982 69.722 198.855 69.2732 198.776 68.8125C198.636 67.9782 198.531 67.1399 198.397 66.3036C198.343 65.9636 198.28 65.6216 198.175 65.2953C197.301 62.6006 196.273 59.9632 195.275 57.3139C195.01 56.6101 194.824 55.8766 194.62 55.151C194.547 54.8901 194.642 54.8011 195.028 54.6746C195.166 55.7224 195.623 56.6595 196.058 57.5986C196.416 58.3697 196.833 59.1131 197.204 59.8762C198.025 61.5587 198.582 63.3262 198.79 65.1906C198.926 66.4084 199.025 67.6322 199.112 68.856C199.144 69.2949 199.096 69.7378 199.087 70.1767Z" fill="#FCA6A6"/>
<path d="M179.815 18.342C180.047 18.3776 180.298 18.3954 180.541 18.4567C181.778 18.7671 182.848 19.4255 183.892 20.1293C183.973 20.1847 184.028 20.3488 184.016 20.4516C183.997 20.6236 183.845 20.7284 183.678 20.7066C183.499 20.6829 183.315 20.6216 183.153 20.5386C182.818 20.3646 182.502 20.159 182.174 19.9731C181.436 19.554 180.683 19.1665 179.855 18.951C179.705 18.9114 179.55 18.864 179.414 18.7908C179.345 18.7552 179.268 18.6564 179.27 18.5872C179.272 18.52 179.355 18.4211 179.426 18.3954C179.538 18.3559 179.669 18.3598 179.815 18.342Z" fill="white"/>
<path d="M190.573 64.3109C190.346 63.8917 190.314 63.4153 190.253 62.9665C190.106 61.8791 189.818 60.8293 189.555 59.7715C189.501 59.56 189.418 59.3563 189.339 59.1527C189.189 58.7652 188.978 58.4489 188.568 58.2611C188.171 58.0792 187.805 57.8162 187.766 57.3081C188.434 57.6501 189.1 57.9902 189.78 58.3382C190.342 60.3132 190.664 62.2824 190.573 64.3109Z" fill="#FCA6A6"/>
<path d="M157.686 119.5C157.846 120.954 157.994 122.316 158.15 123.739C157.615 123.631 157.338 123.352 157.267 122.869C157.166 122.183 157.107 121.491 156.968 120.813C156.85 120.23 157.024 119.837 157.686 119.5Z" fill="#EED3CA"/>
<path d="M157.81 128.577C157.527 128.075 157.312 127.624 157.033 127.213C156.756 126.804 156.418 126.436 156.066 125.999C156.258 125.869 156.428 125.752 156.648 125.602C156.907 125.845 157.158 126.072 157.399 126.308C157.646 126.549 157.903 126.782 158.125 127.047C158.569 127.575 158.482 128.02 157.81 128.577Z" fill="#EED3CA"/>
<path d="M185.816 20.0363C185.717 20.0739 185.613 20.1431 185.508 20.1431C185.429 20.1431 185.334 20.0719 185.269 20.0106C184.63 19.3859 183.879 18.9193 183.141 18.431C182.908 18.2767 182.7 18.083 182.493 17.8952C182.461 17.8655 182.463 17.7667 182.485 17.7172C182.507 17.6698 182.578 17.6125 182.623 17.6164C182.777 17.6243 182.946 17.6243 183.08 17.6856C183.857 18.0435 184.586 18.4824 185.243 19.0379C185.537 19.289 185.779 19.5737 185.816 20.0363Z" fill="white"/>
<path d="M182.989 15.5071C183.179 15.5486 183.371 15.5664 183.543 15.6316C184.353 15.9361 185.032 16.4501 185.67 17.0195C185.785 17.1223 185.864 17.2667 185.951 17.3972C186.022 17.5039 186.077 17.6364 185.947 17.7273C185.886 17.7708 185.765 17.7767 185.694 17.7451C185.494 17.6561 185.289 17.5612 185.117 17.4288C184.415 16.891 183.707 16.3612 182.9 15.9855C182.873 15.9717 182.837 15.9519 182.829 15.9262C182.801 15.8432 182.752 15.7443 182.776 15.6751C182.801 15.6059 182.906 15.5684 182.989 15.5071Z" fill="white"/>
<path d="M163.973 22.3139C164.062 22.0332 164.077 21.873 164.155 21.7564C164.647 21.0209 165.216 20.3487 165.916 19.8011C166.108 19.6528 166.353 19.5599 166.586 19.4828C166.669 19.4551 166.794 19.55 166.889 19.5856C166.869 19.7022 166.881 19.7833 166.847 19.8169C166.037 20.6038 165.222 21.3887 164.404 22.1656C164.342 22.2269 164.23 22.2309 163.973 22.3139Z" fill="white"/>
<path d="M168.032 21.5705C167.678 21.9462 167.37 22.2546 167.085 22.5848C166.818 22.8952 166.587 23.2372 166.322 23.5515C166.045 23.8797 165.78 24.2297 165.363 24.5124C165.324 24.3542 165.268 24.2633 165.29 24.2C165.656 23.1541 166.348 22.3436 167.164 21.6279C167.384 21.4341 167.649 21.3135 168.032 21.5705Z" fill="white"/>
<path d="M157.008 125.054C157.111 124.75 157.206 124.471 157.324 124.123C158.044 124.678 158.562 125.248 158.469 126.218C157.874 125.942 157.484 125.467 157.008 125.054Z" fill="#EED3CA"/>
<path d="M188.17 55.4872C187.862 55.0661 187.561 54.6371 187.239 54.2259C186.984 53.9016 186.776 53.5695 186.818 53.1345C187.549 53.6426 188.044 54.3741 188.722 55.0404C188.49 55.2282 188.33 55.3567 188.17 55.4872Z" fill="#FCA6A6"/>
<path d="M195.742 33.2788C194.938 32.9644 194.145 32.9822 193.336 33.2709C192.919 33.4192 192.625 33.6485 192.518 34.0973C192.474 34.2792 192.407 34.463 192.316 34.6271C192 35.1985 191.256 35.3072 190.784 34.8466C190.628 34.6944 190.509 34.5006 190.39 34.3167C189.655 33.1918 189.173 31.964 188.916 30.6473C188.862 30.3765 188.777 30.1115 188.704 29.8347C188.459 29.815 188.269 29.813 188.085 29.7833C187.251 29.6449 186.407 29.5322 185.657 29.0933C185.471 28.9174 185.278 28.779 184.928 28.9213C185.124 29.0933 185.28 29.2317 185.438 29.3682C185.651 29.5283 185.863 29.6884 186.092 29.8604C185.499 30.1649 184.865 30.3211 184.269 30.3468C183.158 30.3962 182.053 30.2895 180.966 30.1056C177.393 29.4967 174.206 28.0752 171.604 25.4812C171.502 25.3784 171.377 25.2954 171.203 25.155C170.679 26.3927 170.11 27.5077 169.232 28.437C168.344 29.378 167.263 29.983 166.015 30.2934C165.978 30.6018 165.95 30.8509 165.916 31.0981C165.77 32.1301 165.661 33.174 165.163 34.1151C165.001 34.4195 164.825 34.728 164.6 34.985C164.121 35.5267 163.605 35.4931 163.182 34.9197C163.069 34.7695 163.002 34.5836 162.888 34.4354C162.755 34.2634 162.619 34.0755 162.441 33.9628C160.663 32.828 158.437 33.5793 157.769 35.503C157.083 37.48 158.237 39.7734 160.262 40.3349C161.215 40.5998 162.14 40.4713 162.963 39.8565C163.263 39.6331 163.429 39.3879 163.382 38.9787C163.342 38.6406 163.402 38.2867 163.457 37.9466C163.479 37.8201 163.615 37.7114 163.761 37.5057C163.886 37.8399 163.995 38.0633 164.054 38.2985C164.323 39.3701 164.525 40.4615 164.849 41.5152C166.061 45.4674 168.492 48.3974 172.255 50.1708C174.026 51.0071 175.906 51.3867 177.86 51.3531C179.028 51.3313 180.185 51.2206 181.324 50.9043C186.867 49.3701 190.533 44.552 191.197 39.3405C191.256 38.8739 191.375 38.4132 191.492 37.9545C191.523 37.826 191.563 37.6303 191.79 37.6758C192.176 38.0593 192.069 38.6248 192.275 39.036C194.022 40.329 197.156 39.117 197.579 36.4698C197.791 35.1036 197.027 33.781 195.742 33.2788Z" fill="#EED3CA"/>
<path d="M200.093 46.8671C200.061 46.8414 200.032 46.8177 200 46.792C200.02 46.794 200.047 46.79 200.055 46.7999C200.071 46.8197 200.077 46.8493 200.087 46.8731L200.093 46.8671Z" fill="#212492"/>
<path d="M185.762 39.0796C183.969 39.6134 182.67 39.5462 181.691 38.8898C181.723 38.7494 181.756 38.6031 181.788 38.4548C181.557 38.1978 181.312 37.9527 181.104 37.6778C180.995 37.5355 180.926 37.3457 180.896 37.1678C180.881 37.0709 180.964 36.9305 181.045 36.8534C181.092 36.8079 181.237 36.8198 181.312 36.8574C181.45 36.9266 181.581 37.0195 181.697 37.1243C183.036 38.3145 185.384 38.4074 186.814 37.409C186.968 37.3022 187.13 37.2053 187.338 37.0748C187.781 37.403 188.257 37.6956 188.951 37.6185C188.828 37.834 188.785 37.9922 188.682 38.0752C188.374 38.3204 188.006 38.4015 187.615 38.358C187.433 38.3382 187.253 38.3006 186.932 38.2472C187.079 38.439 187.122 38.5517 187.205 38.5972C187.446 38.7257 187.704 38.8265 188.032 38.9728C187.247 39.5976 186.519 39.4533 185.762 39.0796Z" fill="black"/>
<path d="M170.013 39.5065C168.94 39.9691 168.6 39.9572 167.86 39.4511C167.908 39.1565 168.202 39.2435 168.364 39.1269C168.509 39.0241 168.657 38.9272 168.985 38.7038C168.095 38.7552 167.342 38.9786 166.828 38.1601C167.38 37.9802 168.014 38.0751 168.305 37.4483C168.609 37.6342 168.823 37.7548 169.029 37.8912C170.385 38.7888 172.698 38.7334 173.997 37.6243C174.116 37.5235 174.238 37.4226 174.369 37.3376C174.501 37.2506 174.677 37.1676 174.784 37.3297C174.859 37.4424 174.893 37.6302 174.857 37.7627C174.81 37.9367 174.697 38.1067 174.576 38.2451C174.39 38.4566 174.175 38.6425 173.967 38.8402C174.011 39.0063 174.05 39.1486 174.088 39.291C173.224 39.9711 171.856 40.0462 170.013 39.5065Z" fill="black"/>
<path d="M174.547 44.4235C175.057 44.2554 175.429 44.382 175.79 44.4433C177.489 44.728 179.179 44.6331 180.864 44.3405C181.111 44.297 181.354 44.2238 181.593 44.1447C182.285 43.9174 182.388 43.8264 182.769 43.1562C183.202 43.0989 183.541 43.3084 183.831 43.6089C183.912 43.694 183.962 43.8205 183.995 43.9371C184.074 44.212 183.875 44.4452 183.588 44.3998C183.438 44.376 183.293 44.3009 183.117 44.2377C182.081 44.894 180.935 45.3112 179.703 45.4753C178.448 45.6433 177.192 45.6592 175.951 45.3547C175.522 45.2499 175.097 45.1214 174.768 44.8031C174.689 44.728 174.65 44.6074 174.547 44.4235Z" fill="black"/>
<path d="M167.645 35.1155C167.989 35.0365 168.253 34.9435 168.524 34.9158C170.24 34.7399 171.719 34.0262 173.042 32.9487C173.259 32.7707 173.483 32.5968 173.722 32.4485C173.858 32.3635 174.052 32.3536 174.145 32.5078C174.216 32.6244 174.272 32.8281 174.216 32.9289C174.034 33.2551 173.845 33.5991 173.578 33.8502C172.182 35.157 170.541 35.8391 168.599 35.679C168.25 35.6493 167.902 35.6118 167.645 35.1155Z" fill="black"/>
<path d="M188.335 34.206C188.167 34.4353 188.118 34.5796 188.027 34.6152C187.707 34.7378 187.376 34.8742 187.04 34.9137C185.358 35.1114 183.774 34.7813 182.315 33.9114C182.048 33.7532 181.819 33.5258 181.594 33.3084C181.51 33.2293 181.473 33.0909 181.441 32.9723C181.376 32.739 181.597 32.5057 181.825 32.5867C182.151 32.7034 182.471 32.8358 182.782 32.9901C183.865 33.5318 185.012 33.8679 186.208 34.032C186.675 34.0952 187.151 34.0913 187.622 34.1229C187.803 34.1348 187.987 34.1644 188.335 34.206Z" fill="black"/>
<path d="M162.828 37.3436C162.072 37.2467 161.78 36.6378 161.185 36.4658C160.797 36.877 160.544 37.3752 160.325 37.8972C160.254 38.0672 160.161 38.2333 160.048 38.3776C160.004 38.433 159.868 38.4567 159.793 38.433C159.716 38.4092 159.625 38.3222 159.603 38.2432C159.57 38.1285 159.566 37.9901 159.597 37.8754C159.692 37.5413 159.799 37.2111 159.925 36.8869C160.038 36.5943 160.18 36.3116 160.309 36.0269C160.099 35.7244 159.765 35.7184 159.49 35.5939C159.38 35.5425 159.277 35.4654 159.182 35.3863C159.065 35.2894 159.115 35.0324 159.261 34.9909C159.38 34.9573 159.508 34.9118 159.627 34.9256C160.924 35.0878 161.938 35.7204 162.668 36.8019C162.743 36.9205 162.753 37.0846 162.828 37.3436Z" fill="black"/>
<path d="M194.448 35.0919C194.79 35.7937 195.306 36.3611 195.085 37.1282C194.843 37.2231 194.746 37.0907 194.677 36.9503C194.468 36.5312 194.266 36.1061 193.78 35.8214C193.616 36.0013 193.452 36.1753 193.291 36.3532C193.187 36.4699 193.106 36.6241 192.977 36.6992C192.86 36.7684 192.661 36.8159 192.558 36.7605C192.455 36.7051 192.352 36.4995 192.374 36.3809C192.536 35.4813 194.041 33.8681 195.308 33.9471C195.431 33.955 195.553 33.9847 195.668 34.0282C195.713 34.044 195.755 34.1231 195.759 34.1745C195.765 34.2279 195.739 34.3168 195.697 34.3386C195.45 34.4711 195.187 34.5778 194.944 34.7182C194.786 34.8072 194.65 34.9357 194.448 35.0919Z" fill="black"/>
<path d="M181.371 40.6057C181.223 40.667 181.106 40.7599 181.019 40.7382C180.875 40.7006 180.725 40.6136 180.62 40.5049C179.734 39.5935 179.011 38.5575 178.34 37.4839C178.295 37.4108 178.257 37.2843 178.289 37.219C178.337 37.1241 178.473 36.9857 178.53 37.0035C178.702 37.0569 178.886 37.1439 179.011 37.2724C179.847 38.1403 180.58 39.0913 181.197 40.1253C181.274 40.2558 181.302 40.41 181.371 40.6057Z" fill="black"/>
<path d="M180.472 46.5549C180.48 46.6675 180.494 46.7031 180.482 46.7269C180.268 47.1579 179.851 47.2231 179.444 47.2567C179.072 47.2883 178.677 47.3318 178.366 47.0392C178.307 46.9839 178.285 46.8712 178.281 46.7842C178.279 46.7407 178.352 46.6557 178.396 46.6537C179.05 46.5983 179.707 46.5549 180.363 46.5094C180.393 46.5074 180.422 46.5331 180.472 46.5549Z" fill="black"/>
<path d="M196.814 12.6421C196.915 12.9742 196.996 13.2411 197.077 13.5061C197.397 14.5658 197.923 15.4713 198.937 16.0189C198.965 16.0347 198.991 16.0525 199.016 16.0703C199.37 16.3135 199.501 16.5507 199.368 16.7445C199.19 17.0074 198.918 16.9442 198.684 16.877C198.447 16.8078 198.202 16.7089 198.006 16.5606C196.994 15.7916 196.486 14.7358 196.343 13.4922C196.306 13.1779 196.337 12.8615 196.814 12.6421Z" fill="black"/>
</svg>
