<svg width="300" height="200" viewBox="0 0 300 200" fill="none" xmlns="http://www.w3.org/2000/svg">
<path fill-rule="evenodd" clip-rule="evenodd" d="M162.368 60.6631C183.423 60.6631 200.491 77.7611 200.491 98.8521C200.491 119.943 183.423 137.042 162.368 137.042C141.311 137.042 124.242 119.943 124.242 98.8521C124.242 77.7611 141.311 60.6631 162.368 60.6631Z" fill="#EDF5FD"/>
<path fill-rule="evenodd" clip-rule="evenodd" d="M81.3374 47.7598C70.949 40.4758 48.9204 35.3768 35.3115 29.0298L35 41.6198C51.4132 49.4248 71.9883 55.1479 82.169 63.2649" fill="white"/>
<path fill-rule="evenodd" clip-rule="evenodd" d="M244.016 174.607C244.536 172.734 247.444 173.046 248.899 171.694C249.523 171.069 249.833 170.34 250.041 169.508C251.288 165.45 251.911 161.288 251.808 157.021C251.703 155.356 251.808 153.691 252.223 152.13C252.742 150.881 253.47 149.737 254.301 148.697C257.52 144.222 259.91 139.332 261.365 134.024C262.819 128.301 264.897 124.659 262.715 118.624C260.429 112.068 259.806 111.339 253.263 110.715C247.341 110.091 241.419 109.155 235.914 106.657C233.421 105.512 231.135 104.16 228.642 103.12C227.188 102.495 225.629 102.183 224.071 101.974C222.409 101.766 220.851 101.038 219.085 100.934C216.592 100.622 213.995 101.35 212.125 103.015C209.735 104.992 208.073 106.865 207.346 109.987C206.931 112.068 206.826 114.149 206.931 116.23C206.931 118 207.554 119.768 207.346 121.538C206.931 125.595 203.813 130.59 199.763 131.839C195.192 133.296 192.284 126.324 187.505 130.487C185.428 132.568 184.492 135.481 185.012 138.395C185.53 141.308 186.675 144.014 188.44 146.303C193.322 153.275 200.489 158.894 206.619 163.889C207.866 164.929 209.528 165.554 210.774 166.594C212.021 167.635 213.267 168.884 214.306 170.132" fill="#EED3CA"/>
<path fill-rule="evenodd" clip-rule="evenodd" d="M196.23 126.323L196.853 98.3323L196.23 126.323L215.448 139.642L216.695 114.461L196.853 98.3323L196.23 126.323Z" fill="#CCCCCC"/>
<path d="M196.23 126.323L196.853 98.3323L196.23 126.323ZM196.23 126.323L215.448 139.642L216.695 114.461L196.853 98.3323L196.23 126.323Z" stroke="black" stroke-width="1.561" stroke-linecap="round" stroke-linejoin="round"/>
<path fill-rule="evenodd" clip-rule="evenodd" d="M211.919 141.516L215.763 139.852L196.233 126.324L177.742 129.03L184.39 133.4L201.116 135.273L211.919 141.516Z" fill="#6A6969"/>
<path fill-rule="evenodd" clip-rule="evenodd" d="M211.919 141.516L215.763 139.852L196.233 126.324L177.742 129.03L184.39 133.4L201.116 135.273L211.919 141.516Z" stroke="black" stroke-width="1.561" stroke-linecap="round" stroke-linejoin="round"/>
<path d="M208.695 107.489C209.215 106.448 209.942 105.408 210.565 104.367C211.812 102.494 215.657 99.3734 219.604 100.413C225.731 102.494 231.758 105.095 237.47 108.113C242.042 110.61 251.287 115.605 256.066 117.583C258.247 118.415 264.999 120.184 264.999 120.184" stroke="black" stroke-width="1.561" stroke-linecap="round" stroke-linejoin="round"/>
<path fill-rule="evenodd" clip-rule="evenodd" d="M113.852 60.4552C116.761 60.9752 120.605 62.2242 122.059 58.7902C124.344 53.1712 115.307 47.7602 111.047 45.2622" fill="#EED3CA"/>
<path d="M113.852 60.4552C116.761 60.9752 120.605 62.2242 122.059 58.7902C124.344 53.1712 115.307 47.7602 111.047 45.2622" stroke="black" stroke-width="1.561" stroke-linecap="round" stroke-linejoin="round"/>
<path d="M116.97 74.8151C116.242 74.2941 126.631 79.4981 125.385 78.8731" stroke="black" stroke-width="1.561" stroke-linecap="round" stroke-linejoin="round"/>
<path fill-rule="evenodd" clip-rule="evenodd" d="M116.865 167.843C112.501 165.138 106.892 159.519 101.49 159.519C100.971 159.519 100.556 159.519 100.037 159.414C99.5165 159.31 99.1012 159.102 98.6859 158.79C96.5036 157.437 94.4261 155.876 92.5563 154.108C89.8559 151.506 86.843 150.362 83.4148 149.008C79.9866 147.656 76.3508 146.095 73.858 143.181C72.2997 141.1 71.0528 138.811 70.2222 136.417L65.5471 124.867C61.5998 115.293 57.6525 105.408 57.4449 95.002C57.1334 85.533 60.0415 76.168 62.7429 67.115L69.3906 45.471C70.4299 42.141 71.9882 38.291 75.4154 37.562C77.0786 37.25 78.7408 37.666 80.4029 37.562C83.8301 37.25 82.7919 34.545 84.4541 32.984C85.4923 31.943 87.9861 31.319 89.232 30.695C90.4788 30.07 97.3352 25.7 98.4783 26.324C109.801 31.527 113.125 54.42 113.541 62.744C113.645 64.721 115.099 68.364 115.618 70.237C116.657 73.775 118.527 81.059 120.189 84.492C121.435 86.781 122.994 88.967 124.76 90.945C128.499 94.794 132.031 98.645 133.278 103.951C134.837 110.715 137.122 116.439 137.122 123.618C137.122 139.019 132.135 153.275 124.033 166.282C123.201 167.531 122.267 168.884 120.812 169.196C119.358 169.3 117.904 168.78 116.865 167.843Z" fill="#EED3CA"/>
<path fill-rule="evenodd" clip-rule="evenodd" d="M144.604 105.824L141.279 108.738C140.759 109.154 140.759 109.883 141.175 110.402C141.591 110.923 142.317 110.923 142.837 110.507L146.162 107.593C146.681 107.177 146.681 106.448 146.37 106.032L146.265 105.928C145.849 105.408 145.123 105.303 144.604 105.824Z" fill="#D52B1E"/>
<path fill-rule="evenodd" clip-rule="evenodd" d="M155.612 112.172C154.989 111.964 154.366 112.276 154.054 112.901L152.599 117.063C152.391 117.687 152.704 118.312 153.327 118.623C153.951 118.831 154.574 118.52 154.885 117.895L156.236 113.733C156.547 113.212 156.34 112.588 155.923 112.276C155.821 112.276 155.716 112.172 155.612 112.172Z" fill="#D52B1E"/>
<path fill-rule="evenodd" clip-rule="evenodd" d="M165.899 114.461L166.73 118.831C166.834 119.456 167.458 119.872 168.081 119.768C168.704 119.664 169.015 119.144 169.015 118.52V118.415L168.185 114.045C168.081 113.42 167.458 113.004 166.73 113.108C166.107 113.212 165.795 113.837 165.899 114.461Z" fill="#D52B1E"/>
<path fill-rule="evenodd" clip-rule="evenodd" d="M183.247 91.256L187.402 89.903C188.026 89.695 188.338 88.967 188.13 88.343C187.922 87.718 187.195 87.406 186.572 87.614L182.417 88.967C181.793 89.175 181.481 89.903 181.689 90.527C181.897 91.152 182.52 91.568 183.247 91.256Z" fill="#D52B1E"/>
<path fill-rule="evenodd" clip-rule="evenodd" d="M175.56 81.0588C176.08 81.4748 176.807 81.4748 177.222 80.9548L180.131 77.6248C180.547 77.1038 180.547 76.3758 180.027 75.9598C179.507 75.5438 178.781 75.5438 178.365 76.0638L175.456 79.3938C175.04 79.9138 175.145 80.6418 175.56 81.0588Z" fill="#D52B1E"/>
<path fill-rule="evenodd" clip-rule="evenodd" d="M166.937 75.023L167.872 70.757C167.976 70.132 167.457 69.508 166.833 69.404C166.209 69.3 165.69 69.716 165.482 70.236L164.547 74.607C164.444 75.231 164.859 75.856 165.482 76.064C166.106 76.272 166.729 75.856 166.937 75.023C166.937 75.127 166.937 75.127 166.937 75.023Z" fill="#D52B1E"/>
<path fill-rule="evenodd" clip-rule="evenodd" d="M134.317 70.3405C134.525 66.8025 131.408 64.8255 128.189 66.3865C127.565 66.6985 120.813 70.2365 119.462 71.3815C118.631 72.1095 118.008 73.0465 117.593 74.0865C117.281 75.1275 117.177 76.1675 117.281 77.2085C117.385 78.2495 117.904 79.2895 118.736 79.9135C119.774 80.5385 121.021 80.7465 122.163 80.3305C122.579 80.1225 124.033 79.3935 124.136 79.2895" fill="white"/>
<path d="M134.317 70.3405C134.525 66.8025 131.408 64.8255 128.189 66.3865C127.565 66.6985 120.813 70.2365 119.462 71.3815C118.631 72.1095 118.008 73.0465 117.593 74.0865C117.281 75.1275 117.177 76.1675 117.281 77.2085C117.385 78.2495 117.904 79.2895 118.736 79.9135C119.774 80.5385 121.021 80.7465 122.163 80.3305C122.579 80.1225 124.033 79.3935 124.136 79.2895" stroke="black" stroke-width="1.561" stroke-linecap="round" stroke-linejoin="round"/>
<path fill-rule="evenodd" clip-rule="evenodd" d="M137.85 72.0055C137.954 70.5485 137.435 69.0915 136.396 68.0515C136.188 67.9475 136.084 67.7385 135.877 67.6345H135.773L135.565 67.5305L135.773 67.6345C134.734 67.4265 133.591 67.5305 132.656 68.0515C132.033 68.3635 123.93 71.4845 122.477 72.6305C121.541 73.2545 120.814 74.1905 120.398 75.2315C119.983 76.2715 119.879 77.3125 119.983 78.4575C119.983 79.4975 120.502 80.5385 121.333 81.1625C122.372 81.8905 123.722 82.0995 124.865 81.6825C125.281 81.4745 126.839 80.8505 126.943 80.7465" fill="white"/>
<path d="M137.85 72.0055C137.954 70.5485 137.435 69.0915 136.396 68.0515C136.188 67.9475 136.084 67.7385 135.877 67.6345H135.773L135.565 67.5305L135.773 67.6345C134.734 67.4265 133.591 67.5305 132.656 68.0515C132.033 68.3635 123.93 71.4845 122.477 72.6305C121.541 73.2545 120.814 74.1905 120.398 75.2315C119.983 76.2715 119.879 77.3125 119.983 78.4575C119.983 79.4975 120.502 80.5385 121.333 81.1625C122.372 81.8905 123.722 82.0995 124.865 81.6825C125.281 81.4745 126.839 80.8505 126.943 80.7465" stroke="black" stroke-width="1.561" stroke-linecap="round" stroke-linejoin="round"/>
<path d="M121.229 170.86C127.774 161.599 132.656 151.298 135.461 140.267C139.72 122.786 137.539 103.951 124.761 90.8395C122.995 88.8625 121.437 86.6775 120.19 84.3885C116.243 78.1445 116.139 75.0235 115.101 71.3815C114.581 69.5075 113.646 64.5135 113.542 62.6405C113.022 54.3155 109.803 31.4235 98.375 26.2195" stroke="black" stroke-width="1.561" stroke-linecap="round" stroke-linejoin="round"/>
<path d="M66.273 54.4197C66.273 54.4197 56.7152 85.6367 57.2353 94.3777C57.7544 103.12 69.5974 134.857 69.5974 134.857" stroke="black" stroke-width="1.561" stroke-linecap="round" stroke-linejoin="round"/>
<path d="M35.5 42.1067C37.5 37.3067 36.3333 31.44 35.5 29.1067L74.5 44.1067L81.5 46.6067V52.6067L82.5 60.1067L35.5 42.1067Z" fill="#D52B1E"/>
<path d="M82.169 60.2467C59.4186 51.0897 44.454 46.0947 35 41.6207" stroke="black" stroke-width="1.561" stroke-linecap="round" stroke-linejoin="round"/>
<path fill-rule="evenodd" clip-rule="evenodd" d="M117.383 77.5206V77.2086C117.279 76.1676 117.383 75.1266 117.695 74.0866C118.111 73.0456 118.734 72.1096 119.565 71.3806C120.915 70.2366 128.602 66.8026 129.226 66.4906C129.434 66.3866 129.538 66.2826 129.745 66.1786L129.122 66.2826L114.267 60.5596C114.267 60.5596 111.566 63.4726 117.383 77.5206Z" fill="#D52B1E"/>
<path d="M216 139.107L214 141.607L234.5 155.607L237.5 151.107L242 149.107L232 136.107L217.5 116.607L216 139.107Z" fill="#D52B1E"/>
<path fill-rule="evenodd" clip-rule="evenodd" d="M117.383 77.5206V77.2086C117.279 76.1676 117.383 75.1266 117.695 74.0866C118.111 73.0456 118.734 72.1096 119.565 71.3806C120.915 70.2366 128.602 66.8026 129.226 66.4906C129.434 66.3866 129.538 66.2826 129.745 66.1786L129.122 66.2826L114.267 60.5596C114.267 60.5596 111.566 63.4726 117.383 77.5206Z" stroke="black" stroke-width="1.561" stroke-linecap="round" stroke-linejoin="round"/>
<path d="M216.695 114.461C219.188 118.936 220.123 119.664 223.24 123.722C229.681 132.15 234.252 141.1 241.731 148.8C245.159 152.338 246.717 153.171 251.6 152.026" stroke="black" stroke-width="1.561" stroke-linecap="round" stroke-linejoin="round"/>
<path d="M241.731 148.8C240.691 149.529 236.433 151.194 233.836 155.356" stroke="black" stroke-width="1.561" stroke-linecap="round" stroke-linejoin="round"/>
<path d="M81.7514 46.6153C59.001 37.4583 44.867 32.8793 35.4141 28.4053" stroke="black" stroke-width="1.561" stroke-linecap="round" stroke-linejoin="round"/>
<path d="M69.5977 41.1001C70.4292 39.6431 71.5713 38.3941 73.0258 37.4581C76.1426 35.4811 78.9468 37.2501 81.9597 38.8111" stroke="black" stroke-width="1.561" stroke-linecap="round" stroke-linejoin="round"/>
<path d="M196.855 98.3323L216.593 114.565M215.761 139.852L234.876 154.315" stroke="black" stroke-width="1.561" stroke-linecap="round" stroke-linejoin="round"/>
<path d="M196.855 132.15C205.582 138.915 213.789 141.724 222.929 148.071C228.955 152.234 236.331 157.02 241.317 162.328C242.668 163.784 248.381 170.444 248.381 170.444" stroke="black" stroke-width="1.561" stroke-linecap="round" stroke-linejoin="round"/>
<path fill-rule="evenodd" clip-rule="evenodd" d="M192.493 129.861C195.713 130.59 198.206 133.296 200.387 135.377C201.53 136.521 203.504 138.81 201.946 141.515C201.946 141.515 196.855 150.048 193.116 147.447C191.35 146.198 187.714 143.805 186.052 142.348C183.039 139.851 182.52 135.272 185.116 132.255C186.883 130.069 189.791 129.132 192.493 129.861Z" fill="white"/>
<path fill-rule="evenodd" clip-rule="evenodd" d="M192.493 129.861C195.713 130.59 198.206 133.296 200.387 135.377C201.53 136.521 203.504 138.81 201.946 141.515C201.946 141.515 196.855 150.048 193.116 147.447C191.35 146.198 187.714 143.805 186.052 142.348C183.039 139.851 182.52 135.272 185.116 132.255C186.883 130.069 189.791 129.132 192.493 129.861Z" stroke="black" stroke-width="1.561" stroke-linecap="round" stroke-linejoin="round"/>
<path d="M183.66 137.979C184.076 141.413 186.258 144.326 188.439 147.032C190.414 149.217 192.386 151.194 194.569 153.171C197.684 156.397 201.009 159.415 204.541 162.224" stroke="black" stroke-width="1.561" stroke-linecap="round" stroke-linejoin="round"/>
<path fill-rule="evenodd" clip-rule="evenodd" d="M140.032 73.6706C140.136 72.3176 139.617 70.9646 138.682 69.9246C138.474 69.8206 138.37 69.6116 138.162 69.5076H138.059L137.955 69.4036L138.059 69.5076C137.019 69.2996 135.981 69.4036 135.046 69.8206C134.423 70.0286 126.321 73.4626 124.866 74.3986C123.1 75.5436 122.165 77.6246 122.372 79.7056C122.372 80.7466 122.892 81.1626 123.723 81.6826C124.762 82.3076 126.112 82.6196 127.359 82.3076C127.774 82.2036 129.229 81.4746 129.436 81.4746" fill="white"/>
<path d="M140.032 73.6706C140.136 72.3176 139.617 70.9646 138.682 69.9246C138.474 69.8206 138.37 69.6116 138.162 69.5076H138.059L137.955 69.4036L138.059 69.5076C137.019 69.2996 135.981 69.4036 135.046 69.8206C134.423 70.0286 126.321 73.4626 124.866 74.3986C123.1 75.5436 122.165 77.6246 122.372 79.7056C122.372 80.7466 122.892 81.1626 123.723 81.6826C124.762 82.3076 126.112 82.6196 127.359 82.3076C127.774 82.2036 129.229 81.4746 129.436 81.4746" stroke="black" stroke-width="1.561" stroke-linecap="round" stroke-linejoin="round"/>
<path fill-rule="evenodd" clip-rule="evenodd" d="M125.488 78.7691C124.864 80.1221 124.656 81.6831 124.76 83.1401C124.76 85.1161 125.903 86.8861 127.669 87.7181L150.627 98.9561C151.458 99.2691 152.289 99.4771 153.225 99.4771C153.64 99.4771 154.159 99.4771 154.574 99.3731C155.094 99.1641 157.275 98.3321 157.691 98.1241L161.95 100.31C162.366 100.518 162.781 100.621 163.3 100.621C163.82 100.621 164.339 100.518 164.859 100.205C164.963 100.205 172.961 96.9791 174.936 96.0431C175.143 95.9381 175.455 95.7301 175.663 95.6271C176.39 95.1061 176.806 94.1701 176.806 93.2331C176.806 91.9841 176.078 90.9441 175.039 90.4241L170.157 87.9261C170.365 86.4701 170.053 85.1161 169.221 83.8681C168.391 82.8271 167.249 81.9951 166.002 81.4751L158.626 77.5201L150.108 73.0461C148.55 72.2131 147.095 71.3811 145.537 70.6521C143.563 69.7161 142.005 69.5081 140.758 70.0281L139.096 70.6521L138.057 71.0691C134.837 72.2131 129.85 74.1901 128.397 75.2311C127.357 75.9591 126.527 76.8961 125.903 77.9361L125.488 78.7691Z" fill="#CCCCCC"/>
<path fill-rule="evenodd" clip-rule="evenodd" d="M125.488 78.7691C124.864 80.1221 124.656 81.6831 124.76 83.1401C124.76 85.1161 125.903 86.8861 127.669 87.7181L150.627 98.9561C151.458 99.2691 152.289 99.4771 153.225 99.4771C153.64 99.4771 154.159 99.4771 154.574 99.3731C155.094 99.1641 157.275 98.3321 157.691 98.1241L161.95 100.31C162.366 100.518 162.781 100.621 163.3 100.621C163.82 100.621 164.339 100.518 164.859 100.205C164.963 100.205 172.961 96.9791 174.936 96.0431C175.143 95.9381 175.455 95.7301 175.663 95.6271C176.39 95.1061 176.806 94.1701 176.806 93.2331C176.806 91.9841 176.078 90.9441 175.039 90.4241L170.157 87.9261C170.365 86.4701 170.053 85.1161 169.221 83.8681C168.391 82.8271 167.249 81.9951 166.002 81.4751L158.626 77.5201L150.108 73.0461C148.55 72.2131 147.095 71.3811 145.537 70.6521C143.563 69.7161 142.005 69.5081 140.758 70.0281L139.096 70.6521L138.057 71.0691C134.837 72.2131 129.85 74.1901 128.397 75.2311C127.357 75.9591 126.527 76.8961 125.903 77.9361L125.488 78.7691Z" stroke="black" stroke-width="1.561" stroke-linecap="round" stroke-linejoin="round"/>
<path fill-rule="evenodd" clip-rule="evenodd" d="M153.226 89.0714C152.81 89.6954 152.498 90.3194 152.187 90.9444C151.667 91.8814 151.251 92.9214 151.356 93.8574C151.459 94.8984 152.187 95.7304 153.018 96.2514C153.849 96.7714 154.888 97.0834 155.824 97.3954C158.109 98.0194 159.874 99.2684 161.951 100.309C162.367 100.517 162.783 100.621 163.303 100.621C163.821 100.621 164.341 100.517 164.86 100.205C164.964 100.205 172.963 96.9794 174.937 96.0434C175.145 95.9384 175.457 95.7304 175.665 95.6274C176.392 95.1064 176.807 94.1704 176.807 93.2334C176.807 91.9844 176.08 90.9444 175.041 90.4244C170.885 88.4464 166.522 85.5334 161.744 85.2204C158.835 85.0124 155.615 86.0524 153.745 88.2384C153.641 88.5504 153.434 88.7594 153.226 89.0714Z" fill="#CCCCCC"/>
<path fill-rule="evenodd" clip-rule="evenodd" d="M153.226 89.0714C152.81 89.6954 152.498 90.3194 152.187 90.9444C151.667 91.8814 151.251 92.9214 151.356 93.8574C151.459 94.8984 152.187 95.7304 153.018 96.2514C153.849 96.7714 154.888 97.0834 155.824 97.3954C158.109 98.0194 159.874 99.2684 161.951 100.309C162.367 100.517 162.783 100.621 163.303 100.621C163.821 100.621 164.341 100.517 164.86 100.205C164.964 100.205 172.963 96.9794 174.937 96.0434C175.145 95.9384 175.457 95.7304 175.665 95.6274C176.392 95.1064 176.807 94.1704 176.807 93.2334C176.807 91.9844 176.08 90.9444 175.041 90.4244C170.885 88.4464 166.522 85.5334 161.744 85.2204C158.835 85.0124 155.615 86.0524 153.745 88.2384C153.641 88.5504 153.434 88.7594 153.226 89.0714Z" stroke="black" stroke-width="1.561" stroke-linecap="round" stroke-linejoin="round"/>
<path fill-rule="evenodd" clip-rule="evenodd" d="M170.155 87.9258C170.362 86.1568 169.843 84.4918 168.7 83.1398L167.765 82.7228C166.519 82.4108 165.272 82.5148 164.13 83.0358C163.402 83.3478 153.741 86.6778 151.872 87.9258C150.729 88.6548 149.898 89.6958 149.275 90.8398C148.755 91.9848 148.443 93.3368 148.547 94.5858C148.547 95.8348 149.066 97.0828 150.002 97.9158C151.456 98.8528 153.222 99.3728 154.988 99.2688C155.611 99.0608 157.481 98.2278 157.69 98.1238L152.911 95.7308C152.08 95.3148 151.56 94.4818 151.56 93.5448C151.56 91.8808 152.598 90.5278 154.158 90.0078C154.468 89.7988 163.402 86.3648 164.025 86.1568C164.441 86.0528 164.753 86.0528 165.169 86.0528C165.687 86.0528 166.311 86.1568 166.83 86.3648L170.155 87.9258Z" fill="#212492"/>
<path fill-rule="evenodd" clip-rule="evenodd" d="M170.155 87.9258C170.362 86.1568 169.843 84.4918 168.7 83.1398L167.765 82.7228C166.519 82.4108 165.272 82.5148 164.13 83.0358C163.402 83.3478 153.741 86.6778 151.872 87.9258C150.729 88.6548 149.898 89.6958 149.275 90.8398C148.755 91.9848 148.443 93.3368 148.547 94.5858C148.547 95.8348 149.066 97.0828 150.002 97.9158C151.456 98.8528 153.222 99.3728 154.988 99.2688C155.611 99.0608 157.481 98.2278 157.69 98.1238L152.911 95.7308C152.08 95.3148 151.56 94.4818 151.56 93.5448C151.56 91.8808 152.598 90.5278 154.158 90.0078C154.468 89.7988 163.402 86.3648 164.025 86.1568C164.441 86.0528 164.753 86.0528 165.169 86.0528C165.687 86.0528 166.311 86.1568 166.83 86.3648L170.155 87.9258Z" fill="#6A6969" stroke="black" stroke-width="1.561" stroke-linecap="round" stroke-linejoin="round"/>
<path d="M165.481 94.17L156.34 89.591L162.157 87.094L172.026 91.984" stroke="black" stroke-width="1.041" stroke-linecap="round" stroke-linejoin="round"/>
<path fill-rule="evenodd" clip-rule="evenodd" d="M152.496 90.0078L163.404 95.7308L166.105 94.4818L154.989 88.2378L152.496 90.0078Z" stroke="black" stroke-width="1.041" stroke-linecap="round" stroke-linejoin="round"/>
<path fill-rule="evenodd" clip-rule="evenodd" d="M166.313 94.4815L156.34 89.5905L159.041 88.3425L169.221 93.2335L166.313 94.4815Z" stroke="black" stroke-width="1.041" stroke-linecap="round" stroke-linejoin="round"/>
<path fill-rule="evenodd" clip-rule="evenodd" d="M158.938 93.2335L153.848 90.6315L162.159 87.0935L167.457 89.7985L158.938 93.2335Z" fill="white"/>
<path fill-rule="evenodd" clip-rule="evenodd" d="M158.938 93.2335L153.848 90.6315L162.159 87.0935L167.457 89.7985L158.938 93.2335Z" stroke="black" stroke-width="1.561" stroke-linecap="round" stroke-linejoin="round"/>
<path fill-rule="evenodd" clip-rule="evenodd" d="M158.938 90.216L142.109 80.954L150.938 77.521L167.456 86.678L158.938 90.216Z" fill="#CCCCCC"/>
<path fill-rule="evenodd" clip-rule="evenodd" d="M158.938 90.216L142.109 80.954L150.938 77.521L167.456 86.678L158.938 90.216Z" stroke="black" stroke-width="1.561" stroke-linecap="round" stroke-linejoin="round"/>
<path fill-rule="evenodd" clip-rule="evenodd" d="M177.742 129.029L196.233 126.219L196.856 98.3323L178.885 101.454L177.742 129.029Z" fill="white"/>
<path fill-rule="evenodd" clip-rule="evenodd" d="M177.742 129.029L196.233 126.219L196.856 98.3323L178.885 101.454L177.742 129.029Z" stroke="black" stroke-width="1.561" stroke-linecap="round" stroke-linejoin="round"/>
<path fill-rule="evenodd" clip-rule="evenodd" d="M167.456 86.678V89.799L158.938 93.234V90.216L167.456 86.678Z" fill="#212492"/>
<path fill-rule="evenodd" clip-rule="evenodd" d="M167.456 86.678V89.799L158.938 93.234V90.216L167.456 86.678Z" fill="#6A6969" stroke="black" stroke-width="1.041"/>
<path d="M236.848 107.802L259.287 110.923" stroke="black" stroke-width="1.561" stroke-linecap="round" stroke-linejoin="round"/>
<path fill-rule="evenodd" clip-rule="evenodd" d="M142.004 83.8683L142.108 80.9543L153.432 87.1983L156.651 89.0713L158.936 90.2163V93.2333L142.004 83.8683Z" fill="#B2B2B2"/>
<path fill-rule="evenodd" clip-rule="evenodd" d="M142.004 83.8683L142.108 80.9543L153.432 87.1983L156.651 89.0713L158.936 90.2163V93.2333L142.004 83.8683Z" stroke="black" stroke-width="1.561" stroke-linecap="round" stroke-linejoin="round"/>
<path fill-rule="evenodd" clip-rule="evenodd" d="M193.218 107.073L189.789 107.593V102.806L182.934 104.055L182.207 123.618L189.374 122.265L189.479 116.854L192.907 116.334L193.218 107.073Z" fill="#404040"/>
<path d="M187.296 107.593L182.934 108.322" stroke="white" stroke-width="1.041" stroke-linecap="round" stroke-linejoin="round"/>
<path d="M187.296 111.339L182.934 112.172" stroke="white" stroke-width="1.041" stroke-linecap="round" stroke-linejoin="round"/>
<path d="M187.296 115.19L182.934 115.919" stroke="white" stroke-width="1.041" stroke-linecap="round" stroke-linejoin="round"/>
<path d="M187.296 119.039L182.934 119.768" stroke="white" stroke-width="1.041" stroke-linecap="round" stroke-linejoin="round"/>
<path fill-rule="evenodd" clip-rule="evenodd" d="M125.488 78.7691C124.864 80.1221 124.656 81.6831 124.76 83.1401C124.76 85.1161 125.903 86.8861 127.669 87.7181L150.627 98.9561C151.458 99.2691 152.289 99.4771 153.225 99.4771C153.64 99.4771 154.159 99.4771 154.574 99.3731C155.094 99.1641 157.275 98.3321 157.691 98.1241L161.95 100.31C162.366 100.518 162.781 100.621 163.3 100.621C163.82 100.621 164.339 100.518 164.859 100.205C164.963 100.205 172.961 96.9791 174.936 96.0431C175.143 95.9381 175.455 95.7301 175.663 95.6271C176.39 95.1061 176.806 94.1701 176.806 93.2331C176.806 91.9841 176.078 90.9441 175.039 90.4241L170.157 87.9261C170.365 86.4701 170.053 85.1161 169.221 83.8681C168.391 82.8271 167.249 81.9951 166.002 81.4751L158.626 77.5201L150.108 73.0461C148.55 72.2131 147.095 71.3811 145.537 70.6521C143.563 69.7161 142.005 69.5081 140.758 70.0281L139.096 70.6521L138.057 71.0691C134.837 72.2131 129.85 74.1901 128.397 75.2311C127.357 75.9591 126.527 76.8961 125.903 77.9361L125.488 78.7691Z" stroke="black" stroke-width="1.561" stroke-linecap="round" stroke-linejoin="round"/>
<path fill-rule="evenodd" clip-rule="evenodd" d="M84.144 36.0011L85.1833 43.0771C85.3909 44.4301 86.6368 45.3661 87.9875 45.1581H88.0913L102.116 42.3491C103.361 42.1411 104.297 40.8921 104.089 39.6431L103.465 34.3361C103.258 32.2551 102.427 30.2781 101.18 28.6131C100.972 28.3011 100.765 27.9891 100.453 27.7811C98.1682 25.5951 95.0515 24.5551 91.9348 25.1791C87.8837 25.7001 84.6631 28.9251 84.144 32.9831C83.9364 34.0241 83.9364 35.0641 84.144 36.0011Z" fill="white"/>
<path fill-rule="evenodd" clip-rule="evenodd" d="M84.144 36.0011L85.1833 43.0771C85.3909 44.4301 86.6368 45.3661 87.9875 45.1581H88.0913L102.116 42.3491C103.361 42.1411 104.297 40.8921 104.089 39.6431L103.465 34.3361C103.258 32.2551 102.427 30.2781 101.18 28.6131C100.972 28.3011 100.765 27.9891 100.453 27.7811C98.1682 25.5951 95.0515 24.5551 91.9348 25.1791C87.8837 25.7001 84.6631 28.9251 84.144 32.9831C83.9364 34.0241 83.9364 35.0641 84.144 36.0011Z" stroke="black" stroke-width="1.561" stroke-linecap="round" stroke-linejoin="round"/>
<path d="M84.1444 32.9834C81.3392 41.7244 80.82 50.9854 82.5861 59.9344C83.4166 63.6804 83.4166 67.4264 84.5597 71.0684C85.5989 74.5034 87.2611 77.9364 88.507 81.2664C89.6501 84.2844 96.4026 102.598 97.337 105.616" stroke="black" stroke-width="1.561" stroke-linecap="round" stroke-linejoin="round"/>
<path fill-rule="evenodd" clip-rule="evenodd" d="M175.661 95.418C175.454 95.522 175.245 95.73 175.037 95.835C173.064 96.772 164.858 99.997 164.753 100.101C164.026 100.518 163.091 100.518 162.365 100.205C161.845 99.789 161.533 99.164 161.533 98.54C161.429 97.396 162.156 96.251 163.299 95.939C164.65 95.314 172.856 92.089 173.375 91.881C174.31 91.36 175.454 91.672 176.077 92.4C176.492 93.129 176.597 93.962 176.284 94.69C176.18 95.002 175.973 95.314 175.661 95.418Z" fill="#6A6969"/>
<path fill-rule="evenodd" clip-rule="evenodd" d="M175.661 95.418C175.454 95.522 175.245 95.73 175.037 95.835C173.064 96.772 164.858 99.997 164.753 100.101C164.026 100.518 163.091 100.518 162.365 100.205C161.845 99.789 161.533 99.164 161.533 98.54C161.429 97.396 162.156 96.251 163.299 95.939C164.65 95.314 172.856 92.089 173.375 91.881C174.31 91.36 175.454 91.672 176.077 92.4C176.492 93.129 176.597 93.962 176.284 94.69C176.18 95.002 175.973 95.314 175.661 95.418Z" stroke="black" stroke-width="1.041"/>
<path fill-rule="evenodd" clip-rule="evenodd" d="M193.218 107.073L189.789 107.593V102.806L182.934 104.055L182.207 123.618L189.374 122.265L189.479 116.854L192.907 116.334L193.218 107.073Z" stroke="black" stroke-width="1.041"/>
</svg>
