<svg width="300" height="200" viewBox="0 0 300 200" fill="none" xmlns="http://www.w3.org/2000/svg">
<g clip-path="url(#clip0_2435_72277)">
<path fill-rule="evenodd" clip-rule="evenodd" d="M64.3867 13.9121C64.3867 13.9121 79.8067 30.7171 96.6117 29.0551L105.476 15.2051C105.476 15.2051 84.7927 10.3111 76.4827 -0.307861L64.3867 13.9121Z" stroke="#FCA6A6" stroke-width="1.385" stroke-linecap="round" stroke-linejoin="round"/>
<path d="M76.4805 -0.215332L83.8675 18.5287L105.474 15.2047" stroke="#FCA6A6" stroke-width="1.385" stroke-linecap="round" stroke-linejoin="round"/>
<path fill-rule="evenodd" clip-rule="evenodd" d="M240.841 66.4512C240.841 66.4512 234.377 90.2742 223.02 95.8142L242.872 108.741C242.872 108.741 258.016 92.2132 259.585 74.4852L240.841 66.4512Z" stroke="#B2B2B2" stroke-width="1.385" stroke-linecap="round" stroke-linejoin="round"/>
<path d="M223.02 95.8147L247.766 89.8127L240.841 66.4517" stroke="#B2B2B2" stroke-width="1.385" stroke-linecap="round" stroke-linejoin="round"/>
<path fill-rule="evenodd" clip-rule="evenodd" d="M204.184 157.033C204.184 157.033 210.278 178.455 225.329 184.549L241.95 172.822C241.95 172.822 225.052 160.819 224.959 146.507L204.184 157.033Z" stroke="#FCA6A6" stroke-width="1.385" stroke-linecap="round" stroke-linejoin="round"/>
<path d="M224.958 146.414L221.172 168.944L241.948 172.73" stroke="#FCA6A6" stroke-width="1.385" stroke-linecap="round" stroke-linejoin="round"/>
<path fill-rule="evenodd" clip-rule="evenodd" d="M118.862 181.317C118.862 181.317 118.493 191.474 126.064 194.983C133.636 198.492 151.272 199.692 151.272 199.692C151.272 199.692 143.239 193.136 143.978 183.164L118.862 181.317Z" stroke="#B2B2B2" stroke-width="1.385" stroke-linecap="round" stroke-linejoin="round"/>
<path d="M151.273 199.692C151.273 199.692 167.063 193.413 160.323 168.759L134.468 166.82C134.468 166.82 139.639 178.917 131.883 182.333" stroke="#B2B2B2" stroke-width="1.385" stroke-linecap="round" stroke-linejoin="round"/>
<path d="M134.469 166.82L143.98 183.164" stroke="#B2B2B2" stroke-width="1.385" stroke-linecap="round" stroke-linejoin="round"/>
<path fill-rule="evenodd" clip-rule="evenodd" d="M203.535 21.2988C203.535 21.2988 204.366 31.6408 196.702 35.5188C189.038 39.3968 171.125 41.3358 171.125 41.3358C171.125 41.3358 179.066 34.3188 177.958 24.1618L203.535 21.2988Z" stroke="#B2B2B2" stroke-width="1.385" stroke-linecap="round" stroke-linejoin="round"/>
<path d="M171.219 41.3359C171.219 41.3359 154.875 35.5189 160.784 10.1269L187.101 7.1709C187.101 7.1709 182.299 19.7299 190.332 22.8689" stroke="#B2B2B2" stroke-width="1.385" stroke-linecap="round" stroke-linejoin="round"/>
<path d="M160.785 10.1265L184.608 23.5155" stroke="#B2B2B2" stroke-width="1.385" stroke-linecap="round" stroke-linejoin="round"/>
<path fill-rule="evenodd" clip-rule="evenodd" d="M48.4105 156.387C48.4105 156.387 48.2255 146.045 55.9815 142.629C63.7385 139.212 81.8355 138.381 81.8355 138.381C81.8355 138.381 73.4335 144.938 73.9875 155.094L48.4105 156.387Z" stroke="#FCA6A6" stroke-width="1.385" stroke-linecap="round" stroke-linejoin="round"/>
<path d="M81.9298 138.381C81.9298 138.381 97.9038 145.122 90.5168 170.145L64.1088 171.53C64.1088 171.53 69.6488 159.249 61.8008 155.649" stroke="#FCA6A6" stroke-width="1.385" stroke-linecap="round" stroke-linejoin="round"/>
<path d="M90.5154 170.145L67.5234 155.372" stroke="#FCA6A6" stroke-width="1.385" stroke-linecap="round" stroke-linejoin="round"/>
<path fill-rule="evenodd" clip-rule="evenodd" d="M41.4862 77.3472C46.1032 78.6392 63.0922 83.9032 69.1872 92.6752C69.5562 93.2292 70.2022 93.3212 70.7572 92.9512L71.0332 92.6752L82.0222 74.8542C82.2992 74.3922 82.2062 73.7462 81.7442 73.3762C78.3282 70.6062 63.9232 59.5262 48.6882 58.2332C48.2262 58.2332 47.7652 58.5102 47.5802 58.9722L40.7472 75.9622C40.5632 76.5162 40.8402 77.1622 41.4862 77.3472Z" stroke="#B2B2B2" stroke-width="1.385" stroke-linecap="round" stroke-linejoin="round"/>
<path d="M82.5752 74.0229L59.8612 77.7159C59.3992 77.8089 58.9372 77.5319 58.7522 77.1629L47.9492 58.2329" stroke="#B2B2B2" stroke-width="1.385" stroke-linecap="round" stroke-linejoin="round"/>
<path fill-rule="evenodd" clip-rule="evenodd" d="M118.862 54.8169L108.613 60.0799L137.791 77.4399L179.897 102.001L190.33 96.5529L118.862 54.8169Z" fill="#D52B1E"/>
<path fill-rule="evenodd" clip-rule="evenodd" d="M118.862 54.8169L108.613 60.0799L137.791 77.4399L179.897 102.001L190.33 96.5529L118.862 54.8169Z" fill="#EDF5FD" stroke="black" stroke-width="1.385" stroke-linecap="round" stroke-linejoin="round"/>
<path fill-rule="evenodd" clip-rule="evenodd" d="M179.898 102.001V153.155L191.07 146.784L190.332 96.553L179.898 102.001Z" fill="#212492"/>
<path fill-rule="evenodd" clip-rule="evenodd" d="M179.898 102.001V153.155L191.07 146.784L190.332 96.553L179.898 102.001Z" fill="#EDF5FD" stroke="black" stroke-width="1.385" stroke-linecap="round" stroke-linejoin="round"/>
<path d="M108 60L180.5 102.5L179 152L108 111V60Z" fill="#D6E3F2"/>
<path fill-rule="evenodd" clip-rule="evenodd" d="M108.616 60.0801L108.246 111.142L179.9 153.155V102.001L108.616 60.0801Z" stroke="black" stroke-width="1.385" stroke-linecap="round" stroke-linejoin="round"/>
<path d="M108.613 60.0801L139.638 110.772L179.897 102.001" stroke="black" stroke-width="1.385" stroke-linecap="round" stroke-linejoin="round"/>
<path fill-rule="evenodd" clip-rule="evenodd" d="M197.536 92.6749L201.507 93.0439C202.06 93.1369 202.522 93.6909 202.522 94.2449C202.522 94.7989 201.876 95.2599 201.322 95.2599L197.351 94.8909C196.798 94.7989 196.336 94.2449 196.336 93.6909C196.336 93.1369 196.89 92.5829 197.536 92.6749Z" fill="#D52B1E"/>
<path fill-rule="evenodd" clip-rule="evenodd" d="M193.011 84.4571C193.38 84.9181 194.027 85.1031 194.489 84.7341L197.813 82.5181C198.366 82.1481 198.459 81.5021 198.182 81.0401C197.813 80.4861 197.166 80.3941 196.704 80.6711L193.38 82.8871C192.826 83.1641 192.734 83.8111 193.011 84.4571C193.011 84.3651 193.011 84.3651 193.011 84.4571Z" fill="#D52B1E"/>
<path fill-rule="evenodd" clip-rule="evenodd" d="M187.745 76.8854L188.021 72.9154C188.021 72.2684 187.559 71.8064 187.006 71.7144C186.359 71.7144 185.898 72.1764 185.806 72.7304L185.621 76.7004C185.621 77.2554 186.083 77.8084 186.637 77.8084C187.19 77.9934 187.745 77.5314 187.745 76.8854Z" fill="#D52B1E"/>
<path fill-rule="evenodd" clip-rule="evenodd" d="M177.404 116.312C173.895 112.989 164.384 101.539 164.015 96.4605V94.5215C164.2 90.5515 161.522 92.4905 163.923 90.2735C165.492 88.8895 161.06 88.6115 164.846 86.4885C166.969 85.2885 171.587 83.8105 174.542 82.8875C175.465 82.6105 177.773 82.5185 179.066 82.9795C185.991 84.8265 191.162 91.9365 191.716 99.9695V101.908C191.531 106.063 190.424 109.11 186.822 111.327L177.404 116.312Z" fill="#FCA6A6"/>
<path fill-rule="evenodd" clip-rule="evenodd" d="M177.404 116.312C173.895 112.989 164.384 101.539 164.015 96.4605V94.5215C164.2 90.5515 161.522 92.4905 163.923 90.2735C165.492 88.8895 161.06 88.6115 164.846 86.4885C166.969 85.2885 171.587 83.8105 174.542 82.8875C175.465 82.6105 177.773 82.5185 179.066 82.9795C185.991 84.8265 191.162 91.9365 191.716 99.9695V101.908C191.531 106.063 190.424 109.11 186.822 111.327L177.404 116.312Z" stroke="black" stroke-width="1.385"/>
<path fill-rule="evenodd" clip-rule="evenodd" d="M171.312 86.3959C177.499 88.2429 182.762 95.5369 183.409 103.479C183.5 104.124 183.5 104.679 183.5 105.325C183.316 112.896 178.514 118.067 172.143 117.144C171.589 117.052 171.127 116.959 170.666 116.774C164.479 114.928 159.216 107.633 158.57 99.6919C158.57 99.0459 158.477 98.3999 158.477 97.8459C158.663 90.2739 163.463 85.1039 169.834 86.0269C170.296 86.2109 170.85 86.3039 171.312 86.3959Z" fill="#D52B1E"/>
<path fill-rule="evenodd" clip-rule="evenodd" d="M171.312 86.3959C177.499 88.2429 182.762 95.5369 183.409 103.479C183.5 104.124 183.5 104.679 183.5 105.325C183.316 112.896 178.514 118.067 172.143 117.144C171.589 117.052 171.127 116.959 170.666 116.774C164.479 114.928 159.216 107.633 158.57 99.6919C158.57 99.0459 158.477 98.3999 158.477 97.8459C158.663 90.2739 163.463 85.1039 169.834 86.0269C170.296 86.2109 170.85 86.3039 171.312 86.3959Z" stroke="black" stroke-width="1.385" stroke-linecap="round" stroke-linejoin="round"/>
<path d="M171.178 111.164C168.962 111.064 167.299 109.92 166.197 108.186C165.106 106.469 164.562 104.177 164.515 101.718L171.178 111.164ZM171.178 111.164C173.385 111.265 175.055 110.349 176.123 108.697M171.178 111.164L176.123 108.697M176.123 108.697C177.169 107.078 177.612 104.793 177.518 102.156M176.123 108.697L177.518 102.156M177.518 102.156C177.47 99.7952 176.975 97.5071 175.909 95.7681C174.831 94.0082 173.166 92.8146 170.853 92.7142C168.62 92.6127 166.981 93.6692 165.939 95.3636C164.914 97.0314 164.468 99.3067 164.515 101.717L177.518 102.156ZM169.3 101.881L169.3 101.881L169.3 101.869C169.208 99.9063 169.374 98.5616 169.703 97.7388C169.865 97.3329 170.055 97.0847 170.244 96.9423C170.424 96.8064 170.633 96.7434 170.893 96.7597L170.893 96.7598C171.375 96.7898 171.823 97.0887 172.183 97.9437C172.551 98.8147 172.779 100.171 172.824 102.089L172.824 102.089L172.825 102.102C172.916 103.974 172.774 105.325 172.463 106.177C172.308 106.599 172.124 106.864 171.94 107.017C171.768 107.16 171.571 107.226 171.324 107.211L171.324 107.211C170.835 107.18 170.366 106.873 169.984 106.017C169.597 105.148 169.346 103.794 169.3 101.881ZM173.324 102.078C173.233 98.1997 172.402 96.3527 170.924 96.2607L168.8 101.893C168.893 105.771 169.816 107.618 171.293 107.71C172.771 107.803 173.509 105.864 173.324 102.078Z" fill="white" stroke="black"/>
</g>
<defs>
<clipPath id="clip0_2435_72277">
<rect width="300" height="200" fill="white"/>
</clipPath>
</defs>
</svg>
