<svg width="300" height="200" viewBox="0 0 300 200" fill="none" xmlns="http://www.w3.org/2000/svg">
<path d="M195.018 55.1457C194.987 55.6045 195.204 56 195.347 56.4153C198.234 64.765 199.33 73.3361 198.681 82.1525C198.194 88.7618 196.68 95.11 194.207 101.249C194.045 101.656 193.927 102.083 193.788 102.499C193.104 103.851 192.428 105.204 191.739 106.553C190.003 109.938 187.934 113.115 185.621 116.132C185.427 116.382 185.217 116.619 185.031 116.876C184.659 117.394 184.663 117.564 185.11 118.027C186.427 119.392 187.756 120.744 189.077 122.105C191.324 124.419 193.583 126.725 195.809 129.058C196.324 129.596 196.794 129.735 197.471 129.367C197.965 129.098 198.527 128.952 199.057 128.754C200.599 128.188 201.905 128.584 203.032 129.727C204.23 130.945 205.437 132.151 206.639 133.366C220.51 147.407 234.37 161.46 248.261 175.478C250.491 177.728 251.812 180.363 252.22 183.475C252.924 188.859 250.033 194.214 245.168 196.658C239.717 199.399 232.835 198.059 228.868 193.989C218.493 183.345 208.051 172.761 197.637 162.152C193.381 157.817 189.133 153.482 184.881 149.147C184.481 148.74 184.106 148.317 183.718 147.898C182.907 147.027 182.721 145.999 183.054 144.899C183.291 144.116 183.619 143.361 183.94 142.605C184.323 141.711 184.351 141.707 183.651 140.972C182.781 140.054 181.883 139.16 181.001 138.258C178.525 135.727 176.049 133.192 173.573 130.66C173.351 130.435 173.138 130.201 172.904 129.988C172.414 129.529 172.295 129.513 171.781 129.893C170.511 130.834 169.273 131.823 167.984 132.733C160.963 137.673 153.238 141.023 144.849 142.803C132.252 145.473 119.931 144.468 107.982 139.69C93.5648 133.927 82.6996 124.102 75.3388 110.441C72.5068 105.18 70.5331 99.5914 69.3307 93.7257C68.3854 89.1178 67.887 84.4742 67.9899 79.7793C68.1837 70.8799 70.0941 62.368 73.8397 54.2676C77.6962 45.9219 83.1466 38.8063 90.0407 32.7626C91.9906 31.0539 93.8496 29.2424 95.8905 27.6365C103.679 21.5137 112.42 17.416 122.09 15.3276C127.054 14.2558 132.086 13.9037 137.168 14.0066C142.967 14.1252 148.615 15.0864 154.136 16.7832C163.791 19.7536 172.26 24.7531 179.545 31.7659C185.17 37.1807 189.588 43.4498 192.938 50.4863C193.67 52.021 194.326 53.5912 195.018 55.1457ZM197.736 136.356C197.573 136.392 197.49 136.498 197.577 136.581C197.66 136.66 197.763 136.566 197.783 136.399C197.997 136.364 198.115 136.229 198.163 136.028C199.484 134.889 200.089 133.31 200.746 131.768C200.817 131.602 200.801 131.4 200.809 131.214C200.844 130.577 200.485 130.237 199.899 130.399C199.48 130.514 199.069 130.668 198.669 130.838C198.262 131.012 198.1 131.384 198.376 131.74C199.1 132.67 198.954 133.595 198.491 134.548C198.274 134.999 198.036 135.442 198.107 135.972C197.894 136.016 197.779 136.15 197.736 136.356ZM196.949 137.463C196.755 137.535 196.64 137.677 196.604 137.879C196.399 137.922 196.276 138.053 196.213 138.247C196.007 138.302 195.896 138.44 195.845 138.638C195.718 138.769 195.592 138.895 195.469 139.026C195.271 139.081 195.145 139.208 195.093 139.405C194.967 139.532 194.84 139.659 194.714 139.785C194.591 139.916 194.465 140.046 194.342 140.177C194.247 140.256 194.128 140.319 194.065 140.418C193.974 140.56 194.037 140.671 194.204 140.687C194.239 140.691 194.302 140.6 194.314 140.545C194.338 140.422 194.334 140.299 194.338 140.173C194.556 140.145 194.686 140.022 194.734 139.805C194.943 139.761 195.074 139.639 195.113 139.425C195.327 139.39 195.449 139.263 195.497 139.053C195.71 139.014 195.837 138.887 195.885 138.674C196.094 138.634 196.221 138.504 196.276 138.302C196.474 138.243 196.593 138.108 196.64 137.906C196.774 137.788 196.909 137.669 197.043 137.546C197.091 137.463 197.138 137.384 197.186 137.301C197.107 137.365 197.028 137.416 196.949 137.463ZM85.7571 39.9336L85.7768 39.9138C85.144 40.2658 84.7564 40.8314 84.4281 41.4524C83.6449 42.109 83.0872 42.9515 82.4781 43.7584C78.8471 48.5957 75.9914 53.8523 73.8872 59.5281C71.9214 64.8401 70.6874 70.3222 70.2681 75.9545C69.8053 82.1604 70.2048 88.3267 71.6208 94.4218C72.7718 99.3778 74.4251 104.144 76.7232 108.669C81.2164 117.505 87.4499 124.882 95.4911 130.7C105.328 137.815 116.332 141.676 128.451 142.372C131.362 142.538 134.257 142.411 137.16 142.15C144.094 141.529 150.707 139.746 157.02 136.842C165.002 133.172 171.896 128.034 177.682 121.405C182.171 116.259 185.711 110.536 188.31 104.223C190.664 98.5077 192.087 92.5628 192.701 86.4282C192.934 84.1024 192.985 81.7569 192.791 79.4194C192.811 78.9131 192.855 78.4108 192.847 77.9045C192.78 74.0283 192.135 70.2233 191.241 66.4657C189.168 57.7878 185.348 49.9365 179.85 42.9159C172.782 33.8899 163.918 27.2806 153.191 23.2145C145.166 20.1729 136.867 18.832 128.281 19.3067C124.096 19.5361 119.982 20.1729 115.94 21.2408C107.187 23.5507 99.3317 27.6247 92.3466 33.3757C90.4401 34.9459 88.6603 36.6546 86.9634 38.4503C86.6945 38.7351 86.1882 38.9764 86.4809 39.5341L86.5244 39.5222C86.026 39.19 85.9311 39.633 85.7571 39.9336ZM196.331 134.161C196.865 133.544 196.933 132.946 196.28 132.361C196.094 132.195 195.932 131.997 195.754 131.815C193.08 129.054 190.406 126.294 187.725 123.537C186.625 122.41 185.522 121.286 184.39 120.191C183.92 119.736 183.5 119.846 183.192 120.444C183.081 120.657 183.073 120.926 183.018 121.168C182.887 121.377 182.702 121.567 182.63 121.793C181.467 125.53 180.649 129.347 179.972 133.196C179.838 133.959 180.059 134.493 180.609 135.039C182.705 137.131 184.754 139.271 186.831 141.383C188.017 142.589 188.049 142.613 189.493 141.573C192.02 139.757 194.172 137.558 195.94 134.991C196.114 134.75 196.201 134.442 196.331 134.161ZM119.061 17.954C116.949 18.302 114.991 19.0891 112.906 19.9712C113.195 20.0503 113.318 20.1333 113.416 20.1056C115.295 19.635 117.17 19.1524 119.045 18.6699C120.413 18.4365 121.778 18.1399 123.154 17.9817C128.19 17.4042 133.229 17.3053 138.28 17.8274C143.208 18.3337 148.002 19.4056 152.661 21.0549C160.92 23.9779 168.288 28.3999 174.728 34.3685C181.554 40.697 186.724 48.1646 190.268 56.7634C192.819 62.9416 194.306 69.3689 194.828 76.0376C195.335 82.5164 194.836 88.9042 193.329 95.2208C192.918 96.9413 192.451 98.6461 192.012 100.355C191.87 100.545 191.672 100.715 191.601 100.928C191.368 101.601 190.929 102.226 191.087 102.993C191.925 102.597 191.815 101.727 192.064 101.039C192.103 100.932 192.052 100.798 192.044 100.675C192.155 100.525 192.297 100.39 192.368 100.224C193.709 97.0086 194.682 93.6782 195.43 90.2806C196.513 85.376 196.814 80.4082 196.715 75.4008C196.608 69.9306 195.746 64.583 194.128 59.366C190.537 47.7849 184.173 37.9994 174.878 30.1956C164.27 21.2883 151.993 16.5261 138.169 15.7469C135.321 15.5847 132.493 15.7271 129.657 15.9842C126.062 16.3204 122.533 16.9651 119.061 17.954ZM247.114 192.672C249.099 190.71 250.041 188.269 250.143 185.536C250.27 182.158 249.131 179.235 246.734 176.803C239.191 169.157 231.573 161.595 224.102 153.882C217.508 147.075 210.76 140.418 204.076 133.698C203.728 133.35 203.459 132.883 202.842 132.745C202.316 133.31 202.185 134.038 202.118 134.786C201.442 135.007 201.244 135.672 200.908 136.178C199.614 138.132 198.099 139.892 196.494 141.589C195.358 142.787 194.069 143.8 192.799 144.828C191.332 146.015 189.778 147.102 188.021 147.858C187.756 147.973 187.412 148.044 187.345 148.416C187.4 148.534 187.432 148.669 187.515 148.752C189.829 151.165 192.155 153.565 194.461 155.99C201.07 162.947 208.047 169.545 214.633 176.534C220.004 182.233 225.652 187.668 231.182 193.217C231.581 193.617 231.981 194.056 232.459 194.337C235.576 196.148 238.839 197.034 242.383 195.646C244.135 194.954 245.86 194.182 247.114 192.672Z" fill="black"/>
<path d="M80.0996 34.851C80.1114 35.3731 79.7871 35.6975 79.3916 35.7647C78.7627 35.8715 78.3078 35.563 77.8569 35.1952C76.4488 34.0323 75.0328 32.8773 73.6168 31.7224C70.9351 29.5272 68.2534 27.336 65.5757 25.1368C65.1366 24.7769 64.7134 24.4011 64.3021 24.0135C64.0054 23.7327 63.8828 23.3767 64.1241 22.997C64.3495 22.645 64.7174 22.5303 65.109 22.5659C65.5638 22.6094 65.9119 22.8942 66.2599 23.179C67.2329 23.9779 68.2178 24.7611 69.1948 25.56C72.4619 28.2299 75.7289 30.9037 78.9921 33.5774C79.2848 33.8187 79.5616 34.0718 79.8425 34.3289C80.0402 34.5069 80.0956 34.7482 80.0996 34.851Z" fill="black"/>
<path d="M91.0619 2.00228C91.5524 1.9746 91.9242 2.20005 92.1575 2.60744C92.4384 3.0979 92.6876 3.60813 92.9328 4.12232C94.9025 8.27539 96.8683 12.4285 98.8341 16.5815C99.0239 16.981 99.2296 17.3726 99.3799 17.7839C99.5619 18.2784 99.3918 18.749 99.0121 18.927C98.577 19.1248 98.1103 19.1287 97.782 18.7846C97.4853 18.4761 97.2757 18.0687 97.0859 17.6771C96.3383 16.1504 95.6066 14.6157 94.8788 13.0811C93.4747 10.1225 92.0745 7.16395 90.6783 4.20539C90.5161 3.86523 90.346 3.52507 90.2274 3.1691C90.0177 2.55998 90.4251 2.01415 91.0619 2.00228Z" fill="black"/>
<path d="M49.7036 58.484C52.2311 58.7965 55.0473 59.1485 57.8634 59.4847C59.8648 59.722 61.8701 59.9594 63.8359 60.4261C64.1365 60.4973 64.4332 60.612 64.7101 60.7544C64.9513 60.8809 65.0265 61.1539 65.0107 61.407C64.9909 61.6601 64.8604 61.8777 64.6112 62.0082C64.2591 62.1941 63.8913 62.1862 63.5076 62.1269C62.1431 61.9212 60.7706 61.7392 59.406 61.5217C55.8541 60.9561 52.2785 60.5803 48.7029 60.2481C48.3272 60.2125 47.9475 60.1729 47.5836 60.0899C47.1485 59.991 46.9784 59.6548 47.0022 59.2395C47.0259 58.8044 47.2869 58.5236 47.7141 58.4959C48.2718 58.4563 48.8414 58.484 49.7036 58.484Z" fill="black"/>
<path d="M192.797 79.4115C192.99 81.749 192.935 84.0945 192.706 86.4202C192.093 92.5549 190.669 98.5037 188.315 104.215C185.717 110.528 182.177 116.251 177.687 121.397C171.901 128.026 165.011 133.164 157.025 136.835C150.712 139.738 144.099 141.522 137.165 142.143C134.258 142.404 131.363 142.53 128.456 142.364C116.341 141.668 105.337 137.811 95.4962 130.692C87.459 124.878 81.2215 117.497 76.7283 108.661C74.4263 104.136 72.773 99.3739 71.6259 94.4139C70.21 88.3188 69.8105 82.1525 70.2732 75.9466C70.6925 70.3143 71.9266 64.8322 73.8923 59.5202C75.9926 53.8444 78.8523 48.5878 82.4833 43.7505C83.0884 42.9436 83.6461 42.1011 84.4332 41.4445C85.1531 41.1716 85.7662 40.7998 85.778 39.9059L85.7582 39.9257C86.1103 39.9652 86.4069 39.894 86.5335 39.5143L86.49 39.5262C86.9923 39.5855 87.3245 39.2849 87.641 38.9725C89.8639 36.797 92.4229 35.0527 94.9622 33.2887C98.8147 30.6149 102.936 28.4158 107.239 26.5647C109.672 25.5165 112.192 24.6938 114.711 23.8672C117.06 23.0919 119.489 22.7083 121.878 22.1585C124.093 21.6482 126.375 21.4821 128.626 21.3832C131.454 21.2606 134.286 21.2764 137.134 21.6047C139.966 21.9291 142.742 22.4393 145.491 23.1038C150.878 24.4011 155.894 26.6438 160.573 29.5826C164.967 32.3434 169.077 35.4918 172.621 39.3205C173.261 40.0127 173.815 40.7919 174.468 41.4722C176.489 43.5764 178.138 45.9694 179.799 48.3465C181.935 51.4119 183.703 54.6908 185.376 58.0291C188.165 63.5902 190.194 69.4125 191.733 75.4285C192.073 76.7574 192.231 78.1418 192.797 79.4115ZM84.275 66.1691L84.2987 66.1296C83.4839 67.4111 83.1438 68.8666 82.7918 70.3143C82.4793 71.663 82.1273 73.0039 81.8662 74.3645C81.617 75.6618 81.3243 76.9671 81.2769 78.2802C81.1187 82.8209 80.9921 87.3735 81.9967 91.8548C82.6336 94.6829 83.3495 97.4911 84.3858 100.208C85.1294 102.162 86.1024 104.006 87.0398 105.868C89.0411 109.847 91.7584 113.328 94.7526 116.587C96.0262 117.976 97.462 119.241 98.9452 120.412C102.473 123.197 106.263 125.594 110.4 127.385C111.843 128.014 113.303 128.631 114.806 129.098C117.151 129.83 119.525 130.463 121.949 130.906C124.615 131.392 127.289 131.768 130.01 131.815C133.107 131.867 136.165 131.542 139.234 131.127C141.876 130.767 144.431 130.13 146.951 129.323C151.183 127.971 155.146 126.044 158.852 123.58C160.375 122.564 161.831 121.476 163.258 120.321C165.236 118.723 166.917 116.84 168.748 115.104C169.203 114.673 169.357 114.163 169.243 113.558C169.425 113.304 169.591 113.035 169.793 112.794C171.264 111.054 172.644 109.242 173.89 107.336C178.34 100.533 180.947 93.0612 181.71 84.9924C182.323 78.5136 181.753 72.0902 179.799 65.8527C177.011 56.9612 172.213 49.3512 165.2 43.1651C157.887 36.714 149.395 32.7468 139.788 31.2557C133.613 30.2985 127.435 30.4962 121.312 31.8687C113.584 33.6051 106.658 36.9592 100.539 42.0022C94.009 47.3854 89.1677 53.9907 86.0114 61.842C85.6831 62.6608 85.3271 63.4676 84.983 64.2824C84.4728 64.8124 84.2473 65.4413 84.275 66.1691Z" fill="#D52B1E"/>
<path d="M247.112 192.672C245.859 194.183 244.134 194.954 242.37 195.646C238.826 197.034 235.567 196.152 232.446 194.337C231.964 194.056 231.568 193.617 231.169 193.217C225.639 187.672 219.991 182.234 214.62 176.534C208.034 169.545 201.057 162.951 194.448 155.99C192.146 153.566 189.816 151.169 187.502 148.752C187.419 148.669 187.391 148.534 187.332 148.416C187.399 148.044 187.743 147.973 188.008 147.858C189.765 147.107 191.319 146.015 192.786 144.828C194.056 143.8 195.349 142.787 196.481 141.589C198.086 139.892 199.601 138.132 200.895 136.178C201.227 135.672 201.429 135.011 202.105 134.786C202.698 135.517 203.252 136.293 203.897 136.977C205.586 138.761 207.207 140.62 208.936 142.352C215.794 149.234 222.51 156.255 229.314 163.197C229.844 163.739 230.378 164.276 230.919 164.807C236.283 170.059 241.239 175.715 246.634 180.936C248.457 182.7 248.738 185.038 248.469 187.411C248.311 188.839 247.951 190.255 247.267 191.56C247.116 191.881 247.164 192.3 247.112 192.672Z" fill="#404040"/>
<path d="M192.798 79.4114C192.232 78.1418 192.074 76.7574 191.734 75.4284C190.195 69.4124 188.166 63.5902 185.377 58.0291C183.704 54.6908 181.936 51.4119 179.8 48.3465C178.143 45.9654 176.49 43.5764 174.469 41.4722C173.816 40.7919 173.262 40.0127 172.622 39.3205C169.078 35.4918 164.968 32.3434 160.574 29.5826C155.895 26.6438 150.879 24.4011 145.492 23.1038C142.743 22.4432 139.963 21.933 137.135 21.6047C134.287 21.2764 131.455 21.2606 128.627 21.3832C126.376 21.4821 124.094 21.6443 121.879 22.1585C119.486 22.7122 117.057 23.0959 114.712 23.8671C112.192 24.6978 109.677 25.5205 107.24 26.5647C102.937 28.4157 98.8156 30.6149 94.9632 33.2887C92.4239 35.0527 89.8608 36.7931 87.6419 38.9724C87.3215 39.2849 84.7664 41.6818 84.2641 41.6225C83.9714 41.0608 86.7045 38.7233 86.9735 38.4424C88.6703 36.6507 90.4502 34.938 92.3566 33.3678C99.3417 27.6168 107.197 23.5389 115.95 21.2329C119.992 20.165 124.106 19.5321 128.291 19.2988C136.878 18.8241 145.176 20.165 153.201 23.2066C163.928 27.2727 172.796 33.882 179.86 42.908C185.358 49.9326 189.178 57.7799 191.251 66.4578C192.149 70.2154 192.79 74.0164 192.857 77.8966C192.865 78.4028 192.817 78.9052 192.798 79.4114Z" fill="#EF6261"/>
<path d="M192.018 100.363C192.457 98.6501 192.924 96.9453 193.335 95.2287C194.842 88.9161 195.341 82.5283 194.834 76.0455C194.312 69.3769 192.821 62.9495 190.274 56.7713C186.726 48.1765 181.56 40.7049 174.734 34.3764C168.294 28.4079 160.926 23.9858 152.667 21.0629C148.008 19.4135 143.214 18.3416 138.285 17.8354C133.234 17.3172 128.195 17.4121 123.16 17.9896C121.784 18.1478 120.419 18.4445 119.051 18.6778C119.055 18.4366 119.059 18.1992 119.063 17.958C122.531 16.9691 126.064 16.3244 129.659 15.9961C132.495 15.7351 135.327 15.5966 138.171 15.7588C151.998 16.538 164.272 21.3002 174.88 30.2075C184.175 38.0113 190.539 47.7968 194.13 59.3779C195.748 64.5949 196.61 69.9425 196.717 75.4127C196.816 80.424 196.515 85.3919 195.432 90.2925C194.68 93.6901 193.707 97.0205 192.37 100.236C192.303 100.402 192.157 100.537 192.046 100.687C192.129 100.568 192.121 100.462 192.018 100.363Z" fill="#9B1D1F"/>
<path d="M247.113 192.671C247.16 192.3 247.113 191.876 247.275 191.564C247.959 190.255 248.319 188.839 248.477 187.415C248.742 185.042 248.465 182.704 246.642 180.94C241.243 175.715 236.291 170.063 230.928 164.81C230.386 164.28 229.852 163.742 229.322 163.201C222.519 156.263 215.803 149.242 208.944 142.356C207.216 140.624 205.594 138.769 203.905 136.981C203.26 136.297 202.707 135.521 202.113 134.79C202.181 134.042 202.311 133.314 202.837 132.749C203.458 132.887 203.727 133.354 204.071 133.702C210.76 140.418 217.503 147.079 224.097 153.886C231.568 161.599 239.19 169.161 246.729 176.807C249.126 179.239 250.265 182.162 250.139 185.54C250.04 188.273 249.102 190.71 247.113 192.671Z" fill="#B2B2B2"/>
<path d="M196.331 134.161C196.2 134.442 196.113 134.75 195.939 135.003C194.171 137.57 192.019 139.769 189.492 141.585C188.044 142.625 188.013 142.601 186.83 141.395C184.754 139.283 182.709 137.139 180.608 135.051C180.063 134.505 179.837 133.971 179.972 133.208C180.648 129.355 181.467 125.538 182.63 121.804C182.701 121.579 182.887 121.385 183.017 121.179C183.282 121.175 183.496 121.27 183.666 121.484C184.401 122.413 185.074 123.41 185.897 124.257C188.914 127.354 191.992 130.399 195.037 133.473C195.405 133.832 195.801 134.117 196.331 134.161Z" fill="#B2B2B2"/>
<path d="M196.329 134.161C195.799 134.117 195.404 133.833 195.036 133.465C191.986 130.395 188.913 127.35 185.895 124.249C185.072 123.402 184.4 122.406 183.664 121.476C183.494 121.263 183.281 121.168 183.016 121.172C183.071 120.93 183.083 120.661 183.19 120.448C183.498 119.851 183.917 119.74 184.388 120.195C185.523 121.286 186.627 122.41 187.722 123.541C190.404 126.294 193.074 129.058 195.752 131.819C195.926 132.001 196.088 132.195 196.278 132.365C196.93 132.947 196.863 133.544 196.329 134.161Z" fill="white"/>
<path d="M198.105 135.972C198.038 135.446 198.275 135.003 198.493 134.552C198.956 133.599 199.102 132.674 198.378 131.744C198.101 131.388 198.264 131.016 198.671 130.842C199.07 130.672 199.482 130.518 199.901 130.403C200.482 130.241 200.846 130.581 200.811 131.218C200.799 131.404 200.815 131.61 200.748 131.772C200.091 133.314 199.486 134.892 198.165 136.032L198.105 135.972Z" fill="#404040"/>
<path d="M119.061 17.954C119.057 18.1953 119.053 18.4326 119.049 18.6738C117.17 19.1564 115.295 19.6389 113.416 20.1096C113.318 20.1334 113.195 20.0542 112.906 19.9751C114.991 19.0892 116.953 18.302 119.061 17.954Z" fill="#9B1D1F"/>
<path d="M192.018 100.363C192.121 100.462 192.129 100.568 192.049 100.683C192.057 100.806 192.109 100.94 192.069 101.047C191.82 101.735 191.931 102.605 191.092 103.001C190.934 102.234 191.373 101.609 191.606 100.936C191.678 100.723 191.875 100.553 192.018 100.363Z" fill="black"/>
<path d="M194.342 140.177C194.334 140.299 194.338 140.426 194.318 140.549C194.306 140.604 194.243 140.691 194.207 140.691C194.041 140.679 193.978 140.564 194.069 140.422C194.132 140.323 194.251 140.26 194.342 140.177Z" fill="#404040"/>
<path d="M194.731 139.809C194.688 140.023 194.557 140.149 194.336 140.177L194.34 140.181C194.463 140.05 194.589 139.92 194.712 139.789L194.731 139.809Z" fill="#404040"/>
<path d="M195.114 139.429C195.075 139.643 194.944 139.765 194.735 139.809L194.715 139.789C194.841 139.663 194.968 139.536 195.095 139.409L195.114 139.429Z" fill="#404040"/>
<path d="M195.884 138.682C195.837 138.891 195.71 139.022 195.496 139.057L195.465 139.026C195.591 138.895 195.718 138.769 195.841 138.638C195.845 138.642 195.884 138.682 195.884 138.682Z" fill="#404040"/>
<path d="M196.275 138.31C196.22 138.512 196.093 138.638 195.883 138.682L195.844 138.642C195.895 138.444 196.006 138.302 196.212 138.251L196.275 138.31Z" fill="#404040"/>
<path d="M196.211 138.251C196.274 138.057 196.397 137.926 196.603 137.883L196.634 137.914C196.587 138.116 196.468 138.247 196.27 138.31C196.274 138.31 196.211 138.251 196.211 138.251Z" fill="#404040"/>
<path d="M196.605 137.883C196.641 137.677 196.756 137.539 196.95 137.467L197.041 137.558C196.906 137.677 196.772 137.796 196.637 137.918C196.637 137.914 196.605 137.883 196.605 137.883Z" fill="#404040"/>
<path d="M196.949 137.463C197.028 137.412 197.103 137.361 197.183 137.309C197.135 137.392 197.088 137.471 197.04 137.554C197.04 137.558 196.949 137.463 196.949 137.463Z" fill="#404040"/>
<path d="M197.783 136.403C197.763 136.566 197.66 136.661 197.577 136.585C197.49 136.502 197.577 136.396 197.736 136.36C197.74 136.36 197.783 136.403 197.783 136.403Z" fill="#404040"/>
<path d="M198.162 136.028C198.114 136.233 197.995 136.364 197.782 136.403L197.738 136.36C197.782 136.154 197.896 136.016 198.11 135.976C198.106 135.972 198.162 136.028 198.162 136.028Z" fill="#404040"/>
<path d="M195.094 139.409C195.145 139.212 195.272 139.085 195.47 139.03C195.47 139.03 195.497 139.057 195.501 139.061C195.454 139.271 195.331 139.398 195.117 139.433C195.114 139.429 195.094 139.409 195.094 139.409Z" fill="#404040"/>
<path d="M84.9761 64.2825C85.3202 63.4678 85.6762 62.6609 86.0044 61.8421C89.1568 53.9908 93.9981 47.3815 100.532 42.0023C106.651 36.9593 113.577 33.6052 121.306 31.8688C127.428 30.4964 133.606 30.2946 139.781 31.2558C149.388 32.7469 157.88 36.7101 165.194 43.1652C172.202 49.3513 177.004 56.9613 179.793 65.8528C181.75 72.0943 182.316 78.5137 181.703 84.9925C180.94 93.0574 178.333 100.533 173.883 107.336C172.637 109.242 171.253 111.054 169.786 112.794C169.584 113.032 169.418 113.301 169.236 113.558C168.904 113.846 168.548 114.111 168.247 114.428C166.633 116.129 164.901 117.699 163.062 119.154C156.531 124.32 149.135 127.611 140.971 129.094C133.717 130.411 126.495 130.103 119.356 128.18C109.357 125.487 100.952 120.242 94.1998 112.391C89.8965 107.391 86.748 101.727 84.7625 95.4305C83.6748 91.9815 82.9786 88.4573 82.6543 84.8501C82.3853 81.8797 82.4012 78.9251 82.6424 75.9507C82.7967 74.0561 83.2278 72.209 83.3939 70.3183C83.7816 68.9419 84.2839 67.5892 84.3037 66.1336L84.2799 66.1732C84.7902 65.6432 84.9207 64.9747 84.9761 64.2825ZM126.396 123.462C127.622 123.893 128.884 124.142 130.185 124.154C134.979 124.901 139.749 124.672 144.503 123.806C151.575 122.516 158.015 119.744 163.849 115.551C165.138 114.626 166.337 113.609 167.401 112.43C169.782 109.796 171.87 106.944 173.595 103.84C174.757 101.747 175.924 99.6469 176.529 97.2974C177.491 95.5729 177.934 93.6625 178.396 91.7798C180.236 84.3478 180.334 76.8683 178.551 69.4244C175.608 57.1472 168.86 47.4527 158.398 40.3807C152.984 36.722 147.003 34.3528 140.592 33.2057C136.613 32.4938 132.586 32.2802 128.512 32.6085C121.847 33.1464 115.634 35.0489 109.736 38.1143C109.412 38.2843 109.02 38.3872 108.838 38.7669C105.761 40.2976 102.937 42.1882 100.651 44.7829C91.7278 54.9164 87.6617 66.7625 88.5121 80.2145C89.0658 88.9834 91.9928 96.9968 97.0279 104.211C98.1433 105.809 99.2349 107.443 100.75 108.724C101.102 109.163 101.418 109.638 101.81 110.041C105.765 114.088 110.262 117.394 115.369 119.839C116.836 120.543 118.288 121.314 119.917 121.627C121.982 122.58 124.138 123.209 126.396 123.462ZM145.848 126.072C147.055 125.815 148.221 125.463 149.376 124.787C149.131 124.708 149.001 124.621 148.898 124.644C147.747 124.905 146.596 125.186 145.445 125.459C109.558 132.049 79.5257 100.39 87.638 65.2753C88.1324 63.9266 88.5635 62.5659 88.6861 61.1143C87.7725 62.3563 87.3097 63.7802 86.9498 65.2437C85.3479 70.2155 84.5212 75.2941 84.5528 80.5388C84.5884 86.9583 85.8146 93.1088 88.3658 98.9824C93.6303 111.105 102.407 119.677 114.633 124.696C118.394 126.238 122.306 127.203 126.345 127.726C129.813 128.173 133.29 128.176 136.755 127.884C139.84 127.627 142.882 126.994 145.848 126.072Z" fill="black"/>
<path d="M83.3915 70.3143C83.2254 72.2009 82.7943 74.0481 82.64 75.9466C82.3987 78.921 82.3829 81.8756 82.6519 84.846C82.9802 88.4533 83.6723 91.9774 84.76 95.4265C86.7456 101.727 89.898 107.387 94.1974 112.387C100.949 120.234 109.358 125.479 119.353 128.176C126.492 130.103 133.715 130.411 140.969 129.09C149.133 127.607 156.525 124.32 163.059 119.15C164.898 117.695 166.627 116.125 168.245 114.424C168.545 114.107 168.901 113.842 169.233 113.554C169.348 114.159 169.194 114.673 168.739 115.1C166.908 116.837 165.227 118.719 163.249 120.317C161.821 121.468 160.366 122.56 158.843 123.576C155.141 126.041 151.174 127.967 146.941 129.319C144.422 130.126 141.867 130.763 139.225 131.123C136.159 131.538 133.102 131.867 130.001 131.811C127.283 131.764 124.606 131.388 121.94 130.902C119.519 130.459 117.142 129.826 114.797 129.094C113.298 128.627 111.838 128.006 110.39 127.381C106.253 125.586 102.468 123.193 98.9358 120.408C97.4526 119.237 96.0168 117.976 94.7432 116.583C91.753 113.324 89.0357 109.844 87.0304 105.865C86.093 104.006 85.1239 102.162 84.3764 100.204C83.3401 97.4832 82.6202 94.6789 81.9874 91.8509C80.9827 87.3695 81.1093 82.8209 81.2675 78.2763C81.315 76.9671 81.6037 75.6579 81.8569 74.3605C82.1219 73.0039 82.4699 71.6591 82.7824 70.3103C82.992 70.3143 83.1898 70.3143 83.3915 70.3143Z" fill="#EF6261"/>
<path d="M83.3902 70.3143C83.1925 70.3143 82.9907 70.3143 82.793 70.3143C83.145 68.8667 83.4851 67.4112 84.2999 66.1296C84.2802 67.5852 83.7778 68.9379 83.3902 70.3143Z" fill="#EF6261"/>
<path d="M84.9758 64.2825C84.9204 64.9786 84.7899 65.6431 84.2757 66.1692C84.248 65.4414 84.4735 64.8125 84.9758 64.2825Z" fill="#EF6261"/>
<path d="M176.534 97.2974C175.929 99.6429 174.762 101.747 173.599 103.839C171.874 106.944 169.786 109.792 167.405 112.43C166.341 113.609 165.139 114.626 163.853 115.551C158.019 119.744 151.58 122.516 144.508 123.806C139.753 124.672 134.983 124.898 130.19 124.154C130.269 123.925 130.304 123.66 130.439 123.466C131.72 121.646 133.006 119.827 134.315 118.027C134.687 117.517 135.015 117.007 135.126 116.378C135.604 116.235 136.087 116.105 136.562 115.947C139.813 114.843 141.743 112.078 141.656 108.641C141.64 108.016 141.561 107.395 141.514 106.77C142.032 106.786 142.281 106.434 142.538 106.054C144.563 103.088 146.616 100.137 148.629 97.1629C149.547 95.8102 150.401 94.414 151.267 93.0296C153.51 89.4501 155.923 85.9813 158.213 82.4334C160.811 78.4108 163.386 74.3725 165.989 70.3499C166.847 69.0289 167.658 67.6762 168.512 66.3551C168.726 66.0268 168.983 65.6985 168.821 65.3188C168.548 64.682 168.232 64.061 167.872 63.4717C167.634 63.0801 167.057 63.0326 166.685 63.2976C166.321 63.5587 166.08 63.9226 165.831 64.2944C163.406 67.9056 160.966 71.5049 158.525 75.1003C155.907 78.9606 153.296 82.825 150.666 86.6735C147.039 91.9815 143.649 97.4517 139.884 102.669C139.71 102.91 139.686 103.258 139.591 103.559C138.579 102.839 137.594 102.095 136.372 101.704C135.454 101.407 134.513 101.53 133.599 101.336C133.461 100.505 134.121 100.023 134.453 99.4016C134.734 98.8795 135.225 98.4484 135.047 97.7641C135.462 97.6217 135.869 97.4517 136.293 97.3449C138.923 96.6685 141.494 93.8444 141.328 90.3994C141.292 89.6558 141.189 88.8924 141.43 88.1528C141.925 88.1765 142.214 87.9313 142.491 87.5199C143.796 85.5897 145.172 83.703 146.47 81.7649C150.156 76.2631 153.815 70.7415 157.481 65.2278C159.229 62.6015 160.978 59.9791 162.718 57.3449C163.367 56.36 163.371 56.2453 162.548 55.4108C161.618 54.4655 160.819 53.3975 159.914 52.4482C158.304 50.7672 156.544 49.2207 154.768 47.7098C153.332 46.4916 151.782 45.4039 150.275 44.2647C149.772 43.885 149.266 43.5014 148.728 43.177C148.182 42.8448 147.498 42.8448 147.17 43.3273C146.541 44.2489 145.497 44.9055 145.326 46.1237C145.156 46.0407 144.97 45.9853 144.824 45.8745C140.584 42.6351 135.798 41.1559 130.478 41.3694C125.534 41.5672 121.243 43.3036 117.714 46.8119C115.63 48.8845 114.068 51.3368 112.711 53.9196C111.829 55.6006 111.592 57.4161 111.96 59.2711C112.925 64.1559 117.631 64.6385 120.353 62.3484C121.132 61.6918 121.792 60.9324 122.334 60.0662C122.734 59.4214 123.129 58.7728 123.537 58.132C124.403 56.7595 125.601 55.7509 127.041 55.0231C130.846 53.1009 135.387 54.2716 137.74 57.776C136.878 57.8472 136.451 58.5117 136.004 59.109C135.592 59.6627 135.264 60.2797 134.869 60.8454C132.341 64.4447 129.727 67.9847 127.294 71.6473C125.554 74.2617 123.636 76.7496 121.959 79.4076C120.25 82.113 118.304 84.6681 116.461 87.2905C114.115 90.6327 111.766 93.971 109.432 97.3211C107.854 99.5915 106.307 101.882 104.733 104.16C103.875 105.402 102.965 106.604 102.139 107.866C101.79 108.396 101.379 108.681 100.766 108.712C99.2551 107.435 98.1595 105.797 97.0441 104.199C92.009 96.9889 89.0821 88.9715 88.5283 80.2026C87.6779 66.7546 91.744 54.9045 100.667 44.771C102.953 42.1763 105.777 40.2857 108.855 38.755C109.428 38.8341 109.978 38.7787 110.528 38.5731C111.354 38.2606 112.197 37.9956 113.031 37.7187C114.708 37.161 116.433 36.7417 118.173 36.5598C120.171 36.3502 122.16 35.9388 124.189 36.1049C124.553 36.1366 124.933 35.9942 125.301 35.927C126.867 35.6382 128.449 35.654 130.004 35.9111C130.692 36.0258 131.368 36.1168 132.06 36.1247C133.445 36.1445 134.809 36.2552 136.19 36.4411C139.912 36.9435 143.444 38.0391 146.845 39.5461C151.797 41.7412 156.061 44.949 159.989 48.6472C161.1 49.6954 162.002 50.9096 162.959 52.0685C164.118 53.4687 165.324 54.8372 166.357 56.3561C167.785 58.4603 168.825 60.7544 170.015 62.9773C171.724 66.1731 172.753 69.6143 173.686 73.087C174.01 74.2973 174.188 75.5472 174.426 76.7813C175.007 79.8031 175.62 82.821 175.755 85.9061C175.766 86.1593 175.739 86.4322 175.83 86.6577C176.205 87.5713 176.111 88.5246 176.115 89.4659C176.122 91.6136 176.115 93.7653 176.118 95.9131C176.122 96.4193 176.027 96.9494 176.534 97.2974Z" fill="#EDF5FD"/>
<path d="M100.758 108.72C101.371 108.689 101.782 108.404 102.13 107.874C102.957 106.612 103.867 105.41 104.725 104.168C106.299 101.893 107.846 99.5994 109.424 97.329C111.758 93.9789 114.107 90.6406 116.452 87.2984C118.292 84.676 120.242 82.1209 121.95 79.4155C123.631 76.7536 125.55 74.2696 127.286 71.6552C129.719 67.9926 132.333 64.4526 134.86 60.8533C135.256 60.2876 135.584 59.6706 135.996 59.1169C136.443 58.5196 136.866 57.8551 137.732 57.7839C139.729 60.517 139.753 63.3886 138.238 66.3116C137.748 67.2569 137.103 68.131 136.47 68.9933C134.647 71.4891 132.788 73.9611 130.949 76.4451C128.781 79.368 127.579 82.6311 127.5 86.2819C127.46 88.1132 127.492 89.9445 127.508 91.7718C127.527 94.3032 128.761 96.0515 130.988 97.1708C132.286 97.8235 133.666 97.8155 135.058 97.7681C135.236 98.4524 134.746 98.8835 134.465 99.4056C134.133 100.023 133.468 100.509 133.611 101.34C133.302 101.387 132.99 101.427 132.681 101.486C128.204 102.309 125.55 106.58 126.649 110.765C126.728 111.066 126.764 111.378 126.819 111.687C126.345 111.699 125.997 111.904 125.728 112.304C123.944 114.946 122.156 117.588 120.344 120.21C120.036 120.657 119.937 121.112 119.937 121.619C118.307 121.306 116.856 120.535 115.388 119.831C110.278 117.386 105.785 114.08 101.83 110.033C101.426 109.634 101.11 109.159 100.758 108.72Z" fill="white"/>
<path d="M176.535 97.2974C176.028 96.9494 176.123 96.4154 176.119 95.921C176.115 93.7732 176.123 91.6216 176.115 89.4738C176.111 88.5325 176.206 87.5792 175.831 86.6656C175.74 86.4441 175.763 86.1672 175.755 85.9141C175.617 82.8289 175.004 79.811 174.426 76.7892C174.189 75.5551 174.011 74.3053 173.687 73.0949C172.753 69.6222 171.725 66.1811 170.016 62.9852C168.826 60.7623 167.786 58.4682 166.358 56.364C165.325 54.8412 164.119 53.4766 162.96 52.0765C162.003 50.9176 161.101 49.6993 159.99 48.6551C156.066 44.953 151.798 41.7452 146.846 39.554C143.445 38.047 139.913 36.9514 136.191 36.4491C134.806 36.2632 133.442 36.1524 132.061 36.1326C131.369 36.1247 130.693 36.0298 130.004 35.919C128.45 35.662 126.868 35.6461 125.302 35.9349C124.93 36.0021 124.554 36.1445 124.19 36.1129C122.157 35.9467 120.168 36.362 118.174 36.5677C116.434 36.7497 114.705 37.165 113.032 37.7266C112.194 38.0074 111.351 38.2685 110.529 38.581C109.979 38.7906 109.429 38.842 108.855 38.7629C109.033 38.3832 109.429 38.2804 109.753 38.1103C115.651 35.0489 121.864 33.1424 128.529 32.6045C132.603 32.2762 136.63 32.4898 140.609 33.2018C147.02 34.3488 153.001 36.718 158.415 40.3767C168.877 47.4448 175.625 57.1432 178.568 69.4205C180.352 76.8643 180.253 84.3399 178.413 91.7758C177.939 93.6665 177.496 95.5729 176.535 97.2974Z" fill="#D6E3F2"/>
<path d="M87.6445 65.2752C79.5321 100.39 109.565 132.049 145.451 125.459C145.586 125.665 145.72 125.866 145.855 126.072C142.884 126.994 139.847 127.627 136.757 127.888C133.293 128.18 129.82 128.18 126.347 127.729C122.313 127.207 118.397 126.242 114.635 124.7C102.41 119.68 93.6328 111.109 88.3683 98.9862C85.8211 93.1166 84.591 86.9621 84.5554 80.5427C84.5277 75.2979 85.3504 70.2193 86.9523 65.2515C87.1857 65.2594 87.4151 65.2673 87.6445 65.2752Z" fill="#9B1D1F"/>
<path d="M119.926 121.622C119.922 121.112 120.025 120.657 120.333 120.214C122.149 117.592 123.933 114.95 125.716 112.308C125.985 111.908 126.337 111.703 126.808 111.691C127.722 113.372 128.956 114.752 130.621 115.717C130.605 116.235 130.4 116.702 130.127 117.113C129.193 118.51 128.26 119.906 127.263 121.255C126.769 121.927 126.353 122.591 126.393 123.458C124.138 123.209 121.983 122.58 119.926 121.622Z" fill="white"/>
<path d="M126.397 123.462C126.358 122.596 126.769 121.931 127.267 121.259C128.26 119.906 129.198 118.514 130.131 117.117C130.404 116.706 130.61 116.239 130.625 115.721C132.081 116.231 133.592 116.394 135.127 116.382C135.016 117.011 134.687 117.521 134.316 118.031C133.006 119.831 131.717 121.646 130.439 123.47C130.305 123.663 130.269 123.924 130.19 124.158C128.881 124.142 127.623 123.893 126.397 123.462Z" fill="white"/>
<path d="M87.6414 65.2752C87.4119 65.2673 87.1825 65.2594 86.9531 65.2475C87.3131 63.7801 87.7758 62.3562 88.6895 61.1143C88.5669 62.5659 88.1397 63.9265 87.6414 65.2752Z" fill="#9B1D1F"/>
<path d="M145.849 126.072C145.714 125.867 145.58 125.665 145.445 125.459C146.596 125.182 147.747 124.905 148.898 124.64C149.001 124.617 149.128 124.708 149.377 124.783C148.222 125.459 147.055 125.815 145.849 126.072Z" fill="black"/>
<path d="M135.051 97.768C133.659 97.8115 132.278 97.8234 130.981 97.1707C128.754 96.0514 127.52 94.3031 127.5 91.7717C127.488 89.9404 127.457 88.1091 127.492 86.2818C127.567 82.635 128.774 79.3679 130.941 76.445C132.784 73.961 134.639 71.489 136.463 68.9932C137.096 68.1309 137.74 67.2568 138.231 66.3115C139.746 63.3885 139.726 60.517 137.725 57.7838C135.371 54.2794 130.831 53.1087 127.026 55.031C125.586 55.7587 124.391 56.7673 123.521 58.1398C123.118 58.7806 122.722 59.4292 122.319 60.074C121.781 60.9402 121.12 61.6996 120.337 62.3562C117.616 64.6502 112.909 64.1637 111.944 59.2789C111.576 57.4279 111.813 55.6084 112.695 53.9274C114.052 51.3446 115.618 48.8923 117.699 46.8197C121.227 43.3114 125.519 41.575 130.463 41.3772C135.783 41.1637 140.572 42.6429 144.809 45.8823C144.955 45.9931 145.145 46.0485 145.311 46.1315C145.568 46.4005 145.813 46.6853 146.09 46.9384C147.451 48.1764 148.661 49.5529 149.602 51.131C153.154 57.0956 153.463 63.1314 149.899 69.2265C149.037 70.6979 148.056 72.0823 147.031 73.4429C145.552 75.4087 144.124 77.414 142.665 79.3917C141.937 80.3805 141.411 81.4682 141.36 82.6904C141.28 84.5138 141.185 86.3411 141.419 88.1645C141.178 88.9042 141.28 89.6636 141.316 90.4111C141.478 93.8562 138.911 96.6803 136.281 97.3566C135.874 97.4555 135.466 97.6256 135.051 97.768ZM132.658 43.3707C128.829 43.3747 125.89 43.9996 123.727 45.0557C120.139 46.8 117.584 49.6399 115.52 52.9623C114.855 54.0342 114.309 55.1813 114.009 56.4272C113.684 57.772 113.787 59.0535 114.499 60.2678C115.029 61.1735 115.804 61.5888 116.845 61.6007C117.865 61.6126 118.664 61.1577 119.368 60.4774C120.199 59.6784 120.78 58.6975 121.35 57.7166C122.188 56.2769 123.244 55.0586 124.605 54.0817C128.865 51.0163 134.901 51.4751 138.448 55.2683C140.236 57.1787 141.225 59.4055 141.261 62.0991C141.292 64.5514 140.648 66.6872 139.152 68.6174C137.839 70.3142 136.558 72.0387 135.347 73.8107C133.995 75.7923 132.436 77.6276 131.226 79.7081C130.518 80.9224 130.035 82.1881 129.763 83.5764C129.233 86.2778 129.49 88.9951 129.525 91.7006C129.541 93.1205 130.126 94.402 131.539 95.1219C134.659 96.7159 137.721 95.4541 138.931 92.278C139.204 91.5621 139.295 90.8146 139.283 90.0472C139.251 88.1526 139.275 86.2541 139.239 84.3595C139.216 83.078 139.358 81.8281 139.864 80.6494C140.513 79.1385 141.257 77.6751 142.273 76.3659C144.286 73.7751 146.229 71.129 147.997 68.3603C149.207 66.4618 150.045 64.4288 150.291 62.2019C150.698 58.476 149.808 55.0151 147.688 51.9458C143.776 46.2779 138.223 43.6199 132.658 43.3707Z" fill="black"/>
<path d="M141.436 88.1567C141.203 86.3333 141.298 84.5059 141.377 82.6825C141.428 81.4604 141.954 80.3726 142.682 79.3838C144.142 77.4062 145.57 75.4008 147.049 73.435C148.073 72.0744 149.058 70.694 149.916 69.2187C153.48 63.1236 153.172 57.0917 149.62 51.1232C148.678 49.545 147.468 48.1686 146.107 46.9306C145.831 46.6814 145.585 46.3927 145.328 46.1237C145.498 44.9055 146.543 44.2449 147.171 43.3273C147.5 42.8487 148.184 42.8447 148.73 43.177C149.268 43.5053 149.77 43.885 150.276 44.2647C151.783 45.3999 153.334 46.4876 154.77 47.7098C156.546 49.2207 158.306 50.7672 159.915 52.4482C160.821 53.3975 161.62 54.4654 162.55 55.4107C163.372 56.2453 163.372 56.36 162.72 57.3449C160.983 59.9752 159.231 62.6015 157.483 65.2278C153.816 70.7415 150.158 76.2631 146.471 81.7649C145.174 83.703 143.798 85.5857 142.492 87.5199C142.215 87.9352 141.931 88.1804 141.436 88.1567Z" fill="white"/>
<path d="M139.594 103.562C139.689 103.262 139.712 102.914 139.886 102.673C143.652 97.4555 147.042 91.9893 150.669 86.6773C153.299 82.8248 155.913 78.9645 158.528 75.1041C160.968 71.5048 163.409 67.9054 165.833 64.2982C166.082 63.9264 166.324 63.5625 166.688 63.3015C167.059 63.0365 167.633 63.0839 167.874 63.4755C168.234 64.0648 168.554 64.6858 168.823 65.3226C168.986 65.7063 168.725 66.0306 168.515 66.3589C167.661 67.684 166.846 69.0327 165.991 70.3538C163.389 74.3724 160.814 78.4147 158.215 82.4372C155.921 85.9851 153.512 89.4539 151.27 93.0335C150.404 94.4178 149.545 95.8141 148.632 97.1668C146.618 100.141 144.566 103.092 142.54 106.058C142.279 106.438 142.034 106.786 141.516 106.774C140.978 105.639 140.397 104.535 139.594 103.562Z" fill="white"/>
<path d="M139.592 103.563C140.391 104.536 140.977 105.635 141.511 106.77C141.558 107.395 141.637 108.016 141.653 108.641C141.74 112.074 139.81 114.839 136.559 115.947C136.084 116.109 135.601 116.235 135.123 116.378C133.588 116.386 132.081 116.227 130.622 115.717C128.956 114.748 127.722 113.372 126.809 111.691C126.753 111.382 126.718 111.07 126.639 110.769C125.539 106.584 128.193 102.313 132.67 101.49C132.979 101.435 133.291 101.391 133.6 101.344C134.514 101.537 135.455 101.415 136.373 101.711C137.595 102.103 138.58 102.843 139.592 103.563ZM133.995 103.29C131.369 102.985 128.533 105.77 128.549 108.831C128.565 112.15 131.219 114.535 134.09 114.491C136.487 114.455 139.545 112.656 139.588 108.922C139.62 105.928 137.373 103.135 133.995 103.29Z" fill="black"/>
<path d="M132.657 43.3707C138.222 43.6199 143.772 46.2779 147.683 51.9419C149.799 55.0112 150.689 58.4721 150.286 62.198C150.045 64.4248 149.202 66.4578 147.992 68.3564C146.224 71.129 144.286 73.7712 142.268 76.3619C141.252 77.6711 140.504 79.1346 139.86 80.6455C139.357 81.8242 139.211 83.074 139.235 84.3556C139.274 86.2502 139.251 88.1487 139.278 90.0433C139.29 90.8146 139.199 91.5621 138.926 92.2741C137.716 95.4502 134.655 96.7119 131.534 95.1179C130.122 94.3981 129.536 93.1166 129.521 91.6966C129.489 88.9912 129.228 86.2739 129.758 83.5724C130.031 82.1841 130.513 80.9184 131.221 79.7041C132.436 77.6236 133.99 75.7884 135.343 73.8068C136.553 72.0348 137.835 70.3103 139.148 68.6135C140.643 66.6793 141.288 64.5474 141.256 62.0951C141.22 59.4016 140.228 57.1747 138.444 55.2643C134.896 51.4712 128.864 51.0124 124.6 54.0777C123.24 55.0547 122.183 56.2769 121.345 57.7126C120.775 58.6936 120.194 59.6745 119.363 60.4734C118.655 61.1538 117.86 61.6047 116.84 61.5968C115.804 61.5849 115.028 61.1696 114.494 60.2638C113.782 59.0495 113.68 57.768 114.004 56.4232C114.305 55.1773 114.846 54.0303 115.515 52.9584C117.58 49.6359 120.135 46.8 123.722 45.0517C125.894 43.9996 128.828 43.3707 132.657 43.3707Z" fill="#212492"/>
<path d="M133.993 103.29C137.367 103.135 139.618 105.928 139.582 108.922C139.539 112.656 136.481 114.451 134.084 114.491C131.213 114.535 128.559 112.149 128.543 108.831C128.535 105.77 131.367 102.985 133.993 103.29Z" fill="#212492"/>
</svg>
