<svg width="300" height="200" viewBox="0 0 300 200" fill="none" xmlns="http://www.w3.org/2000/svg">
<path d="M148.019 55.1458C150.345 55.1497 152.671 55.1497 154.996 55.1537C154.494 56.5143 154.739 56.9573 156.025 57.0127C156.468 57.0324 156.911 57.0166 157.354 57.0166C185.808 57.0166 214.263 57.0166 242.717 57.0166C243.287 57.0166 243.856 57.0245 244.422 57.0364C244.794 57.0443 245.003 57.2579 245.035 57.6139C245.066 57.9896 245.062 58.3733 245.062 58.749C245.062 72.7271 245.062 86.7051 245.062 100.687C245.062 101.067 245.047 101.447 245.019 101.822C244.999 102.103 244.833 102.301 244.552 102.317C243.86 102.348 243.164 102.368 242.468 102.368C213.76 102.368 185.053 102.368 156.345 102.372C154.324 102.372 152.303 102.431 150.278 102.443C149.605 102.447 149.02 102.582 148.66 103.215C148.237 102.455 147.446 102.657 146.789 102.499C146.927 102.079 147.042 101.656 147.208 101.249C149.68 95.1141 151.195 88.7619 151.682 82.1526C152.33 73.3362 151.235 64.765 148.347 56.4154C148.201 56.0001 147.988 55.6046 148.019 55.1458Z" fill="#CCCCCC"/>
<path d="M148.018 55.1457C147.987 55.6045 148.204 56 148.347 56.4153C151.234 64.765 152.33 73.3361 151.681 82.1525C151.194 88.7618 149.68 95.11 147.207 101.249C147.045 101.656 146.927 102.083 146.788 102.499C146.104 103.851 145.428 105.204 144.739 106.553C143.003 109.938 140.934 113.115 138.621 116.132C138.427 116.382 138.217 116.619 138.031 116.876C137.659 117.394 137.663 117.564 138.11 118.027C139.427 119.392 140.756 120.744 142.077 122.105C144.324 124.419 146.583 126.725 148.809 129.058C149.324 129.596 149.794 129.735 150.471 129.367C150.965 129.098 151.527 128.952 152.057 128.754C153.599 128.188 154.905 128.584 156.032 129.727C157.23 130.945 158.437 132.151 159.639 133.366C173.51 147.407 187.37 161.46 201.261 175.478C203.491 177.728 204.812 180.363 205.22 183.475C205.924 188.859 203.033 194.214 198.168 196.658C192.717 199.399 185.835 198.059 181.868 193.989C171.493 183.345 161.051 172.761 150.637 162.152C146.381 157.817 142.133 153.482 137.881 149.147C137.481 148.74 137.106 148.317 136.718 147.897C135.907 147.027 135.721 145.999 136.054 144.899C136.291 144.116 136.619 143.361 136.94 142.605C137.323 141.711 137.351 141.707 136.651 140.972C135.781 140.054 134.883 139.16 134.001 138.258C131.525 135.727 129.049 133.192 126.573 130.66C126.351 130.435 126.138 130.201 125.904 129.988C125.414 129.529 125.295 129.513 124.781 129.893C123.511 130.834 122.273 131.823 120.984 132.733C113.963 137.673 106.238 141.023 97.8493 142.803C85.2516 145.473 72.9309 144.468 60.9819 139.69C46.5648 133.927 35.6996 124.102 28.3388 110.441C25.5068 105.18 23.5331 99.5914 22.3307 93.7257C21.3854 89.1178 20.887 84.4742 20.9899 79.7793C21.1837 70.8799 23.0941 62.368 26.8397 54.2676C30.6962 45.9219 36.1466 38.8063 43.0407 32.7626C44.9906 31.0539 46.8496 29.2424 48.8905 27.6365C56.6785 21.5137 65.4198 17.416 75.0905 15.3276C80.0544 14.2558 85.0855 13.9037 90.1681 14.0066C95.9665 14.1252 101.615 15.0864 107.136 16.7832C116.791 19.7536 125.26 24.7531 132.545 31.7659C138.17 37.1807 142.588 43.4498 145.938 50.4863C146.67 52.021 147.326 53.5912 148.018 55.1457ZM150.736 136.356C150.573 136.392 150.49 136.498 150.577 136.581C150.66 136.66 150.763 136.566 150.783 136.399C150.997 136.364 151.115 136.229 151.163 136.028C152.484 134.889 153.089 133.31 153.746 131.768C153.817 131.602 153.801 131.4 153.809 131.214C153.844 130.577 153.485 130.237 152.899 130.399C152.48 130.514 152.069 130.668 151.669 130.838C151.262 131.012 151.099 131.384 151.376 131.74C152.1 132.67 151.954 133.595 151.491 134.548C151.274 134.999 151.036 135.442 151.107 135.972C150.894 136.016 150.779 136.15 150.736 136.356ZM149.949 137.463C149.755 137.535 149.64 137.677 149.604 137.879C149.399 137.922 149.276 138.053 149.213 138.247C149.007 138.302 148.896 138.44 148.845 138.638C148.718 138.769 148.592 138.895 148.469 139.026C148.271 139.081 148.145 139.208 148.093 139.405C147.967 139.532 147.84 139.659 147.714 139.785C147.591 139.916 147.465 140.046 147.342 140.177C147.247 140.256 147.128 140.319 147.065 140.418C146.974 140.56 147.037 140.671 147.204 140.687C147.239 140.691 147.302 140.6 147.314 140.545C147.338 140.422 147.334 140.299 147.338 140.173C147.556 140.145 147.686 140.022 147.734 139.805C147.943 139.761 148.074 139.639 148.113 139.425C148.327 139.39 148.449 139.263 148.497 139.053C148.71 139.014 148.837 138.887 148.885 138.674C149.094 138.634 149.221 138.504 149.276 138.302C149.474 138.243 149.593 138.108 149.64 137.906C149.774 137.788 149.909 137.669 150.043 137.546C150.091 137.463 150.138 137.384 150.186 137.301C150.107 137.365 150.028 137.416 149.949 137.463ZM38.7571 39.9336L38.7768 39.9138C38.144 40.2658 37.7564 40.8314 37.4281 41.4524C36.6449 42.109 36.0872 42.9515 35.4781 43.7584C31.8471 48.5957 28.9914 53.8523 26.8872 59.5281C24.9214 64.8401 23.6874 70.3222 23.2681 75.9545C22.8053 82.1604 23.2048 88.3267 24.6208 94.4218C25.7718 99.3778 27.4251 104.144 29.7232 108.669C34.2164 117.505 40.4499 124.882 48.4911 130.7C58.3279 137.815 69.3315 141.676 81.4506 142.372C84.3617 142.538 87.257 142.411 90.1602 142.15C97.0938 141.529 103.707 139.746 110.02 136.842C118.002 133.172 124.896 128.034 130.682 121.405C135.171 116.259 138.711 110.536 141.31 104.223C143.664 98.5077 145.087 92.5628 145.701 86.4282C145.934 84.1024 145.985 81.7569 145.791 79.4194C145.811 78.9131 145.855 78.4108 145.847 77.9045C145.78 74.0283 145.135 70.2233 144.241 66.4657C142.168 57.7878 138.348 49.9365 132.85 42.9159C125.782 33.8899 116.918 27.2806 106.191 23.2145C98.1657 20.1729 89.8675 18.832 81.2805 19.3067C77.0958 19.5361 72.9823 20.1729 68.94 21.2408C60.1869 23.5507 52.3317 27.6247 45.3466 33.3757C43.4401 34.9459 41.6603 36.6546 39.9634 38.4503C39.6945 38.7351 39.1882 38.9764 39.4809 39.5341L39.5244 39.5222C39.026 39.19 38.9311 39.633 38.7571 39.9336ZM149.331 134.161C149.865 133.544 149.933 132.946 149.28 132.361C149.094 132.195 148.932 131.997 148.754 131.815C146.08 129.054 143.406 126.294 140.725 123.537C139.625 122.41 138.522 121.286 137.39 120.191C136.92 119.736 136.5 119.846 136.192 120.444C136.081 120.657 136.073 120.926 136.018 121.168C135.887 121.377 135.702 121.567 135.63 121.793C134.467 125.53 133.649 129.347 132.972 133.196C132.838 133.959 133.059 134.493 133.609 135.039C135.705 137.131 137.754 139.271 139.831 141.383C141.017 142.589 141.049 142.613 142.493 141.573C145.02 139.757 147.172 137.558 148.94 134.991C149.114 134.75 149.201 134.442 149.331 134.161ZM72.0607 17.954C69.9486 18.302 67.9907 19.0891 65.9063 19.9712C66.195 20.0503 66.3176 20.1333 66.4165 20.1056C68.2953 19.635 70.1701 19.1524 72.0449 18.6699C73.4134 18.4365 74.778 18.1399 76.1544 17.9817C81.1895 17.4042 86.2286 17.3053 91.2795 17.8274C96.2078 18.3337 101.002 19.4056 105.661 21.0549C113.92 23.9779 121.288 28.3999 127.728 34.3685C134.554 40.697 139.724 48.1646 143.268 56.7634C145.819 62.9416 147.306 69.3689 147.828 76.0376C148.335 82.5164 147.836 88.9042 146.329 95.2208C145.918 96.9413 145.451 98.6461 145.012 100.355C144.87 100.545 144.672 100.715 144.601 100.928C144.368 101.601 143.929 102.226 144.087 102.993C144.925 102.597 144.815 101.727 145.064 101.039C145.103 100.932 145.052 100.798 145.044 100.675C145.155 100.525 145.297 100.39 145.368 100.224C146.709 97.0086 147.682 93.6782 148.43 90.2806C149.513 85.376 149.814 80.4082 149.715 75.4008C149.608 69.9306 148.746 64.583 147.128 59.366C143.537 47.7849 137.173 37.9994 127.878 30.1956C117.27 21.2883 104.993 16.5261 91.1688 15.7469C88.3209 15.5847 85.4929 15.7271 82.657 15.9842C79.0616 16.3204 75.5335 16.9651 72.0607 17.954ZM200.114 192.672C202.099 190.71 203.041 188.269 203.143 185.536C203.27 182.158 202.131 179.235 199.734 176.803C192.191 169.157 184.573 161.595 177.102 153.882C170.508 147.075 163.76 140.418 157.076 133.698C156.728 133.35 156.459 132.883 155.842 132.745C155.316 133.31 155.185 134.038 155.118 134.786C154.442 135.007 154.244 135.672 153.908 136.178C152.614 138.132 151.099 139.892 149.494 141.589C148.358 142.787 147.069 143.8 145.799 144.828C144.332 146.015 142.778 147.102 141.021 147.858C140.756 147.973 140.412 148.044 140.345 148.416C140.4 148.534 140.432 148.669 140.515 148.752C142.829 151.165 145.155 153.565 147.461 155.99C154.07 162.947 161.047 169.545 167.633 176.534C173.004 182.233 178.652 187.668 184.182 193.217C184.581 193.617 184.981 194.056 185.459 194.337C188.576 196.148 191.839 197.034 195.383 195.646C197.135 194.954 198.86 194.182 200.114 192.672Z" fill="black"/>
<path d="M148.66 103.215C149.024 102.586 149.605 102.447 150.278 102.443C152.299 102.431 154.32 102.372 156.345 102.372C185.053 102.368 213.76 102.372 242.468 102.368C243.164 102.368 243.856 102.352 244.552 102.317C244.833 102.305 244.999 102.107 245.019 101.822C245.047 101.443 245.063 101.067 245.063 100.687C245.067 86.7092 245.067 72.7311 245.063 58.7491C245.063 58.3694 245.067 57.9897 245.035 57.614C245.003 57.258 244.794 57.0444 244.422 57.0365C243.852 57.0246 243.283 57.0167 242.717 57.0167C214.263 57.0167 185.808 57.0167 157.354 57.0167C156.911 57.0167 156.468 57.0325 156.025 57.0128C154.735 56.9574 154.494 56.5144 154.997 55.1538C156.496 54.8413 158.018 54.9402 159.529 54.9402C182.237 54.9441 204.948 54.9679 227.655 54.9797C244.228 54.9876 260.801 54.9837 277.374 54.9837C279.335 54.9837 281.297 55.0588 283.22 55.4781C288.832 56.6963 292.776 59.8922 294.761 65.3545C295.24 66.6676 295.469 68.0401 295.465 69.4443C295.453 74.3805 295.441 79.3127 295.434 84.249C295.434 86.3374 295.449 88.4258 295.461 90.5142C295.461 90.7001 295.461 90.8978 295.513 91.0719C295.564 91.2498 295.691 91.412 295.912 91.3843C296.019 91.3685 296.157 91.3171 296.209 91.234C297.296 89.5451 297.858 87.6861 297.913 85.6847C297.961 84.0393 297.945 82.3939 297.945 80.7485C297.949 75.749 297.937 70.7535 297.949 65.754C297.953 63.8989 297.688 62.1072 296.913 60.3985C295.236 56.7042 292.376 54.4141 288.551 53.2236C286.404 52.5551 284.189 52.5037 281.978 52.4998C271.097 52.48 260.219 52.4839 249.338 52.4839C219.796 52.4839 190.258 52.4919 160.716 52.4919C157.678 52.4919 154.645 52.4681 151.607 52.4483C151.164 52.4444 150.721 52.4483 150.282 52.3969C149.811 52.3376 149.479 51.9342 149.471 51.4912C149.463 51.0403 149.783 50.625 150.258 50.5775C150.824 50.5221 151.393 50.5182 151.963 50.5182C183.4 50.5023 214.836 50.4865 246.273 50.4746C258.23 50.4707 270.183 50.4707 282.14 50.4746C283.975 50.4746 285.81 50.5538 287.614 50.9176C292.186 51.8432 295.786 54.2045 298.139 58.2943C299.393 60.4697 300.01 62.831 300.002 65.3624C299.982 71.944 300.014 78.5217 299.99 85.1033C299.974 89.0191 298.538 92.3732 295.813 95.1696C294.358 96.6607 292.851 98.1083 291.391 99.5995C288.709 102.341 285.407 103.768 281.645 104.184C279.826 104.385 277.995 104.449 276.155 104.449C236.812 104.433 197.465 104.437 158.121 104.441C155.78 104.441 153.442 104.468 151.101 104.484C150.721 104.488 150.341 104.5 149.961 104.476C149.06 104.421 148.996 104.35 148.66 103.215ZM247.092 79.7716C247.092 86.4798 247.092 93.184 247.092 99.8922C247.092 100.398 247.084 100.905 247.1 101.411C247.131 102.277 247.191 102.329 248.128 102.364C248.318 102.372 248.508 102.368 248.698 102.368C258.44 102.368 268.181 102.388 277.919 102.344C279.68 102.337 281.455 102.301 283.196 101.878C287.321 100.877 290.331 98.4801 292.265 94.7226C293.12 93.0614 293.432 91.2578 293.424 89.3988C293.408 85.665 293.377 81.9351 293.373 78.2013C293.373 75.4801 293.404 72.7588 293.424 70.0415C293.436 68.7046 293.266 67.3915 292.835 66.1218C291.51 62.214 288.848 59.6193 285.043 58.1084C282.693 57.1749 280.229 57.0523 277.765 57.0444C268.087 57.0088 258.408 57.0286 248.733 57.0246C247.1 57.0246 247.088 56.9574 247.088 58.7056C247.096 65.7223 247.092 72.747 247.092 79.7716Z" fill="black"/>
<path d="M33.0996 34.8512C33.1114 35.3733 32.7871 35.6976 32.3916 35.7648C31.7627 35.8716 31.3078 35.5631 30.8569 35.1953C29.4488 34.0324 28.0328 32.8775 26.6168 31.7225C23.9351 29.5273 21.2534 27.3361 18.5757 25.1369C18.1366 24.777 17.7134 24.4013 17.3021 24.0136C17.0054 23.7328 16.8828 23.3768 17.1241 22.9971C17.3495 22.6451 17.7174 22.5304 18.109 22.566C18.5638 22.6095 18.9119 22.8943 19.2599 23.1791C20.2329 23.978 21.2178 24.7612 22.1948 25.5602C25.4619 28.23 28.7289 30.9038 31.9921 33.5776C32.2848 33.8188 32.5616 34.072 32.8425 34.3291C33.0402 34.5071 33.0956 34.7483 33.0996 34.8512Z" fill="black"/>
<path d="M44.0619 2.00228C44.5524 1.9746 44.9242 2.20005 45.1575 2.60744C45.4384 3.0979 45.6876 3.60814 45.9328 4.12232C47.9025 8.27539 49.8683 12.4285 51.8341 16.5815C52.0239 16.981 52.2296 17.3726 52.3799 17.7839C52.5619 18.2784 52.3918 18.749 52.0121 18.927C51.577 19.1248 51.1103 19.1287 50.782 18.7846C50.4853 18.4761 50.2757 18.0687 50.0859 17.6771C49.3383 16.1504 48.6066 14.6157 47.8788 13.0811C46.4747 10.1225 45.0745 7.16395 43.6783 4.20539C43.5161 3.86523 43.346 3.52507 43.2274 3.1691C43.0177 2.55998 43.4251 2.01415 44.0619 2.00228Z" fill="black"/>
<path d="M2.70364 58.484C5.23107 58.7965 8.04725 59.1485 10.8634 59.4847C12.8648 59.722 14.8701 59.9594 16.8359 60.4261C17.1365 60.4973 17.4332 60.612 17.7101 60.7544C17.9513 60.8809 18.0265 61.1539 18.0107 61.407C17.9909 61.6601 17.8604 61.8777 17.6112 62.0082C17.2591 62.1941 16.8913 62.1862 16.5076 62.1269C15.1431 61.9212 13.7706 61.7392 12.406 61.5217C8.85413 60.9561 5.27854 60.5803 1.70294 60.2481C1.32719 60.2125 0.947481 60.1729 0.583593 60.0899C0.14851 59.991 -0.0215684 59.6548 0.00216338 59.2395C0.0258952 58.8044 0.286946 58.5236 0.714119 58.4959C1.27182 58.4563 1.84138 58.484 2.70364 58.484Z" fill="black"/>
<path d="M145.797 79.4115C145.99 81.749 145.935 84.0945 145.706 86.4203C145.093 92.5549 143.669 98.5037 141.315 104.215C138.717 110.528 135.177 116.251 130.687 121.397C124.901 128.026 118.011 133.164 110.025 136.835C103.712 139.738 97.0989 141.522 90.1653 142.143C87.2582 142.404 84.3629 142.53 81.4557 142.364C69.3406 141.668 58.337 137.811 48.4962 130.692C40.459 124.878 34.2215 117.497 29.7283 108.661C27.4263 104.136 25.773 99.3739 24.6259 94.4139C23.21 88.3188 22.8105 82.1525 23.2732 75.9466C23.6925 70.3143 24.9266 64.8322 26.8923 59.5202C28.9926 53.8444 31.8523 48.5878 35.4833 43.7505C36.0884 42.9436 36.6461 42.1011 37.4332 41.4445C38.1531 41.1716 38.7662 40.7998 38.778 39.9059L38.7582 39.9257C39.1103 39.9652 39.4069 39.894 39.5335 39.5143L39.49 39.5262C39.9923 39.5855 40.3245 39.2849 40.641 38.9725C42.8639 36.797 45.4229 35.0527 47.9622 33.2887C51.8147 30.6149 55.9361 28.4158 60.2395 26.5647C62.672 25.5165 65.1915 24.6938 67.711 23.8672C70.0605 23.0919 72.4891 22.7083 74.8781 22.1585C77.093 21.6482 79.3752 21.4821 81.6258 21.3832C84.4539 21.2606 87.2858 21.2764 90.1337 21.6047C92.9657 21.9291 95.7423 22.4393 98.4912 23.1038C103.878 24.4011 108.894 26.6438 113.573 29.5826C117.967 32.3434 122.077 35.4918 125.621 39.3205C126.261 40.0127 126.815 40.7919 127.468 41.4722C129.489 43.5764 131.138 45.9694 132.799 48.3465C134.935 51.4119 136.703 54.6908 138.376 58.0291C141.165 63.5902 143.194 69.4125 144.733 75.4285C145.073 76.7574 145.231 78.1418 145.797 79.4115ZM37.275 66.1691L37.2987 66.1296C36.4839 67.4111 36.1438 68.8666 35.7918 70.3143C35.4793 71.663 35.1273 73.0039 34.8662 74.3645C34.617 75.6618 34.3243 76.9671 34.2769 78.2802C34.1187 82.8209 33.9921 87.3735 34.9967 91.8548C35.6336 94.6829 36.3495 97.4911 37.3858 100.208C38.1294 102.162 39.1024 104.006 40.0398 105.868C42.0411 109.847 44.7584 113.328 47.7526 116.587C49.0262 117.976 50.462 119.241 51.9452 120.412C55.4733 123.197 59.2625 125.594 63.3998 127.385C64.8435 128.014 66.303 128.631 67.806 129.098C70.1515 129.83 72.5247 130.463 74.9493 130.906C77.6151 131.392 80.2889 131.768 83.0102 131.815C86.1072 131.867 89.1646 131.542 92.2339 131.127C94.8761 130.767 97.4312 130.13 99.9507 129.323C104.183 127.971 108.146 126.044 111.852 123.58C113.375 122.564 114.831 121.476 116.258 120.321C118.236 118.723 119.917 116.84 121.748 115.104C122.203 114.673 122.357 114.163 122.243 113.558C122.425 113.304 122.591 113.035 122.793 112.794C124.264 111.054 125.644 109.242 126.89 107.336C131.34 100.533 133.947 93.0612 134.71 84.9924C135.323 78.5136 134.753 72.0902 132.799 65.8527C130.011 56.9612 125.213 49.3512 118.2 43.1651C110.887 36.714 102.395 32.7468 92.7877 31.2557C86.6134 30.2985 80.4353 30.4962 74.3124 31.8687C66.5838 33.6051 59.6581 36.9592 53.5392 42.0022C47.009 47.3854 42.1677 53.9907 39.0114 61.842C38.6831 62.6608 38.3271 63.4676 37.983 64.2824C37.4728 64.8124 37.2473 65.4413 37.275 66.1691Z" fill="#D52B1E"/>
<path d="M200.112 192.671C198.859 194.182 197.134 194.954 195.37 195.646C191.826 197.034 188.567 196.152 185.446 194.337C184.964 194.056 184.568 193.617 184.169 193.217C178.639 187.672 172.991 182.233 167.62 176.534C161.034 169.545 154.057 162.951 147.448 155.99C145.146 153.565 142.816 151.169 140.502 148.752C140.419 148.669 140.391 148.534 140.332 148.416C140.399 148.044 140.743 147.973 141.008 147.858C142.765 147.106 144.319 146.015 145.786 144.828C147.056 143.8 148.349 142.787 149.481 141.589C151.086 139.892 152.601 138.132 153.895 136.178C154.227 135.672 154.429 135.011 155.105 134.786C155.698 135.517 156.252 136.293 156.897 136.977C158.586 138.761 160.207 140.62 161.936 142.352C168.794 149.234 175.51 156.255 182.314 163.197C182.844 163.738 183.378 164.276 183.919 164.806C189.283 170.059 194.239 175.715 199.634 180.936C201.457 182.7 201.738 185.038 201.469 187.411C201.311 188.839 200.951 190.255 200.267 191.56C200.116 191.88 200.164 192.3 200.112 192.671Z" fill="#404040"/>
<path d="M145.798 79.4116C145.232 78.1419 145.074 76.7576 144.734 75.4286C143.195 69.4126 141.166 63.5904 138.377 58.0292C136.704 54.6909 134.936 51.412 132.8 48.3466C131.143 45.9655 129.49 43.5765 127.469 41.4723C126.816 40.792 126.262 40.0128 125.622 39.3206C122.078 35.4919 117.968 32.3435 113.574 29.5827C108.895 26.6439 103.879 24.4012 98.4922 23.1039C95.7432 22.4434 92.9626 21.9331 90.1346 21.6048C87.2868 21.2765 84.4548 21.2607 81.6268 21.3833C79.3762 21.4822 77.094 21.6444 74.879 22.1586C72.4861 22.7123 70.0575 23.096 67.712 23.8673C65.1925 24.6979 62.6769 25.5206 60.2404 26.5648C55.9371 28.4159 51.8156 30.615 47.9632 33.2888C45.4239 35.0529 42.8608 36.7932 40.6419 38.9726C40.3215 39.285 37.7664 41.6819 37.2641 41.6226C36.9714 41.061 39.7045 38.7234 39.9735 38.4426C41.6703 36.6508 43.4502 34.9382 45.3566 33.3679C52.3417 27.6169 60.1969 23.539 68.95 21.233C72.9923 20.1651 77.1058 19.5323 81.2905 19.2989C89.8775 18.8243 98.1757 20.1651 106.201 23.2067C116.928 27.2728 125.796 33.8821 132.86 42.9081C138.358 49.9327 142.178 57.78 144.251 66.458C145.149 70.2155 145.79 74.0165 145.857 77.8967C145.865 78.403 145.817 78.9053 145.798 79.4116Z" fill="#EF6261"/>
<path d="M145.018 100.363C145.457 98.6501 145.924 96.9453 146.335 95.2287C147.842 88.9161 148.341 82.5283 147.834 76.0455C147.312 69.3769 145.821 62.9495 143.274 56.7713C139.726 48.1765 134.56 40.7049 127.734 34.3764C121.294 28.4079 113.926 23.9858 105.667 21.0629C101.008 19.4135 96.2137 18.3416 91.2854 17.8354C86.2345 17.3172 81.1954 17.4121 76.1603 17.9896C74.7839 18.1478 73.4193 18.4445 72.0508 18.6778C72.0547 18.4366 72.0587 18.1992 72.0626 17.958C75.5314 16.9691 79.0635 16.3244 82.6589 15.9961C85.4949 15.7351 88.3269 15.5966 91.1707 15.7588C104.998 16.538 117.272 21.3002 127.88 30.2075C137.175 38.0113 143.539 47.7968 147.13 59.3779C148.748 64.5949 149.61 69.9425 149.717 75.4127C149.816 80.424 149.515 85.3919 148.432 90.2925C147.68 93.6901 146.707 97.0205 145.37 100.236C145.303 100.402 145.157 100.537 145.046 100.687C145.129 100.568 145.121 100.462 145.018 100.363Z" fill="#9B1D1F"/>
<path d="M200.113 192.672C200.16 192.3 200.113 191.877 200.275 191.564C200.959 190.255 201.319 188.839 201.477 187.415C201.742 185.042 201.465 182.704 199.642 180.94C194.243 175.715 189.291 170.063 183.928 164.81C183.386 164.28 182.852 163.743 182.322 163.201C175.519 156.263 168.803 149.242 161.944 142.356C160.216 140.624 158.594 138.769 156.905 136.981C156.26 136.297 155.707 135.521 155.113 134.79C155.181 134.042 155.311 133.314 155.837 132.749C156.458 132.887 156.727 133.354 157.071 133.702C163.76 140.418 170.503 147.079 177.097 153.886C184.568 161.599 192.19 169.161 199.729 176.807C202.126 179.239 203.265 182.162 203.139 185.54C203.04 188.273 202.102 190.71 200.113 192.672Z" fill="#B2B2B2"/>
<path d="M149.331 134.161C149.2 134.442 149.113 134.75 148.939 135.003C147.171 137.57 145.019 139.769 142.492 141.585C141.044 142.625 141.013 142.601 139.83 141.395C137.754 139.283 135.709 137.139 133.608 135.051C133.063 134.505 132.837 133.971 132.972 133.208C133.648 129.355 134.467 125.538 135.63 121.804C135.701 121.579 135.887 121.385 136.017 121.18C136.282 121.176 136.496 121.271 136.666 121.484C137.401 122.414 138.074 123.41 138.897 124.257C141.914 127.354 144.992 130.399 148.037 133.473C148.405 133.833 148.801 134.117 149.331 134.161Z" fill="#B2B2B2"/>
<path d="M149.329 134.161C148.799 134.117 148.404 133.833 148.036 133.465C144.986 130.395 141.913 127.35 138.895 124.249C138.072 123.403 137.4 122.406 136.664 121.476C136.494 121.263 136.281 121.168 136.016 121.172C136.071 120.93 136.083 120.661 136.19 120.448C136.498 119.851 136.917 119.74 137.388 120.195C138.523 121.286 139.627 122.41 140.722 123.541C143.404 126.294 146.074 129.059 148.752 131.819C148.926 132.001 149.088 132.195 149.278 132.365C149.93 132.947 149.863 133.544 149.329 134.161Z" fill="white"/>
<path d="M151.105 135.972C151.038 135.446 151.275 135.003 151.493 134.552C151.956 133.599 152.102 132.674 151.378 131.744C151.101 131.388 151.264 131.016 151.671 130.842C152.07 130.672 152.482 130.518 152.901 130.403C153.482 130.241 153.846 130.581 153.811 131.218C153.799 131.404 153.815 131.61 153.748 131.772C153.091 133.314 152.486 134.892 151.165 136.032L151.105 135.972Z" fill="#404040"/>
<path d="M72.0607 17.9541C72.0567 18.1954 72.0528 18.4327 72.0488 18.674C70.1701 19.1565 68.2952 19.6391 66.4165 20.1097C66.3176 20.1335 66.195 20.0544 65.9062 19.9753C67.9907 19.0893 69.9525 18.3022 72.0607 17.9541Z" fill="#9B1D1F"/>
<path d="M145.018 100.363C145.121 100.462 145.129 100.568 145.049 100.683C145.057 100.806 145.109 100.94 145.069 101.047C144.82 101.735 144.931 102.605 144.092 103.001C143.934 102.234 144.373 101.609 144.606 100.936C144.678 100.723 144.875 100.553 145.018 100.363Z" fill="black"/>
<path d="M147.342 140.177C147.334 140.299 147.338 140.426 147.318 140.549C147.306 140.604 147.243 140.691 147.207 140.691C147.041 140.679 146.978 140.564 147.069 140.422C147.132 140.323 147.251 140.26 147.342 140.177Z" fill="#404040"/>
<path d="M147.731 139.809C147.688 140.022 147.557 140.149 147.336 140.177L147.34 140.181C147.463 140.05 147.589 139.92 147.712 139.789L147.731 139.809Z" fill="#404040"/>
<path d="M148.114 139.429C148.075 139.643 147.944 139.765 147.735 139.809L147.715 139.789C147.841 139.663 147.968 139.536 148.095 139.409L148.114 139.429Z" fill="#404040"/>
<path d="M148.884 138.682C148.837 138.891 148.71 139.022 148.496 139.057L148.465 139.026C148.591 138.895 148.718 138.769 148.841 138.638C148.845 138.642 148.884 138.682 148.884 138.682Z" fill="#404040"/>
<path d="M149.275 138.31C149.22 138.512 149.093 138.638 148.883 138.682L148.844 138.642C148.895 138.444 149.006 138.302 149.212 138.25L149.275 138.31Z" fill="#404040"/>
<path d="M149.211 138.25C149.274 138.057 149.397 137.926 149.603 137.883L149.634 137.914C149.587 138.116 149.468 138.246 149.27 138.31C149.274 138.31 149.211 138.25 149.211 138.25Z" fill="#404040"/>
<path d="M149.605 137.883C149.641 137.677 149.756 137.539 149.95 137.468L150.041 137.559C149.906 137.677 149.772 137.796 149.637 137.918C149.637 137.914 149.605 137.883 149.605 137.883Z" fill="#404040"/>
<path d="M149.949 137.463C150.028 137.412 150.103 137.361 150.183 137.309C150.135 137.392 150.088 137.471 150.04 137.554C150.04 137.558 149.949 137.463 149.949 137.463Z" fill="#404040"/>
<path d="M150.783 136.403C150.763 136.566 150.66 136.66 150.577 136.585C150.49 136.502 150.577 136.395 150.736 136.36C150.74 136.36 150.783 136.403 150.783 136.403Z" fill="#404040"/>
<path d="M151.162 136.028C151.114 136.233 150.995 136.364 150.782 136.403L150.738 136.36C150.782 136.154 150.896 136.016 151.11 135.976C151.106 135.972 151.162 136.028 151.162 136.028Z" fill="#404040"/>
<path d="M148.094 139.409C148.145 139.212 148.272 139.085 148.47 139.03C148.47 139.03 148.497 139.057 148.501 139.061C148.454 139.271 148.331 139.398 148.117 139.433C148.114 139.429 148.094 139.409 148.094 139.409Z" fill="#404040"/>
<path d="M247.09 79.7715C247.09 72.7469 247.094 65.7262 247.086 58.7016C247.086 56.9494 247.098 57.0206 248.731 57.0206C258.41 57.0245 268.089 57.0008 277.763 57.0404C280.227 57.0483 282.688 57.1709 285.041 58.1043C288.846 59.6153 291.512 62.2099 292.833 66.1178C293.264 67.3874 293.434 68.7006 293.422 70.0375C293.403 72.7587 293.371 75.48 293.371 78.1973C293.375 81.9311 293.403 85.6609 293.422 89.3947C293.43 91.2537 293.122 93.0573 292.263 94.7186C290.333 98.4761 287.319 100.873 283.194 101.874C281.454 102.297 279.678 102.333 277.918 102.34C268.176 102.384 258.434 102.364 248.696 102.364C248.506 102.364 248.316 102.368 248.126 102.36C247.185 102.325 247.126 102.273 247.098 101.407C247.082 100.901 247.09 100.394 247.09 99.8881C247.09 93.1839 247.09 86.4757 247.09 79.7715ZM269.58 90.4152C270.035 90.4429 270.442 90.3045 270.853 90.1225C272.04 89.5965 272.954 88.75 273.776 87.7731C276.537 84.4862 279.31 81.2112 282.071 77.9244C282.395 77.5407 282.715 77.1373 282.957 76.7022C283.732 75.3139 283.467 73.5735 282.355 72.5293C281.141 71.3823 279.622 71.1845 278.186 72.0389C277.759 72.292 277.372 72.6322 277.024 72.9921C276.411 73.6249 275.837 74.2973 275.256 74.9658C273.519 76.9711 271.799 78.9844 270.058 80.9858C269.714 81.3773 269.449 81.3734 269.113 81.0016C268.559 80.3964 268.025 79.7715 267.491 79.1505C265.755 77.1491 264.019 75.1438 262.29 73.1384C261.914 72.7034 261.503 72.3237 261.001 72.0389C259.549 71.2083 258.046 71.3704 256.816 72.5135C255.76 73.4905 255.455 75.1517 256.116 76.5202C256.306 76.9158 256.555 77.2915 256.84 77.6238C259.763 81.1044 262.701 84.5732 265.628 88.0499C266.372 88.9359 267.258 89.6202 268.298 90.1225C268.714 90.3084 269.125 90.4429 269.58 90.4152Z" fill="#D6E3F2"/>
<path d="M37.9761 64.2824C38.3202 63.4676 38.6762 62.6607 39.0044 61.842C42.1568 53.9907 46.9981 47.3814 53.5323 42.0022C59.6511 36.9592 66.5769 33.6051 74.3055 31.8687C80.4283 30.4962 86.6065 30.2945 92.7807 31.2557C102.388 32.7468 110.88 36.71 118.194 43.1651C125.202 49.3512 130.004 56.9612 132.793 65.8527C134.75 72.0941 135.316 78.5136 134.703 84.9924C133.94 93.0572 131.333 100.533 126.883 107.336C125.637 109.242 124.253 111.054 122.786 112.794C122.584 113.032 122.418 113.3 122.236 113.558C121.904 113.846 121.548 114.111 121.247 114.428C119.633 116.129 117.901 117.699 116.062 119.154C109.531 124.32 102.135 127.611 93.9713 129.094C86.7173 130.411 79.4949 130.103 72.3556 128.18C62.3565 125.487 53.9515 120.242 47.1998 112.391C42.8965 107.391 39.748 101.727 37.7625 95.4304C36.6748 91.9814 35.9786 88.4572 35.6543 84.85C35.3853 81.8796 35.4012 78.9249 35.6424 75.9506C35.7967 74.056 36.2278 72.2088 36.3939 70.3182C36.7816 68.9418 37.2839 67.589 37.3037 66.1335L37.2799 66.1731C37.7902 65.643 37.9207 64.9746 37.9761 64.2824ZM79.396 123.462C80.6221 123.893 81.8839 124.142 83.1852 124.154C87.979 124.901 92.7491 124.672 97.5034 123.806C104.575 122.516 111.015 119.744 116.849 115.551C118.138 114.625 119.337 113.609 120.401 112.43C122.782 109.796 124.87 106.944 126.595 103.839C127.757 101.747 128.924 99.6468 129.529 97.2973C130.491 95.5728 130.934 93.6624 131.396 91.7797C133.236 84.3477 133.334 76.8682 131.551 69.4243C128.608 57.1471 121.86 47.4526 111.398 40.3805C105.984 36.7219 100.003 34.3527 93.5916 33.2056C89.6125 32.4937 85.586 32.2801 81.5121 32.6084C74.8474 33.1463 68.6336 35.0488 62.7363 38.1141C62.4119 38.2842 62.0204 38.3871 61.8384 38.7668C58.7612 40.2975 55.9371 42.1881 53.6509 44.7828C44.7278 54.9163 40.6617 66.7624 41.5121 80.2144C42.0658 88.9833 44.9928 96.9967 50.0279 104.211C51.1433 105.809 52.2349 107.443 53.7498 108.724C54.1018 109.163 54.4183 109.638 54.8098 110.041C58.7651 114.088 63.2623 117.394 68.3686 119.839C69.836 120.543 71.2876 121.314 72.9172 121.626C74.9819 122.58 77.1375 123.209 79.396 123.462ZM98.8482 126.072C100.055 125.815 101.221 125.463 102.376 124.787C102.131 124.708 102.001 124.621 101.898 124.644C100.747 124.905 99.5957 125.186 98.4447 125.459C62.5583 132.049 32.5257 100.39 40.638 65.2752C41.1324 63.9264 41.5635 62.5658 41.6861 61.1142C40.7725 62.3562 40.3097 63.7801 39.9498 65.2436C38.3479 70.2154 37.5212 75.294 37.5528 80.5387C37.5884 86.9582 38.8146 93.1087 41.3658 98.9823C46.6303 111.105 55.4071 119.676 67.6329 124.696C71.3944 126.238 75.3062 127.203 79.3446 127.725C82.8134 128.172 86.2901 128.176 89.7549 127.884C92.8401 127.627 95.8817 126.994 98.8482 126.072Z" fill="black"/>
<path d="M36.3915 70.3143C36.2254 72.2009 35.7943 74.0481 35.64 75.9466C35.3987 78.921 35.3829 81.8756 35.6519 84.846C35.9802 88.4533 36.6723 91.9774 37.76 95.4265C39.7456 101.727 42.898 107.387 47.1974 112.387C53.9491 120.234 62.3581 125.479 72.3531 128.176C79.4924 130.103 86.7148 130.411 93.9688 129.09C102.133 127.607 109.525 124.32 116.059 119.15C117.898 117.695 119.627 116.125 121.245 114.424C121.545 114.107 121.901 113.842 122.233 113.554C122.348 114.159 122.194 114.673 121.739 115.1C119.908 116.837 118.227 118.719 116.249 120.317C114.821 121.468 113.366 122.56 111.843 123.576C108.141 126.041 104.174 127.967 99.9413 129.319C97.4218 130.126 94.8667 130.763 92.2245 131.123C89.1592 131.538 86.1017 131.867 83.0008 131.811C80.2835 131.764 77.6058 131.388 74.9399 130.902C72.5192 130.459 70.1421 129.826 67.7966 129.094C66.2975 128.627 64.838 128.006 63.3904 127.381C59.2532 125.586 55.4679 123.193 51.9358 120.408C50.4526 119.237 49.0168 117.976 47.7432 116.583C44.753 113.324 42.0357 109.844 40.0304 105.865C39.093 104.006 38.1239 102.162 37.3764 100.204C36.3401 97.4832 35.6202 94.6789 34.9874 91.8509C33.9827 87.3695 34.1093 82.8209 34.2675 78.2763C34.315 76.9671 34.6037 75.6579 34.8569 74.3605C35.1219 73.0039 35.4699 71.6591 35.7824 70.3103C35.992 70.3143 36.1898 70.3143 36.3915 70.3143Z" fill="#EF6261"/>
<path d="M36.3902 70.3143C36.1925 70.3143 35.9907 70.3143 35.793 70.3143C36.145 68.8667 36.4851 67.4112 37.2999 66.1296C37.2802 67.5852 36.7778 68.9379 36.3902 70.3143Z" fill="#EF6261"/>
<path d="M37.9758 64.2825C37.9204 64.9786 37.7899 65.6431 37.2757 66.1692C37.248 65.4414 37.4735 64.8125 37.9758 64.2825Z" fill="#EF6261"/>
<path d="M269.581 90.4151C269.127 90.4428 268.715 90.3083 268.308 90.1145C267.268 89.6161 266.382 88.9279 265.638 88.0419C262.711 84.5652 259.772 81.0964 256.849 77.6157C256.568 77.2795 256.315 76.9038 256.126 76.5122C255.465 75.1397 255.77 73.4824 256.826 72.5055C258.056 71.3663 259.559 71.2002 261.01 72.0308C261.513 72.3196 261.924 72.6953 262.3 73.1304C264.032 75.1397 265.765 77.1411 267.501 79.1425C268.039 79.7634 268.573 80.3884 269.123 80.9935C269.459 81.3614 269.724 81.3693 270.068 80.9777C271.808 78.9803 273.533 76.9631 275.265 74.9578C275.843 74.2893 276.42 73.6169 277.033 72.9841C277.381 72.6241 277.769 72.284 278.196 72.0308C279.632 71.1765 281.151 71.3743 282.365 72.5213C283.472 73.5655 283.741 75.3058 282.966 76.6941C282.721 77.1292 282.401 77.5327 282.08 77.9163C279.319 81.2032 276.547 84.4821 273.786 87.765C272.963 88.742 272.05 89.5884 270.863 90.1145C270.444 90.3043 270.036 90.4428 269.581 90.4151ZM281.344 75.1713C281.384 74.5029 281.091 73.9689 280.64 73.7751C280.079 73.5338 279.501 73.5338 279.035 73.9452C278.513 74.4001 278.03 74.9063 277.575 75.4324C275.831 77.4338 274.083 79.4312 272.374 81.4642C271.717 82.2434 270.958 82.904 270.21 83.5803C269.846 83.9086 269.415 83.8967 268.976 83.6634C268.339 83.3272 267.92 82.7774 267.465 82.2474C265.365 79.803 263.253 77.3665 261.141 74.9301C260.852 74.5978 260.551 74.2656 260.211 73.9847C259.646 73.5141 258.791 73.5101 258.281 73.9294C257.755 74.3645 257.672 75.1041 258.111 75.8161C258.376 76.2432 258.677 76.6546 259.001 77.0422C261.647 80.1867 264.297 83.3272 266.955 86.4598C267.323 86.8909 267.718 87.3102 268.161 87.6622C269.091 88.3979 270.009 88.4176 270.938 87.7017C271.433 87.322 271.879 86.8553 272.287 86.3767C274.866 83.343 277.429 80.2935 279.992 77.2439C280.356 76.8088 280.704 76.354 281.02 75.8833C281.194 75.6262 281.281 75.3177 281.344 75.1713Z" fill="black"/>
<path d="M129.534 97.2974C128.929 99.6429 127.762 101.747 126.599 103.839C124.874 106.944 122.786 109.792 120.405 112.43C119.341 113.609 118.139 114.626 116.853 115.551C111.019 119.744 104.58 122.516 97.5077 123.806C92.7534 124.672 87.9833 124.898 83.1895 124.154C83.2686 123.925 83.3042 123.66 83.4387 123.466C84.7202 121.646 86.0057 119.827 87.3149 118.027C87.6867 117.517 88.015 117.007 88.1257 116.378C88.6043 116.235 89.0869 116.105 89.5615 115.947C92.8128 114.843 94.743 112.078 94.6559 108.641C94.6401 108.016 94.561 107.395 94.5135 106.77C95.0317 106.786 95.2809 106.434 95.538 106.054C97.5631 103.088 99.6159 100.137 101.629 97.1629C102.547 95.8102 103.401 94.414 104.267 93.0296C106.51 89.4501 108.923 85.9813 111.213 82.4334C113.811 78.4108 116.386 74.3725 118.989 70.3499C119.847 69.0289 120.658 67.6762 121.512 66.3551C121.726 66.0268 121.983 65.6985 121.821 65.3188C121.548 64.682 121.232 64.061 120.872 63.4717C120.634 63.0801 120.057 63.0326 119.685 63.2976C119.321 63.5587 119.08 63.9226 118.831 64.2944C116.406 67.9056 113.966 71.5049 111.525 75.1003C108.907 78.9606 106.296 82.825 103.666 86.6735C100.039 91.9815 96.6494 97.4517 92.884 102.669C92.7099 102.91 92.6862 103.258 92.5913 103.559C91.5787 102.839 90.5938 102.095 89.3716 101.704C88.454 101.407 87.5127 101.53 86.599 101.336C86.4605 100.505 87.1211 100.023 87.4533 99.4016C87.7342 98.8795 88.2246 98.4484 88.0466 97.7641C88.4619 97.6217 88.8693 97.4517 89.2926 97.3449C91.9228 96.6685 94.4938 93.8444 94.3276 90.3994C94.292 89.6558 94.1892 88.8924 94.4305 88.1528C94.9249 88.1765 95.2136 87.9313 95.4905 87.5199C96.7958 85.5897 98.1722 83.703 99.4695 81.7649C103.156 76.2631 106.815 70.7415 110.481 65.2278C112.229 62.6015 113.978 59.9791 115.718 57.3449C116.367 56.36 116.371 56.2453 115.548 55.4108C114.618 54.4655 113.819 53.3975 112.914 52.4483C111.304 50.7672 109.544 49.2207 107.768 47.7098C106.332 46.4916 104.782 45.4039 103.275 44.2647C102.772 43.885 102.266 43.5014 101.728 43.177C101.182 42.8448 100.498 42.8448 100.17 43.3273C99.5407 44.2489 98.4965 44.9055 98.3265 46.1237C98.1564 46.0407 97.9705 45.9853 97.8241 45.8745C93.584 42.6351 88.7981 41.1559 83.4783 41.3694C78.5341 41.5672 74.2426 43.3036 70.7145 46.8119C68.6301 48.8845 67.0677 51.3368 65.711 53.9196C64.829 55.6006 64.5917 57.4161 64.9595 59.2711C65.9246 64.1559 70.6314 64.6385 73.3527 62.3484C74.1319 61.6918 74.7924 60.9324 75.3343 60.0662C75.7338 59.4214 76.1293 58.7728 76.5367 58.132C77.4029 56.7595 78.6014 55.7509 80.0411 55.0231C83.8461 53.1009 88.3868 54.2716 90.7402 57.776C89.8779 57.8472 89.4508 58.5117 89.0038 59.109C88.5925 59.6627 88.2642 60.2797 87.8686 60.8454C85.3412 64.4447 82.7268 67.9847 80.2942 71.6473C78.5539 74.2617 76.6356 76.7496 74.9585 79.4076C73.2498 82.113 71.3038 84.6681 69.4607 87.2905C67.1152 90.6327 64.7657 93.971 62.4321 97.3211C60.8539 99.5915 59.3074 101.882 57.7332 104.16C56.8749 105.402 55.9652 106.604 55.1385 107.866C54.7905 108.396 54.3791 108.681 53.766 108.712C52.2551 107.435 51.1595 105.797 50.0441 104.199C45.009 96.9889 42.0821 88.9715 41.5283 80.2026C40.6779 66.7546 44.744 54.9045 53.6671 44.771C55.9533 42.1763 58.7774 40.2857 61.8546 38.755C62.4281 38.8341 62.9779 38.7787 63.5277 38.5731C64.3544 38.2606 65.1968 37.9956 66.0314 37.7187C67.7085 37.161 69.433 36.7417 71.1733 36.5598C73.1707 36.3502 75.1603 35.9388 77.1893 36.1049C77.5532 36.1366 77.9329 35.9942 78.3008 35.927C79.8671 35.6382 81.4492 35.654 83.0036 35.9111C83.6918 36.0258 84.3682 36.1168 85.0604 36.1247C86.4447 36.1445 87.8093 36.2552 89.1897 36.4411C92.9116 36.9435 96.4437 38.0391 99.8453 39.5461C104.797 41.7412 109.061 44.949 112.989 48.6472C114.1 49.6954 115.002 50.9096 115.959 52.0685C117.118 53.4687 118.324 54.8372 119.357 56.3561C120.785 58.4603 121.825 60.7544 123.015 62.9773C124.724 66.1731 125.753 69.6143 126.686 73.087C127.01 74.2973 127.188 75.5472 127.426 76.7813C128.007 79.8031 128.62 82.821 128.755 85.9061C128.766 86.1593 128.739 86.4322 128.83 86.6577C129.205 87.5713 129.111 88.5246 129.115 89.4659C129.122 91.6136 129.115 93.7653 129.118 95.9131C129.122 96.4193 129.027 96.9494 129.534 97.2974Z" fill="#EDF5FD"/>
<path d="M53.7578 108.72C54.3709 108.689 54.7822 108.404 55.1303 107.874C55.957 106.612 56.8667 105.41 57.725 104.168C59.2992 101.893 60.8457 99.5994 62.4239 97.329C64.7575 93.9789 67.107 90.6406 69.4525 87.2984C71.2917 84.676 73.2416 82.1209 74.9503 79.4155C76.6313 76.7536 78.5496 74.2696 80.286 71.6552C82.7185 67.9926 85.333 64.4526 87.8604 60.8533C88.256 60.2876 88.5843 59.6706 88.9956 59.1169C89.4426 58.5196 89.8658 57.8551 90.732 57.7839C92.7294 60.517 92.7531 63.3886 91.2383 66.3116C90.7478 67.2569 90.1031 68.131 89.4702 68.9933C87.6468 71.4891 85.7879 73.9611 83.9486 76.4451C81.7811 79.368 80.5787 82.6311 80.4996 86.2819C80.4601 88.1132 80.4917 89.9445 80.5075 91.7718C80.5273 94.3032 81.7614 96.0515 83.9882 97.1708C85.2855 97.8235 86.6659 97.8155 88.0582 97.7681C88.2362 98.4524 87.7457 98.8835 87.4649 99.4056C87.1327 100.023 86.4682 100.509 86.6106 101.34C86.302 101.387 85.9896 101.427 85.6811 101.486C81.2037 102.309 78.5497 106.58 79.6492 110.765C79.7283 111.066 79.7639 111.378 79.8193 111.687C79.3447 111.699 78.9966 111.904 78.7276 112.304C76.9438 114.946 75.156 117.588 73.3445 120.21C73.036 120.657 72.9371 121.112 72.9371 121.619C71.3075 121.306 69.8559 120.535 68.3885 119.831C63.2782 117.386 58.785 114.08 54.8297 110.033C54.4263 109.634 54.1098 109.159 53.7578 108.72Z" fill="white"/>
<path d="M129.535 97.2974C129.028 96.9494 129.123 96.4154 129.119 95.921C129.115 93.7732 129.123 91.6216 129.115 89.4738C129.111 88.5325 129.206 87.5792 128.831 86.6656C128.74 86.4441 128.763 86.1672 128.755 85.9141C128.617 82.8289 128.004 79.811 127.426 76.7892C127.189 75.5551 127.011 74.3053 126.687 73.0949C125.753 69.6222 124.725 66.1811 123.016 62.9852C121.826 60.7623 120.786 58.4682 119.358 56.364C118.325 54.8412 117.119 53.4766 115.96 52.0765C115.003 50.9176 114.101 49.6993 112.99 48.6551C109.066 44.953 104.798 41.7452 99.8462 39.554C96.4446 38.047 92.9125 36.9514 89.1906 36.4491C87.8062 36.2632 86.4416 36.1524 85.0612 36.1326C84.3691 36.1247 83.6927 36.0298 83.0045 35.919C81.45 35.662 79.8679 35.6461 78.3016 35.9349C77.9298 36.0021 77.5541 36.1445 77.1902 36.1129C75.1572 35.9467 73.1676 36.362 71.1742 36.5677C69.4338 36.7497 67.7054 37.165 66.0323 37.7266C65.1937 38.0074 64.3513 38.2685 63.5286 38.581C62.9788 38.7906 62.429 38.842 61.8555 38.7629C62.0335 38.3832 62.429 38.2804 62.7533 38.1103C68.6507 35.0489 74.8645 33.1424 81.5291 32.6045C85.6031 32.2762 89.6296 32.4898 93.6086 33.2018C100.02 34.3488 106.001 36.718 111.415 40.3767C121.877 47.4448 128.625 57.1432 131.568 69.4205C133.352 76.8643 133.253 84.3399 131.413 91.7758C130.939 93.6665 130.496 95.5729 129.535 97.2974Z" fill="#AFC0D4"/>
<path d="M40.6445 65.2752C32.5321 100.39 62.5647 132.049 98.4512 125.459C98.5857 125.665 98.7202 125.866 98.8546 126.072C95.8842 126.994 92.8465 127.627 89.7574 127.888C86.2926 128.18 82.8198 128.18 79.3471 127.729C75.3127 127.207 71.3969 126.242 67.6354 124.7C55.4096 119.68 46.6328 111.109 41.3683 98.9862C38.8211 93.1166 37.591 86.9621 37.5554 80.5427C37.5277 75.2979 38.3504 70.2193 39.9523 65.2515C40.1857 65.2594 40.4151 65.2673 40.6445 65.2752Z" fill="#9B1D1F"/>
<path d="M72.9259 121.622C72.9219 121.112 73.0248 120.657 73.3333 120.214C75.1488 117.592 76.9326 114.95 78.7164 112.308C78.9854 111.908 79.3374 111.703 79.8081 111.691C80.7218 113.372 81.9558 114.752 83.621 115.717C83.6052 116.235 83.3995 116.702 83.1266 117.113C82.1932 118.51 81.2597 119.906 80.263 121.255C79.7686 121.927 79.3533 122.591 79.3928 123.458C77.1383 123.209 74.9826 122.58 72.9259 121.622Z" fill="#EDF5FD"/>
<path d="M79.3972 123.462C79.3576 122.596 79.769 121.931 80.2673 121.259C81.2601 119.906 82.1975 118.514 83.131 117.117C83.4039 116.706 83.6096 116.239 83.6254 115.721C85.0809 116.231 86.5919 116.394 88.1265 116.382C88.0158 117.011 87.6875 117.521 87.3157 118.031C86.0065 119.831 84.717 121.646 83.4395 123.47C83.305 123.663 83.2694 123.924 83.1903 124.158C81.8811 124.142 80.6233 123.893 79.3972 123.462Z" fill="white"/>
<path d="M40.6414 65.2752C40.4119 65.2673 40.1825 65.2594 39.9531 65.2475C40.3131 63.7801 40.7758 62.3562 41.6895 61.1143C41.5669 62.5659 41.1397 63.9265 40.6414 65.2752Z" fill="#9B1D1F"/>
<path d="M98.8487 126.072C98.7143 125.866 98.5798 125.665 98.4453 125.459C99.5963 125.182 100.747 124.905 101.898 124.64C102.001 124.617 102.128 124.708 102.377 124.783C101.222 125.459 100.055 125.815 98.8487 126.072Z" fill="black"/>
<path d="M88.0508 97.7681C86.6586 97.8116 85.2781 97.8235 83.9808 97.1709C81.754 96.0515 80.5199 94.3033 80.5001 91.7719C80.4883 89.9406 80.4566 88.1093 80.4922 86.2819C80.5674 82.6351 81.7738 79.368 83.9413 76.4451C85.7844 73.9611 87.6395 71.4891 89.4629 68.9933C90.0957 68.131 90.7404 67.2569 91.2309 66.3116C92.7458 63.3886 92.726 60.5171 90.7246 57.784C88.3712 54.2796 83.8305 53.1088 80.0255 55.0311C78.5858 55.7589 77.3913 56.7675 76.5211 58.1399C76.1177 58.7807 75.7221 59.4294 75.3187 60.0741C74.7808 60.9403 74.1202 61.6997 73.3371 62.3563C70.6158 64.6504 65.909 64.1639 64.9439 59.2791C64.5761 57.428 64.8134 55.6085 65.6955 53.9275C67.0521 51.3447 68.6184 48.8924 70.6989 46.8199C74.227 43.3115 78.5185 41.5751 83.4627 41.3774C88.7825 41.1638 93.5724 42.6431 97.8086 45.8825C97.9549 45.9932 98.1447 46.0486 98.3109 46.1316C98.568 46.4006 98.8132 46.6854 99.0901 46.9385C100.451 48.1765 101.661 49.553 102.602 51.1311C106.154 57.0957 106.463 63.1315 102.899 69.2267C102.037 70.698 101.056 72.0824 100.031 73.443C98.5521 75.4088 97.1243 77.4141 95.6648 79.3918C94.937 80.3806 94.4109 81.4683 94.3595 82.6905C94.2804 84.5139 94.1855 86.3412 94.4189 88.1646C94.1776 88.9043 94.2804 89.6637 94.316 90.4112C94.4782 93.8563 91.9112 96.6804 89.2809 97.3568C88.8735 97.4556 88.4661 97.6257 88.0508 97.7681ZM85.6579 43.3708C81.8291 43.3748 78.8903 43.9997 76.7268 45.0558C73.1393 46.8001 70.5842 49.64 68.5195 52.9625C67.855 54.0343 67.3092 55.1814 67.0086 56.4273C66.6843 57.7721 66.7871 59.0536 67.4991 60.2679C68.0291 61.1737 68.8043 61.589 69.8446 61.6008C70.865 61.6127 71.664 61.1578 72.368 60.4775C73.1987 59.6786 73.7801 58.6976 74.3497 57.7167C75.1882 56.277 76.2442 55.0588 77.6049 54.0818C81.8647 51.0164 87.9005 51.4753 91.4484 55.2684C93.2362 57.1788 94.225 59.4056 94.2606 62.0992C94.2923 64.5515 93.6476 66.6873 92.1525 68.6175C90.8393 70.3144 89.5578 72.0389 88.3475 73.8108C86.9948 75.7925 85.4364 77.6277 84.226 79.7082C83.518 80.9225 83.0355 82.1882 82.7626 83.5765C82.2326 86.278 82.4897 88.9952 82.5253 91.7007C82.5411 93.1206 83.1265 94.4021 84.5385 95.122C87.6592 96.716 90.7206 95.4543 91.931 92.2781C92.2039 91.5622 92.2949 90.8147 92.283 90.0474C92.2514 88.1528 92.2751 86.2542 92.2395 84.3596C92.2157 83.0781 92.3581 81.8282 92.8644 80.6496C93.5131 79.1386 94.2567 77.6752 95.2732 76.366C97.2865 73.7753 99.2285 71.1292 100.997 68.3604C102.207 66.4619 103.045 64.4289 103.291 62.202C103.698 58.4761 102.808 55.0153 100.688 51.9459C96.7762 46.278 91.223 43.62 85.6579 43.3708Z" fill="black"/>
<path d="M94.4363 88.1567C94.2029 86.3333 94.2978 84.5059 94.3769 82.6825C94.4284 81.4604 94.9544 80.3726 95.6822 79.3838C97.1417 77.4062 98.5696 75.4008 100.049 73.435C101.073 72.0744 102.058 70.694 102.916 69.2187C106.48 63.1236 106.172 57.0917 102.62 51.1232C101.678 49.545 100.468 48.1686 99.1075 46.9306C98.8306 46.6814 98.5854 46.3927 98.3283 46.1237C98.4984 44.9055 99.5426 44.2449 100.171 43.3273C100.5 42.8487 101.184 42.8447 101.73 43.177C102.268 43.5053 102.77 43.885 103.276 44.2647C104.783 45.3999 106.334 46.4876 107.77 47.7098C109.546 49.2207 111.306 50.7672 112.915 52.4482C113.821 53.3975 114.62 54.4654 115.55 55.4107C116.372 56.2453 116.372 56.36 115.72 57.3449C113.983 59.9752 112.231 62.6015 110.483 65.2278C106.816 70.7415 103.158 76.2631 99.4714 81.7649C98.174 83.703 96.7976 85.5857 95.4923 87.5199C95.2155 87.9352 94.9307 88.1804 94.4363 88.1567Z" fill="white"/>
<path d="M92.5938 103.562C92.6887 103.262 92.7124 102.914 92.8864 102.673C96.6519 97.4555 100.042 91.9893 103.669 86.6773C106.299 82.8248 108.913 78.9645 111.528 75.1041C113.968 71.5048 116.409 67.9054 118.833 64.2982C119.082 63.9264 119.324 63.5625 119.688 63.3015C120.059 63.0365 120.633 63.0839 120.874 63.4755C121.234 64.0648 121.554 64.6858 121.823 65.3226C121.986 65.7063 121.725 66.0306 121.515 66.3589C120.661 67.684 119.846 69.0327 118.991 70.3538C116.389 74.3724 113.814 78.4147 111.215 82.4372C108.921 85.9851 106.512 89.4539 104.27 93.0335C103.404 94.4178 102.545 95.8141 101.632 97.1668C99.6184 100.141 97.5656 103.092 95.5404 106.058C95.2794 106.438 95.0342 106.786 94.516 106.774C93.9781 105.639 93.3967 104.535 92.5938 103.562Z" fill="white"/>
<path d="M92.5923 103.563C93.3912 104.536 93.9766 105.635 94.5106 106.77C94.558 107.395 94.6371 108.016 94.653 108.641C94.74 112.074 92.8098 114.839 89.5585 115.947C89.0839 116.109 88.6013 116.235 88.1228 116.378C86.5881 116.386 85.0811 116.228 83.6216 115.717C81.9564 114.748 80.7224 113.372 79.8087 111.691C79.7533 111.382 79.7177 111.07 79.6386 110.769C78.5391 106.585 81.1931 102.313 85.6705 101.49C85.979 101.435 86.2915 101.391 86.6 101.344C87.5136 101.538 88.455 101.415 89.3726 101.712C90.5948 102.103 91.5797 102.843 92.5923 103.563ZM86.9955 103.29C84.3692 102.985 81.5332 105.77 81.549 108.831C81.5649 112.15 84.2189 114.535 87.0904 114.491C89.4873 114.456 92.5448 112.656 92.5883 108.922C92.6199 105.928 90.3733 103.135 86.9955 103.29Z" fill="black"/>
<path d="M85.6571 43.3708C91.2222 43.62 96.7715 46.278 100.683 51.942C102.799 55.0113 103.689 58.4722 103.286 62.1981C103.045 64.4249 102.202 66.4579 100.992 68.3565C99.2238 71.1292 97.2857 73.7713 95.2685 76.362C94.252 77.6712 93.5044 79.1347 92.8597 80.6456C92.3574 81.8243 92.211 83.0742 92.2348 84.3557C92.2743 86.2503 92.2506 88.1488 92.2783 90.0434C92.2901 90.8147 92.1992 91.5622 91.9263 92.2742C90.7159 95.4503 87.6545 96.712 84.5338 95.1181C83.1218 94.3982 82.5364 93.1167 82.5205 91.6967C82.4889 88.9913 82.2279 86.274 82.7579 83.5725C83.0308 82.1842 83.5133 80.9185 84.2213 79.7043C85.4356 77.6238 86.99 75.7885 88.3428 73.8069C89.5531 72.0349 90.8346 70.3104 92.1478 68.6136C93.6429 66.6794 94.2876 64.5475 94.2559 62.0952C94.2203 59.4017 93.2275 57.1748 91.4437 55.2644C87.8958 51.4713 81.864 51.0125 77.6001 54.0778C76.2395 55.0548 75.1835 56.277 74.3449 57.7128C73.7754 58.6937 73.1939 59.6746 72.3633 60.4736C71.6553 61.1539 70.8603 61.6048 69.8398 61.5969C68.8036 61.585 68.0283 61.1697 67.4944 60.2639C66.7824 59.0497 66.6796 57.7681 67.0039 56.4233C67.3045 55.1774 67.8464 54.0304 68.5148 52.9585C70.5795 49.636 73.1346 46.8001 76.7221 45.0519C78.8935 43.9997 81.8284 43.3708 85.6571 43.3708Z" fill="#212492"/>
<path d="M86.9934 103.29C90.3673 103.135 92.6178 105.928 92.5822 108.922C92.5387 112.656 89.4813 114.452 87.0844 114.491C84.2128 114.535 81.5588 112.15 81.543 108.831C81.5351 105.77 84.3671 102.985 86.9934 103.29Z" fill="#212492"/>
</svg>
