<svg width="300" height="200" viewBox="0 0 300 200" fill="none" xmlns="http://www.w3.org/2000/svg">
<path d="M254.436 33.9087C247.483 -9.68403 185.443 -11.8644 175.059 30.9644C167.857 29.9743 160.973 28.0944 153.936 26.4234C150.002 25.399 146.119 24.1686 142.213 23.0327C138.6 21.7794 140.837 24.8954 141.678 26.432C147.965 39.1736 143.272 35.1963 155.001 44.1151C154.074 45.9235 153.155 47.6604 152.285 49.423C151.438 51.1398 151.481 50.8737 152.383 52.559C153.742 55.0999 155.055 57.6608 156.4 60.2103C157.124 61.8355 156.423 63.7584 156.383 65.4809C155.224 73.8618 154.059 82.2456 152.975 90.6379C152.586 92.432 153.092 94.0229 154.062 95.5737C158.011 104.278 161.018 113.214 163.327 122.505C162.558 121.546 162.18 120.759 161.88 119.927C156.941 111.211 150.715 103.339 143.847 96.0716C143.879 85.3959 143.518 74.7975 143.169 64.136C137.85 62.6911 132.631 61.2089 127.532 59.06C128.985 55.3803 130.516 51.8179 131.463 48.0352C120.11 46.8735 108.99 43.54 99.2703 37.4081C86.4829 35.471 55.5631 46.8964 44.8216 54.6421C43.7314 55.4204 43.7228 55.8066 44.8158 56.5077C46.6242 57.6694 48.4555 58.7996 50.2295 60.01C88.0652 85.044 112.224 131.77 103.66 177.26C99.7195 203.816 87.4786 200.5 114.696 199.023C137.326 197.873 159.751 194.665 182.118 191.172C191.329 189.698 200.519 188.096 209.733 186.633C211.335 186.439 211.155 184.639 211.57 183.477C219.851 149.939 220.028 114.648 214.251 80.7233C238.409 81.0667 258.848 57.904 254.436 33.9087Z" fill="black"/>
<path d="M129.661 49.3372C128.728 52.3187 127.472 55.0027 126.362 57.8955C125.901 58.8912 125.389 59.7468 126.768 60.196C131.638 62.405 136.751 63.8328 141.85 65.3865C141.879 66.2735 141.979 67.1234 141.888 68.019C126.136 67.4238 110.066 67.5383 94.5235 70.9204C93.2559 71.0262 92.7552 71.8761 93.4906 72.9805C94.6895 75.1924 95.9141 77.387 97.0987 79.6074C97.5394 80.4344 98.1116 80.6347 99.0301 80.503C113.171 78.4057 127.523 77.6188 141.807 78.0337C142.176 79.3127 142.471 85.994 142.305 89.0986C131.795 88.7953 121.197 88.3775 110.722 89.8396C108.59 90.1058 106.461 90.3947 104.329 90.6809C102.624 90.9127 103.957 92.6752 104.43 93.505C109.603 101.182 104.827 101.857 114.811 100.038C124.379 98.4752 134.05 98.6898 143.699 98.9759C144.24 98.9759 144.649 99.1419 145.021 99.5511C148.011 102.916 151.047 106.295 153.602 110.001C153.485 110.333 153.236 110.293 153.018 110.295C149.908 110.347 146.792 110.215 143.684 110.287C133.89 110.756 123.97 110.785 114.287 112.393C112.693 112.673 114.047 114.447 114.224 115.4C114.779 117.143 115.32 118.891 115.866 120.636C116.124 121.601 116.407 122.539 117.586 122.313C131.738 120.608 146.014 120.505 160.249 120.09C161.782 122.677 163.082 125.383 164.258 128.093C149.502 129.856 133.861 129.618 118.819 130.949C118.227 133.75 118.977 136.78 118.902 139.659C118.608 141.458 120.396 141.192 121.641 141.175C131.793 140.843 141.93 140.222 152.094 140.179C161.668 140.165 171.182 139.235 180.716 138.477C185.366 138.108 190.018 137.753 194.668 137.355C196.19 136.966 199.149 137.438 199.189 135.295C199.329 132.829 199.452 130.362 199.561 127.893C199.693 126.763 198.817 126.619 197.91 126.745C187.083 127.209 176.258 127.773 165.439 128.325C165.162 125.403 164.793 122.82 164.212 119.933C170.1 119.887 175.94 119.417 181.823 119.294C187.223 119.183 192.622 119.146 198.022 119.068C199.469 118.928 198.574 116.816 198.705 115.846C198.242 114.264 199.04 108.779 196.791 109.059C184.911 108.516 173.093 109.202 161.219 109.626C160.126 106.35 158.535 103.205 157.739 99.9316C166.744 99.697 175.763 99.9574 184.765 100.306C187.827 100.415 190.888 100.561 193.95 100.698C195.272 100.844 197.135 101.162 196.456 99.139C196.016 96.7098 195.578 94.2776 195.134 91.8483C194.805 90.2889 194.731 90.4148 193.36 90.3204C180.47 89.1129 167.56 89.0156 154.623 88.8124C155.141 85.1928 155.585 81.6676 156.1 78.1367C165.079 77.7018 173.992 78.2941 182.925 79.0981C184.794 79.0466 191.223 80.5917 192.101 79.3671C196.219 81.8507 200.514 83.9624 205.221 85.0669C207.538 85.6249 209.885 85.994 212.271 86.0913C213.287 85.9883 213.753 86.9525 213.848 87.7823C218.609 120.038 217.822 153.45 209.59 185.083C173.062 191.558 136.288 196.98 99.2018 198.568C120.851 145.284 94.2459 84.4803 46.3812 55.698C46.3268 55.2716 46.6416 55.1858 46.8505 55.0456C49.3656 53.3631 52.0152 51.9238 54.7335 50.6048C67.9902 44.3126 82.2483 40.1036 96.8097 38.2866C97.505 38.1836 98.1145 38.3181 98.7583 38.7015C101.313 40.218 103.877 41.7174 106.561 43.0107C113.829 46.5674 121.706 48.1325 129.661 49.3372Z" fill="white"/>
<path d="M253.433 40.2524C253.293 90.6809 176.151 91.545 175.516 40.1952C176.943 -11.5181 252.417 -10.9859 253.433 40.2524Z" fill="#D52B1E"/>
<path d="M142.91 24.8611C153.363 27.9657 163.944 30.6153 174.706 32.3665C170.923 44.759 173.856 58.0786 181.001 68.6885C176.38 69.0605 171.058 67.7643 166.188 67.8587C163.329 67.6985 160.511 67.7328 157.661 67.398C157.804 65.4838 158.01 63.664 158.184 61.764C157.486 57.8669 154.628 54.5134 153.154 50.8165C158.156 40.5671 158.573 45.6575 148.47 37.3395C148.098 37.0648 147.812 36.7615 147.632 36.3008C146.198 32.4952 144.361 28.8499 142.676 25.1673C142.722 25.0414 142.802 24.9384 142.91 24.8611Z" fill="white"/>
<path d="M198.054 128.302C198.217 129.509 197.942 133.819 197.616 135.418C185.575 137.146 173.232 137.367 161.085 138.48C147.574 138.723 134.057 139.235 120.551 139.647C119.936 137.424 120.274 134.794 119.996 132.405C126.517 131.312 133.407 131.776 140.057 131.272C159.38 130.085 178.708 129.04 198.054 128.302Z" fill="#D6E3F2"/>
<path d="M141.789 69.5842C142.009 70.7202 142.066 74.8319 141.892 76.5831C127.442 76.2426 112.969 76.9493 98.6425 78.9809C97.7326 77.9365 96.073 74.9635 95 72.4742C110.168 68.8746 126.24 68.8288 141.789 69.5842Z" fill="#D6E3F2"/>
<path d="M193.489 91.7282C194.179 94.1518 194.794 96.8186 194.889 99.3251C182.258 98.5611 169.597 98.4495 156.938 98.3093C156.109 95.5853 153.593 93.4021 154.492 90.4635C167.437 90.3118 180.525 90.6638 193.489 91.7282Z" fill="#D6E3F2"/>
<path d="M159.167 118.725C145.247 119.025 131.317 119.22 117.468 120.771C116.702 118.442 115.949 116.155 115.168 113.778C125.884 112.23 136.871 111.855 147.719 111.772C149.962 112.038 153.204 111.097 155.132 112.061C156.483 114.224 158.497 116.301 159.167 118.725Z" fill="#D6E3F2"/>
<path d="M142.413 90.6151C142.645 93.0415 141.687 95.425 142.92 97.5453C131.615 97.1418 120.321 97.0903 109.156 99.4853C107.966 96.9272 106.664 94.661 105.336 92.1488C117.663 89.9198 129.875 89.9627 142.413 90.6151Z" fill="#D6E3F2"/>
<path d="M196.71 110.481C196.931 112.896 197.142 115.208 197.36 117.623C186.172 117.615 175.018 118.204 163.833 118.364C163.127 115.978 162.431 113.629 161.762 111.363C173.035 110.155 185.165 110.261 196.71 110.481Z" fill="#D6E3F2"/>
<path d="M190.435 78.3541C179.213 77.2668 167.942 76.294 156.645 76.5286C156.213 74.1909 157.18 71.5126 157.363 69.0004C165.79 69.0662 174.18 69.8702 182.572 70.5884C183.061 70.6285 183.422 70.8002 183.751 71.1635C185.685 73.3038 187.717 75.344 189.937 77.1896C190.258 77.4557 190.555 77.7475 190.435 78.3541Z" fill="#D6E3F2"/>
<path d="M142.676 25.1673C142.636 25.0614 142.599 24.9555 142.559 24.8525C142.676 24.8554 142.793 24.8611 142.911 24.864C142.83 24.9641 142.753 25.0643 142.676 25.1673Z" fill="white"/>
<path d="M181.003 68.6885C181.046 68.7686 181.092 68.8487 181.135 68.9288C181.026 68.9231 180.917 68.9174 180.809 68.9145C180.872 68.8401 180.937 68.7629 181.003 68.6885Z" fill="white"/>
<path d="M197.594 157.113C172.165 159.285 146.507 158.409 121.124 161.253C119.845 161.413 119.642 161.162 119.759 159.837C119.876 158.472 119.937 157.099 119.974 155.728C119.982 148.068 119.364 150.477 126.532 149.496C143.46 148.377 160.419 147.945 177.372 147.467C183.77 147.255 190.163 146.932 196.552 146.572C199.476 145.765 198.092 155.582 197.594 157.113Z" fill="black"/>
<path d="M214.896 31.5253C220.369 26.5694 224.613 20.4805 230.476 16.0711C234.404 14.1483 238.88 17.1727 238.882 21.316C238.914 23.6566 237.572 25.4678 235.958 26.9843C231.792 31.3507 227.468 35.6714 223.405 40.1179C226.192 44.018 230.144 47.1654 233.343 50.8137C235.432 53.243 238.611 55.3174 238.782 58.7911C239.214 65.0089 231.617 66.8287 228.144 62.6797C223.712 58.1473 219.465 53.4747 214.947 49.0196C211.376 52.2615 208.269 55.9555 204.858 59.372C202.123 62.2162 199.078 66.4023 194.626 64.594C190.666 63.3207 190.025 57.8526 192.611 54.9512C197.144 49.941 201.994 45.2998 206.543 40.2925C202.512 35.7258 198.088 31.5138 193.922 27.0644C190.717 24.4377 189.63 19.5333 193.204 16.755C195.802 14.6004 199.576 15.3443 201.653 17.8537C206.094 22.4061 210.403 27.0158 214.896 31.5253Z" fill="black"/>
<path d="M196.725 148.002C197.088 150.372 196.896 154.043 196.324 155.72C171.422 157.768 146.313 156.964 121.431 159.754C121.185 156.95 121.394 154.303 121.422 151.479C146.419 149.09 171.665 149.719 196.725 148.002Z" fill="#D6E3F2"/>
<path d="M214.926 33.7314C219.575 29.116 223.97 24.2946 228.54 19.6049C230.234 17.3444 233.55 15.9252 235.897 18.0769C238.254 20.1972 237.519 23.6337 235.287 25.5221C230.62 30.4637 225.796 35.2307 221.209 40.2495C226.071 45.6604 231.327 50.7106 236.214 56.0986C238.798 59.1402 236.394 64.428 232.185 63.4007C228.383 62.0817 226.268 57.9928 223.289 55.4405C220.485 52.5591 217.801 49.6176 214.943 46.782C209.266 51.9353 204.639 58.4592 198.573 63.106C195.654 64.5281 192.041 62.0616 192.558 58.7654C192.727 57.5064 193.231 56.4133 194.127 55.4834C198.951 50.3902 203.878 45.4 208.665 40.2753C204.791 35.9489 200.602 31.903 196.61 27.6767C193.809 25.1502 190.275 21.1672 194.169 17.8852C196.393 16.0368 199.698 17.4245 201.311 19.6278C205.881 24.3118 210.285 29.1131 214.926 33.7314Z" fill="white"/>
</svg>
