<svg width="308" height="200" viewBox="0 0 308 200" fill="none" xmlns="http://www.w3.org/2000/svg">
<g clip-path="url(#clip0_2107_44882)">
<path d="M153.274 192.461C159.395 192.28 166.721 192.827 172.439 195.049C173.139 195.32 174.906 196.074 174.239 197.03C173.406 198.224 170.818 198.427 169.456 198.56C162.504 199.242 155.54 198.693 148.591 198.479C142.905 198.303 137.196 198.968 131.509 198.793C124.222 199.491 116.881 200.132 109.533 199.977C106.821 199.92 101.884 199.942 99.7354 198.167C98.6803 197.295 99.1067 196.763 100.063 196.063C102.991 193.917 109.637 193.243 113.247 193.064C118.145 192.822 123.071 193.496 128.037 193.385C129.422 193.354 130.831 193.266 132.226 193.227C139.239 193.036 146.259 192.67 153.274 192.463V192.461Z" fill="#CCCCCC"/>
<path d="M112.859 183.36C113.377 183.334 113.92 183.36 114.441 183.36C115.536 183.36 117.311 184.502 118.001 185.336C118.254 185.642 119.102 186.773 118.378 186.984C117.862 187.134 117.543 186.211 117.247 185.853C116.11 184.478 114.102 184.008 112.41 184.411C111.477 184.633 111.383 185.188 110.844 185.889C112.915 185.419 115.095 186.122 116.46 187.747C116.701 188.033 117.088 188.396 116.845 188.769C116.417 189.425 115.749 188.285 115.472 188.024C113.823 186.472 111.386 186.199 109.537 187.55C108.325 189.541 104.521 192.707 104.362 195.038C104.338 195.402 104.719 195.562 105.017 195.713C107.977 197.21 113.115 196.803 116.315 196.228C120.124 195.543 123.897 194.238 127.215 192.259C127.428 192.019 127.349 190.378 127.373 189.966C127.452 188.568 127.957 184.98 127.28 183.887C127.174 183.715 126.992 183.588 126.857 183.439C126.688 183.404 126.753 183.51 126.719 183.613C126.492 184.311 126.284 185.813 125.966 186.343C125.777 186.659 125.347 186.875 124.981 186.824C124.029 186.693 123.418 184.953 122.897 184.236C121.17 181.863 116.01 179.388 113.651 182.014C113.495 182.187 112.724 183.173 112.664 183.322C112.569 183.556 112.847 183.36 112.861 183.36H112.859Z" fill="#404040"/>
<path d="M157.659 184.623C155.722 181.852 150.809 182.511 148.762 184.78C148.324 185.265 147.552 186.611 146.926 186.74C145.287 187.078 144.726 184.585 144.531 183.403C144.161 183.224 144.018 183.872 143.938 184.147C143.298 186.324 143.361 188.786 143.031 191.025C146.076 192.316 149.203 193.431 152.439 194.155C156.239 195.006 160.542 195.514 164.396 194.802C165.197 194.653 165.967 194.407 166.748 194.188C166.693 192.828 165.785 192.006 164.858 191.148C164.109 190.457 161.578 188.137 160.807 187.845C159.666 187.411 157.983 187.818 156.92 188.352C156.566 188.53 155.598 189.315 155.345 189.278C155.155 189.249 154.985 189.041 154.973 188.849C154.944 188.391 156.018 187.786 156.394 187.588C157.417 187.047 158.632 186.694 159.796 186.759C160.021 186.566 158.617 185.791 158.481 185.741C157.235 185.279 155.877 185.613 154.707 186.138C154.295 186.322 153.451 186.983 153.074 186.798C152.765 186.648 152.814 186.273 153.035 186.046C153.523 185.545 155.829 184.623 156.515 184.623H157.661H157.659Z" fill="#404040"/>
<path d="M153.114 182.152C153.199 181.911 153.571 181.91 153.668 182.152C154.06 182.208 155.256 182.524 155.664 182.649C156.241 182.826 157.644 184.036 158.18 184.485C159.27 185.399 160.91 187.231 162.056 187.85C162.686 188.708 164.418 190.322 165.38 190.778C166.567 191.34 167.332 192.977 167.595 194.26C167.324 194.241 167.477 194.579 167.283 194.778C167.131 194.934 167.014 194.918 166.825 194.833C166.798 194.821 166.35 194.519 166.329 194.497L166.148 194.506C165.783 193.669 165.103 193.007 164.384 192.455C162.555 191.229 160.931 189.643 159.359 188.052C159.304 187.996 159.264 187.924 159.225 187.851C159.185 187.777 159.155 187.695 159.127 187.612C158.835 187.585 158.429 187.382 158.494 187.058L158.336 187.035L157.252 185.948C157.062 185.832 156.922 185.701 156.833 185.555C156.638 185.374 156.426 185.203 156.198 185.046L156.2 184.843L155.962 184.816C154.733 183.183 152.208 182.969 150.376 183.634L150.107 183.577C149.566 183.051 150.966 182.621 151.373 182.469C151.315 182.263 151.37 182.257 151.531 182.39H151.69C151.708 182.231 151.787 182.238 151.848 182.39C151.865 182.283 151.912 182.265 152.006 182.31C152.046 182.094 152.167 182.113 152.244 182.31C152.261 182.199 152.393 182.179 152.481 182.231C152.555 182.006 152.752 181.937 152.877 182.152C152.952 182.089 153.037 182.093 153.114 182.152Z" fill="#717171"/>
<path d="M117.267 180.255L117.581 180.54L117.346 180.967C116.971 180.983 115.399 181.736 115.093 181.998C114.573 182.445 114.428 183.005 114.102 183.5C114.151 183.837 113.958 184.127 113.627 184.212C113.229 184.801 112.771 185.383 112.361 185.953C112.514 186.209 112.162 186.61 111.886 186.665C110.864 188.036 109.639 189.564 108.524 190.86C107.622 191.908 106.362 192.855 105.673 194.022C105.381 194.518 105.096 195.476 104.843 195.843C104.59 196.21 104.104 196.257 103.914 195.783C103.61 195.025 104.062 193.8 104.463 193.129C105.063 192.126 105.945 191.465 106.704 190.622C108.592 188.519 110.373 185.999 112.075 183.728C112.788 182.778 113.473 181.341 114.576 180.85C115.101 180.616 116.222 180.326 116.791 180.255C116.936 180.238 117.113 180.258 117.266 180.255H117.267Z" fill="#717171"/>
<path d="M126.367 184.051C126.4 183.824 126.374 183.704 126.391 183.547C126.473 182.817 127.351 183.644 127.542 183.946C128.087 184.808 128.199 187.646 128.107 188.68C128.075 189.032 127.942 189.403 127.87 189.749C127.651 189.807 127.54 189.617 127.475 189.432C126.995 188.06 127.373 185.437 126.649 184.203C126.56 184.051 126.597 184.014 126.367 184.051Z" fill="#717171"/>
<path d="M163.393 62.9653H158.806L158.688 107.183H207.244V86.8142C207.244 86.7461 206.625 86.0635 206.516 85.88C205.969 84.9535 205.928 83.6873 206.677 82.8575C205.184 81.7409 204.649 79.5119 206.533 78.5074C206.291 78.1216 205.922 77.8501 205.698 77.4435C204.844 75.8795 205.627 74.4606 207.247 73.9869L207.244 62.9653H198.861C198.87 63.6369 199.306 63.5072 199.757 63.7699C202.08 65.1283 199.651 68.7399 197.48 66.9176C196.69 66.256 196.951 65.8053 196.788 64.9997C196.737 64.7458 196.468 64.2403 196.372 63.9138C196.279 63.605 196.222 63.283 196.174 62.9653H190.717C190.728 63.5984 191.107 63.4962 191.56 63.7435C193.992 65.0679 191.521 68.7553 189.334 66.9187C188.545 66.256 188.806 65.8075 188.643 65.0008C188.595 64.7612 188.335 64.2864 188.243 63.9776C188.144 63.649 188.124 63.2951 188.027 62.9664H182.412C182.505 63.6468 182.753 63.4698 183.255 63.7446C185.415 64.9261 183.721 68.3475 181.358 67.1451C180.923 66.9242 180.454 66.3186 180.375 65.835C180.253 65.0942 180.222 64.9283 180.017 64.215C179.899 63.8039 179.817 63.3819 179.724 62.9664H174.267C174.35 63.6841 174.675 63.4676 175.178 63.7556C176.329 64.4117 176.402 66.1472 175.376 66.9627C174.178 67.9145 172.432 67.1715 172.217 65.6888C172.097 64.8579 172.031 64.6821 171.794 63.8963C171.715 63.6336 171.652 63.3764 171.642 63.0994L171.538 62.9664H166.2C166.121 63.6654 166.479 63.4643 166.936 63.6929C168.206 64.3271 168.352 66.0955 167.23 66.9627C165.924 67.9727 164.246 67.0968 164.07 65.524C163.996 64.8601 163.977 64.9327 163.791 64.3073C163.726 64.0897 163.474 62.9928 163.392 62.9653H163.393Z" fill="white"/>
<path d="M203.939 77.5426C203.829 77.2106 203.513 77.0513 203.174 77.0425L162.46 77.0634C162.178 77.1282 162.074 77.3656 162.083 77.636L162.121 104.5C162.205 104.728 162.373 104.786 162.599 104.813C163.676 104.94 165.185 104.796 166.321 104.808C173.857 104.885 181.388 104.814 188.937 104.808C193.516 104.804 198.429 105.037 203.016 104.812C203.664 104.78 203.93 104.835 204.001 104.063L203.938 77.5426H203.939Z" fill="#BECDE1"/>
<path d="M123.338 85.5093C124.572 85.1762 125.977 85.1059 127.255 85.1894C128.335 85.2598 129.704 85.9764 130.608 85.1488C131.264 84.5476 130.696 83.6826 129.986 83.487C128.895 83.1869 126.492 83.3353 125.394 83.6507C124.373 83.9442 123.69 84.4772 123.338 85.5093Z" fill="#EED3CA"/>
<path d="M121.125 89.0709C121.482 88.939 121.798 88.6983 122.154 88.5587C124.706 87.5586 127.935 88.317 130.325 89.4534C131.246 88.9017 131.279 88.0015 130.616 87.2102C129.449 85.8198 125.006 85.7671 123.383 86.3067C122.269 86.676 121.318 87.9422 121.125 89.0698V89.0709Z" fill="#EED3CA"/>
<path d="M120.412 91.7581C121.375 91.2899 122.284 91.0042 123.377 91.0481C125.133 91.1185 126.219 91.7329 127.768 92.2714C128.885 92.6594 130.792 92.8803 130.614 91.1646C130.51 90.17 129.857 89.9491 129.052 89.6424C126.319 88.5994 121.155 87.9147 120.412 91.757V91.7581Z" fill="#EED3CA"/>
<path d="M119.543 101.647H121.402C121.757 101.647 123.067 101.027 123.377 100.775C123.963 100.298 124.924 98.1376 125.251 97.3495C125.359 97.0902 125.782 96.0889 125.776 95.8944C125.772 95.7372 125.283 95.4921 125.132 95.4976C124.814 95.5075 123.873 96.0592 123.614 96.0274C123.479 96.0109 123.483 95.7746 123.587 95.6855L124.288 95.0437L123.105 94.4458C123.165 93.6929 124.49 94.1897 124.963 94.3688C125.548 94.5898 126.992 95.6152 127.339 95.6306C128.656 95.6877 128.738 94.2403 127.969 93.4181C127.119 92.5092 123.892 92.0025 122.664 92.0729C120.501 92.1971 120.194 92.8082 119.94 94.8063C119.757 96.2494 119.882 97.7265 119.385 99.1169L119.034 98.9542C118.612 97.5617 118.906 96.0526 119.056 94.6337L118.956 94.5348C114.323 96.3406 109.385 97.2188 104.736 98.9795C103.524 99.4389 102.137 99.9741 101.046 100.667C100.617 100.938 99.8192 101.69 99.4169 101.806C99.063 101.91 99.7357 101.137 99.7763 101.059L101.197 99.673C100.808 99.7543 98.763 100.667 98.6806 100.912C98.3179 103.842 99.0103 107.826 101.806 109.387C103.846 110.525 105.686 109.902 107.657 109.021L120.73 102.284C120.565 102.34 119.317 101.851 119.544 101.65L119.543 101.647Z" fill="#EED3CA"/>
<path d="M135.281 58.7723C135.49 58.5723 139.088 59.967 139.648 60.1374C147.681 62.5905 157.811 61.1694 159.537 51.5118C160.071 48.5212 160.278 44.9416 160.507 41.8817C160.715 39.0901 161.123 35.44 160.981 32.7077C160.85 30.1755 159.768 29.2391 157.596 28.1828C151.305 25.1252 141.602 25.1483 134.778 26.0341C133.523 26.1968 131.149 26.5276 130.025 26.975C129.625 27.1343 129.341 28.0542 129.231 28.4752C128.582 30.9536 129.108 34.9553 129.189 37.6151C129.244 39.4187 129.774 42.9259 128.202 44.1359C126.445 45.4889 125.949 43.0171 125.332 41.8696C122.703 36.9842 115.115 42.1444 118.214 46.7748C120.187 49.7214 123.971 49.4467 126.744 47.8992C127.221 47.6332 127.869 47.0562 128.344 46.8891C128.443 46.8539 128.519 46.7737 128.601 46.9045C128.859 47.3123 127.978 47.842 127.762 48.1322L127.723 48.2575C129.054 51.7558 130.709 55.1113 132.259 58.5141C132.614 60.4484 131.851 62.9752 132.336 64.6865C133.403 68.4596 137.94 71.9722 141.817 72.2888C146.624 72.6812 148.696 69.1773 146.472 65.0217L145.57 67.9013L145.326 67.9485C145.141 65.9636 145.773 64.0952 146.116 62.174C142.977 62.0256 139.238 61.3859 136.466 59.8417C136.309 59.7549 135.048 58.9965 135.283 58.7723H135.281Z" fill="#EED3CA"/>
<path d="M131.959 158.124C127.636 157.594 123.364 156.729 119.148 155.672C118.512 160.66 117.368 165.557 116.551 170.518C116.212 172.573 115.62 175.299 115.509 177.31C115.501 177.44 115.472 177.606 115.588 177.703C115.71 177.807 117.041 178.059 117.315 178.112C119.898 178.606 123.039 178.928 125.669 179.01C125.904 179.018 126.75 179.057 126.859 178.929L131.959 158.124Z" fill="#EED3CA"/>
<path d="M157.58 159.231L150.42 159.234L144.885 158.91L145.396 179.13C149.024 179.619 152.738 179.955 156.382 179.471L157.579 159.231H157.58Z" fill="#EED3CA"/>
<path d="M163.274 134.79C162.079 134.951 160.878 135.151 159.676 135.263C153.16 135.871 146.362 135.665 139.831 135.419C133.268 135.173 126.652 134.754 120.149 133.749C118.913 133.558 117.676 133.333 116.46 133.05C115.915 136.24 115.422 139.453 115.045 142.671C114.742 145.262 114.463 147.895 114.245 150.493C114.215 150.85 114.023 153.097 114.097 153.211C117.873 154.499 121.849 155.456 125.776 156.203C128.328 156.689 131.094 157.188 133.669 157.483C135.018 157.638 136.382 157.664 137.73 157.81C139.296 152.535 141.123 147.347 142.911 142.147C143.042 141.824 143.487 141.441 143.538 141.975C143.702 143.708 142.331 146.012 142.003 147.725L142.157 153.264L142.48 157.647L146.709 158.124C151.348 158.304 156.152 158.598 160.783 158.124C161.27 158.075 162.788 157.915 163.142 157.715C163.382 157.58 163.198 157.373 163.192 157.138C163.077 152.793 163.133 148.432 163.12 144.08C163.112 141.661 163.204 139.452 163.278 137.046C163.301 136.295 163.255 135.538 163.275 134.789L163.274 134.79Z" fill="#212492"/>
<path d="M157.819 92.9432V86.9709C157.819 86.7686 157.441 85.674 157.348 85.386C155.486 79.6785 152.546 73.2533 149.9 67.8392C149.614 67.2523 148.51 65.0674 148.087 64.7486C148.031 64.7069 147.259 64.3574 147.223 64.387C148.717 67.116 148.875 70.6793 145.903 72.4389C143.082 74.1095 139.126 72.9543 136.554 71.3002L134.096 69.3296C137.316 76.5901 137.325 84.9189 135.441 92.5454C135.875 92.5322 136.315 92.563 136.749 92.5487C142.817 92.3541 148.887 92.6443 154.931 92.8652C155.893 92.9004 156.86 92.8597 157.82 92.9411L157.819 92.9432Z" fill="#D52B1E"/>
<path d="M164.302 108.132H158.411C158.299 108.132 157.818 107.771 157.818 107.697V93.8541C157.748 93.7409 157.66 93.7453 157.545 93.731C156.663 93.6277 155.465 93.7585 154.532 93.7387C148.54 93.6101 142.263 93.132 136.265 93.4155C135.901 93.4331 135.517 93.5551 135.129 93.5057C133.738 98.3658 131.485 103.179 128.543 107.286C127.946 108.119 127.496 109.04 126.381 109.158L124.762 110.583L143.15 110.502C148.524 110.651 153.901 110.869 159.283 110.977C159.47 110.98 159.643 111.059 159.83 111.062L164.381 110.98L164.302 108.132Z" fill="#F7F0EF"/>
<path d="M122.785 102.28L117.191 105.147L116.459 109.952C116.619 109.957 116.781 109.968 116.938 109.917C117.228 109.825 119.17 108.114 119.544 107.778C120.264 107.132 120.953 106.445 121.638 105.763C121.01 104.382 122.223 103.423 122.785 102.281V102.28Z" fill="#F7F0EF"/>
<path d="M164.381 111.849L158.169 111.931C146.689 111.28 135.161 111.491 123.652 111.491C120.959 113.399 118.42 115.554 115.468 117.068L113.383 130.935C113.488 131.312 115.242 131.806 115.649 131.918C121.82 133.619 130.354 134.062 136.817 134.396C144.401 134.788 152.916 135.049 160.465 134.234C162.08 134.06 163.745 133.844 165.237 133.193C165.25 132.791 165.269 132.379 165.255 131.976C165.122 128.212 164.793 124.432 164.615 120.671L164.381 111.848V111.849Z" fill="#D52B1E"/>
<path d="M127.293 79.3382C126.881 76.8697 126.39 74.3836 125.556 72.0205C125.076 70.6621 123.561 67.0066 122.018 66.6999C120.916 66.4812 119.651 67.1044 118.646 67.5638C117.251 68.2013 115.88 69.0519 114.682 70.007C110.743 73.1471 108.422 77.7874 105.943 82.0683C105.971 82.1617 106.113 82.0925 106.181 82.0683C107.712 81.5254 109.848 80.2691 111.397 80.0031C111.506 79.9845 111.97 79.9735 111.873 80.168C110.478 80.9846 109.01 81.7067 107.553 82.4123C105.629 83.3421 104.742 83.2751 103.556 85.2974C101.925 88.078 100.303 91.8083 98.9689 94.789C98.0259 96.8948 97.0268 99.0952 96.4531 101.329C98.7502 99.3798 101.758 98.2742 104.66 97.5543C105.818 97.2674 107.013 97.1278 108.156 96.8586C110.428 96.3255 112.928 95.5452 115.176 94.8626C116.53 94.4516 117.875 94.0098 119.219 93.5679C119.213 92.4183 119.629 91.4038 119.902 90.3355C120.237 89.0232 120.269 88.0846 121.171 86.9383C121.408 86.6383 121.77 86.3965 121.983 86.0876C122.36 85.5359 122.569 84.7281 122.989 84.1675C124.083 82.7102 125.918 82.5442 127.61 82.4222C127.166 81.0462 126.628 79.6833 125.99 78.3864C125.828 78.0578 125.08 76.9774 125.163 76.6971C125.182 76.6334 125.274 76.5487 125.353 76.5696L125.708 76.9279L127.292 79.3382H127.293Z" fill="#D52B1E"/>
<path d="M162.798 18.4295C162.76 15.8884 162.135 13.1847 161.048 10.8865C158.409 5.3043 150.793 1.72021 144.886 1.10692C140.973 0.701366 138.148 1.30476 134.488 2.49066C128.838 4.32172 123.394 6.75398 119.746 11.6328C117.455 14.6981 117.003 18.4449 116.537 22.1465C116.958 22.0718 117.347 21.9102 117.772 21.8399C118.033 21.797 118.385 21.8949 118.618 21.7564C118.743 21.6816 119.153 21.0684 119.306 20.9222C120.593 19.6901 122.525 18.8065 124.323 18.7438C124.571 18.735 125.142 18.846 125.258 18.8152C125.389 18.7801 127.001 17.3535 127.361 17.115C128.559 16.3192 129.845 15.9181 131.282 15.817C131.741 15.7851 132.441 15.9038 132.847 15.8005C133.009 15.7598 133.348 15.4795 133.538 15.3828C136.803 13.7287 139.663 13.5639 142.99 15.2608C146.081 13.7254 149.261 14.1376 151.882 16.3401C154.946 15.6598 157.525 15.6334 160.104 17.6063C160.287 17.7469 160.649 18.2108 160.798 18.2558C161.256 18.3921 162.25 18.2086 162.798 18.4306V18.4295Z" fill="#5A321B"/>
<path d="M142.693 16.1568C142.639 16.0986 141.417 15.5919 141.23 15.5249C138.584 14.5687 136.095 14.8665 133.737 16.3745C133.525 17.7835 133.974 19.1628 133.936 20.5674L138.799 20.0937L142.95 20.0146C142.721 19.3002 143.09 16.5877 142.693 16.1579V16.1568Z" fill="#8F6852"/>
<path d="M151.569 20.6453C151.549 19.9188 151.56 19.112 151.49 18.391C151.448 17.9602 151.387 17.093 151.098 16.8051C150.605 16.316 148.876 15.5301 148.185 15.3675C146.579 14.9894 145.265 15.4224 143.748 15.906L143.819 20.0111C146.409 20.143 149.003 20.2672 151.568 20.6453H151.569Z" fill="#8F6852"/>
<path d="M132.67 16.7706C130.95 16.6914 129.37 16.8816 127.9 17.8147C127.59 18.0114 126.239 19.0182 126.102 19.2589C125.797 19.7897 126.32 21.3339 126.265 21.9923L133.065 20.647L132.67 16.7706Z" fill="#8F6852"/>
<path d="M160.19 22.5452C160.154 22.2034 160.278 21.8956 160.276 21.556C160.271 20.924 160.2 19.7271 160.107 19.1095C160.012 18.483 158.76 17.7884 158.213 17.5235C157.251 17.0575 156.243 16.8102 155.172 16.7695L152.475 17.1608L152.523 20.802C155.119 21.1856 157.689 21.7626 160.189 22.5452H160.19Z" fill="#8F6852"/>
<path d="M165.33 24.4429C165.09 23.3449 165.354 21.8832 164.819 20.8808C164.195 19.7092 162.34 19.0146 161.061 19.1432L161.148 22.8536L165.332 24.4429H165.33Z" fill="#8F6852"/>
<path d="M125.157 19.6182H124.01C122.816 19.6182 120.34 20.9151 119.657 21.9075C119.288 22.4428 119.506 23.5078 119.544 24.1266L125.319 22.1878L125.158 19.6182H125.157Z" fill="#8F6852"/>
<path d="M118.513 22.625C117.413 22.7261 116.239 23.08 115.388 23.8098C114.409 24.6495 114.547 25.2056 114.677 26.4234L118.58 24.511L118.514 22.625H118.513Z" fill="#8F6852"/>
<path d="M161.059 46.0364C164.89 44.4428 170.532 41.5115 171.694 37.1768C173.35 30.9978 165.488 27.129 160.785 25.5463C148.801 21.5138 131.452 22.126 119.78 27.0147C116.542 28.371 112.571 30.6021 110.65 33.6235C107.189 39.0672 112.131 43.4052 116.693 45.6408C116.179 43.4492 117.196 41.3192 118.981 40.0519C118.661 38.7583 117.553 37.1262 117.645 35.7941C117.977 30.9197 124.662 27.606 128.715 26.3805C136.679 23.9725 151.312 23.5185 158.688 27.7236C163.621 30.5361 161.409 34.5544 161.611 39.2738L161.059 46.0375V46.0364Z" fill="#371D0E"/>
<path d="M128.716 27.3696C125.67 28.3225 122.355 29.8382 120.256 32.3155C119.419 33.3046 118.283 35.339 118.616 36.6414C118.713 37.0173 119.648 39.3847 119.857 39.5177C120.18 39.4683 120.515 39.2803 120.869 39.1781C122.457 38.7176 123.838 38.944 125.115 40.0277C126.126 40.8861 126.281 42.3951 126.988 43.3744C127.298 43.803 127.79 43.3964 127.991 43.0589C128.484 42.2357 128.353 39.0957 128.322 38.0043C128.241 35.061 127.711 32.044 128.199 29.1073C128.298 28.5094 128.468 27.9214 128.715 27.3696H128.716Z" fill="black"/>
<path d="M127.055 48.7266L125 49.7146C126.123 51.1171 126.895 52.7931 128.086 54.1428C128.273 54.3538 129.5 55.609 129.745 55.3705L127.055 48.7266Z" fill="black"/>
<path d="M169.838 29.4255L169.046 28.3594C167.186 26.291 164.915 25.1732 162.346 24.2247C150.071 19.6921 133.7 19.9834 121.421 24.383C118.502 25.4293 115.583 26.7218 113.216 28.7518C111.792 29.9729 110.439 31.5435 109.738 33.3009C112.32 29.5332 116.526 27.2461 120.71 25.648C131.455 21.5441 145.861 20.9242 157.029 23.5312C161.63 24.605 166.223 26.3261 169.839 29.4255H169.838Z" fill="#5A321B"/>
<path d="M149.515 49.4383C146.645 48.9162 143.742 48.2821 141.054 47.1445C141.054 47.5149 140.794 47.8238 141.183 48.082C141.616 48.3689 142.865 48.8228 143.406 49.0218C144.91 49.5768 147.596 50.422 149.118 49.7922C149.272 49.7285 149.54 49.6449 149.514 49.4383H149.515Z" fill="white"/>
<path d="M130.534 57.0332C130.447 56.876 130.407 56.6727 130.243 56.5749C130.159 56.5243 128.775 56.0363 128.692 56.0341C128.167 56.0209 127.217 56.321 126.659 56.4408C123.929 57.0266 122.053 57.1991 120.427 59.6995C120.286 59.9161 119.528 61.2767 119.553 61.4141C119.591 61.613 120.018 61.6812 120.19 61.7273C120.912 61.9208 121.681 61.9548 122.415 62.09C123.02 61.1514 123.472 60.1403 124.188 59.2544C125.463 57.6805 128.666 57.431 130.534 57.0343V57.0332Z" fill="#404040"/>
<path d="M131.323 63.0411C131.376 61.8838 131.547 60.7122 131.449 59.5581L131.287 59.4834C129.567 59.5471 127.786 59.6175 126.104 59.9945C125.72 60.0813 124.585 60.3693 124.326 60.5891C123.85 60.9924 123.4 62.7202 122.967 62.9466C122.884 62.9895 122.751 63.0279 122.658 63.0378C122.218 63.084 120.225 62.7158 119.739 62.5707C119.252 62.4256 118.713 62.1651 118.593 61.6189C116.131 63.0345 113.771 64.8425 112.124 67.2099C110.106 70.1137 108.76 73.7736 107.682 77.1225C108.237 76.3839 108.679 75.5662 109.198 74.8034C112.045 70.628 115.635 67.3275 120.604 65.8987C120.778 64.926 120.932 64.1809 121.883 63.6742C123.23 62.9554 127.737 62.3509 129.213 62.6663C129.589 62.7466 130.145 62.9554 130.351 63.2862L131.324 63.04L131.323 63.0411Z" fill="#242E5F"/>
<path d="M157.818 83.9278V73.6053C157.818 73.0997 157.085 71.0389 156.871 70.4399C156.191 68.5352 155.114 66.0876 153.47 64.8236C152.851 64.3466 148.986 63.0926 148.209 63.1201C148.053 63.1256 147.329 63.2926 147.3 63.4025C147.257 63.5619 147.374 63.5146 147.46 63.5553C147.901 63.7663 148.294 63.7553 148.647 64.1114C150.09 65.571 151.702 69.5607 152.613 71.5346C153.617 73.7097 154.541 75.9221 155.539 78.1005L157.818 83.9289V83.9278Z" fill="#404040"/>
<path d="M126.502 96.3453C125.798 98.4907 124.757 100.591 123.668 102.568C123.408 103.039 122.366 104.532 122.383 104.926C122.4 105.338 122.923 105.808 123.217 106.077C123.774 106.586 125.801 108.031 126.482 108.117C126.587 108.131 126.633 108.139 126.735 108.092C127.056 107.945 128.802 105.263 129.111 104.771C136.21 93.4492 138.89 77.3148 131.025 65.6755C130.671 65.1524 129.728 63.7467 129.188 63.5576C128.135 63.1894 125.056 63.6796 123.874 63.9357C122.823 64.1632 121.66 64.3017 121.596 65.614C121.587 65.7909 121.603 65.7085 121.716 65.7305C124.015 66.1866 125.152 68.5595 125.983 70.5598C127.529 74.2824 128.167 78.5128 128.635 82.5013C129.689 82.5156 130.815 82.5563 131.469 83.5037C132.138 84.4741 131.806 85.5095 130.849 86.1019V86.2184C132.143 86.9855 132.406 88.9925 131.178 89.9882C132.197 91.8391 131.116 93.5701 129.03 93.4976C130.12 95.288 128.336 97.0652 126.5 96.3442L126.502 96.3453Z" fill="#404040"/>
<path d="M157.817 92.9432V86.9709C157.817 86.7686 157.439 85.674 157.346 85.386C155.484 79.6785 152.544 73.2533 149.899 67.8392C149.612 67.2523 148.508 65.0674 148.085 64.7486C148.029 64.7069 147.257 64.3574 147.221 64.387C148.715 67.116 148.873 70.6793 145.901 72.4389C143.08 74.1095 139.124 72.9543 136.552 71.3002L134.094 69.3296C137.314 76.5901 137.323 84.9189 135.439 92.5454C135.873 92.5322 136.313 92.563 136.747 92.5487C142.815 92.3541 148.885 92.6443 154.929 92.8652C155.891 92.9004 156.858 92.8597 157.818 92.9411L157.817 92.9432Z" fill="#D52B1E"/>
<path d="M157.817 70.2436V67.5938C157.504 67.3399 157.116 67.1014 156.763 66.9079C156.634 66.8376 156.377 66.6508 156.234 66.7244L157.817 70.2436Z" fill="#D52B1E"/>
<path d="M97.7148 101.568C97.6126 101.462 96.7883 102.285 96.6894 102.4C95.0649 104.306 96.4344 105.752 98.3468 106.471C97.8093 104.916 97.4895 103.207 97.7137 101.568H97.7148Z" fill="#8F2C28"/>
<path d="M116.221 105.681C113.468 107.017 110.813 108.596 108.025 109.862C105.358 111.073 102.88 111.532 100.406 109.556C100.491 111.97 100.066 114.99 101.748 116.954C102.811 118.196 105.199 119.367 106.735 119.956C107.021 120.066 107.548 120.366 107.807 120.163C107.958 119.954 108.023 119.65 108.069 119.396C108.398 117.565 108.1 115.431 108.324 113.639C108.348 113.446 108.381 113.17 108.577 113.1C108.674 113.052 108.666 113.001 108.748 113.116C108.839 113.244 108.932 113.839 108.946 114.026C109.078 115.67 109.258 118.275 108.911 119.841C108.656 120.991 108.149 121.38 106.988 121.047C105.683 120.673 104.23 119.744 103.017 119.126C103.296 120.792 103.802 122.732 104.771 124.134C105.866 125.72 109.845 127.462 111.696 128.124C111.958 128.217 112.468 128.431 112.709 128.458C112.879 128.477 112.853 128.259 112.875 128.159C113.653 124.695 113.852 120.995 114.563 117.504C114.601 117.271 114.214 117.465 114.051 117.469C113.635 117.476 113.337 117.456 113.123 117.045C112.741 116.311 112.886 114.123 113.16 113.334C113.44 112.526 114.72 111.742 115.339 111.163L116.222 105.679L116.221 105.681Z" fill="#242E5F"/>
<path d="M125.473 108.688C124.255 108.125 123.2 107.263 122.191 106.396C120.832 107.78 119.417 109.113 117.919 110.346C117.002 111.1 114.748 112.542 114.163 113.393C113.735 114.017 113.801 115.686 113.882 116.444C114.083 116.735 115.534 116.002 115.826 115.848C118.461 114.461 121.732 111.847 124.085 109.95C124.524 109.595 125.011 109.238 125.421 108.852C125.488 108.79 125.494 108.799 125.472 108.689L125.473 108.688Z" fill="#404040"/>
<path d="M167.861 62.016V60.2366C167.861 59.6431 167.468 58.3825 167.134 57.878C165.887 55.9854 164.743 58.6649 164.497 59.7992C164.109 61.5841 164.152 64.3812 165.797 65.5408C166.767 65.1583 165.677 64.4868 165.451 63.9141C165.028 62.8469 164.911 59.7706 165.581 58.8276C165.801 58.5188 166.108 58.3616 166.467 58.5473C167.293 58.976 167.374 61.1818 167.387 62.0182H167.862L167.861 62.016Z" fill="#B3B3B3"/>
<path d="M175.916 62.0047C176.252 61.0078 175.789 57.471 174.539 57.2743C174.045 57.1962 173.768 57.4204 173.477 57.7842C172.25 59.3174 172.066 63.3148 173.239 64.903C173.391 65.1074 173.928 65.7207 174.185 65.4558C174.627 64.9997 174.134 64.7612 173.918 64.4611C173.17 63.4192 173.132 61.1771 173.34 59.9417C173.43 59.4054 173.7 58.3338 174.447 58.469C175.406 58.6426 175.501 61.2584 175.533 62.0168L175.918 62.0047H175.916Z" fill="#B3B3B3"/>
<path d="M183.596 60.6307C183.636 61.0748 183.568 61.566 183.596 62.0156L184.062 62.0068C184.233 61.1385 184.15 60.112 183.952 59.247C183.697 58.1325 182.803 56.3311 181.621 57.7852C180.383 59.3107 180.217 63.1333 181.287 64.76C181.431 64.9776 182.019 65.6821 182.276 65.5029C182.748 64.8336 182.28 64.8094 181.98 64.383C181.254 63.3499 181.265 60.678 181.578 59.4833C181.73 58.9041 182.102 58.1809 182.798 58.581C183.279 58.8568 183.549 60.1032 183.595 60.6307H183.596Z" fill="#B3B3B3"/>
<path d="M191.902 60.6328C191.943 61.0757 191.872 61.5681 191.902 62.0176L192.372 62.0132C192.569 60.8086 192.384 58.605 191.547 57.6664C190.498 56.4904 189.594 58.0994 189.27 59.0292C188.737 60.558 188.698 63.065 189.437 64.5235C189.567 64.7807 190.362 65.8578 190.642 65.4445C191.023 64.8851 190.593 64.7807 190.322 64.429C189.544 63.4145 189.53 60.5372 189.902 59.3447C190.237 58.2709 191.129 58.1478 191.569 59.2271C191.696 59.5403 191.871 60.3009 191.902 60.6339V60.6328Z" fill="#B3B3B3"/>
<path d="M200.046 60.7096C200.086 61.1262 200.017 61.5922 200.046 62.0153H200.52C200.654 61.1569 200.591 60.2381 200.418 59.3885C200.17 58.1762 199.254 56.2529 197.99 57.8619C196.993 59.1324 196.849 61.6856 197.143 63.2177C197.317 64.1178 197.717 65.1345 198.584 65.5543C199.377 64.9367 198.448 64.585 198.187 63.9926C197.718 62.9221 197.591 59.8183 198.272 58.8566C198.559 58.4521 198.922 58.3191 199.332 58.6565C199.714 58.9709 200 60.2238 200.047 60.7096H200.046Z" fill="#B3B3B3"/>
<path d="M208.113 63.2817V70.9544C208.519 70.7093 208.983 70.595 209.459 70.6379L209.419 63.7554L209.142 63.5983C209.116 65.0051 209.2 66.4273 209.062 67.8297C209.012 68.3364 208.795 70.1444 208.52 68.6101C208.224 66.9592 208.407 65.1546 208.35 63.4807L208.113 63.2828V63.2817Z" fill="#BECDE1"/>
<path d="M208.113 87.4864V107.104L208.352 107.058L208.588 92.4696C208.924 92.4179 208.954 92.5124 208.984 92.8257C209.15 94.5996 209.012 96.4955 209.06 98.2881C209.439 100.94 208.836 104.06 209.139 106.673C209.152 106.792 209.148 106.873 209.262 106.946L209.459 106.827V88.3964L208.985 88.0403L208.905 90.0571C208.899 90.1615 208.821 90.278 208.709 90.2549C208.452 90.2011 208.456 88.2524 208.41 87.9436C208.384 87.7699 208.351 87.4567 208.115 87.4875L208.113 87.4864Z" fill="#BECDE1"/>
<path d="M208.883 71.6052C208.557 71.68 208.124 72.2449 208.11 72.5779C208.091 73.0208 208.527 73.7627 208.83 74.0771C209.204 74.4661 209.986 74.598 210.516 74.842C211.163 75.1399 211.755 75.5784 212.386 75.9037C212.887 75.3553 212.755 74.4024 212.429 73.7979C211.98 72.9615 209.868 71.3766 208.883 71.6041V71.6052Z" fill="#EED3CA"/>
<path d="M207.519 74.9492C206.121 74.9459 205.985 76.5923 206.848 77.4793C207.485 78.1354 207.974 78.0299 208.745 78.2717C210 78.6663 211.163 79.3027 212.185 80.1292C212.693 79.395 212.93 77.5892 212.349 76.8825C211.998 76.4572 209.752 75.535 209.141 75.346C208.809 75.2427 207.808 74.9503 207.519 74.9503V74.9492Z" fill="#EED3CA"/>
<path d="M212.122 81.0263C211.895 80.7735 210.306 79.98 209.907 79.8019C208.958 79.3788 207.481 78.6809 206.619 79.548C205.838 80.3339 206.358 81.3879 207.092 81.9847C207.691 82.4716 207.784 82.3188 208.434 82.4617C209.582 82.7145 210.649 83.5245 211.48 84.3224C211.647 84.3598 212.072 83.4937 212.136 83.3256C212.353 82.7508 212.568 81.5209 212.121 81.0263H212.122Z" fill="#EED3CA"/>
<path d="M210.406 90.8088C211.427 89.6482 212.13 88.514 211.991 86.8906C211.929 86.163 211.699 85.8004 211.238 85.2706C210.423 84.332 206.871 81.7063 207.004 84.5232C207.079 86.1279 209.013 86.7236 210.013 87.6039C210.307 87.8633 210.407 87.9216 210.407 88.3172V90.8088H210.406Z" fill="#EED3CA"/>
<path d="M126.657 179.879C122.876 179.849 119.043 179.525 115.389 178.533L115.111 180.036C118.395 179.563 122.254 181.452 124.002 184.236C124.36 184.806 124.561 185.485 125.036 185.968L125.232 185.69L126.657 179.879Z" fill="#E5E5E5"/>
<path d="M156.316 182.33V180.709C156.316 180.668 156.441 180.543 156.395 180.432C152.706 180.831 148.985 180.473 145.324 180.035C145.546 181.802 145.077 183.587 145.943 185.23C146.178 185.677 146.482 186.111 146.949 185.655C147.445 185.169 147.875 184.329 148.37 183.834C150.272 181.923 153.848 181.408 156.317 182.33H156.316Z" fill="#E5E5E5"/>
<path d="M162.088 18.7475C163.6 18.8673 165.171 19.7971 165.805 21.1995C165.881 21.9678 166.003 22.7624 166.042 23.5339C166.06 23.9142 166.03 24.3 166.042 24.6803C165.834 24.511 165.555 24.5055 165.409 24.4429C164.836 24.4143 164.523 24.0263 164.469 23.2801L164.135 21.3138C163.997 20.7731 163.485 20.4664 163.024 20.2147L161.001 19.3333L160.98 19.1442C161.037 18.9387 161.04 18.8409 161.218 18.6694C161.446 18.875 161.815 18.8343 162.087 18.7486L162.088 18.7475Z" fill="#AD8F7E"/>
<path d="M160.35 22.2264C160.13 22.2001 159.995 22.0176 159.914 21.8308C159.603 21.1109 159.656 19.8381 159.204 19.2183C158.594 18.3808 156.968 17.4466 155.983 17.141C155.631 17.0322 154.987 17.0982 154.893 16.6882C155.075 16.6277 155.2 16.4178 155.644 16.3728C157.006 16.2365 159.48 17.3421 160.311 18.4269C160.78 19.0402 160.858 21.0263 160.74 21.7857C160.676 22.1924 160.371 22.1913 160.348 22.2253L160.35 22.2264Z" fill="#AD8F7E"/>
<path d="M146.43 15.1879C146.271 14.2514 148.025 14.6889 148.548 14.8493C149.799 15.2318 152.207 17.031 151.93 18.5137C151.875 18.806 151.655 18.9335 151.649 18.961C151.63 19.0456 151.652 19.6765 151.649 19.8556C151.487 19.8754 151.289 19.5446 151.236 19.4369C150.662 18.2642 150.642 17.7223 149.593 16.731C148.921 16.0946 147.337 15.3022 146.429 15.1889L146.43 15.1879Z" fill="#AD8F7E"/>
<path d="M124.209 19.5391C123.452 19.6567 121.099 21.4284 120.61 22.068C120.157 22.6604 120.252 23.4793 119.86 24.1266C119.552 24.22 119.328 24.4871 119.087 23.9892C118.805 23.4056 119.19 22.101 119.581 21.5932C120.134 20.8733 122.809 19.1544 123.695 19.1412C123.912 19.1379 124.274 19.2324 124.209 19.538V19.5391Z" fill="#AD8F7E"/>
<path d="M117.803 22.5449C117.833 22.7504 117.765 22.7768 117.623 22.879C116.525 23.6758 115.814 23.9143 115.309 25.3893L115.115 26.3411C115.042 26.3806 114.95 26.529 114.817 26.5609C113.998 26.7598 113.933 25.1673 114.29 24.6056C114.961 23.5527 116.188 22.1437 117.594 22.4009C117.707 22.4218 117.791 22.5416 117.804 22.5427L117.803 22.5449Z" fill="#AD8F7E"/>
<path d="M126.028 20.9611C125.298 21.1029 125.526 19.7829 125.723 19.429C125.912 19.0882 127.283 17.932 127.663 17.6518C128.241 17.2253 129.409 16.5637 130.108 16.4593C130.324 16.4263 130.618 16.3559 130.536 16.6901C129.704 16.8824 126.974 19.1707 126.566 19.9565C126.441 20.1939 126.394 20.4841 126.252 20.7533C126.192 20.8687 126.034 20.9479 126.028 20.9622V20.9611Z" fill="#AD8F7E"/>
<path d="M155.366 22.0694C155.324 21.8067 155.736 21.9023 155.862 21.9298C156.817 22.1386 159.376 22.9992 160.19 23.4136C162.038 24.0104 163.83 24.7226 165.568 25.5491C166.472 25.9304 167.884 26.5503 168.731 27.0515C170.19 27.9154 171.783 30.6763 172.29 32.2721C172.122 32.2886 172.002 32.2875 171.851 32.1974C171.137 31.772 170.116 30.0333 169.495 29.3738C168.232 28.0319 165.358 26.7932 163.646 26.0096C162.376 25.4293 161.048 24.7775 159.718 24.3621L158.955 23.8983C157.895 23.3927 156.73 22.9695 155.708 22.3991C155.546 22.309 155.389 22.076 155.367 22.0672L155.366 22.0694Z" fill="#835840"/>
<path d="M119.147 62.1756L114.956 65.5366C112.136 67.9985 110.179 71.3068 108.445 74.571C108.423 74.6128 108.354 74.6425 108.315 74.6743L108.236 74.7535C108.229 74.7776 108.24 74.8062 108.236 74.8326C107.951 75.4811 107.6 76.0888 107.185 76.6582L106.971 76.6516C107.918 73.6511 109.869 68.3338 112.032 66.1312C112.949 64.8717 114.272 63.8605 115.572 62.9933C116.441 62.4141 117.564 61.68 118.526 61.3151C118.635 61.2744 119.699 62.0284 119.149 62.1756H119.147Z" fill="#50587F"/>
<path d="M127.687 56.0833C127.723 56.0855 127.759 56.091 127.788 56.1064C128.186 56.3087 127.029 56.9011 126.789 56.8945C124.238 57.5341 122.103 58.6431 120.655 60.983C120.391 61.4018 120.074 61.6414 119.7 61.6996C119.097 62.0469 118.56 60.9479 118.988 60.5126C119.146 60.4456 120.028 58.8003 120.28 58.4837C120.585 58.1034 121.14 57.6979 121.439 57.3484L121.676 57.2692C121.689 57.2582 121.663 57.2 121.676 57.1901C121.873 57.133 122.058 57.0538 122.23 56.9527C122.371 56.9032 122.503 56.8362 122.626 56.7944C123.284 56.4845 123.995 56.2735 124.761 56.1614C124.811 56.1526 124.869 56.1691 124.92 56.1614C125.514 56.068 126.183 55.869 126.775 55.8415C127.08 55.8273 127.552 55.7503 127.688 56.0822L127.687 56.0833Z" fill="#717171"/>
<path d="M131.404 58.9316L131.325 59.4064C131.03 59.4218 130.51 59.6318 130.153 59.6977C128.387 60.0241 126.586 60.3264 124.819 60.5781L124.523 60.356C124.538 60.3429 124.519 60.156 124.676 59.9956C124.738 59.9318 125.272 59.6471 125.314 59.6449C125.374 59.6416 125.554 59.7538 125.745 59.7263C126.479 59.6219 127.212 59.4262 127.973 59.3383C128.825 59.2394 130.752 59.28 131.404 58.9327V58.9316Z" fill="#50587F"/>
<path d="M129.588 63.6767C129.391 64.0076 129.091 64.0559 128.736 64.1296C127.678 64.3483 126.454 64.334 125.368 64.4791C124.66 64.5736 123.958 64.7154 123.261 64.8637L124.049 65.6957C126.16 68.893 127.683 72.976 127.689 76.8074C127.481 76.6535 127.407 76.2634 127.333 76.0161C126.73 73.9674 126.497 71.7549 125.462 69.8206C124.62 68.2489 123.365 66.0068 121.47 65.7617C121.269 65.7353 121.029 65.9243 120.81 65.654C120.817 65.5518 120.795 65.432 120.81 65.3374L121.362 64.5846C122.961 62.7392 127.051 63.0404 129.238 63.2756C129.556 63.3998 129.488 63.5657 129.589 63.6767H129.588Z" fill="#717171"/>
<path d="M146.889 63.2799C147.049 63.1744 147.754 62.8612 148.056 62.8106C149.244 62.6128 152.761 63.7888 153.663 64.6307C154.345 65.2682 155.166 65.9452 155.749 66.7343C156.057 67.1531 156.536 67.8609 156.553 68.3829C156.561 68.6028 156.362 68.472 156.237 68.5005C156.117 68.328 155.67 68.0049 155.484 67.7894C154.596 66.7596 153.661 65.5858 152.344 65.0769C150.932 64.5318 149.293 64.2592 147.876 63.6932C147.654 63.5954 146.871 63.5041 146.889 63.2788V63.2799Z" fill="#717171"/>
<path d="M140.168 61.0492C140.202 61.0327 140.198 60.8118 140.531 60.8326C140.957 60.8601 141.656 61.3624 141.968 61.3822C142.149 61.3932 142.273 61.2525 142.441 61.2272C143.121 61.125 144.317 61.7921 145.055 61.8504C145.541 61.8877 146.122 61.5393 146.462 62.0999C146.831 62.7088 146.262 62.8439 146.15 63.1231C146.086 63.2803 146.304 63.6617 145.963 63.8826L145.96 63.9859C146.366 64.0837 146.382 64.619 145.918 64.63C145.617 64.6365 144.24 63.9936 143.87 63.8232C142.745 63.3045 141.523 62.645 140.445 62.0284C140.066 61.8119 137.743 60.4458 137.664 60.2215C137.628 60.1182 137.654 59.9896 137.651 59.8797C137.875 59.65 139.863 61.1986 140.165 61.0492H140.168Z" fill="black"/>
<path d="M120.649 66.6033C120.883 66.6517 120.815 66.855 120.672 67.0001C117.709 68.7322 114.872 70.7116 112.791 73.7088C110.92 76.3257 109.111 78.9668 107.363 81.6321C107.383 81.6804 107.396 81.7222 107.381 81.7387C107.362 81.7596 107.213 81.831 107.164 81.8519C106.975 81.9332 110.383 80.4561 110.882 80.3516C111.066 80.3132 111.143 80.311 111.159 80.5242C111.526 80.6693 111.096 81.1309 110.878 81.3309C109.902 82.1256 108.875 82.8433 107.794 83.4851C106.746 84.1654 105.891 85.115 105.292 86.224C103.211 90.0796 101.184 94.0791 99.5402 98.0852C99.1148 99.1964 98.5026 100.076 97.4772 100.615C97.5475 100.826 97.309 101.279 97.0815 101.248C96.6353 101.583 96.089 102.039 95.6582 101.407C95.6714 101.385 95.6604 101.123 95.6934 101.009C96.3902 98.6634 97.3497 96.4619 98.3466 94.2077L98.7312 93.5834C99.9842 90.9544 101.28 88.398 102.619 85.9141L102.538 85.7437C102.768 85.3865 102.93 84.8326 103.265 84.3743C103.635 83.8654 104.102 83.5511 104.437 83.1334C104.655 82.8916 104.91 82.7037 105.2 82.5707C105.075 82.1585 105.164 81.7398 105.464 81.3144C105.478 81.2738 105.52 81.2221 105.543 81.1562C105.92 80.5418 106.341 79.9626 106.808 79.4163L106.747 79.2427C106.857 79.0273 107.706 77.6226 107.803 77.6358C107.842 77.6402 107.879 77.6567 107.916 77.6765C108.089 77.6369 108.503 76.917 108.722 76.6236C111.539 72.823 114.457 68.8707 118.96 66.9308C119.383 66.7484 120.272 66.2714 120.649 66.6033Z" fill="#DD554B"/>
<path d="M167.939 61.7803C167.913 61.4989 167.755 61.3857 167.68 61.1307C167.416 60.2284 167.256 59.1546 166.739 58.3533C166.283 57.6455 165.983 57.7148 165.172 57.7456C165.292 57.4224 165.164 57.2048 165.669 57.0169C167.448 56.3519 168.236 59.3161 168.325 60.5647C168.349 60.8999 168.463 61.8121 167.939 61.7803Z" fill="#E5E5E5"/>
<path d="M176.164 61.4629C176.17 61.2651 175.038 58.402 174.854 58.1459C174.358 57.4535 173.998 57.8909 173.316 57.7458C173.337 57.6942 173.298 57.5623 173.357 57.4337C173.494 57.1403 174.096 56.9073 174.404 56.8963C175.719 56.8479 176.442 59.1296 176.549 60.1682C176.586 60.5276 176.735 61.6311 176.163 61.464L176.164 61.4629Z" fill="#E5E5E5"/>
<path d="M189.371 57.3488C189.708 57.2323 190.423 57.0608 190.768 57.063C191.861 57.0707 192.556 58.5973 192.941 59.4359C192.995 59.5535 192.984 59.6821 193.166 59.6425C193.27 60.3767 193.248 61.1153 193.245 61.8572C193.238 61.8462 193.105 61.8528 193.016 61.733C192.852 61.5121 192.836 60.9823 192.612 60.7493L192.443 60.6735C192.066 59.4238 191.397 57.6422 189.789 57.9862L189.686 57.8225C189.612 57.8181 189.534 57.8456 189.463 57.8115C189.386 57.6675 189.366 57.5092 189.369 57.3477L189.371 57.3488Z" fill="#E5E5E5"/>
<path d="M181.306 57.9825C180.8 57.4923 181.778 56.9527 182.189 56.8504C182.793 56.6999 183.193 56.9395 183.65 57.2989L184.469 58.3782C184.472 58.4045 184.465 58.432 184.469 58.4573C184.566 58.6309 184.645 58.8156 184.706 59.0112C184.961 60.0356 184.898 60.6851 184.944 61.7007C184.604 61.6589 184.535 61.2676 184.311 61.0676L184.14 60.9698C183.839 59.9257 183.429 58.7178 182.643 57.9484C182.253 57.8836 181.847 57.9429 181.422 58.1254L181.306 57.9825Z" fill="#E5E5E5"/>
<path d="M114.48 119.049C114.613 118.837 114.763 118.681 115.033 118.733C115.033 118.838 115.035 118.944 115.033 119.049C115.302 119.294 115.066 120.189 114.796 120.394C114.674 120.471 114.659 120.608 114.616 120.729C114.467 121.151 113.896 122.67 113.861 122.986C113.836 123.21 113.94 123.471 113.926 123.754C113.902 124.225 113.744 124.825 113.65 125.3C113.393 126.609 113.081 128.065 112.503 129.254C111.641 128.951 110.892 128.662 110.051 128.304C110.077 128.124 110.202 127.825 110.288 127.671L110.337 127.368C111.781 124.816 112.999 122.201 114.04 119.526C114.124 119.235 114.271 119.077 114.48 119.049Z" fill="black"/>
<path d="M130.219 134.71L129.932 134.865C125.51 135.131 121.028 135.513 116.486 136.012L115.826 135.976C115.737 136.24 115.312 136.333 115.193 136.055C115.368 134.999 115.502 133.934 115.747 132.891C117.182 132.977 118.67 133.042 120.124 133.298C121.578 133.554 123.161 134.175 124.566 134.234C126.369 134.308 128.292 134.009 130.091 134.323C130.556 134.404 130.963 134.635 130.219 134.708V134.71Z" fill="black"/>
<path d="M121.52 155.594C122.051 155.564 122.62 155.683 123.102 155.911C123.624 155.894 124.308 156.049 124.762 156.307C125.113 156.426 125.256 156.592 125.47 156.666C125.903 156.816 126.37 156.74 126.84 157.016C126.929 157.068 126.903 157.221 127.092 157.256C127.705 157.369 128.821 157.262 129.546 157.334C129.925 157.373 131.738 157.645 131.922 157.885C132.226 158.284 131.279 158.122 131.211 158.121C126.753 158.038 122.282 158.611 117.882 159.232C117.913 159.061 117.857 158.84 117.891 158.648C118.081 157.569 118.311 156.497 118.431 155.407L117.17 154.96C118.591 154.781 120.162 155.15 121.519 155.593L121.52 155.594Z" fill="black"/>
<path d="M144.137 162.158C144.135 162.041 144.058 161.887 144.055 161.727C144.034 160.711 144.075 159.691 144.058 158.677C143.847 158.753 143.635 158.616 143.504 158.598C143.559 158.418 143.708 158.444 143.856 158.435C145.71 158.329 148.179 158.356 150.005 158.622C150.893 158.751 151.644 158.834 152.554 158.921C154.042 159.064 155.329 158.793 156.826 158.753C157.34 158.738 158.373 159.026 157.475 159.323C156.119 159.773 153.785 159.972 152.267 160.284C149.542 160.844 146.841 161.516 144.137 162.158Z" fill="black"/>
<path d="M203.052 77.9956H163.037V80.2894H203.052V77.9956Z" fill="#D52B1E"/>
<path d="M147.932 63.995L147.991 63.9653C148.491 64.2643 148.893 64.6962 149.197 65.2611C149.224 65.2875 149.25 65.3139 149.277 65.3403C149.438 65.5458 149.544 65.7568 149.593 65.9733C149.614 66.169 149.535 66.5581 149.593 66.8438C149.556 66.8757 149.556 66.9021 149.593 66.9229C149.76 67.5934 150.678 68.9903 151.025 69.6432C152.441 72.3029 153.784 75.0176 154.984 77.7862C155.159 78.1896 156.454 81.1769 156.314 81.3197L155.919 81.1615C155.008 78.6831 153.116 75.2748 151.821 72.8821C150.736 70.8763 149.515 68.6694 148.313 66.7416C148.201 66.5614 147.996 66.1657 147.774 66.1327C147.594 65.6711 146.748 64.86 146.837 64.527C146.873 64.3896 147.016 64.3709 147.063 64.3137C147.144 64.2071 147.255 64.1159 147.38 64.0763C147.539 64.0379 147.777 63.9565 147.933 63.9972L147.932 63.995Z" fill="black"/>
<path d="M143.583 0.316691C143.654 0.304601 143.744 0.321087 143.821 0.316691C143.95 0.308997 144.087 0.312294 144.216 0.316691C144.296 0.318889 144.375 0.316691 144.454 0.316691C144.514 0.254043 144.68 0.295808 144.691 0.395824C144.796 0.40022 144.903 0.38923 145.008 0.395824C146.129 0.540902 147.243 0.772808 148.285 1.22123L151.908 2.6808C152.173 2.47088 152.546 2.27964 152.597 2.75225C156.124 4.2327 158.926 6.51328 161.031 9.63136C161.987 11.0492 162.428 12.2911 162.96 13.843C163.087 14.3365 163.183 14.7641 163.277 15.2663C163.174 15.651 163.207 16.0818 163.374 16.561L163.407 17.0963C163.366 17.3348 163.427 17.5425 163.593 17.7184C163.62 18.0052 163.638 18.3031 163.672 18.5888L163.509 18.6823C163.091 18.5833 162.642 18.6306 162.163 18.8218L162.09 18.7471C161.991 19.1032 161.195 19.0614 161.22 18.668C160.996 18.7625 160.876 18.4921 161.062 18.3514C160.84 18.2514 160.711 18.0349 160.678 17.7008L160.143 14.9817C159.595 12.356 157.384 10.5744 155.268 9.14008L152.565 7.37386C152.243 7.23758 151.493 6.65616 151.945 6.34622C152.313 6.09344 155.844 7.86625 156.191 8.08826C153.345 5.43729 149.504 3.25562 145.628 2.5698C137.952 1.21244 127.167 4.43823 121.967 10.3502C119.524 13.1253 119.201 16.2863 119.029 19.8616C119.074 20.7727 118.85 21.4563 118.357 21.9113L118.254 22.085C117.723 22.118 117.214 22.2477 116.727 22.4741C116.331 22.5939 115.934 22.6664 115.748 22.2279C115.823 21.8817 115.799 21.3981 115.827 21.0409C115.893 20.9562 115.928 20.9112 115.906 20.8035C115.911 20.732 115.916 20.632 115.906 20.5661C115.849 20.4727 115.883 20.4276 115.985 20.4078C115.991 20.3562 115.978 20.3001 115.985 20.2495L116.079 20.0638C116.324 19.9506 116.576 19.7956 116.621 19.5044C115.922 19.3263 116.187 18.4976 116.381 18.0338C116.96 13.1352 119.926 9.36869 123.814 6.56384C124.008 6.64188 124.061 6.50999 124.142 6.47152C125.84 5.6615 127.442 4.63826 129.138 3.86011C133.759 1.74219 138.965 0.698071 144.058 0.867329L143.347 0.629928L143.383 0.38923C143.437 0.322186 143.51 0.327682 143.584 0.315592L143.583 0.316691Z" fill="#835840"/>
<path d="M164.54 112.324C164.742 113.812 164.809 115.642 164.934 117.19C165.314 121.868 165.505 126.511 165.729 131.188C165.748 131.586 165.781 132.397 165.708 132.755C165.636 133.113 165.309 133.247 165.216 133.449C165.12 133.653 165.109 134.003 164.935 134.237C164.876 134.255 164.769 134.225 164.698 134.237C164.68 134.338 164.629 134.372 164.54 134.316C164.445 134.307 164.291 134.338 164.223 134.316C163.986 134.238 163.868 134.044 163.669 133.92L163.517 133.778C163.631 131.752 163.671 129.704 163.64 127.633C163.42 123.612 163.204 119.602 162.994 115.606C162.975 114.929 162.932 112.908 163.46 112.35C163.788 112.002 164.361 111.826 164.539 112.324H164.54Z" fill="#DD554B"/>
<path d="M116.85 106.268L116.64 106.625C117.097 106.306 117.597 106.014 118.121 105.767C118.605 105.171 119.112 104.592 119.7 104.057C120.187 103.614 120.826 103.238 121.282 102.832C121.456 102.677 121.673 102.294 121.279 102.391C121.066 102.444 120.379 102.927 120.15 103.083C119.98 103.2 119.238 103.833 119.171 103.851C118.99 103.898 118.88 103.683 118.673 103.734C118.358 103.811 118.071 104.211 117.882 104.293C117.715 104.367 117.543 104.304 117.385 104.351C117.126 104.426 116.152 105.744 116.478 106.056C116.597 106.17 116.905 106.078 116.851 106.267L116.85 106.268Z" fill="black"/>
<path d="M163.985 135.659C163.979 136.212 163.99 136.768 163.985 137.32C163.946 137.388 163.946 137.441 163.985 137.478V137.637C163.817 139.162 163.655 140.693 163.646 142.23C163.795 147.55 163.889 152.777 163.923 157.912L163.827 158.123C163.811 158.15 163.86 158.272 163.812 158.341C163.619 158.609 162.279 158.704 161.93 158.756V158.123L161.824 157.372C161.669 152.142 161.577 146.95 161.551 141.799C161.534 140.821 162.714 135.955 163.239 135.626C163.293 135.592 163.371 135.626 163.433 135.658C163.399 135.344 163.972 135.353 163.987 135.658L163.985 135.659Z" fill="#4D50A8"/>
<path d="M115.59 137.4C115.641 137.352 115.729 137.309 115.765 137.348C116.196 137.837 116.344 139.778 116.341 140.428C116.328 144.83 116.031 149.269 115.402 153.583L115.194 153.773C115.416 153.872 115.239 154.2 115.036 154.248C115.002 154.229 114.656 154.248 114.494 154.196C114.301 154.134 113.91 153.877 113.691 153.773C113.651 153.705 113.612 153.635 113.585 153.563C113.557 153.49 113.533 153.421 113.533 153.352C113.538 152.859 113.565 152.367 113.598 151.876C113.901 147.297 114.314 142.674 114.898 138.176C114.922 137.993 115.015 137.395 115.107 137.288C115.27 137.099 115.599 137.101 115.588 137.399L115.59 137.4Z" fill="#4D50A8"/>
<path d="M130.218 134.71C131.287 134.734 132.548 134.962 133.659 135.026C141.933 135.501 150.696 135.836 158.963 135.184C160.419 135.07 161.878 134.888 163.312 134.63L163.432 135.66C162.916 136 161.875 140.227 161.781 141.009C161.551 142.938 161.748 144.924 161.775 146.849C161.826 150.606 161.93 154.365 161.93 158.125L158.572 158.366C157.992 158.372 157.409 158.346 156.83 158.363C153.435 158.466 150.021 158.447 146.628 158.204C145.217 158.103 143.783 157.958 142.396 157.692L142.316 157.535C142.185 156.111 142.147 154.69 142.079 153.263C141.997 151.536 141.737 149.168 141.921 147.487C142.044 146.361 142.982 144.727 143.23 143.496C143.336 142.974 143.323 142.433 143.423 141.911L143.149 141.991C141.246 147.23 139.481 152.531 137.813 157.853C137.588 157.973 137.354 157.819 137.136 157.812C133.157 157.671 128.665 156.96 124.76 156.15C124.237 156.136 123.57 155.986 123.099 155.754C122.613 155.775 122.02 155.672 121.597 155.438C119.456 154.935 117.339 154.26 115.191 153.777C115.52 152.461 115.626 150.538 115.744 149.149C115.998 146.188 116.329 142.514 116.14 139.579C116.114 139.164 115.909 137.617 115.587 137.403L115.824 135.98C118.416 135.707 121.018 135.412 123.615 135.189C125.596 135.019 128.298 134.671 130.218 134.715V134.71Z" fill="#212492"/>
<path d="M121.284 45.8789C120.836 44.8732 121.189 43.9379 121.593 42.9916C121.271 42.5366 119.878 43.1334 119.793 42.6652C119.995 42.0189 121.059 41.9464 121.631 42.0123C122.673 42.1332 124.386 43.285 124.45 44.4193C124.464 44.6721 124.41 44.9655 124.095 44.9347C123.779 44.904 122.979 43.4158 122.435 43.3499C121.95 43.7433 121.941 45.5986 121.523 45.8437C121.447 45.8876 121.368 45.8898 121.284 45.8789Z" fill="black"/>
<path d="M141.054 48.5693C141.173 49.3222 141.362 50.0927 141.765 50.7499C143.666 50.5114 145.949 51.3698 147.098 52.925C147.654 53.6767 147.398 54.0219 148.569 53.4371C149.75 52.848 150.879 51.2841 150.935 49.9421C150.938 49.852 150.954 49.7706 150.86 49.7157L150.432 49.6146C149.277 51.1654 146.871 50.7664 145.227 50.3652C143.748 50.0047 142.346 49.3552 141.053 48.5693H141.054Z" fill="black"/>
<path d="M142 46.6689L151.651 49C151.881 50.2002 151.478 51.7126 150.796 52.738C147.7 57.4047 140.912 53.947 140.191 49.0715C140.109 48.5109 140.234 47.8141 140.182 47.4262C140.145 47.1426 139.81 47.1514 140.067 46.7524C140.413 46.215 141.487 45.8874 142.045 46.1908L142 46.6678V46.6689ZM149.514 49.4386C146.644 48.9165 143.741 48.2823 141.053 47.1448C141.053 47.5152 140.792 47.824 141.181 48.0823C141.615 48.3692 142.864 48.8231 143.405 49.022C144.908 49.5771 147.595 50.4222 149.117 49.7925C149.271 49.7287 149.539 49.6452 149.512 49.4386H149.514ZM141.053 48.5681C141.172 49.321 141.361 50.0914 141.764 50.7487C143.665 50.5102 145.948 51.3685 147.097 52.9237C147.653 53.6755 147.397 54.0206 148.568 53.4359C149.749 52.8468 150.878 51.2828 150.934 49.9408C150.937 49.8507 150.953 49.7694 150.859 49.7144L150.431 49.6133C149.276 51.1641 146.87 50.7651 145.226 50.364C143.747 50.0035 142.345 49.3539 141.052 48.5681H141.053ZM146.667 53.8667C145.918 52.2984 143.857 51.6312 142.239 51.4949C143.206 52.9215 144.897 53.9525 146.667 53.8667Z" fill="black"/>
<path d="M142.847 33.909C142.302 34.4135 141.429 33.6738 140.857 33.4573C139.812 33.0616 138.572 32.8956 137.456 32.9858C136.906 33.0297 135.91 33.4045 135.481 33.377C134.898 33.3386 134.891 32.7352 135.236 32.3483C136.658 30.7568 140.782 30.7799 142.399 32.0735C142.907 32.4802 143.445 33.3562 142.847 33.9101V33.909Z" fill="black"/>
<path d="M155.268 33.4011C156.396 33.389 158.344 33.8605 158.858 34.9882C159.253 35.8531 158.707 36.4675 157.816 36.1092C156.799 35.7004 156.508 35.341 155.25 35.275C154.681 35.2454 153.349 35.4872 152.961 35.2695C152.751 35.1508 152.668 34.9167 152.668 34.6848C152.668 33.7055 154.533 33.4088 155.267 33.4011H155.268Z" fill="black"/>
<path d="M138.587 35.2947C140.515 35.1969 141.241 37.7424 141.137 39.2756C141.023 40.944 139.696 43.2718 137.728 42.3607C135.169 41.1759 135.755 35.4387 138.587 35.2947Z" fill="black"/>
<path d="M138.264 36.0077C137.489 36.1671 136.797 37.6069 136.712 38.3312C136.576 39.4973 136.935 41.8295 138.484 41.7691C139.814 41.7163 140.459 39.6688 140.424 38.5587C140.386 37.3706 139.719 35.7077 138.263 36.0077H138.264Z" fill="black"/>
<path d="M154.866 37.3665C157.953 37.3181 157.6 44.3137 154.536 44.2796C151.549 44.2467 151.877 37.4126 154.866 37.3665Z" fill="black"/>
<path d="M154.634 37.9853C153.02 38.3173 152.537 42.3839 153.949 43.3796C155.216 44.2732 156.23 42.1223 156.319 41.0935C156.411 40.034 156.216 37.66 154.634 37.9843V37.9853Z" fill="black"/>
<path d="M150.046 40.8268C150.303 40.7543 150.465 41.0049 150.62 41.1741C151.383 42.005 152.591 43.9229 153.186 44.9352C153.349 45.2121 153.903 45.9375 153.47 46.1551C153.246 46.2672 153.115 46.1881 152.952 46.0386C152.444 45.5726 151.409 43.8493 150.986 43.181C150.731 42.7799 149.985 41.7347 149.868 41.372C149.793 41.1401 149.808 40.9334 150.047 40.8257L150.046 40.8268Z" fill="black"/>
<path d="M147.042 56.7737C146.732 57.1089 145.812 57.0287 145.406 56.9111C145.057 56.81 144.113 56.3264 144.228 55.9021C144.339 55.4966 144.675 55.9032 144.906 55.9868C145.136 56.0703 145.545 56.1912 145.779 56.2209C146.04 56.2538 147.64 56.1285 147.042 56.7737Z" fill="black"/>
<path d="M162.46 77.0634L203.175 77.0425C203.514 77.0513 203.83 77.2106 203.94 77.5426L204.003 104.063C203.932 104.835 203.666 104.78 203.018 104.812C198.431 105.037 193.518 104.804 188.939 104.808C181.39 104.815 173.858 104.886 166.323 104.808C165.186 104.796 163.678 104.94 162.601 104.813C162.376 104.786 162.208 104.728 162.123 104.5L162.084 77.636C162.076 77.3656 162.18 77.1282 162.461 77.0634H162.46ZM203.052 77.9954H163.036V80.2891H203.052V77.9954ZM167.861 81.2388H163.037V85.9054H167.861V81.2388ZM173.792 85.9054V81.3575C173.792 81.1585 173.327 81.3179 173.202 81.3212C171.773 81.3597 170.361 81.2431 168.941 81.2508L168.81 81.3575V85.9054H173.792ZM179.486 81.2388L174.853 81.2431L174.662 81.3575V85.9054H179.486V81.2388ZM185.259 81.2388H180.435V85.9054H185.259V81.2388ZM191.032 81.3179C189.726 81.3201 188.424 81.1926 187.115 81.2355C186.845 81.2443 186.631 81.3684 186.337 81.2442L186.208 81.3575V85.9054H191.032V81.3179ZM196.725 81.2388L192.098 81.2355L191.901 81.3575V85.9054H196.725V81.2388ZM203.052 85.9054V81.3575L202.933 81.2388H197.674V85.9054H203.052ZM167.861 86.855H163.037V91.68L167.861 91.6008V86.855ZM173.792 86.855H168.81V91.6008H173.792V86.855ZM179.486 86.855H174.781L174.662 86.9737V91.6008H179.486V86.855ZM185.259 91.4821C185.096 90.294 185.259 88.3333 185.259 87.0529C185.259 87.0331 185.323 87.0056 185.32 86.9737L185.219 86.855H180.435V91.6008C182.068 91.7844 183.696 91.5151 185.338 91.6008C185.377 91.5723 185.262 91.5052 185.259 91.4832V91.4821ZM191.032 86.855H186.208V91.6008H191.032V86.855ZM196.725 86.855H192.02L191.901 86.9737V91.6008H196.725V86.855ZM203.052 86.855H197.674V91.6008L202.972 91.68L203.052 86.8539V86.855ZM167.861 92.6296L163.037 92.5504V97.2963H167.861V92.6296ZM173.792 92.6296H168.81V97.2963H173.792V92.6296ZM179.486 92.6296H174.662V97.1776C174.732 97.2908 174.82 97.2864 174.935 97.3007C175.759 97.3974 176.999 97.3029 177.862 97.3007C178.404 97.2996 178.945 97.2952 179.486 97.2974V92.6307V92.6296ZM180.435 92.6296V97.2963H185.141L185.305 97.2182C185.352 97.1622 185.259 97.1182 185.259 97.0984V92.7483C185.259 92.7318 185.377 92.6593 185.338 92.6307C183.696 92.7153 182.069 92.4416 180.435 92.6307V92.6296ZM191.032 92.6296H186.208V97.2963H191.032V92.6296ZM196.725 92.6296H191.901V97.1776L192.174 97.3007L196.725 97.2963V92.6296ZM197.675 92.6296V97.2963H202.974V92.5493L197.675 92.6285V92.6296ZM167.861 98.2459H163.037V103.862H167.861V98.2459ZM173.792 98.2459H168.81V103.862H173.792V98.2459ZM179.486 98.2459H174.662V103.862H179.486V98.2459ZM185.338 98.2459H180.435V103.862H185.259V98.4437C185.259 98.4195 185.367 98.3316 185.338 98.2459ZM191.032 98.2459H186.208V103.862H191.032V98.2459ZM196.725 98.2459H191.901V103.862H196.725V98.2459ZM202.972 98.2459H197.674V103.862H203.052L202.972 98.2459Z" fill="black"/>
<path d="M185.021 68.6209C185.119 68.2681 185.863 68.1604 185.965 68.7836C185.823 70.9993 186.17 73.4799 185.974 75.6649C185.916 76.3133 185.428 76.4584 185.032 75.9671L182.966 71.2708V75.8979C182.966 76.1166 182.141 76.4716 182.022 75.7352C182.16 73.5689 181.823 71.1477 182.013 69.0122C182.075 68.3099 182.627 68.1824 182.982 68.7627L185.022 73.4063V68.6209H185.021Z" fill="black"/>
<path d="M187.853 68.2097C191.092 68.0239 191.398 75.0492 188.714 76.112C188.382 76.2439 187.454 76.2824 187.155 76.1373C186.977 76.0505 186.933 75.6878 186.916 75.5064C186.776 73.982 186.76 70.5298 186.929 69.0274C187.007 68.3328 187.169 68.2492 187.853 68.2097ZM187.868 69.1351V75.1866C187.868 75.4185 188.413 75.2569 188.558 75.1646C189.522 74.5524 189.684 72.2642 189.509 71.2508C189.373 70.4595 188.872 69.012 187.868 69.1351Z" fill="black"/>
<path d="M196.092 76.0577C196 76.3797 195.286 76.5006 195.218 75.8247C194.992 73.5672 195.389 70.925 195.23 68.6257C195.474 67.9102 196.627 68.0432 197.16 68.4235C198.655 69.494 198.58 71.8515 197.533 73.1946L198.39 75.6642C198.442 76.0962 198.07 76.3182 197.708 76.1016C197.346 75.8851 196.984 74.1684 196.763 73.7199L196.092 73.7243V76.0577ZM196.092 72.7747C196.929 72.9044 197.323 71.8383 197.361 71.1569C197.407 70.3194 197.128 69.061 196.092 69.0566V72.7747Z" fill="black"/>
<path d="M194.412 76.1544C193.517 76.9633 193.463 74.0804 193.273 74.0365L191.976 74.0739C191.832 74.1772 191.746 75.8829 191.512 76.2006C191.416 76.3292 191.153 76.3632 191.01 76.3215C190.772 76.1973 190.679 75.9247 190.724 75.6741C191.296 73.6155 191.305 70.9635 191.941 68.9752C192.205 68.1465 193.174 68.1828 193.448 69.0544C194.063 71.0085 194.013 73.6606 194.574 75.6851C194.589 75.8038 194.487 76.0874 194.413 76.1544H194.412ZM193.168 73.1704C193.032 72.2747 192.937 71.3525 192.747 70.4667C192.727 70.3755 192.737 70.1523 192.615 70.1644L192.139 73.1704H193.168Z" fill="black"/>
<path d="M170.638 74.0502C170.544 74.1107 170.376 75.5351 170.289 75.7989C170.083 76.4309 169.364 76.2484 169.367 75.6725L170.601 68.9132C170.871 68.1394 171.88 68.3636 172.108 69.0385L173.211 75.6516C173.173 76.0044 172.826 76.31 172.495 76.089C172.15 75.8593 172.146 74.5404 172.016 74.1151L170.638 74.0513V74.0502ZM171.814 73.1699C171.664 72.2906 171.607 71.2355 171.395 70.3837C171.375 70.3035 171.373 70.1452 171.261 70.1639L170.785 73.1688H171.814V73.1699Z" fill="black"/>
<path d="M166.812 68.5216C168.019 68.2732 168.862 69.2426 168.969 70.3637C169.005 70.7506 169.028 71.6683 168.394 71.4979C167.711 71.3155 168.435 69.2305 167.037 69.458C166.603 69.5284 166.138 70.2934 166.062 70.6978C165.964 71.2254 165.974 73.3587 166.05 73.9159C166.131 74.5094 166.774 75.4942 167.47 75.2722C168.382 74.9798 167.608 72.9509 168.674 73.2675C169.324 73.4598 168.839 75.071 168.56 75.4931C167.736 76.7372 166.121 76.2701 165.501 75.0985C164.974 74.0995 165.003 71.0045 165.373 69.9318C165.542 69.4383 166.291 68.6304 166.811 68.5238L166.812 68.5216Z" fill="black"/>
<path d="M178.537 69.4521V72.4581H180.079C180.462 72.4581 180.462 73.3286 180.079 73.3286H178.537V75.3058H180.871C181.059 75.3058 181.397 76.062 180.708 76.1708C180.266 76.2411 178.472 76.24 178.03 76.1708C177.743 76.1257 177.601 75.9499 177.588 75.663L177.631 68.8201C177.757 68.6311 177.971 68.541 178.19 68.5091C178.564 68.4563 180.121 68.4432 180.46 68.519C181.065 68.6542 180.982 69.451 180.476 69.451H178.539L178.537 69.4521Z" fill="black"/>
<path d="M174.742 75.2265H176.6C176.762 75.2265 177.019 75.7574 176.799 75.9805C176.597 76.1849 175.165 76.0882 174.778 76.0937C174.351 76.0992 174.005 76.3443 173.827 75.7068L173.801 68.9464C173.917 68.1331 174.743 68.4221 174.743 68.7804V75.2276L174.742 75.2265Z" fill="black"/>
<path d="M166.99 195.066C162.599 196.579 157.702 196.189 153.216 195.278C149.712 194.567 146.333 193.392 143.029 192.06C143.066 192.316 142.939 192.782 143.107 192.97C143.273 193.156 145.434 193.971 145.835 194.117C150.963 195.987 160.412 197.934 165.646 196.37C166.355 196.158 167.225 195.991 166.99 195.066Z" fill="#717171"/>
<path d="M127.134 193.406L124.579 194.685C119.365 197.007 110.852 198.799 105.367 196.868C105.067 196.762 104.659 196.492 104.397 196.414C104.212 196.358 104.26 196.74 104.283 196.846C104.422 197.505 106.585 198.15 107.204 198.275C112.611 199.353 120.866 197.54 125.714 194.951C125.995 194.8 126.844 194.375 127.022 194.203C127.225 194.006 127.112 193.668 127.136 193.408L127.134 193.406Z" fill="#717171"/>
<path d="M146.668 53.8684C145.92 52.3 143.858 51.6329 142.24 51.4966C143.207 52.9232 144.899 53.9541 146.668 53.8684Z" fill="#DD554B"/>
<path d="M143.267 0C148.898 0.436333 154.558 2.43995 158.769 6.28782C162.2 9.42348 163.665 14.2067 163.762 18.7744C164.702 19.324 165.535 19.9944 165.91 21.0561L166.218 24.9007C169.224 26.7515 171.976 29.7553 172.726 33.3009C174.077 39.6931 168.218 43.7334 163.225 46.1052C162.887 46.2656 161.016 46.9855 160.942 47.1438C160.55 49.5563 160.603 52.2204 159.676 54.4999C157.887 58.8929 153.621 61.3603 149.068 62.0044C148.513 62.0824 147.579 62.0407 147.114 62.1857C146.947 62.2374 146.981 62.4242 146.985 62.5693C148.226 61.9286 149.686 62.477 150.938 62.8463C152.08 63.1837 153.482 63.5893 154.38 64.3861C154.628 64.6059 154.976 65.1159 155.179 65.2489C155.414 65.4027 155.904 65.5269 156.186 65.6654C156.737 65.9347 157.297 66.2029 157.818 66.5249V62.2935C157.818 62.2737 158.075 62.0165 158.095 62.0165H163.354C163.338 61.0372 163.458 60.0491 163.729 59.1083C164.066 57.9367 164.885 56.2562 166.323 56.3167C168.459 56.4068 169.079 60.3965 168.732 62.0165H171.499C171.384 60.4074 172.05 57.0421 173.77 56.4167C176.346 55.4803 177.307 60.3283 176.877 62.0165H179.645C179.501 60.3173 180.312 56.2727 182.532 56.3156C184.752 56.3584 185.278 60.3624 185.021 62.0165H187.947C187.824 60.4019 188.458 57.0937 190.163 56.4409C191.73 55.8419 192.672 57.4147 193.048 58.694C193.117 58.9303 193.325 59.6491 193.325 59.8403V62.0154H196.092C195.925 60.3052 196.728 56.2705 198.98 56.3145C200.016 56.3343 200.723 57.3982 201.055 58.2763C201.194 58.6445 201.469 59.6403 201.469 59.9975V62.0143H207.519C207.725 62.0143 208.869 62.499 209.133 62.6144C209.397 62.7298 210.255 63.0903 210.345 63.3002L210.42 70.8981C210.867 71.3114 211.465 71.5817 211.945 71.984C212.992 72.8622 213.745 73.8689 213.548 75.323C213.504 75.6428 213.165 76.233 213.172 76.3649C213.181 76.5243 213.379 76.7826 213.435 76.9815C213.653 77.7542 213.625 78.7829 213.434 79.5588C213.358 79.8655 212.967 80.5898 212.955 80.736C212.947 80.8305 213.202 81.4383 213.232 81.6944C213.363 82.8473 212.926 83.9024 212.304 84.841C212.739 85.9236 212.971 86.971 212.848 88.1492C212.678 89.7857 211.149 91.1871 210.41 92.5928L210.37 107.186C210.309 107.295 210.259 107.46 210.173 107.544C209.738 107.963 207.472 107.993 206.812 108.137L165.172 108.134C165.24 109.254 165.219 110.377 165.248 111.499C165.413 117.885 165.775 124.259 166.039 130.642C166.071 131.408 166.439 133.203 165.924 133.763C165.408 134.324 164.668 134.327 164.076 134.679C164.258 137.574 163.977 140.472 163.983 143.378C163.992 147.958 164.119 152.554 164.141 157.14C164.143 157.562 164.322 157.946 163.943 158.359C163.619 158.712 161.798 158.935 161.258 158.996C160.372 159.096 159.461 159.117 158.57 159.154L158.383 159.284C158.337 159.832 158.404 160.388 158.375 160.937C158.075 166.788 157.715 172.647 157.344 178.494L157.18 182.847C160.098 185.973 163.473 188.634 166.596 191.545C167.3 192.453 168.091 194.837 167.922 195.955C167.851 196.43 167.452 196.614 167.046 196.819C163.734 198.494 156.998 197.747 153.376 197.096C150.145 196.517 146.342 195.516 143.373 194.129C142.761 193.843 142.164 193.716 142.082 192.968C141.885 191.185 142.412 187.339 142.752 185.491C142.896 184.706 143.13 183.207 143.782 182.725C144.006 182.559 144.412 182.512 144.454 182.291L143.98 158.756C143.604 158.702 141.865 158.587 141.686 158.401C141.643 158.356 141.62 158.302 141.608 158.242C141.277 155.552 141.225 152.84 141.173 150.133L138.372 158.565C138.153 158.747 137.308 158.688 136.977 158.679C136.262 158.66 135.413 158.578 134.688 158.518C134.071 158.466 133.447 158.343 132.832 158.282L126.98 182.453C126.986 182.619 127.607 182.906 127.767 183.08C128.788 184.183 128.539 186.651 128.478 188.062C128.403 189.806 128.239 191.547 128.085 193.285C128.051 193.668 128.179 194.358 127.959 194.662C127.851 194.811 126.653 195.491 126.398 195.63C121.269 198.445 111.517 200.658 105.88 198.882C105.06 198.624 103.441 197.878 103.332 196.922C102.919 193.291 105.591 191.066 107.601 188.534C109.428 186.234 111.318 183.289 113.221 181.183C113.49 180.884 114.14 180.486 114.208 180.195C115.143 171.879 116.933 163.712 118.366 155.483C116.854 154.895 115.089 154.637 113.615 153.969C113.366 153.855 113.188 153.776 113.147 153.492C113.088 153.083 113.188 152.214 113.22 151.756C113.456 148.374 113.837 144.847 114.257 141.482C114.619 138.577 115.117 135.7 115.589 132.813C114.929 132.677 113.031 132.182 112.666 131.664C112.306 131.153 112.59 130.123 112.635 129.524L112.555 129.409C110.154 128.496 107.454 127.516 105.367 125.994C103.639 124.734 102.918 122.728 102.426 120.709C102.295 120.171 102.17 118.864 101.974 118.472C101.917 118.356 101.395 117.964 101.239 117.783C98.9767 115.155 99.6098 111.893 99.6021 108.662C99.3647 108.454 99.1624 107.9 98.9492 107.734C98.769 107.593 98.3766 107.545 98.1414 107.434C94.1034 105.532 94.6584 103.409 95.9597 99.606C97.2083 95.9582 99.2526 91.885 100.975 88.4064C101.706 86.9293 102.61 84.8135 103.691 83.6089C103.918 83.355 104.414 83.0154 104.56 82.8176C106.064 80.7909 107.063 75.6549 108.121 73.0117C110.431 67.2426 112.581 64.3037 117.862 61.002C118.126 60.8372 118.798 60.5635 118.97 60.4085C119.249 60.1579 119.972 58.6973 120.42 58.1807C122.375 55.921 125.144 55.9782 127.851 55.2912L126.331 53.2931L124.202 49.9255C121.722 50.252 119.427 49.5881 117.768 47.6988C117.579 47.4834 117.342 46.9954 117.174 46.869C116.957 46.7052 116.298 46.4843 115.987 46.3162C113.29 44.8478 110.925 43.2575 109.362 40.5251C106.312 35.1957 109.497 30.2938 113.841 27.0867C113.765 26.3196 113.574 25.3568 113.731 24.5973C113.892 23.8126 114.906 23.018 115.542 22.6069C116.061 18.5953 116.488 14.5034 118.961 11.1611C122.004 7.05057 126.358 4.50072 131.074 2.71032C134.349 1.46727 137.903 0.280264 141.42 0.0824307L141.612 0.00109847H143.273L143.267 0ZM162.799 18.4304C162.761 15.8893 162.135 13.1856 161.048 10.8875C158.409 5.30524 150.794 1.72115 144.886 1.10787C140.974 0.70231 138.149 1.3057 134.489 2.4916C128.839 4.32267 123.395 6.75492 119.747 11.6337C117.456 14.699 117.004 18.4458 116.538 22.1475C116.959 22.0728 117.348 21.9112 117.773 21.8408C118.034 21.798 118.385 21.8958 118.618 21.7573C118.744 21.6826 119.154 21.0693 119.306 20.9231C120.593 19.6911 122.526 18.8074 124.324 18.7447C124.572 18.736 125.142 18.847 125.259 18.8162C125.39 18.781 127.002 17.3544 127.362 17.1159C128.56 16.3202 129.845 15.919 131.283 15.8179C131.741 15.786 132.441 15.9047 132.848 15.8014C133.01 15.7608 133.348 15.4805 133.538 15.3838C136.804 13.7297 139.664 13.5648 142.99 15.2618C146.082 13.7264 149.262 14.1385 151.883 16.3411C154.946 15.6607 157.526 15.6344 160.104 17.6072C160.288 17.7479 160.649 18.2117 160.799 18.2568C161.257 18.393 162.251 18.2095 162.799 18.4315V18.4304ZM142.694 16.1564C142.64 16.0982 141.418 15.5915 141.231 15.5245C138.584 14.5683 136.096 14.8661 133.737 16.374C133.525 17.7831 133.975 19.1624 133.936 20.567L138.8 20.0933L142.951 20.0142C142.721 19.2998 143.09 16.5873 142.694 16.1575V16.1564ZM151.57 20.6462C151.55 19.9197 151.561 19.1129 151.491 18.3919C151.449 17.9611 151.387 17.0939 151.098 16.806C150.606 16.3169 148.877 15.531 148.186 15.3684C146.58 14.9903 145.266 15.4233 143.749 15.9069L143.82 20.012C146.41 20.1439 149.004 20.2681 151.569 20.6462H151.57ZM132.67 16.7697C130.95 16.6906 129.371 16.8807 127.9 17.8138C127.59 18.0106 126.239 19.0173 126.102 19.258C125.798 19.7889 126.321 21.3331 126.266 21.9914L133.066 20.6462L132.67 16.7697ZM160.19 22.5443C160.154 22.2024 160.278 21.8947 160.276 21.5551C160.271 20.9231 160.2 19.7262 160.106 19.1085C160.012 18.4821 158.76 17.7875 158.213 17.5226C157.251 17.0566 156.243 16.8093 155.172 16.7686L152.474 17.1599L152.523 20.8011C155.119 21.1847 157.688 21.7617 160.189 22.5443H160.19ZM165.33 24.4424C165.09 23.3444 165.353 21.8826 164.819 20.8803C164.195 19.7086 162.34 19.014 161.06 19.1426L161.148 22.8531L165.331 24.4424H165.33ZM125.158 19.6174H124.012C122.817 19.6174 120.342 20.9143 119.658 21.9068C119.289 22.442 119.508 23.507 119.545 24.1258L125.321 22.1871L125.159 19.6174H125.158ZM169.838 29.4256L169.045 28.3595C167.186 26.291 164.915 25.1732 162.345 24.2247C150.071 19.6922 133.7 19.9834 121.421 24.383C118.502 25.4293 115.583 26.7218 113.215 28.7518C111.792 29.9729 110.439 31.5435 109.738 33.3009C112.32 29.5333 116.526 27.2461 120.71 25.648C131.455 21.5441 145.86 20.9242 157.029 23.5312C161.63 24.605 166.223 26.3262 169.839 29.4256H169.838ZM118.514 22.6234C117.414 22.7245 116.24 23.0784 115.389 23.8082C114.41 24.6479 114.548 25.204 114.678 26.4218L118.581 24.5094L118.515 22.6234H118.514ZM161.062 46.037C164.892 44.4434 170.535 41.5121 171.696 37.1774C173.353 30.9983 165.49 27.1296 160.787 25.5469C148.803 21.5144 131.455 22.1266 119.782 27.0153C116.544 28.3716 112.573 30.6027 110.652 33.624C107.191 39.0678 112.133 43.4058 116.695 45.6413C116.181 43.4498 117.198 41.3198 118.983 40.0525C118.663 38.7589 117.556 37.1268 117.647 35.7947C117.979 30.9203 124.664 27.6066 128.717 26.3811C136.681 23.9731 151.314 23.5191 158.69 27.7242C163.623 30.5367 161.411 34.555 161.613 39.2744L161.062 46.0381V46.037ZM135.28 58.7731C135.49 58.5731 139.088 59.9678 139.648 60.1382C147.681 62.5913 157.81 61.1702 159.537 51.5126C160.071 48.522 160.278 44.9423 160.506 41.8825C160.715 39.0908 161.123 35.4408 160.981 32.7085C160.849 30.1762 159.768 29.2398 157.596 28.1836C151.305 25.126 141.602 25.1491 134.778 26.0349C133.523 26.1976 131.149 26.5284 130.025 26.9757C129.625 27.1351 129.341 28.055 129.231 28.476C128.582 30.9544 129.108 34.9561 129.189 37.6159C129.244 39.4195 129.774 42.9266 128.202 44.1367C126.445 45.4897 125.949 43.0178 125.332 41.8704C122.703 36.985 115.114 42.1452 118.214 46.7756C120.187 49.7222 123.971 49.4474 126.744 47.8999C127.221 47.634 127.869 47.057 128.344 46.8899C128.443 46.8547 128.519 46.7745 128.601 46.9053C128.858 47.313 127.978 47.8428 127.762 48.1329L127.723 48.2582C129.054 51.7566 130.709 55.1121 132.259 58.5148C132.614 60.4492 131.851 62.976 132.336 64.6872C133.403 68.4604 137.94 71.973 141.817 72.2896C146.624 72.6819 148.696 69.1781 146.472 65.0225L145.57 67.902L145.326 67.9493C145.141 65.9644 145.773 64.0959 146.116 62.1747C142.977 62.0264 139.238 61.3867 136.466 59.8425C136.309 59.7557 135.047 58.9973 135.283 58.7731H135.28ZM128.716 27.3703C125.67 28.3232 122.355 29.8388 120.256 32.3161C119.418 33.3053 118.283 35.3397 118.616 36.6421C118.713 37.018 119.648 39.3854 119.857 39.5184C120.18 39.4689 120.515 39.281 120.869 39.1788C122.457 38.7183 123.838 38.9447 125.115 40.0284C126.126 40.8867 126.281 42.3958 126.988 43.375C127.298 43.8037 127.79 43.397 127.991 43.0596C128.484 42.2364 128.353 39.0963 128.322 38.005C128.241 35.0616 127.711 32.0447 128.199 29.1079C128.298 28.51 128.468 27.922 128.715 27.3703H128.716ZM127.055 48.7276L125 49.7156C126.123 51.118 126.894 52.7941 128.086 54.1438C128.273 54.3548 129.499 55.61 129.744 55.3715L127.055 48.7276ZM130.535 57.0322C130.448 56.875 130.407 56.6717 130.243 56.5739C130.16 56.5233 128.775 56.0353 128.693 56.0331C128.167 56.0199 127.218 56.32 126.659 56.4398C123.929 57.0256 122.053 57.1981 120.427 59.6985C120.287 59.9151 119.528 61.2757 119.554 61.4131C119.591 61.612 120.019 61.6802 120.19 61.7263C120.912 61.9198 121.681 61.9538 122.416 62.089C123.02 61.1504 123.426 60.0294 124.143 59.1435C125.418 57.5696 128.666 57.43 130.536 57.0333L130.535 57.0322ZM167.862 62.0165V60.2371C167.862 59.6436 167.468 58.3829 167.135 57.8785C165.888 55.9859 164.743 58.6654 164.497 59.7996C164.109 61.5845 164.152 64.3817 165.797 65.5412C166.768 65.1587 165.678 64.4872 165.451 63.9146C165.028 62.8474 164.912 59.7711 165.582 58.8281C165.802 58.5192 166.108 58.3621 166.468 58.5478C167.293 58.9764 167.375 61.1823 167.388 62.0187H167.863L167.862 62.0165ZM175.917 62.0055C176.252 61.0086 175.789 57.4718 174.54 57.2751C174.045 57.197 173.768 57.4212 173.477 57.785C172.25 59.3183 172.067 63.3156 173.239 64.9038C173.391 65.1082 173.928 65.7215 174.186 65.4566C174.627 65.0005 174.134 64.762 173.919 64.4619C173.17 63.42 173.133 61.1779 173.34 59.9425C173.431 59.4062 173.7 58.3346 174.447 58.4698C175.407 58.6434 175.501 61.2592 175.533 62.0176L175.918 62.0055H175.917ZM183.598 60.6317C183.638 61.0757 183.57 61.567 183.598 62.0165L184.064 62.0077C184.235 61.1394 184.152 60.1129 183.954 59.2479C183.699 58.1334 182.805 56.3321 181.623 57.7861C180.384 59.3117 180.218 63.1342 181.289 64.7609C181.433 64.9785 182.021 65.683 182.278 65.5039C182.75 64.8345 182.281 64.8103 181.981 64.3839C181.256 63.3508 181.267 60.6789 181.58 59.4842C181.732 58.905 182.103 58.1818 182.8 58.5819C183.281 58.8577 183.551 60.1041 183.597 60.6317H183.598ZM191.902 60.6317C191.942 61.0746 191.872 61.567 191.902 62.0165L192.372 62.0121C192.569 60.8075 192.384 58.6039 191.547 57.6652C190.498 56.4892 189.594 58.0983 189.269 59.0281C188.736 60.5569 188.698 63.0639 189.436 64.5224C189.567 64.7796 190.362 65.8567 190.642 65.4434C191.022 64.884 190.593 64.7796 190.322 64.4279C189.544 63.4134 189.53 60.536 189.901 59.3435C190.237 58.2697 191.129 58.1466 191.569 59.2259C191.696 59.5392 191.871 60.2997 191.902 60.6328V60.6317ZM200.047 60.7108C200.087 61.1273 200.018 61.5933 200.047 62.0165H200.521C200.655 61.1581 200.592 60.2393 200.418 59.3897C200.171 58.1774 199.255 56.254 197.991 57.8631C196.994 59.1336 196.85 61.6868 197.144 63.2189C197.318 64.119 197.718 65.1357 198.585 65.5555C199.378 64.9378 198.449 64.5861 198.188 63.9937C197.719 62.9232 197.592 59.8194 198.273 58.8577C198.56 58.4533 198.923 58.3203 199.333 58.6577C199.715 58.972 200.001 60.225 200.048 60.7108H200.047ZM131.325 58.694L131.01 58.0202C130.581 57.7598 127.036 58.605 126.36 58.8303L125.789 59.0885C126.88 58.9567 127.972 58.7643 129.071 58.6951C129.517 58.6665 129.971 58.7116 130.417 58.6973C130.732 58.6874 130.984 58.5335 131.323 58.694H131.325ZM131.323 63.0419C131.375 61.8846 131.547 60.713 131.449 59.559L131.286 59.4842C129.566 59.548 127.786 59.6183 126.104 59.9953C125.72 60.0821 124.585 60.3701 124.326 60.5899C123.85 60.9932 123.399 62.721 122.966 62.9474C122.884 62.9903 122.751 63.0287 122.657 63.0386C122.218 63.0848 120.225 62.7166 119.738 62.5715C119.251 62.4264 118.713 62.166 118.593 61.6197C116.131 63.0353 113.77 64.8433 112.124 67.2107C110.106 70.1145 108.76 73.7744 107.681 77.1233C108.236 76.3847 108.678 75.567 109.198 74.8042C112.045 70.6288 115.634 67.3283 120.603 65.8995C120.778 64.9268 120.912 64.0893 121.863 63.5827C123.21 62.8639 127.736 62.3517 129.212 62.6671C129.588 62.7474 130.144 62.9562 130.351 63.287L131.324 63.0408L131.323 63.0419ZM166.043 60.3942C165.999 60.9152 166.074 61.4889 166.043 62.0154H166.438C166.516 61.9396 166.346 60.092 166.241 59.8788C166.224 59.8414 166.138 59.7788 166.123 59.8007C166.199 60.0118 166.056 60.2481 166.043 60.3942ZM174.188 60.3151V62.0154H174.583C174.619 61.2691 174.526 60.5239 174.345 59.8007L174.188 60.314V60.3151ZM182.333 60.236C182.278 60.802 182.374 61.4417 182.333 62.0154H182.729C182.742 61.2735 182.667 60.5228 182.49 59.8007C182.416 59.7963 182.336 60.1975 182.333 60.2349V60.236ZM190.637 60.1568C190.573 60.7405 190.684 61.4208 190.637 62.0154H191.032C191.052 61.2713 190.935 60.5283 190.794 59.8007C190.714 59.7777 190.64 60.1228 190.637 60.1557V60.1568ZM198.782 60.0777C198.713 60.6811 198.834 61.3988 198.782 62.0154H199.178C199.137 61.2757 199.074 60.5305 198.939 59.8007C198.856 59.7711 198.785 60.0447 198.782 60.0777ZM163.393 62.965H158.806L158.688 107.183H207.244V86.8139C207.244 86.7457 206.625 86.0632 206.516 85.8796C205.969 84.9531 205.928 83.687 206.677 82.8572C205.184 81.7405 204.649 79.5116 206.533 78.507C206.291 78.1213 205.922 77.8498 205.698 77.4431C204.844 75.8791 205.627 74.4602 207.247 73.9865L207.244 62.965H198.861C198.87 63.6365 199.306 63.5068 199.757 63.7695C202.08 65.128 199.651 68.7395 197.48 66.9173C196.69 66.2556 196.951 65.805 196.788 64.9994C196.737 64.7455 196.468 64.2399 196.372 63.9135C196.279 63.6047 196.222 63.2826 196.174 62.965H190.717C190.728 63.5981 191.107 63.4958 191.56 63.7431C193.992 65.0675 191.521 68.7549 189.334 66.9184C188.545 66.2556 188.806 65.8072 188.643 65.0005C188.595 64.7609 188.335 64.2861 188.243 63.9772C188.144 63.6486 188.124 63.2947 188.027 62.9661H182.412C182.505 63.6464 182.753 63.4695 183.255 63.7442C185.415 64.9257 183.721 68.3472 181.358 67.1448C180.923 66.9239 180.454 66.3183 180.375 65.8347C180.253 65.0939 180.222 64.9279 180.017 64.2146C179.899 63.8036 179.817 63.3815 179.724 62.9661H174.267C174.35 63.6838 174.675 63.4673 175.178 63.7552C176.329 64.4114 176.402 66.1468 175.376 66.9623C174.178 67.9141 172.432 67.1712 172.217 65.6885C172.097 64.8576 172.031 64.6817 171.794 63.8959C171.715 63.6332 171.652 63.376 171.642 63.0991L171.538 62.9661H166.2C166.121 63.6651 166.479 63.464 166.936 63.6926C168.206 64.3267 168.352 66.0952 167.23 66.9623C165.924 67.9724 164.246 67.0964 164.07 65.5236C163.996 64.8598 163.977 64.9323 163.791 64.307C163.726 64.0893 163.474 62.9925 163.392 62.965H163.393ZM157.818 83.9277V73.6051C157.818 73.0996 157.085 71.0388 156.871 70.4398C156.19 68.5351 155.113 66.0875 153.47 64.8235C152.85 64.3465 148.986 63.0925 148.209 63.12C148.053 63.1255 147.329 63.2925 147.3 63.4024C147.257 63.5618 147.374 63.5145 147.459 63.5552C147.901 63.7662 148.294 63.7552 148.646 64.1113C150.089 65.5709 151.702 69.5605 152.613 71.5345C153.616 73.7096 154.541 75.922 155.539 78.1004L157.818 83.9288V83.9277ZM208.113 63.2815V70.9542C208.519 70.7091 208.983 70.5948 209.458 70.6376L209.419 63.7552L209.142 63.5981C209.115 65.0049 209.2 66.4271 209.062 67.8295C209.012 68.3362 208.795 70.1442 208.52 68.6098C208.224 66.959 208.407 65.1543 208.349 63.4804L208.113 63.2826V63.2815ZM126.502 96.3461C125.798 98.4915 124.757 100.592 123.668 102.569C123.408 103.04 122.366 104.533 122.383 104.927C122.4 105.339 122.923 105.809 123.217 106.077C123.774 106.587 125.801 108.032 126.482 108.118C126.587 108.132 126.633 108.14 126.735 108.093C127.056 107.946 128.802 105.264 129.111 104.772C136.21 93.4501 138.89 77.3156 131.025 65.6764C130.671 65.1532 129.728 63.7475 129.188 63.5585C128.135 63.1903 125.056 63.6805 123.874 63.9366C122.823 64.1641 121.66 64.3026 121.596 65.6149C121.587 65.7918 121.603 65.7094 121.716 65.7314C124.015 66.1875 125.152 68.5604 125.983 70.5607C127.529 74.2833 128.167 78.5136 128.635 82.5022C129.689 82.5165 130.815 82.5571 131.469 83.5045C132.138 84.475 131.806 85.5103 130.849 86.1028V86.2192C132.143 86.9864 132.406 88.9933 131.178 89.9891C132.197 91.8399 131.116 93.571 129.03 93.4984C130.12 95.2888 128.336 97.066 126.5 96.345L126.502 96.3461ZM157.818 92.9445V86.9721C157.818 86.7699 157.44 85.6752 157.347 85.3873C155.485 79.6797 152.545 73.2545 149.899 67.8405C149.612 67.2536 148.509 65.0686 148.086 64.7499C148.03 64.7081 147.258 64.3586 147.222 64.3883C148.716 67.1173 148.874 70.6805 145.902 72.4401C143.081 74.1107 139.125 72.9556 136.553 71.3015L134.095 69.3308C137.315 76.5913 137.324 84.9201 135.44 92.5466C135.874 92.5334 136.314 92.5642 136.748 92.5499C142.816 92.3554 148.886 92.6455 154.93 92.8665C155.891 92.9016 156.859 92.861 157.819 92.9423L157.818 92.9445ZM127.292 79.339C126.88 76.8705 126.389 74.3844 125.555 72.0214C125.075 70.6629 123.56 67.0074 122.017 66.7008C120.915 66.482 119.65 67.1052 118.645 67.5646C117.25 68.2021 115.879 69.0528 114.681 70.0079C110.742 73.1479 108.421 77.7882 105.942 82.0691C105.97 82.1626 106.112 82.0933 106.18 82.0691C107.711 81.5262 109.847 80.27 111.396 80.004C111.505 79.9853 111.969 79.9743 111.872 80.1688C110.477 80.9855 109.009 81.7075 107.552 82.4131C105.628 83.343 104.741 83.2759 103.555 85.2982C101.924 88.0789 100.302 91.8091 98.9679 94.7898C98.0249 96.8957 97.0258 99.096 96.4521 101.329C98.7492 99.3807 101.757 98.275 104.659 97.5551C105.817 97.2683 107.012 97.1287 108.155 96.8594C110.427 96.3263 112.927 95.546 115.175 94.8635C116.529 94.4524 117.874 94.0106 119.218 93.5688C119.212 92.4191 119.628 91.4047 119.901 90.3364C120.236 89.0241 120.268 88.0855 121.17 86.9391C121.407 86.6391 121.769 86.3973 121.982 86.0885C122.359 85.5367 122.568 84.7289 122.988 84.1684C124.082 82.711 125.917 82.545 127.609 82.423C127.165 81.047 126.627 79.6841 125.989 78.3872C125.827 78.0586 125.079 76.9782 125.162 76.6979C125.181 76.6342 125.273 76.5496 125.352 76.5705L125.707 76.9287L127.291 79.339H127.292ZM157.818 70.2431V67.5932C157.505 67.3393 157.117 67.1008 156.764 66.9074C156.636 66.837 156.378 66.6502 156.235 66.7238L157.818 70.2431ZM208.881 71.6048C208.556 71.6796 208.123 72.2445 208.109 72.5775C208.09 73.0204 208.525 73.7623 208.829 74.0767C209.202 74.4657 209.985 74.5976 210.515 74.8416C211.162 75.1395 211.753 75.578 212.385 75.9033C212.885 75.3549 212.753 74.402 212.428 73.7975C211.979 72.9611 209.867 71.3762 208.881 71.6037V71.6048ZM207.521 74.9493C206.123 74.946 205.986 76.5924 206.849 77.4794C207.487 78.1355 207.976 78.03 208.746 78.2718C210.001 78.6664 211.164 79.3027 212.186 80.1293C212.694 79.3951 212.931 77.5893 212.35 76.8826C211.999 76.4573 209.753 75.5351 209.142 75.3461C208.81 75.2428 207.81 74.9504 207.521 74.9504V74.9493ZM212.123 81.025C211.895 80.7722 210.306 79.9787 209.907 79.8006C208.958 79.3775 207.481 78.6796 206.619 79.5468C205.838 80.3326 206.358 81.3866 207.092 81.9834C207.691 82.4703 207.785 82.3175 208.434 82.4604C209.583 82.7132 210.649 83.5232 211.48 84.3211C211.647 84.3585 212.072 83.4924 212.136 83.3243C212.353 82.7495 212.568 81.5196 212.121 81.025H212.123ZM210.407 90.809C211.428 89.6484 212.13 88.5141 211.992 86.8908C211.929 86.1632 211.699 85.8005 211.239 85.2707C210.423 84.3321 206.871 81.7064 207.004 84.5234C207.08 86.128 209.013 86.7237 210.013 87.6041C210.308 87.8635 210.408 87.9217 210.408 88.3174V90.809H210.407ZM123.339 85.5092C124.573 85.1762 125.978 85.1059 127.256 85.1894C128.336 85.2598 129.705 85.9763 130.609 85.1487C131.265 84.5476 130.697 83.6826 129.987 83.4869C128.896 83.1869 126.493 83.3353 125.395 83.6507C124.374 83.9442 123.691 84.4772 123.339 85.5092ZM121.124 89.0692C121.481 88.9373 121.797 88.6966 122.153 88.557C124.705 87.5568 127.934 88.3152 130.325 89.4516C131.246 88.8999 131.279 87.9997 130.615 87.2084C129.449 85.8181 125.005 85.7653 123.382 86.305C122.268 86.6743 121.318 87.9404 121.124 89.0681V89.0692ZM208.113 87.4865V107.104L208.352 107.058L208.588 92.4697C208.924 92.418 208.954 92.5126 208.984 92.8258C209.15 94.5997 209.012 96.4956 209.059 98.2882C209.439 100.94 208.836 104.061 209.139 106.673C209.152 106.792 209.147 106.873 209.262 106.946L209.458 106.827V88.3965L208.985 88.0404L208.904 90.0572C208.899 90.1616 208.821 90.2781 208.709 90.2551C208.452 90.2012 208.456 88.2525 208.41 87.9437C208.383 87.77 208.351 87.4568 208.115 87.4876L208.113 87.4865ZM120.413 91.7575C121.376 91.2893 122.285 91.0035 123.378 91.0475C125.134 91.1178 126.22 91.7322 127.769 92.2708C128.886 92.6587 130.793 92.8796 130.615 91.164C130.512 90.1693 129.858 89.9484 129.053 89.6418C126.32 88.5987 121.156 87.914 120.413 91.7564V91.7575ZM119.543 101.646H121.401C121.756 101.646 123.066 101.026 123.376 100.774C123.962 100.297 124.924 98.1365 125.25 97.3485C125.358 97.0891 125.781 96.0879 125.776 95.8933C125.771 95.7362 125.282 95.4911 125.132 95.4966C124.814 95.5064 123.872 96.0582 123.614 96.0263C123.478 96.0098 123.483 95.7735 123.586 95.6845L124.287 95.0426L123.105 94.4447C123.164 93.6919 124.49 94.1887 124.962 94.3678C125.547 94.5887 126.991 95.6142 127.338 95.6295C128.655 95.6867 128.738 94.2392 127.968 93.4171C127.119 92.5082 123.892 92.0015 122.663 92.0718C120.5 92.196 120.193 92.8071 119.939 94.8052C119.756 96.2483 119.881 97.7255 119.384 99.1158L119.034 98.9531C118.612 97.5606 118.905 96.0516 119.056 94.6327L118.956 94.5338C114.322 96.3395 109.384 97.2177 104.736 98.9784C103.524 99.4378 102.137 99.9731 101.045 100.665C100.617 100.937 99.8186 101.689 99.4163 101.805C99.0624 101.909 99.7351 101.136 99.7757 101.058L101.197 99.6719C100.808 99.7533 98.7624 100.666 98.68 100.911C98.3173 103.841 99.0097 107.825 101.806 109.386C103.846 110.524 105.685 109.901 107.656 109.02L120.73 102.283C120.565 102.339 119.316 101.85 119.544 101.649L119.543 101.646ZM164.303 108.133H158.412C158.3 108.133 157.818 107.771 157.818 107.697V93.8545C157.749 93.7413 157.661 93.7457 157.546 93.7314C156.663 93.6281 155.465 93.7589 154.533 93.7391C148.541 93.6105 142.264 93.1324 136.265 93.416C135.901 93.4336 135.518 93.5556 135.13 93.5061C133.738 98.3662 131.485 103.179 128.543 107.286C127.946 108.119 127.497 109.04 126.381 109.158L124.762 110.584L143.151 110.502C148.524 110.652 153.901 110.869 159.283 110.977C159.47 110.98 159.644 111.059 159.831 111.063L164.382 110.98L164.303 108.133ZM97.7161 101.568C97.6138 101.462 96.7895 102.284 96.6906 102.4C95.0662 104.306 96.4356 105.752 98.348 106.471C97.8106 104.916 97.4907 103.207 97.715 101.568H97.7161ZM122.785 102.28L117.191 105.148L116.459 109.953C116.619 109.957 116.781 109.968 116.938 109.918C117.228 109.825 119.17 108.114 119.544 107.779C120.264 107.132 120.953 106.446 121.638 105.763C121.01 104.383 122.222 103.423 122.785 102.281V102.28ZM116.221 105.682C113.468 107.018 110.814 108.596 108.025 109.863C105.358 111.074 102.881 111.533 100.407 109.557C100.491 111.971 100.066 114.991 101.749 116.955C102.811 118.197 105.2 119.367 106.735 119.956C107.021 120.066 107.548 120.366 107.808 120.164C107.958 119.954 108.023 119.651 108.069 119.397C108.398 117.566 108.1 115.432 108.324 113.64C108.349 113.447 108.382 113.171 108.577 113.1C108.674 113.053 108.666 113.002 108.749 113.117C108.84 113.244 108.932 113.84 108.946 114.027C109.078 115.671 109.259 118.276 108.911 119.842C108.656 120.992 108.15 121.381 106.988 121.048C105.683 120.674 104.23 119.744 103.017 119.127C103.296 120.793 103.803 122.733 104.771 124.135C105.867 125.721 109.846 127.463 111.696 128.125C111.958 128.218 112.468 128.431 112.71 128.459C112.879 128.478 112.854 128.26 112.876 128.16C113.654 124.696 113.853 120.996 114.564 117.504C114.601 117.271 114.214 117.466 114.052 117.469C113.635 117.477 113.337 117.457 113.123 117.046C112.742 116.312 112.887 114.124 113.16 113.335C113.441 112.527 114.72 111.743 115.34 111.164L116.222 105.679L116.221 105.682ZM125.473 108.688C124.256 108.125 123.2 107.263 122.191 106.396C120.832 107.78 119.417 109.113 117.919 110.346C117.003 111.1 114.749 112.542 114.164 113.393C113.735 114.017 113.801 115.687 113.882 116.444C114.084 116.735 115.534 116.002 115.827 115.848C118.461 114.461 121.732 111.848 124.085 109.951C124.525 109.596 125.012 109.238 125.422 108.853C125.489 108.79 125.494 108.799 125.472 108.689L125.473 108.688ZM164.382 111.85L158.17 111.932C146.69 111.28 135.162 111.491 123.652 111.491C120.959 113.399 118.421 115.555 115.468 117.069L113.383 130.936C113.489 131.313 115.243 131.807 115.65 131.919C121.821 133.62 130.354 134.063 136.818 134.397C144.402 134.789 152.916 135.05 160.466 134.235C162.08 134.061 163.745 133.844 165.238 133.194C165.25 132.792 165.27 132.379 165.256 131.977C165.123 128.213 164.794 124.433 164.616 120.672L164.382 111.849V111.85ZM163.274 134.79C162.079 134.951 160.878 135.151 159.676 135.263C153.16 135.871 146.362 135.665 139.831 135.419C133.268 135.173 126.652 134.754 120.149 133.749C118.913 133.558 117.676 133.333 116.46 133.05C115.915 136.24 115.422 139.453 115.045 142.671C114.742 145.262 114.463 147.895 114.245 150.493C114.215 150.85 114.023 153.097 114.097 153.211C117.873 154.499 121.849 155.456 125.776 156.203C128.328 156.689 131.094 157.188 133.669 157.483C135.018 157.638 136.382 157.664 137.73 157.81C139.296 152.535 141.123 147.347 142.911 142.147C143.042 141.824 143.487 141.441 143.538 141.975C143.702 143.708 142.331 146.012 142.003 147.725L142.157 153.264L142.48 157.647L146.709 158.124C151.348 158.304 156.152 158.598 160.783 158.124C161.27 158.075 162.788 157.915 163.142 157.715C163.382 157.58 163.198 157.373 163.192 157.138C163.077 152.792 163.133 148.432 163.12 144.08C163.112 141.661 163.204 139.452 163.278 137.046C163.301 136.295 163.255 135.538 163.275 134.789L163.274 134.79ZM131.959 158.125C127.636 157.594 123.364 156.729 119.148 155.673C118.512 160.661 117.368 165.558 116.551 170.518C116.212 172.574 115.62 175.299 115.509 177.311C115.501 177.44 115.472 177.606 115.588 177.704C115.71 177.807 117.041 178.06 117.315 178.113C119.898 178.607 123.039 178.929 125.669 179.011C125.904 179.019 126.75 179.058 126.859 178.93L131.959 158.125ZM157.581 159.232L150.42 159.235L144.885 158.911L145.396 179.131C149.024 179.62 152.738 179.956 156.383 179.471L157.58 159.232H157.581ZM126.659 179.879C122.878 179.85 119.045 179.525 115.391 178.533L115.113 180.036C118.397 179.563 122.256 181.452 124.004 184.236C124.362 184.806 124.563 185.486 125.038 185.968L125.234 185.69L126.659 179.879ZM156.316 182.33V180.709C156.316 180.668 156.441 180.543 156.395 180.432C152.705 180.831 148.985 180.473 145.324 180.035C145.546 181.803 145.077 183.588 145.943 185.231C146.178 185.677 146.481 186.111 146.948 185.655C147.445 185.169 147.875 184.329 148.369 183.834C150.272 181.924 153.847 181.408 156.317 182.33H156.316ZM112.86 183.359C113.378 183.333 113.921 183.359 114.442 183.359C115.537 183.359 117.312 184.501 118.002 185.335C118.255 185.641 119.103 186.772 118.379 186.983C117.863 187.133 117.543 186.21 117.248 185.852C116.111 184.477 114.103 184.006 112.411 184.41C111.478 184.632 111.384 185.187 110.845 185.888C112.916 185.417 115.096 186.121 116.461 187.745C116.702 188.032 117.088 188.395 116.846 188.767C116.418 189.424 115.75 188.284 115.473 188.022C113.824 186.47 111.386 186.198 109.538 187.549C108.325 189.54 104.522 192.705 104.363 195.037C104.339 195.4 104.719 195.561 105.018 195.711C107.978 197.208 113.116 196.802 116.316 196.227C120.125 195.542 123.898 194.236 127.215 192.258C127.429 192.017 127.349 190.377 127.374 189.964C127.453 188.566 127.958 184.979 127.281 183.885C127.175 183.714 126.993 183.586 126.858 183.438C126.689 183.403 126.754 183.508 126.72 183.612C126.493 184.31 126.284 185.812 125.967 186.342C125.778 186.657 125.348 186.874 124.982 186.823C124.03 186.691 123.419 184.951 122.898 184.235C121.17 181.862 116.011 179.387 113.652 182.013C113.496 182.186 112.725 183.172 112.665 183.32C112.57 183.555 112.848 183.359 112.861 183.359H112.86ZM157.66 184.624C155.723 181.853 150.81 182.512 148.763 184.781C148.325 185.266 147.553 186.612 146.927 186.741C145.288 187.079 144.727 184.585 144.532 183.404C144.162 183.225 144.019 183.873 143.939 184.148C143.299 186.325 143.362 188.787 143.032 191.026C146.077 192.316 149.204 193.432 152.44 194.156C156.24 195.007 160.543 195.515 164.397 194.802C165.198 194.654 165.968 194.408 166.749 194.189C166.694 192.829 165.786 192.006 164.859 191.149C164.11 190.458 161.579 188.138 160.808 187.845C159.667 187.412 157.984 187.819 156.921 188.353C156.567 188.531 155.599 189.316 155.346 189.279C155.156 189.25 154.986 189.042 154.974 188.85C154.945 188.392 156.019 187.787 156.395 187.589C157.418 187.047 158.633 186.695 159.796 186.759C160.022 186.567 158.618 185.792 158.482 185.742C157.236 185.28 155.878 185.614 154.708 186.138C154.296 186.323 153.451 186.984 153.075 186.799C152.766 186.648 152.815 186.274 153.036 186.047C153.524 185.546 155.83 184.624 156.516 184.624H157.662H157.66ZM166.991 195.066C162.599 196.58 157.703 196.19 153.216 195.278C149.712 194.567 146.334 193.392 143.03 192.06C143.066 192.316 142.94 192.782 143.108 192.97C143.274 193.157 145.435 193.972 145.836 194.118C150.963 195.987 160.413 197.935 165.647 196.371C166.356 196.159 167.225 195.992 166.991 195.066ZM127.134 193.406L124.579 194.685C119.365 197.007 110.852 198.799 105.367 196.868C105.067 196.762 104.659 196.492 104.397 196.414C104.212 196.358 104.26 196.74 104.283 196.846C104.422 197.505 106.585 198.15 107.204 198.274C112.611 199.353 120.866 197.54 125.714 194.951C125.995 194.8 126.844 194.375 127.022 194.202C127.225 194.006 127.112 193.668 127.136 193.408L127.134 193.406Z" fill="black"/>
</g>
<defs>
<clipPath id="clip0_2107_44882">
<rect width="308" height="200" fill="white"/>
</clipPath>
</defs>
</svg>
