<svg width="300" height="200" viewBox="0 0 300 200" fill="none" xmlns="http://www.w3.org/2000/svg">
<path d="M150.414 174.377C150.414 173.732 150.149 173.462 149.499 173.438C145.692 173.417 141.877 173.505 138.073 173.409C138.139 170.183 134.386 170.215 134.614 173.447C133.433 173.447 132.316 173.447 131.143 173.447C130.464 173.449 130.269 173.625 130.196 174.304C130.17 182.514 130.198 190.727 130.175 198.938C130.089 199.633 130.503 200.098 131.208 199.982C133.004 199.984 134.8 199.982 136.596 199.982C141.129 199.958 145.667 200.033 150.198 199.952C150.817 191.674 150.206 182.837 150.414 174.377ZM137.108 173.424C136.99 173.432 136.868 173.441 136.731 173.451C136.8 172.881 136.234 172.446 135.925 173.057C135.867 173.291 135.869 173.404 135.574 173.477C135.289 171.58 137.192 171.336 137.108 173.424Z" fill="black"/>
<path d="M157.589 76.818C157.576 68.609 157.615 60.3982 157.576 52.1912C157.52 51.58 157.356 51.4244 156.73 51.3851C152.417 51.0945 148.064 51.0308 143.767 50.6071C143.252 48.6106 140.985 48.3294 140.352 50.3915C139.309 50.7927 137.686 50.6952 137.581 52.0937C137.555 60.3589 137.583 68.6315 137.568 76.9005C137.515 77.984 138.785 77.789 139.533 77.8678C144.765 78.1602 150.008 78.3421 155.236 78.6795C156.541 78.7057 157.816 78.3852 157.589 76.818ZM141.417 50.5227C141.523 49.6511 142.588 49.7073 142.686 50.5509C142.226 50.6671 141.835 50.5677 141.417 50.5227Z" fill="black"/>
<path d="M156.557 8.61095C156.174 7.61928 153.962 8.21166 153.031 7.96421C149.645 7.72051 146.261 7.61178 142.874 7.3962C142.135 5.33599 140.216 4.98732 139.361 7.13375C138.375 7.54429 136.806 7.3962 136.641 8.69156C136.532 16.8668 136.637 25.0588 136.6 33.2397C136.6 34.3438 136.708 34.49 137.803 34.5575C139.597 34.6681 141.395 34.7468 143.191 34.8387C146.901 35.0524 150.618 35.1668 154.322 35.4311C155.646 35.4386 156.877 35.0618 156.65 33.5096C156.566 25.2144 156.815 16.8949 156.557 8.61095ZM140.504 7.25373C140.709 6.35579 141.565 6.46826 141.704 7.29872C141.237 7.36058 140.874 7.33996 140.504 7.25373Z" fill="black"/>
<path d="M132.531 57.7644C132.525 49.6736 132.531 41.5808 132.529 33.49C132.497 32.9501 132.704 32.2115 132.032 32.0109C128.264 30.6968 124.101 32.4758 120.202 32.3277C119.281 30.1232 117.257 30.6275 116.666 32.7289C115.676 33.012 112.688 32.5864 112.431 33.625C112.373 41.8602 112.439 50.1066 112.416 58.3455C112.055 61.5249 117.234 59.8452 119.101 59.879C122.558 59.5228 126.015 59.1647 129.472 58.8067C130.312 58.5274 132.64 59.041 132.531 57.7644ZM117.813 32.6033C118.035 31.5854 118.876 31.6341 119.099 32.5283C118.591 32.5583 118.213 32.5808 117.813 32.6033Z" fill="black"/>
<path d="M195.31 96.9886C193.989 99.9317 190.615 100.652 188.059 102.131C179.185 110.585 170.357 119.088 161.492 127.554C158.89 130.059 156.288 132.563 153.675 135.056C153.222 135.386 153.006 135.791 153.021 136.38C152.639 145.154 153.692 154.392 152.834 163.041C152.688 164.52 151.944 165.891 150.69 166.689C148.382 168.157 145.671 169.227 143.162 169.76C140.278 170.205 137.231 169.45 134.263 168.444C131.416 167.479 129.379 164.903 129.201 161.901C128.706 153.571 129.556 145.665 129.195 136.841C129.196 136.451 129.084 136.179 128.805 135.902C125.05 132.134 121.319 128.34 117.563 124.574C110.463 117.369 103.287 110.24 96.2089 103.019C95.7365 102.521 95.3147 102.384 94.6529 102.519C90.8887 103.197 86.9651 104.249 83.1972 103.034C80.4546 102.359 79.7891 100.082 80.0534 97.5041C80.5202 95.7738 82.348 94.994 83.962 94.6922C89.8933 93.828 85.383 93.5261 89.0778 90.3993C97.7742 84.5805 114.88 83.3751 125.385 82.6534C144.334 81.7911 163.599 81.8079 182.222 85.8965C186.091 87.01 194.201 88.4984 195.314 92.8532C195.31 94.2291 195.31 95.6089 195.31 96.9886Z" fill="black"/>
<path d="M150 163.5C149.5 169.179 140 169 133.613 167.179C131.958 166.707 129.806 164.175 130.123 163C130.119 152.568 130.011 146.43 130 136C129.391 134.671 125.937 131.371 125 130.224C116.148 121.28 106.298 112.493 98.5 103.5C98.5244 103.442 98.5 103.5 101 104.5C114 108.092 127.361 107.789 140.656 106.966C155.814 106.878 172.18 106.176 186.889 102.247C179.819 108.59 170.985 116.554 163.641 123.747C161.389 125.903 159.143 128.064 156.894 130.224C155.407 131.92 153.117 134.272 152.078 136.233C151.03 136.81 150.363 136.603 150.365 137.844C150.232 140.013 150.307 142.188 150.278 144.359C150.237 151.334 149.55 156.536 150 163.5Z" fill="#AFC0D4"/>
<path d="M95.8086 93.7814C107.596 85.1413 174.807 85.1319 186.802 93.7439C175.161 102.401 107.795 102.343 95.8086 93.7814Z" fill="#404040"/>
<path d="M180.255 99.8852C180.068 99.274 179.939 99.2328 179.417 99.259C178.042 99.3153 176.662 99.2365 175.286 99.1747C175.029 99.1653 174.772 99.169 174.615 99.4371C173.959 99.5833 173.121 99.2853 172.438 99.1765C172.451 99.1484 172.465 99.1184 172.48 99.0903C176.651 98.586 195.839 95.1574 185.285 89.5129C175.396 85.6643 164.554 85.3063 154.08 84.5639C135.996 83.9734 117.403 83.8366 99.8119 88.5512C93.1551 90.5064 92.0285 94.2913 99.347 96.6514C108.713 99.6396 118.659 100.178 128.409 100.834C138.157 101.269 147.933 101.246 157.674 100.642C161.648 100.363 165.618 99.9583 169.572 99.5027C170.058 99.3865 170.511 99.4577 170.982 99.5983C172.618 100.159 174.354 100.238 176.011 100.676C157.248 103.722 138.039 103.902 119.124 102.266C111.892 101.561 104.611 100.667 97.6111 98.6666C94.0268 98.4248 90.4819 100.217 86.8396 99.9376C83.5234 100.127 77.5171 97.6918 83.649 95.4273C84.307 95.1311 88.9916 94.7674 88.6448 93.9801C86.3522 86.2529 119.03 83.6941 124.51 83.2985C139.642 82.365 154.879 82.5637 169.936 84.4121C184.441 85.9305 210.748 92.9378 180.255 99.8852Z" fill="#D6E3F2"/>
<path d="M180.433 102.626C160.117 106.529 139.229 106.728 118.67 104.992C111.876 104.302 105.073 103.438 98.465 101.67C96.9597 101.467 97.5333 100.873 97.4339 99.6302C116.533 104.489 136.525 104.609 156.109 103.826C160.532 103.524 164.961 103.213 169.359 102.635C172.486 102.18 175.635 101.833 178.727 101.166C179.645 100.967 179.818 102.063 180.433 102.626Z" fill="#78A2D3"/>
<path d="M95.2539 92.9079C96.8605 86.1499 133.192 85.1582 140.235 85.2144C147.599 85.1038 185.526 85.9062 187.371 92.8797C174.509 84.1778 108.202 84.1178 95.2539 92.9079Z" fill="#78A2D3"/>
<path d="M149 166C149.5 165 150.003 163.26 149.877 162.574C149.802 157.185 149.93 151.791 150.061 146.415C150.226 143.886 150.081 141.357 150.156 138.828C150.263 137.19 150.218 135.784 152.08 135.233C152.126 143.888 152.087 152.546 152.1 161.201C152.102 162.664 151.715 164.181 150.557 165.075C149.968 165.529 149.42 165.804 149 166Z" fill="#EDF5FD"/>
<path d="M81.0781 99.4784C85.8696 102.202 91.3979 100.337 96.4575 99.5909C96.4575 100.033 96.4575 100.446 96.4575 100.849C92.4758 101.19 82.9846 104.42 81.0781 99.4784Z" fill="#78A2D3"/>
<path d="M190.847 99.3247C190.418 98.6705 189.417 98.6798 189.021 99.2478C188.558 99.8533 187.801 99.1879 187.102 99.1372C189.677 98.1474 192.309 97.2401 194.366 95.3168C194.621 97.3882 192.407 98.4811 190.847 99.3247Z" fill="#CCCCCC"/>
<path d="M100.476 105.513C100.442 105.472 100.409 105.43 100.375 105.389C100.452 105.393 100.529 105.395 100.606 105.398C100.561 105.436 100.517 105.475 100.476 105.513Z" fill="#CCCCCC"/>
<path d="M135.82 174.797C135.919 175.666 135.505 177.136 136.759 177.252C138.152 177.479 138.017 175.809 138.093 174.889C140.993 174.529 144.04 175.093 146.994 174.934C147.568 175.07 148.773 174.712 148.835 175.537C148.811 183.084 148.874 190.63 148.923 198.175C148.921 198.587 149.137 198.756 149.424 198.929C143.98 199.274 138.298 198.994 132.777 199.005C132.723 190.881 132.717 182.743 132.779 174.62C132.886 174.523 133.017 174.512 133.152 174.521C134.024 174.658 135.008 174.482 135.82 174.797Z" fill="white"/>
<path d="M149.427 198.927C149.235 198.914 149.044 198.899 148.814 198.882C148.716 190.988 148.716 183.096 148.677 175.204C145.16 175.012 141.617 175.099 138.095 174.887C138.085 174.727 138.076 174.57 138.066 174.392C141.863 174.24 145.644 174.486 149.434 174.377C149.488 182.558 149.507 190.75 149.427 198.927Z" fill="#EDF5FD"/>
<path d="M131.165 198.992C130.995 190.8 131.161 182.589 131.105 174.39C131.341 174.39 131.542 174.39 131.795 174.39C131.806 182.586 131.896 190.798 131.763 198.989C131.564 199.071 131.364 199.065 131.165 198.992Z" fill="#AFC0D4"/>
<path d="M135.818 174.797C134.806 174.737 133.791 174.677 132.779 174.619C132.511 174.083 135.426 174.442 135.846 174.384C135.835 174.538 135.825 174.667 135.818 174.797Z" fill="#EDF5FD"/>
<path d="M136.717 174.362C136.878 174.362 137.004 174.362 137.169 174.362C137.116 175.018 137.386 175.869 136.893 176.351C136.5 175.828 136.809 175.035 136.717 174.362Z" fill="white"/>
<path d="M140.293 192.861C138.076 192.851 135.854 192.877 133.637 192.851C132.829 192.72 133.25 191.773 133.94 191.931C138.183 191.931 142.427 191.929 146.669 191.933C146.997 191.925 147.456 191.996 147.43 192.42C147.631 193.339 141.272 192.667 140.293 192.861Z" fill="black"/>
<path d="M140.395 188.884C142.639 188.924 144.9 188.804 147.138 188.933C147.83 189.261 147.238 189.968 146.632 189.814C142.523 189.809 138.414 189.874 134.306 189.811C133.937 189.814 133.341 189.764 133.403 189.271C133.521 188.416 139.308 189.029 140.397 188.851C140.395 188.862 140.395 188.873 140.395 188.884Z" fill="black"/>
<path d="M140.464 185.658C141.467 185.855 147.63 185.173 147.454 186.103C147.49 186.522 146.999 186.62 146.654 186.592C143.373 186.599 140.091 186.609 136.81 186.612C135.785 186.569 134.729 186.695 133.721 186.515C133.102 186.198 133.659 185.503 134.217 185.66C136.298 185.656 138.381 185.658 140.464 185.658Z" fill="black"/>
<path d="M137.119 183.234C136.296 183.054 133.434 183.692 133.275 182.784C132.937 181.767 139.35 182.475 140.299 182.282C140.878 182.166 141.3 182.964 140.659 183.191C139.491 183.302 138.297 183.202 137.119 183.234Z" fill="black"/>
<path d="M137.144 179.637C138.293 179.659 139.453 179.592 140.599 179.665C141.339 179.913 140.807 180.752 140.173 180.569C139.213 180.374 133.089 181.065 133.348 180.093C133.462 179.185 136.351 179.813 137.144 179.637Z" fill="black"/>
<path d="M176.925 31.0867C182.729 27.1632 190.606 31.2236 192.441 37.5635C193.491 40.2798 192.916 43.1855 193.073 46.0218C193.088 48.4794 194.67 50.6502 194.49 53.121C194.621 56.4672 190.93 59.9502 194.689 62.5615C193.65 62.8034 192.784 62.4978 191.914 62.1097C191.35 63.9994 189.309 63.8494 187.742 63.6357C189.382 68.8865 188.956 73.4212 188.077 78.7807C190.314 80.3404 191.466 81.139 194.258 80.6816C196.843 80.3816 202.605 82.9667 199.629 86.0036C202.804 92.1598 205.462 98.4773 208.522 104.677C208.889 105.322 209.03 106.148 209.802 106.429C211.118 107.099 212.539 107.474 213.943 107.901C215.615 108.626 217.878 107.4 218.961 109.316C219.871 111.468 216.225 113.109 214.766 114.085C213.268 114.839 211.581 114.145 210.027 114.031C209.768 114.442 210.126 114.901 210.036 115.354C209.774 116.357 207.986 116.305 207.11 116.442C206.426 116.496 206.207 115.874 205.961 115.368C205.447 114.121 204.272 113.052 204.285 111.654C204.261 110.509 204.765 109.275 203.978 108.282C202.315 105.989 200.901 103.518 199.31 101.182C198.013 104.45 197.461 108.21 196.417 111.65C196.161 112.895 195.604 114.125 195.591 115.399C195.699 116.292 195.889 117.175 195.966 118.067C196.131 119.979 197.117 121.52 198.474 122.797C199.659 123.7 199.85 126.835 197.943 126.732C194.89 125.946 192.28 124.34 190.574 121.64C189.777 122.958 188.788 122.088 187.753 121.608C186.643 120.881 187.624 119.006 187.571 117.885C187.828 116.168 189.352 115.253 190.475 114.038C191.067 109.172 190.347 104.201 191.232 99.3321C184.669 100.215 177.971 100.119 171.367 99.6058C165.61 99.4315 162.98 95.0355 163.34 89.6497C161.525 88.5025 163.707 84.9838 164.035 83.2779C161.31 81.8626 160.876 78.6364 161.579 75.9163C162.85 70.1668 164.36 63.8738 168.321 59.459C167.773 59.0954 166.868 58.8292 167.228 57.9237C165.469 58.2106 164.105 56.8196 163.934 55.1268C164.191 54.9937 164.335 55.2037 164.498 55.288C165.407 55.7548 166.318 55.4774 166.74 54.5625C167.698 52.8829 166.48 51.3138 165.842 49.7579C164.811 47.3659 165.018 45.0207 166.174 42.7356C168.576 39.0595 171.425 29.8645 176.925 31.0867Z" fill="black"/>
<path d="M176.109 84.2247C175.575 85.162 175.05 86.1031 174.943 87.2522C171.481 85.97 168.239 83.9922 164.852 82.4663C163.12 81.8514 162.355 80.4623 162.25 78.7489C162.724 72.8626 164.775 66.144 167.988 61.1725C169.141 59.6672 170.161 60.0496 171.752 59.7553C172.56 59.6897 173.085 59.6335 173.052 60.6739C173.271 62.1305 172.757 62.9834 174.332 63.6114C173.97 64.3856 173.372 65.1449 174.03 65.9378C175.764 68.4629 177.264 71.2711 177.822 74.3024C177.957 76.9868 177.474 79.6844 176.908 82.3313C174.049 81.0416 171.312 79.3076 168.549 77.7723C168.886 74.546 170.922 71.6235 170.823 68.3467C170.331 68.0974 170.206 69.3384 170.005 69.6477C169.278 72.5665 167.561 75.3953 167.64 78.4378C167.696 78.5071 167.75 78.5765 167.825 78.6252L167.819 78.6121C170.251 80.6179 173.149 81.9077 175.727 83.6961C175.916 83.8179 176.188 83.9023 176.109 84.2247Z" fill="#D52B1E"/>
<path d="M190.767 86.1349C188.71 88.6768 188.326 91.9068 188.51 95.0693C188.534 96.0291 188.733 96.9683 189.201 97.8325C189.312 98.0349 189.484 98.2355 189.34 98.5467C184.29 99.349 179.065 98.8016 173.959 98.9085C168.142 99.0416 163.885 96.5783 164.261 90.2065C166.811 91.0726 169.327 92.008 172.032 92.3267C174.45 93.0016 175.972 91.7175 176.701 89.4792C178.749 91.2676 180.844 88.973 182.936 88.7031C183.979 88.6693 184.888 89.3067 185.911 89.2655C187.214 89.0405 188.005 86.9428 188.356 85.7806C188.646 85.5968 188.939 85.4113 189.323 85.1694C189.826 85.2875 190.174 85.8199 190.767 86.1349Z" fill="black"/>
<path d="M195.753 120.836C194.882 121.333 194.254 120.978 193.659 120.304C192.343 118.907 190.902 117.621 189.676 116.146C190.135 115.205 191.436 114.935 191.472 113.808C191.642 111.686 191.728 109.566 191.7 107.436C191.432 103.942 192.25 100.461 192.278 97.0208C191.843 97.0433 191.85 97.4445 191.612 97.6357C190.84 97.0058 190.135 96.3366 189.934 95.2362C191.629 94.3457 195.127 91.2751 196.859 91.6275C199.347 92.2143 199.915 94.8519 199.24 97.0058C197.832 102.453 196.454 107.91 194.981 113.339C194.454 115.844 194.994 118.399 195.753 120.836Z" fill="#EED3CA"/>
<path d="M190.845 93.5227C189.102 91.5187 189.966 86.9934 192.521 86.163C194.72 86.0092 197.84 85.0269 199.257 87.3233C202.247 93.399 204.903 99.6302 208.017 105.648C208.947 107.982 211.851 107.837 213.781 108.921C213.57 109.637 213.315 110.364 212.415 110.361C210.021 110.57 207.672 110.376 205.273 110.306C205.203 109.543 205.475 108.752 204.999 108.113C203.415 106 202.026 103.758 200.622 101.525C199.632 98.9104 201.13 95.7797 200.022 93.1215C199.392 91.7193 198.275 90.9507 196.803 90.6639C194.829 90.5889 192.651 92.6379 190.845 93.5227Z" fill="#EED3CA"/>
<path d="M177.004 63.3264C178.755 63.5232 180.314 63.4857 182.075 63.212C183.051 66.2658 184.317 69.3926 183.908 72.6601C183.535 75.7476 183.389 78.8613 183.121 81.9563C181.52 82.6987 179.731 82.4643 178.035 82.1194C179.148 75.0127 179.291 70.2175 177.004 63.3264Z" fill="white"/>
<path d="M163.504 88.5382C163.701 86.8416 164.293 85.2782 164.869 83.6604C168.573 85.1357 172.005 87.2315 175.696 88.7725C175.771 90.2159 174.549 91.8094 173.006 91.5507C169.774 90.9133 166.241 90.5084 163.504 88.5382Z" fill="#D52B1E"/>
<path d="M186.656 82.5524C186.695 82.9086 186.701 83.2611 186.605 83.6397C185.722 83.6097 184.938 83.2892 184.074 83.2329C184.112 79.8436 184.447 76.4299 184.843 73.0481C184.944 71.1323 186.395 64.2974 184.743 63.3151C184.472 63.2139 184.597 62.7378 184.88 62.824C185.422 63.0414 186.234 62.9196 186.558 63.4576C188.856 71.2879 186.882 74.9584 186.656 82.5524Z" fill="#D52B1E"/>
<path d="M209.132 115.051C208.442 115.401 207.786 115.519 207.124 115.484C206.554 114.607 206.185 113.649 205.552 112.803C205.255 112.364 205.094 111.898 205.276 111.313C207.767 111.103 210.324 111.583 212.84 111.264C214.038 111.178 214.347 110.061 214.788 109.14C215.35 109.08 215.901 109.283 216.466 109.099C217.87 108.878 218.777 110.066 217.48 111.067C216.237 112.055 214.863 113.457 213.213 113.53C211.935 113.422 210.66 113.204 209.379 113.146C208.425 113.255 209.081 114.391 209.132 115.051Z" fill="#D52B1E"/>
<path d="M189.024 116.896C190.665 118.38 192.026 120.125 193.702 121.582C194.403 122.313 195.364 121.985 196.202 121.756C197.119 122.75 198.647 123.794 198.396 125.307C198.336 125.669 198.101 125.834 197.751 125.723C196.403 125.309 195.166 124.619 193.896 124.013C192.387 123.528 191.169 119.113 189.56 121.378C189.045 121.318 188.629 121.05 188.207 120.793C188.278 119.452 188.106 118.015 189.024 116.896Z" fill="#D52B1E"/>
<path d="M190.105 84.1833C190.533 83.4035 190.368 81.8194 191.45 81.677C193.678 81.647 196.055 81.1783 197.964 82.6068C198.159 82.7886 199.22 83.3173 199.559 83.889C199.61 83.9734 199.542 84.0784 199.389 84.1721C198.742 83.7409 197.407 82.8299 196.689 82.5262C196.063 82.9536 198.787 84.0221 198.933 84.6764C199.242 86.3616 196.886 84.2527 196.374 83.9378C195.24 82.9273 190.062 83.8384 194.509 84.1608C195.467 84.174 195.51 85.1019 194.507 85.1C193.009 85.1056 190.928 85.9773 190.105 84.1833Z" fill="#EED3CA"/>
<path d="M174.145 62.4735C174.124 61.8511 173.299 58.458 174.641 59.9109C176.105 63.1633 177.193 66.6932 177.708 70.2381C176.561 68.7797 175.995 66.995 174.812 65.5422C174.141 64.2525 176.973 63.0921 174.145 62.4735Z" fill="#D52B1E"/>
<path d="M186.656 82.5525C186.356 81.5402 186.548 80.4136 186.694 79.3751C186.836 76.5838 187.294 73.8243 187.554 71.0405C188.117 68.5398 186.008 65.7672 186.557 63.4558C189.296 69.4939 187.266 76.2576 186.656 82.5525Z" fill="#FCA6A6"/>
<path d="M176.109 84.2247C173.53 82.5525 170.914 80.9366 168.303 79.3132C168.048 79.1538 167.803 78.9682 167.821 78.6121C170.896 80.0012 173.794 81.8308 176.752 83.4823C176.625 83.8479 176.375 84.0428 176.109 84.2247Z" fill="#FCA6A6"/>
<path d="M189.63 81.5346C189.067 82.4737 188.407 83.3417 188.229 84.5115C187.958 84.4383 187.742 84.3784 187.551 84.3277C187.628 83.0305 187.53 81.8289 187.894 80.5916C188.736 80.421 189.101 81.1278 189.63 81.5346Z" fill="#D52B1E"/>
<path d="M183.022 61.4574C183.355 61.7836 183.582 62.0048 183.824 62.2429C183.34 63.2739 183.374 63.6413 184.426 64.1437C184.589 64.8223 184.613 65.7953 184.508 67.2687C184.308 67.2781 184.278 67.1094 184.238 66.9819C183.914 65.3041 182.439 63.0096 183.022 61.4574Z" fill="#D52B1E"/>
<path d="M189.63 81.5346C188.886 81.5008 188.592 80.6629 187.895 80.5898C187.915 80.3892 187.936 80.1867 187.964 79.9055C188.738 80.1886 189.332 80.6516 190.035 81.0509C189.883 81.2327 189.756 81.3846 189.63 81.5346Z" fill="#FCA6A6"/>
<path d="M179.766 34.6222C180.532 34.4891 181.245 35.7976 181.631 36.3937C181.562 37.436 179.946 34.8397 179.766 34.6222Z" fill="white"/>
<path d="M184.746 85.6175C185.608 85.7037 186.418 85.9531 187.196 86.3261C187.62 85.4788 185.462 85.3288 184.905 85.2876C184.742 85.1976 184.485 85.1901 184.545 84.8264C185.312 84.7458 185.816 84.9689 186.639 84.8433C184.935 84.1291 183.229 83.9266 181.428 84.1553C180.157 84.3428 178.845 84.7121 177.673 84.0597C176.693 84.6258 177.062 86.073 176.766 87.0253C176.618 88.1257 177.529 89.4736 178.721 89.2636C179.81 89.0574 180.774 88.4425 181.779 87.9983C182.81 87.509 184.3 87.7939 185.301 88.3413C185.706 88.5569 186.068 88.495 186.148 87.8652C185.487 87.2072 184.279 87.5296 183.773 86.7741C184.87 86.6054 185.777 86.9354 186.619 87.3984C187.496 86.4667 184.677 86.3336 184.272 85.9174C184.294 85.6662 184.566 85.7 184.746 85.6175Z" fill="#EED3CA"/>
<path d="M180.555 83.3566C179.546 83.6191 178.735 83.8834 178.043 83.0173C178.847 83.1261 179.597 83.2273 180.555 83.3566Z" fill="black"/>
<path d="M172 36.6806C172.289 35.9495 172.769 35.1171 173.676 35.0984C173.129 35.7451 172.701 36.5193 172 36.6806Z" fill="white"/>
<path d="M190.285 51.4677C190.894 51.5051 191.294 53.0273 190.814 53.3216C190.371 52.9711 190.504 52.0844 190.285 51.4677Z" fill="white"/>
<path d="M191.707 52.3131C191.894 53.4341 191.842 53.7847 191.407 54.2796C191.368 54.1952 191.289 54.1071 191.308 54.0509C191.553 53.5485 191.124 52.5474 191.707 52.3131Z" fill="white"/>
<path d="M181.223 34.6073C181.841 34.4517 182.152 35.2953 182.411 35.7227C182.158 36.36 181.337 34.9447 181.223 34.6073Z" fill="white"/>
<path d="M181.5 33.3382C181.86 32.9483 182.874 34.1949 182.97 34.6636C182.432 34.4236 182.194 34.2024 181.5 33.3382Z" fill="white"/>
<path d="M187.439 48.4064C187.004 47.6528 185.817 47.3266 185.143 47.9209C182.408 49.7505 183.322 43.1818 182.897 41.9259C182.681 41.2397 182.681 41.2397 182.089 40.8704C182.306 41.3222 182.556 41.6203 182.559 42.0946C179.099 42.6457 175.558 40.9848 173.539 38.1616C172.761 39.2733 171.465 39.7251 170.725 40.6924C169.915 43.6299 169.788 46.7361 169.806 49.7786C169.789 53.6966 173.961 55.9742 177.5 55.3256C178.475 55.2263 179.425 54.8832 180.405 54.9094C180.37 55.3575 180.377 55.3743 180.186 55.4681C178.563 56.1392 177.177 57.1665 175.64 58.0625C175.301 59.5604 176.062 60.837 176.621 62.1773C178.313 62.5804 180.117 62.8091 181.714 62.1492C179.397 57.4664 180.469 55.4512 184.003 51.9101C183.752 51.5876 182.91 50.7647 183.725 50.7572C184.785 51.1977 185.9 51.9457 187.023 51.2521C188.02 50.7684 188.421 49.1225 187.439 48.4064ZM186.297 50.2435C186.027 49.5293 185.638 49.0719 184.756 49.2762C185.534 48.3914 186.474 48.7251 187.407 48.4158C186.811 48.8601 186.41 49.4318 186.297 50.2435Z" fill="#EED3CA"/>
<path d="M172.825 34.3711C172.567 34.8604 172.235 35.1247 171.875 35.5409C171.905 34.7666 172.122 34.5061 172.825 34.3711Z" fill="white"/>
<path d="M154.1 77.5885C148.917 77.3992 143.73 77.1986 138.561 76.7862C138.441 68.7703 138.47 60.7245 138.55 52.7086C139.564 52.4949 140.564 52.5043 141.54 52.8961C141.576 53.3929 141.563 53.9028 141.623 54.3939C141.763 55.0988 142.566 55.4943 143.207 55.1756C143.887 54.8045 143.735 53.9084 143.87 53.2579C144.83 52.7236 145.867 52.9636 146.862 53.0179C149.012 53.1379 151.159 53.3348 153.317 53.3366C154.638 53.3385 154.764 53.5616 154.685 54.8944C154.522 57.6426 154.353 60.3908 154.229 63.1409C154.033 67.4862 154.599 71.8128 154.424 76.1526C154.404 76.6475 154.548 77.1874 154.1 77.5885Z" fill="white"/>
<path d="M154.101 77.5885C154.27 73.6425 154.018 69.6833 153.816 65.7747C154.088 61.7499 154.168 57.7176 154.451 53.7022C150.914 53.5841 147.418 53.2523 143.871 53.2579C143.787 52.9954 143.77 52.7386 143.935 52.4349C147.662 52.6843 151.42 52.688 155.128 53.0704C155.252 55.9667 155.188 58.8911 155.042 61.7761C154.804 67.0476 155.323 72.4015 154.901 77.6298L154.849 77.6523C154.626 77.551 154.343 77.6954 154.101 77.5885Z" fill="#EDF5FD"/>
<path d="M156.641 52.7854C156.731 60.7394 156.647 68.6897 156.675 76.6437C156.663 77.0186 156.787 77.6916 156.195 77.5772C155.977 69.6457 156.189 61.6373 156.12 53.6796C156.137 53.2728 155.989 52.7086 156.641 52.7854Z" fill="#AFC0D4"/>
<path d="M154.901 77.6335C154.807 75.2396 154.884 72.8401 154.858 70.4444C154.661 68.4891 154.633 66.5227 154.856 64.5525C155.002 63.7182 154.554 60.9888 155.117 60.6195C155.293 66.0128 155.128 71.4285 155.182 76.8293C155.139 77.0936 155.311 77.6485 154.901 77.6335Z" fill="#D6E3F2"/>
<path d="M141.541 52.8961C140.54 52.9148 139.537 52.9373 138.551 52.7086C138.553 52.5961 138.555 52.4818 138.556 52.3693C138.626 52.2606 138.755 52.2681 138.854 52.2156C139.696 52.2381 140.529 52.2943 141.366 52.3599C141.426 52.418 141.485 52.4761 141.541 52.538C141.541 52.658 141.541 52.778 141.541 52.8961Z" fill="#EDF5FD"/>
<path d="M142.651 54.4407C142.402 53.7396 142.376 53.1247 142.527 52.3392C143.251 52.4836 142.951 53.8089 142.651 54.4407Z" fill="white"/>
<path d="M154.109 77.5903C154.34 77.6016 154.571 77.6109 154.801 77.6222C154.565 77.7328 154.334 77.7366 154.109 77.5903Z" fill="#D6E3F2"/>
<path d="M153.605 34.3513C148.279 34.207 142.937 33.8489 137.609 33.5359C137.532 25.5687 137.495 17.596 137.624 9.63262C138.638 9.19583 139.624 9.19958 140.564 9.83508C140.625 10.6074 140.477 11.8428 141.471 11.974C142.749 12.3096 142.847 10.9111 142.882 9.9888C143.625 9.49952 144.459 9.68136 145.241 9.75634C147.479 9.97192 149.727 9.86694 151.967 10.0525C153.38 10.1688 153.568 10.2437 153.547 11.6966C153.547 18.8539 153.862 26.0036 153.892 33.1647C153.9 33.5808 153.918 34.0064 153.605 34.3513Z" fill="white"/>
<path d="M153.604 34.3513C153.711 26.3748 153.219 18.4545 153.264 10.4912C149.828 10.1106 146.347 10.1294 142.883 9.98878C142.883 9.75633 142.883 9.52388 142.883 9.23706C146.617 9.24831 150.374 9.5445 154.114 9.7807C154.25 17.9578 154.299 26.2248 154.102 34.3888C153.943 34.3757 153.772 34.3625 153.604 34.3513Z" fill="#EDF5FD"/>
<path d="M155.17 34.4188C155.033 26.4161 155.163 18.4246 155.121 10.42C155.114 10.0038 155.061 9.43584 155.658 9.4827C155.911 17.3673 155.661 25.3138 155.746 33.2191C155.71 33.7384 155.937 34.3401 155.17 34.4188Z" fill="#AFC0D4"/>
<path d="M140.561 9.83505C139.592 9.59697 138.606 9.63072 137.622 9.63259C137.61 9.44888 137.601 9.26704 137.59 9.08333C137.678 9.05521 137.729 8.98022 137.8 8.92773C138.152 8.94086 138.507 8.95211 138.859 8.96523C139.494 9.12832 140.994 8.65779 140.561 9.83505Z" fill="#EDF5FD"/>
<path d="M141.468 9.98884C141.505 9.6739 141.301 9.1865 141.742 9.10589C141.794 9.09464 141.925 9.19025 141.931 9.24649C141.989 9.80887 142.021 10.375 141.845 10.9261C141.398 11.3011 141.502 10.2307 141.445 9.99071C141.451 9.99071 141.46 9.99071 141.468 9.98884Z" fill="white"/>
<path d="M117.909 35.0779C117.971 35.7377 117.769 36.9956 118.601 37.0931C120.028 37.4174 120.176 35.9121 120.192 34.9017C123.263 34.0018 126.666 34.1856 129.854 33.6607C130.955 33.5407 131.264 33.7469 131.198 34.8585C130.658 42.417 131.616 50.251 130.578 57.6745C125.378 58.2519 120.168 58.8967 114.951 59.2548C114.737 51.2314 114.855 43.1312 114.912 35.0872C115.911 35.061 116.91 34.7554 117.909 35.0779Z" fill="white"/>
<path d="M130.577 57.6726C130.729 49.8048 130.706 41.9052 130.901 34.0337C130.691 33.7712 130.446 33.8237 130.213 33.8631C126.889 34.3055 123.528 34.6786 120.191 34.9016C120.191 34.6673 120.191 34.433 120.191 34.1443C123.965 33.6082 127.664 33.3626 131.469 32.9408C131.747 40.9004 131.463 48.9144 131.548 56.8946C131.585 57.5676 131.235 57.7457 130.577 57.6726Z" fill="#EDF5FD"/>
<path d="M113.368 34.3861C114.007 34.3523 113.97 34.9147 113.949 35.3759C113.921 43.2905 114.005 51.2145 113.915 59.1273C113.195 59.4328 113.364 58.533 113.342 58.1262C113.362 50.2097 113.293 42.3045 113.368 34.3861Z" fill="#AFC0D4"/>
<path d="M117.907 35.0778C116.91 35.1753 115.884 35.4959 114.91 35.0872C114.904 35.0216 114.9 34.956 114.895 34.8904C115.888 34.6092 116.878 34.313 117.928 34.5698C117.922 34.7385 117.915 34.9073 117.907 35.0778Z" fill="#EDF5FD"/>
<path d="M118.927 36.1707C118.438 34.0524 119.507 33.2819 119.16 35.9814C119.156 36.0357 119.04 36.0826 118.927 36.1707Z" fill="white"/>
<path d="M117.928 34.5679C116.923 34.5041 115.884 34.6766 114.895 34.8884C115.046 34.3617 117.191 34.551 117.81 34.3767C117.843 34.3729 117.888 34.5023 117.928 34.5679Z" fill="#D6E3F2"/>
<path d="M172.658 48.5394C174.109 49.1918 175.777 48.665 177.219 49.1318C177.648 51.3832 175.052 53.2991 173.254 51.6644C172.451 50.9183 171.829 49.443 172.658 48.5394Z" fill="black"/>
<path d="M176.586 45.735C176.963 45.6338 176.833 45.3264 176.882 45.0564C177.096 44.9608 177.236 45.1989 177.424 45.2045C177.63 45.212 177.851 45.1577 178.041 45.2139C180.678 46.4924 177.086 49.9717 176.586 45.735Z" fill="black"/>
<path d="M170.715 44.5259C171.335 44.5709 171.174 44.151 171.303 43.9148C171.602 43.9617 171.778 44.2297 172.113 44.241C173.583 44.226 173.467 46.693 172.093 46.7005C170.887 46.528 171.42 45.3001 170.715 44.5259Z" fill="black"/>
<path d="M187.43 48.3989C187.403 48.4139 187.355 48.427 187.355 48.442C187.349 48.845 187.169 49.0962 186.744 49.1319C186.605 49.6624 186.758 50.2341 186.389 50.7553C185.812 50.4985 185.926 49.8292 185.666 49.3175C182.447 50.3597 185.885 47.6022 187.312 48.5039C187.338 48.5132 187.396 48.442 187.437 48.4083C187.439 48.4064 187.43 48.3989 187.43 48.3989Z" fill="black"/>
<path d="M179.531 44.8577C178.524 44.3703 177.846 44.1791 176.73 44.1941C177.094 42.9699 179.72 43.5829 179.531 44.8577Z" fill="black"/>
<path d="M172.126 42.4075C172.687 42.4169 173.874 42.8855 173.581 43.566C173.442 43.6916 173.304 43.6354 173.172 43.5585C172.649 43.2286 172.093 42.7937 171.448 43.133C171.38 43.1686 171.183 43.1049 171.161 43.043C171.095 42.55 171.729 42.3644 172.126 42.4075Z" fill="black"/>
<path d="M172.677 47.4352C172.637 46.841 173.822 45.615 174.383 45.8043C174.534 46.2674 173.232 47.6433 172.677 47.4352Z" fill="black"/>
<path d="M128.809 68.9802C127.322 68.2041 125.678 68.3766 124.07 68.5734C121.65 68.7684 119.215 69.1752 116.791 69.2352C116.065 67.0119 113.769 67.5986 113.308 69.6195C112.344 69.9156 109.022 69.5089 109.043 70.6318C109.022 78.8369 109.054 87.0534 109.041 95.2623C108.646 97.3 111.195 97.3113 112.614 97.0976C115.237 96.8258 117.857 96.5539 120.48 96.284C123.073 96.0178 125.665 95.7591 128.258 95.491C129.066 95.4067 129.143 95.313 129.143 94.4694C128.828 86.0692 129.759 77.1292 128.809 68.9802ZM114.5 69.5239C114.11 68.9633 115.535 68.1479 115.698 69.4208C115.227 69.4601 114.849 69.4939 114.5 69.5239Z" fill="black"/>
<path d="M114.522 72.1465C114.567 72.7651 114.436 73.8674 115.188 73.9911C116.631 74.3623 116.8 72.8064 116.821 71.7866C117.359 71.3629 118.026 71.4567 118.633 71.3892C121.106 71.1211 123.567 70.7537 126.042 70.5119C127.343 70.3844 127.611 70.5812 127.613 71.8859C127.369 79.3957 128.123 87.1978 127.335 94.5688C122.098 95.1949 116.854 95.7048 111.605 96.2241C111.298 88.2626 111.514 80.153 111.532 72.1446C112.531 72.0472 113.527 71.6647 114.522 72.1465Z" fill="white"/>
<path d="M127.335 94.5669C127.329 86.6635 127.329 78.7601 127.327 70.8548C126.755 70.583 126.298 70.7405 125.782 70.8717C122.781 71.0367 119.806 71.7097 116.82 71.7847C116.61 70.9467 116.989 71.0292 117.63 70.928C121.109 70.5624 124.586 70.195 128.043 69.8313C128.489 77.909 128.043 86.1948 128.182 94.3419C127.931 94.6287 127.636 94.6119 127.335 94.5669Z" fill="#EDF5FD"/>
<path d="M110.475 96.0198C109.892 96.3159 110.037 95.3974 110.012 95.0731C110.085 87.1547 109.86 79.2044 110.093 71.3048C110.248 71.361 110.382 71.4098 110.5 71.4529C110.599 72.5421 110.573 95.3618 110.475 96.0198Z" fill="#AFC0D4"/>
<path d="M114.522 72.1465C113.508 72.0696 112.535 72.4652 111.534 72.1446C111.522 72.0022 111.511 71.8597 111.496 71.6853C112.467 71.3835 113.553 71.2298 114.546 71.436C114.539 71.6741 114.531 71.9103 114.522 72.1465Z" fill="#EDF5FD"/>
<path d="M115.529 73.0669C115.019 70.7311 116.294 70.3806 115.762 72.9151C115.747 72.9732 115.634 73.0013 115.529 73.0669Z" fill="white"/>
<path d="M114.167 89.7886C113.58 89.9142 113.335 89.1456 113.871 88.9319C115.487 88.6488 117.14 88.5701 118.769 88.3695C119.947 88.4463 125.899 87.1735 126.118 87.9927C126.236 88.5194 125.64 88.6001 125.259 88.6432C121.561 89.0331 117.87 89.4249 114.167 89.7886Z" fill="black"/>
<path d="M114.498 83.4897C114.263 83.4935 113.851 83.456 113.832 83.1205C113.911 82.1119 116.361 82.4981 117.152 82.2413C119.861 81.9638 122.571 81.6901 125.28 81.4146C125.601 81.3602 125.963 81.3321 126.139 81.662C126.414 82.7661 122.9 82.4625 122.137 82.7155C119.585 82.9742 117.051 83.2348 114.498 83.4897Z" fill="black"/>
<path d="M114.495 86.7122C114.227 86.716 113.835 86.7029 113.794 86.3504C113.563 85.3681 117.978 85.5931 118.803 85.3157C119.875 85.4 126.133 84.0915 126.134 84.9707C126.228 85.4881 125.604 85.5406 125.238 85.6006C121.658 85.983 118.081 86.3561 114.495 86.7122Z" fill="black"/>
<path d="M114.362 80.1343C113.306 80.2617 113.486 79.1726 114.441 79.1688C115.43 79.2457 119.42 78.179 119.708 79.0301C119.879 80.1174 115.37 79.8306 114.362 80.1343Z" fill="black"/>
<path d="M114.274 77.4985C113.396 77.5229 113.749 76.4431 114.452 76.505C115.406 76.5687 119.376 75.5939 119.652 76.3625C120.018 77.4292 115.13 77.2136 114.274 77.4985Z" fill="black"/>
<path d="M147.344 63.8851C148.733 63.9882 150.975 64.0163 152.824 64.2188C154.71 65.7916 148.64 64.7887 148.01 64.9011C145.771 64.7512 143.516 64.7324 141.287 64.4981C140.676 64.3875 140.708 63.6095 141.346 63.5983C143.299 63.6751 144.915 63.7745 147.344 63.8851Z" fill="black"/>
<path d="M146.949 71.0892C146.287 70.8642 138.943 71.3216 140.907 69.8988C143.41 69.8632 145.925 70.1519 148.43 70.2306C149.065 70.4049 154.582 70.0056 152.773 71.3591C150.835 71.3572 148.889 71.1567 146.949 71.0798C146.949 71.0854 146.949 71.0873 146.949 71.0892Z" fill="black"/>
<path d="M146.779 67.1001C148.781 67.2332 150.797 67.2369 152.791 67.4525C153.663 67.9362 152.825 68.506 152.107 68.3242C150.675 67.9774 140.348 68.3804 140.816 67.1376C141.062 66.4027 145.761 67.2238 146.779 67.1001C146.779 67.1019 146.779 67.1019 146.779 67.1001Z" fill="black"/>
<path d="M143.623 57.68C144.225 57.7438 147.89 57.5469 146.323 58.7336C144.573 58.7317 142.785 58.6436 141.047 58.4393C139.741 57.112 143.016 57.6969 143.625 57.6632C143.623 57.6688 143.623 57.6744 143.623 57.68Z" fill="black"/>
<path d="M144.074 61.3337C142.741 61.2081 141.96 61.3224 140.908 61.0544C140.302 60.6888 140.93 60.0683 141.47 60.2389C143.128 60.3889 144.852 60.2445 146.474 60.5838C147.625 61.8473 144.413 61.2662 144.074 61.3337Z" fill="black"/>
<path d="M145.774 26.8809C146.4 27.0871 153.985 26.6878 151.806 28.0901C147.823 27.8464 143.654 27.9963 139.756 27.3383C138.617 25.8686 145.037 27.0515 145.772 26.8884C145.774 26.8866 145.774 26.8828 145.774 26.8809Z" fill="black"/>
<path d="M145.901 20.5972C147.873 20.7247 149.854 20.7584 151.821 20.944C152.057 20.9871 152.198 21.1634 152.201 21.3771C152.203 21.9638 151.448 21.857 151.035 21.842C148.553 21.7107 146.07 21.5739 143.588 21.4427C142.744 21.2083 139.958 21.7764 139.895 20.6985C139.998 19.8436 144.92 20.7303 145.903 20.5916C145.901 20.5935 145.901 20.5953 145.901 20.5972Z" fill="black"/>
<path d="M145.839 23.8291C146.865 24.0897 152.243 23.6548 152.179 24.6521C152.151 25.1301 151.572 25.0532 151.23 25.0551C147.62 24.8489 144 24.7458 140.397 24.4777C139.904 24.4984 139.563 23.6229 140.198 23.576C142.08 23.6004 143.961 23.756 145.841 23.8329C145.839 23.831 145.839 23.8291 145.839 23.8291Z" fill="black"/>
<path d="M142.618 14.4147C143.226 14.5085 146.838 14.2254 145.389 15.4589C144.615 15.4101 139.51 15.6295 139.784 14.7128C140.052 13.8655 141.887 14.5178 142.618 14.3941C142.62 14.4016 142.62 14.4091 142.618 14.4147Z" fill="black"/>
<path d="M142.792 17.0617C143.495 17.1442 144.674 17.058 145.514 17.3204C146.108 17.6991 145.474 18.3009 144.936 18.1378C143.279 17.9859 141.555 18.1303 139.933 17.7872C138.872 16.4187 141.982 17.1423 142.792 17.0617Z" fill="black"/>
<path d="M117.812 46.5917C117.527 46.6104 117.201 46.4586 117.195 46.1755C117.235 45.2007 121.248 45.4557 122.172 45.1707C123.342 45.2457 129.315 43.9803 129.525 44.7939C129.504 45.8362 127.616 45.4388 126.891 45.6656C123.867 45.9731 120.836 46.288 117.812 46.5917Z" fill="black"/>
<path d="M117.573 52.8829C117.294 52.9185 116.953 52.7967 116.938 52.5174C116.897 51.4901 121.137 51.7656 122.063 51.4732C123.246 51.5519 129.293 50.2566 129.498 51.0964C129.599 52.0881 127.008 51.7357 126.303 51.9775C123.396 52.2812 120.481 52.5849 117.573 52.8829Z" fill="black"/>
<path d="M117.848 49.8105C117.338 49.8817 116.851 49.4337 117.36 49.0063C118.258 48.7401 119.263 48.7551 120.195 48.6126C122.996 48.3239 125.796 48.0427 128.597 47.7597C128.923 47.7278 129.424 47.6228 129.504 48.0633C129.572 49.1075 125.733 48.8076 124.857 49.0925C122.518 49.3343 120.191 49.5705 117.848 49.8105Z" fill="black"/>
<path d="M117.696 43.2343C117.469 43.2887 117.173 43.18 117.055 42.9644C116.727 41.8377 120.6 42.1733 121.387 41.8977C121.946 41.8227 123.563 41.5115 122.935 42.5482C121.293 43.1012 119.447 42.9494 117.696 43.2343Z" fill="black"/>
<path d="M117.721 40.5779C116.707 40.6248 117.076 39.5075 117.891 39.59C118.945 39.6556 122.539 38.6996 123.02 39.4288C123.45 40.5404 118.572 40.293 117.721 40.5779Z" fill="black"/>
<path d="M176.831 49.3605C176.788 49.756 176.691 49.9416 176.357 49.9997C175.472 49.8929 173.6 50.1741 173.18 49.2593C174.447 49.4505 175.506 49.5011 176.831 49.3605Z" fill="white"/>
<path d="M176.317 50.729C175.596 51.6363 175.013 51.7994 174.055 51.4039C174.343 50.7534 175.575 50.5453 176.317 50.729Z" fill="#EF6261"/>
<path fill-rule="evenodd" clip-rule="evenodd" d="M156.234 1.49946C156.511 1.50156 156.733 1.72711 156.731 2.00324L156.696 6.60501C156.694 6.88114 156.468 7.1033 156.192 7.1012C155.916 7.09911 155.694 6.87356 155.696 6.59742L155.731 1.99566C155.733 1.71952 155.958 1.49737 156.234 1.49946Z" fill="#6A6969"/>
<path fill-rule="evenodd" clip-rule="evenodd" d="M156.871 42.1604C157.147 42.1632 157.369 42.4688 157.367 42.8429L157.332 49.077C157.33 49.4511 157.105 49.7521 156.829 49.7492C156.553 49.7464 156.33 49.4408 156.333 49.0668L156.367 42.8326C156.37 42.4585 156.595 42.1576 156.871 42.1604Z" fill="#6A6969"/>
<path fill-rule="evenodd" clip-rule="evenodd" d="M112.871 26.1184C113.147 26.1205 113.369 26.346 113.367 26.6221L113.332 31.2239C113.33 31.5 113.105 31.7222 112.829 31.7201C112.553 31.718 112.33 31.4925 112.333 31.2163L112.367 26.6146C112.37 26.3384 112.595 26.1163 112.871 26.1184Z" fill="#6A6969"/>
<path fill-rule="evenodd" clip-rule="evenodd" d="M107.871 63.659C108.147 63.6616 108.369 63.9447 108.367 64.2913L108.332 70.0672C108.33 70.4138 108.105 70.6926 107.829 70.69C107.553 70.6874 107.33 70.4043 107.333 70.0577L107.367 64.2818C107.37 63.9352 107.595 63.6563 107.871 63.659Z" fill="#6A6969"/>
<path fill-rule="evenodd" clip-rule="evenodd" d="M157.871 4.11824C158.147 4.12033 158.369 4.34588 158.367 4.62202L158.332 9.22378C158.33 9.49992 158.105 9.72207 157.829 9.71998C157.553 9.71788 157.33 9.49233 157.333 9.2162L157.367 4.61443C157.37 4.3383 157.595 4.11614 157.871 4.11824Z" fill="#6A6969"/>
<path fill-rule="evenodd" clip-rule="evenodd" d="M158.508 45.708C158.784 45.7109 159.006 46.0164 159.004 46.3905L158.969 52.6246C158.967 52.9987 158.742 53.2997 158.465 53.2968C158.189 53.294 157.967 52.9884 157.969 52.6144L158.004 46.3802C158.006 46.0061 158.232 45.7052 158.508 45.708Z" fill="#6A6969"/>
<path fill-rule="evenodd" clip-rule="evenodd" d="M114.871 24.1184C115.147 24.1205 115.369 24.346 115.367 24.6221L115.332 29.2239C115.33 29.5 115.105 29.7222 114.829 29.7201C114.553 29.718 114.33 29.4925 114.333 29.2163L114.367 24.6146C114.37 24.3384 114.595 24.1163 114.871 24.1184Z" fill="#6A6969"/>
<path fill-rule="evenodd" clip-rule="evenodd" d="M109.871 61.1486C110.147 61.1512 110.369 61.4343 110.367 61.7809L110.332 67.5568C110.33 67.9034 110.105 68.1823 109.829 68.1796C109.553 68.177 109.33 67.8939 109.333 67.5473L109.367 61.7714C109.37 61.4248 109.595 61.146 109.871 61.1486Z" fill="#6A6969"/>
</svg>
