<svg width="300" height="200" viewBox="0 0 300 200" fill="none" xmlns="http://www.w3.org/2000/svg">
<path d="M117.907 193.457C117.326 193.01 116.749 192.56 116.163 192.121C114.986 191.238 113.799 190.371 112.784 189.297C112.4 188.891 112.029 188.476 111.667 188.049C111.477 187.827 111.314 187.579 111.156 187.332C110.669 186.572 110.512 185.774 110.867 184.901C111.167 184.164 111.494 183.443 111.871 182.745C112.61 181.373 113.407 180.037 114.293 178.723C114.233 178.625 114.176 178.526 114.113 178.432C113.867 178.065 113.821 177.673 113.97 177.258C113.999 177.175 114.018 177.087 114.047 177.004C115.179 173.852 116.126 170.639 117.1 167.437C117.843 164.992 118.442 162.505 119.1 160.035C119.433 158.787 119.754 157.535 120.087 156.285C120.172 155.969 120.192 155.651 120.186 155.326C120.144 153.326 120.012 151.331 119.883 149.337C119.863 149.036 119.83 148.776 119.514 148.6C119.262 148.458 119.126 148.168 118.977 147.912C117.332 145.063 115.657 142.229 114.043 139.362C112.661 136.904 111.231 134.469 110.009 131.926C108.838 129.493 108.147 126.919 107.987 124.217C107.965 123.837 107.829 123.62 107.498 123.475C107.228 123.357 106.991 123.181 106.788 122.962C106.522 122.672 106.364 122.35 106.368 121.933C106.388 120.05 106.388 118.168 106.397 116.286C106.399 115.963 106.424 115.639 106.423 115.315C106.408 113.079 106.575 110.851 106.724 108.621C106.818 107.213 106.88 105.803 106.926 104.392C107.002 102.07 107.121 99.7523 107.294 97.4362C107.309 97.2487 107.384 97.0484 107.248 96.8554C106.996 96.9693 106.945 97.2157 106.833 97.4087C105.618 99.5243 104.55 101.717 103.452 103.895C101.837 107.099 100.48 110.417 99.1493 113.744C98.7743 114.683 98.1567 115.054 97.245 115.152C96.7358 115.205 96.5906 115.409 96.7193 115.88C96.7413 115.964 96.7836 116.043 96.8241 116.121C97.3902 117.209 97.642 118.385 97.767 119.587C97.9159 121.026 98.2651 122.42 98.6695 123.802C98.7522 124.087 98.8368 124.363 98.8331 124.66C98.8202 125.774 97.8313 126.418 96.8094 125.971C96.4509 125.815 96.155 125.578 95.951 125.239C95.7855 124.962 95.6238 124.682 95.4602 124.403C95.3995 124.3 95.3352 124.205 95.1753 124.181C95.1256 124.501 95.1716 124.809 95.2598 125.116C95.462 125.822 95.6532 126.532 95.8738 127.232C96.0024 127.638 96.0263 128.039 95.9399 128.449C95.8113 129.057 95.4528 129.465 94.8224 129.531C94.4345 129.572 94.0981 129.689 93.7526 129.86C93.3445 130.064 92.8868 130.033 92.4677 129.859C92.1847 129.741 91.9163 129.673 91.6185 129.769C91.591 129.778 91.5597 129.778 91.5322 129.78C91.0487 129.827 90.6186 129.649 90.1646 129.522C89.7308 129.401 89.2603 129.667 88.7842 129.519C88.2236 129.342 87.7916 129.02 87.4442 128.565C86.9387 127.901 86.6079 127.151 86.3891 126.35C85.9645 124.795 85.8671 123.234 86.198 121.64C86.7862 118.81 87.5802 116.051 88.8963 113.463C88.9625 113.332 89.0195 113.196 89.0783 113.062C89.1702 112.854 89.1518 112.674 88.9882 112.498C88.5379 112.011 88.5195 111.444 88.729 110.851C89.0415 109.965 89.3816 109.088 89.6683 108.193C90.5837 105.336 91.6792 102.548 92.8813 99.8019C93.9327 97.405 95.19 95.111 96.4252 92.806C98.3276 89.2548 100.434 85.8212 102.609 82.4354C104.357 79.7114 106.373 77.1785 108.766 74.9709C110.882 73.0207 113.312 71.655 116.12 70.9859C116.264 70.9528 116.404 70.9087 116.543 70.8627C116.665 70.8241 116.733 70.7285 116.762 70.6109C116.782 70.5264 116.788 70.4363 116.801 70.3499C116.902 69.5926 116.992 68.8353 117.111 68.0798C117.152 67.8243 117.108 67.6405 116.937 67.4402C114.297 64.3852 112.025 61.0601 109.847 57.6706C108.178 55.0734 106.656 52.3898 105.281 49.6252C104.822 48.7025 104.474 47.7394 104.252 46.7266C104.024 45.6807 104.125 44.6807 104.564 43.7157C105.171 42.3886 105.967 41.1975 107.174 40.3355C107.423 40.1572 107.496 39.9587 107.485 39.6701C107.437 38.411 107.757 37.2272 108.226 36.0729C108.788 34.687 109.757 33.6411 110.985 32.8342C112.637 31.7478 114.402 30.8802 116.286 30.2737C117.6 29.8491 118.925 29.4649 120.282 29.1984C120.947 29.0679 120.861 28.9374 120.865 28.4356C120.866 28.2591 120.865 28.0826 120.865 27.9062C120.865 19.1421 120.865 10.3798 120.865 1.61576C120.865 1.29225 120.859 0.966905 120.887 0.647074C120.923 0.222472 121.072 0.0772611 121.506 0.0662325C122.3 0.0460133 123.092 0.0404991 123.886 0.0404991C148.17 0.0368229 172.453 0.036823 196.734 0.0313087C200.85 0.0313087 204.965 0.00557522 209.081 6.08973e-05C210.051 -0.00177721 211.02 0.0386611 211.991 0.0313087C212.371 0.0276325 212.667 0.150785 212.952 0.386063C213.13 0.531273 213.215 0.694865 213.224 0.909923C213.233 1.1452 213.231 1.38048 213.231 1.61576C213.231 31.4059 213.231 61.1961 213.231 90.9863C213.231 116.659 213.231 142.332 213.229 168.005C213.229 168.444 213.189 168.885 213.18 169.325C213.174 169.589 213.07 169.771 212.825 169.876C211.934 170.262 211.048 170.626 210.042 170.611C208.162 170.582 206.28 170.591 204.399 170.584C204.282 170.584 204.164 170.586 204.048 170.573C203.881 170.552 203.782 170.442 203.769 170.282C203.721 169.698 203.649 169.111 203.647 168.525C203.638 163.761 203.642 158.996 203.642 154.234C203.642 149.616 203.642 145.001 203.642 140.384C203.642 140.266 203.644 140.148 203.642 140.031C203.631 139.477 203.631 139.477 203.12 139.465C202.973 139.461 202.826 139.465 202.679 139.465C200.298 139.465 197.916 139.474 195.536 139.457C195.082 139.454 194.668 139.54 194.257 139.711C190.378 141.323 186.5 142.931 182.619 144.538C179.254 145.931 175.888 147.317 172.523 148.712C166.935 151.028 161.347 153.348 155.759 155.664C151.473 157.441 147.184 159.213 142.898 160.989C141.622 161.516 140.349 162.046 139.075 162.579C138.698 162.737 138.67 162.763 138.7 163.165C138.768 164.073 138.849 164.981 138.939 165.887C139.108 167.613 139.24 169.341 139.288 171.078C139.308 171.81 139.452 172.536 139.542 173.265C139.584 173.613 139.676 173.962 139.464 174.293C139.376 174.431 139.18 174.53 139.277 174.743C139.356 174.918 139.542 174.968 139.687 175.059C139.86 175.17 140.058 175.241 140.227 175.355C141.071 175.916 141.988 176.118 142.995 176.01C144.615 175.833 145.435 176.846 145.712 178.07C145.797 178.442 145.87 178.817 145.949 179.19C145.951 179.482 145.962 179.774 145.953 180.066C145.944 180.373 145.828 180.616 145.571 180.818C145.039 181.237 144.506 181.649 143.902 181.962C143.328 182.257 142.76 182.568 142.185 182.862C140.718 183.608 139.213 184.27 137.691 184.893C136.652 185.32 135.564 185.621 134.468 185.776C133.127 185.965 131.772 185.785 130.467 185.373C129.811 185.165 129.322 184.783 129.164 184.07C129.153 184.018 129.099 183.974 129.066 183.926C129.107 183.107 129.156 182.285 129.184 181.465C129.206 180.82 129.364 180.19 129.338 179.537C129.3 178.568 129.338 177.598 129.642 176.659C129.693 176.497 129.656 176.381 129.48 176.32C128.86 176.109 128.642 175.648 128.66 175.023C128.667 174.776 128.625 174.528 128.605 174.284C128.401 174.308 128.37 174.429 128.331 174.534C128.206 174.863 128.088 175.195 127.967 175.526C127.401 177.07 126.826 178.613 126.123 180.1C125.712 180.971 125.311 181.86 124.453 182.438C124.91 182.93 125.127 183.502 125.309 184.094C125.489 184.684 125.671 185.272 125.861 185.858C125.921 186.049 125.96 186.263 126.177 186.358C126.07 186.452 126.098 186.562 126.136 186.674C126.537 187.84 126.907 189.016 127.405 190.147C127.667 190.742 127.973 191.308 128.445 191.766C128.662 191.976 128.802 192.233 128.908 192.507C129.474 193.952 129.314 195.326 128.485 196.626C128.006 197.38 127.302 197.635 126.436 197.479C124.51 197.131 122.71 196.448 121.045 195.415C119.99 194.766 118.949 194.11 117.907 193.457ZM144.883 180.079C144.806 180.065 144.714 180.019 144.652 180.043C144.295 180.188 143.938 180.337 143.637 180.585C143.446 180.658 143.249 180.721 143.063 180.805C141.942 181.313 140.819 181.816 139.705 182.338C138.878 182.724 138.022 183.015 137.147 183.268C136.665 183.408 136.255 183.359 135.821 183.066C134.772 182.36 133.632 181.82 132.413 181.46C131.875 181.302 131.333 181.182 130.77 181.217C129.98 181.265 130.072 181.348 130.031 181.912C130.006 182.263 129.965 182.616 129.98 182.965C130.026 184.131 129.963 184.324 131.32 184.629C133.193 185.05 135.051 184.941 136.851 184.241C139.203 183.327 141.459 182.208 143.663 180.982C144.172 180.818 144.596 180.544 144.87 180.068C144.903 180.037 144.938 180.004 144.971 179.973C144.948 179.965 144.918 179.947 144.9 179.956C144.835 179.984 144.832 180.03 144.883 180.079ZM125.844 194.161C125.782 194.099 125.723 194.034 125.657 193.977C124.375 192.856 123.091 191.737 121.809 190.615C121.699 190.518 121.596 190.413 121.49 190.312C120.813 189.669 120.343 188.911 120.146 187.985C120.067 187.614 119.927 187.253 119.819 186.888C119.523 185.879 118.99 185.009 118.269 184.254C116.905 182.827 115.282 182.23 113.317 182.726C112.975 182.813 112.746 182.982 112.604 183.307C112.371 183.846 112.113 184.373 111.871 184.908C111.812 185.037 111.733 185.169 111.849 185.338C112.593 185.289 113.347 185.276 114.1 185.472C115.558 185.853 116.821 186.57 117.898 187.608C119.019 188.687 120.126 189.783 121.214 190.897C122.328 192.036 123.583 193.003 124.855 193.952C125.089 194.126 125.359 194.247 125.612 194.395C125.719 194.587 125.927 194.643 126.1 194.742C126.629 195.045 127.191 195.295 127.658 195.7C127.758 195.786 127.875 195.784 127.941 195.654C127.998 195.54 127.973 195.426 127.873 195.343C127.807 195.288 127.734 195.238 127.658 195.196C127.054 194.85 126.449 194.505 125.844 194.161ZM136.393 152.008C135.987 152.079 135.95 152.416 135.873 152.728C135.56 154.006 135.233 155.28 134.812 156.524C134.474 157.522 134.099 158.505 133.766 159.505C132.766 162.503 131.772 165.503 130.658 168.461C130.307 169.391 129.971 170.326 129.612 171.255C129.43 171.725 129.335 172.201 129.346 172.71C129.36 173.471 129.621 174.208 129.548 174.977C129.529 175.179 129.697 175.263 129.892 175.3C130.494 175.418 131.096 175.521 131.717 175.486C132.708 175.433 133.709 175.596 134.687 175.311C135.196 175.381 135.672 175.183 136.156 175.094C136.753 174.986 137.347 174.795 137.841 174.401C138.33 174.321 138.545 174.014 138.536 173.538C138.531 173.243 138.555 172.936 138.477 172.661C138.338 172.168 138.334 171.67 138.349 171.174C138.384 169.909 138.093 168.663 138.154 167.398C137.968 166.77 138.007 166.119 137.976 165.476C137.97 165.36 137.941 165.244 137.926 165.128C137.836 164.373 137.693 163.619 137.67 162.864C137.643 161.893 137.391 160.945 137.444 159.972C137.448 159.915 137.443 159.853 137.426 159.798C137.193 159.002 137.253 158.169 137.148 157.357C137.034 156.462 136.952 155.553 136.897 154.647C136.851 153.89 136.788 153.131 136.733 152.372C136.698 151.899 136.586 151.434 136.509 150.966C136.481 150.966 136.452 150.967 136.424 150.967C136.413 151.315 136.404 151.66 136.393 152.008ZM115.562 177.75C116.295 177.949 117.045 178.105 117.76 178.355C119.585 178.993 121.411 179.644 123.118 180.572C123.324 180.684 123.534 180.796 123.752 180.879C124.272 181.074 124.561 180.958 124.831 180.458C125.14 179.89 125.383 179.293 125.635 178.699C126.335 177.054 126.941 175.372 127.568 173.699C127.969 172.629 128.327 171.541 128.774 170.492C129.588 168.575 130.211 166.588 130.93 164.636C131.285 163.672 131.586 162.691 131.91 161.717C132.713 159.298 133.641 156.921 134.377 154.48C134.715 153.361 135.022 152.238 135.198 151.074C135.343 150.12 135.569 149.181 135.531 148.207C135.529 148.148 135.527 148.085 135.547 148.032C135.764 147.464 135.687 146.872 135.704 146.288C135.711 146.023 135.665 145.74 135.746 145.499C135.902 145.036 135.875 144.571 135.876 144.104C135.882 143.133 135.876 142.163 135.882 141.194C135.884 140.961 135.862 140.711 135.935 140.496C136.064 140.121 136.051 139.744 136.053 139.363C136.057 138.716 136.051 138.069 136.057 137.422C136.058 137.217 136.035 136.996 136.103 136.812C136.251 136.41 136.222 136.002 136.228 135.593C136.237 134.976 136.163 134.345 136.272 133.746C136.373 133.189 136.395 132.643 136.408 132.086C136.411 131.91 136.384 131.719 136.444 131.563C136.61 131.134 136.575 130.695 136.586 130.257C136.59 130.083 136.575 129.892 136.636 129.735C136.781 129.364 136.751 128.984 136.761 128.605C136.764 128.429 136.733 128.237 136.79 128.079C136.976 127.565 136.93 127.035 136.935 126.51C136.941 126.129 136.93 125.75 137.068 125.379C137.125 125.227 137.09 125.03 137.062 124.861C137.053 124.8 136.944 124.745 136.869 124.71C136.821 124.688 136.751 124.699 136.698 124.714C135.623 125.013 134.536 125.223 133.413 125.206C133.299 125.205 133.178 125.236 133.072 125.28C132.818 125.383 132.553 125.366 132.288 125.37C132.053 125.374 131.801 125.326 131.586 125.394C130.836 125.627 130.072 125.519 129.313 125.548C128.991 125.561 128.662 125.499 128.351 125.618C128.066 125.727 127.776 125.721 127.482 125.721C125.072 125.721 122.662 125.723 120.253 125.721C120.047 125.721 119.824 125.75 119.64 125.681C119.21 125.519 118.773 125.556 118.334 125.548C118.069 125.543 117.789 125.598 117.543 125.53C116.617 125.273 115.676 125.403 114.74 125.375C114.536 125.37 114.315 125.359 114.13 125.427C113.757 125.563 113.378 125.545 112.998 125.55C112.733 125.554 112.452 125.499 112.207 125.572C111.455 125.8 110.693 125.697 109.933 125.73C109.676 125.741 109.404 125.662 109.149 125.848C109.228 126.805 109.498 127.73 109.772 128.649C110.143 129.888 110.659 131.072 111.25 132.221C111.612 132.925 112.007 133.612 112.38 134.309C112.865 135.213 113.325 136.132 113.834 137.024C114.573 138.321 115.352 139.597 116.104 140.887C117.003 142.433 117.887 143.986 118.782 145.532C118.909 145.753 118.973 146.155 119.258 146.096C119.65 146.016 119.414 145.604 119.46 145.339C119.481 145.227 119.477 145.095 119.436 144.99C119.247 144.508 119.304 144.006 119.291 143.508C119.286 143.273 119.317 143.021 119.242 142.81C119.1 142.407 119.124 141.999 119.115 141.589C119.109 141.384 119.15 141.163 119.087 140.975C118.903 140.43 118.949 139.873 118.938 139.317C118.935 139.141 118.962 138.95 118.902 138.794C118.725 138.338 118.78 137.867 118.76 137.4C118.749 137.167 118.745 136.926 118.681 136.706C118.604 136.445 118.589 136.187 118.587 135.923C118.585 135.599 118.541 135.287 118.475 134.967C118.352 134.369 118.289 133.755 118.242 133.143C118.203 132.649 118.236 132.154 118.096 131.662C118.012 131.364 118.076 131.02 118.096 130.7C118.1 130.64 118.207 130.555 118.277 130.539C118.346 130.524 118.466 130.563 118.503 130.618C118.582 130.737 118.624 130.881 118.674 131.018C119.137 132.292 119.273 133.634 119.466 134.963C119.55 135.54 119.595 136.125 119.686 136.7C119.824 137.564 119.993 138.424 119.997 139.305C119.997 139.452 119.971 139.61 120.019 139.742C120.231 140.341 120.159 140.961 120.175 141.575C120.181 141.751 120.15 141.942 120.208 142.1C120.389 142.586 120.339 143.086 120.35 143.582C120.357 143.847 120.306 144.13 120.383 144.37C120.662 145.253 120.48 146.172 120.672 147.071C120.87 148.006 120.953 148.982 120.885 149.953C120.878 150.067 120.885 150.195 120.929 150.3C121.083 150.668 121.05 151.05 121.054 151.431C121.058 152.019 121.056 152.607 121.058 153.195C121.059 153.546 121.089 153.89 121.166 154.239C121.286 154.781 121.304 155.348 121.137 155.894C121.065 156.125 121.052 156.353 121.058 156.588C121.006 156.658 120.925 156.719 120.905 156.796C120.412 158.665 119.927 160.537 119.438 162.408C118.951 164.279 118.514 166.165 117.962 168.018C117.185 170.631 116.325 173.221 115.497 175.82C115.328 176.352 115.139 176.877 114.97 177.409C114.896 177.638 114.961 177.728 115.207 177.76C115.326 177.774 115.446 177.754 115.562 177.75ZM132.005 73.1236C131.64 72.8589 131.2 72.7762 130.785 72.6567C127.436 71.6917 124.021 71.2285 120.534 71.3719C118.387 71.4601 116.291 71.791 114.264 72.5722C112.34 73.3129 110.648 74.3643 109.231 75.8587C109.075 75.9892 108.906 76.1068 108.763 76.2502C106.481 78.557 104.537 81.1359 102.811 83.8692C100.568 87.4186 98.392 91.0121 96.4491 94.7397C95.4859 96.5889 94.5117 98.4306 93.6717 100.342C92.3354 103.383 91.1939 106.496 90.1646 109.652C90.0194 110.095 89.865 110.535 89.7032 111.005C90.1756 111.132 90.6131 111.088 91.045 111.106C91.1921 111.224 91.3722 111.224 91.545 111.253C92.4163 111.398 93.2692 111.608 94.0945 111.93C95.326 112.411 96.5539 112.902 97.6935 113.586C97.7909 113.645 97.903 113.678 98.0078 113.722C98.2229 113.509 98.2927 113.248 98.3938 113.007C99.1621 111.194 99.9176 109.377 100.69 107.566C101.809 104.941 103.129 102.414 104.437 99.8809C104.682 99.4085 104.886 98.9251 105.042 98.4178C105.8 95.9768 106.553 93.5339 107.344 91.1021C107.61 90.2823 107.752 89.4552 107.81 88.6005C107.877 87.6336 107.95 86.6649 108.077 85.7054C108.27 84.2497 108.518 82.8031 108.729 81.3491C108.946 79.8529 109.388 78.4284 110.051 77.0737C110.097 76.9799 110.152 76.8329 110.301 76.9138C110.36 76.945 110.406 77.0516 110.409 77.127C110.419 77.3016 110.421 77.4818 110.389 77.6527C110.305 78.1159 110.204 78.5736 110.108 79.035C109.593 81.5403 109.246 84.0732 108.93 86.6098C108.867 87.1042 108.856 87.606 108.832 88.1042C108.823 88.3064 108.932 88.435 109.138 88.4626C109.253 88.4773 109.371 88.4828 109.489 88.4847C111.869 88.5398 114.247 88.6244 116.628 88.6409C119.039 88.6556 121.445 88.7604 123.85 88.9166C125.436 89.0195 127.02 89.0306 128.609 89.003C128.772 88.9993 128.962 89.0545 129.081 88.8725C129.127 88.6832 129.017 88.5306 128.954 88.3707C128.39 86.9498 127.816 85.5345 127.252 84.1136C127.122 83.7865 127.008 83.4519 126.907 83.1137C126.857 82.9464 126.846 82.7681 126.914 82.5954C126.956 82.4887 127.054 82.4722 127.127 82.4998C127.23 82.5402 127.34 82.6046 127.408 82.6891C127.761 83.1284 128.008 83.6302 128.219 84.1486C129.614 87.5472 131.009 90.9459 132.544 94.2839C133.441 96.2341 134.406 98.1513 135.579 99.9544C136.882 101.96 138.47 103.732 140.106 105.465C142.005 107.476 144.021 109.366 146.03 111.264C146.863 112.051 147.718 112.816 148.57 113.582C149.072 114.034 149.596 114.463 150.098 114.915C150.388 115.178 150.706 115.246 151.076 115.145C151.475 115.036 151.857 114.891 152.223 114.7C153.359 114.106 154.342 113.316 155.156 112.334C155.813 111.544 156.438 110.718 156.568 109.643C156.858 109.092 156.708 108.627 156.294 108.209C156.191 108.105 156.085 108.004 155.982 107.899C154.739 106.61 153.491 105.327 152.293 103.993C150.366 101.85 148.648 99.5409 146.885 97.2671C146.367 96.5981 145.925 95.8646 145.563 95.0871C143.984 91.7087 142.567 88.2604 141.148 84.814C140.141 82.3674 139.016 79.9797 137.761 77.6527C137.299 76.798 136.786 75.9855 136.073 75.3018C135.707 74.9507 135.279 74.697 134.873 74.4158C134 73.8147 133.046 73.3662 132.005 73.1236ZM122.146 1.04227C121.988 1.00367 121.824 1.02572 121.8 1.20218C121.763 1.4926 121.769 1.78854 121.769 2.08264C121.767 7.78628 121.767 13.4899 121.767 19.1954C121.767 22.0481 121.767 24.899 121.767 27.7518C121.767 28.0165 121.767 28.2812 121.784 28.544C121.797 28.7517 121.922 28.8455 122.138 28.8363C122.197 28.8344 122.256 28.8344 122.315 28.8234C123.784 28.5385 125.256 28.2757 126.715 27.9577C127.706 27.7426 127.598 27.7683 127.598 26.8732C127.598 20.6107 127.592 14.3483 127.592 8.08589C127.592 7.40947 127.601 6.73304 127.62 6.05846C127.636 5.45924 127.735 5.36917 128.362 5.35079C128.509 5.34711 128.656 5.35079 128.803 5.35079C153.64 5.34895 178.476 5.34711 203.313 5.34527C203.607 5.34527 203.901 5.33792 204.195 5.35079C204.543 5.36549 204.695 5.50151 204.631 5.85443C204.519 6.47019 204.543 7.07493 204.636 7.68518C204.658 7.82856 204.655 7.98296 204.625 8.12449C204.504 8.67776 204.539 9.23654 204.539 9.79349C204.537 11.8816 204.537 13.9678 204.537 16.0559C204.537 66.8336 204.537 117.609 204.537 168.387C204.537 168.652 204.53 168.917 204.548 169.181C204.572 169.53 204.682 169.646 205.054 169.646C206.463 169.644 207.873 169.626 209.283 169.613C209.517 169.624 209.752 169.648 209.985 169.644C210.187 169.643 210.314 169.519 210.325 169.317C210.34 169.053 210.336 168.788 210.336 168.523C210.333 161.994 210.325 155.467 210.325 148.938C210.325 117.797 210.322 86.6557 210.327 55.5145C210.331 38.8705 210.347 22.2264 210.358 5.58239C210.358 4.34718 210.368 3.11381 210.375 1.87861C210.38 0.933819 210.399 0.970581 209.45 0.972419C209.186 0.972419 208.921 0.972419 208.656 0.972419C192.371 0.974257 176.085 0.976095 159.798 0.977933C147.775 0.979771 135.751 0.981609 123.727 0.987124C123.201 0.987124 122.67 0.939333 122.146 1.04227ZM138.551 161.698C138.935 161.73 139.214 161.546 139.505 161.424C142.518 160.178 145.528 158.923 148.541 157.676C155.436 154.826 162.334 151.982 169.229 149.129C176.287 146.21 183.342 143.284 190.398 140.36C191.566 139.876 192.729 139.385 193.898 138.908C194.207 138.783 194.374 138.601 194.341 138.246C194.314 137.954 194.321 137.658 194.321 137.365C194.321 106.664 194.319 75.9616 194.321 45.2598C194.321 32.4665 194.326 19.6751 194.33 6.88193C194.33 6.31579 194.31 6.2919 193.749 6.27719C193.632 6.27352 193.514 6.27719 193.396 6.27719C172.729 6.28087 152.063 6.28271 131.395 6.28638C131.219 6.28638 131.042 6.28271 130.866 6.2919C130.586 6.3066 130.489 6.39667 130.471 6.65033C130.46 6.79738 130.463 6.94443 130.463 7.09147C130.46 8.85606 130.454 10.6188 130.454 12.3834C130.452 16.8242 130.452 21.2651 130.454 25.706C130.454 25.9707 130.452 26.2354 130.465 26.5C130.474 26.7133 130.599 26.7941 130.824 26.7555C130.91 26.7408 130.998 26.7243 131.083 26.7004C133.667 25.9523 136.147 24.9854 138.295 23.3091C138.477 23.1676 138.637 23.23 138.665 23.4543C138.904 25.3273 138.794 27.1526 137.908 28.8675C137.814 29.0495 137.713 29.2296 137.625 29.4153C137.549 29.5715 137.636 29.6947 137.819 29.6928C138.635 29.6873 139.38 29.452 140.049 28.9833C140.33 28.7866 140.584 28.5422 140.929 28.4595C141.095 28.7168 141.128 28.9833 141.157 29.2443C141.264 30.1836 141.258 31.1229 141.082 32.0548C140.766 33.733 140.086 35.2494 139.005 36.5747C138.755 36.8817 138.703 37.1206 138.865 37.514C140.242 40.8906 141.426 44.3333 142.249 47.8938C142.411 48.5904 142.7 49.2209 143.286 49.6859C143.631 49.9598 143.948 50.2668 144.271 50.5682C144.486 50.7686 144.703 50.9689 144.892 51.1913C145.55 51.967 145.525 52.5717 144.817 53.2776C144.692 53.4026 144.552 53.5092 144.418 53.625C144.269 53.7536 144.227 53.9062 144.282 54.0974C144.339 54.294 144.391 54.4944 144.429 54.6966C144.71 56.1671 145.074 57.6284 145.249 59.1136C145.582 61.9203 144.104 64.6242 141.635 65.8135C140.92 66.159 140.17 66.42 139.409 66.6406C137.485 67.1994 135.52 67.5468 133.524 67.7251C133.088 67.7637 132.652 67.8115 132.213 67.8538C131.888 69.1974 131.605 70.5006 131.38 71.8351C131.709 71.9509 131.987 72.0428 132.261 72.1439C133.638 72.6567 134.994 73.1916 136.123 74.1934C136.854 74.8422 137.538 75.5095 138.044 76.355C138.858 77.7189 139.6 79.1195 140.301 80.5459C141.402 82.7902 142.271 85.1356 143.258 87.4296C144.291 89.832 145.284 92.2528 146.394 94.6221C146.846 95.5871 147.438 96.462 148.048 97.3223C148.729 98.2799 149.489 99.1806 150.227 100.096C152.35 102.732 154.631 105.226 157.033 107.608C157.518 108.09 157.766 108.612 157.632 109.261C157.516 109.827 157.732 110.228 158.112 110.586C158.347 110.807 158.583 111.031 158.836 111.229C159.413 111.683 160.013 112.112 160.586 112.571C161.38 113.209 162.288 113.61 163.255 113.887C163.849 114.056 164.453 114.167 165.067 114.248C166.481 114.43 167.102 115.841 166.266 116.992C166.091 117.233 166.121 117.387 166.242 117.617C166.505 118.109 166.749 118.611 166.979 119.12C167.354 119.955 167.586 120.837 167.751 121.736C167.869 122.376 167.703 122.955 167.396 123.513C167.181 123.905 166.698 123.964 166.463 124.287C166.205 124.64 166.075 125.103 165.67 125.322C165.056 125.655 164.415 125.929 163.891 126.416C163.753 126.543 163.518 126.579 163.319 126.622C163.11 126.668 162.939 126.743 162.805 126.921C162.406 127.452 161.836 127.548 161.224 127.491C160.617 127.434 160.176 127.066 160.049 126.471C159.965 126.07 159.873 125.649 159.912 125.249C159.996 124.398 159.66 123.705 159.25 123.013C159.015 122.618 158.708 122.343 158.257 122.201C157.329 121.911 156.469 121.458 155.598 121.034C154.32 120.411 153.451 119.418 152.881 118.141C152.69 117.711 152.548 117.264 152.43 116.806C152.201 115.911 152.107 115.869 151.243 116.102C151.215 116.11 151.186 116.121 151.16 116.13C150.609 116.343 150.149 116.227 149.706 115.823C148.969 115.148 148.181 114.531 147.442 113.858C144.512 111.18 141.619 108.463 138.906 105.562C138.726 105.369 138.531 105.191 138.336 105.013C138.259 104.943 138.08 105.028 138.08 105.138C138.079 105.518 138.079 105.901 138.093 106.281C138.11 106.693 138.159 107.103 138.169 107.513C138.226 110.099 138.275 112.687 138.327 115.273C138.354 116.714 138.365 118.155 138.409 119.595C138.448 120.799 138.521 122.003 138.586 123.206C138.602 123.512 138.58 123.793 138.323 124.006C138.079 124.21 138.012 124.489 137.998 124.795C137.959 125.528 137.92 126.261 137.865 126.995C137.759 128.401 137.634 129.807 137.527 131.213C137.395 132.972 137.24 134.73 137.154 136.49C137.016 139.369 136.924 142.247 136.816 145.128C136.81 145.275 136.808 145.422 136.825 145.567C136.935 146.471 137.04 147.376 137.17 148.276C137.648 151.594 137.884 154.938 138.192 158.274C138.29 159.408 138.428 160.54 138.551 161.698ZM195.282 72.4325C195.282 94.1607 195.282 115.887 195.282 137.615C195.282 138.538 195.172 138.58 196.247 138.579C198.422 138.577 200.598 138.579 202.772 138.579C202.92 138.579 203.067 138.582 203.214 138.571C203.526 138.549 203.607 138.465 203.622 138.126C203.633 137.862 203.627 137.597 203.627 137.332C203.627 99.5813 203.629 61.8303 203.627 24.0793C203.627 18.4344 203.616 12.7896 203.613 7.14478C203.613 6.268 203.622 6.27719 202.73 6.27719C200.526 6.27903 198.321 6.27719 196.117 6.27903C195.94 6.27903 195.764 6.28271 195.587 6.2919C195.374 6.30293 195.273 6.43343 195.273 6.63379C195.271 7.07493 195.28 7.51608 195.28 7.95722C195.282 29.4465 195.282 50.9395 195.282 72.4325ZM123.464 124.705C126.223 124.635 128.397 124.662 130.566 124.495C131.941 124.388 133.316 124.254 134.684 124.083C135.555 123.975 136.424 123.824 137.259 123.519C137.511 123.427 137.652 123.286 137.628 123.002C137.586 122.477 137.531 121.949 137.518 121.422C137.444 118.455 137.376 115.488 137.318 112.522C137.286 110.965 137.275 109.406 137.261 107.849C137.257 107.522 137.216 107.209 137.088 106.904C136.509 105.522 135.935 104.14 135.373 102.752C135.283 102.53 135.152 102.419 134.917 102.423C134.77 102.427 134.623 102.425 134.476 102.427C130.07 102.491 125.664 102.445 121.26 102.267C120.556 102.239 119.85 102.248 119.146 102.206C117.652 102.12 116.159 102.02 114.667 101.907C113.672 101.829 112.678 101.73 111.687 101.618C110.608 101.497 109.533 101.344 108.456 101.212C108.11 101.169 108.027 101.236 108.002 101.568C107.954 102.184 107.902 102.798 107.873 103.414C107.794 105.145 107.724 106.877 107.651 108.606C107.63 109.077 107.651 109.551 107.594 110.014C107.423 111.387 107.382 112.768 107.351 114.146C107.296 116.586 107.34 119.025 107.279 121.464C107.261 122.214 107.557 122.622 108.2 122.868C108.391 122.942 108.584 123.015 108.777 123.085C109.913 123.495 111.09 123.76 112.281 123.933C114.722 124.289 117.183 124.467 119.642 124.616C121.109 124.71 122.581 124.688 123.464 124.705ZM130.528 71.5006C130.572 71.2928 130.592 71.0888 130.66 70.8995C130.789 70.5392 130.702 70.3113 130.366 70.0962C129.673 69.6533 129.002 69.1772 128.34 68.6864C127.366 67.964 126.366 67.306 125.133 67.1222C124.984 67.1001 124.848 67.0413 124.756 66.92C124.727 66.8814 124.719 66.806 124.734 66.7582C124.747 66.7123 124.802 66.6479 124.84 66.6461C124.986 66.6369 125.131 66.6479 125.276 66.6571C127.565 66.7785 129.853 66.8428 132.149 66.8079C134.788 66.7674 137.347 66.2987 139.854 65.5212C140.722 65.2528 141.565 64.8852 142.269 64.2823C143.867 62.9166 144.512 61.1594 144.295 59.0897C144.126 57.4813 143.823 55.8932 143.378 54.3363C143.063 53.2353 143.262 53.2426 143.856 52.875C143.881 52.8603 143.903 52.8419 143.927 52.8236C144.539 52.3365 144.556 52.1067 144.014 51.5497C143.911 51.445 143.799 51.3494 143.692 51.2501C143.324 50.9119 142.951 50.5792 142.589 50.2355C142.005 49.6786 141.56 49.0518 141.433 48.2154C141.347 47.6383 141.167 47.0721 141.003 46.5078C140.224 43.8279 139.293 41.1975 138.303 38.5893C138.137 38.1518 137.908 37.7382 137.689 37.3228C137.509 36.9809 137.242 36.7034 136.935 36.4699C136.588 36.2052 136.205 36.0986 135.777 36.2549C135.639 36.3045 135.5 36.3523 135.362 36.4038C133.676 37.0195 132.055 37.7805 130.472 38.6242C129.487 39.1499 128.533 39.7271 127.625 40.3814C127.147 40.7251 126.921 41.1571 126.927 41.7196C126.93 42.1883 126.945 42.6607 127 43.1257C127.232 45.0796 127.546 47.0243 127.702 48.9874C127.769 49.8091 127.804 50.6289 127.601 51.4413C127.467 51.9817 127.171 52.4008 126.708 52.7041C126.34 52.9449 126.096 52.932 125.743 52.6655C125.44 52.4339 125.155 52.1747 124.831 51.978C123.462 51.149 121.719 51.2593 120.444 52.2335C119.212 53.1746 118.67 54.8032 119.124 56.338C119.558 57.8048 120.536 58.7698 122.008 59.165C123.491 59.5639 124.793 59.1834 125.877 58.0805C126.206 57.746 126.552 57.4262 126.89 57.1008C126.997 56.9979 127.109 56.9133 127.265 56.8894C127.412 56.8674 127.576 57.0089 127.537 57.1468C127.522 57.2038 127.502 57.2589 127.478 57.3122C126.662 59.1007 125.283 60.0988 123.315 60.2422C122.225 60.3212 121.221 60.0381 120.304 59.4407C120.155 59.3433 120.019 59.1485 119.742 59.2661C119.771 59.4536 119.789 59.6264 119.826 59.7955C120.078 60.9131 120.286 62.038 120.458 63.1721C120.697 64.7382 120.19 65.9476 118.848 66.7876C118.087 67.2656 118.181 67.0744 117.988 68.0872C117.977 68.1442 117.953 68.2011 117.946 68.2581C117.858 68.9566 117.766 69.6569 117.69 70.3573C117.665 70.587 117.762 70.6569 118.008 70.6366C118.681 70.5797 119.354 70.5172 120.026 70.4657C122.622 70.2653 125.19 70.519 127.743 70.9583C128.667 71.1164 129.581 71.3149 130.528 71.5006ZM125.043 101.456C128.065 101.491 130.386 101.524 132.708 101.543C133.323 101.546 133.941 101.506 134.557 101.478C134.746 101.469 134.842 101.351 134.786 101.201C134.535 100.513 134.332 99.8037 133.97 99.1604C132.772 97.0337 131.717 94.8372 130.75 92.5983C130.436 91.8704 130.114 91.1444 129.814 90.411C129.677 90.0728 129.487 89.8871 129.09 89.9147C128.504 89.9551 127.916 89.9607 127.327 89.9625C125.739 89.9698 124.157 89.8779 122.572 89.7934C120.431 89.6776 118.288 89.5838 116.141 89.5655C114.907 89.5563 113.676 89.4607 112.442 89.4184C111.327 89.378 110.211 89.3541 109.093 89.3283C108.744 89.321 108.707 89.3504 108.665 89.729C108.625 90.0783 108.601 90.4312 108.584 90.7841C108.529 91.9881 108.498 93.192 108.426 94.396C108.329 96.0393 108.191 97.6789 108.09 99.3221C108.024 100.39 107.921 100.247 108.952 100.416C110.838 100.726 112.748 100.829 114.648 100.984C115.994 101.094 117.345 101.158 118.694 101.217C121.045 101.313 123.394 101.394 125.043 101.456ZM211.353 85.1338C211.353 112.748 211.353 140.363 211.353 167.977C211.353 168.301 211.347 168.624 211.358 168.948C211.369 169.279 211.487 169.345 211.816 169.229C212.23 169.084 212.266 169.038 212.283 168.6C212.29 168.365 212.285 168.13 212.285 167.895C212.285 158.63 212.285 149.366 212.285 140.104C212.285 94.1387 212.285 48.1731 212.283 2.20763C212.283 1.88412 212.275 1.56061 212.257 1.23894C212.25 1.11395 212.173 1.02389 212.038 1.00183C211.981 0.992638 211.923 0.983448 211.864 0.98161C211.478 0.968743 211.371 1.0533 211.356 1.40621C211.345 1.70031 211.351 1.99441 211.351 2.2885C211.353 29.9042 211.353 57.5181 211.353 85.1338ZM86.9203 123.491C86.9497 124.668 87.1299 125.675 87.4644 126.655C87.6372 127.16 87.9074 127.612 88.2217 128.041C88.4588 128.364 88.7713 128.603 89.172 128.614C89.933 128.634 90.1407 128.37 89.9275 127.743C89.8613 127.55 89.7639 127.366 89.672 127.184C89.3411 126.526 89.0967 125.835 88.8669 125.138C88.775 124.859 88.7015 124.574 88.7713 124.274C88.7879 124.203 88.8228 124.162 88.889 124.175C88.9423 124.184 89.0195 124.192 89.0415 124.228C89.1297 124.379 89.2051 124.537 89.2786 124.695C89.5341 125.256 89.7565 125.835 90.0506 126.375C90.4201 127.055 90.7546 127.732 90.6958 128.535C90.6866 128.656 90.7344 128.78 90.8465 128.833C91.1958 129 91.534 128.936 91.8465 128.73C92.0248 128.612 92.0284 128.392 91.8667 128.004C91.8207 127.895 91.7748 127.787 91.7123 127.688C91.2877 127.002 91.0855 126.234 90.9164 125.46C90.8557 125.184 90.6554 124.863 90.9642 124.592C91.2362 124.763 91.2619 125.074 91.3686 125.333C91.5928 125.875 91.7472 126.451 92.0174 126.967C92.3317 127.57 92.6791 128.144 92.692 128.851C92.6938 128.921 92.7674 129.022 92.8317 129.05C93.0927 129.164 93.3519 129.142 93.5706 128.945C93.771 128.765 93.9603 128.565 93.8279 128.261C93.6993 127.965 93.5688 127.671 93.4144 127.388C92.9879 126.607 92.703 125.778 92.5541 124.903C92.5247 124.73 92.5119 124.508 92.703 124.44C92.9328 124.357 92.9585 124.596 93.0173 124.743C93.1056 124.96 93.2011 125.177 93.2673 125.401C93.5908 126.506 94.2838 127.451 94.6367 128.542C94.668 128.642 94.8463 128.629 94.9216 128.539C95.1348 128.289 95.1404 128.006 95.0576 127.71C94.883 127.089 94.6882 126.473 94.5264 125.848C94.2911 124.932 94.1441 124.004 94.3518 123.059C94.4713 122.515 94.6165 121.977 94.7525 121.436C94.7948 121.271 94.8242 121.058 95.0576 121.104C95.2249 121.137 95.2212 121.324 95.2359 121.469C95.2451 121.558 95.269 121.651 95.247 121.732C95.0944 122.275 95.3131 122.688 95.6569 123.089C95.8646 123.33 96.0006 123.635 96.1679 123.909C96.3517 124.208 96.53 124.513 96.7266 124.806C96.8057 124.925 96.916 125.034 97.0318 125.116C97.2137 125.245 97.4251 125.245 97.6163 125.14C97.813 125.034 97.9104 124.846 97.8791 124.624C97.8516 124.421 97.7891 124.223 97.7339 124.024C97.3167 122.493 96.9638 120.951 96.8277 119.363C96.745 118.396 96.5281 117.444 96.0668 116.575C95.8811 116.225 95.7488 115.889 95.8186 115.488C95.8627 115.242 95.7745 115.032 95.6127 114.841C94.951 114.049 94.2268 113.323 93.3666 112.744C93.1203 112.579 92.8556 112.45 92.567 112.386C91.9365 112.246 91.3042 112.115 90.6701 111.996C90.3962 111.944 90.2639 112.016 90.2142 112.273C90.0598 113.062 89.6885 113.759 89.3577 114.477C88.2089 116.977 87.5177 119.615 87.0398 122.313C86.9663 122.747 86.9516 123.19 86.9203 123.491ZM160.847 124.96C160.812 125.374 160.891 125.78 160.945 126.188C160.961 126.311 161.031 126.403 161.136 126.467C161.54 126.715 162.081 126.486 162.167 126.024C162.193 125.881 162.198 125.732 162.193 125.585C162.13 124.103 161.869 122.668 161.169 121.341C161.075 121.163 160.913 121.01 160.922 120.786C160.924 120.732 160.946 120.663 160.983 120.633C161.02 120.606 161.106 120.595 161.139 120.618C161.255 120.705 161.371 120.799 161.459 120.911C161.887 121.449 162.15 122.072 162.316 122.732C162.536 123.616 162.737 124.504 162.812 125.416C162.841 125.78 162.996 125.857 163.327 125.717C163.685 125.567 163.897 125.322 163.908 124.918C163.92 124.416 163.9 123.916 163.772 123.429C163.509 122.436 163.286 121.429 162.705 120.55C162.595 120.383 162.478 120.205 162.492 119.982C162.498 119.894 162.518 119.806 162.614 119.782C162.663 119.771 162.742 119.786 162.775 119.821C163.354 120.459 163.825 121.161 164.064 121.999C164.299 122.819 164.52 123.642 164.601 124.493C164.635 124.874 164.836 124.841 165.066 124.666C165.556 124.296 165.74 123.791 165.646 123.19C165.52 122.37 165.249 121.598 164.908 120.845C164.617 120.205 164.369 119.545 164.113 118.889C164.091 118.832 164.152 118.705 164.209 118.668C164.27 118.63 164.391 118.633 164.455 118.67C164.698 118.806 164.821 119.052 164.933 119.286C165.481 120.42 166.126 121.519 166.299 122.8C166.306 122.857 166.317 122.922 166.349 122.968C166.393 123.032 166.457 123.083 166.514 123.14C166.575 123.078 166.656 123.025 166.694 122.951C166.792 122.765 166.801 122.561 166.804 122.352C166.821 121.662 166.632 121.015 166.428 120.368C165.771 118.282 164.61 116.565 162.783 115.323C162.272 114.975 161.77 114.615 161.285 114.235C159.991 113.222 158.616 112.305 157.441 111.143C157.268 110.972 157.16 110.99 157.035 111.228C156.675 111.902 156.311 112.573 155.976 113.259C155.303 114.632 154.667 116.021 153.978 117.383C153.758 117.819 153.822 118.154 154.076 118.525C154.533 119.192 155.09 119.738 155.818 120.106C156.658 120.53 157.498 120.964 158.397 121.243C159.242 121.506 159.84 121.999 160.206 122.795C160.279 122.955 160.375 123.104 160.457 123.26C160.741 123.795 160.911 124.35 160.847 124.96ZM130.232 179.339C130.232 179.456 130.226 179.574 130.232 179.691C130.256 180.191 130.311 180.25 130.79 180.27C131.169 180.287 131.542 180.296 131.923 180.379C133.461 180.717 134.871 181.357 136.217 182.147C136.582 182.362 136.9 182.423 137.292 182.291C137.904 182.083 138.505 181.859 139.089 181.579C140.227 181.037 141.385 180.539 142.527 180.004C143.218 179.68 143.896 179.328 144.574 178.98C144.78 178.875 144.859 178.71 144.784 178.467C144.424 177.306 144.231 176.885 142.832 176.905C142.744 176.907 142.655 176.899 142.567 176.907C142.308 176.929 142.025 176.828 141.799 177.004C141.619 177.146 141.707 177.39 141.65 177.581C141.643 177.609 141.63 177.636 141.617 177.662C141.532 177.833 141.398 177.932 141.203 177.938C141.001 177.942 140.865 177.85 140.815 177.653C140.738 177.342 140.676 177.026 140.595 176.717C140.586 176.681 140.51 176.651 140.461 176.637C140.395 176.616 140.339 176.651 140.332 176.721C140.304 176.982 140.293 177.245 140.26 177.504C140.238 177.679 140.053 177.791 139.865 177.767C139.672 177.743 139.525 177.642 139.472 177.464C139.422 177.298 139.42 177.118 139.4 176.944C139.349 176.458 139.117 176.05 138.823 175.683C138.573 175.37 138.233 175.409 138.031 175.743C137.955 175.868 137.897 176.004 137.83 176.135C137.619 176.554 137.413 176.975 137.132 177.355C136.669 177.984 135.933 178.159 135.277 177.769C135.077 177.649 134.867 177.526 134.706 177.363C134.369 177.021 134.003 176.989 133.579 177.155C132.759 177.473 131.943 177.804 131.11 178.083C130.132 178.412 130.235 178.55 130.232 179.339ZM114.65 181.66C115.187 181.669 115.65 181.645 116.109 181.807C118.095 182.504 119.571 183.761 120.409 185.706C120.686 186.349 120.953 187 121.096 187.698C121.201 188.213 121.381 188.731 121.741 189.13C122.153 189.586 122.605 190.011 123.065 190.421C123.677 190.966 124.352 191.446 124.929 192.023C125.807 192.906 126.774 193.648 127.875 194.225C127.984 194.282 128.109 194.35 128.189 194.258C128.256 194.185 128.28 194.04 128.269 193.931C128.195 193.306 127.952 192.755 127.539 192.27C126.998 191.639 126.609 190.919 126.333 190.136C126.168 189.665 125.978 189.204 125.815 188.733C125.71 188.434 125.603 188.248 125.199 188.309C124.848 188.362 124.649 187.921 124.839 187.619C124.87 187.571 124.914 187.529 124.958 187.492C125.092 187.38 125.261 187.277 125.23 187.073C125.203 186.902 125.144 186.731 125.068 186.575C125.041 186.516 124.929 186.472 124.852 186.47C124.769 186.469 124.688 186.54 124.602 186.548C124.227 186.583 123.978 186.292 124.096 185.939C124.149 185.776 124.282 185.64 124.339 185.476C124.425 185.232 124.587 184.989 124.513 184.719C124.414 184.351 124.289 183.989 124.149 183.636C124.063 183.414 123.833 183.39 123.642 183.563C123.512 183.68 123.396 183.814 123.269 183.938C123.162 184.039 123.058 184.145 122.938 184.226C122.53 184.505 122.214 184.502 121.802 184.215C121.453 183.972 121.24 183.629 121.085 183.235C120.541 181.851 119.611 180.776 118.378 179.973C117.413 179.344 116.387 179.219 115.28 179.668C114.757 179.879 114.36 180.164 114.135 180.669C114.007 180.958 113.611 181.23 113.751 181.506C113.935 181.86 114.393 181.594 114.65 181.66ZM112.735 186.193C112.617 186.193 112.499 186.187 112.382 186.195C112.264 186.202 112.148 186.215 112.031 186.233C111.733 186.279 111.643 186.465 111.805 186.728C111.911 186.902 112.034 187.07 112.159 187.231C112.939 188.235 113.827 189.138 114.825 189.917C117.001 191.619 119.238 193.237 121.609 194.665C122.754 195.356 123.989 195.806 125.236 196.249C125.565 196.367 125.918 196.431 126.263 196.488C126.451 196.519 126.739 196.637 126.82 196.42C126.93 196.124 126.576 196.086 126.403 195.955C126.309 195.885 126.193 195.848 126.094 195.788C125.414 195.38 124.701 195.016 124.061 194.553C122.175 193.187 120.462 191.617 118.891 189.904C118.152 189.099 117.37 188.345 116.525 187.665C115.426 186.783 114.168 186.241 112.735 186.193ZM129.507 8.29176C129.166 8.6943 129.088 9.07663 128.888 9.38359C128.585 9.8468 128.524 10.3504 128.524 10.8927C128.535 16.0872 128.53 21.2817 128.531 26.4761C128.531 26.7114 128.53 26.9467 128.552 27.1801C128.563 27.3033 128.651 27.3952 128.789 27.3805C129.364 27.3143 129.507 27.1618 129.522 26.6195C129.524 26.5313 129.522 26.4431 129.522 26.3548C129.522 20.6034 129.522 14.8501 129.522 9.09869C129.522 8.87628 129.515 8.65386 129.507 8.29176ZM120.62 180.568C121.247 181.311 121.695 182.131 122.056 183.002C122.1 183.109 122.168 183.208 122.241 183.298C122.33 183.406 122.447 183.408 122.545 183.311C122.909 182.943 123.035 182.45 123.223 181.991C123.285 181.838 123.17 181.715 123.035 181.634C122.284 181.184 121.495 180.813 120.62 180.568ZM129.972 31.3692C130.077 31.349 130.222 31.3379 130.355 31.2883C131.426 30.8858 132.426 30.3509 133.312 29.6211C133.557 29.419 133.761 29.1653 133.97 28.9245C134.018 28.8694 134.06 28.7609 133.941 28.7113C133.891 28.6911 133.821 28.68 133.776 28.7003C133.671 28.748 133.571 28.8124 133.48 28.8822C132.588 29.5458 131.64 30.1138 130.647 30.61C130.362 30.7516 130.059 30.8766 129.859 31.1413C129.833 31.1762 129.849 31.2515 129.86 31.3048C129.862 31.3232 129.906 31.3343 129.972 31.3692ZM130.84 29.5734C130.684 29.5384 130.553 29.5991 130.419 29.6616C129.627 30.0366 128.831 30.406 128.039 30.7847C127.855 30.8729 127.686 30.9924 127.509 31.0953C127.406 31.156 127.283 31.2387 127.355 31.3582C127.417 31.4629 127.565 31.4225 127.679 31.3912C128.849 31.0751 129.901 30.4998 130.934 29.8858C131.013 29.838 131.028 29.7369 130.982 29.6561C130.956 29.6156 130.886 29.5991 130.84 29.5734ZM111.716 43.7102C111.716 43.8279 111.709 43.9455 111.718 44.0631C111.737 44.2911 111.698 44.5502 111.952 44.6863C112.088 44.7598 112.233 44.4694 112.227 44.0521C112.218 43.1882 112.356 42.3592 112.716 41.5707C112.74 41.521 112.74 41.4585 112.742 41.3997C112.742 41.374 112.727 41.3317 112.707 41.3244C112.661 41.306 112.599 41.2839 112.56 41.3023C112.36 41.3924 112.262 41.5743 112.174 41.7618C111.885 42.3776 111.707 43.0209 111.716 43.7102ZM110.084 44.3131C110.084 44.4289 110.066 44.5484 110.088 44.6605C110.152 44.9914 110.066 45.3719 110.391 45.62C110.801 45.4013 110.617 45.0098 110.634 44.6936C110.667 44.1146 110.617 43.5301 110.847 42.9768C110.869 42.9254 110.875 42.8592 110.864 42.8059C110.852 42.7581 110.81 42.714 110.772 42.6772C110.757 42.6643 110.713 42.6735 110.687 42.6827C110.516 42.7489 110.404 42.8849 110.325 43.0412C110.128 43.4419 110.077 43.8738 110.084 44.3131ZM136.198 31.0604C136.13 30.8913 135.978 30.8655 135.836 30.8858C135.016 31.0034 134.242 31.2607 133.524 31.6743C133.461 31.7111 133.441 31.7644 133.491 31.8195C133.526 31.8581 133.586 31.8967 133.632 31.8949C134.07 31.8728 135.641 31.3563 136.198 31.0604ZM163.955 114.972C164.503 115.523 164.908 115.935 165.319 116.341C165.417 116.439 165.63 116.376 165.681 116.236C165.72 116.13 165.766 116.007 165.744 115.904C165.657 115.507 165.442 115.211 165.014 115.132C164.731 115.078 164.444 115.043 163.955 114.972ZM136.803 176.052C136.296 176.001 135.963 176.184 135.623 176.326C135.49 176.381 135.321 176.436 135.331 176.6C135.334 176.686 135.454 176.785 135.544 176.848C135.983 177.159 136.183 177.124 136.465 176.688C136.571 176.523 136.652 176.337 136.803 176.052ZM136.5 150.205C136.472 150.247 136.426 150.289 136.424 150.333C136.422 150.379 136.463 150.427 136.485 150.473C136.512 150.431 136.558 150.388 136.56 150.344C136.564 150.298 136.523 150.251 136.5 150.205Z" fill="black"/>
<path d="M129.058 183.923C129.091 183.971 129.142 184.013 129.155 184.066C129.313 184.779 129.802 185.162 130.458 185.369C131.764 185.781 133.118 185.961 134.46 185.772C135.556 185.618 136.644 185.316 137.682 184.89C139.204 184.267 140.71 183.605 142.176 182.859C142.752 182.566 143.32 182.254 143.893 181.958C144.498 181.645 145.031 181.234 145.562 180.815C145.819 180.612 145.935 180.37 145.944 180.063C145.954 179.771 145.943 179.478 145.941 179.186C146.408 179.287 146.799 179.563 147.218 179.765C147.661 179.978 147.735 180.298 147.597 180.804C147.443 181.366 147.055 181.778 146.693 182.191C145.935 183.053 145.042 183.776 144.138 184.476C142.211 185.967 140.188 187.32 138.153 188.656C136.532 189.72 134.989 190.9 133.73 192.393C132.99 193.27 132.172 194.067 131.378 194.893C130.458 195.847 129.44 196.685 128.402 197.503C127.799 197.979 127.124 198.335 126.404 198.602C125.053 199.1 123.668 199.455 122.244 199.694C121.43 199.83 120.612 199.852 119.799 199.955C118.711 200.093 117.634 199.929 116.687 199.275C116.425 199.093 116.125 198.966 115.846 198.808C115.412 198.56 115.149 198.188 115.062 197.696C115.048 197.609 115.042 197.517 115.011 197.437C114.722 196.709 114.982 196.137 115.482 195.598C116.062 194.97 116.693 194.406 117.401 193.928C117.594 193.797 117.816 193.698 117.91 193.461C118.952 194.113 119.992 194.769 121.038 195.418C122.703 196.45 124.503 197.135 126.429 197.483C127.293 197.639 127.997 197.381 128.479 196.63C129.308 195.33 129.468 193.955 128.902 192.51C128.795 192.237 128.655 191.981 128.438 191.77C127.966 191.312 127.659 190.746 127.398 190.15C126.9 189.02 126.53 187.844 126.13 186.678C126.091 186.566 126.064 186.456 126.17 186.36C126.187 186.305 126.185 186.231 126.22 186.2C126.986 185.531 127.753 184.858 128.532 184.206C128.675 184.075 128.834 183.923 129.058 183.923Z" fill="#CCCCCC"/>
<path d="M138.551 161.698C138.426 160.542 138.29 159.408 138.184 158.27C137.875 154.934 137.64 151.592 137.162 148.273C137.031 147.372 136.928 146.466 136.816 145.563C136.798 145.418 136.802 145.271 136.807 145.124C136.916 142.246 137.007 139.365 137.145 136.487C137.23 134.726 137.384 132.969 137.518 131.21C137.625 129.803 137.75 128.397 137.857 126.991C137.912 126.26 137.95 125.524 137.989 124.791C138.006 124.486 138.07 124.206 138.314 124.002C138.572 123.787 138.594 123.508 138.577 123.203C138.513 121.999 138.437 120.797 138.401 119.591C138.355 118.152 138.346 116.711 138.318 115.27C138.268 112.683 138.217 110.095 138.16 107.509C138.151 107.097 138.101 106.687 138.085 106.278C138.07 105.897 138.07 105.515 138.072 105.134C138.072 105.024 138.25 104.939 138.327 105.009C138.522 105.188 138.717 105.366 138.897 105.559C141.61 108.459 144.503 111.176 147.433 113.854C148.17 114.529 148.961 115.145 149.698 115.819C150.139 116.224 150.6 116.339 151.152 116.126C151.179 116.115 151.207 116.106 151.234 116.099C152.098 115.865 152.192 115.907 152.422 116.803C152.539 117.26 152.681 117.709 152.872 118.137C153.442 119.414 154.313 120.407 155.589 121.03C156.46 121.455 157.32 121.907 158.249 122.197C158.699 122.339 159.006 122.613 159.241 123.01C159.653 123.701 159.987 124.394 159.903 125.245C159.862 125.644 159.954 126.067 160.041 126.467C160.168 127.061 160.609 127.43 161.215 127.487C161.827 127.544 162.395 127.449 162.796 126.918C162.93 126.739 163.101 126.664 163.311 126.618C163.509 126.574 163.746 126.539 163.882 126.412C164.406 125.925 165.048 125.649 165.662 125.318C166.068 125.1 166.198 124.637 166.454 124.284C166.689 123.96 167.174 123.899 167.388 123.51C167.695 122.951 167.86 122.372 167.742 121.732C167.577 120.833 167.345 119.953 166.97 119.117C166.742 118.608 166.496 118.106 166.233 117.613C166.11 117.383 166.083 117.229 166.257 116.988C167.094 115.838 166.472 114.428 165.059 114.244C164.445 114.165 163.84 114.055 163.246 113.884C162.278 113.606 161.372 113.205 160.577 112.568C160.004 112.108 159.407 111.68 158.828 111.226C158.574 111.027 158.339 110.803 158.103 110.582C157.721 110.224 157.508 109.823 157.624 109.257C157.756 108.608 157.51 108.086 157.024 107.605C154.622 105.224 152.341 102.73 150.218 100.092C149.481 99.1769 148.72 98.2763 148.04 97.3186C147.43 96.4602 146.838 95.5834 146.385 94.6184C145.275 92.2491 144.283 89.8283 143.25 87.4259C142.264 85.132 141.393 82.7865 140.292 80.5422C139.594 79.1177 138.851 77.7152 138.035 76.3513C137.529 75.5058 136.846 74.8386 136.114 74.1897C134.986 73.1879 133.629 72.653 132.252 72.1402C131.978 72.0391 131.701 71.9454 131.372 71.8314C131.596 70.4969 131.879 69.1956 132.204 67.8501C132.644 67.806 133.079 67.76 133.515 67.7214C135.511 67.5413 137.476 67.1957 139.401 66.6369C140.163 66.4164 140.912 66.1535 141.627 65.8098C144.095 64.6205 145.573 61.9167 145.24 59.1099C145.064 57.6265 144.702 56.1652 144.421 54.6929C144.382 54.4907 144.33 54.2904 144.273 54.0937C144.218 53.9025 144.261 53.75 144.41 53.6213C144.544 53.5055 144.683 53.3989 144.808 53.2739C145.516 52.5681 145.542 51.9633 144.884 51.1876C144.694 50.9652 144.478 50.763 144.262 50.5645C143.939 50.2649 143.623 49.9561 143.277 49.6822C142.691 49.2172 142.402 48.5886 142.241 47.8901C141.417 44.3297 140.233 40.8887 138.857 37.5103C138.695 37.1151 138.746 36.8762 138.996 36.571C140.075 35.2458 140.755 33.7293 141.073 32.0511C141.25 31.1192 141.255 30.1799 141.149 29.2407C141.119 28.9796 141.086 28.715 140.921 28.4558C140.575 28.5367 140.322 28.783 140.04 28.9796C139.371 29.4484 138.627 29.6836 137.811 29.6892C137.627 29.691 137.54 29.5678 137.616 29.4116C137.704 29.226 137.803 29.0458 137.899 28.8638C138.785 27.1471 138.893 25.3237 138.656 23.4506C138.627 23.2264 138.469 23.1639 138.287 23.3054C136.138 24.9799 133.658 25.9486 131.074 26.6967C130.989 26.7206 130.903 26.7372 130.815 26.7519C130.591 26.7905 130.467 26.7077 130.456 26.4964C130.444 26.2317 130.445 25.967 130.445 25.7023C130.445 21.2614 130.445 16.8206 130.445 12.3797C130.445 10.6151 130.451 8.85238 130.455 7.0878C130.455 6.94075 130.451 6.79371 130.462 6.64666C130.48 6.39116 130.578 6.30293 130.857 6.28823C131.034 6.27904 131.21 6.28271 131.387 6.28271C152.054 6.27904 172.72 6.2772 193.388 6.27352C193.505 6.27352 193.623 6.27168 193.741 6.27352C194.301 6.28639 194.321 6.31212 194.321 6.87826C194.318 19.6715 194.314 32.4629 194.312 45.2561C194.31 75.958 194.312 106.66 194.312 137.362C194.312 137.656 194.305 137.952 194.332 138.242C194.366 138.597 194.196 138.777 193.889 138.904C192.72 139.382 191.557 139.873 190.39 140.356C183.333 143.28 176.279 146.207 169.22 149.126C162.326 151.978 155.427 154.822 148.532 157.673C145.52 158.919 142.509 160.174 139.496 161.421C139.215 161.546 138.937 161.73 138.551 161.698Z" fill="#D6E3F2"/>
<path d="M209.282 169.611C207.873 169.624 206.463 169.643 205.053 169.644C204.682 169.644 204.571 169.531 204.547 169.179C204.529 168.917 204.536 168.65 204.536 168.385C204.536 117.608 204.536 66.8318 204.536 16.0541C204.536 13.9661 204.535 11.8798 204.538 9.79171C204.538 9.23477 204.505 8.67598 204.625 8.12271C204.656 7.98118 204.658 7.82678 204.636 7.6834C204.542 7.07315 204.518 6.46842 204.63 5.85265C204.694 5.49973 204.542 5.36555 204.194 5.34901C203.9 5.33614 203.606 5.3435 203.312 5.3435C178.476 5.34533 153.639 5.34717 128.803 5.34901C128.656 5.34901 128.509 5.34533 128.362 5.34901C127.737 5.36739 127.636 5.45562 127.619 6.05668C127.601 6.7331 127.591 7.40953 127.591 8.08411C127.591 14.3465 127.597 20.609 127.597 26.8714C127.597 27.7666 127.705 27.7408 126.715 27.9559C125.253 28.2739 123.781 28.5367 122.314 28.8216C122.257 28.8327 122.197 28.8327 122.138 28.8345C121.921 28.8437 121.796 28.7499 121.783 28.5422C121.766 28.2794 121.766 28.0129 121.766 27.75C121.765 24.8973 121.766 22.0464 121.766 19.1936C121.766 13.49 121.766 7.78634 121.768 2.08086C121.768 1.78676 121.763 1.49082 121.8 1.2004C121.822 1.02578 121.987 1.00373 122.145 1.04049C122.123 1.20592 121.958 1.35664 122.088 1.53862C122.195 1.68566 122.334 1.80147 122.518 1.82168C122.752 1.84558 122.987 1.84742 123.222 1.84742C124.84 1.85293 126.455 1.85477 128.073 1.85845C128.308 1.85845 128.556 1.82536 128.775 1.88786C129.325 2.04777 129.882 2.00917 130.439 2.00917C142.875 2.01469 155.31 2.01652 167.747 2.01836C181.152 2.0202 194.559 2.02204 207.964 2.02571C208.259 2.02571 208.553 2.02204 208.847 2.03674C209.132 2.05145 209.247 2.14335 209.247 2.39517C209.249 3.06976 209.321 3.7517 209.187 4.41709C209.122 4.73876 209.099 5.05491 209.099 5.37842C209.099 9.67224 209.099 13.9661 209.1 18.2599C209.1 18.4951 209.071 18.7433 209.137 18.962C209.268 19.3977 209.247 19.8351 209.247 20.2744C209.255 29.215 209.26 38.1555 209.264 47.0961C209.269 64.9184 209.273 82.7406 209.277 100.561C209.277 101 209.251 101.438 209.383 101.873C209.45 102.09 209.422 102.34 209.422 102.574C209.424 109.897 209.424 117.22 209.42 124.543C209.42 124.806 209.417 125.076 209.352 125.328C209.271 125.649 209.275 125.969 209.275 126.291C209.269 140.466 209.264 154.642 209.26 168.815C209.262 169.082 209.275 169.347 209.282 169.611Z" fill="#212492"/>
<path d="M195.282 72.4325C195.282 50.9395 195.282 29.4484 195.282 7.9554C195.282 7.51425 195.271 7.07311 195.274 6.63196C195.276 6.43161 195.375 6.3011 195.589 6.29007C195.765 6.28088 195.941 6.27721 196.118 6.27721C198.322 6.27721 200.528 6.27721 202.731 6.27537C203.623 6.27353 203.614 6.26434 203.614 7.14295C203.617 12.7878 203.628 18.4326 203.628 24.0774C203.63 61.8285 203.628 99.5795 203.628 137.331C203.628 137.595 203.634 137.86 203.623 138.125C203.608 138.463 203.527 138.547 203.215 138.569C203.068 138.58 202.921 138.577 202.774 138.577C200.599 138.577 198.423 138.577 196.248 138.577C195.173 138.577 195.283 138.534 195.283 137.614C195.282 115.887 195.282 94.1589 195.282 72.4325Z" fill="#3E3E3E"/>
<path d="M109.229 75.8586C110.648 74.3661 112.337 73.3147 114.262 72.5721C116.291 71.7909 118.385 71.46 120.532 71.3718C124.019 71.2284 127.434 71.6916 130.783 72.6566C131.2 72.7761 131.639 72.8588 132.003 73.1235C132.084 73.3569 132.277 73.5022 132.441 73.6676C133.06 74.2925 133.726 74.866 134.373 75.4597C135.702 76.6766 136.777 78.0937 137.453 79.7885C137.604 80.1671 137.836 80.5127 138.038 80.8711C138.411 81.5365 138.771 82.2093 139.051 82.9206C139.554 84.2018 140.049 85.4866 140.565 86.7622C141.115 88.1206 141.679 89.4716 142.245 90.8208C142.607 91.6847 142.971 92.5504 143.365 93.3996C143.734 94.1992 144.146 94.9786 144.537 95.7671C144.927 96.552 145.484 97.2303 145.894 98.0096C146.398 98.9636 147.092 99.8073 147.863 100.583C148.543 101.267 149.157 102.013 149.747 102.78C150.228 103.406 150.712 104.031 151.23 104.629C151.748 105.224 152.281 105.814 152.783 106.419C153.61 107.419 154.577 108.274 155.461 109.211C155.757 109.525 156.121 109.693 156.566 109.643C156.435 110.718 155.809 111.544 155.154 112.334C154.34 113.316 153.357 114.106 152.221 114.7C151.855 114.891 151.473 115.036 151.074 115.144C150.704 115.246 150.386 115.176 150.096 114.915C149.594 114.463 149.07 114.034 148.568 113.582C147.715 112.816 146.863 112.051 146.028 111.264C144.019 109.367 142.003 107.476 140.104 105.465C138.468 103.732 136.88 101.96 135.577 99.9543C134.404 98.1512 133.439 96.234 132.542 94.2838C131.007 90.9458 129.612 87.5471 128.217 84.1485C128.004 83.6301 127.757 83.1283 127.406 82.689C127.338 82.6045 127.228 82.5383 127.125 82.4997C127.051 82.4721 126.954 82.4868 126.912 82.5953C126.844 82.768 126.855 82.9482 126.904 83.1136C127.006 83.45 127.119 83.7845 127.25 84.1135C127.814 85.5344 128.388 86.9497 128.952 88.3706C129.015 88.5287 129.125 88.6831 129.079 88.8724C128.959 89.0544 128.77 89.0011 128.607 89.0029C127.02 89.0323 125.434 89.0194 123.848 88.9165C121.443 88.7603 119.037 88.6573 116.626 88.6408C114.245 88.6261 111.867 88.5415 109.487 88.4846C109.369 88.4827 109.251 88.4772 109.135 88.4625C108.93 88.4349 108.819 88.3063 108.83 88.1041C108.854 87.6059 108.867 87.1041 108.928 86.6097C109.244 84.0731 109.591 81.542 110.106 79.0348C110.2 78.5735 110.303 78.1158 110.387 77.6526C110.418 77.4817 110.417 77.3015 110.407 77.1269C110.404 77.0515 110.358 76.9468 110.299 76.9137C110.15 76.8328 110.095 76.9798 110.049 77.0736C109.385 78.4301 108.944 79.8546 108.727 81.349C108.516 82.8011 108.268 84.2496 108.075 85.7053C107.948 86.6648 107.875 87.6335 107.808 88.6004C107.75 89.4551 107.608 90.2822 107.341 91.102C106.553 93.5338 105.799 95.9767 105.04 98.4177C104.882 98.925 104.678 99.4084 104.435 99.8808C103.127 102.414 101.807 104.941 100.688 107.566C99.9155 109.376 99.16 111.194 98.3917 113.007C98.2906 113.246 98.2226 113.509 98.0057 113.722C97.9009 113.678 97.7888 113.645 97.6914 113.586C96.5518 112.902 95.3258 112.409 94.0924 111.93C93.2671 111.608 92.4142 111.398 91.5429 111.253C91.3702 111.224 91.19 111.224 91.043 111.106C91.1643 110.715 91.3077 110.329 91.4032 109.932C91.6165 109.046 91.9308 108.195 92.2414 107.344C92.7028 106.079 93.1954 104.825 93.6678 103.564C94.1825 102.193 94.6512 100.805 95.3515 99.5113C95.8533 98.5831 96.3441 97.6493 96.8404 96.7193C96.9084 96.5906 96.9892 96.4674 97.0646 96.3425C97.4102 95.7635 97.7135 95.1642 97.9616 94.5338C98.4358 93.3335 99.002 92.1828 99.7243 91.1057C101.028 89.1591 102.307 87.1979 103.586 85.2348C104.785 83.3948 105.983 81.5549 107.152 79.6966C107.823 78.6323 108.433 77.5294 109.073 76.4468C109.183 76.263 109.244 76.0718 109.229 75.8586Z" fill="#D52B1E"/>
<path d="M121.061 156.59C121.056 156.355 121.069 156.127 121.14 155.895C121.308 155.351 121.289 154.783 121.17 154.241C121.093 153.89 121.063 153.548 121.061 153.197C121.058 152.609 121.061 152.021 121.058 151.432C121.056 151.052 121.089 150.67 120.933 150.302C120.889 150.199 120.881 150.07 120.889 149.955C120.957 148.982 120.874 148.008 120.675 147.072C120.484 146.174 120.666 145.253 120.387 144.372C120.31 144.13 120.359 143.847 120.354 143.584C120.341 143.087 120.391 142.588 120.212 142.102C120.153 141.944 120.185 141.753 120.179 141.577C120.163 140.963 120.234 140.343 120.023 139.744C119.977 139.612 120.003 139.452 120.001 139.306C119.997 138.426 119.828 137.566 119.69 136.702C119.598 136.125 119.552 135.542 119.47 134.965C119.277 133.636 119.141 132.296 118.677 131.02C118.628 130.884 118.584 130.739 118.506 130.62C118.47 130.564 118.35 130.526 118.28 130.541C118.209 130.555 118.104 130.642 118.1 130.702C118.08 131.024 118.016 131.366 118.1 131.664C118.24 132.158 118.207 132.651 118.245 133.145C118.293 133.755 118.356 134.369 118.479 134.969C118.545 135.288 118.589 135.601 118.591 135.924C118.593 136.189 118.608 136.446 118.685 136.707C118.751 136.928 118.753 137.169 118.764 137.402C118.784 137.869 118.729 138.34 118.905 138.796C118.966 138.952 118.937 139.145 118.942 139.319C118.955 139.874 118.909 140.431 119.091 140.977C119.153 141.163 119.115 141.385 119.119 141.591C119.128 142.001 119.102 142.407 119.245 142.812C119.321 143.025 119.288 143.277 119.295 143.51C119.308 144.007 119.253 144.508 119.44 144.992C119.481 145.097 119.484 145.229 119.464 145.341C119.418 145.606 119.653 146.017 119.262 146.098C118.977 146.157 118.915 145.755 118.786 145.534C117.891 143.988 117.007 142.435 116.108 140.889C115.356 139.597 114.577 138.323 113.838 137.025C113.329 136.134 112.869 135.215 112.384 134.311C112.009 133.612 111.615 132.926 111.253 132.222C110.661 131.074 110.147 129.89 109.775 128.651C109.5 127.73 109.231 126.806 109.152 125.85C109.408 125.664 109.68 125.743 109.937 125.732C110.696 125.699 111.461 125.802 112.211 125.574C112.454 125.5 112.737 125.557 113.001 125.552C113.382 125.546 113.76 125.567 114.134 125.429C114.319 125.361 114.54 125.372 114.744 125.377C115.679 125.405 116.621 125.276 117.547 125.532C117.793 125.6 118.073 125.545 118.337 125.55C118.777 125.557 119.214 125.523 119.644 125.682C119.828 125.75 120.05 125.723 120.256 125.723C122.666 125.725 125.076 125.725 127.486 125.723C127.78 125.723 128.07 125.728 128.355 125.62C128.666 125.5 128.995 125.563 129.316 125.55C130.075 125.521 130.84 125.629 131.59 125.396C131.805 125.33 132.057 125.377 132.292 125.372C132.555 125.366 132.82 125.383 133.075 125.282C133.182 125.239 133.303 125.206 133.417 125.208C134.54 125.223 135.627 125.015 136.702 124.716C136.757 124.701 136.827 124.69 136.873 124.712C136.946 124.747 137.055 124.802 137.066 124.863C137.093 125.034 137.128 125.228 137.071 125.381C136.933 125.752 136.945 126.129 136.939 126.511C136.932 127.037 136.979 127.567 136.794 128.081C136.737 128.239 136.768 128.43 136.764 128.607C136.755 128.987 136.785 129.368 136.639 129.737C136.579 129.894 136.593 130.085 136.59 130.259C136.579 130.699 136.614 131.138 136.448 131.564C136.388 131.721 136.417 131.914 136.411 132.088C136.399 132.643 136.377 133.191 136.275 133.748C136.167 134.347 136.239 134.978 136.231 135.595C136.226 136.005 136.255 136.413 136.106 136.814C136.038 136.998 136.062 137.22 136.06 137.424C136.055 138.071 136.06 138.718 136.057 139.365C136.055 139.746 136.068 140.123 135.939 140.498C135.866 140.711 135.888 140.961 135.886 141.196C135.88 142.167 135.886 143.137 135.88 144.106C135.878 144.573 135.904 145.04 135.75 145.501C135.669 145.742 135.715 146.025 135.707 146.289C135.691 146.874 135.768 147.466 135.551 148.034C135.531 148.087 135.533 148.15 135.535 148.208C135.573 149.183 135.347 150.122 135.202 151.076C135.026 152.239 134.719 153.364 134.38 154.482C133.643 156.923 132.715 159.3 131.914 161.719C131.59 162.693 131.289 163.674 130.934 164.637C130.215 166.59 129.592 168.575 128.778 170.494C128.331 171.543 127.973 172.631 127.572 173.701C126.945 175.376 126.339 177.056 125.638 178.701C125.385 179.294 125.142 179.892 124.835 180.46C124.565 180.96 124.276 181.076 123.756 180.881C123.537 180.798 123.328 180.686 123.122 180.574C121.414 179.646 119.591 178.995 117.764 178.357C117.047 178.107 116.299 177.951 115.565 177.752C115.619 177.556 115.659 177.355 115.729 177.164C115.981 176.477 116.264 175.8 116.499 175.107C117.192 173.052 117.905 171.005 118.523 168.924C119.231 166.54 119.931 164.154 120.442 161.717C120.795 160.024 121.111 158.329 121.061 156.59Z" fill="black"/>
<path d="M123.465 124.705C122.582 124.688 121.11 124.71 119.645 124.62C117.186 124.469 114.725 124.293 112.284 123.936C111.092 123.762 109.916 123.499 108.78 123.089C108.587 123.019 108.394 122.946 108.203 122.872C107.56 122.624 107.264 122.218 107.282 121.468C107.345 119.03 107.3 116.589 107.354 114.15C107.385 112.772 107.424 111.391 107.596 110.018C107.655 109.553 107.635 109.079 107.653 108.61C107.725 106.879 107.795 105.147 107.876 103.418C107.903 102.802 107.955 102.186 108.004 101.572C108.03 101.239 108.113 101.173 108.458 101.215C109.536 101.348 110.611 101.499 111.69 101.622C112.681 101.734 113.675 101.835 114.669 101.91C116.162 102.024 117.654 102.122 119.149 102.21C119.853 102.25 120.559 102.241 121.263 102.271C125.667 102.449 130.071 102.497 134.479 102.43C134.626 102.429 134.773 102.429 134.92 102.427C135.155 102.421 135.286 102.533 135.376 102.756C135.94 104.144 136.513 105.528 137.091 106.908C137.219 107.213 137.26 107.526 137.263 107.853C137.278 109.41 137.289 110.968 137.32 112.525C137.379 115.492 137.447 118.459 137.521 121.425C137.534 121.953 137.589 122.481 137.631 123.006C137.655 123.289 137.513 123.431 137.262 123.523C136.429 123.828 135.558 123.979 134.686 124.087C133.319 124.258 131.944 124.394 130.569 124.499C128.4 124.664 126.224 124.635 123.465 124.705Z" fill="#D52B1E"/>
<path d="M130.527 71.5005C129.581 71.3148 128.669 71.1163 127.748 70.9583C125.193 70.5189 122.627 70.2653 120.032 70.4656C119.359 70.5171 118.686 70.5814 118.013 70.6366C117.767 70.6568 117.67 70.587 117.695 70.3572C117.771 69.6569 117.863 68.9584 117.951 68.2581C117.958 68.2011 117.982 68.1441 117.993 68.0871C118.186 67.0743 118.092 67.2637 118.853 66.7876C120.193 65.9476 120.701 64.7381 120.464 63.172C120.291 62.0379 120.083 60.9148 119.831 59.7954C119.793 59.6263 119.776 59.4535 119.747 59.2661C120.022 59.1484 120.158 59.3433 120.309 59.4407C121.226 60.0381 122.23 60.3211 123.32 60.2421C125.289 60.0987 126.665 59.1006 127.483 57.3122C127.507 57.2588 127.527 57.2019 127.542 57.1467C127.579 57.0107 127.415 56.8673 127.27 56.8894C127.114 56.9133 127.002 56.9978 126.895 57.1008C126.557 57.4261 126.213 57.7459 125.882 58.0805C124.798 59.1815 123.496 59.5638 122.013 59.165C120.541 58.7698 119.561 57.8029 119.129 56.338C118.675 54.8031 119.217 53.1746 120.449 52.2335C121.725 51.2593 123.467 51.149 124.836 51.978C125.16 52.1746 125.445 52.4338 125.748 52.6654C126.099 52.9338 126.344 52.9448 126.713 52.704C127.176 52.4007 127.472 51.9816 127.606 51.4412C127.809 50.6288 127.772 49.809 127.708 48.9874C127.551 47.0243 127.237 45.0796 127.005 43.1256C126.95 42.6606 126.937 42.1882 126.932 41.7195C126.926 41.157 127.152 40.7251 127.63 40.3814C128.54 39.727 129.492 39.1498 130.478 38.6241C132.058 37.7804 133.681 37.0195 135.367 36.4037C135.505 36.3541 135.645 36.3063 135.782 36.2548C136.211 36.0986 136.593 36.2052 136.94 36.4699C137.247 36.7033 137.514 36.9809 137.694 37.3227C137.913 37.7382 138.143 38.1517 138.308 38.5892C139.299 41.1975 140.229 43.8278 141.008 46.5078C141.172 47.0721 141.35 47.6382 141.438 48.2154C141.565 49.0517 142.01 49.6785 142.594 50.2354C142.956 50.5792 143.33 50.9119 143.697 51.2501C143.806 51.3493 143.918 51.4449 144.019 51.5497C144.561 52.1066 144.545 52.3346 143.933 52.8235C143.91 52.8419 143.887 52.8603 143.861 52.875C143.267 53.2426 143.069 53.2371 143.383 54.3363C143.828 55.8931 144.131 57.4813 144.3 59.0896C144.517 61.1575 143.872 62.9147 142.275 64.2823C141.571 64.8833 140.727 65.2509 139.859 65.5211C137.352 66.2987 134.793 66.7674 132.154 66.8078C129.86 66.8427 127.572 66.7766 125.281 66.6571C125.136 66.6497 124.989 66.6387 124.846 66.6461C124.807 66.6479 124.752 66.7122 124.739 66.7582C124.724 66.8078 124.732 66.8813 124.761 66.9199C124.853 67.0412 124.991 67.1001 125.138 67.1221C126.371 67.3059 127.371 67.9621 128.345 68.6864C129.005 69.1771 129.678 69.6532 130.371 70.0962C130.707 70.3112 130.794 70.5392 130.665 70.8994C130.592 71.0888 130.571 71.2928 130.527 71.5005ZM137.054 42.5981C135.803 42.6716 134.856 43.4197 134.161 44.5557C134.095 44.6641 134.117 44.7928 134.196 44.8829C134.271 44.9711 134.389 45.0299 134.51 44.9876C134.676 44.9325 134.843 44.8737 134.994 44.7891C135.249 44.6476 135.494 44.4877 135.742 44.3314C136.44 43.8903 137.17 43.8572 137.92 44.1734C138.188 44.2873 138.448 44.4252 138.718 44.5355C138.878 44.6016 139.049 44.6623 139.218 44.6788C139.569 44.7138 139.817 44.3792 139.716 44.0374C139.639 43.7763 139.481 43.5686 139.277 43.3959C138.672 42.8867 137.977 42.622 137.054 42.5981ZM122.469 54.6487C122.478 54.8473 122.471 55.0825 122.502 55.3141C122.533 55.5457 122.585 55.7773 122.66 55.9979C122.743 56.2387 122.776 56.5365 123.094 56.6045C123.27 56.6412 123.357 56.3324 123.292 55.8435C123.246 55.4961 123.155 55.1487 123.28 54.8013C123.599 53.9098 123.531 53.6911 124.482 54.3307C124.651 54.4447 124.831 54.5421 125.017 54.6248C125.151 54.6837 125.311 54.7057 125.432 54.5991C125.59 54.4594 125.524 54.2756 125.474 54.1083C125.45 54.0275 125.399 53.9503 125.347 53.8804C124.456 52.6875 122.614 52.5257 121.524 53.544C121.502 53.5643 121.478 53.5826 121.464 53.6065C121.403 53.7076 121.346 53.8087 121.399 53.9337C121.454 54.0642 121.574 54.0936 121.686 54.0734C121.886 54.0385 122.081 53.9686 122.28 53.9245C122.447 53.8878 122.539 53.9852 122.524 54.1763C122.513 54.3216 122.491 54.4668 122.469 54.6487ZM137.468 48.0518C138.275 48.0554 138.911 48.2154 139.422 48.7227C139.505 48.8036 139.593 48.8844 139.692 48.9433C139.823 49.0186 139.968 49.037 140.109 48.9635C140.262 48.8844 140.284 48.7429 140.282 48.5922C140.282 48.5352 140.28 48.4727 140.262 48.4194C139.891 47.3129 139.089 46.6989 137.966 46.778C137.121 46.8368 136.393 47.2007 135.777 47.7761C135.652 47.8919 135.558 48.0481 135.475 48.1988C135.402 48.3348 135.42 48.4856 135.542 48.5977C135.633 48.6822 135.751 48.7025 135.865 48.6473C136.102 48.5334 136.336 48.4139 136.569 48.2907C136.887 48.1235 137.222 48.0371 137.468 48.0518ZM142.223 57.1853C142.515 57.1633 142.837 57.1394 143.133 56.9886C143.357 56.8728 143.495 56.6982 143.534 56.4464C143.556 56.3067 143.422 56.1358 143.286 56.1486C143.14 56.1633 142.999 56.2056 142.854 56.2185C141.995 56.292 141.229 56.0678 140.56 55.5163C140.348 55.3417 140.179 55.1708 140.26 54.8546C140.295 54.7167 140.152 54.6469 140.03 54.669C139.562 54.7553 139.218 54.9906 139.104 55.4869C139.069 55.6376 139.153 55.7663 139.339 55.7461C139.527 55.7259 139.672 55.7148 139.799 55.8895C139.92 56.0531 140.063 56.2038 140.214 56.3435C140.771 56.8563 141.427 57.1504 142.223 57.1853Z" fill="#EED3CA"/>
<path d="M125.044 101.456C123.396 101.394 121.046 101.313 118.697 101.212C117.348 101.153 115.997 101.089 114.652 100.978C112.749 100.824 110.839 100.721 108.955 100.41C107.924 100.241 108.027 100.385 108.093 99.3167C108.196 97.6734 108.332 96.0338 108.43 94.3906C108.501 93.1884 108.533 91.9826 108.588 90.7787C108.604 90.4258 108.628 90.0747 108.669 89.7236C108.713 89.3468 108.748 89.3155 109.097 89.3229C110.213 89.3486 111.33 89.3744 112.446 89.413C113.679 89.4571 114.911 89.5508 116.144 89.56C118.291 89.5766 120.432 89.6721 122.576 89.7879C124.16 89.8725 125.745 89.9644 127.331 89.957C127.919 89.9552 128.507 89.9497 129.094 89.9093C129.489 89.8817 129.68 90.0673 129.818 90.4055C130.117 91.1389 130.439 91.865 130.753 92.5929C131.72 94.8335 132.775 97.0282 133.974 99.1549C134.336 99.7983 134.538 100.506 134.79 101.195C134.845 101.348 134.749 101.465 134.56 101.473C133.944 101.5 133.327 101.543 132.711 101.537C130.39 101.526 128.068 101.493 125.044 101.456Z" fill="white"/>
<path d="M209.281 169.611C209.274 169.347 209.261 169.082 209.261 168.817C209.265 154.642 209.27 140.466 209.276 126.293C209.276 125.971 209.272 125.651 209.353 125.329C209.415 125.078 209.421 124.806 209.421 124.545C209.425 117.222 209.425 109.899 209.423 102.576C209.423 102.34 209.45 102.092 209.384 101.875C209.252 101.44 209.277 101.002 209.277 100.563C209.272 82.7405 209.27 64.9182 209.265 47.0978C209.261 38.1572 209.255 29.2167 209.248 20.2761C209.248 19.8368 209.268 19.3994 209.138 18.9637C209.072 18.7468 209.103 18.4969 209.101 18.2616C209.099 13.9678 209.099 9.67395 209.099 5.38013C209.099 5.05662 209.123 4.74047 209.187 4.4188C209.322 3.75341 209.252 3.07147 209.248 2.39688C209.246 2.14506 209.132 2.05316 208.847 2.03845C208.553 2.02375 208.259 2.02742 207.965 2.02742C194.56 2.02559 181.153 2.02375 167.747 2.02007C155.311 2.01823 142.876 2.01456 130.439 2.01088C129.884 2.01088 129.325 2.04948 128.776 1.88957C128.557 1.82523 128.309 1.86016 128.074 1.86016C126.456 1.85464 124.84 1.8528 123.223 1.84913C122.988 1.84913 122.752 1.84729 122.519 1.82339C122.337 1.80501 122.195 1.68921 122.089 1.54033C121.958 1.36019 122.124 1.20763 122.146 1.0422C122.67 0.937426 123.201 0.985217 123.728 0.985217C135.751 0.979703 147.774 0.977865 159.799 0.976027C176.085 0.974188 192.371 0.97235 208.658 0.970512C208.923 0.970512 209.187 0.970512 209.452 0.970512C210.401 0.966836 210.382 0.931912 210.377 1.8767C210.369 3.11191 210.36 4.34528 210.36 5.58048C210.349 22.2245 210.333 38.8686 210.329 55.5126C210.323 86.6538 210.325 117.795 210.327 148.936C210.327 155.465 210.334 161.992 210.338 168.521C210.338 168.786 210.342 169.051 210.327 169.315C210.316 169.519 210.189 169.641 209.987 169.643C209.75 169.646 209.515 169.624 209.281 169.611Z" fill="#D6E3F2"/>
<path d="M211.353 85.1338C211.353 57.5199 211.353 29.9042 211.353 2.29032C211.353 1.99622 211.347 1.70213 211.358 1.40803C211.373 1.05328 211.48 0.970561 211.866 0.983427C211.925 0.985266 211.983 0.994456 212.04 1.00365C212.175 1.0257 212.252 1.11577 212.259 1.24076C212.276 1.56243 212.285 1.88594 212.285 2.20944C212.287 48.175 212.287 94.1405 212.287 140.106C212.287 149.37 212.287 158.634 212.287 167.896C212.287 168.132 212.292 168.367 212.285 168.602C212.27 169.04 212.233 169.086 211.818 169.231C211.491 169.347 211.373 169.279 211.36 168.95C211.349 168.626 211.355 168.303 211.355 167.979C211.353 140.363 211.353 112.748 211.353 85.1338Z" fill="#212492"/>
<path d="M86.9219 123.491C86.9513 123.19 86.9678 122.747 87.0432 122.315C87.5211 119.617 88.2122 116.979 89.361 114.479C89.6919 113.76 90.0632 113.064 90.2176 112.275C90.2691 112.016 90.4014 111.944 90.6735 111.998C91.3076 112.117 91.9399 112.248 92.5704 112.387C92.8571 112.452 93.1218 112.579 93.37 112.746C94.2302 113.325 94.9544 114.051 95.6161 114.843C95.776 115.036 95.8643 115.246 95.822 115.49C95.7521 115.891 95.8845 116.227 96.0701 116.576C96.5315 117.444 96.7484 118.396 96.8311 119.365C96.9671 120.955 97.3182 122.495 97.7373 124.026C97.7906 124.225 97.8531 124.423 97.8825 124.625C97.9138 124.848 97.8145 125.035 97.6197 125.142C97.4285 125.247 97.2171 125.247 97.0351 125.118C96.9175 125.035 96.8091 124.927 96.73 124.807C96.5333 124.515 96.355 124.21 96.1712 123.91C96.0021 123.635 95.8679 123.331 95.6602 123.091C95.3165 122.69 95.0978 122.278 95.2503 121.734C95.2724 121.653 95.2485 121.56 95.2393 121.471C95.2246 121.326 95.2301 121.139 95.061 121.106C94.8257 121.06 94.7963 121.273 94.7559 121.438C94.6199 121.979 94.4747 122.517 94.3552 123.061C94.1475 124.004 94.2945 124.932 94.5298 125.85C94.6897 126.475 94.8846 127.09 95.061 127.712C95.1437 128.008 95.1382 128.291 94.925 128.541C94.8478 128.631 94.6713 128.644 94.6401 128.544C94.2872 127.452 93.5942 126.508 93.2707 125.403C93.2045 125.179 93.1089 124.962 93.0207 124.745C92.9601 124.598 92.9343 124.359 92.7064 124.442C92.5152 124.51 92.5281 124.732 92.5575 124.905C92.7064 125.78 92.9931 126.609 93.4177 127.39C93.5721 127.673 93.7027 127.967 93.8313 128.263C93.9637 128.566 93.7743 128.767 93.574 128.947C93.3552 129.144 93.0961 129.166 92.8351 129.052C92.7707 129.024 92.6972 128.921 92.6954 128.853C92.6825 128.145 92.3351 127.572 92.0208 126.969C91.7506 126.453 91.5962 125.877 91.3719 125.335C91.2653 125.076 91.2396 124.765 90.9675 124.594C90.6587 124.864 90.8591 125.184 90.9198 125.462C91.0907 126.236 91.2911 127.004 91.7157 127.69C91.7763 127.789 91.8241 127.899 91.8701 128.006C92.0318 128.394 92.0281 128.614 91.8498 128.732C91.5355 128.938 91.1992 129 90.8499 128.835C90.7396 128.781 90.69 128.658 90.6992 128.537C90.758 127.734 90.4253 127.057 90.054 126.377C89.7599 125.837 89.5393 125.258 89.282 124.697C89.2085 124.539 89.1331 124.379 89.0449 124.23C89.0247 124.195 88.9456 124.188 88.8923 124.177C88.8262 124.164 88.7912 124.205 88.7747 124.276C88.7048 124.576 88.7784 124.861 88.8703 125.14C89.1 125.837 89.3445 126.53 89.6754 127.186C89.7673 127.37 89.8665 127.552 89.9309 127.745C90.1441 128.372 89.9364 128.636 89.1754 128.616C88.7747 128.605 88.4622 128.366 88.2251 128.043C87.9108 127.614 87.6406 127.162 87.4678 126.657C87.1314 125.675 86.9513 124.668 86.9219 123.491ZM93.8001 117.959C93.7799 117.773 93.7486 117.424 93.6971 117.078C93.6806 116.968 93.6163 116.861 93.5556 116.764C93.5317 116.725 93.4527 116.7 93.4049 116.707C93.3571 116.714 93.2854 116.762 93.2762 116.804C93.2431 116.944 93.2119 117.089 93.2156 117.233C93.2413 118.745 92.6954 119.966 91.4179 120.828C91.2028 120.973 90.997 121.148 90.8701 121.385C90.8499 121.423 90.8793 121.493 90.8977 121.543C90.9051 121.565 90.9437 121.593 90.9675 121.591C91.0521 121.587 91.1367 121.578 91.2194 121.56C92.8057 121.197 93.8019 119.749 93.8001 117.959Z" fill="#EED3CA"/>
<path d="M137.84 174.403C137.346 174.797 136.752 174.988 136.155 175.096C135.671 175.184 135.195 175.383 134.686 175.313C133.708 175.598 132.706 175.434 131.716 175.488C131.094 175.521 130.493 175.418 129.891 175.302C129.696 175.265 129.528 175.181 129.547 174.979C129.618 174.208 129.359 173.473 129.345 172.712C129.334 172.203 129.429 171.729 129.611 171.256C129.97 170.33 130.308 169.394 130.657 168.462C131.771 165.505 132.765 162.505 133.765 159.507C134.098 158.509 134.473 157.524 134.811 156.526C135.234 155.28 135.559 154.006 135.872 152.73C135.949 152.416 135.984 152.081 136.392 152.01C136.392 153.006 136.68 153.982 136.598 154.984C136.592 155.041 136.598 155.105 136.618 155.158C136.807 155.638 136.752 156.142 136.765 156.638C136.771 156.903 136.726 157.184 136.802 157.426C136.98 158.004 136.919 158.59 136.94 159.174C136.954 159.614 136.899 160.07 136.993 160.491C137.092 160.93 137.103 161.36 137.111 161.799C137.122 162.386 137.044 162.99 137.155 163.557C137.282 164.202 137.271 164.838 137.293 165.481C137.3 165.714 137.276 165.963 137.346 166.179C137.467 166.554 137.458 166.931 137.465 167.312C137.473 167.663 137.539 168.01 137.568 168.354C137.634 169.141 137.827 169.911 137.82 170.707C137.811 171.936 137.833 173.17 137.84 174.403Z" fill="black"/>
<path d="M160.848 124.96C160.913 124.352 160.742 123.796 160.46 123.267C160.378 123.111 160.282 122.962 160.209 122.802C159.843 122.006 159.245 121.512 158.4 121.251C157.501 120.971 156.663 120.537 155.821 120.113C155.091 119.745 154.534 119.199 154.079 118.532C153.825 118.163 153.762 117.826 153.981 117.391C154.67 116.027 155.306 114.637 155.979 113.266C156.316 112.58 156.679 111.908 157.038 111.235C157.165 110.998 157.271 110.981 157.444 111.15C158.619 112.312 159.992 113.229 161.288 114.242C161.773 114.622 162.276 114.983 162.786 115.33C164.613 116.573 165.774 118.289 166.431 120.376C166.635 121.023 166.824 121.668 166.807 122.359C166.802 122.569 166.795 122.773 166.697 122.958C166.659 123.032 166.578 123.085 166.517 123.148C166.46 123.091 166.396 123.039 166.352 122.975C166.32 122.929 166.311 122.865 166.302 122.808C166.131 121.526 165.484 120.427 164.936 119.293C164.824 119.06 164.699 118.813 164.458 118.677C164.392 118.641 164.271 118.639 164.212 118.675C164.153 118.712 164.094 118.839 164.116 118.896C164.37 119.552 164.618 120.212 164.91 120.852C165.252 121.605 165.523 122.377 165.649 123.197C165.741 123.798 165.559 124.304 165.069 124.673C164.839 124.848 164.638 124.881 164.604 124.5C164.523 123.649 164.302 122.826 164.067 122.006C163.826 121.168 163.355 120.466 162.778 119.828C162.747 119.793 162.666 119.778 162.617 119.789C162.521 119.811 162.501 119.901 162.495 119.99C162.481 120.21 162.598 120.39 162.708 120.558C163.289 121.434 163.51 122.444 163.775 123.436C163.903 123.923 163.923 124.423 163.911 124.925C163.9 125.329 163.688 125.576 163.33 125.725C162.997 125.864 162.844 125.785 162.815 125.423C162.74 124.511 162.539 123.622 162.319 122.74C162.153 122.08 161.89 121.457 161.462 120.918C161.372 120.806 161.256 120.712 161.142 120.626C161.109 120.602 161.021 120.613 160.986 120.64C160.948 120.67 160.927 120.74 160.925 120.793C160.916 121.015 161.078 121.168 161.172 121.348C161.872 122.677 162.133 124.111 162.196 125.592C162.201 125.737 162.196 125.888 162.17 126.032C162.085 126.493 161.543 126.721 161.139 126.475C161.032 126.41 160.964 126.318 160.948 126.195C160.892 125.78 160.813 125.374 160.848 124.96Z" fill="#EED3CA"/>
<path d="M156.567 109.643C156.122 109.693 155.758 109.524 155.462 109.211C154.576 108.274 153.611 107.419 152.784 106.419C152.282 105.812 151.749 105.224 151.231 104.629C150.712 104.033 150.229 103.406 149.747 102.78C149.159 102.013 148.543 101.267 147.863 100.583C147.093 99.8073 146.398 98.9636 145.894 98.0097C145.485 97.2303 144.928 96.552 144.538 95.7672C144.146 94.9786 143.735 94.1993 143.365 93.3997C142.972 92.5486 142.61 91.6847 142.246 90.8208C141.68 89.4698 141.115 88.1188 140.566 86.7623C140.049 85.4866 139.557 84.2018 139.051 82.9206C138.772 82.2093 138.412 81.5365 138.038 80.8712C137.838 80.5127 137.605 80.1672 137.454 79.7885C136.777 78.0919 135.702 76.6766 134.373 75.4598C133.726 74.8661 133.061 74.2926 132.441 73.6676C132.278 73.5022 132.085 73.357 132.004 73.1235C133.044 73.3662 133.998 73.8147 134.871 74.4176C135.278 74.6988 135.706 74.9525 136.072 75.3035C136.783 75.9873 137.298 76.7997 137.759 77.6545C139.014 79.9815 140.139 82.3692 141.147 84.8157C142.566 88.2622 143.983 91.7105 145.562 95.0889C145.924 95.8664 146.365 96.5998 146.883 97.2689C148.646 99.5426 150.365 101.851 152.291 103.995C153.49 105.327 154.738 106.61 155.98 107.901C156.081 108.005 156.188 108.106 156.293 108.211C156.706 108.625 156.857 109.092 156.567 109.643Z" fill="#FCA6A6"/>
<path d="M130.232 179.339C130.236 178.552 130.133 178.414 131.114 178.085C131.947 177.806 132.763 177.475 133.583 177.157C134.008 176.991 134.373 177.023 134.71 177.364C134.871 177.528 135.081 177.651 135.281 177.771C135.936 178.16 136.673 177.986 137.136 177.357C137.417 176.977 137.623 176.556 137.835 176.137C137.901 176.006 137.96 175.87 138.035 175.745C138.239 175.411 138.577 175.372 138.827 175.684C139.121 176.052 139.351 176.46 139.404 176.945C139.423 177.12 139.426 177.3 139.476 177.466C139.529 177.646 139.678 177.745 139.869 177.769C140.057 177.793 140.242 177.681 140.264 177.506C140.298 177.247 140.309 176.984 140.336 176.723C140.344 176.651 140.401 176.616 140.465 176.638C140.514 176.655 140.59 176.683 140.599 176.719C140.68 177.03 140.742 177.344 140.82 177.655C140.867 177.852 141.005 177.943 141.207 177.94C141.402 177.936 141.536 177.837 141.621 177.664C141.634 177.638 141.647 177.611 141.654 177.583C141.711 177.39 141.621 177.148 141.803 177.006C142.029 176.828 142.312 176.929 142.571 176.909C142.66 176.901 142.748 176.909 142.836 176.907C144.233 176.887 144.426 177.307 144.788 178.469C144.863 178.712 144.784 178.877 144.579 178.982C143.898 179.329 143.222 179.682 142.531 180.006C141.389 180.541 140.231 181.039 139.094 181.581C138.509 181.86 137.906 182.085 137.296 182.292C136.904 182.425 136.586 182.362 136.221 182.149C134.875 181.361 133.465 180.719 131.927 180.381C131.546 180.298 131.173 180.289 130.795 180.272C130.315 180.252 130.26 180.193 130.236 179.693C130.227 179.574 130.232 179.456 130.232 179.339Z" fill="#404040"/>
<path d="M114.651 181.66C114.392 181.592 113.934 181.861 113.756 181.508C113.616 181.232 114.012 180.96 114.14 180.671C114.364 180.166 114.76 179.883 115.285 179.669C116.392 179.221 117.418 179.346 118.383 179.975C119.616 180.778 120.546 181.855 121.09 183.237C121.244 183.631 121.458 183.973 121.807 184.217C122.219 184.504 122.535 184.507 122.943 184.228C123.062 184.145 123.167 184.041 123.274 183.939C123.401 183.818 123.516 183.684 123.647 183.564C123.838 183.392 124.068 183.416 124.154 183.638C124.294 183.993 124.419 184.355 124.518 184.721C124.59 184.989 124.43 185.233 124.344 185.478C124.287 185.64 124.154 185.778 124.101 185.941C123.983 186.294 124.231 186.586 124.606 186.55C124.691 186.542 124.774 186.469 124.856 186.472C124.932 186.474 125.044 186.52 125.073 186.577C125.149 186.733 125.209 186.904 125.235 187.075C125.266 187.277 125.099 187.382 124.963 187.494C124.919 187.531 124.873 187.573 124.843 187.621C124.654 187.923 124.853 188.364 125.204 188.31C125.608 188.25 125.715 188.435 125.82 188.735C125.985 189.206 126.172 189.667 126.338 190.138C126.615 190.921 127.005 191.641 127.544 192.272C127.957 192.755 128.2 193.306 128.273 193.933C128.286 194.04 128.262 194.185 128.194 194.26C128.113 194.35 127.988 194.284 127.88 194.227C126.779 193.65 125.812 192.908 124.934 192.025C124.356 191.446 123.682 190.966 123.07 190.422C122.61 190.013 122.158 189.588 121.746 189.132C121.386 188.733 121.206 188.215 121.101 187.7C120.958 187.002 120.691 186.351 120.414 185.708C119.575 183.765 118.099 182.506 116.114 181.809C115.651 181.645 115.188 181.669 114.651 181.66Z" fill="#404040"/>
<path d="M109.227 75.8586C109.242 76.0719 109.182 76.263 109.075 76.445C108.435 77.5295 107.823 78.6305 107.154 79.6948C105.985 81.5531 104.787 83.393 103.588 85.233C102.309 87.1961 101.03 89.1573 99.7263 91.1039C99.0039 92.181 98.4378 93.3317 97.9636 94.532C97.7154 95.1606 97.4121 95.7598 97.0666 96.3407C96.9912 96.4657 96.9122 96.5888 96.8423 96.7175C96.3442 97.6476 95.8553 98.5831 95.3535 99.5096C94.6531 100.804 94.1844 102.191 93.6698 103.563C93.1955 104.824 92.7029 106.077 92.2434 107.342C91.9327 108.193 91.6184 109.046 91.4052 109.93C91.3096 110.327 91.1663 110.713 91.0449 111.104C90.613 111.086 90.1737 111.13 89.7031 111.003C89.863 110.533 90.0193 110.093 90.1645 109.65C91.1938 106.494 92.3353 103.381 93.6716 100.34C94.5116 98.4287 95.4858 96.587 96.449 94.7378C98.3918 91.0102 100.568 87.4185 102.811 83.8673C104.537 81.134 106.481 78.5551 108.762 76.2483C108.902 76.1068 109.071 75.9891 109.227 75.8586Z" fill="#FCA6A6"/>
<path d="M112.736 186.193C114.17 186.241 115.427 186.783 116.526 187.667C117.372 188.347 118.153 189.103 118.892 189.906C120.465 191.619 122.177 193.189 124.063 194.554C124.702 195.018 125.415 195.382 126.095 195.79C126.197 195.85 126.312 195.887 126.404 195.957C126.577 196.085 126.932 196.124 126.822 196.422C126.741 196.639 126.452 196.519 126.265 196.49C125.917 196.433 125.566 196.369 125.237 196.251C123.993 195.81 122.756 195.358 121.61 194.666C119.239 193.236 117.002 191.621 114.826 189.919C113.828 189.139 112.94 188.237 112.161 187.233C112.034 187.071 111.913 186.904 111.806 186.73C111.644 186.467 111.734 186.279 112.032 186.235C112.148 186.217 112.266 186.204 112.383 186.196C112.501 186.187 112.618 186.193 112.736 186.193Z" fill="#808080"/>
<path d="M129.059 183.923C128.834 183.923 128.676 184.075 128.529 184.199C127.75 184.853 126.984 185.524 126.217 186.193C126.18 186.224 126.182 186.3 126.167 186.353C125.949 186.257 125.912 186.044 125.849 185.853C125.66 185.267 125.478 184.678 125.298 184.088C125.116 183.496 124.899 182.925 124.441 182.432C125.3 181.855 125.701 180.965 126.112 180.094C126.816 178.607 127.392 177.065 127.956 175.521C128.077 175.19 128.197 174.859 128.32 174.528C128.36 174.424 128.39 174.302 128.594 174.278C128.614 174.523 128.656 174.771 128.649 175.017C128.629 175.642 128.847 176.104 129.469 176.315C129.645 176.376 129.682 176.491 129.63 176.653C129.329 177.591 129.288 178.561 129.327 179.532C129.353 180.186 129.195 180.815 129.173 181.46C129.147 182.283 129.097 183.103 129.059 183.923Z" fill="white"/>
<path d="M125.609 194.394C125.355 194.247 125.085 194.124 124.852 193.951C123.58 193.003 122.326 192.036 121.211 190.896C120.122 189.784 119.016 188.689 117.895 187.608C116.817 186.571 115.557 185.853 114.097 185.472C113.343 185.276 112.59 185.288 111.845 185.338C111.728 185.167 111.809 185.037 111.867 184.908C112.11 184.373 112.367 183.845 112.601 183.307C112.742 182.982 112.972 182.812 113.314 182.726C115.279 182.23 116.902 182.827 118.266 184.254C118.986 185.007 119.519 185.878 119.815 186.888C119.922 187.253 120.064 187.612 120.143 187.985C120.339 188.911 120.81 189.669 121.486 190.312C121.593 190.413 121.696 190.52 121.806 190.615C123.087 191.736 124.37 192.856 125.653 193.977C125.719 194.034 125.778 194.1 125.841 194.161C125.764 194.238 125.686 194.315 125.609 194.394Z" fill="#CCCCCC"/>
<path d="M143.663 180.982C141.459 182.208 139.203 183.327 136.851 184.241C135.051 184.939 133.193 185.049 131.32 184.629C129.961 184.323 130.026 184.13 129.98 182.965C129.965 182.616 130.005 182.261 130.031 181.912C130.073 181.348 129.98 181.265 130.77 181.217C131.334 181.184 131.877 181.302 132.413 181.46C133.632 181.82 134.77 182.358 135.821 183.066C136.255 183.358 136.665 183.408 137.146 183.268C138.02 183.015 138.878 182.724 139.705 182.338C140.821 181.818 141.942 181.313 143.063 180.805C143.249 180.721 143.446 180.658 143.637 180.585C143.646 180.717 143.653 180.849 143.663 180.982Z" fill="#CCCCCC"/>
<path d="M129.509 8.29175C129.514 8.65385 129.522 8.87627 129.522 9.09684C129.522 14.8483 129.522 20.6015 129.522 26.353C129.522 26.4412 129.523 26.5294 129.522 26.6177C129.507 27.1599 129.363 27.3125 128.788 27.3786C128.65 27.3952 128.562 27.3014 128.551 27.1783C128.531 26.9448 128.531 26.7096 128.531 26.4743C128.531 21.2798 128.535 16.0853 128.523 10.8908C128.522 10.3486 128.584 9.84679 128.887 9.38175C129.09 9.07662 129.167 8.69429 129.509 8.29175Z" fill="#78A2D3"/>
<path d="M121.062 156.59C121.112 158.329 120.795 160.024 120.443 161.715C119.932 164.152 119.231 166.536 118.524 168.922C117.906 171.003 117.193 173.05 116.5 175.105C116.266 175.798 115.983 176.475 115.73 177.162C115.66 177.353 115.619 177.554 115.566 177.75C115.448 177.754 115.329 177.772 115.215 177.76C114.969 177.73 114.904 177.638 114.978 177.408C115.149 176.877 115.336 176.352 115.505 175.82C116.333 173.221 117.193 170.631 117.97 168.018C118.522 166.165 118.959 164.279 119.446 162.408C119.933 160.536 120.42 158.665 120.913 156.796C120.93 156.721 121.009 156.658 121.062 156.59Z" fill="#6A6969"/>
<path d="M137.841 174.403C137.834 173.17 137.812 171.936 137.823 170.703C137.83 169.907 137.637 169.137 137.571 168.35C137.542 168.007 137.475 167.659 137.468 167.308C137.461 166.928 137.468 166.551 137.349 166.176C137.279 165.959 137.303 165.711 137.295 165.477C137.273 164.834 137.284 164.198 137.157 163.553C137.045 162.987 137.124 162.382 137.113 161.796C137.106 161.358 137.095 160.926 136.996 160.487C136.9 160.066 136.957 159.61 136.942 159.171C136.922 158.586 136.983 158.002 136.804 157.423C136.729 157.18 136.775 156.899 136.768 156.634C136.757 156.138 136.81 155.634 136.621 155.155C136.6 155.101 136.597 155.039 136.6 154.98C136.681 153.978 136.395 153.002 136.395 152.006C136.406 151.658 136.415 151.313 136.426 150.965C136.453 150.965 136.483 150.964 136.51 150.964C136.588 151.432 136.7 151.897 136.735 152.37C136.792 153.129 136.852 153.89 136.898 154.645C136.953 155.553 137.036 156.461 137.15 157.355C137.253 158.167 137.194 159 137.428 159.796C137.444 159.851 137.45 159.913 137.446 159.97C137.393 160.945 137.644 161.893 137.672 162.862C137.694 163.619 137.837 164.373 137.928 165.126C137.942 165.242 137.972 165.358 137.977 165.474C138.008 166.117 137.97 166.768 138.155 167.396C138.095 168.661 138.385 169.907 138.35 171.172C138.336 171.668 138.339 172.166 138.479 172.659C138.558 172.935 138.532 173.241 138.538 173.536C138.545 174.015 138.332 174.322 137.841 174.403Z" fill="#6A6969"/>
<path d="M120.621 180.568C121.496 180.813 122.285 181.184 123.038 181.634C123.171 181.714 123.286 181.837 123.226 181.991C123.038 182.451 122.911 182.943 122.547 183.311C122.45 183.408 122.332 183.406 122.244 183.298C122.171 183.208 122.103 183.109 122.058 183.002C121.696 182.131 121.248 181.313 120.621 180.568Z" fill="#EED3CA"/>
<path d="M129.973 31.3691C129.907 31.3323 129.863 31.3232 129.859 31.3048C129.848 31.2515 129.832 31.1761 129.857 31.1412C130.058 30.8765 130.361 30.7515 130.646 30.61C131.64 30.1155 132.589 29.5457 133.478 28.8822C133.572 28.8123 133.671 28.7498 133.774 28.7002C133.819 28.68 133.89 28.691 133.94 28.7112C134.059 28.7608 134.017 28.8711 133.969 28.9244C133.758 29.1652 133.556 29.4189 133.311 29.6211C132.425 30.3508 131.425 30.8857 130.354 31.2882C130.225 31.3379 130.078 31.3489 129.973 31.3691Z" fill="white"/>
<path d="M130.838 29.5734C130.884 29.5992 130.954 29.6157 130.98 29.658C131.026 29.737 131.011 29.84 130.932 29.8878C129.899 30.5017 128.848 31.077 127.677 31.3932C127.563 31.4244 127.416 31.4648 127.353 31.3601C127.282 31.2388 127.405 31.1579 127.508 31.0972C127.684 30.9925 127.853 30.8748 128.037 30.7866C128.828 30.4079 129.623 30.0385 130.418 29.6635C130.55 29.5992 130.682 29.5367 130.838 29.5734Z" fill="white"/>
<path d="M111.715 43.7103C111.705 43.0228 111.884 42.3777 112.172 41.7601C112.26 41.5726 112.36 41.3906 112.558 41.3005C112.597 41.284 112.659 41.3061 112.705 41.3226C112.724 41.3299 112.74 41.3722 112.74 41.398C112.738 41.4549 112.738 41.5174 112.714 41.5689C112.354 42.3574 112.216 43.1883 112.226 44.0503C112.229 44.4676 112.086 44.758 111.95 44.6845C111.696 44.5485 111.737 44.2893 111.716 44.0614C111.705 43.9456 111.715 43.8261 111.715 43.7103Z" fill="white"/>
<path d="M110.085 44.313C110.078 43.8737 110.127 43.4418 110.328 43.0429C110.405 42.8867 110.517 42.7525 110.69 42.6845C110.715 42.6753 110.759 42.6661 110.774 42.679C110.813 42.7157 110.855 42.7598 110.866 42.8076C110.879 42.8609 110.872 42.9271 110.85 42.9786C110.62 43.5318 110.669 44.1164 110.636 44.6954C110.618 45.0115 110.804 45.4012 110.394 45.6218C110.068 45.3736 110.155 44.9931 110.09 44.6623C110.066 44.5501 110.085 44.4307 110.085 44.313Z" fill="white"/>
<path d="M136.196 31.0603C135.639 31.3563 134.068 31.8728 133.63 31.8948C133.584 31.8967 133.524 31.8581 133.489 31.8195C133.439 31.7643 133.459 31.7092 133.522 31.6743C134.241 31.2607 135.014 31.0034 135.834 30.8857C135.976 30.8637 136.128 30.8912 136.196 31.0603Z" fill="white"/>
<path d="M163.957 114.972C164.446 115.045 164.733 115.078 165.016 115.132C165.442 115.211 165.657 115.508 165.746 115.904C165.768 116.005 165.722 116.13 165.683 116.236C165.633 116.376 165.42 116.438 165.321 116.341C164.909 115.935 164.505 115.521 163.957 114.972Z" fill="#B2B2B2"/>
<path d="M125.609 194.395C125.687 194.317 125.764 194.238 125.841 194.161C126.446 194.507 127.05 194.85 127.655 195.198C127.731 195.24 127.804 195.29 127.87 195.345C127.97 195.428 127.997 195.542 127.938 195.656C127.872 195.788 127.754 195.788 127.655 195.701C127.188 195.295 126.626 195.047 126.096 194.744C125.926 194.643 125.716 194.588 125.609 194.395Z" fill="#808080"/>
<path d="M136.803 176.052C136.652 176.337 136.571 176.523 136.462 176.69C136.181 177.125 135.981 177.16 135.542 176.85C135.453 176.787 135.334 176.688 135.328 176.602C135.321 176.438 135.488 176.383 135.621 176.328C135.963 176.186 136.293 176.002 136.803 176.052Z" fill="#EED3CA"/>
<path d="M143.665 180.982C143.657 180.85 143.648 180.717 143.641 180.585C143.942 180.337 144.299 180.186 144.655 180.043C144.718 180.017 144.808 180.065 144.887 180.079L144.874 180.068C144.598 180.544 144.174 180.818 143.665 180.982Z" fill="#808080"/>
<path d="M136.5 150.205C136.522 150.251 136.564 150.298 136.562 150.344C136.56 150.388 136.514 150.431 136.487 150.473C136.465 150.427 136.422 150.379 136.426 150.333C136.428 150.289 136.474 150.247 136.5 150.205Z" fill="black"/>
<path d="M144.883 180.079C144.832 180.03 144.835 179.984 144.9 179.956C144.918 179.949 144.947 179.967 144.971 179.973C144.938 180.004 144.903 180.037 144.87 180.068L144.883 180.079Z" fill="#808080"/>
<path d="M137.055 42.5981C137.977 42.622 138.674 42.8867 139.275 43.3977C139.479 43.5705 139.637 43.7782 139.714 44.0392C139.815 44.3811 139.567 44.7156 139.216 44.6807C139.045 44.6642 138.876 44.6035 138.716 44.5373C138.446 44.4271 138.189 44.2892 137.919 44.1752C137.167 43.8591 136.439 43.8903 135.74 44.3333C135.494 44.4896 135.248 44.6495 134.992 44.791C134.842 44.8756 134.674 44.9344 134.509 44.9895C134.388 45.03 134.27 44.973 134.195 44.8847C134.117 44.7947 134.093 44.666 134.16 44.5576C134.854 43.4179 135.801 42.6717 137.055 42.5981Z" fill="black"/>
<path d="M122.471 54.6489C122.493 54.4669 122.515 54.3217 122.528 54.1765C122.543 53.9853 122.451 53.8879 122.283 53.9247C122.085 53.9688 121.89 54.0386 121.69 54.0736C121.578 54.0938 121.458 54.0644 121.403 53.9339C121.351 53.8107 121.408 53.7078 121.467 53.6067C121.482 53.5828 121.508 53.5644 121.528 53.5442C122.618 52.5259 124.46 52.6858 125.351 53.8806C125.403 53.9504 125.454 54.0258 125.478 54.1085C125.528 54.2739 125.594 54.4577 125.436 54.5993C125.314 54.7059 125.154 54.6838 125.02 54.625C124.835 54.5423 124.654 54.4449 124.485 54.3309C123.535 53.6912 123.603 53.9081 123.283 54.8015C123.158 55.147 123.25 55.4944 123.296 55.8437C123.36 56.3308 123.274 56.6414 123.098 56.6046C122.78 56.5385 122.747 56.2389 122.664 55.9981C122.588 55.7775 122.537 55.5459 122.506 55.3143C122.473 55.0827 122.478 54.8474 122.471 54.6489Z" fill="black"/>
<path d="M137.466 48.0518C137.22 48.039 136.884 48.1235 136.568 48.2908C136.336 48.4139 136.101 48.5334 135.864 48.6474C135.75 48.7025 135.632 48.6823 135.54 48.5978C135.419 48.4856 135.399 48.3349 135.474 48.1989C135.557 48.0482 135.65 47.8919 135.775 47.7761C136.393 47.2008 137.121 46.8387 137.965 46.778C139.089 46.699 139.889 47.3129 140.26 48.4195C140.279 48.4728 140.281 48.5353 140.281 48.5922C140.281 48.743 140.259 48.8845 140.108 48.9635C139.966 49.0371 139.819 49.0187 139.691 48.9433C139.591 48.8863 139.503 48.8036 139.42 48.7228C138.909 48.2154 138.273 48.0537 137.466 48.0518Z" fill="black"/>
<path d="M142.223 57.1854C141.427 57.1505 140.77 56.8564 140.212 56.3399C140.061 56.2002 139.918 56.0513 139.796 55.8859C139.669 55.7131 139.524 55.7223 139.337 55.7425C139.151 55.7627 139.067 55.6341 139.101 55.4833C139.215 54.9889 139.561 54.7518 140.028 54.6654C140.149 54.6433 140.293 54.7132 140.258 54.851C140.179 55.1672 140.346 55.3381 140.557 55.5128C141.226 56.0642 141.993 56.2903 142.851 56.2149C142.996 56.202 143.138 56.1598 143.283 56.1451C143.419 56.1322 143.552 56.3031 143.531 56.4428C143.493 56.6947 143.355 56.8711 143.131 56.9851C142.837 57.1395 142.515 57.1615 142.223 57.1854Z" fill="black"/>
<path d="M93.8 117.959C93.8 119.749 92.8056 121.198 91.2193 121.56C91.1366 121.578 91.0521 121.587 90.9675 121.591C90.9436 121.593 90.905 121.565 90.8977 121.543C90.8793 121.492 90.8499 121.422 90.8701 121.385C90.9969 121.148 91.2028 120.973 91.4179 120.828C92.6935 119.964 93.2394 118.744 93.2155 117.233C93.2137 117.089 93.2431 116.944 93.2762 116.804C93.2872 116.762 93.3571 116.714 93.4049 116.707C93.4526 116.7 93.5317 116.727 93.5556 116.764C93.6162 116.861 93.6806 116.968 93.6971 117.078C93.7486 117.426 93.7798 117.775 93.8 117.959Z" fill="black"/>
</svg>
