<svg width="300" height="200" viewBox="0 0 300 200" fill="none" xmlns="http://www.w3.org/2000/svg">
<path d="M190.118 123.972C191.021 123.804 191.873 123.634 192.73 123.487C193.192 123.407 193.66 123.34 194.128 123.321C195.283 123.273 196.305 123.644 197.202 124.371C199.734 126.422 200.03 130.426 197.823 132.723C197.124 133.45 196.276 133.901 195.293 134.08C190.472 134.957 185.652 135.822 180.831 136.694C176.869 137.412 172.907 138.138 168.943 138.852C163.559 139.822 158.176 140.78 152.792 141.75C148.862 142.457 144.933 143.182 141.005 143.893C138.561 144.336 136.117 144.771 133.673 145.199C133.278 145.269 132.875 145.323 132.474 145.327C130.702 145.34 129.297 144.599 128.243 143.188C127.309 141.939 126.689 140.523 126.16 139.068C125.261 136.603 124.621 134.069 124.079 131.505C122.922 126.011 122.198 120.455 121.661 114.87C121.333 111.46 121.083 108.044 120.905 104.626C120.653 99.828 120.583 95.024 120.636 90.2199C120.657 88.2715 120.688 86.323 120.745 84.3766C120.789 82.9006 120.884 81.4245 120.947 79.9505C120.97 79.4214 121.066 78.8839 120.877 78.3107C119.975 78.4493 119.082 78.5753 118.194 78.7285C117.369 78.8713 116.544 79.0309 115.725 79.2052C114.73 79.4193 113.791 79.2787 112.892 78.8167C111.284 77.9916 110.285 76.6394 109.609 75.0122C109.126 73.851 108.907 72.6227 108.888 71.3777C108.859 69.4691 109.226 67.6403 110.22 65.9731C111.156 64.4047 112.468 63.3444 114.245 62.8405C115.895 62.3722 117.583 62.0909 119.261 61.7654C123.116 61.0201 126.971 60.281 130.83 59.5503C134.555 58.8448 138.286 58.1603 142.008 57.4506C147.085 56.4827 152.156 55.4896 157.231 54.5216C160.922 53.8182 164.617 53.138 168.309 52.443C169.957 52.1322 171.603 51.7984 173.253 51.5002C174.578 51.2609 175.907 51.1181 177.255 51.3868C179.922 51.916 181.696 53.4865 182.685 55.9809C183.162 57.1819 183.311 58.4543 183.348 59.7309C183.441 62.8195 183.506 65.9102 183.579 68.9987C183.605 70.0717 183.605 71.1446 183.644 72.2175C183.674 72.9881 183.754 73.7566 183.8 74.5271C183.854 75.3985 183.892 76.2699 183.945 77.1412C184.163 80.6938 184.344 84.2485 184.614 87.797C184.898 91.5112 185.238 95.2234 185.61 98.9314C186.181 104.611 186.895 110.274 187.978 115.884C188.448 118.322 188.957 120.755 189.782 123.107C189.88 123.388 189.996 123.661 190.118 123.972Z" fill="black"/>
<path d="M128.322 141.2C127.861 140.574 127.617 139.841 127.342 139.127C126.471 136.868 125.866 134.529 125.335 132.171C124.581 128.83 124.022 125.452 123.569 122.061C123.208 119.367 122.941 116.661 122.679 113.954C122.464 111.75 122.296 109.541 122.154 107.33C122.024 105.287 121.931 103.24 121.866 101.193C121.788 98.7424 121.713 96.2921 121.713 93.8418C121.715 90.7533 121.801 87.6647 121.839 84.5761C121.87 81.8906 122.196 79.2136 122.082 76.5239C121.969 73.8363 121.763 71.1635 121.072 68.5473C120.804 67.5332 120.419 66.5736 119.848 65.6918C119.407 65.0094 118.889 64.4005 118.236 63.9092C118.028 63.7538 117.841 63.5732 117.572 63.3402C117.789 63.2352 117.917 63.1386 118.059 63.1113C120.398 62.6557 122.737 62.2064 125.076 61.7612C128.768 61.0579 132.461 60.3608 136.152 59.6595C139.976 58.9351 143.797 58.2107 147.62 57.4821C152.729 56.5079 157.835 55.5274 162.944 54.5531C166.238 53.9253 169.534 53.3038 172.831 52.6865C173.457 52.569 174.095 52.5144 174.721 52.3905C175.6 52.2162 176.465 52.317 177.316 52.5123C179.281 52.9616 180.671 54.1353 181.496 55.9683C181.87 56.7997 182.109 57.6732 182.158 58.5887C182.21 59.5608 182.281 60.5308 182.311 61.5051C182.41 64.8288 182.458 68.1526 182.592 71.4742C182.727 74.7938 182.928 78.1133 183.121 81.4308C183.262 83.8433 183.407 86.2558 183.604 88.6641C183.877 92.0088 184.171 95.3515 184.513 98.6899C184.822 101.695 185.171 104.695 185.565 107.689C186.109 111.815 186.771 115.924 187.757 119.972C188.037 121.112 188.391 122.233 188.711 123.363C188.782 123.617 188.853 123.873 188.937 124.184C188.345 124.308 187.791 124.434 187.235 124.539C182.653 125.408 178.072 126.273 173.49 127.138C168.678 128.047 163.863 128.95 159.051 129.864C153.283 130.96 147.52 132.068 141.752 133.166C139.05 133.681 136.343 134.176 133.643 134.699C133.154 134.794 132.673 134.955 132.207 135.132C131.489 135.402 130.958 135.904 130.578 136.568C130.51 136.683 130.433 136.792 130.361 136.904C129.593 137.991 128.929 139.125 128.77 140.486C128.738 140.788 128.65 141.076 128.322 141.2Z" fill="white"/>
<path d="M136.132 143.618C137.906 140.608 137.583 137.991 135.135 135.602C135.46 135.43 135.756 135.396 136.033 135.344C142.196 134.178 148.358 133.024 154.521 131.854C159.661 130.88 164.794 129.88 169.934 128.906C175.438 127.863 180.943 126.834 186.448 125.797C188.754 125.362 191.065 124.948 193.364 124.486C194.908 124.176 196.17 124.642 197.129 125.83C198.265 127.237 198.559 128.837 197.921 130.561C197.396 131.974 196.354 132.786 194.887 133.059C193.402 133.334 191.916 133.59 190.429 133.859C187.263 134.432 184.095 135.01 180.928 135.581C178.883 135.95 176.834 136.307 174.789 136.677C170.432 137.464 166.077 138.26 161.721 139.045C156.772 139.94 151.821 140.826 146.87 141.718C143.668 142.296 140.468 142.879 137.266 143.457C136.938 143.518 136.609 143.553 136.132 143.618Z" fill="white"/>
<path d="M118.671 65.8954C118.408 66.5547 118.161 67.0734 117.999 67.6151C117.837 68.1547 117.76 68.7216 117.636 69.3221C116.895 69.4712 116.141 69.6244 115.389 69.7756C115.192 69.8155 114.994 69.8533 114.795 69.8827C112.378 70.227 111.813 73.1792 112.907 74.693C112.926 74.7203 112.947 74.7476 112.966 74.7749C113.201 75.115 113.504 75.2452 113.922 75.1465C114.868 74.924 115.82 74.7203 116.769 74.5103C116.899 74.4809 117.031 74.4725 117.218 74.4494C117.254 74.6531 117.319 74.84 117.315 75.0247C117.291 75.8478 117.075 76.6163 116.569 77.2819C115.958 78.0839 115.16 78.3758 114.171 78.1259C113.115 77.8572 112.313 77.2231 111.648 76.3916C110.717 75.2305 110.264 73.8699 110.052 72.4233C109.787 70.6176 110.06 68.8791 110.801 67.214C111.16 66.4078 111.66 65.6981 112.307 65.0934C113.852 63.6488 116.158 63.3759 117.997 65.1501C118.236 65.381 118.444 65.6414 118.671 65.8954Z" fill="#CCCCCC"/>
<path d="M128.322 141.2C128.394 140.948 128.503 140.702 128.53 140.446C128.665 139.155 129.231 138.057 130.021 137.059C130.09 136.971 130.248 136.954 130.365 136.904C130.33 137.202 130.288 137.5 130.262 137.8C130.191 138.699 130.384 139.528 130.901 140.28C131.153 140.645 131.463 140.849 131.913 140.78C132.276 140.725 132.641 140.668 133 140.593C134.017 140.383 135.029 140.162 136.106 139.934C136.129 140.179 136.181 140.372 136.158 140.557C136.045 141.439 135.738 142.235 135.155 142.93C133.626 144.752 130.77 144.553 129.49 142.928C129.059 142.384 128.543 141.893 128.322 141.2Z" fill="#CCCCCC"/>
<path d="M118.257 70.4098C118.868 70.1117 119.536 70.0865 120.235 69.9668C120.305 70.1453 120.395 70.2922 120.416 70.4455C120.567 71.5772 120.718 72.7089 120.838 73.8428C120.865 74.0989 120.819 74.3866 120.722 74.6238C120.328 75.5918 119.78 76.4778 119.148 77.3072C119.03 77.4605 118.892 77.6284 118.65 77.5633C118.402 77.24 118.558 76.923 118.677 76.6164C119.425 74.7036 119.446 72.8433 118.314 71.0544C118.186 70.857 118.081 70.6408 118.257 70.4098Z" fill="#CCCCCC"/>
<path d="M118.257 70.4098C118.32 70.5589 118.354 70.7289 118.448 70.8549C119.439 72.1609 119.62 73.6391 119.359 75.2012C119.25 75.8563 119.053 76.4925 118.74 77.0867C118.669 77.2253 118.677 77.4058 118.648 77.5654C118.366 77.6347 118.083 77.704 117.703 77.7985C117.787 77.2778 118.072 76.9313 118.16 76.5219C118.244 76.1293 118.366 75.7408 118.4 75.344C118.435 74.9135 118.421 74.4726 118.368 74.0422C118.32 73.6475 118.228 73.2485 118.093 72.8727C117.946 72.4675 117.755 72.0706 117.533 71.7011C117.331 71.363 117.062 71.067 116.785 70.7016C117.05 70.5295 117.312 70.5022 117.556 70.4581C117.787 70.414 118.024 70.4224 118.257 70.4098Z" fill="white"/>
<path d="M133.399 139.465C132.901 139.56 132.418 139.652 131.929 139.745C131.253 138.976 131.171 138.147 131.49 137.282C131.734 136.624 132.19 136.171 132.987 136.146C132.987 136.744 132.935 137.311 133.002 137.865C133.063 138.388 133.252 138.892 133.399 139.465Z" fill="#CCCCCC"/>
<path d="M115.013 71.1298C115.013 72.0222 115.013 72.8473 115.013 73.7355C114.624 73.9013 114.234 74.042 113.743 73.9664C113.318 73.2421 113.358 72.5072 113.745 71.7891C113.992 71.323 114.366 70.9975 115.013 71.1298Z" fill="#CCCCCC"/>
<path d="M150.669 111.733C149.619 111.718 148.777 111.483 148.05 110.973C147.422 110.532 146.805 110.053 146.272 109.505C143.278 106.425 140.309 103.32 137.332 100.225C137.075 99.9581 136.798 99.7145 136.542 99.45C135.486 98.354 134.927 97.0711 135.144 95.5257C135.528 92.7857 138.407 91.4335 140.796 92.6975C141.321 92.9747 141.825 93.3463 142.241 93.7725C144.353 95.931 146.429 98.1251 148.525 100.298C148.943 100.733 149.369 101.168 149.831 101.55C150.377 102.001 150.939 101.993 151.469 101.518C151.84 101.184 152.161 100.787 152.47 100.393C153.524 99.0448 154.563 97.6842 155.609 96.3299C160.178 90.4026 164.745 84.4753 169.313 78.55C169.866 77.832 170.416 77.1118 170.985 76.4063C171.482 75.7869 172.131 75.4069 172.898 75.178C174.495 74.7035 176.606 75.5832 177.284 77.6262C177.699 78.8818 177.55 80.0891 176.765 81.1704C175.997 82.2286 175.19 83.2596 174.395 84.2989C171.638 87.8935 168.879 91.486 166.12 95.0785C163.321 98.7256 160.522 102.373 157.725 106.02C157.093 106.845 156.472 107.681 155.832 108.499C155.231 109.268 154.557 109.973 153.774 110.557C152.806 111.277 151.737 111.722 150.669 111.733Z" fill="black"/>
<path d="M176.365 78.8587C176.394 79.5621 176.159 80.171 175.735 80.7253C174.04 82.9383 172.358 85.1577 170.664 87.3707C168.581 90.0897 166.49 92.8004 164.407 95.5174C161.444 99.3786 158.492 103.248 155.519 107.103C154.988 107.794 154.394 108.437 153.814 109.087C153.384 109.57 152.844 109.913 152.275 110.207C150.919 110.906 149.615 110.79 148.393 109.898C147.908 109.543 147.448 109.142 147.026 108.714C145.964 107.639 144.933 106.536 143.883 105.447C141.647 103.127 139.404 100.811 137.168 98.4884C136.484 97.7787 136.129 96.9325 136.186 95.9352C136.293 94.056 138.069 92.8718 139.856 93.4786C140.341 93.6445 140.775 93.8964 141.134 94.2576C141.867 94.9945 142.592 95.7399 143.314 96.4895C145.015 98.2532 146.707 100.027 148.418 101.781C148.744 102.112 149.128 102.398 149.52 102.65C150.274 103.135 151.045 103.074 151.803 102.631C152.214 102.39 152.544 102.06 152.834 101.684C154.15 99.9854 155.475 98.2952 156.787 96.5945C159.903 92.5547 163.015 88.5087 166.129 84.4669C167.808 82.2874 169.492 80.108 171.176 77.9307C171.422 77.6115 171.676 77.2987 171.945 76.9984C172.673 76.1816 173.601 75.9528 174.601 76.3034C175.628 76.6646 176.236 77.4414 176.348 78.5585C176.36 78.6571 176.36 78.7579 176.365 78.8587Z" fill="#D52B1E"/>
<path d="M112.082 18.9892C112.355 19.4238 112.237 19.7115 112.162 20.0012C111.996 20.65 111.807 21.2946 111.679 21.9518C111.232 24.2362 111.358 26.4976 112.059 28.7148C112.502 30.1153 113.195 31.3667 114.44 32.2338C114.639 32.3724 114.805 32.532 114.837 32.786C114.868 33.0359 114.805 33.2647 114.604 33.4159C114.446 33.5356 114.259 33.6196 114.081 33.7078C112.999 34.2432 111.906 34.7555 110.835 35.3119C110.18 35.652 109.921 35.8641 109.05 35.0725C107.333 33.5125 106.224 31.606 105.768 29.3174C105.332 27.1191 105.357 24.9123 105.609 22.7014C105.707 21.8363 105.852 20.9734 106.016 20.1167C106.09 19.7262 106.226 19.3377 106.39 18.9745C106.556 18.6008 106.805 18.4979 107.215 18.5693C107.578 18.6323 107.937 18.7162 108.298 18.7939C109.291 19.0081 110.299 18.985 111.305 18.9829C111.57 18.9892 111.834 18.9892 112.082 18.9892Z" fill="black"/>
<path d="M90.5042 53.1528C90.4979 53.4866 90.4034 53.7008 90.1577 53.7932C89.973 53.8625 89.7693 53.8835 89.5719 53.9171C88.3772 54.1207 87.3295 54.6268 86.5127 55.5233C85.8807 56.2162 85.2991 56.9532 84.7154 57.688C83.8399 58.7925 82.9706 59.8927 81.8347 60.7577C80.598 61.7005 79.2584 62.4417 77.8055 62.9771C77.2512 63.1807 77.0517 63.1304 76.6821 62.6432C75.8507 61.5493 75.036 60.4407 74.213 59.3384C74.1731 59.2838 74.1374 59.2271 74.1038 59.1704C73.8245 58.6938 73.9148 58.3662 74.4082 58.0933C74.5258 58.0282 74.6539 57.9862 74.7778 57.9358C76.638 57.1568 78.1813 55.9684 79.4978 54.4357C80.325 53.474 81.2468 52.5796 82.2042 51.746C83.4598 50.6563 84.9317 49.9403 86.5568 49.5309C87.0796 49.3986 87.4555 49.4847 87.8061 49.892C88.6145 50.8327 89.448 51.7523 90.2606 52.6909C90.3845 52.8399 90.4454 53.0394 90.5042 53.1528Z" fill="black"/>
<path d="M137.639 39.736C137.656 40.2126 137.543 40.4436 137.31 40.6157C137.228 40.6745 137.144 40.7291 137.06 40.7837C136.062 41.4031 135.069 42.0288 134.068 42.6419C133.301 43.1122 133.058 43.0408 132.65 42.2681C132.493 41.9721 132.342 41.6718 132.165 41.3884C131.46 40.2525 130.536 39.358 129.337 38.7407C128.472 38.2956 127.624 37.8211 126.788 37.3256C125.768 36.7188 124.899 35.9335 124.22 34.953C123.849 34.4154 123.88 34.111 124.395 33.7729C125.489 33.057 126.593 32.3557 127.708 31.6733C128.201 31.3709 128.558 31.4759 128.747 32.0008C129.102 32.9793 129.805 33.6386 130.673 34.1068C131.733 34.6779 132.833 35.1776 133.935 35.6647C134.807 36.049 135.596 36.5361 136.281 37.1954C136.848 37.7413 137.259 38.3859 137.492 39.1376C137.572 39.3916 137.62 39.6541 137.639 39.736Z" fill="black"/>
<path d="M64.4286 43.5006C64.8528 43.5027 65.0417 43.6917 65.2538 43.8596C66.1441 44.5714 67.0322 45.2853 67.9435 45.9677C68.8085 46.6144 69.7765 47.0721 70.7948 47.4312C71.4331 47.6558 72.0777 47.8154 72.7538 47.8511C72.9532 47.8616 73.159 47.8658 73.3522 47.9141C73.8834 48.0506 74.0787 48.5335 73.7994 49.0038C73.6965 49.176 73.5726 49.3355 73.4488 49.4951C72.8504 50.2615 72.2499 51.0258 71.6473 51.7879C71.5234 51.9454 71.3785 52.0861 71.2441 52.2352C70.9502 52.5606 70.6394 52.6572 70.1733 52.5459C67.1057 51.8152 64.4328 50.335 62.0371 48.3256C61.5815 47.9435 61.1784 47.4795 60.8193 47.0028C60.5233 46.6081 60.6115 46.3561 60.9915 46.058C61.8608 45.3756 62.7216 44.6827 63.6014 44.0108C63.8848 43.7967 64.2145 43.6329 64.4286 43.5006Z" fill="black"/>
<path d="M87.9904 40.4581C87.8749 41.2518 87.7594 42.079 87.6334 42.9063C87.6082 43.0701 87.5557 43.2317 87.5011 43.3871C87.3647 43.7797 87.0854 43.9897 86.6697 43.9855C86.403 43.9834 86.1322 43.9729 85.8697 43.9246C84.2257 43.6181 82.5838 43.3031 80.9418 42.9819C80.7151 42.9378 80.4862 42.8706 80.272 42.7824C79.9907 42.6648 79.8668 42.4087 79.9781 42.1231C80.4169 41.0019 80.8746 39.8891 81.3303 38.7763C81.4919 38.3815 81.7775 38.2324 82.21 38.308C83.2326 38.4865 84.2572 38.644 85.2818 38.8099C85.8445 38.9001 86.4051 38.9883 86.9678 39.0786C87.1337 39.1059 87.3017 39.1227 87.4613 39.171C87.8329 39.2865 87.982 39.5069 87.9904 39.9206C87.9946 40.0843 87.9904 40.2502 87.9904 40.4581Z" fill="black"/>
<path d="M111.223 33.7834C111.126 33.8737 111.042 33.9871 110.929 34.0501C110.196 34.4658 110.034 34.4532 109.448 33.8464C108.336 32.6937 107.508 31.3793 107.111 29.8025C106.782 28.4944 106.616 27.1758 106.568 25.8299C106.505 24.0074 106.784 22.2185 107.034 20.4275C107.046 20.3435 107.145 20.27 107.204 20.1923C108.619 19.9761 109.415 20.6144 109.249 22.0862C109.022 24.1166 109.19 26.0987 109.562 28.0807C109.847 29.603 110.273 31.079 110.981 32.4711C111.183 32.8658 111.523 33.2774 111.223 33.7834Z" fill="#06438F"/>
<path d="M111.222 33.7834C111.02 33.2962 110.859 32.7881 110.611 32.3262C109.88 30.9551 109.546 29.4602 109.231 27.9631C109.089 27.2828 108.935 26.5962 108.982 25.8866C108.996 25.6598 108.902 25.4288 108.891 25.1979C108.864 24.5344 108.841 23.8688 108.849 23.2053C108.851 22.9428 108.967 22.6846 108.979 22.4221C109.003 21.9581 108.986 21.4899 108.986 20.9923C108.478 20.5408 107.85 20.3477 107.203 20.1923C107.212 20.0369 107.222 19.8815 107.235 19.6758C108.45 19.8165 109.603 19.9508 110.794 20.0894C110.794 20.2763 110.829 20.4464 110.787 20.5954C110.451 21.8006 110.29 23.0394 110.283 24.2761C110.271 26.6844 110.628 29.0318 111.94 31.1273C112.223 31.5787 112.582 31.984 112.908 32.4102C113.007 32.5383 113.107 32.6642 113.244 32.8385C112.572 33.2374 111.953 33.6217 111.222 33.7834Z" fill="#0479CE"/>
<path d="M86.6431 53.724C85.2951 54.988 84.1676 56.4367 83.0401 57.8939C81.8181 59.4749 80.2665 60.7011 78.444 61.5536C78.1458 61.6922 77.8288 61.7929 77.4718 61.9273C76.7453 60.9279 76.0441 59.962 75.3008 58.9353C75.5086 58.7862 75.6514 58.6603 75.8152 58.57C76.3443 58.2802 76.8881 58.0199 77.4109 57.7196C78.6476 57.0057 79.5904 55.9601 80.5499 54.9271C81.2764 54.1439 82.0512 53.4069 82.8049 52.6489C83.4873 52.5314 84.1004 52.187 84.787 52.0778C85.9292 51.8973 86.6074 52.4873 86.6431 53.724Z" fill="#06438F"/>
<path d="M86.643 53.7238C86.4477 53.3794 86.2315 53.0435 86.0593 52.6866C85.8409 52.2393 85.4798 52.1596 85.0578 52.2687C84.4804 52.4178 83.9093 52.5984 83.3382 52.7706C83.1324 52.8335 82.9476 52.8461 82.8027 52.6509C84.4531 51.389 85.673 50.799 86.9705 50.6709C87.5522 51.3281 88.1695 52.0252 88.8413 52.7873C88.665 52.8944 88.5453 52.9889 88.4109 53.0414C87.8251 53.2766 87.233 53.4991 86.643 53.7238Z" fill="#0479CE"/>
<path d="M135.197 40.5822C134.756 41.0483 134.229 41.3695 133.586 41.5921C133.454 41.3989 133.347 41.2373 133.231 41.0798C132.876 40.5927 132.538 40.0929 132.16 39.6247C131.409 38.6883 130.393 38.1025 129.364 37.5251C128.459 37.0169 127.575 36.4689 126.708 35.8957C126.21 35.5661 125.761 35.1609 125.467 34.575C125.872 34.0879 126.426 33.8318 126.918 33.5021C127.81 32.9079 127.814 32.9247 128.515 33.7331C128.778 34.0354 129.07 34.3147 129.349 34.6023C129.378 34.7325 129.458 34.827 129.561 34.9047L129.551 34.89C129.609 34.974 129.681 35.0433 129.763 35.1021L129.752 35.0916C131.012 35.9188 132.444 36.4689 133.603 37.4537C134.558 38.2704 135.388 39.1733 135.197 40.5822Z" fill="#06438F"/>
<path d="M135.198 40.5822C135.058 39.7088 134.631 38.9655 134.138 38.2537C134.046 38.1193 133.941 37.9724 133.806 37.8884C133.05 37.4138 132.393 36.7965 131.574 36.4102C131.127 36.2002 130.697 35.9399 130.287 35.6627C130.077 35.52 129.93 35.2869 129.754 35.0958C129.911 35.1126 130.084 35.0937 130.22 35.1546C131.345 35.6522 132.458 36.1834 133.59 36.6664C134.4 37.0128 135.11 37.4873 135.715 38.1277C136.16 38.6001 136.446 39.144 136.569 39.8074C136.152 40.1644 135.767 40.5276 135.198 40.5822Z" fill="#0479CE"/>
<path d="M129.763 35.1061C129.691 35.0348 129.622 34.9655 129.551 34.8941C129.7 34.8878 129.803 34.9256 129.763 35.1061Z" fill="#0479CE"/>
<path d="M72.3599 48.9577C71.7552 49.8941 71.1694 50.6899 70.5143 51.3807C67.5916 50.8767 63.3608 48.5692 62.0527 46.7929C62.437 46.268 63.9235 45.0649 64.608 44.7332C65.3534 45.3169 66.1114 45.9216 66.8777 46.5095C68.1648 47.4984 69.5758 48.248 71.1484 48.6742C71.5033 48.7708 71.8602 48.8422 72.3599 48.9577Z" fill="#D52B1E"/>
<path d="M82.2293 39.318C83.6885 39.5742 85.0344 39.8072 86.3761 40.0508C86.5 40.0739 86.6133 40.1537 86.7771 40.2292C86.7057 41.0964 86.67 41.951 86.4538 42.8181C85.8008 42.8979 85.2213 42.7383 84.6397 42.6375C84.0791 42.5389 83.5143 42.4675 82.962 42.3415C82.3888 42.2113 81.7568 42.2638 81.2109 41.8376C81.5385 41.025 81.8618 40.225 82.2293 39.318Z" fill="#0479CE"/>
<path d="M142.922 17.1123C142.922 16.4089 142.905 15.7034 142.928 15.0021C142.941 14.6053 143.136 14.3008 143.546 14.1769C144.763 13.8074 145.979 13.4274 147.203 13.0746C147.417 13.0137 147.669 13.0116 147.888 13.0578C148.27 13.1376 148.44 13.4022 148.413 13.7969C148.364 14.4982 148.297 15.1995 148.253 15.9029C148.163 17.3831 148.234 18.8529 148.522 20.31C148.969 22.5777 150.132 24.3246 152.177 25.4584C153.41 26.1429 154.657 26.7854 155.969 27.304C157.59 27.9444 159.186 28.6457 160.618 29.6703C161.724 30.4619 162.636 31.4319 163.391 32.5531C163.541 32.7736 163.673 33.0129 163.776 33.2586C163.998 33.8045 163.87 34.1111 163.305 34.363C162.411 34.7619 161.582 35.2617 160.861 35.9315C160.618 36.1582 160.406 36.4207 160.166 36.6558C159.801 37.017 159.478 37.0023 159.133 36.6285C158.772 36.2338 158.426 35.8244 158.046 35.4485C157.084 34.4995 155.98 33.7478 154.781 33.1242C153.265 32.3348 151.753 31.5369 150.258 30.7096C148.232 29.5884 146.529 28.0977 145.242 26.1576C144.702 25.3429 144.285 24.4673 143.98 23.5372C143.308 21.448 142.928 19.3085 142.922 17.1123Z" fill="black"/>
<path d="M113.481 0C113.624 0.06089 113.857 0.115482 114.038 0.245661C114.363 0.478722 114.655 0.762174 114.968 1.01203C115.413 1.36687 115.856 1.72592 116.318 2.05976C117.588 2.98151 119.027 3.51692 120.553 3.82977C122.109 4.14892 123.57 4.73472 124.962 5.4759C125.548 5.78875 126.086 6.20448 126.602 6.62651C127.822 7.62385 128.593 8.96762 129.325 10.3282C129.527 10.704 129.407 10.9602 128.998 11.1072C127.957 11.4788 126.913 11.8421 125.867 12.2011C125.613 12.2893 125.355 12.3628 125.097 12.43C124.32 12.6315 124.16 12.5601 123.942 11.7749C123.589 10.5067 122.804 9.59752 121.706 8.92143C120.897 8.42171 120.016 8.12146 119.098 7.8968C117.96 7.61545 116.816 7.35089 115.695 7.01074C113.28 6.27797 111.292 4.90899 109.801 2.85973C109.528 2.48389 109.28 2.07236 109.1 1.64613C108.848 1.04773 109.154 0.619398 109.811 0.531212C110.807 0.396834 111.8 0.24566 112.795 0.100784C112.994 0.0734886 113.192 0.0419931 113.481 0Z" fill="black"/>
<path d="M158.765 34.5604C158.496 34.363 158.204 34.1909 157.963 33.9662C157.27 33.3216 156.478 32.824 155.655 32.3705C154.013 31.4676 152.342 30.6151 150.721 29.6766C147.735 27.9444 145.585 25.5508 144.767 22.0885C144.34 20.287 144.051 18.4812 144.055 16.6294C144.055 16.3963 144.084 16.1632 144.099 15.9302C144.202 15.8399 144.317 15.7769 144.449 15.7454C145.892 15.3927 146.077 15.5564 146.142 17.0199C146.249 19.4303 146.845 21.7189 148 23.8438C148.729 25.1812 149.883 26.0589 151.185 26.8148C153.47 28.1439 155.966 29.0593 158.206 30.464C158.83 30.8545 159.43 31.2912 159.955 31.812C160.724 32.572 160.734 32.9773 159.972 33.7562C159.632 34.1027 159.355 34.5793 158.765 34.5604Z" fill="#D52B1E"/>
<path d="M158.764 34.5602C159.266 34.0689 159.772 33.5818 160.267 33.0841C160.332 33.019 160.355 32.9078 160.41 32.7965C160.231 32.2611 159.772 31.9566 159.371 31.6207C158.883 31.2154 158.346 30.8711 157.832 30.4974C157.122 29.9851 156.364 29.5777 155.511 29.3489C154.623 29.1116 153.905 28.5363 153.111 28.1101C152.671 27.8728 152.251 27.5893 151.793 27.3878C150.838 26.9636 149.958 26.4282 149.168 25.7458C148.578 25.2356 148.127 24.6141 147.753 23.9401C146.884 22.3738 146.403 20.6794 146.067 18.9262C145.914 18.1283 145.878 17.3367 145.874 16.5326C145.872 16.3058 145.836 16.079 145.813 15.846C145.21 15.8733 144.654 15.9006 144.098 15.9258C144.098 15.6948 144.098 15.4659 144.098 15.2476C144.912 14.7857 146.275 14.3636 147.039 14.3342C147.222 14.6849 147.125 15.0565 147.109 15.4197C147.018 17.2359 147.046 19.0438 147.455 20.8285C147.986 23.1318 149.204 24.9501 151.232 26.1889C152.666 27.0644 154.178 27.7888 155.738 28.4166C156.702 28.805 157.664 29.2124 158.587 29.6848C160.133 30.4743 161.46 31.5409 162.43 33.0065C162.503 33.1177 162.56 33.2374 162.617 33.3382C162.583 33.4243 162.577 33.5125 162.533 33.5419C161.584 34.1655 160.628 34.7807 159.635 35.4253C159.289 35.2489 158.999 34.9339 158.764 34.5602Z" fill="#E26B61"/>
<path d="M124.957 10.9476C124.701 10.5172 124.476 10.0636 124.184 9.6584C123.246 8.35032 121.917 7.59024 120.422 7.11572C119.594 6.85326 118.727 6.71889 117.892 6.47323C116.77 6.14358 115.641 5.81603 114.553 5.3877C112.915 4.74521 110.999 3.05499 110.32 1.68181C110.373 1.46345 110.56 1.49285 110.717 1.46975C111.446 1.35637 112.174 1.25768 112.899 1.12541C113.222 1.06662 113.489 1.11491 113.736 1.32907C114.066 1.61253 114.408 1.88338 114.742 2.16264C116.038 3.25236 117.461 4.11111 119.107 4.56674C119.168 4.58354 119.219 4.63603 119.275 4.67382C120.924 5.415 122.628 6.0323 124.138 7.06533C124.938 7.61334 125.551 8.29993 126.024 9.12719C126.557 10.0615 126.097 10.8384 124.957 10.9476Z" fill="#E26B61"/>
<path d="M124.957 10.9475C125.49 10.7669 125.824 10.368 126.16 9.87667C125.663 9.01791 125.222 8.12976 124.375 7.53766C123.284 6.77338 122.129 6.12459 120.877 5.65007C120.285 5.42541 119.731 5.12516 119.275 4.67163C119.668 4.74302 120.069 4.79341 120.455 4.8921C121.759 5.22384 123.013 5.70256 124.214 6.30936C125.894 7.15762 127.071 8.4951 127.905 10.158C127.918 10.1811 127.901 10.2189 127.892 10.3197C127.657 10.4289 127.395 10.5696 127.12 10.6745C126.555 10.8887 125.986 11.0882 125.415 11.2855C125.167 11.3716 125.108 11.3254 124.957 10.9475Z" fill="#EA958E"/>
<path d="M221.166 41.8503C220.96 41.7852 220.786 41.7621 220.65 41.6781C220.393 41.5228 220.146 41.3443 219.917 41.1511C218.915 40.3092 217.922 39.4567 216.927 38.6084C216.45 38.2011 216.444 37.9093 216.937 37.588C217.414 37.2773 217.893 36.9539 218.411 36.725C219.36 36.3051 220.318 35.8894 221.307 35.5765C224.937 34.428 228.664 33.7729 232.46 33.5063C234.333 33.374 236.208 33.2396 238.083 33.122C239.868 33.0129 241.61 32.6769 243.317 32.1688C245.365 31.5578 247.223 30.571 248.898 29.244C249.293 28.9311 249.679 28.6099 250.093 28.3222C250.456 28.0703 250.754 28.1522 250.996 28.5973C251.447 29.4329 252.075 30.13 252.697 30.8355C252.896 31.0623 253.102 31.2848 253.284 31.5242C253.564 31.8916 253.551 32.0533 253.215 32.3893C252.424 33.1766 251.504 33.7834 250.544 34.3461C247.636 36.0511 244.479 36.9812 241.169 37.525C238.782 37.9176 236.38 38.1255 233.976 38.3607C231.606 38.5937 229.239 38.8457 226.898 39.3076C225.059 39.6688 223.392 40.4204 221.838 41.4535C221.613 41.5983 221.38 41.7222 221.166 41.8503Z" fill="black"/>
<path d="M250.865 32.8616C250.737 32.9645 250.619 33.0863 250.479 33.1703C247.753 34.766 244.82 35.757 241.71 36.3114C238.83 36.8258 235.92 37.0462 233.016 37.3444C230.847 37.5669 228.68 37.8252 226.536 38.2535C224.802 38.6021 223.21 39.2887 221.707 40.202C221.48 40.3406 221.251 40.4729 220.991 40.6261C220.281 40.0865 219.622 39.5301 219.02 38.9065C219.066 38.3942 219.521 38.3333 219.859 38.1486C222.644 36.6242 225.701 35.9859 228.781 35.4505C231.552 34.9697 234.362 34.7618 237.142 34.3293C238.431 34.1739 239.722 34.0332 241.009 33.8569C241.666 33.7666 242.315 33.6112 242.968 33.4831C245.011 33.101 246.924 32.3598 248.778 31.4297C249.834 30.9026 250.804 31.5892 250.865 32.8616Z" fill="#E26B61"/>
<path d="M250.866 32.8617C250.75 32.6664 250.658 32.4523 250.515 32.278C250.263 31.9715 249.984 31.6859 249.671 31.3458C249.49 31.4151 249.274 31.4759 249.079 31.5788C247.958 32.1646 246.809 32.6874 245.604 33.0696C244.749 33.3404 243.87 33.4916 242.967 33.4853C243.149 33.4076 243.326 33.3152 243.513 33.2544C245.827 32.5006 247.951 31.4025 249.807 29.8109C249.927 29.708 250.068 29.6304 250.324 29.454C250.402 29.5989 250.452 29.729 250.532 29.8319C251.061 30.5143 251.596 31.1904 252.149 31.8896C251.787 32.3578 251.368 32.6623 250.866 32.8617Z" fill="#EA958E"/>
<path d="M183.248 31.6375C183.346 33.5776 183.094 33.3215 181.774 33.7309C180.846 34.0185 179.901 34.2495 178.964 34.5036C178.771 34.5561 178.576 34.6085 178.376 34.64C177.688 34.745 177.278 34.3944 177.287 33.6889C177.291 33.4243 177.362 33.1598 177.396 32.8931C177.448 32.4606 177.524 32.0302 177.537 31.5976C177.572 30.5352 177.131 29.7143 176.205 29.1767C175.685 28.8744 175.156 28.5825 174.629 28.2886C173.136 27.4592 171.886 26.3611 170.967 24.9207C170.627 24.3874 170.307 23.8205 170.104 23.2242C169.726 22.1156 169.424 20.9797 169.125 19.8459C168.966 19.237 169.048 19.1215 169.587 18.7856C170.383 18.2879 171.179 17.7903 171.973 17.2927C172.115 17.2045 172.25 17.1016 172.399 17.026C172.982 16.7279 173.344 16.9505 173.436 17.6013C173.524 18.2291 173.631 18.859 173.801 19.4679C174.44 21.7671 175.916 23.3859 177.986 24.5029C178.693 24.885 179.414 25.2441 180.113 25.643C181.217 26.2708 182.093 27.1212 182.632 28.2949C182.931 28.9437 183.078 29.6282 183.157 30.3295C183.206 30.7662 183.218 31.2029 183.248 31.6375Z" fill="black"/>
<path d="M180.773 32.8827C180.114 33.2207 179.396 33.3341 178.715 33.4853C178.419 33.2753 178.547 33.0296 178.592 32.8197C178.757 32.0554 178.768 31.3016 178.575 30.5374C178.352 29.6513 177.873 28.9479 177.113 28.4566C176.498 28.0577 175.858 27.6944 175.215 27.3375C173.08 26.1512 171.551 24.461 170.844 22.0883C170.663 21.4815 170.525 20.8643 170.367 20.2512C170.682 19.743 171.222 19.6339 171.736 19.4932C172.154 19.3777 172.503 19.5415 172.605 19.9614C173.405 23.2621 175.9 25.051 178.556 26.7139C180.563 27.9716 181.458 30.6129 180.773 32.8827Z" fill="#D52B1E"/>
<path d="M180.772 32.8827C180.707 31.8476 180.802 30.7998 180.539 29.7794C180.497 29.6177 180.522 29.4225 180.436 29.2944C179.901 28.4944 179.466 27.6105 178.631 27.052C177.795 26.4935 176.957 25.9391 176.134 25.3659C174.61 24.3035 173.447 22.9534 172.84 21.1666C172.701 20.7551 172.571 20.3415 172.42 19.9341C172.376 19.8166 172.273 19.7221 172.166 19.5772C171.555 19.8061 170.965 20.0265 170.373 20.2491C170.253 20.0685 170.173 19.8439 170.366 19.7074C170.986 19.2685 171.601 18.8108 172.367 18.5043C172.47 18.8381 172.567 19.1153 172.638 19.3987C173.331 22.1661 174.996 24.1649 177.469 25.5234C178.175 25.9098 178.891 26.2772 179.588 26.674C180.997 27.4761 181.786 28.6876 181.973 30.3043C182.055 31.0035 182.143 31.6985 182.059 32.4124C181.688 32.742 181.253 32.8764 180.772 32.8827Z" fill="#E26B61"/>
<path d="M237.141 34.3293C236.45 34.7031 235.671 34.7556 234.926 34.8857C233.744 35.0915 232.539 35.1629 231.35 35.3351C229.135 35.6563 226.928 36.0175 224.761 36.5886C224.31 36.7082 223.854 36.8174 223.401 36.935C223.239 36.977 223.073 37.0148 222.922 37.0841C221.618 37.6888 220.319 38.2977 219.019 38.9066C218.675 38.7575 218.406 38.5202 218.16 38.1801C218.374 38.0394 218.557 37.8967 218.756 37.7896C219.913 37.1744 221.14 36.7355 222.395 36.3807C225.425 35.5198 228.499 34.9067 231.646 34.6821C233.112 34.5771 234.575 34.4364 236.043 34.3272C236.406 34.2999 236.776 34.3272 237.141 34.3293Z" fill="#EA958E"/>
<path d="M219.576 53.029C220.578 51.8868 221.502 50.8285 222.434 49.7766C222.543 49.6527 222.677 49.5394 222.822 49.4638C223.173 49.279 223.53 49.2685 223.857 49.531C223.962 49.6149 224.076 49.6947 224.16 49.7955C224.932 50.7215 225.707 51.6474 226.467 52.5839C226.803 52.9975 226.816 53.4384 226.478 53.873C225.657 54.9313 224.84 55.9958 224.013 57.0498C223.891 57.2031 223.723 57.3333 223.555 57.4362C223.238 57.6272 222.883 57.5516 222.684 57.2178C222.005 56.0903 221.13 55.1181 220.307 54.1019C220.059 53.7912 219.858 53.4426 219.576 53.029Z" fill="black"/>
<path d="M223.41 56.1217C222.919 55.6955 221.365 53.7302 221 53.0814C221.653 52.1807 222.386 51.3303 223.215 50.606C223.335 50.6312 223.425 50.6207 223.459 50.6584C224.097 51.3849 224.733 52.1156 225.359 52.8526C225.525 53.0479 225.554 53.2851 225.407 53.5056C224.802 54.4231 224.149 55.305 223.41 56.1217Z" fill="#D52B1E"/>
<path d="M208.244 65.1083C206.692 65.6311 205.267 66.114 203.839 66.5927C203.713 66.6347 203.58 66.6704 203.448 66.683C203.194 66.7061 202.988 66.6137 202.871 66.3744C202.827 66.2841 202.772 66.1938 202.751 66.0993C202.323 64.1991 200.99 63.1577 199.289 62.4921C198.699 62.2612 198.071 62.1268 197.46 61.9525C196.204 61.5956 194.924 61.3058 193.693 60.8754C191.545 60.1216 189.828 58.7547 188.497 56.9091C188.264 56.5858 188.054 56.2331 187.9 55.8635C187.619 55.1874 187.902 54.7696 188.616 54.6814C189.58 54.5617 190.546 54.44 191.501 54.2636C192.175 54.1397 192.711 54.23 193.244 54.7255C194.176 55.5927 195.182 56.3758 196.33 56.9595C197.021 57.3102 197.729 57.602 198.489 57.7658C200.101 58.1122 201.657 58.6225 203.154 59.3174C204.779 60.0712 206.083 61.1882 207.045 62.7021C207.387 63.2396 207.725 63.7792 208.036 64.3356C208.139 64.5225 208.154 64.7618 208.244 65.1083Z" fill="black"/>
<path d="M203.737 65.0199C203.624 64.8582 203.492 64.7091 203.401 64.537C202.843 63.4577 202.003 62.6662 200.962 62.0636C199.992 61.5009 198.946 61.1691 197.863 60.9067C196.657 60.6127 195.45 60.3125 194.272 59.9282C192.338 59.2983 190.753 58.1414 189.514 56.5226C189.359 56.3189 189.248 56.0817 189.141 55.899C189.256 55.6281 189.445 55.6617 189.598 55.6344C190.26 55.519 190.925 55.4245 191.583 55.2964C192.017 55.2124 192.345 55.3279 192.681 55.6197C193.313 56.1699 193.97 56.6948 194.648 57.1882C195.803 58.0259 197.113 58.5404 198.478 58.9246C198.597 59.0212 198.765 58.996 198.887 59.0863L198.877 59.0527C200.12 59.6112 201.386 60.1109 202.56 60.8227C203.471 61.3749 204.199 62.0825 204.775 62.9664C205.549 64.1569 205.18 64.8939 203.737 65.0199Z" fill="#E26B61"/>
<path d="M203.736 65.02C204.544 64.621 204.544 64.621 205.084 63.966C204.427 62.8216 203.704 61.7487 202.47 61.0747C201.533 60.5645 200.616 60.0333 199.616 59.6491C199.316 59.5336 198.968 59.4412 198.873 59.0507C201.313 59.5336 203.57 60.3902 205.304 62.2736C205.869 62.8888 206.321 63.5943 206.743 64.4006C205.857 64.9339 204.912 65.2026 203.91 65.4924C203.845 65.3118 203.79 65.1649 203.736 65.02Z" fill="#EA958E"/>
<path d="M256.676 80.95C257.476 80.8765 258.124 80.9878 258.645 81.5925C258.948 81.9452 259.342 82.2203 259.685 82.5415C259.978 82.8166 260.256 83.1085 260.543 83.3877C260.86 83.6964 260.965 84.0239 260.812 84.4753C260.64 84.9792 260.545 85.5147 260.436 86.0396C259.586 90.1423 259.739 94.245 260.432 98.3477C260.604 99.3724 260.818 100.391 260.997 101.415C261.274 103.013 261.211 104.626 261.144 106.236C261.133 106.501 261.081 106.772 260.999 107.024C260.886 107.38 260.587 107.553 260.212 107.494C260.014 107.464 259.823 107.393 259.634 107.326C258.721 106.992 257.81 106.654 256.898 106.314C256.741 106.255 256.585 106.19 256.436 106.114C256.14 105.965 255.985 105.722 255.991 105.386C255.993 105.218 255.998 105.05 256.019 104.884C256.365 102.247 256.054 99.6621 255.412 97.1027C255.231 96.3867 255.063 95.6686 254.876 94.9547C254.341 92.9096 254.32 90.8373 254.555 88.7565C254.822 86.3776 255.387 84.068 256.279 81.8445C256.401 81.5379 256.546 81.2398 256.676 80.95Z" fill="black"/>
<path d="M233.895 90.7177C234.128 90.6925 234.497 90.6778 234.856 90.6106C236.242 90.3566 237.624 90.0794 239.011 89.8253C240.67 89.523 242.293 89.691 243.855 90.3146C244.315 90.4972 244.731 90.7975 245.153 91.0683C245.407 91.2321 245.459 91.482 245.363 91.7759C245 92.8908 244.645 94.01 244.286 95.127C244.225 95.318 244.172 95.5154 244.093 95.6981C243.817 96.3238 243.566 96.4519 242.913 96.3007C242.585 96.2251 242.262 96.139 241.936 96.0592C240.361 95.6813 238.801 95.801 237.256 96.2188C235.916 96.582 234.558 96.75 233.174 96.7311C233.006 96.729 232.836 96.7458 232.673 96.7227C232.25 96.666 231.994 96.3994 232.041 95.9626C232.2 94.4278 232.376 92.8929 232.58 91.3644C232.662 90.7555 232.943 90.5875 233.563 90.6484C233.626 90.6589 233.693 90.6778 233.895 90.7177Z" fill="black"/>
<path d="M207.98 106.192C207.946 106.27 207.909 106.442 207.81 106.568C206.964 107.651 206.109 108.731 205.248 109.801C204.992 110.12 204.661 110.183 204.255 110.087C201.087 109.329 198.324 107.798 195.88 105.676C195.481 105.329 195.147 104.894 194.838 104.462C194.62 104.155 194.704 103.897 194.99 103.668C195.909 102.938 196.831 102.211 197.753 101.487C197.858 101.405 197.969 101.327 198.084 101.26C198.614 100.953 198.782 100.974 199.254 101.357C200.037 101.989 200.818 102.623 201.614 103.24C202.63 104.027 203.756 104.63 204.98 105.016C205.582 105.205 206.221 105.287 206.844 105.405C207.039 105.442 207.247 105.417 207.443 105.459C207.745 105.522 207.978 105.822 207.98 106.192Z" fill="black"/>
<path d="M215.318 77.1748C215.318 76.7906 215.436 76.5197 215.726 76.3601C215.988 76.2153 216.272 76.1061 216.538 75.9675C217.309 75.5644 218.073 75.1486 218.844 74.7476C219.079 74.6237 219.32 74.5019 219.574 74.4242C219.849 74.3403 220.118 74.4662 220.259 74.7161C220.355 74.8904 220.437 75.0772 220.494 75.2683C220.895 76.6415 221.653 77.8257 222.491 78.9574C223.066 79.7364 223.702 80.4712 224.338 81.204C225.141 82.1279 225.138 82.2497 224.126 82.9824C223.261 83.6102 222.35 84.175 221.575 84.9288C221.233 85.2627 220.956 85.2564 220.614 84.9057C219.841 84.1183 219.058 83.3352 218.35 82.4911C217.489 81.4644 216.75 80.3432 216.116 79.1611C215.85 78.6613 215.652 78.1238 215.436 77.5989C215.369 77.4498 215.346 77.2819 215.318 77.1748Z" fill="black"/>
<path d="M257.763 65.0368C257.732 65.2006 257.705 65.3665 257.667 65.5303C257.322 67 256.978 68.4698 256.632 69.9395C256.594 70.1033 256.552 70.265 256.501 70.4267C256.285 71.13 256.004 71.2938 255.313 71.0922C254.765 70.9348 254.215 70.7773 253.682 70.5778C252.802 70.2482 251.933 69.8912 251.063 69.5364C250.847 69.4482 250.635 69.339 250.44 69.211C250.022 68.938 249.913 68.6587 250.014 68.1821C250.035 68.0834 250.066 67.9869 250.098 67.8924C250.681 66.2126 251.267 64.5329 251.851 62.8532C251.884 62.7587 251.916 62.6621 251.96 62.5739C252.149 62.2002 252.413 62.0847 252.783 62.2422C254.173 62.8322 255.559 63.4285 256.944 64.0269C257.098 64.092 257.245 64.1781 257.385 64.2684C257.658 64.4468 257.812 64.6925 257.763 65.0368Z" fill="black"/>
<path d="M222.074 97.7389C221.923 98.732 221.793 99.7294 221.61 100.718C221.503 101.302 221.213 101.508 220.621 101.508C220.321 101.508 220.017 101.48 219.721 101.424C218.074 101.107 216.433 100.777 214.789 100.452C214.658 100.426 214.524 100.405 214.398 100.357C214.077 100.237 213.932 99.9561 214.056 99.6349C214.455 98.604 214.866 97.5772 215.28 96.5505C215.33 96.4266 215.41 96.3153 215.473 96.1978C215.637 95.8954 215.885 95.7799 216.227 95.8429C216.852 95.9563 217.48 96.0655 218.11 96.1642C219.07 96.3153 220.033 96.456 220.993 96.6009C221.125 96.6219 221.26 96.6345 221.39 96.6681C221.896 96.8004 222.022 96.9767 222.024 97.5289C222.024 97.5961 222.024 97.6633 222.024 97.7305C222.043 97.7347 222.058 97.7368 222.074 97.7389Z" fill="black"/>
<path d="M259.513 106.062C259.164 105.949 258.812 105.846 258.467 105.722C258.06 105.575 257.661 105.409 257.216 105.235C257.245 104.815 257.273 104.422 257.298 104.03C257.445 101.67 257.189 99.3515 256.609 97.0629C256.46 96.4792 256.319 95.8934 256.162 95.3118C255.698 93.5837 255.519 91.8284 255.633 90.0395C255.778 87.7593 256.135 85.5169 256.895 83.3521C256.96 83.1653 257.06 82.991 257.144 82.8104C258.331 83.1254 259.049 84.1563 258.73 85.2376C257.732 88.6097 257.999 91.9649 258.52 95.3894C258.992 98.4927 259.7 101.571 259.803 104.725C259.819 105.186 259.882 105.676 259.513 106.062Z" fill="#E26B61"/>
<path d="M259.513 106.062C259.513 105.76 259.503 105.459 259.517 105.157C259.584 103.61 259.293 102.104 259.011 100.594C258.877 99.8742 258.841 99.1373 258.694 98.4213C258.47 97.3106 258.522 96.1683 258.195 95.0639C257.98 94.3395 258.035 93.5396 257.873 92.7942C257.68 91.8976 257.703 91.0011 257.705 90.1003C257.709 88.387 257.972 86.7136 258.488 85.0801C258.549 84.889 258.604 84.6979 258.677 84.4481C258.23 83.8686 257.718 83.3143 257.143 82.8124C257.206 82.5626 257.271 82.3127 257.357 81.9789C257.571 82.1028 257.724 82.1616 257.838 82.2644C258.362 82.7348 258.873 83.2198 259.396 83.6922C259.698 83.9673 259.788 84.2591 259.675 84.6769C258.377 89.5103 258.493 94.3731 259.44 99.2422C259.773 100.958 260.101 102.671 260.076 104.428C260.069 104.932 260.055 105.434 260.025 105.936C260.017 106.173 259.87 106.203 259.513 106.062Z" fill="#EA958E"/>
<path d="M241.791 94.9695C241.293 94.9066 240.798 94.8205 240.298 94.789C239.253 94.7218 238.23 94.8919 237.212 95.1249C236.168 95.3643 235.127 95.6477 234.039 95.591C233.844 95.5805 233.649 95.5575 233.47 95.5428C233.281 94.7344 233.309 94.4488 233.791 91.9292C233.865 91.8915 233.949 91.8138 234.037 91.8096C235.589 91.7508 237.073 91.3098 238.585 91.0201C238.78 90.9823 238.98 90.9739 239.177 90.9529C239.975 90.9382 240.769 90.9508 241.545 91.1608C242.131 91.3182 242.505 91.6668 242.44 92.2946C242.345 93.2121 242.249 94.1381 241.791 94.9695Z" fill="#06438F"/>
<path d="M241.79 94.9694C241.714 94.287 241.914 93.6424 242.084 92.9978C242.197 92.5674 242.241 92.1496 242.138 91.6855C241.414 91.2992 240.616 91.2383 239.827 91.1438C239.598 91.1166 239.352 91.1606 239.178 90.9507C240.868 90.4971 242.476 90.747 244.022 91.5155C244.076 91.5428 244.108 91.6121 244.15 91.6625C244.062 92.3343 243.371 94.5264 243.035 95.1794C242.609 95.2214 242.193 95.1374 241.79 94.9694Z" fill="#0479CE"/>
<path d="M198.616 102.171C200.917 104.202 203.265 105.963 206.326 106.501C206.2 107.068 205.82 107.406 205.526 107.794C205.228 108.191 204.989 108.647 204.552 108.903C202.028 108.674 197.34 106.117 196.055 104.242C196.876 103.576 197.701 102.91 198.616 102.171Z" fill="#D52B1E"/>
<path d="M222.244 82.8734C222.143 83.0035 222.061 83.1568 221.937 83.2555C221.704 83.4403 221.446 83.5914 221.162 83.7825C220.957 83.6376 220.753 83.5305 220.591 83.3773C219.439 82.2918 218.529 81.0152 217.713 79.6672C217.314 79.01 216.892 78.3633 216.682 77.6137C216.646 77.4877 216.642 77.3534 216.625 77.2232C216.793 77.1056 216.988 77.0636 217.184 77.0216C218.775 76.6752 218.832 76.7046 219.573 78.1701C220.236 79.4824 220.984 80.7401 221.904 81.8907C222.124 82.1742 222.395 82.4534 222.244 82.8734Z" fill="#06438F"/>
<path d="M222.242 82.8733C222.107 82.6445 222.002 82.3883 221.83 82.1931C220.873 81.1096 220.188 79.8498 219.502 78.5922C219.231 78.0966 218.987 77.5885 218.725 77.0783C217.994 77.1287 217.308 77.177 216.621 77.2232C216.65 77.1644 216.665 77.0825 216.711 77.0531C217.541 76.5576 218.418 76.1629 219.319 75.7114C219.743 76.5009 220.104 77.2463 220.533 77.9497C220.965 78.6635 221.438 79.3564 221.942 80.022C222.441 80.6855 223.002 81.3028 223.548 81.9537C223.197 82.4408 222.777 82.7369 222.242 82.8733Z" fill="#0479CE"/>
<path d="M254.465 69.6161C253.318 69.3452 251.943 68.7783 251.275 68.3017C251.349 67.7327 252.069 65.4777 252.476 64.5286C253.474 64.3333 254.257 64.9149 255.101 65.2656C255.321 65.358 255.468 65.6162 255.405 65.8556C255.076 67.1049 255.111 68.4466 254.465 69.6161Z" fill="#E26B61"/>
<path d="M254.465 69.6162C254.511 68.5201 254.797 67.4682 255.04 66.4079C255.099 66.1559 255.17 65.9061 255.24 65.6394C254.832 65.2657 254.318 65.2279 253.868 65.0473C253.411 64.8626 252.943 64.7009 252.479 64.5287C252.5 64.1571 252.586 63.8127 252.825 63.5314C253.606 63.6993 255.794 64.6127 256.6 65.0998C256.562 65.8473 255.762 69.0493 255.395 69.9164C255.059 69.8975 254.744 69.8135 254.465 69.6162Z" fill="#EA958E"/>
<path d="M215.336 99.469C215.567 98.5809 215.88 97.7872 216.306 96.9935C217.098 96.8886 217.832 97.1804 218.582 97.2728C219.304 97.361 220.014 97.5562 220.713 97.7011C220.871 98.4864 220.766 99.4774 220.446 100.347C219.508 100.41 216.6 99.9226 215.336 99.469Z" fill="#0479CE"/>
<path d="M194 45.5604C193.586 45.5436 193.387 45.3273 193.204 45.0754C192.713 44.3951 192.215 43.719 191.716 43.045C191.455 42.6943 191.184 42.3521 190.924 42.0015C190.315 41.1847 190.387 40.9075 191.281 40.4834C191.766 40.2545 192.243 40.0047 192.721 39.7632C193.786 39.2278 194.674 38.4698 195.474 37.5943C196.268 36.7271 197.064 35.8621 197.897 35.0327C199.251 33.6826 200.847 32.7168 202.684 32.1646C202.877 32.1058 203.079 32.0827 203.27 32.0197C203.705 31.8748 204.047 31.9798 204.347 32.3283C205.162 33.2669 205.991 34.1907 206.81 35.1251C206.898 35.2238 206.97 35.3414 207.031 35.461C207.188 35.776 207.037 36.1644 206.699 36.2883C206.543 36.345 206.373 36.3681 206.207 36.3933C204.706 36.6242 203.514 37.378 202.571 38.5496C201.876 39.4126 201.194 40.286 200.507 41.1553C198.901 43.192 196.801 44.5273 194.407 45.4449C194.256 45.4995 194.093 45.5331 194 45.5604Z" fill="black"/>
<path d="M203.313 36.1748C203.275 36.2294 203.248 36.2965 203.197 36.3364C201.868 37.3863 200.879 38.7363 199.878 40.0738C198.778 41.5415 197.47 42.7551 195.834 43.6138C195.301 43.8931 194.801 44.2332 194.198 44.3466C193.585 43.8847 192.435 42.3435 192 41.384C192.279 41.0439 192.71 40.9221 193.092 40.7373C194.467 40.0654 195.616 39.108 196.649 37.9931C197.352 37.233 198.062 36.4771 198.782 35.7317C199.013 35.4924 199.286 35.2929 199.54 35.0766C200.138 35.0053 200.634 34.6399 201.213 34.4971C202.475 34.1885 203.254 34.7995 203.313 36.1748Z" fill="#06438F"/>
<path d="M203.312 36.1751C203.098 35.7992 202.892 35.4171 202.663 35.0476C202.56 34.8796 202.411 34.7389 202.269 34.5709C201.687 34.5772 201.154 34.7809 200.622 34.9552C200.261 35.0727 199.911 35.1315 199.539 35.079C200.652 34.1363 201.92 33.4959 203.295 33.1243C203.963 33.5568 204.971 34.678 205.322 35.3835C204.677 35.711 203.969 35.8832 203.312 36.1751Z" fill="#0479CE"/>
<path d="M254.802 145.441C254.411 145.449 254.172 145.34 254.017 145.097C253.891 144.899 253.79 144.687 253.689 144.477C253.139 143.329 252.593 142.178 252.045 141.03C251.974 140.878 251.888 140.731 251.841 140.572C251.739 140.213 251.867 139.904 252.184 139.707C252.297 139.638 252.421 139.585 252.545 139.533C253.807 138.989 255.067 138.445 256.331 137.905C256.515 137.826 256.702 137.746 256.895 137.7C257.181 137.63 257.439 137.716 257.595 137.972C257.802 138.317 258.01 138.663 258.17 139.031C258.678 140.198 259.165 141.374 259.658 142.548C259.711 142.672 259.755 142.797 259.787 142.928C259.85 143.182 259.776 143.404 259.556 143.541C259.329 143.681 259.087 143.805 258.84 143.904C257.658 144.379 256.473 144.845 255.287 145.307C255.1 145.378 254.901 145.414 254.802 145.441Z" fill="black"/>
<path d="M257.349 143.261C256.705 143.541 256.062 143.824 255.418 144.097C255.269 144.16 255.105 144.19 254.968 144.229C254.549 143.719 253.721 142.098 253.266 140.914C254.131 140.19 255.191 140.062 256.253 139.967C256.415 139.952 256.596 140.076 256.657 140.23C257.041 141.206 257.654 142.132 257.349 143.261Z" fill="#E26B61"/>
<path d="M257.349 143.262C257.086 142.338 256.826 141.412 256.553 140.49C256.517 140.37 256.41 140.274 256.322 140.141C256.118 140.167 255.915 140.165 255.732 140.221C254.974 140.461 254.233 140.763 253.425 140.805C253.37 140.807 253.317 140.878 253.265 140.916C253.202 140.811 253.141 140.706 253.078 140.601C253.878 140.12 256.062 139.19 256.883 138.97C257.334 139.593 258.168 141.546 258.493 142.758C258.189 143.068 257.777 143.184 257.349 143.262Z" fill="#EA958E"/>
<path d="M185.85 170.188C186.269 170.104 186.45 169.795 186.673 169.558C187.601 168.575 188.331 167.45 188.976 166.268C189.152 165.944 189.31 165.608 189.488 165.285C189.837 164.649 189.971 164.59 190.704 164.745C190.769 164.76 190.834 164.777 190.899 164.794C191.873 165.048 192.848 165.297 193.822 165.554C194.08 165.623 194.343 165.69 194.592 165.789C195.057 165.971 195.18 166.255 195.04 166.753C195.012 166.849 194.973 166.944 194.935 167.036C194.242 168.703 193.274 170.175 191.899 171.365C191.334 171.853 190.708 172.241 190.032 172.545C189.354 172.85 188.646 173.018 187.888 173.022C186.301 173.03 184.741 172.842 183.196 172.508C182.297 172.315 181.587 171.827 181.151 171.009C180.915 170.568 180.703 170.104 180.561 169.627C180.269 168.657 180.201 167.649 180.197 166.637C180.197 166.469 180.206 166.301 180.233 166.135C180.315 165.644 180.598 165.436 181.085 165.533C181.447 165.604 181.801 165.707 182.158 165.799C182.807 165.967 183.458 166.135 184.107 166.307C184.733 166.473 184.81 166.578 184.854 167.189C184.888 167.657 184.917 168.128 184.989 168.59C185.06 169.058 185.222 169.503 185.511 169.885C185.608 170.011 185.751 170.099 185.85 170.188Z" fill="black"/>
<path d="M203.377 147.769C203.727 147.839 204.088 147.914 204.449 147.981C205.51 148.183 206.581 148.193 207.654 148.183C208.561 148.175 208.67 148.315 208.397 149.187C207.794 151.099 207.588 153.054 207.746 155.047C207.855 156.426 208.147 157.764 208.745 159.021C209.184 159.943 209.73 160.794 210.595 161.358C211.32 161.831 211.2 162.543 210.438 162.878C209.274 163.393 208.122 163.939 207.005 164.543C206.36 164.892 205.869 164.793 205.371 164.331C204.126 163.177 203.116 161.86 202.524 160.25C202.022 158.885 201.772 157.47 201.705 156.021C201.607 153.936 201.777 151.866 202.169 149.819C202.276 149.264 202.459 148.721 202.648 148.185C202.755 147.874 203.022 147.727 203.377 147.769Z" fill="black"/>
<path d="M190.517 165.848C191.714 165.999 192.963 166.351 193.675 166.725C193.684 166.788 193.719 166.862 193.698 166.912C192.997 168.667 191.893 170.108 190.301 171.147C188.999 171.995 187.572 172.094 185.986 171.871C186.209 171.382 186.639 171.221 186.914 170.918C187.185 170.622 187.485 170.353 187.752 170.053C188.04 169.728 188.315 169.388 188.573 169.039C188.812 168.718 189.031 168.38 189.245 168.04C189.478 167.672 189.703 167.3 189.921 166.923C190.123 166.582 190.307 166.23 190.517 165.848Z" fill="#E26B61"/>
<path d="M181.382 166.725C182.237 166.824 182.924 167.049 183.612 167.296C183.732 167.975 183.782 168.644 183.975 169.268C184.158 169.858 184.492 170.402 184.784 171.019C184.389 171.34 183.923 171.441 183.413 171.393C182.911 171.344 182.554 171.051 182.266 170.664C182.147 170.505 182.035 170.332 181.958 170.152C181.496 169.096 181.33 167.991 181.382 166.725Z" fill="#E26B61"/>
<path d="M207.538 162.967C207.496 163.019 207.465 163.084 207.412 163.12C206.322 163.825 206.243 163.559 205.617 162.95C204.166 161.539 203.454 159.775 203.083 157.825C202.847 156.596 202.898 155.362 202.864 154.127C202.822 152.546 203.057 150.997 203.324 149.447C203.341 149.357 203.419 149.275 203.469 149.191C205.214 149.279 205.667 149.842 205.504 151.482C205.14 155.106 205.831 158.553 207.345 161.85C207.507 162.198 207.811 162.536 207.538 162.967Z" fill="#06438F"/>
<path d="M207.538 162.967C207.523 162.868 207.536 162.753 207.488 162.673C206.341 160.75 205.743 158.629 205.373 156.452C205.123 154.971 205.037 153.464 205.128 151.956C205.14 151.759 205.186 151.561 205.231 151.366C205.325 150.938 205.356 150.51 205.254 150.075C204.748 149.584 204.034 149.531 203.467 149.189C203.502 149.099 203.538 149.01 203.58 148.903C204.743 149.038 205.896 149.172 207.095 149.311C207.057 149.54 207.036 149.733 206.992 149.924C206.639 151.467 206.457 153.027 206.547 154.608C206.644 156.258 206.946 157.863 207.656 159.372C208.029 160.166 208.479 160.905 209.083 161.547C209.214 161.686 209.314 161.854 209.459 162.051C208.827 162.459 208.244 162.832 207.538 162.967Z" fill="#0479CE"/>
<path d="M115.323 171.197C115.3 170.628 115.258 170.059 115.256 169.49C115.254 168.877 115.472 168.659 116.1 168.608C117.202 168.524 118.307 168.472 119.405 168.369C120.751 168.243 122.027 167.84 123.249 167.267C123.491 167.153 123.726 167.019 123.974 166.918C124.454 166.727 124.723 166.813 124.984 167.265C125.267 167.758 125.529 168.264 125.792 168.768C126.21 169.57 126.634 170.368 127.031 171.181C127.316 171.764 127.226 172.048 126.651 172.312C123.657 173.685 120.537 174.487 117.215 174.343C116.915 174.33 116.614 174.29 116.316 174.24C115.768 174.147 115.56 173.948 115.476 173.4C115.426 173.07 115.426 172.732 115.405 172.398C115.38 171.997 115.359 171.596 115.336 171.193C115.331 171.197 115.327 171.197 115.323 171.197Z" fill="black"/>
<path d="M114.187 147.721C114.105 147.897 114.063 148.063 113.966 148.189C113.532 148.744 113.103 149.302 112.635 149.825C110.922 151.742 108.791 153.027 106.407 153.938C105.874 154.142 105.433 154.085 105.051 153.644C104.304 152.785 103.55 151.931 102.8 151.072C102.712 150.971 102.628 150.864 102.561 150.751C102.309 150.323 102.418 149.886 102.859 149.64C103.619 149.218 104.388 148.809 105.154 148.397C106.787 147.52 108.285 146.447 109.582 145.124C110.378 144.313 110.896 144.303 111.68 145.12C112.352 145.819 113.082 146.463 113.775 147.144C113.937 147.303 114.044 147.517 114.187 147.721Z" fill="black"/>
<path d="M125.202 171.617C124.753 171.831 124.318 172.079 123.854 172.251C121.796 173.011 119.667 173.37 117.473 173.345C117.307 173.343 117.139 173.343 116.973 173.322C116.681 173.289 116.532 173.169 116.516 172.885C116.457 171.924 116.419 170.958 116.377 169.996C116.375 169.969 116.409 169.937 116.425 169.91C116.665 169.763 116.931 169.751 117.198 169.761C119.115 169.832 120.984 169.564 122.785 168.898C123.476 168.642 123.988 168.848 124.268 169.488C124.574 170.198 125.353 170.706 125.202 171.617Z" fill="#D52B1E"/>
<path d="M125.2 171.617C125.005 171.271 124.81 170.922 124.612 170.576C124.382 170.171 124.146 169.768 123.911 169.364C123.661 168.938 123.567 168.898 123.105 169.039C122.595 169.196 122.093 169.377 121.581 169.524C119.888 170.005 118.162 170.045 116.424 169.91C116.497 169.814 116.556 169.652 116.646 169.633C116.873 169.583 117.113 169.589 117.346 169.585C119.582 169.537 121.753 169.19 123.798 168.229C123.911 168.176 124.048 168.168 124.157 168.145C124.636 168.787 125.526 170.528 125.837 171.435C125.622 171.496 125.412 171.556 125.2 171.617Z" fill="#E26B61"/>
<path d="M112.181 148.572C111.076 150.035 109.651 151.118 108.061 151.992C107.394 152.359 106.713 152.716 105.995 152.907C105.25 152.349 104.202 151.198 103.768 150.472C103.801 150.417 103.824 150.337 103.873 150.31C105.034 149.661 106.199 149.021 107.362 148.376C107.49 148.276 107.696 148.322 107.784 148.147L107.753 148.179C107.858 148.137 107.929 148.057 107.992 147.969L107.973 147.98C108.7 147.704 109.279 147.205 109.865 146.722C110.232 146.419 110.606 146.34 110.911 146.713C111.381 147.295 112.028 147.767 112.181 148.572Z" fill="#E26B61"/>
<path d="M112.181 148.571C111.777 148.084 111.376 147.595 110.969 147.112C110.822 146.938 110.654 146.778 110.461 146.573C110.274 146.705 110.117 146.816 109.963 146.93C109.615 147.188 109.275 147.461 108.916 147.706C108.636 147.9 108.326 148.028 107.971 147.979C108.832 147.249 109.695 146.518 110.597 145.752C111.059 145.955 111.339 146.388 111.71 146.703C112.088 147.022 112.428 147.389 112.781 147.729C112.659 148.124 112.458 148.374 112.181 148.571Z" fill="#EA958E"/>
<path d="M107.781 148.147C107.706 148.343 107.534 148.361 107.359 148.376C107.5 148.301 107.641 148.223 107.781 148.147Z" fill="#EA958E"/>
<path d="M93.8472 109.127C93.8472 109.463 93.8661 109.799 93.8409 110.133C93.8199 110.417 93.6603 110.635 93.3831 110.744C93.1963 110.818 93.0094 110.893 92.8162 110.948C91.653 111.269 90.4877 111.586 89.3224 111.903C89.2258 111.93 89.1251 111.947 89.0264 111.962C88.2369 112.075 87.8107 111.668 87.8947 110.862C87.9324 110.496 88.05 110.137 88.0836 109.772C88.1235 109.342 88.1487 108.903 88.1151 108.472C88.0542 107.645 87.6196 107.021 86.9267 106.587C86.4732 106.301 86.0008 106.043 85.5304 105.787C84.4932 105.222 83.5358 104.552 82.7127 103.696C81.77 102.713 81.0267 101.606 80.6068 100.305C80.3296 99.4438 80.086 98.5703 79.8404 97.699C79.7669 97.4407 79.7249 97.1741 79.6892 96.9074C79.6514 96.6177 79.7543 96.3951 80.0189 96.2334C80.9364 95.6791 81.8455 95.108 82.7631 94.5495C82.9332 94.4445 83.1095 94.3416 83.2964 94.2765C83.5841 94.1758 83.9305 94.3815 84.004 94.6734C84.0208 94.7385 84.0292 94.8057 84.0313 94.8707C84.0502 95.8618 84.3735 96.7751 84.7179 97.6885C85.2974 99.2254 86.3262 100.391 87.6721 101.283C88.2852 101.69 88.9466 102.024 89.5849 102.396C90.2211 102.768 90.8783 103.11 91.4809 103.532C92.6945 104.38 93.4062 105.575 93.6603 107.026C93.7821 107.719 93.8262 108.424 93.9039 109.123C93.8871 109.123 93.8661 109.125 93.8472 109.127Z" fill="black"/>
<path d="M91.4786 110.209C90.7437 110.507 89.9836 110.706 89.106 110.858C89.1438 110.616 89.1816 110.463 89.19 110.308C89.2257 109.676 89.295 109.039 89.2698 108.407C89.2278 107.379 88.7553 106.541 87.9323 105.932C87.4767 105.596 86.9748 105.323 86.4793 105.044C85.5156 104.502 84.5749 103.937 83.7708 103.158C82.7902 102.209 82.0154 101.138 81.6039 99.8303C81.3751 99.0996 81.1882 98.3563 80.9824 97.6172C81.1567 97.3989 81.4024 97.2918 81.6459 97.1742C82.7965 96.622 82.9855 96.6535 83.355 97.8398C84.2705 100.786 86.5318 102.465 88.959 104.04C91.382 105.619 91.7662 107.49 91.4786 110.209Z" fill="#D52B1E"/>
<path d="M91.4783 110.209C91.346 109.151 91.2053 108.092 91.0877 107.032C91.0542 106.717 90.9555 106.455 90.7371 106.224C90.6237 106.104 90.5355 105.959 90.4432 105.818C89.956 105.081 89.324 104.531 88.5619 104.067C87.596 103.477 86.668 102.805 85.8008 102.079C84.3709 100.882 83.5584 99.278 83.0335 97.5143C82.9873 97.3589 82.9432 97.2015 82.8802 96.981C82.6261 97.0587 82.4057 97.107 82.202 97.1952C81.8052 97.3674 81.4398 97.6235 80.9821 97.6214C80.8645 97.3946 80.8393 97.1805 81.0514 96.9852C81.3642 96.6997 82.4414 96.0845 82.9852 95.8976C83.0524 96.0803 83.1259 96.2608 83.1825 96.4456C83.3232 96.8928 83.445 97.3442 83.5962 97.7873C84.2975 99.8449 85.6664 101.357 87.4826 102.488C88.0789 102.858 88.7151 103.16 89.324 103.513C89.8447 103.813 90.3655 104.118 90.8589 104.462C91.4468 104.872 91.8835 105.428 92.1628 106.087C92.6688 107.284 92.7675 108.538 92.6457 109.781C92.274 110.093 91.873 110.142 91.4783 110.209Z" fill="#E26B61"/>
<path d="M107.753 125.188C107.65 125.332 107.575 125.538 107.426 125.635C107.117 125.832 106.779 125.99 106.439 126.128C105.383 126.557 104.32 126.97 103.26 127.384C103.105 127.445 102.943 127.497 102.779 127.529C102.414 127.602 102.107 127.491 101.916 127.165C101.763 126.907 101.643 126.628 101.513 126.357C100.99 125.27 100.47 124.182 99.9489 123.094C99.8775 122.943 99.7935 122.796 99.7452 122.637C99.6549 122.33 99.7704 122.015 100.031 121.841C100.142 121.767 100.266 121.711 100.388 121.658C101.711 121.089 103.035 120.52 104.36 119.953C104.453 119.913 104.543 119.869 104.64 119.838C105.083 119.695 105.335 119.775 105.576 120.167C105.736 120.424 105.88 120.69 106 120.965C106.531 122.196 107.054 123.43 107.575 124.665C107.638 124.82 107.682 124.982 107.753 125.188Z" fill="black"/>
<path d="M105.407 125.297C104.58 125.654 103.752 126.013 102.955 126.357C102.491 125.935 101.787 124.606 101.143 122.989C101.995 122.429 103.001 122.318 103.95 122.047C104.214 121.971 104.555 121.998 104.651 122.273C105 123.254 105.615 124.176 105.407 125.297Z" fill="#E26B61"/>
<path d="M105.407 125.297C105.086 124.287 104.765 123.277 104.435 122.238C104.282 122.248 104.15 122.233 104.03 122.267C103.392 122.448 102.758 122.651 102.117 122.823C101.8 122.907 101.469 122.937 101.143 122.989C101.093 122.909 101.04 122.832 100.996 122.76C101.042 122.685 101.063 122.603 101.112 122.582C102.182 122.105 103.257 121.635 104.332 121.167C104.479 121.104 104.639 121.068 104.782 121.022C105.3 121.822 106.172 123.926 106.378 124.862C106.117 125.131 105.773 125.238 105.407 125.297Z" fill="#EA958E"/>
<path d="M72.3751 121.969C71.0103 121.828 69.7085 121.518 68.455 121.016C66.5065 120.235 64.7638 119.111 63.1702 117.753C63.0421 117.644 62.9224 117.528 62.8049 117.409C62.5928 117.192 62.5676 116.932 62.6684 116.663C62.7272 116.508 62.8154 116.363 62.8993 116.218C63.4075 115.349 63.9135 114.48 64.4279 113.614C64.6672 113.209 64.9486 113.127 65.3454 113.377C65.8557 113.698 66.3386 114.064 66.8488 114.389C68.2388 115.277 69.698 116.025 71.2707 116.539C72.1 116.81 72.9378 117.049 73.8154 117.115C73.9477 117.125 74.0842 117.142 74.2081 117.186C74.5797 117.316 74.7855 117.688 74.6616 118.072C74.5272 118.486 74.3487 118.887 74.1871 119.29C73.9099 119.974 73.6433 120.663 73.3493 121.339C73.1037 121.904 72.9357 121.994 72.3751 121.969Z" fill="black"/>
<path d="M71.444 120.675C70.3941 120.602 69.4157 120.262 68.4583 119.855C66.9087 119.195 65.4914 118.311 64.1729 117.268C64.0679 117.184 63.9461 117.123 63.8789 117.079C64.1645 116.172 64.765 115.195 65.2878 114.729C65.4641 114.897 65.6846 114.996 65.8862 115.124L65.882 115.12C67.3559 116.417 69.0944 117.278 70.8351 118.135C72.0864 118.752 72.2481 119.403 71.444 120.675Z" fill="#0479CE"/>
<path d="M71.4429 120.676C71.5311 120.092 71.6214 119.508 71.7159 118.882C71.3001 118.673 70.9222 118.471 70.5359 118.29C68.9989 117.57 67.5523 116.701 66.1938 115.687C66.0048 115.546 65.8137 115.405 65.8809 115.122C66.2841 115.118 66.5381 115.42 66.8447 115.605C68.4215 116.564 70.0739 117.35 71.8566 117.843C72.3332 117.975 72.8182 118.078 73.341 118.204C73.0743 119.134 72.7153 119.951 72.3353 120.73C71.9972 120.894 71.718 120.818 71.4429 120.676Z" fill="#78A2D3"/>
<path d="M65.8875 115.124C65.5536 115.193 65.4129 114.975 65.2891 114.729C65.5746 114.729 65.7825 114.847 65.8875 115.124Z" fill="#78A2D3"/>
<path d="M85.2135 87.1504C82.2551 87.0748 79.3219 86.7914 76.4874 85.8759C75.5005 85.5568 74.5557 85.1158 73.5878 84.74C73.2182 84.5972 73.067 84.3369 73.1027 83.9589C73.1636 83.3248 73.2182 82.6886 73.3043 82.0587C73.4345 81.1286 73.5626 80.1984 73.741 79.2767C73.951 78.1933 74.8749 77.8552 75.6685 78.6342C76.9619 79.9024 78.5576 80.5491 80.2206 81.1034C81.8436 81.6451 83.4792 82.1322 85.1842 82.3548C87.2502 82.6256 89.2659 82.4346 91.2312 81.7396C93.5387 80.9249 95.8399 80.0935 98.0424 79.0184C98.6597 78.7182 98.9222 78.8001 99.3022 79.3691C99.3589 79.4531 99.4156 79.5371 99.4576 79.6273C99.8313 80.4504 100.216 81.2714 100.564 82.1049C100.753 82.5543 100.629 82.8797 100.226 83.1401C100.031 83.266 99.8145 83.3647 99.6046 83.4676C96.3669 85.0633 92.9697 86.1867 89.4192 86.825C88.0334 87.0727 86.6287 87.1861 85.2135 87.1504Z" fill="black"/>
<path d="M86.7032 132.713C86.6843 132.847 86.7011 132.963 86.6528 133.036C86.0859 133.91 85.4812 134.756 84.6539 135.409C81.8886 137.601 78.798 139.041 75.2768 139.497C73.6139 139.711 71.9573 139.978 70.2902 140.16C68.5621 140.349 66.9328 140.799 65.4735 141.767C64.7471 142.247 64.0416 142.753 63.4915 143.453C63.061 144.001 62.8385 144.028 62.196 143.69C61.8118 143.486 61.4443 143.249 61.0664 143.033C60.426 142.667 59.7835 142.306 59.1431 141.943C58.6497 141.664 58.5573 141.315 58.8995 140.874C60.9488 138.243 63.5482 136.444 66.8446 135.76C67.5291 135.617 68.2451 135.638 68.9464 135.577C69.8471 135.499 70.7479 135.426 71.6486 135.331C72.2491 135.268 72.8433 135.155 73.4438 135.092C76.2532 134.798 78.7602 133.756 80.9879 132.035C81.4897 131.646 81.9558 131.212 82.4283 130.788C82.655 130.584 82.9028 130.531 83.1694 130.645C83.4445 130.764 83.7216 130.895 83.9694 131.065C84.8492 131.663 85.8822 132.018 86.7032 132.713Z" fill="black"/>
<path d="M144.868 164.611C145.155 164.43 145.472 164.178 145.831 164.017C147.165 163.416 148.108 162.379 148.985 161.268C149.634 160.447 150.111 159.523 150.51 158.558C151.032 157.285 151.559 156.015 152.097 154.749C152.609 153.539 153.262 152.406 154.01 151.328C154.354 150.835 154.734 150.36 155.139 149.915C156.342 148.595 157.726 147.48 159.16 146.424C159.819 145.937 160.447 145.926 161.102 146.403C162.106 147.133 163.093 147.885 164.075 148.643C164.619 149.063 164.544 149.682 163.926 150.008C163.779 150.085 163.613 150.127 163.458 150.19C160.909 151.221 158.893 152.888 157.636 155.347C156.859 156.867 156.256 158.476 155.559 160.038C155.053 161.17 154.558 162.31 153.984 163.408C153.166 164.978 151.979 166.246 150.57 167.319C149.964 167.781 149.315 167.823 148.687 167.481C147.539 166.857 146.424 166.173 145.298 165.507C144.994 165.325 144.756 165.096 144.868 164.611Z" fill="black"/>
<path d="M213.84 131.033C213.96 130.322 214.316 129.889 214.762 129.511C216.267 128.228 217.972 127.306 219.881 126.811C221.145 126.483 222.44 126.278 223.721 126.005C225.262 125.677 226.805 125.354 228.34 124.995C229.795 124.655 231.114 124.002 232.321 123.122C233.623 122.173 234.937 121.241 236.06 120.073C236.176 119.953 236.302 119.836 236.443 119.748C236.686 119.594 236.949 119.565 237.198 119.743C237.935 120.268 238.67 120.798 239.403 121.329C239.51 121.406 239.624 121.492 239.695 121.602C240.18 122.339 240.367 122.547 239.603 123.223C237.887 124.734 236.071 126.114 234.083 127.252C233.117 127.806 232.059 128.155 230.992 128.451C229.148 128.961 227.299 129.446 225.447 129.923C223.248 130.49 221.208 131.415 219.307 132.64C218.866 132.923 218.463 132.999 217.987 132.845C217.764 132.774 217.525 132.74 217.311 132.65C216.294 132.215 215.282 131.77 214.272 131.319C214.13 131.252 214.004 131.14 213.84 131.033Z" fill="black"/>
<path d="M47.631 103.946C47.5323 103.904 47.3034 103.839 47.1039 103.721C46.2095 103.192 45.3213 102.652 44.4374 102.104C44.0741 101.88 43.9692 101.535 44.1182 101.155C44.1665 101.031 44.2379 100.916 44.3156 100.807C45.8525 98.642 47.5386 96.6074 49.508 94.8122C50.7636 93.6679 52.2418 93.1661 53.9131 93.1283C54.7509 93.1094 55.5886 93.0716 56.4264 93.0233C57.8647 92.9414 59.177 92.4585 60.3947 91.7047C61.5916 90.9636 62.7779 90.2077 63.7101 89.1201C64.0125 88.7673 64.4219 88.7631 64.7872 89.0508C64.9195 89.1537 65.0392 89.2733 65.1505 89.3972C65.7153 90.0271 66.3704 90.5373 67.1073 90.9552C67.7288 91.3079 67.8191 91.6585 67.437 92.2779C66.9205 93.1157 66.2276 93.8044 65.4528 94.3986C63.4917 95.9041 61.285 96.8132 58.8053 96.9938C57.9697 97.0547 57.1319 97.103 56.2941 97.1282C54.6816 97.1764 53.2895 97.7664 52.0885 98.8163C50.7615 99.9774 49.6613 101.315 48.9474 102.944C48.8404 103.188 48.7081 103.427 48.5548 103.643C48.3637 103.912 48.0887 104.023 47.631 103.946Z" fill="black"/>
<path d="M58.0316 64.7828C57.9854 65.104 57.8447 65.293 57.597 65.356C57.0468 65.4967 56.4925 65.6877 55.934 65.7213C54.7708 65.7906 53.7042 66.1329 52.6481 66.5948C49.8198 67.8357 47.5543 69.8051 45.5071 72.0602C45.0368 72.5788 44.493 73.0428 44.1991 73.7084C44.0941 73.9436 43.8505 74.0443 43.6049 73.9877C43.2815 73.9121 42.9435 73.8323 42.66 73.6706C41.816 73.1877 40.9908 72.6691 40.1698 72.1484C39.8171 71.9258 39.7121 71.5626 39.8654 71.1825C39.9389 70.9977 40.0438 70.8193 40.1635 70.6597C40.6045 70.0676 41.0202 69.4524 41.5094 68.9002C44.1844 65.8725 47.2478 63.3445 50.9746 61.7089C51.9552 61.2785 52.9819 60.953 53.9918 60.5919C54.1787 60.5247 54.3824 60.4911 54.5798 60.4722C54.8254 60.4491 55.0396 60.5268 55.1949 60.7388C55.8122 61.5724 56.5156 62.3388 57.0028 63.2689C57.2169 63.6784 57.5592 64.0206 57.8321 64.4006C57.9224 64.5308 57.9812 64.6862 58.0316 64.7828Z" fill="black"/>
<path d="M212.038 12.9718C211.939 12.4469 211.855 11.9199 211.74 11.4013C211.601 10.7777 211.723 10.4312 212.298 10.1856C212.695 10.0155 213.121 9.89582 213.545 9.80343C215.555 9.3751 217.583 9.14834 219.641 9.27222C221.06 9.35621 222.425 9.69425 223.739 10.2234C225.935 11.1073 227.909 12.365 229.748 13.8453C230.149 14.1686 230.277 14.5592 230.097 14.998C229.753 15.8336 229.362 16.6504 228.965 17.463C228.883 17.633 228.713 17.7968 228.543 17.8745C228.381 17.948 228.155 17.9459 227.976 17.9018C227.825 17.864 227.695 17.7275 227.569 17.6183C225.82 16.1129 223.819 15.04 221.679 14.2127C220.856 13.8936 219.991 13.7844 219.114 13.7697C217.331 13.7424 215.561 13.8852 213.808 14.2148C213.413 14.2883 213.014 14.3534 212.615 14.3891C212.258 14.4206 212.031 14.2421 211.985 13.8873C211.947 13.5912 211.977 13.2868 211.977 12.9844C211.996 12.9823 212.017 12.9781 212.038 12.9718Z" fill="black"/>
<path d="M200.474 23.2266C200.539 23.7809 200.34 24.1819 199.87 24.5095C198.706 25.3178 197.428 25.9057 196.166 26.5272C195.912 26.6511 195.649 26.649 195.385 26.5566C195.11 26.46 194.925 26.2438 194.944 25.954C194.961 25.6895 194.988 25.4102 195.087 25.1667C195.914 23.1132 195.507 21.1563 194.66 19.2246C194.163 18.0887 193.344 17.209 192.435 16.4048C191.248 15.355 189.955 14.4626 188.483 13.8516C188.391 13.8138 188.296 13.776 188.21 13.7235C187.885 13.5241 187.774 13.1923 187.958 12.8627C188.086 12.6317 188.252 12.4134 188.441 12.2286C189.065 11.6218 189.724 11.0507 190.167 10.2801C190.276 10.089 190.482 10.003 190.688 10.0575C191.074 10.1583 191.477 10.2465 191.822 10.4334C192.288 10.6895 192.722 11.0129 193.142 11.3446C194.994 12.8081 196.632 14.4815 198.007 16.4027C199.343 18.2672 200.075 20.3752 200.422 22.6261C200.449 22.8255 200.455 23.0271 200.474 23.2266Z" fill="black"/>
<path d="M103.454 50.5051C101.529 50.4904 99.6622 50.1062 97.8271 49.5561C97.6676 49.5078 97.4933 49.47 97.3631 49.3755C97.2371 49.2852 97.0797 49.1278 97.0776 48.9976C97.0692 48.3635 96.6849 47.868 96.5002 47.3011C96.3133 46.7321 96.0613 46.182 95.7884 45.6486C95.57 45.2203 95.6981 44.8802 95.927 44.5253C96.1369 44.1978 96.4477 44.1033 96.8004 44.1831C97.256 44.2881 97.7096 44.414 98.1526 44.561C99.3935 44.9726 100.626 45.3988 101.919 45.6297C103.358 45.888 104.783 45.8775 106.205 45.5185C107.83 45.109 109.445 44.6681 111.019 44.0907C111.145 44.0445 111.271 43.9983 111.399 43.9563C112.502 43.591 112.762 43.6834 113.174 44.7248C113.43 45.3778 113.635 46.056 113.799 46.7384C113.99 47.5236 113.728 48.0045 112.997 48.3782C112.938 48.4097 112.877 48.437 112.812 48.4601C110.251 49.3503 107.717 50.3498 104.962 50.4967C104.46 50.5282 103.956 50.5051 103.454 50.5051Z" fill="black"/>
<path d="M194.507 187.1C195.651 187.178 196.718 187.308 197.751 187.623C199.065 188.024 200.384 188.419 201.681 188.87C203.308 189.435 204.789 190.298 206.212 191.258C206.573 191.501 206.945 191.728 207.308 191.967C207.72 192.238 207.764 192.593 207.43 192.982C206.993 193.49 206.531 193.977 206.114 194.5C205.696 195.024 205.318 195.581 204.923 196.125C204.805 196.286 204.698 196.463 204.562 196.608C204.192 197.004 203.758 197.067 203.296 196.782C202.983 196.589 202.699 196.345 202.38 196.16C199.579 194.525 196.636 193.25 193.434 192.629C192.976 192.541 192.508 192.501 192.044 192.446C191.548 192.389 191.332 192.085 191.479 191.604C191.546 191.382 191.645 191.165 191.748 190.953C192.26 189.897 192.791 188.847 193.285 187.783C193.555 187.212 193.954 186.966 194.507 187.1Z" fill="black"/>
<path d="M188.59 156.55C187.401 156.58 186.33 156.607 185.283 156.861C185.153 156.893 185.022 156.928 184.89 156.941C184.392 156.996 184.128 156.859 183.933 156.401C183.79 156.063 183.685 155.708 183.578 155.358C183.372 154.686 183.162 154.014 182.982 153.336C182.832 152.771 183.003 152.439 183.523 152.2C183.674 152.131 183.836 152.08 183.998 152.04C186.217 151.488 188.468 151.2 190.761 151.272C191.296 151.289 191.832 151.295 192.365 151.31C192.564 151.316 192.768 151.316 192.963 151.35C193.371 151.421 193.539 151.604 193.555 152.028C193.585 152.693 193.587 153.361 193.602 154.029C193.616 154.631 193.637 155.232 193.65 155.834C193.656 156.172 193.524 156.351 193.177 156.347C191.605 156.328 190.053 156.779 188.59 156.55Z" fill="black"/>
<path d="M133.61 189.834C133.673 189.546 133.747 189.114 133.867 188.696C134.406 186.817 134.753 184.908 134.774 182.947C134.776 182.781 134.786 182.607 134.832 182.45C134.921 182.141 135.116 181.91 135.439 181.841C135.666 181.792 135.905 181.753 136.136 181.767C137.239 181.845 138.343 181.918 139.443 182.042C140.073 182.112 140.224 182.351 140.134 183.01C139.804 185.44 139.349 187.844 138.698 190.21C138.618 190.5 138.526 190.792 138.387 191.058C138.146 191.524 137.837 191.648 137.306 191.571C136.476 191.449 135.647 191.333 134.82 191.216C134.721 191.201 134.618 191.195 134.52 191.178C133.822 191.05 133.556 190.701 133.61 189.834Z" fill="black"/>
<path d="M159.278 172.688C159.24 172.781 159.2 172.909 159.137 173.024C158.99 173.287 158.822 173.539 158.675 173.799C158.215 174.614 157.762 175.433 157.308 176.251C157.147 176.543 157.016 176.858 156.823 177.127C156.5 177.572 156.105 177.679 155.584 177.52C155.488 177.49 155.395 177.452 155.303 177.41C153.898 176.783 152.49 176.157 151.089 175.521C150.879 175.426 150.671 175.3 150.499 175.149C150.1 174.792 150.037 174.444 150.333 173.992C150.755 173.348 151.209 172.726 151.662 172.105C152.156 171.429 152.662 170.761 153.174 170.099C153.926 169.127 154.203 169.098 155.242 169.831C155.761 170.198 156.275 170.576 156.815 170.91C157.497 171.33 158.205 171.712 158.906 172.1C159.131 172.224 159.257 172.396 159.278 172.688Z" fill="black"/>
<path d="M155.785 192.049C156.203 192.163 156.629 192.257 157.041 192.391C157.517 192.547 157.985 192.734 158.456 192.91C159.014 193.122 159.17 193.63 158.809 194.098C158.71 194.227 158.569 194.336 158.428 194.416C157.404 194.997 156.686 195.875 156.11 196.874C155.793 197.424 155.544 198.012 155.273 198.588C155.172 198.8 155.109 199.028 155.01 199.241C154.712 199.879 154.353 200.072 153.643 199.978C153.477 199.954 153.316 199.912 153.152 199.875C152.302 199.684 151.447 199.511 150.603 199.297C149.956 199.133 149.782 198.812 149.965 198.18C150.028 197.96 150.135 197.739 150.265 197.55C151.519 195.717 152.923 194.015 154.597 192.545C154.93 192.249 155.294 192.028 155.785 192.049Z" fill="black"/>
<path d="M44.0827 129.248C43.982 129.23 43.8161 129.209 43.6544 129.169C42.55 128.885 41.4456 128.6 40.3433 128.308C40.085 128.239 39.8288 128.152 39.5811 128.052C38.9722 127.806 38.9281 127.667 39.0625 126.983C39.2157 126.193 39.3291 125.393 39.4677 124.602C39.537 124.205 39.6126 123.808 39.7071 123.418C39.77 123.157 39.8393 122.891 39.959 122.656C40.3747 121.843 40.6519 121.543 41.7164 121.921C42.8208 122.313 43.9568 122.618 45.0822 122.954C46.3861 123.344 46.4763 123.491 46.1173 124.806C45.7898 126.002 45.4433 127.195 45.1032 128.39C45.0675 128.518 45.0234 128.648 44.9625 128.766C44.7924 129.093 44.5258 129.265 44.0827 129.248Z" fill="black"/>
<path d="M98.5842 82.6109C97.3685 83.266 96.0646 83.709 94.7628 84.1499C92.5645 84.8932 90.322 85.4412 88.0145 85.7331C85.7973 86.0144 83.5948 85.859 81.3901 85.6092C79.6159 85.4076 77.8816 85.036 76.1977 84.4418C75.5972 84.2297 74.9967 84.0197 74.4739 83.6628C74.3668 82.8523 74.6523 80.8955 75.045 79.7784C75.1625 79.8351 75.3011 79.8624 75.383 79.9464C76.2376 80.7968 77.3042 81.2944 78.396 81.7269C80.3949 82.5206 82.4294 83.2072 84.5627 83.541C86.7106 83.877 88.8418 83.8077 90.9372 83.1652C91.1892 83.0875 91.4559 83.0602 91.7162 83.0077C93.4904 82.5311 95.3339 82.3526 97.0598 81.6513C98.0593 81.2482 98.4897 81.5715 98.5842 82.6109Z" fill="#F2BFBB"/>
<path d="M98.583 82.6111C98.0077 81.3009 97.846 81.6201 96.9347 81.9833C95.719 82.4683 94.476 82.756 93.1826 82.8841C92.9874 82.903 92.7963 82.9827 92.5989 82.9974C92.305 83.0184 92.0089 83.0079 91.7129 83.01C91.9145 82.903 92.1097 82.7749 92.3218 82.6909C94.243 81.9224 96.1663 81.1602 98.0895 80.4002C98.1777 80.3645 98.2785 80.3603 98.4045 80.3351C98.8034 80.9167 98.9777 81.5949 99.2821 82.1597C99.11 82.5061 98.8433 82.5544 98.583 82.6111Z" fill="#FBEAE8"/>
<path d="M83.0565 131.947C83.7515 132.331 84.4423 132.65 85.0659 133.141C84.5661 133.971 83.8712 134.55 83.1258 135.058C80.8267 136.625 78.347 137.767 75.5628 138.155C73.8033 138.401 72.0501 138.72 70.2822 138.88C67.3574 139.144 64.8483 140.246 62.7486 142.298C62.7024 142.344 62.6394 142.373 62.5807 142.405C62.5534 142.42 62.5177 142.424 62.4085 142.453C61.8038 142.086 61.1508 141.691 60.4453 141.261C60.5503 141.057 60.6028 140.86 60.7267 140.729C62.8725 138.441 65.4236 136.946 68.634 136.877C70.2192 136.841 71.7729 136.612 73.3309 136.379C74.2253 136.247 75.1219 136.102 75.9975 135.883C78.1118 135.356 79.9826 134.323 81.7022 133.001C82.1494 132.656 82.5946 132.308 83.0565 131.947Z" fill="#F2BFBB"/>
<path d="M148.455 165.961C147.928 165.749 147.48 165.417 146.951 165.062C147.18 164.859 147.312 164.716 147.466 164.605C149.397 163.217 150.768 161.384 151.69 159.213C152.463 157.392 153.128 155.528 154.052 153.772C154.791 152.368 155.644 151.053 156.836 149.985C157.685 149.225 158.535 148.467 159.392 147.715C159.486 147.631 159.631 147.604 159.751 147.549C160.009 147.667 160.135 147.91 160.292 148.124C161.103 149.239 161.105 149.239 160.168 150.243C160.047 150.375 159.98 150.512 160.026 150.692C158.894 151.723 157.718 152.729 156.943 154.071C156.295 155.192 155.753 156.376 155.161 157.531C155.102 157.646 155.029 157.753 154.961 157.863C154.816 157.963 154.846 158.157 154.741 158.28L154.753 158.274C153.552 160.04 152.645 161.995 151.295 163.664C150.514 164.632 149.67 165.526 148.455 165.961Z" fill="#0D8157"/>
<path d="M148.455 165.961C148.594 165.82 148.707 165.64 148.871 165.545C150.12 164.821 151.027 163.763 151.791 162.572C152.495 161.476 153.16 160.357 153.847 159.251C154.023 158.967 154.196 158.679 154.401 158.417C154.468 158.331 154.634 158.32 154.754 158.276C154.746 158.375 154.765 158.484 154.729 158.572C154.137 160.03 153.58 161.501 152.801 162.877C152.083 164.145 151.168 165.243 150.009 166.131C149.826 166.272 149.618 166.379 149.44 166.492C149.035 166.402 148.715 166.234 148.455 165.961Z" fill="#27B380"/>
<path d="M160.025 150.694C159.844 150.571 159.712 150.405 159.891 150.212C160.155 149.926 160.455 149.672 160.789 149.361C160.718 149.21 160.668 149.023 160.558 148.88C160.237 148.467 159.878 148.08 159.75 147.551C159.943 147.291 160.199 147.245 160.447 147.423C161.171 147.944 161.879 148.488 162.662 149.071C162.484 149.225 162.385 149.353 162.255 149.412C161.474 149.777 160.733 150.207 160.025 150.694Z" fill="#27B380"/>
<path d="M154.742 158.28C154.748 158.106 154.774 157.942 154.963 157.863C154.889 158.003 154.816 158.142 154.742 158.28Z" fill="#27B380"/>
<path d="M230.276 127.271C229.932 127.393 229.594 127.533 229.241 127.63C227.82 128.02 226.394 128.398 224.97 128.783C223.081 129.293 221.302 130.059 219.623 131.061C219.364 131.216 219.093 131.355 218.844 131.521C218.564 131.705 218.283 131.709 217.981 131.607C217.162 131.323 216.395 130.926 215.627 130.555C215.658 130.183 215.931 130.068 216.135 129.921C217.8 128.73 219.652 128.004 221.663 127.638C223.673 127.273 225.674 126.859 227.681 126.477C230.144 126.009 232.286 124.877 234.228 123.328C234.908 122.786 235.601 122.263 236.29 121.732C237.025 122.183 236.644 122.586 236.231 122.981C234.442 124.682 232.506 126.179 230.276 127.271Z" fill="#FFCE24"/>
<path d="M230.275 127.271C230.758 126.922 231.231 126.559 231.726 126.229C233.444 125.093 235.058 123.831 236.566 122.341C236.476 122.139 236.383 121.935 236.293 121.732C236.461 121.48 236.646 121.247 236.992 121.142C237.572 121.425 238.113 121.791 238.582 122.343C238.447 122.49 238.355 122.63 238.227 122.725C236.852 123.743 235.495 124.791 234.082 125.753C232.936 126.532 231.642 127.012 230.275 127.271Z" fill="#FFEBA7"/>
<path d="M60.234 95.4714C59.3626 95.7465 58.464 95.7864 57.5632 95.7759C56.4546 95.7633 55.3607 95.8452 54.2857 96.1517C53.2023 96.4604 52.2259 96.9748 51.384 97.6992C50.1368 98.7742 49.0491 100.002 48.2072 101.432C48.0077 101.77 47.8208 102.113 47.6172 102.478C46.8298 102.258 46.2524 101.84 45.7422 101.321C45.8262 100.792 46.1579 100.435 46.4477 100.082C47.361 98.9716 48.2933 97.8756 49.2654 96.8152C49.7609 96.2756 50.3278 95.7927 50.9157 95.3539C51.7367 94.7387 52.6941 94.4342 53.7209 94.388C54.1555 94.3691 54.5922 94.3628 55.0269 94.3712C57.8656 94.4321 60.3243 93.4222 62.552 91.7383C63.0286 91.3792 63.5221 91.0412 64.0071 90.6926C65.0842 91.3981 65.1556 92.0973 64.196 92.8616C62.9552 93.8547 61.645 94.7408 60.234 95.4714Z" fill="#0D8157"/>
<path d="M60.2324 95.4713C60.4025 95.1186 60.7531 94.9737 61.0513 94.7721C62.1515 94.0247 63.2811 93.3192 64.2974 92.4562C64.7362 92.0825 64.774 91.946 64.501 91.4463C64.3582 91.1838 64.1714 90.9466 64.0055 90.6967C64.0769 90.5938 64.1504 90.4909 64.2302 90.3776C64.9042 90.8689 65.5403 91.3308 66.2248 91.8305C66.1157 92.0195 66.0527 92.2085 65.9267 92.3407C64.3624 93.9848 62.477 95.0556 60.2324 95.4713Z" fill="#27B380"/>
<path d="M41.8984 70.4058C42.7614 69.1524 43.8448 68.1109 44.987 67.1199C46.2825 65.9966 47.6557 64.9803 49.1296 64.1048C50.6057 63.2271 52.1489 62.5006 53.7951 61.9946C54.2423 61.8582 54.5698 61.94 54.8722 62.2823C55.3887 62.8681 55.7478 63.5379 56.0753 64.2917C55.9388 64.363 55.8296 64.468 55.7184 64.4722C54.2024 64.5121 52.8376 65.0538 51.5086 65.7236C51.0907 65.9336 50.6666 66.1372 50.2467 66.3451C48.2688 66.9288 46.6877 68.1718 45.113 69.4295C44.1766 70.1791 43.154 70.6893 41.8984 70.4058Z" fill="#0479CE"/>
<path d="M41.8997 70.4056C42.5464 70.2523 43.2078 70.1473 43.8314 69.9289C44.2261 69.7904 44.5746 69.5027 44.9211 69.2486C45.7777 68.6209 46.5966 67.9385 47.4806 67.3485C48.3099 66.7942 49.1897 66.3028 50.25 66.3427C48.9503 67.2267 47.659 68.1169 46.5672 69.2612C45.6874 70.183 44.814 71.1068 43.9426 72.0349C43.76 72.2302 43.6004 72.4443 43.4219 72.6627C42.5821 72.2764 41.8451 71.911 41.2383 71.3021C41.3937 70.9326 41.6099 70.6428 41.8997 70.4056Z" fill="#78A2D3"/>
<path d="M218.602 10.5279C220.105 10.4061 221.529 10.7694 222.915 11.2859C224.519 11.8864 226.033 12.6738 227.408 13.7068C227.729 13.9461 228.025 14.2212 228.355 14.448C228.745 14.7188 228.802 14.9456 228.626 15.4012C228.521 15.6742 228.355 15.9219 228.187 16.2348C227.922 16.1046 227.706 16.0269 227.521 15.903C226.352 15.1219 225.161 14.3724 223.893 13.7614C222.835 13.2512 221.737 12.8648 220.569 12.6654C219.402 12.4638 218.235 12.5184 217.069 12.6171C216.038 12.7052 215.012 12.8354 213.983 12.9488C213.485 11.8213 213.775 11.2838 214.955 11.0255C216.158 10.7631 217.393 10.74 218.602 10.5279Z" fill="#0D8157"/>
<path d="M218.601 10.5278C218.175 10.8196 217.658 10.7818 217.186 10.8931C216.352 11.0926 215.496 11.1871 214.654 11.3508C214.438 11.3928 214.24 11.5293 213.982 11.6448C213.982 12.0941 213.982 12.5204 213.982 12.9487C213.766 13.0033 213.552 13.0579 213.272 13.1272C213.19 12.4742 213.117 11.8926 213.037 11.2648C213.209 11.1808 213.373 11.0569 213.554 11.017C215.217 10.6622 216.892 10.4186 218.601 10.5278Z" fill="#27B380"/>
<path d="M196.944 23.3022C196.866 22.6387 196.82 21.9731 196.707 21.3159C196.358 19.2729 195.428 17.5365 193.929 16.0982C192.909 15.1198 191.777 14.2988 190.561 13.585C190.248 13.4023 189.94 13.2112 189.602 13.0055C189.738 12.5981 190.078 12.4113 190.305 12.1362C190.515 11.8821 190.733 11.6344 190.958 11.374C191.609 11.5189 192.014 11.9955 192.48 12.3525C193.679 13.2658 194.765 14.3009 195.63 15.5481C196.556 17.4399 197.542 19.3044 198.137 21.339C198.496 22.5589 198.132 23.1384 196.944 23.3022Z" fill="#0479CE"/>
<path d="M196.944 23.3021C197.175 23.1698 197.408 23.0396 197.639 22.9053C198.044 22.668 198.166 22.3006 198.029 21.8764C197.763 21.0534 197.498 20.2261 197.171 19.4261C196.791 18.5023 196.35 17.6015 195.923 16.6987C195.749 16.3312 195.6 15.9659 195.634 15.5502C196.734 16.6084 197.507 17.885 198.103 19.275C198.537 20.2912 198.876 21.3389 199.05 22.4349C199.096 22.7289 199.107 23.0333 199.102 23.3336C199.1 23.4554 199.046 23.6275 198.955 23.6884C198.277 24.1525 197.582 24.5913 196.675 24.8495C196.776 24.27 196.86 23.7871 196.944 23.3021Z" fill="#78A2D3"/>
<path d="M103.116 49.2475C101.659 49.2958 100.25 49.0186 98.8577 48.6239C98.5806 48.5441 98.4105 48.3929 98.2572 48.1452C97.7911 47.3935 97.5581 46.5578 97.2578 45.6697C97.4573 45.6697 97.619 45.634 97.7533 45.676C98.4882 45.9069 99.2147 46.1673 99.9517 46.3961C101.337 46.8245 102.753 47.0596 104.21 47.047C105.432 47.0344 106.601 46.7384 107.767 46.4255C108.93 46.1127 110.083 45.7641 111.242 45.4303C111.869 46.4738 111.731 46.9421 110.616 47.2759C108.445 47.9289 106.272 48.5777 104.077 49.1509C103.75 49.2349 103.416 49.0564 103.116 49.2475Z" fill="#FFCE24"/>
<path d="M103.117 49.2476C103.703 48.9075 104.366 48.8067 105.003 48.6219C106.993 48.0424 108.986 47.4776 110.976 46.9023C111.1 46.8666 111.209 46.7805 111.295 46.7364C111.566 46.2598 111.165 45.8588 111.241 45.4325C111.451 45.3381 111.663 45.2457 111.908 45.1344C112.364 45.7055 112.396 46.3816 112.603 47.0409C112.419 47.1648 112.272 47.3117 112.097 47.3726C111.052 47.7401 110 48.0886 108.952 48.4414C107.48 48.9369 105.962 49.2119 104.415 49.3127C103.984 49.3379 103.55 49.2707 103.117 49.2476Z" fill="#FFEBA7"/>
<path d="M202.579 194.819C202.249 194.661 201.911 194.518 201.59 194.344C199.022 192.933 196.32 191.89 193.441 191.316C193.347 191.297 193.256 191.251 193.166 191.22C193.212 190.514 193.657 189.582 194.516 188.417C195.992 188.429 197.439 188.788 198.862 189.28C198.984 189.437 199.156 189.441 199.333 189.427V189.41C200.46 190.101 201.754 190.449 202.881 191.138C203.375 191.44 204.195 191.638 203.981 192.373C203.719 193.265 203.744 194.411 202.579 194.819Z" fill="#F2BFBB"/>
<path d="M202.578 194.819C202.851 194.705 202.967 194.455 203.068 194.212C203.347 193.538 203.607 192.855 203.886 192.148C203.561 191.77 203.158 191.549 202.746 191.344C201.764 190.85 200.775 190.365 199.794 189.868C199.597 189.767 199.337 189.712 199.328 189.408C201.004 189.782 202.553 190.47 204.048 191.293C204.458 191.518 204.859 191.762 205.247 192.02C205.518 192.2 205.841 192.328 206.007 192.687C205.266 193.647 204.518 194.615 203.746 195.617C203.294 195.388 202.889 195.176 202.578 194.819Z" fill="#FBEAE8"/>
<path d="M199.332 189.425C199.134 189.504 198.971 189.481 198.861 189.278C199.019 189.328 199.174 189.376 199.332 189.425Z" fill="#CCCCCC"/>
<path d="M186.581 155.41C186.096 155.513 185.608 155.618 185.094 155.727C184.59 154.982 184.582 154.132 184.279 153.344C184.454 153.25 184.559 153.159 184.676 153.13C186.803 152.62 188.962 152.46 191.143 152.584C191.24 152.59 191.336 152.63 191.433 152.656C191.767 153.779 191.496 154.316 190.448 154.566C189.165 154.873 187.851 155.045 186.581 155.41Z" fill="#F2BFBB"/>
<path d="M192.335 153.583C192.35 153.352 192.365 153.124 192.369 152.893C192.371 152.828 192.258 152.758 192.197 152.693C191.943 152.681 191.689 152.668 191.432 152.655C191.441 153.193 191.269 153.684 191.101 154.167C190.565 154.27 190.078 154.354 189.595 154.459C188.692 154.656 187.792 154.868 186.889 155.066C186.689 155.11 186.635 155.251 186.58 155.41C187.519 155.372 190.754 155.429 191.437 155.356C191.705 155.374 191.985 155.505 192.222 155.265C192.314 155.133 192.337 154.99 192.293 154.837C192.297 154.679 192.344 154.113 192.335 153.583Z" fill="#FBEAE8"/>
<path d="M192.225 155.265C192.248 155.123 192.273 154.98 192.296 154.837C192.39 154.999 192.435 155.154 192.225 155.265Z" fill="#F2BFBB"/>
<path d="M136.4 190.128C135.934 190.141 135.47 190.13 135.025 189.987C134.861 189.584 135.044 189.242 135.124 188.891C135.371 187.816 135.644 186.746 135.863 185.664C135.97 185.141 135.98 184.602 136.031 184.069C136.062 183.741 136.09 183.411 136.123 183.048C136.686 182.846 137.202 182.97 137.719 183.075C137.755 183.206 137.755 183.033 137.759 183.166C137.834 185.589 137.503 187.934 136.4 190.128Z" fill="#FFCE24"/>
<path d="M136.4 190.128C136.524 189.645 136.659 189.164 136.766 188.679C137.144 186.957 137.507 185.232 137.633 183.466C137.641 183.333 137.687 183.205 137.717 183.075C138.013 183.084 138.309 183.09 138.632 183.1C138.664 183.287 138.718 183.417 138.704 183.539C138.454 185.607 138.084 187.657 137.574 189.677C137.526 189.868 137.446 190.052 137.375 190.26C137.016 190.369 136.705 190.279 136.4 190.128Z" fill="#FFEBA7"/>
<path d="M154.275 175.498C153.446 175.168 152.597 174.876 151.85 174.402C151.85 174.293 151.825 174.215 151.854 174.171C152.505 173.171 153.103 172.13 153.975 171.292C155.052 171.313 155.57 172.168 156.213 172.821C156.385 172.995 156.349 173.301 156.188 173.48C155.564 174.164 155.142 175.044 154.275 175.498Z" fill="#E26B61"/>
<path d="M154.275 175.498C154.712 174.868 155.148 174.24 155.703 173.702C155.887 173.522 156.125 173.36 156.11 172.98C155.444 172.409 154.825 171.71 153.975 171.292C154.061 171.122 154.147 170.954 154.222 170.805C154.346 170.815 154.424 170.799 154.474 170.83C155.545 171.506 156.612 172.189 157.706 172.888C157.638 173.343 157.3 173.642 157.097 174.011C156.904 174.362 156.694 174.704 156.503 175.057C156.297 175.435 156.106 175.821 155.887 176.245C155.276 176.092 154.741 175.88 154.275 175.498Z" fill="#EA958E"/>
<path d="M155.147 193.729C155.308 193.38 155.575 193.227 155.955 193.313C156.341 193.399 156.721 193.502 157.127 193.767C156.364 194.485 155.657 195.186 155.161 196.045C154.664 196.908 154.225 197.804 153.734 198.739C153.303 198.789 152.873 198.65 152.457 198.434C152.967 197.124 153.82 196.032 154.706 194.972C155.027 194.59 155.241 194.229 155.147 193.729Z" fill="#EA958E"/>
<path d="M155.147 193.729C155.596 194.193 155.649 194.319 155.336 194.619C154.357 195.551 153.711 196.725 152.957 197.821C152.808 198.037 152.625 198.231 152.459 198.436C152.129 198.426 151.8 198.422 151.537 198.21C151.537 198.107 151.512 198.027 151.542 197.983C152.585 196.429 153.683 194.924 155.147 193.729Z" fill="#E26B61"/>
<path d="M42.6423 127.625C42.0628 127.489 41.4833 127.355 40.9038 127.214C40.7799 127.182 40.6623 127.126 40.5594 127.088C40.4104 126.212 40.6728 124.562 41.1347 123.378C42.1279 123.649 42.8502 124.421 43.2764 125.19C43.6921 125.939 43.2344 126.903 42.6423 127.625Z" fill="#0479CE"/>
<path d="M42.6423 127.626C42.8418 126.865 43.0392 126.105 43.2281 125.387C42.5079 124.694 41.8214 124.035 41.1348 123.376C41.202 123.313 41.2901 123.185 41.3342 123.197C42.5058 123.548 43.7299 123.724 44.8407 124.275C44.784 125.064 44.2486 127.065 43.8433 127.953C43.4318 127.932 43.0287 127.815 42.6423 127.626Z" fill="#78A2D3"/>
</svg>
