<svg width="300" height="200" viewBox="0 0 300 200" fill="none" xmlns="http://www.w3.org/2000/svg">
<path d="M132.37 179.664C132.721 181.809 131.851 184.275 133.1 186.174C137.142 191.198 144.159 192.447 150.087 194.027C172.957 198.574 196.858 198.627 219.795 194.485C226.269 192.879 236.776 191.3 239.746 184.619C243.174 196.037 196.488 199.703 188.52 199.974C175.938 200.075 163.273 199.983 150.865 197.673C143.006 196.335 121.5 190.34 132.37 179.664Z" fill="#CCCCCC"/>
<path d="M132.372 179.664C132.064 174.544 133.625 172.735 138.037 170.4C137.349 146.037 151.645 121.671 173.758 111.139C178.919 109.716 181.46 105.499 176.859 101.504C173.765 99.0105 169.851 97.8172 166.667 95.4176C148.963 82.9859 138.099 61.6767 137.374 40.1644C130.898 36.6571 132.52 34.0929 132.297 27.7797C132.297 15.0463 174.342 13.4146 184.146 13.3312C193.9 13.1344 242.248 14.5245 239.638 28.7934C239.72 35.098 240.235 37.0869 234.07 40.3547C233.274 62.0381 222.192 83.5462 204.157 95.8411C201.156 98.0139 197.516 99.1281 194.638 101.461C191.115 104.002 191.567 109.152 195.914 110.429C219.044 120.131 233.777 145.264 233.473 169.987C241.272 173.661 239.782 176.418 239.775 183.901C239.94 187.938 235.261 189.825 232.185 191.262C212.153 198.467 190.181 198.315 169.175 197.094C157.569 195.704 144.958 195.032 134.91 188.499C131.72 186.334 131.839 183.184 132.372 179.664Z" fill="black"/>
<path d="M157.25 85.6957C154.472 83.1208 144.019 68.9824 145.071 65.6397C145.473 63.7128 149.201 43.659 144.774 53.6613C144.511 53.7233 144.408 53.6164 144.451 53.4068C145 50.9282 145.439 48.5393 145.899 46.0051C158.191 48.5458 170.816 48.4495 183.307 47.8144C199.98 47.7181 217.11 46.8391 232.855 41.1162C232.327 57.4895 225.367 73.42 214.377 85.4796C213.498 85.3107 212.79 84.9664 212.281 84.2756C218.787 73.3473 151.376 73.1954 159.47 84.5109C158.882 85.1888 158.206 85.7042 157.25 85.6957Z" fill="#D6E3F2"/>
<path d="M228.532 168.413C228.983 169.97 230.185 172.01 228.971 173.438C224.625 177.57 216.278 178.259 210.538 179.51C194.456 181.505 178.048 181.922 162.015 179.3C156.598 178.357 151.151 177.451 145.943 175.631C143.719 175 142.19 174.063 142.648 171.465C143.298 162.686 149.694 160.401 155.757 155.677C160.009 152.039 164.881 149.086 169.849 146.61L169.913 146.631C174.635 145.583 179.182 143.648 183.942 142.878C190.326 142.58 196.113 145.686 201.258 149.152C202.723 150.168 204.263 151.049 205.856 151.845C209.496 153.622 212.493 156.454 216.18 158.132C218.688 158.966 213.56 162.656 212.559 163.175C210.123 164.702 207.424 165.701 205.099 167.438C201.113 170.26 196.301 171.482 191.78 173.18C196.331 172.303 200.908 171.892 204.582 168.704C208.716 166.775 212.987 165.248 216.092 161.676C218.812 159.031 218.962 158.81 222.258 161.02C223.883 163.877 226.731 165.688 228.532 168.413Z" fill="#FADB90"/>
<path d="M232.831 32.4805C232.687 32.5468 232.544 32.6109 232.401 32.6772C210.974 41.0884 177.304 40.6414 154.553 36.8582C145.913 35.6563 121.486 28.6951 140.772 20.7309C159.677 13.8275 180.426 14.9331 200.225 16.1372C212.45 17.6663 225.895 18.2031 236.513 25.0231C240.132 28.0514 234.888 30.53 232.831 32.4805Z" fill="#78A2D3"/>
<path d="M133.497 30.0874C148.887 44.0953 222.825 44.0397 238.484 30.1687C239.004 30.868 238.967 33.7316 238.552 35.6136C238.315 36.6936 235.359 38.6162 232.808 39.8609C214.273 47.2583 193.064 46.9782 173.374 46.2896C161.733 45.4662 149.74 44.2985 138.929 39.6299C133.844 37.1384 132.982 35.774 133.497 30.0874Z" fill="#212492"/>
<path d="M237.553 186.119C225.222 197.791 178.664 197.282 161.769 194.872C152.675 193.366 142.064 192.427 134.711 186.407C132.938 184.733 133.719 182.104 133.64 179.91C150.661 193.788 219.674 193.514 237.619 180.744C237.871 180.789 237.966 181.001 237.94 181.193C237.711 182.829 238.139 184.515 237.553 186.119Z" fill="#212492"/>
<path d="M216.021 186.818C200.518 189.284 184.66 189.686 169.025 188.377C159.305 187.434 149.416 186.302 140.309 182.571C134.187 180.192 130.076 175.453 138.068 171.884C138.996 176.717 137.506 177.115 142.589 179.692C158.252 186.726 176.364 186.796 193.255 186.412C206.485 185.31 220.724 184.506 232.293 177.367C233.545 176.923 232.454 170.323 234.109 171.629C234.845 174.001 239.178 176.093 236.436 178.616C231.015 183.967 222.96 184.696 216.021 186.818Z" fill="#78A2D3"/>
<path d="M173.918 112.351C173.911 112.698 173.699 112.914 173.441 113.095C171.948 114.171 170.395 115.157 168.992 116.348C160.376 123.585 153.419 132.852 148.395 142.901C146.824 146.376 145.179 149.835 144.086 153.5C143.536 155.836 142.005 157.683 140.651 159.608C140.414 159.944 140.183 160.288 139.738 160.376C142.506 140.145 155.348 121.199 173.918 112.351Z" fill="white"/>
<path d="M228.534 168.413C227.347 167.466 226.478 166.24 225.409 165.188C224.207 163.783 222.729 162.701 221.944 160.973C221.072 160.554 220.12 160.096 219.098 159.606C216.579 160.911 214.938 163.507 212.592 165.07C210.471 166.358 208.238 167.489 205.875 168.263C202.303 170.693 198.274 172.936 193.798 172.908C193.879 172.399 194.343 172.446 194.671 172.346C197.68 171.409 200.712 170.436 203.362 168.742C207.513 165.639 214.855 164.01 216.831 158.943C216.694 158.466 216.172 158.445 215.792 158.242C211.887 156.345 208.644 153.355 204.675 151.55C199.256 148.468 194.089 144.106 187.705 143.366C181.529 142.217 175.979 146.118 169.914 146.631C175.325 144.334 181.413 141.334 187.412 142.016C194.222 143.03 200.648 145.834 206.384 149.578C213.585 153.682 220.973 157.748 226.185 164.392C227.152 165.607 228.253 166.828 228.534 168.413Z" fill="#FDF0B9"/>
<path d="M232.831 32.4802C233.257 30.8185 238.456 29.1205 237.393 26.5926C232.829 20.226 214.204 18.1601 206.466 17.0715C192.98 15.4419 167.663 15.8974 165.469 16.0108C161.838 16.1968 157.973 16.539 157.043 16.616C157.608 16.5283 158.172 16.4428 158.739 16.3593C171.573 14.4859 185.01 14.0603 197.91 14.796C207.114 15.3521 216.33 16.4128 225.269 18.7418C232.898 20.5275 246.257 26.4173 232.831 32.4802Z" fill="#EDF5FD"/>
<path d="M192.452 102.073C191.504 102.022 191.089 103.138 190.191 103.337C187.843 101.325 207.863 88.8886 210.157 86.2881C211.894 84.4424 212.048 83.2555 214.372 85.4775C210.854 89.5174 206.731 92.9862 202.159 95.7792C198.844 97.7767 195.074 99.0984 192.452 102.073Z" fill="#D6E3F2"/>
<path d="M181.547 103.733C180.732 103.878 179.827 101.564 179.205 102.364C177.695 100.433 175.61 99.109 173.431 98.0504C167.295 95.0713 161.754 90.7813 157.25 85.6956C161.153 83.2213 159.502 85.8582 164.002 88.602C166.621 90.8219 183.196 101.087 181.547 103.733Z" fill="#D6E3F2"/>
<path d="M139.253 165.936C140.235 164.61 141.039 163.141 142.057 161.828C143.903 159.965 146.311 158.639 148.554 157.288C151.692 155.752 154.647 153.487 157.921 152.39C152.579 157.797 143.554 160.391 142.01 168.706C141.159 169.046 140.355 169.341 139.591 169.824C139.478 169.963 139.358 169.959 139.232 169.841C139.074 168.539 139.123 167.239 139.253 165.936Z" fill="#D6E3F2"/>
<path d="M216.02 186.818C222.681 184.08 231.336 183.907 236.572 178.116C238.894 176.03 233.398 173.197 234.106 171.631C249.286 180.01 222.459 186.007 216.02 186.818Z" fill="#EDF5FD"/>
<path d="M237.553 186.119C237.469 184.327 237.717 182.477 237.617 180.744C237.824 180.389 238.072 180.084 238.562 179.915C238.635 181.995 239.221 184.521 237.553 186.119Z" fill="#EDF5FD"/>
<path d="M197.025 112.054C192.277 110.521 189.117 106.793 192.455 102.073C191.698 101.564 190.515 102.907 189.974 103.431C189.797 105.056 189.651 106.682 189.619 108.32C189.587 109.971 188.933 110.709 187.378 111.008C185.849 111.119 185.951 112.309 185.939 113.549C185.592 115.187 186.14 118.848 184.106 119.321C179.814 118.536 183.751 106.703 181.563 103.651C180.909 103.32 179.835 101.314 179.206 102.366C181.187 105.041 180.464 109.19 177.393 110.681C176.233 111.233 175.038 111.71 173.922 112.351C168.834 115.921 164.157 119.903 160.192 124.715C153.675 132.54 148.055 141.21 144.759 150.878C143.536 154.319 142.189 157.619 139.742 160.378C139.518 162.228 139.238 164.072 139.259 165.939C139.762 166.005 139.892 165.592 140.044 165.276C143.742 158.562 151.759 156.255 157.927 152.393C166.246 146.845 175.449 141.665 185.59 140.788C192.239 141.25 198.757 143.701 204.47 147.087C213.738 152.989 225.274 157.859 229.857 168.563C230.268 168.655 230.734 168.892 231.189 168.995C231.189 168.995 231.187 168.995 231.187 168.997C231.658 169.286 232.056 169.651 231.408 170.117C231.382 170.676 231.645 170.992 232.197 171.071C232.212 170.323 232.227 169.576 232.242 168.828C232.524 145.359 218.306 122.101 197.025 112.054Z" fill="#D6E3F2"/>
<path d="M141.604 170.079C140.824 170.35 139.541 171.238 139.594 169.824C139.474 169.831 139.355 169.835 139.235 169.841C139.179 172.023 139.408 174.313 139.851 176.428C140.062 176.659 140.527 177.132 140.452 176.42C140.325 176.27 140.225 176.405 140.073 175.973C139.996 175.643 139.921 175.316 139.844 174.987C140.144 174.146 140.826 173.637 141.506 173.139C141.384 172.042 141.711 171.161 141.604 170.079Z" fill="#AFC0D4"/>
<path d="M231.404 170.115C230.998 170.318 230.641 169.895 230.179 170.008C230.401 173.843 232.657 173.152 231.03 175.073C223.662 180.522 210.204 181.719 201.151 183.037C188.232 184.294 175.171 183.935 162.308 182.28C155.849 181.358 145.513 179.463 140.641 176.813C140.633 177.017 140.705 177.124 140.836 177.273C140.909 177.327 140.983 177.378 141.056 177.432C157.532 187.258 191.036 186.463 209.84 183.571C217.035 182.303 224.396 180.789 230.773 177.059C232.531 176.191 231.804 172.812 232.195 171.065C231.89 170.787 231.721 170.389 231.404 170.115Z" fill="#AFC0D4"/>
<path d="M144.594 54.0826C144.495 54.0698 144.399 54.0569 144.301 54.0441C144.363 53.7639 144.613 53.7212 144.594 54.0826Z" fill="#D6E3F2"/>
<path d="M181.545 103.733C181.049 100.217 173.818 96.3951 171.053 94.0875C168.572 92.0943 166.04 90.1952 163.363 88.4737C151.282 79.3161 164.87 77.9709 172.764 76.6043C179.381 75.6676 186.145 75.4559 192.814 75.8622C196.77 76.3392 216.569 77.3978 212.459 84.2221C210.748 85.9907 209.095 87.7893 206.995 89.1238C204.153 90.9074 201.727 93.247 198.945 95.1162C196.227 97.3297 191.676 99.6479 190.23 102.832C189.512 105.732 191.355 111.637 186.592 111.22C185.609 113.521 186.396 116.331 185.414 118.688C184.633 120.474 182.341 119.454 182.144 117.826C181.308 113.282 182.506 108.446 181.635 104.004C181.605 103.914 181.575 103.822 181.545 103.733Z" fill="black"/>
<path d="M221.336 66.7774C221.885 62.0041 224.167 57.5942 225.35 52.947C226.22 50.4235 226.479 47.6433 227.615 45.2309C230.335 43.0153 228.949 50.0727 228.859 51.2233C228.479 54.0463 227.741 56.8201 227.042 59.5767C226.096 62.4895 225.562 65.6953 223.699 68.1953C222.63 69.3523 220.974 68.1911 221.336 66.7774Z" fill="white"/>
<path d="M216.826 158.941C217.423 159.27 216.595 160.006 216.428 160.412C213.785 164.069 209.181 165.19 205.639 167.669C201.306 170.592 196.165 172.29 191.126 173.537C191.052 173.186 191.315 173.182 191.477 173.122C196.244 171.289 201.375 169.951 205.558 166.935C209.131 164.091 214.386 163.216 216.826 158.941Z" fill="black"/>
<path d="M215.989 172.301C212.424 173.61 208.804 174.857 205.01 175.261C204.892 175.049 204.988 174.979 205.132 174.936C208.126 174.008 211.252 173.52 214.15 172.29C217.837 170.714 221.894 169.553 224.967 166.863C225.181 166.638 225.609 166.307 225.748 166.771C225.412 168.805 218.049 172.089 215.989 172.301Z" fill="black"/>
<path d="M215.992 172.301C219.41 170.909 223.244 169.589 225.751 166.772C227.216 166.854 226.029 168.46 225.229 168.716C224.168 169.061 223.503 170.008 222.457 170.387C221.174 170.744 216.899 173.045 215.992 172.301Z" fill="#FDF0B9"/>
<path d="M158.678 157.123C159.269 156.757 160.642 156.804 160.71 157.626C160.588 158.487 158.094 158.398 158.678 157.123Z" fill="black"/>
<path d="M179.397 171.743C179.9 171.773 180.717 172.025 180.518 172.667C180.118 173.161 179.463 172.575 179.006 172.429C178.668 172.158 179.029 171.717 179.397 171.743Z" fill="black"/>
<path d="M161.822 155.878C162.107 155.16 163.679 155.722 163.721 156.372C163.629 156.843 163.001 156.608 162.663 156.625C162.141 156.648 161.765 156.507 161.822 155.878Z" fill="black"/>
<path d="M195.749 147.792C197.396 147.671 197.477 149.497 195.712 148.853C195.161 148.274 195.165 148.109 195.749 147.792Z" fill="black"/>
<path d="M158.68 157.123C158.526 157.758 159.08 157.934 159.553 158.147C158.913 159.974 156.71 157.333 158.68 157.123Z" fill="#FDF0B9"/>
<path d="M196.512 153.627C196.437 153.289 196.142 152.936 196.591 152.622C197.921 152.962 198.343 154.258 196.563 153.667C196.456 153.751 196.615 153.672 196.489 153.725C196.446 153.732 196.499 153.61 196.512 153.627Z" fill="black"/>
<path d="M183.636 172.737C183.969 172.819 184.703 172.975 184.307 173.467C183.473 174.196 181.967 172.84 183.636 172.737Z" fill="black"/>
<path d="M201.351 150.977C204.084 151.306 201.95 153.013 201.227 151.885C201.007 151.61 200.823 151.21 201.351 150.977Z" fill="black"/>
<path d="M201.35 150.977C200.995 151.868 201.688 151.892 202.261 152.134C202.127 153.201 200.478 151.952 200.215 151.338C200.514 150.934 200.893 150.925 201.35 150.977Z" fill="#FDF0B9"/>
<path d="M210.484 161.259C210.782 160.558 211.425 160.491 211.892 160.196C212.274 160.577 212.319 160.707 212.101 160.885C211.611 161.231 211.13 161.691 210.484 161.259Z" fill="#FDF0B9"/>
<path d="M196.515 153.626L196.567 153.667C196.284 154.593 195.621 154.206 195.076 153.883C194.725 153.701 194.817 152.895 195.286 153.045C195.679 153.289 196.004 153.714 196.515 153.626Z" fill="#FDF0B9"/>
<path d="M161.822 155.878C161.944 156.306 162.321 156.447 162.665 156.625C162.552 158.297 160.173 156.223 161.822 155.878Z" fill="#FDF0B9"/>
<path d="M189.118 172.767C188.763 173.278 187.636 173.674 187.465 172.904C187.459 172.699 187.628 172.483 187.839 172.496C188.258 172.523 188.725 172.365 189.118 172.767Z" fill="black"/>
<path d="M195.748 147.792C195.382 148.13 195.649 148.447 195.711 148.853C195.179 149.458 194.762 148.269 194.715 147.859C195.224 147.136 195.271 147.134 195.748 147.792Z" fill="#FDF0B9"/>
<path d="M199.905 176.482C199.719 176.418 198.858 176.174 199.332 175.811C200.177 175.342 201.512 176.478 199.905 176.482Z" fill="black"/>
<path d="M209.006 159.739C208.995 160.635 207.969 160.797 207.819 159.914C207.68 159.384 208.999 159.089 209.006 159.739Z" fill="#FDF0B9"/>
<path d="M203.863 165.571C202.853 165.213 204.919 164.236 205.033 164.675C205.035 165.275 204.276 165.372 203.863 165.571Z" fill="#FDF0B9"/>
<path d="M225.433 149.835C225.717 151.308 223.88 152.572 222.873 151.116C222.004 148.586 221.222 146.011 219.853 143.674C213.952 133.368 205.126 125.003 195.776 117.826C195.302 117.443 194.872 116.99 194.489 116.515C193.668 115.418 195.227 114.672 196.17 115.162C206.617 119.888 223.486 138.425 225.482 149.826C225.467 149.831 225.45 149.833 225.433 149.835Z" fill="white"/>
<path d="M182.699 124.901C182.712 123.181 183.578 121.017 185.39 122.852C187.661 125.812 183.065 129.762 182.699 124.901Z" fill="black"/>
<path d="M227.694 156.644C227.93 157.981 226.191 158.475 225.684 157.35C225.274 156.067 224.457 154.46 225.066 153.147C225.496 152.433 226.3 152.983 226.593 153.513C227.136 154.497 227.63 155.502 227.756 156.629C227.735 156.635 227.716 156.64 227.694 156.644Z" fill="white"/>
<path d="M181.635 104.004C181.654 104.12 181.673 104.235 181.693 104.351C181.577 104.252 181.552 104.137 181.635 104.004Z" fill="#D6E3F2"/>
<path d="M211.577 83.2599C204.678 88.5701 187.838 88.2279 179.222 87.5863C172.797 87.0431 165.541 87.227 160.047 83.4224C156.798 79.6734 171.422 77.8577 173.593 77.6503C177.545 77.0985 181.448 77.3167 185.398 77.7615C187.545 77.7679 189.697 77.6909 191.835 77.9775C194.494 77.9903 193.561 79.6542 194.545 79.4061C195.328 77.9219 196.793 79.1837 197.954 79.0789C201.808 79.1965 209.021 80.3428 211.577 83.2599Z" fill="#FADB90"/>
<path d="M208.8 86.2539C207.089 88.1594 204.482 89.2031 202.574 90.9696C200.425 92.7275 198.147 94.2972 195.91 95.9247C193.353 98.2237 189.069 99.9753 188.917 103.859C188.911 105.159 188.9 106.457 188.864 107.758C188.676 112.625 184.905 107.133 185.003 113.848C184.783 115.286 184.869 116.81 184.415 118.194C183.859 119.092 183.115 117.736 183.145 117.144C182.553 112.398 183.498 107.522 182.623 102.817C180.487 98.8076 176.135 96.592 172.655 93.8674C170.549 92.2976 168.515 90.6188 166.331 89.1453C165.172 88.1872 163.57 87.6483 162.715 86.3908C163.346 85.9716 165.814 87.1992 166.744 87.2933C170.369 88.1466 174.12 88.354 177.828 88.5615C188.214 89.5474 198.744 89.2309 208.8 86.2539Z" fill="#D9C790"/>
<path d="M197.099 79.0914C196.605 79.1085 193.902 78.4198 194.851 79.5447C194.811 79.7736 194.695 79.9211 194.443 79.8997C193.743 79.8655 193.581 79.2004 193.562 78.5909C190.85 77.9386 188.027 78.0541 185.253 78.0755C183.348 77.99 181.5 77.6371 179.596 77.5002C177.614 77.4532 175.608 77.7889 173.598 77.6478C180.724 76.4331 188.207 76.4673 195.412 77.1901C197.728 77.3462 214.67 79.286 211.582 83.2552C207.388 80.2248 202.028 79.765 197.099 79.0914Z" fill="#FDF0B9"/>
<path d="M183.793 124.779C183.996 122.022 185.463 124.612 184.482 125.82C183.827 126.346 183.819 125.286 183.793 124.779Z" fill="#D9C790"/>
<path d="M201.302 82.815C201.597 83.0204 201.935 82.9883 202.267 82.984C202.585 82.6803 203.176 82.7466 203.334 83.1529C202.714 84.2693 201.448 83.9357 201.219 82.86C201.306 82.9583 201.33 82.9391 201.302 82.815Z" fill="#FDF0B9"/>
<path d="M168.847 82.049C168.773 84.0166 166.471 81.1851 168.437 81.3519C168.663 81.5294 168.811 81.7582 168.847 82.049Z" fill="#FDF0B9"/>
<path d="M201.219 82.8596C200.648 83.0008 199.991 82.6586 200.723 82.2116C201.321 81.8844 201.715 82.2544 201.304 82.8147L201.281 82.8746L201.219 82.8596Z" fill="black"/>
<path d="M168.848 82.0493C168.658 81.8483 168.459 81.6515 168.438 81.35C169.092 80.7084 170.054 82.4278 168.848 82.0493Z" fill="black"/>
<path d="M196.304 82.5071C196.086 83.3924 195.517 82.7637 195.111 82.5028C194.664 82.0558 195.286 81.6602 195.748 81.797C195.915 82.0473 196.116 82.274 196.304 82.5071Z" fill="#FDF0B9"/>
<path d="M172.059 81.7714C172.446 81.2582 172.899 81.9618 173.335 82.15C173.235 82.2825 173.162 82.3788 173.089 82.4729C172.296 82.7017 172.133 82.5905 172.059 81.7714Z" fill="black"/>
<path d="M172.058 81.7711C172.216 82.2758 172.586 82.4725 173.088 82.4725C172.879 82.9537 172.462 82.8083 172.115 82.7548C171.476 82.7206 171.213 81.6513 172.058 81.7711Z" fill="#FDF0B9"/>
<path d="M194.849 79.5468C193.816 79.3822 194.09 78.3236 195.048 78.8946C195.103 79.1491 195.101 79.3843 194.849 79.5468Z" fill="black"/>
<path d="M196.303 82.5067C195.728 82.3848 195.698 82.3463 195.747 81.7967C196.198 81.7518 196.628 81.9485 196.303 82.5067Z" fill="black"/>
<path d="M203.181 82.9348C202.875 82.9519 202.571 82.969 202.266 82.9861C202.304 82.3018 203.11 82.2462 203.181 82.9348Z" fill="black"/>
<path d="M197.098 79.0914C197.517 78.7578 197.594 78.7813 197.799 79.2881C197.436 79.5533 197.436 79.5533 197.098 79.0914Z" fill="black"/>
<path d="M174.229 91.8358C173.896 91.5791 173.808 91.1642 174.257 91.0723C174.856 91.1493 174.516 91.5406 174.229 91.8358Z" fill="black"/>
<path d="M176.356 92.4533C176.18 92.8041 175.757 92.68 175.609 92.3806C175.648 92.0171 176.388 92.0427 176.356 92.4533Z" fill="black"/>
<path d="M129.781 83.4864C129.82 83.4179 129.858 83.3516 129.897 83.2832C129.858 83.3495 129.82 83.4179 129.781 83.4864Z" fill="#EF6261"/>
<path d="M129.684 83.604C129.716 83.5655 129.75 83.5248 129.782 83.4863C129.75 83.5248 129.718 83.5633 129.684 83.604Z" fill="#EF6261"/>
<path d="M115.197 189.457C113.298 186.895 106.957 184.808 104.707 185.321C106.551 186.486 108.907 186.88 110.937 187.757C110.928 188.768 111.067 189.59 112.316 189.895C113.636 190.214 112.868 191.687 111.842 191.927L111.844 191.921C111.78 191.831 111.707 191.829 111.628 191.901C111.236 191.906 110.843 191.91 110.451 191.914C110.066 190.71 107.173 191.258 106.223 191.585H106.226C105.456 191.585 104.688 191.585 103.914 191.585C103.557 190.447 103.477 190.424 102.286 190.593C101.063 190.766 99.8311 190.915 98.5971 190.988C96.914 190.93 95.2908 189.566 93.5863 190.03C92.7715 189.876 92.4422 190.768 91.7386 190.973C90.5687 191.247 90.9366 191.976 91.2445 192.879C90.3185 192.879 89.5016 192.825 88.6953 192.892C87.4955 192.988 86.2445 192.147 85.0875 193.086C85.019 193.142 84.8586 193.103 84.7453 193.082C79.1849 192.224 73.9602 189.979 68.6715 188.131C69.6445 187.631 69.3387 186.747 69.5483 186.044C69.8391 184.393 62.0802 185.796 64.5418 188.646C70.0338 193.202 81.5203 195.4 88.629 196.191C91.5482 196.262 94.7091 195.804 97.16 194.044C97.5941 193.482 98.0817 193.535 98.7083 193.685C101.865 194.748 118.388 195.582 115.197 189.457Z" fill="#CCCCCC"/>
<path d="M147.449 49.6706C147.141 48.103 145.065 47.7758 144.01 48.8665C144.269 46.6701 146.827 43.6953 144.355 42.0336C143.589 40.9236 142.924 41.1674 141.839 40.8851C141.258 40.3954 140.642 40.3868 139.97 40.6777C139.149 40.8958 138.238 40.6093 137.731 41.4754C135.094 45.1581 134.47 49.8802 134.181 54.2921C133.858 56.1891 134.438 59.0741 133.129 60.5112C131.166 59.6322 130.118 62.7311 128.879 63.8196C126.617 66.7175 124.453 69.6816 122.166 72.5602C117.263 66.3924 114.643 58.6592 108.937 53.1223C120.173 52.192 121.114 45.2094 123.018 35.8551C123.792 31.9628 124.095 28.0021 124.497 24.0607C125.12 22.6406 125.997 21.3061 126.352 19.7642C126.752 18.7013 126.683 17.54 126.841 16.4279C126.863 16.0622 127.047 15.8591 127.365 15.6901C129.305 14.6144 130.948 12.865 131.615 10.7264C129.149 10.6387 127.323 10.4013 126.621 10.0741C128.533 8.30119 130.826 6.28234 131.001 3.50642C127.194 5.01842 123.127 3.75664 119.286 3.00812C111.078 1.17105 102.299 -1.53857 93.9858 1.0962C90.1406 2.16978 87.2043 5.07188 85.9019 8.82088C85.8227 9.03474 85.7351 9.19727 85.4806 9.28282C84.6273 9.56512 83.8702 10.0271 83.2115 10.6408C81.1798 12.5806 79.5459 15.1619 79.4539 18.0404C79.6635 22.4824 80.4099 26.9756 82.0181 31.1373C82.5164 33.524 80.7692 35.0959 82.6341 37.6687C83.4168 38.8535 84.4305 39.7731 85.7308 40.3526C86.0216 40.4831 86.197 40.6627 86.3232 40.9407C87.2086 42.8591 87.9721 44.8694 89.8562 46.0478C89.5375 46.7214 89.6081 47.7287 88.9729 48.1864C87.416 48.9712 85.8121 49.6599 84.2658 50.464C80.859 52.3267 77.5891 54.5979 75.1361 57.6476C71.0834 62.7952 67.6873 68.4262 64.6398 74.2133C62.3194 79.2155 58.6131 84.7503 60.5336 90.4197C60.5529 90.4775 60.7646 90.9843 60.8373 91.1469C62.3108 94.2243 65.6364 95.5824 68.8315 96.1448C67.9247 100.689 67.4349 105.215 66.8361 109.783C66.7912 110.769 68.2134 111.004 67.6851 112.148C67.2104 123.446 73.0189 133.859 76.5711 144.313C77.2512 146.028 78.0489 147.696 78.8017 149.379C79.1096 150.156 78.6071 151.026 78.4509 151.8C75.9274 158.992 73.2071 166.112 70.5723 173.263C70.2429 174.375 69.3768 175.661 69.766 176.83C70.2344 177.419 69.7682 177.908 69.5928 178.482C69.0453 180.201 68.6839 182.002 68.0744 183.693C67.2318 185.843 65.7968 188.435 68.825 189.433C76.1134 192.425 84.5481 196.275 92.5572 194.917C94.405 194.523 93.3485 192.122 93.4683 190.761C97.3092 191.859 101.291 192.173 105.233 192.727C107.177 192.896 109.232 193.221 111.135 192.695C112.816 192.04 114.181 190.075 113.351 188.3C111.659 184.429 107.32 184.724 103.954 179.337C103.804 179.147 103.828 178.98 103.913 178.77C104.578 177.123 105.235 175.47 105.889 173.819C108.871 166.396 111.841 158.964 114.132 151.293C116.786 144.522 115.682 140.185 113.265 133.601C111.12 127.508 108.988 121.408 106.929 115.285C106.584 114.458 106.674 113.579 106.741 112.698C107.658 112.398 107.297 108.423 107.292 107.501C108.306 98.4481 109.245 90.2273 109.861 81.121C113.154 86.335 118.916 92.5113 125.622 89.2563C130.261 86.6387 132.763 80.5222 135.638 76.1894C137.137 73.6423 138.48 71.0054 139.91 68.4177C140.439 67.5002 140.732 66.093 139.94 65.244C140.413 64.3949 140.864 63.5716 141.335 62.7589C141.803 62.2563 142.522 62.0253 142.909 61.4137C144.635 58.6356 145.484 55.3807 146.831 52.4037C147.199 51.5119 147.569 50.6501 147.449 49.6706ZM90.44 171.236C90.3523 171.525 90.2946 171.826 90.1877 172.108C90.0037 173.689 88.2565 176.76 89.7385 177.833C88.9473 179.566 88.1752 181.255 87.3839 182.99C86.9263 182.288 86.4665 181.578 86.043 180.928C87.6213 177.692 88.9024 174.44 90.2711 171.135C90.4443 170.74 90.6197 170.344 90.7929 169.948L90.7694 169.916L90.7993 169.94C90.6795 170.372 90.5598 170.804 90.44 171.236Z" fill="black"/>
<path d="M60.8359 91.1445C60.8573 91.1873 60.8808 91.2322 60.9022 91.275C60.8787 91.2322 60.8573 91.1894 60.8359 91.1445Z" fill="#EED3CA"/>
<path d="M106.178 169.809C105.774 171.527 104.901 173.109 104.304 174.769C103.532 176.095 103.545 178.272 102.044 178.958C100.029 180.015 90.1189 178.845 90.305 176.099C91.8085 170.408 93.3803 164.734 94.9843 159.071C96.0942 155.985 97.3282 152.927 98.1216 149.736C98.8017 145.063 97.8265 140.324 96.8149 135.763C96.2717 133.549 95.6943 131.344 95.1297 129.135C94.5224 127.401 94.533 125.328 93.483 123.81C92.465 122.972 92.8243 124.464 92.9419 125.035C91.3358 126.171 92.9013 128.703 93.1622 130.228C94.1695 133.63 94.7362 137.123 95.2324 140.63C95.4698 143.154 96.5818 145.607 96.2375 148.158C95.1041 155.538 89.533 169.944 89.533 169.944C89.533 169.944 86.1155 180.19 84.4217 180.346C80.0012 181.157 74.969 180.06 71.4125 177.265C69.9197 175.964 71.7718 173.956 72.0669 172.433C73.7072 168.064 75.4245 163.725 76.9408 159.311C77.824 156.05 80.1894 152.298 79.8472 148.949C77.3129 143.562 75.3625 137.94 73.2859 132.369C70.8928 125.861 68.2452 119.037 68.7756 112C79.7809 118.309 94.0241 117.424 105.628 113.198C105.75 113.842 105.491 114.278 105.673 114.86C104.486 119.336 108.269 124.037 109.26 128.397C110.688 132.82 112.07 137.258 113.398 141.71C114.311 145.087 112.891 148.496 111.986 151.71C110.449 157.833 107.388 163.708 106.178 169.809Z" fill="black"/>
<path d="M78.0844 86.6876C75.7041 89.177 74.8979 93.8584 77.6268 96.4076C69.7481 95.6955 58.5909 94.8635 61.5444 83.9481C63.4157 81.741 64.8977 79.2602 66.4204 76.8072C70.5715 70.5903 73.5099 63.4943 78.3154 57.7522C80.8154 55.173 83.7624 52.6879 86.8078 50.9492C85.0627 56.1525 89.7826 61.067 94.7378 61.7963C100.26 63.073 105.919 58.5028 103.502 52.72C104.986 53.0087 106.511 52.8205 107.818 53.6375C109.834 58.5755 113.079 62.8806 115.606 67.5598C116.941 69.4354 118.652 74.089 121.173 74.0313C119.61 78.3427 125.292 70.2716 125.703 69.7027C127.741 67.0658 129.706 64.3733 131.832 61.807C133.197 64.322 135.523 66.1975 138.115 67.3866C135.331 72.5022 132.313 77.8551 129.892 83.2851L129.897 83.2765C129.824 83.3257 129.843 83.4262 129.781 83.4797C123.4 94.1108 114.789 87.8083 110.108 79.5126C109.24 77.9279 110.869 65.2245 109.011 65.1304C108.859 70.4427 108.883 75.7657 108.727 81.0802C108.506 82.6563 97.4132 83.0199 95.5719 83.0113C95.4799 82.5366 95.3922 82.0746 95.3024 81.6148C95.2575 81.5827 95.2105 81.5507 95.1655 81.5186C96.4765 80.8834 96.2926 78.8068 95.0265 78.2743C92.8516 77.868 90.544 78.5074 88.461 79.1768C87.0559 79.7371 86.0593 80.9732 84.9087 81.9121C83.1701 82.297 79.2607 81.1999 77.599 80.4172C78.356 78.516 81.3394 74.9958 80.7192 73.0839C78.3218 76.6147 76.4184 80.5241 74.2649 84.2368C72.5176 84.1063 70.6463 83.6786 68.9504 84.2432C69.6711 85.2056 70.9885 85.6953 72.1797 85.8921C74.1066 86.3604 76.2217 86.2406 78.0844 86.6876Z" fill="#D52B1E"/>
<path d="M77.6413 97.5693C79.7222 98.2323 79.4485 95.8285 81.0631 95.8969C81.7689 95.9739 82.4575 95.8007 83.1333 95.6189C91.2386 95.5419 99.5643 96.7075 107.58 94.5239C107.394 98.6579 106.99 102.783 106.226 106.853C106.117 107.403 106.733 111.547 105.666 111.975C104.276 112.555 102.858 113.051 101.416 113.481C91.1659 116.175 76.9997 116.815 68.1886 110.091C67.6283 109.522 68.2165 108.551 68.178 107.837C68.6955 104.682 68.8324 101.43 69.521 98.3221C70.9624 97.6549 72.607 97.5287 74.1532 97.2079C75.3166 97.2314 76.4736 97.4752 77.6413 97.5693Z" fill="#D52B1E"/>
<path d="M94.1703 85.0475C94.1938 84.1985 95.3145 83.944 96.0095 83.9974C100.244 84.0103 104.504 83.7429 108.621 82.6929C108.54 85.2164 107.885 93.1806 107.588 93.3945C101.018 95.9223 93.5501 94.9685 86.5547 94.5878C88.9948 93.2277 90.9324 91.2409 93.148 89.5621C94.8247 88.4885 96.7003 86.4162 94.1703 85.0475Z" fill="white"/>
<path d="M139.55 62.0189C139.702 62.4209 139.702 62.4209 140.232 62.5984C139.905 63.1823 139.096 65.184 138.403 65.0985C136.438 64.814 134.462 63.7576 133.234 62.1899C134.787 60.4149 135.176 58.5158 135.157 56.2211C135.493 51.5439 135.598 45.1302 139.094 41.6657C138.722 42.6601 135.953 48.9006 136.99 49.4866C137.644 49.3711 137.524 47.9981 137.8 47.4634C138.209 46.3449 139.558 40.267 141.288 41.8175C139.565 43.9861 139.128 46.7256 138.476 49.3476C138.628 49.4395 138.739 49.508 138.872 49.5871C139.843 48.1842 140.628 41.1032 143.04 42.2238C141.357 44.4608 140.527 46.9951 140.347 49.8074C140.732 49.7731 140.826 49.5293 140.903 49.292C141.643 47.1427 142.135 44.7538 143.619 42.9809C145.403 43.4471 143.427 46.2209 143.286 47.3693C142.512 49.3133 142.514 51.4627 141.656 53.3788C141.562 53.5649 141.412 53.7852 141.671 53.9734C142.815 54.3391 143.59 51.2573 144.259 50.496C144.764 49.3155 146.528 48.6375 146.406 50.4618C145.495 53.428 144.069 56.2232 142.918 59.1061C141.712 61.7729 141.75 60.9496 139.55 62.0189Z" fill="#EED3CA"/>
<path d="M91.11 189.515C86.9504 190.943 91.3516 193.279 87.0573 192.567C82.6389 191.795 78.4579 190.169 74.2705 188.619C72.3458 187.639 71.0327 185.753 69.3175 184.453C69.1528 184.309 69.0972 184.192 69.1549 183.974C69.7088 182.072 70.0446 180.146 70.7525 178.287C74.51 180.496 72.5126 182.93 78.0003 181.367C80.2373 181.775 82.5619 182.008 84.7839 181.427C85.4961 181.418 85.6544 182.325 86.0222 182.902C84.7861 182.887 80.4896 183.217 80.6885 184.88C80.8446 185.129 81.1889 185.193 81.5632 184.96C83.3896 183.967 86.7643 183.058 87.7887 185.481C87.6582 185.693 87.4679 185.616 87.3139 185.612C86.4585 185.588 85.6009 185.62 84.7733 185.83C84.1359 186.061 81.9909 186.459 82.8955 187.41C83.1329 187.579 83.4623 187.483 83.6911 187.338C84.985 186.517 86.5761 186.735 88.0346 186.765C89.4697 187.017 89.8888 188.813 91.11 189.515Z" fill="#3E3E3E"/>
<path d="M105.925 183.392C104.965 183.662 101.113 184.28 101.661 185.597C101.819 185.815 102.061 185.858 102.345 185.719C103.921 184.928 105.949 184.014 107.696 184.703C108.862 185.591 110.342 186.029 111.248 187.229C106.586 189.827 114.003 191.316 103.248 189.827C100.215 189.288 97.0843 188.875 94.1886 187.813C92.2767 186.179 90.9465 183.967 88.8164 182.515C89.257 181.134 89.9135 179.831 90.6449 178.512C92.9204 180.571 92.1591 183.807 96.0492 180.612C96.9752 180.075 98.1344 180.55 99.1545 180.475C100.346 180.528 101.498 180.317 102.623 179.936C103.361 179.602 103.817 181.07 104.36 181.542C103.201 181.79 99.3063 181.934 99.3213 183.386C99.4368 183.666 99.7597 183.76 100.168 183.572C101.569 183.093 105.076 181.718 105.925 183.392Z" fill="#3E3E3E"/>
<path d="M80.7227 86.8098C80.2501 87.6845 79.3155 88.4523 79.4674 89.466C79.8352 89.5259 80.0576 89.3249 80.2587 89.0896C81.7258 87.7744 82.6496 84.9856 84.9465 85.285C85.9174 85.3428 90.4363 86.0977 89.9273 87.4258C89.1852 89.0982 87.0317 88.2641 85.7913 87.6781C84.4782 87.2098 83.9029 89.0083 83.1159 89.7355C83.0111 89.8681 82.9084 90.0306 83.0859 90.1889C83.813 90.4776 85.1176 88.4972 85.8768 88.8715C87.4872 89.6499 90.2374 89.8681 91.0031 87.8706C91.2811 86.8077 92.8059 87.4001 93.5758 85.9737C96.6084 86.9125 89.7584 90.4198 89.0826 91.5961C87.1429 93.4438 84.5017 94.3763 81.8541 94.6222C77.6795 95.5611 76.0199 86.7778 80.7227 86.8098Z" fill="#EED3CA"/>
<path d="M86.8076 50.9516C83.9632 52.9961 81.0889 55.0406 78.6616 57.5834C75.212 61.2148 73.2274 65.9369 70.5584 70.1307C67.6563 74.6924 65.3209 79.8828 61.6211 83.8178C64.0548 76.7882 67.8637 70.321 71.8629 64.0827C75.4494 58.0496 80.5585 53.041 87.0642 50.2544C87.107 50.5559 86.9337 50.7463 86.8076 50.9516Z" fill="#FCA6A6"/>
<path d="M106.177 169.81C105.837 169.722 105.966 169.459 106.002 169.266C107.155 165.269 108.673 161.388 110.031 157.457C110.752 155.293 111.43 153.109 112.076 150.921C112.623 148.428 113.829 145.94 113.474 143.353C113.406 141.114 112.347 139.05 111.808 136.896C110.555 133.111 109.503 129.259 108.094 125.527C107.21 122.332 104.12 118.038 105.671 114.864C107.142 118.245 107.993 122.037 109.276 125.547C111.197 131.327 113.705 137.035 114.668 143.073C114.969 146.486 113.378 149.726 112.441 152.936C110.662 158.663 108.575 164.311 106.177 169.81Z" fill="#6A6969"/>
<path d="M89.6484 169.529C91.5326 161.738 95.8226 154.433 96.199 146.347C95.4976 143.109 94.9565 139.845 94.456 136.573C94.1395 134.696 93.7375 132.835 93.2349 130.998C93.0531 129.595 90.9273 125.497 92.9398 125.038C94.6614 132.961 98.5387 142.683 96.6759 150.712C94.5737 157.051 92.2191 163.381 89.6484 169.529Z" fill="#6A6969"/>
<path d="M121.174 74.0356C118.665 75.0173 114.899 66.0458 113.488 64.1445C111.668 60.6607 108.881 57.4058 107.82 53.6396C113.928 59.0546 116.37 67.2712 121.478 73.5224C121.377 73.6913 121.274 73.8645 121.174 74.0356Z" fill="#FCA6A6"/>
<path d="M68.623 185.203C70.3852 186.58 71.6876 188.415 73.6081 189.515C77.5089 191.136 81.5381 192.389 85.6271 193.441C87.4792 193.811 90.6871 194.581 90.2444 191.578C90.1909 190.808 91.2624 190.838 91.7885 190.639C92.8065 190.513 92.4835 192.876 92.5199 193.552C87.616 196.02 74.6261 190.768 69.5469 188.559C67.4425 187.767 68.052 187.032 68.623 185.203Z" fill="#CCCCCC"/>
<path d="M88.4829 183.539C89.9607 184.771 91.1776 186.221 92.4158 187.673C93.853 189.844 100.192 190.227 102.831 190.915C104.572 190.969 111.58 192.932 110.673 189.559C110.307 188.806 111.546 188.561 111.965 188.135C112.741 188.999 112.508 190.034 112.061 190.614C110.506 192.671 107.431 191.689 105.205 191.625C101.126 191.112 96.9839 190.84 93.0553 189.521C91.9026 189.087 87.6296 184.651 88.4829 183.539Z" fill="#CCCCCC"/>
<path d="M77.0553 81.3628C79.2859 82.2247 81.5229 82.755 83.8861 83.0951C83.1482 84.0917 82.3356 84.9514 81.5806 85.8411C81.1101 85.3428 80.7145 84.8851 79.9232 84.8808C78.4133 84.7183 76.9676 84.4937 75.4492 84.3248C75.9988 83.3111 76.5143 82.3594 77.0553 81.3628Z" fill="white"/>
<path d="M129.895 83.2896C132.168 77.8083 135.066 72.496 138.118 67.3911C138.417 67.4382 138.714 67.4852 139.009 67.5323C137.358 71.3967 132.724 79.2134 129.895 83.2896Z" fill="#FCA6A6"/>
<path d="M84.2539 84.4233C84.8591 83.5058 85.5863 82.8236 86.7304 82.9433C87.7527 82.9818 94.5556 83.5828 92.6972 85.3643C90.8836 86.795 86.8823 84.2971 84.2539 84.4233Z" fill="#EED3CA"/>
<path d="M87.1641 82.028C89.061 80.8902 91.2488 81.3457 93.3276 81.5382C94.6449 81.4976 94.9315 83.5464 93.5628 83.7282C91.5782 82.7487 89.3668 82.4664 87.1897 82.1306C87.1812 82.0964 87.1726 82.0622 87.1641 82.028Z" fill="#EED3CA"/>
<path d="M78.0865 86.688C76.042 86.4528 70.3661 86.5426 69.3203 84.7227C72.5924 85.1504 75.873 85.4241 79.1729 85.9075C78.7473 86.2133 78.4158 86.4507 78.0865 86.688Z" fill="#EF6261"/>
<path d="M94.2252 80.8944C92.3197 80.3555 90.4056 80.4624 88.4766 80.4068C90.1639 79.562 92.5913 78.9846 94.4968 79.237C95.3608 79.5727 94.933 80.6099 94.2252 80.8944Z" fill="#EED3CA"/>
<path d="M112.37 10.8613C113.81 11.2869 115.264 11.7211 116.778 11.8258C116.928 11.8451 117.082 11.8964 117.195 11.9969C118.701 13.6779 111.352 12.0012 112.347 10.8656L112.37 10.8613Z" fill="white"/>
<path d="M74.4512 97.2203C72.8044 97.5732 71.1705 98.0223 69.5195 98.3217C69.62 97.6716 69.7227 97.0214 69.8232 96.3691C71.3994 96.7883 72.9028 96.8931 74.4512 97.2203Z" fill="black"/>
<path d="M118.207 7.46943C118.748 7.55069 120.938 7.46515 120.895 8.25002C120.328 8.84455 117.918 8.15378 116.902 8.16234C116.248 8.15806 115.987 7.7004 116.849 7.55925C117.253 7.50578 117.79 7.46942 118.166 7.46729L118.207 7.46943Z" fill="white"/>
<path d="M91.6329 12.8563C91.6949 12.9076 91.7013 13.0317 91.6586 13.1856C91.5538 13.5492 91.31 13.8892 91.141 14.2314C90.7154 14.826 90.3412 17.1335 89.736 17.2362C89.6525 17.2041 89.614 17.0458 89.6012 16.941C89.443 15.7006 90.2877 13.6604 91.2522 12.9483C91.3527 12.8713 91.5174 12.7814 91.6158 12.8435L91.6329 12.8563Z" fill="white"/>
<path d="M116.649 10.5401C116.202 10.508 114.587 10.3883 114.504 9.97552C114.512 9.8087 114.876 9.68894 115.073 9.70819C115.939 9.75096 117.447 9.48791 118.088 9.84078C118.193 9.89639 118.27 10.0055 118.227 10.1252C117.99 10.5936 117.087 10.4802 116.679 10.538L116.649 10.5401Z" fill="white"/>
<path d="M87.8057 15.9169C87.718 15.8699 87.6987 15.7244 87.6966 15.6175C87.6581 14.6081 88.4815 12.9956 89.4396 12.8908C89.7005 12.8587 89.6556 13.049 89.5444 13.2137C88.9498 14.0093 88.7616 15.7779 87.8249 15.9276L87.8057 15.9169Z" fill="white"/>
<path d="M122.596 18.2222C120.71 18.5451 118.83 18.9044 116.918 19.0627C114.142 19.33 111.37 19.5952 108.577 19.4434C105.224 19.392 100.149 18.4788 99.4132 22.9635C98.4636 26.7703 98.2583 30.84 96.8297 34.4907C95.2621 36.4325 93.8613 34.7751 92.899 33.2353C83.7072 24.02 77.4988 39.1913 89.3061 39.9292C90.4075 40.0104 91.5666 39.1806 92.6338 39.5121C92.5675 39.8928 92.5675 39.942 92.2873 40.1045C91.8382 40.5216 90.816 40.4916 90.7411 41.176C90.6962 41.9929 90.8352 42.812 90.8566 43.6311C91.2159 45.9323 90.369 48.2142 89.4579 50.3014C89.0901 50.7634 88.7693 52.3502 87.993 51.7044C88.0978 51.2831 88.2047 50.8618 88.3095 50.4404C88.0871 50.896 87.7684 51.313 87.7021 51.8348C87.6615 51.9803 87.6615 52.1834 87.6059 52.2861C86.3291 61.8521 104.762 64.7285 102.69 53.8408C101.866 55.4063 101.588 57.0894 100.594 58.4303C99.8773 58.0668 100.972 55.787 100.983 55.0363C99.595 53.535 94.2228 48.937 94.4024 47.194C100.211 51.6616 108.708 53.9649 115.451 50.1239C117.705 48.8087 119.168 46.8626 119.903 44.3946C121.514 38.9197 122.512 33.2674 123.075 27.5936C123.056 26.041 124.625 18.2008 122.596 18.2222Z" fill="#EED3CA"/>
<path d="M94.2515 180.552C93.7233 181.005 93.5779 181.003 93.2656 180.552C93.5907 180.552 93.8922 180.552 94.2515 180.552Z" fill="#EED3CA"/>
<path d="M88.3138 50.4362L88.3266 50.4233C88.3266 50.4233 88.3074 50.4426 88.3138 50.4362Z" fill="#EF6261"/>
<path d="M110.058 33.7423C110.192 36.191 107.164 38.6889 105.678 35.6478C104.397 31.948 109.393 29.2448 110.058 33.7423Z" fill="black"/>
<path d="M111.679 45.4061C109.645 45.4446 110.704 43.3273 111.651 42.5147C113.116 41.054 116.884 40.2499 117.098 42.8718C117.18 43.7978 116.598 44.5784 115.745 44.8885C114.573 45.3505 112.932 45.2606 111.718 45.4061H111.679Z" fill="black"/>
<path d="M121.441 34.2916C120.971 35.5555 119.369 36.5029 118.268 35.3631C116.454 33.804 118.176 29.3685 120.727 30.6774C121.843 31.4366 121.882 33.141 121.441 34.2916Z" fill="black"/>
<path d="M109.056 25.7075C110.027 25.7738 111.395 26.24 111.489 27.3478C111.47 27.7135 111.243 27.8739 110.895 27.7499C109.361 26.3684 107.642 27.0463 106.301 28.2803C105.97 28.6374 105.29 28.8449 105.313 28.1434C106.002 26.7747 107.533 25.8572 109.056 25.7075Z" fill="black"/>
<path d="M88.7363 34.4375C87.8125 35.0748 87.7996 36.1976 87.0319 36.8777C86.4373 36.3751 87.5858 34.4011 87.9515 33.8194C87.5794 33.4879 86.1486 33.18 86.2299 32.7159C87.3826 31.7535 89.7714 33.8921 90.49 34.8609C90.8964 35.2609 90.9241 36.3729 90.1307 35.8704C89.6046 35.4084 89.271 34.9893 88.7363 34.4375Z" fill="black"/>
<path d="M101.055 30.303C101.16 30.2388 101.301 30.2666 101.368 30.3672C101.577 30.6879 101.631 31.1328 101.691 31.6439C101.736 32.016 101.78 32.5272 101.917 32.5678C102.007 32.5956 102.091 32.6405 102.118 32.7282C102.728 34.546 102.142 35.4699 101.415 35.5811C100.442 35.7308 99.2141 34.4284 100.258 31.8685C100.521 31.2782 100.48 30.658 101.055 30.303Z" fill="#BCBDDE"/>
<path d="M101.238 30.209C101.462 31.3446 99.5994 34.5375 101.439 34.6979C101.96 34.0286 101.494 33.1624 102.037 32.5037C103.725 36.9991 98.4018 36.4217 100.258 31.8707C100.543 31.2227 100.468 30.5405 101.238 30.209Z" fill="black"/>
<path d="M120.871 24.8884C122.233 24.5997 123.57 27.0527 122.295 26.7426C121.711 26.2935 121.179 25.5856 120.392 26.0604C116.393 28.8577 118.563 25.021 120.871 24.8884Z" fill="black"/>
<path d="M118.046 35.5472C118.589 36.0199 119.021 37.5404 117.817 37.0165C117.364 36.3428 115.091 33.8941 115.662 33.2696C116.085 32.9809 117.86 35.143 118.046 35.5472Z" fill="black"/>
<path d="M114.565 46.0093C114.927 45.9302 115.382 46.1569 115.093 46.5589C114.518 46.9973 113.562 47.0316 112.897 46.792C112.232 46.0457 114.144 46.1184 114.565 46.0093Z" fill="black"/>
<path d="M114.069 44.3282C114.028 44.3923 113.896 44.4137 113.806 44.4287C112.989 44.5463 112.112 44.8885 111.37 44.711C110.833 44.557 111.146 44.0031 111.441 43.7486C112.108 42.8974 113.278 43.3145 113.941 44.0395C114.007 44.11 114.112 44.2469 114.078 44.3111L114.069 44.3282Z" fill="#EF6261"/>
</svg>
