<svg width="200" height="200" viewBox="0 0 200 200" fill="none" xmlns="http://www.w3.org/2000/svg">
<path d="M35.2106 160.318C31.3977 158.049 31.4933 154.509 35.4222 152.452L89.3825 124.171C92.0915 122.751 96.4462 122.881 99.0654 124.46L161.877 159.211C163.955 160.463 163.928 162.471 161.822 163.67L106.604 195.121C104.498 196.321 101.067 196.289 98.9843 195.049L35.2106 160.315V160.318Z" fill="#D4B393"/>
<path d="M165.223 157.547L153.692 150.86C152.811 145.561 155.442 136.284 151.044 132.32C150.227 131.584 146.141 129.544 145.993 129.11L145.956 91.8585C145.573 88.0456 144.284 84.589 141.314 82.0799C142.76 80.4053 142.493 78.8436 140.949 77.3746L110.738 59.9209C109.33 59.4429 107.931 59.9325 106.56 60.1788V45.8775C106.56 45.1155 105.248 43.6291 104.64 43.1366C104.277 42.844 103.275 42.505 103.072 42.1602C102.629 41.4098 102.742 39.3324 101.58 38.5675C97.4947 36.1742 93.4847 33.5637 89.1909 31.5732H87.9189C82.5588 32.3092 82.6776 43.3829 88.8432 42.1544C89.2198 42.1457 89.4951 42.3543 89.6892 42.6614C90.4802 44.565 91.3523 45.2835 93.4297 45.1763C94.5944 47.9839 96.9905 48.8791 99.7024 47.5609C100.748 47.4276 100.725 50.1858 100.577 50.5828L61.469 73.1619C61.5327 70.5774 59.8638 69.4851 57.9139 68.248C57.6821 67.0687 57.2968 65.9619 56.7608 64.9276C53.2289 62.6416 49.6246 60.4338 45.945 58.3042C37.9193 53.8742 35.1205 69.6792 43.8994 68.5551C44.6469 70.6354 45.9797 71.5973 47.8978 71.4466C49.1668 74.3874 51.392 75.0364 54.2372 73.7703C54.6689 74.2918 55.0919 74.6685 55.512 74.8945L55.089 75.1523V99.3539C53.5215 98.6528 51.1051 98.928 49.4189 99.1888C37.9396 100.979 32.3825 112.748 32 123.306V130.721C32.5998 133.233 32.7968 135.837 33.3357 138.387C35.8216 150.124 42.9839 163.162 53.197 169.791C67.3564 178.979 80.9508 172.335 84.8912 156.614C86.0762 151.889 86.5803 144.663 85.6213 139.899C85.5634 139.613 85.5779 139.523 85.8995 139.624L94.2641 144.393L94.69 145.028L94.6668 165.335L94.493 165.585C84.3697 167.456 83.4019 181.14 88.8895 188.12C94.9131 195.781 104.521 193.993 107.308 184.742L115.667 189.514C118.13 190.49 119.231 189.328 120.673 187.532L135.998 178.707C136.313 178.324 136.331 175.465 136.108 175.001L123.933 167.9L123.191 167.784L107.618 176.487V163.881C107.618 163.493 107.01 161.774 106.81 161.299C105.483 158.164 102.936 157.675 100.418 155.829V144.283C101.154 144.202 101.629 144.819 102.243 145.106C118.422 152.607 129.797 141.238 131.747 125.569L140.236 120.768V139.094C138.976 139.627 137.791 139.789 136.571 140.514C130.771 143.959 130.044 152.431 132.361 158.199C132.729 159.112 134.401 161.551 134.485 162.024C134.676 163.104 133.691 165.866 134.74 166.836L146.025 173.263C151.325 170.568 156.259 167.181 161.486 164.373C162.569 163.791 164.015 163.417 164.876 162.893C166.915 161.65 166.999 159.057 165.217 157.539L165.223 157.547ZM44.505 113.786L45.2525 114.411L55.5149 135.82L42.5406 128.356C42.0277 123.445 42.4768 118.329 44.505 113.789V113.786ZM42.8071 130.735L54.6196 137.642C54.101 138.743 55.3121 140.589 54.9354 141.479L48.6308 148.102C45.5596 142.797 43.6792 136.802 42.8071 130.735ZM57.4214 159.546C54.2691 156.826 51.5919 153.561 49.5811 149.904L56.1552 142.693C56.4537 142.423 57.4214 143.2 57.4214 143.339V159.546ZM57.4214 134.971L45.9855 111.786C47.4922 108.229 52.6813 109.379 55.4801 110.639L55.5207 123.416C55.6598 124.158 56.7492 124.668 57.4214 124.798V134.968V134.971ZM59.1163 124.909L59.635 124.59L66.7509 128.519L66.5423 129.159L60.1768 135.942C59.9189 136.255 59.1192 135.359 59.1192 135.293V124.911L59.1163 124.909ZM65.5774 163.997C65.2906 163.997 63.022 163.165 62.5729 162.977C61.3386 162.455 60.1855 161.728 59.1163 160.926V143.446L69.0716 163.997H65.5774ZM70.8709 162.933L60.8982 142.808C60.707 142.435 61.0083 141.664 61.3734 141.557L75.3821 149.42C75.3705 154.091 74.3216 159.561 70.8738 162.933H70.8709ZM61.4951 139.268L61.1213 137.312L68.3734 129.704C68.666 129.628 71.4504 131.176 71.8154 131.486C72.7918 132.323 74.2028 138.26 74.5129 139.807C75.0141 142.325 75.3879 144.9 75.4226 147.473L61.4922 139.268H61.4951ZM93.9541 118.027C93.0936 117.552 92.236 117.063 91.3813 116.576C81.2058 110.781 71.065 104.856 61.0228 98.8498V95.7786L62.089 96.0886L92.1056 113.522C93.4239 114.716 94.0758 116.44 94.4901 118.129C94.3134 118.471 94.1106 118.12 93.9512 118.03L93.9541 118.027ZM100.647 184.826C100.091 185.602 98.1813 185.733 97.3005 185.446C93.6557 184.252 91.8709 177.478 92.6445 174.12C92.885 173.077 93.3891 171.205 94.7045 171.626V178.936C94.7045 180.616 98.6507 181.419 99.8821 179.877L100.632 177.771C101.273 179.408 101.676 183.397 100.65 184.826H100.647ZM101.902 164.738V167.81L100.418 166.856V163.148C100.914 162.699 101.902 164.617 101.902 164.736V164.738ZM139.46 91.789L106.563 72.5737V69.5025L107.63 69.8125L137.646 87.2459C138.967 88.4367 139.616 90.1635 140.031 91.8498L139.457 91.7861L139.46 91.789ZM146.501 155.534C145.588 156.435 142.859 157.272 141.778 158.246C141.181 158.396 140.251 157.034 139.941 156.562C138.113 153.766 137.209 149.348 138.721 146.268C139.121 145.451 139.234 145.19 140.239 145.352V152.874C140.239 154.186 144.226 155.029 145.162 153.83C145.579 153.671 145.924 152.187 146.272 152.344C146.703 152.538 147.031 155.006 146.498 155.531L146.501 155.534ZM147.865 141.751L145.959 140.586V136.243C146.622 136.211 147.865 137.828 147.865 138.257V141.754V141.751Z" fill="black"/>
<path d="M98.7269 161.879V165.904L96.5395 165.657L96.186 165.165L96.1947 118.335C96.0063 116.127 94.6678 113.267 92.8656 111.917L60.1052 93.0411C59.8937 92.8788 59.7663 92.0415 60.2762 92.1806L90.1015 109.382C91.866 109.944 91.7501 108.988 92.4832 108.907C93.3292 108.814 95.0502 110.011 95.6616 110.599C97.6984 112.569 98.4285 115.817 98.7356 118.541L98.6197 155.943C96.2613 157.177 96.157 161.007 98.7269 161.876V161.879Z" fill="#838383"/>
<path d="M94.2787 106.37C93.0039 106.788 91.4972 107.665 90.2659 107.526L60.1913 90.2494C60.0349 89.7279 60.3855 89.5193 60.5999 89.2064C61.0229 88.8384 62.9352 87.9141 63.3871 88.1546C72.3573 92.8831 81.3652 98.1621 90.1645 103.427C90.8859 103.858 91.5726 104.342 92.2593 104.835C92.9459 105.327 93.6152 105.843 94.2758 106.37H94.2787Z" fill="#454545"/>
<path d="M60.5996 89.2079C61.3732 88.0867 63.2623 87.3971 64.5661 87.8925L94.1423 104.917C94.4204 105.138 94.8666 105.708 94.9187 106.05C95.0057 106.607 94.5421 106.285 94.2784 106.369C84.2014 100.325 73.9883 94.4956 63.7664 88.6893C62.6625 88.2489 61.6485 89.0109 60.5996 89.205V89.2079Z" fill="#838383"/>
<path d="M54.6696 66.1161L55.3041 67.1737C52.1402 66.6521 50.5756 69.8885 52.5516 72.2556C50.2656 73.2205 50.3641 70.3752 49.2458 69.7407C48.4751 69.3032 47.6464 69.7349 46.925 69.3061C45.9022 68.6977 45.9833 66.458 43.7553 66.319C42.5876 66.2465 42.04 67.0056 41.2375 65.6729C40.5624 64.5516 40.6377 63.4738 40.9043 62.3003C41.4866 61.1617 42.4486 60.2374 43.8306 60.4547L53.3658 65.7945L54.6725 66.1161H54.6696Z" fill="#2E2E2E"/>
<path d="M59.3277 100.65C58.7018 100.427 57.3459 100.441 57.2068 99.6993L57.2184 75.5354C57.03 74.4083 57.0532 73.1972 56.1609 72.3541C55.3931 71.6268 53.2548 71.1662 53.391 69.8305C53.4605 69.1409 54.2254 68.7527 54.886 68.9584C55.1931 69.054 57.4444 70.3839 57.7747 70.636C58.3281 71.059 59.1741 71.9166 59.2784 72.6264L59.3392 87.6289C58.528 89.008 57.7689 92.6616 58.6265 94.0234C58.7974 94.2928 59.3277 94.5652 59.3277 94.6116V100.65Z" fill="#838383"/>
<path d="M54.6686 66.1162L53.2431 66.1625L43.7079 60.8546C42.6214 60.6692 41.6769 61.7209 40.9004 62.3004C41.1959 60.9937 41.929 59.6348 43.453 59.6377L54.6686 66.1162Z" fill="#454545"/>
<path d="M66.1073 104.039L65.8958 104.251C65.1917 103.764 64.2559 103.112 63.5431 102.683C63.3374 102.559 60.5299 101.545 61.0253 101.072C62.2828 101.614 63.5055 102.336 64.6934 103.016C65.1801 103.295 65.7393 103.825 66.1073 104.036V104.039Z" fill="#454545"/>
<path d="M41.1133 105.947C41.1831 105.874 41.2529 105.804 41.3256 105.734L41.1133 105.947Z" fill="#454545"/>
<path d="M61.0215 114.632C61.2388 114.386 62.7135 115.982 62.9337 116.217C65.5588 119.027 67.7028 122.386 69.4615 125.796L67.9462 127.317L61.0215 123.214V114.632Z" fill="#E26B61"/>
<path d="M83.8968 139.422C83.3057 139.451 83.3637 139.112 83.2246 138.715C80.5127 130.849 78.4121 125.233 73.5648 118.294C67.9527 110.257 55.1435 98.9573 44.6029 103.825C43.6207 104.28 42.8094 105.12 41.7461 105.311C52.2954 95.9788 65.2813 103.894 72.6609 113.053C78.499 120.296 82.6393 130.188 83.8968 139.422Z" fill="#454545"/>
<path d="M77.9053 138.741C75.4484 126.494 63.9691 104.187 48.9028 106.004C38.7911 107.224 36.421 120.957 36.8672 129.154C37.6147 142.829 48.5783 168.057 64.5195 168.868C79.1657 169.612 79.9103 148.737 77.9053 138.744V138.741ZM50.9599 159.764C41.7753 149.852 35.2099 130.602 39.3097 117.385C40.8395 112.453 44.4438 107.934 49.969 107.702C65.6147 107.044 76.2596 133.062 77.1201 145.886C78.3892 164.803 65.5133 175.468 50.9599 159.764Z" fill="#838383"/>
<path d="M47.3037 150.811C47.5384 151.026 48.0077 150.95 48.254 151.133C48.6538 151.431 51.3426 155.722 52.1336 156.681C53.1447 157.907 54.2718 159.077 55.4047 160.187C56.1522 160.92 57.5864 161.488 57.4212 162.722C57.117 163.038 55.228 161.436 54.8774 161.138C44.6207 152.335 37.7685 133.607 40.3269 120.308C40.5181 119.32 40.8542 118.355 41.1149 117.387C41.5148 117.344 41.283 117.831 41.2627 118.065C41.1294 119.534 40.7702 121.105 40.6803 122.568C40.5876 124.083 40.9034 126.045 40.7006 127.462C40.6282 127.966 40.2168 128.322 40.2515 128.71C40.2805 129.049 40.7354 129.345 40.8976 129.782C41.367 131.057 41.4974 133.639 41.8538 135.183C42.6216 138.529 43.7515 141.919 45.1017 145.069C45.5827 146.193 46.927 148.181 47.1675 149.163C47.3037 149.719 46.9328 150.472 47.3037 150.808V150.811Z" fill="#838383"/>
<path d="M57.3634 136.702C59.2003 136.424 60.8142 140.932 58.9686 141.5C56.6014 142.227 55.2541 137.021 57.3634 136.702Z" fill="#454545"/>
<path d="M59.1172 122.896V112.938C59.2534 112.921 59.5402 113.219 59.5402 113.257V122.578C59.5402 122.615 59.2534 122.911 59.1172 122.896Z" fill="#454545"/>
<path d="M63.3523 165.061L63.2451 165.485C61.2893 164.98 59.2003 164.357 57.6387 163.042C59.2293 162.807 60.2028 163.706 61.582 164.392C62.1325 164.665 62.767 164.87 63.3523 165.061Z" fill="#838383"/>
<path d="M57.4224 111.666H57.2109V122.896H57.4224V111.666Z" fill="#838383"/>
<path d="M129.649 126.923C128.537 134.954 123.713 143.635 115.215 145.428C110.475 146.428 106.146 145.046 101.904 143.02C103.121 141.268 105.581 143.183 107.369 143.594C117.956 146.037 123.976 138.275 126.042 128.925L129.649 126.92V126.923Z" fill="#2E2E2E"/>
<path d="M123.719 130.313C121.94 139.145 114.216 145.096 105.292 141.115C105.008 140.819 106.39 140.124 106.506 140.101C106.935 140.005 108.717 140.628 109.427 140.692C115.042 141.202 118.545 138.339 120.938 133.567C121.726 131.994 121.558 130.774 123.719 130.313Z" fill="#838383"/>
<path d="M119.273 132.854C119.438 133.017 118.209 135.016 118.004 135.291C117.717 135.671 116.946 136.714 116.532 136.447L115.883 134.552L119.27 132.854H119.273Z" fill="#FDFDFD"/>
<path d="M115.248 137.513H111.435C111.322 137.003 111.525 137.171 111.71 137.041C112.504 136.493 113.457 136.114 114.28 135.609L115.245 137.516L115.248 137.513Z" fill="#FDFDFD"/>
<path d="M105.927 172.473L103.65 169.349C103.427 166.791 104.258 163.583 101.891 161.787C100.799 160.958 98.4057 160.544 98.5216 158.82C98.5622 158.215 99.1561 157.438 99.837 157.682C101.677 158.907 104.166 159.608 105.122 161.735C105.316 162.167 105.927 163.966 105.927 164.319V172.475V172.473Z" fill="#838383"/>
<path d="M122.662 170.142C122.995 169.907 123.267 169.997 123.601 170.209L133.675 176.212C134.043 176.45 133.985 176.846 133.712 177.171L120.341 184.788L119.909 184.548L109.027 178.205L108.896 177.771C113.639 175.589 117.899 172.266 122.665 170.139L122.662 170.142Z" fill="#454545"/>
<path d="M122.662 170.143C122.998 169.992 122.873 169.456 123.922 169.835L134.489 175.897C134.967 177.768 133.767 177.977 132.469 178.788C128.656 181.164 124.597 183.184 120.758 185.525C120.164 185.762 119.993 184.994 119.906 184.548L133.674 176.705L122.662 170.14V170.143Z" fill="#838383"/>
<path d="M116.094 184.128L114.509 186.878L107.729 182.853C107.349 182.23 108.097 180.524 107.836 179.678L116.096 184.128H116.094Z" fill="#454545"/>
<path d="M117.936 185.429C119.391 185.295 118.916 188.807 116.867 188.126C115.928 187.28 116.766 185.536 117.936 185.429Z" fill="#838383"/>
<path d="M101.054 52.9795V97.1525L93.5153 101.687L92.3129 101.884L65.1995 86.1947C63.7914 85.7167 62.3919 86.2063 61.0215 86.4526V75.6484L101.054 52.9795Z" fill="#E26B61"/>
<path d="M100.422 117.704C100.222 115.439 99.0835 112.086 97.6638 110.293C97.122 109.609 96.3079 109.061 95.7777 108.352C97.5885 106.237 96.5455 104.33 94.4941 102.98L102.276 98.5788L105.377 98.3789L139.69 118.046L140.043 118.753L100.425 141.535V117.701L100.422 117.704Z" fill="#E26B61"/>
<path d="M140.239 116.328L106.561 96.9414V74.8027L139.802 93.989C139.924 94.1223 140.239 94.7075 140.239 94.8234V116.328Z" fill="#E26B61"/>
<path d="M66.1069 104.04C74.77 109.05 84.5369 113.909 92.861 119.335C93.4231 119.703 94.7009 120.376 94.7009 121.097V142.601L85.3685 137.212C82.8855 124.829 76.5113 111.562 65.8954 104.255C65.6143 103.956 65.7331 103.849 66.1069 104.043V104.04Z" fill="#E26B61"/>
<path d="M144.214 135.232C144.631 135.948 144.457 150.313 144.245 151.805C144.037 153.277 142.087 152.831 141.933 152.031C141.759 132.045 141.664 112.068 141.733 92.0616C141.536 89.5438 140.041 86.6812 137.897 85.305L105.543 66.7156L105.508 65.9043L135.643 83.1117C137.408 83.6738 137.292 82.7176 138.025 82.6365C138.94 82.538 140.786 83.8795 141.418 84.5401C143.136 86.348 144.112 89.8191 144.28 92.2702C145.1 104.225 143.64 117.103 144.28 129.154C144.361 129.747 143.753 129.942 143.538 130.321C142.513 132.144 142.455 133.059 143.666 134.838C143.814 135.055 144.164 135.139 144.216 135.229L144.214 135.232Z" fill="#838383"/>
<path d="M140.239 79.462C140.335 79.7112 140.59 79.8995 140.451 80.308C138.903 79.8126 137.023 81.6929 135.803 81.2554L105.729 63.9785C105.619 63.0456 106.667 62.214 107.409 61.8779C108.971 61.904 110.492 62.4487 111.967 63.5149C119.129 67.6871 126.248 71.9289 133.326 76.2459C135.679 77.909 137.985 78.981 140.239 79.4649V79.462Z" fill="#454545"/>
<path d="M107.41 61.8775C107.952 61.6312 108.812 61.3878 109.404 61.4574L139.765 78.7546C140.069 78.8965 140.136 79.1863 140.243 79.4644C139.8 80.3829 138.78 79.5716 138.195 79.2877C128.439 74.5302 119.281 67.62 109.598 62.7641C108.873 62.4019 108.062 62.3382 107.41 61.8804V61.8775Z" fill="#838383"/>
<path d="M104.87 96.6218C104.189 96.7724 103.299 97.1404 102.752 96.5146V48.4214C102.752 48.0042 102.213 46.6627 101.906 46.3006C101.184 45.4458 98.9531 44.9417 98.9531 43.7596C98.9531 42.8208 99.7006 42.4818 100.535 42.7976C101.714 43.2409 104.565 45.0865 104.82 46.3527L104.881 61.3581C104.012 62.4968 103.398 66.5154 104.064 67.6627C104.235 67.9583 104.87 68.2625 104.87 68.3378V96.6218Z" fill="#838383"/>
<path d="M86.2305 36.8757C86.7201 35.4676 87.43 33.8885 89.1829 34.1986C92.6191 36.3049 96.1047 38.2722 99.6423 40.1063C100.08 40.4192 100.094 40.7379 99.5757 40.903C97.0202 41.7172 96.5103 43.8583 98.0922 45.985C95.8062 46.9498 95.9047 44.1046 94.7864 43.4701C93.9867 43.0152 93.1378 43.4701 92.4656 43.0355C91.7876 42.598 91.4283 40.9436 90.449 40.3902C88.7888 39.4515 87.6212 41.1551 86.6448 39.1125C86.3087 38.4113 86.2131 37.6464 86.2305 36.8786V36.8757Z" fill="#2E2E2E"/>
<path d="M86.2305 36.8758C86.2652 35.346 87.2764 33.3845 88.9946 33.3643L100.32 39.8369C101.195 40.9061 100.268 40.6801 99.5757 40.9003C99.6887 40.3874 99.3149 40.4628 99.0194 40.3034C95.6382 38.4839 92.3091 36.5861 89.0351 34.5811C87.4792 34.4247 87.0794 35.9168 86.2305 36.8729V36.8758Z" fill="#454545"/>
<path d="M159.727 162.091L159.771 162.555L146.428 170.352C146.196 170.801 145.898 170.943 145.533 170.775C145.489 170.74 144.814 170.656 144.464 170.468C141.624 168.932 138.947 167.066 136.035 165.655C136.027 164.876 135.717 163.769 136.429 163.259L149.253 155.935L149.76 156.05C153.04 158.137 156.465 160.046 159.724 162.089L159.727 162.091Z" fill="#454545"/>
<path d="M149.559 138.044C149.49 137.627 148.713 136.169 148.4 135.813C147.328 134.587 144.356 134.193 144.48 132.336C144.518 131.765 145.011 131.116 145.622 131.154C146.091 131.183 149.951 133.591 150.376 134.048C153.112 136.995 151.393 146.4 151.889 150.334L150.313 151.937L149.557 153.406V138.044H149.559Z" fill="#838383"/>
<path d="M140.241 141.114V143.444C132.818 143.693 132.624 152.463 135.289 157.615C135.608 158.232 137.285 160.329 137.285 160.503C137.285 160.926 136.718 161.19 136.352 161.207C130.992 155.618 131.398 142.835 140.241 141.114Z" fill="#2E2E2E"/>
<path d="M161.21 158.701C161.028 158.976 160.9 159.738 160.787 160.085C160.715 160.306 160.946 160.468 160.474 160.393C159.222 159.254 151.817 155.873 151.362 154.885C150.982 154.059 151.44 153.914 151.678 153.404L152.054 153.129C155.1 154.821 158.145 156.513 161.193 158.208L161.21 158.701Z" fill="#454545"/>
<path d="M159.727 162.092C159.95 162.231 160.898 162.103 160.785 162.935L146.675 170.961C145.243 171.514 145.751 170.946 145.533 170.775L146.162 170.028L159.724 162.089L159.727 162.092Z" fill="#838383"/>
<path d="M151.68 153.405C151.935 152.863 151.787 152.136 152.934 152.452L162.058 157.647C162.336 158.026 161.319 158.539 161.212 158.704L151.68 153.408V153.405Z" fill="#838383"/>
<path d="M136.43 152.241C136.694 154.451 138.273 157.433 139.817 159.023L139.484 159.539C138.528 159.832 137.352 157.743 136.958 157.013C135.364 154.072 134.947 150.102 136.433 147.051C136.917 147.02 136.433 147.463 136.433 147.579C136.433 149.004 136.274 150.89 136.433 152.241H136.43Z" fill="#838383"/>
<path d="M147.865 150.861L145.959 147.367V142.812H146.275L147.865 144.4V150.861Z" fill="#2E2E2E"/>
<path d="M163.899 158.948C165.354 158.815 164.878 162.326 162.83 161.645C161.891 160.799 162.729 159.055 163.899 158.948Z" fill="#838383"/>
<path d="M156.133 73.1602C158.353 73.9482 158.353 75.4722 158.283 77.5757C160.737 78.3001 160.949 79.7082 161.189 81.971C161.221 82.2694 161.033 82.5766 161.094 82.9156C161.155 83.2545 162.134 83.7935 162.432 84.541C162.673 85.1494 162.719 85.613 162.728 86.2562L168.436 87.9048C168.861 90.6109 169.015 93.0215 166.622 94.7541C164.985 95.9392 158.437 99.8535 156.71 100.511C155.8 100.856 154.934 100.494 154.166 100.72C153.697 100.856 153.436 101.577 153.027 101.911C151.182 103.423 145.865 105.648 143.53 105.564C142.823 105.538 142.388 105.39 142.359 104.602L142.403 89.8112C142.669 89.0318 148.667 86.5227 149.238 85.6361C149.461 85.2885 149.484 84.6337 149.814 84.0977C150.11 83.6196 151.008 83.0778 151.046 82.9532C151.506 81.4756 150.472 80.2268 152.097 78.7607C152.448 78.4449 153.233 78.2363 153.346 77.8915C153.491 77.4482 153.314 76.7818 153.404 76.2574C153.671 74.7015 153.862 73.9975 155.284 73.1631H156.131L156.133 73.1602Z" fill="black"/>
<path d="M57.2383 114.218V122.789C58.3567 124.037 59.4838 122.218 60.889 123.162L73.4896 130.359C74.6746 133.248 75.6278 136.29 76.2334 139.364C77.1518 144.02 77.5488 148.96 76.9114 153.666C76.8766 153.932 76.8187 154.781 76.4188 154.631L52.9358 141.062L52.0579 140.245L51.9941 117.544C52.0782 117.168 52.2288 117.023 52.5099 116.791C53.0806 116.322 55.7752 114.74 56.4908 114.421C56.7429 114.308 56.908 114.14 57.2412 114.218H57.2383Z" fill="black"/>
<path d="M83.5007 136.867C83.8049 136.847 84.1004 136.852 84.4017 136.916C85.9315 137.244 93.54 141.789 95.345 142.911C95.7912 143.186 96.2635 143.441 96.3736 144C96.4374 148.703 96.5359 153.417 96.1737 158.102L89.9096 161.793L88.6435 161.671C87.951 160.976 82.8343 158.559 82.6807 158.096C82.446 157.386 83.1066 156.482 83.2776 155.792C84.8161 149.566 84.6104 143.143 83.5036 136.864L83.5007 136.867Z" fill="black"/>
<path d="M98.7461 142.685L105.52 138.771L105.746 152.22L105.523 152.846L98.7461 156.549V142.685Z" fill="black"/>
<path d="M144.062 91.7871L156.782 95.4841C156.935 97.3326 156.747 98.7408 154.707 99.1435L144.062 98.3496V91.79V91.7871Z" fill="#565656"/>
<path d="M148.934 87.9768C148.984 87.9565 148.969 87.6494 149.357 87.7653C149.253 90.0079 150.102 90.9901 152.159 91.6333C155.141 92.5633 158.238 92.2765 161.109 91.1465L161.216 91.5695L157.311 93.4876C153.651 92.5691 150.012 91.5753 146.393 90.5149C146.205 90.399 146.124 90.2396 146.165 90.0281C147.016 89.4776 147.799 88.8663 148.511 88.1883C148.581 88.1101 148.645 88.0463 148.723 87.9768C148.894 88.1072 149.047 88.197 148.934 87.9768Z" fill="#565656"/>
<path d="M144.062 100.038L149.359 100.568C148.577 102.596 146.067 103.492 144.062 103.634V100.035V100.038Z" fill="#565656"/>
<path d="M158.887 94.7484C161.149 93.8937 163.377 92.7435 165.574 91.2977C165.971 91.2339 166.541 92.897 165.875 93.0564C163.714 94.6557 161.005 95.7538 158.776 97.2865C158.275 97.4401 158.411 95.806 158.452 95.4786C158.527 94.873 158.597 95.0353 158.887 94.7513V94.7484Z" fill="#565656"/>
<path d="M160.791 88.6111L160.765 89.4311C158.61 90.5437 153.278 91.1318 151.465 89.3615C149.677 87.6173 152.818 89.0805 153.328 89.1906C155.982 89.7642 158.242 89.2978 160.791 88.6111Z" fill="#343434"/>
<path d="M157.766 80.7185C158.03 80.4027 158.134 79.7103 158.256 79.2988C160.194 79.9739 159.282 81.6109 157.63 81.9557C156.118 82.2715 150.934 82.0484 153.49 79.7248C153.959 81.2633 156.868 81.7964 157.766 80.7185Z" fill="#B63829"/>
<path d="M165.875 93.0558L165.562 91.5782C163.931 92.6618 162.248 93.7222 160.445 94.5074C160.06 94.6755 159.237 95.1941 158.887 94.7508L166.828 90.0947C167.086 90.8857 166.973 92.2272 166.394 92.8443C166.194 93.0558 165.945 93.0037 165.872 93.0558H165.875Z" fill="#787878"/>
<path d="M156.557 79.4035C154.497 81.0116 154.842 75.5558 155.496 75.1676C155.931 74.9097 156.557 75.043 156.557 75.5935V79.4035Z" fill="#B63829"/>
<path d="M160.156 86.2851C160.889 86.937 157.366 87.7366 157.085 87.7627C155.239 87.9452 151.14 87.6526 151.053 85.2246C152.328 86.8442 154.871 87.2788 156.847 87.1021C158.032 86.9949 159 86.3691 160.153 86.2822L160.156 86.2851Z" fill="#B63829"/>
<path d="M158.673 85.0094C156.949 85.5685 155.028 85.6728 153.33 84.9514C152.403 84.5574 152.076 83.8707 153.307 84.1257C154.005 84.2705 154.593 84.54 155.382 84.595C156.062 84.6414 158.111 84.343 158.322 84.398C158.592 84.4676 158.725 84.7399 158.673 85.0065V85.0094Z" fill="#B63829"/>
<path d="M158.883 82.8976L158.782 83.3148C158.182 82.7991 158.295 83.451 158.089 83.5176C157.02 83.8566 154.007 83.932 153.082 83.2974C152.714 83.0454 152.691 82.9121 152.743 82.4746C154.928 83.422 156.606 83.2772 158.883 82.8976Z" fill="#B63829"/>
<path d="M148.51 88.1885C148.452 88.2551 148.452 88.5999 148.209 88.8317C147.621 89.3938 146.644 89.7762 146.392 90.518C146.021 90.4079 145.442 90.46 145.123 90.2021L148.51 88.1914V88.1885Z" fill="#787878"/>
<path d="M162.697 89.2462C162.741 89.0753 162.639 88.7942 162.79 88.6059C163.245 88.0264 164.809 88.7276 165.45 88.8261C165.253 89.3447 164.323 89.4606 163.969 89.6692C163.416 89.8547 162.697 90.0604 162.697 89.2462Z" fill="#787878"/>
<path d="M163.969 89.6691C163.251 90.095 162.373 90.9903 161.428 91.1496C161.408 90.4919 162.297 90.4746 162.587 89.869C162.712 89.6083 162.651 89.4286 162.697 89.2461L163.969 89.6691Z" fill="#565656"/>
<path d="M148.935 87.9766L149.146 88.0839C149.123 88.304 148.709 88.2519 148.723 87.9766C148.761 87.9448 148.868 88.0027 148.935 87.9766Z" fill="#787878"/>
<path d="M75.4511 147.234C75.257 147.434 72.5741 145.829 72.1337 145.58C70.8038 144.823 61.7785 139.817 61.5236 139.252C61.2976 138.753 61.1469 137.481 61.5062 136.998L68.399 129.688C68.6858 129.615 71.9917 131.533 72.2351 131.933C72.577 132.501 73.2086 134.798 73.4404 135.595C74.5443 139.385 75.1556 143.302 75.4511 147.234Z" fill="#6F2C35"/>
<path d="M59.1465 124.802L60.1374 124.747L66.7723 128.725L60.2069 135.925C59.949 136.238 59.1494 135.343 59.1494 135.279V124.802H59.1465Z" fill="#6F2C35"/>
<path d="M55.3355 121.203C55.3471 121.273 55.521 121.438 55.5557 121.716C55.7557 123.339 55.1646 124.396 57.4535 124.802V134.96C56.9552 135.061 57.1145 134.896 56.9783 134.688C56.1816 133.45 54.6373 130.058 54.0665 128.612C54.0172 128.296 53.9709 127.986 53.9796 127.664C53.9999 126.685 54.1476 121.557 54.4663 121.189C54.7734 120.835 55.0487 120.818 55.3384 121.203H55.3355Z" fill="#6F2C35"/>
<path d="M75.2368 151.681C75.1035 151.805 74.0721 151.211 73.8258 151.081C70.4417 149.305 65.4959 146.625 62.4218 144.49C61.57 143.899 60.8717 143.31 60.8398 142.157L75.0137 150.319C75.6627 150.658 75.2716 151.107 75.2368 151.681Z" fill="#565656"/>
<path d="M55.3351 121.204C55.0193 121.369 54.7354 121.265 54.6832 121.726C54.4369 123.908 54.831 126.489 54.0632 128.613C53.9154 128.239 53.6083 127.915 53.6344 127.454L53.6402 119.301C55.1961 119.672 55.1062 119.915 55.3322 121.204H55.3351Z" fill="#89424B"/>
<path d="M59.7796 139.405L56.8156 137.82C56.2651 137.264 56.9112 136.618 57.5371 136.653C58.667 136.719 59.7332 138.336 59.7796 139.405Z" fill="#6F2C35"/>
<path d="M53.6406 131.785L55.5471 135.699C54.9502 135.844 54.1216 135.19 53.6406 134.853V131.785Z" fill="#6F2C35"/>
<path d="M59.3572 141.099L59.2355 141.528C58.0824 142.333 56.3295 140.091 56.6076 139.827L59.3601 141.099H59.3572Z" fill="#565656"/>
<path d="M54.6986 139.827C53.6005 139.917 53.557 138.978 53.641 138.135C54.6464 137.99 54.7536 139.08 54.6986 139.827Z" fill="#565656"/>
<path d="M90.2744 156.125V142.368C90.5236 142.319 90.68 142.4 90.8973 142.484C91.2102 142.609 94.2206 144.347 94.3799 144.507C94.6726 144.799 94.6812 144.768 94.7334 145.211C95.0289 147.717 94.5219 150.861 94.6784 153.436L90.2715 156.122L90.2744 156.125Z" fill="#6F2C35"/>
<path d="M88.5795 141.096V155.91C87.9972 155.722 86.1516 154.902 85.8242 154.537C85.2331 153.879 86.0009 151.086 86.0472 150.098C86.2066 146.685 85.9893 143.226 85.8271 139.827L88.5795 141.096Z" fill="#6F2C35"/>
<path d="M94.7219 155.702L94.4119 157.188L90.2773 159.509L90.5845 158.023L94.7219 155.702Z" fill="#565656"/>
<path d="M88.5786 159.509L84.8613 157.394L84.983 156.125L88.3729 157.921C88.7525 158.347 88.5439 158.993 88.5786 159.512V159.509Z" fill="#565656"/>
<path d="M102.979 142.368L103.402 143.046L103.345 148.03L102.982 148.719C102.197 149.203 101.4 150.006 100.441 150.2V143.956C101.189 143.258 102.142 142.852 102.982 142.368H102.979Z" fill="#6F2C35"/>
<path d="M102.98 142.369C103.208 142.238 103.51 141.584 104.037 141.734C103.86 142.835 104.362 147.874 103.831 148.407C103.594 148.644 103.159 148.607 102.98 148.717C102.742 146.628 103.003 144.495 102.98 142.369Z" fill="#89424B"/>
<path d="M104.037 150.411C104.472 152.231 101.754 152.888 100.438 153.584C99.9893 151.724 102.693 151.083 104.037 150.411Z" fill="#565656"/>
<path d="M93.2615 4.00286C96.4428 4.13325 99.4705 5.0923 102.388 6.28022C106.737 8.5952 111.251 10.0612 115.93 10.6755C118.523 10.3423 118.593 11.1825 117.431 13.0832C116.782 14.1494 115.806 14.9867 114.873 15.7835C117.417 17.7305 119.028 20.4164 114.464 20.6018C114.45 23.8092 114.064 27.06 113.311 30.3514C113.024 34.2049 112.795 38.0613 112.624 41.9177C112.471 43.2099 112.152 45.209 111.179 45.9537C115.09 48.6801 119.08 52.4495 122.258 56.0828C123.064 57.0012 122.606 58.1312 122.131 59.0642C121.925 59.7566 124.715 63.3552 124.979 63.3725C125.19 63.3841 127.731 62.4309 127.838 62.315C128.586 58.5716 132.054 56.6883 135.386 55.4686C138.776 54.2285 140.813 54.2922 143.82 56.3725C143.704 54.3299 144.762 53.3854 146.581 52.7016C147.152 48.3932 150.478 46.5853 154.216 45.0352C161.497 42.0162 167.237 48.9785 167.958 55.7554C168.558 61.3937 167.544 63.1842 162.798 65.815C159.237 67.791 156.415 68.8746 152.585 66.3336L149.49 67.3506C149.447 71.4504 148.462 73.2323 145.092 75.5299C140.613 78.5808 136.658 79.4587 132.295 75.5878C125.338 80.5452 118.486 78.7227 112.709 73.3018L112.532 81.6491C123.211 78.546 127.198 89.8804 124.13 98.2335C129.751 101.551 135.096 105.465 139.857 109.89C144.747 114.433 145.217 119.697 145.405 126.103C145.394 131.982 145.657 137.835 146.193 143.658C146.202 146.871 145.599 148.421 144.235 151.078L144.24 151.597C147.257 154.883 150.38 158.078 153.613 161.181C155.497 167.926 150.449 169.262 144.753 168.077C142.189 167.544 133.251 164.603 131.733 162.558C130.417 160.782 131.26 155.135 131.764 152.97C131.107 152 130.82 150.803 130.904 149.372C128.45 147.483 128.357 145.478 128.259 142.496C128.351 138.698 128.256 134.908 127.966 131.127C127.418 126.712 125.984 125.764 122.221 123.881C125.28 128.172 126.483 133.477 126.955 138.686C127.242 143.722 127.653 148.72 128.186 153.68C128.432 156.682 128.511 159.457 126.312 161.715L126.094 164.719C128.824 167.301 131.591 169.873 134.389 172.438C137.174 174.64 136.362 179.183 133.445 180.765C131.706 181.706 127.204 181.44 125.19 181.127C122.389 180.692 114.583 178.189 112.804 176.207C111.205 174.425 111.706 168.089 112.297 165.724C111.347 164.725 110.909 163.438 110.99 161.859C108.542 160.057 107.27 157.38 107.175 153.828L105.952 144.849C105.572 139.805 103.692 136.705 99.5401 133.877C98.1957 132.469 98.1783 131.872 98.2449 129.904L98.4188 122.38C98.5028 117.208 97.8335 111.167 92.3952 109.032C92.1228 108.571 92.0417 108.047 92.1576 107.462C86.7685 107.812 83.3902 102.672 83.1005 97.7844L76.3235 96.5241C73.3016 95.9243 69.6364 94.5828 68.8252 91.2335C67.7126 86.6354 68.211 81.6346 68.8774 77.0017C68.1356 76.4541 67.6518 75.7819 67.4258 74.9852V73.5017C70.2333 61.9268 75.2052 50.7111 85.1952 43.8357C85.1894 43.5981 83.3786 40.1097 82.8947 39.707C81.194 38.577 79.5657 37.2413 79.3774 35.0625C79.473 33.4603 79.2528 31.9044 78.711 30.3862C75.7615 23.1718 72.0036 11.791 82.5616 9.10804C84.6505 5.73552 88.3476 4.15935 92.1924 4H93.2499L93.2615 4.00286Z" fill="black"/>
<path d="M113.795 168.22L114.716 167.991C116.715 171.222 118.703 167.623 120.56 167.047C121.05 166.893 121.577 166.994 122.064 166.858C122.861 166.632 124.753 165.52 124.802 166.737C123.939 166.85 120.441 169.648 121.615 170.46C122.591 171.135 123.762 169.188 124.521 168.681C125.283 168.174 126.613 167.487 127.131 168.643C126.155 168.727 123.449 170.865 123.524 171.706C123.565 172.157 123.976 172.502 124.44 172.43C125.355 172.291 126.827 169.738 128.505 169.912C128.823 169.944 132.59 173.302 132.425 173.513C130.988 173.751 130.046 174.588 129.032 175.524C128.418 176.092 128.374 176.892 127.244 176.912C126.114 176.932 121.618 175.429 120.305 174.948C118.665 174.345 116.072 173.264 114.589 172.407C114.264 172.218 114.035 171.995 113.795 171.717V168.22Z" fill="#3F3F3F"/>
<path d="M145.55 156.352C144.617 156.471 141.363 157.862 142.256 159.122C142.786 159.872 144.435 158.438 145.13 158.157C145.472 158.018 146.634 157.621 146.9 157.673C147.167 157.725 150.296 160.727 150.209 161.118C149.783 161.541 149.157 161.564 148.653 161.898C147.981 162.341 147.065 163.387 146.237 163.523C145.431 163.656 141.024 162.219 139.935 161.869C139.08 161.593 133.138 159.539 133.051 159.18L133.262 155.439C134.297 154.422 134.676 155.906 135.325 156.103C137.049 156.624 137.463 154.973 138.732 154.515C139.923 154.086 141.815 154.115 143.113 153.591C144.698 153.756 141.679 154.851 141.381 155.045C140.795 155.428 139.802 156.23 140.349 157.007C140.946 157.85 141.975 156.569 142.438 156.317C143.31 155.839 145.338 154.816 145.55 156.358V156.352Z" fill="#3F3F3F"/>
<path d="M114.007 173.941C116.119 174.779 118.109 175.917 120.248 176.7C121.937 177.317 127.054 179.058 128.56 178.444C129.29 178.145 130.391 176.514 131.168 175.97C132.156 175.274 134.036 174.217 133.912 176.164C133.587 181.301 125.811 179.194 122.687 178.287C121.053 177.812 115.719 176.062 114.638 175.115C114.276 174.799 113.914 174.503 114.01 173.947L114.007 173.941Z" fill="#9397A8"/>
<path d="M151.902 162.497C152.4 169.239 143.662 165.617 140.15 164.406C137.919 163.639 135.367 162.871 133.486 161.439C136.369 162.12 139.133 163.421 142.005 164.247C143.042 164.545 144.896 165.212 145.881 165.258C148.202 165.368 149.561 162.653 151.905 162.497H151.902Z" fill="#9397A8"/>
<path d="M88.1819 17.7745L89.5581 15.871C89.9956 15.7811 89.9174 16.0767 89.8623 16.3867C89.6711 17.4703 88.4832 18.9798 88.4919 20.3155L87.756 20.5299L87.5416 17.9889C87.0171 18.5829 86.9737 18.7712 86.061 18.6263C86.0407 18.1859 86.2175 17.14 85.7423 16.9314C84.5602 19.0175 83.239 17.8469 85.0035 16.1897C86.3768 14.9003 86.3276 16.2331 86.9186 16.6011C87.4372 16.9227 88.1471 16.6387 88.179 17.7774L88.1819 17.7745Z" fill="#FDFDFD"/>
<path d="M105.357 17.3863C105.238 17.5718 105.357 17.96 105.325 18.2005C104.786 18.6785 101.895 17.1198 102.361 16.717C102.906 16.4389 103.653 17.1372 103.906 17.0995C104.056 17.0763 106.936 15.7087 106.493 16.717C106.305 17.1429 105.43 17.2762 105.357 17.3892V17.3863Z" fill="#FDFDFD"/>
<path d="M108.078 15.2333C108.055 16.2531 106.664 15.7751 105.963 15.8678C105.986 14.8479 107.377 15.326 108.078 15.2333Z" fill="#FDFDFD"/>
<path d="M90.7189 17.9883C90.6755 18.3968 90.7334 19.7789 89.9801 19.4689C89.2702 19.1762 89.9106 17.7044 90.7189 17.9883Z" fill="#F3E9E9"/>
<path d="M120.784 69.0522C121.245 69.4984 122.604 67.5079 123.001 67.1399C124.276 65.9636 126.278 64.851 127.982 64.6018C128.08 66.4185 128.39 68.099 129.036 69.7997C129.595 71.2716 130.543 72.4739 131.145 73.9081C130.856 74.3167 125.275 76.3883 124.487 76.4665C121.208 76.7881 117.383 74.4905 114.949 72.4421C115.818 68.183 118.652 64.9293 120.677 61.2148L123.111 64.7148C122.059 66.0882 120.834 67.1515 120.787 69.0522H120.784Z" fill="#E5D0C7"/>
<path d="M85.1081 38.3287C84.6387 38.2504 83.1698 37.4073 82.7815 37.0567C80.678 35.1532 80.6548 31.3315 84.2707 31.5372C88.4111 31.7719 85.9773 35.9818 88.3821 36.7496C89.176 37.0045 89.8568 36.822 90.4131 36.2194C91.4765 35.0691 92.1805 30.0509 92.2037 28.3705C93.3018 28.779 94.0551 29.6627 95.2894 29.8336C95.779 29.9002 98.5547 29.9147 98.5489 29.3237C97.1002 28.1328 96.2542 26.7074 96.4367 24.769C99.9077 25.2558 103.474 25.0095 106.856 24.0737C107.505 23.894 108.895 23.1378 109.284 23.1002C109.73 23.0567 110.031 23.9578 110.135 24.2997C111.077 27.3969 111.057 39.305 110.356 42.6196C109.373 47.2554 105.088 49.5298 100.568 49.1329C97.671 48.8779 95.3357 47.2438 92.6267 46.5948L93.0497 47.3365L98.4533 52.7459L98.3432 54.6465C99.6296 54.6552 100.029 52.8821 100.476 51.9056L101.524 52.2446C101.742 57.4367 97.558 58.2219 93.4206 56.7094C89.6627 55.3361 85.8034 51.9897 86.0642 47.6523C86.7132 47.4814 86.3163 48.4607 87.1275 47.9768C88.2807 47.2901 88.695 41.0898 87.7881 39.7252L88.8109 38.856C88.9789 38.5691 88.3473 38.3287 88.2836 38.3287C87.3651 38.3287 85.9338 38.4648 85.1081 38.3287Z" fill="#E5D0C7"/>
<path d="M107.866 35.7865C107.79 35.8386 108.9 37.1395 107.764 37.267C107.281 36.8179 104.235 33.4657 104.693 33.0311C105.867 32.7964 106.055 34.3146 107.02 34.726C106.608 33.767 106.904 31.5041 108.019 31.1681C111.041 30.2612 111.282 36.6064 107.869 35.7865H107.866Z" fill="black"/>
<path d="M99.3383 32.8641C102.977 31.7776 102.676 39.0499 99.1934 37.581C97.6607 36.9348 97.7389 33.3421 99.3383 32.8641Z" fill="black"/>
<path d="M102.362 38.9656L101.939 40.0202C103.793 40.6113 105.703 41.1357 107.441 39.9101C107.887 39.5943 107.748 38.9395 108.58 39.1655C108.887 39.2495 109.119 40.4751 108.716 40.7677C108.574 40.8691 106.534 41.692 106.285 41.7239C104.64 41.9238 103.058 41.6775 101.626 40.8605C101.412 41.6514 100.766 41.2893 100.491 40.7185C100.375 39.6436 101.279 38.7396 102.365 38.9656H102.362Z" fill="black"/>
<path d="M102.523 30.1136C102.682 30.273 102.876 31.0205 102.786 31.1219C101.633 31.3768 100.524 30.9538 99.3414 31.1711C98.7736 31.2754 96.8237 32.8458 96.644 31.8578C96.3977 30.496 101.138 28.7432 102.523 30.1136Z" fill="black"/>
<path d="M86.2726 35.996C85.2817 36.2104 85.4788 35.0572 84.795 34.7269C84.7428 35.0862 84.3082 36.3118 83.8417 36.2075C82.903 36.0018 84.2619 33.9737 84.1547 33.878H82.7813C82.5206 33.8462 82.5611 33.1508 83.2043 33.0291C85.0007 32.6901 86.6319 34.1707 86.2726 35.996Z" fill="black"/>
<path d="M110.386 28.9868C109.801 29.236 109.152 29.1665 108.555 29.378C108.193 29.5083 106.171 31.2815 105.959 30.166C105.765 29.1375 109.135 26.9645 110.198 28.0481L110.386 28.9868Z" fill="black"/>
<path d="M107.232 42.7783C107.458 44.4211 103.454 44.6558 103.956 42.9869C105.19 43.5142 106.033 42.845 107.232 42.7783Z" fill="black"/>
<path d="M151.925 54.8314C151.577 53.2987 150.609 52.2383 148.938 52.5251C149.361 49.1265 152.18 48.127 155.147 49.5959C159.432 51.7168 162.665 59.5831 160.165 63.8683C159.214 65.4966 157.056 66.1977 155.381 65.2474C155.196 64.9779 156.001 60.5682 156.158 59.8583C156.274 59.3368 156.682 58.9514 156.757 58.3314C156.946 56.7582 155.63 54.4519 153.912 54.4606C153.336 54.4635 152.62 55.0864 151.928 54.8314H151.925Z" fill="#3F3F3F"/>
<path d="M163.757 50.6197C164.812 51.4078 165.962 55.1106 166.084 56.4492C166.368 59.6276 165.525 62.4873 162.277 63.5419C163.934 57.9819 161.098 50.9993 156.137 48.0758C156.045 47.1922 157.418 47.2182 158.107 47.2848C160.17 47.4877 162.306 49.2406 163.757 50.6197Z" fill="#3F3F3F"/>
<path d="M145.763 62.4831C147.728 66.5394 148.582 72.0154 143.437 73.9247C144.798 69.1644 143.086 63.7173 139.635 60.2492C139.099 59.7103 138.123 59.4003 137.932 58.6702C138.76 57.7401 140.956 58.7281 142.02 59.2323C143.634 59.9972 144.68 61.1184 145.763 62.486V62.4831Z" fill="#3F3F3F"/>
<path d="M148.729 65.4507C148.049 63.7818 148.926 62.0695 148.196 60.3658L146.186 57.8219C147.828 57.2367 148.868 58.6651 149.303 60.105C149.515 60.812 149.405 62.7677 150.314 62.4809C151.102 61.461 150.329 59.5893 149.793 58.5579C149.575 58.1406 148.263 56.9875 149.46 57.1961C150.271 57.3381 150.83 57.9958 151.07 58.7636C151.311 59.5285 151.044 62.2346 151.798 62.0608C152.728 61.0959 152.386 58.92 151.812 57.8104C151.473 57.1527 150.213 56.4312 151.372 56.1299C154.944 59.1113 153.478 64.9407 148.732 65.4536L148.729 65.4507Z" fill="#E5D0C7"/>
<path d="M145.762 62.4834C144.637 61.9445 143.945 60.8753 142.867 60.1916C141.471 59.305 139.599 58.5806 137.93 58.6705L135.604 57.6129C138.507 56.312 140.439 56.425 142.899 58.4648C144.397 59.7048 144.95 60.8029 145.765 62.4834H145.762Z" fill="#565656"/>
<path d="M163.759 50.6193C163.675 50.5585 163.296 50.5556 163.055 50.3789C161.262 49.0693 158.388 46.7456 156.139 48.0755C155.734 47.835 154.711 47.7394 154.447 47.2295C155.308 47.1136 156.041 46.5167 156.898 46.3979C159.72 46.0068 162.58 48.2058 163.762 50.6164L163.759 50.6193Z" fill="#565656"/>
<path d="M145.977 56.3389C145.982 55.997 145.896 55.5827 146.078 55.2785C146.333 54.8554 149.859 53.1866 150.186 54.5802C150.496 55.826 146.808 56.1303 145.977 56.3389Z" fill="#E5D0C7"/>
<path d="M155.077 58.4558C154.515 58.5717 154.712 58.3139 154.552 58.0386C154.416 57.8039 153.689 56.4538 153.811 56.3379C154.856 56.2104 155.14 57.6794 155.08 58.4558H155.077Z" fill="#E5D0C7"/>
<path d="M133.005 59.357C139.657 58.2357 145.246 71.7258 140.46 75.2924C135.882 78.7026 130.768 70.8885 129.983 66.9452C129.476 64.3984 129.78 59.9017 133.008 59.357H133.005Z" fill="#3F3F3F"/>
<path d="M134.268 65.0704C138.36 63.8593 139.153 71.404 135.549 70.7058C133.101 70.2306 132.148 65.6991 134.268 65.0704Z" fill="black"/>
<path d="M136.236 68.8397C135.031 69.0715 134.701 67.6692 134.756 66.7217C135.961 66.49 136.291 67.8923 136.236 68.8397Z" fill="#9397A8"/>
<path d="M123.956 100.624L124.223 101.036C123.797 101.844 123.837 102.539 124.48 103.197C127.137 105.671 129.994 107.917 133.045 109.933C139.75 115.276 140.656 118.97 141.462 127.309C141.81 134.013 142.111 140.703 142.372 147.379C142.685 147.955 142.685 148.405 142.372 148.723C141.589 149.1 140.662 149.311 139.834 149.575L139.926 150.221L142.372 150.633C142.215 151.296 142.302 151.818 141.653 152.136C140.132 152.884 136.484 152.788 134.87 152.313C133.642 151.951 132.877 151.699 133.06 150.207C134.3 150.557 135.253 150.682 136.554 150.63C136.809 150.618 137.342 150.789 137.29 150.421C134.659 148.914 130.872 148.095 130.519 144.589C129.985 139.266 130.797 133.599 129.565 128.166C128.841 124.977 125.497 122.948 122.991 120.972C119.906 118.542 116.168 116.299 113.268 113.752C111.243 111.973 109.86 109.397 107.331 108.25C107.088 108.32 107.256 108.717 107.325 108.89C107.919 110.38 109.171 111.715 110.191 112.909C112.37 116.777 114.827 120.529 117.567 124.162C121.743 129.473 122.942 135.833 123.023 142.43C123.017 146.808 123.209 151.169 123.6 155.515C123.765 157.053 123.947 158.623 125.222 159.525C125.121 159.643 125.069 159.846 124.909 159.945L120.986 162.068H124.162C124.666 166.235 117.86 165.722 115.27 164.928C113.986 164.534 112.964 164.059 113.152 162.491L114.705 162.454L115.058 161.86L111.355 159.525C110.359 158.626 110.084 157.447 109.823 156.184C108.788 151.154 108.441 140.17 105.428 136.427C104.016 134.674 101.954 133.527 100.493 131.832C99.8472 125.217 102.142 115.798 97.6945 110.267C97.37 109.864 95.7475 108.514 95.8083 108.172C96.4805 107.865 96.5935 106.674 96.8513 106.448C97.1092 106.222 98.4941 105.955 99.0388 105.671C99.9051 105.217 100.511 104.234 101.102 103.924C101.835 103.542 103.559 103.267 104.526 102.902C105.309 102.609 108.299 101.183 108.757 101.296C109.162 101.398 109.924 102.128 110.657 102.377C112.552 103.02 118.865 102.366 120.63 101.433C121.427 101.012 121.934 100.343 122.617 99.7985C123.223 99.6478 123.62 100.427 123.95 100.624H123.956Z" fill="#73788F"/>
<path d="M142.374 148.723C142.285 148.228 141.995 147.88 141.946 147.353C141.172 139.249 142.232 122.655 138.315 116.026C135.076 110.545 128.261 107.917 124.17 103.484C123.278 102.516 123.385 101.719 123.956 100.624C129.064 103.698 139.79 110.95 141.899 116.461C143.809 121.447 143.183 129.763 143.423 135.276C143.536 137.898 143.997 140.735 144.075 143.311C144.13 145.113 144.205 147.839 142.371 148.723H142.374Z" fill="#9397A8"/>
<path d="M125.229 159.53C123.853 159.825 123.526 157.658 123.349 156.644C121.903 148.242 123.963 136.499 119.895 128.742C117.207 123.614 112.855 119.1 110.302 113.766C110.198 113.549 109.775 113.042 110.198 112.917C117.734 121.745 123.367 125.738 124.804 138.24C125.337 142.879 125.835 148.424 126.073 153.071C126.171 155.01 126.458 158.069 125.227 159.533L125.229 159.53Z" fill="#9397A8"/>
<path d="M111.254 48.501C111.004 48.7936 110.607 48.8544 110.066 48.6864C113.809 51.0883 116.802 54.9215 119.404 58.5113L119.511 59.3052C117.749 63.0863 115.811 66.3776 112.314 68.8404C111.888 64.1322 112.485 59.3689 110.376 54.991L109.561 54.4318C109.602 54.8346 109.498 55.3184 109.561 55.7009C109.031 56.1731 108.762 56.7468 108.759 57.4277C109.034 60.7973 109.272 64.1901 109.136 67.6177L108.927 67.9886C103.46 72.5229 95.1819 74.4554 88.2891 75.6202C88.066 73.8006 90.2332 70.4079 89.4683 68.7129C89.364 68.484 89.2597 68.1218 88.9236 68.2001L84.3661 80.0647C80.5532 76.0606 75.0975 73.9137 69.6562 73.2849L69.7606 73.0734C70.7225 72.4707 71.4323 71.9985 71.8756 70.7613C73.6517 65.8474 75.7001 61.0523 78.0267 56.3759C79.9737 53.4873 81.8744 50.5783 83.7345 47.6462C84.0039 47.4318 84.285 47.1914 84.5805 47.0117C84.0068 51.5142 86.8231 55.1272 90.5259 57.2713C95.2659 60.015 102.48 60.3656 103.208 53.4699C103.271 52.8586 103.019 50.9695 103.41 50.7058C105.902 50.4596 108.156 49.2021 109.909 47.4579L111.256 48.4952L111.254 48.501Z" fill="#D52B1E"/>
<path d="M110.619 69.0547C110.529 71.6942 110.74 74.3685 110.627 77.0079C110.607 77.4599 110.439 77.854 110.41 78.2741C110.326 79.4939 110.792 80.6499 109.877 81.5539C108.721 82.6954 104.743 84.3643 103.109 84.9496C102.202 85.277 98.7568 86.433 98.0237 86.433C97.1806 86.433 96.352 85.758 95.2712 85.7753C93.2866 85.8043 90.9455 86.4881 88.929 86.6387L83.6152 83.8892C83.4037 82.5911 84.2468 82.8809 84.9074 82.4086C85.965 81.6495 86.753 77.7931 87.3383 77.4251C94.1181 76.5386 100.779 74.7219 106.817 71.4943L110.621 69.0547H110.619Z" fill="#F3E9E9"/>
<path d="M78.3327 83.2499C77.3563 83.3542 76.2321 83.8786 75.2644 84.1017L75.4701 84.8434C77.2519 85.2548 78.9991 84.545 80.778 84.8289C82.9105 85.1679 85.1009 86.4572 86.903 87.593C84.3447 89.3633 83.6203 92.591 83.2871 95.5173C83.0032 95.7578 77.7561 94.5756 76.9535 94.3786C74.7979 93.8426 72.0976 93.5703 71.1356 91.3016C70.1505 88.9693 70.1563 82.8269 70.3939 80.1816C70.5359 78.5909 70.9415 76.9916 71.2573 75.4299C71.8281 74.9374 77.4026 77.0959 78.211 77.6493C79.6394 78.6228 81.6646 81.4622 82.0094 83.1745C82.1369 83.8062 81.5864 83.2499 81.5053 83.2499C80.5086 83.2499 79.2859 83.1485 78.3298 83.2499H78.3327Z" fill="#E5D0C7"/>
<path d="M69.7598 73.0795C72.379 63.7269 75.8935 53.8932 83.7308 47.6523C82.9079 50.7844 80.3148 53.2732 78.6923 56.0634C77.7999 57.5961 76.9017 59.5141 76.1397 61.1366C74.6766 64.2542 73.2916 69.3564 71.7097 71.9582C71.2519 72.7116 70.7217 73.2563 69.7598 73.0795Z" fill="#DD554B"/>
<path d="M111.255 48.5005C111.849 48.7091 112.637 49.4218 113.164 49.8738C115.699 52.0584 117.953 54.9471 120.477 57.1925C120.72 57.6822 119.732 58.8382 119.512 59.3047C116.444 55.6454 113.882 51.3775 109.661 48.9293L109.562 48.289C110.209 48.2165 110.652 48.289 111.255 48.5005Z" fill="#DD554B"/>
<path d="M109.561 55.7044C110.106 59.0885 110.37 61.4035 110.41 64.9179C110.416 65.3265 110.68 65.7321 110.622 66.1754C110.509 67.0736 109.495 67.5198 108.927 67.992C108.576 67.7718 108.715 67.1866 108.713 66.8302C108.695 65.2077 108.773 63.5764 108.713 61.9568C108.66 60.5053 107.939 57.3211 108.617 56.139C108.834 55.7623 109.156 55.6754 109.561 55.7044Z" fill="#DD554B"/>
<path d="M107.441 87.6963C109.203 82.991 113.401 83.0055 115.809 87.2733C117.571 90.3995 117.878 95.0121 116.162 98.2282C114.775 100.83 112.051 102.03 109.782 99.674C111.002 98.5121 111.689 96.8607 112.636 95.5482C112.859 95.241 113.253 95.1396 113.456 94.8847C114.769 93.239 114.41 90.9385 112.726 89.7216C112.477 89.542 110.71 88.4438 110.492 88.3569C109.539 87.9745 108.424 88.1744 107.444 87.6963H107.441Z" fill="#3F3F3F"/>
<path d="M116.336 84.7328C117.173 83.5855 119.242 84.869 120.016 85.7817C121.441 87.8765 122.473 90.0003 123.11 92.1501C123.211 96.047 121.288 100.744 116.759 100.625C116.675 100.564 117.744 99.0979 117.854 98.8632C119.877 94.5781 119.251 88.4994 116.336 84.7357V84.7328Z" fill="#3F3F3F"/>
<path d="M101.514 96.5991C101.552 100.45 99.6136 104.975 95.1632 104.859C95.0792 104.799 96.1483 103.333 96.2584 103.098C98.2808 98.8127 97.655 92.734 94.7402 88.9704L95.0966 88.5938C98.7154 89.7034 100.265 93.4294 101.514 96.5962V96.5991Z" fill="#3F3F3F"/>
<path d="M108.712 94.7973L109.239 95.1132C110.45 94.864 109.7 90.3905 108.923 89.6082C111.595 89.7038 111.572 95.0204 109.848 96.1475C109.118 96.6256 103.294 98.3669 102.995 98.08C103.242 96.4517 103.03 94.6496 102.63 93.0415C102.486 92.4534 101.289 89.8342 101.512 89.6053C103.062 89.2924 104.256 92.1346 104.282 93.3139C104.305 94.4207 103.642 95.5246 104.053 96.5966C104.905 97.2485 105.554 93.2733 105.542 92.8967C105.502 91.6276 104.372 90.5643 104.05 89.3938C105.337 88.8491 106.377 91.3582 106.377 92.2535V95.9621C107.286 96.2779 107.646 94.1483 107.643 93.5254C107.643 92.8503 107.257 91.6479 107.014 90.9786C106.771 90.3093 106.359 89.8342 106.165 89.1823C107.402 88.7274 108.703 90.6338 108.703 91.6189V94.7973H108.712Z" fill="#E5D0C7"/>
<path d="M101.516 96.5998C101.006 96.6171 100.963 96.3187 100.774 95.9623C100.317 95.0873 100.12 94.0704 99.5661 93.1461C98.6158 91.5584 96.6658 89.1477 94.7391 88.971C94.6174 88.8117 93.1311 87.7889 93.4701 87.4876C98.6621 86.7603 101.47 92.1262 101.513 96.5969L101.516 96.5998Z" fill="#565656"/>
<path d="M123.11 92.1495C122.623 92.2538 122.652 91.909 122.507 91.596C121.293 88.9624 120.125 84.2396 116.333 84.7322C116.211 84.5728 114.725 83.5501 115.064 83.2488C120.169 82.536 122.994 87.7223 123.107 92.1466L123.11 92.1495Z" fill="#565656"/>
<path d="M106.982 98.9609L107.442 99.9866L102.363 101.896L102.833 99.8243L106.982 98.9609Z" fill="#D52B1E"/>
<path d="M106.597 85.37L105.45 87.7198C104.63 88.3891 103.598 86.9723 103.934 86.4247C104.044 86.245 106.435 85.2396 106.597 85.37Z" fill="#D52B1E"/>
<path d="M102.574 87.911C101.623 87.8849 100.34 88.8903 99.8242 87.7024C100.633 87.5169 102.391 86.6362 102.574 87.911Z" fill="#E5D0C7"/>
<path d="M89.3958 88.3828C92.07 87.9569 94.1706 90.8572 94.9616 93.0939C96.1437 96.4317 96.0945 102.331 92.8234 104.53C88.3353 107.549 85.1222 100.033 85.0063 96.4867C84.9165 93.7458 86.2145 88.8899 89.3987 88.3828H89.3958Z" fill="#3F3F3F"/>
<path d="M89.3869 93.4644C92.942 92.3981 93.7358 99.0968 90.9949 99.7313C87.4138 100.557 87.0372 94.1713 89.3869 93.4644Z" fill="black"/>
<path d="M90.4924 95.1252C90.6836 95.2498 90.9473 96.5681 90.9473 96.9158C90.9473 97.2171 90.8922 98.1791 90.3968 98.0864C89.0698 97.8749 89.374 94.398 90.4924 95.1252Z" fill="#9397A8"/>
<path d="M61.0215 114.632C61.2388 114.386 62.7135 115.982 62.9337 116.217C65.5588 119.027 67.7028 122.386 69.4615 125.796L67.9462 127.317L61.0215 123.214V114.632Z" fill="#E26B61"/>
<path d="M83.8981 139.421L83.7967 139.196C80.6907 129.203 76.1216 119.102 68.4523 111.656C61.4233 104.83 50.7176 98.2066 41.7474 105.311C41.5707 105.467 41.4664 105.598 41.3244 105.734L41.1129 105.945C24.3604 122.866 38.6936 166.132 61.5247 171.652C80.6618 176.276 85.8509 153.775 83.8981 139.421ZM64.7205 170.574C49.2921 170.183 38.0794 147.974 35.8774 134.803C34.1621 124.546 35.3761 105.702 48.9039 104.311C64.8538 102.671 76.5794 124.57 79.384 137.683C81.8062 149.023 80.8646 170.979 64.7205 170.571V170.574Z" fill="#2E2E2E"/>
<path d="M94.2254 167.443C89.1927 168.173 86.9502 174.707 87.2892 179.143C87.7759 185.517 93.7879 193.861 100.921 190.454C110.407 185.922 105.711 165.771 94.2254 167.443ZM98.1456 189.159C88.3293 190.842 83.8616 170.552 93.8111 169.77C102.657 169.074 106.814 187.669 98.1456 189.159Z" fill="#2E2E2E"/>
<path d="M90.888 178.51C90.975 179.205 91.6124 181.011 91.9079 181.726C93.0031 184.357 95.0486 186.681 97.8793 187.408C95.0341 188.057 92.6438 185.554 91.4125 183.279C89.7262 180.162 89.225 176.549 90.888 173.318C91.3719 173.286 90.888 173.729 90.888 173.845C90.888 175.253 90.72 177.183 90.888 178.507V178.51Z" fill="#838383"/>
<path d="M96.3965 172.262C97.3468 172.809 98.6275 173.754 98.7405 174.898C98.923 176.75 99.175 180.421 96.3965 178.514V172.265V172.262Z" fill="#838383"/>
</svg>
