<svg width="300" height="200" viewBox="0 0 300 200" fill="none" xmlns="http://www.w3.org/2000/svg">
<path d="M110.19 49.1967C111.399 35.8487 111.142 21.1844 113.439 8.47798C127.935 7.77829 142.463 7.26132 156.975 7.13259C162.324 1.76558 166.383 -1.63734 174.676 1.79049C178.383 -0.55978 183.671 -0.655286 187.357 1.85486C190.589 0.573832 193.661 1.52889 196.591 3.01961C200.994 1.59118 204.902 3.15872 206.798 6.98103C222.409 7.30076 238.037 7.54368 253.641 8.22883C263.806 9.17351 262.541 6.63015 262.058 13.5875C258.094 67.349 257.489 121.376 260.342 175.194C260.785 180.625 261.201 186.061 261.899 191.469C262.048 192.167 261.259 192.237 260.68 192.289C211.177 193.967 161.485 193.911 112.025 191.34C107.374 145.396 107.832 95.9841 110.19 49.1967Z" fill="black"/>
<path d="M261.217 9.62816C258.6 39.5319 257.864 69.529 257.568 99.5116C257.451 130.071 257.565 160.698 260.761 191.147C229.644 192.918 198.353 192.283 167.172 192.144C148.936 191.766 130.617 191.866 112.463 190.192C109.825 152.434 109.472 114.485 109.907 76.6608C110.572 54.2418 112.626 31.8748 113.868 9.4766C128.656 8.55268 143.48 8.34299 158.296 8.04401C161.928 8.00249 164.041 10.9528 166.672 12.7383C167.889 13.5377 168.421 14.7626 168.981 15.9648C171.155 20.3082 175.065 24.6143 180.657 21.3422C182.176 23.3063 184.504 24.4108 187.196 23.9644C189.687 23.7402 190.632 21.8508 191.853 20.2169C194.998 22.1602 198.572 20.7754 200.557 18.1656C203.242 20.1172 206.141 18.7365 208.02 16.8825C211.086 14.4512 208.499 10.9196 207.458 8.15198C225.381 8.071 243.308 8.82259 261.217 9.62816Z" fill="white"/>
<path d="M167.389 8.24338C167.029 8.64617 167.657 9.76109 166.663 9.3064C164.013 8.50914 161.506 7.59976 158.793 6.93537C161.674 3.89579 165.475 0.526097 170.338 1.53098C173.744 2.00229 176.548 3.56152 177.89 6.45991C179.8 9.87736 181.453 13.6 181.254 17.4825C181.238 18.7573 179.618 19.2245 178.478 19.565C173.004 20.7007 169.413 12.6387 167.903 8.97836C167.816 8.72091 167.816 8.37834 167.389 8.24338Z" fill="#EED3CA"/>
<path d="M175.82 2.32615C179.434 0.401497 184.435 0.428487 187.279 3.3165C189.926 7.52498 191.427 12.3501 191.733 17.1669C192.092 19.4902 188.448 22.4758 185.474 21.0204C184.08 20.3518 181.823 19.6252 182.17 17.8708C182.609 12.3024 179.791 6.55747 175.82 2.32615Z" fill="#EED3CA"/>
<path d="M192.673 17.8106C192.454 12.4394 190.822 7.49178 188.016 2.78292C196.532 -0.140384 200.118 8.90568 200.548 14.852C200.987 18.5185 195.491 20.4473 192.673 17.8106Z" fill="#EED3CA"/>
<path d="M197.223 3.92692C203.967 1.61195 206.507 8.19977 208.195 12.6574C209.64 16.5648 203.974 18.3255 201.46 15.67C201.173 11.4594 200.015 7.52915 197.223 3.92692Z" fill="#EED3CA"/>
<path d="M200.151 96.9849C208.497 104.769 216.82 112.469 225.175 120.232C228.121 122.965 231.068 125.697 234.026 128.419C239.022 132.654 235.98 140.673 229.109 141.206C226.616 141.468 224.125 140.785 222.357 139.176C210.878 128.55 199.476 117.899 187.98 107.283C175.78 117.296 163.847 127.592 151.764 137.728C147.419 141.287 139.796 139.244 138.307 134.174C136.873 130.356 139.465 127.132 142.691 124.808C153.876 115.351 165.117 105.954 176.282 96.4721C165.04 85.8917 153.65 75.4421 142.334 64.924C139.068 62.0339 138.818 56.9949 142.81 53.9304C146.422 51.1566 151.458 51.794 154.192 54.3353C165.554 64.9946 177.15 75.4608 188.4 86.2073C200.608 76.1646 212.489 65.8334 224.645 55.7451C226.728 54.0176 229.289 53.5131 232.046 54.0945C238.66 55.4087 240.705 62.9308 235.807 66.8902C223.947 76.9494 211.938 86.8509 200.151 96.9849Z" fill="black"/>
<path d="M178.012 26.3521C174.661 26.7113 169.012 22.6025 168.785 19.6439C169 19.3304 169.294 19.6563 169.425 19.8598C171.526 22.8994 174.708 24.442 178.012 26.3521Z" fill="black"/>
<path d="M198.559 96.9766C206.721 104.6 214.943 112.147 223.119 119.759C226.616 123.031 230.193 126.241 233.599 129.586C237.066 133.063 235.287 138.235 230.779 139.798C225.447 141.779 222.202 137.498 218.931 134.539C215.361 131.234 211.796 127.927 208.231 124.619C201.501 118.341 194.7 112.127 188.023 105.809C179.938 112.374 172.164 119.248 164.159 125.898C161.451 128.182 158.74 130.466 156.027 132.746C153.216 134.718 151.064 138.069 147.252 138.436C140.486 139.47 136.288 131.323 141.282 127.412C144.055 125.043 146.845 122.688 149.635 120.336C159.039 112.39 168.489 104.478 177.891 96.5406C171.055 89.8655 163.762 83.4916 156.805 76.8892C153.265 73.6046 149.726 70.3221 146.187 67.0355C142.713 64.1163 138.952 60.4435 142.195 56.0897C144.245 53.1 149.124 52.2383 152.343 54.2647C155.549 56.8392 158.381 59.7895 161.439 62.5073C170.418 70.891 179.478 79.1751 188.408 87.6025C197.009 80.6368 205.271 73.2932 213.804 66.2382C216.594 63.8859 219.386 61.5335 222.178 59.1833C225.428 55.9298 230.13 52.9588 234.79 56.4177C238.051 58.7161 238.324 63.427 235.24 65.9476C232.488 68.2875 229.714 70.6087 226.955 72.9402C217.53 80.9897 207.916 88.8627 198.559 96.9766Z" fill="#D52B1E"/>
<path d="M74.5353 191.97C74.47 193.315 73.333 195.559 75.3151 196.145C78.8357 197.125 82.5617 197.341 86.185 197.903C89.7406 198.341 93.3055 198.47 96.8658 197.982C99.4735 197.702 99.5809 195.754 99.2401 193.959C101.206 193.954 103.898 195.63 101.575 197.235C99.9195 198.358 97.7623 198.75 95.7569 199.143C81.8777 200.708 67.6226 200.025 53.8531 197.939C48.9294 197.32 36.5794 193.558 47.9652 190.838C44.4283 196.215 61.0764 198.076 64.8467 198.852C66.9105 198.89 71.491 200.106 71.8435 197.434C72.154 195.352 71.1805 193.506 69.3852 192.194C70.6529 191.507 74.3369 191.801 74.5353 191.97Z" fill="#CCCCCC"/>
<path d="M109.187 77.0345C103.481 79.5073 97.0561 79.9059 90.9464 81.1517C94.8709 115.658 91.8919 150.354 91.2452 184.931C91.2429 185.841 91.2476 185.841 90.4678 186.455C92.2515 188.787 94.7962 190.57 97.53 191.982C107.739 202.492 80.296 197.677 75.3303 196.483C73.0634 195.808 73.8898 193.521 74.2447 191.951C74.7023 190.199 74.6952 188.396 74.938 186.623C73.6447 177.341 74.4408 167.728 74.261 158.401C71.9918 167.827 69.9 177.874 66.3444 186.866C65.1607 187.78 69.9187 192.412 70.8618 193.203C72.2509 194.563 72.3747 196.197 72.0338 197.883C71.679 199.49 69.3023 199.448 67.8502 199.344C63.8183 198.993 43.4373 196.751 47.9641 190.84C49.2178 188.955 48.9563 186.746 49.582 184.574C49.3578 184.173 49.0333 183.615 49.1967 183.104C49.8784 179.639 50.5135 176.168 51.2255 172.706C56.1655 157.897 53.1959 142.701 53.4387 127.538C51.9119 127.503 51.7391 126.735 51.7858 125.558C51.7181 119.728 51.6457 113.914 51.6621 108.08C25.7807 113.252 43.5237 85.6571 49.5283 76.258C52.3041 71.8129 57.8791 69.9671 62.6884 67.7123C63.0222 67.5712 63.1973 67.3366 63.258 67.023C63.5639 65.1025 64.1125 63.2132 64.2689 61.2802C62.1374 59.9681 60.8627 58.0185 59.6301 56.0233C53.2309 57.0946 48.5501 49.4562 54.5523 45.6837C53.2356 39.7478 50.873 30.9862 59.9616 29.2754C61.7546 20.9332 70.3926 21.6951 77.7536 22.835C84.8951 23.4599 92.3192 24.606 99.2366 22.3429C99.407 24.5873 97.6631 28.1978 95.7347 30.0083C96.5214 30.8928 101.438 29.5453 102.643 29.1031C102.589 31.4845 99.5284 34.2708 97.5253 35.7636C97.0701 36.0708 96.86 36.4466 96.7642 36.9242C96.4094 40.0115 94.4506 42.8705 94.5207 45.937C94.4133 52.5934 94.0024 59.0794 89.555 64.2617C92.0273 63.6554 96.4187 63.1779 98.2677 61.7432C102.199 57.6323 107.424 53.9657 110.184 49.1946L109.187 77.0345Z" fill="black"/>
<path d="M76.9781 133.834C74.2653 150.977 70.8988 168.112 65.8234 184.894C65.6576 186.488 63.4491 185.936 62.1954 186.191C58.355 186.162 53.7955 186.194 50.6602 183.974C50.7722 174.706 55.2943 165.367 55.5208 155.968C55.3924 146.552 54.2508 137.027 54.7013 127.69C66.9417 128.309 79.238 127.621 91.4713 127.044C91.9592 146.118 90.1709 165.124 90.0192 184.18C90.7616 187.184 78.8038 186.044 76.8731 185.193C74.6715 184.163 76.6139 178.192 75.7384 176.041C75.7408 167.574 75.4863 159.006 75.6404 150.593C75.3929 145.087 78.7431 139.171 76.9781 133.834Z" fill="black"/>
<path d="M109.898 52.8446C109.59 60.3605 109.004 67.8639 108.812 75.384C109.767 77.5225 94.2608 79.5073 92.0943 79.8541C90.9387 78.49 89.8274 77.047 89.0337 75.494C88.3916 75.4629 89.58 78.8097 89.8087 81.6188C89.8998 82.7524 89.5589 83.8238 89.4399 84.9678C89.4025 85.3519 89.4842 85.7588 89.1551 86.0848C79.0999 85.8938 68.9631 85.6135 58.957 86.6806C59.0667 85.9436 59.1671 85.2709 59.2838 84.484C58.5251 84.5982 58.4854 85.0737 58.2099 85.5782C56.9959 88.2108 55.9454 90.8684 54.6473 93.4719C52.1937 93.991 49.7143 94.4748 47.2373 94.9087C46.663 95.0395 46.2264 95.0935 45.8599 95.5959C46.1821 95.6665 46.3875 95.7122 46.5929 95.7579C47.7089 97.6991 52.7423 95.5149 54.6683 95.1744C55.0349 95.0582 55.4154 94.8277 55.8099 95.1288C54.0263 98.6189 54.7711 102.682 58.1469 105.205C54.9368 106.299 51.5633 106.957 48.2388 107.715C44.4638 108.61 39.7946 106.853 39.1316 103.153C37.579 97.8216 46.147 83.6805 49.4575 78.5543L49.4412 78.571C49.6022 78.4713 49.5649 78.2782 49.6816 78.1599L49.67 78.1703C52.175 74.105 61.4644 72.471 61.9219 69.2467C62.1157 69.0557 62.2628 69.0972 62.3818 69.3069C63.0752 70.6191 64.2449 71.5347 65.5989 72.2676C70.3102 75.4919 83.8555 75.0289 78.5116 67.403C79.142 67.1684 79.7279 67.1165 80.3209 67.1331C80.4797 67.6169 79.7139 67.8826 80.0991 68.4141C84.6609 65.5801 90.808 66.8611 95.5845 64.6375C95.9207 64.434 96.3083 64.1122 96.7822 64.4548C96.8266 64.9863 96.0888 66.5372 96.9456 66.5974C97.9005 66.1552 98.7129 65.5323 99.1168 64.6583C99.9783 62.7959 101.563 61.4194 102.955 59.9162C104.97 57.7382 107.017 55.581 109.041 53.4114C109.272 53.1623 109.44 52.8218 109.898 52.8446Z" fill="#D52B1E"/>
<path d="M91.3831 125.83C78.6968 126.826 65.7935 127.242 53.0769 126.397C52.645 120.66 52.8855 114.965 52.7734 109.222C54.5501 108.059 56.3174 106.859 58.4302 106.226C59.4737 105.923 60.3959 105.421 60.9305 104.461C62.8402 105.132 64.6285 105.153 66.2814 103.963C67.8503 105.481 69.9724 105.063 71.8845 104.38C73.5677 103.814 74.3171 103.276 74.609 101.447C75.0455 100.948 75.6712 100.905 76.3132 100.851C81.0314 100.593 85.787 100.587 90.5053 100.797C90.0127 108.736 90.5496 116.686 91.5301 124.58C91.5792 125.008 91.7122 125.439 91.3831 125.83Z" fill="#D52B1E"/>
<path d="M69.8477 63.29C72.2033 64.978 74.2624 66.859 76.5316 68.6965C76.52 69.6287 75.6281 70.7831 76.1137 71.7008C77.1316 71.2357 77.3651 69.6765 77.755 68.6903C80.3347 70.8101 77.0079 73.1832 74.4632 73.1541C70.4873 73.3991 65.9862 72.2966 63.6726 69.2405C64.6065 66.7988 64.9217 64.2575 65.3512 61.7349C65.6337 60.8318 64.91 60.2151 64.5505 59.4345C63.9575 58.0725 63.3855 56.7063 62.7902 55.3464C62.0758 54.2087 63.6493 53.9429 62.9886 53.2391C60.1521 54.8502 57.3295 56.1582 54.4603 53.6128C52.8284 52.1179 52.3592 49.9047 53.6105 48.0257C55.4432 45.2768 59.9233 45.2747 61.8003 47.7911C63.633 51.0071 66.822 52.5373 68.1994 48.1129C68.9722 45.038 69.3481 41.8884 70.0718 38.8073C70.4313 37.6384 70.2539 37.3955 72.1449 37.1131C78.3526 36.2681 84.7588 35.9754 90.9711 36.9263C92.7968 37.2585 92.5166 36.9553 92.9042 38.6101C94.445 54.6696 93.9921 72.2551 70.0041 63.1156C69.9504 63.1758 69.899 63.2319 69.8477 63.29Z" fill="#EED3CA"/>
<path d="M56.1289 93.1065C56.7219 91.2275 57.6651 89.5769 58.3444 87.8475C68.9692 86.4647 79.7761 86.8446 90.4615 87.1602C90.7207 88.1589 91.2226 97.7178 91.1339 99.7504C86.2079 99.9414 81.1325 99.522 76.1528 99.8189C76.503 97.5122 77.9995 96.3662 75.1256 94.5868C77.103 93.9411 79.1738 94.0803 81.1325 93.3826C83.7286 92.4193 82.615 89.1887 79.9699 89.442C73.391 89.8489 67.0338 91.3293 60.6557 92.7432C59.0962 92.3238 57.7164 92.957 56.1289 93.1065Z" fill="white"/>
<path d="M70.3864 93.2103C71.8339 94.5599 77.5863 95.4505 75.3544 98.0583C73.7482 97.425 70.8183 95.4215 69.1934 95.8056C68.8269 96.6236 78.4058 98.5815 73.7272 100.573C71.8642 99.7566 69.8425 98.3593 67.6503 98.5047C68.5327 99.8314 75.191 100.438 72.7397 102.906C71.4883 103.598 68.374 104.914 67.4005 103.336C68.423 102.42 69.9335 103.149 71.2992 102.896C70.7319 102.161 69.7467 102.663 69.0183 102.086C68.4347 101.989 67.7623 102.277 67.1623 102.315C66.0184 102.358 65.6495 103.479 64.6106 103.793C61.704 104.688 62.0075 102.516 58.2465 103.784C55.8582 101.939 55.5033 98.8472 56.5329 96.2893C56.9414 95.4339 57.4527 94.5702 58.5663 94.3356C62.6799 93.256 66.8425 92.3404 71.0191 91.4933C72.7654 91.3895 81.6182 89.2302 81.5225 91.4476C81.0625 93.4823 75.9638 93.1065 74.0634 93.6256C72.791 93.8664 71.6448 93.0712 70.3864 93.2103Z" fill="#EED3CA"/>
<path d="M92.2033 189.954C91.4586 190.381 90.5038 190.466 89.8104 190.946C89.0166 192.53 91.7388 191.245 92.4275 191.1C94.2158 190.547 95.3761 192.136 96.8492 192.866C96.4523 193.074 96.0741 193.134 95.6959 193.213C94.0804 193.329 94.9675 195.557 93.2633 195.364C91.2648 195.412 89.2641 195.103 87.2657 194.959C84.6672 194.727 81.8611 194.741 79.8323 193.03C75.9218 189.848 75.7257 191.743 76.4238 186.522C77.8969 185.938 77.2806 188.737 79.6735 187.884C80.9716 187.144 82.3653 187.111 83.8641 187.194C85.1295 187.472 89.0656 186.411 89.3248 187.072C88.5637 187.402 84.2097 188.077 86.1357 189.113C87.3217 189.038 89.6586 187.477 90.5995 188.467C89.7263 189.073 86.9855 189.007 87.1793 190.25C87.3077 190.497 87.5668 190.589 87.9334 190.485C88.9839 190.151 90.0298 189.798 91.0944 189.499C91.6687 189.337 91.6897 189.362 92.2033 189.954Z" fill="#3E3E3E"/>
<path d="M64.5234 187.433C63.4611 187.873 59.7304 187.136 60.139 188.718C60.4425 189.038 60.872 188.913 61.2502 188.787C61.9553 188.652 65.4058 188.131 65.2541 189.109C64.5841 189.387 60.1343 189.331 61.7498 190.516C63.0479 190.828 65.735 189.532 66.4401 190.641C65.665 190.946 63.5825 191.068 63.7132 191.895C63.8487 192.163 64.3179 192.258 64.9342 192.123C65.707 191.99 66.4471 191.702 67.2315 191.658C67.7941 192.202 68.3708 192.759 68.9077 193.275C68.9171 193.597 68.7256 193.689 68.4992 193.743C65.7163 194.191 67.0984 196.597 63.1599 195.532C56.9849 194.453 55.192 193.253 50.4107 189.829C49.2294 188.88 50.4644 186.964 50.441 185.733C52.1266 185.052 52.4978 188.741 55.3857 187.645C57.8254 186.64 60.4401 187.776 62.9919 187.263C63.5755 187.25 63.9724 187.053 64.5234 187.433Z" fill="#3E3E3E"/>
<path d="M70.3513 194.76C70.7692 195.856 71.1053 196.992 70.4236 197.98C65.3202 198.493 60.3428 197.025 55.4448 195.96C53.1593 195.402 50.862 194.644 48.999 193.305C47.9905 192.561 48.964 191.293 49.571 190.525C55.8044 194.814 56.5141 195.549 64.6455 196.822C67.7155 197.241 67.0338 194.002 70.3513 194.76Z" fill="#CCCCCC"/>
<path d="M97.9701 193.969C98.5444 195.121 98.5538 196.865 96.8098 197.009C91.2651 197.824 85.6364 196.861 80.1524 196.087C75.8334 195.194 74.3369 196.317 75.8241 191.581C78.7283 193.076 80.8925 195.821 84.5858 195.784C87.4481 195.981 90.2869 196.462 93.1678 196.373C94.6573 196.421 95.2923 195.551 95.6518 194.349C96.3849 194.006 97.1437 193.824 97.9701 193.969Z" fill="#CCCCCC"/>
<path d="M91.3846 125.83C90.6562 121.347 90.4228 116.831 90.0282 112.341C90.0259 109.127 90.0399 105.913 90.0119 102.697C90.0072 102.013 90.1099 101.382 90.5091 100.797C90.7216 100.807 90.934 100.818 91.1675 100.828C91.8118 109.116 91.6694 117.465 91.9589 125.774C91.7418 125.796 91.5644 125.813 91.3846 125.83Z" fill="#FCA6A6"/>
<path d="M109.898 52.8446C106.832 56.316 103.489 59.5819 100.403 63.0367C99.448 64.3012 99.0021 66.4625 96.9453 66.5954C98.3157 62.6755 101.502 60.1114 104.551 57.2026C106.412 55.5125 107.988 53.5443 109.779 51.8459C110.054 52.147 109.916 52.4979 109.898 52.8446Z" fill="#FCA6A6"/>
<path d="M61.9239 69.2425C63.3573 70.8702 55.8889 73.8662 54.5092 74.6552C52.9543 75.3258 51.6843 76.3535 50.6057 77.5536C50.3489 77.838 50.1621 78.1764 49.6719 78.1681C51.0026 76.2144 52.401 74.051 54.6119 72.7762C56.9628 71.489 59.3161 70.0543 61.9239 69.2425Z" fill="#FCA6A6"/>
<path d="M96.7835 64.4527C96.0341 64.5254 95.5089 65.0756 94.8388 65.333C93.2653 66.0057 91.4677 65.9912 89.7681 66.2507C87.5339 66.5642 85.2063 66.7884 83.0771 67.5006C82.7036 67.6418 82.3557 67.6065 82.0195 67.4134C84.1113 65.8105 87.1813 66.1282 89.691 65.3226C92.2264 64.816 94.6334 63.944 97.2038 63.5911C97.038 63.9669 96.975 64.1641 96.7555 64.4423C96.7579 64.4423 96.7835 64.4527 96.7835 64.4527Z" fill="#FCA6A6"/>
<path d="M55.8142 95.1267C54.2687 95.409 46.282 98.4424 46.5949 95.7558C50.0267 95.7267 53.1808 94.6554 56.5099 94.0948C56.3815 94.5599 56.1084 94.8485 55.8142 95.1267Z" fill="#FCA6A6"/>
<path d="M89.1562 86.0847C89.238 85.2376 89.9313 82.3579 89.8029 81.5648C89.978 82.6507 90.3235 84.5816 90.3959 86.1013C89.9523 86.174 89.5555 86.1595 89.1562 86.0847Z" fill="#FCA6A6"/>
<path d="M72.4463 30.8949C72.2292 29.5329 76.086 28.9515 77.1412 29.6907C76.7023 30.0125 76.3381 29.9502 75.8362 29.9876C74.5755 29.9647 73.5249 30.4007 72.4463 30.8949Z" fill="white"/>
<path d="M65.3179 32.9462C64.6198 34.0279 64.4261 35.3795 63.4455 36.1788C63.2237 35.3421 64.0689 32.6991 65.3179 32.9462Z" fill="white"/>
<path d="M61.6967 34.8791C61.0943 33.9469 62.0889 32.288 63.2982 31.9329C63.3262 32.0492 63.3986 32.1862 63.3636 32.2132C62.4834 32.8838 62.1029 33.8077 61.6967 34.8791Z" fill="white"/>
<path d="M72.668 28.8767C72.4859 27.9051 75.5535 27.1452 75.4555 28.3079C74.5473 28.2933 73.6532 28.4138 72.668 28.8767Z" fill="white"/>
<path d="M70.75 28.4553C70.757 27.3985 72.1788 26.6552 73.1967 27.0248C72.9025 27.4442 72.3118 27.3134 71.971 27.5937C71.6255 27.8781 71.2333 28.119 70.75 28.4553Z" fill="white"/>
<path d="M54.8503 186.742C54.262 186.889 53.8675 186.953 53.543 186.451C54.0472 186.36 54.3647 186.549 54.8503 186.742Z" fill="#EED3CA"/>
<path d="M49.6858 78.1578C49.6928 78.3343 49.6648 78.4962 49.4453 78.5689C49.5247 78.4318 49.6064 78.2948 49.6858 78.1578Z" fill="#FCA6A6"/>
<path d="M49.4617 78.5522C49.3917 78.6291 49.3239 78.7038 49.2539 78.7806C49.3239 78.7059 49.3917 78.6291 49.4617 78.5522Z" fill="#FCA6A6"/>
<path d="M96.7578 64.4423C96.8162 64.3634 96.8769 64.2845 96.9352 64.2056C96.8745 64.2845 96.8162 64.3634 96.7578 64.4423Z" fill="#D52B1E"/>
<path d="M87.2269 56.4385C85.6791 60.7528 78.5585 59.9141 78.283 54.9934C78.1243 54.9436 77.9609 54.8917 77.7461 54.8253C77.8371 53.8764 78.9671 52.7968 80.1157 53.1207C79.9336 53.3864 79.8029 53.5733 79.6371 53.8162C81.7709 54.5678 83.9188 55.1408 86.0689 55.8364C86.4682 55.9651 86.9491 56.0108 87.2269 56.4385Z" fill="black"/>
<path d="M78.2145 46.0512C77.9904 46.3959 77.8807 46.5641 77.7523 46.7613C78.7048 47.8472 78.609 49.0015 77.9367 50.1912C78.1211 50.3614 78.2915 50.5213 78.469 50.6853C77.5912 50.9905 76.3468 50.7082 75.4153 51.0321C74.9904 50.8099 75.392 50.5109 75.2099 50.2825C73.585 48.1669 75.4293 45.9495 78.2145 46.0512Z" fill="black"/>
<path d="M91.561 47.1039C91.3019 47.3094 91.1478 47.4298 90.9727 47.5689C92.2474 49.1697 90.7112 52.855 88.3089 51.0196C86.6677 49.0534 88.8785 46.3315 91.561 47.1039Z" fill="black"/>
<path d="M59.0313 49.6202C57.2524 50.4964 57.871 51.7961 57.0749 52.2612C56.1411 51.603 57.3154 49.8819 57.836 49.1053C52.9497 47.5918 59.4959 47.6894 61.0741 49.8798C61.4196 50.1788 61.9683 51.165 61.0554 51.0425C60.3224 50.6272 59.7341 50.1123 59.0313 49.6202Z" fill="black"/>
<path d="M79.9207 43.3231C79.0709 45.0401 76.5122 45.4408 74.6119 45.4637C73.3208 45.3744 73.671 44.5875 74.5698 44.5875C76.0033 44.3674 77.39 44.0269 78.6881 43.4269C79.0593 43.2546 79.4375 43.1902 79.9207 43.3231Z" fill="black"/>
<path d="M92.9765 44.8387C92.8668 45.9516 91.2489 44.1224 89.6404 45.0671C89.1151 45.3598 87.8147 45.8623 88.2046 44.8179C89.1945 43.5245 92.4349 42.993 92.9765 44.8387Z" fill="black"/>
<path d="M85.6733 49.1012C86.7029 50.0002 87.5036 51.2023 88.183 52.3214C87.8211 53.8225 85.8741 50.0147 85.4608 49.6618C85.3371 49.4853 85.2881 49.2922 85.6733 49.1012Z" fill="black"/>
<path d="M81.7788 61.139C81.1298 61.3176 79.1127 60.1798 80.2287 59.9161C80.8613 60.3355 81.7928 60.2525 82.3788 60.6324C82.5352 61.0331 82.038 61.0747 81.7788 61.139Z" fill="black"/>
<path d="M83.0198 58.3798C81.4159 58.6767 79.602 57.4662 79.5039 56.0295C80.3794 56.3471 81.1264 56.6627 81.9926 56.9513C82.8961 57.2441 82.9871 57.3458 83.0198 58.3798Z" fill="#EF6261"/>
<path d="M85.5572 56.4967C84.4506 57.0136 78.6211 55.9174 79.2141 54.4765C81.2896 55.2925 83.3767 55.9672 85.5572 56.4967Z" fill="white"/>
</svg>
