<svg width="80" height="80" viewBox="0 0 80 80" xmlns="http://www.w3.org/2000/svg"><g transform="translate(9 1)" fill="none" fill-rule="evenodd"><rect fill="#034694" fill-rule="nonzero" x=".49" y="23.91" width="22.85" height="13.33" rx="1.29"/><rect stroke="#000" stroke-linecap="round" stroke-linejoin="round" x=".49" y="23.91" width="22.85" height="13.33" rx="1.29"/><path d="M3.77 31.66l1.09-.13a1 1 0 00.27.64.8.8 0 00.55.22.76.76 0 00.59-.27 1 1 0 00.23-.71 1 1 0 00-.22-.67.74.74 0 00-.56-.24 1.77 1.77 0 00-.51.08l.12-.91a1 1 0 00.7-.2.7.7 0 00.24-.56.64.64 0 00-.18-.47.72.72 0 00-1 0 .94.94 0 00-.24.58l-1-.18a2.34 2.34 0 01.33-.84 1.48 1.48 0 01.6-.5 2.07 2.07 0 01.88-.18 1.73 1.73 0 011.32.52 1.4 1.4 0 01.41 1 1.36 1.36 0 01-.84 1.22c.314.068.597.24.8.49a1.4 1.4 0 01.3.9 1.73 1.73 0 01-.56 1.31 2.11 2.11 0 01-2.71.09 1.82 1.82 0 01-.61-1.19zM9 33.21v-5.48h1.6l1 3.74 1-3.74h1.67v5.48h-1V28.9l-1.09 4.31h-1.12L10 28.9v4.31zm6.75-5.48h2.19a7.3 7.3 0 011 .05c.422.064.79.319 1 .69.11.195.165.416.16.64a1.27 1.27 0 01-.2.71 1.34 1.34 0 01-.57.48c.305.076.576.252.77.5a1.3 1.3 0 01.27.82 1.57 1.57 0 01-.17.73 1.41 1.41 0 01-.48.57c-.22.15-.475.24-.74.26h-3.23v-5.45zm1.11.91v1.27h1.53a.72.72 0 00.44-.19.6.6 0 00.17-.43.64.64 0 00-.14-.42.69.69 0 00-.42-.19h-.95l-.63-.04zm0 2.18v1.47h1c.253.017.507.017.76 0A.69.69 0 0019 32a.65.65 0 00.16-.47.74.74 0 00-.12-.42.7.7 0 00-.35-.25 3.85 3.85 0 00-1-.08l-.83.04z" fill="#FAFAFA" fill-rule="nonzero"/><path d="M32.83 60.26V76.4c0 .503.407.91.91.91h5.44a.91.91 0 00.91-.91V60.28h3.58a.91.91 0 00.75-1.43l-7.21-10.2a.9.9 0 00-1.47 0L28.5 58.82a.91.91 0 00.74 1.43l3.59.01z" fill="#ED1D24" fill-rule="nonzero"/><path d="M32.83 60.26V76.4c0 .503.407.91.91.91h5.44a.91.91 0 00.91-.91V60.28h3.58a.91.91 0 00.75-1.43l-7.21-10.2a.9.9 0 00-1.47 0L28.5 58.82a.91.91 0 00.74 1.43l3.59.01z" stroke="#000" stroke-width="1.5" stroke-linecap="round" stroke-linejoin="round"/><path d="M37.16 43.88a1 1 0 01-.24.23.75.75 0 01-1-.25.7.7 0 01-.12-.4c-.09-2-.1-2.14.17-2.42a.75.75 0 011.07.07.73.73 0 01.19.44v1.87a.84.84 0 01-.07.44m4.95 3.21a.68.68 0 01-.37.25.74.74 0 01-.33 0 .65.65 0 01-.31-.18.75.75 0 010-1c1.4-1.48 1.74-1.9 2.14-1.86a.76.76 0 01.47 1.28l-1.6 1.51zM29.06 45.5a.84.84 0 01-.26-.38.87.87 0 010-.32.92.92 0 01.18-.32.76.76 0 011.06 0c1.48 1.4 1.89 1.74 1.86 2.13a.76.76 0 01-.83.69.81.81 0 01-.46-.21l-1.55-1.59z" fill="#000" fill-rule="nonzero"/><path fill="#B1B1B2" fill-rule="nonzero" d="M28.18 12.92h2.91v2.91h-2.91zm0-5.83h2.91V10h-2.91zm0 11.65h2.91v2.91h-2.91zm0 5.83h2.91v2.91h-2.91zm2.91-8.74H34v2.91h-2.91zm0-5.83H34v2.91h-2.91zm0 11.66H34v2.91h-2.91zm.15 17.03a4 4 0 01-3.91-3.13 3.82 3.82 0 01-.09-.85v-4.3l.08-.84h8v5.08a4 4 0 01-3.61 4l-.47.04zm-2.38-7.48v3.49a2.39 2.39 0 104.78-.07v-3.39l-4.78-.03z"/><path d="M14.29 20.18h-2.92V4.28A3.16 3.16 0 0114.82.82h23.75a2 2 0 011.22.56C46.54 8.1 53.25 14.84 60 21.54a3.31 3.31 0 011.08 2.63C61 29.64 61 35.11 61 40.58V62.8c0 2.53-1.25 3.82-3.75 3.82H44.07c.62-.83 1.11-2.55 1.69-3.18a1.57 1.57 0 011-.39h8.82c2.05 0 2.84.18 2.84-1.87V24.09c0-1.14-.27-1.52-1.46-1.5-4.67.07-9.35 0-14 0-2.45 0-3.73-1.26-3.74-3.69V5.51c0-1-.31-1.28-1.29-1.28h-20.8c-2 0-2.88.84-2.88 2.85v11.57l.04 1.53z" fill="#C5D1E4" fill-rule="nonzero"/><path d="M28.67 66.62H14.81a3.42 3.42 0 01-3.42-3.32V41.45h2.91V61.3c0 1.89.83 1.71 2.72 1.72 2.7 0 5.4.09 8.1 0 1.21 0 2 1.33 2.56 2.32.23.37.56.72.99 1.28z" fill="#A0A0A0" fill-rule="nonzero"/><path d="M14.29 20.18h-2.92V4.28A3.16 3.16 0 0114.82.82h23.75a2 2 0 011.22.56C46.54 8.1 53.25 14.84 60 21.54a3.31 3.31 0 011.08 2.63C61 29.64 61 35.11 61 40.58V62.8c0 2.53-1.25 3.82-3.75 3.82H44.07c.62-.83 1.11-2.55 1.69-3.18a1.57 1.57 0 011-.39h8.82c2.05 0 2.84.18 2.84-1.87V24.09c0-1.14-.27-1.52-1.46-1.5-4.67.07-9.35 0-14 0-2.45 0-3.73-1.26-3.74-3.69V4.51c0-1-.31-1.28-1.29-1.28h-20.8c-2 0-2.88.84-2.88 2.85v12.57l.04 1.53z" fill="#C5D1E4" fill-rule="nonzero"/><path d="M60 21.54a3.31 3.31 0 011.08 2.63C61 29.64 61 35.11 61 40.58V62.8c0 2.53-1.25 3.82-3.75 3.82H44.07c1.11-2.55 1.11-2.55 1.69-3.18a1.57 1.57 0 011-.39h8.52c2 0 2.84-.82 2.84-2.87V24.09c0-1.14-.27-1.52-1.46-1.5-4.67.07-9 0-13.72 0-2.45 0-3.73-1.26-3.74-3.69V5.51c0-1-.31-1.28-1.29-1.28H16.76c-1.78.1-2.53.95-2.53 2.84v13.08h-2.86V4.28A3.16 3.16 0 0114.82.82h23.76a2 2 0 011.22.56L60 21.54z" stroke="#000" stroke-width="1.5" stroke-linecap="round" stroke-linejoin="round"/><path d="M28.67 66.62H14.81a3.42 3.42 0 01-3.42-3.32V41.45h2.91V61.3c0 1.89.83 1.71 2.72 1.72 2.7 0 5.4.09 8.1 0a3 3 0 012.72 1.66c.23.37.65 1.64.83 1.94z" fill="#929294" fill-rule="nonzero"/><path d="M14.29 41.45V60.3c0 1.89.83 2.71 2.72 2.72 2.7 0 5.4.09 8.1 0a2.51 2.51 0 012.56 1.32c.24.4.31.75 1 2.31H14.51a3.17 3.17 0 01-3.12-3.32V41.45h2.9z" stroke="#000" stroke-width="1.5" stroke-linecap="round" stroke-linejoin="round"/></g></svg>