<svg width="80" height="80" viewBox="0 0 80 80" xmlns="http://www.w3.org/2000/svg"><g transform="translate(0 6)" fill="none" fill-rule="evenodd"><rect fill="#EDECEC" fill-rule="nonzero" x="12.459" y="62.02" width="43.897" height="4.095" rx="2.048"/><path fill="#636466" fill-rule="nonzero" d="M20.673 52.364l-2.36 9.656h32.19l-2.36-9.656z"/><path d="M54.717 66.756H14.099a2.281 2.281 0 01-2.281-2.28v-.793a2.281 2.281 0 012.281-2.281h40.618a2.281 2.281 0 012.313 2.257v.792a2.282 2.282 0 01-2.313 2.305zm-40.618-4.095a.998.998 0 00-.998.998v.792c.004.55.449.994.998.999h40.618c.55-.005.994-.45.998-.999v-.792a.998.998 0 00-.998-.998H14.099z" fill="#000" fill-rule="nonzero"/><path d="M50.503 62.661h-32.19a.665.665 0 01-.507-.245.657.657 0 01-.119-.555l2.376-9.655a.642.642 0 01.626-.483h27.454a.642.642 0 01.625.483l2.377 9.655a.657.657 0 01-.12.555.665.665 0 01-.522.245zm-31.374-1.283h30.558l-2.043-8.38H21.172l-2.043 8.38z" fill="#000" fill-rule="nonzero"/><rect fill="#929294" fill-rule="nonzero" x=".531" y="1.267" width="66.725" height="55.85" rx="5.91"/><path d="M1.687 47.216v5.212a4.04 4.04 0 004.04 4.04h57.362a4.04 4.04 0 004.04-4.04v-5.212H1.687z" fill="#B1B1B2" fill-rule="nonzero"/><path d="M63.77 6.996v33.85a2.22 2.22 0 01-2.22 2.22H6.291a2.22 2.22 0 01-2.22-2.22V6.995a2.22 2.22 0 012.22-2.22h55.26a2.22 2.22 0 012.22 2.22z" fill="#FFF" fill-rule="nonzero"/><path fill="#EDECEC" fill-rule="nonzero" d="M20.737 4.475h42.907v38.131H20.737z"/><path d="M9.838 42.234H58.32v-18.36a.745.745 0 00-.745-.745H10.297a.745.745 0 00-.745.744V42.25l.286-.016z" fill="#FFF" fill-rule="nonzero"/><path d="M9.838 42.234h1.172V24.618h45.822v17.616h1.489v-18.36a.745.745 0 00-.745-.745H10.297a.745.745 0 00-.745.744V42.25l.286-.016z" fill="#C5D1E4" fill-rule="nonzero"/><path d="M52.388 42.234v-18.36a.745.745 0 00-1.489 0v18.36h1.49zm-5.908 0v-18.36a.745.745 0 00-1.49 0v18.36h1.49z" fill="#C5D1E4" fill-rule="nonzero"/><path d="M57.576 30.21H10.297a.745.745 0 010-1.49h47.28a.745.745 0 110 1.49zm0 6.86H10.297a.745.745 0 110-1.49h47.28a.745.745 0 110 1.49z" fill="#C5D1E4" fill-rule="nonzero"/><rect fill="#FFF" fill-rule="nonzero" x="31.303" y="48.895" width="6.21" height="6.21" rx="3.105"/><rect stroke="#000" stroke-width="1.5" stroke-linecap="round" stroke-linejoin="round" x="31.303" y="48.895" width="6.21" height="6.21" rx="3.105"/><path d="M63.09 57.75H5.726a5.323 5.323 0 01-5.323-5.322V5.948A5.323 5.323 0 015.727.627h57.362a5.323 5.323 0 015.323 5.323v46.479a5.323 5.323 0 01-5.323 5.322zM5.726 1.91a4.048 4.048 0 00-4.04 4.04v46.479a4.04 4.04 0 004.04 4.04h57.362a4.04 4.04 0 004.04-4.04V5.948a4.048 4.048 0 00-4.04-4.04H5.727z" fill="#000" fill-rule="nonzero"/><path d="M62.527 43.707H6.337A2.376 2.376 0 013.96 41.33V6.535a2.376 2.376 0 012.377-2.377h56.19a2.376 2.376 0 012.376 2.377v34.772a2.377 2.377 0 01-2.376 2.4zM6.337 5.417A1.117 1.117 0 005.22 6.536v34.772c0 .617.5 1.117 1.117 1.117h56.19c.617 0 1.117-.5 1.117-1.117V6.535a1.117 1.117 0 00-1.117-1.117H6.337zM63.09 57.75H5.726a5.323 5.323 0 01-5.323-5.322v-5.854c0-.354.287-.641.642-.641H67.77c.355 0 .642.287.642.641v5.854a5.323 5.323 0 01-5.323 5.322zM1.686 47.216v5.212a4.04 4.04 0 004.04 4.04h57.362a4.04 4.04 0 004.04-4.04v-5.212H1.687z" fill="#000" fill-rule="nonzero"/><path d="M62.527 43.707H6.337A2.376 2.376 0 013.96 41.33V6.535a2.376 2.376 0 012.377-2.377h56.19a2.376 2.376 0 012.376 2.377v34.772a2.377 2.377 0 01-2.376 2.4zM6.337 5.417A1.117 1.117 0 005.22 6.536v34.772c0 .617.5 1.117 1.117 1.117h56.19c.617 0 1.117-.5 1.117-1.117V6.535a1.117 1.117 0 00-1.117-1.117H6.337z" fill="#000" fill-rule="nonzero"/><rect fill="#ED1D24" fill-rule="nonzero" x="9.267" y="10.448" width="32.436" height="1.362" rx=".681"/><path d="M9.267 15.16c0 .377.305.682.682.682h26.194a.681.681 0 00.68-.682.69.69 0 00-.68-.68H9.949a.69.69 0 00-.682.68zm.341 4.357a.69.69 0 00.681.681h15.794a.681.681 0 00.681-.681.674.674 0 00-.68-.681H10.296a.681.681 0 00-.69.68z" fill="#ED1D24"/><path d="M55.802 9.354h-1.94a.499.499 0 010-.99h1.972a.499.499 0 010 .99h-.032zm4.918.983a.507.507 0 01-.348-.143l-1.964-1.972a.483.483 0 010-.697.499.499 0 01.697 0l1.964 1.98a.483.483 0 01-.348.832z" fill="#034694" fill-rule="nonzero"/><path d="M58.756 10.337a.491.491 0 01-.348-.143.483.483 0 010-.697l1.964-1.972a.499.499 0 01.846.348.483.483 0 01-.149.349l-1.964 1.972a.507.507 0 01-.349.143z" fill="#034694" fill-rule="nonzero"/><path d="M76.927 37.735a.602.602 0 01-.674-.745.539.539 0 01.175-.277c1.132-1.149 1.188-1.22 1.497-1.212a.602.602 0 01.38 1.006c-.127.103-.626.57-1.085 1.006a.665.665 0 01-.293.198m-3.66-1.331a.665.665 0 01-.23-.103.594.594 0 01-.213-.483v-1.822a.603.603 0 111.196-.15.705.705 0 010 .182v1.822a.594.594 0 01-.642.554h-.119.008zm4.357 4.982a.554.554 0 01-.357-.055.602.602 0 01-.182-.19.626.626 0 01-.08-.27.61.61 0 01.563-.625c1.584-.08 2.036-.135 2.242.103a.602.602 0 01-.428.998l-1.758.04z" fill="#000" fill-rule="nonzero"/><path d="M2.883 44.618a.277.277 0 01-.277-.277V5.608a.277.277 0 01.554 0v38.748a.27.27 0 01-.277.262z" fill="#FFF" fill-rule="nonzero"/><rect stroke="#000" stroke-width="1.5" fill="#FFF" fill-rule="nonzero" stroke-linecap="round" stroke-linejoin="round" x="41.457" y="30.036" width="19.382" height="24.451" rx="1.7"/><rect fill="#ED1D24" fill-rule="nonzero" x="45.505" y="36.333" width="11.96" height="1.275" rx=".638"/><path d="M45.505 41.347a.642.642 0 00.642.641h10.36a.642.642 0 00.642-.641.634.634 0 00-.642-.634h-10.36a.634.634 0 00-.642.634zm0 4.38a.69.69 0 00.681.68h7.873a.681.681 0 00.682-.68.674.674 0 00-.682-.681h-7.873a.681.681 0 00-.681.68z" fill="#ED1D24"/><path d="M64.903 37.315a10.654 10.654 0 1010.598 10.653c-.017-5.855-4.743-10.605-10.598-10.653h0z" stroke="#000" stroke-width="1.5" fill="#FFF" fill-rule="nonzero" stroke-linecap="round" stroke-linejoin="round"/><path d="M72.42 47.651c-.135-.142-3.406-3.508-7.517-3.508-4.11 0-7.382 3.366-7.525 3.508a.467.467 0 000 .626h0c.143.143 3.406 3.517 7.525 3.517s7.382-3.374 7.517-3.517a.467.467 0 000-.618v-.008z" stroke="#000" stroke-width="1.5" fill="#FFF" fill-rule="nonzero" stroke-linecap="round" stroke-linejoin="round"/><path d="M64.903 45.323a2.653 2.653 0 102.748 2.653 2.701 2.701 0 00-2.748-2.653z" fill="#034694" fill-rule="nonzero"/></g></svg>