<svg width="142" height="48" viewBox="0 0 142 48" fill="none" xmlns="http://www.w3.org/2000/svg">
<path fill-rule="evenodd" clip-rule="evenodd" d="M13.5186 6.10352e-05L29.5879 24.0004L13.5186 48H23.6273L39.6952 24.0004L23.6273 6.10352e-05H13.5186Z" fill="#212529"/>
<path fill-rule="evenodd" clip-rule="evenodd" d="M57.4297 6.10352e-05L41.3604 24.0004L57.4297 48H67.5384L51.4691 24.0004L67.5384 6.10352e-05H57.4297Z" fill="#D52B1E"/>
<path fill-rule="evenodd" clip-rule="evenodd" d="M77.4053 11.7687C79.5578 11.7687 80.843 10.5095 80.843 8.38209C80.843 6.29101 79.369 4.94437 77.4683 4.94437H75.7809V11.7687H77.4053ZM74.4209 13.0153V3.69772H77.6571C80.4771 3.69772 82.2023 5.92583 82.2023 8.3569C82.2023 11.2013 80.4015 13.0153 77.4549 13.0153H74.4209Z" fill="#212529"/>
<path fill-rule="evenodd" clip-rule="evenodd" d="M83.6016 13.0153H84.9112V6.03991H83.6016V13.0153ZM83.6016 5.23399H84.9112V3.69772H83.6016V5.23399Z" fill="#212529"/>
<path fill-rule="evenodd" clip-rule="evenodd" d="M92.3266 9.52694C92.3266 7.89067 91.08 7.04624 89.8718 7.04624C88.5748 7.04624 87.4793 8.16771 87.4793 9.52694C87.4793 10.8625 88.5867 11.995 89.8837 11.995C91.4074 11.995 92.3266 10.6603 92.3266 9.52694ZM92.3014 12.0958C91.76 12.8261 90.8918 13.1913 89.897 13.1913C87.8948 13.1913 86.1689 11.4662 86.1689 9.57731C86.1689 7.47438 87.806 5.85071 89.9089 5.85071C90.8155 5.85071 91.7726 6.22848 92.3266 6.84551V6.03959H93.6362V12.0958C93.6362 14.3617 92.2385 15.7602 89.8718 15.7602C88.2719 15.7602 87.0134 14.9157 86.4215 13.5558H87.8822C88.3733 14.2491 89.0282 14.5639 89.8837 14.5639C91.4829 14.5639 92.3266 13.695 92.3266 12.0958H92.3014Z" fill="#212529"/>
<path fill-rule="evenodd" clip-rule="evenodd" d="M95.249 13.0153H96.5586V6.03991H95.249V13.0153ZM95.249 5.23399H96.5586V3.69772H95.249V5.23399Z" fill="#212529"/>
<path fill-rule="evenodd" clip-rule="evenodd" d="M98.3968 13.015V7.23588H97.4531V6.0396H98.3968V3.69742H99.7064V6.0396H100.852V7.23588H99.7064V13.015H98.3968Z" fill="#212529"/>
<path fill-rule="evenodd" clip-rule="evenodd" d="M74.4209 28.5703V19.2527H79.4445V20.4994H75.7809V23.2445H79.4445V24.4904H75.7809V27.3237H79.4445V28.5703H74.4209Z" fill="#212529"/>
<path fill-rule="evenodd" clip-rule="evenodd" d="M85.0488 28.5703L83.3236 26.0896L81.637 28.5703H80.1133L82.531 24.9948L80.2014 21.5949H81.7881L83.3236 23.8867L84.848 21.5949H86.4339L84.1547 24.9948L86.585 28.5703H85.0488Z" fill="#212529"/>
<path fill-rule="evenodd" clip-rule="evenodd" d="M93.3974 25.0953C93.3974 23.8234 92.3908 22.602 90.9923 22.602C89.6827 22.602 88.676 23.7731 88.676 25.0701C88.676 26.4301 89.6827 27.55 91.0427 27.55C92.3908 27.55 93.3974 26.4301 93.3974 25.0953ZM87.3916 30.8996V21.5946H88.5879V22.6649H88.6131C89.2049 21.8212 90.099 21.4064 91.0938 21.4064C93.1708 21.4064 94.707 23.0175 94.707 25.1708C94.707 27.1352 93.1834 28.7471 91.1812 28.7471C90.1234 28.7471 89.1797 28.3189 88.7257 27.5626H88.7005V30.8996H87.3916Z" fill="#212529"/>
<path fill-rule="evenodd" clip-rule="evenodd" d="M101.432 24.6417C101.33 23.458 100.286 22.6018 99.1646 22.6018C98.095 22.6018 97.0246 23.4462 96.9239 24.6417H101.432ZM96.9239 25.6491C97.2261 26.8076 98.1453 27.5506 99.2157 27.5506C100.033 27.5506 100.802 27.1224 101.205 26.3795H102.514C101.973 27.815 100.664 28.7468 99.1646 28.7468C97.2009 28.7468 95.6143 27.0091 95.6143 25.1454C95.6143 22.9417 97.2764 21.4062 99.1275 21.4062C101.179 21.4062 102.742 22.9921 102.742 24.995C102.742 25.2091 102.742 25.4099 102.704 25.6491H96.9239Z" fill="#212529"/>
<path fill-rule="evenodd" clip-rule="evenodd" d="M0 47.9999H10.108V0H0V47.9999Z" fill="#D52B1E"/>
<path fill-rule="evenodd" clip-rule="evenodd" d="M107.425 9.53999C107.425 8.18002 106.442 7.0467 104.994 7.0467C103.685 7.0467 102.615 8.16742 102.615 9.53999C102.615 10.8496 103.685 11.9948 104.994 11.9948C106.354 11.9948 107.425 10.8622 107.425 9.53999ZM107.399 13.0147V11.9318H107.374C106.883 12.7636 106.002 13.1918 105.007 13.1918C102.967 13.1918 101.305 11.6548 101.305 9.64073C101.305 7.41188 102.904 5.85117 104.956 5.85117C105.976 5.85117 106.833 6.2282 107.374 7.02226H107.399V6.03931H108.708V13.0147H107.399Z" fill="#212529"/>
<path fill-rule="evenodd" clip-rule="evenodd" d="M110.397 13.0153H111.707V3.69772H110.397V13.0153Z" fill="#212529"/>
<path fill-rule="evenodd" clip-rule="evenodd" d="M103.988 28.5703V21.5949H105.21V22.2245H105.235C105.55 21.7586 106.091 21.4564 107.01 21.406V22.7527C105.877 22.7912 105.298 23.4837 105.298 24.6548V28.5703H103.988Z" fill="#212529"/>
<path fill-rule="evenodd" clip-rule="evenodd" d="M108.218 28.5706H109.527V21.5952H108.218V28.5706ZM108.218 20.7893H109.527V19.253H108.218V20.7893Z" fill="#212529"/>
<path fill-rule="evenodd" clip-rule="evenodd" d="M116.617 24.6417C116.516 23.458 115.472 22.6018 114.35 22.6018C113.281 22.6018 112.21 23.4462 112.109 24.6417H116.617ZM112.109 25.6491C112.412 26.8076 113.331 27.5506 114.401 27.5506C115.219 27.5506 115.987 27.1224 116.39 26.3795H117.7C117.158 27.815 115.849 28.7468 114.35 28.7468C112.386 28.7468 110.8 27.0091 110.8 25.1454C110.8 22.9417 112.462 21.4062 114.313 21.4062C116.365 21.4062 117.927 22.9921 117.927 24.995C117.927 25.2091 117.927 25.4099 117.889 25.6491H112.109Z" fill="#212529"/>
<path fill-rule="evenodd" clip-rule="evenodd" d="M124.046 28.5703V24.7674C124.046 23.2949 123.468 22.6015 122.308 22.6015C121.163 22.6015 120.471 23.446 120.471 24.7556V28.5703H119.161V21.5949H120.383V22.3378H120.408C120.924 21.6704 121.642 21.406 122.448 21.406C124.123 21.406 125.357 22.4638 125.357 24.3897V28.5703H124.046Z" fill="#212529"/>
<path fill-rule="evenodd" clip-rule="evenodd" d="M78.0098 37.2254C78.0098 36.3817 77.469 35.8788 76.7002 35.8788C76.0461 35.8788 75.4543 36.4699 75.4543 37.1499C75.4543 37.8047 75.895 38.1825 76.8009 38.4728C78.8157 39.1143 79.5586 39.8698 79.5586 41.4817C79.5586 43.1683 78.3498 44.3024 76.7002 44.3024C75.038 44.3024 73.855 43.1179 73.8291 41.3683H75.1891C75.2024 42.3757 75.7943 43.055 76.7002 43.055C77.6068 43.055 78.1987 42.4002 78.1987 41.4817C78.1987 40.8017 77.8972 40.3735 76.9016 40.0335C74.598 39.2528 74.0943 38.4973 74.0943 37.1758C74.0943 35.7529 75.2654 34.6321 76.7002 34.6321C78.2372 34.6321 79.3446 35.6018 79.3698 37.2254H78.0098Z" fill="#212529"/>
<path fill-rule="evenodd" clip-rule="evenodd" d="M81.0072 44.1256V38.3465H80.0635V37.1502H81.0072V34.808H82.3168V37.1502H83.4619V38.3465H82.3168V44.1256H81.0072Z" fill="#212529"/>
<path fill-rule="evenodd" clip-rule="evenodd" d="M89.2544 44.1256V43.3701H89.2292C88.8892 43.9619 88.0959 44.3019 87.1767 44.3019C85.6782 44.3019 84.2686 43.496 84.2686 41.0405V37.1502H85.5774V40.9397C85.5774 42.4005 86.1196 43.1056 87.3152 43.1056C88.524 43.1056 89.1411 42.2619 89.1411 40.9146V37.1502H90.4499V44.1256H89.2544Z" fill="#212529"/>
<path fill-rule="evenodd" clip-rule="evenodd" d="M95.3998 38.1571C94.065 38.1571 93.0205 39.2786 93.0205 40.6504C93.0205 41.96 94.0902 43.1059 95.3998 43.1059C96.722 43.1059 97.8301 42.023 97.8301 40.7008C97.8301 39.2786 96.8731 38.1571 95.3998 38.1571ZM97.8301 44.1259V43.1311H97.8049C97.2642 43.8859 96.3568 44.3022 95.3368 44.3022C93.3102 44.3022 91.7109 42.7659 91.7109 40.7134C91.7109 38.5853 93.222 36.9616 95.299 36.9616C96.2442 36.9616 97.1383 37.3016 97.7042 38.0068H97.7301V34.8083H99.039V44.1259H97.8301Z" fill="#212529"/>
<path fill-rule="evenodd" clip-rule="evenodd" d="M100.663 44.1259H101.973V37.1505H100.663V44.1259ZM100.663 36.3446H101.973V34.8083H100.663V36.3446Z" fill="#212529"/>
<path fill-rule="evenodd" clip-rule="evenodd" d="M106.985 38.1571C105.675 38.1571 104.542 39.2652 104.542 40.6252C104.542 41.9474 105.638 43.1059 106.96 43.1059C108.332 43.1059 109.452 42.023 109.452 40.6126C109.452 39.2527 108.358 38.1571 106.985 38.1571ZM106.946 44.3022C104.983 44.3022 103.232 42.6274 103.232 40.663C103.232 38.5356 104.906 36.9616 107.048 36.9616C108.975 36.9616 110.787 38.4727 110.762 40.6882C110.737 42.5519 109.175 44.3022 106.946 44.3022Z" fill="#212529"/>
<path fill-rule="evenodd" clip-rule="evenodd" d="M133.617 26.2665C133.063 27.8398 131.729 28.7471 130.18 28.7471C128.178 28.7471 126.604 27.1353 126.604 25.145C126.604 23.0428 128.128 21.4058 130.167 21.4058C131.754 21.4058 133.201 22.4006 133.617 23.9117H132.169C131.779 23.0932 131.149 22.6021 130.206 22.6021C128.832 22.6021 127.914 23.6472 127.914 25.0702C127.914 26.4553 128.858 27.5501 130.18 27.5501C131.074 27.5501 131.792 27.0724 132.157 26.2665H133.617Z" fill="#212529"/>
<path fill-rule="evenodd" clip-rule="evenodd" d="M140.266 24.6417C140.164 23.458 139.12 22.6018 137.999 22.6018C136.929 22.6018 135.859 23.4462 135.758 24.6417H140.266ZM135.758 25.6491C136.06 26.8076 136.979 27.5506 138.05 27.5506C138.867 27.5506 139.636 27.1224 140.039 26.3795H141.348C140.807 27.815 139.498 28.7468 137.999 28.7468C136.035 28.7468 134.448 27.0091 134.448 25.1454C134.448 22.9417 136.11 21.4062 137.962 21.4062C140.013 21.4062 141.576 22.9921 141.576 24.995C141.576 25.2091 141.576 25.4099 141.538 25.6491H135.758Z" fill="#212529"/>
</svg>
