<svg width="24" height="24" viewBox="0 0 24 24" fill="none" xmlns="http://www.w3.org/2000/svg">
<path d="M13.7599 13.7607C15.2303 12.2894 17.3568 11.6834 19.381 12.1592C21.5988 12.6652 23.3308 14.3981 23.8381 16.6172C24.2617 18.405 23.8439 20.2888 22.7033 21.7285C21.5627 23.1682 19.8253 24.0051 17.9894 24C17.5269 23.9997 17.0655 23.9479 16.6144 23.8457C14.3968 23.3387 12.6651 21.6053 12.1593 19.3857C11.6842 17.3599 12.2896 15.2321 13.7599 13.7607ZM21.4884 16.1006C21.3392 16.0729 21.1856 16.1202 21.0783 16.2275L16.2267 21.084C16.1196 21.1914 16.0722 21.3449 16.0998 21.4941C16.1275 21.6433 16.2269 21.7692 16.3654 21.8311C17.9279 22.4936 19.7358 22.1413 20.9357 20.9404C22.1356 19.7394 22.4876 17.9299 21.8254 16.3662C21.7636 16.2276 21.6375 16.1283 21.4884 16.1006ZM19.632 14.1748C18.0668 13.5501 16.2809 13.8982 15.0646 15.0654C13.8446 16.2432 13.493 18.0593 14.1838 19.6084C14.2417 19.7518 14.3673 19.8568 14.5187 19.8877C14.6703 19.9185 14.8273 19.8711 14.9367 19.7617L19.7726 14.9238C19.8801 14.8162 19.9274 14.6622 19.8996 14.5127C19.8715 14.363 19.7712 14.2362 19.632 14.1748ZM8.22477 10C9.81909 10.0033 11.381 10.4642 12.7316 11.3301C12.8715 11.4193 12.9672 11.566 12.9933 11.7324C13.0194 11.8991 12.9733 12.0697 12.8673 12.1992C11.8555 13.4397 11.1778 14.9291 10.9025 16.5195C10.8536 16.7978 10.6167 17.0005 10.34 17H0.570473C0.390331 16.9999 0.221066 16.9123 0.113442 16.7646C0.00591491 16.617 -0.0277965 16.4264 0.0235978 16.25C1.11885 12.5528 4.44543 10.0177 8.22477 10ZM8.50016 0C10.9854 0 13.0002 2.01472 13.0002 4.5C13.0002 6.98528 10.9854 9 8.50016 9C6.01488 9 4.00016 6.98528 4.00016 4.5C4.00016 2.01472 6.01488 0 8.50016 0Z" fill="#404040"/>
</svg>
