<svg width="24" height="24" viewBox="0 0 24 24" fill="none" xmlns="http://www.w3.org/2000/svg">
<g clip-path="url(#clip0_613_491)">
<path fill-rule="evenodd" clip-rule="evenodd" d="M12.5001 0C16.364 0.00480814 19.4953 3.13609 19.5001 7C19.5001 10.4788 16.962 13.3631 13.6368 13.9062V18.4785C13.6371 18.6003 13.7095 18.7094 13.8194 18.7539C13.9295 18.7985 14.0553 18.769 14.1358 18.6797C14.7399 18.0089 15.3907 17.3843 16.0831 16.8115C16.1784 16.7337 16.2163 16.602 16.1768 16.4834C16.0992 16.2475 16.0602 16.0001 16.0616 15.751C16.1282 14.7313 16.6845 13.8136 17.544 13.3047C18.2897 12.8316 19.1099 12.4971 19.9679 12.3174C20.9422 12.1232 21.8653 11.7148 22.6729 11.1201C22.812 11.0118 22.9912 10.9738 23.1602 11.0176C23.3294 11.0614 23.4702 11.1823 23.5431 11.3457C24.4102 13.8539 24.0282 16.6418 22.5206 18.8037C21.8672 19.588 20.9344 20.0674 19.9337 20.1328C19.7892 20.1328 19.645 20.1184 19.503 20.0908C18.735 19.9121 18.0811 19.3955 17.7149 18.6768C17.6985 18.6498 17.6721 18.6305 17.6417 18.625C17.6112 18.6196 17.5791 18.6277 17.5548 18.6475C15.977 19.9512 14.6489 21.5475 13.6388 23.3535C13.3705 23.8439 12.8213 24.094 12.2892 23.9678C11.7568 23.8413 11.3681 23.3679 11.3351 22.8057V21.7178C11.335 21.6648 11.3213 21.6129 11.295 21.5674C10.3704 20.0473 9.03437 18.8389 7.45224 18.0918C7.35988 18.0449 7.25045 18.0528 7.16513 18.1123L7.12314 18.1406C7.0834 18.1677 7.05043 18.205 7.02744 18.248C6.69899 19.0304 6.01897 19.5963 5.2081 19.7627C5.10519 19.7789 5.00068 19.7875 4.89658 19.7871C4.08609 19.7439 3.32969 19.3522 2.81161 18.708C2.28709 18.075 1.87536 17.3511 1.59482 16.5703C1.29 15.6954 0.805901 14.8984 0.175873 14.2334C0.0504796 14.1084 -0.0138479 13.9311 0.00204464 13.752C0.0179262 13.573 0.111785 13.411 0.256927 13.3115C2.35255 12.1431 4.87121 12.11 6.99521 13.2227C7.92342 13.7846 8.51645 14.7892 8.57431 15.8975C8.57153 15.9645 8.60708 16.0273 8.66513 16.0576C9.44586 16.4675 10.1831 16.961 10.8634 17.5303C10.9496 17.6027 11.0686 17.6176 11.169 17.5684C11.2694 17.5191 11.3332 17.4144 11.3331 17.2998V13.9004C8.02277 13.3447 5.50009 10.4682 5.50009 7C5.50017 3.13409 8.63415 0 12.5001 0ZM12.504 1.61035C12.0581 1.61052 11.6964 1.972 11.6964 2.41797V2.79492C11.7024 2.90169 11.6255 2.99481 11.5196 3.00977C10.5342 3.19411 9.78476 4.00303 9.68466 4.99902C9.58459 5.99502 10.1582 6.93638 11.089 7.30469L13.3106 8.19922C13.5933 8.31326 13.7559 8.61084 13.6983 8.91016C13.6406 9.20949 13.3791 9.42681 13.0743 9.42773H10.8849C10.4388 9.42773 10.0772 9.78928 10.0772 10.2354C10.0773 10.6814 10.4388 11.043 10.8849 11.043H11.5157C11.6126 11.0464 11.6903 11.1247 11.6925 11.2217V11.5811C11.6925 11.7841 11.77 11.9675 11.8936 12.1094H13.1065C13.2302 11.9675 13.3077 11.784 13.3077 11.5811V11.2002C13.296 11.1016 13.359 11.0091 13.4552 10.9844C14.4508 10.8221 15.215 10.0139 15.3214 9.01074C15.4277 8.00774 14.8505 7.05706 13.9112 6.68945L11.6895 5.80078C11.4067 5.68668 11.2441 5.38734 11.3018 5.08789C11.3597 4.78872 11.6211 4.57211 11.9259 4.57129H14.1153C14.5614 4.57129 14.9229 4.20975 14.9229 3.76367C14.9228 3.31774 14.5613 2.95605 14.1153 2.95605H13.4942C13.3958 2.95496 13.3151 2.87666 13.3116 2.77832V2.41797C13.3116 1.9719 12.9501 1.61035 12.504 1.61035Z" fill="#404040"/>
</g>
<defs>
<clipPath id="clip0_613_491">
<rect width="24" height="24" fill="white"/>
</clipPath>
</defs>
</svg>
