<svg width="24" height="24" viewBox="0 0 24 24" fill="none" xmlns="http://www.w3.org/2000/svg">
<path d="M18.0002 12C21.3121 12.0041 23.996 14.6881 24.0002 18C24.0002 21.3137 21.3139 24 18.0002 24C14.6865 24 12.0002 21.3137 12.0002 18C12.0002 14.6864 14.6865 12 18.0002 12ZM18.0002 15C17.6689 15 17.4007 15.2683 17.4006 15.5996V17.2002C17.4004 17.3104 17.3106 17.4003 17.2004 17.4004H15.5998C15.2686 17.4006 15.0002 17.6688 15.0002 18C15.0002 18.3312 15.2686 18.5994 15.5998 18.5996H17.2004C17.3107 18.5997 17.4005 18.6895 17.4006 18.7998V20.4004C17.4008 20.7316 17.6689 21 18.0002 21C18.3314 21 18.5995 20.7316 18.5998 20.4004V18.7998C18.5998 18.6895 18.6896 18.5997 18.8 18.5996H20.4006C20.7318 18.5994 21.0002 18.3313 21.0002 18C21.0002 17.6687 20.7318 17.4006 20.4006 17.4004H18.8C18.6897 17.4003 18.5999 17.3104 18.5998 17.2002V15.5996C18.5996 15.2683 18.3315 15 18.0002 15ZM8.22477 10C9.81909 10.0033 11.381 10.4642 12.7316 11.3301C12.8715 11.4193 12.9672 11.566 12.9933 11.7324C13.0194 11.8991 12.9733 12.0697 12.8673 12.1992C11.8555 13.4397 11.1778 14.9291 10.9025 16.5195C10.8536 16.7978 10.6167 17.0005 10.34 17H0.570473C0.390331 16.9999 0.221066 16.9123 0.113442 16.7646C0.00591491 16.617 -0.0277965 16.4264 0.0235978 16.25C1.11885 12.5528 4.44543 10.0177 8.22477 10ZM8.50016 0C10.9854 0 13.0002 2.01472 13.0002 4.5C13.0002 6.98528 10.9854 9 8.50016 9C6.01488 9 4.00016 6.98528 4.00016 4.5C4.00016 2.01472 6.01488 0 8.50016 0Z" fill="#404040"/>
</svg>
