<svg width="24" height="24" viewBox="0 0 24 24" fill="none" xmlns="http://www.w3.org/2000/svg">
<path d="M12 0C18.6274 0 24 5.37258 24 12C24 18.6274 18.6274 24 12 24C5.37568 23.9925 0.00747569 18.6243 0 12C0 5.37258 5.37258 0 12 0ZM12 4.69531C11.4237 4.69531 10.9561 5.16296 10.9561 5.73926V10.6953C10.9561 10.8394 10.8394 10.9561 10.6953 10.9561H5.73926C5.16296 10.9561 4.69531 11.4237 4.69531 12C4.69531 12.5763 5.16296 13.0439 5.73926 13.0439H10.6953C10.8394 13.0439 10.9561 13.1606 10.9561 13.3047V18.2607C10.9561 18.837 11.4237 19.3047 12 19.3047C12.5763 19.3047 13.0439 18.837 13.0439 18.2607V13.3047C13.0439 13.1606 13.1606 13.0439 13.3047 13.0439H18.2607C18.837 13.0439 19.3047 12.5763 19.3047 12C19.3047 11.4237 18.837 10.9561 18.2607 10.9561H13.3047C13.1606 10.9561 13.0439 10.8394 13.0439 10.6953V5.73926C13.0439 5.16296 12.5763 4.69531 12 4.69531Z" fill="#404040"/>
</svg>
