<svg width="24" height="24" viewBox="0 0 24 24" fill="none" xmlns="http://www.w3.org/2000/svg">
<g clip-path="url(#clip0_455_198)">
<path d="M12 0C18.6274 0 24 5.37258 24 12C24 18.6274 18.6274 24 12 24L11.6953 23.9958C5.21203 23.8267 0.007801 18.5224 0 12.0001L0.0038147 11.6951C0.165622 5.20858 5.47454 0 12 0ZM12 2.55322L11.7313 2.55725C6.64066 2.70479 2.55879 6.8748 2.55319 11.9999C2.55319 17.2173 6.78268 21.4468 12 21.4468C17.2173 21.4468 21.4468 17.2173 21.4468 12C21.4468 6.78268 17.2173 2.55322 12 2.55322ZM12 4.87354C12.705 4.87354 13.2766 5.4451 13.2766 6.15015V10.4681L13.2833 10.5266C13.3098 10.6394 13.4111 10.7234 13.5319 10.7234H17.8488C18.5539 10.7234 19.1255 11.295 19.1255 12C19.1255 12.705 18.5539 13.2766 17.8488 13.2766H13.5319C13.3909 13.2766 13.2766 13.3909 13.2766 13.5319V17.8489C13.2766 18.5539 12.705 19.1255 12 19.1255C11.295 19.1255 10.7234 18.5539 10.7234 17.8489V13.5319C10.7234 13.3909 10.6091 13.2766 10.4681 13.2766H6.15115C5.44611 13.2766 4.87454 12.705 4.87454 12C4.87454 11.295 5.44611 10.7234 6.15115 10.7234H10.4681C10.6091 10.7234 10.7234 10.6091 10.7234 10.4681V6.15015C10.7234 5.4451 11.295 4.87354 12 4.87354Z" fill="#D52B1E"/>
</g>
<defs>
<clipPath id="clip0_455_198">
<rect width="24" height="24" fill="white"/>
</clipPath>
</defs>
</svg>
