<svg width="24" height="24" viewBox="0 0 24 24" fill="none" xmlns="http://www.w3.org/2000/svg">
<g clip-path="url(#clip0_631_686)">
<path fill-rule="evenodd" clip-rule="evenodd" d="M0 11.999C0 12.8275 0.671573 13.499 1.5 13.499H10.25C10.3881 13.499 10.5 13.611 10.5 13.749V22.499C10.5 23.3275 11.1716 23.999 12 23.999C12.8284 23.999 13.5 23.3275 13.5 22.499V13.749C13.5 13.611 13.6119 13.499 13.75 13.499H22.5C23.3284 13.499 24 12.8275 24 11.999C24 11.1706 23.3284 10.499 22.5 10.499H13.75C13.6119 10.499 13.5 10.3871 13.5 10.249V1.49902C13.5 0.670593 12.8284 -0.000976562 12 -0.000976562C11.1716 -0.000976562 10.5 0.670593 10.5 1.49902V10.249C10.5 10.3871 10.3881 10.499 10.25 10.499H1.5C0.671573 10.499 0 11.1706 0 11.999Z" fill="#404040"/>
</g>
<defs>
<clipPath id="clip0_631_686">
<rect width="24" height="24" fill="white"/>
</clipPath>
</defs>
</svg>
