<svg width="24" height="24" viewBox="0 0 24 24" fill="none" xmlns="http://www.w3.org/2000/svg">
<path fill-rule="evenodd" clip-rule="evenodd" d="M21.7066 17.6771C21.4979 17.2753 21.2893 16.8736 21.1849 16.4718C20.8719 15.4674 20.7675 14.4632 20.6632 13.258C20.6632 12.9567 20.6632 12.6551 20.6632 12.3538C20.6632 12.0525 20.5588 11.7512 20.5588 11.4499C20.5588 10.9477 20.5588 10.3453 20.4545 9.84307C20.2458 7.43255 19.2023 5.52416 17.5328 4.11801C16.3849 3.11363 14.9241 2.51105 13.1501 2.31017H12.9415V1.00443C12.9415 0.401801 12.5241 0 12.0023 0C11.4806 0 11.0632 0.401647 11.0632 1.10472V2.20966H10.8545C7.9328 2.71185 5.74149 4.2183 4.38498 6.72927C3.75889 7.73365 3.44585 9.1399 3.44585 10.6465C3.44585 12.5548 3.34147 13.9609 3.02843 15.2666C2.81973 16.271 2.61103 16.9741 2.19364 17.7776C2.08929 17.9784 1.8806 18.3803 2.0893 18.8825C2.29799 19.3847 2.81973 19.3846 3.02843 19.3846H21.0806C21.498 19.2842 21.811 19.0833 21.811 18.782C22.124 18.3803 22.0197 18.0788 21.7066 17.6771ZM4.38498 17.4763L4.48932 17.175C4.90671 15.7688 5.21976 14.2624 5.3241 12.9567C5.3241 12.4545 5.3241 11.9521 5.42844 11.4499C5.42844 10.8473 5.42844 10.3452 5.53279 9.74256C5.63713 7.03073 7.93275 4.62028 10.7501 4.21852C11.1675 4.11808 11.5849 4.11801 12.0023 4.11801C15.2371 4.11801 17.9502 6.32759 18.4719 9.34074C18.5762 9.7425 18.5762 10.1443 18.5762 10.6465C18.5762 12.7557 18.7849 14.664 19.0979 16.271C19.2023 16.5724 19.3067 16.7732 19.411 17.175L19.5154 17.3758H4.38498V17.4763ZM14.2687 21.7847C13.8799 23.1561 12.8108 24 11.6444 24H11.4501C10.1865 24 9.11731 23.1561 8.72853 21.7847C8.53414 21.1517 8.82576 20.6241 9.21454 20.4132C9.31174 20.3077 9.40892 20.3077 9.60331 20.3077C9.99209 20.3077 10.2837 20.5187 10.4781 21.0462C10.6725 21.6792 11.0613 21.8902 11.5472 21.8902C11.936 21.8902 12.3248 21.5737 12.6164 21.0462C12.8108 20.6242 13.1024 20.3077 13.4912 20.3077H13.6856C13.7828 20.3077 13.7828 20.3077 13.88 20.4132C13.9772 20.5187 14.1715 20.6243 14.2687 20.8353C14.4631 21.2572 14.3659 21.4682 14.2687 21.7847Z" fill="#404040"/>
</svg>
