<svg width="24" height="24" viewBox="0 0 24 24" fill="none" xmlns="http://www.w3.org/2000/svg">
<path fill-rule="evenodd" clip-rule="evenodd" d="M13.6855 20.3076C13.7827 20.3076 13.7827 20.3076 13.8799 20.4131C13.9771 20.5186 14.1715 20.6242 14.2687 20.8352C14.4631 21.2572 14.3659 21.4682 14.2687 21.7847C13.8799 23.1561 12.8107 24 11.6444 24H11.45C10.1864 24 9.11729 23.1561 8.72851 21.7847C8.53411 21.1517 8.82575 20.6241 9.21453 20.4131C9.31172 20.3076 9.40893 20.3076 9.60332 20.3076C9.99211 20.3076 10.2837 20.5187 10.4781 21.0461C10.6725 21.6791 11.0612 21.8901 11.5472 21.8901C11.936 21.8901 12.3248 21.5736 12.6164 21.0461C12.8108 20.6242 13.1023 20.3076 13.4911 20.3076H13.6855ZM12.0023 0C12.5241 0 12.9414 0.401765 12.9414 1.00439L12.9409 1.50098C12.6418 2.17304 12.4762 2.914 12.4762 3.69238C12.4762 3.8418 12.4823 3.98979 12.4943 4.13623C12.3321 4.1238 12.1679 4.11792 12.0023 4.11792C11.5849 4.11792 11.1675 4.11808 10.7501 4.21851C7.93274 4.62027 5.63712 7.03059 5.53277 9.74243C5.42842 10.3451 5.42842 10.8473 5.42842 11.45C5.32408 11.9521 5.32408 12.4543 5.32408 12.9565C5.21973 14.2622 4.9067 15.7689 4.48931 17.175L4.41941 17.375L19.5153 17.3757L19.4109 17.175C19.3066 16.7733 19.2022 16.5723 19.0979 16.271C18.7849 14.664 18.5762 12.7557 18.5762 10.6465C18.5762 10.1443 18.5762 9.74258 18.4718 9.34082L18.45 9.2251C19.1049 9.19673 19.731 9.06165 20.3104 8.83716C20.3772 9.16063 20.4245 9.49663 20.4545 9.84302C20.5588 10.3452 20.5588 10.9478 20.5588 11.45C20.5588 11.5253 20.5653 11.6007 20.5751 11.676L20.6468 12.1279L20.6632 12.354V13.2578C20.7675 14.4631 20.8718 15.4675 21.1849 16.4719C21.2892 16.8737 21.4979 17.2755 21.7066 17.6772C22.0197 18.079 22.124 18.3802 21.811 18.782C21.811 19.0833 21.4979 19.2841 21.0805 19.3845L2.97009 19.3843C2.73495 19.3811 2.2806 19.3427 2.0893 18.8823C1.8806 18.3801 2.08929 17.9785 2.19364 17.7776C2.61103 16.9741 2.81971 16.271 3.02841 15.2666C3.34145 13.9609 3.44579 12.5548 3.44579 10.6465C3.44579 9.13991 3.75888 7.73364 4.38497 6.72925C5.74148 4.21829 7.93274 2.71191 10.8545 2.20972H11.0632V1.10474C11.0632 0.401666 11.4806 0 12.0023 0ZM18.1905 0C20.2944 0 22 1.65317 22 3.69238C22 5.73158 20.2944 7.38452 18.1905 7.38452C16.0865 7.38452 14.3809 5.73158 14.3809 3.69238C14.3809 1.65317 16.0865 0 18.1905 0Z" fill="#404040"/>
</svg>
