<svg width="24" height="24" viewBox="0 0 24 24" fill="none" xmlns="http://www.w3.org/2000/svg">
<path fill-rule="evenodd" clip-rule="evenodd" d="M12 0C5.376 0 0 5.376 0 12C0 18.624 5.376 24 12 24C18.624 24 24 18.624 24 12C24 5.376 18.624 0 12 0ZM13.2 17C13.2 17.5523 12.7523 18 12.2 18H11.8C11.2477 18 10.8 17.5523 10.8 17V16.6C10.8 16.0477 11.2477 15.6 11.8 15.6H12.2C12.7523 15.6 13.2 16.0477 13.2 16.6V17ZM13.2 12.2C13.2 12.7523 12.7523 13.2 12.2 13.2H11.8C11.2477 13.2 10.8 12.7523 10.8 12.2V5.8C10.8 5.24772 11.2477 4.8 11.8 4.8H12.2C12.7523 4.8 13.2 5.24772 13.2 5.8V12.2Z" fill="#404040"/>
</svg>
