<svg width="24" height="24" viewBox="0 0 24 24" fill="none" xmlns="http://www.w3.org/2000/svg">
<g clip-path="url(#clip0_536_994)">
<path d="M18.7981 13.5645C19.5966 13.5645 20.3625 13.8941 20.927 14.4814C21.4915 15.0689 21.8084 15.8658 21.8079 16.6963V22.957C21.8077 23.5331 21.3589 23.9999 20.8049 24C20.2509 24 19.8022 23.5331 19.802 22.957V20.0879C19.802 19.9439 19.6894 19.8263 19.551 19.8262H18.0461C17.9076 19.8262 17.7952 19.9438 17.7952 20.0879V22.9541C17.7952 23.5303 17.3454 23.998 16.7913 23.998C16.2373 23.9978 15.7883 23.5302 15.7883 22.9541V16.6943C15.7883 14.9656 17.1358 13.5645 18.7981 13.5645ZM5.50415 2.86719C6.0581 2.86719 6.5078 3.33413 6.50806 3.91016V15.6504C6.50916 15.7936 6.62129 15.9092 6.75903 15.9092H8.51489L8.5188 15.9072C8.72148 15.9074 8.90409 16.0348 8.98169 16.2295C9.05923 16.4246 9.01603 16.6497 8.87231 16.7988L5.86255 19.9287C5.66667 20.1323 5.34945 20.1323 5.15356 19.9287L2.1438 16.7988C2.00328 16.6498 1.96093 16.4274 2.03735 16.2344C2.11379 16.0416 2.29387 15.9152 2.49438 15.9121H4.25024C4.38877 15.9121 4.50122 15.7945 4.50122 15.6504V3.91016C4.50147 3.33427 4.95038 2.86741 5.50415 2.86719ZM18.7981 15.6533C18.2441 15.6534 17.7953 16.1202 17.7952 16.6963V17.4785C17.7963 17.6218 17.9084 17.7373 18.0461 17.7373L19.551 17.7402C19.6894 17.7401 19.802 17.6225 19.802 17.4785V16.6963C19.8019 16.1201 19.3521 15.6533 18.7981 15.6533ZM20.4963 0C21.0438 0.000494852 21.5481 0.310131 21.8127 0.808594C22.0773 1.30691 22.0608 1.91541 21.7698 2.39746L18.4348 7.94824C18.3868 8.0286 18.3839 8.13014 18.428 8.21289C18.4721 8.29553 18.5559 8.34641 18.6467 8.34668H20.9065C21.4606 8.34668 21.9094 8.81437 21.9094 9.39062C21.9094 9.96685 21.4606 10.4336 20.9065 10.4336H17.2942C16.7474 10.4339 16.2434 10.126 15.9778 9.62891C15.7121 9.13148 15.7272 8.52277 16.0168 8.04004L19.3547 2.48633C19.4031 2.40602 19.4056 2.30465 19.3616 2.22168C19.3174 2.13861 19.2331 2.08684 19.1418 2.08691H16.884C16.3301 2.08674 15.8811 1.61911 15.8811 1.04297C15.8813 0.466979 16.3302 0.00017311 16.884 0H20.4963Z" fill="#404040"/>
</g>
<defs>
<clipPath id="clip0_536_994">
<rect width="24" height="24" fill="white"/>
</clipPath>
</defs>
</svg>
