<svg width="24" height="24" viewBox="0 0 24 24" fill="none" xmlns="http://www.w3.org/2000/svg">
<g clip-path="url(#clip0_536_993)">
<path d="M20.4964 13.8955C21.0439 13.896 21.5481 14.196 21.8128 14.6787C22.0773 15.1614 22.061 15.7509 21.7698 16.2178L18.4348 21.5928C18.3868 21.6706 18.3838 21.7695 18.428 21.8496C18.4722 21.9295 18.556 21.9792 18.6468 21.9795H20.9065C21.4606 21.9795 21.9093 22.4313 21.9095 22.9893C21.9095 23.5473 21.4606 24 20.9065 24H17.2942C16.7475 24.0003 16.2434 23.702 15.9778 23.2207C15.7122 22.739 15.7274 22.1501 16.0169 21.6826L19.3548 16.3037C19.4033 16.2259 19.4057 16.1273 19.3616 16.0469C19.3174 15.9664 19.2332 15.9169 19.1419 15.917H16.8841C16.3302 15.9168 15.8813 15.4641 15.8811 14.9062C15.8811 14.3483 16.3301 13.8957 16.8841 13.8955H20.4964ZM5.50418 2.52637C6.05829 2.52637 6.50809 2.97906 6.50809 3.53711V14.9062C6.50932 15.0449 6.6214 15.1572 6.75906 15.1572H8.51395L8.51883 15.1543C8.72163 15.1545 8.90421 15.278 8.98172 15.4668C9.05926 15.6557 9.01607 15.8732 8.87234 16.0176L5.86258 19.0488C5.66672 19.246 5.34948 19.2459 5.15359 19.0488L2.14383 16.0176C2.0034 15.8733 1.96116 15.6585 2.03738 15.4717C2.11379 15.2848 2.29379 15.1621 2.49442 15.1592H4.25027C4.38872 15.1592 4.50112 15.0456 4.50125 14.9062V3.53711C4.50125 2.97918 4.95023 2.52656 5.50418 2.52637ZM18.5471 0C19.3457 0 20.1116 0.319875 20.6761 0.888672C21.2405 1.45753 21.5574 2.22899 21.5569 3.0332V9.0957C21.5569 9.65375 21.1081 10.1064 20.554 10.1064C19.9999 10.1064 19.5511 9.65374 19.5511 9.0957V6.31738C19.5511 6.17793 19.4385 6.06455 19.3001 6.06445H17.7952C17.6567 6.06445 17.5442 6.17787 17.5442 6.31738V9.09375C17.5442 9.6518 17.0944 10.1045 16.5403 10.1045C15.9864 10.1042 15.5374 9.65164 15.5374 9.09375V3.03125C15.5374 1.3572 16.885 0.000157057 18.5471 0ZM18.5471 2.02344C17.9933 2.02359 17.5444 2.47536 17.5442 3.0332V3.79102C17.5453 3.92974 17.6574 4.042 17.7952 4.04199L19.3001 4.04395C19.4385 4.04385 19.5511 3.93046 19.5511 3.79102V3.0332C19.5509 2.47527 19.1012 2.02344 18.5471 2.02344Z" fill="#404040"/>
</g>
<defs>
<clipPath id="clip0_536_993">
<rect width="24" height="24" fill="white"/>
</clipPath>
</defs>
</svg>
