<svg width="24" height="24" viewBox="0 0 24 24" fill="none" xmlns="http://www.w3.org/2000/svg">
<g clip-path="url(#clip0_686_413)">
<path d="M17 0C18.6569 0 20 1.34315 20 3V21C20 22.6569 18.6569 24 17 24H7C5.3432 23.9999 4 22.6568 4 21V3C4 1.34319 5.3432 6.59702e-05 7 0H17ZM6.5 3C6.22391 3.00007 6 3.2239 6 3.5V19C6 19.2761 6.22391 19.4999 6.5 19.5H17.5C17.7761 19.5 18 19.2761 18 19V3.5C18 3.22386 17.7761 3 17.5 3H6.5ZM12.0547 5.23633C13.1579 5.23744 14.2175 5.67549 14.998 6.45605C15.7785 7.23661 16.2166 8.29573 16.2148 9.39941L16.2197 12.0088L16.2158 14.6201C16.2064 16.9111 14.3467 18.7634 12.0557 18.7627C9.76464 18.7619 7.90526 16.9082 7.89648 14.6172L7.90039 12.0068L7.89551 9.39648C7.89868 7.10037 9.75861 5.23965 12.0547 5.23633ZM9.74121 12.4209C9.49736 12.4205 9.30025 12.6174 9.30078 12.8613L9.30176 14.4102C9.30832 15.9577 10.5656 17.2144 12.1133 17.2207C13.6492 17.1912 14.8837 15.9568 14.9131 14.4209L14.9121 12.877C14.9121 12.7591 14.8661 12.6456 14.7832 12.5615C14.7 12.4784 14.5871 12.4318 14.4697 12.4316L12.1084 12.4258L9.74121 12.4209ZM11.8086 6.69824C11.7454 6.45372 11.4647 6.38234 11.1816 6.53809C10.0103 7.17911 9.1111 8.36923 8.90625 9.5498C8.86158 9.83108 9.0518 10.0174 9.33398 9.96777C9.61607 9.91807 9.88596 9.65108 9.94043 9.36816C10.0731 8.60588 10.6532 7.83745 11.4092 7.42285C11.692 7.26731 11.871 6.94293 11.8086 6.69824Z" fill="#404040"/>
</g>
<defs>
<clipPath id="clip0_686_413">
<rect width="24" height="24" fill="white"/>
</clipPath>
</defs>
</svg>
