<svg width="24" height="24" viewBox="0 0 24 24" fill="none" xmlns="http://www.w3.org/2000/svg">
<path d="M11.9767 6C12.5291 6.0006 13.0551 6.22863 13.4201 6.62598L21.5929 15.5264C21.9711 15.9197 22.0975 16.4784 21.923 16.9863C21.7484 17.4944 21.3003 17.8724 20.7521 17.9736C20.2038 18.0747 19.6403 17.8835 19.2814 17.4736L12.133 9.6875C12.0935 9.64441 12.0365 9.61924 11.9767 9.61914C11.9167 9.61914 11.859 9.64426 11.8195 9.6875L4.67105 17.4736C4.10441 18.0625 3.15036 18.11 2.52261 17.5811C1.89486 17.052 1.8231 16.14 2.3605 15.5264L10.5353 6.62305C10.8997 6.22657 11.4253 5.99935 11.9767 6Z" fill="#404040"/>
</svg>
