<svg width="24" height="24" viewBox="0 0 24 24" fill="none" xmlns="http://www.w3.org/2000/svg">
<path d="M15.5264 2.3606C16.14 1.82319 17.052 1.89496 17.5811 2.52271C18.11 3.15046 18.0625 4.1045 17.4736 4.67114L9.6875 11.8196C9.64426 11.8591 9.61914 11.9168 9.61914 11.9768C9.61924 12.0366 9.64441 12.0936 9.6875 12.1331L17.4736 19.2815C17.8835 19.6404 18.0747 20.2038 17.9736 20.7522C17.8724 21.3004 17.4944 21.7485 16.9863 21.9231C16.4784 22.0975 15.9197 21.9712 15.5264 21.593L6.62598 13.4202C6.22863 13.0552 6.0006 12.5292 6 11.9768C5.99935 11.4254 6.22657 10.8998 6.62305 10.5354L15.5264 2.3606Z" fill="#404040"/>
</svg>
