<svg width="24" height="24" viewBox="0 0 24 24" fill="none" xmlns="http://www.w3.org/2000/svg">
<path d="M20.7521 6.02612C21.3003 6.1273 21.7484 6.50539 21.923 7.01343C22.0976 7.52158 21.9714 8.08099 21.5929 8.47437L13.4201 17.3738C13.0551 17.7711 12.5291 17.9992 11.9767 17.9998C11.4254 18.0004 10.8997 17.7741 10.5353 17.3777L2.3605 8.47437C1.82309 7.86075 1.89483 6.94772 2.52261 6.4187C3.1504 5.88973 4.10444 5.93812 4.67105 6.5271L11.8195 14.3123C11.859 14.3555 11.9167 14.3806 11.9767 14.3806C12.0366 14.3805 12.0935 14.3554 12.133 14.3123L19.2814 6.5271C19.6403 6.11727 20.2038 5.92506 20.7521 6.02612Z" fill="#404040"/>
</svg>
