<svg width="24" height="24" viewBox="0 0 24 24" fill="none" xmlns="http://www.w3.org/2000/svg">
<path d="M6.3692 2.52441C6.90051 1.89514 7.81642 1.82264 8.43268 2.36133L17.3712 10.5537C17.7703 10.9196 17.9995 11.4462 18.0001 12C18.0007 12.5526 17.7731 13.0791 17.3751 13.4443L8.43268 21.6387C7.81653 22.1773 6.90055 22.1055 6.3692 21.4766C5.8379 20.8473 5.88606 19.8912 6.4776 19.3232L14.2969 12.1572C14.3402 12.1176 14.3643 12.0601 14.3643 12C14.3643 11.9399 14.3403 11.8824 14.2969 11.8428L6.4776 4.67773C5.8861 4.1098 5.83801 3.15369 6.3692 2.52441Z" fill="#404040"/>
</svg>
