<svg width="24" height="24" viewBox="0 0 24 24" fill="none" xmlns="http://www.w3.org/2000/svg">
<g clip-path="url(#clip0_93_1067)">
<path d="M17 0.5C17.5304 0.5 18.039 0.710865 18.4141 1.08594C18.7891 1.46101 19 1.96957 19 2.5V7H21C21.7956 7 22.5585 7.3163 23.1211 7.87891C23.6837 8.44152 24 9.20435 24 10V20C24 20.9283 23.631 21.8182 22.9746 22.4746C22.3182 23.131 21.4283 23.5 20.5 23.5H3.5C2.57174 23.5 1.68177 23.131 1.02539 22.4746C0.369014 21.8182 0 20.9283 0 20V2.5C0 1.96957 0.210865 1.46101 0.585938 1.08594C0.96101 0.710865 1.46957 0.5 2 0.5H17ZM2.5 2.5C2.36739 2.5 2.24025 2.55272 2.14648 2.64648C2.05272 2.74025 2 2.86739 2 3V20C2 20.3978 2.15815 20.7792 2.43945 21.0605C2.72076 21.3419 3.10218 21.5 3.5 21.5H16.6299C16.7051 21.5004 16.78 21.4831 16.8477 21.4502C16.9151 21.4173 16.9736 21.3689 17.0195 21.3096C17.0678 21.2483 17.1016 21.177 17.1172 21.1006C17.1328 21.0243 17.1306 20.9453 17.1104 20.8701C17.0375 20.5859 17.0002 20.2935 17 20V3C17 2.86739 16.9473 2.74025 16.8535 2.64648C16.7597 2.55272 16.6326 2.5 16.5 2.5H2.5ZM19.5 9C19.3674 9 19.2403 9.05272 19.1465 9.14648C19.0527 9.24025 19 9.36739 19 9.5V20C19 20.3978 19.1581 20.7792 19.4395 21.0605C19.7208 21.3419 20.1022 21.5 20.5 21.5C20.8978 21.5 21.2792 21.3419 21.5605 21.0605C21.8419 20.7792 22 20.3978 22 20V10C22 9.73478 21.8946 9.4805 21.707 9.29297C21.5195 9.10543 21.2652 9 21 9H19.5ZM12.25 18.0498C12.25 18.0498 12.9999 18.05 13 18.7998V19.2998C13 19.2998 13 20.0498 12.25 20.0498H4.75C4.74994 20.0498 4 20.0498 4 19.2998V18.7998C4.00006 18.7865 4.00679 18.0498 4.75 18.0498H12.25ZM14.75 14.0498C14.75 14.0498 15.4999 14.05 15.5 14.7998V15.2998C15.5 15.2998 15.5 16.0498 14.75 16.0498H4.75C4.74994 16.0498 4 16.0498 4 15.2998V14.7998C4.00006 14.7865 4.00679 14.0498 4.75 14.0498H14.75ZM14.75 10.0498C14.75 10.0498 15.4999 10.05 15.5 10.7998V11.2998C15.5 11.2998 15.5 12.0498 14.75 12.0498H12.75C12.7499 12.0498 12 12.0498 12 11.2998V10.7998C12.0001 10.7865 12.0068 10.0498 12.75 10.0498H14.75ZM8.75 4.5C8.75 4.5 10 4.5 10 5.75V10.5C10 10.5 10 11.75 8.75 11.75H5.5C5.5 11.75 4.25 11.75 4.25 10.5V5.75C4.25 5.75 4.25 4.5 5.5 4.5H8.75ZM14.75 6.0498C14.75 6.0498 15.4999 6.04999 15.5 6.7998V7.2998C15.5 7.2998 15.5 8.0498 14.75 8.0498H12.75C12.7499 8.0498 12 8.04977 12 7.2998V6.7998C12.0001 6.78648 12.0068 6.0498 12.75 6.0498H14.75Z" fill="#404040"/>
</g>
<defs>
<clipPath id="clip0_93_1067">
<rect width="24" height="24" fill="white"/>
</clipPath>
</defs>
</svg>
