<svg width="24" height="24" viewBox="0 0 24 24" fill="none" xmlns="http://www.w3.org/2000/svg">
<g clip-path="url(#clip0_455_205)">
<path fill-rule="evenodd" clip-rule="evenodd" d="M0.488542 5.25H10.9173C10.9881 5.25026 11.0561 5.22407 11.1062 5.17713C11.1563 5.13018 11.1843 5.06639 11.184 5L11.1083 0.245974C11.1059 0.109474 10.9872 2.17212e-06 10.8416 2.17212e-06H4.16322C3.10565 0.0285822 2.15852 0.621303 1.7248 1.526L0.471452 4.19995C0.372637 4.44152 0.291388 4.68918 0.228255 4.94104C0.209445 5.01581 0.227885 5.09454 0.278385 5.15503C0.329156 5.21527 0.406654 5.25025 0.488542 5.25ZM13.0507 5.25H23.5115C23.5945 5.25117 23.6733 5.21611 23.7248 5.15503C23.7753 5.09454 23.7937 5.01581 23.7749 4.94104C23.7118 4.68918 23.6306 4.44152 23.5317 4.19995C23.5189 4.17095 23.5051 4.14299 23.4901 4.11499L22.0832 1.55603C21.6541 0.637102 20.6994 0.0315522 19.6299 2.17212e-06H12.976C12.9044 -0.000277828 12.8358 0.026523 12.7856 0.074343C12.7354 0.122153 12.7079 0.18696 12.7093 0.25403L12.784 5C12.7846 5.13785 12.9036 5.24943 13.0507 5.25ZM0 7V22C0 23.1046 0.955126 24 2.13333 24H21.8667C23.0449 24 24 23.1046 24 22V7C24 6.86193 23.8806 6.75 23.7333 6.75H0.266667C0.119391 6.75 0 6.86193 0 7ZM6.27201 14.9139L11.6053 9.41394C11.7201 9.32526 11.859 9.26851 12.0064 9.25C12.159 9.2518 12.3034 9.31476 12.4032 9.42298L17.4699 14.923C17.6063 15.071 17.6382 15.28 17.5515 15.4579C17.4647 15.6358 17.2753 15.7499 17.0667 15.75H15.2C15.0527 15.75 14.9333 15.8619 14.9333 16V20.75C14.9333 21.0262 14.6946 21.25 14.4 21.25H9.33333C9.03878 21.25 8.8 21.0262 8.8 20.75V16C8.8 15.8619 8.68061 15.75 8.53333 15.75H6.66667C6.45571 15.7499 6.26464 15.6333 6.17926 15.4524C6.09388 15.2715 6.13024 15.0604 6.27201 14.9139Z" fill="#D52B1E"/>
</g>
<defs>
<clipPath id="clip0_455_205">
<rect width="24" height="24" fill="white"/>
</clipPath>
</defs>
</svg>
