<svg width="24" height="24" viewBox="0 0 24 24" fill="none" xmlns="http://www.w3.org/2000/svg">
<g clip-path="url(#clip0_93_1073)">
<path d="M17.5 0C17.7652 0 18.0195 0.105433 18.207 0.292969C18.3946 0.480505 18.5 0.734784 18.5 1V2.75C18.5 2.8163 18.5264 2.87987 18.5732 2.92676C18.6201 2.97364 18.6837 3 18.75 3H21.5C22.0304 3 22.539 3.21086 22.9141 3.58594C23.2891 3.96101 23.5 4.46957 23.5 5V22C23.5 22.5304 23.2891 23.039 22.9141 23.4141C22.539 23.7891 22.0304 24 21.5 24H2.5C1.96957 24 1.46101 23.7891 1.08594 23.4141C0.710865 23.039 0.5 22.5304 0.5 22V5C0.5 4.46957 0.710865 3.96101 1.08594 3.58594C1.46101 3.21086 1.96957 3 2.5 3H4C4.13261 3 4.25975 3.05272 4.35352 3.14648C4.44728 3.24025 4.5 3.36739 4.5 3.5V5.75C4.5 5.94891 4.57907 6.13962 4.71973 6.28027C4.86038 6.42093 5.05109 6.5 5.25 6.5C5.44891 6.5 5.63962 6.42093 5.78027 6.28027C5.92093 6.13962 6 5.94891 6 5.75V1C6 0.734784 6.10543 0.480505 6.29297 0.292969C6.4805 0.105432 6.73478 0 7 0C7.26522 0 7.5195 0.105432 7.70703 0.292969C7.89457 0.480505 8 0.734784 8 1V2.75C8 2.8163 8.02636 2.87987 8.07324 2.92676C8.12013 2.97364 8.1837 3 8.25 3H14.5C14.6326 3 14.7597 3.05272 14.8535 3.14648C14.9473 3.24025 15 3.36739 15 3.5V5.75C15 5.94891 15.0791 6.13962 15.2197 6.28027C15.3604 6.42093 15.5511 6.5 15.75 6.5C15.9489 6.5 16.1396 6.42093 16.2803 6.28027C16.4209 6.13962 16.5 5.94891 16.5 5.75V1C16.5 0.734784 16.6054 0.480505 16.793 0.292969C16.9805 0.105433 17.2348 0 17.5 0ZM3 9C2.86739 9 2.74025 9.05272 2.64648 9.14648C2.55272 9.24025 2.5 9.36739 2.5 9.5V21.5C2.5 21.6326 2.55272 21.7597 2.64648 21.8535C2.74025 21.9473 2.86739 22 3 22H21C21.1326 22 21.2597 21.9473 21.3535 21.8535C21.4473 21.7597 21.5 21.6326 21.5 21.5V9.5C21.5 9.36739 21.4473 9.24025 21.3535 9.14648C21.2597 9.05272 21.1326 9 21 9H3Z" fill="#404040"/>
</g>
<defs>
<clipPath id="clip0_93_1073">
<rect width="24" height="24" fill="white"/>
</clipPath>
</defs>
</svg>
