<svg width="24" height="24" viewBox="0 0 24 24" fill="none" xmlns="http://www.w3.org/2000/svg">
<path d="M1.99907 5.58887C2.60707 4.98753 3.58638 4.98753 4.19438 5.58887L6.85258 8.33105C7.45207 8.933 7.45203 9.90681 6.85258 10.5088L6.74614 10.627C6.25304 11.2375 6.28879 12.1334 6.85258 12.7031L11.294 17.1426C11.902 17.7439 12.8803 17.7439 13.4883 17.1426L13.6055 17.0381C14.2107 16.5465 15.1015 16.581 15.6661 17.1426L18.4268 19.7998C19.0283 20.4076 19.0283 21.3863 18.4268 21.9941L17.7754 22.6455C16.2344 24.1847 13.8287 24.4416 11.9971 23.2627C7.55016 20.2701 3.72393 16.4457 0.730515 12C-0.439442 10.1728 -0.182805 7.77829 1.3477 6.24023L1.99907 5.58887ZM11.1397 4.71484C15.6379 4.71507 19.2842 8.36037 19.2842 12.8574C19.2749 13.5635 18.7044 14.1333 17.9981 14.1426C17.2919 14.1332 16.7213 13.5634 16.712 12.8574C16.7025 9.78444 14.2135 7.29577 11.1397 7.28613C10.4294 7.28613 9.85356 6.71008 9.85356 6C9.85356 5.28992 10.4294 4.71484 11.1397 4.71484ZM11.5684 0C18.4303 0.00967579 23.9906 5.56864 24 12.4287C23.9907 13.1349 23.4203 13.7056 22.7139 13.7148C22.0076 13.7056 21.4371 13.1349 21.4278 12.4287C21.4183 6.9888 17.0098 2.58095 11.5684 2.57129C10.8621 2.56206 10.2917 1.99218 10.2823 1.28613C10.2915 0.579913 10.862 0.00923 11.5684 0Z" fill="#404040"/>
</svg>
