<svg width="24" height="24" viewBox="0 0 24 24" fill="none" xmlns="http://www.w3.org/2000/svg">
<path d="M14.8115 3C15.1718 2.99971 15.5232 3.10753 15.8154 3.30859C16.1078 3.50982 16.3269 3.79455 16.4404 4.12109L16.9033 5.4541H21.4287C22.1106 5.45414 22.7649 5.71354 23.2471 6.17383C23.7291 6.63412 24 7.25833 24 7.90918V18.5459C23.9999 19.1967 23.7292 19.821 23.2471 20.2812C22.7649 20.7415 22.1106 21 21.4287 21H2.57129C1.88935 21 1.23513 20.7415 0.75293 20.2812C0.270823 19.821 0.000123068 19.1967 0 18.5459V7.90918C0 7.25833 0.27088 6.63412 0.75293 6.17383C1.23513 5.71354 1.88935 5.45414 2.57129 5.4541H7.09668L7.55957 4.12109C7.67311 3.79455 7.8922 3.50982 8.18457 3.30859C8.47684 3.10753 8.82821 2.99971 9.18848 3H14.8115ZM13.9678 8.2832C13.0282 7.91172 11.9946 7.81457 10.9971 8.00391C9.99947 8.19332 9.08252 8.66015 8.36328 9.34668C7.64407 10.0332 7.15451 10.9081 6.95605 11.8604C6.75762 12.8126 6.85977 13.8002 7.24902 14.6973C7.6383 15.5941 8.29701 16.3611 9.14258 16.9004C9.9883 17.4398 10.9829 17.7275 12 17.7275C13.364 17.7275 14.6722 17.2097 15.6367 16.2891C16.601 15.3685 17.1425 14.1201 17.1426 12.8184C17.1426 11.8475 16.8414 10.8981 16.2764 10.0908C15.7113 9.28352 14.9075 8.65476 13.9678 8.2832ZM12 9.5459C12.9093 9.5459 13.7818 9.89015 14.4248 10.5039C15.0677 11.1176 15.4287 11.9505 15.4287 12.8184C15.4287 13.4656 15.2273 14.0986 14.8506 14.6367C14.4739 15.1747 13.9387 15.5941 13.3125 15.8418C12.686 16.0895 11.9961 16.1546 11.3311 16.0283C10.666 15.902 10.0547 15.5905 9.5752 15.1328C9.09581 14.6752 8.77005 14.0917 8.6377 13.457C8.5054 12.8222 8.57253 12.1634 8.83203 11.5654C9.09151 10.9675 9.53103 10.4563 10.0947 10.0967C10.6586 9.73707 11.3219 9.5459 12 9.5459ZM19.0352 8.75098C18.7858 8.79832 18.5567 8.91533 18.377 9.08691C18.1972 9.2585 18.0741 9.47686 18.0244 9.71484C17.9748 9.95277 18.0005 10.1997 18.0977 10.4238C18.1949 10.648 18.36 10.8398 18.5713 10.9746C18.7827 11.1095 19.0318 11.1816 19.2861 11.1816C19.627 11.1815 19.9543 11.0523 20.1953 10.8223C20.4362 10.5921 20.5713 10.2795 20.5713 9.9541C20.5712 9.71152 20.4957 9.47416 20.3545 9.27246C20.2132 9.07077 20.0122 8.91316 19.7773 8.82031C19.5426 8.72761 19.2843 8.70371 19.0352 8.75098Z" fill="#404040"/>
</svg>
