<svg width="24" height="24" viewBox="0 0 24 24" fill="none" xmlns="http://www.w3.org/2000/svg">
<path d="M12 0C18.6156 0 23.9999 4.7733 24 10.6611C24 16.549 18.6157 21.334 12 21.334C10.6546 21.3381 9.31574 21.1329 8.02441 20.7256L1.60742 23.9453C1.5097 23.9954 1.39953 24.0114 1.29297 23.9912C1.18642 23.971 1.0878 23.916 1.01172 23.833C0.935252 23.7506 0.885026 23.6435 0.868164 23.5283C0.85138 23.4132 0.8688 23.2952 0.917969 23.1914L3.31836 18.0234C2.29935 17.1333 1.47375 16.0124 0.900391 14.7402C0.32709 13.4681 0.0196122 12.0755 0 10.6611C5.96127e-05 4.78455 5.38438 0 12 0Z" fill="#404040"/>
</svg>
