<svg width="24" height="24" viewBox="0 0 24 24" fill="none" xmlns="http://www.w3.org/2000/svg">
<g clip-path="url(#clip0_686_463)">
<path d="M12 0C18.6244 0.00716 23.9928 5.37555 24 12C24 18.6274 18.6274 24 12 24C5.37258 24 0 18.6274 0 12C0 5.37258 5.37258 0 12 0ZM12 2C6.47715 2 2 6.47715 2 12C2 17.5229 6.47715 22 12 22C17.5203 21.9939 21.9939 17.5203 22 12C22 6.47715 17.5228 2 12 2ZM17.5518 6.21973C17.8794 6.17007 18.2137 6.25261 18.4805 6.44922C18.7478 6.64525 18.9261 6.93989 18.9766 7.26758C19.0269 7.59533 18.9452 7.92994 18.749 8.19727L12.0488 17.2842C11.845 17.5548 11.541 17.7321 11.2051 17.7764C10.869 17.8206 10.5287 17.7283 10.2617 17.5195L5.47949 13.6934C4.95731 13.2569 4.87945 12.4825 5.30469 11.9512C5.72996 11.42 6.50181 11.3264 7.04199 11.7402L10.8086 14.7539L16.7334 6.71387C16.9298 6.44711 17.2242 6.26941 17.5518 6.21973Z" fill="#404040"/>
</g>
<defs>
<clipPath id="clip0_686_463">
<rect width="24" height="24" fill="white"/>
</clipPath>
</defs>
</svg>
