<svg width="24" height="24" viewBox="0 0 24 24" fill="none" xmlns="http://www.w3.org/2000/svg">
<path fill-rule="evenodd" clip-rule="evenodd" d="M13.5277 0.587116C16.3584 -0.606103 19.6168 0.0532197 21.7833 2.25766C23.9499 4.46209 24.5979 7.77743 23.4252 10.6576C22.2524 13.5377 19.49 15.4155 16.426 15.4151C12.2448 15.4106 8.8564 11.963 8.85199 7.70873C8.85159 4.59119 10.697 1.78035 13.5277 0.587116ZM16.426 2.03211C13.3472 2.03603 10.8531 4.57612 10.852 7.70873C10.852 10.0031 12.2104 12.0715 14.2938 12.9494C16.3771 13.8273 18.7751 13.3418 20.3694 11.7193C21.9638 10.0968 22.4405 7.65676 21.5773 5.53715C20.7141 3.41752 18.681 2.03592 16.426 2.03633V2.03211ZM16.375 3.17379C16.7892 3.17379 17.125 3.51545 17.125 3.9369V4.15972C17.125 4.30021 17.2369 4.41409 17.375 4.41409H18C18.4142 4.41409 18.75 4.75575 18.75 5.1772C18.75 5.59865 18.4142 5.94031 18 5.94031H15.501C15.5014 5.99259 15.5206 6.04282 15.555 6.08166C15.9416 6.43013 16.356 6.74531 16.794 7.02387C17.8 7.71169 18.75 8.36295 18.75 9.31022C18.7846 9.74156 18.6311 10.1665 18.3304 10.4725C18.0296 10.7785 17.6119 10.9347 17.188 10.8995C17.1532 10.8995 17.125 10.9282 17.125 10.9636V11.3767C17.125 11.7982 16.7892 12.1398 16.375 12.1398C15.9608 12.1398 15.625 11.7982 15.625 11.3767V11.1539C15.625 11.0134 15.5131 10.8995 15.375 10.8995H14.75C14.3358 10.8995 14 10.5579 14 10.1364C14 9.71498 14.3358 9.37332 14.75 9.37332H17.188L17.248 9.3681C17.25 9.32107 17.2347 9.27502 17.205 9.23893C16.8165 8.88535 16.3986 8.56667 15.956 8.28653C14.95 7.5977 14 6.94668 14 6.00043C13.9538 5.56638 14.1036 5.13423 14.4072 4.82571C14.7108 4.5172 15.1355 4.36555 15.562 4.4131C15.5964 4.4131 15.6245 4.38501 15.625 4.35V3.9369C15.625 3.51545 15.9608 3.17379 16.375 3.17379ZM20.005 17.9568H19.995L16.474 19.1452C16.4051 19.1689 16.3494 19.2214 16.321 19.2895C16.0022 20.0239 15.289 20.4991 14.5 20.5025H10.5C10.2239 20.5025 10 20.2747 10 19.9938C10 19.7128 10.2239 19.485 10.5 19.485H14.5C15.0523 19.485 15.5 19.0295 15.5 18.4675C15.5 17.9056 15.0523 17.4501 14.5 17.4501H11C9.85163 16.5367 8.45544 16.004 7 15.9238H4.94397C4.32326 15.9235 3.71108 16.0704 3.15601 16.3531L0.138 17.8885C0.0537385 17.9317 0.000423 18.0195 0 18.1155V23.6098C0 23.7022 0.0493613 23.7873 0.129028 23.8317C0.208167 23.8766 0.305064 23.8742 0.382019 23.8255L3.59998 21.7714C3.85669 21.6099 4.1706 21.5725 4.45697 21.6695C14.423 25.0862 11.085 25.1015 22.323 19.3171C22.4797 19.2353 22.5848 19.0779 22.602 18.8995C22.6192 18.7211 22.5461 18.5462 22.408 18.435C21.7456 17.8563 20.8329 17.6747 20.005 17.9568Z" fill="#404040"/>
</svg>
