<svg width="24" height="24" viewBox="0 0 24 24" fill="none" xmlns="http://www.w3.org/2000/svg">
<g clip-path="url(#clip0_684_416)">
<path d="M11.6542 4.69165C11.8476 4.5036 12.1522 4.5036 12.3456 4.69165L20.3554 12.4905C20.4543 12.5866 20.5104 12.7203 20.5107 12.8596V22.9788C20.5107 23.5428 20.0626 24.0002 19.5097 24.0002H4.49017C3.93729 24.0001 3.4892 23.5427 3.4892 22.9788V12.8596C3.48945 12.7203 3.5456 12.5866 3.64447 12.4905L11.6542 4.69165ZM10.8876 10.7229C10.5802 10.7229 10.331 10.9776 10.331 11.2913V13.6174C10.331 13.8995 10.1065 14.1282 9.83002 14.1282H7.55072C7.40316 14.1279 7.2616 14.1879 7.15717 14.2942C7.0528 14.4005 6.99415 14.5442 6.99408 14.6946V16.9641C6.99408 17.2777 7.24326 17.5325 7.55072 17.5325H9.83002C10.1065 17.5325 10.331 17.7612 10.331 18.0432V20.3743C10.331 20.5248 10.3896 20.6693 10.4941 20.7756C10.5985 20.8819 10.7401 20.9419 10.8876 20.9417H13.1122C13.2597 20.9419 13.4014 20.8818 13.5058 20.7756C13.6102 20.6693 13.6689 20.5248 13.6689 20.3743V18.0432C13.6689 17.7612 13.8934 17.5325 14.1699 17.5325H16.4501C16.7574 17.5322 17.0068 17.2776 17.0068 16.9641V14.6946C17.0067 14.5444 16.9478 14.4004 16.8437 14.2942C16.7394 14.188 16.5975 14.128 16.4501 14.1282H14.1699C13.8934 14.1282 13.6689 13.8995 13.6689 13.6174V11.2913C13.6689 11.1406 13.6102 10.9954 13.5058 10.8889C13.4014 10.7826 13.2598 10.7229 13.1122 10.7229H10.8876ZM11.3095 0.282471C11.6963 -0.0936393 12.3046 -0.0936393 12.6913 0.282471L23.705 11.0061C24.091 11.398 24.0993 12.0328 23.7236 12.4348C23.3476 12.8369 22.7253 12.8585 22.3232 12.4836L12.3456 2.76978C12.1522 2.58176 11.8476 2.58174 11.6542 2.76978L1.6767 12.4836C1.27463 12.8585 0.652239 12.8369 0.276306 12.4348C-0.099376 12.0328 -0.091032 11.398 0.294861 11.0061L11.3095 0.282471Z" fill="#404040"/>
</g>
<defs>
<clipPath id="clip0_684_416">
<rect width="24" height="24" fill="white"/>
</clipPath>
</defs>
</svg>
