<svg width="24" height="24" viewBox="0 0 24 24" fill="none" xmlns="http://www.w3.org/2000/svg">
<g clip-path="url(#clip0_93_1068)">
<path d="M12 0.000976562C18.6242 0.00881656 23.9924 5.37677 24 12.001C24 18.6281 18.6274 24.001 12 24.001C5.37268 24.001 0.000131945 18.6283 0 12.001C0 5.37363 5.37267 0.00106728 12 0.000976562ZM12 2.00098C6.47716 2.00098 2 6.47815 2 12.001C2.00013 17.5237 6.47725 22.001 12 22.001C17.5203 21.9948 21.9938 17.5212 22 12.001L21.9961 11.7207C21.8477 6.32742 17.4291 2.00099 12 2.00098ZM11.5 5.50098C12.0523 5.50099 12.5 5.9487 12.5 6.50098V11.5615L17.1338 15.8105C17.5404 16.1834 17.5686 16.8155 17.1963 17.2227L17.1045 17.3086C16.7245 17.6259 16.1607 17.6234 15.7832 17.2842L10.8242 12.7393C10.6175 12.5497 10.4998 12.2814 10.5 12.001V6.50098C10.5 5.94869 10.9477 5.50098 11.5 5.50098Z" fill="#404040"/>
</g>
<defs>
<clipPath id="clip0_93_1068">
<rect width="24" height="24" fill="white"/>
</clipPath>
</defs>
</svg>
