<svg width="24" height="24" viewBox="0 0 24 24" fill="none" xmlns="http://www.w3.org/2000/svg">
<g clip-path="url(#clip0_295_955)">
<path d="M12 0C15.1826 0 18.2349 1.26423 20.4854 3.51465C22.7358 5.76507 24 8.81742 24 12C24 15.1826 22.7358 18.2349 20.4854 20.4854C18.2349 22.7358 15.1826 24 12 24C8.8174 24 5.76509 22.7358 3.51465 20.4854C1.26423 18.2349 0 15.1826 0 12C1.7178e-05 8.81743 1.26423 5.76507 3.51465 3.51465C5.76508 1.26423 8.81742 3.35472e-08 12 0ZM12 2.12207C9.38009 2.12207 6.86721 3.1621 5.01465 5.01465C3.16209 6.8672 2.12111 9.38009 2.12109 12C2.12109 14.6199 3.1621 17.1328 5.01465 18.9854C6.86722 20.8379 9.38007 21.8789 12 21.8789C14.6199 21.8789 17.1328 20.8379 18.9854 18.9854C20.8379 17.1328 21.8789 14.6199 21.8789 12C21.8789 9.3801 20.8379 6.8672 18.9854 5.01465C17.1328 3.1621 14.6199 2.12207 12 2.12207ZM15.668 6.91699C16.0584 6.52666 16.6915 6.52692 17.082 6.91699C17.4725 7.3075 17.4725 7.94053 17.082 8.33105L13.4131 11.999L17.082 15.668C17.4725 16.0585 17.4725 16.6915 17.082 17.082C16.6915 17.4725 16.0585 17.4725 15.668 17.082L11.999 13.4131L8.33105 17.082C7.94053 17.4725 7.3075 17.4725 6.91699 17.082C6.52692 16.6915 6.52666 16.0584 6.91699 15.668L10.585 11.999L6.91699 8.33105C6.52672 7.94053 6.52659 7.30744 6.91699 6.91699C7.30744 6.52659 7.94053 6.52672 8.33105 6.91699L11.999 10.585L15.668 6.91699Z" fill="#404040"/>
</g>
<defs>
<clipPath id="clip0_295_955">
<rect width="24" height="24" fill="white"/>
</clipPath>
</defs>
</svg>
