<svg width="24" height="24" viewBox="0 0 24 24" fill="none" xmlns="http://www.w3.org/2000/svg">
<g clip-path="url(#clip0_155_943)">
<path d="M12.3047 0.00390625C18.7882 0.172366 23.9929 5.47746 24 12C23.9999 18.6275 18.6274 24 12 24C5.37258 24 0 18.6274 0 12C0 5.37291 5.37205 0.000527746 11.999 0L12.3047 0.00390625ZM17.0527 6.62109C16.7093 6.42191 16.2615 6.46947 15.9678 6.76367L12 10.7305L8.03125 6.7627L7.94629 6.68848C7.59463 6.41501 7.086 6.43953 6.7627 6.7627L6.68848 6.84766L6.62109 6.94727C6.42182 7.29036 6.46896 7.73736 6.7627 8.03125L10.7314 12L6.7627 15.9697L6.68457 16.0586C6.51705 16.2779 6.45766 16.5652 6.53027 16.8359C6.61333 17.1453 6.85564 17.3869 7.16504 17.4697L7.28125 17.4922L7.39941 17.5C7.63328 17.4993 7.8615 17.4071 8.03125 17.2373L12 13.2686L15.9688 17.2373L16.0527 17.3115C16.4044 17.5851 16.913 17.5605 17.2363 17.2373L17.3115 17.1533L17.3779 17.0537C17.5773 16.7106 17.5301 16.2637 17.2363 15.9697L13.2686 12.001L17.2373 8.03125L17.3125 7.94629C17.5856 7.59426 17.5604 7.08578 17.2373 6.7627L17.1523 6.6875L17.0527 6.62109Z" fill="#404040"/>
</g>
<defs>
<clipPath id="clip0_155_943">
<rect width="24" height="24" fill="white"/>
</clipPath>
</defs>
</svg>
