<svg width="24" height="24" viewBox="0 0 24 24" fill="none" xmlns="http://www.w3.org/2000/svg">
<g clip-path="url(#clip0_114_1152)">
<path fill-rule="evenodd" clip-rule="evenodd" d="M14.299 12.1768C14.2519 12.1299 14.2255 12.0663 14.2255 11.9999C14.2255 11.9335 14.2519 11.8699 14.299 11.8229L23.5612 2.56123C24.1468 1.97472 24.1462 1.02451 23.5597 0.438833C22.9732 -0.146834 22.023 -0.146209 21.4374 0.440298L12.1762 9.69795C12.1293 9.74496 12.0656 9.77135 11.9992 9.77135C11.9327 9.77135 11.8691 9.74496 11.8222 9.69795L2.56093 0.440298C1.97528 -0.145662 1.02551 -0.145857 0.439588 0.43981C-0.146339 1.02549 -0.14655 1.97528 0.4391 2.56123L9.69935 11.8229C9.74637 11.8699 9.77276 11.9335 9.77276 11.9999C9.77276 12.0663 9.74637 12.1299 9.69935 12.1768L0.4391 21.4395C0.0602503 21.8185 -0.0875811 22.3709 0.0512416 22.8885C0.190064 23.4062 0.594442 23.8103 1.11211 23.9489C1.62978 24.0875 2.18208 23.9395 2.56093 23.5604L11.8222 14.2977C11.8691 14.2507 11.9327 14.2243 11.9992 14.2243C12.0656 14.2243 12.1293 14.2507 12.1762 14.2977L21.4374 23.5604C22.023 24.1464 22.9727 24.1466 23.5586 23.5609C24.1446 22.9752 24.1448 22.0254 23.5591 21.4395L14.299 12.1768Z" fill="#404040"/>
</g>
<defs>
<clipPath id="clip0_114_1152">
<rect width="24" height="24" fill="white"/>
</clipPath>
</defs>
</svg>
