<svg width="24" height="24" viewBox="0 0 24 24" fill="none" xmlns="http://www.w3.org/2000/svg">
<path d="M10.6832 14.7961C10.6832 14.7961 7.75138 13.4353 5.80247 15.1479L3.9375 16.4738L6.5041 20.4844L7.68572 19.6443L14.9346 20.2435C15.5068 20.2908 16.0761 20.1202 16.5392 19.7628L22.4912 15.1681C22.737 14.9784 22.7549 14.5984 22.5282 14.384C21.9225 13.8112 21.0257 13.7436 20.3488 14.2196L15.8213 17.4035L11.056 17.4664L14.8485 15.916C15.3633 15.7055 15.6274 15.103 15.4458 14.5534C15.2714 14.0254 14.7435 13.7248 14.2289 13.8607L10.6832 14.7961Z" fill="#FAE9E8"/>
<path d="M1.125 17.6719L3.35873 16.122L6.54466 20.9836L4.31092 22.5335L1.125 17.6719Z" fill="#D52B1E"/>
<path d="M22.9745 14.149C22.2344 13.4661 21.1396 13.3855 20.3126 13.953L15.7444 17.0874L12.8587 17.1245L14.9758 16.2801C15.6819 15.9984 16.0399 15.2017 15.7908 14.4662C15.5512 13.7585 14.8374 13.362 14.1304 13.544L10.5964 14.4538C10.0039 14.2129 7.28668 13.247 5.34643 14.8948L3.72992 16.016L3.64749 15.8903C3.54683 15.7302 3.32006 15.6848 3.16842 15.7946L0.902168 17.3665C0.744169 17.4761 0.702463 17.6967 0.808995 17.8592L3.99682 22.7191C4.09763 22.8791 4.32381 22.9246 4.47589 22.8148L6.74219 21.2429C6.90019 21.1333 6.9419 20.9127 6.83537 20.7503L6.75383 20.6259L7.58232 20.0513L14.9125 20.6424C15.5824 20.6967 16.2502 20.5013 16.7925 20.0929L22.91 15.4856C23.3345 15.1828 23.3678 14.4936 22.9745 14.149ZM4.37606 22.028L1.57419 17.7564L3.2683 16.5814L6.07017 20.853L4.37606 22.028ZM22.5022 14.9131L16.3848 19.5204C15.9756 19.8285 15.4721 19.9756 14.9664 19.9349L7.51616 19.3341C7.43847 19.3278 7.36093 19.3488 7.29625 19.3937L6.36783 20.0376L4.11587 16.6044L5.74653 15.4733C5.75619 15.4666 5.76561 15.4594 5.77453 15.4517C7.58592 13.8988 10.4016 15.138 10.4312 15.1513C10.5012 15.1829 10.5795 15.1898 10.6538 15.1707L14.298 14.2325C14.6559 14.1403 15.0176 14.3412 15.1391 14.6997C15.2652 15.0722 15.0839 15.4758 14.7262 15.6184L10.8284 17.1731C10.6727 17.2352 10.5827 17.4029 10.6144 17.5714C10.6458 17.7384 10.788 17.8588 10.9531 17.8588H10.9575L15.8552 17.7958C15.9219 17.7949 15.9869 17.7741 16.0424 17.7361L20.6957 14.5434C21.2605 14.1558 22.008 14.2109 22.5136 14.6773C22.5867 14.7683 22.5837 14.8299 22.5022 14.9131Z" fill="black"/>
<path d="M14.6105 9.92372C14.1838 10.2655 12.7969 11.364 12.5005 11.6203C12.2042 11.8766 11.7537 11.8766 11.4574 11.6203C11.2796 11.4738 9.60816 10.0946 9.38294 9.91152C7.91305 8.71539 7.16625 7.95866 6.5617 7.03105C6.04013 6.15227 5.83861 5.06599 6.01642 4.02854L6.06384 3.82104C6.53799 1.59967 9.70299 1.61189 11.6115 3.34505L12.0027 3.76002L12.6072 3.11313C12.5361 3.17416 12.702 3.01549 12.6072 3.11313C14.5038 1.37997 17.4555 1.61188 17.9296 3.83325C18.1904 4.96835 18.0126 6.15227 17.4318 7.04326C16.8391 7.97086 16.0804 8.7276 14.6105 9.92372Z" fill="#D52B1E"/>
<path fill-rule="evenodd" clip-rule="evenodd" d="M15.1536 10.5919L15.1509 10.5941C15.0443 10.6793 14.8853 10.8056 14.7014 10.9516C14.1236 11.4108 13.3007 12.0645 13.0916 12.2449C12.4592 12.7905 11.5125 12.7934 10.8768 12.2534C10.8342 12.2184 10.7349 12.1367 10.6015 12.0269C10.073 11.5922 9.01092 10.7184 8.83763 10.5779L8.83725 10.5776C7.3578 9.37675 6.53392 8.56017 5.85951 7.528L5.84903 7.51195L5.83923 7.49548C5.21111 6.43986 4.97305 5.14829 5.18511 3.91416L5.18936 3.88942L5.24048 3.66627C5.58828 2.05692 6.93878 1.3278 8.29386 1.25585C9.52581 1.19044 10.8919 1.63374 11.9716 2.49897C11.974 2.49667 11.9763 2.49445 11.9786 2.4923C11.9874 2.48392 11.9996 2.47239 12.0129 2.4605C12.0165 2.45724 12.0211 2.45316 12.0264 2.44859C12.0313 2.44432 12.0389 2.43776 12.0483 2.43007C12.0531 2.42614 12.0596 2.42092 12.0673 2.41491C12.0736 2.40998 12.0831 2.40273 12.0948 2.39424C13.1971 1.44305 14.6011 1.00744 15.8625 1.15221C17.1961 1.30527 18.4197 2.13458 18.7532 3.67816C19.057 5.00498 18.8597 6.42754 18.1365 7.53652C17.4706 8.57486 16.6289 9.39442 15.1564 10.5896L15.1536 10.5919ZM17.3695 7.04115C17.9437 6.16262 18.1194 4.99525 17.8616 3.87603C17.4532 1.96748 15.1853 1.54835 13.3682 2.60271C13.3502 2.61317 13.3322 2.62378 13.3142 2.63453C13.0763 2.77713 12.8466 2.94525 12.6303 3.13885C12.6203 3.14784 12.6103 3.15688 12.6003 3.16598L12.0027 3.80382L11.616 3.39465C11.5288 3.31567 11.439 3.24031 11.3468 3.16862C9.44589 1.68932 6.57908 1.77491 6.13203 3.86399L6.08516 4.06858C5.90939 5.09153 6.1086 6.16262 6.62418 7.02912C7.2218 7.94375 7.96002 8.68991 9.41304 9.86931C9.58929 10.0122 10.6614 10.8942 11.1878 11.3272C11.3263 11.4412 11.427 11.5241 11.4637 11.5542C11.7566 11.8069 12.2019 11.8069 12.4948 11.5542C12.7196 11.3602 13.5793 10.6773 14.1577 10.2178C14.333 10.0785 14.4825 9.95973 14.5806 9.88134C16.0336 8.70194 16.7836 7.95579 17.3695 7.04115Z" fill="black"/>
</svg>
