<svg width="24" height="24" viewBox="0 0 24 24" fill="none" xmlns="http://www.w3.org/2000/svg">
<path d="M15.7162 7.23951L9.70333 4.52263C9.58959 4.47113 9.46184 4.47113 9.3481 4.52263L7.12652 5.53115C7.04153 5.56969 6.96888 5.63497 6.91776 5.71874C6.86664 5.80252 6.83936 5.90102 6.83936 6.00179C6.83936 6.10256 6.86664 6.20106 6.91776 6.28484C6.96888 6.36861 7.04153 6.43389 7.12652 6.47243L12.3527 8.84091" fill="#B2B2B2"/>
<path d="M9.18209 4.07476C9.40219 3.9751 9.64914 3.9751 9.86892 4.07463L15.8818 6.7915C16.1056 6.89264 16.2129 7.1752 16.1214 7.42263C16.0299 7.67005 15.7743 7.78865 15.5505 7.68752L9.53731 4.9705C9.52992 4.96715 9.52139 4.96715 9.51435 4.97034L7.28573 5.98337L7.28066 5.98938C7.27829 5.99327 7.27711 5.99754 7.27711 6.00179L7.28066 6.01419L7.28572 6.0202L12.5187 8.3931C12.7424 8.49449 12.8494 8.77717 12.7577 9.0245C12.666 9.27182 12.4103 9.39012 12.1866 9.28873L6.96033 6.92021C6.79545 6.84546 6.65427 6.7186 6.55474 6.55548C6.45487 6.3918 6.40149 6.19907 6.40149 6.00179C6.40149 5.8045 6.45487 5.61177 6.55474 5.4481C6.65427 5.28498 6.79545 5.15812 6.96016 5.08344L9.18209 4.07476Z" fill="#7F7F7F"/>
<path d="M19.8971 5.24795L7.18789 11.3041L4.59062 9.87795C4.53017 9.84468 4.46382 9.82625 4.39621 9.82397C4.32859 9.82168 4.26133 9.83558 4.19912 9.86471L1.77389 11.0077C1.70411 11.0406 1.64275 11.0916 1.59515 11.1565C1.54756 11.2213 1.5152 11.2979 1.50088 11.3796C1.48657 11.4613 1.49075 11.5457 1.51305 11.6252C1.53535 11.7048 1.5751 11.7771 1.62882 11.8359L5.11044 15.6509C5.17492 15.7214 5.25689 15.7697 5.34616 15.7896C5.43543 15.8095 5.52809 15.8003 5.6126 15.763L12.3025 12.8322L9.92837 19.7675C9.89563 19.8633 9.88996 19.9676 9.91209 20.0669C9.93422 20.1662 9.98313 20.256 10.0524 20.3244C10.1218 20.3929 10.2083 20.4369 10.3008 20.4509C10.3932 20.4647 10.4873 20.4477 10.5709 20.4022L13.0966 19.0198C13.1863 18.9706 13.2591 18.8908 13.304 18.7926L16.9549 10.7948L21.3255 9.01205C21.5557 8.91331 21.7657 8.76525 21.9431 8.57655C22.1206 8.38783 22.2618 8.16226 22.3587 7.91303C22.4556 7.66378 22.5062 7.39587 22.5074 7.12498C22.5086 6.85408 22.4605 6.58565 22.366 6.33536C22.2713 6.08507 22.1321 5.85796 21.9564 5.66732C21.7808 5.47668 21.5721 5.32634 21.3428 5.22508C21.1134 5.12383 20.8679 5.0737 20.6206 5.07762C20.3733 5.08155 20.1293 5.13946 19.9027 5.24795H19.8971Z" fill="#E5E5E5"/>
<path d="M20.6135 4.53319L20.4586 4.54126C20.2012 4.56402 19.9478 4.63314 19.7054 4.74642L7.20267 10.7037L4.80971 9.39031C4.686 9.32222 4.54988 9.28442 4.41122 9.27974C4.27265 9.27504 4.13472 9.30355 4.00703 9.36333L1.58071 10.5068C1.43711 10.5745 1.31073 10.6798 1.21255 10.8136C1.11419 10.9475 1.04703 11.1064 1.01731 11.2761C0.987569 11.4459 0.996252 11.6212 1.04257 11.7864C1.08882 11.9514 1.17118 12.1013 1.28232 12.2229L4.76369 16.0376C4.89694 16.1833 5.06555 16.2825 5.24895 16.3234L5.35924 16.3407C5.50696 16.3543 5.65635 16.3299 5.79515 16.2687L11.447 13.7921L9.46769 19.5748C9.39963 19.7739 9.38785 19.9907 9.43384 20.1971C9.47974 20.4031 9.58102 20.589 9.72429 20.7305C9.86699 20.8714 10.0446 20.9617 10.2342 20.9903C10.4241 21.0188 10.6171 20.984 10.7886 20.8906L13.3151 19.5077L13.4047 19.4518C13.5488 19.3502 13.6661 19.2076 13.7435 19.0383L17.3069 11.2315L21.496 9.52288C21.7946 9.39488 22.0601 9.20767 22.2846 8.96892C22.5093 8.72992 22.6883 8.44406 22.8112 8.12802C22.9342 7.81168 22.9984 7.47159 23 7.12771C23.0015 6.78374 22.9404 6.44304 22.8204 6.1255C22.7003 5.80799 22.5239 5.52021 22.3015 5.27878C22.0792 5.03759 21.8154 4.84745 21.5255 4.71944C21.2356 4.59153 20.9257 4.52824 20.6135 4.53319ZM20.6277 5.62205C20.81 5.61916 20.991 5.65612 21.1601 5.73075C21.3289 5.80527 21.4824 5.91586 21.6114 6.05586C21.7402 6.19566 21.8422 6.36209 21.9115 6.5454C21.9806 6.7282 22.0158 6.92437 22.0149 7.12234C22.014 7.32003 21.977 7.51577 21.9062 7.69804C21.8352 7.88055 21.7317 8.04581 21.6016 8.18418C21.4712 8.32285 21.3168 8.43175 21.1473 8.50443L16.7843 10.284L16.7168 10.3181C16.6306 10.3707 16.56 10.4511 16.5151 10.5495L12.8688 18.5363L10.4166 19.8779L12.7631 13.0249L12.7825 12.9552C12.8729 12.5388 12.4978 12.1609 12.121 12.326L5.44465 15.2506L2.01068 11.4871L4.38143 10.3705L6.96876 11.7918C7.09843 11.863 7.24988 11.8675 7.38284 11.8041L20.0921 5.74796C20.2638 5.66774 20.4452 5.62495 20.6277 5.62205Z" fill="#7F7F7F"/>
</svg>
