<svg width="24" height="24" viewBox="0 0 24 24" fill="none" xmlns="http://www.w3.org/2000/svg">
<path d="M16.5 21C19.5376 21 22 18.5376 22 15.5C22 12.4624 19.5376 10 16.5 10C13.4624 10 11 12.4624 11 15.5C11 18.5376 13.4624 21 16.5 21Z" fill="#FAD4BF"/>
<path d="M16.5316 8.98267C12.9417 8.98267 10.0316 11.8928 10.0316 15.4827C10.0316 19.0725 12.9417 21.9827 16.5316 21.9827C20.1214 21.9827 23.0316 19.0725 23.0316 15.4827C23.0316 11.8928 20.1214 8.98267 16.5316 8.98267ZM16.5316 10.0329C19.5414 10.0329 21.9813 12.4729 21.9813 15.4827C21.9813 18.4925 19.5414 20.9324 16.5316 20.9324C13.5218 20.9324 11.0818 18.4925 11.0818 15.4827C11.0818 12.4729 13.5218 10.0329 16.5316 10.0329Z" fill="black"/>
<path fill-rule="evenodd" clip-rule="evenodd" d="M15.3249 17H16L15.4006 15.7427C15.5016 15.6971 15.5945 15.6383 15.6791 15.5664C15.7653 15.4945 15.8344 15.4046 15.8864 15.2967C15.9398 15.1874 15.9666 15.0539 15.9666 14.8963C15.9666 14.7206 15.928 14.5657 15.8507 14.4315C15.7735 14.296 15.6531 14.1902 15.4898 14.1141C15.3264 14.038 15.1162 14 14.8592 14H13.5V17H14.1484V15.8444H14.8012L15.3249 17ZM15.1555 15.2469C15.0545 15.334 14.9171 15.3776 14.7433 15.3776H14.1484V14.4627H14.7901C14.9401 14.4627 15.0642 14.5028 15.1622 14.583C15.2602 14.6632 15.3093 14.7725 15.3093 14.9108C15.3093 15.0477 15.258 15.1598 15.1555 15.2469ZM16.5 14V17H17.1806V14.7158L17.9815 17H18.5116L19.3171 14.7054V17H20V14H19.0208L18.2477 16.139L17.4815 14H16.5Z" fill="#D52B1E"/>
<path fill-rule="evenodd" clip-rule="evenodd" d="M1.95872 3.46704V7.83903H0.375V12.1893H3.07864V16.6653H1.95872V21.6682H12.0324C10.9227 20.4438 10.22 19.4928 9.92434 18.8152C8.95927 16.6036 9.03857 14.357 9.53051 13.0259C10.2486 11.0831 11.4817 9.58736 13.23 8.53884V3.46704H1.95872Z" fill="#D52B1E"/>
<path d="M8.38575 11.9742C8.664 11.9742 8.88957 12.2096 8.88957 12.5C8.88957 12.7581 8.71134 12.9728 8.47631 13.0174L8.38575 13.0258H4.08651C3.96903 13.0258 3.87379 13.1252 3.87379 13.2478V16.2392C3.87379 16.3619 3.96903 16.4613 4.08651 16.4613H7.66921C7.94746 16.4613 8.17303 16.6967 8.17303 16.9871C8.17303 17.2452 7.9948 17.4599 7.75977 17.5044L7.66921 17.5129H2.65343C2.53595 17.5129 2.44071 17.6123 2.44071 17.7349V20.7263C2.44071 20.8489 2.53595 20.9483 2.65343 20.9483H9.81883C10.0971 20.9483 10.3226 21.1838 10.3226 21.4742C10.3226 21.7646 10.0971 22 9.81883 22H2.65343C1.97945 22 1.43308 21.4298 1.43308 20.7263V17.7349C1.43308 17.0315 1.97945 16.4613 2.65343 16.4613L2.88479 16.4622C2.87255 16.3898 2.86616 16.3153 2.86616 16.2392V13.2478C2.86616 13.1718 2.87255 13.0973 2.88479 13.0249L1.22036 13.0258C0.546372 13.0258 0 12.4556 0 11.7522V8.76076C0 8.05733 0.546372 7.48708 1.22036 7.48708L1.45172 7.48804C1.43947 7.41564 1.43308 7.34113 1.43308 7.26507V4.27368C1.43308 3.57024 1.97945 3 2.65343 3H12.685C13.359 3 13.9053 3.57024 13.9053 4.27368V7.26507C13.9053 7.55548 13.6798 7.7909 13.4015 7.7909C13.1233 7.7909 12.8977 7.55548 12.8977 7.26507V4.27368C12.8977 4.15106 12.8025 4.05166 12.685 4.05166H2.65343C2.53595 4.05166 2.44071 4.15106 2.44071 4.27368V7.26507C2.44071 7.38768 2.53595 7.48708 2.65343 7.48708H10.5354C10.8136 7.48708 11.0392 7.72251 11.0392 8.01292C11.0392 8.30332 10.8136 8.53875 10.5354 8.53875H1.22036C1.10287 8.53875 1.00763 8.63815 1.00763 8.76076V11.7522C1.00763 11.8748 1.10287 11.9742 1.22036 11.9742H8.38575Z" fill="black"/>
</svg>
