<svg width="24" height="24" viewBox="0 0 24 24" fill="none" xmlns="http://www.w3.org/2000/svg">
<g clip-path="url(#clip0_267_124)">
<path fill-rule="evenodd" clip-rule="evenodd" d="M3.08515 6.45242C3.67487 6.49492 4.02133 6.97167 4.04696 7.55517C4.09142 8.5668 4.14443 10.6301 4.14443 14.7176C4.14443 15.3047 4.14333 15.85 4.14133 16.3564C5.3826 16.315 7.71492 16.2706 12.0055 16.2706H21.9535C22.5338 16.2706 23.0039 16.7373 23 17.3106C22.9834 19.7294 22.9446 21.1094 22.9108 21.8798C22.8852 22.4633 22.5386 22.9404 21.949 22.9829C21.8008 22.9935 21.6307 23 21.436 23C21.2413 23 21.0712 22.9935 20.9231 22.9829C20.3333 22.9404 19.9869 22.4633 19.9613 21.8798C19.938 21.3506 19.9124 20.5337 19.8933 19.2899C18.658 19.3314 16.3234 19.3765 12.0055 19.3765C7.68432 19.3765 5.34942 19.3314 4.11494 19.2898C4.09582 20.5339 4.07022 21.3509 4.04696 21.8801C4.02133 22.4636 3.67487 22.9404 3.08515 22.9829C2.93703 22.9935 2.76693 23 2.57221 23C2.3775 23 2.20739 22.9935 2.05928 22.9829C1.46955 22.9404 1.1231 22.4636 1.09746 21.8801C1.053 20.8685 1 18.8052 1 14.7176C1 10.6301 1.053 8.5668 1.09746 7.55517C1.1231 6.97167 1.46955 6.49492 2.05928 6.45242C2.20739 6.44176 2.3775 6.43529 2.57221 6.43529C2.76693 6.43529 2.93703 6.44176 3.08515 6.45242Z" fill="#E5E5E5"/>
<path d="M2.57236 5.91966C2.37379 5.91966 2.19038 5.926 2.02148 5.93816C1.17243 5.99935 0.613823 6.67377 0.576078 7.53281L0.553108 8.13572C0.509724 9.44686 0.482119 11.3972 0.478516 14.1189L0.482279 16.6131C0.493654 19.0817 0.527659 20.8007 0.576073 21.9025C0.613825 22.7615 1.17243 23.4359 2.02144 23.4971C2.19038 23.5093 2.37379 23.5156 2.57236 23.5156C2.77094 23.5156 2.95434 23.5093 3.12325 23.4971C3.97229 23.4359 4.5309 22.7615 4.56865 21.9025L4.59487 21.1954C4.60516 20.8683 4.61459 20.4999 4.62301 20.0876L4.62787 19.8209L5.63564 19.8445C7.0637 19.8721 8.948 19.8891 11.3558 19.8917L14.7693 19.8851C16.1983 19.8774 17.3915 19.8635 18.3707 19.8446L19.3803 19.8209L19.4043 20.8782C19.4151 21.2705 19.4271 21.6106 19.4399 21.9022C19.4776 22.7612 20.0362 23.4359 20.8852 23.4971C21.0542 23.5093 21.2376 23.5156 21.4361 23.5156C21.6347 23.5156 21.8181 23.5093 21.987 23.4971C22.8361 23.4359 23.3947 22.7612 23.4325 21.9022L23.4569 21.2516C23.4877 20.2999 23.5106 19.0058 23.5222 17.3141C23.528 16.4547 22.8237 15.755 21.9536 15.755L11.0493 15.7557L8.34094 15.7678C6.90817 15.779 5.74501 15.7971 4.82398 15.8207L4.66476 15.8245L4.66481 13.4547C4.65664 10.6442 4.6211 8.72636 4.56865 7.5328C4.5309 6.67376 3.97229 5.99935 3.12328 5.93816C2.95434 5.926 2.77094 5.91966 2.57236 5.91966ZM2.57236 6.95091C2.74608 6.95091 2.90421 6.95638 3.04735 6.96668C3.32624 6.98678 3.50934 7.20783 3.52558 7.57752L3.54283 8.01463C3.58882 9.3109 3.61842 11.297 3.62216 14.1202L3.61946 16.3544C3.6183 16.6468 3.86324 16.8816 4.15908 16.8717L4.85371 16.8515C6.10074 16.8197 7.79894 16.7978 10.0172 16.7897L11.7601 16.7863L21.9536 16.7862C22.2445 16.7862 22.4801 17.0202 22.4781 17.3072L22.4569 19.2914C22.4401 20.3839 22.417 21.2295 22.3894 21.8574C22.3732 22.2272 22.1899 22.4485 21.9111 22.4686C21.768 22.4789 21.6099 22.4844 21.4361 22.4844C21.2624 22.4844 21.1043 22.4789 20.9612 22.4686C20.6824 22.4485 20.4992 22.2272 20.4829 21.8575L20.4511 20.9623C20.4374 20.4868 20.4253 19.929 20.4154 19.282C20.411 18.9935 20.1676 18.7647 19.8757 18.7745L18.7984 18.8042C17.3332 18.8371 15.3154 18.8576 12.6538 18.8605L10.646 18.8593C7.63634 18.8521 5.51523 18.821 4.1329 18.7744C3.84089 18.7646 3.59756 18.9934 3.59313 19.2819L3.57409 20.3049C3.56013 20.9303 3.54374 21.4446 3.52558 21.8578C3.50934 22.2274 3.32625 22.4485 3.04731 22.4686C2.90421 22.4789 2.74608 22.4844 2.57236 22.4844C2.39864 22.4844 2.24051 22.4789 2.09738 22.4686C1.81848 22.4485 1.63539 22.2274 1.61914 21.8578L1.59645 21.2617C1.55358 19.9641 1.52615 18.0253 1.52256 15.315L1.5263 12.8283C1.53761 10.372 1.57135 8.66504 1.61914 7.57753C1.63539 7.20783 1.81848 6.98678 2.09741 6.96668C2.24051 6.95638 2.39864 6.95091 2.57236 6.95091Z" fill="#7F7F7F"/>
<path d="M7.31015 14.0917C7.07226 13.9159 6.89841 13.6686 6.81461 13.387L5.87089 10.2165C5.76788 9.8706 5.80818 9.4985 5.98293 9.18201C6.15768 8.86551 6.45255 8.63054 6.80269 8.52879C7.15283 8.42704 7.52955 8.46685 7.84997 8.63945C8.1704 8.81205 8.40828 9.10332 8.51129 9.44917L9.45501 12.6198C9.50589 12.7911 9.52207 12.9707 9.50263 13.1482C9.48319 13.3258 9.42851 13.4978 9.34171 13.6545C9.25492 13.8111 9.13771 13.9493 8.99679 14.0612C8.85588 14.1731 8.69401 14.2565 8.52047 14.3065C8.39519 14.3436 8.26513 14.3625 8.13436 14.3627C7.83721 14.3627 7.54806 14.2676 7.31015 14.0917Z" fill="#B2B2B2"/>
<path d="M6.65541 8.03413C6.17245 8.17448 5.76572 8.49857 5.52468 8.93513C5.28364 9.37169 5.22806 9.88494 5.37015 10.362L6.31384 13.5325C6.42943 13.9209 6.66924 14.2619 6.99741 14.5045C7.32561 14.7472 7.72451 14.8783 8.13441 14.8783C8.31641 14.878 8.49668 14.8518 8.67032 14.8004C8.90622 14.7324 9.1295 14.6175 9.32388 14.4631C9.51829 14.3088 9.67997 14.1181 9.7997 13.902C9.91943 13.6859 9.99486 13.4486 10.0217 13.2037C10.0485 12.9588 10.0262 12.7111 9.956 12.4747L9.01217 9.30373C8.87006 8.8266 8.54193 8.42484 8.09997 8.18677C7.65799 7.94869 7.13837 7.89379 6.65541 8.03413ZM7.60009 9.09214C7.79896 9.19926 7.94661 9.38004 8.01055 9.5947L8.95424 12.7652C8.98571 12.8712 8.99575 12.9826 8.98369 13.0928C8.97162 13.203 8.93769 13.3097 8.88383 13.4069C8.82997 13.5041 8.75724 13.5899 8.66979 13.6594C8.58235 13.7288 8.4819 13.7805 8.37421 13.8116C8.29382 13.8353 8.21397 13.8469 8.13368 13.8471C7.95007 13.8471 7.77065 13.7881 7.623 13.6789C7.47538 13.5698 7.3675 13.4164 7.3155 13.2416L6.37177 10.071C6.30781 9.85627 6.33282 9.62532 6.44128 9.42888C6.54974 9.23244 6.73276 9.08661 6.95008 9.02346C7.1674 8.9603 7.40121 8.98501 7.60009 9.09214Z" fill="#7F7F7F"/>
<path d="M18.2596 1.90588C18.2596 2.28286 18.108 2.64441 17.8382 2.91101C17.5683 3.17761 17.2022 3.32739 16.8205 3.32739C16.4388 3.32739 16.0727 3.17761 15.8028 2.911C15.533 2.64441 15.3813 2.28286 15.3813 1.90588C15.3813 1.62111 15.6151 1.39026 15.9034 1.39026C16.1677 1.39026 16.3861 1.58424 16.4206 1.83592L16.4254 1.90588C16.4254 2.00935 16.467 2.10865 16.5412 2.18187C16.6152 2.25502 16.7157 2.29614 16.8205 2.29614C16.9253 2.29614 17.0258 2.25502 17.0998 2.18188C17.174 2.10865 17.2156 2.00935 17.2156 1.90588V1C17.2156 0.715228 17.4493 0.484375 17.7376 0.484375H19.5719C20.1968 0.484375 20.7961 0.72958 21.238 1.16604C21.6799 1.6025 21.9281 2.19449 21.9281 2.81176V16.4C21.9281 16.6848 21.6944 16.9156 21.4061 16.9156C21.1178 16.9156 20.8841 16.6848 20.8841 16.4V2.81176C20.8841 2.468 20.7458 2.13833 20.4998 1.89527C20.2536 1.65218 19.9199 1.51562 19.5719 1.51562H18.2594L18.2596 1.90588Z" fill="#7F7F7F"/>
<path d="M16.8204 2.29614C17.1087 2.29614 17.3424 2.527 17.3424 2.81177V5.52941C17.3424 5.81419 17.1087 6.04504 16.8204 6.04504C16.5321 6.04504 16.2983 5.81419 16.2983 5.52941V2.81177C16.2983 2.527 16.5321 2.29614 16.8204 2.29614Z" fill="#7F7F7F"/>
<path d="M17.7377 5.52942H15.9035C15.3969 5.52942 14.9863 5.935 14.9863 6.4353V9.15295C14.9863 9.65327 15.3969 10.0588 15.9035 10.0588H17.7377C18.2442 10.0588 18.6548 9.65327 18.6548 9.15295V6.4353C18.6548 5.935 18.2442 5.52942 17.7377 5.52942Z" fill="#B2B2B2"/>
<path d="M17.7378 5.01379H15.9035C15.1087 5.01379 14.4644 5.65022 14.4644 6.4353V9.15295C14.4644 9.93804 15.1087 10.5745 15.9035 10.5745H17.7378C18.5326 10.5745 19.1769 9.93804 19.1769 9.15295V6.4353C19.1769 5.65022 18.5326 5.01379 17.7378 5.01379ZM17.7378 6.04504C17.956 6.04504 18.1329 6.21976 18.1329 6.4353V9.15295C18.1329 9.36849 17.956 9.54321 17.7378 9.54321H15.9035C15.6853 9.54321 15.5084 9.36849 15.5084 9.15295V6.4353C15.5084 6.21976 15.6853 6.04504 15.9035 6.04504H17.7378Z" fill="#7F7F7F"/>
<path d="M18.6547 7.73143C18.943 7.73143 19.1767 7.96228 19.1767 8.24706C19.1767 8.53183 18.943 8.76268 18.6547 8.76268H16.3619C16.0736 8.76268 15.8398 8.53183 15.8398 8.24706C15.8398 7.96228 16.0736 7.73143 16.3619 7.73143H18.6547Z" fill="#7F7F7F"/>
</g>
<defs>
<clipPath id="clip0_267_124">
<rect width="24" height="24" fill="white"/>
</clipPath>
</defs>
</svg>
