<svg width="24" height="24" viewBox="0 0 24 24" fill="none" xmlns="http://www.w3.org/2000/svg">
<path d="M0.537476 8.09913C2.53097 6.61516 9.18229 2.73805 9.18229 2.73805C9.42058 2.57552 9.71011 2.50416 9.99732 2.53719C10.2845 2.5702 10.5499 2.70536 10.7445 2.91765C10.9391 3.12993 11.0496 3.40498 11.0556 3.69188C11.0616 3.97879 10.9626 4.25814 10.7771 4.47825L8.51147 7.10982H21.9676C22.3641 7.10982 22.7445 7.26617 23.0248 7.54446C23.3052 7.82276 23.4627 8.20022 23.4627 8.59378C23.4627 8.98736 23.3052 9.36478 23.0248 9.64308C22.7445 9.92137 22.3641 10.0778 21.9676 10.0778H15.4887V12.0564C15.4887 12.3188 15.3837 12.5704 15.1968 12.7559C15.0099 12.9414 14.7563 13.0457 14.492 13.0457V15.0243C14.492 15.2867 14.3869 15.5383 14.2 15.7239C14.0131 15.9094 13.7596 16.0137 13.4952 16.0137V17.4976C13.4952 17.8912 13.3377 18.2686 13.0573 18.5469C12.777 18.8252 12.3966 18.9816 12.0001 18.9816H8.91017C7.98377 18.9813 7.06191 18.8531 6.1711 18.6007L0.537476 17.003" fill="#E5E5E5"/>
<path fill-rule="evenodd" clip-rule="evenodd" d="M16.6993 7.33667L18.3923 9.99021H22.6856L23.4627 8.50517L22.297 7.21143L16.6993 7.33667Z" fill="#B2B2B2"/>
<path d="M14.5257 12.522C14.8225 12.522 15.063 12.7588 15.063 13.0511C15.063 13.3433 14.8225 13.5801 14.5257 13.5801H12.5829C12.2862 13.5801 12.0456 13.3433 12.0456 13.0511C12.0456 12.7588 12.2862 12.522 12.5829 12.522H14.5257Z" fill="#7F7F7F"/>
<path d="M16.08 9.46094C16.3767 9.46094 16.6173 9.69781 16.6173 9.99002C16.6173 10.2822 16.3767 10.5191 16.08 10.5191H12.5829C12.2862 10.5191 12.0456 10.2822 12.0456 9.99002C12.0456 9.69781 12.2862 9.46094 12.5829 9.46094H16.08Z" fill="#7F7F7F"/>
<path d="M13.3601 15.5825C13.6568 15.5825 13.8974 15.8194 13.8974 16.1116C13.8974 16.4038 13.6568 16.6407 13.3601 16.6407H11.4173C11.1205 16.6407 10.8799 16.4038 10.8799 16.1116C10.8799 15.8194 11.1205 15.5825 11.4173 15.5825H13.3601Z" fill="#7F7F7F"/>
<path d="M10.0596 2.01146C10.4765 2.05939 10.8615 2.25543 11.1434 2.56296C11.4246 2.86978 11.5841 3.26686 11.5927 3.68081C11.6014 4.09469 11.4586 4.49786 11.1869 4.82016L9.67101 6.58042L21.9676 6.58052C22.4584 6.58052 22.9308 6.75638 23.299 7.07259L23.4063 7.17163C23.7866 7.54913 24 8.06056 24 8.59357C24 9.12659 23.7866 9.63799 23.4063 10.0155C23.0251 10.3938 22.5075 10.6066 21.9676 10.6066L16.0256 10.6064L16.026 12.0562C16.026 12.4133 15.8989 12.7576 15.6691 13.0298L15.5782 13.1284C15.4503 13.2553 15.3021 13.3575 15.1411 13.4319L15.0291 13.4775L15.0293 15.0241C15.0293 15.3812 14.9021 15.7255 14.6724 15.9977L14.5814 16.0963C14.4536 16.2232 14.3054 16.3254 14.1443 16.3999L14.0318 16.446L14.0325 17.4974C14.0325 17.982 13.8561 18.4486 13.5383 18.8131L13.4388 18.9193C13.0576 19.2976 12.54 19.5105 12.0001 19.5105H8.90997C7.93343 19.5101 6.96161 19.375 6.02237 19.1089L0.388739 17.5112C0.103582 17.4303 -0.0610025 17.1371 0.021128 16.8563C0.103259 16.5755 0.401003 16.4135 0.68616 16.4943L6.31964 18.092C7.16228 18.3308 8.0342 18.452 8.91015 18.4523H12.0001C12.2531 18.4523 12.4962 18.3523 12.6759 18.174C12.8563 17.995 12.9579 17.7515 12.9579 17.4974V16.0134C12.9579 15.7456 13.16 15.5242 13.4223 15.4892L13.4952 15.4844C13.6161 15.4844 13.7324 15.4365 13.8185 15.3511C13.9055 15.2647 13.9546 15.147 13.9546 15.0241V13.0455C13.9546 12.7777 14.1568 12.5563 14.419 12.5213L14.4919 12.5164C14.6129 12.5164 14.7292 12.4686 14.8152 12.3832C14.9023 12.2967 14.9514 12.1791 14.9514 12.0562V10.0776C14.9514 9.78536 15.1919 9.54849 15.4887 9.54849H21.9676C22.2206 9.54849 22.4637 9.44853 22.6434 9.27024C22.8238 9.09116 22.9254 8.84773 22.9254 8.59357C22.9254 8.33941 22.8238 8.09594 22.6434 7.91687C22.4638 7.73861 22.2207 7.63868 21.9676 7.63868H8.51145C8.05377 7.63868 7.80563 7.11124 8.10159 6.76747L10.3636 4.14016C10.4666 4.01793 10.5217 3.86238 10.5184 3.70252C10.515 3.54273 10.4535 3.38969 10.3456 3.27191C10.2383 3.15485 10.0924 3.08058 9.93497 3.06248C9.80393 3.04741 9.67193 3.07205 9.53717 3.14412L8.0213 4.03757C7.16012 4.54773 6.29899 5.0631 5.47484 5.56317L4.5112 6.15141L3.54122 6.75226C2.32068 7.51518 1.39847 8.12122 0.861474 8.52096C0.624757 8.69718 0.287789 8.65107 0.108835 8.41797C-0.0701191 8.18488 -0.023293 7.85308 0.213424 7.67686L0.442437 7.51018C1.05819 7.07071 1.99537 6.46201 3.19297 5.71688L4.29739 5.03606L5.5379 4.28329C5.74885 4.15616 5.96151 4.0284 6.17532 3.90034L8.31836 2.62849L8.87632 2.30289C9.1836 2.09331 9.54995 1.98816 9.92054 2.00106L10.0596 2.01146Z" fill="#7F7F7F"/>
<path fill-rule="evenodd" clip-rule="evenodd" d="M22.6856 19.1753C22.6856 20.4432 21.6418 21.471 20.3542 21.471C19.0666 21.471 18.0228 20.4432 18.0228 19.1753C18.0228 17.907 20.3542 14.584 20.3542 14.584C20.3542 14.584 22.6856 17.907 22.6856 19.1753Z" fill="#B2B2B2"/>
<path d="M19.9121 14.283L19.673 14.6335C19.6317 14.6951 19.587 14.7623 19.5393 14.8346C19.2615 15.2558 18.9836 15.6971 18.7237 16.1383C18.5747 16.3912 18.4357 16.6373 18.3085 16.8744C17.7824 17.8559 17.4855 18.6211 17.4855 19.1751C17.4855 20.7352 18.7698 21.9999 20.3542 21.9999C21.9385 21.9999 23.2229 20.7352 23.2229 19.1751C23.2229 18.6211 22.9259 17.8559 22.3998 16.8744C22.2726 16.6373 22.1336 16.3912 21.9846 16.1383C21.8113 15.8442 21.6301 15.55 21.4462 15.2617L21.169 14.8346C21.0021 14.5816 20.8718 14.3908 20.7962 14.283C20.5826 13.9786 20.1257 13.9786 19.9121 14.283ZM20.1726 15.8239L20.3533 15.5432L20.2678 15.411C20.5365 15.8182 20.805 16.2449 21.0551 16.6693C21.1972 16.9106 21.3293 17.1444 21.4494 17.3684L21.6171 17.6907C21.9577 18.3671 22.1482 18.8955 22.1482 19.1751C22.1482 20.1508 21.345 20.9417 20.3542 20.9417C19.3633 20.9417 18.5601 20.1508 18.5601 19.1751C18.5601 18.8525 18.8138 18.1986 19.2589 17.3684C19.379 17.1444 19.5111 16.9106 19.6532 16.6693C19.8199 16.3863 19.9949 16.1024 20.1726 15.8239Z" fill="#7F7F7F"/>
<path d="M16.4968 6.9518C16.7284 6.8014 17.028 6.85166 17.1659 7.06404L18.833 9.63112C18.9709 9.84351 18.895 10.1376 18.6634 10.288C18.4318 10.4384 18.1323 10.3881 17.9943 10.1758L16.3273 7.60868C16.1893 7.39629 16.2653 7.1022 16.4968 6.9518Z" fill="#7F7F7F"/>
<path d="M21.0675 6.80074C20.8367 6.68719 20.5587 6.77918 20.4465 7.00622L19.168 9.5927C19.0558 9.81974 19.1519 10.0958 19.3826 10.2094C19.6134 10.3229 19.8914 10.2309 20.0036 10.0039L21.2821 7.41742C21.3943 7.19038 21.2982 6.91429 21.0675 6.80074Z" fill="#7F7F7F"/>
<path d="M21.4276 6.78874L21.4928 6.76618C21.7412 6.69983 21.9947 6.84468 22.059 7.08971L22.7387 9.6795C22.803 9.92453 22.6538 10.1769 22.4054 10.2433C22.157 10.3096 21.9035 10.1648 21.8392 9.91975L21.1595 7.32996C21.1011 7.10721 21.2191 6.87835 21.4276 6.78874Z" fill="#7F7F7F"/>
</svg>
