<svg width="24" height="24" viewBox="0 0 24 24" fill="none" xmlns="http://www.w3.org/2000/svg">
<g clip-path="url(#clip0_2709_1917)">
<path d="M10.5613 13.1123L10.4231 18.9105C10.4231 19.1893 10.3123 19.4567 10.1152 19.6539C9.918 19.851 9.65059 19.9618 9.37175 19.9618C9.09292 19.9618 8.82551 19.851 8.62834 19.6539C8.43118 19.4567 8.32041 19.1893 8.32041 18.9105V18.5714C8.32041 17.9737 7.97031 17.4354 7.37683 17.3676C7.16648 17.3445 6.955 17.3333 6.7434 17.334C6.50527 17.334 6.29395 17.3471 6.10996 17.3681C5.51595 17.4354 5.16638 17.9737 5.16638 18.5714V18.911C5.16638 20.0263 5.60945 21.096 6.39811 21.8846C7.18677 22.6733 8.25642 23.1164 9.37175 23.1164C10.4871 23.1164 11.5567 22.6733 12.3454 21.8846C13.1341 21.096 13.5771 20.0263 13.5771 18.911L13.4389 13.1123" fill="#E5E5E5"/>
<path d="M10.5613 13.1123L10.4231 18.9105C10.4231 19.1893 10.3123 19.4567 10.1152 19.6539C9.918 19.851 9.65058 19.9618 9.37175 19.9618C9.09292 19.9618 8.82551 19.851 8.62834 19.6539C8.43118 19.4567 8.32041 19.1893 8.32041 18.9105V18.5714C8.32041 17.9737 7.97031 17.4354 7.37683 17.3676C7.16648 17.3445 6.955 17.3333 6.7434 17.334C6.50527 17.334 6.29395 17.3471 6.10996 17.3681C5.51595 17.4354 5.16638 17.9737 5.16638 18.5714V18.911C5.16638 20.0263 5.60945 21.096 6.39811 21.8846C7.18677 22.6733 8.25642 23.1164 9.37175 23.1164C10.4871 23.1164 11.5567 22.6733 12.3454 21.8846C13.1341 21.096 13.5771 20.0263 13.5771 18.911L13.4389 13.1123" stroke="#7F7F7F" stroke-width="1.2" stroke-linecap="round" stroke-linejoin="round"/>
<path d="M10.923 2.6653L11.6463 1.21813C11.679 1.15259 11.7294 1.09747 11.7917 1.05894C11.854 1.02041 11.9258 1 11.999 1C12.0723 1 12.1441 1.02041 12.2064 1.05894C12.2687 1.09747 12.319 1.15259 12.3518 1.21813L13.0751 2.66477C18.3186 3.14839 22.4899 7.0883 22.9892 10.6092C23.0513 11.0492 22.8421 11.4677 22.4415 11.6606C21.3376 12.1915 18.4732 13.1288 12.0001 13.1288C5.52644 13.1288 2.66153 12.1915 1.55815 11.6606C1.15759 11.4677 0.94837 11.0492 1.01092 10.6092C1.51031 7.0883 5.67994 3.14997 10.923 2.6653Z" fill="#B2B2B2" stroke="#7F7F7F" stroke-width="1.2" stroke-linecap="round" stroke-linejoin="round"/>
</g>
<defs>
<clipPath id="clip0_2709_1917">
<rect width="24" height="24" fill="white"/>
</clipPath>
</defs>
</svg>
