<svg width="24" height="24" viewBox="0 0 24 24" fill="none" xmlns="http://www.w3.org/2000/svg">
<path d="M19.2231 7.59151L20.8654 6.62144C21.5463 6.21949 22.4166 6.45856 22.8094 7.15542C23.2021 7.85228 22.9685 8.74304 22.2876 9.14499L19.2365 10.9481L19.2231 7.59151Z" fill="#D52B1E"/>
<path d="M20.6363 6.21511L18.994 7.18524C18.8516 7.26937 18.7641 7.42513 18.7648 7.59342L18.7782 10.95C18.7796 11.3103 19.1609 11.5345 19.4657 11.3543L22.5168 9.55121C23.4168 9.01993 23.7256 7.84231 23.2064 6.92104C22.6871 5.99977 21.5365 5.68372 20.6363 6.21511ZM22.4123 7.38979L22.4573 7.4798C22.6576 7.93643 22.4914 8.48318 22.0586 8.73866L19.6913 10.1379L19.6824 7.86173L21.0945 7.02771C21.556 6.75526 22.146 6.91734 22.4123 7.38979Z" fill="black"/>
<path d="M4.77685 10.954L1.71237 9.14499C1.03148 8.74304 0.797884 7.85228 1.19063 7.15542C1.58337 6.45856 2.45373 6.21949 3.13462 6.62144L4.77685 7.59151V10.954Z" fill="#D52B1E"/>
<path d="M0.79358 6.92104C0.274361 7.84231 0.583179 9.01993 1.48334 9.55132L4.54783 11.3603C4.85339 11.5407 5.23516 11.315 5.23516 10.954V7.59151C5.23516 7.4239 5.14778 7.26903 5.00594 7.18524L3.3636 6.21511C2.46344 5.68372 1.3128 5.99977 0.79358 6.92104ZM2.90559 7.02777L4.31785 7.86173V10.1415L1.94134 8.73866C1.47973 8.46615 1.32136 7.86224 1.58762 7.38979C1.85389 6.91734 2.44397 6.75526 2.90559 7.02777Z" fill="black"/>
<path d="M4.41339 9.82336L5.09726 5.62103C5.25046 4.68565 6.04138 4.00033 6.96808 4H17.0319C17.9586 4.00033 18.7495 4.68565 18.9027 5.62103L19.5866 9.82238L4.41339 9.82336Z" fill="#FFF3F2"/>
<path d="M4.9155 9.82336H19.0844C21.1974 9.82336 22.9102 11.5764 22.9102 13.7389V15.634C22.9102 16.7152 22.0538 17.5917 20.9973 17.5917H3.00928C1.95281 17.5917 1.09637 16.7152 1.09637 15.634V13.735C1.09848 11.5767 2.80666 9.82713 4.9155 9.82336Z" fill="#D52B1E"/>
<path d="M19.0844 9.35428H4.91552C2.55324 9.35851 0.64042 11.3177 0.638062 13.7345V15.634C0.638062 16.9743 1.6997 18.0608 3.0093 18.0608H20.9973C22.3069 18.0608 23.3686 16.9743 23.3686 15.634V13.7389C23.3686 11.3173 21.4505 9.35428 19.0844 9.35428ZM19.0844 10.2924C20.9443 10.2924 22.4519 11.8355 22.4519 13.7389V15.634C22.4519 16.4562 21.8007 17.1227 20.9973 17.1227H3.0093C2.20596 17.1227 1.55473 16.4562 1.55473 15.634V13.735C1.55658 11.8357 3.06013 10.2958 4.91632 10.2924H19.0844Z" fill="black"/>
<path d="M4.4134 15.6467C5.19888 15.6467 5.83565 14.995 5.83565 14.1911C5.83565 13.3872 5.19888 12.7355 4.4134 12.7355C3.62791 12.7355 2.99115 13.3872 2.99115 14.1911C2.99115 14.995 3.62791 15.6467 4.4134 15.6467Z" fill="#FFF3F2"/>
<path d="M4.41336 12.2664C3.37474 12.2664 2.53278 13.1282 2.53278 14.1911C2.53278 15.2541 3.37474 16.1158 4.41336 16.1158C5.45197 16.1158 6.29394 15.2541 6.29394 14.1911C6.29394 13.1282 5.45197 12.2664 4.41336 12.2664ZM4.41336 13.2046C4.94571 13.2046 5.37727 13.6463 5.37727 14.1911C5.37727 14.736 4.94571 15.1776 4.41336 15.1776C3.881 15.1776 3.44944 14.736 3.44944 14.1911C3.44944 13.6463 3.881 13.2046 4.41336 13.2046Z" fill="black"/>
<path d="M19.5866 15.6467C20.372 15.6467 21.0088 14.995 21.0088 14.1911C21.0088 13.3872 20.372 12.7355 19.5866 12.7355C18.8011 12.7355 18.1643 13.3872 18.1643 14.1911C18.1643 14.995 18.8011 15.6467 19.5866 15.6467Z" fill="#FFF3F2"/>
<path d="M19.5866 12.2664C18.548 12.2664 17.706 13.1282 17.706 14.1911C17.706 15.2541 18.548 16.1158 19.5866 16.1158C20.6252 16.1158 21.4672 15.2541 21.4672 14.1911C21.4672 13.1282 20.6252 12.2664 19.5866 12.2664ZM19.5866 13.2046C20.1189 13.2046 20.5505 13.6463 20.5505 14.1911C20.5505 14.736 20.1189 15.1776 19.5866 15.1776C19.0542 15.1776 18.6227 14.736 18.6227 14.1911C18.6227 13.6463 19.0542 13.2046 19.5866 13.2046Z" fill="black"/>
<path d="M17.0321 3.53092H6.96809C5.8174 3.53134 4.83545 4.38218 4.64524 5.54348L3.9613 9.74629C3.91477 10.0322 4.13022 10.2924 4.41343 10.2924L19.5866 10.2915C19.8698 10.2914 20.0852 10.0312 20.0387 9.7453L19.3548 5.54395C19.1646 4.38218 18.1826 3.53134 17.0321 3.53092ZM17.0317 4.46908L17.1418 4.47339C17.7964 4.52457 18.3406 5.02646 18.4507 5.69858L19.0455 9.35314L4.95378 9.35384L5.54937 5.69809C5.66549 4.98912 6.26538 4.46933 6.96826 4.46908H17.0317Z" fill="black"/>
<path d="M5.83565 17.5878V19.0444C5.83565 19.8483 5.19888 20.5 4.4134 20.5C3.62791 20.5 2.99115 19.8483 2.99115 19.0444V17.5878H5.83565Z" fill="#FFF3F2"/>
<path d="M5.83561 17.1188H2.99111C2.73798 17.1188 2.53278 17.3288 2.53278 17.5878V19.0444C2.53278 20.1074 3.37474 20.9691 4.41336 20.9691C5.45197 20.9691 6.29394 20.1074 6.29394 19.0444V17.5878C6.29394 17.3288 6.08874 17.1188 5.83561 17.1188ZM5.37673 18.0564L5.37727 19.0444C5.37727 19.5892 4.94571 20.0309 4.41336 20.0309L4.32053 20.0264C3.83172 19.9786 3.44944 19.5572 3.44944 19.0444L3.44898 18.0564H5.37673Z" fill="black"/>
<path d="M21.0088 17.5878V19.0444C21.0088 19.8483 20.372 20.5 19.5866 20.5C18.8011 20.5 18.1643 19.8483 18.1643 19.0444V17.5878H21.0088Z" fill="#FFF3F2"/>
<path d="M21.0088 17.1188H18.1643C17.9112 17.1188 17.706 17.3288 17.706 17.5878V19.0444C17.706 20.1074 18.548 20.9691 19.5866 20.9691C20.6252 20.9691 21.4672 20.1074 21.4672 19.0444V17.5878C21.4672 17.3288 21.262 17.1188 21.0088 17.1188ZM20.55 18.0564L20.5505 19.0444C20.5505 19.5892 20.1189 20.0309 19.5866 20.0309L19.4937 20.0264C19.0049 19.9786 18.6227 19.5572 18.6227 19.0444L18.6222 18.0564H20.55Z" fill="black"/>
</svg>
