<svg width="24" height="24" viewBox="0 0 24 24" fill="none" xmlns="http://www.w3.org/2000/svg">
<path fill-rule="evenodd" clip-rule="evenodd" d="M0.392331 2.74389C0.506977 1.75545 1.10665 0.93944 2.07824 0.724571C3.59376 0.389411 6.53131 0 12 0C17.4687 0 20.4062 0.389411 21.9218 0.724571C22.8934 0.93944 23.493 1.75545 23.6077 2.74389C23.781 4.23863 24 6.70034 24 9.6C24 15.017 21.141 20.0858 16.3245 22.5647C14.7155 23.3928 13.1452 24 12 24C10.8548 24 9.28451 23.3928 7.67554 22.5647C2.85896 20.0858 0 15.017 0 9.6C0 6.70034 0.218954 4.23863 0.392331 2.74389Z" fill="#FFF3F2"/>
<path d="M12 0L11.6545 0.000547099C7.32052 0.0143718 4.32198 0.281188 2.40647 0.704804C1.27587 0.954837 0.517641 1.89545 0.378342 3.09644C0.14731 5.08823 0 7.33369 0 9.70746L0.00263144 9.9894C0.103489 15.3436 2.99668 20.1883 7.62329 22.5694C9.41012 23.489 10.8848 24 12 24C13.1152 24 14.5899 23.489 16.3767 22.5695C21.0905 20.1434 24 15.1628 24 9.70746L23.9989 9.36178C23.9849 7.10802 23.8405 4.98346 23.6216 3.09644C23.4824 1.89545 22.7241 0.954837 21.5935 0.704804L21.2228 0.627469C19.2421 0.237607 16.2422 0 12 0ZM11.657 1.07517L12.0009 1.07463L13.1778 1.08106C16.9859 1.12368 19.6487 1.3753 21.3615 1.75408C22.0195 1.8996 22.4651 2.45242 22.5542 3.22024C22.7688 5.07052 22.9106 7.15665 22.9243 9.36679L22.9254 9.70914C22.9254 14.7679 20.2336 19.3759 15.8849 21.6139C14.2394 22.4608 12.8987 22.9254 12 22.9254C11.1013 22.9254 9.76061 22.4608 8.11505 21.6139C3.84701 19.4173 1.17062 14.9357 1.07714 9.97421L1.0746 9.7024C1.0746 7.37818 1.21928 5.17329 1.44581 3.22025C1.53487 2.45243 1.98051 1.8996 2.63852 1.75408C4.47004 1.34903 7.395 1.08877 11.657 1.07517Z" fill="black"/>
<path d="M18.2334 12.1853C18.9361 11.1109 19.1241 9.73681 18.8318 8.47707C18.2073 5.6075 14.7488 5.29206 12.5945 7.21508C12.4239 7.36636 12.2722 7.54077 12.1043 7.71467C11.9364 7.54077 11.7847 7.36636 11.6141 7.21508C9.45983 5.29206 6.00136 5.6075 5.3768 8.47707C5.08449 9.73681 5.30313 11.0917 5.97522 12.1853C7.20904 14.0716 9.4115 15.4734 11.1924 16.9902C11.7126 17.4331 12.496 17.4331 13.0162 16.9902C14.7971 15.4734 16.9996 14.0716 18.2334 12.1853Z" fill="#D52B1E"/>
<path d="M13.8958 17.409L15.3557 16.2541C16.9669 14.9623 17.8138 14.1367 18.5166 13.0621C19.2898 11.88 19.5257 10.3557 19.1923 8.9188C18.4944 5.71197 14.5943 5.07746 12.0325 7.36433L11.9168 7.47188L11.7998 7.36312C9.28424 5.11756 5.4757 5.6906 4.67942 8.75953L4.64136 8.9188C4.31567 10.3224 4.55877 11.8288 5.30849 13.0487C6.05293 14.1872 6.94764 15.0403 8.7133 16.4418L9.93786 17.409C10.2046 17.6228 10.4277 17.8062 10.6402 17.9873C11.3706 18.6092 12.4631 18.6092 13.1934 17.9873L13.4556 17.7671C13.5914 17.6547 13.7357 17.5373 13.8958 17.409ZM13.5415 16.2533C13.1017 16.6009 12.774 16.8668 12.464 17.1308C12.154 17.3947 11.6796 17.3947 11.3696 17.1308L11.0974 16.9022C10.9101 16.747 10.7082 16.5837 10.474 16.3975L9.19753 15.389C7.66786 14.1632 6.88039 13.3971 6.25847 12.4463C5.70912 11.552 5.50411 10.4385 5.69399 9.38328L5.73894 9.16558C6.23267 6.8971 9.07109 6.43531 11.052 8.20359L11.1575 8.30278L11.5121 8.67424L11.9168 9.09343L12.5505 8.43186C12.6454 8.33175 12.7135 8.26401 12.7802 8.20484C14.7626 6.43531 17.601 6.8971 18.0947 9.16557C18.3624 10.3193 18.1752 11.5289 17.5752 12.4462C16.9532 13.3971 16.1657 14.1632 14.636 15.3891L13.5415 16.2533Z" fill="black"/>
</svg>
