<svg width="24" height="24" viewBox="0 0 24 24" fill="none" xmlns="http://www.w3.org/2000/svg">
<path d="M11.4671 23.4872C16.9659 23.4872 21.4236 19.0295 21.4236 13.5307C21.4236 8.03184 16.9659 3.57416 11.4671 3.57416C5.9683 3.57416 1.51062 8.03184 1.51062 13.5307C1.51062 19.0295 5.9683 23.4872 11.4671 23.4872Z" fill="#FFF3F2"/>
<path d="M7.57349 0.227398C7.72993 -0.00722495 8.04694 -0.0706103 8.28156 0.0858225L12.7768 3.08299C13.0565 3.26947 13.0828 3.67068 12.8298 3.89206L8.8339 7.38858C8.62169 7.57427 8.29912 7.55278 8.11342 7.34056C7.92772 7.12834 7.94922 6.80577 8.16144 6.62007L11.6546 3.5627L7.71507 0.935466C7.50391 0.794676 7.43145 0.523817 7.53311 0.300013L7.57349 0.227398Z" fill="black"/>
<path d="M12.4936 2.99719C12.7755 2.99719 13.0041 3.22579 13.0041 3.50778C13.0041 3.78977 12.7755 4.01837 12.4936 4.01837H11.501C6.94558 4.01876 3.03455 7.25936 2.18752 11.7353C1.34048 16.2113 3.79698 20.6569 8.03726 22.3218C12.2776 23.9867 17.1025 22.4001 19.5271 18.5435C19.6772 18.3048 19.9924 18.2329 20.2312 18.383C20.4701 18.5331 20.5417 18.8483 20.3917 19.087C17.7058 23.359 12.3611 25.1166 7.66405 23.2723C2.96698 21.4281 0.245867 16.5036 1.18415 11.5455C2.12243 6.58731 6.45477 2.99762 11.501 2.99719H12.4936Z" fill="black"/>
<path d="M21.4898 12.9864C21.7718 12.9862 22.0005 13.2146 22.0007 13.4966C22.0014 14.3824 21.8903 15.2647 21.6702 16.1227C21.6001 16.3958 21.3219 16.5605 21.0487 16.4904C20.7756 16.4203 20.611 16.1421 20.6811 15.8689C20.8798 15.0941 20.9801 14.2973 20.9796 13.4973C20.9794 13.2154 21.2078 12.9866 21.4898 12.9864Z" fill="black"/>
<path d="M19.686 7.74783C19.9245 7.59742 20.2398 7.66886 20.3902 7.90739C20.8708 8.66944 21.2507 9.4904 21.5208 10.3499C21.6053 10.6189 21.4557 10.9055 21.1867 10.99C20.9177 11.0745 20.6311 10.925 20.5465 10.6559C20.3029 9.88043 19.96 9.13966 19.5265 8.45206C19.376 8.21353 19.4475 7.89823 19.686 7.74783Z" fill="black"/>
<path d="M15.6714 4.40265C15.8021 4.15277 16.1106 4.05616 16.3605 4.18686C17.0639 4.55476 17.7232 5.0013 18.3259 5.51789C18.54 5.70141 18.5648 6.02375 18.3813 6.23785C18.1978 6.45195 17.8754 6.47674 17.6613 6.29322C17.1173 5.82691 16.5221 5.42383 15.8872 5.09173C15.6373 4.96103 15.5407 4.65252 15.6714 4.40265Z" fill="black"/>
<path d="M16.8156 15.2044C17.3538 14.3816 17.4978 13.3291 17.2739 12.3643C16.7956 10.1666 14.1468 9.92496 12.4969 11.3978C12.3662 11.5136 12.25 11.6472 12.1214 11.7804C11.9929 11.6472 11.8766 11.5136 11.746 11.3978C10.0961 9.92496 7.44728 10.1666 6.96894 12.3643C6.74506 13.3291 6.91252 14.3668 7.42726 15.2044C8.37222 16.6491 10.0591 17.7227 11.4231 18.8844C11.8214 19.2236 12.4215 19.2236 12.8198 18.8844C14.1838 17.7227 15.8707 16.6491 16.8156 15.2044Z" fill="#D52B1E"/>
<path d="M13.3798 18.8225L14.51 17.8992C15.7574 16.8664 16.413 16.2063 16.9572 15.3472C17.5557 14.4022 17.7383 13.1835 17.4802 12.0348C16.9399 9.47096 13.9206 8.96368 11.9373 10.792L11.8478 10.878L11.7572 10.791C9.80975 8.99574 6.86131 9.45388 6.24486 11.9074L6.2154 12.0348C5.96326 13.1569 6.15145 14.3612 6.73186 15.3365C7.30818 16.2467 8.00084 16.9288 9.36775 18.0492L10.3158 18.8225C10.5223 18.9934 10.6949 19.1401 10.8595 19.2848C11.4249 19.782 12.2707 19.782 12.8361 19.2848L13.0391 19.1088C13.1442 19.0189 13.2559 18.9251 13.3798 18.8225ZM13.1056 17.8985C12.7651 18.1764 12.5114 18.389 12.2714 18.6001C12.0315 18.8111 11.6641 18.8111 11.4242 18.6001L11.2134 18.4173C11.0684 18.2932 10.9121 18.1627 10.7308 18.0138L9.74263 17.2075C8.55841 16.2275 7.94877 15.6151 7.4673 14.8549C7.04201 14.1399 6.8833 13.2497 7.0303 12.4061L7.0651 12.232C7.44733 10.4184 9.64474 10.0493 11.1783 11.463L11.26 11.5423L11.5345 11.8392L11.8478 12.1744L12.3384 11.6455C12.4118 11.5654 12.4646 11.5113 12.5162 11.464C14.0509 10.0493 16.2483 10.4184 16.6305 12.232C16.8377 13.1544 16.6928 14.1215 16.2283 14.8549C15.7468 15.6151 15.1372 16.2276 13.9529 17.2076L13.1056 17.8985Z" fill="black"/>
</svg>
