<svg width="24" height="24" viewBox="0 0 24 24" fill="none" xmlns="http://www.w3.org/2000/svg">
<g clip-path="url(#clip0_2709_1105)">
<path d="M20.9239 8.90014C20.178 8.89804 19.4693 8.56015 18.9796 7.97314C18.7181 9.0298 17.8729 9.81834 16.8375 9.97151C15.8021 10.1247 14.7801 9.61235 14.2476 8.67314C13.7834 9.4959 12.9368 10.001 12.0219 10.001C11.1071 10.001 10.2604 9.4959 9.79633 8.67314C9.2638 9.61235 8.24183 10.1247 7.20642 9.97151C6.171 9.81834 5.32574 9.0298 5.06434 7.97314C4.57456 8.56015 3.86585 8.89804 3.11998 8.90014C3.05003 8.90014 2.98678 8.88014 2.91779 8.87414V22.0001C2.91779 22.5524 3.34682 23.0001 3.87607 23.0001H20.1669C20.6961 23.0001 21.1251 22.5524 21.1251 22.0001V8.87714C21.0571 8.88314 20.9939 8.90014 20.9239 8.90014Z" fill="#FAD4BF"/>
<path d="M18.5156 7.84821C18.3026 8.70919 17.6139 9.35171 16.7702 9.47651C15.9266 9.60131 15.0938 9.18386 14.6599 8.41858C14.4742 8.09097 14.0197 8.0915 13.8347 8.41955C13.4567 9.08967 12.7671 9.50107 12.022 9.50107C11.2768 9.50107 10.5873 9.08967 10.2093 8.41955C10.0242 8.0915 9.56974 8.09097 9.38398 8.41858C8.95007 9.18386 8.11735 9.60131 7.27368 9.47651C6.43001 9.35171 5.74128 8.70919 5.52828 7.84821C5.43188 7.45852 4.95625 7.34132 4.70299 7.64486C4.33717 8.08331 3.82145 8.35119 3.26992 8.39411L3.11815 8.39981L3.08121 8.39341C3.03303 8.38474 2.9992 8.37954 2.95759 8.37592C2.67824 8.35163 2.43866 8.58167 2.43866 8.87419V22.0002C2.43866 22.8286 3.08222 23.5002 3.87608 23.5002H20.1669C20.9607 23.5002 21.6043 22.8286 21.6043 22.0002V8.87719C21.6043 8.58444 21.3644 8.35432 21.0848 8.37897L20.9239 8.40019C20.3175 8.39848 19.74 8.12316 19.3409 7.64486C19.0877 7.34132 18.612 7.45852 18.5156 7.84821ZM19.1719 8.81921L19.2772 8.89502C19.6663 9.155 20.1087 9.32126 20.5719 9.37821L20.6458 9.385L20.646 22.0002C20.646 22.2763 20.4315 22.5002 20.1669 22.5002H3.87608L3.80528 22.4948C3.57423 22.459 3.3969 22.2512 3.3969 22.0002V9.385L3.47119 9.37821C3.93486 9.32126 4.37751 9.155 4.76667 8.89502L4.8716 8.81921L4.87994 8.83557C5.33743 9.70723 6.16768 10.3229 7.13918 10.4666L7.29911 10.4858C8.20433 10.5697 9.08744 10.2294 9.72065 9.57913L9.79463 9.49832L9.90523 9.6146C10.4675 10.1759 11.2228 10.5011 12.022 10.5011L12.1925 10.4961C12.9281 10.4534 13.6166 10.1358 14.1387 9.6146L14.2481 9.49832L14.3233 9.57913C14.9937 10.2677 15.9443 10.6087 16.9047 10.4666C17.8191 10.3313 18.6083 9.77802 19.0794 8.98669L19.1719 8.81921Z" fill="black"/>
<path d="M9.79824 5V8.67C9.26767 9.61073 8.24648 10.1255 7.2105 9.97454C6.17452 9.82354 5.32758 9.03644 5.06433 7.98L5.07391 5H9.79824Z" fill="#FAD4BF"/>
<path d="M9.79826 4.5H5.07393C4.80993 4.5 4.59567 4.72284 4.59479 4.99832L4.58521 7.97832L4.60062 8.10583C4.91263 9.35791 5.9164 10.2908 7.14423 10.4697C8.37206 10.6487 9.58236 10.0386 10.2112 8.92361C10.2545 8.84674 10.2774 8.75918 10.2774 8.67V5C10.2774 4.72386 10.0629 4.5 9.79826 4.5ZM9.31898 5.49995V8.52493L9.22695 8.65877C8.76795 9.26943 8.02713 9.58871 7.27679 9.47934L7.13758 9.45409C6.40334 9.29435 5.80492 8.73821 5.56816 7.99555L5.54344 7.90937L5.55151 5.49995H9.31898Z" fill="black"/>
<path d="M1.00123 5H5.07393L5.06435 7.98C4.57205 8.56317 3.86379 8.89813 3.11904 8.9C2.73875 8.90028 2.36287 8.81501 2.01701 8.65C1.38142 8.31181 0.9869 7.62435 1.00123 6.88V5Z" fill="#D52B1E"/>
<path d="M5.07392 4.5H1.00122C0.736595 4.5 0.522076 4.72386 0.522076 5V6.88C0.504153 7.80586 1.0002 8.67021 1.79935 9.09543C2.22625 9.29961 2.6702 9.40033 3.11936 9.4C4.00214 9.39778 4.84088 9.00112 5.42387 8.3105C5.50058 8.21963 5.54308 8.10278 5.54347 7.98167L5.55306 5.00168C5.55394 4.72488 5.33917 4.5 5.07392 4.5ZM4.59296 5.49995L4.58562 7.77768L4.48999 7.87016C4.10978 8.20876 3.62416 8.39873 3.11787 8.4C2.80726 8.40023 2.49945 8.3304 2.21623 8.19527L2.12153 8.13941C1.72231 7.88024 1.47038 7.40336 1.48026 6.89004L1.47994 5.49995H4.59296Z" fill="black"/>
<path d="M14.2418 5V8.67C13.7798 9.49402 12.9335 10.0004 12.0186 10.0004C11.1037 10.0004 10.2575 9.49402 9.79541 8.67V5H14.2418Z" fill="#D52B1E"/>
<path d="M14.2419 4.5H9.79543C9.5308 4.5 9.31628 4.72386 9.31628 5V8.67C9.31628 8.75875 9.33892 8.84591 9.38188 8.92252C9.92989 9.89982 10.9336 10.5004 12.0186 10.5004C13.1037 10.5004 14.1074 9.89982 14.6554 8.92252C14.6984 8.84591 14.721 8.75875 14.721 8.67V5C14.721 4.72386 14.5065 4.5 14.2419 4.5ZM13.7625 5.49995V8.52493L13.6731 8.65659C13.2791 9.18484 12.6703 9.50044 12.0186 9.50044L11.8797 9.49565C11.2847 9.45452 10.7365 9.15073 10.3707 8.66527L10.2745 8.52646V5.49995H13.7625Z" fill="black"/>
<path d="M18.9786 7.98C18.7154 9.03644 17.8684 9.82354 16.8324 9.97454C15.7965 10.1255 14.7753 9.61073 14.2447 8.67V5H18.969L18.9786 7.98Z" fill="#FAD4BF"/>
<path d="M18.969 4.5H14.2447C13.9801 4.5 13.7656 4.72386 13.7656 5V8.67C13.7656 8.75918 13.7884 8.84674 13.8318 8.92361C14.4606 10.0386 15.6709 10.6487 16.8987 10.4697C18.1266 10.2908 19.1303 9.35791 19.4423 8.10583L19.4578 7.97832L19.4482 4.99832C19.4473 4.72284 19.233 4.5 18.969 4.5ZM18.4913 5.49995L18.4993 7.90861L18.5149 7.85416C18.3004 8.71497 17.6103 9.35631 16.7662 9.47934L16.6257 9.49486C15.9243 9.54766 15.2463 9.23126 14.816 8.65877L14.7238 8.5257V5.49995H18.4913Z" fill="black"/>
<path d="M23.0418 5V6.88C23.0561 7.62435 22.6616 8.31181 22.026 8.65C21.6801 8.81501 21.3042 8.90028 20.924 8.9C20.1792 8.89813 19.4709 8.56317 18.9786 7.98L18.9691 5H23.0418Z" fill="#D52B1E"/>
<path d="M23.0417 4.5H18.969C18.7038 4.5 18.489 4.72488 18.4899 5.00168L18.4995 7.98167C18.4998 8.10278 18.5423 8.21963 18.6191 8.3105C19.2021 9.00112 20.0408 9.39778 20.9228 9.39999C21.3727 9.40033 21.8167 9.29961 22.2252 9.10472C23.0427 8.67021 23.5388 7.80586 23.5208 6.86995L23.5209 5C23.5209 4.72386 23.3063 4.5 23.0417 4.5ZM22.5619 5.49995L22.5626 6.88C22.5733 7.44285 22.2803 7.9534 21.8083 8.20456C21.5435 8.3304 21.2357 8.40023 20.9242 8.4L20.7732 8.394C20.3226 8.35925 19.8951 8.1749 19.5529 7.87016L19.4569 7.77845L19.4496 5.49995H22.5619Z" fill="black"/>
<path d="M6.27177 1.00002L5.07392 5.00004H1.00122L2.64659 1.55005C2.81052 1.21054 3.14475 0.997403 3.50904 1.00002H6.27177Z" fill="#FAD4BF"/>
<path d="M6.27179 0.500035H3.50906C2.96593 0.496151 2.46461 0.815863 2.21872 1.32511L0.572287 4.77731C0.413761 5.10971 0.645444 5.50009 1.00124 5.50009H5.07394C5.28351 5.50009 5.46876 5.35796 5.53127 5.14923L6.72912 1.14921C6.82554 0.827242 6.59504 0.500035 6.27179 0.500035ZM5.61979 1.50002L4.72102 4.49974H1.77454L3.07556 1.77287C3.15647 1.60533 3.32359 1.49875 3.50576 1.50006L5.61979 1.50002Z" fill="black"/>
<path d="M9.79824 1V5H5.07391L6.27177 1H9.79824Z" fill="#FAD4BF"/>
<path d="M9.79829 0.5H6.27181C6.06224 0.5 5.87699 0.642125 5.81448 0.850862L4.61663 4.85086C4.52021 5.17282 4.75071 5.5 5.07396 5.5H9.79829C10.0629 5.5 10.2774 5.27614 10.2774 5V1C10.2774 0.723857 10.0629 0.5 9.79829 0.5ZM9.31906 1.49995V4.49967H5.72547L6.6235 1.49995H9.31906Z" fill="black"/>
<path d="M14.2447 1H9.79828V5H14.2447V1Z" fill="#FAD4BF"/>
<path d="M14.2447 0.5H9.79829C9.53367 0.5 9.31915 0.723857 9.31915 1V5C9.31915 5.27614 9.53367 5.5 9.79829 5.5H14.2447C14.5093 5.5 14.7239 5.27614 14.7239 5V1C14.7239 0.723857 14.5093 0.5 14.2447 0.5ZM13.7653 1.49995V4.49967H10.2774V1.49995H13.7653Z" fill="black"/>
<path d="M18.969 5H14.2447V1H17.7712L18.969 5Z" fill="#FAD4BF"/>
<path d="M17.7712 0.5H14.2447C13.9801 0.5 13.7656 0.723857 13.7656 1V5C13.7656 5.27614 13.9801 5.5 14.2447 5.5H18.969C19.2923 5.5 19.5228 5.17282 19.4264 4.85086L18.2285 0.850862C18.166 0.642125 17.9808 0.5 17.7712 0.5ZM17.4186 1.49995L18.3167 4.49967H14.7238V1.49995H17.4186Z" fill="black"/>
<path d="M23.0417 5.00004H18.969L17.7712 1.00002H20.531C20.8953 0.997403 21.2296 1.21054 21.3935 1.55005L23.0417 5.00004Z" fill="#FAD4BF"/>
<path d="M20.5277 0.500035H17.7712C17.4479 0.500035 17.2174 0.82723 17.3138 1.1492L18.5117 5.14922C18.5742 5.35795 18.7594 5.50008 18.969 5.50008H23.0417C23.3977 5.50008 23.6293 5.10941 23.4705 4.77699L21.8223 1.32699C21.5755 0.815852 21.0741 0.496139 20.5277 0.500035ZM19.3207 4.49973L18.4227 1.50001L20.5343 1.50005L20.6113 1.50596C20.7625 1.53048 20.8953 1.62957 20.9656 1.77507L22.2672 4.49973H19.3207Z" fill="black"/>
<path d="M16.0309 15.0032L14.4335 20.0032H9.64207L8.20465 15.0032H16.0309Z" fill="#D52B1E"/>
<path d="M8.20467 14.5032H16.031L16.1137 14.5106L16.1769 14.5277L16.233 14.5496L16.2919 14.5837L16.3453 14.6258L16.4056 14.6914L16.4436 14.7489L16.4734 14.8113L16.4948 14.8776L16.5071 14.9467L16.51 15.0176L16.5034 15.0851L16.4865 15.1555L14.8881 20.1613C14.8228 20.3655 14.6397 20.5032 14.4335 20.5032H9.6421C9.43051 20.5032 9.24396 20.3583 9.18316 20.1468L7.74574 15.1468C7.65351 14.826 7.88372 14.5032 8.20467 14.5032ZM15.3662 15.5031H8.84812L9.9978 19.5027H14.0881L15.3662 15.5031Z" fill="black"/>
<path d="M10.6686 12.2458C10.8048 12.009 11.0991 11.9322 11.326 12.0743C11.5529 12.2163 11.6265 12.5235 11.4903 12.7603L10.0529 15.2602C9.91677 15.497 9.62245 15.5738 9.39554 15.4317C9.16863 15.2897 9.09505 14.9825 9.2312 14.7458L10.6686 12.2458Z" fill="black"/>
<path d="M12.7495 12.0743C12.9765 11.9322 13.2708 12.009 13.4069 12.2458L14.8443 14.7458C14.9805 14.9825 14.9069 15.2897 14.68 15.4317C14.4531 15.5738 14.1588 15.497 14.0226 15.2602L12.5852 12.7603C12.4491 12.5235 12.5226 12.2163 12.7495 12.0743Z" fill="black"/>
</g>
<defs>
<clipPath id="clip0_2709_1105">
<rect width="24" height="24" fill="white"/>
</clipPath>
</defs>
</svg>
