<svg width="24" height="24" viewBox="0 0 24 24" fill="none" xmlns="http://www.w3.org/2000/svg">
<path fill-rule="evenodd" clip-rule="evenodd" d="M20.6563 19.61H22.5311C22.7879 19.6051 22.9949 19.3981 23 19.1413V15.2322C23.0003 14.7325 22.8012 14.2534 22.4468 13.9011L21.125 12.5793L19.0533 8.82956C18.8859 8.53181 18.5699 8.34864 18.2283 8.35146H14.563V6.4766C11.5187 6.19044 9.23557 6.04736 7.71346 6.04736C6.34271 6.04736 4.40742 6.19044 1.9076 6.4766C1.64873 6.4766 1.43888 6.68645 1.43888 6.94531C1.14629 9.21281 1 11.0908 1 12.5793C1 14.1816 1.14629 16.369 1.43888 19.1413C1.44387 19.3981 1.65083 19.6051 1.9076 19.61H3.78246" fill="#E5E5E5"/>
<path d="M1.9461 6.97764L1.96507 6.97862L3.04403 6.86035C4.89437 6.66718 6.38295 6.56507 7.50698 6.55373L7.71347 6.55266C9.03611 6.55266 10.9522 6.66279 13.4578 6.88331L14.0583 6.93739L14.0576 8.35143C14.0576 8.60726 14.2477 8.81869 14.4944 8.85215L14.563 8.85676L18.2325 8.85675C18.3899 8.85545 18.5356 8.93987 18.611 9.0739L20.6827 12.8236L20.7677 12.9366L22.0905 14.2594C22.3494 14.5168 22.4949 14.8668 22.4947 15.2322L22.4953 19.1045L20.6563 19.1047C20.4005 19.1047 20.189 19.2948 20.1556 19.5414L20.1509 19.61C20.1509 19.8891 20.3772 20.1153 20.6563 20.1153H22.541C23.0691 20.105 23.4947 19.6794 23.5053 19.1413V15.2325C23.5057 14.5981 23.2529 13.9898 22.8041 13.5437L21.5332 12.2724L19.4938 8.58192C19.2546 8.1564 18.8181 7.88294 18.3395 7.84951L18.2283 7.84609L15.0689 7.84565L15.0683 6.47656C15.0683 6.2395 14.9043 6.03783 14.6794 5.98478L14.6103 5.97344L13.542 5.87614C11.0112 5.65346 9.06974 5.54199 7.71347 5.54199C6.32003 5.54199 4.36739 5.68635 1.9076 5.97122C1.36965 5.97122 0.933548 6.40732 0.937702 6.88061L0.833929 7.72012C0.607901 9.6365 0.494669 11.2556 0.494669 12.5793L0.499086 13.0835C0.525587 14.6484 0.671211 16.6804 0.933643 19.1511C0.943903 19.6793 1.36961 20.105 1.9076 20.1153H3.78247C4.06156 20.1153 4.2878 19.8891 4.2878 19.61C4.2878 19.3309 4.06156 19.1047 3.78247 19.1047L1.93896 19.1045L1.94143 19.0883L1.82568 17.9429C1.61202 15.7238 1.50534 13.935 1.50534 12.5793C1.50534 11.2873 1.61799 9.68926 1.84659 7.74262L1.94098 6.97041L1.9461 6.97764Z" fill="#7F7F7F"/>
<path d="M18.7814 21.4851C17.746 21.4851 16.9065 20.6457 16.9065 19.6102C16.9065 18.5748 17.746 17.7354 18.7814 17.7354C19.8169 17.7354 20.6563 18.5748 20.6563 19.6102C20.6563 20.6457 19.8169 21.4851 18.7814 21.4851Z" fill="#7F7F7F" stroke="#7F7F7F" stroke-width="1.5" stroke-linecap="round" stroke-linejoin="round"/>
<path d="M5.65733 21.4851C4.62187 21.4851 3.78246 20.6457 3.78246 19.6102C3.78246 18.5748 4.62187 17.7354 5.65733 17.7354C6.69279 17.7354 7.5322 18.5748 7.5322 19.6102C7.5322 20.6457 6.69279 21.4851 5.65733 21.4851Z" fill="#7F7F7F" stroke="#7F7F7F" stroke-width="1.5" stroke-linecap="round" stroke-linejoin="round"/>
<path d="M16.9066 19.6101H7.53221" stroke="#7F7F7F" stroke-width="1.5" stroke-linecap="round" stroke-linejoin="round"/>
<path d="M14.563 8.36084V19.6101" stroke="#7F7F7F" stroke-linecap="round" stroke-linejoin="round"/>
<path fill-rule="evenodd" clip-rule="evenodd" d="M6.09676 4.87487C6.09676 3.83941 6.93617 3 7.97163 3C9.00709 3 9.8465 3.83941 9.8465 4.87487V5.8123H6.09676V4.87487Z" fill="#B2B2B2"/>
<path d="M7.97163 2.49463C9.28618 2.49463 10.3518 3.56028 10.3518 4.87483V5.81227C10.3518 6.09136 10.1256 6.3176 9.8465 6.3176H6.09677C5.81768 6.3176 5.59143 6.09136 5.59143 5.81227V4.87483C5.59143 3.56028 6.65708 2.49463 7.97163 2.49463ZM7.97163 3.5053L7.86942 3.50906C7.16079 3.56134 6.6021 4.15284 6.6021 4.87483L6.60225 5.30632H9.34117V4.87483C9.34117 4.11846 8.728 3.5053 7.97163 3.5053Z" fill="#7F7F7F"/>
<path fill-rule="evenodd" clip-rule="evenodd" d="M4.71991 11.1732C4.71991 10.9143 4.92976 10.7045 5.18863 10.7045H6.59478V9.29831C6.59478 9.03944 6.80463 8.82959 7.0635 8.82959H8.93837C9.19723 8.82959 9.40708 9.03944 9.40708 9.29831V10.7045H10.8132C11.0721 10.7045 11.282 10.9143 11.282 11.1732V13.048C11.282 13.3069 11.0721 13.5168 10.8132 13.5168H9.40708V14.9229C9.40708 15.1818 9.19723 15.3916 8.93837 15.3916H7.0635C6.80463 15.3916 6.59478 15.1818 6.59478 14.9229V13.5168H5.18863C4.92976 13.5168 4.71991 13.3069 4.71991 13.048V11.1732Z" fill="#B2B2B2"/>
<path d="M7.0635 8.32422H8.93837L9.03218 8.32868C9.52612 8.37588 9.91242 8.79196 9.91242 9.29827L9.91283 10.1987L10.8132 10.1991C11.3512 10.1991 11.7873 10.6352 11.7873 11.1731V13.048L11.7828 13.1418C11.7356 13.6358 11.3196 14.0221 10.8132 14.0221L9.91283 14.0217L9.91242 14.9229C9.91242 15.4608 9.47633 15.8969 8.93837 15.8969H7.0635L6.9697 15.8925C6.47575 15.8453 6.08945 15.4292 6.08945 14.9229L6.0898 14.0217L5.18863 14.0221C4.65068 14.0221 4.21458 13.586 4.21458 13.048V11.1731L4.21904 11.0793C4.26624 10.5854 4.68232 10.1991 5.18863 10.1991L6.0898 10.1987L6.08945 9.29827C6.08945 8.76032 6.52555 8.32422 7.0635 8.32422ZM7.10047 9.33489L7.10012 10.7044L7.09551 10.773C7.06205 11.0196 6.85062 11.2098 6.59479 11.2098L5.22534 11.2093V13.011L6.59479 13.0114L6.66336 13.016C6.91001 13.0495 7.10012 13.2609 7.10012 13.5167L7.10047 14.8862H8.90216L8.90175 13.5167L8.90637 13.4482C8.93983 13.2015 9.15126 13.0114 9.40709 13.0114L10.7766 13.011V11.2093L9.40709 11.2098L9.33852 11.2051C9.09186 11.1717 8.90175 10.9603 8.90175 10.7044L8.90216 9.33489H7.10047Z" fill="#7F7F7F"/>
<path d="M14.563 12.074C14.2839 12.074 14.0576 12.3002 14.0576 12.5793C14.0576 12.8584 14.2839 13.0846 14.563 13.0846H21.125C21.4041 13.0846 21.6303 12.8584 21.6303 12.5793C21.6303 12.3002 21.4041 12.074 21.125 12.074H14.563Z" fill="#7F7F7F"/>
</svg>
