<svg width="24" height="22" viewBox="0 0 24 22" fill="none" xmlns="http://www.w3.org/2000/svg">
<path d="M10.6832 13.7961C10.6832 13.7961 7.75138 12.4353 5.80247 14.1479L3.9375 15.4738L6.5041 19.4844L7.68572 18.6443L14.9346 19.2435C15.5068 19.2908 16.0761 19.1202 16.5392 18.7628L22.4912 14.1681C22.737 13.9784 22.7549 13.5984 22.5282 13.384C21.9225 12.8112 21.0257 12.7436 20.3488 13.2196L15.8213 16.4035L11.056 16.4664L14.8485 14.9159C15.3633 14.7055 15.6274 14.103 15.4458 13.5534C15.2714 13.0254 14.7435 12.7248 14.2289 12.8607L10.6832 13.7961Z" fill="#DEE2E6"/>
<path d="M1.125 16.6719L3.35873 15.122L6.54466 19.9836L4.31092 21.5335L1.125 16.6719Z" fill="#ADB5BD"/>
<path d="M22.9745 13.149C22.2344 12.4661 21.1396 12.3855 20.3126 12.953L15.7444 16.0874L12.8587 16.1245L14.9758 15.2801C15.6819 14.9984 16.0399 14.2017 15.7908 13.4662C15.5512 12.7585 14.8374 12.362 14.1304 12.544L10.5964 13.4538C10.0039 13.2129 7.28668 12.247 5.34643 13.8948L3.72992 15.016L3.64749 14.8903C3.54683 14.7302 3.32006 14.6848 3.16842 14.7946L0.902168 16.3665C0.744169 16.4761 0.702463 16.6967 0.808995 16.8592L3.99682 21.7191C4.09763 21.8791 4.32381 21.9246 4.47589 21.8148L6.74219 20.2429C6.90019 20.1333 6.9419 19.9127 6.83537 19.7502L6.75383 19.6259L7.58232 19.0513L14.9125 19.6424C15.5824 19.6967 16.2502 19.5013 16.7925 19.0929L22.91 14.4856C23.3345 14.1828 23.3678 13.4936 22.9745 13.149ZM4.37606 21.028L1.57419 16.7564L3.2683 15.5814L6.07017 19.853L4.37606 21.028ZM22.5022 13.9131L16.3848 18.5204C15.9756 18.8285 15.4721 18.9756 14.9664 18.9349L7.51616 18.3341C7.43847 18.3278 7.36093 18.3488 7.29625 18.3937L6.36783 19.0376L4.11587 15.6044L5.74653 14.4733C5.75619 14.4666 5.76561 14.4594 5.77453 14.4517C7.58592 12.8988 10.4016 14.138 10.4312 14.1513C10.5012 14.1829 10.5795 14.1898 10.6538 14.1707L14.298 13.2325C14.6559 13.1403 15.0176 13.3412 15.1391 13.6997C15.2652 14.0722 15.0839 14.4758 14.7262 14.6184L10.8284 16.1731C10.6727 16.2352 10.5827 16.4029 10.6144 16.5714C10.6458 16.7384 10.788 16.8588 10.9531 16.8588H10.9575L15.8552 16.7957C15.9219 16.7949 15.9869 16.7741 16.0424 16.7361L20.6957 13.5434C21.2605 13.1558 22.008 13.2109 22.5136 13.6773C22.5867 13.7683 22.5837 13.8299 22.5022 13.9131Z" fill="#7B858D"/>
<path d="M14.6105 8.92372C14.1838 9.26547 12.7969 10.364 12.5005 10.6203C12.2042 10.8766 11.7537 10.8766 11.4574 10.6203C11.2796 10.4738 9.60816 9.0946 9.38294 8.91152C7.91305 7.71539 7.16625 6.95866 6.5617 6.03105C6.04013 5.15227 5.83861 4.06599 6.01642 3.02854L6.06384 2.82104C6.53799 0.59967 9.70299 0.611888 11.6115 2.34505L12.0027 2.76002L12.6072 2.11313C12.702 2.01549 12.5361 2.17416 12.6072 2.11313C14.5038 0.379974 17.4555 0.611876 17.9296 2.83325C18.1904 3.96835 18.0126 5.15227 17.4318 6.04326C16.8391 6.97086 16.0804 7.7276 14.6105 8.92372Z" fill="#ADB5BD"/>
<path fill-rule="evenodd" clip-rule="evenodd" d="M15.1536 9.59189L15.1509 9.59412C15.0443 9.67926 14.8853 9.8056 14.7014 9.95164C14.1236 10.4108 13.3007 11.0645 13.0916 11.2449C12.4592 11.7905 11.5125 11.7934 10.8768 11.2534C10.8342 11.2184 10.7349 11.1367 10.6015 11.0269C10.073 10.5922 9.01092 9.71842 8.83763 9.57791C7.35818 8.37706 6.53392 7.56017 5.85951 6.528L5.84903 6.51195L5.83923 6.49548C5.21111 5.43986 4.97305 4.14829 5.1851 2.91416L5.18936 2.88942L5.24048 2.66627C5.58828 1.05692 6.93878 0.327802 8.29386 0.255853C9.52581 0.190442 10.8919 0.633735 11.9716 1.49897C11.974 1.49667 11.9763 1.49445 11.9786 1.4923C11.9874 1.48392 11.9996 1.47239 12.0129 1.4605C12.0165 1.45724 12.0211 1.45316 12.0264 1.44859C12.0313 1.44432 12.0389 1.43776 12.0483 1.43007C12.0531 1.42614 12.0596 1.42092 12.0673 1.41491C12.0736 1.40998 12.0831 1.40273 12.0948 1.39424C13.1971 0.443049 14.6011 0.00744474 15.8625 0.152209C17.1961 0.305268 18.4197 1.13458 18.7532 2.67816C19.057 4.00498 18.8597 5.42754 18.1365 6.53652C17.4706 7.57486 16.6289 8.39442 15.1564 9.58965L15.1536 9.59189ZM17.3695 6.04115C17.9437 5.16262 18.1194 3.99525 17.8616 2.87603C17.4532 0.96748 15.1853 0.548348 13.3682 1.60271C13.3502 1.61317 13.3322 1.62378 13.3142 1.63453C13.0763 1.77713 12.8466 1.94525 12.6303 2.13885C12.6203 2.14784 12.6103 2.15688 12.6003 2.16598L12.0027 2.80382L11.616 2.39465C11.5288 2.31567 11.439 2.24031 11.3468 2.16862C9.44589 0.689317 6.57908 0.774914 6.13203 2.86399L6.08516 3.06858C5.90939 4.09153 6.1086 5.16262 6.62418 6.02912C7.2218 6.94375 7.96002 7.68991 9.41304 8.86931C9.58929 9.01221 10.6614 9.89423 11.1878 10.3272C11.3263 10.4412 11.427 10.5241 11.4637 10.5542C11.7566 10.8069 12.2019 10.8069 12.4948 10.5542C12.7196 10.3602 13.5793 9.67729 14.1577 9.21778C14.333 9.07849 14.4825 8.95973 14.5806 8.88134C16.0336 7.70194 16.7836 6.95579 17.3695 6.04115Z" fill="#7B858D"/>
</svg>
