<svg width="24" height="24" viewBox="0 0 24 24" fill="none" xmlns="http://www.w3.org/2000/svg">
<path d="M9.78434 21.5673C12.1815 21.5673 14.1248 19.6399 14.1248 17.2625C14.1248 14.885 12.1815 12.9577 9.78434 12.9577C7.38718 12.9577 5.44391 14.885 5.44391 17.2625C5.44391 19.6399 7.38718 21.5673 9.78434 21.5673Z" fill="#D52B1E"/>
<path d="M11.2312 5.78309C12.5629 5.78309 13.6425 4.71236 13.6425 3.39154C13.6425 2.07073 12.5629 1 11.2312 1C9.89942 1 8.81982 2.07073 8.81982 3.39154C8.81982 4.71236 9.89942 5.78309 11.2312 5.78309Z" fill="#FFF3F2"/>
<path d="M11.2312 0.484375C9.61229 0.484375 8.29993 1.78596 8.29993 3.39154C8.29993 4.99713 9.61229 6.29871 11.2312 6.29871C12.8501 6.29871 14.1624 4.99713 14.1624 3.39154C14.1624 1.78596 12.8501 0.484375 11.2312 0.484375ZM11.2312 1.51562C12.2758 1.51562 13.1226 2.3555 13.1226 3.39154C13.1226 4.42758 12.2758 5.26746 11.2312 5.26746C10.1865 5.26746 9.33972 4.42758 9.33972 3.39154C9.33972 2.3555 10.1865 1.51562 11.2312 1.51562Z" fill="black"/>
<path d="M20.2786 19.8454L18.4334 16.9181C17.8181 15.9385 16.7352 15.3449 15.5716 15.3493H13.1603C12.8939 15.3493 12.678 15.1351 12.678 14.871V13.436H16.0539C16.8529 13.436 17.5007 12.7936 17.5007 12.0011C17.5007 11.2086 16.8529 10.5662 16.0539 10.5662H12.678V9.13125C12.678 8.33876 12.0302 7.69632 11.2312 7.69632C10.4321 7.69632 9.78436 8.33876 9.78436 9.13125V16.7842C9.78436 17.5767 10.4321 18.2191 11.2312 18.2191H15.5716C15.7379 18.2191 15.8924 18.3041 15.9806 18.4439L17.8257 21.3712C18.2506 22.0429 19.144 22.2459 19.8214 21.8246C20.4987 21.4033 20.7034 20.5171 20.2786 19.8454Z" fill="#FFF3F2"/>
<path d="M11.2312 7.18069C10.145 7.18069 9.26447 8.05399 9.26447 9.13125V16.7842L9.26805 16.903C9.32997 17.9249 10.1852 18.7347 11.2312 18.7347L15.5503 18.7341L17.3849 21.6445C17.9627 22.5582 19.177 22.8341 20.0976 22.2614C21.0182 21.6888 21.2964 20.4844 20.719 19.5714L18.8742 16.6448L18.7786 16.4999C18.0552 15.4559 16.8551 14.8288 15.5696 14.8336L13.1976 14.8333V13.9512L16.0539 13.9516C17.14 13.9516 18.0206 13.0784 18.0206 12.0011L18.017 11.8823C17.9551 10.8603 17.0998 10.0505 16.0539 10.0505L13.1976 10.0503L13.1979 9.13125C13.1979 8.05399 12.3174 7.18069 11.2312 7.18069ZM11.2312 8.21194C11.7431 8.21194 12.1581 8.62353 12.1581 9.13125V10.5662C12.1581 10.8509 12.3908 11.0818 12.678 11.0818H16.0539C16.5658 11.0818 16.9808 11.4934 16.9808 12.0011C16.9808 12.5088 16.5658 12.9204 16.0539 12.9204H12.678C12.3908 12.9204 12.1581 13.1513 12.1581 13.436V14.871C12.1581 15.4199 12.6068 15.8649 13.1602 15.8649H15.5716C16.557 15.8612 17.4721 16.3629 17.9921 17.1907L19.8377 20.1187C20.1104 20.5499 19.9792 21.1178 19.5451 21.3878C19.111 21.6578 18.5384 21.5277 18.2662 21.0972L16.4214 18.1706C16.2383 17.88 15.9171 17.7035 15.5716 17.7035H11.2312C10.7192 17.7035 10.3043 17.2919 10.3043 16.7842V9.13125C10.3043 8.62353 10.7192 8.21194 11.2312 8.21194Z" fill="black"/>
<path d="M7.88038 11.2972C8.15407 11.2112 8.44632 11.3614 8.53313 11.6329C8.61994 11.9043 8.46844 12.1941 8.19475 12.2802C5.96389 12.982 4.46745 15.0595 4.5213 17.38C4.57515 19.7006 6.16637 21.7076 8.42742 22.3068C10.6885 22.9061 13.077 21.9538 14.2908 19.9692C14.4397 19.7257 14.7595 19.6481 15.005 19.7958C15.2505 19.9435 15.3288 20.2606 15.1798 20.5041C13.7264 22.8804 10.8664 24.0206 8.15899 23.3031C5.4516 22.5856 3.54627 20.1824 3.48179 17.4038C3.41731 14.6251 5.20914 12.1376 7.88038 11.2972Z" fill="black"/>
</svg>
