<svg width="24" height="24" viewBox="0 0 24 24" fill="none" xmlns="http://www.w3.org/2000/svg">
<path fill-rule="evenodd" clip-rule="evenodd" d="M21.0285 20.0255H22.9839C23.2518 20.0202 23.4676 19.8022 23.473 19.5318V15.4149C23.4732 14.8886 23.2656 14.384 22.896 14.013L21.5173 12.6209L19.3565 8.67181C19.182 8.35823 18.8524 8.16533 18.4961 8.1683H14.6732V6.19375C11.4981 5.89238 9.11674 5.7417 7.52919 5.7417C6.0995 5.7417 4.08101 5.89238 1.4737 6.19375C1.20371 6.19375 0.984835 6.41476 0.984835 6.68739C0.679668 9.07544 0.527086 11.0533 0.527086 12.6209C0.527086 14.3084 0.679668 16.6121 0.984835 19.5318C0.990036 19.8022 1.20589 20.0202 1.4737 20.0255H3.42918" fill="#E5E5E5"/>
<path fill-rule="evenodd" clip-rule="evenodd" d="M18.7814 8.55786H14.5054V12.5969H21L18.7814 8.55786Z" fill="#E5E5E5"/>
<path d="M1.51383 6.72144L1.53362 6.72248L2.65897 6.59793C4.58887 6.39449 6.14144 6.28694 7.3138 6.275L7.52917 6.27388C8.90867 6.27388 10.9072 6.38986 13.5205 6.6221L14.1467 6.67906L14.1461 8.16827C14.1461 8.43771 14.3444 8.66038 14.6016 8.69562L14.6731 8.70048L18.5005 8.70046C18.6647 8.69909 18.8166 8.788 18.8952 8.92916L21.056 12.8782L21.1446 12.9972L22.5244 14.3904C22.7943 14.6614 22.9461 15.0301 22.9459 15.4149L22.9466 19.4931L21.0284 19.4932C20.7616 19.4932 20.5411 19.6934 20.5062 19.9532L20.5014 20.0254C20.5014 20.3194 20.7374 20.5576 21.0284 20.5576H22.9942C23.545 20.5467 23.9889 20.0985 24 19.5318V15.4151C24.0003 14.7471 23.7367 14.1064 23.2686 13.6366L21.9431 12.2977L19.816 8.41102C19.5665 7.96288 19.1113 7.67488 18.612 7.63967L18.4961 7.63607L15.2009 7.6356L15.2002 6.19373C15.2002 5.94406 15.0292 5.73167 14.7946 5.67581L14.7225 5.66386L13.6083 5.56139C10.9687 5.32687 8.94375 5.20947 7.52917 5.20947C6.07582 5.20947 4.03923 5.36151 1.47368 5.66153C0.912596 5.66153 0.457748 6.12081 0.462082 6.61926L0.353846 7.5034C0.118099 9.52167 0 11.2268 0 12.6209L0.00460815 13.152C0.0322475 14.8 0.184134 16.9401 0.457848 19.5421C0.468548 20.0984 0.91256 20.5467 1.47368 20.5576H3.42916C3.72025 20.5576 3.95622 20.3194 3.95622 20.0254C3.95622 19.7315 3.72025 19.4932 3.42916 19.4932L1.50639 19.4931L1.50896 19.4759L1.38824 18.2696C1.16539 15.9326 1.05412 14.0487 1.05412 12.6209C1.05412 11.2603 1.17162 9.57723 1.41004 7.5271L1.5085 6.71383L1.51383 6.72144Z" fill="#7F7F7F"/>
<path d="M19.073 21.9999C17.993 21.9999 17.1175 21.1158 17.1175 20.0253C17.1175 18.9348 17.993 18.0508 19.073 18.0508C20.1529 18.0508 21.0284 18.9348 21.0284 20.0253C21.0284 21.1158 20.1529 21.9999 19.073 21.9999Z" fill="#7F7F7F" stroke="#7F7F7F" stroke-width="1.5" stroke-linecap="round" stroke-linejoin="round"/>
<path d="M5.38461 21.9999C4.30463 21.9999 3.42913 21.1158 3.42913 20.0253C3.42913 18.9348 4.30463 18.0508 5.38461 18.0508C6.46459 18.0508 7.34009 18.9348 7.34009 20.0253C7.34009 21.1158 6.46459 21.9999 5.38461 21.9999Z" fill="#7F7F7F" stroke="#7F7F7F" stroke-width="1.5" stroke-linecap="round" stroke-linejoin="round"/>
<path d="M17.1175 20.0254H7.34011" stroke="#7F7F7F" stroke-width="1.5" stroke-linecap="round" stroke-linejoin="round"/>
<path d="M14.6731 7.646C14.382 7.646 14.1461 7.88427 14.1461 8.1782V20.0255C14.1461 20.3194 14.382 20.5577 14.6731 20.5577C14.9642 20.5577 15.2002 20.3194 15.2002 20.0255V8.1782C15.2002 7.88427 14.9642 7.646 14.6731 7.646Z" fill="#7F7F7F"/>
<path fill-rule="evenodd" clip-rule="evenodd" d="M5.84295 4.50677C5.84295 3.41626 6.71845 2.53223 7.79843 2.53223C8.87841 2.53223 9.75391 3.41626 9.75391 4.50677V5.49405H5.84295V4.50677Z" fill="#B2B2B2"/>
<path d="M7.79841 2C9.16948 2 10.2809 3.12231 10.2809 4.50675V5.49402C10.2809 5.78795 10.045 6.02622 9.75388 6.02622H5.84293C5.55184 6.02622 5.31587 5.78795 5.31587 5.49402V4.50675C5.31587 3.12231 6.42734 2 7.79841 2ZM7.79841 3.0644L7.6918 3.06836C6.9527 3.12342 6.36999 3.74637 6.36999 4.50675L6.37014 4.96117H9.22682V4.50675C9.22682 3.71016 8.5873 3.0644 7.79841 3.0644Z" fill="#7F7F7F"/>
<path fill-rule="evenodd" clip-rule="evenodd" d="M10.7519 9.70753C10.9274 9.85488 10.7519 10.1401 10.5236 10.1401C9.32119 10.1401 8.3464 11.1244 8.3464 12.3386C8.3464 13.5527 9.32119 14.537 10.5236 14.537C10.7519 14.537 10.9274 14.8222 10.7519 14.9696C10.1651 15.4621 9.41087 15.7583 8.58815 15.7583C6.71768 15.7583 5.20135 14.2272 5.20135 12.3385C5.20135 10.4498 6.71768 8.9187 8.58815 8.9187C9.41089 8.9187 10.1651 9.21493 10.7519 9.70753Z" fill="#B2B2B2"/>
<path d="M8.5883 8.38647C6.42673 8.38647 4.67444 10.1559 4.67444 12.3385C4.67444 14.5211 6.42673 16.2905 8.5883 16.2905C9.51404 16.2905 10.3915 15.9642 11.089 15.3788C11.6676 14.893 11.2354 14.0687 10.5982 14.0083L10.5238 14.0048C9.61242 14.0048 8.87361 13.2588 8.87361 12.3385C8.87361 11.4566 9.55213 10.7348 10.4108 10.6761L10.5238 10.6723C11.2007 10.6723 11.6899 9.80271 11.089 9.29826C10.3915 8.71276 9.51406 8.38647 8.5883 8.38647ZM8.5883 9.45088L8.75678 9.45581C9.09197 9.47546 9.41583 9.55359 9.71685 9.68422L9.77921 9.71343L9.7196 9.73065C8.61877 10.0764 7.81948 11.1132 7.81948 12.3385L7.823 12.4791C7.88141 13.6426 8.66111 14.614 9.7196 14.9464L9.77851 14.9631L9.71682 14.9928C9.36564 15.1452 8.98337 15.2261 8.5883 15.2261C7.00891 15.2261 5.72856 13.9333 5.72856 12.3385C5.72856 10.7437 7.00891 9.45088 8.5883 9.45088Z" fill="#7F7F7F"/>
<path d="M14.6731 12.0886C14.3821 12.0886 14.1461 12.3269 14.1461 12.6208C14.1461 12.9148 14.3821 13.153 14.6731 13.153H21.5173C21.8084 13.153 22.0444 12.9148 22.0444 12.6208C22.0444 12.3269 21.8084 12.0886 21.5173 12.0886H14.6731Z" fill="#7F7F7F"/>
</svg>
