<svg width="24" height="24" viewBox="0 0 24 24" fill="none" xmlns="http://www.w3.org/2000/svg">
<path d="M18.6796 2.42647H5.32035C4.55051 2.42647 3.84037 2.83518 3.46213 3.49594L0.693413 8.33265C0.222862 9.15463 0.365824 10.1849 1.04303 10.8523L10.8571 20.5234C11.4883 21.1454 12.5117 21.1454 13.1429 20.5234L22.9569 10.8523C23.6341 10.1849 23.7771 9.15467 23.3066 8.33266L20.5378 3.49594C20.1596 2.83519 19.4494 2.42647 18.6796 2.42647ZM18.6796 3.57326C19.0295 3.57326 19.3523 3.75904 19.5242 4.05935L22.293 8.8961C22.5068 9.26972 22.4418 9.73803 22.134 10.0414L12.32 19.7125C12.1433 19.8866 11.8567 19.8866 11.68 19.7125L1.86592 10.0414C1.55809 9.73803 1.49311 9.26972 1.70699 8.8961L4.47572 4.05938C4.64765 3.75903 4.97043 3.57326 5.32035 3.57326H18.6796Z" fill="black"/>
<path fill-rule="evenodd" clip-rule="evenodd" d="M22.7998 8.61451L20.031 3.7778C19.756 3.29724 19.2395 3 18.6796 3H5.32038C4.7605 3 4.24404 3.29724 3.96895 3.7778L1.20023 8.61451C0.858014 9.21232 0.961989 9.9616 1.45451 10.447L11.2686 20.1181C11.6725 20.5162 12.3275 20.5162 12.7314 20.1181L22.5455 10.447C23.038 9.9616 23.142 9.21232 22.7998 8.61451Z" fill="#B09979"/>
<path d="M18.6796 2.42647H5.32035C4.55051 2.42647 3.84037 2.83518 3.46213 3.49594L0.693413 8.33265C0.222862 9.15463 0.365824 10.1849 1.04303 10.8523L10.8571 20.5234C11.4883 21.1454 12.5117 21.1454 13.1429 20.5234L22.9569 10.8523C23.6341 10.1849 23.7771 9.15467 23.3066 8.33266L20.5378 3.49594C20.1596 2.83519 19.4494 2.42647 18.6796 2.42647ZM18.6796 3.57326C19.0295 3.57326 19.3523 3.75904 19.5242 4.05935L22.293 8.8961C22.5068 9.26972 22.4418 9.73803 22.134 10.0414L12.32 19.7125C12.1433 19.8866 11.8567 19.8866 11.68 19.7125L1.86592 10.0414C1.55809 9.73803 1.49311 9.26972 1.70699 8.8961L4.47572 4.05938C4.64765 3.75903 4.97043 3.57326 5.32035 3.57326H18.6796Z" fill="black"/>
<path fill-rule="evenodd" clip-rule="evenodd" d="M5.67347 3.56023H18.3298C18.8649 3.56023 19.3595 3.84534 19.6277 4.30841L22.4125 9.11619H1.60724L4.37355 4.31176C4.64127 3.8468 5.13694 3.56023 5.67347 3.56023Z" fill="#DFD6C9"/>
<path d="M8.73139 2.86003C8.80983 2.55293 9.12605 2.36665 9.43769 2.44395C9.74932 2.52126 9.93836 2.83287 9.85991 3.13997L8.33139 9.12374C8.25478 9.42368 8.27644 9.73984 8.39329 10.0269L12.5007 20.1192L12.5063 20.1273C12.5441 20.191 12.5699 20.2625 12.5804 20.3389L12.5857 20.4167C12.5857 20.707 12.3668 20.9469 12.0828 20.9848L11.995 20.9901C11.7573 20.9901 11.5435 20.8475 11.455 20.6301L7.31319 10.4538C7.10491 9.94206 7.06629 9.3785 7.20286 8.8438L8.73139 2.86003Z" fill="black"/>
<path d="M14.5612 2.44395C14.8729 2.36665 15.1891 2.55293 15.2676 2.86003L16.7961 8.84381C16.9327 9.3785 16.894 9.94206 16.6857 10.4538L12.5439 20.6301C12.4243 20.924 12.0856 21.0667 11.7873 20.9488C11.489 20.831 11.3442 20.4971 11.4638 20.2032L15.6056 10.027C15.7225 9.73984 15.7442 9.42368 15.6675 9.12374L14.139 3.13997C14.0606 2.83287 14.2496 2.52126 14.5612 2.44395Z" fill="black"/>
<path d="M22.8614 9.05248C23.1827 9.05248 23.4432 9.3092 23.4432 9.62587C23.4432 9.94255 23.1827 10.1993 22.8614 10.1993H1.13838C0.817029 10.1993 0.556519 9.94255 0.556519 9.62587C0.556519 9.3092 0.817029 9.05248 1.13838 9.05248H22.8614Z" fill="black"/>
</svg>
