<svg width="24" height="24" viewBox="0 0 24 24" fill="none" xmlns="http://www.w3.org/2000/svg">
<g clip-path="url(#clip0_2709_1943)">
<path d="M10.5613 13.1123L10.4231 18.9105C10.4231 19.1893 10.3123 19.4567 10.1151 19.6539C9.91797 19.851 9.65055 19.9618 9.37172 19.9618C9.09289 19.9618 8.82547 19.851 8.62831 19.6539C8.43114 19.4567 8.32038 19.1893 8.32038 18.9105V18.5714C8.32038 17.9737 7.97028 17.4354 7.3768 17.3676C7.16645 17.3445 6.95497 17.3333 6.74337 17.334C6.50524 17.334 6.29392 17.3471 6.10993 17.3681C5.51592 17.4354 5.16635 17.9737 5.16635 18.5714V18.911C5.16635 20.0263 5.60942 21.096 6.39808 21.8846C7.18674 22.6733 8.25639 23.1164 9.37172 23.1164C10.4871 23.1164 11.5567 22.6733 12.3454 21.8846C13.134 21.096 13.5771 20.0263 13.5771 18.911L13.4388 13.1123" fill="#FFF3F2"/>
<path d="M10.5613 13.1123L10.4231 18.9105C10.4231 19.1893 10.3123 19.4567 10.1151 19.6539C9.91797 19.851 9.65055 19.9618 9.37172 19.9618C9.09289 19.9618 8.82547 19.851 8.62831 19.6539C8.43115 19.4567 8.32038 19.1893 8.32038 18.9105V18.5714C8.32038 17.9737 7.97028 17.4354 7.3768 17.3676C7.16645 17.3445 6.95497 17.3333 6.74336 17.334C6.50524 17.334 6.29392 17.3471 6.10993 17.3681C5.51592 17.4354 5.16635 17.9737 5.16635 18.5714V18.911C5.16635 20.0263 5.60942 21.096 6.39808 21.8846C7.18674 22.6733 8.25639 23.1164 9.37172 23.1164C10.4871 23.1164 11.5567 22.6733 12.3454 21.8846C13.134 21.096 13.5771 20.0263 13.5771 18.911L13.4388 13.1123" stroke="black" stroke-width="1.2" stroke-linecap="round" stroke-linejoin="round"/>
<path d="M10.923 2.6653L11.6463 1.21813C11.679 1.15259 11.7294 1.09747 11.7917 1.05894C11.854 1.02041 11.9258 1 11.999 1C12.0723 1 12.1441 1.02041 12.2064 1.05894C12.2687 1.09747 12.319 1.15259 12.3518 1.21813L13.0751 2.66477C18.3186 3.14839 22.4899 7.0883 22.9892 10.6092C23.0513 11.0492 22.8421 11.4677 22.4415 11.6606C21.3376 12.1915 18.4732 13.1288 12.0001 13.1288C5.52644 13.1288 2.66153 12.1915 1.55815 11.6606C1.15759 11.4677 0.94837 11.0492 1.01092 10.6092C1.51031 7.0883 5.67994 3.14997 10.923 2.6653Z" fill="#D52B1E" stroke="black" stroke-width="1.2" stroke-linecap="round" stroke-linejoin="round"/>
</g>
<defs>
<clipPath id="clip0_2709_1943">
<rect width="24" height="24" fill="white"/>
</clipPath>
</defs>
</svg>
