<svg width="24" height="24" viewBox="0 0 24 24" fill="none" xmlns="http://www.w3.org/2000/svg">
<g clip-path="url(#clip0_267_125)">
<path fill-rule="evenodd" clip-rule="evenodd" d="M3.08515 6.45242C3.67487 6.49492 4.02133 6.97167 4.04696 7.55517C4.09142 8.5668 4.14443 10.6301 4.14443 14.7176C4.14443 15.3047 4.14333 15.85 4.14133 16.3564C5.3826 16.315 7.71492 16.2706 12.0055 16.2706H21.9535C22.5338 16.2706 23.0039 16.7373 23 17.3106C22.9834 19.7294 22.9446 21.1094 22.9108 21.8798C22.8852 22.4633 22.5386 22.9404 21.949 22.9829C21.8008 22.9935 21.6307 23 21.436 23C21.2413 23 21.0712 22.9935 20.9231 22.9829C20.3333 22.9404 19.9869 22.4633 19.9613 21.8798C19.938 21.3506 19.9124 20.5337 19.8933 19.2899C18.658 19.3314 16.3234 19.3765 12.0055 19.3765C7.68432 19.3765 5.34942 19.3314 4.11494 19.2898C4.09582 20.5339 4.07022 21.3509 4.04696 21.8801C4.02133 22.4636 3.67487 22.9404 3.08515 22.9829C2.93703 22.9935 2.76693 23 2.57221 23C2.3775 23 2.20739 22.9935 2.05928 22.9829C1.46955 22.9404 1.1231 22.4636 1.09746 21.8801C1.053 20.8685 1 18.8052 1 14.7176C1 10.6301 1.053 8.5668 1.09746 7.55517C1.1231 6.97167 1.46955 6.49492 2.05928 6.45242C2.20739 6.44176 2.3775 6.43529 2.57221 6.43529C2.76693 6.43529 2.93703 6.44176 3.08515 6.45242Z" fill="#FFF3F2"/>
<path d="M2.57212 5.91966C2.37354 5.91966 2.19014 5.926 2.02123 5.93816C1.17219 5.99935 0.613578 6.67377 0.575834 7.53281L0.552864 8.13572C0.50948 9.44686 0.481875 11.3972 0.478271 14.1189L0.482035 16.6131C0.49341 19.0817 0.527415 20.8007 0.575828 21.9025C0.613581 22.7615 1.17219 23.4359 2.0212 23.4971C2.19014 23.5093 2.37354 23.5156 2.57212 23.5156C2.77069 23.5156 2.9541 23.5093 3.123 23.4971C3.97205 23.4359 4.53066 22.7615 4.5684 21.9025L4.59463 21.1954C4.60491 20.8683 4.61434 20.4999 4.62277 20.0876L4.62762 19.8209L5.6354 19.8445C7.06346 19.8721 8.94776 19.8891 11.3556 19.8917L14.769 19.8851C16.198 19.8774 17.3912 19.8635 18.3704 19.8446L19.38 19.8209L19.4041 20.8782C19.4149 21.2705 19.4268 21.6106 19.4396 21.9022C19.4774 22.7612 20.036 23.4359 20.885 23.4971C21.0539 23.5093 21.2373 23.5156 21.4359 23.5156C21.6345 23.5156 21.8178 23.5093 21.9868 23.4971C22.8358 23.4359 23.3945 22.7612 23.4322 21.9022L23.4567 21.2516C23.4874 20.2999 23.5103 19.0058 23.522 17.3141C23.5278 16.4547 22.8234 15.755 21.9534 15.755L11.0491 15.7557L8.34069 15.7678C6.90793 15.779 5.74477 15.7971 4.82374 15.8207L4.66451 15.8245L4.66457 13.4547C4.65639 10.6442 4.62085 8.72636 4.5684 7.5328C4.53066 6.67376 3.97205 5.99935 3.12304 5.93816C2.9541 5.926 2.77069 5.91966 2.57212 5.91966ZM2.57212 6.95091C2.74584 6.95091 2.90397 6.95638 3.0471 6.96668C3.326 6.98678 3.50909 7.20783 3.52534 7.57752L3.54258 8.01463C3.58857 9.3109 3.61818 11.297 3.62192 14.1202L3.61921 16.3544C3.61806 16.6468 3.863 16.8816 4.15883 16.8717L4.85347 16.8515C6.1005 16.8197 7.7987 16.7978 10.0169 16.7897L11.7598 16.7863L21.9534 16.7862C22.2443 16.7862 22.4798 17.0202 22.4779 17.3072L22.4566 19.2914C22.4399 20.3839 22.4167 21.2295 22.3892 21.8574C22.3729 22.2272 22.1897 22.4485 21.9109 22.4686C21.7677 22.4789 21.6096 22.4844 21.4359 22.4844C21.2622 22.4844 21.1041 22.4789 20.9609 22.4686C20.6821 22.4485 20.4989 22.2272 20.4827 21.8575L20.4509 20.9623C20.4372 20.4868 20.4251 19.929 20.4152 19.282C20.4107 18.9935 20.1674 18.7647 19.8754 18.7745L18.7981 18.8042C17.3329 18.8371 15.3151 18.8576 12.6536 18.8605L10.6458 18.8593C7.63609 18.8521 5.51499 18.821 4.13265 18.7744C3.84065 18.7646 3.59732 18.9934 3.59288 19.2819L3.57385 20.3049C3.55989 20.9303 3.5435 21.4446 3.52534 21.8578C3.50909 22.2274 3.326 22.4485 3.04707 22.4686C2.90397 22.4789 2.74584 22.4844 2.57212 22.4844C2.3984 22.4844 2.24027 22.4789 2.09713 22.4686C1.81823 22.4485 1.63514 22.2274 1.61889 21.8578L1.59621 21.2617C1.55334 19.9641 1.52591 18.0253 1.52232 15.315L1.52606 12.8283C1.53736 10.372 1.57111 8.66504 1.6189 7.57753C1.63514 7.20783 1.81824 6.98678 2.09717 6.96668C2.24027 6.95638 2.3984 6.95091 2.57212 6.95091Z" fill="black"/>
<path d="M7.30991 14.0917C7.07202 13.9159 6.89817 13.6686 6.81437 13.387L5.87065 10.2165C5.76764 9.8706 5.80794 9.4985 5.98268 9.18201C6.15743 8.86551 6.45231 8.63054 6.80245 8.52879C7.15259 8.42704 7.5293 8.46685 7.84973 8.63945C8.17015 8.81205 8.40804 9.10332 8.51105 9.44917L9.45477 12.6198C9.50564 12.7911 9.52183 12.9707 9.50239 13.1482C9.48294 13.3258 9.42827 13.4978 9.34147 13.6545C9.25467 13.8111 9.13746 13.9493 8.99655 14.0612C8.85563 14.1731 8.69377 14.2565 8.52022 14.3065C8.39494 14.3436 8.26488 14.3625 8.13411 14.3627C7.83696 14.3627 7.54781 14.2676 7.30991 14.0917Z" fill="#D52B1E"/>
<path d="M6.65516 8.03413C6.17221 8.17448 5.76547 8.49857 5.52444 8.93513C5.2834 9.37169 5.22781 9.88494 5.3699 10.362L6.31359 13.5325C6.42918 13.9209 6.669 14.2619 6.99716 14.5045C7.32537 14.7472 7.72426 14.8783 8.13416 14.8783C8.31617 14.878 8.49643 14.8518 8.67007 14.8004C8.90598 14.7324 9.12926 14.6175 9.32364 14.4631C9.51804 14.3088 9.67972 14.1181 9.79945 13.902C9.91919 13.6859 9.99462 13.4486 10.0214 13.2037C10.0483 12.9588 10.0259 12.7111 9.95575 12.4747L9.01193 9.30373C8.86981 8.8266 8.54169 8.42484 8.09972 8.18677C7.65775 7.94869 7.13813 7.89379 6.65516 8.03413ZM7.59984 9.09214C7.79872 9.19926 7.94637 9.38004 8.0103 9.5947L8.954 12.7652C8.98547 12.8712 8.99551 12.9826 8.98344 13.0928C8.97138 13.203 8.93745 13.3097 8.88359 13.4069C8.82973 13.5041 8.75699 13.5899 8.66954 13.6594C8.58211 13.7288 8.48166 13.7805 8.37397 13.8116C8.29357 13.8353 8.21373 13.8469 8.13343 13.8471C7.94983 13.8471 7.7704 13.7881 7.62275 13.6789C7.47514 13.5698 7.36726 13.4164 7.31526 13.2416L6.37153 10.071C6.30757 9.85627 6.33258 9.62532 6.44104 9.42888C6.5495 9.23244 6.73252 9.08661 6.94984 9.02346C7.16716 8.9603 7.40097 8.98501 7.59984 9.09214Z" fill="black"/>
<path d="M18.2594 1.90588C18.2594 2.28286 18.1078 2.64441 17.8379 2.91101C17.568 3.17761 17.2019 3.32739 16.8203 3.32739C16.4386 3.32739 16.0725 3.17761 15.8026 2.911C15.5327 2.64441 15.3811 2.28286 15.3811 1.90588C15.3811 1.62111 15.6148 1.39026 15.9031 1.39026C16.1674 1.39026 16.3858 1.58424 16.4204 1.83592L16.4252 1.90588C16.4252 2.00935 16.4668 2.10865 16.5409 2.18187C16.615 2.25502 16.7155 2.29614 16.8203 2.29614C16.925 2.29614 17.0256 2.25502 17.0996 2.18188C17.1737 2.10865 17.2154 2.00935 17.2154 1.90588V1C17.2154 0.715228 17.4491 0.484375 17.7374 0.484375H19.5716C20.1965 0.484375 20.7958 0.72958 21.2377 1.16604C21.6796 1.6025 21.9279 2.19449 21.9279 2.81176V16.4C21.9279 16.6848 21.6942 16.9156 21.4059 16.9156C21.1176 16.9156 20.8838 16.6848 20.8838 16.4V2.81176C20.8838 2.468 20.7456 2.13833 20.4995 1.89527C20.2534 1.65218 19.9196 1.51562 19.5716 1.51562H18.2592L18.2594 1.90588Z" fill="black"/>
<path d="M16.8204 2.29614C17.1087 2.29614 17.3424 2.527 17.3424 2.81177V5.52941C17.3424 5.81419 17.1087 6.04504 16.8204 6.04504C16.5321 6.04504 16.2983 5.81419 16.2983 5.52941V2.81177C16.2983 2.527 16.5321 2.29614 16.8204 2.29614Z" fill="black"/>
<path d="M17.7375 5.52942H15.9032C15.3967 5.52942 14.9861 5.935 14.9861 6.4353V9.15295C14.9861 9.65327 15.3967 10.0588 15.9032 10.0588H17.7375C18.244 10.0588 18.6546 9.65327 18.6546 9.15295V6.4353C18.6546 5.935 18.244 5.52942 17.7375 5.52942Z" fill="#D52B1E"/>
<path d="M17.7375 5.01379H15.9033C15.1084 5.01379 14.4641 5.65022 14.4641 6.4353V9.15295C14.4641 9.93804 15.1084 10.5745 15.9033 10.5745H17.7375C18.5323 10.5745 19.1767 9.93804 19.1767 9.15295V6.4353C19.1767 5.65022 18.5323 5.01379 17.7375 5.01379ZM17.7375 6.04504C17.9557 6.04504 18.1326 6.21976 18.1326 6.4353V9.15295C18.1326 9.36849 17.9557 9.54321 17.7375 9.54321H15.9033C15.685 9.54321 15.5082 9.36849 15.5082 9.15295V6.4353C15.5082 6.21976 15.685 6.04504 15.9033 6.04504H17.7375Z" fill="black"/>
<path d="M18.6544 7.73143C18.9427 7.73143 19.1765 7.96228 19.1765 8.24706C19.1765 8.53183 18.9427 8.76268 18.6544 8.76268H16.3616C16.0733 8.76268 15.8396 8.53183 15.8396 8.24706C15.8396 7.96228 16.0733 7.73143 16.3616 7.73143H18.6544Z" fill="#191919"/>
</g>
<defs>
<clipPath id="clip0_267_125">
<rect width="24" height="24" fill="white"/>
</clipPath>
</defs>
</svg>
