<svg width="24" height="24" viewBox="0 0 24 24" fill="none" xmlns="http://www.w3.org/2000/svg">
<path fill-rule="evenodd" clip-rule="evenodd" d="M2.37781 16.366H14.1479C14.7001 16.366 15.1479 16.8137 15.1479 17.366V18.3843H1.37781V17.366C1.37781 16.8137 1.82552 16.366 2.37781 16.366Z" fill="#7F7F7F"/>
<path d="M14.5754 18.8889H1.65306C1.42971 18.8889 1.25288 19.0693 1.2675 19.2823C1.30529 19.8325 1.2581 20.2432 1.13797 20.5083C1.01157 20.7873 0.664961 21.2253 0.10442 21.8002C-0.12573 22.0363 0.0494856 22.421 0.387151 22.421H11.3375L11.416 22.4134C11.5434 22.3881 11.6511 22.3025 11.6986 22.1832L12.1053 21.1612L12.52 22.1851C12.5776 22.3273 12.7208 22.421 12.8803 22.421C14.3417 22.421 15.3952 22.2271 16.054 21.8156C16.2542 21.6906 16.2886 21.4236 16.1262 21.2559C15.6161 20.7292 15.2216 20.0291 14.9454 19.1518C14.8963 18.9957 14.7459 18.8889 14.5754 18.8889Z" fill="#7F7F7F"/>
<path fill-rule="evenodd" clip-rule="evenodd" d="M11.03 10.3109H23.2C23.6419 10.3109 24 10.6691 24 11.1109V12.4929H10.23V11.1109C10.23 10.6691 10.5882 10.3109 11.03 10.3109Z" fill="#7F7F7F"/>
<path d="M17.3172 3.75131C21.0464 3.75131 23.1289 6.33263 23.5067 11.2807L22.5262 11.3595C22.1848 6.88865 20.4679 4.76049 17.3172 4.76049C14.1539 4.76049 12.2996 6.90658 11.7008 11.3886L10.7263 11.2516C11.3859 6.3147 13.6007 3.75131 17.3172 3.75131Z" fill="#7F7F7F"/>
<path fill-rule="evenodd" clip-rule="evenodd" d="M22.0144 1.09469C22.0292 1.03892 22.0804 1 22.1389 1C22.1975 1 22.2487 1.03892 22.2635 1.09469C22.3656 1.48024 22.4814 1.73197 22.6633 1.92216C22.8456 2.1128 23.1066 2.25443 23.5267 2.39373C23.5791 2.4111 23.6143 2.4594 23.6143 2.51376C23.6143 2.56814 23.5791 2.61644 23.5267 2.6338C23.1066 2.77309 22.8456 2.91473 22.6633 3.10536C22.4814 3.29555 22.3656 3.5473 22.2635 3.93283C22.2487 3.98861 22.1975 4.02752 22.1389 4.02752C22.0804 4.02752 22.0292 3.98861 22.0144 3.93283C21.9122 3.5473 21.7965 3.29555 21.6146 3.10536C21.4323 2.91473 21.1712 2.77309 20.7512 2.6338C20.6988 2.61644 20.6636 2.56814 20.6636 2.51376C20.6636 2.4594 20.6988 2.4111 20.7512 2.39373C21.1712 2.25443 21.4323 2.1128 21.6146 1.92216C21.7965 1.73197 21.9122 1.48024 22.0144 1.09469Z" fill="#B2B2B2"/>
<path d="M11.2135 12.3293H23.0164L21.7819 21.6669L21.7564 21.7651C21.4615 22.5109 21.1123 22.9256 20.644 22.9256H16.5961C16.3942 22.9256 16.2305 22.7499 16.2305 22.5332C16.2305 22.3164 16.3048 22.0651 16.493 21.9189C16.6811 21.7727 16.8173 21.4966 16.8173 21.0836C16.8173 20.6707 16.4949 20.3974 16.2868 20.0925C16.0787 19.7875 15.7756 19.2682 15.6848 18.6713C15.594 18.0745 15.8483 16.9993 15.5044 16.4666C15.1604 15.9338 14.854 15.7443 14.5559 15.6781C14.3572 15.634 13.4896 15.634 11.9533 15.6781C11.7527 15.7037 11.5708 15.55 11.5469 15.3348L11.2135 12.3293Z" fill="#B2B2B2"/>
<path d="M10.8193 12.1009H23.5185L22.1902 21.7053L22.1628 21.8063C21.8456 22.5734 21.4698 23 20.966 23H16.6107C16.3934 23 16.2173 22.8193 16.2173 22.5963C16.2173 22.3734 16.3934 22.1927 16.6107 22.1927H20.966C21.0437 22.1927 21.1979 22.0264 21.3777 21.6312L21.4188 21.5357L22.6109 12.9083H11.705L11.9594 15.0968C11.9819 15.2905 11.8667 15.4685 11.693 15.5276L11.6153 15.5454C11.3995 15.5717 11.2038 15.4136 11.1781 15.1923L10.8193 12.1009Z" fill="#7F7F7F"/>
<path d="M14.2932 19.6273L14.3134 19.6843C14.5401 20.3105 14.8299 20.8563 15.1837 21.3204L15.235 21.3845L15.0966 21.4318C14.6793 21.5612 14.1315 21.6424 13.4555 21.671L13.1437 21.6799L12.4627 19.9984L12.424 19.9261C12.2593 19.6853 11.8567 19.7105 11.7412 20.0004L11.0707 21.6827H1.23816L1.30145 21.6101C1.56338 21.2953 1.74482 21.0274 1.84712 20.8017L1.90795 20.6492C2.00028 20.385 2.04751 20.0694 2.05258 19.7012L2.0515 19.6273H14.2932Z" fill="#E5E5E5"/>
<path fill-rule="evenodd" clip-rule="evenodd" d="M8.26281 4.25591C8.80602 4.25591 9.24639 4.69627 9.24639 5.23948V15.3568H7.27924V5.23948C7.27924 4.69627 7.7196 4.25591 8.26281 4.25591Z" fill="#7F7F7F"/>
<path d="M9.09269 15.3568C9.72079 15.3568 10.23 15.8792 10.23 16.5237V17.3752H6.29565V16.5237C6.29565 15.8792 6.80482 15.3568 7.43291 15.3568H9.09269ZM9.09269 16.2903H7.43291C7.34917 16.2903 7.27599 16.3367 7.23651 16.4059L7.22138 16.4408H9.3037L9.28909 16.4059C9.25948 16.354 9.21092 16.3149 9.15316 16.2986L9.09269 16.2903Z" fill="#7F7F7F"/>
<path fill-rule="evenodd" clip-rule="evenodd" d="M4.36245 6.50476C4.37886 6.4427 4.4355 6.39941 4.50031 6.39941C4.5651 6.39941 4.62174 6.4427 4.63815 6.50476C4.70093 6.74206 4.76978 6.88782 4.87282 6.99578C4.97639 7.10428 5.12812 7.18891 5.38673 7.27484C5.44477 7.29413 5.48387 7.34797 5.48387 7.40859C5.48387 7.46921 5.44477 7.52306 5.38673 7.54235C5.12812 7.62828 4.97639 7.7129 4.87282 7.82141C4.76978 7.92937 4.70093 8.07513 4.63815 8.31244C4.62174 8.3745 4.5651 8.41776 4.50031 8.41776C4.4355 8.41776 4.37886 8.3745 4.36245 8.31244C4.29969 8.07513 4.23081 7.92937 4.12778 7.82141C4.02423 7.7129 3.87248 7.62828 3.61389 7.54235C3.55584 7.52306 3.51672 7.46921 3.51672 7.40859C3.51672 7.34797 3.55584 7.29413 3.61389 7.27484C3.87248 7.18891 4.02423 7.10428 4.12778 6.99578C4.23081 6.88782 4.29969 6.74206 4.36245 6.50476Z" fill="#B2B2B2"/>
<path fill-rule="evenodd" clip-rule="evenodd" d="M2.36138 9.47185C2.27843 9.47185 2.20583 9.52808 2.18438 9.60895C2.12564 9.83059 2.06306 9.95914 1.97363 10.0526C1.88315 10.1472 1.74736 10.2246 1.5038 10.3054C1.42862 10.3303 1.37781 10.4012 1.37781 10.481C1.37781 10.5609 1.42862 10.6317 1.5038 10.6567C1.74736 10.7374 1.88315 10.8148 1.97363 10.9094C2.06306 11.0029 2.12564 11.1314 2.18438 11.3531C2.20583 11.434 2.27843 11.4902 2.36138 11.4902C2.44431 11.4902 2.51691 11.434 2.53836 11.3531C2.5971 11.1314 2.65968 11.0029 2.74911 10.9094C2.83959 10.8148 2.97538 10.7374 3.21894 10.6567C3.29412 10.6317 3.34496 10.5609 3.34496 10.481C3.34496 10.4012 3.29412 10.3303 3.21894 10.3054C2.97538 10.2246 2.83959 10.1472 2.74911 10.0526C2.65968 9.95914 2.5971 9.83059 2.53836 9.60895C2.51691 9.52808 2.44431 9.47185 2.36138 9.47185Z" fill="#B2B2B2"/>
</svg>
