<svg width="24" height="24" viewBox="0 0 24 24" fill="none" xmlns="http://www.w3.org/2000/svg">
<rect x="8" y="10" width="8" height="3" fill="#D52B1E"/>
<path d="M4.19628 6.42853C4.21295 5.73648 4.6044 5.11712 5.29207 5.03745C5.48991 5.01456 5.7174 5 5.97622 5C6.23503 5 6.46252 5.01456 6.66036 5.03745C7.34802 5.11712 7.73946 5.73648 7.75617 6.42853C7.78069 7.44682 7.80955 9.19938 7.80955 11.8095C7.80955 14.4197 7.78069 16.1722 7.75617 17.1905C7.73946 17.8826 7.34802 18.5019 6.66036 18.5816C6.46252 18.6045 6.23503 18.619 5.97622 18.619C5.7174 18.619 5.48991 18.6045 5.29207 18.5816C4.6044 18.5019 4.21295 17.8826 4.19628 17.1905C4.17175 16.1722 4.14288 14.4197 4.14288 11.8095C4.14288 9.19938 4.17174 7.44682 4.19628 6.42853Z" fill="#D52B1E" stroke="black" stroke-width="1.2" stroke-linecap="round" stroke-linejoin="round"/>
<path d="M19.8038 6.42853C19.7871 5.73648 19.3956 5.11712 18.708 5.03745C18.5101 5.01456 18.2826 5 18.0238 5C17.765 5 17.5375 5.01456 17.3397 5.03745C16.652 5.11712 16.2606 5.73648 16.2439 6.42853C16.2194 7.44682 16.1905 9.19938 16.1905 11.8095C16.1905 14.4197 16.2194 16.1722 16.2439 17.1905C16.2606 17.8826 16.652 18.5019 17.3397 18.5816C17.5375 18.6045 17.765 18.619 18.0238 18.619C18.2826 18.619 18.5101 18.6045 18.708 18.5816C19.3956 18.5019 19.7871 17.8826 19.8038 17.1905C19.8283 16.1722 19.8572 14.4197 19.8572 11.8095C19.8572 9.19938 19.8283 7.44682 19.8038 6.42853Z" fill="#D52B1E" stroke="black" stroke-width="1.2" stroke-linecap="round" stroke-linejoin="round"/>
<path d="M7.80542 13.3712C8.85781 13.377 10.078 13.3807 11.4758 13.3807C13.3646 13.3807 14.9291 13.3739 16.1937 13.3645" stroke="black" stroke-width="1.2" stroke-linecap="round" stroke-linejoin="round"/>
<path d="M16.1937 10.2542C14.9291 10.2448 13.3646 10.238 11.4758 10.238C10.078 10.238 8.85781 10.2418 7.80542 10.2475" stroke="black" stroke-width="1.2" stroke-linecap="round" stroke-linejoin="round"/>
<path d="M1.02894 9.08722C1.0478 8.30664 1.54408 7.64779 2.32449 7.62296C2.40279 7.6205 2.48508 7.61914 2.57143 7.61914C2.65778 7.61914 2.74006 7.6205 2.81836 7.62296C3.59877 7.64779 4.09505 8.30664 4.11392 9.08722C4.12941 9.72815 4.14286 10.6255 4.14286 11.8096C4.14286 12.9937 4.12941 13.8911 4.11392 14.532C4.09505 15.3126 3.59878 15.9714 2.81836 15.9963C2.74006 15.9987 2.65778 16.0001 2.57143 16.0001C2.48508 16.0001 2.40279 15.9987 2.32449 15.9963C1.54408 15.9714 1.0478 15.3126 1.02894 14.532C1.01345 13.8911 1 12.9937 1 11.8096C1 10.6255 1.01345 9.72815 1.02894 9.08722Z" fill="#FAD4BF" stroke="black" stroke-width="1.2" stroke-linecap="round" stroke-linejoin="round"/>
<path d="M22.9711 9.08722C22.9521 8.30664 22.4559 7.64779 21.6755 7.62296C21.5972 7.6205 21.5149 7.61914 21.4285 7.61914C21.3422 7.61914 21.2599 7.6205 21.1816 7.62296C20.4012 7.64779 19.9049 8.30664 19.886 9.08722C19.8706 9.72815 19.8571 10.6255 19.8571 11.8096C19.8571 12.9937 19.8706 13.8911 19.886 14.532C19.9049 15.3126 20.4012 15.9714 21.1816 15.9963C21.2599 15.9987 21.3422 16.0001 21.4285 16.0001C21.5149 16.0001 21.5972 15.9987 21.6755 15.9963C22.4559 15.9714 22.9521 15.3126 22.9711 14.532C22.9865 13.8911 23 12.9937 23 11.8096C23 10.6255 22.9865 9.72815 22.9711 9.08722Z" fill="#FAD4BF" stroke="black" stroke-width="1.2" stroke-linecap="round" stroke-linejoin="round"/>
</svg>
