<svg width="24" height="24" viewBox="0 0 24 24" fill="none" xmlns="http://www.w3.org/2000/svg">
<path d="M9.38354 7.21932C9.76773 7.01973 10.2748 7.02482 10.6722 7.21932C11.0695 7.41382 11.3513 7.79307 11.4293 8.23816L11.7391 9.98779C18.7628 11.6429 15.7921 19.2555 14.595 19.2555H13.4563C13.3305 19.2555 13.2285 19.3603 13.2285 19.4895V21.5958C13.2285 22.3713 12.6168 23 11.8621 23C11.1074 23 10.4956 22.3713 10.4956 21.5958V19.4886C10.4956 19.3593 10.3936 19.2545 10.2678 19.2545H9.23385C9.10277 19.2556 8.97762 19.1985 8.89041 19.0979C8.80319 18.9974 8.76236 18.8631 8.77836 18.7294L9.4698 13.0021C9.47512 12.955 9.47358 12.9074 9.46524 12.8608L9.18466 11.2694C9.16543 11.1602 8.57372 8.55981 8.8528 7.83039C8.96629 7.53376 9.18466 7.32264 9.38354 7.21932Z" fill="#E5E5E5"/>
<path d="M8.28031 18.6664L8.97085 12.9476L8.69141 11.3687C8.67698 11.3087 8.55232 10.6938 8.48785 10.3276C8.439 10.05 8.39687 9.78174 8.36317 9.52666C8.24833 8.65745 8.23522 8.03526 8.3858 7.64171C8.53587 7.24947 8.82578 6.93128 9.15713 6.75915C9.67894 6.48807 10.349 6.48996 10.8879 6.7538L11.0019 6.81459C11.4848 7.09425 11.8241 7.58169 11.9232 8.14676L12.1749 9.56783L12.2766 9.59556C15.3234 10.4614 16.7699 12.5617 16.7516 15.2459L16.7484 15.4128C16.6817 17.5312 15.6341 19.7711 14.595 19.7711L13.7304 19.771L13.7303 21.5958C13.7303 22.6561 12.8939 23.5156 11.862 23.5156L11.7482 23.5121C10.7694 23.4517 9.99378 22.6168 9.99378 21.5958L9.99381 19.7696L9.23384 19.7702C8.96211 19.7723 8.69909 19.6523 8.5158 19.441C8.3325 19.2296 8.24669 18.9474 8.28031 18.6664ZM9.67972 11.1862L9.95897 12.7688L9.97143 12.8655C9.97663 12.9305 9.97559 12.9963 9.96821 13.0616L9.2833 18.7384L10.2678 18.7389C10.6707 18.7389 10.9973 19.0745 10.9973 19.4886V21.5958C10.9973 22.0865 11.3845 22.4844 11.862 22.4844C12.3396 22.4844 12.7268 22.0865 12.7268 21.5958V19.4895C12.7268 19.0755 13.0534 18.7398 13.4563 18.7398H14.595C14.9001 18.7398 15.7367 16.9043 15.7481 15.2387C15.7639 12.9052 14.4952 11.1662 11.6269 10.4904L11.3046 10.4144L10.9356 8.33043C10.8861 8.04788 10.7078 7.80789 10.4563 7.68481C10.1932 7.55598 9.84949 7.55501 9.60991 7.67947C9.49411 7.73963 9.37784 7.86724 9.31976 8.01904C9.26075 8.17329 9.26593 8.63085 9.33943 9.24379L9.3576 9.38793C9.37864 9.54721 9.40336 9.71304 9.43124 9.88396L9.50494 10.3067C9.57511 10.6839 9.67825 11.1887 9.67972 11.1862Z" fill="#7F7F7F"/>
<path fill-rule="evenodd" clip-rule="evenodd" d="M14.8812 15.1892C15.0057 14.9935 15.0391 14.7432 14.9872 14.5137C14.8765 13.991 14.2634 13.9335 13.8816 14.2838C13.8513 14.3114 13.8244 14.3432 13.7947 14.3748C13.7649 14.3432 13.738 14.3114 13.7078 14.2838C13.3259 13.9335 12.7128 13.991 12.6021 14.5137C12.5502 14.7432 12.589 14.99 12.7081 15.1892C12.9269 15.5328 13.3173 15.7882 13.633 16.0645C13.7252 16.1452 13.8641 16.1452 13.9563 16.0645C14.272 15.7882 14.6624 15.5328 14.8812 15.1892Z" fill="#B2B2B2"/>
<path d="M12.2752 14.4406C12.2045 14.7534 12.2578 15.0928 12.4231 15.3692C12.5654 15.5929 12.7235 15.7541 13.0111 15.9926L13.3639 16.2813C13.3822 16.2968 13.3994 16.3116 13.4161 16.3262C13.6333 16.5163 13.956 16.5163 14.1732 16.3262L14.4641 16.086C14.8259 15.7934 15.0061 15.6208 15.1611 15.3774C15.3343 15.1053 15.3863 14.7601 15.3131 14.436L15.2885 14.3413C15.0905 13.7016 14.3551 13.5467 13.809 13.9096L13.7945 13.9202L13.7796 13.909C13.2081 13.5295 12.4282 13.7179 12.2752 14.4406ZM14.6603 14.5868C14.6944 14.7379 14.6714 14.8907 14.6012 15.0011C14.5103 15.1439 14.3873 15.2678 14.1464 15.4673L13.863 15.6979C13.8401 15.7168 13.8188 15.7347 13.7945 15.7551L13.5389 15.5458C13.2332 15.2985 13.0903 15.1617 12.9881 15.0011C12.9202 14.8872 12.8959 14.733 12.9289 14.5868C12.9735 14.3765 13.2551 14.3294 13.485 14.5403L13.7946 14.8698L14.1035 14.541C14.3342 14.3294 14.6158 14.3765 14.6603 14.5868Z" fill="#7F7F7F"/>
<path d="M10.2775 5.68065C11.5353 5.68065 12.555 4.63285 12.555 3.34033C12.555 2.0478 11.5353 1 10.2775 1C9.01966 1 8 2.0478 8 3.34033C8 4.63285 9.01966 5.68065 10.2775 5.68065Z" fill="#E5E5E5"/>
<path d="M10.2775 0.484375C8.74255 0.484375 7.49823 1.76303 7.49823 3.34033C7.49823 4.91762 8.74255 6.19628 10.2775 6.19628C11.8124 6.19628 13.0567 4.91762 13.0567 3.34033C13.0567 1.76303 11.8124 0.484375 10.2775 0.484375ZM10.2775 1.51562C11.2582 1.51562 12.0532 2.33257 12.0532 3.34033C12.0532 4.34808 11.2582 5.16503 10.2775 5.16503C9.29679 5.16503 8.50179 4.34808 8.50179 3.34033C8.50179 2.33257 9.29679 1.51562 10.2775 1.51562Z" fill="#7F7F7F"/>
</svg>
