<svg width="24" height="24" viewBox="0 0 24 24" fill="none" xmlns="http://www.w3.org/2000/svg">
<path d="M9.78434 21.5673C12.1815 21.5673 14.1248 19.6399 14.1248 17.2625C14.1248 14.885 12.1815 12.9577 9.78434 12.9577C7.38718 12.9577 5.44391 14.885 5.44391 17.2625C5.44391 19.6399 7.38718 21.5673 9.78434 21.5673Z" fill="#B2B2B2"/>
<path d="M11.2311 5.78309C12.5629 5.78309 13.6425 4.71236 13.6425 3.39154C13.6425 2.07073 12.5629 1 11.2311 1C9.89936 1 8.81976 2.07073 8.81976 3.39154C8.81976 4.71236 9.89936 5.78309 11.2311 5.78309Z" fill="#E5E5E5"/>
<path d="M11.2311 0.541656C9.64417 0.541656 8.35767 1.81759 8.35767 3.39153C8.35767 4.96548 9.64417 6.24141 11.2311 6.24141C12.8181 6.24141 14.1046 4.96548 14.1046 3.39153C14.1046 1.81759 12.8181 0.541656 11.2311 0.541656ZM11.2311 1.45832C12.3077 1.45832 13.1804 2.32385 13.1804 3.39153C13.1804 4.45922 12.3077 5.32474 11.2311 5.32474C10.1546 5.32474 9.28192 4.45922 9.28192 3.39153C9.28192 2.32385 10.1546 1.45832 11.2311 1.45832Z" fill="#7F7F7F"/>
<path d="M20.2785 19.8454L18.4333 16.9181C17.8181 15.9385 16.7352 15.3449 15.5715 15.3493H13.1602C12.8938 15.3493 12.6779 15.1351 12.6779 14.871V13.436H16.0538C16.8529 13.436 17.5006 12.7936 17.5006 12.0011C17.5006 11.2086 16.8529 10.5662 16.0538 10.5662H12.6779V9.13125C12.6779 8.33876 12.0302 7.69632 11.2311 7.69632C10.4321 7.69632 9.7843 8.33876 9.7843 9.13125V16.7842C9.7843 17.5767 10.4321 18.2191 11.2311 18.2191H15.5715C15.7378 18.2191 15.8924 18.3041 15.9805 18.4439L17.8257 21.3712C18.2505 22.0429 19.144 22.2459 19.8213 21.8246C20.4986 21.4033 20.7033 20.5171 20.2785 19.8454Z" fill="#E5E5E5"/>
<path d="M11.2311 7.23798C10.1769 7.23798 9.3222 8.08562 9.3222 9.13124V16.7842C9.3222 17.8298 10.1769 18.6774 11.2311 18.6774H15.5716C15.5785 18.6774 15.585 18.681 15.5887 18.6868L17.4338 21.6141C17.9946 22.5009 19.1733 22.7687 20.0669 22.2129C20.9604 21.657 21.2305 20.488 20.67 19.6018L18.8252 16.6751C18.1257 15.5613 16.8937 14.8859 15.5698 14.8909L13.1602 14.8909L13.1501 14.8882C13.1441 14.8847 13.1401 14.8783 13.1401 14.8709L13.1394 13.8941L16.0538 13.8943C17.1081 13.8943 17.9628 13.0467 17.9628 12.0011L17.9593 11.8858C17.8992 10.8938 17.0691 10.1078 16.0538 10.1078L13.1394 10.1074L13.1401 9.13124C13.1401 8.08562 12.2854 7.23798 11.2311 7.23798ZM11.2311 8.15464C11.775 8.15464 12.2158 8.59188 12.2158 9.13124V10.5662C12.2158 10.8193 12.4227 11.0245 12.678 11.0245H16.0538C16.5977 11.0245 17.0385 11.4617 17.0385 12.0011C17.0385 12.5404 16.5977 12.9777 16.0538 12.9777H12.678C12.4227 12.9777 12.2158 13.1829 12.2158 13.436V14.8709C12.2158 15.3882 12.6386 15.8076 13.1602 15.8076H15.5716C16.5768 15.8038 17.5106 16.3157 18.0411 17.1604L19.8867 20.0883C20.1762 20.5462 20.0369 21.1495 19.5758 21.4363C19.1147 21.7232 18.5064 21.5849 18.2172 21.1276L16.3724 18.2009C16.1998 17.9271 15.8972 17.7608 15.5716 17.7608H11.2311C10.6873 17.7608 10.2465 17.3235 10.2465 16.7842V9.13124C10.2465 8.59188 10.6873 8.15464 11.2311 8.15464Z" fill="#7F7F7F"/>
<path d="M7.89782 11.3518C8.1411 11.2753 8.40087 11.4089 8.47804 11.6501C8.5552 11.8914 8.42054 12.1491 8.17725 12.2256C5.92193 12.9351 4.40908 15.0353 4.46352 17.3813C4.51797 19.7273 6.12664 21.7563 8.41248 22.3622C10.6983 22.968 13.1131 22.0053 14.3402 19.9989C14.4725 19.7825 14.7568 19.7135 14.975 19.8447C15.1932 19.976 15.2628 20.2579 15.1304 20.4743C13.6903 22.8289 10.8565 23.9587 8.17387 23.2477C5.49128 22.5368 3.6034 20.1556 3.53951 17.4024C3.47562 14.6492 5.25105 12.1844 7.89782 11.3518Z" fill="#7F7F7F"/>
</svg>
