<svg width="24" height="24" viewBox="0 0 24 24" fill="none" xmlns="http://www.w3.org/2000/svg">
<path fill-rule="evenodd" clip-rule="evenodd" d="M19 11H5V13H19V11ZM18 14H6V21H18V14Z" fill="#FAD4BF"/>
<path fill-rule="evenodd" clip-rule="evenodd" d="M17 6C17.2761 6 17.5 6.22386 17.5 6.5C17.5 7.88976 16.6991 9.16539 15.5322 10.0008L18.5 10C19.3284 10 20 10.6716 20 11.5V13C20 13.5523 19.5523 14 19 14V20.5C19 21.3284 18.3284 22 17.5 22H6.5C5.67157 22 5 21.3284 5 20.5V14C4.44772 14 4 13.5523 4 13V11.5C4 10.6716 4.67157 10 5.5 10L8.46782 10.0008C7.3009 9.16539 6.5 7.88976 6.5 6.5C6.5 6.22386 6.72386 6 7 6C9.38651 6 11.6609 7.798 11.9655 10.0003H12.0345C12.3391 7.798 14.6135 6 17 6ZM10 14H6V20.5C6 20.7531 6.1881 20.9623 6.43215 20.9954L6.5 21H10V14ZM13 14H11V21H13V14ZM18 14H14V21H17.5C17.7531 21 17.9623 20.8119 17.9954 20.5679L18 20.5V14ZM10 11H5.5C5.22386 11 5 11.2239 5 11.5V13H10V11ZM13 11H11V13H13V11ZM18.5 11H14V13H19V11.5C19 11.2239 18.7761 11 18.5 11ZM7.55686 7.04069L7.57999 7.14502C7.92669 8.54413 9.35391 9.7286 10.9431 9.95931C10.6435 8.5148 9.18523 7.27708 7.55686 7.04069ZM16.4437 7.04118L16.4199 7.04411C14.8009 7.28885 13.3551 8.52178 13.0563 9.95882C14.6852 9.72301 16.1435 8.48511 16.4437 7.04118Z" fill="#D52B1E"/>
<path fill-rule="evenodd" clip-rule="evenodd" d="M12.2 4C11.9791 4 11.8 3.83607 11.8 3.63386V1.36614C11.8 1.16393 11.9791 1 12.2 1C12.4209 1 12.6 1.16393 12.6 1.36614V3.63386C12.6 3.83607 12.4209 4 12.2 4ZM0 13.4C0 13.1791 0.157529 13 0.351852 13H2.64815C2.84247 13 3 13.1791 3 13.4C3 13.6209 2.84247 13.8 2.64815 13.8H0.351852C0.157529 13.8 0 13.6209 0 13.4ZM3.29045 8.01117C3.46035 8.10926 3.68917 8.03459 3.80153 7.84438C3.91389 7.65418 3.86724 7.42046 3.69734 7.32237L1.71453 6.1776C1.54463 6.0795 1.31581 6.15418 1.20345 6.34438C1.09109 6.53459 1.13774 6.7683 1.30764 6.86639L3.29045 8.01117ZM20.2034 7.8444C20.0911 7.65419 20.1377 7.42048 20.3076 7.32239L22.2904 6.17761C22.4603 6.07952 22.6892 6.15419 22.8015 6.3444C22.9139 6.53461 22.8672 6.76832 22.6973 6.86641L20.7145 8.01119C20.5446 8.10928 20.3158 8.03461 20.2034 7.8444ZM21.3519 13C21.1575 13 21 13.1791 21 13.4C21 13.6209 21.1575 13.8 21.3519 13.8H23.6481C23.8425 13.8 24 13.6209 24 13.4C24 13.1791 23.8425 13 23.6481 13H21.3519Z" fill="#D52B1E"/>
</svg>
