<svg width="24" height="24" viewBox="0 0 24 24" fill="none" xmlns="http://www.w3.org/2000/svg">
<path d="M16.5131 21.0071C19.5506 21.0071 22.0131 18.5446 22.0131 15.5071C22.0131 12.4695 19.5506 10.0071 16.5131 10.0071C13.4755 10.0071 11.0131 12.4695 11.0131 15.5071C11.0131 18.5446 13.4755 21.0071 16.5131 21.0071Z" fill="#FFF3F2"/>
<path d="M16.5316 8.98267C12.9417 8.98267 10.0316 11.8928 10.0316 15.4827C10.0316 19.0725 12.9417 21.9827 16.5316 21.9827C20.1214 21.9827 23.0316 19.0725 23.0316 15.4827C23.0316 11.8928 20.1214 8.98267 16.5316 8.98267ZM16.5316 10.0329C19.5414 10.0329 21.9813 12.4729 21.9813 15.4827C21.9813 18.4925 19.5414 20.9324 16.5316 20.9324C13.5218 20.9324 11.0818 18.4925 11.0818 15.4827C11.0818 12.4729 13.5218 10.0329 16.5316 10.0329Z" fill="black"/>
<path d="M16.2677 12.3481C16.8378 12.3481 17.3662 12.4675 17.8408 12.6665C18.1302 12.7879 18.3427 12.9126 18.4682 13.0047C18.6959 13.1718 18.7506 13.4997 18.5906 13.7373C18.4306 13.9749 18.1163 14.032 17.8887 13.865C17.8231 13.8169 17.6773 13.7313 17.4652 13.6423C17.1039 13.4908 16.7008 13.3998 16.2677 13.3998C15.5076 13.3998 14.8607 13.8217 14.8607 14.1827C14.8607 14.5444 15.1223 14.7123 16.0705 14.9154L16.6934 15.043C18.1261 15.3535 18.6823 15.7184 18.6823 16.8002C18.6823 17.8726 17.5139 18.6347 16.2677 18.6347C15.6976 18.6347 15.1692 18.5154 14.6945 18.3164C14.4051 18.195 14.1926 18.0703 14.0671 17.9782C13.8395 17.8111 13.7847 17.4831 13.9448 17.2456C14.0903 17.0296 14.3632 16.9627 14.5827 17.0778L14.7222 17.1675C14.801 17.2152 14.9187 17.277 15.0702 17.3405C15.4315 17.4921 15.8346 17.5831 16.2677 17.5831C17.0278 17.5831 17.6746 17.1611 17.6746 16.8002C17.6746 16.4385 17.4131 16.2706 16.4648 16.0675L16.1748 16.0083C14.4948 15.6795 13.8531 15.3446 13.8531 14.1827C13.8531 13.1103 15.0215 12.3481 16.2677 12.3481Z" fill="black"/>
<path d="M16.2676 11.4756C16.5459 11.4756 16.7715 11.711 16.7715 12.0014L16.7715 12.8739C16.7716 13.1643 16.546 13.3997 16.2677 13.3997C15.9895 13.3997 15.7639 13.1643 15.7639 12.8739L15.7639 12.0014C15.7638 11.711 15.9894 11.4756 16.2676 11.4756Z" fill="black"/>
<path d="M16.2676 17.583C16.5459 17.583 16.7715 17.8184 16.7715 18.1088L16.7715 18.9813C16.7716 19.2717 16.546 19.5072 16.2677 19.5072C15.9895 19.5072 15.7639 19.2718 15.7639 18.9814L15.7639 18.1089C15.7638 17.8185 15.9894 17.583 16.2676 17.583Z" fill="black"/>
<path fill-rule="evenodd" clip-rule="evenodd" d="M1.95875 3.46704V7.83903H0.375031V12.1893H3.07867V16.6653H1.95875V21.6682H12.0325C10.9228 20.4438 10.2201 19.4928 9.92437 18.8152C8.9593 16.6036 9.0386 14.357 9.53055 13.0259C10.2486 11.0831 11.4817 9.58736 13.23 8.53884V3.46704H1.95875Z" fill="#D52B1E"/>
<path d="M8.38575 11.9742C8.664 11.9742 8.88957 12.2096 8.88957 12.5C8.88957 12.7581 8.71134 12.9728 8.47631 13.0174L8.38575 13.0258H4.08651C3.96903 13.0258 3.87379 13.1252 3.87379 13.2478V16.2392C3.87379 16.3619 3.96903 16.4613 4.08651 16.4613H7.66921C7.94746 16.4613 8.17303 16.6967 8.17303 16.9871C8.17303 17.2452 7.9948 17.4599 7.75977 17.5044L7.66921 17.5129H2.65343C2.53595 17.5129 2.44071 17.6123 2.44071 17.7349V20.7263C2.44071 20.8489 2.53595 20.9483 2.65343 20.9483H9.81883C10.0971 20.9483 10.3226 21.1838 10.3226 21.4742C10.3226 21.7646 10.0971 22 9.81883 22H2.65343C1.97945 22 1.43308 21.4298 1.43308 20.7263V17.7349C1.43308 17.0315 1.97945 16.4613 2.65343 16.4613L2.88479 16.4622C2.87255 16.3898 2.86616 16.3153 2.86616 16.2392V13.2478C2.86616 13.1718 2.87255 13.0973 2.88479 13.0249L1.22036 13.0258C0.546372 13.0258 0 12.4556 0 11.7522V8.76076C0 8.05733 0.546372 7.48708 1.22036 7.48708L1.45172 7.48804C1.43947 7.41564 1.43308 7.34113 1.43308 7.26507V4.27368C1.43308 3.57024 1.97945 3 2.65343 3H12.685C13.359 3 13.9053 3.57024 13.9053 4.27368V7.26507C13.9053 7.55548 13.6798 7.7909 13.4015 7.7909C13.1233 7.7909 12.8977 7.55548 12.8977 7.26507V4.27368C12.8977 4.15106 12.8025 4.05166 12.685 4.05166H2.65343C2.53595 4.05166 2.44071 4.15106 2.44071 4.27368V7.26507C2.44071 7.38768 2.53595 7.48708 2.65343 7.48708H10.5354C10.8136 7.48708 11.0392 7.72251 11.0392 8.01292C11.0392 8.30332 10.8136 8.53875 10.5354 8.53875H1.22036C1.10287 8.53875 1.00763 8.63815 1.00763 8.76076V11.7522C1.00763 11.8748 1.10287 11.9742 1.22036 11.9742H8.38575Z" fill="black"/>
</svg>
