<svg width="24" height="24" viewBox="0 0 24 24" fill="none" xmlns="http://www.w3.org/2000/svg">
<path d="M20.5137 9.52015C21.3235 10.0089 22.1676 9.48875 22.076 8.54995C22.0059 7.8319 21.8844 6.8811 21.6766 5.6545C21.3462 3.7039 20.9464 2.52448 20.6561 1.86122C20.4378 1.36259 19.981 1.04561 19.4358 1.01408C18.7093 0.972044 17.4568 1.00592 15.4989 1.37133C14.2702 1.60065 13.3309 1.81526 12.6288 1.99753C11.7104 2.23593 11.5119 3.20712 12.2552 3.795C12.77 4.20224 13.4598 4.72645 14.3774 5.3901C13.7309 6.7582 12.9172 8.14585 12.0484 9.33675C12.0484 9.33675 9.99105 7.7176 8.07381 6.37685C7.51232 5.98415 6.74894 6.0621 6.28513 6.5657C3.38632 9.71325 1.72311 12.7675 1.1344 13.9525C0.967515 14.2885 0.932022 14.676 1.17089 14.9656C1.31498 15.1403 1.53123 15.3497 1.85479 15.5748C2.09017 15.7386 2.29815 15.8521 2.47648 15.9305C2.9333 16.1313 3.39034 15.8722 3.68531 15.4708C4.57229 14.2639 6.54148 11.6319 7.69066 10.4605C8.18655 10.8055 8.79001 11.281 9.40064 11.7858C9.52453 11.8883 9.71191 11.8504 9.79363 11.7123C10.7536 10.0891 12.5263 9 14.5544 9C15.4361 9 16.2695 9.20585 17.0088 9.5719C17.1138 9.62385 17.2415 9.6017 17.3189 9.5141C17.7237 9.05605 18.1127 8.6203 18.478 8.2266C19.3248 8.78565 19.9929 9.2057 20.5137 9.52015Z" fill="#B2B2B2"/>
<path d="M17.5653 9.24635C17.884 8.8876 18.1915 8.54565 18.4839 8.2306C19.29 8.76265 19.9342 9.16895 20.4438 9.47805C21.2913 9.99225 22.1749 9.44965 22.0757 8.4661C22.0044 7.75855 21.8844 6.8349 21.6848 5.65705C21.36 3.74015 20.9683 2.5676 20.6792 1.89764C20.4532 1.3739 19.9747 1.04202 19.4033 1.01192C18.6707 0.973335 17.4272 1.01242 15.5026 1.37154C14.3227 1.59173 13.4095 1.79836 12.7167 1.97585C11.7533 2.22268 11.5475 3.23858 12.328 3.85287C12.8351 4.252 13.5039 4.7587 14.3803 5.39255C13.8089 6.6017 13.1068 7.8261 12.3515 8.9166C12.1896 9.15035 11.864 9.19565 11.6388 9.0214C10.9503 8.4885 9.50239 7.38185 8.11819 6.41195C7.53004 5.99985 6.72941 6.08155 6.24417 6.61015C3.38676 9.72305 1.73737 12.7371 1.1402 13.9349C0.964797 14.2867 0.927883 14.6937 1.1818 14.9943C1.32583 15.1647 1.53775 15.3666 1.84874 15.5829C2.0695 15.7365 2.26615 15.8458 2.43688 15.9235C2.9129 16.1402 3.3939 15.8686 3.70321 15.4481C4.60125 14.227 6.54846 11.6279 7.68881 10.4658C8.08812 10.7435 8.5572 11.1059 9.0436 11.5" stroke="#7F7F7F" stroke-width="1.2" stroke-linecap="round" stroke-linejoin="round"/>
<path d="M15.5 22.5C18.5376 22.5 21 20.0376 21 17C21 13.9624 18.5376 11.5 15.5 11.5C12.4624 11.5 10 13.9624 10 17C10 20.0376 12.4624 22.5 15.5 22.5Z" fill="#E5E5E5"/>
<path d="M15.5 23C18.8137 23 21.5 20.3137 21.5 17C21.5 13.6863 18.8137 11 15.5 11C12.1863 11 9.5 13.6863 9.5 17C9.5 20.3137 12.1863 23 15.5 23Z" stroke="#7F7F7F" stroke-width="1.2" stroke-linecap="round" stroke-linejoin="round"/>
<path d="M17.5 14.9375C17.5 14.9375 16.7 14.375 15.5 14.375C14.5 14.375 13.5 14.9375 13.5 15.6875C13.5 17.5625 17.5 16.4375 17.5 18.3125C17.5 19.0625 16.5 19.625 15.5 19.625C14.3 19.625 13.5 19.0625 13.5 19.0625" stroke="#7F7F7F" stroke-width="1.2" stroke-linecap="round" stroke-linejoin="round"/>
<path d="M15.5001 14.375L15.5 13.5" stroke="#7F7F7F" stroke-width="1.2" stroke-linecap="round" stroke-linejoin="round"/>
<path d="M15.5001 20.5L15.5 19.625" stroke="#7F7F7F" stroke-width="1.2" stroke-linecap="round" stroke-linejoin="round"/>
</svg>
