<svg width="24" height="24" viewBox="0 0 24 24" fill="none" xmlns="http://www.w3.org/2000/svg">
<path fill-rule="evenodd" clip-rule="evenodd" d="M12 2L4.14282 9.79475H19.8571L12 2Z" fill="#FFF3F2"/>
<path d="M11.9993 1.39914C12.5726 1.40109 13.1216 1.63525 13.5239 2.04839L23.4165 12.1279C23.6467 12.3624 23.6469 12.7429 23.4168 12.9776C23.1868 13.2124 22.8137 13.2125 22.5835 12.9779L12.6891 2.89675C12.5055 2.70818 12.256 2.60174 11.9954 2.60086C11.7348 2.59999 11.4845 2.70475 11.3011 2.89063L1.41686 12.9776C1.18682 13.2124 0.813708 13.2125 0.58348 12.978C0.353252 12.7434 0.353094 12.363 0.583127 12.1282L10.4688 2.03981C10.8754 1.6277 11.426 1.39723 11.9993 1.39914Z" fill="black"/>
<path fill-rule="evenodd" clip-rule="evenodd" d="M19.8571 9.35046V22.1667H4.14282V9.34512" fill="#FFF3F2"/>
<path d="M4.14287 8.74426C4.46833 8.74426 4.73216 9.01328 4.73216 9.34512V21.5658H19.2679V9.35046C19.2679 9.04627 19.4896 8.79488 19.7772 8.75509L19.8572 8.7496C20.1826 8.7496 20.4464 9.01862 20.4464 9.35046V22.1667C20.4464 22.4985 20.1826 22.7675 19.8572 22.7675H4.14287C3.81742 22.7675 3.55359 22.4985 3.55359 22.1667V9.34512C3.55359 9.01328 3.81742 8.74426 4.14287 8.74426Z" fill="black"/>
<path fill-rule="evenodd" clip-rule="evenodd" d="M15.1428 22.1667V17.3598C15.1428 15.59 13.7357 14.1552 12 14.1552C10.2642 14.1552 8.85712 15.59 8.85712 17.3598V22.1667" fill="#D52B1E"/>
<path d="M12 13.5544C14.0612 13.5544 15.7321 15.2581 15.7321 17.3598V22.1667C15.7321 22.4985 15.4683 22.7675 15.1428 22.7675C14.8174 22.7675 14.5535 22.4985 14.5535 22.1667V17.3598C14.5535 15.9218 13.4103 14.7561 12 14.7561C10.5897 14.7561 9.44639 15.9218 9.44639 17.3598V22.1667C9.44639 22.4985 9.18256 22.7675 8.85711 22.7675C8.53165 22.7675 8.26782 22.4985 8.26782 22.1667V17.3598C8.26782 15.2581 9.93876 13.5544 12 13.5544Z" fill="black"/>
</svg>
