<svg width="24" height="24" viewBox="0 0 24 24" fill="none" xmlns="http://www.w3.org/2000/svg">
<path fill-rule="evenodd" clip-rule="evenodd" d="M19.6555 8.81857C19.59 8.77492 19.5354 8.74217 19.4699 8.69852C18.9897 9.6153 18.1276 10.2592 17.1017 10.412C16.425 10.5102 15.7593 10.3793 15.1809 10.0628C14.8971 9.90998 14.6243 9.71352 14.3951 9.47342L14.3187 9.39702C13.8385 9.92089 13.2164 10.2811 12.5179 10.4011C12.3979 10.4229 12.2778 10.4339 12.1578 10.4448H11.9832C11.1428 10.4448 10.357 10.0955 9.76768 9.51707L9.66945 9.40793C8.97098 10.1828 7.94509 10.5648 6.89738 10.4229C6.24256 10.3247 5.64231 10.0191 5.17302 9.57164C4.91109 9.32062 4.69282 9.03685 4.5182 8.70943C4.07074 9.03685 3.53597 9.24422 2.97937 9.28788V22.4502C2.97937 22.7122 3.1649 22.9304 3.405 22.9741H20.4849C20.7687 22.9741 20.9869 22.7449 20.9869 22.4502V9.28788C20.9869 9.28788 20.9433 9.28788 20.9215 9.28788C20.474 9.24422 20.0374 9.08051 19.6555 8.8404V8.81857Z" fill="#FAE9E8"/>
<path fill-rule="evenodd" clip-rule="evenodd" d="M6.00257 0H3.12136C2.55385 0 2.0409 0.338336 1.77898 0.86221L0.0655285 4.4311C0.0655285 4.4311 0.0327874 4.5075 0.0218738 4.54025C4.64031e-05 4.60573 4.64024e-05 4.67121 4.64024e-05 4.7367V6.64666C-0.0217809 7.61801 0.502075 8.51296 1.33151 8.96044C1.54979 9.05866 1.75715 9.13506 1.97542 9.18963V22.4393C1.97542 23.3015 2.64116 24 3.48151 24H20.485C21.3145 24 21.9911 23.3015 21.9911 22.4393V9.20055C22.2203 9.14598 22.4386 9.06958 22.6459 8.97135C23.4972 8.52387 24.0101 7.61801 23.9992 6.64666V4.7367C23.9992 4.7367 23.9992 4.62756 23.9883 4.57299C23.9774 4.5075 23.9556 4.45293 23.9228 4.40928L22.2312 0.86221C21.9693 0.327422 21.4454 0 20.8888 0H6.00257ZM18.5751 4.16917L17.6365 1.03683H14.8317V4.16917H18.5751ZM22.6896 4.15825H19.6228L18.6843 1.03683H20.9652C21.118 1.05866 21.2599 1.15689 21.3254 1.3206L22.6787 4.15825H22.6896ZM13.8168 1.04775H10.1716V4.18008H13.8168V1.04775ZM13.8168 5.21692H10.1825V8.37108L10.2807 8.50205C10.6627 9.01501 11.2411 9.33151 11.8523 9.37517H11.9942C12.4416 9.37517 12.8673 9.23329 13.2274 8.98226C13.413 8.8513 13.5767 8.68758 13.7076 8.50205L13.7949 8.37108V5.21692H13.8168ZM9.17845 4.16917V1.04775H6.38455L5.44597 4.18008H9.17845V4.16917ZM5.31501 1.04775H3.11044C2.92491 1.04775 2.75029 1.15689 2.66298 1.33151L1.30969 4.18008H4.38734L5.32592 1.04775H5.31501ZM5.24952 5.21692V7.71623L5.27135 7.81446C5.52237 8.58936 6.14445 9.1678 6.9084 9.34243L7.05028 9.37517C7.57414 9.45157 8.09799 9.33151 8.53454 9.04775C8.78555 8.88404 9.00383 8.65484 9.17845 8.39291V5.23874H5.24952V5.21692ZM1.01502 6.66849V5.21692H4.24547V7.56344C3.98354 7.8472 3.65613 8.04366 3.29598 8.1528C3.11044 8.20737 2.914 8.24011 2.70664 8.24011C2.6739 8.24011 2.64116 8.24011 2.5975 8.24011C2.57567 8.24011 2.55385 8.24011 2.53202 8.22919H2.51019C2.51019 8.22919 2.44471 8.22919 2.41197 8.22919C2.18278 8.19645 1.96451 8.13097 1.75715 8.04366L1.65892 7.97817C1.24421 7.70532 0.982277 7.20327 0.993191 6.66849H1.01502ZM18.7607 5.22783H14.8317V8.40382C15.301 9.11323 16.1305 9.49522 16.949 9.37517C17.8112 9.2442 18.5096 8.61119 18.7497 7.74898V5.22783H18.7607ZM19.6556 8.81855C19.5901 8.7749 19.5355 8.74216 19.47 8.6985C18.9898 9.61528 18.1277 10.2592 17.1018 10.412C16.4251 10.5102 15.7594 10.3793 15.181 10.0628C14.8972 9.90996 14.6244 9.71351 14.3952 9.4734L14.3188 9.397C13.8386 9.92087 13.2165 10.281 12.518 10.4011C12.398 10.4229 12.2779 10.4338 12.1579 10.4447H11.9833C11.1429 10.4447 10.3571 10.0955 9.76779 9.51705L9.66956 9.40791C8.97109 10.1828 7.9452 10.5648 6.89749 10.4229C6.24267 10.3247 5.64242 10.0191 5.17313 9.57162C4.9112 9.3206 4.69293 9.03683 4.51831 8.70941C4.07085 9.03683 3.53608 9.2442 2.97948 9.28786V22.4502C2.97948 22.7121 3.16501 22.9304 3.40511 22.9741H20.485C20.7688 22.9741 20.987 22.7449 20.987 22.4502V9.28786C20.987 9.28786 20.9434 9.28786 20.9216 9.28786C20.4741 9.2442 20.0376 9.08049 19.6556 8.84038V8.81855ZM19.7756 7.60709V5.21692H22.9952V6.65757C22.9952 7.24693 22.7005 7.7708 22.2094 8.03274C22.002 8.14188 21.751 8.20737 21.5 8.22919C21.4782 8.22919 21.4563 8.22919 21.4345 8.22919H21.3581C21.3581 8.22919 21.3145 8.22919 21.2817 8.22919H21.1289C20.6596 8.18554 20.2122 7.98909 19.852 7.67258L19.7538 7.58527L19.7756 7.60709ZM13.6421 14.6139H10.4117L11.4485 12.8131C11.5904 12.5621 11.5249 12.2347 11.2848 12.0928C11.0447 11.9509 10.7391 12.0164 10.5972 12.2674L9.24393 14.6139H8.03251C7.69419 14.6139 7.45409 14.9523 7.55231 15.2797L9.0584 20.4966C9.12388 20.7258 9.32032 20.8677 9.5386 20.8677H14.5371C14.7444 20.8677 14.93 20.7258 15.0063 20.5075L16.6761 15.2797L16.698 15.2033V15.1269L16.6761 15.0505V14.9741L16.6543 14.8977L16.6216 14.8322L16.5779 14.7667L16.5124 14.6903L16.4579 14.6467L16.3924 14.6139L16.3269 14.5921L16.2614 14.5703H14.799L13.4457 12.2128C13.3038 11.9618 12.9982 11.8854 12.7581 12.0382C12.5289 12.191 12.4416 12.5075 12.5944 12.7585L13.6421 14.5703V14.6139ZM14.4934 15.6508H9.63682C9.57134 15.6617 9.49494 15.6617 9.41855 15.6508H8.68733L9.88784 19.8199H14.1551L15.4866 15.6508H14.5698C14.5698 15.6508 14.5152 15.6508 14.4934 15.6508Z" fill="black"/>
<path fill-rule="evenodd" clip-rule="evenodd" d="M14.4933 15.6508H9.63675C9.57126 15.6617 9.49487 15.6617 9.41847 15.6508H8.68726L9.88776 19.8199H14.155L15.4865 15.6508H14.5697C14.5697 15.6508 14.5152 15.6508 14.4933 15.6508Z" fill="#D52B1E"/>
<path fill-rule="evenodd" clip-rule="evenodd" d="M9.1784 1.04773V4.16915H5.43501L6.37359 1.04773H9.1784ZM17.6365 1.04773L18.5751 4.16915H14.8317V1.04773H17.6365ZM5.24951 5.23874V7.71623L5.27134 7.81445C5.52235 8.58935 6.14443 9.1678 6.90839 9.34242L7.05027 9.37516C7.57412 9.45156 8.09798 9.3315 8.53453 9.04774C8.78554 8.88403 9.00382 8.65483 9.17843 8.3929V5.23874H5.24951ZM14.8317 5.22783H18.7497V7.74897C18.5096 8.61118 17.8112 9.2442 16.949 9.37517C16.1304 9.49522 15.301 9.11323 14.8317 8.40382V5.22783Z" fill="#FAE9E8"/>
<path fill-rule="evenodd" clip-rule="evenodd" d="M19.6228 4.15825H22.6787L21.3254 1.3206C21.2599 1.15689 21.118 1.05866 20.9652 1.03683H18.6842L19.6228 4.15825ZM10.1824 1.04772H13.8276V4.18005H10.1824V1.04772ZM13.7949 5.2169H10.1824V8.37106L10.2807 8.50203C10.6626 9.01499 11.2411 9.3315 11.8522 9.37515H11.9941C12.4416 9.37515 12.8672 9.23327 13.2273 8.98225C13.4129 8.85128 13.5766 8.68757 13.7075 8.50203L13.7949 8.37106V5.2169ZM3.11023 1.04772H5.31479H5.3257L4.38713 4.18005H1.30947L2.66277 1.33149C2.75008 1.15686 2.92469 1.04772 3.11023 1.04772ZM1.01495 6.66847V5.2169H4.2454V7.56342C3.98347 7.84719 3.65606 8.04364 3.29591 8.15278C3.11038 8.20735 2.91393 8.24009 2.70657 8.24009H2.59744C2.57561 8.24009 2.55378 8.24009 2.53195 8.22918H2.51013H2.4119C2.18272 8.19644 1.96444 8.13095 1.75708 8.04364L1.65886 7.97815C1.24414 7.7053 0.982213 7.20326 0.993126 6.66847H1.01495ZM19.7755 7.60465V7.60708L19.7537 7.58525L19.7755 7.60465ZM19.7755 7.60465L19.8519 7.67256C20.2121 7.98907 20.6596 8.18552 21.1288 8.22918H21.2816H21.358H21.4344H21.4999C21.7509 8.20735 22.0019 8.14187 22.2093 8.03272C22.7004 7.77079 22.9951 7.24691 22.9951 6.65755V5.2169H19.7755V7.60465Z" fill="#D52B1E"/>
</svg>
