<svg width="24" height="24" viewBox="0 0 24 24" fill="none" xmlns="http://www.w3.org/2000/svg">
<g clip-path="url(#clip0_597_1597)">
<path d="M10.5375 12.4409C11.1015 12.4409 11.5589 12.8985 11.559 13.4624V20.2856C11.559 20.6986 11.3105 21.0717 10.9291 21.23C10.8052 21.2816 10.6718 21.3076 10.5375 21.3071C10.2669 21.3071 10.0073 21.1996 9.81586 21.0083L7.48676 18.6792C7.43887 18.6313 7.37384 18.604 7.30609 18.604C7.23834 18.604 7.1733 18.6313 7.12543 18.6792L2.17914 23.6265C1.68033 24.1246 0.872284 24.1246 0.373474 23.6265C-0.124524 23.1276 -0.124605 22.3196 0.373474 21.8208L5.32074 16.8745C5.4201 16.7745 5.42016 16.6131 5.32074 16.5132L2.99164 14.1851C2.69964 13.893 2.61192 13.4534 2.76996 13.0718C2.92801 12.6903 3.30034 12.4409 3.71332 12.4409H10.5375ZM21.8207 0.373535C22.3195 -0.12452 23.1276 -0.12452 23.6264 0.373535C24.1245 0.872317 24.1244 1.68039 23.6264 2.1792L18.6791 7.12549C18.5798 7.22542 18.5799 7.38681 18.6791 7.48682L21.0092 9.81592C21.3009 10.108 21.3878 10.5468 21.2299 10.9282C21.0719 11.3098 20.6996 11.5591 20.2866 11.5591H13.4623C12.8984 11.559 12.4409 11.1016 12.4409 10.5376V3.71436C12.4409 3.30137 12.6902 2.92903 13.0717 2.771C13.4533 2.61298 13.8929 2.70069 14.185 2.99268L16.5131 5.3208C16.6133 5.41968 16.7742 5.41965 16.8745 5.3208L21.8207 0.373535Z" fill="#404040"/>
</g>
<defs>
<clipPath id="clip0_597_1597">
<rect width="24" height="24" fill="white"/>
</clipPath>
</defs>
</svg>
