<svg width="24" height="24" viewBox="0 0 24 24" fill="none" xmlns="http://www.w3.org/2000/svg">
<g clip-path="url(#clip0_597_1065)">
<path d="M14.917 5.14258C15.4694 5.14267 15.999 5.36877 16.3896 5.77051C16.7803 6.17237 17 6.71781 17 7.28613V21.8574C16.9999 22.4256 16.7802 22.9703 16.3896 23.3721C15.999 23.7739 15.4694 23.9999 14.917 24H4.08301C3.53059 23.9999 3.00098 23.7739 2.61035 23.3721C2.21976 22.9703 2.00007 22.4256 2 21.8574V7.28613C2 6.71781 2.21965 6.17237 2.61035 5.77051C3.00097 5.36876 3.53062 5.14267 4.08301 5.14258H14.917ZM19.917 0C20.4694 8.88261e-05 20.999 0.226145 21.3896 0.62793C21.7802 1.02972 21.9999 1.57439 22 2.14258V16.7139C22 16.9952 21.9464 17.2743 21.8418 17.5342C21.7371 17.7942 21.5831 18.0305 21.3896 18.2295C21.1962 18.4284 20.9666 18.5867 20.7139 18.6943C20.4613 18.8019 20.1904 18.8574 19.917 18.8574H18.667V7.28613C18.6648 6.26385 18.2682 5.28341 17.5654 4.56055C16.8628 3.83799 15.9106 3.43106 14.917 3.42871H7V2.14258C7.00007 1.57439 7.21976 1.02972 7.61035 0.62793C8.00098 0.226145 8.53059 8.85664e-05 9.08301 0H19.917Z" fill="#404040"/>
</g>
<defs>
<clipPath id="clip0_597_1065">
<rect width="24" height="24" fill="white"/>
</clipPath>
</defs>
</svg>
