<svg width="24" height="24" viewBox="0 0 24 24" fill="none" xmlns="http://www.w3.org/2000/svg">
<g clip-path="url(#clip0_686_18971)">
<path d="M17 10C18.1046 10 19 10.8954 19 12V22C19 23.1046 18.1046 24 17 24H2C0.895431 24 0 23.1046 0 22V12C0 10.8954 0.895431 10 2 10H17ZM15.5645 17.3057C14.8093 16.8317 13.8313 16.9151 13.167 17.5098C13.0718 17.5946 12.9282 17.5946 12.833 17.5098C12.0314 16.7921 10.8053 16.8377 10.0586 17.6123C9.31224 18.3869 9.31224 19.6131 10.0586 20.3877C10.8053 21.1623 12.0314 21.2079 12.833 20.4902C12.9282 20.4054 13.0718 20.4054 13.167 20.4902C13.5331 20.819 14.008 21.0005 14.5 21C15.3917 21.0005 16.1759 20.4106 16.4229 19.5537C16.6697 18.6969 16.3197 17.7797 15.5645 17.3057ZM3.5 13C3.22386 13 3 13.2239 3 13.5V15.5C3 15.7761 3.22386 16 3.5 16H5.5C5.77614 16 6 15.7761 6 15.5V13.5C6 13.2239 5.77614 13 5.5 13H3.5ZM21 0C22.6569 0 24 1.34315 24 3V12C24.0005 13.0923 23.4072 14.0986 22.4512 14.627C22.14 14.7842 21.769 14.7678 21.4727 14.584C21.1767 14.4003 20.9976 14.0759 21 13.7275L21.0029 13.6133C21.0295 13.3125 21.2001 13.0394 21.4648 12.8848C21.7937 12.712 21.9999 12.3715 22 12V7.25C22 7.11193 21.8881 7 21.75 7H5.25C5.11193 7 5 7.11193 5 7.25V7.5C5 8.05228 4.55229 8.5 4 8.5L3.88379 8.49316C3.38645 8.4354 3 8.01284 3 7.5V3C3 1.34315 4.34315 0 6 0H21ZM6 2C5.44771 2 5 2.44772 5 3V3.75C5 3.88807 5.11193 4 5.25 4H21.75C21.8881 4 22 3.88807 22 3.75V3C22 2.44772 21.5523 2 21 2H6Z" fill="#404040"/>
</g>
<defs>
<clipPath id="clip0_686_18971">
<rect width="24" height="24" fill="white"/>
</clipPath>
</defs>
</svg>
