<svg width="24" height="24" viewBox="0 0 24 24" fill="none" xmlns="http://www.w3.org/2000/svg">
<g clip-path="url(#clip0_92_1061)">
<path d="M22.9834 14.585C23.5447 14.5852 24 15.0598 24 15.6455V18.1211C23.9999 20.0451 23.4533 21.9263 22.4307 23.5273C22.2421 23.8223 21.9248 24 21.585 24C21.2452 23.9999 20.9277 23.8223 20.7393 23.5273C19.7167 21.9263 19.171 20.0451 19.1709 18.1211V15.6455C19.1709 15.0597 19.6261 14.585 20.1875 14.585C20.7489 14.585 21.2041 15.0597 21.2041 15.6455V18.1211C21.2041 18.9503 21.3348 19.7691 21.585 20.5469C21.8352 19.769 21.9667 18.9504 21.9668 18.1211V15.6455C21.9668 15.0597 22.422 14.585 22.9834 14.585ZM13.3193 0C13.9591 0.00023041 14.5729 0.265459 15.0254 0.737305L20.498 6.44629L20.6572 6.62891C20.8074 6.81998 20.9296 7.03455 21.0205 7.26367C21.1416 7.56918 21.2042 7.89691 21.2041 8.22754V8.33398C21.2042 8.34016 21.2051 8.34634 21.2051 8.35254C21.2051 8.35827 21.2042 8.36441 21.2041 8.37012V12.7285C21.2041 13.3143 20.7489 13.7891 20.1875 13.7891C19.6262 13.7889 19.1709 13.3142 19.1709 12.7285V9.41406H14.5967C14.2798 9.414 13.9656 9.34823 13.6729 9.22168C13.3801 9.09508 13.1138 8.90962 12.8896 8.67578C12.6656 8.44194 12.4875 8.16388 12.3662 7.8584C12.245 7.5529 12.1826 7.22517 12.1826 6.89453V2.12109H3.41406C3.31309 2.12118 3.21595 2.16281 3.14453 2.2373C3.07313 2.3118 3.03331 2.41321 3.0332 2.51855V21.4795C3.03321 21.585 3.07304 21.6871 3.14453 21.7617C3.21592 21.836 3.31322 21.8769 3.41406 21.877H6.20996C6.77124 21.877 7.22632 22.3519 7.22656 22.9375C7.22656 23.5233 6.77139 23.999 6.20996 23.999H3.41406C2.77384 23.9989 2.15974 23.7331 1.70703 23.2607C1.25433 22.7883 1 22.1476 1 21.4795V2.51855C1.00011 1.85056 1.25434 1.20965 1.70703 0.737305C2.15973 0.264984 2.77388 8.34027e-05 3.41406 0H13.3193ZM11.8008 14.585C12.3622 14.585 12.8174 15.0597 12.8174 15.6455C12.8174 16.2313 12.3622 16.7061 11.8008 16.7061C11.5673 16.7061 11.3358 16.7535 11.1201 16.8467C10.9043 16.94 10.7082 17.0776 10.543 17.25C10.3779 17.4222 10.2466 17.6266 10.1572 17.8516C10.0678 18.0768 10.0225 18.3187 10.0225 18.5625V20.0205C10.0225 20.5126 10.2096 20.9849 10.543 21.333C10.8765 21.681 11.3291 21.8768 11.8008 21.877C12.3621 21.877 12.8171 22.3519 12.8174 22.9375C12.8174 23.5233 12.3622 23.999 11.8008 23.999C10.7899 23.9989 9.82028 23.5789 9.10547 22.833C8.3908 22.0871 7.98926 21.0753 7.98926 20.0205V18.5625C7.98926 18.0402 8.08775 17.5226 8.2793 17.04C8.47084 16.5576 8.75164 16.1192 9.10547 15.75C9.45931 15.3808 9.87951 15.0876 10.3418 14.8877C10.8042 14.6879 11.3003 14.585 11.8008 14.585ZM17.3926 14.585C17.9538 14.5852 18.4092 15.0598 18.4092 15.6455C18.4092 16.2312 17.9538 16.7058 17.3926 16.7061H15.9941C15.8932 16.7061 15.796 16.7478 15.7246 16.8223C15.6532 16.8968 15.6134 16.9982 15.6133 17.1035C15.6133 17.6023 15.8531 17.8561 16.6035 18.4434C17.2505 18.9497 18.4092 19.7906 18.4092 21.4795C18.4092 22.1475 18.1547 22.7883 17.7021 23.2607C17.2494 23.7332 16.6345 23.999 15.9941 23.999H14.5967C14.0352 23.999 13.5801 23.5233 13.5801 22.9375C13.5803 22.3519 14.0354 21.877 14.5967 21.877H15.9941C16.0952 21.877 16.1932 21.8362 16.2646 21.7617C16.3361 21.6871 16.376 21.585 16.376 21.4795C16.376 20.9806 16.1354 20.7271 15.3848 20.1396C14.7377 19.6333 13.5801 18.7922 13.5801 17.1035C13.5802 16.4355 13.8344 15.7946 14.2871 15.3223C14.7398 14.85 15.354 14.585 15.9941 14.585H17.3926ZM14.2158 6.89453C14.2158 6.94673 14.226 6.99864 14.2451 7.04688C14.2642 7.09495 14.2919 7.13895 14.3271 7.17578C14.3625 7.21267 14.405 7.24173 14.4512 7.26172C14.4973 7.28164 14.5468 7.29194 14.5967 7.29199H18.4336L14.2158 2.8916V6.89453Z" fill="#404040"/>
</g>
<defs>
<clipPath id="clip0_92_1061">
<rect width="24" height="24" fill="white"/>
</clipPath>
</defs>
</svg>
