<svg width="24" height="24" viewBox="0 0 24 24" fill="none" xmlns="http://www.w3.org/2000/svg">
<g clip-path="url(#clip0_597_1032)">
<path d="M17.5 12C17.9142 12 18.25 12.3358 18.25 12.75V13.6797C18.57 13.7735 18.8785 13.9034 19.1699 14.0654L19.8301 13.4053C19.97 13.2636 20.1612 13.1836 20.3604 13.1836C20.5594 13.1837 20.7498 13.2637 20.8896 13.4053L21.5947 14.1104C21.7367 14.2498 21.8168 14.4406 21.8154 14.6396C21.8175 14.8389 21.7373 15.0307 21.5947 15.1699L20.9404 15.8301C21.0989 16.1225 21.2262 16.431 21.3203 16.75H22.25C22.6642 16.75 23 17.0858 23 17.5V18.5C23 18.9142 22.6642 19.25 22.25 19.25H21.3203C21.2271 19.5693 21.0997 19.8779 20.9404 20.1699L21.5947 20.8301C21.8872 21.1229 21.8871 21.5968 21.5947 21.8896L20.8896 22.5947C20.7498 22.7363 20.5594 22.8163 20.3604 22.8164C20.1612 22.8164 19.97 22.7364 19.8301 22.5947L19.1699 21.9404C18.8779 22.0997 18.5693 22.2271 18.25 22.3203V23.25C18.25 23.6642 17.9142 24 17.5 24H16.5C16.0858 24 15.75 23.6642 15.75 23.25V22.3203C15.4307 22.2271 15.1221 22.0997 14.8301 21.9404L14.1699 22.5947C13.8739 22.8792 13.4064 22.8791 13.1104 22.5947L12.4053 21.8896C12.1129 21.5968 12.1128 21.1229 12.4053 20.8301L13.0596 20.1699C12.9003 19.8779 12.7729 19.5693 12.6797 19.25H11.75C11.3358 19.25 11 18.9142 11 18.5V17.5C11 17.0858 11.3358 16.75 11.75 16.75H12.6797C12.7738 16.431 12.9011 16.1225 13.0596 15.8301L12.4053 15.1699C12.2617 15.0314 12.1813 14.8392 12.1846 14.6396C12.1832 14.4406 12.2633 14.2498 12.4053 14.1104L13.1104 13.4053C13.2502 13.2637 13.4406 13.1837 13.6396 13.1836C13.8388 13.1836 14.03 13.2636 14.1699 13.4053L14.8301 14.0654C15.1215 13.9034 15.43 13.7735 15.75 13.6797V12.75C15.75 12.3358 16.0858 12 16.5 12H17.5ZM1.1582 17.4346C1.24215 17.3805 1.34776 17.3804 1.43164 17.4346C3.30249 18.8114 5.47629 19.6533 7.74316 19.8789C7.85498 19.8894 7.94335 19.9839 7.95312 20.1025C8.12588 21.284 8.5082 22.4204 9.0791 23.4512C9.21243 23.5282 9.26174 23.705 9.18945 23.8467C9.11693 23.9883 8.94994 24.0415 8.81641 23.9648C4.34569 23.5184 1.00009 21.7432 1 19.6113V17.6914C1.00225 17.5809 1.06383 17.4813 1.1582 17.4346ZM17 15.5C15.6193 15.5 14.5 16.6193 14.5 18C14.5 19.3807 15.6193 20.5 17 20.5C18.3807 20.5 19.5 19.3807 19.5 18C19.5 16.6193 18.3807 15.5 17 15.5ZM1.17871 12.3779C1.26263 12.324 1.36831 12.3238 1.45215 12.3779C3.47233 13.8374 5.8201 14.7041 8.25781 14.8896C8.33743 14.8975 8.40869 14.9451 8.4502 15.0176C8.49161 15.0901 8.49893 15.1793 8.46875 15.2578C8.06673 16.3461 7.85959 17.5049 7.8584 18.6738V18.7402C3.88204 18.1487 1.00977 16.4743 1.00977 14.5098L1.02051 12.6348C1.02286 12.5244 1.08443 12.4246 1.17871 12.3779ZM1.16797 7.34473C1.25195 7.29052 1.35744 7.29049 1.44141 7.34473C3.56637 9.18638 7.77422 10.2248 12.0977 10.0127C12.2131 10.0155 12.3133 10.0979 12.3447 10.2158C12.3759 10.3336 12.3312 10.4589 12.2344 10.5254C10.9895 11.3125 9.94261 12.408 9.18359 13.7178C9.13113 13.8105 9.03301 13.8625 8.93164 13.8516C4.40827 13.4274 1.00977 11.6304 1.00977 9.4873V7.60156C1.0094 7.49025 1.07182 7.38925 1.16797 7.34473ZM20.5342 7.2666C20.6181 7.21237 20.7236 7.21242 20.8076 7.2666C20.8997 7.31442 20.9573 7.41473 20.9551 7.52344C21.0146 8.30335 21.0146 9.08728 20.9551 9.86719C20.9489 9.9547 20.9024 10.0336 20.8311 10.0781C20.7598 10.1224 20.6727 10.1266 20.5977 10.0898C19.8322 9.71352 19.0214 9.45066 18.1885 9.30859C18.0433 9.32393 17.9139 9.21169 17.8994 9.05762C17.885 8.90367 17.9907 8.76655 18.1357 8.75098C19.002 8.3893 19.8111 7.88859 20.5342 7.2666ZM11.0039 0C16.523 9.8594e-05 20.9971 1.9991 20.9971 4.46484C20.9969 6.93054 16.5229 8.92959 11.0039 8.92969C5.48473 8.92969 1.00989 6.9306 1.00977 4.46484C1.00977 1.99904 5.48465 0 11.0039 0Z" fill="#404040"/>
</g>
<defs>
<clipPath id="clip0_597_1032">
<rect width="24" height="24" fill="white"/>
</clipPath>
</defs>
</svg>
