<svg width="24" height="24" viewBox="0 0 24 24" fill="none" xmlns="http://www.w3.org/2000/svg">
<g clip-path="url(#clip0_711_18907)">
<path d="M17.7393 0C18.3155 6.60578e-05 18.7822 0.447761 18.7822 1V2.75C18.7822 2.88807 18.8999 3 19.0439 3H21.9131C23.0657 3.00002 24 3.89544 24 5V22C24 23.1046 23.0657 24 21.9131 24H2.08691C0.93434 24 0 23.1046 0 22V5C0 3.89544 0.93434 3.00002 2.08691 3H3.65234C3.94041 3.00009 4.17383 3.22391 4.17383 3.5V5.75C4.17383 6.16407 4.52405 6.49976 4.95605 6.5C5.38828 6.5 5.73926 6.16422 5.73926 5.75V1C5.73926 0.447842 6.20611 0.00019783 6.78223 0C7.35852 0 7.82617 0.44772 7.82617 1V2.75098C7.82675 2.88864 7.94327 2.99998 8.08691 3H14.6084C14.8965 3 15.1309 3.22386 15.1309 3.5V5.75C15.1309 6.16422 15.4809 6.5 15.9131 6.5C16.3453 6.49998 16.6953 6.16421 16.6953 5.75V1C16.6953 0.44772 17.163 0 17.7393 0Z" fill="#404040"/>
</g>
<defs>
<clipPath id="clip0_711_18907">
<rect width="24" height="24" fill="white"/>
</clipPath>
</defs>
</svg>
