<svg width="24" height="24" viewBox="0 0 24 24" fill="none" xmlns="http://www.w3.org/2000/svg">
<g clip-path="url(#clip0_468_288)">
<path fill-rule="evenodd" clip-rule="evenodd" d="M20.9872 6.36598C20.9872 2.79999 18.7512 1.69057e-05 15.8974 1.69057e-05C14.5667 -0.00347309 13.2884 0.533518 12.3401 1.49416C12.1512 1.68473 11.8488 1.68473 11.6599 1.49416C10.7115 0.533518 9.43319 -0.00347309 8.1025 1.69057e-05C5.24865 1.69057e-05 3.0128 2.79999 3.0128 6.36598C2.88747 8.95327 3.68581 11.4984 5.25741 13.522C5.37313 13.6597 5.407 13.8512 5.34584 14.022C4.73043 15.7744 4.41989 17.6247 4.42853 19.4881C4.42705 20.6137 4.53742 21.7366 4.75792 22.8391C4.89623 23.5138 5.47356 23.9974 6.14358 24C6.8858 23.999 7.5088 23.4243 7.59044 22.6651C7.95094 19.2701 9.84571 16.709 11.9999 16.709C14.1542 16.709 16.049 19.27 16.4095 22.666C16.4916 23.4249 17.1144 23.9991 17.8563 24C18.5264 23.9971 19.1039 23.5138 19.2429 22.8391C19.4627 21.7368 19.5727 20.6143 19.5714 19.489C19.58 17.6257 19.2695 15.7754 18.6541 14.023C18.593 13.8522 18.6268 13.6606 18.7425 13.523C20.3144 11.4992 21.1127 8.95361 20.9872 6.36598ZM16.3726 10.2861C16.3726 10.4567 16.3068 10.6201 16.1896 10.7407C16.0724 10.8613 15.9135 10.929 15.7478 10.929H14.3602C14.0919 10.929 13.8744 11.1528 13.8744 11.429V12.857C13.8744 13.2121 13.5946 13.5 13.2496 13.5H10.7503C10.5847 13.5 10.4259 13.4322 10.3089 13.3115C10.1919 13.1909 10.1263 13.0274 10.1265 12.857V11.429C10.1265 11.1528 9.90902 10.929 9.6407 10.929H8.25214C8.08643 10.929 7.92753 10.8613 7.81035 10.7407C7.69318 10.6201 7.62733 10.4567 7.62733 10.2861V7.71413C7.62733 7.35901 7.90707 7.07106 8.25214 7.07106H9.6407C9.90902 7.07106 10.1265 6.84721 10.1265 6.57106V5.14308C10.1263 4.97263 10.1919 4.8091 10.3089 4.68849C10.4259 4.56787 10.5847 4.50002 10.7503 4.50002H13.2496C13.5946 4.50002 13.8744 4.78796 13.8744 5.14308V6.57106C13.8744 6.84721 14.0919 7.07106 14.3602 7.07106H15.7478C16.0928 7.07106 16.3726 7.35901 16.3726 7.71413V10.2861Z" fill="#D52B1E"/>
</g>
<defs>
<clipPath id="clip0_468_288">
<rect width="24" height="24" fill="white"/>
</clipPath>
</defs>
</svg>
