<svg width="24" height="24" viewBox="0 0 24 24" fill="none" xmlns="http://www.w3.org/2000/svg">
<g clip-path="url(#clip0_648_503)">
<path d="M11.9996 13.333C13.8482 13.333 15.3478 14.8525 15.3483 16.7266V18.666C15.3481 18.9336 15.1337 19.1503 14.8698 19.1504H14.3053C14.0584 19.1492 13.851 19.3388 13.8268 19.5879L13.4352 23.5635C13.4106 23.8121 13.2031 24.0012 12.9567 24H11.0436C10.7989 23.9993 10.5939 23.8113 10.569 23.5645L10.1764 19.5889C10.1522 19.3399 9.94562 19.1503 9.69887 19.1514H9.13051C8.8665 19.1514 8.65219 18.9346 8.65199 18.667V16.7275C8.65199 14.8532 10.1509 13.3332 11.9996 13.333ZM4.10902 14.3027C5.82475 14.305 7.2151 15.7147 7.21742 17.4541V19.1514C7.21742 19.4191 7.00304 19.6367 6.73891 19.6367H6.29359C6.04718 19.6355 5.83989 19.8238 5.81508 20.0723L5.46449 23.5635C5.43939 23.8117 5.23211 24.0002 4.98598 23.999H3.23598C2.98994 24.0001 2.78353 23.8116 2.75844 23.5635L2.40688 20.0723C2.38205 19.8238 2.17477 19.6355 1.92836 19.6367H1.47816C1.21407 19.6367 0.999649 19.4191 0.999649 19.1514V17.4541C1.00197 15.7146 2.39314 14.3049 4.10902 14.3027ZM19.8913 14.3027C21.6071 14.3049 22.9973 15.7146 22.9996 17.4541V19.1514C22.9996 19.419 22.7861 19.6365 22.5221 19.6367H22.0807C21.8343 19.6355 21.627 19.8238 21.6022 20.0723L21.2516 23.5635C21.2265 23.8118 21.0193 24.0003 20.7731 23.999H19.0192C18.773 24.0003 18.5658 23.8118 18.5407 23.5635L18.1901 20.0723C18.1653 19.8238 17.9579 19.6356 17.7116 19.6367H17.2604C16.9965 19.6365 16.7829 19.419 16.7829 19.1514V17.4541C16.7852 15.7147 18.1754 14.3049 19.8913 14.3027ZM4.10902 9.4541C5.29749 9.45428 6.26039 10.4318 6.26039 11.6367C6.26018 12.8414 5.29735 13.8182 4.10902 13.8184C2.92054 13.8184 1.95689 12.8415 1.95668 11.6367C1.95668 10.4317 2.92041 9.4541 4.10902 9.4541ZM19.8913 9.4541C21.0799 9.4541 22.0436 10.4317 22.0436 11.6367C22.0434 12.8415 21.0797 13.8184 19.8913 13.8184C18.7028 13.8183 17.7391 12.8415 17.7389 11.6367C17.7389 10.4318 18.7027 9.45413 19.8913 9.4541ZM11.9996 8C13.3202 8 14.3911 9.08513 14.3913 10.4238C14.3913 11.7627 13.3203 12.8486 11.9996 12.8486C10.6791 12.8484 9.60902 11.7626 9.60902 10.4238C9.60922 9.08525 10.6793 8.00019 11.9996 8ZM11.0504 0.239258C11.6352 -0.074635 12.3374 -0.0802187 12.9264 0.225586L23.4879 6.12695C23.9701 6.39646 24.1422 7.00614 23.8727 7.48828C23.6031 7.97002 22.9943 8.14228 22.5123 7.87305L12.0973 2.05273C12.0214 2.01076 11.929 2.01081 11.8532 2.05273L1.48793 7.87109C1.00583 8.14047 0.396109 7.96836 0.126602 7.48633C-0.142913 7.00419 0.0301993 6.39451 0.512344 6.125L11.0504 0.239258Z" fill="#404040"/>
</g>
<defs>
<clipPath id="clip0_648_503">
<rect width="24" height="24" fill="white"/>
</clipPath>
</defs>
</svg>
