<svg width="25" height="24" viewBox="0 0 25 24" fill="none" xmlns="http://www.w3.org/2000/svg">
<path fill-rule="evenodd" clip-rule="evenodd" d="M10.4825 0.592349C11.3314 -0.197505 12.6598 -0.197394 13.5088 0.592349L15.0371 2.01227C15.2069 2.16221 15.4267 2.23261 15.6563 2.2027L17.7539 1.91266C18.9226 1.75266 20.0014 2.50262 20.2012 3.62262L20.5713 5.63239C20.6113 5.84231 20.7506 6.03236 20.9502 6.13239L22.8282 7.09235C23.8769 7.63235 24.287 8.84286 23.7676 9.86286L22.8379 11.6929C22.7382 11.8928 22.7381 12.1132 22.8379 12.3131H22.8487L23.7774 14.1422C24.2968 15.1622 23.8767 16.3827 22.8379 16.9127L20.96 17.8726C20.7604 17.9727 20.621 18.1528 20.5811 18.3726L20.211 20.3824C20.0112 21.5024 18.9323 22.2523 17.7637 22.0924L15.667 21.8023C15.4373 21.7723 15.2067 21.8427 15.0469 21.9927L13.5186 23.4127C13.0892 23.8025 12.5502 24.0025 12.001 24.0025C11.4516 24.0025 10.912 23.8027 10.4825 23.4127L8.95414 21.9927C8.78434 21.8428 8.5647 21.7723 8.335 21.8023L6.23734 22.0924C6.13748 22.1123 6.02762 22.1129 5.92777 22.1129C4.88901 22.1128 3.97985 21.4024 3.79007 20.3824L3.42093 18.3726C3.38098 18.1626 3.24082 17.9726 3.04105 17.8726L1.16312 16.9127C0.114485 16.3726 -0.29472 15.1621 0.224643 14.1422L1.15335 12.3131C1.2532 12.1131 1.25312 11.8929 1.15335 11.6929L0.224643 9.86286C-0.294734 8.84289 0.124409 7.62238 1.16312 7.09235L3.04105 6.13239C3.24082 6.03239 3.38098 5.85239 3.42093 5.63239L3.79007 3.62262C3.98983 2.50267 5.06875 1.75275 6.23734 1.91266L8.335 2.2027C8.56473 2.2327 8.79432 2.16227 8.95414 2.01227L10.4825 0.592349ZM14.8975 13.1529C13.4392 13.1529 12.2608 14.2929 12.2608 15.6929C12.261 17.0927 13.4493 18.232 14.8975 18.232C16.3456 18.232 17.5339 17.0927 17.5342 15.6929C17.5342 14.2929 16.3458 13.1529 14.8975 13.1529ZM17.2744 6.94196C16.9948 6.67235 16.5355 6.67225 16.2559 6.94196L6.7471 16.0826C6.46749 16.3526 6.46751 16.7921 6.7471 17.0621C6.88682 17.192 7.07624 17.2621 7.25589 17.2623C7.43568 17.2623 7.62582 17.2021 7.76566 17.0621L17.2744 7.92243C17.5541 7.65243 17.5541 7.21196 17.2744 6.94196ZM14.8975 14.5425C15.5567 14.5426 16.0957 15.0629 16.0957 15.6929C16.0955 16.3227 15.5566 16.8423 14.8975 16.8424C14.2384 16.8424 13.6995 16.3227 13.6993 15.6929C13.6993 15.0629 14.2383 14.5425 14.8975 14.5425ZM9.12406 5.77301C7.6658 5.77306 6.48734 6.91308 6.48734 8.31305C6.48761 9.7128 7.67595 10.8521 9.12406 10.8521C10.5722 10.8521 11.7605 9.71283 11.7608 8.31305C11.7608 6.91305 10.5724 5.77301 9.12406 5.77301ZM9.12406 7.16266C9.78329 7.16266 10.3223 7.68305 10.3223 8.31305C10.322 8.95283 9.78313 9.46247 9.12406 9.46247C8.46503 9.46242 7.92609 8.94281 7.92582 8.31305C7.92582 7.68308 8.46487 7.16271 9.12406 7.16266Z" fill="#404040"/>
</svg>
