<svg width="24" height="24" viewBox="0 0 24 24" fill="none" xmlns="http://www.w3.org/2000/svg">
<g clip-path="url(#clip0_597_1649)">
<path d="M10 3.99902C10.5085 3.99903 11.0091 4.03699 11.498 4.11035C12.0578 4.19454 12.4433 4.71601 12.3594 5.27539C12.2753 5.83495 11.7535 6.22057 11.1934 6.13672C10.805 6.07844 10.4064 6.04883 10 6.04883C9.97425 6.04883 9.9485 6.04858 9.92285 6.04883C9.90088 6.05694 9.87826 6.06458 9.85547 6.07129C9.68635 6.12102 9.42713 6.27991 9.12012 6.67969C8.81818 7.07285 8.51929 7.63666 8.25586 8.36328C7.8117 9.58836 7.50268 11.184 7.41699 12.9775H12.583C12.5558 12.4153 12.507 11.8711 12.4385 11.3506C12.3645 10.7895 12.7599 10.2751 13.3213 10.2012C13.8828 10.1273 14.3978 10.522 14.4717 11.083C14.5519 11.6914 14.608 12.3251 14.6367 12.9775H17.9062C17.9987 12.5588 18.3505 12.2272 18.8008 12.1797C19.3641 12.1206 19.8685 12.5289 19.9277 13.0918C19.9335 13.1465 19.9403 13.2024 19.9473 13.2598C19.9712 13.4604 19.9985 13.6842 20 13.9785V14.0244C19.9902 19.5194 15.5511 23.9571 10.0762 23.998C10.0511 23.9988 10.0253 23.999 10 23.999C9.9748 23.999 9.9497 23.9988 9.9248 23.998C4.42639 23.9576 0 19.4926 0 14.0059V13.9912C6.42996e-06 8.46214 4.48388 3.99902 10 3.99902ZM7.41699 15.0273C7.51111 16.9828 7.87139 18.703 8.38086 19.9619C8.68005 20.7011 9.01029 21.2316 9.3252 21.5605C9.61691 21.8652 9.83562 21.9406 9.97266 21.9492H10.0283C10.1645 21.9406 10.3816 21.8651 10.6729 21.5615C10.9874 21.2335 11.3187 20.7052 11.6182 19.9668C12.1283 18.7091 12.4897 16.9884 12.584 15.0273H7.41699ZM2.11621 15.0273C2.47142 17.7937 4.24994 20.1176 6.69922 21.2354C6.62224 21.0712 6.54924 20.9018 6.47949 20.7295C5.85793 19.1935 5.45966 17.2038 5.36426 15.0273H2.11621ZM14.6367 15.0273C14.5412 17.2099 14.1413 19.201 13.5186 20.7363C13.4497 20.9059 13.3775 21.0719 13.3018 21.2334C15.747 20.1169 17.5285 17.7981 17.8838 15.0273H14.6367ZM6.7002 6.7627C4.25148 7.87989 2.46829 10.2028 2.11523 12.9775H5.36328C5.45035 10.9759 5.7932 9.13782 6.32715 7.66504C6.44106 7.35085 6.56564 7.04906 6.7002 6.7627ZM19 -0.000976562C19.3716 -0.000976562 19.691 0.258078 19.7627 0.617188C20.1273 2.4473 21.5873 3.89482 23.376 4.24902C23.7389 4.32096 23.9999 4.63537 24 5C24 5.36471 23.739 5.67899 23.376 5.75098C21.5867 6.10529 20.1272 7.55134 19.7627 9.38086C19.6911 9.74 19.3716 9.99895 19 9.99902C18.6283 9.99902 18.3091 9.74001 18.2373 9.38086C17.8729 7.55125 16.4132 6.10528 14.624 5.75098C14.2612 5.67899 14 5.36471 14 5C14.0001 4.63538 14.2612 4.32096 14.624 4.24902C16.4129 3.8948 17.8728 2.44721 18.2373 0.617188C18.3091 0.25812 18.6284 -0.000856534 19 -0.000976562Z" fill="#404040"/>
</g>
<defs>
<clipPath id="clip0_597_1649">
<rect width="24" height="24" fill="white"/>
</clipPath>
</defs>
</svg>
