<svg width="24" height="24" viewBox="0 0 24 24" fill="none" xmlns="http://www.w3.org/2000/svg">
<g clip-path="url(#clip0_686_414)">
<path d="M17 0C18.6569 0 20 1.34315 20 3V21C20 22.6569 18.6569 24 17 24H7C5.34315 24 4 22.6569 4 21V3C4 1.34315 5.34315 0 7 0H17ZM6.5 3C6.22386 3 6 3.22386 6 3.5V19C6 19.2761 6.22386 19.5 6.5 19.5H17.5C17.7761 19.5 18 19.2761 18 19V3.5C18 3.22386 17.7761 3 17.5 3H6.5ZM13 7.5C13.2761 7.5 13.5 7.72386 13.5 8V9.5C13.5 9.77614 13.7239 10 14 10H15.5C15.7761 10 16 10.2239 16 10.5V12.5C16 12.7761 15.7761 13 15.5 13H14C13.7239 13 13.5 13.2239 13.5 13.5V15C13.5 15.2761 13.2761 15.5 13 15.5H11C10.7239 15.5 10.5 15.2761 10.5 15V13.5C10.5 13.2239 10.2761 13 10 13H8.5C8.22386 13 8 12.7761 8 12.5V10.5C8 10.2239 8.22386 10 8.5 10H10C10.2761 10 10.5 9.77614 10.5 9.5V8C10.5 7.72386 10.7239 7.5 11 7.5H13Z" fill="#404040"/>
</g>
<defs>
<clipPath id="clip0_686_414">
<rect width="24" height="24" fill="white"/>
</clipPath>
</defs>
</svg>
