<svg width="24" height="24" viewBox="0 0 24 24" fill="none" xmlns="http://www.w3.org/2000/svg">
<path d="M12 0C18.624 0.008154 23.9917 5.3761 24 12C24 18.6274 18.6274 24 12 24C5.37259 24 0 18.6274 0 12C0.000130911 5.37272 5.37267 0 12 0ZM12.0078 2.75977C11.2432 2.75977 10.6231 3.37992 10.623 4.14453V4.79102C10.6335 4.974 10.5017 5.13438 10.3203 5.16016C8.63087 5.47596 7.34659 6.86193 7.1748 8.56934C7.0032 10.2768 7.98539 11.8911 9.58105 12.5225L13.3906 14.0547C13.8753 14.2504 14.1536 14.7622 14.0547 15.2754C13.9557 15.7885 13.507 16.1596 12.9844 16.1611H9.23047C8.46595 16.1613 7.84577 16.7814 7.8457 17.5459C7.8457 18.3105 8.46591 18.9305 9.23047 18.9307H10.3125C10.4787 18.9365 10.6114 19.0711 10.6152 19.2373V19.8535C10.6152 20.6182 11.2353 21.2383 12 21.2383C12.7647 21.2383 13.3848 20.6182 13.3848 19.8535V19.2002C13.3646 19.0311 13.4728 18.8734 13.6377 18.8311C15.3444 18.5528 16.6545 17.1669 16.8369 15.4473C17.0193 13.7278 16.0291 12.099 14.4189 11.4688L10.6094 9.94336C10.1248 9.74762 9.84637 9.23583 9.94531 8.72266C10.0443 8.20951 10.493 7.83841 11.0156 7.83691H14.7695C15.5341 7.83675 16.1543 7.21676 16.1543 6.45215C16.1541 5.68773 15.534 5.06853 14.7695 5.06836H13.7041C13.5355 5.06648 13.3977 4.93211 13.3916 4.76367V4.14453C13.3915 3.38006 12.7723 2.76 12.0078 2.75977Z" fill="#404040"/>
</svg>
