<svg width="24" height="24" viewBox="0 0 24 24" fill="none" xmlns="http://www.w3.org/2000/svg">
<path d="M11.9995 13.3215C12.293 13.3234 12.5844 13.2663 12.856 13.1536C13.1276 13.0408 13.3746 12.8743 13.5825 12.6643L21.6147 4.52368C21.8711 4.23638 22.009 3.86011 21.9995 3.4729C21.9899 3.08572 21.8341 2.71657 21.564 2.44263C21.2937 2.1687 20.9295 2.01003 20.5474 2.00024C20.1653 1.99051 19.7938 2.13013 19.5103 2.38989L12.1519 9.8479C12.1102 9.88568 12.0554 9.90747 11.9995 9.90747C11.9438 9.90736 11.8897 9.88558 11.8481 9.8479L4.48975 2.38989C4.20622 2.13011 3.83473 1.99051 3.45264 2.00024C3.07053 2.01002 2.70631 2.16869 2.43604 2.44263C2.1659 2.71657 2.01009 3.08571 2.00049 3.4729C1.99098 3.86011 2.12893 4.23638 2.38525 4.52368L10.4175 12.6643C10.6254 12.8743 10.8724 13.0408 11.144 13.1536C11.4155 13.2662 11.7062 13.3233 11.9995 13.3215ZM11.9995 22.0002C12.5899 22.0076 13.1592 21.7768 13.5825 21.3596L21.6147 13.1936C21.8711 12.9063 22.009 12.53 21.9995 12.1428C21.9899 11.7556 21.8341 11.3865 21.564 11.1125C21.2937 10.8386 20.9295 10.6799 20.5474 10.6702C20.1653 10.6604 19.7938 10.8 19.5103 11.0598L12.1519 18.5178C12.1323 18.5384 12.1085 18.5554 12.0825 18.5667C12.0565 18.5779 12.0278 18.5833 11.9995 18.5833C11.9714 18.5832 11.9434 18.5778 11.9175 18.5667C11.8915 18.5554 11.8678 18.5384 11.8481 18.5178L4.48975 11.0598C4.20622 10.8 3.83473 10.6604 3.45264 10.6702C3.07053 10.6799 2.70631 10.8386 2.43604 11.1125C2.1659 11.3865 2.01009 11.7556 2.00049 12.1428C1.99098 12.53 2.12893 12.9063 2.38525 13.1936L10.4175 21.3596C10.8407 21.7767 11.4093 22.0075 11.9995 22.0002Z" fill="#404040"/>
</svg>
