<svg width="24" height="24" viewBox="0 0 24 24" fill="none" xmlns="http://www.w3.org/2000/svg">
<path d="M13.4737 2.3605C12.8601 1.82311 11.948 1.89488 11.419 2.52261C10.89 3.15036 10.9375 4.1044 11.5264 4.67105L19.3125 11.8195C19.3558 11.859 19.3809 11.9167 19.3809 11.9767C19.3808 12.0365 19.3556 12.0935 19.3125 12.1329L11.5264 19.2814C11.1166 19.6403 10.9253 20.2037 11.0264 20.7521C11.1276 21.3002 11.5057 21.7484 12.0137 21.923C12.5217 22.0974 13.0804 21.971 13.4737 21.5929L22.374 13.42C22.7714 13.0551 22.9994 12.5291 23 11.9767C23.0007 11.4253 22.7734 10.8997 22.377 10.5353L13.4737 2.3605ZM3.47368 2.3605C2.86009 1.82311 1.94802 1.89488 1.419 2.52261C0.89001 3.15036 0.937534 4.1044 1.52642 4.67105L9.31254 11.8195C9.35577 11.859 9.3809 11.9167 9.3809 11.9767C9.38081 12.0365 9.35563 12.0935 9.31254 12.1329L1.52642 19.2814C1.11659 19.6403 0.925354 20.2037 1.02642 20.7521C1.12759 21.3002 1.50568 21.7484 2.01372 21.923C2.52169 22.0974 3.08036 21.971 3.47368 21.5929L12.3741 13.42C12.7714 13.0551 12.9994 12.5291 13 11.9767C13.0007 11.4253 12.7735 10.8997 12.377 10.5353L3.47368 2.3605Z" fill="#404040"/>
</svg>
