<svg width="24" height="24" viewBox="0 0 24 24" fill="none" xmlns="http://www.w3.org/2000/svg">
<path d="M10.5261 2.3605C11.1397 1.82311 12.0518 1.89488 12.5808 2.52261C13.1098 3.15036 13.0623 4.1044 12.4734 4.67105L4.68728 11.8195C4.64405 11.859 4.61892 11.9167 4.61892 11.9767C4.61901 12.0365 4.64419 12.0935 4.68728 12.1329L12.4734 19.2814C12.8832 19.6403 13.0745 20.2037 12.9734 20.7521C12.8722 21.3002 12.4941 21.7484 11.9861 21.923C11.4781 22.0974 10.9195 21.971 10.5261 21.5929L1.62576 13.42C1.22841 13.0551 1.00038 12.5291 0.999788 11.9767C0.999135 11.4253 1.22636 10.8997 1.62283 10.5353L10.5261 2.3605ZM20.5261 2.3605C21.1397 1.82311 22.0518 1.89488 22.5808 2.52261C23.1098 3.15036 23.0623 4.1044 22.4734 4.67105L14.6873 11.8195C14.644 11.859 14.6189 11.9167 14.6189 11.9767C14.619 12.0365 14.6442 12.0935 14.6873 12.1329L22.4734 19.2814C22.8832 19.6403 23.0745 20.2037 22.9734 20.7521C22.8722 21.3002 22.4941 21.7484 21.9861 21.923C21.4781 22.0974 20.9194 21.971 20.5261 21.5929L11.6257 13.42C11.2284 13.0551 11.0004 12.5291 10.9998 11.9767C10.9991 11.4253 11.2263 10.8997 11.6228 10.5353L20.5261 2.3605Z" fill="#404040"/>
</svg>
