<svg width="24" height="24" viewBox="0 0 24 24" fill="none" xmlns="http://www.w3.org/2000/svg">
<path d="M22.7705 17C23.096 16.9987 23.409 17.1244 23.6396 17.3496C23.8702 17.5748 23.9999 17.8811 24 18.2002V20.0381C24 22.2262 22.1911 24 19.96 24H4.03516C1.80598 23.9973 4.25333e-05 22.2243 0 20.0381V18.2002C0.000228766 17.5375 0.547941 17.0002 1.22363 17C1.89954 17 2.44801 17.5374 2.44824 18.2002V20.0381C2.4494 20.8968 3.15951 21.5922 4.03516 21.5928H19.96C20.8356 21.5922 21.5457 20.8968 21.5469 20.0381V18.2002C21.5471 17.5375 22.0948 17.0002 22.7705 17ZM12 0C12.2755 0 12.5396 0.105423 12.7344 0.292969L17.6973 5.07129C17.9937 5.35769 18.0811 5.78781 17.9199 6.16113C17.7591 6.53466 17.3809 6.77833 16.9609 6.77832H13.8184C13.7494 6.77805 13.6825 6.80462 13.6338 6.85156C13.5852 6.89845 13.5584 6.96209 13.5586 7.02832V16.5C13.5586 17.3283 12.8611 17.9998 12.001 18C11.1406 18 10.4424 17.3284 10.4424 16.5V7.02832C10.4423 6.8903 10.326 6.77832 10.1826 6.77832H7.03809C6.61822 6.77812 6.23978 6.53467 6.0791 6.16113C5.91841 5.78756 6.00688 5.35729 6.30371 5.07129L11.2656 0.292969C11.4604 0.105418 11.7246 1.56909e-05 12 0Z" fill="#404040"/>
</svg>
