<svg width="24" height="24" viewBox="0 0 24 24" fill="none" xmlns="http://www.w3.org/2000/svg">
<path d="M15.0868 14.3809C16.0004 14.0025 17.0056 13.9028 17.9754 14.0957C18.9453 14.2886 19.8357 14.7656 20.535 15.4648C21.2342 16.1641 21.7112 17.0545 21.9041 18.0244C22.097 18.9943 21.9973 19.9995 21.619 20.9131C21.2406 21.8266 20.6002 22.6078 19.7782 23.1572C18.9559 23.7066 17.9888 24 16.9999 24C15.6744 23.998 14.4039 23.4704 13.4667 22.5332C12.5295 21.596 12.0019 20.3255 11.9999 19C11.9999 18.0111 12.2933 17.0439 12.8427 16.2217C13.3921 15.3996 14.1733 14.7592 15.0868 14.3809ZM13.1718 0C13.7021 0.000106842 14.2108 0.210962 14.5858 0.585938L19.4139 5.41406C19.7889 5.78908 19.9998 6.29778 19.9998 6.82812V11C19.9997 11.5522 19.552 12 18.9998 12C18.4476 12 18 11.5522 17.9998 11V8H13.9999C13.9336 8 13.8682 7.99553 13.8036 7.98926C13.7961 7.98852 13.7886 7.98714 13.7811 7.98633C13.7217 7.97988 13.6631 7.97148 13.6054 7.95996C13.6012 7.95912 13.5969 7.95887 13.5927 7.95801C13.5304 7.94516 13.4691 7.92962 13.4091 7.91113C13.4035 7.9094 13.3981 7.90705 13.3925 7.90527C13.3387 7.88819 13.286 7.86906 13.2343 7.84766C13.2258 7.84413 13.2173 7.84055 13.2089 7.83691C13.1077 7.79337 13.0105 7.74258 12.9188 7.68359C12.9083 7.67681 12.8986 7.66902 12.8886 7.66211C12.881 7.65703 12.8736 7.65166 12.8661 7.64648C12.8507 7.63538 12.8355 7.62468 12.8212 7.61328C12.324 7.24943 11.9999 6.66328 11.9999 6V2H3.99998V20H8.99993C9.55221 20 9.99992 20.4477 9.99992 21C9.99992 21.5523 9.55221 22 8.99993 22H3.99998C2.89542 22 2 21.1046 2 20V2C2 0.895431 2.89542 0 3.99998 0H13.1718ZM16.9999 15.9229C16.7958 15.9229 16.6002 16.0042 16.4559 16.1484C16.3117 16.2927 16.2303 16.4884 16.2303 16.6924V18.8076C16.2303 18.8585 16.2105 18.9073 16.1747 18.9434C16.1386 18.9794 16.089 19 16.038 19H15.4618C15.3898 18.9999 15.3188 19.0197 15.2577 19.0576C15.1965 19.0957 15.1468 19.1511 15.1151 19.2158C15.0846 19.2813 15.0728 19.354 15.0809 19.4258C15.0891 19.4976 15.1165 19.566 15.161 19.623L16.7001 21.5459C16.7369 21.5896 16.783 21.6253 16.8348 21.6494C16.8865 21.6734 16.9429 21.6855 16.9999 21.6855C17.0568 21.6855 17.1132 21.6734 17.1649 21.6494C17.2167 21.6253 17.2628 21.5896 17.2997 21.5459L18.8387 19.623C18.8832 19.566 18.9106 19.4976 18.9188 19.4258C18.9269 19.354 18.9151 19.2813 18.8846 19.2158C18.8529 19.1511 18.8032 19.0957 18.742 19.0576C18.6809 19.0197 18.6099 18.9999 18.5379 19H17.9618C17.8556 19 17.7694 18.9138 17.7694 18.8076V16.6924C17.7694 16.4884 17.688 16.2927 17.5438 16.1484C17.3995 16.0042 17.2039 15.9229 16.9999 15.9229ZM10.9999 14C11.5522 14 11.9999 14.4477 11.9999 15C11.9999 15.5523 11.5522 16 10.9999 16H6.99995C6.44767 16 5.99996 15.5523 5.99996 15C5.99996 14.4477 6.44767 14 6.99995 14H10.9999ZM12.9999 10C13.5522 10 13.9999 10.4477 13.9999 11C13.9999 11.5523 13.5522 12 12.9999 12H6.99995C6.44767 12 5.99996 11.5523 5.99996 11C5.99996 10.4477 6.44767 10 6.99995 10H12.9999ZM13.9999 6H17.9998L13.9999 2V6Z" fill="#404040"/>
</svg>
