<svg width="24" height="24" viewBox="0 0 24 24" fill="none" xmlns="http://www.w3.org/2000/svg">
<g clip-path="url(#clip0_455_238)">
<path fill-rule="evenodd" clip-rule="evenodd" d="M12.3001 18.2429C12.3849 18.2173 12.4769 18.2402 12.5396 18.3025L15.2375 20.9867C15.3002 21.049 15.3233 21.1407 15.2975 21.2251C15.2718 21.3095 15.2016 21.373 15.1147 21.3902L12.0969 21.9914C12.0652 21.9971 12.0331 22 12.0009 22C11.8569 21.9997 11.7206 21.9352 11.6296 21.824C11.5387 21.7129 11.5026 21.5668 11.5314 21.4264L12.1344 18.4249C12.1517 18.3384 12.2153 18.2685 12.3001 18.2429ZM11.1242 1.00001C11.6338 0.998633 12.1227 1.20033 12.4819 1.56014L16.7199 5.77959C17.0791 6.13869 17.2813 6.62437 17.2825 7.13114V9.60308C17.2825 10.131 16.8527 10.559 16.3224 10.559C15.7922 10.559 15.3623 10.131 15.3623 9.60308V7.32911C15.3623 7.20259 15.3119 7.08119 15.2221 6.99162L11.2644 3.05133C11.1744 2.96199 11.0526 2.91184 10.9255 2.91182H2.40033C2.13519 2.91182 1.92029 3.12583 1.92029 3.3898V19.4012C1.92029 19.6651 2.13519 19.879 2.40033 19.879H8.88129C9.41156 19.879 9.84143 20.3071 9.84143 20.835C9.84143 21.3629 9.41156 21.7908 8.88129 21.7908H1.92029C0.859744 21.7908 0 20.9349 0 19.879V2.91182C0 1.85595 0.859744 1.00001 1.92029 1.00001H11.1242ZM19.6139 10.4001C20.5324 9.44709 22.024 9.33469 23.0762 10.1392C23.6264 10.5871 23.9607 11.2456 23.9968 11.9523C24.0328 12.659 23.7671 13.3479 23.2653 13.849L16.8525 20.2334C16.8077 20.2783 16.7467 20.3035 16.683 20.3035C16.6194 20.3035 16.5585 20.2783 16.5136 20.2334L13.2961 17.0283C13.2032 16.9345 13.2032 16.7837 13.2961 16.6899L19.6139 10.4001ZM9.40942 13.9047C9.80713 13.9047 10.1295 14.2257 10.1295 14.6216C10.1295 15.0175 9.80713 15.3385 9.40942 15.3385H4.08063C3.68292 15.3385 3.36047 15.0175 3.36047 14.6216C3.36047 14.2257 3.68292 13.9047 4.08063 13.9047H9.40942ZM10.8496 9.60308C11.0408 9.60283 11.2242 9.67837 11.3594 9.81285C11.4947 9.94732 11.5707 10.1298 11.5707 10.3201C11.5707 10.5104 11.4947 10.6929 11.3594 10.8274C11.2242 10.9619 11.0408 11.0373 10.8496 11.037H4.08063C3.68292 11.037 3.36047 10.7161 3.36047 10.3201C3.36047 9.92417 3.68292 9.60308 4.08063 9.60308H10.8496Z" fill="#D52B1E"/>
</g>
<defs>
<clipPath id="clip0_455_238">
<rect width="24" height="24" fill="white"/>
</clipPath>
</defs>
</svg>
