<svg width="24" height="24" viewBox="0 0 24 24" fill="none" xmlns="http://www.w3.org/2000/svg">
<path d="M12.5029 20.4678C12.5806 20.4496 12.6692 20.4771 12.7324 20.54L15.46 23.2676C15.5227 23.3307 15.5511 23.4185 15.5332 23.4961C15.515 23.574 15.4525 23.6294 15.3721 23.6396L12.5752 23.9971C12.5459 24.0003 12.5155 24.0013 12.4854 23.999C12.3501 23.9886 12.2173 23.9178 12.124 23.8066C12.0308 23.6953 11.9867 23.5545 12.0039 23.4238L12.3604 20.6279C12.3706 20.5477 12.4254 20.4862 12.5029 20.4678ZM18.6201 14.3096C19.022 13.9082 20.5197 13.7853 21.3672 14.6328C22.2146 15.4804 22.0918 16.9781 21.6904 17.3799L16.9844 22.0859C16.7726 22.2976 16.4287 22.2974 16.2168 22.0859L13.9141 19.7832C13.7023 19.5713 13.7023 19.2275 13.9141 19.0156L18.6201 14.3096ZM13.1719 0C13.7022 0.000106842 14.211 0.210962 14.5859 0.585938L19.4141 5.41406C19.7891 5.78908 19.9999 6.29778 20 6.82812V11C19.9999 11.5522 19.5522 12 19 12C18.4478 12 18.0001 11.5522 18 11V8H14C13.9337 8 13.8683 7.99553 13.8037 7.98926C13.7962 7.98852 13.7888 7.98714 13.7812 7.98633C13.7218 7.97988 13.6632 7.97148 13.6055 7.95996C13.6013 7.95912 13.597 7.95887 13.5928 7.95801C13.5305 7.94516 13.4692 7.92962 13.4092 7.91113C13.4036 7.9094 13.3982 7.90705 13.3926 7.90527C13.3388 7.88819 13.2861 7.86906 13.2344 7.84766C13.2259 7.84413 13.2174 7.84055 13.209 7.83691C13.1078 7.79337 13.0106 7.74258 12.9189 7.68359C12.9084 7.67681 12.8987 7.66902 12.8887 7.66211C12.8811 7.65703 12.8737 7.65166 12.8662 7.64648C12.8508 7.63538 12.8356 7.62468 12.8213 7.61328C12.3241 7.24943 12 6.66328 12 6V2H4V20H9C9.55228 20 10 20.4477 10 21C10 21.5523 9.55228 22 9 22H4C2.89543 22 2 21.1046 2 20V2C2 0.895431 2.89543 0 4 0H13.1719ZM11 14C11.5523 14 12 14.4477 12 15C12 15.5523 11.5523 16 11 16H7C6.44772 16 6 15.5523 6 15C6 14.4477 6.44772 14 7 14H11ZM13 10C13.5523 10 14 10.4477 14 11C14 11.5523 13.5523 12 13 12H7C6.44772 12 6 11.5523 6 11C6 10.4477 6.44772 10 7 10H13ZM14 6H18L14 2V6Z" fill="#404040"/>
</svg>
