<svg width="24" height="24" viewBox="0 0 24 24" fill="none" xmlns="http://www.w3.org/2000/svg">
<g clip-path="url(#clip0_593_874)">
<path fill-rule="evenodd" clip-rule="evenodd" d="M7 4C8.10457 4 9 3.10457 9 2C9 0.89543 8.10457 0 7 0C5.89543 0 5 0.89543 5 2C5 3.10457 5.89543 4 7 4ZM17 4C18.1046 4 19 3.10457 19 2C19 0.89543 18.1046 0 17 0C15.8954 0 15 0.89543 15 2C15 3.10457 15.8954 4 17 4ZM7 14C8.10457 14 9 13.1046 9 12C9 10.8954 8.10457 10 7 10C5.89543 10 5 10.8954 5 12C5 13.1046 5.89543 14 7 14ZM17 14C18.1046 14 19 13.1046 19 12C19 10.8954 18.1046 10 17 10C15.8954 10 15 10.8954 15 12C15 13.1046 15.8954 14 17 14ZM7 24C8.10457 24 9 23.1046 9 22C9 20.8954 8.10457 20 7 20C5.89543 20 5 20.8954 5 22C5 23.1046 5.89543 24 7 24ZM17 24C18.1046 24 19 23.1046 19 22C19 20.8954 18.1046 20 17 20C15.8954 20 15 20.8954 15 22C15 23.1046 15.8954 24 17 24Z" fill="#404040"/>
</g>
<defs>
<clipPath id="clip0_593_874">
<rect width="24" height="24" fill="white" transform="matrix(1 0 0 -1 0 24)"/>
</clipPath>
</defs>
</svg>
