<svg width="24" height="24" viewBox="0 0 24 24" fill="none" xmlns="http://www.w3.org/2000/svg">
<g clip-path="url(#clip0_114_1166)">
<path d="M10.1201 4.37695C10.7241 4.37719 11.2139 4.85182 11.2139 5.4375C11.2137 6.02307 10.724 6.49781 10.1201 6.49805H2.59863C2.48983 6.49805 2.38455 6.53966 2.30762 6.61426C2.23084 6.68878 2.18855 6.79018 2.18848 6.89551V21.4805C2.18848 21.586 2.23068 21.6881 2.30762 21.7627C2.38455 21.8373 2.48985 21.8789 2.59863 21.8789H17.6406C17.7494 21.8789 17.8547 21.8372 17.9316 21.7627C18.0086 21.6881 18.0518 21.586 18.0518 21.4805V14.1885C18.0518 13.6027 18.5413 13.1279 19.1455 13.1279C19.7496 13.128 20.2393 13.6027 20.2393 14.1885V21.4805C20.2393 22.1486 19.9658 22.7902 19.4785 23.2627C18.9913 23.735 18.3297 24 17.6406 24H2.59863C1.90959 24 1.248 23.7351 0.760742 23.2627C0.273469 22.7902 0 22.1486 0 21.4805V6.89551C7.04564e-05 6.22749 0.273569 5.58664 0.760742 5.11426C1.24802 4.64181 1.90952 4.37695 2.59863 4.37695H10.1201ZM20.6494 0C21.538 0 22.3912 0.342938 23.0195 0.952148C23.6475 1.56131 24 2.38773 24 3.24902C23.9999 4.11027 23.6476 4.93683 23.0195 5.5459L13.4453 14.8271C13.2781 14.9892 13.0612 15.0954 12.8271 15.1279L9.10449 15.6436C8.76374 15.6908 8.41928 15.5806 8.17578 15.3447C7.9324 15.1088 7.81776 14.7747 7.86621 14.4443L8.39844 10.833C8.43197 10.6061 8.53994 10.3955 8.70703 10.2334L18.2812 0.952148C18.9094 0.34313 19.7611 0.000140715 20.6494 0ZM20.6494 2.12109C20.3413 2.12123 20.046 2.24092 19.8281 2.45215L10.5117 11.4834L10.2383 13.3428L12.1562 13.0771L21.4717 4.04492C21.6894 3.8337 21.8114 3.54762 21.8115 3.24902C21.8115 2.95026 21.6895 2.66348 21.4717 2.45215C21.2537 2.24088 20.9576 2.12109 20.6494 2.12109Z" fill="#404040"/>
</g>
<defs>
<clipPath id="clip0_114_1166">
<rect width="24" height="24" fill="white"/>
</clipPath>
</defs>
</svg>
