<svg width="24" height="24" viewBox="0 0 24 24" fill="none" xmlns="http://www.w3.org/2000/svg">
<g clip-path="url(#clip0_686_467)">
<path d="M12 0C13.0231 0 14.0035 0.396453 14.6953 1.05957L14.8389 1.20508L23.749 9.03613L23.7627 9.0459C23.9061 9.17626 24 9.36528 24 9.58984V21.6562C24 22.9521 22.9492 24.0029 21.6533 24.0029H2.34668C1.05082 24.0029 0 22.9521 0 21.6562V9.56738C0.000542027 9.55004 0.00210726 9.5323 0.00390625 9.51465C0.0220762 9.32429 0.109668 9.16418 0.235352 9.04883L0.250977 9.03613L9.1084 1.25586C9.85643 0.454578 10.9038 4.05351e-06 12 0ZM17.1914 15.3467L19.7617 17.917C20.0496 18.2049 20.0495 18.672 19.7617 18.96C19.4999 19.2218 19.0904 19.2454 18.8018 19.0312L18.7188 18.96L16.0264 16.2686L14.4434 17.5264C13.0667 18.6076 11.1517 18.6509 9.72949 17.6543L9.55371 17.5244L7.97168 16.2686L5.28125 18.96C4.99327 19.2479 4.52627 19.2479 4.23828 18.96C3.97664 18.6981 3.95284 18.2886 4.16699 18L4.23828 17.917L6.80859 15.3467L1.47461 11.1152V21.6562C1.47461 22.1005 1.80758 22.4677 2.2373 22.5215L2.34668 22.5283H21.6533C22.1346 22.5283 22.5254 22.1376 22.5254 21.6562L22.5244 11.1152L17.1914 15.3467ZM12 1.47461C11.3752 1.47461 10.7758 1.71057 10.2803 2.16895L10.1348 2.31348L1.8877 9.56055L10.4678 16.3672C11.3171 17.0342 12.4937 17.0706 13.377 16.4795L13.5293 16.3691L22.1133 9.56055L13.8135 2.2627C13.3444 1.76015 12.6875 1.47461 12 1.47461Z" fill="#404040"/>
</g>
<defs>
<clipPath id="clip0_686_467">
<rect width="24" height="24" fill="white"/>
</clipPath>
</defs>
</svg>
