<svg width="24" height="24" viewBox="0 0 24 24" fill="none" xmlns="http://www.w3.org/2000/svg">
<path d="M23.8877 5.83203C23.9557 5.86007 24.0003 5.92645 24 6V18C24 19.1046 23.1046 20 22 20H2C0.89543 20 0 19.1046 0 18V6C0.000802381 5.92726 0.0451508 5.86196 0.112305 5.83398C0.180469 5.80456 0.259404 5.82017 0.311523 5.87305L6.51172 12.0732C6.6091 12.1712 6.6091 12.3288 6.51172 12.4268L1.46875 17.4697C1.18438 17.7639 1.18837 18.232 1.47754 18.5215C1.7667 18.8109 2.23488 18.8153 2.5293 18.5312L7.57227 13.4883C7.67018 13.3909 7.82787 13.3909 7.92578 13.4883L10.0566 15.6152C11.1305 16.6885 12.8715 16.6885 13.9453 15.6152L16.0742 13.4863C16.1211 13.4393 16.1846 13.4121 16.251 13.4121C16.3174 13.4121 16.3808 13.4393 16.4277 13.4863L21.4707 18.5293C21.659 18.7241 21.9381 18.802 22.2002 18.7334C22.4624 18.6646 22.6678 18.4595 22.7363 18.1973C22.8048 17.9351 22.7263 17.656 22.5312 17.4678L17.4883 12.4248C17.3909 12.3269 17.3909 12.1692 17.4883 12.0713L23.6885 5.87109C23.7409 5.81871 23.8195 5.80317 23.8877 5.83203ZM22 4C22.0961 3.99998 22.1921 4.00748 22.2871 4.02148C22.4743 4.04875 22.6299 4.1789 22.6895 4.3584C22.7489 4.53809 22.7024 4.73648 22.5684 4.87012L12.8818 14.5557C12.3932 15.0429 11.6029 15.0429 11.1143 14.5557L1.42969 4.87012C1.29564 4.73648 1.24912 4.5381 1.30859 4.3584C1.36816 4.17889 1.52376 4.04874 1.71094 4.02148C1.80662 4.00739 1.90328 3.99988 2 4H22Z" fill="#404040"/>
</svg>
