<svg width="24" height="24" viewBox="0 0 24 24" fill="none" xmlns="http://www.w3.org/2000/svg">
<path d="M21.75 2C22.3467 2 22.9189 2.26359 23.3408 2.73242C23.7628 3.20125 24 3.83695 24 4.5V7.06738C24 7.46165 23.8738 7.84369 23.6445 8.14453C23.4152 8.44538 23.0969 8.64659 22.749 8.71094L22.542 8.75781C21.9254 8.92445 21.3698 9.30483 20.958 9.84668C20.5005 10.4486 20.2497 11.2117 20.25 12C20.2501 12.7877 20.5015 13.5497 20.959 14.1514C21.4164 14.753 22.0504 15.1559 22.7471 15.2871L22.8955 15.3232C23.1866 15.4115 23.448 15.5957 23.6445 15.8535C23.8738 16.1543 23.9999 16.5355 24 16.9297V19.5C24 20.163 23.7627 20.7988 23.3408 21.2676C22.9189 21.7364 22.3467 22 21.75 22H2.25C1.65326 22 1.08112 21.7364 0.65918 21.2676C0.237255 20.7988 0 20.163 0 19.5V16.9346C0 16.5404 0.126275 16.1592 0.355469 15.8584C0.584676 15.5577 0.90246 15.3563 1.25293 15.291L1.46094 15.2441C2.07898 15.0791 2.63649 14.6993 3.0498 14.1572C3.50882 13.555 3.76074 12.7911 3.76074 12.002C3.76068 11.2127 3.50892 10.4489 3.0498 9.84668C2.59061 9.24442 1.95357 8.8426 1.25293 8.71289L1.10449 8.67676C0.813418 8.58852 0.551998 8.40428 0.355469 8.14648C0.126161 7.84569 6.64238e-05 7.4645 0 7.07031V4.5C0 3.83697 0.237237 3.20125 0.65918 2.73242C1.08113 2.26359 1.65327 2 2.25 2H21.75ZM2.25 3.66699C2.05109 3.66699 1.86038 3.75485 1.71973 3.91113C1.57918 4.06739 1.5 4.27907 1.5 4.5V7.07031L1.74023 7.12109C2.69566 7.35805 3.55765 7.93587 4.19336 8.76953C4.88206 9.67282 5.26068 10.8181 5.26074 12.002C5.26074 13.1859 4.88211 14.332 4.19336 15.2354C3.50462 16.1384 2.55007 16.7412 1.5 16.9355V19.5C1.5 19.6768 1.55038 19.8479 1.64258 19.9893L1.71973 20.0889C1.86035 20.2451 2.05106 20.333 2.25 20.333H21.75C21.9489 20.333 22.1397 20.2451 22.2803 20.0889C22.4208 19.9327 22.5 19.721 22.5 19.5V16.9297C21.4504 16.7327 20.4986 16.1299 19.8125 15.2275C19.1264 14.3251 18.7501 13.1811 18.75 12C18.7496 10.8183 19.1255 9.67424 19.8115 8.77148C20.4977 7.86844 21.4501 7.26436 22.501 7.06641L22.5 4.5C22.5 4.27903 22.4208 4.06736 22.2803 3.91113C22.1396 3.75488 21.9489 3.66699 21.75 3.66699H2.25ZM7.875 16.167C8.49632 16.167 9 16.7266 9 17.417C8.99985 18.061 8.56138 18.5911 7.99805 18.6592L7.875 18.667C7.25377 18.667 6.75016 18.1072 6.75 17.417C6.75 16.7266 7.25368 16.167 7.875 16.167ZM15.375 12C16.8247 12 18 13.3062 18 14.917C17.9998 16.5276 16.8246 17.833 15.375 17.833C13.9254 17.833 12.7502 16.5276 12.75 14.917C12.75 13.3062 13.9253 12 15.375 12ZM15.375 13.667C14.7537 13.667 14.25 14.2267 14.25 14.917C14.2502 15.6072 14.7538 16.167 15.375 16.167C15.9962 16.167 16.4998 15.6072 16.5 14.917C16.5 14.2267 15.9963 13.667 15.375 13.667ZM7.875 11.167C8.49632 11.167 9 11.7266 9 12.417C8.99985 13.061 8.56138 13.5911 7.99805 13.6592L7.875 13.667C7.25377 13.667 6.75016 13.1072 6.75 12.417C6.75 11.7266 7.25368 11.167 7.875 11.167ZM17.25 7.83301C17.6642 7.83301 18 8.20675 18 8.66699C17.9998 9.12708 17.6641 9.5 17.25 9.5H12C11.5859 9.5 11.2502 9.12708 11.25 8.66699C11.25 8.20675 11.5858 7.83301 12 7.83301H17.25ZM7.875 6.16699C8.49632 6.16699 9 6.72663 9 7.41699C8.99985 8.061 8.56138 8.59108 7.99805 8.65918L7.875 8.66699C7.25377 8.66699 6.75016 8.1072 6.75 7.41699C6.75 6.72663 7.25368 6.16699 7.875 6.16699Z" fill="#404040"/>
</svg>
