<svg width="24" height="24" viewBox="0 0 24 24" fill="none" xmlns="http://www.w3.org/2000/svg">
<g clip-path="url(#clip0_93_1066)">
<path d="M13.3193 0C13.959 0.000230343 14.5729 0.265579 15.0254 0.737305L20.498 6.44727L20.6582 6.63184C21.0099 7.07993 21.204 7.64426 21.2041 8.22852V12.7295C21.204 13.3152 20.7489 13.79 20.1875 13.79C19.6263 13.7898 19.171 13.3151 19.1709 12.7295V9.41406H14.5967C13.9565 9.41402 13.3424 9.14909 12.8896 8.67676C12.437 8.2044 12.1827 7.56351 12.1826 6.89551V2.12207H3.41406C3.3132 2.12215 3.21593 2.16296 3.14453 2.2373C3.07304 2.3119 3.0332 2.41403 3.0332 2.51953V21.4805C3.0332 21.586 3.07304 21.6881 3.14453 21.7627C3.21592 21.837 3.31321 21.8778 3.41406 21.8779H6.20996C6.77139 21.8779 7.22656 22.3536 7.22656 22.9395C7.22635 23.5251 6.77126 24 6.20996 24H3.41406C2.77399 23.9999 2.15971 23.7349 1.70703 23.2627C1.25425 22.7902 1 22.1486 1 21.4805V2.51953C1 1.85137 1.25425 1.20977 1.70703 0.737305C2.15971 0.265104 2.77398 8.33786e-05 3.41406 0H13.3193ZM10.8574 15.2529C11.0658 14.7092 11.6576 14.4441 12.1787 14.6611C12.6999 14.8787 12.9544 15.4962 12.7461 16.04L11.499 19.292L12.7461 22.5449C12.9544 23.0888 12.6999 23.7063 12.1787 23.9238C11.6576 24.1409 11.0659 23.8766 10.8574 23.333L10.4033 22.1494L9.9502 23.333C9.7416 23.8766 9.14999 24.1411 8.62891 23.9238C8.10792 23.7062 7.85427 23.0887 8.0625 22.5449L9.30859 19.292L8.0625 16.04C7.85425 15.4962 8.10783 14.8787 8.62891 14.6611C9.15011 14.4438 9.74173 14.7091 9.9502 15.2529L10.4033 16.4355L10.8574 15.2529ZM14.5967 14.5859C15.1581 14.5859 15.6133 15.0606 15.6133 15.6465V21.4805C15.6133 21.586 15.6531 21.6881 15.7246 21.7627C15.796 21.837 15.8933 21.8778 15.9941 21.8779H17.3926C17.9539 21.8781 18.4092 22.3537 18.4092 22.9395C18.409 23.525 17.9538 23.9999 17.3926 24H15.9941C15.3541 23.9999 14.7398 23.7349 14.2871 23.2627C13.8343 22.7902 13.5801 22.1486 13.5801 21.4805V15.6465C13.5801 15.0607 14.0353 14.586 14.5967 14.5859ZM22.9834 14.5859C23.5447 14.5861 24 15.0608 24 15.6465C23.9999 16.2321 23.5446 16.7068 22.9834 16.707H21.585C21.484 16.7071 21.3868 16.7487 21.3154 16.8232C21.244 16.8978 21.2042 16.9991 21.2041 17.1045C21.2041 17.6033 21.4439 17.857 22.1943 18.4443C22.8414 18.9507 24 19.7916 24 21.4805C24 22.1486 23.7458 22.7902 23.293 23.2627C22.8402 23.7351 22.2252 24 21.585 24H20.1875C19.6262 24 19.1711 23.5251 19.1709 22.9395C19.1709 22.3536 19.6261 21.8779 20.1875 21.8779H21.585C21.686 21.8779 21.784 21.8372 21.8555 21.7627C21.927 21.6881 21.9668 21.586 21.9668 21.4805C21.9668 20.9816 21.7262 20.7281 20.9756 20.1406C20.3285 19.6342 19.1709 18.7931 19.1709 17.1045C19.171 16.4365 19.4252 15.7956 19.8779 15.3232C20.3306 14.8509 20.9448 14.586 21.585 14.5859H22.9834ZM14.2158 6.89551C14.2159 7.00084 14.2558 7.10227 14.3271 7.17676C14.3986 7.25123 14.4957 7.29292 14.5967 7.29297H18.4336L14.2158 2.8916V6.89551Z" fill="#404040"/>
</g>
<defs>
<clipPath id="clip0_93_1066">
<rect width="24" height="24" fill="white"/>
</clipPath>
</defs>
</svg>
