<svg width="24" height="24" viewBox="0 0 24 24" fill="none" xmlns="http://www.w3.org/2000/svg">
<g clip-path="url(#clip0_455_219)">
<path fill-rule="evenodd" clip-rule="evenodd" d="M24 1C24 0.44772 23.5523 0 23 0H16.5C16.0956 0 15.731 0.24369 15.5763 0.61731C15.4215 0.99092 15.5071 1.42104 15.793 1.70703L17.982 3.90002C18.029 3.94692 18.0554 4.01062 18.0554 4.07703C18.0554 4.14344 18.029 4.20713 17.982 4.25403L13.616 8.61499C13.1278 9.10321 13.1278 9.89484 13.616 10.3831C14.1042 10.8713 14.8958 10.8713 15.384 10.3831L19.75 6.01697C19.7969 5.96995 19.8606 5.9436 19.927 5.9436C19.9934 5.9436 20.0571 5.96995 20.104 6.01697L22.293 8.20605C22.4804 8.39397 22.7347 8.49968 23 8.5C23.1315 8.50042 23.2617 8.47454 23.383 8.42395C23.7566 8.26905 24 7.90443 24 7.5V1ZM1 24H7.5C7.9044 24 8.26896 23.7563 8.42371 23.3827C8.57845 23.0091 8.49294 22.579 8.20703 22.293L6.01801 20.1C5.97104 20.0532 5.94464 19.9897 5.94464 19.9235C5.94464 19.8572 5.97104 19.7937 6.01801 19.7469L10.384 15.381C10.6998 15.0652 10.8232 14.6049 10.7076 14.1735C10.592 13.742 10.255 13.405 9.82355 13.2894C9.39213 13.1738 8.93185 13.2972 8.61603 13.613L4.25 17.981C4.2031 18.028 4.13941 18.0544 4.073 18.0544C4.00658 18.0544 3.9429 18.028 3.896 17.981L1.70703 15.792C1.42091 15.506 0.990592 15.4206 0.616883 15.5756C0.243174 15.7306 -0.000317689 16.0954 3.11107e-07 16.5V23C3.11107e-07 23.5523 0.447716 24 1 24Z" fill="#D52B1E"/>
</g>
<defs>
<clipPath id="clip0_455_219">
<rect width="24" height="24" fill="white"/>
</clipPath>
</defs>
</svg>
