<svg width="24" height="24" viewBox="0 0 24 24" fill="none" xmlns="http://www.w3.org/2000/svg">
<g clip-path="url(#clip0_692_1837)">
<path d="M9.45215 3.61621C10.2552 3.61621 10.9061 4.26829 10.9062 5.07227C10.9062 5.4584 10.7532 5.82949 10.4805 6.10254C10.2078 6.37543 9.83771 6.52832 9.45215 6.52832H4.3623C3.5593 6.52845 2.90821 7.18037 2.9082 7.98438V19.6318C2.9082 20.4359 3.55929 21.0878 4.3623 21.0879H15.9961C16.7992 21.0879 17.4502 20.4359 17.4502 19.6318V15.9922C17.4502 15.1882 18.1013 14.5362 18.9043 14.5361C19.7074 14.5361 20.3584 15.1881 20.3584 15.9922V19.6318C20.3584 22.0441 18.4055 24 15.9961 24H4.3623C1.95303 23.9999 0 22.0441 0 19.6318V7.98438C1.17811e-05 5.57217 1.95304 3.61634 4.3623 3.61621H9.45215ZM23.2725 0C23.6739 0 23.9998 0.325663 24 0.727539V9.46387C23.9999 9.75841 23.8227 10.0242 23.5508 10.1367C23.4626 10.1728 23.3677 10.1909 23.2725 10.1914C23.0794 10.1913 22.8941 10.1144 22.7578 9.97754L20.1855 7.4082C20.1176 7.33983 20.0251 7.30078 19.9287 7.30078C19.8325 7.30086 19.7398 7.3399 19.6719 7.4082L10.2666 16.8105C9.85755 17.219 9.30332 17.4484 8.72559 17.4482C7.84332 17.4481 7.0474 16.9158 6.70996 16.0996C6.37257 15.2835 6.55966 14.3442 7.18359 13.7197L16.5928 4.31934C16.6611 4.2513 16.6999 4.15898 16.7002 4.0625C16.6996 3.96611 16.6612 3.87351 16.5938 3.80469L14.0332 1.24219C13.8258 1.03393 13.7636 0.720866 13.876 0.449219C13.9886 0.17749 14.254 0 14.5479 0H23.2725Z" fill="#404040"/>
</g>
<defs>
<clipPath id="clip0_692_1837">
<rect width="24" height="24" fill="white"/>
</clipPath>
</defs>
</svg>
