<svg width="24" height="24" viewBox="0 0 24 24" fill="none" xmlns="http://www.w3.org/2000/svg">
<g clip-path="url(#clip0_114_1198)">
<path d="M18.417 0C18.5716 8.07071e-05 18.7198 0.0579356 18.8291 0.160156C18.9384 0.262433 19 0.401312 19 0.545898V4.90918C19 5.05381 18.9385 5.19265 18.8291 5.29492C18.7198 5.39709 18.5715 5.45402 18.417 5.4541H16.083C15.619 5.45418 15.1738 5.6268 14.8457 5.93359C14.5175 6.24045 14.333 6.65686 14.333 7.09082V8.72754H18.417C18.5053 8.72761 18.5925 8.74608 18.6719 8.78223C18.7513 8.81849 18.8215 8.87141 18.876 8.93652C18.9305 9.00178 18.9689 9.07819 18.9873 9.15918C19.0057 9.2401 19.0038 9.32402 18.9824 9.4043L17.8154 13.7686C17.7839 13.8865 17.7118 13.9916 17.6094 14.0664C17.5068 14.1413 17.3801 14.1816 17.25 14.1816H14.333V23.4541C14.333 23.5988 14.2715 23.7376 14.1621 23.8398C14.0527 23.9421 13.9047 24 13.75 24H9.08301C8.92842 23.9999 8.78022 23.9421 8.6709 23.8398C8.56161 23.7376 8.5 23.5987 8.5 23.4541V14.1816H5.58301C5.42852 14.1816 5.2802 14.1246 5.1709 14.0225C5.06159 13.9203 5.0001 13.7813 5 13.6367V9.27246C5.00008 9.12789 5.06157 8.98895 5.1709 8.88672C5.2802 8.7846 5.4285 8.72762 5.58301 8.72754H8.5V4.90918C8.5 3.60721 9.05352 2.35813 10.0381 1.4375C11.0226 0.51709 12.3578 0 13.75 0H18.417Z" fill="#404040"/>
</g>
<defs>
<clipPath id="clip0_114_1198">
<rect width="24" height="24" fill="white"/>
</clipPath>
</defs>
</svg>
