<svg width="24" height="24" viewBox="0 0 24 24" fill="none" xmlns="http://www.w3.org/2000/svg">
<g clip-path="url(#clip0_203_2051)">
<path d="M1 16.5C1.26522 16.5 1.51949 16.6054 1.70703 16.793C1.89457 16.9805 2 17.2348 2 17.5V21.75C2 21.8163 2.02636 21.8799 2.07324 21.9268C2.12013 21.9736 2.1837 22 2.25 22H6.5C6.76522 22 7.0195 22.1054 7.20703 22.293C7.39457 22.4805 7.5 22.7348 7.5 23C7.5 23.2652 7.39457 23.5195 7.20703 23.707C7.0195 23.8946 6.76522 24 6.5 24H2C1.46957 24 0.96101 23.7891 0.585938 23.4141C0.210865 23.039 0 22.5304 0 22V17.5C0 17.2348 0.105433 16.9805 0.292969 16.793C0.480505 16.6054 0.734784 16.5 1 16.5ZM23 16.5C23.2652 16.5 23.5195 16.6054 23.707 16.793C23.8946 16.9805 24 17.2348 24 17.5V22C24 22.5304 23.7891 23.039 23.4141 23.4141C23.039 23.7891 22.5304 24 22 24H17.5C17.2348 24 16.9805 23.8946 16.793 23.707C16.6054 23.5195 16.5 23.2652 16.5 23C16.5 22.7348 16.6054 22.4805 16.793 22.293C16.9805 22.1054 17.2348 22 17.5 22H21.75C21.8163 22 21.8799 21.9736 21.9268 21.9268C21.9736 21.8799 22 21.8163 22 21.75V17.5C22 17.2348 22.1054 16.9805 22.293 16.793C22.4805 16.6054 22.7348 16.5 23 16.5ZM16.4043 14.0176C16.665 13.9632 16.9374 14.0143 17.1602 14.1602C17.3828 14.306 17.5384 14.5344 17.5928 14.7949C17.6471 15.0555 17.5959 15.3271 17.4502 15.5498C16.8585 16.4555 16.0501 17.1999 15.0986 17.7148C14.1471 18.2298 13.0819 18.499 12 18.499C10.918 18.499 9.85292 18.2298 8.90137 17.7148C7.9498 17.1999 7.14158 16.4556 6.5498 15.5498C6.404 15.327 6.35285 15.0556 6.40723 14.7949C6.46162 14.5343 6.6171 14.306 6.83984 14.1602C7.06262 14.0143 7.33406 13.9632 7.59473 14.0176C7.8554 14.072 8.08362 14.2274 8.22949 14.4502C8.63661 15.0796 9.19513 15.5968 9.85352 15.9551C10.512 16.3134 11.2503 16.501 12 16.501C12.7496 16.5009 13.4871 16.3133 14.1455 15.9551C14.8039 15.5968 15.3624 15.0795 15.7695 14.4502C15.9153 14.2276 16.1438 14.0721 16.4043 14.0176ZM8.5 6.5C8.76522 6.5 9.0195 6.60543 9.20703 6.79297C9.39457 6.9805 9.5 7.23478 9.5 7.5V10.5C9.5 10.7652 9.39457 11.0195 9.20703 11.207C9.0195 11.3946 8.76522 11.5 8.5 11.5C8.23478 11.5 7.9805 11.3946 7.79297 11.207C7.60543 11.0195 7.5 10.7652 7.5 10.5V7.5C7.5 7.23478 7.60543 6.9805 7.79297 6.79297C7.9805 6.60543 8.23478 6.5 8.5 6.5ZM15.5 6.5C15.7652 6.5 16.0195 6.60543 16.207 6.79297C16.3946 6.9805 16.5 7.23478 16.5 7.5V10.5C16.5 10.7652 16.3946 11.0195 16.207 11.207C16.0195 11.3946 15.7652 11.5 15.5 11.5C15.2348 11.5 14.9805 11.3946 14.793 11.207C14.6054 11.0195 14.5 10.7652 14.5 10.5V7.5C14.5 7.23478 14.6054 6.9805 14.793 6.79297C14.9805 6.60543 15.2348 6.5 15.5 6.5ZM6.5 0C6.76522 0 7.0195 0.105432 7.20703 0.292969C7.39457 0.480505 7.5 0.734784 7.5 1C7.5 1.26522 7.39457 1.51949 7.20703 1.70703C7.0195 1.89457 6.76522 2 6.5 2H2.25C2.1837 2 2.12013 2.02636 2.07324 2.07324C2.02636 2.12013 2 2.1837 2 2.25V6.5C2 6.76522 1.89457 7.0195 1.70703 7.20703C1.51949 7.39457 1.26522 7.5 1 7.5C0.734784 7.5 0.480505 7.39457 0.292969 7.20703C0.105432 7.0195 0 6.76522 0 6.5V2C0 1.46957 0.210865 0.96101 0.585938 0.585938C0.96101 0.210865 1.46957 0 2 0H6.5ZM22 0C22.5304 0 23.039 0.210865 23.4141 0.585938C23.7891 0.96101 24 1.46957 24 2V6.5C24 6.76522 23.8946 7.0195 23.707 7.20703C23.5195 7.39457 23.2652 7.5 23 7.5C22.7348 7.5 22.4805 7.39457 22.293 7.20703C22.1054 7.0195 22 6.76522 22 6.5V2.25C22 2.1837 21.9736 2.12013 21.9268 2.07324C21.8799 2.02636 21.8163 2 21.75 2H17.5C17.2348 2 16.9805 1.89457 16.793 1.70703C16.6054 1.51949 16.5 1.26522 16.5 1C16.5 0.734784 16.6054 0.480505 16.793 0.292969C16.9805 0.105433 17.2348 0 17.5 0H22Z" fill="#404040"/>
</g>
<defs>
<clipPath id="clip0_203_2051">
<rect width="24" height="24" fill="white"/>
</clipPath>
</defs>
</svg>
