<svg width="24" height="24" viewBox="0 0 24 24" fill="none" xmlns="http://www.w3.org/2000/svg">
<g clip-path="url(#clip0_455_177)">
<path fill-rule="evenodd" clip-rule="evenodd" d="M5.75 6C6.30229 6 6.75 5.55228 6.75 5V2H15.586L17.75 4.16296V5C17.75 5.55228 18.1977 6 18.75 6C19.3023 6 19.75 5.55228 19.75 5V3.74902C19.75 3.48383 19.6445 3.22948 19.457 3.04199L17 0.587036C16.6246 0.212496 16.1163 0.00147 15.586 0H6.75C5.64543 0 4.75 0.89543 4.75 2V5C4.75 5.55228 5.19771 6 5.75 6ZM21.5 7C22.163 7 22.7989 7.26334 23.2678 7.73218C23.7366 8.20102 24 8.83696 24 9.5V14C24 14.663 23.7366 15.299 23.2678 15.7678C22.7989 16.2367 22.163 16.5 21.5 16.5H19.5V22.75C19.4994 23.4401 18.9401 23.9995 18.25 24H6.25C5.55987 23.9995 5.00055 23.4401 5 22.75V16.5H2.5C1.11929 16.5 0 15.3807 0 14V9.5C0 8.11929 1.11929 7 2.5 7H21.5ZM17 11.957H7.5C7.22386 11.957 7 12.1809 7 12.457V21.5C7 21.7761 7.22386 22 7.5 22H17C17.2761 22 17.5 21.7761 17.5 21.5V12.457C17.5 12.1809 17.2761 11.957 17 11.957ZM13.25 18.249C13.6642 18.249 14 18.5848 14 18.999C14 19.4132 13.6642 19.749 13.25 19.749H9.5C9.08579 19.749 8.75 19.4132 8.75 18.999C8.75 18.5848 9.08579 18.249 9.5 18.249H13.25ZM15 14.749C15.4142 14.749 15.75 15.0848 15.75 15.499C15.75 15.9132 15.4142 16.249 15 16.249H9.5C9.08579 16.249 8.75 15.9132 8.75 15.499C8.75 15.0848 9.08579 14.749 9.5 14.749H15ZM3.5 9.5C2.94771 9.5 2.5 9.94772 2.5 10.5C2.5 11.0523 2.94771 11.5 3.5 11.5C4.05229 11.5 4.5 11.0523 4.5 10.5C4.5 9.94772 4.05229 9.5 3.5 9.5Z" fill="#D52B1E"/>
</g>
<defs>
<clipPath id="clip0_455_177">
<rect width="24" height="24" fill="white"/>
</clipPath>
</defs>
</svg>
