<svg width="24" height="24" viewBox="0 0 24 24" fill="none" xmlns="http://www.w3.org/2000/svg">
<path d="M21.5938 11.6367C22.7843 11.6367 23.7497 12.5721 23.75 13.7266V21.9092C23.75 23.0638 22.7845 24 21.5938 24H13.1562C11.9655 24 11 23.0638 11 21.9092V13.7266C11.0003 12.5721 11.9657 11.6367 13.1562 11.6367H21.5938ZM13.1562 13.0908C12.7941 13.0908 12.5003 13.3755 12.5 13.7266V21.9092C12.5 22.2605 12.794 22.5459 13.1562 22.5459H21.5938C21.956 22.5459 22.25 22.2605 22.25 21.9092V13.7266C22.2497 13.3755 21.9559 13.0908 21.5938 13.0908H13.1562ZM15.3838 14.7568C15.7709 14.5442 16.2456 14.5473 16.6299 14.7646L20.1504 16.8096C20.5205 17.0301 20.7461 17.4216 20.7461 17.8428C20.746 18.2638 20.5208 18.6551 20.1436 18.8799L16.6299 20.9199C16.2455 21.1374 15.771 21.1404 15.3838 20.9277C14.9966 20.715 14.7553 20.3188 14.75 19.8789V15.7979C14.7552 15.3663 14.9966 14.9695 15.3838 14.7568ZM16.249 19.4453L19.0088 17.8418L16.25 16.2393L16.249 19.4453ZM21.75 0C22.9926 0 23.9999 0.976737 24 2.18164V10.1816C24 10.5833 23.6642 10.9092 23.25 10.9092C22.8358 10.9092 22.5 10.5833 22.5 10.1816V5.81641H18.0557C18.0375 5.81769 18.0186 5.81836 18 5.81836C17.9816 5.81836 17.9634 5.81767 17.9453 5.81641H12.0547C12.0366 5.81767 12.0184 5.81836 12 5.81836C11.9816 5.81836 11.9634 5.81767 11.9453 5.81641H6.05469C6.03663 5.81767 6.01839 5.81836 6 5.81836C5.98145 5.81836 5.96255 5.81769 5.94434 5.81641H1.5V13.0908H8.25C8.66421 13.0908 9 13.4167 9 13.8184C8.9999 14.2199 8.66415 14.5459 8.25 14.5459H6.75V17.4541H9C9.41415 17.4541 9.7499 17.7801 9.75 18.1816C9.75 18.5833 9.41421 18.9092 9 18.9092H2.25C1.00745 18.9092 0.00014881 17.9324 0 16.7275V2.18164C9.88551e-05 0.976737 1.00742 0 2.25 0H21.75ZM1.5 16.7275C1.50015 17.1291 1.83588 17.4541 2.25 17.4541H5.25V14.5459H1.5V16.7275ZM2.25 1.4541C1.83585 1.4541 1.5001 1.78006 1.5 2.18164V4.36133H5.25V1.4541H2.25ZM6.75 4.36133H11.25V1.4541H6.75V4.36133ZM12.75 4.36133H17.25V1.4541H12.75V4.36133ZM18.75 4.36133H22.5V2.18164C22.4999 1.78006 22.1642 1.4541 21.75 1.4541H18.75V4.36133Z" fill="#404040"/>
</svg>
