<svg width="24" height="24" viewBox="0 0 24 24" fill="none" xmlns="http://www.w3.org/2000/svg">
<path fill-rule="evenodd" clip-rule="evenodd" d="M18.9557 7.63695e-06C19.9056 7.63695e-06 20.7358 -0.00254055 21.3923 0.0869217C22.0768 0.180253 22.7712 0.396511 23.3073 0.986336C23.8489 1.58242 23.989 2.29571 23.9997 2.98438C24.0097 3.63662 23.9042 4.44462 23.7868 5.35743C23.7448 5.68336 23.6791 6.01255 23.5407 6.34571C23.3998 6.68467 23.207 6.96981 22.9753 7.24512C21.7902 8.65295 19.5787 11.207 16.4636 13.5342C16.4687 13.5303 16.4629 13.5348 16.4538 13.5518C16.4447 13.5688 16.4351 13.5938 16.4323 13.625C16.1323 16.9414 15.8543 18.7837 15.6745 19.7432C15.4498 20.9424 14.5277 21.759 13.7946 22.29C13.4049 22.5723 12.994 22.8242 12.6374 23.041C12.263 23.2687 11.9662 23.4483 11.7272 23.6172C10.9845 24.1424 10.1274 24.0807 9.49382 23.7119C8.89752 23.3645 8.4585 22.7317 8.37175 22C8.24722 20.9482 8.04092 19.0893 7.80242 16.4766L7.55535 13.6152C7.5528 13.5842 7.54392 13.558 7.53484 13.541C7.5259 13.5244 7.51979 13.5214 7.52507 13.5254C4.41605 11.201 2.20949 8.65116 1.02605 7.24512C0.794278 6.96975 0.600553 6.68476 0.459643 6.34571C0.321292 6.01261 0.256463 5.68335 0.214526 5.35743C0.0970975 4.44461 -0.00939312 3.63662 0.000658995 2.98438C0.0113189 2.29574 0.151513 1.58242 0.693042 0.986336C1.22916 0.396448 1.9235 0.180273 2.60808 0.0869217C3.26453 -0.00256513 4.09469 7.42795e-06 5.0446 7.63695e-06H18.9557ZM5.0446 2.28614C4.02844 2.28614 3.38349 2.28815 2.91765 2.35157C2.48002 2.41124 2.40336 2.50155 2.38347 2.52345C2.36792 2.54027 2.29223 2.61056 2.28582 3.01856C2.27887 3.46733 2.35565 4.08244 2.4821 5.06544C2.51137 5.29298 2.54103 5.39899 2.56999 5.46876C2.59651 5.53258 2.6445 5.61944 2.7741 5.77345C3.92698 7.14318 5.99869 9.53123 8.89324 11.6953C9.45004 12.1116 9.7777 12.7572 9.83269 13.4287C10.1594 17.4198 10.4592 20.1815 10.6257 21.6006C10.893 21.4241 11.1844 21.2493 11.4499 21.0879C11.8081 20.8701 12.1479 20.6608 12.4548 20.4385C13.1146 19.9604 13.376 19.5964 13.4274 19.3223C13.5897 18.4563 13.861 16.6899 14.1569 13.419C14.2171 12.7551 14.5429 12.117 15.0954 11.7041L15.6296 11.2959C18.2519 9.24266 20.144 7.05921 21.2262 5.77345C21.3559 5.61937 21.4038 5.53259 21.4303 5.46876C21.4593 5.399 21.4889 5.29311 21.5182 5.06544L21.6667 3.84278C21.7007 3.51 21.718 3.24306 21.7145 3.01856C21.7081 2.60901 21.632 2.53993 21.6169 2.52345H21.6159C21.5957 2.50118 21.5193 2.41102 21.0837 2.35157C20.6178 2.28811 19.9722 2.28614 18.9557 2.28614H5.0446Z" fill="#404040"/>
</svg>
