<svg width="24" height="24" viewBox="0 0 24 24" fill="none" xmlns="http://www.w3.org/2000/svg">
<path d="M22.043 0C23.1237 0.0011 23.9994 0.877258 24 1.95801V22.0439C23.9983 23.1239 23.1229 23.9989 22.043 24H1.95703C0.877057 23.9989 0.001653 23.1239 0 22.0439V1.95801C0.000551 0.877258 0.876277 0.0011 1.95703 0H22.043ZM2.45801 2C2.18187 2 1.95801 2.22386 1.95801 2.5L2 21.541C2 21.8172 2.22386 22.041 2.5 22.041L21.5 22C21.7761 22 22 21.7761 22 21.5V2.45898C22 2.18284 21.7761 1.95898 21.5 1.95898L2.45801 2ZM14.5 13C16.0477 13 17.4121 14.0169 17.8545 15.5H19.5C20.0523 15.5 20.5 15.9477 20.5 16.5C20.5 17.0523 20.0523 17.5 19.5 17.5H17.8545C17.4121 18.9831 16.0477 20 14.5 20C12.9523 20 11.5889 18.9831 11.1465 17.5H4.5C3.94772 17.5 3.5 17.0523 3.5 16.5C3.5 15.9477 3.94772 15.5 4.5 15.5H11.1465C11.5889 14.0169 12.9523 13 14.5 13ZM14.5 15C13.6716 15 13 15.6716 13 16.5C13 17.3284 13.6716 18 14.5 18C15.3284 18 16 17.3284 16 16.5C16 15.6716 15.3284 15 14.5 15ZM9 4C10.5477 4 11.9121 5.01686 12.3545 6.5H19.5C20.0523 6.5 20.5 6.94772 20.5 7.5C20.5 8.05228 20.0523 8.5 19.5 8.5H12.3545C11.9121 9.98314 10.5477 11 9 11C7.45234 11 6.08888 9.98307 5.64648 8.5H4.5C3.94772 8.5 3.5 8.05228 3.5 7.5C3.5 6.94772 3.94772 6.5 4.5 6.5H5.64648C6.08888 5.01693 7.45234 4 9 4ZM9 6C8.17157 6 7.5 6.67157 7.5 7.5C7.5 8.32843 8.17157 9 9 9C9.82843 9 10.5 8.32843 10.5 7.5C10.5 6.67157 9.82843 6 9 6Z" fill="#404040"/>
</svg>
