<svg width="24" height="24" viewBox="0 0 24 24" fill="none" xmlns="http://www.w3.org/2000/svg">
<g clip-path="url(#clip0_607_561)">
<path d="M21.9634 0C22.3356 -0.000549422 22.7009 0.0959406 23.0191 0.279297C23.3374 0.462715 23.5966 0.726189 23.7681 1.04004C23.941 1.3538 24.0199 1.70711 23.9957 2.06055C23.9714 2.41399 23.8448 2.75419 23.6304 3.04395L15.1568 13.6045V20.3994C15.1568 20.5969 15.1054 20.7916 15.0074 20.9658C14.9093 21.1399 14.7681 21.2889 14.5953 21.3984L10.8062 23.7979C10.6161 23.9184 10.3948 23.9884 10.1666 23.999C9.93822 24.0096 9.71083 23.9608 9.50934 23.8584C9.30781 23.7559 9.13851 23.6033 9.02106 23.417C8.9036 23.2306 8.84222 23.017 8.84235 22.7998V13.6055L0.398987 3.08203L0.368713 3.04102C0.155097 2.75143 0.0288396 2.41146 0.00445557 2.05859C-0.0199208 1.70569 0.0580679 1.35273 0.230042 1.03906C0.402016 0.725538 0.661782 0.462527 0.980042 0.279297C1.29827 0.0961904 1.66365 -0.00033348 2.03571 0H21.9634Z" fill="#404040"/>
</g>
<defs>
<clipPath id="clip0_607_561">
<rect width="24" height="24" fill="white"/>
</clipPath>
</defs>
</svg>
