<svg width="24" height="24" viewBox="0 0 24 24" fill="none" xmlns="http://www.w3.org/2000/svg">
<path d="M22.043 0C23.1237 0.0011 23.9994 0.877258 24 1.95801V22.0439C23.9983 23.1239 23.1229 23.9989 22.043 24H1.95703C0.877057 23.9989 0.001653 23.1239 0 22.0439V1.95801C0.000551 0.877258 0.876277 0.0011 1.95703 0H22.043ZM14.5 13C12.9523 13 11.5889 14.0169 11.1465 15.5H4.5C3.94772 15.5 3.5 15.9477 3.5 16.5C3.5 17.0523 3.94772 17.5 4.5 17.5H11.1465C11.5889 18.9831 12.9523 20 14.5 20C16.0477 20 17.4121 18.9831 17.8545 17.5H19.5C20.0523 17.5 20.5 17.0523 20.5 16.5C20.5 15.9477 20.0523 15.5 19.5 15.5H17.8545C17.4121 14.0169 16.0477 13 14.5 13ZM14.5 15C15.3284 15 16 15.6716 16 16.5C16 17.3284 15.3284 18 14.5 18C13.6716 18 13 17.3284 13 16.5C13 15.6716 13.6716 15 14.5 15ZM9 4C7.45234 4 6.08888 5.01693 5.64648 6.5H4.5C3.94772 6.5 3.5 6.94772 3.5 7.5C3.5 8.05228 3.94772 8.5 4.5 8.5H5.64648C6.08888 9.98307 7.45234 11 9 11C10.5477 11 11.9121 9.98314 12.3545 8.5H19.5C20.0523 8.5 20.5 8.05228 20.5 7.5C20.5 6.94772 20.0523 6.5 19.5 6.5H12.3545C11.9121 5.01686 10.5477 4 9 4ZM9 6C9.82843 6 10.5 6.67157 10.5 7.5C10.5 8.32843 9.82843 9 9 9C8.17157 9 7.5 8.32843 7.5 7.5C7.5 6.67157 8.17157 6 9 6Z" fill="#404040"/>
</svg>
