<svg width="24" height="24" viewBox="0 0 24 24" fill="none" xmlns="http://www.w3.org/2000/svg">
<g clip-path="url(#clip0_709_18881)">
<path d="M12 0C18.6244 0.00716 23.9928 5.37555 24 12C24 18.6274 18.6274 24 12 24C5.37258 24 0 18.6274 0 12C0 5.37258 5.37258 0 12 0ZM12 2C6.47715 2 2 6.47715 2 12C2 17.5229 6.47715 22 12 22C17.5203 21.9939 21.9939 17.5203 22 12C22 6.47715 17.5228 2 12 2ZM12 4.00098C16.4183 4.00098 20 7.5827 20 12.001C20 16.4193 16.4183 20.001 12 20.001C7.58172 20.001 4 16.4193 4 12.001C4 7.5827 7.58172 4.00098 12 4.00098Z" fill="#404040"/>
</g>
<defs>
<clipPath id="clip0_709_18881">
<rect width="24" height="24" fill="white"/>
</clipPath>
</defs>
</svg>
