<svg width="24" height="24" viewBox="0 0 24 24" fill="none" xmlns="http://www.w3.org/2000/svg">
<path d="M17 14C19.76 14.0034 21.9966 16.24 22 19C22 21.7614 19.7614 24 17 24C14.2386 24 12 21.7614 12 19C12.0001 16.2386 14.2386 14 17 14ZM17 15.667C15.1591 15.667 13.667 17.1591 13.667 19C13.667 20.8409 15.1591 22.333 17 22.333C18.8409 22.333 20.333 20.8409 20.333 19C20.3307 17.16 18.84 15.6693 17 15.667ZM13.1719 0C13.7022 0.000106842 14.211 0.210962 14.5859 0.585938L19.4141 5.41406C19.7891 5.78908 19.9999 6.29778 20 6.82812V11C19.9999 11.5522 19.5522 12 19 12C18.4478 12 18.0001 11.5522 18 11V8H14C13.9337 8 13.8683 7.99553 13.8037 7.98926C13.7962 7.98852 13.7888 7.98714 13.7812 7.98633C13.7218 7.97988 13.6632 7.97148 13.6055 7.95996C13.6013 7.95912 13.597 7.95887 13.5928 7.95801C13.5305 7.94516 13.4692 7.92962 13.4092 7.91113C13.4036 7.9094 13.3982 7.90705 13.3926 7.90527C13.3388 7.88819 13.2861 7.86906 13.2344 7.84766C13.2259 7.84413 13.2174 7.84055 13.209 7.83691C13.1078 7.79337 13.0106 7.74258 12.9189 7.68359C12.9084 7.67681 12.8987 7.66902 12.8887 7.66211C12.8811 7.65703 12.8737 7.65166 12.8662 7.64648C12.8508 7.63538 12.8356 7.62468 12.8213 7.61328C12.3241 7.24943 12 6.66328 12 6V2H4V20H9C9.55228 20 10 20.4477 10 21C10 21.5523 9.55228 22 9 22H4C2.89543 22 2 21.1046 2 20V2C2 0.895431 2.89543 0 4 0H13.1719ZM16.834 16.667C17.1099 16.6673 17.334 16.891 17.334 17.167V18.667H18.334C18.6098 18.6673 18.8339 18.8911 18.834 19.167C18.8338 19.4428 18.6098 19.6667 18.334 19.667H16.834C16.7997 19.667 16.7657 19.6638 16.7334 19.6572C16.6685 19.644 16.6078 19.6177 16.5547 19.582C16.4481 19.5102 16.3705 19.3978 16.3438 19.2676C16.3372 19.2353 16.334 19.2012 16.334 19.167V17.167C16.334 16.8909 16.5578 16.667 16.834 16.667ZM7 9C7.55228 9 8 9.44772 8 10V14C8 14.5523 7.55228 15 7 15C6.44772 15 6 14.5523 6 14V10C6 9.44772 6.44772 9 7 9ZM10 7C10.5523 7 11 7.44772 11 8V14C11 14.5523 10.5523 15 10 15C9.44772 15 9 14.5523 9 14V8C9 7.44772 9.44772 7 10 7ZM13 12.4199C13.5522 12.42 14 12.8677 14 13.4199V13.6123C13.9977 13.7056 13.9386 13.7913 13.8438 13.8398C13.3234 14.1551 12.8498 14.5215 12.4336 14.9316C12.3636 14.9956 12.2543 15.0172 12.1582 14.9854C12.062 14.9533 11.9989 14.8741 12 14.7871V13.4199C12 12.8677 12.4477 12.4199 13 12.4199ZM14 6H18L14 2V6Z" fill="#404040"/>
</svg>
