<svg width="24" height="24" viewBox="0 0 24 24" fill="none" xmlns="http://www.w3.org/2000/svg">
<path fill-rule="evenodd" clip-rule="evenodd" d="M22.7567 5.53924C23.0974 5.45143 23.4578 5.55416 23.7062 5.80988C23.9547 6.06561 24.0547 6.43676 23.9697 6.78782L22.5527 12.6149C22.4662 12.9745 22.1989 13.2586 21.8527 13.3588C21.7658 13.3839 21.676 13.3963 21.5858 13.3959C21.3206 13.3959 21.0662 13.2873 20.8787 13.0941L19.9948 12.1843C19.9479 12.1359 19.8842 12.1086 19.8178 12.1086C19.7513 12.1086 19.6877 12.1359 19.6407 12.1843L12.4937 19.5475C11.908 20.1508 10.9585 20.1508 10.3727 19.5475C10.0903 19.2576 9.93158 18.8637 9.93158 18.4529C9.93158 18.0421 10.0903 17.6482 10.3727 17.3582L17.5197 9.99403C17.617 9.89351 17.617 9.73085 17.5197 9.63032L16.6357 8.71954C16.3833 8.45699 16.2866 8.07523 16.3825 7.7191C16.4784 7.36295 16.7521 7.08701 17.0997 6.99596L22.7567 5.53924ZM11.5418 4.45327C11.9279 4.05492 12.4939 3.90453 13.0189 4.06063C13.544 4.21674 13.945 4.65474 14.0659 5.20382C14.1867 5.7529 14.0081 6.32617 13.5997 6.70029L6.27875 13.8204C6.22915 13.8678 6.20055 13.9341 6.19971 14.0038C6.19897 14.0734 6.22524 14.1406 6.27271 14.1903L7.36371 15.3132C7.61567 15.5758 7.71199 15.9572 7.61615 16.313C7.52032 16.6688 7.24699 16.9445 6.89972 17.0358L1.24274 18.4926C1.16326 18.513 1.08168 18.5236 0.999758 18.5236C0.691968 18.5236 0.401369 18.3773 0.211917 18.1274C0.0224656 17.8775 -0.0447583 17.5516 0.0297267 17.2439L1.44373 11.4158C1.53131 11.0559 1.79995 10.7724 2.14704 10.6734C2.49413 10.5745 2.86605 10.6754 3.12073 10.9378L3.79773 11.6342C3.89312 11.7331 4.04765 11.7354 4.14575 11.6394L11.5377 4.45327H11.5418Z" fill="#D52B1E"/>
</svg>
