<svg width="24" height="24" viewBox="0 0 24 24" fill="none" xmlns="http://www.w3.org/2000/svg">
<path d="M18.7473 3C20.1399 3.00002 21.4753 3.55329 22.4602 4.53809C23.4449 5.52298 23.9983 6.85916 23.9983 8.25195L24.0002 17.0527C23.9993 17.6289 23.8731 18.1989 23.6291 18.7207C23.3852 19.2427 23.0294 19.7052 22.5881 20.0752C22.1468 20.4454 21.6298 20.7149 21.0735 20.8643C20.517 21.0136 19.9341 21.0392 19.3488 20.9365C18.6984 20.8064 18.0894 20.5197 17.5744 20.1016C17.0592 19.6832 16.6532 19.146 16.4221 18.5977L14.4817 15.0029H9.51779L7.5383 18.6885C7.18397 19.4658 6.58834 20.1058 5.84299 20.5146L5.63596 20.6211C4.7937 21.0205 3.837 21.1087 2.91135 20.8643C2.0538 20.6071 1.30429 20.0754 0.778534 19.3506C0.252814 18.6257 -0.0204493 17.7479 0.00119019 16.8711V8.25195C0.00119019 6.8592 0.554579 5.52296 1.53928 4.53809C2.52408 3.5532 3.86044 3 5.25314 3H18.7473ZM5.25314 4.50586C4.25989 4.50586 3.30706 4.9011 2.60471 5.60352C1.90243 6.30591 1.50803 7.25866 1.50803 8.25195L1.50705 16.8896C1.49329 17.4546 1.66647 18.0083 1.99826 18.4658C2.33011 18.9233 2.80265 19.2596 3.31955 19.415C3.87725 19.562 4.46919 19.5069 4.99045 19.2598C5.51159 19.0127 5.92861 18.5892 6.18967 18.0205L8.40549 13.8936C8.5367 13.6492 8.79222 13.4971 9.06955 13.4971H14.9309C15.2074 13.4971 15.4614 13.6484 15.593 13.8916L17.7776 17.9434C17.9423 18.3285 18.1982 18.6684 18.5237 18.9326C18.8489 19.1967 19.2341 19.3772 19.6272 19.4561C19.9783 19.5175 20.3385 19.5016 20.6828 19.4092C21.0271 19.3168 21.347 19.1502 21.6203 18.9209C21.8935 18.6919 22.1129 18.4052 22.2639 18.082C22.4147 17.7593 22.4938 17.4076 22.4944 17.0527L22.4924 8.25195C22.4924 7.25875 22.0979 6.30588 21.3957 5.60352C20.6933 4.90108 19.7405 4.50588 18.7473 4.50586H5.25314ZM5.78732 6.79297C6.21943 6.79297 6.59762 6.95555 6.89474 7.25391L6.92209 7.28125C7.16523 7.52551 7.32769 7.87863 7.35471 8.23145C7.73281 8.25865 8.05727 8.44818 8.32736 8.69238C8.59734 8.96368 8.78621 9.3707 8.78635 9.80469C8.78635 10.2389 8.62445 10.6194 8.32736 10.918C8.08428 11.1893 7.73283 11.3517 7.35471 11.3789C7.32769 11.7589 7.13788 12.085 6.89474 12.3564C6.62459 12.6277 6.21941 12.8174 5.78732 12.8174C5.3552 12.8173 4.97701 12.6549 4.6799 12.3564C4.40975 12.1122 4.24793 11.7589 4.22092 11.3789C3.81568 11.3518 3.49107 11.1894 3.22092 10.918C2.95079 10.6466 2.76193 10.2389 2.76193 9.80469C2.76205 9.37068 2.9239 8.9908 3.22092 8.69238L3.24826 8.66504C3.51837 8.42088 3.84279 8.25858 4.22092 8.23145C4.24793 7.85149 4.43676 7.49817 4.6799 7.25391C4.95 6.98258 5.35519 6.79304 5.78732 6.79297ZM5.78732 7.76953C5.62534 7.76959 5.49006 7.82411 5.38205 7.93262C5.27412 8.04114 5.21994 8.1771 5.21994 8.33984V8.71973C5.21986 9.01808 4.97724 9.2352 4.70724 9.23535H4.32834C4.19339 9.23546 4.05836 9.28975 3.95041 9.37109L3.92307 9.39844C3.81538 9.50682 3.76106 9.64226 3.76096 9.80469C3.76096 9.96752 3.84202 10.1041 3.92307 10.1855C4.03104 10.294 4.16642 10.3476 4.32834 10.3477H4.70724C5.00414 10.3478 5.21976 10.5921 5.21994 10.8633V11.2432C5.21994 11.4059 5.27418 11.5419 5.38205 11.6504C5.49006 11.7589 5.62534 11.8134 5.78732 11.8135C5.94942 11.8135 6.08453 11.759 6.1926 11.6504C6.30063 11.5418 6.35471 11.406 6.35471 11.2432V10.8906C6.35478 10.5922 6.59827 10.375 6.86838 10.375H7.24631C7.4084 10.375 7.54352 10.3205 7.65158 10.2119C7.75955 10.1034 7.81369 9.96745 7.81369 9.80469C7.81358 9.64214 7.75944 9.50687 7.65158 9.39844C7.54352 9.28988 7.4084 9.23535 7.24631 9.23535H6.86838C6.57126 9.23535 6.35479 8.99106 6.35471 8.71973V8.33984C6.35471 8.20425 6.30088 8.06848 6.21994 7.95996C6.19292 7.93282 6.1926 7.93262 6.1926 7.93262C6.08454 7.82409 5.94939 7.76953 5.78732 7.76953ZM17.2483 9.24902C17.7323 9.24926 18.1251 9.64188 18.1252 10.126C18.1252 10.573 17.79 10.942 17.3576 10.9961L17.2483 11.0029C16.764 11.0029 16.3713 10.6102 16.3713 10.126C16.3714 9.64175 16.764 9.24902 17.2483 9.24902ZM19.4973 7C19.9813 7.00018 20.3733 7.39279 20.3733 7.87695C20.3732 8.32399 20.039 8.69295 19.6067 8.74707L19.4973 8.75391C19.013 8.75391 18.6204 8.36124 18.6203 7.87695C18.6203 7.39268 19.013 7 19.4973 7Z" fill="#404040"/>
</svg>
