<svg width="24" height="23" viewBox="0 0 24 23" fill="none" xmlns="http://www.w3.org/2000/svg">
<g clip-path="url(#clip0_534_937)">
<path d="M12 0C18.6244 0.00686167 23.9928 5.15157 24 11.5C24 17.8513 18.6274 23 12 23C5.37258 23 1.34454e-07 17.8513 0 11.5C0 5.14872 5.37258 0 12 0ZM15.6045 6.6084C15.4615 6.47104 15.2456 6.42969 15.0586 6.50391C14.8715 6.57822 14.7496 6.75417 14.75 6.94824V8.38574C14.7498 8.51791 14.638 8.625 14.5 8.625H8.75C6.62648 8.62644 4.87576 10.2215 4.76758 12.2539C4.65945 14.2862 6.23157 16.0433 8.34375 16.252C8.61166 16.2827 8.8567 16.1042 8.89746 15.8486C8.93802 15.5932 8.76018 15.3531 8.49512 15.3057C7.86952 15.179 7.44421 14.6203 7.50977 14.0107C7.57535 13.4012 8.11058 12.9372 8.75 12.9355H14.5C14.6379 12.9355 14.7498 13.0427 14.75 13.1748V14.6123C14.75 14.8061 14.8718 14.9815 15.0586 15.0557C15.2452 15.1302 15.4612 15.0897 15.6045 14.9531L19.6045 11.1191C19.7991 10.9321 19.7991 10.6294 19.6045 10.4424L15.6045 6.6084Z" fill="#404040"/>
</g>
<defs>
<clipPath id="clip0_534_937">
<rect width="24" height="23" fill="white"/>
</clipPath>
</defs>
</svg>
