<svg width="24" height="24" viewBox="0 0 24 24" fill="none" xmlns="http://www.w3.org/2000/svg">
<g clip-path="url(#clip0_686_18975)">
<path d="M3.5 7.5C5.01775 7.50007 6.24862 8.73029 6.25 10.248C6.25112 11.7656 5.02252 12.9972 3.50488 13C5.43593 13.0028 7 14.569 7 16.5V18.5C7 18.7761 6.77609 18.9999 6.5 19H5.67773C5.55078 19.0015 5.44501 19.0983 5.43262 19.2246L5 23.5498C4.97423 23.8062 4.75768 24.0012 4.5 24H2.5C2.24226 24.0013 2.02577 23.8063 2 23.5498L1.57031 19.2246C1.55778 19.0968 1.44967 18.9996 1.32129 19H0.5C0.223858 19 0 18.7761 0 18.5V16.5C0 14.5689 1.56407 13.0028 3.49512 13C1.97748 12.9972 0.748884 11.7656 0.75 10.248C0.75138 8.73025 1.98219 7.5 3.5 7.5ZM22 0C23.1045 6.5389e-05 24 0.89547 24 2V13C24 14.1045 23.1045 14.9999 22 15H14.4141L11.207 18.207C10.921 18.4929 10.4908 18.5786 10.1172 18.4238C9.74357 18.2691 9.50009 17.9044 9.5 17.5V15H9C7.89543 15 7 14.1046 7 13V2C7 0.89543 7.89543 0 9 0H22ZM9.25 2C9.11193 2 9 2.11193 9 2.25V12.75C9 12.8881 9.11193 13 9.25 13H10.5C11.0522 13.0001 11.5 13.4478 11.5 14V15.0859L13.293 13.293C13.4805 13.1054 13.7348 13.0001 14 13H21.75C21.888 12.9999 22 12.888 22 12.75V2.25C22 2.11197 21.888 2.00007 21.75 2H9.25ZM15.5 10.0361C15.9731 10.0362 16.3562 10.4195 16.3564 10.8926C16.3564 11.3658 15.9733 11.7499 15.5 11.75C15.0267 11.75 14.6426 11.3659 14.6426 10.8926C14.6428 10.4194 15.0268 10.0361 15.5 10.0361ZM15.2471 3.26367C16.5029 3.13416 17.6538 3.97518 17.9121 5.21094C18.1703 6.44665 17.4525 7.67824 16.25 8.0625V8.57129C16.2499 8.98535 15.9141 9.32123 15.5 9.32129C15.0859 9.32129 14.7501 8.98539 14.75 8.57129V7.42871C14.7501 7.01461 15.0859 6.67871 15.5 6.67871C16.0321 6.67865 16.4634 6.24784 16.4639 5.71582C16.4641 5.1837 16.033 4.75158 15.501 4.75098C14.9687 4.75061 14.5368 5.18165 14.5361 5.71387C14.5361 6.12799 14.2002 6.46373 13.7861 6.46387C13.3719 6.46387 13.0361 6.12808 13.0361 5.71387C13.0367 4.45139 13.9912 3.39329 15.2471 3.26367Z" fill="#404040"/>
</g>
<defs>
<clipPath id="clip0_686_18975">
<rect width="24" height="24" fill="white"/>
</clipPath>
</defs>
</svg>
