<svg width="24" height="24" viewBox="0 0 24 24" fill="none" xmlns="http://www.w3.org/2000/svg">
<g clip-path="url(#clip0_512_993)">
<path fill-rule="evenodd" clip-rule="evenodd" d="M14.7575 1.23293C15.9806 0.339787 17.7009 0.456392 18.7823 1.50563C19.8637 2.55487 19.9724 4.21308 19.0366 5.38503C18.2233 6.19492 15.8321 6.83935 14.4745 7.17043L14.0426 7.27394H22.2128C22.6868 7.27394 23.1414 7.45544 23.4765 7.77834C23.8117 8.10124 24 8.53922 24 8.99587V10.9636C23.9944 11.9123 23.1975 12.6799 22.2128 12.6853H13.5319C13.2499 12.6853 13.0213 12.4651 13.0213 12.1934V7.76589C13.0213 7.4942 13.2499 7.27394 13.5319 7.27394L13.517 7.27663C13.3298 7.22959 13.1568 7.13151 13.0213 6.98879C12.7831 6.7359 12.6981 6.38198 12.7966 6.05397C13.246 4.2633 13.9915 1.98068 14.7575 1.23293ZM17.235 2.11574C16.8011 2.04787 16.3709 2.25513 16.1668 2.63014H16.2077C15.7692 3.32908 15.4356 4.08425 15.217 4.87331C16.0339 4.67507 16.8178 4.36701 17.5455 3.95827C17.9348 3.76165 18.1498 3.34718 18.0794 2.92922C18.0089 2.51127 17.6688 2.1836 17.235 2.11574ZM6.62975 0.0637373C7.81949 -0.178143 9.04513 0.280597 9.75319 1.23293C10.5191 1.98068 11.2647 4.2633 11.714 6.05397C11.8153 6.38029 11.7342 6.73399 11.4996 6.98879C11.3378 7.14843 11.128 7.24711 10.9064 7.27614L10.9787 7.27394C11.2607 7.27394 11.4894 7.4942 11.4894 7.76589V12.1934C11.4894 12.4651 11.2607 12.6853 10.9787 12.6853H1.78724C0.802494 12.6799 0.0055794 11.9123 0 10.9636V8.99587C0 8.04495 0.800174 7.27394 1.78724 7.27394L10.6284 7.2759C10.5781 7.26916 10.5279 7.25859 10.4783 7.2444C9.27319 6.95908 6.36255 6.21147 5.48425 5.35549C4.49404 4.67563 4.01486 3.4959 4.2631 2.34914C4.51134 1.20239 5.44001 0.305627 6.62975 0.0637373ZM8.30298 2.63014C7.90547 2.40472 7.40046 2.46392 7.07073 2.77467C6.74101 3.08542 6.66842 3.57045 6.89362 3.95827L7.21304 4.12819C7.85858 4.4553 8.54351 4.70565 9.25277 4.87331C9.04699 4.08633 8.72726 3.33125 8.30298 2.63014ZM11.4894 14.6531C11.4894 14.3814 11.2607 14.1611 10.9787 14.1611H2.55319C2.27117 14.1611 2.04256 14.3814 2.04256 14.6531V22.2783C2.04814 23.227 2.84504 23.9946 3.82979 24H10.9787C11.2607 24 11.4894 23.7798 11.4894 23.5081V14.6531ZM13.5319 14.1611C13.2499 14.1611 13.0213 14.3814 13.0213 14.6531V23.5081C13.0213 23.7798 13.2499 24 13.5319 24H20.1702C21.155 23.9946 21.9519 23.227 21.9575 22.2783V14.6531C21.9575 14.3814 21.7288 14.1611 21.4468 14.1611H13.5319Z" fill="#404040"/>
</g>
<defs>
<clipPath id="clip0_512_993">
<rect width="24" height="24" fill="white"/>
</clipPath>
</defs>
</svg>
