<svg width="24" height="24" viewBox="0 0 24 24" fill="none" xmlns="http://www.w3.org/2000/svg">
<g clip-path="url(#clip0_93_1069)">
<path fill-rule="evenodd" clip-rule="evenodd" d="M19.4346 0.00390625C19.9388 0.0551302 20.332 0.481267 20.332 0.999023C20.332 2.95565 19.3306 4.66366 17.9443 5.86523H21.5322C22.1864 5.86523 22.8138 6.12538 23.2764 6.58789C23.7389 7.05045 23.999 7.67788 23.999 8.33203V10.5312C23.999 10.9909 23.8162 11.4318 23.4912 11.7568C23.23 12.018 22.8936 12.1848 22.5332 12.2412V21.5303C22.5332 22.1842 22.2728 22.8119 21.8105 23.2744C21.3481 23.7369 20.7204 23.997 20.0664 23.9971H3.93359C3.27943 23.9971 2.65203 23.737 2.18945 23.2744C1.72689 22.8119 1.4668 22.1844 1.4668 21.5303V12.2412C1.10603 12.1849 0.769245 12.0182 0.507812 11.7568C0.182874 11.4318 3.59096e-05 10.9908 0 10.5312V8.33203C0 7.67789 0.260128 7.05045 0.722656 6.58789C1.18524 6.12533 1.81262 5.86523 2.4668 5.86523H6.05469C4.66844 4.66366 3.66702 2.9556 3.66699 0.999023C3.66699 0.446739 4.11471 -0.000976562 4.66699 -0.000976562L5.01855 0.0078125C6.7776 0.0951007 8.50936 0.829039 9.83105 1.95605C10.8139 2.79424 11.6069 3.88655 11.999 5.14062C12.3911 3.88644 13.185 2.7943 14.168 1.95605C15.5776 0.754045 17.4538 -0.000866813 19.332 -0.000976562L19.4346 0.00390625ZM15.1992 21.9971H20.0664C20.19 21.997 20.3091 21.9477 20.3965 21.8604C20.4837 21.7729 20.5332 21.6538 20.5332 21.5303V12.2646H15.1992V21.9971ZM10.7998 21.9971H13.1992V12.2646H10.7998V21.9971ZM3.4668 21.5303C3.4668 21.654 3.51602 21.7729 3.60352 21.8604C3.69102 21.9478 3.80984 21.9971 3.93359 21.9971H8.7998V12.2646H3.4668V21.5303ZM15.1992 10.2646H21.999V8.33203C21.999 8.20834 21.9498 8.08945 21.8623 8.00195C21.7748 7.91453 21.6559 7.86523 21.5322 7.86523H15.1992V10.2646ZM10.7998 10.2646H13.1992V7.86523H10.7998V10.2646ZM2.4668 7.86523C2.34303 7.86523 2.22422 7.91446 2.13672 8.00195C2.04926 8.08945 2 8.20834 2 8.33203V10.2646H8.7998V7.86523H2.4668ZM5.84375 2.13281C6.10671 2.97053 6.65153 3.74816 7.40039 4.38672C8.17031 5.04315 9.11543 5.51365 10.0879 5.73047C9.82481 4.89326 9.28162 4.11577 8.5332 3.47754C7.76282 2.82068 6.81683 2.3495 5.84375 2.13281ZM18.1543 2.13281C17.1815 2.34959 16.2359 2.82088 15.4658 3.47754C14.7173 4.11584 14.1732 4.89315 13.9102 5.73047C14.8829 5.51374 15.8284 5.04335 16.5986 4.38672C17.3474 3.74823 17.8913 2.97042 18.1543 2.13281Z" fill="#404040"/>
</g>
<defs>
<clipPath id="clip0_93_1069">
<rect width="24" height="24" fill="white"/>
</clipPath>
</defs>
</svg>
