<svg width="24" height="24" viewBox="0 0 24 24" fill="none" xmlns="http://www.w3.org/2000/svg">
<path fill-rule="evenodd" clip-rule="evenodd" d="M3.241 6H20.759C21.0351 5.9998 21.2588 5.77565 21.2586 5.49951C21.2586 5.44699 21.2503 5.3949 21.234 5.34497C20.2 2.19997 16.408 0 12 0C7.592 0 3.79999 2.19997 2.76599 5.34497C2.68039 5.60751 2.82383 5.88973 3.08636 5.97534C3.1363 5.99162 3.18848 6 3.241 6ZM23.25 24C23.6642 24 24 23.6642 24 23.25C24 22.8358 23.6642 22.5 23.25 22.5H22.766C22.5902 22.5 22.4274 22.4079 22.337 22.2571L21.429 20.7429C21.3386 20.5921 21.1758 20.5 21 20.5H3C2.82423 20.5 2.66136 20.5921 2.57101 20.7429L1.66299 22.2571C1.57265 22.4079 1.40978 22.5 1.23401 22.5H0.75C0.335786 22.5 0 22.8358 0 23.25C0 23.6642 0.335786 24 0.75 24H23.25ZM3.5 19.5C3.22386 19.5 3 19.2761 3 19V12.5C3 12.2239 3.22386 12 3.5 12H5.5C5.77614 12 6 12.2239 6 12.5V19C6 19.2761 5.77614 19.5 5.5 19.5H3.5ZM8.5 19.5C8.22386 19.5 8 19.2761 8 19V12.5C8 12.2239 8.22386 12 8.5 12H10.5C10.7761 12 11 12.2239 11 12.5V19C11 19.2761 10.7761 19.5 10.5 19.5H8.5ZM13.5 19.5C13.2239 19.5 13 19.2761 13 19V12.5C13 12.2239 13.2239 12 13.5 12H15.5C15.7761 12 16 12.2239 16 12.5V19C16 19.2761 15.7761 19.5 15.5 19.5H13.5ZM18.5 19.5C18.2239 19.5 18 19.2761 18 19V12.5C18 12.2239 18.2239 12 18.5 12H20.5C20.7761 12 21 12.2239 21 12.5V19C21 19.2761 20.7761 19.5 20.5 19.5H18.5ZM1.91199 10.3169C2.04829 10.7247 2.43001 10.9998 2.85999 11H21.14C21.5706 11.0001 21.9529 10.7245 22.089 10.3159L22.755 8.31592C22.9295 7.79193 22.6462 7.22579 22.1223 7.05127C22.0206 7.01741 21.9142 7.00008 21.807 7H2.19299C1.64071 7.00042 1.19334 7.44844 1.19376 8.00073C1.19376 8.10788 1.21114 8.21426 1.245 8.31592L1.91199 10.3169Z" fill="#404040"/>
</svg>
