<svg width="24" height="24" viewBox="0 0 24 24" fill="none" xmlns="http://www.w3.org/2000/svg">
<path d="M7.5 13.5791C11.6421 13.5791 15 17.1135 15 21.4736C15 21.7643 14.7761 22 14.5 22H0.5C0.223858 22 0 21.7643 0 21.4736C2.68388e-05 17.1135 3.35788 13.5791 7.5 13.5791ZM16.5 13.5791C20.6403 13.5838 23.9956 17.1155 24 21.4736C24 21.7643 23.7761 22 23.5 22H16.9688C16.8432 22 16.7229 21.9467 16.6348 21.8525C16.5467 21.7584 16.4981 21.6311 16.5 21.499V21.4736C16.4993 18.9982 15.5734 16.6226 13.9229 14.8594C13.8029 14.7296 13.7543 14.5432 13.7949 14.3672C13.8356 14.1913 13.9599 14.0495 14.123 13.9922C14.8885 13.7186 15.6916 13.5794 16.5 13.5791ZM13.2734 3.3252C14.7593 1.94632 16.8752 1.61271 18.6797 2.47266C20.4842 3.33268 21.6417 5.22641 21.6377 7.31152V9.02637C21.6659 9.86576 21.8946 10.6867 22.3057 11.4111C22.5102 11.7271 22.5362 12.135 22.373 12.4766C22.2098 12.8181 21.8834 13.04 21.5205 13.0557C21.1576 13.0713 20.8151 12.8781 20.626 12.5518C20.4329 12.2317 20.271 11.8917 20.1436 11.5371C20.1139 11.4592 20.0509 11.4007 19.9736 11.3799C19.8964 11.3592 19.8144 11.3783 19.7529 11.4316C17.8472 13.0776 15.085 13.0106 13.2529 11.2744C13.078 11.1088 13.0366 10.8372 13.1533 10.6221C13.3143 10.3238 13.4538 10.0127 13.5703 9.69238C13.6318 9.52371 13.7711 9.39949 13.9395 9.36426C14.1079 9.32904 14.2823 9.38824 14.4004 9.51953C14.9709 10.1581 15.7669 10.5203 16.5996 10.5195C18.1029 10.5173 19.3812 9.36175 19.6104 7.79785C19.6475 7.54207 19.5017 7.29558 19.2676 7.2168C18.3289 6.90186 17.4802 6.34375 16.7998 5.59375C16.7525 5.54201 16.6873 5.51273 16.6191 5.5127C16.5509 5.5127 16.4858 5.54206 16.4385 5.59375C15.9307 6.15252 15.3276 6.60634 14.6611 6.93164C14.5159 7.00263 14.3469 6.99613 14.207 6.91406C14.0671 6.83199 13.9732 6.68398 13.9541 6.5166C13.9013 6.06595 13.8076 5.62148 13.6748 5.18945C13.5493 4.76955 13.381 4.36521 13.1729 3.9834C13.0533 3.76698 13.0957 3.49155 13.2734 3.3252ZM7.5 2C10.2613 2 12.4998 4.35615 12.5 7.2627C12.4967 10.168 10.2601 12.5229 7.5 12.5264C4.73858 12.5264 2.5 10.1695 2.5 7.2627C2.50024 4.35615 4.73872 2 7.5 2ZM5.34082 6.16504C5.20617 6.07985 5.04114 6.0659 4.89551 6.12793C4.74979 6.19003 4.63999 6.32151 4.59961 6.48145C4.53372 6.73606 4.5004 6.9988 4.5 7.2627C4.50322 8.90301 5.69901 10.2677 7.25195 10.4033C8.80496 10.5389 10.1981 9.40058 10.458 7.7832C10.4799 7.61879 10.4265 7.45281 10.3145 7.33594C10.2025 7.21928 10.0445 7.16495 9.88867 7.18945C9.58124 7.23785 9.27081 7.26207 8.95996 7.2627C7.68071 7.25383 6.42834 6.87419 5.34082 6.16504Z" fill="#404040"/>
</svg>
