<svg width="24" height="24" viewBox="0 0 24 24" fill="none" xmlns="http://www.w3.org/2000/svg">
<path fill-rule="evenodd" clip-rule="evenodd" d="M16.6465 1.99902C20.5647 1.99926 23.8066 5.06742 23.8066 8.93066C23.8064 11.035 22.8359 12.9115 21.3242 14.1758L13.252 21.374L13.2529 21.375C12.4882 22.057 11.3195 22.0566 10.5547 21.375L2.49219 14.1855V14.1846C0.974633 12.9202 0.000205535 11.0398 0 8.93066C0 5.06728 3.24177 1.99902 7.16016 1.99902C8.97458 1.9991 10.6366 2.65504 11.9023 3.73926C13.1683 2.65449 14.8315 1.99902 16.6465 1.99902ZM16.6465 3.99902C15.0347 3.99902 13.6043 4.70355 12.6611 5.79785C12.4713 6.01817 12.1942 6.14539 11.9033 6.14551C11.6124 6.14551 11.3355 6.01812 11.1455 5.79785C10.2024 4.70352 8.77191 3.99912 7.16016 3.99902C4.27433 3.99902 2 6.24251 2 8.93066C2.00019 10.3231 2.60432 11.588 3.59082 12.4912L3.79395 12.667L3.82324 12.6934L11.8857 19.8818L11.8896 19.8838C11.8926 19.8849 11.8975 19.8867 11.9033 19.8867C11.9094 19.8867 11.915 19.8849 11.918 19.8838C11.9199 19.883 11.9205 19.8822 11.9209 19.8818L19.9941 12.6836L20.0215 12.6602C21.122 11.7493 21.8064 10.4121 21.8066 8.93066C21.8066 6.24263 19.5321 3.99926 16.6465 3.99902Z" fill="#404040"/>
</svg>
