<svg width="24" height="24" viewBox="0 0 24 24" fill="none" xmlns="http://www.w3.org/2000/svg">
<path fill-rule="evenodd" clip-rule="evenodd" d="M6.89709 2.00125C5.48743 2.00124 4.11161 2.42212 2.95491 3.20722C1.79821 3.99232 0.916164 5.10393 0.427559 6.39237C-0.061047 7.6808 -0.132751 9.08418 0.222101 10.4135C0.576953 11.7429 1.34132 12.9344 2.41228 13.8275L11.0812 21.6485C11.3311 21.8738 11.6591 21.999 11.9996 21.999C12.3401 21.999 12.668 21.8738 12.918 21.6485L21.5977 13.817C22.3118 13.2191 22.8928 12.4851 23.3048 11.6601C23.7167 10.8351 23.951 9.93667 23.9931 9.02014C24.0352 8.1036 23.8843 7.18836 23.5496 6.33082C23.2149 5.47327 22.7036 4.69157 22.0472 4.03389C21.3907 3.3762 20.603 2.85645 19.7325 2.50665C18.8621 2.15686 17.9274 1.98443 16.986 1.99999C16.0446 2.01555 15.1164 2.21877 14.2586 2.59712C13.4009 2.97548 12.6317 3.52096 11.9985 4.19997C11.3529 3.50671 10.5654 2.9529 9.68674 2.57421C8.80812 2.19551 7.85783 2.00034 6.89709 2.00125Z" fill="#404040"/>
</svg>
