<svg width="24" height="24" viewBox="0 0 24 24" fill="none" xmlns="http://www.w3.org/2000/svg">
<path fill-rule="evenodd" clip-rule="evenodd" d="M23.3021 5.40805C22.3484 3.63997 20.5702 2.40748 18.5098 2.08639C16.4494 1.7653 14.3511 2.3937 12.855 3.78L12.0008 4.52365L11.1738 3.80673C9.68038 2.39287 7.56173 1.75247 5.48512 2.08725C3.42055 2.39368 1.63835 3.62997 0.699573 5.40708C-0.569683 7.77497 -0.0799119 10.653 1.90973 12.5183L11.2838 21.7115C11.4721 21.8959 11.7307 22 12.0008 22C12.271 22 12.5297 21.8959 12.718 21.7115L22.079 12.5354C24.0768 10.6683 24.5719 7.78337 23.3021 5.40805Z" fill="#D52B1E"/>
</svg>
