<svg width="24" height="24" viewBox="0 0 24 24" fill="none" xmlns="http://www.w3.org/2000/svg">
<path d="M12 0C16.5882 0 20.3076 3.71944 20.3076 8.30762H21.2305C22.7598 8.30762 24 9.54774 24 11.0771V14.7695C23.9998 16.2988 22.7597 17.5381 21.2305 17.5381H20.3076V19.0771C20.3075 21.796 18.1036 23.9999 15.3848 24H12C11.2353 24 10.6152 23.3799 10.6152 22.6152C10.6153 21.8506 11.2354 21.2305 12 21.2305H15.3848C16.5741 21.2304 17.5379 20.2666 17.5381 19.0771V8.30762C17.538 5.24885 15.0588 2.76953 12 2.76953C8.94123 2.76953 6.46195 5.24885 6.46191 8.30762V16.6152C6.46191 17.125 6.04788 17.5381 5.53809 17.5381H2.76953C1.24022 17.5381 0.000162338 16.2988 0 14.7695V11.0771C0 9.54774 1.24012 8.30762 2.76953 8.30762H3.69238C3.69242 3.71944 7.41182 0 12 0Z" fill="#404040"/>
</svg>
