<svg width="24" height="24" viewBox="0 0 24 24" fill="none" xmlns="http://www.w3.org/2000/svg">
<g clip-path="url(#clip0_455_216)">
<path fill-rule="evenodd" clip-rule="evenodd" d="M21.6809 2.28392C21.9372 2.04223 22.3167 1.94523 22.6736 2.03031C23.0306 2.1154 23.3093 2.36923 23.4027 2.69429C23.4961 3.01936 23.3897 3.3651 23.1243 3.59854L19.0411 7.31293C20.6623 8.24446 22.1387 9.37028 23.4306 10.6601C24.1871 11.4251 24.1901 12.5861 23.4377 13.3545C20.8224 15.9727 16.5013 18.7471 12.1568 18.7471H11.8506C10.3352 18.7231 8.83992 18.4264 7.4509 17.8741L3.21865 21.7288C2.87437 22.0412 2.33595 22.0894 1.93161 21.8437C1.52728 21.5981 1.3692 21.1268 1.55373 20.7172C1.5619 20.7098 1.5721 20.7079 1.58027 20.7014L21.4859 2.57121C21.5671 2.49473 21.6275 2.40204 21.6625 2.3006L21.6809 2.28392ZM11.9976 5.26839C13.1203 5.26263 14.2369 5.41885 15.306 5.73136C15.3915 5.75702 15.4563 5.82133 15.4771 5.90113C15.498 5.98095 15.4718 6.06488 15.4081 6.12283L13.4267 7.92844C13.3626 7.98682 13.2688 8.00885 13.1817 7.98603C12.797 7.88314 12.3985 7.82909 11.9976 7.82526C9.46058 7.82526 7.40395 9.69836 7.40395 12.0091C7.40964 12.3743 7.47009 12.7373 7.58361 13.0876C7.60891 13.1668 7.58507 13.2522 7.52134 13.3108L4.413 16.1465C4.32369 16.2273 4.18379 16.2387 4.08022 16.1735C2.8021 15.3527 1.62538 14.4081 0.570683 13.3564C-0.192966 12.5912 -0.189857 11.4219 0.577839 10.6601C3.21866 8.01121 7.60811 5.21447 11.9976 5.26839ZM16.0051 10.2145C15.9224 10.2021 15.8383 10.2271 15.7796 10.2816L10.104 15.4502C10.0446 15.5039 10.0176 15.5805 10.0314 15.6556C10.0452 15.7308 10.0981 15.7953 10.1734 15.8285C11.1672 16.2444 12.2957 16.3074 13.3379 16.0052C14.8051 15.5828 15.9502 14.5301 16.4003 13.1899C16.7184 12.2506 16.6453 11.2373 16.1951 10.3439C16.1587 10.2751 16.0878 10.2269 16.0051 10.2145Z" fill="#D52B1E"/>
</g>
<defs>
<clipPath id="clip0_455_216">
<rect width="24" height="24" fill="white"/>
</clipPath>
</defs>
</svg>
