<svg width="24" height="23" viewBox="0 0 24 23" fill="none" xmlns="http://www.w3.org/2000/svg">
<g clip-path="url(#clip0_1_1767)">
<path fill-rule="evenodd" clip-rule="evenodd" d="M24 9.10431C24 8.80754 23.8561 8.52758 23.611 8.34626L12.611 0.200423C12.251 -0.065831 11.749 -0.065831 11.389 0.200423L0.389 8.34626C0.143851 8.52758 0 8.80754 0 9.10431V22.0418C0 22.5711 0.447715 23.0001 1 23.0001H9C9.55228 23.0001 10 22.5711 10 22.0418V17.2501C10 16.1916 10.8954 15.3335 12 15.3335C13.1046 15.3335 14 16.1916 14 17.2501V22.0418C14 22.5711 14.4477 23.0001 15 23.0001H23C23.5523 23.0001 24 22.5711 24 22.0418V9.10431ZM22 20.6043C22 20.8689 21.7761 21.0835 21.5 21.0835H16.5C16.2239 21.0835 16 20.8689 16 20.6043V17.2501C16 15.1331 14.2091 13.4168 12 13.4168C9.79086 13.4168 8 15.1331 8 17.2501V20.6043C8 20.8689 7.77614 21.0835 7.5 21.0835H2.5C2.22386 21.0835 1.99998 20.8689 1.99998 20.6043V9.80973C1.99857 9.65991 2.07035 9.51794 2.194 9.42625L11.694 2.3913C11.8742 2.25768 12.1258 2.25768 12.306 2.3913L21.806 9.42625C21.9296 9.51794 22.0014 9.65991 22 9.80973V20.6043Z" fill="#D52B1E"/>
</g>
<defs>
<clipPath id="clip0_1_1767">
<rect width="24" height="23" fill="white"/>
</clipPath>
</defs>
</svg>
