<svg width="24" height="24" viewBox="0 0 24 24" fill="none" xmlns="http://www.w3.org/2000/svg">
<g clip-path="url(#clip0_684_414)">
<path d="M1 12.25C1.55228 12.25 2 12.6977 2 13.25V19C2 19.1381 2.11193 19.25 2.25 19.25H21.75C21.8881 19.25 22 19.1381 22 19V15.75C22 15.1977 22.4477 14.75 23 14.75C23.5523 14.75 24 15.1977 24 15.75V23C24 23.5523 23.5523 24 23 24C22.4477 24 22 23.5523 22 23V22.5C22 22.3619 21.8881 22.25 21.75 22.25H2.25C2.11193 22.25 2 22.3619 2 22.5V23C2 23.5523 1.55228 24 1 24C0.447715 24 0 23.5523 0 23V13.25C0 12.6977 0.447715 12.25 1 12.25ZM6 12.75C7.38071 12.75 8.5 13.8693 8.5 15.25C8.5 16.6307 7.38071 17.75 6 17.75C4.61929 17.75 3.5 16.6307 3.5 15.25C3.5 13.8693 4.61929 12.75 6 12.75ZM18 13.75C18.663 13.75 19.2987 14.0136 19.7676 14.4824C20.2364 14.9513 20.5 15.587 20.5 16.25V17.25C20.5 17.5261 20.2761 17.75 20 17.75H10.5C10.2239 17.75 10 17.5261 10 17.25V14.75C10 14.1977 10.4477 13.75 11 13.75H18ZM13.5 0C13.7761 0 14 0.22386 14 0.5V3C14 3.13807 14.1119 3.25 14.25 3.25H16.75C17.0261 3.25 17.25 3.47386 17.25 3.75V6.25C17.25 6.52614 17.0261 6.75 16.75 6.75H14.25C14.1119 6.75 14 6.86193 14 7V9.5C14 9.77614 13.7761 10 13.5 10H11C10.7239 10 10.5 9.77614 10.5 9.5V7C10.5 6.86193 10.3881 6.75 10.25 6.75H7.75C7.47386 6.75 7.25 6.52614 7.25 6.25V3.75C7.25 3.47386 7.47386 3.25 7.75 3.25H10.25C10.3881 3.25 10.5 3.13807 10.5 3V0.5C10.5 0.22386 10.7239 0 11 0H13.5Z" fill="#404040"/>
</g>
<defs>
<clipPath id="clip0_684_414">
<rect width="24" height="24" fill="white"/>
</clipPath>
</defs>
</svg>
