<svg width="24" height="24" viewBox="0 0 24 24" fill="none" xmlns="http://www.w3.org/2000/svg">
<g clip-path="url(#clip0_273_360)">
<path fill-rule="evenodd" clip-rule="evenodd" d="M3.86441 23C3.52742 23 3.25424 22.723 3.25424 22.3814L3.254 10.675L1.04181 12.9207C0.803622 13.1624 0.417284 13.1626 0.178897 12.9211C-0.0594896 12.6796 -0.0596533 12.2879 0.178532 12.0462L3.42838 8.74812C3.43171 8.74466 3.43509 8.74124 3.43851 8.73787L10.4146 1.65962C10.8356 1.23533 11.4056 0.998051 11.9993 1.00001C12.5929 1.00202 13.1614 1.24311 13.5779 1.66846L20.5606 8.74245C20.5643 8.7461 20.5679 8.7498 20.5716 8.75355L23.8211 12.0459C24.0595 12.2874 24.0596 12.6791 23.8214 12.9207C23.5832 13.1624 23.1969 13.1626 22.9585 12.9211L20.745 10.679L20.7458 22.3814C20.7458 22.723 20.4726 23 20.1356 23H3.86441ZM11.9952 2.23726C11.7254 2.23636 11.4663 2.34422 11.2764 2.53559L4.474 9.437L4.47458 21.7628L8.135 21.762L8.13559 17.4324C8.13559 15.2686 9.86575 13.5145 12 13.5145C14.1343 13.5145 15.8644 15.2686 15.8644 17.4324L15.864 21.762L19.5254 21.7628L19.525 9.443L12.7136 2.54189C12.5235 2.34775 12.265 2.23816 11.9952 2.23726ZM12 14.7517C10.5397 14.7517 9.35593 15.9519 9.35593 17.4324L9.355 21.762H14.644L14.6441 17.4324C14.6441 15.9519 13.4603 14.7517 12 14.7517Z" fill="#212529"/>
</g>
<defs>
<clipPath id="clip0_273_360">
<rect width="24" height="24" fill="white"/>
</clipPath>
</defs>
</svg>
