<svg width="24" height="24" viewBox="0 0 24 24" fill="none" xmlns="http://www.w3.org/2000/svg">
<g clip-path="url(#clip0_93_1065)">
<path d="M16.3008 0.000976562C16.6117 0.000950487 16.915 0.0752892 17.1924 0.214844C17.4001 0.319384 17.5889 0.456563 17.7529 0.620117L17.9092 0.791992L21.4033 5.04395L21.542 5.23047C21.845 5.67974 21.9999 6.22459 22 6.76953V20.7549C21.9992 21.5705 21.7334 22.3779 21.2266 22.9941C20.7158 23.6149 19.9902 23.9994 19.1973 24H4.80566C4.01221 24.0003 3.28579 23.6161 2.77441 22.9951C2.26699 22.3788 2.00076 21.5709 2 20.7549V3.25098C1.99978 2.84385 2.06526 2.43735 2.19531 2.05469C2.32555 1.67175 2.51999 1.31405 2.77246 1.00684C3.02503 0.699587 3.33292 0.446724 3.68262 0.270508C4.03312 0.0939807 4.41552 -0.000131045 4.80566 0H16.3008V0.000976562ZM4.80469 2.12109C4.72241 2.12112 4.63673 2.14135 4.55078 2.18457C4.46393 2.22831 4.37451 2.29825 4.29297 2.39746C4.21146 2.49677 4.14022 2.62251 4.08984 2.77051C4.03946 2.91882 4.01161 3.0826 4.01172 3.25V20.752C4.01197 21.0955 4.12587 21.4002 4.29297 21.6035C4.45625 21.8018 4.64472 21.8789 4.80469 21.8789H19.1953C19.3552 21.8787 19.5438 21.8019 19.707 21.6035C19.8739 21.4005 19.9877 21.0968 19.9883 20.7539V7.95605H16.4619C15.8282 7.95605 15.2206 7.69024 14.7725 7.21777C14.5507 6.98397 14.374 6.70681 14.2539 6.40137C14.1338 6.09573 14.0723 5.76735 14.0723 5.43652V2.12109H4.80469ZM13.9053 11.0771C13.9903 11.0772 14.0744 11.1004 14.1484 11.1445C14.2223 11.1887 14.2844 11.2524 14.3281 11.3291L18.6738 18.6904C18.6959 18.7307 18.708 18.7768 18.708 18.8232C18.708 18.8698 18.6959 18.9157 18.6738 18.9561C18.6513 18.9972 18.6188 19.0315 18.5801 19.0557C18.5414 19.0797 18.4971 19.0928 18.4521 19.0938H6.2793C6.23432 19.0928 6.1901 19.0798 6.15137 19.0557C6.11273 19.0316 6.08107 18.997 6.05859 18.9561C6.03652 18.9157 6.02441 18.8698 6.02441 18.8232C6.02444 18.7768 6.03655 18.7307 6.05859 18.6904L8.93555 13.9814C8.98065 13.9047 9.04336 13.8408 9.11816 13.7969C9.19299 13.753 9.27764 13.7305 9.36328 13.7305C9.44873 13.7305 9.53274 13.7531 9.60742 13.7969C9.68225 13.8408 9.74493 13.9047 9.79004 13.9814L10.6553 15.4453C10.6797 15.4838 10.7134 15.515 10.752 15.5371C10.7904 15.5592 10.8332 15.5715 10.877 15.5723C10.9191 15.5698 10.9604 15.5572 10.9971 15.5352C11.0336 15.5132 11.0645 15.4822 11.0879 15.4453L13.4824 11.3291C13.5262 11.2523 13.5882 11.1887 13.6621 11.1445C13.7362 11.1004 13.8202 11.0771 13.9053 11.0771ZM8.87402 6.36426C9.40766 6.36426 9.91954 6.58846 10.2969 6.98633C10.6742 7.38419 10.8867 7.92367 10.8867 8.48633C10.8867 9.04894 10.6742 9.5885 10.2969 9.98633C9.91955 10.3841 9.4076 10.6074 8.87402 10.6074C8.34052 10.6073 7.82842 10.3841 7.45117 9.98633C7.07401 9.58852 6.86234 9.04883 6.8623 8.48633C6.8623 7.92384 7.07406 7.38416 7.45117 6.98633C7.82842 6.58855 8.34052 6.36436 8.87402 6.36426ZM16.085 5.43652C16.085 5.48873 16.0943 5.54063 16.1133 5.58887C16.1322 5.63689 16.1595 5.68096 16.1943 5.71777C16.2651 5.79237 16.3619 5.83398 16.4619 5.83398H19.3906L16.3877 2.18262V2.18164C16.3623 2.15112 16.34 2.1359 16.3262 2.12891L16.3008 2.12109H16.085V5.43652Z" fill="#404040"/>
</g>
<defs>
<clipPath id="clip0_93_1065">
<rect width="24" height="24" fill="white"/>
</clipPath>
</defs>
</svg>
