<svg width="24" height="24" viewBox="0 0 24 24" fill="none" xmlns="http://www.w3.org/2000/svg">
<g clip-path="url(#clip0_1_1630)">
<path fill-rule="evenodd" clip-rule="evenodd" d="M12 0C5.37258 0 0 5.37259 0 12C0 18.6274 5.37258 24 12 24C18.6274 24 24 18.6274 24 12C23.9928 5.37556 18.6244 0.00717 12 0ZM12 19C11.1716 19 10.5 18.3284 10.5 17.5C10.5 16.6716 11.1716 16 12 16C12.8284 16 13.5 16.6716 13.5 17.5C13.5 18.3284 12.8284 19 12 19ZM13.6 12.9199C13.2354 13.079 12.9998 13.4391 13 13.8369C13 14.3892 12.5523 14.8369 12 14.8369C11.4477 14.8369 11 14.3892 11 13.8369C10.9998 12.6439 11.7066 11.5641 12.8 11.0869C13.7156 10.6873 14.1959 9.67352 13.9251 8.71191C13.6543 7.7503 12.7154 7.136 11.7258 7.27295C10.7362 7.4099 9.99949 8.25611 10 9.25513C10 9.80742 9.55228 10.2551 9 10.2551C8.44771 10.2551 8 9.80742 8 9.25513C8 7.25734 9.47398 5.56568 11.453 5.29248C13.432 5.01928 15.3092 6.24831 15.8504 8.17139C16.3916 10.0945 15.431 12.1208 13.6 12.9199Z" fill="#D52B1E"/>
</g>
<defs>
<clipPath id="clip0_1_1630">
<rect width="24" height="24" fill="white"/>
</clipPath>
</defs>
</svg>
