<svg width="24" height="24" viewBox="0 0 24 24" fill="none" xmlns="http://www.w3.org/2000/svg">
<g clip-path="url(#clip0_686_461)">
<path d="M12.3154 0.00488281C18.8062 0.178933 23.9929 5.49228 24 12C24 18.6275 18.6274 24 12 24C5.37258 24 0 18.6274 0 12C0 5.37258 5.37258 0 12 0V0.897461L12.0127 0L12.3154 0.00488281ZM12 1.99902C6.47715 2.00002 2 6.47715 2 12C2 17.5229 6.47715 22 12 22C17.5229 22 22 17.5228 22 12.001C21.9941 6.57775 17.6707 2.14851 12.2744 2.00391L12 1.99902ZM11.5 9.5C12.6046 9.5 13.5 10.3954 13.5 11.5V16.25C13.5 16.3881 13.6119 16.5 13.75 16.5H14.5C15.0523 16.5 15.5 16.9477 15.5 17.5C15.5 18.0523 15.0523 18.5 14.5 18.5H10.5C9.94771 18.5 9.5 18.0523 9.5 17.5C9.5 16.9477 9.94771 16.5 10.5 16.5H11.25C11.3881 16.5 11.5 16.3881 11.5 16.25V11.75C11.5 11.6119 11.3881 11.5 11.25 11.5H10.5C9.94771 11.5 9.5 11.0523 9.5 10.5C9.5 9.94772 9.94771 9.5 10.5 9.5H11.5ZM12.25 5C13.0784 5 13.75 5.67158 13.75 6.5C13.75 7.32843 13.0784 8 12.25 8C11.4703 8 10.8295 7.40518 10.7568 6.64453L10.75 6.5C10.75 5.72033 11.3448 5.07954 12.1055 5.00684L12.25 5Z" fill="#404040"/>
</g>
<defs>
<clipPath id="clip0_686_461">
<rect width="24" height="24" fill="white"/>
</clipPath>
</defs>
</svg>
