<svg width="24" height="24" viewBox="0 0 24 24" fill="none" xmlns="http://www.w3.org/2000/svg">
<g clip-path="url(#clip0_686_462)">
<path d="M12 0C18.6244 0.00717 23.9928 5.37556 24 12C24 18.6274 18.6274 24 12 24C5.37258 24 0 18.6274 0 12C0 5.37259 5.37258 0 12 0ZM12 2C6.47715 2 2 6.47716 2 12C2 17.5229 6.47715 22 12 22C17.5203 21.9939 21.9939 17.5203 22 12C22 6.47716 17.5228 2 12 2ZM12 16C12.8284 16 13.5 16.6716 13.5 17.5C13.5 18.3284 12.8284 19 12 19C11.1716 19 10.5 18.3284 10.5 17.5C10.5 16.6716 11.1716 16 12 16ZM11.4531 5.29297C13.4321 5.0198 15.3093 6.24881 15.8506 8.17188C16.3915 10.0948 15.4305 12.1219 13.5996 12.9209C13.2352 13.0791 12.9998 13.4392 13 13.8369C13 14.3892 12.5523 14.8369 12 14.8369C11.4477 14.8369 11 14.3892 11 13.8369C10.9998 12.6439 11.7065 11.5642 12.7998 11.0869C13.7154 10.6873 14.1956 9.67352 13.9248 8.71191C13.654 7.75035 12.7151 7.13649 11.7256 7.27344C10.7362 7.41051 9.99961 8.25607 10 9.25488C10 9.80717 9.55228 10.2549 9 10.2549C8.44771 10.2549 8 9.80717 8 9.25488C8.00012 7.2572 9.47419 5.56616 11.4531 5.29297Z" fill="#404040"/>
</g>
<defs>
<clipPath id="clip0_686_462">
<rect width="24" height="24" fill="white"/>
</clipPath>
</defs>
</svg>
