<svg width="24" height="24" viewBox="0 0 24 24" fill="none" xmlns="http://www.w3.org/2000/svg">
<g clip-path="url(#clip0_114_1199)">
<path d="M18.8574 0C21.6975 0.0001474 23.9999 2.30247 24 5.14258V18.8574C23.9998 21.6975 21.6975 23.9999 18.8574 24H5.14258C2.3025 23.9999 0.000171104 21.6975 0 18.8574V5.14258C0.000148428 2.30247 2.30248 0.000140181 5.14258 0H18.8574ZM12 5.91602C8.64023 5.91614 5.91699 8.64021 5.91699 12C5.91707 15.3597 8.64028 18.0829 12 18.083C15.3598 18.083 18.0839 15.3598 18.084 12C18.084 8.64013 15.3599 5.91602 12 5.91602ZM12 7.8916C14.269 7.8916 16.1084 9.73099 16.1084 12C16.1083 14.2689 14.269 16.1084 12 16.1084C9.73114 16.1083 7.89168 14.2689 7.8916 12C7.8916 9.73106 9.73109 7.89172 12 7.8916ZM18.8564 3.66895C18.0383 3.66895 17.375 4.33224 17.375 5.15039C17.375 5.96848 18.0383 6.63184 18.8564 6.63184C19.6744 6.63168 20.3378 5.96838 20.3379 5.15039C20.3379 4.33234 19.6744 3.6691 18.8564 3.66895Z" fill="#404040"/>
</g>
<defs>
<clipPath id="clip0_114_1199">
<rect width="24" height="24" fill="white"/>
</clipPath>
</defs>
</svg>
