<svg width="24" height="24" viewBox="0 0 24 24" fill="none" xmlns="http://www.w3.org/2000/svg">
<g clip-path="url(#clip0_684_415)">
<path d="M11.7871 15.9961C12.7942 15.9963 13.6855 16.6283 13.9932 17.5596C14.3009 18.4911 13.9541 19.509 13.1348 20.0781C13.0575 20.1326 13.0177 20.2246 13.0312 20.3164C13.045 20.4081 13.1103 20.4856 13.2002 20.5166C14.5125 20.9893 15.5106 22.046 15.8828 23.3564C15.9295 23.5078 15.8998 23.672 15.8027 23.7988C15.7055 23.9254 15.5523 24 15.3896 24H8.18262C8.01998 24 7.86673 23.9255 7.76953 23.7988C7.67244 23.6721 7.64273 23.5078 7.68945 23.3564C8.06256 22.0459 9.06203 20.9896 10.375 20.5176C10.4653 20.4864 10.5305 20.4086 10.5439 20.3164C10.5573 20.2242 10.5164 20.1323 10.4385 20.0781C9.61919 19.509 9.27239 18.4911 9.58008 17.5596C9.8878 16.6281 10.7799 15.9961 11.7871 15.9961ZM4.06445 19.6006C5.302 19.5997 6.48933 20.0767 7.36328 20.9277C7.53674 21.0957 7.56389 21.3602 7.42871 21.5586C7.38352 21.6244 7.33997 21.69 7.29785 21.7578C7.20477 21.9079 7.03781 21.9999 6.85742 22H0.920898C0.71827 22.0009 0.533201 21.8861 0.449219 21.707C0.365445 21.528 0.397631 21.3177 0.53125 21.1699C1.41709 20.1718 2.70764 19.5991 4.06445 19.6006ZM18.9932 19.6338C20.3368 19.6323 21.617 20.1911 22.5078 21.168C22.6423 21.3151 22.6758 21.5256 22.5928 21.7051C22.5097 21.8845 22.3256 21.9999 22.123 22H16.7158C16.5356 22.0006 16.3682 21.9093 16.2744 21.7598C16.1817 21.6093 16.0808 21.4637 15.9727 21.3232C15.8071 21.1071 15.8478 20.802 16.0645 20.6338C16.8948 19.9861 17.9281 19.6332 18.9932 19.6338ZM2.50879 11.4053C4.02786 10.7939 5.77675 11.1315 6.93945 12.2607C8.10193 13.39 8.44971 15.0882 7.82031 16.5635C7.19087 18.0386 5.70849 19.0002 4.06445 19C1.82117 18.9972 0.00283663 17.2315 0 15.0527C-0.000314971 13.4559 0.989947 12.0166 2.50879 11.4053ZM15.2666 13.3906C16.061 11.6877 17.972 10.7543 19.8535 11.1494C21.7349 11.5447 23.0773 13.1617 23.0762 15.0312C23.0762 16.5438 23.4611 17.0498 23.6455 17.2383L23.6943 17.2861C24.0985 17.6742 24.1024 18.3073 23.7031 18.7002C23.3029 19.0942 22.651 19.0985 22.2461 18.7109C22.0291 18.5021 21.8414 18.2665 21.6865 18.0107C20.2402 19.2443 18.1032 19.3307 16.5566 18.2178C15.01 17.1046 14.4723 15.0936 15.2666 13.3906ZM2.51562 14.373C2.44694 14.3339 2.3631 14.3279 2.28906 14.3564C2.21516 14.385 2.15905 14.4454 2.13672 14.5195C2.08539 14.6929 2.05941 14.8723 2.05957 15.0527C2.05548 16.0858 2.88255 16.9423 3.94434 17.0039C5.00605 17.0655 5.93293 16.3112 6.05566 15.2852C6.0649 15.2084 6.03704 15.1315 5.98047 15.0771C5.92373 15.0228 5.84364 14.9968 5.76465 15.0068C5.53652 15.0378 5.30652 15.0531 5.07617 15.0527C4.17519 15.0542 3.29053 14.8195 2.51562 14.373ZM18.9932 14.0977C18.9125 14.0978 18.8369 14.1348 18.7881 14.1973C18.391 14.6791 17.8262 15.0039 17.2002 15.1104C17.0654 15.1403 16.9783 15.2684 17.0039 15.4004C17.1859 16.3279 18.021 16.9992 18.9932 17C19.9653 16.999 20.8 16.3277 20.9824 15.4004C21.0074 15.2682 20.9211 15.1403 20.7861 15.1104C20.1606 15.0035 19.5962 14.6788 19.1992 14.1973C19.1504 14.1347 19.074 14.0977 18.9932 14.0977ZM12.0439 9C12.47 9.00073 12.8149 9.33612 12.8154 9.75V13.75C12.8154 14.3023 12.3548 14.75 11.7861 14.75C11.2175 14.75 10.7568 14.3023 10.7568 13.75V9.75C10.758 9.33639 11.1025 9.00134 11.5283 9H12.0439ZM11.7861 0C17.6015 0 22.3817 3.54959 22.9336 8.10059C22.9543 8.28323 22.8705 8.46198 22.7148 8.56641C22.5589 8.67084 22.3561 8.68441 22.1875 8.60059L21.6729 8.3418C20.0116 7.51331 18.0185 7.62361 16.4648 8.62988L16.1416 8.83887C15.9882 8.93792 15.7919 8.94993 15.627 8.87012L14.082 8.11816C12.6325 7.41409 10.9261 7.41407 9.47656 8.11816L7.93262 8.87012C7.76775 8.95001 7.57145 8.93783 7.41797 8.83887L7.09375 8.62988C5.54024 7.62386 3.54778 7.51359 1.88672 8.3418L1.37109 8.60059C1.20261 8.68421 1.00054 8.67071 0.844727 8.56641C0.688883 8.46202 0.604351 8.28333 0.625 8.10059C1.18924 3.5496 5.97081 2.36697e-05 11.7861 0Z" fill="#404040"/>
</g>
<defs>
<clipPath id="clip0_684_415">
<rect width="24" height="24" fill="white"/>
</clipPath>
</defs>
</svg>
