<svg width="24" height="24" viewBox="0 0 24 24" fill="none" xmlns="http://www.w3.org/2000/svg">
<g clip-path="url(#clip0_613_492)">
<path d="M23.5215 10C23.7857 10.0002 24 10.2323 24 10.5186V15.7041C24.0031 15.9169 23.8857 16.1101 23.7041 16.1914C23.5224 16.2726 23.3132 16.2255 23.1768 16.0723L21.7773 14.5557C21.6862 14.4577 21.5399 14.4547 21.4453 14.5488L16.6133 19.374L16.4854 19.4922C15.7382 20.1213 14.6807 20.1246 13.9277 19.4785L11.1514 17.0684C11.0599 16.9896 10.9291 16.993 10.8418 17.0771L3.99219 23.6729C3.67241 23.9803 3.22507 24.0798 2.81934 23.9336C2.41356 23.7873 2.11037 23.4177 2.02441 22.9639C1.93857 22.5102 2.08259 22.0409 2.40234 21.7334L9.40527 14.9922L9.61426 14.791C10.3646 14.0716 11.4842 14.0409 12.2676 14.7178L15.0439 17.1211C15.1362 17.2009 15.2689 17.1954 15.3555 17.1084L19.7432 12.7266C19.7908 12.6785 19.819 12.6115 19.8203 12.541C19.8216 12.4705 19.7959 12.4025 19.75 12.3525L18.3955 10.8857C18.2583 10.7375 18.2169 10.5143 18.291 10.3203C18.3653 10.1263 18.5405 9.99963 18.7344 10H23.5215ZM7 0C10.864 0.00475667 13.9952 3.13606 14 7C14 10.866 10.866 14 7 14C3.13401 14 0 10.866 0 7C7.65366e-05 3.13409 3.13406 0 7 0ZM7.00391 1.61035C6.55802 1.61057 6.19629 1.97203 6.19629 2.41797V2.79492C6.20234 2.90169 6.12543 2.99481 6.01953 3.00977C5.03414 3.19414 4.28566 4.00307 4.18555 4.99902C4.08545 5.99501 4.65812 6.93635 5.58887 7.30469L7.81055 8.19922C8.09324 8.31326 8.25578 8.61083 8.19824 8.91016C8.14052 9.20952 7.87908 9.42685 7.57422 9.42773H5.38477C4.93869 9.42773 4.57715 9.78928 4.57715 10.2354C4.57724 10.6814 4.93875 11.043 5.38477 11.043H6.01562C6.11256 11.0464 6.19016 11.1247 6.19238 11.2217V11.5811C6.19238 12.0271 6.55392 12.3887 7 12.3887C7.44607 12.3887 7.80762 12.0271 7.80762 11.5811V11.2002C7.79587 11.1016 7.85889 11.0091 7.95508 10.9844C8.95073 10.8221 9.71488 10.0139 9.82129 9.01074C9.9276 8.0077 9.35043 7.05704 8.41113 6.68945L6.18945 5.80078C5.90665 5.68668 5.74402 5.38734 5.80176 5.08789C5.85965 4.78875 6.12106 4.57216 6.42578 4.57129H8.61523C9.06131 4.57129 9.42285 4.20975 9.42285 3.76367C9.42269 3.31774 9.06121 2.95605 8.61523 2.95605H7.99414C7.89574 2.95496 7.81497 2.87666 7.81152 2.77832V2.41797C7.81152 1.9719 7.44998 1.61035 7.00391 1.61035Z" fill="#404040"/>
</g>
<defs>
<clipPath id="clip0_613_492">
<rect width="24" height="24" fill="white"/>
</clipPath>
</defs>
</svg>
