<svg width="24" height="24" viewBox="0 0 24 24" fill="none" xmlns="http://www.w3.org/2000/svg">
<path fill-rule="evenodd" clip-rule="evenodd" d="M21.333 7.5C21.7 7.5 22 7.70809 22 7.96509V20.0359C21.9897 20.3019 21.7661 20.5096 21.5 20.5H18.5C18.2339 20.5096 18.0103 20.3019 18 20.0359V7.96509C18 7.70809 18.3 7.5 18.667 7.5H21.333ZM5.83301 11.5C6.20001 11.5 6.5 11.724 6.5 12V20C6.5 20.2761 6.27614 20.5 6 20.5H3C2.72386 20.5 2.5 20.2761 2.5 20V12C2.5 11.724 2.79799 11.5 3.16699 11.5H5.83301ZM13.833 14.5C14.2 14.5 14.5 14.724 14.5 15V20C14.5 20.2761 14.2761 20.5 14 20.5H11C10.7239 20.5 10.5 20.2761 10.5 20V15C10.5 14.724 10.798 14.5 11.167 14.5H13.833ZM20.5 8.04657e-07C20.7761 8.04657e-07 21 0.223861 21 0.500001V4.5C21 4.70234 20.878 4.88462 20.691 4.96192L20.6292 4.98316C20.5871 4.99448 20.5437 5.00018 20.5 5L20.4213 4.9939C20.3177 4.97758 20.2212 4.92897 20.146 4.854L18.78 3.48706C18.6825 3.3898 18.5246 3.3898 18.427 3.48706L14.414 7.5C13.633 8.28077 12.367 8.28077 11.586 7.5L9.67676 5.59082L9.62317 5.55005C9.5277 5.49593 9.40425 5.50961 9.323 5.59107L5.70697 9.20703C5.69892 9.21537 5.69077 9.22364 5.68243 9.23169C5.28518 9.61537 4.65211 9.60428 4.26843 9.20703C3.88475 8.80978 3.89578 8.17665 4.29303 7.79297L8.086 4C8.867 3.21924 10.133 3.21924 10.914 4L12.823 5.90894L12.8768 5.94995C12.9723 6.00407 13.0957 5.9904 13.177 5.90894L17.013 2.073C17.1103 1.97543 17.1103 1.81754 17.013 1.71997L16.146 0.854005C16.0517 0.759985 15.9988 0.632154 15.9991 0.499024C15.9996 0.222874 16.2239 -0.000489195 16.5 8.04657e-07H20.5ZM23 22H1C0.447715 22 0 22.4477 0 23C0 23.5523 0.447715 24 1 24H23C23.5523 24 24 23.5523 24 23C24 22.4477 23.5523 22 23 22Z" fill="#404040"/>
</svg>
