<svg width="24" height="24" viewBox="0 0 24 24" fill="none" xmlns="http://www.w3.org/2000/svg">
<g clip-path="url(#clip0_267_122)">
<path d="M19.8857 0C20.5366 0 21.1608 0.25855 21.621 0.718764C22.0812 1.17898 22.3398 1.80318 22.3398 2.45405L22.339 16.101L22.3663 16.1017C23.2725 16.1017 24.006 16.8395 24 17.7457C23.9878 19.5294 23.964 20.8939 23.932 21.8975L23.9065 22.5834C23.8672 23.4892 23.2854 24.2007 22.4011 24.2652C22.2251 24.278 22.0342 24.2847 21.8273 24.2847C21.6205 24.2847 21.4295 24.278 21.2536 24.2652C20.3693 24.2007 19.7875 23.4893 19.7482 22.5834C19.7349 22.276 19.7225 21.9174 19.7112 21.5038L19.6861 20.3889L18.6347 20.4139C17.6148 20.4338 16.3721 20.4485 14.8838 20.4566L11.3287 20.4636C8.82096 20.4608 6.85847 20.4429 5.37114 20.4138L4.32154 20.3889L4.31649 20.6701C4.30771 21.1049 4.29789 21.4933 4.28718 21.8382L4.25987 22.5838C4.22055 23.4895 3.63876 24.2007 2.75448 24.2652C2.57857 24.278 2.38755 24.2847 2.18074 24.2847C1.97392 24.2847 1.7829 24.278 1.60696 24.2652C0.722714 24.2007 0.140925 23.4895 0.101605 22.5838C0.0511828 21.422 0.0157666 19.6095 0.0039194 17.0065L0 14.3766C0.00375265 11.5068 0.0325031 9.45026 0.0776883 8.06777L0.101611 7.43204C0.140922 6.52624 0.722712 5.81512 1.60699 5.75061C1.7829 5.73778 1.97392 5.7311 2.18074 5.7311C2.38755 5.7311 2.57857 5.73778 2.75452 5.75061C3.63876 5.81512 4.22055 6.52624 4.25987 7.43204C4.31449 8.69055 4.35151 10.7128 4.36002 13.6763L4.35996 16.175L4.5258 16.1709C5.48505 16.1462 6.69648 16.1271 8.1887 16.1153L11.0095 16.1025L21.252 16.101L21.2524 2.45405C21.2524 2.09158 21.1084 1.74397 20.8521 1.48768C20.5958 1.23137 20.2482 1.08737 19.8857 1.08737H18.5189L18.5191 1.49887C18.5191 1.89636 18.3611 2.27759 18.0801 2.5587C17.9319 2.70695 17.7558 2.82094 17.5641 2.89558L17.563 4.775L17.9754 4.77592C18.7545 4.77592 19.3948 5.37036 19.4674 6.13044L19.4743 6.27479V9.14034C19.4743 9.96816 18.8032 10.6392 17.9754 10.6392H16.065C15.2372 10.6392 14.5661 9.96816 14.5661 9.14034V6.27479C14.5661 5.44699 15.2372 4.77592 16.065 4.77592L16.476 4.775L16.4761 2.89549C16.2845 2.82085 16.1085 2.70689 15.9603 2.55869C15.6793 2.27759 15.5213 1.89636 15.5213 1.49887C15.5213 1.1986 15.7647 0.955184 16.065 0.955184C16.3403 0.955184 16.5677 1.15972 16.6037 1.4251L16.6087 1.49887C16.6087 1.60797 16.6521 1.71267 16.7293 1.78988C16.8064 1.86701 16.9111 1.91037 17.0202 1.91037C17.1293 1.91037 17.234 1.86701 17.3111 1.78989C17.3883 1.71267 17.4317 1.60797 17.4317 1.49887V0.543687C17.4317 0.243417 17.6751 0 17.9754 0H19.8857ZM2.18074 6.81848C1.99981 6.81848 1.83512 6.82424 1.68608 6.8351C1.39557 6.8563 1.20488 7.08938 1.18796 7.47919C1.13819 8.62589 1.10304 10.4258 1.09127 13.0158L1.08737 15.6378C1.09111 18.4956 1.11968 20.5399 1.16433 21.9082L1.18796 22.5366C1.20488 22.9264 1.39557 23.1595 1.68604 23.1807C1.83512 23.1916 1.99981 23.1973 2.18074 23.1973C2.36167 23.1973 2.52636 23.1916 2.6754 23.1807C2.96591 23.1595 3.1566 22.9264 3.17351 22.5366C3.19243 22.1009 3.2095 21.5587 3.22404 20.8992L3.24386 19.8206C3.24848 19.5163 3.50191 19.2751 3.80603 19.2855C5.24573 19.3346 7.45486 19.3674 10.5894 19.3749L12.6806 19.3762C15.4526 19.3732 17.5541 19.3516 19.0801 19.3168L20.2021 19.2856C20.5062 19.2752 20.7596 19.5164 20.7642 19.8207C20.7746 20.5029 20.7872 21.0911 20.8015 21.5924L20.8346 22.5363C20.8515 22.9262 21.0423 23.1595 21.3327 23.1807C21.4817 23.1916 21.6464 23.1973 21.8273 23.1973C22.0083 23.1973 22.1729 23.1916 22.322 23.1807C22.6124 23.1595 22.8032 22.9262 22.8202 22.5363C22.8489 21.8742 22.873 20.9825 22.8904 19.8305L22.9126 17.7384C22.9146 17.4358 22.6693 17.189 22.3663 17.189L22.1544 17.1907C22.0588 17.2746 21.9334 17.3255 21.7961 17.3255C21.6586 17.3255 21.5331 17.2745 21.4374 17.1903L11.7497 17.1891L9.93452 17.1927C7.62421 17.2013 5.85554 17.2243 4.55676 17.2579L3.8333 17.2792C3.52519 17.2896 3.27008 17.042 3.27129 16.7337L3.2741 14.378C3.27021 11.4011 3.23937 9.3069 3.19148 7.94009L3.17351 7.47919C3.1566 7.08938 2.96591 6.8563 2.67543 6.8351C2.52636 6.82424 2.36167 6.81848 2.18074 6.81848ZM7.93779 8.12159C8.3981 8.37261 8.73984 8.79624 8.88785 9.29934L9.87084 12.6428C9.94394 12.8921 9.96719 13.1533 9.93925 13.4116C9.91132 13.6698 9.83276 13.92 9.70806 14.1479C9.58336 14.3757 9.41497 14.5768 9.2125 14.7395C9.01005 14.9023 8.7775 15.0235 8.53181 15.0952C8.35097 15.1494 8.16322 15.177 7.97366 15.1773C7.54675 15.1773 7.1313 15.039 6.78948 14.7832C6.44769 14.5274 6.19792 14.1678 6.07754 13.7582L5.09469 10.4152C4.9467 9.91218 5.0046 9.37099 5.25564 8.91068C5.50668 8.45036 5.93029 8.10863 6.43328 7.96064C6.93629 7.81266 7.47748 7.87055 7.93779 8.12159ZM6.74018 9.00381C6.51385 9.0704 6.32324 9.22417 6.21027 9.4313C6.09731 9.63843 6.07126 9.88194 6.13788 10.1084L7.12077 13.4516C7.17493 13.6358 7.28729 13.7976 7.44103 13.9126C7.59481 14.0277 7.78167 14.0899 7.9729 14.0899C8.05653 14.0898 8.13968 14.0776 8.22341 14.0525C8.33558 14.0197 8.4402 13.9652 8.53126 13.892C8.62234 13.8188 8.69809 13.7284 8.75419 13.6259C8.81028 13.5234 8.84562 13.4108 8.85818 13.2946C8.87075 13.1785 8.86029 13.061 8.82751 12.9492L7.84466 9.60614C7.77807 9.3798 7.6243 9.18919 7.41716 9.07623C7.21004 8.96327 6.96652 8.93722 6.74018 9.00381ZM17.9754 5.86329H16.065C15.8377 5.86329 15.6535 6.04752 15.6535 6.27479V9.14034C15.6535 9.36762 15.8377 9.55184 16.065 9.55184H17.9754C18.2027 9.55184 18.3869 9.36762 18.3869 9.14034L18.386 8.728L16.5426 8.72884C16.2423 8.72884 15.9989 8.48543 15.9989 8.18516C15.9989 7.88489 16.2423 7.64147 16.5426 7.64147L18.386 7.641L18.3869 6.27479C18.3869 6.07593 18.2458 5.91002 18.0583 5.87165L17.9754 5.86329Z" fill="#212529"/>
</g>
<defs>
<clipPath id="clip0_267_122">
<rect width="24" height="24" fill="white"/>
</clipPath>
</defs>
</svg>
