<svg width="24" height="24" viewBox="0 0 24 24" fill="none" xmlns="http://www.w3.org/2000/svg">
<path fill-rule="evenodd" clip-rule="evenodd" d="M12 0C16.2422 0 19.2421 0.237607 21.2228 0.627469L21.5935 0.704804C22.7241 0.954837 23.4824 1.89545 23.6216 3.09644C23.8405 4.98346 23.9849 7.10802 23.9989 9.36178L24 9.70746C24 15.1628 21.0905 20.1434 16.3767 22.5695C14.5899 23.489 13.1152 24 12 24C10.8848 24 9.41012 23.489 7.62329 22.5694C2.99668 20.1883 0.103489 15.3436 0.00263144 9.9894L0 9.70746C0 7.33369 0.14731 5.08823 0.378342 3.09644C0.517641 1.89545 1.27587 0.954837 2.40647 0.704804C4.32198 0.281188 7.32052 0.0143718 11.6545 0.000547099L12 0ZM12.0009 1.07463L11.657 1.07517C7.395 1.08877 4.47004 1.34903 2.63852 1.75408C1.98051 1.8996 1.53487 2.45243 1.44581 3.22025C1.21928 5.17329 1.0746 7.37818 1.0746 9.7024L1.07714 9.97421C1.17062 14.9357 3.84701 19.4173 8.11505 21.6139C9.76061 22.4608 11.1013 22.9254 12 22.9254C12.8987 22.9254 14.2394 22.4608 15.8849 21.6139C20.2336 19.3759 22.9254 14.7679 22.9254 9.70914L22.9243 9.36679C22.9106 7.15665 22.7688 5.07052 22.5542 3.22024C22.4651 2.45242 22.0195 1.8996 21.3615 1.75408C19.6487 1.3753 16.9859 1.12368 13.1778 1.08106L12.0009 1.07463ZM12.1128 7.38053C14.6747 5.09366 18.5747 5.72817 19.2726 8.93499C19.6061 10.3719 19.3702 11.8962 18.597 13.0783C17.8941 14.1529 17.0473 14.9785 15.436 16.2703L13.9761 17.4252C13.816 17.5535 13.6717 17.6708 13.536 17.7833L13.2737 18.0035C12.5434 18.6254 11.4509 18.6254 10.7206 18.0035C10.508 17.8224 10.285 17.639 10.0182 17.4252L8.79365 16.458C7.028 15.0565 6.13328 14.2034 5.38884 13.0649C4.63913 11.845 4.39603 10.3386 4.72172 8.935L4.75978 8.77573C5.55605 5.7068 9.36459 5.13376 11.8802 7.37931L11.9971 7.48808L12.1128 7.38053ZM18.175 9.18177C17.6813 6.91329 14.8429 6.4515 12.8606 8.22103C12.7938 8.28021 12.7257 8.34794 12.6309 8.44806L11.9972 9.10963L11.5925 8.69043L11.2378 8.31898L11.1324 8.21979C9.15144 6.4515 6.31302 6.91329 5.81929 9.18177L5.77435 9.39947C5.58446 10.4547 5.78947 11.5682 6.33882 12.4625C6.96075 13.4133 7.74822 14.1794 9.27789 15.4052L10.5544 16.4137C10.7885 16.5999 10.9904 16.7632 11.1778 16.9184L11.45 17.147C11.7599 17.4109 12.2344 17.4109 12.5443 17.147C12.8543 16.883 13.182 16.6171 13.6219 16.2695L14.7163 15.4053C16.2461 14.1794 17.0336 13.4133 17.6555 12.4624C18.2555 11.5451 18.4427 10.3355 18.175 9.18177Z" fill="#212529"/>
</svg>
