<svg width="24" height="24" viewBox="0 0 24 24" fill="none" xmlns="http://www.w3.org/2000/svg">
<path d="M10.9734 0C9.30903 0 7.95979 1.35617 7.95979 3.02909C7.95979 4.70201 9.30903 6.05817 10.9734 6.05817C12.6378 6.05817 13.987 4.70201 13.987 3.02909C13.987 1.35616 12.6378 0 10.9734 0ZM10.9734 1.07463C12.0473 1.07463 12.9179 1.94966 12.9179 3.02909C12.9179 4.10851 12.0473 4.98354 10.9734 4.98354C9.8995 4.98354 9.02893 4.10851 9.02893 3.02909C9.02893 1.94967 9.8995 1.07463 10.9734 1.07463ZM8.20086 11.6182C8.28984 11.9012 8.13377 12.2031 7.85226 12.2925C7.01747 12.5577 6.25905 13.0225 5.64203 13.647C5.02514 14.2712 4.56797 15.0368 4.30983 15.8777C4.0517 16.7186 4.00029 17.6099 4.15999 18.4752C4.31969 19.3404 4.68575 20.1539 5.22675 20.8458C5.76785 21.5377 6.46776 22.0875 7.26642 22.4478C8.06521 22.8083 8.93898 22.9687 9.81284 22.9153C10.6868 22.862 11.5348 22.5964 12.2842 22.1413C13.0336 21.6863 13.6621 21.0554 14.1158 20.3027C14.2688 20.0489 14.5975 19.9678 14.85 20.1215C15.1025 20.2753 15.1832 20.6057 15.0302 20.8595C14.487 21.7608 13.7344 22.5163 12.837 23.0611C11.9396 23.606 10.9242 23.9241 9.87771 23.988C8.83129 24.0519 7.78499 23.8598 6.82855 23.4282C5.87221 22.9967 5.03411 22.3384 4.38617 21.5099C3.73834 20.6814 3.30001 19.7073 3.10878 18.6712C2.91755 17.6351 2.97912 16.5679 3.28821 15.5609C3.59731 14.5539 4.14474 13.6372 4.88346 12.8897C5.62226 12.142 6.53041 11.5854 7.53003 11.2679C7.81154 11.1784 8.11188 11.3353 8.20086 11.6182ZM10.9734 6.97695C11.5097 6.97695 12.024 7.19107 12.4032 7.57222C12.7824 7.95336 12.9954 8.4703 12.9954 9.00932L12.9949 9.96656L15.9315 9.96706C16.419 9.96706 16.8884 10.144 17.2546 10.4626L17.3612 10.5623C17.7405 10.9435 17.9536 11.4604 17.9536 11.9994C17.9536 12.5385 17.7405 13.0555 17.3613 13.4365C16.9822 13.8177 16.4678 14.0318 15.9315 14.0318L12.9949 14.0315V14.95L15.3998 14.9507C16.018 14.9435 16.6286 15.0811 17.1834 15.3513L17.3662 15.4462C17.9681 15.779 18.4743 16.2626 18.8343 16.848L20.7409 19.9193C20.9954 20.3746 21.0657 20.911 20.9372 21.4171C20.8087 21.9233 20.4913 22.3602 20.0509 22.6373C19.6104 22.9145 19.0808 23.0105 18.5716 22.9055C18.0626 22.8006 17.6132 22.5026 17.3033 22.0528L15.4069 19.0149L10.9734 19.0154C10.4859 19.0154 10.0166 18.8384 9.65032 18.5199L9.54361 18.4201C9.16444 18.039 8.9514 17.522 8.9514 16.983V9.00932C8.9514 8.4703 9.16443 7.95336 9.54363 7.57222C9.92283 7.19107 10.4371 6.97695 10.9734 6.97695ZM10.9734 8.05157C10.7207 8.05157 10.4783 8.15248 10.2996 8.33209C10.1209 8.51171 10.0205 8.75531 10.0205 9.00932V16.983C10.0205 17.237 10.121 17.4806 10.2996 17.6602C10.4783 17.8398 10.7207 17.9408 10.9734 17.9408H15.4369C15.6137 17.9412 15.7873 17.9878 15.9402 18.0757C16.0937 18.1637 16.2217 18.2903 16.305 18.4317L18.1953 21.4609C18.3349 21.663 18.5466 21.8034 18.7864 21.8528C19.0264 21.9023 19.276 21.857 19.4836 21.7264C19.6911 21.5959 19.8407 21.39 19.9013 21.1514C19.9618 20.9129 19.9287 20.6602 19.8213 20.467L17.9261 17.415C17.6618 16.9852 17.2914 16.6313 16.8509 16.3879C16.4104 16.1443 15.9147 16.0194 15.406 16.0253H12.9566C12.6834 16.0253 12.4214 15.9162 12.228 15.7219C12.0348 15.5276 11.9263 15.2642 11.9263 14.9895V13.4945C11.9263 13.1977 12.1656 12.9572 12.4608 12.9572H15.9315C16.1843 12.9572 16.4266 12.8563 16.6053 12.6766C16.784 12.497 16.8844 12.2534 16.8844 11.9994C16.8844 11.7455 16.784 11.5019 16.6052 11.3222C16.4266 11.1426 16.1842 11.0417 15.9315 11.0417H12.4608C12.1656 11.0417 11.9263 10.8011 11.9263 10.5044V9.00932C11.9263 8.75531 11.8259 8.51171 11.6472 8.33209C11.4685 8.15248 11.2261 8.05157 10.9734 8.05157Z" fill="#212529"/>
</svg>
