<svg width="24" height="24" viewBox="0 0 24 24" fill="none" xmlns="http://www.w3.org/2000/svg">
<path d="M21.7881 4C23.0097 4.00019 24 4.90273 24 6.01562V17.9844C24 19.0973 23.0097 19.9998 21.7881 20H2.21191C0.990273 19.9998 0 19.0973 0 17.9844V6.01562C0 4.90273 0.990273 4.00019 2.21191 4H21.7881ZM14.6133 11.8623C13.1321 12.9003 11.0916 12.9404 9.56738 11.9824L9.38672 11.8623L1.47461 6.31934V17.9844C1.47461 18.3245 1.75236 18.6059 2.1123 18.6504L2.21191 18.6562H21.7881C22.1952 18.6561 22.5254 18.3553 22.5254 17.9844V6.31836L14.6133 11.8623ZM10.2861 10.7969C11.2432 11.4676 12.5561 11.5033 13.5508 10.9033L13.7139 10.7969L21.499 5.34277H2.50098L10.2861 10.7969Z" fill="#404040"/>
</svg>
