<svg width="24" height="24" viewBox="0 0 24 24" fill="none" xmlns="http://www.w3.org/2000/svg">
<path d="M23.2696 14.3347L21.9443 13.0308L19.8157 9.2423C19.5652 8.80082 19.1061 8.52361 18.6157 8.49281H18.5009H15.2035V7.08624C15.2035 6.83984 15.0365 6.6345 14.7965 6.58316H14.7235L13.607 6.47023C12.3548 6.35729 11.2487 6.28542 10.2783 6.22382V5.44353C10.2783 4.09856 9.16174 3 7.79478 3C6.42783 3 5.3113 4.09856 5.3113 5.44353V6.21355C4.20522 6.28542 2.93217 6.39836 1.4713 6.56263C0.907826 6.56263 0.45913 7.01437 0.45913 7.49692L0.354783 8.35934C0.114783 10.3306 0 11.9938 0 13.3491V13.8624C0.0313043 15.4641 0.187826 17.5585 0.45913 20.0945C0.469565 20.6386 0.918261 21.0698 1.4713 21.0801H2.96348C3.20348 22.1786 4.19478 23 5.38435 23C6.57391 23 7.56522 22.1786 7.80522 21.0801H16.6539C16.8939 22.1786 17.8852 23 19.0748 23C20.2643 23 21.2557 22.1786 21.4957 21.0801H22.9983C23.5513 21.0698 23.9896 20.6283 24 20.0842V16.0698C24 15.423 23.7391 14.7967 23.2696 14.3347ZM18.5009 9.51951C18.6678 9.51951 18.8139 9.60164 18.8974 9.74538L20.6296 12.8255H15.2035V9.51951H18.5009ZM7.68 4.02669H7.78435C8.57739 4.02669 9.21391 4.65298 9.21391 5.43326V5.87474H6.35478V5.43326C6.35478 4.69405 6.93913 4.0883 7.68 4.02669ZM14.1391 20.0431H7.79478C7.55478 18.9446 6.56348 18.1232 5.37391 18.1232C4.18435 18.1232 3.19304 18.9446 2.95304 20.0431H1.50261V20.0226L1.37739 18.8419C1.15826 16.5626 1.04348 14.7248 1.04348 13.3388C1.04348 11.9528 1.15826 10.3717 1.39826 8.36961L1.49217 7.57905H1.51304L2.64 7.45585C4.57043 7.26078 6.12522 7.14784 7.29391 7.13758H7.51304C8.89043 7.13758 10.8939 7.25051 13.5026 7.47639L14.1287 7.52772V8.97536V20.0021L14.1391 20.0431ZM21.4957 20.0431C21.2557 18.9446 20.2643 18.1232 19.0748 18.1232C17.8852 18.1232 16.8939 18.9446 16.6539 20.0431H15.2035V13.8624H21.3078L22.5287 15.0637C22.8 15.3306 22.9461 15.6899 22.9461 16.0595V20.0329H21.4957V20.0431Z" fill="black"/>
<path d="M8.58818 9.38647C6.42661 9.38647 4.67432 11.1559 4.67432 13.3385C4.67432 15.5211 6.42661 17.2905 8.58818 17.2905C9.51391 17.2905 10.3914 16.9642 11.0888 16.3788C11.6675 15.893 11.2353 15.0687 10.598 15.0083L10.5236 15.0048C9.6123 15.0048 8.87349 14.2588 8.87349 13.3385C8.87349 12.4566 9.55201 11.7348 10.4107 11.6761L10.5236 11.6723C11.2006 11.6723 11.6898 10.8027 11.0889 10.2983C10.3914 9.71276 9.51394 9.38647 8.58818 9.38647ZM8.58818 10.4509L8.75666 10.4558C9.09185 10.4755 9.41571 10.5536 9.71672 10.6842L9.77909 10.7134L9.71948 10.7307C8.61865 11.0764 7.81936 12.1132 7.81936 13.3385L7.82288 13.4791C7.88129 14.6426 8.66099 15.614 9.71948 15.9464L9.77839 15.9631L9.7167 15.9928C9.36552 16.1452 8.98325 16.2261 8.58818 16.2261C7.00879 16.2261 5.72844 14.9333 5.72844 13.3385C5.72844 11.7437 7.00879 10.4509 8.58818 10.4509Z" fill="black"/>
</svg>
