<svg width="24" height="24" viewBox="0 0 24 24" fill="none" xmlns="http://www.w3.org/2000/svg">
<path fill-rule="evenodd" clip-rule="evenodd" d="M7.79843 2C6.42736 2 5.31589 3.11147 5.31589 4.48254L5.31574 5.26299C4.2115 5.33651 2.92752 5.45782 1.47368 5.62619C0.912596 5.62619 0.457748 6.08104 0.462082 6.57467L0.353846 7.45028C0.118099 9.44905 0 11.1377 0 12.5183L0.00460815 13.0443C0.0322475 14.6764 0.184134 16.7958 0.457848 19.3727C0.468548 19.9236 0.91256 20.3676 1.47368 20.3784L2.95819 20.3786C3.19993 21.4964 4.19448 22.3339 5.38463 22.3339C6.57479 22.3339 7.56934 21.4964 7.81108 20.3786H16.6465C16.8883 21.4964 17.8828 22.3339 19.073 22.3339C20.2631 22.3339 21.2577 21.4964 21.4994 20.3786L22.9942 20.3784C23.545 20.3676 23.9889 19.9238 24 19.3625V15.2856C24.0003 14.624 23.7367 13.9895 23.2686 13.5242L21.9431 12.1983L19.816 8.34913C19.5665 7.90532 19.1113 7.6201 18.612 7.58523L18.4961 7.58166L15.2009 7.5812L15.2002 6.15325C15.2002 5.906 15.0292 5.69565 14.7946 5.64033L14.7225 5.6285L13.6083 5.52702C12.3614 5.4173 11.2517 5.33347 10.2786 5.27555L10.281 4.48254C10.281 3.11147 9.16949 2 7.79843 2ZM19.073 18.423C19.8619 18.423 20.5014 19.0625 20.5014 19.8514C20.5014 20.6403 19.8619 21.2798 19.073 21.2798C18.2841 21.2798 17.6446 20.6403 17.6446 19.8514C17.6446 19.0625 18.2841 18.423 19.073 18.423ZM5.38463 18.423C6.17352 18.423 6.81305 19.0625 6.81305 19.8514C6.81305 20.6403 6.17352 21.2798 5.38463 21.2798C4.59574 21.2798 3.95622 20.6403 3.95622 19.8514C3.95622 19.0625 4.59574 18.423 5.38463 18.423ZM15.201 13.045H21.299L22.5244 14.2707C22.7943 14.5391 22.9461 14.9042 22.9459 15.2853L22.9466 19.3241L21.4994 19.3242C21.2577 18.2063 20.2631 17.3688 19.073 17.3688C17.8828 17.3688 16.8883 18.2063 16.6465 19.3242L15.201 19.324V13.045ZM7.52917 6.23263C8.90867 6.23263 10.9072 6.34749 13.5205 6.57749L14.1467 6.63389L14.147 19.324L7.81108 19.3242C7.58048 18.2578 6.66485 17.4466 5.54786 17.3741L5.38463 17.3688C4.19448 17.3688 3.19993 18.2063 2.95819 19.3242L1.50639 19.3241L1.50896 19.3072L1.38824 18.1125C1.16539 15.798 1.05412 13.9324 1.05412 12.5183C1.05412 11.1709 1.17162 9.50408 1.41004 7.47375L1.5085 6.66833L1.53362 6.67689L2.65897 6.55354C4.58887 6.35207 6.14144 6.24557 7.3138 6.23373L7.52917 6.23263ZM6.85124 8.08031C6.29016 8.08031 5.83531 8.53516 5.83531 9.09624L5.83568 10.0354L4.89576 10.0358C4.36769 10.0358 3.93371 10.4387 3.88448 10.9539L3.87983 11.0517V13.0072C3.87983 13.5683 4.33468 14.0231 4.89576 14.0231L5.83568 14.0228L5.83531 14.9627C5.83531 15.4908 6.23822 15.9247 6.7534 15.974L6.85124 15.9786H8.80672C9.3678 15.9786 9.82265 15.5238 9.82265 14.9627L9.82308 14.0228L10.7622 14.0231C11.2903 14.0231 11.7242 13.6202 11.7735 13.105L11.7781 13.0072V11.0517C11.7781 10.4906 11.3233 10.0358 10.7622 10.0358L9.82308 10.0354L9.82265 9.09624C9.82265 8.56816 9.41974 8.13419 8.90456 8.08496L8.80672 8.08031H6.85124ZM6.8898 9.13444H8.76895L8.76853 10.5628C8.76853 10.8297 8.96681 11.0502 9.22407 11.0851L9.29559 11.0899L10.724 11.0895V12.9686L9.29559 12.969C9.02876 12.969 8.80824 13.1673 8.77334 13.4245L8.76853 13.4961L8.76895 14.9244H6.8898L6.88943 13.4961C6.88943 13.2292 6.69115 13.0087 6.43389 12.9738L6.36237 12.969L4.93405 12.9686V11.0895L6.36237 11.0899C6.6292 11.0899 6.84972 10.8916 6.88462 10.6344L6.88943 10.5628L6.8898 9.13444ZM15.201 8.635L18.5005 8.63577C18.6647 8.63441 18.8166 8.72247 18.8952 8.86226L20.624 11.991H15.201V8.635ZM7.79843 3.05412C8.58732 3.05412 9.22684 3.69365 9.22684 4.48254V4.93257H6.37016L6.37001 4.48254C6.37001 3.72951 6.95271 3.11257 7.69182 3.05804L7.79843 3.05412Z" fill="#212529"/>
</svg>
