<svg width="24" height="24" viewBox="0 0 24 24" fill="none" xmlns="http://www.w3.org/2000/svg">
<path fill-rule="evenodd" clip-rule="evenodd" d="M15.1509 10.5941L15.1536 10.5919L15.1564 10.5896C16.6289 9.39442 17.4706 8.57486 18.1365 7.53652C18.8597 6.42754 19.057 5.00498 18.7532 3.67816C18.4197 2.13458 17.1961 1.30527 15.8625 1.15221C14.6011 1.00744 13.1971 1.44305 12.0948 2.39424C12.0831 2.40273 12.0736 2.40998 12.0673 2.41491C12.0596 2.42092 12.0531 2.42614 12.0483 2.43007C12.0389 2.43776 12.0313 2.44432 12.0264 2.44859L12.0129 2.4605C11.9996 2.47239 11.9874 2.48392 11.9786 2.4923L11.9716 2.49897C10.8919 1.63374 9.52581 1.19044 8.29386 1.25585C6.93878 1.3278 5.58828 2.05692 5.24048 3.66627L5.18936 3.88942L5.18511 3.91416C4.97305 5.14829 5.21111 6.43986 5.83923 7.49548L5.84903 7.51195L5.85951 7.528C6.53392 8.56017 7.3578 9.37675 8.83725 10.5776L8.83763 10.5779C9.01066 10.7182 10.0699 11.5896 10.5992 12.025L10.6015 12.0269L10.8768 12.2534C11.5125 12.7934 12.4592 12.7905 13.0916 12.2449C13.3007 12.0645 14.1236 11.4108 14.7014 10.9516C14.8853 10.8056 15.0443 10.6793 15.1509 10.5941ZM17.8616 3.87603C18.1194 4.99525 17.9437 6.16262 17.3695 7.04115C16.7836 7.95579 16.0336 8.70194 14.5806 9.88134C14.4825 9.95973 14.333 10.0785 14.1577 10.2178C13.5793 10.6773 12.7196 11.3602 12.4948 11.5542C12.2019 11.8069 11.7566 11.8069 11.4637 11.5542L11.1878 11.3272L11.1875 11.327C10.6611 10.894 9.58926 10.0122 9.41304 9.86931C7.96002 8.68991 7.2218 7.94375 6.62418 7.02912C6.1086 6.16262 5.90939 5.09153 6.08516 4.06858L6.13203 3.86399C6.57908 1.77491 9.44589 1.68932 11.3468 3.16862C11.439 3.24031 11.5288 3.31567 11.616 3.39465L12.0027 3.80382L12.6003 3.16598L12.6303 3.13885C12.8466 2.94525 13.0763 2.77713 13.3142 2.63453C13.3322 2.62378 13.3502 2.61317 13.3682 2.60271C15.1853 1.54835 17.4532 1.96748 17.8616 3.87603ZM20.3126 13.953C21.1396 13.3855 22.2344 13.4661 22.9745 14.149C23.3678 14.4936 23.3345 15.1828 22.91 15.4856L16.7925 20.0929C16.2502 20.5013 15.5824 20.6967 14.9125 20.6424L7.58232 20.0513L6.75383 20.6259L6.83537 20.7502C6.9419 20.9127 6.90019 21.1333 6.74219 21.2429L4.47589 22.8148C4.32381 22.9246 4.09763 22.8791 3.99682 22.7191L0.808995 17.8592C0.702463 17.6967 0.744169 17.4761 0.902168 17.3665L3.16842 15.7946C3.32006 15.6848 3.54683 15.7302 3.64749 15.8903L3.72992 16.016L5.34643 14.8948C7.28668 13.247 10.0039 14.2129 10.5964 14.4538L14.1304 13.544C14.8374 13.362 15.5512 13.7585 15.7908 14.4662C16.0399 15.2017 15.6819 15.9984 14.9758 16.2801L12.8587 17.1245L15.7444 17.0874L20.3126 13.953ZM1.57419 17.7564L4.37606 22.028L6.07017 20.853L3.2683 16.5814L1.57419 17.7564ZM16.3848 19.5204L22.5022 14.9131C22.5837 14.8299 22.5867 14.7683 22.5136 14.6773C22.008 14.2109 21.2605 14.1558 20.6957 14.5434L16.0424 17.7361C15.9869 17.7741 15.9219 17.7949 15.8552 17.7957L10.9575 17.8588H10.9531C10.788 17.8588 10.6458 17.7384 10.6144 17.5714C10.5827 17.4029 10.6727 17.2352 10.8284 17.1731L14.7262 15.6184C15.0839 15.4758 15.2652 15.0722 15.1391 14.6997C15.0176 14.3412 14.6559 14.1403 14.298 14.2325L10.6538 15.1707C10.5795 15.1898 10.5012 15.1829 10.4312 15.1513C10.4016 15.138 7.58592 13.8988 5.77453 15.4517C5.76561 15.4594 5.75619 15.4666 5.74653 15.4733L4.11587 16.6044L6.36783 20.0376L7.29625 19.3937C7.36093 19.3488 7.43847 19.3278 7.51616 19.3341L14.9664 19.9349C15.4721 19.9756 15.9756 19.8285 16.3848 19.5204Z" fill="black"/>
</svg>
