<svg width="24" height="24" viewBox="0 0 24 24" fill="none" xmlns="http://www.w3.org/2000/svg">
<g clip-path="url(#clip0_1_1352)">
<path fill-rule="evenodd" clip-rule="evenodd" d="M17.2056 3.5C20.7481 3.5 22.8291 5.73299 23.4004 10.0256C23.7456 10.1147 24 10.4276 24 10.8V12.1622L23.3802 12.1617L22.1103 21.117L22.0825 21.2171C21.7599 21.9773 21.3779 22.4 20.8656 22.4H16.4376C16.2167 22.4 16.0376 22.2209 16.0376 22C16.0376 21.7791 16.2167 21.6 16.4376 21.6H20.8656C20.9447 21.6 21.1015 21.4353 21.2842 21.0436L21.326 20.949L22.538 12.4H11.45L11.7087 14.5687C11.7315 14.7606 11.6144 14.937 11.4379 14.9955L11.3588 15.0131C11.1394 15.0393 10.9404 14.8826 10.9143 14.6632L10.6162 12.1617L10 12.1622V10.8C10 10.4079 10.2821 10.0817 10.6543 10.0132C11.4724 5.72259 13.6711 3.5 17.2056 3.5ZM14.418 18.1348C14.5914 18.1348 14.7443 18.2407 14.7942 18.3953C15.075 19.2647 15.4761 19.9583 15.9947 20.4803C16.1598 20.6465 16.1248 20.911 15.9213 21.0349C15.2515 21.4427 14.1804 21.6348 12.6946 21.6348C12.5324 21.6348 12.3869 21.542 12.3283 21.4011L11.9066 20.3864L11.4932 21.3991C11.4449 21.5174 11.3354 21.6022 11.2059 21.6272L11.1261 21.6348H-0.00717145C-0.350475 21.6348 -0.528617 21.2536 -0.294624 21.0197C0.275278 20.4499 0.627673 20.0159 0.756182 19.7395C0.878322 19.4768 0.926296 19.0699 0.887883 18.5246C0.873019 18.3136 1.0528 18.1348 1.27988 18.1348H14.418ZM14.1311 18.8665H1.68498L1.68608 18.9397C1.68092 19.3046 1.6329 19.6173 1.53903 19.8791L1.47719 20.0302C1.37317 20.2539 1.1887 20.5193 0.922403 20.8312L0.858054 20.9032H10.8548L11.5365 19.2362C11.6539 18.949 12.0632 18.924 12.2307 19.1626L12.27 19.2342L12.9624 20.9004L13.2794 20.8917C13.9667 20.8633 14.5237 20.7828 14.9479 20.6545L15.0886 20.6078L15.0365 20.5442C14.6768 20.0843 14.3821 19.5435 14.1517 18.9229L14.1311 18.8665ZM7.78379 4C8.26144 4 8.64865 4.38721 8.64865 4.86486L8.64938 14.5767C9.1374 14.643 9.51352 15.0614 9.51352 15.5676L9.51321 15.6717L13.7767 15.6727C14.2881 15.6727 14.7027 16.0873 14.7027 16.5987V17.8348H0.86487V16.5987C0.86487 16.0873 1.27945 15.6727 1.79087 15.6727L6.05321 15.6717L6.05406 15.5676C6.05406 15.0614 6.43018 14.643 6.9182 14.5767L6.91892 4.86486C6.91892 4.38721 7.30614 4 7.78379 4ZM13.7767 16.4727H1.79087C1.72128 16.4727 1.66487 16.5291 1.66487 16.5987V17.0347H13.9019L13.9027 16.5987C13.9027 16.543 13.8666 16.4958 13.8165 16.4791L13.7767 16.4727ZM8.51352 15.3676H7.05406C6.98042 15.3676 6.91608 15.4074 6.88136 15.4666L6.86806 15.4966H8.69906L8.68621 15.4666C8.66018 15.4222 8.61748 15.3887 8.56669 15.3747L8.51352 15.3676ZM7.78379 4.8C7.74796 4.8 7.71892 4.82904 7.71892 4.86486V14.2H7.84792L7.84865 4.86486C7.84865 4.84098 7.83575 4.82011 7.81653 4.80885L7.78379 4.8ZM2 9.16853C2.08432 9.16853 2.15813 9.22425 2.17993 9.30439C2.23966 9.52401 2.30329 9.6514 2.39421 9.74405C2.4862 9.83777 2.62425 9.91445 2.87188 9.99449C2.94832 10.0192 3 10.0894 3 10.1685C3 10.2477 2.94832 10.3179 2.87188 10.3426C2.62425 10.4226 2.4862 10.4993 2.39421 10.593C2.30329 10.6857 2.23966 10.813 2.17993 11.0327C2.15813 11.1128 2.08432 11.1685 2 11.1685C1.91567 11.1685 1.84186 11.1128 1.82005 11.0327C1.76032 10.813 1.6967 10.6857 1.60578 10.593C1.51379 10.4993 1.37573 10.4226 1.1281 10.3426C1.05166 10.3179 1 10.2477 1 10.1685C1 10.0894 1.05166 10.0192 1.1281 9.99449C1.37573 9.91445 1.51379 9.83777 1.60578 9.74405C1.6967 9.6514 1.76032 9.52401 1.82005 9.30439C1.84186 9.22425 1.91567 9.16853 2 9.16853ZM17.2056 4.5C14.2592 4.5 12.4298 6.28483 11.6755 9.99917L22.3884 9.99926C21.8594 6.27821 20.1471 4.5 17.2056 4.5ZM4.17466 6.12402C4.24054 6.12402 4.29812 6.16691 4.31481 6.22841C4.37864 6.46355 4.44864 6.60798 4.5534 6.71496C4.6587 6.82248 4.81296 6.90634 5.07589 6.99149C5.1349 7.0106 5.17466 7.06395 5.17466 7.12402C5.17466 7.18409 5.1349 7.23745 5.07589 7.25656C4.81296 7.34171 4.6587 7.42557 4.5534 7.53309C4.44864 7.64007 4.37864 7.7845 4.31481 8.01965C4.29812 8.08115 4.24054 8.12402 4.17466 8.12402C4.10878 8.12402 4.05119 8.08115 4.0345 8.01965C3.9707 7.7845 3.90067 7.64007 3.79591 7.53309C3.69064 7.42557 3.53635 7.34171 3.27344 7.25656C3.21443 7.23745 3.17466 7.18409 3.17466 7.12402C3.17466 7.06395 3.21443 7.0106 3.27344 6.99149C3.53635 6.90634 3.69064 6.82248 3.79591 6.71496C3.90067 6.60798 3.9707 6.46355 4.0345 6.22841C4.05119 6.16691 4.10878 6.12402 4.17466 6.12402ZM22.1079 0.773697C22.1674 0.773697 22.2195 0.812261 22.2345 0.867528C22.3384 1.24957 22.4561 1.49901 22.641 1.68747C22.8263 1.87638 23.0918 2.01672 23.5188 2.15476C23.5721 2.17196 23.6079 2.21982 23.6079 2.2737C23.6079 2.32758 23.5721 2.37544 23.5188 2.39264C23.0918 2.53067 22.8263 2.67102 22.641 2.85992C22.4561 3.04838 22.3384 3.29784 22.2345 3.67987C22.2195 3.73514 22.1674 3.7737 22.1079 3.7737C22.0483 3.7737 21.9963 3.73514 21.9813 3.67987C21.8774 3.29784 21.7597 3.04838 21.5748 2.85992C21.3894 2.67102 21.124 2.53067 20.697 2.39264C20.6437 2.37544 20.6079 2.32758 20.6079 2.2737C20.6079 2.21982 20.6437 2.17196 20.697 2.15476C21.124 2.01672 21.3894 1.87638 21.5748 1.68747C21.7597 1.49901 21.8774 1.24957 21.9813 0.867528C21.9963 0.812261 22.0483 0.773697 22.1079 0.773697Z" fill="#212529"/>
</g>
<defs>
<clipPath id="clip0_1_1352">
<rect width="24" height="24" fill="white"/>
</clipPath>
</defs>
</svg>
