<svg width="24" height="24" viewBox="0 0 24 24" fill="none" xmlns="http://www.w3.org/2000/svg">
<path d="M7.84519 18.9469L8.59144 12.9875L8.28946 11.3422C8.27386 11.2796 8.13914 10.6388 8.06948 10.2572C8.01668 9.96803 7.97115 9.68846 7.93473 9.42265C7.81063 8.51688 7.79647 7.86851 7.95919 7.45841C8.12137 7.04967 8.43466 6.7181 8.79274 6.53872C9.35664 6.25624 10.0807 6.25822 10.6632 6.53315L10.7863 6.5965C11.3082 6.88792 11.6749 7.39587 11.7819 7.98471L12.0539 9.46555L12.1639 9.49444C15.4565 10.3967 17.0195 12.5854 16.9998 15.3824L16.9964 15.5564C16.9243 17.7639 15.7922 20.098 14.6693 20.098L13.7349 20.0979L13.7348 21.9994C13.7348 23.1043 12.8309 24 11.7158 24L11.5929 23.9964C10.5351 23.9334 9.69688 23.0634 9.69688 21.9994L9.69691 20.0965L8.87563 20.097C8.58199 20.0992 8.29776 19.9742 8.09968 19.754C7.9016 19.5338 7.80887 19.2397 7.84519 18.9469ZM9.35749 11.152L9.65926 12.8012L9.67273 12.9019C9.67835 12.9696 9.67722 13.0382 9.66925 13.1062L8.92908 19.0218L9.99301 19.0224C10.4284 19.0224 10.7814 19.3721 10.7814 19.8036V21.9994C10.7814 22.5108 11.1998 22.9254 11.7158 22.9254C12.2319 22.9254 12.6503 22.5108 12.6503 21.9994V19.8045C12.6503 19.3731 13.0033 19.0234 13.4387 19.0234H14.6693C14.9989 19.0234 15.9031 17.1106 15.9153 15.3749C15.9325 12.9433 14.5614 11.1312 11.4617 10.4269L11.1134 10.3477L10.7147 8.1761C10.6612 7.88166 10.4685 7.63158 10.1968 7.50333C9.91234 7.36908 9.54095 7.36806 9.28204 7.49776C9.15691 7.56044 9.03126 7.69342 8.96849 7.85161C8.90472 8.01235 8.91032 8.48916 8.98974 9.12787L9.00938 9.27807C9.03212 9.44406 9.05883 9.61686 9.08897 9.79497L9.1686 10.2355C9.24443 10.6285 9.3559 11.1546 9.35749 11.152Z" fill="#212529"/>
<path d="M12.1623 14.5433C12.086 14.8692 12.1436 15.2229 12.3222 15.5109C12.4759 15.744 12.6468 15.912 12.9576 16.1606L13.3389 16.4614C13.3586 16.4775 13.3772 16.4929 13.3953 16.5082C13.63 16.7062 13.9787 16.7062 14.2134 16.5082L14.5278 16.2579C14.9188 15.9529 15.1135 15.7731 15.281 15.5194C15.4682 15.2359 15.5244 14.8762 15.4453 14.5385L15.4187 14.4398C15.2047 13.7732 14.41 13.6118 13.8199 13.9899L13.8042 14.001L13.7881 13.9893C13.1705 13.5938 12.3277 13.7902 12.1623 14.5433ZM14.7399 14.6956C14.7767 14.853 14.7518 15.0123 14.6759 15.1273C14.5777 15.2761 14.4448 15.4053 14.1844 15.6131L13.8782 15.8535C13.8535 15.8732 13.8305 15.8917 13.8042 15.9131L13.528 15.6949C13.1976 15.4372 13.0432 15.2947 12.9327 15.1273C12.8593 15.0087 12.8331 14.848 12.8688 14.6956C12.9169 14.4764 13.2212 14.4274 13.4697 14.6471L13.8043 14.9905L14.1381 14.6479C14.3874 14.4274 14.6917 14.4764 14.7399 14.6956Z" fill="#212529"/>
<path d="M10.0034 0C8.34469 0 7 1.33244 7 2.97608C7 4.61972 8.34469 5.95216 10.0034 5.95216C11.6622 5.95216 13.0069 4.61972 13.0069 2.97608C13.0069 1.33244 11.6622 0 10.0034 0ZM10.0034 1.07463C11.0632 1.07463 11.9224 1.92594 11.9224 2.97608C11.9224 4.02622 11.0632 4.87753 10.0034 4.87753C8.94364 4.87753 8.08451 4.02622 8.08451 2.97608C8.08451 1.92594 8.94364 1.07463 10.0034 1.07463Z" fill="#212529"/>
</svg>
