<svg width="24" height="24" viewBox="0 0 24 24" fill="none" xmlns="http://www.w3.org/2000/svg">
<g clip-path="url(#clip0_273_361)">
<path fill-rule="evenodd" clip-rule="evenodd" d="M17.2055 3.5C20.748 3.5 22.829 5.73299 23.4003 10.0256C23.7455 10.1147 23.9999 10.4276 23.9999 10.8V12.1622L23.3801 12.1617L22.1102 21.117L22.0824 21.2171C21.7598 21.9773 21.3778 22.4 20.8655 22.4H16.4375C16.2166 22.4 16.0375 22.2209 16.0375 22C16.0375 21.7791 16.2166 21.6 16.4375 21.6H20.8655C20.9446 21.6 21.1014 21.4353 21.2842 21.0436L21.3259 20.949L22.5379 12.4H11.4499L11.7086 14.5687C11.7314 14.7606 11.6143 14.937 11.4378 14.9955L11.3587 15.0131C11.1393 15.0393 10.9403 14.8826 10.9142 14.6632L10.6161 12.1617L9.99991 12.1622V10.8C9.99991 10.4079 10.282 10.0817 10.6542 10.0132C11.4724 5.72259 13.671 3.5 17.2055 3.5ZM14.4179 18.1348C14.5913 18.1348 14.7442 18.2407 14.7941 18.3953C15.075 19.2647 15.4761 19.9583 15.9946 20.4803C16.1597 20.6465 16.1247 20.911 15.9212 21.0349C15.2515 21.4427 14.1803 21.6348 12.6946 21.6348C12.5323 21.6348 12.3868 21.542 12.3282 21.4011L11.9065 20.3864L11.4931 21.3991C11.4448 21.5174 11.3353 21.6022 11.2058 21.6272L11.126 21.6348H-0.007263C-0.350567 21.6348 -0.528708 21.2536 -0.294715 21.0197C0.275186 20.4499 0.627581 20.0159 0.756091 19.7395C0.87823 19.4768 0.926204 19.0699 0.887792 18.5246C0.872927 18.3136 1.05271 18.1348 1.27979 18.1348H14.4179ZM14.131 18.8665H1.68489L1.68598 18.9397C1.68083 19.3046 1.63281 19.6173 1.53894 19.8791L1.4771 20.0302C1.37308 20.2539 1.18861 20.5193 0.922311 20.8312L0.857963 20.9032H10.8547L11.5364 19.2362C11.6538 18.949 12.0631 18.924 12.2306 19.1626L12.2699 19.2342L12.9623 20.9004L13.2794 20.8917C13.9666 20.8633 14.5236 20.7828 14.9478 20.6545L15.0885 20.6078L15.0364 20.5442C14.6767 20.0843 14.382 19.5435 14.1516 18.9229L14.131 18.8665ZM7.7837 4C8.26135 4 8.64856 4.38721 8.64856 4.86486L8.64929 14.5767C9.13731 14.643 9.51343 15.0614 9.51343 15.5676L9.51312 15.6717L13.7766 15.6727C14.288 15.6727 14.7026 16.0873 14.7026 16.5987V17.8348H0.864778V16.5987C0.864778 16.0873 1.27936 15.6727 1.79078 15.6727L6.05312 15.6717L6.05397 15.5676C6.05397 15.0614 6.43009 14.643 6.91811 14.5767L6.91883 4.86486C6.91883 4.38721 7.30605 4 7.7837 4ZM13.7766 16.4727H1.79078C1.72119 16.4727 1.66478 16.5291 1.66478 16.5987V17.0347H13.9018L13.9026 16.5987C13.9026 16.543 13.8665 16.4958 13.8164 16.4791L13.7766 16.4727ZM8.51343 15.3676H7.05397C6.98033 15.3676 6.91599 15.4074 6.88127 15.4666L6.86797 15.4966H8.69897L8.68612 15.4666C8.66009 15.4222 8.61738 15.3887 8.5666 15.3747L8.51343 15.3676ZM7.7837 4.8C7.74787 4.8 7.71883 4.82904 7.71883 4.86486V14.2H7.84783L7.84856 4.86486C7.84856 4.84098 7.83565 4.82011 7.81643 4.80885L7.7837 4.8ZM1.99991 9.16853C2.08423 9.16853 2.15804 9.22425 2.17984 9.30439C2.23957 9.52401 2.3032 9.6514 2.39412 9.74405C2.48611 9.83777 2.62416 9.91445 2.87179 9.99449C2.94823 10.0192 2.99991 10.0894 2.99991 10.1685C2.99991 10.2477 2.94823 10.3179 2.87179 10.3426C2.62416 10.4226 2.48611 10.4993 2.39412 10.593C2.3032 10.6857 2.23957 10.813 2.17984 11.0327C2.15804 11.1128 2.08423 11.1685 1.99991 11.1685C1.91557 11.1685 1.84176 11.1128 1.81996 11.0327C1.76023 10.813 1.69661 10.6857 1.60568 10.593C1.5137 10.4993 1.37564 10.4226 1.12801 10.3426C1.05157 10.3179 0.999913 10.2477 0.999913 10.1685C0.999913 10.0894 1.05157 10.0192 1.12801 9.99449C1.37564 9.91445 1.5137 9.83777 1.60568 9.74405C1.69661 9.6514 1.76023 9.52401 1.81996 9.30439C1.84176 9.22425 1.91557 9.16853 1.99991 9.16853ZM17.2055 4.5C14.2591 4.5 12.4297 6.28483 11.6754 9.99917L22.3883 9.99926C21.8593 6.27821 20.147 4.5 17.2055 4.5ZM4.17456 6.12402C4.24045 6.12402 4.29803 6.16691 4.31472 6.22841C4.37854 6.46355 4.44855 6.60798 4.55331 6.71496C4.6586 6.82248 4.81287 6.90634 5.0758 6.99149C5.13481 7.0106 5.17456 7.06395 5.17456 7.12402C5.17456 7.18409 5.13481 7.23745 5.0758 7.25656C4.81287 7.34171 4.6586 7.42557 4.55331 7.53309C4.44855 7.64007 4.37854 7.7845 4.31472 8.01965C4.29803 8.08115 4.24045 8.12402 4.17456 8.12402C4.10868 8.12402 4.0511 8.08115 4.03441 8.01965C3.97061 7.7845 3.90058 7.64007 3.79582 7.53309C3.69054 7.42557 3.53626 7.34171 3.27335 7.25656C3.21434 7.23745 3.17456 7.18409 3.17456 7.12402C3.17456 7.06395 3.21434 7.0106 3.27335 6.99149C3.53626 6.90634 3.69054 6.82248 3.79582 6.71496C3.90058 6.60798 3.97061 6.46355 4.03441 6.22841C4.0511 6.16691 4.10868 6.12402 4.17456 6.12402ZM22.1078 0.773697C22.1673 0.773697 22.2194 0.812261 22.2344 0.867528C22.3383 1.24957 22.456 1.49901 22.6409 1.68747C22.8263 1.87638 23.0917 2.01672 23.5187 2.15476C23.572 2.17196 23.6078 2.21982 23.6078 2.2737C23.6078 2.32758 23.572 2.37544 23.5187 2.39264C23.0917 2.53067 22.8263 2.67102 22.6409 2.85992C22.456 3.04838 22.3383 3.29784 22.2344 3.67987C22.2194 3.73514 22.1673 3.7737 22.1078 3.7737C22.0483 3.7737 21.9962 3.73514 21.9812 3.67987C21.8773 3.29784 21.7596 3.04838 21.5747 2.85992C21.3894 2.67102 21.1239 2.53067 20.6969 2.39264C20.6436 2.37544 20.6078 2.32758 20.6078 2.2737C20.6078 2.21982 20.6436 2.17196 20.6969 2.15476C21.1239 2.01672 21.3894 1.87638 21.5747 1.68747C21.7596 1.49901 21.8773 1.24957 21.9812 0.867528C21.9962 0.812261 22.0483 0.773697 22.1078 0.773697Z" fill="#212529"/>
</g>
<defs>
<clipPath id="clip0_273_361">
<rect width="24" height="24" fill="white"/>
</clipPath>
</defs>
</svg>
