<svg width="24" height="24" viewBox="0 0 24 24" fill="none" xmlns="http://www.w3.org/2000/svg">
<path fill-rule="evenodd" clip-rule="evenodd" d="M17.2699 3C18.4748 3.00043 19.5032 3.87868 19.7025 5.07788L19.924 6.422L21.0446 5.77067C21.9401 5.24958 23.0725 5.51796 23.6497 6.36143L23.7361 6.49935C24.2798 7.4503 23.9564 8.66586 23.0139 9.21426C22.5934 9.45919 22.2471 9.6609 21.975 9.8194C23.1427 10.6352 23.906 11.9961 23.906 13.5368V15.493C23.906 16.7065 23.0505 17.7185 21.9148 17.9489L21.9146 19.0133C21.9146 20.1105 21.0329 21 19.9452 21C18.8575 21 17.9757 20.1105 17.9757 19.0133L17.975 17.998H6.024L6.02428 19.0133C6.02428 20.0607 5.22086 20.9187 4.2018 20.9946L4.05481 21C2.96711 21 2.08535 20.1105 2.08535 19.0133L2.08516 17.9474C0.952923 17.7143 0.101054 16.704 0.101054 15.493V13.5323C0.102576 11.9947 0.864181 10.6365 2.0276 9.81973L0.986293 9.21438C0.0435815 8.66586 -0.279833 7.4503 0.263926 6.49935C0.807686 5.5484 2.01271 5.22216 2.95542 5.77067L4.075 6.422L4.29761 5.0774C4.49681 3.87868 5.52518 3.00043 6.73025 3H17.2699ZM5.063 17.998H3.044L3.04534 19.0133C3.04534 19.5019 3.38647 19.9101 3.84157 20.0089L3.95759 20.027L4.05481 20.0316C4.61233 20.0316 5.06429 19.5757 5.06429 19.0133L5.063 17.998ZM20.954 17.998H18.935L18.9357 19.0133C18.9357 19.5019 19.2768 19.9101 19.7319 20.0089L19.848 20.027L19.9452 20.0316C20.5027 20.0316 20.9547 19.5757 20.9547 19.0133L20.954 17.998ZM19.4193 9.97936H4.58153C2.6376 9.9828 1.06299 11.5724 1.06105 13.5328V15.493C1.06105 16.3274 1.72036 17.0065 2.54214 17.0291L2.56534 17.0256H5.54429C5.55901 17.0256 5.57359 17.0263 5.58798 17.0276L18.412 17.029L18.4557 17.0256H21.4347C21.4436 17.0256 21.4524 17.0259 21.4612 17.0263L21.4226 17.0297C22.2639 17.0297 22.946 16.3417 22.946 15.493V13.5368C22.946 11.5721 21.367 9.97936 19.4193 9.97936ZM4.05481 12.017C5.14252 12.017 6.02428 12.9064 6.02428 14.0037C6.02428 15.1009 5.14252 15.9903 4.05481 15.9903C2.96711 15.9903 2.08535 15.1009 2.08535 14.0037C2.08535 12.9064 2.96711 12.017 4.05481 12.017ZM19.9452 12.017C21.0329 12.017 21.9146 12.9064 21.9146 14.0037C21.9146 15.1009 21.0329 15.9903 19.9452 15.9903C18.8575 15.9903 17.9757 15.1009 17.9757 14.0037C17.9757 12.9064 18.8575 12.017 19.9452 12.017ZM4.05481 12.9854C3.4973 12.9854 3.04534 13.4413 3.04534 14.0037C3.04534 14.5661 3.4973 15.022 4.05481 15.022C4.61233 15.022 5.06429 14.5661 5.06429 14.0037C5.06429 13.4413 4.61233 12.9854 4.05481 12.9854ZM19.9452 12.9854C19.3877 12.9854 18.9357 13.4413 18.9357 14.0037C18.9357 14.5661 19.3877 15.022 19.9452 15.022C20.5027 15.022 20.9547 14.5661 20.9547 14.0037C20.9547 13.4413 20.5027 12.9854 19.9452 12.9854ZM2.47576 6.60952C1.99232 6.32823 1.37435 6.49553 1.0955 6.9832C0.816649 7.47087 0.982504 8.09424 1.46594 8.37553L3.03628 9.28901C3.2287 9.21747 3.42733 9.15886 3.63113 9.1142L3.907 7.442L2.47576 6.60952ZM21.5243 6.60945L20.092 7.442L20.3685 9.11246C20.5735 9.157 20.7734 9.21569 20.9669 9.28744L22.534 8.37553C22.9873 8.11182 23.1614 7.54746 22.9516 7.07611L22.9045 6.9832C22.6256 6.49553 22.0077 6.32823 21.5243 6.60945ZM17.2696 3.96839H6.73042C5.99433 3.96865 5.36609 4.50518 5.24448 5.23699L4.915 7.226V9.01L19.0919 9.01015C19.0903 8.60375 19.0882 8.10077 19.0858 7.50122L19.084 7.23L18.7556 5.23749C18.648 4.58998 18.1444 4.09552 17.5203 3.98952L17.3848 3.97283L17.2696 3.96839Z" fill="#212529"/>
</svg>
