<svg width="24" height="24" viewBox="0 0 24 24" fill="none" xmlns="http://www.w3.org/2000/svg">
<g clip-path="url(#clip0_2709_1286)">
<path d="M20.5276 0.500047C21.074 0.496151 21.5754 0.815863 21.8222 1.32701L23.4704 4.777C23.4744 4.7853 23.4781 4.79364 23.4816 4.80201C23.4869 4.81469 23.4917 4.82776 23.496 4.84108C23.5013 4.85708 23.5056 4.87287 23.5091 4.88868C23.5107 4.89709 23.5125 4.90653 23.514 4.91606C23.5184 4.93997 23.5206 4.96309 23.5212 4.98604C23.5207 4.98988 23.5208 4.99498 23.5208 5.00009L23.5207 6.87004C23.5387 7.80595 23.0426 8.6703 22.2251 9.10481C22.0252 9.20015 21.8169 9.27295 21.6036 9.32242L21.6042 22.0001C21.6042 22.8285 20.9606 23.5001 20.1668 23.5001H3.87597C3.0821 23.5001 2.43855 22.8285 2.43855 22.0001L2.43884 9.3217C2.22247 9.27104 2.00881 9.19575 1.79925 9.09552C1.0001 8.6703 0.504062 7.80595 0.521985 6.88009V5.00009L0.521578 4.98531C0.522213 4.96309 0.524305 4.94072 0.52793 4.91832L0.521985 5.00009C0.521985 4.96147 0.526182 4.92387 0.534125 4.88776C0.53716 4.87288 0.541424 4.85724 0.546481 4.84166C0.551002 4.82776 0.555803 4.81469 0.561102 4.8019C0.564497 4.79395 0.568213 4.78562 0.572172 4.77731L2.2186 1.32511C2.46449 0.815863 2.96582 0.496151 3.50895 0.500035L20.5276 0.500047ZM4.87077 8.82268C4.7761 8.89376 4.67682 8.95742 4.57449 9.01499C4.5119 9.0502 4.44818 9.08313 4.38344 9.11373C4.37013 9.11874 4.35709 9.12482 4.34402 9.1308C4.28319 9.1597 4.22126 9.18543 4.15856 9.20905C4.15289 9.21035 4.14785 9.21224 4.14281 9.21412C4.08204 9.23746 4.01983 9.25822 3.95698 9.27691C3.9445 9.2801 3.93208 9.28372 3.91963 9.28727C3.8497 9.30757 3.77911 9.32481 3.70788 9.33945L3.65237 9.349L3.47107 9.37811L3.40428 9.38561L3.39679 22.0001C3.39679 22.2511 3.57412 22.4589 3.80517 22.4946L3.87597 22.5001H20.1668C20.4314 22.5001 20.6459 22.2762 20.6459 22.0001L20.6457 9.3849L20.6355 9.38537L20.5718 9.3781L20.5456 9.37477C20.4903 9.36772 20.4356 9.35895 20.3812 9.34868C20.3661 9.34544 20.3505 9.34235 20.335 9.33914C20.1127 9.29383 19.897 9.22298 19.6913 9.12869C19.6849 9.12409 19.6782 9.12098 19.6716 9.11785C19.4963 9.03765 19.3288 8.93891 19.1709 8.82426L19.1575 8.85021C18.6976 9.71737 17.868 10.3285 16.8986 10.4698C15.9293 10.6111 14.9709 10.2606 14.3009 9.5581L14.248 9.49821L14.1386 9.6145C13.6165 10.1357 12.928 10.4533 12.1924 10.496L12.0218 10.501L11.9975 10.5005C11.8034 10.4993 11.6118 10.4785 11.4249 10.4397C11.3201 10.4182 11.2167 10.3908 11.1151 10.358L11.0464 10.3345C11.0198 10.3256 10.9934 10.3159 10.9671 10.3058C10.9315 10.2918 10.8964 10.2776 10.8615 10.2626C10.8214 10.246 10.7815 10.2279 10.7419 10.2089L10.6936 10.1847C10.5333 10.1046 10.3803 10.0098 10.2361 9.90173C10.2208 9.88976 10.2055 9.87813 10.1904 9.86636C10.1556 9.83971 10.1214 9.81182 10.0877 9.78315L10.0334 9.735L9.99537 9.701L10.0094 9.713L9.92837 9.637L9.99537 9.701L9.95289 9.66146L9.91437 9.624L9.92837 9.637L9.90512 9.6145L9.89076 9.60028C9.87164 9.58092 9.85275 9.56128 9.83409 9.54136L9.79452 9.49821L9.74188 9.5581C9.69044 9.61204 9.63729 9.6639 9.58257 9.71362C9.57372 9.72029 9.56505 9.72807 9.55634 9.7358C9.51277 9.7759 9.46765 9.81374 9.4216 9.85018C9.41657 9.85265 9.41252 9.85583 9.40845 9.85901C8.77373 10.3576 7.96282 10.5891 7.14413 10.4698C6.16457 10.327 5.32761 9.70442 4.87077 8.82268ZM13.4068 12.2458L14.7044 14.503L16.0308 14.5031L16.1136 14.5105L16.1768 14.5276L16.2328 14.5496L16.2917 14.5836L16.3452 14.6257L16.4055 14.6913L16.4434 14.7488L16.4733 14.8112L16.4947 14.8775L16.507 14.9466L16.5099 15.0175L16.5032 15.085L16.4864 15.1554L14.8879 20.1612C14.8227 20.3654 14.6396 20.5031 14.4334 20.5031H9.64196C9.43036 20.5031 9.24382 20.3582 9.18302 20.1467L7.7456 15.1468C7.65337 14.8259 7.88357 14.5031 8.20453 14.5031L9.36937 14.503L10.6685 12.2458C10.8047 12.009 11.099 11.9323 11.3259 12.0743C11.5528 12.2164 11.6264 12.5235 11.4902 12.7603L10.4874 14.503H13.5874L12.5851 12.7603C12.4489 12.5235 12.5225 12.2164 12.7494 12.0743C12.9763 11.9323 13.2707 12.009 13.4068 12.2458ZM15.366 15.503H8.84797L9.99766 19.5027H14.0879L15.366 15.503ZM13.7623 5.50004L10.2764 5.5L10.2761 8.53035L10.3294 8.60934L10.3857 8.68546L10.4144 8.721C10.427 8.73719 10.4376 8.74999 10.4483 8.76264L10.4674 8.784L10.4724 8.79L10.4988 8.81996L10.5014 8.822L10.5254 8.848L10.5064 8.827L10.5605 8.8848L10.6004 8.923L10.5844 8.908L10.6311 8.95312L10.6694 8.987L10.6444 8.964L10.6894 9.004L10.6784 8.995L10.6901 9.00502L10.6985 9.01259L10.7004 9.014L10.7084 9.02L10.7214 9.031L10.7314 9.039L10.7324 9.04L10.7509 9.05539L10.7704 9.07L10.7654 9.066L10.9 9.16273C10.9487 9.19478 10.9987 9.22473 11.0498 9.25251C11.1492 9.30689 11.2528 9.35277 11.3596 9.38972L11.5222 9.4384L11.5934 9.455L11.5974 9.456L11.6084 9.45832L11.6454 9.465L11.6104 9.458L11.5974 9.456L11.5944 9.455L11.6104 9.458L11.6804 9.471L11.7445 9.48184L11.8684 9.494L12.0195 9.50053C12.6115 9.50024 13.1681 9.23945 13.5603 8.7954L13.673 8.65668L13.7623 8.52502V5.50004ZM18.4911 5.50004H14.7237L14.7228 8.52273C15.171 9.22132 15.9656 9.59542 16.7701 9.4764C17.5611 9.3594 18.2158 8.78737 18.4701 8.0069L18.4984 7.906V7.784L18.4954 6.87L18.4911 5.50004ZM9.31537 5.5L5.55141 5.50004L5.54837 6.195L5.54302 7.905C5.75714 8.6841 6.36389 9.2746 7.11727 9.44701L7.27357 9.4764C7.8306 9.5588 8.38286 9.40482 8.81871 9.07042L8.83191 9.06152L8.82337 9.066L8.94579 8.9648L9.06523 8.84871C9.14301 8.767 9.21512 8.67837 9.28065 8.5833L9.30337 8.547L9.31537 8.528V5.5ZM22.5618 5.50004H19.4495L19.4563 7.77255C19.6297 7.94954 19.8296 8.09264 20.0464 8.19724L20.1234 8.232L20.0613 8.20604L20.1443 8.24272L20.1954 8.262L20.2063 8.26623L20.2614 8.286L20.2287 8.27571L20.3149 8.30507L20.3984 8.329L20.3724 8.321L20.4294 8.336L20.5254 8.358L20.5689 8.36787L20.5505 8.36414C20.6051 8.37458 20.6602 8.38279 20.7157 8.38872L20.7504 8.391L20.9241 8.40009L21.0847 8.37886C21.1187 8.37587 21.1521 8.37663 21.1845 8.38082C21.4048 8.35675 21.6176 8.2952 21.8082 8.20465C22.2802 7.95349 22.5732 7.44294 22.5625 6.88009L22.5618 5.50004ZM4.59287 5.50004H1.47984L1.48017 6.89013C1.47029 7.40345 1.72222 7.88034 2.12144 8.1395L2.21613 8.19536C2.41685 8.29113 2.62992 8.35409 2.84758 8.38257L2.87507 8.37596L2.95748 8.37581C2.99909 8.37943 3.03292 8.38463 3.0811 8.39331L3.11804 8.39971L3.16794 8.39935C3.21134 8.39817 3.25457 8.3956 3.29758 8.39168L3.38434 8.38188L3.47039 8.36842L3.55693 8.35103L3.62137 8.334L3.65037 8.327L3.67157 8.32145L3.72337 8.305L3.71637 8.307L3.73419 8.30298L3.73637 8.301L3.78837 8.283L3.84637 8.262L3.82448 8.27178L3.90578 8.23959L3.97837 8.206L3.93553 8.2257C4.16872 8.12257 4.38384 7.97573 4.56942 7.79065L4.58537 7.772L4.59287 5.50004ZM5.61837 1.5L3.50565 1.50006C3.32348 1.49875 3.15635 1.60533 3.07545 1.77287L1.77443 4.49974H4.72091L5.53737 1.772L5.61837 1.5ZM9.31892 1.50005L6.62337 1.5L5.72537 4.499L9.31892 4.49976V1.50005ZM13.7652 1.50005H10.2773V4.49976H13.7652V1.50005ZM17.4185 1.50005H14.7237V4.49976H18.3165L17.5004 1.772L17.4185 1.50005ZM20.5342 1.50006L18.4226 1.50002L18.9694 3.326L19.3206 4.49974H22.2671L20.9655 1.77508C20.8952 1.62958 20.7624 1.53049 20.6112 1.50597L20.5342 1.50006Z" fill="#212529"/>
</g>
<defs>
<clipPath id="clip0_2709_1286">
<rect width="24" height="24" fill="white"/>
</clipPath>
</defs>
</svg>
