<svg width="24" height="24" viewBox="0 0 24 24" fill="none" xmlns="http://www.w3.org/2000/svg">
<g clip-path="url(#clip0_2709_1164)">
<path d="M20.5276 0.500047C21.074 0.496151 21.5753 0.815863 21.8221 1.32701L23.4704 4.777C23.4744 4.7853 23.4781 4.79364 23.4816 4.80201C23.4869 4.81469 23.4917 4.82776 23.496 4.84108C23.5012 4.85708 23.5056 4.87287 23.5091 4.88868C23.5106 4.89709 23.5124 4.90653 23.514 4.91606C23.5184 4.93997 23.5205 4.96309 23.5212 4.98604C23.5206 4.98988 23.5207 4.99498 23.5207 5.00009L23.5206 6.87004C23.5386 7.80595 23.0426 8.6703 22.225 9.10481C22.0252 9.20015 21.8169 9.27295 21.6035 9.32242L21.6042 22.0001C21.6042 22.8285 20.9606 23.5001 20.1667 23.5001H3.87594C3.08207 23.5001 2.43852 22.8285 2.43852 22.0001L2.43881 9.3217C2.22244 9.27104 2.00878 9.19575 1.79922 9.09552C1.00007 8.6703 0.504031 7.80595 0.521954 6.88009V5.00009L0.521548 4.98531C0.522182 4.96309 0.524274 4.94072 0.527899 4.91832L0.521954 5.00009C0.521954 4.96147 0.526151 4.92387 0.534095 4.88776C0.537129 4.87288 0.541393 4.85724 0.546451 4.84166C0.550971 4.82776 0.555773 4.81469 0.561071 4.8019C0.564466 4.79395 0.568182 4.78562 0.572141 4.77731L2.21857 1.32511C2.46446 0.815863 2.96579 0.496151 3.50892 0.500035L20.5276 0.500047ZM4.87074 8.82268C4.77607 8.89376 4.67679 8.95742 4.57446 9.01499C4.51187 9.0502 4.44815 9.08313 4.38341 9.11373C4.3701 9.11874 4.35706 9.12482 4.34399 9.1308C4.28316 9.1597 4.22123 9.18543 4.15853 9.20905C4.15286 9.21035 4.14782 9.21224 4.14278 9.21412C4.08201 9.23746 4.0198 9.25822 3.95695 9.27691C3.94447 9.2801 3.93205 9.28372 3.9196 9.28727C3.84967 9.30757 3.77908 9.32481 3.70785 9.33945L3.65234 9.349L3.47104 9.37811L3.40424 9.38561L3.39676 22.0001C3.39676 22.2511 3.57409 22.4589 3.80514 22.4946L3.87594 22.5001H20.1667C20.4314 22.5001 20.6459 22.2762 20.6459 22.0001L20.6457 9.3849L20.6354 9.38537L20.5717 9.3781L20.5456 9.37477C20.4903 9.36772 20.4356 9.35895 20.3812 9.34868C20.3661 9.34544 20.3505 9.34235 20.335 9.33914C20.1126 9.29383 19.897 9.22298 19.6913 9.12869C19.6849 9.12409 19.6782 9.12098 19.6715 9.11785C19.4963 9.03765 19.3288 8.93891 19.1708 8.82426L19.1575 8.85021C18.6976 9.71737 17.8679 10.3285 16.8986 10.4698C15.9292 10.6111 14.9708 10.2606 14.3008 9.5581L14.248 9.49821L14.1385 9.6145C13.6164 10.1357 12.9279 10.4533 12.1923 10.496L12.0218 10.501L11.9974 10.5005C11.8034 10.4993 11.6117 10.4785 11.4249 10.4397C11.3201 10.4182 11.2166 10.3908 11.1151 10.358L11.0464 10.3345C11.0198 10.3256 10.9933 10.3159 10.967 10.3058C10.9315 10.2918 10.8963 10.2776 10.8614 10.2626C10.8214 10.246 10.7814 10.2279 10.7419 10.2089L10.6936 10.1847C10.5333 10.1046 10.3803 10.0098 10.2361 9.90173C10.2207 9.88976 10.2055 9.87813 10.1904 9.86636C10.1556 9.83971 10.1214 9.81182 10.0877 9.78315L10.0333 9.735L9.99534 9.701L10.0093 9.713L9.92834 9.637L9.99534 9.701L9.95286 9.66146L9.91434 9.624L9.92834 9.637L9.90509 9.6145L9.89073 9.60028C9.87161 9.58092 9.85272 9.56128 9.83406 9.54136L9.79449 9.49821L9.74185 9.5581C9.6904 9.61204 9.63726 9.6639 9.58254 9.71362C9.57369 9.72029 9.56502 9.72807 9.55631 9.7358C9.51274 9.7759 9.46762 9.81374 9.42157 9.85018C9.41654 9.85265 9.41249 9.85583 9.40842 9.85901C8.77369 10.3576 7.96279 10.5891 7.1441 10.4698C6.16454 10.327 5.32758 9.70442 4.87074 8.82268ZM13.4068 12.2458L14.7043 14.503L16.0308 14.5031L16.1135 14.5105L16.1767 14.5276L16.2328 14.5496L16.2917 14.5836L16.3451 14.6257L16.4054 14.6913L16.4434 14.7488L16.4733 14.8112L16.4946 14.8775L16.507 14.9466L16.5099 15.0175L16.5032 15.085L16.4863 15.1554L14.8879 20.1612C14.8227 20.3654 14.6396 20.5031 14.4333 20.5031H9.64192C9.43033 20.5031 9.24379 20.3582 9.18299 20.1467L7.74557 15.1468C7.65334 14.8259 7.88354 14.5031 8.2045 14.5031L9.36934 14.503L10.6685 12.2458C10.8046 12.009 11.099 11.9323 11.3259 12.0743C11.5528 12.2164 11.6264 12.5235 11.4902 12.7603L10.4873 14.503H13.5873L12.5851 12.7603C12.4489 12.5235 12.5225 12.2164 12.7494 12.0743C12.9763 11.9323 13.2706 12.009 13.4068 12.2458ZM15.366 15.503H8.84794L9.99763 19.5027H14.0879L15.366 15.503ZM13.7623 5.50004L10.2763 5.5L10.276 8.53035L10.3293 8.60934L10.3857 8.68546L10.4143 8.721C10.427 8.73719 10.4376 8.74999 10.4483 8.76264L10.4673 8.784L10.4723 8.79L10.4988 8.81996L10.5013 8.822L10.5253 8.848L10.5063 8.827L10.5605 8.8848L10.6003 8.923L10.5843 8.908L10.6311 8.95312L10.6693 8.987L10.6443 8.964L10.6893 9.004L10.6783 8.995L10.6901 9.00502L10.6985 9.01259L10.7003 9.014L10.7083 9.02L10.7213 9.031L10.7313 9.039L10.7323 9.04L10.7508 9.05539L10.7703 9.07L10.7653 9.066L10.9 9.16273C10.9487 9.19478 10.9987 9.22473 11.0497 9.25251C11.1492 9.30689 11.2528 9.35277 11.3596 9.38972L11.5221 9.4384L11.5933 9.455L11.5973 9.456L11.6083 9.45832L11.6453 9.465L11.6103 9.458L11.5973 9.456L11.5943 9.455L11.6103 9.458L11.6803 9.471L11.7445 9.48184L11.8683 9.494L12.0195 9.50053C12.6115 9.50024 13.1681 9.23945 13.5603 8.7954L13.6729 8.65668L13.7623 8.52502V5.50004ZM18.4911 5.50004H14.7236L14.7227 8.52273C15.171 9.22132 15.9656 9.59542 16.7701 9.4764C17.561 9.3594 18.2158 8.78737 18.4701 8.0069L18.4983 7.906V7.784L18.4953 6.87L18.4911 5.50004ZM9.31534 5.5L5.55138 5.50004L5.54834 6.195L5.54299 7.905C5.75711 8.6841 6.36386 9.2746 7.11724 9.44701L7.27354 9.4764C7.83057 9.5588 8.38283 9.40482 8.81868 9.07042L8.83188 9.06152L8.82334 9.066L8.94576 8.9648L9.0652 8.84871C9.14298 8.767 9.21509 8.67837 9.28062 8.5833L9.30334 8.547L9.31534 8.528V5.5ZM22.5617 5.50004H19.4494L19.4563 7.77255C19.6296 7.94954 19.8296 8.09264 20.0464 8.19724L20.1233 8.232L20.0613 8.20604L20.1443 8.24272L20.1953 8.262L20.2063 8.26623L20.2613 8.286L20.2287 8.27571L20.3149 8.30507L20.3983 8.329L20.3723 8.321L20.4293 8.336L20.5253 8.358L20.5689 8.36787L20.5505 8.36414C20.605 8.37458 20.6601 8.38279 20.7156 8.38872L20.7503 8.391L20.9241 8.40009L21.0847 8.37886C21.1186 8.37587 21.152 8.37663 21.1845 8.38082C21.4048 8.35675 21.6176 8.2952 21.8082 8.20465C22.2802 7.95349 22.5732 7.44294 22.5624 6.88009L22.5617 5.50004ZM4.59284 5.50004H1.47981L1.48014 6.89013C1.47026 7.40345 1.72218 7.88034 2.12141 8.1395L2.2161 8.19536C2.41682 8.29113 2.62989 8.35409 2.84755 8.38257L2.87504 8.37596L2.95745 8.37581C2.99906 8.37943 3.03289 8.38463 3.08107 8.39331L3.11801 8.39971L3.1679 8.39935C3.21131 8.39817 3.25454 8.3956 3.29754 8.39168L3.38431 8.38188L3.47036 8.36842L3.5569 8.35103L3.62134 8.334L3.65034 8.327L3.67154 8.32145L3.72334 8.305L3.71634 8.307L3.73416 8.30298L3.73634 8.301L3.78834 8.283L3.84634 8.262L3.82445 8.27178L3.90575 8.23959L3.97834 8.206L3.9355 8.2257C4.16869 8.12257 4.38381 7.97573 4.56938 7.79065L4.58534 7.772L4.59284 5.50004ZM5.61834 1.5L3.50562 1.50006C3.32345 1.49875 3.15632 1.60533 3.07542 1.77287L1.7744 4.49974H4.72088L5.53734 1.772L5.61834 1.5ZM9.31889 1.50005L6.62334 1.5L5.72534 4.499L9.31889 4.49976V1.50005ZM13.7652 1.50005H10.2772V4.49976H13.7652V1.50005ZM17.4185 1.50005H14.7236V4.49976H18.3165L17.5003 1.772L17.4185 1.50005ZM20.5342 1.50006L18.4225 1.50002L18.9693 3.326L19.3206 4.49974H22.267L20.9654 1.77508C20.8952 1.62958 20.7624 1.53049 20.6111 1.50597L20.5342 1.50006Z" fill="#212529"/>
</g>
<defs>
<clipPath id="clip0_2709_1164">
<rect width="24" height="24" fill="white"/>
</clipPath>
</defs>
</svg>
