<svg width="24" height="24" viewBox="0 0 24 24" fill="none" xmlns="http://www.w3.org/2000/svg">
<path fill-rule="evenodd" clip-rule="evenodd" d="M19.9121 14.2832C20.1257 13.9787 20.5826 13.9787 20.7963 14.2832C20.8719 14.3909 21.0022 14.5817 21.1691 14.8348L21.4462 15.2619C21.6301 15.5501 21.8113 15.8443 21.9846 16.1385C22.1336 16.3914 22.2726 16.6374 22.3998 16.8746C22.926 17.856 23.2229 18.6212 23.2229 19.1753C23.2229 20.7353 21.9385 22 20.3542 22C18.7698 22 17.4855 20.7353 17.4855 19.1753C17.4855 18.6212 17.7824 17.856 18.3086 16.8746C18.4357 16.6374 18.5747 16.3914 18.7237 16.1385C18.9837 15.6973 19.2615 15.2559 19.5393 14.8348C19.587 14.7625 19.6317 14.6953 19.673 14.6336L19.9121 14.2832ZM20.353 15.543L20.1726 15.824C19.9949 16.1025 19.82 16.3865 19.6533 16.6694C19.5111 16.9107 19.379 17.1446 19.2589 17.3686C18.8138 18.1988 18.5601 18.8526 18.5601 19.1753C18.5601 20.1509 19.3633 20.9418 20.3542 20.9418C21.345 20.9418 22.1483 20.1509 22.1483 19.1753C22.1483 18.8957 21.9577 18.3672 21.6171 17.6909L21.4495 17.3686C21.3294 17.1446 21.1973 16.9107 21.0551 16.6694C20.8051 16.245 20.5365 15.8184 20.2679 15.4111L20.353 15.543ZM9.92054 2.00106L10.0596 2.01146C10.4765 2.05939 10.8615 2.25543 11.1434 2.56296C11.4246 2.86978 11.5841 3.26686 11.5927 3.68081C11.6014 4.09469 11.4586 4.49786 11.1869 4.82016L9.67101 6.58042L21.9676 6.58052C22.4584 6.58052 22.9308 6.75638 23.299 7.07259L23.4063 7.17163C23.7866 7.54913 24 8.06056 24 8.59357C24 9.12659 23.7866 9.63799 23.4063 10.0155C23.0251 10.3938 22.5075 10.6066 21.9676 10.6066L16.0256 10.6064L16.026 12.0562C16.026 12.4133 15.8989 12.7576 15.6691 13.0298L15.5782 13.1284C15.4503 13.2553 15.3021 13.3575 15.1411 13.4319L15.0291 13.4775L15.0293 15.0241C15.0293 15.3812 14.9021 15.7255 14.6724 15.9977L14.5814 16.0963C14.4536 16.2232 14.3054 16.3254 14.1443 16.3999L14.0318 16.446L14.0325 17.4974C14.0325 17.982 13.8561 18.4486 13.5383 18.8131L13.4388 18.9193C13.0576 19.2976 12.54 19.5105 12.0001 19.5105H8.90997C7.93343 19.5101 6.96161 19.375 6.02237 19.1089L0.388739 17.5112C0.103582 17.4303 -0.0610025 17.1371 0.021128 16.8563C0.103259 16.5755 0.401003 16.4135 0.68616 16.4943L6.31964 18.092C7.16228 18.3308 8.0342 18.452 8.91015 18.4523H12.0001C12.2531 18.4523 12.4962 18.3523 12.6759 18.174C12.8563 17.995 12.9579 17.7515 12.9579 17.4974L12.957 16.64L11.4172 16.6409C11.1205 16.6409 10.8799 16.404 10.8799 16.1118C10.8799 15.8196 11.1205 15.5827 11.4172 15.5827L13.1843 15.5819C13.2533 15.5336 13.3344 15.5009 13.4223 15.4892L13.4952 15.4844C13.6161 15.4844 13.7324 15.4365 13.8185 15.3511C13.9055 15.2647 13.9546 15.147 13.9546 15.0241L13.954 13.579L12.5829 13.58C12.2862 13.58 12.0456 13.3431 12.0456 13.0509C12.0456 12.7587 12.2862 12.5218 12.5829 12.5218L14.419 12.5213L14.4919 12.5164C14.6129 12.5164 14.7292 12.4686 14.8152 12.3832C14.9023 12.2967 14.9514 12.1791 14.9514 12.0562L14.951 10.519L12.5829 10.5191C12.2862 10.5191 12.0456 10.2822 12.0456 9.99001C12.0456 9.6978 12.2862 9.46093 12.5829 9.46093H16.08C16.1887 9.46093 16.2898 9.49269 16.3743 9.54731L17.587 9.548L16.346 7.638L8.51145 7.63868C8.05377 7.63868 7.80563 7.11124 8.10159 6.76747L10.3636 4.14016C10.4666 4.01793 10.5217 3.86238 10.5184 3.70252C10.515 3.54273 10.4535 3.38969 10.3456 3.27191C10.2383 3.15485 10.0924 3.08058 9.93497 3.06248C9.80393 3.04741 9.67193 3.07205 9.53717 3.14412L8.0213 4.03757C7.16012 4.54773 6.29899 5.0631 5.47484 5.56317L4.5112 6.15141L3.54122 6.75226C2.32068 7.51518 1.39847 8.12122 0.861474 8.52096C0.624757 8.69718 0.287789 8.65107 0.108835 8.41797C-0.0701191 8.18488 -0.023293 7.85308 0.213424 7.67686L0.442437 7.51018C1.05819 7.07071 1.99537 6.46201 3.19297 5.71688L4.29739 5.03606L5.5379 4.28329C5.74885 4.15616 5.96151 4.0284 6.17532 3.90034L8.31836 2.62849L8.87632 2.30289C9.1836 2.09331 9.54995 1.98816 9.92054 2.00106ZM20.134 7.638H17.538L18.778 9.548H19.19L20.134 7.638ZM21.24 7.638H21.173L20.228 9.548H21.742L21.24 7.638ZM22.2114 7.67015L22.6339 9.27955C22.6371 9.27647 22.6402 9.27336 22.6434 9.27024C22.8238 9.09116 22.9254 8.84773 22.9254 8.59357C22.9254 8.33941 22.8238 8.09594 22.6434 7.91687C22.5227 7.79706 22.3733 7.71263 22.2114 7.67015Z" fill="#212529"/>
</svg>
