<svg width="24" height="24" viewBox="0 0 24 24" fill="none" xmlns="http://www.w3.org/2000/svg">
<path d="M18.9207 3C19.7184 3 20.4542 3.41833 20.8461 4.0946L23.7148 9.04499C24.2023 9.88631 24.0541 10.9408 23.3525 11.6238L13.1841 21.5222C12.8603 21.8374 12.4369 21.9966 12.0125 21.9996L11.9949 21.9997L11.9795 21.9996C11.5577 21.9946 11.1376 21.8354 10.8159 21.5222L0.647496 11.6238C-0.0541537 10.9408 -0.202276 9.88628 0.285262 9.04498L3.15393 4.0946C3.54583 3.41831 4.2816 3 5.07924 3H18.9207ZM15.662 10.9549H8.336L11.999 19.8479L15.662 10.9549ZM7.05246 10.9556L1.665 10.9549L10.633 19.6849L7.14403 11.2159C7.10882 11.1304 7.07829 11.0435 7.05246 10.9556ZM22.334 10.9549L16.9465 10.9556C16.9207 11.0435 16.8901 11.1304 16.8549 11.2159L13.365 19.6849L22.334 10.9549ZM8.424 4.17286L5.07924 4.17374C4.71669 4.17374 4.38225 4.36388 4.20411 4.67128L1.33543 9.62167C1.30558 9.67318 1.28097 9.72646 1.26152 9.78084L6.98395 9.78143C6.99619 9.70992 7.01144 9.63871 7.02972 9.568L8.424 4.17286ZM14.331 4.17286H9.667L8.217 9.78086H15.78L14.331 4.17286ZM18.9207 4.17374L15.574 4.17286L16.9693 9.56801C16.9875 9.63872 17.0028 9.70992 17.015 9.78144L22.7385 9.78083C22.719 9.72645 22.6944 9.67318 22.6646 9.62166L19.7959 4.67126C19.6178 4.36388 19.2833 4.17374 18.9207 4.17374Z" fill="#212529"/>
</svg>
