<svg width="24" height="24" viewBox="0 0 24 24" fill="none" xmlns="http://www.w3.org/2000/svg">
<path d="M16.5 9C20.0899 9 23 11.9101 23 15.5C23 19.0899 20.0899 22 16.5 22C12.9101 22 10 19.0899 10 15.5C10 11.9101 12.9101 9 16.5 9ZM13.401 3C14.0599 3 14.594 3.57024 14.594 4.27368V7.26507C14.594 7.55548 14.3735 7.7909 14.1015 7.7909C13.8295 7.7909 13.609 7.55548 13.609 7.26507V4.27368C13.609 4.15106 13.5158 4.05166 13.401 4.05166H3.59403C3.47918 4.05166 3.38607 4.15106 3.38607 4.27368V7.26507C3.38607 7.38768 3.47918 7.48708 3.59403 7.48708H11.2995C11.5715 7.48708 11.792 7.72251 11.792 8.01292C11.792 8.30332 11.5715 8.53875 11.2995 8.53875H2.19303C2.07818 8.53875 1.98507 8.63815 1.98507 8.76076V11.7522C1.98507 11.8748 2.07818 11.9742 2.19303 11.9742H9.19801C9.47003 11.9742 9.69055 12.2096 9.69055 12.5C9.69055 12.7581 9.51631 12.9728 9.28654 13.0174L9.19801 13.0258H4.99502C4.88017 13.0258 4.78706 13.1252 4.78706 13.2478V16.2392C4.78706 16.3619 4.88017 16.4613 4.99502 16.4613H8.49751C8.76953 16.4613 8.99005 16.6967 8.99005 16.9871C8.99005 17.2452 8.81581 17.4599 8.58605 17.5044L8.49751 17.5129H3.59403C3.47918 17.5129 3.38607 17.6123 3.38607 17.7349V20.7263C3.38607 20.8489 3.47918 20.9483 3.59403 20.9483H10.599C10.871 20.9483 11.0915 21.1838 11.0915 21.4742C11.0915 21.7646 10.871 22 10.599 22H3.59403C2.93513 22 2.401 21.4298 2.401 20.7263V17.7349C2.401 17.0315 2.93513 16.4613 3.59403 16.4613L3.82021 16.4622C3.80824 16.3898 3.80199 16.3153 3.80199 16.2392V13.2478C3.80199 13.1718 3.80824 13.0973 3.82021 13.0249L2.19303 13.0258C1.53414 13.0258 1 12.4556 1 11.7522V8.76076C1 8.05733 1.53414 7.48708 2.19303 7.48708L2.41921 7.48804C2.40724 7.41564 2.401 7.34113 2.401 7.26507V4.27368C2.401 3.57024 2.93513 3 3.59403 3H13.401ZM16.5 10.0503C13.4902 10.0503 11.0503 12.4902 11.0503 15.5C11.0503 18.5098 13.4902 20.9497 16.5 20.9497C19.5098 20.9497 21.9497 18.5098 21.9497 15.5C21.9497 12.4902 19.5098 10.0503 16.5 10.0503ZM16.4999 11C16.7761 11 16.9999 11.2354 17 11.5258L17.0011 12.0534C17.3177 12.1067 17.6177 12.1979 17.8985 12.3184C18.1814 12.4397 18.3892 12.5645 18.5119 12.6566C18.7344 12.8236 18.7879 13.1516 18.6315 13.3892C18.475 13.6267 18.1678 13.6839 17.9453 13.5169C17.8812 13.4687 17.7387 13.3832 17.5312 13.2942C17.178 13.1427 16.7839 13.0517 16.3606 13.0517C15.6175 13.0517 14.9851 13.4736 14.9851 13.8346C14.9851 14.1962 15.2408 14.3641 16.1678 14.5673L16.7768 14.6949C18.1773 15.0054 18.7211 15.3702 18.7211 16.452C18.7211 17.3594 17.9034 18.0447 16.9137 18.2341C16.9683 18.3152 16.9999 18.4166 17 18.5258L17 19.3983C17 19.6887 16.7762 19.9241 16.5001 19.9241C16.2239 19.9241 16.0001 19.6888 16 19.3983L16 18.5259C16 18.4342 16.0223 18.348 16.0615 18.2729C15.6178 18.2407 15.2026 18.1312 14.8226 17.9682C14.5397 17.8469 14.332 17.7221 14.2093 17.63C13.9868 17.463 13.9332 17.135 14.0897 16.8974C14.2319 16.6815 14.4987 16.6146 14.7133 16.7297L14.8497 16.8194C14.9267 16.867 15.0417 16.9288 15.1899 16.9924C15.5431 17.1439 15.9372 17.2349 16.3606 17.2349C17.1037 17.2349 17.736 16.813 17.736 16.452C17.736 16.0904 17.4804 15.9225 16.5533 15.7193L16.2698 15.6601C14.6274 15.3313 14 14.9965 14 13.8346C14 12.8689 14.9261 12.1549 15.9999 12.0222L16 11.5259C16 11.2355 16.2238 11 16.4999 11Z" fill="#212529"/>
</svg>
