<svg width="24" height="24" viewBox="0 0 24 24" fill="none" xmlns="http://www.w3.org/2000/svg">
<path d="M8.57328 0.227398C8.7297 -0.00722495 9.04671 -0.0706103 9.28132 0.0858225L13.7764 3.08299C14.0561 3.26947 14.0824 3.67068 13.8294 3.89206L9.83364 7.38858C9.62143 7.57427 9.29887 7.55278 9.11318 7.34056C8.92749 7.12834 8.94899 6.80577 9.1612 6.62007L12.6543 3.5627L8.71485 0.935466C8.50369 0.794676 8.43124 0.523817 8.53289 0.300013L8.57328 0.227398Z" fill="#212529"/>
<path d="M13.4931 2.99719C13.7751 2.99719 14.0037 3.22579 14.0037 3.50778C14.0037 3.78977 13.7751 4.01837 13.4931 4.01837H12.5006C7.94537 4.01876 4.03448 7.25936 3.18748 11.7353C2.34047 16.2113 4.79688 20.6569 9.03702 22.3218C13.2772 23.9867 18.1019 22.4001 20.5265 18.5435C20.6766 18.3048 20.9918 18.2329 21.2305 18.383C21.4694 18.5331 21.5411 18.8483 21.391 19.087C18.7053 23.359 13.3607 25.1166 8.66382 23.2723C3.96691 21.4281 1.24589 16.5036 2.18414 11.5455C3.12239 6.58731 7.45457 2.99762 12.5006 2.99719H13.4931Z" fill="#212529"/>
<path d="M22.4891 12.9864C22.771 12.9862 22.9998 13.2146 23 13.4966C23.0006 14.3824 22.8896 15.2647 22.6695 16.1227C22.5994 16.3958 22.3212 16.5605 22.048 16.4904C21.7749 16.4203 21.6103 16.1421 21.6804 15.8689C21.8791 15.0941 21.9794 14.2973 21.9789 13.4973C21.9786 13.2154 22.2071 12.9866 22.4891 12.9864Z" fill="#212529"/>
<path d="M20.6854 7.74783C20.9239 7.59742 21.2392 7.66886 21.3896 7.90739C21.8701 8.66944 22.2501 9.4904 22.5201 10.3499C22.6046 10.6189 22.455 10.9055 22.186 10.99C21.917 11.0745 21.6304 10.925 21.5459 10.6559C21.3023 9.88043 20.9594 9.13966 20.5258 8.45206C20.3754 8.21353 20.4469 7.89823 20.6854 7.74783Z" fill="#212529"/>
<path d="M16.6709 4.40265C16.8016 4.15277 17.1101 4.05616 17.36 4.18686C18.0633 4.55476 18.7226 5.0013 19.3253 5.51789C19.5394 5.70141 19.5642 6.02375 19.3807 6.23785C19.1972 6.45195 18.8748 6.47674 18.6608 6.29322C18.1167 5.82691 17.5216 5.42383 16.8867 5.09173C16.6368 4.96103 16.5402 4.65252 16.6709 4.40265Z" fill="#212529"/>
<path d="M14.3794 18.8225L15.5096 17.8992C16.7569 16.8664 17.4125 16.2063 17.9566 15.3472C18.5552 14.4022 18.7378 13.1835 18.4796 12.0348C17.9394 9.47096 14.9202 8.96368 12.9369 10.792L12.8474 10.878L12.7569 10.791C10.8094 8.99574 7.8611 9.45388 7.24467 11.9074L7.21521 12.0348C6.96308 13.1569 7.15127 14.3612 7.73166 15.3365C8.30796 16.2467 9.00059 16.9288 10.3675 18.0492L11.3154 18.8225C11.522 18.9934 11.6946 19.1401 11.8592 19.2848C12.4245 19.782 13.2703 19.782 13.8357 19.2848L14.0387 19.1088C14.1438 19.0189 14.2555 18.9251 14.3794 18.8225ZM14.1052 17.8985C13.7647 18.1764 13.511 18.389 13.271 18.6001C13.0311 18.8111 12.6638 18.8111 12.4238 18.6001L12.2131 18.4173C12.0681 18.2932 11.9117 18.1627 11.7305 18.0138L10.7423 17.2075C9.55814 16.2275 8.94853 15.6151 8.46707 14.8549C8.0418 14.1399 7.88309 13.2497 8.03009 12.4061L8.06488 12.232C8.4471 10.4184 10.6444 10.0493 12.1779 11.463L12.2596 11.5423L12.5341 11.8392L12.8474 12.1744L13.338 11.6455C13.4114 11.5654 13.4642 11.5113 13.5158 11.464C15.0504 10.0493 17.2477 10.4184 17.6299 12.232C17.8372 13.1544 17.6923 14.1215 17.2278 14.8549C16.7463 15.6151 16.1367 16.2276 14.9524 17.2076L14.1052 17.8985Z" fill="#212529"/>
</svg>
