<svg width="24" height="24" viewBox="0 0 24 24" fill="none" xmlns="http://www.w3.org/2000/svg">
<path fill-rule="evenodd" clip-rule="evenodd" d="M20.2731 4.81314C20.9188 4.49881 21.6666 4.59757 22.2283 5.07137C22.7901 5.54517 23.0782 6.32006 22.9816 7.0975C22.885 7.87493 22.4188 8.53356 21.7626 8.81963L17.1871 10.7172L13.3651 19.23C13.3181 19.3346 13.2419 19.4194 13.148 19.4718L10.504 20.9432C10.3249 21.0424 10.1097 21.0096 9.96115 20.8605C9.81265 20.7114 9.76113 20.4763 9.83126 20.2677L12.3166 12.8858L5.31319 16.0053C5.13232 16.0864 4.92546 16.0395 4.78749 15.886L1.14266 11.8253C1.02847 11.6982 0.978305 11.5163 1.00873 11.3397C1.03915 11.1631 1.14621 11.0148 1.29453 10.9438L3.83345 9.72719C3.96527 9.66445 4.11521 9.6696 4.2433 9.74129L6.96232 11.2593L20.2673 4.81314H20.2731ZM9.22379 4.04112C9.34286 3.98629 9.47659 3.98629 9.59567 4.04112L15.8904 6.93295L12.3692 8.63747L6.89807 6.11647C6.7161 6.03259 6.59744 5.83486 6.59744 5.61552C6.59744 5.39618 6.7161 5.19845 6.89807 5.11457L9.22379 4.04112Z" stroke="black" stroke-linecap="round" stroke-linejoin="round"/>
</svg>
