<svg width="24" height="24" viewBox="0 0 24 24" fill="none" xmlns="http://www.w3.org/2000/svg">
<path d="M17.5653 9.24635C17.884 8.8876 18.1915 8.54565 18.4839 8.2306C19.29 8.76265 19.9342 9.16895 20.4438 9.47805C21.2913 9.99225 22.1749 9.44965 22.0757 8.4661C22.0044 7.75855 21.8844 6.8349 21.6848 5.65705C21.36 3.74015 20.9683 2.5676 20.6792 1.89764C20.4532 1.3739 19.9747 1.04202 19.4033 1.01192C18.6707 0.973335 17.4272 1.01242 15.5026 1.37154C14.3227 1.59173 13.4095 1.79836 12.7167 1.97585C11.7533 2.22268 11.5475 3.23858 12.328 3.85287C12.8351 4.252 13.5039 4.7587 14.3803 5.39255C13.8089 6.6017 13.1068 7.8261 12.3515 8.9166C12.1896 9.15035 11.864 9.19565 11.6388 9.0214C10.9503 8.4885 9.50239 7.38185 8.11819 6.41195C7.53004 5.99985 6.72941 6.08155 6.24417 6.61015C3.38676 9.72305 1.73737 12.7371 1.1402 13.9349C0.964797 14.2867 0.927883 14.6937 1.1818 14.9943C1.32583 15.1647 1.53775 15.3666 1.84874 15.5829C2.0695 15.7365 2.26615 15.8458 2.43688 15.9235C2.9129 16.1402 3.3939 15.8686 3.70321 15.4481C4.60125 14.227 6.54846 11.6279 7.68881 10.4658C8.08812 10.7435 8.5572 11.1059 9.0436 11.5" stroke="#212529" stroke-width="1.2" stroke-linecap="round" stroke-linejoin="round"/>
<path d="M15.5 23C18.8137 23 21.5 20.3137 21.5 17C21.5 13.6863 18.8137 11 15.5 11C12.1863 11 9.5 13.6863 9.5 17C9.5 20.3137 12.1863 23 15.5 23Z" stroke="#212529" stroke-width="1.2" stroke-linecap="round" stroke-linejoin="round"/>
<path d="M17.5 14.9375C17.5 14.9375 16.7 14.375 15.5 14.375C14.5 14.375 13.5 14.9375 13.5 15.6875C13.5 17.5625 17.5 16.4375 17.5 18.3125C17.5 19.0625 16.5 19.625 15.5 19.625C14.3 19.625 13.5 19.0625 13.5 19.0625" stroke="#212529" stroke-width="1.2" stroke-linecap="round" stroke-linejoin="round"/>
<path d="M15.5001 14.375L15.5 13.5" stroke="#212529" stroke-width="1.2" stroke-linecap="round" stroke-linejoin="round"/>
<path d="M15.5001 20.5L15.5 19.625" stroke="#212529" stroke-width="1.2" stroke-linecap="round" stroke-linejoin="round"/>
</svg>
