<svg width="24" height="24" viewBox="0 0 24 24" fill="none" xmlns="http://www.w3.org/2000/svg">
<g clip-path="url(#clip0_534_938)">
<path d="M12 0C16.4162 0.00496 19.995 3.58377 20 8C20 11.514 14.9996 20.0264 12.8516 23.5234C12.671 23.8207 12.3478 24.0016 12 24C11.6528 24 11.3305 23.82 11.1484 23.5244C9.00044 20.0254 4 11.51 4 8C4.00496 3.58377 7.58378 0.00496 12 0ZM12 4.5C10.067 4.5 8.5 6.067 8.5 8C8.5 9.93299 10.067 11.5 12 11.5C13.933 11.5 15.5 9.93299 15.5 8C15.5 6.067 13.933 4.5 12 4.5Z" fill="#404040"/>
</g>
<defs>
<clipPath id="clip0_534_938">
<rect width="24" height="24" fill="white"/>
</clipPath>
</defs>
</svg>
