<svg width="24" height="24" viewBox="0 0 24 24" fill="none" xmlns="http://www.w3.org/2000/svg">
<g clip-path="url(#clip0_1_1781)">
<path fill-rule="evenodd" clip-rule="evenodd" d="M16.6092 18.2839L16.726 18.2871L17.0837 18.3184C23.6483 18.9194 23.9821 20.2662 23.9991 20.9431L24 21.0132L24 21.0459C24 23.7139 15.683 24.002 12 24.002C8.317 24.002 0 23.7139 0 21.0459L0.000900269 20.9431C0.0180793 20.2541 0.361657 18.8715 7.23302 18.291C7.76302 18.2605 8.22453 18.6495 8.28423 19.177C8.34633 19.7258 7.9518 20.2209 7.40302 20.283L6.65086 20.3489C5.64932 20.4493 4.6534 20.6008 3.66701 20.803L3.61301 20.8218C3.54499 20.8545 3.49435 20.917 3.47746 20.9927C3.44739 21.1274 3.53225 21.2609 3.66701 21.291L4.41685 21.4277C6.92003 21.8594 9.45921 22.0518 12 22.002L12.7623 22.0098C15.3027 22.0112 17.8381 21.7706 20.334 21.291L20.388 21.2722C20.456 21.2395 20.5067 21.177 20.5236 21.1013C20.5536 20.9666 20.4688 20.833 20.334 20.803L19.5845 20.6597C18.583 20.4815 17.5728 20.3548 16.558 20.28L16.4424 20.2634C15.9516 20.1641 15.6024 19.7105 15.6455 19.1995C15.6919 18.6491 16.1756 18.2407 16.726 18.2871L16.6092 18.2839ZM11.999 0C16.0611 0 19.354 3.29293 19.354 7.35498L19.3464 7.59424C19.1386 10.9584 14.7534 18.151 12.842 21.1411C12.6583 21.4283 12.3409 21.6021 12 21.6021L11.8732 21.5945C11.5809 21.5582 11.3171 21.3935 11.157 21.1411C9.198 18.0791 4.644 10.605 4.644 7.35498C4.644 3.29293 7.93696 0 11.999 0ZM12 3.50195C10.067 3.50195 8.5 5.06895 8.5 7.00195L8.50519 7.19409C8.60488 9.03778 10.1314 10.502 12 10.502L12.192 10.4968C14.0357 10.3971 15.5 8.87052 15.5 7.00195C15.5 5.06895 13.933 3.50195 12 3.50195Z" fill="#D52B1E"/>
</g>
<defs>
<clipPath id="clip0_1_1781">
<rect width="24" height="24" fill="white"/>
</clipPath>
</defs>
</svg>
