<svg width="24" height="24" viewBox="0 0 24 24" fill="none" xmlns="http://www.w3.org/2000/svg">
<path d="M17 14C19.76 14.0034 21.9966 16.24 22 19C22 21.7614 19.7614 24 17 24C14.2386 24 12 21.7614 12 19C12.0001 16.2386 14.2386 14 17 14ZM17.0029 15.1504C16.6845 15.1505 16.426 15.4082 16.4258 15.7266V15.9961C16.4301 16.0724 16.3755 16.1397 16.2998 16.1504C15.5961 16.2821 15.0609 16.8591 14.9893 17.5703C14.9178 18.2818 15.3273 18.9547 15.9922 19.2178L17.5791 19.8564C17.7809 19.9379 17.8974 20.1505 17.8564 20.3643C17.8152 20.5781 17.6279 20.7337 17.4102 20.7344H15.8457C15.5274 20.7346 15.2697 20.9922 15.2695 21.3105C15.2695 21.629 15.5273 21.8875 15.8457 21.8877H16.2969C16.3661 21.8901 16.4213 21.9464 16.4229 22.0156V22.2725C16.4229 22.5911 16.6814 22.8496 17 22.8496C17.3186 22.8496 17.5771 22.5911 17.5771 22.2725V22C17.5688 21.9296 17.6139 21.8643 17.6826 21.8467C18.3936 21.7307 18.9396 21.1529 19.0156 20.4365C19.0916 19.72 18.6788 19.0409 18.0078 18.7783L16.4209 18.1436C16.219 18.0621 16.1025 17.8485 16.1436 17.6348C16.1848 17.4209 16.3721 17.2662 16.5898 17.2656H18.1543C18.4727 17.2654 18.7305 17.007 18.7305 16.6885C18.7304 16.37 18.4727 16.1116 18.1543 16.1113H17.71C17.6397 16.1105 17.5825 16.0546 17.5801 15.9844V15.7266C17.5799 15.4081 17.3214 15.1504 17.0029 15.1504ZM13.1719 0C13.7022 0.000106842 14.211 0.210962 14.5859 0.585938L19.4141 5.41406C19.7891 5.78908 19.9999 6.29778 20 6.82812V11C19.9999 11.5522 19.5522 12 19 12C18.4478 12 18.0001 11.5522 18 11V8H14C13.9337 8 13.8683 7.99553 13.8037 7.98926C13.7962 7.98852 13.7888 7.98714 13.7812 7.98633C13.7218 7.97988 13.6632 7.97148 13.6055 7.95996C13.6013 7.95912 13.597 7.95887 13.5928 7.95801C13.5305 7.94516 13.4692 7.92962 13.4092 7.91113C13.4036 7.9094 13.3982 7.90705 13.3926 7.90527C13.3388 7.88819 13.2861 7.86906 13.2344 7.84766C13.2259 7.84413 13.2174 7.84055 13.209 7.83691C13.1078 7.79337 13.0106 7.74258 12.9189 7.68359C12.9084 7.67681 12.8987 7.66902 12.8887 7.66211C12.8811 7.65703 12.8737 7.65166 12.8662 7.64648C12.8508 7.63538 12.8356 7.62468 12.8213 7.61328C12.3241 7.24943 12 6.66328 12 6V2H4V20H9C9.55228 20 10 20.4477 10 21C10 21.5523 9.55228 22 9 22H4C2.89543 22 2 21.1046 2 20V2C2 0.895431 2.89543 0 4 0H13.1719ZM11 14C11.5523 14 12 14.4477 12 15C12 15.5523 11.5523 16 11 16H7C6.44772 16 6 15.5523 6 15C6 14.4477 6.44772 14 7 14H11ZM13 10C13.5523 10 14 10.4477 14 11C14 11.5523 13.5523 12 13 12H7C6.44772 12 6 11.5523 6 11C6 10.4477 6.44772 10 7 10H13ZM14 6H18L14 2V6Z" fill="#404040"/>
</svg>
