<svg width="24" height="24" viewBox="0 0 24 24" fill="none" xmlns="http://www.w3.org/2000/svg">
<path d="M17 13.999C19.76 14.0024 21.9966 16.2391 22 18.999C22 21.7604 19.7614 23.999 17 23.999C14.2386 23.999 12 21.7604 12 18.999C12.0001 16.2377 14.2386 13.999 17 13.999ZM17.0029 15.1494C16.6845 15.1495 16.426 15.4072 16.4258 15.7256V15.9951C16.4301 16.0714 16.3755 16.1387 16.2998 16.1494C15.5961 16.2811 15.0609 16.8581 14.9893 17.5693C14.9178 18.2808 15.3273 18.9537 15.9922 19.2168L17.5791 19.8555C17.7809 19.9369 17.8974 20.1496 17.8564 20.3633C17.8152 20.5771 17.6279 20.7328 17.4102 20.7334H15.8457C15.5274 20.7336 15.2697 20.9912 15.2695 21.3096C15.2695 21.628 15.5273 21.8865 15.8457 21.8867H16.2969C16.3661 21.8891 16.4213 21.9454 16.4229 22.0146V22.2715C16.4229 22.5901 16.6814 22.8486 17 22.8486C17.3186 22.8486 17.5771 22.5901 17.5771 22.2715V21.999C17.5688 21.9286 17.6139 21.8633 17.6826 21.8457C18.3936 21.7297 18.9396 21.152 19.0156 20.4355C19.0916 19.719 18.6788 19.0399 18.0078 18.7773L16.4209 18.1426C16.219 18.0611 16.1025 17.8476 16.1436 17.6338C16.1848 17.42 16.3721 17.2653 16.5898 17.2646H18.1543C18.4727 17.2644 18.7305 17.006 18.7305 16.6875C18.7304 16.3691 18.4727 16.1106 18.1543 16.1104H17.71C17.6397 16.1095 17.5825 16.0536 17.5801 15.9834V15.7256C17.5799 15.4071 17.3214 15.1494 17.0029 15.1494ZM13.1719 0C13.7022 6.47379e-05 14.2109 0.210932 14.5859 0.585938L19.4141 5.41406C19.7891 5.78908 19.9999 6.29777 20 6.82812V12C20 12.5523 19.5523 13 19 13H16.9189C14.0589 13 11.5961 15.0187 11.0352 17.8232L11 18V21C11 21.5523 10.5523 22 10 22H4C3.93108 22 3.86302 21.9961 3.7959 21.9893C2.78722 21.887 2 21.0357 2 20V2C2 0.895443 2.89545 1.95851e-05 4 0H13.1719ZM7 14C6.44777 14.0001 6 14.4478 6 15C6 15.5522 6.44777 15.9999 7 16H9C9.55228 16 10 15.5523 10 15C10 14.4477 9.55228 14 9 14H7ZM7 10C6.44777 10.0001 6 10.4478 6 11C6 11.5522 6.44777 11.9999 7 12H13C13.5523 12 14 11.5523 14 11C14 10.4477 13.5523 10 13 10H7ZM14 6H18L14 2V6Z" fill="#404040"/>
</svg>
