<svg width="24" height="24" viewBox="0 0 24 24" fill="none" xmlns="http://www.w3.org/2000/svg">
<path d="M17 14C19.76 14.0034 21.9966 16.24 22 19C22 21.7614 19.7614 24 17 24C14.2386 24 12 21.7614 12 19C12.0001 16.2386 14.2386 14 17 14ZM17 15.667C15.1591 15.667 13.667 17.1591 13.667 19C13.667 20.8409 15.1591 22.333 17 22.333C18.8409 22.333 20.333 20.8409 20.333 19C20.3307 17.16 18.84 15.6693 17 15.667ZM13.1719 0C13.7022 0.000106842 14.211 0.210962 14.5859 0.585938L19.4141 5.41406C19.7891 5.78908 19.9999 6.29778 20 6.82812V11C19.9999 11.5522 19.5522 12 19 12C18.4478 12 18.0001 11.5522 18 11V8H14C13.9337 8 13.8683 7.99553 13.8037 7.98926C13.7962 7.98852 13.7888 7.98714 13.7812 7.98633C13.7218 7.97988 13.6632 7.97148 13.6055 7.95996C13.6013 7.95912 13.597 7.95887 13.5928 7.95801C13.5305 7.94516 13.4692 7.92962 13.4092 7.91113C13.4036 7.9094 13.3982 7.90705 13.3926 7.90527C13.3388 7.88819 13.2861 7.86906 13.2344 7.84766C13.2259 7.84413 13.2174 7.84055 13.209 7.83691C13.1078 7.79337 13.0106 7.74258 12.9189 7.68359C12.9084 7.67681 12.8987 7.66902 12.8887 7.66211C12.8811 7.65703 12.8737 7.65166 12.8662 7.64648C12.8508 7.63538 12.8356 7.62468 12.8213 7.61328C12.3241 7.24943 12 6.66328 12 6V2H4V20H9C9.55228 20 10 20.4477 10 21C10 21.5523 9.55228 22 9 22H4C2.89543 22 2 21.1046 2 20V2C2 0.895431 2.89543 0 4 0H13.1719ZM16.834 16.667C17.1099 16.6673 17.334 16.891 17.334 17.167V18.667H18.334C18.6098 18.6673 18.8339 18.8911 18.834 19.167C18.8338 19.4428 18.6098 19.6667 18.334 19.667H16.834C16.7997 19.667 16.7657 19.6638 16.7334 19.6572C16.6685 19.644 16.6078 19.6177 16.5547 19.582C16.4481 19.5102 16.3705 19.3978 16.3438 19.2676C16.3372 19.2353 16.334 19.2012 16.334 19.167V17.167C16.334 16.8909 16.5578 16.667 16.834 16.667ZM11 14C11.5523 14 12 14.4477 12 15C12 15.5523 11.5523 16 11 16H7C6.44772 16 6 15.5523 6 15C6 14.4477 6.44772 14 7 14H11ZM13 10C13.5523 10 14 10.4477 14 11C14 11.5523 13.5523 12 13 12H7C6.44772 12 6 11.5523 6 11C6 10.4477 6.44772 10 7 10H13ZM14 6H18L14 2V6Z" fill="#404040"/>
</svg>
