<svg width="24" height="24" viewBox="0 0 24 24" fill="none" xmlns="http://www.w3.org/2000/svg">
<g clip-path="url(#clip0_466_1043)">
<path d="M16.3008 0.000976716C16.6117 0.000991402 16.915 0.0752709 17.1924 0.214844C17.4001 0.31941 17.5889 0.456514 17.7529 0.620117L17.9092 0.791992L21.4033 5.04395L21.542 5.23047C21.845 5.67971 21.9999 6.22466 22 6.76953V20.7549C21.9992 21.5704 21.7334 22.3779 21.2266 22.9941C20.7157 23.615 19.9893 23.9994 19.1963 24H4.80566C4.0122 24.0003 3.28579 23.6161 2.77441 22.9951C2.267 22.3788 2.00076 21.5709 2 20.7549V3.25098C1.99978 2.84385 2.06526 2.43735 2.19531 2.05469C2.32555 1.67175 2.51999 1.31405 2.77246 1.00684C3.02503 0.699583 3.33292 0.446724 3.68262 0.270508C4.03313 0.0939734 4.41551 -0.000138835 4.80566 1.53727e-07H16.3008V0.000976716ZM4.80469 2.12109C4.7224 2.12111 4.63674 2.14135 4.55078 2.18457C4.46394 2.22831 4.3745 2.29825 4.29297 2.39746C4.21145 2.49677 4.14023 2.6225 4.08984 2.77051C4.03946 2.91882 4.01161 3.08259 4.01172 3.25V20.752C4.01197 21.0955 4.12587 21.4002 4.29297 21.6035C4.45627 21.8019 4.64472 21.8789 4.80469 21.8789H19.1943C19.3543 21.8788 19.5437 21.802 19.707 21.6035C19.8738 21.4005 19.9867 21.0967 19.9873 20.7539V7.95605H16.4619C15.8282 7.95605 15.2205 7.69024 14.7725 7.21777C14.5507 6.98397 14.374 6.70681 14.2539 6.40137C14.1338 6.09573 14.0723 5.76735 14.0723 5.43652V2.12109H4.80469ZM13.0293 10C13.3132 10.0003 13.543 10.2307 13.543 10.5146V12.0566C13.543 12.2776 13.7224 12.457 13.9434 12.457H15.4854C15.7694 12.457 16 12.6876 16 12.9717V15.0283C16 15.3124 15.7694 15.543 15.4854 15.543H13.9434C13.7224 15.543 13.543 15.7224 13.543 15.9434V17.4854C13.543 17.7693 13.3132 17.9997 13.0293 18H10.9717C10.8353 18 10.7038 17.9461 10.6074 17.8496C10.5111 17.7531 10.4578 17.6217 10.458 17.4854V15.9434C10.458 15.7224 10.2785 15.543 10.0576 15.543H8.51465C8.23055 15.543 8 15.3124 8 15.0283V12.9717C8 12.6876 8.23055 12.457 8.51465 12.457H10.0576C10.2785 12.457 10.458 12.2776 10.458 12.0566V10.5146C10.4578 10.3783 10.5111 10.2469 10.6074 10.1504C10.7038 10.0539 10.8353 10 10.9717 10H13.0293ZM16.085 5.43652C16.085 5.48873 16.0943 5.54063 16.1133 5.58887C16.1322 5.63689 16.1595 5.68096 16.1943 5.71777C16.2651 5.79237 16.3619 5.83398 16.4619 5.83398H19.3906L16.3877 2.18262V2.18164C16.3624 2.15116 16.3401 2.13595 16.3262 2.12891L16.3008 2.12109H16.085V5.43652Z" fill="#404040"/>
</g>
<defs>
<clipPath id="clip0_466_1043">
<rect width="24" height="24" fill="white"/>
</clipPath>
</defs>
</svg>
