<svg width="24" height="24" viewBox="0 0 24 24" fill="none" xmlns="http://www.w3.org/2000/svg">
<path d="M18.019 12C19.7703 12.0134 21.5057 12.3385 23.1431 12.96C23.6631 13.1865 24.0003 13.7003 24.0005 14.2676V17.3994C23.8174 20.268 21.9275 22.7454 19.2095 23.6807C18.8348 23.8565 18.4314 23.9646 18.019 24C17.6071 23.9644 17.2048 23.8563 16.8306 23.6807C13.9867 22.597 12.0007 20.0144 12.0005 17.3994V14.2676C12.0006 13.7003 12.3368 13.1865 12.8569 12.96C14.5085 12.3415 16.2555 12.0166 18.019 12ZM18.0005 13.6152C17.6181 13.6152 17.3081 13.9253 17.3081 14.3076V16.1543C17.3078 16.2815 17.2039 16.3848 17.0766 16.3848H15.2309C14.8486 16.3848 14.5386 16.6948 14.5386 17.0771C14.5386 17.4595 14.8486 17.7695 15.2309 17.7695H17.0766C17.2041 17.7695 17.3081 17.8726 17.3081 18V19.8457C17.3081 20.2281 17.6181 20.5381 18.0005 20.5381C18.3826 20.5379 18.6929 20.2279 18.6929 19.8457V18C18.6929 17.8726 18.7959 17.7695 18.9233 17.7695H20.769C21.1513 17.7695 21.4613 17.4595 21.4614 17.0771C21.4614 16.6948 21.1514 16.3848 20.769 16.3848H18.9233C18.796 16.3848 18.6931 16.2815 18.6929 16.1543V14.3076C18.6928 13.9254 18.3826 13.6155 18.0005 13.6152ZM7.59227 10C9.06395 10.0033 10.5057 10.4642 11.7524 11.3301C11.8814 11.4193 11.9695 11.5661 11.9936 11.7324C12.0177 11.8991 11.9752 12.0697 11.8774 12.1992C10.9434 13.4397 11.3181 14.9291 11.064 16.5195C11.0181 16.7979 9.79982 17.0005 9.54442 17H0.526841C0.360465 17 0.203384 16.9124 0.103989 16.7646C0.00488277 16.617 -0.0254818 16.4263 0.0219582 16.25C1.03299 12.5527 4.10353 10.0176 7.59227 10ZM8.50047 0C10.9856 0.000235652 13.0005 2.01486 13.0005 4.5C13.0005 6.98514 10.9856 8.99976 8.50047 9C6.01519 9 4.00047 6.98528 4.00047 4.5C4.00047 2.01472 6.01519 0 8.50047 0Z" fill="#404040"/>
</svg>
