<svg width="24" height="24" viewBox="0 0 24 24" fill="none" xmlns="http://www.w3.org/2000/svg">
<g clip-path="url(#clip0_620_448)">
<path d="M13.875 21.5V21.5049C14.0485 21.5045 14.2095 21.5946 14.3008 21.7422C14.392 21.8896 14.4007 22.0735 14.3232 22.2285L13.9873 22.9004C13.6491 23.5767 12.9563 24.0026 12.2002 24H11.7998C11.0428 24.0015 10.3501 23.5727 10.0137 22.8945L9.67773 22.2236C9.60029 22.0687 9.60826 21.8847 9.69922 21.7373C9.79029 21.5898 9.95164 21.5 10.125 21.5H13.875ZM12 6C14.839 5.99789 17.3503 7.84031 18.2012 10.5488C19.0518 13.2573 18.045 16.2045 15.7148 17.8262C15.5802 17.9196 15.4999 18.0734 15.5 18.2373V19C15.5 19.5523 15.0523 20 14.5 20H9.5C8.94772 20 8.50001 19.5523 8.5 19V18.2383C8.50006 18.0744 8.41978 17.9206 8.28516 17.8271C5.96101 16.2021 4.95874 13.2573 5.80859 10.5518C6.65857 7.84639 9.16422 6.00421 12 6ZM3 12C3.55228 12 4 12.4477 4 13C4 13.5523 3.55228 14 3 14H1C0.447717 14 3.76893e-06 13.5523 0 13C0 12.4477 0.447715 12 1 12H3ZM23 12C23.5523 12 24 12.4477 24 13C24 13.5523 23.5523 14 23 14H21C20.4477 14 20 13.5523 20 13C20 12.4477 20.4477 12 21 12H23ZM19.7783 3.80762C20.1688 3.41766 20.802 3.41742 21.1924 3.80762C21.5826 4.19799 21.5824 4.83115 21.1924 5.22168L19.4248 6.99023C19.1737 7.25003 18.8017 7.35418 18.4521 7.2627C18.1027 7.17111 17.8298 6.89825 17.7383 6.54883C17.6468 6.19928 17.7509 5.82724 18.0107 5.57617L19.7783 3.80762ZM2.82031 3.82031C3.20591 3.43471 3.82928 3.42904 4.22168 3.80762L5.99023 5.57617C6.36901 5.96855 6.36317 6.59186 5.97754 6.97754C5.59188 7.3632 4.96856 7.36899 4.57617 6.99023L2.80762 5.22168C2.42901 4.82928 2.4347 4.20593 2.82031 3.82031ZM12 0C12.5523 0 13 0.44772 13 1V3.5C13 4.05228 12.5523 4.5 12 4.5C11.4477 4.5 11 4.05228 11 3.5V1C11 0.44772 11.4477 0 12 0Z" fill="#404040"/>
</g>
<defs>
<clipPath id="clip0_620_448">
<rect width="24" height="24" fill="white"/>
</clipPath>
</defs>
</svg>
