<svg width="24" height="24" viewBox="0 0 24 24" fill="none" xmlns="http://www.w3.org/2000/svg">
<g clip-path="url(#clip0_620_449)">
<path d="M13.877 21.5C14.0503 21.5 14.2117 21.5898 14.3027 21.7373C14.3937 21.8847 14.4017 22.0688 14.3242 22.2236L13.9893 22.8945C13.6524 23.5737 12.9584 24.0023 12.2002 24H11.7998C11.0423 24.0015 10.3493 23.5731 10.0127 22.8945L9.67773 22.2236C9.60031 22.0688 9.60832 21.8847 9.69922 21.7373C9.79029 21.5898 9.95164 21.5 10.125 21.5H13.877ZM12 6C14.808 5.99723 17.3037 7.78882 18.1992 10.4502C19.0947 13.1116 18.1898 16.0479 15.9512 17.7432C15.8183 17.8426 15.7431 18.0012 15.751 18.167L15.7686 18.5244V18.5547C15.7587 19.3549 15.1079 19.999 14.3076 20H9.69238C9.3039 20.0003 8.93102 19.8459 8.65625 19.5713C8.38148 19.2965 8.22633 18.9237 8.22656 18.5352V18.0908C8.22652 17.9336 8.15298 17.7858 8.02734 17.6914C6.40499 16.4764 5.45297 14.5649 5.46094 12.5381C5.4654 8.92869 8.3906 6.00386 12 6ZM12.0039 7.99219C10.0208 7.99223 8.2678 9.27986 7.67383 11.1719C7.07989 13.064 7.78277 15.1225 9.41016 16.2559C9.92663 16.6153 10.2349 17.2047 10.2354 17.834C10.2351 17.8779 10.2522 17.92 10.2832 17.9512C10.3142 17.9823 10.3565 18 10.4004 18H13.5996C13.6442 18.001 13.6877 17.9842 13.7197 17.9531C13.7517 17.9219 13.7695 17.8787 13.7695 17.834C13.7697 17.2049 14.0777 16.6155 14.5938 16.2559C16.2251 15.1225 16.9289 13.064 16.335 11.1719C15.741 9.27975 13.9871 7.99219 12.0039 7.99219ZM3 12C3.55228 12 4 12.4477 4 13C4 13.5523 3.55228 14 3 14H1C0.447715 14 0 13.5523 0 13C0 12.4477 0.447715 12 1 12H3ZM23 12C23.5523 12 24 12.4477 24 13C24 13.5523 23.5523 14 23 14H21C20.4477 14 20 13.5523 20 13C20 12.4477 20.4477 12 21 12H23ZM19.7783 3.80762C20.1688 3.41757 20.802 3.41735 21.1924 3.80762C21.5826 4.19799 21.5824 4.83115 21.1924 5.22168L19.4238 6.98926C19.1728 7.24906 18.8007 7.3532 18.4512 7.26172C18.1018 7.17015 17.8289 6.89721 17.7373 6.54785C17.6458 6.19833 17.75 5.82626 18.0098 5.5752L19.7783 3.80762ZM2.82031 3.82031C3.20593 3.43469 3.82928 3.42898 4.22168 3.80762L5.99023 5.5752C6.36896 5.96759 6.36319 6.5909 5.97754 6.97656C5.59188 7.36221 4.96856 7.36801 4.57617 6.98926L2.80762 5.22168C2.42902 4.82928 2.43471 4.20593 2.82031 3.82031ZM12 0C12.5523 0 13 0.44772 13 1V3.5C13 4.05228 12.5523 4.5 12 4.5C11.4477 4.5 11 4.05228 11 3.5V1C11 0.44772 11.4477 0 12 0Z" fill="#404040"/>
</g>
<defs>
<clipPath id="clip0_620_449">
<rect width="24" height="24" fill="white"/>
</clipPath>
</defs>
</svg>
