<svg width="24" height="24" viewBox="0 0 24 24" fill="none" xmlns="http://www.w3.org/2000/svg">
<g clip-path="url(#clip0_114_1200)">
<path d="M5.4541 7.63672V24H0V7.63672H5.4541ZM12.5459 9.75879C13.3272 8.73239 14.9961 7.63672 18 7.63672C22.7235 7.63672 23.9999 12.3488 24 15.2725V24H18.5459V15.2725C18.5458 14.1815 17.9999 12.0001 15.8184 12C14.2695 12 13.1787 13.0993 12.5459 14.1279V24H7.63672V7.63672H12.5459V9.75879ZM2.72754 0C3.45066 7.0509e-05 4.14389 0.287567 4.65527 0.798828C5.16674 1.31029 5.4541 2.00422 5.4541 2.72754C5.45403 3.45076 5.16667 4.14387 4.65527 4.65527C4.14387 5.16667 3.45076 5.45403 2.72754 5.4541C2.00422 5.4541 1.31029 5.16674 0.798828 4.65527C0.287567 4.14389 7.05089e-05 3.45066 0 2.72754C0 2.00422 0.287365 1.31029 0.798828 0.798828C1.31029 0.287365 2.00422 0 2.72754 0Z" fill="#404040"/>
</g>
<defs>
<clipPath id="clip0_114_1200">
<rect width="24" height="24" fill="white"/>
</clipPath>
</defs>
</svg>
