<svg width="24" height="24" viewBox="0 0 24 24" fill="none" xmlns="http://www.w3.org/2000/svg">
<g clip-path="url(#clip0_692_2012)">
<path d="M16.3008 0.000976562C16.6117 0.000991248 16.915 0.0752707 17.1924 0.214844C17.4001 0.31941 17.5889 0.456514 17.7529 0.620117L17.9092 0.791992L21.4033 5.04395L21.542 5.23047C21.845 5.67971 21.9999 6.22466 22 6.76953V20.7549C21.9992 21.5704 21.7334 22.3779 21.2266 22.9941C20.7157 23.615 19.9893 23.9994 19.1963 24H4.80566C4.0122 24.0003 3.28579 23.6161 2.77441 22.9951C2.267 22.3788 2.00076 21.5709 2 20.7549V3.25098C1.99978 2.84385 2.06526 2.43735 2.19531 2.05469C2.32555 1.67175 2.51999 1.31405 2.77246 1.00684C3.02503 0.699583 3.33292 0.446723 3.68262 0.270508C4.03313 0.0939733 4.41551 -0.000138989 4.80566 0H16.3008V0.000976562ZM4.80469 2.12109C4.7224 2.12111 4.63674 2.14135 4.55078 2.18457C4.46393 2.22831 4.3745 2.29825 4.29297 2.39746C4.21145 2.49677 4.14023 2.6225 4.08984 2.77051C4.03946 2.91882 4.01161 3.08259 4.01172 3.25V20.752C4.01197 21.0955 4.12587 21.4002 4.29297 21.6035C4.45627 21.8019 4.64471 21.8789 4.80469 21.8789H19.1943C19.3543 21.8788 19.5437 21.802 19.707 21.6035C19.8738 21.4005 19.9867 21.0967 19.9873 20.7539V7.95605H16.4619C15.8282 7.95605 15.2205 7.69024 14.7725 7.21777C14.5507 6.98397 14.374 6.70681 14.2539 6.40137C14.1338 6.09573 14.0723 5.76735 14.0723 5.43652V2.12109H4.80469ZM14 16C14.5523 16 15 16.4477 15 17C15 17.5523 14.5523 18 14 18H7C6.44772 18 6 17.5523 6 17C6 16.4477 6.44772 16 7 16H14ZM17 16C17.5523 16 18 16.4477 18 17C18 17.5523 17.5523 18 17 18C16.4477 18 16 17.5523 16 17C16 16.4477 16.4477 16 17 16ZM14 13C14.5523 13 15 13.4477 15 14C15 14.5523 14.5523 15 14 15H7C6.44772 15 6 14.5523 6 14C6 13.4477 6.44772 13 7 13H14ZM17 13C17.5523 13 18 13.4477 18 14C18 14.5523 17.5523 15 17 15C16.4477 15 16 14.5523 16 14C16 13.4477 16.4477 13 17 13ZM14 10C14.5523 10 15 10.4477 15 11C15 11.5523 14.5523 12 14 12H7C6.44772 12 6 11.5523 6 11C6 10.4477 6.44772 10 7 10H14ZM17 10C17.5523 10 18 10.4477 18 11C18 11.5523 17.5523 12 17 12C16.4477 12 16 11.5523 16 11C16 10.4477 16.4477 10 17 10ZM16.085 5.43652C16.085 5.48873 16.0943 5.54063 16.1133 5.58887C16.1322 5.63689 16.1595 5.68096 16.1943 5.71777C16.2651 5.79237 16.3619 5.83398 16.4619 5.83398H19.3906L16.3877 2.18262V2.18164C16.3624 2.15116 16.3401 2.13595 16.3262 2.12891L16.3008 2.12109H16.085V5.43652Z" fill="#404040"/>
</g>
<defs>
<clipPath id="clip0_692_2012">
<rect width="24" height="24" fill="white"/>
</clipPath>
</defs>
</svg>
