<svg width="24" height="24" viewBox="0 0 24 24" fill="none" xmlns="http://www.w3.org/2000/svg">
<path fill-rule="evenodd" clip-rule="evenodd" d="M3 11.999C4.65685 11.999 6 13.3422 6 14.999C6 16.6559 4.65685 17.999 3 17.999C1.34315 17.999 0 16.6559 0 14.999C0 13.3422 1.34315 11.999 3 11.999ZM21 11.999C22.6569 11.999 24 13.3422 24 14.999C24 16.6559 22.6569 17.999 21 17.999C19.3431 17.999 18 16.6559 18 14.999C18 13.3422 19.3431 11.999 21 11.999ZM12 5.99902C13.6569 5.99902 15 7.34217 15 8.99902C15 10.6559 13.6569 11.999 12 11.999C10.3431 11.999 9 10.6559 9 8.99902C9 7.34217 10.3431 5.99902 12 5.99902Z" fill="#404040"/>
</svg>
