<svg width="24" height="24" viewBox="0 0 24 24" fill="none" xmlns="http://www.w3.org/2000/svg">
<g clip-path="url(#clip0_468_1187)">
<path d="M16.3008 0.000976716C16.6117 0.000991401 16.915 0.0752714 17.1924 0.214844C17.4001 0.31941 17.5889 0.456514 17.7529 0.620117L17.9092 0.791992L21.4033 5.04395L21.542 5.23047C21.845 5.67971 21.9999 6.22466 22 6.76953V20.7549C21.9992 21.5704 21.7334 22.3779 21.2266 22.9941C20.7157 23.615 19.9893 23.9994 19.1963 24H4.80566C4.01221 24.0003 3.28579 23.6161 2.77441 22.9951C2.26701 22.3788 2.00076 21.5709 2 20.7549V3.25098C1.99978 2.84385 2.06526 2.43735 2.19531 2.05469C2.32555 1.67175 2.51999 1.31405 2.77246 1.00684C3.02503 0.699583 3.33292 0.446724 3.68262 0.270508C4.03313 0.0939737 4.41551 -0.000138561 4.80566 1.5312e-07H16.3008V0.000976716ZM4.80469 2.12109C4.7224 2.12111 4.63673 2.14135 4.55078 2.18457C4.46394 2.22831 4.3745 2.29825 4.29297 2.39746C4.21145 2.49677 4.14023 2.6225 4.08984 2.77051C4.03946 2.91882 4.01161 3.08259 4.01172 3.25V20.752C4.01197 21.0955 4.12587 21.4002 4.29297 21.6035C4.45627 21.8019 4.64472 21.8789 4.80469 21.8789H19.1943C19.3543 21.8788 19.5437 21.802 19.707 21.6035C19.8738 21.4005 19.9867 21.0967 19.9873 20.7539V7.95605H16.4619C15.8282 7.95605 15.2205 7.69024 14.7725 7.21777C14.5507 6.98397 14.374 6.70681 14.2539 6.40137C14.1338 6.09573 14.0723 5.76735 14.0723 5.43652V2.12109H4.80469ZM9 18C9.55229 18 10 18.4477 10 19C10 19.5523 9.55229 20 9 20H7C6.44772 20 6 19.5523 6 19C6 18.4477 6.44772 18 7 18H9ZM17 18C17.5523 18 18 18.4477 18 19C18 19.5523 17.5523 20 17 20H12C11.4477 20 11 19.5523 11 19C11 18.4477 11.4477 18 12 18H17ZM9 15C9.55229 15 10 15.4477 10 16C10 16.5523 9.55229 17 9 17H7C6.44772 17 6 16.5523 6 16C6 15.4477 6.44772 15 7 15H9ZM17 15C17.5523 15 18 15.4477 18 16C18 16.5523 17.5523 17 17 17H12C11.4477 17 11 16.5523 11 16C11 15.4477 11.4477 15 12 15H17ZM8.5 3.7998C8.97032 3.79995 9.41406 4.12695 9.41406 4.59961V4.79883H9.92383C10.394 4.79911 10.8369 5.12608 10.8369 5.59863C10.8369 6.07116 10.394 6.39815 9.92383 6.39844H7.99023L7.91797 6.40332C7.75892 6.42766 7.65511 6.52946 7.63281 6.62598C7.60993 6.72575 7.66848 6.86006 7.84277 6.91992L9.80469 7.58008C10.704 7.87582 11.2959 8.65769 11.1875 9.51758C11.0812 10.3594 10.3371 11.0051 9.41016 11.1484V11.4004C9.41016 11.873 8.96642 12.2001 8.49609 12.2002C8.02587 12.1999 7.58301 11.8729 7.58301 11.4004V11.2012H7.06934C6.59905 11.201 6.15625 10.874 6.15625 10.4014C6.15629 9.92878 6.59907 9.60174 7.06934 9.60156H9.00293C9.20216 9.60102 9.33474 9.48445 9.36035 9.37402C9.38326 9.27404 9.32398 9.13872 9.14844 9.0791L7.18652 8.41602C6.2956 8.11941 5.70943 7.34476 5.81152 6.49121C5.91274 5.64624 6.65665 4.99482 7.58691 4.84375V4.59961C7.58691 4.12702 8.02975 3.80003 8.5 3.7998ZM16.085 5.43652C16.085 5.48873 16.0943 5.54064 16.1133 5.58887C16.1322 5.63689 16.1595 5.68096 16.1943 5.71777C16.2651 5.79237 16.3619 5.83398 16.4619 5.83398H19.3906L16.3877 2.18262V2.18164C16.3624 2.15116 16.3401 2.13595 16.3262 2.12891L16.3008 2.12109H16.085V5.43652Z" fill="#404040"/>
</g>
<defs>
<clipPath id="clip0_468_1187">
<rect width="24" height="24" fill="white"/>
</clipPath>
</defs>
</svg>
