<svg width="24" height="24" viewBox="0 0 24 24" fill="none" xmlns="http://www.w3.org/2000/svg">
<g clip-path="url(#clip0_114_1142)">
<path d="M20.4209 20.7275C20.8397 20.7275 21.241 20.9002 21.5371 21.207C21.8331 21.5138 21.9999 21.9294 22 22.3633C22 22.7973 21.8332 23.2136 21.5371 23.5205C21.241 23.8273 20.8396 24 20.4209 24H3.5791C3.16038 24 2.75899 23.8273 2.46289 23.5205C2.16678 23.2136 2 22.7973 2 22.3633C2.0001 21.9294 2.16688 21.5138 2.46289 21.207C2.759 20.9002 3.16034 20.7275 3.5791 20.7275H20.4209ZM12 0C14.0937 1.05024e-05 16.1015 0.862188 17.582 2.39648C19.0625 3.93083 19.8945 6.01175 19.8945 8.18164C19.8945 12.6106 12.6425 18.7084 12.3262 18.9707C12.2332 19.0469 12.1186 19.0893 12 19.0908C11.8814 19.0893 11.7668 19.047 11.6738 18.9707C11.358 18.7089 4.10547 12.6107 4.10547 8.18164C4.10551 6.01175 4.93746 3.93083 6.41797 2.39648C7.8985 0.862202 9.90626 0 12 0ZM12 4.90918C11.3021 4.90918 10.6322 5.19655 10.1387 5.70801C9.64534 6.21944 9.36816 6.91354 9.36816 7.63672C9.36823 8.17588 9.52255 8.70303 9.81152 9.15137C10.1007 9.59986 10.5123 9.94983 10.9932 10.1562C11.4739 10.3626 12.0033 10.4167 12.5137 10.3115C13.024 10.2063 13.4924 9.9458 13.8604 9.56445C14.2284 9.18304 14.4795 8.69701 14.5811 8.16797C14.6825 7.63915 14.6307 7.09091 14.4316 6.59277C14.2325 6.09449 13.8946 5.66881 13.4619 5.36914C13.0292 5.06947 12.5205 4.90919 12 4.90918Z" fill="#404040"/>
</g>
<defs>
<clipPath id="clip0_114_1142">
<rect width="24" height="24" fill="white"/>
</clipPath>
</defs>
</svg>
