<svg width="24" height="24" viewBox="0 0 24 24" fill="none" xmlns="http://www.w3.org/2000/svg">
<g clip-path="url(#clip0_531_903)">
<path d="M12 0C12.5523 0 13 0.44772 13 1V2.62305C13.0004 2.8684 13.1786 3.07742 13.4209 3.11621C17.2567 3.73609 20.2639 6.74331 20.8838 10.5791C20.9226 10.8213 21.1316 10.9996 21.377 11H23C23.5523 11 24 11.4477 24 12C24 12.5523 23.5523 13 23 13H21.377C21.1316 13.0004 20.9226 13.1787 20.8838 13.4209C20.2639 17.2567 17.2567 20.2639 13.4209 20.8838C13.1786 20.9226 13.0004 21.1316 13 21.377V23C13 23.5523 12.5523 24 12 24C11.4477 24 11 23.5523 11 23V21.377C10.9996 21.1316 10.8214 20.9226 10.5791 20.8838C6.74331 20.2639 3.73609 17.2567 3.11621 13.4209C3.07741 13.1787 2.86837 13.0004 2.62305 13H1C0.447715 13 0 12.5523 0 12C0 11.4477 0.447715 11 1 11H2.62305C2.86837 10.9996 3.07741 10.8213 3.11621 10.5791C3.73609 6.74331 6.74331 3.73609 10.5791 3.11621C10.8214 3.07742 10.9996 2.8684 11 2.62305V1C11 0.44772 11.4477 0 12 0ZM12 5C8.13401 5 5 8.13401 5 12C5 15.866 8.13401 19 12 19C15.8642 18.9956 18.9956 15.8642 19 12C19 8.13401 15.866 5 12 5ZM12 8C14.2091 8 16 9.79086 16 12C16 14.2091 14.2091 16 12 16C9.79086 16 8 14.2091 8 12C8 9.79086 9.79086 8 12 8Z" fill="#404040"/>
</g>
<defs>
<clipPath id="clip0_531_903">
<rect width="24" height="24" fill="white"/>
</clipPath>
</defs>
</svg>
