<svg width="24" height="24" viewBox="0 0 24 24" fill="none" xmlns="http://www.w3.org/2000/svg">
<g clip-path="url(#clip0_709_18884)">
<path d="M12.0029 0C12.6788 0 13.2273 0.547791 13.2275 1.22363V2.61816C13.2278 2.85394 13.3953 3.05679 13.627 3.10059C17.3283 3.78176 20.2245 6.67754 20.9053 10.3789C20.9482 10.6108 21.1509 10.7794 21.3867 10.7793H22.7764C23.4523 10.7793 24.0008 11.3271 24.001 12.0029C24.001 12.6789 23.4524 13.2275 22.7764 13.2275H21.3877C21.1518 13.2274 20.9488 13.3951 20.9053 13.627C20.6783 14.8924 20.1824 16.0948 19.4512 17.1523C19.3166 17.3467 19.3411 17.6097 19.5088 17.7764L23.6416 21.9102C23.9508 22.2194 24.0712 22.6704 23.958 23.0928C23.8448 23.5151 23.5151 23.8448 23.0928 23.958C22.6704 24.0712 22.2194 23.9508 21.9102 23.6416L0.359375 2.08984C-0.118637 1.61183 -0.118637 0.837385 0.359375 0.359375C0.837387 -0.118635 1.61183 -0.118635 2.08984 0.359375L6.22754 4.5C6.39587 4.6661 6.65911 4.68786 6.85254 4.55176C7.90989 3.81863 9.11252 3.32118 10.3789 3.09375C10.6107 3.05084 10.7793 2.84899 10.7793 2.61328V1.22363C10.7795 0.547893 11.3272 0.000164862 12.0029 0ZM3.42383 9.08301C3.65464 8.45956 4.3408 8.13425 4.96973 8.34961C5.59865 8.56513 5.94118 9.24294 5.74121 9.87695C4.92906 12.2606 5.54242 14.8992 7.32324 16.6797C9.10405 18.4601 11.7426 19.0733 14.126 18.2607C14.534 18.1196 14.992 18.21 15.3213 18.498C15.6505 18.7861 15.8016 19.2281 15.7168 19.6572C15.6319 20.0862 15.3241 20.437 14.9102 20.5781C14.4892 20.7197 14.0583 20.8301 13.6211 20.9082C13.3889 20.9512 13.2211 21.1545 13.2217 21.3906V22.7725C13.2217 23.4485 12.6731 23.9961 11.9971 23.9961C11.3211 23.996 10.7734 23.4484 10.7734 22.7725V21.3828C10.7732 21.1469 10.6049 20.9441 10.373 20.9004C6.67172 20.2192 3.77539 17.3225 3.09473 13.6211C3.05175 13.3894 2.84992 13.2217 2.61426 13.2217H1.22363C0.547805 13.2215 0 12.6729 0 11.9971C6.59547e-05 11.3212 0.547846 10.7737 1.22363 10.7734H2.61133C2.84725 10.7735 3.04944 10.605 3.09277 10.373C3.16971 9.93518 3.28043 9.50383 3.42383 9.08301ZM12 5.3877C10.8886 5.38638 9.79518 5.66789 8.82227 6.20508C8.68723 6.27918 8.59489 6.41293 8.57324 6.56543C8.55173 6.71781 8.60292 6.87181 8.71191 6.98047L17.0186 15.2861C17.1273 15.3952 17.2811 15.4465 17.4336 15.4248C17.5858 15.4031 17.7189 15.3114 17.793 15.1768C18.922 13.1301 18.8847 10.6385 17.6943 8.62695C16.5038 6.61533 14.3375 5.38275 12 5.3877Z" fill="#404040"/>
</g>
<defs>
<clipPath id="clip0_709_18884">
<rect width="24" height="24" fill="white"/>
</clipPath>
</defs>
</svg>
