<svg width="24" height="24" viewBox="0 0 24 24" fill="none" xmlns="http://www.w3.org/2000/svg">
<g clip-path="url(#clip0_536_965)">
<path d="M12.5 0C15.7736 0.000156309 18.4371 2.69193 18.4375 6V8.83105C18.5393 8.84542 18.6423 8.85003 18.7441 8.86523C20.3851 9.11032 21.644 10.4426 21.8027 12.1055V12.1064C21.9335 13.4845 21.9994 14.8619 22 16.2002C22 17.5385 21.9338 18.9159 21.8027 20.2939C21.6438 21.9565 20.387 23.2891 18.7451 23.5352C16.6726 23.8433 14.5722 24 12.5 24C10.4281 24 8.32744 23.8433 6.25586 23.5352C4.61331 23.2889 3.35563 21.9566 3.19727 20.2939C3.06674 18.9251 3 17.5477 3 16.2002C3 14.8527 3.06714 13.4755 3.19824 12.1055C3.35595 10.4433 4.61324 9.111 6.25586 8.86621C6.35758 8.85095 6.46049 8.84643 6.5625 8.83203V6C6.56258 2.69184 9.22632 0 12.5 0ZM12.5 12C11.1902 12 10.1253 13.0765 10.125 14.4004C10.1251 15.2845 10.6061 16.0494 11.3125 16.4658V19.2002C11.3126 19.8633 11.8443 20.4004 12.5 20.4004C13.1556 20.4002 13.6874 19.8632 13.6875 19.2002V16.4658C14.3936 16.0493 14.875 15.2835 14.875 14.3994C14.8747 13.0761 13.809 12.0002 12.5 12ZM12.5 2.40039C10.5356 2.40039 8.93758 4.0149 8.9375 6V8.56641C11.3086 8.36569 13.6906 8.36568 16.0625 8.56641V6C16.0624 4.01499 14.4643 2.40055 12.5 2.40039Z" fill="#404040"/>
</g>
<defs>
<clipPath id="clip0_536_965">
<rect width="24" height="24" fill="white"/>
</clipPath>
</defs>
</svg>
