<svg width="24" height="24" viewBox="0 0 24 24" fill="none" xmlns="http://www.w3.org/2000/svg">
<g clip-path="url(#clip0_2137_291)">
<path fill-rule="evenodd" clip-rule="evenodd" d="M17.9736 0C21.3016 0 24 2.6863 24 6V18C24 21.3137 21.3016 24 17.9736 24H13.1533C9.82534 24 7.12695 21.3137 7.12695 18C7.12695 17.3372 7.6674 16.7998 8.33301 16.7998C8.9984 16.8 9.53809 17.3374 9.53809 18C9.53809 19.9883 11.1566 21.5996 13.1533 21.5996H17.9736C19.9705 21.5996 21.5898 19.9883 21.5898 18V6C21.5898 4.01178 19.9705 2.40039 17.9736 2.40039H13.1533C11.1566 2.40039 9.53809 4.01178 9.53809 6C9.53809 6.66259 8.9984 7.19995 8.33301 7.2002C7.6674 7.2002 7.12695 6.66274 7.12695 6C7.12695 2.6863 9.82534 0 13.1533 0H17.9736ZM3.74219 7.69434C4.13347 7.15838 4.88739 7.03922 5.42578 7.42871C5.96423 7.81828 6.08262 8.57029 5.69141 9.10645L5.68652 9.11328L5.6709 9.13379L5.61523 9.20996C5.5667 9.27541 5.49575 9.36928 5.40723 9.48633C5.23041 9.72015 4.9803 10.0465 4.68457 10.418C4.58734 10.54 4.48423 10.6681 4.37695 10.7998H14.3584C15.024 10.7998 15.5635 11.3372 15.5635 12C15.5635 12.6628 15.024 13.2002 14.3584 13.2002H4.37695C4.48415 13.3318 4.58741 13.4591 4.68457 13.5811C4.98043 13.9527 5.23035 14.2798 5.40723 14.5137C5.49574 14.6308 5.56671 14.7245 5.61523 14.79L5.6709 14.8662L5.68652 14.8867L5.69238 14.8945L5.75977 14.9971C6.06708 15.5226 5.9303 16.205 5.42578 16.5703C4.88733 16.9598 4.13246 16.8407 3.74121 16.3047L3.73828 16.3008L3.72656 16.2842L3.67578 16.2158C3.6313 16.1559 3.56593 16.0675 3.48242 15.957C3.31499 15.7356 3.07679 15.4251 2.7959 15.0723C2.22799 14.3591 1.50809 13.5023 0.851562 12.8486L0 12L0.851562 11.1514C1.50813 10.4976 2.22797 9.63995 2.7959 8.92676C3.07666 8.57417 3.31504 8.26432 3.48242 8.04297C3.56592 7.93255 3.63129 7.84418 3.67578 7.78418L3.72656 7.71582L3.73828 7.69922L3.74219 7.69434Z" fill="#404040"/>
</g>
<defs>
<clipPath id="clip0_2137_291">
<rect width="24" height="24" fill="white"/>
</clipPath>
</defs>
</svg>
