<svg width="24" height="24" viewBox="0 0 24 24" fill="none" xmlns="http://www.w3.org/2000/svg">
<g clip-path="url(#clip0_213_956)">
<path fill-rule="evenodd" clip-rule="evenodd" d="M17.9203 17.8385C17.7594 17.4649 17.3807 17.2215 16.9607 17.2216H13.8181C13.7491 17.2218 13.6829 17.1955 13.6342 17.1486C13.5854 17.1016 13.5581 17.0379 13.5584 16.9716V1.5C13.5584 0.67155 12.8609 0 12.0006 0C11.1402 0 10.4427 0.67155 10.4427 1.5V16.9716C10.4427 17.1096 10.3265 17.2216 10.1831 17.2216H7.03838C6.61839 17.2216 6.2398 17.4652 6.07909 17.8389C5.91838 18.2125 6.00713 18.6426 6.30406 18.9286L11.2653 23.7067C11.4601 23.8945 11.7244 24 12.0001 24C12.2757 24 12.54 23.8945 12.7348 23.7067L17.697 18.9286C17.9935 18.6421 18.0816 18.2119 17.9203 17.8385Z" fill="#404040"/>
</g>
<defs>
<clipPath id="clip0_213_956">
<rect width="24" height="24" fill="white"/>
</clipPath>
</defs>
</svg>
