<svg width="24" height="24" viewBox="0 0 24 24" fill="none" xmlns="http://www.w3.org/2000/svg">
<g clip-path="url(#clip0_213_955)">
<path fill-rule="evenodd" clip-rule="evenodd" d="M17.6959 5.06134L12.7342 0.28119C12.3217 -0.09373 11.6773 -0.09373 11.2648 0.28119L6.30409 5.06134C6.00719 5.34746 5.91836 5.77764 6.07906 6.15143C6.23975 6.52522 6.61834 6.76901 7.03828 6.7691H10.1827C10.3261 6.7691 10.4423 6.8811 10.4423 7.01923V22.4992C10.4423 23.328 11.1397 23.9999 12 23.9999C12.8603 23.9999 13.5577 23.328 13.5577 22.4992V7.01923C13.5574 6.95282 13.5847 6.88906 13.6334 6.8421C13.6822 6.79514 13.7484 6.76884 13.8173 6.7691H16.9617C17.3817 6.76901 17.7602 6.52522 17.9209 6.15143C18.0816 5.77764 17.9928 5.34746 17.6959 5.06134Z" fill="#404040"/>
</g>
<defs>
<clipPath id="clip0_213_955">
<rect width="24" height="24" fill="white"/>
</clipPath>
</defs>
</svg>
