<svg width="24" height="24" viewBox="0 0 24 24" fill="none" xmlns="http://www.w3.org/2000/svg">
<path fill-rule="evenodd" clip-rule="evenodd" d="M9.17133 13.6305C6.67911 13.6305 4.28661 13.6305 1.7944 13.6305C1.59503 13.6305 1.39564 13.6305 1.19626 13.5273C0.498439 13.3211 0 12.7025 0 11.9807C0 11.2589 0.498439 10.6402 1.19626 10.4339C1.39564 10.4339 1.59503 10.4339 1.7944 10.4339C6.77883 10.4339 11.6636 10.4339 16.648 10.4339C17.1464 10.4339 17.1464 10.4339 17.1464 9.91832C17.1464 8.99028 17.1464 8.06229 17.1464 7.13425C17.1464 6.61868 17.3458 6.30935 17.7445 6.10312C18.243 5.89689 18.542 5.99998 18.9408 6.41244C20.5358 8.06229 22.0311 9.60905 23.6262 11.2589C24.1246 11.7745 24.1246 12.3931 23.6262 12.8055C22.0311 14.4554 20.5358 16.0022 18.9408 17.652C18.6417 17.9613 18.243 18.0644 17.8442 17.9613C17.4455 17.7551 17.2461 17.4458 17.2461 16.9302C17.2461 16.0022 17.2461 15.0742 17.2461 14.1461C17.2461 13.7337 17.2461 13.7336 16.8474 13.7336C14.2555 13.6305 11.6635 13.6305 9.17133 13.6305Z" fill="#404040"/>
</svg>
