<svg width="24" height="24" viewBox="0 0 24 24" fill="none" xmlns="http://www.w3.org/2000/svg">
<path fill-rule="evenodd" clip-rule="evenodd" d="M14.8287 13.6305C17.3209 13.6305 19.7134 13.6305 22.2056 13.6305C22.405 13.6305 22.6044 13.6305 22.8037 13.5274C23.5016 13.3212 24 12.7025 24 11.9807C24 11.2588 23.5016 10.6402 22.8037 10.4339C22.6044 10.4339 22.405 10.4339 22.2056 10.4339C17.2212 10.4339 12.3365 10.4339 7.35205 10.4339C6.85361 10.4339 6.85358 10.4339 6.85358 9.9183C6.85358 8.99026 6.85358 8.06225 6.85358 7.13421C6.85358 6.61863 6.65419 6.30934 6.25543 6.10311C5.75699 5.89688 5.45796 6.00002 5.0592 6.41248C3.46419 8.06232 1.96885 9.60895 0.37384 11.2588C-0.124603 11.7744 -0.124603 12.3931 0.37384 12.8055C1.96885 14.4554 3.46419 16.0021 5.0592 17.652C5.35827 17.9613 5.75701 18.0645 6.15576 17.9613C6.55452 17.7551 6.75391 17.4458 6.75391 16.9302C6.75391 16.0022 6.75391 15.0742 6.75391 14.1461C6.75391 13.7337 6.75389 13.7336 7.15265 13.7336C9.74455 13.6305 12.3365 13.6305 14.8287 13.6305Z" fill="#404040"/>
</svg>
