<svg width="24" height="24" viewBox="0 0 24 24" fill="none" xmlns="http://www.w3.org/2000/svg">
<path d="M17.5146 15C18.8281 15.0101 20.1294 15.2537 21.3574 15.7197C21.7474 15.8896 21.9998 16.2748 22 16.7002V19.0488C21.8628 21.2003 20.4458 23.0593 18.4072 23.7607C18.1263 23.8926 17.8239 23.9734 17.5146 24C17.2057 23.9734 16.9038 23.8925 16.623 23.7607C14.49 22.948 13 21.0101 13 19.0488V16.7002C13.0002 16.2748 13.2526 15.8896 13.6426 15.7197C14.8814 15.2558 16.1919 15.0124 17.5146 15ZM13.1719 0C13.7022 0.000106842 14.211 0.210962 14.5859 0.585938L19.4141 5.41406C19.7891 5.78908 19.9999 6.29778 20 6.82812V11C19.9999 11.5522 19.5522 12 19 12C18.4478 12 18.0001 11.5522 18 11V8H14C13.9337 8 13.8683 7.99553 13.8037 7.98926C13.7962 7.98852 13.7888 7.98714 13.7812 7.98633C13.7218 7.97988 13.6632 7.97148 13.6055 7.95996C13.6013 7.95912 13.597 7.95887 13.5928 7.95801C13.5305 7.94516 13.4692 7.92962 13.4092 7.91113C13.4036 7.9094 13.3982 7.90705 13.3926 7.90527C13.3388 7.88819 13.2861 7.86906 13.2344 7.84766C13.2259 7.84413 13.2174 7.84055 13.209 7.83691C13.1078 7.79337 13.0106 7.74258 12.9189 7.68359C12.9084 7.67681 12.8987 7.66902 12.8887 7.66211C12.8811 7.65703 12.8737 7.65166 12.8662 7.64648C12.8508 7.63538 12.8356 7.62468 12.8213 7.61328C12.3241 7.24943 12 6.66328 12 6V2H4V20H9C9.55228 20 10 20.4477 10 21C10 21.5523 9.55228 22 9 22H4C2.89543 22 2 21.1046 2 20V2C2 0.895431 2.89543 0 4 0H13.1719ZM17.5 16.2119C17.2133 16.2119 16.9806 16.4438 16.9805 16.7305V18.1152C16.9805 18.2108 16.9032 18.2881 16.8076 18.2881H15.4229C15.1363 18.2882 14.9044 18.521 14.9043 18.8076C14.9043 19.0943 15.1362 19.327 15.4229 19.3271H16.8076C16.9032 19.3271 16.9805 19.4044 16.9805 19.5V20.8848C16.9805 21.1715 17.2133 21.4043 17.5 21.4043C17.7867 21.4043 18.0195 21.1715 18.0195 20.8848V19.5C18.0195 19.4044 18.0968 19.3271 18.1924 19.3271H19.5771C19.8638 19.327 20.0957 19.0943 20.0957 18.8076C20.0956 18.521 19.8638 18.2882 19.5771 18.2881H18.1924C18.0968 18.2881 18.0195 18.2108 18.0195 18.1152V16.7305C18.0194 16.4438 17.7867 16.2119 17.5 16.2119ZM11 14C11.5523 14 12 14.4477 12 15C12 15.5523 11.5523 16 11 16H7C6.44772 16 6 15.5523 6 15C6 14.4477 6.44772 14 7 14H11ZM13 10C13.5523 10 14 10.4477 14 11C14 11.5523 13.5523 12 13 12H7C6.44772 12 6 11.5523 6 11C6 10.4477 6.44772 10 7 10H13ZM14 6H18L14 2V6Z" fill="#404040"/>
</svg>
