<svg width="24" height="24" viewBox="0 0 24 24" fill="none" xmlns="http://www.w3.org/2000/svg">
<path d="M12.04 15.4287C14.5243 15.4287 16.9581 16.0608 19.0576 17.252C21.157 18.4431 22.8368 20.1448 23.9014 22.1582C23.9908 22.3619 24.0198 22.5829 23.9863 22.7998C23.9527 23.017 23.8572 23.2231 23.709 23.3975C23.5828 23.5831 23.4052 23.7362 23.1934 23.8418C22.9814 23.9474 22.7424 24.002 22.5 24H1.38867C1.14624 24.002 0.907244 23.9474 0.695312 23.8418C0.483453 23.7362 0.305873 23.5831 0.179688 23.3975C0.0620432 23.2079 0 22.9943 0 22.7773C4.44891e-05 22.5606 0.0621543 22.3476 0.179688 22.1582C1.24435 20.1448 2.9239 18.4431 5.02344 17.252C7.12288 16.0609 9.55597 15.4287 12.04 15.4287ZM12 0C15.7871 5.15405e-07 18.8574 3.07033 18.8574 6.85742C18.8573 10.6444 15.787 13.7139 12 13.7139C8.213 13.7139 5.14273 10.6444 5.14258 6.85742C5.14258 3.07033 8.2129 0 12 0Z" fill="#404040"/>
</svg>
