<svg width="24" height="24" viewBox="0 0 24 24" fill="none" xmlns="http://www.w3.org/2000/svg">
<path fill-rule="evenodd" clip-rule="evenodd" d="M12.5215 0.144511C12.74 0.0148828 12.9972 -0.029666 13.2451 0.0195111C13.4929 0.0687731 13.7149 0.208407 13.8701 0.412089L16.6934 3.80467C16.7292 3.84634 16.7766 3.87567 16.8291 3.88963L21.0635 4.95994C21.2954 5.01851 21.5009 5.15694 21.6455 5.35154C21.79 5.5462 21.8653 5.78587 21.8584 6.03025L21.5342 10.4717C21.5236 10.4969 21.5186 10.5243 21.5186 10.5517C21.5186 10.5793 21.5235 10.6074 21.5342 10.6328L23.793 14.4424C23.9454 14.6516 24.0172 14.9108 23.9961 15.1709C23.9749 15.4311 23.862 15.6749 23.6777 15.8554L20.3525 18.7451C20.3128 18.7868 20.2844 18.8383 20.2695 18.8945L19.2236 23.1758C19.1684 23.415 19.034 23.6273 18.8438 23.7773C18.6533 23.9274 18.418 24.0066 18.1777 24L13.3262 23.6035C13.1889 23.5922 13.0552 23.5534 12.9326 23.4892C12.81 23.4251 12.7006 23.3368 12.6113 23.2295C12.5222 23.1223 12.4545 22.9982 12.4121 22.8642C12.3698 22.7302 12.3533 22.5886 12.3643 22.4482C12.3752 22.3078 12.413 22.1703 12.4756 22.0449C12.5383 21.9194 12.6247 21.8072 12.7295 21.7158C12.8343 21.6244 12.9559 21.5551 13.0869 21.5117C13.218 21.4683 13.3568 21.4516 13.4941 21.4629L17.1006 21.7519C17.1633 21.7567 17.2259 21.7391 17.2773 21.7021C17.3288 21.6651 17.366 21.6109 17.3828 21.5488L18.251 17.9101C18.3011 17.6896 18.4186 17.4908 18.5859 17.3428L21.377 14.9238C21.4239 14.8824 21.4553 14.8254 21.4648 14.7627C21.4744 14.7001 21.462 14.6361 21.4297 14.582L19.5264 11.3711C19.4128 11.1781 19.3614 10.953 19.3799 10.7285L19.6729 6.98338C19.6771 6.92047 19.6594 6.85753 19.623 6.80662C19.5868 6.75592 19.5342 6.72006 19.4746 6.70506L15.9092 5.81639C15.6962 5.76014 15.5057 5.63621 15.3652 5.46287L12.9922 2.60545C12.9506 2.5592 12.8946 2.5293 12.834 2.51951C12.7732 2.50979 12.7107 2.52157 12.6572 2.55271L9.52051 4.49998C9.33033 4.62219 9.10668 4.67907 8.88281 4.66111L5.2334 4.36131C5.17028 4.35434 5.10661 4.37079 5.05469 4.40818C5.00283 4.44561 4.96603 4.50129 4.95117 4.56443L4.08301 8.21385C4.06501 8.36374 4.0168 8.50846 3.94043 8.63768C3.86409 8.76676 3.76187 8.87801 3.64062 8.96385C3.51934 9.04967 3.3813 9.1082 3.23633 9.13572C3.09121 9.16321 2.94124 9.15877 2.79785 9.12303C2.65477 9.0873 2.52062 9.02114 2.4043 8.92869C2.28778 8.83599 2.19129 8.71835 2.12207 8.58494C2.05295 8.45162 2.01173 8.30488 2.00195 8.15428C1.99218 8.0036 2.01409 7.85249 2.06543 7.71092L3.19434 2.94822C3.25342 2.69933 3.3982 2.48028 3.60156 2.33103C3.80483 2.18192 4.05363 2.11222 4.30273 2.13475L8.64258 2.45603C8.69371 2.47051 8.74771 2.47055 8.79883 2.45603L12.5215 0.144511ZM9.07715 7.01463C9.27146 7.05497 9.44203 7.17336 9.55176 7.34275L15.8955 17.1767C15.9908 17.3435 16.0221 17.5413 15.9834 17.7304C15.9446 17.9195 15.839 18.0869 15.6865 18.2002C15.564 18.2794 15.4221 18.3221 15.2773 18.3232C15.1534 18.3265 15.0308 18.2972 14.9209 18.2383C14.8109 18.1792 14.7174 18.0919 14.6494 17.9853L14.5693 17.8623C14.5419 17.8198 14.5015 17.7878 14.4551 17.7695C14.4087 17.7513 14.3577 17.748 14.3096 17.7607L10.0205 18.7842C9.95582 18.8059 9.89975 18.8486 9.86133 18.9062C9.83613 18.9754 9.8362 19.0519 9.86133 19.1211C10.0682 19.7308 10.0725 20.3942 9.87402 21.0068C9.67554 21.6193 9.28499 22.1474 8.76367 22.5088C8.29513 22.832 7.74235 23.0033 7.17773 23C6.70468 22.9999 6.23869 22.8807 5.82129 22.6523C5.4039 22.4239 5.04776 22.0934 4.78418 21.6904L4.18555 20.7588C4.15702 20.7121 4.11403 20.6768 4.06348 20.6582C4.01281 20.6396 3.95724 20.6386 3.90625 20.6562L1.65234 21.3418C1.55024 21.3752 1.4398 21.3739 1.33887 21.3369C1.23809 21.2999 1.15208 21.2297 1.09375 21.1377L0.0957031 19.582C0.0333789 19.4945 4.04984e-05 19.3887 0 19.2803C0 19.1719 0.03346 19.066 0.0957031 18.9785L8.375 8.60154C8.40587 8.55667 8.42284 8.50314 8.42285 8.44822C8.42285 8.39332 8.40584 8.33977 8.375 8.2949L8.30566 8.19236C8.19588 8.02274 8.15603 7.8148 8.19531 7.61521C8.23469 7.41583 8.34944 7.24045 8.51465 7.12791C8.67998 7.01531 8.88263 6.97433 9.07715 7.01463ZM8.2832 19.3672C8.22749 19.3405 8.16374 19.3363 8.10547 19.3564L5.87109 20.042C5.83524 20.0541 5.80293 20.0751 5.77539 20.1015C5.74785 20.128 5.726 20.1603 5.71191 20.1963C5.6928 20.2323 5.68264 20.2725 5.68262 20.3135C5.68262 20.3546 5.69271 20.3955 5.71191 20.4316L5.9707 20.8408C6.0711 21.0075 6.20495 21.1507 6.3623 21.2617C6.5195 21.3726 6.69736 21.4487 6.88477 21.4853C7.0724 21.5219 7.26606 21.5187 7.45215 21.4746C7.63811 21.4305 7.81291 21.3467 7.96582 21.2295C8.22209 21.0374 8.40633 20.7604 8.48633 20.4453C8.56631 20.1301 8.5377 19.7959 8.40527 19.5C8.38287 19.4413 8.33891 19.3938 8.2832 19.3672Z" fill="#404040"/>
</svg>
