<svg width="24" height="24" viewBox="0 0 24 24" fill="none" xmlns="http://www.w3.org/2000/svg">
<g clip-path="url(#clip0_1_982)">
<path fill-rule="evenodd" clip-rule="evenodd" d="M22.3636 0H1.6363C0.732564 0 -6.10352e-05 0.805891 -6.10352e-05 1.80001V17.4001C-6.10352e-05 18.3942 0.732564 19.2001 1.6363 19.2001H6.27485C6.42547 19.2001 6.54758 19.3344 6.54758 19.5001V23.4001C6.54762 23.6426 6.68035 23.8612 6.88395 23.9542C7.08755 24.0471 7.322 23.9961 7.47812 23.8249L11.6028 19.2877C11.6543 19.2318 11.7236 19.2003 11.7959 19.2001H22.3636C23.2673 19.2001 23.9999 18.3942 23.9999 17.4001V1.80001C23.9999 0.805891 23.2673 0 22.3636 0Z" fill="#D52B1E"/>
</g>
<defs>
<clipPath id="clip0_1_982">
<rect width="24" height="24" fill="white"/>
</clipPath>
</defs>
</svg>
