<svg width="24" height="24" viewBox="0 0 24 24" fill="none" xmlns="http://www.w3.org/2000/svg">
<g clip-path="url(#clip0_455_195)">
<path d="M12 0L12.3049 0.00415039C18.7884 0.1729 23.9929 5.47765 24 12.0001L23.9962 12.3049C23.8344 18.7914 18.5255 24 12 24C5.37258 24 0 18.6274 0 12C0 5.37258 5.37258 0 12 0ZM12 2.55322C6.78268 2.55322 2.55319 6.78268 2.55319 12C2.55319 17.2173 6.78268 21.4468 12 21.4468C17.2149 21.4412 21.4411 17.2151 21.4468 12.0001C21.4468 6.78268 17.2173 2.55322 12 2.55322ZM17.8488 10.7234C18.5539 10.7234 19.1255 11.295 19.1255 12C19.1255 12.705 18.5539 13.2766 17.8488 13.2766H6.15115C5.44611 13.2766 4.87454 12.705 4.87454 12C4.87454 11.295 5.44611 10.7234 6.15115 10.7234H17.8488Z" fill="#D52B1E"/>
</g>
<defs>
<clipPath id="clip0_455_195">
<rect width="24" height="24" fill="white"/>
</clipPath>
</defs>
</svg>
