<svg width="24" height="24" viewBox="0 0 24 24" fill="none" xmlns="http://www.w3.org/2000/svg">
<g clip-path="url(#clip0_686_469)">
<path d="M17 0C18.6568 0 20 1.34724 20 3.00879V20.9912C20 22.6528 18.6568 24 17 24H7C5.34315 24 4 22.6528 4 20.9912V3.00879C4 1.34724 5.34315 0 7 0H17ZM12 20.4902C11.4477 20.4902 11 20.9393 11 21.4932C11.0001 22.0469 11.4478 22.4961 12 22.4961C12.5522 22.4961 12.9999 22.0469 13 21.4932C13 20.9393 12.5523 20.4902 12 20.4902ZM7 2.50684C6.44777 2.50684 6.00009 2.95599 6 3.50977V17.9834C6.00022 18.5371 6.44785 18.9854 7 18.9854H17C17.5521 18.9854 17.9998 18.5371 18 17.9834V3.50977C17.9999 2.95599 17.5522 2.50684 17 2.50684H7Z" fill="#404040"/>
</g>
<defs>
<clipPath id="clip0_686_469">
<rect width="24" height="24" fill="white"/>
</clipPath>
</defs>
</svg>
