<svg width="24" height="24" viewBox="0 0 24 24" fill="none" xmlns="http://www.w3.org/2000/svg">
<g clip-path="url(#clip0_686_412)">
<path d="M2.85449 0.62207C3.20104 0.0269506 3.96592 -0.176389 4.56445 0.166992L10.5684 3.61914C10.6459 3.66291 10.7409 3.66302 10.8184 3.61914C10.896 3.57465 10.9437 3.49158 10.9434 3.40234V1.56348C10.9434 1.01277 11.3915 0.565464 11.9443 0.56543C12.4972 0.56543 12.9453 1.01274 12.9453 1.56348V7.82227C12.9461 7.91619 12.9998 8.00178 13.084 8.04395C13.1685 8.08602 13.2697 8.07733 13.3457 8.02148L18.8877 3.69043C19.4311 3.26546 20.2177 3.36018 20.6445 3.90137L23.7344 7.8252C24.1601 8.36758 24.0641 9.15097 23.5205 9.57617L16.8271 14.8027C16.6078 14.9747 16.3367 15.0686 16.0576 15.0684C15.6729 15.0688 15.3087 14.8936 15.0703 14.5928L13.3877 12.458C13.3219 12.3744 13.2102 12.3415 13.1094 12.376C13.0085 12.4106 12.9406 12.5051 12.9404 12.6113V19.7617C12.9404 19.8993 13.0523 20.0106 13.1904 20.0107H15.3096C15.6311 20.0108 15.9339 20.1651 16.1221 20.4248C16.3101 20.6845 16.361 21.0184 16.2598 21.3223L15.4795 23.6592C15.4113 23.8629 15.2195 24.0001 15.0039 24H8.99707C8.78003 24.0019 8.58625 23.8643 8.51758 23.6592L7.73633 21.3232C7.63593 21.0197 7.68727 20.6869 7.875 20.4277C8.06277 20.1687 8.36382 20.0143 8.68457 20.0137H10.6875C10.8255 20.0134 10.9375 19.9022 10.9375 19.7646V18.8008C10.9378 18.7225 10.9006 18.6487 10.8379 18.6016C10.775 18.5545 10.6937 18.5395 10.6182 18.5615C10.5183 18.5903 10.4145 18.6052 10.3105 18.6055C10.1853 18.6055 10.061 18.5858 9.94141 18.5488L4.89258 16.9854C4.57549 16.8866 4.31035 16.6662 4.15625 16.373C4.00231 16.0799 3.97203 15.7376 4.07129 15.4219L4.89258 12.7852C5.09848 12.1278 5.80087 11.7612 6.46094 11.9658L10.6143 13.252C10.69 13.2757 10.7729 13.2627 10.8369 13.2158C10.901 13.1689 10.9387 13.0939 10.9385 13.0146V8.99902C10.9381 8.88654 10.862 8.78793 10.7529 8.75879C10.6439 8.72968 10.5286 8.77693 10.4717 8.87402L9.65039 10.29C9.48581 10.5771 9.21228 10.7872 8.8916 10.8721C8.78511 10.9002 8.67463 10.9147 8.56445 10.915C8.34558 10.9147 8.13077 10.8564 7.94141 10.7471L0.375977 6.39355C0.203385 6.29465 0.0770338 6.13101 0.0253906 5.93945C-0.0261516 5.74798 0.00100815 5.54371 0.100586 5.37207L2.85449 0.62207ZM8.18555 14.1611C7.63281 14.1611 7.18479 14.6077 7.18457 15.1582C7.18457 15.7089 7.63267 16.1562 8.18555 16.1562C8.73835 16.1562 9.18652 15.7089 9.18652 15.1582C9.1863 14.6077 8.73821 14.1612 8.18555 14.1611ZM17.6953 8.04492C17.0044 8.04505 16.4445 8.6028 16.4443 9.29102C16.4443 9.97937 17.0043 10.538 17.6953 10.5381C18.3864 10.5381 18.9473 9.97944 18.9473 9.29102C18.9471 8.60273 18.3863 8.04492 17.6953 8.04492ZM6.18359 4.05566C5.4925 4.05566 4.93164 4.61431 4.93164 5.30273C4.93176 5.99106 5.49257 6.54883 6.18359 6.54883C6.87445 6.54864 7.43445 5.99094 7.43457 5.30273C7.43457 4.61443 6.87452 4.05586 6.18359 4.05566Z" fill="#404040"/>
</g>
<defs>
<clipPath id="clip0_686_412">
<rect width="24" height="24" fill="white"/>
</clipPath>
</defs>
</svg>
