<svg width="24" height="24" viewBox="0 0 24 24" fill="none" xmlns="http://www.w3.org/2000/svg">
<g clip-path="url(#clip0_2526_57220)">
<path d="M8.99997 8.00002H15C15.2652 8.00002 15.5195 7.89467 15.7071 7.70713C15.8946 7.51959 16 7.26524 16 7.00002C16 6.73481 15.8946 6.48045 15.7071 6.29292C15.5195 6.10538 15.2652 6.00002 15 6.00002H8.99997C8.73476 6.00002 8.4804 6.10538 8.29287 6.29292C8.10533 6.48045 7.99997 6.73481 7.99997 7.00002C7.99997 7.26524 8.10533 7.51959 8.29287 7.70713C8.4804 7.89467 8.73476 8.00002 8.99997 8.00002Z" fill="#D52B1E"/>
<path d="M9.46997 4.50002C9.48471 4.62198 9.54383 4.73424 9.63605 4.81539C9.72827 4.89655 9.84713 4.94091 9.96997 4.94002H14C14.1222 4.93878 14.2399 4.89367 14.3317 4.81291C14.4235 4.73215 14.4832 4.62111 14.5 4.50002C14.7193 3.43688 15.1256 2.42111 15.7 1.50002C15.753 1.41064 15.7748 1.30622 15.7622 1.20309C15.7495 1.09996 15.703 1.00393 15.63 0.930022C15.5697 0.850577 15.487 0.790986 15.3925 0.758909C15.2981 0.726833 15.1962 0.723738 15.1 0.750022L13.24 1.55002C13.2088 1.56508 13.1746 1.5729 13.14 1.5729C13.1053 1.5729 13.0712 1.56508 13.04 1.55002C12.9779 1.52693 12.9276 1.48018 12.9 1.42002L12.46 0.310022C12.4216 0.219828 12.3575 0.142918 12.2757 0.0888606C12.1939 0.0348027 12.098 0.00598145 12 0.00598145C11.9019 0.00598145 11.8061 0.0348027 11.7243 0.0888606C11.6425 0.142918 11.5784 0.219828 11.54 0.310022L11.1 1.42002C11.0724 1.48018 11.022 1.52693 10.96 1.55002C10.9288 1.56508 10.8946 1.5729 10.86 1.5729C10.8253 1.5729 10.7912 1.56508 10.76 1.55002L8.89997 0.750022C8.8046 0.711444 8.69964 0.703226 8.59942 0.726491C8.4992 0.749756 8.4086 0.803371 8.33997 0.880022C8.26694 0.953931 8.22046 1.04996 8.20779 1.15309C8.19513 1.25622 8.21699 1.36064 8.26997 1.45002C8.84989 2.38637 9.25638 3.41954 9.46997 4.50002Z" fill="#D52B1E"/>
<path d="M15.44 9.12002C15.3368 9.04079 15.21 8.99852 15.08 9.00002H8.91997C8.78991 8.99852 8.66312 9.04079 8.55997 9.12002C6.00997 11.12 3.15997 14.52 3.15997 17.52C3.15997 21.75 5.51997 24 12 24C18.48 24 20.84 21.75 20.84 17.52C20.84 14.52 18 11.07 15.44 9.12002ZM13 20.13C12.9417 20.1414 12.889 20.1725 12.8508 20.2179C12.8126 20.2634 12.7912 20.3206 12.79 20.38V20.75C12.79 20.9489 12.711 21.1397 12.5703 21.2804C12.4297 21.421 12.2389 21.5 12.04 21.5C11.8411 21.5 11.6503 21.421 11.5096 21.2804C11.369 21.1397 11.29 20.9489 11.29 20.75V20.43C11.29 20.3637 11.2636 20.3001 11.2168 20.2532C11.1699 20.2064 11.1063 20.18 11.04 20.18H10.45C10.2511 20.18 10.0603 20.101 9.91964 19.9604C9.77899 19.8197 9.69997 19.6289 9.69997 19.43C9.69997 19.2311 9.77899 19.0403 9.91964 18.8997C10.0603 18.759 10.2511 18.68 10.45 18.68H12.6C12.7596 18.6855 12.9159 18.6338 13.0408 18.5343C13.1656 18.4347 13.2508 18.2938 13.281 18.1369C13.3111 17.9801 13.2843 17.8177 13.2053 17.6789C13.1262 17.5401 13.0002 17.4341 12.85 17.38L10.67 16.51C10.2306 16.3454 9.85675 16.0423 9.60498 15.6464C9.3532 15.2505 9.23718 14.7833 9.27446 14.3156C9.31174 13.8479 9.5003 13.4051 9.81161 13.0541C10.1229 12.703 10.5401 12.4629 11 12.37C11.0583 12.3586 11.1109 12.3276 11.1491 12.2821C11.1873 12.2366 11.2088 12.1794 11.21 12.12V11.75C11.21 11.5511 11.289 11.3603 11.4296 11.2197C11.5703 11.079 11.7611 11 11.96 11C12.1589 11 12.3497 11.079 12.4903 11.2197C12.631 11.3603 12.71 11.5511 12.71 11.75V12.07C12.71 12.1363 12.7363 12.1999 12.7832 12.2468C12.8301 12.2937 12.8937 12.32 12.96 12.32H13.55C13.7489 12.32 13.9397 12.399 14.0803 12.5397C14.221 12.6803 14.3 12.8711 14.3 13.07C14.3 13.2689 14.221 13.4597 14.0803 13.6004C13.9397 13.741 13.7489 13.82 13.55 13.82H11.44C11.2804 13.8145 11.124 13.8662 10.9992 13.9658C10.8743 14.0654 10.7891 14.2063 10.759 14.3631C10.7288 14.5199 10.7557 14.6824 10.8347 14.8212C10.9137 14.9599 11.0397 15.0659 11.19 15.12L13.37 15.99C13.8092 16.1579 14.1817 16.4646 14.4308 16.8634C14.6798 17.2623 14.792 17.7315 14.7501 18.1999C14.7083 18.6683 14.5147 19.1102 14.1988 19.4585C13.883 19.8069 13.462 20.0427 13 20.13Z" fill="#D52B1E"/>
</g>
<defs>
<clipPath id="clip0_2526_57220">
<rect width="24" height="24" fill="white"/>
</clipPath>
</defs>
</svg>
