<svg width="24" height="24" viewBox="0 0 24 24" fill="none" xmlns="http://www.w3.org/2000/svg">
<path d="M9.42188 13.0908C10.2437 13.091 10.909 13.7573 10.9092 14.5781V22.5127C10.909 23.3336 10.2437 23.9998 9.42188 24H1.4873C0.665402 23.9998 0.000175914 23.3336 0 22.5127V14.5781C0.000194068 13.7572 0.665413 13.091 1.4873 13.0908H9.42188ZM22.5127 13.0908C23.3336 13.091 23.9998 13.7573 24 14.5781V22.5127C23.9998 23.3336 23.3336 23.9998 22.5127 24H14.5781C13.7572 23.9998 13.091 23.3336 13.0908 22.5127V14.5781C13.091 13.7572 13.7572 13.091 14.5781 13.0908H22.5127ZM1.9834 22.0166H8.92578V15.0742H1.9834V22.0166ZM15.0742 22.0166H22.0166V15.0742H15.0742V22.0166ZM9.42188 0C10.2437 0.000208622 10.909 0.665422 10.9092 1.4873V9.42188C10.909 10.2427 10.2437 10.909 9.42188 10.9092H1.4873C0.665422 10.909 0.000208873 10.2428 0 9.42188V1.4873C0.000161124 0.665393 0.665393 0.000161124 1.4873 0H9.42188ZM22.5127 0C23.3336 0.000208318 23.9998 0.665422 24 1.4873V9.42188C23.9998 10.2427 23.3335 10.909 22.5127 10.9092H14.5781C13.7572 10.909 13.091 10.2428 13.0908 9.42188V1.4873C13.091 0.665393 13.7572 0.000161195 14.5781 0H22.5127ZM1.9834 8.92578H8.92578V1.9834H1.9834V8.92578ZM15.0742 8.92578H22.0166V1.9834H15.0742V8.92578Z" fill="#404040"/>
</svg>
