<svg width="24" height="24" viewBox="0 0 24 24" fill="none" xmlns="http://www.w3.org/2000/svg">
<path d="M11.5 0C13.1568 0 14.5 1.373 14.5 3.06667V5.62222C14.5 5.9045 14.7239 6.13333 15 6.13333C15.2761 6.13333 15.5 5.9045 15.5 5.62222V4.08889L15.5081 3.99705C15.5504 3.75863 15.7545 3.57778 16 3.57778H22C23.1046 3.57778 24 4.49311 24 5.62222V20.9556C24 22.0847 23.1046 23 22 23H2C0.89543 23 0 22.0847 0 20.9556V5.62222L0.00549316 5.46961C0.0818422 4.41176 0.945638 3.57778 2 3.57778H7C7.27614 3.57778 7.5 3.80661 7.5 4.08889V5.62222C7.5 5.9045 7.72386 6.13333 8 6.13333C8.27614 6.13333 8.5 5.9045 8.5 5.62222V3.06667C8.5 1.373 9.84315 0 11.5 0ZM21.5 9.2H2.5C2.22386 9.2 2 9.42883 2 9.71111V20.4444L2.00806 20.5363C2.05039 20.7747 2.25454 20.9556 2.5 20.9556H21.5C21.7761 20.9556 22 20.7267 22 20.4444V9.71111C22 9.42883 21.7761 9.2 21.5 9.2ZM8 16.3556L8.19885 16.3653C9.58306 16.4719 10.792 17.386 11.291 18.7231L11.3109 18.7861C11.3215 18.8289 11.3266 18.873 11.3261 18.9173C11.3227 19.1996 11.0961 19.4257 10.82 19.4222H5.17102C5.10596 19.423 5.04133 19.4109 4.98083 19.3864C4.72408 19.2825 4.59837 18.9855 4.70001 18.7231C5.22404 17.3192 6.53034 16.382 8 16.3556ZM18 16.1C18.4142 16.1 18.75 16.4433 18.75 16.8667C18.75 17.2901 18.4142 17.6333 18 17.6333H14.5C14.0858 17.6333 13.75 17.2901 13.75 16.8667C13.75 16.4433 14.0858 16.1 14.5 16.1H18ZM9.41022 11.8433C10.1913 12.6417 10.1913 13.9361 9.41022 14.7345C8.62917 15.5329 7.36284 15.5329 6.58179 14.7345C5.80074 13.9361 5.80074 12.6417 6.58179 11.8433C7.36284 11.0449 8.62917 11.0449 9.41022 11.8433ZM19.25 13.0333C19.6642 13.0333 20 13.3766 20 13.8C20 14.2234 19.6642 14.5667 19.25 14.5667H14.5C14.0858 14.5667 13.75 14.2234 13.75 13.8C13.75 13.3766 14.0858 13.0333 14.5 13.0333H19.25ZM11.5 1.78889C10.9477 1.78889 10.5 2.24656 10.5 2.81111L10.5067 2.93028C10.5645 3.43867 10.9872 3.83333 11.5 3.83333L11.6166 3.82647C12.114 3.76743 12.5 3.33535 12.5 2.81111C12.5 2.24656 12.0523 1.78889 11.5 1.78889Z" fill="#404040"/>
</svg>
