<svg width="24" height="24" viewBox="0 0 24 24" fill="none" xmlns="http://www.w3.org/2000/svg">
<path d="M22.9565 2H1.04348C0.467181 2 0 2.46718 0 3.04348V4.08696C0 4.66325 0.467181 5.13043 1.04348 5.13043H22.9565C23.5328 5.13043 24 4.66325 24 4.08696V3.04348C24 2.46718 23.5328 2 22.9565 2Z" fill="#404040"/>
<path d="M22.9565 10.3478H1.04348C0.467181 10.3478 0 10.815 0 11.3913V12.4348C0 13.0111 0.467181 13.4783 1.04348 13.4783H22.9565C23.5328 13.4783 24 13.0111 24 12.4348V11.3913C24 10.815 23.5328 10.3478 22.9565 10.3478Z" fill="#404040"/>
<path d="M1.04348 18.6957H22.9565C23.5328 18.6957 24 19.1628 24 19.7391V20.7826C24 21.3589 23.5328 21.8261 22.9565 21.8261H1.04348C0.467181 21.8261 0 21.3589 0 20.7826V19.7391C0 19.1628 0.467181 18.6957 1.04348 18.6957Z" fill="#404040"/>
</svg>
