<svg width="24" height="24" viewBox="0 0 24 24" fill="none" xmlns="http://www.w3.org/2000/svg">
<g clip-path="url(#clip0_536_996)">
<path d="M18.4551 13.9995C19.3952 13.9996 20.2971 14.3686 20.9619 15.0249C21.6266 15.6812 21.9999 16.5714 22 17.4995V19.9995C22 22.2087 20.1859 23.9995 17.9482 23.9995H17.4414C16.8821 23.9993 16.4287 23.5517 16.4287 22.9995C16.4289 22.4475 16.8823 21.9997 17.4414 21.9995H17.9482C18.5243 21.9995 19.0724 21.7556 19.4541 21.3296C19.5275 21.2488 19.5398 21.1304 19.4844 21.0366C19.4288 20.9431 19.3182 20.8951 19.2109 20.9185C17.8843 21.2051 16.5083 20.7188 15.668 19.6655C14.8276 18.6122 14.6705 17.1774 15.2637 15.9712C15.857 14.765 17.0968 13.9989 18.4551 13.9995ZM5.53807 2.74756C6.0974 2.74756 6.5506 3.19542 6.55077 3.74756V14.9995C6.55188 15.1368 6.6656 15.2476 6.80467 15.2476H8.57713L8.58104 15.2456C8.78598 15.2456 8.97052 15.3682 9.04881 15.5552C9.12693 15.7421 9.08348 15.9573 8.93846 16.1001L5.8994 19.1001C5.70162 19.295 5.38126 19.2951 5.18358 19.1001L2.14452 16.1001C2.00271 15.9572 1.96093 15.744 2.03807 15.5591C2.11524 15.3743 2.29661 15.2525 2.49901 15.2495H4.27245C4.4121 15.2493 4.52538 15.1374 4.52538 14.9995V3.74756C4.52554 3.19545 4.97879 2.74761 5.53807 2.74756ZM18.4551 15.9995C17.616 15.9995 16.9357 16.6712 16.9355 17.4995C16.9355 18.3279 17.6159 18.9995 18.4551 18.9995C19.2941 18.9993 19.9746 18.3278 19.9746 17.4995C19.9744 16.6713 19.294 15.9997 18.4551 15.9995ZM16.9961 0.32959C17.4521 -0.0311801 18.0777 -0.101831 18.6045 0.147949C19.1312 0.397745 19.466 0.923598 19.4658 1.50049V7.75244C19.467 7.88964 19.5807 8.00049 19.7197 8.00049H20.9853V8.00244C21.5448 8.00244 21.998 8.45015 21.998 9.00244C21.9979 9.55463 21.5447 10.0024 20.9853 10.0024H15.9209C15.3615 10.0024 14.9083 9.55463 14.9082 9.00244C14.9082 8.45015 15.3615 8.00244 15.9209 8.00244H17.1865C17.3263 8.00244 17.4403 7.89042 17.4404 7.75244V3.06006C17.4402 2.96429 17.3842 2.87703 17.2969 2.83545C17.2092 2.7939 17.1053 2.80585 17.0293 2.86572L16.5537 3.24072C16.1167 3.57617 15.4878 3.50298 15.1416 3.07666C14.7954 2.6498 14.8606 2.02693 15.2881 1.6792L16.9961 0.32959Z" fill="#404040"/>
</g>
<defs>
<clipPath id="clip0_536_996">
<rect width="24" height="24" fill="white"/>
</clipPath>
</defs>
</svg>
