<svg width="24" height="24" viewBox="0 0 24 24" fill="none" xmlns="http://www.w3.org/2000/svg">
<g clip-path="url(#clip0_536_995)">
<path d="M16.9969 14.3281C17.4529 13.9675 18.0777 13.8968 18.6044 14.1465C19.1311 14.3962 19.4659 14.9222 19.4657 15.499V21.75C19.4668 21.8873 19.5805 21.998 19.7196 21.998H20.9852V22C21.5447 22 21.9979 22.4478 21.9979 23C21.9979 23.5522 21.5447 24 20.9852 24H15.9208C15.3613 24 14.9081 23.5522 14.9081 23C14.9081 22.4478 15.3613 22 15.9208 22H17.1874C17.327 21.9997 17.4403 21.8879 17.4403 21.75V17.0586C17.4401 16.9628 17.3842 16.8756 17.2968 16.834C17.2091 16.7924 17.1052 16.8044 17.0292 16.8643L16.5536 17.2393C16.1165 17.5747 15.4876 17.5009 15.1415 17.0742C14.7952 16.6474 14.8605 16.0254 15.288 15.6777L16.9969 14.3281ZM5.53796 2.74805C6.09739 2.74805 6.55066 3.19583 6.55066 3.74805V14.999C6.55203 15.1361 6.66566 15.2461 6.80457 15.2461H8.57703L8.58093 15.2441C8.78588 15.2442 8.97042 15.3668 9.04871 15.5537C9.12693 15.7407 9.08343 15.9558 8.93835 16.0986L5.90027 19.0986C5.70255 19.2937 5.38126 19.2936 5.18347 19.0986L2.14441 16.0986C2.00262 15.9558 1.96083 15.7425 2.03796 15.5576C2.1151 15.3729 2.29651 15.252 2.4989 15.249H4.27234C4.41187 15.2488 4.525 15.1367 4.52527 14.999V3.74805C4.52527 3.19589 4.97862 2.74815 5.53796 2.74805ZM18.455 0C19.3951 5.52942e-05 20.297 0.36913 20.9618 1.02539C21.6264 1.68167 21.9999 2.572 21.9999 3.5V5.99902C21.9999 8.20793 20.1858 9.99902 17.9481 9.99902H17.4413C16.8821 9.99876 16.4286 9.55109 16.4286 8.99902C16.4286 8.44695 16.8821 7.99928 17.4413 7.99902H17.9481C18.5242 7.99904 19.0733 7.75512 19.455 7.3291C19.5281 7.24829 19.5396 7.12972 19.4843 7.03613C19.4288 6.94275 19.3189 6.89485 19.2118 6.91797C17.885 7.20475 16.5083 6.71834 15.6678 5.66504C14.8275 4.61174 14.6703 3.17678 15.2635 1.9707C15.8569 0.764633 17.0967 -0.000619994 18.455 0ZM18.455 2C17.6158 2 16.9354 2.67166 16.9354 3.5C16.9356 4.32823 17.6159 5 18.455 5C19.2939 4.99989 19.9744 4.32816 19.9745 3.5C19.9745 2.67173 19.294 2.00011 18.455 2Z" fill="#404040"/>
</g>
<defs>
<clipPath id="clip0_536_995">
<rect width="24" height="24" fill="white"/>
</clipPath>
</defs>
</svg>
