<svg width="24" height="24" viewBox="0 0 24 24" fill="none" xmlns="http://www.w3.org/2000/svg">
<path d="M14.2188 14.2139C14.4135 14.0242 14.6957 13.9513 14.959 14.0234L22.3027 16.0947C22.5588 16.1671 22.7572 16.3688 22.8242 16.624C22.8911 16.8791 22.8168 17.1502 22.6289 17.3369L21.5947 18.3613C21.5143 18.442 21.5143 18.5717 21.5947 18.6523L23.7783 20.8203C23.92 20.9599 23.9999 21.1498 24 21.3477C24 21.5456 23.92 21.7354 23.7783 21.875L21.8613 23.7773C21.7204 23.9173 21.5287 23.9961 21.3291 23.9961C21.1295 23.996 20.9378 23.9173 20.7969 23.7773L18.6094 21.6113C18.5279 21.532 18.3968 21.5318 18.3154 21.6113L17.375 22.5371C17.1876 22.7262 16.9123 22.802 16.6533 22.7354C16.3944 22.6686 16.1916 22.4694 16.1211 22.2139L14.0283 14.9424C13.9541 14.6834 14.0272 14.405 14.2188 14.2139ZM11.0781 0.000976562C17.0976 0.046059 21.9777 4.92798 21.9883 10.9727V11.0225C21.9866 11.3463 22.0146 11.7655 21.9883 11.9863C21.9842 12.0206 21.9864 12.5704 21.9883 13.085C21.9901 13.597 21.5999 13.9863 21.0879 13.9863H20.9902C20.438 13.9863 19.9902 13.5386 19.9902 12.9863V12.123H8.1543C8.24848 14.096 8.58786 15.8516 9.07617 17.1992C9.36578 17.9985 9.69539 18.6183 10.0273 19.0508C10.3646 19.4902 10.649 19.6659 10.835 19.7207C10.86 19.7281 10.8851 19.7362 10.9092 19.7451C10.9374 19.7454 10.9658 19.7461 10.9941 19.7461C11.4408 19.7461 11.8788 19.7125 12.3057 19.6484C12.9216 19.556 13.4964 19.9801 13.5889 20.5957C13.6812 21.2113 13.2564 21.7855 12.6406 21.8779C12.1031 21.9586 11.5531 22 10.9941 22C4.92964 21.9999 0.000112341 17.0906 0 11.0088V10.9922C5.63869e-06 4.95683 4.86608 0.0456271 10.9111 0.000976562C10.9388 9.69051e-05 10.9671 0 10.9951 0C11.0229 2.20639e-06 11.0506 0.000109763 11.0781 0.000976562ZM2.3252 12.123C2.71325 15.1754 4.67399 17.731 7.36621 18.96C7.21827 18.6449 7.0813 18.3124 6.95605 17.9668C6.36907 16.3467 5.99315 14.3248 5.89746 12.123H2.3252ZM7.36523 3.04102C4.6725 4.27062 2.7166 6.8262 2.32617 9.86914H5.89746C6.00233 7.47482 6.43959 5.28542 7.12305 3.5957C7.19964 3.40635 7.2807 3.22137 7.36523 3.04102ZM10.9639 2.25488C10.8132 2.26439 10.5735 2.34759 10.2529 2.68262C9.90665 3.0445 9.54286 3.62806 9.21387 4.44141C8.65379 5.82629 8.25774 7.71822 8.1543 9.86914H13.835C13.7314 7.71189 13.3343 5.81903 12.7734 4.43555C12.4442 3.6233 12.0802 3.04151 11.7344 2.68066C11.4142 2.34678 11.1751 2.26434 11.0254 2.25488H10.9639ZM14.625 3.04199C14.7083 3.2196 14.7876 3.40236 14.8633 3.58887C15.548 5.27781 15.9877 7.46823 16.0928 9.86914H19.6621C19.2716 6.82136 17.3133 4.27027 14.625 3.04199Z" fill="#404040"/>
</svg>
