<svg width="24" height="24" viewBox="0 0 24 24" fill="none" xmlns="http://www.w3.org/2000/svg">
<g clip-path="url(#clip0_686_411)">
<path fill-rule="evenodd" clip-rule="evenodd" d="M1.47652 8.52017C3.30614 6.72024 6.25325 6.48926 8.36812 7.97915C8.54576 8.10575 8.79008 8.10573 8.96773 7.97915C10.7588 6.67865 13.2421 6.67865 15.0332 7.97915C15.211 8.106 15.456 8.10608 15.6337 7.97915C16.5354 7.34218 17.6282 6.99835 18.7509 6.99966C21.0702 7.0007 23.1143 8.45048 23.7793 10.5661C24.4442 12.6817 23.5722 14.9625 21.6347 16.1764C19.6974 17.39 17.1534 17.2498 15.3759 15.8317C13.5984 14.4132 13.0081 12.0516 13.9248 10.0231C14.0159 9.81933 13.9476 9.58245 13.7597 9.45181C12.7083 8.72485 11.2848 8.72479 10.2334 9.45181C10.0455 9.58243 9.97721 9.81935 10.0683 10.0231C11.1065 12.3247 10.194 15.0028 7.93453 16.2858C5.67498 17.5687 2.76694 17.06 1.13375 15.0963C-0.499408 13.1325 -0.353097 10.3202 1.47652 8.52017ZM5.248 8.90493C3.45287 8.90509 1.998 10.2904 1.998 11.9997C1.99806 13.7089 3.4529 15.0942 5.248 15.0944C7.04234 15.0923 8.49673 13.7081 8.49898 11.9997C8.49898 10.2903 7.04329 8.90493 5.248 8.90493ZM18.7509 8.90493C16.9557 8.90494 15.5 10.2903 15.5 11.9997C15.5 13.709 16.9557 15.0944 18.7509 15.0944C20.5453 15.0923 21.9997 13.7081 22.0019 11.9997C22.0019 10.2903 20.5462 8.90493 18.7509 8.90493Z" fill="#404040"/>
</g>
<defs>
<clipPath id="clip0_686_411">
<rect width="24" height="24" fill="white"/>
</clipPath>
</defs>
</svg>
