<svg width="24" height="24" viewBox="0 0 24 24" fill="none" xmlns="http://www.w3.org/2000/svg">
<g clip-path="url(#clip0_597_1569)">
<path d="M18.001 0C18.8611 0.000221905 19.5586 0.671687 19.5586 1.5V16.9717C19.5584 17.0379 19.5852 17.1015 19.6338 17.1484C19.6825 17.1954 19.7494 17.222 19.8184 17.2217H22.9609C23.3809 17.2217 23.7591 17.4653 23.9199 17.8389C24.0811 18.2122 23.9937 18.6423 23.6973 18.9287L18.7344 23.707C18.5396 23.8946 18.2754 24 18 24C17.7246 24 17.4604 23.8946 17.2656 23.707L12.3037 18.9287C12.0069 18.6427 11.9184 18.2124 12.0791 17.8389C12.2398 17.4653 12.6182 17.2219 13.0381 17.2217H16.1826C16.326 17.2217 16.4423 17.1097 16.4424 16.9717V1.5C16.4424 0.67155 17.1406 0 18.001 0ZM12.5 12C13.3284 12 14 12.6716 14 13.5C14 14.3284 13.3284 15 12.5 15H9.5C8.67157 15 8 14.3284 8 13.5C8 12.6716 8.67157 12 9.5 12H12.5ZM12.5 7C13.3284 7 14 7.67157 14 8.5C14 9.32843 13.3284 10 12.5 10H5.5C4.67157 10 4 9.32843 4 8.5C4 7.67157 4.67157 7 5.5 7H12.5ZM12.5 2C13.3284 2 14 2.67157 14 3.5C14 4.32843 13.3284 5 12.5 5H1.5C0.671573 5 0 4.32843 0 3.5C0 2.67157 0.671573 2 1.5 2H12.5Z" fill="#404040"/>
</g>
<defs>
<clipPath id="clip0_597_1569">
<rect width="24" height="24" fill="white"/>
</clipPath>
</defs>
</svg>
