<svg width="24" height="24" viewBox="0 0 24 24" fill="none" xmlns="http://www.w3.org/2000/svg">
<path fill-rule="evenodd" clip-rule="evenodd" d="M8.51443 15.9096H6.75866C6.62091 15.9096 6.5089 15.7941 6.5078 15.6508V3.91064C6.5078 3.33439 6.05864 2.86734 5.50454 2.86734C4.95043 2.86734 4.50122 3.33439 4.50122 3.91064V15.6508C4.50122 15.7949 4.38889 15.9117 4.25037 15.9117H2.49464C2.29394 15.9146 2.11421 16.0418 2.03779 16.2348C1.96137 16.4278 2.00296 16.6496 2.14348 16.7986L5.15338 19.9288C5.34928 20.1324 5.66682 20.1324 5.86271 19.9288L8.87261 16.7986C9.01633 16.6496 9.05946 16.425 8.98191 16.2299C8.90437 16.0348 8.72139 15.9075 8.5184 15.9075L8.51443 15.9096ZM21.8125 0.808661C21.5479 0.310156 21.0437 0.000441983 20.4962 0H16.8843C16.3302 0 15.881 0.467053 15.881 1.0433C15.881 1.61955 16.3302 2.08682 16.8843 2.08682H19.1417C19.2331 2.0867 19.3173 2.13827 19.3615 2.22138C19.4057 2.30449 19.403 2.40606 19.3544 2.48649L16.0165 8.04048C15.7269 8.52321 15.712 9.13118 15.9776 9.62861C16.2432 10.126 16.7475 10.4344 17.2946 10.4339H20.9065C21.4607 10.4339 21.9098 9.96683 21.9098 9.39058C21.9098 8.81433 21.4607 8.34706 20.9065 8.34706H18.6471C18.5561 8.34695 18.4723 8.29568 18.4281 8.21292C18.3839 8.13016 18.3864 8.02905 18.4344 7.94866L21.7694 2.39763C22.0606 1.91552 22.0771 1.30709 21.8125 0.808661ZM18.7982 13.564C17.1359 13.564 15.7883 14.9656 15.7883 16.6943V22.9546C15.7883 23.5308 16.2375 23.9981 16.7916 23.9981C17.3457 23.9981 17.7949 23.5308 17.7949 22.9546V20.0875C17.7949 19.9434 17.9072 19.8266 18.0457 19.8266H19.5507C19.6892 19.8266 19.8015 19.9434 19.8015 20.0875V22.9567C19.8015 23.5329 20.2507 24 20.8048 24C21.3589 24 21.8081 23.5329 21.8081 22.9567V16.6965C21.8087 15.8659 21.4918 15.0691 20.9273 14.4816C20.3627 13.8942 19.5969 13.564 18.7982 13.564ZM18.0457 17.7376C17.908 17.7376 17.796 17.6221 17.7949 17.4789V16.6965C17.7949 16.1202 18.2441 15.6529 18.7982 15.6529C19.3523 15.6529 19.8015 16.1202 19.8015 16.6965V17.4789C19.8015 17.6229 19.6892 17.7398 19.5507 17.7398L18.0457 17.7376Z" fill="#D52B1E"/>
</svg>
