<svg width="24" height="24" viewBox="0 0 24 24" fill="none" xmlns="http://www.w3.org/2000/svg">
<path fill-rule="evenodd" clip-rule="evenodd" d="M8.57696 15.248H6.80433C6.66526 15.248 6.55221 15.1372 6.5511 14.9999V3.74797C6.5511 3.19569 6.09759 2.74797 5.53816 2.74797C4.97874 2.74797 4.52523 3.19569 4.52523 3.74797V14.9999C4.52523 15.138 4.41186 15.2499 4.272 15.2499H2.49936C2.29674 15.2527 2.11531 15.3745 2.03815 15.5595C1.961 15.7445 2.00299 15.9572 2.14486 16.1L5.18366 19.1C5.38144 19.2952 5.702 19.2952 5.89978 19.1L8.93858 16.1C9.08368 15.9571 9.12728 15.7418 9.04899 15.5549C8.97071 15.3679 8.78599 15.2461 8.58104 15.246L8.57696 15.248ZM20.9854 8.00042H19.7192C19.5802 8.00042 19.4671 7.88966 19.466 7.75237V1.50042C19.4662 0.923495 19.1312 0.397656 18.6045 0.147876C18.0777 -0.101904 17.4525 -0.031253 16.9965 0.329517L15.2876 1.67937C14.8601 2.0271 14.7949 2.64948 15.1411 3.07634C15.4874 3.50319 16.1167 3.57623 16.5538 3.24041L17.0289 2.86541C17.1049 2.80551 17.2089 2.79382 17.2966 2.83538C17.3842 2.87694 17.44 2.96447 17.4401 3.06047V7.75237C17.4401 7.89044 17.3268 8.00237 17.1869 8.00237H15.9207C15.3613 8.00237 14.9078 8.45008 14.9078 9.00237C14.9078 9.55465 15.3613 10.0024 15.9207 10.0024H20.9854C21.5448 10.0024 21.9983 9.55465 21.9983 9.00237C21.9983 8.45008 21.5448 8.00237 20.9854 8.00237V8.00042ZM18.4547 13.9999C17.0965 13.9993 15.8573 14.7649 15.264 15.9711C14.6707 17.1773 14.8276 18.612 15.668 19.6655C16.5084 20.7189 17.8846 21.2057 19.2114 20.9189C19.3188 20.8955 19.4292 20.9433 19.4846 21.037C19.5401 21.1308 19.5279 21.2492 19.4545 21.33C19.0728 21.7561 18.5244 21.9999 17.9483 21.9999H17.4418C16.8824 21.9999 16.4289 22.4476 16.4289 22.9999C16.4289 23.5522 16.8824 23.9999 17.4418 23.9999H17.9483C20.186 23.9999 22 22.2091 22 19.9999V17.4999C22 16.5717 21.6265 15.6814 20.9617 15.0251C20.2968 14.3687 19.395 13.9999 18.4547 13.9999ZM18.4547 18.9999C17.6156 18.9999 16.9353 18.3284 16.9353 17.4999C16.9353 16.6715 17.6156 15.9999 18.4547 15.9999C19.2939 15.9999 19.9741 16.6715 19.9741 17.4999C19.9741 18.3284 19.2939 18.9999 18.4547 18.9999Z" fill="#D52B1E"/>
</svg>
