<svg width="24" height="24" viewBox="0 0 24 24" fill="none" xmlns="http://www.w3.org/2000/svg">
<path fill-rule="evenodd" clip-rule="evenodd" d="M8.51441 15.1567H6.75866C6.62091 15.1567 6.50892 15.0447 6.50782 14.906V3.53662C6.50782 2.97857 6.05863 2.52612 5.50453 2.52612C4.95042 2.52612 4.50123 2.97857 4.50123 3.53662V14.906C4.50123 15.0455 4.38892 15.1587 4.25039 15.1587H2.49458C2.29388 15.1615 2.11423 15.2845 2.03781 15.4714C1.96138 15.6584 2.00292 15.8732 2.14344 16.0176L5.15333 19.0488C5.34922 19.2461 5.6668 19.2461 5.86269 19.0488L8.87258 16.0176C9.0163 15.8732 9.05946 15.6557 8.98191 15.4668C8.90437 15.2779 8.72141 15.1546 8.51841 15.1545L8.51441 15.1567ZM21.8125 14.6787C21.5479 14.196 21.0438 13.8959 20.4962 13.8955H16.8843C16.3302 13.8955 15.881 14.348 15.881 14.906C15.881 15.4641 16.3302 15.9165 16.8843 15.9165H19.1417C19.2331 15.9164 19.3173 15.9662 19.3615 16.0466C19.4058 16.1271 19.403 16.2256 19.3544 16.3035L16.0164 21.6821C15.7268 22.1496 15.712 22.7385 15.9776 23.2202C16.2432 23.7019 16.7476 24.0005 17.2947 24H20.9066C21.4607 24 21.9099 23.5476 21.9099 22.9895C21.9099 22.4315 21.4607 21.979 20.9066 21.979H18.6471C18.5561 21.9789 18.4723 21.9293 18.4281 21.8491C18.3839 21.769 18.3864 21.6709 18.4344 21.593L21.7694 16.2175C22.0606 15.7506 22.0771 15.1614 21.8125 14.6787ZM18.5474 0C16.8851 0 15.5375 1.3571 15.5375 3.03125V9.09399C15.5375 9.65204 15.9867 10.1045 16.5408 10.1045C17.0949 10.1045 17.5441 9.65204 17.5441 9.09399V6.31738C17.5441 6.17787 17.6564 6.0647 17.7949 6.0647H19.2999C19.4384 6.0647 19.5507 6.17787 19.5507 6.31738V9.09595C19.5507 9.654 19.9999 10.1064 20.554 10.1064C21.1081 10.1064 21.5573 9.654 21.5573 9.09595V3.03345C21.5579 2.22915 21.241 1.45759 20.6764 0.888672C20.1119 0.319752 19.3461 0 18.5474 0ZM17.7949 4.04175C17.6572 4.04176 17.5452 3.92998 17.5441 3.79126V3.03345C17.5441 2.4754 17.9933 2.02295 18.5474 2.02295C19.1015 2.02295 19.5507 2.4754 19.5507 3.03345V3.79126C19.5507 3.93077 19.4384 4.0437 19.2999 4.0437L17.7949 4.04175Z" fill="#D52B1E"/>
</svg>
