<svg width="24" height="24" viewBox="0 0 24 24" fill="none" xmlns="http://www.w3.org/2000/svg">
<path fill-rule="evenodd" clip-rule="evenodd" d="M8.57695 15.2463H6.80432C6.66525 15.2463 6.55224 15.1358 6.55112 14.9985V3.74756C6.55112 3.19534 6.09758 2.7478 5.53815 2.7478C4.97872 2.7478 4.52524 3.19534 4.52524 3.74756V14.9985C4.52524 15.1366 4.41183 15.2485 4.27198 15.2485H2.49935C2.29672 15.2513 2.11531 15.3729 2.03815 15.5579C1.96099 15.7428 2.003 15.9555 2.14487 16.0984L5.18361 19.0981C5.38139 19.2933 5.70202 19.2933 5.8998 19.0981L8.9386 16.0984C9.0837 15.9555 9.12726 15.7404 9.04897 15.5535C8.97068 15.3665 8.78598 15.2444 8.58103 15.2444L8.57695 15.2463ZM20.9854 21.9983H19.7192C19.5802 21.9983 19.4671 21.8875 19.466 21.7502V15.4988C19.4662 14.9219 19.1312 14.3962 18.6044 14.1465C18.0777 13.8967 17.4525 13.9672 16.9965 14.3279L15.2876 15.678C14.8601 16.0257 14.7949 16.6477 15.1411 17.0745C15.4873 17.5013 16.1167 17.5745 16.5538 17.2388L17.0289 16.8638C17.1048 16.8039 17.2089 16.7922 17.2965 16.8337C17.3842 16.8753 17.44 16.9628 17.4401 17.0588V21.7502C17.4401 21.8883 17.3268 22.0002 17.1869 22.0002H15.9207C15.3613 22.0002 14.9078 22.4478 14.9078 23C14.9078 23.5522 15.3613 24 15.9207 24H20.9854C21.5448 24 21.9983 23.5522 21.9983 23C21.9983 22.4478 21.5448 22.0002 20.9854 22.0002V21.9983ZM18.4547 3.76345e-07C17.0965 -0.000619624 15.8573 0.764858 15.264 1.97095C14.6707 3.17705 14.8275 4.61174 15.668 5.66504C16.5084 6.71834 17.8845 7.20499 19.2114 6.91821C19.3187 6.89483 19.4291 6.94265 19.4846 7.03638C19.54 7.13011 19.5279 7.24853 19.4545 7.32935C19.0728 7.75537 18.5244 7.99929 17.9483 7.99927H17.4418C16.8823 7.99927 16.4289 8.44679 16.4289 8.99902C16.4289 9.55125 16.8823 9.99902 17.4418 9.99902H17.9483C20.186 9.99902 22 8.20818 22 5.99927V3.49976C22 2.5716 21.6265 1.68121 20.9616 1.0249C20.2967 0.368593 19.395 3.76345e-07 18.4547 3.76345e-07ZM18.4547 4.99951C17.6156 4.99951 16.9353 4.3281 16.9353 3.49976C16.9353 2.67142 17.6156 1.99976 18.4547 1.99976C19.2939 1.99976 19.9741 2.67142 19.9741 3.49976C19.9741 4.3281 19.2939 4.99951 18.4547 4.99951Z" fill="#D52B1E"/>
</svg>
