<svg width="24" height="24" viewBox="0 0 24 24" fill="none" xmlns="http://www.w3.org/2000/svg">
<g clip-path="url(#clip0_686_18972)">
<path d="M9.52539 4.67773C10.2158 3.97007 11.334 3.97006 12.0244 4.67773L20.7031 13.5762C21.3921 14.2836 21.3921 15.4303 20.7031 16.1377L20.0615 16.7578C19.7791 17.0313 19.339 17.0366 19.0508 16.7695L18.9678 16.6787C18.8667 16.5496 18.8081 16.3894 18.8037 16.2217C18.7984 16.0118 18.8774 15.8082 19.0225 15.6602L19.6289 15.0449C19.7272 14.9438 19.7272 14.7798 19.6289 14.6787L10.9541 5.78027C10.9068 5.73128 10.8416 5.7041 10.7744 5.7041C10.7074 5.70423 10.6428 5.7314 10.5957 5.78027L5.45703 11.0488C5.35911 11.1499 5.35901 11.313 5.45703 11.4141L14.1426 20.3105C14.1898 20.3592 14.2543 20.3867 14.3213 20.3867C14.3881 20.3866 14.4519 20.3591 14.499 20.3105L15.2061 19.585C15.3044 19.4835 15.3044 19.3202 15.2061 19.2188L15.0107 19.0186C14.5106 18.4954 14.4181 17.6915 14.7861 17.0635C15.1541 16.4356 15.8893 16.1421 16.5742 16.3496C16.7215 16.3915 16.8627 16.4548 16.9922 16.5381L17.1943 16.6787L17.2051 16.6865L20.5156 19.2334C20.8504 19.4905 21.3252 19.4204 21.5762 19.0771C21.827 18.7338 21.7594 18.2468 21.4248 17.9893L21.2373 17.8457C21.1784 17.8005 21.142 17.7305 21.1367 17.6553C21.1315 17.5805 21.1579 17.5067 21.21 17.4541L21.5977 17.0566C22.3077 16.3272 22.6187 15.2837 22.4287 14.2715C22.2979 13.6236 21.9785 13.0318 21.5127 12.5742L17.5723 8.53223C17.5063 8.46526 17.481 8.36557 17.5078 8.27441C17.5345 8.18305 17.6082 8.11432 17.6992 8.09473C17.8986 8.05173 18.1019 8.02943 18.3057 8.02832C19.048 8.0296 19.7687 8.28499 20.3535 8.75391L23.8994 11.584C23.9625 11.6332 23.9995 11.7106 24 11.792V23.7412C23.9995 23.8243 23.9602 23.9026 23.8945 23.9512C23.829 23.9995 23.7448 24.0129 23.668 23.9873L19.1895 22.4561C18.5243 22.2275 17.9075 21.8719 17.3711 21.4082C17.2438 21.2994 17.1172 21.1905 17 21.0703L16.626 20.6885C16.5787 20.6395 16.5145 20.6115 16.4473 20.6113C16.3803 20.6118 16.3163 20.6394 16.2686 20.6875L15.5615 21.4131C14.8705 22.1189 13.7526 22.1188 13.0615 21.4131L4.38574 12.5137C4.05405 12.1737 3.8682 11.7124 3.86816 11.2314C3.86816 10.7503 4.05385 10.2883 4.38574 9.94824L9.52539 4.67773ZM9.19141 9.0498C9.44645 8.97967 9.71908 9.05316 9.9082 9.24219L10.2314 9.57422C10.3306 9.67458 10.4897 9.67458 10.5889 9.57422L10.9131 9.24219C11.2116 8.95682 11.6772 8.96479 11.9658 9.26074C12.2544 9.55676 12.2626 10.0345 11.9844 10.3408L10.5488 11.8135C10.4911 11.8739 10.4911 11.9708 10.5488 12.0312C10.5894 12.0722 10.6492 12.0863 10.7031 12.0674L12.7529 11.3662C13.4153 11.1372 14.147 11.3588 14.582 11.9199C15.017 12.4812 15.0623 13.2628 14.6953 13.873C14.6349 13.9751 14.6502 14.106 14.7324 14.1904L15.0996 14.5684C15.2965 14.7634 15.3758 15.0525 15.3066 15.3242C15.2374 15.5958 15.0303 15.8076 14.7656 15.8789C14.5008 15.9502 14.2187 15.8699 14.0283 15.668L13.7041 15.335C13.6569 15.2863 13.5923 15.2588 13.5254 15.2588C13.4586 15.2589 13.3948 15.2865 13.3477 15.335L13.0234 15.668C12.7275 15.9716 12.2472 15.9714 11.9512 15.668C11.6552 15.3643 11.6552 14.872 11.9512 14.5684L13.3867 13.0967C13.435 13.0459 13.4436 12.9676 13.4072 12.9072C13.3709 12.8469 13.2992 12.8202 13.2334 12.8418L11.1816 13.542C10.5196 13.771 9.78827 13.5494 9.35352 12.9883C8.91903 12.4271 8.87418 11.6469 9.24121 11.0371C9.30182 10.935 9.28653 10.8032 9.2041 10.7188L8.83594 10.3408C8.65111 10.1471 8.58041 9.86708 8.64941 9.60547C8.70087 9.32314 8.91605 9.102 9.19141 9.0498ZM7.83105 0C8.24936 0.00025734 8.58887 0.348204 8.58887 0.777344C8.58885 1.20647 8.24935 1.55443 7.83105 1.55469C4.34502 1.55869 1.51957 4.4564 1.51562 8.03223C1.51562 8.46152 1.17633 8.80956 0.757812 8.80957C0.339292 8.80957 0 8.46152 0 8.03223C0.00505559 3.59827 3.50844 0.00514065 7.83105 0ZM7.25977 3.36035C7.45926 3.33432 7.66076 3.39072 7.81934 3.51758C7.9779 3.64445 8.08053 3.83133 8.10449 4.03613C8.11533 4.13192 8.10788 4.22927 8.08301 4.32227C8.01478 4.58837 7.81221 4.79634 7.55273 4.86621C7.52025 4.88114 7.48661 4.89322 7.45215 4.90234C6.05219 5.07759 4.94877 6.20947 4.77832 7.64551C4.77 7.68065 4.75919 7.71544 4.74609 7.74902C4.67601 8.0112 4.47496 8.21567 4.21875 8.28516C4.15699 8.30624 4.09233 8.31859 4.02734 8.32227C3.99632 8.32226 3.96533 8.32053 3.93457 8.31641C3.73485 8.29129 3.55346 8.18519 3.42969 8.02246C3.30605 7.85986 3.24971 7.65386 3.27441 7.44922C3.53048 5.30968 5.17402 3.62355 7.25977 3.36035Z" fill="#404040"/>
</g>
<defs>
<clipPath id="clip0_686_18972">
<rect width="24" height="24" fill="white"/>
</clipPath>
</defs>
</svg>
