<svg width="24" height="24" viewBox="0 0 24 24" fill="none" xmlns="http://www.w3.org/2000/svg">
<g clip-path="url(#clip0_455_194)">
<path fill-rule="evenodd" clip-rule="evenodd" d="M11.3746 13.733C11.7728 13.2947 12.0007 12.6632 12 12C11.9995 11.3354 11.7705 10.703 11.3714 10.264L2.43287 0.433156C1.81661 -0.213273 0.900246 -0.126472 0.368942 0.628659C-0.162363 1.38379 -0.114265 2.53104 0.477273 3.21261L8.29646 11.8116C8.33989 11.8591 8.36479 11.9278 8.36479 12C8.36479 12.0722 8.33989 12.1409 8.29646 12.1884L0.477273 20.7874C-0.114265 21.469 -0.162363 22.6162 0.368942 23.3713C0.900246 24.1265 1.81661 24.2133 2.43287 23.5668L11.3746 13.733ZM23.3746 13.733C23.7728 13.2947 24.0007 12.6632 24 12C23.9995 11.3354 23.7705 10.703 23.3714 10.264L14.4329 0.433156C13.8166 -0.213273 12.9002 -0.126472 12.3689 0.628659C11.8376 1.38379 11.8857 2.53104 12.4773 3.21261L20.2965 11.8116C20.3399 11.8591 20.3648 11.9278 20.3648 12C20.3648 12.0722 20.3399 12.1409 20.2965 12.1884L12.4773 20.7874C11.8857 21.469 11.8376 22.6162 12.3689 23.3713C12.9002 24.1265 13.8166 24.2133 14.4329 23.5668L23.3746 13.733Z" fill="#D52B1E"/>
</g>
<defs>
<clipPath id="clip0_455_194">
<rect width="24" height="24" fill="white"/>
</clipPath>
</defs>
</svg>
