<svg width="24" height="24" viewBox="0 0 24 24" fill="none" xmlns="http://www.w3.org/2000/svg">
<g clip-path="url(#clip0_455_193)">
<path fill-rule="evenodd" clip-rule="evenodd" d="M0.622724 10.2427C0.226251 10.68 -0.000651025 11.3099 0 11.9716C0.000505511 12.6347 0.228485 13.2655 0.625917 13.7035L9.52603 23.5111C9.91942 23.9652 10.4783 24.1169 10.9865 23.9073C11.4947 23.6978 11.8724 23.16 11.9734 22.5019C12.0745 21.8439 11.8831 21.169 11.4732 20.7382L3.68763 12.1596C3.64439 12.1121 3.6196 12.0436 3.6196 11.9716C3.6196 11.8996 3.64439 11.8311 3.68763 11.7836L11.4732 3.20501C12.0622 2.52505 12.1101 1.38052 11.5811 0.627172C11.0521 -0.126172 10.1396 -0.212769 9.52603 0.432132L0.622724 10.2427ZM12.6227 10.2427C12.2263 10.68 11.9993 11.3099 12 11.9716C12.0005 12.6347 12.2285 13.2655 12.6259 13.7035L21.526 23.5111C21.9194 23.9652 22.4783 24.1169 22.9865 23.9073C23.4947 23.6978 23.8723 23.16 23.9734 22.5019C24.0745 21.8439 23.8831 21.169 23.4732 20.7382L15.6876 12.1596C15.6444 12.1121 15.6196 12.0436 15.6196 11.9716C15.6196 11.8996 15.6444 11.8311 15.6876 11.7836L23.4732 3.20501C24.0622 2.52505 24.1101 1.38052 23.5811 0.627172C23.0521 -0.126172 22.1396 -0.212769 21.526 0.432132L12.6227 10.2427Z" fill="#D52B1E"/>
</g>
<defs>
<clipPath id="clip0_455_193">
<rect width="24" height="24" fill="white"/>
</clipPath>
</defs>
</svg>
