<svg width="24" height="24" viewBox="0 0 24 24" fill="none" xmlns="http://www.w3.org/2000/svg">
<path d="M18.0001 10C21.3123 10.0037 23.9964 12.6878 24.0001 16C24.0001 19.3137 21.3138 22 18.0001 22C14.6864 22 12.0001 19.3137 12.0001 16C12.0001 12.6863 14.6864 10 18.0001 10ZM20.5597 13.6445C20.2947 13.6172 20.0365 13.738 19.8878 13.959L17.4269 17.2949C17.3855 17.351 17.3216 17.3859 17.252 17.3906C17.1812 17.3971 17.1112 17.3723 17.0606 17.3223L15.8761 16.1377C15.5924 15.8734 15.1503 15.8811 14.8761 16.1553C14.6019 16.4295 14.5942 16.8716 14.8585 17.1553L16.2354 18.5332C16.4975 18.7995 16.856 18.9499 17.2296 18.9502H17.3321C17.7418 18.9239 18.1196 18.7194 18.3653 18.3906L21.0392 14.8232C21.2098 14.6187 21.2538 14.3366 21.1534 14.0898C21.053 13.843 20.8247 13.6718 20.5597 13.6445ZM22.044 2C23.1357 2.01497 24.0106 2.99069 24.0001 4.18164V8.5459C23.9999 9.14819 23.5522 9.63672 23.0001 9.63672C22.448 9.63661 22.0003 9.14812 22.0001 8.5459V4.72754C22.0001 4.42629 21.7762 4.18164 21.5001 4.18164H2.46298C2.18698 4.18182 1.96298 4.4264 1.96298 4.72754L2.00009 11.2725C2.00009 11.5736 2.22404 11.8182 2.50009 11.8184H9.81552C10.3677 11.8185 10.8155 12.3068 10.8155 12.9092C10.8155 13.5115 10.3677 13.9999 9.81552 14H1.95712C0.865115 13.9855 -0.0103725 13.0097 9.28551e-05 11.8184V4.18164C-0.00982088 2.99057 0.865349 2.01507 1.95712 2H22.044ZM6.00009 6C7.10466 6 8.00009 6.89543 8.00009 8C8.00009 9.10457 7.10466 10 6.00009 10C4.89557 9.99995 4.00009 9.10454 4.00009 8C4.00009 6.89546 4.89557 6.00005 6.00009 6ZM12.0001 6C13.1047 6 14.0001 6.89543 14.0001 8C14.0001 9.10457 13.1047 10 12.0001 10C10.8956 9.99995 10.0001 9.10454 10.0001 8C10.0001 6.89546 10.8956 6.00005 12.0001 6Z" fill="#404040"/>
</svg>
