<svg width="24" height="24" viewBox="0 0 24 24" fill="none" xmlns="http://www.w3.org/2000/svg">
<g clip-path="url(#clip0_1_1610)">
<path fill-rule="evenodd" clip-rule="evenodd" d="M17.7498 10.2093C21.2 10.2133 23.996 13.0742 23.9998 16.6047C23.9998 20.1367 21.2016 23 17.7498 23C14.2981 23 11.4998 20.1367 11.4998 16.6047C11.4998 13.0726 14.2981 10.2093 17.7498 10.2093ZM20.4161 14.0936C20.14 14.0645 19.8707 14.1935 19.7159 14.4292L17.1529 17.985C17.1098 18.0448 17.0433 18.0824 16.9709 18.0874C16.8968 18.0944 16.8236 18.0674 16.7708 18.0138L15.5368 16.751C15.2413 16.4693 14.7808 16.4775 14.4952 16.7698C14.2096 17.062 14.2015 17.5332 14.4768 17.8356L15.9118 19.3051C16.1849 19.5889 16.5577 19.7488 16.9469 19.7491H17.0539C17.4806 19.7211 17.8739 19.5032 18.1299 19.1527L20.9129 15.3543C21.0936 15.1321 21.1393 14.8314 21.0347 14.5684C20.9301 14.3053 20.6922 14.1227 20.4161 14.0936ZM22.0439 1C23.1356 1.01405 24.0104 1.92934 24 3.04651V7.13953C24 7.70467 23.5521 8.16279 22.9998 8.16279C22.4476 8.16279 21.9998 7.70467 21.9998 7.13953V3.55814C21.9998 3.27558 21.776 3.04651 21.4998 3.04651H2.46286C2.18672 3.04651 1.96286 3.27558 1.96286 3.55814L1.99985 9.69767C1.99985 9.98025 2.22371 10.2093 2.49985 10.2093H9.81485C10.3671 10.2093 10.8149 10.6674 10.8149 11.2326C10.8149 11.7977 10.3671 12.2558 9.81485 12.2558H1.95688C0.864744 12.2423 -0.0106734 11.3269 -0.00021239 10.2093V3.04651C-0.0101214 1.92918 0.864978 1.01405 1.95688 1H22.0439ZM6.49985 5.09302C7.32828 5.09302 7.99985 5.78022 7.99985 6.62791C7.99985 7.4756 7.32828 8.16279 6.49985 8.16279C5.67142 8.16279 4.99985 7.4756 4.99985 6.62791C4.99985 5.78022 5.67142 5.09302 6.49985 5.09302ZM12.4998 5.09302C13.3283 5.09302 13.9998 5.78022 13.9998 6.62791C13.9998 7.4756 13.3283 8.16279 12.4998 8.16279C11.6714 8.16279 10.9998 7.4756 10.9998 6.62791C10.9998 5.78022 11.6714 5.09302 12.4998 5.09302Z" fill="#D52B1E"/>
</g>
<defs>
<clipPath id="clip0_1_1610">
<rect width="24" height="24" fill="white"/>
</clipPath>
</defs>
</svg>
