<svg width="24" height="24" viewBox="0 0 24 24" fill="none" xmlns="http://www.w3.org/2000/svg">
<path fill-rule="evenodd" clip-rule="evenodd" d="M19.0001 10C20.9331 10 22.5001 11.4193 22.5001 13.1699V14.0918C22.4999 14.2042 22.5911 14.2995 22.714 14.3154C23.4521 14.4118 24.0001 14.9847 24.0001 15.6602V20.6416C24 21.3918 23.3285 22 22.5001 22H15.5001C14.6717 22 14.0001 21.3918 14.0001 20.6416V15.6602C14 14.9847 14.548 14.4118 15.2862 14.3154C15.4091 14.2996 15.5003 14.2042 15.5001 14.0918V13.1699C15.5001 11.4193 17.0671 10 19.0001 10ZM19.0001 17.6982C18.4479 17.6983 18.0002 18.1035 18.0001 18.6035C18.0001 19.1037 18.4479 19.5097 19.0001 19.5098C19.5524 19.5098 20.0001 19.1037 20.0001 18.6035C19.9999 18.1035 19.5523 17.6982 19.0001 17.6982ZM19.0001 11.8115C18.1717 11.8116 17.5001 12.4197 17.5001 13.1699V14.0752C17.5001 14.2002 17.6121 14.3017 17.7501 14.3018H20.2501C20.3882 14.3018 20.5001 14.2002 20.5001 14.0752V13.1699C20.5001 12.4196 19.8285 11.8115 19.0001 11.8115ZM22.044 2C23.1357 2.01497 24.0106 2.99069 24.0001 4.18164V8.5459C23.9999 9.14819 23.5522 9.63672 23.0001 9.63672C22.448 9.63661 22.0003 9.14812 22.0001 8.5459V4.72754C22.0001 4.42629 21.7762 4.18164 21.5001 4.18164H2.46298C2.18698 4.18182 1.96298 4.4264 1.96298 4.72754L2.00009 11.2725C2.00009 11.5736 2.22404 11.8182 2.50009 11.8184H9.81552C10.3677 11.8185 10.8155 12.3068 10.8155 12.9092C10.8155 13.5115 10.3677 13.9999 9.81552 14H1.95712C0.865115 13.9855 -0.0103725 13.0097 9.28551e-05 11.8184V4.18164C-0.00982088 2.99057 0.865349 2.01507 1.95712 2H22.044ZM6.00009 6C7.10466 6 8.00009 6.89543 8.00009 8C8.00009 9.10457 7.10466 10 6.00009 10C4.89557 9.99995 4.00009 9.10454 4.00009 8C4.00009 6.89546 4.89557 6.00005 6.00009 6ZM12.0001 6C13.1047 6 14.0001 6.89543 14.0001 8C14.0001 9.10457 13.1047 10 12.0001 10C10.8956 9.99995 10.0001 9.10454 10.0001 8C10.0001 6.89546 10.8956 6.00005 12.0001 6Z" fill="#404040"/>
</svg>
