<svg width="24" height="24" viewBox="0 0 24 24" fill="none" xmlns="http://www.w3.org/2000/svg">
<g clip-path="url(#clip0_686_18973)">
<path d="M19.543 11.4639C19.6358 11.4221 19.745 11.4357 19.8232 11.5C21.1666 12.6169 22.4013 13.9505 22.4014 15.3154V21.2969C22.4018 21.3484 22.4177 21.3987 22.4473 21.4414L23.9541 23.5986C24.0088 23.677 24.015 23.7784 23.9697 23.8623C23.9242 23.9464 23.8346 23.9992 23.7373 23.999H17.5498C17.4488 23.999 17.3563 23.9424 17.3125 23.8535C17.1266 23.5143 17.0176 23.1399 16.9922 22.7559V20.1445C16.9923 20.0818 16.9684 20.0205 16.9258 19.9736L13.0869 15.7344L13.0781 15.7246C12.5616 15.1572 12.5643 14.3001 13.085 13.7363C13.5027 13.3314 14.1322 13.218 14.6699 13.4512C14.6996 13.4638 14.7262 13.4824 14.749 13.5049L18.3125 16.9414C18.6093 17.2295 19.0849 17.2397 19.3945 16.9648C19.7037 16.69 19.7389 16.2266 19.4746 15.9102C19.4369 15.8646 19.4163 15.8076 19.416 15.749L19.3916 11.6973C19.3907 11.5972 19.4502 11.5061 19.543 11.4639ZM15.7188 -0.000976562C16.8762 -0.000924635 17.8145 0.916985 17.8145 2.04883V11.8574C17.8134 12.2693 17.5603 12.6405 17.1719 12.7998C16.7831 12.959 16.3342 12.8753 16.0332 12.5869C15.8349 12.3948 15.7214 12.1319 15.7207 11.8574V3.07324C15.7207 2.50732 15.2516 2.04884 14.6729 2.04883H3.14551C2.56686 2.04895 2.09766 2.50738 2.09766 3.07324V18.9561C2.09766 19.5219 2.56686 19.9813 3.14551 19.9814H13.0986C13.6774 19.9814 14.1465 20.4399 14.1465 21.0059C14.1464 21.5718 13.6774 22.0303 13.0986 22.0303H2.0957C0.938338 22.0303 0.000206201 21.1131 0 19.9814V2.04883C0 0.916956 0.93821 -0.000971138 2.0957 -0.000976562H15.7188ZM8.12305 3.89258C8.7018 3.89258 9.1709 4.35204 9.1709 4.91797V5.17383C9.1709 5.31531 9.28891 5.42969 9.43359 5.42969H10.0098C10.5884 5.42978 11.0576 5.8892 11.0576 6.45508C11.0575 7.02083 10.5883 7.4794 10.0098 7.47949H7.45312C7.14777 7.48166 6.88599 7.6949 6.8291 7.98828C6.77232 8.28154 6.93557 8.5732 7.21875 8.68457L9.81348 9.69922C10.9318 10.1304 11.6289 11.227 11.5293 12.3984C11.4296 13.5699 10.5567 14.5387 9.38086 14.7832C9.2588 14.8068 9.17055 14.9125 9.1709 15.0342V15.3701C9.17074 15.9359 8.7017 16.3945 8.12305 16.3945C7.54453 16.3944 7.07535 15.9358 7.0752 15.3701V15.1133C7.07499 14.972 6.95802 14.8574 6.81348 14.8574H6.2373C5.65864 14.8574 5.1896 14.3988 5.18945 13.833C5.18945 13.2671 5.65856 12.8076 6.2373 12.8076H8.79004C9.09731 12.809 9.36246 12.5968 9.4209 12.3018C9.47929 12.0067 9.31399 11.7124 9.02832 11.6016L6.43262 10.5879C5.31436 10.1567 4.61709 9.05912 4.7168 7.8877C4.81655 6.71624 5.69035 5.74734 6.86621 5.50293C6.98781 5.47891 7.07503 5.37424 7.0752 5.25293V4.91797C7.0752 4.35213 7.54443 3.89273 8.12305 3.89258Z" fill="#404040"/>
</g>
<defs>
<clipPath id="clip0_686_18973">
<rect width="24" height="24" fill="white"/>
</clipPath>
</defs>
</svg>
