<svg width="24" height="24" viewBox="0 0 24 24" fill="none" xmlns="http://www.w3.org/2000/svg">
<g clip-path="url(#clip0_610_591)">
<path d="M18 12C21.312 12.0041 23.9959 14.6881 24 18C24 21.3137 21.3137 24 18 24C14.6863 24 12 21.3137 12 18C12.0001 14.6864 14.6863 12 18 12ZM18.0039 13.3799C17.6216 13.3799 17.3116 13.69 17.3115 14.0723V14.3955C17.3167 14.487 17.2509 14.5672 17.1602 14.5801C16.3154 14.738 15.6727 15.4314 15.5869 16.2852C15.5013 17.1388 15.9932 17.9451 16.791 18.2607L18.6953 19.0273C18.9376 19.1252 19.0768 19.3811 19.0273 19.6377C18.9779 19.8943 18.7535 20.0803 18.4922 20.0811H16.6152C16.233 20.0811 15.9229 20.3911 15.9229 20.7734C15.9231 21.1555 16.2331 21.4648 16.6152 21.4648H17.1562C17.2392 21.4678 17.3055 21.5352 17.3076 21.6182V21.9268C17.3076 22.3091 17.6176 22.6191 18 22.6191C18.3823 22.6191 18.6924 22.3091 18.6924 21.9268V21.5996C18.6826 21.5154 18.7363 21.4373 18.8184 21.416C19.6718 21.2769 20.3268 20.5835 20.418 19.7236C20.5092 18.8638 20.0142 18.0494 19.209 17.7344L17.3047 16.9717C17.0624 16.8738 16.9232 16.6179 16.9727 16.3613C17.0222 16.1048 17.2465 15.9197 17.5078 15.9189H19.3848C19.7669 15.9189 20.077 15.6087 20.0771 15.2266C20.0771 14.8443 19.767 14.5343 19.3848 14.5342H18.8516C18.7675 14.533 18.6993 14.4659 18.6963 14.3818V14.0723C18.6962 13.69 18.3861 13.38 18.0039 13.3799ZM15.1348 0C15.3497 0 15.556 0.0854459 15.708 0.237305C15.86 0.389299 15.9462 0.595602 15.9463 0.810547V1.8916C15.9463 1.96328 15.9747 2.03232 16.0254 2.08301C16.076 2.13351 16.1444 2.16201 16.2158 2.16211H18.9189C19.2056 2.16212 19.4809 2.2758 19.6836 2.47852C19.8863 2.68124 20 2.95647 20 3.24316V9.3457C20 9.89796 19.5513 10.3457 18.999 10.3457H18.8389C18.2866 10.3457 17.8379 9.89798 17.8379 9.3457V8.1084C17.8379 7.96504 17.7811 7.82696 17.6797 7.72559C17.5783 7.62426 17.4402 7.56738 17.2969 7.56738H2.70312C2.5598 7.56738 2.42168 7.62426 2.32031 7.72559C2.21894 7.82696 2.16211 7.96504 2.16211 8.1084V17.2969C2.16211 17.4402 2.21894 17.5783 2.32031 17.6797C2.42168 17.7811 2.55976 17.8379 2.70312 17.8379H9.3457C9.89798 17.8379 10.3457 18.2866 10.3457 18.8389V18.999C10.3457 19.5513 9.89796 20 9.3457 20H2.16211C1.58869 20 1.03828 19.7727 0.632812 19.3672C0.227341 18.9617 1.41431e-05 18.4113 0 17.8379V3.24316C2.09607e-05 2.95647 0.113683 2.68124 0.316406 2.47852C0.51914 2.2758 0.794356 2.16212 1.08105 2.16211H3.51367C3.65688 2.16215 3.79419 2.2191 3.89551 2.32031C3.99688 2.42168 4.05371 2.55976 4.05371 2.70312V4.86523C4.05381 5.08014 4.14002 5.28651 4.29199 5.43848C4.44401 5.5903 4.65037 5.67578 4.86523 5.67578C5.08014 5.67568 5.28651 5.59045 5.43848 5.43848C5.59045 5.28651 5.67568 5.08014 5.67578 4.86523V0.810547C5.67585 0.595602 5.76109 0.389299 5.91309 0.237305C6.0651 0.0853185 6.27137 4.19098e-05 6.48633 0C6.70127 0 6.90753 0.0853801 7.05957 0.237305C7.21156 0.389299 7.2968 0.595602 7.29688 0.810547V1.8916C7.29688 1.96317 7.32544 2.03235 7.37598 2.08301C7.42662 2.13365 7.49577 2.16206 7.56738 2.16211H12.1621C12.3053 2.16211 12.4426 2.21913 12.5439 2.32031C12.6453 2.42168 12.7031 2.55976 12.7031 2.70312V4.86523C12.7032 5.08014 12.7885 5.28651 12.9404 5.43848C13.0925 5.59037 13.2988 5.67578 13.5137 5.67578C13.7286 5.67574 13.9349 5.59043 14.0869 5.43848C14.2389 5.28651 14.3241 5.08014 14.3242 4.86523V0.810547C14.3243 0.595626 14.4096 0.389294 14.5615 0.237305C14.7135 0.0853352 14.9199 9.76823e-05 15.1348 0Z" fill="#404040"/>
</g>
<defs>
<clipPath id="clip0_610_591">
<rect width="24" height="24" fill="white"/>
</clipPath>
</defs>
</svg>
