<svg width="24" height="24" viewBox="0 0 24 24" fill="none" xmlns="http://www.w3.org/2000/svg">
<g clip-path="url(#clip0_92_1060)">
<path d="M13.3193 0C13.6363 0.000114493 13.9504 0.0657415 14.2432 0.192383C14.5361 0.319125 14.8032 0.504229 15.0273 0.738281L15.0264 0.740234L20.498 6.44727L20.6572 6.63086C20.8073 6.82185 20.9296 7.03565 21.0205 7.26465C21.1417 7.5703 21.2042 7.8987 21.2041 8.22949V12.7295C21.2041 13.3153 20.7489 13.79 20.1875 13.79C19.6262 13.7898 19.1709 13.3152 19.1709 12.7295V9.41406H14.5967C13.9564 9.41402 13.3424 9.14913 12.8896 8.67676C12.4369 8.20438 12.1827 7.56355 12.1826 6.89551V2.12207H3.41406C3.3132 2.12215 3.21592 2.16297 3.14453 2.2373C3.07304 2.3119 3.0332 2.41403 3.0332 2.51953V21.4805C3.0332 21.586 3.07304 21.6881 3.14453 21.7627C3.21594 21.8371 3.31314 21.8788 3.41406 21.8789H6.20996C6.77139 21.8789 7.22656 22.3536 7.22656 22.9395C7.22651 23.5253 6.77136 24 6.20996 24H3.41406C2.77392 23.9999 2.15972 23.735 1.70703 23.2627C1.25425 22.7902 1 22.1486 1 21.4805V2.51953C1 1.85136 1.25425 1.20977 1.70703 0.737305C2.15971 0.265101 2.77398 8.33794e-05 3.41406 0H13.3193ZM9.70898 14.5859C10.5345 14.586 11.3264 14.9289 11.9102 15.5381C12.4936 16.1472 12.8222 16.9728 12.8223 17.834C12.8223 18.6954 12.4938 19.5217 11.9102 20.1309C11.4008 20.6624 10.7328 20.9912 10.0225 21.0664V22.9395C10.0224 23.5253 9.56727 24 9.00586 24C8.44452 23.9999 7.98931 23.5252 7.98926 22.9395V15.6465C7.98929 15.0607 8.44451 14.586 9.00586 14.5859H9.70898ZM14.5967 14.5859C15.6077 14.5859 16.5771 15.0051 17.292 15.751C18.0069 16.4969 18.4091 17.5085 18.4092 18.5635V20.0225C18.4091 21.0774 18.0069 22.089 17.292 22.835C16.5771 23.5809 15.6077 24 14.5967 24C14.0353 24 13.5801 23.5252 13.5801 22.9395V15.6465C13.5801 15.0607 14.0353 14.586 14.5967 14.5859ZM22.9834 14.5859C23.5447 14.5861 24 15.0608 24 15.6465C24 16.2322 23.5447 16.7068 22.9834 16.707H21.585C21.484 16.7071 21.3868 16.7488 21.3154 16.8232C21.2439 16.8978 21.2041 17 21.2041 17.1055V18.9619H22.2842C22.8456 18.9619 23.3008 19.4366 23.3008 20.0225C23.3007 20.6082 22.8455 21.083 22.2842 21.083H21.2041V22.9395C21.2041 23.5252 20.7489 24 20.1875 24C19.6261 24 19.1709 23.5253 19.1709 22.9395V17.1055C19.1709 16.4373 19.4251 15.7957 19.8779 15.3232C20.3306 14.8509 20.9448 14.586 21.585 14.5859H22.9834ZM15.6133 21.543C15.6985 21.481 15.78 21.4126 15.8545 21.335C16.1881 20.9869 16.3759 20.5147 16.376 20.0225V18.5635C16.3759 18.0712 16.1881 17.5991 15.8545 17.251C15.7799 17.1732 15.6986 17.1041 15.6133 17.042V21.543ZM10.0225 18.9121C10.1907 18.8587 10.346 18.763 10.4727 18.6309C10.675 18.4195 10.7891 18.1327 10.7891 17.834C10.789 17.5354 10.6748 17.2493 10.4727 17.0381C10.346 16.9059 10.1908 16.8093 10.0225 16.7559V18.9121ZM14.2158 6.89551C14.2159 7.00088 14.2557 7.10224 14.3271 7.17676C14.3986 7.25127 14.4957 7.29292 14.5967 7.29297H18.4336L14.2158 2.8916V6.89551Z" fill="#404040"/>
</g>
<defs>
<clipPath id="clip0_92_1060">
<rect width="24" height="24" fill="white"/>
</clipPath>
</defs>
</svg>
