<svg width="24" height="24" viewBox="0 0 24 24" fill="none" xmlns="http://www.w3.org/2000/svg">
<path d="M22 2C23.1046 2 24 2.89543 24 4V19C24 20.1046 23.1046 21 22 21H19C18.4477 21 18 20.5523 18 20V19.25C17.9946 18.838 17.662 18.5054 17.25 18.5L17.1483 18.5068C16.7822 18.5565 16.5 18.8703 16.5 19.25V20C16.5 20.5523 16.0523 21 15.5 21H8.5C7.94771 21 7.5 20.5523 7.5 20V19.25C7.49461 18.838 7.16196 18.5054 6.75 18.5C6.33579 18.5 6 18.8358 6 19.25V20C6 20.5523 5.55229 21 5 21H2C0.89543 21 0 20.1046 0 19V4L0.00549316 3.85071C0.0818422 2.81585 0.945638 2 2 2H22ZM21.5 4H2.5C2.22386 4 2 4.22386 2 4.5V18.5L2.00806 18.5898C2.05039 18.8231 2.25454 19 2.5 19H3.58801C3.81963 18.9997 4.0207 18.8404 4.07397 18.615L4.12531 18.4279C4.41335 17.5061 5.16733 16.7974 6.11633 16.5726C7.59425 16.2227 9.07607 17.1371 9.42603 18.615L9.4527 18.6963C9.53005 18.8778 9.70932 18.9998 9.91199 19H14.088C14.3196 18.9997 14.5207 18.8404 14.574 18.615L14.6253 18.4279C14.9134 17.5061 15.6673 16.7974 16.6163 16.5726C18.0943 16.2227 19.5761 17.1371 19.926 18.615C19.9793 18.8404 20.1804 18.9997 20.412 19H21.5C21.7761 19 22 18.7761 22 18.5V4.5C22 4.22386 21.7761 4 21.5 4ZM17.609 13.25C18.0232 13.25 18.359 13.5858 18.359 14C18.359 14.4142 18.0232 14.75 17.609 14.75H15C14.5858 14.75 14.25 14.4142 14.25 14L14.2568 13.8982C14.3065 13.5321 14.6203 13.25 15 13.25H17.609ZM7.83002 11.5L8.02905 11.5093C9.41471 11.6122 10.6254 12.5068 11.125 13.816L11.1449 13.8777C11.1555 13.9196 11.1606 13.9627 11.1601 14.0061C11.1567 14.2822 10.9301 14.5034 10.654 14.5H5.00702C4.94196 14.5008 4.87733 14.4889 4.81683 14.465C4.56008 14.3633 4.43437 14.0728 4.53601 13.816L4.61212 13.6318C5.17804 12.3632 6.42926 11.527 7.83002 11.5ZM19.783 10.25C20.1972 10.25 20.533 10.5858 20.533 11C20.533 11.4142 20.1972 11.75 19.783 11.75H15C14.5858 11.75 14.25 11.4142 14.25 11L14.2568 10.8982C14.3065 10.5321 14.6203 10.25 15 10.25H19.783ZM9.2442 7.08582C10.0253 7.86687 10.0253 9.13313 9.2442 9.91418C8.46315 10.6952 7.19682 10.6952 6.41577 9.91418C5.63472 9.13313 5.63472 7.86687 6.41577 7.08582C7.19682 6.30477 8.46315 6.30477 9.2442 7.08582ZM20 7.25C20.4142 7.25 20.75 7.58579 20.75 8C20.75 8.41421 20.4142 8.75 20 8.75H15C14.5858 8.75 14.25 8.41421 14.25 8C14.25 7.58579 14.5858 7.25 15 7.25H20Z" fill="#404040"/>
</svg>
