<svg width="24" height="24" viewBox="0 0 24 24" fill="none" xmlns="http://www.w3.org/2000/svg">
<g clip-path="url(#clip0_512_949)">
<path d="M19.7109 0C21.5231 0.000142521 22.9999 1.51326 23 3.375V20.625C22.9999 22.4867 21.5231 23.9999 19.7109 24H6.09473C4.28249 24 2.80477 22.4868 2.80469 20.625V19.8721H2.08301C1.48569 19.8718 1.00013 19.3692 1 18.748C1 18.1267 1.48561 17.6243 2.08301 17.624H2.80469V13.124H2.08301C1.48561 13.1238 1 12.6213 1 12C1 11.3787 1.48561 10.8762 2.08301 10.876H2.80469V6.37598H2.08301C1.48561 6.37571 1 5.87327 1 5.25195C1.00013 4.63077 1.48569 4.1282 2.08301 4.12793H2.80469V3.375C2.80477 1.51318 4.28249 0 6.09473 0H19.7109ZM13.0039 14C10.5718 13.9985 8.31853 15.2184 7.07617 17.21C6.97429 17.3722 6.97429 17.5751 7.07617 17.7373C7.18399 17.9031 7.3754 18.0027 7.58008 18H18.4248C18.6272 18.0009 18.8158 17.9019 18.9229 17.7383C19.0259 17.5766 19.0258 17.3737 18.9229 17.2119C17.6846 15.2202 15.4341 13.9987 13.0039 14ZM13.0039 6C11.0159 6 9.4043 7.53517 9.4043 9.42871C9.40438 11.3222 11.016 12.8574 13.0039 12.8574C14.9918 12.8573 16.6034 11.3221 16.6035 9.42871C16.6035 7.53523 14.9918 6.0001 13.0039 6Z" fill="#404040"/>
</g>
<defs>
<clipPath id="clip0_512_949">
<rect width="24" height="24" fill="white"/>
</clipPath>
</defs>
</svg>
