<svg width="24" height="24" viewBox="0 0 24 24" fill="none" xmlns="http://www.w3.org/2000/svg">
<g clip-path="url(#clip0_139_954)">
<path d="M2.60449 0.833984C3.76717 -0.278334 5.59799 -0.278204 6.76074 0.833984L9.3252 3.39551C10.4687 4.54458 10.4689 6.40378 9.3252 7.55273L8.80273 8.0752C10.9539 10.6535 13.3299 13.0354 15.9014 15.1934L16.4229 14.6709C16.9731 14.1188 17.7202 13.8086 18.499 13.8086C19.2779 13.8086 20.0249 14.1188 20.5752 14.6709L23.1338 17.2354L23.1387 17.2363C23.6898 17.7871 24 18.5347 24 19.3145C23.9999 20.0941 23.6898 20.8419 23.1387 21.3926L21.7354 22.7988C20.3334 24.1762 18.1641 24.3944 16.5176 23.3223C10.2367 19.1456 4.85352 13.7524 0.68457 7.46094C-0.396301 5.81664 -0.178769 3.6383 1.20605 2.24121L2.60449 0.833984Z" fill="#404040"/>
</g>
<defs>
<clipPath id="clip0_139_954">
<rect width="24" height="24" fill="white"/>
</clipPath>
</defs>
</svg>
