<svg width="24" height="24" viewBox="0 0 24 24" fill="none" xmlns="http://www.w3.org/2000/svg">
<path d="M17 14C18.3261 14 19.5975 14.5272 20.5352 15.4648C21.4728 16.4025 22 17.6739 22 19C22 21.7614 19.7614 24 17 24C14.2386 24 12 21.7614 12 19C12 16.2386 14.2386 14 17 14ZM19.0107 16.832C18.4463 16.6844 17.8454 16.8525 17.4404 17.2725L17.2812 17.4326C17.2063 17.5077 17.1041 17.5507 16.998 17.5508C16.8918 17.5508 16.7899 17.5078 16.7148 17.4326L16.5547 17.2725C16.1497 16.8525 15.5488 16.6844 14.9844 16.832C14.4202 16.9797 13.9797 17.4202 13.832 17.9844C13.6844 18.5488 13.8525 19.1497 14.2725 19.5547L16.7109 22.0996C16.7864 22.1783 16.891 22.2227 17 22.2227C17.109 22.2227 17.2136 22.1783 17.2891 22.0996L19.7275 19.5547C20.1427 19.1497 20.3107 18.5488 20.1631 17.9844C20.0154 17.4202 19.5749 16.9797 19.0107 16.832ZM13.1719 0C13.7022 0.000106842 14.211 0.210962 14.5859 0.585938L19.4141 5.41406C19.7891 5.78908 19.9999 6.29778 20 6.82812V11C19.9999 11.5522 19.5522 12 19 12C18.4478 12 18.0001 11.5522 18 11V8H14C13.9337 8 13.8683 7.99553 13.8037 7.98926C13.7962 7.98852 13.7888 7.98714 13.7812 7.98633C13.7218 7.97988 13.6632 7.97148 13.6055 7.95996C13.6013 7.95912 13.597 7.95887 13.5928 7.95801C13.5305 7.94516 13.4692 7.92962 13.4092 7.91113C13.4036 7.9094 13.3982 7.90705 13.3926 7.90527C13.3388 7.88819 13.2861 7.86906 13.2344 7.84766C13.2259 7.84413 13.2174 7.84055 13.209 7.83691C13.1078 7.79337 13.0106 7.74258 12.9189 7.68359C12.9084 7.67681 12.8987 7.66902 12.8887 7.66211C12.8811 7.65703 12.8737 7.65166 12.8662 7.64648C12.8508 7.63538 12.8356 7.62468 12.8213 7.61328C12.3241 7.24943 12 6.66328 12 6V2H4V20H9C9.55228 20 10 20.4477 10 21C10 21.5523 9.55228 22 9 22H4C2.89543 22 2 21.1046 2 20V2C2 0.895431 2.89543 0 4 0H13.1719ZM11 14C11.5523 14 12 14.4477 12 15C12 15.5523 11.5523 16 11 16H7C6.44772 16 6 15.5523 6 15C6 14.4477 6.44772 14 7 14H11ZM13 10C13.5523 10 14 10.4477 14 11C14 11.5523 13.5523 12 13 12H7C6.44772 12 6 11.5523 6 11C6 10.4477 6.44772 10 7 10H13ZM14 6H18L14 2V6Z" fill="#404040"/>
</svg>
