<svg width="24" height="24" viewBox="0 0 24 24" fill="none" xmlns="http://www.w3.org/2000/svg">
<path d="M11 2.00098C11.2892 2.00098 11.5232 2.2353 11.5234 2.52441V11.9531C11.5234 12.2424 11.7586 12.4775 12.0479 12.4775H21.4766C21.7657 12.4777 22 12.7118 22 13.001C21.9931 19.0732 17.0723 23.9941 11 24.001C4.92487 24.001 0 19.0761 0 13.001C3.22129e-07 6.92584 4.92487 2.00098 11 2.00098ZM14.4541 0.000976562C19.7234 0.00698565 23.994 4.27756 24 9.54688C23.9998 9.79756 23.7966 10.0007 23.5459 10.001H14.9092C14.4071 10.001 14 9.59387 14 9.0918V0.455078C14.0002 0.204394 14.2034 0.00121616 14.4541 0.000976562Z" fill="#404040"/>
</svg>
