<svg width="24" height="24" viewBox="0 0 24 24" fill="none" xmlns="http://www.w3.org/2000/svg">
<path d="M21.5 7C22.163 7 22.7987 7.26358 23.2676 7.73242C23.7364 8.20126 24 8.83696 24 9.5V14C24 14.663 23.7364 15.2987 23.2676 15.7676C22.7987 16.2364 22.163 16.5 21.5 16.5H19.5V22.75C19.4994 23.4401 18.9401 23.9994 18.25 24H6.25C5.55987 23.9994 5.00055 23.4401 5 22.75V16.5H2.5C1.11929 16.5 0 15.3807 0 14V9.5C0 8.11929 1.11929 7 2.5 7H21.5ZM7.5 11.957C7.22386 11.957 7 12.1809 7 12.457V21.5C7 21.7761 7.22386 22 7.5 22H17C17.2761 22 17.5 21.7761 17.5 21.5V12.457C17.5 12.1809 17.2761 11.957 17 11.957H7.5ZM13.25 18.249C13.6642 18.249 14 18.5848 14 18.999C14 19.4132 13.6642 19.749 13.25 19.749H9.5C9.08579 19.749 8.75001 19.4132 8.75 18.999C8.75 18.5848 9.08579 18.249 9.5 18.249H13.25ZM15 14.749C15.4142 14.749 15.75 15.0848 15.75 15.499C15.75 15.9132 15.4142 16.249 15 16.249H9.5C9.08579 16.249 8.75001 15.9132 8.75 15.499C8.75 15.0848 9.08579 14.749 9.5 14.749H15ZM3.5 9.5C2.94772 9.5 2.5 9.94772 2.5 10.5C2.5 11.0523 2.94772 11.5 3.5 11.5C4.05228 11.5 4.5 11.0523 4.5 10.5C4.5 9.94772 4.05228 9.5 3.5 9.5ZM15.5859 0C16.1162 0.00147083 16.6246 0.212402 17 0.586914L19.457 3.04199C19.6446 3.22948 19.7499 3.48383 19.75 3.74902V5C19.75 5.55228 19.3023 6 18.75 6C18.1977 6 17.75 5.55228 17.75 5V4.16309L15.5859 2H6.75V5C6.75 5.55228 6.30228 6 5.75 6C5.19772 6 4.75 5.55228 4.75 5V2C4.75 0.89543 5.64543 0 6.75 0H15.5859Z" fill="#404040"/>
</svg>
