<svg width="24" height="24" viewBox="0 0 24 24" fill="none" xmlns="http://www.w3.org/2000/svg">
<path d="M12 13.5654C17.52 13.5719 21.9936 18.0064 22 23.4785C21.9998 23.7664 21.764 23.9998 21.4736 24H2.52637C2.23582 24 2.00021 23.7665 2 23.4785C2.00638 18.0063 6.47991 13.5718 12 13.5654ZM12 0C15.4879 6.53994e-05 18.3154 2.80306 18.3154 6.26074C18.3154 9.71848 15.488 12.5214 12 12.5215C8.5134 12.518 5.68805 9.71709 5.68457 6.26074C5.68464 2.80302 8.512 0 12 0ZM8.47754 4.60156C8.4117 4.5622 8.33169 4.55389 8.25879 4.57812C8.18658 4.60294 8.12809 4.65667 8.09863 4.72656C7.89605 5.21305 7.79084 5.73444 7.78906 6.26074C7.78906 8.56593 9.67464 10.4346 12 10.4346C14.3253 10.4344 16.21 8.56585 16.21 6.26074C16.2074 6.17387 16.2006 6.08705 16.1885 6.00098C16.18 5.92812 16.1402 5.86206 16.0801 5.81934C16.02 5.77676 15.9443 5.76089 15.8721 5.77637C15.1469 5.9395 14.4057 6.02293 13.6621 6.02344C11.8361 6.02414 10.0437 5.53224 8.47754 4.60156Z" fill="#404040"/>
</svg>
