<svg width="24" height="24" viewBox="0 0 24 24" fill="none" xmlns="http://www.w3.org/2000/svg">
<path d="M12 0C18.6274 0 24 5.37258 24 12C24 18.6274 18.6274 24 12 24C5.37258 24 0 18.6274 0 12C0 5.37258 5.37258 0 12 0ZM12 2C6.47715 2 2 6.47715 2 12C2 17.5228 6.47715 22 12 22C17.5228 22 22 17.5228 22 12C22 6.47715 17.5228 2 12 2ZM17.7861 7C18.1042 6.99642 18.4106 7.11765 18.6377 7.33691C18.8657 7.55573 18.996 7.85507 19 8.16895C19.004 8.48278 18.8815 8.78585 18.6592 9.01074L11.0723 16.6494C10.8421 16.8765 10.5285 17.0026 10.2031 17C9.87789 16.9973 9.56746 16.8655 9.3418 16.6348L5.30957 12.4219C4.87191 11.9444 4.90174 11.2089 5.37695 10.7666C5.85227 10.3245 6.59868 10.3375 7.05664 10.7959L10.2324 14.1152L16.9414 7.35645C17.1639 7.13203 17.4681 7.00362 17.7861 7Z" fill="#404040"/>
</svg>
