<svg width="24" height="24" viewBox="0 0 24 24" fill="none" xmlns="http://www.w3.org/2000/svg">
<path d="M12 0C18.6274 0 24 5.37258 24 12C24 18.6274 18.6274 24 12 24C5.37258 24 0 18.6274 0 12C0 5.37258 5.37258 0 12 0ZM17.7861 7C17.4681 7.00362 17.1639 7.13203 16.9414 7.35645L10.2324 14.1152L7.05664 10.7959C6.59868 10.3375 5.85227 10.3245 5.37695 10.7666C4.90174 11.2089 4.87191 11.9444 5.30957 12.4219L9.3418 16.6348C9.56746 16.8655 9.87789 16.9973 10.2031 17C10.5285 17.0026 10.8421 16.8765 11.0723 16.6494L18.6592 9.01074C18.8815 8.78585 19.004 8.48278 19 8.16895C18.996 7.85507 18.8657 7.55573 18.6377 7.33691C18.4106 7.11765 18.1042 6.99642 17.7861 7Z" fill="#404040"/>
</svg>
