<svg width="24" height="24" viewBox="0 0 24 24" fill="none" xmlns="http://www.w3.org/2000/svg">
<path fill-rule="evenodd" clip-rule="evenodd" d="M2.746 1.906C8.65362 -0.635333 15.3464 -0.635333 21.254 1.906C22.314 2.36777 22.9996 3.41386 23 4.57006V10.8579C22.9792 16.404 19.5574 21.3692 14.382 23.363C13.6405 23.7375 12.8295 23.9544 12 24C11.1702 23.9568 10.3586 23.7398 9.618 23.363C4.4426 21.3692 1.02083 16.404 1 10.8579V4.57006C1.00043 3.41386 1.68601 2.36777 2.746 1.906ZM20.454 3.73901C15.0565 1.42038 8.94354 1.42038 3.54601 3.73901C3.21486 3.88268 3.00042 4.20909 3 4.57006V10.8579C3.01744 15.5752 5.92791 19.7983 10.33 21.4939L11.339 21.8779C11.7646 22.0409 12.2354 22.0409 12.661 21.8779L13.67 21.4939C18.0721 19.7983 20.9826 15.5752 21 10.8579V4.57006C20.9996 4.20909 20.7851 3.88268 20.454 3.73901ZM12 3.50365C13.2899 3.50365 14.4064 4.40022 14.6851 5.65966C14.9637 6.91911 14.3295 8.20296 13.16 8.74706C13.0681 8.78981 13.0111 8.88383 13.0157 8.9851C13.0203 9.08636 13.0856 9.17475 13.181 9.20898C14.5707 9.70712 15.4984 11.0237 15.5 12.5V13.999C15.5 14.2752 15.2761 14.499 15 14.499H14.181C14.0525 14.4989 13.9449 14.5963 13.932 14.7241L13.5 19.05C13.4742 19.3065 13.2577 19.5013 13 19.5H11C10.7423 19.5013 10.5258 19.3065 10.5 19.05L10.07 14.7251C10.0572 14.5972 9.94949 14.4999 9.821 14.5H9C8.72386 14.5 8.5 14.2761 8.5 14V12.5C8.50157 11.0237 9.42929 9.70712 10.819 9.20898C10.9144 9.17475 10.9797 9.08636 10.9843 8.9851C10.9889 8.88383 10.9319 8.78981 10.84 8.74706C9.67048 8.20296 9.0363 6.91911 9.31493 5.65966C9.59355 4.40022 10.7101 3.50365 12 3.50365Z" fill="#404040"/>
</svg>
