<svg width="24" height="24" viewBox="0 0 24 24" fill="none" xmlns="http://www.w3.org/2000/svg">
<path d="M22.0449 0C23.1205 0.00163 23.9934 0.870769 24 1.94629L23.9873 9.20996C23.9959 16.2635 19.1324 22.3892 12.2607 23.9805C12.1291 24.008 11.993 24.008 11.8613 23.9805C4.9738 22.4516 0.0543442 16.3684 0 9.31348L0.0117188 1.95801C0.0127977 0.880998 0.88298 0.00662266 1.95996 0H22.0449ZM11.4629 5.9082C10.5504 4.98332 9.24375 4.56229 7.96289 4.78027C6.47183 5.02252 5.24125 6.07864 4.77539 7.51562C4.30976 8.95252 4.68668 10.5297 5.75195 11.6006L11.1982 17.2764C11.4283 17.5164 11.7466 17.6523 12.0791 17.6523C12.4116 17.6523 12.7299 17.5164 12.96 17.2764L18.4004 11.6006C19.6264 10.3772 19.9315 8.50581 19.1582 6.95605C18.5793 5.79753 17.4785 4.98803 16.2002 4.78027C14.9217 4.57264 13.621 4.99232 12.7051 5.9082C12.5407 6.0734 12.317 6.16602 12.084 6.16602C11.8509 6.16602 11.6273 6.07341 11.4629 5.9082Z" fill="#404040"/>
</svg>
