<svg width="24" height="24" viewBox="0 0 24 24" fill="none" xmlns="http://www.w3.org/2000/svg">
<g clip-path="url(#clip0_684_417)">
<path d="M13.9521 5.57812C14.5798 5.76488 15.0074 6.34519 15 7V12.5C15 12.7761 14.7761 13 14.5 13H11.5C9.84315 13 8.5 14.3432 8.5 16V23C8.49993 23.1391 8.5118 23.2779 8.53516 23.415C8.56021 23.5604 8.5198 23.7095 8.4248 23.8223C8.32975 23.9351 8.1895 24 8.04199 24H1C0.447715 24 0 23.5523 0 23V7C-0.00741839 6.34517 0.420186 5.76486 1.04785 5.57812C1.17948 5.53755 1.32257 5.55314 1.44238 5.62109C1.56196 5.68907 1.64798 5.80387 1.68066 5.9375C2.33891 8.61634 4.74144 10.5 7.5 10.5C10.2586 10.5 12.6611 8.61633 13.3193 5.9375C13.352 5.80385 13.438 5.68907 13.5576 5.62109C13.6774 5.55314 13.8205 5.53755 13.9521 5.57812ZM22.5 14.5C23.3284 14.5 24 15.1716 24 16V23C24 23.5523 23.5523 24 23 24H19.5C19.2239 24 19 23.7761 19 23.5V22.5C19 21.3954 18.1046 20.5 17 20.5C15.8954 20.5 15 21.3954 15 22.5V23.5C15 23.7761 14.7761 24 14.5 24H11C10.4477 24 10 23.5523 10 23V16C10 15.1716 10.6716 14.5 11.5 14.5H22.5ZM3 19.25C2.58579 19.25 2.25 19.5858 2.25 20C2.25 20.4142 2.58579 20.75 3 20.75H6C6.4142 20.75 6.75 20.4142 6.75 20C6.75 19.5858 6.4142 19.25 6 19.25H3ZM13 16.75C12.5858 16.75 12.25 17.0858 12.25 17.5C12.25 17.9142 12.5858 18.25 13 18.25H15.5C15.9142 18.25 16.25 17.9142 16.25 17.5C16.25 17.0858 15.9142 16.75 15.5 16.75H13ZM18.5 16.75C18.0858 16.75 17.75 17.0858 17.75 17.5C17.75 17.9142 18.0858 18.25 18.5 18.25H21C21.4142 18.25 21.75 17.9142 21.75 17.5C21.75 17.0858 21.4142 16.75 21 16.75H18.5ZM3 15.75C2.58579 15.75 2.25 16.0858 2.25 16.5C2.25 16.9142 2.58579 17.25 3 17.25H6C6.4142 17.25 6.75 16.9142 6.75 16.5C6.75 16.0858 6.4142 15.75 6 15.75H3ZM3 12.25C2.58579 12.25 2.25 12.5858 2.25 13C2.25 13.4142 2.58579 13.75 3 13.75H6.5C6.9142 13.75 7.25 13.4142 7.25 13C7.25 12.5858 6.9142 12.25 6.5 12.25H3ZM7.5 0C9.98527 1.4689e-05 12 2.01473 12 4.5C12 6.98527 9.98527 8.99999 7.5 9C5.01586 8.99724 3.00276 6.98414 3 4.5C3 2.01472 5.01472 0 7.5 0ZM7.5 1.75C7.08579 1.75 6.75 2.08579 6.75 2.5V3.25C6.75 3.52613 6.52613 3.74999 6.25 3.75H5.5C5.08579 3.75 4.75 4.08579 4.75 4.5C4.75 4.91421 5.08579 5.25 5.5 5.25H6.25C6.52613 5.25001 6.75 5.47387 6.75 5.75V6.5C6.75 6.91421 7.08579 7.25 7.5 7.25C7.9142 7.24999 8.25 6.9142 8.25 6.5V5.75C8.25 5.47386 8.47386 5.25 8.75 5.25H9.5C9.9142 5.24999 10.25 4.9142 10.25 4.5C10.25 4.0858 9.9142 3.75001 9.5 3.75H8.75C8.47386 3.75 8.25 3.52614 8.25 3.25V2.5C8.25 2.0858 7.9142 1.75001 7.5 1.75Z" fill="#404040"/>
</g>
<defs>
<clipPath id="clip0_684_417">
<rect width="24" height="24" fill="white"/>
</clipPath>
</defs>
</svg>
