<svg width="24" height="24" viewBox="0 0 24 24" fill="none" xmlns="http://www.w3.org/2000/svg">
<g clip-path="url(#clip0_455_229)">
<path fill-rule="evenodd" clip-rule="evenodd" d="M10 0H1C0.447715 0 0 0.44772 0 1V10C0 10.5523 0.447715 11 1 11H10C10.5523 11 11 10.5523 11 10V1C11 0.44772 10.5523 0 10 0ZM9 2V9H2V2H9ZM23 0H14C13.4477 0 13 0.44772 13 1V10C13 10.5523 13.4477 11 14 11H23C23.5523 11 24 10.5523 24 10V1C24 0.44772 23.5523 0 23 0ZM22 2V9H15V2H22ZM10 13H1C0.447715 13 0 13.4477 0 14V23C0 23.5523 0.447715 24 1 24H10C10.5523 24 11 23.5523 11 23V14C11 13.4477 10.5523 13 10 13ZM9 15V22H2V15H9ZM17 24H13V20H17V17H13V13H17V16H20V13H24V24H19V20H17V24Z" fill="#D52B1E"/>
</g>
<defs>
<clipPath id="clip0_455_229">
<rect width="24" height="24" fill="white"/>
</clipPath>
</defs>
</svg>
