<svg width="24" height="24" viewBox="0 0 24 24" fill="none" xmlns="http://www.w3.org/2000/svg">
<g clip-path="url(#clip0_610_718)">
<path d="M10 13C10.5523 13 11 13.4477 11 14V23C11 23.5523 10.5523 24 10 24H1C0.447715 24 0 23.5523 0 23V14C0 13.4477 0.447715 13 1 13H10ZM17 16H20V13H24V24H19V20H17V24H13V20H17V17H13V13H17V16ZM2 15V22H9V15H2ZM10 0C10.5523 0 11 0.44772 11 1V10C11 10.5523 10.5523 11 10 11H1C0.447715 11 0 10.5523 0 10V1C0 0.44772 0.447715 0 1 0H10ZM23 0C23.5523 0 24 0.44772 24 1V10C24 10.5523 23.5523 11 23 11H14C13.4477 11 13 10.5523 13 10V1C13 0.44772 13.4477 0 14 0H23ZM2 2V9H9V2H2ZM15 2V9H22V2H15Z" fill="#404040"/>
</g>
<defs>
<clipPath id="clip0_610_718">
<rect width="24" height="24" fill="white"/>
</clipPath>
</defs>
</svg>
