<svg width="24" height="24" viewBox="0 0 24 24" fill="none" xmlns="http://www.w3.org/2000/svg">
<g clip-path="url(#clip0_686_18989)">
<path d="M22.998 13.0078C23.5503 13.0078 23.998 13.4555 23.998 14.0078C23.9979 14.5599 23.5502 15.0078 22.998 15.0078H14.9346V17.9463H22.998C23.5503 17.9463 23.998 18.394 23.998 18.9463V23.001C23.998 23.5533 23.5503 24.001 22.998 24.001H13.9346C13.3823 24.001 12.9346 23.5533 12.9346 23.001C12.9348 22.4489 13.3824 22.001 13.9346 22.001H21.998V19.9463H13.9346C13.3824 19.9463 12.9348 19.4984 12.9346 18.9463V14.0078C12.9346 13.4555 13.3823 13.0078 13.9346 13.0078H22.998ZM8.98438 12.9629C10.0867 12.9631 10.9803 13.8559 10.9805 14.957V21.9375C10.9804 23.0387 10.0867 23.9314 8.98438 23.9316H1.99609C0.893694 23.9315 7.01591e-05 23.0388 0 21.9375V14.957C0.000143407 13.8558 0.893739 12.9631 1.99609 12.9629H8.98438ZM8.98438 0C10.0867 0.000239873 10.9804 0.89294 10.9805 1.99414V8.97461C10.9803 10.0758 10.0867 10.9685 8.98438 10.9688H1.99609C0.893726 10.9686 0.00012329 10.0758 0 8.97461V1.99414C8.99548e-05 0.892903 0.893706 0.000181005 1.99609 0H8.98438ZM21.9609 0C23.0633 0.000162669 23.9569 0.892892 23.957 1.99414V8.97461C23.9569 10.0758 23.0633 10.9686 21.9609 10.9688H14.9727C13.8704 10.9685 12.9767 10.0758 12.9766 8.97461V1.99414C12.9767 0.892951 13.8703 0.0002584 14.9727 0H21.9609Z" fill="#404040"/>
</g>
<defs>
<clipPath id="clip0_686_18989">
<rect width="24" height="24" fill="white"/>
</clipPath>
</defs>
</svg>
