<svg width="24" height="24" viewBox="0 0 24 24" fill="none" xmlns="http://www.w3.org/2000/svg">
<path fill-rule="evenodd" clip-rule="evenodd" d="M12 0C5.37258 0 0 5.37258 0 12C0 18.6274 5.37258 24 12 24C18.6274 24 24 18.6274 24 12C23.9928 5.37555 18.6244 0.00716485 12 0ZM12 19C11.1716 19 10.5 18.3284 10.5 17.5C10.5 16.6716 11.1716 16 12 16C12.8284 16 13.5 16.6716 13.5 17.5C13.5 18.3284 12.8284 19 12 19ZM13.6 12.92C13.2354 13.0791 12.9998 13.4392 13 13.837C13 14.3893 12.5523 14.837 12 14.837C11.4477 14.837 11 14.3893 11 13.837C10.9998 12.644 11.7066 11.5642 12.8 11.087C13.7156 10.6874 14.1959 9.67342 13.9251 8.71181C13.6543 7.75019 12.7154 7.1359 11.7258 7.27285C10.7362 7.4098 9.99949 8.25598 10 9.255C10 9.80729 9.55229 10.255 9 10.255C8.44771 10.255 8 9.80729 8 9.255C7.99997 7.25721 9.47397 5.56572 11.453 5.29252C13.432 5.01932 15.3092 6.24818 15.8504 8.17126C16.3916 10.0943 15.431 12.1209 13.6 12.92Z" fill="#404040"/>
</svg>
