<svg width="24" height="25" viewBox="0 0 24 25" fill="none" xmlns="http://www.w3.org/2000/svg">
<path d="M12.013 4.75012C16.026 4.82293 19.262 8.13251 19.3333 12.24C19.3686 14.9409 17.9537 17.4328 15.6679 18.7459L15.6667 20.5C15.6667 21.7426 14.6817 22.75 13.4667 22.75H12.7333V24.25C12.7333 24.6642 12.405 25 12 25C11.595 25 11.2667 24.6642 11.2667 24.25V22.75H10.5333C9.31831 22.75 8.33333 21.7426 8.33333 20.5L8.33324 18.7465C6.04818 17.4344 4.63303 14.944 4.66677 12.2411C4.73566 8.13522 7.97235 4.823 11.987 4.75012H12.013ZM14.2 19H9.8V20.5C9.8 20.9142 10.1283 21.25 10.5333 21.25H13.4667C13.8717 21.25 14.2 20.9142 14.2 20.5V19ZM11.9902 6.249L11.7941 6.25788C8.6715 6.42968 6.1873 9.04376 6.13327 12.2636C6.10621 14.4319 7.25342 16.4305 9.10141 17.467L9.16249 17.5H14.835L14.8987 17.467C16.6793 16.4683 17.8091 14.5766 17.8651 12.5033L17.8668 12.2633C17.8109 9.04163 15.3272 6.42953 12.2058 6.25788L11.9902 6.249ZM12.0807 14.759C12.6281 14.759 13.0719 15.2129 13.0719 15.7728C13.0719 16.2953 12.6853 16.7255 12.1887 16.7806L12.0807 16.7865C11.5332 16.7865 11.0894 16.3327 11.0894 15.7728C11.0894 15.2129 11.5332 14.759 12.0807 14.759ZM12.0545 7.37457L12.2735 7.38126C12.785 7.41742 13.2769 7.59668 13.6954 7.89943C14.114 8.20221 14.4431 8.61683 14.6468 9.09785C14.8505 9.57898 14.921 10.1082 14.8505 10.6275C14.7801 11.1469 14.5714 11.6364 14.2473 12.0426C13.9232 12.4488 13.4962 12.7561 13.0128 12.9309C12.9547 12.9519 12.9043 12.9908 12.8687 13.0424C12.8331 13.0938 12.814 13.1553 12.814 13.2183V13.399C12.814 13.8133 12.4857 14.149 12.0807 14.149C11.6757 14.149 11.3473 13.8133 11.3473 13.399V13.2183C11.3473 12.845 11.4605 12.4809 11.6713 12.1762C11.882 11.8715 12.1799 11.6411 12.5239 11.5167C12.7538 11.4335 12.9569 11.2874 13.111 11.0943C13.2651 10.9011 13.3643 10.6684 13.3978 10.4213C13.4313 10.1744 13.3978 9.92278 13.3009 9.69392C13.204 9.46519 13.0475 9.26805 12.8485 9.12408C12.6495 8.98012 12.4156 8.89488 12.1724 8.87769C11.9292 8.86049 11.686 8.912 11.4695 9.02659C11.253 9.14114 11.0715 9.31438 10.9447 9.52735C10.8433 9.69774 10.7802 9.88831 10.7589 10.0854L10.7509 10.2342C10.7508 10.6484 10.4224 10.9841 10.0174 10.984C9.6124 10.984 9.28414 10.6481 9.28423 10.2339C9.28433 9.7096 9.42534 9.19542 9.6919 8.74745C9.9585 8.29957 10.3402 7.93527 10.7955 7.69438C11.1857 7.48784 11.6172 7.37875 12.0545 7.37457ZM3.2 11.5C3.60501 11.5 3.93333 11.8358 3.93333 12.25C3.93333 12.6642 3.60501 13 3.2 13H1.73333C1.32832 13 1 12.6642 1 12.25C1 11.8358 1.32832 11.5 1.73333 11.5H3.2ZM22.2667 11.5C22.6717 11.5 23 11.8358 23 12.25C23 12.6642 22.6717 13 22.2667 13H20.8C20.395 13 20.0667 12.6642 20.0667 12.25C20.0667 11.8358 20.395 11.5 20.8 11.5H22.2667ZM4.44144 4.20921L5.517 5.2662C5.80903 5.5532 5.81829 6.02798 5.53767 6.32665C5.25705 6.62533 4.79282 6.63479 4.50078 6.3478L3.42523 5.29079C3.13319 5.0038 3.12394 4.52902 3.40456 4.23035C3.68518 3.93167 4.1494 3.92221 4.44144 4.20921ZM20.5954 4.23035C20.8761 4.52902 20.8668 5.0038 20.5748 5.29079L19.4992 6.3478C19.2072 6.63479 18.743 6.62533 18.4623 6.32665C18.1817 6.02798 18.191 5.5532 18.483 5.2662L19.5586 4.20921C19.8506 3.92221 20.3148 3.93167 20.5954 4.23035ZM12 1C12.405 1 12.7333 1.33579 12.7333 1.75V3.25C12.7333 3.66421 12.405 4 12 4C11.595 4 11.2667 3.66421 11.2667 3.25V1.75C11.2667 1.33579 11.595 1 12 1Z" fill="#404040"/>
</svg>
