<svg width="24" height="24" viewBox="0 0 24 24" fill="none" xmlns="http://www.w3.org/2000/svg">
<path d="M17.749 14.2148C20.633 14.215 22.9999 16.411 23 19.1074C23 21.804 20.6331 23.9998 17.749 24C14.8648 24 12.4971 21.8041 12.4971 19.1074C12.4972 16.4108 14.8449 14.2148 17.749 14.2148ZM20.3145 2.08984C20.8622 1.56106 21.7618 1.56105 22.3096 2.08984C22.8573 2.61863 22.8572 3.47997 22.3096 4.00879L3.68555 21.9102C3.41175 22.1842 3.04048 22.3017 2.68848 22.3018C2.33635 22.3018 1.96431 22.1648 1.69043 21.9102C1.14283 21.3814 1.14287 20.52 1.69043 19.9912L20.3145 2.08984ZM17.749 16.8926C16.4363 16.8926 15.3615 17.894 15.3613 19.1074C15.3613 20.3209 16.4362 21.3232 17.749 21.3232C19.0617 21.3231 20.1357 20.3208 20.1357 19.1074C20.1356 17.8941 19.0616 16.8928 17.749 16.8926ZM6.25098 0C9.13517 0 11.5028 2.196 11.5029 4.89258C11.5029 7.58926 9.13524 9.78516 6.25098 9.78516C3.36688 9.78497 1 7.58914 1 4.89258C1.00012 2.19611 3.34707 0.000187523 6.25098 0ZM6.25098 2.67773C4.93838 2.67792 3.86438 3.67928 3.86426 4.89258C3.86426 6.10597 4.93831 7.10821 6.25098 7.1084C7.56381 7.1084 8.63867 6.12535 8.63867 4.89258C8.63855 3.67917 7.56374 2.67773 6.25098 2.67773Z" fill="#404040"/>
</svg>
