<svg width="24" height="24" viewBox="0 0 24 24" fill="none" xmlns="http://www.w3.org/2000/svg">
<path fill-rule="evenodd" clip-rule="evenodd" d="M12.5501 1.00946C16.4847 0.839921 20.2086 2.79495 22.3089 6.13251C24.409 9.46993 24.5642 13.6785 22.7151 17.1618C20.8658 20.6453 17.2952 22.8699 13.3587 22.9909C13.2209 22.9991 13.0852 22.9987 12.9505 22.9987C9.45489 22.9982 6.16803 21.3307 4.09989 18.5075C3.72942 17.9396 3.8661 17.1803 4.41141 16.778C4.95679 16.3757 5.72122 16.4698 6.15262 16.9929C7.80179 19.252 10.4646 20.5411 13.2561 20.4313C17.4205 20.2741 20.8466 17.093 21.3186 12.945C21.7905 8.79728 19.1676 4.92612 15.1458 3.83368C11.1236 2.74138 6.90763 4.75593 5.22391 8.57489C5.19161 8.64805 5.19527 8.73229 5.23368 8.80243C5.27216 8.87255 5.34121 8.92038 5.4202 8.93231L7.17118 9.19306C7.36215 9.22155 7.52105 9.35597 7.58133 9.53974C7.64159 9.72349 7.5932 9.92578 7.45633 10.0622L3.60672 13.8942C3.51137 13.9895 3.38202 14.0432 3.24735 14.0436C3.22471 14.0452 3.20163 14.0452 3.17899 14.0436C3.02164 14.0224 2.8829 13.9287 2.80399 13.7907L0.0676607 8.9831C-0.0297846 8.81289 -0.0214132 8.60112 0.0891451 8.43915C0.20159 8.28073 0.39272 8.1971 0.585239 8.22138L2.30985 8.47626C2.42972 8.49443 2.54555 8.42469 2.58622 8.31024C4.11347 4.07477 8.04963 1.18828 12.5413 1.00946H12.5501Z" fill="#404040"/>
</svg>
