<svg width="24" height="24" viewBox="0 0 24 24" fill="none" xmlns="http://www.w3.org/2000/svg">
<g clip-path="url(#clip0_466_998)">
<path d="M7 3C7.14534 3 7.26367 3.11193 7.26367 3.25V4.75C7.26394 4.8163 7.23582 4.87984 7.18652 4.92676C7.13711 4.9737 7.06988 5.00027 7 5H4.63184C4.34116 5 4.10547 5.22386 4.10547 5.5V21.5C4.10549 21.7761 4.34117 22 4.63184 22H19.3682C19.6588 22 19.8945 21.7761 19.8945 21.5V5.5C19.8945 5.22386 19.6588 5 19.3682 5H17C16.9301 5.00027 16.8629 4.9737 16.8135 4.92676C16.7642 4.87984 16.737 4.8163 16.7373 4.75V3.25C16.7373 3.11193 16.8547 3 17 3H19.8945C21.0572 3 22 3.89543 22 5V22C22 23.1046 21.0572 24 19.8945 24H4.10547C2.94277 24 2.00002 23.1046 2 22V5C2 3.89543 2.94277 3 4.10547 3H7ZM11 16C11.5523 16 12 16.4477 12 17C12 17.5523 11.5523 18 11 18H7C6.44772 18 6 17.5523 6 17C6.00003 16.4477 6.44774 16 7 16H11ZM15 13C15.5523 13 16 13.4477 16 14C16 14.5523 15.5523 15 15 15H7C6.44772 15 6 14.5523 6 14C6.00004 13.4477 6.44774 13 7 13H15ZM17 10C17.5523 10 18 10.4477 18 11C18 11.5523 17.5523 12 17 12H7C6.44772 12 6 11.5523 6 11C6.00004 10.4477 6.44774 10 7 10H17ZM11.1924 0.116211C12.0964 -0.151857 13.0649 0.0493651 13.8115 0.660156C14.5581 1.27098 14.9975 2.22177 15 3.23145V5.92285C15 6.51752 14.5522 7 14 7H10C9.44796 6.99975 9.00098 6.51737 9.00098 5.92285V3.3252C8.97571 1.84564 9.87323 0.53085 11.1924 0.116211ZM12 2.1543C11.586 2.15444 11.2501 2.5161 11.25 2.96191C11.25 3.40783 11.5859 3.76939 12 3.76953C12.4142 3.76953 12.75 3.40791 12.75 2.96191C12.7499 2.51602 12.4141 2.1543 12 2.1543Z" fill="#404040"/>
</g>
<defs>
<clipPath id="clip0_466_998">
<rect width="24" height="24" fill="white"/>
</clipPath>
</defs>
</svg>
