<svg width="24" height="24" viewBox="0 0 24 24" fill="none" xmlns="http://www.w3.org/2000/svg">
<g clip-path="url(#clip0_267_123)">
<path fill-rule="evenodd" clip-rule="evenodd" d="M19.2594 7.72483H16.7582C16.4437 7.72483 16.1887 7.9709 16.1887 8.27445C16.1887 8.578 16.4437 8.82407 16.7582 8.82407H19.2594C19.4971 8.82407 19.7007 8.68358 19.7861 8.48397L19.8151 8.39503L19.8151 8.15349C19.8241 8.19241 19.8289 8.23289 19.8289 8.27445C19.8289 8.31588 19.8241 8.35623 19.8151 8.39503L19.8133 10.0677C19.8133 10.7153 19.2184 11.2402 18.4845 11.2402H15.8269C15.093 11.2402 14.4981 10.7153 14.4981 10.0677V6.55016C14.4981 5.9026 15.093 5.37764 15.8269 5.37764H16.6889L16.6892 2.92734C16.4882 2.85189 16.3036 2.73659 16.1482 2.58661C15.8539 2.30244 15.6884 1.91705 15.6884 1.51522C15.6884 1.21168 15.9434 0.965604 16.2579 0.965604C16.5462 0.965604 16.7845 1.17237 16.8222 1.44064L16.8274 1.51522C16.8274 1.62552 16.8728 1.73135 16.9537 1.8094C17.0345 1.88737 17.1441 1.93121 17.2584 1.93121C17.3727 1.93121 17.4824 1.88737 17.5631 1.80941C17.644 1.73135 17.6894 1.62552 17.6894 1.51522V0.549618C17.6894 0.246073 17.9444 0 18.2589 0H20.2599C20.9416 0 21.5954 0.26137 22.0775 0.726605C22.5596 1.19184 22.8304 1.82285 22.8304 2.48083L22.8298 16.826L22.8581 16.8269C23.4912 16.8269 24.0041 17.3245 23.9998 17.9356C23.9817 20.5138 23.9394 21.9848 23.9025 22.806C23.8745 23.4279 23.4965 23.9364 22.8532 23.9817C22.6916 23.9931 22.5061 24 22.2936 24C22.0812 24 21.8956 23.9931 21.7341 23.9817C21.0907 23.9364 20.7128 23.4279 20.6848 22.806C20.6594 22.2418 20.6315 21.3711 20.6107 20.0453C19.3474 20.0868 17.0299 20.1316 12.8639 20.137H11.1471C6.9781 20.1316 4.66048 20.0868 3.39794 20.0452C3.37708 21.3713 3.34916 22.2422 3.32378 22.8063C3.29582 23.4283 2.91787 23.9364 2.27453 23.9817C2.11295 23.9931 1.92738 24 1.71497 24C1.50255 24 1.31698 23.9931 1.1554 23.9817C0.512065 23.9364 0.134117 23.4283 0.106143 22.8063C0.0606809 21.7954 0.0070185 19.7992 0.000488281 15.9635L0.000488283 14.3797C0.00701852 10.5441 0.0606813 8.54788 0.106149 7.53695C0.134117 6.91499 0.512065 6.40681 1.1554 6.36151C1.31698 6.35014 1.50255 6.34324 1.71497 6.34324C1.92738 6.34324 2.11295 6.35014 2.27453 6.36151C2.91787 6.40681 3.29582 6.91499 3.32378 7.53695C3.37077 8.58158 3.4265 10.6782 3.42994 14.7694L3.43011 15.1716C3.43011 15.7974 3.42891 16.3786 3.42673 16.9184C4.78084 16.8743 7.32519 16.8269 12.0058 16.8269L21.6908 16.826L21.6914 2.48083C21.6914 2.1144 21.5406 1.76299 21.2721 1.50391C21.0037 1.2448 20.6395 1.09924 20.2599 1.09924H18.8282L18.8284 1.51522C18.8284 1.91705 18.663 2.30244 18.3686 2.58662C18.2135 2.73635 18.0292 2.85151 17.8287 2.92697L17.8279 5.37764H18.4845C19.2184 5.37764 19.8133 5.9026 19.8133 6.55016L19.8148 8.152L19.7859 8.06463C19.7005 7.86518 19.4969 7.72483 19.2594 7.72483ZM6.98583 8.94302C7.46797 9.19678 7.82593 9.62502 7.98096 10.1336L9.01059 13.5136C9.08715 13.7656 9.1115 14.0296 9.08224 14.2907C9.05298 14.5518 8.9707 14.8047 8.84008 15.035C8.70947 15.2654 8.53309 15.4686 8.32101 15.6332C8.10896 15.7977 7.86538 15.9202 7.60803 15.9927C7.41861 16.0475 7.22195 16.0754 7.0234 16.0757C6.57624 16.0757 6.14108 15.9359 5.78304 15.6773C5.42504 15.4187 5.16342 15.0552 5.03733 14.6411L4.00785 11.2616C3.85284 10.7531 3.91348 10.206 4.17643 9.74071C4.43938 9.27537 4.88309 8.92991 5.40995 8.78031C5.93682 8.63071 6.50368 8.68924 6.98583 8.94302Z" fill="#D52B1E"/>
</g>
<defs>
<clipPath id="clip0_267_123">
<rect width="24" height="24" fill="white"/>
</clipPath>
</defs>
</svg>
