<svg width="24" height="24" viewBox="0 0 24 24" fill="none" xmlns="http://www.w3.org/2000/svg">
<path fill-rule="evenodd" clip-rule="evenodd" d="M21.9218 0.724571C22.8934 0.93944 23.493 1.75545 23.6077 2.74389C23.781 4.23863 24 6.70034 24 9.6C24 15.017 21.141 20.0858 16.3245 22.5647C14.7155 23.3928 13.1452 24 12 24C10.8548 24 9.28451 23.3928 7.67554 22.5647C2.85896 20.0858 0 15.017 0 9.6C0 6.70034 0.218954 4.23863 0.392331 2.74389C0.506977 1.75545 1.10665 0.93944 2.07824 0.724571C3.55166 0.398721 6.36921 0.0215921 11.5501 0.000891906L12 0C17.4687 0 20.4062 0.389411 21.9218 0.724571ZM12.1128 7.38053L11.9971 7.48808L11.8802 7.37931C9.36459 5.13376 5.55605 5.7068 4.75978 8.77573L4.72172 8.935C4.39603 10.3386 4.63913 11.845 5.38884 13.0649C6.13328 14.2034 7.028 15.0565 8.79365 16.458L10.0182 17.4252C10.285 17.639 10.508 17.8224 10.7206 18.0035C11.4509 18.6254 12.5434 18.6254 13.2737 18.0035L13.536 17.7833C13.6717 17.6708 13.816 17.5535 13.9761 17.4252L15.436 16.2703C17.0473 14.9785 17.8941 14.1529 18.597 13.0783C19.3702 11.8962 19.6061 10.3719 19.2726 8.93499C18.5747 5.72817 14.6747 5.09366 12.1128 7.38053ZM18.175 9.18177C18.4427 10.3355 18.2555 11.5451 17.6555 12.4624C17.0336 13.4133 16.2461 14.1794 14.7163 15.4053L13.6219 16.2695C13.182 16.6171 12.8543 16.883 12.5443 17.147C12.2344 17.4109 11.7599 17.4109 11.45 17.147L11.1778 16.9184C10.9904 16.7632 10.7885 16.5999 10.5544 16.4137L9.27789 15.4052C7.74822 14.1794 6.96075 13.4133 6.33882 12.4625C5.78947 11.5682 5.58446 10.4547 5.77435 9.39947L5.81929 9.18177C6.31302 6.91329 9.15144 6.4515 11.1324 8.21979L11.2378 8.31898L11.5925 8.69043L11.9972 9.10963L12.6309 8.44806C12.7257 8.34794 12.7938 8.28021 12.8606 8.22103C14.8429 6.4515 17.6813 6.91329 18.175 9.18177Z" fill="#D52B1E"/>
</svg>
