<svg width="24" height="24" viewBox="0 0 24 24" fill="none" xmlns="http://www.w3.org/2000/svg">
<path fill-rule="evenodd" clip-rule="evenodd" d="M6.71085 12.8121C7.01899 12.6834 7.36805 12.7242 7.64155 12.9211C7.91505 13.118 8.077 13.4449 8.07335 13.7929L8.07194 13.9199C8.04296 14.3387 7.7753 14.704 7.38713 14.8362C5.96661 15.3757 5.04188 16.8172 5.10035 18.4009C5.15881 19.9846 6.18703 21.3467 7.64307 21.7694C9.09911 22.192 10.6485 21.578 11.4746 20.2511C11.6534 19.9761 11.953 19.815 12.2702 19.8233L12.3952 19.8286C12.7245 19.8642 13.0188 20.0706 13.1745 20.3836C13.3497 20.7357 13.3192 21.1616 13.0957 21.4822C11.8563 23.3876 9.65435 24.3354 7.49653 23.8923C5.04308 23.4268 3.20015 21.2797 3.01519 18.6713C2.83023 16.0629 4.35006 13.6533 6.71085 12.8121ZM11.0569 6.78167C11.8808 6.78167 12.5487 7.48234 12.5487 8.34667V9.65083C12.5487 9.79489 12.66 9.91167 12.7973 9.91167H16.0295C16.8534 9.91167 17.5213 10.6123 17.5213 11.4767C17.5213 12.341 16.8534 13.0417 16.0295 13.0417H12.7973C12.66 13.0417 12.5487 13.1584 12.5487 13.3025V14.6067C12.5487 14.8948 12.7713 15.1283 13.046 15.1283H15.5024C16.7159 15.1137 17.848 15.7669 18.486 16.8498L20.7734 20.5641C20.9833 20.9151 21.051 21.3395 20.9613 21.743C20.8717 22.1465 20.6322 22.4958 20.2961 22.7134C20.0625 22.8729 19.7891 22.9564 19.5104 22.9534L19.3708 22.9471C18.9094 22.903 18.4912 22.6325 18.2473 22.2126L15.95 18.4983C15.8587 18.349 15.7014 18.2586 15.5323 18.2583H11.0569C10.233 18.2583 9.56514 17.5577 9.56514 16.6933V8.34667C9.56514 7.48234 10.233 6.78167 11.0569 6.78167ZM11.0569 5.21667C12.4301 5.21667 13.5432 4.04888 13.5432 2.60833C13.5432 1.16779 12.4301 0 11.0569 0C9.68377 0 8.57061 1.16779 8.57061 2.60833C8.57061 4.04888 9.68377 5.21667 11.0569 5.21667Z" fill="#D52B1E"/>
</svg>
