<svg width="24" height="24" viewBox="0 0 24 24" fill="none" xmlns="http://www.w3.org/2000/svg">
<g clip-path="url(#clip0_455_178)">
<path fill-rule="evenodd" clip-rule="evenodd" d="M23.888 5.83203C23.956 5.86007 24.0003 5.92645 24 6V18C24 19.1046 23.1046 20 22 20H2C0.895431 20 0 19.1046 0 18V6C0.000801 5.92726 0.0448445 5.86197 0.112 5.83399C0.180316 5.80437 0.259829 5.81994 0.312012 5.87305L6.51199 12.073C6.60937 12.1709 6.60937 12.3291 6.51199 12.427L1.46899 17.47C1.18462 17.7641 1.18847 18.2319 1.47763 18.5214C1.7668 18.8108 2.23457 18.8151 2.52899 18.531L7.57199 13.488C7.6699 13.3907 7.82808 13.3907 7.92599 13.488L10.057 15.615C11.1308 16.6882 12.8712 16.6882 13.945 15.615L16.074 13.486C16.1209 13.4389 16.1846 13.4126 16.251 13.4126C16.3174 13.4126 16.3811 13.4389 16.428 13.486L21.471 18.5291C21.6594 18.7239 21.9383 18.8019 22.2005 18.7332C22.4627 18.6644 22.6674 18.4595 22.7359 18.1973C22.8044 17.935 22.7261 17.6562 22.531 17.468L17.488 12.425C17.3906 12.3271 17.3906 12.169 17.488 12.071L23.688 5.87097C23.7404 5.81837 23.8196 5.803 23.888 5.83203ZM22 4C22.0961 4 22.192 4.007 22.287 4.021C22.4744 4.04823 22.6303 4.17889 22.6898 4.35864C22.7492 4.53838 22.7021 4.73637 22.568 4.87L12.882 14.556C12.3934 15.0432 11.6027 15.0432 11.114 14.556L1.42999 4.87C1.29587 4.73637 1.24874 4.53838 1.30823 4.35864C1.36772 4.17889 1.52363 4.04823 1.711 4.021C1.80668 4.0069 1.90328 3.99988 2 4H22Z" fill="#D52B1E"/>
</g>
<defs>
<clipPath id="clip0_455_178">
<rect width="24" height="24" fill="white"/>
</clipPath>
</defs>
</svg>
