<svg width="24" height="24" viewBox="0 0 24 24" fill="none" xmlns="http://www.w3.org/2000/svg">
<path fill-rule="evenodd" clip-rule="evenodd" d="M10.0163 5.25581C9.35976 5.30196 8.70318 5.32503 8.04659 5.32503C7.39001 5.32503 6.73342 5.30196 6.07684 5.25581C5.80487 5.25581 5.5844 5.04757 5.5844 4.7907V4.32558C5.5844 3.0412 6.68676 2 8.04659 2C9.40643 2 10.5088 3.0412 10.5088 4.32558V4.7907C10.5088 5.04757 10.2883 5.25581 10.0163 5.25581ZM18.9487 22C17.8608 22 16.9789 21.167 16.9789 20.1395C16.9789 19.112 17.8608 18.2791 18.9487 18.2791C20.0366 18.2791 20.9185 19.112 20.9185 20.1395C20.9185 21.167 20.0366 22 18.9487 22ZM1.22067 6.65117C3.56466 6.3579 5.82348 6.21126 7.99712 6.21126C10.1708 6.21126 12.3439 6.3579 14.5165 6.65117C14.7885 6.65117 15.009 6.85941 15.009 7.11629V7.5814C15.009 7.83828 15.2294 8.04652 15.5014 8.04652H18.3674C19.1149 8.04689 19.7977 8.44684 20.1303 9.07908L22.3168 13.7302C22.3168 13.7612 22.586 14.062 23.1244 14.6326C23.5961 15.0615 23.7568 15.5903 23.8729 16.2042C23.9502 16.6135 23.9926 17.1739 23.9999 17.8852C24.0018 18.6889 23.9595 19.2853 23.8729 19.6744C23.7429 20.2582 23.4319 20.6047 22.888 20.6047C22.7574 20.6062 22.6322 20.5555 22.5433 20.4651C22.4476 20.3811 22.394 20.2629 22.3956 20.1395C22.3956 18.3414 20.8522 16.8837 18.9485 16.8837C17.0447 16.8837 15.5014 18.3414 15.5014 20.1395C15.5011 20.2652 15.4479 20.3857 15.3537 20.4744C15.2612 20.5587 15.1375 20.6054 15.009 20.6047C13.9064 20.6862 12.8822 20.727 11.9364 20.727C10.9907 20.727 10.0451 20.6862 9.0997 20.6047C8.82773 20.6047 8.60726 20.3964 8.60726 20.1395C8.60726 18.3414 7.06395 16.8837 5.16018 16.8837C3.25641 16.8837 1.71311 18.3414 1.71311 20.1395C1.70787 20.3943 1.49043 20.5997 1.22067 20.6047C0.676735 20.6047 0.304369 20.2831 0.23579 19.6744C0.0785961 17.7612 0 15.7798 0 13.7302C0 11.6806 0.0785961 9.63103 0.23579 7.5814C0.334993 6.9909 0.663441 6.72831 1.22067 6.65117ZM15.009 12.7163C15.009 12.9732 15.2294 13.1814 15.5014 13.1814H19.1455C19.3197 13.1698 19.4756 13.0751 19.5591 12.9302C19.6379 12.7907 19.6379 12.6233 19.5591 12.4837L18.4659 10.1488C18.3888 9.98187 18.2155 9.87279 18.0227 9.86977H15.5014C15.2294 9.86977 15.009 10.078 15.009 10.3349V12.7163ZM5.16013 22C4.07226 22 3.19037 21.167 3.19037 20.1395C3.19037 19.112 4.07226 18.2791 5.16013 18.2791C6.24799 18.2791 7.12988 19.112 7.12988 20.1395C7.12988 21.167 6.24799 22 5.16013 22ZM10.7144 10.5681C10.9166 10.5681 11.0721 10.3318 10.9166 10.2097C10.3969 9.80157 9.72878 9.55612 9.00001 9.55612C7.34315 9.55612 6 10.8247 6 12.3897C6 13.9546 7.34315 15.2232 9.00001 15.2232C9.72876 15.2232 10.3968 14.9778 10.9166 14.5697C11.0721 14.4476 10.9166 14.2113 10.7144 14.2113C9.64932 14.2113 8.78586 13.3957 8.78586 12.3897C8.78586 11.3837 9.64932 10.5681 10.7144 10.5681Z" fill="#D52B1E"/>
</svg>
