<svg width="24" height="24" viewBox="0 0 24 24" fill="none" xmlns="http://www.w3.org/2000/svg">
<path d="M8.04659 4.52035C8.70318 4.52035 9.35976 4.49593 10.0163 4.44707C10.2883 4.44707 10.5088 4.2266 10.5088 3.95464V3.4622C10.5088 2.10236 9.40643 1 8.04659 1C6.68676 1 5.5844 2.10236 5.5844 3.4622V3.95464C5.5844 4.2266 5.80487 4.44707 6.07684 4.44707C6.73342 4.49593 7.39001 4.52035 8.04659 4.52035Z" fill="#D52B1E"/>
<path d="M16.9789 20.2051C16.9789 21.293 17.8608 22.1749 18.9487 22.1749C20.0366 22.1749 20.9185 21.293 20.9185 20.2051C20.9185 19.1173 20.0366 18.2354 18.9487 18.2354C17.8608 18.2354 16.9789 19.1173 16.9789 20.2051Z" fill="#D52B1E"/>
<path fill-rule="evenodd" clip-rule="evenodd" d="M1.22067 5.9244C3.56466 5.6139 5.82348 5.45865 7.99712 5.45865C10.1708 5.45865 12.3439 5.6139 14.5165 5.9244C14.7885 5.9244 15.009 6.14487 15.009 6.41684V6.90928C15.009 7.18124 15.2294 7.40172 15.5014 7.40172H18.3674C19.1149 7.40211 19.7977 7.82555 20.1303 8.49493L22.3168 13.4193C22.3168 13.4522 22.586 13.7706 23.1244 14.3747C23.5961 14.8288 23.7568 15.3886 23.8729 16.0386C23.9502 16.472 23.9926 17.0652 23.9999 17.8184C24.0018 18.6692 23.9595 19.3007 23.8729 19.7127C23.7429 20.3307 23.4319 20.6976 22.888 20.6976C22.7574 20.6992 22.6322 20.6455 22.5433 20.5498C22.4476 20.4609 22.394 20.3357 22.3956 20.2051C22.3956 18.3014 20.8522 16.7581 18.9485 16.7581C17.0447 16.7581 15.5014 18.3014 15.5014 20.2051C15.5011 20.3382 15.4479 20.4657 15.3537 20.5597C15.2612 20.6489 15.1375 20.6983 15.009 20.6976C13.9064 20.7839 12.8822 20.8271 11.9364 20.8271C10.9907 20.8271 10.0451 20.7839 9.0997 20.6976C8.82773 20.6976 8.60726 20.4771 8.60726 20.2051C8.60726 18.3014 7.06395 16.7581 5.16018 16.7581C3.25641 16.7581 1.71311 18.3014 1.71311 20.2051C1.70787 20.4749 1.49043 20.6923 1.22067 20.6976C0.676735 20.6976 0.304369 20.3571 0.23579 19.7127C0.0785961 17.6871 0 15.5893 0 13.4193C0 11.2493 0.0785961 9.07931 0.23579 6.90928C0.334993 6.28409 0.663441 6.00607 1.22067 5.9244ZM15.009 12.3458C15.009 12.6178 15.2294 12.8382 15.5014 12.8382H19.1455C19.3197 12.8259 19.4756 12.7257 19.5591 12.5723C19.6379 12.4246 19.6379 12.2473 19.5591 12.0996L18.4659 9.62754C18.3888 9.45076 18.2155 9.33527 18.0227 9.33208H15.5014C15.2294 9.33208 15.009 9.55255 15.009 9.82452V12.3458ZM4.66774 12.8185C4.66774 13.0905 4.88821 13.311 5.16018 13.311H6.14506C6.41703 13.311 6.6375 13.5315 6.6375 13.8034V14.7883C6.6375 15.0603 6.85797 15.2807 7.12994 15.2807H8.11482C8.38678 15.2807 8.60726 15.0603 8.60726 14.7883V13.8034C8.60726 13.5315 8.82773 13.311 9.0997 13.311H10.0846C10.3565 13.311 10.577 13.0905 10.577 12.8185V11.8337C10.577 11.5617 10.3565 11.3412 10.0846 11.3412H9.0997C8.82773 11.3412 8.60726 11.1208 8.60726 10.8488V9.86391C8.60726 9.59194 8.38678 9.37147 8.11482 9.37147H7.12994C6.85797 9.37147 6.6375 9.59194 6.6375 9.86391V10.8488C6.6375 11.1208 6.41703 11.3412 6.14506 11.3412H5.16018C4.88821 11.3412 4.66774 11.5617 4.66774 11.8337V12.8185Z" fill="#D52B1E"/>
<path d="M3.19037 20.2051C3.19037 21.293 4.07226 22.1749 5.16013 22.1749C6.24799 22.1749 7.12988 21.293 7.12988 20.2051C7.12988 19.1173 6.24799 18.2354 5.16013 18.2354C4.07226 18.2354 3.19037 19.1173 3.19037 20.2051Z" fill="#D52B1E"/>
</svg>
