<svg width="24" height="24" viewBox="0 0 24 24" fill="none" xmlns="http://www.w3.org/2000/svg">
<path fill-rule="evenodd" clip-rule="evenodd" d="M11.9993 1.00001C12.5929 1.00202 13.1614 1.24311 13.5779 1.66846L20.5606 8.74245C20.5643 8.7461 20.5679 8.7498 20.5716 8.75355L23.8211 12.0459C24.0595 12.2874 24.0596 12.6791 23.8214 12.9207C23.5832 13.1624 23.1969 13.1626 22.9585 12.9211L20.745 10.678L20.7458 22.3814C20.7458 22.723 20.4726 23 20.1356 23H3.86441C3.52742 23 3.25424 22.723 3.25424 22.3814L3.254 10.675L1.04181 12.9207C0.803622 13.1624 0.417284 13.1626 0.178897 12.9211C-0.0594896 12.6796 -0.0596533 12.2879 0.178532 12.0462L3.42838 8.74812C3.43171 8.74466 3.43509 8.74124 3.43851 8.73787L10.4146 1.65962C10.8356 1.23533 11.4056 0.998051 11.9993 1.00001ZM12 14.1331C10.2027 14.1331 8.74576 15.6103 8.74576 17.4324L8.745 21.762H15.254L15.2542 17.4324C15.2542 15.6103 13.7973 14.1331 12 14.1331Z" fill="#D52B1E"/>
</svg>
