<svg width="24" height="24" viewBox="0 0 24 24" fill="none" xmlns="http://www.w3.org/2000/svg">
<path fill-rule="evenodd" clip-rule="evenodd" d="M15.3349 10.8096L15.3378 10.8074L15.3407 10.805C16.8872 9.58262 17.7711 8.74441 18.4704 7.68244C19.2299 6.54822 19.4371 5.09328 19.1181 3.73627C18.7678 2.15755 17.4828 1.30937 16.0822 1.15283C14.7575 1.00477 13.283 1.45029 12.1254 2.42313C12.113 2.43181 12.1031 2.43922 12.0964 2.44426C12.0883 2.45041 12.0815 2.45575 12.0765 2.45977C12.0666 2.46763 12.0586 2.47435 12.0535 2.47872L12.0393 2.4909C12.0254 2.50306 12.0125 2.51484 12.0033 2.52342L11.996 2.53024C10.862 1.64531 9.42732 1.19193 8.13351 1.25883C6.71038 1.33242 5.29205 2.07813 4.92679 3.72411L4.8731 3.95233L4.86863 3.97764C4.64593 5.23985 4.89594 6.56082 5.5556 7.64047L5.5659 7.65731L5.5769 7.67372C6.28518 8.72938 7.15044 9.56456 8.70419 10.7927L8.70458 10.7931C8.88631 10.9365 9.99882 11.8278 10.5546 12.2731L10.557 12.275L10.8461 12.5066C11.5138 13.0589 12.508 13.056 13.1722 12.498C13.3917 12.3135 14.2557 11.6451 14.8626 11.1755L14.8629 11.1753C15.0559 11.0259 15.2229 10.8967 15.3349 10.8096ZM5.517 15.467C7.56378 13.7155 10.6429 15.1073 10.6429 15.1073L14.3666 14.1505C14.907 14.0116 15.4614 14.319 15.6446 14.859C15.8353 15.4211 15.5579 16.0373 15.0173 16.2526L11.0343 17.8383L16.039 17.774L20.7938 14.5176C21.5047 14.0307 22.4466 14.0999 23.0827 14.6857C23.3208 14.9051 23.302 15.2937 23.0439 15.4877L16.7929 20.1869C16.3066 20.5525 15.7087 20.727 15.1077 20.6786L7.49482 20.0658L6.50001 20.6373L3.80451 16.5354L5.517 15.467ZM0.915349 17.8385C0.743744 17.9545 0.698363 18.1878 0.813988 18.3596L3.74119 22.7096C3.85681 22.8814 4.08966 22.9267 4.26126 22.8107L5.98574 21.6455C6.15734 21.5296 6.20272 21.2963 6.0871 21.1245L3.1599 16.7745C3.04427 16.6026 2.81143 16.5573 2.63982 16.6733L0.915349 17.8385Z" fill="#D52B1E"/>
</svg>
