<svg width="24" height="24" viewBox="0 0 24 24" fill="none" xmlns="http://www.w3.org/2000/svg">
<g clip-path="url(#clip0_1_1350)">
<path fill-rule="evenodd" clip-rule="evenodd" d="M17.3172 4.64735C20.8025 4.64735 22.8495 6.81683 23.4107 10.9873C23.7505 11.0799 24 11.3904 24 11.7591V13.0587L23.391 13.058L22.1413 21.7542L22.114 21.8514C21.7967 22.5895 21.421 23 20.9171 23H16.5618C16.3446 23 16.1684 22.8261 16.1684 22.6116C16.1684 22.3971 16.2484 22.1483 16.4508 22.0036C16.6532 21.8589 16.7998 21.5857 16.7998 21.177C16.7998 20.7682 16.4529 20.4978 16.229 20.196C16.0051 19.8942 15.679 19.3802 15.5813 18.7895C15.4836 18.1988 15.7572 17.1347 15.3872 16.6074C15.0171 16.0801 14.6874 15.8926 14.3667 15.8271C14.2716 15.8077 14.0345 15.7969 13.6552 15.7947H13.344C12.8936 15.7969 12.3011 15.8077 11.5664 15.8271C11.3506 15.8524 11.1549 15.7003 11.1292 15.4873L10.836 13.058L10.23 13.0587V11.7591C10.23 11.3712 10.506 11.0478 10.8723 10.9746C11.677 6.80678 13.8398 4.64735 17.3172 4.64735ZM14.5754 18.8584C14.7459 18.8584 14.8963 18.9611 14.9454 19.1112C15.2216 19.9555 15.6161 20.629 16.1262 21.1359C16.2886 21.2973 16.2542 21.5542 16.054 21.6745C15.3952 22.0704 14.3417 22.257 12.8803 22.257C12.7208 22.257 12.5776 22.1668 12.52 22.03L12.105 21.045L11.6986 22.0281C11.6511 22.1429 11.5434 22.2253 11.416 22.2496L11.3375 22.257H0.387151C0.0494856 22.257 -0.12573 21.8868 0.10442 21.6597C0.664961 21.1064 1.01157 20.685 1.13797 20.4165C1.2581 20.1614 1.30529 19.7663 1.2675 19.2368C1.25288 19.0319 1.42971 18.8584 1.65306 18.8584H14.5754ZM8.05014 5.13287C8.51995 5.13287 8.9008 5.50887 8.9008 5.97268L8.90084 15.4032C9.38117 15.4673 9.75146 15.8737 9.75146 16.3654L9.751 16.467L13.9446 16.4675C14.4476 16.4675 14.8554 16.8701 14.8554 17.3667V18.567H1.24487V17.3667C1.24487 16.8701 1.65264 16.4675 2.15566 16.4675L6.348 16.467L6.34882 16.3654C6.34882 15.8737 6.71911 15.4673 7.19944 15.4032L7.19948 5.97268C7.19948 5.50887 7.58034 5.13287 8.05014 5.13287ZM2.36136 10.1517C2.44429 10.1517 2.51688 10.2058 2.53833 10.2836C2.59708 10.4969 2.65966 10.6206 2.74909 10.7106C2.83956 10.8016 2.97535 10.876 3.21891 10.9538C3.2941 10.9777 3.34493 11.0459 3.34493 11.1228C3.34493 11.1996 3.2941 11.2678 3.21891 11.2918C2.97535 11.3695 2.83956 11.4439 2.74909 11.535C2.65966 11.6249 2.59708 11.7486 2.53833 11.9619C2.51688 12.0397 2.44429 12.0938 2.36136 12.0938C2.2784 12.0938 2.20581 12.0397 2.18436 11.9619C2.12561 11.7486 2.06303 11.6249 1.97361 11.535C1.88313 11.4439 1.74734 11.3695 1.50378 11.2918C1.42859 11.2678 1.37778 11.1996 1.37778 11.1228C1.37778 11.0459 1.42859 10.9777 1.50378 10.9538C1.74734 10.876 1.88313 10.8016 1.97361 10.7106C2.06303 10.6206 2.12561 10.4969 2.18436 10.2836C2.20581 10.2058 2.2784 10.1517 2.36136 10.1517ZM17.3172 5.61839C14.4191 5.61839 12.6197 7.35164 11.8779 10.9586L22.4149 10.9585C21.8946 7.34513 20.2104 5.61839 17.3172 5.61839ZM4.5003 7.19538C4.56509 7.19538 4.62173 7.23702 4.63814 7.29674C4.70092 7.52507 4.76977 7.66532 4.87281 7.76921C4.97638 7.87361 5.12811 7.95504 5.38672 8.03772C5.44476 8.05628 5.48387 8.10809 5.48387 8.16642C5.48387 8.22475 5.44476 8.27656 5.38672 8.29512C5.12811 8.37781 4.97638 8.45923 4.87281 8.56364C4.76977 8.66752 4.70092 8.80777 4.63814 9.03611C4.62173 9.09583 4.56509 9.13746 4.5003 9.13746C4.43549 9.13746 4.37885 9.09583 4.36244 9.03611C4.29968 8.80777 4.23081 8.66752 4.12777 8.56364C4.02422 8.45923 3.87247 8.37781 3.61388 8.29512C3.55584 8.27656 3.51672 8.22475 3.51672 8.16642C3.51672 8.10809 3.55584 8.05628 3.61388 8.03772C3.87247 7.95504 4.02422 7.87361 4.12777 7.76921C4.23081 7.66532 4.29968 7.52507 4.36244 7.29674C4.37885 7.23702 4.43549 7.19538 4.5003 7.19538ZM22.139 2C22.1975 2 22.2487 2.03745 22.2635 2.09111C22.3657 2.46209 22.4814 2.70431 22.6633 2.88731C22.8456 3.07075 23.1067 3.20702 23.5267 3.34107C23.5791 3.35777 23.6143 3.40425 23.6143 3.45656C23.6143 3.50888 23.5791 3.55535 23.5267 3.57206C23.1067 3.70609 22.8456 3.84237 22.6633 4.0258C22.4814 4.20881 22.3657 4.45104 22.2635 4.82201C22.2487 4.87568 22.1975 4.91312 22.139 4.91312C22.0804 4.91312 22.0292 4.87568 22.0144 4.82201C21.9122 4.45104 21.7965 4.20881 21.6146 4.0258C21.4323 3.84237 21.1713 3.70609 20.7512 3.57206C20.6989 3.55535 20.6636 3.50888 20.6636 3.45656C20.6636 3.40425 20.6989 3.35777 20.7512 3.34107C21.1713 3.20702 21.4323 3.07075 21.6146 2.88731C21.7965 2.70431 21.9122 2.46209 22.0144 2.09111C22.0292 2.03745 22.0804 2 22.139 2Z" fill="#D52B1E"/>
</g>
<defs>
<clipPath id="clip0_1_1350">
<rect width="24" height="24" fill="white"/>
</clipPath>
</defs>
</svg>
