<svg width="24" height="24" viewBox="0 0 24 24" fill="none" xmlns="http://www.w3.org/2000/svg">
<path fill-rule="evenodd" clip-rule="evenodd" d="M10.5531 5.10617C9.14305 5.10617 7.99999 3.96311 7.99999 2.55308C7.99999 1.14305 9.14305 0 10.5531 0C11.9631 0 13.1062 1.14305 13.1062 2.55308C13.1062 3.96311 11.9631 5.10617 10.5531 5.10617ZM8.80096 6.78471C9.23164 6.56698 9.8001 6.57253 10.2455 6.78471C10.6909 6.99689 11.0069 7.41061 11.0943 7.89617L11.4415 9.80486C19.3153 11.6104 15.985 19.9151 14.6431 19.9151H13.3666C13.2256 19.9151 13.1113 20.0294 13.1113 20.1704V22.4682C13.1113 23.3142 12.4254 24 11.5794 24C10.7334 24 10.0476 23.3142 10.0476 22.4682V20.1694C10.0476 20.0284 9.93326 19.914 9.79226 19.914H8.63316C8.48621 19.9151 8.34592 19.8529 8.24815 19.7432C8.15038 19.6335 8.10461 19.487 8.12254 19.3411L8.89766 13.0932C8.90362 13.0419 8.9019 12.9899 8.89255 12.939L8.57801 11.2029C8.55646 11.0838 7.89314 8.24706 8.20599 7.45133C8.33322 7.12773 8.57801 6.89742 8.80096 6.78471ZM12.6452 15.4791C12.5056 15.2657 12.4682 14.9926 12.5263 14.7422C12.6504 14.172 13.3377 14.1093 13.7658 14.4915C13.7997 14.5215 13.8299 14.5562 13.8632 14.5907C13.8966 14.5562 13.9267 14.5215 13.9606 14.4915C14.3887 14.1093 15.076 14.172 15.2001 14.7422C15.2582 14.9926 15.2148 15.2618 15.0812 15.4791C14.836 15.854 14.3983 16.1326 14.0444 16.434C13.9411 16.522 13.7854 16.522 13.682 16.434C13.3281 16.1326 12.8904 15.854 12.6452 15.4791Z" fill="#D52B1E"/>
</svg>
