<svg width="24" height="24" viewBox="0 0 24 24" fill="none" xmlns="http://www.w3.org/2000/svg">
<g clip-path="url(#clip0_1_1393)">
<path d="M17.6182 3C18.6529 3.00036 19.536 3.74692 19.707 4.76588L20.074 6.964L21.1024 6.33092C21.8015 5.92826 22.6952 6.16775 23.0984 6.86584C23.5016 7.56393 23.2618 8.45626 22.5627 8.85892L21.5764 9.71316C23.0084 10.3392 24 11.6948 24 13.2662V15.1646C24 16.2478 23.0577 17.1258 21.8954 17.1258H2.10462C0.942269 17.1258 0 16.2478 0 15.1646V13.2622C0.00175231 11.6268 1.07746 10.2257 2.60554 9.63847L1.4373 8.85892C0.738202 8.45626 0.498362 7.56393 0.901606 6.86584C1.30485 6.16775 2.19848 5.92826 2.89758 6.33092L3.925 6.968L4.29296 4.76588C4.46402 3.74692 5.3471 3.00036 6.38177 3H17.6182ZM3.9483 12.261C2.84213 12.261 1.9454 13.1565 1.9454 14.261C1.9454 15.3656 2.84213 16.261 3.9483 16.261C5.05447 16.261 5.9512 15.3656 5.9512 14.261C5.9512 13.1565 5.05447 12.261 3.9483 12.261ZM20.2331 12.261C19.1269 12.261 18.2302 13.1565 18.2302 14.261C18.2302 15.3656 19.1269 16.261 20.2331 16.261C21.3393 16.261 22.236 15.3656 22.236 14.261C22.236 13.1565 21.3393 12.261 20.2331 12.261ZM17.15 3.70486H6.84996C5.9015 3.70518 5.09202 4.36879 4.93521 5.27453L4.23529 9.34374H19.7908C19.9313 9.34374 20.0703 9.35016 20.2073 9.3627L20.203 9.342L11.9934 9.343L19.7647 9.34279L19.0648 5.27453C18.908 4.36879 18.0985 3.70518 17.15 3.70486ZM5.67083 19.0827V20.5418C5.67083 21.3472 5.01704 22 4.21055 22C3.40406 22 2.75027 21.3472 2.75027 20.5418V19.0827H5.67083ZM21.2497 19.0827V20.5418C21.2497 21.3472 20.5959 22 19.7894 22C18.983 22 18.3292 21.3472 18.3292 20.5418V19.0827H21.2497Z" fill="#D52B1E" stroke="#D52B1E" stroke-linecap="round" stroke-linejoin="round"/>
</g>
<defs>
<clipPath id="clip0_1_1393">
<rect width="24" height="24" fill="white"/>
</clipPath>
</defs>
</svg>
