<svg width="24" height="24" viewBox="0 0 24 24" fill="none" xmlns="http://www.w3.org/2000/svg">
<g clip-path="url(#clip0_2709_1284)">
<path d="M21.547 10.4389C21.8126 10.4384 22.0674 10.544 22.2554 10.7324C22.4434 10.9209 22.549 11.1767 22.549 11.4434V21.9908C22.5331 23.1145 21.6147 24.0133 20.496 23.9999H3.496C2.37731 24.0133 1.45891 23.1145 1.443 21.9908V11.4434C1.443 10.8886 1.89072 10.4389 2.443 10.4389C2.99528 10.4389 3.443 10.8886 3.443 11.4434V21.4886C3.443 21.766 3.66686 21.9908 3.943 21.9908H19.998C20.2741 21.9908 20.498 21.766 20.498 21.4886L20.547 11.4434C20.547 10.8886 20.9947 10.4389 21.547 10.4389ZM10.3135 11.714C10.5067 11.6654 10.7113 11.696 10.882 11.799C11.0531 11.9021 11.1764 12.0692 11.2248 12.2637C11.2732 12.4581 11.2427 12.6639 11.14 12.8357L10.398 14.0773C10.3519 14.1549 10.351 14.2514 10.3954 14.33C10.4399 14.4086 10.523 14.4571 10.613 14.457H13.381C13.471 14.4571 13.5541 14.4086 13.5986 14.33C13.643 14.2514 13.6421 14.1549 13.596 14.0773L12.854 12.8357C12.658 12.4799 12.7781 12.0321 13.1254 11.8232C13.4728 11.6144 13.9224 11.7196 14.142 12.0612L15.5 14.3354C15.5457 14.4108 15.6271 14.4569 15.715 14.457H15.998C16.1592 14.4561 16.3109 14.5334 16.4054 14.6644C16.5 14.7955 16.5259 14.9643 16.475 15.1179L14.808 20.1405C14.7399 20.3459 14.5485 20.4843 14.333 20.4841H9.333C9.11262 20.4837 8.91847 20.3384 8.855 20.1264L7.355 15.1039C7.3095 14.9519 7.33817 14.7873 7.43232 14.6599C7.52647 14.5325 7.67503 14.4572 7.833 14.457H8.283C8.37091 14.4571 8.45247 14.411 8.498 14.3354L9.852 12.0582C9.95422 11.8864 10.1203 11.7626 10.3135 11.714ZM23.954 5.0949L22.233 0.970361C22.0179 0.402149 21.4839 0.0194622 20.879 0H3.117C2.51212 0.0194622 1.97814 0.402149 1.763 0.970361L0.042 5.0949C0.0151334 5.15848 0.000867231 5.22673 0 5.2958V6.2079C0.0271189 7.49492 0.806201 8.6452 1.988 9.14309C3.05103 9.61364 4.27966 9.50644 5.246 8.85881C5.34572 8.795 5.47631 8.81009 5.559 8.89497C6.38304 9.73327 7.47906 10.2469 8.648 10.3425C8.781 10.3535 8.914 10.3586 9.048 10.3586C10.0581 10.3632 11.0418 10.0346 11.848 9.42335C11.9368 9.35604 12.0592 9.35604 12.148 9.42335C13.0685 10.1168 14.2119 10.4438 15.358 10.3415C16.5256 10.2537 17.621 9.74038 18.438 8.89799C18.5203 8.81192 18.6516 8.79596 18.752 8.85982C19.7158 9.50769 20.9422 9.61641 22.004 9.14811C23.18 8.63983 23.9572 7.49422 23.998 6.2089V5.2968C23.997 5.22722 23.982 5.15855 23.954 5.0949Z" fill="#D52B1E"/>
</g>
<defs>
<clipPath id="clip0_2709_1284">
<rect width="24" height="24" fill="white"/>
</clipPath>
</defs>
</svg>
