<svg width="24" height="24" viewBox="0 0 24 24" fill="none" xmlns="http://www.w3.org/2000/svg">
<g clip-path="url(#clip0_2709_1724)">
<path fill-rule="evenodd" clip-rule="evenodd" d="M21.44 15.5327C21.44 15.5327 24 19.1357 24 20.5109C24 21.8856 22.8538 23 21.44 23C20.0262 23 18.88 21.8856 18.88 20.5109C18.88 19.1357 21.44 15.5327 21.44 15.5327ZM10.8254 1.03643C11.6401 1.1935 12.2828 1.80313 12.4644 2.59115C12.646 3.37916 12.3323 4.19716 11.6645 4.67726L9.21008 6.38039C9.10381 6.43584 9.05293 6.55679 9.08876 6.66876C9.12459 6.78073 9.23706 6.85226 9.35693 6.83931L14.86 6.839L16.2512 10.9161H17.3234L15.928 6.839L20.9786 6.83931C21.0105 6.83931 21.0423 6.84001 21.0738 6.84138L20.1171 6.84545L19.3467 6.84586L17.927 10.918L13.1119 10.9187C12.8545 10.9187 12.6404 11.0991 12.596 11.3369L12.5875 11.4286C12.5875 11.7102 12.8223 11.9385 13.1119 11.9385H16.2586C16.5483 11.9385 16.7831 12.1668 16.7831 12.4484C16.7825 12.9844 16.4915 13.4804 16.0174 13.7538H13.1119C12.8223 13.7538 12.5875 13.9821 12.5875 14.2637C12.5875 14.5454 12.8223 14.7737 13.1119 14.7737H15.2097C15.4994 14.7737 15.7342 15.002 15.7342 15.2836V15.5079C15.7336 16.0439 15.4426 16.54 14.9685 16.8133H12.0631C11.7734 16.8133 11.5386 17.0416 11.5386 17.3233C11.5386 17.6049 11.7734 17.8332 12.0631 17.8332H13.9825C14.1576 17.835 14.3197 17.9234 14.4126 18.0677C14.5134 18.2082 14.5332 18.3891 14.465 18.5471C14.0515 19.4906 13.0969 20.1014 12.0421 20.0972H9.31497C8.29348 20.0977 7.27686 19.9604 6.29417 19.6893L0.756038 18.1799C0.293206 18.0491 -0.0183312 17.6284 0.00083775 17.1601V8.27729C-0.000996136 7.94545 0.16334 7.63349 0.441371 7.44102L9.25204 1.37298C9.70601 1.054 10.2756 0.932151 10.8254 1.03643ZM20.2261 7.37445L20.9602 10.9172L20.9702 10.918L20.9801 10.9187L18.999 10.918L20.2261 7.37445ZM21.0738 6.84138L21.129 6.84254C22.2176 6.91967 23.0764 7.80182 23.0764 8.87899C23.0764 9.61366 22.6769 10.2576 22.0777 10.6167L22.0081 10.6554L21.1294 6.8445C21.111 6.84323 21.0924 6.84219 21.0738 6.84138Z" fill="#D52B1E"/>
</g>
<defs>
<clipPath id="clip0_2709_1724">
<rect width="24" height="24" fill="white"/>
</clipPath>
</defs>
</svg>
