<svg width="24" height="24" viewBox="0 0 24 24" fill="none" xmlns="http://www.w3.org/2000/svg">
<path fill-rule="evenodd" clip-rule="evenodd" d="M5.16025 3H8.37576L6.85926 9.9294H0C0.050144 9.70548 0.132939 9.48614 0.249354 9.27841L3.08446 4.22014C3.50698 3.46628 4.30026 3 5.16025 3ZM15.4053 11.5285L11.9995 22L8.5937 11.5285H15.4053ZM23.8073 11.5285C23.6949 11.7551 23.5454 11.9665 23.3601 12.153L13.7176 21.8577L17.0771 11.5285H23.8073ZM6.92192 11.5285L10.2809 21.8562L0.639903 12.153C0.454585 11.9665 0.30508 11.7551 0.19269 11.5285H6.92192ZM24 9.9294H17.1397L15.6232 3H18.8397C19.6997 3 20.493 3.46628 20.9155 4.22013L23.7506 9.27841C23.8671 9.48614 23.9498 9.70548 24 9.9294ZM15.5128 9.9294H8.48619L10.0027 3H13.9963L15.5128 9.9294Z" fill="#B09979"/>
</svg>
