<svg width="24" height="24" viewBox="0 0 24 24" fill="none" xmlns="http://www.w3.org/2000/svg">
<path fill-rule="evenodd" clip-rule="evenodd" d="M11.6463 1.21813L10.923 2.6653C5.67994 3.14997 1.51031 7.0883 1.01092 10.6092C0.94837 11.0492 1.15759 11.4677 1.55815 11.6606C2.57616 12.1504 5.09363 12.9862 10.5613 13.1126L10.4231 18.9106C10.4231 19.1895 10.3123 19.4569 10.1151 19.6541C9.91797 19.8512 9.65055 19.962 9.37172 19.962C9.09289 19.962 8.82547 19.8512 8.62831 19.6541C8.43115 19.4569 8.32038 19.1895 8.32038 18.9106V18.5716C8.32038 17.9739 7.97028 17.4356 7.3768 17.3678C7.16645 17.3447 6.95497 17.3335 6.74336 17.3342C6.50524 17.3342 6.29392 17.3473 6.10993 17.3683C5.51592 17.4356 5.16635 17.9739 5.16635 18.5716V18.9112C5.16635 20.0265 5.60942 21.0962 6.39808 21.8848C7.18674 22.6735 8.25639 23.1165 9.37172 23.1165C10.4871 23.1165 11.5567 22.6735 12.3454 21.8848C13.134 21.0962 13.5771 20.0265 13.5771 18.9112L13.4388 13.1126C18.906 12.9862 21.423 12.1504 22.4415 11.6606C22.8421 11.4677 23.0513 11.0492 22.9892 10.6092C22.4899 7.0883 18.3186 3.14839 13.0751 2.66477L12.3518 1.21813C12.319 1.15259 12.2687 1.09747 12.2064 1.05894C12.1441 1.02041 12.0723 1 11.999 1C11.9258 1 11.854 1.02041 11.7917 1.05894C11.7294 1.09747 11.679 1.15259 11.6463 1.21813Z" fill="#D52B1E"/>
</svg>
