<svg width="24" height="24" viewBox="0 0 24 24" fill="none" xmlns="http://www.w3.org/2000/svg">
<path fill-rule="evenodd" clip-rule="evenodd" d="M1.82188 2H9.90331C10.6397 2 11.2366 2.59695 11.2366 3.33333V4.51051C11.2366 5.24689 10.6397 5.84384 9.90331 5.84384H1.82188C1.0855 5.84384 0.48855 5.24689 0.48855 4.51051V3.33333C0.48855 2.59695 1.0855 2 1.82188 2ZM12.7023 8.24625C12.7023 7.71552 12.2648 7.28529 11.7252 7.28529H2.9313C2.39166 7.28529 1.9542 7.71552 1.9542 8.24625V10.1682C1.9542 10.6989 2.39166 11.1292 2.9313 11.1292H10.025C10.1046 11.1304 10.1789 11.0902 10.2205 11.0234C10.8527 10.1562 11.6571 9.42394 12.585 8.87087C12.6582 8.82931 12.703 8.7522 12.7023 8.66907V8.24625ZM9.04794 12.5706C9.12704 12.5711 9.20051 12.6109 9.24336 12.6763C9.28176 12.7417 9.28176 12.8223 9.24336 12.8877C8.94404 13.711 8.79197 14.5791 8.79389 15.4535C8.77904 15.6871 8.77904 15.9213 8.79389 16.155C8.80103 16.2229 8.77577 16.2904 8.7255 16.3375C8.68156 16.3878 8.617 16.416 8.54962 16.4144H0.977099C0.437462 16.4144 0 15.9842 0 15.4535V13.5315C0 13.0008 0.437462 12.5706 0.977099 12.5706H9.04794ZM9.01863 17.8559C9.12094 17.8586 9.21064 17.9238 9.24336 18.0192C9.69102 19.274 10.462 20.3931 11.4809 21.2673C11.5673 21.324 11.6099 21.4268 11.5884 21.5267C11.5646 21.6142 11.4928 21.681 11.4027 21.6997H2.44275C1.90311 21.6997 1.46565 21.2695 1.46565 20.7387V18.8168C1.46565 18.2861 1.90311 17.8559 2.44275 17.8559H9.01863ZM17 8.5C13.134 8.5 10 11.634 10 15.5C10 19.366 13.134 22.5 17 22.5C20.866 22.5 24 19.366 24 15.5C24 11.634 20.866 8.5 17 8.5ZM15.7005 17.1339H16.4276L15.7821 15.7799C15.8909 15.7308 15.9908 15.6675 16.082 15.59C16.1748 15.5126 16.2492 15.4158 16.3052 15.2996C16.3628 15.1819 16.3916 15.0382 16.3916 14.8684C16.3916 14.6792 16.35 14.5124 16.2668 14.3679C16.1836 14.2219 16.054 14.108 15.8781 14.026C15.7021 13.9441 15.4757 13.9032 15.199 13.9032H13.7352V17.1339H14.4335V15.8894H15.1366L15.7005 17.1339ZM15.5181 15.246C15.4093 15.3398 15.2614 15.3867 15.0742 15.3867H14.4335V14.4014H15.1246C15.2862 14.4014 15.4197 14.4446 15.5253 14.531C15.6309 14.6174 15.6837 14.735 15.6837 14.884C15.6837 15.0315 15.6285 15.1521 15.5181 15.246ZM16.966 13.9032V17.1339H17.6989V14.674L18.5614 17.1339H19.1323L19.9998 14.6628V17.1339H20.7352V13.9032H19.6807L18.8481 16.2067L18.023 13.9032H16.966Z" fill="#D52B1E"/>
</svg>
