<svg width="24" height="24" viewBox="0 0 24 24" fill="none" xmlns="http://www.w3.org/2000/svg">
<path d="M17.2214 8.66667C20.9651 8.66667 24 11.6514 24 15.3333C24 19.0152 20.9651 22 17.2214 22C13.4776 22 10.4427 19.0152 10.4427 15.3333C10.4427 11.6514 13.4776 8.66667 17.2214 8.66667ZM9.01863 17.8559C9.12094 17.8586 9.21064 17.9238 9.24336 18.0192C9.69102 19.274 10.462 20.3931 11.4809 21.2673C11.5673 21.324 11.6099 21.4268 11.5884 21.5267C11.5646 21.6142 11.4928 21.681 11.4027 21.6997H2.44275C1.90311 21.6997 1.46565 21.2695 1.46565 20.7387V18.8168C1.46565 18.2861 1.90311 17.8559 2.44275 17.8559H9.01863ZM17.2213 11.0288C16.8109 11.0288 16.4781 11.3561 16.4781 11.7598L16.4778 11.9966C15.3365 12.2277 14.4018 12.979 14.4018 13.9932C14.4018 15.3232 15.1628 15.6974 17.0844 16.0518L17.2749 16.0877C18.3073 16.2873 18.5545 16.4228 18.5545 16.6734C18.5545 16.9128 17.9529 17.2826 17.2214 17.2826C16.7774 17.2826 16.3637 17.1945 15.9931 17.0481C15.7776 16.9629 15.6321 16.8825 15.5725 16.8412L15.4781 16.7856C15.1543 16.6256 14.7517 16.7185 14.5371 17.0188C14.301 17.349 14.3818 17.8049 14.7175 18.0371C14.8656 18.1395 15.1095 18.2744 15.4389 18.4046C15.7639 18.533 16.1111 18.6303 16.4775 18.6873L16.4782 18.9069C16.4782 19.3106 16.811 19.6379 17.2215 19.6379C17.6319 19.6379 17.9647 19.3106 17.9647 18.9069L17.9646 18.6702C19.1061 18.4391 20.0409 17.6878 20.0409 16.6734C20.0409 15.3435 19.2799 14.9692 17.3583 14.6149L17.1679 14.579C16.1355 14.3794 15.8883 14.2439 15.8883 13.9932C15.8883 13.7539 16.4898 13.3841 17.2214 13.3841C17.6653 13.3841 18.079 13.4721 18.4496 13.6186C18.6652 13.7037 18.8106 13.7842 18.8702 13.8254L18.9647 13.8811C19.2884 14.0411 19.6911 13.9481 19.9057 13.6479C20.1418 13.3177 20.061 12.8617 19.7252 12.6295C19.5772 12.5272 19.3333 12.3923 19.0038 12.2621C18.6786 12.1336 18.3312 12.0362 17.9645 11.9793L17.9646 11.7597C17.9646 11.356 17.6318 11.0288 17.2213 11.0288ZM9.04794 12.5706C9.12704 12.5711 9.20051 12.6109 9.24336 12.6763C9.28176 12.7417 9.28176 12.8223 9.24336 12.8877C8.94404 13.711 8.79197 14.5791 8.79389 15.4535C8.77904 15.6871 8.77904 15.9213 8.79389 16.155C8.80103 16.2229 8.77577 16.2904 8.7255 16.3375C8.68156 16.3878 8.617 16.416 8.54962 16.4144H0.977099C0.437462 16.4144 0 15.9842 0 15.4535V13.5315C0 13.0008 0.437462 12.5706 0.977099 12.5706H9.04794ZM11.7252 7.28529C12.2648 7.28529 12.7023 7.71552 12.7023 8.24625V8.66907C12.703 8.7522 12.6582 8.82931 12.585 8.87087C11.6571 9.42394 10.8527 10.1562 10.2205 11.0234C10.1789 11.0902 10.1046 11.1304 10.025 11.1292H2.9313C2.39166 11.1292 1.9542 10.6989 1.9542 10.1682V8.24625C1.9542 7.71552 2.39166 7.28529 2.9313 7.28529H11.7252ZM1.82188 2H9.90331C10.6397 2 11.2366 2.59695 11.2366 3.33333V4.51051C11.2366 5.24689 10.6397 5.84384 9.90331 5.84384H1.82188C1.0855 5.84384 0.48855 5.24689 0.48855 4.51051V3.33333C0.48855 2.59695 1.0855 2 1.82188 2Z" fill="#D52B1E"/>
</svg>
