<svg width="24" height="24" viewBox="0 0 24 24" fill="none" xmlns="http://www.w3.org/2000/svg">
<path d="M7.00002 9.5H18V14H7.00002V9.5Z" fill="#D52B1E"/>
<path d="M1.02896 9.08713C1.04783 8.30655 1.54411 7.6477 2.32452 7.62287C2.40282 7.62041 2.4851 7.61905 2.57145 7.61905C2.6578 7.61905 2.74008 7.62041 2.81839 7.62287C3.59879 7.6477 4.09507 8.30655 4.11394 9.08713C4.12944 9.72806 4.14288 10.6254 4.14288 11.8095C4.14288 12.9936 4.12944 13.891 4.11395 14.5319C4.09508 15.3125 3.5988 15.9713 2.81839 15.9962C2.74009 15.9986 2.6578 16 2.57145 16C2.4851 16 2.40282 15.9986 2.32452 15.9962C1.54411 15.9713 1.04783 15.3125 1.02896 14.5319C1.01347 13.891 1.00002 12.9936 1.00002 11.8095C1.00002 10.6254 1.01347 9.72806 1.02896 9.08713Z" fill="#D52B1E"/>
<path fill-rule="evenodd" clip-rule="evenodd" d="M2.3436 8.22257C2.41557 8.22031 2.4915 8.21905 2.57145 8.21905L2.3436 8.22257ZM2.30566 7.02317C2.39022 7.02051 2.47879 7.01905 2.57145 7.01905C2.66412 7.01905 2.75268 7.02051 2.83724 7.02317C4.02064 7.06082 4.68944 8.06621 4.71377 9.07263C4.72938 9.71869 4.74288 10.6209 4.74288 11.8095C4.74288 12.9982 4.72938 13.9004 4.71377 14.5464C4.68944 15.5528 4.02087 16.5582 2.83747 16.5959C2.75291 16.5985 2.66412 16.6 2.57145 16.6C2.47879 16.6 2.39022 16.5985 2.30566 16.5959C1.12226 16.5582 0.453461 15.5528 0.429135 14.5464C0.413522 13.9004 0.400024 12.9982 0.400024 11.8095C0.400024 10.6209 0.413522 9.71869 0.429135 9.07263C0.453461 8.06621 1.12226 7.06082 2.30566 7.02317ZM2.57145 8.21905C2.65141 8.21905 2.72733 8.22031 2.79931 8.22257L2.57145 8.21905ZM2.79931 8.22257C3.17663 8.23469 3.50071 8.547 3.51412 9.10163C3.52949 9.73743 3.54288 10.6299 3.54288 11.8095C3.54288 12.9891 3.52949 13.8816 3.51412 14.5174C3.50072 15.072 3.17686 15.3843 2.79953 15.3965M2.3436 8.22257C1.96627 8.23469 1.64219 8.547 1.62878 9.10163C1.61342 9.73743 1.60002 10.6299 1.60002 11.8095C1.60002 12.9891 1.61342 13.8816 1.62878 14.5174C1.64219 15.072 1.96604 15.3843 2.34337 15.3965M2.34337 15.3965C2.41535 15.3987 2.4915 15.4 2.57145 15.4C2.65141 15.4 2.72755 15.3987 2.79953 15.3965" fill="#D52B1E"/>
<path d="M22.9711 9.08713C22.9522 8.30655 22.4559 7.6477 21.6755 7.62287C21.5972 7.62041 21.515 7.61905 21.4286 7.61905C21.3422 7.61905 21.26 7.62041 21.1817 7.62287C20.4012 7.6477 19.905 8.30655 19.8861 9.08713C19.8706 9.72806 19.8572 10.6254 19.8572 11.8095C19.8572 12.9936 19.8706 13.891 19.8861 14.5319C19.905 15.3125 20.4012 15.9713 21.1817 15.9962C21.26 15.9986 21.3422 16 21.4286 16C21.5149 16 21.5972 15.9986 21.6755 15.9962C22.4559 15.9713 22.9522 15.3125 22.9711 14.5319C22.9866 13.891 23 12.9936 23 11.8095C23 10.6254 22.9866 9.72806 22.9711 9.08713Z" fill="#D52B1E"/>
<path fill-rule="evenodd" clip-rule="evenodd" d="M21.1628 7.02317C21.2474 7.02051 21.3359 7.01905 21.4286 7.01905C21.5213 7.01905 21.6098 7.02051 21.6944 7.02317C22.8778 7.06082 23.5466 8.06621 23.5709 9.0726C23.5865 9.71862 23.6 10.6209 23.6 11.8095C23.6 12.9982 23.5865 13.9004 23.5709 14.5464C23.5466 15.5528 22.878 16.5582 21.6946 16.5959C21.61 16.5985 21.5212 16.6 21.4286 16.6C21.3359 16.6 21.2474 16.5985 21.1628 16.5959C19.9794 16.5582 19.3106 15.5528 19.2863 14.5464C19.2707 13.9004 19.2572 12.9982 19.2572 11.8095C19.2572 10.6209 19.2707 9.71869 19.2863 9.07267C19.3106 8.06628 19.9794 7.06082 21.1628 7.02317ZM20.4859 9.10159C20.4994 8.54697 20.8232 8.2347 21.2005 8.22258L20.4859 9.10159ZM21.2005 8.22258C21.2725 8.22031 21.3486 8.21905 21.4286 8.21905C21.5086 8.21905 21.5844 8.22031 21.6564 8.22257M21.6564 8.22257C22.0338 8.23469 22.3578 8.54697 22.3713 9.10159L21.6564 8.22257ZM22.3713 9.10159C22.3866 9.73743 22.4 10.63 22.4 11.8095C22.4 12.9891 22.3866 13.8815 22.3713 14.5174M20.4859 9.10159C20.4706 9.73743 20.4572 10.63 20.4572 11.8095C20.4572 12.9891 20.4706 13.8815 20.4859 14.5174M21.2008 15.3965C21.2727 15.3987 21.3486 15.4 21.4286 15.4C21.5085 15.4 21.5845 15.3987 21.6564 15.3965M21.2008 15.3965C20.8234 15.3844 20.4994 15.072 20.4859 14.5174L21.2008 15.3965ZM22.3713 14.5174C22.3578 15.072 22.0338 15.3844 21.6564 15.3965L22.3713 14.5174Z" fill="#D52B1E"/>
<path d="M4.19627 6.42853C4.21294 5.73648 4.60439 5.11712 5.29206 5.03745C5.48991 5.01456 5.7174 5 5.97621 5C6.23502 5 6.46252 5.01456 6.66036 5.03745C7.34802 5.11712 7.73946 5.73648 7.75617 6.42853C7.78068 7.44682 7.80954 9.19938 7.80954 11.8095C7.80954 14.4197 7.78068 16.1722 7.75617 17.1905C7.73946 17.8826 7.34802 18.5019 6.66036 18.5816C6.46252 18.6045 6.23502 18.619 5.97621 18.619C5.7174 18.619 5.48991 18.6045 5.29206 18.5816C4.60439 18.5019 4.21295 17.8826 4.19627 17.1905C4.17174 16.1722 4.14288 14.4197 4.14288 11.8095C4.14288 9.19938 4.17173 7.44682 4.19627 6.42853Z" fill="#D52B1E"/>
<path d="M19.8038 6.42853C19.7871 5.73648 19.3957 5.11712 18.708 5.03745C18.5102 5.01456 18.2827 5 18.0238 5C17.765 5 17.5375 5.01456 17.3397 5.03745C16.652 5.11712 16.2606 5.73648 16.2439 6.42853C16.2194 7.44682 16.1905 9.19938 16.1905 11.8095C16.1905 14.4197 16.2194 16.1722 16.2439 17.1905C16.2606 17.8826 16.652 18.5019 17.3397 18.5816C17.5375 18.6045 17.765 18.619 18.0238 18.619C18.2827 18.619 18.5102 18.6045 18.708 18.5816C19.3957 18.5019 19.7871 17.8826 19.8038 17.1905C19.8283 16.1722 19.8572 14.4197 19.8572 11.8095C19.8572 9.19938 19.8283 7.44682 19.8038 6.42853Z" fill="#D52B1E"/>
</svg>
