<svg width="24" height="24" viewBox="0 0 24 24" fill="none" xmlns="http://www.w3.org/2000/svg">
<path d="M6.99996 9.5H18V14H6.99996V9.5Z" fill="#D52B1E"/>
<path d="M1.0289 9.08713C1.04777 8.30655 1.54404 7.6477 2.32446 7.62287C2.40276 7.62041 2.48504 7.61905 2.57139 7.61905C2.65774 7.61905 2.74002 7.62041 2.81833 7.62287C3.59873 7.6477 4.09501 8.30655 4.11388 9.08713C4.12937 9.72806 4.14282 10.6254 4.14282 11.8095C4.14282 12.9936 4.12937 13.891 4.11389 14.5319C4.09502 15.3125 3.59874 15.9713 2.81833 15.9962C2.74003 15.9986 2.65774 16 2.57139 16C2.48504 16 2.40276 15.9986 2.32446 15.9962C1.54404 15.9713 1.04777 15.3125 1.0289 14.5319C1.01341 13.891 0.999963 12.9936 0.999963 11.8095C0.999963 10.6254 1.01341 9.72806 1.0289 9.08713Z" fill="#D52B1E"/>
<path fill-rule="evenodd" clip-rule="evenodd" d="M2.34354 8.22257C2.41551 8.22031 2.49144 8.21905 2.57139 8.21905L2.34354 8.22257ZM2.3056 7.02317C2.39016 7.02051 2.47873 7.01905 2.57139 7.01905C2.66406 7.01905 2.75262 7.02051 2.83718 7.02317C4.02058 7.06082 4.68938 8.06621 4.7137 9.07263C4.72932 9.71869 4.74282 10.6209 4.74282 11.8095C4.74282 12.9982 4.72932 13.9004 4.71371 14.5464C4.68938 15.5528 4.02081 16.5582 2.83741 16.5959C2.75285 16.5985 2.66406 16.6 2.57139 16.6C2.47873 16.6 2.39016 16.5985 2.3056 16.5959C1.1222 16.5582 0.4534 15.5528 0.429074 14.5464C0.413461 13.9004 0.399963 12.9982 0.399963 11.8095C0.399963 10.6209 0.413461 9.71869 0.429074 9.07263C0.4534 8.06621 1.1222 7.06082 2.3056 7.02317ZM2.57139 8.21905C2.65134 8.21905 2.72726 8.22031 2.79925 8.22257L2.57139 8.21905ZM2.79925 8.22257C3.17657 8.23469 3.50065 8.547 3.51406 9.10163C3.52943 9.73743 3.54282 10.6299 3.54282 11.8095C3.54282 12.9891 3.52943 13.8816 3.51406 14.5174C3.50065 15.072 3.1768 15.3843 2.79947 15.3965M2.34354 8.22257C1.96621 8.23469 1.64213 8.547 1.62872 9.10163C1.61336 9.73743 1.59996 10.6299 1.59996 11.8095C1.59996 12.9891 1.61336 13.8816 1.62872 14.5174C1.64213 15.072 1.96598 15.3843 2.34331 15.3965M2.34331 15.3965C2.41529 15.3987 2.49144 15.4 2.57139 15.4C2.65135 15.4 2.72749 15.3987 2.79947 15.3965" fill="#D52B1E"/>
<path d="M22.9711 9.08713C22.9521 8.30655 22.4559 7.6477 21.6755 7.62287C21.5971 7.62041 21.5149 7.61905 21.4285 7.61905C21.3422 7.61905 21.2599 7.62041 21.1816 7.62287C20.4012 7.6477 19.9049 8.30655 19.886 9.08713C19.8706 9.72806 19.8571 10.6254 19.8571 11.8095C19.8571 12.9936 19.8706 13.891 19.886 14.5319C19.9049 15.3125 20.4012 15.9713 21.1816 15.9962C21.2599 15.9986 21.3422 16 21.4285 16C21.5149 16 21.5971 15.9986 21.6755 15.9962C22.4559 15.9713 22.9521 15.3125 22.9711 14.5319C22.9865 13.891 23 12.9936 23 11.8095C23 10.6254 22.9865 9.72806 22.9711 9.08713Z" fill="#D52B1E"/>
<path fill-rule="evenodd" clip-rule="evenodd" d="M21.1628 7.02317C21.2473 7.02051 21.3358 7.01905 21.4285 7.01905C21.5212 7.01905 21.6098 7.02051 21.6943 7.02317C22.8777 7.06082 23.5465 8.06621 23.5709 9.0726C23.5864 9.71862 23.6 10.6209 23.6 11.8095C23.6 12.9982 23.5865 13.9004 23.5709 14.5464C23.5465 15.5528 22.878 16.5582 21.6945 16.5959C21.61 16.5985 21.5212 16.6 21.4285 16.6C21.3358 16.6 21.2473 16.5985 21.1628 16.5959C19.9793 16.5582 19.3106 15.5528 19.2862 14.5464C19.2706 13.9004 19.2571 12.9982 19.2571 11.8095C19.2571 10.6209 19.2706 9.71869 19.2862 9.07267C19.3106 8.06628 19.9793 7.06082 21.1628 7.02317ZM20.4858 9.10159C20.4993 8.54697 20.8232 8.2347 21.2005 8.22258L20.4858 9.10159ZM21.2005 8.22258C21.2725 8.22031 21.3486 8.21905 21.4285 8.21905C21.5085 8.21905 21.5844 8.22031 21.6564 8.22257M21.6564 8.22257C22.0337 8.23469 22.3578 8.54697 22.3712 9.10159L21.6564 8.22257ZM22.3712 9.10159C22.3866 9.73743 22.4 10.63 22.4 11.8095C22.4 12.9891 22.3866 13.8815 22.3712 14.5174M20.4858 9.10159C20.4705 9.73743 20.4571 10.63 20.4571 11.8095C20.4571 12.9891 20.4705 13.8815 20.4858 14.5174M21.2007 15.3965C21.2727 15.3987 21.3486 15.4 21.4285 15.4C21.5085 15.4 21.5844 15.3987 21.6564 15.3965M21.2007 15.3965C20.8234 15.3844 20.4993 15.072 20.4858 14.5174L21.2007 15.3965ZM22.3712 14.5174C22.3578 15.072 22.0337 15.3844 21.6564 15.3965L22.3712 14.5174Z" fill="#D52B1E"/>
<path d="M4.19621 6.42853C4.21288 5.73648 4.60433 5.11712 5.292 5.03745C5.48984 5.01456 5.71734 5 5.97615 5C6.23496 5 6.46245 5.01456 6.6603 5.03745C7.34795 5.11712 7.7394 5.73648 7.75611 6.42853C7.78062 7.44682 7.80948 9.19938 7.80948 11.8095C7.80948 14.4197 7.78062 16.1722 7.75611 17.1905C7.7394 17.8826 7.34795 18.5019 6.6603 18.5816C6.46245 18.6045 6.23496 18.619 5.97615 18.619C5.71734 18.619 5.48984 18.6045 5.292 18.5816C4.60433 18.5019 4.21289 17.8826 4.19621 17.1905C4.17168 16.1722 4.14282 14.4197 4.14282 11.8095C4.14282 9.19938 4.17167 7.44682 4.19621 6.42853Z" fill="#D52B1E"/>
<path d="M19.8037 6.42853C19.787 5.73648 19.3956 5.11712 18.7079 5.03745C18.5101 5.01456 18.2826 5 18.0238 5C17.765 5 17.5375 5.01456 17.3396 5.03745C16.652 5.11712 16.2605 5.73648 16.2438 6.42853C16.2193 7.44682 16.1905 9.19938 16.1905 11.8095C16.1905 14.4197 16.2193 16.1722 16.2438 17.1905C16.2605 17.8826 16.652 18.5019 17.3396 18.5816C17.5375 18.6045 17.765 18.619 18.0238 18.619C18.2826 18.619 18.5101 18.6045 18.7079 18.5816C19.3956 18.5019 19.787 17.8826 19.8037 17.1905C19.8283 16.1722 19.8571 14.4197 19.8571 11.8095C19.8571 9.19938 19.8283 7.44682 19.8037 6.42853Z" fill="#D52B1E"/>
</svg>
