<svg width="24" height="24" viewBox="0 0 24 24" fill="none" xmlns="http://www.w3.org/2000/svg">
<g clip-path="url(#clip0_1_1093)">
<path d="M20.5613 17.8566C20.1196 17.5618 19.5313 17.6863 19.2367 18.1369C17.3554 21.1171 13.9052 22.6035 10.5371 21.8847C7.16896 21.166 4.56777 18.3884 3.97817 14.8809C3.38856 11.3734 4.93045 7.84935 7.86604 5.99493C8.00697 5.90301 8.18417 5.89444 8.33275 5.97238C8.48133 6.05031 8.57946 6.2033 8.59121 6.37531L8.64923 7.22615C8.67192 7.50591 8.8435 7.74919 9.094 7.85677C9.34531 7.96858 9.63658 7.91767 9.8385 7.72664L13.7061 4.26323C13.8725 4.10896 13.961 3.88387 13.9459 3.6531C13.9308 3.42234 13.8138 3.21167 13.6287 3.08207L9.33572 0.109142C9.10051 -0.0363807 8.80709 -0.0363807 8.57188 0.109142C8.32821 0.242562 8.17569 0.504442 8.17545 0.789812L8.36883 3.15214C8.38319 3.36014 8.27147 3.55557 8.08843 3.64262C4.09345 5.48897 1.66532 9.75109 2.03746 14.2639C2.40961 18.7768 5.50045 22.5511 9.73994 23.6697C13.9794 24.7883 18.4382 23.0059 20.8514 19.228C21.1324 18.7655 21.0033 18.1552 20.5613 17.8566Z" fill="#D52B1E"/>
<path d="M22.0515 13.0919C21.5163 13.0572 21.0515 13.4615 21.0043 14.0028C20.9766 14.4614 20.9105 14.9169 20.8068 15.3642C20.6886 15.8937 21.0085 16.4221 21.5279 16.5553C21.6034 16.5651 21.6797 16.5651 21.7551 16.5553C22.2201 16.5691 22.6316 16.2522 22.743 15.7946C22.8699 15.2413 22.9557 14.6792 22.9999 14.1129C23.0111 13.5676 22.5894 13.1136 22.0515 13.0919Z" fill="#D52B1E"/>
<path d="M21.3401 10.7897C20.9389 10.786 20.5797 10.5368 20.4313 10.159C20.2613 9.7274 20.0598 9.30917 19.8286 8.9078C19.5645 8.6058 19.5052 8.17264 19.6781 7.80917C19.8511 7.44569 20.2225 7.22299 20.6202 7.24433C21.0179 7.26566 21.3641 7.52687 21.4982 7.90682C21.7856 8.39426 22.0366 8.90285 22.249 9.42831C22.4449 9.93962 22.1982 10.5154 21.6958 10.7196C21.5817 10.7621 21.4616 10.7857 21.3401 10.7897Z" fill="#D52B1E"/>
<path d="M15.9857 5.4544C16.3998 5.64409 16.7994 5.86493 17.181 6.11506C17.34 6.21912 17.5252 6.27472 17.7145 6.27521C18.1401 6.26156 18.5092 5.9731 18.6303 5.55946C18.7515 5.14581 18.5974 4.70007 18.248 4.45342C17.7786 4.14517 17.2865 3.8741 16.776 3.64262C16.2848 3.43029 15.7159 3.65197 15.4917 4.14311C15.2757 4.64355 15.4955 5.22707 15.9857 5.4544Z" fill="#D52B1E"/>
<path d="M17.2497 12.37C17.4663 13.3157 17.327 14.3473 16.8063 15.1539C16.1332 16.1966 15.0711 17.042 14.0309 17.8699C13.6584 18.1665 13.2887 18.4608 12.9407 18.7611C12.5553 19.0936 11.9748 19.0936 11.5894 18.7611C11.2414 18.4608 10.8717 18.1665 10.4991 17.8699C9.45906 17.042 8.39693 16.1965 7.72386 15.1539C7.22589 14.3329 7.06389 13.3157 7.28048 12.37C7.74322 10.2157 10.3057 9.97887 11.9019 11.4226C11.9915 11.5031 12.0741 11.5924 12.159 11.6841C12.1938 11.7217 12.2289 11.7597 12.2651 11.7976C12.3012 11.7597 12.3364 11.7217 12.3712 11.6841C12.456 11.5924 12.5386 11.5031 12.6283 11.4226C14.2245 9.97887 16.7869 10.2157 17.2497 12.37Z" fill="#D52B1E"/>
</g>
<defs>
<clipPath id="clip0_1_1093">
<rect width="24" height="24" fill="white"/>
</clipPath>
</defs>
</svg>
