<svg width="24" height="24" viewBox="0 0 24 24" fill="none" xmlns="http://www.w3.org/2000/svg">
<path d="M10.1283 8.48408L6.47871 6.88126V6.89116C6.13452 6.73573 5.91113 6.37748 5.91113 5.98091C5.91113 5.58435 6.13452 5.22609 6.47871 5.07067L8.70951 4.08127C8.93492 3.97291 9.19348 3.97291 9.41888 4.08127L14.3658 6.24805C14.4519 6.28691 14.5077 6.37647 14.5077 6.47561C14.5077 6.57475 14.4519 6.66432 14.3658 6.70317L10.4923 8.48408C10.3764 8.53869 10.2441 8.53869 10.1283 8.48408Z" fill="#D52B1E"/>
<path d="M21.5434 5.27844C22.1189 5.52445 22.5765 6.00596 22.8128 6.61412H22.8221C23.0597 7.22148 23.0593 7.90407 22.8211 8.51113C22.5829 9.11819 22.1265 9.59975 21.5527 9.84944L17.5018 11.4523C17.3908 11.4917 17.2998 11.5775 17.2498 11.6897L13.7496 19.1102C13.6591 19.3031 13.5116 19.4594 13.3296 19.5554L10.8001 20.8911C10.671 20.9643 10.5265 21.0018 10.3801 21C10.1487 20.9993 9.92588 20.9076 9.7547 20.7427C9.47024 20.4719 9.37037 20.0445 9.50269 19.6642L11.3695 14.4996C11.3985 14.4064 11.377 14.3038 11.3135 14.2325C11.2452 14.1665 11.1475 14.1473 11.0614 14.183L5.77846 16.4586C5.42242 16.5944 5.02428 16.4889 4.7704 16.1915L1.2702 12.4812C1.05168 12.2473 0.957209 11.9136 1.01818 11.5908C1.07994 11.2717 1.28589 11.0053 1.56888 10.8784L3.99569 9.79008C4.24437 9.66809 4.53106 9.66809 4.77974 9.79008L7.0012 10.9774C7.12494 11.0412 7.26949 11.0412 7.39323 10.9774L19.7606 5.27844C20.3302 5.02165 20.9738 5.02165 21.5434 5.27844Z" fill="#D52B1E"/>
</svg>
