<svg width="24" height="24" viewBox="0 0 24 24" fill="none" xmlns="http://www.w3.org/2000/svg">
<g clip-path="url(#clip0_1_1242)">
<path d="M16.2142 10.0667C20.2528 10.0667 23.5324 13.1826 23.5324 17.0333C23.5324 20.8841 20.2528 24 16.2142 24C12.1757 24 8.89607 20.8841 8.89607 17.0333C8.89607 13.1826 12.1757 10.0667 16.2142 10.0667ZM16.2142 12.6942C15.7859 12.6942 15.4387 13.0241 15.4387 13.4311L15.4386 13.6697C14.2475 13.9026 13.272 14.66 13.272 15.6825C13.272 17.0231 14.0661 17.4004 16.0713 17.7576L16.2701 17.7938C17.3474 17.995 17.6053 18.1316 17.6053 18.3842C17.6053 18.6255 16.9776 18.9983 16.2142 18.9983C15.751 18.9983 15.3193 18.9095 14.9326 18.7619C14.7076 18.6761 14.5559 18.5949 14.4937 18.5534L14.3951 18.4973C14.0573 18.336 13.6371 18.4297 13.4131 18.7323C13.1668 19.0652 13.2511 19.5249 13.6015 19.7589C13.756 19.8621 14.0104 19.9981 14.3543 20.1294C14.6935 20.2589 15.056 20.357 15.4386 20.4144L15.4387 20.6357C15.4388 21.0427 15.786 21.3725 16.2143 21.3725C16.6427 21.3725 16.9899 21.0426 16.9899 20.6356L16.9901 20.397C18.1811 20.164 19.1565 19.4067 19.1565 18.3842C19.1565 17.0436 18.3624 16.6663 16.3572 16.3091L16.1584 16.2729C15.0811 16.0717 14.8231 15.9351 14.8231 15.6825C14.8231 15.4412 15.4509 15.0684 16.2142 15.0684C16.6775 15.0684 17.1092 15.1572 17.4959 15.3048C17.7209 15.3907 17.8726 15.4718 17.9348 15.5133L18.0334 15.5694C18.3712 15.7307 18.7914 15.637 19.0154 15.3344C19.2617 15.0015 19.1774 14.5419 18.827 14.3078C18.6725 14.2046 18.418 14.0686 18.0742 13.9374C17.7353 13.808 17.3732 13.7099 16.991 13.6525L16.9898 13.431C16.9898 13.024 16.6425 12.6942 16.2142 12.6942ZM16.5054 0.403191C18.7343 0.00642686 20.1602 -0.0303543 20.9872 0.0152869C21.6078 0.0495273 22.1279 0.393696 22.3763 0.935104C22.7068 1.65527 23.1619 2.93588 23.5381 5.05382C23.7747 6.38565 23.9129 7.41802 23.9928 8.19767C24.097 9.21701 23.1361 9.78184 22.2142 9.25111C21.6213 8.90968 20.8609 8.45359 19.8969 7.84658C19.481 8.27406 19.0381 8.74719 18.5773 9.24454C18.4891 9.33965 18.3438 9.3637 18.2243 9.3073C17.3826 8.90984 16.4339 8.68633 15.4302 8.68633C13.1214 8.68633 11.1034 9.86892 10.0106 11.6313C9.91755 11.7813 9.70424 11.8224 9.56321 11.7111C8.86806 11.1631 8.18109 10.6467 7.61658 10.2722C6.30835 11.544 4.06663 14.4018 3.0569 15.7123C2.72111 16.1481 2.20082 16.4294 1.68078 16.2114C1.47777 16.1263 1.24101 16.003 0.973045 15.8252C0.604714 15.5808 0.358537 15.3534 0.194508 15.1638C-0.0774231 14.8493 -0.0370174 14.4285 0.152966 14.0638C0.823148 12.777 2.71653 9.46077 6.01652 6.04319C6.54452 5.49638 7.41355 5.41175 8.05275 5.83814C10.2353 7.29391 12.5774 9.05197 12.5774 9.05197C13.5665 7.7589 14.4927 6.2522 15.2287 4.76673C14.1842 4.04615 13.3989 3.47696 12.8128 3.03479C11.9666 2.39648 12.1926 1.34196 13.2381 1.08311C14.0374 0.885201 15.1066 0.652185 16.5054 0.403191Z" fill="#D52B1E"/>
</g>
<defs>
<clipPath id="clip0_1_1242">
<rect width="24" height="24" fill="white"/>
</clipPath>
</defs>
</svg>
