<svg width="24" height="24" viewBox="0 0 24 24" fill="none" xmlns="http://www.w3.org/2000/svg">
<g clip-path="url(#clip0_455_217)">
<path fill-rule="evenodd" clip-rule="evenodd" d="M4.00001 0V5.90905C4.00001 6.51153 4.48842 6.99996 5.09091 6.99996H14.9091C15.5116 6.99996 16 6.51153 16 5.90905V0H18.6667L24 5.33336V21.3333C24 22.8066 22.8067 24 21.3333 24H2.66666C1.19333 24 0 22.8066 0 21.3333V2.66668C0 1.19335 1.19333 0 2.66666 0H4.00001ZM19.9091 12H4.09091C3.48842 12 3 12.4884 3 13.0909V19.9091C3 20.5116 3.48842 21 4.09091 21H19.9091C20.5116 21 21 20.5116 21 19.9091V13.0909C21 12.4884 20.5116 12 19.9091 12Z" fill="#D52B1E"/>
</g>
<defs>
<clipPath id="clip0_455_217">
<rect width="24" height="24" fill="white"/>
</clipPath>
</defs>
</svg>
