<svg width="24" height="24" viewBox="0 0 24 24" fill="none" xmlns="http://www.w3.org/2000/svg">
<g clip-path="url(#clip0_455_218)">
<path fill-rule="evenodd" clip-rule="evenodd" d="M18.5584 0L24 5.44163V20.7375C24 22.5398 22.5399 24 20.7376 24H3.26242C1.4601 24 0 22.5398 0 20.7375V3.26247C0 1.46016 1.4601 0 3.26242 0H18.5584ZM4.08437 1.53169L3.26242 1.53196C2.30615 1.53196 1.53192 2.30622 1.53192 3.26247V20.7375C1.53192 21.6938 2.30615 22.468 3.26242 22.468H20.7376C21.6938 22.468 22.4681 21.6938 22.4681 20.7375V6.07764L17.9224 1.53196L15.8291 1.53169L15.8298 7.65954H4.08511L4.08437 1.53169ZM18.1277 11.234C19.6788 11.234 20.9362 12.4914 20.9362 14.0425V18.1277C20.9362 19.6788 19.6788 20.9362 18.1277 20.9362H5.87234C4.32124 20.9362 3.06383 19.6788 3.06383 18.1277V14.0425C3.06383 12.4914 4.32124 11.234 5.87234 11.234H18.1277ZM18.1277 12.766H5.87234C5.1673 12.766 4.59575 13.3375 4.59575 14.0425V18.1277C4.59575 18.8328 5.1673 19.4043 5.87234 19.4043H18.1277C18.8327 19.4043 19.4043 18.8328 19.4043 18.1277V14.0425C19.4043 13.3375 18.8327 12.766 18.1277 12.766ZM14.2979 1.53196H5.61702V6.12771H14.2979V1.53196Z" fill="#D52B1E"/>
</g>
<defs>
<clipPath id="clip0_455_218">
<rect width="24" height="24" fill="white"/>
</clipPath>
</defs>
</svg>
