<svg width="24" height="24" viewBox="0 0 24 24" fill="none" xmlns="http://www.w3.org/2000/svg">
<g clip-path="url(#clip0_203_2049)">
<path d="M1 16.5C1.26522 16.5 1.51949 16.6054 1.70703 16.793C1.89457 16.9805 2 17.2348 2 17.5V21.75C2 21.8163 2.02636 21.8799 2.07324 21.9268C2.12013 21.9736 2.1837 22 2.25 22H6.5C6.76522 22 7.0195 22.1054 7.20703 22.293C7.39457 22.4805 7.5 22.7348 7.5 23C7.5 23.2652 7.39457 23.5195 7.20703 23.707C7.0195 23.8946 6.76522 24 6.5 24H2C1.46957 24 0.96101 23.7891 0.585938 23.4141C0.210865 23.039 0 22.5304 0 22V17.5C0 17.2348 0.105433 16.9805 0.292969 16.793C0.480505 16.6054 0.734784 16.5 1 16.5ZM23 16.5C23.2652 16.5 23.5195 16.6054 23.707 16.793C23.8946 16.9805 24 17.2348 24 17.5V22C24 22.5304 23.7891 23.039 23.4141 23.4141C23.039 23.7891 22.5304 24 22 24H17.5C17.2348 24 16.9805 23.8946 16.793 23.707C16.6054 23.5195 16.5 23.2652 16.5 23C16.5 22.7348 16.6054 22.4805 16.793 22.293C16.9805 22.1054 17.2348 22 17.5 22H21.75C21.8163 22 21.8799 21.9736 21.9268 21.9268C21.9736 21.8799 22 21.8163 22 21.75V17.5C22 17.2348 22.1054 16.9805 22.293 16.793C22.4805 16.6054 22.7348 16.5 23 16.5ZM8.5625 14.4375C9.11478 14.4375 9.5625 14.8852 9.5625 15.4375V18.1875C9.5625 18.7398 9.11478 19.1875 8.5625 19.1875H5.8125C5.26022 19.1875 4.8125 18.7398 4.8125 18.1875V15.4375C4.8125 14.8852 5.26022 14.4375 5.8125 14.4375H8.5625ZM11.3125 15.8125C11.8648 15.8125 12.3125 16.2602 12.3125 16.8125V18.1875C12.3125 18.7398 11.8648 19.1875 11.3125 19.1875C10.7602 19.1875 10.3125 18.7398 10.3125 18.1875V16.8125C10.3125 16.2602 10.7602 15.8125 11.3125 15.8125ZM18.1875 13.0625C18.7398 13.0625 19.1875 13.5102 19.1875 14.0625V18.1875C19.1875 18.7398 18.7398 19.1875 18.1875 19.1875H14.0625C13.5102 19.1875 13.0625 18.7398 13.0625 18.1875V14.0625C13.0625 13.5102 13.5102 13.0625 14.0625 13.0625C14.6148 13.0625 15.0625 13.5102 15.0625 14.0625V17.1875H17.1875V15.0625H16.8125C16.2602 15.0625 15.8125 14.6148 15.8125 14.0625C15.8125 13.5102 16.2602 13.0625 16.8125 13.0625H18.1875ZM6.8125 17.1875H7.5625V16.4375H6.8125V17.1875ZM11.3125 11.6875C11.8648 11.6875 12.3125 12.1352 12.3125 12.6875V14.0625C12.3125 14.6148 11.8648 15.0625 11.3125 15.0625C10.7602 15.0625 10.3125 14.6148 10.3125 14.0625V13.6875H5.8125C5.26022 13.6875 4.8125 13.2398 4.8125 12.6875C4.8125 12.1352 5.26022 11.6875 5.8125 11.6875H11.3125ZM18.1875 10.3125C18.7398 10.3125 19.1875 10.7602 19.1875 11.3125C19.1875 11.8648 18.7398 12.3125 18.1875 12.3125H15.4375C14.8852 12.3125 14.4375 11.8648 14.4375 11.3125C14.4375 10.7602 14.8852 10.3125 15.4375 10.3125H18.1875ZM11.3125 4.8125C11.8648 4.8125 12.3125 5.26022 12.3125 5.8125V8.9375H12.6875C13.2398 8.9375 13.6875 9.38522 13.6875 9.9375C13.6875 10.4898 13.2398 10.9375 12.6875 10.9375H11.3125C10.7602 10.9375 10.3125 10.4898 10.3125 9.9375V5.8125C10.3125 5.26022 10.7602 4.8125 11.3125 4.8125ZM8.5625 4.8125C9.11478 4.8125 9.5625 5.26022 9.5625 5.8125V8.5625C9.5625 9.11478 9.11478 9.5625 8.5625 9.5625H5.8125C5.26022 9.5625 4.8125 9.11478 4.8125 8.5625V5.8125C4.8125 5.26022 5.26022 4.8125 5.8125 4.8125H8.5625ZM18.1875 4.8125C18.7398 4.8125 19.1875 5.26022 19.1875 5.8125V8.5625C19.1875 9.11478 18.7398 9.5625 18.1875 9.5625H15.4375C14.8852 9.5625 14.4375 9.11478 14.4375 8.5625V5.8125C14.4375 5.26022 14.8852 4.8125 15.4375 4.8125H18.1875ZM6.8125 7.5625H7.5625V6.8125H6.8125V7.5625ZM16.4375 7.5625H17.1875V6.8125H16.4375V7.5625ZM6.5 0C6.76522 0 7.0195 0.105432 7.20703 0.292969C7.39457 0.480505 7.5 0.734784 7.5 1C7.5 1.26522 7.39457 1.51949 7.20703 1.70703C7.0195 1.89457 6.76522 2 6.5 2H2.25C2.1837 2 2.12013 2.02636 2.07324 2.07324C2.02636 2.12013 2 2.1837 2 2.25V6.5C2 6.76522 1.89457 7.0195 1.70703 7.20703C1.51949 7.39457 1.26522 7.5 1 7.5C0.734784 7.5 0.480505 7.39457 0.292969 7.20703C0.105432 7.0195 0 6.76522 0 6.5V2C0 1.46957 0.210865 0.96101 0.585938 0.585938C0.96101 0.210865 1.46957 0 2 0H6.5ZM22 0C22.5304 0 23.039 0.210865 23.4141 0.585938C23.7891 0.96101 24 1.46957 24 2V6.5C24 6.76522 23.8946 7.0195 23.707 7.20703C23.5195 7.39457 23.2652 7.5 23 7.5C22.7348 7.5 22.4805 7.39457 22.293 7.20703C22.1054 7.0195 22 6.76522 22 6.5V2.25C22 2.1837 21.9736 2.12013 21.9268 2.07324C21.8799 2.02636 21.8163 2 21.75 2H17.5C17.2348 2 16.9805 1.89457 16.793 1.70703C16.6054 1.51949 16.5 1.26522 16.5 1C16.5 0.734784 16.6054 0.480505 16.793 0.292969C16.9805 0.105433 17.2348 0 17.5 0H22Z" fill="#404040"/>
</g>
<defs>
<clipPath id="clip0_203_2049">
<rect width="24" height="24" fill="white"/>
</clipPath>
</defs>
</svg>
