<svg width="24" height="24" viewBox="0 0 24 24" fill="none" xmlns="http://www.w3.org/2000/svg">
<g clip-path="url(#clip0_203_2050)">
<path d="M1 16.5C1.26522 16.5 1.51949 16.6054 1.70703 16.793C1.89457 16.9805 2 17.2348 2 17.5V21.75C2 21.8163 2.02636 21.8799 2.07324 21.9268C2.12013 21.9736 2.1837 22 2.25 22H6.5C6.76522 22 7.0195 22.1054 7.20703 22.293C7.39457 22.4805 7.5 22.7348 7.5 23C7.5 23.2652 7.39457 23.5195 7.20703 23.707C7.0195 23.8946 6.76522 24 6.5 24H2C1.46957 24 0.96101 23.7891 0.585938 23.4141C0.210865 23.039 0 22.5304 0 22V17.5C0 17.2348 0.105433 16.9805 0.292969 16.793C0.480505 16.6054 0.734784 16.5 1 16.5ZM23 16.5C23.2652 16.5 23.5195 16.6054 23.707 16.793C23.8946 16.9805 24 17.2348 24 17.5V22C24 22.5304 23.7891 23.039 23.4141 23.4141C23.039 23.7891 22.5304 24 22 24H17.5C17.2348 24 16.9805 23.8946 16.793 23.707C16.6054 23.5195 16.5 23.2652 16.5 23C16.5 22.7348 16.6054 22.4805 16.793 22.293C16.9805 22.1054 17.2348 22 17.5 22H21.75C21.8163 22 21.8799 21.9736 21.9268 21.9268C21.9736 21.8799 22 21.8163 22 21.75V17.5C22 17.2348 22.1054 16.9805 22.293 16.793C22.4805 16.6054 22.7348 16.5 23 16.5ZM16.4463 4.99609C16.9484 4.99614 17.4443 5.16802 17.8174 5.54102C18.1904 5.91418 18.3623 6.41095 18.3623 6.91309V16.9961C18.3622 17.4982 18.1904 17.9951 17.8174 18.3682C17.4443 18.7409 16.9482 18.913 16.4463 18.9131H7.55469C7.05263 18.9131 6.55576 18.7411 6.18262 18.3682C5.80955 17.9951 5.63782 17.4982 5.6377 16.9961V6.91309C5.6377 6.41095 5.80959 5.91418 6.18262 5.54102C6.55581 5.16782 7.05244 4.99609 7.55469 4.99609H16.4463ZM7.6377 16.9131H16.3623V6.99609H7.6377V16.9131ZM14.7959 13.5215C15.3482 13.5215 15.7959 13.9692 15.7959 14.5215C15.7956 15.0735 15.348 15.5215 14.7959 15.5215H9.2959C8.74378 15.5215 8.29616 15.0735 8.2959 14.5215C8.2959 13.9692 8.74361 13.5215 9.2959 13.5215H14.7959ZM14.7959 10.7715C15.3482 10.7715 15.7959 11.2192 15.7959 11.7715C15.7956 12.3235 15.348 12.7715 14.7959 12.7715H9.2959C8.74378 12.7715 8.29616 12.3235 8.2959 11.7715C8.2959 11.2192 8.74361 10.7715 9.2959 10.7715H14.7959ZM11.6797 8.02148C12.2318 8.02171 12.6797 8.46934 12.6797 9.02148C12.6794 9.57341 12.2316 10.0213 11.6797 10.0215H9.2959C8.74378 10.0215 8.29616 9.57354 8.2959 9.02148C8.2959 8.4692 8.74361 8.02148 9.2959 8.02148H11.6797ZM6.5 0C6.76522 0 7.0195 0.105432 7.20703 0.292969C7.39457 0.480505 7.5 0.734784 7.5 1C7.5 1.26522 7.39457 1.51949 7.20703 1.70703C7.0195 1.89457 6.76522 2 6.5 2H2.25C2.1837 2 2.12013 2.02636 2.07324 2.07324C2.02636 2.12013 2 2.1837 2 2.25V6.5C2 6.76522 1.89457 7.0195 1.70703 7.20703C1.51949 7.39457 1.26522 7.5 1 7.5C0.734784 7.5 0.480505 7.39457 0.292969 7.20703C0.105432 7.0195 0 6.76522 0 6.5V2C0 1.46957 0.210865 0.96101 0.585938 0.585938C0.96101 0.210865 1.46957 0 2 0H6.5ZM22 0C22.5304 0 23.039 0.210865 23.4141 0.585938C23.7891 0.96101 24 1.46957 24 2V6.5C24 6.76522 23.8946 7.0195 23.707 7.20703C23.5195 7.39457 23.2652 7.5 23 7.5C22.7348 7.5 22.4805 7.39457 22.293 7.20703C22.1054 7.0195 22 6.76522 22 6.5V2.25C22 2.1837 21.9736 2.12013 21.9268 2.07324C21.8799 2.02636 21.8163 2 21.75 2H17.5C17.2348 2 16.9805 1.89457 16.793 1.70703C16.6054 1.51949 16.5 1.26522 16.5 1C16.5 0.734784 16.6054 0.480505 16.793 0.292969C16.9805 0.105433 17.2348 0 17.5 0H22Z" fill="#404040"/>
</g>
<defs>
<clipPath id="clip0_203_2050">
<rect width="24" height="24" fill="white"/>
</clipPath>
</defs>
</svg>
