<svg width="24" height="24" viewBox="0 0 24 24" fill="none" xmlns="http://www.w3.org/2000/svg">
<g clip-path="url(#clip0_534_954)">
<path d="M5.40755 1.21321C7.41985 0.134672 9.73476 -0.23983 11.9837 0.149729C14.2326 0.53936 16.287 1.67082 17.8206 3.3636C19.3543 5.05642 20.2794 7.21399 20.4486 9.49348C20.6177 11.7731 20.0213 14.0443 18.7542 15.9456L23.389 20.5374C23.5823 20.724 23.7361 20.9482 23.8411 21.1956C23.9461 21.443 24.0003 21.7091 24.0003 21.9779C24.0003 22.2467 23.9461 22.5127 23.8411 22.7601C23.7361 23.0076 23.5823 23.2317 23.389 23.4183C23.0148 23.7909 22.5085 24.0002 21.9808 24.0003C21.4531 24.0003 20.9469 23.7908 20.5726 23.4183L15.9271 18.7669C14.2492 19.903 12.2698 20.5091 10.2445 20.5072C7.962 20.5084 5.74383 19.7455 3.94368 18.3402C2.14373 16.9348 0.864687 14.9673 0.308919 12.7503C-0.246842 10.5333 -0.0474269 8.19405 0.876302 6.10383C1.80011 4.01353 3.39518 2.29187 5.40755 1.21321ZM10.2445 2.94074C8.32294 2.9434 6.48018 3.7099 5.1224 5.0716C3.76474 6.43324 3.00233 8.27916 3.00228 10.2034C3.00425 11.6373 3.43103 13.0385 4.22786 14.2298C5.02479 15.4212 6.15641 16.3494 7.47982 16.8968C8.80322 17.4442 10.2593 17.5869 11.6634 17.306C13.0673 17.025 14.3568 16.3333 15.3685 15.3187C16.3802 14.304 17.0684 13.0114 17.347 11.6048C17.6256 10.1984 17.4821 8.74084 16.9339 7.41633C16.3855 6.09168 15.4566 4.9589 14.266 4.16242C13.0755 3.36617 11.676 2.94083 10.2445 2.94074Z" fill="#404040"/>
</g>
<defs>
<clipPath id="clip0_534_954">
<rect width="24" height="24" fill="white"/>
</clipPath>
</defs>
</svg>
