<svg width="24" height="24" viewBox="0 0 24 24" fill="none" xmlns="http://www.w3.org/2000/svg">
<path d="M14.2676 14.5088C15.1115 14.0565 16.0831 13.8991 17.0264 14.0625C17.9695 14.226 18.8315 14.7013 19.4746 15.4111C20.1176 16.1211 20.5053 17.0267 20.5762 17.9824C20.643 18.885 20.4232 19.7841 19.9512 20.5527L21.6953 22.2812C21.7913 22.3739 21.8688 22.4856 21.9209 22.6084C21.973 22.7312 22 22.8636 22 22.9971C22 23.1305 21.973 23.2629 21.9209 23.3857C21.8692 23.5076 21.7922 23.6177 21.6973 23.71C21.5114 23.8949 21.2602 23.9999 20.998 24C20.736 23.9999 20.4847 23.8957 20.2988 23.7109L18.5449 21.9541C17.8708 22.3744 17.0931 22.6012 16.2969 22.6006C15.3398 22.6011 14.4092 22.2815 13.6543 21.6924C12.8994 21.1031 12.363 20.2772 12.1299 19.3477C11.8968 18.4179 11.9798 17.4362 12.3672 16.5596C12.7546 15.6832 13.4237 14.9611 14.2676 14.5088ZM13.1719 0C13.7022 0.000106842 14.211 0.210962 14.5859 0.585938L19.4141 5.41406C19.7891 5.78908 19.9999 6.29778 20 6.82812V11C19.9999 11.5522 19.5522 12 19 12C18.4478 12 18.0001 11.5522 18 11V8H14C13.9337 8 13.8683 7.99553 13.8037 7.98926C13.7962 7.98852 13.7888 7.98714 13.7812 7.98633C13.7218 7.97988 13.6632 7.97148 13.6055 7.95996C13.6013 7.95912 13.597 7.95887 13.5928 7.95801C13.5305 7.94516 13.4692 7.92962 13.4092 7.91113C13.4036 7.9094 13.3982 7.90705 13.3926 7.90527C13.3388 7.88819 13.2861 7.86906 13.2344 7.84766C13.2259 7.84413 13.2174 7.84055 13.209 7.83691C13.1078 7.79337 13.0106 7.74258 12.9189 7.68359C12.9084 7.67681 12.8987 7.66902 12.8887 7.66211C12.8811 7.65703 12.8737 7.65166 12.8662 7.64648C12.8508 7.63538 12.8356 7.62468 12.8213 7.61328C12.3241 7.24943 12 6.66328 12 6V2H4V20H9C9.55228 20 10 20.4477 10 21C10 21.5523 9.55228 22 9 22H4C2.89543 22 2 21.1046 2 20V2C2 0.895431 2.89543 0 4 0H13.1719ZM16.2969 15.5635C15.5782 15.5645 14.8888 15.851 14.3809 16.3604C13.873 16.8697 13.588 17.5604 13.5879 18.2803C13.5888 18.8166 13.7479 19.3416 14.0459 19.7871C14.344 20.2325 14.7679 20.5795 15.2627 20.7842C15.7575 20.9887 16.3022 21.0425 16.8271 20.9375C17.3522 20.8324 17.8345 20.5728 18.2129 20.1934C18.5912 19.8139 18.8498 19.3307 18.9541 18.8047C19.0583 18.2785 19.004 17.7319 18.7988 17.2363C18.5937 16.741 18.2459 16.3174 17.8008 16.0195C17.3557 15.7219 16.832 15.5636 16.2969 15.5635ZM11 14C11.5523 14 12 14.4477 12 15C12 15.5523 11.5523 16 11 16H7C6.44772 16 6 15.5523 6 15C6 14.4477 6.44772 14 7 14H11ZM13 10C13.5523 10 14 10.4477 14 11C14 11.5523 13.5523 12 13 12H7C6.44772 12 6 11.5523 6 11C6 10.4477 6.44772 10 7 10H13ZM14 6H18L14 2V6Z" fill="#404040"/>
</svg>
