<svg width="24" height="24" viewBox="0 0 24 24" fill="none" xmlns="http://www.w3.org/2000/svg">
<path fill-rule="evenodd" clip-rule="evenodd" d="M9.49971 13.75C10.052 13.75 10.4997 14.1977 10.4997 14.75C10.4997 15.3022 10.052 15.75 9.49971 15.75H8.49971C8.22357 15.75 7.99971 15.9738 7.99971 16.25V16.6831C8.00032 16.9069 8.15903 17.0991 8.37871 17.142C11.2443 17.6999 13.4726 19.9613 13.9877 22.8349C14.0363 23.1252 13.9545 23.4222 13.7641 23.6467C13.5737 23.8712 13.2941 24.0005 12.9997 24H0.999707C0.705699 24 0.426629 23.8704 0.236691 23.646C0.0467531 23.4215 -0.0347966 23.1249 0.0137144 22.8349C0.527939 19.9612 2.75604 17.6994 5.6217 17.142C5.84141 17.0994 5.99997 16.9069 5.99971 16.6831V16.25C5.99971 15.9738 5.77585 15.75 5.49971 15.75H4.49971C3.94742 15.75 3.49971 15.3022 3.49971 14.75C3.49971 14.1977 3.94742 13.75 4.49971 13.75H9.49971ZM10.3396 0.00411124L10.4717 0.00997061C11.0211 0.0626906 11.4239 0.550619 11.3717 1.10006C11.3451 1.31064 11.3956 1.52358 11.5137 1.69991L13.9327 5.38985C14.1621 5.7391 14.1501 6.19425 13.9027 6.53097L11.2267 10.1689C11.0524 10.3848 10.9716 10.6615 11.0024 10.9372C11.0332 11.213 11.173 11.4649 11.3907 11.6369C11.6027 11.8034 11.8722 11.8785 12.1397 11.8459C12.4094 11.8156 12.6552 11.677 12.8207 11.4619L17.8317 4.86202C18.0921 4.51455 18.547 4.37491 18.9576 4.51632C19.3681 4.65773 19.6405 5.04775 19.6317 5.48189C19.5987 7.80089 20.1087 8.39691 20.5907 8.77291C20.6684 8.85804 20.7926 8.88245 20.8967 8.83297C21.2352 8.61701 21.4523 8.25431 21.4827 7.85396L21.9997 1.01485C22.0178 0.749174 22.1418 0.501944 22.3439 0.328574C22.5461 0.155214 22.8094 0.0703784 23.0747 0.0929784C23.3396 0.112158 23.5861 0.235863 23.7596 0.436973C23.9331 0.638083 24.0195 0.90011 23.9997 1.165L23.4797 8.01388C23.3884 9.14688 22.7151 10.1512 21.7017 10.666C20.9244 11.0138 20.0171 10.8904 19.3607 10.3479C18.8632 9.96663 18.4632 9.47284 18.1937 8.90694C18.1183 8.74989 17.9667 8.6435 17.7933 8.62594C17.62 8.60839 17.45 8.68226 17.3447 8.82101L14.4087 12.6899C13.9141 13.3279 13.1843 13.7407 12.3827 13.8359C12.2633 13.8507 12.143 13.858 12.0227 13.8579C11.3482 13.8595 10.693 13.6331 10.1637 13.215C8.84841 12.184 8.61416 10.2837 9.63971 8.96407L11.6847 6.1899C11.8082 6.02165 11.8141 5.79459 11.6997 5.62008L9.85171 2.81686C9.47453 2.25675 9.30801 1.58111 9.38171 0.909873C9.40281 0.644313 9.53069 0.398829 9.73611 0.229209C9.94154 0.0595889 10.2069 -0.0195594 10.4717 0.00997061L10.3396 0.00411124Z" fill="#404040"/>
</svg>
