<svg width="24" height="24" viewBox="0 0 24 24" fill="none" xmlns="http://www.w3.org/2000/svg">
<path d="M13 0C13.8284 0 14.5 0.671573 14.5 1.5V3.36035C15.1399 3.54803 15.757 3.80589 16.3398 4.12988L17.6602 2.80957C17.94 2.52645 18.3216 2.36726 18.7197 2.36719C19.118 2.36719 19.5003 2.52625 19.7803 2.80957L21.1904 4.21973C21.4746 4.49884 21.6329 4.88195 21.6299 5.28027C21.634 5.67862 21.4754 6.06148 21.1904 6.33984L19.8799 7.66016C20.1969 8.24516 20.4514 8.86183 20.6396 9.5H22.5C23.3284 9.5 24 10.1716 24 11V13C24 13.8284 23.3284 14.5 22.5 14.5H20.6396C20.4532 15.1388 20.1986 15.7557 19.8799 16.3398L21.1904 17.6602C21.775 18.2458 21.7752 19.1947 21.1904 19.7803L19.7803 21.1904C19.5003 21.4738 19.118 21.6328 18.7197 21.6328C18.3216 21.6327 17.94 21.4736 17.6602 21.1904L16.3398 19.8799C15.7557 20.1986 15.1388 20.4532 14.5 20.6396V22.5C14.5 23.3284 13.8284 24 13 24H11C10.1716 24 9.5 23.3284 9.5 22.5V20.6396C8.8612 20.4532 8.24435 20.1986 7.66016 19.8799L6.33984 21.1904C5.74769 21.759 4.81179 21.7592 4.21973 21.1904L2.80957 19.7803C2.22484 19.1947 2.22498 18.2458 2.80957 17.6602L4.12012 16.3398C3.80143 15.7557 3.54682 15.1388 3.36035 14.5H1.5C0.671573 14.5 0 13.8284 0 13V11C0 10.1716 0.671573 9.5 1.5 9.5H3.36035C3.5486 8.86183 3.80314 8.24516 4.12012 7.66016L2.80957 6.33984C2.52261 6.06283 2.36364 5.67908 2.37012 5.28027C2.3671 4.88196 2.52538 4.49884 2.80957 4.21973L4.21973 2.80957C4.49965 2.52625 4.88199 2.36719 5.28027 2.36719C5.67836 2.36726 6.06 2.52645 6.33984 2.80957L7.66016 4.12988C8.24299 3.80589 8.86013 3.54803 9.5 3.36035V1.5C9.5 0.671573 10.1716 0 11 0H13ZM12 7C9.23858 7 7 9.23858 7 12C7 14.7614 9.23858 17 12 17C14.7614 17 17 14.7614 17 12C17 9.23858 14.7614 7 12 7Z" fill="#404040"/>
</svg>
