<svg width="24" height="24" viewBox="0 0 24 24" fill="none" xmlns="http://www.w3.org/2000/svg">
<path fill-rule="evenodd" clip-rule="evenodd" d="M6.00318 0H3.12197C2.55446 0 2.04151 0.338336 1.77959 0.86221L0.0661388 4.43111C0.0661388 4.43111 0.0333978 4.5075 0.0224841 4.54025C0.000656754 4.60573 0.000656753 4.67121 0.000656753 4.7367V6.64666C-0.0211706 7.61801 0.502686 8.51296 1.33213 8.96044C1.5504 9.05866 1.75776 9.13506 1.97603 9.18963V22.4393C1.97603 23.3015 2.64177 24 3.48212 24H20.4856C21.3151 24 21.9917 23.3015 21.9917 22.4393V9.20055C22.2209 9.14598 22.4392 9.06958 22.6465 8.97135C23.4978 8.52388 24.0107 7.61801 23.9998 6.64666V4.7367C23.9998 4.7367 23.9998 4.62756 23.9889 4.57299C23.978 4.5075 23.9562 4.45293 23.9234 4.40928L22.2318 0.86221C21.9699 0.327422 21.446 0 20.8894 0H6.00318ZM18.5757 4.16917L17.6372 1.03683H14.8323V4.16917H18.5757ZM9.17906 4.16917V1.04775H6.38516L5.44658 4.18008H9.17906V4.16917ZM5.25013 5.23875V7.71624L5.27196 7.81446C5.52298 8.58936 6.14506 9.1678 6.90901 9.34243L7.05089 9.37517C7.57475 9.45157 8.0986 9.33152 8.53515 9.04775C8.78617 8.88404 9.00444 8.65484 9.17906 8.39291V5.23875H5.25013ZM18.7504 5.22783H14.8323V8.40382C15.3016 9.11323 16.1311 9.49523 16.9496 9.37517C17.8118 9.2442 18.5103 8.61119 18.7504 7.74898V5.22783ZM19.6562 8.81855C19.6235 8.79675 19.5935 8.77767 19.5635 8.75859C19.5335 8.73951 19.5034 8.7203 19.4707 8.6985C18.9905 9.61528 18.1283 10.2592 17.1024 10.412C16.4257 10.5102 15.76 10.3793 15.1816 10.0628C14.8978 9.90996 14.625 9.71351 14.3958 9.4734L14.3194 9.397C13.8392 9.92087 13.2171 10.281 12.5186 10.4011C12.3986 10.4229 12.2786 10.4338 12.1585 10.4447L11.9839 10.4447C11.1435 10.4447 10.3577 10.0955 9.7684 9.51705L9.67017 9.40791C8.9717 10.1828 7.94581 10.5648 6.8981 10.4229C6.24328 10.3247 5.64303 10.0191 5.17374 9.57162C4.91181 9.3206 4.69354 9.03684 4.51892 8.70941C4.30339 8.86712 4.0676 8.99698 3.81887 9.09411L3.81887 22.0909H20.1497V9.09385C19.9781 9.02416 19.8126 8.93867 19.6562 8.84038V8.81855ZM20.7279 22.9118V22.9091H20.7328L20.7279 22.9118ZM3.27339 22.9301V22.9091H3.23536C3.24772 22.9166 3.26041 22.9236 3.27339 22.9301ZM13.6428 14.5703V14.6139H10.4123L11.4491 12.8131C11.591 12.5621 11.5255 12.2347 11.2854 12.0928C11.0453 11.9509 10.7397 12.0164 10.5978 12.2674L9.24454 14.6139H8.03312C7.6948 14.6139 7.4547 14.9523 7.55292 15.2797L9.05901 20.4966C9.12449 20.7258 9.32094 20.8677 9.53921 20.8677H14.5377C14.745 20.8677 14.9306 20.7258 15.007 20.5075L16.6768 15.2797L16.6986 15.2033V15.1269L16.6768 15.0505V14.9741L16.6549 14.8977L16.6222 14.8322L16.5785 14.7667L16.513 14.6903L16.4585 14.6467L16.393 14.6139L16.3275 14.5921L16.262 14.5703H14.7996L13.4463 12.2128C13.3044 11.9618 12.9988 11.8854 12.7587 12.0382C12.5296 12.191 12.4422 12.5075 12.595 12.7585L13.6428 14.5703Z" fill="#404040"/>
</svg>
