<svg width="24" height="24" viewBox="0 0 24 24" fill="none" xmlns="http://www.w3.org/2000/svg">
<path fill-rule="evenodd" clip-rule="evenodd" d="M11.9993 5.0009C16.4009 4.94226 20.7894 7.85182 23.4354 10.6043C24.1871 11.3972 24.1883 12.5975 23.4384 13.3918C20.8204 16.116 16.4949 19 12.1463 19H11.8382C7.5047 19 3.17815 16.1159 0.563219 13.3927C-0.18774 12.5989 -0.18774 11.3982 0.563219 10.6043C3.20916 7.85277 7.59771 4.94131 11.9993 5.0009ZM11.9993 7.6494C9.45787 7.6494 7.39763 9.59737 7.39763 12.0004C7.39763 14.4034 9.45787 16.3515 11.9993 16.3515C14.5407 16.3515 16.6009 14.4034 16.6009 12.0004C16.6009 9.59737 14.5407 7.6494 11.9993 7.6494ZM11.9993 10.1086C13.1042 10.1086 14 10.9556 14 12.0004C14 13.0452 13.1042 13.8922 11.9993 13.8922C10.8943 13.8922 9.99858 13.0452 9.99858 12.0004C9.99858 10.9556 10.8943 10.1086 11.9993 10.1086Z" fill="#D52B1E"/>
</svg>
