<svg width="24" height="24" viewBox="0 0 24 24" fill="none" xmlns="http://www.w3.org/2000/svg">
<g clip-path="url(#clip0_144_957)">
<path fill-rule="evenodd" clip-rule="evenodd" d="M23.904 8.6615C23.6787 8.06136 23.1016 7.66269 22.4557 7.66079H16.1857C15.967 7.66094 15.7721 7.52412 15.6995 7.31963L13.4488 0.995387C13.223 0.396793 12.6462 0 12.0016 0C11.357 0 10.7801 0.396793 10.5543 0.995387L10.5492 1.01172L8.30357 7.31963C8.2311 7.52377 8.03675 7.66051 7.81846 7.66079H1.5463C0.895963 7.6603 0.314982 8.06349 0.0929351 8.66949C-0.129111 9.27548 0.0553319 9.95455 0.554361 10.368L5.89427 14.7592C6.05775 14.8937 6.12117 15.1139 6.05393 15.3137L3.8104 21.9831C3.59765 22.6159 3.82241 23.3124 4.36607 23.7053C4.90973 24.0982 5.6473 24.0973 6.18986 23.7029L11.6966 19.6997C11.8778 19.5681 12.1242 19.5681 12.3054 19.6997L17.8101 23.7018C18.3525 24.0976 19.0909 24.0996 19.6354 23.7067C20.1798 23.3137 20.4049 22.6164 20.1916 21.9831L17.9482 15.3096C17.8809 15.1098 17.9443 14.8896 18.1078 14.7551L23.458 10.3577C23.9505 9.94084 24.1286 9.2637 23.904 8.6615Z" fill="#404040"/>
</g>
<defs>
<clipPath id="clip0_144_957">
<rect width="24" height="24" fill="white"/>
</clipPath>
</defs>
</svg>
