<svg width="24" height="24" viewBox="0 0 24 24" fill="none" xmlns="http://www.w3.org/2000/svg">
<g clip-path="url(#clip0_622_469)">
<path fill-rule="evenodd" clip-rule="evenodd" d="M11.9973 -0.000976562C12.3288 -0.000976562 12.654 0.0907979 12.9368 0.263672C13.1843 0.415049 13.3913 0.623538 13.5403 0.871094L13.6008 0.979492L13.6028 0.984375L16.6262 6.97461L22.3762 7.54492H22.3753C22.7101 7.57552 23.0297 7.70013 23.2971 7.9043C23.5345 8.08564 23.7226 8.3233 23.844 8.59473L23.8919 8.71387L23.9309 8.83496C24.0124 9.12096 24.0216 9.42333 23.9563 9.71484C23.8817 10.0479 23.7134 10.3534 23.471 10.5938L18.7044 15.3184L20.47 21.7334L20.4729 21.7422C20.5616 22.0763 20.5515 22.429 20.4446 22.7578C20.3376 23.0866 20.1377 23.3777 19.8694 23.5957C19.6011 23.8136 19.2755 23.9499 18.9319 23.9873C18.59 24.0244 18.2444 23.9621 17.9368 23.8086L11.9973 20.8682L6.06666 23.8057L6.06569 23.8047C5.75839 23.9577 5.41391 24.0204 5.07252 23.9834C4.72878 23.946 4.40241 23.8098 4.13405 23.5918C3.86585 23.3738 3.66577 23.0826 3.55885 22.7539C3.45203 22.4252 3.44283 22.0723 3.53151 21.7383L3.53346 21.7295L5.29811 15.3135L0.529555 10.5898C0.287046 10.3494 0.117887 10.0441 0.043227 9.71094C-0.0312601 9.37804 -0.00885356 9.03056 0.10768 8.70996L0.155532 8.59082C0.276928 8.31938 0.465074 8.08176 0.702407 7.90039L0.806899 7.82715C1.05108 7.66685 1.33132 7.56796 1.62331 7.54102L7.37233 6.9707L10.3919 0.984375L10.3948 0.979492C10.5458 0.684596 10.7753 0.436598 11.0579 0.263672C11.3406 0.0908107 11.666 -0.000893661 11.9973 -0.000976562ZM8.91139 8.3623C8.75735 8.66765 8.45774 8.87334 8.11745 8.90723L2.25807 9.4873L7.12233 14.3057C7.3791 14.56 7.47898 14.9328 7.38307 15.2812L5.58522 21.8105L11.554 18.8564L11.6604 18.8105C11.9144 18.7196 12.1969 18.7343 12.4417 18.8555L18.4182 21.8154L16.6204 15.2852C16.5246 14.9369 16.6247 14.5639 16.8811 14.3096L21.7415 9.49121L15.8831 8.91113C15.5428 8.87734 15.2433 8.67236 15.0891 8.36719L11.9973 2.24219L8.91139 8.3623Z" fill="#404040"/>
</g>
<defs>
<clipPath id="clip0_622_469">
<rect width="24" height="24" fill="white"/>
</clipPath>
</defs>
</svg>
