<svg width="24" height="24" viewBox="0 0 24 24" fill="none" xmlns="http://www.w3.org/2000/svg">
<g clip-path="url(#clip0_692_1831)">
<path fill-rule="evenodd" clip-rule="evenodd" d="M15.1643 0C15.4431 4.11473e-05 15.7103 0.105643 15.9075 0.292969C16.1046 0.480315 16.216 0.734095 16.216 0.999023C16.216 1.26395 16.1046 1.51773 15.9075 1.70508C15.7103 1.8924 15.4431 1.99801 15.1643 1.99805H13.3235C13.2539 1.99816 13.1871 2.02455 13.1379 2.07129C13.0887 2.11812 13.0608 2.18183 13.0608 2.24805V4.8252C13.0564 4.85803 13.0593 4.89192 13.0686 4.92383C13.0779 4.95564 13.094 4.98576 13.1155 5.01172C13.1369 5.03752 13.1634 5.05917 13.1936 5.0752C13.224 5.09129 13.2576 5.10175 13.2922 5.10547C15.0381 5.3206 16.6929 5.97181 18.0871 6.99316C18.1351 7.03321 18.1971 7.05566 18.261 7.05566C18.3248 7.05565 18.3868 7.0332 18.4348 6.99316L20.1487 5.28516C20.3466 5.09714 20.6149 4.99128 20.8948 4.99121C21.1748 4.99121 21.4438 5.09703 21.6418 5.28516C21.8397 5.47321 21.9503 5.72825 21.9504 5.99414C21.9504 6.26019 21.8398 6.51597 21.6418 6.7041L19.9065 8.35254C19.8646 8.39797 19.8412 8.4562 19.841 8.5166C19.841 8.57718 19.8645 8.63609 19.9065 8.68164C21.2562 10.3377 21.9925 12.3713 22.0002 14.4658C22.0079 16.5604 21.2861 18.5987 19.9485 20.2637C18.6108 21.9287 16.7314 23.1276 14.6028 23.6729C12.4744 24.218 10.2161 24.0795 8.17894 23.2793C6.14177 22.4789 4.43976 21.0612 3.33812 19.2471C2.23648 17.4327 1.7965 15.3225 2.08714 13.2461C2.37786 11.17 3.38232 9.24326 4.94456 7.76562C6.50703 6.28786 8.54008 5.3419 10.7268 5.0752C10.7908 5.0678 10.8502 5.03821 10.8928 4.99219C10.9353 4.94616 10.9587 4.88644 10.9582 4.8252V2.24805C10.9582 2.18183 10.9303 2.11812 10.8811 2.07129C10.8319 2.02455 10.7651 1.99816 10.6955 1.99805H8.85472C8.57589 1.99801 8.30872 1.89241 8.11156 1.70508C7.91441 1.51772 7.80296 1.26395 7.80296 0.999023C7.80298 0.734093 7.9144 0.480315 8.11156 0.292969C8.30872 0.105641 8.57589 3.90971e-05 8.85472 0H15.1643ZM15.0276 7.56348C13.5865 6.99639 12.0007 6.84858 10.4709 7.1377C8.94109 7.42682 7.5358 8.14056 6.43284 9.18848C5.33006 10.2363 4.57897 11.5711 4.27464 13.0244C3.97038 14.4777 4.12616 15.9845 4.72288 17.3535C5.3198 18.7227 6.33122 19.8935 7.62816 20.7168C8.92493 21.54 10.4494 21.9794 12.009 21.9795C14.1006 21.9795 16.1072 21.1903 17.5862 19.7852C19.0652 18.3799 19.8957 16.4736 19.8957 14.4863C19.8957 13.0044 19.4332 11.5554 18.5666 10.3232C17.7001 9.09121 16.4685 8.13055 15.0276 7.56348ZM12.009 8.49219C13.2569 8.49219 14.4773 8.84328 15.5149 9.50195C16.5523 10.1606 17.3606 11.0971 17.8381 12.1924C18.3156 13.2877 18.4409 14.4934 18.1975 15.6562C17.954 16.8189 17.3532 17.8873 16.4709 18.7256C15.5886 19.5639 14.4643 20.1349 13.2405 20.3662C12.0166 20.5975 10.7478 20.4781 9.59495 20.0244C8.44211 19.5707 7.45716 18.8022 6.7639 17.8164C6.07065 16.8306 5.70042 15.6719 5.70042 14.4863C5.70047 14.3539 5.75518 14.2265 5.85374 14.1328C5.95232 14.0392 6.08641 13.9873 6.22581 13.9873H11.4836V8.99121C11.4837 8.85887 11.5394 8.73226 11.6379 8.63867C11.7364 8.54508 11.8697 8.49228 12.009 8.49219Z" fill="#404040"/>
</g>
<defs>
<clipPath id="clip0_692_1831">
<rect width="24" height="24" fill="white"/>
</clipPath>
</defs>
</svg>
