<svg width="24" height="24" viewBox="0 0 24 24" fill="none" xmlns="http://www.w3.org/2000/svg">
<g clip-path="url(#clip0_1_1801)">
<path fill-rule="evenodd" clip-rule="evenodd" d="M22.233 0.970361L23.954 5.0949C23.982 5.15855 23.997 5.22722 23.998 5.2968V6.2089C23.9572 7.49422 23.18 8.63983 22.004 9.14811C20.9422 9.61641 19.7158 9.50769 18.752 8.85981C18.6516 8.79596 18.5203 8.81192 18.438 8.89799C17.621 9.74038 16.5256 10.2538 15.358 10.3415C14.2119 10.4438 13.0685 10.1168 12.148 9.42335C12.0592 9.35604 11.9368 9.35604 11.848 9.42335C11.0418 10.0346 10.0581 10.3632 9.048 10.3586C8.914 10.3586 8.781 10.3535 8.648 10.3425C7.47906 10.2469 6.38304 9.73327 5.559 8.89497C5.47631 8.81009 5.34572 8.795 5.246 8.85881C4.27966 9.50644 3.05103 9.61364 1.988 9.14309C0.806201 8.6452 0.0271189 7.49492 0 6.2079V5.2958C0.000867231 5.22673 0.0151334 5.15848 0.042 5.0949L1.763 0.970361C1.97814 0.402149 2.51212 0.0194622 3.117 0H20.879C21.4839 0.0194622 22.0179 0.402149 22.233 0.970361ZM21.5469 10.4389C20.9946 10.4389 20.5469 10.8887 20.5469 11.4434L20.4979 21.4886C20.4979 21.766 20.274 21.9908 19.9979 21.9908H3.94287C3.66673 21.9908 3.44287 21.766 3.44287 21.4886V11.4434C3.44287 10.8887 2.99516 10.4389 2.44287 10.4389C1.89059 10.4389 1.44287 10.8887 1.44287 11.4434V21.9908C1.45878 23.1145 2.37718 24.0133 3.49587 23.9999H20.4959C21.6146 24.0133 22.533 23.1145 22.5489 21.9908V11.4434C22.5489 11.1767 22.4432 10.9209 22.2553 10.7324C22.0673 10.544 21.8124 10.4384 21.5469 10.4389ZM10.8822 11.799C10.7114 11.696 10.5069 11.6654 10.3137 11.714C10.1204 11.7626 9.95439 11.8864 9.85217 12.0582L8.49817 14.3354C8.45264 14.411 8.37109 14.4571 8.28317 14.457H7.83317C7.6752 14.4572 7.52665 14.5325 7.4325 14.6599C7.33835 14.7873 7.30968 14.9519 7.35517 15.1039L8.85517 20.1264C8.91864 20.3384 9.1128 20.4837 9.33317 20.4841H14.3332C14.5487 20.4843 14.7401 20.3459 14.8082 20.1405L16.4752 15.1179C16.5261 14.9643 16.5002 14.7955 16.4056 14.6644C16.311 14.5334 16.1593 14.4561 15.9982 14.457H15.7152C15.6273 14.4569 15.5458 14.4108 15.5002 14.3354L14.1422 12.0612C13.9225 11.7196 13.4729 11.6144 13.1256 11.8232C12.7783 12.0321 12.6582 12.4799 12.8542 12.8357L13.5962 14.0773C13.6422 14.1549 13.6432 14.2514 13.5987 14.33C13.5542 14.4086 13.4712 14.4571 13.3812 14.457H10.6132C10.5232 14.4571 10.4401 14.4086 10.3956 14.33C10.3511 14.2514 10.3521 14.1549 10.3982 14.0773L11.1402 12.8357C11.2429 12.6639 11.2734 12.4581 11.225 12.2637C11.1766 12.0692 11.0533 11.9021 10.8822 11.799Z" fill="#D52B1E"/>
</g>
<defs>
<clipPath id="clip0_1_1801">
<rect width="24" height="24" fill="white"/>
</clipPath>
</defs>
</svg>
