<svg width="24" height="24" viewBox="0 0 24 24" fill="none" xmlns="http://www.w3.org/2000/svg">
<g clip-path="url(#clip0_155_940)">
<path d="M23.8741 2.74338C24.4629 1.1146 22.8846 -0.463761 21.2558 0.126419L1.34911 7.3258C-0.285135 7.91734 -0.482771 10.1472 1.02062 11.0182L7.37494 14.6969L13.0491 9.02274C13.3062 8.77446 13.6505 8.63708 14.0079 8.64018C14.3652 8.64329 14.7071 8.78663 14.9598 9.03934C15.2125 9.29206 15.3559 9.63391 15.359 9.99129C15.3621 10.3487 15.2247 10.693 14.9764 10.95L9.30223 16.6242L12.9823 22.9785C13.8519 24.4819 16.0818 24.2829 16.6733 22.65L23.8741 2.74338Z" fill="#404040"/>
</g>
<defs>
<clipPath id="clip0_155_940">
<rect width="24" height="24" fill="white"/>
</clipPath>
</defs>
</svg>
