<svg width="24" height="24" viewBox="0 0 24 24" fill="none" xmlns="http://www.w3.org/2000/svg">
<g clip-path="url(#clip0_135_1017)">
<path fill-rule="evenodd" clip-rule="evenodd" d="M12 0C18.6244 0.00716 23.9928 5.37555 24 12C24 18.6274 18.6274 24 12 24C5.37258 24 0 18.6274 0 12C0 5.37258 5.37258 0 12 0ZM17.5516 6.21948C17.8792 6.16978 18.2132 6.25233 18.48 6.44897C18.7476 6.645 18.9263 6.93935 18.9767 7.26721C19.0272 7.59507 18.9453 7.9296 18.749 8.19702L12.049 17.2841C11.8451 17.5548 11.5409 17.7322 11.2048 17.7764C10.8687 17.8206 10.529 17.7279 10.262 17.519L5.479 13.693C4.95682 13.2566 4.8793 12.4828 5.30453 11.9514C5.72977 11.4201 6.50174 11.3261 7.04199 11.74L10.809 14.754L16.733 6.71399C16.9295 6.44708 17.2239 6.26918 17.5516 6.21948Z" fill="#404040"/>
</g>
<defs>
<clipPath id="clip0_135_1017">
<rect width="24" height="24" fill="white"/>
</clipPath>
</defs>
</svg>
