<svg width="24" height="24" viewBox="0 0 24 24" fill="none" xmlns="http://www.w3.org/2000/svg">
<path d="M22.7566 5.53906C23.0971 5.4513 23.4574 5.55412 23.7058 5.80957C23.9542 6.0653 24.0544 6.43703 23.9695 6.78809L22.5525 12.6152C22.4658 12.9746 22.1984 13.2582 21.8523 13.3584C21.7655 13.3834 21.6758 13.3959 21.5857 13.3955C21.3205 13.3954 21.0661 13.287 20.8787 13.0938L19.9949 12.1846C19.9481 12.1362 19.8844 12.1085 19.8181 12.1084C19.7517 12.1084 19.6873 12.1361 19.6404 12.1846L12.4939 19.5479C11.9082 20.151 10.9585 20.1509 10.3728 19.5479C10.0904 19.2579 9.93146 18.8638 9.9314 18.4531C9.9314 18.0424 10.0904 17.6484 10.3728 17.3584L17.5193 9.99414C17.6166 9.89362 17.6166 9.7304 17.5193 9.62988L16.6355 8.71973C16.383 8.45718 16.2867 8.07488 16.3826 7.71875C16.4785 7.36289 16.752 7.08723 17.0994 6.99609L22.7566 5.53906ZM11.5417 4.45312C11.9279 4.05482 12.4943 3.90445 13.0193 4.06055C13.5442 4.21673 13.9454 4.65512 14.0662 5.2041C14.1868 5.75307 14.0077 6.32616 13.5994 6.7002L6.27905 13.8203C6.22945 13.8677 6.2008 13.9342 6.19995 14.0039C6.19926 14.0735 6.22577 14.1408 6.27319 14.1904L7.36401 15.3135C7.61575 15.576 7.71177 15.9578 7.61597 16.3135C7.52004 16.6689 7.24711 16.9448 6.90015 17.0361L1.24292 18.4922C1.16344 18.5126 1.08167 18.5234 0.999756 18.5234C0.691971 18.5234 0.401119 18.3769 0.21167 18.127C0.0224835 17.8771 -0.0443531 17.5516 0.0300293 17.2441L1.44409 11.416C1.53167 11.0561 1.80013 10.7728 2.14722 10.6738C2.49426 10.5749 2.86618 10.6752 3.12085 10.9375L3.79761 11.6338C3.89299 11.7326 4.04814 11.7356 4.14624 11.6396L11.5378 4.45312H11.5417Z" fill="#404040"/>
</svg>
