<svg width="24" height="24" viewBox="0 0 24 24" fill="none" xmlns="http://www.w3.org/2000/svg">
<path fill-rule="evenodd" clip-rule="evenodd" d="M3.31018 8.59668C3.39022 8.59676 3.46933 8.6157 3.54163 8.65332C3.61411 8.69107 3.67846 8.74627 3.72913 8.81445L6.48596 12.4385C6.55665 12.524 6.60108 12.6317 6.61487 12.7461C6.62856 12.8603 6.61109 12.9766 6.56311 13.0791C6.51702 13.1939 6.43847 13.2896 6.33948 13.3525C6.24038 13.4155 6.12528 13.4429 6.01135 13.4297H4.90881C4.8357 13.4297 4.7652 13.4609 4.7135 13.5176C4.66181 13.5742 4.63342 13.6514 4.63342 13.7314V18.8652C4.63632 19.425 4.84051 19.9616 5.20178 20.3574C5.56302 20.7529 6.05239 20.9763 6.56311 20.9795H17.5895C18.1002 20.9763 18.5896 20.7529 18.9508 20.3574C19.3121 19.9616 19.5172 19.425 19.5201 18.8652C19.5202 18.4649 19.665 18.081 19.9235 17.7979C20.182 17.5147 20.5325 17.3555 20.8981 17.3555C21.2636 17.3555 21.6142 17.5147 21.8727 17.7979C22.1311 18.081 22.2769 18.4649 22.277 18.8652C22.2741 20.2258 21.7791 21.5301 20.901 22.4922C20.0227 23.4544 18.8315 23.9968 17.5895 24H6.56311C5.32105 23.9968 4.12986 23.4544 3.25159 22.4922C2.37355 21.5301 1.8795 20.2258 1.87659 18.8652V13.7314C1.87659 13.6513 1.84723 13.5742 1.79553 13.5176C1.74384 13.461 1.67332 13.4297 1.60022 13.4297H0.497682C0.402442 13.4193 0.311497 13.3809 0.23401 13.3193C0.156532 13.2578 0.0948717 13.175 0.0562757 13.0791C0.00830809 12.9766 -0.0091749 12.8603 0.00451787 12.7461C0.018302 12.6318 0.0627519 12.524 0.133424 12.4385L2.89026 8.81445C2.94093 8.74627 3.00528 8.69107 3.07776 8.65332C3.15021 8.61562 3.22998 8.59668 3.31018 8.59668ZM17.3981 0C18.6378 9.59011e-05 19.8271 0.539602 20.7037 1.5C21.5803 2.4604 22.0728 3.76296 22.0729 5.12109V10.2432C22.0729 10.3229 22.1015 10.3996 22.153 10.4561C22.2044 10.5124 22.2745 10.5438 22.3473 10.5439H23.4479C23.5524 10.5434 23.655 10.5767 23.7428 10.6387C23.8306 10.7007 23.9004 10.7891 23.943 10.8936C23.9909 10.996 24.0085 11.1125 23.9948 11.2266C23.9809 11.3404 23.9362 11.4471 23.8658 11.5322L21.1158 15.1475C21.0654 15.2154 21.0015 15.27 20.9293 15.3076C20.8571 15.3453 20.7779 15.3652 20.6979 15.3652C20.6178 15.3652 20.5387 15.3453 20.4664 15.3076C20.3942 15.27 20.3304 15.2154 20.2799 15.1475L17.5299 11.5322C17.4594 11.447 17.4138 11.3405 17.4 11.2266C17.3863 11.1125 17.4048 10.996 17.4528 10.8936C17.4954 10.7891 17.5651 10.7007 17.653 10.6387C17.7408 10.5766 17.8433 10.5433 17.9479 10.5439H19.0475C19.1203 10.5439 19.1903 10.5124 19.2418 10.4561C19.2933 10.3996 19.3228 10.323 19.3229 10.2432V5.12109C19.3228 4.56192 19.1203 4.02531 18.7594 3.62988C18.3985 3.23447 17.9085 3.01279 17.3981 3.0127H6.39807C5.88762 3.0127 5.39773 3.23452 5.03674 3.62988C4.67579 4.02532 4.47235 4.56187 4.47229 5.12109C4.47229 5.5206 4.32781 5.90403 4.06995 6.18652C3.81209 6.46898 3.46193 6.62793 3.09729 6.62793C2.73282 6.62779 2.38335 6.46885 2.12561 6.18652C1.86775 5.90403 1.72327 5.5206 1.72327 5.12109C1.72333 3.76285 2.21573 2.46043 3.09241 1.5C3.96913 0.539571 5.15823 0 6.39807 0H17.3981Z" fill="#404040"/>
</svg>
