<svg width="24" height="24" viewBox="0 0 24 24" fill="none" xmlns="http://www.w3.org/2000/svg">
<g clip-path="url(#clip0_607_1845)">
<path d="M18.0045 0.450073C18.4787 0.468252 18.9265 0.674953 19.2487 1.02332C19.5707 1.37165 19.7412 1.83352 19.7223 2.3075L19.4596 9.14246C19.4427 9.57682 18.9548 9.84618 18.5299 9.75378C18.2146 9.68514 17.9571 9.41995 17.9713 9.09753L18.2741 2.29773C18.2798 2.14147 18.1605 2.0086 18.0045 1.99792L6.10318 1.48914C6.0256 1.4876 5.95011 1.51547 5.89322 1.56824C5.84136 1.61856 5.80947 1.68666 5.80338 1.75867L5.73404 3.75574L13.0924 2.29773C13.5563 2.20095 14.04 2.29467 14.4342 2.5575C14.8281 2.8203 15.1001 3.23011 15.1891 3.69519L16.2165 8.78992C16.3098 9.25326 15.9557 9.6863 15.4831 9.6864C15.1265 9.6864 14.8189 9.43446 14.7487 9.08484L13.7213 3.96472C13.6865 3.81633 13.5426 3.72011 13.3922 3.745L1.75943 6.07214C1.68475 6.08651 1.61919 6.13041 1.57779 6.19421C1.53631 6.25832 1.52298 6.33673 1.54068 6.41101L4.68521 22.2372C4.69956 22.312 4.7443 22.3774 4.80826 22.4188C4.87238 22.4603 4.95076 22.4746 5.02505 22.4569L6.42642 22.1884C6.80629 22.1157 7.15458 22.4128 7.23599 22.7909C7.31999 23.1814 7.10916 23.6104 6.71744 23.6884L5.33463 23.9637C4.86505 24.0598 4.37642 23.9613 3.98111 23.6903C3.58576 23.4192 3.3176 22.9989 3.23795 22.5262L0.0328674 6.70105C-0.057643 6.23349 0.0421751 5.749 0.310211 5.35535C0.578276 4.96169 0.99237 4.69147 1.4606 4.60437L4.21646 4.05457L4.3063 1.71863C4.34421 0.735315 5.16954 -0.0327721 6.15298 0.000854492L18.0045 0.450073ZM15.0788 17.9735C15.3548 17.9736 15.5788 18.1974 15.5788 18.4735V19.1718C15.5789 19.5852 15.9143 19.9208 16.3278 19.9208C16.7411 19.9206 17.0757 19.5851 17.0758 19.1718V18.4735C17.0758 18.1975 17.2999 17.9738 17.5758 17.9735H23.4958C23.7719 17.9736 23.9958 18.1974 23.9958 18.4735V22.0468C23.9958 22.5551 23.7936 23.0427 23.4342 23.4022C23.0748 23.7617 22.5871 23.9637 22.0788 23.9637H10.5768C10.0544 23.9642 9.55393 23.7517 9.19205 23.3749C8.83025 22.998 8.63721 22.4896 8.65884 21.9677V18.4735C8.65884 18.1975 8.88291 17.9737 9.15884 17.9735H15.0788ZM17.9157 10.9843C18.7337 10.9795 19.4385 11.5588 19.5924 12.3622L19.7721 13.4208H22.0788C23.1375 13.4208 23.9958 14.279 23.9958 15.3378V16.0077C23.9955 16.283 23.773 16.5067 23.4977 16.5077L9.1608 16.5536C8.88421 16.5543 8.65982 16.3302 8.65982 16.0536V15.3876C8.65982 14.3288 9.51806 13.4706 10.5768 13.4706H12.8835L13.0631 12.412C13.1994 11.5909 13.9076 10.9878 14.7399 10.9843H17.9157ZM14.7399 12.4315C14.6389 12.4354 14.5552 12.5112 14.5407 12.6112L14.401 13.4208H18.2545L18.1149 12.6112C18.1044 12.5091 18.0183 12.4312 17.9157 12.4315H14.7399ZM6.49185 7.27722C7.05503 7.16438 7.60362 7.52947 7.71646 8.09265L8.13541 10.1844C8.24824 10.7476 7.88309 11.2962 7.31998 11.4091L5.22818 11.828C4.66505 11.9408 4.11649 11.5757 4.00357 11.0126L3.58463 8.92078C3.47178 8.35759 3.83687 7.80901 4.40005 7.69617L6.49185 7.27722ZM12.3639 8.12878C12.769 8.04949 13.1615 8.31274 13.2419 8.71765C13.3213 9.12286 13.058 9.51619 12.653 9.59656L10.4264 10.0458C10.0202 10.1199 9.62773 9.85986 9.53775 9.45691C9.45831 9.05185 9.72183 8.65857 10.1266 8.578L12.3639 8.12878ZM12.0143 5.87195C12.4195 5.78936 12.8154 6.05075 12.8981 6.45593C12.9808 6.86109 12.7192 7.25681 12.3141 7.33972L10.1266 7.77917L10.0172 7.78894C9.60657 7.84131 9.23097 7.5511 9.17838 7.1405C9.12599 6.72968 9.41697 6.35402 9.82779 6.30164L12.0143 5.87195Z" fill="#404040"/>
</g>
<defs>
<clipPath id="clip0_607_1845">
<rect width="24" height="24" fill="white"/>
</clipPath>
</defs>
</svg>
