<svg width="24" height="24" viewBox="0 0 24 24" fill="none" xmlns="http://www.w3.org/2000/svg">
<path d="M16 11C19.312 11.0041 21.9959 13.6881 22 17C22 20.3137 19.3137 23 16 23C12.6863 23 10 20.3137 10 17C10.0001 13.6864 12.6863 11 16 11ZM16.0039 12.3799C15.6216 12.3799 15.3116 12.69 15.3115 13.0723V13.3955C15.3167 13.487 15.2509 13.5672 15.1602 13.5801C14.3154 13.738 13.6727 14.4314 13.5869 15.2852C13.5013 16.1388 13.9932 16.9451 14.791 17.2607L16.6953 18.0273C16.9376 18.1252 17.0768 18.3811 17.0273 18.6377C16.9779 18.8943 16.7535 19.0803 16.4922 19.0811H14.6152C14.233 19.0811 13.9229 19.3911 13.9229 19.7734C13.9231 20.1555 14.2331 20.4648 14.6152 20.4648H15.1562C15.2392 20.4678 15.3055 20.5352 15.3076 20.6182V20.9268C15.3076 21.3091 15.6176 21.6191 16 21.6191C16.3823 21.6191 16.6924 21.3091 16.6924 20.9268V20.5996C16.6826 20.5154 16.7363 20.4373 16.8184 20.416C17.6718 20.2769 18.3268 19.5835 18.418 18.7236C18.5092 17.8638 18.0142 17.0494 17.209 16.7344L15.3047 15.9717C15.0624 15.8738 14.9232 15.6179 14.9727 15.3613C15.0221 15.1048 15.2465 14.9197 15.5078 14.9189H17.3848C17.7669 14.9189 18.077 14.6087 18.0771 14.2266C18.0771 13.8443 17.767 13.5343 17.3848 13.5342H16.8516C16.7675 13.533 16.6993 13.4659 16.6963 13.3818V13.0723C16.6962 12.69 16.3861 12.38 16.0039 12.3799ZM22 1C23.1007 1 23.9945 1.91706 24 3.05176V5.91797C24.0002 6.69457 23.4382 7.34933 22.6904 7.44336C21.8898 7.54988 21.216 8.5754 20.8379 9.29199C20.6271 9.69157 20.1941 9.94293 19.7471 9.87793C19.126 9.78738 18.7594 9.14525 19.0479 8.58789C19.6275 7.46878 20.6418 5.8618 21.8203 5.52539C21.9268 5.49319 22 5.39273 22 5.27832V3.30957C22.0001 3.17116 21.8939 3.05729 21.7598 3.05176H2.24023C2.10608 3.05729 1.99989 3.17116 2 3.30957V5.27832C2 5.39273 2.07323 5.49319 2.17969 5.52539C4.13896 6.07034 5.5 7.90304 5.5 9.99512C5.49987 12.0871 4.13886 13.9189 2.17969 14.4639C2.07119 14.4928 1.99661 14.5954 2 14.7109V16.6807C1.99738 16.7489 2.02151 16.815 2.06641 16.8652C2.11143 16.9155 2.17391 16.9456 2.24023 16.9482L8.22461 16.9746C8.77501 16.9771 9.21957 17.4242 9.21973 17.9746V18C9.21973 18.5523 8.77201 19 8.21973 19H2C0.895558 19 0.000206532 18.077 7.56189e-08 16.9385V14.0723C0.0242557 13.3152 0.580196 12.6889 1.30957 12.5977C2.69028 12.5977 3.80957 11.4439 3.80957 10.0205C3.80953 8.59713 2.69026 7.44336 1.30957 7.44336C0.561807 7.34933 -0.00023802 6.69457 7.56189e-08 5.91797V3.06152C0.000170045 1.92295 0.895536 1 2 1H22ZM14.8428 9.01758C15.3246 8.92289 15.8017 9.21051 15.9814 9.7041C16.0065 9.78342 16.0065 9.8699 15.9814 9.94922C15.9389 10.0185 15.8722 10.0661 15.7969 10.082C15.3106 10.1605 14.8318 10.2912 14.3691 10.4717C14.3016 10.5091 14.2218 10.5091 14.1543 10.4717C14.0937 10.4266 14.0502 10.3592 14.0312 10.2822C14.0312 10.2268 14.0204 10.1713 14 10.0938C14.0084 9.5633 14.3612 9.11242 14.8428 9.01758ZM15 6.5C15.5523 6.5 16 6.94772 16 7.5C16 8.05228 15.5523 8.5 15 8.5C14.4477 8.5 14 8.05228 14 7.5C14 6.94772 14.4477 6.5 15 6.5ZM15 4C15.5523 4 16 4.44772 16 5C16 5.55228 15.5523 6 15 6C14.4477 6 14 5.55228 14 5C14 4.44772 14.4477 4 15 4Z" fill="#404040"/>
</svg>
