<svg width="24" height="24" viewBox="0 0 24 24" fill="none" xmlns="http://www.w3.org/2000/svg">
<path d="M11.8917 13.1893C11.624 13.1909 11.3585 13.1395 11.1107 13.038C10.8628 12.9365 10.6376 12.7869 10.4479 12.5979L3.12111 5.27111C2.88723 5.01247 2.76169 4.67383 2.77045 4.32523C2.77921 3.97663 2.9216 3.64473 3.16817 3.39815C3.41475 3.15158 3.74665 3.00919 4.09525 3.00043C4.44385 2.99167 4.78248 3.11721 5.04113 3.3511L11.7535 10.0635C11.7915 10.0975 11.8407 10.1163 11.8917 10.1163C11.9428 10.1163 11.992 10.0975 12.03 10.0635L18.7424 3.3511C19.001 3.11721 19.3396 2.99167 19.6882 3.00043C20.0368 3.00919 20.3688 3.15158 20.6153 3.39815C20.8619 3.64473 21.0043 3.97663 21.013 4.32523C21.0218 4.67383 20.8963 5.01247 20.6624 5.27111L13.3356 12.5979C13.1459 12.7869 12.9207 12.9365 12.6728 13.038C12.425 13.1395 12.1595 13.1909 11.8917 13.1893Z" fill="#D52B1E"/>
<path d="M11.8917 20.9999C11.3532 21.0065 10.834 20.7993 10.4479 20.4239L3.12111 13.074C2.88723 12.8154 2.76169 12.4767 2.77045 12.1281C2.77921 11.7795 2.9216 11.4476 3.16817 11.2011C3.41475 10.9545 3.74665 10.8121 4.09525 10.8033C4.44385 10.7946 4.78248 10.9201 5.04113 11.154L11.7535 17.8664C11.7714 17.885 11.7929 17.8998 11.8166 17.9098C11.8404 17.9199 11.8659 17.9251 11.8917 17.9251C11.9176 17.9251 11.9431 17.9199 11.9669 17.9098C11.9906 17.8998 12.0121 17.885 12.03 17.8664L18.7424 11.154C19.001 10.9201 19.3396 10.7946 19.6882 10.8033C20.0368 10.8121 20.3688 10.9545 20.6153 11.2011C20.8619 11.4476 21.0043 11.7795 21.013 12.1281C21.0218 12.4767 20.8963 12.8154 20.6624 13.074L13.3356 20.4239C12.9495 20.7993 12.4303 21.0065 11.8917 20.9999Z" fill="#D52B1E"/>
</svg>
