<svg width="24" height="24" viewBox="0 0 24 24" fill="none" xmlns="http://www.w3.org/2000/svg">
<path d="M18.3658 1.00305C18.7757 0.977154 19.1831 1.08563 19.5328 1.3136L23.8776 4.1427C23.9509 4.19138 23.9952 4.27657 23.9957 4.36829V12.3927C23.9951 12.508 23.924 12.6099 23.8199 12.6437L18.1608 14.5177C17.7323 14.6613 17.2706 14.6468 16.8512 14.4757L11.6901 12.3722C11.171 12.1803 10.8433 11.6365 10.8971 11.0568C10.9611 10.6005 11.1634 10.1787 11.4733 9.85461C11.7706 9.57305 12.179 9.46305 12.567 9.56067L15.4957 10.1837C16.3808 10.3721 17.2759 9.90866 17.6793 9.05286L18.0035 8.36633C18.3103 7.71615 18.2811 6.94456 17.9264 6.32239L17.568 5.69641C17.2059 5.06104 16.5565 4.67296 15.8561 4.67297H12.0963C11.6988 4.67172 11.3097 4.7954 10.9791 5.02942L9.34924 6.18372C9.26622 6.24348 9.22469 6.34981 9.24377 6.45422C9.26292 6.55866 9.33901 6.64071 9.43713 6.66321C9.60513 6.69995 9.7718 6.74391 9.93713 6.79407C10.4681 6.95529 10.7748 7.54193 10.6227 8.10461C10.4706 8.66723 9.91729 8.99318 9.38635 8.83215C8.14689 8.46306 6.8279 8.52678 5.62561 9.01477C3.96479 9.69646 2.70423 11.1686 2.22522 12.9865C1.59615 15.275 2.26574 17.7434 3.94592 19.3282C5.62611 20.9131 8.01727 21.3317 10.0895 20.4044C11.8513 19.5284 13.1181 17.8201 13.5045 15.799C13.649 15.2532 14.173 14.9243 14.694 15.0529C15.215 15.1814 15.5479 15.7221 15.4498 16.2794C14.7374 20.2602 11.4048 23.1056 7.58264 22.9962C3.76066 22.8866 0.578375 19.8547 0.0699463 15.839C-0.438483 11.8232 1.87711 8.00935 5.53674 6.83606C5.61441 6.81147 5.67608 6.74857 5.70178 6.66711L5.82678 6.26965C5.9377 5.91762 6.13425 5.60203 6.39612 5.35559L9.97815 1.97961C10.3142 1.66399 10.7408 1.47785 11.1891 1.45032L18.3658 1.00305ZM7.78577 9.48547C8.19998 9.48547 8.53577 9.84146 8.53577 10.2804V10.545C8.5355 10.6153 8.56219 10.6828 8.60901 10.7325C8.65586 10.7822 8.71952 10.8108 8.78577 10.8107H9.28577C9.69986 10.8107 10.0356 11.1659 10.0358 11.6046C10.0358 12.0436 9.69998 12.3995 9.28577 12.3995H7.25354C6.96958 12.3995 6.72499 12.6138 6.67151 12.9093C6.61827 13.2045 6.77039 13.4981 7.03381 13.6095L9.09631 14.4845C9.95472 14.8452 10.4871 15.7618 10.4039 16.7365C10.3206 17.711 9.64155 18.5117 8.73596 18.7032C8.61959 18.7281 8.53554 18.8362 8.53577 18.962V19.2882C8.53555 19.7269 8.19985 20.0822 7.78577 20.0822C7.37187 20.0819 7.03598 19.7268 7.03577 19.2882V19.0226C7.03562 18.8764 6.92375 18.7579 6.78577 18.7579H6.28577C5.87173 18.7577 5.53577 18.4018 5.53577 17.963C5.53585 17.5243 5.87178 17.1683 6.28577 17.1681H8.31897C8.60338 17.1695 8.84829 16.9562 8.90198 16.6603C8.9556 16.3642 8.80246 16.0694 8.53772 15.9591L6.4762 15.0851C5.61763 14.7244 5.08541 13.8079 5.16858 12.8331C5.25176 11.8584 5.93085 11.0579 6.83655 10.8663C6.95276 10.841 7.03579 10.7323 7.03577 10.6066V10.2804C7.03577 9.8416 7.37173 9.4857 7.78577 9.48547Z" fill="#404040"/>
</svg>
