<svg width="24" height="24" viewBox="0 0 24 24" fill="none" xmlns="http://www.w3.org/2000/svg">
<g clip-path="url(#clip0_203_2052)">
<path d="M1 16.5C1.26522 16.5 1.51949 16.6054 1.70703 16.793C1.89457 16.9805 2 17.2348 2 17.5V21.75C2 21.8163 2.02636 21.8799 2.07324 21.9268C2.12013 21.9736 2.1837 22 2.25 22H6.5C6.76522 22 7.0195 22.1054 7.20703 22.293C7.39457 22.4805 7.5 22.7348 7.5 23C7.5 23.2652 7.39457 23.5195 7.20703 23.707C7.0195 23.8946 6.76522 24 6.5 24H2C1.46957 24 0.96101 23.7891 0.585938 23.4141C0.210865 23.039 0 22.5304 0 22V17.5C0 17.2348 0.105433 16.9805 0.292969 16.793C0.480505 16.6054 0.734784 16.5 1 16.5ZM23 16.5C23.2652 16.5 23.5195 16.6054 23.707 16.793C23.8946 16.9805 24 17.2348 24 17.5V22C24 22.5304 23.7891 23.039 23.4141 23.4141C23.039 23.7891 22.5304 24 22 24H17.5C17.2348 24 16.9805 23.8946 16.793 23.707C16.6054 23.5195 16.5 23.2652 16.5 23C16.5 22.7348 16.6054 22.4805 16.793 22.293C16.9805 22.1054 17.2348 22 17.5 22H21.75C21.8163 22 21.8799 21.9736 21.9268 21.9268C21.9736 21.8799 22 21.8163 22 21.75V17.5C22 17.2348 22.1054 16.9805 22.293 16.793C22.4805 16.6054 22.7348 16.5 23 16.5ZM7.89746 5.01367C8.12983 5.00243 8.35763 5.0843 8.53027 5.24023C8.61564 5.31627 8.6856 5.40879 8.73535 5.51172C8.78501 5.61462 8.81382 5.72674 8.82031 5.84082C8.82676 5.95487 8.81015 6.06892 8.77246 6.17676C8.73467 6.28478 8.67592 6.38444 8.59961 6.46973C7.82259 7.35351 7.3994 8.49318 7.41016 9.66992V14.3896C7.41089 15.3592 7.70567 16.3061 8.25586 17.1045C8.80618 17.9029 9.58625 18.5156 10.4922 18.8613C11.3981 19.207 12.3878 19.2698 13.3301 19.041C14.2723 18.8122 15.123 18.3027 15.7695 17.5801C15.8456 17.4946 15.9381 17.4248 16.041 17.375C16.1439 17.3253 16.256 17.2966 16.3701 17.29C16.4843 17.2835 16.5991 17.2992 16.707 17.3369C16.815 17.3747 16.9147 17.4335 17 17.5098C17.1636 17.6746 17.2558 17.8976 17.2559 18.1299C17.2559 18.3622 17.1637 18.5852 17 18.75C16.1144 19.7246 14.9549 20.409 13.6738 20.7139C12.3929 21.0187 11.0499 20.93 9.82031 20.459C8.59062 19.9879 7.53162 19.1561 6.78223 18.0732C6.03289 16.9904 5.62783 15.7064 5.62012 14.3896V9.66992C5.6227 8.05789 6.21687 6.5027 7.29004 5.2998C7.44678 5.12804 7.6652 5.02495 7.89746 5.01367ZM12.1699 5.95996C13.1538 5.95996 14.0972 6.35116 14.793 7.04688C15.4887 7.74262 15.8799 8.686 15.8799 9.66992V14.3896C15.8799 15.3736 15.4887 16.3179 14.793 17.0137C14.0972 17.7092 13.1537 18.0996 12.1699 18.0996C11.1861 18.0996 10.2426 17.7092 9.54688 17.0137C8.85112 16.3179 8.45996 15.3736 8.45996 14.3896C8.44688 14.267 8.4601 14.1428 8.49805 14.0254C8.53604 13.908 8.59821 13.7998 8.68066 13.708C8.76316 13.6163 8.86386 13.5424 8.97656 13.4922C9.08931 13.4419 9.21152 13.416 9.33496 13.416C9.45839 13.416 9.58062 13.4419 9.69336 13.4922C9.80604 13.5424 9.90676 13.6163 9.98926 13.708C10.0717 13.7998 10.1339 13.908 10.1719 14.0254C10.2098 14.1428 10.223 14.267 10.21 14.3896C10.147 14.6814 10.1497 14.984 10.2188 15.2744C10.2878 15.5648 10.421 15.8361 10.6084 16.0684C10.7959 16.3006 11.0334 16.4875 11.3027 16.6162C11.572 16.7449 11.8666 16.8115 12.165 16.8115C12.4635 16.8115 12.7581 16.7449 13.0273 16.6162C13.2966 16.4875 13.5342 16.3006 13.7217 16.0684C13.9091 15.8362 14.0413 15.5647 14.1104 15.2744C14.1794 14.984 14.1831 14.6814 14.1201 14.3896V9.66992C14.183 9.3783 14.1793 9.07639 14.1104 8.78613C14.0414 8.49592 13.909 8.22434 13.7217 7.99219C13.5342 7.75995 13.2966 7.57206 13.0273 7.44336C12.7581 7.31472 12.4634 7.24805 12.165 7.24805C11.8667 7.24805 11.572 7.31473 11.3027 7.44336C11.0334 7.57206 10.7959 7.75995 10.6084 7.99219C10.4211 8.22434 10.2877 8.49591 10.2188 8.78613C10.1499 9.07634 10.1471 9.37836 10.21 9.66992V11.0801C10.2231 11.2028 10.2099 11.3269 10.1719 11.4443C10.1339 11.5618 10.0718 11.6699 9.98926 11.7617C9.90674 11.8535 9.80611 11.9273 9.69336 11.9775C9.58059 12.0278 9.45842 12.0537 9.33496 12.0537C9.21151 12.0537 9.08932 12.0278 8.97656 11.9775C8.86382 11.9273 8.76317 11.8535 8.68066 11.7617C8.59815 11.6699 8.53603 11.5618 8.49805 11.4443C8.46007 11.3269 8.44683 11.2028 8.45996 11.0801V9.66992C8.45998 8.686 8.85113 7.74262 9.54688 7.04688C10.2426 6.35113 11.186 5.95998 12.1699 5.95996ZM12.21 3.12988C13.9437 3.13253 15.6061 3.82291 16.832 5.04883C18.0577 6.27468 18.7473 7.93645 18.75 9.66992V14.3896C18.7269 14.6056 18.6244 14.806 18.4629 14.9512C18.3014 15.0961 18.092 15.1768 17.875 15.1768C17.658 15.1768 17.4486 15.0961 17.2871 14.9512C17.1256 14.806 17.0231 14.6056 17 14.3896V9.66992C17 9.03771 16.8749 8.41174 16.6318 7.82812C16.3886 7.24435 16.032 6.71387 15.583 6.26855C15.1341 5.82335 14.6012 5.47174 14.0156 5.2334C13.4299 4.99504 12.8023 4.8746 12.1699 4.87988C11.6612 4.87979 11.1553 4.95782 10.6699 5.11035C10.4552 5.17327 10.2242 5.14946 10.0264 5.04492C9.82847 4.94035 9.67939 4.76272 9.61035 4.5498C9.53755 4.33102 9.55411 4.09198 9.65723 3.88574C9.76038 3.67963 9.94152 3.52318 10.1602 3.4502C10.8217 3.23379 11.5139 3.1254 12.21 3.12988ZM12.125 10.2939C12.3422 10.2939 12.5514 10.3744 12.7129 10.5195C12.8744 10.6647 12.9769 10.8642 13 11.0801V13.9199C12.9769 14.1358 12.8744 14.3353 12.7129 14.4805C12.5514 14.6256 12.3422 14.7061 12.125 14.7061C11.9078 14.7061 11.6986 14.6256 11.5371 14.4805C11.3756 14.3353 11.2731 14.1358 11.25 13.9199V11.0801C11.2731 10.8642 11.3756 10.6647 11.5371 10.5195C11.6986 10.3744 11.9078 10.2939 12.125 10.2939ZM6.5 0C6.76522 0 7.0195 0.105432 7.20703 0.292969C7.39457 0.480505 7.5 0.734784 7.5 1C7.5 1.26522 7.39457 1.51949 7.20703 1.70703C7.0195 1.89457 6.76522 2 6.5 2H2.25C2.1837 2 2.12013 2.02636 2.07324 2.07324C2.02636 2.12013 2 2.1837 2 2.25V6.5C2 6.76522 1.89457 7.0195 1.70703 7.20703C1.51949 7.39457 1.26522 7.5 1 7.5C0.734784 7.5 0.480505 7.39457 0.292969 7.20703C0.105432 7.0195 0 6.76522 0 6.5V2C0 1.46957 0.210865 0.96101 0.585938 0.585938C0.96101 0.210865 1.46957 0 2 0H6.5ZM22 0C22.5304 0 23.039 0.210865 23.4141 0.585938C23.7891 0.96101 24 1.46957 24 2V6.5C24 6.76522 23.8946 7.0195 23.707 7.20703C23.5195 7.39457 23.2652 7.5 23 7.5C22.7348 7.5 22.4805 7.39457 22.293 7.20703C22.1054 7.0195 22 6.76522 22 6.5V2.25C22 2.1837 21.9736 2.12013 21.9268 2.07324C21.8799 2.02636 21.8163 2 21.75 2H17.5C17.2348 2 16.9805 1.89457 16.793 1.70703C16.6054 1.51949 16.5 1.26522 16.5 1C16.5 0.734784 16.6054 0.480505 16.793 0.292969C16.9805 0.105433 17.2348 0 17.5 0H22Z" fill="#404040"/>
</g>
<defs>
<clipPath id="clip0_203_2052">
<rect width="24" height="24" fill="white"/>
</clipPath>
</defs>
</svg>
