<svg width="24" height="24" viewBox="0 0 24 24" fill="none" xmlns="http://www.w3.org/2000/svg">
<path fill-rule="evenodd" clip-rule="evenodd" d="M22.917 11C23.5143 11.0001 23.9989 11.4838 24 12.0811V22.915C24.0005 23.2026 23.8868 23.4791 23.6836 23.6826C23.4805 23.886 23.2045 24 22.917 24H12.083C11.4849 24 11 23.5151 11 22.917V15.5C11 15.2239 11.2239 15 11.5 15H11.917C13.6196 14.9999 15 13.6196 15 11.917V11.5C15 11.2239 15.2239 11 15.5 11H22.917ZM2 14C2.55223 14.0001 3 14.4478 3 15C3.00243 16.4811 3.82291 17.8399 5.13281 18.5312C5.21004 18.5729 5.30379 18.5707 5.37891 18.5254C5.45382 18.4798 5.49974 18.3982 5.5 18.3105V18C5.50004 17.7978 5.62175 17.6154 5.8086 17.5381C5.99558 17.4608 6.21063 17.5042 6.35352 17.6475L8.35352 19.6475C8.54864 19.8427 8.54869 20.1593 8.35352 20.3545L6.35352 22.3545C6.21055 22.4975 5.99544 22.5403 5.8086 22.4629C5.62152 22.3854 5.49964 22.2025 5.5 22V20.9932C5.5 20.8822 5.42678 20.7842 5.32031 20.7529C2.7628 20.007 1.00311 17.6641 1 15C1.0044 14.4428 1.45083 14 2 14ZM17.502 13.6729C16.9813 13.6729 16.5153 13.9961 16.332 14.4834L13.7998 21.2344C13.6875 21.6115 13.8857 22.0115 14.2539 22.1504C14.6222 22.2892 15.0356 22.1193 15.2002 21.7617L15.709 20.4102C15.7459 20.3129 15.8393 20.2483 15.9434 20.248H19.0586C19.1626 20.2483 19.2561 20.3129 19.293 20.4102L19.7998 21.7617C19.9093 22.0536 20.1883 22.2475 20.5 22.248C20.5901 22.2482 20.6794 22.232 20.7637 22.2002C20.9505 22.1306 21.102 21.9891 21.1846 21.8076C21.267 21.6264 21.2741 21.4198 21.2041 21.2334L20.4678 19.2705C20.4571 19.2364 20.4444 19.2025 20.4297 19.1699L18.6719 14.4834C18.4886 13.9961 18.0226 13.6729 17.502 13.6729ZM17.5 16.0967C17.6039 16.0967 17.6967 16.1616 17.7334 16.2588L18.541 18.4102C18.5698 18.4869 18.5594 18.5732 18.5127 18.6406C18.466 18.708 18.3886 18.748 18.3066 18.748H16.6934C16.6114 18.748 16.534 18.7079 16.4873 18.6406C16.4406 18.5732 16.4301 18.4869 16.459 18.4102L17.2656 16.2588C17.3023 16.1614 17.3959 16.0967 17.5 16.0967ZM11.917 0C12.5143 6.33769e-05 12.9989 0.483754 13 1.08105V11.915C13.0005 12.2026 12.8868 12.4791 12.6836 12.6826C12.4805 12.886 12.2045 13 11.917 13H1.08301C0.795558 13 0.519543 12.886 0.316408 12.6826C0.113249 12.4791 -0.000527163 12.2026 1.83645e-06 11.915V1.08105C0.00110695 0.483715 0.485666 0 1.08301 0H11.917ZM6.5 1.74805C6.08579 1.74805 5.75 2.08384 5.75 2.49805V3.49805C5.75 3.63608 5.63802 3.74798 5.5 3.74805H2.53125C2.11704 3.74805 1.78125 4.08384 1.78125 4.49805C1.78125 4.91226 2.11704 5.24805 2.53125 5.24805H3.29981C3.40306 5.24973 3.49504 5.31504 3.53028 5.41211C3.91751 6.46674 4.48836 7.44449 5.2168 8.2998C5.26454 8.35473 5.28536 8.42805 5.27442 8.5C5.26434 8.57121 5.22481 8.6348 5.16504 8.6748C4.44493 9.17317 3.64491 9.54575 2.79981 9.77539C2.43471 9.87214 2.19836 10.2253 2.24903 10.5996C2.29986 10.974 2.62216 11.2522 3 11.248C3.06747 11.248 3.13497 11.2389 3.2002 11.2217C4.34015 10.9112 5.40965 10.3844 6.35059 9.66992C6.43936 9.60292 6.56259 9.60292 6.65137 9.66992C7.59131 10.3864 8.66001 10.916 9.79981 11.2285C9.86505 11.2458 9.93251 11.2539 10 11.2539C10.3385 11.2535 10.6347 11.0268 10.7236 10.7002C10.7777 10.5015 10.7524 10.295 10.6533 10.1211C10.5542 9.94718 10.3897 9.81928 10.1963 9.76758C9.35123 9.53795 8.55114 9.1663 7.83106 8.66797C7.77302 8.62786 7.73486 8.56504 7.72559 8.49512C7.71644 8.42498 7.73728 8.35359 7.78321 8.2998C8.51161 7.4445 9.08251 6.46671 9.46973 5.41211C9.5056 5.31333 9.59999 5.24765 9.70508 5.24805H10.5C10.9142 5.24798 11.25 4.91222 11.25 4.49805C11.25 4.08388 10.9142 3.74811 10.5 3.74805H7.5C7.36193 3.74805 7.25 3.63612 7.25 3.49805V2.49805C7.25 2.08388 6.91416 1.74811 6.5 1.74805ZM17.6455 0.647461C17.7891 0.505767 18.0034 0.462656 18.1904 0.538086C18.3774 0.615376 18.5 0.79766 18.5 1V2.00684C18.5 2.1179 18.5731 2.21592 18.6797 2.24707C21.2372 2.99301 22.9969 5.33593 23 8C23 8.55224 22.5522 8.99994 22 9C21.4477 9 21 8.55228 21 8C20.9976 6.51893 20.177 5.16009 18.8672 4.46875C18.7898 4.42775 18.6962 4.43047 18.6211 4.47559C18.546 4.52083 18.5 4.60273 18.5 4.69043V5C18.4996 5.20211 18.3773 5.38387 18.1904 5.46094C18.0036 5.53796 17.7883 5.49561 17.6455 5.35254L15.6455 3.35449C15.4505 3.15939 15.4507 2.84275 15.6455 2.64746L17.6455 0.647461ZM7.55274 5.24805C7.63877 5.24825 7.71881 5.29243 7.76465 5.36523C7.81049 5.43805 7.81632 5.52975 7.7793 5.60742C7.48781 6.20636 7.12138 6.76649 6.69043 7.27441C6.64315 7.33068 6.57351 7.36325 6.5 7.36328C6.42629 7.36328 6.3559 7.33093 6.3086 7.27441C5.87768 6.76652 5.51219 6.20633 5.22071 5.60742C5.18368 5.52975 5.18951 5.43805 5.23535 5.36523C5.28121 5.2925 5.36128 5.24825 5.44727 5.24805H7.55274Z" fill="#404040"/>
</svg>
