<svg width="24" height="24" viewBox="0 0 24 24" fill="none" xmlns="http://www.w3.org/2000/svg">
<g clip-path="url(#clip0_114_1141)">
<path d="M14.5244 0C15.2521 0 15.9503 0.311932 16.4648 0.865234C16.9794 1.41857 17.2685 2.16885 17.2686 2.95117V3.62012H22.9404C23.5262 3.62022 24.0009 4.13082 24.001 4.76074C24.001 5.39071 23.5262 5.90126 22.9404 5.90137H20.6348V21.0498C20.6347 21.8319 20.3462 22.5825 19.832 23.1357C19.3175 23.689 18.6191 23.9999 17.8916 24H6.11035C5.38272 24 4.68455 23.6892 4.16992 23.1357C3.65558 22.5825 3.36632 21.8322 3.36621 21.0498V5.90137H1.06055C0.474798 5.90121 0 5.39068 0 4.76074C5.00734e-05 4.13085 0.474829 3.62028 1.06055 3.62012H6.73242V2.95117C6.73251 2.16882 7.02171 1.41851 7.53613 0.865234C8.0507 0.311878 8.74885 0 9.47656 0H14.5244ZM5.4873 21.0498C5.48742 21.227 5.55354 21.3971 5.66992 21.5225C5.78655 21.6479 5.94527 21.7188 6.11035 21.7188H17.8916C18.0565 21.7186 18.2145 21.6478 18.3311 21.5225C18.4474 21.3972 18.5126 21.2271 18.5127 21.0498V5.90137H5.4873V21.0498ZM9.47559 9.0498C10.0614 9.0498 10.5361 9.56047 10.5361 10.1904V17.4297C10.5361 18.0597 10.0615 18.5703 9.47559 18.5703C8.88981 18.5702 8.41504 18.0597 8.41504 17.4297V10.1904C8.41512 9.56054 8.88985 9.04992 9.47559 9.0498ZM14.5254 9.0498C15.1111 9.04992 15.5859 9.56054 15.5859 10.1904V17.4297C15.5859 18.0597 15.1112 18.5702 14.5254 18.5703C13.9395 18.5703 13.4648 18.0597 13.4648 17.4297V10.1904C13.4649 9.56047 13.9396 9.0498 14.5254 9.0498ZM9.47656 2.28223C9.31155 2.28223 9.15282 2.35303 9.03613 2.47852C8.91969 2.60387 8.8536 2.77394 8.85352 2.95117V3.62012H15.1475V2.95117C15.1474 2.77385 15.0813 2.60383 14.9648 2.47852C14.8481 2.35302 14.6893 2.28223 14.5244 2.28223H9.47656Z" fill="#404040"/>
</g>
<defs>
<clipPath id="clip0_114_1141">
<rect width="24" height="24" fill="white"/>
</clipPath>
</defs>
</svg>
