<svg width="24" height="24" viewBox="0 0 24 24" fill="none" xmlns="http://www.w3.org/2000/svg">
<path fill-rule="evenodd" clip-rule="evenodd" d="M24 1.94769C23.9934 0.870726 23.1195 0.00108051 22.043 0H1.96002C0.883013 0.0065931 0.0131029 0.881392 0.0120239 1.95893L0 9.30417C0.054027 16.3629 4.97318 22.4492 11.861 23.9793C11.9929 24.0069 12.1291 24.0069 12.261 23.9793C19.1341 22.3867 23.9975 16.2565 23.988 9.19817L24 1.94769ZM18.5 12.4526C18.5 12.8118 18.209 13.1031 17.85 13.1031H15.1C14.8238 13.1031 14.6 13.327 14.6 13.6033V16.3546C14.6 16.7138 14.309 17.0048 13.95 17.0048H10.05C9.691 17.0048 9.40002 16.7138 9.40002 16.3546V13.6033C9.40002 13.327 9.17617 13.1031 8.90002 13.1031H6.15002C5.97763 13.1031 5.81227 13.0345 5.69037 12.9126C5.56847 12.7906 5.5 12.6251 5.5 12.4526V8.55089C5.5 8.19173 5.79104 7.90068 6.15002 7.90068H8.90002C9.17617 7.90068 9.40002 7.67672 9.40002 7.40045V4.65209C9.40002 4.29293 9.691 4.00188 10.05 4.00188H13.95C14.309 4.00188 14.6 4.29293 14.6 4.65209V7.40338C14.6 7.67965 14.8238 7.90361 15.1 7.90361H17.85C18.209 7.90361 18.5 8.19466 18.5 8.55382V12.4526Z" fill="#404040"/>
</svg>
