<svg width="24" height="24" viewBox="0 0 24 24" fill="none" xmlns="http://www.w3.org/2000/svg">
<path d="M23.9893 1.01172L14.6855 10.5723L23.2031 21.5303C23.4194 21.8086 23.4543 22.1812 23.2939 22.4932C23.1438 22.785 22.8468 22.9766 22.5146 23H17.1807C16.9088 22.9809 16.6567 22.8494 16.4912 22.6367L10.4971 14.9258L2.67676 23H0L9.33789 13.4346L0.820312 2.47656C0.603891 2.19816 0.569003 1.82465 0.729492 1.5127C0.890023 1.20089 1.21859 1.00391 1.57812 1.00391H6.77441C7.07223 1.00391 7.35301 1.13956 7.53223 1.37012L13.5264 9.08105L21.3926 1H24L23.9893 1.01172ZM17.7217 21.1641H20.543L12.7275 11.1094C12.7007 11.0791 12.6765 11.0473 12.6543 11.0146L6.30176 2.84277H3.48047L17.7217 21.1641Z" fill="#404040"/>
</svg>
