<svg width="24" height="24" viewBox="0 0 24 24" fill="none" xmlns="http://www.w3.org/2000/svg">
<g clip-path="url(#clip0_610_727)">
<path d="M21.4072 0C22.839 0.000257518 23.9997 1.16098 24 2.59277V21.4072C23.9997 22.839 22.839 23.9997 21.4072 24H2.59277C1.16098 23.9997 0.000257518 22.839 0 21.4072V2.59277C0.000258578 1.16098 1.16098 0.000258578 2.59277 0H21.4072ZM3.82129 3.63477L10.207 12.9297L3.82129 20.3525H5.26465L10.8477 13.8613L15.3076 20.3525H20.1787L13.5557 10.7139L19.6455 3.63477H18.2031L12.915 9.78125L8.69238 3.63477H3.82129ZM12.1553 10.665L12.8027 11.5898L18.2031 19.3154H15.9873L11.5791 13.0117L10.9326 12.0859L5.78418 4.72168H8.00098L12.1553 10.665Z" fill="#404040"/>
</g>
<defs>
<clipPath id="clip0_610_727">
<rect width="24" height="24" fill="white"/>
</clipPath>
</defs>
</svg>
