<svg width="24" height="24" viewBox="0 0 24 24" fill="none" xmlns="http://www.w3.org/2000/svg">
<path fill-rule="evenodd" clip-rule="evenodd" d="M12.2147 0.305199C12.4678 0.0453752 12.8426 -0.0588737 13.1951 0.0325893C13.5475 0.124063 13.8228 0.397014 13.915 0.746458C14.0073 1.09591 13.9022 1.46751 13.6401 1.71845L11.746 3.59647C11.6765 3.66603 11.6559 3.77015 11.6938 3.86056C11.7317 3.95097 11.8206 4.01002 11.9194 4.01028C17.4868 4.01028 22 8.48509 22 14.0051C22 19.5251 17.4868 24 11.9194 24C11.3626 24 10.9113 23.5524 10.9113 23.0004C10.9113 22.4484 11.3626 22.001 11.9194 22.001C16.3733 22.001 19.9839 18.4211 19.9839 14.0051C19.9839 9.58908 16.3733 6.00929 11.9194 6.00929C11.8206 6.00955 11.7317 6.06859 11.6938 6.159C11.6559 6.24941 11.6765 6.35354 11.746 6.42309L13.6401 8.30302C13.9022 8.55396 14.0073 8.92556 13.915 9.27501C13.8228 9.62445 13.5475 9.89741 13.1951 9.98888C12.8426 10.0803 12.4678 9.97622 12.2147 9.7164L8.18251 5.71838C7.99291 5.53087 7.88634 5.27625 7.88634 5.01073C7.88634 4.74522 7.99291 4.4906 8.18251 4.30309L12.2147 0.305199ZM5.64724 20.5888C5.98295 20.1472 6.61614 20.0589 7.06153 20.3918C7.59802 20.7925 8.18285 21.1252 8.80246 21.3823C9.31201 21.5997 9.55392 22.1854 9.33874 22.6947C9.12356 23.2039 8.53279 23.4437 8.0192 23.2303C7.24572 22.9082 6.51565 22.4918 5.84582 21.991C5.40043 21.6581 5.31152 21.0304 5.64724 20.5888ZM4.00004 15.5274C3.93538 15.1729 3.68333 14.8802 3.34029 14.7615C2.99725 14.6428 2.6163 14.7163 2.3432 14.9539C2.07009 15.1915 1.9471 15.5565 2.02124 15.9091C2.19258 16.7778 2.47865 17.6203 2.87204 18.4149C3.03104 18.7362 3.35088 18.949 3.71109 18.9732C4.07129 18.9973 4.41715 18.8291 4.61835 18.5319C4.81956 18.2347 4.84555 17.8536 4.68655 17.5322C4.36865 16.8972 4.13776 16.223 4.00004 15.5274ZM4.37808 8.89869C4.14187 8.7745 3.86558 8.74846 3.60998 8.82625C3.35439 8.90405 3.14044 9.07932 3.01519 9.31352C2.58242 10.1237 2.2639 10.9891 2.0686 11.8852C1.97956 12.4119 2.32386 12.915 2.85038 13.0275C3.3769 13.14 3.89962 12.8223 4.03734 12.306C4.19348 11.5878 4.44856 10.8943 4.79541 10.2451C5.053 9.75887 4.86664 9.15755 4.37808 8.89869Z" fill="#D52B1E"/>
</svg>
