<svg width="24" height="24" viewBox="0 0 24 24" fill="none" xmlns="http://www.w3.org/2000/svg">
<path d="M22.7705 17C23.096 16.9987 23.409 17.1244 23.6396 17.3496C23.8702 17.5748 23.9999 17.8811 24 18.2002V20.0381C24 22.2262 22.1911 24 19.96 24H4.03516C1.80598 23.9973 4.25333e-05 22.2243 0 20.0381V18.2002C0.000228766 17.5375 0.547941 17.0002 1.22363 17C1.89954 17 2.44801 17.5374 2.44824 18.2002V20.0381C2.4494 20.8968 3.15951 21.5922 4.03516 21.5928H19.96C20.8356 21.5922 21.5457 20.8968 21.5469 20.0381V18.2002C21.5471 17.5375 22.0948 17.0002 22.7705 17ZM12.001 0C12.8611 0.000222029 13.5586 0.671687 13.5586 1.5V10.9717C13.5584 11.0379 13.5852 11.1016 13.6338 11.1484C13.6825 11.1954 13.7494 11.2219 13.8184 11.2217H16.9609C17.3809 11.2217 17.7591 11.4653 17.9199 11.8389C18.0811 12.2122 17.9937 12.6423 17.6973 12.9287L12.7344 17.707C12.5396 17.8946 12.2755 18 12 18C11.7246 18 11.4604 17.8946 11.2656 17.707L6.30371 12.9287C6.00688 12.6427 5.91841 12.2124 6.0791 11.8389C6.23978 11.4653 6.61822 11.2219 7.03809 11.2217H10.1826C10.326 11.2217 10.4423 11.1097 10.4424 10.9717V1.5C10.4424 0.67155 11.1406 0 12.001 0Z" fill="#404040"/>
</svg>
