<svg width="24" height="24" viewBox="0 0 24 24" fill="none" xmlns="http://www.w3.org/2000/svg">
<g clip-path="url(#clip0_613_621)">
<path d="M12 0C15.1826 0 18.2349 1.26422 20.4854 3.51465C22.7358 5.76509 24 8.8174 24 12C24 18.6274 18.6274 24 12 24C5.37258 24 0 18.6274 0 12C0 5.37258 5.37258 0 12 0ZM12.0234 14C10.5745 14 9.15529 14.3688 7.93066 15.0635C6.70593 15.7583 5.72554 16.7513 5.10449 17.9258C5.03601 18.0362 5 18.1607 5 18.2871C5.00004 18.4136 5.03594 18.538 5.10449 18.6484C5.17809 18.7567 5.28167 18.8466 5.40527 18.9082C5.52879 18.9698 5.66828 19.0011 5.80957 19H18.125C18.2663 19.0012 18.4057 18.9697 18.5293 18.9082C18.6529 18.8466 18.7565 18.7567 18.8301 18.6484C18.9165 18.5467 18.9726 18.4265 18.9922 18.2998C19.0117 18.1734 18.9945 18.0446 18.9424 17.9258C18.3214 16.7514 17.3418 15.7583 16.1172 15.0635C14.8925 14.3686 13.4726 14 12.0234 14ZM12 5C9.79086 5 8 6.79086 8 9C8 11.2091 9.79086 13 12 13C14.2091 13 16 11.2091 16 9C16 6.79086 14.2091 5 12 5Z" fill="#404040"/>
</g>
<defs>
<clipPath id="clip0_613_621">
<rect width="24" height="24" fill="white"/>
</clipPath>
</defs>
</svg>
