<svg width="24" height="24" viewBox="0 0 24 24" fill="none" xmlns="http://www.w3.org/2000/svg">
<path fill-rule="evenodd" clip-rule="evenodd" d="M23.7585 19.3199L13.8739 2.98095C13.5088 2.37787 12.7872 2 12.0005 2C11.2139 2 10.4923 2.37787 10.1271 2.98095L0.241464 19.3199C-0.101983 19.8874 -0.0776715 20.569 0.305566 21.1172C0.688803 21.6653 1.3752 22.0001 2.11538 22H21.8846C22.6248 22.0001 23.3112 21.6653 23.6944 21.1172C24.0777 20.569 24.102 19.8874 23.7585 19.3199ZM10.9425 8.72291C10.9425 8.21738 11.4159 7.80757 12 7.80757C12.5841 7.80757 13.0575 8.21738 13.0575 8.72291V14.215C13.0575 14.7205 12.5841 15.1303 12 15.1303C11.4159 15.1303 10.9425 14.7205 10.9425 14.215V8.72291ZM12.0529 19.2585H12.0233C11.1567 19.2561 10.4466 18.6625 10.4137 17.913C10.3983 17.5506 10.5519 17.198 10.8399 16.9346C11.1279 16.6713 11.5261 16.5191 11.945 16.5125H11.9746C12.841 16.5134 13.5522 17.106 13.5863 17.8553C13.6028 18.2186 13.4495 18.5722 13.1609 18.8363C12.8723 19.1005 12.4728 19.2527 12.0529 19.2585Z" fill="#404040"/>
</svg>
