<svg width="24" height="24" viewBox="0 0 24 24" fill="none" xmlns="http://www.w3.org/2000/svg">
<path d="M13.5 1C19.2886 1.00013 24 5.27657 24 10.5332C24 15.7895 19.2885 20.0663 13.5 20.0664C4.4167 20.0664 0.000412841 18.3873 0 14.9336C0 14.5288 0.335614 14.2003 0.75 14.2002C1.49337 14.2002 2.03679 13.9916 2.41016 13.5664C3.28626 12.5646 3.01166 10.6646 3.00879 10.6455C2.99957 5.27625 7.71026 1 13.5 1Z" fill="#404040"/>
<path d="M19.0001 19.6331C19.0001 21.0138 17.8808 22.1331 16.5001 22.1331C15.1195 22.1331 14.0001 21.0138 14.0001 19.6331C14.0001 18.2526 15.1195 17.1331 16.5001 17.1331C17.8808 17.1331 19.0001 18.2526 19.0001 19.6331Z" fill="white"/>
<path d="M18.0001 19.6331C18 18.8047 17.3284 18.1331 16.5001 18.1331C15.6718 18.1331 15.0001 18.8048 15.0001 19.6331C15.0001 20.4614 15.6717 21.133 16.5001 21.1331V22.1331C15.1195 22.133 14.0001 21.0137 14.0001 19.6331C14.0001 18.2525 15.1195 17.1331 16.5001 17.1331C17.8807 17.1331 19 18.2525 19.0001 19.6331C19.0001 21.0137 17.8808 22.1331 16.5001 22.1331V21.1331C17.3285 21.1331 18.0001 20.4614 18.0001 19.6331Z" fill="#404040"/>
<path d="M10.0001 19.6331C10.0001 21.0138 8.88104 22.1331 7.50023 22.1331C6.1195 22.1331 5.00006 21.0138 5.00006 19.6331C5.00006 18.2526 6.1195 17.1331 7.50023 17.1331C8.88104 17.1331 10.0001 18.2526 10.0001 19.6331Z" fill="white"/>
<path d="M9.00006 19.6331C9.00003 18.8046 8.32838 18.1331 7.50006 18.1331C6.67171 18.1331 6.00009 18.8049 6.00006 19.6331C6.00006 20.4613 6.67159 21.133 7.50006 21.1331V22.1331C6.11941 22.133 5.00006 21.0137 5.00006 19.6331C5.00009 18.2526 6.11943 17.1331 7.50006 17.1331C8.88085 17.1331 10 18.2525 10.0001 19.6331C10.0001 21.0137 8.88087 22.1331 7.50006 22.1331V21.1331C8.32849 21.1331 9.00006 20.4615 9.00006 19.6331Z" fill="#404040"/>
<path d="M17.4154 11.2842C17.8201 11.3735 18.0737 11.7652 17.9838 12.1611C17.5086 14.2247 15.665 15.6669 13.5004 15.667C11.3372 15.667 9.49366 14.226 9.01794 12.1611C8.92799 11.7651 9.18179 11.3734 9.58533 11.2842C9.99043 11.1992 10.3902 11.4427 10.4818 11.8389C10.8015 13.2291 12.0441 14.2002 13.5004 14.2002C14.958 14.2001 16.198 13.2289 16.5179 11.8389C16.6108 11.4443 17.0077 11.1959 17.4154 11.2842ZM10.5297 7.59961C10.9435 7.59961 11.2795 7.92816 11.2797 8.33301C11.2796 8.73771 10.9436 9.06641 10.5297 9.06641C10.1157 9.0664 9.77185 8.73776 9.77185 8.33301C9.77196 7.92816 10.101 7.59961 10.515 7.59961H10.5297ZM16.5306 7.59961C16.9438 7.59984 17.2795 7.9283 17.2797 8.33301C17.2796 8.73755 16.9439 9.06615 16.5306 9.06641C16.1176 9.06641 15.7728 8.73776 15.7728 8.33301C15.7729 7.92816 16.101 7.59961 16.515 7.59961H16.5306Z" fill="white"/>
</svg>
