<svg width="24" height="24" viewBox="0 0 24 24" fill="none" xmlns="http://www.w3.org/2000/svg">
<g clip-path="url(#clip0_688_394)">
<path d="M13.7314 1C18.6553 1 23.301 4.57793 23.8584 9.50977C24.5553 13.681 22.6379 17.597 19.1025 19.7432C19.1661 19.9703 19.2002 20.2123 19.2002 20.4619C19.2 21.8637 18.1252 23 16.7998 23C15.7515 22.9999 14.86 22.2888 14.5332 21.2979C14.4381 21.3047 14.3818 21.3076 14.3818 21.3076L10.2637 21.3086C9.93399 22.2941 9.04469 23 8 23C6.67465 23 5.59981 21.8637 5.59961 20.4619L5.60254 20.5537L5.0918 20.3408C3.32665 19.6639 1.56138 18.6 0.260742 16.7627C-0.389581 15.8924 0.261268 14.6348 1.2832 14.6348C3.60522 14.6344 2.86254 11.9273 3.41992 9.02637C4.34899 4.19139 9.08643 1.00015 13.7314 1ZM13.7314 2.93457C10.1083 2.93472 6.02073 5.35175 5.18457 9.41309C5.09167 10.09 5.09193 10.7674 4.99902 11.4443C4.90611 12.9916 4.71971 15.6991 2.49023 16.376C3.41924 17.343 4.53437 18.0194 5.83496 18.5029L6.30371 18.666C6.73794 18.2073 7.33776 17.9229 8 17.9229C8.9572 17.9229 9.78366 18.5157 10.1689 19.373L14.4746 19.374L14.6318 19.3711C15.0175 18.5148 15.8434 17.9229 16.7998 17.9229C17.2884 17.9229 17.7429 18.0776 18.1221 18.3428C21.1797 16.6466 22.8192 13.3651 22.2793 9.99316C21.6289 5.93168 17.9121 2.93457 13.7314 2.93457ZM10.7773 11.1816C11.0432 11.0766 11.2209 11.2863 11.3096 11.6016C11.6641 13.4929 13.1704 14.3338 14.4111 14.334C15.652 14.334 17.1591 13.4931 17.5137 11.6016C17.6023 11.2863 17.78 11.1816 18.0459 11.1816C18.3114 11.2868 18.4004 11.4965 18.4004 11.8115C17.9572 14.2285 16.0065 15.3848 14.4111 15.3848C12.8158 15.3846 10.866 14.2283 10.4229 11.8115C10.3344 11.4965 10.5117 11.2868 10.7773 11.1816ZM11.2002 7.76953C11.6419 7.76962 12 8.14801 12 8.61523C12 9.0825 11.6419 9.46182 11.2002 9.46191C10.7584 9.46191 10.4004 9.08255 10.4004 8.61523C10.4004 8.14795 10.7584 7.76953 11.2002 7.76953ZM17.5996 7.76953C18.0414 7.76953 18.4003 8.14795 18.4004 8.61523C18.4004 9.08255 18.0414 9.46191 17.5996 9.46191C17.158 9.46167 16.7998 9.08241 16.7998 8.61523C16.7998 8.1481 17.158 7.76977 17.5996 7.76953Z" fill="#404040"/>
</g>
<defs>
<clipPath id="clip0_688_394">
<rect width="24" height="24" fill="white"/>
</clipPath>
</defs>
</svg>
