<svg width="24" height="23" viewBox="0 0 24 23" fill="none" xmlns="http://www.w3.org/2000/svg">
<path fill-rule="evenodd" clip-rule="evenodd" d="M16.6434 10.5417C20.1523 10.5459 22.9958 13.3323 23.0001 16.7708C23.0001 20.2111 20.1541 23 16.6434 23C13.1327 23 10.2867 20.2111 10.2867 16.7708C10.2867 13.3306 13.1327 10.5417 16.6434 10.5417ZM11.2637 0C16.2414 0 21.5322 1.679 21.5322 4.79167V9.10791C21.5317 9.42884 21.3615 9.72677 21.0824 9.89474C20.8033 10.0627 20.4554 10.0768 20.163 9.93218L20.0838 9.89381C19.7169 9.70781 19.511 9.31399 19.5714 8.91348C19.5903 8.64428 19.5939 8.37425 19.5821 8.10465C19.5809 8.02008 19.5342 7.94249 19.4593 7.9004C19.3845 7.85831 19.2925 7.85784 19.2173 7.89946C16.7429 9.07545 14.0168 9.65293 11.2676 9.58333C8.51891 9.65419 5.79302 9.07784 3.31879 7.90251C3.24304 7.86056 3.15025 7.86112 3.07513 7.90414C3.00002 7.94716 2.95389 8.02618 2.95401 8.11144V8.86458C2.95401 9.85646 5.27861 11.2258 9.07013 11.6226C9.39921 11.6543 9.68921 11.8479 9.83978 12.1364C9.99034 12.4249 9.98077 12.7686 9.81435 13.0486L9.80261 13.0678C9.61661 13.3878 9.25369 13.5681 8.8804 13.5259C6.94171 13.3648 5.05313 12.8375 3.31879 11.9733C3.24327 11.9308 3.15034 11.9311 3.07507 11.974C2.99979 12.0169 2.95363 12.096 2.95401 12.1813V12.9375C2.95401 13.8383 4.86003 15.0458 8.03153 15.5643C8.49876 15.6394 8.83728 16.0415 8.82368 16.5053V16.5245C8.81495 16.799 8.68646 17.0568 8.4708 17.2322C8.25514 17.4076 7.97305 17.4838 7.69611 17.4416C6.1677 17.221 4.68799 16.7504 3.31879 16.0493C3.24327 16.0068 3.15034 16.0071 3.07507 16.05C2.99979 16.0929 2.95363 16.1719 2.95401 16.2573V17.0132C2.95401 17.9936 5.21894 19.3441 8.92733 19.7609C9.25634 19.7996 9.54396 19.9965 9.69406 20.286L9.70579 20.307C9.86094 20.6185 9.82901 20.9883 9.62264 21.2698C9.41628 21.5513 9.06883 21.6991 8.71806 21.6544C4.63805 21.1858 1.00006 19.594 1.00006 17.0132V4.78488C1.01082 1.67796 6.28589 0 11.2637 0ZM16.6444 11.9792C16.2393 11.9792 15.9109 12.301 15.9109 12.6979V12.992C15.9113 13.106 15.8294 13.2045 15.7153 13.2269C14.8305 13.4012 14.1679 14.1246 14.0864 15.0053C14.0049 15.8861 14.5239 16.7146 15.3623 17.042L17.3817 17.8335C17.6387 17.9351 17.7862 18.201 17.7335 18.4676C17.6808 18.7342 17.4427 18.9269 17.1656 18.9271H15.1774C14.7723 18.9271 14.444 19.2489 14.444 19.6458C14.444 20.0428 14.7723 20.3646 15.1774 20.3646H15.6664C15.8014 20.3646 15.9109 20.4718 15.9109 20.6042V20.8466C15.9109 21.2435 16.2393 21.5653 16.6444 21.5653C17.0494 21.5653 17.3778 21.2435 17.3778 20.8466V20.5515C17.3774 20.4375 17.4594 20.3391 17.5734 20.3166C18.4586 20.1434 19.1223 19.4205 19.2048 18.5396C19.2872 17.6587 18.7687 16.8296 17.9304 16.5015L15.9109 15.71C15.6497 15.6122 15.4975 15.345 15.5494 15.0757C15.6013 14.8065 15.8425 14.6123 16.1221 14.6146H18.1113C18.5164 14.6146 18.8448 14.2928 18.8448 13.8958C18.8448 13.4989 18.5164 13.1771 18.1113 13.1771H17.6223C17.4873 13.1771 17.3778 13.0698 17.3778 12.9375V12.6979C17.3778 12.301 17.0494 11.9792 16.6444 11.9792ZM11.2676 1.91667C6.19299 1.91667 2.95499 3.61962 2.95499 4.79167C2.95499 5.96371 6.20081 7.66667 11.2676 7.66667C16.3343 7.66667 19.5684 5.97236 19.5802 4.80032C19.5753 3.61582 16.3383 1.91667 11.2676 1.91667Z" fill="#D52B1E"/>
</svg>
