<svg width="24" height="24" viewBox="0 0 24 24" fill="none" xmlns="http://www.w3.org/2000/svg">
<g clip-path="url(#clip0_597_1515)">
<path d="M17 12C20.312 12.0041 22.9959 14.6881 23 18C23 21.3137 20.3137 24 17 24C13.6863 24 11 21.3137 11 18C11.0001 14.6864 13.6863 12 17 12ZM1.1582 17.4346C1.24215 17.3805 1.34776 17.3804 1.43164 17.4346C3.30249 18.8114 5.47629 19.6533 7.74316 19.8789C7.85498 19.8894 7.94335 19.9839 7.95312 20.1025C8.12588 21.284 8.5082 22.4204 9.0791 23.4512C9.21243 23.5282 9.26174 23.705 9.18945 23.8467C9.11693 23.9883 8.94994 24.0415 8.81641 23.9648C4.34569 23.5184 1.00009 21.7432 1 19.6113V17.6914C1.00225 17.5809 1.06383 17.4813 1.1582 17.4346ZM17.0039 13.3799C16.6216 13.3799 16.3116 13.69 16.3115 14.0723V14.3955C16.3167 14.487 16.2509 14.5672 16.1602 14.5801C15.3154 14.738 14.6727 15.4314 14.5869 16.2852C14.5013 17.1388 14.9932 17.9451 15.791 18.2607L17.6953 19.0273C17.9376 19.1252 18.0768 19.3811 18.0273 19.6377C17.9779 19.8943 17.7535 20.0803 17.4922 20.0811H15.6152C15.233 20.0811 14.9229 20.3911 14.9229 20.7734C14.9231 21.1555 15.2331 21.4648 15.6152 21.4648H16.1562C16.2392 21.4678 16.3055 21.5352 16.3076 21.6182V21.9268C16.3076 22.3091 16.6176 22.6191 17 22.6191C17.3823 22.6191 17.6924 22.3091 17.6924 21.9268V21.5996C17.6826 21.5154 17.7363 21.4373 17.8184 21.416C18.6718 21.2769 19.3268 20.5835 19.418 19.7236C19.5092 18.8638 19.0142 18.0494 18.209 17.7344L16.3047 16.9717C16.0624 16.8738 15.9232 16.6179 15.9727 16.3613C16.0221 16.1048 16.2465 15.9197 16.5078 15.9189H18.3848C18.7669 15.9189 19.077 15.6087 19.0771 15.2266C19.0771 14.8443 18.767 14.5343 18.3848 14.5342H17.8516C17.7675 14.533 17.6993 14.4659 17.6963 14.3818V14.0723C17.6962 13.69 17.3861 13.38 17.0039 13.3799ZM1.17871 12.3779C1.26263 12.324 1.36831 12.3238 1.45215 12.3779C3.47233 13.8374 5.8201 14.7041 8.25781 14.8896C8.33743 14.8975 8.40869 14.9451 8.4502 15.0176C8.49161 15.0901 8.49893 15.1793 8.46875 15.2578C8.06673 16.3461 7.85959 17.5049 7.8584 18.6738V18.7402C3.88204 18.1487 1.00977 16.4743 1.00977 14.5098L1.02051 12.6348C1.02286 12.5244 1.08443 12.4246 1.17871 12.3779ZM1.16797 7.34473C1.25195 7.29052 1.35744 7.29049 1.44141 7.34473C3.56637 9.18638 7.77422 10.2248 12.0977 10.0127C12.2131 10.0155 12.3133 10.0979 12.3447 10.2158C12.3759 10.3336 12.3312 10.4589 12.2344 10.5254C10.9895 11.3125 9.94261 12.408 9.18359 13.7178C9.13113 13.8105 9.03301 13.8625 8.93164 13.8516C4.40827 13.4274 1.00977 11.6304 1.00977 9.4873V7.60156C1.0094 7.49025 1.07182 7.38925 1.16797 7.34473ZM20.5342 7.2666C20.6181 7.21237 20.7236 7.21242 20.8076 7.2666C20.8997 7.31442 20.9573 7.41473 20.9551 7.52344C21.0146 8.30335 21.0146 9.08728 20.9551 9.86719C20.9489 9.9547 20.9024 10.0336 20.8311 10.0781C20.7598 10.1224 20.6727 10.1266 20.5977 10.0898C19.8322 9.71352 19.0214 9.45066 18.1885 9.30859C18.0433 9.32393 17.9139 9.21169 17.8994 9.05762C17.885 8.90367 17.9907 8.76655 18.1357 8.75098C19.002 8.3893 19.8111 7.88859 20.5342 7.2666ZM11.0039 0C16.523 9.8594e-05 20.9971 1.9991 20.9971 4.46484C20.9969 6.93054 16.5229 8.92959 11.0039 8.92969C5.48473 8.92969 1.00989 6.9306 1.00977 4.46484C1.00977 1.99904 5.48465 0 11.0039 0Z" fill="#404040"/>
</g>
<defs>
<clipPath id="clip0_597_1515">
<rect width="24" height="24" fill="white"/>
</clipPath>
</defs>
</svg>
