<svg width="24" height="24" viewBox="0 0 24 24" fill="none" xmlns="http://www.w3.org/2000/svg">
<path d="M10.998 0C15.8466 0.000109125 20.9998 1.86023 21 5.30859V10.0908C20.9995 10.4464 20.8333 10.7768 20.5615 10.9629C20.2898 11.1487 19.9506 11.1641 19.666 11.0039L19.5889 10.9619C19.2315 10.7558 19.031 10.3187 19.0898 9.875C19.1083 9.57694 19.112 9.27799 19.1006 8.97949C19.0994 8.88579 19.0534 8.79956 18.9805 8.75293C18.9076 8.7065 18.8182 8.70591 18.7451 8.75195C16.3348 10.0548 13.6789 10.6943 11.001 10.6172C8.32369 10.6956 5.66877 10.057 3.25879 8.75488C3.18511 8.70852 3.09458 8.70936 3.02148 8.75684C2.94843 8.80442 2.90335 8.89204 2.90332 8.98633V9.82129C2.90344 10.9202 5.16816 12.4374 8.86133 12.877C9.18171 12.9122 9.46375 13.1268 9.61035 13.4463C9.75698 13.7659 9.74803 14.1468 9.58594 14.457L9.57422 14.4785C9.39297 14.8327 9.03924 15.032 8.67578 14.9854C6.78753 14.8068 4.94802 14.2229 3.25879 13.2656C3.18523 13.2185 3.09481 13.2191 3.02148 13.2666C2.94817 13.3141 2.90295 13.4015 2.90332 13.4961V14.334C2.90374 15.332 4.76065 16.6698 7.84961 17.2441C8.30443 17.3276 8.63419 17.7726 8.62109 18.2861V18.3076C8.61259 18.6117 8.48733 18.8975 8.27734 19.0918C8.06728 19.2861 7.79222 19.3709 7.52246 19.3242C6.03371 19.0798 4.59247 18.558 3.25879 17.7812C3.18525 17.7342 3.09479 17.7347 3.02148 17.7822C2.94816 17.8298 2.90295 17.9172 2.90332 18.0117V18.8496C2.90387 19.9357 5.10992 21.4317 8.72168 21.8936C9.04216 21.9364 9.32254 22.1549 9.46875 22.4756L9.48047 22.498C9.6316 22.8432 9.60043 23.2535 9.39941 23.5654C9.19839 23.8773 8.85923 24.0407 8.51758 23.9912C4.54365 23.472 1.00033 21.7086 1 18.8496V5.30078C1.01094 1.85888 6.14949 0 10.998 0ZM17 12C20.312 12.0041 22.9959 14.6881 23 18C23 21.3137 20.3137 24 17 24C13.6863 24 11 21.3137 11 18C11.0001 14.6864 13.6863 12 17 12ZM17.0039 13.3799C16.6216 13.3799 16.3116 13.69 16.3115 14.0723V14.3955C16.3167 14.487 16.2509 14.5672 16.1602 14.5801C15.3154 14.738 14.6727 15.4314 14.5869 16.2852C14.5013 17.1388 14.9932 17.9451 15.791 18.2607L17.6953 19.0273C17.9376 19.1252 18.0768 19.3811 18.0273 19.6377C17.9779 19.8943 17.7535 20.0803 17.4922 20.0811H15.6152C15.233 20.0811 14.9229 20.3911 14.9229 20.7734C14.9231 21.1555 15.2331 21.4648 15.6152 21.4648H16.1562C16.2392 21.4678 16.3055 21.5352 16.3076 21.6182V21.9268C16.3076 22.3091 16.6176 22.6191 17 22.6191C17.3823 22.6191 17.6924 22.3091 17.6924 21.9268V21.5996C17.6826 21.5154 17.7363 21.4373 17.8184 21.416C18.6718 21.2769 19.3268 20.5835 19.418 19.7236C19.5092 18.8638 19.0142 18.0494 18.209 17.7344L16.3047 16.9717C16.0624 16.8738 15.9232 16.6179 15.9727 16.3613C16.0221 16.1048 16.2465 15.9197 16.5078 15.9189H18.3848C18.7669 15.9189 19.077 15.6087 19.0771 15.2266C19.0771 14.8443 18.767 14.5343 18.3848 14.5342H17.8516C17.7675 14.533 17.6993 14.4659 17.6963 14.3818V14.0723C17.6962 13.69 17.3861 13.38 17.0039 13.3799ZM11.001 2.12305C6.05836 2.12316 2.90456 4.01012 2.9043 5.30859C2.9043 6.60708 6.06577 8.49403 11.001 8.49414C15.9364 8.49414 19.0872 6.61688 19.0986 5.31836C19.0939 4.00603 15.9402 2.12305 11.001 2.12305Z" fill="#404040"/>
</svg>
