<svg width="24" height="24" viewBox="0 0 24 24" fill="none" xmlns="http://www.w3.org/2000/svg">
<g clip-path="url(#clip0_114_1196)">
<path d="M12 0C18.6273 0 24 5.37273 24 12C24 18.6273 18.6273 24 12 24C9.88802 24 7.90149 23.4541 6.17677 22.4941L0.436536 23.5635L1.50587 17.8232C0.515675 16.0423 -0.00297007 14.0377 1.2794e-05 12C1.2794e-05 5.37273 5.37275 3.60813e-06 12 0ZM8.88575 5.40723C8.37199 5.38214 7.4195 5.44582 6.70607 6.16016C5.54218 7.32296 5.52949 9.14922 5.98536 10.8105C6.45009 12.5025 7.44855 14.2267 8.61036 15.3896C9.77436 16.5526 11.4986 17.5499 13.1895 18.0146C14.8508 18.4705 16.6769 18.4577 17.8408 17.2949C18.5541 16.5804 18.6178 15.628 18.5938 15.1143C18.5719 14.641 18.2958 14.269 17.9785 14.041L16.5215 13.0039C16.2064 12.7793 15.8222 12.6731 15.4365 12.7051C15.0509 12.737 14.6888 12.9043 14.4151 13.1777L13.6787 13.9131C13.0863 13.6698 12.1322 13.1799 11.4756 12.5244C10.819 11.8689 10.3312 10.9138 10.0879 10.3203L10.8233 9.58594C11.0969 9.31219 11.2648 8.95015 11.2969 8.56445C11.3288 8.17856 11.222 7.79367 10.9971 7.47852L9.959 6.02246C9.73211 5.70409 9.36004 5.42913 8.88575 5.40723Z" fill="#404040"/>
</g>
<defs>
<clipPath id="clip0_114_1196">
<rect width="24" height="24" fill="white"/>
</clipPath>
</defs>
</svg>
