<svg width="24" height="24" viewBox="0 0 24 24" fill="none" xmlns="http://www.w3.org/2000/svg">
<g clip-path="url(#clip0_686_410)">
<path d="M21.9863 15.5C23.0985 15.5 24 16.3955 24 17.5V22C24 23.1045 23.0985 24 21.9863 24H13.9316C12.8195 24 11.917 23.1046 11.917 22V17.5C11.917 16.3954 12.8195 15.5 13.9316 15.5H21.9863ZM14.1826 17.5C14.0437 17.5002 13.9316 17.612 13.9316 17.75V21.75C13.9316 21.888 14.0437 21.9998 14.1826 22H21.7344C21.8734 22 21.9863 21.8881 21.9863 21.75V17.75C21.9863 17.6119 21.8734 17.5 21.7344 17.5H14.1826ZM17.959 18.5C18.654 18.5001 19.2178 19.0597 19.2178 19.75C19.2178 20.4403 18.654 20.9999 17.959 21C17.2639 21 16.7002 20.4404 16.7002 19.75C16.7002 19.0596 17.2639 18.5 17.959 18.5ZM9.0498 6.29199C9.12295 6.29215 9.19254 6.32383 9.24023 6.37891C10.3891 7.69992 12.4209 10.3871 12.4209 12.832C12.4209 16.2384 9.64065 18.9997 6.21094 19C2.78101 19 0 16.2385 0 12.832C0 10.3871 2.03181 7.69992 3.18066 6.37891C3.22836 6.32383 3.29795 6.29215 3.37109 6.29199H9.0498ZM6.31738 7.75C5.90032 7.75 5.56152 8.08579 5.56152 8.5V8.6582C5.56168 8.77227 5.48439 8.87235 5.37305 8.90039C4.56831 9.10538 3.98721 9.80063 3.93359 10.624C3.87998 11.4474 4.36536 12.2123 5.13672 12.5186L6.93652 13.2334C7.12637 13.3037 7.238 13.4995 7.2002 13.6973C7.16235 13.8951 6.98593 14.0371 6.7832 14.0332H5.00781C4.59094 14.0334 4.25293 14.3691 4.25293 14.7832C4.25306 15.1972 4.59102 15.533 5.00781 15.5332H5.31055C5.44944 15.5333 5.56152 15.6452 5.56152 15.7832V15.8672C5.56166 16.2813 5.9004 16.6172 6.31738 16.6172C6.73426 16.6171 7.07213 16.2812 7.07227 15.8672V15.708C7.07188 15.5941 7.14962 15.4942 7.26074 15.4658C8.06785 15.2668 8.65093 14.5703 8.70508 13.7451C8.75913 12.92 8.27183 12.1549 7.49805 11.8496L5.69727 11.1328C5.50687 11.0625 5.39531 10.8661 5.43359 10.668C5.47198 10.4699 5.64861 10.3283 5.85156 10.333H7.62598C8.04304 10.333 8.38086 9.99722 8.38086 9.58301C8.38086 9.1688 8.04304 8.83301 7.62598 8.83301H7.32422C7.25738 8.83328 7.19277 8.80671 7.14551 8.75977C7.0984 8.71285 7.072 8.64928 7.07227 8.58301V8.5C7.07227 8.08587 6.73434 7.75012 6.31738 7.75ZM23.4961 0C23.7741 0 24 0.22386 24 0.5V4.5C24.0001 4.70209 23.8773 4.88431 23.6895 4.96191C23.6283 4.98716 23.5623 5.00027 23.4961 5C23.3623 5.00038 23.2334 4.94834 23.1387 4.85449L22.1924 3.91406C22.1453 3.86719 22.0813 3.84082 22.0146 3.84082C21.948 3.8409 21.8839 3.86717 21.8369 3.91406L15.8262 9.88379C15.3346 10.3726 14.5371 10.373 14.0449 9.88477C13.553 9.39658 13.5525 8.60495 14.0439 8.11621L20.0547 2.14746C20.102 2.10056 20.1289 2.03614 20.1289 1.96973C20.1288 1.9034 20.102 1.83981 20.0547 1.79297L19.1133 0.854492C18.9692 0.711706 18.9263 0.496455 19.0039 0.30957C19.0817 0.122678 19.2651 0.000115021 19.4688 0H23.4961ZM5.13965 0.446289C5.73438 -0.143441 6.69824 -0.143441 7.29297 0.446289L7.59473 0.746094C8.12367 1.27091 8.92078 1.42341 9.6084 1.13184C9.96649 0.979646 10.3834 1.08251 10.6289 1.38281C10.874 1.68302 10.8892 2.10814 10.666 2.4248L9.07324 4.68555C9.02605 4.75231 8.94836 4.7918 8.86621 4.79199H3.56641C3.48439 4.7918 3.40756 4.75212 3.36035 4.68555L1.7666 2.4248C1.54346 2.10806 1.55936 1.68298 1.80469 1.38281C2.05019 1.08255 2.46616 0.979738 2.82422 1.13184C3.51184 1.42348 4.30891 1.27089 4.83789 0.746094L5.13965 0.446289Z" fill="#404040"/>
</g>
<defs>
<clipPath id="clip0_686_410">
<rect width="24" height="24" fill="white"/>
</clipPath>
</defs>
</svg>
