<svg width="24" height="24" viewBox="0 0 24 24" fill="none" xmlns="http://www.w3.org/2000/svg">
<path d="M12 3C15.4516 3 18.0984 3.11997 20.0381 3.26172C21.0166 3.33182 21.9372 3.76518 22.6309 4.48047C23.3245 5.19576 23.7445 6.14517 23.8125 7.1543C23.9194 8.55717 24 10.227 24 12C24 13.836 23.913 15.563 23.8018 16.9951C23.6424 19.0392 22.1311 20.6017 20.1816 20.7412C18.2246 20.8818 15.4854 21 12 21C8.51465 21 5.77544 20.8818 3.81836 20.7412C1.86893 20.6017 0.357553 19.0392 0.198242 16.9951C0.0869695 15.563 0 13.836 0 12C0.00221415 10.383 0.0646696 8.76634 0.1875 7.1543C0.255492 6.14517 0.675529 5.19576 1.36914 4.48047C2.06277 3.76518 2.98335 3.33182 3.96191 3.26172C5.90046 3.11997 8.54836 3 12 3ZM9.81836 15.375L15.8184 12L9.81836 8.625V15.375Z" fill="#404040"/>
</svg>
