<svg width="24" height="24" viewBox="0 0 24 24" fill="none" xmlns="http://www.w3.org/2000/svg">
<path fill-rule="evenodd" clip-rule="evenodd" d="M12.2432 0.0117188C12.8052 0.0668662 13.3271 0.313332 13.7314 0.717773L23.25 10.2344L23.2529 10.2363L23.2861 10.2695C24.2391 11.2245 24.238 12.7773 23.2842 13.7314C22.8219 14.1935 22.2059 14.4482 21.5527 14.4482H21.4922V21.1846C21.4922 22.7373 20.2298 24 18.6768 24H14.9395C14.399 23.9998 13.9609 23.5617 13.9609 23.0215V17.5107C13.9609 17.0674 13.6225 16.7014 13.1904 16.6572L13.1025 16.6523H10.8975C10.4246 16.6528 10.0391 17.038 10.0391 17.5107V23.0215C10.0391 23.5618 9.6012 24 9.06054 24H5.32324C3.77055 23.9998 2.50781 22.7372 2.50781 21.1846V14.4482H2.41992C2.39092 14.4482 2.36345 14.4453 2.34082 14.4434H2.32617C1.71818 14.4134 1.1477 14.1634 0.715818 13.7314C-0.234116 12.7816 -0.238374 11.239 0.702146 10.2832L0.703123 10.2812L10.2686 0.717773C10.7307 0.255711 11.3466 9.75728e-05 12 0L12.2432 0.0117188ZM12 1.95703C11.8687 1.95713 11.7464 2.00749 11.6533 2.10059L2.10058 11.6523C1.9095 11.8436 1.90954 12.1554 2.10058 12.3467C2.19025 12.4364 2.30981 12.4869 2.43847 12.4893C2.45762 12.4896 2.48095 12.4909 2.48437 12.4912H3.48633C4.02669 12.4913 4.46464 12.9293 4.46484 13.4697V21.1846C4.46484 21.6573 4.8505 22.0427 5.32324 22.043H8.08203V17.5107C8.08206 15.9583 9.3448 14.6957 10.8975 14.6953H13.1025C14.5582 14.6955 15.7596 15.8049 15.9043 17.2227L15.9189 17.5107V22.043H18.6768C19.1498 22.0429 19.5352 21.6574 19.5352 21.1846V13.4697C19.5354 12.9295 19.9734 12.4914 20.5137 12.4912H21.5527C21.6842 12.4912 21.8072 12.4407 21.9004 12.3477C22.0907 12.1572 22.0916 11.8461 21.9023 11.6543L12.3477 2.10059C12.2542 2.00724 12.1311 1.95703 12 1.95703Z" fill="#404040"/>
</svg>
