
<svg viewBox="0 0 57 42" version="1.1" xmlns="http://www.w3.org/2000/svg" xmlns:xlink="http://www.w3.org/1999/xlink">
    <g id="Design-token" stroke="none" stroke-width="1" fill="none" fill-rule="evenodd">
        <g id="Logo" transform="translate(-94.000000, -494.000000)">
            <rect fill="transparent" x="0" y="0" width="1276" height="1708"></rect>
            <g id="logo-/-ge-/-lion-symbol" transform="translate(93.999910, 494.856104)" fill="#D52B1E">
                <path d="M39.1288618,0.0949212576 C40.3884683,-0.0169992366 41.6662962,-0.026444004 42.9291733,0.0481696588 C43.4706733,0.0798096297 43.9869437,0.453350182 44.5270421,0.632800763 C45.1951569,0.854752798 45.8730831,1.04695382 46.552411,1.23112678 C47.0383126,1.36288129 47.5513126,1.41152184 48.0185257,1.58813899 C48.4058454,1.73406065 48.8174601,1.94656791 49.0875093,2.24880047 C49.5136077,2.72623347 49.9934356,2.91087867 50.6059519,2.95007446 C51.3105093,2.99540934 52.0216077,3.07474539 52.708411,3.23388972 C53.5353782,3.4256185 53.7292716,3.70565585 53.7026405,4.54812911 C53.6853536,5.09120323 53.5951815,5.63427736 53.5096815,6.17262911 C53.3863372,6.95512809 52.8705339,7.31355701 52.1356077,7.446256 C51.07737,7.6370403 50.0569765,7.41886617 49.0351815,7.19266399 C47.4933782,6.85123565 47.1144683,7.16149626 47.1116651,8.7741903 C47.1083946,10.3661059 47.3560175,10.6064752 48.920247,10.6244202 C50.1504192,10.6381152 51.3455503,10.5573624 52.3958454,9.79375294 C52.666829,9.5963573 52.9317388,9.69033274 52.9392142,10.0615121 C52.9508946,10.6631438 52.967247,11.273748 52.8789437,11.8649904 C52.7798946,12.5313188 52.4785421,12.69613 51.8015503,12.6125438 C51.6034519,12.5879874 51.4058208,12.5572919 51.0965257,12.5143182 C52.223911,14.2124874 52.1000995,15.9191569 51.4959929,17.6352711 C51.1296978,18.6760845 50.5835257,19.6111165 49.5421077,20.3133349 C49.4038126,20.0049633 49.2659847,19.7542047 49.1776815,19.4864455 C49.0534028,19.1124327 48.9833208,18.7195304 48.8534356,18.3478788 C48.8132552,18.2340694 48.6515995,18.1632336 48.5455421,18.0730361 C48.4567716,18.1821231 48.3147388,18.2798765 48.2885749,18.4026585 C48.2133536,18.7516426 48.2147552,19.1180996 48.1311241,19.4637781 C48.0119847,19.954906 47.8395831,20.4318668 47.6994192,20.9178 C47.6386815,21.1284184 47.5410339,21.3527316 47.5634601,21.559572 C48.0068454,25.5972101 48.6095503,29.6074583 50.1644356,33.386782 C50.5881978,34.4162617 51.2862142,35.3305152 51.8571487,36.2981316 C52.0725339,36.6622274 52.362206,36.6726166 52.7228946,36.5262227 C53.2064601,36.3302438 53.7031077,36.1649604 54.1964847,35.9944823 C54.7305093,35.8103093 55.161747,35.9557588 55.4364683,36.4577481 C55.7976241,37.1155762 56.2129765,37.7582926 56.4657388,38.4586221 C56.8866978,39.6269399 56.3895831,40.2984628 55.1608126,40.3063054 C54.528206,40.3097965 53.8876569,40.2767399 53.2639274,40.1775698 C51.7412798,39.9353115 50.22237,39.8734483 48.6880421,40.0415652 C47.8414519,40.1341239 46.7425667,39.1513958 46.7397634,38.1408057 C46.7374274,37.2326913 46.4061733,36.5035553 46.013247,35.7564742 C45.6287306,35.0249769 45.3124274,34.2438947 44.8405421,33.5752051 C44.4373372,33.0042689 43.8411733,32.576421 43.3622798,32.0550698 C43.1964192,31.875147 43.0641978,31.6144714 43.0268208,31.3731576 C42.9487962,30.8664458 43.0455093,30.3134547 42.8861897,29.8435775 C42.6306241,29.0922463 42.2250831,28.3933335 41.9368126,27.7855627 C40.6501077,28.2653569 39.4979601,28.6818711 38.3602962,29.1352199 C38.2121897,29.1942497 38.0304437,29.4544531 38.046329,29.6013192 C38.2888126,31.8005333 38.6826733,33.9629128 39.6465339,35.9817319 C39.8974274,36.5073332 40.2193372,36.6168925 40.7664437,36.441692 C41.3060749,36.2683806 41.8821487,36.1696827 42.4479437,36.1323759 C42.9712224,36.0983747 43.3463946,36.4454699 43.483288,36.9337644 C43.6869929,37.6562891 43.8584601,38.3953422 43.9575093,39.1391176 C44.046747,39.8101684 43.7444601,40.1209012 43.1109192,40.1062618 C41.076206,40.0599824 39.0410257,40.0165365 37.007247,39.9329503 C35.8336077,39.884782 35.1869847,39.1254227 35.1098946,37.9410489 C35.0762552,37.4315037 34.9505749,36.8988188 34.7389274,36.4369697 C34.363288,35.6171638 33.9213044,34.8238034 33.4442798,34.0592495 C33.2031978,33.6724862 32.8597962,33.3282245 32.5009765,33.0453537 C32.0178782,32.6642573 31.8151077,32.2609657 31.9767634,31.6300553 C32.0879601,31.193707 32.0571241,30.7205242 32.0926323,30.2279795 C31.0909274,30.2279795 30.2018208,30.3290386 29.3454192,30.2020064 C28.3161487,30.0499457 27.5443126,30.4050689 26.661747,30.8853354 C25.5142716,31.510579 24.2088782,31.8562574 22.9488044,32.2491598 C21.5962224,32.6708686 21.5593126,32.6439511 22.0639028,33.9666907 C22.2239233,34.3862745 22.4060196,34.797358 22.5950657,35.2056671 L23.1679274,36.4279971 C23.3108946,36.7396745 23.5393618,36.800121 23.8589356,36.6726166 C24.1869192,36.5418066 24.5284519,36.4364974 24.8723208,36.3571614 C25.8385175,36.1347371 26.3734765,36.3609393 26.7804192,37.2747205 C27.0373864,37.8517958 27.2041815,38.4803451 27.3326651,39.1027553 C27.4905831,39.8682537 27.2368864,40.1747364 26.4655175,40.1837089 C25.7011569,40.1926814 24.936329,40.1256236 24.1715011,40.1152343 C22.8455503,40.0972893 21.5186651,40.0996505 20.192247,40.0878445 C19.4166733,40.0812332 19.115788,39.7676669 18.9321733,39.0097243 C18.7443536,38.2338367 18.4780421,37.4749496 18.2107962,36.7212572 C18.0603536,36.2971871 17.8183372,35.9075904 17.6529437,35.4877705 C17.3870995,34.8134141 16.9661405,34.3085913 16.3340011,33.937412 C15.4280749,33.4056715 15.4911487,32.2156309 16.427911,31.7164749 C16.7404765,31.5497747 17.0764028,31.4288817 17.3964437,31.274932 C18.0271815,30.9722272 18.4630913,30.4839327 18.7602388,29.8039095 C18.2640585,29.7089896 17.8944929,29.7840755 17.506706,30.106142 C16.4361028,30.9975392 15.1472217,31.3561717 13.8386652,31.6745099 L13.2340421,31.8203673 C11.9319192,32.1362948 10.642411,32.5155022 9.36318145,32.9173771 C8.30587818,33.2488884 7.57328801,33.9657463 7.17428801,35.0263936 C6.97198473,35.5647454 6.72903391,36.087041 6.45711588,36.728813 C6.9673126,36.5701409 7.35136178,36.4563314 7.73214047,36.330716 C8.20309129,36.1753496 8.60396014,36.2735752 8.83523063,36.7231461 C9.16041096,37.3545288 9.52109949,37.9863838 9.71686178,38.6621569 C9.97709949,39.559882 9.44447654,40.189848 8.52593555,40.1964593 C8.17459129,40.1992928 7.8153044,40.1709585 7.47236998,40.0977615 C6.07400113,39.7988346 4.68404211,39.9910356 3.29127981,40.1322349 C2.97591096,40.1638749 2.66054211,40.209682 2.34423883,40.219599 C1.6770585,40.2408497 1.32898473,39.9315336 1.2780585,39.2661497 C1.21358309,38.4288711 1.37103391,37.6973739 1.80694375,36.9129859 C2.86938637,34.9999483 3.99583719,33.0845495 4.22991096,30.8182775 C4.29999293,30.1363653 5.00221424,29.5404005 5.75209129,29.5866798 C6.86125522,29.6546822 7.66299293,29.1578874 8.29700113,28.3224977 C8.89550113,27.5348041 9.45008309,26.7135816 10.0238208,25.9069984 C9.99205031,25.8739418 9.96027981,25.8408851 9.92850932,25.8073561 C9.36505031,25.9707506 8.80719785,26.159646 8.23673063,26.2923449 C6.4328208,26.7131093 4.64012408,26.6828861 2.88994375,26.0345028 C0.667878175,25.2113913 -0.470252972,23.0339002 0.183378175,20.8823822 C0.559017519,19.6470066 1.4598044,18.8701745 2.5213126,18.2539034 C4.17758309,17.2924261 6.00391916,16.9524144 7.87417326,16.7639913 C8.76468145,16.674266 9.65612408,16.5717903 10.537288,16.4178406 C11.3324847,16.2785303 11.4941405,16.0098266 11.2619356,15.2504673 C10.7657552,13.6297452 11.2624028,12.3282563 12.4589356,11.2331355 C13.0265995,10.7136733 13.6054765,10.2046003 13.7746077,9.39046137 C13.8502962,9.38148884 13.9259847,9.37298855 14.0016733,9.36401603 C14.3081651,10.4803875 14.6903454,11.5825919 14.9019929,12.7173807 C15.1659683,14.1312624 14.4983208,15.2471617 13.4952142,16.1680265 C12.2851323,17.2792034 10.7793044,17.7032734 9.21974703,17.9828386 C7.60786178,18.270904 5.93243555,18.3294615 4.45604211,19.132739 C3.7430749,19.5204467 3.04318965,19.9959907 2.46898473,20.5673992 C1.35655031,21.6743259 1.5168044,23.1552654 2.84462408,23.9708211 C4.57237818,25.032413 6.41366506,25.1169436 8.24514047,24.2324412 C8.64554211,24.0392957 9.00436178,23.6690608 9.2720749,23.2978814 C11.5175011,20.1872473 14.6711897,18.9754836 18.3355421,18.8068945 C20.0880585,18.7261418 21.8419765,18.6685287 23.5940257,18.5788034 C25.5030585,18.4815223 27.1490503,17.6754114 28.7151487,16.6317646 C29.7061077,15.9715753 30.5232634,15.3926111 30.4246815,13.892782 C30.3290196,12.434569 30.9208764,11.0634912 31.5510976,9.73683992 L31.8216487,9.17087053 C31.9379847,8.92766777 32.0272224,8.67171457 32.1809356,8.29439611 C31.7319437,8.5404323 31.4198454,8.71185483 31.107747,8.88280512 L30.9554356,8.75010614 C31.247911,7.08829931 32.0351651,5.64608332 33.0747142,4.33420512 C34.1315503,2.99918725 35.623829,2.29602431 37.1740421,1.69486486 L37.1380667,1.51258085 L36.0625421,1.33076908 C36.0424519,1.28071181 36.022829,1.23065454 36.003206,1.18059728 C36.2526978,1.01625832 36.4825667,0.784861519 36.7568208,0.699858612 C37.5370667,0.457600327 38.3261897,0.166229252 39.1288618,0.0949212576 Z M42.3671159,21.3579262 C42.2339601,21.0627772 42.0064274,21.0320817 41.7901077,21.2672564 C41.2257142,21.8811663 40.98837,22.6202194 41.0131323,23.4560813 C41.1789929,23.273325 41.2850503,23.0608178 41.4144683,22.8638944 C41.5429519,22.6693322 41.694329,22.4908261 41.893829,22.229206 C42.2390995,22.8388657 42.5250339,23.3602169 42.8268536,23.8721233 C43.340788,24.7434031 44.1070175,25.2765602 45.0685421,25.5310967 C45.3904519,25.6160996 45.6763864,25.5707647 45.8478536,25.2477537 C45.5469683,25.1518893 45.2600995,25.113638 45.0302306,24.9776333 C44.0075011,24.370807 43.189411,23.5689463 42.7740585,22.4096011 C42.6469765,22.0558945 42.5217634,21.6998268 42.3671159,21.3579262 Z M32.6785175,15.2939133 C32.5967552,15.3779717 32.5617142,15.3978057 32.5505011,15.4275567 C32.5163946,15.5149208 32.4813536,15.6041739 32.4640667,15.6957881 C31.9174274,18.5981652 32.6574929,21.0693886 34.8926405,23.0263444 C35.0771897,23.1878499 35.3392962,23.2582134 35.5658946,23.3710784 C35.6859683,23.1094583 35.8434192,22.8577553 35.9167716,22.5833848 C36.0088126,22.2358173 36.0326405,21.8693604 36.1059929,21.375399 C36.6680503,22.3245981 37.0918126,23.1576266 37.6258372,23.9108468 C38.182288,24.695707 38.9788864,25.1802236 39.9815257,25.3218951 C37.8206651,24.057713 36.9245503,21.9614468 36.2966159,19.6422842 C36.1181405,19.822207 35.9765749,19.9903239 35.9163044,20.1844138 C35.8698946,20.3337986 35.828105,20.4846525 35.7886168,20.636241 L35.5607552,21.5487105 C35.3976978,22.1744263 35.1967962,22.2570681 34.7515421,21.7867186 C33.5648208,20.5348147 32.6518864,19.1388781 32.6775831,17.3047043 C32.6864601,16.654432 32.6785175,16.0032153 32.6785175,15.2939133 Z M42.4241159,12.0326351 C42.44187,12.2040576 42.4362634,12.2961441 42.4624274,12.3768968 C42.7427552,13.2392041 43.4515175,13.7218317 44.4779847,13.6259673 C45.1376897,13.5641041 45.8058044,13.4144045 46.43187,13.1938692 C47.6830667,12.7532708 48.9309929,12.331562 50.2798372,12.2654486 C50.0831405,12.1648618 49.8911159,12.107721 49.6958208,12.0883592 C48.6431897,11.9839945 47.6681159,12.3027554 46.7047224,12.6706291 C45.1946897,13.2467599 43.7538044,13.2949282 42.4241159,12.0326351 Z M40.9757552,3.67637707 C40.5375093,2.88348884 39.9095749,2.62092431 39.0461651,2.81359757 C38.2308782,2.99540934 37.6744274,3.59987446 37.6309765,4.35167794 C37.5702388,5.38965789 38.3271241,6.29257765 39.6881159,6.75537126 C39.6474683,8.28542358 40.2025175,9.58407911 41.3953126,10.6603104 C41.4013864,10.5465009 41.4177388,10.5025827 41.4032552,10.4770819 C40.6912224,9.24123405 40.3590339,7.91282751 40.3973454,6.48052853 C40.4010831,6.35113521 40.2029847,6.1688512 40.056747,6.0937653 C39.7778208,5.95067707 39.4512388,5.90156428 39.1760503,5.75280919 C38.5939028,5.43877068 38.2654519,4.57693565 38.4747634,4.00788841 C38.6723946,3.47189786 39.4007798,3.13991428 40.0815093,3.31133681 C40.3632388,3.3826448 40.6262798,3.53092765 40.9757552,3.67637707 Z M54.1500905,7.53139643 C53.5351991,9.36361464 52.6790811,9.90695851 51.2450512,9.5788624 C50.5544809,9.42056126 49.8527308,9.33696989 49.1625905,9.22098688 C49.4468165,8.61181481 49.9481894,8.12385022 50.6804692,8.04287109 C50.9350256,8.014659 51.1986119,8.01100188 51.4501584,8.05854447 C52.3462658,8.22677209 53.2238835,8.25707396 54.1500905,7.53139643 Z M53.0513454,3.89219001 C52.8499765,3.88038405 52.6453372,3.88085629 52.4449028,3.90446821 C52.1398126,3.93941384 51.8370585,3.99891588 51.5338372,4.04802867 L51.4118946,4.23881297 C52.9228618,4.60574219 52.6934601,5.67914001 52.565911,6.71050861 C52.5551651,6.79881719 52.5322716,6.88618129 52.5149847,6.97354539 C52.5892716,6.99054597 52.6630913,7.00707431 52.7373782,7.02407489 C52.8191405,6.6217278 52.9494929,6.2217419 52.9714519,5.81608914 C52.9734286,5.77918189 52.9746257,5.74227185 52.9753868,5.70543102 L52.9774713,5.48579268 C52.9813906,5.12303322 53.0104463,4.78159649 53.4082962,4.53348972 C53.5185585,4.46454291 53.4891241,4.16750498 53.5246323,3.97530396 C53.3671815,3.94649742 53.2101978,3.90163478 53.0513454,3.89219001 Z M47.5321569,3.57531806 C46.6472552,3.0294105 45.7978618,2.97368637 45.0035995,3.35242155 C45.7329192,3.5880685 46.48887,3.83221573 47.3004192,4.09430803 C47.337329,4.01119408 47.4326405,3.79821457 47.5321569,3.57531806 Z" id="Combined-Shape"></path>
            </g>
        </g>
    </g>
</svg>